<?xml version="1.0" ?>
<svg xmlns="http://www.w3.org/2000/svg" version="1.1" width="600" height="600">
  <defs/>
  <g>
    <path d="M 331.9646301269531 17.0849552154541 C 344.3030700683594 -6.81009578704834 347.5148010253906 -8.909581184387207 356.16119384765625 -7.970789909362793 C 354.94024658203125 18.514211654663086 357.0567321777344 21.91461944580078 355.2647705078125 28.80900764465332 C 350.84295654296875 27.275646209716797 355.2824401855469 30.902719497680664 352.4118957519531 41.60963821411133 C 342.7669372558594 34.783058166503906 337.2334289550781 34.14827346801758 331.9646301269531 17.0849552154541" stroke-width="0.0" fill="rgb(34, 34, 33)" opacity="0.90926445"/>
    <path d="M 466.22027587890625 29.40319061279297 C 474.4282531738281 49.415191650390625 511.3293151855469 46.41064453125 510.1673583984375 40.74235153198242 C 505.6157531738281 49.309417724609375 524.316650390625 50.168582916259766 533.4359741210938 2.538274049758911 C 517.5977172851562 -15.440014839172363 496.850830078125 -8.786816596984863 495.83099365234375 1.0100624561309814 C 496.0977783203125 13.920480728149414 499.6159973144531 11.544414520263672 466.22027587890625 29.40319061279297" stroke-width="0.0" fill="rgb(38, 38, 37)" opacity="0.94228625"/>
    <path d="M 591.1456298828125 516.1903686523438 C 591.700927734375 513.0969848632812 594.3107299804688 510.909423828125 600.8519897460938 513.9507446289062 C 600.0470581054688 515.7623291015625 593.5634765625 515.9630737304688 582.1603393554688 517.3870849609375 C 572.3798217773438 516.9921875 562.0438232421875 520.7687377929688 555.459716796875 482.2553405761719 C 599.9451904296875 488.137939453125 595.7904663085938 492.19732666015625 591.1456298828125 516.1903686523438" stroke-width="0.0" fill="rgb(32, 32, 30)" opacity="0.9522692"/>
    <path d="M 536.0260009765625 503.2886047363281 C 573.7196655273438 497.18719482421875 575.2603149414062 499.3648376464844 572.1198120117188 548.0406494140625 C 535.947998046875 540.6931762695312 546.7886962890625 517.6681518554688 532.8302612304688 518.041015625 C 531.4815063476562 530.5506591796875 528.2415771484375 527.0908203125 529.4317016601562 553.1858520507812 C 557.4597778320312 552.3916625976562 543.6043090820312 548.3945922851562 536.0260009765625 503.2886047363281" stroke-width="0.0" fill="rgb(25, 26, 24)" opacity="1.0"/>
    <path d="M 493.3958435058594 593.396728515625 C 473.45147705078125 597.6880493164062 471.6537780761719 595.5732421875 473.5361022949219 565.1455688476562 C 495.3550720214844 563.9265747070312 489.1702575683594 574.2648315429688 490.2178955078125 585.1195068359375 C 503.4169921875 585.7994384765625 504.5276184082031 582.5035400390625 503.8824768066406 572.4869384765625 C 490.0733337402344 564.0328979492188 493.3171691894531 562.6928100585938 493.3958435058594 593.396728515625" stroke-width="0.0" fill="rgb(5, 4, 2)" opacity="0.999521"/>
    <path d="M 556.5711669921875 487.17425537109375 C 555.9276733398438 493.975830078125 554.0944213867188 488.87432861328125 550.7265625 529.9715576171875 C 582.40625 538.808349609375 587.827392578125 529.0282592773438 589.7874755859375 522.1203002929688 C 590.7464599609375 516.5133056640625 589.9224853515625 517.02783203125 605.2318725585938 536.3302001953125 C 608.9493408203125 524.1636352539062 603.8025512695312 512.0924072265625 556.5711669921875 487.17425537109375" stroke-width="0.0" fill="rgb(20, 20, 19)" opacity="1.0"/>
    <path d="M 217.5498504638672 36.86201858520508 C 232.84999084472656 33.85453796386719 230.78221130371094 37.49202346801758 224.04930114746094 36.07985305786133 C 231.0186309814453 35.78679656982422 234.7266082763672 33.028079986572266 234.6527099609375 6.134390354156494 C 208.73965454101562 4.697351932525635 203.42361450195312 8.799958229064941 198.67742919921875 15.229870796203613 C 198.02833557128906 39.94169235229492 197.947021484375 36.73110580444336 217.5498504638672 36.86201858520508" stroke-width="0.0" fill="rgb(16, 16, 15)" opacity="0.9873904"/>
    <path d="M 132.853271484375 577.2162475585938 C 157.5137481689453 575.2025756835938 151.65325927734375 576.2513427734375 155.21778869628906 575.6842651367188 C 153.8690948486328 600.0391235351562 159.6946563720703 608.4627075195312 141.06495666503906 610.1314086914062 C 139.3981475830078 586.83740234375 126.69322967529297 572.9379272460938 117.00885009765625 600.0352783203125 C 152.26629638671875 612.18212890625 136.59288024902344 601.1538696289062 132.853271484375 577.2162475585938" stroke-width="0.0" fill="rgb(18, 18, 17)" opacity="0.99979705"/>
    <path d="M 578.3749389648438 403.0010986328125 C 587.2196044921875 411.69342041015625 590.0167236328125 411.2418212890625 589.7658081054688 422.7706298828125 C 599.448974609375 426.5854797363281 606.8125 425.59954833984375 611.9453735351562 420.7550048828125 C 611.4660034179688 386.6385803222656 611.9517211914062 376.1961669921875 601.1669311523438 373.2528381347656 C 583.2215576171875 395.3961486816406 582.4697265625 395.77001953125 578.3749389648438 403.0010986328125" stroke-width="0.0" fill="rgb(0, 0, 0)" opacity="1.0"/>
    <path d="M 305.4755554199219 610.5311889648438 C 320.8232727050781 611.9118041992188 325.466796875 610.9000244140625 327.46533203125 586.3294677734375 C 303.3061828613281 578.0773315429688 295.8888244628906 582.6744384765625 299.62579345703125 582.2120361328125 C 293.66827392578125 581.3685913085938 286.22247314453125 578.5715942382812 267.4638366699219 603.8638916015625 C 275.1172790527344 614.4570922851562 284.61981201171875 610.885498046875 305.4755554199219 610.5311889648438" stroke-width="0.0" fill="rgb(22, 23, 22)" opacity="1.0"/>
    <path d="M 288.5047912597656 566.6859130859375 C 280.3489990234375 567.36767578125 277.18658447265625 568.733154296875 267.30828857421875 596.0731201171875 C 287.69329833984375 590.8021240234375 291.35687255859375 585.826416015625 288.9337158203125 582.4044189453125 C 294.379150390625 585.2086791992188 297.07183837890625 583.8831787109375 314.3010559082031 582.6027221679688 C 316.9074401855469 561.0239868164062 312.80816650390625 564.179931640625 288.5047912597656 566.6859130859375" stroke-width="0.0" fill="rgb(13, 13, 11)" opacity="1.0"/>
    <path d="M 595.0775756835938 326.40118408203125 C 611.2694091796875 328.4094543457031 611.9686279296875 337.3933410644531 610.421630859375 363.9112548828125 C 605.0616455078125 365.4853820800781 599.41845703125 368.8213195800781 567.4856567382812 375.4360046386719 C 567.5726928710938 364.2073059082031 567.1302490234375 362.9047546386719 569.98486328125 340.38067626953125 C 585.4246215820312 337.7433166503906 584.0352783203125 337.39593505859375 595.0775756835938 326.40118408203125" stroke-width="0.0" fill="rgb(19, 20, 18)" opacity="1.0"/>
    <path d="M 564.5824584960938 314.75054931640625 C 552.8123779296875 339.30535888671875 555.5665893554688 344.6939392089844 590.8863525390625 342.5177917480469 C 575.14111328125 314.36785888671875 575.5569458007812 316.3325500488281 578.285400390625 318.25982666015625 C 577.24267578125 313.4361572265625 570.971923828125 316.62603759765625 600.1596069335938 337.36737060546875 C 603.24365234375 304.1113586425781 594.1328735351562 302.1493225097656 564.5824584960938 314.75054931640625" stroke-width="0.0" fill="rgb(29, 29, 26)" opacity="1.0"/>
    <path d="M 598.424560546875 424.4930419921875 C 566.0490112304688 421.4249267578125 571.22509765625 418.6398010253906 564.0999755859375 421.77734375 C 562.6146240234375 414.61663818359375 561.1716918945312 408.5105285644531 560.4468383789062 382.1822814941406 C 567.5762329101562 379.806640625 571.3087158203125 383.1341857910156 573.0985107421875 370.9791259765625 C 607.6995239257812 369.28778076171875 609.4871215820312 373.72613525390625 598.424560546875 424.4930419921875" stroke-width="0.0" fill="rgb(20, 21, 19)" opacity="0.9957134"/>
    <path d="M 546.3090209960938 383.5103454589844 C 578.368896484375 388.2760314941406 572.6392211914062 388.7626037597656 581.7509155273438 386.9383239746094 C 581.295166015625 408.5828552246094 581.3516235351562 411.1407470703125 580.2462768554688 429.5274963378906 C 550.4326171875 426.4147644042969 551.0339965820312 423.5906982421875 543.965576171875 425.09918212890625 C 538.4771118164062 424.23602294921875 536.0940551757812 411.0475158691406 546.3090209960938 383.5103454589844" stroke-width="0.0" fill="rgb(20, 21, 19)" opacity="0.9931997"/>
    <path d="M 9.263392448425293 29.948081970214844 C 39.405128479003906 32.656822204589844 50.60185241699219 33.25027084350586 49.55661392211914 26.59889793395996 C 41.96261978149414 5.0239033699035645 43.60733413696289 -1.2316069602966309 41.82819366455078 -4.70025634765625 C 22.75433349609375 11.025465965270996 19.709054946899414 -3.717129707336426 40.24608612060547 -6.692434310913086 C 36.78850173950195 5.963274002075195 20.569011688232422 -2.0495686531066895 9.263392448425293 29.948081970214844" stroke-width="0.0" fill="rgb(42, 42, 40)" opacity="0.92867947"/>
    <path d="M 550.371826171875 576.5333251953125 C 578.12060546875 567.6325073242188 579.46435546875 566.6820678710938 584.5009155273438 560.1215209960938 C 581.4835205078125 557.3118286132812 582.4628295898438 567.3394165039062 602.1919555664062 548.060546875 C 593.9653930664062 538.3557739257812 590.1088256835938 544.2972412109375 590.3215942382812 535.8400268554688 C 556.8836059570312 538.5487670898438 550.399658203125 543.8271484375 550.371826171875 576.5333251953125" stroke-width="0.0" fill="rgb(19, 19, 17)" opacity="0.9999603"/>
    <path d="M 540.6939697265625 334.082763671875 C 542.920654296875 293.7945251464844 545.3656005859375 294.9230041503906 554.8925170898438 294.0902099609375 C 566.9502563476562 297.621826171875 570.0778198242188 298.0130920410156 581.5653076171875 294.9515075683594 C 580.5693969726562 301.1622619628906 579.1348876953125 298.9869689941406 593.6843872070312 302.0683898925781 C 586.4218139648438 332.1531982421875 577.166748046875 335.50958251953125 540.6939697265625 334.082763671875" stroke-width="0.0" fill="rgb(26, 27, 25)" opacity="0.9537771"/>
    <path d="M 443.8772277832031 608.739990234375 C 445.0061950683594 567.6087646484375 456.4574279785156 566.4857177734375 457.294189453125 566.7864990234375 C 470.41522216796875 563.3103637695312 479.49810791015625 567.3695068359375 489.0513000488281 563.3059692382812 C 483.263671875 565.2984619140625 484.5906066894531 565.5887451171875 502.37786865234375 557.668212890625 C 500.0732116699219 589.2260131835938 504.0076599121094 599.1769409179688 443.8772277832031 608.739990234375" stroke-width="0.0" fill="rgb(22, 22, 21)" opacity="1.0"/>
    <path d="M 559.302001953125 566.9826049804688 C 517.9327392578125 564.8184204101562 518.3211059570312 575.5974731445312 521.9007568359375 608.18115234375 C 547.51123046875 598.0943603515625 544.7555541992188 596.6704711914062 536.9330444335938 603.126708984375 C 549.8507690429688 564.7044067382812 570.2553100585938 569.9028930664062 572.1575927734375 607.3020629882812 C 524.7706909179688 609.3467407226562 529.9052734375 611.1766357421875 559.302001953125 566.9826049804688" stroke-width="0.0" fill="rgb(24, 24, 23)" opacity="1.0"/>
    <path d="M 544.01025390625 404.7594909667969 C 561.884033203125 393.6552734375 561.0646362304688 386.347900390625 556.3273315429688 383.681884765625 C 558.2197875976562 388.6189880371094 559.7479248046875 383.3222351074219 562.624755859375 376.8414306640625 C 560.8057861328125 373.4398193359375 559.5350341796875 368.2698059082031 546.8739624023438 369.78814697265625 C 549.30419921875 392.7153015136719 546.5302124023438 396.5281982421875 544.01025390625 404.7594909667969" stroke-width="0.0" fill="rgb(55, 56, 54)" opacity="0.8453923"/>
    <path d="M 473.1728210449219 565.4120483398438 C 446.1590576171875 563.0015258789062 441.93450927734375 567.6998291015625 445.8538818359375 606.0542602539062 C 483.9521484375 591.2520141601562 471.7010498046875 571.9422607421875 470.28753662109375 575.2506713867188 C 452.5664978027344 582.5692749023438 454.9747619628906 588.93310546875 475.8177795410156 581.1979370117188 C 472.08648681640625 583.2738647460938 472.8700866699219 582.2849731445312 473.1728210449219 565.4120483398438" stroke-width="0.0" fill="rgb(22, 22, 20)" opacity="0.99302995"/>
    <path d="M 22.34260368347168 11.70363998413086 C 72.15755462646484 11.90610408782959 71.39995574951172 39.338111877441406 35.33007049560547 31.61925506591797 C 34.00481414794922 33.4299201965332 45.8261833190918 37.79681396484375 49.79983901977539 38.29901885986328 C 47.722877502441406 38.310428619384766 48.03607940673828 38.70713806152344 47.47024154663086 37.89881896972656 C 52.22541809082031 35.974666595458984 35.054969787597656 44.03285217285156 22.34260368347168 11.70363998413086" stroke-width="0.0" fill="rgb(23, 24, 22)" opacity="0.8996568"/>
    <path d="M 447.33404541015625 -13.771535873413086 C 425.8953857421875 -11.21672248840332 422.28485107421875 -6.539555549621582 426.8875427246094 21.378854751586914 C 435.7494812011719 35.660499572753906 449.4237060546875 37.148563385009766 469.26397705078125 26.604494094848633 C 465.759765625 36.31247329711914 448.20196533203125 32.796165466308594 471.99432373046875 32.2935791015625 C 474.9576110839844 23.549821853637695 471.51470947265625 6.875993251800537 447.33404541015625 -13.771535873413086" stroke-width="0.0" fill="rgb(17, 17, 16)" opacity="1.0"/>
    <path d="M 558.5109252929688 595.6060791015625 C 559.74609375 566.1705932617188 562.8995971679688 564.6365966796875 608.2535400390625 562.8497314453125 C 611.549560546875 604.11083984375 607.96044921875 608.150390625 595.8462524414062 603.3158569335938 C 569.023681640625 590.7918090820312 564.3027954101562 592.0632934570312 577.1130981445312 602.7246704101562 C 598.572509765625 595.9586791992188 597.4816284179688 583.4710083007812 558.5109252929688 595.6060791015625" stroke-width="0.0" fill="rgb(18, 19, 18)" opacity="1.0"/>
    <path d="M 585.1868286132812 516.8698120117188 C 584.6787719726562 509.2481689453125 589.8505859375 509.64813232421875 596.856689453125 510.04486083984375 C 596.781494140625 512.3494262695312 598.3489990234375 509.2789306640625 609.622802734375 513.50341796875 C 604.3972778320312 523.2145385742188 600.1412963867188 517.4078369140625 596.57470703125 517.9381713867188 C 592.3251342773438 517.2841796875 591.8411254882812 516.5614624023438 585.1868286132812 516.8698120117188" stroke-width="0.0" fill="rgb(21, 21, 20)" opacity="1.0"/>
    <path d="M 568.3211059570312 525.5536499023438 C 564.3295288085938 536.6968383789062 574.49462890625 539.3302001953125 578.3380737304688 532.1787109375 C 585.5122680664062 517.6093139648438 591.1672973632812 519.9256591796875 588.0554809570312 507.3718566894531 C 580.0259399414062 506.0494384765625 582.2250366210938 512.2285766601562 590.5611572265625 525.0597534179688 C 587.4105834960938 533.077880859375 585.6144409179688 530.335693359375 568.3211059570312 525.5536499023438" stroke-width="0.0" fill="rgb(19, 20, 18)" opacity="1.0"/>
    <path d="M 547.9989013671875 466.29095458984375 C 573.0288696289062 455.845947265625 574.449462890625 448.7274169921875 572.5775756835938 448.9769287109375 C 565.2651977539062 424.2117614746094 560.0291137695312 423.776123046875 552.0467529296875 432.3072509765625 C 547.1624755859375 435.3705139160156 546.3245849609375 437.053955078125 550.6292724609375 427.4653625488281 C 530.6934814453125 428.5357360839844 523.5986938476562 449.9781494140625 547.9989013671875 466.29095458984375" stroke-width="0.0" fill="rgb(41, 42, 40)" opacity="0.973418"/>
    <path d="M 593.8035888671875 551.3788452148438 C 571.0427856445312 518.407470703125 568.9044799804688 516.6475219726562 610.6826782226562 519.4986572265625 C 610.8636474609375 553.1961059570312 612.33447265625 558.4617309570312 600.8291625976562 561.6610107421875 C 569.3978271484375 513.7265625 557.8345947265625 508.86859130859375 553.0853271484375 540.3977661132812 C 583.6031494140625 559.8160400390625 603.9847412109375 562.9864501953125 593.8035888671875 551.3788452148438" stroke-width="0.0" fill="rgb(24, 24, 23)" opacity="0.9922195"/>
    <path d="M 263.38714599609375 30.351490020751953 C 274.0596618652344 3.575770139694214 272.4159851074219 3.9152727127075195 266.0236511230469 24.0894718170166 C 283.74407958984375 12.070514678955078 278.9182434082031 6.316770076751709 284.392333984375 3.3590381145477295 C 293.8720397949219 9.27928352355957 295.8330383300781 11.746393203735352 303.41162109375 25.431392669677734 C 301.55499267578125 28.396892547607422 299.141845703125 32.70101547241211 263.38714599609375 30.351490020751953" stroke-width="0.0" fill="rgb(27, 27, 25)" opacity="0.99072057"/>
    <path d="M 54.09486770629883 33.752349853515625 C 49.545082092285156 23.69758415222168 55.396297454833984 33.804073333740234 44.54134750366211 29.512788772583008 C 44.848785400390625 -3.885301113128662 52.91474151611328 -5.647617340087891 71.84530639648438 0.9738366007804871 C 74.06208038330078 13.996391296386719 71.00901794433594 13.41770076751709 89.22523498535156 15.404706954956055 C 97.7506332397461 37.691349029541016 98.87409210205078 33.53227615356445 54.09486770629883 33.752349853515625" stroke-width="0.0" fill="rgb(18, 19, 17)" opacity="0.9914753"/>
    <path d="M 71.1323471069336 9.871153831481934 C 77.52638244628906 21.58696937561035 76.86344909667969 26.63722801208496 88.74308013916016 34.10603332519531 C 97.8100814819336 35.35797119140625 91.73475646972656 29.918107986450195 94.1016845703125 25.482707977294922 C 93.50950622558594 13.5606107711792 94.77063751220703 12.971109390258789 93.00239562988281 1.2645742893218994 C 78.8867416381836 -0.6060866713523865 76.07759094238281 -2.0122132301330566 71.1323471069336 9.871153831481934" stroke-width="0.0" fill="rgb(12, 13, 11)" opacity="0.9517509"/>
    <path d="M 134.66775512695312 581.4591674804688 C 132.0865936279297 621.8386840820312 119.47232818603516 615.9291381835938 85.06734466552734 601.3370971679688 C 90.93148803710938 583.0795288085938 111.22889709472656 599.351806640625 121.61822509765625 582.6887817382812 C 101.61849975585938 579.34912109375 103.22826385498047 583.1017456054688 89.27483367919922 582.7529907226562 C 81.19886016845703 596.2018432617188 79.58012390136719 596.8034057617188 134.66775512695312 581.4591674804688" stroke-width="0.0" fill="rgb(16, 17, 15)" opacity="1.0"/>
    <path d="M 242.8340606689453 32.5781364440918 C 235.2204132080078 3.624735116958618 248.0193634033203 3.7605316638946533 249.77264404296875 24.59308624267578 C 230.33987426757812 32.723594665527344 246.04954528808594 14.70875072479248 243.51150512695312 -10.94326114654541 C 213.53880310058594 -6.73378324508667 213.9174346923828 -9.684366226196289 202.73655700683594 -5.21534538269043 C 215.58299255371094 37.89826583862305 223.9365997314453 35.592342376708984 242.8340606689453 32.5781364440918" stroke-width="0.0" fill="rgb(20, 21, 19)" opacity="1.0"/>
    <path d="M 548.6597290039062 294.7099609375 C 563.5382690429688 276.02850341796875 567.8836669921875 278.5794372558594 564.7012329101562 283.52459716796875 C 565.9779052734375 286.6161804199219 559.7382202148438 275.6292724609375 601.76708984375 250.9859161376953 C 600.4695434570312 277.3907775878906 594.7019653320312 278.2261657714844 587.1937866210938 301.9857482910156 C 570.8274536132812 301.7923278808594 555.5838623046875 304.0534973144531 548.6597290039062 294.7099609375" stroke-width="0.0" fill="rgb(11, 12, 11)" opacity="1.0"/>
    <path d="M 160.2159881591797 6.12748908996582 C 157.7144012451172 39.55314254760742 158.9221954345703 38.18293762207031 194.92587280273438 33.4697380065918 C 190.33981323242188 16.66600227355957 167.95120239257812 24.303146362304688 155.7467041015625 -4.351608753204346 C 189.8961639404297 -0.6958910226821899 201.3225555419922 -5.558352947235107 224.66160583496094 -7.310275077819824 C 209.51454162597656 36.58104705810547 198.61355590820312 38.06765365600586 160.2159881591797 6.12748908996582" stroke-width="0.0" fill="rgb(27, 28, 26)" opacity="0.9748815"/>
    <path d="M 566.7548217773438 315.7987365722656 C 544.1870727539062 317.8244934082031 540.6859130859375 318.1146545410156 547.51904296875 303.4941711425781 C 560.510498046875 288.6146240234375 558.7557983398438 284.2923889160156 553.7330322265625 286.9953308105469 C 560.7254028320312 287.1390380859375 567.7224731445312 282.68231201171875 587.22412109375 297.3483581542969 C 583.050048828125 313.25787353515625 579.6246337890625 315.08917236328125 566.7548217773438 315.7987365722656" stroke-width="0.0" fill="rgb(24, 24, 22)" opacity="0.8965905"/>
    <path d="M 229.5425567626953 31.8863468170166 C 230.13255310058594 10.967994689941406 229.8405303955078 8.197267532348633 245.7562713623047 -10.566976547241211 C 266.35174560546875 -7.0572099685668945 258.3101501464844 -7.675743579864502 279.09515380859375 -4.759800910949707 C 273.85003662109375 38.16871643066406 267.6626892089844 34.05352020263672 261.0142517089844 34.77480697631836 C 239.60824584960938 36.30175018310547 236.10885620117188 40.377498626708984 229.5425567626953 31.8863468170166" stroke-width="0.0" fill="rgb(19, 19, 18)" opacity="1.0"/>
    <path d="M 596.70458984375 314.7707214355469 C 590.3190307617188 339.8189697265625 595.6737670898438 351.72235107421875 611.688232421875 315.43707275390625 C 587.3040771484375 310.0923156738281 585.3810424804688 317.97509765625 596.6184692382812 334.64569091796875 C 596.0655517578125 346.4113464355469 595.3340454101562 351.41851806640625 564.9915161132812 364.03277587890625 C 562.9171142578125 326.258544921875 562.9520874023438 316.467041015625 596.70458984375 314.7707214355469" stroke-width="0.0" fill="rgb(17, 17, 16)" opacity="0.97837305"/>
    <path d="M 140.67330932617188 607.8738403320312 C 110.18191528320312 605.75634765625 111.98780822753906 595.2871704101562 117.7873764038086 576.1173095703125 C 142.75619506835938 575.8446044921875 140.40402221679688 575.947509765625 139.9373016357422 576.9403076171875 C 141.0100555419922 576.7051391601562 137.63272094726562 575.0717163085938 150.0811004638672 576.8585205078125 C 157.83534240722656 575.5408935546875 158.5709686279297 570.48046875 140.67330932617188 607.8738403320312" stroke-width="0.0" fill="rgb(21, 22, 20)" opacity="0.98407215"/>
    <path d="M 583.6241455078125 323.47637939453125 C 584.8651733398438 365.35040283203125 587.9309692382812 372.5411376953125 583.1819458007812 380.0733337402344 C 552.72900390625 372.02618408203125 559.97265625 372.22900390625 547.4691772460938 372.459716796875 C 560.30126953125 356.1559753417969 564.43017578125 359.69439697265625 541.8933715820312 372.8706359863281 C 543.621337890625 337.8687744140625 544.6943969726562 328.2440185546875 583.6241455078125 323.47637939453125" stroke-width="0.0" fill="rgb(21, 21, 19)" opacity="1.0"/>
    <path d="M -8.860077857971191 -2.433070421218872 C -8.924821853637695 -4.289767265319824 -4.129110813140869 -10.177247047424316 16.59088897705078 -8.093591690063477 C -3.158071756362915 11.499467849731445 -11.77066421508789 4.12328577041626 -7.527230262756348 28.711509704589844 C 24.894277572631836 26.47307777404785 24.046613693237305 14.071406364440918 12.287768363952637 -4.06972599029541 C -5.205517768859863 7.036810398101807 -8.597025871276855 18.752166748046875 -8.860077857971191 -2.433070421218872" stroke-width="0.0" fill="rgb(23, 23, 21)" opacity="1.0"/>
    <path d="M 218.3589630126953 570.695068359375 C 219.09361267089844 597.9232177734375 223.7891845703125 596.0235595703125 263.8408508300781 593.1536254882812 C 260.9794921875 573.7247924804688 251.0200958251953 574.0010986328125 254.83200073242188 576.31640625 C 260.33612060546875 586.1082153320312 269.8125305175781 587.9051513671875 277.5378723144531 567.7868041992188 C 257.2720642089844 567.5228881835938 251.89622497558594 567.6806030273438 218.3589630126953 570.695068359375" stroke-width="0.0" fill="rgb(31, 31, 29)" opacity="0.94556314"/>
    <path d="M 491.4529724121094 613.3157348632812 C 523.1119995117188 611.5050048828125 527.7691040039062 608.7664794921875 536.9722290039062 604.9616088867188 C 537.64013671875 573.3007202148438 534.4109497070312 571.9544677734375 532.49658203125 557.7222290039062 C 498.3398132324219 564.6153564453125 493.5401611328125 570.2764892578125 479.32696533203125 576.0030517578125 C 478.4262390136719 599.3246459960938 476.76470947265625 603.2252197265625 491.4529724121094 613.3157348632812" stroke-width="0.0" fill="rgb(19, 19, 17)" opacity="0.9927723"/>
    <path d="M 500.6606140136719 573.8551025390625 C 490.87200927734375 560.5052490234375 517.280029296875 547.3779296875 509.3636169433594 554.3685913085938 C 504.10784912109375 569.4664916992188 513.0228271484375 569.3184204101562 517.6298217773438 572.5421142578125 C 529.9349365234375 570.1373901367188 533.8931884765625 566.0870971679688 535.9660034179688 542.2315063476562 C 533.8157958984375 533.3572387695312 513.8189086914062 535.7632446289062 500.6606140136719 573.8551025390625" stroke-width="0.0" fill="rgb(14, 14, 12)" opacity="1.0"/>
    <path d="M 543.3253784179688 474.8027648925781 C 534.408447265625 471.6109313964844 527.9960327148438 470.8002014160156 528.9775390625 458.1673889160156 C 525.517822265625 457.2801818847656 526.4971923828125 459.0160217285156 522.232177734375 460.7742004394531 C 521.9053955078125 471.1809997558594 517.5810546875 486.359619140625 519.9194946289062 499.6258850097656 C 553.177978515625 495.2279052734375 549.6004028320312 490.1533203125 543.3253784179688 474.8027648925781" stroke-width="0.0" fill="rgb(22, 23, 21)" opacity="0.995582"/>
    <path d="M 219.28062438964844 569.111083984375 C 250.2491455078125 572.3875732421875 246.56553649902344 580.5662841796875 245.53016662597656 598.8667602539062 C 227.0121612548828 604.3543090820312 227.73902893066406 602.8115234375 227.6747589111328 604.8820190429688 C 226.63287353515625 603.0602416992188 229.04702758789062 603.1517944335938 226.1312713623047 605.8919677734375 C 220.04193115234375 609.7158203125 215.4051971435547 616.3484497070312 219.28062438964844 569.111083984375" stroke-width="0.0" fill="rgb(19, 19, 17)" opacity="0.99861795"/>
    <path d="M 491.6944885253906 16.528026580810547 C 490.6273498535156 54.38697052001953 485.1381530761719 40.790771484375 459.79058837890625 42.26637649536133 C 437.7625427246094 38.92085266113281 431.267333984375 49.135231018066406 429.3950500488281 16.568151473999023 C 474.7680358886719 12.798321723937988 480.51666259765625 15.834590911865234 471.1104736328125 23.122791290283203 C 451.3420104980469 33.85391616821289 445.13677978515625 35.081363677978516 491.6944885253906 16.528026580810547" stroke-width="0.0" fill="rgb(23, 23, 22)" opacity="1.0"/>
    <path d="M 332.40985107421875 -12.423050880432129 C 298.79229736328125 -3.252556562423706 299.04107666015625 -0.17013882100582123 297.4917297363281 35.184776306152344 C 307.6356201171875 39.245121002197266 324.0699157714844 40.28123092651367 329.35919189453125 37.81942367553711 C 318.8248596191406 31.587688446044922 318.63409423828125 31.2044734954834 332.17364501953125 38.718326568603516 C 343.9584045410156 28.125713348388672 347.0060729980469 1.936418056488037 332.40985107421875 -12.423050880432129" stroke-width="0.0" fill="rgb(15, 16, 14)" opacity="1.0"/>
    <path d="M 602.98388671875 402.8306579589844 C 568.4413452148438 417.0736083984375 564.8861083984375 416.8153076171875 557.1617431640625 416.0364990234375 C 557.7239990234375 423.736328125 556.904296875 422.3994445800781 553.9381713867188 451.6068420410156 C 564.8826904296875 454.50860595703125 581.4661865234375 450.5896301269531 593.7057495117188 442.40155029296875 C 599.969970703125 424.3177795410156 605.726806640625 415.4689636230469 602.98388671875 402.8306579589844" stroke-width="0.0" fill="rgb(20, 21, 19)" opacity="1.0"/>
    <path d="M -4.932693004608154 -3.5610976219177246 C 5.763330459594727 17.608592987060547 22.892135620117188 8.963648796081543 25.655729293823242 17.27488136291504 C 13.419990539550781 6.630144119262695 5.754863262176514 2.5859055519104004 9.81770133972168 30.31416893005371 C 32.95943832397461 24.269479751586914 22.80014419555664 15.452136993408203 28.14139747619629 18.45734214782715 C 27.98044776916504 7.424233436584473 24.942188262939453 -7.763067245483398 -4.932693004608154 -3.5610976219177246" stroke-width="0.0" fill="rgb(16, 17, 15)" opacity="1.0"/>
    <path d="M 471.7627258300781 41.5111198425293 C 500.30340576171875 36.99137878417969 496.0738830566406 28.816959381103516 509.16229248046875 5.000609874725342 C 504.1376647949219 -7.631922721862793 504.8419494628906 17.873645782470703 513.8446044921875 -0.132381871342659 C 488.811279296875 -10.863166809082031 478.704345703125 -9.762240409851074 462.9664306640625 -7.931949615478516 C 459.9533386230469 29.136764526367188 459.36334228515625 33.4788703918457 471.7627258300781 41.5111198425293" stroke-width="0.0" fill="rgb(19, 20, 18)" opacity="1.0"/>
    <path d="M 562.8190307617188 401.8757629394531 C 532.5648193359375 405.7276611328125 535.3331909179688 411.3927917480469 544.6396484375 431.8505859375 C 539.2471923828125 433.66070556640625 536.6762084960938 425.490966796875 544.4601440429688 417.8995361328125 C 543.408203125 437.4517517089844 544.0842895507812 439.2752380371094 554.0824584960938 437.33642578125 C 554.5465087890625 430.99322509765625 560.1283569335938 433.9532775878906 562.8190307617188 401.8757629394531" stroke-width="0.0" fill="rgb(18, 18, 16)" opacity="1.0"/>
    <path d="M 547.2780151367188 408.8391418457031 C 580.4156494140625 408.1957702636719 586.738037109375 405.0692443847656 588.0139770507812 367.44158935546875 C 583.95068359375 362.85540771484375 580.943359375 361.43585205078125 578.44775390625 361.6146545410156 C 572.4216918945312 374.2146301269531 579.9500122070312 363.7594909667969 572.8460693359375 351.58856201171875 C 536.7870483398438 360.2578430175781 542.0936279296875 373.14764404296875 547.2780151367188 408.8391418457031" stroke-width="0.0" fill="rgb(20, 21, 19)" opacity="0.9967633"/>
    <path d="M 64.31196594238281 10.08177661895752 C 68.2489013671875 -12.573524475097656 75.02869415283203 -9.584373474121094 81.4252700805664 -8.11462116241455 C 91.79096221923828 -3.1352829933166504 94.60659790039062 -0.3343898355960846 94.3304672241211 -3.75523042678833 C 93.39574432373047 1.7531042098999023 94.69573974609375 6.577049255371094 93.48055267333984 9.977947235107422 C 95.34233856201172 15.76494026184082 90.74314880371094 19.7237491607666 64.31196594238281 10.08177661895752" stroke-width="0.0" fill="rgb(18, 19, 17)" opacity="0.9999969"/>
    <path d="M 133.93325805664062 576.3658447265625 C 104.6723861694336 574.5658569335938 98.17112731933594 580.3191528320312 107.5930404663086 576.4512329101562 C 104.87838745117188 577.4554443359375 101.73014831542969 575.7167358398438 85.21916198730469 579.18896484375 C 83.8853759765625 584.24853515625 89.23924255371094 586.475341796875 109.39872741699219 596.6637573242188 C 120.53973388671875 597.8762817382812 126.3730697631836 602.4967041015625 133.93325805664062 576.3658447265625" stroke-width="0.0" fill="rgb(21, 21, 19)" opacity="1.0"/>
    <path d="M 5.05021333694458 31.977567672729492 C -11.438156127929688 34.81019973754883 -13.886663436889648 12.66343879699707 1.385753870010376 6.783905506134033 C 10.438319206237793 22.832799911499023 -0.9228562116622925 16.06181526184082 18.648895263671875 11.540447235107422 C 4.907021522521973 35.32355880737305 -9.58201789855957 33.14860916137695 40.7021598815918 33.10206604003906 C 34.73416519165039 2.258727788925171 19.28052520751953 3.6842849254608154 5.05021333694458 31.977567672729492" stroke-width="0.0" fill="rgb(20, 21, 19)" opacity="1.0"/>
    <path d="M 608.564453125 407.646240234375 C 609.7093505859375 422.7444763183594 610.04833984375 436.923828125 607.0556640625 455.55487060546875 C 572.07470703125 453.1100769042969 580.5599365234375 439.9195861816406 575.15966796875 429.20123291015625 C 568.1637573242188 443.9418029785156 564.2569580078125 450.3188781738281 579.9819946289062 454.7680358886719 C 583.6985473632812 429.1389465332031 573.5838623046875 420.3139953613281 608.564453125 407.646240234375" stroke-width="0.0" fill="rgb(21, 22, 19)" opacity="0.97329193"/>
    <path d="M 71.7793197631836 15.369659423828125 C 73.12317657470703 26.124359130859375 84.09471893310547 29.74347496032715 93.41683959960938 22.024215698242188 C 83.412353515625 10.340333938598633 77.67257690429688 13.280143737792969 78.61756896972656 15.204137802124023 C 82.2093276977539 16.623672485351562 88.97603607177734 17.965967178344727 88.89010620117188 11.225127220153809 C 77.39665985107422 8.819025993347168 79.27867889404297 7.5103759765625 71.7793197631836 15.369659423828125" stroke-width="0.0" fill="rgb(21, 22, 20)" opacity="0.998264"/>
    <path d="M 523.6073608398438 541.2551879882812 C 523.9346923828125 525.5542602539062 527.155029296875 523.9844970703125 532.8107299804688 523.9885864257812 C 538.87060546875 526.50146484375 544.3351440429688 528.183349609375 542.6055297851562 511.93145751953125 C 525.399658203125 520.3872680664062 529.733642578125 526.0637817382812 549.464111328125 526.260009765625 C 545.72216796875 541.3323974609375 538.4240112304688 536.257080078125 523.6073608398438 541.2551879882812" stroke-width="0.0" fill="rgb(37, 38, 37)" opacity="0.91940635"/>
    <path d="M 534.7337646484375 437.8035888671875 C 531.039306640625 467.48358154296875 527.5599365234375 485.1770935058594 531.0115356445312 500.9103698730469 C 586.3619995117188 498.2320556640625 582.8926391601562 492.6848449707031 568.3732299804688 480.31683349609375 C 568.49560546875 467.0178527832031 563.0382690429688 484.4808044433594 582.5213012695312 487.6129455566406 C 577.9002685546875 445.54052734375 577.9517211914062 442.626708984375 534.7337646484375 437.8035888671875" stroke-width="0.0" fill="rgb(15, 16, 14)" opacity="1.0"/>
    <path d="M 24.639253616333008 21.82320785522461 C 28.75853157043457 -7.627836227416992 29.57552146911621 -10.04951000213623 68.52185821533203 -4.409770488739014 C 68.79464721679688 11.840331077575684 61.053157806396484 5.310059547424316 52.734920501708984 9.413193702697754 C 48.757991790771484 8.598478317260742 58.86585998535156 -5.694613933563232 72.04788208007812 14.9539155960083 C 63.75444030761719 36.48579788208008 47.586524963378906 36.94878005981445 24.639253616333008 21.82320785522461" stroke-width="0.0" fill="rgb(20, 20, 18)" opacity="1.0"/>
    <path d="M 413.7518310546875 37.98173904418945 C 432.4667663574219 36.948814392089844 435.5120544433594 34.51469039916992 432.333251953125 35.06046676635742 C 434.6476135253906 32.35268020629883 442.1540832519531 36.62178421020508 443.2310485839844 26.073923110961914 C 428.779296875 19.67890739440918 431.0505065917969 19.657760620117188 418.9903564453125 5.99728536605835 C 411.3292541503906 3.4817678928375244 413.29925537109375 9.90229320526123 413.7518310546875 37.98173904418945" stroke-width="0.0" fill="rgb(21, 21, 19)" opacity="0.99095243"/>
    <path d="M 567.4161376953125 440.5664978027344 C 589.4035034179688 440.2857971191406 596.460205078125 445.8390808105469 611.2978515625 468.14605712890625 C 607.7760009765625 479.5726623535156 596.2922973632812 483.39666748046875 563.6453247070312 476.96209716796875 C 563.2794799804688 488.3782043457031 575.0824584960938 489.25604248046875 606.321044921875 474.4156799316406 C 607.2760009765625 489.15472412109375 589.9121704101562 486.4130554199219 567.4161376953125 440.5664978027344" stroke-width="0.0" fill="rgb(21, 22, 20)" opacity="1.0"/>
    <path d="M 540.256591796875 373.1213073730469 C 536.1502685546875 375.6145324707031 538.7978515625 377.7469482421875 544.6731567382812 384.63397216796875 C 547.2872924804688 378.7931213378906 545.8201293945312 374.61187744140625 538.059814453125 371.2831726074219 C 537.3069458007812 380.32012939453125 541.8057250976562 378.2015686035156 550.00244140625 388.892578125 C 547.0968627929688 392.288330078125 543.3734130859375 388.7065734863281 540.256591796875 373.1213073730469" stroke-width="0.0" fill="rgb(27, 28, 26)" opacity="0.9954326"/>
    <path d="M 272.0826110839844 36.09481430053711 C 262.45037841796875 33.37567901611328 262.95343017578125 37.327980041503906 261.985107421875 15.765347480773926 C 281.1053466796875 11.253517150878906 274.7666320800781 15.378426551818848 265.6125793457031 33.41337203979492 C 281.3336181640625 37.996063232421875 288.6488342285156 40.47690200805664 293.8072814941406 23.95660400390625 C 277.19921875 12.52762222290039 276.2951354980469 18.030555725097656 272.0826110839844 36.09481430053711" stroke-width="0.0" fill="rgb(20, 20, 19)" opacity="1.0"/>
    <path d="M 537.2442626953125 10.63227367401123 C 569.9092407226562 22.007965087890625 575.345458984375 18.62847900390625 561.9448852539062 5.045980930328369 C 551.975341796875 35.60993576049805 562.9293212890625 38.98869323730469 559.7093505859375 43.31218338012695 C 544.10400390625 44.340614318847656 539.104736328125 43.8961296081543 521.9302978515625 44.24669647216797 C 521.19677734375 47.594539642333984 522.2785034179688 23.340492248535156 537.2442626953125 10.63227367401123" stroke-width="0.0" fill="rgb(10, 11, 9)" opacity="0.9995749"/>
    <path d="M 503.51885986328125 42.59377670288086 C 509.70257568359375 -13.28020191192627 511.18695068359375 -14.245444297790527 572.1412963867188 -12.01377010345459 C 572.142578125 9.806556701660156 560.9952392578125 7.076943874359131 561.209716796875 11.139145851135254 C 567.184326171875 11.329280853271484 571.4356689453125 -10.081068992614746 579.1072387695312 0.9456791877746582 C 558.9979858398438 39.00493621826172 539.8019409179688 44.56756591796875 503.51885986328125 42.59377670288086" stroke-width="0.0" fill="rgb(16, 16, 15)" opacity="0.98865724"/>
    <path d="M 497.3658447265625 564.006103515625 C 506.7083740234375 569.4307250976562 502.95269775390625 575.9546508789062 496.9447937011719 575.957275390625 C 495.84210205078125 576.2393798828125 498.4172668457031 578.651123046875 497.34307861328125 578.311279296875 C 488.40057373046875 580.1052856445312 491.5403137207031 573.25927734375 491.9048767089844 565.0528564453125 C 484.57562255859375 579.074462890625 493.6380920410156 583.7704467773438 497.3658447265625 564.006103515625" stroke-width="0.0" fill="rgb(24, 24, 23)" opacity="0.8305382"/>
    <path d="M 552.3016967773438 309.26788330078125 C 540.9666748046875 305.99871826171875 547.6487426757812 305.2037353515625 544.4127807617188 294.4772644042969 C 554.6128540039062 259.0209045410156 541.9434204101562 242.7459716796875 577.8343505859375 238.75775146484375 C 577.4125366210938 275.62628173828125 562.4210205078125 278.2040710449219 570.130126953125 255.85696411132812 C 572.7772827148438 265.336181640625 570.4581298828125 284.73101806640625 552.3016967773438 309.26788330078125" stroke-width="0.0" fill="rgb(23, 24, 22)" opacity="1.0"/>
    <path d="M 311.1758728027344 598.0458984375 C 342.86981201171875 602.2174682617188 348.5897216796875 603.1263427734375 349.3438720703125 564.6051635742188 C 317.2646789550781 563.0745239257812 318.64129638671875 564.6805419921875 296.5888366699219 566.5316772460938 C 294.2889709472656 569.2811889648438 296.49102783203125 584.86865234375 303.28533935546875 585.9979248046875 C 326.03790283203125 585.8550415039062 311.76556396484375 590.2508544921875 311.1758728027344 598.0458984375" stroke-width="0.0" fill="rgb(20, 20, 19)" opacity="0.9974942"/>
    <path d="M 604.589111328125 522.8780517578125 C 590.3727416992188 513.42626953125 590.515380859375 513.1251220703125 591.6549072265625 513.7354736328125 C 588.8113403320312 512.353759765625 587.4881591796875 512.1386108398438 584.5969848632812 515.5772094726562 C 582.9824829101562 521.4271240234375 579.9878540039062 525.0740356445312 592.2667236328125 540.7593383789062 C 610.0051879882812 541.348388671875 611.0623168945312 536.4539794921875 604.589111328125 522.8780517578125" stroke-width="0.0" fill="rgb(19, 20, 18)" opacity="1.0"/>
    <path d="M 286.304443359375 32.942298889160156 C 290.26593017578125 14.022113800048828 299.3633728027344 24.276798248291016 321.2284240722656 11.300361633300781 C 320.25732421875 -7.124590873718262 318.1845397949219 -8.248197555541992 288.5396423339844 -4.397748947143555 C 284.9349670410156 27.026153564453125 289.3593444824219 18.438751220703125 325.5753479003906 20.965478897094727 C 328.39251708984375 39.57345199584961 322.72698974609375 38.929325103759766 286.304443359375 32.942298889160156" stroke-width="0.0" fill="rgb(27, 28, 26)" opacity="0.8929625"/>
    <path d="M 529.09912109375 402.5201416015625 C 548.8193359375 390.0513610839844 549.1734008789062 386.3321838378906 562.8467407226562 387.2690734863281 C 560.6954956054688 414.3802490234375 558.6763305664062 415.4581298828125 529.8362426757812 402.7948913574219 C 531.997314453125 397.25604248046875 530.5142822265625 403.22747802734375 527.0250854492188 428.4944152832031 C 565.6458129882812 420.5567626953125 551.29541015625 411.1353454589844 529.09912109375 402.5201416015625" stroke-width="0.0" fill="rgb(14, 14, 13)" opacity="0.9259153"/>
    <path d="M 562.279296875 315.4767761230469 C 588.2003784179688 317.07928466796875 592.85107421875 315.4578857421875 595.556884765625 296.6695556640625 C 574.9458618164062 292.8056945800781 565.831787109375 304.7998046875 569.6290283203125 268.6094665527344 C 600.0059204101562 267.04779052734375 598.3740234375 273.1805419921875 592.9805297851562 299.2436828613281 C 575.16162109375 299.95855712890625 566.5745849609375 287.0327453613281 562.279296875 315.4767761230469" stroke-width="0.0" fill="rgb(19, 19, 17)" opacity="1.0"/>
    <path d="M 104.37153625488281 596.08984375 C 91.8189697265625 572.9860229492188 81.68421173095703 576.5174560546875 86.03901672363281 581.52587890625 C 84.42169189453125 581.0258178710938 87.34017944335938 583.575439453125 94.47506713867188 594.09326171875 C 91.3840560913086 585.7027587890625 87.93148803710938 579.35595703125 85.57249450683594 580.3234252929688 C 83.49427032470703 605.90771484375 84.94091033935547 609.9484252929688 104.37153625488281 596.08984375" stroke-width="0.0" fill="rgb(17, 17, 15)" opacity="0.9706521"/>
    <path d="M 551.4256591796875 326.4573059082031 C 545.5977172851562 325.9365539550781 542.9832763671875 316.993408203125 577.5552368164062 315.43792724609375 C 577.9992065429688 348.2174072265625 573.5123291015625 346.5043640136719 569.0867309570312 344.95172119140625 C 553.6837158203125 348.3476257324219 544.3905639648438 348.50665283203125 539.9690551757812 350.0082702636719 C 539.2750244140625 331.0195007324219 539.6815795898438 325.4165954589844 551.4256591796875 326.4573059082031" stroke-width="0.0" fill="rgb(20, 21, 19)" opacity="0.9908997"/>
    <path d="M 314.5006103515625 592.6409912109375 C 312.5603942871094 565.4646606445312 303.5520324707031 575.70263671875 281.9708251953125 583.2981567382812 C 290.3881530761719 571.415283203125 289.30963134765625 568.9441528320312 316.1143798828125 569.5972290039062 C 309.2895202636719 584.8934936523438 283.9135437011719 570.6702270507812 263.8175964355469 599.5692749023438 C 270.6138000488281 607.5989379882812 283.5488586425781 604.8472900390625 314.5006103515625 592.6409912109375" stroke-width="0.0" fill="rgb(20, 21, 19)" opacity="1.0"/>
    <path d="M 541.6402587890625 481.38690185546875 C 525.0612182617188 530.0721435546875 516.5112915039062 521.1429443359375 518.0875854492188 503.6724853515625 C 518.221923828125 492.6275329589844 517.9756469726562 492.2245178222656 518.2025756835938 495.25860595703125 C 516.9027099609375 498.8035583496094 517.468994140625 496.552978515625 517.6393432617188 498.1286315917969 C 519.8739624023438 492.3612365722656 513.4960327148438 478.24859619140625 541.6402587890625 481.38690185546875" stroke-width="0.0" fill="rgb(21, 22, 20)" opacity="0.96871996"/>
    <path d="M 16.936349868774414 16.68471908569336 C 26.139314651489258 6.71035099029541 24.463102340698242 4.63081169128418 24.44516372680664 3.0234827995300293 C 23.785419464111328 5.2592291831970215 25.55857276916504 5.024888038635254 29.076950073242188 -4.91986083984375 C 25.242511749267578 -5.779054164886475 25.85921859741211 -5.737183570861816 10.664259910583496 -9.95242977142334 C 6.642997741699219 2.2054011821746826 9.924301147460938 11.152493476867676 16.936349868774414 16.68471908569336" stroke-width="0.0" fill="rgb(18, 19, 17)" opacity="1.0"/>
    <path d="M 553.1730346679688 597.6339111328125 C 556.5448608398438 590.0494384765625 559.1193237304688 603.969482421875 573.29736328125 611.88037109375 C 601.6903076171875 610.82373046875 604.1243896484375 611.1666259765625 603.509033203125 582.0625 C 560.3766479492188 580.8655395507812 571.898193359375 582.939697265625 553.117431640625 581.0877075195312 C 554.765625 600.6747436523438 576.995849609375 602.5187377929688 553.1730346679688 597.6339111328125" stroke-width="0.0" fill="rgb(20, 21, 19)" opacity="1.0"/>
    <path d="M 456.4127502441406 575.7821655273438 C 497.6300964355469 576.3408813476562 502.2981262207031 580.7047729492188 503.4753723144531 600.93896484375 C 486.5607604980469 603.2942504882812 490.79022216796875 600.1702880859375 489.1197204589844 601.52783203125 C 485.9490051269531 602.46142578125 486.014892578125 601.9152221679688 473.9078063964844 606.2122192382812 C 459.3408203125 611.0389404296875 453.4095764160156 610.4042358398438 456.4127502441406 575.7821655273438" stroke-width="0.0" fill="rgb(21, 21, 20)" opacity="1.0"/>
    <path d="M 546.6250610351562 400.1722106933594 C 525.3496704101562 403.3014221191406 529.5789794921875 410.5849304199219 530.1118774414062 417.4764709472656 C 525.9014892578125 426.68841552734375 525.375732421875 442.48260498046875 525.4112548828125 453.84710693359375 C 547.1460571289062 450.0949401855469 554.4884643554688 446.30389404296875 556.8885498046875 433.0457458496094 C 551.4552001953125 422.5992126464844 552.5712890625 422.21746826171875 546.6250610351562 400.1722106933594" stroke-width="0.0" fill="rgb(13, 13, 12)" opacity="0.98849946"/>
    <path d="M 509.09600830078125 573.66015625 C 511.71160888671875 579.8650512695312 508.5044860839844 584.95947265625 501.18328857421875 585.6030883789062 C 494.6674499511719 575.406005859375 494.40667724609375 571.5836791992188 499.4029235839844 559.1483764648438 C 509.8056335449219 553.3985595703125 514.9292602539062 548.5332641601562 528.2072143554688 555.6268920898438 C 518.76318359375 586.4203491210938 511.6271667480469 579.5552978515625 509.09600830078125 573.66015625" stroke-width="0.0" fill="rgb(24, 24, 22)" opacity="0.930839"/>
    <path d="M 485.66827392578125 24.61121940612793 C 480.0275573730469 32.823665618896484 459.3377685546875 31.313440322875977 443.3175964355469 25.268436431884766 C 447.1130676269531 -11.833006858825684 450.7300720214844 -11.150025367736816 484.5921325683594 -6.121617794036865 C 484.47412109375 16.856653213500977 481.85784912109375 19.585813522338867 471.7760314941406 11.076343536376953 C 464.95074462890625 4.511751174926758 465.0780944824219 5.114291667938232 485.66827392578125 24.61121940612793" stroke-width="0.0" fill="rgb(20, 20, 19)" opacity="1.0"/>
    <path d="M 17.987844467163086 26.06611442565918 C 11.295540809631348 22.36423110961914 14.09029483795166 20.04733657836914 37.07864761352539 20.194543838500977 C 38.47941970825195 1.0179150104522705 37.29576873779297 -3.582951307296753 33.545719146728516 -8.159350395202637 C 20.340471267700195 4.493962287902832 23.65277862548828 4.848810195922852 23.452190399169922 5.803029537200928 C 17.767616271972656 6.279369831085205 13.489541053771973 10.831931114196777 17.987844467163086 26.06611442565918" stroke-width="0.0" fill="rgb(20, 20, 18)" opacity="0.97507685"/>
    <path d="M 294.97467041015625 576.3107299804688 C 287.28717041015625 577.1036376953125 289.9167785644531 577.8114013671875 281.0896911621094 595.058837890625 C 268.784423828125 595.78759765625 267.2958984375 597.1085815429688 253.3250732421875 590.1646728515625 C 257.5783386230469 559.1336669921875 267.52191162109375 569.0230712890625 280.5333557128906 566.5709228515625 C 291.6816711425781 565.079833984375 297.7441101074219 565.1895141601562 294.97467041015625 576.3107299804688" stroke-width="0.0" fill="rgb(22, 22, 20)" opacity="1.0"/>
    <path d="M 592.2942504882812 479.0603942871094 C 592.2075805664062 439.3338928222656 567.1405639648438 447.4635314941406 564.7252197265625 431.0207824707031 C 595.3366088867188 438.4453125 588.0297241210938 451.8921813964844 565.6491088867188 441.0423278808594 C 568.8539428710938 445.6424865722656 578.8406372070312 436.1046142578125 548.7327270507812 433.5552062988281 C 549.048828125 475.2283935546875 554.395751953125 481.2859802246094 592.2942504882812 479.0603942871094" stroke-width="0.0" fill="rgb(21, 21, 20)" opacity="1.0"/>
    <path d="M 570.3843994140625 477.38519287109375 C 513.0397338867188 481.17291259765625 520.3801879882812 488.9431457519531 521.30224609375 517.6197509765625 C 530.6205444335938 519.8759765625 535.1245727539062 525.0926513671875 518.197998046875 523.0032958984375 C 523.7471313476562 512.7896728515625 527.9310913085938 521.0859375 530.921630859375 531.3148803710938 C 565.0222778320312 530.9435424804688 572.0696411132812 527.10693359375 570.3843994140625 477.38519287109375" stroke-width="0.0" fill="rgb(20, 21, 19)" opacity="0.9880126"/>
    <path d="M 587.9501953125 293.2176208496094 C 588.9412231445312 315.3677062988281 594.9839477539062 321.4649353027344 608.1807250976562 317.2335510253906 C 594.8968505859375 294.9776306152344 594.6507568359375 297.8766784667969 592.51123046875 295.89697265625 C 594.6876831054688 298.15240478515625 593.664306640625 299.8533630371094 606.2572631835938 304.91900634765625 C 609.469482421875 286.6028137207031 602.91015625 282.73870849609375 587.9501953125 293.2176208496094" stroke-width="0.0" fill="rgb(2, 3, 1)" opacity="1.0"/>
    <path d="M 252.45022583007812 19.41156005859375 C 254.0849609375 34.28974914550781 255.0422821044922 40.57355499267578 254.72592163085938 37.77665328979492 C 236.36009216308594 38.774959564208984 234.977783203125 35.3148078918457 214.62525939941406 37.875431060791016 C 219.09542846679688 35.589332580566406 216.94549560546875 43.41659164428711 214.1348114013672 21.56405258178711 C 236.64027404785156 15.096226692199707 242.8153076171875 14.722024917602539 252.45022583007812 19.41156005859375" stroke-width="0.0" fill="rgb(21, 22, 20)" opacity="1.0"/>
    <path d="M 341.02227783203125 -3.727444887161255 C 322.7696533203125 -7.165833950042725 316.4923095703125 3.2524266242980957 324.4429931640625 13.261378288269043 C 322.10955810546875 11.493481636047363 321.0968933105469 5.306948184967041 305.4998474121094 8.709938049316406 C 299.5043640136719 -2.8401546478271484 299.1340637207031 -9.299217224121094 318.1050720214844 -11.518814086914062 C 326.1227111816406 9.82701301574707 322.0160827636719 15.52733039855957 341.02227783203125 -3.727444887161255" stroke-width="0.0" fill="rgb(14, 15, 13)" opacity="0.99961895"/>
    <path d="M 214.30665588378906 22.835588455200195 C 171.94174194335938 16.044361114501953 161.46237182617188 -13.72488784790039 156.97296142578125 0.7960313558578491 C 172.48092651367188 22.447887420654297 162.77752685546875 7.0590949058532715 162.51983642578125 -7.6380391120910645 C 188.94151306152344 0.4170868694782257 177.33444213867188 2.4250271320343018 191.1116485595703 -12.410518646240234 C 215.6818389892578 -13.176392555236816 218.68109130859375 -7.749939918518066 214.30665588378906 22.835588455200195" stroke-width="0.0" fill="rgb(26, 27, 25)" opacity="0.94866115"/>
    <path d="M 610.6736450195312 572.887451171875 C 608.214111328125 548.5960693359375 606.5796508789062 539.1336059570312 598.0594482421875 543.604736328125 C 564.0643310546875 556.61962890625 558.51953125 558.4810180664062 556.2542114257812 579.7852783203125 C 567.1953735351562 582.0615844726562 565.8418579101562 582.3548583984375 586.7808837890625 585.3855590820312 C 591.9730224609375 580.467529296875 593.611083984375 584.1686401367188 610.6736450195312 572.887451171875" stroke-width="0.0" fill="rgb(21, 22, 20)" opacity="0.9633634"/>
    <path d="M 413.0020446777344 39.961551666259766 C 412.9852600097656 15.236860275268555 421.66790771484375 19.305246353149414 430.0523986816406 22.751056671142578 C 434.2044677734375 23.40768051147461 439.08935546875 22.54227066040039 452.58477783203125 37.22465133666992 C 445.53955078125 45.47703552246094 447.3880615234375 26.8449649810791 453.0046691894531 41.787635803222656 C 431.706298828125 42.255496978759766 414.2989501953125 42.33411407470703 413.0020446777344 39.961551666259766" stroke-width="0.0" fill="rgb(10, 11, 9)" opacity="0.9663871"/>
    <path d="M 551.7168579101562 532.2598266601562 C 546.3533935546875 523.3423461914062 561.4611206054688 520.6709594726562 588.2454833984375 526.50830078125 C 580.5599975585938 565.4146118164062 564.3660278320312 566.8870239257812 552.4136352539062 529.6708374023438 C 541.36962890625 534.096923828125 541.6153564453125 533.9036254882812 536.4508056640625 575.3665161132812 C 570.3555908203125 577.916259765625 574.514404296875 572.3365478515625 551.7168579101562 532.2598266601562" stroke-width="0.0" fill="rgb(20, 20, 19)" opacity="0.99954563"/>
    <path d="M 552.3807373046875 293.328857421875 C 566.6596069335938 296.42822265625 569.3460693359375 294.03009033203125 553.312744140625 248.81466674804688 C 576.2060546875 244.54310607910156 589.5028076171875 244.7985382080078 602.554931640625 246.8889617919922 C 580.6580200195312 294.9877624511719 564.6826171875 292.755615234375 557.621826171875 287.94390869140625 C 556.8418579101562 275.04718017578125 553.7894897460938 279.43157958984375 552.3807373046875 293.328857421875" stroke-width="0.0" fill="rgb(19, 20, 18)" opacity="1.0"/>
    <path d="M 556.506103515625 420.2353515625 C 560.5861206054688 404.0145263671875 563.3084716796875 402.2857971191406 592.5726318359375 401.02056884765625 C 587.9391479492188 426.8495178222656 584.5077514648438 424.4408874511719 579.4171142578125 425.07769775390625 C 571.2501220703125 420.0127258300781 569.5888671875 427.5106201171875 575.28564453125 427.77569580078125 C 577.7638549804688 425.3784484863281 572.7249145507812 427.72503662109375 556.506103515625 420.2353515625" stroke-width="0.0" fill="rgb(20, 21, 19)" opacity="1.0"/>
    <path d="M 562.9947509765625 530.6093139648438 C 558.654052734375 571.2678833007812 557.949951171875 566.7149047851562 559.137451171875 586.5512084960938 C 517.4261474609375 588.6551513671875 511.9140625 586.8377075195312 507.0663757324219 577.44482421875 C 517.1947631835938 541.8887939453125 518.71630859375 558.9917602539062 523.5401000976562 537.6528930664062 C 521.1062622070312 531.6586303710938 540.1746215820312 528.1636352539062 562.9947509765625 530.6093139648438" stroke-width="0.0" fill="rgb(22, 22, 21)" opacity="1.0"/>
    <path d="M 333.44921875 15.293492317199707 C 325.0171813964844 7.091113090515137 316.78717041015625 8.743825912475586 312.6201477050781 38.553245544433594 C 359.6340637207031 41.152835845947266 355.6248474121094 41.27549743652344 356.1940002441406 16.73664093017578 C 337.87213134765625 2.5771772861480713 331.50396728515625 4.726344585418701 325.21746826171875 10.027519226074219 C 337.3197326660156 17.34256362915039 339.2397766113281 14.163607597351074 333.44921875 15.293492317199707" stroke-width="0.0" fill="rgb(18, 19, 17)" opacity="0.9266749"/>
    <path d="M 49.613040924072266 -7.963624477386475 C 56.229583740234375 27.483964920043945 67.8867416381836 23.05937385559082 78.34993743896484 26.428489685058594 C 88.3935546875 19.29022216796875 93.80201721191406 8.628324508666992 67.20597076416016 -10.835371017456055 C 67.81977081298828 5.355849266052246 85.94930267333984 10.32344913482666 82.74945831298828 12.097868919372559 C 77.43412017822266 -5.135630130767822 73.22697448730469 -8.654092788696289 49.613040924072266 -7.963624477386475" stroke-width="0.0" fill="rgb(20, 20, 18)" opacity="1.0"/>
    <path d="M 576.834228515625 406.30029296875 C 574.0447998046875 432.4766845703125 575.5285034179688 415.74700927734375 577.0911865234375 450.9174499511719 C 550.2118530273438 446.2655029296875 551.59814453125 443.4316711425781 541.4678344726562 439.4698486328125 C 548.6805419921875 428.1116943359375 548.7160034179688 432.1984558105469 547.8997802734375 426.72564697265625 C 549.4149169921875 420.4399719238281 543.6972045898438 410.7182312011719 576.834228515625 406.30029296875" stroke-width="0.0" fill="rgb(20, 21, 19)" opacity="1.0"/>
    <path d="M 520.415771484375 543.8563232421875 C 516.16845703125 511.7769470214844 515.20654296875 504.09320068359375 531.3018798828125 505.9154052734375 C 538.6946411132812 516.7146606445312 533.7612915039062 520.4871826171875 535.6090087890625 512.6341552734375 C 540.2638549804688 522.0770263671875 538.9299926757812 526.3801879882812 542.7481079101562 549.04931640625 C 527.080078125 551.5810546875 517.9393920898438 553.3865356445312 520.415771484375 543.8563232421875" stroke-width="0.0" fill="rgb(14, 14, 12)" opacity="0.91288096"/>
    <path d="M 535.5174560546875 582.0263671875 C 537.8651733398438 555.9376220703125 542.9666137695312 552.9639282226562 577.1012573242188 556.5425415039062 C 581.3612060546875 591.74755859375 580.4708862304688 598.1516723632812 541.6712646484375 600.7806396484375 C 535.8488159179688 580.8499145507812 541.3471069335938 579.6621704101562 550.654052734375 583.3837890625 C 559.8958129882812 582.2761840820312 563.1920166015625 584.6885375976562 535.5174560546875 582.0263671875" stroke-width="0.0" fill="rgb(21, 22, 20)" opacity="1.0"/>
    <path d="M 301.14495849609375 -6.846432685852051 C 291.978759765625 10.8631010055542 290.580810546875 11.73666763305664 289.06280517578125 16.434024810791016 C 284.5624084472656 17.23039436340332 281.66827392578125 23.392135620117188 260.74188232421875 30.393512725830078 C 257.92633056640625 23.553056716918945 252.84523010253906 16.87474822998047 254.2854461669922 -11.977139472961426 C 291.71990966796875 -7.187170028686523 288.03216552734375 -6.2147440910339355 301.14495849609375 -6.846432685852051" stroke-width="0.0" fill="rgb(19, 20, 18)" opacity="1.0"/>
    <path d="M 274.8382263183594 588.4859619140625 C 240.35336303710938 582.4639282226562 253.86900329589844 572.3031005859375 262.50164794921875 572.4131469726562 C 262.5601501464844 568.4691772460938 260.0722961425781 566.0704956054688 256.324462890625 563.6915893554688 C 257.9098205566406 563.6712036132812 256.39300537109375 562.44775390625 257.31231689453125 563.5194091796875 C 252.47091674804688 563.4496459960938 258.1058044433594 557.8548583984375 274.8382263183594 588.4859619140625" stroke-width="0.0" fill="rgb(13, 13, 11)" opacity="0.8706575"/>
    <path d="M 318.32440185546875 18.82684898376465 C 320.9874572753906 -10.790182113647461 324.6154479980469 -10.091917991638184 347.98052978515625 -12.540794372558594 C 357.4682312011719 1.229531168937683 360.032470703125 4.144151210784912 353.27691650390625 -7.5789642333984375 C 354.3570556640625 -0.6654307246208191 358.0408935546875 -2.6174681186676025 355.133544921875 18.216947555541992 C 336.09686279296875 20.202913284301758 331.46240234375 24.66870880126953 318.32440185546875 18.82684898376465" stroke-width="0.0" fill="rgb(17, 18, 16)" opacity="0.9954114"/>
    <path d="M 579.415771484375 43.313621520996094 C 551.0238037109375 35.551841735839844 545.6387329101562 39.23324966430664 573.3261108398438 -1.6714094877243042 C 593.4697875976562 -1.491938591003418 592.9663696289062 5.142890930175781 591.6578369140625 46.423892974853516 C 547.3950805664062 34.95392608642578 539.1696166992188 33.36844253540039 538.9537963867188 42.03694152832031 C 576.1561279296875 47.167659759521484 586.3624877929688 44.466312408447266 579.415771484375 43.313621520996094" stroke-width="0.0" fill="rgb(19, 20, 18)" opacity="1.0"/>
    <path d="M 609.76171875 508.2154846191406 C 577.6817626953125 501.00189208984375 585.5037841796875 509.857666015625 603.9237060546875 504.42474365234375 C 565.6453857421875 506.3760681152344 561.4449462890625 507.3681945800781 562.3098754882812 466.93743896484375 C 591.1034545898438 477.933837890625 578.73974609375 485.4150085449219 580.0294189453125 462.1109619140625 C 617.2537231445312 465.0158996582031 615.2908325195312 477.9131164550781 609.76171875 508.2154846191406" stroke-width="0.0" fill="rgb(19, 20, 18)" opacity="1.0"/>
    <path d="M 538.3549194335938 338.082275390625 C 554.7659912109375 354.5278015136719 560.7334594726562 357.1202392578125 574.3162841796875 344.9955749511719 C 569.7461547851562 326.4444885253906 558.4447631835938 332.5462646484375 550.8709716796875 337.156494140625 C 550.3667602539062 338.92724609375 548.5043334960938 335.7123718261719 556.999267578125 341.2637023925781 C 557.70458984375 336.2986145019531 548.7144165039062 332.55950927734375 538.3549194335938 338.082275390625" stroke-width="0.0" fill="rgb(21, 21, 20)" opacity="0.989874"/>
    <path d="M 612.8450317382812 349.4421691894531 C 609.2069091796875 389.1534118652344 603.0774536132812 391.2503356933594 591.1991577148438 388.92486572265625 C 598.3128662109375 388.2362365722656 593.0170288085938 389.0657043457031 566.5020141601562 388.4210510253906 C 569.0584716796875 353.1092529296875 573.8555908203125 360.6625671386719 573.1201171875 360.177734375 C 578.1776123046875 347.59588623046875 591.0921630859375 345.469970703125 612.8450317382812 349.4421691894531" stroke-width="0.0" fill="rgb(20, 20, 18)" opacity="1.0"/>
    <path d="M 274.3340148925781 10.683965682983398 C 299.5918273925781 11.501468658447266 300.21124267578125 14.382950782775879 316.08038330078125 33.89576721191406 C 314.4901428222656 42.805145263671875 308.3489074707031 37.97783660888672 284.8921813964844 38.790061950683594 C 272.4642028808594 30.264068603515625 272.279052734375 28.444948196411133 270.412841796875 21.58600425720215 C 272.94696044921875 21.090742111206055 272.9901123046875 21.86001968383789 274.3340148925781 10.683965682983398" stroke-width="0.0" fill="rgb(15, 16, 15)" opacity="0.93039733"/>
    <path d="M 554.9312133789062 385.395751953125 C 531.5711059570312 401.74725341796875 541.967529296875 394.34033203125 545.9885864257812 389.50860595703125 C 537.5748901367188 390.7649230957031 538.3298950195312 393.7698669433594 539.3118896484375 391.8716125488281 C 541.169189453125 391.18695068359375 540.81494140625 389.50177001953125 540.940673828125 391.3303527832031 C 537.8758544921875 393.44000244140625 545.3564453125 388.0741882324219 554.9312133789062 385.395751953125" stroke-width="0.0" fill="rgb(18, 19, 17)" opacity="0.80786204"/>
    <path d="M 578.94921875 303.1027526855469 C 577.8421020507812 290.3593444824219 570.2529907226562 270.8703308105469 600.5645751953125 256.4873962402344 C 614.1522216796875 263.7938537597656 608.165771484375 271.0283508300781 610.0095825195312 277.6430969238281 C 608.8169555664062 319.0569763183594 618.4398803710938 328.2801818847656 592.0318603515625 331.68206787109375 C 575.4335327148438 307.76849365234375 579.2374267578125 303.5908203125 578.94921875 303.1027526855469" stroke-width="0.0" fill="rgb(22, 23, 21)" opacity="1.0"/>
    <path d="M 536.6757202148438 379.279296875 C 539.3825073242188 382.8402099609375 537.1766357421875 371.61639404296875 538.2652587890625 348.2346496582031 C 558.2766723632812 350.26702880859375 562.5881958007812 352.2308654785156 567.5670776367188 355.4611511230469 C 562.2236938476562 369.1931457519531 561.5003051757812 376.40203857421875 557.309814453125 394.4259948730469 C 544.1160888671875 394.0745544433594 546.3748168945312 387.4003601074219 536.6757202148438 379.279296875" stroke-width="0.0" fill="rgb(19, 20, 18)" opacity="0.9987259"/>
    <path d="M 598.0655517578125 429.1392517089844 C 612.7273559570312 431.5074157714844 612.6904907226562 445.04473876953125 608.1372680664062 469.1017761230469 C 588.010986328125 454.7308349609375 590.8275756835938 450.1588439941406 592.4464111328125 438.6572570800781 C 588.3067626953125 434.47314453125 575.1058349609375 432.01123046875 570.0123901367188 438.86065673828125 C 586.561279296875 461.18927001953125 591.6242065429688 461.3805236816406 598.0655517578125 429.1392517089844" stroke-width="0.0" fill="rgb(18, 18, 16)" opacity="1.0"/>
    <path d="M 329.8086853027344 605.6203002929688 C 362.4761657714844 598.6795654296875 347.8255615234375 599.1384887695312 359.8791198730469 594.5783081054688 C 369.1561279296875 582.8851928710938 375.1097412109375 609.5322265625 344.5255126953125 605.1790771484375 C 376.4309997558594 583.9404296875 375.3935852050781 578.3017578125 347.11669921875 564.4208374023438 C 330.239013671875 563.4741821289062 325.34796142578125 568.8382568359375 329.8086853027344 605.6203002929688" stroke-width="0.0" fill="rgb(23, 24, 22)" opacity="0.99768525"/>
    <path d="M 557.690185546875 334.28717041015625 C 542.4303588867188 335.707763671875 542.942138671875 337.4405822753906 540.4813232421875 336.17071533203125 C 538.5005493164062 318.007080078125 545.4334716796875 327.460693359375 564.0783081054688 308.67779541015625 C 541.897705078125 303.95538330078125 544.238525390625 310.54339599609375 546.1644897460938 326.43511962890625 C 558.4051513671875 320.26593017578125 561.1256713867188 321.7353820800781 557.690185546875 334.28717041015625" stroke-width="0.0" fill="rgb(19, 19, 17)" opacity="0.83315945"/>
    <path d="M 285.1951904296875 20.11651611328125 C 299.03216552734375 24.76274299621582 306.47039794921875 25.649368286132812 319.02728271484375 -5.87818717956543 C 306.1964111328125 -11.430520057678223 297.02813720703125 -7.891582012176514 283.29534912109375 -1.486829400062561 C 279.547119140625 -5.001897811889648 284.7168884277344 -8.263456344604492 294.5725402832031 -8.825485229492188 C 295.8183288574219 -2.2572972774505615 295.02960205078125 0.6056492924690247 285.1951904296875 20.11651611328125" stroke-width="0.0" fill="rgb(19, 19, 18)" opacity="1.0"/>
    <path d="M 561.9686889648438 370.08795166015625 C 544.6323852539062 369.15557861328125 544.9365844726562 368.40313720703125 539.6967163085938 369.0521545410156 C 537.1731567382812 353.35772705078125 537.349609375 351.4537353515625 539.4011840820312 337.8465881347656 C 547.4276123046875 340.2555236816406 549.5274658203125 342.55810546875 560.3060913085938 343.6519470214844 C 562.8772583007812 351.9642333984375 565.1467895507812 357.2087097167969 561.9686889648438 370.08795166015625" stroke-width="0.0" fill="rgb(20, 21, 19)" opacity="0.9661817"/>
    <path d="M 439.0499572753906 31.74373435974121 C 446.8306884765625 39.17011642456055 432.7621154785156 41.61021041870117 426.4836730957031 32.433692932128906 C 448.8421325683594 38.261016845703125 453.57196044921875 39.57969665527344 451.9012756347656 15.183084487915039 C 432.3310241699219 22.363204956054688 417.78607177734375 36.464805603027344 410.5235900878906 -5.0552239418029785 C 424.6885070800781 -10.036677360534668 440.7991638183594 3.635601043701172 439.0499572753906 31.74373435974121" stroke-width="0.0" fill="rgb(13, 14, 12)" opacity="0.90200436"/>
    <path d="M 102.4218978881836 591.142822265625 C 102.28862762451172 583.681884765625 108.66786193847656 578.029296875 111.8730697631836 596.4364624023438 C 88.87115478515625 598.6177368164062 85.06697082519531 597.1889038085938 87.04925537109375 588.427978515625 C 91.0026626586914 577.4693603515625 93.24359893798828 577.331787109375 97.90487670898438 579.1121215820312 C 100.58684539794922 579.9572143554688 105.04277038574219 580.0026245117188 102.4218978881836 591.142822265625" stroke-width="0.0" fill="rgb(22, 23, 21)" opacity="1.0"/>
    <path d="M 302.53759765625 564.9386596679688 C 320.604248046875 577.3532104492188 302.9432067871094 569.2083740234375 291.58642578125 574.591064453125 C 299.480712890625 597.8848876953125 317.51715087890625 571.9476928710938 346.58343505859375 599.9923706054688 C 322.5924377441406 617.3622436523438 305.7748107910156 606.2434692382812 329.2283935546875 587.1455078125 C 303.783935546875 571.49951171875 294.2235412597656 575.3643798828125 302.53759765625 564.9386596679688" stroke-width="0.0" fill="rgb(22, 23, 21)" opacity="1.0"/>
    <path d="M 240.67991638183594 27.546184539794922 C 246.2716827392578 41.87076950073242 255.78793334960938 36.970489501953125 282.3891296386719 38.13644027709961 C 281.9091796875 14.721352577209473 284.0605773925781 8.653729438781738 258.5293273925781 7.618599891662598 C 252.8485870361328 31.937410354614258 261.3282165527344 34.42604064941406 261.5389099121094 40.90950393676758 C 261.2859191894531 37.56126022338867 257.6790771484375 25.67641258239746 240.67991638183594 27.546184539794922" stroke-width="0.0" fill="rgb(19, 19, 18)" opacity="0.9897529"/>
    <path d="M 409.8296813964844 -10.71969223022461 C 454.08428955078125 -6.489178657531738 452.2731628417969 4.194028854370117 443.351318359375 1.1978520154953003 C 443.43682861328125 12.087597846984863 448.97332763671875 16.679079055786133 443.86187744140625 31.60380744934082 C 427.11346435546875 27.21879768371582 427.12689208984375 19.520437240600586 434.38299560546875 10.713227272033691 C 429.2558288574219 13.493840217590332 416.9462890625 27.0773983001709 409.8296813964844 -10.71969223022461" stroke-width="0.0" fill="rgb(21, 21, 20)" opacity="1.0"/>
    <path d="M 554.1485595703125 431.8792419433594 C 519.44287109375 431.6553955078125 528.9429931640625 438.2217712402344 524.2401123046875 447.11456298828125 C 521.975830078125 464.1510314941406 522.578125 468.6128845214844 524.7106323242188 464.17034912109375 C 522.0156860351562 463.1191101074219 521.49365234375 467.80999755859375 540.0999145507812 485.1475830078125 C 553.969482421875 486.1013488769531 555.5216064453125 484.658447265625 554.1485595703125 431.8792419433594" stroke-width="0.0" fill="rgb(20, 21, 19)" opacity="1.0"/>
    <path d="M 287.1419982910156 600.5460205078125 C 278.8730773925781 566.4585571289062 268.838623046875 567.6561279296875 223.22271728515625 573.4322509765625 C 226.58346557617188 608.92236328125 231.32400512695312 591.4508056640625 226.0128936767578 598.447021484375 C 237.0418701171875 608.1475830078125 238.1251220703125 604.1424560546875 243.01840209960938 604.2158813476562 C 254.15724182128906 605.3377685546875 269.551513671875 621.039306640625 287.1419982910156 600.5460205078125" stroke-width="0.0" fill="rgb(21, 21, 20)" opacity="0.9853924"/>
    <path d="M 176.13905334472656 35.62989807128906 C 183.23419189453125 6.881623268127441 189.5220489501953 8.337908744812012 208.0161895751953 3.4665725231170654 C 206.90150451660156 5.832516193389893 195.37916564941406 -0.7860824465751648 223.4616241455078 -1.8047282695770264 C 218.2705078125 30.746562957763672 209.40391540527344 28.641050338745117 217.96035766601562 27.966543197631836 C 218.939208984375 36.864315032958984 209.83737182617188 38.24165725708008 176.13905334472656 35.62989807128906" stroke-width="0.0" fill="rgb(22, 23, 22)" opacity="0.9748443"/>
  </g>
</svg>
