<?xml version="1.0" ?>
<svg xmlns="http://www.w3.org/2000/svg" version="1.1" width="600" height="600">
  <defs/>
  <g>
    <path d="M 1.901994228363037 353.8841857910156 C -0.08704167604446411 354.454345703125 -2.0423784255981445 353.3114318847656 -0.199895977973938 350.9454650878906 C -1.3731718063354492 351.5712890625 -1.7444524765014648 350.3226318359375 0.6759923100471497 351.1706848144531 C 1.1299207210540771 351.91259765625 3.323543071746826 353.1976318359375 2.4467930793762207 352.9599609375 C 1.466308832168579 351.2640075683594 2.3920230865478516 353.2076110839844 1.901994228363037 353.8841857910156" stroke-width="0.0" fill="rgb(255, 255, 255)" opacity="0.7874718"/>
    <path d="M 382.76727294921875 590.3380126953125 C 383.36798095703125 589.0526733398438 383.7498779296875 590.1238403320312 386.2308044433594 588.701904296875 C 384.80914306640625 589.3301391601562 384.6695556640625 589.1637573242188 382.6506042480469 590.1174926757812 C 384.4438171386719 592.3616943359375 386.11602783203125 593.3604125976562 387.2773132324219 594.4140014648438 C 385.7983703613281 593.6370849609375 387.8797607421875 594.6572875976562 382.76727294921875 590.3380126953125" stroke-width="0.0" fill="rgb(255, 255, 255)" opacity="0.7164945"/>
    <path d="M 19.846433639526367 3.010986804962158 C 20.554414749145508 0.6386080980300903 18.889001846313477 3.056755781173706 18.47648811340332 4.14316987991333 C 18.66959571838379 3.3508107662200928 19.540607452392578 1.988447904586792 20.59592056274414 3.260502576828003 C 21.561098098754883 1.8920177221298218 21.215761184692383 0.286300390958786 19.008129119873047 1.0681140422821045 C 18.941082000732422 0.9605300426483154 17.6618595123291 -1.3593034744262695 19.846433639526367 3.010986804962158" stroke-width="0.0" fill="rgb(255, 255, 255)" opacity="0.75701755"/>
    <path d="M -0.44092440605163574 368.8858642578125 C 0.38754063844680786 369.0581970214844 -1.1394810676574707 367.0614318847656 -2.5862815380096436 364.7341003417969 C -3.248795509338379 364.49609375 -1.8675545454025269 363.8060302734375 -0.8952409029006958 365.4088134765625 C 0.49651825428009033 362.9576721191406 -0.539249062538147 364.6908874511719 -1.998167872428894 362.36602783203125 C -0.22934769093990326 364.1094970703125 -1.1812751293182373 366.0325927734375 -0.44092440605163574 368.8858642578125" stroke-width="0.0" fill="rgb(255, 255, 255)" opacity="0.9947448"/>
    <path d="M 17.996417999267578 367.44830322265625 C 17.496551513671875 365.1560363769531 19.1604061126709 362.4535827636719 20.216182708740234 363.0083312988281 C 19.58330535888672 363.3437194824219 20.43772315979004 364.4150085449219 19.810699462890625 366.307373046875 C 18.079805374145508 364.5796203613281 17.279186248779297 362.556640625 18.089027404785156 362.8248291015625 C 17.47930145263672 365.36541748046875 15.838642120361328 366.08734130859375 17.996417999267578 367.44830322265625" stroke-width="0.0" fill="rgb(255, 255, 255)" opacity="0.68509066"/>
    <path d="M 22.831876754760742 427.1285400390625 C 22.835166931152344 428.2713317871094 25.44862174987793 428.03350830078125 26.43952178955078 429.2036437988281 C 28.399127960205078 431.34661865234375 28.102479934692383 431.2780456542969 27.27118682861328 430.2543640136719 C 26.28899574279785 428.56744384765625 24.735626220703125 429.0980529785156 23.594287872314453 426.7803649902344 C 22.80806541442871 427.36102294921875 21.24105453491211 426.7713623046875 22.831876754760742 427.1285400390625" stroke-width="0.0" fill="rgb(255, 255, 255)" opacity="0.73932946"/>
    <path d="M 597.466796875 471.20660400390625 C 598.1243896484375 468.40899658203125 600.0404663085938 466.8018798828125 598.5399780273438 468.0743713378906 C 597.7258911132812 467.6525573730469 597.3319702148438 468.5918884277344 595.5223999023438 467.67706298828125 C 597.9317016601562 466.24774169921875 596.6744995117188 465.7611999511719 596.9627685546875 464.1691589355469 C 598.3095092773438 463.47174072265625 600.9950561523438 463.827392578125 597.466796875 471.20660400390625" stroke-width="0.0" fill="rgb(255, 255, 255)" opacity="0.69440454"/>
    <path d="M 341.0963439941406 570.3847045898438 C 342.2516174316406 569.1345825195312 343.2550964355469 569.1465454101562 342.6359558105469 569.5161743164062 C 341.40142822265625 569.3142700195312 341.1042785644531 570.32568359375 340.2032470703125 571.8477172851562 C 340.909912109375 569.6860961914062 342.412109375 572.0109252929688 340.674560546875 570.4849243164062 C 341.88671875 572.3410034179688 340.62481689453125 570.7648315429688 341.0963439941406 570.3847045898438" stroke-width="0.0" fill="rgb(255, 255, 255)" opacity="0.80103827"/>
    <path d="M 285.28643798828125 576.9259033203125 C 286.2917175292969 577.2427368164062 284.2879638671875 577.4090576171875 285.15301513671875 579.9204711914062 C 286.6127014160156 579.7328491210938 286.9578552246094 582.0156860351562 287.5410461425781 584.4622802734375 C 287.59307861328125 586.0386352539062 288.7713317871094 584.6371459960938 286.7596740722656 586.7428588867188 C 287.54205322265625 589.1976318359375 290.0387878417969 590.1013793945312 285.28643798828125 576.9259033203125" stroke-width="0.0" fill="rgb(255, 255, 255)" opacity="0.6836875"/>
    <path d="M 564.1729736328125 466.8909912109375 C 563.2552490234375 465.0916442871094 561.31689453125 463.7433166503906 562.1920166015625 466.5003662109375 C 561.2953491210938 467.6045837402344 560.6024780273438 469.2205505371094 561.183837890625 471.2035217285156 C 562.7977294921875 470.39178466796875 563.9038696289062 471.614501953125 563.3550415039062 471.0628662109375 C 563.6309814453125 471.2768859863281 561.7268676757812 471.3054504394531 564.1729736328125 466.8909912109375" stroke-width="0.0" fill="rgb(255, 255, 255)" opacity="0.68886626"/>
    <path d="M 11.254351615905762 27.961212158203125 C 12.364217758178711 26.21275520324707 11.809830665588379 24.048513412475586 9.74824333190918 22.10823631286621 C 7.817597389221191 20.193113327026367 9.08722972869873 21.321393966674805 7.414064407348633 22.025251388549805 C 8.63464641571045 21.157459259033203 10.876070022583008 18.692537307739258 9.657442092895508 19.4685001373291 C 11.109990119934082 17.742877960205078 13.091975212097168 19.892620086669922 11.254351615905762 27.961212158203125" stroke-width="0.0" fill="rgb(255, 255, 255)" opacity="0.63269925"/>
    <path d="M 594.5897216796875 305.0244140625 C 595.7747192382812 303.7564392089844 596.6026611328125 302.78118896484375 595.6587524414062 302.06219482421875 C 594.5765991210938 301.6708068847656 593.1756591796875 303.07720947265625 592.7911376953125 300.76416015625 C 591.3543090820312 302.34039306640625 590.34716796875 303.18682861328125 592.1741333007812 301.5113830566406 C 592.6373901367188 300.18353271484375 590.3168334960938 301.381103515625 594.5897216796875 305.0244140625" stroke-width="0.0" fill="rgb(255, 255, 255)" opacity="0.6950002"/>
    <path d="M 305.376953125 570.4758911132812 C 307.1712646484375 573.3482666015625 308.5406799316406 572.5967407226562 307.90081787109375 574.88671875 C 308.8709411621094 575.830322265625 306.75836181640625 576.3833618164062 305.6235656738281 575.9884033203125 C 307.43194580078125 576.3663330078125 305.8941345214844 576.778076171875 305.9873962402344 573.9571533203125 C 304.9492492675781 571.244384765625 304.144287109375 574.1948852539062 305.376953125 570.4758911132812" stroke-width="0.0" fill="rgb(255, 255, 255)" opacity="0.68881184"/>
    <path d="M 11.003464698791504 372.9717712402344 C 10.975814819335938 373.0614013671875 9.24002456665039 373.10040283203125 7.357236385345459 372.87567138671875 C 6.8810038566589355 373.798095703125 5.691668510437012 371.8291320800781 4.586562633514404 371.14306640625 C 3.137960910797119 369.94842529296875 2.0329065322875977 368.6928405761719 3.459022283554077 366.7635498046875 C 2.877664089202881 366.68743896484375 6.289506912231445 366.5242919921875 11.003464698791504 372.9717712402344" stroke-width="0.0" fill="rgb(255, 255, 255)" opacity="0.6377757"/>
    <path d="M 598.8156127929688 390.7507629394531 C 597.0873413085938 391.2827453613281 598.5873413085938 393.0602111816406 598.2003173828125 391.71588134765625 C 599.3617553710938 392.6436462402344 601.3163452148438 394.5599670410156 601.0415649414062 394.6493835449219 C 599.9099731445312 392.6104736328125 601.2471923828125 390.4208984375 600.7060546875 388.3765563964844 C 600.1635131835938 387.0630187988281 600.2689819335938 387.44317626953125 598.8156127929688 390.7507629394531" stroke-width="0.0" fill="rgb(255, 255, 255)" opacity="0.785442"/>
    <path d="M 572.879638671875 403.4438171386719 C 572.8582153320312 401.46270751953125 571.4329833984375 402.9892578125 570.344482421875 402.9431457519531 C 568.826904296875 404.1481018066406 571.4265747070312 404.398193359375 570.9571533203125 403.6163330078125 C 571.2386474609375 401.8233642578125 573.506103515625 402.5359191894531 572.7390747070312 402.9736328125 C 572.9554443359375 403.5461120605469 572.7777709960938 404.6733093261719 572.879638671875 403.4438171386719" stroke-width="0.0" fill="rgb(255, 255, 255)" opacity="0.7984928"/>
    <path d="M 339.1533203125 588.62060546875 C 336.9687194824219 589.9563598632812 337.9682312011719 590.2167358398438 339.69696044921875 590.5269775390625 C 341.72491455078125 588.7551879882812 340.6750793457031 591.1107788085938 341.2720947265625 590.9837646484375 C 339.8831787109375 591.6900634765625 338.0165100097656 588.8463745117188 337.31060791015625 590.3219604492188 C 338.17132568359375 589.3070678710938 339.3572998046875 588.3880615234375 339.1533203125 588.62060546875" stroke-width="0.0" fill="rgb(255, 255, 255)" opacity="0.747396"/>
    <path d="M 588.163330078125 447.454345703125 C 587.1041870117188 448.6618347167969 589.2329711914062 450.3487243652344 588.170654296875 449.55169677734375 C 587.1591186523438 450.60162353515625 585.888916015625 449.6549377441406 583.9381103515625 450.0429382324219 C 583.70947265625 451.91265869140625 586.6358642578125 450.3901062011719 588.2102661132812 451.26666259765625 C 586.669189453125 453.7545471191406 583.7726440429688 450.3751220703125 588.163330078125 447.454345703125" stroke-width="0.0" fill="rgb(255, 255, 255)" opacity="0.7121599"/>
    <path d="M 572.7881469726562 386.4799499511719 C 573.9805297851562 386.502197265625 572.8046264648438 386.22467041015625 571.2420043945312 387.7844543457031 C 573.7462768554688 388.72222900390625 573.1536254882812 388.421142578125 573.594482421875 388.4477844238281 C 572.781982421875 388.3384704589844 570.0989990234375 387.54595947265625 569.5780639648438 387.67742919921875 C 569.0831909179688 387.0041198730469 569.8115844726562 389.0072326660156 572.7881469726562 386.4799499511719" stroke-width="0.0" fill="rgb(255, 255, 255)" opacity="0.72437704"/>
    <path d="M 376.9173278808594 570.9155883789062 C 376.0157470703125 572.9712524414062 375.2883605957031 575.344970703125 375.3211669921875 576.888671875 C 375.6315002441406 576.142822265625 374.4901123046875 578.4249877929688 377.19781494140625 580.4898681640625 C 375.9197692871094 581.724853515625 378.3601379394531 580.5466918945312 376.26873779296875 579.595947265625 C 375.9195556640625 578.451904296875 373.9261169433594 578.2266235351562 376.9173278808594 570.9155883789062" stroke-width="0.0" fill="rgb(255, 255, 255)" opacity="0.7682169"/>
    <path d="M 17.133560180664062 13.21356201171875 C 16.7128849029541 10.450464248657227 17.792301177978516 8.552738189697266 15.338665008544922 11.131254196166992 C 14.292747497558594 11.63318920135498 16.17012596130371 13.84186840057373 12.729598045349121 12.821868896484375 C 13.525938034057617 12.916056632995605 12.586676597595215 16.092317581176758 13.359770774841309 17.271684646606445 C 13.108537673950195 17.617389678955078 11.81218433380127 18.94025993347168 17.133560180664062 13.21356201171875" stroke-width="0.0" fill="rgb(255, 255, 255)" opacity="0.66935945"/>
    <path d="M 592.6994018554688 360.47308349609375 C 591.7196044921875 359.0887756347656 590.9761352539062 358.3293151855469 592.3222045898438 359.9922790527344 C 593.1852416992188 360.8681945800781 591.6615600585938 362.1179504394531 595.621337890625 363.4774169921875 C 593.8385009765625 365.1355895996094 595.05029296875 365.1029052734375 594.4112548828125 365.39031982421875 C 595.1657104492188 366.7912902832031 592.7192993164062 366.1228332519531 592.6994018554688 360.47308349609375" stroke-width="0.0" fill="rgb(255, 255, 255)" opacity="0.73016715"/>
    <path d="M 562.2000122070312 594.0882568359375 C 563.3681030273438 593.3963012695312 564.9556884765625 595.2456665039062 565.5830688476562 596.4283447265625 C 565.47705078125 596.9483032226562 565.57470703125 595.2196655273438 566.8200073242188 596.3319091796875 C 567.4917602539062 598.726806640625 566.226318359375 597.89453125 564.7132568359375 598.1105346679688 C 563.3964233398438 598.2802734375 561.309814453125 596.9482421875 562.2000122070312 594.0882568359375" stroke-width="0.0" fill="rgb(255, 255, 255)" opacity="0.69890213"/>
    <path d="M 19.37754249572754 495.4251403808594 C 19.410057067871094 496.0390625 20.026355743408203 494.16485595703125 16.948633193969727 495.2850036621094 C 17.04056167602539 493.63238525390625 19.269865036010742 492.0044250488281 21.218502044677734 493.3853454589844 C 20.294084548950195 494.827392578125 21.773984909057617 494.65087890625 23.029775619506836 493.8255615234375 C 23.11384391784668 494.09173583984375 21.637123107910156 494.3374328613281 19.37754249572754 495.4251403808594" stroke-width="0.0" fill="rgb(255, 255, 255)" opacity="0.7158843"/>
    <path d="M 5.4912238121032715 503.65716552734375 C 5.6737518310546875 505.32012939453125 6.977433681488037 507.8244934082031 5.226172924041748 508.3749694824219 C 5.050319194793701 508.10430908203125 6.07012939453125 508.9454040527344 4.724648952484131 507.1257629394531 C 3.4408891201019287 506.6561279296875 3.7062652111053467 504.9752502441406 4.701110363006592 504.7929992675781 C 5.196601867675781 505.72283935546875 6.08827543258667 504.03057861328125 5.4912238121032715 503.65716552734375" stroke-width="0.0" fill="rgb(255, 255, 255)" opacity="0.75647664"/>
    <path d="M 28.57769775390625 68.67752075195312 C 31.77543830871582 66.64384460449219 29.5997371673584 65.6808090209961 27.736631393432617 65.93763732910156 C 25.77072525024414 66.68712615966797 27.352458953857422 67.82164764404297 28.981159210205078 68.45946502685547 C 29.371362686157227 68.74745178222656 27.434009552001953 68.86979675292969 26.83390235900879 69.23784637451172 C 27.53435516357422 67.07193756103516 25.65371322631836 66.18543243408203 28.57769775390625 68.67752075195312" stroke-width="0.0" fill="rgb(255, 255, 255)" opacity="0.7159072"/>
    <path d="M 259.6883544921875 586.8536987304688 C 260.6269226074219 587.40234375 259.6404724121094 586.6873168945312 258.77801513671875 585.197998046875 C 260.92791748046875 587.636474609375 259.4382629394531 589.4390869140625 261.0354919433594 587.530029296875 C 260.652099609375 585.8242797851562 263.09088134765625 584.266845703125 264.1428527832031 585.2384643554688 C 263.6459045410156 583.5509643554688 263.13409423828125 582.6546020507812 259.6883544921875 586.8536987304688" stroke-width="0.0" fill="rgb(255, 255, 255)" opacity="0.70147645"/>
    <path d="M 589.3474731445312 432.21624755859375 C 591.1123046875 430.045654296875 592.785400390625 428.6792907714844 593.0953369140625 429.77490234375 C 592.2296142578125 430.7288513183594 592.2673950195312 429.4110107421875 590.65234375 429.54742431640625 C 591.8958740234375 429.6126403808594 594.292724609375 429.4152526855469 592.4669189453125 428.8196105957031 C 594.3458251953125 426.54949951171875 596.3543701171875 424.758544921875 589.3474731445312 432.21624755859375" stroke-width="0.0" fill="rgb(255, 255, 255)" opacity="0.82433105"/>
    <path d="M 18.089330673217773 380.104736328125 C 17.621234893798828 378.8229064941406 18.655826568603516 380.51171875 18.229524612426758 381.14141845703125 C 18.231964111328125 379.1009521484375 19.362119674682617 379.59588623046875 18.91042137145996 381.70947265625 C 20.775192260742188 382.46539306640625 20.80398941040039 381.61383056640625 21.112445831298828 381.8538513183594 C 20.485244750976562 379.7950134277344 22.12599754333496 379.99859619140625 18.089330673217773 380.104736328125" stroke-width="0.0" fill="rgb(255, 255, 255)" opacity="0.79266965"/>
    <path d="M 5.717540740966797 499.70556640625 C 5.020636081695557 499.1356201171875 6.324307918548584 500.9615478515625 7.8888959884643555 499.7469177246094 C 9.243597984313965 500.30340576171875 9.45317268371582 500.9044494628906 10.655089378356934 502.39306640625 C 7.713104724884033 501.39794921875 6.687006950378418 502.2106628417969 8.764991760253906 503.41552734375 C 10.593435287475586 505.2586364746094 9.044795036315918 504.5437316894531 5.717540740966797 499.70556640625" stroke-width="0.0" fill="rgb(255, 255, 255)" opacity="0.69089466"/>
    <path d="M 502.4585876464844 565.8611450195312 C 503.5464782714844 567.9819946289062 504.0867919921875 569.6949462890625 504.0010070800781 568.9667358398438 C 505.7247009277344 569.4049682617188 507.0653076171875 567.6923217773438 504.8499450683594 569.21533203125 C 504.744873046875 571.9186401367188 505.7166748046875 570.181884765625 506.01800537109375 571.4922485351562 C 505.69329833984375 573.2550659179688 505.4674072265625 572.732421875 502.4585876464844 565.8611450195312" stroke-width="0.0" fill="rgb(255, 255, 255)" opacity="0.70819575"/>
    <path d="M 10.318920135498047 420.8679504394531 C 11.176445960998535 418.6185302734375 9.036012649536133 419.3352355957031 9.445455551147461 418.77032470703125 C 9.700532913208008 419.7471923828125 7.568259239196777 417.7432861328125 9.230314254760742 418.9436950683594 C 10.819592475891113 418.787109375 9.800775527954102 420.8304138183594 10.410592079162598 419.19525146484375 C 10.177523612976074 419.85699462890625 10.83107852935791 418.9091491699219 10.318920135498047 420.8679504394531" stroke-width="0.0" fill="rgb(255, 255, 255)" opacity="0.8346303"/>
    <path d="M 543.236572265625 593.0103759765625 C 543.6649169921875 593.8142700195312 544.7311401367188 592.7609252929688 545.443359375 592.5281372070312 C 547.4686889648438 590.2565307617188 548.7313232421875 587.6790771484375 549.732421875 589.2385864257812 C 552.6361083984375 587.9987182617188 552.652587890625 585.7152709960938 552.36962890625 585.0856323242188 C 552.9210205078125 586.2949829101562 553.0868530273438 587.963623046875 543.236572265625 593.0103759765625" stroke-width="0.0" fill="rgb(255, 255, 255)" opacity="0.62965995"/>
    <path d="M 278.2739562988281 595.0125122070312 C 279.6611633300781 593.524658203125 279.6579284667969 594.024658203125 280.3863525390625 593.6630859375 C 282.23199462890625 596.0922241210938 280.830810546875 593.7723999023438 279.83074951171875 593.7178955078125 C 278.22686767578125 594.52587890625 276.0881652832031 596.89404296875 277.5448303222656 595.8782348632812 C 275.8462219238281 595.9696044921875 274.0787048339844 598.0743408203125 278.2739562988281 595.0125122070312" stroke-width="0.0" fill="rgb(255, 255, 255)" opacity="0.7940258"/>
    <path d="M 542.90966796875 583.2947387695312 C 541.0401611328125 582.160400390625 541.5134887695312 579.346923828125 543.0602416992188 578.649658203125 C 541.0377197265625 580.0928955078125 542.6840209960938 580.6818237304688 541.4728393554688 581.9454345703125 C 540.8251342773438 582.1539916992188 540.9420776367188 582.1249389648438 540.9954223632812 581.5234375 C 541.9141235351562 580.1506958007812 543.7108154296875 578.0158081054688 542.90966796875 583.2947387695312" stroke-width="0.0" fill="rgb(255, 255, 255)" opacity="0.74900895"/>
    <path d="M 568.1317138671875 339.587646484375 C 567.5540161132812 339.98895263671875 566.5761108398438 339.0279541015625 568.0684204101562 340.413330078125 C 567.6643676757812 341.1962890625 565.6668701171875 342.93463134765625 565.0623779296875 341.7828369140625 C 562.902099609375 341.8136291503906 562.431396484375 342.3854675292969 561.9567260742188 341.72674560546875 C 560.6205444335938 341.9573669433594 559.05517578125 341.8876953125 568.1317138671875 339.587646484375" stroke-width="0.0" fill="rgb(255, 255, 255)" opacity="0.67184407"/>
    <path d="M 567.8445434570312 450.3212585449219 C 567.4984130859375 449.57037353515625 569.3145141601562 447.7084045410156 569.9137573242188 448.00128173828125 C 570.2247314453125 450.3782653808594 570.0652465820312 451.81463623046875 568.2334594726562 450.8449401855469 C 568.5088500976562 451.85308837890625 568.4164428710938 454.08197021484375 567.4302978515625 454.0628356933594 C 567.5048828125 454.4159240722656 569.3518676757812 452.724365234375 567.8445434570312 450.3212585449219" stroke-width="0.0" fill="rgb(255, 255, 255)" opacity="0.7302562"/>
    <path d="M 584.92919921875 492.5968933105469 C 583.50537109375 491.6019592285156 583.5194091796875 490.74609375 584.5630493164062 489.691650390625 C 582.6958618164062 488.0177917480469 584.5859375 490.2277526855469 585.4334716796875 489.73040771484375 C 583.4779663085938 489.95703125 582.6184692382812 490.1324462890625 582.7298583984375 490.40411376953125 C 583.0596313476562 490.0646057128906 581.0872192382812 488.67120361328125 584.92919921875 492.5968933105469" stroke-width="0.0" fill="rgb(255, 255, 255)" opacity="0.80710524"/>
    <path d="M 253.6837158203125 574.743408203125 C 253.41397094726562 574.5311279296875 251.5292205810547 574.7744750976562 250.7539520263672 574.0158081054688 C 249.05995178222656 573.6361083984375 249.10459899902344 573.66162109375 250.7607421875 574.389404296875 C 251.9698028564453 571.5343017578125 249.8058624267578 570.3563842773438 246.0698699951172 571.1705932617188 C 245.05654907226562 573.464111328125 247.17709350585938 573.9441528320312 253.6837158203125 574.743408203125" stroke-width="0.0" fill="rgb(255, 255, 255)" opacity="0.68406016"/>
    <path d="M 298.59979248046875 580.270263671875 C 297.20159912109375 578.2636108398438 295.21942138671875 579.8289794921875 296.1507873535156 577.3370361328125 C 297.11041259765625 576.5244140625 299.8700866699219 577.0250244140625 302.08013916015625 578.26708984375 C 301.214599609375 578.8621826171875 303.63055419921875 577.2244873046875 304.3030700683594 576.0724487304688 C 306.236083984375 575.5402221679688 304.93438720703125 572.0397338867188 298.59979248046875 580.270263671875" stroke-width="0.0" fill="rgb(255, 255, 255)" opacity="0.63836175"/>
    <path d="M 584.4657592773438 382.6489562988281 C 585.0507202148438 383.2394714355469 585.3189086914062 383.4102783203125 584.8156127929688 385.4710693359375 C 583.2155151367188 383.1599426269531 581.9686889648438 383.9297180175781 580.5405883789062 382.7894592285156 C 581.5997314453125 383.7602844238281 582.09228515625 383.2533874511719 583.5436401367188 384.1119079589844 C 582.9928588867188 384.8659973144531 582.4524536132812 385.7621154785156 584.4657592773438 382.6489562988281" stroke-width="0.0" fill="rgb(255, 255, 255)" opacity="0.76075363"/>
    <path d="M 21.94074249267578 358.8411560058594 C 21.70669174194336 356.72515869140625 19.971220016479492 358.7554016113281 21.48150062561035 360.1134338378906 C 21.860422134399414 359.8018493652344 23.410160064697266 359.5062561035156 23.248046875 361.358642578125 C 22.22652244567871 362.66552734375 22.649396896362305 361.5479736328125 24.00751495361328 359.2153015136719 C 24.379789352416992 359.3017883300781 26.43236541748047 359.9898376464844 21.94074249267578 358.8411560058594" stroke-width="0.0" fill="rgb(255, 255, 255)" opacity="0.714943"/>
    <path d="M 594.937255859375 400.5999450683594 C 597.7650756835938 402.1585693359375 595.2301025390625 404.0621337890625 592.4385986328125 402.47247314453125 C 594.330322265625 402.0865173339844 593.0289306640625 400.1951904296875 591.982666015625 398.9949951171875 C 591.19384765625 398.1722717285156 593.365478515625 399.4163513183594 591.5950927734375 400.96148681640625 C 589.640625 401.3829345703125 591.4420776367188 403.34869384765625 594.937255859375 400.5999450683594" stroke-width="0.0" fill="rgb(255, 255, 255)" opacity="0.68140125"/>
    <path d="M 584.1380004882812 361.3546142578125 C 585.1627807617188 360.35723876953125 582.7568969726562 360.75146484375 583.0439453125 360.40899658203125 C 583.6260986328125 361.6971435546875 584.6470336914062 363.0747985839844 584.2261962890625 360.5576171875 C 581.9812622070312 358.86749267578125 581.5031127929688 357.473876953125 581.1190185546875 359.05133056640625 C 579.220947265625 361.0312805175781 578.3489379882812 362.87493896484375 584.1380004882812 361.3546142578125" stroke-width="0.0" fill="rgb(255, 255, 255)" opacity="0.80337596"/>
    <path d="M 333.5133361816406 589.6605834960938 C 332.5776062011719 588.4361572265625 334.5968322753906 590.0232543945312 333.9256591796875 586.6597290039062 C 333.5693664550781 587.5482177734375 333.9048767089844 586.47216796875 335.1016845703125 586.8047485351562 C 336.03350830078125 587.78955078125 335.5115051269531 586.2661743164062 333.5962219238281 586.9376831054688 C 332.28033447265625 586.9042358398438 333.07696533203125 588.9901733398438 333.5133361816406 589.6605834960938" stroke-width="0.0" fill="rgb(255, 255, 255)" opacity="0.82477707"/>
    <path d="M 533.40576171875 582.0293579101562 C 530.9548950195312 581.6849975585938 530.1172485351562 579.4714965820312 531.4034423828125 579.275146484375 C 533.3648681640625 577.8442993164062 531.8313598632812 577.1119384765625 529.3222045898438 575.698486328125 C 528.4107666015625 574.0365600585938 527.5914306640625 574.957763671875 525.9904174804688 576.4588623046875 C 526.2551879882812 579.074951171875 523.8081665039062 578.533447265625 533.40576171875 582.0293579101562" stroke-width="0.0" fill="rgb(255, 255, 255)" opacity="0.65889657"/>
    <path d="M 513.6035766601562 566.6983032226562 C 516.2920532226562 566.871826171875 517.7666625976562 569.1026611328125 518.9011840820312 567.8065795898438 C 518.9146728515625 565.3663940429688 519.2549438476562 563.5299682617188 518.5836791992188 564.0051879882812 C 519.2490844726562 564.1056518554688 521.5695190429688 563.4917602539062 520.7802124023438 564.3307495117188 C 522.0048217773438 565.8175048828125 519.369140625 568.0396118164062 513.6035766601562 566.6983032226562" stroke-width="0.0" fill="rgb(255, 255, 255)" opacity="0.68878824"/>
    <path d="M 567.6134643554688 486.7358093261719 C 568.4038696289062 487.589599609375 567.8585205078125 488.2440185546875 568.2884521484375 489.0343017578125 C 568.6278686523438 488.9078063964844 566.861328125 487.3578186035156 569.1461181640625 486.8523254394531 C 570.3365478515625 487.5822448730469 571.7561645507812 488.95440673828125 570.6178588867188 488.8048095703125 C 572.3966674804688 488.23583984375 569.3296508789062 490.7756042480469 567.6134643554688 486.7358093261719" stroke-width="0.0" fill="rgb(255, 255, 255)" opacity="0.7419705"/>
    <path d="M 28.029064178466797 374.1512145996094 C 27.905799865722656 375.2012939453125 26.30348777770996 376.7625732421875 28.144775390625 374.96368408203125 C 25.62360954284668 373.1263427734375 23.559816360473633 374.0563659667969 23.896106719970703 374.84747314453125 C 24.220178604125977 376.4653015136719 25.934755325317383 374.9102478027344 27.84391975402832 376.28662109375 C 26.142709732055664 378.79327392578125 28.189390182495117 377.1563720703125 28.029064178466797 374.1512145996094" stroke-width="0.0" fill="rgb(255, 255, 255)" opacity="0.83221"/>
    <path d="M 571.9015502929688 358.1023254394531 C 572.1119995117188 356.7724914550781 572.1831665039062 355.1966247558594 571.3657836914062 356.12188720703125 C 569.751708984375 359.1856384277344 567.0654907226562 357.51116943359375 567.3186645507812 358.1885986328125 C 567.3905029296875 357.3887634277344 566.0878295898438 358.7515563964844 567.8858032226562 359.3066101074219 C 567.755126953125 357.60247802734375 569.4900512695312 357.46221923828125 571.9015502929688 358.1023254394531" stroke-width="0.0" fill="rgb(255, 255, 255)" opacity="0.74963087"/>
    <path d="M 321.8537902832031 577.6862182617188 C 320.3668518066406 579.9448852539062 321.11224365234375 577.710693359375 320.792236328125 577.7416381835938 C 320.7008056640625 579.4256591796875 321.8720703125 579.4852905273438 320.966796875 579.0280151367188 C 321.8862609863281 577.3942260742188 321.7561950683594 577.8257446289062 320.3262939453125 579.0869140625 C 320.6526794433594 578.8261108398438 318.42315673828125 580.6435546875 321.8537902832031 577.6862182617188" stroke-width="0.0" fill="rgb(255, 255, 255)" opacity="0.84532356"/>
    <path d="M 531.874267578125 577.9493408203125 C 529.2503051757812 579.1536254882812 528.5661010742188 580.6654052734375 529.1681518554688 582.7442626953125 C 528.9852905273438 581.8844604492188 528.9716186523438 581.2548217773438 529.71240234375 583.6243896484375 C 529.2940063476562 581.2243041992188 527.0770874023438 581.7633056640625 528.1896362304688 582.8828125 C 529.4176635742188 582.7356567382812 527.9924926757812 584.5239868164062 531.874267578125 577.9493408203125" stroke-width="0.0" fill="rgb(255, 255, 255)" opacity="0.7927021"/>
    <path d="M 66.28230285644531 590.41845703125 C 68.31098937988281 590.2952270507812 66.06803131103516 589.7991943359375 67.31501007080078 588.87939453125 C 65.98302459716797 587.9951782226562 67.67935943603516 589.2582397460938 69.274658203125 589.8198852539062 C 68.84764099121094 590.1902465820312 68.77854919433594 588.786865234375 67.88327026367188 589.9558715820312 C 68.85124206542969 589.1127319335938 67.4126968383789 590.5818481445312 66.28230285644531 590.41845703125" stroke-width="0.0" fill="rgb(255, 255, 255)" opacity="0.8035996"/>
    <path d="M 596.9874267578125 534.9075317382812 C 596.9613647460938 535.6130981445312 595.41357421875 534.3684692382812 594.948486328125 533.2335205078125 C 594.6359252929688 532.5734252929688 595.53515625 531.2579956054688 596.9302978515625 531.7305908203125 C 595.9086303710938 532.2543334960938 595.1807250976562 532.1783447265625 596.7632446289062 531.1354370117188 C 594.1541748046875 529.1085205078125 596.9232788085938 529.7612915039062 596.9874267578125 534.9075317382812" stroke-width="0.0" fill="rgb(255, 255, 255)" opacity="0.72371"/>
    <path d="M 1.692725419998169 312.6947326660156 C 3.21848726272583 315.5369567871094 0.7042835354804993 317.03887939453125 -1.4154058694839478 317.9170837402344 C -2.973604917526245 320.6805725097656 -4.635208606719971 319.32220458984375 -6.622762203216553 321.0103454589844 C -4.2200608253479 320.5146789550781 -3.872650146484375 320.7927551269531 -5.0718278884887695 320.7353515625 C -6.0271711349487305 321.96649169921875 -6.435080051422119 321.07745361328125 1.692725419998169 312.6947326660156" stroke-width="0.0" fill="rgb(255, 255, 255)" opacity="0.7586508"/>
    <path d="M 343.5965881347656 568.1998901367188 C 345.4849853515625 567.9618530273438 346.1946105957031 565.5355224609375 348.04071044921875 564.7973022460938 C 348.45916748046875 564.691162109375 347.3600769042969 563.7020263671875 348.6293640136719 564.2767333984375 C 348.1129150390625 564.5007934570312 347.06219482421875 562.1172485351562 348.384765625 561.55908203125 C 350.79107666015625 559.0977783203125 351.71014404296875 556.5387573242188 343.5965881347656 568.1998901367188" stroke-width="0.0" fill="rgb(255, 255, 255)" opacity="0.65785563"/>
    <path d="M 313.4461975097656 598.5646362304688 C 312.68365478515625 596.8226928710938 310.62799072265625 594.87548828125 310.1188659667969 596.4996337890625 C 309.6200256347656 593.7709350585938 310.26580810546875 592.6041870117188 311.9930419921875 592.7271118164062 C 314.34881591796875 591.3056030273438 312.66265869140625 590.5030517578125 314.1014099121094 592.763916015625 C 315.57464599609375 593.4724731445312 315.70721435546875 594.543212890625 313.4461975097656 598.5646362304688" stroke-width="0.0" fill="rgb(255, 255, 255)" opacity="0.6880921"/>
    <path d="M -6.755110263824463 49.38507843017578 C 3.076301097869873 46.82952880859375 2.9065349102020264 46.67405700683594 -9.403422355651855 50.43497085571289 C -2.52156925201416 63.088130950927734 -0.8115636110305786 63.802391052246094 0.2470124214887619 66.96147155761719 C 16.15478515625 57.9647331237793 19.06453514099121 54.562477111816406 28.312170028686523 49.18251419067383 C 24.117740631103516 46.0177116394043 17.796476364135742 51.502197265625 -6.755110263824463 49.38507843017578" stroke-width="0.0" fill="rgb(21, 20, 21)" opacity="1.0"/>
    <path d="M 6.190948486328125 381.7033386230469 C 8.420014381408691 383.25982666015625 6.02119255065918 384.6599426269531 3.241602659225464 386.6197204589844 C 2.5347065925598145 389.263916015625 1.1348977088928223 387.9828186035156 2.376865863800049 387.10711669921875 C 4.753295421600342 386.4957580566406 4.254682540893555 383.2396545410156 3.047229051589966 382.1834716796875 C 4.624480247497559 383.7351379394531 6.219680309295654 383.3181457519531 6.190948486328125 381.7033386230469" stroke-width="0.0" fill="rgb(255, 255, 255)" opacity="0.678748"/>
    <path d="M 542.8507690429688 567.2047729492188 C 540.3873291015625 566.90478515625 540.9469604492188 566.576904296875 541.0768432617188 567.69921875 C 542.561279296875 567.6236572265625 544.3941650390625 565.7725830078125 541.9713745117188 564.6060791015625 C 543.645751953125 563.6800537109375 541.4204711914062 564.5490112304688 539.680419921875 567.008544921875 C 537.1046752929688 566.6068115234375 536.3892822265625 569.462646484375 542.8507690429688 567.2047729492188" stroke-width="0.0" fill="rgb(255, 255, 255)" opacity="0.70210993"/>
    <path d="M 572.5167846679688 529.671875 C 574.1047973632812 528.6217041015625 573.7587890625 527.9269409179688 571.6371459960938 530.8109130859375 C 569.5216064453125 532.8543701171875 572.4291381835938 534.0948486328125 575.194580078125 534.2705688476562 C 574.3740844726562 535.85693359375 575.36962890625 536.5330810546875 577.7951049804688 535.7640991210938 C 578.3095092773438 538.6422729492188 577.0884399414062 537.3594970703125 572.5167846679688 529.671875" stroke-width="0.0" fill="rgb(255, 255, 255)" opacity="0.6238161"/>
    <path d="M 525.1580200195312 563.5122680664062 C 525.9286499023438 563.8689575195312 524.687744140625 563.2427368164062 526.3594970703125 563.8458862304688 C 524.41455078125 563.0046997070312 525.296630859375 564.1400756835938 523.3977661132812 565.0464477539062 C 524.47802734375 564.2727661132812 526.1600952148438 562.7020874023438 525.3668823242188 562.9013061523438 C 527.404541015625 564.161865234375 525.16748046875 562.4074096679688 525.1580200195312 563.5122680664062" stroke-width="0.0" fill="rgb(255, 255, 255)" opacity="0.8759882"/>
    <path d="M 14.353118896484375 394.126953125 C 17.136314392089844 392.9775390625 15.815713882446289 392.93511962890625 13.624100685119629 395.06158447265625 C 11.554030418395996 397.45867919921875 9.330409049987793 395.6833801269531 12.972583770751953 393.68902587890625 C 15.064547538757324 395.0342102050781 16.03717613220215 393.36322021484375 16.975202560424805 393.4237365722656 C 17.91718292236328 392.1644592285156 16.12236976623535 394.41839599609375 14.353118896484375 394.126953125" stroke-width="0.0" fill="rgb(255, 255, 255)" opacity="0.6988878"/>
    <path d="M 590.5338745117188 584.1630249023438 C 592.1786499023438 582.3036499023438 589.4575805664062 581.148193359375 587.5198364257812 579.336669921875 C 587.0778198242188 579.3948364257812 586.954833984375 578.465087890625 586.4755859375 576.6432495117188 C 586.9564819335938 575.6760864257812 587.3969116210938 575.6773071289062 587.206787109375 575.1322021484375 C 586.5013427734375 577.47998046875 585.2236938476562 575.9397583007812 590.5338745117188 584.1630249023438" stroke-width="0.0" fill="rgb(255, 255, 255)" opacity="0.6639332"/>
    <path d="M 579.7335815429688 357.0995788574219 C 580.4322509765625 358.44207763671875 583.192626953125 360.1351623535156 584.75732421875 361.27789306640625 C 585.0399780273438 360.7880554199219 586.0189208984375 363.540771484375 582.9491577148438 363.1949768066406 C 580.7470092773438 362.0086364746094 581.5068969726562 360.9722595214844 580.3880615234375 360.63519287109375 C 582.1276245117188 358.3189392089844 583.2114868164062 356.41162109375 579.7335815429688 357.0995788574219" stroke-width="0.0" fill="rgb(255, 255, 255)" opacity="0.7009533"/>
    <path d="M 529.2706298828125 566.1659545898438 C 529.0881958007812 568.512939453125 530.8677368164062 569.8870849609375 530.549072265625 571.0929565429688 C 530.5450439453125 570.5671997070312 530.7537841796875 568.6222534179688 530.621337890625 570.2836303710938 C 532.2269897460938 571.6388549804688 534.1152954101562 572.5721435546875 534.297607421875 572.6900634765625 C 531.6572875976562 571.2039794921875 529.6009521484375 570.6896362304688 529.2706298828125 566.1659545898438" stroke-width="0.0" fill="rgb(255, 255, 255)" opacity="0.81705993"/>
    <path d="M 30.726383209228516 43.93315124511719 C 30.14266014099121 45.023109436035156 31.706689834594727 42.52281951904297 30.757780075073242 43.074344635009766 C 33.4749870300293 42.90937805175781 32.48363494873047 43.242584228515625 33.88469314575195 42.85544204711914 C 34.17314147949219 44.69957733154297 34.43711471557617 43.043785095214844 33.7608642578125 44.12153625488281 C 35.52165222167969 43.899845123291016 33.806373596191406 44.12805938720703 30.726383209228516 43.93315124511719" stroke-width="0.0" fill="rgb(255, 255, 255)" opacity="0.82975423"/>
    <path d="M 594.0512084960938 485.068603515625 C 593.5166625976562 484.6355895996094 594.9758911132812 482.6232604980469 595.1804809570312 481.9865417480469 C 592.8187866210938 482.1511535644531 593.6830444335938 481.427734375 592.17236328125 483.72900390625 C 592.8374633789062 482.3290100097656 592.5369262695312 482.4679260253906 595.0836791992188 483.85272216796875 C 593.1638793945312 483.5069580078125 591.7108764648438 484.8393859863281 594.0512084960938 485.068603515625" stroke-width="0.0" fill="rgb(255, 255, 255)" opacity="0.7513635"/>
    <path d="M 294.801513671875 593.4913330078125 C 295.31390380859375 590.825927734375 296.2142333984375 590.3268432617188 295.35711669921875 589.6458740234375 C 294.8075256347656 590.85205078125 294.6181335449219 589.2611694335938 294.85015869140625 590.7710571289062 C 294.71026611328125 589.312255859375 295.7727966308594 587.7908325195312 295.9910888671875 589.8102416992188 C 296.5747375488281 588.4099731445312 296.33038330078125 587.8477172851562 294.801513671875 593.4913330078125" stroke-width="0.0" fill="rgb(255, 255, 255)" opacity="0.7869139"/>
    <path d="M 273.4964599609375 591.725830078125 C 272.64154052734375 592.3598022460938 274.3333435058594 591.9842529296875 272.7274169921875 590.519775390625 C 273.5354919433594 592.9955444335938 273.82794189453125 591.6287231445312 271.7055969238281 590.5180053710938 C 273.20147705078125 587.2850341796875 273.75091552734375 586.2914428710938 271.4097900390625 585.7118530273438 C 270.3441467285156 584.9345703125 271.52783203125 584.6878051757812 273.4964599609375 591.725830078125" stroke-width="0.0" fill="rgb(255, 255, 255)" opacity="0.68628424"/>
    <path d="M 555.40380859375 478.92352294921875 C 553.2593383789062 478.82183837890625 554.1429443359375 479.75701904296875 555.2937622070312 478.9793701171875 C 554.7513427734375 478.7845764160156 555.280517578125 481.2364196777344 554.927734375 482.0436706542969 C 552.5069580078125 481.6402587890625 555.16552734375 480.45947265625 553.6809692382812 479.3622741699219 C 551.171875 478.8666687011719 553.1320190429688 480.08099365234375 555.40380859375 478.92352294921875" stroke-width="0.0" fill="rgb(255, 255, 255)" opacity="0.76918596"/>
    <path d="M 575.20361328125 398.0274658203125 C 573.1339111328125 399.1364440917969 575.5392456054688 398.1005859375 576.259033203125 396.4915771484375 C 575.3966674804688 398.4499206542969 573.8545532226562 398.0042419433594 575.7042846679688 396.947021484375 C 577.0012817382812 396.58807373046875 575.089599609375 398.8945007324219 576.2705078125 397.042724609375 C 577.5147705078125 396.570068359375 577.3453369140625 398.766845703125 575.20361328125 398.0274658203125" stroke-width="0.0" fill="rgb(255, 255, 255)" opacity="0.81285846"/>
    <path d="M 558.1026000976562 470.61407470703125 C 557.8207397460938 469.2431640625 558.8800659179688 469.90838623046875 560.276611328125 469.8945617675781 C 558.970458984375 466.9707336425781 561.6143798828125 467.6824645996094 561.5770874023438 469.29913330078125 C 562.7145385742188 466.8898620605469 561.9984130859375 466.9388427734375 559.3130493164062 467.04107666015625 C 557.6395874023438 465.6042785644531 560.4765014648438 466.72039794921875 558.1026000976562 470.61407470703125" stroke-width="0.0" fill="rgb(255, 255, 255)" opacity="0.7282549"/>
    <path d="M 24.38470458984375 68.01577758789062 C 2.6330015659332275 61.335426330566406 6.4906206130981445 53.749366760253906 6.608612537384033 53.189449310302734 C -6.58027458190918 50.073280334472656 -6.4106974601745605 55.40387725830078 -3.9189181327819824 66.21875762939453 C -2.028975486755371 68.96283721923828 -2.8734819889068604 68.50220489501953 -8.020698547363281 72.23501586914062 C 9.31769847869873 74.62423706054688 10.85390567779541 71.73646545410156 24.38470458984375 68.01577758789062" stroke-width="0.0" fill="rgb(0, 0, 0)" opacity="0.97864795"/>
    <path d="M 566.7433471679688 543.4149780273438 C 568.2531127929688 546.4077758789062 568.7449340820312 545.0224609375 567.4622802734375 545.0850219726562 C 566.0830078125 542.7398681640625 567.5101928710938 540.2608642578125 567.2191772460938 537.8502807617188 C 565.80078125 535.8707885742188 565.7363891601562 537.6736450195312 566.2717895507812 538.1116943359375 C 567.6854248046875 537.8348999023438 567.5657958984375 535.5591430664062 566.7433471679688 543.4149780273438" stroke-width="0.0" fill="rgb(255, 255, 255)" opacity="0.747217"/>
    <path d="M 42.78388595581055 590.5394897460938 C 44.72786331176758 591.1643676757812 45.535614013671875 591.6243286132812 47.70282745361328 592.578857421875 C 48.402767181396484 595.1472778320312 50.63566207885742 595.7865600585938 51.211708068847656 594.5355224609375 C 50.62725067138672 594.7379150390625 50.928829193115234 594.3379516601562 52.289817810058594 594.9470825195312 C 53.76337432861328 596.7633056640625 53.91905212402344 595.050537109375 42.78388595581055 590.5394897460938" stroke-width="0.0" fill="rgb(255, 255, 255)" opacity="0.7009201"/>
    <path d="M 3.238492488861084 336.84771728515625 C 2.007645845413208 338.07257080078125 3.7172183990478516 338.6795349121094 6.60854434967041 336.95306396484375 C 5.990771770477295 338.1458435058594 4.010021209716797 338.2359313964844 4.830698490142822 337.7734375 C 7.624772071838379 337.252685546875 7.19809103012085 336.9587097167969 4.814767837524414 337.6767578125 C 5.495711326599121 337.81512451171875 7.765804290771484 337.12884521484375 3.238492488861084 336.84771728515625" stroke-width="0.0" fill="rgb(255, 255, 255)" opacity="0.740666"/>
    <path d="M 11.708502769470215 430.7303161621094 C 12.104459762573242 429.588623046875 12.391624450683594 430.51348876953125 11.863572120666504 430.4596252441406 C 13.659358024597168 428.9201965332031 15.21399974822998 426.7752990722656 16.465227127075195 424.8505859375 C 16.823999404907227 423.9324645996094 16.65608024597168 425.04681396484375 17.053953170776367 423.7102966308594 C 17.740676879882812 421.8179626464844 17.836830139160156 424.2266845703125 11.708502769470215 430.7303161621094" stroke-width="0.0" fill="rgb(255, 255, 255)" opacity="0.78148"/>
    <path d="M 582.1871337890625 395.2159729003906 C 584.354736328125 395.6015930175781 584.2979736328125 393.3735046386719 583.7144165039062 391.9619140625 C 582.8057250976562 392.3647766113281 583.1082153320312 389.6822814941406 581.1798706054688 388.7588195800781 C 580.563232421875 389.7061462402344 581.2545166015625 391.6365966796875 580.900390625 391.8939208984375 C 580.296630859375 391.5618591308594 578.3472900390625 393.46527099609375 582.1871337890625 395.2159729003906" stroke-width="0.0" fill="rgb(255, 255, 255)" opacity="0.6815529"/>
    <path d="M 357.3901062011719 570.1344604492188 C 356.3939514160156 568.0055541992188 352.9523010253906 568.6731567382812 351.82635498046875 570.8082885742188 C 349.994384765625 572.23583984375 348.8159484863281 573.3200073242188 351.4126892089844 574.526611328125 C 351.78887939453125 573.399658203125 351.0940856933594 574.3087158203125 350.9917297363281 575.9121704101562 C 350.8544616699219 576.9103393554688 351.4355163574219 576.1571044921875 357.3901062011719 570.1344604492188" stroke-width="0.0" fill="rgb(255, 255, 255)" opacity="0.6341222"/>
    <path d="M 591.3671875 368.2222595214844 C 590.9574584960938 368.1174011230469 589.1538696289062 368.90252685546875 590.6395874023438 368.7433166503906 C 588.0687866210938 368.1912841796875 584.9945678710938 370.0083923339844 588.038818359375 369.9463195800781 C 587.6571655273438 367.8370361328125 588.7691650390625 365.4678649902344 586.7490844726562 367.662841796875 C 584.8270874023438 369.3320617675781 585.9749755859375 369.43035888671875 591.3671875 368.2222595214844" stroke-width="0.0" fill="rgb(255, 255, 255)" opacity="0.70666784"/>
    <path d="M 593.5279541015625 460.2666931152344 C 593.2112426757812 459.2688903808594 590.98681640625 461.4978942871094 590.5707397460938 460.98809814453125 C 593.9666748046875 460.2001647949219 592.5145874023438 458.9559631347656 593.1740112304688 460.04815673828125 C 594.3284301757812 460.90185546875 594.8779907226562 461.4908752441406 594.4202270507812 461.2508850097656 C 595.7172241210938 461.8124694824219 595.4453125 461.9753112792969 593.5279541015625 460.2666931152344" stroke-width="0.0" fill="rgb(255, 255, 255)" opacity="0.7889613"/>
    <path d="M 0.8755029439926147 364.9617004394531 C 1.4821619987487793 366.1070251464844 0.6623461842536926 364.3622741699219 1.3126184940338135 366.2328796386719 C 0.5306239128112793 367.0594482421875 2.407802104949951 368.2305908203125 1.4050400257110596 367.1307373046875 C 0.9430081248283386 368.95013427734375 1.7082982063293457 368.1370544433594 1.1372952461242676 365.778076171875 C 2.607933282852173 368.5323181152344 2.8832285404205322 370.1275634765625 0.8755029439926147 364.9617004394531" stroke-width="0.0" fill="rgb(255, 255, 255)" opacity="0.83866787"/>
    <path d="M 580.6159057617188 376.5111999511719 C 581.9189453125 375.9903869628906 580.3865356445312 376.6730041503906 581.259033203125 377.8438415527344 C 583.3785400390625 378.4969787597656 583.760986328125 377.0399169921875 582.2193603515625 376.8660888671875 C 582.1298828125 376.6664733886719 581.650634765625 375.364990234375 582.0077514648438 375.7666931152344 C 583.5423583984375 374.2624816894531 585.1160888671875 373.7240905761719 580.6159057617188 376.5111999511719" stroke-width="0.0" fill="rgb(255, 255, 255)" opacity="0.75681734"/>
    <path d="M 597.7254028320312 349.6217346191406 C 600.0938110351562 348.1181945800781 598.433349609375 345.66070556640625 599.204833984375 344.145263671875 C 601.8919677734375 342.7926940917969 603.8748779296875 344.8710021972656 601.467041015625 343.1817321777344 C 602.21484375 344.09967041015625 602.19140625 345.8607482910156 602.4458618164062 345.1335754394531 C 603.08203125 343.61810302734375 604.9972534179688 342.7679443359375 597.7254028320312 349.6217346191406" stroke-width="0.0" fill="rgb(255, 255, 255)" opacity="0.82908094"/>
    <path d="M 598.293212890625 346.355712890625 C 599.101806640625 346.7878112792969 598.1817016601562 346.3202209472656 597.7647094726562 345.9840087890625 C 599.16845703125 345.8942565917969 600.8085327148438 345.8214416503906 599.4102783203125 344.3096008300781 C 596.7545776367188 344.5278015136719 598.0846557617188 344.01123046875 601.400634765625 344.95574951171875 C 599.8065795898438 346.6251525878906 597.3675537109375 347.9528503417969 598.293212890625 346.355712890625" stroke-width="0.0" fill="rgb(255, 255, 255)" opacity="0.8363082"/>
    <path d="M 39.95038986206055 587.2216796875 C 40.04184341430664 586.0735473632812 40.3668212890625 585.295166015625 39.85240936279297 586.8209228515625 C 41.95005416870117 588.5896606445312 40.41322708129883 590.2158813476562 40.808040618896484 589.782958984375 C 38.635257720947266 590.936279296875 40.7639274597168 591.2791137695312 42.21548080444336 591.0780639648438 C 43.8277702331543 591.0982666015625 43.698951721191406 588.9788208007812 39.95038986206055 587.2216796875" stroke-width="0.0" fill="rgb(255, 255, 255)" opacity="0.7156472"/>
    <path d="M 24.94362449645996 57.22037124633789 C 23.73365592956543 57.40610122680664 23.116031646728516 57.81691360473633 7.963655471801758 59.160213470458984 C 9.599688529968262 52.43865966796875 11.56965160369873 47.35232925415039 40.19698715209961 48.587974548339844 C 42.47270965576172 47.92338943481445 42.21471405029297 58.463226318359375 39.72764587402344 58.29153823852539 C 19.8709774017334 56.22932052612305 21.672937393188477 58.23517990112305 24.94362449645996 57.22037124633789" stroke-width="0.0" fill="rgb(0, 0, 0)" opacity="0.97238314"/>
    <path d="M 531.8916015625 584.5663452148438 C 531.8604736328125 583.396240234375 532.1268310546875 584.860595703125 532.0296630859375 586.8729858398438 C 533.4949340820312 587.3507080078125 532.3368530273438 586.9017333984375 534.6065673828125 589.197265625 C 533.4805297851562 589.5521240234375 535.5755004882812 588.3935546875 536.9268188476562 589.3956909179688 C 538.624267578125 591.787353515625 540.9172973632812 592.9935302734375 531.8916015625 584.5663452148438" stroke-width="0.0" fill="rgb(255, 255, 255)" opacity="0.69271326"/>
    <path d="M 311.5386962890625 591.1776123046875 C 313.9305419921875 592.7847290039062 312.7784118652344 594.671875 311.563232421875 595.7181396484375 C 310.2247009277344 593.4733276367188 310.8987121582031 594.17724609375 308.09442138671875 593.95751953125 C 306.6333923339844 590.866943359375 304.7667541503906 592.3661499023438 302.11724853515625 591.9486083984375 C 301.15496826171875 589.9981689453125 301.98931884765625 588.684814453125 311.5386962890625 591.1776123046875" stroke-width="0.0" fill="rgb(255, 255, 255)" opacity="0.6556752"/>
    <path d="M 75.47927856445312 591.6500244140625 C 77.98101806640625 594.3037719726562 76.81092071533203 593.0420532226562 79.39049530029297 591.3842163085938 C 76.49967193603516 589.7911987304688 77.04839324951172 592.2028198242188 76.89867401123047 593.4396362304688 C 76.51216888427734 592.309814453125 78.56536865234375 595.03759765625 79.00407409667969 594.8999633789062 C 78.18327331542969 595.0037841796875 80.91663360595703 596.8325805664062 75.47927856445312 591.6500244140625" stroke-width="0.0" fill="rgb(255, 255, 255)" opacity="0.7139751"/>
    <path d="M 558.3707885742188 565.6251220703125 C 558.2339477539062 564.2213745117188 558.4173583984375 565.5718994140625 557.7416381835938 564.9866333007812 C 555.9998779296875 564.9691162109375 557.8208618164062 562.863037109375 556.3143310546875 562.50390625 C 558.9146728515625 563.7529907226562 560.999267578125 562.8463134765625 559.6953125 561.933837890625 C 559.510009765625 562.1985473632812 556.8306884765625 564.192138671875 558.3707885742188 565.6251220703125" stroke-width="0.0" fill="rgb(255, 255, 255)" opacity="0.74041194"/>
    <path d="M 565.4205322265625 364.0916748046875 C 564.1965942382812 363.2537536621094 564.5770263671875 361.9974670410156 562.7684326171875 361.801513671875 C 560.869384765625 363.5487976074219 562.3180541992188 364.3491516113281 563.6344604492188 364.09393310546875 C 563.7937622070312 363.0090026855469 562.2701416015625 364.22088623046875 563.9251708984375 362.9096374511719 C 563.1370849609375 363.2587890625 562.77197265625 364.3800354003906 565.4205322265625 364.0916748046875" stroke-width="0.0" fill="rgb(255, 255, 255)" opacity="0.7370408"/>
    <path d="M 587.0964965820312 371.91131591796875 C 588.2937622070312 371.9709167480469 589.8179321289062 374.05126953125 588.779052734375 376.8298645019531 C 589.6265258789062 375.9773254394531 588.6385498046875 377.25103759765625 589.6246948242188 376.2367858886719 C 587.53271484375 377.9889831542969 588.9326782226562 376.728515625 586.7710571289062 375.29168701171875 C 587.3884887695312 374.1998291015625 586.822509765625 372.00482177734375 587.0964965820312 371.91131591796875" stroke-width="0.0" fill="rgb(255, 255, 255)" opacity="0.71453434"/>
    <path d="M 502.5741882324219 595.7613525390625 C 502.5508728027344 595.5556640625 501.0339660644531 596.286865234375 502.4204406738281 595.7950439453125 C 501.2984924316406 595.2283325195312 500.1529846191406 594.8663330078125 501.5679931640625 595.4866333007812 C 502.35894775390625 594.9962768554688 500.3666687011719 595.6943359375 502.68402099609375 595.669677734375 C 501.2347412109375 597.4464111328125 502.6308288574219 595.8901977539062 502.5741882324219 595.7613525390625" stroke-width="0.0" fill="rgb(255, 255, 255)" opacity="0.8072022"/>
    <path d="M 559.5140380859375 399.88323974609375 C 560.5424194335938 396.8253173828125 561.2052001953125 397.42706298828125 563.3590087890625 399.90582275390625 C 565.0081176757812 398.914306640625 563.8506469726562 400.1568298339844 561.4136962890625 400.0143127441406 C 560.6333618164062 399.734375 558.232666015625 400.1810302734375 556.940673828125 399.3528137207031 C 557.100830078125 398.4959411621094 555.03515625 398.0826110839844 559.5140380859375 399.88323974609375" stroke-width="0.0" fill="rgb(255, 255, 255)" opacity="0.7759772"/>
    <path d="M 579.3910522460938 372.860107421875 C 581.32666015625 374.3959655761719 579.3111572265625 375.6999816894531 578.1089477539062 374.7723083496094 C 577.881103515625 374.12213134765625 577.8712768554688 372.2768249511719 577.9619750976562 372.9929504394531 C 578.9202270507812 372.6819763183594 578.265380859375 372.78564453125 577.7299194335938 373.17474365234375 C 579.8076782226562 372.58599853515625 577.8011474609375 373.5755310058594 579.3910522460938 372.860107421875" stroke-width="0.0" fill="rgb(255, 255, 255)" opacity="0.78113234"/>
    <path d="M 361.3176574707031 571.4961547851562 C 360.38641357421875 572.4940185546875 358.06475830078125 572.61181640625 359.3925476074219 575.1492309570312 C 358.4761047363281 574.9042358398438 357.5675354003906 574.8732299804688 358.0519104003906 576.1135864257812 C 357.1712951660156 577.118408203125 359.326416015625 579.2537231445312 361.3250732421875 580.2551879882812 C 362.3051452636719 581.171630859375 359.9765930175781 579.8666381835938 361.3176574707031 571.4961547851562" stroke-width="0.0" fill="rgb(255, 255, 255)" opacity="0.6457082"/>
    <path d="M -1.1794862747192383 42.82857894897461 C 0.3804663121700287 42.05353927612305 -0.4147878885269165 42.74723434448242 -2.119352340698242 42.515785217285156 C -3.263126850128174 41.9582405090332 -0.7434074878692627 40.365943908691406 0.5296688079833984 41.9118766784668 C -0.30512407422065735 40.961490631103516 -0.06894160062074661 40.444580078125 0.33880096673965454 41.28942108154297 C -0.3764893412590027 43.15153121948242 -0.3468790650367737 44.47935104370117 -1.1794862747192383 42.82857894897461" stroke-width="0.0" fill="rgb(255, 255, 255)" opacity="0.84222275"/>
    <path d="M 568.7958984375 447.6700439453125 C 566.0316162109375 449.5336608886719 567.9155883789062 451.7238464355469 565.5465087890625 450.9827575683594 C 563.6503295898438 451.9252014160156 564.2793579101562 451.4599304199219 565.464599609375 450.99871826171875 C 566.6878662109375 451.42340087890625 568.5374755859375 449.8830261230469 566.696533203125 450.7215576171875 C 568.7176513671875 448.7268371582031 569.520751953125 450.4869689941406 568.7958984375 447.6700439453125" stroke-width="0.0" fill="rgb(255, 255, 255)" opacity="0.7922382"/>
    <path d="M 370.99639892578125 579.8060913085938 C 369.24505615234375 581.2247924804688 366.6180114746094 583.2456665039062 368.6231689453125 584.2349243164062 C 369.52685546875 581.7591552734375 371.9758605957031 582.812744140625 372.3902893066406 584.0689697265625 C 375.41827392578125 583.739013671875 373.69378662109375 584.8206176757812 375.595947265625 583.076416015625 C 377.15155029296875 582.9968872070312 374.8904724121094 580.3521118164062 370.99639892578125 579.8060913085938" stroke-width="0.0" fill="rgb(255, 255, 255)" opacity="0.64090157"/>
    <path d="M 22.213891983032227 376.9452819824219 C 20.869413375854492 374.7254638671875 23.688467025756836 377.6139831542969 25.345504760742188 374.25787353515625 C 24.523096084594727 373.7972106933594 25.820653915405273 374.7068176269531 28.08102798461914 373.7236328125 C 28.25719451904297 373.1685485839844 28.62601661682129 374.74884033203125 27.885509490966797 373.6858825683594 C 30.445405960083008 374.2571716308594 29.014638900756836 375.503662109375 22.213891983032227 376.9452819824219" stroke-width="0.0" fill="rgb(255, 255, 255)" opacity="0.69321287"/>
    <path d="M 48.0358772277832 596.01416015625 C 47.62090301513672 598.0116577148438 49.56126022338867 596.3775634765625 48.402931213378906 597.4044799804688 C 49.016056060791016 595.9198608398438 50.867950439453125 595.012451171875 51.68964385986328 595.4440307617188 C 52.79619598388672 595.3502807617188 52.458553314208984 595.258056640625 49.911190032958984 595.6141357421875 C 49.9648551940918 596.9389038085938 51.640647888183594 595.871337890625 48.0358772277832 596.01416015625" stroke-width="0.0" fill="rgb(255, 255, 255)" opacity="0.81578404"/>
    <path d="M 574.617919921875 553.7062377929688 C 576.0764770507812 552.18505859375 576.1705932617188 551.311279296875 576.2875366210938 552.7216186523438 C 575.1571655273438 550.682373046875 574.047607421875 549.7432250976562 573.1768188476562 548.7896118164062 C 574.7872314453125 550.2479248046875 575.478271484375 551.6556396484375 576.6649169921875 552.9994506835938 C 575.6580810546875 551.2924194335938 575.0386352539062 553.6318359375 574.617919921875 553.7062377929688" stroke-width="0.0" fill="rgb(255, 255, 255)" opacity="0.7913615"/>
    <path d="M 555.5542602539062 553.1640625 C 559.240478515625 552.6790161132812 557.5980224609375 553.9557495117188 556.8158569335938 552.5521240234375 C 554.8056030273438 549.689453125 554.0716552734375 551.0191650390625 555.00537109375 549.993408203125 C 554.258056640625 547.724609375 552.1932983398438 547.7177124023438 551.6514282226562 547.8861694335938 C 549.4031982421875 547.7146606445312 547.5142211914062 549.5619506835938 555.5542602539062 553.1640625" stroke-width="0.0" fill="rgb(255, 255, 255)" opacity="0.6468662"/>
    <path d="M 503.12274169921875 584.1635131835938 C 502.727783203125 582.4758911132812 503.2637634277344 580.8290405273438 502.8514404296875 579.41259765625 C 504.014892578125 581.1689453125 506.41436767578125 581.1387939453125 504.6188659667969 582.0438842773438 C 505.0526123046875 582.8920288085938 504.3746032714844 581.6455078125 507.0179443359375 579.4793090820312 C 507.03582763671875 581.3792114257812 507.8414611816406 584.4189453125 503.12274169921875 584.1635131835938" stroke-width="0.0" fill="rgb(255, 255, 255)" opacity="0.68170977"/>
    <path d="M 16.899629592895508 318.7541809082031 C 16.654205322265625 316.9668884277344 17.043949127197266 316.93048095703125 16.902563095092773 318.4213562011719 C 18.536235809326172 319.61065673828125 18.46188735961914 321.72314453125 21.207191467285156 318.1978454589844 C 21.352313995361328 317.8860778808594 18.959903717041016 317.8203430175781 19.973278045654297 318.48193359375 C 20.378738403320312 319.09112548828125 18.219125747680664 319.10992431640625 16.899629592895508 318.7541809082031" stroke-width="0.0" fill="rgb(255, 255, 255)" opacity="0.7370419"/>
    <path d="M 585.0186767578125 408.4288330078125 C 584.7847900390625 409.4417724609375 584.7772827148438 410.3565673828125 584.506591796875 411.6741027832031 C 584.3533935546875 412.1655578613281 585.7299194335938 412.2927551269531 584.9131469726562 415.3978271484375 C 585.0316162109375 414.1860656738281 585.1511840820312 416.4939270019531 585.1864624023438 416.1063232421875 C 582.891845703125 415.5951232910156 584.1519775390625 417.20489501953125 585.0186767578125 408.4288330078125" stroke-width="0.0" fill="rgb(255, 255, 255)" opacity="0.68876463"/>
    <path d="M 591.1616821289062 351.878173828125 C 589.3335571289062 350.0387268066406 587.9354248046875 350.5576171875 587.6140747070312 351.8971862792969 C 587.8531494140625 349.7701721191406 589.2105712890625 349.2054138183594 589.089111328125 349.8166198730469 C 588.55322265625 349.9590759277344 587.4901733398438 349.66510009765625 586.1188354492188 347.89111328125 C 586.8500366210938 348.2231140136719 585.6754760742188 348.15252685546875 591.1616821289062 351.878173828125" stroke-width="0.0" fill="rgb(255, 255, 255)" opacity="0.7460956"/>
    <path d="M 78.7997817993164 586.6587524414062 C 79.14896392822266 586.3098754882812 80.9139633178711 585.3975830078125 79.30648040771484 586.3882446289062 C 79.74618530273438 586.6571044921875 77.13648223876953 586.1826171875 76.56421661376953 585.80517578125 C 76.57660675048828 585.9884643554688 76.32279968261719 585.9683837890625 75.16116333007812 586.0332641601562 C 74.15377807617188 586.45751953125 76.02377319335938 585.5204467773438 78.7997817993164 586.6587524414062" stroke-width="0.0" fill="rgb(255, 255, 255)" opacity="0.7767735"/>
    <path d="M 499.9291687011719 557.4450073242188 C 502.1214599609375 554.8963623046875 503.9068603515625 555.5447387695312 502.80853271484375 558.4464111328125 C 504.69500732421875 559.9567260742188 504.4617919921875 561.4202270507812 505.521484375 558.4986572265625 C 506.2780456542969 560.6005249023438 507.3809509277344 561.4092407226562 506.1534118652344 559.9066162109375 C 506.0150146484375 563.52490234375 504.9455261230469 562.7620849609375 499.9291687011719 557.4450073242188" stroke-width="0.0" fill="rgb(255, 255, 255)" opacity="0.6439881"/>
    <path d="M 301.5453186035156 593.5381469726562 C 299.3174133300781 592.82666015625 299.6740417480469 591.65380859375 300.5568542480469 592.0139770507812 C 302.26953125 593.6928100585938 303.20257568359375 594.9446411132812 303.2911071777344 594.9306030273438 C 302.2951965332031 597.5133056640625 301.57354736328125 595.106201171875 303.6440734863281 597.6957397460938 C 302.8424072265625 596.333251953125 303.0626525878906 598.2061767578125 301.5453186035156 593.5381469726562" stroke-width="0.0" fill="rgb(255, 255, 255)" opacity="0.7149881"/>
    <path d="M 582.1143798828125 539.9306640625 C 583.3407592773438 538.0055541992188 583.485595703125 536.2764892578125 583.4934692382812 536.9276733398438 C 582.0444946289062 536.9075927734375 583.2548828125 535.376220703125 583.5769653320312 536.0527954101562 C 584.5972290039062 535.4706420898438 584.4258422851562 536.8302001953125 584.26318359375 535.9420166015625 C 584.900390625 535.33837890625 583.8033447265625 536.135009765625 582.1143798828125 539.9306640625" stroke-width="0.0" fill="rgb(255, 255, 255)" opacity="0.77766055"/>
    <path d="M 566.33056640625 561.1786499023438 C 566.9716796875 560.483154296875 568.271728515625 559.9100952148438 569.6390991210938 557.5831909179688 C 571.2128295898438 559.3590087890625 573.8496704101562 561.031005859375 575.9514770507812 562.4075317382812 C 573.8026123046875 561.1788330078125 574.348388671875 561.25537109375 576.3848876953125 559.2638549804688 C 574.3596801757812 558.0570068359375 571.4695434570312 556.2579345703125 566.33056640625 561.1786499023438" stroke-width="0.0" fill="rgb(255, 255, 255)" opacity="0.64428145"/>
    <path d="M 569.4281005859375 582.8458862304688 C 567.5215454101562 582.7271728515625 565.6119384765625 581.4122924804688 564.6105346679688 584.3489379882812 C 563.5184936523438 583.06982421875 564.4700317382812 582.74951171875 562.5145263671875 583.0938720703125 C 561.4251708984375 582.3878784179688 563.0202026367188 583.8997802734375 561.876953125 582.1673583984375 C 562.0221557617188 582.3912963867188 562.0917358398438 581.2127075195312 569.4281005859375 582.8458862304688" stroke-width="0.0" fill="rgb(255, 255, 255)" opacity="0.7383022"/>
    <path d="M 594.9020385742188 582.9747314453125 C 596.3770141601562 584.8440551757812 596.6123657226562 584.15380859375 597.2517700195312 585.95947265625 C 596.5309448242188 585.68994140625 597.345947265625 588.1320190429688 596.7186889648438 587.8526611328125 C 598.347412109375 588.5722045898438 598.0769653320312 587.634033203125 597.7857666015625 583.8224487304688 C 596.064208984375 584.4219970703125 597.8826293945312 586.1812133789062 594.9020385742188 582.9747314453125" stroke-width="0.0" fill="rgb(255, 255, 255)" opacity="0.7647444"/>
    <path d="M 598.9968872070312 547.0031127929688 C 601.3492431640625 549.3381958007812 601.7792358398438 551.1038818359375 603.9512939453125 549.694580078125 C 603.0999145507812 548.4500732421875 601.056640625 549.2112426757812 600.5121459960938 550.7808227539062 C 601.480224609375 548.9310302734375 602.317626953125 547.9037475585938 602.7326049804688 548.992431640625 C 602.9224853515625 550.123046875 602.8724975585938 551.5120239257812 598.9968872070312 547.0031127929688" stroke-width="0.0" fill="rgb(255, 254, 255)" opacity="0.9840343"/>
    <path d="M 598.1328125 331.0703125 C 595.966552734375 331.56341552734375 595.875244140625 331.1785888671875 595.0643920898438 333.22601318359375 C 595.37158203125 332.7642517089844 595.3416748046875 331.7210998535156 596.7945556640625 331.3108215332031 C 598.1630859375 331.3434753417969 597.4437255859375 330.8760986328125 598.6112670898438 330.6398620605469 C 597.2257690429688 331.38922119140625 595.8345336914062 330.7273864746094 598.1328125 331.0703125" stroke-width="0.0" fill="rgb(255, 255, 255)" opacity="0.8567007"/>
    <path d="M 83.19408416748047 584.88427734375 C 83.08155059814453 585.3589477539062 84.7608871459961 587.5692749023438 85.12214660644531 588.2879028320312 C 87.36051177978516 587.506103515625 85.65596771240234 587.859619140625 86.46725463867188 588.0572509765625 C 84.67332458496094 587.8297119140625 86.12183380126953 589.3173828125 84.94142150878906 588.994384765625 C 87.23069763183594 588.4073486328125 85.43730926513672 590.5377197265625 83.19408416748047 584.88427734375" stroke-width="0.0" fill="rgb(255, 255, 255)" opacity="0.7767983"/>
    <path d="M 5.033592224121094 323.22442626953125 C 3.4675774574279785 324.1513366699219 4.12369441986084 323.51202392578125 6.525512218475342 322.982666015625 C 5.045021057128906 324.1485900878906 6.687426567077637 322.7958984375 8.149621963500977 321.5045471191406 C 6.946527481079102 319.7782287597656 8.675533294677734 318.89044189453125 10.419112205505371 317.2655029296875 C 7.637378692626953 315.9779052734375 10.891671180725098 318.72698974609375 5.033592224121094 323.22442626953125" stroke-width="0.0" fill="rgb(255, 255, 255)" opacity="0.65735465"/>
    <path d="M 2.8933258056640625 471.4141845703125 C 6.13706636428833 469.58648681640625 5.392568588256836 466.2853088378906 3.401327610015869 464.9686584472656 C 2.5654242038726807 466.3941345214844 0.9403228163719177 467.3133239746094 1.7232370376586914 466.58502197265625 C 2.926211357116699 468.28570556640625 1.0216588973999023 469.50775146484375 1.8119734525680542 468.893798828125 C 3.1245033740997314 468.97149658203125 3.2280876636505127 468.7540283203125 2.8933258056640625 471.4141845703125" stroke-width="0.0" fill="rgb(255, 255, 255)" opacity="0.68749577"/>
    <path d="M 597.0267333984375 386.1557312011719 C 599.0389404296875 386.7202453613281 599.2046508789062 386.8565368652344 598.9678344726562 390.1200256347656 C 599.9756469726562 389.25860595703125 602.2349853515625 386.7543640136719 604.4427490234375 387.90057373046875 C 602.9081420898438 385.8145751953125 604.5147705078125 384.39459228515625 604.5640258789062 385.30706787109375 C 604.1679077148438 386.8587951660156 604.7413330078125 388.84649658203125 597.0267333984375 386.1557312011719" stroke-width="0.0" fill="rgb(255, 255, 255)" opacity="0.9054983"/>
    <path d="M 593.0653076171875 363.9486999511719 C 592.6280517578125 366.0194396972656 593.0275268554688 366.3733215332031 595.1923828125 365.7608642578125 C 594.3076171875 362.5234069824219 596.7230834960938 362.1081848144531 598.281494140625 363.6860656738281 C 598.7236938476562 364.4888000488281 600.740478515625 363.87548828125 603.2473754882812 362.0496520996094 C 600.8865356445312 364.4512939453125 600.7259521484375 364.0459899902344 593.0653076171875 363.9486999511719" stroke-width="0.0" fill="rgb(255, 255, 255)" opacity="0.7630293"/>
    <path d="M 20.241596221923828 449.4347839355469 C 19.03150177001953 449.9117736816406 20.791654586791992 448.88201904296875 22.163122177124023 447.1902770996094 C 19.726268768310547 445.6979064941406 20.112329483032227 444.1485900878906 19.879270553588867 441.9844665527344 C 23.28223991394043 441.68414306640625 24.34593963623047 442.5717468261719 23.21847152709961 442.00164794921875 C 23.41647720336914 440.06976318359375 25.07716178894043 437.7073974609375 20.241596221923828 449.4347839355469" stroke-width="0.0" fill="rgb(255, 255, 255)" opacity="0.6532342"/>
    <path d="M 103.37835693359375 597.2858276367188 C 100.7977066040039 597.3963012695312 99.92494201660156 595.5489501953125 99.82078552246094 594.8659057617188 C 100.33116912841797 593.7047729492188 101.98081970214844 592.159423828125 103.95816802978516 593.1734008789062 C 103.05130004882812 593.2778930664062 104.8658218383789 591.9085693359375 105.14505767822266 594.1102905273438 C 106.8027114868164 593.7006225585938 109.239013671875 593.9741821289062 103.37835693359375 597.2858276367188" stroke-width="0.0" fill="rgb(255, 255, 255)" opacity="0.67414683"/>
    <path d="M 565.740234375 396.9096374511719 C 565.2223510742188 397.3962097167969 563.1519775390625 398.091796875 561.3338012695312 399.1135559082031 C 559.5198364257812 399.69317626953125 558.78466796875 398.1032409667969 556.9185180664062 399.72735595703125 C 554.925048828125 400.6490173339844 556.5184326171875 401.5033264160156 555.9746704101562 402.86016845703125 C 556.571044921875 401.96832275390625 554.868408203125 401.9776306152344 565.740234375 396.9096374511719" stroke-width="0.0" fill="rgb(255, 255, 255)" opacity="0.6815633"/>
    <path d="M 575.65087890625 587.8518676757812 C 578.0794677734375 588.4473266601562 578.3785400390625 588.0205688476562 577.8868408203125 585.8106079101562 C 576.0469360351562 586.7568969726562 577.4127807617188 583.9110107421875 576.9085693359375 582.232421875 C 578.8291625976562 581.673095703125 579.523681640625 581.7203369140625 578.6297607421875 584.9107055664062 C 579.1315307617188 585.6537475585938 580.018310546875 582.6900634765625 575.65087890625 587.8518676757812" stroke-width="0.0" fill="rgb(255, 255, 255)" opacity="0.70844406"/>
    <path d="M 556.6190185546875 561.53076171875 C 557.761474609375 563.8269653320312 558.3851928710938 566.2843627929688 557.8153686523438 568.4646606445312 C 556.0489501953125 569.2348022460938 558.4672241210938 567.383056640625 560.5790405273438 568.1843872070312 C 559.1248779296875 567.1936645507812 560.5755615234375 567.6882934570312 560.022705078125 566.176513671875 C 559.0407104492188 565.5043334960938 558.2542724609375 565.9554443359375 556.6190185546875 561.53076171875" stroke-width="0.0" fill="rgb(255, 255, 255)" opacity="0.74214023"/>
  </g>
</svg>
