<?xml version="1.0" ?>
<svg xmlns="http://www.w3.org/2000/svg" version="1.1" width="256" height="256">
  <defs/>
  <g>
    <path d="M 267.9985046386719 215.9962921142578 C 265.9590148925781 223.42642211914062 260.3329772949219 228.6780242919922 253.193359375 231.41099548339844 C 245.49945068359375 228.93177795410156 239.996826171875 223.51954650878906 237.9986114501953 216.00270080566406 C 240.00961303710938 208.5 245.5 203.00961303710938 253.0 201.0 C 260.5 203.00961303710938 265.9903869628906 208.5 267.9985046386719 215.9962921142578" stroke-width="0.0" fill="rgb(254, 254, 254)" opacity="0.9910459"/>
    <path d="M 43.0 198.0 C 40.990379333496094 205.5 35.5 210.99038696289062 28.89018440246582 212.061279296875 C 21.42130470275879 210.0545654296875 15.937179565429688 204.581787109375 13.884257316589355 197.15582275390625 C 15.009618759155273 190.5 20.5 185.00961303710938 28.0 183.0 C 35.5 185.00961303710938 40.990379333496094 190.5 43.0 198.0" stroke-width="0.0" fill="rgb(145, 144, 144)" opacity="0.99001783"/>
    <path d="M 257.0 205.0 C 254.99038696289062 212.5 249.5 217.99038696289062 242.0 220.0 C 234.5 217.99038696289062 229.00961303710938 212.5 227.0 205.0 C 229.00961303710938 197.5 234.5 192.00961303710938 242.0 190.0 C 249.5 192.00961303710938 254.99038696289062 197.5 257.0 205.0" stroke-width="0.0" fill="rgb(134, 134, 134)" opacity="1.0"/>
    <path d="M 250.0 174.0 C 247.99038696289062 181.5 242.5 186.99038696289062 235.0 189.0 C 227.5 186.99038696289062 222.00961303710938 181.5 220.0 174.0 C 222.00961303710938 166.5 227.5 161.00961303710938 235.0 159.0 C 242.5 161.00961303710938 247.99038696289062 166.5 250.0 174.0" stroke-width="0.0" fill="rgb(254, 254, 254)" opacity="1.0"/>
    <path d="M 152.82400512695312 4.080186367034912 C 149.5219268798828 11.092912673950195 144.07350158691406 16.4610652923584 136.70240783691406 19.68403434753418 C 130.22616577148438 16.322999954223633 124.8536376953125 10.715503692626953 122.8180160522461 3.241953134536743 C 124.20479583740234 -3.4398553371429443 129.494873046875 -9.000195503234863 137.00552368164062 -11.006089210510254 C 144.57992553710938 -9.036023139953613 150.16055297851562 -3.6186716556549072 152.82400512695312 4.080186367034912" stroke-width="0.0" fill="rgb(214, 212, 212)" opacity="0.99004847"/>
    <path d="M 75.0 230.0 C 72.9903793334961 237.5 67.5 242.99038696289062 60.0 245.0 C 52.5 242.99038696289062 47.009620666503906 237.5 45.0 230.0 C 47.009620666503906 222.5 52.5 217.00961303710938 60.0 215.0 C 67.5 217.00961303710938 72.9903793334961 222.5 75.0 230.0" stroke-width="0.0" fill="rgb(246, 246, 246)" opacity="1.0"/>
    <path d="M 227.0 38.0 C 224.99038696289062 45.5 219.5 50.990379333496094 212.0 53.0 C 204.5 50.990379333496094 199.00961303710938 45.5 197.0 38.0 C 199.00961303710938 30.5 204.5 25.009618759155273 212.0 23.0 C 219.5 25.009618759155273 224.99038696289062 30.5 227.0 38.0" stroke-width="0.0" fill="rgb(254, 253, 253)" opacity="1.0"/>
    <path d="M 255.0 180.0 C 252.99038696289062 187.5 247.5 192.99038696289062 240.0 195.0 C 232.5 192.99038696289062 227.00961303710938 187.5 225.0 180.0 C 227.00961303710938 172.5 232.5 167.00961303710938 240.0 165.0 C 247.5 167.00961303710938 252.99038696289062 172.5 255.0 180.0" stroke-width="0.0" fill="rgb(254, 255, 254)" opacity="1.0"/>
    <path d="M 221.0 9.0 C 218.99038696289062 16.5 213.5 21.990381240844727 206.0 24.0 C 198.5 21.990381240844727 193.00961303710938 16.5 191.0 9.0 C 193.00961303710938 1.5 198.5 -3.9903810024261475 206.0 -6.0 C 213.5 -3.9903810024261475 218.99038696289062 1.5 221.0 9.0" stroke-width="0.0" fill="rgb(254, 254, 255)" opacity="1.0"/>
    <path d="M 216.0398406982422 197.0672607421875 C 214.02903747558594 204.5619659423828 208.59410095214844 210.13026428222656 201.421875 212.52342224121094 C 194.5 210.99038696289062 189.00961303710938 205.5 187.9777374267578 198.95663452148438 C 189.98133850097656 191.4540252685547 195.43077087402344 185.91253662109375 202.69593811035156 183.63392639160156 C 209.5 185.00961303710938 214.99038696289062 190.5 216.0398406982422 197.0672607421875" stroke-width="0.0" fill="rgb(5, 4, 4)" opacity="0.99002534"/>
    <path d="M 61.0 215.0 C 58.990379333496094 222.5 53.5 227.99038696289062 46.0 230.0 C 38.5 227.99038696289062 33.009620666503906 222.5 31.0 215.0 C 33.009620666503906 207.5 38.5 202.00961303710938 46.0 200.0 C 53.5 202.00961303710938 58.990379333496094 207.5 61.0 215.0" stroke-width="0.0" fill="rgb(187, 187, 187)" opacity="1.0"/>
    <path d="M 247.0 177.0 C 244.99038696289062 184.5 239.5 189.99038696289062 232.0 192.0 C 224.5 189.99038696289062 219.00961303710938 184.5 217.0 177.0 C 219.00961303710938 169.5 224.5 164.00961303710938 232.0 162.0 C 239.5 164.00961303710938 244.99038696289062 169.5 247.0 177.0" stroke-width="0.0" fill="rgb(254, 254, 254)" opacity="1.0"/>
    <path d="M 58.0 235.0 C 55.990379333496094 242.5 50.5 247.99038696289062 43.0 250.0 C 35.5 247.99038696289062 30.009618759155273 242.5 28.0 235.0 C 30.009618759155273 227.5 35.5 222.00961303710938 43.0 220.0 C 50.5 222.00961303710938 55.990379333496094 227.5 58.0 235.0" stroke-width="0.0" fill="rgb(220, 220, 220)" opacity="1.0"/>
    <path d="M 215.0 232.0 C 212.99038696289062 239.5 207.5 244.99038696289062 200.0 247.0 C 192.5 244.99038696289062 187.00961303710938 239.5 185.0 232.0 C 187.00961303710938 224.5 192.5 219.00961303710938 200.0 217.0 C 207.5 219.00961303710938 212.99038696289062 224.5 215.0 232.0" stroke-width="0.0" fill="rgb(255, 255, 255)" opacity="1.0"/>
    <path d="M 181.0 226.0 C 178.99038696289062 233.5 173.5 238.99038696289062 166.0 241.0 C 158.5 238.99038696289062 153.00961303710938 233.5 150.99342346191406 225.98605346679688 C 152.92193603515625 218.32882690429688 158.17967224121094 212.50538635253906 165.5623779296875 210.37240600585938 C 173.5 213.00961303710938 178.99038696289062 218.5 181.0 226.0" stroke-width="0.0" fill="rgb(255, 255, 255)" opacity="0.9930461"/>
    <path d="M 210.3597869873047 216.86245727539062 C 207.99061584472656 224.50006103515625 202.5 229.99038696289062 195.0 232.0 C 187.5 229.99038696289062 182.00961303710938 224.5 180.0 217.0 C 182.00961303710938 209.5 187.5 204.00961303710938 195.0000762939453 201.99996948242188 C 202.5042266845703 204.00823974609375 208.0656280517578 209.47445678710938 210.3597869873047 216.86245727539062" stroke-width="0.0" fill="rgb(255, 255, 255)" opacity="0.9986641"/>
    <path d="M 68.0 242.0 C 65.9903793334961 249.5 60.5 254.99038696289062 53.0 257.0 C 45.5 254.99038696289062 40.009620666503906 249.5 38.0 242.0 C 40.009620666503906 234.5 45.5 229.00961303710938 53.0 227.0 C 60.5 229.00961303710938 65.9903793334961 234.5 68.0 242.0" stroke-width="0.0" fill="rgb(150, 149, 148)" opacity="1.0"/>
    <path d="M 64.0 242.0 C 61.990379333496094 249.5 56.5 254.99038696289062 49.0 257.0 C 41.5 254.99038696289062 36.009620666503906 249.5 34.0 242.0 C 36.009620666503906 234.5 41.5 229.00961303710938 49.0 227.0 C 56.5 229.00961303710938 61.990379333496094 234.5 64.0 242.0" stroke-width="0.0" fill="rgb(205, 205, 205)" opacity="1.0"/>
    <path d="M 70.36510467529297 214.52728271484375 C 69.03058624267578 221.51190185546875 63.500770568847656 226.99061584472656 56.000003814697266 229.0 C 48.5 226.99038696289062 43.009620666503906 221.5 41.0 214.0 C 43.009620666503906 206.5 48.5 201.00961303710938 55.592674255371094 199.49020385742188 C 63.02377700805664 201.60447692871094 68.66645812988281 206.87449645996094 70.36510467529297 214.52728271484375" stroke-width="0.0" fill="rgb(227, 227, 226)" opacity="0.9902835"/>
    <path d="M 213.96810913085938 206.0960693359375 C 211.31744384765625 214.6431121826172 205.5346221923828 220.00267028808594 198.00091552734375 222.0003204345703 C 190.5 219.99038696289062 185.00961303710938 214.5 183.0 207.0 C 185.00961303710938 199.5 190.5 194.00961303710938 198.02838134765625 191.98899841308594 C 205.94871520996094 193.77508544921875 211.87896728515625 198.7526092529297 213.96810913085938 206.0960693359375" stroke-width="0.0" fill="rgb(255, 255, 255)" opacity="1.0"/>
    <path d="M 120.53766632080078 23.28964614868164 C 117.61286926269531 31.812740325927734 113.05625915527344 37.66984176635742 104.21307373046875 39.91573715209961 C 96.66829681396484 37.881473541259766 91.47773742675781 32.24071502685547 90.42737579345703 23.88955307006836 C 91.99696350097656 16.464292526245117 97.343017578125 10.653485298156738 105.58755493164062 8.093558311462402 C 113.29370880126953 10.187969207763672 118.77717590332031 15.717443466186523 120.53766632080078 23.28964614868164" stroke-width="0.0" fill="rgb(246, 246, 246)" opacity="0.9904216"/>
    <path d="M 83.98566436767578 229.02810668945312 C 81.9903793334961 236.5 76.5 241.99038696289062 69.0 244.0 C 61.5 241.99038696289062 56.009620666503906 236.5 54.0 229.0 C 56.00960922241211 221.49996948242188 61.498783111572266 216.00523376464844 68.43958282470703 214.7085418701172 C 76.06423950195312 216.62620544433594 81.83902740478516 221.7648468017578 83.98566436767578 229.02810668945312" stroke-width="0.0" fill="rgb(252, 254, 253)" opacity="0.9931289"/>
    <path d="M 173.9579620361328 228.9252471923828 C 171.6775665283203 236.03677368164062 165.87081909179688 241.22125244140625 158.30325317382812 243.17620849609375 C 151.49404907226562 241.99234008789062 145.88442993164062 236.54266357421875 143.21237182617188 228.7718963623047 C 145.51051330566406 221.4275665283203 151.9207000732422 216.64598083496094 159.4257049560547 214.37289428710938 C 166.50025939941406 216.0086669921875 171.99038696289062 221.49998474121094 173.9579620361328 228.9252471923828" stroke-width="0.0" fill="rgb(251, 251, 251)" opacity="0.9903735"/>
    <path d="M 232.01776123046875 24.944141387939453 C 230.04910278320312 31.599918365478516 224.65806579589844 37.21992111206055 217.5734405517578 39.66615295410156 C 210.5 37.990379333496094 205.00961303710938 32.5 203.0 25.0 C 205.00961303710938 17.5 210.5 12.009618759155273 217.3622589111328 10.600265502929688 C 224.60919189453125 12.873774528503418 230.044189453125 18.419475555419922 232.01776123046875 24.944141387939453" stroke-width="0.0" fill="rgb(94, 93, 93)" opacity="0.9900074"/>
    <path d="M 201.0 241.0 C 198.99038696289062 248.5 193.5 253.99038696289062 186.0 256.0 C 178.5 253.99038696289062 173.00961303710938 248.5 171.0 241.0 C 173.00961303710938 233.5 178.5 228.00961303710938 186.0 226.0 C 193.5 228.00961303710938 198.99038696289062 233.5 201.0 241.0" stroke-width="0.0" fill="rgb(255, 255, 255)" opacity="1.0"/>
    <path d="M 225.94224548339844 187.9083709716797 C 223.66429138183594 195.05633544921875 217.93907165527344 200.31202697753906 210.46981811523438 202.34886169433594 C 203.5 200.99038696289062 198.00961303710938 195.5 196.0 188.0 C 198.00961303710938 180.5 203.5 175.00961303710938 211.0 173.0 C 218.5 175.00961303710938 223.99038696289062 180.5 225.94224548339844 187.9083709716797" stroke-width="0.0" fill="rgb(172, 172, 171)" opacity="0.991848"/>
    <path d="M 34.0 186.0 C 31.99048614501953 193.50033569335938 26.503021240234375 199.00027465820312 18.404115676879883 201.83937072753906 C 11.37883472442627 199.29891967773438 6.004134654998779 193.51722717285156 3.9999170303344727 186.00025939941406 C 6.009618759155273 178.5 11.5 173.00961303710938 19.0 171.0 C 26.5 173.00961303710938 31.990381240844727 178.5 34.0 186.0" stroke-width="0.0" fill="rgb(251, 252, 252)" opacity="1.0"/>
    <path d="M 62.0 240.0 C 59.990379333496094 247.5 54.5 252.99038696289062 47.0 255.0 C 39.5 252.99038696289062 34.009620666503906 247.5 32.0 240.0 C 34.009620666503906 232.5 39.5 227.00961303710938 47.0 225.0 C 54.5 227.00961303710938 59.990379333496094 232.5 62.0 240.0" stroke-width="0.0" fill="rgb(63, 63, 63)" opacity="1.0"/>
    <path d="M 102.0 234.0 C 99.9903793334961 241.5 94.5 246.99038696289062 87.0 249.0 C 79.5 246.99038696289062 74.0096206665039 241.5 72.0 234.0 C 74.0096206665039 226.5 79.5 221.00961303710938 87.0 219.0 C 94.5 221.00961303710938 99.9903793334961 226.5 102.0 234.0" stroke-width="0.0" fill="rgb(8, 9, 8)" opacity="1.0"/>
    <path d="M 204.0 218.0 C 201.99038696289062 225.5 196.5 230.99038696289062 189.0 233.0 C 181.5 230.99038696289062 176.00961303710938 225.5 174.0 218.0 C 176.00961303710938 210.5 181.5 205.00961303710938 189.0 203.0 C 196.5 205.00961303710938 201.99038696289062 210.5 204.0 218.0" stroke-width="0.0" fill="rgb(255, 255, 255)" opacity="1.0"/>
    <path d="M 54.0 236.0 C 51.990379333496094 243.5 46.5 248.99038696289062 39.52131652832031 250.41958618164062 C 32.16663360595703 248.26637268066406 26.29804801940918 242.92543029785156 23.126710891723633 236.2056121826172 C 25.937271118164062 228.75331115722656 31.84587860107422 223.37789916992188 39.16365432739258 221.155029296875 C 46.5 223.00961303710938 51.990379333496094 228.5 54.0 236.0" stroke-width="0.0" fill="rgb(255, 255, 255)" opacity="0.99020576"/>
    <path d="M 261.9691162109375 211.96170043945312 C 259.8622741699219 219.34231567382812 254.3101348876953 224.75706481933594 246.88560485839844 226.85414123535156 C 239.5 224.99038696289062 234.00961303710938 219.5 232.0 212.0 C 234.00961303710938 204.5 239.5 199.00961303710938 247.0 197.0 C 254.5 199.00961303710938 259.9903869628906 204.5 261.9691162109375 211.96170043945312" stroke-width="0.0" fill="rgb(223, 224, 223)" opacity="0.99399"/>
    <path d="M 196.0 237.0 C 193.99038696289062 244.5 188.5 249.99038696289062 181.0 252.0 C 173.50001525878906 249.99038696289062 168.0102081298828 244.4998321533203 166.047119140625 237.00625610351562 C 168.01222229003906 229.5007781982422 173.5000762939453 224.0096435546875 181.0 222.0 C 188.5 224.00961303710938 193.99038696289062 229.5 196.0 237.0" stroke-width="0.0" fill="rgb(238, 238, 238)" opacity="0.9996556"/>
    <path d="M 130.98611450195312 250.0259552001953 C 128.99038696289062 257.5 123.5 262.9903869628906 116.00130462646484 264.99920654296875 C 108.5106201171875 262.9840087890625 103.03821563720703 257.4827575683594 100.64686584472656 249.65472412109375 C 102.42047119140625 241.9171905517578 107.89324188232422 236.3480682373047 115.32377624511719 234.29751586914062 C 123.1466064453125 237.51922607421875 128.8588104248047 242.72344970703125 130.98611450195312 250.0259552001953" stroke-width="0.0" fill="rgb(255, 255, 255)" opacity="0.9904511"/>
    <path d="M 186.0 223.0 C 183.99038696289062 230.5 178.5 235.99038696289062 170.99224853515625 238.01512145996094 C 163.49436950683594 236.00192260742188 158.00877380371094 230.50250244140625 155.97821044921875 222.9773712158203 C 157.95077514648438 215.46153259277344 163.51937866210938 210.1355438232422 171.11280822753906 208.21693420410156 C 178.5 210.00961303710938 183.99038696289062 215.5 186.0 223.0" stroke-width="0.0" fill="rgb(255, 255, 255)" opacity="0.9944834"/>
    <path d="M 64.0 243.0 C 61.990379333496094 250.5 56.5 255.99038696289062 49.0 258.0 C 41.5 255.99038696289062 36.009620666503906 250.5 34.0 243.0 C 36.009620666503906 235.5 41.5 230.00961303710938 49.0 228.0 C 56.5 230.00961303710938 61.990379333496094 235.5 64.0 243.0" stroke-width="0.0" fill="rgb(249, 248, 248)" opacity="1.0"/>
    <path d="M 89.0 242.0 C 86.9903793334961 249.5 81.5 254.99038696289062 73.19752502441406 257.86590576171875 C 65.66585540771484 255.87852478027344 60.330989837646484 250.26759338378906 58.76829528808594 242.31829833984375 C 61.009620666503906 234.5 66.5 229.00961303710938 74.0 227.0 C 81.5 229.00961303710938 86.9903793334961 234.5 89.0 242.0" stroke-width="0.0" fill="rgb(34, 34, 33)" opacity="0.9903996"/>
    <path d="M 105.48097229003906 237.5232696533203 C 102.63827514648438 245.32345581054688 97.435791015625 250.96437072753906 89.99723815917969 252.99891662597656 C 82.5 250.99038696289062 77.0096206665039 245.5 75.0 238.0 C 77.0096206665039 230.5 82.5 225.00961303710938 89.98970031738281 223.00767517089844 C 97.43836212158203 225.05145263671875 102.88336181640625 230.58201599121094 105.48097229003906 237.5232696533203" stroke-width="0.0" fill="rgb(249, 249, 250)" opacity="0.99195296"/>
    <path d="M 268.0002746582031 207.00071716308594 C 265.99761962890625 214.51873779296875 260.56219482421875 220.13983154296875 253.1728057861328 222.35858154296875 C 245.5 219.99038696289062 240.00961303710938 214.5 238.0 207.0 C 240.00961303710938 199.5 245.5 194.00961303710938 253.0 192.0 C 260.5 194.00961303710938 265.9903869628906 199.5 268.0002746582031 207.00071716308594" stroke-width="0.0" fill="rgb(255, 255, 255)" opacity="1.0"/>
    <path d="M 237.28280639648438 231.23728942871094 C 235.37918090820312 238.6536865234375 229.1590118408203 243.3543243408203 221.42555236816406 245.2624053955078 C 214.5 243.99038696289062 209.00961303710938 238.5 207.0 231.0 C 209.00961303710938 223.5 214.5 218.00961303710938 222.0 216.0 C 229.5 218.00961303710938 234.99038696289062 223.5 237.28280639648438 231.23728942871094" stroke-width="0.0" fill="rgb(215, 215, 215)" opacity="0.9902635"/>
    <path d="M 69.01667785644531 232.9857940673828 C 66.9903793334961 240.5 61.5 245.99038696289062 54.0 248.0 C 46.5 245.99038696289062 41.009620666503906 240.5 39.0 233.0 C 41.009620666503906 225.5 46.5 220.00961303710938 54.00705337524414 217.99388122558594 C 61.527374267578125 219.9859619140625 67.02661895751953 225.4688262939453 69.01667785644531 232.9857940673828" stroke-width="0.0" fill="rgb(250, 250, 250)" opacity="1.0"/>
    <path d="M 61.0 234.0 C 58.990379333496094 241.5 53.5 246.99038696289062 46.0 249.0 C 38.5 246.99038696289062 33.009620666503906 241.5 31.0 234.0 C 33.009620666503906 226.5 38.5 221.00961303710938 46.0 219.0 C 53.5 221.00961303710938 58.990379333496094 226.5 61.0 234.0" stroke-width="0.0" fill="rgb(45, 45, 45)" opacity="1.0"/>
    <path d="M 259.0 205.0 C 256.9903869628906 212.5 251.5 217.99038696289062 244.0 220.0 C 236.5 217.99038696289062 231.00961303710938 212.5 229.0 205.0 C 231.00961303710938 197.5 236.5 192.00961303710938 244.0 190.0 C 251.5 192.00961303710938 256.9903869628906 197.5 259.0 205.0" stroke-width="0.0" fill="rgb(254, 254, 254)" opacity="1.0"/>
    <path d="M 63.015625 205.96368408203125 C 61.86742401123047 212.4610137939453 56.497169494628906 217.98956298828125 48.999977111816406 220.0 C 41.5 217.99038696289062 36.009620666503906 212.5 34.0 205.0 C 36.009620666503906 197.5 41.5 192.00961303710938 48.14358901977539 190.8541259765625 C 55.543617248535156 192.9600067138672 61.014713287353516 198.4654998779297 63.015625 205.96368408203125" stroke-width="0.0" fill="rgb(26, 27, 26)" opacity="0.99001133"/>
    <path d="M 254.0 201.0 C 251.99038696289062 208.5 246.5 213.99038696289062 239.0 216.0 C 231.5 213.99038696289062 226.00961303710938 208.5 224.0 201.0 C 226.00961303710938 193.5 231.5 188.00961303710938 239.0 186.0 C 246.5 188.00961303710938 251.99038696289062 193.5 254.0 201.0" stroke-width="0.0" fill="rgb(67, 67, 67)" opacity="1.0"/>
    <path d="M 245.94398498535156 210.0555877685547 C 243.99038696289062 217.5 238.5 222.99038696289062 230.78985595703125 225.13467407226562 C 222.82363891601562 223.55197143554688 217.30670166015625 218.2135772705078 216.98980712890625 210.96241760253906 C 218.98489379882812 203.45875549316406 224.4366455078125 197.92083740234375 231.72244262695312 195.64004516601562 C 238.43675231933594 196.97096252441406 243.85107421875 202.61294555664062 245.94398498535156 210.0555877685547" stroke-width="0.0" fill="rgb(20, 20, 19)" opacity="0.99000704"/>
    <path d="M 159.0421600341797 245.95790100097656 C 156.99038696289062 253.5 151.5 258.9903869628906 144.0 261.0 C 136.5 258.9903869628906 131.00961303710938 253.5 129.00306701660156 246.0043487548828 C 131.0185546875 238.49261474609375 136.38507080078125 232.7068328857422 143.55404663085938 230.2373046875 C 151.64126586914062 232.84510803222656 157.11026000976562 238.37213134765625 159.0421600341797 245.95790100097656" stroke-width="0.0" fill="rgb(249, 249, 249)" opacity="0.993698"/>
    <path d="M 233.00038146972656 184.99961853027344 C 230.99656677246094 192.51844787597656 225.59402465820312 198.22976684570312 217.8297882080078 200.82293701171875 C 210.46371459960938 198.1057891845703 205.0088653564453 192.50253295898438 202.99258422851562 184.98397827148438 C 204.9067840576172 177.29916381835938 210.12786865234375 171.4434814453125 218.3065948486328 169.12326049804688 C 225.6610565185547 171.64016723632812 231.00169372558594 177.46719360351562 233.00038146972656 184.99961853027344" stroke-width="0.0" fill="rgb(255, 255, 255)" opacity="0.9925308"/>
    <path d="M 220.96632385253906 239.9586944580078 C 218.91018676757812 247.55621337890625 214.0017852783203 253.7596893310547 206.8344268798828 255.95394897460938 C 198.4650421142578 253.10897827148438 193.00978088378906 247.50006103515625 191.00001525878906 239.99993896484375 C 193.00961303710938 232.5 198.5 227.00961303710938 206.0 225.0 C 213.5 227.00961303710938 218.99038696289062 232.5 220.96632385253906 239.9586944580078" stroke-width="0.0" fill="rgb(118, 118, 117)" opacity="1.0"/>
    <path d="M 242.3911895751953 188.3995361328125 C 240.1889190673828 195.74806213378906 235.16050720214844 202.81626892089844 227.4957733154297 204.9615478515625 C 219.60601806640625 202.92593383789062 214.25253295898438 197.33584594726562 212.70050048828125 189.3994140625 C 215.00961303710938 181.5 220.5 176.00961303710938 228.0 174.0 C 235.5 176.00961303710938 240.99038696289062 181.5 242.3911895751953 188.3995361328125" stroke-width="0.0" fill="rgb(251, 251, 251)" opacity="0.9902978"/>
    <path d="M 200.0 218.0 C 197.99038696289062 225.5 192.5 230.99038696289062 185.0 233.0 C 177.5 230.99038696289062 172.00961303710938 225.5 170.0 218.0 C 172.00961303710938 210.5 177.5 205.00961303710938 185.0 203.0 C 192.5 205.00961303710938 197.99038696289062 210.5 200.0 218.0" stroke-width="0.0" fill="rgb(255, 255, 255)" opacity="1.0"/>
    <path d="M 219.0 28.0 C 216.99038696289062 35.5 211.5 40.990379333496094 204.0 43.0 C 196.5 40.990379333496094 191.00961303710938 35.5 189.0 28.0 C 191.00961303710938 20.5 196.5 15.009618759155273 204.0 13.0 C 211.5 15.009618759155273 216.99038696289062 20.5 219.0 28.0" stroke-width="0.0" fill="rgb(101, 101, 101)" opacity="1.0"/>
    <path d="M 228.0331268310547 236.0606231689453 C 226.03054809570312 243.58937072753906 220.9259796142578 250.8466796875 213.9254150390625 251.04736328125 C 205.824462890625 250.74545288085938 200.5377655029297 245.08688354492188 198.887451171875 237.16342163085938 C 201.00961303710938 229.5 206.5 224.00961303710938 214.0 222.0 C 221.5 224.00961303710938 226.99038696289062 229.5 228.0331268310547 236.0606231689453" stroke-width="0.0" fill="rgb(20, 20, 21)" opacity="0.99000907"/>
    <path d="M 39.0 187.0 C 36.990379333496094 194.5 31.5 199.99038696289062 23.994558334350586 202.0114288330078 C 16.49646759033203 199.99777221679688 11.008841514587402 194.50161743164062 8.9999418258667 187.0001220703125 C 11.009618759155273 179.5 16.5 174.00961303710938 24.0 172.0 C 31.5 174.00961303710938 36.990379333496094 179.5 39.0 187.0" stroke-width="0.0" fill="rgb(254, 254, 254)" opacity="1.0"/>
    <path d="M 22.0 184.0 C 19.990381240844727 191.5 14.5 196.99038696289062 7.0 199.0 C -0.5 196.99038696289062 -5.990381240844727 191.5 -8.0 184.0 C -5.990381240844727 176.5 -0.5 171.00961303710938 7.0 169.0 C 14.5 171.00961303710938 19.990381240844727 176.5 22.0 184.0" stroke-width="0.0" fill="rgb(67, 67, 67)" opacity="1.0"/>
    <path d="M 41.000003814697266 188.00001525878906 C 38.99101257324219 195.50222778320312 33.54418182373047 201.13104248046875 25.384044647216797 203.9322052001953 C 17.918418884277344 201.74961853027344 12.800108909606934 195.86172485351562 10.981152534484863 188.0380859375 C 13.009618759155273 180.5 18.5 175.00961303710938 26.0 173.0 C 33.5 175.00961303710938 38.990379333496094 180.5 41.000003814697266 188.00001525878906" stroke-width="0.0" fill="rgb(255, 255, 255)" opacity="1.0"/>
    <path d="M 243.3330078125 187.33261108398438 C 241.13243103027344 194.64134216308594 235.64068603515625 200.13034057617188 228.32363891601562 202.3523406982422 C 221.4896697998047 201.02029418945312 216.0109405517578 195.50135803222656 214.00099182128906 187.9991455078125 C 216.00961303710938 180.5 221.5 175.00961303710938 229.0 173.0 C 236.5 175.00961303710938 241.99038696289062 180.5 243.3330078125 187.33261108398438" stroke-width="0.0" fill="rgb(250, 250, 250)" opacity="1.0"/>
    <path d="M 194.0 243.0 C 191.99038696289062 250.5 186.5 255.99038696289062 179.0 258.0 C 171.5 255.99038696289062 166.00961303710938 250.5 164.79116821289062 243.5526580810547 C 166.39730834960938 235.66616821289062 171.52650451660156 230.01577758789062 178.9994659423828 227.99945068359375 C 186.5 230.00961303710938 191.99038696289062 235.5 194.0 243.0" stroke-width="0.0" fill="rgb(252, 252, 252)" opacity="0.99468243"/>
    <path d="M 204.0 214.0 C 201.99038696289062 221.5 196.5 226.99038696289062 189.0 229.0 C 181.5 226.99038696289062 176.00961303710938 221.5 174.0 214.0 C 176.00961303710938 206.5 181.5 201.00961303710938 189.0 199.0 C 196.5 201.00961303710938 201.99038696289062 206.5 204.0 214.0" stroke-width="0.0" fill="rgb(255, 255, 255)" opacity="1.0"/>
    <path d="M 56.0 221.0 C 53.990379333496094 228.5 48.5 233.99038696289062 41.00480270385742 235.99635314941406 C 33.517539978027344 233.97393798828125 27.976329803466797 228.4960479736328 25.846435546875 221.05917358398438 C 28.009618759155273 213.5 33.5 208.00961303710938 41.0 206.0 C 48.5 208.00961303710938 53.990379333496094 213.5 56.0 221.0" stroke-width="0.0" fill="rgb(201, 201, 201)" opacity="0.9996812"/>
    <path d="M 268.0 157.0 C 265.9903869628906 164.5 260.5 169.99038696289062 253.0 172.0 C 245.5 169.99038696289062 240.00961303710938 164.5 238.0 157.0 C 240.00961303710938 149.5 245.5 144.00961303710938 253.0 142.0 C 260.5 144.00961303710938 265.9903869628906 149.5 268.0 157.0" stroke-width="0.0" fill="rgb(253, 252, 253)" opacity="1.0"/>
    <path d="M 261.0 185.0 C 258.9903869628906 192.5 253.5 197.99038696289062 246.86346435546875 199.08786010742188 C 239.3811492919922 197.0675048828125 233.76007080078125 191.6734161376953 231.29754638671875 184.603271484375 C 233.00961303710938 177.5 238.5 172.00961303710938 246.0 170.0 C 253.5 172.00961303710938 258.9903869628906 177.5 261.0 185.0" stroke-width="0.0" fill="rgb(251, 251, 250)" opacity="0.9900419"/>
    <path d="M 263.0 175.0 C 260.9903869628906 182.5 255.5 187.99038696289062 248.0 190.0 C 240.5 187.99038696289062 235.00961303710938 182.5 233.0 175.0 C 235.00961303710938 167.5 240.5 162.00961303710938 248.0 160.0 C 255.5 162.00961303710938 260.9903869628906 167.5 263.0 175.0" stroke-width="0.0" fill="rgb(253, 252, 252)" opacity="1.0"/>
    <path d="M 215.228271484375 235.2054901123047 C 213.06063842773438 242.56027221679688 207.55177307128906 248.03323364257812 200.0994873046875 250.08018493652344 C 193.5 248.99038696289062 188.00961303710938 243.5 186.0 236.0 C 188.00961303710938 228.5 193.5 223.00961303710938 201.0 221.0 C 208.5 223.00961303710938 213.99038696289062 228.5 215.228271484375 235.2054901123047" stroke-width="0.0" fill="rgb(251, 251, 251)" opacity="0.9900302"/>
    <path d="M 211.0 24.0 C 208.99038696289062 31.5 203.5 36.990379333496094 195.9783172607422 39.01120376586914 C 188.29981994628906 37.10498809814453 182.48147583007812 31.84819221496582 180.1100311279297 24.020999908447266 C 182.54006958007812 16.26799774169922 188.42662048339844 10.931231498718262 195.95144653320312 8.90987491607666 C 203.5 11.009618759155273 208.99038696289062 16.5 211.0 24.0" stroke-width="0.0" fill="rgb(235, 235, 234)" opacity="0.9902317"/>
    <path d="M 137.00631713867188 117.93344116210938 C 135.02764892578125 123.57281494140625 129.63693237304688 129.21434020996094 122.61064910888672 131.72293090820312 C 115.8315200805664 129.83888244628906 110.87675476074219 123.80731201171875 108.99211120605469 117.96186828613281 C 110.99394989013672 110.48111724853516 116.48158264160156 104.9949951171875 123.9553451538086 102.99280548095703 C 129.54673767089844 104.9651870727539 135.00930786132812 110.46711730957031 137.00631713867188 117.93344116210938" stroke-width="0.0" fill="rgb(7, 6, 6)" opacity="0.9900017"/>
    <path d="M 195.0 252.0 C 192.99038696289062 259.5 187.5 264.9903869628906 180.0 267.0 C 172.5 264.9903869628906 167.00961303710938 259.5 165.0 252.0 C 167.00961303710938 244.5 172.5 239.00961303710938 180.0 237.0 C 187.5 239.00961303710938 192.99038696289062 244.5 195.0 252.0" stroke-width="0.0" fill="rgb(253, 253, 253)" opacity="1.0"/>
    <path d="M 17.000017166137695 190.00006103515625 C 14.9917631149292 197.5045166015625 9.542464256286621 203.1190948486328 2.06003475189209 205.80593872070312 C -5.541948318481445 203.11767578125 -10.991742134094238 197.50445556640625 -13.000016212463379 190.0000457763672 C -10.990381240844727 182.5 -5.5 177.00961303710938 2.0 175.0 C 9.5 177.00961303710938 14.990381240844727 182.5 17.000017166137695 190.00006103515625" stroke-width="0.0" fill="rgb(255, 255, 255)" opacity="0.9919789"/>
    <path d="M 55.0 219.0 C 52.990379333496094 226.5 47.5 231.99038696289062 39.913482666015625 234.0601043701172 C 32.093353271484375 232.2906951904297 26.341829299926758 227.03408813476562 24.14166259765625 219.14573669433594 C 26.604202270507812 211.3444366455078 32.50936508178711 206.03408813476562 40.008506774902344 204.0054168701172 C 47.5 206.00961303710938 52.990379333496094 211.5 55.0 219.0" stroke-width="0.0" fill="rgb(252, 253, 253)" opacity="1.0"/>
    <path d="M 54.847923278808594 198.94573974609375 C 52.9642333984375 206.49143981933594 47.49861526489258 211.9899444580078 40.35101318359375 213.7596893310547 C 33.34088134765625 211.24781799316406 27.964664459228516 205.58639526367188 25.974260330200195 198.05601501464844 C 27.009618759155273 191.5 32.5 186.00961303710938 40.0 184.0 C 47.5 186.00961303710938 52.990379333496094 191.5 54.847923278808594 198.94573974609375" stroke-width="0.0" fill="rgb(14, 14, 14)" opacity="0.99003524"/>
    <path d="M 57.0 232.0 C 54.990379333496094 239.5 49.5 244.99038696289062 42.191402435302734 246.88250732421875 C 35.20610046386719 244.42642211914062 29.919384002685547 238.66867065429688 27.983592987060547 232.8436737060547 C 29.96957778930664 225.44358825683594 35.427635192871094 219.9231414794922 42.75426483154297 217.73300170898438 C 49.5 219.00961303710938 54.990379333496094 224.5 57.0 232.0" stroke-width="0.0" fill="rgb(66, 67, 67)" opacity="0.99001265"/>
    <path d="M 212.844970703125 210.65428161621094 C 210.5685272216797 217.9040985107422 204.75367736816406 223.1510009765625 197.03555297851562 225.0208740234375 C 189.5 222.99038696289062 184.00961303710938 217.5 182.0 210.0 C 184.00961303710938 202.5 189.5 197.00961303710938 197.0 195.0 C 204.50003051757812 197.0095977783203 209.99053955078125 202.49993896484375 212.844970703125 210.65428161621094" stroke-width="0.0" fill="rgb(255, 255, 255)" opacity="0.9917018"/>
    <path d="M 106.75486755371094 2.568289041519165 C 104.36746215820312 10.794668197631836 98.72438049316406 16.14412498474121 91.03610229492188 18.025127410888672 C 83.50788879394531 15.993104934692383 78.2559814453125 10.4102144241333 75.33966827392578 2.432244300842285 C 78.1260986328125 -4.4120354652404785 83.5588607788086 -9.96389102935791 91.00358581542969 -11.998565673828125 C 98.50625610351562 -9.992293357849121 104.16024780273438 -4.5578837394714355 106.75486755371094 2.568289041519165" stroke-width="0.0" fill="rgb(255, 255, 255)" opacity="0.99056053"/>
    <path d="M 230.86947631835938 35.20285415649414 C 227.42666625976562 43.10041809082031 222.24493408203125 48.837974548339844 214.96939086914062 50.98353576660156 C 207.5 48.990379333496094 202.00961303710938 43.5 200.0 36.0 C 202.00961303710938 28.5 207.5 23.009618759155273 215.14915466308594 20.909944534301758 C 223.12713623046875 22.527442932128906 228.83885192871094 27.747169494628906 230.86947631835938 35.20285415649414" stroke-width="0.0" fill="rgb(188, 187, 187)" opacity="0.99028665"/>
    <path d="M 243.99745178222656 224.962158203125 C 241.77703857421875 232.17221069335938 236.08560180664062 237.49246215820312 228.07138061523438 240.9693145751953 C 220.65171813964844 238.9199676513672 215.5283966064453 233.17794799804688 214.676025390625 225.7675323486328 C 216.93556213378906 218.4425048828125 222.45611572265625 212.97830200195312 229.92416381835938 210.98715209960938 C 235.98004150390625 212.78302001953125 241.9408721923828 217.63941955566406 243.99745178222656 224.962158203125" stroke-width="0.0" fill="rgb(247, 247, 247)" opacity="0.990017"/>
    <path d="M 84.9998779296875 239.0004119873047 C 82.9903564453125 246.4999237060547 77.49922943115234 251.98777770996094 70.37837219238281 253.3928680419922 C 62.720314025878906 251.58966064453125 57.05281066894531 246.4047088623047 55.096195220947266 239.1928253173828 C 57.601829528808594 232.23414611816406 63.353389739990234 226.9335174560547 70.89378356933594 224.9856719970703 C 77.19855499267578 226.602294921875 82.97863006591797 231.53805541992188 84.9998779296875 239.0004119873047" stroke-width="0.0" fill="rgb(8, 7, 7)" opacity="0.99000573"/>
    <path d="M 226.0 3.0 C 223.99038696289062 10.5 218.5 15.990381240844727 211.0 18.0 C 203.5 15.990381240844727 198.00961303710938 10.5 196.0 3.0 C 198.00961303710938 -4.5 203.5 -9.990381240844727 211.0 -12.0 C 218.5 -9.990381240844727 223.99038696289062 -4.5 226.0 3.0" stroke-width="0.0" fill="rgb(255, 255, 255)" opacity="1.0"/>
    <path d="M 15.0 164.0 C 12.990381240844727 171.5 7.5 176.99038696289062 9.184850467946473e-16 179.0 C -7.5 176.99038696289062 -12.990381240844727 171.5 -15.0 164.0 C -12.990381240844727 156.5 -7.5 151.00961303710938 -2.7554553521421787e-15 149.0 C 7.5 151.00961303710938 12.990381240844727 156.5 15.0 164.0" stroke-width="0.0" fill="rgb(95, 96, 96)" opacity="0.9955031"/>
    <path d="M 205.0 211.0 C 202.99038696289062 218.5 197.5 223.99038696289062 190.0 226.0 C 182.5 223.99038696289062 177.00961303710938 218.5 174.93408203125 210.89187622070312 C 176.61500549316406 202.95382690429688 181.77410888671875 197.15835571289062 189.14683532714844 195.0632781982422 C 197.5 198.00961303710938 202.99038696289062 203.5 205.0 211.0" stroke-width="0.0" fill="rgb(255, 255, 255)" opacity="0.994303"/>
    <path d="M 199.0 217.0 C 196.99038696289062 224.5 191.5 229.99038696289062 184.0 232.0 C 176.5 229.99038696289062 171.00961303710938 224.5 169.0 217.0 C 171.00961303710938 209.5 176.5 204.00961303710938 184.0 202.0 C 191.5 204.00961303710938 196.99038696289062 209.5 199.0 217.0" stroke-width="0.0" fill="rgb(255, 255, 255)" opacity="1.0"/>
    <path d="M 93.00021362304688 242.00038146972656 C 90.99175262451172 249.501220703125 85.49418640136719 254.9663543701172 78.2125244140625 256.6179504394531 C 70.80866241455078 254.61346435546875 65.43148803710938 249.17604064941406 63.17111587524414 241.4932098388672 C 64.55470275878906 234.10328674316406 70.13560485839844 228.65663146972656 77.843994140625 226.8329315185547 C 85.5 229.00961303710938 90.9903793334961 234.5 93.00021362304688 242.00038146972656" stroke-width="0.0" fill="rgb(11, 11, 11)" opacity="1.0"/>
    <path d="M 226.6880340576172 185.72442626953125 C 224.4278106689453 192.92295837402344 218.9014434814453 198.35943603515625 211.60092163085938 200.55194091796875 C 204.5 198.99038696289062 199.00961303710938 193.5 197.59713745117188 186.5373077392578 C 199.75071716308594 179.2033233642578 205.17567443847656 173.66567993164062 211.65577697753906 170.27857971191406 C 219.0594024658203 173.61474609375 224.809326171875 178.78952026367188 226.6880340576172 185.72442626953125" stroke-width="0.0" fill="rgb(197, 197, 197)" opacity="0.99006045"/>
    <path d="M 231.79498291015625 6.631350994110107 C 229.8949737548828 14.419844627380371 224.43356323242188 19.938255310058594 216.8894500732422 21.919269561767578 C 208.5 18.990381240844727 203.00961303710938 13.5 201.0 6.0 C 203.00961303710938 -1.5 208.5 -6.990381240844727 216.01376342773438 -9.006340026855469 C 223.67752075195312 -7.079896926879883 229.5191650390625 -1.8375217914581299 231.79498291015625 6.631350994110107" stroke-width="0.0" fill="rgb(255, 255, 255)" opacity="0.9912515"/>
    <path d="M 249.0 173.0 C 246.99038696289062 180.5 241.5 185.99038696289062 234.0 188.0 C 226.5 185.99038696289062 221.00961303710938 180.5 218.3753662109375 172.69947814941406 C 221.3273468017578 166.04161071777344 227.12786865234375 160.6974334716797 234.3211212158203 157.67140197753906 C 241.5 160.00961303710938 246.99038696289062 165.5 249.0 173.0" stroke-width="0.0" fill="rgb(255, 255, 255)" opacity="0.99051523"/>
    <path d="M 254.1499786376953 219.48167419433594 C 252.3011474609375 226.9270477294922 247.0020751953125 232.4801025390625 239.88851928710938 235.32296752929688 C 233.04721069335938 232.35934448242188 226.31900024414062 227.41366577148438 224.06700134277344 220.87353515625 C 227.88555908203125 213.3818817138672 233.3853759765625 207.89596557617188 239.422607421875 205.94577026367188 C 247.21897888183594 207.5452423095703 252.71438598632812 212.654541015625 254.1499786376953 219.48167419433594" stroke-width="0.0" fill="rgb(198, 196, 196)" opacity="0.9900109"/>
    <path d="M 19.574661254882812 151.52838134765625 C 16.990381240844727 159.5 11.5 164.99038696289062 4.0 167.0 C -3.5 164.99038696289062 -8.990381240844727 159.5 -11.005717277526855 151.98773193359375 C -9.069279670715332 144.34335327148438 -3.800959348678589 138.52557373046875 4.426854610443115 136.16477966308594 C 12.141504287719727 138.3331298828125 17.658979415893555 143.86102294921875 19.574661254882812 151.52838134765625" stroke-width="0.0" fill="rgb(255, 255, 255)" opacity="0.9903498"/>
    <path d="M 68.07479858398438 214.32945251464844 C 67.3312759399414 223.1764678955078 62.247314453125 228.77012634277344 54.58515167236328 230.63955688476562 C 46.5 227.99038696289062 41.009620666503906 222.5 39.0 215.0 C 41.009620666503906 207.5 46.5 202.00961303710938 54.959999084472656 199.0199432373047 C 62.455726623535156 201.0365447998047 67.86834716796875 206.5706787109375 68.07479858398438 214.32945251464844" stroke-width="0.0" fill="rgb(180, 179, 179)" opacity="1.0"/>
    <path d="M 24.02276039123535 160.8894805908203 C 22.126602172851562 166.7451934814453 16.901416778564453 172.5431365966797 9.75406551361084 175.12001037597656 C 2.2365670204162598 173.29483032226562 -3.192427158355713 167.73211669921875 -4.43818473815918 160.62249755859375 C -2.1378140449523926 153.3839111328125 3.416830539703369 147.9556121826172 9.308586120605469 145.9827117919922 C 16.543476104736328 147.97332763671875 22.026851654052734 153.45643615722656 24.02276039123535 160.8894805908203" stroke-width="0.0" fill="rgb(101, 102, 101)" opacity="0.9900027"/>
    <path d="M 228.8376922607422 231.78103637695312 C 226.9423370361328 239.45956420898438 221.4684600830078 244.9680633544922 213.9669647216797 246.97225952148438 C 204.66357421875 244.83840942382812 199.23045349121094 239.316650390625 197.61029052734375 231.48190307617188 C 200.03831481933594 223.55979919433594 205.60662841796875 218.1878662109375 213.86892700195312 215.06576538085938 C 221.4100341796875 217.07839965820312 226.87081909179688 222.60739135742188 228.8376922607422 231.78103637695312" stroke-width="0.0" fill="rgb(204, 204, 203)" opacity="0.99006593"/>
    <path d="M 263.0 159.0 C 260.9903869628906 166.5 255.5 171.99038696289062 248.0159912109375 173.99215698242188 C 240.6870880126953 171.89283752441406 235.58120727539062 166.1334686279297 233.93475341796875 159.7289276123047 C 235.86474609375 152.27056884765625 241.16824340820312 146.5708465576172 248.22169494628906 144.16043090820312 C 255.5 146.00961303710938 260.9903869628906 151.5 263.0 159.0" stroke-width="0.0" fill="rgb(184, 184, 184)" opacity="0.9900749"/>
    <path d="M 136.0 255.0 C 133.99038696289062 262.5 128.5 267.9903869628906 121.0 270.0 C 113.50022888183594 267.9903259277344 108.01750183105469 262.49761962890625 106.3730697631836 255.15928649902344 C 108.26892852783203 247.6996612548828 113.66505432128906 242.15614318847656 121.05025482177734 240.04867553710938 C 128.5 242.00961303710938 133.99038696289062 247.5 136.0 255.0" stroke-width="0.0" fill="rgb(238, 238, 238)" opacity="0.99239004"/>
    <path d="M 103.30949401855469 14.215852737426758 C 101.87938690185547 21.752376556396484 96.9765396118164 27.640485763549805 89.65802001953125 29.852031707763672 C 81.54925537109375 26.696104049682617 75.47074890136719 21.78672218322754 73.37908172607422 14.757165908813477 C 76.74089050292969 7.09335470199585 81.98344421386719 1.4805810451507568 88.94493865966797 -0.43077194690704346 C 96.0601806640625 1.4941983222961426 101.49017333984375 6.944960117340088 103.30949401855469 14.215852737426758" stroke-width="0.0" fill="rgb(227, 226, 226)" opacity="0.9900475"/>
    <path d="M 135.01083374023438 125.05152893066406 C 133.01327514648438 132.53565979003906 127.54693603515625 138.03724670410156 121.91464233398438 140.0089111328125 C 114.47673797607422 138.0106658935547 108.9926986694336 132.5218048095703 106.991455078125 125.06288146972656 C 108.96748352050781 119.42103576660156 114.35941314697266 113.7879409790039 121.4050521850586 111.40460968017578 C 128.20692443847656 113.18222045898438 133.17501831054688 119.11261749267578 135.01083374023438 125.05152893066406" stroke-width="0.0" fill="rgb(6, 6, 6)" opacity="0.9900016"/>
    <path d="M 270.0 202.0 C 267.9903869628906 209.5 262.5 214.99037170410156 255.73802185058594 216.25282287597656 C 248.3901824951172 214.09951782226562 242.93482971191406 208.59701538085938 240.9807891845703 202.3480224609375 C 242.88934326171875 195.2527618408203 248.02806091308594 189.34620666503906 255.06759643554688 187.03392028808594 C 262.5 189.00961303710938 267.9903869628906 194.5 270.0 202.0" stroke-width="0.0" fill="rgb(252, 252, 252)" opacity="0.9900323"/>
    <path d="M 43.54216003417969 185.51885986328125 C 41.02235794067383 193.58599853515625 35.77523422241211 199.5044403076172 27.17023277282715 201.94760131835938 C 19.875276565551758 199.80763244628906 14.860060691833496 193.81642150878906 12.993412971496582 186.01690673828125 C 15.009617805480957 178.5 20.499855041503906 173.00909423828125 27.873485565185547 170.8140411376953 C 35.95798873901367 173.18182373046875 41.67720413208008 177.89173889160156 43.54216003417969 185.51885986328125" stroke-width="0.0" fill="rgb(252, 252, 251)" opacity="0.9900379"/>
    <path d="M 267.0 179.0 C 264.9903869628906 186.50001525878906 259.50006103515625 191.9905242919922 252.00054931640625 193.99948120117188 C 244.50091552734375 191.9893341064453 239.01031494140625 186.4991912841797 237.0001678466797 178.9998016357422 C 239.00961303710938 171.5 244.5 166.00961303710938 252.0 164.0 C 259.5 166.00961303710938 264.9903869628906 171.5 267.0 179.0" stroke-width="0.0" fill="rgb(255, 255, 255)" opacity="1.0"/>
    <path d="M 202.1287384033203 240.9262237548828 C 199.99038696289062 248.5 194.5 253.99038696289062 187.0 256.0 C 179.5 253.99038696289062 174.00961303710938 248.5 172.0 241.0 C 174.00961303710938 233.5 179.5 228.00961303710938 187.00390625 225.9978485107422 C 194.53750610351562 227.98876953125 200.10557556152344 233.4338836669922 202.1287384033203 240.9262237548828" stroke-width="0.0" fill="rgb(252, 252, 252)" opacity="0.9979532"/>
    <path d="M 106.70893096923828 247.20692443847656 C 104.98927307128906 254.49960327148438 99.49990844726562 259.9903564453125 92.03942108154297 261.96356201171875 C 84.62533569335938 259.8736877441406 79.152587890625 254.36671447753906 77.06079864501953 246.94369506835938 C 79.0096206665039 239.5 84.5 234.00961303710938 91.97773742675781 232.00833129882812 C 99.32640838623047 234.1193389892578 104.6478500366211 239.74713134765625 106.70893096923828 247.20692443847656" stroke-width="0.0" fill="rgb(252, 252, 252)" opacity="0.99173164"/>
    <path d="M 28.05967140197754 187.585693359375 C 27.801973342895508 195.26148986816406 21.919269561767578 199.1940155029297 13.211224555969238 201.10025024414062 C 6.540843486785889 199.87925720214844 1.012587070465088 194.49127197265625 -0.999932587146759 186.9998016357422 C 1.0096189975738525 179.5 6.5 174.00961303710938 13.998393058776855 172.0005645751953 C 21.438451766967773 174.03163146972656 26.476966857910156 179.75933837890625 28.05967140197754 187.585693359375" stroke-width="0.0" fill="rgb(133, 132, 133)" opacity="0.9900514"/>
    <path d="M 220.01507568359375 191.0508575439453 C 218.0222625732422 198.55166625976562 212.56890869140625 204.0590362548828 205.1451873779297 206.0985107421875 C 198.4349822998047 205.01483154296875 192.5323486328125 199.7398223876953 191.94134521484375 192.94886779785156 C 193.9850311279297 185.47181701660156 199.47293090820312 179.9878692626953 206.7029571533203 177.99102783203125 C 212.54638671875 179.98085021972656 218.0775146484375 185.4322967529297 220.01507568359375 191.0508575439453" stroke-width="0.0" fill="rgb(40, 40, 39)" opacity="0.9900017"/>
    <path d="M 210.50730895996094 214.38446044921875 C 208.5366973876953 221.946044921875 202.8660125732422 227.29124450683594 195.10247802734375 229.08555603027344 C 187.5 226.99038696289062 182.00961303710938 221.5 180.0 214.0 C 182.00961303710938 206.5 187.5 201.00961303710938 195.0 199.0 C 202.5 201.00961303710938 207.99038696289062 206.5 210.50730895996094 214.38446044921875" stroke-width="0.0" fill="rgb(255, 255, 255)" opacity="1.0"/>
    <path d="M 194.86041259765625 212.23361206054688 C 192.99038696289062 219.5 187.5 224.99038696289062 180.93833923339844 226.0472869873047 C 173.47105407714844 224.01626586914062 167.9864044189453 218.52798461914062 165.9912567138672 212.61521911621094 C 167.98687744140625 205.47171020507812 173.4716339111328 199.98670959472656 180.91810607910156 197.98927307128906 C 186.61837768554688 199.94955444335938 192.35031127929688 205.2760467529297 194.86041259765625 212.23361206054688" stroke-width="0.0" fill="rgb(41, 41, 41)" opacity="0.99000156"/>
    <path d="M 262.8346252441406 141.882568359375 C 260.55023193359375 148.98487854003906 254.9176483154297 154.33578491210938 247.38214111328125 156.89923095703125 C 239.9132537841797 155.64015197753906 235.04034423828125 149.96713256835938 233.8588409423828 142.44064331054688 C 235.6778106689453 134.84161376953125 240.24465942382812 128.51231384277344 247.48226928710938 126.16019439697266 C 255.1625518798828 129.40957641601562 260.7740783691406 134.7804718017578 262.8346252441406 141.882568359375" stroke-width="0.0" fill="rgb(219, 220, 219)" opacity="0.990048"/>
    <path d="M 59.26612854003906 240.87490844726562 C 56.990379333496094 248.5 51.5 253.99038696289062 44.83565139770508 255.16860961914062 C 37.45119094848633 253.04710388183594 31.983129501342773 247.53799438476562 29.98859977722168 240.05104064941406 C 31.843547821044922 234.18508911132812 36.970497131347656 228.32785034179688 44.077720642089844 226.04502868652344 C 51.51710510253906 228.00279235839844 57.11124801635742 233.44854736328125 59.26612854003906 240.87490844726562" stroke-width="0.0" fill="rgb(50, 50, 49)" opacity="0.99000967"/>
    <path d="M 211.9530029296875 207.09022521972656 C 208.99038696289062 215.5 203.5 220.99038696289062 196.18328857421875 222.88677978515625 C 189.16041564941406 220.4588623046875 183.8137664794922 214.75926208496094 180.02090454101562 207.0430450439453 C 182.03564453125 199.53448486328125 187.5347137451172 194.03599548339844 195.0380859375 192.01858520507812 C 202.5870361328125 195.9562225341797 209.9125518798828 201.11520385742188 211.9530029296875 207.09022521972656" stroke-width="0.0" fill="rgb(252, 252, 252)" opacity="0.9900059"/>
    <path d="M 167.48849487304688 253.5612335205078 C 165.99038696289062 260.5 160.5 265.9903869628906 153.0 268.0 C 145.5 265.9903869628906 140.00961303710938 260.5 137.96311950683594 252.93930053710938 C 139.73023986816406 245.0576171875 144.82632446289062 239.17970275878906 152.0563507080078 238.95579528808594 C 159.5833282470703 240.95755004882812 165.1566619873047 246.37730407714844 167.48849487304688 253.5612335205078" stroke-width="0.0" fill="rgb(67, 65, 67)" opacity="0.9900056"/>
    <path d="M 148.19789123535156 245.14671325683594 C 146.08059692382812 252.6199188232422 140.65248107910156 258.18487548828125 133.48007202148438 260.53924560546875 C 126.5 258.9903869628906 121.0096206665039 253.5 118.94324493408203 245.9619903564453 C 121.00958251953125 238.6832275390625 126.87069702148438 233.56202697753906 133.80767822265625 230.5230255126953 C 141.0016326904297 233.52999877929688 146.49395751953125 239.0001220703125 148.19789123535156 245.14671325683594" stroke-width="0.0" fill="rgb(247, 248, 248)" opacity="0.9900155"/>
    <path d="M 61.973289489746094 232.84854125976562 C 59.93828582763672 240.4109649658203 54.35529327392578 245.76492309570312 45.203495025634766 247.8201904296875 C 37.54914474487305 245.93099975585938 32.03538513183594 240.4626007080078 30.012901306152344 232.89508056640625 C 32.05778503417969 223.58242797851562 37.63071060180664 218.19822692871094 46.26795959472656 216.29119873046875 C 54.247108459472656 218.2389373779297 59.82605743408203 223.726806640625 61.973289489746094 232.84854125976562" stroke-width="0.0" fill="rgb(227, 226, 227)" opacity="0.9900075"/>
    <path d="M 19.086807250976562 189.1908721923828 C 17.224706649780273 198.056640625 13.303009986877441 203.85531616210938 5.741239070892334 205.80474853515625 C -2.4981532096862793 202.9883575439453 -7.989822864532471 197.49867248535156 -10.025485038757324 189.95388793945312 C -8.198034286499023 182.17617797851562 -2.960111379623413 176.4042510986328 4.530904769897461 174.39254760742188 C 12.5 177.00961303710938 17.990381240844727 182.5 19.086807250976562 189.1908721923828" stroke-width="0.0" fill="rgb(250, 250, 251)" opacity="0.9900163"/>
    <path d="M 228.95880126953125 31.084264755249023 C 226.44224548339844 39.76457595825195 220.62619018554688 45.05369567871094 213.01002502441406 47.00491714477539 C 205.5 44.990379333496094 200.00961303710938 39.5 198.0 32.0 C 200.00961303710938 24.5 205.5 19.009618759155273 213.76145935058594 16.243362426757812 C 221.42340087890625 18.097551345825195 226.9460906982422 23.561275482177734 228.95880126953125 31.084264755249023" stroke-width="0.0" fill="rgb(211, 211, 211)" opacity="1.0"/>
    <path d="M 100.00001525878906 226.9999542236328 C 97.9903793334961 234.5 92.5 239.99038696289062 85.70527648925781 241.31553649902344 C 78.3742446899414 239.11009216308594 71.2431411743164 233.70130920410156 69.01612854003906 227.00088500976562 C 71.13123321533203 218.76556396484375 77.07691192626953 214.0816650390625 85.61072540283203 212.5655517578125 C 92.54166412353516 213.88319396972656 97.99173736572266 219.49554443359375 100.00001525878906 226.9999542236328" stroke-width="0.0" fill="rgb(251, 252, 252)" opacity="0.99014777"/>
    <path d="M 139.53627014160156 251.123046875 C 137.9307861328125 258.4771728515625 132.4936981201172 263.98797607421875 125.01065826416016 265.99420166015625 C 117.60910034179688 263.9305114746094 112.31795501708984 258.3104248046875 110.10137939453125 250.7115936279297 C 111.88111877441406 243.49081420898438 117.63549041748047 238.309814453125 125.18260192871094 236.21743774414062 C 132.4528045654297 238.0283966064453 137.80784606933594 243.59768676757812 139.53627014160156 251.123046875" stroke-width="0.0" fill="rgb(251, 251, 251)" opacity="0.9902531"/>
    <path d="M 31.682453155517578 178.695556640625 C 29.853940963745117 186.35797119140625 24.350854873657227 191.8277587890625 16.550634384155273 193.15264892578125 C 8.5 190.99038696289062 3.0096189975738525 185.5 0.15178066492080688 177.14663696289062 C 2.0671000480651855 169.56643676757812 7.5683159828186035 164.07090759277344 16.62342643737793 162.0233917236328 C 24.34043312072754 164.09088134765625 29.421449661254883 169.80955505371094 31.682453155517578 178.695556640625" stroke-width="0.0" fill="rgb(250, 250, 251)" opacity="0.9900269"/>
    <path d="M 55.07502365112305 210.21273803710938 C 53.03848648071289 217.55099487304688 47.54655838012695 223.02700805664062 40.05606460571289 225.04342651367188 C 34.43570327758789 223.0800018310547 28.974573135375977 217.54864501953125 26.974933624267578 210.05963134765625 C 27.154638290405273 202.6475067138672 32.66024398803711 197.19891357421875 40.400081634521484 195.57257080078125 C 47.83406448364258 198.57904052734375 53.147361755371094 204.26036071777344 55.07502365112305 210.21273803710938" stroke-width="0.0" fill="rgb(80, 79, 79)" opacity="0.99000496"/>
    <path d="M 67.98812866210938 250.05838012695312 C 65.88810729980469 259.2984924316406 60.12888717651367 264.44384765625 52.16231918334961 266.035400390625 C 44.94292068481445 263.7120361328125 39.81195831298828 257.8514709472656 36.072418212890625 250.05682373046875 C 38.06412887573242 242.58700561523438 43.615875244140625 237.12741088867188 52.77574920654297 235.06695556640625 C 60.442779541015625 237.0784149169922 65.96409606933594 242.5410919189453 67.98812866210938 250.05838012695312" stroke-width="0.0" fill="rgb(145, 144, 144)" opacity="1.0"/>
    <path d="M 265.98590087890625 173.9717559814453 C 263.82940673828125 181.21072387695312 257.99407958984375 186.28770446777344 251.3119659423828 188.05972290039062 C 244.13926696777344 186.21466064453125 238.3616943359375 181.0175018310547 236.0647735595703 173.90049743652344 C 238.00961303710938 166.5 243.5 161.00961303710938 251.0 159.0 C 258.5 161.00961303710938 263.9903869628906 166.5 265.98590087890625 173.9717559814453" stroke-width="0.0" fill="rgb(171, 170, 169)" opacity="0.9900401"/>
    <path d="M 263.984375 167.17779541015625 C 262.33306884765625 174.98065185546875 257.14117431640625 180.76852416992188 249.69183349609375 182.89512634277344 C 241.44654846191406 180.15196228027344 236.01158142089844 174.5035858154297 233.24676513671875 166.3206787109375 C 235.1893768310547 158.71783447265625 240.73887634277344 153.24826049804688 248.34657287597656 151.4273223876953 C 255.98585510253906 154.6151885986328 261.65765380859375 159.92764282226562 263.984375 167.17779541015625" stroke-width="0.0" fill="rgb(233, 233, 233)" opacity="0.9900292"/>
    <path d="M 214.0 30.0 C 211.99038696289062 37.5 206.5 42.990379333496094 198.2883758544922 45.79232406616211 C 190.754150390625 43.820926666259766 186.50994873046875 38.04304122924805 184.7752227783203 29.3489933013916 C 185.68988037109375 22.237831115722656 191.26763916015625 16.786359786987305 198.91165161132812 14.905715942382812 C 206.5 17.009618759155273 211.99038696289062 22.5 214.0 30.0" stroke-width="0.0" fill="rgb(252, 252, 252)" opacity="0.9901177"/>
    <path d="M 205.74798583984375 226.47592163085938 C 203.64891052246094 234.05111694335938 197.95738220214844 239.37002563476562 190.13597106933594 241.10987854003906 C 182.5 238.99038696289062 177.00961303710938 233.5 174.02410888671875 225.04237365722656 C 176.03346252441406 217.5341796875 181.54464721679688 212.06365966796875 189.1622314453125 210.170654296875 C 197.50885009765625 213.00650024414062 203.1024932861328 218.4587860107422 205.74798583984375 226.47592163085938" stroke-width="0.0" fill="rgb(255, 255, 255)" opacity="1.0"/>
    <path d="M 101.57657623291016 243.09896850585938 C 100.2259750366211 250.9039306640625 95.02977752685547 256.636474609375 87.865478515625 257.17633056640625 C 80.43840026855469 255.05096435546875 74.95829772949219 249.55856323242188 72.97220611572266 242.17955017089844 C 74.91348266601562 236.33863830566406 80.24506378173828 230.62942504882812 87.23002624511719 228.1507568359375 C 94.43694305419922 230.05018615722656 99.82112884521484 235.60247802734375 101.57657623291016 243.09896850585938" stroke-width="0.0" fill="rgb(233, 233, 233)" opacity="0.99000937"/>
    <path d="M 217.99822998046875 10.00094985961914 C 215.9905242919922 17.500057220458984 210.50001525878906 22.990388870239258 202.9864501953125 25.008827209472656 C 195.38174438476562 23.057653427124023 189.59376525878906 17.7398738861084 187.2398223876953 10.329025268554688 C 190.33831787109375 2.7292137145996094 195.65658569335938 -2.888753652572632 203.02377319335938 -4.983386039733887 C 210.4994354248047 -2.9899306297302246 215.9892120361328 2.5007739067077637 217.99822998046875 10.00094985961914" stroke-width="0.0" fill="rgb(250, 251, 251)" opacity="0.99052036"/>
    <path d="M 57.97506332397461 194.93785095214844 C 55.88335037231445 200.73248291015625 48.57168197631836 206.0286407470703 41.04009246826172 208.0234375 C 33.688812255859375 207.85484313964844 28.13517951965332 202.3197021484375 26.14263916015625 194.7777557373047 C 28.993961334228516 186.50038146972656 34.510372161865234 181.02943420410156 41.372047424316406 179.7171630859375 C 48.78606033325195 181.7776336669922 54.250301361083984 187.20254516601562 57.97506332397461 194.93785095214844" stroke-width="0.0" fill="rgb(249, 249, 249)" opacity="0.99000394"/>
    <path d="M 206.02169799804688 248.07745361328125 C 204.0780792236328 255.6968994140625 198.94412231445312 261.70172119140625 191.98678588867188 264.0152587890625 C 184.5 261.9903869628906 179.00961303710938 256.5 177.0 249.0 C 179.00961303710938 241.5 184.5 236.00961303710938 191.98756408691406 234.00962829589844 C 199.43031311035156 236.05828857421875 204.6917266845703 241.6516876220703 206.02169799804688 248.07745361328125" stroke-width="0.0" fill="rgb(252, 252, 252)" opacity="0.9900415"/>
    <path d="M 102.5938720703125 227.45762634277344 C 99.68380737304688 234.24081420898438 94.13915252685547 239.44740295410156 87.72122955322266 241.08648681640625 C 80.2791519165039 239.1486053466797 74.70309448242188 233.77426147460938 72.40509796142578 226.5896453857422 C 74.00957489013672 219.49984741210938 79.4986801147461 214.0052947998047 86.70745849609375 212.33538818359375 C 93.9041519165039 214.5478973388672 99.26664733886719 220.15586853027344 102.5938720703125 227.45762634277344" stroke-width="0.0" fill="rgb(251, 252, 252)" opacity="0.990044"/>
    <path d="M 228.88092041015625 41.41465759277344 C 225.2372283935547 48.71418762207031 219.6961669921875 54.170448303222656 212.30494689941406 56.36440658569336 C 204.77650451660156 55.71543502807617 199.28016662597656 50.223968505859375 197.40170288085938 42.517276763916016 C 200.00961303710938 34.5 205.5 29.009618759155273 212.87405395507812 27.169147491455078 C 220.60020446777344 29.189420700073242 226.62777709960938 34.09299850463867 228.88092041015625 41.41465759277344" stroke-width="0.0" fill="rgb(252, 252, 252)" opacity="0.99005425"/>
    <path d="M 244.32928466796875 181.2520751953125 C 243.77737426757812 189.3485870361328 238.38914489746094 194.9135284423828 230.81285095214844 196.9383087158203 C 221.55679321289062 194.91494750976562 216.03672790527344 189.45919799804688 214.02391052246094 181.95382690429688 C 217.03855895996094 173.82383728027344 222.96066284179688 168.58074951171875 230.0031280517578 166.8255615234375 C 237.0792999267578 168.5571746826172 242.66671752929688 173.84097290039062 244.32928466796875 181.2520751953125" stroke-width="0.0" fill="rgb(214, 214, 214)" opacity="0.99014175"/>
    <path d="M 221.427001953125 20.16986656188965 C 218.17218017578125 27.794031143188477 212.93746948242188 33.58991622924805 205.89964294433594 36.15144348144531 C 198.4336395263672 34.0532112121582 192.9196014404297 28.574697494506836 190.9116973876953 21.027790069580078 C 193.0155487060547 13.522727012634277 198.5328826904297 8.050817489624023 206.0188751220703 6.020113945007324 C 213.5554962158203 7.989396572113037 219.4692840576172 13.265408515930176 221.427001953125 20.16986656188965" stroke-width="0.0" fill="rgb(251, 251, 251)" opacity="0.99014294"/>
    <path d="M 190.2422637939453 251.12550354003906 C 188.14828491210938 258.5813293457031 182.53866577148438 264.0096130371094 174.8584442138672 266.0782775878906 C 166.8101043701172 264.5080871582031 161.09877014160156 259.329345703125 159.0406036376953 250.28456115722656 C 161.0809783935547 242.61968994140625 166.68653869628906 237.2769775390625 174.6974334716797 235.50892639160156 C 182.59800720214844 237.82382202148438 188.0135040283203 243.4525146484375 190.2422637939453 251.12550354003906" stroke-width="0.0" fill="rgb(250, 250, 250)" opacity="0.99005336"/>
  </g>
</svg>
