<?xml version="1.0" ?>
<svg xmlns="http://www.w3.org/2000/svg" version="1.1" width="256" height="256">
  <defs/>
  <g>
    <path d="M 90.11883544921875 209.7476348876953 C 88.9903793334961 216.5 83.5 221.99038696289062 75.29475402832031 224.81271362304688 C 67.78888702392578 222.79425048828125 62.47706604003906 217.1151580810547 60.79787826538086 209.22972106933594 C 63.009620666503906 201.5 68.5 196.00961303710938 75.25718688964844 194.8147735595703 C 82.71294403076172 196.863037109375 88.21300506591797 202.2469482421875 90.11883544921875 209.7476348876953" stroke-width="0.0" fill="rgb(252, 252, 252)" opacity="1.0"/>
    <path d="M 71.44508361816406 209.4672393798828 C 69.72921752929688 217.2536163330078 64.263671875 222.76272583007812 56.53356170654297 224.52685546875 C 48.5 221.99038696289062 43.009620666503906 216.5 41.0 209.0 C 43.009620666503906 201.5 48.5 196.00961303710938 56.0 194.0 C 63.5 196.00961303710938 68.9903793334961 201.5 71.44508361816406 209.4672393798828" stroke-width="0.0" fill="rgb(252, 252, 252)" opacity="1.0"/>
    <path d="M 190.0 118.0 C 187.99038696289062 125.5 182.5 130.99038696289062 174.38975524902344 133.68350219726562 C 166.67897033691406 131.79562377929688 161.10714721679688 126.35922241210938 159.1107940673828 118.8182373046875 C 161.73312377929688 110.32775115966797 167.39723205566406 104.95088958740234 174.98867797851562 102.9937973022461 C 182.5 105.0096206665039 187.99038696289062 110.5 190.0 118.0" stroke-width="0.0" fill="rgb(251, 251, 251)" opacity="1.0"/>
    <path d="M 112.00888061523438 41.75198745727539 C 110.02519989013672 47.5477294921875 104.5442123413086 53.01945495605469 98.91675567626953 55.00699996948242 C 91.48052978515625 53.006099700927734 85.99343872070312 47.51966857910156 83.98341369628906 40.0299072265625 C 85.0096206665039 33.5 90.5 28.009618759155273 97.56184387207031 26.319902420043945 C 104.62419128417969 28.809080123901367 110.02626037597656 34.431732177734375 112.00888061523438 41.75198745727539" stroke-width="0.0" fill="rgb(17, 17, 16)" opacity="0.99000174"/>
    <path d="M 108.08744812011719 161.19908142089844 C 106.83549499511719 169.45126342773438 101.49800109863281 174.9898223876953 94.62411499023438 176.27760314941406 C 87.28958129882812 174.19825744628906 81.86766052246094 168.6843719482422 79.88658142089844 161.4116668701172 C 81.581298828125 154.34910583496094 86.02730560302734 148.47018432617188 94.41925048828125 146.42315673828125 C 102.32691955566406 148.207763671875 107.8516845703125 153.6551971435547 108.08744812011719 161.19908142089844" stroke-width="0.0" fill="rgb(241, 241, 241)" opacity="1.0"/>
    <path d="M 154.9137725830078 181.7335205078125 C 152.7960205078125 189.1664581298828 146.9936981201172 194.3502655029297 139.10191345214844 196.0666961669922 C 131.5 193.99038696289062 126.0096206665039 188.5 123.74922180175781 180.75872802734375 C 125.5323257446289 173.03509521484375 131.04563903808594 167.56715393066406 138.79754638671875 165.80491638183594 C 146.50411987304688 168.00836181640625 152.11883544921875 173.45799255371094 154.9137725830078 181.7335205078125" stroke-width="0.0" fill="rgb(151, 151, 151)" opacity="1.0"/>
    <path d="M 67.0 189.0 C 64.9903793334961 196.5 59.5 201.99038696289062 52.0 204.0 C 44.5 201.99038696289062 39.009620666503906 196.5 37.0 189.0 C 39.009620666503906 181.5 44.5 176.00961303710938 52.0 174.0 C 59.5 176.00961303710938 64.9903793334961 181.5 67.0 189.0" stroke-width="0.0" fill="rgb(173, 174, 174)" opacity="1.0"/>
    <path d="M 38.096439361572266 237.16770935058594 C 36.031349182128906 244.53717041015625 30.53084373474121 250.0133819580078 23.05632972717285 252.00914001464844 C 17.42339324951172 250.07000732421875 11.978816032409668 244.55210876464844 8.114632606506348 237.053955078125 C 11.964812278747559 231.46751403808594 17.471233367919922 225.98178100585938 23.1158504486084 223.97933959960938 C 30.559961318969727 225.9669189453125 36.08840560913086 231.4219207763672 38.096439361572266 237.16770935058594" stroke-width="0.0" fill="rgb(9, 9, 10)" opacity="0.99000156"/>
    <path d="M 34.042144775390625 116.9106674194336 C 32.990379333496094 123.5 27.5 128.99038696289062 19.992652893066406 131.00318908691406 C 12.423264503479004 129.0325469970703 7.526939868927002 123.32624816894531 5.990653038024902 116.97051239013672 C 7.993457794189453 109.47911071777344 13.477662086486816 103.99002075195312 20.958446502685547 101.97405242919922 C 26.774085998535156 103.57073974609375 32.06290817260742 109.35617065429688 34.042144775390625 116.9106674194336" stroke-width="0.0" fill="rgb(13, 13, 13)" opacity="0.9900085"/>
    <path d="M 100.75907897949219 224.71788024902344 C 98.39956665039062 231.85238647460938 92.7995834350586 237.23280334472656 85.41407775878906 239.32872009277344 C 78.5 237.99038696289062 73.0096206665039 232.5 71.01233673095703 224.6995849609375 C 72.44076538085938 217.14230346679688 78.33097839355469 211.93540954589844 85.99154663085938 209.9967041015625 C 93.5 212.00961303710938 98.9903793334961 217.5 100.75907897949219 224.71788024902344" stroke-width="0.0" fill="rgb(252, 252, 252)" opacity="1.0"/>
    <path d="M 137.0 209.0 C 134.99038696289062 216.5 129.5 221.99038696289062 121.78372192382812 224.1818389892578 C 113.92578125 222.49803161621094 108.3114242553711 217.13424682617188 106.28089141845703 209.2020263671875 C 108.90532684326172 201.46607971191406 114.49629211425781 196.00848388671875 121.99995422363281 193.99998474121094 C 129.5 196.00961303710938 134.99038696289062 201.5 137.0 209.0" stroke-width="0.0" fill="rgb(255, 255, 255)" opacity="0.9906242"/>
    <path d="M 51.978553771972656 168.93704223632812 C 49.93748092651367 176.39056396484375 44.17488479614258 180.21490478515625 36.93290328979492 182.00828552246094 C 29.450428009033203 180.01995849609375 23.89877700805664 174.57708740234375 21.575576782226562 167.34530639648438 C 23.009618759155273 160.5 28.5 155.00961303710938 36.00000762939453 153.0 C 43.501529693603516 155.00918579101562 49.10246658325195 160.46575927734375 51.978553771972656 168.93704223632812" stroke-width="0.0" fill="rgb(2, 2, 2)" opacity="0.9900046"/>
    <path d="M 185.00723266601562 218.0093994140625 C 183.05758666992188 225.62298583984375 177.7177276611328 231.34446716308594 170.48931884765625 233.73085021972656 C 162.870849609375 230.67486572265625 157.30860900878906 225.13272094726562 155.8761444091797 218.72735595703125 C 157.81488037109375 211.2243194580078 163.17987060546875 205.7164306640625 169.2361602783203 203.94512939453125 C 177.3647918701172 205.4170684814453 183.00619506835938 210.4706573486328 185.00723266601562 218.0093994140625" stroke-width="0.0" fill="rgb(250, 250, 250)" opacity="0.9927173"/>
    <path d="M 226.98390197753906 145.18853759765625 C 224.9288787841797 154.42459106445312 219.43856811523438 159.95257568359375 211.96102905273438 161.9495086669922 C 204.41546630859375 158.0552520751953 198.90321350097656 152.59906005859375 196.7337646484375 145.2687225341797 C 198.00961303710938 138.5 203.5 133.00961303710938 210.3475341796875 131.67864990234375 C 217.80848693847656 133.82595825195312 224.92271423339844 137.75106811523438 226.98390197753906 145.18853759765625" stroke-width="0.0" fill="rgb(132, 132, 134)" opacity="0.99034196"/>
    <path d="M 163.90184020996094 117.93563842773438 C 161.93429565429688 125.40694427490234 156.3561553955078 130.78257751464844 148.46142578125 132.3671417236328 C 140.5 129.99038696289062 135.00961303710938 124.5 133.0 117.0 C 135.00961303710938 109.5 140.5 104.0096206665039 147.9421844482422 102.2799301147461 C 155.24810791015625 103.9959945678711 160.2537384033203 110.03145599365234 163.90184020996094 117.93563842773438" stroke-width="0.0" fill="rgb(139, 139, 139)" opacity="0.9900422"/>
    <path d="M 121.93668365478516 67.11189270019531 C 118.54183959960938 75.18218231201172 113.28988647460938 80.86779022216797 105.97616577148438 82.98743438720703 C 98.5 80.9903793334961 93.0096206665039 75.5 90.54931640625 67.60186004638672 C 92.3387680053711 59.77055740356445 97.67268371582031 54.10633087158203 105.57099151611328 52.03694534301758 C 114.423583984375 54.083343505859375 119.93343353271484 59.56999969482422 121.93668365478516 67.11189270019531" stroke-width="0.0" fill="rgb(255, 255, 253)" opacity="0.9905919"/>
    <path d="M 90.0 104.0 C 87.9903793334961 111.5 82.5 116.9903793334961 75.0 119.0 C 67.5 116.9903793334961 62.009620666503906 111.5 60.884822845458984 104.72142791748047 C 62.6165771484375 96.84166717529297 67.592529296875 91.04281616210938 75.00225830078125 89.00076293945312 C 82.5 91.0096206665039 87.9903793334961 96.5 90.0 104.0" stroke-width="0.0" fill="rgb(251, 251, 252)" opacity="1.0"/>
    <path d="M 53.0 88.0 C 50.990379333496094 95.5 45.5 100.9903793334961 38.0 103.0 C 30.5 100.9903793334961 25.009618759155273 95.5 23.0 88.0 C 25.009618759155273 80.5 30.5 75.0096206665039 38.0 73.0 C 45.5 75.0096206665039 50.990379333496094 80.5 53.0 88.0" stroke-width="0.0" fill="rgb(39, 39, 39)" opacity="1.0"/>
    <path d="M 62.96743392944336 220.02491760253906 C 59.233985900878906 228.00131225585938 54.36393356323242 233.94044494628906 47.29054641723633 235.8125457763672 C 40.30867385864258 233.29624938964844 34.95184326171875 227.60765075683594 32.961605072021484 220.07794189453125 C 34.009620666503906 213.5 39.5 208.00961303710938 46.06221389770508 206.96218872070312 C 53.61015319824219 208.97132873535156 60.963714599609375 212.59121704101562 62.96743392944336 220.02491760253906" stroke-width="0.0" fill="rgb(4, 3, 4)" opacity="0.9900047"/>
    <path d="M 185.97959899902344 152.9485321044922 C 183.9340057373047 160.37051391601562 178.19386291503906 165.476806640625 170.55459594726562 166.57037353515625 C 163.34359741210938 164.18142700195312 157.9543914794922 158.59976196289062 155.98989868164062 151.1412353515625 C 157.86407470703125 144.8484344482422 161.74853515625 138.1402130126953 169.18601989746094 136.10614013671875 C 177.5 139.00961303710938 182.99038696289062 144.5 185.97959899902344 152.9485321044922" stroke-width="0.0" fill="rgb(14, 15, 14)" opacity="0.99000245"/>
    <path d="M 153.14878845214844 242.53018188476562 C 151.2645263671875 249.9288787841797 146.1259765625 255.86557006835938 139.04232788085938 258.0994873046875 C 131.5 255.99038696289062 126.0096206665039 250.5 124.0 243.0 C 126.0096206665039 235.5 131.5 230.00961303710938 138.995361328125 228.00184631347656 C 146.40267944335938 230.0507049560547 151.5338592529297 235.74964904785156 153.14878845214844 242.53018188476562" stroke-width="0.0" fill="rgb(255, 255, 255)" opacity="0.99059963"/>
    <path d="M 57.68782043457031 156.1848602294922 C 54.11941909790039 163.60130310058594 48.5742073059082 169.04026794433594 42.02793502807617 171.0105743408203 C 35.24089050292969 169.09744262695312 29.187971115112305 164.12060546875 27.469757080078125 157.5218963623047 C 29.8134765625 150.3386993408203 35.3642463684082 144.8980712890625 42.82878494262695 142.9773712158203 C 50.289981842041016 143.22560119628906 55.80099868774414 148.70437622070312 57.68782043457031 156.1848602294922" stroke-width="0.0" fill="rgb(246, 246, 246)" opacity="0.990009"/>
    <path d="M 175.47030639648438 28.68076515197754 C 172.99038696289062 36.5 167.5 41.990379333496094 160.0 44.0 C 152.5 41.990379333496094 147.00961303710938 36.5 145.0 29.0 C 147.00961303710938 21.5 152.5 16.009618759155273 160.04385375976562 13.938871383666992 C 167.6580352783203 15.89218521118164 173.41253662109375 21.2347354888916 175.47030639648438 28.68076515197754" stroke-width="0.0" fill="rgb(255, 255, 255)" opacity="0.99033195"/>
    <path d="M 255.2471923828125 106.28186798095703 C 253.405029296875 113.22539520263672 249.101318359375 119.82830047607422 241.85366821289062 120.16999816894531 C 233.673828125 118.57807159423828 228.01605224609375 113.47911071777344 226.0000762939453 105.999755859375 C 228.00961303710938 98.5 233.5 93.0096206665039 240.36776733398438 91.74608612060547 C 247.83309936523438 93.7689437866211 253.35997009277344 99.11003875732422 255.2471923828125 106.28186798095703" stroke-width="0.0" fill="rgb(250, 250, 251)" opacity="1.0"/>
    <path d="M 139.0 226.0 C 136.99038696289062 233.50001525878906 131.50001525878906 238.99041748046875 123.99398040771484 241.00477600097656 C 116.48194885253906 239.00967407226562 110.99948120117188 233.51502990722656 109.6178207397461 226.40777587890625 C 111.36860656738281 218.62240600585938 116.43217468261719 212.85031127929688 123.89390563964844 210.8215789794922 C 131.5 213.00961303710938 136.99038696289062 218.5 139.0 226.0" stroke-width="0.0" fill="rgb(255, 255, 255)" opacity="0.9906357"/>
    <path d="M 211.39036560058594 218.51507568359375 C 208.99038696289062 226.5 203.5 231.99038696289062 196.0 234.0 C 188.5 231.99038696289062 183.00961303710938 226.5 181.2404022216797 219.3665008544922 C 183.77821350097656 212.365234375 189.43235778808594 206.97625732421875 196.9779815673828 204.95980834960938 C 204.42282104492188 205.05303955078125 209.80038452148438 210.62783813476562 211.39036560058594 218.51507568359375" stroke-width="0.0" fill="rgb(4, 4, 4)" opacity="0.9900079"/>
    <path d="M 180.85476684570312 99.91943359375 C 178.70611572265625 106.86869049072266 171.9127197265625 111.16416931152344 165.95655822753906 113.0080337524414 C 158.4674530029297 111.01185607910156 152.94195556640625 105.54634857177734 149.01502990722656 98.04589080810547 C 151.0361328125 90.54279327392578 156.56390380859375 85.09862518310547 164.23651123046875 83.3917236328125 C 171.64251708984375 86.78559875488281 177.0457763671875 92.40937805175781 180.85476684570312 99.91943359375" stroke-width="0.0" fill="rgb(4, 3, 3)" opacity="0.99000216"/>
    <path d="M 122.02960205078125 81.15738677978516 C 120.46381378173828 89.2827377319336 115.52233123779297 95.00342559814453 108.00237274169922 97.00096130371094 C 100.5 94.9903793334961 95.0096206665039 89.5 93.0000228881836 82.00004577636719 C 95.0099105834961 74.50057220458984 100.50118255615234 69.01201629638672 107.93643951416016 67.05945587158203 C 115.3369369506836 69.18763732910156 120.92945861816406 74.62808990478516 122.02960205078125 81.15738677978516" stroke-width="0.0" fill="rgb(250, 250, 251)" opacity="1.0"/>
    <path d="M 156.6895751953125 231.68051147460938 C 154.2152862548828 239.55360412597656 148.4629364013672 244.94163513183594 140.98353576660156 246.98719787597656 C 133.5000457763672 244.99037170410156 128.009765625 239.4999237060547 126.00053405761719 231.99990844726562 C 128.0095977783203 224.4999542236328 133.4999237060547 219.009521484375 141.2477569580078 216.58746337890625 C 148.9288330078125 218.6288299560547 154.6154022216797 223.9832763671875 156.6895751953125 231.68051147460938" stroke-width="0.0" fill="rgb(255, 255, 255)" opacity="0.99031526"/>
    <path d="M 142.0 201.0 C 139.99038696289062 208.5 134.5 213.99038696289062 127.9097900390625 215.0607147216797 C 120.43525695800781 213.03622436523438 114.89573669433594 207.5863494873047 112.60691833496094 200.3329620361328 C 114.0096206665039 193.5 119.5 188.00961303710938 127.0 186.0 C 134.5 188.00961303710938 139.99038696289062 193.5 142.0 201.0" stroke-width="0.0" fill="rgb(49, 50, 49)" opacity="0.9900864"/>
    <path d="M 131.00009155273438 244.9999542236328 C 128.99038696289062 252.5 123.5 257.9903869628906 116.2808609008789 259.6852111816406 C 108.96702575683594 257.4851989746094 103.37352752685547 252.0734405517578 100.17726135253906 244.67335510253906 C 102.66896057128906 237.14419555664062 108.08733367919922 231.51419067382812 115.70569610595703 229.65231323242188 C 123.5000228881836 232.0095977783203 128.99046325683594 237.4999542236328 131.00009155273438 244.9999542236328" stroke-width="0.0" fill="rgb(255, 255, 255)" opacity="0.99028254"/>
    <path d="M 145.69967651367188 31.397903442382812 C 142.9921112060547 39.50566482543945 137.554931640625 45.15325927734375 129.61146545410156 47.871097564697266 C 122.10765075683594 45.52140808105469 117.19967651367188 39.694366455078125 115.02472686767578 31.888933181762695 C 117.00981903076172 24.500545501708984 122.50227355957031 19.016019821166992 130.09564208984375 17.157543182373047 C 138.07693481445312 18.558870315551758 143.74510192871094 23.829313278198242 145.69967651367188 31.397903442382812" stroke-width="0.0" fill="rgb(255, 255, 255)" opacity="0.99025506"/>
    <path d="M 160.0 43.0 C 157.99038696289062 50.5 152.5 55.990379333496094 145.17022705078125 57.872283935546875 C 138.05429077148438 55.52968978881836 132.74490356445312 49.85560607910156 130.70004272460938 42.41072082519531 C 132.0079345703125 35.49433898925781 137.46762084960938 29.91659927368164 144.8394012451172 27.632261276245117 C 152.5 30.009618759155273 157.99038696289062 35.5 160.0 43.0" stroke-width="0.0" fill="rgb(255, 255, 255)" opacity="0.9910155"/>
    <path d="M 83.0 91.0 C 80.9903793334961 98.5 75.5 103.9903793334961 68.65406799316406 105.29906463623047 C 61.2918586730957 103.16576385498047 55.729244232177734 97.7402572631836 53.4079704284668 90.6042709350586 C 55.08110046386719 83.49888610839844 60.45247268676758 77.93022155761719 67.96550750732422 75.96147918701172 C 75.5 78.0096206665039 80.9903793334961 83.5 83.0 91.0" stroke-width="0.0" fill="rgb(251, 252, 251)" opacity="1.0"/>
    <path d="M 127.86802673339844 18.909135818481445 C 126.00399017333984 26.535669326782227 120.61295318603516 32.24175262451172 113.26423645019531 34.52867126464844 C 105.49044799804688 32.01387405395508 100.00831604003906 26.50320816040039 98.60050201416016 19.575708389282227 C 100.80509948730469 12.296462059020996 106.30963897705078 6.8447065353393555 113.73735809326172 4.706592559814453 C 120.76766967773438 5.751739978790283 126.33067321777344 11.20859146118164 127.86802673339844 18.909135818481445" stroke-width="0.0" fill="rgb(255, 255, 255)" opacity="0.99024355"/>
    <path d="M 245.0119171142578 95.09426879882812 C 243.02737426757812 102.55879974365234 237.58651733398438 108.11090850830078 230.5113067626953 110.39606475830078 C 224.306884765625 108.23976135253906 218.8195343017578 102.67692565917969 215.08575439453125 96.65798950195312 C 218.00961303710938 88.5 223.5 83.0096206665039 231.42974853515625 80.61140441894531 C 239.16842651367188 82.31066131591797 243.1295166015625 88.76249694824219 245.0119171142578 95.09426879882812" stroke-width="0.0" fill="rgb(54, 55, 55)" opacity="0.99000406"/>
    <path d="M 140.06410217285156 186.87075805664062 C 138.99038696289062 193.5 133.5 198.99038696289062 126.0 201.0 C 118.5 198.99038696289062 113.0096206665039 193.5 110.88468170166016 185.8128204345703 C 112.44263458251953 177.7833251953125 117.65278625488281 172.08749389648438 126.162109375 170.01893615722656 C 134.262939453125 172.0936737060547 138.09727478027344 179.20245361328125 140.06410217285156 186.87075805664062" stroke-width="0.0" fill="rgb(77, 76, 75)" opacity="0.9900156"/>
    <path d="M 31.0 61.0 C 28.990381240844727 68.5 23.5 73.9903793334961 16.120357513427734 75.93894958496094 C 9.172059059143066 73.50526428222656 3.9363489151000977 67.65702819824219 1.992669939994812 61.94998550415039 C 3.9873557090759277 54.462345123291016 9.440629959106445 48.922611236572266 16.709957122802734 46.63304901123047 C 23.5 48.009620666503906 28.990381240844727 53.5 31.0 61.0" stroke-width="0.0" fill="rgb(7, 7, 7)" opacity="0.9900061"/>
    <path d="M 107.06736755371094 77.92351531982422 C 105.9903793334961 84.5 100.5 89.9903793334961 93.0 92.0 C 85.5 89.9903793334961 80.0096206665039 84.5 77.24471282958984 76.22899627685547 C 79.08773040771484 68.56242370605469 84.55017852783203 63.04864501953125 92.02558135986328 62.9899787902832 C 99.52246856689453 64.99301147460938 105.0184097290039 70.4732666015625 107.06736755371094 77.92351531982422" stroke-width="0.0" fill="rgb(3, 3, 2)" opacity="0.99000406"/>
    <path d="M 193.9432373046875 169.43197631835938 C 191.95809936523438 177.45240783691406 186.43377685546875 182.89959716796875 177.21206665039062 184.89312744140625 C 169.5572967529297 182.93658447265625 164.0629119873047 177.44313049316406 162.0369415283203 168.0704345703125 C 164.049072265625 160.55181884765625 169.5558319091797 155.05882263183594 178.79412841796875 153.0380096435547 C 186.46786499023438 155.03988647460938 191.9628448486328 160.53115844726562 193.9432373046875 169.43197631835938" stroke-width="0.0" fill="rgb(66, 66, 66)" opacity="0.9900188"/>
    <path d="M 195.93338012695312 139.0528106689453 C 194.30325317382812 146.9248046875 189.0748748779297 152.7172088623047 181.96640014648438 153.04029846191406 C 174.481201171875 151.00704956054688 168.9959716796875 145.51754760742188 166.99102783203125 138.0227813720703 C 167.14984130859375 130.67849731445312 172.7267303466797 125.31649780273438 180.66017150878906 123.7475357055664 C 188.5 126.0096206665039 193.99038696289062 131.5 195.93338012695312 139.0528106689453" stroke-width="0.0" fill="rgb(251, 251, 251)" opacity="0.99000347"/>
    <path d="M 85.0 113.0 C 82.9903793334961 120.5 77.5 125.9903793334961 70.84992980957031 127.24772644042969 C 63.45588684082031 125.03678131103516 57.97038650512695 119.54210662841797 54.03496170043945 112.02191162109375 C 56.02822494506836 104.52379608154297 61.526329040527344 99.03495025634766 69.06490325927734 97.05381774902344 C 77.5 100.0096206665039 82.9903793334961 105.5 85.0 113.0" stroke-width="0.0" fill="rgb(24, 24, 24)" opacity="0.9900023"/>
    <path d="M 107.98590850830078 24.021953582763672 C 105.9903793334961 31.5 100.5 36.990379333496094 93.0 39.0 C 85.5 36.990379333496094 80.0096206665039 31.5 78.0 24.0 C 80.0096206665039 16.5 85.5 11.009618759155273 93.21919250488281 8.456049919128418 C 100.34169006347656 11.160041809082031 105.89764404296875 16.638029098510742 107.98590850830078 24.021953582763672" stroke-width="0.0" fill="rgb(255, 255, 255)" opacity="0.99129224"/>
    <path d="M 218.03805541992188 181.0674285888672 C 216.12596130371094 189.05975341796875 212.1950225830078 195.7932891845703 203.43646240234375 196.03550720214844 C 196.87252807617188 194.38250732421875 191.0789794921875 189.34735107421875 189.9460906982422 182.8917999267578 C 191.92649841308594 175.33172607421875 197.1490478515625 169.30662536621094 204.79066467285156 167.96473693847656 C 212.40293884277344 168.1014404296875 217.90505981445312 173.59474182128906 218.03805541992188 181.0674285888672" stroke-width="0.0" fill="rgb(251, 251, 251)" opacity="1.0"/>
    <path d="M 68.51383209228516 33.82062530517578 C 67.82935333251953 41.35377883911133 62.36705017089844 46.87244415283203 54.74403762817383 48.76675796508789 C 47.068321228027344 45.632572174072266 41.91252899169922 39.7088508605957 38.17986297607422 32.042999267578125 C 40.187347412109375 26.424470901489258 47.46485900878906 20.98910140991211 54.86655807495117 18.993221282958984 C 60.54224395751953 20.983104705810547 66.0713119506836 26.43874168395996 68.51383209228516 33.82062530517578" stroke-width="0.0" fill="rgb(23, 23, 23)" opacity="0.9900019"/>
    <path d="M 212.64596557617188 41.52720260620117 C 209.99038696289062 49.5 204.5 54.990379333496094 196.75924682617188 57.25395965576172 C 189.04547119140625 55.462547302246094 183.5876922607422 49.93932342529297 181.8286590576172 42.19362258911133 C 184.0670623779297 34.599979400634766 189.66661071777344 29.276578903198242 197.3101043701172 26.21065902709961 C 204.11660766601562 29.431556701660156 210.5009307861328 34.57735061645508 212.64596557617188 41.52720260620117" stroke-width="0.0" fill="rgb(245, 245, 245)" opacity="1.0"/>
    <path d="M 62.0697135925293 94.9659423828125 C 61.96611785888672 102.46021270751953 56.40238571166992 106.07234954833984 48.602821350097656 108.00708770751953 C 41.44315719604492 106.0204849243164 35.839351654052734 100.60322570800781 33.35786056518555 93.51509857177734 C 35.009620666503906 86.5 40.5 81.0096206665039 47.15901565551758 79.87259674072266 C 54.60649871826172 81.9339599609375 60.15504455566406 87.35946655273438 62.0697135925293 94.9659423828125" stroke-width="0.0" fill="rgb(12, 11, 12)" opacity="0.99000233"/>
    <path d="M 110.0362548828125 119.38130187988281 C 109.95014953613281 128.467529296875 104.47088623046875 133.963623046875 96.9312744140625 135.94097900390625 C 88.5 132.99038696289062 83.0096206665039 127.5 80.41094970703125 119.580078125 C 82.57317352294922 112.82825469970703 89.19735717773438 107.8558349609375 95.43245697021484 105.94319152832031 C 102.62030029296875 107.9306411743164 108.95734405517578 113.29154205322266 110.0362548828125 119.38130187988281" stroke-width="0.0" fill="rgb(44, 45, 45)" opacity="0.9900018"/>
    <path d="M 120.96920013427734 175.0740203857422 C 118.8116455078125 184.15965270996094 112.9172134399414 189.2200469970703 104.0967788696289 191.9534149169922 C 96.62786865234375 189.9163360595703 91.1506118774414 184.33273315429688 90.86858367919922 175.38226318359375 C 91.17227172851562 167.67970275878906 96.66988372802734 162.14785766601562 105.78081512451172 160.06402587890625 C 113.44635009765625 162.0648956298828 118.95976257324219 167.5436553955078 120.96920013427734 175.0740203857422" stroke-width="0.0" fill="rgb(225, 225, 225)" opacity="1.0"/>
    <path d="M 94.17926025390625 130.6606903076172 C 92.9903793334961 137.5 87.5 142.99038696289062 79.99884796142578 145.00045776367188 C 72.48238372802734 142.99859619140625 67.21006774902344 137.45245361328125 64.05873107910156 129.0628662109375 C 66.04547119140625 121.53619384765625 71.5308837890625 116.03233337402344 79.18841552734375 114.0123062133789 C 88.43215942382812 116.04588317871094 92.96339416503906 121.64348602294922 94.17926025390625 130.6606903076172" stroke-width="0.0" fill="rgb(181, 181, 181)" opacity="0.99003655"/>
    <path d="M 55.92914581298828 84.03947448730469 C 52.0467529296875 91.57825469970703 46.577449798583984 97.04745483398438 39.11548614501953 99.08253479003906 C 32.5 97.9903793334961 27.009618759155273 92.5 25.0 85.0 C 27.009618759155273 77.5 32.5 72.0096206665039 39.1126823425293 70.92876434326172 C 46.61846923828125 72.94416046142578 53.88890075683594 77.9321517944336 55.92914581298828 84.03947448730469" stroke-width="0.0" fill="rgb(250, 251, 251)" opacity="0.9900049"/>
    <path d="M 86.01996612548828 79.94817352294922 C 84.99201965332031 86.50045013427734 79.50000762939453 91.9903793334961 71.9915771484375 94.00785064697266 C 64.53742218017578 91.9984130859375 59.36308670043945 86.33601379394531 57.355690002441406 78.54159545898438 C 58.230552673339844 70.69852447509766 63.67739486694336 65.16063690185547 71.23773956298828 63.170936584472656 C 78.95217895507812 66.3661880493164 84.05299377441406 72.34072875976562 86.01996612548828 79.94817352294922" stroke-width="0.0" fill="rgb(251, 251, 251)" opacity="0.9900128"/>
    <path d="M 156.65447998046875 162.33236694335938 C 154.99038696289062 169.5 149.5 174.99038696289062 142.38623046875 176.5370635986328 C 135.0129852294922 174.40200805664062 129.3839569091797 169.05413818359375 127.10332489013672 161.8668212890625 C 129.00961303710938 154.5 134.5 149.00961303710938 142.38937377929688 146.2359161376953 C 148.9399871826172 149.5259552001953 154.40184020996094 155.0788116455078 156.65447998046875 162.33236694335938" stroke-width="0.0" fill="rgb(178, 178, 178)" opacity="1.0"/>
    <path d="M 147.08448791503906 116.06855773925781 C 145.0697021484375 123.60320281982422 139.60101318359375 129.06640625 132.1400146484375 131.0904998779297 C 125.5 129.99038696289062 120.0096206665039 124.5 118.2936019897461 117.2688980102539 C 120.49829864501953 109.93488311767578 125.88506317138672 104.3353042602539 133.17648315429688 102.0477523803711 C 141.01870727539062 103.66141510009766 146.83009338378906 108.79195404052734 147.08448791503906 116.06855773925781" stroke-width="0.0" fill="rgb(52, 52, 53)" opacity="0.9900253"/>
    <path d="M 175.1358184814453 37.857398986816406 C 173.99038696289062 44.5 168.5 49.990379333496094 161.00027465820312 51.999916076660156 C 153.52426147460938 49.98290252685547 148.4657745361328 44.29943084716797 146.98252868652344 37.931583404541016 C 148.9533233642578 30.39202308654785 154.3026580810547 24.696069717407227 160.07012939453125 22.95363998413086 C 167.5413818359375 24.97718048095703 173.0424346923828 30.45180892944336 175.1358184814453 37.857398986816406" stroke-width="0.0" fill="rgb(51, 51, 51)" opacity="0.9900029"/>
    <path d="M 88.22821807861328 240.4246063232422 C 86.42068481445312 248.1641845703125 81.29757690429688 253.70880126953125 73.97246551513672 256.8531188964844 C 67.08419036865234 253.41140747070312 61.59572982788086 247.91693115234375 59.42811965942383 240.64321899414062 C 61.009620666503906 233.5 66.5 228.00961303710938 74.0 226.0 C 81.5 228.00961303710938 86.9903793334961 233.5 88.22821807861328 240.4246063232422" stroke-width="0.0" fill="rgb(255, 255, 255)" opacity="0.990259"/>
    <path d="M 256.2445983886719 6.157303333282471 C 254.05792236328125 13.564397811889648 248.5628204345703 19.052915573120117 242.8663787841797 21.027334213256836 C 235.32090759277344 19.19309425354004 229.87408447265625 13.658478736877441 227.3924102783203 6.216669082641602 C 228.8260498046875 -0.5627166032791138 234.49378967285156 -5.992086887359619 242.0378875732422 -8.023343086242676 C 249.75408935546875 -6.154942989349365 255.52902221679688 -0.8835418224334717 256.2445983886719 6.157303333282471" stroke-width="0.0" fill="rgb(251, 251, 251)" opacity="1.0"/>
    <path d="M 87.0 7.0 C 84.9903793334961 14.5 79.5 19.990381240844727 71.81182861328125 22.301898956298828 C 64.34586334228516 20.25583267211914 58.758419036865234 14.649176597595215 56.28037643432617 6.661971569061279 C 59.35083770751953 -0.26573944091796875 64.645751953125 -5.923142433166504 72.00789642333984 -7.998775005340576 C 79.5 -5.990381240844727 84.9903793334961 -0.5 87.0 7.0" stroke-width="0.0" fill="rgb(255, 255, 255)" opacity="0.99034286"/>
    <path d="M 148.8456573486328 205.9736785888672 C 147.1997528076172 213.87637329101562 141.96507263183594 219.52503967285156 133.56654357910156 221.58773803710938 C 125.6209487915039 219.82542419433594 120.07110595703125 214.41146850585938 118.07997131347656 206.88406372070312 C 121.465087890625 199.13406372070312 127.2895278930664 193.8964080810547 134.85145568847656 191.92355346679688 C 141.5 193.00961303710938 146.99038696289062 198.5 148.8456573486328 205.9736785888672" stroke-width="0.0" fill="rgb(251, 252, 252)" opacity="0.9904994"/>
    <path d="M 189.35581970214844 76.41862487792969 C 187.7239990234375 84.28446197509766 182.3245391845703 89.85330200195312 174.73294067382812 91.7884521484375 C 166.5 88.9903793334961 161.00961303710938 83.5 159.0 76.0 C 161.00961303710938 68.5 166.5 63.009620666503906 174.0 61.0 C 181.5 63.009620666503906 186.99038696289062 68.5 189.35581970214844 76.41862487792969" stroke-width="0.0" fill="rgb(244, 245, 244)" opacity="1.0"/>
    <path d="M 60.00210189819336 236.06260681152344 C 58.104549407958984 243.6641387939453 52.714019775390625 249.26528930664062 44.207576751708984 251.7783203125 C 36.55671691894531 249.92262268066406 31.044570922851562 244.45391845703125 30.83946990966797 236.9738006591797 C 32.98194122314453 229.46636962890625 38.47127151489258 223.99098205566406 45.96247482299805 221.99241638183594 C 51.764827728271484 223.89013671875 57.743412017822266 228.94639587402344 60.00210189819336 236.06260681152344" stroke-width="0.0" fill="rgb(252, 252, 252)" opacity="0.9900045"/>
    <path d="M 190.0577850341797 71.90341186523438 C 187.99038696289062 79.5 182.5 84.9903793334961 175.0 87.0 C 167.5 84.9903793334961 162.00961303710938 79.5 159.0408935546875 71.0958251953125 C 161.10374450683594 63.69491958618164 166.88427734375 58.58814239501953 175.52027893066406 56.3381462097168 C 183.08349609375 58.31411361694336 188.33543395996094 64.03184509277344 190.0577850341797 71.90341186523438" stroke-width="0.0" fill="rgb(2, 2, 3)" opacity="0.99189526"/>
    <path d="M 215.77072143554688 59.81080627441406 C 213.92994689941406 67.45301818847656 208.46421813964844 72.96476745605469 200.94854736328125 74.96614837646484 C 192.5 71.9903793334961 187.00978088378906 66.49995422363281 184.032470703125 58.059776306152344 C 186.04733276367188 50.55935287475586 191.5664825439453 45.058441162109375 199.0363311767578 43.70845413208008 C 206.6814422607422 46.92427062988281 212.56295776367188 52.12736892700195 215.77072143554688 59.81080627441406" stroke-width="0.0" fill="rgb(53, 53, 53)" opacity="0.99000627"/>
    <path d="M 157.03565979003906 199.6441192626953 C 156.53517150878906 207.1844940185547 151.2399444580078 212.77308654785156 143.63201904296875 214.7320098876953 C 135.5 211.99038696289062 130.00961303710938 206.5 128.65597534179688 199.4657440185547 C 129.76815795898438 190.6949920654297 134.59645080566406 185.06175231933594 142.03797912597656 184.9289093017578 C 149.58621215820312 186.96214294433594 155.1896514892578 192.35415649414062 157.03565979003906 199.6441192626953" stroke-width="0.0" fill="rgb(251, 251, 252)" opacity="0.9900285"/>
    <path d="M 242.9928741455078 114.1205062866211 C 240.9661102294922 123.45298767089844 235.31150817871094 127.05361938476562 226.033203125 129.01904296875 C 218.63417053222656 128.91744995117188 213.371337890625 123.26657104492188 212.8788604736328 115.7586898803711 C 214.78440856933594 108.29020690917969 220.3165740966797 102.8573989868164 227.79147338867188 100.57865905761719 C 235.4270477294922 101.12800598144531 240.96859741210938 106.54076385498047 242.9928741455078 114.1205062866211" stroke-width="0.0" fill="rgb(34, 34, 34)" opacity="0.99000204"/>
    <path d="M 222.04534912109375 143.9248809814453 C 220.1040802001953 149.59725952148438 214.56329345703125 155.02609252929688 208.8495330810547 157.00929260253906 C 201.4755859375 155.01119995117188 195.99171447753906 149.5231170654297 193.98745727539062 142.02676391601562 C 195.00961303710938 135.5 200.5 130.00961303710938 207.20782470703125 128.76817321777344 C 214.5565948486328 130.94032287597656 220.02313232421875 136.4553985595703 222.04534912109375 143.9248809814453" stroke-width="0.0" fill="rgb(2, 2, 2)" opacity="0.9900021"/>
    <path d="M 104.99041748046875 139.85203552246094 C 102.92378234863281 145.66249084472656 95.54745483398438 151.01629638671875 88.04302215576172 153.00985717773438 C 80.85309600830078 152.65097045898438 75.57422637939453 147.08689880371094 73.9323959350586 139.12225341796875 C 76.0096206665039 131.5 81.5 126.0096206665039 88.2529525756836 124.78429412841797 C 95.69457244873047 126.88264465332031 102.91993713378906 130.88397216796875 104.99041748046875 139.85203552246094" stroke-width="0.0" fill="rgb(2, 2, 3)" opacity="0.9900252"/>
    <path d="M 95.37191772460938 11.723176002502441 C 92.9903793334961 19.5 87.5 24.990381240844727 80.00000762939453 26.999996185302734 C 72.50005340576172 24.9903507232666 67.00980377197266 19.49990463256836 65.00033569335938 11.99991226196289 C 67.00977325439453 4.5001020431518555 72.50006103515625 -0.9903524518013 80.24189758300781 -3.2765188217163086 C 87.92984008789062 -1.446250319480896 93.45087432861328 4.0695061683654785 95.37191772460938 11.723176002502441" stroke-width="0.0" fill="rgb(255, 255, 255)" opacity="0.9909456"/>
    <path d="M 196.817138671875 216.21221923828125 C 193.99038696289062 224.5 188.5 229.99038696289062 181.81234741210938 231.1961212158203 C 174.44351196289062 229.05581665039062 168.97801208496094 223.5445556640625 166.97618103027344 216.03126525878906 C 167.03903198242188 208.53317260742188 172.536865234375 203.0514678955078 180.18637084960938 201.155029296875 C 189.37637329101562 203.14903259277344 194.89552307128906 208.60987854003906 196.817138671875 216.21221923828125" stroke-width="0.0" fill="rgb(76, 76, 76)" opacity="0.99000823"/>
    <path d="M 139.08168029785156 124.51457977294922 C 137.51441955566406 133.3564453125 133.44049072265625 138.9608917236328 125.95494079589844 140.97047424316406 C 118.35938262939453 137.1528778076172 111.08387756347656 131.99253845214844 110.93186950683594 125.97636413574219 C 112.9646987915039 118.3483657836914 116.6913833618164 111.08423614501953 124.1280746459961 109.08847045898438 C 132.32046508789062 112.11051177978516 137.42063903808594 117.85932159423828 139.08168029785156 124.51457977294922" stroke-width="0.0" fill="rgb(7, 7, 7)" opacity="0.9900028"/>
    <path d="M 149.92166137695312 157.08961486816406 C 146.9999542236328 165.5290069580078 141.66368103027344 171.3710174560547 133.06480407714844 173.96658325195312 C 125.52831268310547 171.96502685546875 120.02995300292969 166.47372436523438 118.00926208496094 157.16387939453125 C 120.02535247802734 149.51992797851562 125.5211181640625 144.02810668945312 134.85096740722656 142.0092010498047 C 142.47616577148438 144.0262908935547 147.95770263671875 149.52992248535156 149.92166137695312 157.08961486816406" stroke-width="0.0" fill="rgb(2, 2, 2)" opacity="0.9900035"/>
    <path d="M 130.91213989257812 95.12702941894531 C 128.65335083007812 104.30253601074219 123.40545654296875 109.94548797607422 115.95877075195312 111.98262023925781 C 108.27188110351562 108.07540893554688 101.11091613769531 104.22001647949219 99.13225555419922 96.82352447509766 C 102.0215835571289 88.53919219970703 107.82679748535156 83.63241577148438 114.10588836669922 81.9874038696289 C 123.30807495117188 83.84469604492188 128.929443359375 87.59001922607422 130.91213989257812 95.12702941894531" stroke-width="0.0" fill="rgb(3, 3, 3)" opacity="0.9900029"/>
    <path d="M 70.13883972167969 190.12734985351562 C 68.04159545898438 197.553955078125 62.55825424194336 203.0570068359375 55.2762451171875 205.02960205078125 C 48.79136657714844 203.25711059570312 42.7247428894043 198.8052215576172 40.9360237121582 191.0965118408203 C 43.009620666503906 183.5 48.5 178.00961303710938 56.93105697631836 175.03594970703125 C 64.41221618652344 177.0567626953125 69.72793579101562 182.65773010253906 70.13883972167969 190.12734985351562" stroke-width="0.0" fill="rgb(5, 5, 5)" opacity="0.9900118"/>
    <path d="M 149.72872924804688 255.3687744140625 C 147.1197509765625 262.5424499511719 141.5042724609375 267.99169921875 134.0000457763672 270.0000305175781 C 126.5 267.9903869628906 121.00963592529297 262.5 119.00052642822266 255.0000762939453 C 121.009765625 247.5000762939453 126.50008392333984 242.00979614257812 134.00001525878906 240.00279235839844 C 141.5107879638672 242.00637817382812 147.0872344970703 247.46145629882812 149.72872924804688 255.3687744140625" stroke-width="0.0" fill="rgb(252, 252, 254)" opacity="0.99249256"/>
    <path d="M 90.80262756347656 238.5778045654297 C 88.43946075439453 245.71902465820312 82.556884765625 251.01051330566406 75.00141906738281 252.99948120117188 C 67.50018310546875 250.99012756347656 62.00975036621094 245.49984741210938 59.97273635864258 237.9351348876953 C 61.687599182128906 229.9986114501953 66.8240966796875 224.2022247314453 74.26634979248047 222.14698791503906 C 82.51326751708984 224.97325134277344 87.99166870117188 230.4967041015625 90.80262756347656 238.5778045654297" stroke-width="0.0" fill="rgb(251, 251, 251)" opacity="0.991383"/>
    <path d="M 51.9811897277832 206.97483825683594 C 49.97514724731445 214.4802703857422 44.47951126098633 219.97361755371094 36.970054626464844 221.9838409423828 C 28.5 218.99038696289062 23.009618759155273 213.5 20.948991775512695 205.91891479492188 C 22.71817970275879 198.10464477539062 28.02605438232422 192.46202087402344 36.37583923339844 190.43807983398438 C 43.05669021606445 193.17572021484375 48.157737731933594 199.1832733154297 51.9811897277832 206.97483825683594" stroke-width="0.0" fill="rgb(239, 239, 239)" opacity="1.0"/>
    <path d="M 252.0 73.0 C 249.99038696289062 80.5 244.5 85.9903793334961 237.0 88.0 C 229.5 85.9903793334961 224.00961303710938 80.5 221.19613647460938 72.36676788330078 C 223.7958221435547 66.30403137207031 230.38026428222656 60.923179626464844 237.8152618408203 58.84415054321289 C 244.5 60.009620666503906 249.99038696289062 65.5 252.0 73.0" stroke-width="0.0" fill="rgb(17, 17, 17)" opacity="0.9900247"/>
    <path d="M 197.7881622314453 114.33776092529297 C 194.99038696289062 122.5 189.5 127.9903793334961 181.96485900878906 130.03114318847656 C 174.3717803955078 128.1010284423828 168.8313446044922 122.64874267578125 166.02720642089844 114.0522232055664 C 168.0432891845703 106.5584945678711 173.64175415039062 102.8648452758789 182.67819213867188 100.98350524902344 C 188.848876953125 102.81748962402344 195.71266174316406 107.39244079589844 197.7881622314453 114.33776092529297" stroke-width="0.0" fill="rgb(250, 250, 250)" opacity="0.99007905"/>
    <path d="M 46.980770111083984 96.03685760498047 C 43.083683013916016 103.57274627685547 37.54770278930664 109.01842498779297 30.04240608215332 111.02127075195312 C 24.287193298339844 109.35453796386719 18.963003158569336 103.59970092773438 16.988910675048828 96.07035064697266 C 18.757841110229492 89.98616790771484 23.626230239868164 84.0547103881836 31.304868698120117 81.82268524169922 C 39.346290588378906 83.27906036376953 44.95418930053711 88.57484436035156 46.980770111083984 96.03685760498047" stroke-width="0.0" fill="rgb(2, 2, 2)" opacity="0.99000597"/>
    <path d="M 232.91665649414062 214.74803161621094 C 230.91514587402344 223.40675354003906 225.39002990722656 228.862548828125 217.6730499267578 230.63720703125 C 210.05966186523438 227.6512908935547 204.92955017089844 221.68714904785156 202.9906005859375 215.66009521484375 C 204.95057678222656 208.30059814453125 208.80572509765625 201.16116333007812 217.41986083984375 200.96852111816406 C 225.03787231445312 202.3404083251953 230.82093811035156 206.7686309814453 232.91665649414062 214.74803161621094" stroke-width="0.0" fill="rgb(252, 252, 252)" opacity="0.9900097"/>
    <path d="M 109.54503631591797 91.71935272216797 C 107.56991577148438 99.02007293701172 101.87743377685547 104.22767639160156 95.31888580322266 106.07996368408203 C 88.0140151977539 104.26750183105469 82.1384506225586 99.23442077636719 79.17377471923828 91.31266784667969 C 81.32756805419922 84.8810043334961 88.18041229248047 79.75939178466797 95.53274536132812 77.54434967041016 C 102.5 79.0096206665039 107.9903793334961 84.5 109.54503631591797 91.71935272216797" stroke-width="0.0" fill="rgb(32, 32, 31)" opacity="0.99002314"/>
    <path d="M 183.75540161132812 82.75061798095703 C 181.91685485839844 90.44625854492188 176.4634246826172 95.96735382080078 168.4873809814453 97.9900131225586 C 159.598388671875 95.95359802246094 155.8788604736328 89.1920166015625 153.86203002929688 81.25506591796875 C 155.64236450195312 75.27205657958984 161.3673858642578 69.93484497070312 168.90206909179688 67.9136962890625 C 176.25460815429688 68.19229888916016 181.57376098632812 73.81735229492188 183.75540161132812 82.75061798095703" stroke-width="0.0" fill="rgb(249, 250, 250)" opacity="0.99000245"/>
    <path d="M 218.37942504882812 243.47445678710938 C 215.2381591796875 250.7831573486328 209.82247924804688 256.3741149902344 202.5502166748047 259.200439453125 C 194.95982360839844 257.5518493652344 189.57798767089844 252.00460815429688 187.3079376220703 243.34027099609375 C 189.142333984375 235.6117401123047 194.5910186767578 230.07937622070312 202.14527893066406 228.10931396484375 C 210.50730895996094 231.00721740722656 216.10731506347656 236.4586639404297 218.37942504882812 243.47445678710938" stroke-width="0.0" fill="rgb(255, 255, 255)" opacity="0.99028796"/>
    <path d="M 162.05804443359375 166.10086059570312 C 160.43743896484375 174.05845642089844 154.92869567871094 179.23463439941406 148.8289794921875 181.07266235351562 C 141.43617248535156 179.04586791992188 135.97067260742188 173.55630493164062 133.98880004882812 166.13487243652344 C 135.97947692871094 160.44837951660156 141.3691864013672 153.12757873535156 147.1666259765625 151.1305694580078 C 156.44537353515625 153.0770263671875 161.95559692382812 158.5446014404297 162.05804443359375 166.10086059570312" stroke-width="0.0" fill="rgb(233, 233, 232)" opacity="0.9900029"/>
    <path d="M 200.2501220703125 222.2108917236328 C 198.05796813964844 229.5517120361328 192.53663635253906 235.0141143798828 186.65359497070312 237.00770568847656 C 179.47682189941406 235.00946044921875 173.9897003173828 229.5235137939453 171.98648071289062 222.05862426757812 C 173.9320068359375 216.405517578125 179.4188690185547 210.9564208984375 186.9227752685547 208.97116088867188 C 193.9060516357422 209.4801483154297 199.1925811767578 215.2021026611328 200.2501220703125 222.2108917236328" stroke-width="0.0" fill="rgb(4, 4, 4)" opacity="0.9900024"/>
    <path d="M 156.1670684814453 82.21943664550781 C 154.0691680908203 89.57677459716797 148.57289123535156 95.05670928955078 141.15264892578125 97.11804962158203 C 134.0986328125 96.06216430664062 128.15977478027344 91.19419860839844 126.13909912109375 82.22428131103516 C 128.05465698242188 74.57007598876953 133.60728454589844 69.19391632080078 142.2954559326172 68.41035461425781 C 149.9677276611328 69.5442123413086 155.222900390625 75.08171844482422 156.1670684814453 82.21943664550781" stroke-width="0.0" fill="rgb(251, 251, 252)" opacity="1.0"/>
    <path d="M 230.8219757080078 54.38343811035156 C 228.8972930908203 62.4290771484375 223.44886779785156 67.956298828125 215.77569580078125 69.96842193603516 C 206.5543670654297 67.94947814941406 201.0644989013672 62.43937301635742 199.33401489257812 54.95414733886719 C 202.93882751464844 47.374916076660156 208.29576110839844 41.71128463745117 214.61932373046875 38.62185287475586 C 223.29052734375 40.32261276245117 228.82363891601562 45.67941665649414 230.8219757080078 54.38343811035156" stroke-width="0.0" fill="rgb(200, 199, 199)" opacity="1.0"/>
    <path d="M 258.06585693359375 141.48794555664062 C 256.0406799316406 148.54788208007812 250.54006958007812 154.01976013183594 243.192626953125 156.0121307373047 C 237.03518676757812 154.04612731933594 230.03997802734375 150.42921447753906 228.0374298095703 142.95416259765625 C 230.157470703125 133.75132751464844 235.86141967773438 128.30758666992188 244.88377380371094 126.01570129394531 C 252.03355407714844 128.07485961914062 256.0680847167969 135.36672973632812 258.06585693359375 141.48794555664062" stroke-width="0.0" fill="rgb(76, 76, 77)" opacity="0.99000335"/>
    <path d="M 110.97950744628906 32.960418701171875 C 108.96467590332031 40.45612335205078 103.42350006103516 45.818870544433594 94.03430938720703 47.98763656616211 C 86.5284423828125 45.971553802490234 81.05850982666016 40.46103286743164 79.17355346679688 32.84530258178711 C 82.00973510742188 24.500144958496094 87.50020599365234 19.009933471679688 95.0000228881836 17.000885009765625 C 102.49982452392578 19.009864807128906 107.99015808105469 24.50016975402832 110.97950744628906 32.960418701171875" stroke-width="0.0" fill="rgb(250, 251, 251)" opacity="0.9900064"/>
    <path d="M 168.9119873046875 17.881113052368164 C 166.94735717773438 25.45934295654297 161.46522521972656 30.963802337646484 153.85098266601562 32.986228942871094 C 144.61349487304688 30.92465591430664 139.143798828125 25.34967041015625 137.1123809814453 17.768644332885742 C 140.45928955078125 9.973738670349121 146.02256774902344 4.603102684020996 153.66275024414062 1.2386417388916016 C 161.14817810058594 3.271165132522583 166.50704956054688 8.930133819580078 168.9119873046875 17.881113052368164" stroke-width="0.0" fill="rgb(255, 255, 255)" opacity="1.0"/>
    <path d="M 87.00745391845703 187.17523193359375 C 85.055908203125 195.33804321289062 81.44647979736328 200.9564208984375 73.97566223144531 201.01670837402344 C 66.43881225585938 199.02195739746094 60.827308654785156 193.61354064941406 57.1247444152832 186.0995330810547 C 59.045475006103516 178.53074645996094 64.52404022216797 173.02651977539062 72.06593322753906 171.00750732421875 C 81.29854583740234 173.0606231689453 85.03654479980469 180.3787384033203 87.00745391845703 187.17523193359375" stroke-width="0.0" fill="rgb(2, 2, 2)" opacity="0.99000204"/>
    <path d="M 241.9999237060547 81.00019073486328 C 239.99038696289062 88.5 234.5 93.9903793334961 227.00001525878906 96.0 C 219.50111389160156 93.99005889892578 214.06578063964844 88.48316955566406 212.9799041748047 81.9482650756836 C 214.96701049804688 74.44524383544922 220.41400146484375 67.5496597290039 226.09254455566406 65.03282165527344 C 234.48513793945312 68.04705810546875 239.98858642578125 73.50463104248047 241.9999237060547 81.00019073486328" stroke-width="0.0" fill="rgb(2, 2, 2)" opacity="0.9900107"/>
    <path d="M 24.955759048461914 76.90544128417969 C 22.546363830566406 83.85189819335938 16.66166114807129 89.06378173828125 10.898540496826172 91.0097427368164 C 3.461329221725464 89.01763153076172 -2.0489282608032227 83.549560546875 -4.0912885665893555 77.59319305419922 C -2.037663221359253 70.45719146728516 3.4612531661987305 64.97550201416016 10.91558837890625 62.928565979003906 C 17.5 64.0096206665039 22.990381240844727 69.5 24.955759048461914 76.90544128417969" stroke-width="0.0" fill="rgb(3, 3, 3)" opacity="0.99000156"/>
    <path d="M 43.94801330566406 68.86272430419922 C 41.932064056396484 76.43310546875 36.4263801574707 81.91043090820312 28.781110763549805 83.76787567138672 C 20.5 80.9903793334961 15.009618759155273 75.5 13.0 68.0 C 15.009618759155273 60.5 20.5 55.009620666503906 28.876567840576172 52.10888671875 C 36.443450927734375 54.05976486206055 41.90605163574219 59.56523895263672 43.94801330566406 68.86272430419922" stroke-width="0.0" fill="rgb(70, 71, 70)" opacity="0.99004096"/>
    <path d="M 44.90005874633789 3.666377544403076 C 42.66425704956055 11.041402816772461 36.978824615478516 16.51361846923828 28.14784049987793 18.952890396118164 C 20.8236141204834 16.849498748779297 15.847929000854492 10.798349380493164 13.502113342285156 3.22281813621521 C 16.012916564941406 -4.4984564781188965 21.500659942626953 -9.990118980407715 29.000415802001953 -12.000142097473145 C 36.51051330566406 -9.994373321533203 42.12324523925781 -4.5492329597473145 44.90005874633789 3.666377544403076" stroke-width="0.0" fill="rgb(255, 255, 255)" opacity="0.990218"/>
    <path d="M 34.89398193359375 49.72673034667969 C 32.83683395385742 57.237701416015625 27.080650329589844 62.37264633178711 19.108871459960938 63.647621154785156 C 10.668389320373535 62.632965087890625 5.0640716552734375 57.40508270263672 3.0539846420288086 49.90915298461914 C 6.077980995178223 41.67768096923828 12.044046401977539 36.79328155517578 19.914630889892578 34.97418975830078 C 27.345272064208984 35.12949752807617 32.75389099121094 40.69005584716797 34.89398193359375 49.72673034667969" stroke-width="0.0" fill="rgb(243, 244, 243)" opacity="0.9900063"/>
    <path d="M 35.03813934326172 67.1181411743164 C 33.05401611328125 74.61219787597656 27.685909271240234 80.27245330810547 20.659677505493164 82.76581573486328 C 13.496767044067383 80.996337890625 8.008662223815918 75.50177001953125 5.16903018951416 67.15072631835938 C 7.057548522949219 59.53887939453125 12.531396865844727 54.03386306762695 20.034086227416992 53.98451614379883 C 27.569374084472656 55.969112396240234 33.08998489379883 61.4027214050293 35.03813934326172 67.1181411743164" stroke-width="0.0" fill="rgb(3, 3, 3)" opacity="0.9900036"/>
    <path d="M 255.13800048828125 252.85269165039062 C 253.94435119628906 259.4593505859375 248.47105407714844 264.9781494140625 240.98558044433594 267.0055236816406 C 233.3381805419922 265.07269287109375 227.5210723876953 259.8064270019531 225.17286682128906 251.47572326660156 C 227.27639770507812 244.30206298828125 234.2894287109375 239.92738342285156 241.95339965820312 237.97312927246094 C 248.72230529785156 238.18824768066406 253.09324645996094 245.2828369140625 255.13800048828125 252.85269165039062" stroke-width="0.0" fill="rgb(252, 252, 252)" opacity="1.0"/>
    <path d="M 42.0169563293457 88.95453643798828 C 40.48061752319336 95.90155029296875 36.16489028930664 101.76805877685547 27.66362762451172 103.85942077636719 C 20.668315887451172 101.78394317626953 15.946534156799316 94.64968872070312 13.951882362365723 87.08837127685547 C 14.441741943359375 79.78361511230469 19.683862686157227 74.12198638916016 27.136499404907227 72.04935455322266 C 34.568050384521484 75.91580200195312 40.02067565917969 81.45272827148438 42.0169563293457 88.95453643798828" stroke-width="0.0" fill="rgb(32, 32, 31)" opacity="0.99001145"/>
    <path d="M 182.03662109375 54.104610443115234 C 180.03550720214844 61.5504150390625 174.5476531982422 67.02861022949219 167.13783264160156 69.0315170288086 C 161.29347229003906 67.09491729736328 155.08035278320312 61.92259979248047 152.80345153808594 55.243431091308594 C 155.43795776367188 48.09221649169922 161.2432098388672 42.86101150512695 168.82965087890625 40.92481994628906 C 175.4757537841797 42.026466369628906 180.6023712158203 47.66177749633789 182.03662109375 54.104610443115234" stroke-width="0.0" fill="rgb(251, 252, 252)" opacity="0.99000424"/>
    <path d="M 130.0477294921875 197.92684936523438 C 129.3594970703125 205.0649871826172 124.26504516601562 210.8720245361328 116.8560791015625 212.9410400390625 C 107.81248474121094 210.65171813964844 102.24478912353516 205.22097778320312 101.97288513183594 197.91282653808594 C 103.9227294921875 190.39358520507812 109.38774871826172 184.90789794921875 116.89502716064453 181.32989501953125 C 122.59204864501953 184.74806213378906 128.0289764404297 190.44224548339844 130.0477294921875 197.92684936523438" stroke-width="0.0" fill="rgb(251, 251, 252)" opacity="0.99001426"/>
    <path d="M 107.55476379394531 220.51513671875 C 105.39321899414062 228.95159912109375 99.98627471923828 234.5214080810547 92.36888885498047 236.5106658935547 C 84.49835205078125 233.99087524414062 78.98764038085938 228.5076904296875 76.65931701660156 220.88629150390625 C 78.80314636230469 213.3972625732422 84.88301086425781 208.71755981445312 92.92308807373047 206.96910095214844 C 100.11483001708984 207.21041870117188 104.64043426513672 213.28622436523438 107.55476379394531 220.51513671875" stroke-width="0.0" fill="rgb(251, 251, 252)" opacity="0.99068546"/>
    <path d="M 199.59759521484375 133.8641815185547 C 197.95053100585938 141.4582977294922 192.45526123046875 146.9403839111328 184.78326416015625 148.91046142578125 C 175.74427795410156 146.791748046875 170.2720489501953 141.23268127441406 168.1700439453125 132.83102416992188 C 170.26014709472656 124.7995834350586 175.8324737548828 119.35896301269531 183.609375 117.65808868408203 C 191.47125244140625 120.0583724975586 196.97889709472656 125.51773071289062 199.59759521484375 133.8641815185547" stroke-width="0.0" fill="rgb(242, 242, 242)" opacity="1.0"/>
    <path d="M 115.97976684570312 84.9266586303711 C 113.89712524414062 91.10453796386719 106.6217269897461 96.06141662597656 99.07723999023438 98.04285430908203 C 91.5793228149414 97.92200469970703 86.11542510986328 92.4091567993164 85.74176025390625 84.88946533203125 C 87.91433715820312 77.31513214111328 92.26685333251953 70.13799285888672 100.54401397705078 68.01502990722656 C 106.72023010253906 70.21508026123047 112.10076904296875 77.3746337890625 115.97976684570312 84.9266586303711" stroke-width="0.0" fill="rgb(132, 133, 133)" opacity="0.9900225"/>
    <path d="M 70.31969451904297 234.5918731689453 C 68.02883911132812 242.58990478515625 62.69450378417969 248.33963012695312 55.248191833496094 250.6128387451172 C 47.57680892944336 247.7904815673828 42.00983428955078 242.48663330078125 39.85591125488281 234.7725830078125 C 41.37733459472656 226.72816467285156 46.6195068359375 221.06985473632812 55.8809814453125 219.0123748779297 C 63.415897369384766 221.05340576171875 68.75736999511719 226.6521759033203 70.31969451904297 234.5918731689453" stroke-width="0.0" fill="rgb(255, 252, 254)" opacity="1.0"/>
    <path d="M 149.9749755859375 103.02906799316406 C 146.08779907226562 110.66067504882812 140.7347412109375 116.27485656738281 133.2382354736328 119.76937103271484 C 125.92707061767578 117.74333190917969 121.55709838867188 111.59048461914062 119.76250457763672 103.43717193603516 C 120.3682632446289 95.72310638427734 125.6102294921875 90.06257629394531 133.05821228027344 88.02021789550781 C 142.45486450195312 90.10165405273438 147.97152709960938 95.52900695800781 149.9749755859375 103.02906799316406" stroke-width="0.0" fill="rgb(43, 43, 43)" opacity="0.9900251"/>
    <path d="M 63.985740661621094 49.67101287841797 C 61.81935501098633 55.97878646850586 54.67396545410156 61.09081268310547 47.24650573730469 63.01036834716797 C 39.55220413208008 62.80851745605469 34.03196334838867 57.46723175048828 32.01154708862305 49.73784255981445 C 34.05031204223633 40.60001754760742 40.042518615722656 36.828182220458984 48.78144073486328 34.88200378417969 C 55.87710952758789 35.8809814453125 61.87525177001953 40.76941680908203 63.985740661621094 49.67101287841797" stroke-width="0.0" fill="rgb(6, 6, 6)" opacity="0.9900018"/>
    <path d="M 165.01077270507812 136.97384643554688 C 164.38136291503906 142.82810974121094 157.6355743408203 148.05526733398438 150.04635620117188 150.01937866210938 C 142.55044555664062 149.9524688720703 137.49417114257812 144.42031860351562 136.97442626953125 136.90452575683594 C 138.96556091308594 129.44351196289062 144.44874572753906 123.97512817382812 150.09780883789062 121.9912338256836 C 157.5216827392578 123.99102783203125 163.00563049316406 129.47984313964844 165.01077270507812 136.97384643554688" stroke-width="0.0" fill="rgb(2, 2, 2)" opacity="0.99000126"/>
    <path d="M 17.01439094543457 38.162906646728516 C 16.67543601989746 46.388404846191406 11.406172752380371 51.87656021118164 3.7518310546875 52.01380920410156 C -3.9386098384857178 50.19335174560547 -9.92129135131836 45.31922149658203 -11.989972114562988 38.0165901184082 C -9.804342269897461 30.878334045410156 -3.7869107723236084 25.884319305419922 2.0493979454040527 23.990821838378906 C 9.52481746673584 25.991376876831055 15.027131080627441 31.46904945373535 17.01439094543457 38.162906646728516" stroke-width="0.0" fill="rgb(3, 3, 3)" opacity="0.99000174"/>
    <path d="M 65.02278137207031 188.98089599609375 C 64.97199249267578 196.47198486328125 59.45290756225586 201.78515625 51.104942321777344 202.01187133789062 C 44.296417236328125 200.11045837402344 38.754356384277344 194.77198791503906 35.11201858520508 187.09005737304688 C 37.069698333740234 179.65171813964844 44.3788948059082 175.97561645507812 51.96792221069336 173.9899444580078 C 57.59591293334961 175.9013214111328 63.02528762817383 181.43728637695312 65.02278137207031 188.98089599609375" stroke-width="0.0" fill="rgb(251, 252, 252)" opacity="0.9900012"/>
    <path d="M 35.636714935302734 167.64840698242188 C 33.842708587646484 175.35791015625 28.358278274536133 180.84239196777344 20.722150802612305 181.24960327148438 C 13.011834144592285 179.3580780029297 7.610569953918457 174.00070190429688 4.809575080871582 167.17710876464844 C 7.705700397491455 160.17445373535156 13.173681259155273 154.70225524902344 20.21356201171875 151.46624755859375 C 27.5 154.00961303710938 32.990379333496094 159.5 35.636714935302734 167.64840698242188" stroke-width="0.0" fill="rgb(255, 255, 255)" opacity="0.99015695"/>
    <path d="M 100.0122299194336 136.0271759033203 C 98.00676727294922 143.5194549560547 92.518798828125 149.00523376464844 85.03303527832031 151.0076446533203 C 79.00279235839844 149.22317504882812 73.04683685302734 144.3907012939453 71.55896759033203 137.6175079345703 C 73.87291717529297 130.39755249023438 79.42923736572266 124.96487426757812 86.90548706054688 122.9827880859375 C 94.41610717773438 123.52938842773438 99.94879150390625 128.5539093017578 100.0122299194336 136.0271759033203" stroke-width="0.0" fill="rgb(248, 247, 249)" opacity="0.99000186"/>
    <path d="M 36.972381591796875 118.31598663330078 C 34.8750114440918 127.31478118896484 29.252592086791992 132.71405029296875 20.131153106689453 133.0439910888672 C 12.987874984741211 132.79673767089844 8.622854232788086 126.13633728027344 6.982243537902832 119.8665542602539 C 8.739044189453125 110.66341400146484 12.612824440002441 105.14283752441406 20.052961349487305 104.9908218383789 C 27.744983673095703 106.96475219726562 34.938232421875 110.60578918457031 36.972381591796875 118.31598663330078" stroke-width="0.0" fill="rgb(252, 252, 252)" opacity="0.99000096"/>
    <path d="M 239.04046630859375 86.09703826904297 C 237.1026611328125 94.03619384765625 233.2481689453125 100.82283782958984 224.1884307861328 101.04714965820312 C 216.54864501953125 100.9370346069336 211.03611755371094 95.46162414550781 209.01942443847656 87.9371337890625 C 211.05868530273438 78.54767608642578 216.53880310058594 73.0364761352539 224.0836944580078 71.01165771484375 C 233.3582763671875 73.07852172851562 238.5384063720703 78.78218078613281 239.04046630859375 86.09703826904297" stroke-width="0.0" fill="rgb(161, 162, 161)" opacity="0.99000907"/>
    <path d="M 221.89520263671875 125.3968505859375 C 219.8026123046875 132.82083129882812 212.6228790283203 137.03411865234375 205.0469970703125 139.01463317871094 C 199.38465881347656 137.1233673095703 193.8973388671875 131.61151123046875 191.8580322265625 124.23428344726562 C 193.4164276123047 118.00072479248047 199.0953369140625 112.70352172851562 206.88368225097656 109.06536102294922 C 214.34622192382812 111.10625457763672 219.59811401367188 116.73503112792969 221.89520263671875 125.3968505859375" stroke-width="0.0" fill="rgb(250, 250, 251)" opacity="0.99000317"/>
    <path d="M 197.0806884765625 38.11859130859375 C 195.03253173828125 45.54191589355469 189.541015625 51.02986145019531 182.09266662597656 53.03630828857422 C 175.52734375 51.92879867553711 170.39581298828125 46.34571075439453 168.98471069335938 39.949310302734375 C 170.96160888671875 32.40099334716797 176.29063415527344 26.566980361938477 182.8528594970703 23.136022567749023 C 190.1644744873047 26.200101852416992 195.51937866210938 31.90624237060547 197.0806884765625 38.11859130859375" stroke-width="0.0" fill="rgb(251, 251, 252)" opacity="0.99000907"/>
    <path d="M 45.97679901123047 161.9680938720703 C 43.96897506713867 169.46914672851562 38.459075927734375 174.93899536132812 30.979625701904297 175.01019287109375 C 23.482341766357422 173.00445556640625 17.99456024169922 167.51809692382812 15.994111061096191 161.81988525390625 C 17.992341995239258 154.4698944091797 23.434303283691406 147.18194580078125 30.86295509338379 145.0133514404297 C 38.370216369628906 147.06735229492188 42.070316314697266 154.06922912597656 45.97679901123047 161.9680938720703" stroke-width="0.0" fill="rgb(2, 2, 2)" opacity="0.9900011"/>
    <path d="M 46.006813049316406 207.055908203125 C 44.00474166870117 214.5176544189453 38.519142150878906 220.00889587402344 31.459516525268555 222.01394653320312 C 25.47022819519043 220.02137756347656 19.99444580078125 214.52304077148438 17.994251251220703 207.0772705078125 C 19.990835189819336 201.4774627685547 25.477876663208008 195.99176025390625 32.92110824584961 193.99179077148438 C 38.547386169433594 195.97470092773438 44.02196502685547 201.45449829101562 46.006813049316406 207.055908203125" stroke-width="0.0" fill="rgb(7, 8, 8)" opacity="0.9900007"/>
    <path d="M 163.1522979736328 52.82960510253906 C 161.70620727539062 59.18287658691406 156.20462036132812 64.81824493408203 148.7902374267578 67.86377716064453 C 141.76856994628906 65.33442687988281 136.7197265625 58.947757720947266 133.49942016601562 51.649017333984375 C 135.9188232421875 44.292633056640625 140.9931640625 38.26943588256836 149.8849639892578 36.02178192138672 C 155.66098022460938 38.17558288574219 161.06085205078125 45.41282653808594 163.1522979736328 52.82960510253906" stroke-width="0.0" fill="rgb(251, 251, 251)" opacity="0.9900126"/>
    <path d="M 226.29685974121094 229.47157287597656 C 225.82101440429688 238.3461456298828 220.34555053710938 243.82485961914062 212.62176513671875 245.63169860839844 C 204.48562622070312 242.99436950683594 198.68470764160156 237.62620544433594 196.01107788085938 229.02696228027344 C 198.02772521972656 221.52903747558594 203.54197692871094 216.06369018554688 211.17222595214844 214.19261169433594 C 219.71047973632812 216.89889526367188 225.55673217773438 222.12255859375 226.29685974121094 229.47157287597656" stroke-width="0.0" fill="rgb(252, 252, 252)" opacity="1.0"/>
    <path d="M 246.6365203857422 166.99517822265625 C 244.56787109375 175.09825134277344 239.11990356445312 180.64071655273438 230.80198669433594 182.75592041015625 C 223.07118225097656 180.48341369628906 217.22000122070312 175.09817504882812 216.8769989013672 167.84251403808594 C 218.61566162109375 160.0739288330078 224.18670654296875 154.82643127441406 231.80833435058594 152.9772186279297 C 238.97621154785156 153.3686981201172 243.9120635986328 159.24893188476562 246.6365203857422 166.99517822265625" stroke-width="0.0" fill="rgb(251, 251, 252)" opacity="1.0"/>
    <path d="M 203.93711853027344 72.32160186767578 C 200.17095947265625 79.72062683105469 195.25799560546875 86.85685729980469 187.64830017089844 88.97640991210938 C 180.23968505859375 86.87504577636719 175.8463592529297 79.7265625 172.02980041503906 72.09970092773438 C 174.07119750976562 64.5879898071289 179.6050262451172 59.10997772216797 188.8417510986328 57.0246696472168 C 196.42283630371094 59.07068634033203 201.92730712890625 64.57727813720703 203.93711853027344 72.32160186767578" stroke-width="0.0" fill="rgb(138, 139, 139)" opacity="0.99024403"/>
    <path d="M 257.03485107421875 57.833824157714844 C 255.0601348876953 63.60444641113281 249.64869689941406 69.201904296875 242.5491943359375 71.65489959716797 C 236.06015014648438 69.68177032470703 230.90280151367188 63.72062683105469 228.98550415039062 57.94713592529297 C 230.98748779296875 50.46575927734375 236.45286560058594 44.95526123046875 243.97421264648438 41.03892517089844 C 250.24534606933594 43.05675506591797 255.0302734375 50.429893493652344 257.03485107421875 57.833824157714844" stroke-width="0.0" fill="rgb(20, 20, 21)" opacity="0.9900019"/>
    <path d="M 200.03125 192.0351104736328 C 198.0271759033203 199.54183959960938 192.53915405273438 205.02127075195312 185.071533203125 207.03619384765625 C 177.6558837890625 205.89906311035156 172.0463409423828 201.42942810058594 171.8095245361328 193.95741271972656 C 173.88766479492188 186.2687530517578 179.1314239501953 180.5975799560547 186.9473114013672 177.03073120117188 C 194.46322631835938 179.03953552246094 199.96067810058594 184.53652954101562 200.03125 192.0351104736328" stroke-width="0.0" fill="rgb(67, 67, 67)" opacity="0.9900034"/>
    <path d="M 89.49674224853516 32.534236907958984 C 87.7757568359375 40.28959274291992 82.29983520507812 45.80949783325195 73.27912139892578 47.94499206542969 C 67.20179748535156 45.44508743286133 60.11393737792969 39.33610534667969 58.011878967285156 31.101526260375977 C 60.037757873535156 23.546361923217773 65.57127380371094 18.112749099731445 73.32805633544922 16.4067440032959 C 81.49942016601562 19.010581970214844 86.98989868164062 24.50043487548828 89.49674224853516 32.534236907958984" stroke-width="0.0" fill="rgb(252, 252, 252)" opacity="0.9910614"/>
    <path d="M 90.98798370361328 142.95700073242188 C 88.96991729736328 150.47265625 83.47088623046875 155.9662628173828 75.90892028808594 157.98797607421875 C 66.84442138671875 155.92263793945312 62.945396423339844 148.6367645263672 60.97187805175781 141.06906127929688 C 61.05839157104492 133.54550170898438 66.54138946533203 128.04470825195312 74.15361022949219 126.01978302001953 C 83.3138427734375 128.0918426513672 88.7560043334961 133.83001708984375 90.98798370361328 142.95700073242188" stroke-width="0.0" fill="rgb(104, 106, 106)" opacity="0.99000615"/>
    <path d="M 93.04438781738281 100.30500793457031 C 91.048828125 107.57196807861328 85.56836700439453 113.0407485961914 78.10699462890625 115.01345825195312 C 72.37013244628906 113.09015655517578 66.89430236816406 107.63591766357422 63.03899002075195 100.09183502197266 C 66.91722869873047 94.4363784790039 72.43415832519531 88.90108489990234 79.6171646118164 85.0241470336914 C 85.64935302734375 87.81407928466797 91.06167602539062 94.4050521850586 93.04438781738281 100.30500793457031" stroke-width="0.0" fill="rgb(3, 3, 3)" opacity="0.9900023"/>
    <path d="M 259.0697326660156 74.13264465332031 C 257.0357360839844 80.5389175415039 251.5300750732422 86.01113891601562 244.02584838867188 88.01290893554688 C 236.88198852539062 87.89588928222656 232.9648895263672 80.62005615234375 230.98170471191406 73.04755401611328 C 232.77554321289062 67.25739288330078 238.26097106933594 61.78818893432617 244.1775665283203 59.91689682006836 C 251.5540771484375 61.95672607421875 257.0414123535156 67.44657897949219 259.0697326660156 74.13264465332031" stroke-width="0.0" fill="rgb(2, 2, 2)" opacity="0.9900023"/>
  </g>
</svg>
