<?xml version="1.0" ?>
<svg xmlns="http://www.w3.org/2000/svg" version="1.1" width="256" height="256">
  <defs/>
  <g>
    <path d="M 34.0 104.0 C 31.32050895690918 114.0 24.0 121.32051086425781 14.0 124.0 C 4.0 121.32051086425781 -3.3205080032348633 114.0 -6.0 104.0 C -3.3205080032348633 94.0 4.0 86.67948913574219 14.0 84.0 C 24.0 86.67948913574219 31.32050895690918 94.0 34.0 104.0" stroke-width="0.0" fill="rgb(254, 254, 254)" opacity="1.0"/>
    <path d="M 36.0 231.0 C 33.32050704956055 241.0 26.0 248.3205108642578 16.0 251.0 C 6.0 248.3205108642578 -1.3205081224441528 241.0 -4.0 231.0 C -1.3205081224441528 221.0 6.0 213.6794891357422 16.0 211.0 C 26.0 213.6794891357422 33.32050704956055 221.0 36.0 231.0" stroke-width="0.0" fill="rgb(254, 254, 254)" opacity="1.0"/>
    <path d="M 116.0 237.0 C 113.32051086425781 247.0 106.0 254.3205108642578 96.0 257.0 C 86.0 254.3205108642578 78.67948913574219 247.0 76.0 237.0 C 78.67948913574219 227.0 86.0 219.6794891357422 96.0 217.0 C 106.0 219.6794891357422 113.32051086425781 227.0 116.0 237.0" stroke-width="0.0" fill="rgb(254, 254, 254)" opacity="1.0"/>
    <path d="M 197.34617614746094 245.37896728515625 C 193.6909637451172 255.58131408691406 186.7968292236328 263.25079345703125 177.00286865234375 266.0122375488281 C 167.0 263.32049560546875 159.6794891357422 256.0 157.0 246.0 C 159.6794891357422 236.0 167.0 228.6794891357422 176.99832153320312 226.00064086914062 C 186.96011352539062 228.69546508789062 194.15614318847656 236.086181640625 197.34617614746094 245.37896728515625" stroke-width="0.0" fill="rgb(255, 255, 255)" opacity="0.9907339"/>
    <path d="M 33.0 181.0 C 30.32050895690918 191.0 23.0 198.3205108642578 13.0 201.0 C 3.0 198.3205108642578 -4.320508003234863 191.0 -7.0 181.0 C -4.320508003234863 171.0 3.0 163.6794891357422 13.0 161.0 C 23.0 163.6794891357422 30.32050895690918 171.0 33.0 181.0" stroke-width="0.0" fill="rgb(254, 254, 254)" opacity="1.0"/>
    <path d="M 165.0 237.0 C 162.3205108642578 247.0 155.0 254.3205108642578 145.0 257.0 C 135.0 254.3205108642578 127.67948913574219 247.0 125.0 237.0 C 127.67948913574219 227.0 135.0 219.6794891357422 145.0 217.0 C 155.0 219.6794891357422 162.3205108642578 227.0 165.0 237.0" stroke-width="0.0" fill="rgb(254, 254, 254)" opacity="1.0"/>
    <path d="M 248.0 226.0 C 245.3205108642578 236.0 238.0 243.3205108642578 228.0 246.0 C 218.0 243.3205108642578 210.6794891357422 236.0 208.0 226.0 C 210.6794891357422 216.0 218.0 208.6794891357422 228.0 206.0 C 238.0 208.6794891357422 245.3205108642578 216.0 248.0 226.0" stroke-width="0.0" fill="rgb(254, 254, 254)" opacity="1.0"/>
    <path d="M 247.0 255.0 C 244.3205108642578 265.0 237.0 272.32049560546875 227.0 275.0 C 217.0 272.32049560546875 209.6794891357422 265.0 207.0 255.0 C 209.6794891357422 245.0 217.0 237.6794891357422 227.0 235.0 C 237.0 237.6794891357422 244.3205108642578 245.0 247.0 255.0" stroke-width="0.0" fill="rgb(254, 254, 254)" opacity="1.0"/>
    <path d="M 32.0 145.0 C 29.32050895690918 155.0 22.0 162.3205108642578 12.0 165.0 C 2.0 162.3205108642578 -5.320508003234863 155.0 -8.0 145.0 C -5.320508003234863 135.0 2.0 127.67948913574219 12.0 125.0 C 22.0 127.67948913574219 29.32050895690918 135.0 32.0 145.0" stroke-width="0.0" fill="rgb(253, 253, 254)" opacity="1.0"/>
    <path d="M 40.00899124145508 93.93339538574219 C 37.538169860839844 102.46751403808594 30.855064392089844 110.26807403564453 20.99681282043457 112.99893951416016 C 11.0 110.32051086425781 3.6794919967651367 103.0 1.0 93.0 C 3.6794919967651367 83.0 11.0 75.67948913574219 20.917224884033203 73.03654479980469 C 30.345806121826172 76.1157455444336 37.379600524902344 83.86001586914062 40.00899124145508 93.93339538574219" stroke-width="0.0" fill="rgb(3, 3, 2)" opacity="0.9900324"/>
    <path d="M 38.0 145.0 C 35.32050704956055 155.0 28.0 162.3205108642578 18.0 165.0 C 8.0 162.3205108642578 0.6794919371604919 155.0 -2.0 145.0 C 0.6794919371604919 135.0 8.0 127.67948913574219 18.0 125.0 C 28.0 127.67948913574219 35.32050704956055 135.0 38.0 145.0" stroke-width="0.0" fill="rgb(253, 253, 253)" opacity="1.0"/>
    <path d="M 272.99932861328125 227.00181579589844 C 270.32049560546875 237.0 263.0 244.3205108642578 253.0 247.0 C 243.0 244.3205108642578 235.6794891357422 237.0 232.99069213867188 226.9811553955078 C 235.56988525390625 216.79684448242188 242.6402130126953 209.13612365722656 252.46900939941406 206.26678466796875 C 262.84222412109375 210.00807189941406 270.3005065917969 217.052490234375 272.99932861328125 227.00181579589844" stroke-width="0.0" fill="rgb(255, 255, 255)" opacity="0.9907449"/>
    <path d="M 35.15680694580078 239.188232421875 C 32.76029968261719 249.4608612060547 25.47186851501465 256.7982482910156 15.234908103942871 259.23382568359375 C 5.0 256.32049560546875 -2.3205080032348633 249.0 -5.0 239.0 C -2.3205080032348633 229.0 5.0 221.6794891357422 15.0 219.0 C 25.0 221.6794891357422 32.32050704956055 229.0 35.15680694580078 239.188232421875" stroke-width="0.0" fill="rgb(255, 255, 255)" opacity="0.9917495"/>
    <path d="M 37.0 221.0 C 34.32050704956055 231.0 27.0 238.3205108642578 17.0 241.0 C 7.0 238.3205108642578 -0.32050806283950806 231.0 -3.0 221.0 C -0.32050806283950806 211.0 7.0 203.6794891357422 17.0 201.0 C 27.0 203.6794891357422 34.32050704956055 211.0 37.0 221.0" stroke-width="0.0" fill="rgb(254, 254, 254)" opacity="1.0"/>
    <path d="M 268.0 235.0 C 265.32049560546875 245.0 258.0 252.3205108642578 248.0 255.0 C 238.0 252.3205108642578 230.6794891357422 245.0 228.0 235.0 C 230.6794891357422 225.0 238.0 217.6794891357422 248.000244140625 214.99945068359375 C 258.0001525878906 217.67918395996094 265.3205261230469 224.99993896484375 268.0 235.0" stroke-width="0.0" fill="rgb(254, 254, 254)" opacity="1.0"/>
    <path d="M 31.0 195.0 C 28.32050895690918 205.0 21.0 212.3205108642578 11.0 215.0 C 1.0 212.3205108642578 -6.320508003234863 205.0 -9.0 195.0 C -6.320508003234863 185.0 1.0 177.6794891357422 11.0 175.0 C 21.0 177.6794891357422 28.32050895690918 185.0 31.0 195.0" stroke-width="0.0" fill="rgb(254, 254, 254)" opacity="1.0"/>
    <path d="M 186.0 246.0 C 183.3205108642578 256.0 176.0 263.32049560546875 166.0 266.0 C 156.0 263.32049560546875 148.6794891357422 256.0 146.0 246.0 C 148.6794891357422 236.0 156.0 228.6794891357422 166.0 226.0 C 176.0 228.6794891357422 183.3205108642578 236.0 186.0 246.0" stroke-width="0.0" fill="rgb(254, 254, 254)" opacity="1.0"/>
    <path d="M 43.773406982421875 136.3615264892578 C 40.32050704956055 147.0 33.0 154.3205108642578 23.0 157.0 C 13.0 154.3205108642578 5.679491996765137 147.0 3.0 137.0 C 5.679491996765137 127.0 13.0 119.67948913574219 23.249404907226562 116.79741668701172 C 33.62730026245117 119.11947631835938 41.07265090942383 126.31187438964844 43.773406982421875 136.3615264892578" stroke-width="0.0" fill="rgb(255, 255, 255)" opacity="0.990494"/>
    <path d="M 153.0 234.0 C 150.3205108642578 244.0 143.0 251.3205108642578 133.0 254.0 C 123.0 251.3205108642578 115.67948913574219 244.0 113.0 234.0 C 115.67948913574219 224.0 123.0 216.6794891357422 133.0 214.0 C 143.0 216.6794891357422 150.3205108642578 224.0 153.0 234.0" stroke-width="0.0" fill="rgb(254, 254, 254)" opacity="1.0"/>
    <path d="M 22.0 183.0 C 19.32050895690918 193.0 12.0 200.3205108642578 2.0 203.0 C -8.0 200.3205108642578 -15.320508003234863 193.0 -18.0 183.0 C -15.320508003234863 173.0 -8.0 165.6794891357422 2.0 163.0 C 12.0 165.6794891357422 19.32050895690918 173.0 22.0 183.0" stroke-width="0.0" fill="rgb(253, 253, 254)" opacity="1.0"/>
    <path d="M 32.0 221.0 C 29.32050895690918 231.0 22.0 238.3205108642578 12.0 241.0 C 2.0 238.3205108642578 -5.320508003234863 231.0 -8.0 221.0 C -5.320508003234863 211.0 2.0 203.6794891357422 12.0 201.0 C 22.0 203.6794891357422 29.32050895690918 211.0 32.0 221.0" stroke-width="0.0" fill="rgb(253, 254, 254)" opacity="1.0"/>
    <path d="M 240.0 232.0 C 237.3205108642578 242.0 230.0 249.3205108642578 219.99685668945312 252.00140380859375 C 209.95816040039062 249.3410186767578 202.61239624023438 242.0574188232422 199.1459197998047 231.24490356445312 C 201.8729705810547 221.2627410888672 209.32154846191406 214.03768920898438 219.63250732421875 211.60726928710938 C 230.0 214.6794891357422 237.3205108642578 222.0 240.0 232.0" stroke-width="0.0" fill="rgb(255, 255, 255)" opacity="0.9904128"/>
    <path d="M 25.0 172.0 C 22.32050895690918 182.0 15.0 189.3205108642578 5.0 192.0 C -5.0 189.3205108642578 -12.320508003234863 182.0 -15.0 172.0 C -12.320508003234863 162.0 -5.0 154.6794891357422 5.0 152.0 C 15.0 154.6794891357422 22.32050895690918 162.0 25.0 172.0" stroke-width="0.0" fill="rgb(253, 253, 254)" opacity="1.0"/>
    <path d="M 106.9993896484375 237.00164794921875 C 104.32051086425781 247.0 97.0 254.3205108642578 87.02698516845703 256.9845886230469 C 77.20089721679688 254.19517517089844 70.12924194335938 246.69065856933594 67.51055145263672 236.40626525878906 C 68.92949676513672 226.28028869628906 76.31353759765625 219.0530548095703 86.58392333984375 217.1590118408203 C 96.8682861328125 219.9595184326172 104.3031997680664 227.04489135742188 106.9993896484375 237.00164794921875" stroke-width="0.0" fill="rgb(255, 255, 255)" opacity="0.9902219"/>
    <path d="M 148.0 240.0 C 145.3205108642578 250.0 138.0 257.32049560546875 128.0 260.0 C 118.0 257.32049560546875 110.67948913574219 250.0 108.0 240.0 C 110.67948913574219 230.0 118.0 222.6794891357422 128.0 220.0 C 138.0 222.6794891357422 145.3205108642578 230.0 148.0 240.0" stroke-width="0.0" fill="rgb(254, 254, 254)" opacity="1.0"/>
    <path d="M 191.99998474121094 245.99998474121094 C 189.32049560546875 256.0 182.0 263.32049560546875 172.0 266.0 C 162.0 263.32049560546875 154.6794891357422 256.0 152.0 246.0 C 154.6794891357422 236.0 162.0 228.6794891357422 172.0 226.0 C 182.0 228.6794891357422 189.3205108642578 236.0 191.99998474121094 245.99998474121094" stroke-width="0.0" fill="rgb(253, 253, 254)" opacity="1.0"/>
    <path d="M 183.98519897460938 229.01808166503906 C 181.3205108642578 239.0 174.0 246.3205108642578 164.0 249.0 C 154.0 246.3205108642578 146.6794891357422 239.0 143.9985809326172 228.9967803955078 C 146.6566619873047 218.95069885253906 153.88186645507812 211.44151306152344 163.57740783691406 208.23992919921875 C 174.0425262451172 211.4987030029297 181.27017211914062 219.032470703125 183.98519897460938 229.01808166503906" stroke-width="0.0" fill="rgb(255, 255, 255)" opacity="0.99049556"/>
    <path d="M 32.0 180.0 C 29.32050895690918 190.0 22.0 197.3205108642578 12.0 200.0 C 2.0 197.3205108642578 -5.320508003234863 190.0 -8.0 180.0 C -5.320508003234863 170.0 2.0 162.6794891357422 12.0 160.0 C 22.0 162.6794891357422 29.32050895690918 170.0 32.0 180.0" stroke-width="0.0" fill="rgb(254, 254, 254)" opacity="1.0"/>
    <path d="M 43.56871795654297 101.07124328613281 C 39.421321868896484 111.1473388671875 32.19915008544922 118.57699584960938 22.57669448852539 121.6418685913086 C 13.0 119.32051086425781 5.679491996765137 112.0 3.0 102.0 C 5.679491996765137 92.0 13.0 84.67948913574219 23.660457611083984 81.4104232788086 C 33.91387176513672 83.794189453125 41.27213668823242 91.06584930419922 43.56871795654297 101.07124328613281" stroke-width="0.0" fill="rgb(167, 166, 166)" opacity="1.0"/>
    <path d="M 30.0 94.0 C 27.32050895690918 104.0 20.0 111.32051086425781 10.0 114.0 C 3.552713678800501e-15 111.32051086425781 -7.320508003234863 104.0 -10.0 94.0 C -7.320508003234863 84.0 -8.881784197001252e-15 76.67948913574219 10.0 74.0 C 20.0 76.67948913574219 27.32050895690918 84.0 30.0 94.0" stroke-width="0.0" fill="rgb(254, 254, 254)" opacity="1.0"/>
    <path d="M 49.2515869140625 192.53602600097656 C 46.616485595703125 202.47337341308594 39.6708984375 210.1392059326172 29.970422744750977 212.9874267578125 C 20.0 210.3205108642578 12.679491996765137 203.0 10.0 193.0 C 12.679491996765137 183.0 20.0 175.6794891357422 29.939186096191406 173.0757293701172 C 39.92552947998047 175.8054656982422 47.20392608642578 183.06588745117188 49.2515869140625 192.53602600097656" stroke-width="0.0" fill="rgb(255, 255, 255)" opacity="0.9903439"/>
    <path d="M 141.0 237.0 C 138.3205108642578 247.0 131.0 254.3205108642578 121.0 257.0 C 111.0 254.3205108642578 103.67948913574219 247.0 101.0 237.0 C 103.67948913574219 227.0 111.0 219.6794891357422 121.0 217.0 C 131.0 219.6794891357422 138.3205108642578 227.0 141.0 237.0" stroke-width="0.0" fill="rgb(254, 254, 254)" opacity="1.0"/>
    <path d="M 194.0 235.0 C 191.3205108642578 245.0 184.0 252.3205108642578 174.0 255.0 C 164.0 252.3205108642578 156.6794891357422 245.0 154.0 235.0 C 156.6794891357422 225.0 164.0 217.6794891357422 174.0 215.0 C 184.0 217.6794891357422 191.3205108642578 225.0 194.0 235.0" stroke-width="0.0" fill="rgb(254, 254, 254)" opacity="1.0"/>
    <path d="M 108.0 249.0 C 105.32051086425781 259.0 98.0 266.32049560546875 88.0 269.0 C 77.99999237060547 266.32049560546875 70.67842864990234 259.00030517578125 68.12136840820312 249.146484375 C 70.90258026123047 239.10333251953125 78.03669738769531 231.69393920898438 88.00149536132812 229.00062561035156 C 98.0 231.6794891357422 105.32051086425781 239.0 108.0 249.0" stroke-width="0.0" fill="rgb(254, 255, 255)" opacity="0.99210757"/>
    <path d="M 21.0 180.0 C 18.32050895690918 190.0 11.0 197.3205108642578 1.0 200.0 C -9.0 197.3205108642578 -16.32050895690918 190.0 -19.0 180.0 C -16.32050895690918 170.0 -9.0 162.6794891357422 1.0 160.0 C 11.0 162.6794891357422 18.32050895690918 170.0 21.0 180.0" stroke-width="0.0" fill="rgb(254, 254, 254)" opacity="1.0"/>
    <path d="M 153.0 242.0 C 150.3205108642578 252.0 143.0 259.32049560546875 133.0 262.0 C 123.0 259.32049560546875 115.67948913574219 252.0 113.0 242.0 C 115.67948913574219 232.0 123.0 224.6794891357422 133.0 222.0 C 143.0 224.6794891357422 150.3205108642578 232.0 153.0 242.0" stroke-width="0.0" fill="rgb(254, 254, 255)" opacity="1.0"/>
    <path d="M 41.96781921386719 136.01458740234375 C 39.32050704956055 146.0 32.0 153.3205108642578 22.0 156.0 C 12.0 153.3205108642578 4.679491996765137 146.0 2.0 136.0 C 4.679491996765137 126.0 12.0 118.67948913574219 21.999420166015625 116.00037384033203 C 31.995166778564453 118.68231201171875 39.30216979980469 126.00933074951172 41.96781921386719 136.01458740234375" stroke-width="0.0" fill="rgb(255, 255, 255)" opacity="0.99978673"/>
    <path d="M 34.924591064453125 109.1668472290039 C 31.32168960571289 120.00033569335938 24.00002098083496 127.32051849365234 14.0 130.0 C 4.0 127.32051086425781 -3.3205080032348633 120.0 -6.0 110.0 C -3.3205080032348633 100.0 4.0 92.67948913574219 14.116486549377441 89.9285888671875 C 24.563846588134766 92.26615905761719 32.164913177490234 99.27404022216797 34.924591064453125 109.1668472290039" stroke-width="0.0" fill="rgb(255, 255, 255)" opacity="1.0"/>
    <path d="M 244.0 252.0 C 241.3205108642578 262.0 234.0 269.32049560546875 224.0 272.0 C 214.0 269.32049560546875 206.6794891357422 262.0 204.0 252.0 C 206.6794891357422 242.0 214.0 234.6794891357422 224.0 232.0 C 234.0 234.6794891357422 241.3205108642578 242.0 244.0 252.0" stroke-width="0.0" fill="rgb(254, 254, 254)" opacity="1.0"/>
    <path d="M 40.0 214.0 C 37.32050704956055 224.0 30.0 231.3205108642578 20.0 234.0 C 10.0 231.3205108642578 2.6794919967651367 224.0 0.0 214.0 C 2.6794919967651367 204.0 10.0 196.6794891357422 20.0 194.0 C 30.0 196.6794891357422 37.32050704956055 204.0 40.0 214.0" stroke-width="0.0" fill="rgb(253, 254, 254)" opacity="1.0"/>
    <path d="M 25.0 221.0 C 22.32050895690918 231.0 15.0 238.3205108642578 5.0 241.0 C -5.0 238.3205108642578 -12.320508003234863 231.0 -15.0 221.0 C -12.320508003234863 211.0 -5.0 203.6794891357422 5.0 201.0 C 15.0 203.6794891357422 22.32050895690918 211.0 25.0 221.0" stroke-width="0.0" fill="rgb(253, 253, 254)" opacity="1.0"/>
    <path d="M 244.0 235.0 C 241.3205108642578 245.0 234.0 252.3205108642578 224.0 255.0 C 214.0 252.3205108642578 206.6794891357422 245.0 204.00076293945312 235.00035095214844 C 206.67994689941406 225.00021362304688 214.00010681152344 217.67955017089844 224.00001525878906 215.0 C 234.0 217.6794891357422 241.3205108642578 225.0 244.0 235.0" stroke-width="0.0" fill="rgb(253, 253, 254)" opacity="0.9999829"/>
    <path d="M 44.008628845214844 142.9333038330078 C 41.416954040527344 151.22982788085938 34.5463752746582 159.0851593017578 24.972576141357422 161.98944091796875 C 15.0 159.3205108642578 7.679491996765137 152.0 5.0 142.0 C 7.679491996765137 132.0 15.0 124.67948913574219 24.236217498779297 122.70989990234375 C 34.05214309692383 125.60761260986328 41.343685150146484 132.9639434814453 44.008628845214844 142.9333038330078" stroke-width="0.0" fill="rgb(29, 29, 29)" opacity="0.99003"/>
    <path d="M 238.0 251.0 C 235.3205108642578 261.0 228.0 268.32049560546875 218.0 271.0 C 208.0 268.32049560546875 200.6794891357422 261.0 198.0 251.0 C 200.6794891357422 241.0 208.0 233.6794891357422 218.0 231.0 C 228.0 233.6794891357422 235.3205108642578 241.0 238.0 251.0" stroke-width="0.0" fill="rgb(253, 254, 254)" opacity="1.0"/>
    <path d="M 48.35515213012695 226.10960388183594 C 46.64129638671875 236.5106658935547 39.588165283203125 243.96424865722656 29.452905654907227 246.5572967529297 C 19.0 243.3205108642578 11.679491996765137 236.0 9.0 226.0 C 11.679491996765137 216.0 19.0 208.6794891357422 29.00041961669922 205.99978637695312 C 38.99522399902344 208.6796112060547 46.157413482666016 216.0548095703125 48.35515213012695 226.10960388183594" stroke-width="0.0" fill="rgb(255, 255, 255)" opacity="0.9902841"/>
    <path d="M 29.0 185.0 C 26.32050895690918 195.0 19.0 202.3205108642578 9.0 205.0 C -1.0 202.3205108642578 -8.320508003234863 195.0 -11.0 185.0 C -8.320508003234863 175.0 -1.0 167.6794891357422 9.0 165.0 C 19.0 167.6794891357422 26.32050895690918 175.0 29.0 185.0" stroke-width="0.0" fill="rgb(254, 254, 254)" opacity="1.0"/>
    <path d="M 187.0 248.0 C 184.3205108642578 258.0 177.0 265.32049560546875 167.0 268.0 C 157.0 265.32049560546875 149.6794891357422 258.0 147.0 248.0 C 149.6794891357422 238.0 157.0 230.6794891357422 167.0 228.0 C 177.0 230.6794891357422 184.3205108642578 238.0 187.0 248.0" stroke-width="0.0" fill="rgb(254, 254, 254)" opacity="1.0"/>
    <path d="M 21.0 170.0 C 18.32050895690918 180.0 11.0 187.3205108642578 1.0 190.0 C -9.0 187.3205108642578 -16.32050895690918 180.0 -19.0 170.0 C -16.32050895690918 160.0 -9.0 152.6794891357422 0.999026358127594 150.00303649902344 C 10.99987506866455 152.6798858642578 18.32050323486328 160.00001525878906 21.0 170.0" stroke-width="0.0" fill="rgb(255, 255, 255)" opacity="0.9997244"/>
    <path d="M 46.0 194.0 C 43.32050704956055 204.0 36.0 211.3205108642578 26.0 214.0 C 16.0 211.3205108642578 8.679491996765137 204.0 6.0 194.0 C 8.679491996765137 184.0 16.0 176.6794891357422 26.0 174.0 C 36.0 176.6794891357422 43.32050704956055 184.0 46.0 194.0" stroke-width="0.0" fill="rgb(255, 255, 255)" opacity="1.0"/>
    <path d="M 32.0 113.0 C 29.32050895690918 123.0 22.0 130.3205108642578 12.0 133.0 C 2.0 130.3205108642578 -5.320508003234863 123.0 -8.0 113.0 C -5.320508003234863 103.0 2.0 95.67948913574219 12.0 93.0 C 22.0 95.67948913574219 29.32050895690918 103.0 32.0 113.0" stroke-width="0.0" fill="rgb(254, 254, 254)" opacity="1.0"/>
    <path d="M 255.0 239.0 C 252.3205108642578 249.0 245.0 256.32049560546875 235.0 259.0 C 225.0 256.32049560546875 217.6794891357422 249.0 215.0 239.0 C 217.6794891357422 229.0 225.0 221.6794891357422 235.0 219.0 C 245.0 221.6794891357422 252.3205108642578 229.0 255.0 239.0" stroke-width="0.0" fill="rgb(253, 254, 254)" opacity="1.0"/>
    <path d="M 248.0 224.0 C 245.3205108642578 234.0 238.0 241.3205108642578 228.0 244.0 C 218.0 241.3205108642578 210.6794891357422 234.0 207.5607452392578 223.5772705078125 C 210.01263427734375 213.3715057373047 217.44288635253906 206.32911682128906 228.0997772216797 204.264892578125 C 238.00074768066406 206.6768341064453 245.32052612304688 213.99996948242188 248.0 224.0" stroke-width="0.0" fill="rgb(255, 255, 255)" opacity="0.9908309"/>
    <path d="M 47.003990173339844 168.14581298828125 C 44.3316764831543 178.0172576904297 37.024024963378906 185.3505859375 27.097917556762695 188.1073760986328 C 18.0 186.3205108642578 10.679491996765137 179.0 8.0 169.0 C 10.679491996765137 159.0 18.0 151.6794891357422 27.159366607666016 149.80050659179688 C 37.03221893310547 152.63433837890625 44.33390426635742 159.97842407226562 47.003990173339844 168.14581298828125" stroke-width="0.0" fill="rgb(3, 2, 2)" opacity="0.9900014"/>
    <path d="M 48.45140075683594 216.6435089111328 C 46.2586784362793 225.9862518310547 39.00503158569336 233.32501220703125 29.00115203857422 236.0006561279297 C 19.0 233.3205108642578 11.679491996765137 226.0 9.0 216.0 C 11.679491996765137 206.0 19.0 198.6794891357422 28.926799774169922 196.04698181152344 C 38.600650787353516 198.95913696289062 45.62702941894531 206.54722595214844 48.45140075683594 216.6435089111328" stroke-width="0.0" fill="rgb(255, 255, 255)" opacity="0.9906138"/>
    <path d="M 29.0 177.0 C 26.32050895690918 187.0 19.0 194.3205108642578 9.0 197.0 C -1.0 194.3205108642578 -8.320508003234863 187.0 -11.000035285949707 176.99993896484375 C -8.320823669433594 166.99942016601562 -1.001217246055603 159.6769561767578 8.997852325439453 156.99501037597656 C 19.0 159.6794891357422 26.32050895690918 167.0 29.0 177.0" stroke-width="0.0" fill="rgb(255, 255, 255)" opacity="1.0"/>
    <path d="M 23.0 199.0 C 20.32050895690918 209.0 13.0 216.3205108642578 3.0 219.0 C -7.0 216.3205108642578 -14.320508003234863 209.0 -17.0 199.0 C -14.320508003234863 189.0 -7.0 181.6794891357422 3.0 179.0 C 13.0 181.6794891357422 20.32050895690918 189.0 23.0 199.0" stroke-width="0.0" fill="rgb(254, 254, 254)" opacity="1.0"/>
    <path d="M 27.0 97.0 C 24.32050895690918 107.0 17.0 114.32051086425781 7.0 117.0 C -3.0 114.32051086425781 -10.320508003234863 107.0 -13.0 97.0 C -10.320508003234863 87.0 -3.0 79.67948913574219 7.0 77.0 C 17.0 79.67948913574219 24.32050895690918 87.0 27.0 97.0" stroke-width="0.0" fill="rgb(254, 254, 254)" opacity="1.0"/>
    <path d="M 41.00563049316406 81.96805572509766 C 38.36739730834961 90.10296630859375 31.22840118408203 97.71293640136719 21.81707763671875 100.90376281738281 C 12.0 98.32051086425781 4.679491996765137 91.0 2.0019898414611816 81.00572204589844 C 4.760768413543701 71.20890045166016 12.620923042297363 64.51542663574219 21.027000427246094 61.993717193603516 C 31.014236450195312 64.66801452636719 38.33205795288086 71.9857177734375 41.00563049316406 81.96805572509766" stroke-width="0.0" fill="rgb(3, 3, 3)" opacity="0.9900057"/>
    <path d="M 35.0 196.0 C 32.32050704956055 206.0 25.0 213.3205108642578 15.0 216.0 C 5.0 213.3205108642578 -2.3205080032348633 206.0 -5.0 196.0 C -2.3205080032348633 186.0 5.0 178.6794891357422 15.0 176.0 C 25.0 178.6794891357422 32.32050704956055 186.0 35.0 196.0" stroke-width="0.0" fill="rgb(254, 254, 254)" opacity="1.0"/>
    <path d="M 33.852970123291016 239.87887573242188 C 31.085952758789062 249.86090087890625 23.989763259887695 257.48431396484375 14.120939254760742 260.19134521484375 C 4.0 257.32049560546875 -3.3205080032348633 250.0 -6.0 240.0 C -3.3205080032348633 230.0 4.0 222.6794891357422 14.0 220.0 C 24.0 222.6794891357422 31.32050895690918 230.0 33.852970123291016 239.87887573242188" stroke-width="0.0" fill="rgb(255, 255, 255)" opacity="0.99378324"/>
    <path d="M 247.0 226.0 C 244.3205108642578 236.0 237.0 243.3205108642578 227.0 246.0 C 216.99998474121094 243.3205108642578 209.6793670654297 236.0000457763672 206.99954223632812 226.0001678466797 C 209.6794891357422 216.0 217.0 208.6794891357422 227.0 206.0 C 237.0 208.6794891357422 244.3205108642578 216.0 247.0 226.0" stroke-width="0.0" fill="rgb(254, 255, 255)" opacity="1.0"/>
    <path d="M 252.0 241.0 C 249.3205108642578 251.0 242.0 258.32049560546875 232.0 261.0 C 222.0 258.32049560546875 214.6794891357422 251.0 212.0 241.0 C 214.6794891357422 231.0 222.0 223.6794891357422 232.0 221.0 C 242.0 223.6794891357422 249.3205108642578 231.0 252.0 241.0" stroke-width="0.0" fill="rgb(254, 254, 254)" opacity="1.0"/>
    <path d="M 152.0 247.0 C 149.3205108642578 257.0 142.0 264.32049560546875 132.0 267.0 C 122.0 264.32049560546875 114.67948913574219 257.0 112.0 247.0 C 114.67948913574219 237.0 122.0 229.6794891357422 132.0 227.0 C 142.0 229.6794891357422 149.3205108642578 237.0 152.0 247.0" stroke-width="0.0" fill="rgb(254, 254, 254)" opacity="1.0"/>
    <path d="M 183.0 239.0 C 180.3205108642578 249.0 173.0 256.32049560546875 163.0 259.0 C 153.0 256.32049560546875 145.6794891357422 249.0 143.0 239.0 C 145.6794891357422 229.0 153.0 221.6794891357422 163.0 219.0 C 173.0 221.6794891357422 180.3205108642578 229.0 183.0 239.0" stroke-width="0.0" fill="rgb(254, 254, 254)" opacity="1.0"/>
    <path d="M 251.0 246.0 C 248.3205108642578 256.0 241.0 263.32049560546875 231.0 266.0 C 221.0 263.32049560546875 213.6794891357422 256.0 211.0 246.0 C 213.6794891357422 236.0 221.0 228.6794891357422 231.0 226.0 C 241.0 228.6794891357422 248.3205108642578 236.0 251.0 246.0" stroke-width="0.0" fill="rgb(254, 254, 254)" opacity="1.0"/>
    <path d="M 22.0 253.0 C 19.32050895690918 263.0 12.0 270.32049560546875 2.0 273.0 C -8.0 270.32049560546875 -15.320508003234863 263.0 -18.0 253.0 C -15.320508003234863 243.0 -8.0 235.6794891357422 2.0 233.0 C 12.0 235.6794891357422 19.32050895690918 243.0 22.0 253.0" stroke-width="0.0" fill="rgb(252, 252, 253)" opacity="1.0"/>
    <path d="M 133.0 233.99998474121094 C 130.3205108642578 244.0 123.0 251.3205108642578 113.0 254.0 C 103.0 251.3205108642578 95.67948913574219 244.0 93.02165985107422 234.03146362304688 C 95.8069839477539 224.18858337402344 103.27742767333984 217.07858276367188 113.29451751708984 213.2010955810547 C 123.03498840332031 216.56900024414062 130.32131958007812 223.99720764160156 133.0 233.99998474121094" stroke-width="0.0" fill="rgb(255, 255, 255)" opacity="0.99081475"/>
    <path d="M 40.04460525512695 82.05612182617188 C 37.34272766113281 92.02421569824219 30.02497673034668 99.34506225585938 20.06672477722168 102.06066131591797 C 11.0 100.32051086425781 3.6794919967651367 93.0 1.0 83.0 C 3.6794919967651367 73.0 11.0 65.67948913574219 20.934072494506836 63.092735290527344 C 30.873149871826172 65.82063293457031 38.15252685546875 73.13478088378906 40.04460525512695 82.05612182617188" stroke-width="0.0" fill="rgb(3, 2, 3)" opacity="0.9900681"/>
    <path d="M 116.0 239.0 C 113.32051086425781 249.0 106.0 256.32049560546875 96.0 259.0 C 86.0 256.32049560546875 78.67948913574219 249.0 76.0 239.0 C 78.67948913574219 229.0 86.0 221.6794891357422 96.0 219.0 C 106.0 221.6794891357422 113.32051086425781 229.0 116.0 239.0" stroke-width="0.0" fill="rgb(254, 254, 254)" opacity="1.0"/>
    <path d="M 196.36903381347656 239.4714813232422 C 194.3191375732422 249.00015258789062 187.00047302246094 256.3205871582031 176.99996948242188 258.99993896484375 C 167.0 256.32049560546875 159.6794891357422 249.0 157.0 239.0 C 159.6794891357422 229.0 167.0 221.6794891357422 176.9685516357422 219.01715087890625 C 186.7366180419922 221.8363800048828 193.7196502685547 229.424560546875 196.36903381347656 239.4714813232422" stroke-width="0.0" fill="rgb(255, 255, 255)" opacity="0.99083066"/>
    <path d="M 247.0 233.0 C 244.3205108642578 243.0 237.0 250.3205108642578 227.0 253.0 C 217.0 250.3205108642578 209.6794891357422 243.0 207.0004119873047 233.0001983642578 C 209.6797637939453 223.00013732910156 217.00006103515625 215.6795196533203 227.0 213.0 C 237.0 215.6794891357422 244.3205108642578 223.0 247.0 233.0" stroke-width="0.0" fill="rgb(253, 253, 254)" opacity="0.99998826"/>
    <path d="M 43.98232650756836 139.04571533203125 C 40.837806701660156 150.25572204589844 33.05148696899414 157.33775329589844 23.000959396362305 160.00030517578125 C 13.0 157.3205108642578 5.679491996765137 150.0 3.0 140.0 C 5.679491996765137 130.0 13.0 122.67948913574219 23.587751388549805 119.51851654052734 C 33.915916442871094 121.81004333496094 41.291751861572266 129.05055236816406 43.98232650756836 139.04571533203125" stroke-width="0.0" fill="rgb(255, 255, 255)" opacity="1.0"/>
    <path d="M 31.0 130.0 C 28.32050895690918 140.0 21.0 147.3205108642578 11.0 150.0 C 1.0 147.3205108642578 -6.320508003234863 140.0 -9.0 130.0 C -6.320508003234863 120.0 1.0 112.67948913574219 11.0 110.0 C 21.0 112.67948913574219 28.32050895690918 120.0 31.0 130.0" stroke-width="0.0" fill="rgb(254, 254, 254)" opacity="1.0"/>
    <path d="M 36.00590515136719 129.00196838378906 C 33.322845458984375 139.00100708007812 26.000383377075195 146.3206787109375 16.00002098083496 149.00001525878906 C 6.0 146.3205108642578 -1.3205081224441528 139.0 -4.0 129.0 C -1.3205081224441528 119.0 6.0 111.67948913574219 16.0 109.0 C 26.000003814697266 111.67948913574219 33.32058334350586 118.9999771118164 36.00590515136719 129.00196838378906" stroke-width="0.0" fill="rgb(255, 255, 255)" opacity="1.0"/>
    <path d="M 23.0 110.0 C 20.32050895690918 120.0 13.0 127.32051086425781 3.0 130.0 C -7.0 127.32051086425781 -14.320508003234863 120.0 -17.0 110.0 C -14.320508003234863 100.0 -7.0 92.67948913574219 3.0 90.0 C 13.0 92.67948913574219 20.32050895690918 100.0 23.0 110.0" stroke-width="0.0" fill="rgb(254, 253, 254)" opacity="1.0"/>
    <path d="M 31.0 85.0 C 28.32050895690918 95.0 21.0 102.32051086425781 11.0 105.0 C 1.0 102.32051086425781 -6.320508003234863 95.0 -9.0 85.0 C -6.320508003234863 75.0 1.0 67.67948913574219 11.0 65.0 C 21.0 67.67948913574219 28.32050895690918 75.0 31.0 85.0" stroke-width="0.0" fill="rgb(254, 254, 254)" opacity="1.0"/>
    <path d="M 108.0 250.0 C 105.32051086425781 260.0 98.0 267.32049560546875 87.9862289428711 270.0069580078125 C 77.86351013183594 267.39617919921875 70.38005065917969 260.2077941894531 67.71883392333984 250.16091918945312 C 70.67727661132812 239.99937438964844 77.99996948242188 232.67947387695312 88.0 230.0 C 98.0 232.6794891357422 105.32051086425781 240.0 108.0 250.0" stroke-width="0.0" fill="rgb(255, 255, 255)" opacity="0.9917179"/>
    <path d="M 44.00513458251953 148.1315155029297 C 41.33887481689453 158.03643798828125 34.07139587402344 165.44871520996094 24.484756469726562 168.84193420410156 C 15.0 166.3205108642578 7.679491996765137 159.0 5.0 149.0 C 7.679491996765137 139.0 15.0 131.6794891357422 24.03973960876465 129.96803283691406 C 34.01618576049805 132.66400146484375 41.33296203613281 139.98492431640625 44.00513458251953 148.1315155029297" stroke-width="0.0" fill="rgb(3, 2, 2)" opacity="0.9900059"/>
    <path d="M 187.0 234.0 C 184.3205108642578 244.0 177.0 251.3205108642578 167.0 254.0 C 157.0 251.3205108642578 149.6794891357422 244.0 147.0 234.0 C 149.6794891357422 224.0 157.0 216.6794891357422 167.0 214.0 C 177.0 216.6794891357422 184.3205108642578 224.0 187.0 234.0" stroke-width="0.0" fill="rgb(254, 254, 254)" opacity="1.0"/>
    <path d="M 173.0 236.0 C 170.3205108642578 246.0 163.0 253.3205108642578 153.0 256.0 C 143.0 253.3205108642578 135.6794891357422 246.0 133.0 236.0 C 135.6794891357422 226.0 143.0 218.6794891357422 153.0 216.0 C 163.0 218.6794891357422 170.3205108642578 226.0 173.0 236.0" stroke-width="0.0" fill="rgb(254, 254, 254)" opacity="1.0"/>
    <path d="M 38.0 216.0 C 35.32050704956055 226.0 28.0 233.3205108642578 18.0 236.0 C 8.0 233.3205108642578 0.6794919371604919 226.0 -2.0 216.0 C 0.6794919371604919 206.0 8.0 198.6794891357422 18.0 196.0 C 28.0 198.6794891357422 35.32050704956055 206.0 38.0 216.0" stroke-width="0.0" fill="rgb(255, 255, 255)" opacity="1.0"/>
    <path d="M 38.87372589111328 120.4658432006836 C 36.198944091796875 130.8780059814453 28.875324249267578 138.19041442871094 18.68074607849121 140.66908264160156 C 8.0 137.3205108642578 0.6794919371604919 130.0 -2.0 120.0 C 0.6794919371604919 110.0 8.0 102.67948913574219 18.09305763244629 99.94084930419922 C 28.44963836669922 102.34918975830078 36.00892639160156 109.430419921875 38.87372589111328 120.4658432006836" stroke-width="0.0" fill="rgb(255, 255, 255)" opacity="1.0"/>
    <path d="M 30.003177642822266 77.99910736083984 C 27.32050895690918 88.0 20.0 95.32051086425781 10.0 98.0 C 3.552713678800501e-15 95.32051086425781 -7.320508003234863 88.0 -10.067444801330566 77.90269470214844 C -7.64719295501709 67.5663070678711 -0.5483360290527344 60.012001037597656 9.70239543914795 57.20093536376953 C 19.93457794189453 60.718013763427734 27.30415916442871 68.05409240722656 30.003177642822266 77.99910736083984" stroke-width="0.0" fill="rgb(253, 254, 254)" opacity="0.99025744"/>
    <path d="M 237.0 250.0 C 234.3205108642578 260.0 227.0 267.32049560546875 217.0008087158203 269.99981689453125 C 207.0396728515625 267.3069763183594 200.014404296875 259.84918212890625 197.65463256835938 249.660400390625 C 199.92611694335938 240.0999755859375 207.02212524414062 232.68698120117188 217.00047302246094 230.00015258789062 C 227.0 232.6794891357422 234.3205108642578 240.0 237.0 250.0" stroke-width="0.0" fill="rgb(255, 255, 255)" opacity="0.9912353"/>
    <path d="M 266.0 254.0 C 263.32049560546875 264.0 256.0 271.32049560546875 246.0 274.0 C 236.0 271.32049560546875 228.6794891357422 264.0 226.0 254.0 C 228.6794891357422 244.0 236.0 236.6794891357422 246.0 234.0 C 256.0 236.6794891357422 263.32049560546875 244.0 266.0 254.0" stroke-width="0.0" fill="rgb(254, 254, 255)" opacity="1.0"/>
    <path d="M 172.0 233.0 C 169.3205108642578 243.0 162.0 250.3205108642578 152.0 253.0 C 142.0 250.3205108642578 134.6794891357422 243.0 132.0 233.0 C 134.6794891357422 223.0 142.0 215.6794891357422 152.0 213.0 C 162.0 215.6794891357422 169.3205108642578 223.0 172.0 233.0" stroke-width="0.0" fill="rgb(254, 254, 254)" opacity="1.0"/>
    <path d="M 30.970279693603516 99.08761596679688 C 27.3687801361084 110.01431274414062 20.000879287719727 117.32076263427734 10.000005722045898 120.0 C 3.552713678800501e-15 117.32051086425781 -7.320508003234863 110.0 -10.0 100.0 C -7.320508003234863 90.0 -8.881784197001252e-15 82.67948913574219 10.016839027404785 79.99386596679688 C 20.36891746520996 82.50663757324219 28.195846557617188 89.28753662109375 30.970279693603516 99.08761596679688" stroke-width="0.0" fill="rgb(251, 251, 251)" opacity="1.0"/>
    <path d="M 177.0 247.0 C 174.3205108642578 257.0 167.0 264.32049560546875 157.0 267.0 C 147.0 264.32049560546875 139.6794891357422 257.0 137.0 247.0 C 139.6794891357422 237.0 147.0 229.6794891357422 157.0 227.0 C 167.0 229.6794891357422 174.3205108642578 237.0 177.0 247.0" stroke-width="0.0" fill="rgb(254, 254, 254)" opacity="1.0"/>
    <path d="M 251.0 251.0 C 248.3205108642578 261.0 241.0 268.32049560546875 231.0 271.0 C 221.0 268.32049560546875 213.6794891357422 261.0 211.0 251.0 C 213.6794891357422 241.0 221.0 233.6794891357422 231.0 231.0 C 241.0 233.6794891357422 248.3205108642578 241.0 251.0 251.0" stroke-width="0.0" fill="rgb(254, 254, 254)" opacity="1.0"/>
    <path d="M 249.00270080566406 223.99334716796875 C 246.3205108642578 234.0 239.0 241.3205108642578 229.0 244.0 C 218.99998474121094 241.3205108642578 211.67938232421875 234.0000457763672 208.99972534179688 224.00010681152344 C 211.6794891357422 213.99998474121094 218.99951171875 206.67774963378906 229.51992797851562 203.26071166992188 C 239.30267333984375 206.16090393066406 246.37635803222656 213.87242126464844 249.00270080566406 223.99334716796875" stroke-width="0.0" fill="rgb(255, 255, 255)" opacity="0.99273235"/>
    <path d="M 157.0 237.0 C 154.3205108642578 247.0 147.0 254.3205108642578 137.0 257.0 C 127.0 254.3205108642578 119.67948913574219 247.0 117.0 237.0 C 119.67948913574219 227.0 127.0 219.6794891357422 137.0 217.0 C 147.0 219.6794891357422 154.3205108642578 227.0 157.0 237.0" stroke-width="0.0" fill="rgb(254, 254, 254)" opacity="1.0"/>
    <path d="M 190.0024871826172 252.99935913085938 C 187.3206024169922 263.0000305175781 180.0 270.32049560546875 170.0 273.0 C 160.0 270.32049560546875 152.6794891357422 263.0 150.0 253.0 C 152.6794891357422 243.0 160.0 235.6794891357422 170.00001525878906 232.99998474121094 C 180.0001983642578 235.6793975830078 187.32139587402344 242.99957275390625 190.0024871826172 252.99935913085938" stroke-width="0.0" fill="rgb(255, 255, 255)" opacity="1.0"/>
    <path d="M 28.000051498413086 83.99987030029297 C 25.32050895690918 94.0 18.0 101.32051086425781 8.0 104.0 C -2.0 101.32051086425781 -9.320508003234863 94.0 -12.000060081481934 83.99988555908203 C -9.321134567260742 73.9988021850586 -2.0024802684783936 66.67440032958984 8.021484375 63.926334381103516 C 18.009727478027344 66.65505981445312 25.32172966003418 73.99690246582031 28.000051498413086 83.99987030029297" stroke-width="0.0" fill="rgb(255, 255, 255)" opacity="1.0"/>
    <path d="M 27.99709701538086 132.0011444091797 C 25.32050895690918 142.0 18.0 149.3205108642578 8.0 152.0 C -2.0 149.3205108642578 -9.320508003234863 142.0 -12.0 132.0 C -9.320508003234863 122.0 -2.0 114.67948913574219 7.999813079833984 112.0002212524414 C 17.99942970275879 114.68002319335938 25.319276809692383 122.00077056884766 27.99709701538086 132.0011444091797" stroke-width="0.0" fill="rgb(255, 255, 255)" opacity="0.9983783"/>
    <path d="M 23.0 187.0 C 20.32050895690918 197.0 13.0 204.3205108642578 3.0 207.0 C -7.0 204.3205108642578 -14.320508003234863 197.0 -17.0 187.0 C -14.320508003234863 177.0 -7.0 169.6794891357422 3.0 167.0 C 13.0 169.6794891357422 20.32050895690918 177.0 23.0 187.0" stroke-width="0.0" fill="rgb(252, 252, 253)" opacity="1.0"/>
    <path d="M 29.0 216.0 C 26.32050895690918 226.0 19.0 233.3205108642578 9.0 236.0 C -1.0 233.3205108642578 -8.320508003234863 226.0 -11.0 216.0 C -8.320508003234863 206.0 -1.0 198.6794891357422 9.0 196.0 C 19.0 198.6794891357422 26.32050895690918 206.0 29.0 216.0" stroke-width="0.0" fill="rgb(254, 254, 254)" opacity="1.0"/>
    <path d="M 23.0 219.0 C 20.32050895690918 229.0 13.0 236.3205108642578 2.999847412109375 239.00045776367188 C -7.000032901763916 236.3206024169922 -14.320510864257812 229.00001525878906 -17.0 219.0 C -14.320508003234863 209.0 -7.0 201.6794891357422 3.0 199.0 C 13.0 201.6794891357422 20.32050895690918 209.0 23.0 219.0" stroke-width="0.0" fill="rgb(252, 252, 253)" opacity="1.0"/>
    <path d="M 270.0 236.0 C 267.32049560546875 246.0 260.0 253.3205108642578 250.0 256.0 C 240.0 253.3205108642578 232.6794891357422 246.0 230.0 236.0 C 232.6794891357422 226.0 240.0 218.6794891357422 250.00009155273438 215.99981689453125 C 260.00006103515625 218.6793670654297 267.32049560546875 225.99996948242188 270.0 236.0" stroke-width="0.0" fill="rgb(254, 254, 254)" opacity="1.0"/>
    <path d="M 39.12990951538086 81.43758392333984 C 35.47616195678711 91.10173797607422 28.067934036254883 98.36408233642578 18.08066749572754 101.0516357421875 C 9.0 99.32051086425781 1.6794918775558472 92.0 -0.015171647071838379 82.97557830810547 C 2.6676025390625 72.98553466796875 9.985546112060547 65.66769409179688 19.980670928955078 62.99037170410156 C 29.243778228759766 64.4103012084961 36.61820602416992 71.74728393554688 39.12990951538086 81.43758392333984" stroke-width="0.0" fill="rgb(4, 3, 3)" opacity="0.9900008"/>
    <path d="M 156.0 248.0 C 153.3205108642578 258.0 146.0 265.32049560546875 136.0 268.0 C 126.0 265.32049560546875 118.67948913574219 258.0 116.0 248.0 C 118.67948913574219 238.0 126.0 230.6794891357422 136.0 228.0 C 146.0 230.6794891357422 153.3205108642578 238.0 156.0 248.0" stroke-width="0.0" fill="rgb(254, 254, 254)" opacity="1.0"/>
    <path d="M 185.0 251.0 C 182.3205108642578 261.0 175.0 268.32049560546875 165.0 271.0 C 155.0 268.32049560546875 147.6794891357422 261.0 145.0 251.0 C 147.6794891357422 241.0 155.0 233.6794891357422 165.0 231.0 C 175.0 233.6794891357422 182.3205108642578 241.0 185.0 251.0" stroke-width="0.0" fill="rgb(254, 254, 254)" opacity="1.0"/>
    <path d="M 194.19288635253906 233.14474487304688 C 191.32237243652344 243.0011444091797 184.00076293945312 250.32106018066406 174.00013732910156 253.00010681152344 C 164.0 250.3205108642578 156.6794891357422 243.0 154.0 233.0 C 156.6794891357422 223.00001525878906 164.000244140625 215.6803741455078 174.698974609375 212.16770935058594 C 184.60821533203125 214.9207000732422 190.9914093017578 222.6811981201172 194.19288635253906 233.14474487304688" stroke-width="0.0" fill="rgb(255, 255, 255)" opacity="0.9904344"/>
    <path d="M 137.0 248.0 C 134.3205108642578 258.0 127.0 265.32049560546875 117.0 268.0 C 107.0 265.32049560546875 99.67948913574219 258.0 97.0 248.0 C 99.67948913574219 238.0 107.0 230.6794891357422 117.0 228.0 C 127.0 230.6794891357422 134.3205108642578 238.0 137.0 248.0" stroke-width="0.0" fill="rgb(254, 254, 254)" opacity="0.9999934"/>
    <path d="M 186.99671936035156 254.0006866455078 C 184.32041931152344 263.9999694824219 177.0 271.32049560546875 167.0 274.0 C 157.0 271.32049560546875 149.6794891357422 264.0 147.0 254.0 C 149.6794891357422 244.0 157.0 236.6794891357422 166.99969482421875 234.00071716308594 C 176.9996795654297 236.67987060546875 184.319580078125 244.00047302246094 186.99671936035156 254.0006866455078" stroke-width="0.0" fill="rgb(255, 255, 254)" opacity="0.99964267"/>
    <path d="M 29.0 203.0 C 26.32050895690918 213.0 19.0 220.3205108642578 9.0 223.0 C -1.0 220.3205108642578 -8.320508003234863 213.0 -11.0 203.0 C -8.320508003234863 193.0 -1.0 185.6794891357422 9.0 183.0 C 19.0 185.6794891357422 26.32050895690918 193.0 29.0 203.0" stroke-width="0.0" fill="rgb(254, 254, 254)" opacity="1.0"/>
    <path d="M 169.99960327148438 229.00108337402344 C 167.32052612304688 239.0 160.0 246.3205108642578 150.0 249.0 C 140.0 246.3205108642578 132.6794891357422 239.0 130.02740478515625 229.038330078125 C 132.81471252441406 219.1705322265625 140.1842803955078 211.85462951660156 150.484130859375 208.15919494628906 C 159.98899841308594 211.63624572753906 167.3110809326172 219.0228729248047 169.99960327148438 229.00108337402344" stroke-width="0.0" fill="rgb(255, 255, 255)" opacity="0.99061227"/>
    <path d="M 155.99375915527344 231.01339721679688 C 153.3205108642578 241.0 146.0 248.3205108642578 136.0 251.0 C 126.0 248.3205108642578 118.67948913574219 241.0 115.98212432861328 230.9716033935547 C 118.56525421142578 220.83921813964844 125.81659698486328 213.49696350097656 135.4617462158203 211.76417541503906 C 145.64666748046875 214.2380828857422 153.2324676513672 221.1761016845703 155.99375915527344 231.01339721679688" stroke-width="0.0" fill="rgb(255, 255, 255)" opacity="0.99069005"/>
    <path d="M 34.0 216.0 C 31.32050895690918 226.0 24.0 233.3205108642578 14.000001907348633 236.0 C 4.000006675720215 233.3205108642578 -3.3204996585845947 226.0 -5.999996662139893 216.0 C -3.3205080032348633 206.0 4.0 198.6794891357422 14.0 196.0 C 24.0 198.6794891357422 31.32050895690918 206.0 34.0 216.0" stroke-width="0.0" fill="rgb(252, 252, 253)" opacity="0.9999622"/>
    <path d="M 45.387882232666016 200.63938903808594 C 43.02700424194336 210.87020874023438 35.96417236328125 218.30726623535156 25.998865127563477 220.9995880126953 C 16.0 218.3205108642578 8.679491996765137 211.0 6.0 201.0 C 8.679491996765137 191.0 16.0 183.6794891357422 26.0 181.0 C 36.0 183.6794891357422 43.32050704956055 191.0 45.387882232666016 200.63938903808594" stroke-width="0.0" fill="rgb(255, 255, 255)" opacity="0.9920162"/>
    <path d="M 39.001365661621094 231.00059509277344 C 36.321258544921875 241.00039672851562 29.000213623046875 248.3206329345703 19.000032424926758 251.00001525878906 C 9.000080108642578 248.32046508789062 1.6797958612442017 240.99984741210938 -0.999498188495636 230.99981689453125 C 1.679517149925232 221.00001525878906 9.00000286102295 213.6794891357422 19.0 211.0 C 29.0 213.6794891357422 36.32050704956055 221.0 39.001365661621094 231.00059509277344" stroke-width="0.0" fill="rgb(251, 251, 255)" opacity="0.9998631"/>
    <path d="M 267.0 247.0 C 264.32049560546875 257.0 257.0 264.32049560546875 247.0 267.0 C 237.0 264.32049560546875 229.6794891357422 257.0 227.0 247.0 C 229.6794891357422 237.0 237.0 229.6794891357422 247.0 227.0 C 257.0 229.6794891357422 264.32049560546875 237.0 267.0 247.0" stroke-width="0.0" fill="rgb(254, 254, 254)" opacity="1.0"/>
    <path d="M 254.9333953857422 225.10360717773438 C 252.3205108642578 235.0 245.0 242.3205108642578 235.0 245.0 C 225.0 242.3205108642578 217.67950439453125 235.0 215.00189208984375 225.00070190429688 C 217.68087768554688 215.00111389160156 224.9984130859375 207.67091369628906 234.44277954101562 205.56553649902344 C 244.3987274169922 208.39517211914062 251.96250915527344 215.4816436767578 254.9333953857422 225.10360717773438" stroke-width="0.0" fill="rgb(255, 255, 255)" opacity="0.9909447"/>
    <path d="M 155.0 245.0 C 152.3205108642578 255.0 145.0 262.32049560546875 135.0 265.0 C 125.0 262.32049560546875 117.67948913574219 255.0 115.0 245.0 C 117.67948913574219 235.0 125.0 227.6794891357422 135.0 225.0 C 145.0 227.6794891357422 152.3205108642578 235.0 155.0 245.0" stroke-width="0.0" fill="rgb(253, 253, 255)" opacity="1.0"/>
    <path d="M 177.0003204345703 248.99978637695312 C 174.3205108642578 259.0 167.0 266.32049560546875 157.0 269.0 C 147.0 266.32049560546875 139.6794891357422 259.0 137.0 249.0 C 139.6794891357422 239.0 147.0 231.6794891357422 157.0000762939453 228.9999237060547 C 167.00030517578125 231.67922973632812 174.32098388671875 238.9996337890625 177.0003204345703 248.99978637695312" stroke-width="0.0" fill="rgb(254, 254, 254)" opacity="1.0"/>
    <path d="M 261.0 253.0 C 258.32049560546875 263.0 251.0 270.32049560546875 241.0 273.0 C 231.0 270.32049560546875 223.6794891357422 263.0 221.0 253.0 C 223.6794891357422 243.0 231.0 235.6794891357422 241.0 233.0 C 251.0 235.6794891357422 258.32049560546875 242.99998474121094 261.0 253.0" stroke-width="0.0" fill="rgb(254, 254, 253)" opacity="0.9999467"/>
    <path d="M 42.99419021606445 149.88795471191406 C 40.307621002197266 159.982421875 32.979087829589844 167.298828125 22.94734001159668 169.93927001953125 C 12.865194320678711 165.45797729492188 5.589293003082275 158.1174774169922 2.959009885787964 148.4413604736328 C 5.574193477630615 139.8790740966797 12.884712219238281 132.58753967285156 22.937435150146484 129.87831115722656 C 32.97490310668945 130.70809936523438 40.30576705932617 138.020263671875 42.99419021606445 149.88795471191406" stroke-width="0.0" fill="rgb(173, 172, 173)" opacity="1.0"/>
    <path d="M 117.0 243.0 C 114.32051086425781 253.0 107.0 260.32049560546875 96.99990844726562 263.0000915527344 C 86.99954223632812 260.3208312988281 79.67849731445312 253.00064086914062 76.9979248046875 243.0004119873047 C 79.67935943603516 232.9999542236328 86.99998474121094 225.6794891357422 97.0 223.0 C 107.0 225.6794891357422 114.32051086425781 233.0 117.0 243.0" stroke-width="0.0" fill="rgb(255, 255, 255)" opacity="1.0"/>
    <path d="M 236.99996948242188 245.99996948242188 C 234.32046508789062 255.99996948242188 226.99996948242188 263.3204650878906 217.0 266.0 C 206.99993896484375 263.32049560546875 199.67269897460938 256.00189208984375 197.78822326660156 246.6982879638672 C 200.47994995117188 236.68392944335938 207.54443359375 229.08514404296875 217.1183624267578 226.0723876953125 C 227.00006103515625 228.67933654785156 234.3205108642578 235.99998474121094 236.99996948242188 245.99996948242188" stroke-width="0.0" fill="rgb(255, 255, 255)" opacity="0.9908929"/>
    <path d="M 39.98869705200195 182.0225830078125 C 36.322532653808594 193.00042724609375 28.9998722076416 200.3204345703125 18.999984741210938 202.99998474121094 C 9.0 200.3205108642578 1.6794918775558472 193.0 -1.009425401687622 182.97955322265625 C 1.5462841987609863 172.7421417236328 8.51555061340332 164.98785400390625 19.769935607910156 162.0658721923828 C 29.965700149536133 164.7279815673828 37.30583572387695 172.0232391357422 39.98869705200195 182.0225830078125" stroke-width="0.0" fill="rgb(250, 251, 251)" opacity="0.9900161"/>
    <path d="M 135.0 236.0 C 132.3205108642578 246.0 125.0 253.3205108642578 115.0 256.0 C 105.0 253.3205108642578 97.67948913574219 246.0 94.99999237060547 235.99998474121094 C 97.67943572998047 225.99990844726562 104.99981689453125 218.6791534423828 114.99977111816406 215.99954223632812 C 125.0 218.6794891357422 132.3205108642578 226.0 135.0 236.0" stroke-width="0.0" fill="rgb(254, 254, 255)" opacity="1.0"/>
    <path d="M 142.01321411132812 231.97373962402344 C 139.3205108642578 242.0 132.0 249.3205108642578 122.0 252.0 C 112.0 249.3205108642578 104.67948913574219 242.0 102.00244140625 232.00497436523438 C 104.70735931396484 222.0511474609375 112.0699462890625 214.76556396484375 122.43836212158203 211.35763549804688 C 132.40817260742188 214.1006317138672 139.46392822265625 221.74681091308594 142.01321411132812 231.97373962402344" stroke-width="0.0" fill="rgb(255, 255, 255)" opacity="0.99056727"/>
    <path d="M 19.99997329711914 190.00003051757812 C 17.320507049560547 200.0 9.999983787536621 207.32046508789062 -0.00010785483027575538 209.99966430664062 C -10.0 207.3205108642578 -17.32050895690918 200.0 -20.0 190.0 C -17.32050895690918 180.0 -10.0 172.6794891357422 3.1033094273880124e-05 169.99972534179688 C 9.999845504760742 172.67965698242188 17.320398330688477 180.00013732910156 19.99997329711914 190.00003051757812" stroke-width="0.0" fill="rgb(252, 254, 255)" opacity="0.9996696"/>
    <path d="M 37.00056076049805 196.99961853027344 C 34.32050704956055 207.0 27.0 214.3205108642578 16.999977111816406 217.00001525878906 C 6.999904632568359 214.32058715820312 -0.3206327259540558 207.00010681152344 -3.0001840591430664 196.9999237060547 C -0.3208935856819153 186.9995880126953 6.9994893074035645 179.6787872314453 16.99981689453125 176.9991912841797 C 27.000585556030273 179.67892456054688 34.32136535644531 186.99932861328125 37.00056076049805 196.99961853027344" stroke-width="0.0" fill="rgb(251, 253, 255)" opacity="0.9999174"/>
    <path d="M 24.011964797973633 100.9761962890625 C 22.32061004638672 110.00016784667969 15.00031566619873 117.32111358642578 5.0003557205200195 120.0013198852539 C -5.000047206878662 117.32062530517578 -12.320514678955078 110.00001525878906 -15.04308032989502 99.90504455566406 C -12.788573265075684 89.31938934326172 -5.872254848480225 81.73323059082031 4.142373085021973 79.00746154785156 C 14.035988807678223 83.5276107788086 21.335552215576172 90.9778060913086 24.011964797973633 100.9761962890625" stroke-width="0.0" fill="rgb(251, 251, 251)" opacity="0.990007"/>
    <path d="M 174.0 248.0 C 171.3205108642578 258.0 164.0 265.32049560546875 154.0 268.0 C 144.0 265.32049560546875 136.6794891357422 258.0 134.0 248.0 C 136.6794891357422 238.0 144.0 230.6794891357422 154.0 228.0 C 164.0 230.6794891357422 171.3205108642578 238.0 174.0 248.0" stroke-width="0.0" fill="rgb(253, 253, 254)" opacity="1.0"/>
    <path d="M 181.00071716308594 254.99966430664062 C 178.3205108642578 265.0 171.0 272.32049560546875 161.0 275.0 C 151.0 272.32049560546875 143.6794891357422 265.0 141.0 255.0 C 143.6794891357422 245.0 151.0 237.6794891357422 161.00003051757812 234.99998474121094 C 171.00015258789062 237.67938232421875 178.32095336914062 244.99974060058594 181.00071716308594 254.99966430664062" stroke-width="0.0" fill="rgb(252, 252, 254)" opacity="0.99995947"/>
    <path d="M 258.9997863769531 234.999755859375 C 256.32000732421875 244.99957275390625 248.99949645996094 252.3197784423828 238.99960327148438 254.99801635742188 C 228.99977111816406 252.3205108642578 221.67881774902344 245.00042724609375 218.9993438720703 235.00051879882812 C 221.6796112060547 225.00006103515625 229.00003051757812 217.67950439453125 239.00001525878906 215.0 C 249.00003051757812 217.67945861816406 256.3205871582031 224.99993896484375 258.9997863769531 234.999755859375" stroke-width="0.0" fill="rgb(255, 255, 255)" opacity="0.99874234"/>
    <path d="M 117.01139068603516 234.97683715820312 C 114.32051086425781 245.0 107.0 252.3205108642578 97.0 255.0 C 86.99998474121094 252.3205108642578 79.6793441772461 245.0000457763672 77.01348876953125 235.02622985839844 C 79.81672668457031 225.23992919921875 87.41349029541016 218.28248596191406 97.7520523071289 214.3865966796875 C 107.40501403808594 217.08966064453125 114.45159912109375 224.7631378173828 117.01139068603516 234.97683715820312" stroke-width="0.0" fill="rgb(255, 255, 255)" opacity="0.9905178"/>
  </g>
</svg>
