<?xml version="1.0" ?>
<svg xmlns="http://www.w3.org/2000/svg" version="1.1" width="256" height="256">
  <defs/>
  <g>
    <path d="M 26.0 20.0 C 23.32050895690918 30.0 16.0 37.32050704956055 6.0 40.0 C -4.0 37.32050704956055 -11.320508003234863 30.0 -14.0 20.0 C -11.320508003234863 10.0 -4.0 2.6794919967651367 6.0 0.0 C 16.0 2.6794919967651367 23.32050895690918 10.0 26.0 20.0" stroke-width="0.0" fill="rgb(251, 251, 252)" opacity="1.0"/>
    <path d="M 36.0 21.0 C 33.32050704956055 31.0 26.0 38.32050704956055 16.0 41.0 C 6.0 38.32050704956055 -1.3205081224441528 31.0 -4.0 21.0 C -1.3205081224441528 11.0 6.0 3.6794919967651367 16.0 1.0 C 26.0 3.6794919967651367 33.32050704956055 11.0 36.0 21.0" stroke-width="0.0" fill="rgb(252, 252, 252)" opacity="1.0"/>
    <path d="M 42.0 8.0 C 39.32050704956055 18.0 32.0 25.32050895690918 22.0 28.0 C 12.0 25.32050895690918 4.679491996765137 18.0 2.0 8.0 C 4.679491996765137 -2.0 12.0 -9.320508003234863 22.0 -12.0 C 32.0 -9.320508003234863 39.32050704956055 -2.0 42.0 8.0" stroke-width="0.0" fill="rgb(252, 253, 253)" opacity="1.0"/>
    <path d="M 42.0 20.0 C 39.32050704956055 30.0 32.0 37.32050704956055 22.0 40.0 C 12.0 37.32050704956055 4.679491996765137 30.0 2.0 20.0 C 4.679491996765137 10.0 12.0 2.6794919967651367 22.0 0.0 C 32.0 2.6794919967651367 39.32050704956055 10.0 42.0 20.0" stroke-width="0.0" fill="rgb(252, 252, 253)" opacity="1.0"/>
    <path d="M 46.0 10.0 C 43.32050704956055 20.0 36.0 27.32050895690918 26.0 30.0 C 16.0 27.32050895690918 8.679491996765137 20.0 6.0 10.0 C 8.679491996765137 5.329070518200751e-15 16.0 -7.320508003234863 26.0 -10.0 C 36.0 -7.320508003234863 43.32050704956055 -8.881784197001252e-15 46.0 10.0" stroke-width="0.0" fill="rgb(252, 252, 253)" opacity="1.0"/>
    <path d="M 20.0 13.0 C 17.32050895690918 23.0 10.0 30.32050895690918 1.2246467996456087e-15 33.0 C -10.0 30.32050895690918 -17.32050895690918 23.0 -20.0 13.0 C -17.32050895690918 3.0 -10.0 -4.320508003234863 -3.673940187178589e-15 -7.0 C 10.0 -4.320508003234863 17.32050895690918 3.0 20.0 13.0" stroke-width="0.0" fill="rgb(252, 251, 252)" opacity="1.0"/>
    <path d="M 44.0 16.0 C 41.32050704956055 26.0 34.0 33.32050704956055 24.0 36.0 C 14.0 33.32050704956055 6.679491996765137 26.0 4.0 16.0 C 6.679491996765137 6.0 14.0 -1.3205081224441528 24.0 -4.0 C 34.0 -1.3205081224441528 41.32050704956055 6.0 44.0 16.0" stroke-width="0.0" fill="rgb(252, 252, 253)" opacity="1.0"/>
    <path d="M 44.0 3.0 C 41.32050704956055 13.0 34.0 20.32050895690918 24.0 23.0 C 14.0 20.32050895690918 6.679491996765137 13.0 4.0 3.0 C 6.679491996765137 -7.0 14.0 -14.320508003234863 24.0 -17.0 C 34.0 -14.320508003234863 41.32050704956055 -7.0 44.0 3.0" stroke-width="0.0" fill="rgb(252, 253, 253)" opacity="1.0"/>
    <path d="M 46.0 23.0 C 43.32050704956055 33.0 36.0 40.32050704956055 26.0 43.0 C 16.0 40.32050704956055 8.679491996765137 33.0 6.0 23.0 C 8.679491996765137 13.0 16.0 5.679491996765137 26.0 3.0 C 36.0 5.679491996765137 43.32050704956055 13.0 46.0 23.0" stroke-width="0.0" fill="rgb(252, 253, 253)" opacity="1.0"/>
    <path d="M 46.0 3.0 C 43.32050704956055 13.0 36.0 20.32050895690918 26.0 23.0 C 16.0 20.32050895690918 8.679491996765137 13.0 6.0 3.0 C 8.679491996765137 -7.0 16.0 -14.320508003234863 26.0 -17.0 C 36.0 -14.320508003234863 43.32050704956055 -7.0 46.0 3.0" stroke-width="0.0" fill="rgb(252, 252, 253)" opacity="1.0"/>
    <path d="M 23.0 27.0 C 20.32050895690918 37.0 13.0 44.32050704956055 3.0 47.0 C -7.0 44.32050704956055 -14.320508003234863 37.0 -17.0 27.0 C -14.320508003234863 17.0 -7.0 9.679491996765137 3.0 7.0 C 13.0 9.679491996765137 20.32050895690918 17.0 23.0 27.0" stroke-width="0.0" fill="rgb(251, 251, 252)" opacity="1.0"/>
    <path d="M 25.0 28.000001907348633 C 22.320619583129883 38.00038146972656 15.005488395690918 45.339237213134766 4.643518447875977 48.7489013671875 C -4.97898530960083 45.266990661621094 -12.318801879882812 37.99407958984375 -14.999994277954102 27.999967575073242 C -12.320508003234863 18.0 -5.0 10.679491996765137 5.0 8.0 C 15.0 10.679491996765137 22.32050895690918 18.0 25.0 28.000001907348633" stroke-width="0.0" fill="rgb(252, 253, 253)" opacity="0.9913966"/>
    <path d="M 47.23078918457031 26.024768829345703 C 44.32319641113281 36.0007438659668 37.00001907348633 43.32051086425781 27.0 46.0 C 17.0 43.32050704956055 9.679491996765137 36.0 7.0 26.0 C 9.679491996765137 16.0 17.0 8.679491996765137 27.0 6.0 C 37.00004959106445 8.67947769165039 44.32416534423828 15.998963356018066 47.23078918457031 26.024768829345703" stroke-width="0.0" fill="rgb(252, 252, 253)" opacity="0.99999195"/>
    <path d="M 24.0 7.0 C 21.32050895690918 17.0 14.0 24.32050895690918 4.0 27.0 C -6.0 24.32050895690918 -13.320508003234863 17.0 -16.0 7.0 C -13.320508003234863 -3.0 -6.0 -10.320508003234863 4.0 -13.0 C 14.0 -10.320508003234863 21.32050895690918 -3.0 24.0 7.0" stroke-width="0.0" fill="rgb(252, 252, 253)" opacity="1.0"/>
    <path d="M 28.0 8.0 C 25.32050895690918 18.0 18.0 25.32050895690918 8.0 28.0 C -2.0 25.32050895690918 -9.320508003234863 18.0 -12.0 8.0 C -9.320508003234863 -2.0 -2.0 -9.320508003234863 8.0 -12.0 C 18.0 -9.320508003234863 25.32050895690918 -2.0 28.0 8.0" stroke-width="0.0" fill="rgb(252, 252, 252)" opacity="1.0"/>
    <path d="M 40.0 22.0 C 37.32050704956055 32.0 30.0 39.32050704956055 20.0 42.0 C 10.0 39.32050704956055 2.6794919967651367 32.0 0.0 22.0 C 2.6794919967651367 12.0 10.0 4.679491996765137 20.0 2.0 C 30.0 4.679491996765137 37.32050704956055 12.0 40.0 22.0" stroke-width="0.0" fill="rgb(252, 252, 253)" opacity="1.0"/>
    <path d="M 41.0 12.0 C 38.32050704956055 22.0 31.0 29.32050895690918 21.0 32.0 C 11.0 29.32050895690918 3.6794919967651367 22.0 1.0 12.0 C 3.6794919967651367 2.0 11.0 -5.320508003234863 21.0 -8.0 C 31.0 -5.320508003234863 38.32050704956055 2.0 41.0 12.0" stroke-width="0.0" fill="rgb(252, 252, 253)" opacity="1.0"/>
    <path d="M 37.0 4.0 C 34.32050704956055 14.0 27.0 21.32050895690918 17.0 24.0 C 7.0 21.32050895690918 -0.32050806283950806 14.0 -3.0 4.0 C -0.32050806283950806 -6.0 7.0 -13.320508003234863 17.0 -16.0 C 27.0 -13.320508003234863 34.32050704956055 -6.0 37.0 4.0" stroke-width="0.0" fill="rgb(252, 252, 253)" opacity="1.0"/>
    <path d="M 36.0 9.0 C 33.32050704956055 19.0 26.0 26.32050895690918 16.0 29.0 C 6.0 26.32050895690918 -1.3205081224441528 19.0 -4.0 9.0 C -1.3205081224441528 -1.0 6.0 -8.320508003234863 16.0 -11.0 C 26.0 -8.320508003234863 33.32050704956055 -1.0 36.0 9.0" stroke-width="0.0" fill="rgb(252, 252, 253)" opacity="1.0"/>
    <path d="M 42.0 22.0 C 39.32050704956055 32.0 32.0 39.32050704956055 22.0 42.0 C 12.0 39.32050704956055 4.679491996765137 32.0 2.0 22.0 C 4.679491996765137 12.0 12.0 4.679491996765137 22.0 2.0 C 32.0 4.679491996765137 39.32050704956055 12.0 42.0 22.0" stroke-width="0.0" fill="rgb(252, 252, 253)" opacity="1.0"/>
    <path d="M 31.0 20.0 C 28.32050895690918 30.0 21.0 37.32050704956055 11.0 40.0 C 1.0 37.32050704956055 -6.320508003234863 30.0 -9.0 20.0 C -6.320508003234863 10.0 1.0 2.6794919967651367 11.0 0.0 C 21.0 2.6794919967651367 28.32050895690918 10.0 31.0 20.0" stroke-width="0.0" fill="rgb(251, 252, 252)" opacity="1.0"/>
    <path d="M 40.0 9.0 C 37.32050704956055 19.0 30.0 26.32050895690918 20.0 29.0 C 10.0 26.32050895690918 2.6794919967651367 19.0 0.0 9.0 C 2.6794919967651367 -1.0 10.0 -8.320508003234863 20.0 -11.0 C 30.0 -8.320508003234863 37.32050704956055 -1.0 40.0 9.0" stroke-width="0.0" fill="rgb(252, 252, 253)" opacity="1.0"/>
    <path d="M 44.0 23.0 C 41.32050704956055 33.0 34.0 40.32050704956055 24.0 43.0 C 14.0 40.32050704956055 6.679491996765137 33.0 4.0 23.0 C 6.679491996765137 13.0 14.0 5.679491996765137 24.0 3.0 C 34.0 5.679491996765137 41.32050704956055 13.0 44.0 23.0" stroke-width="0.0" fill="rgb(252, 253, 253)" opacity="1.0"/>
    <path d="M 32.0 28.0 C 29.32050895690918 38.0 22.0 45.32050704956055 12.0 48.0 C 2.0 45.32050704956055 -5.320508003234863 38.0 -8.0 28.0 C -5.320508003234863 18.0 2.0 10.679491996765137 12.0 8.0 C 22.0 10.679491996765137 29.32050895690918 18.0 32.0 28.0" stroke-width="0.0" fill="rgb(251, 252, 252)" opacity="1.0"/>
    <path d="M 51.87218475341797 8.279316902160645 C 48.297611236572266 18.99464988708496 41.00121307373047 26.32158660888672 31.000272750854492 29.00014877319336 C 21.0 26.32050895690918 13.679491996765137 19.0 11.0 9.0 C 13.679491996765137 -1.0 21.0 -8.320508003234863 31.039587020874023 -11.020713806152344 C 41.31351852416992 -8.512919425964355 48.986209869384766 -1.4898120164871216 51.87218475341797 8.279316902160645" stroke-width="0.0" fill="rgb(254, 255, 255)" opacity="0.99056804"/>
    <path d="M 29.0 11.0 C 26.32050895690918 21.0 19.0 28.32050895690918 9.0 31.0 C -1.0 28.32050895690918 -8.320508003234863 21.0 -11.0 11.0 C -8.320508003234863 1.0 -1.0 -6.320508003234863 9.0 -9.0 C 19.0 -6.320508003234863 26.32050895690918 1.0 29.0 11.0" stroke-width="0.0" fill="rgb(251, 252, 252)" opacity="1.0"/>
    <path d="M 34.0 27.0 C 31.32050895690918 37.0 24.0 44.32050704956055 14.0 47.0 C 4.0 44.32050704956055 -3.3205080032348633 37.0 -6.0 27.0 C -3.3205080032348633 17.0 4.0 9.679491996765137 14.0 7.0 C 24.0 9.679491996765137 31.32050895690918 17.0 34.0 27.0" stroke-width="0.0" fill="rgb(252, 252, 252)" opacity="1.0"/>
    <path d="M 27.0 6.0 C 24.32050895690918 16.0 17.0 23.32050895690918 7.0 26.0 C -3.0 23.32050895690918 -10.320508003234863 16.0 -13.0 6.0 C -10.320508003234863 -4.0 -3.0 -11.320508003234863 7.0 -14.0 C 17.0 -11.320508003234863 24.32050895690918 -4.0 27.0 6.0" stroke-width="0.0" fill="rgb(252, 252, 253)" opacity="1.0"/>
    <path d="M 49.15262985229492 17.62030601501465 C 47.009178161621094 27.940868377685547 40.064453125 35.36570358276367 30.010299682617188 38.00556945800781 C 20.0 35.32050704956055 12.679491996765137 28.0 10.0 18.0 C 12.679491996765137 8.0 20.0 0.6794919371604919 29.99843978881836 -1.9994289875030518 C 39.953006744384766 0.6971499919891357 46.97834777832031 8.159293174743652 49.15262985229492 17.62030601501465" stroke-width="0.0" fill="rgb(254, 255, 255)" opacity="0.9909549"/>
    <path d="M 32.00172805786133 30.003629684448242 C 29.342130661010742 40.04164123535156 22.05523681640625 47.38238525390625 12.299116134643555 49.446388244628906 C 2.2392418384552 46.906517028808594 -5.26677942276001 39.88615036010742 -7.996653079986572 29.992420196533203 C -5.320508003234863 20.0 2.0 12.679491996765137 12.0 10.0 C 22.0 12.679491996765137 29.32050895690918 20.0 32.00172805786133 30.003629684448242" stroke-width="0.0" fill="rgb(254, 254, 254)" opacity="0.9909799"/>
    <path d="M 31.0 16.0 C 28.32050895690918 26.0 21.0 33.32050704956055 11.0 36.0 C 1.0 33.32050704956055 -6.320508003234863 26.0 -9.0 16.0 C -6.320508003234863 6.0 1.0 -1.3205081224441528 11.0 -4.0 C 21.0 -1.3205081224441528 28.32050895690918 6.0 31.0 16.0" stroke-width="0.0" fill="rgb(251, 252, 252)" opacity="1.0"/>
    <path d="M 22.0 19.0 C 19.32050895690918 29.0 12.0 36.32050704956055 2.0 39.0 C -8.0 36.32050704956055 -15.320508003234863 29.0 -18.0 19.0 C -15.320508003234863 9.0 -8.0 1.6794918775558472 2.0 -1.0 C 12.0 1.6794918775558472 19.32050895690918 9.0 22.0 19.0" stroke-width="0.0" fill="rgb(251, 251, 252)" opacity="1.0"/>
    <path d="M 36.0 4.0 C 33.32050704956055 14.0 26.0 21.32050895690918 16.0 24.0 C 6.0 21.32050895690918 -1.3205081224441528 14.0 -4.0 4.0 C -1.3205081224441528 -6.0 6.0 -13.320508003234863 16.0 -16.0 C 26.0 -13.320508003234863 33.32050704956055 -6.0 36.0 4.0" stroke-width="0.0" fill="rgb(252, 252, 253)" opacity="1.0"/>
    <path d="M 32.0 16.0 C 29.32050895690918 26.0 22.0 33.32050704956055 12.0 36.0 C 2.0 33.32050704956055 -5.320508003234863 26.0 -8.0 16.0 C -5.320508003234863 6.0 2.0 -1.3205081224441528 12.0 -4.0 C 22.0 -1.3205081224441528 29.32050895690918 6.0 32.0 16.0" stroke-width="0.0" fill="rgb(252, 252, 252)" opacity="1.0"/>
    <path d="M 22.0 3.0 C 19.32050895690918 13.0 12.0 20.32050895690918 2.0 23.0 C -8.0 20.32050895690918 -15.320508003234863 13.0 -18.0 3.0 C -15.320508003234863 -7.0 -8.0 -14.320508003234863 2.0 -17.0 C 12.0 -14.320508003234863 19.32050895690918 -7.0 22.0 3.0" stroke-width="0.0" fill="rgb(252, 253, 254)" opacity="1.0"/>
    <path d="M 35.0 6.0 C 32.32050704956055 16.0 25.0 23.32050895690918 15.0 26.0 C 5.0 23.32050895690918 -2.3205080032348633 16.0 -5.0 6.0 C -2.3205080032348633 -4.0 5.0 -11.320508003234863 15.0 -14.0 C 25.0 -11.320508003234863 32.32050704956055 -4.0 35.0 6.0" stroke-width="0.0" fill="rgb(252, 252, 253)" opacity="1.0"/>
    <path d="M 31.0 19.0 C 28.32050895690918 29.0 21.0 36.32050704956055 11.0 39.0 C 1.0 36.32050704956055 -6.320508003234863 29.0 -9.0 19.0 C -6.320508003234863 9.0 1.0 1.6794918775558472 11.0 -1.0 C 21.0 1.6794918775558472 28.32050895690918 9.0 31.0 19.0" stroke-width="0.0" fill="rgb(251, 252, 252)" opacity="1.0"/>
    <path d="M 22.0 5.0 C 19.32050895690918 15.0 12.0 22.32050895690918 2.0 25.0 C -8.0 22.32050895690918 -15.320508003234863 15.0 -18.0 5.0 C -15.320508003234863 -5.0 -8.0 -12.320508003234863 2.0 -15.0 C 12.0 -12.320508003234863 19.32050895690918 -5.0 22.0 5.0" stroke-width="0.0" fill="rgb(252, 252, 253)" opacity="1.0"/>
    <path d="M 47.0 3.0 C 44.32050704956055 13.0 37.0 20.32050895690918 27.0 23.0 C 17.0 20.32050895690918 9.679491996765137 13.0 7.0 3.0 C 9.679491996765137 -7.0 17.0 -14.320508003234863 27.0 -17.0 C 37.0 -14.320508003234863 44.32050704956055 -7.0 47.0 3.0" stroke-width="0.0" fill="rgb(252, 252, 253)" opacity="1.0"/>
    <path d="M 28.0 9.0 C 25.32050895690918 19.0 18.0 26.32050895690918 8.0 29.0 C -2.0 26.32050895690918 -9.320508003234863 19.0 -12.0 9.0 C -9.320508003234863 -1.0 -2.0 -8.320508003234863 8.0 -11.0 C 18.0 -8.320508003234863 25.32050895690918 -1.0 28.0 9.0" stroke-width="0.0" fill="rgb(251, 252, 252)" opacity="1.0"/>
    <path d="M 41.0 22.0 C 38.32050704956055 32.0 31.0 39.32050704956055 21.0 42.0 C 11.0 39.32050704956055 3.6794919967651367 32.0 1.0 22.0 C 3.6794919967651367 12.0 11.0 4.679491996765137 21.0 2.0 C 31.0 4.679491996765137 38.32050704956055 12.0 41.0 22.0" stroke-width="0.0" fill="rgb(252, 252, 253)" opacity="1.0"/>
    <path d="M 37.0 27.0 C 34.32050704956055 37.0 27.0 44.32050704956055 17.0 47.0 C 7.0 44.32050704956055 -0.32050806283950806 37.0 -3.0 27.0 C -0.32050806283950806 17.0 7.0 9.679491996765137 17.0 7.0 C 27.0 9.679491996765137 34.32050704956055 17.0 37.0 27.0" stroke-width="0.0" fill="rgb(252, 252, 252)" opacity="1.0"/>
    <path d="M 37.0 16.0 C 34.32050704956055 26.0 27.0 33.32050704956055 17.0 36.0 C 7.0 33.32050704956055 -0.32050806283950806 26.0 -3.0 16.0 C -0.32050806283950806 6.0 7.0 -1.3205081224441528 17.0 -4.0 C 27.0 -1.3205081224441528 34.32050704956055 6.0 37.0 16.0" stroke-width="0.0" fill="rgb(252, 252, 252)" opacity="1.0"/>
    <path d="M 30.0 25.0 C 27.32050895690918 35.0 20.0 42.32050704956055 10.0 45.0 C 3.552713678800501e-15 42.32050704956055 -7.320508003234863 35.0 -10.0 25.0 C -7.320508003234863 15.0 -8.881784197001252e-15 7.679491996765137 10.0 5.0 C 20.0 7.679491996765137 27.32050895690918 15.0 30.0 25.0" stroke-width="0.0" fill="rgb(252, 252, 252)" opacity="1.0"/>
    <path d="M 47.99415969848633 4.001868724822998 C 45.32049560546875 13.99999713897705 38.0 21.32050895690918 28.0 24.0 C 18.0 21.32050895690918 10.679491996765137 14.0 8.0 4.0 C 10.679491996765137 -6.0 18.0 -13.320508003234863 27.999996185302734 -15.999998092651367 C 37.999874114990234 -13.320462226867676 45.31915283203125 -5.999509334564209 47.99415969848633 4.001868724822998" stroke-width="0.0" fill="rgb(253, 253, 254)" opacity="0.99997246"/>
    <path d="M 33.0 12.0 C 30.32050895690918 22.0 23.0 29.32050895690918 13.0 32.0 C 3.0 29.32050895690918 -4.320508003234863 22.0 -7.0 12.0 C -4.320508003234863 2.0 3.0 -5.320508003234863 13.0 -8.0 C 23.0 -5.320508003234863 30.32050895690918 2.0 33.0 12.0" stroke-width="0.0" fill="rgb(252, 252, 252)" opacity="1.0"/>
    <path d="M 27.0 16.0 C 24.32050895690918 26.0 17.0 33.32050704956055 7.0 36.0 C -3.0 33.32050704956055 -10.320508003234863 26.0 -13.0 16.0 C -10.320508003234863 6.0 -3.0 -1.3205081224441528 7.0 -4.0 C 17.0 -1.3205081224441528 24.32050895690918 6.0 27.0 16.0" stroke-width="0.0" fill="rgb(251, 251, 252)" opacity="1.0"/>
    <path d="M 26.0 14.0 C 23.32050895690918 24.0 16.0 31.32050895690918 6.0 34.0 C -4.0 31.32050895690918 -11.320508003234863 24.0 -14.0 14.0 C -11.320508003234863 4.0 -4.0 -3.3205080032348633 6.0 -6.0 C 16.0 -3.3205080032348633 23.32050895690918 4.0 26.0 14.0" stroke-width="0.0" fill="rgb(251, 251, 252)" opacity="1.0"/>
    <path d="M 45.0 16.0 C 42.32050704956055 26.0 35.0 33.32050704956055 25.0 36.0 C 15.0 33.32050704956055 7.679491996765137 26.0 5.0 16.0 C 7.679491996765137 6.0 15.0 -1.3205081224441528 25.0 -4.0 C 35.0 -1.3205081224441528 42.32050704956055 6.0 45.0 16.0" stroke-width="0.0" fill="rgb(252, 252, 253)" opacity="1.0"/>
    <path d="M 38.0 19.0 C 35.32050704956055 29.0 28.0 36.32050704956055 18.0 39.0 C 8.0 36.32050704956055 0.6794919371604919 29.0 -2.0 19.0 C 0.6794919371604919 9.0 8.0 1.6794918775558472 18.0 -1.0 C 28.0 1.6794918775558472 35.32050704956055 9.0 38.0 19.0" stroke-width="0.0" fill="rgb(252, 252, 252)" opacity="1.0"/>
    <path d="M 26.0 25.0 C 23.32050895690918 35.0 16.0 42.32050704956055 6.0 45.0 C -4.0 42.32050704956055 -11.320508003234863 35.0 -14.0 25.0 C -11.320508003234863 15.0 -4.0 7.679491996765137 6.0 5.0 C 16.0 7.679491996765137 23.32050895690918 15.0 26.0 25.0" stroke-width="0.0" fill="rgb(251, 251, 252)" opacity="1.0"/>
    <path d="M 26.0 17.0 C 23.32050895690918 27.0 16.0 34.32050704956055 6.0 37.0 C -4.0 34.32050704956055 -11.320508003234863 27.0 -14.0 17.0 C -11.320508003234863 7.0 -4.0 -0.32050806283950806 6.0 -3.0 C 16.0 -0.32050806283950806 23.32050895690918 7.0 26.0 17.0" stroke-width="0.0" fill="rgb(251, 251, 252)" opacity="1.0"/>
    <path d="M 38.0 16.0 C 35.32050704956055 26.0 28.0 33.32050704956055 18.0 36.0 C 8.0 33.32050704956055 0.6794919371604919 26.0 -2.0 16.0 C 0.6794919371604919 6.0 8.0 -1.3205081224441528 18.0 -4.0 C 28.0 -1.3205081224441528 35.32050704956055 6.0 38.0 16.0" stroke-width="0.0" fill="rgb(252, 252, 253)" opacity="1.0"/>
    <path d="M 40.0 19.0 C 37.32050704956055 29.0 30.0 36.32050704956055 20.0 39.0 C 10.0 36.32050704956055 2.6794919967651367 29.0 0.0 19.0 C 2.6794919967651367 9.0 10.0 1.6794918775558472 20.0 -1.0 C 30.0 1.6794918775558472 37.32050704956055 9.0 40.0 19.0" stroke-width="0.0" fill="rgb(252, 252, 253)" opacity="1.0"/>
    <path d="M 21.0 17.0 C 18.32050895690918 27.0 11.0 34.32050704956055 1.0 37.0 C -9.0 34.32050704956055 -16.32050895690918 27.0 -19.0 17.0 C -16.32050895690918 7.0 -9.0 -0.32050806283950806 1.0 -3.0 C 11.0 -0.32050806283950806 18.32050895690918 7.0 21.0 17.0" stroke-width="0.0" fill="rgb(251, 251, 252)" opacity="1.0"/>
    <path d="M 28.0 5.0 C 25.32050895690918 15.0 18.0 22.32050895690918 8.0 25.0 C -2.0 22.32050895690918 -9.320508003234863 15.0 -12.0 5.0 C -9.320508003234863 -5.0 -2.0 -12.320508003234863 8.0 -15.0 C 18.0 -12.320508003234863 25.32050895690918 -5.0 28.0 5.0" stroke-width="0.0" fill="rgb(252, 252, 253)" opacity="1.0"/>
    <path d="M 38.0 25.0 C 35.32050704956055 35.0 28.0 42.32050704956055 18.0 45.0 C 8.0 42.32050704956055 0.6794919371604919 35.0 -2.0 25.0 C 0.6794919371604919 15.0 8.0 7.679491996765137 18.0 5.0 C 28.0 7.679491996765137 35.32050704956055 15.0 38.0 25.0" stroke-width="0.0" fill="rgb(252, 252, 253)" opacity="1.0"/>
    <path d="M 44.0 1.0 C 41.32050704956055 11.0 34.0 18.32050895690918 24.0 21.0 C 14.0 18.32050895690918 6.679491996765137 11.0 4.0 1.0 C 6.679491996765137 -9.0 14.0 -16.32050895690918 24.0 -19.0 C 34.0 -16.32050895690918 41.32050704956055 -9.0 44.0 1.0" stroke-width="0.0" fill="rgb(252, 253, 253)" opacity="1.0"/>
    <path d="M 39.0 27.0 C 36.32050704956055 37.0 29.0 44.32050704956055 19.0 47.0 C 9.0 44.32050704956055 1.6794918775558472 37.0 -1.0 27.0 C 1.6794918775558472 17.0 9.0 9.679491996765137 19.0 7.0 C 29.0 9.679491996765137 36.32050704956055 17.0 39.0 27.0" stroke-width="0.0" fill="rgb(252, 252, 253)" opacity="1.0"/>
    <path d="M 45.0 7.0 C 42.32050704956055 17.0 35.0 24.32050895690918 25.0 27.0 C 15.0 24.32050895690918 7.679491996765137 17.0 5.0 7.0 C 7.679491996765137 -3.0 15.0 -10.320508003234863 25.0 -13.0 C 35.0 -10.320508003234863 42.32050704956055 -3.0 45.0 7.0" stroke-width="0.0" fill="rgb(253, 253, 253)" opacity="1.0"/>
    <path d="M 25.0 8.0 C 22.32050895690918 18.0 15.0 25.32050895690918 5.0 28.0 C -5.0 25.32050895690918 -12.320508003234863 18.0 -15.0 8.0 C -12.320508003234863 -2.0 -5.0 -9.320508003234863 5.0 -12.0 C 15.0 -9.320508003234863 22.32050895690918 -2.0 25.0 8.0" stroke-width="0.0" fill="rgb(251, 252, 252)" opacity="1.0"/>
    <path d="M 24.0 17.0 C 21.32050895690918 27.0 14.0 34.32050704956055 4.0 37.0 C -6.0 34.32050704956055 -13.320508003234863 27.0 -16.0 17.0 C -13.320508003234863 7.0 -6.0 -0.32050806283950806 4.0 -3.0 C 14.0 -0.32050806283950806 21.32050895690918 7.0 24.0 17.0" stroke-width="0.0" fill="rgb(251, 251, 252)" opacity="1.0"/>
    <path d="M 41.0 10.0 C 38.32050704956055 20.0 31.0 27.32050895690918 21.0 30.0 C 11.0 27.32050895690918 3.6794919967651367 20.0 1.0 10.0 C 3.6794919967651367 5.329070518200751e-15 11.0 -7.320508003234863 21.0 -10.0 C 31.0 -7.320508003234863 38.32050704956055 -8.881784197001252e-15 41.0 10.0" stroke-width="0.0" fill="rgb(252, 252, 253)" opacity="1.0"/>
    <path d="M 28.0 14.0 C 25.32050895690918 24.0 18.0 31.32050895690918 8.0 34.0 C -2.0 31.32050895690918 -9.320508003234863 24.0 -12.0 14.0 C -9.320508003234863 4.0 -2.0 -3.3205080032348633 8.0 -6.0 C 18.0 -3.3205080032348633 25.32050895690918 4.0 28.0 14.0" stroke-width="0.0" fill="rgb(251, 251, 252)" opacity="1.0"/>
    <path d="M 44.0 8.0 C 41.32050704956055 18.0 34.0 25.32050895690918 24.0 28.0 C 14.0 25.32050895690918 6.679491996765137 18.0 4.0 8.0 C 6.679491996765137 -2.0 14.0 -9.320508003234863 24.0 -12.0 C 34.0 -9.320508003234863 41.32050704956055 -2.0 44.0 8.0" stroke-width="0.0" fill="rgb(252, 253, 253)" opacity="1.0"/>
    <path d="M 31.0 29.0 C 28.32050895690918 39.0 21.0 46.32050704956055 11.0 49.0 C 1.0 46.32050704956055 -6.320508003234863 39.0 -9.0 29.0 C -6.320508003234863 19.0 1.0 11.679491996765137 11.0 9.0 C 21.0 11.679491996765137 28.32050895690918 19.0 31.0 29.0" stroke-width="0.0" fill="rgb(253, 253, 253)" opacity="1.0"/>
    <path d="M 42.0 15.0 C 39.32050704956055 25.0 32.0 32.32050704956055 22.0 35.0 C 12.0 32.32050704956055 4.679491996765137 25.0 2.0 15.0 C 4.679491996765137 5.0 12.0 -2.3205080032348633 22.0 -5.0 C 32.0 -2.3205080032348633 39.32050704956055 5.0 42.0 15.0" stroke-width="0.0" fill="rgb(252, 252, 253)" opacity="1.0"/>
    <path d="M 30.0 16.0 C 27.32050895690918 26.0 20.0 33.32050704956055 10.0 36.0 C 3.552713678800501e-15 33.32050704956055 -7.320508003234863 26.0 -10.0 16.0 C -7.320508003234863 6.0 -8.881784197001252e-15 -1.3205081224441528 10.0 -4.0 C 20.0 -1.3205081224441528 27.32050895690918 6.0 30.0 16.0" stroke-width="0.0" fill="rgb(251, 252, 252)" opacity="1.0"/>
    <path d="M 37.0 9.0 C 34.32050704956055 19.0 27.0 26.32050895690918 17.0 29.0 C 7.0 26.32050895690918 -0.32050806283950806 19.0 -3.0 9.0 C -0.32050806283950806 -1.0 7.0 -8.320508003234863 17.0 -11.0 C 27.0 -8.320508003234863 34.32050704956055 -1.0 37.0 9.0" stroke-width="0.0" fill="rgb(252, 252, 253)" opacity="1.0"/>
    <path d="M 40.0 28.0 C 37.32052230834961 38.00005340576172 30.001216888427734 45.32482147216797 19.60247039794922 48.7216682434082 C 9.965301513671875 45.431087493896484 2.6787729263305664 38.002479553222656 -5.060420789959608e-06 28.000017166137695 C 2.6794919967651367 18.0 10.0 10.679491996765137 20.0 8.0 C 30.0 10.679491996765137 37.32050704956055 18.0 40.0 28.0" stroke-width="0.0" fill="rgb(253, 253, 254)" opacity="0.9942539"/>
    <path d="M 34.0 24.0 C 31.32050895690918 34.0 24.0 41.32050704956055 14.0 44.0 C 4.0 41.32050704956055 -3.3205080032348633 34.0 -6.0 24.0 C -3.3205080032348633 14.0 4.0 6.679491996765137 14.0 4.0 C 24.0 6.679491996765137 31.32050895690918 14.0 34.0 24.0" stroke-width="0.0" fill="rgb(252, 252, 252)" opacity="1.0"/>
    <path d="M 29.0 13.0 C 26.32050895690918 23.0 19.0 30.32050895690918 9.0 33.0 C -1.0 30.32050895690918 -8.320508003234863 23.0 -11.0 13.0 C -8.320508003234863 3.0 -1.0 -4.320508003234863 9.0 -7.0 C 19.0 -4.320508003234863 26.32050895690918 3.0 29.0 13.0" stroke-width="0.0" fill="rgb(251, 252, 252)" opacity="1.0"/>
    <path d="M 29.999998092651367 27.999998092651367 C 27.32049560546875 37.99997329711914 19.99994659423828 45.320396423339844 9.999922752380371 47.99984359741211 C 3.552713678800501e-15 45.32050704956055 -7.320508003234863 38.0 -10.0 28.0 C -7.320508003234863 18.0 -8.881784197001252e-15 10.679491996765137 10.0 8.0 C 20.0 10.679491996765137 27.32050895690918 18.0 29.999998092651367 27.999998092651367" stroke-width="0.0" fill="rgb(253, 253, 253)" opacity="0.9999988"/>
    <path d="M 44.0 26.0 C 41.32050704956055 36.0 34.0 43.32050704956055 24.0 46.0 C 14.0 43.32050704956055 6.679491996765137 36.0 4.0 26.0 C 6.679491996765137 16.0 14.0 8.679491996765137 24.0 6.0 C 34.0 8.679491996765137 41.32050704956055 16.0 44.0 26.0" stroke-width="0.0" fill="rgb(252, 253, 253)" opacity="1.0"/>
    <path d="M 43.0 25.0 C 40.32050704956055 35.0 33.0 42.32050704956055 23.0 45.0 C 13.0 42.32050704956055 5.679491996765137 35.0 3.0 25.0 C 5.679491996765137 15.0 13.0 7.679491996765137 23.0 5.0 C 33.0 7.679491996765137 40.32050704956055 15.0 43.0 25.0" stroke-width="0.0" fill="rgb(252, 252, 253)" opacity="1.0"/>
    <path d="M 45.0 24.0 C 42.32050704956055 34.0 35.0 41.32050704956055 25.0 44.0 C 15.0 41.32050704956055 7.679491996765137 34.0 5.0 24.0 C 7.679491996765137 14.0 15.0 6.679491996765137 25.0 4.0 C 35.0 6.679491996765137 42.32050704956055 14.0 45.0 24.0" stroke-width="0.0" fill="rgb(252, 253, 253)" opacity="1.0"/>
    <path d="M 45.0 27.0 C 42.32050704956055 37.0 35.0 44.32050704956055 25.0 47.0 C 15.0 44.32050704956055 7.679491996765137 37.0 5.0 27.0 C 7.679491996765137 17.0 15.0 9.679491996765137 25.0 7.0 C 35.0 9.679491996765137 42.32050704956055 17.0 45.0 27.0" stroke-width="0.0" fill="rgb(252, 253, 253)" opacity="1.0"/>
    <path d="M 34.0 14.0 C 31.32050895690918 24.0 24.0 31.32050895690918 14.0 34.0 C 4.0 31.32050895690918 -3.3205080032348633 24.0 -6.0 14.0 C -3.3205080032348633 4.0 4.0 -3.3205080032348633 14.0 -6.0 C 24.0 -3.3205080032348633 31.32050895690918 4.0 34.0 14.0" stroke-width="0.0" fill="rgb(252, 252, 252)" opacity="1.0"/>
    <path d="M 36.0 20.0 C 33.32050704956055 30.0 26.0 37.32050704956055 16.0 40.0 C 6.0 37.32050704956055 -1.3205081224441528 30.0 -4.0 20.0 C -1.3205081224441528 10.0 6.0 2.6794919967651367 16.0 0.0 C 26.0 2.6794919967651367 33.32050704956055 10.0 36.0 20.0" stroke-width="0.0" fill="rgb(252, 252, 252)" opacity="1.0"/>
    <path d="M 48.0 21.0 C 45.32050704956055 31.0 38.0 38.32050704956055 28.0 41.0 C 18.0 38.32050704956055 10.679491996765137 31.0 8.0 21.0 C 10.679491996765137 11.0 18.0 3.6794919967651367 28.0 1.0 C 38.0 3.6794919967651367 45.32050704956055 11.0 48.0 21.0" stroke-width="0.0" fill="rgb(252, 253, 253)" opacity="1.0"/>
    <path d="M 49.0 9.0 C 46.32050704956055 19.0 39.0 26.32050895690918 29.0 29.0 C 19.0 26.32050895690918 11.679491996765137 19.0 9.0 9.0 C 11.679491996765137 -1.0 19.0 -8.320508003234863 29.0 -11.0 C 39.0 -8.320508003234863 46.32050704956055 -1.0 49.0 9.0" stroke-width="0.0" fill="rgb(253, 253, 253)" opacity="1.0"/>
    <path d="M 20.0 10.0 C 17.32050895690918 20.0 10.0 27.32050895690918 1.2246467996456087e-15 30.0 C -10.0 27.32050895690918 -17.32050895690918 20.0 -20.0 10.0 C -17.32050895690918 5.329070518200751e-15 -10.0 -7.320508003234863 -3.673940187178589e-15 -10.0 C 10.0 -7.320508003234863 17.32050895690918 -8.881784197001252e-15 20.0 10.0" stroke-width="0.0" fill="rgb(252, 251, 252)" opacity="1.0"/>
    <path d="M 39.0 1.0 C 36.32050704956055 11.0 29.0 18.32050895690918 19.0 21.0 C 9.0 18.32050895690918 1.6794918775558472 11.0 -1.0 1.0 C 1.6794918775558472 -9.0 9.0 -16.32050895690918 19.0 -19.0 C 29.0 -16.32050895690918 36.32050704956055 -9.0 39.0 1.0" stroke-width="0.0" fill="rgb(252, 253, 253)" opacity="1.0"/>
    <path d="M 46.0 11.0 C 43.32050704956055 21.0 36.0 28.32050895690918 26.0 31.0 C 16.0 28.32050895690918 8.679491996765137 21.0 6.0 11.0 C 8.679491996765137 1.0 16.0 -6.320508003234863 26.0 -9.0 C 36.0 -6.320508003234863 43.32050704956055 1.0 46.0 11.0" stroke-width="0.0" fill="rgb(252, 252, 253)" opacity="1.0"/>
    <path d="M 21.0 14.0 C 18.32050895690918 24.0 11.0 31.32050895690918 1.0 34.0 C -9.0 31.32050895690918 -16.32050895690918 24.0 -19.0 14.0 C -16.32050895690918 4.0 -9.0 -3.3205080032348633 1.0 -6.0 C 11.0 -3.3205080032348633 18.32050895690918 4.0 21.0 14.0" stroke-width="0.0" fill="rgb(252, 252, 252)" opacity="1.0"/>
    <path d="M 45.0 4.0 C 42.32050704956055 14.0 35.0 21.32050895690918 25.0 24.0 C 15.0 21.32050895690918 7.679491996765137 14.0 5.0 4.0 C 7.679491996765137 -6.0 15.0 -13.320508003234863 25.0 -16.0 C 35.0 -13.320508003234863 42.32050704956055 -6.0 45.0 4.0" stroke-width="0.0" fill="rgb(252, 252, 253)" opacity="1.0"/>
    <path d="M 36.0 14.0 C 33.32050704956055 24.0 26.0 31.32050895690918 16.0 34.0 C 6.0 31.32050895690918 -1.3205081224441528 24.0 -4.0 14.0 C -1.3205081224441528 4.0 6.0 -3.3205080032348633 16.0 -6.0 C 26.0 -3.3205080032348633 33.32050704956055 4.0 36.0 14.0" stroke-width="0.0" fill="rgb(252, 252, 252)" opacity="1.0"/>
    <path d="M 44.0 0.0 C 41.32050704956055 10.0 34.0 17.32050895690918 24.0 20.0 C 14.0 17.32050895690918 6.679491996765137 10.0 4.0 2.4492935992912173e-15 C 6.679491996765137 -10.0 14.0 -17.32050895690918 24.0 -20.0 C 34.0 -17.32050895690918 41.32050704956055 -10.0 44.0 0.0" stroke-width="0.0" fill="rgb(252, 253, 253)" opacity="1.0"/>
    <path d="M 47.0 15.0 C 44.32050704956055 25.0 37.0 32.32050704956055 27.0 35.0 C 17.0 32.32050704956055 9.679491996765137 25.0 7.0 15.0 C 9.679491996765137 5.0 17.0 -2.3205080032348633 27.0 -5.0 C 37.0 -2.3205080032348633 44.32050704956055 5.0 47.0 15.0" stroke-width="0.0" fill="rgb(252, 253, 253)" opacity="1.0"/>
    <path d="M 27.0 9.0 C 24.32050895690918 19.0 17.0 26.32050895690918 7.0 29.0 C -3.0 26.32050895690918 -10.320508003234863 19.0 -13.0 9.0 C -10.320508003234863 -1.0 -3.0 -8.320508003234863 7.0 -11.0 C 17.0 -8.320508003234863 24.32050895690918 -1.0 27.0 9.0" stroke-width="0.0" fill="rgb(251, 252, 252)" opacity="1.0"/>
    <path d="M 37.0 19.0 C 34.32050704956055 29.0 27.0 36.32050704956055 17.0 39.0 C 7.0 36.32050704956055 -0.32050806283950806 29.0 -3.0 19.0 C -0.32050806283950806 9.0 7.0 1.6794918775558472 17.0 -1.0 C 27.0 1.6794918775558472 34.32050704956055 9.0 37.0 19.0" stroke-width="0.0" fill="rgb(252, 252, 252)" opacity="1.0"/>
    <path d="M 27.0 28.0 C 24.32050895690918 38.0 17.0 45.32050704956055 6.940154552459717 48.17338943481445 C -3.0065524578094482 45.341392517089844 -10.32078742980957 38.00084686279297 -13.000006675720215 28.000017166137695 C -10.320508003234863 18.0 -3.0 10.679491996765137 7.0 8.0 C 17.0 10.679491996765137 24.32050895690918 18.0 27.0 28.0" stroke-width="0.0" fill="rgb(253, 253, 253)" opacity="1.0"/>
    <path d="M 25.999998092651367 26.999996185302734 C 23.32047462463379 36.99991989135742 15.999756813049316 44.31989288330078 5.999699115753174 46.996341705322266 C -3.999899387359619 44.32022476196289 -11.3204984664917 36.999977111816406 -14.0 27.0 C -11.320508003234863 17.0 -4.0 9.679491996765137 6.0 7.0 C 16.0 9.679491996765137 23.32050895690918 17.0 25.999998092651367 26.999996185302734" stroke-width="0.0" fill="rgb(252, 253, 253)" opacity="0.9999191"/>
    <path d="M 34.0 6.0 C 31.32050895690918 16.0 24.0 23.32050895690918 14.0 26.0 C 4.0 23.32050895690918 -3.3205080032348633 16.0 -6.0 6.0 C -3.3205080032348633 -4.0 4.0 -11.320508003234863 14.0 -14.0 C 24.0 -11.320508003234863 31.32050895690918 -4.0 34.0 6.0" stroke-width="0.0" fill="rgb(252, 252, 253)" opacity="1.0"/>
    <path d="M 32.0 4.0 C 29.32050895690918 14.0 22.0 21.32050895690918 12.0 24.0 C 2.0 21.32050895690918 -5.320508003234863 14.0 -8.0 4.0 C -5.320508003234863 -6.0 2.0 -13.320508003234863 12.0 -16.0 C 22.0 -13.320508003234863 29.32050895690918 -6.0 32.0 4.0" stroke-width="0.0" fill="rgb(252, 252, 253)" opacity="1.0"/>
    <path d="M 32.0 24.0 C 29.32050895690918 34.0 22.0 41.32050704956055 12.0 44.0 C 2.0 41.32050704956055 -5.320508003234863 34.0 -8.0 24.0 C -5.320508003234863 14.0 2.0 6.679491996765137 12.0 4.0 C 22.0 6.679491996765137 29.32050895690918 14.0 32.0 24.0" stroke-width="0.0" fill="rgb(252, 252, 252)" opacity="1.0"/>
    <path d="M 34.0 11.0 C 31.32050895690918 21.0 24.0 28.32050895690918 14.0 31.0 C 4.0 28.32050895690918 -3.3205080032348633 21.0 -6.0 11.0 C -3.3205080032348633 1.0 4.0 -6.320508003234863 14.0 -9.0 C 24.0 -6.320508003234863 31.32050895690918 1.0 34.0 11.0" stroke-width="0.0" fill="rgb(252, 252, 252)" opacity="1.0"/>
    <path d="M 22.0 22.0 C 19.32050895690918 32.0 12.0 39.32050704956055 2.0 42.0 C -8.0 39.32050704956055 -15.320508003234863 32.0 -18.0 22.0 C -15.320508003234863 12.0 -8.0 4.679491996765137 2.0 2.0 C 12.0 4.679491996765137 19.32050895690918 12.0 22.0 22.0" stroke-width="0.0" fill="rgb(251, 251, 252)" opacity="1.0"/>
    <path d="M 44.06035232543945 29.099708557128906 C 41.67776107788086 39.48744201660156 34.59889602661133 47.02340316772461 23.48944091796875 49.84358596801758 C 13.853131294250488 46.669193267822266 6.670230388641357 39.02705383300781 3.99977970123291 29.00061798095703 C 6.679491996765137 19.0 14.0 11.679491996765137 24.0 9.0 C 34.0 11.679491996765137 41.32050704956055 19.0 44.06035232543945 29.099708557128906" stroke-width="0.0" fill="rgb(254, 255, 255)" opacity="0.9909325"/>
    <path d="M 27.0 19.0 C 24.32050895690918 29.0 17.0 36.32050704956055 7.0 39.0 C -3.0 36.32050704956055 -10.320508003234863 29.0 -13.0 19.0 C -10.320508003234863 9.0 -3.0 1.6794918775558472 7.0 -1.0 C 17.0 1.6794918775558472 24.32050895690918 9.0 27.0 19.0" stroke-width="0.0" fill="rgb(251, 251, 252)" opacity="1.0"/>
    <path d="M 34.0 7.0 C 31.32050895690918 17.0 24.0 24.32050895690918 14.0 27.0 C 4.0 24.32050895690918 -3.3205080032348633 17.0 -6.0 7.0 C -3.3205080032348633 -3.0 4.0 -10.320508003234863 14.0 -13.0 C 24.0 -10.320508003234863 31.32050895690918 -3.0 34.0 7.0" stroke-width="0.0" fill="rgb(252, 252, 253)" opacity="1.0"/>
    <path d="M 48.0001106262207 22.000045776367188 C 45.320552825927734 32.00001907348633 38.00000762939453 39.32051086425781 28.0 42.0 C 18.0 39.32050704956055 10.679491996765137 32.0 8.0 22.0 C 10.679491996765137 12.0 18.0 4.679491996765137 28.0 2.0 C 38.0 4.679491996765137 45.32050704956055 12.0 48.0001106262207 22.000045776367188" stroke-width="0.0" fill="rgb(253, 254, 254)" opacity="1.0"/>
    <path d="M 41.0 20.0 C 38.32050704956055 30.0 31.0 37.32050704956055 21.0 40.0 C 11.0 37.32050704956055 3.6794919967651367 30.0 1.0 20.0 C 3.6794919967651367 10.0 11.0 2.6794919967651367 21.0 0.0 C 31.0 2.6794919967651367 38.32050704956055 10.0 41.0 20.0" stroke-width="0.0" fill="rgb(252, 252, 253)" opacity="1.0"/>
    <path d="M 25.0 1.0 C 22.32050895690918 11.0 15.0 18.32050895690918 5.0 21.0 C -5.0 18.32050895690918 -12.320508003234863 11.0 -15.0 1.0 C -12.320508003234863 -9.0 -5.0 -16.32050895690918 5.0 -19.0 C 15.0 -16.32050895690918 22.32050895690918 -9.0 25.0 1.0" stroke-width="0.0" fill="rgb(253, 253, 253)" opacity="1.0"/>
    <path d="M 31.0 21.0 C 28.32050895690918 31.0 21.0 38.32050704956055 11.0 41.0 C 1.0 38.32050704956055 -6.320508003234863 31.0 -9.0 21.0 C -6.320508003234863 11.0 1.0 3.6794919967651367 11.0 1.0 C 21.0 3.6794919967651367 28.32050895690918 11.0 31.0 21.0" stroke-width="0.0" fill="rgb(251, 252, 252)" opacity="1.0"/>
    <path d="M 46.997825622558594 17.99981117248535 C 44.320228576660156 27.999895095825195 36.999969482421875 35.32049560546875 26.999998092651367 38.0 C 17.0 35.32050704956055 9.679491996765137 28.0 7.0 18.0 C 9.679491996765137 8.0 17.0 0.6794919371604919 27.0 -2.0 C 36.999996185302734 0.6794933080673218 44.32041931152344 8.000028610229492 46.997825622558594 17.99981117248535" stroke-width="0.0" fill="rgb(253, 253, 254)" opacity="0.99995464"/>
    <path d="M 48.0006103515625 11.00033950805664 C 45.321083068847656 21.000329971313477 38.00019454956055 28.320621490478516 28.000022888183594 31.00001335144043 C 18.0 28.32050895690918 10.679491996765137 21.0 8.0 11.0 C 10.679491996765137 1.0 18.0 -6.320508003234863 28.0 -9.0 C 38.0 -6.320508003234863 45.32050704956055 1.0 48.0006103515625 11.00033950805664" stroke-width="0.0" fill="rgb(253, 253, 253)" opacity="1.0"/>
    <path d="M 28.0 11.0 C 25.32050895690918 21.0 18.0 28.32050895690918 8.0 31.0 C -2.0 28.32050895690918 -9.320508003234863 21.0 -12.0 11.0 C -9.320508003234863 1.0 -2.0 -6.320508003234863 8.0 -9.0 C 18.0 -6.320508003234863 25.32050895690918 1.0 28.0 11.0" stroke-width="0.0" fill="rgb(251, 252, 252)" opacity="1.0"/>
    <path d="M 37.0 0.0 C 34.32050704956055 10.0 27.0 17.32050895690918 17.0 20.0 C 7.0 17.32050895690918 -0.32050806283950806 10.0 -3.0 2.4492935992912173e-15 C -0.32050806283950806 -10.0 7.0 -17.32050895690918 17.0 -20.0 C 27.0 -17.32050895690918 34.32050704956055 -10.0 37.0 0.0" stroke-width="0.0" fill="rgb(252, 252, 252)" opacity="1.0"/>
    <path d="M 22.000001907348633 26.0000057220459 C 19.320556640625 36.00010681152344 12.000293731689453 43.32121276855469 2.000520706176758 46.002655029296875 C -8.00003719329834 43.320621490478516 -15.320509910583496 36.00000762939453 -18.0 26.0 C -15.320508003234863 16.0 -8.0 8.679491996765137 2.0 6.0 C 12.0 8.679491996765137 19.32050895690918 16.0 22.000001907348633 26.0000057220459" stroke-width="0.0" fill="rgb(254, 254, 254)" opacity="1.0"/>
    <path d="M 35.0 5.0 C 32.32050704956055 15.0 25.0 22.32050895690918 15.0 25.0 C 5.0 22.32050895690918 -2.3205080032348633 15.0 -5.0 5.0 C -2.3205080032348633 -5.0 5.0 -12.320508003234863 15.0 -15.0 C 25.0 -12.320508003234863 32.32050704956055 -5.0 35.0 5.0" stroke-width="0.0" fill="rgb(252, 252, 253)" opacity="1.0"/>
    <path d="M 34.0 2.0 C 31.32050895690918 12.0 24.0 19.32050895690918 14.0 22.0 C 4.0 19.32050895690918 -3.3205080032348633 12.0 -6.0 2.0 C -3.3205080032348633 -8.0 4.0 -15.320508003234863 14.0 -18.0 C 24.0 -15.320508003234863 31.32050895690918 -8.0 34.0 2.0" stroke-width="0.0" fill="rgb(252, 252, 253)" opacity="1.0"/>
    <path d="M 23.0 19.0 C 20.32050895690918 29.0 13.0 36.32050704956055 3.0 39.0 C -7.0 36.32050704956055 -14.320508003234863 29.0 -17.0 19.0 C -14.320508003234863 9.0 -7.0 1.6794918775558472 3.0 -1.0 C 13.0 1.6794918775558472 20.32050895690918 9.0 23.0 19.0" stroke-width="0.0" fill="rgb(251, 251, 251)" opacity="1.0"/>
    <path d="M 40.0 15.0 C 37.32050704956055 25.0 30.0 32.32050704956055 20.0 35.0 C 10.0 32.32050704956055 2.6794919967651367 25.0 0.0 15.0 C 2.6794919967651367 5.0 10.0 -2.3205080032348633 20.0 -5.0 C 30.0 -2.3205080032348633 37.32050704956055 5.0 40.0 15.0" stroke-width="0.0" fill="rgb(252, 252, 253)" opacity="1.0"/>
    <path d="M 41.0 9.0 C 38.32050704956055 19.0 31.0 26.32050895690918 21.0 29.0 C 11.0 26.32050895690918 3.6794919967651367 19.0 1.0 9.0 C 3.6794919967651367 -1.0 11.0 -8.320508003234863 21.0 -11.0 C 31.0 -8.320508003234863 38.32050704956055 -1.0 41.0 9.0" stroke-width="0.0" fill="rgb(252, 252, 253)" opacity="1.0"/>
    <path d="M 21.0 20.0 C 18.32050895690918 29.999998092651367 10.999980926513672 37.3204460144043 0.9999553561210632 39.998313903808594 C -8.999988555908203 37.32046890258789 -16.32050895690918 29.999998092651367 -19.0 20.0 C -16.32050895690918 10.0 -9.0 2.6794919967651367 1.0 0.0 C 11.0 2.6794919967651367 18.32050895690918 10.0 21.0 20.0" stroke-width="0.0" fill="rgb(251, 251, 252)" opacity="0.99997306"/>
    <path d="M 41.0 5.0 C 38.32050704956055 15.0 31.0 22.32050895690918 21.0 25.0 C 11.0 22.32050895690918 3.6794919967651367 15.0 1.0 5.0 C 3.6794919967651367 -5.0 11.0 -12.320508003234863 21.0 -15.0 C 31.0 -12.320508003234863 38.32050704956055 -5.0 41.0 5.0" stroke-width="0.0" fill="rgb(252, 253, 253)" opacity="1.0"/>
    <path d="M 47.739444732666016 27.287418365478516 C 43.85724639892578 36.75343704223633 37.078678131103516 44.6679573059082 27.254676818847656 47.36724853515625 C 17.0 44.32050704956055 9.679491996765137 37.0 7.0 27.0 C 9.679491996765137 17.0 17.0 9.679491996765137 26.999996185302734 7.000001907348633 C 36.99998474121094 9.679506301879883 44.324161529541016 16.999027252197266 47.739444732666016 27.287418365478516" stroke-width="0.0" fill="rgb(254, 254, 255)" opacity="0.99073297"/>
    <path d="M 34.0 12.0 C 31.32050895690918 22.0 24.0 29.32050895690918 14.0 32.0 C 4.0 29.32050895690918 -3.3205080032348633 22.0 -6.0 12.0 C -3.3205080032348633 2.0 4.0 -5.320508003234863 14.0 -8.0 C 24.0 -5.320508003234863 31.32050895690918 2.0 34.0 12.0" stroke-width="0.0" fill="rgb(252, 252, 252)" opacity="1.0"/>
    <path d="M 38.0 10.0 C 35.32050704956055 20.0 28.0 27.32050895690918 18.0 30.0 C 8.0 27.32050895690918 0.6794919371604919 20.0 -2.0 10.0 C 0.6794919371604919 5.329070518200751e-15 8.0 -7.320508003234863 18.0 -10.0 C 28.0 -7.320508003234863 35.32050704956055 -8.881784197001252e-15 38.0 10.0" stroke-width="0.0" fill="rgb(252, 252, 253)" opacity="1.0"/>
    <path d="M 34.0 26.0 C 31.32050895690918 36.0 24.0 43.32050704956055 13.999484062194824 46.00102996826172 C 3.999485731124878 43.32131576538086 -3.320812940597534 36.000370025634766 -6.000082969665527 26.000089645385742 C -3.3205080032348633 16.0 4.0 8.679491996765137 14.0 6.0 C 24.0 8.679491996765137 31.32050895690918 16.0 34.0 26.0" stroke-width="0.0" fill="rgb(253, 253, 253)" opacity="1.0"/>
    <path d="M 26.0 0.0 C 23.32050895690918 10.0 16.0 17.32050895690918 6.0 20.0 C -4.0 17.32050895690918 -11.320508003234863 10.0 -14.0 2.4492935992912173e-15 C -11.320508003234863 -10.0 -4.0 -17.32050895690918 6.0 -20.0 C 16.0 -17.32050895690918 23.32050895690918 -10.0 26.0 0.0" stroke-width="0.0" fill="rgb(252, 252, 253)" opacity="0.9999712"/>
    <path d="M 24.999998092651367 20.000001907348633 C 22.32050895690918 30.0 15.0 37.32050704956055 5.000476360321045 39.99874496459961 C -4.999841213226318 37.320091247558594 -12.320489883422852 29.99995231628418 -15.000000953674316 19.999996185302734 C -12.320523262023926 9.999972343444824 -5.000017166137695 2.679525375366211 4.999444484710693 0.005371328443288803 C 14.999767303466797 2.680117130279541 22.320484161376953 10.000064849853516 24.999998092651367 20.000001907348633" stroke-width="0.0" fill="rgb(252, 252, 253)" opacity="0.99945545"/>
    <path d="M 35.0 26.0 C 32.320499420166016 35.99998092651367 24.99990463256836 43.320228576660156 14.999222755432129 45.998905181884766 C 4.998918533325195 43.321502685546875 -2.32180118560791 36.00117111206055 -5.0005316734313965 26.000473022460938 C -2.3205080032348633 16.0 5.0 8.679491996765137 15.0 6.0 C 25.0 8.679491996765137 32.32050704956055 16.0 35.0 26.0" stroke-width="0.0" fill="rgb(254, 254, 254)" opacity="1.0"/>
    <path d="M 48.00404357910156 5.999548435211182 C 45.32089614868164 16.000146865844727 38.00004196166992 23.320526123046875 28.000001907348633 26.0 C 18.0 23.32050895690918 10.679491996765137 16.0 7.999841690063477 5.999929428100586 C 10.679404258728027 -4.000039577484131 17.999982833862305 -11.320515632629395 28.000009536743164 -14.000005722045898 C 38.00017166137695 -11.320585250854492 45.32150650024414 -4.00043249130249 48.00404357910156 5.999548435211182" stroke-width="0.0" fill="rgb(254, 254, 254)" opacity="1.0"/>
    <path d="M 46.99849319458008 12.00117015838623 C 44.32094192504883 22.000286102294922 37.00019454956055 29.32063865661621 27.000030517578125 32.00001907348633 C 17.0 29.32050895690918 9.679491996765137 22.0 6.999998092651367 11.999998092651367 C 9.679486274719238 1.9999951124191284 16.999996185302734 -5.320511817932129 26.999889373779297 -7.999919414520264 C 36.999359130859375 -5.32006311416626 44.31894302368164 2.0009677410125732 46.99849319458008 12.00117015838623" stroke-width="0.0" fill="rgb(254, 255, 255)" opacity="0.9992635"/>
    <path d="M 34.99990463256836 20.00009536743164 C 32.32050704956055 30.0 25.0 37.32050704956055 15.0 40.0 C 5.0 37.32050704956055 -2.3205080032348633 30.0 -5.000090599060059 19.99988555908203 C -2.3209385871887207 9.999438285827637 4.999278545379639 2.678528070449829 14.999357223510742 4.499474016483873e-05 C 24.999595642089844 2.6800286769866943 32.32020568847656 10.000335693359375 34.99990463256836 20.00009536743164" stroke-width="0.0" fill="rgb(250, 252, 254)" opacity="0.9997177"/>
    <path d="M 44.99917221069336 28.00048065185547 C 42.31976318359375 37.99849319458008 34.99663162231445 45.31328582763672 24.993919372558594 47.98416519165039 C 14.999015808105469 45.32110595703125 7.6776041984558105 38.0013542175293 4.999188423156738 28.00131607055664 C 7.680004119873047 18.000349044799805 15.000245094299316 10.679642677307129 24.999431610107422 8.000280380249023 C 34.99860382080078 10.680992126464844 42.3189697265625 18.001407623291016 44.99917221069336 28.00048065185547" stroke-width="0.0" fill="rgb(254, 254, 255)" opacity="0.99998295"/>
  </g>
</svg>
