<?xml version="1.0" ?>
<svg xmlns="http://www.w3.org/2000/svg" version="1.1" width="600" height="600">
  <defs/>
  <g>
    <path d="M 331.96282958984375 17.08565902709961 C 344.3019104003906 -6.812129020690918 347.51373291015625 -8.911996841430664 356.2532043457031 -7.970046520233154 C 355.0469055175781 18.531381607055664 357.2081604003906 21.93050765991211 355.39520263671875 28.784770965576172 C 350.8224792480469 27.269948959350586 355.2623291015625 30.94997215270996 352.68853759765625 41.47024917602539 C 342.69091796875 34.855010986328125 337.20947265625 34.17684555053711 331.96282958984375 17.08565902709961" stroke-width="0.0" fill="rgb(34, 34, 33)" opacity="0.91024756"/>
    <path d="M 466.3123474121094 29.409826278686523 C 474.6380920410156 49.34252166748047 511.2319641113281 46.3714714050293 510.3828430175781 40.832096099853516 C 505.6654357910156 49.289268493652344 524.2109985351562 50.1187629699707 533.390869140625 1.75383460521698 C 517.4240112304688 -15.417431831359863 496.486083984375 -8.781951904296875 495.4930114746094 0.8875766396522522 C 496.2719421386719 14.530125617980957 499.46240234375 12.261549949645996 466.3123474121094 29.409826278686523" stroke-width="0.0" fill="rgb(38, 38, 37)" opacity="0.941415"/>
    <path d="M 590.9317626953125 516.0999145507812 C 591.7015380859375 513.095947265625 594.3118896484375 510.900634765625 600.8726196289062 513.8869018554688 C 600.0505981445312 515.7634887695312 593.5638427734375 515.9634399414062 582.1594848632812 517.3870239257812 C 572.3668212890625 516.9949951171875 562.0109252929688 520.7863159179688 555.4495239257812 482.4250183105469 C 600.1420288085938 488.1990661621094 596.1146850585938 492.318115234375 590.9317626953125 516.0999145507812" stroke-width="0.0" fill="rgb(30, 31, 29)" opacity="0.9525777"/>
    <path d="M 536.4338989257812 503.1492919921875 C 573.7312622070312 497.2326354980469 575.2705078125 499.3914489746094 572.0800170898438 548.13427734375 C 536.5108032226562 540.2498168945312 547.2521362304688 517.3543090820312 532.9295043945312 517.9739379882812 C 531.4796142578125 530.5521240234375 528.2410888671875 527.0905151367188 529.4901123046875 553.175048828125 C 557.3952026367188 552.4224243164062 543.8930053710938 548.398193359375 536.4338989257812 503.1492919921875" stroke-width="0.0" fill="rgb(24, 25, 23)" opacity="1.0"/>
    <path d="M 493.5015563964844 593.4815063476562 C 473.45941162109375 597.6834716796875 471.6647033691406 595.5656127929688 473.83758544921875 566.8611450195312 C 496.0818176269531 563.470703125 489.4236145019531 573.69677734375 490.2515869140625 585.015380859375 C 503.4169616699219 585.7994384765625 504.52752685546875 582.5035400390625 504.0096130371094 572.5909423828125 C 490.4458923339844 564.2449951171875 493.56976318359375 562.90771484375 493.5015563964844 593.4815063476562" stroke-width="0.0" fill="rgb(5, 4, 2)" opacity="1.0"/>
    <path d="M 556.5260620117188 487.2589416503906 C 555.9202270507812 493.96697998046875 554.0736694335938 488.8580017089844 550.6973876953125 530.239990234375 C 582.6217651367188 539.1127319335938 587.9628295898438 529.3603515625 589.8173217773438 522.2298583984375 C 590.7454833984375 516.5140991210938 589.8935546875 517.0530395507812 605.1031494140625 536.3932495117188 C 609.0203857421875 523.855224609375 604.1614990234375 511.5201110839844 556.5260620117188 487.2589416503906" stroke-width="0.0" fill="rgb(20, 21, 19)" opacity="1.0"/>
    <path d="M 218.13694763183594 36.90989303588867 C 233.4298553466797 33.626190185546875 231.19993591308594 37.09008026123047 223.69508361816406 34.90705490112305 C 230.96405029296875 35.530052185058594 234.71836853027344 32.970516204833984 234.64865112304688 6.153560161590576 C 208.74903869628906 4.72042989730835 203.4282989501953 8.824419975280762 198.68289184570312 15.1489839553833 C 198.06716918945312 39.65755081176758 198.03749084472656 36.75719451904297 218.13694763183594 36.90989303588867" stroke-width="0.0" fill="rgb(16, 16, 15)" opacity="0.9853665"/>
    <path d="M 132.91392517089844 577.7498779296875 C 157.53634643554688 574.9923706054688 151.44668579101562 576.0922241210938 155.19578552246094 576.5286865234375 C 153.8877716064453 600.0045776367188 159.63311767578125 608.4525756835938 140.95504760742188 610.1890869140625 C 139.20172119140625 586.9124145507812 126.62450408935547 572.942626953125 116.98516845703125 600.4421997070312 C 152.16392517089844 612.3385620117188 136.64988708496094 601.1190795898438 132.91392517089844 577.7498779296875" stroke-width="0.0" fill="rgb(19, 19, 18)" opacity="1.0"/>
    <path d="M 578.3750610351562 403.0007629394531 C 587.2198486328125 411.6919250488281 590.0177001953125 411.2381896972656 589.7704467773438 422.7754211425781 C 599.45458984375 426.5834655761719 606.8176879882812 425.60009765625 611.948974609375 420.7625732421875 C 611.4719848632812 386.63458251953125 611.9567260742188 376.1910705566406 601.1994018554688 373.2514953613281 C 583.2227783203125 395.3973693847656 582.4697265625 395.7700500488281 578.3750610351562 403.0007629394531" stroke-width="0.0" fill="rgb(0, 0, 0)" opacity="1.0"/>
    <path d="M 305.57891845703125 610.5429077148438 C 321.1072692871094 612.0135498046875 325.58270263671875 611.130615234375 327.3401184082031 586.5823364257812 C 303.31158447265625 578.0621337890625 295.89276123046875 582.6661376953125 299.6258239746094 582.2062377929688 C 293.6664733886719 581.3662109375 286.209228515625 578.5634765625 267.4162902832031 603.7742919921875 C 275.1317443847656 614.4459838867188 284.6235656738281 610.8855590820312 305.57891845703125 610.5429077148438" stroke-width="0.0" fill="rgb(23, 23, 22)" opacity="1.0"/>
    <path d="M 288.1451110839844 566.9120483398438 C 280.22900390625 566.9266357421875 277.1634826660156 568.6891479492188 267.2352600097656 596.0296020507812 C 287.6994934082031 590.8234252929688 291.3562316894531 585.8220825195312 288.843017578125 582.2623291015625 C 294.13568115234375 584.85107421875 296.7594909667969 583.4183349609375 314.283447265625 582.296630859375 C 316.8851623535156 561.0828857421875 312.5439147949219 564.173583984375 288.1451110839844 566.9120483398438" stroke-width="0.0" fill="rgb(12, 12, 10)" opacity="1.0"/>
    <path d="M 594.407958984375 326.19952392578125 C 611.2157592773438 328.4848327636719 611.9497680664062 337.4422302246094 610.4192504882812 363.91400146484375 C 605.06103515625 365.4832458496094 599.4296264648438 368.8099365234375 567.4755859375 375.4542236328125 C 567.5684814453125 364.2088928222656 567.1268920898438 362.9051818847656 569.9823608398438 340.37799072265625 C 585.3646240234375 337.6960144042969 583.7346801757812 337.09930419921875 594.407958984375 326.19952392578125" stroke-width="0.0" fill="rgb(19, 20, 18)" opacity="1.0"/>
    <path d="M 564.4301147460938 314.77178955078125 C 552.8007202148438 339.3090515136719 555.5628051757812 344.69622802734375 590.7941284179688 342.5523986816406 C 574.9176025390625 314.52142333984375 575.4898681640625 316.3796081542969 578.289306640625 318.24505615234375 C 577.2449340820312 313.4175720214844 571.0364379882812 316.554931640625 599.1565551757812 337.16680908203125 C 602.037353515625 303.9321594238281 593.3194580078125 302.1161193847656 564.4301147460938 314.77178955078125" stroke-width="0.0" fill="rgb(30, 30, 28)" opacity="1.0"/>
    <path d="M 598.3013305664062 424.49005126953125 C 566.0516357421875 421.4181823730469 571.2367553710938 418.6344299316406 564.0988159179688 421.78033447265625 C 562.615234375 414.6149597167969 561.1732177734375 408.5107421875 560.42626953125 382.1582946777344 C 567.5498046875 379.7606506347656 571.308837890625 383.07171630859375 573.2090454101562 370.97747802734375 C 607.7091064453125 369.2820129394531 609.4927368164062 373.72052001953125 598.3013305664062 424.49005126953125" stroke-width="0.0" fill="rgb(20, 21, 19)" opacity="0.9961943"/>
    <path d="M 546.2249755859375 383.44805908203125 C 578.3760375976562 388.2706604003906 572.6432495117188 388.7596740722656 581.7551879882812 386.9344787597656 C 581.2978515625 408.58380126953125 581.35205078125 411.1416320800781 580.2487182617188 429.5357360839844 C 550.4403686523438 426.41522216796875 551.0482788085938 423.56903076171875 543.971923828125 425.0899353027344 C 538.4728393554688 424.2268371582031 536.0740356445312 411.01434326171875 546.2249755859375 383.44805908203125" stroke-width="0.0" fill="rgb(21, 21, 19)" opacity="0.99283266"/>
    <path d="M 9.208199501037598 30.128190994262695 C 39.6298942565918 32.80363082885742 50.82701873779297 33.565616607666016 49.62932205200195 26.92889976501465 C 41.9620475769043 5.024419784545898 43.607521057128906 -1.2320525646209717 41.786739349365234 -5.031203746795654 C 22.689355850219727 10.980996131896973 19.706825256347656 -3.721179962158203 40.5406608581543 -6.56699275970459 C 37.02602005004883 6.1940741539001465 20.56192398071289 -2.058154821395874 9.208199501037598 30.128190994262695" stroke-width="0.0" fill="rgb(41, 41, 39)" opacity="0.9311656"/>
    <path d="M 550.3585815429688 576.520751953125 C 578.1205444335938 567.6322631835938 579.4638061523438 566.681884765625 584.4962158203125 560.1226806640625 C 581.4855346679688 557.3184814453125 582.47216796875 567.3521728515625 601.364013671875 548.6522827148438 C 593.8740844726562 538.3903198242188 590.0553588867188 544.2783203125 590.2890625 536.2066650390625 C 556.8577270507812 538.5813598632812 550.3658447265625 543.7921752929688 550.3585815429688 576.520751953125" stroke-width="0.0" fill="rgb(21, 21, 19)" opacity="0.9978024"/>
    <path d="M 540.6978149414062 334.0889892578125 C 542.9217529296875 293.7992858886719 545.3612670898438 294.9186096191406 554.8836059570312 294.0854797363281 C 566.9580078125 297.6193542480469 570.0844116210938 298.00958251953125 581.5647583007812 294.9514465332031 C 580.566650390625 301.1645202636719 579.1326904296875 298.98492431640625 593.8414916992188 302.1767272949219 C 586.560791015625 332.20391845703125 577.2114868164062 335.5165710449219 540.6978149414062 334.0889892578125" stroke-width="0.0" fill="rgb(26, 27, 25)" opacity="0.95304835"/>
    <path d="M 443.8250427246094 608.7941284179688 C 445.2869567871094 567.45458984375 456.5265808105469 566.6329956054688 457.46490478515625 566.8768310546875 C 470.2015075683594 563.226806640625 479.59521484375 566.7139892578125 489.52301025390625 563.3970947265625 C 483.47393798828125 565.8258666992188 484.7025451660156 565.52099609375 502.57574462890625 557.5767211914062 C 500.0701599121094 589.2503051757812 504.043212890625 599.380859375 443.8250427246094 608.7941284179688" stroke-width="0.0" fill="rgb(22, 23, 21)" opacity="1.0"/>
    <path d="M 559.1228637695312 566.164794921875 C 517.8872680664062 564.8303833007812 518.3660888671875 575.4226684570312 521.8768310546875 608.761962890625 C 547.9962768554688 597.7774658203125 544.4415893554688 596.982421875 537.9912719726562 602.2328491210938 C 549.765869140625 564.9402465820312 570.3076782226562 570.0169067382812 572.4075317382812 607.3765258789062 C 525.63623046875 609.6746215820312 531.3468017578125 611.3504028320312 559.1228637695312 566.164794921875" stroke-width="0.0" fill="rgb(24, 24, 23)" opacity="1.0"/>
    <path d="M 543.9382934570312 404.7651062011719 C 561.8885498046875 393.6646423339844 561.065185546875 386.34893798828125 556.3281860351562 383.6815185546875 C 558.2214965820312 388.6179504394531 559.7484130859375 383.3216552734375 562.6245727539062 376.84735107421875 C 560.8037719726562 373.51275634765625 559.52880859375 368.4538879394531 546.8773193359375 370.0147705078125 C 549.2594604492188 392.7445068359375 546.4389038085938 396.5528259277344 543.9382934570312 404.7651062011719" stroke-width="0.0" fill="rgb(55, 56, 54)" opacity="0.8455084"/>
    <path d="M 473.2318115234375 565.42724609375 C 446.1841735839844 563.115478515625 441.9854431152344 567.7548828125 445.8173522949219 605.982177734375 C 483.8419494628906 591.1277465820312 471.68853759765625 571.9119262695312 470.2038269042969 575.1731567382812 C 452.46875 582.4047241210938 454.9289245605469 588.8177490234375 475.8118591308594 581.1253662109375 C 472.09002685546875 583.2723999023438 472.8789367675781 582.2821044921875 473.2318115234375 565.42724609375" stroke-width="0.0" fill="rgb(22, 22, 20)" opacity="0.992816"/>
    <path d="M 22.620166778564453 11.550118446350098 C 72.65141296386719 12.530359268188477 72.14698028564453 39.84615707397461 34.600425720214844 31.62469482421875 C 34.114715576171875 33.82688903808594 45.60081100463867 38.94393539428711 48.53863525390625 38.90756607055664 C 47.455055236816406 38.46660614013672 48.581329345703125 38.66621398925781 48.1826171875 39.82716369628906 C 52.0565185546875 37.25468826293945 35.234676361083984 44.29377365112305 22.620166778564453 11.550118446350098" stroke-width="0.0" fill="rgb(22, 22, 21)" opacity="0.90170336"/>
    <path d="M 447.3039245605469 -13.789831161499023 C 425.9020080566406 -11.185711860656738 422.2959289550781 -6.524058818817139 426.8973693847656 21.396427154541016 C 435.7481689453125 35.67006301879883 449.43292236328125 37.159976959228516 469.18792724609375 26.398759841918945 C 465.7476501464844 36.30056381225586 448.12896728515625 32.790164947509766 472.056884765625 32.37639617919922 C 474.9809875488281 23.540712356567383 471.4656677246094 6.8632307052612305 447.3039245605469 -13.789831161499023" stroke-width="0.0" fill="rgb(17, 17, 15)" opacity="0.9999831"/>
    <path d="M 558.5189208984375 595.6767578125 C 559.7481079101562 566.173583984375 562.90234375 564.636962890625 608.242431640625 562.876708984375 C 611.51513671875 604.158935546875 607.940673828125 608.2658081054688 595.8746948242188 603.4445190429688 C 569.0379638671875 590.7945556640625 564.3125 592.0623168945312 577.3428344726562 602.8518676757812 C 598.6467895507812 596.18310546875 597.5400390625 583.6103515625 558.5189208984375 595.6767578125" stroke-width="0.0" fill="rgb(18, 19, 18)" opacity="1.0"/>
    <path d="M 585.1870727539062 516.880859375 C 584.6829833984375 509.3774108886719 589.8733520507812 509.9839172363281 596.7293090820312 509.9995422363281 C 596.7451171875 512.3611450195312 598.380859375 509.1861877441406 609.6278686523438 513.36572265625 C 604.385986328125 523.203125 600.131591796875 517.4002075195312 596.5726318359375 517.937255859375 C 592.3251342773438 517.2841796875 591.8411254882812 516.5614624023438 585.1870727539062 516.880859375" stroke-width="0.0" fill="rgb(21, 21, 20)" opacity="1.0"/>
    <path d="M 568.2852172851562 525.5428466796875 C 564.34228515625 536.624755859375 574.535888671875 539.2738647460938 578.749267578125 532.320068359375 C 585.511474609375 517.609619140625 591.1671142578125 519.925537109375 588.0557861328125 507.3740539550781 C 580.0253295898438 506.05035400390625 582.2242431640625 512.22900390625 590.5585327148438 525.0628662109375 C 587.3945922851562 533.0888061523438 585.5773315429688 530.3727416992188 568.2852172851562 525.5428466796875" stroke-width="0.0" fill="rgb(19, 20, 18)" opacity="1.0"/>
    <path d="M 548.0393676757812 466.2744140625 C 573.0067749023438 455.8184814453125 574.4696655273438 448.661376953125 572.7337036132812 448.8470764160156 C 565.3016357421875 424.1996154785156 560.0533447265625 423.7740173339844 552.0309448242188 432.29119873046875 C 547.149658203125 435.3586730957031 546.3064575195312 437.0389709472656 550.5936279296875 427.4477844238281 C 530.7127685546875 428.52423095703125 523.6118774414062 449.9655456542969 548.0393676757812 466.2744140625" stroke-width="0.0" fill="rgb(41, 42, 40)" opacity="0.97318965"/>
    <path d="M 597.4080200195312 554.3277587890625 C 569.1710205078125 518.7490844726562 568.1558837890625 517.0736694335938 610.6563110351562 519.4813842773438 C 610.7446899414062 552.7367553710938 612.1033325195312 558.020751953125 602.3967895507812 562.4437255859375 C 568.784912109375 513.0380249023438 557.9028930664062 508.79425048828125 553.1130981445312 540.540283203125 C 583.95458984375 560.05419921875 604.6627807617188 563.6099853515625 597.4080200195312 554.3277587890625" stroke-width="0.0" fill="rgb(24, 24, 22)" opacity="0.98335475"/>
    <path d="M 263.08697509765625 30.708999633789062 C 274.0096435546875 3.5591282844543457 272.431640625 3.934964179992676 266.26580810546875 22.708919525146484 C 283.766845703125 11.961709976196289 278.947021484375 6.328625679016113 284.3956604003906 3.360236883163452 C 293.87445068359375 9.27793025970459 295.849853515625 11.736603736877441 303.434326171875 25.419462203979492 C 301.5554504394531 28.39930534362793 299.14141845703125 32.714805603027344 263.08697509765625 30.708999633789062" stroke-width="0.0" fill="rgb(26, 27, 25)" opacity="0.9943318"/>
    <path d="M 54.10966110229492 33.743438720703125 C 50.1362190246582 20.6076717376709 55.417213439941406 33.25369644165039 43.14555358886719 30.571754455566406 C 44.972530364990234 -3.836554765701294 53.07913589477539 -5.62736701965332 71.9703140258789 0.976740837097168 C 74.0627670288086 13.998050689697266 71.01009368896484 13.42010498046875 89.20956420898438 15.228652954101562 C 97.71640014648438 37.388999938964844 98.7031478881836 33.5615234375 54.10966110229492 33.743438720703125" stroke-width="0.0" fill="rgb(18, 18, 17)" opacity="0.9872214"/>
    <path d="M 71.13320922851562 9.87445068359375 C 77.51506042480469 21.599613189697266 76.63410186767578 26.910869598388672 88.36205291748047 34.02323913574219 C 98.06839752197266 35.08709716796875 91.83860778808594 29.96004295349121 94.0642318725586 25.617769241333008 C 93.50666046142578 13.612212181091309 94.74298095703125 13.033788681030273 92.97300720214844 1.272303581237793 C 78.88766479492188 -0.605440080165863 76.07923126220703 -2.0107028484344482 71.13320922851562 9.87445068359375" stroke-width="0.0" fill="rgb(12, 13, 11)" opacity="0.95698893"/>
    <path d="M 134.75662231445312 582.0648193359375 C 131.9650421142578 621.5355224609375 119.14482879638672 615.5352783203125 85.479248046875 601.1319580078125 C 90.85144805908203 581.6527709960938 111.13650512695312 598.7285766601562 121.6302261352539 582.9895629882812 C 101.5543212890625 579.433349609375 103.22601318359375 583.1146850585938 89.12531280517578 582.75341796875 C 81.177734375 597.066650390625 79.98955535888672 598.2232055664062 134.75662231445312 582.0648193359375" stroke-width="0.0" fill="rgb(17, 18, 16)" opacity="0.99995154"/>
    <path d="M 242.86058044433594 32.61248779296875 C 235.3131103515625 3.6875972747802734 248.0940704345703 3.813797950744629 249.8607635498047 24.861982345581055 C 230.64878845214844 32.60110855102539 246.14578247070312 14.544085502624512 242.66278076171875 -10.936424255371094 C 213.38563537597656 -6.725444793701172 213.8328094482422 -9.614190101623535 203.09393310546875 -4.9364705085754395 C 215.60604858398438 37.91108322143555 223.92543029785156 35.60601043701172 242.86058044433594 32.61248779296875" stroke-width="0.0" fill="rgb(20, 21, 19)" opacity="1.0"/>
    <path d="M 548.8651123046875 294.5537414550781 C 563.5322265625 276.026611328125 567.881103515625 278.5804748535156 564.6994018554688 283.523193359375 C 565.97998046875 286.6152648925781 559.70068359375 275.5381774902344 601.8775024414062 251.0499267578125 C 600.3287963867188 277.6096496582031 594.6786499023438 278.2677001953125 587.2193603515625 302.04559326171875 C 570.8388671875 301.7864074707031 555.7106323242188 303.9370422363281 548.8651123046875 294.5537414550781" stroke-width="0.0" fill="rgb(10, 11, 10)" opacity="1.0"/>
    <path d="M 160.0900421142578 5.638840675354004 C 158.1337432861328 39.9006462097168 159.3046112060547 38.18082046508789 195.30227661132812 33.373470306396484 C 190.06741333007812 17.193517684936523 168.10665893554688 24.243186950683594 156.54498291015625 -4.364609718322754 C 189.9613800048828 -0.05855846777558327 201.25625610351562 -5.465104103088379 224.70033264160156 -7.326566219329834 C 209.40240478515625 36.72343826293945 198.76028442382812 38.182525634765625 160.0900421142578 5.638840675354004" stroke-width="0.0" fill="rgb(26, 27, 25)" opacity="0.9766528"/>
    <path d="M 566.7633056640625 315.798583984375 C 544.1893920898438 317.823486328125 540.67236328125 318.1403503417969 547.5447387695312 303.5750732421875 C 560.4450073242188 288.5115051269531 558.7450561523438 284.2734069824219 553.7081909179688 286.9175109863281 C 560.7252197265625 287.13812255859375 567.7214965820312 282.6849365234375 587.2232666015625 297.3607177734375 C 583.0477294921875 313.2575378417969 579.6248779296875 315.087158203125 566.7633056640625 315.798583984375" stroke-width="0.0" fill="rgb(23, 24, 22)" opacity="0.89919114"/>
    <path d="M 229.53631591796875 31.873720169067383 C 230.0982666015625 10.958902359008789 229.81427001953125 8.176216125488281 245.8449249267578 -10.571459770202637 C 266.375244140625 -7.061028957366943 258.3218078613281 -7.662506580352783 279.0940246582031 -4.75579309463501 C 273.8478088378906 38.174381256103516 267.655029296875 34.09673309326172 260.7607727050781 34.35941696166992 C 239.61973571777344 36.14231491088867 236.11012268066406 40.303131103515625 229.53631591796875 31.873720169067383" stroke-width="0.0" fill="rgb(19, 20, 18)" opacity="1.0"/>
    <path d="M 597.2338256835938 314.7590026855469 C 590.524169921875 339.80511474609375 595.6392822265625 351.6773376464844 611.6869506835938 315.71453857421875 C 587.405029296875 310.2551574707031 585.5135498046875 318.088623046875 596.4971923828125 334.7435302734375 C 596.061279296875 346.40869140625 595.3286743164062 351.4138488769531 564.993896484375 364.0285949707031 C 562.9093017578125 326.233154296875 562.9404907226562 316.4220275878906 597.2338256835938 314.7590026855469" stroke-width="0.0" fill="rgb(17, 17, 16)" opacity="0.976265"/>
    <path d="M 140.8052520751953 607.749755859375 C 110.24007415771484 605.6417846679688 112.00251007080078 595.0473022460938 117.80681610107422 576.1279296875 C 142.41265869140625 575.996337890625 139.8389892578125 575.5191040039062 139.44271850585938 577.3089599609375 C 140.2677459716797 576.4412231445312 137.36915588378906 575.2701416015625 150.16851806640625 576.7451782226562 C 158.03028869628906 575.7557983398438 158.78724670410156 570.5639038085938 140.8052520751953 607.749755859375" stroke-width="0.0" fill="rgb(21, 22, 20)" opacity="0.98762876"/>
    <path d="M 583.5556640625 323.50750732421875 C 584.8048095703125 365.4813232421875 587.9966430664062 372.6776123046875 583.251953125 380.11138916015625 C 552.2611694335938 371.9930725097656 559.2918701171875 372.1275634765625 547.6907958984375 371.7948913574219 C 559.8021240234375 355.7561340332031 564.7373046875 359.86651611328125 541.9791259765625 372.73388671875 C 543.6083374023438 337.89324951171875 544.7095947265625 328.2842102050781 583.5556640625 323.50750732421875" stroke-width="0.0" fill="rgb(21, 21, 20)" opacity="1.0"/>
    <path d="M -9.019068717956543 -2.2791900634765625 C -8.919931411743164 -4.209653377532959 -4.096209526062012 -10.072341918945312 16.390926361083984 -8.155741691589355 C -3.0468180179595947 11.34977912902832 -11.687172889709473 4.278938293457031 -7.492057800292969 28.606969833374023 C 24.827789306640625 26.32914161682129 24.034181594848633 13.995834350585938 12.262487411499023 -4.045950889587402 C -5.521153926849365 7.011910438537598 -8.878301620483398 18.614316940307617 -9.019068717956543 -2.2791900634765625" stroke-width="0.0" fill="rgb(22, 23, 21)" opacity="1.0"/>
    <path d="M 218.3761444091797 570.7404174804688 C 219.05270385742188 597.9657592773438 223.75721740722656 596.0298461914062 263.85009765625 593.1612548828125 C 260.97564697265625 573.7505493164062 250.95635986328125 574.0746459960938 254.99012756347656 576.17236328125 C 260.38873291015625 586.1205444335938 269.8382263183594 587.9244384765625 277.4637451171875 567.7638549804688 C 257.25067138671875 567.6287231445312 251.89224243164062 567.6138305664062 218.3761444091797 570.7404174804688" stroke-width="0.0" fill="rgb(31, 31, 29)" opacity="0.9450896"/>
    <path d="M 491.4500427246094 613.3098754882812 C 523.0758056640625 611.4822387695312 527.7335205078125 608.7474975585938 536.9580078125 604.9017333984375 C 537.6328125 573.324951171875 534.4114379882812 571.9779052734375 532.4959106445312 557.7867431640625 C 498.2972106933594 564.5374145507812 493.4896240234375 570.178466796875 479.3128356933594 575.9536743164062 C 478.4267883300781 599.3240966796875 476.7655944824219 603.222900390625 491.4500427246094 613.3098754882812" stroke-width="0.0" fill="rgb(19, 19, 17)" opacity="0.9928911"/>
    <path d="M 503.49993896484375 573.8598022460938 C 489.0824279785156 560.7387084960938 517.1257934570312 548.4036865234375 511.60302734375 551.4525756835938 C 503.5071716308594 569.1124877929688 512.6538696289062 569.2932739257812 517.4267578125 572.5136108398438 C 529.9419555664062 570.1267700195312 533.92333984375 566.0950927734375 536.1377563476562 542.6561279296875 C 533.380859375 534.3171997070312 511.9940490722656 535.8170776367188 503.49993896484375 573.8598022460938" stroke-width="0.0" fill="rgb(14, 14, 13)" opacity="1.0"/>
    <path d="M 543.297607421875 474.7513122558594 C 534.4032592773438 471.6029968261719 527.9949951171875 470.7939147949219 528.9864501953125 458.17120361328125 C 525.5385131835938 457.2913513183594 526.66796875 459.10791015625 522.2216186523438 460.68975830078125 C 521.8056640625 471.3865661621094 517.6799926757812 486.58428955078125 519.4580078125 499.6174621582031 C 553.1465454101562 495.19952392578125 549.5716552734375 490.0914611816406 543.297607421875 474.7513122558594" stroke-width="0.0" fill="rgb(22, 23, 22)" opacity="0.9929246"/>
    <path d="M 219.29161071777344 569.0924682617188 C 250.28302001953125 572.4032592773438 246.577392578125 580.5428466796875 245.54238891601562 599.4085083007812 C 227.07876586914062 604.478515625 227.7421417236328 602.8180541992188 227.675048828125 604.8820190429688 C 226.63287353515625 603.0602416992188 229.04701232910156 603.1517333984375 226.1138916015625 605.8903198242188 C 219.9822540283203 609.7013549804688 215.4213104248047 616.3323974609375 219.29161071777344 569.0924682617188" stroke-width="0.0" fill="rgb(19, 19, 18)" opacity="0.9985982"/>
    <path d="M 491.6961669921875 16.485265731811523 C 490.6080322265625 54.41668701171875 485.10150146484375 40.889991760253906 460.06475830078125 42.21184158325195 C 437.8597412109375 39.12581253051758 431.2794494628906 49.43593978881836 429.4022521972656 16.59233283996582 C 474.8332214355469 12.796060562133789 480.5726013183594 15.839375495910645 471.0083312988281 22.68944549560547 C 451.1174011230469 33.600975036621094 445.2704772949219 35.3306884765625 491.6961669921875 16.485265731811523" stroke-width="0.0" fill="rgb(23, 23, 22)" opacity="1.0"/>
    <path d="M 332.4610290527344 -12.380117416381836 C 298.80242919921875 -3.2214040756225586 299.05908203125 -0.1687711775302887 297.54595947265625 35.21126937866211 C 307.58660888671875 39.27571105957031 323.9800720214844 40.322017669677734 329.1651611328125 37.81032180786133 C 318.4296569824219 31.589433670043945 318.3207092285156 31.361129760742188 332.0753479003906 38.80510330200195 C 343.96026611328125 28.12405014038086 347.007568359375 1.929258942604065 332.4610290527344 -12.380117416381836" stroke-width="0.0" fill="rgb(14, 14, 12)" opacity="1.0"/>
    <path d="M 602.9840698242188 402.7997131347656 C 568.4076538085938 417.00238037109375 564.8701171875 416.7879638671875 557.1652221679688 416.0172424316406 C 557.7208251953125 423.7364807128906 556.9033203125 422.4000549316406 554.0232543945312 451.6059875488281 C 564.8815307617188 454.4629821777344 581.4503173828125 450.52001953125 593.7008056640625 442.357177734375 C 599.9691772460938 424.3176574707031 605.730224609375 415.46905517578125 602.9840698242188 402.7997131347656" stroke-width="0.0" fill="rgb(20, 21, 19)" opacity="1.0"/>
    <path d="M -5.115118503570557 -3.358306646347046 C 5.601310729980469 17.758975982666016 22.856809616088867 8.993377685546875 25.653493881225586 17.197425842285156 C 13.44687271118164 6.624182224273682 5.768542766571045 2.5926334857940674 9.897363662719727 30.58602523803711 C 33.06905746459961 24.350183486938477 22.995609283447266 15.618684768676758 28.168821334838867 18.493444442749023 C 27.977144241333008 7.421844005584717 24.94161033630371 -7.765531539916992 -5.115118503570557 -3.358306646347046" stroke-width="0.0" fill="rgb(17, 17, 15)" opacity="1.0"/>
    <path d="M 471.8406982421875 41.57267761230469 C 500.2725830078125 36.98260498046875 496.0604553222656 28.846210479736328 508.94854736328125 5.868188858032227 C 503.927734375 -7.06212043762207 504.810546875 18.11040496826172 513.9839477539062 0.05724058300256729 C 488.80828857421875 -10.86202335357666 478.70965576171875 -9.761382102966309 462.96429443359375 -7.941883563995361 C 459.96539306640625 29.141820907592773 459.3782958984375 33.47247314453125 471.8406982421875 41.57267761230469" stroke-width="0.0" fill="rgb(19, 20, 18)" opacity="1.0"/>
    <path d="M 561.92333984375 401.82879638671875 C 532.56787109375 405.7078857421875 535.3485717773438 411.3958740234375 544.6669921875 431.8459167480469 C 539.2461547851562 433.6602783203125 536.6715698242188 425.4881896972656 544.4580078125 417.8973083496094 C 543.4002075195312 437.4547119140625 544.0804443359375 439.2779541015625 554.0862426757812 437.3388366699219 C 554.5108032226562 430.9899597167969 559.792236328125 433.9039306640625 561.92333984375 401.82879638671875" stroke-width="0.0" fill="rgb(19, 19, 17)" opacity="1.0"/>
    <path d="M 547.3594970703125 408.8592224121094 C 580.4276733398438 408.20880126953125 586.756103515625 405.0697937011719 588.0074462890625 367.42694091796875 C 583.852783203125 362.9329528808594 580.8449096679688 361.4975891113281 578.558837890625 361.50408935546875 C 572.5596923828125 373.4894714355469 580.0625610351562 363.3508605957031 572.429443359375 351.5652160644531 C 536.9346313476562 360.4500427246094 542.1903686523438 373.33856201171875 547.3594970703125 408.8592224121094" stroke-width="0.0" fill="rgb(20, 21, 19)" opacity="0.99744225"/>
    <path d="M 64.22636413574219 10.020708084106445 C 68.16590118408203 -12.619714736938477 74.98518371582031 -9.600866317749023 81.41960906982422 -8.116074562072754 C 91.79095458984375 -3.1352405548095703 94.60672760009766 -0.3344777524471283 94.37728118896484 -3.742910385131836 C 93.43110656738281 1.752038836479187 94.7022476196289 6.5389723777771 93.6849594116211 9.902365684509277 C 95.15702056884766 15.669240951538086 90.65243530273438 19.689308166503906 64.22636413574219 10.020708084106445" stroke-width="0.0" fill="rgb(18, 19, 17)" opacity="0.9997126"/>
    <path d="M 134.08175659179688 576.358642578125 C 104.77567291259766 574.6490478515625 98.3686752319336 580.5341796875 107.54644012451172 576.6148071289062 C 105.23480224609375 577.4251708984375 101.83799743652344 575.73291015625 85.20355224609375 579.1474609375 C 83.8048095703125 584.1851196289062 89.26290130615234 586.421875 109.49484252929688 596.6043090820312 C 121.20159149169922 598.0938110351562 127.02232360839844 603.123291015625 134.08175659179688 576.358642578125" stroke-width="0.0" fill="rgb(21, 21, 19)" opacity="1.0"/>
    <path d="M 5.0142998695373535 31.95679473876953 C -11.29217529296875 34.631717681884766 -13.863892555236816 12.496443748474121 1.4815361499786377 6.855404376983643 C 10.574674606323242 22.86539077758789 -1.1781768798828125 15.900376319885254 19.390979766845703 11.586256980895996 C 4.171328544616699 35.584232330322266 -9.109672546386719 33.15762710571289 40.67036819458008 33.16886520385742 C 34.64215087890625 2.121662139892578 19.58155632019043 3.1050045490264893 5.0142998695373535 31.95679473876953" stroke-width="0.0" fill="rgb(20, 21, 19)" opacity="0.9982866"/>
    <path d="M 608.6045532226562 407.6879577636719 C 609.7450561523438 422.7505798339844 610.06787109375 436.94488525390625 607.0672607421875 455.6724853515625 C 572.0523681640625 453.1585388183594 580.5380249023438 439.9282531738281 575.1470947265625 429.20660400390625 C 568.1480712890625 443.961669921875 564.2235107421875 450.3710632324219 579.6276245117188 454.8749694824219 C 583.7200317382812 429.1413269042969 573.5924072265625 420.3250732421875 608.6045532226562 407.6879577636719" stroke-width="0.0" fill="rgb(21, 22, 19)" opacity="0.97576654"/>
    <path d="M 71.78978729248047 15.37907600402832 C 73.128173828125 26.134309768676758 84.10614013671875 29.765737533569336 93.39432525634766 22.06690788269043 C 83.4052505493164 10.347597122192383 77.6700210571289 13.283408164978027 78.61788177490234 15.206746101379395 C 82.21048736572266 16.627031326293945 88.97605895996094 17.96748924255371 88.88442993164062 11.337860107421875 C 77.4139404296875 8.830183982849121 79.3030776977539 7.527149677276611 71.78978729248047 15.37907600402832" stroke-width="0.0" fill="rgb(21, 22, 20)" opacity="0.9986368"/>
    <path d="M 523.7238159179688 541.6149291992188 C 524.2369384765625 525.74072265625 527.19482421875 523.9794311523438 532.7326049804688 523.88037109375 C 538.737060546875 526.2343139648438 544.2805786132812 527.9231567382812 542.9935913085938 512.2296142578125 C 525.5841064453125 520.7237548828125 529.7804565429688 526.59521484375 549.6732788085938 527.3866577148438 C 545.8554077148438 541.4326171875 538.5050659179688 536.3024291992188 523.7238159179688 541.6149291992188" stroke-width="0.0" fill="rgb(37, 38, 36)" opacity="0.91553915"/>
    <path d="M 534.759033203125 437.8060607910156 C 531.0369873046875 467.499755859375 527.51513671875 485.22393798828125 530.8320922851562 500.9031677246094 C 586.3355712890625 498.245849609375 582.6148071289062 492.6751403808594 568.7060546875 479.25677490234375 C 567.1982421875 467.9397888183594 561.5574951171875 484.8905334472656 582.4696655273438 488.2446594238281 C 577.9487915039062 445.5124206542969 577.97216796875 442.6335144042969 534.759033203125 437.8060607910156" stroke-width="0.0" fill="rgb(15, 16, 14)" opacity="1.0"/>
    <path d="M 24.661117553710938 21.817401885986328 C 28.752214431762695 -7.632606029510498 29.569978713989258 -10.051051139831543 68.60013580322266 -3.8725316524505615 C 68.94436645507812 13.323777198791504 61.47197341918945 5.1135711669921875 52.86935806274414 9.926149368286133 C 48.13741683959961 8.481850624084473 58.681087493896484 -5.105954647064209 72.00492858886719 15.06416130065918 C 63.729522705078125 36.40717315673828 47.62226486206055 36.90353775024414 24.661117553710938 21.817401885986328" stroke-width="0.0" fill="rgb(20, 20, 18)" opacity="1.0"/>
    <path d="M 413.8349914550781 37.864776611328125 C 432.44970703125 36.92960739135742 435.5049743652344 34.49473190307617 432.32196044921875 35.06303405761719 C 434.6393737792969 32.351200103759766 442.1526184082031 36.62274932861328 443.2290344238281 26.10750389099121 C 428.77850341796875 19.67935562133789 431.0484313964844 19.6591854095459 418.875 5.790847301483154 C 411.2677307128906 3.326965570449829 413.2793273925781 9.725146293640137 413.8349914550781 37.864776611328125" stroke-width="0.0" fill="rgb(21, 21, 19)" opacity="0.9925247"/>
    <path d="M 567.5093994140625 440.4893798828125 C 589.3919677734375 440.266357421875 596.4739379882812 445.82818603515625 611.32080078125 468.20068359375 C 607.8270263671875 479.5997619628906 596.3631591796875 483.3379821777344 563.3952026367188 476.9366149902344 C 563.0913696289062 488.07257080078125 574.72607421875 488.7852478027344 606.1704711914062 474.1816711425781 C 607.3654174804688 489.1513671875 590.2740478515625 486.3175048828125 567.5093994140625 440.4893798828125" stroke-width="0.0" fill="rgb(21, 22, 20)" opacity="1.0"/>
    <path d="M 539.8948364257812 373.1006774902344 C 535.7589111328125 375.7001037597656 538.486083984375 377.8149719238281 544.6123657226562 384.6520080566406 C 547.2882690429688 378.7945861816406 545.8262939453125 374.59796142578125 538.0963745117188 371.0813903808594 C 537.3732299804688 380.333740234375 541.8017578125 378.2105712890625 550.0026245117188 388.9781799316406 C 547.070068359375 392.3679504394531 543.3279418945312 388.7987976074219 539.8948364257812 373.1006774902344" stroke-width="0.0" fill="rgb(27, 28, 26)" opacity="0.9908448"/>
    <path d="M 270.5003356933594 35.47345733642578 C 262.5008544921875 33.27938461303711 262.9514465332031 37.335086822509766 262.0610046386719 15.86271858215332 C 281.6623840332031 11.404659271240234 275.54132080078125 15.669256210327148 265.5465087890625 33.573638916015625 C 281.3343811035156 38.70430374145508 288.3069763183594 40.951934814453125 293.6124267578125 24.142797470092773 C 276.51739501953125 12.389531135559082 275.56561279296875 17.435884475708008 270.5003356933594 35.47345733642578" stroke-width="0.0" fill="rgb(20, 20, 19)" opacity="1.0"/>
    <path d="M 537.1724853515625 10.606658935546875 C 569.8563842773438 22.10541534423828 575.4588012695312 18.5092830657959 562.710205078125 4.901130199432373 C 552.6030883789062 35.94981384277344 563.0795288085938 39.18238830566406 559.8119506835938 43.45497512817383 C 544.102783203125 44.229347229003906 539.1589965820312 43.91621780395508 522.0101928710938 44.127803802490234 C 521.2446899414062 47.577396392822266 522.2455444335938 23.30253028869629 537.1724853515625 10.606658935546875" stroke-width="0.0" fill="rgb(10, 11, 9)" opacity="0.9993863"/>
    <path d="M 503.5162048339844 42.599510192871094 C 509.7293701171875 -13.199969291687012 511.2664489746094 -14.172808647155762 572.6923828125 -11.582132339477539 C 573.6209106445312 12.151213645935059 562.9812622070312 9.570667266845703 561.4329833984375 14.504986763000488 C 567.4674072265625 11.83563232421875 571.697021484375 -9.919779777526855 579.0811157226562 1.1823519468307495 C 558.982421875 38.986637115478516 539.7949829101562 44.513118743896484 503.5162048339844 42.599510192871094" stroke-width="0.0" fill="rgb(16, 16, 15)" opacity="0.98670816"/>
    <path d="M 497.6006774902344 563.7499389648438 C 506.82183837890625 569.2435302734375 502.95880126953125 575.9414672851562 496.9501647949219 575.9559936523438 C 495.8451843261719 576.2388916015625 498.4165954589844 578.650634765625 497.3249206542969 578.3265380859375 C 488.2551574707031 580.1876220703125 491.2266540527344 573.2037353515625 492.9779357910156 565.0490112304688 C 484.3911437988281 579.0517578125 492.4765930175781 583.4879150390625 497.6006774902344 563.7499389648438" stroke-width="0.0" fill="rgb(23, 23, 22)" opacity="0.8339822"/>
    <path d="M 552.1250610351562 309.1826477050781 C 541.254150390625 305.8248291015625 547.60302734375 305.032958984375 544.3928833007812 294.4194641113281 C 554.1358032226562 260.1722717285156 543.1736450195312 242.90748596191406 575.265625 238.7373046875 C 576.1591796875 275.02099609375 561.9265747070312 278.2159118652344 569.5836181640625 255.68955993652344 C 572.736083984375 265.36865234375 570.3926391601562 284.65374755859375 552.1250610351562 309.1826477050781" stroke-width="0.0" fill="rgb(24, 24, 22)" opacity="1.0"/>
    <path d="M 311.23779296875 597.0433349609375 C 342.7235107421875 601.5140991210938 348.5223083496094 602.6243896484375 349.3563232421875 564.4423828125 C 317.3019714355469 563.139892578125 318.5978088378906 564.686767578125 296.5860595703125 566.5062866210938 C 294.29669189453125 569.2726440429688 296.4977111816406 584.8364868164062 303.283447265625 586.0341186523438 C 325.984375 585.907958984375 311.8919982910156 590.1647338867188 311.23779296875 597.0433349609375" stroke-width="0.0" fill="rgb(19, 20, 18)" opacity="0.9962429"/>
    <path d="M 604.5576782226562 522.847900390625 C 590.3729248046875 513.4258422851562 590.5151977539062 513.1254272460938 591.6543579101562 513.7366333007812 C 588.8112182617188 512.3541259765625 587.4879760742188 512.1386108398438 584.5979614257812 515.5767211914062 C 582.9821166992188 521.4287719726562 579.9760131835938 525.0836181640625 592.1635131835938 540.7267456054688 C 609.962646484375 541.3021850585938 611.0249633789062 536.4127807617188 604.5576782226562 522.847900390625" stroke-width="0.0" fill="rgb(19, 20, 18)" opacity="0.9999857"/>
    <path d="M 286.45361328125 32.89289855957031 C 290.40679931640625 14.419084548950195 299.4884338378906 24.531648635864258 321.198486328125 11.589555740356445 C 320.2423400878906 -7.103847026824951 318.1794738769531 -8.23376178741455 288.5426025390625 -4.404926300048828 C 284.9327697753906 26.93708038330078 289.408447265625 18.377777099609375 325.3839416503906 20.643648147583008 C 328.2840881347656 39.5522346496582 322.6104431152344 38.97890853881836 286.45361328125 32.89289855957031" stroke-width="0.0" fill="rgb(26, 27, 25)" opacity="0.8924027"/>
    <path d="M 529.394775390625 402.09881591796875 C 549.0443115234375 390.24237060546875 549.1571655273438 386.2676696777344 562.8671264648438 387.23968505859375 C 560.7681884765625 414.2148742675781 559.1845703125 414.8030700683594 530.424072265625 402.87506103515625 C 531.9208374023438 397.18780517578125 530.2691040039062 403.92041015625 527.2266235351562 428.7020263671875 C 565.65185546875 420.513427734375 551.4095458984375 410.8551940917969 529.394775390625 402.09881591796875" stroke-width="0.0" fill="rgb(14, 14, 13)" opacity="0.9342198"/>
    <path d="M 562.2811889648438 315.480224609375 C 588.203125 317.078125 592.8505249023438 315.45660400390625 595.5695190429688 296.9923095703125 C 574.9788818359375 293.24554443359375 565.8473510742188 304.9638977050781 569.6031494140625 268.6640319824219 C 599.9566650390625 267.11334228515625 598.3452758789062 273.2455749511719 592.9544067382812 299.4019775390625 C 575.1128540039062 300.1840515136719 566.554931640625 287.17620849609375 562.2811889648438 315.480224609375" stroke-width="0.0" fill="rgb(19, 19, 17)" opacity="1.0"/>
    <path d="M 104.25493621826172 596.0653686523438 C 91.87529754638672 573.1685791015625 81.68941497802734 577.1381225585938 85.68722534179688 580.5552368164062 C 84.8390121459961 580.01513671875 87.39369201660156 583.361083984375 94.33854675292969 594.1294555664062 C 91.31947326660156 585.7758178710938 87.88655090332031 579.4653930664062 85.38290405273438 580.8095703125 C 83.52851104736328 605.9564819335938 84.91813659667969 609.9566650390625 104.25493621826172 596.0653686523438" stroke-width="0.0" fill="rgb(16, 17, 15)" opacity="0.9694791"/>
    <path d="M 551.5540771484375 326.5145263671875 C 545.6173095703125 325.9590759277344 543.0054321289062 317.0182800292969 577.542236328125 315.44384765625 C 577.9921264648438 348.2103271484375 573.5087890625 346.5012512207031 569.08837890625 344.94305419921875 C 553.683349609375 348.347900390625 544.38671875 348.50555419921875 539.7236938476562 350.04205322265625 C 539.02490234375 331.2176208496094 539.7385864257812 325.6061706542969 551.5540771484375 326.5145263671875" stroke-width="0.0" fill="rgb(21, 21, 20)" opacity="0.99177825"/>
    <path d="M 314.48004150390625 592.6810913085938 C 312.46734619140625 565.4833984375 303.4765319824219 575.6677856445312 282.0267333984375 583.4619750976562 C 290.3927307128906 571.4222412109375 289.28656005859375 569.013671875 316.1072082519531 570.0633544921875 C 309.1670837402344 585.202392578125 283.99481201171875 571.0477294921875 263.8489074707031 599.5283203125 C 270.65679931640625 607.5137329101562 283.6748962402344 604.7197875976562 314.48004150390625 592.6810913085938" stroke-width="0.0" fill="rgb(20, 20, 19)" opacity="1.0"/>
    <path d="M 542.3368530273438 480.9365234375 C 525.034423828125 530.1333618164062 516.915771484375 521.2084350585938 518.107177734375 504.24932861328125 C 517.8536376953125 493.4117431640625 518.5115966796875 492.3785400390625 517.8328247070312 496.56304931640625 C 516.1558837890625 499.6639404296875 516.8729858398438 497.2408752441406 517.0119018554688 498.12518310546875 C 519.9901123046875 491.71905517578125 514.2808837890625 477.8184509277344 542.3368530273438 480.9365234375" stroke-width="0.0" fill="rgb(22, 23, 21)" opacity="0.9858552"/>
    <path d="M 16.972938537597656 16.636550903320312 C 26.139312744140625 6.710341453552246 24.463106155395508 4.630810260772705 24.44500732421875 3.0233821868896484 C 23.785139083862305 5.259016036987305 25.559717178344727 5.025348663330078 29.080190658569336 -4.922014236450195 C 25.24353790283203 -5.782689571380615 25.859689712524414 -5.739747047424316 10.663260459899902 -9.95391845703125 C 6.642441749572754 2.203338146209717 9.925021171569824 11.150364875793457 16.972938537597656 16.636550903320312" stroke-width="0.0" fill="rgb(18, 19, 17)" opacity="1.0"/>
    <path d="M 553.1207275390625 597.8744506835938 C 556.6875610351562 589.5985107421875 559.39404296875 603.591064453125 573.6157836914062 611.6732177734375 C 601.7185668945312 610.7896118164062 604.1511840820312 611.14404296875 603.5416870117188 582.0302734375 C 560.3394775390625 580.8380126953125 571.8286743164062 582.9278564453125 553.1273193359375 581.0387573242188 C 554.7090454101562 600.653564453125 577.1575927734375 602.5462036132812 553.1207275390625 597.8744506835938" stroke-width="0.0" fill="rgb(20, 21, 19)" opacity="1.0"/>
    <path d="M 456.43084716796875 575.77734375 C 497.6333923339844 576.33251953125 502.30084228515625 580.6964111328125 503.47344970703125 600.693359375 C 486.55780029296875 603.2640991210938 490.78936767578125 600.1713256835938 489.1175842285156 601.5276489257812 C 485.9490051269531 602.46142578125 486.014892578125 601.9152221679688 473.914306640625 606.20654296875 C 459.3547668457031 611.0274047851562 453.4321594238281 610.3917846679688 456.43084716796875 575.77734375" stroke-width="0.0" fill="rgb(21, 21, 20)" opacity="1.0"/>
    <path d="M 546.677001953125 400.4078369140625 C 525.5311889648438 403.6581726074219 529.3360595703125 410.85888671875 530.0844116210938 417.706298828125 C 525.9210205078125 426.6791687011719 525.3765258789062 442.44390869140625 525.3153076171875 453.8673095703125 C 547.1456298828125 450.09228515625 554.489013671875 446.3016662597656 556.8893432617188 433.0473327636719 C 551.4581909179688 422.5982666015625 552.5511474609375 422.2216491699219 546.677001953125 400.4078369140625" stroke-width="0.0" fill="rgb(13, 13, 12)" opacity="0.98866296"/>
    <path d="M 509.0980224609375 573.64306640625 C 511.70660400390625 579.8616943359375 508.5064392089844 584.9705200195312 501.2212219238281 585.6063842773438 C 494.7020568847656 575.3890380859375 494.3365783691406 571.4906616210938 498.55218505859375 559.6844482421875 C 509.4901123046875 553.4872436523438 514.6317138671875 548.5045166015625 528.2056274414062 555.8374633789062 C 518.768798828125 586.4234008789062 511.6320495605469 579.54931640625 509.0980224609375 573.64306640625" stroke-width="0.0" fill="rgb(23, 23, 21)" opacity="0.91909707"/>
    <path d="M 485.6221618652344 24.62400245666504 C 480.01324462890625 32.83491897583008 459.3544006347656 31.327661514282227 443.2852783203125 25.266706466674805 C 447.0558166503906 -11.863861083984375 450.69464111328125 -11.159449577331543 484.60443115234375 -6.106683254241943 C 484.5215148925781 16.817052841186523 481.9517822265625 19.48055648803711 471.7845764160156 11.025554656982422 C 464.93585205078125 4.492496967315674 465.0877685546875 5.095878601074219 485.6221618652344 24.62400245666504" stroke-width="0.0" fill="rgb(20, 20, 19)" opacity="1.0"/>
    <path d="M 17.672225952148438 26.151397705078125 C 11.24927043914795 22.410905838012695 14.076064109802246 20.081209182739258 37.058311462402344 20.209758758544922 C 38.423545837402344 1.038230299949646 37.247520446777344 -3.571010112762451 33.529605865478516 -8.158079147338867 C 20.33904266357422 4.492969989776611 23.65167999267578 4.8482770919799805 23.44495391845703 5.802767276763916 C 17.714811325073242 6.300673961639404 13.334855079650879 10.919574737548828 17.672225952148438 26.151397705078125" stroke-width="0.0" fill="rgb(20, 20, 18)" opacity="0.9751147"/>
    <path d="M 295.08892822265625 576.5521240234375 C 287.2811584472656 577.0971069335938 289.91278076171875 577.8079833984375 281.142578125 594.9967651367188 C 268.8501892089844 595.7547607421875 267.3396911621094 597.109375 253.30760192871094 590.1228637695312 C 257.55023193359375 558.9916381835938 267.64019775390625 569.2203369140625 281.1720275878906 566.6921997070312 C 291.75341796875 565.0676879882812 297.835693359375 565.65625 295.08892822265625 576.5521240234375" stroke-width="0.0" fill="rgb(22, 22, 20)" opacity="1.0"/>
    <path d="M 591.9736328125 479.0537414550781 C 592.175537109375 439.3653869628906 567.1387939453125 447.4967346191406 564.7010498046875 430.9180908203125 C 595.4342041015625 438.37579345703125 588.1602783203125 451.9844970703125 565.8104248046875 441.2134704589844 C 568.8568725585938 445.73236083984375 578.7119750976562 436.1825866699219 548.747314453125 433.6224670410156 C 549.0594482421875 475.2148132324219 554.4097290039062 481.2717590332031 591.9736328125 479.0537414550781" stroke-width="0.0" fill="rgb(21, 21, 20)" opacity="1.0"/>
    <path d="M 570.3936767578125 477.4665832519531 C 513.312255859375 481.3669738769531 520.4517822265625 489.2618713378906 521.3580932617188 519.2293701171875 C 530.3564453125 520.4017944335938 535.0498046875 525.455810546875 517.8126831054688 526.4508056640625 C 524.0614013671875 512.5499267578125 528.5674438476562 520.6806030273438 531.2835083007812 531.0969848632812 C 565.0165405273438 530.9033813476562 572.0701904296875 527.0895385742188 570.3936767578125 477.4665832519531" stroke-width="0.0" fill="rgb(20, 21, 19)" opacity="0.98947144"/>
    <path d="M 587.9522705078125 293.2107238769531 C 588.952392578125 315.3510437011719 595.0026245117188 321.4520263671875 608.1929321289062 317.22222900390625 C 594.9051513671875 294.96771240234375 594.6524047851562 297.874267578125 592.511474609375 295.8966979980469 C 594.6881103515625 298.150634765625 593.668212890625 299.8456726074219 606.259033203125 304.9095153808594 C 609.4698486328125 286.60223388671875 602.9110717773438 282.738525390625 587.9522705078125 293.2107238769531" stroke-width="0.0" fill="rgb(2, 3, 1)" opacity="1.0"/>
    <path d="M 252.42369079589844 19.387027740478516 C 253.91567993164062 34.216426849365234 254.7930145263672 40.34098434448242 254.5449981689453 37.72682571411133 C 236.34043884277344 38.72809600830078 235.2281036376953 35.30824279785156 215.2523956298828 37.75721740722656 C 219.07733154296875 35.82965850830078 216.58580017089844 43.83968734741211 213.97108459472656 21.78056526184082 C 236.71376037597656 15.243034362792969 242.8846435546875 14.802631378173828 252.42369079589844 19.387027740478516" stroke-width="0.0" fill="rgb(21, 22, 20)" opacity="1.0"/>
    <path d="M 341.02294921875 -3.718733787536621 C 322.76788330078125 -7.163692474365234 316.4923095703125 3.253682851791382 324.4437255859375 13.260660171508789 C 322.1103820800781 11.48914623260498 321.09765625 5.294566631317139 305.5267333984375 8.725898742675781 C 299.54376220703125 -2.7870707511901855 299.180908203125 -9.265176773071289 317.95758056640625 -11.478221893310547 C 326.026611328125 9.860101699829102 322.01116943359375 15.534539222717285 341.02294921875 -3.718733787536621" stroke-width="0.0" fill="rgb(15, 15, 13)" opacity="0.9998405"/>
    <path d="M 214.36297607421875 22.835098266601562 C 172.1258087158203 16.02492904663086 161.60208129882812 -13.81290340423584 156.7910614013672 -0.9035297632217407 C 172.6226806640625 23.347360610961914 162.6340789794922 7.858325481414795 161.82557678222656 -7.218440055847168 C 188.81085205078125 0.5072439908981323 177.45387268066406 2.4317989349365234 191.2093048095703 -12.417096138000488 C 215.73899841308594 -13.188271522521973 218.7412567138672 -7.7737016677856445 214.36297607421875 22.835098266601562" stroke-width="0.0" fill="rgb(23, 24, 22)" opacity="0.9545996"/>
    <path d="M 610.6333618164062 573.1144409179688 C 608.1153564453125 548.6880493164062 606.44189453125 539.2537231445312 597.9207153320312 543.668701171875 C 564.06689453125 556.6216430664062 558.520263671875 558.4837646484375 556.2506713867188 579.7801513671875 C 567.198974609375 582.0518798828125 565.846435546875 582.3458251953125 586.7814331054688 585.3827514648438 C 591.9572143554688 580.4483642578125 593.5892333984375 584.13134765625 610.6333618164062 573.1144409179688" stroke-width="0.0" fill="rgb(21, 22, 20)" opacity="0.9616143"/>
    <path d="M 413.0528259277344 39.6843376159668 C 412.78094482421875 15.22762393951416 421.5700378417969 19.373945236206055 430.0634765625 22.761436462402344 C 434.20831298828125 23.39514923095703 439.1699523925781 22.441051483154297 452.6346435546875 36.95281219482422 C 445.6366271972656 45.695640563964844 447.3844909667969 26.869434356689453 452.7491149902344 41.78098678588867 C 431.6082763671875 42.117183685302734 413.939208984375 42.670711517333984 413.0528259277344 39.6843376159668" stroke-width="0.0" fill="rgb(10, 11, 9)" opacity="0.9678444"/>
    <path d="M 551.4727783203125 531.4090576171875 C 546.2197265625 523.2753295898438 561.5836181640625 520.5722045898438 587.7819213867188 526.0784301757812 C 580.4030151367188 565.2546997070312 565.2124633789062 566.4904174804688 552.4526977539062 529.419189453125 C 541.4113159179688 534.1005859375 541.6383056640625 533.927734375 536.4578247070312 575.37744140625 C 570.4334716796875 577.9218139648438 574.8662109375 572.2552490234375 551.4727783203125 531.4090576171875" stroke-width="0.0" fill="rgb(20, 20, 19)" opacity="1.0"/>
    <path d="M 552.390380859375 293.328857421875 C 566.6634521484375 296.4290466308594 569.353759765625 294.0279235839844 552.845703125 248.54354858398438 C 575.6068725585938 244.54904174804688 589.3955688476562 244.83953857421875 602.526611328125 246.88768005371094 C 580.6206665039062 294.9662170410156 564.670166015625 292.7529296875 557.59765625 287.9551086425781 C 556.8410034179688 275.0472717285156 553.7952270507812 279.4320373535156 552.390380859375 293.328857421875" stroke-width="0.0" fill="rgb(19, 20, 18)" opacity="1.0"/>
    <path d="M 556.4886474609375 420.4404296875 C 560.5857543945312 404.0104064941406 563.3071899414062 402.28192138671875 592.9197998046875 401.0190734863281 C 588.0983276367188 426.8927307128906 584.5164794921875 424.44189453125 579.4150390625 425.0756530761719 C 571.2499389648438 420.00531005859375 569.59033203125 427.5050354003906 575.2875366210938 427.774658203125 C 577.7643432617188 425.37738037109375 572.7368774414062 427.7033996582031 556.4886474609375 420.4404296875" stroke-width="0.0" fill="rgb(20, 21, 19)" opacity="1.0"/>
    <path d="M 562.9390258789062 530.7966918945312 C 558.6041259765625 571.2635498046875 557.9345092773438 566.720458984375 559.1239624023438 586.5755615234375 C 517.4032592773438 588.66796875 511.89666748046875 586.8500366210938 507.0532531738281 577.4570922851562 C 517.2264404296875 541.9011840820312 518.9761962890625 559.0301513671875 523.8760375976562 538.176513671875 C 521.187255859375 531.8238525390625 540.1226196289062 528.3917846679688 562.9390258789062 530.7966918945312" stroke-width="0.0" fill="rgb(22, 23, 21)" opacity="1.0"/>
    <path d="M 333.45404052734375 15.282417297363281 C 325.00665283203125 7.0939788818359375 316.7641296386719 8.73878288269043 312.8531494140625 38.576271057128906 C 359.6239318847656 41.14700698852539 355.6584777832031 41.245460510253906 356.1692199707031 16.82012176513672 C 337.8665771484375 2.5847008228302 331.505859375 4.727870941162109 325.216064453125 10.040862083435059 C 337.3200378417969 17.342891693115234 339.2412109375 14.16246509552002 333.45404052734375 15.282417297363281" stroke-width="0.0" fill="rgb(18, 19, 17)" opacity="0.925165"/>
    <path d="M 49.627601623535156 -8.015671730041504 C 56.236820220947266 27.48348045349121 67.88697052001953 23.063844680786133 78.3572006225586 26.444772720336914 C 88.39600372314453 19.289710998535156 93.80364990234375 8.625819206237793 67.07755279541016 -10.77578067779541 C 67.6364974975586 5.449307918548584 85.86796569824219 10.36353588104248 82.78160858154297 12.044082641601562 C 77.5085678100586 -5.112095355987549 73.31046295166016 -8.594971656799316 49.627601623535156 -8.015671730041504" stroke-width="0.0" fill="rgb(20, 20, 18)" opacity="1.0"/>
    <path d="M 576.8191528320312 406.3077087402344 C 574.0424194335938 432.4620666503906 575.5269775390625 415.7484436035156 577.0820922851562 450.98931884765625 C 550.1187133789062 446.4698791503906 551.5718994140625 443.5182189941406 541.4717407226562 439.4866027832031 C 548.6821899414062 428.1134338378906 548.7149047851562 432.1986083984375 547.8967895507812 426.72491455078125 C 549.4136962890625 420.4459533691406 543.7111206054688 410.75128173828125 576.8191528320312 406.3077087402344" stroke-width="0.0" fill="rgb(20, 21, 19)" opacity="1.0"/>
    <path d="M 520.4285888671875 543.734130859375 C 516.103515625 511.84381103515625 515.1062622070312 504.2474060058594 531.3953857421875 505.9907531738281 C 538.7780151367188 516.6585083007812 534.0037231445312 520.4841918945312 535.30859375 512.747802734375 C 540.1307983398438 522.1881713867188 538.9513549804688 526.3900146484375 542.7542724609375 549.0476684570312 C 527.0853881835938 551.5853271484375 518.00634765625 553.3751831054688 520.4285888671875 543.734130859375" stroke-width="0.0" fill="rgb(13, 14, 12)" opacity="0.90797764"/>
    <path d="M 535.5078125 581.403076171875 C 537.85693359375 555.9302368164062 542.9456787109375 552.950927734375 577.0474243164062 556.4827270507812 C 581.3671264648438 591.7623291015625 580.4838256835938 598.1456909179688 541.8291015625 600.8060913085938 C 536.4205322265625 581.1478881835938 541.8515625 580.5420532226562 550.5115966796875 583.823974609375 C 560.0756225585938 582.06689453125 563.3809814453125 585.0098266601562 535.5078125 581.403076171875" stroke-width="0.0" fill="rgb(22, 22, 20)" opacity="0.9944398"/>
    <path d="M 301.153564453125 -6.841007232666016 C 291.9800109863281 10.863475799560547 290.580810546875 11.736652374267578 289.0677795410156 16.448484420776367 C 284.6305847167969 17.409988403320312 281.9529724121094 23.88884925842285 260.765625 30.559547424316406 C 257.9193420410156 23.57184410095215 252.84353637695312 16.87323570251465 254.28126525878906 -11.982122421264648 C 291.7198791503906 -7.186992168426514 288.03179931640625 -6.21384859085083 301.153564453125 -6.841007232666016" stroke-width="0.0" fill="rgb(19, 20, 18)" opacity="1.0"/>
    <path d="M 274.8520812988281 588.4817504882812 C 240.26705932617188 582.5076904296875 253.7959442138672 572.3287963867188 262.4030456542969 572.4909057617188 C 262.3963623046875 568.6149291992188 260.0352783203125 566.0423583984375 256.585205078125 563.4126586914062 C 257.83331298828125 563.6983642578125 256.16778564453125 562.4942016601562 257.3316955566406 563.5350952148438 C 252.56954956054688 563.3805541992188 258.1428527832031 557.8213500976562 274.8520812988281 588.4817504882812" stroke-width="0.0" fill="rgb(13, 13, 12)" opacity="0.8692679"/>
    <path d="M 318.3395690917969 18.842975616455078 C 320.9912414550781 -10.789783477783203 324.6138610839844 -10.094600677490234 347.8841857910156 -12.491498947143555 C 357.3204040527344 1.4203805923461914 359.7968444824219 4.388522148132324 353.00537109375 -7.4224467277526855 C 354.4097595214844 -0.6648595333099365 358.09649658203125 -2.6755733489990234 355.0492248535156 18.141782760620117 C 336.09637451171875 20.20206642150879 331.456787109375 24.672191619873047 318.3395690917969 18.842975616455078" stroke-width="0.0" fill="rgb(17, 18, 16)" opacity="0.99499685"/>
    <path d="M 580.5656127929688 43.48882293701172 C 551.1334838867188 35.45891571044922 544.7651977539062 38.680110931396484 571.4542236328125 -1.682283639907837 C 593.4754638671875 -1.5232737064361572 592.9769897460938 5.0546979904174805 591.6878662109375 45.85890579223633 C 547.4950561523438 34.80491256713867 539.167236328125 33.435943603515625 539.004638671875 42.03782272338867 C 576.2127075195312 47.18559265136719 586.7451782226562 44.40743637084961 580.5656127929688 43.48882293701172" stroke-width="0.0" fill="rgb(19, 20, 18)" opacity="1.0"/>
    <path d="M 610.0352783203125 507.14361572265625 C 577.7737426757812 501.15240478515625 584.8234252929688 509.501953125 602.9979248046875 504.55657958984375 C 565.7996215820312 507.3885803222656 561.4974365234375 507.44970703125 562.3079833984375 467.70947265625 C 590.80126953125 478.4493408203125 579.3177490234375 483.8476867675781 579.763916015625 461.8836975097656 C 617.23046875 465.0031433105469 615.19140625 478.05755615234375 610.0352783203125 507.14361572265625" stroke-width="0.0" fill="rgb(19, 19, 17)" opacity="1.0"/>
    <path d="M 539.968505859375 338.4243469238281 C 554.7779541015625 354.51519775390625 560.7310180664062 357.1188049316406 574.3234252929688 344.9679260253906 C 569.7535400390625 326.4352111816406 558.4484252929688 332.5394592285156 550.8739624023438 337.1559143066406 C 550.3670654296875 338.9264831542969 548.505126953125 335.710693359375 556.9990234375 341.2612609863281 C 557.7042846679688 336.2955322265625 548.7481079101562 332.6091613769531 539.968505859375 338.4243469238281" stroke-width="0.0" fill="rgb(21, 21, 20)" opacity="0.9899166"/>
    <path d="M 612.84521484375 349.4422912597656 C 609.2072143554688 389.1509704589844 603.0872802734375 391.24285888671875 591.239013671875 388.9098205566406 C 598.3255615234375 388.2492980957031 593.0469360351562 389.0804443359375 566.5118408203125 388.43072509765625 C 569.0867309570312 353.1515197753906 573.8859252929688 360.6926574707031 573.1978149414062 360.08526611328125 C 578.1781616210938 347.5945129394531 591.0919799804688 345.469482421875 612.84521484375 349.4422912597656" stroke-width="0.0" fill="rgb(20, 20, 18)" opacity="1.0"/>
    <path d="M 274.2721252441406 10.682966232299805 C 299.5745849609375 11.512033462524414 300.1793518066406 14.407179832458496 316.0436706542969 33.89421463012695 C 314.4565734863281 42.72905731201172 308.2991638183594 37.864933013916016 284.787109375 38.811710357666016 C 272.2287292480469 30.563108444213867 272.2451171875 28.49045181274414 270.3711242675781 21.58835220336914 C 272.9363708496094 21.075658798217773 272.9747619628906 21.849319458007812 274.2721252441406 10.682966232299805" stroke-width="0.0" fill="rgb(16, 17, 15)" opacity="0.93023556"/>
    <path d="M 555.0367431640625 385.46337890625 C 531.7662963867188 402.02911376953125 541.9852905273438 394.54852294921875 545.7991943359375 389.35693359375 C 537.6571044921875 390.7271423339844 538.3758544921875 393.69970703125 539.2054443359375 391.93963623046875 C 541.1348266601562 391.3764953613281 540.4935302734375 389.7921142578125 541.1596069335938 391.4129943847656 C 538.298828125 393.31109619140625 545.3992309570312 387.93109130859375 555.0367431640625 385.46337890625" stroke-width="0.0" fill="rgb(18, 19, 17)" opacity="0.79883325"/>
    <path d="M 578.84521484375 303.1070556640625 C 577.7605590820312 290.3524475097656 570.2293701171875 270.83746337890625 600.4340209960938 256.5162048339844 C 614.1409912109375 263.8008728027344 608.15087890625 271.05694580078125 609.9998779296875 277.6372985839844 C 608.77783203125 318.9743347167969 618.3917236328125 328.2095031738281 592.5469970703125 331.6586608886719 C 575.4345703125 307.7758483886719 579.2220458984375 303.5977478027344 578.84521484375 303.1070556640625" stroke-width="0.0" fill="rgb(22, 23, 21)" opacity="1.0"/>
    <path d="M 536.5521240234375 379.28948974609375 C 539.388427734375 382.98272705078125 537.27392578125 371.60748291015625 538.4390258789062 348.2586364746094 C 558.2767333984375 350.2672119140625 562.5997924804688 352.2266540527344 567.5459594726562 355.4295654296875 C 562.1776733398438 369.2041015625 561.4557495117188 376.4180908203125 557.2780151367188 394.4164733886719 C 544.0230712890625 394.169189453125 546.4356079101562 387.42755126953125 536.5521240234375 379.28948974609375" stroke-width="0.0" fill="rgb(19, 20, 18)" opacity="1.0"/>
    <path d="M 598.0555419921875 429.056640625 C 612.7601928710938 431.4733581542969 612.6961669921875 445.0263366699219 608.1148071289062 469.0751037597656 C 587.9942626953125 454.7200012207031 590.8740844726562 450.1239013671875 592.2755737304688 438.6850280761719 C 588.24755859375 434.4439392089844 575.092041015625 431.9870910644531 570.0044555664062 438.843505859375 C 586.4276733398438 461.1650695800781 591.2090454101562 461.2612609863281 598.0555419921875 429.056640625" stroke-width="0.0" fill="rgb(18, 18, 16)" opacity="1.0"/>
    <path d="M 329.77545166015625 605.8954467773438 C 362.5503234863281 599.0435791015625 347.8179626464844 598.7537231445312 360.1224670410156 594.3956909179688 C 369.2511291503906 583.04736328125 374.72021484375 609.518310546875 345.1738586425781 604.5482788085938 C 376.5213317871094 584.016845703125 375.30548095703125 578.0960083007812 347.10321044921875 564.3748168945312 C 330.1866760253906 563.5034790039062 325.3445739746094 568.8265380859375 329.77545166015625 605.8954467773438" stroke-width="0.0" fill="rgb(23, 24, 22)" opacity="0.99806815"/>
    <path d="M 557.6945190429688 334.29248046875 C 542.4219970703125 335.7362365722656 542.8570556640625 337.66436767578125 540.461181640625 336.6341247558594 C 538.4188232421875 318.2274169921875 545.4683837890625 327.6112060546875 564.1244506835938 308.7270812988281 C 541.8602905273438 303.9922790527344 544.2271118164062 310.51190185546875 546.335693359375 326.41229248046875 C 558.3995361328125 320.20074462890625 561.1300659179688 321.7223815917969 557.6945190429688 334.29248046875" stroke-width="0.0" fill="rgb(19, 19, 17)" opacity="0.8324036"/>
    <path d="M 285.1461181640625 19.9903564453125 C 298.8232727050781 24.480052947998047 306.3199157714844 25.394319534301758 319.0355529785156 -5.890612602233887 C 306.1952819824219 -11.428010940551758 297.026123046875 -7.886410236358643 283.294677734375 -1.4796035289764404 C 279.54803466796875 -5.000097274780273 284.7189636230469 -8.262432098388672 294.5733337402344 -8.825301170349121 C 295.818359375 -2.257390022277832 295.0316467285156 0.6067500710487366 285.1461181640625 19.9903564453125" stroke-width="0.0" fill="rgb(19, 19, 18)" opacity="1.0"/>
    <path d="M 562.0182495117188 370.1487121582031 C 544.6409301757812 369.1365661621094 544.9632568359375 368.368408203125 539.5950927734375 368.8387756347656 C 537.1763305664062 353.37542724609375 537.2982177734375 351.36431884765625 539.405029296875 337.4372253417969 C 547.4881591796875 340.1459655761719 549.5301513671875 342.5532531738281 560.30517578125 343.6527099609375 C 562.8804931640625 351.9679260253906 565.1739501953125 357.22662353515625 562.0182495117188 370.1487121582031" stroke-width="0.0" fill="rgb(20, 21, 19)" opacity="0.96859413"/>
    <path d="M 439.05816650390625 31.725479125976562 C 446.8282470703125 39.163963317871094 432.7669982910156 41.60712432861328 426.4964904785156 32.53564453125 C 448.8444519042969 38.28309631347656 453.5727844238281 39.58134078979492 451.9134521484375 15.213688850402832 C 432.392333984375 22.35012435913086 417.8910827636719 36.388702392578125 410.5440673828125 -5.143977642059326 C 424.680908203125 -10.043174743652344 440.795166015625 3.6629638671875 439.05816650390625 31.725479125976562" stroke-width="0.0" fill="rgb(13, 14, 12)" opacity="0.90104145"/>
    <path d="M 102.42110443115234 591.1422119140625 C 102.28417205810547 583.68408203125 108.65413665771484 578.0377197265625 111.64630889892578 596.7752075195312 C 88.6972427368164 598.9530029296875 84.9949722290039 597.2994995117188 86.6763687133789 588.2385864257812 C 90.86590576171875 577.3487548828125 93.2269515991211 577.3177490234375 97.90736389160156 579.1119384765625 C 100.58731842041016 579.958251953125 105.04476165771484 580.0025024414062 102.42110443115234 591.1422119140625" stroke-width="0.0" fill="rgb(22, 22, 20)" opacity="1.0"/>
    <path d="M 301.50750732421875 564.7439575195312 C 320.6809997558594 577.5459594726562 303.21759033203125 569.1520385742188 291.56427001953125 574.5036010742188 C 299.3127746582031 598.3718872070312 315.39837646484375 572.5949096679688 346.406494140625 602.199951171875 C 323.4154357910156 617.9521484375 304.09124755859375 605.5333862304688 327.56610107421875 584.8399047851562 C 303.72271728515625 571.669677734375 294.20343017578125 575.3479614257812 301.50750732421875 564.7439575195312" stroke-width="0.0" fill="rgb(23, 23, 22)" opacity="1.0"/>
    <path d="M 240.62179565429688 27.651371002197266 C 246.2213134765625 41.813541412353516 255.76333618164062 36.96144485473633 282.1608581542969 37.98014831542969 C 282.0350341796875 14.706681251525879 284.1050720214844 8.642855644226074 258.6114501953125 7.580662727355957 C 253.0119171142578 31.712053298950195 261.3594665527344 34.335289001464844 263.2443542480469 40.32631301879883 C 261.7213134765625 37.37561798095703 257.46240234375 25.8682804107666 240.62179565429688 27.651371002197266" stroke-width="0.0" fill="rgb(19, 20, 18)" opacity="0.9933965"/>
    <path d="M 409.735107421875 -10.766815185546875 C 454.1163024902344 -6.519972801208496 452.2540588378906 4.241734027862549 443.3352355957031 1.2009984254837036 C 443.6609191894531 12.03504753112793 449.0693664550781 16.649072647094727 443.8772277832031 31.608619689941406 C 427.1138916015625 27.22224998474121 427.12713623046875 19.520421981811523 434.3857421875 10.710460662841797 C 429.26409912109375 13.486135482788086 416.9163513183594 27.078041076660156 409.735107421875 -10.766815185546875" stroke-width="0.0" fill="rgb(21, 22, 20)" opacity="1.0"/>
    <path d="M 554.14990234375 431.8711853027344 C 519.4110717773438 431.6423645019531 529.0223388671875 438.2342224121094 524.2116088867188 447.0277404785156 C 522.16796875 464.16461181640625 522.466796875 468.637451171875 524.4559326171875 464.2421875 C 521.8833618164062 463.1788330078125 521.4285278320312 467.848388671875 540.0896606445312 485.1390075683594 C 553.966796875 486.0943603515625 555.5201416015625 484.6527099609375 554.14990234375 431.8711853027344" stroke-width="0.0" fill="rgb(20, 21, 19)" opacity="1.0"/>
    <path d="M 287.2437438964844 600.3867797851562 C 278.90325927734375 566.4454956054688 268.8519287109375 567.6699829101562 223.2324981689453 573.4361572265625 C 226.5874481201172 608.902099609375 231.33546447753906 591.4138793945312 226.04339599609375 598.4063720703125 C 237.0650634765625 608.123046875 238.1287384033203 604.1388549804688 243.01913452148438 604.2158813476562 C 254.16973876953125 605.3460693359375 269.611572265625 621.0889892578125 287.2437438964844 600.3867797851562" stroke-width="0.0" fill="rgb(21, 21, 20)" opacity="0.9845623"/>
    <path d="M 176.28323364257812 35.62796401977539 C 183.18295288085938 6.894802093505859 189.51759338378906 8.354549407958984 208.03851318359375 3.476534366607666 C 206.90675354003906 5.744286060333252 195.3250274658203 -1.0085798501968384 223.45755004882812 -2.0285604000091553 C 218.28102111816406 30.75265121459961 209.41006469726562 28.651813507080078 217.94639587402344 28.01188850402832 C 218.92813110351562 36.927494049072266 209.8273162841797 38.23106002807617 176.28323364257812 35.62796401977539" stroke-width="0.0" fill="rgb(22, 23, 22)" opacity="0.9759508"/>
  </g>
</svg>
