<?xml version="1.0" ?>
<svg xmlns="http://www.w3.org/2000/svg" version="1.1" width="600" height="600">
  <defs/>
  <g>
    <path d="M 296.5753479003906 586.9254150390625 C 296.8644714355469 588.6436157226562 298.6603088378906 586.6223754882812 296.5918273925781 586.4700317382812 C 297.0765380859375 586.9302368164062 295.36480712890625 588.924072265625 294.404052734375 588.7261962890625 C 293.3600158691406 590.7236938476562 293.9642639160156 591.526123046875 296.3043518066406 591.7093505859375 C 297.4680480957031 594.0211791992188 296.8005065917969 594.1681518554688 296.5753479003906 586.9254150390625" stroke-width="0.0" fill="rgb(254, 254, 254)" opacity="0.9927859"/>
    <path d="M 262.7962341308594 598.9655151367188 C 265.00360107421875 597.0261840820312 265.5830383300781 597.6000366210938 265.84844970703125 597.777587890625 C 263.47552490234375 597.1151123046875 263.6024169921875 596.03955078125 263.3012390136719 598.2057495117188 C 263.6392822265625 597.95654296875 262.9530029296875 598.2863159179688 263.86651611328125 597.7564697265625 C 265.2882995605469 595.605712890625 263.7578125 593.5908203125 262.7962341308594 598.9655151367188" stroke-width="0.0" fill="rgb(254, 254, 254)" opacity="0.99416894"/>
    <path d="M 21.608915328979492 559.3662719726562 C 21.923912048339844 558.5260620117188 23.164094924926758 556.1448364257812 21.527463912963867 558.3609619140625 C 20.421892166137695 555.7659301757812 21.419153213500977 557.44873046875 22.18194580078125 556.66455078125 C 20.084779739379883 556.9529418945312 17.979028701782227 556.7234497070312 19.89608383178711 554.8673095703125 C 18.175907135009766 556.8950805664062 17.298202514648438 557.2493286132812 21.608915328979492 559.3662719726562" stroke-width="0.0" fill="rgb(254, 254, 254)" opacity="0.9933149"/>
    <path d="M 40.03069305419922 584.0726928710938 C 38.772560119628906 585.507080078125 37.143043518066406 587.1452026367188 36.36979293823242 587.970947265625 C 34.72652816772461 587.6613159179688 32.474544525146484 588.856689453125 30.498214721679688 587.7619018554688 C 29.142126083374023 588.3585815429688 26.97709083557129 590.3846435546875 26.986953735351562 589.7758178710938 C 27.2889404296875 590.0753173828125 28.525300979614258 588.1400146484375 40.03069305419922 584.0726928710938" stroke-width="0.0" fill="rgb(254, 254, 254)" opacity="0.992194"/>
    <path d="M 29.912511825561523 562.4871215820312 C 29.416244506835938 562.2781982421875 28.773691177368164 561.2498779296875 27.388519287109375 560.8615112304688 C 26.174272537231445 560.7450561523438 26.964250564575195 561.1614990234375 24.619449615478516 563.3173217773438 C 23.56351661682129 561.9207763671875 24.80126953125 561.3206176757812 25.39317512512207 563.0012817382812 C 26.426462173461914 561.7730712890625 24.24901008605957 563.6700439453125 29.912511825561523 562.4871215820312" stroke-width="0.0" fill="rgb(254, 254, 254)" opacity="0.9927282"/>
    <path d="M 1.1647733449935913 542.0220947265625 C 2.275855779647827 539.8972778320312 1.5930711030960083 538.66357421875 3.0067408084869385 538.7556762695312 C 4.472348690032959 539.7886962890625 2.2001237869262695 539.5758056640625 -0.27266567945480347 538.5604248046875 C -1.0702687501907349 537.357421875 0.1902298927307129 536.6315307617188 1.2819181680679321 535.1844482421875 C 1.595263123512268 537.6593627929688 4.09270715713501 536.1890258789062 1.1647733449935913 542.0220947265625" stroke-width="0.0" fill="rgb(255, 254, 255)" opacity="0.994678"/>
    <path d="M 21.028223037719727 320.97747802734375 C 21.82423973083496 318.6588439941406 19.416561126708984 320.3998718261719 17.801013946533203 319.8017578125 C 16.08932876586914 320.3517150878906 18.018510818481445 320.0690612792969 20.11005210876465 320.0541687011719 C 20.780607223510742 321.8935852050781 20.917490005493164 322.9309387207031 18.793272018432617 322.7005920410156 C 20.511030197143555 321.6427917480469 19.048030853271484 322.34228515625 21.028223037719727 320.97747802734375" stroke-width="0.0" fill="rgb(253, 253, 253)" opacity="0.99444866"/>
    <path d="M 7.092210292816162 296.4288635253906 C 4.610385417938232 295.7539978027344 2.234384059906006 293.836181640625 3.3214423656463623 295.5404968261719 C 2.171823501586914 295.33636474609375 3.687255620956421 295.7676086425781 2.796082019805908 294.64923095703125 C 4.168830394744873 296.477294921875 5.719099044799805 298.6221008300781 4.290035247802734 298.6750183105469 C 2.3568227291107178 299.77862548828125 2.4575791358947754 298.4906921386719 7.092210292816162 296.4288635253906" stroke-width="0.0" fill="rgb(254, 254, 254)" opacity="0.9926152"/>
    <path d="M 65.06326293945312 588.0726928710938 C 64.21599578857422 588.9314575195312 63.15816116333008 588.04296875 60.73041915893555 590.0601196289062 C 58.60951232910156 591.62841796875 60.62381362915039 591.8251953125 61.3719367980957 591.2940673828125 C 60.39918518066406 592.2134399414062 62.22727584838867 593.4822998046875 62.280853271484375 594.1994018554688 C 59.84877014160156 593.91259765625 58.279056549072266 592.765380859375 65.06326293945312 588.0726928710938" stroke-width="0.0" fill="rgb(254, 254, 254)" opacity="0.9937426"/>
    <path d="M 45.18471145629883 580.606689453125 C 47.41877746582031 583.45361328125 45.941123962402344 583.2911987304688 43.4019775390625 585.5227661132812 C 42.527320861816406 587.1401977539062 42.952720642089844 587.5636596679688 40.62702941894531 585.1895141601562 C 42.43378448486328 583.2034301757812 43.4097900390625 584.0107421875 43.32002258300781 582.3919067382812 C 41.60646438598633 583.6392211914062 42.08295440673828 581.49609375 45.18471145629883 580.606689453125" stroke-width="0.0" fill="rgb(254, 254, 254)" opacity="0.9922256"/>
    <path d="M 28.863933563232422 595.0838623046875 C 26.801692962646484 593.1306762695312 26.27039337158203 592.7297973632812 25.2447566986084 591.4874877929688 C 24.50358009338379 589.600341796875 23.934019088745117 589.96044921875 23.330812454223633 591.4449462890625 C 22.75998306274414 591.74462890625 23.832849502563477 590.6563720703125 24.443021774291992 588.4622192382812 C 24.017433166503906 588.5166625976562 22.74649429321289 588.3519897460938 28.863933563232422 595.0838623046875" stroke-width="0.0" fill="rgb(254, 254, 255)" opacity="0.99256814"/>
    <path d="M 28.798978805541992 524.0929565429688 C 29.57706642150879 525.1697387695312 29.24006462097168 525.4869995117188 31.462684631347656 527.5243530273438 C 31.7101993560791 525.1773071289062 32.229427337646484 524.9485473632812 30.761497497558594 524.6893920898438 C 28.679838180541992 524.4659423828125 26.78313636779785 525.600830078125 28.67129898071289 525.7981567382812 C 29.379911422729492 528.0714721679688 31.158693313598633 527.6702270507812 28.798978805541992 524.0929565429688" stroke-width="0.0" fill="rgb(255, 255, 255)" opacity="0.9934974"/>
    <path d="M 14.125341415405273 578.1287841796875 C 15.96711540222168 578.7335205078125 13.58278751373291 578.2030639648438 13.995284080505371 580.1657104492188 C 12.799291610717773 581.4530639648438 12.072145462036133 580.7136840820312 10.354837417602539 581.7601928710938 C 10.255775451660156 582.6637573242188 11.36788558959961 580.7212524414062 11.910238265991211 579.6021728515625 C 13.725622177124023 580.3336181640625 14.548429489135742 582.1536865234375 14.125341415405273 578.1287841796875" stroke-width="0.0" fill="rgb(253, 253, 253)" opacity="0.9947749"/>
    <path d="M 332.0320739746094 572.0175170898438 C 330.987548828125 572.0027465820312 328.73004150390625 572.5396728515625 329.000244140625 572.8124389648438 C 327.2259216308594 573.3651733398438 327.3101806640625 572.042724609375 327.6679992675781 572.4804077148438 C 329.9093017578125 573.2167358398438 330.832275390625 571.6072998046875 329.664306640625 573.667724609375 C 328.7029113769531 573.2908935546875 331.00537109375 571.7896118164062 332.0320739746094 572.0175170898438" stroke-width="0.0" fill="rgb(253, 253, 253)" opacity="0.9947749"/>
    <path d="M 580.74462890625 581.7014770507812 C 579.134521484375 584.2677001953125 578.8404541015625 584.4150390625 580.4338989257812 585.3665771484375 C 578.0751953125 582.9300537109375 576.0594482421875 584.7315673828125 574.6099853515625 586.32763671875 C 574.1566772460938 585.4847412109375 573.3349609375 585.2008666992188 571.1036376953125 587.3136596679688 C 569.1973876953125 587.6007690429688 568.96923828125 587.134033203125 580.74462890625 581.7014770507812" stroke-width="0.0" fill="rgb(255, 255, 255)" opacity="0.9921568"/>
    <path d="M 273.85015869140625 590.8739624023438 C 274.0985412597656 589.6727905273438 275.5447082519531 590.7236938476562 274.799560546875 590.4111938476562 C 273.2088928222656 589.00732421875 272.90802001953125 588.9047241210938 271.0810241699219 589.444091796875 C 271.858154296875 587.49609375 271.3496398925781 589.4022827148438 270.51348876953125 589.197509765625 C 272.2215881347656 589.4361572265625 273.81591796875 590.5595092773438 273.85015869140625 590.8739624023438" stroke-width="0.0" fill="rgb(253, 253, 253)" opacity="0.9935422"/>
    <path d="M 598.5238037109375 580.4886474609375 C 596.8316650390625 581.991455078125 595.4864501953125 579.9947509765625 593.1956787109375 580.1027221679688 C 591.6209716796875 579.4065551757812 591.780517578125 580.1044921875 592.431640625 577.7154541015625 C 593.8086547851562 577.3601684570312 593.1807861328125 575.59130859375 590.8356323242188 574.7400512695312 C 592.212890625 574.599853515625 590.731201171875 572.5760498046875 598.5238037109375 580.4886474609375" stroke-width="0.0" fill="rgb(254, 255, 255)" opacity="0.9924789"/>
    <path d="M 47.004188537597656 579.234130859375 C 46.53718948364258 579.795166015625 48.2209358215332 580.58251953125 50.0911979675293 579.5004272460938 C 50.11903762817383 581.6148681640625 47.64481735229492 581.7396240234375 49.437705993652344 580.9387817382812 C 50.97942352294922 580.6793823242188 48.941307067871094 578.9822387695312 47.78883743286133 578.332763671875 C 48.788002014160156 575.78955078125 48.731075286865234 578.1937866210938 47.004188537597656 579.234130859375" stroke-width="0.0" fill="rgb(253, 253, 253)" opacity="0.9936907"/>
    <path d="M 8.947446823120117 325.4322814941406 C 11.045524597167969 322.79351806640625 11.684531211853027 323.101806640625 13.979216575622559 322.41558837890625 C 13.69028377532959 323.9534606933594 15.056209564208984 322.1982421875 14.719351768493652 324.451171875 C 16.2513484954834 326.6470031738281 16.4786319732666 328.1958923339844 14.536720275878906 330.2577209472656 C 12.548940658569336 328.1910705566406 13.972421646118164 326.4884338378906 8.947446823120117 325.4322814941406" stroke-width="0.0" fill="rgb(254, 254, 254)" opacity="0.99249387"/>
    <path d="M 7.011298179626465 328.94097900390625 C 9.077656745910645 328.3633117675781 7.062102317810059 327.9932556152344 8.680658340454102 328.8845520019531 C 8.272491455078125 326.630859375 8.091109275817871 328.2679138183594 6.9272027015686035 326.3899841308594 C 5.030947685241699 324.2117004394531 3.8965933322906494 326.0394592285156 5.7680583000183105 325.8521423339844 C 6.09274435043335 328.53790283203125 7.11842155456543 330.5349426269531 7.011298179626465 328.94097900390625" stroke-width="0.0" fill="rgb(254, 254, 254)" opacity="0.99353546"/>
    <path d="M 15.788569450378418 568.9583740234375 C 18.077157974243164 570.0497436523438 15.695499420166016 570.5467529296875 13.237489700317383 570.3316040039062 C 12.247079849243164 568.9467163085938 14.50129508972168 567.2872314453125 14.466534614562988 567.4805908203125 C 12.066436767578125 567.2671508789062 10.278128623962402 569.4227294921875 10.007229804992676 568.2571411132812 C 10.3235502243042 567.1503295898438 11.898355484008789 569.3338623046875 15.788569450378418 568.9583740234375" stroke-width="0.0" fill="rgb(254, 254, 254)" opacity="0.9924283"/>
    <path d="M 51.16880416870117 598.1578979492188 C 49.27540588378906 600.4893798828125 51.147438049316406 600.2527465820312 52.58311462402344 602.4288330078125 C 53.41368103027344 601.63720703125 55.48582077026367 599.423583984375 53.73710632324219 600.8975219726562 C 53.51105880737305 600.4323120117188 55.191734313964844 601.8164672851562 55.72754669189453 600.4307250976562 C 53.5960693359375 602.2649536132812 51.57602310180664 604.4010620117188 51.16880416870117 598.1578979492188" stroke-width="0.0" fill="rgb(253, 253, 254)" opacity="0.99576527"/>
    <path d="M 316.12542724609375 598.2459716796875 C 313.71917724609375 597.7095336914062 315.7487487792969 597.0934448242188 316.2991027832031 594.8508911132812 C 317.03948974609375 597.1783447265625 318.0350646972656 597.7044677734375 315.6481628417969 598.2979736328125 C 315.83099365234375 600.4737548828125 313.68255615234375 600.045166015625 314.1465759277344 599.2894287109375 C 313.2221374511719 599.546630859375 311.7405090332031 600.0665283203125 316.12542724609375 598.2459716796875" stroke-width="0.0" fill="rgb(253, 252, 253)" opacity="0.99339104"/>
    <path d="M 324.2999572753906 582.9642944335938 C 321.58685302734375 582.0126953125 322.8041076660156 581.8013916015625 323.71734619140625 582.1334228515625 C 322.1671447753906 581.6361694335938 322.3883361816406 582.7192993164062 322.66571044921875 582.6320190429688 C 324.31964111328125 583.234130859375 325.9294738769531 581.4876098632812 324.2239685058594 582.0271606445312 C 324.3653259277344 584.2406616210938 324.15802001953125 586.5149536132812 324.2999572753906 582.9642944335938" stroke-width="0.0" fill="rgb(253, 253, 253)" opacity="0.9941642"/>
    <path d="M 563.9536743164062 565.8680419921875 C 563.9859619140625 563.7164306640625 563.2013549804688 561.7992553710938 565.1500244140625 563.8334350585938 C 566.0965576171875 564.9248657226562 567.7993774414062 564.490234375 569.7731323242188 565.1859741210938 C 569.572998046875 565.3764038085938 570.89111328125 565.36328125 572.9354858398438 566.8501586914062 C 573.7928466796875 568.3202514648438 574.9520874023438 566.8442993164062 563.9536743164062 565.8680419921875" stroke-width="0.0" fill="rgb(254, 254, 254)" opacity="0.9921805"/>
    <path d="M 554.204345703125 577.5261840820312 C 554.9281005859375 578.9030151367188 556.961181640625 577.1021118164062 554.995849609375 575.4765014648438 C 555.9772338867188 576.1593627929688 553.6781005859375 575.1605224609375 553.970947265625 577.6497802734375 C 552.2332153320312 577.7444458007812 550.8935546875 576.985107421875 548.8497924804688 576.2256469726562 C 548.434326171875 575.7560424804688 549.8982543945312 576.9111328125 554.204345703125 577.5261840820312" stroke-width="0.0" fill="rgb(254, 254, 254)" opacity="0.9931203"/>
    <path d="M 38.793827056884766 271.87542724609375 C 36.74763870239258 274.2149353027344 36.31272506713867 275.9627990722656 38.74422836303711 276.84002685546875 C 40.178443908691406 277.4056701660156 37.84951400756836 279.168701171875 38.19980239868164 279.52294921875 C 38.209449768066406 279.553955078125 36.249053955078125 279.2387390136719 34.46022033691406 277.7712707519531 C 33.01436996459961 279.2451171875 32.54088592529297 280.6700134277344 38.793827056884766 271.87542724609375" stroke-width="0.0" fill="rgb(254, 254, 254)" opacity="0.9924899"/>
    <path d="M 543.0269775390625 574.380859375 C 541.288818359375 573.99365234375 539.4400634765625 573.6676025390625 539.2411499023438 575.9657592773438 C 538.2140502929688 575.7944946289062 540.3513793945312 578.124755859375 540.0081176757812 579.68359375 C 538.63134765625 581.2086181640625 540.2699584960938 580.115234375 538.9027709960938 581.7481079101562 C 539.0746459960938 583.3829345703125 537.3916625976562 584.355712890625 543.0269775390625 574.380859375" stroke-width="0.0" fill="rgb(254, 254, 254)" opacity="0.99242425"/>
    <path d="M 38.63560104370117 299.8921203613281 C 36.84237289428711 302.35528564453125 37.01781463623047 302.96734619140625 38.613826751708984 300.75830078125 C 38.609134674072266 299.85662841796875 38.82967758178711 297.4972839355469 40.282989501953125 297.2171325683594 C 41.4163932800293 299.0670471191406 40.555908203125 296.8081359863281 40.177940368652344 294.69281005859375 C 40.952293395996094 292.1666564941406 41.37454605102539 292.3468322753906 38.63560104370117 299.8921203613281" stroke-width="0.0" fill="rgb(253, 253, 253)" opacity="0.99444866"/>
    <path d="M 592.2589111328125 572.0604858398438 C 592.5511474609375 569.9426879882812 592.921630859375 571.6732177734375 591.0618286132812 573.0549926757812 C 590.7542724609375 570.69384765625 590.2141723632812 570.1448974609375 588.25146484375 570.0307006835938 C 587.1838989257812 569.1311645507812 587.3045043945312 571.0550537109375 588.5272827148438 573.2396240234375 C 590.746337890625 571.2191162109375 589.77978515625 573.2247924804688 592.2589111328125 572.0604858398438" stroke-width="0.0" fill="rgb(254, 255, 255)" opacity="0.992971"/>
    <path d="M 565.2208251953125 588.6841430664062 C 563.9116821289062 587.088623046875 564.595458984375 586.311767578125 562.042724609375 587.4443359375 C 562.0267944335938 590.1011962890625 561.7224731445312 589.522216796875 562.27099609375 589.2076416015625 C 560.2042236328125 591.2630615234375 560.4886474609375 591.1657104492188 560.3434448242188 591.5947265625 C 562.598876953125 590.6150512695312 562.7628173828125 590.088134765625 565.2208251953125 588.6841430664062" stroke-width="0.0" fill="rgb(254, 254, 254)" opacity="0.9930968"/>
    <path d="M 321.9323425292969 573.9798583984375 C 324.5355529785156 574.2232055664062 326.9493408203125 574.0980224609375 327.1429138183594 573.0870971679688 C 326.4422912597656 572.2140502929688 325.94354248046875 571.1123046875 327.17474365234375 569.78955078125 C 328.9573669433594 569.5960083007812 330.3837585449219 569.6674194335938 330.9165954589844 569.1232299804688 C 333.4312438964844 567.6792602539062 335.59576416015625 566.7303466796875 321.9323425292969 573.9798583984375" stroke-width="0.0" fill="rgb(254, 254, 254)" opacity="0.99186873"/>
    <path d="M 574.9920654296875 594.9894409179688 C 576.4114379882812 597.0770874023438 574.8151245117188 596.6217041015625 575.8240966796875 595.3436889648438 C 574.8414306640625 594.968017578125 576.0037841796875 594.0966796875 578.2378540039062 592.758544921875 C 579.3820190429688 590.6964111328125 579.160400390625 592.8594970703125 578.5657958984375 593.9136962890625 C 577.4713745117188 593.7612915039062 579.1212158203125 596.1380615234375 574.9920654296875 594.9894409179688" stroke-width="0.0" fill="rgb(254, 254, 255)" opacity="0.99299794"/>
    <path d="M 349.2802429199219 576.0884399414062 C 347.3155517578125 574.6577758789062 349.483642578125 575.95947265625 351.76910400390625 574.6680908203125 C 351.2139587402344 576.7164306640625 349.05670166015625 576.4881591796875 347.9665832519531 576.037353515625 C 346.1627197265625 576.1031494140625 343.9527587890625 575.974609375 343.2909240722656 576.6779174804688 C 344.9876403808594 577.9447021484375 343.25811767578125 580.3079223632812 349.2802429199219 576.0884399414062" stroke-width="0.0" fill="rgb(254, 254, 254)" opacity="0.9928132"/>
    <path d="M 11.946146965026855 558.878173828125 C 9.60960578918457 558.7810668945312 8.877026557922363 557.2145385742188 7.322951316833496 556.5459594726562 C 5.610901355743408 555.3257446289062 3.522282600402832 555.0872192382812 4.136005878448486 554.2701416015625 C 5.313979625701904 552.632568359375 4.174744606018066 554.9537353515625 3.293370246887207 555.0821533203125 C 4.260868072509766 557.4966430664062 4.535790920257568 555.3968505859375 11.946146965026855 558.878173828125" stroke-width="0.0" fill="rgb(254, 254, 254)" opacity="0.9928823"/>
    <path d="M 560.9956665039062 590.0325317382812 C 559.8012084960938 590.1966552734375 561.1568603515625 588.4430541992188 559.479736328125 589.527099609375 C 560.412841796875 589.7330932617188 561.3648681640625 590.5835571289062 560.60595703125 588.9508666992188 C 559.1610107421875 589.8992309570312 558.9640502929688 589.4559326171875 560.5731811523438 587.8248291015625 C 558.7478637695312 589.5969848632812 558.3366088867188 590.2427978515625 560.9956665039062 590.0325317382812" stroke-width="0.0" fill="rgb(253, 253, 253)" opacity="0.99745315"/>
    <path d="M 4.000371932983398 540.040283203125 C 1.5299656391143799 540.1503295898438 1.1529003381729126 540.3810424804688 -1.0460231304168701 540.4086303710938 C -0.13145987689495087 541.3239135742188 0.0036918879486620426 543.221435546875 -1.7000535726547241 541.9630737304688 C -2.510131597518921 541.4092407226562 -1.3940842151641846 540.8401489257812 -2.610001564025879 540.1115112304688 C -0.44211095571517944 539.1502685546875 -1.0646719932556152 537.2052001953125 4.000371932983398 540.040283203125" stroke-width="0.0" fill="rgb(254, 254, 254)" opacity="0.9966206"/>
    <path d="M 280.9717102050781 578.0269165039062 C 279.5835876464844 578.0367431640625 278.4380798339844 576.362060546875 278.8002014160156 576.4589233398438 C 280.50286865234375 577.9840087890625 280.5145263671875 578.606689453125 278.31805419921875 579.1800537109375 C 280.3225402832031 576.9185791015625 279.8133544921875 578.9987182617188 280.7936096191406 580.7271728515625 C 282.0665588378906 579.3046264648438 284.38946533203125 577.3663940429688 280.9717102050781 578.0269165039062" stroke-width="0.0" fill="rgb(254, 254, 254)" opacity="0.99315435"/>
    <path d="M 267.7259521484375 584.1194458007812 C 268.4466247558594 585.510498046875 267.83636474609375 585.510009765625 267.6158142089844 587.1183471679688 C 269.9306640625 584.9353637695312 269.68994140625 584.572998046875 267.3938293457031 583.1541137695312 C 265.6098937988281 584.0830688476562 266.61834716796875 583.427978515625 265.1314392089844 582.3081665039062 C 266.69921875 583.6690673828125 265.92132568359375 581.23486328125 267.7259521484375 584.1194458007812" stroke-width="0.0" fill="rgb(254, 254, 254)" opacity="0.99319744"/>
    <path d="M 33.932716369628906 327.68115234375 C 33.867332458496094 327.76678466796875 36.327396392822266 326.09796142578125 37.92635726928711 324.3791809082031 C 39.6933708190918 323.935791015625 40.3508415222168 322.86602783203125 39.59089279174805 323.9508056640625 C 41.94692611694336 323.55853271484375 40.47503662109375 324.319091796875 42.24662399291992 325.88092041015625 C 43.48291778564453 327.07550048828125 45.219207763671875 325.8360290527344 33.932716369628906 327.68115234375" stroke-width="0.0" fill="rgb(254, 255, 255)" opacity="0.99224657"/>
    <path d="M 22.778928756713867 544.758056640625 C 20.812278747558594 547.0438842773438 19.610828399658203 545.6116943359375 21.5716609954834 545.8059692382812 C 23.553573608398438 548.2267456054688 21.122724533081055 546.4619140625 21.28169059753418 545.3339233398438 C 23.206981658935547 542.7420043945312 24.992055892944336 542.3931884765625 25.210054397583008 544.0838012695312 C 23.863325119018555 544.918212890625 22.63365936279297 542.9692993164062 22.778928756713867 544.758056640625" stroke-width="0.0" fill="rgb(253, 253, 253)" opacity="0.9943504"/>
    <path d="M 26.983137130737305 272.8955078125 C 25.15876007080078 271.7211608886719 26.569120407104492 269.6472473144531 25.905118942260742 270.9557800292969 C 23.92074966430664 270.6405029296875 26.019474029541016 269.49273681640625 25.763957977294922 270.515625 C 24.672016143798828 268.3821105957031 23.015207290649414 269.4324035644531 24.109811782836914 270.06634521484375 C 22.508554458618164 270.5857238769531 21.419790267944336 268.7574157714844 26.983137130737305 272.8955078125" stroke-width="0.0" fill="rgb(254, 254, 254)" opacity="0.994078"/>
    <path d="M 33.979732513427734 558.0048217773438 C 34.01995086669922 555.5778198242188 32.14323043823242 556.1410522460938 33.895755767822266 555.4757690429688 C 33.8607292175293 555.052978515625 32.89414596557617 552.9456787109375 30.679744720458984 551.09375 C 30.70195770263672 550.4157104492188 32.227996826171875 549.7054443359375 29.60857391357422 548.7677612304688 C 30.549850463867188 550.4451904296875 29.939180374145508 551.7479248046875 33.979732513427734 558.0048217773438" stroke-width="0.0" fill="rgb(254, 254, 254)" opacity="0.99217904"/>
    <path d="M 299.9853820800781 582.697021484375 C 300.0956726074219 583.93212890625 300.599609375 585.1563720703125 302.7492980957031 583.122314453125 C 302.80340576171875 581.2112426757812 302.332763671875 582.7630615234375 303.3177490234375 580.8348999023438 C 302.6461486816406 580.4144287109375 304.5382995605469 581.35986328125 303.3996276855469 581.447021484375 C 304.1626892089844 581.1038818359375 306.0704345703125 583.4596557617188 299.9853820800781 582.697021484375" stroke-width="0.0" fill="rgb(253, 253, 253)" opacity="0.9943504"/>
    <path d="M 1.260157823562622 251.81272888183594 C -0.5001818537712097 250.0132293701172 -0.33365246653556824 250.1818389892578 1.585279941558838 249.6243438720703 C -0.1723988652229309 250.9561309814453 -0.6909074187278748 252.46218872070312 -3.12041974067688 251.63546752929688 C -3.911875009536743 254.0191650390625 -5.90531063079834 254.5188751220703 -6.3894877433776855 252.3274688720703 C -7.796564102172852 252.5499725341797 -8.122577667236328 254.40838623046875 1.260157823562622 251.81272888183594" stroke-width="0.0" fill="rgb(254, 253, 254)" opacity="0.9958016"/>
    <path d="M 25.92633819580078 276.6478576660156 C 23.65181541442871 276.11474609375 23.71210289001465 273.9371032714844 25.903400421142578 271.5906066894531 C 24.94256019592285 270.8619384765625 26.248920440673828 273.2900085449219 27.07489585876465 274.0560607910156 C 25.390945434570312 276.1297912597656 23.384479522705078 274.11553955078125 24.264307022094727 274.8607177734375 C 23.24561309814453 276.9783630371094 23.96353530883789 277.4646301269531 25.92633819580078 276.6478576660156" stroke-width="0.0" fill="rgb(254, 254, 254)" opacity="0.99273825"/>
    <path d="M 546.4463500976562 572.44677734375 C 546.3861083984375 573.4083862304688 547.5767211914062 573.0841064453125 549.6318359375 571.5075073242188 C 549.7473754882812 573.1318359375 547.9817504882812 575.4693603515625 546.5330810546875 574.7659912109375 C 544.5057983398438 574.793212890625 542.7098999023438 573.1198120117188 540.473388671875 575.6075439453125 C 540.139404296875 574.6629028320312 542.4644775390625 576.6585693359375 546.4463500976562 572.44677734375" stroke-width="0.0" fill="rgb(254, 254, 254)" opacity="0.9923707"/>
    <path d="M 12.080986976623535 592.2657470703125 C 10.951831817626953 593.7352905273438 11.171564102172852 592.1314086914062 12.828227043151855 591.1416625976562 C 14.86050033569336 592.1294555664062 13.725157737731934 589.745361328125 12.736907958984375 589.1907348632812 C 14.332843780517578 588.7608032226562 14.153207778930664 589.404296875 16.577890396118164 589.0328979492188 C 16.682546615600586 589.8053588867188 16.297033309936523 589.4713134765625 12.080986976623535 592.2657470703125" stroke-width="0.0" fill="rgb(253, 253, 254)" opacity="0.99509794"/>
    <path d="M 260.0106506347656 596.9970703125 C 258.5980529785156 598.3819580078125 258.48687744140625 596.3743286132812 259.9433898925781 598.3643188476562 C 258.0561218261719 597.186279296875 259.4192199707031 595.7015991210938 259.0160827636719 594.0174560546875 C 258.30718994140625 592.1127319335938 256.1125793457031 593.5890502929688 257.9106140136719 595.7324829101562 C 259.9601135253906 597.873779296875 260.7678527832031 595.8096313476562 260.0106506347656 596.9970703125" stroke-width="0.0" fill="rgb(254, 254, 254)" opacity="0.993402"/>
    <path d="M 293.4407958984375 597.7954711914062 C 292.1885070800781 597.9681396484375 292.26251220703125 600.0235595703125 290.7776794433594 598.5394897460938 C 288.836181640625 596.311767578125 291.1158752441406 593.9490966796875 291.3168640136719 593.2791137695312 C 292.4835510253906 594.1193237304688 291.081787109375 593.2337036132812 290.0709228515625 592.4151000976562 C 288.2049560546875 591.4110107421875 290.1943054199219 590.9076538085938 293.4407958984375 597.7954711914062" stroke-width="0.0" fill="rgb(254, 254, 254)" opacity="0.99353373"/>
    <path d="M 33.7717399597168 262.2232360839844 C 34.221004486083984 263.54217529296875 32.72660446166992 264.6438903808594 30.85341453552246 264.0884704589844 C 32.628631591796875 266.2272644042969 34.1224250793457 265.64520263671875 35.338531494140625 265.9945373535156 C 37.45610046386719 266.83673095703125 36.596092224121094 268.7912292480469 35.46171951293945 268.7705078125 C 37.20603942871094 270.5133361816406 38.79961013793945 269.499267578125 33.7717399597168 262.2232360839844" stroke-width="0.0" fill="rgb(254, 254, 254)" opacity="0.99197626"/>
    <path d="M 7.229301452636719 551.7639770507812 C 7.506491661071777 551.27783203125 5.162887096405029 550.9133911132812 3.558903455734253 548.8878784179688 C 3.1671512126922607 550.0001220703125 1.1808629035949707 551.2150268554688 3.8219072818756104 549.1407470703125 C 1.215800166130066 547.3375244140625 -0.23148071765899658 545.04541015625 -1.36394202709198 543.8121948242188 C 0.28233349323272705 545.9830932617188 -1.9186933040618896 543.9666137695312 7.229301452636719 551.7639770507812" stroke-width="0.0" fill="rgb(253, 253, 253)" opacity="0.99402684"/>
    <path d="M 268.8650817871094 598.7394409179688 C 268.3511962890625 596.8485107421875 270.2794494628906 597.4086303710938 270.02447509765625 598.2152099609375 C 269.92120361328125 599.9188232421875 270.47198486328125 598.076171875 272.7246398925781 596.8659057617188 C 274.15118408203125 597.36865234375 274.5876159667969 598.89208984375 275.23468017578125 599.0486450195312 C 275.9964904785156 597.4395141601562 276.2068786621094 594.8658447265625 268.8650817871094 598.7394409179688" stroke-width="0.0" fill="rgb(254, 254, 254)" opacity="0.9934169"/>
    <path d="M 267.0760498046875 594.4346923828125 C 266.1349792480469 593.3650512695312 265.73651123046875 594.978515625 266.7152099609375 593.8916015625 C 264.43402099609375 596.0972900390625 263.8729553222656 597.6744384765625 262.0107421875 594.8526000976562 C 259.2320861816406 593.2718505859375 258.8492431640625 593.79248046875 260.11505126953125 592.306640625 C 260.698974609375 594.4195556640625 259.81158447265625 596.2151489257812 267.0760498046875 594.4346923828125" stroke-width="0.0" fill="rgb(253, 253, 254)" opacity="0.99257594"/>
    <path d="M 36.284603118896484 251.743896484375 C 35.21291732788086 254.4535369873047 37.51805114746094 252.60177612304688 35.009620666503906 250.08604431152344 C 35.47446060180664 251.00242614746094 36.88360595703125 248.68359375 36.15186309814453 248.00979614257812 C 33.89863204956055 245.50205993652344 31.930503845214844 247.52490234375 32.362300872802734 249.7030029296875 C 33.81532287597656 250.4011993408203 31.40846824645996 252.248779296875 36.284603118896484 251.743896484375" stroke-width="0.0" fill="rgb(254, 254, 254)" opacity="0.99281627"/>
    <path d="M 26.01531982421875 546.0317993164062 C 27.15969467163086 546.6467895507812 26.43757438659668 547.94921875 27.31980323791504 549.6541137695312 C 28.07126808166504 547.783203125 30.02193260192871 549.6021728515625 27.742961883544922 551.504638671875 C 28.029972076416016 549.40966796875 27.833547592163086 549.4141845703125 28.287818908691406 549.2498779296875 C 29.133941650390625 546.9866943359375 27.117761611938477 547.7201538085938 26.01531982421875 546.0317993164062" stroke-width="0.0" fill="rgb(253, 253, 253)" opacity="0.99409145"/>
    <path d="M 352.0139465332031 591.9205932617188 C 354.3171081542969 591.6099243164062 355.158447265625 593.5803833007812 356.114013671875 594.9293212890625 C 354.775390625 595.2293701171875 353.2825012207031 596.816162109375 351.1468505859375 599.246337890625 C 352.72705078125 601.1771850585938 353.8116149902344 599.9447021484375 355.5442810058594 598.5029296875 C 355.11248779296875 596.6416015625 355.30084228515625 594.3118286132812 352.0139465332031 591.9205932617188" stroke-width="0.0" fill="rgb(254, 254, 254)" opacity="0.99203104"/>
    <path d="M 15.773921966552734 592.9085693359375 C 14.696972846984863 594.8251953125 15.822761535644531 595.900146484375 16.606435775756836 598.1290283203125 C 14.825679779052734 598.075439453125 13.884614944458008 599.7946166992188 14.834484100341797 598.0860595703125 C 13.890438079833984 599.8656005859375 14.006745338439941 599.0523681640625 13.84698486328125 600.2623291015625 C 14.792074203491211 598.127197265625 14.974173545837402 597.2313842773438 15.773921966552734 592.9085693359375" stroke-width="0.0" fill="rgb(253, 253, 254)" opacity="0.9935364"/>
    <path d="M 571.3536376953125 594.9213256835938 C 569.552978515625 595.6383666992188 571.7135620117188 596.8158569335938 571.2972412109375 596.115966796875 C 572.1112060546875 598.126220703125 572.659912109375 600.513916015625 570.2271728515625 601.6026611328125 C 570.281005859375 604.0111694335938 570.8726196289062 605.1908569335938 569.1968383789062 607.4945068359375 C 571.0894165039062 605.3118896484375 573.7308349609375 605.2926025390625 571.3536376953125 594.9213256835938" stroke-width="0.0" fill="rgb(253, 253, 253)" opacity="0.99485826"/>
    <path d="M 59.09587097167969 561.25732421875 C 61.17791748046875 562.445068359375 61.975215911865234 564.4058227539062 63.57387161254883 562.5641479492188 C 64.9529800415039 563.4066772460938 66.16497802734375 562.2568969726562 65.63610076904297 560.8007202148438 C 67.62371063232422 560.395751953125 68.97069549560547 558.3583374023438 67.99848175048828 559.9431762695312 C 67.5758056640625 561.711669921875 69.78168487548828 563.4862670898438 59.09587097167969 561.25732421875" stroke-width="0.0" fill="rgb(254, 254, 254)" opacity="0.9921946"/>
    <path d="M 15.069265365600586 268.9769287109375 C 15.129883766174316 266.601318359375 16.196352005004883 268.8449401855469 17.165143966674805 269.2403869628906 C 15.3389310836792 268.6865234375 14.420097351074219 268.2190856933594 13.681668281555176 268.723388671875 C 12.210530281066895 270.8659362792969 11.037691116333008 271.8487548828125 12.112651824951172 271.54339599609375 C 13.693552017211914 272.6760559082031 15.321590423583984 271.4185485839844 15.069265365600586 268.9769287109375" stroke-width="0.0" fill="rgb(254, 254, 254)" opacity="0.9929403"/>
    <path d="M 39.84123992919922 298.0367736816406 C 40.972354888916016 296.33184814453125 41.07224655151367 295.9086608886719 41.8044319152832 294.6239929199219 C 41.800357818603516 293.0464172363281 42.05598449707031 291.3387451171875 42.46175003051758 289.72637939453125 C 41.534454345703125 290.7145690917969 43.19425964355469 288.7355041503906 42.15357971191406 290.54638671875 C 42.060482025146484 292.6123046875 40.215213775634766 291.2639465332031 39.84123992919922 298.0367736816406" stroke-width="0.0" fill="rgb(254, 254, 254)" opacity="0.9933279"/>
    <path d="M 40.50910568237305 285.6639404296875 C 43.40269470214844 285.25115966796875 41.035865783691406 284.52545166015625 40.64222717285156 283.3148193359375 C 41.24824142456055 281.03082275390625 42.35767364501953 280.5830383300781 43.07976150512695 278.88861083984375 C 45.048805236816406 277.177490234375 46.88646697998047 277.1474914550781 44.56505584716797 276.5675964355469 C 46.609100341796875 274.1241149902344 47.870601654052734 272.6852111816406 40.50910568237305 285.6639404296875" stroke-width="0.0" fill="rgb(254, 254, 254)" opacity="0.9920474"/>
    <path d="M 294.17205810546875 572.9205932617188 C 295.9413757324219 574.8529052734375 296.20458984375 575.8505859375 298.4227294921875 573.8099975585938 C 300.49969482421875 574.1447143554688 300.68194580078125 572.9606323242188 298.7183837890625 572.8719482421875 C 299.2213134765625 573.8829345703125 301.5419006347656 575.2574462890625 301.6929626464844 575.0213012695312 C 301.31671142578125 576.03662109375 303.44073486328125 575.2430419921875 294.17205810546875 572.9205932617188" stroke-width="0.0" fill="rgb(254, 254, 254)" opacity="0.9928154"/>
    <path d="M 19.194015502929688 244.88534545898438 C 16.860376358032227 246.39651489257812 19.16062355041504 247.79962158203125 20.34990882873535 245.72610473632812 C 20.076963424682617 243.7657012939453 19.19873046875 245.7257537841797 19.921585083007812 244.0727996826172 C 20.470762252807617 241.93048095703125 19.394535064697266 242.0511932373047 17.44062614440918 242.94009399414062 C 17.124950408935547 240.7582550048828 15.49013900756836 239.4642333984375 19.194015502929688 244.88534545898438" stroke-width="0.0" fill="rgb(254, 254, 254)" opacity="0.9926327"/>
    <path d="M 579.9083251953125 564.759033203125 C 582.3771362304688 565.4193115234375 580.5127563476562 567.516845703125 578.1143798828125 567.7487182617188 C 580.410400390625 566.8425903320312 582.6735229492188 567.1464233398438 583.1820678710938 569.206298828125 C 584.9400024414062 569.0886840820312 586.6458129882812 568.7745361328125 586.0176391601562 569.1078491210938 C 584.2745361328125 569.1856079101562 582.0726318359375 571.5741577148438 579.9083251953125 564.759033203125" stroke-width="0.0" fill="rgb(254, 254, 254)" opacity="0.99250054"/>
    <path d="M 23.637338638305664 262.1011047363281 C 25.014842987060547 260.9132385253906 23.82086944580078 258.58953857421875 21.53818702697754 260.9732360839844 C 22.107755661010742 262.9853210449219 19.912433624267578 263.7597351074219 19.229570388793945 262.2710266113281 C 16.770071029663086 260.7793884277344 16.17555809020996 260.0711975097656 16.852773666381836 260.6658020019531 C 17.742603302001953 259.1916809082031 18.04688835144043 260.8363952636719 23.637338638305664 262.1011047363281" stroke-width="0.0" fill="rgb(254, 254, 254)" opacity="0.992313"/>
    <path d="M 34.23611068725586 316.7702941894531 C 35.45676803588867 318.1567077636719 35.76279067993164 319.8862609863281 37.9674186706543 321.34661865234375 C 37.508934020996094 320.5731201171875 37.374088287353516 320.81695556640625 37.52547073364258 322.2747497558594 C 35.0827751159668 321.16876220703125 33.79073715209961 320.820556640625 34.38096618652344 320.341552734375 C 32.638282775878906 318.0827941894531 33.587886810302734 320.4732971191406 34.23611068725586 316.7702941894531" stroke-width="0.0" fill="rgb(254, 254, 255)" opacity="0.9926555"/>
    <path d="M 8.32054615020752 287.7759094238281 C 8.123473167419434 288.3179016113281 9.709263801574707 288.3016662597656 10.324352264404297 289.5093994140625 C 8.627948760986328 288.09332275390625 8.678115844726562 288.68634033203125 9.188926696777344 286.2653503417969 C 9.222660064697266 284.35406494140625 8.340372085571289 282.784912109375 8.087699890136719 285.0958251953125 C 5.938508033752441 284.36199951171875 6.810452938079834 283.1993713378906 8.32054615020752 287.7759094238281" stroke-width="0.0" fill="rgb(253, 253, 253)" opacity="0.99428594"/>
    <path d="M 287.8662414550781 583.1173095703125 C 287.57373046875 585.0657958984375 288.9228210449219 587.0364990234375 286.9124450683594 588.4669799804688 C 287.93304443359375 589.3244018554688 290.0940856933594 591.6458129882812 290.4012145996094 591.5197143554688 C 288.3622741699219 591.74658203125 286.16827392578125 594.1563110351562 284.9780578613281 592.825927734375 C 283.0836181640625 594.8787841796875 281.68585205078125 595.1119995117188 287.8662414550781 583.1173095703125" stroke-width="0.0" fill="rgb(254, 254, 254)" opacity="0.99194026"/>
    <path d="M 585.978759765625 581.1332397460938 C 587.9241943359375 580.5972900390625 589.6301879882812 581.902099609375 587.8695068359375 582.2389526367188 C 589.3223876953125 582.4177856445312 591.6677856445312 581.4804077148438 589.73095703125 579.4518432617188 C 587.7559204101562 578.2950439453125 589.8955688476562 578.8984985351562 588.3743896484375 580.978515625 C 586.048828125 578.6870727539062 586.7845458984375 580.0963134765625 585.978759765625 581.1332397460938" stroke-width="0.0" fill="rgb(255, 255, 255)" opacity="0.9931716"/>
    <path d="M 47.991695404052734 555.974365234375 C 48.513057708740234 558.1239013671875 46.71300506591797 556.7033081054688 47.85982131958008 556.8034057617188 C 48.11343002319336 555.6226196289062 49.54208755493164 555.7315063476562 47.148948669433594 554.7731323242188 C 47.636783599853516 555.9151611328125 46.84069061279297 556.2483520507812 46.34569549560547 558.3681640625 C 46.85388946533203 556.43896484375 49.06671142578125 556.896484375 47.991695404052734 555.974365234375" stroke-width="0.0" fill="rgb(254, 254, 254)" opacity="0.99579346"/>
    <path d="M 38.084495544433594 298.8739929199219 C 39.45823287963867 296.5998840332031 37.086612701416016 297.4178466796875 36.0560188293457 297.2708740234375 C 36.235931396484375 295.2491149902344 37.10794448852539 297.5821228027344 35.94599151611328 299.32196044921875 C 34.036563873291016 301.31390380859375 35.17660903930664 299.41204833984375 32.85563278198242 298.0071105957031 C 33.157135009765625 296.3395080566406 34.763282775878906 295.405029296875 38.084495544433594 298.8739929199219" stroke-width="0.0" fill="rgb(254, 254, 254)" opacity="0.9925665"/>
    <path d="M 22.839523315429688 582.908447265625 C 23.210458755493164 583.8460083007812 22.410634994506836 584.8267822265625 24.06682014465332 583.2804565429688 C 24.675376892089844 582.8985595703125 26.062698364257812 580.42138671875 24.25741195678711 581.7910766601562 C 26.3654842376709 579.593505859375 27.669397354125977 580.8028564453125 25.76702880859375 579.2596435546875 C 24.579816818237305 577.5968627929688 26.41688346862793 577.5282592773438 22.839523315429688 582.908447265625" stroke-width="0.0" fill="rgb(254, 254, 255)" opacity="0.99297345"/>
    <path d="M 345.9798278808594 570.9789428710938 C 345.1395263671875 568.9934692382812 345.83441162109375 571.1344604492188 343.7335205078125 572.3870239257812 C 342.01214599609375 570.8575439453125 343.7793884277344 573.0319213867188 342.53448486328125 573.15625 C 341.6894836425781 573.9977416992188 344.1175231933594 572.8348388671875 344.052734375 572.2203979492188 C 344.0835876464844 572.1590576171875 345.1393737792969 570.4927978515625 345.9798278808594 570.9789428710938" stroke-width="0.0" fill="rgb(253, 253, 253)" opacity="0.9947318"/>
    <path d="M 581.8008422851562 570.392333984375 C 583.7584228515625 572.0051879882812 585.6608276367188 574.4610595703125 587.6837768554688 575.1265258789062 C 589.505615234375 574.3245849609375 589.8978271484375 574.8103637695312 588.6139526367188 573.5913696289062 C 587.23388671875 572.03564453125 588.8743286132812 572.7037963867188 588.4446411132812 574.8574829101562 C 589.9095458984375 574.1100463867188 588.6244506835938 574.609375 581.8008422851562 570.392333984375" stroke-width="0.0" fill="rgb(254, 254, 254)" opacity="0.9932736"/>
    <path d="M 13.126492500305176 329.08062744140625 C 12.093812942504883 327.17254638671875 12.826761245727539 325.81011962890625 14.99866771697998 323.3365478515625 C 15.180103302001953 325.1806945800781 16.314990997314453 324.1448669433594 17.89447021484375 322.2625732421875 C 17.27770233154297 321.9327392578125 16.88332748413086 322.1268310546875 17.561840057373047 322.1163330078125 C 16.09946060180664 320.81671142578125 18.143970489501953 318.763427734375 13.126492500305176 329.08062744140625" stroke-width="0.0" fill="rgb(253, 253, 253)" opacity="0.9929496"/>
    <path d="M 37.34454345703125 560.9148559570312 C 37.59334182739258 562.2774047851562 35.159576416015625 561.2431640625 34.031761169433594 563.4277954101562 C 34.960548400878906 565.70166015625 36.87443923950195 564.4547729492188 37.941001892089844 566.55908203125 C 37.340396881103516 567.4048461914062 38.647762298583984 568.7827758789062 40.54862976074219 569.330810546875 C 40.41849899291992 567.88427734375 39.5906982421875 566.6685791015625 37.34454345703125 560.9148559570312" stroke-width="0.0" fill="rgb(254, 254, 254)" opacity="0.9924522"/>
    <path d="M 584.7106323242188 577.1666870117188 C 585.3239135742188 579.3184204101562 586.153076171875 578.4737548828125 587.834228515625 577.636962890625 C 586.4185180664062 579.15673828125 587.135009765625 578.205078125 587.2662963867188 578.6419067382812 C 586.94873046875 578.6853637695312 584.6702880859375 578.826171875 582.1153564453125 579.2685546875 C 581.9656372070312 577.0250854492188 583.7672119140625 577.478271484375 584.7106323242188 577.1666870117188" stroke-width="0.0" fill="rgb(253, 253, 254)" opacity="0.9950794"/>
    <path d="M 598.1704711914062 588.195556640625 C 599.728759765625 586.6672973632812 602.1410522460938 585.13623046875 599.9208984375 585.7903442382812 C 602.2380981445312 586.5601196289062 604.607421875 586.9878540039062 604.2277221679688 588.7098999023438 C 606.161376953125 587.1912231445312 608.00244140625 584.694580078125 607.626708984375 582.5802612304688 C 607.3367309570312 584.2849731445312 607.2132568359375 585.909912109375 598.1704711914062 588.195556640625" stroke-width="0.0" fill="rgb(253, 254, 254)" opacity="0.9972124"/>
    <path d="M 584.8419189453125 578.9307861328125 C 585.4140625 576.446044921875 587.7708129882812 576.9580688476562 586.770263671875 575.9703369140625 C 586.0216064453125 573.5950927734375 586.6998291015625 571.6998901367188 584.8872680664062 573.0411987304688 C 586.0704956054688 574.8259887695312 583.4993896484375 576.310302734375 585.8150634765625 577.1298828125 C 584.875 575.2032470703125 586.720703125 573.576171875 584.8419189453125 578.9307861328125" stroke-width="0.0" fill="rgb(254, 255, 255)" opacity="0.9940866"/>
    <path d="M 595.9518432617188 580.955810546875 C 594.4359130859375 583.1505737304688 591.9224243164062 584.9315795898438 591.693603515625 586.20947265625 C 592.4736328125 587.5501098632812 592.0223388671875 587.595703125 593.4547119140625 589.7274780273438 C 594.0763549804688 591.0302734375 594.3303833007812 591.5162353515625 592.4752197265625 589.3366088867188 C 592.1594848632812 588.1506958007812 592.523681640625 590.4183349609375 595.9518432617188 580.955810546875" stroke-width="0.0" fill="rgb(255, 255, 255)" opacity="0.9924292"/>
    <path d="M 46.847129821777344 571.800537109375 C 48.84831237792969 569.9270629882812 49.53582763671875 570.9202880859375 49.72624206542969 569.8816528320312 C 49.931236267089844 569.2997436523438 52.11724853515625 571.7640380859375 52.02342987060547 573.9761962890625 C 53.52928161621094 571.5848999023438 52.83903884887695 571.709228515625 53.61170959472656 569.4892578125 C 52.39418411254883 568.1226196289062 51.0805549621582 565.8906860351562 46.847129821777344 571.800537109375" stroke-width="0.0" fill="rgb(254, 254, 254)" opacity="0.992221"/>
    <path d="M 2.945028245449066e-05 561.0 C -1.8525103330612183 558.9833374023438 -2.5214030742645264 558.0576171875 -2.5156705379486084 555.9603881835938 C -0.4855310618877411 555.703125 -0.8033570051193237 554.9178466796875 -2.8439133167266846 556.3150634765625 C -3.6022610664367676 554.1787109375 -3.1284871101379395 556.6309204101562 -3.9094064235687256 555.3992309570312 C -3.1539103984832764 555.3777465820312 -1.2447465658187866 552.9630737304688 2.945028245449066e-05 561.0" stroke-width="0.0" fill="rgb(252, 253, 252)" opacity="1.0"/>
    <path d="M 349.1819152832031 577.9348754882812 C 347.53741455078125 580.4754638671875 349.983154296875 581.4907836914062 352.44036865234375 581.3280639648438 C 350.9779052734375 580.6048583984375 349.5339660644531 581.8192138671875 351.4794616699219 583.9864501953125 C 353.60052490234375 584.6683959960938 351.88629150390625 587.0704345703125 353.71820068359375 586.54833984375 C 353.9403381347656 587.5475463867188 352.8003845214844 587.8596801757812 349.1819152832031 577.9348754882812" stroke-width="0.0" fill="rgb(254, 254, 254)" opacity="0.992171"/>
    <path d="M 57.039581298828125 595.1026000976562 C 58.84316635131836 596.1727905273438 60.19065856933594 596.7236938476562 60.216670989990234 595.0918579101562 C 61.07548141479492 593.7835693359375 63.34651565551758 596.2186279296875 61.220176696777344 598.382080078125 C 60.593528747558594 597.8612670898438 61.30616760253906 595.6453247070312 59.14851379394531 598.0397338867188 C 61.830684661865234 600.2617797851562 63.215850830078125 602.3623657226562 57.039581298828125 595.1026000976562" stroke-width="0.0" fill="rgb(255, 254, 255)" opacity="0.99329334"/>
    <path d="M 50.11388397216797 587.8356323242188 C 47.96989822387695 588.7349853515625 47.04467010498047 587.0158081054688 44.63234329223633 587.209228515625 C 46.25813674926758 586.7081909179688 47.81145477294922 584.5826416015625 47.106632232666016 582.3657836914062 C 46.89597702026367 581.6936645507812 48.81361770629883 581.96142578125 48.83349609375 579.8678588867188 C 49.07804870605469 581.8741455078125 48.25279235839844 581.117431640625 50.11388397216797 587.8356323242188" stroke-width="0.0" fill="rgb(254, 254, 255)" opacity="0.99319476"/>
    <path d="M 338.8346862792969 595.8118896484375 C 336.8858947753906 598.0625610351562 336.10198974609375 595.8810424804688 333.75439453125 598.2198486328125 C 331.6669921875 596.5130615234375 332.01007080078125 595.868896484375 332.9136962890625 595.7794799804688 C 331.9006652832031 594.9615478515625 332.8766174316406 594.3762817382812 330.83026123046875 595.4796142578125 C 332.9774475097656 595.0225830078125 332.09576416015625 594.7965698242188 338.8346862792969 595.8118896484375" stroke-width="0.0" fill="rgb(254, 254, 254)" opacity="0.99212825"/>
    <path d="M 47.82946014404297 566.7415161132812 C 48.04513168334961 569.1914672851562 46.27176284790039 567.429931640625 44.99436950683594 569.56884765625 C 45.425296783447266 567.2437744140625 43.007362365722656 568.2359008789062 43.084381103515625 567.5811157226562 C 41.95488739013672 568.708251953125 39.8691520690918 567.440185546875 40.21742630004883 568.5385131835938 C 41.51987838745117 570.06298828125 43.332435607910156 571.87890625 47.82946014404297 566.7415161132812" stroke-width="0.0" fill="rgb(253, 253, 253)" opacity="0.9929921"/>
    <path d="M 45.068809509277344 585.757568359375 C 46.996360778808594 587.0199584960938 48.82522964477539 587.5369873046875 47.54658889770508 589.2952880859375 C 49.02973556518555 588.2841186523438 47.182796478271484 589.16455078125 46.45525360107422 589.8224487304688 C 47.23161697387695 591.3269653320312 45.74419403076172 592.2470092773438 48.11129379272461 593.484130859375 C 48.901611328125 595.982177734375 47.31062698364258 595.2152709960938 45.068809509277344 585.757568359375" stroke-width="0.0" fill="rgb(254, 254, 254)" opacity="0.993497"/>
    <path d="M 268.0858154296875 584.9158935546875 C 269.119873046875 587.23388671875 271.2799072265625 588.9008178710938 269.341064453125 587.0621337890625 C 267.2791442871094 588.716796875 267.46240234375 589.4454345703125 265.6226501464844 590.3086547851562 C 265.383544921875 588.2749633789062 264.86053466796875 586.738525390625 264.2215576171875 587.5894165039062 C 266.3538818359375 585.52099609375 266.57611083984375 584.3455200195312 268.0858154296875 584.9158935546875" stroke-width="0.0" fill="rgb(254, 254, 254)" opacity="0.99267644"/>
    <path d="M 22.295625686645508 570.1243286132812 C 22.9995059967041 570.7709350585938 21.47616195678711 573.1118774414062 22.288375854492188 574.7198486328125 C 21.13488006591797 574.7351684570312 22.28297233581543 575.8106079101562 20.405040740966797 573.93798828125 C 20.271574020385742 573.6959228515625 18.89247703552246 575.4114379882812 21.109371185302734 575.5723876953125 C 20.528913497924805 575.8495483398438 18.70514678955078 578.431640625 22.295625686645508 570.1243286132812" stroke-width="0.0" fill="rgb(254, 254, 254)" opacity="0.99270266"/>
    <path d="M 64.76387786865234 593.6190795898438 C 64.75194549560547 594.0406494140625 67.13288879394531 592.426025390625 67.95822143554688 592.9799194335938 C 68.57010650634766 591.5631713867188 70.44120025634766 593.5114135742188 69.3012924194336 592.8070068359375 C 68.72613525390625 590.9481811523438 70.43667602539062 591.485107421875 69.61534881591797 591.8515625 C 70.11231231689453 589.40185546875 71.91275787353516 591.1797485351562 64.76387786865234 593.6190795898438" stroke-width="0.0" fill="rgb(253, 253, 254)" opacity="0.99562484"/>
    <path d="M 2.034714460372925 296.6977233886719 C 2.292447566986084 296.6471252441406 2.9594404697418213 296.8084411621094 2.3936479091644287 297.40020751953125 C 0.5064653754234314 296.5456237792969 2.0152392387390137 297.9878234863281 1.5756863355636597 297.65045166015625 C -0.2576652765274048 295.25006103515625 -2.581453323364258 297.0255432128906 -3.5718894004821777 295.5888671875 C -5.157885551452637 296.302734375 -7.180734634399414 296.0575256347656 2.034714460372925 296.6977233886719" stroke-width="0.0" fill="rgb(254, 254, 253)" opacity="0.99726224"/>
    <path d="M 35.84291076660156 266.9617614746094 C 34.14274978637695 267.62835693359375 35.34914016723633 268.30279541015625 34.75126266479492 266.597412109375 C 35.997100830078125 268.0210876464844 33.920188903808594 269.7813415527344 35.64396667480469 269.8616027832031 C 34.781761169433594 271.11944580078125 32.53892517089844 272.501708984375 34.719322204589844 274.3925476074219 C 34.08821105957031 275.12237548828125 34.592742919921875 275.20477294921875 35.84291076660156 266.9617614746094" stroke-width="0.0" fill="rgb(254, 254, 254)" opacity="0.9927513"/>
    <path d="M 330.17535400390625 586.916748046875 C 331.8626403808594 587.8021240234375 333.8415832519531 587.2852783203125 335.5206298828125 588.8358154296875 C 333.3677062988281 590.2296142578125 331.65203857421875 589.3743896484375 332.1787109375 590.9854125976562 C 331.9021301269531 592.5613403320312 332.2239074707031 591.1734619140625 330.74444580078125 590.7528076171875 C 332.51055908203125 592.6531372070312 331.2423400878906 593.2481689453125 330.17535400390625 586.916748046875" stroke-width="0.0" fill="rgb(254, 254, 254)" opacity="0.9926222"/>
    <path d="M 2.1795053482055664 591.7498779296875 C 3.404911994934082 592.9828491210938 1.7318623065948486 590.8065795898438 1.1531075239181519 591.1226806640625 C -0.13033795356750488 590.2553100585938 1.4693577289581299 589.7852172851562 -0.17679154872894287 587.60693359375 C -2.1746068000793457 585.5750122070312 -1.595375418663025 587.4229125976562 0.7258368730545044 589.7137451171875 C -0.8298648595809937 587.7239379882812 -2.325751781463623 585.514404296875 2.1795053482055664 591.7498779296875" stroke-width="0.0" fill="rgb(254, 254, 254)" opacity="0.9943522"/>
    <path d="M 577.9703369140625 597.0253295898438 C 579.4391479492188 595.40478515625 578.44384765625 597.7984619140625 578.8196411132812 597.1603393554688 C 578.214111328125 596.6231079101562 578.8212280273438 595.5086669921875 580.6046142578125 593.7089233398438 C 581.647216796875 593.9957275390625 581.7653198242188 595.953369140625 580.36767578125 594.536865234375 C 582.4193725585938 595.7254638671875 580.8495483398438 597.9158935546875 577.9703369140625 597.0253295898438" stroke-width="0.0" fill="rgb(253, 254, 254)" opacity="0.9940669"/>
    <path d="M 323.6935119628906 588.1267700195312 C 321.9268798828125 585.7703857421875 320.53997802734375 585.1796264648438 318.78094482421875 587.4473266601562 C 319.22161865234375 587.9243774414062 318.1170959472656 585.8474731445312 318.95501708984375 585.4934692382812 C 318.5038757324219 585.1416625976562 320.6184997558594 584.047607421875 318.7868347167969 582.001953125 C 319.4187316894531 583.2265014648438 320.34051513671875 582.9521484375 323.6935119628906 588.1267700195312" stroke-width="0.0" fill="rgb(254, 254, 254)" opacity="0.99298483"/>
    <path d="M 581.9947509765625 582.9954833984375 C 581.5689086914062 582.7601318359375 581.563720703125 584.2037353515625 582.47607421875 583.8955078125 C 581.6456909179688 583.123046875 582.7288818359375 582.4459838867188 582.4702758789062 581.4310913085938 C 584.532958984375 581.830322265625 583.7581176757812 583.4010009765625 584.5367431640625 583.759765625 C 582.302001953125 584.363037109375 582.2716064453125 582.746826171875 581.9947509765625 582.9954833984375" stroke-width="0.0" fill="rgb(254, 254, 254)" opacity="0.99480635"/>
    <path d="M 33.86133575439453 589.2727661132812 C 36.37526321411133 587.1063232421875 38.653953552246094 587.8378295898438 38.246192932128906 588.1414184570312 C 36.33897018432617 587.2118530273438 35.50621032714844 586.4859619140625 35.94694900512695 586.6043090820312 C 33.995059967041016 585.9894409179688 34.84169387817383 587.2003173828125 35.49944305419922 586.3108520507812 C 34.64969253540039 584.5297241210938 34.185081481933594 582.7498168945312 33.86133575439453 589.2727661132812" stroke-width="0.0" fill="rgb(253, 253, 254)" opacity="0.99758536"/>
    <path d="M 550.8451538085938 562.7190551757812 C 549.7526245117188 564.761474609375 548.2976684570312 563.2634887695312 549.3309326171875 564.1279296875 C 546.87255859375 566.185302734375 545.8749389648438 564.4710693359375 545.1920776367188 566.3665161132812 C 544.51123046875 565.527099609375 542.6376342773438 565.7913818359375 540.1156005859375 566.6552734375 C 541.999755859375 567.3052978515625 543.947998046875 566.6526489257812 550.8451538085938 562.7190551757812" stroke-width="0.0" fill="rgb(254, 253, 254)" opacity="0.9934502"/>
    <path d="M 342.79931640625 570.84521484375 C 344.7677307128906 570.30322265625 346.4829406738281 568.321533203125 346.6330261230469 568.8727416992188 C 345.3577575683594 567.2109985351562 343.6786193847656 566.5103759765625 345.4338073730469 568.7592163085938 C 344.24603271484375 571.3004760742188 343.1221618652344 569.8981323242188 345.5817565917969 568.1885986328125 C 343.8008117675781 567.3369750976562 343.5914611816406 569.16796875 342.79931640625 570.84521484375" stroke-width="0.0" fill="rgb(254, 254, 254)" opacity="0.99344754"/>
    <path d="M 34.69462966918945 324.4994812011719 C 34.36819076538086 326.4209899902344 34.74427032470703 326.8612976074219 32.762245178222656 325.72882080078125 C 34.572349548339844 324.7019348144531 34.50764846801758 323.2730712890625 32.64295959472656 323.98773193359375 C 30.74068832397461 322.5199279785156 30.820396423339844 323.72296142578125 32.50626754760742 322.12164306640625 C 30.276174545288086 319.8784484863281 30.314754486083984 320.0828552246094 34.69462966918945 324.4994812011719" stroke-width="0.0" fill="rgb(254, 254, 255)" opacity="0.9932255"/>
    <path d="M 256.6546936035156 586.8515014648438 C 254.62106323242188 589.0687866210938 255.015380859375 589.2515258789062 252.84408569335938 588.9287719726562 C 250.9759979248047 588.14892578125 251.0526580810547 586.4235229492188 250.74142456054688 585.6051635742188 C 250.62245178222656 584.4773559570312 249.64419555664062 583.5599975585938 251.7997589111328 582.0416870117188 C 251.60389709472656 584.3326416015625 252.4993896484375 583.9189453125 256.6546936035156 586.8515014648438" stroke-width="0.0" fill="rgb(254, 254, 254)" opacity="0.9921672"/>
    <path d="M 42.85085678100586 564.4255981445312 C 44.9071044921875 562.2455444335938 43.22764205932617 562.072021484375 43.337154388427734 564.07568359375 C 41.90873336791992 563.8253173828125 40.72897720336914 564.383544921875 39.83893585205078 564.7185668945312 C 38.125431060791016 563.9633178710938 35.80259704589844 564.5991821289062 37.82358169555664 566.2630004882812 C 36.68461608886719 564.39892578125 34.71895980834961 562.5887451171875 42.85085678100586 564.4255981445312" stroke-width="0.0" fill="rgb(254, 254, 254)" opacity="0.99298"/>
    <path d="M 234.31314086914062 588.3048095703125 C 236.22096252441406 585.9050903320312 237.1715545654297 585.1229858398438 236.9725341796875 587.2034912109375 C 235.58213806152344 586.8809204101562 235.6205291748047 584.74658203125 238.1442108154297 583.9255981445312 C 239.26002502441406 583.5074462890625 240.02894592285156 584.447265625 240.2347412109375 586.505126953125 C 238.50527954101562 588.9407958984375 236.1217498779297 587.4927978515625 234.31314086914062 588.3048095703125" stroke-width="0.0" fill="rgb(254, 254, 255)" opacity="0.9929304"/>
    <path d="M 8.068840980529785 536.847900390625 C 8.123802185058594 537.25048828125 10.018438339233398 538.3120727539062 8.6845064163208 537.0430908203125 C 8.615668296813965 538.3414916992188 7.581785202026367 538.8034057617188 7.263768196105957 538.921630859375 C 7.20977783203125 537.44873046875 8.291457176208496 539.4979248046875 10.445089340209961 537.475341796875 C 12.121580123901367 535.286865234375 12.830643653869629 537.3606567382812 8.068840980529785 536.847900390625" stroke-width="0.0" fill="rgb(254, 253, 254)" opacity="0.9938469"/>
    <path d="M 270.0072021484375 599.0054931640625 C 270.21649169921875 600.022216796875 268.6322326660156 599.13818359375 266.8272399902344 597.1112670898438 C 268.3764343261719 598.3563842773438 268.5192565917969 598.2909545898438 266.1114501953125 596.9608154296875 C 267.2798156738281 597.1126098632812 266.8415222167969 597.4660034179688 268.11358642578125 595.6082763671875 C 270.1529846191406 597.0352783203125 267.64837646484375 598.0513305664062 270.0072021484375 599.0054931640625" stroke-width="0.0" fill="rgb(255, 255, 255)" opacity="0.99382323"/>
    <path d="M 591.197021484375 577.70703125 C 589.5214233398438 577.427734375 588.3369750976562 575.9376831054688 588.5696411132812 577.767578125 C 588.5834350585938 579.6571044921875 587.6103515625 579.2892456054688 588.5189208984375 577.7544555664062 C 589.3599853515625 576.3643188476562 590.780029296875 576.7182006835938 591.0286254882812 579.3087768554688 C 592.7235107421875 580.9064331054688 594.75927734375 580.3757934570312 591.197021484375 577.70703125" stroke-width="0.0" fill="rgb(254, 254, 254)" opacity="0.9934375"/>
    <path d="M 541.8424072265625 594.0681762695312 C 541.8715209960938 595.8953857421875 541.5375366210938 598.135498046875 540.779052734375 600.2119750976562 C 542.3766479492188 600.0689086914062 540.4509887695312 601.9390258789062 542.5977783203125 602.2916259765625 C 543.6137084960938 602.7401123046875 542.01416015625 603.2955932617188 544.2943725585938 605.2890014648438 C 542.4686889648438 604.1185302734375 542.958251953125 602.4330444335938 541.8424072265625 594.0681762695312" stroke-width="0.0" fill="rgb(254, 254, 254)" opacity="0.99265367"/>
    <path d="M 561.8832397460938 584.974365234375 C 559.9231567382812 587.0076904296875 562.4923706054688 586.943115234375 561.9988403320312 588.3378295898438 C 563.8881225585938 586.2741088867188 562.9391479492188 585.769287109375 562.0349731445312 584.2247924804688 C 563.180908203125 585.0160522460938 564.7512817382812 583.305908203125 565.5689086914062 583.3033447265625 C 566.619384765625 584.3079833984375 565.2291259765625 582.1782836914062 561.8832397460938 584.974365234375" stroke-width="0.0" fill="rgb(253, 253, 253)" opacity="0.99483603"/>
    <path d="M 22.121116638183594 327.8994445800781 C 23.86006736755371 326.0316162109375 23.278507232666016 327.5548400878906 25.410385131835938 327.3183898925781 C 23.132667541503906 324.97064208984375 23.89767837524414 323.4805908203125 25.623817443847656 324.13433837890625 C 23.595203399658203 323.67535400390625 21.18040657043457 321.9764404296875 20.80451202392578 320.796875 C 23.07381820678711 321.1557922363281 24.03154182434082 320.9316101074219 22.121116638183594 327.8994445800781" stroke-width="0.0" fill="rgb(254, 254, 254)" opacity="0.9921672"/>
    <path d="M 26.974454879760742 538.2611083984375 C 24.632631301879883 538.3238525390625 22.470577239990234 537.7403564453125 20.791614532470703 536.6185302734375 C 21.83017349243164 535.2093505859375 22.065229415893555 535.2052001953125 20.990081787109375 537.1318359375 C 22.356521606445312 539.6351318359375 23.17243766784668 538.1375122070312 21.09636878967285 539.2290649414062 C 18.8720645904541 538.4105224609375 19.43973159790039 537.4425048828125 26.974454879760742 538.2611083984375" stroke-width="0.0" fill="rgb(254, 254, 254)" opacity="0.992775"/>
    <path d="M 63.2550163269043 576.0643310546875 C 61.235748291015625 577.8858032226562 60.91415023803711 578.146728515625 60.68206787109375 579.9807739257812 C 60.70512008666992 579.4397583007812 63.02177429199219 581.8165893554688 62.52433395385742 580.0587768554688 C 62.675838470458984 579.7745971679688 61.75737762451172 581.49072265625 62.569889068603516 579.86767578125 C 60.727596282958984 578.901123046875 63.15227127075195 580.561279296875 63.2550163269043 576.0643310546875" stroke-width="0.0" fill="rgb(253, 253, 253)" opacity="0.9927472"/>
    <path d="M 17.987140655517578 282.3623046875 C 20.194181442260742 280.44488525390625 21.163236618041992 279.1426086425781 19.194608688354492 278.109619140625 C 17.458114624023438 279.4670715332031 18.75759506225586 280.9298095703125 19.186203002929688 283.0896911621094 C 21.590206146240234 283.6304016113281 22.6380672454834 283.2791748046875 20.96503448486328 285.77496337890625 C 22.053409576416016 284.3772277832031 20.98700714111328 286.7693786621094 17.987140655517578 282.3623046875" stroke-width="0.0" fill="rgb(254, 254, 254)" opacity="0.9924135"/>
    <path d="M 11.149524688720703 279.8415832519531 C 11.83134651184082 281.3601379394531 12.150605201721191 279.72711181640625 9.862635612487793 280.61907958984375 C 11.307766914367676 281.2991638183594 9.041754722595215 279.7553405761719 8.320027351379395 280.05780029296875 C 6.027412414550781 277.5675964355469 5.89828634262085 276.6620788574219 6.466987133026123 274.466064453125 C 7.293076992034912 276.2720031738281 6.547602653503418 274.4517517089844 11.149524688720703 279.8415832519531" stroke-width="0.0" fill="rgb(254, 254, 254)" opacity="0.9925612"/>
    <path d="M 244.9740447998047 594.9957275390625 C 246.2687225341797 594.2919921875 245.99041748046875 592.1918334960938 246.28346252441406 590.5975952148438 C 246.76783752441406 593.0183715820312 248.32383728027344 591.443359375 245.84922790527344 591.8629760742188 C 244.56268310546875 590.2552490234375 246.589599609375 591.5779418945312 244.55784606933594 593.3449096679688 C 245.74932861328125 595.4738159179688 246.16632080078125 593.7073974609375 244.9740447998047 594.9957275390625" stroke-width="0.0" fill="rgb(253, 253, 253)" opacity="0.99444866"/>
    <path d="M 15.211734771728516 294.9273681640625 C 14.335988998413086 292.8437805175781 12.721896171569824 291.69927978515625 14.047907829284668 289.2635192871094 C 13.830859184265137 291.06573486328125 12.398430824279785 291.940185546875 11.845145225524902 289.5296936035156 C 10.630542755126953 291.4284973144531 13.00394058227539 290.858154296875 12.654060363769531 290.12567138671875 C 14.76539421081543 288.7044677734375 15.078866958618164 290.42510986328125 15.211734771728516 294.9273681640625" stroke-width="0.0" fill="rgb(254, 254, 254)" opacity="0.99310464"/>
    <path d="M 27.076908111572266 278.05059814453125 C 29.04979133605957 277.1131286621094 30.54010009765625 275.4800720214844 28.818435668945312 277.3897399902344 C 26.909191131591797 275.0791931152344 28.683958053588867 274.6405944824219 29.723167419433594 275.0242919921875 C 27.655736923217773 274.16912841796875 25.949268341064453 273.91400146484375 28.28193473815918 274.3372802734375 C 28.567764282226562 273.5099182128906 30.806039810180664 275.48956298828125 27.076908111572266 278.05059814453125" stroke-width="0.0" fill="rgb(254, 254, 254)" opacity="0.9930318"/>
    <path d="M 330.0772399902344 588.0546875 C 328.62603759765625 586.5764770507812 330.9386291503906 587.5049438476562 331.0711669921875 589.4041748046875 C 329.82965087890625 587.88134765625 330.9406433105469 586.3276977539062 333.06298828125 584.4308471679688 C 333.0174255371094 585.4470825195312 331.09649658203125 585.3003540039062 331.5419921875 583.8344116210938 C 333.96099853515625 583.281982421875 333.45635986328125 580.8197631835938 330.0772399902344 588.0546875" stroke-width="0.0" fill="rgb(253, 253, 253)" opacity="0.9947959"/>
    <path d="M 296.2069091796875 575.8621215820312 C 295.78460693359375 574.2637329101562 294.13006591796875 575.6998901367188 295.45294189453125 574.4312133789062 C 296.4515075683594 573.3811645507812 296.6990661621094 574.7356567382812 296.4338684082031 574.3643188476562 C 296.81634521484375 574.3515014648438 296.62347412109375 574.109375 296.1636657714844 574.0093994140625 C 297.39788818359375 572.4795532226562 297.8562316894531 571.1425170898438 296.2069091796875 575.8621215820312" stroke-width="0.0" fill="rgb(253, 253, 253)" opacity="0.99758166"/>
    <path d="M 595.9686279296875 575.9760131835938 C 597.5339965820312 577.4840698242188 596.9349365234375 575.9638061523438 598.541259765625 574.8151245117188 C 600.3202514648438 574.744873046875 599.7569580078125 575.7138061523438 598.0587768554688 577.81494140625 C 598.4041137695312 578.0652465820312 597.3162231445312 575.7683715820312 598.34521484375 577.5909423828125 C 599.4649658203125 579.4190063476562 598.020751953125 578.09912109375 595.9686279296875 575.9760131835938" stroke-width="0.0" fill="rgb(255, 255, 255)" opacity="0.99317944"/>
    <path d="M 39.87931442260742 280.2209777832031 C 37.89750671386719 279.25482177734375 38.50703811645508 280.58050537109375 40.626190185546875 280.6523742675781 C 38.221351623535156 279.86175537109375 39.41004943847656 280.0890808105469 40.10157775878906 279.6198425292969 C 37.962825775146484 281.07733154296875 37.857505798339844 282.9105529785156 39.17230987548828 282.18719482421875 C 41.255882263183594 282.1130065917969 39.7707405090332 280.73419189453125 39.87931442260742 280.2209777832031" stroke-width="0.0" fill="rgb(253, 253, 253)" opacity="0.99485505"/>
    <path d="M 19.298145294189453 271.1999206542969 C 17.91928482055664 268.6507873535156 16.44956398010254 266.6242370605469 18.30733871459961 267.2943115234375 C 18.04559326171875 268.96502685546875 17.315889358520508 268.2105712890625 16.917470932006836 268.7087707519531 C 17.39869499206543 268.40447998046875 18.400806427001953 269.08563232421875 18.205636978149414 269.9515380859375 C 16.213607788085938 268.83709716796875 13.911246299743652 270.2435607910156 19.298145294189453 271.1999206542969" stroke-width="0.0" fill="rgb(254, 254, 254)" opacity="0.99335337"/>
    <path d="M 27.922794342041016 535.0733642578125 C 26.508886337280273 535.4655151367188 25.985021591186523 535.008544921875 27.609848022460938 533.8189086914062 C 26.07451820373535 533.6649780273438 23.98699951171875 531.5963745117188 23.618227005004883 529.8583374023438 C 22.029685974121094 531.906005859375 20.623802185058594 531.1416625976562 21.084369659423828 530.62109375 C 19.84288787841797 528.5228271484375 20.61867904663086 526.7857666015625 27.922794342041016 535.0733642578125" stroke-width="0.0" fill="rgb(255, 255, 255)" opacity="0.9927937"/>
    <path d="M 288.706298828125 597.438232421875 C 290.62762451171875 599.21826171875 290.7288513183594 600.2215576171875 293.1145324707031 600.103271484375 C 292.2505798339844 597.94970703125 292.1318664550781 599.474609375 294.41497802734375 601.9695434570312 C 294.6066589355469 599.611328125 292.405517578125 598.0391845703125 292.307373046875 597.3458251953125 C 291.8528747558594 596.1817016601562 293.56494140625 596.007568359375 288.706298828125 597.438232421875" stroke-width="0.0" fill="rgb(254, 254, 254)" opacity="0.99452907"/>
    <path d="M 42.0998649597168 318.9595642089844 C 41.102012634277344 319.7828674316406 40.07359313964844 318.249755859375 41.98556900024414 316.5603942871094 C 41.30108642578125 316.6497497558594 41.7161865234375 318.35540771484375 39.274208068847656 319.9436950683594 C 40.35248565673828 319.00787353515625 38.375267028808594 319.18878173828125 40.54697036743164 319.93731689453125 C 40.171470642089844 320.5690612792969 41.973243713378906 319.8912658691406 42.0998649597168 318.9595642089844" stroke-width="0.0" fill="rgb(253, 253, 254)" opacity="0.99633944"/>
  </g>
</svg>
