<?xml version="1.0" ?>
<svg xmlns="http://www.w3.org/2000/svg" version="1.1" width="600" height="600">
  <defs/>
  <g>
    <path d="M 329.86126708984375 483.163818359375 C 327.9198913574219 484.4468994140625 325.6166687011719 483.73486328125 325.2995910644531 484.44940185546875 C 325.6811828613281 484.22796630859375 324.5487060546875 483.95928955078125 322.67584228515625 482.6671447753906 C 323.0119934082031 483.1081237792969 321.1029357910156 483.3101806640625 323.292236328125 482.77655029296875 C 323.71240234375 483.42596435546875 325.2900695800781 485.1803283691406 329.86126708984375 483.163818359375" stroke-width="0.0" fill="rgb(255, 255, 255)" opacity="0.8020038"/>
    <path d="M 517.2962036132812 348.693115234375 C 517.6466674804688 347.4782409667969 517.9117431640625 347.2490234375 519.097412109375 344.3013000488281 C 521.01171875 343.8131408691406 522.332275390625 344.3962707519531 521.709716796875 344.1217041015625 C 523.045166015625 341.4716796875 525.6676025390625 342.1105041503906 522.8989868164062 340.6681213378906 C 523.3847045898438 339.6285400390625 521.598388671875 338.0065002441406 517.2962036132812 348.693115234375" stroke-width="0.0" fill="rgb(255, 255, 255)" opacity="0.65300024"/>
    <path d="M 446.6208801269531 198.1527862548828 C 455.2607421875 185.6719207763672 477.41961669921875 211.0552215576172 491.3122253417969 197.59503173828125 C 449.74139404296875 193.44676208496094 446.8879089355469 190.6737060546875 455.42205810546875 188.68661499023438 C 486.8304748535156 188.4652099609375 484.45794677734375 185.64190673828125 480.37554931640625 197.81588745117188 C 491.1645812988281 210.22048950195312 481.28955078125 208.1841583251953 446.6208801269531 198.1527862548828" stroke-width="0.0" fill="rgb(33, 34, 33)" opacity="0.99329436"/>
    <path d="M 424.4330139160156 581.1806030273438 C 422.7755126953125 582.4313354492188 422.2226257324219 582.273193359375 423.5606689453125 581.7780151367188 C 421.63555908203125 582.700439453125 423.83551025390625 581.6348876953125 424.5263366699219 581.2685546875 C 422.5838623046875 578.7966918945312 424.73370361328125 577.1576538085938 426.36334228515625 578.3466186523438 C 424.750244140625 577.8718872070312 427.8521728515625 581.0685424804688 424.4330139160156 581.1806030273438" stroke-width="0.0" fill="rgb(255, 255, 255)" opacity="0.742995"/>
    <path d="M 409.5625915527344 557.9171752929688 C 407.8395690917969 555.7033081054688 408.49072265625 554.8285522460938 407.6484375 557.1160888671875 C 409.35369873046875 555.6276245117188 410.5136413574219 553.7529907226562 411.08392333984375 553.1213989257812 C 411.7073669433594 549.2991943359375 412.59112548828125 550.4592895507812 411.77667236328125 550.3703002929688 C 412.35552978515625 550.0028686523438 411.3641662597656 550.9318237304688 409.5625915527344 557.9171752929688" stroke-width="0.0" fill="rgb(255, 255, 255)" opacity="0.6631439"/>
    <path d="M 590.7952880859375 150.3358154296875 C 592.6511840820312 148.49151611328125 593.064208984375 147.70794677734375 591.6878051757812 147.41390991210938 C 592.7916870117188 146.71157836914062 591.1111450195312 147.64059448242188 589.8341674804688 146.6046142578125 C 589.5505981445312 143.32713317871094 592.5512084960938 143.33169555664062 593.2142944335938 144.8986358642578 C 593.7932739257812 145.37603759765625 595.8926391601562 144.48484802246094 590.7952880859375 150.3358154296875" stroke-width="0.0" fill="rgb(255, 255, 255)" opacity="0.67793065"/>
    <path d="M 156.79083251953125 564.66552734375 C 156.6061248779297 563.8749389648438 156.5730743408203 565.8771362304688 159.260986328125 568.0255126953125 C 160.1154022216797 569.9940185546875 157.6951446533203 571.0546875 159.74134826660156 572.3548583984375 C 159.34083557128906 575.2430419921875 157.72496032714844 574.17236328125 158.89950561523438 574.1922607421875 C 158.9548797607422 574.6585083007812 161.35501098632812 572.6343383789062 156.79083251953125 564.66552734375" stroke-width="0.0" fill="rgb(255, 255, 255)" opacity="0.6550491"/>
    <path d="M 126.44125366210938 585.068603515625 C 126.2761001586914 586.5761108398438 126.9939956665039 587.6364135742188 125.71720123291016 588.6297607421875 C 126.06230926513672 588.5370483398438 124.59037780761719 588.7785034179688 125.82807159423828 588.5493774414062 C 125.58364868164062 590.4887084960938 125.22142028808594 588.6092529296875 126.74867248535156 587.66650390625 C 126.04997253417969 587.7847900390625 126.60543060302734 588.9224853515625 126.44125366210938 585.068603515625" stroke-width="0.0" fill="rgb(255, 255, 255)" opacity="0.82472855"/>
    <path d="M 169.95555114746094 401.5543518066406 C 166.4952850341797 326.9002990722656 161.35458374023438 328.5384826660156 94.959228515625 323.29547119140625 C 93.28339385986328 347.3949279785156 97.03267669677734 352.9266052246094 101.6941146850586 373.9305114746094 C 114.2216567993164 369.26531982421875 107.87660217285156 355.76922607421875 106.4798812866211 402.66998291015625 C 133.2107391357422 407.6786193847656 157.50283813476562 407.9888916015625 169.95555114746094 401.5543518066406" stroke-width="0.0" fill="rgb(40, 40, 40)" opacity="0.9311734"/>
    <path d="M 375.1784973144531 356.8381042480469 C 366.3906555175781 335.61273193359375 367.0689697265625 333.2532043457031 382.2413635253906 338.4617614746094 C 371.139892578125 350.1310729980469 366.9710998535156 356.793212890625 379.4986572265625 368.7611083984375 C 376.1803894042969 353.714599609375 367.139892578125 350.4153747558594 378.296630859375 344.3443603515625 C 386.5849914550781 366.2674255371094 380.042236328125 371.15484619140625 375.1784973144531 356.8381042480469" stroke-width="0.0" fill="rgb(129, 128, 129)" opacity="1.0"/>
    <path d="M 326.48126220703125 534.7755126953125 C 327.4132995605469 535.78076171875 328.263427734375 536.417236328125 328.597412109375 537.2669067382812 C 330.96826171875 536.059326171875 329.90802001953125 538.0985717773438 328.8420715332031 539.4990234375 C 329.60302734375 538.5590209960938 328.559814453125 539.8823852539062 328.73779296875 539.7864379882812 C 329.57769775390625 538.0132446289062 330.8882141113281 539.5723266601562 326.48126220703125 534.7755126953125" stroke-width="0.0" fill="rgb(255, 255, 255)" opacity="0.79455835"/>
    <path d="M 108.96025848388672 273.4469299316406 C 102.7928695678711 272.8031311035156 97.62596893310547 267.52471923828125 105.0572509765625 264.53570556640625 C 114.08785247802734 261.437255859375 115.96158599853516 258.8619079589844 120.98271179199219 257.3283996582031 C 120.82189178466797 261.9288635253906 115.24498748779297 257.18988037109375 138.35244750976562 249.52906799316406 C 135.60194396972656 259.70947265625 120.85132598876953 254.5102996826172 108.96025848388672 273.4469299316406" stroke-width="0.0" fill="rgb(123, 124, 123)" opacity="1.0"/>
    <path d="M 132.7670440673828 329.3455505371094 C 142.51988220214844 335.2453308105469 133.40377807617188 321.1923828125 149.391845703125 291.0972900390625 C 169.64218139648438 305.8409729003906 159.83160400390625 318.5669250488281 144.79820251464844 318.17730712890625 C 152.83726501464844 316.5502014160156 144.04539489746094 321.855712890625 156.7356719970703 339.45751953125 C 165.51734924316406 315.81500244140625 160.105712890625 319.173095703125 132.7670440673828 329.3455505371094" stroke-width="0.0" fill="rgb(150, 151, 150)" opacity="1.0"/>
    <path d="M 357.45977783203125 550.8692016601562 C 354.8458557128906 550.7920532226562 356.1588134765625 551.0528564453125 352.93536376953125 550.9697265625 C 353.0116271972656 549.9617919921875 352.6791687011719 549.9501342773438 353.3676452636719 548.0115356445312 C 352.5554504394531 549.6082763671875 353.2469177246094 552.0093383789062 352.91778564453125 554.7584228515625 C 353.36151123046875 555.0477294921875 351.86199951171875 556.7655639648438 357.45977783203125 550.8692016601562" stroke-width="0.0" fill="rgb(255, 255, 255)" opacity="0.70588356"/>
    <path d="M 342.4504699707031 392.89892578125 C 384.2082824707031 386.8270568847656 377.463623046875 367.5628967285156 364.0039978027344 338.9468078613281 C 344.4647521972656 378.82208251953125 341.9178161621094 386.909423828125 340.5214538574219 345.0567932128906 C 336.8562316894531 321.20440673828125 340.65252685546875 324.1836242675781 361.4863586425781 321.6545715332031 C 371.7021179199219 332.8855895996094 356.7123107910156 338.3212890625 342.4504699707031 392.89892578125" stroke-width="0.0" fill="rgb(53, 52, 52)" opacity="0.9972527"/>
    <path d="M 227.83563232421875 369.3282165527344 C 265.4580993652344 342.82781982421875 265.8372497558594 349.8227233886719 268.6876525878906 378.9664611816406 C 239.96290588378906 384.7406921386719 229.34083557128906 380.4939270019531 242.55099487304688 397.9118957519531 C 255.38746643066406 377.5432434082031 252.73509216308594 378.73455810546875 242.248291015625 386.56103515625 C 234.2888641357422 403.64996337890625 217.70277404785156 407.74676513671875 227.83563232421875 369.3282165527344" stroke-width="0.0" fill="rgb(45, 44, 44)" opacity="0.8891796"/>
    <path d="M 254.4998779296875 452.1272277832031 C 257.4090576171875 452.2777404785156 260.0639343261719 449.726806640625 261.7854919433594 451.5765686035156 C 263.07855224609375 452.58807373046875 261.9009704589844 452.4757080078125 260.91583251953125 450.2561950683594 C 261.943603515625 448.25347900390625 259.6804504394531 447.0201110839844 261.4567565917969 448.38800048828125 C 260.16046142578125 446.62152099609375 261.156005859375 444.9819641113281 254.4998779296875 452.1272277832031" stroke-width="0.0" fill="rgb(255, 255, 255)" opacity="0.64254516"/>
    <path d="M 38.74101638793945 20.063444137573242 C 39.406593322753906 8.537409782409668 38.45560836791992 4.380061149597168 39.190956115722656 -6.230810165405273 C 49.216583251953125 -3.911508798599243 53.00815963745117 -3.047743082046509 51.733463287353516 0.41384878754615784 C 51.64125061035156 0.40308162569999695 52.03407669067383 -4.0425615310668945 65.1303482055664 1.8679769039154053 C 53.65190887451172 6.858523845672607 40.918670654296875 4.687108993530273 38.74101638793945 20.063444137573242" stroke-width="0.0" fill="rgb(0, 0, 0)" opacity="1.0"/>
    <path d="M 279.054931640625 80.78760528564453 C 273.0391845703125 60.47871780395508 263.9659729003906 71.09949493408203 255.53965759277344 39.41775894165039 C 274.73583984375 65.6142578125 269.7801513671875 67.19367980957031 266.5352783203125 62.956809997558594 C 272.0028076171875 74.63648223876953 271.0151062011719 74.21696472167969 271.5060119628906 72.53671264648438 C 272.8226013183594 76.93242645263672 278.2086181640625 86.32414245605469 279.054931640625 80.78760528564453" stroke-width="0.0" fill="rgb(59, 57, 57)" opacity="1.0"/>
    <path d="M 265.17376708984375 572.0291748046875 C 264.5593566894531 572.59716796875 266.5592956542969 571.2857055664062 267.5716552734375 570.1197509765625 C 266.3721008300781 571.865966796875 265.79693603515625 570.8814697265625 265.2378845214844 570.6489868164062 C 263.94146728515625 571.4253540039062 264.3257751464844 570.2372436523438 263.6064453125 571.2879028320312 C 265.5291442871094 569.9849853515625 267.3117980957031 571.5092163085938 265.17376708984375 572.0291748046875" stroke-width="0.0" fill="rgb(255, 255, 255)" opacity="0.79600847"/>
    <path d="M 469.831787109375 343.0604553222656 C 470.8286437988281 344.56024169921875 471.6704406738281 347.5323791503906 458.3189697265625 325.8354797363281 C 451.8406677246094 312.3132629394531 437.8697204589844 314.7972106933594 453.0774230957031 335.3897705078125 C 468.9974670410156 363.7062072753906 479.489013671875 368.617431640625 487.89837646484375 360.8189697265625 C 470.60540771484375 351.2834777832031 473.61895751953125 351.3989562988281 469.831787109375 343.0604553222656" stroke-width="0.0" fill="rgb(17, 17, 16)" opacity="0.97086287"/>
    <path d="M 566.798095703125 313.312744140625 C 567.19970703125 313.4827880859375 568.8352661132812 313.99981689453125 567.739013671875 312.9040222167969 C 566.3983154296875 314.5173645019531 566.322265625 312.67022705078125 568.185302734375 313.4501647949219 C 570.1997680664062 314.317626953125 570.1259765625 313.52606201171875 571.5375366210938 313.8252258300781 C 569.55908203125 313.40374755859375 572.1928100585938 314.54736328125 566.798095703125 313.312744140625" stroke-width="0.0" fill="rgb(255, 255, 255)" opacity="0.77171916"/>
    <path d="M 320.6969909667969 458.14019775390625 C 321.9876403808594 455.9022521972656 323.9224853515625 454.8771057128906 326.1636047363281 457.1645202636719 C 325.16888427734375 456.22320556640625 327.0992431640625 458.0227355957031 325.37646484375 456.38629150390625 C 323.75909423828125 456.31707763671875 326.23687744140625 457.5267028808594 326.2307434082031 457.3450622558594 C 325.67022705078125 458.8599853515625 323.3246154785156 457.6470947265625 320.6969909667969 458.14019775390625" stroke-width="0.0" fill="rgb(255, 255, 255)" opacity="0.71428984"/>
    <path d="M 547.2486572265625 372.98944091796875 C 547.589599609375 374.094970703125 549.6232299804688 373.9788818359375 547.765869140625 374.23626708984375 C 549.380859375 374.2305908203125 551.8383178710938 372.7330017089844 552.896484375 376.0802001953125 C 553.55810546875 375.6204833984375 552.6678466796875 374.7347412109375 552.9418334960938 375.2665710449219 C 551.4813232421875 377.1559143066406 550.8497924804688 378.94329833984375 547.2486572265625 372.98944091796875" stroke-width="0.0" fill="rgb(255, 255, 255)" opacity="0.68452317"/>
    <path d="M 155.24058532714844 273.6250305175781 C 157.13853454589844 277.54583740234375 167.56915283203125 266.5976257324219 170.46287536621094 267.4414367675781 C 173.1294708251953 269.4752502441406 174.7059783935547 269.0242004394531 169.15811157226562 272.3387145996094 C 168.02670288085938 273.1758117675781 168.6635284423828 267.0348205566406 179.3624725341797 261.44256591796875 C 185.583740234375 253.21286010742188 185.0791473388672 252.26719665527344 155.24058532714844 273.6250305175781" stroke-width="0.0" fill="rgb(111, 111, 115)" opacity="1.0"/>
    <path d="M 345.2570495605469 516.5479736328125 C 344.5211486816406 517.4873657226562 345.4863586425781 519.2752075195312 344.82904052734375 519.6759033203125 C 346.0446472167969 518.3394165039062 344.3924255371094 520.4498901367188 342.98028564453125 521.4744262695312 C 343.3934326171875 522.0750122070312 342.0434875488281 522.048828125 342.1302185058594 522.3583984375 C 342.83062744140625 521.8028564453125 339.6668701171875 521.1351318359375 345.2570495605469 516.5479736328125" stroke-width="0.0" fill="rgb(255, 255, 255)" opacity="0.6953933"/>
    <path d="M 484.9788513183594 244.7197265625 C 457.0364990234375 237.14443969726562 453.028564453125 231.58395385742188 443.0046081542969 230.2497100830078 C 447.3988952636719 230.75987243652344 446.43035888671875 231.55612182617188 439.2384948730469 227.25796508789062 C 444.46697998046875 229.46287536621094 439.4708557128906 235.60133361816406 441.6158447265625 216.7285614013672 C 449.79119873046875 229.73699951171875 480.6606750488281 231.47251892089844 484.9788513183594 244.7197265625" stroke-width="0.0" fill="rgb(17, 18, 17)" opacity="0.96012336"/>
    <path d="M 509.5089111328125 65.3807601928711 C 511.42236328125 67.68395233154297 506.8553161621094 65.568359375 483.98333740234375 74.50135803222656 C 492.8494567871094 77.71086120605469 504.8099670410156 70.00859832763672 521.6011962890625 69.59668731689453 C 515.7506103515625 67.73897552490234 519.1719970703125 76.67609405517578 541.0435791015625 67.62495422363281 C 517.120361328125 60.220088958740234 513.4528198242188 69.96631622314453 509.5089111328125 65.3807601928711" stroke-width="0.0" fill="rgb(107, 108, 106)" opacity="1.0"/>
    <path d="M 264.9316711425781 424.2875061035156 C 266.4552307128906 423.3019104003906 268.4716796875 424.0028991699219 265.9448547363281 423.7037048339844 C 266.4519958496094 422.7643127441406 264.5379943847656 420.65228271484375 265.1080627441406 418.3979187011719 C 263.2063903808594 417.1254577636719 264.3265075683594 419.0681457519531 263.8892517089844 419.8710021972656 C 266.0185546875 420.3576354980469 265.1207275390625 419.99041748046875 264.9316711425781 424.2875061035156" stroke-width="0.0" fill="rgb(255, 255, 255)" opacity="0.74170256"/>
    <path d="M 233.6410369873047 589.92138671875 C 230.02374267578125 592.154052734375 233.2675018310547 591.84521484375 235.2029571533203 593.72021484375 C 236.82582092285156 596.1214599609375 238.27774047851562 594.9976196289062 238.0886993408203 594.0565185546875 C 240.508056640625 593.7774658203125 242.2007598876953 591.6204223632812 240.34898376464844 592.3331298828125 C 242.08665466308594 592.2000122070312 241.60975646972656 589.5484008789062 233.6410369873047 589.92138671875" stroke-width="0.0" fill="rgb(255, 255, 255)" opacity="0.6407346"/>
    <path d="M 85.67646789550781 222.3947296142578 C 70.56827545166016 203.67465209960938 60.413753509521484 207.7974853515625 52.77722930908203 210.53562927246094 C 59.92735290527344 227.0151824951172 57.997676849365234 223.89315795898438 59.60530471801758 217.71116638183594 C 57.18443298339844 222.5251922607422 55.654239654541016 220.80604553222656 41.908077239990234 224.19960021972656 C 40.6448860168457 228.3273162841797 50.8145866394043 232.35646057128906 85.67646789550781 222.3947296142578" stroke-width="0.0" fill="rgb(120, 121, 122)" opacity="1.0"/>
    <path d="M 148.98037719726562 562.6497802734375 C 151.4097900390625 561.6348266601562 152.1249542236328 559.2796630859375 154.1795654296875 560.0597534179688 C 154.79978942871094 560.782958984375 155.72967529296875 558.5086059570312 154.3634490966797 556.8701171875 C 154.97311401367188 558.4574584960938 156.43116760253906 558.1571655273438 157.51455688476562 557.5999145507812 C 155.52882385253906 556.4310302734375 155.35472106933594 556.2068481445312 148.98037719726562 562.6497802734375" stroke-width="0.0" fill="rgb(255, 255, 255)" opacity="0.6452585"/>
    <path d="M 563.8973999023438 249.033447265625 C 538.416748046875 250.83201599121094 538.0931396484375 237.00514221191406 541.1573486328125 234.7757568359375 C 539.5936889648438 227.63438415527344 540.3489990234375 228.3924102783203 557.7471923828125 244.596923828125 C 564.8206176757812 221.678955078125 564.6887817382812 221.4587860107422 534.2923583984375 221.2380828857422 C 516.384521484375 220.3887176513672 528.3980102539062 224.8647918701172 563.8973999023438 249.033447265625" stroke-width="0.0" fill="rgb(98, 100, 101)" opacity="0.9496704"/>
    <path d="M 506.7330322265625 362.6236877441406 C 475.761474609375 390.08917236328125 489.85040283203125 409.3614501953125 453.5129699707031 410.3569641113281 C 451.34033203125 372.4012451171875 450.3290710449219 355.3072814941406 456.367431640625 358.77484130859375 C 486.09149169921875 374.2161560058594 493.8789978027344 381.88177490234375 468.30828857421875 332.78338623046875 C 507.2087707519531 335.44970703125 517.5258178710938 346.7354431152344 506.7330322265625 362.6236877441406" stroke-width="0.0" fill="rgb(15, 15, 15)" opacity="0.9800443"/>
    <path d="M 428.0639953613281 542.9982299804688 C 427.0287780761719 543.9330444335938 427.66925048828125 544.6421508789062 426.360107421875 543.723388671875 C 424.6664123535156 541.6828002929688 424.0897216796875 543.4259033203125 423.76251220703125 544.0696411132812 C 424.6260986328125 545.711181640625 426.0868835449219 545.3280029296875 425.1410827636719 545.3589477539062 C 424.6956787109375 545.695068359375 425.1108703613281 547.7880859375 428.0639953613281 542.9982299804688" stroke-width="0.0" fill="rgb(255, 255, 255)" opacity="0.7312557"/>
    <path d="M 220.74783325195312 544.2401733398438 C 222.4114990234375 543.4312744140625 221.3203125 543.9238891601562 223.3394775390625 542.1823120117188 C 221.10240173339844 541.2781372070312 219.53378295898438 542.5823974609375 222.30157470703125 543.1324462890625 C 221.27662658691406 544.580322265625 220.12545776367188 543.3905029296875 223.0842742919922 544.1036376953125 C 223.02334594726562 545.6337280273438 223.5439453125 547.6300659179688 220.74783325195312 544.2401733398438" stroke-width="0.0" fill="rgb(255, 255, 255)" opacity="0.71647835"/>
    <path d="M 268.4402770996094 515.0859985351562 C 271.1065979003906 514.6475219726562 269.6470031738281 515.1123046875 270.0300598144531 513.6334838867188 C 268.1236267089844 511.4043273925781 266.7215881347656 509.65960693359375 264.0600280761719 509.8950500488281 C 262.9840087890625 509.297119140625 261.5171813964844 508.7012634277344 260.519287109375 506.6541748046875 C 259.4288635253906 506.0474853515625 259.0780029296875 505.17755126953125 268.4402770996094 515.0859985351562" stroke-width="0.0" fill="rgb(255, 255, 255)" opacity="0.62377155"/>
    <path d="M 312.2247314453125 18.878084182739258 C 310.30328369140625 20.227094650268555 310.4491271972656 20.857891082763672 310.88995361328125 19.718849182128906 C 312.33197021484375 19.41118621826172 311.1940002441406 18.561992645263672 311.6435852050781 18.964431762695312 C 312.6349792480469 21.60045051574707 314.4203186035156 19.01436996459961 316.8743591308594 19.290536880493164 C 317.49517822265625 19.082780838012695 316.9512634277344 19.76671028137207 312.2247314453125 18.878084182739258" stroke-width="0.0" fill="rgb(255, 255, 255)" opacity="0.7555941"/>
    <path d="M 107.44798278808594 201.4839324951172 C 78.12928009033203 205.7476043701172 75.39938354492188 203.02952575683594 64.17961120605469 210.50918579101562 C 81.87413024902344 231.2911834716797 88.12230682373047 228.7327880859375 92.5169906616211 225.88052368164062 C 89.9553451538086 219.9539794921875 92.1312255859375 218.63992309570312 93.87190246582031 230.47451782226562 C 106.04035949707031 231.89308166503906 110.31407165527344 221.81265258789062 107.44798278808594 201.4839324951172" stroke-width="0.0" fill="rgb(142, 142, 143)" opacity="1.0"/>
    <path d="M 338.23370361328125 329.2832946777344 C 345.821044921875 329.6007995605469 349.9729919433594 332.1243591308594 361.010009765625 320.5663757324219 C 335.3055419921875 319.67547607421875 334.163818359375 321.09033203125 334.9757385253906 319.09063720703125 C 337.807861328125 318.7689514160156 338.8955383300781 319.9317321777344 336.8556823730469 318.142578125 C 337.6815490722656 315.5299377441406 337.0517883300781 316.3458251953125 338.23370361328125 329.2832946777344" stroke-width="0.0" fill="rgb(165, 165, 165)" opacity="1.0"/>
    <path d="M 518.5838012695312 241.1775360107422 C 517.6398315429688 241.035400390625 517.7206420898438 240.38705444335938 518.375732421875 239.2741241455078 C 518.50732421875 241.08529663085938 517.119140625 240.0516815185547 514.5365600585938 239.82839965820312 C 514.4292602539062 239.18569946289062 514.6861572265625 239.78135681152344 513.65771484375 238.91845703125 C 515.4099731445312 240.80517578125 515.9070434570312 238.6562042236328 518.5838012695312 241.1775360107422" stroke-width="0.0" fill="rgb(225, 226, 227)" opacity="0.78441525"/>
    <path d="M 274.6529541015625 571.0028076171875 C 276.49176025390625 567.8742065429688 278.07611083984375 569.2959594726562 280.579833984375 569.1061401367188 C 282.42462158203125 570.8402709960938 283.5936584472656 573.1226196289062 282.6780700683594 571.5274047851562 C 282.3133850097656 570.8223266601562 284.11279296875 571.4718627929688 284.3111877441406 573.1593017578125 C 285.46539306640625 572.8587036132812 286.7184143066406 570.3193969726562 274.6529541015625 571.0028076171875" stroke-width="0.0" fill="rgb(255, 255, 255)" opacity="0.6552382"/>
    <path d="M 575.82275390625 420.73663330078125 C 575.0775756835938 417.9654846191406 575.3760986328125 419.8290710449219 575.7863159179688 420.8343505859375 C 577.7710571289062 420.8153991699219 577.5692749023438 423.652099609375 575.3225708007812 423.0213623046875 C 576.0469360351562 424.01971435546875 574.5350341796875 422.92449951171875 575.02978515625 421.6490783691406 C 571.930419921875 422.2525939941406 571.3263549804688 423.2772521972656 575.82275390625 420.73663330078125" stroke-width="0.0" fill="rgb(255, 255, 255)" opacity="0.73564523"/>
    <path d="M 217.36805725097656 51.209293365478516 C 216.64892578125 44.50909423828125 212.4165496826172 45.56120300292969 211.04527282714844 36.5107421875 C 197.17066955566406 31.430133819580078 193.09568786621094 32.73540496826172 199.88034057617188 40.67942810058594 C 205.1192169189453 47.81395721435547 203.51573181152344 47.4766960144043 202.59002685546875 51.87291717529297 C 206.3739776611328 48.324005126953125 204.6421356201172 51.149566650390625 217.36805725097656 51.209293365478516" stroke-width="0.0" fill="rgb(150, 149, 148)" opacity="1.0"/>
    <path d="M 53.48255157470703 18.84992218017578 C 33.702117919921875 20.424896240234375 38.08405303955078 0.44188109040260315 48.77809143066406 -2.5971221923828125 C 45.8553352355957 -2.2318837642669678 42.78960037231445 -4.463562965393066 41.2532958984375 -2.400400161743164 C 42.123207092285156 -4.030453681945801 42.240570068359375 -2.3742809295654297 40.35691452026367 -2.5755467414855957 C 38.85226821899414 -2.6086809635162354 41.46110916137695 -2.7321836948394775 53.48255157470703 18.84992218017578" stroke-width="0.0" fill="rgb(42, 42, 42)" opacity="0.7928021"/>
    <path d="M 225.0738525390625 377.3977966308594 C 224.90289306640625 426.0081787109375 225.14991760253906 431.3495788574219 247.1329345703125 440.7774963378906 C 252.5202178955078 414.5223388671875 256.2076416015625 415.03582763671875 260.6347351074219 387.6033935546875 C 245.3358612060547 395.7911071777344 238.73623657226562 406.092041015625 261.8140869140625 384.7046813964844 C 265.307373046875 372.4233703613281 247.7752685546875 370.8398132324219 225.0738525390625 377.3977966308594" stroke-width="0.0" fill="rgb(51, 51, 50)" opacity="0.9824251"/>
    <path d="M 153.72274780273438 204.60067749023438 C 121.75228118896484 235.04588317871094 133.5602264404297 229.72604370117188 159.29885864257812 219.2152557373047 C 154.33462524414062 226.70314025878906 150.03445434570312 230.35128784179688 166.08554077148438 222.6493377685547 C 175.99505615234375 217.7850799560547 185.709228515625 228.61334228515625 145.86985778808594 239.25523376464844 C 142.8436279296875 228.42991638183594 182.70179748535156 212.5229949951172 153.72274780273438 204.60067749023438" stroke-width="0.0" fill="rgb(40, 39, 40)" opacity="0.9590941"/>
    <path d="M 539.6956787109375 366.2581787109375 C 538.3026123046875 365.891357421875 540.5601196289062 364.8301696777344 541.1898803710938 366.58544921875 C 541.3899536132812 367.0882568359375 539.2122802734375 368.13238525390625 542.2176513671875 366.5377197265625 C 541.6973876953125 365.3223876953125 540.4152221679688 366.3276062011719 539.9818725585938 365.56591796875 C 538.5072631835938 366.43194580078125 537.9677734375 364.9341735839844 539.6956787109375 366.2581787109375" stroke-width="0.0" fill="rgb(255, 255, 255)" opacity="0.83088136"/>
    <path d="M 12.49852466583252 326.51812744140625 C 9.554120063781738 327.803466796875 11.282332420349121 328.7337646484375 11.595760345458984 328.6677551269531 C 10.332859992980957 328.2066345214844 11.007329940795898 328.1673278808594 11.952095985412598 328.0079040527344 C 12.318511009216309 325.78399658203125 14.803046226501465 325.203857421875 15.164325714111328 326.8299255371094 C 15.990607261657715 326.9915771484375 17.54806137084961 329.9288024902344 12.49852466583252 326.51812744140625" stroke-width="0.0" fill="rgb(255, 255, 255)" opacity="0.69572514"/>
    <path d="M 184.9071044921875 41.331851959228516 C 195.57308959960938 43.2359619140625 192.48846435546875 38.64443588256836 203.4532470703125 50.58611297607422 C 194.70806884765625 54.230247497558594 192.57330322265625 44.52482223510742 184.33103942871094 40.05128479003906 C 184.57830810546875 42.40034484863281 189.58924865722656 41.060298919677734 196.17657470703125 42.54682540893555 C 180.97906494140625 31.521780014038086 177.4449462890625 21.160974502563477 184.9071044921875 41.331851959228516" stroke-width="0.0" fill="rgb(16, 16, 15)" opacity="0.96769893"/>
    <path d="M 593.1522827148438 383.80401611328125 C 595.3482055664062 385.3515319824219 593.0465087890625 385.7791442871094 594.222412109375 387.161376953125 C 593.7301635742188 388.09100341796875 594.1439208984375 388.05841064453125 594.1902465820312 386.6491394042969 C 594.5917358398438 386.37603759765625 592.5928344726562 389.4203186035156 595.3720703125 390.7456970214844 C 593.9855346679688 391.48736572265625 592.2861328125 391.1360168457031 593.1522827148438 383.80401611328125" stroke-width="0.0" fill="rgb(255, 255, 255)" opacity="0.69014543"/>
    <path d="M 489.18145751953125 208.28326416015625 C 488.34228515625 210.59918212890625 489.4433288574219 211.7771759033203 488.835693359375 210.0381622314453 C 489.38433837890625 213.70779418945312 491.6142272949219 213.89637756347656 476.5137939453125 209.4324188232422 C 482.96942138671875 213.66848754882812 487.26483154296875 211.49191284179688 501.0093994140625 212.8493194580078 C 491.5880126953125 209.90377807617188 488.4748229980469 214.289306640625 489.18145751953125 208.28326416015625" stroke-width="0.0" fill="rgb(156, 156, 159)" opacity="0.9934646"/>
    <path d="M 486.5220031738281 25.003036499023438 C 538.3997192382812 8.585358619689941 536.3516845703125 14.183432579040527 530.2207641601562 28.39344596862793 C 517.7460327148438 27.88773536682129 512.1825561523438 18.63130760192871 493.2488708496094 37.347816467285156 C 516.1851196289062 31.503623962402344 526.669677734375 26.914201736450195 520.95458984375 22.484769821166992 C 512.8988037109375 23.775331497192383 504.1215515136719 41.61526107788086 486.5220031738281 25.003036499023438" stroke-width="0.0" fill="rgb(106, 106, 107)" opacity="1.0"/>
    <path d="M 69.39461517333984 353.22686767578125 C 68.41390228271484 352.7246398925781 67.40943145751953 354.5682067871094 68.87232208251953 352.9401550292969 C 69.80048370361328 349.9439697265625 68.96356964111328 350.45379638671875 69.20365905761719 352.0130310058594 C 71.47692108154297 352.10101318359375 73.82738494873047 351.481689453125 72.74115753173828 352.8332214355469 C 73.45870971679688 353.20135498046875 71.81710052490234 352.8185729980469 69.39461517333984 353.22686767578125" stroke-width="0.0" fill="rgb(255, 255, 255)" opacity="0.7952029"/>
    <path d="M 238.17587280273438 430.2611083984375 C 230.71873474121094 428.1497497558594 229.5942840576172 427.1617736816406 229.67518615722656 421.2120666503906 C 234.05113220214844 420.6916198730469 232.06675720214844 425.5545654296875 226.94322204589844 423.2091979980469 C 225.6961212158203 424.623046875 225.27468872070312 423.44134521484375 235.88641357421875 421.0831298828125 C 238.4394073486328 421.2815246582031 242.8688507080078 426.44891357421875 238.17587280273438 430.2611083984375" stroke-width="0.0" fill="rgb(193, 192, 192)" opacity="0.9706866"/>
    <path d="M 44.94438552856445 4.2744622230529785 C 49.898799896240234 8.685274124145508 55.77076721191406 8.397614479064941 47.62711715698242 -1.1292165517807007 C 66.48681640625 -11.882890701293945 81.48717498779297 -23.133176803588867 81.23750305175781 24.35616683959961 C 52.77359390258789 31.482816696166992 43.274192810058594 25.650741577148438 46.88086700439453 15.572417259216309 C 59.164058685302734 2.924572706222534 52.941593170166016 -2.3452506065368652 44.94438552856445 4.2744622230529785" stroke-width="0.0" fill="rgb(43, 43, 45)" opacity="0.78521633"/>
    <path d="M 530.1134033203125 274.2722473144531 C 516.5016479492188 272.5677795410156 490.7605285644531 256.5816345214844 483.933349609375 252.10421752929688 C 507.68719482421875 255.8689422607422 499.36444091796875 262.2756652832031 500.3365478515625 263.14068603515625 C 502.10430908203125 257.8935852050781 499.52655029296875 255.7879180908203 505.11199951171875 260.2025146484375 C 490.98883056640625 254.2545166015625 492.36090087890625 252.25885009765625 530.1134033203125 274.2722473144531" stroke-width="0.0" fill="rgb(58, 59, 60)" opacity="1.0"/>
    <path d="M 223.37820434570312 493.379638671875 C 220.7057342529297 492.558349609375 220.87860107421875 491.1536560058594 221.94407653808594 492.8973693847656 C 222.22317504882812 490.2210693359375 221.48666381835938 488.5093078613281 222.53831481933594 487.8656005859375 C 221.86880493164062 488.8554992675781 219.5139923095703 487.42864990234375 219.89341735839844 487.78369140625 C 219.8546905517578 484.9056396484375 220.87591552734375 483.8823547363281 223.37820434570312 493.379638671875" stroke-width="0.0" fill="rgb(255, 255, 255)" opacity="0.67613053"/>
    <path d="M 233.83375549316406 549.47412109375 C 234.40391540527344 550.547119140625 233.28089904785156 549.6159057617188 234.1286163330078 548.7057495117188 C 233.29771423339844 550.3017578125 233.09120178222656 547.7623901367188 232.1553497314453 546.0345458984375 C 234.0513916015625 548.1353759765625 235.50820922851562 546.9328002929688 235.23561096191406 547.54296875 C 232.8975830078125 546.9398803710938 231.4051513671875 545.2562866210938 233.83375549316406 549.47412109375" stroke-width="0.0" fill="rgb(255, 255, 255)" opacity="0.76635164"/>
    <path d="M 526.3959350585938 275.9283142089844 C 524.3401489257812 262.32684326171875 527.5540771484375 261.8140563964844 525.8413696289062 260.7022399902344 C 508.80389404296875 258.43658447265625 499.4581604003906 252.03359985351562 507.364990234375 246.49502563476562 C 538.157958984375 261.5298156738281 533.0380859375 267.306884765625 551.439453125 251.2754364013672 C 555.6461791992188 275.6099548339844 554.2078857421875 280.27789306640625 526.3959350585938 275.9283142089844" stroke-width="0.0" fill="rgb(83, 84, 81)" opacity="0.9957498"/>
    <path d="M 503.4376525878906 223.66065979003906 C 504.65997314453125 226.16796875 504.65960693359375 225.276123046875 515.3880615234375 228.49429321289062 C 521.5237426757812 229.5570831298828 517.2767333984375 225.29733276367188 506.3409118652344 222.72068786621094 C 502.6606750488281 219.85743713378906 501.3052062988281 219.46653747558594 499.9004211425781 224.01824951171875 C 509.65185546875 223.9552764892578 510.54498291015625 225.04750061035156 503.4376525878906 223.66065979003906" stroke-width="0.0" fill="rgb(135, 134, 134)" opacity="1.0"/>
    <path d="M 103.39479064941406 260.04022216796875 C 90.6744155883789 249.63134765625 108.04058837890625 250.799072265625 145.3006591796875 230.03543090820312 C 120.77970123291016 229.28514099121094 121.89616394042969 241.29432678222656 91.08538055419922 249.0088653564453 C 94.65873718261719 237.11036682128906 99.20963287353516 224.65892028808594 143.10818481445312 209.41140747070312 C 145.86663818359375 248.7234649658203 147.7275390625 243.50204467773438 103.39479064941406 260.04022216796875" stroke-width="0.0" fill="rgb(71, 71, 72)" opacity="0.9126735"/>
    <path d="M 11.45499038696289 199.82313537597656 C 38.961002349853516 200.7461700439453 43.89625549316406 196.4622344970703 62.08543014526367 190.91677856445312 C 42.3972053527832 187.06121826171875 45.801509857177734 183.0525665283203 26.037691116333008 168.27272033691406 C 21.52128028869629 192.4662628173828 29.79298973083496 199.2791290283203 36.27730941772461 185.04269409179688 C 34.48670196533203 186.43588256835938 27.47181510925293 178.5268096923828 11.45499038696289 199.82313537597656" stroke-width="0.0" fill="rgb(130, 130, 131)" opacity="1.0"/>
    <path d="M 351.3775329589844 481.6569519042969 C 350.09063720703125 479.8311767578125 351.9244384765625 479.7843017578125 354.4873962402344 480.0509948730469 C 355.0638732910156 479.26947021484375 354.7013244628906 482.03851318359375 356.9422607421875 480.7701416015625 C 357.1103515625 483.3167724609375 358.4688720703125 482.810791015625 360.9585876464844 483.7899475097656 C 362.4356994628906 485.3890380859375 363.1455383300781 483.36553955078125 351.3775329589844 481.6569519042969" stroke-width="0.0" fill="rgb(255, 255, 255)" opacity="0.6607"/>
    <path d="M 28.520288467407227 254.160888671875 C 44.78712844848633 285.7372131347656 49.80799865722656 275.0455627441406 48.6074333190918 297.0680236816406 C 78.11599731445312 300.5424499511719 77.98571014404297 294.5775146484375 75.06425476074219 286.1180419921875 C 63.602333068847656 261.8567199707031 76.94109344482422 285.1121520996094 107.56109619140625 253.39247131347656 C 66.48310852050781 259.15191650390625 64.87545776367188 264.4841613769531 28.520288467407227 254.160888671875" stroke-width="0.0" fill="rgb(44, 44, 44)" opacity="0.88838834"/>
    <path d="M 498.4804992675781 300.09136962890625 C 506.4332275390625 289.33807373046875 520.1195068359375 280.8235778808594 530.85693359375 328.01702880859375 C 481.46405029296875 333.323974609375 475.7635192871094 329.6718444824219 472.78570556640625 310.76080322265625 C 483.1575012207031 284.009033203125 490.97216796875 297.5023193359375 506.77362060546875 299.3050231933594 C 491.6848449707031 289.6634826660156 485.8460693359375 297.95538330078125 498.4804992675781 300.09136962890625" stroke-width="0.0" fill="rgb(57, 57, 57)" opacity="1.0"/>
    <path d="M 48.97806167602539 315.2369384765625 C 88.82807159423828 319.7774353027344 82.47187805175781 318.3318176269531 70.72142028808594 288.7808837890625 C 66.22894287109375 289.1119689941406 67.04408264160156 304.59954833984375 45.577880859375 311.8963317871094 C 40.750701904296875 301.9832763671875 35.71699142456055 297.48187255859375 36.3674430847168 264.9574890136719 C 83.10393524169922 275.8104553222656 80.67237091064453 278.4632568359375 48.97806167602539 315.2369384765625" stroke-width="0.0" fill="rgb(13, 13, 13)" opacity="0.932506"/>
    <path d="M 247.067138671875 443.710205078125 C 221.0857696533203 455.34674072265625 218.238037109375 459.791015625 229.80050659179688 433.2176818847656 C 220.67825317382812 405.43829345703125 229.17819213867188 414.1173400878906 232.5369110107422 425.6322021484375 C 233.6607666015625 428.302734375 240.36940002441406 426.9994201660156 234.37628173828125 417.3648376464844 C 237.7135772705078 416.1567687988281 242.57321166992188 410.5823669433594 247.067138671875 443.710205078125" stroke-width="0.0" fill="rgb(10, 10, 9)" opacity="0.99532026"/>
    <path d="M 204.46644592285156 37.60414505004883 C 209.16635131835938 50.012542724609375 195.9225311279297 37.36604690551758 179.51107788085938 21.242568969726562 C 178.73062133789062 20.68267059326172 177.87979125976562 18.694690704345703 181.03475952148438 22.715389251708984 C 181.87060546875 15.580397605895996 181.1262969970703 21.95467185974121 181.05197143554688 22.426239013671875 C 181.34927368164062 16.070270538330078 174.9691925048828 10.561164855957031 204.46644592285156 37.60414505004883" stroke-width="0.0" fill="rgb(17, 17, 17)" opacity="0.98700416"/>
    <path d="M 279.7981872558594 365.30047607421875 C 278.57037353515625 366.3233337402344 278.0563659667969 366.3230285644531 275.91693115234375 364.6827697753906 C 275.46685791015625 363.5955810546875 275.3395690917969 364.3035583496094 276.0924987792969 364.3408508300781 C 275.2926940917969 363.5179443359375 273.61468505859375 364.15753173828125 276.75970458984375 363.97039794921875 C 277.61224365234375 365.8271179199219 277.0160827636719 366.8285217285156 279.7981872558594 365.30047607421875" stroke-width="0.0" fill="rgb(255, 255, 255)" opacity="0.7645286"/>
    <path d="M 218.27220153808594 577.5802612304688 C 219.99459838867188 574.6866455078125 218.62454223632812 575.822509765625 217.6305694580078 578.0209350585938 C 215.6029052734375 577.674072265625 214.2699737548828 577.7976684570312 216.16326904296875 577.7369384765625 C 216.1588134765625 577.7926635742188 215.0774688720703 576.3087768554688 217.17593383789062 575.668212890625 C 216.46804809570312 572.839599609375 218.38754272460938 570.34130859375 218.27220153808594 577.5802612304688" stroke-width="0.0" fill="rgb(255, 255, 255)" opacity="0.7157182"/>
    <path d="M 148.4209442138672 188.20338439941406 C 143.5624542236328 185.46022033691406 137.2935333251953 184.97654724121094 131.72413635253906 182.364013671875 C 148.5221710205078 185.89364624023438 156.04579162597656 181.17657470703125 161.28070068359375 187.66554260253906 C 140.17977905273438 189.38870239257812 142.6597900390625 180.60328674316406 108.77589416503906 182.27659606933594 C 119.13214111328125 190.0121612548828 134.30792236328125 183.4531707763672 148.4209442138672 188.20338439941406" stroke-width="0.0" fill="rgb(32, 33, 35)" opacity="1.0"/>
    <path d="M 448.52447509765625 323.7958068847656 C 453.6008605957031 342.60162353515625 462.95440673828125 350.4387512207031 465.8080749511719 357.4299011230469 C 464.8302307128906 355.2007141113281 463.9447021484375 356.42669677734375 464.9202880859375 355.447265625 C 474.4407958984375 365.30084228515625 454.0364990234375 377.4126281738281 472.3992614746094 382.5209655761719 C 480.6619873046875 356.5906982421875 475.04083251953125 350.94561767578125 448.52447509765625 323.7958068847656" stroke-width="0.0" fill="rgb(0, 0, 0)" opacity="0.9216441"/>
    <path d="M 104.21449279785156 316.9372863769531 C 121.20735168457031 299.8187561035156 121.79930114746094 299.01373291015625 92.03634643554688 328.70343017578125 C 93.2265396118164 288.2986145019531 98.9842758178711 294.27960205078125 160.0732879638672 277.5567626953125 C 158.4297637939453 303.9075012207031 138.41497802734375 302.3509826660156 124.97683715820312 330.72796630859375 C 88.31216430664062 338.6005859375 89.87430572509766 327.4061584472656 104.21449279785156 316.9372863769531" stroke-width="0.0" fill="rgb(40, 40, 41)" opacity="0.86576664"/>
    <path d="M 309.3119201660156 78.81884002685547 C 312.3372802734375 79.35464477539062 310.4745788574219 78.28754425048828 311.0036926269531 80.06322479248047 C 309.0653991699219 79.78272247314453 308.43280029296875 80.09120178222656 308.2436218261719 82.49440002441406 C 308.22998046875 83.4450912475586 309.31793212890625 82.566650390625 309.07244873046875 84.53699493408203 C 308.1156005859375 86.01203155517578 307.00823974609375 84.70079803466797 309.3119201660156 78.81884002685547" stroke-width="0.0" fill="rgb(255, 255, 255)" opacity="0.7285506"/>
    <path d="M 281.8023986816406 369.0768127441406 C 282.02685546875 369.6278381347656 281.69183349609375 367.8561096191406 281.7083435058594 366.8970642089844 C 281.3197326660156 368.814453125 282.86767578125 367.18426513671875 282.5851745605469 366.62530517578125 C 282.42547607421875 368.829833984375 280.8266906738281 368.3107604980469 282.041259765625 368.26080322265625 C 282.64190673828125 367.3011779785156 282.04052734375 366.76806640625 281.8023986816406 369.0768127441406" stroke-width="0.0" fill="rgb(255, 255, 255)" opacity="0.7986132"/>
    <path d="M 52.03059768676758 268.8909912109375 C 15.802420616149902 267.5210876464844 24.21295928955078 271.8887023925781 29.903806686401367 294.76361083984375 C 49.589996337890625 308.4207763671875 38.11063766479492 315.0356750488281 64.66143798828125 285.6505432128906 C 67.37569427490234 318.96893310546875 61.50994873046875 325.4356994628906 47.09999084472656 311.9261779785156 C 35.64366912841797 300.7416076660156 63.93559265136719 312.9803771972656 52.03059768676758 268.8909912109375" stroke-width="0.0" fill="rgb(22, 22, 21)" opacity="0.93909013"/>
    <path d="M 103.71696472167969 237.0926971435547 C 66.66431427001953 251.69273376464844 64.00675201416016 254.19384765625 57.224151611328125 256.4474792480469 C 51.610599517822266 258.3294982910156 41.1648063659668 268.7618713378906 33.403282165527344 251.70516967773438 C 66.08953094482422 244.31472778320312 68.71674346923828 245.24197387695312 72.6092758178711 240.23348999023438 C 88.95120239257812 239.12744140625 100.77942657470703 225.35537719726562 103.71696472167969 237.0926971435547" stroke-width="0.0" fill="rgb(67, 66, 67)" opacity="0.9995316"/>
    <path d="M 47.809898376464844 13.492743492126465 C 36.947086334228516 6.037002086639404 34.70912170410156 18.445911407470703 48.228607177734375 70.54229736328125 C 69.12702178955078 61.86507034301758 48.809391021728516 44.87660598754883 49.19631576538086 24.62311363220215 C 50.43695068359375 24.926355361938477 60.81210708618164 15.72465991973877 82.99146270751953 38.51359939575195 C 73.65638732910156 64.6477279663086 50.75138473510742 68.53368377685547 47.809898376464844 13.492743492126465" stroke-width="0.0" fill="rgb(28, 28, 28)" opacity="0.9424257"/>
    <path d="M 86.5119857788086 175.14523315429688 C 88.23397064208984 173.49827575683594 85.07915496826172 174.691650390625 85.2696762084961 172.38514709472656 C 77.11627960205078 175.2495880126953 67.710205078125 183.26536560058594 60.786155700683594 168.7856903076172 C 87.49366760253906 163.82972717285156 86.24300384521484 169.75177001953125 87.1216049194336 169.39749145507812 C 86.44282531738281 168.61923217773438 89.23298645019531 166.6781005859375 86.5119857788086 175.14523315429688" stroke-width="0.0" fill="rgb(138, 138, 137)" opacity="1.0"/>
    <path d="M 47.841156005859375 351.1966247558594 C 46.60719299316406 350.8457946777344 46.73237228393555 351.1596374511719 45.51408386230469 350.75042724609375 C 47.834747314453125 351.4118347167969 48.1231803894043 351.0565490722656 47.58061218261719 350.8337707519531 C 47.678035736083984 351.35186767578125 50.17155838012695 353.53094482421875 50.55376434326172 354.3128967285156 C 51.34843063354492 355.1402893066406 50.18959045410156 353.8355712890625 47.841156005859375 351.1966247558594" stroke-width="0.0" fill="rgb(255, 255, 255)" opacity="0.82451427"/>
    <path d="M 534.9144287109375 75.64269256591797 C 512.12109375 87.31641387939453 497.23272705078125 85.40962982177734 501.414794921875 86.92475891113281 C 492.1581115722656 89.49402618408203 490.84716796875 91.34992980957031 489.5400695800781 87.28877258300781 C 499.9792175292969 84.50194549560547 501.35357666015625 84.28121185302734 498.4458312988281 83.81074523925781 C 498.5272521972656 87.99903869628906 500.3224182128906 80.60137939453125 534.9144287109375 75.64269256591797" stroke-width="0.0" fill="rgb(41, 41, 41)" opacity="1.0"/>
    <path d="M 521.7157592773438 329.85211181640625 C 521.4668579101562 299.01666259765625 521.9485473632812 311.5055236816406 514.283935546875 290.09246826171875 C 541.7750244140625 285.10821533203125 554.045166015625 288.0196228027344 547.4217529296875 286.3841857910156 C 554.1043701171875 288.2748718261719 558.7850952148438 284.7506408691406 568.7518310546875 287.5129699707031 C 549.1888427734375 285.1053771972656 557.7750244140625 311.97491455078125 521.7157592773438 329.85211181640625" stroke-width="0.0" fill="rgb(18, 18, 18)" opacity="0.9709895"/>
    <path d="M 567.5639038085938 143.74713134765625 C 557.2107543945312 159.7994842529297 555.4115600585938 169.5620880126953 556.0108032226562 151.4669647216797 C 571.4614868164062 141.71849060058594 549.1174926757812 165.19369506835938 558.9935302734375 195.31668090820312 C 591.8233642578125 188.0258026123047 572.1276245117188 174.73818969726562 580.419189453125 148.4900665283203 C 578.9903564453125 140.16403198242188 583.4912109375 139.76576232910156 567.5639038085938 143.74713134765625" stroke-width="0.0" fill="rgb(21, 20, 20)" opacity="0.9392396"/>
    <path d="M 236.47671508789062 512.3824462890625 C 237.6271514892578 512.6996459960938 238.56594848632812 515.1862182617188 240.59007263183594 512.5557250976562 C 241.6427001953125 511.217041015625 240.17147827148438 509.49395751953125 241.901611328125 509.96673583984375 C 242.5264129638672 513.0849609375 240.65724182128906 512.520751953125 240.32879638671875 510.914794921875 C 241.5857696533203 513.2568969726562 239.36659240722656 514.7372436523438 236.47671508789062 512.3824462890625" stroke-width="0.0" fill="rgb(255, 255, 255)" opacity="0.7174852"/>
    <path d="M 94.31505584716797 29.31196403503418 C 95.24882507324219 35.76362991333008 94.77083587646484 39.255638122558594 87.82585906982422 36.213714599609375 C 95.45783233642578 32.196292877197266 94.34793853759766 32.89464569091797 95.04339599609375 33.51343536376953 C 94.37000274658203 32.77771759033203 95.3060073852539 30.888553619384766 90.36138916015625 30.477333068847656 C 82.48918151855469 27.742109298706055 78.68323516845703 24.559579849243164 94.31505584716797 29.31196403503418" stroke-width="0.0" fill="rgb(127, 127, 129)" opacity="1.0"/>
    <path d="M 12.079864501953125 174.7346954345703 C 14.529934883117676 208.85635375976562 27.514480590820312 186.5341033935547 77.74881744384766 185.02764892578125 C 78.58307647705078 176.22386169433594 66.77581024169922 183.39483642578125 52.44491958618164 182.51431274414062 C 47.47283935546875 183.28233337402344 45.612056732177734 183.27305603027344 42.83478927612305 184.33729553222656 C 45.242610931396484 190.1671905517578 42.56312561035156 175.010498046875 12.079864501953125 174.7346954345703" stroke-width="0.0" fill="rgb(57, 58, 58)" opacity="1.0"/>
    <path d="M 349.6679382324219 446.0176696777344 C 348.5500183105469 445.57861328125 346.5677490234375 442.93798828125 345.20843505859375 444.8513488769531 C 345.251708984375 443.9188232421875 344.33807373046875 445.9776916503906 345.5173645019531 444.2950439453125 C 344.0006408691406 445.56414794921875 345.56951904296875 443.504638671875 347.17919921875 444.24652099609375 C 346.2944641113281 443.7380676269531 344.56964111328125 442.41363525390625 349.6679382324219 446.0176696777344" stroke-width="0.0" fill="rgb(255, 255, 255)" opacity="0.81021935"/>
    <path d="M 42.33433532714844 302.5137939453125 C 54.614418029785156 310.8920593261719 57.50927734375 316.83453369140625 56.970726013183594 295.8233642578125 C 90.69802856445312 295.4827880859375 97.3377685546875 300.5089111328125 96.48116302490234 340.51275634765625 C 60.16684341430664 344.42718505859375 62.43348693847656 335.78125 53.42333984375 321.7201843261719 C 44.59217071533203 312.0377197265625 41.605613708496094 306.6159362792969 42.33433532714844 302.5137939453125" stroke-width="0.0" fill="rgb(35, 35, 35)" opacity="0.88695604"/>
    <path d="M 45.91543197631836 478.6042785644531 C 46.73743438720703 479.82080078125 49.336612701416016 479.8753967285156 47.46332931518555 481.1354064941406 C 45.56324005126953 480.7620849609375 45.849788665771484 481.42327880859375 43.28904724121094 480.62628173828125 C 45.163795471191406 481.0163879394531 43.86384963989258 479.22406005859375 42.011688232421875 480.2342529296875 C 41.81525421142578 477.93695068359375 43.08460998535156 479.5615539550781 45.91543197631836 478.6042785644531" stroke-width="0.0" fill="rgb(255, 255, 255)" opacity="0.71284425"/>
    <path d="M 541.0397338867188 239.31161499023438 C 536.2526245117188 240.91525268554688 537.2474365234375 234.17657470703125 541.4381713867188 235.35418701171875 C 547.0668334960938 234.39773559570312 540.6932983398438 239.7477569580078 534.8799438476562 234.41641235351562 C 537.3112182617188 236.38922119140625 541.7855224609375 238.99888610839844 532.25537109375 236.4060821533203 C 530.2710571289062 233.61923217773438 533.8939208984375 228.0139617919922 541.0397338867188 239.31161499023438" stroke-width="0.0" fill="rgb(132, 133, 131)" opacity="1.0"/>
    <path d="M 413.6610412597656 358.76263427734375 C 434.1181335449219 350.3583679199219 425.93499755859375 349.9195861816406 429.768310546875 351.7289733886719 C 438.7333984375 331.222900390625 434.00360107421875 322.85546875 462.0113525390625 333.52044677734375 C 463.5262756347656 379.1372375488281 459.43731689453125 378.39703369140625 457.2802429199219 383.2790832519531 C 418.7045593261719 381.9166564941406 411.7725524902344 380.5797424316406 413.6610412597656 358.76263427734375" stroke-width="0.0" fill="rgb(89, 89, 89)" opacity="1.0"/>
    <path d="M 501.025390625 216.3693389892578 C 501.54638671875 214.608642578125 502.99102783203125 216.19752502441406 530.0352172851562 226.24072265625 C 518.1096801757812 214.83602905273438 504.09271240234375 213.41326904296875 479.1654357910156 209.21585083007812 C 497.5998229980469 217.6838836669922 501.5574645996094 212.7027130126953 498.1282653808594 214.60935974121094 C 496.529541015625 217.8580780029297 496.033203125 213.36158752441406 501.025390625 216.3693389892578" stroke-width="0.0" fill="rgb(52, 53, 53)" opacity="1.0"/>
    <path d="M 345.55474853515625 589.99609375 C 348.1690979003906 589.81640625 345.6377258300781 589.6114501953125 345.3118896484375 590.3028564453125 C 346.6600646972656 588.6983032226562 345.6279602050781 587.1738891601562 347.9971008300781 586.8704833984375 C 348.3894958496094 588.2160034179688 347.3035888671875 588.07958984375 347.1019287109375 588.014892578125 C 347.14556884765625 586.6131591796875 347.3916320800781 585.48291015625 345.55474853515625 589.99609375" stroke-width="0.0" fill="rgb(255, 255, 255)" opacity="0.7769672"/>
    <path d="M 39.39405059814453 321.8272399902344 C 38.78083038330078 319.5489807128906 38.98660659790039 319.8926086425781 39.52042770385742 322.50201416015625 C 39.62888717651367 323.1912841796875 39.161312103271484 323.653564453125 38.893795013427734 322.18939208984375 C 39.26340103149414 323.3040466308594 39.72153091430664 325.2205810546875 41.01222610473633 325.2147216796875 C 40.95587158203125 328.0962829589844 39.939918518066406 328.6427001953125 39.39405059814453 321.8272399902344" stroke-width="0.0" fill="rgb(255, 255, 255)" opacity="0.74974185"/>
    <path d="M 47.11884307861328 460.21270751953125 C 45.8948860168457 459.54217529296875 45.48758316040039 460.3111267089844 44.98200607299805 460.17254638671875 C 45.418087005615234 462.0162048339844 44.35780334472656 463.2577209472656 45.17622756958008 464.02239990234375 C 47.13923263549805 462.6368103027344 47.72967529296875 461.16143798828125 46.40887451171875 461.0916748046875 C 47.198829650878906 460.26629638671875 49.383522033691406 458.10858154296875 47.11884307861328 460.21270751953125" stroke-width="0.0" fill="rgb(255, 255, 255)" opacity="0.7359912"/>
    <path d="M 66.27342224121094 202.5086669921875 C 65.41229248046875 203.89849853515625 66.99560546875 204.79171752929688 66.29107666015625 204.1446990966797 C 65.42001342773438 205.616455078125 63.50897979736328 204.69735717773438 61.73777389526367 205.22137451171875 C 61.252540588378906 204.1422882080078 61.92503356933594 203.98301696777344 62.96398162841797 205.76242065429688 C 61.92109680175781 204.0562744140625 59.38877868652344 202.0100555419922 66.27342224121094 202.5086669921875" stroke-width="0.0" fill="rgb(255, 255, 255)" opacity="0.7783813"/>
    <path d="M 437.8849792480469 258.37127685546875 C 450.5497741699219 257.36431884765625 453.1983947753906 260.64996337890625 438.7139892578125 260.0574645996094 C 445.3465270996094 260.38433837890625 450.9223937988281 259.7489929199219 452.72607421875 260.39111328125 C 449.92266845703125 260.9032287597656 450.7496337890625 261.1708068847656 463.616943359375 268.51312255859375 C 461.83807373046875 272.1082458496094 452.4901428222656 269.3601989746094 437.8849792480469 258.37127685546875" stroke-width="0.0" fill="rgb(131, 132, 132)" opacity="1.0"/>
    <path d="M 362.8121643066406 532.06494140625 C 362.7869567871094 532.5140380859375 363.615966796875 531.74755859375 361.74090576171875 532.7913818359375 C 362.8907165527344 532.0848388671875 362.6886901855469 532.8595581054688 363.0503845214844 530.675537109375 C 363.1253662109375 529.9881591796875 362.7862854003906 529.86328125 361.3502502441406 532.3201904296875 C 362.1888732910156 530.9775390625 363.676025390625 528.8584594726562 362.8121643066406 532.06494140625" stroke-width="0.0" fill="rgb(255, 255, 255)" opacity="0.7782486"/>
    <path d="M 56.456539154052734 401.89581298828125 C 57.61049270629883 402.0686340332031 57.20543670654297 402.53271484375 58.45908737182617 402.7668762207031 C 57.054443359375 403.10418701171875 55.339027404785156 404.4378356933594 56.67404556274414 403.7184753417969 C 56.4638786315918 404.8793029785156 59.78667068481445 406.3099060058594 59.764678955078125 407.83001708984375 C 60.1940803527832 406.00299072265625 61.135807037353516 403.8485412597656 56.456539154052734 401.89581298828125" stroke-width="0.0" fill="rgb(255, 255, 255)" opacity="0.6696993"/>
    <path d="M 126.17042541503906 342.9121398925781 C 142.3155975341797 410.63702392578125 140.5034637451172 415.3353576660156 116.51402282714844 408.04412841796875 C 104.29045867919922 374.9096374511719 97.50940704345703 376.2947082519531 96.59447479248047 370.9806823730469 C 101.61830139160156 371.1507873535156 86.63548278808594 378.44964599609375 89.93831634521484 343.41070556640625 C 85.85047912597656 337.7263488769531 99.78157043457031 337.6607666015625 126.17042541503906 342.9121398925781" stroke-width="0.0" fill="rgb(18, 18, 18)" opacity="0.9229507"/>
    <path d="M 337.99468994140625 484.8013916015625 C 337.3192443847656 484.7772216796875 335.063232421875 485.72857666015625 335.6824035644531 483.5044250488281 C 333.66046142578125 486.672607421875 331.8736267089844 486.822509765625 331.9934997558594 484.49969482421875 C 330.487548828125 486.1855773925781 331.8736267089844 484.2839660644531 333.8028564453125 482.8353271484375 C 335.81158447265625 483.2944030761719 334.47686767578125 485.523193359375 337.99468994140625 484.8013916015625" stroke-width="0.0" fill="rgb(255, 255, 255)" opacity="0.6902552"/>
    <path d="M 294.4296875 33.903804779052734 C 297.0246276855469 35.66272735595703 295.59393310546875 36.65394592285156 296.2406311035156 38.24533462524414 C 297.0592041015625 37.56781005859375 297.5597229003906 36.741939544677734 299.245361328125 35.24517822265625 C 299.0483703613281 34.092262268066406 296.539794921875 32.2966423034668 296.5536193847656 31.777076721191406 C 296.8616027832031 32.23295211791992 298.3819580078125 34.58749008178711 294.4296875 33.903804779052734" stroke-width="0.0" fill="rgb(255, 255, 255)" opacity="0.68236834"/>
    <path d="M 110.60704803466797 191.2044677734375 C 81.4028091430664 202.5950469970703 74.91726684570312 197.83065795898438 77.56376647949219 200.11477661132812 C 74.11346435546875 201.8646240234375 73.90641021728516 200.90110778808594 69.93677520751953 202.2176971435547 C 67.34461212158203 197.70899963378906 58.85643768310547 212.37908935546875 42.07090377807617 203.12750244140625 C 65.9347915649414 176.9317626953125 86.184326171875 174.8326416015625 110.60704803466797 191.2044677734375" stroke-width="0.0" fill="rgb(120, 120, 120)" opacity="1.0"/>
    <path d="M 273.66375732421875 26.833724975585938 C 272.6046447753906 27.328643798828125 271.7497863769531 27.532604217529297 269.7369384765625 28.165578842163086 C 272.03399658203125 31.685752868652344 274.53375244140625 29.070693969726562 273.75799560546875 30.862211227416992 C 273.4179992675781 30.7415828704834 275.6407775878906 31.477262496948242 273.435546875 31.033899307250977 C 274.3453369140625 31.13335609436035 276.8382568359375 31.664796829223633 273.66375732421875 26.833724975585938" stroke-width="0.0" fill="rgb(255, 255, 255)" opacity="0.67406553"/>
    <path d="M 359.9929504394531 542.6461181640625 C 359.3208923339844 543.2393188476562 360.7789611816406 542.149169921875 361.2109375 539.6527099609375 C 360.9264221191406 541.00537109375 362.2464904785156 539.4232177734375 360.1484375 540.7686767578125 C 361.9302978515625 540.1603393554688 360.0605163574219 538.1907348632812 360.75164794921875 537.6904907226562 C 360.24700927734375 535.4490356445312 361.9431457519531 534.4963989257812 359.9929504394531 542.6461181640625" stroke-width="0.0" fill="rgb(255, 255, 255)" opacity="0.67899394"/>
    <path d="M 469.2263488769531 374.409912109375 C 468.855224609375 415.3015441894531 465.0656433105469 407.86944580078125 443.9649658203125 415.4439392089844 C 425.1555480957031 415.13507080078125 441.2490234375 414.74365234375 409.92132568359375 415.397216796875 C 414.5872802734375 405.5687255859375 437.17578125 411.4481506347656 414.87481689453125 368.51568603515625 C 439.2844543457031 367.5820007324219 453.2405700683594 365.4429016113281 469.2263488769531 374.409912109375" stroke-width="0.0" fill="rgb(40, 40, 40)" opacity="1.0"/>
    <path d="M 527.417724609375 353.957275390625 C 525.6473388671875 355.7743835449219 525.35498046875 355.9301452636719 526.7057495117188 356.6102294921875 C 524.3935546875 355.0685119628906 525.8842163085938 356.9703674316406 524.6572265625 355.24456787109375 C 525.24853515625 355.8180847167969 524.4347534179688 354.7113342285156 525.5716552734375 353.1877136230469 C 525.3945922851562 354.26861572265625 522.7991943359375 354.0254211425781 527.417724609375 353.957275390625" stroke-width="0.0" fill="rgb(255, 255, 255)" opacity="0.7827676"/>
    <path d="M 91.4521484375 63.234981536865234 C 103.97584533691406 57.801361083984375 111.33470916748047 60.64952850341797 110.63565063476562 65.5584487915039 C 119.4150619506836 68.9676513671875 124.08876037597656 72.34500122070312 120.76487731933594 71.28063201904297 C 111.3154296875 71.99562072753906 112.16934967041016 70.28722381591797 113.17080688476562 71.4865493774414 C 113.20001983642578 70.89496612548828 113.5215835571289 70.11229705810547 91.4521484375 63.234981536865234" stroke-width="0.0" fill="rgb(131, 131, 131)" opacity="1.0"/>
    <path d="M 76.68834686279297 163.32162475585938 C 77.19429016113281 163.3462677001953 77.21116638183594 161.5226287841797 78.05748748779297 161.29075622558594 C 78.09428405761719 160.40782165527344 78.55020141601562 159.83502197265625 80.59146118164062 159.86764526367188 C 79.75244140625 160.41439819335938 80.10906982421875 158.44969177246094 79.26850128173828 157.3846893310547 C 80.34959411621094 158.58078002929688 79.54522705078125 158.1964874267578 76.68834686279297 163.32162475585938" stroke-width="0.0" fill="rgb(255, 255, 255)" opacity="0.74954605"/>
    <path d="M 481.4290466308594 277.1697692871094 C 469.98516845703125 272.3863525390625 469.5592956542969 270.29290771484375 467.1875 269.56536865234375 C 470.0548095703125 275.7652282714844 470.29669189453125 277.2471008300781 470.49029541015625 277.6502990722656 C 466.19671630859375 265.1726989746094 454.37255859375 261.4422607421875 455.1571044921875 268.3338317871094 C 468.9595031738281 275.4412536621094 474.0516357421875 280.35931396484375 481.4290466308594 277.1697692871094" stroke-width="0.0" fill="rgb(124, 125, 126)" opacity="1.0"/>
    <path d="M 287.64398193359375 390.3251953125 C 288.7513427734375 387.86138916015625 287.6685791015625 387.8704528808594 286.6874084472656 387.7838439941406 C 287.6786193847656 389.60113525390625 285.8151550292969 388.8769226074219 287.1711730957031 388.8690490722656 C 288.6796569824219 387.8508605957031 286.2762451171875 389.02349853515625 287.03607177734375 389.61407470703125 C 284.65106201171875 390.3968811035156 287.0015563964844 389.1044616699219 287.64398193359375 390.3251953125" stroke-width="0.0" fill="rgb(255, 255, 255)" opacity="0.8247672"/>
    <path d="M 511.6482849121094 240.94097900390625 C 511.1827697753906 242.30682373046875 508.7712707519531 246.00303649902344 488.5943298339844 234.73426818847656 C 507.4187316894531 231.649658203125 512.8106079101562 237.99095153808594 512.964599609375 236.82421875 C 510.02288818359375 235.4265899658203 508.6070251464844 235.8775634765625 509.3954772949219 237.32493591308594 C 508.8379211425781 235.68814086914062 508.67584228515625 235.6639862060547 511.6482849121094 240.94097900390625" stroke-width="0.0" fill="rgb(160, 159, 160)" opacity="1.0"/>
    <path d="M 286.3459167480469 433.0248107910156 C 288.24493408203125 433.9674377441406 288.9430236816406 433.5348815917969 289.7052307128906 433.3832702636719 C 289.14373779296875 433.3466796875 288.27008056640625 434.42401123046875 286.9797668457031 432.0416564941406 C 289.0513610839844 434.2893981933594 286.99310302734375 435.80889892578125 288.606689453125 436.0671081542969 C 289.5901794433594 434.8212890625 289.6031188964844 434.3984069824219 286.3459167480469 433.0248107910156" stroke-width="0.0" fill="rgb(255, 255, 255)" opacity="0.76859546"/>
    <path d="M 524.1058349609375 69.08114624023438 C 553.5307006835938 75.89881134033203 570.5183715820312 70.89960479736328 564.129638671875 56.398902893066406 C 556.4893798828125 34.42563247680664 556.3960571289062 36.37759780883789 565.669189453125 59.33235168457031 C 569.5665283203125 43.46720504760742 571.1139526367188 40.38485336303711 583.30224609375 -5.740080833435059 C 531.36767578125 -4.261792182922363 530.7453002929688 -0.532442033290863 524.1058349609375 69.08114624023438" stroke-width="0.0" fill="rgb(41, 41, 41)" opacity="0.9453742"/>
    <path d="M 481.1515808105469 329.8584899902344 C 485.2442626953125 335.4325256347656 487.1792297363281 337.9877014160156 489.55230712890625 351.48992919921875 C 494.1087951660156 363.18634033203125 508.088623046875 363.460205078125 506.8579406738281 329.30474853515625 C 487.61065673828125 321.35107421875 482.71368408203125 328.53936767578125 467.2899475097656 301.02349853515625 C 464.679443359375 313.98956298828125 475.89208984375 316.36822509765625 481.1515808105469 329.8584899902344" stroke-width="0.0" fill="rgb(40, 40, 40)" opacity="0.8689798"/>
    <path d="M 248.1874237060547 592.6219482421875 C 247.45663452148438 591.5628662109375 246.98562622070312 590.2975463867188 246.0433807373047 588.1973266601562 C 246.45758056640625 588.158935546875 247.76910400390625 587.5569458007812 249.4241180419922 588.8917846679688 C 248.51828002929688 587.9873657226562 246.92124938964844 587.0091552734375 246.83041381835938 585.8379516601562 C 246.2394256591797 586.2076416015625 244.86058044433594 586.3831787109375 248.1874237060547 592.6219482421875" stroke-width="0.0" fill="rgb(255, 255, 255)" opacity="0.72421145"/>
    <path d="M 326.4703674316406 459.37677001953125 C 328.3043212890625 460.4395751953125 329.29681396484375 461.2265319824219 331.1534423828125 460.9618225097656 C 331.5699768066406 460.41314697265625 331.9290466308594 461.8122253417969 332.5914306640625 462.0475769042969 C 332.9847717285156 461.8572998046875 332.98492431640625 463.3836364746094 334.14752197265625 463.8149108886719 C 333.5234680175781 463.0020446777344 335.837646484375 465.123779296875 326.4703674316406 459.37677001953125" stroke-width="0.0" fill="rgb(255, 255, 255)" opacity="0.6929587"/>
    <path d="M 243.92828369140625 476.21124267578125 C 242.2020721435547 477.6185607910156 242.62596130371094 477.2655029296875 240.41415405273438 476.9263916015625 C 239.6949920654297 478.0221862792969 238.31150817871094 478.47698974609375 239.17379760742188 479.4789733886719 C 238.48341369628906 480.1223449707031 238.71026611328125 479.3601989746094 240.23345947265625 480.5851745605469 C 239.50210571289062 480.2576599121094 238.95294189453125 479.78387451171875 243.92828369140625 476.21124267578125" stroke-width="0.0" fill="rgb(255, 255, 255)" opacity="0.7334737"/>
    <path d="M 84.99675750732422 198.69549560546875 C 84.78939819335938 201.60206604003906 85.64924621582031 202.70477294921875 84.23639678955078 204.0883026123047 C 83.67047882080078 200.61874389648438 80.9810791015625 202.34288024902344 82.7563247680664 202.26058959960938 C 80.99375915527344 201.8216094970703 79.72937774658203 201.25938415527344 81.34320068359375 201.6958465576172 C 80.6644515991211 201.14151000976562 79.1417236328125 198.24954223632812 84.99675750732422 198.69549560546875" stroke-width="0.0" fill="rgb(255, 255, 255)" opacity="0.7458729"/>
    <path d="M 482.2561340332031 289.12518310546875 C 454.995849609375 282.7919921875 455.0283203125 287.6311340332031 446.7485656738281 294.7119140625 C 462.6097412109375 299.4153137207031 472.8365173339844 318.3682861328125 473.9112854003906 318.6460266113281 C 471.39013671875 301.3775329589844 470.396240234375 300.8040466308594 482.4569396972656 311.143310546875 C 495.51580810546875 325.5531311035156 500.55145263671875 317.2572937011719 482.2561340332031 289.12518310546875" stroke-width="0.0" fill="rgb(17, 18, 18)" opacity="0.94759744"/>
    <path d="M 258.5959167480469 472.473388671875 C 257.011474609375 472.8175048828125 255.97360229492188 473.1164245605469 254.9855194091797 474.7688903808594 C 254.5672607421875 471.37249755859375 256.2335205078125 470.93548583984375 254.64395141601562 472.85321044921875 C 252.57664489746094 474.4217834472656 252.3556365966797 475.0463562011719 253.80345153808594 474.9781799316406 C 256.118408203125 475.0748291015625 254.46571350097656 473.3996276855469 258.5959167480469 472.473388671875" stroke-width="0.0" fill="rgb(255, 255, 255)" opacity="0.74707216"/>
    <path d="M 314.8966979980469 535.5849609375 C 314.9454650878906 536.7662353515625 314.5671081542969 537.5822143554688 315.80718994140625 536.7789916992188 C 317.3556213378906 537.45654296875 317.0500793457031 536.5265502929688 316.8403625488281 533.5521850585938 C 315.8172302246094 534.4259033203125 314.2012634277344 536.4393920898438 312.40545654296875 537.34521484375 C 313.1358642578125 537.7923583984375 311.4548034667969 537.8548583984375 314.8966979980469 535.5849609375" stroke-width="0.0" fill="rgb(255, 255, 255)" opacity="0.7300009"/>
    <path d="M 545.404541015625 373.656005859375 C 543.8233032226562 372.101806640625 544.3902587890625 373.7719421386719 543.8128662109375 371.7214660644531 C 542.918701171875 372.0676574707031 542.3261108398438 374.0795593261719 541.686767578125 375.2485046386719 C 541.1443481445312 375.3118591308594 538.9444580078125 376.81256103515625 537.4796142578125 375.1528015136719 C 539.1851196289062 376.10614013671875 537.9427490234375 376.9823913574219 545.404541015625 373.656005859375" stroke-width="0.0" fill="rgb(255, 255, 255)" opacity="0.6933195"/>
    <path d="M 409.2188415527344 360.8164978027344 C 422.8678894042969 408.9489440917969 433.39300537109375 410.26922607421875 401.3578796386719 413.8478698730469 C 403.557373046875 408.4117431640625 415.865478515625 400.8440856933594 409.7404479980469 399.6019287109375 C 409.8076477050781 395.1980895996094 408.3880920410156 396.2529602050781 401.4508972167969 364.8229064941406 C 405.4354553222656 371.03466796875 398.5011901855469 373.7063293457031 409.2188415527344 360.8164978027344" stroke-width="0.0" fill="rgb(6, 6, 6)" opacity="0.9800739"/>
    <path d="M 589.0625610351562 150.92324829101562 C 589.4063720703125 153.15687561035156 587.6864624023438 153.33607482910156 588.1671142578125 154.5651092529297 C 586.5399780273438 153.39340209960938 585.1268310546875 153.9687042236328 582.3345336914062 157.45057678222656 C 578.6995239257812 157.2479248046875 579.3049926757812 153.5364227294922 580.8525390625 151.37240600585938 C 579.4820556640625 150.0531768798828 580.2391357421875 151.2393035888672 589.0625610351562 150.92324829101562" stroke-width="0.0" fill="rgb(246, 246, 246)" opacity="0.6919182"/>
    <path d="M 120.71537780761719 328.4441833496094 C 122.98017120361328 314.5161437988281 123.49705505371094 317.0787658691406 100.19239044189453 337.2435607910156 C 126.39288330078125 341.669677734375 126.05595397949219 335.0747985839844 131.14791870117188 323.0016174316406 C 124.30656433105469 324.22308349609375 127.38994598388672 327.0011291503906 128.55406188964844 319.2833557128906 C 128.16017150878906 322.5972900390625 128.6502685546875 325.12744140625 120.71537780761719 328.4441833496094" stroke-width="0.0" fill="rgb(130, 130, 130)" opacity="0.9788125"/>
    <path d="M 198.64222717285156 26.093936920166016 C 219.4651336669922 43.764305114746094 221.262939453125 46.13375473022461 226.41757202148438 51.21767044067383 C 229.53726196289062 50.69367599487305 233.57110595703125 49.43372344970703 233.27658081054688 28.549850463867188 C 214.175537109375 18.813112258911133 191.2144775390625 44.884124755859375 185.5923614501953 1.2207865715026855 C 237.2232666015625 4.144931316375732 231.93649291992188 35.78827667236328 198.64222717285156 26.093936920166016" stroke-width="0.0" fill="rgb(3, 3, 3)" opacity="1.0"/>
  </g>
</svg>
