<?xml version="1.0" ?>
<svg xmlns="http://www.w3.org/2000/svg" version="1.1" width="600" height="600">
  <defs/>
  <g>
    <path d="M 266.3575134277344 7.753448486328125 C 265.6714172363281 6.521770477294922 265.7351379394531 4.870384693145752 265.2420959472656 4.866531848907471 C 266.5826721191406 5.380403518676758 263.81494140625 6.607651710510254 265.3562316894531 8.2865629196167 C 267.96343994140625 6.9467926025390625 269.6638488769531 5.40824556350708 270.1328430175781 3.9699361324310303 C 270.367919921875 3.5608935356140137 269.96282958984375 5.66285514831543 266.3575134277344 7.753448486328125" stroke-width="0.0" fill="rgb(255, 255, 255)" opacity="0.75114805"/>
    <path d="M 227.289306640625 12.456343650817871 C 228.40823364257812 10.776656150817871 229.89309692382812 8.292501449584961 228.49656677246094 6.72698974609375 C 228.43174743652344 6.829207897186279 228.002197265625 5.758540630340576 225.39114379882812 6.088531017303467 C 224.5471954345703 1.8083772659301758 224.17930603027344 2.415513277053833 223.80140686035156 1.2796107530593872 C 224.62051391601562 1.526763916015625 224.58534240722656 3.1187522411346436 227.289306640625 12.456343650817871" stroke-width="0.0" fill="rgb(255, 255, 255)" opacity="0.6334729"/>
    <path d="M 581.130615234375 145.55935668945312 C 583.10986328125 140.9569854736328 579.8880004882812 139.9955596923828 580.3604125976562 141.15121459960938 C 579.9017944335938 141.71002197265625 580.0593872070312 142.70233154296875 578.9939575195312 140.7815704345703 C 578.4124145507812 139.51992797851562 578.846435546875 137.94459533691406 579.2003173828125 138.72718811035156 C 578.8379516601562 139.0218505859375 577.68408203125 138.86614990234375 581.130615234375 145.55935668945312" stroke-width="0.0" fill="rgb(63, 63, 63)" opacity="0.79419655"/>
    <path d="M 245.89703369140625 522.3438110351562 C 244.7515411376953 503.62261962890625 247.0664825439453 507.1459655761719 247.33924865722656 516.5726318359375 C 246.8922576904297 522.6278076171875 248.6151885986328 525.1311645507812 249.71881103515625 525.2678833007812 C 251.0039520263672 525.8779296875 252.91290283203125 527.706298828125 253.77699279785156 528.3865356445312 C 255.10073852539062 528.3102416992188 255.53453063964844 529.5271606445312 245.89703369140625 522.3438110351562" stroke-width="0.0" fill="rgb(202, 202, 201)" opacity="1.0"/>
    <path d="M 346.6484375 68.9501953125 C 344.7288818359375 67.94465637207031 345.0088195800781 67.526611328125 344.2912292480469 66.85169219970703 C 341.9815673828125 65.49208068847656 342.4892272949219 64.51079559326172 341.1025085449219 65.88134765625 C 341.7484436035156 65.47918701171875 342.6363525390625 64.4933090209961 341.5275573730469 63.80388259887695 C 339.9405212402344 65.46493530273438 339.47674560546875 62.536922454833984 346.6484375 68.9501953125" stroke-width="0.0" fill="rgb(255, 255, 255)" opacity="0.7305745"/>
    <path d="M 475.11846923828125 31.04937171936035 C 476.660400390625 31.521337509155273 477.7406311035156 30.037860870361328 478.1645202636719 32.01851272583008 C 477.75762939453125 32.917236328125 475.8568420410156 35.01285934448242 474.9463806152344 35.14604568481445 C 475.0065612792969 35.35954666137695 472.720458984375 34.81917953491211 472.9892883300781 34.77384948730469 C 472.53167724609375 32.52470397949219 475.0745544433594 32.28786849975586 475.11846923828125 31.04937171936035" stroke-width="0.0" fill="rgb(255, 255, 255)" opacity="0.6816525"/>
    <path d="M 239.40635681152344 101.4601058959961 C 220.17691040039062 109.32131958007812 231.2943115234375 84.62602233886719 209.78057861328125 84.6115493774414 C 192.00360107421875 73.58492279052734 224.26095581054688 95.38033294677734 252.71249389648438 46.452945709228516 C 189.76792907714844 43.503299713134766 179.79588317871094 56.35771942138672 185.18272399902344 85.4227066040039 C 236.59449768066406 77.43069458007812 228.0441131591797 64.85403442382812 239.40635681152344 101.4601058959961" stroke-width="0.0" fill="rgb(34, 34, 34)" opacity="0.93279546"/>
    <path d="M 80.14282989501953 241.4338836669922 C 48.70271682739258 243.3149871826172 44.829227447509766 244.2879180908203 44.296791076660156 296.7658386230469 C 87.35734558105469 287.8258056640625 82.40754699707031 270.4845275878906 62.20436477661133 289.0450134277344 C 74.86935424804688 283.4620666503906 90.63143920898438 276.5983581542969 103.6963882446289 270.0357971191406 C 98.88536071777344 256.27020263671875 95.00196838378906 252.01124572753906 80.14282989501953 241.4338836669922" stroke-width="0.0" fill="rgb(10, 10, 10)" opacity="0.9687996"/>
    <path d="M 20.031692504882812 176.66708374023438 C 18.585901260375977 175.8677520751953 21.516414642333984 177.384765625 21.260332107543945 178.09669494628906 C 22.53572654724121 176.5397491455078 23.54854965209961 179.11170959472656 22.47932243347168 177.5223846435547 C 24.192564010620117 177.08407592773438 21.69986915588379 177.87887573242188 19.878503799438477 178.09445190429688 C 20.500566482543945 179.8718719482422 19.701536178588867 179.5808868408203 20.031692504882812 176.66708374023438" stroke-width="0.0" fill="rgb(255, 255, 255)" opacity="0.7815183"/>
    <path d="M 131.97125244140625 453.913330078125 C 131.6650390625 456.35162353515625 132.0028076171875 457.5862121582031 133.72935485839844 456.8641052246094 C 135.05250549316406 458.88873291015625 133.28965759277344 457.1024475097656 134.08958435058594 454.9718933105469 C 137.79159545898438 455.7419128417969 136.970458984375 453.18646240234375 137.995361328125 453.82916259765625 C 137.9315643310547 453.4498291015625 139.2328643798828 454.2149963378906 131.97125244140625 453.913330078125" stroke-width="0.0" fill="rgb(255, 255, 255)" opacity="0.7254504"/>
    <path d="M 232.28236389160156 476.3894348144531 C 229.81126403808594 475.2272033691406 232.1182403564453 474.1108703613281 230.62940979003906 474.6470031738281 C 229.75759887695312 476.45849609375 230.0676727294922 475.62060546875 230.16773986816406 474.07586669921875 C 232.05319213867188 475.1259765625 230.39601135253906 474.2189025878906 231.1512908935547 472.1344299316406 C 229.14907836914062 471.5102233886719 227.05633544921875 471.9294128417969 232.28236389160156 476.3894348144531" stroke-width="0.0" fill="rgb(255, 255, 255)" opacity="0.7731941"/>
    <path d="M 252.47900390625 365.45623779296875 C 299.1000061035156 348.1567077636719 308.8042907714844 325.1334533691406 332.4825439453125 324.64739990234375 C 301.5412902832031 359.3087158203125 288.822265625 355.67523193359375 294.12164306640625 356.2784423828125 C 301.1819763183594 351.72479248046875 299.6139221191406 355.7220764160156 286.5557556152344 364.06109619140625 C 280.9327697753906 382.39984130859375 259.89947509765625 397.3366394042969 252.47900390625 365.45623779296875" stroke-width="0.0" fill="rgb(10, 10, 10)" opacity="0.98669827"/>
    <path d="M 126.1858139038086 504.2303466796875 C 127.88874816894531 503.9998474121094 128.72451782226562 505.443359375 130.14828491210938 504.35595703125 C 129.560302734375 505.60833740234375 131.38311767578125 507.7313232421875 130.03009033203125 505.5132751464844 C 129.5160369873047 507.240234375 130.7575225830078 504.7079772949219 129.4736785888672 505.5023193359375 C 130.39926147460938 504.8431091308594 131.8709259033203 505.084716796875 126.1858139038086 504.2303466796875" stroke-width="0.0" fill="rgb(255, 255, 255)" opacity="0.76693875"/>
    <path d="M 313.5604248046875 22.711088180541992 C 312.0336608886719 21.14841079711914 313.1534729003906 22.232437133789062 314.29449462890625 23.939043045043945 C 313.2490234375 24.13385581970215 314.6765441894531 26.19879150390625 315.1247863769531 26.868745803833008 C 315.1988830566406 28.820446014404297 313.0809326171875 27.858890533447266 310.78497314453125 28.007308959960938 C 311.876220703125 25.705280303955078 309.0882263183594 24.48004913330078 313.5604248046875 22.711088180541992" stroke-width="0.0" fill="rgb(255, 255, 255)" opacity="0.6910525"/>
    <path d="M 112.30228424072266 126.68367004394531 C 118.95138549804688 110.9388656616211 105.30625915527344 107.90252685546875 94.51416015625 75.25035858154297 C 92.57708740234375 70.50293731689453 76.39981079101562 71.7745132446289 46.70221710205078 85.83771514892578 C 47.81238555908203 118.62145233154297 55.84434127807617 101.6446304321289 68.22734069824219 97.87858581542969 C 75.6865234375 94.21672058105469 64.24686431884766 115.6482162475586 112.30228424072266 126.68367004394531" stroke-width="0.0" fill="rgb(36, 36, 36)" opacity="0.8872372"/>
    <path d="M 208.86097717285156 308.7880554199219 C 206.83975219726562 317.06524658203125 211.08224487304688 318.9029846191406 205.70880126953125 330.1999206542969 C 188.8375701904297 339.127685546875 184.58042907714844 346.6395568847656 163.73147583007812 350.1798400878906 C 167.61529541015625 317.8157958984375 178.6318359375 314.93231201171875 185.65428161621094 301.9749755859375 C 204.97776794433594 294.7647399902344 205.41262817382812 301.2362976074219 208.86097717285156 308.7880554199219" stroke-width="0.0" fill="rgb(21, 21, 21)" opacity="0.93472546"/>
    <path d="M 527.3265991210938 78.83749389648438 C 527.7661743164062 77.9671401977539 526.8758544921875 77.51746368408203 527.6262817382812 78.29557800292969 C 527.9452514648438 79.18428802490234 529.1976928710938 76.2937240600586 529.9375 77.03360748291016 C 529.3953247070312 77.12733459472656 529.664306640625 75.43958282470703 529.480224609375 77.29085540771484 C 530.324951171875 74.92771911621094 531.0979614257812 75.87825775146484 527.3265991210938 78.83749389648438" stroke-width="0.0" fill="rgb(255, 255, 255)" opacity="0.82001156"/>
    <path d="M 235.3323211669922 91.35660552978516 C 216.84149169921875 89.6812515258789 233.9530029296875 101.28413391113281 185.5684814453125 102.80172729492188 C 182.27511596679688 124.41777801513672 190.1133575439453 112.72337341308594 202.85968017578125 115.49839782714844 C 223.3553009033203 112.01846313476562 228.27285766601562 114.19538116455078 237.55035400390625 113.11851501464844 C 247.21083068847656 111.2431411743164 245.4614715576172 120.6351547241211 235.3323211669922 91.35660552978516" stroke-width="0.0" fill="rgb(0, 0, 0)" opacity="0.9992972"/>
    <path d="M 254.06248474121094 563.2217407226562 C 252.38455200195312 487.4013366699219 247.1581573486328 488.3614807128906 184.72816467285156 489.80865478515625 C 181.43858337402344 525.618896484375 206.201416015625 511.7562561035156 222.9607696533203 554.833740234375 C 235.43838500976562 563.1043090820312 229.9191436767578 552.72900390625 207.9749298095703 546.0354614257812 C 206.61740112304688 533.3670043945312 192.55047607421875 546.5407104492188 254.06248474121094 563.2217407226562" stroke-width="0.0" fill="rgb(16, 16, 16)" opacity="0.9972852"/>
    <path d="M 112.79603576660156 29.590417861938477 C 107.6343765258789 27.62626075744629 102.6695556640625 33.31053161621094 105.47667694091797 58.5043830871582 C 146.44129943847656 56.23686599731445 144.0771484375 43.103248596191406 136.86378479003906 28.30475616455078 C 122.96341705322266 27.037841796875 126.48011779785156 29.3734073638916 138.7936248779297 31.032339096069336 C 117.59368133544922 27.63063621520996 116.7268295288086 32.23677444458008 112.79603576660156 29.590417861938477" stroke-width="0.0" fill="rgb(110, 110, 111)" opacity="1.0"/>
    <path d="M 288.5377197265625 33.2875862121582 C 287.4798583984375 31.430660247802734 284.5914306640625 29.69856071472168 285.36309814453125 29.709964752197266 C 282.8765869140625 30.82891082763672 281.0663146972656 29.747243881225586 280.2967224121094 26.625560760498047 C 280.34429931640625 28.72666358947754 281.7549743652344 27.23505210876465 283.6091003417969 28.322898864746094 C 282.18048095703125 27.74120330810547 282.8337097167969 31.24052619934082 288.5377197265625 33.2875862121582" stroke-width="0.0" fill="rgb(255, 255, 255)" opacity="0.65898705"/>
    <path d="M 209.78807067871094 269.7712097167969 C 247.4637908935547 281.54425048828125 222.81903076171875 266.9403076171875 230.86801147460938 262.6842346191406 C 246.90753173828125 261.0060729980469 245.31942749023438 261.28924560546875 249.89825439453125 259.6201477050781 C 253.73049926757812 255.906982421875 262.5675354003906 272.69183349609375 246.50338745117188 302.63623046875 C 228.1981964111328 252.39126586914062 209.03053283691406 232.09515380859375 209.78807067871094 269.7712097167969" stroke-width="0.0" fill="rgb(34, 34, 34)" opacity="0.96363956"/>
    <path d="M 461.1702575683594 498.3335266113281 C 463.220947265625 496.42236328125 461.9924011230469 494.6881103515625 459.4613952636719 491.95599365234375 C 457.370361328125 491.85040283203125 456.6962585449219 492.36920166015625 455.8570556640625 491.82647705078125 C 454.30352783203125 491.6918029785156 456.4302673339844 492.3492736816406 456.0642395019531 490.1715393066406 C 452.5178527832031 489.5157165527344 452.37005615234375 490.62298583984375 461.1702575683594 498.3335266113281" stroke-width="0.0" fill="rgb(255, 255, 255)" opacity="0.6240828"/>
    <path d="M 265.2227478027344 346.9780578613281 C 264.5329895019531 347.3295593261719 266.5291748046875 346.9031066894531 265.8271789550781 345.0035400390625 C 267.6885070800781 345.1033935546875 268.2781677246094 344.3830871582031 267.2535400390625 344.9673767089844 C 265.68359375 342.8605041503906 267.59771728515625 344.4218444824219 266.7945251464844 345.6982421875 C 268.7155456542969 344.7368469238281 269.72406005859375 343.6107482910156 265.2227478027344 346.9780578613281" stroke-width="0.0" fill="rgb(255, 255, 255)" opacity="0.81837064"/>
    <path d="M 365.1734924316406 80.2233657836914 C 365.1809997558594 81.38365173339844 365.412841796875 83.03028106689453 364.79144287109375 84.5940933227539 C 363.56121826171875 84.97016143798828 365.26312255859375 85.08637237548828 362.87127685546875 83.70877075195312 C 363.6175231933594 85.44917297363281 361.7585144042969 85.39599609375 363.1567687988281 85.06208801269531 C 364.5227966308594 84.61202239990234 365.5838317871094 85.4742431640625 365.1734924316406 80.2233657836914" stroke-width="0.0" fill="rgb(255, 255, 255)" opacity="0.79275477"/>
    <path d="M 90.47434997558594 250.71742248535156 C 82.6411361694336 274.0855407714844 88.72923278808594 270.86639404296875 108.26013946533203 270.2223205566406 C 109.6880111694336 265.69342041015625 106.05522155761719 274.8460388183594 85.35810089111328 274.7709655761719 C 92.7182388305664 266.4568176269531 118.38945770263672 278.091064453125 116.90991973876953 255.9707794189453 C 111.34513092041016 254.87423706054688 118.54643249511719 252.5516815185547 90.47434997558594 250.71742248535156" stroke-width="0.0" fill="rgb(8, 8, 8)" opacity="0.9158414"/>
    <path d="M 360.1865539550781 70.08419799804688 C 359.2270202636719 70.77006530761719 357.98193359375 68.83668518066406 359.5263977050781 67.79070281982422 C 358.8873291015625 65.0475082397461 357.91644287109375 64.32677459716797 358.73150634765625 66.46428680419922 C 358.4726867675781 63.59846115112305 357.6050720214844 64.06192016601562 357.342529296875 65.15064239501953 C 357.728759765625 63.871131896972656 358.2469482421875 62.987396240234375 360.1865539550781 70.08419799804688" stroke-width="0.0" fill="rgb(255, 255, 255)" opacity="0.73961073"/>
    <path d="M 138.63064575195312 86.26177215576172 C 118.96076965332031 80.48213195800781 119.99315643310547 70.43650817871094 109.42395782470703 82.06694793701172 C 116.71815490722656 90.6771011352539 119.6722412109375 85.24147033691406 126.31275939941406 88.28312683105469 C 139.80422973632812 87.09774780273438 144.1364288330078 87.63963317871094 120.14064025878906 79.89990234375 C 120.84330749511719 65.27737426757812 146.0762939453125 63.53221130371094 138.63064575195312 86.26177215576172" stroke-width="0.0" fill="rgb(28, 27, 27)" opacity="0.9335563"/>
    <path d="M 493.6413879394531 451.26983642578125 C 492.66754150390625 450.5760192871094 490.8061218261719 451.5785217285156 489.1133728027344 452.24298095703125 C 489.8280029296875 452.1549377441406 489.60040283203125 451.81292724609375 492.1784973144531 451.0701904296875 C 491.3291015625 452.16973876953125 493.28509521484375 452.6392822265625 493.01397705078125 450.79083251953125 C 492.36663818359375 450.7408142089844 491.1591796875 449.6106872558594 493.6413879394531 451.26983642578125" stroke-width="0.0" fill="rgb(255, 255, 255)" opacity="0.74386775"/>
    <path d="M 45.911922454833984 254.40603637695312 C 51.133872985839844 250.6738739013672 54.78334426879883 249.83407592773438 53.771888732910156 249.7867431640625 C 57.97282409667969 253.7102813720703 66.47199249267578 250.02142333984375 50.66197204589844 265.9457702636719 C 41.35462188720703 257.8785095214844 49.76608657836914 248.67550659179688 57.215240478515625 243.2493438720703 C 61.39593505859375 241.81336975097656 54.05628204345703 243.91004943847656 45.911922454833984 254.40603637695312" stroke-width="0.0" fill="rgb(170, 169, 169)" opacity="1.0"/>
    <path d="M 154.8175506591797 529.970947265625 C 153.21728515625 532.0494995117188 153.01571655273438 531.7166137695312 152.55072021484375 531.6232299804688 C 154.44876098632812 531.889404296875 154.73841857910156 532.65625 153.50015258789062 531.4749755859375 C 154.79421997070312 530.5271606445312 154.14910888671875 529.3707275390625 155.4676513671875 531.1856079101562 C 157.84356689453125 530.6589965820312 158.00205993652344 529.97998046875 154.8175506591797 529.970947265625" stroke-width="0.0" fill="rgb(255, 255, 255)" opacity="0.7620034"/>
    <path d="M 448.34405517578125 45.311119079589844 C 446.87646484375 44.05565643310547 448.82177734375 43.032833099365234 451.66015625 45.09773635864258 C 449.9747619628906 44.16044235229492 450.7724914550781 43.618228912353516 452.16131591796875 44.08677673339844 C 453.103271484375 41.96323013305664 452.7613525390625 42.41215515136719 451.7960510253906 45.1943359375 C 449.8015441894531 44.758628845214844 450.58184814453125 43.542266845703125 448.34405517578125 45.311119079589844" stroke-width="0.0" fill="rgb(255, 255, 255)" opacity="0.7586592"/>
    <path d="M 139.3338165283203 415.9286804199219 C 129.30001831054688 371.3824157714844 138.1425323486328 376.8560791015625 143.5990753173828 364.65509033203125 C 143.9497528076172 367.944580078125 141.1226043701172 368.1990661621094 157.53390502929688 351.78863525390625 C 167.052734375 359.123291015625 164.511474609375 362.1358642578125 179.03213500976562 362.2824401855469 C 174.8965606689453 418.69287109375 176.13356018066406 422.3028869628906 139.3338165283203 415.9286804199219" stroke-width="0.0" fill="rgb(13, 13, 13)" opacity="0.9760908"/>
    <path d="M 65.57096099853516 31.928482055664062 C 56.3939208984375 43.525047302246094 51.810447692871094 44.709041595458984 89.06696319580078 44.564842224121094 C 101.15327453613281 35.218544006347656 99.78536987304688 10.066436767578125 86.09089660644531 7.844228744506836 C 59.62046432495117 35.338035583496094 60.66773986816406 45.06327438354492 56.63697814941406 37.673858642578125 C 55.95315170288086 27.948589324951172 73.82996368408203 28.366436004638672 65.57096099853516 31.928482055664062" stroke-width="0.0" fill="rgb(10, 10, 10)" opacity="0.9982892"/>
    <path d="M 116.97136688232422 267.5282287597656 C 118.43729400634766 242.4386444091797 114.01276397705078 245.9779815673828 108.23247528076172 246.28353881835938 C 109.35482788085938 246.52386474609375 112.31013488769531 246.49700927734375 82.46478271484375 251.56092834472656 C 83.35053253173828 268.57904052734375 93.71627807617188 266.61883544921875 88.09481048583984 270.8799133300781 C 86.06633758544922 258.1214599609375 88.01013946533203 268.2643737792969 116.97136688232422 267.5282287597656" stroke-width="0.0" fill="rgb(0, 0, 0)" opacity="0.9635834"/>
    <path d="M 450.31591796875 26.060239791870117 C 451.1549987792969 25.704986572265625 451.7720947265625 27.129371643066406 449.67926025390625 28.410419464111328 C 452.6898193359375 30.192840576171875 452.2397766113281 31.815797805786133 451.8304138183594 31.62664031982422 C 452.5211181640625 32.86518096923828 451.71136474609375 33.49980545043945 450.99517822265625 32.8760986328125 C 449.4189147949219 33.438201904296875 447.6324768066406 33.40199279785156 450.31591796875 26.060239791870117" stroke-width="0.0" fill="rgb(255, 255, 255)" opacity="0.65785384"/>
    <path d="M 120.9070053100586 532.773681640625 C 119.7523193359375 531.6408081054688 120.02979278564453 531.0853271484375 120.15597534179688 529.113525390625 C 121.28434753417969 529.1803588867188 121.73527526855469 527.9439086914062 120.04801940917969 527.9197387695312 C 117.65388488769531 528.1370849609375 115.4086685180664 528.2281494140625 116.38763427734375 526.5775146484375 C 115.46272277832031 528.1517944335938 118.51287078857422 529.1190795898438 120.9070053100586 532.773681640625" stroke-width="0.0" fill="rgb(255, 255, 255)" opacity="0.7142652"/>
    <path d="M 33.58038330078125 496.92254638671875 C 33.932376861572266 494.9169616699219 35.117923736572266 493.8030700683594 34.75461959838867 492.04595947265625 C 32.961849212646484 491.715087890625 34.43063735961914 492.2348327636719 33.97430419921875 489.73907470703125 C 32.8727912902832 489.3502197265625 35.07102966308594 490.55218505859375 34.938777923583984 489.71722412109375 C 34.393463134765625 489.1133728027344 36.350120544433594 488.5970458984375 33.58038330078125 496.92254638671875" stroke-width="0.0" fill="rgb(255, 255, 255)" opacity="0.767251"/>
    <path d="M 239.60963439941406 31.07952308654785 C 240.4538116455078 30.036001205444336 240.09860229492188 30.163509368896484 240.896728515625 29.109771728515625 C 242.20428466796875 27.377599716186523 243.0809326171875 26.305496215820312 244.37657165527344 25.41633415222168 C 242.18211364746094 24.08196258544922 241.31907653808594 25.4544620513916 242.2410430908203 27.342384338378906 C 240.5725860595703 28.864137649536133 240.2572021484375 30.458486557006836 239.60963439941406 31.07952308654785" stroke-width="0.0" fill="rgb(255, 255, 255)" opacity="0.75918573"/>
    <path d="M 135.3414764404297 393.7550048828125 C 142.6226806640625 409.805908203125 116.46421813964844 426.8216552734375 169.78221130371094 434.9309387207031 C 172.39468383789062 403.3780212402344 151.376953125 406.10186767578125 140.0429229736328 403.1958923339844 C 134.91590881347656 395.1599426269531 136.32290649414062 394.3397216796875 136.44708251953125 399.1587219238281 C 136.47373962402344 395.19879150390625 139.1229248046875 395.72174072265625 135.3414764404297 393.7550048828125" stroke-width="0.0" fill="rgb(68, 67, 69)" opacity="1.0"/>
    <path d="M 13.464159965515137 371.0683898925781 C 11.17664909362793 370.9281311035156 10.06998062133789 371.3326416015625 10.299201011657715 369.65057373046875 C 10.85738754272461 367.5640563964844 11.416688919067383 369.4181213378906 13.153597831726074 370.4212646484375 C 13.923795700073242 371.9966125488281 14.826906204223633 369.70343017578125 13.313098907470703 368.90582275390625 C 11.659974098205566 366.55609130859375 12.286355972290039 365.5470275878906 13.464159965515137 371.0683898925781" stroke-width="0.0" fill="rgb(255, 255, 255)" opacity="0.7291764"/>
    <path d="M 16.923866271972656 212.63011169433594 C 18.057518005371094 209.65512084960938 18.978946685791016 208.10433959960938 18.115266799926758 207.2469482421875 C 18.975019454956055 208.41200256347656 18.21327018737793 207.75555419921875 18.59795570373535 208.44970703125 C 17.769954681396484 210.458740234375 18.774993896484375 208.32821655273438 18.26430892944336 206.29354858398438 C 18.520166397094727 207.8381805419922 18.658594131469727 208.8564910888672 16.923866271972656 212.63011169433594" stroke-width="0.0" fill="rgb(255, 255, 255)" opacity="0.8382384"/>
    <path d="M 427.1170654296875 95.63034057617188 C 427.6332702636719 94.3255386352539 429.5242614746094 93.80075073242188 429.0638427734375 93.87596893310547 C 428.2817687988281 93.9482421875 427.0863037109375 96.18489837646484 427.3909606933594 95.45803833007812 C 428.80413818359375 93.51332092285156 427.61456298828125 95.00647735595703 426.8106384277344 95.7891845703125 C 427.23760986328125 96.17420196533203 426.710693359375 94.70795440673828 427.1170654296875 95.63034057617188" stroke-width="0.0" fill="rgb(255, 255, 255)" opacity="0.8694042"/>
    <path d="M 109.32237243652344 464.63323974609375 C 107.30555725097656 461.6880187988281 106.1224365234375 461.5528869628906 107.63111114501953 462.6291198730469 C 108.44605255126953 462.6888732910156 108.165283203125 464.5341796875 111.3634033203125 465.9066467285156 C 113.64302825927734 466.9314270019531 110.59320831298828 468.4609375 109.4738998413086 470.0819396972656 C 105.27723693847656 469.75311279296875 106.55477905273438 469.98468017578125 109.32237243652344 464.63323974609375" stroke-width="0.0" fill="rgb(255, 255, 255)" opacity="0.6499097"/>
    <path d="M 281.8066101074219 386.607666015625 C 238.8008270263672 410.4653015136719 239.5233612060547 415.5831604003906 236.91317749023438 411.6551513671875 C 233.42701721191406 425.912841796875 207.19049072265625 421.94952392578125 201.36753845214844 454.6250915527344 C 242.6105499267578 456.13421630859375 242.51910400390625 435.1968994140625 256.00830078125 422.6048583984375 C 246.92010498046875 422.6016540527344 278.8170471191406 417.3771667480469 281.8066101074219 386.607666015625" stroke-width="0.0" fill="rgb(6, 7, 7)" opacity="0.99359494"/>
    <path d="M 117.76443481445312 65.40815734863281 C 118.14994812011719 64.88349914550781 116.17243957519531 64.58139038085938 117.76214599609375 65.4815902709961 C 115.74636840820312 63.92684555053711 115.19318389892578 62.441375732421875 113.97025299072266 62.6717529296875 C 112.5367431640625 63.067012786865234 111.57550811767578 63.84891891479492 112.01667785644531 60.668758392333984 C 110.5081787109375 59.85659408569336 111.6276626586914 60.35226058959961 117.76443481445312 65.40815734863281" stroke-width="0.0" fill="rgb(255, 255, 255)" opacity="0.7167324"/>
    <path d="M 191.8558349609375 294.81781005859375 C 185.19528198242188 297.9297790527344 180.1656494140625 305.8628845214844 186.12445068359375 341.9019775390625 C 201.79254150390625 335.3894348144531 206.46017456054688 332.0438232421875 216.3238525390625 328.86346435546875 C 240.91110229492188 316.55401611328125 251.03683471679688 331.2926330566406 248.68748474121094 284.5772705078125 C 182.34442138671875 286.8597412109375 185.74237060546875 292.47747802734375 191.8558349609375 294.81781005859375" stroke-width="0.0" fill="rgb(6, 6, 6)" opacity="0.95656985"/>
    <path d="M 107.75630950927734 28.711647033691406 C 107.01399993896484 38.701255798339844 114.89952087402344 50.064971923828125 90.07185363769531 40.993385314941406 C 103.803466796875 21.11394500732422 111.52072143554688 26.651714324951172 114.16212463378906 28.18691062927246 C 114.04379272460938 27.830440521240234 110.75703430175781 27.008729934692383 111.19391632080078 27.012849807739258 C 111.36837768554688 26.383769989013672 112.34259033203125 23.396034240722656 107.75630950927734 28.711647033691406" stroke-width="0.0" fill="rgb(152, 152, 152)" opacity="1.0"/>
    <path d="M 305.8121032714844 121.65889739990234 C 266.4452819824219 110.64092254638672 275.79034423828125 77.74159240722656 241.65200805664062 74.5326156616211 C 249.87673950195312 83.45494079589844 242.7642364501953 93.75164794921875 232.38902282714844 44.60969161987305 C 281.3202209472656 46.60823440551758 284.9577331542969 60.493778228759766 310.141845703125 71.88333129882812 C 309.9911193847656 113.87454986572266 309.2968444824219 114.34466552734375 305.8121032714844 121.65889739990234" stroke-width="0.0" fill="rgb(6, 6, 6)" opacity="1.0"/>
    <path d="M 10.995179176330566 372.58050537109375 C 8.356245040893555 370.02142333984375 10.495821952819824 371.353515625 8.854074478149414 370.9953918457031 C 9.023977279663086 369.86529541015625 8.99443531036377 368.8089294433594 9.319880485534668 367.1540832519531 C 8.624130249023438 366.10211181640625 10.83185863494873 367.84637451171875 10.275160789489746 369.1809997558594 C 10.384971618652344 366.9353332519531 11.518120765686035 367.2833557128906 10.995179176330566 372.58050537109375" stroke-width="0.0" fill="rgb(255, 255, 255)" opacity="0.7556482"/>
    <path d="M 487.3357849121094 474.5552673339844 C 487.7212829589844 473.5045166015625 486.2487487792969 473.60174560546875 487.0972595214844 473.76446533203125 C 487.98681640625 471.9615478515625 485.9501647949219 473.537109375 482.5097351074219 472.9534912109375 C 485.7220764160156 470.37249755859375 484.8209228515625 469.3263244628906 485.4144592285156 468.77008056640625 C 487.8321838378906 471.5575256347656 486.82464599609375 473.04022216796875 487.3357849121094 474.5552673339844" stroke-width="0.0" fill="rgb(255, 255, 255)" opacity="0.6933961"/>
    <path d="M 47.90980911254883 197.12838745117188 C 44.758541107177734 212.50340270996094 44.93875503540039 223.54881286621094 29.04745864868164 227.62933349609375 C 21.770084381103516 231.32908630371094 34.17603302001953 217.8318328857422 39.994266510009766 204.59666442871094 C 37.13340759277344 208.362060546875 38.11049270629883 210.3272247314453 38.78593063354492 206.2815704345703 C 37.0413703918457 212.97515869140625 33.562225341796875 211.7707061767578 47.90980911254883 197.12838745117188" stroke-width="0.0" fill="rgb(2, 2, 2)" opacity="1.0"/>
    <path d="M 441.751953125 83.12164306640625 C 443.63275146484375 81.92201232910156 443.2748107910156 83.58393859863281 443.03497314453125 81.9004898071289 C 440.05352783203125 82.63087463378906 438.2698669433594 80.6041259765625 439.2335510253906 79.37175750732422 C 438.4653015136719 80.17807006835938 440.6638488769531 78.38420104980469 438.80706787109375 79.8841323852539 C 439.0763854980469 80.85575866699219 438.8810729980469 80.54946899414062 441.751953125 83.12164306640625" stroke-width="0.0" fill="rgb(255, 255, 255)" opacity="0.7501657"/>
    <path d="M 489.69952392578125 399.0591125488281 C 490.3786315917969 400.2395324707031 490.2627868652344 400.7076110839844 489.45257568359375 402.2565002441406 C 490.15740966796875 401.6893310546875 490.27130126953125 399.91070556640625 488.1218566894531 398.9067687988281 C 486.13140869140625 398.85748291015625 486.8789367675781 401.4996643066406 488.1390380859375 401.043701171875 C 489.1917724609375 401.0332946777344 490.8809814453125 401.36260986328125 489.69952392578125 399.0591125488281" stroke-width="0.0" fill="rgb(255, 255, 255)" opacity="0.7475307"/>
    <path d="M 357.6481628417969 53.9536018371582 C 356.64764404296875 54.242061614990234 356.5675048828125 53.20167922973633 357.80145263671875 54.16799545288086 C 358.24609375 54.92512893676758 360.20257568359375 53.561370849609375 358.9687805175781 54.24774169921875 C 358.0575866699219 54.22957992553711 358.2264099121094 54.951934814453125 356.9690856933594 53.570892333984375 C 356.6901550292969 55.262977600097656 357.07928466796875 53.48452377319336 357.6481628417969 53.9536018371582" stroke-width="0.0" fill="rgb(255, 255, 255)" opacity="0.86486566"/>
    <path d="M 128.0152130126953 98.1476058959961 C 127.90660858154297 100.26168060302734 128.86717224121094 97.97423553466797 129.90721130371094 99.54761505126953 C 130.748779296875 99.26014709472656 129.74139404296875 100.18773651123047 129.89456176757812 100.84727478027344 C 130.7283935546875 101.5916748046875 129.41835021972656 101.21515655517578 131.62098693847656 100.84931182861328 C 130.2080841064453 100.82954406738281 132.92112731933594 101.14622497558594 128.0152130126953 98.1476058959961" stroke-width="0.0" fill="rgb(255, 255, 255)" opacity="0.8251593"/>
    <path d="M 171.71095275878906 134.86732482910156 C 207.6684112548828 134.2583465576172 220.3834228515625 131.13223266601562 230.3887176513672 133.2156524658203 C 221.1275634765625 154.99740600585938 220.49227905273438 148.91122436523438 226.45872497558594 147.50112915039062 C 226.70823669433594 156.71495056152344 227.511474609375 162.66864013671875 229.22828674316406 170.0511932373047 C 197.61721801757812 153.2527313232422 178.86997985839844 143.35693359375 171.71095275878906 134.86732482910156" stroke-width="0.0" fill="rgb(2, 2, 2)" opacity="0.9904265"/>
    <path d="M 75.78705596923828 565.83154296875 C 77.3514404296875 566.5955810546875 77.62334442138672 564.7792358398438 76.48357391357422 566.3927612304688 C 75.40914154052734 565.1217651367188 75.60284423828125 566.5460815429688 73.37571716308594 563.5902099609375 C 74.57756805419922 565.05517578125 74.57588958740234 564.5404663085938 73.04328155517578 564.4449462890625 C 74.74849700927734 564.5263671875 74.93683624267578 565.234130859375 75.78705596923828 565.83154296875" stroke-width="0.0" fill="rgb(255, 255, 255)" opacity="0.8025061"/>
    <path d="M 10.126453399658203 596.310791015625 C 11.851903915405273 597.4808959960938 12.147525787353516 598.083251953125 10.878090858459473 599.4971313476562 C 12.62000846862793 597.623291015625 10.688254356384277 596.6138916015625 8.634032249450684 595.4185180664062 C 10.001932144165039 592.7453002929688 12.207756042480469 592.5556030273438 10.629922866821289 590.8046875 C 9.56725025177002 591.4412841796875 10.024332046508789 589.6806640625 10.126453399658203 596.310791015625" stroke-width="0.0" fill="rgb(255, 255, 255)" opacity="0.7178122"/>
    <path d="M 20.48872184753418 295.74627685546875 C 19.574398040771484 294.8935852050781 18.730466842651367 295.8228759765625 19.690593719482422 295.4183654785156 C 19.85463523864746 294.073486328125 17.045299530029297 292.3673095703125 16.59988021850586 293.382568359375 C 14.4760103225708 294.34393310546875 16.316207885742188 293.4629821777344 18.23000717163086 292.1349792480469 C 16.520822525024414 293.45550537109375 17.38031005859375 291.4462890625 20.48872184753418 295.74627685546875" stroke-width="0.0" fill="rgb(255, 255, 255)" opacity="0.7261665"/>
    <path d="M 243.43826293945312 585.6687622070312 C 242.08680725097656 587.4546508789062 244.8392333984375 586.7479248046875 243.85707092285156 588.8855590820312 C 244.0056610107422 587.6776123046875 246.3724365234375 587.1524047851562 246.06719970703125 589.5345458984375 C 247.8849639892578 590.9043579101562 246.40609741210938 591.0795288085938 248.92776489257812 590.9356689453125 C 248.5843505859375 588.6854248046875 251.1786651611328 588.3363647460938 243.43826293945312 585.6687622070312" stroke-width="0.0" fill="rgb(255, 255, 255)" opacity="0.6599514"/>
    <path d="M 202.9593963623047 235.77687072753906 C 198.90386962890625 278.2718811035156 181.03855895996094 266.2421569824219 169.8358917236328 262.6070251464844 C 175.9677276611328 245.82376098632812 167.89259338378906 252.23776245117188 147.74803161621094 256.6481628417969 C 145.0830535888672 255.741943359375 145.45506286621094 238.861328125 146.5585479736328 239.3463134765625 C 167.177001953125 238.2432098388672 172.82237243652344 231.92518615722656 202.9593963623047 235.77687072753906" stroke-width="0.0" fill="rgb(4, 4, 4)" opacity="0.98590374"/>
    <path d="M 388.0345764160156 53.952171325683594 C 389.25103759765625 53.835304260253906 389.02532958984375 54.478858947753906 389.03240966796875 56.66210174560547 C 387.197998046875 57.89130783081055 387.4740295410156 58.905311584472656 388.13775634765625 57.28898620605469 C 387.8613586425781 58.205284118652344 388.6995849609375 60.0987663269043 388.867919921875 60.372589111328125 C 389.11181640625 61.0926513671875 387.7496643066406 59.2265510559082 388.0345764160156 53.952171325683594" stroke-width="0.0" fill="rgb(255, 255, 255)" opacity="0.76722735"/>
    <path d="M 263.6094055175781 23.247608184814453 C 265.2051086425781 23.5447998046875 264.9427490234375 23.722503662109375 263.3853759765625 23.202728271484375 C 262.616943359375 22.552135467529297 263.7298583984375 23.516244888305664 261.1141052246094 22.241756439208984 C 261.9363708496094 24.154102325439453 261.5685729980469 22.036827087402344 260.20721435546875 21.771486282348633 C 261.1402587890625 22.322145462036133 261.5688781738281 22.491104125976562 263.6094055175781 23.247608184814453" stroke-width="0.0" fill="rgb(255, 255, 255)" opacity="0.831616"/>
    <path d="M 328.98297119140625 13.791067123413086 C 327.7570495605469 13.850336074829102 326.77178955078125 16.481355667114258 325.9648742675781 17.56157875061035 C 325.1364440917969 18.100818634033203 327.5416259765625 20.75316047668457 328.80462646484375 19.930347442626953 C 330.14208984375 20.746826171875 328.617431640625 20.1420955657959 329.19708251953125 19.309274673461914 C 328.69049072265625 21.505170822143555 329.1167907714844 19.132966995239258 328.98297119140625 13.791067123413086" stroke-width="0.0" fill="rgb(255, 255, 255)" opacity="0.7082075"/>
    <path d="M 203.51783752441406 267.8370056152344 C 203.4615936279297 268.26507568359375 203.22119140625 267.85369873046875 202.91697692871094 267.17578125 C 204.1381072998047 266.16729736328125 206.53257751464844 268.17498779296875 205.96351623535156 270.32086181640625 C 206.80409240722656 270.3505859375 206.8418731689453 269.50054931640625 205.70408630371094 270.6515808105469 C 205.76739501953125 273.85955810546875 207.07891845703125 273.6645202636719 203.51783752441406 267.8370056152344" stroke-width="0.0" fill="rgb(255, 255, 255)" opacity="0.6811284"/>
    <path d="M 468.29058837890625 567.40966796875 C 469.1707763671875 566.4585571289062 469.14605712890625 566.3485107421875 468.57525634765625 567.14453125 C 469.822021484375 565.8148193359375 470.95904541015625 564.2483520507812 470.71270751953125 564.3867797851562 C 472.5265197753906 562.2484130859375 472.46435546875 562.3291625976562 471.7874450683594 560.4306640625 C 472.7147216796875 559.2797241210938 475.25347900390625 559.16796875 468.29058837890625 567.40966796875" stroke-width="0.0" fill="rgb(255, 255, 255)" opacity="0.7299842"/>
    <path d="M 537.6031494140625 597.853759765625 C 537.710693359375 595.6661987304688 538.77587890625 595.3939819335938 539.1707763671875 596.8355102539062 C 537.4085693359375 594.81103515625 539.62744140625 596.6109619140625 540.0843505859375 598.4330444335938 C 538.4717407226562 599.8185424804688 537.9382934570312 599.1963500976562 537.49462890625 596.7490844726562 C 536.5852661132812 598.8931884765625 534.631591796875 598.7314453125 537.6031494140625 597.853759765625" stroke-width="0.0" fill="rgb(255, 255, 255)" opacity="0.7297045"/>
    <path d="M 13.597859382629395 506.0161437988281 C 13.991134643554688 505.2425231933594 13.735493659973145 507.3711242675781 15.257631301879883 507.13629150390625 C 16.601877212524414 506.1679382324219 14.909356117248535 507.36676025390625 16.725229263305664 506.85052490234375 C 17.10568618774414 505.3677673339844 18.91897964477539 504.0036315917969 17.769655227661133 501.6475524902344 C 19.385787963867188 500.627685546875 19.314678192138672 499.96044921875 13.597859382629395 506.0161437988281" stroke-width="0.0" fill="rgb(255, 255, 255)" opacity="0.6799455"/>
    <path d="M 27.836050033569336 411.95098876953125 C 28.468116760253906 412.2626647949219 26.99896812438965 411.37042236328125 24.838565826416016 410.6255798339844 C 24.81258201599121 411.2807922363281 24.471973419189453 410.1799011230469 26.288488388061523 411.2332763671875 C 25.03473663330078 409.1986389160156 27.42221450805664 407.5779113769531 28.241107940673828 410.13983154296875 C 25.93630027770996 409.7464904785156 24.187650680541992 410.27056884765625 27.836050033569336 411.95098876953125" stroke-width="0.0" fill="rgb(255, 255, 255)" opacity="0.76953197"/>
    <path d="M 234.92347717285156 12.630187034606934 C 234.41180419921875 12.90390682220459 236.0623779296875 11.317102432250977 236.67523193359375 10.634659767150879 C 237.20135498046875 10.445383071899414 239.08428955078125 8.315316200256348 239.1973419189453 7.969017028808594 C 239.38888549804688 7.171925067901611 237.78533935546875 6.061477184295654 239.2425079345703 7.217017650604248 C 239.15765380859375 8.69401741027832 239.99331665039062 7.696079730987549 234.92347717285156 12.630187034606934" stroke-width="0.0" fill="rgb(255, 255, 255)" opacity="0.7442488"/>
    <path d="M 514.9471435546875 468.2813720703125 C 516.7764282226562 502.7351379394531 518.21044921875 493.5700988769531 525.5559692382812 525.7420043945312 C 527.9677734375 540.655517578125 535.7566528320312 536.6360473632812 532.9065551757812 526.701171875 C 533.0719604492188 495.3395690917969 534.6580200195312 491.2816162109375 529.1728515625 484.7412109375 C 524.4044799804688 490.9587097167969 520.4371948242188 483.36669921875 514.9471435546875 468.2813720703125" stroke-width="0.0" fill="rgb(0, 0, 0)" opacity="1.0"/>
    <path d="M 51.102718353271484 286.6982116699219 C 55.197021484375 303.90081787109375 63.973175048828125 289.4530334472656 76.89508819580078 288.8789978027344 C 103.22737121582031 305.76434326171875 96.38560485839844 296.4036560058594 94.69285583496094 262.74713134765625 C 99.46879577636719 253.21694946289062 93.21155548095703 256.567138671875 83.27163696289062 258.37164306640625 C 86.69757843017578 263.03997802734375 88.20835876464844 258.98089599609375 51.102718353271484 286.6982116699219" stroke-width="0.0" fill="rgb(0, 0, 0)" opacity="0.7367328"/>
    <path d="M 55.12577819824219 113.62321472167969 C 73.26419067382812 127.26288604736328 74.8598861694336 122.00028991699219 104.1876220703125 118.99209594726562 C 95.4526596069336 92.01416015625 87.8924789428711 96.740478515625 82.81705474853516 101.00641632080078 C 79.14637756347656 103.5591049194336 84.66925048828125 100.38458251953125 79.0156021118164 107.26988220214844 C 42.33191680908203 97.92737579345703 40.590599060058594 84.98110961914062 55.12577819824219 113.62321472167969" stroke-width="0.0" fill="rgb(0, 0, 0)" opacity="0.96114504"/>
    <path d="M 213.4973602294922 521.8547973632812 C 214.57933044433594 471.5076599121094 215.34521484375 454.60931396484375 211.11114501953125 448.1950988769531 C 187.79441833496094 487.06573486328125 189.72438049316406 485.8398742675781 212.46878051757812 444.8603210449219 C 148.0979461669922 441.39373779296875 148.14390563964844 446.13275146484375 141.8059539794922 445.35760498046875 C 157.64810180664062 483.1566162109375 168.7583770751953 516.7513427734375 213.4973602294922 521.8547973632812" stroke-width="0.0" fill="rgb(10, 10, 10)" opacity="0.976568"/>
    <path d="M 238.7472381591797 253.96444702148438 C 241.52728271484375 207.6875457763672 233.31857299804688 232.1982879638672 219.36277770996094 228.1261749267578 C 213.18142700195312 230.12538146972656 212.25479125976562 230.6580352783203 210.61424255371094 228.2769775390625 C 212.77871704101562 231.52548217773438 208.73057556152344 229.71380615234375 185.49514770507812 233.7432098388672 C 183.7394256591797 261.0362548828125 189.81187438964844 264.2909851074219 238.7472381591797 253.96444702148438" stroke-width="0.0" fill="rgb(67, 66, 68)" opacity="1.0"/>
    <path d="M 427.261474609375 510.1011047363281 C 425.9718933105469 514.4574584960938 423.6051330566406 513.1316528320312 421.8269958496094 511.8347473144531 C 421.58416748046875 511.5679931640625 423.1919250488281 513.1658935546875 423.2051086425781 511.68194580078125 C 420.8885498046875 509.24969482421875 421.9502258300781 510.1919860839844 419.97698974609375 510.2257385253906 C 419.1893615722656 510.7254943847656 419.5985412597656 509.6826477050781 427.261474609375 510.1011047363281" stroke-width="0.0" fill="rgb(255, 255, 255)" opacity="0.67673457"/>
    <path d="M 444.2877502441406 478.3829345703125 C 443.15948486328125 480.856201171875 444.61981201171875 480.21722412109375 445.2323303222656 482.2489318847656 C 443.6311340332031 483.47161865234375 444.60052490234375 483.853759765625 444.1602478027344 482.6628112792969 C 441.90753173828125 483.485107421875 438.8005676269531 482.8341064453125 437.1781311035156 483.0259094238281 C 438.224609375 483.47283935546875 435.5433349609375 482.7080993652344 444.2877502441406 478.3829345703125" stroke-width="0.0" fill="rgb(255, 255, 255)" opacity="0.6460308"/>
    <path d="M 462.7017517089844 445.89117431640625 C 461.5020751953125 443.40997314453125 461.5672302246094 441.65087890625 462.4129333496094 443.4716796875 C 461.67926025390625 442.2259216308594 460.7772521972656 442.4124755859375 460.4706115722656 440.2991943359375 C 460.2938537597656 439.6300048828125 462.37054443359375 437.5509033203125 459.9346008300781 436.69732666015625 C 457.3529357910156 438.6304626464844 459.5245361328125 436.5653076171875 462.7017517089844 445.89117431640625" stroke-width="0.0" fill="rgb(255, 255, 255)" opacity="0.672587"/>
    <path d="M 116.68317413330078 586.034423828125 C 117.13790130615234 585.6831665039062 117.8394546508789 585.951171875 118.42249298095703 586.548828125 C 117.53800964355469 586.2647094726562 118.47620391845703 586.64501953125 118.0167465209961 588.1196899414062 C 121.2468032836914 587.4775390625 119.74284362792969 588.9636840820312 118.20744323730469 590.1123657226562 C 119.93789672851562 588.0244750976562 118.66471099853516 588.6250610351562 116.68317413330078 586.034423828125" stroke-width="0.0" fill="rgb(255, 255, 255)" opacity="0.71285605"/>
    <path d="M 71.36170959472656 90.20475769042969 C 114.63681030273438 93.50725555419922 112.87014770507812 84.92261505126953 105.7086410522461 71.67594146728516 C 92.46057891845703 72.53353881835938 95.63461303710938 68.66371154785156 84.37957000732422 74.22296142578125 C 95.63337707519531 70.95378112792969 100.06053161621094 68.39213562011719 96.07514953613281 71.50263214111328 C 102.33342742919922 74.82550048828125 88.96148681640625 63.63502883911133 71.36170959472656 90.20475769042969" stroke-width="0.0" fill="rgb(0, 0, 0)" opacity="0.8381101"/>
    <path d="M 446.7272033691406 400.7149353027344 C 446.14495849609375 399.9623718261719 448.5412902832031 401.7387390136719 449.5098571777344 400.8634338378906 C 450.2281494140625 400.57196044921875 449.28985595703125 401.4226379394531 447.4465026855469 400.7917175292969 C 446.73492431640625 399.56915283203125 447.9945983886719 397.6814270019531 447.2911071777344 399.7266845703125 C 448.90130615234375 398.2221984863281 449.9170837402344 395.7575378417969 446.7272033691406 400.7149353027344" stroke-width="0.0" fill="rgb(255, 255, 255)" opacity="0.7805672"/>
    <path d="M 164.85386657714844 522.9923706054688 C 166.62474060058594 522.7799682617188 166.799072265625 521.3453369140625 165.6238555908203 523.231689453125 C 162.0286102294922 523.1099853515625 163.29673767089844 522.0978393554688 163.01290893554688 524.8177490234375 C 163.19595336914062 526.790283203125 163.0680389404297 527.5305786132812 163.08078002929688 526.6993408203125 C 161.13377380371094 527.436279296875 159.29483032226562 527.390380859375 164.85386657714844 522.9923706054688" stroke-width="0.0" fill="rgb(255, 255, 255)" opacity="0.6987098"/>
    <path d="M 514.0342407226562 520.0723266601562 C 514.587890625 520.2276611328125 515.203369140625 521.3419799804688 516.0159912109375 521.4255981445312 C 517.4825439453125 523.693603515625 518.6263427734375 522.9778442382812 518.2262573242188 524.0882568359375 C 517.4954833984375 525.7601318359375 518.2264404296875 527.2301635742188 520.6598510742188 529.2677612304688 C 521.3753662109375 527.4805297851562 522.422607421875 526.7979736328125 514.0342407226562 520.0723266601562" stroke-width="0.0" fill="rgb(255, 255, 255)" opacity="0.6649442"/>
    <path d="M 91.98765563964844 24.523988723754883 C 60.75283432006836 65.808837890625 56.04283905029297 78.0184097290039 60.523704528808594 92.19176483154297 C 101.09620666503906 85.96810150146484 92.01224517822266 78.95240020751953 82.26229858398438 70.1905288696289 C 81.82095336914062 70.26993560791016 75.58905029296875 58.15616989135742 100.94563293457031 53.91044235229492 C 110.33060455322266 55.66624069213867 117.85782623291016 32.33901596069336 91.98765563964844 24.523988723754883" stroke-width="0.0" fill="rgb(9, 9, 9)" opacity="0.9771012"/>
    <path d="M 509.928955078125 50.708831787109375 C 512.3364868164062 52.734214782714844 510.3880920410156 50.87405014038086 510.4295959472656 51.60625076293945 C 511.881103515625 49.32289505004883 510.9169006347656 48.028167724609375 508.78814697265625 47.371551513671875 C 506.1688537597656 46.87558364868164 506.7771911621094 44.464839935302734 509.9993896484375 47.89464569091797 C 509.57537841796875 48.68181610107422 510.1219177246094 46.30533218383789 509.928955078125 50.708831787109375" stroke-width="0.0" fill="rgb(255, 255, 255)" opacity="0.7618631"/>
    <path d="M 562.1296997070312 95.24153137207031 C 561.1619873046875 95.20121002197266 560.5145263671875 93.52449798583984 558.7035522460938 92.26353454589844 C 560.8096313476562 92.31076049804688 562.7457885742188 90.8253173828125 564.865966796875 91.00310516357422 C 565.5352783203125 87.46771240234375 563.3142700195312 89.99554443359375 562.0120849609375 91.76365661621094 C 560.376220703125 89.41336822509766 561.357421875 87.59632873535156 562.1296997070312 95.24153137207031" stroke-width="0.0" fill="rgb(255, 255, 255)" opacity="0.655915"/>
    <path d="M 230.84100341796875 210.64317321777344 C 233.1483154296875 211.88746643066406 231.6310272216797 212.81378173828125 232.790283203125 212.03187561035156 C 234.80450439453125 213.15689086914062 233.87596130371094 212.93844604492188 232.81138610839844 212.9750518798828 C 233.56259155273438 214.24058532714844 232.54202270507812 214.04757690429688 234.5536346435547 214.00701904296875 C 235.97781372070312 212.11546325683594 235.4726104736328 214.65647888183594 230.84100341796875 210.64317321777344" stroke-width="0.0" fill="rgb(255, 255, 255)" opacity="0.75885063"/>
    <path d="M 203.16119384765625 174.16326904296875 C 205.58946228027344 188.01173400878906 203.53684997558594 171.02035522460938 222.65586853027344 183.23374938964844 C 232.94081115722656 191.0443878173828 227.7840576171875 187.02584838867188 222.6279296875 181.32638549804688 C 238.198486328125 189.68032836914062 244.14364624023438 208.7752685546875 249.88304138183594 160.48048400878906 C 204.3411865234375 151.09600830078125 191.35450744628906 155.67991638183594 203.16119384765625 174.16326904296875" stroke-width="0.0" fill="rgb(9, 10, 9)" opacity="0.9737233"/>
    <path d="M 26.410022735595703 366.48626708984375 C 27.02552032470703 368.0750427246094 28.7846622467041 368.1451110839844 30.903797149658203 367.9458312988281 C 29.849565505981445 368.0233154296875 29.150157928466797 367.4425964355469 30.06548500061035 368.1061096191406 C 30.187931060791016 369.4542541503906 27.884727478027344 369.4488830566406 27.74321174621582 367.52777099609375 C 28.38003158569336 367.9649658203125 28.420408248901367 369.1431884765625 26.410022735595703 366.48626708984375" stroke-width="0.0" fill="rgb(255, 255, 255)" opacity="0.7788112"/>
    <path d="M 268.5538330078125 96.16006469726562 C 268.0321044921875 94.68011474609375 266.869140625 93.31512451171875 265.1758117675781 92.6520767211914 C 266.06512451171875 93.21509552001953 267.1221923828125 93.37152862548828 267.9682312011719 94.51083374023438 C 267.4250183105469 89.52932739257812 268.5735778808594 89.22481536865234 275.3614196777344 101.20318603515625 C 265.0306091308594 101.6328125 267.3871154785156 97.24801635742188 268.5538330078125 96.16006469726562" stroke-width="0.0" fill="rgb(121, 120, 120)" opacity="1.0"/>
    <path d="M 293.0333251953125 370.81793212890625 C 319.8978576660156 355.9993896484375 320.4790954589844 350.2037353515625 311.6797790527344 362.8349914550781 C 307.7655944824219 367.06884765625 306.3433837890625 371.05029296875 306.4078063964844 368.0853271484375 C 305.3044128417969 367.8652038574219 307.1973571777344 377.2655944824219 288.2258605957031 397.97821044921875 C 268.9175109863281 401.2403869628906 264.816650390625 374.2891540527344 293.0333251953125 370.81793212890625" stroke-width="0.0" fill="rgb(22, 23, 22)" opacity="0.96974295"/>
    <path d="M 458.63763427734375 390.2366027832031 C 459.76385498046875 387.4842529296875 458.9622802734375 388.7462158203125 457.2197570800781 387.24969482421875 C 457.7453918457031 387.6575927734375 457.95977783203125 388.059814453125 458.5652770996094 387.07861328125 C 457.1516418457031 389.2079162597656 458.8173522949219 387.1678466796875 456.6455078125 388.24822998046875 C 456.4783630371094 387.9974060058594 455.6961364746094 387.2209167480469 458.63763427734375 390.2366027832031" stroke-width="0.0" fill="rgb(255, 255, 255)" opacity="0.7580703"/>
    <path d="M 404.9609680175781 553.1043090820312 C 404.6794128417969 552.345458984375 403.2123718261719 554.0629272460938 403.253173828125 554.9086303710938 C 403.4328918457031 553.8060302734375 401.2796630859375 552.625 404.55755615234375 550.8831787109375 C 405.2679138183594 551.2360229492188 407.3109130859375 550.8242797851562 405.42645263671875 549.7271118164062 C 403.7890625 550.42724609375 405.1728515625 548.2374877929688 404.9609680175781 553.1043090820312" stroke-width="0.0" fill="rgb(255, 255, 255)" opacity="0.7227335"/>
    <path d="M 150.9348602294922 592.1370239257812 C 153.0141143798828 594.3652954101562 153.02684020996094 592.2681274414062 151.59251403808594 593.0868530273438 C 150.60330200195312 591.697998046875 149.500732421875 589.8778686523438 150.49929809570312 591.6068115234375 C 147.73886108398438 589.3864135742188 145.4111328125 587.865478515625 147.56997680664062 588.8660278320312 C 146.27560424804688 588.4539184570312 145.16810607910156 586.4838256835938 150.9348602294922 592.1370239257812" stroke-width="0.0" fill="rgb(255, 255, 255)" opacity="0.7402706"/>
    <path d="M 584.7658081054688 34.59706497192383 C 582.884521484375 33.89691925048828 581.1448974609375 31.93440818786621 580.7598876953125 30.90054702758789 C 580.7357788085938 30.50997543334961 582.048583984375 32.37592315673828 579.6141357421875 32.055850982666016 C 579.3414306640625 31.48795509338379 579.87353515625 32.79084777832031 581.3983154296875 33.99915313720703 C 579.5694580078125 32.79846954345703 580.9705200195312 32.05061340332031 584.7658081054688 34.59706497192383" stroke-width="0.0" fill="rgb(255, 255, 255)" opacity="0.7501337"/>
    <path d="M 343.4559631347656 92.55671691894531 C 304.43121337890625 64.72105407714844 297.9130554199219 65.05300903320312 302.1578674316406 96.84260559082031 C 343.2911071777344 90.5866928100586 348.2053527832031 88.2635269165039 371.37225341796875 110.0558090209961 C 341.47882080078125 108.71514129638672 334.482666015625 113.68805694580078 333.67138671875 110.35946655273438 C 310.7875061035156 91.43954467773438 306.9168395996094 93.81216430664062 343.4559631347656 92.55671691894531" stroke-width="0.0" fill="rgb(6, 6, 6)" opacity="0.99999154"/>
    <path d="M 225.28623962402344 591.1199340820312 C 224.4778289794922 592.8446044921875 224.33082580566406 592.2916870117188 224.19110107421875 592.5601196289062 C 225.01083374023438 593.3185424804688 225.58143615722656 593.9515380859375 225.67105102539062 594.1233520507812 C 224.49278259277344 592.4154052734375 224.25596618652344 592.3832397460938 222.9110565185547 593.72509765625 C 225.31414794921875 591.81640625 224.95619201660156 591.7969970703125 225.28623962402344 591.1199340820312" stroke-width="0.0" fill="rgb(255, 255, 255)" opacity="0.83649373"/>
    <path d="M 332.82586669921875 111.51516723632812 C 328.3604736328125 110.14187622070312 329.0373840332031 111.3333511352539 327.95220947265625 110.957763671875 C 329.40643310546875 111.2972412109375 328.80621337890625 111.8980941772461 327.4044494628906 109.84182739257812 C 323.0246887207031 106.54010772705078 321.7635803222656 100.70586395263672 325.2966613769531 102.85384368896484 C 337.3904724121094 110.91193389892578 340.1511535644531 112.10393524169922 332.82586669921875 111.51516723632812" stroke-width="0.0" fill="rgb(255, 255, 255)" opacity="0.8083392"/>
    <path d="M 472.3340148925781 62.58408737182617 C 472.495849609375 61.10308074951172 471.487548828125 62.88330841064453 471.4549560546875 63.60544204711914 C 471.1012878417969 63.25851058959961 472.46044921875 62.53597640991211 472.3219909667969 60.96455001831055 C 472.24969482421875 63.332401275634766 473.0194091796875 66.06144714355469 473.0105285644531 66.78886413574219 C 473.56591796875 68.06954956054688 472.6514892578125 65.78640747070312 472.3340148925781 62.58408737182617" stroke-width="0.0" fill="rgb(255, 255, 255)" opacity="0.77368337"/>
    <path d="M 350.6721496582031 453.7166748046875 C 351.9032897949219 408.0121765136719 349.3873596191406 405.8348693847656 346.7864990234375 413.6947326660156 C 336.2909240722656 435.586669921875 337.6613464355469 434.0079345703125 347.4840393066406 411.3528137207031 C 306.50994873046875 411.8020935058594 315.8974609375 417.19635009765625 327.7437438964844 448.5750732421875 C 321.07745361328125 455.26849365234375 334.9031677246094 458.9171142578125 350.6721496582031 453.7166748046875" stroke-width="0.0" fill="rgb(26, 26, 26)" opacity="0.93574655"/>
    <path d="M 100.7239990234375 89.03316497802734 C 124.23052215576172 89.39549255371094 117.01497650146484 87.22038269042969 85.51555633544922 91.28360748291016 C 89.75951385498047 66.759033203125 97.51085662841797 70.6293716430664 139.1597900390625 68.28486633300781 C 138.60865783691406 82.32877349853516 131.78793334960938 87.8406753540039 121.35301971435547 88.44354248046875 C 105.72434997558594 89.61747741699219 98.12045288085938 89.8862533569336 100.7239990234375 89.03316497802734" stroke-width="0.0" fill="rgb(0, 0, 0)" opacity="0.96486413"/>
    <path d="M 236.59933471679688 250.98403930664062 C 238.9606170654297 248.9113311767578 239.81607055664062 247.3817901611328 239.70130920410156 244.00726318359375 C 237.6449737548828 244.2563934326172 236.32244873046875 243.17884826660156 233.3947296142578 243.62222290039062 C 234.354248046875 247.2554168701172 237.56048583984375 248.8932647705078 231.9329071044922 251.15899658203125 C 231.80694580078125 244.9629364013672 232.0712127685547 242.12860107421875 236.59933471679688 250.98403930664062" stroke-width="0.0" fill="rgb(255, 255, 255)" opacity="0.9139058"/>
    <path d="M 129.48455810546875 75.79535675048828 C 136.58560180664062 87.88807678222656 135.80357360839844 86.92569732666016 146.6205291748047 86.4190902709961 C 152.6384735107422 78.670654296875 154.45494079589844 74.7090072631836 152.48634338378906 78.8671875 C 150.04139709472656 80.77800750732422 151.29037475585938 82.87000274658203 151.01498413085938 68.13070678710938 C 133.5998992919922 69.22496032714844 128.6515350341797 69.43547058105469 129.48455810546875 75.79535675048828" stroke-width="0.0" fill="rgb(2, 2, 2)" opacity="0.9912046"/>
    <path d="M 459.43768310546875 400.9505310058594 C 461.3810119628906 401.8220520019531 463.6036071777344 400.2906188964844 464.6336669921875 399.4293518066406 C 463.5626220703125 399.74920654296875 465.3768310546875 399.5346374511719 465.0185241699219 401.46435546875 C 464.66015625 400.41302490234375 462.7569580078125 400.68353271484375 462.9159240722656 402.5609436035156 C 462.4690856933594 404.3900451660156 462.094970703125 401.11871337890625 459.43768310546875 400.9505310058594" stroke-width="0.0" fill="rgb(255, 255, 255)" opacity="0.6810253"/>
    <path d="M 39.036067962646484 511.76123046875 C 38.896244049072266 514.228515625 39.8208122253418 512.5330810546875 40.78066635131836 511.9418029785156 C 41.724761962890625 510.8615417480469 40.4271240234375 511.08251953125 41.334835052490234 509.1878967285156 C 39.823272705078125 511.1372985839844 38.146480560302734 511.3621826171875 39.24993896484375 511.987060546875 C 37.87043762207031 510.5721435546875 37.259769439697266 509.7843017578125 39.036067962646484 511.76123046875" stroke-width="0.0" fill="rgb(255, 255, 255)" opacity="0.75118953"/>
    <path d="M 57.37973403930664 463.3505859375 C 59.299346923828125 463.69598388671875 58.49827575683594 464.0755615234375 59.20882797241211 465.6861877441406 C 58.709041595458984 467.178466796875 59.2950325012207 468.08807373046875 60.19181823730469 466.08203125 C 60.33674240112305 466.5487365722656 57.86566162109375 465.53515625 59.19342803955078 463.6905212402344 C 59.922691345214844 465.16851806640625 60.38284683227539 464.2322998046875 57.37973403930664 463.3505859375" stroke-width="0.0" fill="rgb(255, 255, 255)" opacity="0.7689144"/>
    <path d="M 2.587136745452881 219.61260986328125 C 2.9894888401031494 219.3390350341797 3.8767552375793457 221.78396606445312 5.514251708984375 219.66319274902344 C 3.8984625339508057 220.7632598876953 3.8669233322143555 222.16314697265625 3.51231050491333 220.96469116210938 C 5.221606254577637 223.51364135742188 4.933361530303955 221.10877990722656 5.100788593292236 221.05848693847656 C 7.656012535095215 221.9099578857422 5.159463405609131 221.4982452392578 2.587136745452881 219.61260986328125" stroke-width="0.0" fill="rgb(255, 255, 255)" opacity="0.80679756"/>
    <path d="M 195.41110229492188 586.8921508789062 C 191.17555236816406 587.5037231445312 189.14910888671875 586.3274536132812 190.1478271484375 587.9427490234375 C 189.26345825195312 589.8963012695312 190.99098205566406 591.52978515625 189.31764221191406 591.4912109375 C 188.54165649414062 592.6807861328125 188.35487365722656 593.0011596679688 189.5378875732422 591.7518920898438 C 191.47264099121094 590.0485229492188 190.71908569335938 592.2866821289062 195.41110229492188 586.8921508789062" stroke-width="0.0" fill="rgb(255, 255, 255)" opacity="0.6808918"/>
    <path d="M 148.09776306152344 84.26750183105469 C 147.15843200683594 83.10910034179688 149.54193115234375 87.24295806884766 134.56585693359375 85.06584167480469 C 137.1179962158203 79.16938781738281 149.6453094482422 73.49728393554688 121.16281127929688 68.57391357421875 C 119.32054138183594 83.59437561035156 128.25181579589844 89.93383026123047 139.55224609375 85.98017883300781 C 124.14691162109375 83.68123626708984 126.07673645019531 86.54295349121094 148.09776306152344 84.26750183105469" stroke-width="0.0" fill="rgb(0, 0, 0)" opacity="0.86220443"/>
    <path d="M 194.18295288085938 135.1925506591797 C 191.44688415527344 156.60081481933594 184.9790496826172 144.24314880371094 166.89816284179688 149.03904724121094 C 145.23460388183594 150.15321350097656 152.2723846435547 155.30738830566406 150.8718719482422 138.0442352294922 C 151.73960876464844 132.6553497314453 152.37364196777344 137.65451049804688 150.0037384033203 135.8993377685547 C 152.77777099609375 137.1374053955078 157.2191619873047 134.3782958984375 194.18295288085938 135.1925506591797" stroke-width="0.0" fill="rgb(2, 2, 2)" opacity="0.98425466"/>
    <path d="M 150.4456024169922 361.2164001464844 C 176.60079956054688 343.2521667480469 189.72071838378906 353.5397033691406 194.2995147705078 317.3691101074219 C 156.7592315673828 324.41448974609375 159.47265625 335.2408447265625 138.01260375976562 344.0341796875 C 129.65550231933594 353.42291259765625 152.8323211669922 347.7668762207031 165.8204803466797 355.8839416503906 C 181.05674743652344 377.3843994140625 152.8873748779297 378.17791748046875 150.4456024169922 361.2164001464844" stroke-width="0.0" fill="rgb(0, 0, 0)" opacity="0.9990258"/>
    <path d="M 485.177490234375 87.40172576904297 C 486.75433349609375 86.41951751708984 487.3191223144531 84.16852569580078 474.16192626953125 86.14739227294922 C 473.2122802734375 88.01485443115234 482.23736572265625 89.25774383544922 484.9398193359375 88.3325424194336 C 484.80816650390625 85.91400909423828 488.210693359375 84.80140686035156 484.24945068359375 82.12199401855469 C 480.7182312011719 81.07823181152344 483.43475341796875 85.42475891113281 485.177490234375 87.40172576904297" stroke-width="0.0" fill="rgb(140, 139, 138)" opacity="1.0"/>
    <path d="M 185.58981323242188 102.63235473632812 C 145.09555053710938 99.54540252685547 152.87681579589844 115.62711334228516 151.1811981201172 120.7723388671875 C 155.785888671875 118.57181549072266 163.69932556152344 118.85567474365234 180.6803436279297 117.10297393798828 C 173.59019470214844 121.30278778076172 170.43115234375 120.93000030517578 185.59286499023438 115.59541320800781 C 192.67977905273438 121.59251403808594 203.5702667236328 97.49441528320312 185.58981323242188 102.63235473632812" stroke-width="0.0" fill="rgb(4, 4, 4)" opacity="0.991192"/>
    <path d="M 131.03883361816406 92.72420501708984 C 131.33058166503906 94.6067886352539 130.58560180664062 95.91144561767578 131.3933868408203 96.09342193603516 C 129.5063934326172 98.13264465332031 129.00973510742188 98.72713470458984 127.65824890136719 98.21380615234375 C 128.67190551757812 99.33772277832031 129.5634765625 99.80903625488281 127.68819427490234 97.94175720214844 C 126.23887634277344 98.35857391357422 126.12400817871094 96.66989135742188 131.03883361816406 92.72420501708984" stroke-width="0.0" fill="rgb(255, 255, 255)" opacity="0.67803425"/>
    <path d="M 107.55007934570312 451.8453369140625 C 107.95284271240234 451.8218688964844 107.90185546875 448.8877868652344 110.03324890136719 448.937255859375 C 110.02405548095703 451.59442138671875 109.0651626586914 451.71844482421875 109.86254119873047 450.68780517578125 C 110.33187866210938 447.8139953613281 109.64952087402344 449.0281982421875 110.1951904296875 447.5600891113281 C 108.43522644042969 448.9057312011719 108.74272155761719 449.7142639160156 107.55007934570312 451.8453369140625" stroke-width="0.0" fill="rgb(255, 255, 255)" opacity="0.7688465"/>
    <path d="M 149.57623291015625 535.248779296875 C 147.51422119140625 537.1482543945312 146.65081787109375 537.4853515625 148.1475372314453 536.3860473632812 C 147.71890258789062 534.8077392578125 147.67686462402344 535.1168823242188 148.74671936035156 535.0001220703125 C 150.2788543701172 535.8176879882812 152.24237060546875 537.9048461914062 155.45960998535156 536.794677734375 C 156.3336181640625 535.5870971679688 157.53372192382812 534.4197998046875 149.57623291015625 535.248779296875" stroke-width="0.0" fill="rgb(255, 255, 255)" opacity="0.6774454"/>
    <path d="M 57.653743743896484 35.10234069824219 C 69.13001251220703 28.994186401367188 71.01729583740234 40.73533630371094 64.92700958251953 46.08437728881836 C 60.06781768798828 47.46937561035156 66.4623794555664 50.0250358581543 79.66952514648438 63.90473556518555 C 73.79180908203125 72.49713897705078 68.58704376220703 74.5990982055664 48.134620666503906 75.66645050048828 C 46.26884841918945 47.6561164855957 51.96199035644531 41.59719467163086 57.653743743896484 35.10234069824219" stroke-width="0.0" fill="rgb(6, 6, 6)" opacity="0.9638523"/>
    <path d="M 245.84512329101562 95.53234100341797 C 266.4670715332031 103.97562408447266 252.08102416992188 98.39461517333984 302.1806640625 90.45404052734375 C 301.5013427734375 147.66845703125 296.63787841796875 154.26736450195312 265.16107177734375 133.22982788085938 C 239.2629852294922 128.6693115234375 239.8249053955078 120.14482116699219 253.8883514404297 134.4265594482422 C 252.57562255859375 119.11347961425781 240.4615020751953 107.87747955322266 245.84512329101562 95.53234100341797" stroke-width="0.0" fill="rgb(3, 3, 3)" opacity="0.84046006"/>
    <path d="M 264.2265625 119.50238800048828 C 258.5003356933594 139.58892822265625 257.8194580078125 129.90011596679688 241.03932189941406 139.36927795410156 C 230.89418029785156 145.11732482910156 233.50482177734375 161.32626342773438 214.72145080566406 159.97523498535156 C 227.04974365234375 153.4368438720703 219.3203582763672 160.18753051757812 201.04847717285156 154.72738647460938 C 208.56741333007812 127.3876953125 224.32888793945312 135.46824645996094 264.2265625 119.50238800048828" stroke-width="0.0" fill="rgb(3, 3, 3)" opacity="0.96633744"/>
    <path d="M 412.6580810546875 524.96630859375 C 414.5259094238281 529.0758056640625 414.9040832519531 530.5986328125 411.9176025390625 532.1581420898438 C 411.9993591308594 534.2686157226562 411.4911804199219 535.46142578125 413.1703796386719 534.8814086914062 C 415.7180480957031 535.2850341796875 415.841796875 534.7401733398438 413.0747985839844 532.5430297851562 C 413.48126220703125 530.615966796875 411.15960693359375 529.8800659179688 412.6580810546875 524.96630859375" stroke-width="0.0" fill="rgb(255, 255, 255)" opacity="0.66402674"/>
    <path d="M 140.1465606689453 587.35986328125 C 138.64987182617188 586.0305786132812 141.21142578125 583.8883666992188 140.34715270996094 584.9323120117188 C 138.93992614746094 586.352783203125 140.5312957763672 587.6240844726562 141.74172973632812 589.1414184570312 C 142.81683349609375 586.8275146484375 142.99014282226562 587.8259887695312 143.09295654296875 589.6988525390625 C 141.4735107421875 590.6637573242188 143.5989990234375 590.9635009765625 140.1465606689453 587.35986328125" stroke-width="0.0" fill="rgb(255, 255, 255)" opacity="0.7440584"/>
    <path d="M 492.46966552734375 42.940887451171875 C 494.8202209472656 41.08092498779297 494.2169189453125 40.51731491088867 493.58074951171875 40.71408462524414 C 495.2823791503906 39.117435455322266 495.4743347167969 40.45661926269531 497.1751403808594 39.71848678588867 C 496.0972900390625 42.1031494140625 497.6719055175781 41.258766174316406 498.58935546875 43.53343200683594 C 498.1695861816406 42.8395881652832 497.9078674316406 43.050514221191406 492.46966552734375 42.940887451171875" stroke-width="0.0" fill="rgb(255, 255, 255)" opacity="0.72329456"/>
    <path d="M 448.0052490234375 510.9951171875 C 448.05609130859375 511.0555114746094 450.1922607421875 512.3634033203125 451.4311828613281 513.0997314453125 C 449.20599365234375 513.7127685546875 450.186767578125 515.5884399414062 450.2276306152344 514.81884765625 C 448.69305419921875 515.4268188476562 448.18792724609375 514.0166015625 450.3428955078125 513.829345703125 C 451.5595703125 512.2395629882812 452.4881591796875 514.1780395507812 448.0052490234375 510.9951171875" stroke-width="0.0" fill="rgb(255, 255, 255)" opacity="0.80766714"/>
    <path d="M 306.02557373046875 305.8677062988281 C 244.9926300048828 308.1573486328125 241.82754516601562 305.7205505371094 242.4900360107422 275.36767578125 C 261.48193359375 256.4054260253906 280.65234375 267.5732727050781 286.8659362792969 262.8996887207031 C 310.2591247558594 270.8706970214844 321.0557556152344 245.11094665527344 324.3566589355469 301.6197204589844 C 284.02142333984375 304.40264892578125 287.9185791015625 294.1296081542969 306.02557373046875 305.8677062988281" stroke-width="0.0" fill="rgb(2, 2, 2)" opacity="0.9982776"/>
    <path d="M 230.45045471191406 479.6820373535156 C 230.37835693359375 477.2998352050781 231.14671325683594 479.6270446777344 231.99295043945312 479.3322448730469 C 230.96380615234375 479.7067565917969 230.15960693359375 477.2984313964844 230.39321899414062 474.7791748046875 C 229.7102813720703 473.20458984375 231.0784149169922 474.65386962890625 230.4042205810547 474.12884521484375 C 230.34677124023438 473.8045349121094 230.44334411621094 474.9628601074219 230.45045471191406 479.6820373535156" stroke-width="0.0" fill="rgb(255, 255, 255)" opacity="0.801964"/>
    <path d="M 136.65940856933594 568.2559814453125 C 137.58737182617188 567.6234130859375 137.318603515625 565.1742553710938 136.11131286621094 564.6575927734375 C 134.7451934814453 563.2716064453125 134.15057373046875 564.1263427734375 132.3902130126953 565.2421264648438 C 132.690185546875 564.527099609375 131.3003692626953 565.43115234375 132.5006866455078 563.7540283203125 C 132.0613250732422 563.4188842773438 130.9425811767578 562.1778564453125 136.65940856933594 568.2559814453125" stroke-width="0.0" fill="rgb(255, 255, 255)" opacity="0.6766046"/>
    <path d="M 234.00823974609375 340.04083251953125 C 220.70016479492188 377.3858337402344 201.9110870361328 366.6053771972656 207.2212677001953 349.80987548828125 C 226.1930389404297 339.97265625 214.1820526123047 348.2482604980469 204.52828979492188 349.1360168457031 C 214.45550537109375 368.2820129394531 202.12171936035156 378.51953125 158.57424926757812 391.8769836425781 C 166.09515380859375 360.14874267578125 195.5094757080078 353.48980712890625 234.00823974609375 340.04083251953125" stroke-width="0.0" fill="rgb(2, 2, 2)" opacity="0.99722964"/>
  </g>
</svg>
