<?xml version="1.0" ?>
<svg xmlns="http://www.w3.org/2000/svg" version="1.1" width="600" height="600">
  <defs/>
  <g>
    <path d="M 1.9016677141189575 353.88525390625 C -0.08743923902511597 354.4551086425781 -2.0424387454986572 353.3114318847656 -0.19989311695098877 350.9454040527344 C -1.3731669187545776 351.5712585449219 -1.744430422782898 350.32232666015625 0.6754043102264404 351.17071533203125 C 1.129752278327942 351.9128723144531 3.3228366374969482 353.1988220214844 2.4460761547088623 352.9620361328125 C 1.46733558177948 351.26385498046875 2.393425464630127 353.20770263671875 1.9016677141189575 353.88525390625" stroke-width="0.0" fill="rgb(255, 255, 255)" opacity="0.78747183"/>
    <path d="M 382.7703552246094 590.3389892578125 C 383.36822509765625 589.0550537109375 383.7490234375 590.1243286132812 386.23193359375 588.7025756835938 C 384.8093566894531 589.330322265625 384.669677734375 589.1639404296875 382.6530456542969 590.116943359375 C 384.44287109375 592.3628540039062 386.1161193847656 593.3605346679688 387.2773742675781 594.4129638671875 C 385.79840087890625 593.636474609375 387.880615234375 594.6563110351562 382.7703552246094 590.3389892578125" stroke-width="0.0" fill="rgb(255, 255, 255)" opacity="0.7164945"/>
    <path d="M 19.837383270263672 3.0198814868927 C 20.531322479248047 0.6408695578575134 18.825618743896484 3.024155378341675 18.446002960205078 4.12851095199585 C 18.729490280151367 3.406965970993042 19.580015182495117 2.035676956176758 20.604841232299805 3.274064302444458 C 21.558914184570312 1.890759825706482 21.216524124145508 0.2833072245121002 19.032594680786133 1.075179934501648 C 18.953022003173828 0.9511317610740662 17.663145065307617 -1.36643648147583 19.837383270263672 3.0198814868927" stroke-width="0.0" fill="rgb(255, 255, 255)" opacity="0.7569261"/>
    <path d="M -0.44092467427253723 368.8858642578125 C 0.38754040002822876 369.0581970214844 -1.1394810676574707 367.0614318847656 -2.5862815380096436 364.7341003417969 C -3.248795509338379 364.49609375 -1.8675545454025269 363.8060302734375 -0.8952409029006958 365.4088134765625 C 0.49651825428009033 362.9576721191406 -0.539249062538147 364.6908874511719 -1.998167872428894 362.36602783203125 C -0.22934769093990326 364.1094970703125 -1.1812751293182373 366.0325927734375 -0.44092467427253723 368.8858642578125" stroke-width="0.0" fill="rgb(255, 255, 255)" opacity="0.9947448"/>
    <path d="M 18.014249801635742 367.4502868652344 C 17.503225326538086 365.1441345214844 19.130603790283203 362.42034912109375 20.232223510742188 362.98956298828125 C 19.57631492614746 363.347900390625 20.418598175048828 364.4327697753906 19.843887329101562 366.3287658691406 C 18.05167579650879 364.5994567871094 17.272281646728516 362.552978515625 18.101009368896484 362.81048583984375 C 17.48018455505371 365.36669921875 15.838475227355957 366.0866394042969 18.014249801635742 367.4502868652344" stroke-width="0.0" fill="rgb(255, 255, 255)" opacity="0.6849753"/>
    <path d="M 22.80070686340332 427.16790771484375 C 22.819116592407227 428.3274841308594 25.45518684387207 428.0220947265625 26.392179489135742 429.15765380859375 C 28.43120002746582 431.30853271484375 28.104089736938477 431.25848388671875 27.22737693786621 430.25042724609375 C 26.302541732788086 428.5738830566406 24.761669158935547 429.0821228027344 23.606651306152344 426.7894592285156 C 22.81116485595703 427.35931396484375 21.242605209350586 426.77069091796875 22.80070686340332 427.16790771484375" stroke-width="0.0" fill="rgb(255, 255, 255)" opacity="0.73933715"/>
    <path d="M 597.4358520507812 471.2319030761719 C 598.1885375976562 468.48779296875 600.1784057617188 466.9278564453125 598.8340454101562 468.19061279296875 C 597.7167358398438 467.5738830566406 597.3667602539062 468.52728271484375 595.49658203125 467.7864990234375 C 597.898681640625 466.34747314453125 596.7456665039062 465.7664489746094 597.0413208007812 463.79425048828125 C 598.1466064453125 463.6030578613281 601.034912109375 464.0224304199219 597.4358520507812 471.2319030761719" stroke-width="0.0" fill="rgb(255, 255, 255)" opacity="0.6896945"/>
    <path d="M 341.05615234375 570.35009765625 C 342.2475891113281 569.140380859375 343.2646484375 569.1581420898438 342.62255859375 569.540283203125 C 341.4030456542969 569.3111572265625 341.1686706542969 570.3558959960938 340.21044921875 571.8610229492188 C 340.864013671875 569.6627197265625 342.4074401855469 572.008544921875 340.69921875 570.4712524414062 C 341.8907470703125 572.3370971679688 340.6158752441406 570.767578125 341.05615234375 570.35009765625" stroke-width="0.0" fill="rgb(255, 255, 255)" opacity="0.805447"/>
    <path d="M 284.8396911621094 576.8944091796875 C 287.3506164550781 577.0858154296875 285.37786865234375 577.847412109375 285.7588195800781 579.6097412109375 C 285.6224060058594 580.2481079101562 286.6874084472656 582.5432739257812 287.21588134765625 584.4100341796875 C 287.0732421875 586.1649169921875 288.87933349609375 585.1070556640625 287.92059326171875 587.4303588867188 C 287.6262512207031 588.7767333984375 289.32916259765625 590.1369018554688 284.8396911621094 576.8944091796875" stroke-width="0.0" fill="rgb(255, 255, 255)" opacity="0.6628613"/>
    <path d="M 564.1847534179688 466.86663818359375 C 563.2676391601562 465.0943908691406 561.3258056640625 463.75274658203125 562.1618041992188 466.47247314453125 C 561.314697265625 467.6043701171875 560.6387939453125 469.2317810058594 561.1455688476562 471.22528076171875 C 562.7984619140625 470.3924560546875 563.9027709960938 471.6132507324219 563.3468627929688 471.0608825683594 C 563.6007690429688 471.28350830078125 561.6944580078125 471.3095703125 564.1847534179688 466.86663818359375" stroke-width="0.0" fill="rgb(255, 255, 255)" opacity="0.6887413"/>
    <path d="M 11.296630859375 27.975431442260742 C 12.267772674560547 26.294429779052734 11.57290267944336 24.127771377563477 9.718086242675781 22.104496002197266 C 7.818263053894043 20.214710235595703 9.097786903381348 21.34014892578125 7.41748046875 22.028587341308594 C 8.635295867919922 21.155391693115234 10.879260063171387 18.690784454345703 9.59827709197998 19.51892852783203 C 11.007062911987305 17.85030746459961 13.118781089782715 19.970993041992188 11.296630859375 27.975431442260742" stroke-width="0.0" fill="rgb(255, 255, 255)" opacity="0.63427424"/>
    <path d="M 594.5805053710938 305.0166320800781 C 595.812744140625 303.7815246582031 596.5875244140625 302.80316162109375 595.630126953125 302.0751647949219 C 594.5774536132812 301.6896667480469 593.1398315429688 303.1755065917969 592.72900390625 300.9638671875 C 591.2840576171875 302.281982421875 590.3419189453125 303.1819152832031 592.2078857421875 301.5556945800781 C 592.57763671875 300.2879943847656 590.2153930664062 301.4365234375 594.5805053710938 305.0166320800781" stroke-width="0.0" fill="rgb(255, 255, 255)" opacity="0.6944948"/>
    <path d="M 305.4165954589844 570.452392578125 C 307.1973876953125 573.3469848632812 308.5835266113281 572.5936279296875 307.8934631347656 574.861572265625 C 308.922119140625 575.8223876953125 306.7691650390625 576.360107421875 305.6202392578125 575.9638671875 C 307.4208679199219 576.3655395507812 305.8817138671875 576.7843017578125 306.012939453125 573.9609985351562 C 304.9493408203125 571.2459106445312 304.1391296386719 574.1942749023438 305.4165954589844 570.452392578125" stroke-width="0.0" fill="rgb(255, 255, 255)" opacity="0.6882536"/>
    <path d="M 11.014260292053223 372.9725341796875 C 10.981890678405762 373.0980224609375 9.232255935668945 373.16644287109375 7.282862663269043 372.91925048828125 C 6.769615650177002 373.90020751953125 5.680953025817871 371.8328857421875 4.615489959716797 371.0426940917969 C 3.024751663208008 370.0527038574219 2.118924140930176 368.7196960449219 3.6527867317199707 366.94256591796875 C 2.8577468395233154 366.72265625 6.2922682762146 366.5287780761719 11.014260292053223 372.9725341796875" stroke-width="0.0" fill="rgb(255, 255, 255)" opacity="0.6376046"/>
    <path d="M 598.8115234375 390.7560119628906 C 597.0887451171875 391.2830505371094 598.58740234375 393.0616149902344 598.19970703125 391.7142639160156 C 599.36376953125 392.6427307128906 601.3152465820312 394.561767578125 601.041259765625 394.64996337890625 C 599.9099731445312 392.6104736328125 601.2472534179688 390.4208984375 600.706787109375 388.37615966796875 C 600.161865234375 387.0631103515625 600.2645874023438 387.4431457519531 598.8115234375 390.7560119628906" stroke-width="0.0" fill="rgb(255, 255, 255)" opacity="0.7854476"/>
    <path d="M 572.8838500976562 403.467041015625 C 572.852294921875 401.5013732910156 571.4442138671875 403.04498291015625 570.365478515625 402.9350280761719 C 568.8606567382812 404.1566467285156 571.4517822265625 404.41754150390625 570.9498291015625 403.5903015136719 C 571.2191162109375 401.79522705078125 573.5118408203125 402.5087585449219 572.7449951171875 402.97625732421875 C 572.9552612304688 403.5440673828125 572.7740478515625 404.6714172363281 572.8838500976562 403.467041015625" stroke-width="0.0" fill="rgb(255, 255, 255)" opacity="0.7956554"/>
    <path d="M 339.1175231933594 588.6165161132812 C 336.82855224609375 589.9174194335938 337.8277282714844 589.8807983398438 339.70233154296875 590.6842041015625 C 341.7494201660156 588.805908203125 340.6497802734375 591.1115112304688 341.143310546875 590.9972534179688 C 340.1694030761719 591.4376831054688 338.11199951171875 588.8208618164062 337.16021728515625 590.382080078125 C 338.1285705566406 589.279052734375 339.4080505371094 588.4766845703125 339.1175231933594 588.6165161132812" stroke-width="0.0" fill="rgb(255, 255, 255)" opacity="0.7759428"/>
    <path d="M 588.0896606445312 447.49346923828125 C 586.9186401367188 448.7085266113281 589.1842041015625 450.33843994140625 588.1823120117188 449.564697265625 C 587.1698608398438 450.582763671875 585.901611328125 449.5837097167969 583.9207153320312 450.0040283203125 C 583.7119750976562 451.9658508300781 586.6372680664062 450.3621520996094 588.2272338867188 451.2616882324219 C 586.678955078125 453.7396545410156 583.7806396484375 450.4106140136719 588.0896606445312 447.49346923828125" stroke-width="0.0" fill="rgb(255, 255, 255)" opacity="0.7115319"/>
    <path d="M 572.8045654296875 386.4465026855469 C 574.00537109375 386.5158386230469 572.7888793945312 386.2087707519531 570.9069213867188 387.70013427734375 C 573.7327880859375 388.7561950683594 573.1504516601562 388.42315673828125 573.5961303710938 388.4198303222656 C 572.8092041015625 388.2421569824219 570.123291015625 387.46685791015625 569.58642578125 387.67779541015625 C 569.1039428710938 386.99334716796875 569.866455078125 389.05780029296875 572.8045654296875 386.4465026855469" stroke-width="0.0" fill="rgb(255, 255, 255)" opacity="0.72502184"/>
    <path d="M 376.9657897949219 570.9896240234375 C 375.9480895996094 572.9603881835938 375.363037109375 575.367919921875 375.2539367675781 576.8807983398438 C 375.63671875 576.1495361328125 374.4883117675781 578.416015625 377.1537170410156 580.480224609375 C 375.9073791503906 581.7161865234375 378.37451171875 580.5407104492188 376.2330627441406 579.653076171875 C 375.94793701171875 578.4502563476562 373.9552001953125 578.221923828125 376.9657897949219 570.9896240234375" stroke-width="0.0" fill="rgb(255, 255, 255)" opacity="0.7729626"/>
    <path d="M 17.0178279876709 12.43171501159668 C 16.843507766723633 10.41244125366211 17.770002365112305 8.537665367126465 15.411897659301758 11.206609725952148 C 14.308313369750977 11.610884666442871 16.144872665405273 13.791687965393066 12.727278709411621 12.861125946044922 C 13.474226951599121 12.91622257232666 12.41225814819336 16.10521697998047 13.365950584411621 17.325469970703125 C 13.282442092895508 17.80739402770996 12.047407150268555 19.19805335998535 17.0178279876709 12.43171501159668" stroke-width="0.0" fill="rgb(255, 255, 255)" opacity="0.6677804"/>
    <path d="M 592.71435546875 360.5122985839844 C 591.6483154296875 359.12384033203125 590.9579467773438 358.35125732421875 592.3378295898438 360.0181884765625 C 593.1725463867188 360.86358642578125 591.6563110351562 362.08990478515625 595.6412963867188 363.40118408203125 C 593.837646484375 365.1351013183594 595.0487060546875 365.1028747558594 594.406005859375 365.4018859863281 C 595.1829223632812 366.7996520996094 592.8026123046875 366.1053771972656 592.71435546875 360.5122985839844" stroke-width="0.0" fill="rgb(255, 255, 255)" opacity="0.726925"/>
    <path d="M 562.21142578125 594.0728759765625 C 563.4210205078125 593.3053588867188 564.9335327148438 595.2147216796875 565.5526123046875 596.451904296875 C 565.4332885742188 596.9688110351562 565.5439453125 595.2593994140625 566.8203735351562 596.33935546875 C 567.4699096679688 598.7081298828125 566.21826171875 597.8731079101562 564.6990966796875 598.0947265625 C 563.3916625976562 598.3121948242188 561.2875366210938 596.9603271484375 562.21142578125 594.0728759765625" stroke-width="0.0" fill="rgb(255, 255, 255)" opacity="0.69874537"/>
    <path d="M 19.363204956054688 495.3227233886719 C 19.485149383544922 495.9971008300781 20.078746795654297 494.15118408203125 16.935771942138672 495.2577819824219 C 17.04771614074707 493.745361328125 19.371740341186523 492.15289306640625 21.057287216186523 493.42059326171875 C 20.225507736206055 494.8514099121094 21.81536293029785 494.7953186035156 23.019039154052734 493.8839416503906 C 23.067296981811523 494.09124755859375 21.637638092041016 494.3711242675781 19.363204956054688 495.3227233886719" stroke-width="0.0" fill="rgb(255, 255, 255)" opacity="0.7080783"/>
    <path d="M 5.4924468994140625 503.6578063964844 C 5.675162315368652 505.320068359375 6.97852897644043 507.8265075683594 5.226296424865723 508.3724365234375 C 5.048896312713623 508.10394287109375 6.064383506774902 508.94647216796875 4.7174072265625 507.11724853515625 C 3.4386332035064697 506.6607360839844 3.705718755722046 504.9736328125 4.698476791381836 504.7931213378906 C 5.198089599609375 505.72454833984375 6.08679723739624 504.0313720703125 5.4924468994140625 503.6578063964844" stroke-width="0.0" fill="rgb(255, 255, 255)" opacity="0.75647664"/>
    <path d="M 28.524736404418945 68.7356185913086 C 31.721893310546875 66.6356430053711 29.54861068725586 65.64103698730469 27.791099548339844 65.9363021850586 C 25.831058502197266 66.8147964477539 27.28058433532715 68.09199523925781 29.26134490966797 67.97766876220703 C 29.4126033782959 68.6457290649414 27.452821731567383 68.83833312988281 26.72688102722168 69.34036254882812 C 27.586923599243164 67.01702117919922 25.845979690551758 66.09600830078125 28.524736404418945 68.7356185913086" stroke-width="0.0" fill="rgb(255, 255, 255)" opacity="0.72149545"/>
    <path d="M 259.68115234375 586.8334350585938 C 260.64013671875 587.3934936523438 259.6513671875 586.6802368164062 258.7843933105469 585.1961669921875 C 260.9659729003906 587.643798828125 259.45245361328125 589.4739379882812 261.0322570800781 587.5396118164062 C 260.7323913574219 585.8505249023438 263.1145935058594 584.26025390625 264.19482421875 585.2680053710938 C 263.711669921875 583.5003051757812 263.12158203125 582.6159057617188 259.68115234375 586.8334350585938" stroke-width="0.0" fill="rgb(255, 255, 255)" opacity="0.70195574"/>
    <path d="M 589.324462890625 432.1729431152344 C 591.1571655273438 430.0782470703125 592.7904663085938 428.6787109375 593.1031494140625 429.78302001953125 C 592.2521362304688 430.7124938964844 592.302734375 429.36029052734375 590.6653442382812 429.5164794921875 C 591.8818359375 429.60955810546875 594.25439453125 429.42559814453125 592.4500732421875 428.8954772949219 C 594.37841796875 426.5799865722656 596.3600463867188 424.7650451660156 589.324462890625 432.1729431152344" stroke-width="0.0" fill="rgb(255, 255, 255)" opacity="0.8233626"/>
    <path d="M 18.09260368347168 380.049560546875 C 17.602306365966797 378.8294982910156 18.62453269958496 380.5210266113281 18.216655731201172 381.1390075683594 C 18.20503807067871 379.10919189453125 19.319660186767578 379.63031005859375 18.977075576782227 381.8136901855469 C 20.737548828125 382.488525390625 20.772987365722656 381.61663818359375 21.11014747619629 381.8739929199219 C 20.385690689086914 379.7994689941406 22.066320419311523 379.91973876953125 18.09260368347168 380.049560546875" stroke-width="0.0" fill="rgb(255, 255, 255)" opacity="0.7945858"/>
    <path d="M 5.876537799835205 499.7088623046875 C 5.081014156341553 499.1085205078125 6.352480888366699 500.988037109375 7.879222869873047 499.749755859375 C 9.251872062683105 500.2919006347656 9.444207191467285 500.90887451171875 10.669231414794922 502.379638671875 C 7.771740436553955 501.36761474609375 6.709548473358154 502.27935791015625 8.80396556854248 503.3819885253906 C 10.481649398803711 505.3851013183594 8.901347160339355 504.69476318359375 5.876537799835205 499.7088623046875" stroke-width="0.0" fill="rgb(255, 255, 255)" opacity="0.6918306"/>
    <path d="M 502.5007629394531 565.8533325195312 C 503.57550048828125 567.978759765625 504.0920715332031 569.696044921875 504.006591796875 569.0321655273438 C 505.7230224609375 569.4266967773438 507.0599365234375 567.6934204101562 504.766357421875 569.1753540039062 C 504.7343444824219 571.92138671875 505.7131652832031 570.1838989257812 505.9707336425781 571.4705200195312 C 505.6938781738281 573.229248046875 505.4789123535156 572.71923828125 502.5007629394531 565.8533325195312" stroke-width="0.0" fill="rgb(255, 255, 255)" opacity="0.7055947"/>
    <path d="M 10.315173149108887 420.8931579589844 C 11.177840232849121 418.6174011230469 9.0392427444458 419.31561279296875 9.436640739440918 418.7272644042969 C 9.67054271697998 419.72314453125 7.524542331695557 417.7340087890625 9.157805442810059 418.9695739746094 C 10.806159019470215 418.7987976074219 9.778597831726074 420.83343505859375 10.416561126708984 419.17431640625 C 10.22005844116211 419.8509521484375 10.858453750610352 418.9024963378906 10.315173149108887 420.8931579589844" stroke-width="0.0" fill="rgb(255, 255, 255)" opacity="0.8398501"/>
    <path d="M 543.3742065429688 593.2341918945312 C 543.6751098632812 593.8088989257812 544.694580078125 592.71435546875 545.3318481445312 592.4071655273438 C 547.48779296875 590.2760009765625 548.7311401367188 587.7041015625 549.608642578125 589.3031616210938 C 552.6411743164062 588.0105590820312 552.6204833984375 585.7173461914062 552.3795166015625 585.06591796875 C 552.957763671875 586.2830810546875 553.0509643554688 587.9134521484375 543.3742065429688 593.2341918945312" stroke-width="0.0" fill="rgb(255, 255, 255)" opacity="0.6303608"/>
    <path d="M 277.99359130859375 594.6896362304688 C 279.3442077636719 593.2018432617188 279.57550048828125 593.8175048828125 280.34307861328125 593.6513061523438 C 282.2397766113281 596.0811157226562 280.8476867675781 593.7511596679688 279.6582946777344 593.5794677734375 C 277.94970703125 594.0883178710938 276.1051330566406 596.4762573242188 277.5303649902344 595.1400146484375 C 275.7512512207031 595.885009765625 273.87518310546875 597.8026733398438 277.99359130859375 594.6896362304688" stroke-width="0.0" fill="rgb(255, 255, 255)" opacity="0.79992336"/>
    <path d="M 542.9093017578125 583.3182983398438 C 541.0220947265625 582.1776123046875 541.5147094726562 579.350830078125 543.0599365234375 578.6561889648438 C 541.0156860351562 580.0923461914062 542.657958984375 580.6828002929688 541.4879760742188 581.9678344726562 C 540.8232421875 582.1516723632812 540.9288940429688 582.12451171875 540.8934936523438 581.4803466796875 C 541.87841796875 580.1688842773438 543.6474609375 578.049560546875 542.9093017578125 583.3182983398438" stroke-width="0.0" fill="rgb(255, 255, 255)" opacity="0.7500854"/>
    <path d="M 568.1685180664062 339.76300048828125 C 567.5907592773438 339.9150390625 566.6913452148438 338.9025573730469 568.2255249023438 340.45703125 C 567.6210327148438 341.1629333496094 565.5557861328125 342.9426574707031 565.03857421875 341.8583984375 C 562.9043579101562 341.7897033691406 562.4134521484375 342.34649658203125 561.8905029296875 341.53302001953125 C 560.5792236328125 341.8924865722656 559.10693359375 342.2127990722656 568.1685180664062 339.76300048828125" stroke-width="0.0" fill="rgb(255, 255, 255)" opacity="0.66931856"/>
    <path d="M 567.900146484375 450.3023681640625 C 567.4954833984375 449.566650390625 569.31982421875 447.7012634277344 570.017578125 447.9696044921875 C 570.2625122070312 450.3933410644531 570.0906982421875 451.82257080078125 568.2642211914062 450.85791015625 C 568.5069580078125 451.8530578613281 568.4077758789062 454.084716796875 567.4000854492188 454.0901794433594 C 567.517578125 454.384521484375 569.3624877929688 452.7189636230469 567.900146484375 450.3023681640625" stroke-width="0.0" fill="rgb(255, 255, 255)" opacity="0.7295705"/>
    <path d="M 584.9279174804688 492.6736145019531 C 583.451904296875 491.699951171875 583.5360717773438 490.73907470703125 584.5324096679688 489.6284484863281 C 582.69482421875 488.0089416503906 584.5660400390625 490.22021484375 585.4313354492188 489.69342041015625 C 583.4732055664062 489.9227294921875 582.6140747070312 490.1278991699219 582.75244140625 490.40771484375 C 583.0883178710938 490.04400634765625 581.138916015625 488.62652587890625 584.9279174804688 492.6736145019531" stroke-width="0.0" fill="rgb(255, 255, 255)" opacity="0.8133416"/>
    <path d="M 253.68614196777344 574.7530517578125 C 253.39169311523438 574.5202026367188 251.54348754882812 574.6925048828125 250.7376251220703 574.0489501953125 C 249.03675842285156 573.705078125 249.14559936523438 573.5985107421875 250.76937866210938 574.3889770507812 C 252.03546142578125 571.5730590820312 249.81849670410156 570.310546875 246.04486083984375 571.2049560546875 C 244.98924255371094 573.2570190429688 247.22848510742188 573.7177734375 253.68614196777344 574.7530517578125" stroke-width="0.0" fill="rgb(255, 255, 255)" opacity="0.6831885"/>
    <path d="M 298.5937805175781 580.262939453125 C 297.2110900878906 578.2584838867188 295.2123107910156 579.8353271484375 296.111083984375 577.3015747070312 C 297.0908508300781 576.5502319335938 299.8524169921875 577.0907592773438 302.07562255859375 578.2508544921875 C 301.20654296875 578.889892578125 303.61273193359375 577.2127075195312 304.3258972167969 576.0723876953125 C 306.21209716796875 575.5039672851562 304.9502258300781 572.0609130859375 298.5937805175781 580.262939453125" stroke-width="0.0" fill="rgb(255, 255, 255)" opacity="0.6397986"/>
    <path d="M 584.443115234375 382.59271240234375 C 585.081298828125 383.24041748046875 585.3102416992188 383.40374755859375 584.8768920898438 385.3177185058594 C 583.1243286132812 383.40435791015625 581.9285278320312 384.021240234375 580.5596313476562 382.78564453125 C 581.565673828125 383.84002685546875 582.054931640625 383.2671813964844 583.51025390625 384.2425231933594 C 583.0760498046875 384.9609069824219 582.5036010742188 385.82879638671875 584.443115234375 382.59271240234375" stroke-width="0.0" fill="rgb(255, 255, 255)" opacity="0.75730395"/>
    <path d="M 21.9915828704834 358.86236572265625 C 21.733688354492188 356.6802062988281 19.964120864868164 358.7402648925781 21.482566833496094 360.1426696777344 C 21.838937759399414 359.8378601074219 23.38692283630371 359.5545349121094 23.25556755065918 361.4623107910156 C 22.218528747558594 362.7115783691406 22.775962829589844 361.6523742675781 24.167741775512695 359.340576171875 C 24.339967727661133 359.3888244628906 26.388896942138672 360.0711669921875 21.9915828704834 358.86236572265625" stroke-width="0.0" fill="rgb(255, 255, 255)" opacity="0.7146071"/>
    <path d="M 594.9312744140625 400.6549987792969 C 597.777099609375 402.1348571777344 595.2185668945312 404.08050537109375 592.4415283203125 402.4972229003906 C 594.3611450195312 402.073974609375 593.0623168945312 400.173828125 591.9680786132812 399.05169677734375 C 591.2111206054688 398.1761474609375 593.3628540039062 399.4389343261719 591.641357421875 400.9607238769531 C 589.6067504882812 401.4043273925781 591.4105224609375 403.3736572265625 594.9312744140625 400.6549987792969" stroke-width="0.0" fill="rgb(255, 255, 255)" opacity="0.68003243"/>
    <path d="M 584.156982421875 361.3998718261719 C 585.169189453125 360.3645935058594 582.75927734375 360.7528381347656 583.027099609375 360.4088439941406 C 583.6217041015625 361.7021179199219 584.64453125 363.07989501953125 584.2083740234375 360.5014953613281 C 581.9591064453125 358.87261962890625 581.49853515625 357.45513916015625 581.2962646484375 359.2579345703125 C 579.2482299804688 361.05853271484375 578.3807983398438 362.92401123046875 584.156982421875 361.3998718261719" stroke-width="0.0" fill="rgb(255, 255, 255)" opacity="0.8019161"/>
    <path d="M 333.5133056640625 589.6554565429688 C 332.5775451660156 588.4317626953125 334.61053466796875 590.0171508789062 333.9600830078125 586.67236328125 C 333.552001953125 587.5341186523438 333.86346435546875 586.4405517578125 335.09375 586.850830078125 C 336.0445556640625 587.8021850585938 335.527587890625 586.2739868164062 333.5716247558594 586.9832763671875 C 332.23504638671875 586.8760375976562 333.0649719238281 588.9775390625 333.5133056640625 589.6554565429688" stroke-width="0.0" fill="rgb(255, 255, 255)" opacity="0.8219812"/>
    <path d="M 533.41455078125 582.022705078125 C 530.9555053710938 581.6688232421875 530.1189575195312 579.4634399414062 531.328369140625 579.2420654296875 C 533.2246704101562 577.9976806640625 531.8676147460938 576.853271484375 529.356689453125 575.5899658203125 C 528.3848876953125 574.1302490234375 527.6051025390625 575.0352783203125 525.9791259765625 576.4893798828125 C 526.320556640625 579.0515747070312 523.8448486328125 578.5516967773438 533.41455078125 582.022705078125" stroke-width="0.0" fill="rgb(255, 255, 255)" opacity="0.6599494"/>
    <path d="M 513.5929565429688 566.9405517578125 C 516.3447875976562 566.8567504882812 517.8675537109375 568.9329223632812 518.9950561523438 567.7877197265625 C 518.8529052734375 565.3685913085938 519.2438354492188 563.528076171875 518.5887451171875 564.00244140625 C 519.2510375976562 564.1075439453125 521.58740234375 563.5004272460938 520.7882690429688 564.287841796875 C 521.9407958984375 565.830322265625 519.3612670898438 568.1343383789062 513.5929565429688 566.9405517578125" stroke-width="0.0" fill="rgb(255, 255, 255)" opacity="0.6918946"/>
    <path d="M 567.599609375 486.7651062011719 C 568.4388427734375 487.5873718261719 567.8760375976562 488.2403564453125 568.2925415039062 489.0352478027344 C 568.6209716796875 488.8919677734375 566.8289184570312 487.31024169921875 569.0791015625 486.84869384765625 C 570.33837890625 487.5920715332031 571.7764282226562 488.9471130371094 570.64013671875 488.79620361328125 C 572.4200439453125 488.2663879394531 569.3431396484375 490.79705810546875 567.599609375 486.7651062011719" stroke-width="0.0" fill="rgb(255, 255, 255)" opacity="0.74049515"/>
    <path d="M 28.078107833862305 374.1679382324219 C 27.935075759887695 375.2196350097656 26.325254440307617 376.7757263183594 28.089458465576172 375.01763916015625 C 25.587461471557617 373.099609375 23.56058692932129 374.0078430175781 23.884851455688477 374.8721618652344 C 24.19269371032715 376.47320556640625 25.947742462158203 374.8659362792969 27.87310218811035 376.29962158203125 C 26.1529483795166 378.7942810058594 28.20221519470215 377.1509704589844 28.078107833862305 374.1679382324219" stroke-width="0.0" fill="rgb(255, 255, 255)" opacity="0.8334177"/>
    <path d="M 571.9014892578125 358.1051025390625 C 572.1134033203125 356.7724609375 572.18212890625 355.19830322265625 571.3984375 356.1471862792969 C 569.7540283203125 359.1894226074219 567.065185546875 357.5113525390625 567.318115234375 358.1840515136719 C 567.390380859375 357.3856201171875 566.0881958007812 358.7461242675781 567.8676147460938 359.3045959472656 C 567.760009765625 357.60699462890625 569.4908447265625 357.46240234375 571.9014892578125 358.1051025390625" stroke-width="0.0" fill="rgb(255, 255, 255)" opacity="0.75066775"/>
    <path d="M 321.7818908691406 577.6532592773438 C 320.256591796875 579.90625 321.01019287109375 577.7002563476562 320.8081359863281 577.7437744140625 C 320.7077331542969 579.4409790039062 321.8627624511719 579.491943359375 321.02777099609375 579.065673828125 C 321.90673828125 577.4029541015625 321.74761962890625 577.813232421875 320.28631591796875 579.0764770507812 C 320.66168212890625 578.8480834960938 318.44647216796875 580.670654296875 321.7818908691406 577.6532592773438" stroke-width="0.0" fill="rgb(255, 255, 255)" opacity="0.84619874"/>
    <path d="M 531.8377685546875 577.9276733398438 C 529.2693481445312 579.1776733398438 528.5352172851562 580.689697265625 529.170654296875 582.7702026367188 C 528.9722290039062 581.8990478515625 528.9102172851562 581.2841796875 529.7117309570312 583.61865234375 C 529.3339233398438 581.2377319335938 527.0950927734375 581.8067626953125 528.2679443359375 582.960693359375 C 529.5140380859375 582.8030395507812 528.0284423828125 584.5385131835938 531.8377685546875 577.9276733398438" stroke-width="0.0" fill="rgb(255, 255, 255)" opacity="0.7941324"/>
    <path d="M 66.27991485595703 590.4421997070312 C 68.27127838134766 590.2894287109375 66.02986145019531 589.7913818359375 67.33479309082031 588.78173828125 C 65.9948959350586 587.962158203125 67.70775604248047 589.2017822265625 69.30696868896484 589.7816772460938 C 68.8743896484375 590.15478515625 68.84069061279297 588.7821044921875 67.71508026123047 589.7466430664062 C 68.86337280273438 589.1323852539062 67.44271087646484 590.626953125 66.27991485595703 590.4421997070312" stroke-width="0.0" fill="rgb(255, 255, 255)" opacity="0.8055975"/>
    <path d="M 596.9937744140625 534.8745727539062 C 597.005126953125 535.5950927734375 595.509765625 534.2882690429688 594.9214477539062 533.17822265625 C 594.6055908203125 532.5806884765625 595.5364379882812 531.296142578125 596.9515380859375 531.7559204101562 C 595.9064331054688 532.2071533203125 595.1727905273438 532.1478271484375 596.75439453125 531.2872924804688 C 594.1559448242188 529.0806884765625 596.959228515625 529.71923828125 596.9937744140625 534.8745727539062" stroke-width="0.0" fill="rgb(255, 255, 255)" opacity="0.72859514"/>
    <path d="M 1.5939054489135742 312.71746826171875 C 3.3578245639801025 315.49786376953125 0.6582181453704834 316.94952392578125 -1.452727198600769 317.8750305175781 C -2.973606586456299 320.6805725097656 -4.635208606719971 319.32220458984375 -6.622762203216553 321.0103454589844 C -4.2200608253479 320.5146789550781 -3.8726508617401123 320.792724609375 -5.071786403656006 320.7353820800781 C -6.0258708000183105 321.9676513671875 -6.425631046295166 321.08624267578125 1.5939054489135742 312.71746826171875" stroke-width="0.0" fill="rgb(255, 255, 255)" opacity="0.7562619"/>
    <path d="M 343.70318603515625 568.3936157226562 C 345.4664001464844 568.0284423828125 346.07696533203125 565.4512939453125 348.0706787109375 564.8591918945312 C 348.46099853515625 564.7168579101562 347.3467102050781 563.7285766601562 348.5506896972656 564.293701171875 C 348.0992126464844 564.5318603515625 347.09722900390625 562.0654296875 348.41845703125 561.330078125 C 350.8085632324219 559.1652221679688 351.6938781738281 556.5381469726562 343.70318603515625 568.3936157226562" stroke-width="0.0" fill="rgb(255, 255, 255)" opacity="0.65562946"/>
    <path d="M 313.42877197265625 598.5100708007812 C 312.7094421386719 596.7979736328125 310.64190673828125 594.8584594726562 310.11822509765625 596.4924926757812 C 309.61865234375 593.7717895507812 310.26654052734375 592.6043701171875 312.0049133300781 592.7301635742188 C 314.3565673828125 591.3094482421875 312.6555480957031 590.5115356445312 314.0574035644531 592.7151489257812 C 315.5090026855469 593.4716186523438 315.6414794921875 594.5413818359375 313.42877197265625 598.5100708007812" stroke-width="0.0" fill="rgb(255, 255, 255)" opacity="0.687417"/>
    <path d="M -6.649273872375488 49.28256607055664 C 3.7470686435699463 47.222747802734375 3.2250702381134033 46.433712005615234 -9.315045356750488 50.415687561035156 C -2.517244815826416 63.083003997802734 -0.81177818775177 63.8010139465332 0.2545272707939148 66.98361206054688 C 16.174720764160156 57.99165344238281 19.077966690063477 54.56098175048828 28.21664047241211 49.3857307434082 C 23.845558166503906 46.096710205078125 17.582969665527344 51.33119583129883 -6.649273872375488 49.28256607055664" stroke-width="0.0" fill="rgb(20, 20, 20)" opacity="1.0"/>
    <path d="M 6.181082248687744 381.71124267578125 C 8.41639232635498 383.2561340332031 6.015013217926025 384.6554870605469 3.238626718521118 386.59893798828125 C 2.5222012996673584 389.2508850097656 1.1520527601242065 387.9901123046875 2.4159047603607178 387.1369323730469 C 4.7528228759765625 386.5013427734375 4.23892068862915 383.2518005371094 3.0408167839050293 382.1761779785156 C 4.631720542907715 383.7358703613281 6.21825647354126 383.32415771484375 6.181082248687744 381.71124267578125" stroke-width="0.0" fill="rgb(255, 255, 255)" opacity="0.67903954"/>
    <path d="M 542.8143310546875 567.079833984375 C 540.3654174804688 566.915771484375 540.9318237304688 566.5792846679688 541.099609375 567.6270141601562 C 542.595458984375 567.5706787109375 544.4736328125 565.7858276367188 541.935546875 564.6102905273438 C 543.6464233398438 563.685791015625 541.4150390625 564.5518798828125 539.6602783203125 567.0128173828125 C 537.1068725585938 566.6383056640625 536.374267578125 569.442138671875 542.8143310546875 567.079833984375" stroke-width="0.0" fill="rgb(255, 255, 255)" opacity="0.70272017"/>
    <path d="M 572.5606079101562 529.8719482421875 C 574.12109375 528.6690063476562 573.7760009765625 527.9546508789062 571.60693359375 530.8003540039062 C 569.3641967773438 532.797607421875 572.399658203125 534.0195922851562 575.24560546875 534.0556030273438 C 574.3343505859375 535.8807983398438 575.3450317382812 536.5432739257812 577.7710571289062 535.7571411132812 C 578.3221435546875 538.6278076171875 577.0681762695312 537.3697509765625 572.5606079101562 529.8719482421875" stroke-width="0.0" fill="rgb(255, 255, 255)" opacity="0.62565136"/>
    <path d="M 525.1624755859375 563.5339965820312 C 525.9193725585938 563.8914794921875 524.679931640625 563.2738037109375 526.3632202148438 563.8323974609375 C 524.3969116210938 562.98583984375 525.258544921875 564.1104125976562 523.3798828125 565.033447265625 C 524.4744262695312 564.2791748046875 526.1339721679688 562.6852416992188 525.3267211914062 562.9322509765625 C 527.4011840820312 564.166259765625 525.1809692382812 562.39599609375 525.1624755859375 563.5339965820312" stroke-width="0.0" fill="rgb(255, 255, 255)" opacity="0.87696797"/>
    <path d="M 14.317936897277832 394.05352783203125 C 17.05530548095703 392.8876037597656 15.751147270202637 392.9033203125 13.611143112182617 395.0352783203125 C 11.565717697143555 397.3885192871094 9.357367515563965 395.6423645019531 13.015532493591309 393.7725830078125 C 15.092086791992188 395.0492858886719 16.097043991088867 393.4840393066406 16.95160675048828 393.4491271972656 C 17.919198989868164 392.1860046386719 16.153057098388672 394.5329284667969 14.317936897277832 394.05352783203125" stroke-width="0.0" fill="rgb(255, 255, 255)" opacity="0.69476"/>
    <path d="M 590.545166015625 584.2407836914062 C 592.1757202148438 582.3112182617188 589.46875 581.13916015625 587.5427856445312 579.3350219726562 C 587.0535278320312 579.4141235351562 586.9109497070312 578.4783325195312 586.3515014648438 576.6577758789062 C 586.95263671875 575.67138671875 587.3981323242188 575.6755981445312 587.238037109375 575.1365966796875 C 586.5540161132812 577.4801635742188 585.24169921875 575.9502563476562 590.545166015625 584.2407836914062" stroke-width="0.0" fill="rgb(255, 255, 255)" opacity="0.6642502"/>
    <path d="M 579.7442016601562 357.07550048828125 C 580.4165649414062 358.4483947753906 583.2077026367188 360.10980224609375 584.7490844726562 361.29766845703125 C 585.0328369140625 360.78826904296875 586.0171508789062 363.544677734375 582.9512939453125 363.19305419921875 C 580.7550048828125 362.003662109375 581.5064697265625 360.9752502441406 580.4730224609375 360.73004150390625 C 582.106201171875 358.3514709472656 583.149658203125 356.38873291015625 579.7442016601562 357.07550048828125" stroke-width="0.0" fill="rgb(255, 255, 255)" opacity="0.70121455"/>
    <path d="M 529.3236083984375 566.1200561523438 C 529.0730590820312 568.4816284179688 530.960693359375 569.8456420898438 530.6258544921875 571.1243286132812 C 530.5277099609375 570.5947875976562 530.8134765625 568.6621704101562 530.67626953125 570.2716064453125 C 532.2196044921875 571.6527099609375 534.1284790039062 572.5484008789062 534.2783813476562 572.6937866210938 C 531.7057495117188 571.12939453125 529.6654663085938 570.6464233398438 529.3236083984375 566.1200561523438" stroke-width="0.0" fill="rgb(255, 255, 255)" opacity="0.8163752"/>
    <path d="M 30.742555618286133 44.02250671386719 C 30.163251876831055 45.033992767333984 31.721343994140625 42.50835037231445 30.771892547607422 43.01121520996094 C 33.48311996459961 42.888694763183594 32.48450469970703 43.25007247924805 33.91463088989258 42.89419174194336 C 34.185791015625 44.70140838623047 34.439613342285156 43.069332122802734 33.87563705444336 44.054927825927734 C 35.54216003417969 43.89817428588867 33.82035827636719 44.082401275634766 30.742555618286133 44.02250671386719" stroke-width="0.0" fill="rgb(255, 255, 255)" opacity="0.83032686"/>
    <path d="M 594.0794677734375 485.06072998046875 C 593.5252685546875 484.630615234375 595.0060424804688 482.62939453125 595.238037109375 481.9227600097656 C 592.8550415039062 482.06683349609375 593.69287109375 481.4544677734375 592.1702880859375 483.7503967285156 C 592.8421630859375 482.36181640625 592.5380859375 482.4665832519531 595.0490112304688 483.70416259765625 C 593.246826171875 483.5254211425781 591.7647705078125 484.9118347167969 594.0794677734375 485.06072998046875" stroke-width="0.0" fill="rgb(255, 255, 255)" opacity="0.74696577"/>
    <path d="M 294.8117370605469 593.5014038085938 C 295.3421936035156 590.8408203125 296.19171142578125 590.35546875 295.4283447265625 589.7321166992188 C 294.8282775878906 590.8059692382812 294.60601806640625 589.2301025390625 294.8421630859375 590.7637939453125 C 294.7051086425781 589.328369140625 295.7908020019531 587.8186645507812 296.0586242675781 589.8360595703125 C 296.6194763183594 588.4324951171875 296.3729553222656 587.8682861328125 294.8117370605469 593.5014038085938" stroke-width="0.0" fill="rgb(255, 255, 255)" opacity="0.7836407"/>
    <path d="M 272.0591735839844 591.6892700195312 C 272.82696533203125 592.2630004882812 274.09930419921875 592.3598022460938 272.4117736816406 591.2622680664062 C 273.4148254394531 592.928466796875 273.11578369140625 591.7801513671875 272.6129150390625 590.725830078125 C 271.0462646484375 588.201904296875 271.6551208496094 586.6777954101562 270.8004455566406 585.1397094726562 C 270.02276611328125 584.9445190429688 271.55023193359375 584.6322021484375 272.0591735839844 591.6892700195312" stroke-width="0.0" fill="rgb(255, 255, 255)" opacity="0.72800565"/>
    <path d="M 555.3997192382812 478.9440002441406 C 553.2999267578125 478.877197265625 554.165283203125 479.750732421875 555.3411254882812 479.0294494628906 C 554.7227172851562 478.79193115234375 555.2130126953125 481.2434997558594 554.9447021484375 481.98895263671875 C 552.5538330078125 481.62078857421875 555.1674194335938 480.4726867675781 553.6820678710938 479.45428466796875 C 551.1943969726562 478.8704833984375 553.143798828125 480.058837890625 555.3997192382812 478.9440002441406" stroke-width="0.0" fill="rgb(255, 255, 255)" opacity="0.7730241"/>
    <path d="M 575.1957397460938 398.06414794921875 C 573.1317138671875 399.13519287109375 575.5340576171875 398.0957336425781 576.2529907226562 396.4869689941406 C 575.396728515625 398.4468078613281 573.8458251953125 397.9890441894531 575.6627197265625 396.93890380859375 C 576.9909057617188 396.5909729003906 575.0807495117188 398.890625 576.2608642578125 397.0484313964844 C 577.5011596679688 396.5716552734375 577.331298828125 398.7584228515625 575.1957397460938 398.06414794921875" stroke-width="0.0" fill="rgb(255, 255, 255)" opacity="0.81260264"/>
    <path d="M 558.1351318359375 470.6438903808594 C 557.8856811523438 469.29742431640625 558.8943481445312 469.9192810058594 560.2392578125 469.9439697265625 C 559.0122680664062 466.9931335449219 561.6339111328125 467.6922607421875 561.581298828125 469.2981872558594 C 562.717529296875 466.87603759765625 562.0026245117188 466.9207763671875 559.286376953125 467.1131896972656 C 557.6412353515625 465.6031799316406 560.4711303710938 466.7129211425781 558.1351318359375 470.6438903808594" stroke-width="0.0" fill="rgb(255, 255, 255)" opacity="0.7276188"/>
    <path d="M 24.382137298583984 67.8900146484375 C 2.6103715896606445 61.318397521972656 6.4461236000061035 53.841590881347656 7.010042667388916 53.4727783203125 C -6.465569496154785 50.42973327636719 -6.381010055541992 55.54637908935547 -3.9168639183044434 66.23101806640625 C -2.028977155685425 68.96283721923828 -2.8734869956970215 68.50220489501953 -8.083186149597168 72.14997863769531 C 9.330344200134277 74.4776840209961 11.070548057556152 72.08025360107422 24.382137298583984 67.8900146484375" stroke-width="0.0" fill="rgb(0, 0, 0)" opacity="0.9772227"/>
    <path d="M 567.0593872070312 543.4022827148438 C 568.1868286132812 546.5379028320312 568.7076416015625 545.0983276367188 567.6848754882812 545.1195678710938 C 566.4158325195312 542.7119140625 567.6435546875 540.2567138671875 567.2960205078125 537.7786865234375 C 565.8047485351562 535.8070678710938 565.7278442382812 537.6459350585938 566.2594604492188 538.1356811523438 C 567.6834106445312 537.8372192382812 567.5656127929688 535.5585327148438 567.0593872070312 543.4022827148438" stroke-width="0.0" fill="rgb(255, 255, 255)" opacity="0.75768465"/>
    <path d="M 42.8331298828125 590.3916015625 C 44.6834602355957 591.2274780273438 45.564353942871094 591.5935668945312 47.91004180908203 592.59228515625 C 48.4162712097168 595.153564453125 50.70852279663086 595.8335571289062 51.041507720947266 594.4242553710938 C 50.55669403076172 594.540771484375 50.96852111816406 594.0558471679688 52.29423522949219 594.9698486328125 C 53.76634979248047 596.7471313476562 53.96438217163086 594.9657592773438 42.8331298828125 590.3916015625" stroke-width="0.0" fill="rgb(255, 255, 255)" opacity="0.7049351"/>
    <path d="M 3.1793155670166016 336.913330078125 C 1.9889782667160034 338.1350402832031 3.6820425987243652 338.70294189453125 6.679649353027344 336.9637756347656 C 6.028771877288818 338.01678466796875 3.985201120376587 338.0039367675781 4.80869197845459 338.0714416503906 C 7.630404949188232 337.32366943359375 7.17315149307251 336.83203125 4.66162633895874 337.3888854980469 C 5.435741424560547 337.82562255859375 7.7241106033325195 337.16778564453125 3.1793155670166016 336.913330078125" stroke-width="0.0" fill="rgb(255, 255, 255)" opacity="0.74512833"/>
    <path d="M 11.728221893310547 430.7287902832031 C 12.188455581665039 429.55712890625 12.460762023925781 430.4512939453125 11.853456497192383 430.3922424316406 C 13.46839714050293 428.72589111328125 15.27171516418457 426.80364990234375 16.45094871520996 424.8996887207031 C 16.750600814819336 423.9353332519531 16.611370086669922 425.0513610839844 17.15373420715332 423.7346496582031 C 17.782390594482422 421.8283996582031 17.921276092529297 424.2958068847656 11.728221893310547 430.7287902832031" stroke-width="0.0" fill="rgb(255, 255, 255)" opacity="0.7809857"/>
    <path d="M 582.1797485351562 395.2300720214844 C 584.3514404296875 395.5997009277344 584.290283203125 393.3728942871094 583.7197265625 391.9699401855469 C 582.8043212890625 392.369140625 583.1039428710938 389.6872863769531 581.175048828125 388.7589416503906 C 580.5875854492188 389.70062255859375 581.2645263671875 391.6340637207031 580.8892822265625 391.8955383300781 C 580.3028564453125 391.5679626464844 578.34521484375 393.4644470214844 582.1797485351562 395.2300720214844" stroke-width="0.0" fill="rgb(255, 255, 255)" opacity="0.6808957"/>
    <path d="M 357.38519287109375 570.136474609375 C 356.3951721191406 568.0067749023438 352.96514892578125 568.6837768554688 351.82733154296875 570.8001098632812 C 349.985107421875 572.2501831054688 348.7669982910156 573.385498046875 351.3635559082031 574.5131225585938 C 351.80767822265625 573.40087890625 351.1096496582031 574.3117065429688 350.9498291015625 575.89599609375 C 350.8721923828125 576.9295654296875 351.4521789550781 576.1754760742188 357.38519287109375 570.136474609375" stroke-width="0.0" fill="rgb(255, 255, 255)" opacity="0.6335111"/>
    <path d="M 591.197021484375 368.1268310546875 C 590.7946166992188 367.9094543457031 589.03955078125 369.0428771972656 590.10009765625 368.8376159667969 C 587.62109375 366.88177490234375 585.3777465820312 368.9102478027344 588.1808471679688 369.4151306152344 C 587.6245727539062 368.2906494140625 589.32763671875 366.60919189453125 587.585693359375 369.0841064453125 C 585.2230224609375 369.400146484375 586.2017211914062 369.5222473144531 591.197021484375 368.1268310546875" stroke-width="0.0" fill="rgb(255, 255, 255)" opacity="0.70655197"/>
    <path d="M 593.518310546875 460.3260803222656 C 593.2001953125 459.27459716796875 590.9738159179688 461.48089599609375 590.5895385742188 461.01275634765625 C 593.9966430664062 460.236083984375 592.5156860351562 458.9800109863281 593.1491088867188 460.0552673339844 C 594.3446044921875 460.88446044921875 594.8801879882812 461.48712158203125 594.44677734375 461.23797607421875 C 595.7498779296875 461.80206298828125 595.46875 461.96661376953125 593.518310546875 460.3260803222656" stroke-width="0.0" fill="rgb(255, 255, 255)" opacity="0.79047114"/>
    <path d="M 0.7985852956771851 364.9698791503906 C 1.4918774366378784 366.115478515625 0.6393105983734131 364.3780822753906 1.313281536102295 366.22930908203125 C 0.5565228462219238 367.04852294921875 2.3995165824890137 368.2349548339844 1.3826282024383545 367.0957946777344 C 0.9501394629478455 368.96246337890625 1.6868711709976196 368.1463928222656 1.1014022827148438 365.7575378417969 C 2.606177568435669 368.53839111328125 2.890202522277832 370.1222839355469 0.7985852956771851 364.9698791503906" stroke-width="0.0" fill="rgb(255, 255, 255)" opacity="0.83559626"/>
    <path d="M 580.6177978515625 376.550048828125 C 581.8856201171875 375.9886169433594 580.39404296875 376.6546630859375 581.278564453125 377.9053955078125 C 583.4132080078125 378.4539489746094 583.7648315429688 377.0449523925781 582.1439819335938 376.9533996582031 C 582.086669921875 376.6751708984375 581.6532592773438 375.3617858886719 582.0244750976562 375.7806701660156 C 583.5362548828125 374.2453308105469 585.1373901367188 373.74798583984375 580.6177978515625 376.550048828125" stroke-width="0.0" fill="rgb(255, 255, 255)" opacity="0.75792456"/>
    <path d="M 597.7210693359375 349.64801025390625 C 600.0629272460938 348.120361328125 598.5025024414062 345.6596984863281 599.2914428710938 344.1297607421875 C 601.8934936523438 342.79718017578125 603.8749389648438 344.8714599609375 601.467041015625 343.1817932128906 C 602.21484375 344.09967041015625 602.19140625 345.8607482910156 602.4459838867188 345.1337890625 C 603.0853881835938 343.6217346191406 605.0165405273438 342.7877197265625 597.7210693359375 349.64801025390625" stroke-width="0.0" fill="rgb(255, 255, 255)" opacity="0.8314763"/>
    <path d="M 598.1585083007812 346.31146240234375 C 599.0551147460938 346.77783203125 598.13818359375 346.3609619140625 597.6966552734375 346.0997009277344 C 599.1636352539062 345.9267578125 600.8024291992188 345.8211669921875 599.40966796875 344.31378173828125 C 596.7537231445312 344.52728271484375 598.085205078125 344.0076904296875 601.3995971679688 344.9583435058594 C 599.8024291992188 346.6594543457031 597.3579711914062 348.02557373046875 598.1585083007812 346.31146240234375" stroke-width="0.0" fill="rgb(255, 255, 255)" opacity="0.83950955"/>
    <path d="M 39.95633316040039 587.200927734375 C 40.032100677490234 586.069580078125 40.38636016845703 585.3016357421875 39.88718795776367 586.8499755859375 C 41.990562438964844 588.5703735351562 40.4184684753418 590.1544189453125 40.65091323852539 589.78515625 C 38.51123046875 590.9544067382812 40.72016143798828 591.27099609375 42.2005500793457 591.0325927734375 C 43.82529830932617 591.075439453125 43.691734313964844 588.9805297851562 39.95633316040039 587.200927734375" stroke-width="0.0" fill="rgb(255, 255, 255)" opacity="0.7177974"/>
    <path d="M 24.686246871948242 56.95149230957031 C 23.79060173034668 57.23567199707031 22.949872970581055 57.57652282714844 7.751119136810303 59.20262908935547 C 9.643030166625977 52.25515365600586 11.577797889709473 47.229827880859375 40.359561920166016 48.61463165283203 C 42.46206283569336 47.781578063964844 42.199615478515625 58.664581298828125 39.60261154174805 58.352455139160156 C 19.967378616333008 56.24462890625 21.70203399658203 58.42425537109375 24.686246871948242 56.95149230957031" stroke-width="0.0" fill="rgb(0, 1, 1)" opacity="0.97241086"/>
    <path d="M 531.901611328125 584.5474853515625 C 531.827880859375 583.39697265625 532.0534057617188 584.8583984375 531.9810791015625 586.8132934570312 C 533.5053100585938 587.3192749023438 532.3518676757812 586.87744140625 534.6527709960938 589.1420288085938 C 533.4762573242188 589.541259765625 535.5625 588.3945922851562 536.9590454101562 589.3941650390625 C 538.6306762695312 591.7796020507812 540.9306030273438 592.9781494140625 531.901611328125 584.5474853515625" stroke-width="0.0" fill="rgb(255, 255, 255)" opacity="0.6938184"/>
    <path d="M 311.5689392089844 591.0660400390625 C 313.8949890136719 592.7902221679688 312.7643127441406 594.6766967773438 311.5613708496094 595.7183227539062 C 310.22454833984375 593.4730834960938 310.8988952636719 594.1741943359375 308.10382080078125 593.9473266601562 C 306.6228942871094 590.8679809570312 304.7548828125 592.3262329101562 302.1112365722656 591.9176025390625 C 301.15875244140625 590.0415649414062 302.0027770996094 588.6919555664062 311.5689392089844 591.0660400390625" stroke-width="0.0" fill="rgb(255, 255, 255)" opacity="0.6566471"/>
    <path d="M 74.77183532714844 592.5833740234375 C 78.19326782226562 593.788330078125 76.9169921875 592.918212890625 79.4853744506836 591.4474487304688 C 76.40452575683594 589.72705078125 76.9166030883789 592.1514892578125 77.00137329101562 593.5445556640625 C 76.12693786621094 592.6863403320312 77.94784545898438 595.517822265625 78.67728424072266 595.1613159179688 C 78.22465515136719 594.989990234375 80.81365203857422 596.9642944335938 74.77183532714844 592.5833740234375" stroke-width="0.0" fill="rgb(255, 255, 255)" opacity="0.699431"/>
    <path d="M 558.3738403320312 565.615966796875 C 558.2343139648438 564.2215576171875 558.4170532226562 565.57080078125 557.7088012695312 564.9766235351562 C 555.9638671875 564.97412109375 557.8290405273438 562.8662109375 556.3098754882812 562.5388793945312 C 558.8947143554688 563.734619140625 560.963134765625 562.8169555664062 559.6473999023438 561.9393920898438 C 559.5069580078125 562.2080688476562 556.8143310546875 564.1953735351562 558.3738403320312 565.615966796875" stroke-width="0.0" fill="rgb(255, 255, 255)" opacity="0.7382594"/>
    <path d="M 565.391357421875 364.0566711425781 C 564.1615600585938 363.2831726074219 564.5528564453125 362.016357421875 562.7808227539062 361.79376220703125 C 560.8984985351562 363.5345764160156 562.3438720703125 364.3412780761719 563.6480712890625 364.10943603515625 C 563.7852172851562 362.99395751953125 562.2451171875 364.2231140136719 563.9277954101562 362.93450927734375 C 563.1484375 363.2779235839844 562.7728881835938 364.3749084472656 565.391357421875 364.0566711425781" stroke-width="0.0" fill="rgb(255, 255, 255)" opacity="0.7368463"/>
    <path d="M 587.0855712890625 371.9428405761719 C 588.2228393554688 372.01165771484375 589.8392944335938 374.109619140625 588.7393798828125 376.62664794921875 C 589.53759765625 375.9891662597656 588.6397705078125 377.31060791015625 589.6526489257812 376.26129150390625 C 587.4273071289062 377.9992370605469 588.8890380859375 376.7590026855469 586.8117065429688 375.2196350097656 C 587.3851928710938 374.1824645996094 586.82861328125 371.99322509765625 587.0855712890625 371.9428405761719" stroke-width="0.0" fill="rgb(255, 255, 255)" opacity="0.71812594"/>
    <path d="M 502.5899963378906 595.7188110351562 C 502.4996032714844 595.4652709960938 500.9404296875 596.2553100585938 501.87060546875 595.8184814453125 C 501.1644592285156 595.44677734375 500.1573791503906 594.7147827148438 501.90228271484375 595.1705932617188 C 502.42901611328125 594.7586669921875 500.43817138671875 595.7124633789062 502.5865783691406 595.810546875 C 501.2303771972656 597.4247436523438 502.6637878417969 595.88671875 502.5899963378906 595.7188110351562" stroke-width="0.0" fill="rgb(255, 255, 255)" opacity="0.7955495"/>
    <path d="M 559.5117797851562 399.8874206542969 C 560.5162963867188 396.8567810058594 561.1708374023438 397.4779968261719 563.3648071289062 399.92718505859375 C 565.0158081054688 398.9154052734375 563.8539428710938 400.1573486328125 561.4301147460938 399.98602294921875 C 560.6358642578125 399.7444152832031 558.2326049804688 400.1723327636719 556.9400634765625 399.3473205566406 C 557.1046142578125 398.4951477050781 555.0368041992188 398.0828857421875 559.5117797851562 399.8874206542969" stroke-width="0.0" fill="rgb(255, 255, 255)" opacity="0.7775509"/>
    <path d="M 579.4033203125 372.804443359375 C 581.3448486328125 374.479736328125 579.32421875 375.7991638183594 577.8796997070312 374.7502136230469 C 577.9082641601562 374.1073913574219 577.9571533203125 372.266357421875 577.96630859375 373.0038146972656 C 578.9304809570312 372.68603515625 578.297607421875 372.810791015625 577.8165893554688 373.230712890625 C 579.8001708984375 372.4322204589844 577.763427734375 373.513916015625 579.4033203125 372.804443359375" stroke-width="0.0" fill="rgb(255, 255, 255)" opacity="0.78186136"/>
    <path d="M 361.59259033203125 571.5044555664062 C 360.3622131347656 572.4227905273438 358.0513000488281 572.6224975585938 359.3755187988281 575.1373901367188 C 358.46435546875 574.8754272460938 357.55206298828125 574.8462524414062 358.04052734375 576.1016845703125 C 357.20074462890625 577.0982055664062 359.3395080566406 579.2491455078125 361.2966613769531 580.3505249023438 C 362.18768310546875 581.1363525390625 359.5287780761719 579.847900390625 361.59259033203125 571.5044555664062" stroke-width="0.0" fill="rgb(255, 255, 255)" opacity="0.6446043"/>
    <path d="M -1.1861186027526855 42.828102111816406 C 0.3789971172809601 42.05402755737305 -0.4150785207748413 42.747344970703125 -2.119220018386841 42.51561737060547 C -3.2628798484802246 41.960411071777344 -0.7290604710578918 40.35819625854492 0.48617979884147644 41.87247848510742 C -0.31172990798950195 40.94413375854492 -0.08945127576589584 40.41783905029297 0.01644948124885559 41.23387908935547 C -0.4943344295024872 43.11894989013672 -0.3729192912578583 44.472957611083984 -1.1861186027526855 42.828102111816406" stroke-width="0.0" fill="rgb(255, 255, 255)" opacity="0.8487102"/>
    <path d="M 568.8452758789062 447.6985778808594 C 566.0402221679688 449.56201171875 567.930419921875 451.7501525878906 565.54833984375 451.0086364746094 C 563.6477661132812 451.9212341308594 564.278076171875 451.4563293457031 565.4517211914062 451.0247802734375 C 566.639892578125 451.3687438964844 568.4974365234375 449.8621826171875 566.6256713867188 450.7257080078125 C 568.6998291015625 448.7215270996094 569.5086059570312 450.4947814941406 568.8452758789062 447.6985778808594" stroke-width="0.0" fill="rgb(255, 255, 255)" opacity="0.7953206"/>
    <path d="M 370.966796875 579.7406616210938 C 369.232666015625 581.2365112304688 366.5967712402344 583.2316284179688 368.6134338378906 584.2684936523438 C 369.51904296875 581.7470092773438 371.9739990234375 582.8049926757812 372.3818664550781 584.069091796875 C 375.420654296875 583.7388305664062 373.6940002441406 584.8148803710938 375.59442138671875 583.0740966796875 C 377.1301574707031 583.0458374023438 374.82879638671875 580.4678955078125 370.966796875 579.7406616210938" stroke-width="0.0" fill="rgb(255, 255, 255)" opacity="0.6423634"/>
    <path d="M 23.163822174072266 377.0157775878906 C 21.249561309814453 375.1444396972656 23.67443084716797 377.71923828125 25.235397338867188 374.088623046875 C 24.524677276611328 373.8060302734375 25.828540802001953 374.73297119140625 28.109155654907227 373.773681640625 C 28.266986846923828 373.1809387207031 28.624664306640625 374.76312255859375 27.784517288208008 373.7198791503906 C 30.38018798828125 374.21868896484375 28.938539505004883 375.372314453125 23.163822174072266 377.0157775878906" stroke-width="0.0" fill="rgb(255, 255, 255)" opacity="0.6950704"/>
    <path d="M 47.85072708129883 595.80810546875 C 47.5770149230957 598.031494140625 49.566253662109375 596.426025390625 48.44722366333008 597.5313720703125 C 48.979488372802734 595.897216796875 50.86160659790039 595.120361328125 51.63121795654297 595.41845703125 C 52.775150299072266 595.3385620117188 52.45146560668945 595.2999877929688 49.838382720947266 595.4563598632812 C 49.95717239379883 596.9255981445312 51.61454772949219 595.8289184570312 47.85072708129883 595.80810546875" stroke-width="0.0" fill="rgb(255, 255, 255)" opacity="0.8077667"/>
    <path d="M 574.5712280273438 553.763671875 C 575.9067993164062 552.1039428710938 575.7960205078125 551.231689453125 575.980712890625 552.7035522460938 C 575.1455078125 550.6838989257812 574.1461791992188 549.697265625 573.1904907226562 548.8656616210938 C 574.7438354492188 550.2953491210938 575.4010009765625 551.6534423828125 576.5172729492188 552.9932250976562 C 575.6015014648438 551.2111206054688 574.8742065429688 553.5674438476562 574.5712280273438 553.763671875" stroke-width="0.0" fill="rgb(255, 255, 255)" opacity="0.7745453"/>
    <path d="M 555.7540893554688 552.3055419921875 C 559.1621704101562 552.7267456054688 557.5543212890625 553.97802734375 556.6637573242188 552.5604858398438 C 554.8258056640625 549.64501953125 554.0700073242188 551.0203857421875 555.02001953125 549.98583984375 C 554.2741088867188 547.729736328125 552.1942749023438 547.7588500976562 551.6708374023438 547.8999633789062 C 549.4274291992188 547.7843627929688 547.4804077148438 549.6500854492188 555.7540893554688 552.3055419921875" stroke-width="0.0" fill="rgb(255, 255, 255)" opacity="0.64360386"/>
    <path d="M 503.0920715332031 584.160888671875 C 502.75 582.4703369140625 503.2322692871094 580.84619140625 502.8379211425781 579.3863525390625 C 504.0686340332031 581.1202392578125 506.4472351074219 581.1295166015625 504.6100158691406 582.0614624023438 C 505.068359375 582.904541015625 504.3600158691406 581.6239624023438 506.94775390625 579.4727783203125 C 507.015625 581.3812866210938 507.8475341796875 584.4297485351562 503.0920715332031 584.160888671875" stroke-width="0.0" fill="rgb(255, 255, 255)" opacity="0.68530464"/>
    <path d="M 17.007661819458008 318.7099304199219 C 16.664003372192383 316.96197509765625 17.05155372619629 316.928466796875 16.902820587158203 318.4593200683594 C 18.546886444091797 319.6542663574219 18.493494033813477 321.800048828125 21.234603881835938 318.2489929199219 C 21.358835220336914 317.8922424316406 18.97041893005371 317.8061828613281 20.061946868896484 318.4889831542969 C 20.401086807250977 319.11077880859375 18.223127365112305 319.0943908691406 17.007661819458008 318.7099304199219" stroke-width="0.0" fill="rgb(255, 255, 255)" opacity="0.7386757"/>
    <path d="M 584.8685913085938 408.40228271484375 C 584.8048095703125 409.4403381347656 584.8128662109375 410.3544921875 584.5532836914062 411.6729431152344 C 584.3912963867188 412.1687927246094 585.8283081054688 412.2965393066406 584.9415893554688 415.3897705078125 C 585.0244750976562 414.18682861328125 585.1344604492188 416.4938049316406 585.1925659179688 416.1633605957031 C 582.9259643554688 415.59869384765625 584.0914306640625 417.18505859375 584.8685913085938 408.40228271484375" stroke-width="0.0" fill="rgb(255, 255, 255)" opacity="0.68913466"/>
    <path d="M 591.210693359375 351.8993835449219 C 589.3187866210938 350.32904052734375 587.8657836914062 350.8059997558594 587.652099609375 351.9152526855469 C 587.8261108398438 349.7445373535156 589.2166137695312 349.2084045410156 589.1392211914062 349.7882080078125 C 588.5831298828125 349.8923034667969 587.5153198242188 349.62078857421875 586.1185302734375 347.8805847167969 C 586.8486328125 348.21734619140625 585.7054443359375 348.1019592285156 591.210693359375 351.8993835449219" stroke-width="0.0" fill="rgb(255, 255, 255)" opacity="0.74311376"/>
    <path d="M 78.82242584228516 586.662109375 C 79.16799926757812 586.3310546875 80.93473052978516 585.4075317382812 79.33243560791016 586.4278564453125 C 79.73443603515625 586.6478881835938 77.13522338867188 586.1986694335938 76.5770034790039 585.779541015625 C 76.57521057128906 585.988037109375 76.32318115234375 585.96533203125 75.1611099243164 585.9872436523438 C 74.16368103027344 586.443603515625 76.04721069335938 585.432373046875 78.82242584228516 586.662109375" stroke-width="0.0" fill="rgb(255, 255, 255)" opacity="0.7777344"/>
    <path d="M 499.8720703125 557.4124755859375 C 502.12298583984375 554.9935302734375 503.9216003417969 555.6162109375 502.7878723144531 558.4320068359375 C 504.677490234375 559.9931640625 504.39959716796875 561.4493408203125 505.366455078125 558.5767211914062 C 506.7796325683594 560.3170776367188 507.8092041015625 561.5062866210938 506.351806640625 560.9324340820312 C 505.8963623046875 563.1405639648438 504.8154602050781 562.6424560546875 499.8720703125 557.4124755859375" stroke-width="0.0" fill="rgb(255, 255, 255)" opacity="0.6393147"/>
    <path d="M 301.2917785644531 593.6941528320312 C 299.32330322265625 592.8468017578125 299.6857604980469 591.6536865234375 300.59051513671875 591.989013671875 C 302.3091735839844 593.6560668945312 303.1915283203125 594.9093627929688 303.24945068359375 594.9719848632812 C 302.30535888671875 597.5399780273438 301.5548095703125 595.1348876953125 303.6188659667969 597.7236328125 C 302.8484191894531 596.31884765625 302.9989318847656 598.2240600585938 301.2917785644531 593.6941528320312" stroke-width="0.0" fill="rgb(255, 255, 255)" opacity="0.71561027"/>
    <path d="M 582.1038208007812 539.9191284179688 C 583.2898559570312 537.9816284179688 583.473388671875 536.2735595703125 583.4984741210938 536.9025268554688 C 582.0426025390625 536.8992919921875 583.258056640625 535.376708984375 583.6082153320312 536.0894165039062 C 584.608642578125 535.4644775390625 584.4313354492188 536.824951171875 584.2659912109375 535.9365844726562 C 584.885009765625 535.327392578125 583.802978515625 536.1305541992188 582.1038208007812 539.9191284179688" stroke-width="0.0" fill="rgb(255, 255, 255)" opacity="0.77750105"/>
    <path d="M 566.4089965820312 561.14013671875 C 566.8300170898438 560.2802124023438 568.1768798828125 559.7410888671875 569.55029296875 558.424072265625 C 570.9083862304688 559.7618408203125 573.8319702148438 561.0406494140625 575.9369506835938 562.2825317382812 C 573.636474609375 561.2008056640625 574.247314453125 561.3360595703125 576.3627319335938 559.2785034179688 C 574.2879028320312 558.0751953125 571.36279296875 556.1070556640625 566.4089965820312 561.14013671875" stroke-width="0.0" fill="rgb(255, 255, 255)" opacity="0.6440555"/>
    <path d="M 569.4638671875 582.8233032226562 C 567.60595703125 582.5443725585938 565.7421875 581.3627319335938 564.6357421875 584.290283203125 C 563.5353393554688 583.0633544921875 564.4834594726562 582.7740478515625 562.5304565429688 583.0921630859375 C 561.4462890625 582.3528442382812 563.0250244140625 583.8851928710938 561.8226318359375 582.2987060546875 C 562.0887451171875 582.5570068359375 562.1494140625 581.2675170898438 569.4638671875 582.8233032226562" stroke-width="0.0" fill="rgb(255, 255, 255)" opacity="0.73897064"/>
    <path d="M 594.8807373046875 582.9964599609375 C 596.3904418945312 584.8356323242188 596.6117553710938 584.1575927734375 597.264892578125 585.9820556640625 C 596.5478515625 585.6930541992188 597.3236083984375 588.1292724609375 596.7071533203125 587.755615234375 C 598.31982421875 588.5501708984375 598.0374145507812 587.6256713867188 597.82470703125 583.81640625 C 596.06640625 584.4168701171875 597.878173828125 586.1851806640625 594.8807373046875 582.9964599609375" stroke-width="0.0" fill="rgb(255, 255, 255)" opacity="0.76415056"/>
    <path d="M 598.9968872070312 547.0031127929688 C 601.3492431640625 549.3381958007812 601.7792358398438 551.1038818359375 603.9512939453125 549.694580078125 C 603.0999145507812 548.4500732421875 601.056640625 549.2112426757812 600.5121459960938 550.7808227539062 C 601.480224609375 548.9310302734375 602.317626953125 547.9037475585938 602.7326049804688 548.992431640625 C 602.9224853515625 550.123046875 602.8724975585938 551.5120239257812 598.9968872070312 547.0031127929688" stroke-width="0.0" fill="rgb(255, 254, 255)" opacity="0.9840343"/>
    <path d="M 598.0992431640625 331.0474548339844 C 595.9821166992188 331.571044921875 595.88330078125 331.2150573730469 595.0287475585938 333.2192687988281 C 595.3677368164062 332.7691955566406 595.3209228515625 331.6908264160156 596.7777709960938 331.302001953125 C 598.2036743164062 331.36309814453125 597.4750366210938 330.88104248046875 598.62890625 330.633056640625 C 597.23095703125 331.3741149902344 595.8331298828125 330.72796630859375 598.0992431640625 331.0474548339844" stroke-width="0.0" fill="rgb(255, 255, 255)" opacity="0.857092"/>
    <path d="M 83.18734741210938 584.8781127929688 C 83.11991882324219 585.3389282226562 84.78536224365234 587.5560913085938 85.11942291259766 588.28076171875 C 87.36271667480469 587.513427734375 85.65806579589844 587.864013671875 86.45556640625 588.0545654296875 C 84.6624755859375 587.8136596679688 86.11214447021484 589.3101806640625 84.93417358398438 588.9978637695312 C 87.24299621582031 588.4027709960938 85.45387268066406 590.5172119140625 83.18734741210938 584.8781127929688" stroke-width="0.0" fill="rgb(255, 255, 255)" opacity="0.775095"/>
    <path d="M 5.260645389556885 323.2785339355469 C 3.5173017978668213 324.1249084472656 4.156742095947266 323.54638671875 6.5472235679626465 322.9523620605469 C 5.069677829742432 324.17437744140625 6.745700836181641 322.8648681640625 8.078372955322266 321.4911804199219 C 6.512320041656494 319.7241516113281 8.605813026428223 319.0902404785156 10.249327659606934 317.2325744628906 C 6.748560905456543 315.7265625 10.394693374633789 318.7030944824219 5.260645389556885 323.2785339355469" stroke-width="0.0" fill="rgb(255, 255, 255)" opacity="0.6573081"/>
    <path d="M 2.8851327896118164 471.4462585449219 C 6.124092102050781 469.6290588378906 5.356149673461914 466.2767028808594 3.3984296321868896 464.8977355957031 C 2.566737651824951 466.4112854003906 0.8987956643104553 467.3360595703125 1.7483806610107422 466.59698486328125 C 2.9090442657470703 468.2755432128906 1.0035687685012817 469.49951171875 1.8114851713180542 468.8789367675781 C 3.101609706878662 468.95361328125 3.163581132888794 468.75152587890625 2.8851327896118164 471.4462585449219" stroke-width="0.0" fill="rgb(255, 255, 255)" opacity="0.688334"/>
    <path d="M 597.02587890625 386.1607971191406 C 599.0386352539062 386.72320556640625 599.2036743164062 386.8556213378906 598.9647827148438 390.1210021972656 C 599.9782104492188 389.2625732421875 602.2353515625 386.7550964355469 604.4427490234375 387.90057373046875 C 602.9081420898438 385.8145751953125 604.5147705078125 384.39459228515625 604.56396484375 385.3072204589844 C 604.1677856445312 386.8596496582031 604.7401733398438 388.8500061035156 597.02587890625 386.1607971191406" stroke-width="0.0" fill="rgb(255, 255, 255)" opacity="0.9070344"/>
    <path d="M 593.123779296875 363.7884216308594 C 592.6426391601562 366.0149230957031 593.03271484375 366.3689880371094 595.1846923828125 365.8092041015625 C 594.2943725585938 362.52655029296875 596.7139282226562 362.1195373535156 598.293701171875 363.6844482421875 C 598.723388671875 364.5086669921875 600.7404174804688 363.8851013183594 603.2469482421875 362.0419006347656 C 600.8847045898438 364.4225769042969 600.723388671875 364.0276794433594 593.123779296875 363.7884216308594" stroke-width="0.0" fill="rgb(255, 255, 255)" opacity="0.76211756"/>
    <path d="M 20.714336395263672 450.0984191894531 C 18.615419387817383 449.90081787109375 20.766468048095703 449.117431640625 21.801450729370117 447.6373291015625 C 19.613210678100586 445.8019104003906 19.989999771118164 444.1708068847656 19.913372039794922 441.9659423828125 C 23.218759536743164 441.6938171386719 24.171701431274414 442.51824951171875 23.294994354248047 442.45074462890625 C 23.22188949584961 440.0810852050781 24.56702423095703 437.6386413574219 20.714336395263672 450.0984191894531" stroke-width="0.0" fill="rgb(255, 255, 255)" opacity="0.64705545"/>
    <path d="M 103.54692077636719 597.3193359375 C 100.76643371582031 597.3501586914062 99.90338134765625 595.5785522460938 99.82769012451172 594.871826171875 C 100.32929229736328 593.7029418945312 101.9803237915039 592.1597900390625 103.96037292480469 593.1735229492188 C 103.05022430419922 593.2827758789062 104.85710144042969 591.9141845703125 105.0973892211914 594.1290283203125 C 106.75548553466797 593.7006225585938 109.21440124511719 594.02783203125 103.54692077636719 597.3193359375" stroke-width="0.0" fill="rgb(255, 255, 255)" opacity="0.6737874"/>
    <path d="M 565.7523803710938 396.94683837890625 C 565.2341918945312 397.4303894042969 563.1625366210938 398.1112060546875 561.3573608398438 399.1446228027344 C 559.5225830078125 399.6867980957031 558.7859497070312 398.1023254394531 556.9175415039062 399.7281799316406 C 554.9395751953125 400.64691162109375 556.570556640625 401.49884033203125 555.9835815429688 402.81365966796875 C 556.5174560546875 401.961181640625 554.90478515625 402.10101318359375 565.7523803710938 396.94683837890625" stroke-width="0.0" fill="rgb(255, 255, 255)" opacity="0.68048656"/>
    <path d="M 575.6509399414062 587.8504638671875 C 578.079833984375 588.4483032226562 578.3793334960938 588.0211181640625 577.8872680664062 585.8112182617188 C 576.047607421875 586.7560424804688 577.4147338867188 583.9110717773438 576.9097290039062 582.2314453125 C 578.8291625976562 581.6724243164062 579.5262451171875 581.7203979492188 578.6427612304688 584.91162109375 C 579.147216796875 585.6492919921875 580.0256958007812 582.683349609375 575.6509399414062 587.8504638671875" stroke-width="0.0" fill="rgb(255, 255, 255)" opacity="0.7087822"/>
    <path d="M 556.5928955078125 561.5458984375 C 557.7488403320312 563.8331909179688 558.3826904296875 566.285888671875 557.8155517578125 568.464599609375 C 556.0492553710938 569.234375 558.4676513671875 567.3821411132812 560.57763671875 568.185791015625 C 559.1250610351562 567.194580078125 560.5764770507812 567.6884155273438 560.0142822265625 566.1903076171875 C 559.0297241210938 565.5189208984375 558.2416381835938 565.96533203125 556.5928955078125 561.5458984375" stroke-width="0.0" fill="rgb(255, 255, 255)" opacity="0.7417193"/>
  </g>
</svg>
