<?xml version="1.0" ?>
<svg xmlns="http://www.w3.org/2000/svg" version="1.1" width="600" height="600">
  <defs/>
  <g>
    <path d="M 37.52975082397461 168.89389038085938 C 36.396018981933594 177.59117126464844 25.878747940063477 181.63262939453125 -1.7539188861846924 201.3575897216797 C -10.792806625366211 202.5611114501953 -9.659699440002441 186.85610961914062 -3.245990514755249 168.09176635742188 C 0.77116858959198 158.3647003173828 8.724736213684082 152.63890075683594 15.377870559692383 155.195556640625 C 21.594425201416016 154.28121948242188 28.50590705871582 160.7742462158203 37.52975082397461 168.89389038085938" stroke-width="0.0" fill="rgb(133, 133, 133)" opacity="1.0"/>
    <path d="M 487.3154602050781 579.101806640625 C 465.5178527832031 596.9839477539062 446.05242919921875 568.4053955078125 449.3636169433594 573.6253051757812 C 433.381591796875 569.8390502929688 428.5661926269531 560.9144897460938 389.40771484375 580.5014038085938 C 418.9837951660156 560.4330444335938 419.25958251953125 538.5242309570312 431.1856384277344 547.8187866210938 C 418.9403991699219 572.8246459960938 442.0060729980469 554.6151123046875 487.3154602050781 579.101806640625" stroke-width="0.0" fill="rgb(32, 32, 32)" opacity="1.0"/>
    <path d="M 174.35252380371094 589.914794921875 C 173.9484100341797 598.7456665039062 166.81344604492188 606.1663208007812 156.3364715576172 609.536376953125 C 141.83363342285156 610.9105834960938 126.07878875732422 611.1608276367188 113.63004302978516 603.6703491210938 C 127.20194244384766 571.9239501953125 138.7769012451172 569.4066772460938 153.92076110839844 574.54248046875 C 165.48643493652344 574.0174560546875 172.3163299560547 580.8539428710938 174.35252380371094 589.914794921875" stroke-width="0.0" fill="rgb(125, 125, 125)" opacity="1.0"/>
    <path d="M 71.17977142333984 194.26876831054688 C 42.51788330078125 214.64837646484375 29.040102005004883 222.34097290039062 30.796100616455078 214.27508544921875 C 27.697893142700195 210.7965087890625 18.14670181274414 212.41311645507812 15.209997177124023 206.76260375976562 C 32.58821487426758 202.13111877441406 13.192402839660645 185.4241180419922 26.200042724609375 163.33279418945312 C 32.71784591674805 210.08018493652344 26.190319061279297 203.4724578857422 71.17977142333984 194.26876831054688" stroke-width="0.0" fill="rgb(6, 6, 6)" opacity="0.957564"/>
    <path d="M 608.94677734375 554.7880859375 C 607.7838134765625 567.115234375 600.6917724609375 575.8094482421875 588.8689575195312 558.9890747070312 C 586.879638671875 541.6983032226562 580.1736450195312 561.1348876953125 530.982666015625 568.0277709960938 C 552.5116577148438 533.8814086914062 576.6945190429688 541.29345703125 590.2902221679688 538.8140258789062 C 599.406494140625 533.2338256835938 606.01806640625 542.6701049804688 608.94677734375 554.7880859375" stroke-width="0.0" fill="rgb(103, 103, 103)" opacity="0.9954868"/>
    <path d="M 39.59601593017578 38.41926956176758 C 51.89474105834961 34.83603286743164 42.78042221069336 44.05464553833008 45.54619216918945 33.20996856689453 C 35.900020599365234 28.78927993774414 30.42020034790039 9.168319702148438 4.140398979187012 26.0938720703125 C -19.422435760498047 27.09770393371582 -11.084700584411621 1.2539948225021362 7.892278671264648 -8.943926811218262 C 37.376953125 5.373599052429199 37.145721435546875 23.990463256835938 39.59601593017578 38.41926956176758" stroke-width="0.0" fill="rgb(18, 18, 20)" opacity="0.94374317"/>
    <path d="M 6.642443656921387 170.17491149902344 C 23.31988525390625 168.6355438232422 24.632413864135742 175.5943603515625 -1.3423144817352295 196.1724090576172 C -16.637588500976562 179.96353149414062 -14.658197402954102 161.7056121826172 -16.38936424255371 149.44395446777344 C -18.747182846069336 131.36788940429688 -25.356502532958984 107.99703979492188 13.702093124389648 96.75247192382812 C 16.498855590820312 141.9864044189453 5.072137355804443 154.017333984375 6.642443656921387 170.17491149902344" stroke-width="0.0" fill="rgb(6, 5, 6)" opacity="1.0"/>
    <path d="M 82.48026275634766 191.677001953125 C 81.55064392089844 198.39004516601562 74.06910705566406 208.0579071044922 62.71030807495117 222.3057403564453 C 57.464603424072266 208.33486938476562 51.823997497558594 196.7752685546875 52.730098724365234 189.5174102783203 C 50.31943893432617 182.04135131835938 56.23701858520508 174.60203552246094 72.80828857421875 165.94618225097656 C 85.14987182617188 166.38006591796875 85.89599609375 178.22532653808594 82.48026275634766 191.677001953125" stroke-width="0.0" fill="rgb(139, 139, 139)" opacity="0.9747439"/>
    <path d="M 70.73638916015625 493.48907470703125 C 58.93807601928711 504.7843322753906 55.05595016479492 515.7101440429688 41.136112213134766 532.40283203125 C 29.502531051635742 534.18310546875 33.26729965209961 524.5953369140625 37.0399055480957 503.17340087890625 C 25.54579734802246 488.8905944824219 34.24700927734375 479.52838134765625 42.1427001953125 471.4737854003906 C 64.1830825805664 485.02435302734375 75.90967559814453 488.55352783203125 70.73638916015625 493.48907470703125" stroke-width="0.0" fill="rgb(159, 159, 159)" opacity="0.9775921"/>
    <path d="M 512.0751953125 62.83528137207031 C 515.84912109375 86.50133514404297 512.4119262695312 96.81360626220703 497.9245910644531 93.86041259765625 C 466.1453857421875 75.0780258178711 466.7419738769531 61.16726303100586 467.7185974121094 55.65418243408203 C 467.09759521484375 50.28925704956055 466.045166015625 36.003597259521484 478.30499267578125 13.050970077514648 C 489.99871826171875 31.22110366821289 495.2203063964844 45.38554763793945 512.0751953125 62.83528137207031" stroke-width="0.0" fill="rgb(158, 158, 158)" opacity="0.99910367"/>
    <path d="M 597.5372314453125 228.64544677734375 C 585.1884155273438 272.25885009765625 569.076904296875 273.3218994140625 552.0282592773438 294.7034606933594 C 530.1179809570312 256.912841796875 508.83331298828125 254.84861755371094 503.44805908203125 260.2542419433594 C 517.0101928710938 221.1546173095703 528.9678344726562 213.97360229492188 541.4486694335938 228.62582397460938 C 555.8854370117188 243.5551300048828 584.8326416015625 215.58871459960938 597.5372314453125 228.64544677734375" stroke-width="0.0" fill="rgb(139, 139, 139)" opacity="0.9580214"/>
    <path d="M 76.02477264404297 443.29327392578125 C 55.64490509033203 458.2104187011719 45.770084381103516 465.428955078125 18.280101776123047 478.53900146484375 C -7.635385036468506 483.53021240234375 -15.393449783325195 475.89013671875 -13.773131370544434 437.8559875488281 C -13.52009105682373 404.6660461425781 -3.9860405921936035 396.47161865234375 12.736196517944336 403.8889465332031 C 39.499671936035156 420.8230285644531 55.02686309814453 422.8100891113281 76.02477264404297 443.29327392578125" stroke-width="0.0" fill="rgb(132, 132, 132)" opacity="1.0"/>
    <path d="M 261.4422912597656 22.657264709472656 C 210.02426147460938 17.692190170288086 200.53184509277344 15.427841186523438 199.91676330566406 25.92517852783203 C 196.11207580566406 32.001068115234375 186.86224365234375 26.23640251159668 173.94944763183594 5.592018127441406 C 179.89541625976562 -0.5074156522750854 195.6494140625 2.3161044120788574 217.24143981933594 1.0259181261062622 C 236.956787109375 -16.351512908935547 256.75531005859375 -22.51940155029297 261.4422912597656 22.657264709472656" stroke-width="0.0" fill="rgb(6, 7, 7)" opacity="0.96674865"/>
    <path d="M 208.50723266601562 35.33462905883789 C 208.29383850097656 46.18342971801758 201.4739532470703 54.10529708862305 188.8596649169922 57.061279296875 C 171.26763916015625 58.714107513427734 155.78213500976562 57.62723922729492 149.84776306152344 46.58645248413086 C 172.80335998535156 24.98184585571289 180.2525177001953 17.67497444152832 186.61962890625 19.48975372314453 C 199.42576599121094 19.222097396850586 208.17959594726562 24.129825592041016 208.50723266601562 35.33462905883789" stroke-width="0.0" fill="rgb(206, 206, 206)" opacity="0.8962424"/>
    <path d="M 615.0479125976562 588.89697265625 C 612.3204956054688 599.0 605.0 606.3204956054688 594.099609375 609.3590087890625 C 574.677978515625 612.1885375976562 549.181396484375 621.1962890625 533.56640625 591.11669921875 C 569.1676025390625 581.12548828125 593.5298461914062 581.968994140625 590.089111328125 547.8290405273438 C 610.312744140625 563.111083984375 613.2094116210938 577.1971435546875 615.0479125976562 588.89697265625" stroke-width="0.0" fill="rgb(28, 27, 27)" opacity="0.9029649"/>
    <path d="M 77.30809783935547 530.0953369140625 C 63.025753021240234 544.384033203125 64.19818878173828 559.8522338867188 65.62413024902344 571.9539184570312 C 48.647518157958984 560.8424682617188 42.32442855834961 552.8582763671875 40.69889450073242 531.827392578125 C 25.766809463500977 519.877197265625 35.79585266113281 516.0944213867188 59.43164825439453 523.5814208984375 C 78.13545989990234 520.645751953125 87.55223846435547 524.8025512695312 77.30809783935547 530.0953369140625" stroke-width="0.0" fill="rgb(152, 153, 153)" opacity="0.9902353"/>
    <path d="M 31.325407028198242 333.41717529296875 C 29.9812068939209 345.3221740722656 24.284936904907227 354.8214416503906 12.766480445861816 359.3484802246094 C -0.04545498266816139 351.9210205078125 -6.725352764129639 343.5661926269531 -7.952723026275635 334.3695373535156 C -3.024111270904541 326.6573486328125 4.687255382537842 319.5865478515625 12.817188262939453 316.9446105957031 C 21.03790283203125 315.997802734375 28.34680938720703 322.987060546875 31.325407028198242 333.41717529296875" stroke-width="0.0" fill="rgb(197, 198, 198)" opacity="0.94838077"/>
    <path d="M 611.3309936523438 532.566650390625 C 608.4949340820312 556.6929321289062 597.1113891601562 574.0011596679688 588.7799682617188 551.8766479492188 C 583.0137329101562 536.878662109375 572.208251953125 562.3556518554688 563.9370727539062 522.1736450195312 C 549.9514770507812 503.62322998046875 580.663818359375 529.4434814453125 607.0052490234375 501.46185302734375 C 613.3578491210938 498.1737365722656 615.0000610351562 512.0082397460938 611.3309936523438 532.566650390625" stroke-width="0.0" fill="rgb(1, 0, 0)" opacity="0.8693653"/>
    <path d="M 575.1932983398438 404.42535400390625 C 556.1210327148438 406.23907470703125 549.8428344726562 428.9982604980469 535.8173828125 450.8616027832031 C 529.768310546875 432.01373291015625 528.8056030273438 397.4949035644531 530.479736328125 391.85015869140625 C 530.206787109375 387.1496276855469 529.7452392578125 375.64471435546875 539.9887084960938 370.7804870605469 C 558.6592407226562 374.5269775390625 559.37548828125 386.9090881347656 575.1932983398438 404.42535400390625" stroke-width="0.0" fill="rgb(8, 8, 8)" opacity="0.9658703"/>
    <path d="M 544.7724609375 556.5103759765625 C 540.28857421875 578.5604858398438 521.279541015625 581.503173828125 501.68218994140625 579.325439453125 C 480.57952880859375 586.1767578125 470.8348693847656 587.1148681640625 462.7923583984375 536.3590698242188 C 476.72052001953125 551.953125 488.1708068847656 560.081298828125 498.38983154296875 532.60546875 C 500.608154296875 553.6835327148438 505.8310241699219 564.736572265625 544.7724609375 556.5103759765625" stroke-width="0.0" fill="rgb(29, 29, 29)" opacity="0.9852266"/>
    <path d="M 579.5272827148438 364.9261474609375 C 552.655517578125 381.57672119140625 551.5414428710938 390.5540466308594 544.7503662109375 393.4100036621094 C 528.8989868164062 388.5286865234375 523.2239379882812 381.2604064941406 521.634033203125 365.06939697265625 C 522.552001953125 331.8699951171875 507.30474853515625 319.3678894042969 551.8590698242188 320.0340270996094 C 543.010498046875 357.1963195800781 537.0120239257812 372.6132507324219 579.5272827148438 364.9261474609375" stroke-width="0.0" fill="rgb(39, 39, 39)" opacity="1.0"/>
    <path d="M 25.306289672851562 309.23785400390625 C 39.14523696899414 309.1626892089844 39.71265411376953 322.9154357910156 -4.793272018432617 338.7713928222656 C -12.78286075592041 338.2208557128906 -15.54241943359375 325.21148681640625 -13.793315887451172 299.56903076171875 C -14.31857681274414 277.8839416503906 -9.498392105102539 279.7436218261719 19.79640007019043 279.8956298828125 C 18.165729522705078 286.43560791015625 20.318323135375977 303.2699279785156 25.306289672851562 309.23785400390625" stroke-width="0.0" fill="rgb(21, 21, 22)" opacity="0.9088185"/>
    <path d="M 433.6540832519531 48.53095245361328 C 417.5633544921875 49.29801559448242 406.0494079589844 50.073448181152344 406.627685546875 49.66706466674805 C 418.4759216308594 53.657501220703125 408.7378234863281 48.778709411621094 401.6668701171875 44.30365753173828 C 398.4867248535156 43.737754821777344 408.36669921875 40.485897064208984 406.8094787597656 41.9901237487793 C 417.47918701171875 42.785186767578125 431.4176025390625 41.55585479736328 433.6540832519531 48.53095245361328" stroke-width="0.0" fill="rgb(28, 29, 29)" opacity="0.87830573"/>
    <path d="M 537.6385498046875 588.672607421875 C 542.6978759765625 605.6383056640625 534.5945434570312 610.1066284179688 500.08837890625 604.6712646484375 C 478.2303161621094 606.8348388671875 472.79693603515625 598.4470825195312 469.126953125 570.26904296875 C 483.74310302734375 561.1478271484375 488.2026672363281 555.9492797851562 499.0669860839844 559.5301513671875 C 510.2308044433594 560.010986328125 518.105712890625 565.8844604492188 537.6385498046875 588.672607421875" stroke-width="0.0" fill="rgb(170, 170, 170)" opacity="1.0"/>
    <path d="M 553.305908203125 46.228675842285156 C 523.0502319335938 44.79766845703125 510.7601623535156 40.8648567199707 505.83599853515625 53.733299255371094 C 512.91796875 78.37152099609375 505.4103088378906 50.95009994506836 473.45721435546875 35.56957244873047 C 516.9027709960938 50.87357711791992 513.4227294921875 40.462806701660156 513.8342895507812 15.57153034210205 C 526.2655639648438 22.95987319946289 536.1296997070312 28.77225685119629 553.305908203125 46.228675842285156" stroke-width="0.0" fill="rgb(0, 0, 0)" opacity="1.0"/>
    <path d="M 237.98240661621094 17.398193359375 C 231.22914123535156 41.5233154296875 221.11631774902344 45.88298034667969 203.8174285888672 51.36150360107422 C 188.61163330078125 50.2184944152832 179.61322021484375 42.91043472290039 174.61387634277344 24.522384643554688 C 189.6666259765625 16.54916000366211 203.76321411132812 17.490127563476562 192.781982421875 19.185550689697266 C 206.71206665039062 19.321075439453125 224.83103942871094 14.720947265625 237.98240661621094 17.398193359375" stroke-width="0.0" fill="rgb(254, 254, 254)" opacity="0.96719486"/>
    <path d="M 617.1502075195312 186.33502197265625 C 617.7350463867188 202.81472778320312 626.8185424804688 230.6885528564453 591.5599975585938 248.0382080078125 C 571.7031860351562 211.21441650390625 572.3375854492188 197.1299285888672 576.8251953125 180.65235900878906 C 580.085205078125 176.0150909423828 586.7606811523438 168.08091735839844 596.7904663085938 161.1124267578125 C 607.1807250976562 168.26930236816406 614.3331909179688 175.97140502929688 617.1502075195312 186.33502197265625" stroke-width="0.0" fill="rgb(30, 30, 30)" opacity="0.9131223"/>
    <path d="M 53.8127555847168 407.3571472167969 C 45.70516586303711 420.51129150390625 73.826416015625 446.8296813964844 67.30992126464844 456.2901916503906 C 35.242774963378906 423.0873107910156 12.546638488769531 416.0604553222656 7.708926200866699 412.6907043457031 C 11.251985549926758 383.7577209472656 10.814470291137695 371.60369873046875 31.25264549255371 367.7267150878906 C 59.170101165771484 387.46014404296875 67.90168762207031 399.2734069824219 53.8127555847168 407.3571472167969" stroke-width="0.0" fill="rgb(135, 135, 135)" opacity="0.77609307"/>
    <path d="M 126.55199432373047 496.5449523925781 C 132.92010498046875 504.456787109375 128.1388397216797 509.8788757324219 110.93594360351562 519.5679321289062 C 100.16215515136719 507.80743408203125 93.70758819580078 499.03680419921875 91.18707275390625 488.785400390625 C 92.7024154663086 477.90411376953125 99.39313507080078 469.4064636230469 110.06083679199219 465.1337585449219 C 120.91864776611328 471.2770690917969 124.70260620117188 481.2562255859375 126.55199432373047 496.5449523925781" stroke-width="0.0" fill="rgb(129, 129, 129)" opacity="1.0"/>
    <path d="M 421.243408203125 602.2492065429688 C 413.8865051269531 609.5866088867188 400.012451171875 612.8226318359375 389.0307312011719 615.022216796875 C 378.3957824707031 612.6697998046875 364.5538330078125 610.8089599609375 336.2029113769531 598.4135131835938 C 352.8396911621094 570.4248657226562 366.1995544433594 562.4988403320312 374.39093017578125 566.4219360351562 C 409.7937927246094 569.6644897460938 404.7344970703125 582.193359375 421.243408203125 602.2492065429688" stroke-width="0.0" fill="rgb(13, 13, 13)" opacity="0.926479"/>
    <path d="M 57.716209411621094 525.5394897460938 C 26.18453025817871 537.0128173828125 -0.6895300149917603 523.8875732421875 -5.195515155792236 532.8912353515625 C -2.059300422668457 544.443115234375 -9.33556842803955 537.029052734375 -12.68892765045166 525.5403442382812 C -17.310930252075195 502.5060119628906 -25.283782958984375 477.61370849609375 19.550031661987305 471.9219055175781 C 1.0394418239593506 540.1852416992188 0.1704196333885193 512.7880249023438 57.716209411621094 525.5394897460938" stroke-width="0.0" fill="rgb(16, 16, 17)" opacity="1.0"/>
    <path d="M 551.2451782226562 48.61941146850586 C 529.8274536132812 45.56299591064453 516.7542114257812 43.79231262207031 507.7132263183594 46.712127685546875 C 500.7472229003906 64.00353240966797 514.579833984375 52.01968765258789 516.4942016601562 25.799251556396484 C 507.45989990234375 32.085784912109375 514.8701171875 25.37318229675293 520.0879516601562 13.577680587768555 C 528.9979248046875 32.420738220214844 546.5526123046875 32.513671875 551.2451782226562 48.61941146850586" stroke-width="0.0" fill="rgb(69, 70, 70)" opacity="0.50816274"/>
    <path d="M 108.1516342163086 526.78076171875 C 114.88704681396484 542.7977905273438 83.03590393066406 531.1503295898438 92.7598648071289 534.4686279296875 C 89.80154418945312 538.2606201171875 80.8489990234375 530.3931274414062 54.26058578491211 525.6248779296875 C 88.81050872802734 524.1256103515625 78.39659881591797 511.83526611328125 64.42428588867188 488.21099853515625 C 107.63066864013672 503.96905517578125 126.87456512451172 498.3661193847656 108.1516342163086 526.78076171875" stroke-width="0.0" fill="rgb(5, 6, 6)" opacity="0.9871691"/>
    <path d="M 614.8320922851562 76.30952453613281 C 618.9868774414062 107.92119598388672 621.035888671875 124.5730972290039 577.3842163085938 127.78561401367188 C 589.17822265625 72.5282974243164 591.8016357421875 53.236576080322266 546.9824829101562 83.86829376220703 C 539.8316650390625 58.112613677978516 583.6482543945312 81.32760620117188 588.4556884765625 28.931175231933594 C 617.791015625 30.881895065307617 617.1040649414062 47.6910285949707 614.8320922851562 76.30952453613281" stroke-width="0.0" fill="rgb(7, 7, 7)" opacity="0.9915431"/>
    <path d="M 83.93354034423828 400.2060241699219 C 80.74089050292969 406.69732666015625 69.43685150146484 405.2489318847656 60.66414260864258 405.57305908203125 C 44.49794006347656 431.7365417480469 54.44245147705078 414.7602844238281 45.72523880004883 387.3262939453125 C 29.94920539855957 370.0441589355469 43.37040328979492 367.7085876464844 54.368350982666016 390.032958984375 C 60.07307434082031 393.27020263671875 67.40196990966797 399.274169921875 83.93354034423828 400.2060241699219" stroke-width="0.0" fill="rgb(43, 43, 44)" opacity="1.0"/>
    <path d="M 99.68892669677734 477.5696105957031 C 90.1523666381836 515.4630737304688 71.8135986328125 517.926513671875 73.31300354003906 498.0784912109375 C 70.4441909790039 489.40570068359375 56.72132873535156 488.4942932128906 27.57412338256836 497.25927734375 C 32.13331604003906 461.1500549316406 58.15928649902344 484.2189025878906 66.83126831054688 486.4833984375 C 60.36946105957031 489.03631591796875 84.7496109008789 483.7674255371094 99.68892669677734 477.5696105957031" stroke-width="0.0" fill="rgb(2, 3, 3)" opacity="0.9541699"/>
    <path d="M 115.80956268310547 495.5517578125 C 110.49263763427734 506.3472595214844 106.66685485839844 520.610595703125 96.04285430908203 527.609130859375 C 83.46370697021484 522.7293090820312 84.01472473144531 498.8613586425781 83.29352569580078 500.4606628417969 C 84.84918975830078 497.57086181640625 94.31416320800781 488.25665283203125 97.28376007080078 479.8735046386719 C 106.56643676757812 478.2264709472656 114.22634887695312 483.9093322753906 115.80956268310547 495.5517578125" stroke-width="0.0" fill="rgb(248, 248, 248)" opacity="1.0"/>
    <path d="M 183.8229217529297 76.37327575683594 C 181.83688354492188 87.61641693115234 175.50892639160156 96.68634796142578 165.3380889892578 99.33111572265625 C 152.736328125 93.29908752441406 142.75286865234375 86.62942504882812 141.0852813720703 76.1430435180664 C 139.69442749023438 58.83483123779297 143.4910888671875 47.7635498046875 156.4178009033203 44.65660858154297 C 174.89523315429688 55.94322967529297 180.98251342773438 65.08702087402344 183.8229217529297 76.37327575683594" stroke-width="0.0" fill="rgb(245, 245, 245)" opacity="0.831415"/>
    <path d="M 121.61077117919922 254.1804656982422 C 125.4256591796875 248.72604370117188 121.37841796875 254.45265197753906 110.53165435791016 252.9423828125 C 95.09147644042969 265.47119140625 71.39179992675781 278.2226867675781 85.6302490234375 250.72103881835938 C 118.6166763305664 249.8367156982422 106.57147979736328 233.62384033203125 101.39495086669922 230.06158447265625 C 122.02999114990234 227.98684692382812 123.44766235351562 240.04806518554688 121.61077117919922 254.1804656982422" stroke-width="0.0" fill="rgb(9, 9, 10)" opacity="0.9625285"/>
    <path d="M 100.84464263916016 136.62649536132812 C 81.79158782958984 147.7034149169922 82.35989379882812 162.41644287109375 83.72666931152344 196.62745666503906 C 67.62979125976562 180.84860229492188 65.22089385986328 164.45675659179688 62.332366943359375 152.21920776367188 C 67.61026000976562 139.52044677734375 63.817955017089844 120.61689758300781 69.90656280517578 115.67616271972656 C 93.49008178710938 135.6132354736328 104.8464126586914 139.7885284423828 100.84464263916016 136.62649536132812" stroke-width="0.0" fill="rgb(103, 102, 103)" opacity="1.0"/>
    <path d="M 372.1313171386719 573.15576171875 C 371.2478332519531 581.1572265625 361.27044677734375 585.065185546875 348.7721252441406 587.4861450195312 C 340.3963317871094 595.3317260742188 322.4132385253906 597.1859741210938 301.9296875 579.3746948242188 C 325.11627197265625 554.4819946289062 344.443359375 557.74267578125 354.9622802734375 557.4979858398438 C 365.2079162597656 551.8253173828125 371.2882385253906 560.4240112304688 372.1313171386719 573.15576171875" stroke-width="0.0" fill="rgb(130, 130, 130)" opacity="1.0"/>
    <path d="M 554.2845458984375 375.3445129394531 C 551.5602416992188 384.2945861816406 544.3316650390625 392.7313537597656 533.8987426757812 395.00286865234375 C 527.8902587890625 385.24920654296875 522.7578125 373.420654296875 527.6840209960938 368.1686706542969 C 530.3145141601562 371.8197326660156 513.5038452148438 339.7434997558594 515.2351684570312 316.9410705566406 C 551.3214111328125 339.71063232421875 548.4321899414062 359.457275390625 554.2845458984375 375.3445129394531" stroke-width="0.0" fill="rgb(0, 0, 0)" opacity="0.9185151"/>
    <path d="M 612.6677856445312 470.8417663574219 C 609.6091918945312 482.59527587890625 603.3233642578125 492.178955078125 596.1304321289062 496.12188720703125 C 583.572998046875 484.6737060546875 574.3966674804688 478.8446044921875 584.5801391601562 484.0303955078125 C 590.7833251953125 479.6363525390625 589.0814819335938 467.8188171386719 590.1224975585938 412.515869140625 C 627.5497436523438 423.39190673828125 617.5000610351562 448.7897644042969 612.6677856445312 470.8417663574219" stroke-width="0.0" fill="rgb(7, 7, 7)" opacity="0.98516667"/>
    <path d="M 302.2342529296875 563.821533203125 C 290.3204345703125 578.5233764648438 268.6614074707031 572.7943115234375 257.1830749511719 581.965087890625 C 247.65460205078125 586.5347290039062 240.4727325439453 578.4581298828125 236.94139099121094 566.1851196289062 C 251.98802185058594 559.2899780273438 257.4544982910156 550.1112060546875 254.8987274169922 551.17041015625 C 262.8620910644531 557.9182739257812 277.9464416503906 556.2764892578125 302.2342529296875 563.821533203125" stroke-width="0.0" fill="rgb(157, 158, 158)" opacity="1.0"/>
    <path d="M 428.3270263671875 52.4654655456543 C 416.7684326171875 55.827613830566406 403.93524169921875 55.351680755615234 409.20166015625 50.76161193847656 C 409.50421142578125 56.4515495300293 394.7012939453125 59.141746520996094 396.4958190917969 52.76905059814453 C 392.2845153808594 31.537839889526367 392.9205017089844 22.749465942382812 411.71240234375 42.57881164550781 C 414.0130615234375 46.045013427734375 423.794189453125 47.669307708740234 428.3270263671875 52.4654655456543" stroke-width="0.0" fill="rgb(40, 41, 41)" opacity="0.98148507"/>
    <path d="M 313.1165466308594 -0.8850985169410706 C 314.9740295410156 12.43173599243164 308.9690246582031 22.518163681030273 294.35552978515625 36.23738479614258 C 287.25897216796875 33.27210998535156 276.66412353515625 23.98907470703125 244.44320678710938 6.258769989013672 C 254.32948303222656 -25.222232818603516 275.12396240234375 -18.87064552307129 299.63690185546875 -13.023575782775879 C 311.55743408203125 -9.177734375 317.1690979003906 -1.3902446031570435 313.1165466308594 -0.8850985169410706" stroke-width="0.0" fill="rgb(14, 14, 15)" opacity="0.9634036"/>
    <path d="M 215.63861083984375 75.40731048583984 C 217.95201110839844 91.33195495605469 210.74021911621094 98.64978790283203 197.92098999023438 92.886474609375 C 180.17791748046875 80.97171020507812 174.14492797851562 73.5218505859375 174.8846435546875 63.73213195800781 C 170.1519775390625 54.4429817199707 171.85470581054688 44.160282135009766 182.04681396484375 44.82972717285156 C 197.7090301513672 49.36152648925781 204.9619598388672 56.26411056518555 215.63861083984375 75.40731048583984" stroke-width="0.0" fill="rgb(198, 199, 199)" opacity="0.93915"/>
    <path d="M 249.94189453125 61.33775329589844 C 238.86167907714844 73.84600830078125 246.11338806152344 95.37796020507812 240.9944305419922 106.68416595458984 C 203.29202270507812 95.0890884399414 193.5146942138672 89.83136749267578 193.01287841796875 69.92928314208984 C 206.5469512939453 52.321739196777344 215.4385528564453 45.97942352294922 222.94554138183594 55.76746368408203 C 233.65487670898438 59.633724212646484 247.10536193847656 59.97453689575195 249.94189453125 61.33775329589844" stroke-width="0.0" fill="rgb(129, 129, 129)" opacity="1.0"/>
    <path d="M 190.12335205078125 122.64350891113281 C 181.89053344726562 129.14089965820312 173.80567932128906 136.3914794921875 164.87156677246094 143.71810913085938 C 153.297607421875 146.03997802734375 147.75714111328125 136.41229248046875 146.69024658203125 123.5950927734375 C 149.6794891357422 113.00000762939453 157.00003051757812 105.67969512939453 168.2735137939453 101.35272216796875 C 180.01332092285156 102.30770111083984 187.39715576171875 109.67188262939453 190.12335205078125 122.64350891113281" stroke-width="0.0" fill="rgb(135, 135, 135)" opacity="1.0"/>
    <path d="M 494.4212341308594 597.4271850585938 C 490.5104675292969 627.3045043945312 466.2364196777344 619.585205078125 444.1371765136719 615.6085815429688 C 430.7557373046875 613.6185913085938 413.5428161621094 613.2216796875 399.6147766113281 590.1984252929688 C 440.1174621582031 589.79736328125 452.5791015625 587.511474609375 447.22119140625 593.0997314453125 C 444.6376037597656 595.297607421875 458.459228515625 568.100830078125 494.4212341308594 597.4271850585938" stroke-width="0.0" fill="rgb(26, 25, 25)" opacity="0.9592813"/>
    <path d="M 265.0047302246094 597.9498901367188 C 240.56410217285156 619.8359985351562 216.67401123046875 613.8665161132812 204.02879333496094 615.1011962890625 C 191.6090087890625 613.8560791015625 167.71676635742188 619.6441040039062 145.97052001953125 593.9165649414062 C 205.0312957763672 589.5145874023438 185.46006774902344 569.9946899414062 186.62570190429688 569.818359375 C 226.2947998046875 562.5914916992188 241.02206420898438 566.347412109375 265.0047302246094 597.9498901367188" stroke-width="0.0" fill="rgb(13, 13, 14)" opacity="0.9521381"/>
    <path d="M 234.770263671875 110.2451400756836 C 229.7489776611328 120.94693756103516 221.43460083007812 126.99828338623047 210.77186584472656 129.8909149169922 C 202.38490295410156 131.0935821533203 195.5646209716797 122.44335174560547 192.5093231201172 111.40574645996094 C 192.82763671875 98.96873474121094 198.232421875 89.35309600830078 209.99017333984375 90.54574584960938 C 225.49163818359375 91.1609115600586 233.18943786621094 98.68659210205078 234.770263671875 110.2451400756836" stroke-width="0.0" fill="rgb(255, 255, 255)" opacity="0.7536206"/>
    <path d="M 315.380126953125 60.128326416015625 C 290.0431823730469 53.02075958251953 278.6582336425781 54.333587646484375 273.6272888183594 65.98439025878906 C 267.3094787597656 60.912113189697266 254.74098205566406 61.5230712890625 236.62449645996094 60.822471618652344 C 257.4840393066406 46.823062896728516 272.4731140136719 48.26229476928711 283.6558532714844 31.85651969909668 C 299.9046630859375 24.517683029174805 309.9562072753906 26.81952476501465 315.380126953125 60.128326416015625" stroke-width="0.0" fill="rgb(70, 70, 70)" opacity="1.0"/>
    <path d="M 47.465972900390625 474.49017333984375 C 36.10487365722656 478.77740478515625 34.23167419433594 494.0890197753906 29.415000915527344 496.28192138671875 C 10.121710777282715 509.2713928222656 12.113182067871094 501.8735046386719 4.0735344886779785 474.93939208984375 C 17.420625686645508 471.3424987792969 23.149967193603516 461.718994140625 41.0645637512207 453.97784423828125 C 49.0339469909668 453.7428894042969 49.2967643737793 466.2377624511719 47.465972900390625 474.49017333984375" stroke-width="0.0" fill="rgb(154, 154, 155)" opacity="0.9713687"/>
    <path d="M 49.46175765991211 87.41193389892578 C 45.831512451171875 97.27548217773438 40.68513870239258 107.8839340209961 29.9176025390625 128.5672149658203 C 10.155116081237793 128.99708557128906 0.47196078300476074 110.45751953125 -13.642838478088379 81.05441284179688 C -2.142876148223877 62.848243713378906 10.449797630310059 61.4338264465332 20.849153518676758 77.626220703125 C 35.91509246826172 79.577392578125 46.67011642456055 80.91305541992188 49.46175765991211 87.41193389892578" stroke-width="0.0" fill="rgb(135, 135, 135)" opacity="0.91828793"/>
    <path d="M 66.15227508544922 323.4737854003906 C 47.58014678955078 340.9129333496094 39.04366683959961 347.349609375 26.560314178466797 355.3408203125 C 20.16049575805664 350.0925598144531 10.401220321655273 339.32147216796875 6.09564208984375 330.86517333984375 C 7.982891082763672 308.3576354980469 18.93239974975586 320.24609375 36.414981842041016 311.58447265625 C 40.48347854614258 289.1488342285156 50.8675422668457 303.7614440917969 66.15227508544922 323.4737854003906" stroke-width="0.0" fill="rgb(143, 143, 143)" opacity="1.0"/>
    <path d="M 616.7603759765625 398.50421142578125 C 601.1071166992188 431.6689758300781 583.1217041015625 419.77899169921875 557.2760620117188 415.70770263671875 C 545.6657104492188 434.3403625488281 542.5831298828125 426.4978942871094 551.2740478515625 406.41510009765625 C 563.9588623046875 406.91741943359375 571.1782836914062 410.190673828125 578.289306640625 393.3984069824219 C 589.43310546875 373.336181640625 606.7513427734375 369.71258544921875 616.7603759765625 398.50421142578125" stroke-width="0.0" fill="rgb(124, 123, 124)" opacity="1.0"/>
    <path d="M 551.4649047851562 181.78817749023438 C 535.6614379882812 220.3730010986328 525.9194946289062 224.46975708007812 507.6800231933594 259.9013671875 C 501.6763916015625 245.21139526367188 504.7663269042969 216.64935302734375 512.9290771484375 218.23477172851562 C 515.5682983398438 213.4591064453125 521.5061645507812 205.1930389404297 529.8851318359375 197.1141357421875 C 538.4102783203125 168.2815399169922 559.2103881835938 167.61241149902344 551.4649047851562 181.78817749023438" stroke-width="0.0" fill="rgb(2, 2, 2)" opacity="0.99352753"/>
    <path d="M 28.273508071899414 212.84637451171875 C 47.19813919067383 216.8187255859375 34.26661682128906 218.1975860595703 27.99947738647461 214.64688110351562 C 26.409996032714844 218.54055786132812 24.075193405151367 209.7425994873047 4.560354232788086 200.6723175048828 C -4.87946891784668 196.53211975097656 8.303858757019043 196.68397521972656 26.966968536376953 203.86282348632812 C 49.937034606933594 187.2245635986328 53.4415397644043 199.14060974121094 28.273508071899414 212.84637451171875" stroke-width="0.0" fill="rgb(149, 149, 149)" opacity="0.51825017"/>
    <path d="M 385.1102600097656 578.9523315429688 C 391.507568359375 585.328369140625 377.9558410644531 585.38525390625 363.452392578125 571.5975341796875 C 345.15771484375 581.4202880859375 314.7326354980469 593.5674438476562 315.130126953125 578.80517578125 C 338.2143249511719 538.5842895507812 357.4308776855469 558.8458251953125 357.5264892578125 562.33642578125 C 362.2290954589844 551.1016845703125 373.47137451171875 540.5488891601562 385.1102600097656 578.9523315429688" stroke-width="0.0" fill="rgb(0, 0, 0)" opacity="0.9724607"/>
    <path d="M 165.01864624023438 99.98994445800781 C 162.3203125 109.99993133544922 155.0 117.32051086425781 143.82752990722656 121.20613861083984 C 128.66400146484375 123.504638671875 115.24677276611328 121.54254913330078 108.21688079833984 98.93941497802734 C 116.48075866699219 80.67255401611328 128.63143920898438 78.42855072021484 140.74290466308594 80.86310577392578 C 154.86758422851562 83.28766632080078 162.31590270996094 90.07601165771484 165.01864624023438 99.98994445800781" stroke-width="0.0" fill="rgb(137, 137, 137)" opacity="1.0"/>
    <path d="M 162.31951904296875 125.62273406982422 C 161.3011932373047 143.73300170898438 160.28982543945312 154.30181884765625 147.59771728515625 151.3605194091797 C 128.6999969482422 148.9520263671875 121.96685791015625 140.37586975097656 110.25401306152344 119.65086364746094 C 122.86254119873047 112.60982513427734 133.0305938720703 107.95628356933594 143.23043823242188 105.99121856689453 C 153.15733337402344 108.59685516357422 161.55307006835938 115.36144256591797 162.31951904296875 125.62273406982422" stroke-width="0.0" fill="rgb(220, 220, 220)" opacity="0.8515889"/>
    <path d="M 130.1303253173828 54.23390579223633 C 127.9429931640625 64.73169708251953 120.82945251464844 72.22499084472656 110.47174072265625 73.74610137939453 C 99.6810302734375 71.3984146118164 91.1265640258789 64.95084381103516 84.2622299194336 54.20792007446289 C 92.88160705566406 45.19077682495117 102.69921875 40.82439041137695 110.89915466308594 35.68309020996094 C 119.15819549560547 37.8953971862793 127.05426788330078 44.481407165527344 130.1303253173828 54.23390579223633" stroke-width="0.0" fill="rgb(214, 214, 215)" opacity="0.8261268"/>
    <path d="M 63.874393463134766 360.1650390625 C 60.496097564697266 369.2861328125 49.138423919677734 373.3116760253906 32.90678405761719 380.45574951171875 C 25.196372985839844 386.1720275878906 25.178300857543945 372.97222900390625 24.31939125061035 356.91259765625 C 28.904300689697266 352.9888916015625 36.83914566040039 345.9878845214844 44.379615783691406 340.69854736328125 C 52.957122802734375 341.7357482910156 60.282623291015625 349.0371398925781 63.874393463134766 360.1650390625" stroke-width="0.0" fill="rgb(177, 178, 178)" opacity="1.0"/>
    <path d="M 118.23676300048828 296.86041259765625 C 119.6941146850586 293.5767822265625 120.27832794189453 308.2225036621094 114.4782485961914 309.7342224121094 C 97.85858917236328 316.1393737792969 80.17241668701172 321.2795715332031 54.99639892578125 282.78179931640625 C 93.55726623535156 263.85906982421875 104.83547973632812 298.0758056640625 103.92073059082031 288.5587158203125 C 109.21224212646484 290.8872985839844 118.69464874267578 294.63311767578125 118.23676300048828 296.86041259765625" stroke-width="0.0" fill="rgb(45, 46, 46)" opacity="1.0"/>
    <path d="M 178.15762329101562 110.16483306884766 C 179.96340942382812 126.33849334716797 171.88253784179688 134.21209716796875 152.67796325683594 139.81092834472656 C 132.63470458984375 131.8406524658203 123.2564926147461 124.07981872558594 122.13980865478516 109.9180908203125 C 127.8008804321289 91.46240234375 139.54132080078125 86.93433380126953 150.84429931640625 83.38351440429688 C 159.784423828125 89.2154312133789 168.9103546142578 95.4886474609375 178.15762329101562 110.16483306884766" stroke-width="0.0" fill="rgb(253, 252, 253)" opacity="0.97857547"/>
    <path d="M 442.29119873046875 554.4518432617188 C 442.64862060546875 567.4459228515625 427.88531494140625 566.6967163085938 431.2578430175781 538.0753173828125 C 412.9281311035156 547.5400390625 406.2290954589844 552.3884887695312 407.94097900390625 548.037353515625 C 407.84027099609375 541.4833374023438 414.3526611328125 534.3291015625 420.4321594238281 532.8130493164062 C 425.45965576171875 534.6535034179688 431.6401062011719 542.0464477539062 442.29119873046875 554.4518432617188" stroke-width="0.0" fill="rgb(253, 254, 253)" opacity="0.6559287"/>
    <path d="M 603.1802368164062 451.767333984375 C 565.5005493164062 441.2423400878906 564.0953369140625 446.146728515625 566.2384033203125 470.93975830078125 C 557.353515625 467.2270812988281 550.1439819335938 458.5510559082031 539.73974609375 442.15972900390625 C 537.901123046875 424.2401428222656 537.88037109375 420.1264343261719 561.615478515625 434.3012390136719 C 577.300048828125 448.6322021484375 601.198486328125 422.344482421875 603.1802368164062 451.767333984375" stroke-width="0.0" fill="rgb(10, 10, 10)" opacity="1.0"/>
    <path d="M 446.0405578613281 40.2960319519043 C 434.76409912109375 47.59791564941406 430.77020263671875 55.51471710205078 424.65106201171875 54.35913848876953 C 435.62847900390625 50.433807373046875 412.4044189453125 56.03253936767578 400.4695739746094 55.13776397705078 C 416.428466796875 42.76900863647461 431.9489440917969 42.67156982421875 442.50299072265625 29.519733428955078 C 467.4357604980469 3.9336025714874268 473.15032958984375 39.57883071899414 446.0405578613281 40.2960319519043" stroke-width="0.0" fill="rgb(19, 20, 20)" opacity="0.971981"/>
    <path d="M 597.1924438476562 105.13140869140625 C 600.7172241210938 119.4956283569336 562.05908203125 108.22576904296875 563.346435546875 105.67909240722656 C 569.12158203125 107.3978271484375 540.559326171875 110.31546020507812 512.7944946289062 89.18632507324219 C 544.6071166992188 66.79039001464844 558.6658325195312 75.66958618164062 549.5626220703125 90.76764678955078 C 557.8787231445312 95.93380737304688 568.8549194335938 101.5234375 597.1924438476562 105.13140869140625" stroke-width="0.0" fill="rgb(28, 28, 28)" opacity="0.84950185"/>
    <path d="M 582.3428955078125 460.616943359375 C 576.2774658203125 470.4100341796875 567.0726928710938 476.018798828125 553.6029052734375 476.466796875 C 542.1473999023438 472.3213195800781 535.0977783203125 464.71563720703125 533.0095825195312 455.17364501953125 C 535.2876586914062 445.8563537597656 543.3504028320312 440.30694580078125 541.7102661132812 447.5935974121094 C 547.6080322265625 456.2085876464844 554.7982177734375 466.840087890625 582.3428955078125 460.616943359375" stroke-width="0.0" fill="rgb(212, 212, 212)" opacity="0.6074202"/>
    <path d="M 128.0570831298828 480.406005859375 C 130.67984008789062 502.7940979003906 129.82904052734375 496.2541809082031 109.36632537841797 484.0549011230469 C 77.60305786132812 496.57916259765625 75.01306915283203 485.74639892578125 101.7481689453125 474.412353515625 C 105.8288803100586 462.9902648925781 67.87782287597656 445.62213134765625 93.96826934814453 439.208251953125 C 112.60875701904297 453.0663146972656 122.16572570800781 468.26031494140625 128.0570831298828 480.406005859375" stroke-width="0.0" fill="rgb(6, 6, 7)" opacity="0.9466086"/>
    <path d="M 507.1104736328125 9.164137840270996 C 502.4647521972656 10.896812438964844 487.84027099609375 11.657565116882324 481.76483154296875 19.5551815032959 C 466.8192138671875 7.424861431121826 452.6981201171875 33.689476013183594 420.5815124511719 -1.224822998046875 C 434.1849365234375 -29.057819366455078 457.9321594238281 -21.530574798583984 476.40264892578125 -19.294286727905273 C 487.0114440917969 -16.328407287597656 494.433349609375 -9.075057983398438 507.1104736328125 9.164137840270996" stroke-width="0.0" fill="rgb(15, 15, 15)" opacity="0.9638894"/>
    <path d="M 19.60672950744629 522.1911010742188 C 11.818807601928711 522.892578125 2.7330706119537354 525.8677978515625 12.225356101989746 581.9520874023438 C -20.266738891601562 581.3463134765625 -16.10987091064453 557.7874145507812 -11.42900562286377 532.7969970703125 C -5.379004955291748 524.1885375976562 6.397530555725098 522.7830810546875 7.832930564880371 516.7305908203125 C 9.913006782531738 521.2794799804688 19.588462829589844 527.072265625 19.60672950744629 522.1911010742188" stroke-width="0.0" fill="rgb(15, 15, 16)" opacity="1.0"/>
    <path d="M 561.8397827148438 495.6632385253906 C 568.2744750976562 513.8076782226562 571.4240112304688 520.7527465820312 555.2836303710938 514.482666015625 C 546.830322265625 525.8709716796875 544.09375 522.1492309570312 545.50927734375 509.2285461425781 C 553.166015625 498.6207580566406 556.7424926757812 489.4712219238281 565.7554931640625 481.71746826171875 C 572.4765625 482.4963073730469 571.782470703125 490.9071350097656 561.8397827148438 495.6632385253906" stroke-width="0.0" fill="rgb(101, 101, 101)" opacity="1.0"/>
    <path d="M 262.75372314453125 90.47425842285156 C 270.4272766113281 101.25594329833984 271.1028137207031 111.47843170166016 263.3131408691406 104.26362609863281 C 250.9835205078125 103.9061050415039 238.3670196533203 100.99385070800781 235.21263122558594 99.66000366210938 C 244.8726348876953 80.56600952148438 248.38462829589844 70.848876953125 251.2134552001953 77.25990295410156 C 261.5976257324219 78.37950134277344 267.3081359863281 84.2735366821289 262.75372314453125 90.47425842285156" stroke-width="0.0" fill="rgb(149, 149, 150)" opacity="0.8454145"/>
    <path d="M 51.85667419433594 355.46954345703125 C 13.447941780090332 363.1689453125 0.5388931035995483 346.78021240234375 9.22439956665039 392.6751708984375 C 1.4610204696655273 403.211669921875 -13.325034141540527 382.7072448730469 -12.589059829711914 354.92718505859375 C -10.21147632598877 334.0200500488281 -0.4260109066963196 317.4466552734375 6.604166507720947 333.72393798828125 C 6.250216960906982 362.19537353515625 15.254961967468262 344.6916809082031 51.85667419433594 355.46954345703125" stroke-width="0.0" fill="rgb(1, 2, 3)" opacity="0.99384564"/>
    <path d="M 573.5120849609375 167.0198516845703 C 570.628173828125 177.2164306640625 563.6788330078125 184.1565704345703 549.6015014648438 171.92633056640625 C 534.4570922851562 183.36087036132812 537.866943359375 180.31500244140625 528.2035522460938 156.36074829101562 C 513.2443237304688 137.35777282714844 518.28662109375 126.53538513183594 550.0407104492188 123.87391662597656 C 568.21875 142.08705139160156 571.4415283203125 155.12449645996094 573.5120849609375 167.0198516845703" stroke-width="0.0" fill="rgb(129, 129, 129)" opacity="1.0"/>
    <path d="M 592.096435546875 166.1526336669922 C 595.7001342773438 180.0321044921875 598.3524780273438 198.53709411621094 577.1530151367188 200.80172729492188 C 551.9700317382812 204.5492706298828 548.6232299804688 194.56796264648438 550.2936401367188 174.2113494873047 C 561.8196411132812 160.05999755859375 569.3096313476562 152.91636657714844 579.3134765625 150.00262451171875 C 589.8948364257812 152.12139892578125 597.8522338867188 159.2705535888672 592.096435546875 166.1526336669922" stroke-width="0.0" fill="rgb(149, 149, 149)" opacity="1.0"/>
    <path d="M 551.978515625 15.779485702514648 C 539.3613891601562 11.919434547424316 514.9615478515625 18.566497802734375 516.0628051757812 20.762832641601562 C 510.43572998046875 6.912852764129639 484.3517150878906 21.548059463500977 475.0439758300781 9.381216049194336 C 492.12335205078125 -11.059098243713379 500.8251953125 -17.441604614257812 510.9955749511719 -20.007421493530273 C 521.1631469726562 -17.413753509521484 530.974609375 -11.569282531738281 551.978515625 15.779485702514648" stroke-width="0.0" fill="rgb(0, 0, 0)" opacity="0.9670476"/>
    <path d="M 127.23591613769531 18.000308990478516 C 78.15141296386719 12.047585487365723 78.62049102783203 9.157306671142578 75.01596069335938 44.820274353027344 C 70.49806213378906 12.76372241973877 65.96498107910156 15.722126007080078 33.99745559692383 13.006185531616211 C 45.44767379760742 -11.184977531433105 61.32807159423828 -10.95985221862793 76.57234954833984 -9.814786911010742 C 94.19730377197266 -9.918386459350586 117.38850402832031 -16.992111206054688 127.23591613769531 18.000308990478516" stroke-width="0.0" fill="rgb(16, 17, 19)" opacity="0.9492083"/>
    <path d="M 116.30349731445312 33.912296295166016 C 109.0350570678711 64.97313690185547 102.57681274414062 73.45088195800781 79.52127838134766 83.90462493896484 C 86.6755599975586 70.84463500976562 95.84039306640625 51.672611236572266 78.51614379882812 48.589725494384766 C 49.20635986328125 34.17888641357422 64.4403305053711 15.712118148803711 88.13678741455078 43.80842208862305 C 98.52960968017578 55.361026763916016 116.12692260742188 33.22694396972656 116.30349731445312 33.912296295166016" stroke-width="0.0" fill="rgb(5, 6, 6)" opacity="0.96089906"/>
    <path d="M 398.3097839355469 55.510311126708984 C 406.9115905761719 75.60576629638672 399.33319091796875 75.03668975830078 380.805419921875 73.15464782714844 C 369.40093994140625 72.25131225585938 361.6073913574219 64.66150665283203 358.35955810546875 53.596221923828125 C 362.37139892578125 44.337074279785156 370.9278259277344 37.55897521972656 381.6424255371094 28.080825805664062 C 396.5216369628906 33.208892822265625 412.0672607421875 40.33043670654297 398.3097839355469 55.510311126708984" stroke-width="0.0" fill="rgb(255, 255, 255)" opacity="0.8367148"/>
    <path d="M 197.87376403808594 112.40095520019531 C 201.3345184326172 115.8243637084961 196.0912628173828 123.26631927490234 192.34527587890625 127.1656723022461 C 186.41873168945312 125.53857421875 178.4381561279297 119.09819030761719 175.16355895996094 109.85873413085938 C 170.80859375 97.36434173583984 172.8874969482422 85.7364730834961 182.64173889160156 84.50431060791016 C 196.79588317871094 99.42790222167969 200.89108276367188 108.2928237915039 197.87376403808594 112.40095520019531" stroke-width="0.0" fill="rgb(185, 185, 185)" opacity="0.7248963"/>
    <path d="M 188.3594512939453 5.595354080200195 C 175.94786071777344 26.31296157836914 171.0830535888672 33.959774017333984 160.6519775390625 18.023088455200195 C 128.08677673339844 6.4270548820495605 122.73204040527344 37.17494583129883 104.85623168945312 4.4619340896606445 C 118.90911102294922 -20.583009719848633 138.99740600585938 -16.9853572845459 151.81710815429688 -17.7451171875 C 159.88473510742188 -12.213970184326172 163.28878784179688 0.09604746103286743 188.3594512939453 5.595354080200195" stroke-width="0.0" fill="rgb(23, 24, 26)" opacity="0.9467072"/>
    <path d="M 77.3083724975586 82.89095306396484 C 70.32210540771484 104.86267852783203 77.3758544921875 123.1869888305664 52.62096405029297 140.33164978027344 C 23.293785095214844 135.12722778320312 22.060810089111328 119.52713775634766 33.00788116455078 100.609619140625 C 43.93239974975586 80.36807250976562 39.8736457824707 61.43833541870117 42.83003234863281 54.16255569458008 C 68.45368194580078 76.29158782958984 83.32472229003906 76.28933715820312 77.3083724975586 82.89095306396484" stroke-width="0.0" fill="rgb(148, 148, 148)" opacity="0.9795526"/>
    <path d="M 61.8985481262207 558.0912475585938 C 45.04545974731445 568.361572265625 37.13301086425781 574.2228393554688 31.924684524536133 573.9114990234375 C 30.982162475585938 575.01904296875 18.136516571044922 572.791748046875 8.71505355834961 570.9371948242188 C 10.81423568725586 553.0030517578125 21.90355110168457 554.420166015625 38.05906677246094 555.1582641601562 C 46.64861297607422 546.5542602539062 54.40066909790039 554.083251953125 61.8985481262207 558.0912475585938" stroke-width="0.0" fill="rgb(137, 137, 137)" opacity="0.8928651"/>
    <path d="M 326.3440856933594 24.436580657958984 C 322.9368896484375 35.148155212402344 318.1280822753906 45.51414108276367 311.7700500488281 42.94095993041992 C 295.98358154296875 47.27885818481445 293.23895263671875 30.265905380249023 286.0632019042969 23.550264358520508 C 283.1508483886719 13.124475479125977 301.31585693359375 14.46702766418457 313.30279541015625 12.980774879455566 C 315.0232238769531 6.707301616668701 323.5921630859375 12.807363510131836 326.3440856933594 24.436580657958984" stroke-width="0.0" fill="rgb(255, 255, 255)" opacity="0.9446943"/>
    <path d="M 269.7223205566406 597.6971435546875 C 265.28082275390625 598.6477661132812 252.1949920654297 586.7307739257812 214.7499237060547 593.4711303710938 C 200.71363830566406 592.8475341796875 195.83566284179688 592.312255859375 198.66806030273438 576.4609985351562 C 221.6437225341797 574.0037231445312 223.11508178710938 563.8988647460938 228.0882568359375 564.120361328125 C 231.3048553466797 559.457763671875 240.35653686523438 561.871337890625 269.7223205566406 597.6971435546875" stroke-width="0.0" fill="rgb(160, 160, 160)" opacity="1.0"/>
    <path d="M 95.7804183959961 365.5335693359375 C 71.52671813964844 364.4249572753906 60.39371109008789 370.9383850097656 61.2126350402832 374.9783020019531 C 70.33294677734375 367.76251220703125 49.32172393798828 370.1405334472656 37.719093322753906 391.8750305175781 C 40.17375946044922 343.662353515625 49.3727912902832 344.5362548828125 71.01713562011719 328.09344482421875 C 80.8398666381836 324.5888977050781 84.9700698852539 341.600341796875 95.7804183959961 365.5335693359375" stroke-width="0.0" fill="rgb(11, 12, 12)" opacity="1.0"/>
    <path d="M 81.5264892578125 151.94073486328125 C 75.03584289550781 177.98385620117188 69.33051300048828 185.1277618408203 59.20901870727539 182.17437744140625 C 48.182090759277344 177.07949829101562 35.92805099487305 173.19015502929688 36.47957992553711 169.3034210205078 C 46.43489074707031 156.0746307373047 41.33372116088867 136.0970001220703 45.96109390258789 120.85624694824219 C 58.8991813659668 156.02137756347656 71.12613677978516 152.59994506835938 81.5264892578125 151.94073486328125" stroke-width="0.0" fill="rgb(136, 136, 137)" opacity="1.0"/>
    <path d="M 161.72467041015625 46.56991195678711 C 154.48910522460938 66.60955047607422 143.87136840820312 65.27973937988281 125.97615051269531 63.47412109375 C 113.452392578125 69.65889739990234 102.18576049804688 66.65656280517578 99.76338958740234 59.55344772338867 C 122.62358856201172 41.497989654541016 115.15277099609375 23.596294403076172 117.6280288696289 13.810665130615234 C 134.3484649658203 38.39768600463867 141.91578674316406 45.81144332885742 161.72467041015625 46.56991195678711" stroke-width="0.0" fill="rgb(141, 141, 141)" opacity="1.0"/>
    <path d="M 134.70809936523438 307.46746826171875 C 127.50513458251953 323.5117492675781 118.995849609375 330.0578918457031 108.306396484375 335.98321533203125 C 99.38758850097656 327.79168701171875 88.95124053955078 322.60980224609375 81.93203735351562 305.5129699707031 C 81.9656753540039 287.2823486328125 95.603759765625 294.1258239746094 110.20054626464844 300.4157409667969 C 113.6198959350586 304.5697326660156 132.664306640625 302.0830078125 134.70809936523438 307.46746826171875" stroke-width="0.0" fill="rgb(255, 255, 255)" opacity="0.96485037"/>
    <path d="M 395.3081359863281 19.224361419677734 C 397.6289978027344 29.721738815307617 390.29278564453125 31.73894691467285 384.2666015625 13.384119987487793 C 375.8139953613281 14.908074378967285 358.9246520996094 22.157176971435547 337.02130126953125 12.128437995910645 C 345.3840026855469 -7.456625461578369 363.5712585449219 -4.519454002380371 380.31292724609375 -2.5787508487701416 C 392.2675476074219 0.578827440738678 401.5909118652344 8.409646987915039 395.3081359863281 19.224361419677734" stroke-width="0.0" fill="rgb(88, 88, 89)" opacity="1.0"/>
    <path d="M 217.7888946533203 44.88645553588867 C 212.09300231933594 57.95918655395508 208.1986083984375 50.552894592285156 196.7578125 69.78510284423828 C 203.65452575683594 63.09030532836914 199.7018280029297 55.80766296386719 163.12428283691406 46.88433837890625 C 201.0070343017578 48.648460388183594 208.2211456298828 43.87525177001953 208.0096893310547 40.75740432739258 C 213.46649169921875 37.34697341918945 244.6641845703125 27.109102249145508 217.7888946533203 44.88645553588867" stroke-width="0.0" fill="rgb(12, 12, 12)" opacity="0.94634175"/>
    <path d="M 365.9577331542969 26.703893661499023 C 353.3079833984375 41.09331512451172 365.09710693359375 55.420623779296875 373.8924255371094 55.37747573852539 C 348.3873596191406 65.16275787353516 360.494873046875 41.7885856628418 337.0201721191406 36.19979476928711 C 350.90045166015625 29.355566024780273 363.768798828125 27.640522003173828 352.2459716796875 8.266976356506348 C 367.6608581542969 18.142196655273438 372.4556579589844 17.642379760742188 365.9577331542969 26.703893661499023" stroke-width="0.0" fill="rgb(30, 30, 30)" opacity="1.0"/>
    <path d="M 591.5045166015625 304.1350402832031 C 594.67041015625 341.3825988769531 585.6964111328125 336.310791015625 558.3721923828125 332.5605163574219 C 544.0694580078125 337.73590087890625 538.9253540039062 323.2760009765625 531.7243041992188 309.5420837402344 C 527.2802124023438 292.6807556152344 530.8397216796875 285.68658447265625 560.0398559570312 285.92181396484375 C 585.5936889648438 281.1220397949219 594.5692138671875 282.34539794921875 591.5045166015625 304.1350402832031" stroke-width="0.0" fill="rgb(126, 127, 127)" opacity="1.0"/>
    <path d="M 605.1510620117188 136.80551147460938 C 594.6636962890625 156.10426330566406 587.1232299804688 163.47412109375 577.65185546875 164.9252166748047 C 567.5604248046875 162.3990478515625 558.72802734375 155.83079528808594 547.6009521484375 143.5229949951172 C 544.8850708007812 134.81597900390625 562.818359375 132.20980834960938 586.9473266601562 123.34033966064453 C 606.1478271484375 118.61092376708984 613.1397705078125 121.08834075927734 605.1510620117188 136.80551147460938" stroke-width="0.0" fill="rgb(128, 128, 128)" opacity="0.9947733"/>
    <path d="M 40.9987678527832 165.4208526611328 C 29.340431213378906 171.51934814453125 15.337373733520508 170.98043823242188 12.83315372467041 174.9367218017578 C 11.159581184387207 186.1422119140625 1.3862597942352295 186.65386962890625 21.058975219726562 190.62644958496094 C 5.957469940185547 171.1053009033203 5.447078704833984 154.4622039794922 9.987380981445312 123.18589782714844 C 24.76559829711914 143.97201538085938 30.390596389770508 155.54812622070312 40.9987678527832 165.4208526611328" stroke-width="0.0" fill="rgb(228, 228, 228)" opacity="0.77264535"/>
    <path d="M 264.8422546386719 33.64984893798828 C 266.4212951660156 44.69717025756836 259.8038330078125 49.779136657714844 241.32675170898438 56.36479949951172 C 243.01666259765625 42.969669342041016 232.50050354003906 36.82419967651367 219.41387939453125 33.93022918701172 C 232.43069458007812 20.358598709106445 247.915283203125 21.68619155883789 262.830322265625 11.288322448730469 C 256.0296325683594 9.30517292022705 265.2248840332031 21.244808197021484 264.8422546386719 33.64984893798828" stroke-width="0.0" fill="rgb(130, 130, 130)" opacity="0.9983141"/>
    <path d="M 190.49317932128906 587.125 C 183.80958557128906 594.5429077148438 163.6233673095703 590.0260009765625 153.99124145507812 591.7026977539062 C 159.7987823486328 593.8311767578125 149.34857177734375 592.5253295898438 146.15093994140625 588.053466796875 C 147.93894958496094 572.16943359375 156.86981201171875 567.8511962890625 168.24813842773438 566.0297241210938 C 180.60159301757812 565.5282592773438 193.39906311035156 566.0684204101562 190.49317932128906 587.125" stroke-width="0.0" fill="rgb(255, 255, 255)" opacity="0.97414047"/>
    <path d="M 554.8555908203125 16.711441040039062 C 552.0855102539062 30.338993072509766 545.6707153320312 39.84044647216797 529.56787109375 35.892967224121094 C 518.3946533203125 34.206764221191406 519.298095703125 16.720813751220703 527.1560668945312 21.28006362915039 C 532.3320922851562 24.402244567871094 540.781005859375 18.585227966308594 548.3389892578125 12.711602210998535 C 545.9810180664062 -5.9970903396606445 552.74462890625 2.776777982711792 554.8555908203125 16.711441040039062" stroke-width="0.0" fill="rgb(248, 248, 248)" opacity="0.8962847"/>
    <path d="M 575.3352661132812 482.0504150390625 C 565.0576171875 485.7433776855469 557.5988159179688 491.1362609863281 552.625732421875 504.10260009765625 C 544.154296875 510.4241638183594 537.1981811523438 497.2586975097656 535.598388671875 487.408935546875 C 539.2337646484375 475.9971618652344 544.0819091796875 467.5373840332031 554.2763061523438 467.5596008300781 C 564.0814819335938 467.70330810546875 572.5865478515625 475.01239013671875 575.3352661132812 482.0504150390625" stroke-width="0.0" fill="rgb(244, 244, 244)" opacity="0.82250655"/>
    <path d="M 560.1460571289062 447.6334228515625 C 561.4528198242188 467.7889709472656 552.1695556640625 472.3622131347656 539.9292602539062 471.151611328125 C 531.2974243164062 465.2230224609375 523.8703002929688 458.4551696777344 521.6234741210938 453.9671630859375 C 526.9423828125 453.3830261230469 539.5635986328125 450.5702209472656 545.1869506835938 433.1569519042969 C 537.613525390625 434.729248046875 559.6527099609375 436.9797058105469 560.1460571289062 447.6334228515625" stroke-width="0.0" fill="rgb(253, 253, 253)" opacity="0.99696577"/>
    <path d="M 257.5334777832031 119.29170227050781 C 257.9728698730469 125.14827728271484 249.77479553222656 130.17950439453125 243.49261474609375 129.8464813232422 C 235.77732849121094 129.3447265625 225.01040649414062 125.74637603759766 220.9875030517578 122.23516845703125 C 232.09304809570312 107.5976791381836 232.17129516601562 94.4507064819336 232.7257537841797 99.50714111328125 C 247.96356201171875 107.00479125976562 256.0537109375 112.39954376220703 257.5334777832031 119.29170227050781" stroke-width="0.0" fill="rgb(187, 187, 187)" opacity="0.77195126"/>
    <path d="M 205.80699157714844 80.98756408691406 C 175.3524169921875 101.13773345947266 176.27548217773438 117.57626342773438 174.6986846923828 99.03173828125 C 165.6149139404297 91.9834213256836 160.85911560058594 80.097900390625 129.0066680908203 88.67333221435547 C 150.30726623535156 70.96675872802734 151.3109130859375 44.850215911865234 154.3655242919922 72.18895721435547 C 163.15237426757812 84.87059020996094 170.52252197265625 93.66161346435547 205.80699157714844 80.98756408691406" stroke-width="0.0" fill="rgb(15, 15, 16)" opacity="0.9304768"/>
    <path d="M 585.7660522460938 486.1190185546875 C 567.648681640625 489.9554748535156 550.4853515625 508.1962585449219 559.4808349609375 493.8700866699219 C 561.3104858398438 479.8983459472656 553.6004638671875 484.7880859375 540.565185546875 486.1358642578125 C 536.5640258789062 473.8819885253906 557.3519287109375 478.50537109375 557.5511474609375 465.7149963378906 C 573.5332641601562 445.4555358886719 548.7650146484375 484.78363037109375 585.7660522460938 486.1190185546875" stroke-width="0.0" fill="rgb(6, 7, 7)" opacity="0.9575417"/>
    <path d="M 440.5150146484375 14.117569923400879 C 407.466552734375 7.932005882263184 387.59918212890625 16.179319381713867 373.2215881347656 19.05916976928711 C 368.1740417480469 23.449953079223633 351.36083984375 23.003849029541016 337.140625 -1.727899193763733 C 348.2236328125 -16.940196990966797 368.6728515625 -14.492780685424805 383.28997802734375 -15.344926834106445 C 402.2586669921875 -17.23815155029297 429.10089111328125 -26.6977596282959 440.5150146484375 14.117569923400879" stroke-width="0.0" fill="rgb(0, 0, 0)" opacity="0.971774"/>
    <path d="M 378.5729675292969 587.1055297851562 C 370.3952941894531 593.160888671875 349.2416076660156 588.7000732421875 340.1145935058594 589.59228515625 C 335.9085388183594 612.2830200195312 320.7738342285156 615.3922119140625 312.2986145019531 597.6278686523438 C 331.0975341796875 567.0992431640625 340.1261901855469 566.6939086914062 358.2965087890625 565.87353515625 C 370.61431884765625 562.5872192382812 382.0304870605469 576.7578735351562 378.5729675292969 587.1055297851562" stroke-width="0.0" fill="rgb(191, 191, 191)" opacity="1.0"/>
    <path d="M 78.73728942871094 353.1395263671875 C 84.67469024658203 358.2655334472656 68.99386596679688 356.39923095703125 53.42961120605469 364.43798828125 C 41.542503356933594 362.2579040527344 27.541107177734375 357.3206481933594 35.61568069458008 347.2557067871094 C 32.439449310302734 325.9400634765625 43.5463752746582 329.0184631347656 69.60630798339844 321.89276123046875 C 80.99024200439453 313.31097412109375 80.10277557373047 322.49932861328125 78.73728942871094 353.1395263671875" stroke-width="0.0" fill="rgb(226, 226, 226)" opacity="1.0"/>
    <path d="M 56.34410858154297 -8.845516204833984 C 46.8620719909668 -2.6760330200195312 38.51078796386719 6.013535022735596 36.176918029785156 13.79979419708252 C 40.2127685546875 15.770758628845215 33.521602630615234 5.581197261810303 29.85430335998535 -4.560848236083984 C 29.67949104309082 -10.0 37.0 -17.32050895690918 47.0 -20.0 C 57.0 -17.32050895690918 64.32051086425781 -10.0 56.34410858154297 -8.845516204833984" stroke-width="0.0" fill="rgb(106, 112, 113)" opacity="1.0"/>
    <path d="M 559.8056640625 321.97381591796875 C 550.61669921875 328.15185546875 539.3987426757812 334.663330078125 529.4440307617188 325.7353515625 C 527.947265625 322.287841796875 518.6062622070312 323.5082702636719 514.09033203125 313.33984375 C 510.37249755859375 302.51513671875 516.86376953125 295.1220397949219 544.5274658203125 280.5072021484375 C 558.9962768554688 293.8612365722656 561.1586303710938 309.3238525390625 559.8056640625 321.97381591796875" stroke-width="0.0" fill="rgb(167, 167, 167)" opacity="1.0"/>
    <path d="M 611.1286010742188 475.91998291015625 C 613.28125 493.87017822265625 612.9174194335938 511.5923767089844 587.47216796875 513.1386108398438 C 598.51416015625 470.7922668457031 559.5302734375 491.9348449707031 574.9168090820312 480.1473693847656 C 589.7396850585938 474.6052551269531 595.6049194335938 467.3661193847656 601.89208984375 464.3624267578125 C 600.0980834960938 456.0888671875 607.3607788085938 463.85296630859375 611.1286010742188 475.91998291015625" stroke-width="0.0" fill="rgb(4, 4, 4)" opacity="0.9947331"/>
    <path d="M 202.07577514648438 17.432870864868164 C 183.98638916015625 16.45745849609375 172.0413360595703 17.794567108154297 171.6422119140625 39.367000579833984 C 170.5018768310547 64.17732238769531 144.3848419189453 55.986351013183594 165.3101348876953 25.975242614746094 C 182.63742065429688 19.354961395263672 186.495849609375 16.393770217895508 183.6667938232422 8.066388130187988 C 181.93096923828125 20.045289993286133 191.05091857910156 21.129716873168945 202.07577514648438 17.432870864868164" stroke-width="0.0" fill="rgb(70, 70, 71)" opacity="1.0"/>
    <path d="M 613.6404418945312 31.660734176635742 C 605.320068359375 58.28055191040039 587.2694091796875 36.8734245300293 569.541015625 24.63185691833496 C 550.68896484375 38.37503433227539 557.09130859375 23.196861267089844 551.3570556640625 2.289637565612793 C 532.8803100585938 -3.4098801612854004 540.2655639648438 -11.53470230102539 571.1923828125 -14.820799827575684 C 597.38232421875 -18.71411895751953 609.5921630859375 -16.97702980041504 613.6404418945312 31.660734176635742" stroke-width="0.0" fill="rgb(21, 21, 22)" opacity="1.0"/>
    <path d="M 421.099365234375 590.3028564453125 C 410.6138000488281 591.3274536132812 396.10821533203125 588.6591796875 396.9021911621094 589.1356811523438 C 393.84368896484375 595.4874267578125 391.72686767578125 584.6885375976562 390.48699951171875 580.44921875 C 386.5838928222656 595.8206787109375 391.5140686035156 577.1259765625 402.4841003417969 576.1731567382812 C 406.7362365722656 572.2604370117188 414.6670837402344 577.0225219726562 421.099365234375 590.3028564453125" stroke-width="0.0" fill="rgb(221, 221, 221)" opacity="0.8590543"/>
    <path d="M 127.75305938720703 89.28654479980469 C 131.96136474609375 97.61193084716797 120.00968933105469 97.0634994506836 96.81103515625 103.83363342285156 C 86.64326477050781 105.45780181884766 76.86829376220703 95.59636688232422 74.33229064941406 80.04714965820312 C 99.54631805419922 83.98762512207031 90.23700714111328 71.40746307373047 101.04925537109375 51.108978271484375 C 119.46176147460938 46.9318962097168 117.94625854492188 62.94170379638672 127.75305938720703 89.28654479980469" stroke-width="0.0" fill="rgb(159, 159, 159)" opacity="1.0"/>
    <path d="M 88.68488311767578 42.68809509277344 C 37.91352462768555 45.50824737548828 36.59867477416992 34.24119186401367 43.04951477050781 59.9970703125 C -4.885312080383301 64.48456573486328 26.93807029724121 55.09600067138672 40.949161529541016 39.235084533691406 C 21.844680786132812 25.63650894165039 22.363731384277344 12.920389175415039 36.107810974121094 18.647035598754883 C 42.48017120361328 36.70989990234375 51.77893829345703 30.40643882751465 88.68488311767578 42.68809509277344" stroke-width="0.0" fill="rgb(6, 6, 6)" opacity="0.9527316"/>
    <path d="M 171.69065856933594 139.0966339111328 C 138.33091735839844 162.60369873046875 109.80472564697266 143.68914794921875 123.29462432861328 150.51271057128906 C 118.31333923339844 152.10353088378906 98.1649398803711 152.75611877441406 85.76557159423828 141.45709228515625 C 88.27864837646484 125.30955505371094 94.93809509277344 122.67163848876953 120.66846466064453 112.90628051757812 C 117.41767120361328 149.21229553222656 122.8540267944336 139.62322998046875 171.69065856933594 139.0966339111328" stroke-width="0.0" fill="rgb(0, 0, 0)" opacity="0.999731"/>
    <path d="M 316.16448974609375 9.824837684631348 C 316.8092956542969 18.79372215270996 314.3319091796875 16.032012939453125 305.7168884277344 9.15674877166748 C 303.1772766113281 11.779426574707031 291.37579345703125 8.509818077087402 281.9767150878906 1.3000253438949585 C 285.3958435058594 -6.604239463806152 293.7799987792969 -13.413331985473633 303.8304138183594 -15.99141788482666 C 312.3750305175781 -12.937196731567383 316.81109619140625 -2.467766284942627 316.16448974609375 9.824837684631348" stroke-width="0.0" fill="rgb(0, 0, 0)" opacity="0.9202926"/>
    <path d="M 117.1166000366211 136.2109375 C 104.9997329711914 145.5879364013672 85.37334442138672 139.09979248046875 86.57575225830078 138.68740844726562 C 89.21078491210938 143.22808837890625 81.366455078125 137.09095764160156 75.66883087158203 128.8265380859375 C 70.57038116455078 117.61326599121094 75.89068603515625 112.94171905517578 102.12357330322266 95.03375244140625 C 105.76114654541016 100.2955093383789 102.24044799804688 123.82915496826172 117.1166000366211 136.2109375" stroke-width="0.0" fill="rgb(157, 158, 158)" opacity="1.0"/>
    <path d="M 261.50933837890625 60.39435958862305 C 290.4546203613281 67.44339752197266 280.0519714355469 73.5642318725586 267.0479736328125 75.2485580444336 C 255.09286499023438 70.97718048095703 246.5250701904297 62.44527053833008 240.8352813720703 55.65380859375 C 245.1439971923828 38.99195861816406 252.2893829345703 31.35268783569336 271.6880187988281 24.318607330322266 C 288.1578674316406 31.939741134643555 293.2705993652344 49.89204025268555 261.50933837890625 60.39435958862305" stroke-width="0.0" fill="rgb(217, 217, 217)" opacity="0.5738847"/>
    <path d="M 397.7750549316406 25.888099670410156 C 414.7877197265625 47.740699768066406 405.7768859863281 53.25582504272461 388.7740478515625 27.693073272705078 C 384.7795715332031 19.917877197265625 378.886962890625 13.270155906677246 364.581298828125 17.742128372192383 C 374.802978515625 16.26632308959961 386.0274658203125 14.614684104919434 386.6832275390625 15.978646278381348 C 385.619873046875 10.457990646362305 395.13946533203125 13.061057090759277 397.7750549316406 25.888099670410156" stroke-width="0.0" fill="rgb(18, 18, 18)" opacity="1.0"/>
    <path d="M 567.48779296875 27.110942840576172 C 544.0852661132812 35.17677688598633 548.6525268554688 40.02460861206055 575.9609375 75.71053314208984 C 529.802734375 44.652122497558594 537.9029541015625 38.1379280090332 558.9390258789062 19.821569442749023 C 522.9813842773438 7.828805446624756 527.0147705078125 -7.667181015014648 535.6538696289062 -12.761343955993652 C 568.5330200195312 -0.9699769616127014 573.8458251953125 9.817730903625488 567.48779296875 27.110942840576172" stroke-width="0.0" fill="rgb(20, 20, 20)" opacity="0.99817765"/>
    <path d="M 611.3493041992188 171.31793212890625 C 608.2994384765625 184.54208374023438 602.803466796875 194.99729919433594 592.8384399414062 199.25428771972656 C 585.0700073242188 183.93089294433594 587.0537719726562 164.59466552734375 575.6788940429688 164.77688598632812 C 553.490478515625 176.99879455566406 578.3455810546875 168.12692260742188 594.4249267578125 114.67219543457031 C 618.2556762695312 134.0128173828125 614.4160766601562 153.42263793945312 611.3493041992188 171.31793212890625" stroke-width="0.0" fill="rgb(5, 5, 5)" opacity="0.9330235"/>
    <path d="M 534.890625 115.15511322021484 C 530.7232666015625 143.8192901611328 510.64617919921875 135.7877197265625 494.1589050292969 137.01651000976562 C 485.26263427734375 135.30577087402344 481.4535217285156 126.45100402832031 483.51904296875 121.37039184570312 C 481.5975036621094 116.7828369140625 486.8504638671875 110.88267517089844 495.5327453613281 112.98430633544922 C 506.2118835449219 106.63272094726562 525.1436767578125 97.1571273803711 534.890625 115.15511322021484" stroke-width="0.0" fill="rgb(135, 135, 135)" opacity="1.0"/>
    <path d="M 39.56537628173828 40.161407470703125 C 53.16576385498047 40.21626281738281 44.82672119140625 46.74979782104492 42.66506576538086 39.770503997802734 C 38.8367805480957 31.118925094604492 33.99428939819336 21.632280349731445 32.093807220458984 10.677485466003418 C 19.602468490600586 12.801667213439941 15.126008033752441 -2.1613945960998535 55.124000549316406 -8.172657012939453 C 35.482688903808594 7.723579406738281 24.871355056762695 28.528139114379883 39.56537628173828 40.161407470703125" stroke-width="0.0" fill="rgb(38, 39, 40)" opacity="0.9653497"/>
    <path d="M 124.35041809082031 497.5494079589844 C 110.55349731445312 502.6827697753906 109.10491943359375 514.5269165039062 113.90621948242188 508.1910400390625 C 89.0456314086914 517.8194580078125 81.05438995361328 509.0221862792969 81.16436004638672 494.27276611328125 C 87.32733917236328 487.56732177734375 98.64476776123047 484.92437744140625 101.82291412353516 483.2624816894531 C 106.26679229736328 476.50555419921875 114.41018676757812 490.0958251953125 124.35041809082031 497.5494079589844" stroke-width="0.0" fill="rgb(255, 255, 255)" opacity="0.94414145"/>
  </g>
</svg>
