<?xml version="1.0" ?>
<svg xmlns="http://www.w3.org/2000/svg" version="1.1" width="600" height="600">
  <defs/>
  <g>
    <path d="M 543.0599365234375 274.06732177734375 C 540.51318359375 284.2090148925781 533.2274780273438 291.57562255859375 522.9764404296875 294.3519287109375 C 512.5658569335938 291.6463317871094 505.0248107910156 284.5414733886719 502.1746520996094 273.93060302734375 C 505.12786865234375 263.5412292480469 512.5645751953125 256.1938781738281 522.6708374023438 253.53419494628906 C 533.0 256.67950439453125 540.3204956054688 264.0 543.0599365234375 274.06732177734375" stroke-width="0.0" fill="rgb(232, 235, 240)" opacity="1.0"/>
    <path d="M 592.9406127929688 413.33636474609375 C 590.2119140625 423.8716125488281 582.8720092773438 431.2129211425781 571.552734375 433.9483947753906 C 561.1759643554688 431.20489501953125 554.0009155273438 423.7539978027344 551.5897827148438 413.1409606933594 C 554.1463012695312 402.4415283203125 561.4191284179688 395.0725402832031 571.7952880859375 392.5357666015625 C 582.6517333984375 395.11883544921875 590.1575927734375 402.25054931640625 592.9406127929688 413.33636474609375" stroke-width="0.0" fill="rgb(104, 53, 30)" opacity="1.0"/>
    <path d="M 164.33399963378906 158.7521209716797 C 161.39883422851562 169.04727172851562 153.96119689941406 176.13473510742188 143.88449096679688 178.71507263183594 C 133.85302734375 176.3019256591797 126.32249450683594 169.25424194335938 123.42648315429688 158.90982055664062 C 126.25381469726562 148.62643432617188 133.64878845214844 141.3280487060547 144.08761596679688 138.58424377441406 C 154.4432373046875 141.2323455810547 161.7994842529297 148.5470428466797 164.33399963378906 158.7521209716797" stroke-width="0.0" fill="rgb(232, 236, 241)" opacity="0.9904011"/>
    <path d="M 417.0008850097656 154.0087890625 C 414.3459167480469 164.04034423828125 407.053466796875 171.3875274658203 396.968994140625 174.24549865722656 C 387.0169982910156 171.31527709960938 379.7952575683594 163.947998046875 376.645751953125 153.81617736816406 C 379.3468322753906 143.6934051513672 386.69525146484375 136.34898376464844 396.9273376464844 133.42054748535156 C 407.03302001953125 136.55581665039062 414.3100891113281 144.00738525390625 417.0008850097656 154.0087890625" stroke-width="0.0" fill="rgb(225, 230, 236)" opacity="0.9909218"/>
    <path d="M 84.91242218017578 42.98966598510742 C 82.08377075195312 53.61468505859375 74.44155883789062 60.62088394165039 63.85978317260742 63.17912292480469 C 53.388648986816406 60.83032989501953 45.87141036987305 53.71416091918945 43.07373046875 42.512332916259766 C 45.81287384033203 32.163970947265625 53.16979217529297 24.827213287353516 63.94739532470703 22.087722778320312 C 74.82355499267578 24.83002281188965 82.16487121582031 32.17832565307617 84.91242218017578 42.98966598510742" stroke-width="0.0" fill="rgb(146, 99, 71)" opacity="1.0"/>
    <path d="M 35.91456604003906 487.2000427246094 C 33.05838394165039 498.6942138671875 25.561304092407227 504.9300231933594 15.38729190826416 507.0546875 C 4.907096862792969 504.6289367675781 -2.987649440765381 498.5714416503906 -5.691592216491699 487.6552429199219 C -3.1288859844207764 477.17523193359375 4.148496150970459 469.7936706542969 15.656652450561523 467.04644775390625 C 25.90015411376953 469.75933837890625 33.23019027709961 477.1042175292969 35.91456604003906 487.2000427246094" stroke-width="0.0" fill="rgb(112, 52, 23)" opacity="0.99006206"/>
    <path d="M 34.344547271728516 364.3070373535156 C 31.854415893554688 374.49169921875 24.455081939697266 381.7345275878906 14.16921615600586 384.1472473144531 C 4.0 381.32049560546875 -3.3205080032348633 374.0 -6.0 364.0 C -3.3205080032348633 354.0 4.0 346.67950439453125 14.0 344.0 C 24.0 346.67950439453125 31.32050895690918 354.0 34.344547271728516 364.3070373535156" stroke-width="0.0" fill="rgb(116, 57, 29)" opacity="1.0"/>
    <path d="M 248.99855041503906 150.99716186523438 C 246.30447387695312 160.96987915039062 238.94496154785156 168.2220001220703 228.9129180908203 171.32484436035156 C 218.96865844726562 168.4011993408203 211.67628479003906 161.00865173339844 208.944091796875 150.9517822265625 C 211.56103515625 140.89599609375 218.90719604492188 133.59805297851562 228.9745330810547 130.97775268554688 C 239.0 133.6794891357422 246.3205108642578 141.0 248.99855041503906 150.99716186523438" stroke-width="0.0" fill="rgb(226, 232, 238)" opacity="0.9932226"/>
    <path d="M 581.9265747070312 93.96111297607422 C 579.1859741210938 104.83800506591797 571.832275390625 112.17115783691406 560.9323120117188 114.91663360595703 C 550.3736572265625 112.0901107788086 543.3584594726562 104.45948791503906 540.2247314453125 93.31005096435547 C 542.838623046875 83.18108367919922 550.1793823242188 75.8333969116211 561.3682861328125 73.07135772705078 C 571.8373413085938 75.81690216064453 579.1863403320312 83.1612777709961 581.9265747070312 93.96111297607422" stroke-width="0.0" fill="rgb(140, 95, 69)" opacity="0.9901044"/>
    <path d="M 231.0599822998047 159.06561279296875 C 228.50637817382812 169.1993408203125 221.2113037109375 176.5459442138672 211.0944061279297 179.10174560546875 C 201.0 176.3205108642578 193.6794891357422 169.0 190.78707885742188 158.8069305419922 C 193.2801971435547 148.6106414794922 200.6041717529297 141.2588653564453 210.7733154296875 138.64614868164062 C 220.99658203125 141.6913604736328 228.32064819335938 149.00010681152344 231.0599822998047 159.06561279296875" stroke-width="0.0" fill="rgb(225, 232, 237)" opacity="0.9921434"/>
    <path d="M 442.10662841796875 535.8916625976562 C 439.3600158691406 546.100341796875 432.28302001953125 553.8330688476562 421.3335266113281 556.9034423828125 C 411.2598876953125 554.1401977539062 404.05548095703125 546.668701171875 401.67901611328125 536.3310546875 C 404.681396484375 526.0051879882812 412.0187683105469 518.7285766601562 422.3009033203125 515.5892944335938 C 432.35504150390625 518.264892578125 439.6099548339844 525.6838989257812 442.10662841796875 535.8916625976562" stroke-width="0.0" fill="rgb(223, 225, 228)" opacity="1.0"/>
    <path d="M 35.94218063354492 203.17269897460938 C 33.217491149902344 213.88113403320312 25.884353637695312 221.22555541992188 15.421607971191406 223.94850158691406 C 4.146359920501709 221.20993041992188 -3.125532627105713 213.82435607910156 -5.696849822998047 203.2020721435547 C -3.0897183418273926 192.2089080810547 4.173508167266846 184.80921936035156 15.260401725769043 182.0587158203125 C 25.865415573120117 184.78932189941406 33.204010009765625 192.13743591308594 35.94218063354492 203.17269897460938" stroke-width="0.0" fill="rgb(125, 72, 44)" opacity="1.0"/>
    <path d="M 543.019775390625 5.036811828613281 C 540.506591796875 15.312478065490723 533.504150390625 23.007349014282227 522.750244140625 25.910009384155273 C 512.3948364257812 23.0645751953125 505.3503112792969 15.454784393310547 502.9417419433594 5.091064453125 C 505.67950439453125 -5.0 513.0 -12.320508003234863 523.0 -15.0 C 533.0 -12.320508003234863 540.3204956054688 -5.0 543.019775390625 5.036811828613281" stroke-width="0.0" fill="rgb(158, 116, 88)" opacity="1.0"/>
    <path d="M 189.4922637939453 73.5066909790039 C 186.3205108642578 84.0 179.0 91.32051086425781 169.4434356689453 93.45716094970703 C 159.53378295898438 90.69479370117188 152.04266357421875 83.55033111572266 148.17430114746094 73.24734497070312 C 150.82391357421875 63.17123031616211 158.17510986328125 55.83367919921875 169.29083251953125 53.08664321899414 C 179.8031463623047 55.834068298339844 187.07408142089844 63.2282600402832 189.4922637939453 73.5066909790039" stroke-width="0.0" fill="rgb(129, 92, 68)" opacity="0.9906809"/>
    <path d="M 133.91639709472656 56.851402282714844 C 131.1132049560547 67.68031311035156 123.55326080322266 74.75337982177734 112.41636657714844 77.66728973388672 C 102.20169067382812 75.1274642944336 94.84146118164062 67.80905151367188 92.0869140625 56.8505744934082 C 94.8285903930664 46.17449188232422 102.17369842529297 38.82649230957031 113.19963073730469 36.0740852355957 C 123.8125991821289 38.831302642822266 131.16065979003906 46.1906852722168 133.91639709472656 56.851402282714844" stroke-width="0.0" fill="rgb(141, 99, 75)" opacity="1.0"/>
    <path d="M 256.3089294433594 136.7710418701172 C 253.3205108642578 147.0 246.0 154.3205108642578 235.99990844726562 157.0001220703125 C 225.9996337890625 154.32077026367188 218.67453002929688 147.00164794921875 215.44813537597656 136.66439819335938 C 218.26904296875 126.66633605957031 225.71978759765625 119.44646453857422 236.16671752929688 116.83222961425781 C 246.30130004882812 119.36701965332031 253.710205078125 126.67256164550781 256.3089294433594 136.7710418701172" stroke-width="0.0" fill="rgb(223, 229, 234)" opacity="0.9914484"/>
    <path d="M 573.3485107421875 535.624267578125 C 570.4895629882812 546.3018188476562 563.51513671875 554.0277099609375 552.2230224609375 556.9456787109375 C 542.1322021484375 554.224853515625 534.8672485351562 546.83544921875 532.44189453125 536.5675659179688 C 535.6402587890625 525.9003295898438 542.6959838867188 518.1317749023438 553.7133178710938 515.069091796875 C 563.8179931640625 517.8054809570312 571.0238647460938 525.2404174804688 573.3485107421875 535.624267578125" stroke-width="0.0" fill="rgb(106, 51, 24)" opacity="1.0"/>
    <path d="M 36.65106964111328 351.3997497558594 C 33.320274353027344 361.9996032714844 25.999326705932617 369.3193359375 15.999079704284668 371.99908447265625 C 5.9991655349731445 369.3212890625 -1.3214356899261475 362.0008850097656 -4.61613655090332 351.43035888671875 C -2.093057155609131 341.25665283203125 5.281461715698242 333.987060546875 16.12741470336914 331.41595458984375 C 26.745080947875977 333.95330810546875 34.11260223388672 341.2342834472656 36.65106964111328 351.3997497558594" stroke-width="0.0" fill="rgb(114, 56, 29)" opacity="0.9918356"/>
    <path d="M 400.58905029296875 120.86090850830078 C 397.64984130859375 131.25457763671875 390.1899108886719 138.43162536621094 379.5691223144531 141.62188720703125 C 369.5225830078125 138.87930297851562 362.2318115234375 131.43789672851562 359.5384521484375 121.24186706542969 C 362.4295959472656 110.74617767333984 369.6980285644531 103.28234100341797 379.8601379394531 100.38250732421875 C 390.41815185546875 103.24329376220703 397.7862854003906 110.57290649414062 400.58905029296875 120.86090850830078" stroke-width="0.0" fill="rgb(223, 229, 235)" opacity="0.9906355"/>
    <path d="M 571.9286499023438 136.47071838378906 C 569.1693725585938 147.82174682617188 561.8221435546875 155.1707000732422 551.4483032226562 157.91566467285156 C 540.222900390625 155.13694763183594 532.9322509765625 147.75343322753906 530.471923828125 137.5040283203125 C 533.6795043945312 127.0 541.0 119.67948913574219 551.3942260742188 116.63152313232422 C 561.739501953125 118.98509216308594 569.1785278320312 126.2027587890625 571.9286499023438 136.47071838378906" stroke-width="0.0" fill="rgb(140, 93, 64)" opacity="1.0"/>
    <path d="M 463.9621276855469 542.4805297851562 C 461.2297668457031 553.888427734375 453.88800048828125 561.2286987304688 442.58648681640625 563.9571533203125 C 432.10009765625 561.2396240234375 424.7640380859375 553.8982543945312 422.4424743652344 543.9234008789062 C 426.5931701660156 533.89404296875 433.8941345214844 526.593505859375 443.6854553222656 523.9627685546875 C 453.29058837890625 526.4713745117188 461.2196960449219 532.1954956054688 463.9621276855469 542.4805297851562" stroke-width="0.0" fill="rgb(35, 23, 10)" opacity="0.99000835"/>
    <path d="M 345.3006591796875 51.07437515258789 C 342.62225341796875 61.26739501953125 335.24267578125 68.53855895996094 324.84002685546875 71.35240173339844 C 314.66754150390625 68.67203521728516 307.3149108886719 61.337032318115234 304.4197998046875 50.87192916870117 C 307.31842041015625 40.66337203979492 314.61859130859375 33.196475982666016 324.77569580078125 30.310508728027344 C 335.2495422363281 33.34621810913086 342.5080871582031 40.79573440551758 345.3006591796875 51.07437515258789" stroke-width="0.0" fill="rgb(223, 229, 235)" opacity="0.99056077"/>
    <path d="M 577.714599609375 258.5435485839844 C 574.9844360351562 268.4570007324219 567.1756591796875 275.1488037109375 556.7803955078125 277.5715026855469 C 546.9825439453125 275.3507995605469 539.6748657226562 268.009765625 536.8789672851562 257.8874206542969 C 539.4080810546875 247.72509765625 546.711181640625 240.36276245117188 556.9810180664062 237.6171875 C 567.0308227539062 240.63681030273438 574.4904174804688 247.92857360839844 577.714599609375 258.5435485839844" stroke-width="0.0" fill="rgb(227, 232, 235)" opacity="1.0"/>
    <path d="M 223.93600463867188 24.92827796936035 C 221.1995391845703 35.85966491699219 213.86448669433594 43.21119689941406 203.72030639648438 45.92966842651367 C 192.47291564941406 43.024681091308594 185.4796142578125 35.334747314453125 182.979248046875 25.0393123626709 C 185.6794891357422 15.0 193.0 7.679491996765137 203.76324462890625 4.143435001373291 C 213.83538818359375 6.821845054626465 221.19375610351562 14.158071517944336 223.93600463867188 24.92827796936035" stroke-width="0.0" fill="rgb(125, 86, 65)" opacity="1.0"/>
    <path d="M 128.48182678222656 342.7671203613281 C 125.1423110961914 352.822509765625 117.82366943359375 360.1435241699219 107.92960357666016 362.9218444824219 C 98.0 360.32049560546875 90.67948913574219 353.0 87.99854278564453 342.9972839355469 C 90.66416931152344 332.9709167480469 97.93839263916016 325.556396484375 108.0083236694336 322.60400390625 C 118.2262191772461 325.4868469238281 125.68341827392578 332.7191467285156 128.48182678222656 342.7671203613281" stroke-width="0.0" fill="rgb(231, 235, 240)" opacity="0.99107856"/>
    <path d="M 193.96389770507812 507.5579528808594 C 191.24241638183594 518.9034423828125 183.90121459960938 526.2371826171875 173.04617309570312 528.9588623046875 C 162.10557556152344 526.23583984375 154.7697296142578 518.8919677734375 152.04559326171875 508.29071044921875 C 154.77569580078125 497.1170959472656 162.11741638183594 489.7763671875 173.6318817138672 487.0409851074219 C 183.91029357910156 489.7547607421875 191.2495880126953 497.08782958984375 193.96389770507812 507.5579528808594" stroke-width="0.0" fill="rgb(82, 39, 19)" opacity="1.0"/>
    <path d="M 124.92771911621094 17.42510986328125 C 122.19169616699219 27.843896865844727 114.84439086914062 35.192874908447266 104.47225952148438 37.93146896362305 C 93.17140197753906 35.17487716674805 85.82083892822266 27.83029556274414 83.07659149169922 17.26945686340332 C 85.8314437866211 6.1955742835998535 93.22593688964844 -1.0832747220993042 103.9196548461914 -3.708573818206787 C 114.74991607666016 -1.0623960494995117 122.1573257446289 6.215121269226074 124.92771911621094 17.42510986328125" stroke-width="0.0" fill="rgb(151, 104, 79)" opacity="1.0"/>
    <path d="M 71.9314956665039 497.2724609375 C 67.5869369506836 507.1893005371094 60.14900588989258 514.4344482421875 51.42943572998047 517.0441284179688 C 41.87590789794922 514.4181518554688 34.5211296081543 507.14385986328125 30.16361427307129 497.2808837890625 C 32.857669830322266 487.1888122558594 40.1918830871582 479.8674621582031 50.408546447753906 477.36468505859375 C 61.46718978881836 480.3658447265625 69.11638641357422 487.3490295410156 71.9314956665039 497.2724609375" stroke-width="0.0" fill="rgb(109, 51, 23)" opacity="0.9900093"/>
    <path d="M 476.9187927246094 25.947044372558594 C 474.1656494140625 36.808162689208984 466.8057861328125 44.160648345947266 455.72210693359375 46.930755615234375 C 445.15704345703125 44.186744689941406 437.80621337890625 36.84587097167969 435.06427001953125 26.36510467529297 C 437.8205261230469 15.172491073608398 445.1736755371094 7.823235511779785 455.5858154296875 5.080672740936279 C 466.82049560546875 7.836422443389893 474.17437744140625 15.175230979919434 476.9187927246094 25.947044372558594" stroke-width="0.0" fill="rgb(140, 101, 77)" opacity="1.0"/>
    <path d="M 477.4221496582031 132.89483642578125 C 474.5473937988281 143.17132568359375 467.130615234375 150.41555786132812 456.978271484375 153.0542755126953 C 446.81988525390625 150.46835327148438 439.4048156738281 143.2191619873047 436.4978332519531 132.94305419921875 C 439.4919128417969 122.89901733398438 446.9368896484375 115.60902404785156 457.0282287597656 112.65985107421875 C 467.3530578613281 115.33180236816406 474.7044677734375 122.63629150390625 477.4221496582031 132.89483642578125" stroke-width="0.0" fill="rgb(226, 231, 236)" opacity="0.99092734"/>
    <path d="M 106.95547485351562 475.9724426269531 C 104.23274230957031 486.89202880859375 96.88954162597656 494.2268371582031 86.22664642333984 496.9479675292969 C 75.15119171142578 494.207275390625 67.88320922851562 486.8173828125 65.40275573730469 476.4400329589844 C 68.04254913330078 465.28045654296875 75.20146179199219 457.81201171875 86.54347229003906 455.0504455566406 C 96.88939666748047 457.7700500488281 104.22978973388672 465.1107177734375 106.95547485351562 475.9724426269531" stroke-width="0.0" fill="rgb(107, 49, 23)" opacity="1.0"/>
    <path d="M 195.2008819580078 166.97470092773438 C 192.59896850585938 177.3139190673828 185.35287475585938 184.72462463378906 175.1777801513672 187.52537536621094 C 165.21035766601562 184.0909881591797 157.884521484375 176.7988739013672 155.0844268798828 166.86587524414062 C 157.5267791748047 156.826904296875 164.80795288085938 149.46456909179688 174.98231506347656 146.65615844726562 C 185.24378967285156 149.47235107421875 192.60324096679688 156.73428344726562 195.2008819580078 166.97470092773438" stroke-width="0.0" fill="rgb(230, 236, 240)" opacity="0.9905985"/>
    <path d="M 61.94514846801758 360.8143005371094 C 59.22196960449219 371.8817138671875 51.88177490234375 379.22247314453125 40.92362976074219 381.9562072753906 C 30.187679290771484 379.2002258300781 23.024555206298828 371.7337341308594 20.71709442138672 361.27606201171875 C 23.355003356933594 350.5155029296875 30.33415985107422 342.8741455078125 41.69321060180664 340.05108642578125 C 51.89058303833008 342.76953125 59.227108001708984 350.11077880859375 61.94514846801758 360.8143005371094" stroke-width="0.0" fill="rgb(112, 54, 28)" opacity="1.0"/>
    <path d="M 409.927978515625 17.746231079101562 C 407.1938171386719 28.849729537963867 399.8481140136719 36.19011688232422 388.51690673828125 38.93767166137695 C 378.1459045410156 36.20378112792969 370.80950927734375 28.848617553710938 368.0628967285156 17.53720474243164 C 370.7911071777344 7.138226509094238 378.1493225097656 -0.1791011095046997 389.093017578125 -2.867445945739746 C 399.84796142578125 -0.1801619529724121 407.1997375488281 7.144814968109131 409.927978515625 17.746231079101562" stroke-width="0.0" fill="rgb(117, 77, 56)" opacity="1.0"/>
    <path d="M 103.92695617675781 137.5906219482422 C 101.1793441772461 148.84158325195312 93.85041046142578 156.2010040283203 82.91877746582031 158.9419708251953 C 72.15714263916016 156.19638061523438 64.81317901611328 148.83851623535156 62.071346282958984 138.6066436767578 C 64.88933563232422 127.26788330078125 72.25817108154297 119.86788940429688 83.38994598388672 117.0630874633789 C 93.85305786132812 119.80009460449219 101.19226837158203 127.1501693725586 103.92695617675781 137.5906219482422" stroke-width="0.0" fill="rgb(135, 87, 61)" opacity="1.0"/>
    <path d="M 133.92807006835938 511.862548828125 C 131.23040771484375 521.8866577148438 123.88483428955078 529.2258911132812 113.8799057006836 531.8963012695312 C 103.87054443359375 527.4446411132812 96.58353424072266 520.119140625 93.9507064819336 510.22796630859375 C 95.42085266113281 500.24853515625 102.1550521850586 492.7821044921875 112.15087890625 490.08099365234375 C 122.99998474121094 493.6795654296875 130.3205108642578 501.0 133.92807006835938 511.862548828125" stroke-width="0.0" fill="rgb(106, 47, 24)" opacity="0.9900137"/>
    <path d="M 554.5177001953125 527.46923828125 C 551.36669921875 538.1181640625 544.3297119140625 545.8909301757812 534.3189086914062 548.8482055664062 C 523.1741333007812 546.11865234375 515.7760009765625 538.8632202148438 513.0784301757812 528.8517456054688 C 516.3283081054688 517.5106201171875 523.356689453125 509.9037170410156 534.7290649414062 507.0566711425781 C 544.8560791015625 509.78167724609375 552.111083984375 517.1820068359375 554.5177001953125 527.46923828125" stroke-width="0.0" fill="rgb(104, 48, 25)" opacity="1.0"/>
    <path d="M 311.0450134277344 157.95933532714844 C 308.32049560546875 168.0 301.0 175.3205108642578 290.9327697753906 178.0681610107422 C 280.81976318359375 175.49838256835938 273.4957580566406 168.18228149414062 271.04583740234375 157.93283081054688 C 273.3739929199219 147.73690795898438 280.7712097167969 140.48519897460938 290.95892333984375 137.92555236816406 C 301.0859069824219 140.60211181640625 308.4242248535156 147.9061279296875 311.0450134277344 157.95933532714844" stroke-width="0.0" fill="rgb(226, 231, 237)" opacity="0.99146014"/>
    <path d="M 395.1730651855469 381.38525390625 C 392.8869934082031 391.5299377441406 385.5068054199219 398.81591796875 375.13006591796875 401.6880798339844 C 364.7479553222656 398.6156005859375 357.3356628417969 391.2713623046875 354.7225341796875 381.3511657714844 C 357.7415466308594 370.920654296875 364.8472595214844 363.4708251953125 374.7113952636719 360.5899658203125 C 385.0841064453125 363.81793212890625 392.4144287109375 370.8497009277344 395.1730651855469 381.38525390625" stroke-width="0.0" fill="rgb(245, 245, 247)" opacity="1.0"/>
    <path d="M 86.91749572753906 63.45897674560547 C 84.18986511230469 73.84542846679688 76.84125518798828 81.17900848388672 65.60179901123047 83.92045593261719 C 55.178218841552734 81.18045043945312 47.83793640136719 73.81352233886719 45.0794563293457 63.52793884277344 C 47.96828842163086 52.450347900390625 55.62160873413086 45.4281120300293 66.10033416748047 42.86680221557617 C 76.54673767089844 45.244415283203125 84.10306549072266 52.33027648925781 86.91749572753906 63.45897674560547" stroke-width="0.0" fill="rgb(140, 93, 66)" opacity="1.0"/>
    <path d="M 136.99508666992188 377.99615478515625 C 134.30059814453125 387.9742431640625 126.96060180664062 395.25347900390625 116.83036804199219 398.2246398925781 C 106.8036880493164 395.56695556640625 99.69962310791016 388.12359619140625 97.18141174316406 377.9207763671875 C 99.67948913574219 368.0 107.0 360.67950439453125 116.95922088623047 358.0900573730469 C 126.972900390625 360.72869873046875 134.31228637695312 368.01495361328125 136.99508666992188 377.99615478515625" stroke-width="0.0" fill="rgb(231, 234, 240)" opacity="0.9910706"/>
    <path d="M 223.9615478515625 545.8233642578125 C 221.23544311523438 556.8961181640625 213.89797973632812 564.239501953125 203.33477783203125 566.960205078125 C 192.1033172607422 564.2371826171875 184.76759338378906 556.8945922851562 182.04685974121094 546.0554809570312 C 184.76754760742188 535.1043090820312 192.10446166992188 527.7679443359375 203.41310119628906 525.0438232421875 C 213.89932250976562 527.7628173828125 221.23883056640625 535.1000366210938 223.9615478515625 545.8233642578125" stroke-width="0.0" fill="rgb(88, 38, 17)" opacity="1.0"/>
    <path d="M 312.466796875 132.8500213623047 C 309.7108459472656 143.33006286621094 302.28143310546875 150.55419921875 292.0561828613281 153.07620239257812 C 281.87677001953125 150.40943908691406 274.4908142089844 143.15414428710938 271.8672180175781 132.9132080078125 C 274.4152526855469 122.6927719116211 281.6358947753906 115.23731231689453 292.217041015625 112.39299011230469 C 302.4152526855469 115.19059753417969 309.76324462890625 122.60062408447266 312.466796875 132.8500213623047" stroke-width="0.0" fill="rgb(224, 229, 235)" opacity="0.99085873"/>
    <path d="M 457.3356628417969 107.12067413330078 C 454.5212097167969 117.10992431640625 447.072509765625 124.4078369140625 436.88385009765625 127.46572875976562 C 426.7748718261719 124.59540557861328 419.4762878417969 117.20376586914062 416.8106994628906 106.97764587402344 C 419.6749267578125 96.98847961425781 426.96820068359375 89.60733032226562 436.96575927734375 86.85951232910156 C 447.13665771484375 89.57723236083984 454.5295104980469 96.83040618896484 457.3356628417969 107.12067413330078" stroke-width="0.0" fill="rgb(225, 230, 235)" opacity="0.99105376"/>
    <path d="M 593.94873046875 540.7232055664062 C 591.216796875 551.8734741210938 583.874267578125 559.2188110351562 573.0535888671875 561.9540405273438 C 562.1808471679688 559.2005004882812 554.9894409179688 551.7527465820312 552.672119140625 541.353759765625 C 555.4934692382812 530.6694946289062 562.4436645507812 522.9357299804688 573.6990966796875 520.0553588867188 C 583.8823852539062 522.775390625 591.2208862304688 530.1192626953125 593.94873046875 540.7232055664062" stroke-width="0.0" fill="rgb(107, 50, 23)" opacity="1.0"/>
    <path d="M 527.3771362304688 103.59949493408203 C 524.3204956054688 114.0 517.0 121.32051086425781 507.4254150390625 123.55050659179688 C 497.69451904296875 120.63641357421875 490.4676513671875 113.26881408691406 487.8792419433594 103.29825592041016 C 488.96026611328125 93.22886657714844 496.18719482421875 85.82325744628906 506.9095153808594 83.07144927978516 C 517.7874755859375 85.83476257324219 525.0166015625 93.263916015625 527.3771362304688 103.59949493408203" stroke-width="0.0" fill="rgb(138, 97, 69)" opacity="0.9900204"/>
    <path d="M 439.87371826171875 485.348388671875 C 437.7236328125 495.3194885253906 430.2383117675781 502.4443054199219 419.675048828125 505.1795959472656 C 409.5488586425781 502.8059997558594 402.1897888183594 495.4517822265625 399.26788330078125 484.8355712890625 C 402.1404113769531 474.54351806640625 409.62200927734375 467.41162109375 420.0374450683594 464.9586181640625 C 430.0550231933594 467.6020812988281 437.0877380371094 475.0527648925781 439.87371826171875 485.348388671875" stroke-width="0.0" fill="rgb(221, 223, 229)" opacity="0.9903441"/>
    <path d="M 435.9571228027344 584.8966674804688 C 433.21929931640625 595.858642578125 425.822021484375 603.1151123046875 414.7510986328125 605.718505859375 C 404.1531982421875 603.1484375 396.7721862792969 595.8745727539062 394.0421447753906 584.625732421875 C 396.763671875 574.1048583984375 404.10577392578125 566.7656860351562 415.062744140625 564.0380859375 C 425.8992919921875 566.7598266601562 433.23291015625 574.1038818359375 435.9571228027344 584.8966674804688" stroke-width="0.0" fill="rgb(93, 40, 16)" opacity="1.0"/>
    <path d="M 267.22113037109375 148.8230438232422 C 264.5409240722656 159.22669982910156 257.222412109375 166.52737426757812 247.22373962402344 168.9593505859375 C 237.0433807373047 166.226318359375 229.6885528564453 158.9818878173828 227.00079345703125 148.99844360351562 C 229.6793975830078 138.99990844726562 236.99989318847656 131.67933654785156 247.09007263183594 128.91497802734375 C 257.2695007324219 131.43435668945312 264.66448974609375 138.7002716064453 267.22113037109375 148.8230438232422" stroke-width="0.0" fill="rgb(226, 232, 238)" opacity="0.9908472"/>
    <path d="M 247.00767517089844 216.1127471923828 C 244.61325073242188 226.27296447753906 237.28018188476562 233.64065551757812 227.1376953125 236.59768676757812 C 216.78211975097656 233.58627319335938 209.56729125976562 226.1740264892578 207.21681213378906 216.11282348632812 C 209.867919921875 206.12396240234375 217.07339477539062 198.69139099121094 226.93170166015625 195.80007934570312 C 236.9999542236328 198.67950439453125 244.318603515625 206.0005645751953 247.00767517089844 216.1127471923828" stroke-width="0.0" fill="rgb(230, 236, 240)" opacity="0.9908013"/>
    <path d="M 185.95172119140625 589.3831787109375 C 183.1572265625 600.7255249023438 175.58319091796875 607.7684936523438 164.98611450195312 610.1771240234375 C 154.4051971435547 607.783935546875 146.8386688232422 600.7327880859375 144.04554748535156 589.4295654296875 C 146.7744903564453 579.1201782226562 154.12548828125 571.786865234375 165.6037139892578 569.045654296875 C 175.90029907226562 571.761962890625 183.23703002929688 579.10009765625 185.95172119140625 589.3831787109375" stroke-width="0.0" fill="rgb(98, 39, 15)" opacity="1.0"/>
    <path d="M 420.2720642089844 196.17864990234375 C 417.7361755371094 206.37448120117188 410.36553955078125 213.70819091796875 400.2647399902344 216.41534423828125 C 389.8528747558594 213.2964324951172 382.2795104980469 206.27194213867188 379.271484375 196.07957458496094 C 382.2710266113281 185.65846252441406 389.7052001953125 178.4245147705078 399.9928894042969 176.1947479248047 C 410.27593994140625 178.42234802246094 417.5758361816406 185.72488403320312 420.2720642089844 196.17864990234375" stroke-width="0.0" fill="rgb(231, 236, 241)" opacity="0.9902253"/>
    <path d="M 32.93271255493164 385.16461181640625 C 30.115360260009766 395.6534118652344 22.475807189941406 402.6436767578125 12.078411102294922 405.0452575683594 C 2.0 402.32049560546875 -5.320508003234863 395.0 -8.00011157989502 384.9998779296875 C -5.320998191833496 374.9993896484375 1.9992605447769165 367.6785583496094 12.126401901245117 364.9169921875 C 22.552568435668945 367.2613525390625 30.12788200378418 374.30841064453125 32.93271255493164 385.16461181640625" stroke-width="0.0" fill="rgb(113, 56, 26)" opacity="1.0"/>
    <path d="M 53.94811248779297 297.47991943359375 C 51.22538757324219 307.8805847167969 43.87455749511719 315.2110900878906 33.813602447509766 317.89080810546875 C 23.0 314.32049560546875 15.679491996765137 307.0 12.940855026245117 296.9033508300781 C 15.320528984069824 286.49810791015625 22.3352108001709 278.8816833496094 33.57052230834961 276.056640625 C 43.86977005004883 278.78759765625 51.21195602416992 286.1304016113281 53.94811248779297 297.47991943359375" stroke-width="0.0" fill="rgb(119, 60, 32)" opacity="1.0"/>
    <path d="M 197.8994140625 427.9853515625 C 195.4265899658203 438.15966796875 188.19822692871094 445.56158447265625 178.27359008789062 447.8922119140625 C 168.1332244873047 445.1370849609375 160.77639770507812 437.8926696777344 158.01980590820312 427.9420166015625 C 160.56031799316406 417.827392578125 167.76107788085938 410.3474426269531 177.7926025390625 407.6440124511719 C 188.23268127441406 410.5157165527344 195.62973022460938 417.7254943847656 197.8994140625 427.9853515625" stroke-width="0.0" fill="rgb(227, 228, 233)" opacity="0.9908621"/>
    <path d="M 570.622802734375 18.44832992553711 C 567.3204956054688 29.0 560.0 36.32050704956055 549.9388427734375 39.03509521484375 C 539.6011962890625 36.58353805541992 531.965576171875 29.56209945678711 529.22021484375 19.632986068725586 C 532.648681640625 8.935433387756348 539.861328125 1.4189424514770508 550.5616455078125 -1.749889612197876 C 560.7420654296875 0.9052501916885376 568.0732421875 8.265491485595703 570.622802734375 18.44832992553711" stroke-width="0.0" fill="rgb(158, 114, 85)" opacity="1.0"/>
    <path d="M 118.99869537353516 344.9998779296875 C 116.31996154785156 354.9996032714844 108.99969482421875 362.32025146484375 98.99565124511719 365.0023498535156 C 88.96466064453125 362.34161376953125 81.61524200439453 355.0488586425781 78.79954528808594 344.7997131347656 C 81.27696990966797 334.59503173828125 88.58207702636719 327.23193359375 98.74070739746094 324.4490051269531 C 109.01020812988281 327.64886474609375 116.32085418701172 334.998291015625 118.99869537353516 344.9998779296875" stroke-width="0.0" fill="rgb(232, 236, 239)" opacity="0.9913629"/>
    <path d="M 315.93206787109375 14.28299331665039 C 312.9183349609375 24.793476104736328 304.40545654296875 31.592945098876953 295.3725891113281 34.089805603027344 C 285.30572509765625 31.611345291137695 276.8945007324219 25.569814682006836 274.0528259277344 14.352346420288086 C 276.790771484375 4.156142234802246 284.19580078125 -3.0985989570617676 294.8812255859375 -5.662774562835693 C 305.78076171875 -3.074892044067383 313.1903076171875 4.17844820022583 315.93206787109375 14.28299331665039" stroke-width="0.0" fill="rgb(115, 81, 61)" opacity="0.99002707"/>
    <path d="M 265.2187194824219 195.16165161132812 C 262.6162414550781 205.25802612304688 255.24114990234375 212.56484985351562 245.14132690429688 215.23773193359375 C 234.99903869628906 212.3209686279297 227.6632537841797 205.00534057617188 224.65325927734375 194.8416748046875 C 227.36587524414062 184.6965789794922 234.69210815429688 177.35223388671875 244.84402465820312 174.7142791748047 C 254.9385223388672 177.8024139404297 262.2635803222656 185.0377197265625 265.2187194824219 195.16165161132812" stroke-width="0.0" fill="rgb(233, 239, 243)" opacity="0.99065804"/>
    <path d="M 79.21884155273438 473.2607421875 C 76.88623809814453 483.6240234375 69.6750259399414 491.04998779296875 59.514930725097656 493.6097717285156 C 48.5264892578125 490.6405944824219 40.883750915527344 483.6532897949219 38.111366271972656 473.7718200683594 C 41.679656982421875 463.0000305175781 49.0 455.67950439453125 59.0 453.0 C 69.0 455.67950439453125 76.32050323486328 463.0 79.21884155273438 473.2607421875" stroke-width="0.0" fill="rgb(110, 52, 22)" opacity="1.0"/>
    <path d="M 224.35972595214844 168.27610778808594 C 221.77903747558594 178.40817260742188 214.3962860107422 185.7450714111328 203.98060607910156 188.52584838867188 C 193.62368774414062 185.7413787841797 186.34263610839844 178.3505096435547 183.8286590576172 168.10743713378906 C 186.55636596679688 157.86868286132812 193.85992431640625 150.52743530273438 203.93792724609375 147.9337921142578 C 213.9987335205078 150.68106079101562 221.31898498535156 158.00125122070312 224.35972595214844 168.27610778808594" stroke-width="0.0" fill="rgb(226, 232, 236)" opacity="0.99149054"/>
    <path d="M 111.9900894165039 366.9901123046875 C 109.2604751586914 376.88568115234375 101.78108215332031 383.9497985839844 91.99192810058594 386.19757080078125 C 81.76710510253906 384.39984130859375 74.22261047363281 377.34844970703125 72.7232437133789 367.4342956542969 C 74.20068359375 356.63189697265625 81.74443054199219 349.5636901855469 92.00145721435547 347.03741455078125 C 101.9991683959961 349.6802978515625 109.3190689086914 357.0010070800781 111.9900894165039 366.9901123046875" stroke-width="0.0" fill="rgb(229, 233, 239)" opacity="1.0"/>
    <path d="M 506.266357421875 483.9571228027344 C 503.49566650390625 494.14300537109375 496.1246337890625 501.43133544921875 485.8191833496094 504.2458801269531 C 475.71807861328125 501.5864562988281 468.3327941894531 494.3078918457031 465.7785949707031 483.96685791015625 C 468.35028076171875 473.6794738769531 475.6784362792969 466.34588623046875 485.8480224609375 463.8135681152344 C 496.0727844238281 466.6392822265625 503.5289611816406 473.87457275390625 506.266357421875 483.9571228027344" stroke-width="0.0" fill="rgb(227, 229, 233)" opacity="0.9904295"/>
    <path d="M 371.0391540527344 496.95465087890625 C 368.32049560546875 507.0 361.0 514.3204956054688 350.7946472167969 517.2556762695312 C 340.63458251953125 514.7116088867188 333.3166809082031 507.3565673828125 330.56005859375 496.967529296875 C 333.32635498046875 486.6692199707031 340.679443359375 479.361083984375 350.88916015625 476.7648620605469 C 361.1700744628906 479.5026550292969 368.460205078125 486.8416748046875 371.0391540527344 496.95465087890625" stroke-width="0.0" fill="rgb(219, 222, 227)" opacity="0.99097943"/>
    <path d="M 553.9501953125 592.4036865234375 C 551.0999145507812 603.6058349609375 543.380615234375 610.5448608398438 532.99853515625 613.0431518554688 C 522.6409912109375 610.53759765625 514.9428100585938 603.5615234375 512.0520629882812 592.2833862304688 C 514.7977294921875 582.1806640625 522.2501831054688 574.99609375 533.7449340820312 572.1620483398438 C 543.8841552734375 574.7849731445312 551.226318359375 582.1117553710938 553.9501953125 592.4036865234375" stroke-width="0.0" fill="rgb(104, 45, 18)" opacity="1.0"/>
    <path d="M 216.0463409423828 21.95077133178711 C 213.3271942138672 32.00389862060547 206.00242614746094 39.32212829589844 195.23374938964844 42.85697555541992 C 185.16497802734375 40.18077087402344 177.81561279296875 32.83653259277344 175.07632446289062 22.151037216186523 C 177.82191467285156 11.169021606445312 185.16677856445312 3.816472053527832 195.4151611328125 1.0744609832763672 C 206.5573272705078 3.9562392234802246 213.55819702148438 11.626057624816895 216.0463409423828 21.95077133178711" stroke-width="0.0" fill="rgb(125, 87, 64)" opacity="0.99138457"/>
    <path d="M 518.432373046875 456.2283020019531 C 515.6441040039062 466.2689208984375 508.2388916015625 473.5439147949219 498.0662841796875 476.0656433105469 C 487.9215087890625 473.3733215332031 480.47003173828125 466.1268615722656 477.5611267089844 456.105712890625 C 480.3993835449219 445.72149658203125 487.6990966796875 438.33056640625 498.1535949707031 435.50872802734375 C 508.2906188964844 438.3347473144531 515.5407104492188 445.7458801269531 518.432373046875 456.2283020019531" stroke-width="0.0" fill="rgb(226, 228, 232)" opacity="0.9908616"/>
    <path d="M 597.1016235351562 235.1479034423828 C 594.7681274414062 245.57005310058594 587.6974487304688 253.1275634765625 577.346435546875 255.91873168945312 C 566.3917846679688 253.0923614501953 560.3340454101562 245.0193328857422 557.9034423828125 234.36329650878906 C 559.0120239257812 224.23741149902344 566.1807250976562 216.81092834472656 576.1964111328125 214.10914611816406 C 587.0 217.6794891357422 594.3204956054688 225.0 597.1016235351562 235.1479034423828" stroke-width="0.0" fill="rgb(136, 90, 62)" opacity="0.99012125"/>
    <path d="M 108.27348327636719 277.9531555175781 C 105.45549774169922 288.1459045410156 98.13703918457031 295.4197082519531 87.77490997314453 298.5221252441406 C 77.68607330322266 295.68682861328125 70.41456604003906 288.28302001953125 67.75003051757812 278.0196838378906 C 70.353515625 267.6979675292969 77.71463012695312 260.40887451171875 87.9765625 257.7250671386719 C 98.16305541992188 260.54840087890625 105.58767700195312 267.793701171875 108.27348327636719 277.9531555175781" stroke-width="0.0" fill="rgb(234, 239, 242)" opacity="0.99053967"/>
    <path d="M 381.41278076171875 503.1653747558594 C 378.7788391113281 513.3968505859375 371.33441162109375 520.5621948242188 360.8478088378906 523.2222290039062 C 350.8435363769531 520.5470581054688 343.5936584472656 513.113037109375 340.9808349609375 503.02410888671875 C 343.6797180175781 493.00018310546875 351.0001525878906 485.6796875 360.9264221191406 483.1811828613281 C 371.109130859375 485.692138671875 378.60638427734375 492.8034362792969 381.41278076171875 503.1653747558594" stroke-width="0.0" fill="rgb(219, 221, 226)" opacity="0.99088526"/>
    <path d="M 421.98480224609375 525.0015869140625 C 419.315673828125 534.9872436523438 411.95086669921875 542.1943359375 401.64300537109375 545.0352172851562 C 391.6647033691406 542.6141357421875 384.20941162109375 535.3924560546875 381.5212097167969 525.078369140625 C 384.2317810058594 514.5906982421875 391.6069030761719 507.2843322753906 402.0959167480469 504.5509033203125 C 412.1041259765625 507.48370361328125 419.34600830078125 514.9478759765625 421.98480224609375 525.0015869140625" stroke-width="0.0" fill="rgb(223, 224, 229)" opacity="0.9908353"/>
    <path d="M 292.9542236328125 565.8451538085938 C 290.24554443359375 575.9097290039062 282.9112548828125 583.248779296875 272.6795654296875 585.9585571289062 C 261.1546936035156 583.2039184570312 253.808837890625 575.8391723632812 251.0655059814453 565.7822265625 C 255.4748992919922 555.847900390625 262.87982177734375 548.5888671875 272.1128845214844 545.9649047851562 C 281.1351013183594 548.5833740234375 288.6592712402344 555.8103637695312 292.9542236328125 565.8451538085938" stroke-width="0.0" fill="rgb(77, 38, 20)" opacity="0.99000955"/>
    <path d="M 333.474853515625 164.7471923828125 C 330.6141357421875 175.30641174316406 323.3092346191406 182.6256561279297 313.0998840332031 185.018310546875 C 303.0 182.3205108642578 295.67950439453125 175.0 293.00103759765625 165.00135803222656 C 295.6811218261719 154.99368286132812 302.9401550292969 147.50869750976562 312.88360595703125 144.4261932373047 C 323.36376953125 147.2880859375 330.7590026855469 154.6213836669922 333.474853515625 164.7471923828125" stroke-width="0.0" fill="rgb(224, 230, 237)" opacity="0.9912054"/>
    <path d="M 607.42626953125 229.94935607910156 C 604.9459838867188 240.69493103027344 597.7717895507812 248.16600036621094 587.795654296875 250.8942413330078 C 576.9993286132812 247.3219757080078 569.6791381835938 240.00030517578125 566.8927001953125 229.84906005859375 C 569.2296142578125 219.43240356445312 576.3123779296875 211.885009765625 587.5556640625 209.0716552734375 C 597.7845458984375 211.8275146484375 604.9700927734375 219.28536987304688 607.42626953125 229.94935607910156" stroke-width="0.0" fill="rgb(133, 83, 58)" opacity="0.9908575"/>
    <path d="M 570.7728881835938 36.67832565307617 C 568.1393432617188 46.79829406738281 560.8067626953125 54.16069030761719 549.7581176757812 56.90913391113281 C 539.1771240234375 54.17192840576172 531.825927734375 46.82366180419922 529.0783081054688 36.46846008300781 C 531.947021484375 25.43333625793457 539.6189575195312 18.43386459350586 549.942626953125 15.970070838928223 C 559.9991455078125 18.68131446838379 567.3202514648438 26.000423431396484 570.7728881835938 36.67832565307617" stroke-width="0.0" fill="rgb(155, 110, 81)" opacity="1.0"/>
    <path d="M 79.62950134277344 471.37786865234375 C 76.32121276855469 482.0006408691406 69.00072479248047 489.32147216796875 59.00038146972656 492.00140380859375 C 48.99921417236328 489.3210754394531 41.6773796081543 482.0012512207031 38.09453582763672 471.1632080078125 C 40.77701187133789 461.1202087402344 48.12148666381836 453.780029296875 59.157413482666016 451.05303955078125 C 69.8680419921875 453.7812805175781 77.15518188476562 461.1542053222656 79.62950134277344 471.37786865234375" stroke-width="0.0" fill="rgb(109, 50, 25)" opacity="1.0"/>
    <path d="M 197.70912170410156 385.8053283691406 C 194.79788208007812 396.4463195800781 187.42160034179688 403.71124267578125 176.83087158203125 406.2909851074219 C 166.74807739257812 403.66400146484375 159.6866912841797 396.1533203125 156.75723266601562 385.7408142089844 C 159.31655883789062 375.67230224609375 166.68173217773438 368.34442138671875 177.08609008789062 365.4623107910156 C 187.383544921875 368.27630615234375 194.81544494628906 375.58404541015625 197.70912170410156 385.8053283691406" stroke-width="0.0" fill="rgb(230, 234, 239)" opacity="0.9905274"/>
    <path d="M 525.9058227539062 512.1600952148438 C 522.7073364257812 523.5449829101562 515.7081909179688 531.1509399414062 504.4115295410156 533.94873046875 C 494.09344482421875 531.2364501953125 486.74658203125 523.9136352539062 485.1414794921875 513.9258422851562 C 488.57977294921875 503.8780517578125 495.8766174316406 496.576171875 505.8680114746094 493.921630859375 C 515.8818359375 494.79730224609375 523.23095703125 502.10858154296875 525.9058227539062 512.1600952148438" stroke-width="0.0" fill="rgb(78, 40, 19)" opacity="0.9900167"/>
    <path d="M 334.0820007324219 95.8976821899414 C 331.6201171875 106.29672241210938 324.30401611328125 113.64757537841797 313.8265075683594 116.66332244873047 C 303.8152770996094 113.65007781982422 296.61566162109375 106.09585571289062 294.0118713378906 96.01162719726562 C 296.67962646484375 86.00003814697266 304.0 78.67948913574219 314.2950744628906 75.626220703125 C 324.45867919921875 78.18395233154297 331.74334716796875 85.56352233886719 334.0820007324219 95.8976821899414" stroke-width="0.0" fill="rgb(223, 229, 235)" opacity="0.99092025"/>
    <path d="M 556.1223754882812 266.11834716796875 C 553.6127319335938 276.30657958984375 546.3458862304688 283.7373962402344 536.2884521484375 286.4500732421875 C 525.9491577148438 283.3574523925781 518.5548706054688 276.0773010253906 515.7604370117188 265.94659423828125 C 518.3211059570312 255.5853729248047 525.5388793945312 248.16940307617188 535.7603149414062 245.97787475585938 C 546.0240478515625 248.640625 553.32763671875 255.9856414794922 556.1223754882812 266.11834716796875" stroke-width="0.0" fill="rgb(227, 231, 236)" opacity="1.0"/>
    <path d="M 28.470672607421875 290.56500244140625 C 25.32071304321289 301.0001525878906 18.000137329101562 308.3206481933594 7.402145862579346 311.744384765625 C -2.543264389038086 309.0147399902344 -9.571873664855957 301.38519287109375 -12.032105445861816 291.0572204589844 C -9.320508003234863 281.0 -2.0 273.67950439453125 8.298234939575195 270.7251281738281 C 18.615447998046875 273.0936584472656 25.992233276367188 280.35833740234375 28.470672607421875 290.56500244140625" stroke-width="0.0" fill="rgb(117, 60, 32)" opacity="1.0"/>
    <path d="M 509.3542785644531 396.1208801269531 C 506.65447998046875 406.35894775390625 499.39776611328125 413.7767639160156 489.10198974609375 416.4902648925781 C 478.8281555175781 413.5427551269531 471.5076904296875 406.1545715332031 468.3898620605469 395.9427490234375 C 471.3289489746094 385.7569274902344 478.8397521972656 378.5879821777344 489.1549987792969 375.83258056640625 C 499.3699645996094 378.3057556152344 506.6425476074219 385.6440124511719 509.3542785644531 396.1208801269531" stroke-width="0.0" fill="rgb(227, 229, 233)" opacity="0.99040675"/>
    <path d="M 316.9488220214844 179.00985717773438 C 314.4516906738281 189.2014617919922 307.2518615722656 196.6234893798828 297.0787048339844 199.3942413330078 C 286.7627868652344 196.6157989501953 279.6499328613281 189.1644287109375 276.68756103515625 178.8219757080078 C 279.57513427734375 168.9535369873047 286.982666015625 161.67245483398438 296.9989013671875 159.00228881835938 C 306.9992980957031 161.68045043945312 314.3197021484375 169.00067138671875 316.9488220214844 179.00985717773438" stroke-width="0.0" fill="rgb(229, 235, 239)" opacity="0.99055976"/>
    <path d="M 504.3793640136719 367.17889404296875 C 501.5321350097656 377.15765380859375 494.12628173828125 384.4278869628906 483.9520568847656 387.1051025390625 C 473.8450012207031 384.5059509277344 466.68695068359375 377.1029052734375 463.4140930175781 366.6476745605469 C 466.37359619140625 356.8311767578125 473.9491271972656 349.7563171386719 484.2633972167969 346.8277587890625 C 494.2075500488281 349.4178466796875 501.41070556640625 356.8408203125 504.3793640136719 367.17889404296875" stroke-width="0.0" fill="rgb(228, 231, 236)" opacity="0.9903013"/>
    <path d="M 26.945064544677734 267.70697021484375 C 24.162948608398438 278.7419738769531 16.616947174072266 285.8144836425781 6.171716690063477 288.11822509765625 C -3.9999687671661377 285.3204345703125 -11.320501327514648 278.0 -14.010310173034668 267.9779052734375 C -11.460168838500977 257.7342224121094 -4.485786437988281 249.99069213867188 6.700443744659424 247.06536865234375 C 16.87514877319336 249.78305053710938 24.215763092041016 257.12530517578125 26.945064544677734 267.70697021484375" stroke-width="0.0" fill="rgb(119, 64, 36)" opacity="0.9921985"/>
    <path d="M 82.93980407714844 108.46485900878906 C 80.14862060546875 119.754150390625 72.71267700195312 127.05892944335938 62.29810333251953 129.88026428222656 C 51.611915588378906 126.91197967529297 44.574974060058594 119.20306396484375 41.99214172363281 109.0165023803711 C 44.67866897583008 98.9974136352539 51.9827766418457 91.62705993652344 62.7569465637207 88.13027954101562 C 72.83370971679688 90.82587432861328 80.20106506347656 98.15475463867188 82.93980407714844 108.46485900878906" stroke-width="0.0" fill="rgb(142, 92, 64)" opacity="1.0"/>
    <path d="M 545.5119018554688 2.7248382568359375 C 542.3216552734375 13.000887870788574 535.0003662109375 20.319913864135742 524.99609375 23.011886596679688 C 514.99853515625 20.323917388916016 507.67919921875 13.000597953796387 504.9999694824219 3.000046730041504 C 507.67950439453125 -7.0 515.0 -14.320508003234863 525.0008544921875 -17.000314712524414 C 535.0264282226562 -14.33030891418457 542.5452270507812 -7.095230579376221 545.5119018554688 2.7248382568359375" stroke-width="0.0" fill="rgb(155, 111, 86)" opacity="0.9955711"/>
    <path d="M 434.2839050292969 153.78753662109375 C 431.32049560546875 164.0 424.0 171.320556640625 413.7645263671875 174.42926025390625 C 403.8658752441406 171.57171630859375 396.64642333984375 164.06423950195312 393.99639892578125 154.00408935546875 C 396.66705322265625 143.97100830078125 403.9170837402344 136.4940643310547 413.858642578125 133.47511291503906 C 424.2655944824219 136.4713592529297 431.69390869140625 143.68504333496094 434.2839050292969 153.78753662109375" stroke-width="0.0" fill="rgb(222, 229, 235)" opacity="0.9917491"/>
    <path d="M 153.95675659179688 492.5086364746094 C 151.23692321777344 502.89508056640625 143.89108276367188 510.227783203125 133.84945678710938 512.91796875 C 123.00151062011719 509.318603515625 115.68112182617188 501.9985656738281 112.08235931396484 491.1444091796875 C 114.765625 481.1073303222656 122.11015319824219 473.7722473144531 133.42897033691406 471.0439147949219 C 143.88563537597656 473.770751953125 151.22283935546875 481.1170959472656 153.95675659179688 492.5086364746094" stroke-width="0.0" fill="rgb(98, 46, 23)" opacity="1.0"/>
    <path d="M 140.0843048095703 84.97984313964844 C 137.58059692382812 95.4046859741211 130.58409118652344 103.06171417236328 119.74390411376953 105.9072494506836 C 109.17802429199219 103.16168975830078 101.80926513671875 95.833984375 99.06696319580078 85.49436950683594 C 101.89600372314453 74.34058380126953 109.4803237915039 67.28118133544922 120.19617462158203 64.61145782470703 C 130.3771209716797 67.22073364257812 137.56585693359375 74.68993377685547 140.0843048095703 84.97984313964844" stroke-width="0.0" fill="rgb(138, 94, 70)" opacity="1.0"/>
    <path d="M 545.960693359375 561.4857788085938 C 543.2135620117188 572.8363647460938 535.7708740234375 580.023193359375 524.27734375 582.828369140625 C 514.1244506835938 580.2066650390625 506.77838134765625 572.881103515625 504.04974365234375 561.638671875 C 506.7768859863281 551.1190795898438 514.1183471679688 543.775634765625 524.2153930664062 541.09130859375 C 535.84326171875 543.864501953125 543.2344970703125 551.1220703125 545.960693359375 561.4857788085938" stroke-width="0.0" fill="rgb(103, 45, 19)" opacity="1.0"/>
    <path d="M 466.40142822265625 76.80504608154297 C 464.8038024902344 87.47042846679688 457.46795654296875 94.79795837402344 447.24957275390625 97.28997039794922 C 436.9864196777344 94.33378601074219 429.66583251953125 87.01372528076172 427.1007385253906 76.91466522216797 C 429.2745056152344 66.49739074707031 436.3984680175781 58.97450637817383 447.46038818359375 56.16147232055664 C 457.5787048339844 58.97785186767578 464.8797912597656 66.48406982421875 466.40142822265625 76.80504608154297" stroke-width="0.0" fill="rgb(223, 228, 233)" opacity="1.0"/>
    <path d="M 431.9227600097656 85.88639831542969 C 429.2903137207031 95.9939193725586 422.0015563964844 103.31565856933594 411.6535949707031 106.42308807373047 C 401.62353515625 103.782958984375 394.36328125 96.32794189453125 391.54449462890625 85.8572998046875 C 394.212158203125 75.55195617675781 401.5552673339844 68.2229232788086 411.7619934082031 65.72706604003906 C 422.1330871582031 68.56553649902344 429.4877624511719 75.85060119628906 431.9227600097656 85.88639831542969" stroke-width="0.0" fill="rgb(225, 230, 235)" opacity="0.9907137"/>
    <path d="M 166.2679901123047 107.75125885009766 C 163.369140625 118.10182189941406 156.1479034423828 125.5264663696289 145.87030029296875 128.55581665039062 C 135.50283813476562 125.80381774902344 127.98956298828125 118.57594299316406 125.30421447753906 108.47469329833984 C 128.5833282470703 98.00840759277344 136.04124450683594 90.70724487304688 146.0277099609375 87.99872589111328 C 156.14768981933594 90.5765151977539 163.57167053222656 97.80734252929688 166.2679901123047 107.75125885009766" stroke-width="0.0" fill="rgb(228, 236, 241)" opacity="1.0"/>
    <path d="M 562.0007934570312 411.9983215332031 C 559.3204956054688 422.0 552.0 429.32049560546875 541.6361083984375 432.5372619628906 C 531.6011352539062 429.79962158203125 524.338623046875 422.3531799316406 521.5929565429688 411.99749755859375 C 524.2855224609375 401.64617919921875 531.6665649414062 394.35150146484375 541.9907836914062 391.7172546386719 C 552.046630859375 394.5871276855469 559.3312377929688 401.97784423828125 562.0007934570312 411.9983215332031" stroke-width="0.0" fill="rgb(229, 231, 235)" opacity="0.99114114"/>
    <path d="M 453.0 170.0 C 450.32049560546875 180.0 443.0 187.3205108642578 432.886474609375 190.13478088378906 C 422.7149353027344 187.58848571777344 415.3343811035156 180.3094024658203 412.8241882324219 170.16429138183594 C 415.6805114746094 160.00111389160156 423.00140380859375 152.68145751953125 433.0010986328125 150.00196838378906 C 443.0 152.6794891357422 450.32049560546875 160.0 453.0 170.0" stroke-width="0.0" fill="rgb(225, 230, 235)" opacity="0.99275327"/>
    <path d="M 549.4989013671875 318.8199768066406 C 546.4972534179688 329.15618896484375 539.1327514648438 336.4131164550781 528.856689453125 339.3061218261719 C 518.967041015625 336.43701171875 511.6901550292969 328.9945983886719 509.0978698730469 319.0005798339844 C 511.54229736328125 308.78753662109375 518.7545166015625 301.4252014160156 529.0968017578125 298.8591003417969 C 539.1954345703125 301.4984130859375 546.6266479492188 308.7641296386719 549.4989013671875 318.8199768066406" stroke-width="0.0" fill="rgb(229, 232, 237)" opacity="0.99064964"/>
    <path d="M 265.452880859375 91.1397933959961 C 262.7615966796875 101.4182357788086 255.41122436523438 108.73558807373047 245.14073181152344 111.0833511352539 C 234.85269165039062 108.42771911621094 227.53346252441406 101.1580581665039 224.7036590576172 90.75782012939453 C 227.2126007080078 80.5689697265625 234.58802795410156 73.27338409423828 245.16647338867188 70.46367645263672 C 255.44686889648438 73.18394470214844 262.736328125 80.57855987548828 265.452880859375 91.1397933959961" stroke-width="0.0" fill="rgb(225, 231, 236)" opacity="0.99071014"/>
    <path d="M 142.0458221435547 188.9731903076172 C 139.4407958984375 198.17604064941406 132.25115966796875 205.72386169433594 123.75032806396484 208.0955810546875 C 113.81673431396484 205.48602294921875 106.55276489257812 198.16636657714844 103.95056915283203 189.41015625 C 106.57408905029297 179.875 113.87641143798828 172.57725524902344 123.23379516601562 169.9537353515625 C 132.13648986816406 172.56613159179688 139.4346923828125 179.86312866210938 142.0458221435547 188.9731903076172" stroke-width="0.0" fill="rgb(54, 58, 60)" opacity="0.99000335"/>
    <path d="M 517.6244506835938 14.575770378112793 C 515.1016235351562 24.775983810424805 507.795654296875 32.155616760253906 497.14501953125 34.90943908691406 C 486.20123291015625 32.1480598449707 478.85186767578125 24.798898696899414 476.08489990234375 13.628596305847168 C 478.8392639160156 3.2257509231567383 486.29022216796875 -3.974132537841797 496.6565246582031 -6.310458660125732 C 506.9932556152344 -3.3154077529907227 514.305908203125 4.009540557861328 517.6244506835938 14.575770378112793" stroke-width="0.0" fill="rgb(145, 103, 77)" opacity="0.9902798"/>
    <path d="M 93.95626068115234 422.2834777832031 C 91.23493194580078 432.8944396972656 83.89361572265625 440.2331237792969 73.25334930419922 442.9568786621094 C 62.12681579589844 440.2248229980469 54.836849212646484 432.85076904296875 52.1812629699707 421.7731628417969 C 54.825008392333984 411.1437683105469 62.12560272216797 403.77593994140625 72.7098159790039 401.04901123046875 C 83.88074493408203 403.779541015625 91.2262191772461 411.11676025390625 93.95626068115234 422.2834777832031" stroke-width="0.0" fill="rgb(106, 51, 26)" opacity="1.0"/>
    <path d="M 462.0 165.00001525878906 C 459.32049560546875 175.0 452.0 182.3205108642578 442.0 185.0 C 431.9999694824219 182.32052612304688 424.67938232421875 175.0000457763672 421.9942321777344 164.99298095703125 C 424.65093994140625 154.95913696289062 431.9515380859375 147.62832641601562 442.0033264160156 145.23971557617188 C 451.9955139160156 147.693359375 459.3202819824219 155.00070190429688 462.0 165.00001525878906" stroke-width="0.0" fill="rgb(224, 229, 234)" opacity="0.99422914"/>
    <path d="M 544.0172729492188 124.03263092041016 C 541.4832153320312 134.2714080810547 534.402587890625 141.86940002441406 524.3881225585938 143.3711700439453 C 514.0208129882812 141.24497985839844 506.6788024902344 134.00082397460938 503.8931579589844 123.94235229492188 C 506.5924377441406 113.95013427734375 513.97119140625 106.66256713867188 523.99658203125 103.99796295166016 C 534.0 106.67948913574219 541.3204956054688 114.0 544.0172729492188 124.03263092041016" stroke-width="0.0" fill="rgb(142, 97, 75)" opacity="0.9900787"/>
    <path d="M 264.9526672363281 588.6177978515625 C 262.21575927734375 598.8387451171875 254.77293395996094 606.0243530273438 244.14369201660156 608.431884765625 C 233.2909393310547 605.9497680664062 225.81622314453125 598.790771484375 223.0424041748047 587.3250122070312 C 225.7624969482422 577.1039428710938 233.10597229003906 569.7672119140625 243.48086547851562 567.0491943359375 C 254.84840393066406 569.7913208007812 262.1783752441406 577.166015625 264.9526672363281 588.6177978515625" stroke-width="0.0" fill="rgb(92, 37, 17)" opacity="1.0"/>
    <path d="M 49.53622055053711 414.45831298828125 C 46.32050704956055 425.0 39.0 432.32049560546875 28.22554588317871 435.8468322753906 C 18.173202514648438 433.19293212890625 10.943304061889648 425.7816467285156 8.603675842285156 415.43536376953125 C 11.679491996765137 405.0 19.0 397.67950439453125 29.798803329467773 394.1193542480469 C 39.83867645263672 396.8033142089844 47.110897064208984 404.19085693359375 49.53622055053711 414.45831298828125" stroke-width="0.0" fill="rgb(111, 54, 26)" opacity="1.0"/>
    <path d="M 601.8607788085938 25.248149871826172 C 599.1524047851562 35.81399917602539 591.8230590820312 43.17584991455078 581.4349975585938 45.91219711303711 C 570.30322265625 43.1104736328125 563.17529296875 35.59929275512695 560.6688842773438 24.87004852294922 C 563.0823974609375 14.333298683166504 570.2539672851562 6.854885101318359 580.5721435546875 4.090790748596191 C 591.7804565429688 6.868207931518555 599.1235961914062 14.222460746765137 601.8607788085938 25.248149871826172" stroke-width="0.0" fill="rgb(160, 114, 83)" opacity="1.0"/>
    <path d="M 36.95177459716797 324.738037109375 C 34.22149658203125 334.8573913574219 26.81339454650879 342.0942687988281 16.232086181640625 344.5868835449219 C 5.294647693634033 342.00164794921875 -2.075726270675659 334.7281799316406 -4.718963623046875 324.1622619628906 C -2.043095827102661 313.3022155761719 5.321076393127441 306.01776123046875 15.634439468383789 303.6189270019531 C 26.365819931030273 306.4630432128906 34.07686996459961 313.4195861816406 36.95177459716797 324.738037109375" stroke-width="0.0" fill="rgb(115, 59, 29)" opacity="1.0"/>
    <path d="M 36.268943786621094 406.7372131347656 C 33.32049560546875 416.9999694824219 25.999916076660156 424.3202819824219 15.191288948059082 427.88555908203125 C 5.14744758605957 425.2055358886719 -2.14300274848938 417.8304138183594 -4.628645420074463 407.6101379394531 C -1.3201457262039185 397.0003356933594 6.000300884246826 389.6797790527344 16.23912811279297 386.7652893066406 C 26.497114181518555 389.1888732910156 33.83073043823242 396.4969482421875 36.268943786621094 406.7372131347656" stroke-width="0.0" fill="rgb(112, 54, 26)" opacity="1.0"/>
    <path d="M 211.04603576660156 80.9384765625 C 208.31719970703125 90.99229431152344 200.9840850830078 98.28960418701172 191.08602905273438 101.11936950683594 C 181.00265502929688 98.3117904663086 173.67958068847656 90.99970245361328 171.03892517089844 81.05596923828125 C 173.87953186035156 71.2664566040039 181.34034729003906 64.11288452148438 191.6143035888672 61.59539794921875 C 201.42578125 63.09808349609375 208.5369873046875 70.70340728759766 211.04603576660156 80.9384765625" stroke-width="0.0" fill="rgb(224, 230, 235)" opacity="0.9919764"/>
    <path d="M 228.29383850097656 86.1597900390625 C 225.72215270996094 96.37516784667969 218.3565216064453 103.65753936767578 207.82785034179688 106.46956634521484 C 197.6840362548828 103.7237548828125 190.4810028076172 96.25125885009766 187.9534454345703 86.06068420410156 C 190.68447875976562 76.01130676269531 198.0328369140625 68.75776672363281 208.10708618164062 66.05744934082031 C 218.20321655273438 68.43839263916016 225.49789428710938 75.81748962402344 228.29383850097656 86.1597900390625" stroke-width="0.0" fill="rgb(226, 232, 238)" opacity="0.99093115"/>
    <path d="M 166.11439514160156 434.95623779296875 C 163.5101318359375 445.19195556640625 156.15145874023438 452.3395690917969 145.65383911132812 454.3781433105469 C 136.1910858154297 451.89862060546875 128.2240753173828 445.1901550292969 126.77882385253906 435.2966003417969 C 128.54251098632812 424.93231201171875 135.9703826904297 417.6667785644531 146.164794921875 414.79736328125 C 156.2982940673828 417.34735107421875 163.5780487060547 424.7244567871094 166.11439514160156 434.95623779296875" stroke-width="0.0" fill="rgb(225, 229, 233)" opacity="1.0"/>
    <path d="M 317.4061279296875 75.73780822753906 C 314.3199768066406 85.9997787475586 306.9998779296875 93.32032775878906 296.6791076660156 96.4074478149414 C 286.5466613769531 93.8340072631836 279.2629089355469 86.42013549804688 276.4169616699219 76.2243881225586 C 279.4519348144531 65.78193664550781 286.78509521484375 58.46559524536133 297.09771728515625 55.74154281616211 C 307.2150573730469 58.4942741394043 314.6835632324219 65.72776794433594 317.4061279296875 75.73780822753906" stroke-width="0.0" fill="rgb(221, 229, 233)" opacity="0.991045"/>
    <path d="M 158.71839904785156 86.77139282226562 C 156.14328002929688 96.90457916259766 149.26585388183594 104.90662384033203 138.7198944091797 107.8935775756836 C 128.3787384033203 105.06376647949219 121.30196380615234 97.49333953857422 118.91088104248047 87.08402252197266 C 121.45518493652344 76.61958312988281 128.4070587158203 68.91535949707031 138.47499084472656 66.07933807373047 C 149.61865234375 68.9368667602539 156.6893768310547 76.51216888427734 158.71839904785156 86.77139282226562" stroke-width="0.0" fill="rgb(129, 89, 67)" opacity="0.99003273"/>
    <path d="M 566.0523071289062 414.4305419921875 C 563.4717407226562 423.2131652832031 556.2808837890625 430.6894836425781 547.2799072265625 433.23046875 C 537.0234985351562 431.20782470703125 529.6744995117188 424.0105895996094 527.0088500976562 414.0020751953125 C 529.6832885742188 404.0027770996094 537.0025024414062 396.6822204589844 546.598876953125 394.2410583496094 C 556.218505859375 397.4142150878906 563.4415283203125 404.83013916015625 566.0523071289062 414.4305419921875" stroke-width="0.0" fill="rgb(228, 231, 234)" opacity="0.99003726"/>
    <path d="M 74.02481079101562 106.9852523803711 C 71.3292007446289 117.00950622558594 64.02920532226562 124.39753723144531 53.2145881652832 127.88727569580078 C 43.16437530517578 125.1908950805664 35.85042190551758 117.81986999511719 33.276248931884766 107.65767669677734 C 36.5548210144043 96.75483703613281 43.52767562866211 88.99629211425781 53.488426208496094 86.09825134277344 C 64.37640380859375 89.1039047241211 71.42687225341797 96.79976654052734 74.02481079101562 106.9852523803711" stroke-width="0.0" fill="rgb(139, 88, 61)" opacity="1.0"/>
    <path d="M 566.578369140625 130.45941162109375 C 563.321044921875 141.0004119873047 556.0003662109375 148.3208770751953 545.75146484375 151.24130249023438 C 535.4766235351562 148.8293914794922 528.1229858398438 141.5379180908203 525.6707763671875 131.31069946289062 C 528.68017578125 121.0003433227539 536.0001831054688 113.6795883178711 546.704833984375 110.20671081542969 C 556.7940063476562 112.84789276123047 564.0885009765625 120.22826385498047 566.578369140625 130.45941162109375" stroke-width="0.0" fill="rgb(141, 95, 69)" opacity="1.0"/>
    <path d="M 154.63905334472656 375.9483642578125 C 151.71060180664062 386.29461669921875 144.2196044921875 393.47003173828125 133.9507293701172 396.13336181640625 C 123.95085144042969 393.4189453125 116.66897583007812 386.022705078125 114.01447296142578 376.021484375 C 116.75432586669922 366.0975341796875 124.10224151611328 358.7629699707031 134.00616455078125 355.6047668457031 C 144.2587890625 358.427734375 151.6923065185547 365.703857421875 154.63905334472656 375.9483642578125" stroke-width="0.0" fill="rgb(229, 233, 238)" opacity="0.99094385"/>
    <path d="M 522.8770141601562 139.4101104736328 C 519.7770385742188 150.36944580078125 512.3433227539062 157.6967315673828 501.947265625 160.6254425048828 C 491.7048034667969 157.6851806640625 484.4342346191406 150.25897216796875 481.8339538574219 139.8301239013672 C 484.3411865234375 129.66514587402344 491.6286315917969 122.23149871826172 502.6617736816406 119.12487030029297 C 512.7702026367188 121.8691177368164 520.1220092773438 129.23348999023438 522.8770141601562 139.4101104736328" stroke-width="0.0" fill="rgb(231, 235, 240)" opacity="1.0"/>
    <path d="M 60.78288650512695 423.1922302246094 C 58.1568603515625 433.8431701660156 50.866004943847656 441.2192077636719 39.86024856567383 443.9535217285156 C 29.15133285522461 441.2140197753906 21.906532287597656 433.8061828613281 19.51776885986328 423.500244140625 C 22.679401397705078 412.9999694824219 30.00000762939453 405.6795349121094 40.79135513305664 402.1458740234375 C 50.86129379272461 404.7899169921875 58.146854400634766 412.16021728515625 60.78288650512695 423.1922302246094" stroke-width="0.0" fill="rgb(111, 54, 26)" opacity="1.0"/>
    <path d="M 462.44305419921875 177.35665893554688 C 459.9197998046875 187.6333770751953 452.6995544433594 195.10081481933594 442.74688720703125 197.09915161132812 C 432.0767822265625 194.1171875 424.6923828125 186.98353576660156 422.0108337402344 176.994873046875 C 424.680908203125 167.00123596191406 432.0012512207031 159.680908203125 442.0005798339844 157.0007781982422 C 452.0 159.6794891357422 459.3205871582031 166.99996948242188 462.44305419921875 177.35665893554688" stroke-width="0.0" fill="rgb(225, 230, 235)" opacity="1.0"/>
    <path d="M 50.649803161621094 94.41534423828125 C 47.42943572998047 105.21300506591797 40.41181182861328 112.9407958984375 29.365936279296875 115.91766357421875 C 19.161823272705078 113.17914581298828 11.80372428894043 105.84528350830078 9.055724143981934 94.71892547607422 C 11.793584823608398 84.14131927490234 19.141855239868164 76.79476165771484 29.416614532470703 74.06317901611328 C 40.80775833129883 76.83076477050781 48.108280181884766 84.21492004394531 50.649803161621094 94.41534423828125" stroke-width="0.0" fill="rgb(136, 84, 58)" opacity="1.0"/>
    <path d="M 367.3155517578125 187.02853393554688 C 364.45928955078125 197.1575469970703 357.1650695800781 204.48641967773438 346.9087219238281 207.4594268798828 C 336.6868896484375 204.6284942626953 329.2631530761719 197.34796142578125 326.4790954589844 187.28994750976562 C 329.48101806640625 176.77256774902344 336.7660827636719 169.45809936523438 347.2496337890625 166.65509033203125 C 357.313232421875 169.3109893798828 364.5870361328125 176.7156982421875 367.3155517578125 187.02853393554688" stroke-width="0.0" fill="rgb(230, 236, 241)" opacity="0.99027103"/>
    <path d="M 200.01100158691406 85.0190658569336 C 197.40818786621094 95.13734436035156 190.21621704101562 102.65282440185547 179.81961059570312 105.66132354736328 C 169.4816131591797 102.8624038696289 162.00010681152344 95.57295989990234 160.79074096679688 85.81460571289062 C 163.5128631591797 75.80501556396484 170.80874633789062 68.52178955078125 180.723388671875 65.90001678466797 C 189.9436798095703 67.84020233154297 197.31869506835938 75.00773620605469 200.01100158691406 85.0190658569336" stroke-width="0.0" fill="rgb(225, 231, 236)" opacity="0.9900393"/>
    <path d="M 155.57432556152344 411.8874206542969 C 152.4393768310547 422.05023193359375 145.0167694091797 429.3277893066406 134.45335388183594 432.609130859375 C 124.27873229980469 430.0702819824219 116.93506622314453 422.7182922363281 114.21501922607422 412.5045166015625 C 117.15921020507812 401.494140625 124.48019409179688 394.11834716796875 134.7183074951172 391.5141296386719 C 145.27352905273438 394.40423583984375 152.6636962890625 401.7050476074219 155.57432556152344 411.8874206542969" stroke-width="0.0" fill="rgb(229, 230, 235)" opacity="1.0"/>
    <path d="M 476.12091064453125 159.26393127441406 C 473.7052307128906 169.3573760986328 466.3343811035156 176.6289520263672 456.1139831542969 179.08766174316406 C 446.00018310546875 176.31996154785156 438.6789855957031 169.00013732910156 435.99981689453125 159.00164794921875 C 438.68280029296875 149.00357055664062 446.00396728515625 141.68414306640625 455.9873046875 139.01727294921875 C 465.95147705078125 141.7248077392578 473.2408142089844 149.0581817626953 476.12091064453125 159.26393127441406" stroke-width="0.0" fill="rgb(224, 229, 234)" opacity="0.9913914"/>
    <path d="M 522.3570556640625 330.2771301269531 C 519.771484375 340.3912048339844 512.3884887695312 347.7682189941406 502.1911926269531 350.6256103515625 C 491.6027526855469 347.75421142578125 484.3337707519531 340.3709411621094 481.6307678222656 330.0479736328125 C 484.49249267578125 319.770263671875 491.7253723144531 312.3403625488281 501.850830078125 309.4131774902344 C 512.04736328125 312.5730285644531 519.3209838867188 319.9844970703125 522.3570556640625 330.2771301269531" stroke-width="0.0" fill="rgb(229, 233, 237)" opacity="1.0"/>
    <path d="M 595.9465942382812 386.68292236328125 C 593.1984252929688 397.83331298828125 585.7945556640625 405.0875244140625 575.4249267578125 407.53619384765625 C 564.504638671875 404.7890930175781 557.5914306640625 397.4368591308594 555.926025390625 387.5975341796875 C 558.4633178710938 377.58160400390625 564.68359375 368.94757080078125 575.687744140625 366.0658874511719 C 585.8790283203125 368.7830810546875 593.2225341796875 376.1186218261719 595.9465942382812 386.68292236328125" stroke-width="0.0" fill="rgb(112, 63, 38)" opacity="0.9900782"/>
    <path d="M 553.6141357421875 105.40003967285156 C 550.8719482421875 115.3932876586914 543.2556762695312 122.47571563720703 533.031982421875 125.01920318603516 C 523.000244140625 122.32042694091797 515.6796875 114.99976348876953 512.7310180664062 104.68636322021484 C 515.0416870117188 94.29180908203125 522.2167358398438 86.82579040527344 532.441162109375 84.0740966796875 C 543.6415405273438 86.91136169433594 550.6903076171875 94.50042724609375 553.6141357421875 105.40003967285156" stroke-width="0.0" fill="rgb(142, 96, 71)" opacity="0.990656"/>
  </g>
</svg>
