<?xml version="1.0" ?>
<svg xmlns="http://www.w3.org/2000/svg" version="1.1" width="256" height="256">
  <defs/>
  <g>
    <path d="M 30.0 105.0 C 27.32050895690918 115.0 20.0 122.32051086425781 10.0 125.0 C 3.552713678800501e-15 122.32051086425781 -7.320508003234863 115.0 -10.0 105.0 C -7.320508003234863 95.0 -8.881784197001252e-15 87.67948913574219 10.0 85.0 C 20.0 87.67948913574219 27.32050895690918 95.0 30.0 105.0" stroke-width="0.0" fill="rgb(255, 255, 255)" opacity="1.0"/>
    <path d="M 26.0 99.0 C 23.32050895690918 109.0 16.0 116.32051086425781 6.0 119.0 C -4.0 116.32051086425781 -11.320508003234863 109.0 -14.0 99.0 C -11.320508003234863 89.0 -4.0 81.67948913574219 6.0 79.0 C 16.0 81.67948913574219 23.32050895690918 89.0 26.0 99.0" stroke-width="0.0" fill="rgb(255, 255, 255)" opacity="1.0"/>
    <path d="M 259.0 240.0 C 256.32049560546875 250.0 249.0 257.32049560546875 239.38523864746094 259.7377014160156 C 229.86557006835938 256.545654296875 222.64573669433594 249.06825256347656 219.99366760253906 240.8409881591797 C 222.66439819335938 230.9790802001953 229.97354125976562 223.64828491210938 239.9026336669922 220.89598083496094 C 249.0 222.6794891357422 256.32049560546875 230.0 259.0 240.0" stroke-width="0.0" fill="rgb(3, 3, 3)" opacity="0.9900099"/>
    <path d="M 46.0 226.0 C 43.32050704956055 236.0 36.0 243.3205108642578 26.0 246.0 C 16.0 243.3205108642578 8.679491996765137 236.0 6.0 226.0 C 8.679491996765137 216.0 16.0 208.6794891357422 26.0 206.0 C 36.0 208.6794891357422 43.32050704956055 216.0 46.0 226.0" stroke-width="0.0" fill="rgb(83, 83, 82)" opacity="1.0"/>
    <path d="M 20.0 147.0 C 17.32050895690918 157.0 10.0 164.3205108642578 1.2246467996456087e-15 167.0 C -10.0 164.3205108642578 -17.32050895690918 157.0 -20.0 147.0 C -17.32050895690918 137.0 -10.0 129.6794891357422 -3.673940187178589e-15 127.0 C 10.0 129.6794891357422 17.32050895690918 137.0 20.0 147.0" stroke-width="0.0" fill="rgb(254, 255, 255)" opacity="1.0"/>
    <path d="M 24.0 141.0 C 21.32050895690918 151.0 14.0 158.3205108642578 4.0 161.0 C -6.0 158.3205108642578 -13.320508003234863 151.0 -16.0 141.0 C -13.320508003234863 131.0 -6.0 123.67948913574219 4.0 121.0 C 14.0 123.67948913574219 21.32050895690918 131.0 24.0 141.0" stroke-width="0.0" fill="rgb(255, 255, 255)" opacity="1.0"/>
    <path d="M 31.0 238.0 C 28.32050895690918 248.0 21.0 255.3205108642578 11.0 258.0 C 1.0 255.3205108642578 -6.320508003234863 248.0 -9.0 238.0 C -6.320508003234863 228.0 1.0 220.6794891357422 11.0 218.0 C 21.0 220.6794891357422 28.32050895690918 228.0 31.0 238.0" stroke-width="0.0" fill="rgb(249, 249, 250)" opacity="1.0"/>
    <path d="M 20.001710891723633 82.99585723876953 C 17.32050895690918 93.0 10.0 100.32051086425781 1.2246467996456087e-15 103.0 C -10.0 100.32051086425781 -17.32050895690918 93.0 -20.0 83.0 C -17.32050895690918 73.0 -10.0 65.67948913574219 0.36359015107154846 62.417579650878906 C 10.197138786315918 65.30523681640625 17.35471534729004 72.92073059082031 20.001710891723633 82.99585723876953" stroke-width="0.0" fill="rgb(255, 255, 255)" opacity="0.9920331"/>
    <path d="M 28.0 195.0 C 25.32050895690918 205.0 18.0 212.3205108642578 8.0 215.0 C -2.0 212.3205108642578 -9.320508003234863 205.0 -12.0 195.0 C -9.320508003234863 185.0 -2.0 177.6794891357422 8.0 175.0 C 18.0 177.6794891357422 25.32050895690918 185.0 28.0 195.0" stroke-width="0.0" fill="rgb(254, 255, 255)" opacity="1.0"/>
    <path d="M 25.0 250.0 C 22.32050895690918 260.0 15.0 267.32049560546875 5.0 270.0 C -5.0 267.32049560546875 -12.320508003234863 260.0 -15.0 250.0 C -12.320508003234863 240.0 -5.0 232.6794891357422 5.0 230.0 C 15.0 232.6794891357422 22.32050895690918 240.0 25.0 250.0" stroke-width="0.0" fill="rgb(255, 255, 255)" opacity="1.0"/>
    <path d="M 42.01319122314453 148.90283203125 C 39.53238296508789 157.4381561279297 32.781288146972656 165.2294464111328 22.991798400878906 167.99696350097656 C 13.0 165.3205108642578 5.679491996765137 158.0 3.0 148.0 C 5.679491996765137 138.0 13.0 130.6794891357422 22.931570053100586 128.0309600830078 C 32.41059875488281 131.05459594726562 39.40092086791992 138.81756591796875 42.01319122314453 148.90283203125" stroke-width="0.0" fill="rgb(61, 61, 60)" opacity="0.99003875"/>
    <path d="M 41.0 168.0 C 38.32050704956055 178.0 31.0 185.3205108642578 21.0 188.0 C 11.0 185.3205108642578 3.6794919967651367 178.0 1.0 168.0 C 3.6794919967651367 158.0 11.0 150.6794891357422 21.0 148.0 C 31.0 150.6794891357422 38.32050704956055 158.0 41.0 168.0" stroke-width="0.0" fill="rgb(1, 2, 1)" opacity="1.0"/>
    <path d="M 22.0 223.0 C 19.32050895690918 233.0 12.0 240.3205108642578 2.0 243.0 C -8.0 240.3205108642578 -15.320508003234863 233.0 -18.0 223.0 C -15.320508003234863 213.0 -8.0 205.6794891357422 2.0 203.0 C 12.0 205.6794891357422 19.32050895690918 213.0 22.0 223.0" stroke-width="0.0" fill="rgb(255, 255, 255)" opacity="1.0"/>
    <path d="M 170.1293487548828 246.64492797851562 C 168.31838989257812 255.99940490722656 160.99998474121094 263.32049560546875 151.0 266.0 C 141.0 263.32049560546875 133.6794891357422 256.0 131.0 246.0 C 133.6794891357422 236.0 141.0 228.6794891357422 150.99998474121094 226.0 C 160.9978485107422 228.6800994873047 168.1659698486328 236.04876708984375 170.1293487548828 246.64492797851562" stroke-width="0.0" fill="rgb(10, 10, 10)" opacity="0.9918581"/>
    <path d="M 30.0 115.0 C 27.32050895690918 125.0 20.0 132.3205108642578 10.0 135.0 C 3.552713678800501e-15 132.3205108642578 -7.320508003234863 125.0 -10.0 115.0 C -7.320508003234863 105.0 -8.881784197001252e-15 97.67948913574219 10.0 95.0 C 20.0 97.67948913574219 27.32050895690918 105.0 30.0 115.0" stroke-width="0.0" fill="rgb(255, 255, 255)" opacity="1.0"/>
    <path d="M 152.0 244.0 C 149.3205108642578 254.0 142.0 261.32049560546875 132.0 264.0 C 122.0 261.32049560546875 114.67948913574219 254.0 111.99999237060547 243.99996948242188 C 114.67826080322266 233.99586486816406 121.95413208007812 226.53929138183594 131.59596252441406 223.30157470703125 C 142.0 226.6794891357422 149.3205108642578 234.0 152.0 244.0" stroke-width="0.0" fill="rgb(255, 255, 255)" opacity="0.99343956"/>
    <path d="M 24.0 140.0 C 21.32050895690918 150.0 14.0 157.3205108642578 4.0 160.0 C -6.0 157.3205108642578 -13.320508003234863 150.0 -16.0 140.0 C -13.320508003234863 130.0 -6.0 122.67948913574219 4.0 120.0 C 14.0 122.67948913574219 21.32050895690918 130.0 24.0 140.0" stroke-width="0.0" fill="rgb(255, 255, 255)" opacity="1.0"/>
    <path d="M 136.0 242.0 C 133.3205108642578 252.0 126.0 259.32049560546875 116.0 262.0 C 106.0 259.32049560546875 98.67948913574219 252.0 96.0 242.0 C 98.67948913574219 232.0 106.0 224.6794891357422 116.0 222.0 C 126.0 224.6794891357422 133.3205108642578 232.0 136.0 242.0" stroke-width="0.0" fill="rgb(255, 255, 255)" opacity="1.0"/>
    <path d="M 36.0 252.0 C 33.32050704956055 262.0 26.0 269.32049560546875 16.0 272.0 C 6.0 269.32049560546875 -1.3205081224441528 262.0 -4.0 252.0 C -1.3205081224441528 242.0 6.0 234.6794891357422 16.0 232.0 C 26.0 234.6794891357422 33.32050704956055 242.0 36.0 252.0" stroke-width="0.0" fill="rgb(149, 149, 150)" opacity="1.0"/>
    <path d="M 33.0 151.0 C 30.32050895690918 161.0 23.0 168.3205108642578 13.0 171.0 C 3.0 168.3205108642578 -4.320508003234863 161.0 -7.0 151.0 C -4.320508003234863 141.0 3.0 133.6794891357422 13.0 131.0 C 23.0 133.6794891357422 30.32050895690918 141.0 33.0 151.0" stroke-width="0.0" fill="rgb(255, 255, 255)" opacity="1.0"/>
    <path d="M 128.0 255.0 C 125.32051086425781 265.0 118.0 272.32049560546875 108.00015258789062 274.99993896484375 C 98.0164566040039 272.3155517578125 91.08070373535156 264.8352966308594 88.97283935546875 255.75735473632812 C 91.3209228515625 245.35353088378906 98.06069946289062 237.69932556152344 108.00093841552734 235.0002899169922 C 118.0 237.6794891357422 125.32051086425781 245.0 128.0 255.0" stroke-width="0.0" fill="rgb(29, 29, 29)" opacity="0.9901208"/>
    <path d="M 23.0 243.0 C 20.32050895690918 253.0 13.0 260.32049560546875 3.0 263.0 C -7.0 260.32049560546875 -14.320508003234863 253.0 -17.0 243.0 C -14.320508003234863 233.0 -7.0 225.6794891357422 3.0 223.0 C 13.0 225.6794891357422 20.32050895690918 233.0 23.0 243.0" stroke-width="0.0" fill="rgb(255, 255, 255)" opacity="1.0"/>
    <path d="M 173.00502014160156 238.9332275390625 C 170.34823608398438 247.05731201171875 163.1180419921875 254.53048706054688 153.6140594482422 257.7524719238281 C 144.0 255.3205108642578 136.6794891357422 248.0 134.00001525878906 238.0000457763672 C 136.68153381347656 228.0069580078125 144.091796875 220.9385223388672 153.0209197998047 218.99075317382812 C 163.0145721435547 221.66741943359375 170.3321533203125 228.98561096191406 173.00502014160156 238.9332275390625" stroke-width="0.0" fill="rgb(4, 5, 5)" opacity="0.9900082"/>
    <path d="M 37.0 127.0 C 34.32050704956055 137.0 27.0 144.3205108642578 17.0 147.0 C 7.0 144.3205108642578 -0.32050806283950806 137.0 -3.0 127.0 C -0.32050806283950806 117.0 7.0 109.67948913574219 17.0 107.0 C 27.0 109.67948913574219 34.32050704956055 117.0 37.0 127.0" stroke-width="0.0" fill="rgb(255, 255, 255)" opacity="1.0"/>
    <path d="M 40.09821701049805 179.2667999267578 C 37.86956024169922 189.80113220214844 30.973894119262695 197.3124237060547 20.999691009521484 199.99990844726562 C 11.0 197.3205108642578 3.6794919967651367 190.0 1.0 180.0 C 3.6794919967651367 170.0 11.0 162.6794891357422 21.0 160.0 C 31.0 162.6794891357422 38.32050704956055 170.0 40.09821701049805 179.2667999267578" stroke-width="0.0" fill="rgb(38, 38, 39)" opacity="1.0"/>
    <path d="M 36.0 171.0 C 33.32050704956055 181.0 26.0 188.3205108642578 16.0 191.0 C 6.0 188.3205108642578 -1.3205081224441528 181.0 -4.0 171.0 C -1.3205081224441528 161.0 6.0 153.6794891357422 16.0 151.0 C 26.0 153.6794891357422 33.32050704956055 161.0 36.0 171.0" stroke-width="0.0" fill="rgb(98, 98, 98)" opacity="1.0"/>
    <path d="M 20.0 166.0 C 17.32050895690918 176.0 10.0 183.3205108642578 1.2246467996456087e-15 186.0 C -10.0 183.3205108642578 -17.32050895690918 176.0 -20.0 166.0 C -17.32050895690918 156.0 -10.0 148.6794891357422 -3.673940187178589e-15 146.0 C 10.0 148.6794891357422 17.32050895690918 156.0 20.0 166.0" stroke-width="0.0" fill="rgb(254, 255, 255)" opacity="1.0"/>
    <path d="M 262.0 246.0 C 259.32049560546875 256.0 252.0 263.32049560546875 242.01849365234375 265.99249267578125 C 232.29730224609375 263.1754455566406 225.43614196777344 255.4435272216797 221.3065948486328 245.16055297851562 C 224.08717346191406 235.6654815673828 231.90008544921875 228.64157104492188 241.99684143066406 225.9988555908203 C 252.0 228.6794891357422 259.32049560546875 236.0 262.0 246.0" stroke-width="0.0" fill="rgb(28, 28, 29)" opacity="1.0"/>
    <path d="M 140.0 250.0 C 137.3205108642578 260.0 130.0 267.32049560546875 120.0 270.0 C 110.0 267.32049560546875 102.67948913574219 260.0 100.0 250.0 C 102.67948913574219 240.0 110.0 232.6794891357422 120.0 230.0 C 130.0 232.6794891357422 137.3205108642578 240.0 140.0 250.0" stroke-width="0.0" fill="rgb(255, 255, 255)" opacity="1.0"/>
    <path d="M 162.0 249.0 C 159.3205108642578 259.0 152.0 266.32049560546875 142.0 269.0 C 132.0 266.32049560546875 124.67948913574219 259.0 122.0 249.0 C 124.67948913574219 239.0 132.0 231.6794891357422 142.0 229.0 C 152.0 231.6794891357422 159.3205108642578 239.0 162.0 249.0" stroke-width="0.0" fill="rgb(253, 253, 254)" opacity="1.0"/>
    <path d="M 42.943634033203125 138.9001922607422 C 40.24755859375 148.86643981933594 32.76702880859375 155.95089721679688 22.22730255126953 158.13360595703125 C 12.0 155.3205108642578 4.679491996765137 148.0 2.0 138.0 C 4.679491996765137 128.0 12.0 120.67948913574219 21.999427795410156 118.00019836425781 C 31.978736877441406 120.68701171875 39.108707427978516 128.08615112304688 42.943634033203125 138.9001922607422" stroke-width="0.0" fill="rgb(252, 252, 252)" opacity="1.0"/>
    <path d="M 41.036293029785156 88.77076721191406 C 38.476890563964844 97.24607849121094 31.3518123626709 104.77798461914062 21.788860321044922 107.84637451171875 C 12.0 105.32051086425781 4.679491996765137 98.0 2.0 88.0 C 4.679491996765137 78.0 12.0 70.67948913574219 21.20669937133789 68.8481216430664 C 31.112300872802734 71.5784683227539 38.39417266845703 78.8993911743164 41.036293029785156 88.77076721191406" stroke-width="0.0" fill="rgb(153, 153, 153)" opacity="0.9900227"/>
    <path d="M 45.02617263793945 169.0955352783203 C 42.38218307495117 179.10601806640625 35.16944122314453 186.5679931640625 25.602855682373047 189.6998748779297 C 16.0 187.3205108642578 8.679491996765137 180.0 6.0 170.0 C 8.679491996765137 160.0 16.0 152.6794891357422 25.999181747436523 150.00025939941406 C 35.95524215698242 152.69436645507812 42.82357406616211 160.23861694335938 45.02617263793945 169.0955352783203" stroke-width="0.0" fill="rgb(104, 103, 104)" opacity="0.990042"/>
    <path d="M 273.0 251.0 C 270.32049560546875 261.0 263.0 268.32049560546875 253.0 271.0 C 243.0 268.32049560546875 235.6794891357422 261.0 233.0 251.0 C 235.6794891357422 241.0 243.0 233.6794891357422 253.0 231.0 C 263.0 233.6794891357422 270.32049560546875 241.0 273.0 251.0" stroke-width="0.0" fill="rgb(255, 255, 255)" opacity="1.0"/>
    <path d="M 129.00001525878906 240.99996948242188 C 126.32051086425781 251.0 119.0 258.32049560546875 109.0 261.0 C 99.0 258.32049560546875 91.67948913574219 251.0 88.68928527832031 240.6905059814453 C 91.1064453125 230.42544555664062 98.40404510498047 223.03744506835938 109.0244369506836 220.13783264160156 C 119.05462646484375 223.5139923095703 126.32180786132812 230.99562072753906 129.00001525878906 240.99996948242188" stroke-width="0.0" fill="rgb(255, 255, 255)" opacity="0.9902459"/>
    <path d="M 36.0 149.0 C 33.32050704956055 159.0 26.0 166.3205108642578 16.0 169.0 C 6.0 166.3205108642578 -1.3205081224441528 159.0 -4.0 149.0 C -1.3205081224441528 139.0 6.0 131.6794891357422 16.0 129.0 C 26.0 131.6794891357422 33.32050704956055 139.0 36.0 149.0" stroke-width="0.0" fill="rgb(255, 255, 254)" opacity="1.0"/>
    <path d="M 36.0 154.0 C 33.32050704956055 164.0 26.0 171.3205108642578 16.0 174.0 C 6.0 171.3205108642578 -1.3205081224441528 164.0 -4.0 154.0 C -1.3205081224441528 144.0 6.0 136.6794891357422 16.0 134.0 C 26.0 136.6794891357422 33.32050704956055 144.0 36.0 154.0" stroke-width="0.0" fill="rgb(254, 253, 254)" opacity="1.0"/>
    <path d="M 134.0 243.0 C 131.3205108642578 253.0 124.0 260.32049560546875 114.0 263.0 C 104.0 260.32049560546875 96.67948913574219 253.0 94.0 243.0 C 96.67948913574219 233.0 104.0 225.6794891357422 114.0 223.0 C 124.0 225.6794891357422 131.3205108642578 233.0 134.0 243.0" stroke-width="0.0" fill="rgb(255, 255, 255)" opacity="1.0"/>
    <path d="M 162.0 239.0 C 159.3205108642578 249.0 152.0 256.32049560546875 142.0 259.0 C 132.0 256.32049560546875 124.67948913574219 249.0 121.886962890625 238.8477020263672 C 124.24993896484375 228.4753875732422 131.3816375732422 220.96502685546875 141.4344024658203 218.31939697265625 C 152.0 221.6794891357422 159.3205108642578 229.0 162.0 239.0" stroke-width="0.0" fill="rgb(255, 255, 255)" opacity="0.99224365"/>
    <path d="M 263.0 251.0 C 260.32049560546875 261.0 253.0 268.32049560546875 243.02151489257812 270.9905090332031 C 233.2887725830078 268.17279052734375 226.41281127929688 260.46820068359375 222.0481719970703 250.0769805908203 C 224.79815673828125 240.26036071777344 232.54066467285156 233.42987060546875 242.96612548828125 230.9862518310547 C 253.0 233.6794891357422 260.32049560546875 241.0 263.0 251.0" stroke-width="0.0" fill="rgb(163, 163, 165)" opacity="1.0"/>
    <path d="M 43.0 168.0 C 40.32050704956055 178.0 33.0 185.3205108642578 23.0 188.0 C 13.0 185.3205108642578 5.679491996765137 178.0 3.0 168.0 C 5.679491996765137 158.0 13.0 150.6794891357422 23.0 148.0 C 33.0 150.6794891357422 40.32050704956055 158.0 43.0 168.0" stroke-width="0.0" fill="rgb(3, 4, 3)" opacity="1.0"/>
    <path d="M 21.0 200.0 C 18.32050895690918 210.0 11.0 217.3205108642578 1.0 220.0 C -9.0 217.3205108642578 -16.32050895690918 210.0 -19.0 200.0 C -16.32050895690918 190.0 -9.0 182.6794891357422 1.0 180.0 C 11.0 182.6794891357422 18.32050895690918 190.0 21.0 200.0" stroke-width="0.0" fill="rgb(255, 255, 255)" opacity="1.0"/>
    <path d="M 28.0 247.0 C 25.32050895690918 257.0 18.0 264.32049560546875 8.0 267.0 C -2.0 264.32049560546875 -9.320508003234863 257.0 -12.0 247.0 C -9.320508003234863 237.0 -2.0 229.6794891357422 8.0 227.0 C 18.0 229.6794891357422 25.32050895690918 237.0 28.0 247.0" stroke-width="0.0" fill="rgb(255, 255, 255)" opacity="1.0"/>
    <path d="M 25.0 225.0 C 22.32050895690918 235.0 15.0 242.3205108642578 5.0 245.0 C -5.0 242.3205108642578 -12.320508003234863 235.0 -15.0 225.0 C -12.320508003234863 215.0 -5.0 207.6794891357422 5.0 205.0 C 15.0 207.6794891357422 22.32050895690918 215.0 25.0 225.0" stroke-width="0.0" fill="rgb(255, 255, 255)" opacity="1.0"/>
    <path d="M 23.0 112.0 C 20.32050895690918 122.0 13.0 129.3205108642578 3.0 132.0 C -7.0 129.3205108642578 -14.320508003234863 122.0 -17.0 112.0 C -14.320508003234863 102.0 -7.0 94.67948913574219 3.0 92.0 C 13.0 94.67948913574219 20.32050895690918 102.0 23.0 112.0" stroke-width="0.0" fill="rgb(255, 255, 255)" opacity="1.0"/>
    <path d="M 20.0 234.0 C 17.32050895690918 244.0 10.0 251.3205108642578 1.2246467996456087e-15 254.0 C -10.0 251.3205108642578 -17.32050895690918 244.0 -20.0 234.0 C -17.32050895690918 224.0 -10.0 216.6794891357422 -3.673940187178589e-15 214.0 C 10.0 216.6794891357422 17.32050895690918 224.0 20.0 234.0" stroke-width="0.0" fill="rgb(255, 255, 255)" opacity="1.0"/>
    <path d="M 49.005611419677734 226.94635009765625 C 46.37227249145508 235.12124633789062 39.2957763671875 242.81597900390625 29.88473892211914 245.9451904296875 C 20.0 243.3205108642578 12.679491996765137 236.0 10.0 226.0 C 12.679491996765137 216.0 20.0 208.6794891357422 29.032512664794922 206.97621154785156 C 39.01591110229492 209.66563415527344 46.3336067199707 216.98434448242188 49.005611419677734 226.94635009765625" stroke-width="0.0" fill="rgb(7, 7, 6)" opacity="0.99000525"/>
    <path d="M 30.0 155.0 C 27.32050895690918 165.0 20.0 172.3205108642578 10.0 175.0 C 3.552713678800501e-15 172.3205108642578 -7.320508003234863 165.0 -10.0 155.0 C -7.320508003234863 145.0 -8.881784197001252e-15 137.6794891357422 10.0 135.0 C 20.0 137.6794891357422 27.32050895690918 145.0 30.0 155.0" stroke-width="0.0" fill="rgb(255, 255, 255)" opacity="1.0"/>
    <path d="M 125.0 245.0 C 122.32051086425781 255.0 115.0 262.32049560546875 105.59552001953125 264.523193359375 C 95.92538452148438 261.44171142578125 88.65608215332031 254.042724609375 85.99528503417969 245.95655822753906 C 88.66738891601562 235.98406982421875 95.98336791992188 228.66583251953125 105.9755859375 225.98695373535156 C 115.0 227.6794891357422 122.32051086425781 235.0 125.0 245.0" stroke-width="0.0" fill="rgb(5, 5, 5)" opacity="0.99000156"/>
    <path d="M 34.0 124.0 C 31.32050895690918 134.0 24.0 141.3205108642578 14.0 144.0 C 4.0 141.3205108642578 -3.3205080032348633 134.0 -6.0 124.0 C -3.3205080032348633 114.0 4.0 106.67948913574219 14.0 104.0 C 24.0 106.67948913574219 31.32050895690918 114.0 34.0 124.0" stroke-width="0.0" fill="rgb(255, 255, 255)" opacity="1.0"/>
    <path d="M 22.0 101.0 C 19.32050895690918 111.0 12.0 118.32051086425781 2.0 121.0 C -8.0 118.32051086425781 -15.320508003234863 111.0 -18.0 101.0 C -15.320508003234863 91.0 -8.0 83.67948913574219 2.0 81.0 C 12.0 83.67948913574219 19.32050895690918 91.0 22.0 101.0" stroke-width="0.0" fill="rgb(255, 255, 255)" opacity="1.0"/>
    <path d="M 20.0 87.0 C 17.32050895690918 97.0 10.0 104.32051086425781 1.2246467996456087e-15 107.0 C -10.0 104.32051086425781 -17.32050895690918 97.0 -20.0 87.0 C -17.32050895690918 77.0 -10.0 69.67948913574219 -5.901380063733086e-05 67.0002212524414 C 9.999999046325684 69.67948913574219 17.32050895690918 77.0 20.0 87.0" stroke-width="0.0" fill="rgb(254, 255, 255)" opacity="1.0"/>
    <path d="M 34.0 228.0 C 31.32050895690918 238.0 24.0 245.3205108642578 14.0 248.0 C 4.0 245.3205108642578 -3.3205080032348633 238.0 -6.0 228.0 C -3.3205080032348633 218.0 4.0 210.6794891357422 14.0 208.0 C 24.0 210.6794891357422 31.32050895690918 218.0 34.0 228.0" stroke-width="0.0" fill="rgb(150, 151, 149)" opacity="1.0"/>
    <path d="M 31.0 161.0 C 28.32050895690918 171.0 21.0 178.3205108642578 11.0 181.0 C 1.0 178.3205108642578 -6.320508003234863 171.0 -9.0 161.0 C -6.320508003234863 151.0 1.0 143.6794891357422 11.0 141.0 C 21.0 143.6794891357422 28.32050895690918 151.0 31.0 161.0" stroke-width="0.0" fill="rgb(255, 255, 255)" opacity="1.0"/>
    <path d="M 27.0 224.0 C 24.32050895690918 234.0 17.0 241.3205108642578 7.0 244.0 C -3.0 241.3205108642578 -10.320508003234863 234.0 -13.0 224.0 C -10.320508003234863 214.0 -3.0 206.6794891357422 7.0 204.0 C 17.0 206.6794891357422 24.32050895690918 214.0 27.0 224.0" stroke-width="0.0" fill="rgb(255, 255, 255)" opacity="1.0"/>
    <path d="M 40.831199645996094 104.72840881347656 C 37.997901916503906 115.54199981689453 30.408432006835938 122.612060546875 20.07809066772461 125.04925537109375 C 10.0 122.32051086425781 2.6794919967651367 115.0 0.0 105.0 C 2.6794919967651367 95.0 10.0 87.67948913574219 20.268692016601562 84.7929916381836 C 30.683273315429688 87.0775146484375 38.11939239501953 94.25634765625 40.831199645996094 104.72840881347656" stroke-width="0.0" fill="rgb(255, 255, 255)" opacity="0.99080837"/>
    <path d="M 164.0013427734375 237.996826171875 C 161.3205108642578 248.0 154.0 255.3205108642578 144.0 258.0 C 134.0 255.3205108642578 126.67948913574219 248.0 124.0149154663086 238.02842712402344 C 126.8296890258789 228.26083374023438 134.43927001953125 221.3062286376953 144.67140197753906 218.68101501464844 C 154.14614868164062 220.3842315673828 161.3453369140625 227.94349670410156 164.0013427734375 237.996826171875" stroke-width="0.0" fill="rgb(255, 255, 255)" opacity="0.99149626"/>
    <path d="M 41.01811981201172 152.82382202148438 C 38.5164680480957 161.41445922851562 31.764902114868164 169.22119140625 21.99091148376465 171.99664306640625 C 12.0 169.3205108642578 4.679491996765137 162.0 2.0 152.0 C 4.679491996765137 142.0 12.0 134.6794891357422 21.453704833984375 132.4480438232422 C 31.110708236694336 135.52005004882812 38.36908721923828 142.92453002929688 41.01811981201172 152.82382202148438" stroke-width="0.0" fill="rgb(47, 47, 47)" opacity="0.9900222"/>
    <path d="M 24.0 129.0 C 21.32050895690918 139.0 14.0 146.3205108642578 4.0 149.0 C -6.0 146.3205108642578 -13.320508003234863 139.0 -16.0 129.0 C -13.320508003234863 119.0 -6.0 111.67948913574219 4.0 109.0 C 14.0 111.67948913574219 21.32050895690918 119.0 24.0 129.0" stroke-width="0.0" fill="rgb(255, 255, 255)" opacity="1.0"/>
    <path d="M 36.0 181.0 C 33.32050704956055 191.0 26.0 198.3205108642578 16.0 201.0 C 6.0 198.3205108642578 -1.3205081224441528 191.0 -4.0 181.0 C -1.3205081224441528 171.0 6.0 163.6794891357422 16.0 161.0 C 26.0 163.6794891357422 33.32050704956055 171.0 36.0 181.0" stroke-width="0.0" fill="rgb(253, 253, 253)" opacity="1.0"/>
    <path d="M 139.0 248.0 C 136.3205108642578 258.0 129.0 265.32049560546875 119.0 268.0 C 109.0 265.32049560546875 101.67948913574219 258.0 99.0 248.0 C 101.67948913574219 238.0 109.0 230.6794891357422 119.0 228.0 C 129.0 230.6794891357422 136.3205108642578 238.0 139.0 248.0" stroke-width="0.0" fill="rgb(255, 255, 255)" opacity="1.0"/>
    <path d="M 262.0 238.0 C 259.32049560546875 248.0 252.0 255.3205108642578 241.9837646484375 258.0063781738281 C 231.69338989257812 255.4644317626953 223.85496520996094 248.63026428222656 221.0276641845703 238.8623809814453 C 224.52378845214844 227.9510955810547 231.9981231689453 220.678955078125 242.0 218.0 C 252.0 220.6794891357422 259.32049560546875 228.0 262.0 238.0" stroke-width="0.0" fill="rgb(92, 93, 94)" opacity="1.0"/>
    <path d="M 21.0 232.0 C 18.32050895690918 242.0 11.0 249.3205108642578 1.0 252.0 C -9.0 249.3205108642578 -16.32050895690918 242.0 -19.0 232.0 C -16.32050895690918 222.0 -9.0 214.6794891357422 1.0 212.0 C 11.0 214.6794891357422 18.32050895690918 222.0 21.0 232.0" stroke-width="0.0" fill="rgb(255, 255, 255)" opacity="1.0"/>
    <path d="M 29.0 201.0 C 26.32050895690918 211.0 19.0 218.3205108642578 9.0 221.0 C -1.0 218.3205108642578 -8.320508003234863 211.0 -11.0 201.0 C -8.320508003234863 191.0 -1.0 183.6794891357422 9.0 181.0 C 19.0 183.6794891357422 26.32050895690918 191.0 29.0 201.0" stroke-width="0.0" fill="rgb(251, 251, 250)" opacity="1.0"/>
    <path d="M 22.0 166.0 C 19.32050895690918 176.0 12.0 183.3205108642578 2.0 186.0 C -8.0 183.3205108642578 -15.320508003234863 176.0 -18.0 166.0 C -15.320508003234863 156.0 -8.0 148.6794891357422 2.0 146.0 C 12.0 148.6794891357422 19.32050895690918 156.0 22.0 166.0" stroke-width="0.0" fill="rgb(255, 255, 255)" opacity="1.0"/>
    <path d="M 270.0 244.0 C 267.32049560546875 254.0 260.0 261.32049560546875 250.0 264.0 C 240.0 261.32049560546875 232.6794891357422 254.0 230.0 244.0 C 232.6794891357422 234.0 240.0 226.6794891357422 250.0 224.0 C 260.0 226.6794891357422 267.32049560546875 234.0 270.0 244.0" stroke-width="0.0" fill="rgb(255, 255, 255)" opacity="1.0"/>
    <path d="M 39.0 237.0 C 36.32050704956055 247.0 29.0 254.3205108642578 19.0 257.0 C 9.0 254.3205108642578 1.6794918775558472 247.0 -1.0 237.0 C 1.6794918775558472 227.0 9.0 219.6794891357422 19.0 217.0 C 29.0 219.6794891357422 36.32050704956055 227.0 39.0 237.0" stroke-width="0.0" fill="rgb(1, 2, 1)" opacity="1.0"/>
    <path d="M 135.9508819580078 239.07830810546875 C 133.3205108642578 249.0 126.0 256.32049560546875 115.76424407958984 259.12823486328125 C 105.17891693115234 256.9994812011719 97.71643829345703 249.91943359375 95.00675964355469 238.0536651611328 C 97.69469451904297 228.02430725097656 105.03553009033203 220.7269744873047 115.1413345336914 218.2235870361328 C 125.48453521728516 222.3099365234375 133.03005981445312 229.40406799316406 135.9508819580078 239.07830810546875" stroke-width="0.0" fill="rgb(255, 255, 255)" opacity="1.0"/>
    <path d="M 29.014230728149414 82.97637939453125 C 26.32050895690918 93.0 19.0 100.32051086425781 9.0 103.0 C -1.0 100.32051086425781 -8.320508003234863 93.0 -10.99282455444336 83.01130676269531 C -8.27690315246582 73.05426788330078 -1.0641602277755737 65.38043975830078 8.672872543334961 62.100494384765625 C 19.25977897644043 65.28935241699219 26.426612854003906 72.83355712890625 29.014230728149414 82.97637939453125" stroke-width="0.0" fill="rgb(233, 232, 232)" opacity="0.99025565"/>
    <path d="M 22.0 189.0 C 19.32050895690918 199.0 12.0 206.3205108642578 2.0 209.0 C -8.0 206.3205108642578 -15.320508003234863 199.0 -18.0 189.0 C -15.320508003234863 179.0 -8.0 171.6794891357422 2.0 169.0 C 12.0 171.6794891357422 19.32050895690918 179.0 22.0 189.0" stroke-width="0.0" fill="rgb(255, 255, 255)" opacity="1.0"/>
    <path d="M 43.076210021972656 129.6182098388672 C 42.10808563232422 139.87911987304688 34.90683364868164 147.24383544921875 24.825191497802734 149.84848022460938 C 14.0 146.3205108642578 6.679491996765137 139.0 4.0 129.0 C 6.679491996765137 119.0 14.0 111.67948913574219 23.93682098388672 109.03416442871094 C 33.53999710083008 111.97388458251953 40.51713180541992 119.65576934814453 43.076210021972656 129.6182098388672" stroke-width="0.0" fill="rgb(184, 185, 185)" opacity="0.9900772"/>
    <path d="M 34.72380065917969 138.49696350097656 C 31.78226661682129 148.253662109375 24.099821090698242 155.3639373779297 14.005270004272461 158.00221252441406 C 4.0 155.3205108642578 -3.3205080032348633 148.0 -6.0 138.0 C -3.3205080032348633 128.0 4.0 120.67948913574219 14.0 118.0 C 24.0 120.67948913574219 31.32050895690918 128.0 34.72380065917969 138.49696350097656" stroke-width="0.0" fill="rgb(255, 255, 255)" opacity="1.0"/>
    <path d="M 149.0 250.0 C 146.3205108642578 260.0 139.0 267.32049560546875 129.0 270.0 C 119.0 267.32049560546875 111.67948913574219 260.0 109.0 250.0 C 111.67948913574219 240.0 119.0 232.6794891357422 129.0 230.0 C 139.0 232.6794891357422 146.3205108642578 240.0 149.0 250.0" stroke-width="0.0" fill="rgb(255, 255, 255)" opacity="1.0"/>
    <path d="M 46.00531768798828 193.05776977539062 C 43.33513641357422 202.02056884765625 36.0252685546875 209.34756469726562 26.07604217529297 212.06980895996094 C 17.0 210.3205108642578 9.679491996765137 203.0 7.0 193.0 C 9.679491996765137 183.0 17.0 175.6794891357422 26.124460220336914 173.85577392578125 C 36.02889633178711 176.64215087890625 43.33457946777344 183.97897338867188 46.00531768798828 193.05776977539062" stroke-width="0.0" fill="rgb(6, 5, 5)" opacity="0.9900032"/>
    <path d="M 170.0 248.0 C 167.3205108642578 258.0 160.0 265.32049560546875 150.0 268.0 C 140.0 265.32049560546875 132.6794891357422 258.0 130.0 248.0 C 132.6794891357422 238.0 140.0 230.6794891357422 150.0 228.0 C 160.0 230.6794891357422 167.3205108642578 238.0 170.0 248.0" stroke-width="0.0" fill="rgb(2, 2, 2)" opacity="1.0"/>
    <path d="M 24.0 250.0 C 21.32050895690918 260.0 14.0 267.32049560546875 4.0 270.0 C -6.0 267.32049560546875 -13.320508003234863 260.0 -16.0 250.0 C -13.320508003234863 240.0 -6.0 232.6794891357422 4.0 230.0 C 14.0 232.6794891357422 21.32050895690918 240.0 24.0 250.0" stroke-width="0.0" fill="rgb(255, 255, 255)" opacity="1.0"/>
    <path d="M 24.0 195.0 C 21.32050895690918 205.0 14.0 212.3205108642578 4.0 215.0 C -6.0 212.3205108642578 -13.320508003234863 205.0 -16.0 195.0 C -13.320508003234863 185.0 -6.0 177.6794891357422 4.0 175.0 C 14.0 177.6794891357422 21.32050895690918 185.0 24.0 195.0" stroke-width="0.0" fill="rgb(255, 255, 255)" opacity="1.0"/>
    <path d="M 32.0 132.0 C 29.32050895690918 142.0 22.0 149.3205108642578 12.0 152.0 C 2.0 149.3205108642578 -5.320508003234863 142.0 -8.0 132.0 C -5.320508003234863 122.0 2.0 114.67948913574219 12.0 112.0 C 22.0 114.67948913574219 29.32050895690918 122.0 32.0 132.0" stroke-width="0.0" fill="rgb(255, 255, 255)" opacity="1.0"/>
    <path d="M 37.0 242.0 C 34.32050704956055 252.0 27.0 259.32049560546875 17.0 262.0 C 7.0 259.32049560546875 -0.32050806283950806 252.0 -3.0 242.0 C -0.32050806283950806 232.0 7.0 224.6794891357422 17.0 222.0 C 27.0 224.6794891357422 34.32050704956055 232.0 37.0 242.0" stroke-width="0.0" fill="rgb(7, 8, 8)" opacity="1.0"/>
    <path d="M 30.0 108.0 C 27.32050895690918 118.0 20.0 125.32051086425781 10.0 128.0 C 3.552713678800501e-15 125.32051086425781 -7.320508003234863 118.0 -10.0 108.0 C -7.320508003234863 98.0 -8.881784197001252e-15 90.67948913574219 10.0 88.0 C 20.0 90.67948913574219 27.32050895690918 98.0 30.0 108.0" stroke-width="0.0" fill="rgb(255, 255, 255)" opacity="1.0"/>
    <path d="M 166.0 250.0 C 163.3205108642578 260.0 156.0 267.32049560546875 146.0 270.0 C 136.0 267.32049560546875 128.6794891357422 260.0 126.0 250.0 C 128.6794891357422 240.0 136.0 232.6794891357422 146.0 230.0 C 156.0 232.6794891357422 163.3205108642578 240.0 166.0 250.0" stroke-width="0.0" fill="rgb(2, 3, 2)" opacity="1.0"/>
    <path d="M 35.0 166.0 C 32.32050704956055 176.0 25.0 183.3205108642578 15.0 186.0 C 5.0 183.3205108642578 -2.3205080032348633 176.0 -5.0 166.0 C -2.3205080032348633 156.0 5.0 148.6794891357422 15.0 146.0 C 25.0 148.6794891357422 32.32050704956055 156.0 35.0 166.0" stroke-width="0.0" fill="rgb(255, 255, 255)" opacity="1.0"/>
    <path d="M 152.0 254.0 C 149.3205108642578 264.0 142.0 271.32049560546875 132.0 274.0 C 122.0 271.32049560546875 114.67948913574219 264.0 112.0 254.0 C 114.67948913574219 244.0 122.0 236.6794891357422 132.0 234.0 C 142.0 236.6794891357422 149.3205108642578 244.0 152.0 254.0" stroke-width="0.0" fill="rgb(255, 255, 255)" opacity="1.0"/>
    <path d="M 40.88581848144531 127.78469848632812 C 38.158111572265625 137.74850463867188 30.64581298828125 144.86460876464844 20.2165584564209 147.16363525390625 C 10.0 144.3205108642578 2.6794919967651367 137.0 0.0 127.0 C 2.6794919967651367 117.0 10.0 109.67948913574219 20.0 107.0 C 30.0 109.67948913574219 37.32050704956055 117.0 40.88581848144531 127.78469848632812" stroke-width="0.0" fill="rgb(255, 255, 255)" opacity="1.0"/>
    <path d="M 36.0 102.0 C 33.32050704956055 112.0 26.0 119.32051086425781 16.0 122.0 C 6.0 119.32051086425781 -1.3205081224441528 112.0 -4.0 102.0 C -1.3205081224441528 92.0 6.0 84.67948913574219 16.0 82.0 C 26.0 84.67948913574219 33.32050704956055 92.0 36.0 102.0" stroke-width="0.0" fill="rgb(255, 255, 255)" opacity="1.0"/>
    <path d="M 25.0 241.0 C 22.32050895690918 251.0 15.0 258.32049560546875 5.0 261.0 C -5.0 258.32049560546875 -12.320508003234863 251.0 -15.0 241.0 C -12.320508003234863 231.0 -5.0 223.6794891357422 5.0 221.0 C 15.0 223.6794891357422 22.32050895690918 231.0 25.0 241.0" stroke-width="0.0" fill="rgb(255, 255, 255)" opacity="1.0"/>
    <path d="M 43.0 232.0 C 40.32050704956055 242.0 33.0 249.3205108642578 23.0 252.0 C 13.0 249.3205108642578 5.679491996765137 242.0 3.0 232.0 C 5.679491996765137 222.0 13.0 214.6794891357422 23.0 212.0 C 33.0 214.6794891357422 40.32050704956055 222.0 43.0 232.0" stroke-width="0.0" fill="rgb(140, 139, 139)" opacity="1.0"/>
    <path d="M 39.0 239.0 C 36.32050704956055 249.0 29.0 256.32049560546875 19.0 259.0 C 9.0 256.32049560546875 1.6794918775558472 249.0 -1.0 239.0 C 1.6794918775558472 229.0 9.0 221.6794891357422 19.0 219.0 C 29.0 221.6794891357422 36.32050704956055 229.0 39.0 239.0" stroke-width="0.0" fill="rgb(0, 0, 0)" opacity="1.0"/>
    <path d="M 25.0 117.0 C 22.32050895690918 127.0 15.0 134.3205108642578 5.0 137.0 C -5.0 134.3205108642578 -12.320508003234863 127.0 -15.0 117.0 C -12.320508003234863 107.0 -5.0 99.67948913574219 5.0 97.0 C 15.0 99.67948913574219 22.32050895690918 107.0 25.0 117.0" stroke-width="0.0" fill="rgb(255, 255, 255)" opacity="1.0"/>
    <path d="M 39.75428009033203 189.43853759765625 C 36.32050704956055 200.0 29.0 207.3205108642578 19.0 210.0 C 9.0 207.3205108642578 1.6794918775558472 200.0 -1.0 190.0 C 1.6794918775558472 180.0 9.0 172.6794891357422 19.030746459960938 169.98260498046875 C 29.24976921081543 172.52947998046875 36.9103889465332 179.58984375 39.75428009033203 189.43853759765625" stroke-width="0.0" fill="rgb(11, 10, 10)" opacity="1.0"/>
    <path d="M 42.993080139160156 197.77609252929688 C 40.30017852783203 207.96624755859375 32.94813919067383 215.24705505371094 22.755653381347656 217.69935607910156 C 12.0 214.3205108642578 4.679491996765137 207.0 2.0 197.0 C 4.679491996765137 187.0 12.0 179.6794891357422 22.848997116088867 176.1675567626953 C 32.961097717285156 178.7276611328125 40.30098342895508 186.0289306640625 42.993080139160156 197.77609252929688" stroke-width="0.0" fill="rgb(154, 154, 153)" opacity="1.0"/>
    <path d="M 30.0 114.0 C 27.32050895690918 124.0 20.0 131.3205108642578 10.0 134.0 C 3.552713678800501e-15 131.3205108642578 -7.320508003234863 124.0 -10.0 114.0 C -7.320508003234863 104.0 -8.881784197001252e-15 96.67948913574219 10.0 94.0 C 20.0 96.67948913574219 27.32050895690918 104.0 30.0 114.0" stroke-width="0.0" fill="rgb(255, 255, 255)" opacity="1.0"/>
    <path d="M 174.90289306640625 253.1234588623047 C 171.2236785888672 263.9671936035156 163.9950408935547 271.31890869140625 153.99990844726562 273.9999694824219 C 144.0 271.32049560546875 136.6794891357422 264.0 134.0 254.0 C 136.6794891357422 244.0 144.0 236.6794891357422 154.52870178222656 233.56639099121094 C 164.8745574951172 235.8531036376953 172.25445556640625 243.09278869628906 174.90289306640625 253.1234588623047" stroke-width="0.0" fill="rgb(235, 234, 235)" opacity="1.0"/>
    <path d="M 46.00914001464844 238.1034393310547 C 43.39235305786133 248.16705322265625 36.39490509033203 255.93814086914062 26.934457778930664 258.9719543457031 C 17.0 256.32049560546875 9.679491996765137 249.0 7.0 239.0 C 9.679491996765137 229.0 17.0 221.6794891357422 26.995433807373047 219.0015411376953 C 36.817256927490234 221.7484893798828 43.5122184753418 229.57647705078125 46.00914001464844 238.1034393310547" stroke-width="0.0" fill="rgb(5, 5, 5)" opacity="0.9900366"/>
    <path d="M 24.0 130.0 C 21.32050895690918 140.0 14.0 147.3205108642578 4.0 150.0 C -6.0 147.3205108642578 -13.320508003234863 140.0 -16.0 130.0 C -13.320508003234863 120.0 -6.0 112.67948913574219 4.0 110.0 C 14.0 112.67948913574219 21.32050895690918 120.0 24.0 130.0" stroke-width="0.0" fill="rgb(255, 255, 255)" opacity="1.0"/>
    <path d="M 22.0 152.0 C 19.32050895690918 162.0 12.0 169.3205108642578 2.0 172.0 C -8.0 169.3205108642578 -15.320508003234863 162.0 -18.0 152.0 C -15.320508003234863 142.0 -8.0 134.6794891357422 2.0 132.0 C 12.0 134.6794891357422 19.32050895690918 142.0 22.0 152.0" stroke-width="0.0" fill="rgb(255, 255, 255)" opacity="1.0"/>
    <path d="M 44.02794647216797 164.9521942138672 C 42.32050704956055 174.0 35.0 181.3205108642578 25.0 184.0 C 15.0 181.3205108642578 7.679491996765137 174.0 5.0 164.0 C 7.679491996765137 154.0 15.0 146.6794891357422 24.31846809387207 144.6065673828125 C 34.06721115112305 147.58094787597656 41.34788131713867 154.955810546875 44.02794647216797 164.9521942138672" stroke-width="0.0" fill="rgb(5, 4, 4)" opacity="0.9902988"/>
    <path d="M 35.800052642822266 186.3191375732422 C 32.05354690551758 196.7748565673828 24.776884078979492 204.05953979492188 14.837424278259277 206.65049743652344 C 5.002205848693848 204.3134307861328 -2.3204166889190674 196.9997100830078 -4.999998569488525 187.0 C -2.3205080032348633 177.0 5.0 169.6794891357422 15.019396781921387 166.99160766601562 C 25.266740798950195 169.54473876953125 33.010292053222656 176.51205444335938 35.800052642822266 186.3191375732422" stroke-width="0.0" fill="rgb(153, 152, 152)" opacity="0.99425584"/>
    <path d="M 261.9970397949219 237.00830078125 C 259.32049560546875 247.0 252.0 254.3205108642578 242.0250244140625 256.9898681640625 C 232.38705444335938 254.12307739257812 225.53443908691406 246.31129455566406 222.94818115234375 236.17420959472656 C 225.63526916503906 227.9669952392578 232.9753875732422 220.6623077392578 242.9558563232422 217.9916534423828 C 251.3586883544922 220.52322387695312 259.2176513671875 227.24929809570312 261.9970397949219 237.00830078125" stroke-width="0.0" fill="rgb(19, 20, 21)" opacity="0.99001133"/>
    <path d="M 38.959869384765625 85.29583740234375 C 36.1159782409668 96.54988098144531 27.883846282958984 102.869140625 17.69249725341797 105.61674499511719 C 8.0 103.32051086425781 0.6794919371604919 96.0 -1.969781756401062 86.04035186767578 C 0.8262900114059448 76.19910430908203 8.255348205566406 69.00572204589844 18.413789749145508 65.35668182373047 C 28.86648178100586 67.84061431884766 36.24039840698242 75.10762023925781 38.959869384765625 85.29583740234375" stroke-width="0.0" fill="rgb(219, 219, 220)" opacity="1.0"/>
    <path d="M 33.0 161.0 C 30.32050895690918 171.0 23.0 178.3205108642578 13.0 181.0 C 3.0 178.3205108642578 -4.320508003234863 171.0 -7.0 161.0 C -4.320508003234863 151.0 3.0 143.6794891357422 13.0 141.0 C 23.0 143.6794891357422 30.32050895690918 151.0 33.0 161.0" stroke-width="0.0" fill="rgb(255, 255, 255)" opacity="1.0"/>
    <path d="M 36.0 237.0 C 33.32050704956055 247.0 26.0 254.3205108642578 16.0 257.0 C 6.0 254.3205108642578 -1.3205081224441528 247.0 -4.0 237.0 C -1.3205081224441528 227.0 6.0 219.6794891357422 16.0 217.0 C 26.0 219.6794891357422 33.32050704956055 227.0 36.0 237.0" stroke-width="0.0" fill="rgb(30, 30, 29)" opacity="1.0"/>
    <path d="M 137.0 250.0 C 134.3205108642578 260.0 127.0 267.32049560546875 116.831787109375 270.0849609375 C 106.22930145263672 267.9183349609375 98.72309875488281 260.9014892578125 96.00920104980469 250.86544799804688 C 98.7532958984375 239.1724395751953 106.40947723388672 232.3125762939453 116.93887329101562 229.9736785888672 C 127.0 232.6794891357422 134.3205108642578 240.0 137.0 250.0" stroke-width="0.0" fill="rgb(252, 252, 252)" opacity="1.0"/>
    <path d="M 155.0 247.0 C 152.3205108642578 257.0 145.0 264.32049560546875 135.0 267.0 C 125.0 264.32049560546875 117.67948913574219 257.0 115.0 247.0 C 117.67948913574219 237.0 125.0 229.6794891357422 135.0 227.0 C 145.0 229.6794891357422 152.3205108642578 237.0 155.0 247.0" stroke-width="0.0" fill="rgb(252, 252, 252)" opacity="0.99026954"/>
    <path d="M 47.0131721496582 231.06167602539062 C 44.40782928466797 241.20286560058594 37.46914291381836 249.00958251953125 27.95275115966797 251.98040771484375 C 18.0 249.3205108642578 10.679491996765137 242.0 8.0 232.0 C 10.679491996765137 222.0 18.0 214.6794891357422 27.99879264831543 212.00054931640625 C 37.9775505065918 214.68905639648438 45.00022888183594 222.12962341308594 47.0131721496582 231.06167602539062" stroke-width="0.0" fill="rgb(6, 6, 5)" opacity="0.99011856"/>
    <path d="M 45.006683349609375 165.1975860595703 C 42.34293746948242 175.0308074951172 35.032188415527344 182.34552001953125 25.040836334228516 185.02378845214844 C 15.914617538452148 183.55357360839844 8.676010131835938 176.01124572753906 5.9999566078186035 166.00013732910156 C 8.679491996765137 156.0 16.0 148.6794891357422 25.678882598876953 146.20089721679688 C 35.151649475097656 149.41766357421875 42.356685638427734 156.92547607421875 45.006683349609375 165.1975860595703" stroke-width="0.0" fill="rgb(4, 4, 3)" opacity="0.99001294"/>
    <path d="M 172.9933319091797 237.0411376953125 C 170.2677459716797 248.8618927001953 162.4076385498047 254.70603942871094 151.11732482910156 258.900390625 C 141.13539123535156 256.2408447265625 134.9769744873047 248.74087524414062 132.9194793701172 238.36849975585938 C 135.48394775390625 228.7673797607422 142.76776123046875 221.4849395751953 152.9778289794922 217.0122833251953 C 162.98330688476562 219.69285583496094 170.30718994140625 227.01669311523438 172.9933319091797 237.0411376953125" stroke-width="0.0" fill="rgb(198, 199, 199)" opacity="1.0"/>
    <path d="M 265.0 252.0 C 262.32049560546875 262.0 255.0 269.32049560546875 244.99658203125 272.00128173828125 C 234.904541015625 269.3577575683594 227.14248657226562 262.2947082519531 224.11349487304688 252.4993133544922 C 227.39073181152344 241.88015747070312 234.97410583496094 234.67051696777344 244.99937438964844 231.99978637695312 C 255.0 234.6794891357422 262.32049560546875 242.0 265.0 252.0" stroke-width="0.0" fill="rgb(255, 255, 255)" opacity="1.0"/>
    <path d="M 41.0 238.0 C 38.32050704956055 248.0 31.0 255.3205108642578 21.0 258.0 C 11.0 255.3205108642578 3.6794919967651367 248.0 1.0 238.0 C 3.6794919967651367 228.0 11.0 220.6794891357422 21.0 218.0 C 31.0 220.6794891357422 38.32050704956055 228.0 41.0 238.0" stroke-width="0.0" fill="rgb(0, 1, 0)" opacity="1.0"/>
    <path d="M 24.0 138.0 C 21.32050895690918 148.0 14.0 155.3205108642578 4.0 158.0 C -6.0 155.3205108642578 -13.320508003234863 148.0 -16.0 138.0 C -13.320508003234863 128.0 -6.0 120.67948913574219 4.0 118.0 C 14.0 120.67948913574219 21.32050895690918 128.0 24.0 138.0" stroke-width="0.0" fill="rgb(255, 255, 255)" opacity="1.0"/>
    <path d="M 270.0 255.0 C 267.32049560546875 265.0 260.0 272.32049560546875 250.0 275.0 C 240.0 272.32049560546875 232.6794891357422 265.0 230.0 255.0 C 232.6794891357422 245.0 240.0 237.6794891357422 250.0 235.0 C 260.0 237.6794891357422 267.32049560546875 245.0 270.0 255.0" stroke-width="0.0" fill="rgb(255, 255, 255)" opacity="1.0"/>
    <path d="M 37.0 247.0 C 34.32050704956055 257.0 27.0 264.32049560546875 17.0 267.0 C 7.0 264.32049560546875 -0.32050806283950806 257.0 -3.0 247.0 C -0.32050806283950806 237.0 7.0 229.6794891357422 17.0 227.0 C 27.0 229.6794891357422 34.32050704956055 237.0 37.0 247.0" stroke-width="0.0" fill="rgb(11, 11, 11)" opacity="1.0"/>
    <path d="M 24.0139217376709 189.06591796875 C 21.348024368286133 199.04071044921875 14.056373596191406 206.39784240722656 4.284200191497803 209.61502075195312 C -5.0 207.3205108642578 -12.320508003234863 200.0 -15.0 190.0 C -12.320508003234863 180.0 -5.0 172.6794891357422 4.988781452178955 170.0042266845703 C 14.743009567260742 172.792236328125 21.514802932739258 180.59384155273438 24.0139217376709 189.06591796875" stroke-width="0.0" fill="rgb(252, 252, 252)" opacity="0.9900106"/>
    <path d="M 38.99018859863281 162.96859741210938 C 36.30475997924805 172.9758758544922 28.965898513793945 180.2749786376953 18.845699310302734 182.81341552734375 C 8.0 179.3205108642578 0.6794919371604919 172.0 -2.0 162.0 C 0.6794919371604919 152.0 8.0 144.6794891357422 18.006500244140625 141.99778747558594 C 28.226106643676758 144.58981323242188 36.13895797729492 151.3985137939453 38.99018859863281 162.96859741210938" stroke-width="0.0" fill="rgb(255, 255, 255)" opacity="1.0"/>
    <path d="M 25.0 243.0 C 22.32050895690918 253.0 15.0 260.32049560546875 5.0 263.0 C -5.0 260.32049560546875 -12.320508003234863 253.0 -15.0 243.0 C -12.320508003234863 233.0 -5.0 225.6794891357422 5.0 223.0 C 15.0 225.6794891357422 22.32050895690918 233.0 25.0 243.0" stroke-width="0.0" fill="rgb(255, 255, 255)" opacity="1.0"/>
    <path d="M 266.1103210449219 237.8460693359375 C 263.32049560546875 248.0 256.0 255.3205108642578 246.0 258.0 C 236.0 255.3205108642578 228.6794891357422 248.0 225.0288848876953 237.0414276123047 C 227.6977996826172 227.02081298828125 235.02003479003906 219.6958465576172 245.03201293945312 217.01490783691406 C 256.65765380859375 219.91815185546875 263.763916015625 227.4503936767578 266.1103210449219 237.8460693359375" stroke-width="0.0" fill="rgb(225, 225, 226)" opacity="1.0"/>
    <path d="M 19.043712615966797 90.67696380615234 C 16.71895408630371 99.66104888916016 9.904351234436035 107.28460693359375 -0.0029043005779385567 109.99895477294922 C -10.0 107.32051086425781 -17.32050895690918 100.0 -20.0 90.0 C -17.32050895690918 80.0 -10.0 72.67948913574219 0.2916513681411743 69.47148895263672 C 9.382179260253906 72.8481216430664 16.439199447631836 80.78837585449219 19.043712615966797 90.67696380615234" stroke-width="0.0" fill="rgb(251, 252, 252)" opacity="0.99010384"/>
    <path d="M 21.491601943969727 223.49087524414062 C 18.32050895690918 234.0 11.0 241.3205108642578 1.0 244.0 C -9.0 241.3205108642578 -16.32050895690918 234.0 -19.0 224.0 C -16.32050895690918 214.0 -9.0 206.6794891357422 1.6155610084533691 203.35589599609375 C 11.797184944152832 205.86630249023438 19.08949851989746 213.21633911132812 21.491601943969727 223.49087524414062" stroke-width="0.0" fill="rgb(255, 255, 255)" opacity="1.0"/>
    <path d="M 44.312469482421875 238.20799255371094 C 42.21942138671875 247.9626007080078 34.99150848388672 255.3174285888672 25.844270706176758 257.185546875 C 15.964877128601074 254.3670196533203 8.66334056854248 247.02484130859375 5.994736194610596 237.07296752929688 C 8.647774696350098 228.93214416503906 15.853606224060059 221.41854858398438 25.30882453918457 218.18687438964844 C 34.949363708496094 220.70176696777344 42.042110443115234 228.13478088378906 44.312469482421875 238.20799255371094" stroke-width="0.0" fill="rgb(3, 3, 3)" opacity="0.9900031"/>
    <path d="M 46.969757080078125 225.1326904296875 C 44.23902893066406 235.87567138671875 36.826454162597656 243.09561157226562 25.627431869506836 245.6887969970703 C 15.21010971069336 243.1290283203125 9.516462326049805 235.53822326660156 6.993072509765625 225.96014404296875 C 9.663158416748047 215.9788818359375 16.97784996032715 208.6608123779297 26.945634841918945 205.9904022216797 C 35.323204040527344 208.6012725830078 44.23123550415039 214.19003295898438 46.969757080078125 225.1326904296875" stroke-width="0.0" fill="rgb(28, 28, 27)" opacity="0.99000305"/>
    <path d="M 19.273696899414062 96.66943359375 C 17.778108596801758 106.30709838867188 10.191311836242676 113.43685913085938 0.024450547993183136 116.01424407958984 C -10.0 113.32051086425781 -17.32050895690918 106.0 -20.0 96.0 C -17.32050895690918 86.0 -10.0 78.67948913574219 -0.0024168831296265125 76.0008773803711 C 9.924418449401855 78.70796203613281 16.830074310302734 86.25443267822266 19.273696899414062 96.66943359375" stroke-width="0.0" fill="rgb(251, 252, 252)" opacity="0.9935648"/>
    <path d="M 41.86632537841797 122.84916687011719 C 38.75593566894531 133.21632385253906 31.063858032226562 140.3446502685547 21.00211524963379 143.0007781982422 C 11.0 140.3205108642578 3.6794919967651367 133.0 0.9992705583572388 122.99830627441406 C 3.6656200885772705 112.96726989746094 10.906293869018555 105.47249603271484 20.735746383666992 102.60775756835938 C 31.18053436279297 105.61651611328125 38.86944580078125 112.64605712890625 41.86632537841797 122.84916687011719" stroke-width="0.0" fill="rgb(252, 252, 252)" opacity="0.9914665"/>
    <path d="M 262.2025451660156 243.73716735839844 C 259.5937194824219 252.27490234375 252.27630615234375 259.5984191894531 243.79847717285156 262.1679382324219 C 233.95611572265625 259.37518310546875 226.6544647216797 252.0342559814453 223.93812561035156 242.05331420898438 C 226.61383056640625 233.9566192626953 233.96890258789062 226.65806579589844 243.52008056640625 223.99240112304688 C 252.0355682373047 226.6566619873047 259.3874816894531 233.9492645263672 262.2025451660156 243.73716735839844" stroke-width="0.0" fill="rgb(52, 53, 54)" opacity="0.9900009"/>
    <path d="M 19.999998092651367 164.0 C 17.32050895690918 174.0 10.0 181.3205108642578 1.2246467996456087e-15 184.0 C -10.0 181.3205108642578 -17.32050895690918 174.0 -20.0 164.0 C -17.32050895690918 154.0 -10.0 146.6794891357422 -0.000653990835417062 144.00169372558594 C 9.999765396118164 146.68008422851562 17.320478439331055 154.0000762939453 19.999998092651367 164.0" stroke-width="0.0" fill="rgb(255, 255, 255)" opacity="0.9998848"/>
    <path d="M 19.99897575378418 116.99994659423828 C 17.320026397705078 126.9996109008789 9.99960994720459 134.32003784179688 -0.00026172472280450165 136.99949645996094 C -10.0 134.3205108642578 -17.32050895690918 127.0 -20.0 117.0 C -17.32050895690918 107.0 -10.0 99.67948913574219 -1.858671566878911e-05 97.00001525878906 C 9.999883651733398 99.6795654296875 17.320199966430664 107.00018310546875 19.99897575378418 116.99994659423828" stroke-width="0.0" fill="rgb(255, 255, 255)" opacity="0.9994599"/>
    <path d="M 39.99187469482422 154.0560760498047 C 37.23289489746094 165.77255249023438 29.27251434326172 172.05030822753906 18.813295364379883 174.79478454589844 C 9.020081520080566 172.31224060058594 1.8083291053771973 164.94342041015625 -0.28354525566101074 155.53134155273438 C 2.400350570678711 145.68284606933594 9.692605018615723 138.425537109375 19.820201873779297 135.6526336669922 C 29.933250427246094 136.77093505859375 37.2962760925293 144.04205322265625 39.99187469482422 154.0560760498047" stroke-width="0.0" fill="rgb(209, 209, 209)" opacity="1.0"/>
    <path d="M 50.00930404663086 254.95144653320312 C 47.51861572265625 263.43719482421875 40.83674621582031 271.2609558105469 30.999181747436523 273.9979553222656 C 21.134735107421875 271.2726745605469 14.463149070739746 263.46893310546875 11.990190505981445 254.48468017578125 C 14.555851936340332 244.69332885742188 21.168750762939453 236.44430541992188 30.130521774291992 234.92515563964844 C 40.05209732055664 237.61915588378906 47.34392166137695 244.96273803710938 50.00930404663086 254.95144653320312" stroke-width="0.0" fill="rgb(4, 4, 4)" opacity="0.9900028"/>
    <path d="M 31.973146438598633 174.93919372558594 C 27.413230895996094 183.062255859375 20.059246063232422 190.38897705078125 10.204215049743652 193.2374725341797 C 1.0 191.3205108642578 -6.320508003234863 184.0 -9.03602123260498 173.94802856445312 C -6.517482757568359 163.72096252441406 0.5979602932929993 156.12730407714844 10.239198684692383 153.37034606933594 C 20.089054107666016 157.57920837402344 27.38859748840332 164.92079162597656 31.973146438598633 174.93919372558594" stroke-width="0.0" fill="rgb(252, 252, 252)" opacity="0.9900076"/>
  </g>
</svg>
