<?xml version="1.0" ?>
<svg xmlns="http://www.w3.org/2000/svg" version="1.1" width="600" height="600">
  <defs/>
  <g>
    <path d="M 331.96014404296875 17.10650062561035 C 344.3231201171875 -6.741675853729248 347.5404357910156 -8.817968368530273 355.5523376464844 -7.9175238609313965 C 354.4429626464844 18.62647247314453 356.82568359375 21.638259887695312 354.39410400390625 28.238231658935547 C 350.6941223144531 27.491605758666992 355.4394836425781 31.286287307739258 352.3053894042969 41.7804069519043 C 342.5769958496094 34.804046630859375 337.1816101074219 34.16343688964844 331.96014404296875 17.10650062561035" stroke-width="0.0" fill="rgb(37, 37, 36)" opacity="0.8981682"/>
    <path d="M 466.26873779296875 29.405555725097656 C 474.4830627441406 49.404319763183594 511.3318176269531 46.40406036376953 510.2052307128906 40.69086456298828 C 505.7049865722656 49.2730712890625 524.3551635742188 50.16951370239258 533.464111328125 1.9850214719772339 C 517.6488647460938 -15.477579116821289 496.9255676269531 -8.825778007507324 495.93487548828125 0.9348702430725098 C 496.0370178222656 14.17101764678955 499.47967529296875 11.77502727508545 466.26873779296875 29.405555725097656" stroke-width="0.0" fill="rgb(38, 38, 37)" opacity="0.94240934"/>
    <path d="M 591.1526489257812 516.18310546875 C 591.6998291015625 513.1337280273438 594.3104858398438 511.06201171875 600.8121337890625 514.1693725585938 C 600.0410766601562 515.7612915039062 593.563720703125 515.9637451171875 582.161865234375 517.3865966796875 C 572.375 516.9927978515625 562.0090942382812 520.789306640625 555.4158325195312 482.3650817871094 C 600.0778198242188 488.1714172363281 596.1197509765625 492.2666015625 591.1526489257812 516.18310546875" stroke-width="0.0" fill="rgb(30, 31, 29)" opacity="0.95564616"/>
    <path d="M 536.4702758789062 503.14715576171875 C 573.7261962890625 497.26519775390625 575.2706909179688 499.4078674316406 572.09765625 548.3770751953125 C 535.9509887695312 540.7235107421875 546.8063354492188 517.6495361328125 532.7892456054688 518.0497436523438 C 531.4794921875 530.5513305664062 528.2371215820312 527.0908813476562 529.4639282226562 553.1536865234375 C 557.6110229492188 552.3092041015625 544.1383056640625 548.147705078125 536.4702758789062 503.14715576171875" stroke-width="0.0" fill="rgb(25, 26, 24)" opacity="1.0"/>
    <path d="M 493.8040771484375 593.6295166015625 C 473.4647216796875 597.6688232421875 471.66925048828125 595.5565795898438 473.8524169921875 567.1257934570312 C 496.6307678222656 563.4033813476562 489.7308654785156 573.4653930664062 490.3592834472656 584.9454956054688 C 503.4164123535156 585.7997436523438 504.5264587402344 582.5037231445312 504.26580810546875 572.8523559570312 C 491.1748046875 564.7943725585938 493.9837646484375 563.4571533203125 493.8040771484375 593.6295166015625" stroke-width="0.0" fill="rgb(6, 5, 3)" opacity="1.0"/>
    <path d="M 556.63525390625 487.20721435546875 C 555.9186401367188 493.992431640625 554.0772705078125 488.8901672363281 550.8034057617188 530.5992431640625 C 582.5679931640625 538.8177490234375 587.9241943359375 528.8909912109375 589.80322265625 522.0828247070312 C 590.745849609375 516.513671875 589.9179077148438 517.0325317382812 605.2210083007812 536.278076171875 C 609.1161499023438 523.6826171875 604.2869873046875 511.4706115722656 556.63525390625 487.20721435546875" stroke-width="0.0" fill="rgb(20, 21, 19)" opacity="1.0"/>
    <path d="M 217.63755798339844 36.812355041503906 C 232.87359619140625 33.71398162841797 230.65260314941406 37.73712921142578 223.59475708007812 37.01409149169922 C 230.99368286132812 35.83917999267578 234.724853515625 33.02875518798828 234.65501403808594 6.136087894439697 C 208.74090576171875 4.699978351593018 203.42503356933594 8.802319526672363 198.67921447753906 15.216384887695312 C 198.04644775390625 39.88688278198242 198.0000762939453 36.7411003112793 217.63755798339844 36.812355041503906" stroke-width="0.0" fill="rgb(16, 17, 15)" opacity="0.98403966"/>
    <path d="M 133.046142578125 579.1390380859375 C 157.9305877685547 575.6033935546875 151.22007751464844 575.24462890625 155.18785095214844 576.32275390625 C 153.8668670654297 600.0243530273438 159.7150421142578 608.4652099609375 140.76548767089844 610.1798095703125 C 139.28677368164062 586.8589477539062 126.6865463256836 572.951904296875 117.10047912597656 600.0358276367188 C 152.33604431152344 612.1956787109375 136.6645050048828 601.106689453125 133.046142578125 579.1390380859375" stroke-width="0.0" fill="rgb(19, 20, 18)" opacity="0.99986535"/>
    <path d="M 578.3482055664062 403.1255187988281 C 587.0890502929688 411.90582275390625 589.9742431640625 411.3963928222656 590.0779418945312 422.6698913574219 C 599.474609375 426.524658203125 606.798095703125 425.5848388671875 611.9105224609375 420.77557373046875 C 611.489013671875 386.6493835449219 611.9644775390625 376.1973571777344 601.257080078125 373.266845703125 C 583.22607421875 395.4005126953125 582.4701538085938 395.7702941894531 578.3482055664062 403.1255187988281" stroke-width="0.0" fill="rgb(0, 0, 0)" opacity="1.0"/>
    <path d="M 305.838134765625 610.5559692382812 C 321.9015197753906 612.224853515625 326.4842224121094 611.6986083984375 327.4386901855469 587.0668334960938 C 303.31414794921875 578.061279296875 295.8848571777344 582.6746215820312 299.6242370605469 582.2288818359375 C 293.6568298339844 581.37939453125 286.0575866699219 578.4808349609375 267.4415588378906 603.81494140625 C 275.162841796875 614.4230346679688 284.6530456542969 610.8750610351562 305.838134765625 610.5559692382812" stroke-width="0.0" fill="rgb(24, 24, 23)" opacity="1.0"/>
    <path d="M 288.3421630859375 566.7063598632812 C 280.3443298339844 567.3899536132812 277.1999816894531 568.7337036132812 267.394287109375 596.07861328125 C 287.6976623535156 590.7903442382812 291.3689880371094 585.8103637695312 288.9809265136719 582.4847412109375 C 294.4031677246094 585.2706909179688 297.1239929199219 583.9447021484375 314.2835998535156 582.6443481445312 C 316.8242492675781 561.1508178710938 312.5309753417969 564.0440673828125 288.3421630859375 566.7063598632812" stroke-width="0.0" fill="rgb(12, 12, 10)" opacity="1.0"/>
    <path d="M 594.9295043945312 326.3031921386719 C 611.2689208984375 328.41314697265625 611.9674072265625 337.39630126953125 610.4234008789062 363.91400146484375 C 605.0637817382812 365.4838562011719 599.4251708984375 368.7724609375 567.48828125 375.41680908203125 C 567.5780639648438 364.1929016113281 567.1431274414062 362.8847351074219 570.0075073242188 340.3704833984375 C 585.4066162109375 337.7283935546875 583.9388427734375 337.2966613769531 594.9295043945312 326.3031921386719" stroke-width="0.0" fill="rgb(19, 20, 18)" opacity="1.0"/>
    <path d="M 564.447509765625 314.77294921875 C 552.7937622070312 339.32989501953125 555.5438842773438 344.7259521484375 590.5357055664062 342.6805725097656 C 574.8633422851562 314.5130920410156 575.4701538085938 316.3736572265625 578.0738525390625 318.48016357421875 C 577.2536010742188 313.396728515625 571.0843505859375 316.45623779296875 599.3214721679688 336.6191711425781 C 602.2382202148438 304.0904541015625 593.3734130859375 302.13824462890625 564.447509765625 314.77294921875" stroke-width="0.0" fill="rgb(35, 35, 32)" opacity="1.0"/>
    <path d="M 598.35009765625 424.44293212890625 C 566.0755615234375 421.39739990234375 571.2452392578125 418.63580322265625 564.0283203125 421.7713623046875 C 562.6041870117188 414.6166687011719 561.173095703125 408.52410888671875 560.44970703125 382.2003173828125 C 567.6115112304688 379.8207092285156 571.4069213867188 383.16815185546875 573.2945556640625 370.9444885253906 C 607.7758178710938 369.2286682128906 609.5520629882812 373.64935302734375 598.35009765625 424.44293212890625" stroke-width="0.0" fill="rgb(20, 21, 19)" opacity="0.99602646"/>
    <path d="M 546.30615234375 383.4813537597656 C 578.3773803710938 388.2706604003906 572.6526489257812 388.76153564453125 581.7551879882812 386.94476318359375 C 581.2960205078125 408.58746337890625 581.3512573242188 411.14605712890625 580.2407836914062 429.5545349121094 C 550.4209594726562 426.4317626953125 551.0299072265625 423.5937194824219 543.970458984375 425.0954895019531 C 538.4904174804688 424.23114013671875 536.103271484375 411.02691650390625 546.30615234375 383.4813537597656" stroke-width="0.0" fill="rgb(21, 21, 19)" opacity="0.9924836"/>
    <path d="M 9.165179252624512 30.118488311767578 C 39.21425247192383 32.635738372802734 50.461143493652344 33.090911865234375 49.485450744628906 26.409299850463867 C 41.96110153198242 5.0253472328186035 43.6009521484375 -1.2262276411056519 41.76543045043945 -5.005684852600098 C 22.688705444335938 10.978290557861328 19.70524787902832 -3.723775863647461 40.316444396972656 -6.697446823120117 C 36.82878112792969 5.9789018630981445 20.602649688720703 -2.0662872791290283 9.165179252624512 30.118488311767578" stroke-width="0.0" fill="rgb(42, 42, 40)" opacity="0.92885226"/>
    <path d="M 550.3583374023438 576.5008544921875 C 578.118408203125 567.6289672851562 579.4636840820312 566.678955078125 584.4966430664062 560.1161499023438 C 581.4871215820312 557.3094482421875 582.5422973632812 567.3965454101562 602.0230102539062 548.01318359375 C 593.9534301757812 538.3404541015625 590.0875854492188 544.2655029296875 590.3973388671875 536.0963745117188 C 556.7993774414062 538.5397338867188 550.3479614257812 543.7269897460938 550.3583374023438 576.5008544921875" stroke-width="0.0" fill="rgb(20, 21, 19)" opacity="0.9994739"/>
    <path d="M 540.7068481445312 334.1048278808594 C 542.943115234375 293.76434326171875 545.3405151367188 294.8644714355469 554.8401489257812 294.07025146484375 C 566.9354858398438 297.630126953125 570.063720703125 298.02667236328125 581.5654907226562 294.9524230957031 C 580.5757446289062 301.14154052734375 579.1484375 298.9640808105469 593.6880493164062 302.0465393066406 C 586.460693359375 332.186767578125 577.1989135742188 335.52191162109375 540.7068481445312 334.1048278808594" stroke-width="0.0" fill="rgb(25, 26, 24)" opacity="0.9552261"/>
    <path d="M 443.85198974609375 608.6832275390625 C 445.07452392578125 567.5430297851562 456.2409973144531 566.60400390625 457.1410217285156 566.9400024414062 C 470.05560302734375 563.1774291992188 479.4830322265625 566.758056640625 488.7504577636719 563.56689453125 C 483.2757873535156 565.902587890625 484.6296081542969 565.469482421875 502.3570251464844 557.6813354492188 C 499.9658508300781 589.2409057617188 503.9743957519531 599.1519165039062 443.85198974609375 608.6832275390625" stroke-width="0.0" fill="rgb(22, 22, 21)" opacity="1.0"/>
    <path d="M 557.7733764648438 566.5473022460938 C 517.8905029296875 564.8050537109375 518.3467407226562 575.55712890625 521.8812866210938 608.9201049804688 C 548.5166625976562 595.7717895507812 543.8180541992188 596.0888671875 538.0852661132812 600.5075073242188 C 549.784912109375 565.0079345703125 570.2684326171875 570.0654296875 572.2063598632812 607.3786010742188 C 525.1527709960938 609.466552734375 530.5571899414062 610.8983764648438 557.7733764648438 566.5473022460938" stroke-width="0.0" fill="rgb(22, 23, 21)" opacity="1.0"/>
    <path d="M 543.9220581054688 404.7712707519531 C 561.881591796875 393.65216064453125 561.0646362304688 386.3476257324219 556.327392578125 383.6818542480469 C 558.2197875976562 388.6190185546875 559.7477416992188 383.3221740722656 562.6246337890625 376.841552734375 C 560.8054809570312 373.4400634765625 559.5341186523438 368.2662658691406 546.798583984375 369.809814453125 C 549.1559448242188 392.8389587402344 546.382568359375 396.6233215332031 543.9220581054688 404.7712707519531" stroke-width="0.0" fill="rgb(55, 56, 55)" opacity="0.84441537"/>
    <path d="M 473.27069091796875 565.4324340820312 C 446.2328796386719 563.1788330078125 441.91790771484375 567.7625732421875 445.75189208984375 606.1010131835938 C 484.1641845703125 591.4566040039062 471.8590393066406 572.2159423828125 470.1613464355469 575.2394409179688 C 452.4969482421875 582.58203125 454.95855712890625 588.99169921875 475.7881164550781 581.2147827148438 C 472.0781555175781 583.2789306640625 472.8548583984375 582.2932739257812 473.27069091796875 565.4324340820312" stroke-width="0.0" fill="rgb(22, 22, 20)" opacity="0.9925663"/>
    <path d="M 22.32775115966797 11.486299514770508 C 72.16234588623047 12.105972290039062 71.42713165283203 39.80044174194336 35.32941436767578 31.54517364501953 C 34.3620491027832 34.149871826171875 45.58066177368164 38.95549011230469 49.01633071899414 38.263309478759766 C 47.42507553100586 38.75962829589844 48.22785949707031 38.93046569824219 47.773441314697266 38.91459655761719 C 52.3829231262207 36.28799819946289 34.755008697509766 44.15467834472656 22.32775115966797 11.486299514770508" stroke-width="0.0" fill="rgb(22, 22, 21)" opacity="0.90560126"/>
    <path d="M 447.3329162597656 -13.784283638000488 C 425.877197265625 -11.226949691772461 422.2786560058594 -6.5562424659729 426.8721923828125 21.34246063232422 C 435.7541809082031 35.6769905090332 449.8521728515625 37.36063766479492 469.2164306640625 27.587949752807617 C 465.5678405761719 36.28404235839844 447.4971008300781 32.526859283447266 472.101806640625 32.26192092895508 C 474.9699401855469 23.601856231689453 471.5238952636719 6.895910263061523 447.3329162597656 -13.784283638000488" stroke-width="0.0" fill="rgb(17, 17, 15)" opacity="0.9999498"/>
    <path d="M 558.474609375 595.8419189453125 C 559.6940307617188 566.1607666015625 562.8772583007812 564.651611328125 608.2257080078125 562.7725219726562 C 611.4951782226562 604.16552734375 607.9925537109375 608.0506591796875 595.783935546875 603.498779296875 C 569.114501953125 590.9320678710938 564.2517700195312 592.1541748046875 576.5086059570312 602.7149047851562 C 598.3308715820312 595.9847412109375 597.2509765625 583.3072509765625 558.474609375 595.8419189453125" stroke-width="0.0" fill="rgb(18, 19, 18)" opacity="1.0"/>
    <path d="M 585.189453125 516.8895874023438 C 584.6973266601562 509.48223876953125 589.9703369140625 510.2431945800781 596.83154296875 510.0991516113281 C 596.5817260742188 512.4860229492188 598.301513671875 509.2462463378906 609.6152954101562 513.431884765625 C 604.387939453125 523.2085571289062 600.1400756835938 517.4088745117188 596.5759887695312 517.9426879882812 C 592.3252563476562 517.2842407226562 591.8411254882812 516.5614624023438 585.189453125 516.8895874023438" stroke-width="0.0" fill="rgb(21, 21, 20)" opacity="1.0"/>
    <path d="M 568.3493041992188 525.7657470703125 C 564.4031982421875 536.6697998046875 574.6145629882812 539.315673828125 579.3680419921875 532.5557250976562 C 585.6431274414062 517.7015380859375 591.1762084960938 519.9306640625 588.0520629882812 507.36273193359375 C 580.021240234375 506.04315185546875 582.2232666015625 512.2241821289062 590.5726318359375 525.0265502929688 C 587.4615478515625 533.02685546875 585.6196899414062 530.34033203125 568.3493041992188 525.7657470703125" stroke-width="0.0" fill="rgb(19, 20, 18)" opacity="1.0"/>
    <path d="M 548.0421752929688 466.3134765625 C 573.0260620117188 455.82098388671875 574.4639282226562 448.6600036621094 572.6998901367188 448.9299621582031 C 565.1338500976562 424.2615051269531 559.9974975585938 423.78009033203125 552.2448120117188 432.4267272949219 C 547.317626953125 435.5411071777344 546.3164672851562 437.0489501953125 550.5930786132812 427.361572265625 C 530.6934814453125 428.3083801269531 523.59033203125 449.916748046875 548.0421752929688 466.3134765625" stroke-width="0.0" fill="rgb(41, 42, 40)" opacity="0.9746584"/>
    <path d="M 594.303466796875 551.6036987304688 C 570.6856689453125 518.1217041015625 568.794921875 516.6649169921875 610.67236328125 519.4570922851562 C 610.8060302734375 553.0306396484375 612.133544921875 558.239013671875 601.2504272460938 561.804931640625 C 569.1470947265625 514.0208129882812 558.0125122070312 509.1329040527344 553.2872314453125 540.644287109375 C 583.4364013671875 559.7537231445312 604.0484008789062 563.0442504882812 594.303466796875 551.6036987304688" stroke-width="0.0" fill="rgb(24, 24, 23)" opacity="0.9881348"/>
    <path d="M 263.34674072265625 30.56854248046875 C 274.02239990234375 3.5582058429718018 272.3948974609375 3.908493757247925 266.0061950683594 24.36142921447754 C 283.7724304199219 12.104582786560059 278.9183044433594 6.317614555358887 284.3923034667969 3.3591697216033936 C 293.8702697753906 9.28040885925293 295.8156433105469 11.757019996643066 303.3797912597656 25.454757690429688 C 301.5569152832031 28.39663314819336 299.141845703125 32.70466995239258 263.34674072265625 30.56854248046875" stroke-width="0.0" fill="rgb(26, 27, 25)" opacity="0.9935861"/>
    <path d="M 54.13393020629883 33.70183563232422 C 49.873085021972656 24.12270164489746 55.703216552734375 33.97760009765625 44.49279022216797 29.54736328125 C 44.71324157714844 -4.007937908172607 52.74919891357422 -5.76050329208374 71.73257446289062 0.8941189050674438 C 74.06329345703125 14.00104808807373 71.01122283935547 13.422198295593262 89.28203582763672 15.28421688079834 C 97.74437713623047 37.621524810791016 98.7500228881836 33.57363510131836 54.13393020629883 33.70183563232422" stroke-width="0.0" fill="rgb(18, 19, 17)" opacity="0.99128896"/>
    <path d="M 71.36109161376953 10.064072608947754 C 77.5262222290039 21.593088150024414 76.72595977783203 26.832416534423828 88.28596496582031 34.01499557495117 C 97.99090576171875 35.10240936279297 91.75110626220703 30.011926651000977 93.99554443359375 25.545461654663086 C 93.55432891845703 13.604228973388672 94.88996124267578 13.03186321258545 93.02500915527344 1.284685730934143 C 78.97008514404297 -0.572727382183075 76.25591278076172 -1.8955740928649902 71.36109161376953 10.064072608947754" stroke-width="0.0" fill="rgb(12, 13, 11)" opacity="0.9579747"/>
    <path d="M 134.74183654785156 580.497802734375 C 132.01759338378906 621.6154174804688 119.10250091552734 615.797119140625 85.10293579101562 601.4916381835938 C 90.62665557861328 582.4028930664062 111.41276550292969 599.432861328125 122.11685180664062 583.1375122070312 C 101.59778594970703 579.3780517578125 103.23478698730469 583.108642578125 89.3126220703125 582.8375854492188 C 81.2777328491211 596.9314575195312 79.8641586303711 597.6866455078125 134.74183654785156 580.497802734375" stroke-width="0.0" fill="rgb(17, 18, 16)" opacity="1.0"/>
    <path d="M 242.81304931640625 32.554344177246094 C 235.26466369628906 3.612218141555786 248.0512237548828 3.75962233543396 249.84466552734375 24.83823585510254 C 230.62460327148438 32.60306167602539 246.00106811523438 14.542228698730469 243.244384765625 -10.949193000793457 C 213.57296752929688 -6.7236528396606445 213.95668029785156 -9.676057815551758 202.78341674804688 -5.226954460144043 C 215.58602905273438 37.88505935668945 223.94970703125 35.5813102722168 242.81304931640625 32.554344177246094" stroke-width="0.0" fill="rgb(20, 21, 19)" opacity="1.0"/>
    <path d="M 548.8546752929688 294.5787658691406 C 563.5690307617188 276.0496826171875 567.8827514648438 278.5823669433594 564.6930541992188 283.51605224609375 C 565.973876953125 286.60711669921875 559.6725463867188 275.5062255859375 601.8024291992188 250.9201202392578 C 600.4276123046875 277.5464782714844 594.700439453125 278.2568664550781 587.1819458007812 301.9541320800781 C 570.9016723632812 301.76690673828125 555.73388671875 303.941162109375 548.8546752929688 294.5787658691406" stroke-width="0.0" fill="rgb(11, 12, 11)" opacity="1.0"/>
    <path d="M 160.10890197753906 4.224883556365967 C 157.81068420410156 39.68264389038086 158.91656494140625 38.145172119140625 194.46226501464844 33.57407760620117 C 190.3609619140625 17.151004791259766 168.82566833496094 23.050643920898438 159.5611114501953 -2.4125192165374756 C 189.8094024658203 -0.5266053676605225 201.29248046875 -5.687956809997559 224.61544799804688 -7.22680139541626 C 209.58486938476562 36.37068557739258 198.44998168945312 38.22004318237305 160.10890197753906 4.224883556365967" stroke-width="0.0" fill="rgb(27, 28, 26)" opacity="0.97083884"/>
    <path d="M 566.7200317382812 315.7878112792969 C 544.0721435546875 317.8749694824219 540.599365234375 318.26513671875 547.524658203125 303.8238830566406 C 560.406982421875 288.4755859375 558.73779296875 284.2772216796875 553.7169189453125 286.9805603027344 C 560.7385864257812 287.16302490234375 567.7283935546875 282.68719482421875 587.23291015625 297.3766784667969 C 583.0513916015625 313.2577819824219 579.6212158203125 315.0854187011719 566.7200317382812 315.7878112792969" stroke-width="0.0" fill="rgb(23, 24, 22)" opacity="0.9007469"/>
    <path d="M 229.55044555664062 31.800079345703125 C 230.11416625976562 10.972489356994629 229.82424926757812 8.188802719116211 245.80950927734375 -10.581512451171875 C 266.3692932128906 -7.068235874176025 258.3214111328125 -7.679876804351807 279.0971374511719 -4.755710601806641 C 273.8708801269531 38.186248779296875 267.6741943359375 34.12588882446289 260.91070556640625 34.65297317504883 C 239.63714599609375 36.1196403503418 236.14332580566406 40.18238830566406 229.55044555664062 31.800079345703125" stroke-width="0.0" fill="rgb(19, 19, 18)" opacity="1.0"/>
    <path d="M 596.6655883789062 314.64666748046875 C 590.8114624023438 339.727294921875 596.0053100585938 351.78375244140625 611.6273803710938 315.59674072265625 C 586.8787841796875 310.3152770996094 584.5549926757812 318.2810974121094 595.5647583007812 335.08251953125 C 596.0545043945312 346.40283203125 595.3269653320312 351.40924072265625 564.9893188476562 363.9830322265625 C 562.9158325195312 326.2402648925781 562.9513549804688 316.39532470703125 596.6655883789062 314.64666748046875" stroke-width="0.0" fill="rgb(17, 17, 16)" opacity="0.9803051"/>
    <path d="M 140.79449462890625 607.8040771484375 C 110.17610168457031 605.7351684570312 111.96627807617188 595.176025390625 117.73908233642578 575.9761962890625 C 142.61416625976562 576.306396484375 139.97213745117188 575.484130859375 139.13424682617188 576.9736328125 C 140.04493713378906 576.1925048828125 137.2108612060547 575.5880737304688 150.1596221923828 575.9091796875 C 157.99476623535156 576.703125 158.7760009765625 570.8168334960938 140.79449462890625 607.8040771484375" stroke-width="0.0" fill="rgb(20, 21, 19)" opacity="1.0"/>
    <path d="M 583.6011352539062 323.4795837402344 C 584.8712768554688 365.3434753417969 587.9122924804688 372.5289001464844 583.1083374023438 380.07574462890625 C 552.6812744140625 372.076904296875 559.947509765625 372.210205078125 547.4818115234375 372.4430847167969 C 560.2875366210938 356.1404113769531 564.4054565429688 359.675048828125 541.8967895507812 372.8848571777344 C 543.6148071289062 337.8705139160156 544.6929931640625 328.2467041015625 583.6011352539062 323.4795837402344" stroke-width="0.0" fill="rgb(21, 21, 19)" opacity="1.0"/>
    <path d="M -8.900152206420898 -2.709120512008667 C -8.874844551086426 -4.262975215911865 -4.031450271606445 -10.08684253692627 16.710590362548828 -7.787769317626953 C -2.566004753112793 11.74032211303711 -11.604393005371094 4.802525520324707 -7.445155143737793 28.910921096801758 C 24.908266067504883 26.543806076049805 24.048097610473633 14.084044456481934 12.958854675292969 -3.1802587509155273 C -4.639834403991699 8.174901962280273 -8.604866027832031 18.864110946655273 -8.900152206420898 -2.709120512008667" stroke-width="0.0" fill="rgb(19, 19, 18)" opacity="1.0"/>
    <path d="M 218.34640502929688 570.73291015625 C 219.08743286132812 598.0034790039062 223.7525177001953 596.0706176757812 263.8807678222656 593.1591796875 C 260.98907470703125 573.7207641601562 250.9751739501953 574.0750122070312 254.9474639892578 576.2078857421875 C 260.209228515625 586.015380859375 269.70855712890625 587.7564697265625 277.3555908203125 567.787841796875 C 257.1085205078125 567.5828857421875 251.6812744140625 567.7069091796875 218.34640502929688 570.73291015625" stroke-width="0.0" fill="rgb(31, 31, 30)" opacity="0.94448495"/>
    <path d="M 491.4474182128906 613.3153076171875 C 523.1190795898438 611.5039672851562 527.8064575195312 608.7947387695312 536.9949951171875 605.0152587890625 C 537.6435546875 573.3124389648438 534.4181518554688 571.9559326171875 532.5169677734375 557.75830078125 C 498.28985595703125 564.505126953125 493.5122375488281 570.2053833007812 479.3100280761719 575.9894409179688 C 478.41864013671875 599.3238525390625 476.7598876953125 603.2251586914062 491.4474182128906 613.3153076171875" stroke-width="0.0" fill="rgb(19, 19, 17)" opacity="0.99316704"/>
    <path d="M 503.4404296875 573.8098754882812 C 489.14984130859375 560.8046875 517.1095581054688 548.4381103515625 511.6761169433594 551.2029418945312 C 503.4219055175781 569.19482421875 512.6428833007812 569.3251342773438 517.5901489257812 572.5117797851562 C 529.9251098632812 570.1214599609375 533.918212890625 566.0849609375 536.112060546875 542.499755859375 C 533.2372436523438 534.2787475585938 512.0771484375 535.921875 503.4404296875 573.8098754882812" stroke-width="0.0" fill="rgb(14, 14, 12)" opacity="1.0"/>
    <path d="M 543.4110107421875 475.06060791015625 C 534.41455078125 471.6233215332031 528.0006103515625 470.8071594238281 528.9572143554688 458.16998291015625 C 525.3828735351562 457.2681884765625 526.1661987304688 458.8491516113281 522.2373657226562 460.5409240722656 C 522.0248413085938 470.5364074707031 517.7052612304688 485.6895751953125 519.5001831054688 499.5620422363281 C 553.1981811523438 495.4100341796875 549.6053466796875 490.4084777832031 543.4110107421875 475.06060791015625" stroke-width="0.0" fill="rgb(22, 23, 21)" opacity="0.9961417"/>
    <path d="M 219.30950927734375 569.1202392578125 C 250.25860595703125 572.3704833984375 246.59066772460938 580.5747680664062 245.52630615234375 598.548583984375 C 226.97650146484375 604.2830810546875 227.73776245117188 602.8084716796875 227.67457580566406 604.8819580078125 C 226.63287353515625 603.0602416992188 229.04701232910156 603.1517333984375 226.1004638671875 605.8916625976562 C 219.9438018798828 609.7117309570312 215.3981170654297 616.3555297851562 219.30950927734375 569.1202392578125" stroke-width="0.0" fill="rgb(19, 20, 18)" opacity="0.99885046"/>
    <path d="M 491.6007995605469 17.024642944335938 C 490.6894836425781 54.411128997802734 485.178466796875 40.85972595214844 459.9803161621094 42.19062805175781 C 437.8431701660156 39.185302734375 431.2619934082031 49.605106353759766 429.4301452636719 16.589128494262695 C 475.1965026855469 12.819174766540527 481.17626953125 16.075448989868164 472.47613525390625 23.73941993713379 C 451.9269104003906 34.82498550415039 445.7850341796875 35.92914581298828 491.6007995605469 17.024642944335938" stroke-width="0.0" fill="rgb(24, 24, 22)" opacity="1.0"/>
    <path d="M 332.24957275390625 -12.503087997436523 C 298.7912292480469 -3.309295415878296 299.1047058105469 -0.1661451756954193 297.57281494140625 35.1512451171875 C 307.629150390625 39.19414520263672 324.09881591796875 40.296852111816406 329.3282470703125 37.983863830566406 C 318.68121337890625 31.606178283691406 318.5354309082031 31.258460998535156 332.1329345703125 38.761653900146484 C 343.9656677246094 28.128568649291992 347.01043701171875 1.9341599941253662 332.24957275390625 -12.503087997436523" stroke-width="0.0" fill="rgb(14, 14, 12)" opacity="1.0"/>
    <path d="M 602.9818115234375 402.8575744628906 C 568.4295043945312 417.0421142578125 564.8907470703125 416.8190612792969 557.1621704101562 416.0406494140625 C 557.7203979492188 423.7341613769531 556.9022216796875 422.3982238769531 554.0213623046875 451.5753479003906 C 564.9059448242188 454.4192199707031 581.4662475585938 450.4876708984375 593.694580078125 442.352783203125 C 599.9638671875 424.32330322265625 605.7127075195312 415.4892272949219 602.9818115234375 402.8575744628906" stroke-width="0.0" fill="rgb(20, 21, 19)" opacity="1.0"/>
    <path d="M -5.300874710083008 -3.096759796142578 C 5.246198654174805 18.15079116821289 22.675846099853516 9.201687812805176 25.74222183227539 17.209537506103516 C 13.515634536743164 6.5691304206848145 5.770392417907715 2.5894527435302734 9.730667114257812 30.46091079711914 C 33.12385940551758 24.372774124145508 23.025287628173828 15.696504592895508 28.14151954650879 18.54252815246582 C 27.978975296020508 7.424687385559082 24.94336700439453 -7.759997367858887 -5.300874710083008 -3.096759796142578" stroke-width="0.0" fill="rgb(17, 17, 16)" opacity="1.0"/>
    <path d="M 471.5780944824219 41.60944747924805 C 500.3427734375 37.067291259765625 496.07232666015625 28.85535430908203 509.1271667480469 5.094236850738525 C 504.0764465332031 -7.5967230796813965 504.75848388671875 17.7812557220459 513.7802124023438 -0.24974988400936127 C 488.8038330078125 -10.864363670349121 478.7041015625 -9.759851455688477 462.9503173828125 -7.924681663513184 C 459.88360595703125 29.241947174072266 459.238525390625 33.626285552978516 471.5780944824219 41.60944747924805" stroke-width="0.0" fill="rgb(19, 19, 18)" opacity="1.0"/>
    <path d="M 562.809814453125 401.8429870605469 C 532.563232421875 405.70843505859375 535.3467407226562 411.38824462890625 544.6857299804688 431.84393310546875 C 539.2463989257812 433.65765380859375 536.667236328125 425.4805908203125 544.43115234375 417.896728515625 C 543.4014892578125 437.4555969238281 544.084228515625 439.2784729003906 554.0814819335938 437.3388366699219 C 554.5462036132812 430.9931640625 560.12255859375 433.9530944824219 562.809814453125 401.8429870605469" stroke-width="0.0" fill="rgb(18, 19, 17)" opacity="1.0"/>
    <path d="M 547.501953125 408.8427734375 C 580.3942260742188 408.2077331542969 586.70361328125 405.0623779296875 588.0260620117188 367.3665466308594 C 583.9027709960938 362.8774719238281 580.888916015625 361.4538879394531 578.6028442382812 361.503173828125 C 572.64892578125 373.440673828125 580.1204223632812 363.3068542480469 572.439697265625 351.55987548828125 C 536.960205078125 360.4270935058594 542.3346557617188 373.30120849609375 547.501953125 408.8427734375" stroke-width="0.0" fill="rgb(20, 21, 19)" opacity="0.9973076"/>
    <path d="M 64.19864654541016 10.299630165100098 C 68.16378784179688 -12.557109832763672 75.04106903076172 -9.564833641052246 81.43350982666016 -8.111936569213867 C 91.79092407226562 -3.135438919067383 94.60716247558594 -0.3341250717639923 94.43486785888672 -3.765442132949829 C 93.41962432861328 1.7068781852722168 94.52507781982422 6.440124988555908 93.5712890625 9.823029518127441 C 95.20526885986328 15.71391773223877 90.70661926269531 19.716007232666016 64.19864654541016 10.299630165100098" stroke-width="0.0" fill="rgb(19, 19, 17)" opacity="1.0"/>
    <path d="M 134.02163696289062 576.3739013671875 C 104.61353302001953 574.587890625 97.90198516845703 580.5213623046875 107.0956802368164 576.6626586914062 C 104.85183715820312 577.3700561523438 101.78646087646484 576.0006713867188 85.228515625 578.9047241210938 C 84.07256317138672 583.9954833984375 89.36177825927734 586.361572265625 109.5159683227539 596.6544799804688 C 120.82331848144531 598.0178833007812 126.68517303466797 602.7781372070312 134.02163696289062 576.3739013671875" stroke-width="0.0" fill="rgb(21, 21, 19)" opacity="1.0"/>
    <path d="M 4.5702595710754395 31.90174674987793 C -11.012319564819336 34.422786712646484 -13.794562339782715 12.190345764160156 1.3121403455734253 6.747091293334961 C 10.443336486816406 22.782283782958984 -1.0438716411590576 15.921128273010254 19.22970962524414 11.541800498962402 C 3.98740553855896 35.54121017456055 -9.523748397827148 33.112464904785156 40.725746154785156 33.146995544433594 C 34.642433166503906 2.119041681289673 19.789369583129883 3.0456864833831787 4.5702595710754395 31.90174674987793" stroke-width="0.0" fill="rgb(20, 20, 18)" opacity="0.9946672"/>
    <path d="M 608.5802612304688 407.7424621582031 C 609.7068481445312 422.7659912109375 610.058837890625 436.9480285644531 607.0424194335938 455.61968994140625 C 571.8023071289062 453.22271728515625 580.1983032226562 440.12677001953125 575.0613403320312 429.28448486328125 C 568.1378173828125 443.97149658203125 564.2117309570312 450.3751220703125 580.0036010742188 454.8900146484375 C 583.8683471679688 429.1498718261719 573.6043090820312 420.323974609375 608.5802612304688 407.7424621582031" stroke-width="0.0" fill="rgb(21, 22, 19)" opacity="0.9722679"/>
    <path d="M 71.83039093017578 15.454946517944336 C 73.11822509765625 26.11502456665039 84.0621566772461 29.72191619873047 93.35673522949219 21.91269302368164 C 83.40765380859375 10.340898513793945 77.6703872680664 13.27961540222168 78.6170425415039 15.20300579071045 C 82.20852661132812 16.61960792541504 88.97444915771484 17.960050582885742 88.90180206298828 11.02333927154541 C 77.46270751953125 8.889007568359375 79.40245056152344 7.64156436920166 71.83039093017578 15.454946517944336" stroke-width="0.0" fill="rgb(21, 22, 20)" opacity="0.99859315"/>
    <path d="M 523.656005859375 541.1981201171875 C 523.86376953125 525.4819946289062 527.1052856445312 523.8956909179688 532.6849365234375 523.8430786132812 C 538.5576782226562 526.2000122070312 544.021728515625 527.7854614257812 542.8705444335938 512.1892700195312 C 525.58203125 520.70849609375 529.7774047851562 526.5046997070312 549.3289184570312 526.8890991210938 C 545.4656372070312 541.078369140625 538.2932739257812 536.1478271484375 523.656005859375 541.1981201171875" stroke-width="0.0" fill="rgb(37, 38, 36)" opacity="0.91750205"/>
    <path d="M 534.7418823242188 437.7887268066406 C 531.1082763671875 467.6656494140625 527.6150512695312 485.2665710449219 530.9940795898438 500.93896484375 C 586.3728637695312 498.2572937011719 582.8743286132812 492.6609802246094 567.2096557617188 480.1384582519531 C 569.007568359375 466.6435546875 563.4745483398438 483.92755126953125 582.1117553710938 487.5862121582031 C 577.84716796875 445.5455322265625 577.9483032226562 442.6219177246094 534.7418823242188 437.7887268066406" stroke-width="0.0" fill="rgb(15, 16, 14)" opacity="1.0"/>
    <path d="M 24.6837158203125 21.81432342529297 C 28.74020004272461 -7.643309593200684 29.557985305786133 -10.058634757995605 68.47586059570312 -4.498979568481445 C 68.78086853027344 11.536042213439941 60.89167404174805 5.410994529724121 53.242313385009766 9.201414108276367 C 49.176307678222656 8.957080841064453 58.97226333618164 -5.222699165344238 72.06646728515625 15.114423751831055 C 63.836849212646484 36.490055084228516 47.813987731933594 36.96146011352539 24.6837158203125 21.81432342529297" stroke-width="0.0" fill="rgb(19, 20, 18)" opacity="1.0"/>
    <path d="M 413.82159423828125 37.95064163208008 C 432.4544677734375 36.95437240600586 435.5052185058594 34.5074462890625 432.3373107910156 35.05426788330078 C 434.6443176269531 32.34779357910156 442.15142822265625 36.61485290527344 443.22955322265625 26.06902503967285 C 428.77984619140625 19.677595138549805 431.0491943359375 19.659008026123047 418.911865234375 5.928695201873779 C 411.3192443847656 3.4700686931610107 413.34222412109375 9.868027687072754 413.82159423828125 37.95064163208008" stroke-width="0.0" fill="rgb(21, 21, 19)" opacity="0.9921182"/>
    <path d="M 567.3766479492188 440.6011657714844 C 589.4866943359375 440.22772216796875 596.5335083007812 445.7427673339844 611.3366088867188 468.15386962890625 C 607.83349609375 479.5219421386719 596.3623046875 483.30511474609375 562.98583984375 477.049072265625 C 562.9171752929688 488.17266845703125 574.8043212890625 488.8429870605469 606.1021118164062 474.13739013671875 C 607.2090454101562 489.2095947265625 590.1434326171875 486.36895751953125 567.3766479492188 440.6011657714844" stroke-width="0.0" fill="rgb(21, 22, 20)" opacity="1.0"/>
    <path d="M 540.3031005859375 373.11004638671875 C 536.2579956054688 375.5765686035156 538.8778686523438 377.714599609375 544.693603515625 384.6252746582031 C 547.2872924804688 378.7931823730469 545.8218994140625 374.60455322265625 538.1414794921875 371.0339660644531 C 537.5452880859375 380.2853698730469 541.8462524414062 378.19757080078125 550.002197265625 388.8954772949219 C 547.0929565429688 392.2943115234375 543.3739624023438 388.7161865234375 540.3031005859375 373.11004638671875" stroke-width="0.0" fill="rgb(27, 28, 26)" opacity="0.997945"/>
    <path d="M 271.60333251953125 36.00898742675781 C 262.36639404296875 33.56770706176758 262.93975830078125 37.359405517578125 261.9526062011719 15.860791206359863 C 281.4488830566406 11.31839370727539 275.1172180175781 15.426436424255371 265.37310791015625 33.18937301635742 C 281.369140625 37.77387237548828 288.4421691894531 40.23332595825195 293.71881103515625 23.872026443481445 C 277.1417236328125 12.612875938415527 276.23162841796875 18.022825241088867 271.60333251953125 36.00898742675781" stroke-width="0.0" fill="rgb(20, 20, 19)" opacity="1.0"/>
    <path d="M 537.03564453125 10.577263832092285 C 569.8717041015625 22.098379135131836 575.7832641601562 18.13469886779785 563.2525634765625 4.9181294441223145 C 552.1917114257812 35.87987518310547 562.7347412109375 39.15070724487305 559.3518676757812 43.27634811401367 C 544.0564575195312 44.34803009033203 539.0148315429688 43.84267044067383 521.900146484375 44.16493225097656 C 521.1002197265625 47.590206146240234 522.121337890625 23.11818504333496 537.03564453125 10.577263832092285" stroke-width="0.0" fill="rgb(10, 11, 9)" opacity="0.9997964"/>
    <path d="M 503.569091796875 42.50347900390625 C 509.7095031738281 -13.254175186157227 511.2090148925781 -14.210097312927246 572.7542724609375 -11.5880708694458 C 573.9210205078125 12.500185012817383 563.8053588867188 9.609246253967285 561.9882202148438 15.044076919555664 C 567.6538696289062 11.160802841186523 571.8255004882812 -10.178190231323242 578.97265625 1.6541376113891602 C 559.0575561523438 39.16177749633789 539.9846801757812 44.63510513305664 503.569091796875 42.50347900390625" stroke-width="0.0" fill="rgb(16, 16, 15)" opacity="0.9885325"/>
    <path d="M 499.2140197753906 563.5503540039062 C 507.9179992675781 568.0503540039062 503.1066589355469 575.757080078125 496.9488525390625 575.9508666992188 C 495.83843994140625 576.2396850585938 498.41400146484375 578.652099609375 497.2540588378906 578.2838745117188 C 488.0073547363281 580.2686767578125 489.82489013671875 573.6405029296875 492.2270202636719 564.7271118164062 C 485.032958984375 579.2003784179688 492.7821350097656 583.6565551757812 499.2140197753906 563.5503540039062" stroke-width="0.0" fill="rgb(26, 27, 25)" opacity="0.8356697"/>
    <path d="M 552.03857421875 309.2878112792969 C 541.172119140625 305.8513488769531 547.9078369140625 305.002197265625 544.427490234375 294.58502197265625 C 554.07373046875 259.924560546875 542.723876953125 242.92269897460938 576.0812377929688 238.73150634765625 C 576.5953979492188 274.8783874511719 562.0921630859375 278.2008056640625 569.8983154296875 255.5794219970703 C 572.7373657226562 265.3738098144531 570.390625 284.65472412109375 552.03857421875 309.2878112792969" stroke-width="0.0" fill="rgb(23, 24, 22)" opacity="1.0"/>
    <path d="M 310.9753112792969 595.9266967773438 C 342.54754638671875 600.6834106445312 348.4662170410156 602.1087646484375 349.346923828125 564.5894165039062 C 317.26953125 563.1712036132812 318.6026306152344 564.6944580078125 296.5806579589844 566.4204711914062 C 294.3104553222656 569.250732421875 296.5157775878906 584.7075805664062 303.4180603027344 585.3485717773438 C 325.9085998535156 585.6135864257812 311.7801208496094 590.1567993164062 310.9753112792969 595.9266967773438" stroke-width="0.0" fill="rgb(19, 19, 17)" opacity="0.99566233"/>
    <path d="M 604.5569458007812 522.83837890625 C 590.372314453125 513.427001953125 590.5143432617188 513.1260986328125 591.6536865234375 513.7373657226562 C 588.8112182617188 512.3546752929688 587.4883422851562 512.1394653320312 584.596923828125 515.5772705078125 C 582.9781494140625 521.4307250976562 579.9655151367188 525.0914306640625 592.0699462890625 540.6978759765625 C 609.9424438476562 541.2722778320312 611.0145263671875 536.3927612304688 604.5569458007812 522.83837890625" stroke-width="0.0" fill="rgb(19, 20, 18)" opacity="1.0"/>
    <path d="M 286.5096435546875 32.96366882324219 C 290.3207702636719 14.137263298034668 299.23187255859375 23.933046340942383 321.12823486328125 11.51427936553955 C 320.2786560058594 -7.1026482582092285 318.19891357421875 -8.224671363830566 288.5479431152344 -4.3910017013549805 C 284.923095703125 26.891952514648438 289.43511962890625 18.5201416015625 325.4564514160156 20.682655334472656 C 328.3219299316406 39.59669494628906 322.6580505371094 38.98288345336914 286.5096435546875 32.96366882324219" stroke-width="0.0" fill="rgb(27, 27, 26)" opacity="0.89216745"/>
    <path d="M 529.0573120117188 402.3996276855469 C 548.7479248046875 389.8497314453125 549.16162109375 386.2635498046875 562.8843994140625 387.261962890625 C 560.7445068359375 414.2904052734375 558.991943359375 415.0159606933594 529.8890991210938 402.80975341796875 C 532.10595703125 397.10052490234375 530.427978515625 403.69427490234375 527.1642456054688 428.6590270996094 C 565.6262817382812 420.62799072265625 551.35009765625 410.98779296875 529.0573120117188 402.3996276855469" stroke-width="0.0" fill="rgb(14, 15, 13)" opacity="0.9333548"/>
    <path d="M 562.285400390625 315.4658203125 C 588.1980590820312 317.0671691894531 592.848388671875 315.4450378417969 595.561279296875 296.5900573730469 C 574.9561157226562 292.7109375 565.8389892578125 304.7456359863281 569.6190185546875 268.644287109375 C 599.9826049804688 267.09722900390625 598.3660278320312 273.2178649902344 592.9723510742188 299.2923278808594 C 575.1474609375 300.01593017578125 566.5732421875 287.06353759765625 562.285400390625 315.4658203125" stroke-width="0.0" fill="rgb(19, 19, 17)" opacity="1.0"/>
    <path d="M 104.18219757080078 596.2684326171875 C 91.40506744384766 573.038330078125 81.51290130615234 576.6248168945312 85.81302642822266 581.2837524414062 C 84.83491516113281 580.4105834960938 87.40242004394531 583.4421997070312 94.42598724365234 594.1202392578125 C 91.33222198486328 585.7640991210938 87.87004852294922 579.4486694335938 85.5039291381836 580.7626953125 C 83.66785430908203 606.0753784179688 85.02920532226562 610.0698852539062 104.18219757080078 596.2684326171875" stroke-width="0.0" fill="rgb(16, 16, 15)" opacity="0.9693844"/>
    <path d="M 551.5617065429688 326.5999755859375 C 545.65869140625 326.1000061035156 543.0999145507812 317.1712646484375 577.536376953125 315.5006103515625 C 577.99365234375 348.2031555175781 573.5076293945312 346.49560546875 569.0875854492188 344.9472961425781 C 553.684814453125 348.3479919433594 544.38916015625 348.50341796875 539.8197021484375 350.0246887207031 C 538.9559326171875 331.29876708984375 539.6172485351562 325.72613525390625 551.5617065429688 326.5999755859375" stroke-width="0.0" fill="rgb(20, 21, 19)" opacity="1.0"/>
    <path d="M 314.52545166015625 592.5814208984375 C 312.64215087890625 565.3724365234375 303.6408996582031 575.6812133789062 282.010009765625 583.400146484375 C 290.3905334472656 571.4218139648438 289.3136291503906 568.945556640625 316.2371826171875 569.871826171875 C 309.5653076171875 585.0719604492188 283.9394836425781 570.6321411132812 263.7748107910156 599.6466674804688 C 270.57159423828125 607.6536254882812 283.5523376464844 604.8610229492188 314.52545166015625 592.5814208984375" stroke-width="0.0" fill="rgb(20, 21, 19)" opacity="1.0"/>
    <path d="M 541.7385864257812 481.1940612792969 C 524.8988037109375 530.1838989257812 517.221923828125 521.2974243164062 518.0469360351562 503.9967956542969 C 518.3502197265625 493.24700927734375 518.18798828125 492.6601867675781 518.470703125 497.7991638183594 C 517.8405151367188 500.7845153808594 517.5678100585938 498.21453857421875 517.558349609375 499.58367919921875 C 519.9020385742188 492.6480712890625 513.7554321289062 478.30841064453125 541.7385864257812 481.1940612792969" stroke-width="0.0" fill="rgb(22, 22, 21)" opacity="0.9823786"/>
    <path d="M 16.909347534179688 16.707426071166992 C 26.1390438079834 6.710169315338135 24.46278953552246 4.630796432495117 24.44495964050293 3.0234484672546387 C 23.785734176635742 5.259232044219971 25.561582565307617 5.026216983795166 29.08138084411621 -4.921534061431885 C 25.24433708190918 -5.782543182373047 25.859718322753906 -5.739514350891113 10.673900604248047 -9.949078559875488 C 6.64779806137085 2.213266372680664 9.914886474609375 11.163618087768555 16.909347534179688 16.707426071166992" stroke-width="0.0" fill="rgb(18, 19, 17)" opacity="1.0"/>
    <path d="M 553.0055541992188 597.396484375 C 556.5223999023438 589.7783203125 559.13037109375 603.9210815429688 573.0769653320312 611.9296875 C 601.6544799804688 610.7911987304688 604.0818481445312 611.1351318359375 603.4614868164062 582.0863647460938 C 560.3795166015625 580.8902587890625 571.806396484375 583.0137329101562 553.1759033203125 581.0767211914062 C 554.7381591796875 600.6307373046875 577.2268676757812 602.316650390625 553.0055541992188 597.396484375" stroke-width="0.0" fill="rgb(20, 21, 19)" opacity="1.0"/>
    <path d="M 456.4079895019531 575.7784423828125 C 497.62933349609375 576.3466796875 502.2989501953125 580.7103881835938 503.4769287109375 600.90234375 C 486.5556945800781 603.2964477539062 490.7807922363281 600.1739501953125 489.10955810546875 601.5250854492188 C 485.9490051269531 602.4614868164062 486.014892578125 601.9152221679688 473.9217834472656 606.2089233398438 C 459.3624267578125 611.0311889648438 453.4275817871094 610.3917846679688 456.4079895019531 575.7784423828125" stroke-width="0.0" fill="rgb(21, 21, 20)" opacity="1.0"/>
    <path d="M 546.8279418945312 400.4220886230469 C 525.5792846679688 403.6953125 529.3677368164062 410.9170837402344 530.0137329101562 417.5423889160156 C 525.998291015625 426.714599609375 525.481201171875 442.49853515625 525.4619750976562 453.899169921875 C 547.144775390625 450.09344482421875 554.4879150390625 446.3033752441406 556.887451171875 433.04046630859375 C 551.4539184570312 422.6006164550781 552.5507202148438 422.2217102050781 546.8279418945312 400.4220886230469" stroke-width="0.0" fill="rgb(13, 13, 12)" opacity="0.9879287"/>
    <path d="M 509.1067199707031 573.6513061523438 C 511.7111511230469 579.8644409179688 508.5068054199219 584.9682006835938 501.1913757324219 585.606201171875 C 494.61126708984375 575.3887329101562 493.83624267578125 571.318603515625 498.3809509277344 559.7021484375 C 509.5318298339844 553.1524047851562 514.6214599609375 548.444091796875 528.2750854492188 555.6746215820312 C 518.870849609375 586.476806640625 511.6772155761719 579.5707397460938 509.1067199707031 573.6513061523438" stroke-width="0.0" fill="rgb(23, 24, 22)" opacity="0.9166365"/>
    <path d="M 485.52593994140625 24.605348587036133 C 480.059326171875 32.82035827636719 459.584716796875 31.323867797851562 443.2850646972656 25.239229202270508 C 447.00286865234375 -11.9038724899292 450.64385986328125 -11.180586814880371 484.59906005859375 -6.101279258728027 C 484.52398681640625 16.894556045532227 481.9715881347656 19.557186126708984 471.79766845703125 11.04180908203125 C 464.9067687988281 4.48438024520874 465.095703125 5.074453830718994 485.52593994140625 24.605348587036133" stroke-width="0.0" fill="rgb(20, 20, 19)" opacity="1.0"/>
    <path d="M 18.096899032592773 26.009817123413086 C 11.201262474060059 22.349306106567383 13.967436790466309 19.99361801147461 37.040863037109375 20.169994354248047 C 38.43214416503906 1.035642147064209 37.25543212890625 -3.572662353515625 33.54079818725586 -8.158238410949707 C 20.34140396118164 4.494694232940674 23.652942657470703 4.848998069763184 23.458498001098633 5.801995277404785 C 17.82282257080078 6.25564432144165 13.630495071411133 10.759481430053711 18.096899032592773 26.009817123413086" stroke-width="0.0" fill="rgb(20, 20, 18)" opacity="0.97572327"/>
    <path d="M 295.0423889160156 576.3208618164062 C 287.28173828125 577.0982055664062 289.90911865234375 577.8065185546875 281.14044189453125 595.0134887695312 C 268.8879089355469 595.744384765625 267.3941650390625 597.0980224609375 253.30743408203125 590.1572875976562 C 257.6185607910156 559.3109741210938 267.6758117675781 569.046142578125 280.4649353027344 566.6319580078125 C 291.7031555175781 565.0542602539062 297.84423828125 565.1920166015625 295.0423889160156 576.3208618164062" stroke-width="0.0" fill="rgb(22, 22, 20)" opacity="1.0"/>
    <path d="M 591.8750610351562 479.1047668457031 C 592.1183471679688 439.40838623046875 566.8759765625 447.7898254394531 564.7106323242188 430.995849609375 C 595.470703125 438.3983459472656 588.1995239257812 452.16009521484375 566.3598022460938 440.5951232910156 C 569.915283203125 445.8399658203125 578.982421875 436.29669189453125 548.75537109375 433.5923156738281 C 549.0317993164062 475.262451171875 554.36865234375 481.33416748046875 591.8750610351562 479.1047668457031" stroke-width="0.0" fill="rgb(21, 21, 19)" opacity="1.0"/>
    <path d="M 570.3833618164062 477.3990173339844 C 513.0486450195312 481.2106018066406 520.3984985351562 488.9468994140625 521.3845825195312 519.7605590820312 C 530.7601318359375 519.8250122070312 535.2081909179688 525.4024047851562 518.2532348632812 525.76708984375 C 524.0686645507812 512.2838134765625 528.5225219726562 520.5645141601562 531.1083984375 531.0316772460938 C 565.0438842773438 530.872802734375 572.0729370117188 527.1376342773438 570.3833618164062 477.3990173339844" stroke-width="0.0" fill="rgb(20, 21, 19)" opacity="0.98868465"/>
    <path d="M 587.947998046875 293.1504821777344 C 588.9390258789062 314.980712890625 594.9931030273438 320.79278564453125 608.3355102539062 316.43585205078125 C 594.9664916992188 294.93988037109375 594.646728515625 297.8982238769531 592.5089721679688 295.901123046875 C 594.6776733398438 298.17706298828125 593.5774536132812 300.0295715332031 606.172119140625 305.17523193359375 C 609.4674072265625 286.6046142578125 602.9083251953125 282.7407531738281 587.947998046875 293.1504821777344" stroke-width="0.0" fill="rgb(2, 3, 1)" opacity="1.0"/>
    <path d="M 252.4542694091797 19.386566162109375 C 253.99757385253906 34.24005126953125 254.90733337402344 40.31694793701172 254.64442443847656 37.72126007080078 C 236.26429748535156 38.87248992919922 235.0998077392578 35.1334228515625 214.36656188964844 37.90054702758789 C 218.6997833251953 35.55081558227539 216.79844665527344 43.12470626831055 214.0296173095703 21.623239517211914 C 236.71646118164062 15.247438430786133 242.8868865966797 14.804218292236328 252.4542694091797 19.386566162109375" stroke-width="0.0" fill="rgb(21, 22, 20)" opacity="1.0"/>
    <path d="M 341.0317077636719 -3.7581686973571777 C 322.7821350097656 -7.183595180511475 316.4879150390625 3.251453161239624 324.4405517578125 13.260581016540527 C 322.11004638671875 11.493000984191895 321.09600830078125 5.299314975738525 305.52496337890625 8.813746452331543 C 299.5457763671875 -2.68034291267395 299.1825256347656 -9.194646835327148 317.6362609863281 -11.489640235900879 C 326.1465759277344 9.815606117248535 322.02392578125 15.525832176208496 341.0317077636719 -3.7581686973571777" stroke-width="0.0" fill="rgb(15, 15, 13)" opacity="0.9997352"/>
    <path d="M 214.1148681640625 23.0696964263916 C 170.01112365722656 16.319368362426758 160.71932983398438 -14.24559497833252 156.5952606201172 -2.023761510848999 C 173.92332458496094 24.434297561645508 165.1145477294922 7.951767444610596 163.94947814941406 -7.499886512756348 C 188.82264709472656 0.5081130862236023 177.48495483398438 2.4337499141693115 191.17640686035156 -12.411355018615723 C 215.7193603515625 -13.18043041229248 218.72666931152344 -7.76349401473999 214.1148681640625 23.0696964263916" stroke-width="0.0" fill="rgb(21, 22, 20)" opacity="0.9672664"/>
    <path d="M 610.6669921875 573.189697265625 C 608.2612915039062 548.5613403320312 606.6312866210938 539.1215209960938 598.1109619140625 543.5324096679688 C 564.070068359375 556.6254272460938 558.5213623046875 558.4859619140625 556.2472534179688 579.7843627929688 C 567.1984252929688 582.05712890625 565.845703125 582.3480224609375 586.7823486328125 585.3794555664062 C 591.9605102539062 580.4541015625 593.6167602539062 584.181396484375 610.6669921875 573.189697265625" stroke-width="0.0" fill="rgb(21, 22, 20)" opacity="0.9637599"/>
    <path d="M 412.9798278808594 39.695735931396484 C 412.9725646972656 15.3960542678833 421.7817077636719 19.469738006591797 430.1023864746094 22.77158546447754 C 434.207763671875 23.39965057373047 439.12152099609375 22.503849029541016 452.57171630859375 36.8773193359375 C 445.5663757324219 45.532840728759766 447.3411865234375 26.844329833984375 452.7521667480469 41.788002014160156 C 431.668701171875 42.134971618652344 414.05615234375 42.69081115722656 412.9798278808594 39.695735931396484" stroke-width="0.0" fill="rgb(11, 11, 9)" opacity="0.96598494"/>
    <path d="M 551.5756225585938 531.372802734375 C 546.264892578125 523.2349243164062 561.6516723632812 520.56787109375 587.83251953125 526.2369995117188 C 580.4125366210938 565.2927856445312 565.0274658203125 566.5966796875 552.5946044921875 529.4180297851562 C 541.3971557617188 534.0982666015625 541.6348876953125 533.918212890625 536.458251953125 575.3839111328125 C 570.4589233398438 577.927734375 574.9739379882812 572.1985473632812 551.5756225585938 531.372802734375" stroke-width="0.0" fill="rgb(20, 20, 19)" opacity="0.9995499"/>
    <path d="M 552.4058227539062 293.33355712890625 C 566.6781005859375 296.4420166015625 569.3563232421875 294.0506896972656 552.9539794921875 248.59765625 C 575.7265014648438 244.5513153076172 589.4295654296875 244.84280395507812 602.524658203125 246.90042114257812 C 580.5824584960938 294.9551086425781 564.6602783203125 292.7589111328125 557.621337890625 287.9488525390625 C 556.8436889648438 275.0466003417969 553.7977294921875 279.4314270019531 552.4058227539062 293.33355712890625" stroke-width="0.0" fill="rgb(19, 20, 18)" opacity="1.0"/>
    <path d="M 556.5045166015625 420.2267150878906 C 560.5889282226562 404.01739501953125 563.3134155273438 402.28619384765625 592.6497802734375 401.01849365234375 C 587.9618530273438 426.856201171875 584.5093994140625 424.4403076171875 579.4154052734375 425.0749816894531 C 571.2484130859375 420.0092468261719 569.5880737304688 427.5082092285156 575.285400390625 427.7756042480469 C 577.7637939453125 425.3782043457031 572.726318359375 427.7231750488281 556.5045166015625 420.2267150878906" stroke-width="0.0" fill="rgb(20, 21, 19)" opacity="1.0"/>
    <path d="M 562.9420166015625 530.6446533203125 C 558.6028442382812 571.2625122070312 557.9420166015625 566.7217407226562 559.1323852539062 586.5704345703125 C 517.4032592773438 588.656982421875 511.89697265625 586.8350219726562 506.9915466308594 577.4456787109375 C 517.2067260742188 541.8330078125 519.04736328125 558.9649658203125 523.8881225585938 538.186767578125 C 521.1978149414062 531.7333374023438 540.1460571289062 528.208740234375 562.9420166015625 530.6446533203125" stroke-width="0.0" fill="rgb(22, 23, 21)" opacity="1.0"/>
    <path d="M 333.4532775878906 15.294229507446289 C 325.0322570800781 7.098396301269531 316.80609130859375 8.754118919372559 312.95751953125 38.53111267089844 C 359.89202880859375 41.123077392578125 355.6642150878906 41.29713821411133 356.1240234375 16.863229751586914 C 337.87005615234375 2.5790677070617676 331.50494384765625 4.726231575012207 325.2117919921875 10.040733337402344 C 337.31396484375 17.345870971679688 339.24273681640625 14.157295227050781 333.4532775878906 15.294229507446289" stroke-width="0.0" fill="rgb(18, 19, 17)" opacity="0.9273029"/>
    <path d="M 49.64897155761719 -8.060648918151855 C 56.21200180053711 27.48751449584961 67.87952423095703 23.05559539794922 78.33061981201172 26.42627716064453 C 88.2856674194336 19.33298683166504 93.7256851196289 8.753262519836426 67.74561309814453 -10.730819702148438 C 68.00923156738281 5.51747465133667 85.93838500976562 10.698049545288086 82.97870635986328 11.317713737487793 C 78.54808807373047 -6.134606838226318 74.14573669433594 -8.92254638671875 49.64897155761719 -8.060648918151855" stroke-width="0.0" fill="rgb(20, 20, 18)" opacity="1.0"/>
    <path d="M 576.8440551757812 406.3285217285156 C 574.0474243164062 432.4918212890625 575.5267944335938 415.7560729980469 577.0798950195312 450.9770812988281 C 550.1212158203125 446.4605407714844 551.5708618164062 443.5202331542969 541.4700927734375 439.49310302734375 C 548.6825561523438 428.11376953125 548.7158813476562 432.19927978515625 547.8991088867188 426.7256774902344 C 549.418701171875 420.4524841308594 543.7197265625 410.76129150390625 576.8440551757812 406.3285217285156" stroke-width="0.0" fill="rgb(20, 21, 19)" opacity="1.0"/>
    <path d="M 520.3922119140625 543.7310180664062 C 516.1460571289062 511.8539123535156 515.1663818359375 504.26068115234375 531.4345703125 506.0701904296875 C 538.7809448242188 516.6719970703125 533.81591796875 520.4656982421875 535.1173095703125 512.7282104492188 C 540.125244140625 522.1927490234375 538.933837890625 526.394287109375 542.7437744140625 549.0426635742188 C 527.0900268554688 551.5800170898438 518.018310546875 553.3677368164062 520.3922119140625 543.7310180664062" stroke-width="0.0" fill="rgb(14, 14, 12)" opacity="0.9113778"/>
    <path d="M 535.6912231445312 583.3403930664062 C 537.98095703125 555.9928588867188 542.9927368164062 552.9660034179688 577.1959838867188 556.5018310546875 C 581.4105224609375 591.7579345703125 580.4864501953125 598.17041015625 542.5738525390625 600.6747436523438 C 536.6911010742188 580.096435546875 541.5045166015625 579.7299194335938 549.8812866210938 586.55322265625 C 560.7968139648438 581.14404296875 563.1491088867188 583.4801635742188 535.6912231445312 583.3403930664062" stroke-width="0.0" fill="rgb(21, 22, 20)" opacity="0.99252075"/>
    <path d="M 301.1436767578125 -6.845271587371826 C 291.9786071777344 10.863068580627441 290.5807800292969 11.73666763305664 289.0622253417969 16.43329429626465 C 284.56201171875 17.229236602783203 281.6651916503906 23.384170532226562 260.739990234375 30.38888168334961 C 257.9161682128906 23.552532196044922 252.8361358642578 16.868886947631836 254.29270935058594 -11.983202934265137 C 291.7204895019531 -7.187801837921143 288.03240966796875 -6.2148895263671875 301.1436767578125 -6.845271587371826" stroke-width="0.0" fill="rgb(19, 20, 18)" opacity="1.0"/>
    <path d="M 274.8550720214844 588.4683837890625 C 240.29867553710938 582.5267944335938 253.91070556640625 572.3765258789062 262.4653625488281 572.4856567382812 C 262.4065246582031 568.5236206054688 259.9486083984375 566.04150390625 256.3536376953125 563.536865234375 C 257.6607971191406 563.6950073242188 255.9451904296875 562.8217163085938 257.1813049316406 563.460693359375 C 252.4720001220703 563.5112915039062 258.15240478515625 557.9452514648438 274.8550720214844 588.4683837890625" stroke-width="0.0" fill="rgb(12, 12, 10)" opacity="0.8737929"/>
    <path d="M 318.33837890625 18.832801818847656 C 320.9921875 -10.78867244720459 324.61669921875 -10.092303276062012 347.8836669921875 -12.487767219543457 C 357.2674865722656 1.4242351055145264 359.8003845214844 4.330393314361572 353.14520263671875 -7.523238658905029 C 354.2637634277344 -0.7039881944656372 357.6935119628906 -2.6823580265045166 355.3296813964844 18.47206687927246 C 336.0933837890625 20.204177856445312 331.4598388671875 24.67115592956543 318.33837890625 18.832801818847656" stroke-width="0.0" fill="rgb(17, 18, 16)" opacity="0.9951222"/>
    <path d="M 579.2439575195312 43.241390228271484 C 550.82080078125 35.97990417480469 544.9207153320312 39.08793640136719 571.4799194335938 -1.6218440532684326 C 593.49462890625 -1.5071139335632324 593.0706176757812 5.063380241394043 591.8362426757812 46.23536682128906 C 547.38623046875 35.087589263916016 539.2018432617188 33.382728576660156 538.9207153320312 42.077545166015625 C 575.9187622070312 47.17447280883789 586.0614013671875 44.356414794921875 579.2439575195312 43.241390228271484" stroke-width="0.0" fill="rgb(19, 20, 18)" opacity="1.0"/>
    <path d="M 609.685791015625 508.0055847167969 C 577.6146850585938 500.8995056152344 585.3125610351562 509.9044494628906 603.9138793945312 504.6982727050781 C 565.675537109375 506.7602233886719 561.4655151367188 507.4533996582031 562.2764282226562 467.5348815917969 C 590.7066650390625 478.1004943847656 579.2262573242188 484.0425109863281 579.6452026367188 461.9129638671875 C 617.17724609375 465.0234680175781 615.158447265625 478.1221008300781 609.685791015625 508.0055847167969" stroke-width="0.0" fill="rgb(19, 19, 18)" opacity="1.0"/>
    <path d="M 540.2708740234375 338.4012451171875 C 554.7810668945312 354.5101318359375 560.7301635742188 357.1172180175781 574.29150390625 345.03045654296875 C 569.7171630859375 326.4706115722656 558.4160766601562 332.55908203125 550.8641967773438 337.1590576171875 C 550.3676147460938 338.9267883300781 548.5048828125 335.7140808105469 557.0021362304688 341.2670593261719 C 557.7045288085938 336.2906494140625 548.7349243164062 332.5773010253906 540.2708740234375 338.4012451171875" stroke-width="0.0" fill="rgb(21, 21, 20)" opacity="0.9883257"/>
    <path d="M 612.8434448242188 349.43853759765625 C 609.2042846679688 389.15716552734375 603.0654296875 391.2567138671875 591.183349609375 388.9259033203125 C 598.3143920898438 388.2887268066406 593.0026245117188 389.0860595703125 566.4910278320312 388.4109191894531 C 569.0445556640625 353.0909423828125 573.8397216796875 360.6227722167969 573.1914672851562 360.0608825683594 C 578.1818237304688 347.59375 591.0934448242188 345.46649169921875 612.8434448242188 349.43853759765625" stroke-width="0.0" fill="rgb(20, 20, 18)" opacity="1.0"/>
    <path d="M 274.3358459472656 10.683287620544434 C 299.58001708984375 11.50684642791748 300.189208984375 14.398270606994629 316.0426025390625 33.785682678222656 C 314.48883056640625 42.806339263916016 308.3858947753906 37.96951675415039 285.080322265625 38.81480407714844 C 272.5308837890625 30.175506591796875 272.2767333984375 28.441429138183594 270.39654541015625 21.58074378967285 C 272.9453125 21.082406997680664 272.9907531738281 21.85538101196289 274.3358459472656 10.683287620544434" stroke-width="0.0" fill="rgb(16, 16, 15)" opacity="0.9333236"/>
    <path d="M 554.9660034179688 385.42724609375 C 531.5444946289062 401.79107666015625 541.8296508789062 394.50140380859375 545.9273071289062 389.2354736328125 C 537.521728515625 390.6136474609375 538.1361694335938 393.4984436035156 539.0984497070312 391.6620788574219 C 541.2849731445312 391.24652099609375 540.5245361328125 389.52886962890625 540.496826171875 390.6804504394531 C 538.2269287109375 393.2901306152344 545.4107055664062 388.1493225097656 554.9660034179688 385.42724609375" stroke-width="0.0" fill="rgb(18, 19, 17)" opacity="0.8069911"/>
    <path d="M 578.9293212890625 303.1038513183594 C 577.8169555664062 290.3335876464844 570.2033081054688 270.79833984375 600.3832397460938 256.54168701171875 C 614.1515502929688 263.7819519042969 608.161865234375 271.0433349609375 610.012939453125 277.6415710449219 C 608.7936401367188 319.0329895019531 618.435302734375 328.2848205566406 592.2640991210938 331.68994140625 C 575.4714965820312 307.7536926269531 579.24365234375 303.5885314941406 578.9293212890625 303.1038513183594" stroke-width="0.0" fill="rgb(22, 23, 21)" opacity="1.0"/>
    <path d="M 536.5582275390625 379.3211975097656 C 539.3194580078125 382.8288879394531 537.1425170898438 371.5863037109375 538.4403076171875 348.2452087402344 C 558.2752685546875 350.2691345214844 562.5872192382812 352.23291015625 567.533447265625 355.44989013671875 C 562.1838989257812 369.1930236816406 561.484375 376.4036865234375 557.3218994140625 394.3970031738281 C 544.1607055664062 394.0823974609375 546.3988647460938 387.4179992675781 536.5582275390625 379.3211975097656" stroke-width="0.0" fill="rgb(19, 20, 18)" opacity="0.99705935"/>
    <path d="M 598.0467529296875 429.0789489746094 C 612.7892456054688 431.4894104003906 612.7263793945312 444.9769287109375 608.045166015625 468.9823303222656 C 588.0335083007812 454.75 591.0722045898438 450.2236022949219 592.5977172851562 438.69952392578125 C 588.2724609375 434.462158203125 575.1202392578125 432.016845703125 570.0307006835938 438.89227294921875 C 586.565673828125 461.1844177246094 591.637939453125 461.366455078125 598.0467529296875 429.0789489746094" stroke-width="0.0" fill="rgb(18, 18, 16)" opacity="1.0"/>
    <path d="M 329.8330078125 605.848876953125 C 361.9565124511719 598.7623291015625 347.844482421875 598.2869873046875 360.7124938964844 593.2055053710938 C 368.8240661621094 582.7369384765625 374.864990234375 609.643310546875 344.60687255859375 604.2879028320312 C 376.66632080078125 583.2784423828125 375.30633544921875 578.4483032226562 347.03656005859375 564.267822265625 C 330.3260498046875 563.4181518554688 325.4019470214844 568.8914794921875 329.8330078125 605.848876953125" stroke-width="0.0" fill="rgb(23, 23, 22)" opacity="1.0"/>
    <path d="M 557.6595458984375 334.33758544921875 C 542.4176025390625 335.7363586425781 542.7928466796875 337.798583984375 540.65234375 337.3514404296875 C 538.7593994140625 318.1251220703125 545.6728515625 327.5694274902344 564.1244506835938 308.45892333984375 C 541.7952880859375 303.8822326660156 544.4065551757812 310.3003845214844 546.9075927734375 326.55926513671875 C 558.4117431640625 320.60455322265625 561.066650390625 321.9244689941406 557.6595458984375 334.33758544921875" stroke-width="0.0" fill="rgb(18, 19, 17)" opacity="0.8392157"/>
    <path d="M 285.2051086425781 20.118938446044922 C 299.0465393066406 24.773042678833008 306.46356201171875 25.65530776977539 318.9661560058594 -5.940225124359131 C 306.1972351074219 -11.429747581481934 297.0298156738281 -7.895317077636719 283.2967529296875 -1.4907703399658203 C 279.5474853515625 -5.001058101654053 284.7181091308594 -8.263306617736816 294.5730285644531 -8.825441360473633 C 295.8181457519531 -2.257291793823242 295.02984619140625 0.6057878732681274 285.2051086425781 20.118938446044922" stroke-width="0.0" fill="rgb(19, 19, 18)" opacity="1.0"/>
    <path d="M 561.9568481445312 370.08990478515625 C 544.630126953125 369.1551208496094 544.9368896484375 368.3867492675781 539.6561889648438 368.88519287109375 C 537.2361450195312 353.3797302246094 537.4439086914062 351.42779541015625 539.251953125 337.6427917480469 C 547.4694213867188 340.1902770996094 549.5307006835938 342.5523681640625 560.3056030273438 343.6517333984375 C 562.8768310546875 351.9642639160156 565.1444091796875 357.20745849609375 561.9568481445312 370.08990478515625" stroke-width="0.0" fill="rgb(20, 21, 19)" opacity="0.9716407"/>
    <path d="M 439.13397216796875 31.700170516967773 C 446.8554382324219 39.16400146484375 432.7811584472656 41.61419677734375 426.4816589355469 32.38832092285156 C 448.8387145996094 38.21535110473633 453.5655212402344 39.55881118774414 451.9014892578125 15.18356704711914 C 432.3415832519531 22.371585845947266 417.8334045410156 36.437564849853516 410.5211486816406 -5.065176963806152 C 424.6752624511719 -9.999139785766602 440.79443359375 3.657007932662964 439.13397216796875 31.700170516967773" stroke-width="0.0" fill="rgb(13, 14, 12)" opacity="0.9008959"/>
    <path d="M 102.41817474365234 591.1425170898438 C 102.28201293945312 583.6827392578125 108.66883087158203 578.0331420898438 111.80291748046875 596.7839965820312 C 88.79078674316406 598.8419189453125 85.05145263671875 597.259521484375 86.8024673461914 588.4057006835938 C 90.88220977783203 577.3609008789062 93.225341796875 577.319091796875 97.9066162109375 579.1143188476562 C 100.58744812011719 579.95849609375 105.04601287841797 580.0030517578125 102.41817474365234 591.1425170898438" stroke-width="0.0" fill="rgb(22, 22, 20)" opacity="1.0"/>
    <path d="M 302.7555236816406 565.0270385742188 C 320.590087890625 576.9808959960938 302.9431457519531 568.9393310546875 291.6131591796875 574.63232421875 C 299.3176574707031 599.494140625 310.8948059082031 574.907470703125 346.59344482421875 603.5983276367188 C 326.14990234375 618.9397583007812 304.1958312988281 606.396728515625 327.05975341796875 583.5555419921875 C 303.46612548828125 572.0792846679688 294.04998779296875 575.5361938476562 302.7555236816406 565.0270385742188" stroke-width="0.0" fill="rgb(23, 23, 22)" opacity="0.9997908"/>
    <path d="M 240.64190673828125 27.5405216217041 C 246.29090881347656 41.79197692871094 255.80467224121094 37.0001220703125 282.3907775878906 38.11042404174805 C 281.96844482421875 14.683783531188965 284.09649658203125 8.623980522155762 258.5909423828125 7.538580417633057 C 252.88255310058594 31.897008895874023 261.2573547363281 34.38471984863281 261.73779296875 41.11478805541992 C 261.3925476074219 37.68808364868164 257.5726013183594 25.78724479675293 240.64190673828125 27.5405216217041" stroke-width="0.0" fill="rgb(19, 20, 18)" opacity="0.9900356"/>
    <path d="M 409.7895812988281 -10.710633277893066 C 454.0606384277344 -6.464447021484375 452.2376708984375 4.284026622772217 443.5028076171875 1.2160484790802002 C 443.7131652832031 12.051614761352539 449.0782165527344 16.658109664916992 443.8714599609375 31.609655380249023 C 427.0992431640625 27.21564483642578 427.06597900390625 19.479673385620117 434.3974609375 10.732438087463379 C 429.2507019042969 13.489033699035645 416.9275817871094 27.088777542114258 409.7895812988281 -10.710633277893066" stroke-width="0.0" fill="rgb(21, 22, 20)" opacity="1.0"/>
    <path d="M 554.1431274414062 431.8719787597656 C 519.2959594726562 431.6315002441406 528.784912109375 438.1526794433594 524.1923217773438 446.7724609375 C 522.0936889648438 464.2475891113281 522.5697021484375 468.663330078125 525.0335083007812 464.2004089355469 C 522.1957397460938 463.1075744628906 521.4912719726562 467.8822021484375 540.0574951171875 485.0430908203125 C 553.958984375 486.033935546875 555.5203247070312 484.61798095703125 554.1431274414062 431.8719787597656" stroke-width="0.0" fill="rgb(20, 21, 19)" opacity="1.0"/>
    <path d="M 287.13775634765625 600.0623779296875 C 278.8766174316406 566.4382934570312 268.8597717285156 567.659423828125 223.2662811279297 573.4151611328125 C 226.5971221923828 608.8375244140625 231.27352905273438 590.9967041015625 226.0705108642578 598.3972778320312 C 237.30068969726562 607.8800659179688 238.1687469482422 604.0855712890625 243.02024841308594 604.2152709960938 C 254.19891357421875 605.367919921875 269.58563232421875 621.0582885742188 287.13775634765625 600.0623779296875" stroke-width="0.0" fill="rgb(21, 21, 20)" opacity="0.9862141"/>
    <path d="M 176.58926391601562 35.65207290649414 C 183.64585876464844 7.0982866287231445 189.67669677734375 8.401349067687988 207.90167236328125 3.5236358642578125 C 206.8343048095703 5.862178802490234 195.38839721679688 -0.7595297694206238 223.5137176513672 -1.7986663579940796 C 218.29417419433594 30.75788116455078 209.42015075683594 28.647092819213867 217.97891235351562 28.00370979309082 C 218.96652221679688 36.867919921875 209.8543701171875 38.214515686035156 176.58926391601562 35.65207290649414" stroke-width="0.0" fill="rgb(22, 23, 22)" opacity="0.97689843"/>
  </g>
</svg>
