<?xml version="1.0" ?>
<svg xmlns="http://www.w3.org/2000/svg" version="1.1" width="600" height="600">
  <defs/>
  <g>
    <path d="M 501.8929443359375 553.6715087890625 C 499.74566650390625 562.2113037109375 494.20709228515625 567.7323608398438 486.5582275390625 569.6476440429688 C 478.5 566.9903564453125 473.0096130371094 561.5 470.2155456542969 553.3091430664062 C 472.18524169921875 545.7013549804688 477.6958312988281 540.1709594726562 485.57574462890625 538.094970703125 C 494.2256164550781 540.2353515625 499.77825927734375 545.7681274414062 501.8929443359375 553.6715087890625" stroke-width="0.0" fill="rgb(129, 117, 103)" opacity="1.0"/>
    <path d="M 279.897705078125 567.7581176757812 C 277.78289794921875 576.2290649414062 272.1988525390625 581.7091064453125 263.99310302734375 583.8192138671875 C 255.80517578125 581.7149047851562 250.2447509765625 576.21044921875 248.1227569580078 568.2119140625 C 250.2972412109375 559.898681640625 255.9989471435547 554.5845947265625 264.0938415527344 552.71044921875 C 272.1148376464844 554.4744873046875 277.7874450683594 559.793701171875 279.897705078125 567.7581176757812" stroke-width="0.0" fill="rgb(133, 124, 113)" opacity="1.0"/>
    <path d="M 605.4456787109375 508.6822814941406 C 603.4982299804688 517.0923461914062 598.1832885742188 522.7651977539062 589.5010986328125 524.9058837890625 C 581.6784057617188 522.8403930664062 576.1544799804688 517.3236694335938 574.0745849609375 508.6427001953125 C 576.124267578125 500.6379089355469 581.639892578125 495.1284484863281 590.5827026367188 493.04949951171875 C 598.3377685546875 495.1190185546875 603.7203369140625 500.7181396484375 605.4456787109375 508.6822814941406" stroke-width="0.0" fill="rgb(84, 76, 62)" opacity="1.0"/>
    <path d="M 128.9527587890625 454.7641906738281 C 126.8897933959961 463.3721008300781 121.36808013916016 468.8807067871094 112.47158813476562 470.95074462890625 C 104.60807800292969 468.8999938964844 99.09054565429688 463.3961486816406 97.03800201416016 455.35919189453125 C 99.10049438476562 446.6141662597656 104.61456298828125 441.1016540527344 113.46630859375 439.0444030761719 C 121.4020004272461 441.0896911621094 126.90503692626953 446.6002502441406 128.9527587890625 454.7641906738281" stroke-width="0.0" fill="rgb(22, 22, 24)" opacity="1.0"/>
    <path d="M 598.9561767578125 334.8460388183594 C 596.902587890625 343.39349365234375 591.3935546875 348.9027099609375 583.7454833984375 350.9443359375 C 575.861328125 348.6694030761719 570.8518676757812 341.7674255371094 567.19482421875 334.1014709472656 C 569.104248046875 326.61700439453125 574.6187744140625 321.1085510253906 583.3412475585938 319.04815673828125 C 591.3890380859375 321.10223388671875 596.9020385742188 326.609130859375 598.9561767578125 334.8460388183594" stroke-width="0.0" fill="rgb(23, 22, 29)" opacity="0.9910735"/>
    <path d="M 290.0622253417969 202.6912841796875 C 289.15618896484375 210.24240112304688 284.3411560058594 215.88522338867188 276.2113952636719 217.9499053955078 C 267.6192626953125 215.89065551757812 262.1051025390625 210.38253784179688 260.07049560546875 202.80274963378906 C 262.533935546875 194.18470764160156 268.1565856933594 188.4801025390625 276.7198486328125 186.07974243164062 C 283.48748779296875 188.22605895996094 288.13018798828125 195.24124145507812 290.0622253417969 202.6912841796875" stroke-width="0.0" fill="rgb(16, 14, 17)" opacity="0.99005073"/>
    <path d="M 97.9555435180664 482.43621826171875 C 95.90717315673828 490.3972473144531 90.39573669433594 495.90374755859375 81.49984741210938 497.95843505859375 C 73.5990219116211 495.9123840332031 68.09770202636719 490.39666748046875 66.0477294921875 482.3004150390625 C 68.10564422607422 473.61572265625 73.614013671875 468.101806640625 81.6204605102539 466.0491638183594 C 90.38558959960938 468.1036376953125 95.89547729492188 473.6148986816406 97.9555435180664 482.43621826171875" stroke-width="0.0" fill="rgb(18, 16, 22)" opacity="1.0"/>
    <path d="M 528.9207763671875 311.6664123535156 C 526.7221069335938 319.03924560546875 520.812255859375 324.1619873046875 513.1351318359375 325.94708251953125 C 506.0677490234375 323.5785217285156 500.8521728515625 317.7736511230469 498.87164306640625 310.1059875488281 C 499.1131286621094 302.6239929199219 504.62933349609375 297.1269226074219 512.1080322265625 296.904052734375 C 519.6372680664062 298.9058532714844 525.2098388671875 304.328857421875 528.9207763671875 311.6664123535156" stroke-width="0.0" fill="rgb(20, 19, 21)" opacity="0.9900573"/>
    <path d="M 158.85423278808594 592.5093383789062 C 156.75177001953125 600.1664428710938 151.07168579101562 605.4708251953125 143.18328857421875 607.1397094726562 C 135.5 604.9903564453125 130.00961303710938 599.5 127.93231201171875 591.9080810546875 C 129.71063232421875 584.1121826171875 135.00111389160156 578.3843994140625 142.50086975097656 576.29052734375 C 150.6658935546875 578.9154052734375 156.50039672851562 584.1818237304688 158.85423278808594 592.5093383789062" stroke-width="0.0" fill="rgb(138, 133, 124)" opacity="0.9971635"/>
    <path d="M 271.1215515136719 185.36370849609375 C 269.91754150390625 193.81387329101562 265.0845031738281 199.7563018798828 257.66766357421875 201.9155731201172 C 249.21478271484375 199.49703979492188 243.96304321289062 193.61021423339844 241.29840087890625 185.31590270996094 C 243.14402770996094 177.62762451171875 248.6097869873047 172.0940704345703 256.7274475097656 170.0413055419922 C 265.3892822265625 172.0972900390625 270.85345458984375 177.62710571289062 271.1215515136719 185.36370849609375" stroke-width="0.0" fill="rgb(12, 17, 29)" opacity="0.99002564"/>
    <path d="M 283.13739013671875 157.42495727539062 C 281.61163330078125 166.16127014160156 277.3143005371094 171.87644958496094 268.4344787597656 173.9617156982422 C 260.6045837402344 171.90582275390625 255.10012817382812 166.39305114746094 253.0451202392578 157.56155395507812 C 255.10243225097656 149.62149047851562 260.6296081542969 144.1211395263672 268.3446960449219 142.06277465820312 C 276.07989501953125 144.3936309814453 281.251953125 151.1690673828125 283.13739013671875 157.42495727539062" stroke-width="0.0" fill="rgb(19, 16, 22)" opacity="0.9900424"/>
    <path d="M 450.886962890625 285.26434326171875 C 447.9905700683594 293.50006103515625 442.5 298.9903869628906 434.1896057128906 301.8625183105469 C 426.60369873046875 299.8980712890625 421.0881652832031 294.4017639160156 419.0436096191406 286.6087341308594 C 421.1080017089844 277.62615966796875 426.65264892578125 272.1965026855469 434.1725769042969 271.94580078125 C 441.6920471191406 273.8878479003906 448.5295715332031 279.14105224609375 450.886962890625 285.26434326171875" stroke-width="0.0" fill="rgb(16, 14, 19)" opacity="0.9900718"/>
    <path d="M 98.93675231933594 247.7643280029297 C 96.86022186279297 256.3399963378906 91.33659362792969 261.8520202636719 83.66911315917969 263.8963317871094 C 76.08613586425781 261.2676086425781 70.85182189941406 254.74517822265625 68.93534088134766 247.61520385742188 C 70.8623046875 241.3311309814453 76.33555603027344 235.87359619140625 83.8848648071289 232.7194061279297 C 91.3656997680664 234.1207275390625 96.87520599365234 239.63604736328125 98.93675231933594 247.7643280029297" stroke-width="0.0" fill="rgb(73, 67, 54)" opacity="0.9900195"/>
    <path d="M 430.5526428222656 77.66893768310547 C 428.5042419433594 84.98478698730469 423.0867614746094 90.71388244628906 415.4885559082031 92.77349090576172 C 407.076416015625 90.53594207763672 401.7018127441406 84.82982635498047 399.2593994140625 77.44776153564453 C 402.4981384277344 69.98455810546875 408.0072021484375 64.57032012939453 414.9759216308594 62.781272888183594 C 421.96649169921875 64.54241943359375 427.3448791503906 70.07396697998047 430.5526428222656 77.66893768310547" stroke-width="0.0" fill="rgb(81, 93, 101)" opacity="0.99001646"/>
    <path d="M 183.8492431640625 78.6766128540039 C 181.83973693847656 86.32007598876953 176.31512451171875 91.82743835449219 168.06393432617188 93.89199829101562 C 159.70822143554688 91.81719970703125 154.19093322753906 86.28854370117188 152.19923400878906 78.7095718383789 C 155.2909698486328 70.78556060791016 160.7743682861328 65.25056457519531 168.05239868164062 62.63372039794922 C 175.77255249023438 64.76499938964844 181.44798278808594 70.15668487548828 183.8492431640625 78.6766128540039" stroke-width="0.0" fill="rgb(187, 189, 182)" opacity="1.0"/>
    <path d="M 559.9193725585938 517.2880249023438 C 557.8240356445312 525.2820434570312 552.2646484375 530.7833862304688 543.5938110351562 532.9029541015625 C 535.7479858398438 530.7984008789062 530.2240600585938 525.2420043945312 528.0919799804688 516.4630737304688 C 530.1341552734375 508.6404724121094 535.6336669921875 503.11712646484375 544.2867431640625 501.0511474609375 C 552.350830078125 503.12164306640625 557.8383178710938 508.6660461425781 559.9193725585938 517.2880249023438" stroke-width="0.0" fill="rgb(104, 87, 74)" opacity="1.0"/>
    <path d="M 257.81439208984375 192.87600708007812 C 255.06715393066406 200.82061767578125 249.91232299804688 206.45005798339844 242.29763793945312 207.7520294189453 C 234.9143829345703 205.5341033935547 229.09239196777344 200.16796875 226.58091735839844 193.357421875 C 229.05320739746094 185.419921875 234.2396240234375 179.5373077392578 241.3755645751953 177.4898223876953 C 248.73526000976562 180.77854919433594 254.28567504882812 186.2489776611328 257.81439208984375 192.87600708007812" stroke-width="0.0" fill="rgb(181, 196, 202)" opacity="0.9900337"/>
    <path d="M 351.80810546875 594.5661010742188 C 349.4339599609375 602.7731323242188 343.6459045410156 608.0679931640625 335.9864807128906 610.0205078125 C 328.2530212402344 608.1317138671875 322.4095764160156 602.9158325195312 320.1360778808594 594.6328125 C 322.2344055175781 586.763427734375 327.7578125 581.2213745117188 335.7799987792969 579.1270141601562 C 344.16668701171875 581.2774047851562 349.69482421875 586.8450317382812 351.80810546875 594.5661010742188" stroke-width="0.0" fill="rgb(140, 132, 121)" opacity="0.99731755"/>
    <path d="M 419.8503723144531 587.0303955078125 C 417.7351989746094 595.1828002929688 412.15081787109375 600.6473388671875 404.1582946777344 602.6139526367188 C 395.892578125 600.59326171875 390.28594970703125 595.1505737304688 388.1356506347656 586.8355712890625 C 390.2408142089844 578.764404296875 395.756103515625 573.2205200195312 403.6783752441406 571.1355590820312 C 412.1960754394531 573.2748413085938 417.7380065917969 578.7985229492188 419.8503723144531 587.0303955078125" stroke-width="0.0" fill="rgb(141, 129, 119)" opacity="1.0"/>
    <path d="M 166.1346435546875 155.06954956054688 C 164.41900634765625 162.7441864013672 160.17190551757812 168.81134033203125 151.41854858398438 170.9412384033203 C 143.6356658935547 168.88172912597656 138.12367248535156 163.36209106445312 136.06101989746094 155.14370727539062 C 138.13287353515625 146.6626739501953 143.6983184814453 141.242919921875 151.302734375 140.80441284179688 C 158.79598999023438 142.7620391845703 164.24990844726562 148.19911193847656 166.1346435546875 155.06954956054688" stroke-width="0.0" fill="rgb(130, 132, 138)" opacity="1.0"/>
    <path d="M 497.451904296875 476.4579772949219 C 495.75079345703125 484.29901123046875 490.3390808105469 489.8709716796875 482.9060363769531 490.0805969238281 C 475.3768310546875 488.0810241699219 469.8491516113281 482.6484069824219 467.9324951171875 476.7529296875 C 469.8985595703125 469.3620300292969 475.3466491699219 463.8534240722656 482.81768798828125 460.1078796386719 C 490.1169128417969 462.23114013671875 495.2479248046875 468.0867004394531 497.451904296875 476.4579772949219" stroke-width="0.0" fill="rgb(17, 15, 20)" opacity="0.99000996"/>
    <path d="M 406.32196044921875 515.6438598632812 C 403.9903869628906 523.5 398.5 528.9903564453125 390.2543640136719 531.8397216796875 C 382.6895751953125 529.8365478515625 377.1737365722656 524.3058471679688 375.1649475097656 516.7332763671875 C 378.0096130371094 508.5 383.5 503.0096130371094 391.66290283203125 500.2571105957031 C 399.2589416503906 502.199462890625 404.6536560058594 507.7884826660156 406.32196044921875 515.6438598632812" stroke-width="0.0" fill="rgb(102, 87, 68)" opacity="1.0"/>
    <path d="M 194.90541076660156 382.1708068847656 C 191.9912872314453 390.500244140625 186.50001525878906 395.9903869628906 178.297607421875 398.74005126953125 C 170.63668823242188 396.8554992675781 165.10693359375 391.3770751953125 163.04505920410156 382.57403564453125 C 165.09133911132812 374.5973815917969 170.5962371826172 369.0885009765625 178.36036682128906 367.04840087890625 C 187.37136840820312 369.1142272949219 192.88369750976562 374.6296691894531 194.90541076660156 382.1708068847656" stroke-width="0.0" fill="rgb(23, 20, 24)" opacity="1.0"/>
    <path d="M 250.9468231201172 495.1041564941406 C 248.88491821289062 503.36224365234375 243.3466796875 508.8467712402344 234.95848083496094 510.88916015625 C 226.70706176757812 508.8377685546875 221.33331298828125 503.23724365234375 219.2533416748047 494.3869323730469 C 221.15447998046875 486.6439208984375 226.62562561035156 481.1054382324219 234.92446899414062 479.0457763671875 C 243.3777313232422 481.10467529296875 248.88198852539062 486.62835693359375 250.9468231201172 495.1041564941406" stroke-width="0.0" fill="rgb(20, 19, 23)" opacity="0.9903267"/>
    <path d="M 450.9159851074219 506.5240478515625 C 448.8204040527344 515.302001953125 443.310302734375 520.8402099609375 435.7253112792969 522.88232421875 C 427.3342590332031 520.3313598632812 421.9871520996094 514.5563354492188 419.951416015625 506.92132568359375 C 421.68792724609375 499.03314208984375 426.8608703613281 493.22772216796875 435.5696105957031 491.0585021972656 C 443.3560791015625 493.126953125 448.86383056640625 498.64764404296875 450.9159851074219 506.5240478515625" stroke-width="0.0" fill="rgb(92, 79, 63)" opacity="1.0"/>
    <path d="M 85.74285888671875 355.39947509765625 C 83.81666564941406 363.33642578125 78.36119079589844 368.8854675292969 70.57381439208984 370.94671630859375 C 61.74590301513672 368.8321228027344 56.36320114135742 363.17236328125 55.0361328125 355.3997802734375 C 56.726341247558594 347.33831787109375 62.416114807128906 341.9664611816406 70.25364685058594 339.77520751953125 C 78.10394287109375 341.4556884765625 83.68595886230469 346.8523254394531 85.74285888671875 355.39947509765625" stroke-width="0.0" fill="rgb(25, 26, 29)" opacity="0.9900623"/>
    <path d="M 226.8955841064453 452.82904052734375 C 224.89385986328125 460.38427734375 219.38272094726562 465.8894958496094 211.8002166748047 467.8579406738281 C 203.5 464.9903869628906 198.00961303710938 459.5 196.0 452.0 C 198.00961303710938 444.5 203.5 439.0096130371094 211.0 437.0 C 218.5 439.0096130371094 223.99038696289062 444.5 226.8955841064453 452.82904052734375" stroke-width="0.0" fill="rgb(23, 23, 25)" opacity="1.0"/>
    <path d="M 217.9600067138672 194.45472717285156 C 215.82339477539062 202.8592529296875 208.76963806152344 207.12820434570312 201.76629638671875 209.04579162597656 C 195.32911682128906 207.142822265625 189.9029998779297 201.64935302734375 187.94700622558594 194.1696014404297 C 188.2220458984375 186.6622772216797 193.62948608398438 181.10775756835938 202.6073760986328 179.0421600341797 C 210.40318298339844 181.0867462158203 215.906982421875 186.5996551513672 217.9600067138672 194.45472717285156" stroke-width="0.0" fill="rgb(23, 17, 27)" opacity="0.99003196"/>
    <path d="M 132.1740264892578 154.6809844970703 C 131.0081787109375 162.55902099609375 125.37279510498047 167.5740203857422 117.5865478515625 169.1765899658203 C 110.38421630859375 167.9470977783203 104.66996765136719 162.7305450439453 102.66999053955078 154.50990295410156 C 104.30186462402344 146.8633575439453 109.88428497314453 141.35562133789062 117.77751922607422 140.77761840820312 C 125.19712829589844 142.286376953125 130.68179321289062 147.81175231933594 132.1740264892578 154.6809844970703" stroke-width="0.0" fill="rgb(250, 251, 250)" opacity="1.0"/>
    <path d="M 112.84852600097656 117.25257873535156 C 110.66671752929688 126.23497009277344 105.29888153076172 131.85159301757812 96.45550537109375 133.94615173339844 C 88.61378479003906 131.8986053466797 83.11085510253906 126.38204956054688 81.05435943603516 117.7959976196289 C 83.1086196899414 109.61956787109375 88.6205825805664 104.11087799072266 96.53276824951172 102.05494689941406 C 105.3768310546875 104.11692810058594 110.88081359863281 109.62389373779297 112.84852600097656 117.25257873535156" stroke-width="0.0" fill="rgb(28, 29, 30)" opacity="1.0"/>
    <path d="M 174.94717407226562 468.37640380859375 C 172.838134765625 477.2604064941406 167.15542602539062 482.5360412597656 158.59271240234375 484.497802734375 C 150.6871795654297 482.7643737792969 145.11453247070312 477.3537292480469 143.04527282714844 468.5768737792969 C 145.10035705566406 460.61566162109375 150.62335205078125 455.1186828613281 159.5424041748047 453.0555419921875 C 167.39437866210938 455.0995178222656 172.9052734375 460.6035461425781 174.94717407226562 468.37640380859375" stroke-width="0.0" fill="rgb(20, 18, 23)" opacity="1.0"/>
    <path d="M 282.07861328125 282.7776184082031 C 281.8607177734375 290.3662414550781 276.3749694824219 295.8866882324219 268.8535461425781 297.9051513671875 C 260.999267578125 294.2624816894531 254.19967651367188 290.0118713378906 252.04867553710938 281.3164978027344 C 254.0939178466797 273.6055908203125 259.610107421875 268.1046142578125 267.1728210449219 266.1077880859375 C 275.34674072265625 269.07940673828125 280.3824157714844 274.8728942871094 282.07861328125 282.7776184082031" stroke-width="0.0" fill="rgb(13, 14, 20)" opacity="0.9900129"/>
    <path d="M 597.9373168945312 252.65045166015625 C 595.8850708007812 260.37213134765625 590.3672485351562 265.8716125488281 582.8523559570312 266.1396484375 C 575.2229614257812 264.1670837402344 568.3875732421875 259.0589904785156 566.0498657226562 251.35118103027344 C 568.1326293945312 243.66041564941406 573.66455078125 238.1417694091797 581.7899169921875 236.0641326904297 C 590.3323364257812 238.1431121826172 595.8359375 243.6764678955078 597.9373168945312 252.65045166015625" stroke-width="0.0" fill="rgb(59, 55, 47)" opacity="1.0"/>
    <path d="M 221.1812286376953 442.7574462890625 C 218.99038696289062 450.5 213.5 455.9903869628906 205.9722137451172 458.0137939453125 C 198.20407104492188 456.1529846191406 192.28912353515625 451.0229797363281 190.05616760253906 442.2713317871094 C 192.0963897705078 434.5989074707031 197.59368896484375 429.0839538574219 205.27188110351562 427.04339599609375 C 214.28067016601562 429.14935302734375 219.57481384277344 434.8148498535156 221.1812286376953 442.7574462890625" stroke-width="0.0" fill="rgb(22, 22, 24)" opacity="1.0"/>
    <path d="M 513.0438232421875 471.25653076171875 C 511.0853271484375 478.62347412109375 505.6451721191406 484.14892578125 498.1663513183594 487.88934326171875 C 490.8153381347656 485.80865478515625 485.66363525390625 480.0069274902344 483.5162353515625 471.52374267578125 C 485.229248046875 463.6805114746094 490.6353454589844 458.1012268066406 499.1080322265625 456.03790283203125 C 507.3437805175781 458.10516357421875 511.5655822753906 463.7898254394531 513.0438232421875 471.25653076171875" stroke-width="0.0" fill="rgb(17, 15, 18)" opacity="0.9900336"/>
    <path d="M 109.95564270019531 355.2952880859375 C 107.9007797241211 363.3907470703125 102.39054870605469 368.90020751953125 93.72644805908203 370.9554748535156 C 85.63202667236328 368.89324951171875 80.18292999267578 363.3404846191406 78.2399673461914 355.0426025390625 C 80.18498992919922 346.65924072265625 85.63087463378906 341.1057434082031 93.5599136352539 339.0461730957031 C 102.38102722167969 341.1092834472656 107.894287109375 346.61749267578125 109.95564270019531 355.2952880859375" stroke-width="0.0" fill="rgb(21, 23, 30)" opacity="1.0"/>
    <path d="M 162.95962524414062 217.53067016601562 C 160.91006469726562 225.3975372314453 155.3931884765625 230.89999389648438 146.56300354003906 232.95457458496094 C 138.59202575683594 230.91436767578125 133.0887908935547 225.40667724609375 131.04335021972656 216.93429565429688 C 133.09771728515625 208.6090850830078 138.61119079589844 203.10272216796875 147.55517578125 201.0435028076172 C 155.39208984375 203.0938262939453 160.89930725097656 208.61097717285156 162.95962524414062 217.53067016601562" stroke-width="0.0" fill="rgb(12, 9, 16)" opacity="1.0"/>
    <path d="M 319.5577697753906 74.27112579345703 C 317.4903869628906 81.91199493408203 311.8556213378906 87.32383728027344 303.4145812988281 89.75011444091797 C 295.916748046875 87.60729217529297 290.3113098144531 82.1189956665039 288.3221740722656 74.44969940185547 C 290.55548095703125 66.07131958007812 296.05157470703125 60.494136810302734 303.9112243652344 58.29945755004883 C 311.8218994140625 60.58553695678711 317.2774963378906 66.22430419921875 319.5577697753906 74.27112579345703" stroke-width="0.0" fill="rgb(193, 191, 187)" opacity="1.0"/>
    <path d="M 427.83050537109375 103.64056396484375 C 425.8322448730469 111.30925750732422 420.3099670410156 116.83444213867188 412.5852355957031 118.91153717041016 C 404.07958984375 116.64569091796875 398.9715576171875 110.665283203125 396.719482421875 102.69639587402344 C 398.4229736328125 94.8758773803711 403.8354797363281 89.29631805419922 411.54803466796875 88.50395965576172 C 420.1260681152344 89.423583984375 425.6637268066406 94.85094451904297 427.83050537109375 103.64056396484375" stroke-width="0.0" fill="rgb(166, 172, 176)" opacity="1.0"/>
    <path d="M 199.9420928955078 324.29888916015625 C 197.78213500976562 333.23297119140625 192.25326538085938 338.8182373046875 184.75587463378906 340.8612976074219 C 176.5 337.9903869628906 171.00961303710938 332.5 168.7231903076172 324.6558837890625 C 170.3266143798828 316.7435302734375 175.67739868164062 311.12896728515625 184.57249450683594 309.045166015625 C 192.38525390625 311.1017761230469 197.8954620361328 316.6158752441406 199.9420928955078 324.29888916015625" stroke-width="0.0" fill="rgb(24, 21, 29)" opacity="1.0"/>
    <path d="M 461.89947509765625 299.19610595703125 C 459.734375 308.3072814941406 454.3542785644531 313.8866882324219 446.2254943847656 315.9452209472656 C 437.610595703125 313.8975524902344 432.0990905761719 308.39068603515625 430.0857238769531 300.8495178222656 C 433.0108337402344 292.50115966796875 438.5012512207031 287.0111389160156 446.8076477050781 284.13916015625 C 454.39129638671875 286.10443115234375 459.900146484375 291.6070251464844 461.89947509765625 299.19610595703125" stroke-width="0.0" fill="rgb(15, 11, 20)" opacity="1.0"/>
    <path d="M 540.716064453125 239.53335571289062 C 538.6054077148438 247.01866149902344 532.9463500976562 252.37387084960938 524.46533203125 253.2109832763672 C 517.8529663085938 252.00460815429688 512.6008911132812 246.00869750976562 510.90313720703125 239.4292755126953 C 512.44091796875 231.76339721679688 517.66845703125 226.16909790039062 525.0286254882812 223.9445037841797 C 532.5 226.00961303710938 537.9903564453125 231.5 540.716064453125 239.53335571289062" stroke-width="0.0" fill="rgb(251, 252, 252)" opacity="1.0"/>
    <path d="M 124.91132354736328 528.5484619140625 C 122.80518341064453 537.2841186523438 117.28263092041016 542.80078125 108.65528869628906 544.8873901367188 C 100.71298217773438 542.8148193359375 95.1961441040039 537.2826538085938 93.09009552001953 528.4217529296875 C 95.13935852050781 520.65771484375 100.66018676757812 515.1454467773438 108.53668212890625 513.08740234375 C 117.29125213623047 515.1892700195312 122.8312759399414 520.699951171875 124.91132354736328 528.5484619140625" stroke-width="0.0" fill="rgb(106, 92, 73)" opacity="1.0"/>
    <path d="M 304.0412902832031 422.4021301269531 C 302.1048889160156 429.69000244140625 296.90093994140625 436.6363830566406 289.2124938964844 438.9542541503906 C 281.5990905761719 436.9127197265625 276.102294921875 431.3945617675781 274.04736328125 422.551025390625 C 276.0968017578125 414.6043395996094 281.6016540527344 409.0908203125 289.43170166015625 407.0440979003906 C 298.3175354003906 409.1257019042969 302.4335632324219 414.84228515625 304.0412902832031 422.4021301269531" stroke-width="0.0" fill="rgb(16, 16, 22)" opacity="0.99003613"/>
    <path d="M 187.947265625 416.68499755859375 C 185.90052795410156 424.3936767578125 180.39544677734375 429.9047546386719 172.32794189453125 431.9544677734375 C 163.6214599609375 429.8937072753906 158.1118927001953 424.3759765625 156.0461883544922 415.7799987792969 C 158.10272216796875 407.61163330078125 163.61087036132812 402.1012878417969 171.24356079101562 400.0662536621094 C 180.0789337158203 402.3305358886719 185.7588348388672 407.86700439453125 187.947265625 416.68499755859375" stroke-width="0.0" fill="rgb(23, 22, 27)" opacity="1.0"/>
    <path d="M 428.11260986328125 319.3808898925781 C 427.81951904296875 327.3378601074219 422.3558654785156 332.8740234375 413.4410095214844 334.9508361816406 C 405.6154479980469 332.896240234375 400.098388671875 327.3870849609375 398.0449523925781 319.4031677246094 C 400.1033020019531 310.6182556152344 405.63690185546875 305.160888671875 414.60418701171875 304.7530212402344 C 422.35009765625 305.13702392578125 427.7843017578125 310.6725158691406 428.11260986328125 319.3808898925781" stroke-width="0.0" fill="rgb(23, 22, 26)" opacity="0.99002177"/>
    <path d="M 368.8689880371094 557.5701293945312 C 366.7116394042969 566.182373046875 361.1955261230469 571.7433471679688 353.2210388183594 573.8525390625 C 344.8634338378906 571.6724853515625 339.2811279296875 566.15673828125 337.1182861328125 557.6018676757812 C 339.2041015625 549.7352294921875 344.74066162109375 544.2178344726562 353.081298828125 542.12109375 C 361.2522888183594 544.223876953125 366.7890930175781 549.7424926757812 368.8689880371094 557.5701293945312" stroke-width="0.0" fill="rgb(134, 123, 110)" opacity="1.0"/>
    <path d="M 496.9043273925781 517.9661254882812 C 494.83148193359375 526.3168334960938 489.3158874511719 531.8289794921875 481.0492248535156 533.8978881835938 C 472.7126159667969 531.806884765625 467.166259765625 526.298828125 465.0929260253906 518.5507202148438 C 467.2035827636719 509.7085266113281 472.6856384277344 504.1488342285156 480.6983337402344 502.07025146484375 C 489.2964172363281 504.1692199707031 494.8105163574219 509.7125244140625 496.9043273925781 517.9661254882812" stroke-width="0.0" fill="rgb(102, 93, 78)" opacity="1.0"/>
    <path d="M 569.3289794921875 202.6918182373047 C 568.4727783203125 209.911376953125 562.9470825195312 215.5483856201172 555.3162231445312 216.1965789794922 C 547.1564331054688 215.4102783203125 541.8458251953125 209.76925659179688 539.8037109375 201.7037811279297 C 541.6614990234375 194.19635009765625 547.2069702148438 188.69418334960938 554.9307250976562 186.69354248046875 C 562.7799072265625 188.71934509277344 567.6217041015625 194.40386962890625 569.3289794921875 202.6918182373047" stroke-width="0.0" fill="rgb(247, 251, 249)" opacity="1.0"/>
    <path d="M 259.6351318359375 538.4251098632812 C 257.0331115722656 546.593994140625 251.7340087890625 552.4221801757812 243.8250732421875 554.819091796875 C 236.0568389892578 552.5894775390625 230.77943420410156 546.8094482421875 228.17276000976562 538.33984375 C 230.21522521972656 530.7455444335938 235.74227905273438 525.2078247070312 244.51296997070312 523.0850830078125 C 252.30508422851562 525.1573486328125 257.77105712890625 530.722412109375 259.6351318359375 538.4251098632812" stroke-width="0.0" fill="rgb(114, 105, 93)" opacity="1.0"/>
    <path d="M 460.9493408203125 97.58934020996094 C 458.91156005859375 105.40436553955078 453.4021301269531 110.90609741210938 445.01513671875 112.95259857177734 C 436.61297607421875 110.89800262451172 431.10345458984375 105.38651275634766 429.58221435546875 97.9070816040039 C 432.903076171875 90.35956573486328 438.3392028808594 84.85222625732422 445.2048034667969 82.9430160522461 C 453.21112060546875 84.28340911865234 458.8757629394531 88.6721420288086 460.9493408203125 97.58934020996094" stroke-width="0.0" fill="rgb(19, 18, 21)" opacity="0.9900247"/>
    <path d="M 202.06753540039062 126.10948944091797 C 200.3834228515625 134.0399932861328 195.1995391845703 139.8135223388672 186.2867431640625 141.9542236328125 C 178.60174560546875 139.91075134277344 173.10997009277344 134.38995361328125 172.91616821289062 126.90489196777344 C 174.90579223632812 119.34257507324219 180.2837371826172 113.73812103271484 187.4157257080078 111.37017822265625 C 194.5 113.0096206665039 199.99038696289062 118.5 202.06753540039062 126.10948944091797" stroke-width="0.0" fill="rgb(18, 19, 24)" opacity="0.9901414"/>
    <path d="M 151.00115966796875 596.0023193359375 C 148.9914093017578 603.5004272460938 143.50013732910156 608.9904174804688 135.9985809326172 611.0005493164062 C 128.4687957763672 609.0030517578125 122.81083679199219 603.5897216796875 120.21066284179688 595.395263671875 C 122.23114013671875 587.761474609375 127.76215362548828 582.232177734375 135.3448028564453 580.2222900390625 C 143.49771118164062 583.012939453125 148.98812866210938 588.5020141601562 151.00115966796875 596.0023193359375" stroke-width="0.0" fill="rgb(140, 135, 126)" opacity="1.0"/>
    <path d="M 551.9443969726562 225.8632354736328 C 549.8912963867188 234.3854217529297 544.3875122070312 239.89674377441406 536.56884765625 241.94740295410156 C 527.6214599609375 239.88380432128906 522.1051025390625 234.38307189941406 520.0630493164062 226.82781982421875 C 523.7939453125 219.32647705078125 529.3558959960938 213.89572143554688 536.8524780273438 211.90341186523438 C 544.3463134765625 212.16278076171875 549.8845825195312 217.6361541748047 551.9443969726562 225.8632354736328" stroke-width="0.0" fill="rgb(47, 46, 36)" opacity="0.9900751"/>
    <path d="M 378.756103515625 494.2792663574219 C 376.0090637207031 502.5537109375 370.6783447265625 508.36212158203125 362.4094543457031 510.81207275390625 C 354.7161865234375 508.79351806640625 349.15289306640625 503.3066101074219 347.0479736328125 494.3277282714844 C 349.0990905761719 486.6094665527344 354.6107482910156 481.1021728515625 363.5254211425781 479.0428466796875 C 371.3916931152344 481.0931701660156 376.86676025390625 486.6231994628906 378.756103515625 494.2792663574219" stroke-width="0.0" fill="rgb(20, 16, 23)" opacity="0.990117"/>
    <path d="M 289.84625244140625 594.5202026367188 C 287.4923400878906 602.8178100585938 281.6704406738281 608.0809326171875 274.003662109375 610.0137329101562 C 266.3651123046875 608.0608520507812 260.57403564453125 602.7621459960938 258.1720886230469 594.4713134765625 C 260.2480163574219 586.8037719726562 265.8420104980469 581.3504028320312 274.3659973144531 579.2086181640625 C 282.1759948730469 581.2901611328125 287.7333679199219 586.8148193359375 289.84625244140625 594.5202026367188" stroke-width="0.0" fill="rgb(138, 131, 119)" opacity="1.0"/>
    <path d="M 204.49757385253906 123.45198822021484 C 202.99038696289062 130.49998474121094 197.4999237060547 135.99020385742188 189.9998779296875 137.9982147216797 C 182.49864196777344 135.99093627929688 176.9944305419922 130.50546264648438 174.6730499267578 122.71414184570312 C 176.38916015625 114.79850006103516 181.7204132080078 109.15922546386719 189.20457458496094 107.11569213867188 C 196.7891387939453 110.72393798828125 202.29428100585938 116.20384979248047 204.49757385253906 123.45198822021484" stroke-width="0.0" fill="rgb(21, 21, 25)" opacity="0.990066"/>
    <path d="M 391.1471252441406 417.99932861328125 C 389.3370056152344 424.8445739746094 383.8188781738281 430.259521484375 376.2807312011719 432.65777587890625 C 368.77056884765625 431.73284912109375 363.19659423828125 426.25714111328125 361.9606628417969 418.70587158203125 C 363.47283935546875 409.9962158203125 368.97857666015625 404.4252624511719 377.5607604980469 402.1834716796875 C 385.1956481933594 404.226318359375 390.3032531738281 409.92279052734375 391.1471252441406 417.99932861328125" stroke-width="0.0" fill="rgb(240, 248, 251)" opacity="1.0"/>
    <path d="M 171.8658905029297 570.5015258789062 C 169.6757049560547 579.129638671875 164.12086486816406 584.6532592773438 156.5091552734375 586.6591796875 C 148.3275604248047 584.0798950195312 142.47390747070312 578.8372802734375 140.17819213867188 570.993896484375 C 142.33045959472656 562.854736328125 147.84474182128906 557.3038940429688 156.29107666015625 555.1387939453125 C 164.2288055419922 557.2435302734375 169.7755126953125 562.763427734375 171.8658905029297 570.5015258789062" stroke-width="0.0" fill="rgb(133, 127, 116)" opacity="1.0"/>
    <path d="M 268.9536437988281 131.59637451171875 C 266.9058532714844 140.39981079101562 261.4002380371094 145.9070587158203 253.18527221679688 147.95809936523438 C 244.60862731933594 145.89988708496094 239.0923309326172 140.3948974609375 237.03976440429688 131.87454223632812 C 239.0953826904297 123.61274719238281 244.6208038330078 118.11351013183594 253.23138427734375 116.05207061767578 C 261.3929443359375 118.10172271728516 266.90521240234375 123.60421752929688 268.9536437988281 131.59637451171875" stroke-width="0.0" fill="rgb(15, 10, 17)" opacity="1.0"/>
    <path d="M 578.0809936523438 142.6978759765625 C 577.0119018554688 149.3292999267578 571.1414794921875 154.45657348632812 563.5958862304688 156.63226318359375 C 556.3063354492188 155.1775360107422 550.7183227539062 149.72752380371094 548.383056640625 141.67947387695312 C 550.5098876953125 134.1556396484375 556.2730712890625 128.8546600341797 563.523193359375 127.58869171142578 C 570.7982177734375 129.71815490722656 576.20263671875 135.23110961914062 578.0809936523438 142.6978759765625" stroke-width="0.0" fill="rgb(249, 251, 251)" opacity="1.0"/>
    <path d="M 317.25665283203125 459.8827209472656 C 315.04901123046875 467.4330139160156 309.37127685546875 472.8362121582031 301.60595703125 475.6396789550781 C 294.02691650390625 473.5219421386719 288.4718017578125 467.975341796875 286.2408142089844 459.3996276855469 C 288.1733093261719 451.7221984863281 293.76336669921875 446.2804870605469 301.6427307128906 444.3044128417969 C 309.9224548339844 446.5461120605469 315.3764953613281 452.10125732421875 317.25665283203125 459.8827209472656" stroke-width="0.0" fill="rgb(225, 233, 233)" opacity="1.0"/>
    <path d="M 466.9581604003906 215.93601989746094 C 464.90582275390625 224.3933868408203 459.3908386230469 229.90025329589844 450.7746276855469 231.95828247070312 C 442.6090393066406 229.90316772460938 437.10186767578125 224.3887176513672 435.04345703125 215.70773315429688 C 437.0919494628906 207.5997772216797 442.5992736816406 202.09080505371094 451.1448974609375 200.04354858398438 C 459.4007873535156 202.0904083251953 464.9062194824219 207.6007537841797 466.9581604003906 215.93601989746094" stroke-width="0.0" fill="rgb(13, 13, 14)" opacity="1.0"/>
    <path d="M 99.9286117553711 427.2148742675781 C 97.52301025390625 435.8016052246094 91.61181640625 441.0366516113281 83.59490966796875 443.3625183105469 C 75.72625732421875 441.70989990234375 70.1229019165039 436.3319396972656 68.04376983642578 427.8887023925781 C 70.10066223144531 419.614013671875 75.6188735961914 414.1122741699219 84.49398803710938 412.0517272949219 C 92.38150024414062 414.1058349609375 97.89229583740234 419.61932373046875 99.9286117553711 427.2148742675781" stroke-width="0.0" fill="rgb(20, 20, 24)" opacity="1.0"/>
    <path d="M 278.883544921875 546.8098754882812 C 276.727783203125 555.1295166015625 271.0271301269531 560.434326171875 262.8346252441406 562.3501586914062 C 254.929931640625 560.5451049804688 249.38400268554688 555.09228515625 247.54806518554688 547.392333984375 C 249.93899536132812 539.3580932617188 255.2079315185547 533.5239868164062 263.5050354003906 531.1386108398438 C 271.2247314453125 533.238037109375 276.7620849609375 538.7752075195312 278.883544921875 546.8098754882812" stroke-width="0.0" fill="rgb(119, 110, 97)" opacity="1.0"/>
    <path d="M 561.4551391601562 329.14410400390625 C 560.6909790039062 338.3122253417969 555.3595581054688 343.885986328125 546.7810668945312 345.947265625 C 538.6236572265625 343.88916015625 533.1137084960938 338.3750915527344 531.04833984375 329.70208740234375 C 533.1107177734375 321.6356201171875 538.6739501953125 316.24664306640625 547.8407592773438 314.44268798828125 C 555.3914794921875 316.1033020019531 560.900146484375 321.6070251464844 561.4551391601562 329.14410400390625" stroke-width="0.0" fill="rgb(23, 23, 26)" opacity="0.99001575"/>
    <path d="M 354.5148620605469 0.35702013969421387 C 352.4684143066406 7.869706153869629 346.83160400390625 13.372167587280273 338.77691650390625 15.71743392944336 C 331.0799560546875 13.512439727783203 325.5322570800781 7.90255069732666 323.46929931640625 0.36052703857421875 C 326.0096130371094 -7.5 331.5 -12.990381240844727 339.0 -15.0 C 346.5 -12.990381240844727 351.9903869628906 -7.5 354.5148620605469 0.35702013969421387" stroke-width="0.0" fill="rgb(197, 199, 196)" opacity="0.9932271"/>
    <path d="M 179.93218994140625 251.32264709472656 C 177.85743713378906 259.3319091796875 172.32286071777344 264.8358459472656 163.48301696777344 266.9259948730469 C 155.6719512939453 264.85882568359375 150.2489776611328 259.2935485839844 149.91830444335938 251.7729949951172 C 151.86090087890625 244.31771850585938 157.31951904296875 238.8651580810547 164.76707458496094 236.92510986328125 C 172.27484130859375 237.29112243652344 177.84608459472656 242.6852569580078 179.93218994140625 251.32264709472656" stroke-width="0.0" fill="rgb(69, 62, 50)" opacity="0.9900196"/>
    <path d="M 79.47190856933594 304.4871520996094 C 77.75104522705078 312.2921447753906 72.33443450927734 317.8714294433594 64.72409057617188 319.91845703125 C 55.799713134765625 317.7456359863281 50.32398223876953 312.17474365234375 48.29216003417969 303.97039794921875 C 50.33073806762695 295.8487243652344 55.836769104003906 290.2980651855469 63.351776123046875 289.243896484375 C 71.39498138427734 291.26422119140625 76.98153686523438 296.5246276855469 79.47190856933594 304.4871520996094" stroke-width="0.0" fill="rgb(98, 103, 92)" opacity="1.0"/>
    <path d="M 228.5795135498047 499.5297546386719 C 226.74337768554688 507.25140380859375 221.2782745361328 512.81640625 213.50186157226562 514.8827514648438 C 204.69313049316406 512.8030395507812 199.14794921875 507.3258361816406 197.17755126953125 499.7482604980469 C 200.00961303710938 491.5 205.5 486.0096130371094 212.9999542236328 484.0000305175781 C 220.50001525878906 486.00970458984375 225.99124145507812 491.4997253417969 228.5795135498047 499.5297546386719" stroke-width="0.0" fill="rgb(24, 21, 28)" opacity="0.99013895"/>
    <path d="M 127.43144226074219 214.86094665527344 C 126.84935760498047 222.28533935546875 121.13887786865234 226.70716857910156 112.17522430419922 228.28318786621094 C 104.6588134765625 227.85243225097656 99.1371841430664 222.34515380859375 97.06414031982422 213.84619140625 C 99.13156127929688 205.64959716796875 104.65254974365234 200.1384735107422 112.5934829711914 198.07272338867188 C 121.15968322753906 200.20643615722656 125.2970962524414 206.40866088867188 127.43144226074219 214.86094665527344" stroke-width="0.0" fill="rgb(72, 66, 55)" opacity="0.9900229"/>
    <path d="M 493.95263671875 235.66744995117188 C 491.9002380371094 243.38734436035156 486.38330078125 248.89065551757812 478.77252197265625 250.93475341796875 C 471.18902587890625 247.3157501220703 464.38409423828125 241.97589111328125 462.05462646484375 234.54830932617188 C 464.1809997558594 226.87054443359375 471.0109558105469 222.83128356933594 477.4801025390625 220.96017456054688 C 484.7659606933594 222.8785858154297 491.7908020019531 227.25067138671875 493.95263671875 235.66744995117188" stroke-width="0.0" fill="rgb(15, 12, 16)" opacity="0.99001116"/>
    <path d="M 220.03887939453125 132.51560974121094 C 218.10971069335938 138.65065002441406 212.65863037109375 144.1305694580078 205.1070098876953 147.8880157470703 C 197.61312866210938 145.90249633789062 192.1436767578125 140.37025451660156 190.28294372558594 132.69253540039062 C 193.04177856445312 124.5710220336914 198.72860717773438 119.4616928100586 205.19290161132812 117.94768524169922 C 212.60659790039062 119.92125701904297 218.0792999267578 125.39308166503906 220.03887939453125 132.51560974121094" stroke-width="0.0" fill="rgb(9, 17, 26)" opacity="0.99000794"/>
    <path d="M 104.94931030273438 440.63092041015625 C 102.88160705566406 449.37139892578125 97.37564849853516 454.8912048339844 89.35673522949219 456.9495544433594 C 80.61520385742188 454.8900146484375 75.09580993652344 449.390869140625 73.0643081665039 441.8165283203125 C 75.46353149414062 433.18402099609375 81.37773895263672 427.95794677734375 89.49085998535156 425.5386657714844 C 97.31139373779297 427.2356262207031 102.88687896728516 432.64642333984375 104.94931030273438 440.63092041015625" stroke-width="0.0" fill="rgb(20, 17, 24)" opacity="1.0"/>
    <path d="M 399.9525451660156 158.86166381835938 C 397.87725830078125 167.3441619873047 392.2882385253906 172.65306091308594 384.6471252441406 173.0847930908203 C 377.23468017578125 171.18038940429688 370.77056884765625 165.90814208984375 368.21417236328125 159.6993408203125 C 371.5096130371094 151.5091094970703 375.9739990234375 145.27110290527344 383.227294921875 143.2247772216797 C 391.958740234375 146.52264404296875 397.8581848144531 150.7455596923828 399.9525451660156 158.86166381835938" stroke-width="0.0" fill="rgb(72, 73, 71)" opacity="0.9900153"/>
    <path d="M 405.1231384277344 105.13104248046875 C 403.4896545410156 112.38844299316406 398.7279052734375 118.2935791015625 390.6974182128906 119.65111541748047 C 383.4177551269531 118.21000671386719 377.9461975097656 112.53047943115234 375.5893249511719 104.76931762695312 C 377.5316162109375 97.00885009765625 382.9576721191406 91.38603973388672 391.0249938964844 89.27566528320312 C 399.01947021484375 91.35529327392578 403.46246337890625 97.33798217773438 405.1231384277344 105.13104248046875" stroke-width="0.0" fill="rgb(236, 243, 245)" opacity="0.99028534"/>
    <path d="M 550.9254150390625 381.81390380859375 C 548.8818969726562 389.3700256347656 543.3748168945312 394.8924865722656 534.6369018554688 396.95648193359375 C 526.6112670898438 394.90313720703125 521.1295776367188 389.3765563964844 519.8474731445312 381.6844482421875 C 521.26123046875 372.7057800292969 526.6670532226562 367.1364440917969 534.6041259765625 365.05780029296875 C 542.9896850585938 367.2281494140625 547.557373046875 373.7389221191406 550.9254150390625 381.81390380859375" stroke-width="0.0" fill="rgb(102, 98, 88)" opacity="0.9900907"/>
    <path d="M 459.2835998535156 329.4360046386719 C 458.6968994140625 337.1004943847656 453.0096740722656 342.4307861328125 444.8448181152344 343.1219177246094 C 436.90728759765625 342.5409851074219 431.3011474609375 337.14483642578125 430.6496276855469 329.27996826171875 C 431.37457275390625 320.8899841308594 436.884033203125 315.3641662597656 444.24273681640625 314.9228515625 C 452.0901794433594 316.70477294921875 458.4078674316406 321.36700439453125 459.2835998535156 329.4360046386719" stroke-width="0.0" fill="rgb(248, 251, 252)" opacity="1.0"/>
    <path d="M 484.744140625 418.87298583984375 C 482.6593017578125 427.03155517578125 476.9049987792969 432.3109130859375 468.6504821777344 434.5978088378906 C 460.9200439453125 432.6123962402344 455.4452209472656 427.0597839355469 453.279541015625 418.56121826171875 C 455.3694763183594 410.9908142089844 461.06658935546875 405.5639953613281 469.48760986328125 403.301025390625 C 477.19085693359375 405.2882080078125 482.7579345703125 410.7908935546875 484.744140625 418.87298583984375" stroke-width="0.0" fill="rgb(227, 236, 233)" opacity="1.0"/>
    <path d="M 441.05938720703125 509.0920715332031 C 439.34027099609375 516.9865112304688 434.13262939453125 522.7523193359375 425.566650390625 524.9083251953125 C 417.6866760253906 522.8339233398438 412.1629638671875 517.314697265625 410.0855712890625 508.8612060546875 C 412.1448669433594 500.6492614746094 417.63970947265625 495.1211242675781 425.2738037109375 493.0673828125 C 433.7999572753906 495.4660949707031 439.0287780761719 501.4025573730469 441.05938720703125 509.0920715332031" stroke-width="0.0" fill="rgb(91, 80, 63)" opacity="1.0"/>
    <path d="M 203.9561767578125 396.25506591796875 C 201.88983154296875 404.37139892578125 196.3679656982422 409.882080078125 188.77194213867188 411.9256896972656 C 179.9599609375 409.56158447265625 174.21482849121094 404.1559753417969 172.10519409179688 396.7786865234375 C 175.01104736328125 388.5009460449219 180.5008087158203 383.010498046875 188.6551055908203 380.3067321777344 C 196.3438262939453 382.1688232421875 201.8898468017578 387.6341247558594 203.9561767578125 396.25506591796875" stroke-width="0.0" fill="rgb(23, 22, 25)" opacity="1.0"/>
    <path d="M 394.9183044433594 349.5577087402344 C 392.8700866699219 357.3569030761719 387.3568420410156 362.86968994140625 379.76422119140625 364.9046630859375 C 370.7348327636719 362.653076171875 365.1172180175781 357.33642578125 363.0472106933594 349.2954406738281 C 365.1065368652344 340.6250915527344 370.64453125 335.160888671875 379.6766052246094 333.079833984375 C 387.3392333984375 335.1333312988281 392.8305358886719 340.675537109375 394.9183044433594 349.5577087402344" stroke-width="0.0" fill="rgb(52, 50, 38)" opacity="0.9900261"/>
    <path d="M 233.4752197265625 557.4059448242188 C 231.6223602294922 565.11572265625 226.1478729248047 570.7094116210938 218.02706909179688 572.8570556640625 C 209.77474975585938 570.7520141601562 204.2556915283203 565.2222900390625 202.1576385498047 557.0668334960938 C 204.2880859375 548.8651123046875 209.94223022460938 543.5192260742188 217.79322814941406 541.8212890625 C 225.5 544.0096435546875 230.99038696289062 549.5 233.4752197265625 557.4059448242188" stroke-width="0.0" fill="rgb(131, 122, 110)" opacity="0.9925278"/>
    <path d="M 302.953125 110.42234802246094 C 300.8985900878906 118.38713836669922 295.3879089355469 123.9003677368164 287.7951965332031 125.94161224365234 C 280.0234069824219 123.22251892089844 273.7633056640625 116.97644805908203 271.0962829589844 110.6707534790039 C 274.55078125 102.6559066772461 278.89788818359375 96.18974304199219 287.659423828125 94.0474853515625 C 295.3836669921875 96.10289764404297 300.89251708984375 101.61829376220703 302.953125 110.42234802246094" stroke-width="0.0" fill="rgb(19, 15, 21)" opacity="0.9900273"/>
    <path d="M 363.9485778808594 323.6623840332031 C 361.8993835449219 331.38909912109375 356.3880310058594 336.8969421386719 348.8119201660156 338.932373046875 C 340.32159423828125 336.375 334.99261474609375 330.54638671875 332.5603942871094 322.5392761230469 C 334.26519775390625 314.7210693359375 339.680419921875 309.14495849609375 347.1704406738281 308.6227111816406 C 355.7484436035156 310.4173583984375 361.7742004394531 314.8912658691406 363.9485778808594 323.6623840332031" stroke-width="0.0" fill="rgb(24, 22, 26)" opacity="0.99003416"/>
    <path d="M 456.95703125 448.1328125 C 454.905517578125 456.39520263671875 449.39361572265625 461.9017639160156 441.3802490234375 463.95208740234375 C 432.62005615234375 461.892333984375 427.1125793457031 456.3778076171875 425.0511779785156 447.76129150390625 C 427.1049499511719 439.6150817871094 432.61419677734375 434.1027526855469 441.1941833496094 432.0448913574219 C 449.3831481933594 434.1033020019531 454.8945617675781 439.6178894042969 456.95703125 448.1328125" stroke-width="0.0" fill="rgb(16, 15, 22)" opacity="1.0"/>
    <path d="M 598.8980712890625 84.8437728881836 C 596.8854370117188 92.37020111083984 591.3684692382812 97.88150787353516 582.6700439453125 99.94783020019531 C 574.6205444335938 97.89090728759766 569.1093139648438 92.37950134277344 567.1013793945312 84.82577514648438 C 570.6323852539062 77.16435241699219 576.2188720703125 71.7955322265625 583.0778198242188 69.91893005371094 C 589.7739868164062 71.77803802490234 595.263427734375 77.21263122558594 598.8980712890625 84.8437728881836" stroke-width="0.0" fill="rgb(49, 48, 53)" opacity="0.9900175"/>
    <path d="M 224.95957946777344 281.5880126953125 C 222.8954315185547 290.3795166015625 217.37791442871094 295.8916931152344 208.37840270996094 297.95794677734375 C 200.59815979003906 295.91314697265625 195.09690856933594 290.39739990234375 193.04849243164062 282.3270568847656 C 195.10519409179688 273.6163330078125 200.617431640625 268.1077575683594 209.314697265625 266.05059814453125 C 217.3946533203125 268.0975341796875 222.90670776367188 273.60357666015625 224.95957946777344 281.5880126953125" stroke-width="0.0" fill="rgb(13, 10, 14)" opacity="1.0"/>
    <path d="M 237.72767639160156 552.5578002929688 C 235.6869354248047 560.1105346679688 230.04095458984375 565.4798583984375 222.21664428710938 567.1959838867188 C 214.50067138671875 564.9893798828125 209.0100860595703 559.4994506835938 206.5599822998047 551.6000366210938 C 208.35609436035156 543.8353271484375 213.79364013671875 538.2396240234375 221.7130584716797 536.1278686523438 C 230.0582275390625 538.3134765625 235.29275512695312 544.0804443359375 237.72767639160156 552.5578002929688" stroke-width="0.0" fill="rgb(126, 116, 105)" opacity="1.0"/>
    <path d="M 395.9027099609375 502.17047119140625 C 392.99322509765625 510.4908752441406 387.4788513183594 515.9517822265625 379.4499816894531 518.623779296875 C 371.78643798828125 516.7257690429688 366.2573547363281 511.21990966796875 364.3653259277344 503.5934143066406 C 367.21441650390625 495.4911804199219 372.0981140136719 489.3337707519531 380.706298828125 487.05853271484375 C 388.37005615234375 489.1162414550781 393.88690185546875 494.6285095214844 395.9027099609375 502.17047119140625" stroke-width="0.0" fill="rgb(81, 70, 54)" opacity="1.0"/>
    <path d="M 295.9532470703125 263.23406982421875 C 293.80194091796875 272.10748291015625 287.1686096191406 276.25897216796875 279.3078308105469 278.1737365722656 C 272.3169860839844 277.07366943359375 266.3572998046875 271.9205322265625 264.0569763183594 263.2411804199219 C 266.09759521484375 255.6053924560547 271.6051025390625 250.09701538085938 280.3664855957031 248.0430450439453 C 288.4031982421875 250.0916290283203 293.9142761230469 255.59423828125 295.9532470703125 263.23406982421875" stroke-width="0.0" fill="rgb(17, 14, 19)" opacity="1.0"/>
    <path d="M 379.3788146972656 304.0853576660156 C 377.2854309082031 312.1574401855469 372.2961120605469 317.8677673339844 364.7273864746094 319.93450927734375 C 356.37615966796875 317.51348876953125 351.5387878417969 311.1697082519531 348.0946350097656 303.1441955566406 C 350.107666015625 295.624755859375 355.6379089355469 290.14306640625 363.29278564453125 288.2557067871094 C 371.5 291.0096130371094 376.9903869628906 296.5 379.3788146972656 304.0853576660156" stroke-width="0.0" fill="rgb(22, 21, 24)" opacity="0.99001986"/>
    <path d="M 241.94357299804688 438.6910095214844 C 239.89553833007812 447.39349365234375 234.39974975585938 452.9108581542969 226.8684539794922 454.9267883300781 C 218.5011749267578 451.9892272949219 213.0113067626953 446.4986877441406 210.36155700683594 438.3843688964844 C 212.18521118164062 430.6673583984375 217.64202880859375 425.1160888671875 225.79141235351562 423.0537414550781 C 234.38377380371094 425.10845947265625 239.8954315185547 430.6146240234375 241.94357299804688 438.6910095214844" stroke-width="0.0" fill="rgb(22, 23, 27)" opacity="1.0"/>
    <path d="M 521.9496459960938 155.33457946777344 C 519.872802734375 164.3629913330078 514.36962890625 169.88816833496094 505.7418518066406 171.9530029296875 C 497.60760498046875 169.90325927734375 492.11328125 164.3859100341797 490.140869140625 156.74424743652344 C 492.25823974609375 147.69772338867188 497.6442565917969 142.1051025390625 505.434326171875 140.04237365722656 C 514.3833618164062 142.1064453125 519.8988647460938 147.6143035888672 521.9496459960938 155.33457946777344" stroke-width="0.0" fill="rgb(12, 12, 16)" opacity="1.0"/>
    <path d="M 226.9633331298828 159.94956970214844 C 224.8412322998047 167.3502655029297 219.32205200195312 172.74623107910156 211.3446807861328 175.57763671875 C 203.98233032226562 173.66876220703125 198.58421325683594 167.9055938720703 197.8469696044922 160.66761779785156 C 199.3863525390625 152.77548217773438 204.8725128173828 147.57862854003906 212.469482421875 145.59507751464844 C 219.501953125 147.00302124023438 224.9904327392578 152.4998321533203 226.9633331298828 159.94956970214844" stroke-width="0.0" fill="rgb(245, 246, 247)" opacity="1.0"/>
    <path d="M 388.9418640136719 447.4515075683594 C 386.89276123046875 455.38671875 381.3916931152344 460.90447998046875 373.2137756347656 462.95880126953125 C 364.6014709472656 460.9069519042969 359.09716796875 455.396728515625 357.0434265136719 446.7414855957031 C 359.08782958984375 438.5939636230469 364.59454345703125 433.0893249511719 372.1156311035156 431.1588439941406 C 381.0171813964844 434.5705871582031 386.8401794433594 438.7447814941406 388.9418640136719 447.4515075683594" stroke-width="0.0" fill="rgb(22, 15, 21)" opacity="0.9900233"/>
    <path d="M 176.9499053955078 487.1380310058594 C 174.88949584960938 495.38177490234375 169.3859100341797 500.8992614746094 161.2067413330078 502.95489501953125 C 152.6107635498047 500.8990478515625 147.0978546142578 495.3905334472656 145.04547119140625 487.6646728515625 C 147.1707000732422 478.7609558105469 152.8824920654297 473.509521484375 161.31167602539062 471.5841064453125 C 169.26400756835938 473.298095703125 174.86880493164062 478.6778869628906 176.9499053955078 487.1380310058594" stroke-width="0.0" fill="rgb(17, 18, 21)" opacity="1.0"/>
    <path d="M 137.94354248046875 124.42000579833984 C 135.89254760742188 132.3814239501953 130.38070678710938 137.89071655273438 121.43525695800781 139.9517364501953 C 113.60514068603516 137.9061737060547 108.11288452148438 132.387451171875 106.14309692382812 124.7412338256836 C 108.26787567138672 115.71489715576172 113.66580200195312 110.12591552734375 122.39144134521484 108.0482406616211 C 130.3804931640625 110.10686492919922 135.88414001464844 115.62313842773438 137.94354248046875 124.42000579833984" stroke-width="0.0" fill="rgb(29, 27, 30)" opacity="1.0"/>
    <path d="M 82.94599914550781 340.2857360839844 C 80.74567413330078 349.0818176269531 74.87117767333984 354.2108459472656 67.09526062011719 355.94482421875 C 59.77500534057617 353.8061218261719 54.69468307495117 348.01806640625 52.92871856689453 340.46142578125 C 54.33190155029297 333.3962707519531 59.1546516418457 327.51513671875 67.84547424316406 325.06842041015625 C 75.3957748413086 327.0931396484375 80.89930725097656 332.6074523925781 82.94599914550781 340.2857360839844" stroke-width="0.0" fill="rgb(21, 23, 27)" opacity="0.9900256"/>
    <path d="M 515.600341796875 332.5017395019531 C 513.66796875 340.0856018066406 507.9856872558594 345.3304748535156 499.3276672363281 347.7713623046875 C 491.77227783203125 345.7676086425781 486.2501525878906 340.2196960449219 485.3004455566406 332.59173583984375 C 486.4073791503906 323.918701171875 491.9398498535156 318.476806640625 500.21990966796875 316.2723693847656 C 507.57830810546875 318.7995300292969 512.9945678710938 324.48699951171875 515.600341796875 332.5017395019531" stroke-width="0.0" fill="rgb(214, 222, 228)" opacity="1.0"/>
    <path d="M 280.1745300292969 377.8429260253906 C 279.55645751953125 386.0162048339844 274.0152587890625 391.5616760253906 266.3583984375 393.7259826660156 C 258.1705627441406 391.4058837890625 252.82229614257812 385.7593078613281 251.3073272705078 378.1077575683594 C 253.08082580566406 370.4997253417969 258.42279052734375 364.8341979980469 265.4927978515625 363.648681640625 C 273.1238708496094 365.50408935546875 278.8340148925781 370.76947021484375 280.1745300292969 377.8429260253906" stroke-width="0.0" fill="rgb(251, 252, 252)" opacity="1.0"/>
    <path d="M 464.9533386230469 476.1073303222656 C 462.9034118652344 484.39190673828125 457.384521484375 489.8848876953125 448.3787841796875 491.9453125 C 440.6178283691406 489.8973693847656 435.107177734375 484.3800354003906 433.042724609375 476.3916320800781 C 435.1083984375 467.6187438964844 440.6173095703125 462.1050720214844 449.2818298339844 460.0487060546875 C 457.38946533203125 462.0998840332031 462.8991394042969 467.6109619140625 464.9533386230469 476.1073303222656" stroke-width="0.0" fill="rgb(18, 15, 20)" opacity="1.0"/>
    <path d="M 179.93833923339844 108.34017944335938 C 177.66175842285156 116.14606475830078 170.7620849609375 121.1377944946289 163.1095733642578 123.16759490966797 C 155.62855529785156 122.87862396240234 150.10626220703125 117.37781524658203 148.0474090576172 108.81792449951172 C 150.11203002929688 100.6272201538086 155.62806701660156 95.11425018310547 164.230712890625 93.05315399169922 C 172.37490844726562 95.11156463623047 177.88539123535156 100.6264419555664 179.93833923339844 108.34017944335938" stroke-width="0.0" fill="rgb(33, 32, 38)" opacity="0.9902326"/>
    <path d="M 278.72210693359375 69.39640045166016 C 276.7224426269531 77.24842071533203 271.2931823730469 82.840576171875 263.56158447265625 84.90133666992188 C 254.9249725341797 82.68675231933594 249.54885864257812 76.9852523803711 247.54527282714844 69.07647705078125 C 249.6706085205078 61.22373962402344 255.25662231445312 55.76871871948242 262.6062927246094 53.781490325927734 C 270.4160461425781 56.284969329833984 276.2922058105469 61.3764762878418 278.72210693359375 69.39640045166016" stroke-width="0.0" fill="rgb(191, 191, 188)" opacity="1.0"/>
    <path d="M 498.4201354980469 82.80083465576172 C 496.5791015625 90.09485626220703 491.0440368652344 95.42874908447266 483.650634765625 97.0876693725586 C 477.1524353027344 95.34356689453125 471.69927978515625 89.83434295654297 469.7104187011719 82.413818359375 C 471.1694030761719 75.66907501220703 476.66802978515625 70.16667938232422 484.14031982421875 68.48792266845703 C 491.60626220703125 69.90530395507812 497.376708984375 75.28913879394531 498.4201354980469 82.80083465576172" stroke-width="0.0" fill="rgb(243, 252, 252)" opacity="1.0"/>
    <path d="M 244.957275390625 353.5322570800781 C 242.9056854248047 362.3986511230469 237.3998565673828 367.9085998535156 228.78353881835938 369.95916748046875 C 220.6042938232422 367.9053955078125 215.09732055664062 362.39453125 213.0510711669922 354.4692687988281 C 215.10165405273438 345.6070556640625 220.60360717773438 340.0931396484375 228.35401916503906 338.0445861816406 C 237.3778076171875 340.11444091796875 242.9036407470703 345.61407470703125 244.957275390625 353.5322570800781" stroke-width="0.0" fill="rgb(12, 9, 16)" opacity="1.0"/>
    <path d="M 390.7030944824219 291.8482666015625 C 388.86773681640625 299.3537902832031 383.34710693359375 304.849365234375 375.7135009765625 306.762939453125 C 367.5440979003906 303.95794677734375 362.1592712402344 298.4198303222656 360.8619689941406 291.7295227050781 C 362.8203125 284.2019348144531 367.8544616699219 277.3534240722656 375.5478515625 275.0764465332031 C 383.2242126464844 277.1632995605469 387.30255126953125 283.23516845703125 390.7030944824219 291.8482666015625" stroke-width="0.0" fill="rgb(11, 14, 27)" opacity="0.9900104"/>
    <path d="M 529.9512329101562 323.7431945800781 C 527.9097290039062 331.4006652832031 522.3986206054688 336.90484619140625 514.8804931640625 338.9036560058594 C 507.36358642578125 335.126708984375 501.9144287109375 329.6214294433594 499.950927734375 322.2677917480469 C 501.75689697265625 316.08660888671875 506.90130615234375 310.2685241699219 514.1791381835938 307.9407043457031 C 522.0811767578125 309.56646728515625 527.8153686523438 314.7835998535156 529.9512329101562 323.7431945800781" stroke-width="0.0" fill="rgb(20, 18, 26)" opacity="0.9900303"/>
    <path d="M 414.9548034667969 368.6345520019531 C 412.89581298828125 377.3883056640625 407.3891296386719 382.8976135253906 399.4219665527344 384.94427490234375 C 390.63916015625 382.87615966796875 385.1223449707031 377.3614807128906 383.0621643066406 369.2212219238281 C 385.1192626953125 360.6283264160156 390.6258239746094 355.11309814453125 399.498046875 353.0462341308594 C 407.39556884765625 355.0931091308594 412.9026184082031 360.6062927246094 414.9548034667969 368.6345520019531" stroke-width="0.0" fill="rgb(21, 20, 24)" opacity="0.99017024"/>
    <path d="M 340.9569396972656 458.758544921875 C 338.9054870605469 467.39794921875 333.39874267578125 472.90728759765625 325.41729736328125 474.9549255371094 C 316.63372802734375 472.8840026855469 311.1206970214844 467.36431884765625 309.0561218261719 458.5390625 C 311.10552978515625 450.6118469238281 316.6080627441406 445.0965881347656 324.39239501953125 443.053466796875 C 333.37744140625 445.1178894042969 338.9007873535156 450.61480712890625 340.9569396972656 458.758544921875" stroke-width="0.0" fill="rgb(15, 15, 20)" opacity="1.0"/>
    <path d="M 490.77001953125 566.6566772460938 C 488.7806701660156 574.2579956054688 483.2691345214844 579.8071899414062 475.5642395019531 581.8740234375 C 466.81573486328125 579.7030639648438 461.2511901855469 574.2020263671875 459.1296081542969 565.9033203125 C 461.20599365234375 557.7213134765625 466.72137451171875 552.2069091796875 474.365478515625 550.292724609375 C 482.4975891113281 553.0162353515625 487.99432373046875 558.4993896484375 490.77001953125 566.6566772460938" stroke-width="0.0" fill="rgb(134, 123, 111)" opacity="1.0"/>
    <path d="M 104.87716674804688 308.7339782714844 C 102.84947204589844 316.3204345703125 97.30709075927734 321.8176574707031 89.51506042480469 323.6711730957031 C 80.89862823486328 321.654052734375 75.54164123535156 316.0448913574219 74.86300659179688 308.23992919921875 C 76.28816986083984 300.613037109375 81.52278137207031 295.01751708984375 89.20985412597656 292.7689208984375 C 96.93502044677734 294.5801696777344 102.53921508789062 300.0250549316406 104.87716674804688 308.7339782714844" stroke-width="0.0" fill="rgb(215, 218, 226)" opacity="1.0"/>
    <path d="M 415.9202880859375 521.7960205078125 C 413.8248596191406 530.2921752929688 408.2774658203125 535.7876586914062 399.7973937988281 537.8765258789062 C 391.82464599609375 535.7571411132812 386.4844055175781 530.0911865234375 384.78533935546875 522.2369384765625 C 387.0209045410156 514.5132446289062 392.517578125 509.0359191894531 400.7304382324219 506.1730651855469 C 408.3049621582031 508.1734313964844 413.8345642089844 513.6917724609375 415.9202880859375 521.7960205078125" stroke-width="0.0" fill="rgb(109, 93, 76)" opacity="0.9938352"/>
    <path d="M 240.199951171875 150.56698608398438 C 239.6241455078125 158.01914978027344 233.93467712402344 163.36720275878906 225.95782470703125 164.64967346191406 C 218.50018310546875 162.99192810058594 213.01077270507812 157.49908447265625 210.35621643066406 149.3836212158203 C 212.193359375 141.69322204589844 217.69581604003906 136.20079040527344 225.34791564941406 134.45762634277344 C 233.90274047851562 136.85873413085938 239.55624389648438 141.99658203125 240.199951171875 150.56698608398438" stroke-width="0.0" fill="rgb(246, 246, 244)" opacity="1.0"/>
    <path d="M 349.0424499511719 328.45977783203125 C 347.1273193359375 335.72381591796875 341.86224365234375 341.6890869140625 334.3648681640625 344.6010437011719 C 327.0137634277344 342.62481689453125 321.67034912109375 336.8729553222656 319.6675109863281 329.1867370605469 C 321.66619873046875 321.0179443359375 326.9249572753906 315.3498229980469 334.4470520019531 314.8558044433594 C 343.07745361328125 315.42431640625 347.31488037109375 321.2469482421875 349.0424499511719 328.45977783203125" stroke-width="0.0" fill="rgb(249, 249, 248)" opacity="0.99001646"/>
    <path d="M 192.2144775390625 329.2781066894531 C 190.61624145507812 337.21942138671875 185.30630493164062 342.86785888671875 177.22093200683594 344.9465026855469 C 168.62510681152344 342.8846740722656 163.1090545654297 337.37738037109375 161.0477294921875 329.2432556152344 C 163.1106719970703 320.6224060058594 168.62042236328125 315.10626220703125 176.1611785888672 313.0929870605469 C 184.50140380859375 316.0077819824219 189.99180603027344 321.49871826171875 192.2144775390625 329.2781066894531" stroke-width="0.0" fill="rgb(24, 21, 27)" opacity="1.0"/>
    <path d="M 324.95379638671875 184.4861297607422 C 322.9076843261719 192.4004669189453 317.40008544921875 197.90675354003906 308.66058349609375 199.95587158203125 C 300.5963134765625 197.9107208251953 295.08551025390625 192.40533447265625 293.0420227050781 184.69891357421875 C 295.1183166503906 175.66773986816406 300.8077392578125 171.54013061523438 309.2471618652344 169.95167541503906 C 317.1363525390625 171.52532958984375 322.86749267578125 175.69522094726562 324.95379638671875 184.4861297607422" stroke-width="0.0" fill="rgb(24, 19, 24)" opacity="0.99012095"/>
    <path d="M 580.9617309570312 280.30047607421875 C 578.9135131835938 288.40362548828125 573.4003295898438 293.906005859375 565.27197265625 295.9566955566406 C 556.6017456054688 293.9054870605469 551.0946044921875 288.3982849121094 549.0457763671875 279.9179992675781 C 551.1016235351562 271.6105651855469 556.6072387695312 266.0941467285156 564.3704223632812 264.0478515625 C 573.3855590820312 266.1104736328125 578.9071655273438 271.60699462890625 580.9617309570312 280.30047607421875" stroke-width="0.0" fill="rgb(14, 10, 15)" opacity="1.0"/>
    <path d="M 331.9129333496094 527.5074462890625 C 329.7682800292969 536.2229614257812 324.2181091308594 541.75634765625 316.31884765625 543.8517456054688 C 307.7731628417969 541.734130859375 302.19384765625 536.2562255859375 300.09521484375 528.2932739257812 C 302.1994934082031 519.7191772460938 307.7085876464844 514.1746215820312 316.06365966796875 512.0782470703125 C 324.316650390625 514.1622314453125 329.8397216796875 519.6826171875 331.9129333496094 527.5074462890625" stroke-width="0.0" fill="rgb(108, 96, 78)" opacity="1.0"/>
    <path d="M 90.86210632324219 572.0221557617188 C 88.7176742553711 580.157958984375 83.14860534667969 585.6961059570312 75.42962646484375 587.801025390625 C 66.89029693603516 585.60693359375 61.28705978393555 580.1493530273438 59.173057556152344 572.0411376953125 C 61.259071350097656 563.7789916992188 66.78211212158203 558.267822265625 75.59408569335938 556.1156616210938 C 83.25750732421875 558.1948852539062 88.75627136230469 563.7630615234375 90.86210632324219 572.0221557617188" stroke-width="0.0" fill="rgb(138, 134, 125)" opacity="0.9939895"/>
    <path d="M 349.9548645019531 131.49034118652344 C 347.9125061035156 139.40673828125 342.40863037109375 144.91693115234375 334.6257629394531 146.958984375 C 325.5989074707031 144.90354919433594 320.0831604003906 139.40667724609375 318.0404968261719 131.55255126953125 C 320.0971984863281 122.60963439941406 325.61383056640625 117.1070785522461 333.7939453125 115.05061340332031 C 342.3744201660156 117.11322021484375 347.890380859375 122.6240005493164 349.9548645019531 131.49034118652344" stroke-width="0.0" fill="rgb(12, 11, 14)" opacity="1.0"/>
    <path d="M 95.90641784667969 292.5487976074219 C 93.71800231933594 301.01483154296875 87.32593536376953 305.364990234375 79.20018768310547 308.8358154296875 C 71.87012481689453 306.75396728515625 66.57135772705078 301.00103759765625 65.8240737915039 293.7076416015625 C 67.76356506347656 285.9408874511719 71.95099639892578 279.2183837890625 80.46741485595703 277.0654296875 C 88.33244323730469 279.1417541503906 93.83908081054688 284.6756591796875 95.90641784667969 292.5487976074219" stroke-width="0.0" fill="rgb(73, 67, 54)" opacity="0.9900458"/>
    <path d="M 249.94564819335938 314.7898864746094 C 247.89483642578125 322.38360595703125 242.3834228515625 327.89434814453125 234.1319122314453 329.95263671875 C 225.65370178222656 327.88427734375 220.3485565185547 322.28363037109375 218.4808349609375 314.3578186035156 C 221.6901397705078 306.9811706542969 226.00209045410156 300.19415283203125 233.33111572265625 298.05462646484375 C 240.94076538085938 300.9981689453125 247.01589965820312 307.0578918457031 249.94564819335938 314.7898864746094" stroke-width="0.0" fill="rgb(48, 56, 55)" opacity="0.99001586"/>
    <path d="M 377.7642822265625 88.01691436767578 C 375.4994812011719 95.87493133544922 369.7843017578125 101.23245239257812 362.0307312011719 103.0624008178711 C 354.1348571777344 101.21585845947266 348.3018493652344 96.04354858398438 346.2550048828125 88.55532836914062 C 348.2862243652344 79.7553482055664 353.7309265136719 74.20963287353516 361.49298095703125 72.26264190673828 C 369.9475402832031 74.49310302734375 375.55926513671875 80.03275299072266 377.7642822265625 88.01691436767578" stroke-width="0.0" fill="rgb(195, 205, 212)" opacity="1.0"/>
    <path d="M 497.82647705078125 149.31629943847656 C 495.7041015625 158.26107788085938 490.2909851074219 163.80642700195312 481.2458801269531 165.8227081298828 C 473.63922119140625 163.87115478515625 468.1199035644531 158.36451721191406 466.04766845703125 149.51486206054688 C 468.1000671386719 141.60910034179688 473.60888671875 136.0996551513672 481.17474365234375 134.06541442871094 C 490.17962646484375 136.42190551757812 495.8310852050781 141.73382568359375 497.82647705078125 149.31629943847656" stroke-width="0.0" fill="rgb(51, 58, 61)" opacity="0.9900679"/>
    <path d="M 218.5148162841797 458.5276794433594 C 216.77694702148438 466.3116760253906 211.34584045410156 471.8758544921875 202.53411865234375 473.95062255859375 C 194.60975646972656 471.90057373046875 189.10203552246094 466.38916015625 187.0524139404297 458.40478515625 C 189.13519287109375 449.6907958984375 194.76502990722656 444.3511962890625 202.67794799804688 442.7359313964844 C 210.50094604492188 445.0086975097656 215.99160766601562 450.49896240234375 218.5148162841797 458.5276794433594" stroke-width="0.0" fill="rgb(20, 19, 24)" opacity="1.0"/>
    <path d="M 369.6770324707031 106.85218811035156 C 367.8125 114.22154235839844 362.1147155761719 119.54901123046875 353.1913146972656 121.93889617919922 C 345.6061096191406 119.9025650024414 340.0958251953125 114.39460754394531 338.069091796875 106.82647705078125 C 340.3749694824219 97.76692962646484 345.69384765625 92.14327239990234 353.4529113769531 90.08097839355469 C 361.9690856933594 92.27210998535156 366.2444152832031 98.94092559814453 369.6770324707031 106.85218811035156" stroke-width="0.0" fill="rgb(31, 43, 46)" opacity="0.9900197"/>
    <path d="M 224.82403564453125 492.23358154296875 C 221.9900360107422 500.4994201660156 216.49822998046875 505.9858093261719 208.6554412841797 508.2685241699219 C 200.74371337890625 506.6711120605469 195.11854553222656 501.32940673828125 193.03775024414062 492.4747314453125 C 195.09312438964844 484.6036682128906 200.60516357421875 479.0968322753906 208.5921630859375 477.04779052734375 C 217.37445068359375 479.11346435546875 222.87518310546875 484.6297607421875 224.82403564453125 492.23358154296875" stroke-width="0.0" fill="rgb(20, 19, 24)" opacity="1.0"/>
  </g>
</svg>
