<?xml version="1.0" ?>
<svg xmlns="http://www.w3.org/2000/svg" version="1.1" width="600" height="600">
  <defs/>
  <g>
    <path d="M 257.266845703125 11.028912544250488 C 256.36041259765625 13.493042945861816 254.4350128173828 15.174962043762207 251.92953491210938 15.704183578491211 C 249.51242065429688 15.28768253326416 247.74830627441406 13.474922180175781 247.71542358398438 11.536314964294434 C 248.32139587402344 9.11040210723877 250.11709594726562 7.340401649475098 251.94485473632812 6.888649940490723 C 254.21945190429688 7.202468395233154 256.41021728515625 8.540994644165039 257.266845703125 11.028912544250488" stroke-width="0.0" fill="rgb(252, 252, 252)" opacity="0.99397314"/>
    <path d="M 132.7268524169922 286.2512512207031 C 131.69625854492188 288.58575439453125 129.3184051513672 289.98785400390625 126.85041809082031 290.2572021484375 C 124.20101165771484 290.5972595214844 123.0354232788086 288.63421630859375 122.87049102783203 286.0967712402344 C 123.27420043945312 283.9886779785156 124.94096374511719 282.1577453613281 127.32087707519531 281.74420166015625 C 129.28762817382812 281.87969970703125 131.30538940429688 283.6713562011719 132.7268524169922 286.2512512207031" stroke-width="0.0" fill="rgb(36, 36, 33)" opacity="0.9901121"/>
    <path d="M 162.41690063476562 49.21696090698242 C 161.7930450439453 51.97888946533203 160.01902770996094 53.913387298583984 157.57257080078125 53.285377502441406 C 154.52822875976562 53.087032318115234 152.69851684570312 51.54644012451172 152.15565490722656 48.91334915161133 C 152.6992645263672 46.50809860229492 154.49490356445312 44.65040588378906 156.92697143554688 43.73455047607422 C 159.51132202148438 44.685546875 161.3654327392578 46.47482681274414 162.41690063476562 49.21696090698242" stroke-width="0.0" fill="rgb(235, 235, 235)" opacity="1.0"/>
    <path d="M 300.98284912109375 171.06629943847656 C 300.21746826171875 173.41656494140625 298.3785705566406 175.09498596191406 295.6869812011719 175.31199645996094 C 293.2017517089844 175.5785675048828 291.2994384765625 173.83302307128906 291.0270690917969 171.2747344970703 C 291.88189697265625 168.65882873535156 293.6547546386719 166.8697967529297 296.1398620605469 166.19992065429688 C 298.55023193359375 166.61436462402344 300.29248046875 168.47552490234375 300.98284912109375 171.06629943847656" stroke-width="0.0" fill="rgb(253, 253, 253)" opacity="0.9943339"/>
    <path d="M 577.9019775390625 229.33041381835938 C 577.1292724609375 232.25314331054688 575.2478637695312 234.11550903320312 572.2119140625 234.83853149414062 C 568.749755859375 234.10289001464844 566.8646850585938 232.26271057128906 566.1348266601562 229.42697143554688 C 566.8978881835938 225.7582550048828 568.760009765625 223.90232849121094 572.088623046875 223.17059326171875 C 575.2232666015625 223.90586853027344 577.0975341796875 225.77566528320312 577.9019775390625 229.33041381835938" stroke-width="0.0" fill="rgb(0, 0, 0)" opacity="1.0"/>
    <path d="M 374.362548828125 188.1068878173828 C 373.53912353515625 190.6553497314453 371.6390075683594 192.4900360107422 369.0701599121094 193.3578643798828 C 366.29730224609375 192.5396728515625 364.45428466796875 190.7045440673828 363.91766357421875 188.1173553466797 C 364.7672424316406 185.61801147460938 366.6551513671875 183.88807678222656 369.15631103515625 183.20584106445312 C 371.6123962402344 183.5775604248047 373.49383544921875 185.3659210205078 374.362548828125 188.1068878173828" stroke-width="0.0" fill="rgb(255, 255, 255)" opacity="0.9916571"/>
    <path d="M 258.8212890625 315.5627136230469 C 258.08050537109375 318.2102355957031 256.2117919921875 320.0837707519531 253.24400329589844 320.8329162597656 C 249.9272003173828 319.9955749511719 248.1829833984375 318.00909423828125 247.76123046875 315.1806945800781 C 248.34432983398438 312.17681884765625 250.1407012939453 310.234619140625 252.71791076660156 309.78118896484375 C 255.7537078857422 310.4516296386719 257.71697998046875 312.1951599121094 258.8212890625 315.5627136230469" stroke-width="0.0" fill="rgb(97, 97, 97)" opacity="0.99166787"/>
    <path d="M 287.3776550292969 270.3810119628906 C 286.9507141113281 273.5832214355469 285.9049377441406 275.91943359375 282.79705810546875 276.841552734375 C 279.99481201171875 275.9969482421875 279.0745544433594 273.6947937011719 278.43402099609375 270.3008117675781 C 277.9239501953125 267.77191162109375 279.7536926269531 265.8768310546875 282.3786926269531 265.3655700683594 C 286.09637451171875 266.092041015625 287.9912109375 267.8780822753906 287.3776550292969 270.3810119628906" stroke-width="0.0" fill="rgb(19, 22, 19)" opacity="0.9911356"/>
    <path d="M 329.37091064453125 326.5892639160156 C 328.68658447265625 329.978759765625 327.0880432128906 332.027099609375 324.22698974609375 332.8283386230469 C 320.8957824707031 332.0183410644531 319.098876953125 330.0595397949219 318.1510009765625 326.3630065917969 C 318.87957763671875 323.76617431640625 320.79949951171875 321.9729919433594 323.55157470703125 322.40399169921875 C 326.6993713378906 322.6568603515625 328.8289489746094 324.1519775390625 329.37091064453125 326.5892639160156" stroke-width="0.0" fill="rgb(2, 2, 1)" opacity="0.9917214"/>
    <path d="M 244.77716064453125 171.01307678222656 C 244.3681640625 173.5876922607422 242.59152221679688 175.3825225830078 239.96937561035156 176.032470703125 C 237.5795440673828 175.21917724609375 235.6558074951172 173.45587158203125 234.6773681640625 171.03204345703125 C 235.49024963378906 168.32485961914062 237.30633544921875 166.4285430908203 239.86605834960938 165.55502319335938 C 242.55870056152344 166.6132354736328 244.3214874267578 168.45834350585938 244.77716064453125 171.01307678222656" stroke-width="0.0" fill="rgb(255, 255, 255)" opacity="0.99159956"/>
    <path d="M 414.8033752441406 440.3040771484375 C 414.1051025390625 443.25421142578125 412.2591552734375 445.1186218261719 408.6529235839844 445.8743896484375 C 405.7801208496094 445.1086120605469 403.990478515625 443.18475341796875 404.8104248046875 440.646240234375 C 404.9003601074219 437.0489807128906 405.86328125 434.92510986328125 408.7373352050781 434.1548156738281 C 412.078857421875 435.0045166015625 413.94122314453125 436.9442443847656 414.8033752441406 440.3040771484375" stroke-width="0.0" fill="rgb(4, 4, 3)" opacity="0.9905893"/>
    <path d="M 316.23016357421875 169.2609100341797 C 315.5438232421875 171.6493682861328 313.6094970703125 173.4130859375 310.95355224609375 174.36642456054688 C 308.2892761230469 173.50765991210938 306.3843688964844 171.7447967529297 306.5794372558594 169.323974609375 C 307.1709289550781 166.98350524902344 309.00616455078125 165.2368927001953 311.42291259765625 164.6868438720703 C 313.4049987792969 164.80520629882812 315.16131591796875 166.6068115234375 316.23016357421875 169.2609100341797" stroke-width="0.0" fill="rgb(252, 252, 252)" opacity="0.9932528"/>
    <path d="M 204.79583740234375 242.7191162109375 C 204.0269012451172 246.16603088378906 202.1755828857422 248.05258178710938 198.64662170410156 248.845947265625 C 195.75912475585938 248.11830139160156 193.91412353515625 246.22802734375 193.20950317382812 243.3086395263672 C 193.98126220703125 239.83937072753906 195.8349151611328 237.968994140625 199.40724182128906 237.1790313720703 C 202.22360229492188 237.9019775390625 204.0775604248047 239.7843780517578 204.79583740234375 242.7191162109375" stroke-width="0.0" fill="rgb(128, 129, 124)" opacity="1.0"/>
    <path d="M 345.734130859375 360.581787109375 C 344.82476806640625 363.9167785644531 342.887939453125 365.7430725097656 339.9308776855469 366.49200439453125 C 337.1171875 365.8324279785156 335.3949279785156 363.8019714355469 335.08306884765625 360.9678039550781 C 335.1803283691406 357.99853515625 336.9686584472656 356.0859680175781 340.0260925292969 355.58819580078125 C 343.14508056640625 356.0162048339844 345.0518798828125 357.83099365234375 345.734130859375 360.581787109375" stroke-width="0.0" fill="rgb(47, 42, 45)" opacity="0.99015856"/>
    <path d="M 271.19512939453125 260.4696044921875 C 271.4406433105469 262.3743591308594 269.2179870605469 263.9102478027344 266.6983337402344 264.2907409667969 C 264.32696533203125 264.45526123046875 262.6902770996094 262.6405334472656 262.6456298828125 259.679443359375 C 262.5077209472656 257.33892822265625 264.3616943359375 255.5888214111328 266.9729309082031 255.01470947265625 C 269.3915710449219 255.87228393554688 271.1682434082031 257.58294677734375 271.19512939453125 260.4696044921875" stroke-width="0.0" fill="rgb(252, 252, 252)" opacity="1.0"/>
    <path d="M 238.7216796875 344.0363464355469 C 237.9221649169922 347.0271301269531 236.01742553710938 348.8959655761719 232.71986389160156 349.7513122558594 C 229.94818115234375 348.9467468261719 228.12754821777344 347.026123046875 227.39349365234375 343.9300231933594 C 228.14515686035156 341.04833984375 230.0987548828125 339.3058166503906 233.19117736816406 338.79571533203125 C 235.95724487304688 339.1984558105469 237.90220642089844 341.0070495605469 238.7216796875 344.0363464355469" stroke-width="0.0" fill="rgb(74, 70, 74)" opacity="0.9905048"/>
    <path d="M 415.82476806640625 314.7308349609375 C 415.0014953613281 318.10394287109375 413.0823669433594 319.9447326660156 410.2054748535156 320.6987609863281 C 406.9709167480469 319.8833923339844 405.048095703125 318.0538635253906 404.2694396972656 315.3087463378906 C 405.1380920410156 312.03009033203125 407.0401611328125 310.1626892089844 409.8124084472656 309.3595886230469 C 413.0650939941406 310.10986328125 415.0372009277344 311.88031005859375 415.82476806640625 314.7308349609375" stroke-width="0.0" fill="rgb(69, 66, 70)" opacity="0.99075896"/>
    <path d="M 435.7021484375 225.2562255859375 C 434.9672546386719 228.0789031982422 433.05657958984375 229.9036102294922 430.0037841796875 230.6291961669922 C 426.9958190917969 229.87176513671875 425.1116638183594 228.00985717773438 424.346923828125 225.0471649169922 C 425.1270751953125 222.00218200683594 427.0000915527344 220.12103271484375 429.9082336425781 219.3485565185547 C 433.0144958496094 220.12152099609375 434.8772888183594 221.9859161376953 435.7021484375 225.2562255859375" stroke-width="0.0" fill="rgb(119, 118, 117)" opacity="1.0"/>
    <path d="M 337.5821838378906 373.9978942871094 C 336.8760681152344 377.0487060546875 335.09600830078125 379.00665283203125 332.2835388183594 379.7612609863281 C 328.8371276855469 378.9910583496094 326.9138488769531 377.1969909667969 326.1612854003906 374.34625244140625 C 326.9896240234375 370.8743591308594 328.8890380859375 369.0296325683594 332.01129150390625 368.2881774902344 C 335.0616760253906 369.04681396484375 336.880859375 370.9635009765625 337.5821838378906 373.9978942871094" stroke-width="0.0" fill="rgb(104, 104, 104)" opacity="1.0"/>
    <path d="M 235.2952880859375 2.7753658294677734 C 234.39627075195312 5.634641647338867 232.67236328125 7.531223773956299 230.00814819335938 8.182002067565918 C 227.3029327392578 7.530979156494141 225.42056274414062 5.711443901062012 224.50750732421875 3.0101983547210693 C 225.46221923828125 0.3535453677177429 227.39019775390625 -1.4174304008483887 230.00390625 -2.042107343673706 C 232.63722229003906 -1.4343135356903076 234.59262084960938 0.3136632442474365 235.2952880859375 2.7753658294677734" stroke-width="0.0" fill="rgb(255, 255, 255)" opacity="0.99220026"/>
    <path d="M 356.1669616699219 167.73101806640625 C 355.96612548828125 170.4507598876953 354.6976318359375 172.64218139648438 351.7784729003906 172.7513427734375 C 349.2626037597656 172.6395263671875 347.5203857421875 170.68763732910156 346.71673583984375 168.01931762695312 C 347.4739074707031 165.3256378173828 349.3404541015625 163.52162170410156 351.91302490234375 162.66920471191406 C 354.5028381347656 163.70668029785156 356.1136474609375 165.5561981201172 356.1669616699219 167.73101806640625" stroke-width="0.0" fill="rgb(252, 252, 252)" opacity="0.9946881"/>
    <path d="M 367.3448791503906 86.13469696044922 C 366.7000427246094 88.85057830810547 364.8666687011719 90.7514419555664 362.4046630859375 90.77648162841797 C 359.62451171875 90.15516662597656 357.8175964355469 88.38140869140625 356.8030090332031 85.91954040527344 C 357.49530029296875 83.33355712890625 359.3173522949219 81.44068145751953 361.8224792480469 80.63401794433594 C 364.5547180175781 81.61524200439453 366.3746032714844 83.44847106933594 367.3448791503906 86.13469696044922" stroke-width="0.0" fill="rgb(253, 253, 253)" opacity="0.993826"/>
    <path d="M 275.1804504394531 239.2572784423828 C 275.22137451171875 241.5414581298828 273.59649658203125 243.43035888671875 271.0201721191406 244.34774780273438 C 268.4042053222656 243.4029541015625 266.5247497558594 241.61782836914062 265.8341979980469 238.97799682617188 C 266.48162841796875 236.34645080566406 268.43701171875 234.81692504882812 271.223388671875 234.71575927734375 C 273.8043518066406 234.4580535888672 275.6015625 236.17799377441406 275.1804504394531 239.2572784423828" stroke-width="0.0" fill="rgb(252, 252, 252)" opacity="1.0"/>
    <path d="M 306.50634765625 88.21595001220703 C 305.67919921875 90.75677490234375 303.68096923828125 92.4256591796875 300.8050842285156 93.17798614501953 C 298.2305603027344 92.63873291015625 296.31597900390625 90.78426361083984 295.6365051269531 88.3332748413086 C 296.8305969238281 85.58671569824219 298.52276611328125 83.61500549316406 300.9795227050781 82.63431549072266 C 303.67449951171875 83.45148468017578 305.4299621582031 85.36174011230469 306.50634765625 88.21595001220703" stroke-width="0.0" fill="rgb(255, 255, 255)" opacity="0.99196553"/>
    <path d="M 300.8354797363281 411.6027526855469 C 300.1299133300781 414.2535705566406 298.23590087890625 416.0843811035156 294.58447265625 416.8583679199219 C 291.7607116699219 416.1177673339844 289.9057312011719 414.22967529296875 289.1282043457031 410.60693359375 C 289.86407470703125 407.7275085449219 291.72027587890625 405.8469543457031 294.434326171875 405.11822509765625 C 298.08770751953125 405.9945983886719 299.8793029785156 407.96002197265625 300.8354797363281 411.6027526855469" stroke-width="0.0" fill="rgb(7, 7, 7)" opacity="1.0"/>
    <path d="M 162.0842742919922 61.89780807495117 C 161.27490234375 64.58293914794922 159.66648864746094 66.56865692138672 157.20562744140625 67.0316390991211 C 154.5949249267578 66.20787048339844 152.75196838378906 64.41573333740234 151.4861602783203 61.75992202758789 C 152.21615600585938 59.0334587097168 153.99911499023438 57.11247253417969 156.65023803710938 57.0589599609375 C 159.3660125732422 57.8668212890625 161.20370483398438 59.612247467041016 162.0842742919922 61.89780807495117" stroke-width="0.0" fill="rgb(186, 186, 187)" opacity="0.9906732"/>
    <path d="M 256.6171875 364.8200988769531 C 256.3712158203125 367.49114990234375 254.45257568359375 369.2352600097656 251.56771850585938 370.35479736328125 C 249.46554565429688 369.72955322265625 247.98992919921875 367.267333984375 246.19039916992188 364.3358459472656 C 246.88963317871094 361.76910400390625 248.78082275390625 359.9190979003906 251.34461975097656 360.2543029785156 C 255.00514221191406 360.2921142578125 256.90472412109375 361.94744873046875 256.6171875 364.8200988769531" stroke-width="0.0" fill="rgb(23, 25, 22)" opacity="0.99015397"/>
    <path d="M 220.66380310058594 395.7118225097656 C 219.84617614746094 398.9595947265625 217.94595336914062 400.808349609375 214.9066619873047 401.6013488769531 C 211.94039916992188 400.90478515625 210.05995178222656 399.071533203125 209.5215606689453 396.3964538574219 C 210.64820861816406 393.4560852050781 212.40943908691406 391.4976501464844 215.2486114501953 390.53192138671875 C 218.04071044921875 391.1092529296875 219.96359252929688 392.9334411621094 220.66380310058594 395.7118225097656" stroke-width="0.0" fill="rgb(84, 84, 85)" opacity="0.99154294"/>
    <path d="M 224.8048553466797 425.6808166503906 C 223.93231201171875 429.0087585449219 221.96865844726562 430.8282775878906 218.78651428222656 431.7521057128906 C 216.10948181152344 430.95941162109375 215.28201293945312 428.26043701171875 214.815185546875 425.3360900878906 C 214.14500427246094 423.070556640625 216.22767639160156 421.8335266113281 219.20407104492188 421.8215637207031 C 222.09634399414062 421.17767333984375 224.05667114257812 422.83770751953125 224.8048553466797 425.6808166503906" stroke-width="0.0" fill="rgb(26, 24, 26)" opacity="0.99009037"/>
    <path d="M 429.7740173339844 315.5814208984375 C 428.9119567871094 319.05120849609375 427.0598449707031 320.9361572265625 423.9787292480469 321.6656188964844 C 420.9142761230469 320.94842529296875 419.0589294433594 319.0834655761719 418.35272216796875 316.0531311035156 C 419.0779113769531 312.9328918457031 420.9221496582031 311.04718017578125 424.406982421875 310.201904296875 C 427.1684265136719 310.9537048339844 429.0507507324219 312.82958984375 429.7740173339844 315.5814208984375" stroke-width="0.0" fill="rgb(106, 104, 105)" opacity="1.0"/>
    <path d="M 424.24798583984375 47.95653533935547 C 423.42779541015625 50.56641387939453 421.5435485839844 52.35247802734375 419.09716796875 52.94329071044922 C 416.90313720703125 52.011932373046875 415.26556396484375 50.00762939453125 414.8254089355469 47.886470794677734 C 415.25335693359375 46.06562805175781 417.0774230957031 44.289249420166016 419.5057067871094 43.81853485107422 C 421.6400451660156 43.5853157043457 423.4433898925781 45.35627365112305 424.24798583984375 47.95653533935547" stroke-width="0.0" fill="rgb(252, 252, 252)" opacity="1.0"/>
    <path d="M 207.62074279785156 337.12384033203125 C 206.84788513183594 339.9491271972656 204.91122436523438 341.7319030761719 201.77195739746094 342.5210876464844 C 199.03746032714844 341.8583984375 197.26272583007812 339.9232177734375 196.63584899902344 337.0119323730469 C 197.31619262695312 334.1471252441406 199.10748291015625 332.19866943359375 201.84811401367188 331.46575927734375 C 204.870361328125 332.2803039550781 206.7880859375 334.1065368652344 207.62074279785156 337.12384033203125" stroke-width="0.0" fill="rgb(158, 157, 159)" opacity="1.0"/>
    <path d="M 359.48760986328125 303.79571533203125 C 359.4668273925781 306.7046813964844 357.7068176269531 308.47210693359375 355.4391784667969 308.17510986328125 C 352.3091735839844 308.11083984375 350.23651123046875 306.8479309082031 349.97576904296875 304.0967712402344 C 350.6086120605469 301.45916748046875 352.4649963378906 299.6319580078125 354.7108154296875 299.7157897949219 C 357.8216247558594 299.42681884765625 359.7255554199219 301.1385498046875 359.48760986328125 303.79571533203125" stroke-width="0.0" fill="rgb(241, 242, 245)" opacity="1.0"/>
    <path d="M 337.55535888671875 330.985595703125 C 337.0047607421875 334.1610412597656 335.1775207519531 336.0530700683594 331.4529724121094 336.87872314453125 C 328.7306213378906 336.1381530761719 326.8708801269531 334.26605224609375 326.19720458984375 331.6246032714844 C 327.6136474609375 328.4380187988281 329.28302001953125 326.2317810058594 332.3125915527344 325.261962890625 C 335.1427001953125 325.97723388671875 336.98004150390625 327.87286376953125 337.55535888671875 330.985595703125" stroke-width="0.0" fill="rgb(17, 18, 16)" opacity="0.99074095"/>
    <path d="M 134.2338104248047 418.5762023925781 C 133.71743774414062 420.9453430175781 131.9416046142578 422.7077941894531 129.86416625976562 423.1987609863281 C 128.04640197753906 422.73284912109375 126.29728698730469 420.94207763671875 125.83094787597656 419.0635681152344 C 126.31765747070312 417.0849609375 128.07948303222656 415.3034973144531 130.26779174804688 414.80682373046875 C 132.53724670410156 414.97076416015625 134.47213745117188 416.3236083984375 134.2338104248047 418.5762023925781" stroke-width="0.0" fill="rgb(87, 88, 89)" opacity="0.99008656"/>
    <path d="M 372.44329833984375 143.9562225341797 C 371.49432373046875 146.6392364501953 369.640380859375 148.49374389648438 367.06939697265625 149.0908966064453 C 364.446044921875 148.3606719970703 362.5562438964844 146.57920837402344 361.9259338378906 144.06027221679688 C 362.6975402832031 141.55023193359375 364.5912780761719 139.83090209960938 367.26617431640625 138.771728515625 C 369.7239685058594 139.4182891845703 371.62701416015625 141.26063537597656 372.44329833984375 143.9562225341797" stroke-width="0.0" fill="rgb(255, 255, 255)" opacity="0.9917466"/>
    <path d="M 431.6832275390625 451.4903564453125 C 430.4246826171875 454.6316223144531 428.7048645019531 456.6480712890625 425.71014404296875 457.5911865234375 C 422.91357421875 456.9430236816406 421.06658935546875 455.0836486816406 420.3798522949219 451.7700500488281 C 421.0057678222656 448.8787841796875 422.89349365234375 447.0475769042969 426.1585693359375 446.31622314453125 C 429.11846923828125 447.0149230957031 431.00079345703125 448.8761901855469 431.6832275390625 451.4903564453125" stroke-width="0.0" fill="rgb(74, 73, 75)" opacity="1.0"/>
    <path d="M 400.7536315917969 499.30047607421875 C 400.0262451171875 502.15234375 398.15130615234375 504.023681640625 394.6441650390625 504.8539733886719 C 391.8031311035156 504.0853576660156 389.99786376953125 502.1668395996094 389.2491455078125 498.6043701171875 C 389.9167785644531 495.78564453125 391.7985534667969 493.9523620605469 395.09930419921875 493.20123291015625 C 398.11932373046875 493.9919738769531 399.9676513671875 495.8951721191406 400.7536315917969 499.30047607421875" stroke-width="0.0" fill="rgb(39, 36, 39)" opacity="1.0"/>
    <path d="M 280.73284912109375 296.2885437011719 C 280.01422119140625 299.1203308105469 278.0975341796875 300.953369140625 274.7405090332031 301.7530517578125 C 271.9129943847656 300.99755859375 270.0867919921875 299.054443359375 269.37481689453125 295.68499755859375 C 269.9728698730469 292.86651611328125 271.9130554199219 291.11328125 274.94866943359375 290.5258483886719 C 277.9797058105469 291.2236633300781 279.9534606933594 292.96038818359375 280.73284912109375 296.2885437011719" stroke-width="0.0" fill="rgb(168, 165, 164)" opacity="1.0"/>
    <path d="M 254.83377075195312 487.6344299316406 C 254.0238037109375 491.1571350097656 252.1539306640625 493.01470947265625 248.92196655273438 493.7516174316406 C 245.82904052734375 493.02655029296875 243.96182250976562 491.1752624511719 243.255615234375 488.1196594238281 C 244.01121520996094 484.878662109375 245.87013244628906 482.9882507324219 248.9580841064453 482.1968078613281 C 252.16079711914062 482.98663330078125 254.08062744140625 484.8126220703125 254.83377075195312 487.6344299316406" stroke-width="0.0" fill="rgb(48, 47, 47)" opacity="1.0"/>
    <path d="M 414.4131164550781 527.8212280273438 C 413.5329895019531 530.6743774414062 411.652099609375 532.4595947265625 409.1502685546875 533.1806640625 C 406.75775146484375 532.1084594726562 405.00146484375 530.20849609375 404.0903015136719 527.7849731445312 C 404.4615478515625 525.2555541992188 406.2294006347656 523.3839721679688 408.800048828125 523.779052734375 C 411.45361328125 523.9654541015625 413.6282653808594 525.3369140625 414.4131164550781 527.8212280273438" stroke-width="0.0" fill="rgb(249, 250, 250)" opacity="1.0"/>
    <path d="M 332.86578369140625 340.04229736328125 C 332.6416320800781 342.82794189453125 330.8475646972656 344.7038269042969 327.8605651855469 345.20361328125 C 325.33447265625 344.58184814453125 323.692626953125 342.5872802734375 323.5658264160156 339.89947509765625 C 323.5981750488281 337.38153076171875 325.3606262207031 335.5254211425781 327.73980712890625 335.7106018066406 C 330.982177734375 335.2516174316406 332.8240051269531 336.9998474121094 332.86578369140625 340.04229736328125" stroke-width="0.0" fill="rgb(224, 223, 222)" opacity="1.0"/>
    <path d="M 441.574951171875 233.91322326660156 C 440.8768615722656 237.0320281982422 439.0487365722656 238.9274444580078 436.1480407714844 239.68826293945312 C 433.0164794921875 238.87713623046875 431.2102355957031 236.95399475097656 430.4302673339844 233.79273986816406 C 431.0811462402344 230.93002319335938 432.91217041015625 229.03021240234375 435.80963134765625 228.3115692138672 C 439.0496520996094 229.0891571044922 440.9024353027344 230.95318603515625 441.574951171875 233.91322326660156" stroke-width="0.0" fill="rgb(109, 107, 109)" opacity="1.0"/>
    <path d="M 282.8419494628906 305.9140930175781 C 282.0609130859375 309.1836242675781 280.17132568359375 311.0274963378906 277.0863037109375 311.739501953125 C 273.81805419921875 311.02520751953125 271.931884765625 309.197021484375 271.1705627441406 305.958740234375 C 271.95458984375 302.8387145996094 273.8517761230469 300.9889221191406 277.0239562988281 300.2287292480469 C 280.2019348144531 300.9493408203125 282.08819580078125 302.78448486328125 282.8419494628906 305.9140930175781" stroke-width="0.0" fill="rgb(88, 87, 82)" opacity="1.0"/>
    <path d="M 422.7125549316406 366.35693359375 C 422.0859375 369.2445068359375 420.2677917480469 371.1470947265625 417.3040466308594 371.8971252441406 C 413.7420349121094 371.1258850097656 411.8791809082031 369.2560729980469 411.16119384765625 366.4419250488281 C 412.0097961425781 362.8963623046875 413.8951721191406 361.0069580078125 416.78729248046875 360.26373291015625 C 420.0252380371094 361.0835876464844 421.86724853515625 362.9926452636719 422.7125549316406 366.35693359375" stroke-width="0.0" fill="rgb(49, 51, 48)" opacity="1.0"/>
    <path d="M 424.7904357910156 328.0260314941406 C 423.94818115234375 331.02569580078125 422.0036926269531 332.8951721191406 418.80682373046875 333.80169677734375 C 415.89794921875 332.9844665527344 414.04876708984375 331.0906066894531 413.3315124511719 327.9554138183594 C 414.05364990234375 324.9586486816406 416.00177001953125 323.17779541015625 419.21624755859375 322.4932556152344 C 422.0831298828125 323.0696105957031 423.9902648925781 324.8957824707031 424.7904357910156 328.0260314941406" stroke-width="0.0" fill="rgb(62, 62, 63)" opacity="0.9904528"/>
    <path d="M 438.7606506347656 456.7747497558594 C 437.96160888671875 460.0945739746094 436.1094970703125 462.0016174316406 433.20660400390625 462.7645568847656 C 429.8785095214844 461.98870849609375 428.02752685546875 460.1159973144531 427.4538879394531 457.3677978515625 C 428.55841064453125 454.3677978515625 430.2786865234375 452.30279541015625 433.26434326171875 451.2730407714844 C 436.0800476074219 452.03839111328125 437.97198486328125 453.9164123535156 438.7606506347656 456.7747497558594" stroke-width="0.0" fill="rgb(57, 59, 59)" opacity="1.0"/>
    <path d="M 98.75174713134766 387.529052734375 C 98.06788635253906 390.1950378417969 96.19304656982422 392.0635986328125 93.01815795898438 392.8392333984375 C 89.77165985107422 392.0898742675781 87.91527557373047 390.2266540527344 87.67687225341797 387.63739013671875 C 89.28627014160156 385.1388854980469 91.19212341308594 383.4362487792969 93.15754699707031 382.91015625 C 94.81180572509766 383.4336242675781 96.84142303466797 385.10821533203125 98.75174713134766 387.529052734375" stroke-width="0.0" fill="rgb(23, 26, 25)" opacity="0.990124"/>
    <path d="M 226.59507751464844 438.94390869140625 C 225.8933868408203 442.0646057128906 224.104736328125 444.00665283203125 221.23529052734375 444.764892578125 C 217.91600036621094 443.9613342285156 216.09768676757812 442.0643310546875 215.3329620361328 438.7769775390625 C 216.06076049804688 435.9355773925781 217.93460083007812 434.0581970214844 220.8400421142578 433.3026123046875 C 224.002685546875 434.1156311035156 225.86744689941406 436.0032958984375 226.59507751464844 438.94390869140625" stroke-width="0.0" fill="rgb(107, 106, 107)" opacity="1.0"/>
    <path d="M 204.26504516601562 210.0293426513672 C 203.45022583007812 212.64108276367188 201.6597137451172 214.51174926757812 198.88482666015625 215.3763427734375 C 196.31454467773438 214.55506896972656 194.44235229492188 212.6862335205078 193.47850036621094 209.9409942626953 C 194.340576171875 207.20223999023438 196.2011260986328 205.33726501464844 198.9151611328125 204.49073791503906 C 201.658935546875 205.47457885742188 203.4897003173828 207.35125732421875 204.26504516601562 210.0293426513672" stroke-width="0.0" fill="rgb(255, 255, 255)" opacity="0.99145776"/>
    <path d="M 383.78363037109375 60.97351837158203 C 383.34161376953125 63.61241912841797 381.6866455078125 65.59729766845703 379.03106689453125 66.43318176269531 C 376.3831787109375 65.47808074951172 374.68731689453125 63.57476043701172 374.8182373046875 61.472835540771484 C 375.0604248046875 58.72197341918945 376.6588439941406 56.887908935546875 379.0215759277344 56.42488098144531 C 381.4314270019531 56.80268096923828 383.2996520996094 58.53566360473633 383.78363037109375 60.97351837158203" stroke-width="0.0" fill="rgb(252, 252, 252)" opacity="0.99450195"/>
    <path d="M 391.768310546875 313.154541015625 C 390.995361328125 316.0928955078125 389.06121826171875 317.90948486328125 386.34002685546875 318.4822692871094 C 383.2568664550781 317.54791259765625 381.2286071777344 315.8193054199219 380.24005126953125 312.66156005859375 C 381.00390625 309.8914489746094 382.901123046875 308.0299377441406 385.8370666503906 307.29150390625 C 389.0860900878906 308.07012939453125 390.9891052246094 309.8929748535156 391.768310546875 313.154541015625" stroke-width="0.0" fill="rgb(126, 127, 122)" opacity="1.0"/>
    <path d="M 252.1889190673828 251.58152770996094 C 252.94129943847656 254.1534881591797 251.18881225585938 256.0611267089844 248.11666870117188 256.8087463378906 C 244.8526153564453 256.0261535644531 242.97735595703125 254.14588928222656 242.1795196533203 251.3262176513672 C 243.26966857910156 248.57809448242188 245.92898559570312 247.2906494140625 248.01438903808594 246.86814880371094 C 249.88723754882812 247.3408203125 251.66091918945312 249.11212158203125 252.1889190673828 251.58152770996094" stroke-width="0.0" fill="rgb(55, 58, 54)" opacity="0.9901674"/>
    <path d="M 396.0953369140625 45.875030517578125 C 395.3907775878906 48.635520935058594 393.6759338378906 50.535430908203125 390.854736328125 51.41957473754883 C 388.384765625 50.54262161254883 386.63250732421875 48.55995559692383 385.6954040527344 46.05604934692383 C 386.79595947265625 43.59272003173828 388.58746337890625 41.784507751464844 391.2507019042969 40.729942321777344 C 393.6946716308594 41.41764450073242 395.46441650390625 43.341148376464844 396.0953369140625 45.875030517578125" stroke-width="0.0" fill="rgb(255, 255, 255)" opacity="0.99179536"/>
    <path d="M 124.28447723388672 112.95040130615234 C 123.4439468383789 115.72614288330078 121.84371948242188 117.80925750732422 119.35554504394531 118.53550720214844 C 116.52106475830078 117.28556060791016 114.69172668457031 115.4865951538086 113.64027404785156 112.8147964477539 C 114.34828186035156 110.23346710205078 116.27190399169922 108.47528839111328 119.03947448730469 107.593017578125 C 121.62932586669922 108.50443267822266 123.4150161743164 110.39463806152344 124.28447723388672 112.95040130615234" stroke-width="0.0" fill="rgb(217, 217, 218)" opacity="0.993988"/>
    <path d="M 370.5406494140625 385.32159423828125 C 370.0149841308594 388.1149597167969 368.0644836425781 389.8656005859375 365.15423583984375 390.34161376953125 C 362.05511474609375 389.7554626464844 360.1328125 387.98028564453125 359.3033752441406 384.7347717285156 C 360.0404968261719 381.9443054199219 361.9728698730469 380.11810302734375 365.13568115234375 379.3824768066406 C 368.0879211425781 380.0558166503906 369.9399719238281 381.9129943847656 370.5406494140625 385.32159423828125" stroke-width="0.0" fill="rgb(170, 169, 170)" opacity="1.0"/>
    <path d="M 194.74356079101562 424.745361328125 C 193.94309997558594 428.07403564453125 192.07740783691406 429.95330810546875 188.9277801513672 430.7670593261719 C 185.8665008544922 429.9943542480469 184.0001678466797 428.13568115234375 183.3080291748047 425.0394287109375 C 184.01318359375 421.8588562011719 185.8280487060547 419.9320983886719 188.77598571777344 419.1622619628906 C 192.14244079589844 419.98687744140625 194.01890563964844 421.8550720214844 194.74356079101562 424.745361328125" stroke-width="0.0" fill="rgb(61, 62, 60)" opacity="0.99136406"/>
    <path d="M 421.1718444824219 587.957763671875 C 420.3329162597656 590.5072631835938 418.52691650390625 592.4005126953125 416.1546936035156 593.184814453125 C 413.44989013671875 592.319580078125 411.53070068359375 590.591796875 410.494140625 587.9310302734375 C 411.41058349609375 585.2831420898438 413.29901123046875 583.4640502929688 415.99041748046875 582.7272338867188 C 418.5261535644531 583.628173828125 420.3028564453125 585.4946899414062 421.1718444824219 587.957763671875" stroke-width="0.0" fill="rgb(255, 255, 255)" opacity="0.9916336"/>
    <path d="M 214.7538604736328 361.6066589355469 C 213.84300231933594 364.9484558105469 211.96734619140625 366.8885803222656 208.47181701660156 367.79583740234375 C 205.74844360351562 367.119140625 203.8975372314453 365.2450866699219 203.2718963623047 362.6107177734375 C 204.3500213623047 359.1388854980469 206.0804443359375 357.16937255859375 209.5559844970703 356.24468994140625 C 212.2144775390625 356.9161071777344 214.07798767089844 358.78765869140625 214.7538604736328 361.6066589355469" stroke-width="0.0" fill="rgb(6, 6, 6)" opacity="0.99164504"/>
    <path d="M 375.2684020996094 123.21443176269531 C 374.5928955078125 125.72643280029297 372.72613525390625 127.59220123291016 370.13946533203125 128.38272094726562 C 367.347412109375 127.5067367553711 365.9487609863281 125.51322937011719 365.8593444824219 122.85243225097656 C 365.7966613769531 120.60198974609375 367.6656188964844 118.9613037109375 370.3166809082031 118.58897399902344 C 372.64617919921875 118.52133178710938 374.3833312988281 120.38021087646484 375.2684020996094 123.21443176269531" stroke-width="0.0" fill="rgb(252, 252, 252)" opacity="1.0"/>
    <path d="M 159.18478393554688 438.4115295410156 C 157.74534606933594 440.850341796875 155.78201293945312 442.5385437011719 153.86862182617188 443.0794372558594 C 152.2465362548828 442.5361328125 150.42742919921875 440.76751708984375 149.73167419433594 438.3020935058594 C 148.95640563964844 435.8023986816406 150.78697204589844 433.9122009277344 153.76052856445312 433.1532897949219 C 157.20042419433594 433.9229736328125 159.03652954101562 435.8146667480469 159.18478393554688 438.4115295410156" stroke-width="0.0" fill="rgb(8, 9, 8)" opacity="0.9900927"/>
    <path d="M 438.35321044921875 388.9379577636719 C 437.5419616699219 391.7037658691406 435.7042541503906 393.5436096191406 433.0775451660156 394.11669921875 C 430.4757995605469 393.36572265625 428.6587829589844 391.516845703125 427.9793395996094 388.9792175292969 C 428.59100341796875 386.40411376953125 430.3857727050781 384.5304870605469 433.02996826171875 383.7331237792969 C 435.58319091796875 384.5879211425781 437.46923828125 386.40008544921875 438.35321044921875 388.9379577636719" stroke-width="0.0" fill="rgb(255, 255, 255)" opacity="0.991959"/>
    <path d="M 228.44708251953125 389.1283874511719 C 228.2910614013672 391.39776611328125 226.30934143066406 393.0175476074219 223.5480499267578 394.0172119140625 C 221.00982666015625 393.85357666015625 219.14524841308594 391.9908142089844 218.38890075683594 388.8857727050781 C 219.10574340820312 385.9515686035156 220.92791748046875 384.03875732421875 223.83010864257812 383.2887268066406 C 226.9425048828125 384.142822265625 228.5476837158203 386.1439514160156 228.44708251953125 389.1283874511719" stroke-width="0.0" fill="rgb(102, 102, 103)" opacity="0.9906276"/>
    <path d="M 348.2017517089844 88.9164047241211 C 347.20745849609375 91.39349365234375 345.39410400390625 93.20957946777344 342.9382019042969 94.19802856445312 C 340.3445129394531 93.49208068847656 338.47222900390625 91.66606140136719 337.81072998046875 89.11480712890625 C 338.66986083984375 86.5 340.5 84.66987609863281 343.0322265625 83.97266387939453 C 345.6255187988281 84.56461334228516 347.5092468261719 86.35203552246094 348.2017517089844 88.9164047241211" stroke-width="0.0" fill="rgb(255, 255, 255)" opacity="0.99280924"/>
    <path d="M 242.23411560058594 221.00624084472656 C 241.3929443359375 223.59414672851562 239.63510131835938 225.5279998779297 236.93795776367188 226.52305603027344 C 234.33303833007812 225.60736083984375 232.74729919433594 223.5596466064453 231.9634552001953 220.83021545410156 C 232.54148864746094 218.34820556640625 234.32823181152344 216.47512817382812 237.10528564453125 215.6174774169922 C 239.66111755371094 216.46304321289062 241.47994995117188 218.3558349609375 242.23411560058594 221.00624084472656" stroke-width="0.0" fill="rgb(255, 255, 255)" opacity="0.991767"/>
    <path d="M 539.2210693359375 80.81404113769531 C 538.329345703125 83.58116912841797 536.640869140625 85.5378189086914 534.1005249023438 86.42903900146484 C 531.3617553710938 85.44752502441406 529.4577026367188 83.66657257080078 528.6691284179688 81.14956665039062 C 529.5861206054688 78.40187072753906 531.3875732421875 76.5390853881836 534.017578125 75.85841369628906 C 536.633544921875 76.51264190673828 538.48681640625 78.36798095703125 539.2210693359375 80.81404113769531" stroke-width="0.0" fill="rgb(255, 255, 255)" opacity="0.99157226"/>
    <path d="M 432.0444641113281 389.01678466796875 C 431.48040771484375 391.7119140625 429.7735595703125 393.6770324707031 427.54595947265625 393.1952819824219 C 424.94927978515625 392.8419494628906 423.3115234375 390.9847717285156 422.87542724609375 388.45501708984375 C 422.31024169921875 386.1378479003906 424.15740966796875 384.36541748046875 426.9317626953125 383.8037414550781 C 429.61395263671875 384.5307312011719 431.4085998535156 386.4044494628906 432.0444641113281 389.01678466796875" stroke-width="0.0" fill="rgb(250, 250, 249)" opacity="1.0"/>
    <path d="M 172.62986755371094 356.8594970703125 C 171.84600830078125 359.99139404296875 169.9959716796875 361.8592834472656 167.11048889160156 362.53955078125 C 164.08277893066406 361.77410888671875 162.1748046875 359.9344482421875 161.40155029296875 357.0379943847656 C 162.11622619628906 353.9555358886719 163.93429565429688 352.05340576171875 166.7411346435547 351.38250732421875 C 169.99110412597656 352.1690673828125 171.8953857421875 353.987548828125 172.62986755371094 356.8594970703125" stroke-width="0.0" fill="rgb(141, 141, 139)" opacity="1.0"/>
    <path d="M 377.7323303222656 290.2134704589844 C 377.0020751953125 293.1227111816406 375.1206970214844 294.9987487792969 372.38348388671875 295.7637023925781 C 369.0027160644531 294.8726806640625 367.20880126953125 292.97216796875 366.4639892578125 289.5834045410156 C 367.008544921875 286.86517333984375 368.84625244140625 284.9578552246094 371.72406005859375 284.19384765625 C 375.11529541015625 285.006103515625 376.9529113769531 286.8994445800781 377.7323303222656 290.2134704589844" stroke-width="0.0" fill="rgb(54, 51, 50)" opacity="0.99341553"/>
    <path d="M 346.5320739746094 105.91554260253906 C 345.7631530761719 108.92666625976562 343.936767578125 110.79373931884766 341.166748046875 111.02794647216797 C 338.3984069824219 110.41365814208984 336.5220642089844 108.62107849121094 335.825439453125 105.97213745117188 C 336.4644775390625 103.31920623779297 338.337646484375 101.52455139160156 341.1116638183594 100.54572296142578 C 343.7657165527344 101.38549041748047 345.6944580078125 103.20769500732422 346.5320739746094 105.91554260253906" stroke-width="0.0" fill="rgb(255, 255, 255)" opacity="0.9926009"/>
    <path d="M 415.7796630859375 462.43792724609375 C 414.8403625488281 466.0132141113281 413.0642395019531 467.98162841796875 410.2422790527344 468.76513671875 C 406.8612365722656 467.9767150878906 404.95208740234375 466.16424560546875 404.2182312011719 463.2406005859375 C 404.9977722167969 459.8499755859375 406.8446960449219 457.9828186035156 410.1353454589844 457.2086181640625 C 413.1751403808594 457.967041015625 415.0864562988281 459.8034362792969 415.7796630859375 462.43792724609375" stroke-width="0.0" fill="rgb(88, 86, 87)" opacity="1.0"/>
    <path d="M 401.1462097167969 61.00505065917969 C 400.47467041015625 63.613555908203125 398.5712585449219 65.32247924804688 395.7705993652344 66.26414489746094 C 393.27801513671875 65.58682250976562 391.4219665527344 63.71986770629883 391.0554504394531 61.24533462524414 C 391.81793212890625 58.558414459228516 393.5272521972656 56.72547912597656 396.1184997558594 55.94995880126953 C 398.5796203613281 56.6207389831543 400.4646301269531 58.3946533203125 401.1462097167969 61.00505065917969" stroke-width="0.0" fill="rgb(255, 255, 255)" opacity="0.99198097"/>
    <path d="M 334.6174621582031 320.30438232421875 C 333.9178161621094 323.0334777832031 332.0255432128906 324.8950500488281 329.2696838378906 325.6088562011719 C 326.4094543457031 324.3800048828125 324.3058166503906 322.7027587890625 323.4768371582031 320.1097106933594 C 324.2561950683594 317.1054992675781 326.0994567871094 315.2367858886719 329.16949462890625 314.4152526855469 C 331.88818359375 315.18450927734375 333.70318603515625 317.15240478515625 334.6174621582031 320.30438232421875" stroke-width="0.0" fill="rgb(134, 138, 136)" opacity="1.0"/>
    <path d="M 14.19843864440918 65.33550262451172 C 13.725996017456055 66.92829895019531 11.906452178955078 68.66742706298828 9.867505073547363 69.15813446044922 C 7.976937294006348 68.72386169433594 5.831303596496582 67.15726470947266 5.70090389251709 65.56283569335938 C 6.33245849609375 63.09831237792969 8.08691692352295 61.3032341003418 9.782011985778809 60.832603454589844 C 11.876243591308594 61.34954071044922 13.65601921081543 63.1215705871582 14.19843864440918 65.33550262451172" stroke-width="0.0" fill="rgb(77, 79, 77)" opacity="0.99006957"/>
    <path d="M 173.7723388671875 150.6233673095703 C 172.78475952148438 153.74595642089844 170.52296447753906 155.15846252441406 168.0508575439453 155.59457397460938 C 165.85183715820312 154.92869567871094 164.01402282714844 153.1669464111328 162.55868530273438 150.54122924804688 C 163.0242156982422 147.84649658203125 164.816650390625 145.9363555908203 168.21141052246094 145.19088745117188 C 171.2150421142578 145.916259765625 173.06417846679688 147.7920684814453 173.7723388671875 150.6233673095703" stroke-width="0.0" fill="rgb(146, 147, 147)" opacity="1.0"/>
    <path d="M 469.8333435058594 371.0687255859375 C 469.0812072753906 374.2207946777344 467.2231750488281 376.08746337890625 464.2864685058594 376.8019104003906 C 460.7911376953125 376.06536865234375 458.9201354980469 374.2141418457031 458.15966796875 370.64483642578125 C 458.8741760253906 367.74530029296875 460.7485656738281 365.88140869140625 463.74755859375 365.132568359375 C 467.24798583984375 365.8859558105469 469.09808349609375 367.7580261230469 469.8333435058594 371.0687255859375" stroke-width="0.0" fill="rgb(0, 0, 0)" opacity="1.0"/>
    <path d="M 290.30621337890625 70.41703033447266 C 289.7166442871094 72.6719970703125 287.3948059082031 74.00332641601562 285.0625 74.34024810791016 C 282.861083984375 73.89802551269531 281.0887756347656 72.14366149902344 280.4855041503906 69.65139770507812 C 280.4386901855469 67.36589813232422 282.4989929199219 65.84790802001953 284.8740234375 65.42488861083984 C 287.1566162109375 66.06555938720703 288.945556640625 67.8396224975586 290.30621337890625 70.41703033447266" stroke-width="0.0" fill="rgb(138, 139, 139)" opacity="0.99020064"/>
    <path d="M 170.32275390625 273.8929138183594 C 169.669921875 276.82806396484375 167.85226440429688 278.7430114746094 165.18788146972656 279.3366394042969 C 162.16885375976562 278.62384033203125 160.23004150390625 276.876220703125 159.4496612548828 273.92926025390625 C 160.1848602294922 271.0818786621094 162.0811767578125 269.17919921875 164.83091735839844 268.37615966796875 C 168.03855895996094 269.0579833984375 169.77711486816406 271.0162048339844 170.32275390625 273.8929138183594" stroke-width="0.0" fill="rgb(188, 181, 183)" opacity="1.0"/>
    <path d="M 296.7872619628906 254.35147094726562 C 296.0963134765625 257.23492431640625 294.2270812988281 259.0736083984375 291.0384826660156 259.76104736328125 C 287.83203125 259.037109375 285.9904479980469 257.1582946777344 285.1944580078125 253.56817626953125 C 285.9136962890625 250.79710388183594 287.8128356933594 248.95339965820312 290.8687744140625 248.1807861328125 C 294.1429748535156 248.98204040527344 296.0065612792969 250.86102294921875 296.7872619628906 254.35147094726562" stroke-width="0.0" fill="rgb(63, 63, 61)" opacity="1.0"/>
    <path d="M 214.42068481445312 392.6685791015625 C 213.37796020507812 395.564453125 211.61343383789062 397.5341796875 208.6337432861328 398.6622009277344 C 205.96900939941406 397.9091796875 204.04815673828125 396.04766845703125 203.40101623535156 393.4539489746094 C 204.32907104492188 390.1121520996094 206.06234741210938 388.1666259765625 209.1743927001953 387.36822509765625 C 212.05003356933594 388.0696105957031 213.88674926757812 389.9649658203125 214.42068481445312 392.6685791015625" stroke-width="0.0" fill="rgb(96, 97, 95)" opacity="1.0"/>
    <path d="M 346.0052795410156 85.9962158203125 C 345.33013916015625 88.5 343.5 90.33012390136719 341.0115966796875 90.99292755126953 C 338.5743713378906 90.2800521850586 336.8113708496094 88.39754486083984 335.71356201171875 85.88407897949219 C 336.5112609863281 83.3260498046875 338.3093566894531 81.4566650390625 341.0350646972656 80.65058898925781 C 343.53369140625 81.58930969238281 345.3405456542969 83.48674011230469 346.0052795410156 85.9962158203125" stroke-width="0.0" fill="rgb(255, 255, 255)" opacity="0.9924931"/>
    <path d="M 427.23681640625 375.8309631347656 C 426.3470153808594 378.5467529296875 424.5704345703125 380.424072265625 421.80615234375 381.3807067871094 C 419.2348937988281 380.6376037597656 417.3786315917969 378.75982666015625 416.4525451660156 375.865966796875 C 417.2303161621094 373.1650390625 419.3802490234375 372.0092468261719 422.0576477050781 371.8980407714844 C 424.75262451171875 371.9279479980469 426.8034973144531 373.0900573730469 427.23681640625 375.8309631347656" stroke-width="0.0" fill="rgb(250, 250, 249)" opacity="1.0"/>
    <path d="M 401.7716979980469 389.939208984375 C 401.0081481933594 393.1304016113281 399.1058349609375 394.93511962890625 395.7874755859375 395.64703369140625 C 392.92437744140625 394.9635314941406 391.1231689453125 393.0464782714844 390.564453125 389.8353576660156 C 391.0666809082031 386.8934020996094 392.8574523925781 384.9649353027344 395.8260192871094 384.241943359375 C 399.0745849609375 385.0482482910156 400.974853515625 386.9166259765625 401.7716979980469 389.939208984375" stroke-width="0.0" fill="rgb(59, 56, 57)" opacity="0.99065274"/>
    <path d="M 473.2900085449219 5.836750507354736 C 473.23681640625 8.609573364257812 471.7119445800781 10.622207641601562 469.2533874511719 11.306877136230469 C 466.4231262207031 10.345078468322754 464.5694274902344 8.599373817443848 463.57769775390625 5.9339776039123535 C 464.5157775878906 3.414138078689575 466.4582824707031 1.6631886959075928 469.083740234375 0.954560399055481 C 471.6156921386719 1.5180153846740723 473.2531433105469 3.447178602218628 473.2900085449219 5.836750507354736" stroke-width="0.0" fill="rgb(253, 253, 253)" opacity="0.9936568"/>
    <path d="M 362.3525695800781 0.18405070900917053 C 361.5428466796875 2.6462767124176025 359.5900573730469 4.347445011138916 356.9786376953125 4.78477144241333 C 354.3699645996094 4.400465965270996 352.483154296875 2.6627042293548584 351.9165344238281 0.07806869596242905 C 352.66986083984375 -2.5 354.5 -4.330127239227295 357.0 -5.0 C 359.5 -4.330127239227295 361.33013916015625 -2.5 362.3525695800781 0.18405070900917053" stroke-width="0.0" fill="rgb(255, 255, 255)" opacity="0.9930721"/>
    <path d="M 257.7020263671875 442.8188781738281 C 256.8644104003906 445.97802734375 254.96612548828125 447.8301696777344 251.98098754882812 448.5723571777344 C 249.02731323242188 447.8361511230469 247.1555938720703 445.9756164550781 246.40110778808594 442.86083984375 C 247.08302307128906 439.9569396972656 248.96229553222656 438.09857177734375 251.88275146484375 437.3839416503906 C 254.9881591796875 438.15338134765625 256.9227600097656 439.984130859375 257.7020263671875 442.8188781738281" stroke-width="0.0" fill="rgb(151, 148, 151)" opacity="1.0"/>
    <path d="M 359.49273681640625 373.6068115234375 C 358.63446044921875 376.84576416015625 356.87652587890625 378.7397155761719 353.4518737792969 379.7298278808594 C 350.8185729980469 379.0664978027344 348.97906494140625 377.1637878417969 348.20697021484375 374.1449890136719 C 349.042724609375 370.965087890625 351.0196838378906 369.19415283203125 353.8716735839844 368.9176330566406 C 356.935791015625 369.2320861816406 358.8740234375 371.029296875 359.49273681640625 373.6068115234375" stroke-width="0.0" fill="rgb(76, 72, 74)" opacity="0.9904879"/>
    <path d="M 235.67027282714844 301.599365234375 C 234.94711303710938 303.8964538574219 232.4507598876953 304.8756103515625 229.6009063720703 305.2077941894531 C 227.00936889648438 305.6950378417969 225.0811767578125 304.0486145019531 225.66461181640625 301.47186279296875 C 226.05548095703125 298.8021240234375 227.78146362304688 296.9944763183594 229.93728637695312 296.6252746582031 C 232.1095733642578 297.0605773925781 233.86280822753906 298.9161682128906 235.67027282714844 301.599365234375" stroke-width="0.0" fill="rgb(61, 63, 62)" opacity="0.9901239"/>
    <path d="M 209.16053771972656 592.959228515625 C 208.44024658203125 595.5821533203125 206.57923889160156 597.4358520507812 204.1910858154297 598.1883544921875 C 201.54129028320312 597.235107421875 199.68234252929688 595.4833374023438 198.65521240234375 592.8010864257812 C 199.39990234375 590.2691650390625 201.2831573486328 588.4472045898438 204.12503051757812 587.5986938476562 C 206.72377014160156 588.4041137695312 208.54312133789062 590.2919311523438 209.16053771972656 592.959228515625" stroke-width="0.0" fill="rgb(255, 255, 255)" opacity="0.9915459"/>
    <path d="M 500.45306396484375 353.369140625 C 498.8174133300781 356.0443115234375 497.03564453125 357.7943115234375 494.4424743652344 358.54144287109375 C 491.9523010253906 358.9017028808594 490.060791015625 357.0605163574219 489.27606201171875 353.86322021484375 C 490.0048522949219 350.8639221191406 491.85333251953125 348.9757385253906 494.9439392089844 348.20440673828125 C 498.08514404296875 349.0285339355469 499.9687194824219 350.9161071777344 500.45306396484375 353.369140625" stroke-width="0.0" fill="rgb(113, 115, 113)" opacity="1.0"/>
    <path d="M 380.82794189453125 511.9639587402344 C 380.0484619140625 515.1676635742188 378.1587219238281 517.0253295898438 374.99969482421875 517.775146484375 C 371.8053894042969 517.0490112304688 369.92694091796875 515.2032470703125 369.1593017578125 511.967041015625 C 369.9168701171875 508.7761535644531 371.7686462402344 506.89715576171875 374.6429443359375 506.1545715332031 C 378.18572998046875 506.9411315917969 380.0525817871094 508.8168640136719 380.82794189453125 511.9639587402344" stroke-width="0.0" fill="rgb(91, 93, 91)" opacity="1.0"/>
    <path d="M 241.58688354492188 242.7239532470703 C 241.3186492919922 245.75088500976562 239.883056640625 247.82009887695312 236.572021484375 248.63365173339844 C 233.8376007080078 248.04718017578125 232.03085327148438 246.1347198486328 231.6613006591797 243.3924102783203 C 232.83099365234375 240.65029907226562 234.6794891357422 238.9224853515625 237.19003295898438 238.2086944580078 C 239.58935546875 238.68634033203125 241.54779052734375 240.34288024902344 241.58688354492188 242.7239532470703" stroke-width="0.0" fill="rgb(160, 163, 162)" opacity="1.0"/>
    <path d="M 155.77439880371094 248.47706604003906 C 154.7938995361328 251.9278106689453 152.93299865722656 253.8087615966797 149.90257263183594 254.54486083984375 C 146.9732666015625 253.87620544433594 145.07057189941406 252.0448760986328 144.2357940673828 248.82101440429688 C 145.002685546875 245.89280700683594 146.91014099121094 244.04891967773438 149.9007568359375 243.31072998046875 C 153.12969970703125 244.03884887695312 155.05616760253906 245.8363494873047 155.77439880371094 248.47706604003906" stroke-width="0.0" fill="rgb(126, 125, 125)" opacity="1.0"/>
    <path d="M 153.57675170898438 281.1230163574219 C 152.68414306640625 283.7259826660156 150.6384735107422 285.41693115234375 148.00277709960938 286.02386474609375 C 145.40328979492188 285.3974304199219 143.48094177246094 283.6341247558594 142.62576293945312 280.8621826171875 C 143.31072998046875 278.1380615234375 145.08360290527344 276.1554260253906 147.76988220214844 275.4217224121094 C 150.88363647460938 276.2624206542969 152.73626708984375 278.1168212890625 153.57675170898438 281.1230163574219" stroke-width="0.0" fill="rgb(138, 137, 136)" opacity="1.0"/>
    <path d="M 365.2659912109375 19.299346923828125 C 365.2876892089844 21.60947608947754 363.69921875 23.6126766204834 361.1677551269531 24.37140655517578 C 358.5216369628906 23.25718879699707 356.5872802734375 21.527912139892578 355.712646484375 19.02681541442871 C 356.8256530761719 16.664653778076172 358.6860656738281 14.90146541595459 361.1611022949219 14.089381217956543 C 363.4676208496094 14.729931831359863 365.0761413574219 16.59698486328125 365.2659912109375 19.299346923828125" stroke-width="0.0" fill="rgb(249, 248, 249)" opacity="0.9929106"/>
    <path d="M 278.6709899902344 341.4844665527344 C 278.01898193359375 344.12030029296875 276.0748596191406 345.8847961425781 272.7375793457031 346.5692138671875 C 269.8981018066406 345.9562072753906 268.0069885253906 344.11456298828125 267.21893310546875 341.1534423828125 C 268.0239562988281 337.9215087890625 269.9566650390625 336.1269226074219 273.2583923339844 335.5361328125 C 275.89703369140625 336.1574401855469 277.6346435546875 338.1759948730469 278.6709899902344 341.4844665527344" stroke-width="0.0" fill="rgb(175, 174, 175)" opacity="1.0"/>
    <path d="M 230.43539428710938 546.8865966796875 C 229.46559143066406 549.6517944335938 227.6680450439453 551.5189208984375 225.1098175048828 551.9557495117188 C 222.37513732910156 551.394287109375 220.6837921142578 549.6090087890625 220.78306579589844 547.2206420898438 C 220.77003479003906 544.4088134765625 222.34835815429688 542.5101928710938 225.0602569580078 541.5122680664062 C 227.7240447998047 542.411376953125 229.58950805664062 544.2756958007812 230.43539428710938 546.8865966796875" stroke-width="0.0" fill="rgb(253, 253, 253)" opacity="0.9926549"/>
    <path d="M 244.44900512695312 25.835012435913086 C 243.4420928955078 28.60529327392578 241.5757598876953 30.331254959106445 238.73924255371094 31.324857711791992 C 236.29168701171875 30.611164093017578 234.4905242919922 28.676658630371094 233.66305541992188 25.94963836669922 C 234.60536193847656 23.486190795898438 236.53005981445312 21.753807067871094 239.16336059570312 21.11031150817871 C 241.81346130371094 21.37101936340332 243.69708251953125 23.166528701782227 244.44900512695312 25.835012435913086" stroke-width="0.0" fill="rgb(255, 255, 255)" opacity="0.99197036"/>
    <path d="M 181.71351623535156 315.4302062988281 C 180.9401397705078 318.0323791503906 178.97543334960938 319.7622985839844 175.61912536621094 320.4631042480469 C 172.92225646972656 319.9617614746094 171.1642608642578 318.03857421875 171.48724365234375 315.0514831542969 C 171.27008056640625 312.08984375 173.0723419189453 310.2096862792969 175.58132934570312 310.21124267578125 C 178.15985107421875 311.07843017578125 180.1513214111328 312.775390625 181.71351623535156 315.4302062988281" stroke-width="0.0" fill="rgb(84, 85, 84)" opacity="0.99019843"/>
    <path d="M 212.8522186279297 559.6448974609375 C 212.10890197753906 563.2552490234375 210.25918579101562 565.1192626953125 206.7620086669922 565.8629150390625 C 203.77301025390625 565.106689453125 201.92605590820312 563.21435546875 201.19058227539062 559.9293212890625 C 201.9202423095703 556.7864990234375 203.78102111816406 554.9050903320312 206.6938934326172 554.1303100585938 C 210.26019287109375 554.888427734375 212.14138793945312 556.7282104492188 212.8522186279297 559.6448974609375" stroke-width="0.0" fill="rgb(0, 0, 0)" opacity="1.0"/>
    <path d="M 291.51666259765625 220.2040252685547 C 290.6832275390625 222.81863403320312 288.8356018066406 224.728515625 286.33941650390625 224.5830078125 C 283.441162109375 224.29779052734375 281.59161376953125 222.58538818359375 280.74468994140625 220.03289794921875 C 281.5445861816406 217.3831787109375 283.3643493652344 215.4824981689453 285.8524169921875 214.89588928222656 C 288.58624267578125 215.6343536376953 290.4337463378906 217.39584350585938 291.51666259765625 220.2040252685547" stroke-width="0.0" fill="rgb(255, 255, 255)" opacity="0.99195635"/>
    <path d="M 283.1923522949219 370.5213928222656 C 282.7482604980469 372.99273681640625 281.0419616699219 374.898193359375 278.8126525878906 375.6988220214844 C 276.3879089355469 375.3940734863281 274.53533935546875 373.6309814453125 273.62969970703125 370.99884033203125 C 274.5966796875 368.495849609375 276.5620422363281 366.8107604980469 279.3853454589844 365.65142822265625 C 282.09942626953125 366.09832763671875 283.9847106933594 367.87359619140625 283.1923522949219 370.5213928222656" stroke-width="0.0" fill="rgb(251, 250, 250)" opacity="1.0"/>
    <path d="M 138.46897888183594 127.88955688476562 C 137.47474670410156 130.631103515625 135.5922088623047 132.32359313964844 133.16461181640625 132.46453857421875 C 130.91204833984375 131.92156982421875 129.20655822753906 130.0447998046875 128.82412719726562 127.85647583007812 C 128.76426696777344 125.34774017333984 130.2617645263672 123.39271545410156 132.8708953857422 122.60640716552734 C 135.70892333984375 123.45547485351562 137.59434509277344 125.2763442993164 138.46897888183594 127.88955688476562" stroke-width="0.0" fill="rgb(252, 252, 252)" opacity="0.99448633"/>
    <path d="M 181.2139892578125 180.243896484375 C 180.58505249023438 182.6992950439453 178.66461181640625 184.47109985351562 175.8808135986328 185.44818115234375 C 173.23681640625 184.61526489257812 171.3382110595703 182.77883911132812 170.80319213867188 180.22378540039062 C 171.68345642089844 177.46572875976562 173.45639038085938 175.6486358642578 176.1544189453125 174.975341796875 C 178.65634155273438 175.45843505859375 180.3791961669922 177.39134216308594 181.2139892578125 180.243896484375" stroke-width="0.0" fill="rgb(255, 255, 255)" opacity="0.9923782"/>
    <path d="M 389.7643127441406 584.9779663085938 C 389.3059387207031 587.53125 387.5498046875 589.3754272460938 384.9953918457031 590.2286987304688 C 382.3041687011719 589.5245971679688 380.45477294921875 587.7019653320312 379.8128967285156 585.008056640625 C 380.471923828125 582.3213500976562 382.3330993652344 580.5094604492188 385.09674072265625 579.5385131835938 C 387.6963806152344 580.4144287109375 389.40032958984375 582.3565673828125 389.7643127441406 584.9779663085938" stroke-width="0.0" fill="rgb(255, 255, 255)" opacity="0.9916632"/>
    <path d="M 198.4715118408203 305.17120361328125 C 197.76222229003906 307.91778564453125 195.8776092529297 309.5851135253906 193.32955932617188 309.1390686035156 C 190.60321044921875 308.99395751953125 188.72030639648438 307.5076904296875 188.68162536621094 305.2757873535156 C 188.528564453125 302.17987060546875 190.0970458984375 300.2049255371094 192.4951171875 300.7250671386719 C 195.57516479492188 300.8656921386719 197.53189086914062 302.3196716308594 198.4715118408203 305.17120361328125" stroke-width="0.0" fill="rgb(244, 243, 243)" opacity="1.0"/>
    <path d="M 422.886474609375 495.9270324707031 C 422.13555908203125 499.27825927734375 420.28228759765625 501.1460266113281 417.3805847167969 501.8771667480469 C 413.7650146484375 501.1076354980469 411.8829345703125 499.2384948730469 411.1256408691406 496.56097412109375 C 412.0195007324219 492.91851806640625 413.927734375 491.039794921875 416.9092102050781 490.19610595703125 C 420.2217102050781 490.9310607910156 422.1242370605469 492.7572021484375 422.886474609375 495.9270324707031" stroke-width="0.0" fill="rgb(0, 0, 0)" opacity="1.0"/>
    <path d="M 146.63485717773438 388.99554443359375 C 145.87220764160156 391.9820861816406 143.95912170410156 393.80535888671875 140.71205139160156 394.6492614746094 C 137.91851806640625 393.9516906738281 136.017822265625 392.0925598144531 135.19992065429688 388.9331359863281 C 135.96966552734375 385.84942626953125 137.867431640625 384.02081298828125 141.1360321044922 383.27471923828125 C 144.07875061035156 384.0280456542969 145.90240478515625 385.9460754394531 146.63485717773438 388.99554443359375" stroke-width="0.0" fill="rgb(105, 104, 104)" opacity="1.0"/>
    <path d="M 205.47727966308594 67.71129608154297 C 204.85940551757812 70.07598876953125 203.102294921875 71.94380187988281 200.8051300048828 73.23619079589844 C 198.41636657714844 72.4107894897461 196.5829315185547 70.58556365966797 195.5420684814453 67.87918853759766 C 196.4350128173828 65.30986022949219 198.3252716064453 63.4870491027832 201.02392578125 62.71168518066406 C 203.5806427001953 63.57640075683594 205.31640625 65.44805145263672 205.47727966308594 67.71129608154297" stroke-width="0.0" fill="rgb(252, 253, 252)" opacity="0.99233925"/>
    <path d="M 218.56134033203125 218.8013916015625 C 217.54931640625 221.68316650390625 215.66368103027344 223.48428344726562 213.07061767578125 223.95384216308594 C 210.36367797851562 223.41261291503906 208.4798126220703 221.66659545898438 207.60081481933594 218.881591796875 C 208.47027587890625 216.3888702392578 210.4756317138672 214.75704956054688 213.22544860839844 214.0438690185547 C 215.86734008789062 214.30291748046875 217.77511596679688 216.1082000732422 218.56134033203125 218.8013916015625" stroke-width="0.0" fill="rgb(255, 255, 255)" opacity="0.99183387"/>
    <path d="M 136.8179473876953 271.3148193359375 C 136.0924835205078 274.2294616699219 134.23666381835938 276.1105041503906 131.06385803222656 276.8705749511719 C 127.7660903930664 276.1063537597656 125.91275787353516 274.2265930175781 125.17192077636719 271.120361328125 C 125.9462661743164 267.83941650390625 127.86720275878906 266.0194396972656 130.9744873046875 265.30419921875 C 134.1491241455078 266.0088195800781 136.0364990234375 267.8352966308594 136.8179473876953 271.3148193359375" stroke-width="0.0" fill="rgb(93, 93, 91)" opacity="1.0"/>
    <path d="M 253.84829711914062 275.6124267578125 C 252.79364013671875 278.3314208984375 249.97158813476562 279.6341247558594 248.37889099121094 280.08807373046875 C 246.19937133789062 279.5632629394531 244.34278869628906 277.8360290527344 242.50535583496094 275.27252197265625 C 242.90052795410156 272.7795715332031 244.80166625976562 270.9617004394531 247.447998046875 271.38909912109375 C 251.03314208984375 271.2733154296875 253.0557861328125 272.8683166503906 253.84829711914062 275.6124267578125" stroke-width="0.0" fill="rgb(6, 7, 6)" opacity="0.9901285"/>
    <path d="M 281.3335266113281 412.1167297363281 C 280.4898986816406 414.6417236328125 278.6615905761719 416.55035400390625 276.151611328125 417.3533630371094 C 273.21978759765625 416.5238342285156 271.21197509765625 414.86328125 271.77374267578125 412.546875 C 271.91455078125 409.50787353515625 273.4085693359375 407.5927429199219 275.9789733886719 406.98516845703125 C 278.50732421875 407.6665954589844 280.3691101074219 409.4822998046875 281.3335266113281 412.1167297363281" stroke-width="0.0" fill="rgb(253, 253, 253)" opacity="1.0"/>
    <path d="M 476.69097900390625 210.49864196777344 C 476.0587158203125 213.2056427001953 474.208984375 215.06802368164062 470.83837890625 215.82212829589844 C 467.833740234375 215.06292724609375 466.0150451660156 213.13612365722656 465.3233642578125 210.3567657470703 C 466.3519592285156 207.50933837890625 468.8304138183594 206.21328735351562 471.067626953125 205.81671142578125 C 473.1197814941406 206.2213134765625 475.465087890625 207.67276000976562 476.69097900390625 210.49864196777344" stroke-width="0.0" fill="rgb(85, 86, 82)" opacity="0.99079037"/>
    <path d="M 456.4804382324219 66.99497985839844 C 455.64044189453125 69.73738098144531 453.6668701171875 71.3929672241211 451.2769470214844 71.42706298828125 C 448.79473876953125 70.91560363769531 446.86041259765625 69.2803726196289 445.65533447265625 66.77291870117188 C 446.31494140625 64.18783569335938 448.257568359375 62.601261138916016 451.26898193359375 62.75629425048828 C 453.6098937988281 62.66849899291992 455.55670166015625 64.32990264892578 456.4804382324219 66.99497985839844" stroke-width="0.0" fill="rgb(252, 252, 252)" opacity="1.0"/>
    <path d="M 353.5853576660156 356.3054504394531 C 353.69146728515625 358.91558837890625 351.95758056640625 360.8350524902344 348.5752258300781 361.7330627441406 C 345.83282470703125 361.0318298339844 343.9462890625 359.1756896972656 343.1887512207031 356.19287109375 C 344.08441162109375 353.12432861328125 346.4364929199219 351.9662170410156 349.1960144042969 351.58685302734375 C 351.2125549316406 351.96942138671875 352.9388122558594 353.8182678222656 353.5853576660156 356.3054504394531" stroke-width="0.0" fill="rgb(126, 124, 126)" opacity="0.99051505"/>
    <path d="M 361.3058166503906 134.6938018798828 C 360.7847900390625 137.00820922851562 359.0029296875 138.77053833007812 356.4336242675781 139.48219299316406 C 353.8598327636719 139.9573516845703 351.9244079589844 138.18142700195312 351.1565856933594 135.2423095703125 C 351.94952392578125 131.81813049316406 353.8198547363281 129.95445251464844 356.7457275390625 129.22471618652344 C 359.94512939453125 130.08506774902344 361.25885009765625 132.2308349609375 361.3058166503906 134.6938018798828" stroke-width="0.0" fill="rgb(111, 112, 111)" opacity="1.0"/>
    <path d="M 301.1145935058594 365.8927307128906 C 300.8426818847656 368.1825256347656 299.2662048339844 370.0529479980469 297.3404541015625 370.1788635253906 C 294.0782775878906 370.4659118652344 292.0583801269531 369.0328063964844 292.8011779785156 366.6355895996094 C 293.00311279296875 363.45330810546875 294.30047607421875 361.507568359375 297.2024230957031 361.81201171875 C 299.5434265136719 361.759521484375 300.97760009765625 363.5724182128906 301.1145935058594 365.8927307128906" stroke-width="0.0" fill="rgb(250, 249, 248)" opacity="1.0"/>
    <path d="M 153.3330841064453 287.0169372558594 C 152.65464782714844 289.8138122558594 150.8423309326172 291.7408752441406 148.0541229248047 292.4664306640625 C 145.0936279296875 291.75244140625 143.21139526367188 289.91766357421875 142.44851684570312 287.02545166015625 C 143.2809295654297 284.2227783203125 145.3076629638672 282.5458984375 148.01806640625 281.9783630371094 C 150.67172241210938 282.5399475097656 152.61874389648438 284.2789611816406 153.3330841064453 287.0169372558594" stroke-width="0.0" fill="rgb(128, 126, 127)" opacity="0.9916902"/>
    <path d="M 432.3956604003906 584.708251953125 C 431.3999328613281 587.6329956054688 429.66766357421875 589.5238037109375 426.89569091796875 590.379638671875 C 424.35711669921875 589.5342407226562 422.5853271484375 587.6062622070312 421.6517639160156 584.9449462890625 C 422.43182373046875 582.2831420898438 424.25494384765625 580.3470458984375 426.8472595214844 579.481689453125 C 429.7357177734375 580.4619140625 431.7027282714844 582.2117309570312 432.3956604003906 584.708251953125" stroke-width="0.0" fill="rgb(255, 255, 255)" opacity="0.99174744"/>
    <path d="M 448.45123291015625 309.3799133300781 C 447.9997863769531 312.1529541015625 446.1701965332031 314.048583984375 442.9130859375 314.842041015625 C 439.8057861328125 314.0623779296875 437.9188232421875 312.2016906738281 437.1414489746094 309.1137390136719 C 438.0103454589844 306.0304870605469 440.2618103027344 304.70184326171875 443.1420593261719 304.2508850097656 C 445.8233642578125 304.3526611328125 447.68328857421875 306.16583251953125 448.45123291015625 309.3799133300781" stroke-width="0.0" fill="rgb(81, 83, 79)" opacity="1.0"/>
    <path d="M 349.2581787109375 273.89007568359375 C 348.61407470703125 276.7794189453125 346.7707214355469 278.5798034667969 343.9702453613281 278.4059753417969 C 341.13067626953125 278.6741027832031 339.2610778808594 276.8868408203125 338.3810119628906 273.76531982421875 C 339.1766052246094 271.15447998046875 341.3152770996094 269.74334716796875 344.48529052734375 269.73370361328125 C 346.7801818847656 269.2865905761719 348.5755615234375 271.268310546875 349.2581787109375 273.89007568359375" stroke-width="0.0" fill="rgb(235, 231, 231)" opacity="1.0"/>
    <path d="M 450.82080078125 355.6134338378906 C 450.04058837890625 359.1902770996094 448.2066345214844 361.08538818359375 444.90576171875 361.86297607421875 C 441.7538146972656 361.11712646484375 439.8821716308594 359.2462158203125 439.1376647949219 356.36114501953125 C 439.899658203125 352.75885009765625 441.7564697265625 350.89300537109375 444.82293701171875 350.14532470703125 C 448.18597412109375 350.93682861328125 450.0722961425781 352.8103332519531 450.82080078125 355.6134338378906" stroke-width="0.0" fill="rgb(0, 0, 0)" opacity="1.0"/>
    <path d="M 282.317138671875 408.15301513671875 C 281.5076599121094 410.6182556152344 279.5834655761719 412.3930969238281 277.01715087890625 413.0131530761719 C 274.5023498535156 412.3291931152344 272.689208984375 410.4924621582031 272.0184631347656 407.8720703125 C 272.37896728515625 405.2103271484375 274.2205505371094 403.42071533203125 276.873779296875 403.6435241699219 C 279.499755859375 403.74676513671875 281.3531188964844 405.4726867675781 282.317138671875 408.15301513671875" stroke-width="0.0" fill="rgb(253, 253, 253)" opacity="0.9941187"/>
    <path d="M 287.37603759765625 159.71279907226562 C 287.56890869140625 162.83975219726562 285.8735656738281 164.7090606689453 283.2030334472656 165.02427673339844 C 280.4651184082031 164.30996704101562 278.6103210449219 162.55642700195312 277.7901611328125 159.9505157470703 C 278.6483459472656 157.49139404296875 280.512451171875 155.7162322998047 283.054931640625 154.686767578125 C 285.6233215332031 155.5602264404297 287.43548583984375 157.37705993652344 287.37603759765625 159.71279907226562" stroke-width="0.0" fill="rgb(254, 255, 255)" opacity="0.9931723"/>
    <path d="M 67.0490951538086 511.8397216796875 C 66.23416900634766 514.4894409179688 64.4291763305664 516.0656127929688 61.879268646240234 516.163330078125 C 59.46904373168945 516.1414794921875 57.62925338745117 514.5962524414062 57.10525131225586 511.7236633300781 C 57.38887405395508 509.2820129394531 59.30613708496094 507.460205078125 61.784976959228516 506.75640869140625 C 64.51922607421875 507.7135009765625 66.38153076171875 509.45465087890625 67.0490951538086 511.8397216796875" stroke-width="0.0" fill="rgb(251, 252, 252)" opacity="0.99683064"/>
    <path d="M 241.65452575683594 417.5769958496094 C 240.70802307128906 420.90887451171875 238.9682159423828 422.8862609863281 235.84237670898438 423.6903991699219 C 232.86744689941406 422.99627685546875 230.97531127929688 421.14276123046875 230.1666259765625 417.9339294433594 C 230.9664306640625 414.8597717285156 232.8780517578125 413.0127868652344 235.66339111328125 412.274658203125 C 239.0518035888672 413.1072998046875 240.9656982421875 414.9231872558594 241.65452575683594 417.5769958496094" stroke-width="0.0" fill="rgb(81, 81, 80)" opacity="1.0"/>
    <path d="M 514.215576171875 94.54232025146484 C 513.8147583007812 97.11783599853516 512.19970703125 99.04418182373047 509.7164611816406 100.09835815429688 C 507.2277526855469 99.65255737304688 505.38665771484375 97.7590103149414 504.6446533203125 95.19970703125 C 505.6444091796875 92.4504623413086 507.41082763671875 90.5142593383789 509.7760925292969 89.8081283569336 C 512.4854125976562 90.7716064453125 514.2416381835938 92.50727081298828 514.215576171875 94.54232025146484" stroke-width="0.0" fill="rgb(253, 253, 253)" opacity="0.9929733"/>
  </g>
</svg>
