<?xml version="1.0" ?>
<svg xmlns="http://www.w3.org/2000/svg" version="1.1" width="600" height="600">
  <defs/>
  <g>
    <path d="M 284.79827880859375 95.51567077636719 C 280.2204895019531 135.09576416015625 276.98590087890625 139.70318603515625 257.3032531738281 136.69837951660156 C 232.32920837402344 100.1983642578125 222.93624877929688 116.28079986572266 212.15162658691406 119.96119689941406 C 230.94371032714844 91.20885467529297 234.3770751953125 89.81144714355469 238.5286865234375 79.09574127197266 C 256.3518371582031 71.69481658935547 269.78033447265625 65.21711730957031 284.79827880859375 95.51567077636719" stroke-width="0.0" fill="rgb(111, 112, 112)" opacity="0.96557724"/>
    <path d="M 84.85971069335938 66.08090209960938 C 89.16670989990234 75.16515350341797 85.52467346191406 74.33635711669922 54.99226760864258 72.52059173583984 C 37.9128303527832 78.31651306152344 35.90657043457031 67.84991455078125 46.7869987487793 65.4916763305664 C 61.02885055541992 62.47311019897461 61.68447494506836 58.46724319458008 56.93572235107422 61.83421325683594 C 59.62530517578125 63.737361907958984 62.872032165527344 63.11192321777344 84.85971069335938 66.08090209960938" stroke-width="0.0" fill="rgb(138, 138, 138)" opacity="1.0"/>
    <path d="M 593.9094848632812 389.6474304199219 C 584.14990234375 391.7053527832031 585.0690307617188 388.6591796875 587.7586669921875 410.65924072265625 C 568.4826049804688 386.48992919921875 566.095703125 385.91021728515625 542.95703125 380.4946594238281 C 557.1431884765625 364.69622802734375 565.1888427734375 370.388916015625 571.8642578125 374.2485656738281 C 574.559326171875 374.6321105957031 577.9121704101562 374.4507751464844 593.9094848632812 389.6474304199219" stroke-width="0.0" fill="rgb(139, 140, 140)" opacity="1.0"/>
    <path d="M 602.9769897460938 196.8999786376953 C 599.4860229492188 197.52978515625 595.2369384765625 196.75344848632812 599.2565307617188 197.8636474609375 C 601.4161376953125 195.9813232421875 590.7654418945312 197.99423217773438 557.0780029296875 195.48312377929688 C 580.3121337890625 187.23097229003906 600.0562133789062 197.46348571777344 597.1846313476562 194.04843139648438 C 591.715576171875 193.81968688964844 596.3831787109375 193.49427795410156 602.9769897460938 196.8999786376953" stroke-width="0.0" fill="rgb(42, 44, 43)" opacity="0.8995059"/>
    <path d="M 112.83615112304688 507.204833984375 C 76.8945083618164 508.00152587890625 75.2195816040039 510.5713806152344 73.44120788574219 514.7491455078125 C 63.98945999145508 511.02850341796875 59.90335464477539 531.3270874023438 51.725215911865234 535.510986328125 C 63.22781753540039 504.5064697265625 75.4242935180664 509.67169189453125 82.57540130615234 504.23614501953125 C 96.2501449584961 502.08038330078125 106.8472900390625 486.9551696777344 112.83615112304688 507.204833984375" stroke-width="0.0" fill="rgb(81, 82, 81)" opacity="1.0"/>
    <path d="M 367.5923767089844 65.01605224609375 C 367.61865234375 67.33946990966797 382.6669616699219 70.34590911865234 384.8045349121094 92.53707122802734 C 360.68206787109375 69.50650787353516 359.1064453125 64.34980773925781 350.7625427246094 55.2951545715332 C 354.26312255859375 54.51847839355469 358.9593505859375 51.648860931396484 361.0520324707031 50.73255157470703 C 367.6587219238281 58.61640548706055 372.7897644042969 58.75030517578125 367.5923767089844 65.01605224609375" stroke-width="0.0" fill="rgb(130, 130, 130)" opacity="1.0"/>
    <path d="M 497.3940124511719 348.7703857421875 C 508.1643371582031 352.6886901855469 504.4332275390625 358.85302734375 485.2889099121094 348.00274658203125 C 476.1537170410156 338.8306579589844 464.3334655761719 342.60211181640625 443.4526062011719 321.3336486816406 C 469.8177490234375 328.8829650878906 472.8987121582031 342.1842956542969 478.033447265625 336.9544372558594 C 480.61053466796875 334.64404296875 478.9049987792969 340.0867919921875 497.3940124511719 348.7703857421875" stroke-width="0.0" fill="rgb(99, 98, 98)" opacity="1.0"/>
    <path d="M 77.211669921875 220.92332458496094 C 58.361637115478516 254.49256896972656 38.017398834228516 242.3292694091797 32.01824188232422 259.9595031738281 C 29.920515060424805 257.5704040527344 30.8719482421875 252.49832153320312 38.077735900878906 247.28733825683594 C 38.670616149902344 247.239501953125 43.84609603881836 245.5906219482422 44.93455505371094 235.96707153320312 C 30.775585174560547 215.19088745117188 30.790868759155273 206.72227478027344 77.211669921875 220.92332458496094" stroke-width="0.0" fill="rgb(75, 75, 74)" opacity="0.9532188"/>
    <path d="M 123.11187744140625 87.6171875 C 135.1635284423828 93.856689453125 133.96424865722656 99.57803344726562 126.32332611083984 97.45477294921875 C 113.6531753540039 84.31834411621094 85.90177154541016 81.23307800292969 65.71353149414062 66.49869537353516 C 90.84637451171875 63.241451263427734 109.790283203125 79.83212280273438 119.13801574707031 82.11096954345703 C 114.51725769042969 78.66204071044922 116.91509246826172 80.41390228271484 123.11187744140625 87.6171875" stroke-width="0.0" fill="rgb(12, 12, 12)" opacity="0.99316204"/>
    <path d="M 569.491455078125 352.7872314453125 C 596.399658203125 369.71240234375 603.5357666015625 368.39691162109375 574.7750244140625 390.2590026855469 C 534.03515625 395.1160888671875 530.2979125976562 391.3695983886719 526.3175048828125 374.48663330078125 C 558.9449462890625 345.269287109375 563.5573120117188 338.6169128417969 571.6847534179688 323.9936218261719 C 595.3235473632812 342.9803466796875 591.9204711914062 346.6261901855469 569.491455078125 352.7872314453125" stroke-width="0.0" fill="rgb(119, 120, 120)" opacity="0.9525724"/>
    <path d="M 462.00634765625 459.59332275390625 C 479.3817443847656 479.74005126953125 475.02203369140625 488.76019287109375 465.4012145996094 483.3399658203125 C 452.53656005859375 448.9411926269531 445.7127990722656 448.5692138671875 445.8333740234375 445.99627685546875 C 436.6649169921875 426.3758850097656 416.20989990234375 409.0532531738281 423.6375427246094 405.1352233886719 C 452.9150390625 443.4165344238281 453.3296203613281 446.79931640625 462.00634765625 459.59332275390625" stroke-width="0.0" fill="rgb(20, 21, 21)" opacity="0.9614107"/>
    <path d="M 431.0705261230469 344.5785217285156 C 448.9565734863281 352.3470458984375 441.4486999511719 373.9264221191406 434.9447326660156 355.1755676269531 C 416.9382629394531 339.606689453125 407.06427001953125 342.86016845703125 395.7088928222656 327.8744812011719 C 401.2159729003906 325.1759948730469 411.6774597167969 333.75408935546875 417.5190124511719 337.7229919433594 C 413.448974609375 335.223876953125 415.6119384765625 337.7267761230469 431.0705261230469 344.5785217285156" stroke-width="0.0" fill="rgb(35, 36, 34)" opacity="0.95460665"/>
    <path d="M 302.09326171875 400.54736328125 C 293.7215881347656 412.4478454589844 276.1611328125 401.42681884765625 257.5671081542969 404.732666015625 C 257.0186462402344 417.88714599609375 236.23074340820312 412.196044921875 227.39175415039062 391.4120178222656 C 270.6218566894531 410.38861083984375 247.74215698242188 390.0179748535156 281.16571044921875 371.9703369140625 C 296.43060302734375 368.324462890625 293.0843505859375 375.301513671875 302.09326171875 400.54736328125" stroke-width="0.0" fill="rgb(97, 97, 98)" opacity="1.0"/>
    <path d="M 301.0522766113281 372.48736572265625 C 254.8097381591797 371.7327575683594 247.88262939453125 375.9228210449219 248.645263671875 380.8697814941406 C 245.2001953125 391.936767578125 244.56759643554688 409.5444641113281 234.77236938476562 400.2042541503906 C 239.4947509765625 336.2576904296875 255.06204223632812 345.2811584472656 252.77366638183594 371.1141662597656 C 278.9989318847656 370.13153076171875 295.3143005371094 345.98583984375 301.0522766113281 372.48736572265625" stroke-width="0.0" fill="rgb(35, 35, 35)" opacity="0.9953924"/>
    <path d="M 441.91552734375 97.88475799560547 C 446.3028564453125 106.70897674560547 437.3859558105469 103.43363189697266 420.3460693359375 90.98445892333984 C 416.862060546875 87.49252319335938 413.7895202636719 86.36909484863281 405.7350769042969 79.69654083251953 C 393.6435546875 71.82318878173828 400.12200927734375 68.65448760986328 413.2635192871094 79.03778076171875 C 418.1243896484375 82.01065063476562 420.2080383300781 84.4618148803711 441.91552734375 97.88475799560547" stroke-width="0.0" fill="rgb(15, 16, 16)" opacity="0.9425204"/>
    <path d="M 554.3606567382812 124.76190185546875 C 542.768798828125 148.6968231201172 537.6649169921875 143.9581298828125 526.5623168945312 137.17626953125 C 513.41552734375 137.78611755371094 510.0332336425781 135.81253051757812 487.7411193847656 124.10149383544922 C 505.3150634765625 117.41329193115234 512.7078247070312 121.96859741210938 524.7008056640625 119.69854736328125 C 529.8062744140625 121.95285034179688 541.0850219726562 116.97432708740234 554.3606567382812 124.76190185546875" stroke-width="0.0" fill="rgb(158, 158, 158)" opacity="0.9784937"/>
    <path d="M 266.63232421875 411.7472229003906 C 266.4712219238281 448.4710388183594 259.41729736328125 451.6438293457031 213.0702667236328 474.6778259277344 C 191.3389434814453 472.9047546386719 195.65538024902344 465.59320068359375 216.6590118408203 444.211669921875 C 222.62135314941406 424.6714172363281 228.19235229492188 419.0442199707031 233.1225128173828 395.0941162109375 C 241.62548828125 392.3814697265625 246.9311065673828 399.7590637207031 266.63232421875 411.7472229003906" stroke-width="0.0" fill="rgb(103, 103, 103)" opacity="0.980209"/>
    <path d="M 437.3121643066406 72.56488037109375 C 432.5924377441406 81.0550765991211 431.37908935546875 84.35050201416016 426.2178955078125 95.02950286865234 C 425.6596374511719 86.93675994873047 431.3304138183594 78.74765014648438 432.4271240234375 76.1163558959961 C 433.5141906738281 78.66707611083984 437.6652526855469 77.72712707519531 409.8477478027344 68.22046661376953 C 448.6496887207031 73.65950012207031 448.14532470703125 63.467979431152344 437.3121643066406 72.56488037109375" stroke-width="0.0" fill="rgb(63, 64, 64)" opacity="0.9324061"/>
    <path d="M 506.2640075683594 95.48851776123047 C 500.68896484375 130.1751708984375 484.7294006347656 128.6676025390625 450.9701843261719 135.35916137695312 C 417.8538818359375 148.76795959472656 408.555419921875 140.7390594482422 405.10784912109375 113.17686462402344 C 437.20562744140625 92.3529052734375 452.1468200683594 82.03044891357422 459.74847412109375 94.52755737304688 C 465.2317810058594 104.91486358642578 470.0011291503906 100.53362274169922 506.2640075683594 95.48851776123047" stroke-width="0.0" fill="rgb(50, 49, 49)" opacity="0.90726143"/>
    <path d="M 373.2867126464844 153.2611846923828 C 347.5312805175781 183.2907257080078 343.9217529296875 186.8715362548828 322.0337219238281 228.60714721679688 C 307.5440368652344 214.05108642578125 350.4325866699219 188.51280212402344 310.43035888671875 168.57818603515625 C 321.4191589355469 167.0038604736328 335.2417297363281 177.3946075439453 349.7066955566406 170.23106384277344 C 368.5845642089844 140.26141357421875 384.85638427734375 134.75796508789062 373.2867126464844 153.2611846923828" stroke-width="0.0" fill="rgb(53, 53, 53)" opacity="0.9988061"/>
    <path d="M 455.6662902832031 495.1175231933594 C 459.9588623046875 500.0881042480469 458.2127685546875 504.3697509765625 445.71722412109375 501.8734130859375 C 423.2273254394531 502.37744140625 417.12567138671875 500.0127258300781 421.20703125 499.2028503417969 C 436.8668212890625 491.3780822753906 435.7863464355469 483.7251892089844 442.0287780761719 485.89117431640625 C 448.1015319824219 485.8760986328125 448.0857238769531 486.9474182128906 455.6662902832031 495.1175231933594" stroke-width="0.0" fill="rgb(140, 141, 140)" opacity="1.0"/>
    <path d="M 23.36114501953125 472.8416442871094 C 10.827997207641602 494.68182373046875 27.517623901367188 503.9150695800781 12.452370643615723 500.78289794921875 C -7.071881294250488 501.42633056640625 -9.03221607208252 493.62109375 -5.874972820281982 480.60650634765625 C -6.463625907897949 475.4869384765625 -9.993131637573242 464.31915283203125 1.1443499326705933 443.2458801269531 C 42.808692932128906 449.1105651855469 46.9213752746582 457.156982421875 23.36114501953125 472.8416442871094" stroke-width="0.0" fill="rgb(141, 142, 143)" opacity="0.949688"/>
    <path d="M 425.28021240234375 521.7105712890625 C 376.6690368652344 498.7359924316406 399.4766540527344 498.478515625 372.2939147949219 526.0928344726562 C 365.8113098144531 520.2862548828125 384.8133850097656 510.7858581542969 385.5642395019531 501.0257568359375 C 387.275146484375 497.4308776855469 357.323974609375 510.6260681152344 350.46441650390625 488.121337890625 C 388.782470703125 492.64825439453125 406.6679382324219 503.7931213378906 425.28021240234375 521.7105712890625" stroke-width="0.0" fill="rgb(37, 38, 38)" opacity="0.9294852"/>
    <path d="M 546.935302734375 446.28564453125 C 516.4097290039062 457.3620910644531 517.9879760742188 454.0341796875 495.62298583984375 469.7001037597656 C 489.6652526855469 461.614990234375 512.7037353515625 460.56011962890625 513.8861083984375 447.9512023925781 C 512.9888916015625 454.01971435546875 512.6152954101562 450.8309326171875 517.5848999023438 444.9150695800781 C 537.6143798828125 434.9130859375 545.0359497070312 414.4587707519531 546.935302734375 446.28564453125" stroke-width="0.0" fill="rgb(65, 65, 64)" opacity="0.88207245"/>
    <path d="M 334.8240966796875 342.4392395019531 C 323.80462646484375 345.4537353515625 320.8395080566406 347.1473388671875 319.1465759277344 348.4557189941406 C 316.7748107910156 347.79217529296875 314.82891845703125 345.18560791015625 306.6221923828125 342.44232177734375 C 304.158935546875 336.57220458984375 307.8974304199219 339.16937255859375 316.2464904785156 338.5311584472656 C 329.7759094238281 339.0448303222656 336.36834716796875 336.32965087890625 334.8240966796875 342.4392395019531" stroke-width="0.0" fill="rgb(226, 226, 226)" opacity="1.0"/>
    <path d="M 156.82696533203125 357.0235290527344 C 128.3225555419922 385.1989440917969 126.97054290771484 384.6963806152344 104.2838363647461 424.0597229003906 C 103.07693481445312 406.84716796875 126.86236572265625 388.9844055175781 127.81340026855469 375.4473876953125 C 125.75286865234375 384.9632568359375 126.90341186523438 383.97015380859375 128.07965087890625 379.9449157714844 C 142.35108947753906 364.0419006347656 160.48245239257812 347.0676574707031 156.82696533203125 357.0235290527344" stroke-width="0.0" fill="rgb(38, 38, 38)" opacity="0.9910853"/>
    <path d="M 403.8125 327.86981201171875 C 414.27996826171875 336.44976806640625 415.8841552734375 342.0489501953125 412.5848388671875 340.79302978515625 C 395.66143798828125 330.00250244140625 392.63201904296875 326.642822265625 352.2881164550781 290.3174133300781 C 369.5630798339844 288.04705810546875 380.9101867675781 314.24139404296875 396.6664733886719 321.0952453613281 C 394.9092712402344 322.2460021972656 398.9739685058594 323.731689453125 403.8125 327.86981201171875" stroke-width="0.0" fill="rgb(15, 15, 15)" opacity="0.9511782"/>
    <path d="M 526.4466552734375 409.9049377441406 C 513.0932006835938 447.94012451171875 508.228515625 451.1025085449219 496.4654235839844 459.65533447265625 C 480.1148986816406 459.0790100097656 480.54547119140625 445.60198974609375 478.36932373046875 434.1239929199219 C 499.3003845214844 441.0698547363281 508.0137939453125 435.87158203125 478.27960205078125 417.04840087890625 C 492.42547607421875 400.88299560546875 523.07666015625 402.418212890625 526.4466552734375 409.9049377441406" stroke-width="0.0" fill="rgb(107, 107, 106)" opacity="0.90084124"/>
    <path d="M 563.0185546875 327.80877685546875 C 553.8377685546875 335.0098571777344 557.4900512695312 349.6214599609375 527.373046875 378.275634765625 C 520.7699584960938 357.4271545410156 528.9705200195312 332.34881591796875 548.2593994140625 333.4720764160156 C 533.6942749023438 321.7745056152344 544.00927734375 313.4525451660156 546.4483032226562 312.395751953125 C 546.6805419921875 335.8561096191406 550.98388671875 334.94207763671875 563.0185546875 327.80877685546875" stroke-width="0.0" fill="rgb(61, 61, 61)" opacity="0.96467745"/>
    <path d="M 512.7470092773438 346.670166015625 C 486.20330810546875 339.9936218261719 484.7026062011719 341.30364990234375 484.201171875 342.2456359863281 C 478.9342041015625 338.78680419921875 475.7642822265625 338.6072692871094 471.3963623046875 335.0233459472656 C 477.9454345703125 333.39501953125 470.1731262207031 331.0896911621094 466.0908508300781 316.6986083984375 C 486.63885498046875 328.89447021484375 493.5030822753906 329.78460693359375 512.7470092773438 346.670166015625" stroke-width="0.0" fill="rgb(148, 148, 146)" opacity="1.0"/>
    <path d="M 539.76611328125 342.9605712890625 C 541.0672607421875 344.6078186035156 540.2904663085938 346.8037414550781 535.6803588867188 352.4263916015625 C 539.1229858398438 354.367431640625 529.1248779296875 370.06304931640625 504.1912536621094 356.6462707519531 C 514.8225708007812 320.51837158203125 507.9559020996094 311.0332946777344 532.7921752929688 306.2103576660156 C 541.7366333007812 334.840576171875 537.4366455078125 345.2823791503906 539.76611328125 342.9605712890625" stroke-width="0.0" fill="rgb(83, 83, 83)" opacity="0.7347979"/>
    <path d="M 600.2094116210938 452.27984619140625 C 600.3010864257812 454.6172180175781 599.420166015625 455.2928771972656 592.0526733398438 456.7314453125 C 585.689453125 455.72955322265625 574.9652099609375 460.70343017578125 561.9039916992188 448.4587707519531 C 590.269775390625 448.224365234375 593.3679809570312 450.024169921875 592.478515625 451.1304931640625 C 594.7047119140625 450.3383483886719 597.1001586914062 451.4650573730469 600.2094116210938 452.27984619140625" stroke-width="0.0" fill="rgb(153, 153, 153)" opacity="1.0"/>
    <path d="M 284.2052917480469 348.8214416503906 C 284.8492126464844 356.10443115234375 276.5467224121094 355.3687744140625 257.99468994140625 356.2102355957031 C 256.24755859375 355.2863464355469 257.2270812988281 350.9491882324219 265.0162658691406 348.68206787109375 C 265.94781494140625 346.1891784667969 268.5714111328125 344.4294128417969 268.6770935058594 344.5126647949219 C 269.9013671875 345.125 271.60150146484375 347.2304382324219 284.2052917480469 348.8214416503906" stroke-width="0.0" fill="rgb(154, 155, 155)" opacity="1.0"/>
    <path d="M 145.45114135742188 468.3877868652344 C 147.15805053710938 492.0638427734375 140.88705444335938 493.2654113769531 127.77423858642578 492.9698791503906 C 103.49333190917969 476.1705322265625 96.63217163085938 469.3020935058594 82.00049591064453 451.734130859375 C 109.91654205322266 462.806396484375 98.3918685913086 452.0802917480469 107.54700469970703 446.55389404296875 C 107.72615814208984 458.7850646972656 110.86212158203125 458.63958740234375 145.45114135742188 468.3877868652344" stroke-width="0.0" fill="rgb(78, 78, 77)" opacity="0.9749932"/>
    <path d="M 548.548095703125 216.0134735107422 C 525.0552978515625 241.05734252929688 506.94976806640625 235.6495361328125 523.0106811523438 229.37892150878906 C 523.6632080078125 225.04678344726562 517.2048950195312 227.99276733398438 477.407470703125 213.14627075195312 C 486.1703186035156 204.09689331054688 509.615478515625 225.54559326171875 528.560302734375 223.84494018554688 C 518.606201171875 226.70431518554688 526.7620239257812 227.5044708251953 548.548095703125 216.0134735107422" stroke-width="0.0" fill="rgb(31, 31, 30)" opacity="0.96612155"/>
    <path d="M 68.5367202758789 160.8280792236328 C 46.89638900756836 165.39865112304688 50.70722961425781 168.67286682128906 58.02539825439453 185.4398651123047 C 45.43145751953125 174.54757690429688 26.6188907623291 184.8197021484375 28.480560302734375 170.21609497070312 C 24.1188907623291 127.76848602294922 17.107412338256836 122.06752014160156 58.00456619262695 115.98963165283203 C 55.120304107666016 164.88905334472656 46.075767517089844 159.38247680664062 68.5367202758789 160.8280792236328" stroke-width="0.0" fill="rgb(64, 65, 64)" opacity="0.8973051"/>
    <path d="M 562.2040405273438 291.0079345703125 C 557.4765625 320.783203125 553.1712646484375 322.31121826171875 538.0652465820312 306.05670166015625 C 540.1243286132812 326.18865966796875 523.12646484375 343.3568420410156 517.9281005859375 297.6754150390625 C 522.819091796875 275.4630126953125 516.3167724609375 284.7001037597656 531.8165893554688 260.03070068359375 C 573.1106567382812 268.4100646972656 566.4300537109375 271.4214782714844 562.2040405273438 291.0079345703125" stroke-width="0.0" fill="rgb(47, 47, 46)" opacity="0.85932326"/>
    <path d="M 530.59521484375 240.45755004882812 C 516.0460205078125 244.0205078125 489.1385192871094 235.99209594726562 485.8443298339844 243.2727813720703 C 480.8240966796875 235.719970703125 453.5605163574219 245.6060791015625 432.7026672363281 240.46044921875 C 464.38067626953125 233.72122192382812 483.3984375 236.947265625 486.9157409667969 234.218994140625 C 489.5667724609375 237.10243225097656 510.0155944824219 224.28114318847656 530.59521484375 240.45755004882812" stroke-width="0.0" fill="rgb(22, 22, 21)" opacity="0.95428455"/>
    <path d="M 481.0883483886719 433.20172119140625 C 479.11212158203125 444.11187744140625 473.4261169433594 436.42938232421875 461.25982666015625 415.2770080566406 C 456.65704345703125 410.9575500488281 454.7911376953125 406.40423583984375 446.9800720214844 401.6917419433594 C 429.8341369628906 393.1259460449219 434.75787353515625 406.4429931640625 445.4710998535156 369.37786865234375 C 456.2124328613281 406.2817077636719 459.6053771972656 405.4355773925781 481.0883483886719 433.20172119140625" stroke-width="0.0" fill="rgb(66, 66, 66)" opacity="0.8959845"/>
    <path d="M 192.201171875 381.6872253417969 C 192.24148559570312 383.44091796875 191.8447265625 386.7850646972656 189.82992553710938 386.9642639160156 C 187.9001922607422 386.57342529296875 186.62692260742188 383.0684814453125 182.25027465820312 381.7910461425781 C 181.81878662109375 372.5931701660156 181.27996826171875 369.35504150390625 202.5182342529297 358.4227294921875 C 196.46273803710938 376.64556884765625 190.31390380859375 379.53277587890625 192.201171875 381.6872253417969" stroke-width="0.0" fill="rgb(157, 157, 157)" opacity="1.0"/>
    <path d="M 422.38018798828125 69.56365966796875 C 402.63970947265625 69.13378143310547 400.3677062988281 59.72463607788086 394.539794921875 61.40952682495117 C 391.29901123046875 69.24006652832031 389.13287353515625 70.15953826904297 367.80975341796875 51.48039627075195 C 384.88433837890625 46.96582794189453 391.7065124511719 52.39109802246094 395.2206726074219 57.0489501953125 C 398.6013488769531 61.2695198059082 404.9333801269531 58.935604095458984 422.38018798828125 69.56365966796875" stroke-width="0.0" fill="rgb(136, 136, 136)" opacity="1.0"/>
    <path d="M 600.9396362304688 398.5767517089844 C 600.930419921875 402.7877197265625 594.9411010742188 402.60052490234375 593.886474609375 401.97991943359375 C 594.721435546875 403.2156677246094 592.6881713867188 402.1068115234375 594.0875244140625 400.9340515136719 C 594.7977294921875 398.449462890625 589.7154541015625 393.59002685546875 584.5657958984375 381.0818786621094 C 600.1871948242188 393.9193115234375 600.7322998046875 396.4941711425781 600.9396362304688 398.5767517089844" stroke-width="0.0" fill="rgb(141, 141, 140)" opacity="1.0"/>
    <path d="M 199.0864715576172 532.7022705078125 C 166.9215850830078 514.213623046875 162.88600158691406 526.6256713867188 193.97140502929688 542.431640625 C 157.60777282714844 539.3388061523438 157.7996063232422 518.0594482421875 163.0175018310547 524.55908203125 C 170.56504821777344 528.5519409179688 170.21168518066406 522.3700561523438 173.52117919921875 521.21630859375 C 173.0989532470703 509.84234619140625 186.732421875 509.8181457519531 199.0864715576172 532.7022705078125" stroke-width="0.0" fill="rgb(68, 68, 67)" opacity="0.8659665"/>
    <path d="M 540.213623046875 495.1972961425781 C 539.9619750976562 497.4891052246094 539.4736328125 498.7908935546875 542.3309936523438 507.9765625 C 536.9666748046875 506.43499755859375 538.0418090820312 498.6277770996094 522.1213989257812 490.8416442871094 C 515.2911376953125 481.616943359375 524.2832641601562 483.5706481933594 536.8384399414062 494.8302307128906 C 539.8629760742188 495.6018981933594 541.7673950195312 498.341552734375 540.213623046875 495.1972961425781" stroke-width="0.0" fill="rgb(132, 132, 132)" opacity="1.0"/>
    <path d="M 247.8797607421875 456.37457275390625 C 237.16436767578125 463.343505859375 234.4090576171875 464.7367248535156 231.63453674316406 467.64093017578125 C 227.83367919921875 468.5138854980469 222.93511962890625 466.73907470703125 222.7653350830078 460.0003356933594 C 227.1394805908203 457.69580078125 227.38067626953125 460.05169677734375 229.61441040039062 458.6128234863281 C 239.78851318359375 459.1404113769531 245.60520935058594 457.7460021972656 247.8797607421875 456.37457275390625" stroke-width="0.0" fill="rgb(231, 232, 231)" opacity="0.98762435"/>
    <path d="M 478.9161376953125 227.3768768310547 C 464.9681396484375 234.62185668945312 444.5133972167969 228.64059448242188 429.9564514160156 231.6518096923828 C 415.43243408203125 229.27926635742188 395.5946044921875 238.98214721679688 385.3299865722656 232.0421600341797 C 429.6747741699219 223.51226806640625 435.37408447265625 230.14488220214844 432.1131896972656 225.906005859375 C 429.2763977050781 229.66607666015625 434.91156005859375 224.45387268066406 478.9161376953125 227.3768768310547" stroke-width="0.0" fill="rgb(32, 32, 31)" opacity="0.9796012"/>
    <path d="M 561.7304077148438 50.32448959350586 C 541.5856323242188 52.06052017211914 535.571044921875 51.32627868652344 516.6773071289062 59.012969970703125 C 489.0165100097656 71.55609130859375 484.9947814941406 77.89075469970703 506.15802001953125 52.47660827636719 C 543.8480834960938 41.32085037231445 519.4946899414062 46.93501281738281 502.0223083496094 39.88650131225586 C 533.344970703125 41.040767669677734 542.0447998046875 38.15129852294922 561.7304077148438 50.32448959350586" stroke-width="0.0" fill="rgb(19, 19, 19)" opacity="0.9972667"/>
    <path d="M 449.75958251953125 280.0098876953125 C 420.75372314453125 278.0560302734375 416.15301513671875 271.7473449707031 413.6520080566406 273.36517333984375 C 414.83740234375 276.04681396484375 414.51123046875 272.8954772949219 404.4621276855469 269.2342834472656 C 394.56903076171875 265.7210388183594 396.9880676269531 260.4316101074219 410.4059753417969 265.39642333984375 C 417.5068359375 272.23565673828125 428.281005859375 268.097412109375 449.75958251953125 280.0098876953125" stroke-width="0.0" fill="rgb(136, 137, 136)" opacity="1.0"/>
    <path d="M 260.5932312011719 491.43597412109375 C 232.36424255371094 514.9857788085938 237.4100341796875 522.278076171875 238.76815795898438 532.4556274414062 C 213.64454650878906 501.2790832519531 217.8916473388672 491.9772644042969 191.46524047851562 504.6134948730469 C 194.6610107421875 493.353271484375 208.1463165283203 495.1548156738281 227.48959350585938 490.51800537109375 C 247.5914764404297 495.66656494140625 260.42474365234375 471.247314453125 260.5932312011719 491.43597412109375" stroke-width="0.0" fill="rgb(107, 108, 109)" opacity="0.9582524"/>
    <path d="M 373.2227478027344 97.23778533935547 C 334.8974304199219 114.82467651367188 322.4666748046875 133.8700408935547 313.616943359375 128.2162628173828 C 326.82147216796875 90.65372467041016 315.00848388671875 104.65350341796875 296.34521484375 103.2669448852539 C 298.9661560058594 80.41922760009766 302.6754455566406 89.32106018066406 316.0072326660156 87.19779968261719 C 339.61273193359375 81.77213287353516 351.4153747558594 71.00630187988281 373.2227478027344 97.23778533935547" stroke-width="0.0" fill="rgb(114, 115, 115)" opacity="0.9629859"/>
    <path d="M 212.92691040039062 159.87586975097656 C 231.20159912109375 179.3439483642578 236.4463348388672 186.73451232910156 221.25180053710938 190.23101806640625 C 198.43798828125 161.00601196289062 173.85250854492188 157.23577880859375 157.45144653320312 131.37416076660156 C 167.77781677246094 121.49479675292969 184.6291961669922 140.40773010253906 203.93495178222656 151.0716552734375 C 203.66180419921875 152.4447784423828 207.1747589111328 152.66650390625 212.92691040039062 159.87586975097656" stroke-width="0.0" fill="rgb(39, 38, 36)" opacity="1.0"/>
    <path d="M 472.86541748046875 73.48387145996094 C 475.2305908203125 92.54754638671875 466.9361572265625 91.1529312133789 451.5655517578125 89.44476318359375 C 443.6194152832031 92.44194030761719 441.9781188964844 85.37518310546875 443.36407470703125 85.50643920898438 C 444.1768493652344 84.23152160644531 437.95745849609375 81.61357116699219 436.8643798828125 52.09810256958008 C 447.2840881347656 75.8728256225586 442.9049987792969 77.84076690673828 472.86541748046875 73.48387145996094" stroke-width="0.0" fill="rgb(133, 132, 133)" opacity="1.0"/>
    <path d="M 219.74359130859375 377.3625793457031 C 204.5380401611328 402.3287048339844 208.45193481445312 415.58404541015625 195.76597595214844 430.6677551269531 C 198.41714477539062 404.4377136230469 200.87831115722656 399.16015625 199.01077270507812 396.8246765136719 C 198.99359130859375 396.8066101074219 200.4929962158203 394.1870422363281 205.75521850585938 394.316650390625 C 209.17477416992188 380.2433166503906 214.5090789794922 374.2440490722656 219.74359130859375 377.3625793457031" stroke-width="0.0" fill="rgb(141, 140, 140)" opacity="1.0"/>
    <path d="M 259.1728515625 205.60491943359375 C 251.4560546875 221.0085906982422 244.84637451171875 212.98448181152344 234.02992248535156 202.93553161621094 C 231.7056121826172 200.48692321777344 228.40248107910156 198.98509216308594 225.93252563476562 193.0145263671875 C 209.93980407714844 178.69244384765625 197.7709197998047 173.37649536132812 221.78579711914062 152.1086883544922 C 260.73406982421875 161.73245239257812 257.6523742675781 173.46133422851562 259.1728515625 205.60491943359375" stroke-width="0.0" fill="rgb(60, 60, 60)" opacity="0.93979275"/>
    <path d="M 327.3602294921875 275.6708679199219 C 316.24920654296875 320.2253112792969 316.85260009765625 334.1592102050781 291.7258605957031 343.5438232421875 C 265.26654052734375 322.9150695800781 246.76011657714844 316.5284729003906 257.4762878417969 295.3008117675781 C 258.9153137207031 246.38316345214844 248.38299560546875 241.49317932128906 305.8966064453125 238.33709716796875 C 339.0977478027344 240.69219970703125 340.7862854003906 244.17808532714844 327.3602294921875 275.6708679199219" stroke-width="0.0" fill="rgb(29, 29, 29)" opacity="0.9725354"/>
    <path d="M 220.36512756347656 536.670166015625 C 220.54180908203125 544.7703857421875 210.0369110107422 531.1754150390625 198.93675231933594 520.5120849609375 C 195.08984375 516.557373046875 193.76393127441406 513.1609497070312 189.4243621826172 510.8569641113281 C 177.75599670410156 520.1843872070312 178.6413116455078 504.1481628417969 207.8480224609375 493.053466796875 C 212.63803100585938 510.2069396972656 187.8464813232422 514.2426147460938 220.36512756347656 536.670166015625" stroke-width="0.0" fill="rgb(79, 80, 80)" opacity="0.953724"/>
    <path d="M 367.2165832519531 124.01902770996094 C 366.02374267578125 149.29075622558594 362.2578430175781 156.42527770996094 342.9477844238281 161.36146545410156 C 330.7785949707031 149.39443969726562 323.2850646972656 151.26332092285156 326.4617919921875 146.91648864746094 C 342.8127746582031 132.69677734375 337.09954833984375 124.24922180175781 341.0372619628906 122.17843627929688 C 351.7393493652344 117.8218002319336 360.8484191894531 116.75933074951172 367.2165832519531 124.01902770996094" stroke-width="0.0" fill="rgb(150, 151, 151)" opacity="0.9932397"/>
    <path d="M 78.22611999511719 446.4077453613281 C 66.95298767089844 459.5754699707031 50.613014221191406 445.12152099609375 45.757999420166016 434.4971923828125 C 26.414764404296875 433.863525390625 17.65797996520996 443.8555603027344 -4.682320594787598 441.7105407714844 C 10.355233192443848 416.75885009765625 32.04856872558594 434.4740295410156 38.75077438354492 398.1053161621094 C 54.69804763793945 402.7685852050781 52.14303970336914 415.90203857421875 78.22611999511719 446.4077453613281" stroke-width="0.0" fill="rgb(119, 120, 121)" opacity="0.9969392"/>
    <path d="M 527.8926391601562 73.79387664794922 C 492.16937255859375 87.93828582763672 479.90625 96.03079223632812 461.3066711425781 102.6682357788086 C 456.8182067871094 110.60791778564453 452.45538330078125 103.07881164550781 462.82611083984375 96.166015625 C 473.6846618652344 89.72396850585938 478.2079772949219 89.09003448486328 476.2938232421875 86.89659881591797 C 494.99566650390625 80.85041809082031 518.0490112304688 61.3758430480957 527.8926391601562 73.79387664794922" stroke-width="0.0" fill="rgb(16, 17, 16)" opacity="1.0"/>
    <path d="M 180.7815704345703 89.7853775024414 C 171.34629821777344 135.87132263183594 136.64346313476562 138.83316040039062 101.68463897705078 125.16610717773438 C 114.15787506103516 76.88298034667969 128.18441772460938 99.97337341308594 107.68736267089844 87.17435455322266 C 111.46167755126953 78.37940216064453 115.6050796508789 80.72520446777344 129.38397216796875 88.89305114746094 C 140.19412231445312 100.28440856933594 141.13247680664062 89.24838256835938 180.7815704345703 89.7853775024414" stroke-width="0.0" fill="rgb(47, 47, 47)" opacity="0.86370635"/>
    <path d="M 33.76963424682617 321.21929931640625 C 30.187305450439453 318.5857238769531 32.5284309387207 320.22747802734375 51.80754470825195 351.91534423828125 C 20.547279357910156 344.5259094238281 23.570714950561523 331.9017639160156 27.430797576904297 321.37115478515625 C 29.150543212890625 317.6630554199219 32.22127151489258 317.24639892578125 35.041419982910156 310.073974609375 C 40.61498260498047 314.5777587890625 38.67350769042969 320.6471252441406 33.76963424682617 321.21929931640625" stroke-width="0.0" fill="rgb(42, 43, 42)" opacity="0.84640926"/>
    <path d="M 257.8079528808594 153.9251708984375 C 257.8829650878906 161.162353515625 246.81492614746094 159.18914794921875 242.93898010253906 158.3751220703125 C 231.23976135253906 146.84800720214844 221.7253875732422 158.9018096923828 183.07156372070312 139.3935546875 C 198.4635467529297 103.92860412597656 221.2587890625 122.93052673339844 238.35006713867188 107.84298706054688 C 254.49838256835938 111.64424133300781 256.9637451171875 116.82909393310547 257.8079528808594 153.9251708984375" stroke-width="0.0" fill="rgb(129, 130, 130)" opacity="0.8814301"/>
    <path d="M 234.8631134033203 223.8990020751953 C 216.11566162109375 216.4459991455078 212.27734375 213.40708923339844 209.0183563232422 215.57424926757812 C 209.6097412109375 218.4375457763672 208.80528259277344 216.84828186035156 211.37750244140625 214.37899780273438 C 209.20663452148438 213.41111755371094 203.1415252685547 210.45033264160156 200.8057861328125 198.5351104736328 C 214.94598388671875 208.72328186035156 217.33139038085938 210.5871124267578 234.8631134033203 223.8990020751953" stroke-width="0.0" fill="rgb(139, 139, 138)" opacity="1.0"/>
    <path d="M 407.54461669921875 75.36100006103516 C 397.94915771484375 70.27538299560547 400.9128112792969 77.96098327636719 413.8683166503906 95.92839813232422 C 393.1884460449219 84.6075439453125 393.8551940917969 79.1105728149414 372.527099609375 63.788352966308594 C 377.5315246582031 59.22089385986328 379.6409606933594 53.68175506591797 386.52386474609375 61.811065673828125 C 403.98809814453125 71.53804779052734 407.4066162109375 74.63813018798828 407.54461669921875 75.36100006103516" stroke-width="0.0" fill="rgb(110, 110, 110)" opacity="0.7423113"/>
    <path d="M 437.03619384765625 50.77960968017578 C 437.1183166503906 55.4569206237793 435.95648193359375 56.088531494140625 431.12945556640625 55.72989273071289 C 420.6897888183594 55.127418518066406 413.9169921875 56.5231819152832 408.30181884765625 55.007774353027344 C 426.7265930175781 48.318851470947266 429.4947509765625 47.956851959228516 431.0306091308594 47.03287124633789 C 433.5463562011719 46.31111526489258 435.15460205078125 48.6475944519043 437.03619384765625 50.77960968017578" stroke-width="0.0" fill="rgb(204, 204, 204)" opacity="1.0"/>
    <path d="M 162.40438842773438 158.45281982421875 C 158.0449676513672 162.1585235595703 156.34078979492188 164.5349884033203 154.08560180664062 166.31922912597656 C 150.44094848632812 165.60330200195312 148.86080932617188 163.19842529296875 147.5662078857422 158.43634033203125 C 148.51954650878906 156.8287353515625 151.4425048828125 155.7538604736328 154.60592651367188 153.49462890625 C 157.45628356933594 154.1450653076172 159.36756896972656 156.5148162841797 162.40438842773438 158.45281982421875" stroke-width="0.0" fill="rgb(244, 244, 243)" opacity="0.66274786"/>
    <path d="M 385.5650634765625 372.25732421875 C 388.6479187011719 385.8611145019531 413.18865966796875 402.7822265625 409.0064697265625 419.8707275390625 C 384.24609375 376.16241455078125 379.46978759765625 376.3006286621094 367.31732177734375 353.5145568847656 C 359.13385009765625 336.0645751953125 365.339111328125 338.4267578125 376.9745178222656 363.56768798828125 C 386.204833984375 373.7682800292969 386.1471252441406 378.9667053222656 385.5650634765625 372.25732421875" stroke-width="0.0" fill="rgb(35, 34, 34)" opacity="0.9885252"/>
    <path d="M 84.61134338378906 180.83078002929688 C 69.77769470214844 200.67129516601562 60.63304901123047 201.0371856689453 54.415252685546875 227.5991668701172 C 22.956886291503906 226.8258056640625 27.466562271118164 220.16452026367188 28.83827781677246 191.7911834716797 C 24.222261428833008 168.44615173339844 31.9508113861084 171.15428161621094 69.20429992675781 170.56646728515625 C 51.93747329711914 179.8660888671875 46.104217529296875 186.53623962402344 84.61134338378906 180.83078002929688" stroke-width="0.0" fill="rgb(121, 121, 121)" opacity="0.93434185"/>
    <path d="M 249.42588806152344 587.3720703125 C 228.29734802246094 596.0542602539062 217.32577514648438 587.7979125976562 211.10726928710938 591.41162109375 C 204.84251403808594 591.0519409179688 195.72067260742188 597.0581665039062 177.72483825683594 592.9426879882812 C 208.9954833984375 584.0103149414062 214.39108276367188 587.2579956054688 214.81021118164062 588.3529052734375 C 211.67092895507812 588.9816284179688 217.06512451171875 583.0834350585938 249.42588806152344 587.3720703125" stroke-width="0.0" fill="rgb(110, 110, 110)" opacity="1.0"/>
    <path d="M 257.13494873046875 178.3597869873047 C 264.0429382324219 188.49893188476562 249.898193359375 189.88616943359375 244.8817138671875 171.40281677246094 C 234.34608459472656 159.47256469726562 233.59011840820312 155.2109832763672 231.59109497070312 155.37916564941406 C 223.283203125 138.73876953125 200.032470703125 129.18446350097656 203.96104431152344 116.3853530883789 C 238.0581817626953 149.1444549560547 239.4066162109375 154.94204711914062 257.13494873046875 178.3597869873047" stroke-width="0.0" fill="rgb(12, 13, 13)" opacity="0.98264873"/>
    <path d="M 260.56671142578125 61.436885833740234 C 252.85598754882812 94.3817138671875 243.6392059326172 89.4464111328125 231.93426513671875 102.01756286621094 C 233.04905700683594 93.7008056640625 235.62205505371094 90.81148529052734 239.4955291748047 91.17411804199219 C 239.2598419189453 84.17540740966797 239.92144775390625 79.74874877929688 241.05429077148438 69.17153930664062 C 241.3514862060547 62.134552001953125 254.3876953125 58.71133041381836 260.56671142578125 61.436885833740234" stroke-width="0.0" fill="rgb(189, 189, 189)" opacity="1.0"/>
    <path d="M 122.63433837890625 310.5909118652344 C 91.63511657714844 335.913818359375 63.60102844238281 312.8119812011719 87.63465881347656 358.31787109375 C 48.62525939941406 362.9768981933594 42.44313049316406 353.9532165527344 50.254215240478516 326.18743896484375 C 80.6626205444336 331.40087890625 79.43895721435547 321.2448425292969 78.83053588867188 321.40496826171875 C 80.33448028564453 331.40228271484375 88.78025817871094 316.1103515625 122.63433837890625 310.5909118652344" stroke-width="0.0" fill="rgb(78, 78, 77)" opacity="0.9264793"/>
    <path d="M 457.2322998046875 370.4855651855469 C 462.8155212402344 370.8238830566406 462.93084716796875 370.6199645996094 457.636474609375 371.03369140625 C 455.88092041015625 371.10186767578125 453.0763854980469 368.9886474609375 436.58465576171875 351.2812805175781 C 437.7455139160156 348.1963806152344 445.96307373046875 356.7257385253906 457.6946105957031 365.6065673828125 C 456.4407043457031 364.99530029296875 456.0804748535156 367.717529296875 457.2322998046875 370.4855651855469" stroke-width="0.0" fill="rgb(97, 98, 95)" opacity="1.0"/>
    <path d="M 355.1798400878906 321.185546875 C 365.9161682128906 334.3778991699219 356.8213195800781 336.3509826660156 331.6697692871094 303.3082275390625 C 334.13543701171875 323.6460266113281 345.08831787109375 336.7080383300781 302.78485107421875 320.6039123535156 C 300.65191650390625 267.36517333984375 304.85260009765625 259.8265075683594 318.86688232421875 263.8077392578125 C 335.4833984375 291.1510925292969 337.50030517578125 294.58001708984375 355.1798400878906 321.185546875" stroke-width="0.0" fill="rgb(25, 26, 26)" opacity="0.7792811"/>
    <path d="M 521.2449951171875 48.25060272216797 C 505.2839660644531 59.873382568359375 497.92510986328125 60.183528900146484 497.90130615234375 58.134456634521484 C 499.07672119140625 69.78706359863281 496.3115539550781 77.0732192993164 470.9591369628906 73.11683654785156 C 465.9458923339844 33.17987823486328 468.4776611328125 29.74920082092285 500.33856201171875 34.941219329833984 C 521.329345703125 31.148090362548828 518.80419921875 34.21059799194336 521.2449951171875 48.25060272216797" stroke-width="0.0" fill="rgb(124, 125, 125)" opacity="0.84659714"/>
    <path d="M 163.95748901367188 463.1424560546875 C 160.90283203125 455.581787109375 157.69468688964844 456.2392883300781 166.03341674804688 491.42108154296875 C 129.28253173828125 497.18408203125 129.99264526367188 486.0224609375 148.8593292236328 471.7466125488281 C 159.57403564453125 455.89727783203125 156.343505859375 432.68450927734375 178.6619873046875 409.4617919921875 C 174.5568084716797 434.7756042480469 155.80848693847656 451.33917236328125 163.95748901367188 463.1424560546875" stroke-width="0.0" fill="rgb(54, 54, 53)" opacity="0.9230626"/>
    <path d="M 535.953369140625 136.0583038330078 C 508.0646667480469 140.61741638183594 501.625 140.98240661621094 496.2189636230469 143.10191345214844 C 485.94317626953125 141.08299255371094 473.4820556640625 152.71859741210938 461.9591979980469 138.254638671875 C 479.4627685546875 136.28274536132812 491.96075439453125 136.5487060546875 500.025146484375 131.98817443847656 C 513.5963745117188 134.54306030273438 521.3575439453125 124.67308807373047 535.953369140625 136.0583038330078" stroke-width="0.0" fill="rgb(102, 102, 102)" opacity="0.99929357"/>
    <path d="M 80.56324005126953 287.2962341308594 C 70.2082748413086 324.9057312011719 75.50004577636719 332.1250915527344 53.3448600769043 334.8924560546875 C 42.14443588256836 314.0041198730469 37.11040496826172 314.6249084472656 28.357769012451172 302.7829895019531 C 26.683475494384766 271.7969665527344 27.918487548828125 261.7288818359375 41.07978057861328 258.4193420410156 C 67.854736328125 277.19598388671875 60.541141510009766 301.939453125 80.56324005126953 287.2962341308594" stroke-width="0.0" fill="rgb(73, 73, 73)" opacity="0.85918236"/>
    <path d="M 290.08123779296875 254.78526306152344 C 259.4960632324219 264.3349914550781 243.2500457763672 249.19483947753906 246.21194458007812 234.6404571533203 C 248.44102478027344 235.16824340820312 244.53082275390625 231.01248168945312 232.35867309570312 225.89549255371094 C 210.06884765625 214.30908203125 214.11862182617188 209.56204223632812 238.8039093017578 224.53155517578125 C 246.10702514648438 230.35430908203125 252.96395874023438 225.73695373535156 290.08123779296875 254.78526306152344" stroke-width="0.0" fill="rgb(42, 42, 42)" opacity="0.8783048"/>
    <path d="M 188.7428436279297 155.31832885742188 C 174.2084503173828 169.31394958496094 156.96615600585938 156.04232788085938 150.87432861328125 158.64102172851562 C 158.59466552734375 155.8015594482422 147.7112579345703 161.1493377685547 110.30990600585938 148.46353149414062 C 126.52114868164062 142.9176483154297 151.218994140625 159.7198944091797 161.40789794921875 150.93247985839844 C 152.9254150390625 153.7415771484375 159.7283477783203 160.22039794921875 188.7428436279297 155.31832885742188" stroke-width="0.0" fill="rgb(38, 38, 37)" opacity="0.8822209"/>
    <path d="M 116.87226867675781 268.4853515625 C 79.91158294677734 277.2004699707031 76.10038757324219 279.87872314453125 65.69789123535156 284.2001037597656 C 61.12464904785156 296.20574951171875 51.77447509765625 296.19659423828125 35.426666259765625 273.8230285644531 C 43.632965087890625 263.3110656738281 53.88914489746094 261.66033935546875 78.14229583740234 231.72618103027344 C 107.75849914550781 239.06390380859375 107.22377014160156 245.56655883789062 116.87226867675781 268.4853515625" stroke-width="0.0" fill="rgb(83, 83, 83)" opacity="0.94852906"/>
    <path d="M 530.4868774414062 171.4634246826172 C 518.058349609375 174.70033264160156 504.3741760253906 168.39939880371094 497.434814453125 168.68235778808594 C 495.4846496582031 168.48240661621094 490.3155212402344 165.85833740234375 473.430419921875 165.25360107421875 C 477.9731140136719 163.0702362060547 484.08001708984375 159.63011169433594 495.9076843261719 143.47601318359375 C 524.38427734375 139.62794494628906 519.3960571289062 149.1942901611328 530.4868774414062 171.4634246826172" stroke-width="0.0" fill="rgb(136, 137, 136)" opacity="0.7952582"/>
    <path d="M 107.6561508178711 428.85302734375 C 101.66181182861328 438.8464050292969 104.62462615966797 445.2288818359375 94.93757629394531 447.8526611328125 C 68.83973693847656 432.830078125 69.5667724609375 430.0685119628906 65.95538330078125 416.11492919921875 C 37.071990966796875 406.99102783203125 36.061710357666016 392.0089416503906 66.89967346191406 386.9920959472656 C 101.50907135009766 401.2225341796875 107.28319549560547 408.8786315917969 107.6561508178711 428.85302734375" stroke-width="0.0" fill="rgb(109, 109, 108)" opacity="0.8850134"/>
    <path d="M 478.2587585449219 491.1889953613281 C 446.2275695800781 488.5069580078125 435.4114990234375 490.5735168457031 434.4662780761719 489.251708984375 C 429.92193603515625 490.2888488769531 422.7367858886719 498.757080078125 397.0146789550781 473.7796630859375 C 405.6476745605469 466.2017517089844 418.06524658203125 480.1467590332031 428.7088623046875 461.50164794921875 C 452.9809875488281 477.39508056640625 469.0042724609375 467.0494079589844 478.2587585449219 491.1889953613281" stroke-width="0.0" fill="rgb(62, 62, 62)" opacity="0.82052547"/>
    <path d="M 488.58685302734375 400.0502624511719 C 488.911865234375 407.50860595703125 469.3599548339844 409.7469482421875 470.465087890625 399.5616760253906 C 459.64556884765625 380.8152770996094 459.81451416015625 378.0198974609375 460.28106689453125 378.27203369140625 C 460.810791015625 377.47381591796875 455.372802734375 371.9892883300781 448.44622802734375 361.2714538574219 C 464.47894287109375 371.2623291015625 468.59942626953125 374.5316162109375 488.58685302734375 400.0502624511719" stroke-width="0.0" fill="rgb(107, 108, 108)" opacity="0.9440488"/>
    <path d="M 504.6761474609375 544.7999877929688 C 506.32672119140625 551.47802734375 500.2767028808594 547.596923828125 489.9822082519531 546.0897827148438 C 475.0843505859375 541.949951171875 463.6133117675781 544.0640258789062 446.1719055175781 518.9645385742188 C 462.69097900390625 522.01123046875 471.0429382324219 538.7362670898438 477.5074462890625 535.0806884765625 C 478.55279541015625 535.5848999023438 479.8659973144531 538.7295532226562 504.6761474609375 544.7999877929688" stroke-width="0.0" fill="rgb(112, 113, 113)" opacity="1.0"/>
    <path d="M 183.43063354492188 125.0750503540039 C 168.73574829101562 136.36691284179688 172.03988647460938 144.35594177246094 162.00265502929688 143.07681274414062 C 140.76593017578125 133.1044921875 136.41665649414062 131.5325927734375 137.68121337890625 139.15676879882812 C 155.12391662597656 131.6900634765625 156.47879028320312 124.00557708740234 164.06964111328125 111.53166198730469 C 179.36192321777344 92.51628875732422 185.56967163085938 99.72157287597656 183.43063354492188 125.0750503540039" stroke-width="0.0" fill="rgb(135, 135, 135)" opacity="1.0"/>
    <path d="M 96.69395446777344 111.09126281738281 C 39.39519500732422 118.00660705566406 43.140419006347656 111.73841857910156 50.43083190917969 101.70548248291016 C 44.32057189941406 106.73709106445312 40.541717529296875 106.23004913330078 37.88983917236328 98.3832778930664 C 42.44560241699219 94.1874771118164 44.69489288330078 96.31443786621094 53.31584548950195 96.2393798828125 C 77.3963394165039 83.06632232666016 93.01681518554688 65.57634735107422 96.69395446777344 111.09126281738281" stroke-width="0.0" fill="rgb(24, 24, 24)" opacity="0.98811865"/>
    <path d="M 579.0481567382812 42.57571029663086 C 571.2640991210938 59.18440246582031 554.50341796875 49.292022705078125 552.86767578125 45.359527587890625 C 541.1539916992188 41.73451232910156 530.9080200195312 49.357364654541016 519.9669799804688 47.725154876708984 C 527.3601684570312 39.66930389404297 517.184814453125 36.13795471191406 521.7335815429688 6.8675031661987305 C 548.348876953125 36.87464141845703 566.6903076171875 32.97993087768555 579.0481567382812 42.57571029663086" stroke-width="0.0" fill="rgb(136, 135, 135)" opacity="0.91165304"/>
    <path d="M 565.8255004882812 328.9517517089844 C 570.6575317382812 341.2397155761719 574.793701171875 347.07763671875 566.4544067382812 348.1339416503906 C 559.5005493164062 326.7805480957031 548.6879272460938 335.5676574707031 555.0552978515625 329.8370361328125 C 553.0281372070312 316.9789123535156 553.2645263671875 314.0636901855469 559.9937133789062 316.8388366699219 C 561.0609741210938 325.1368103027344 565.9512939453125 322.7195739746094 565.8255004882812 328.9517517089844" stroke-width="0.0" fill="rgb(21, 21, 21)" opacity="1.0"/>
    <path d="M 93.11248016357422 174.9160919189453 C 96.51461791992188 186.30575561523438 98.21769714355469 193.42489624023438 78.9087142944336 203.37872314453125 C 66.14945220947266 190.38046264648438 73.16766357421875 180.8324432373047 63.95623016357422 173.3292236328125 C 62.60560607910156 168.4882049560547 69.15849304199219 167.82608032226562 82.69001007080078 169.0899658203125 C 92.52802276611328 162.4084014892578 96.39641571044922 166.0457763671875 93.11248016357422 174.9160919189453" stroke-width="0.0" fill="rgb(169, 170, 169)" opacity="0.9592847"/>
    <path d="M 407.12530517578125 424.4956359863281 C 407.86627197265625 427.27862548828125 405.0640563964844 428.8743896484375 401.6828308105469 429.2076110839844 C 399.7413330078125 428.5115966796875 397.08349609375 426.3113708496094 396.7698974609375 424.299072265625 C 397.131591796875 421.4792175292969 399.8652038574219 419.84002685546875 402.10430908203125 417.5513916015625 C 404.412353515625 419.7059326171875 406.0519714355469 421.620361328125 407.12530517578125 424.4956359863281" stroke-width="0.0" fill="rgb(255, 255, 255)" opacity="0.59714854"/>
    <path d="M 120.92587280273438 521.1217651367188 C 83.01216125488281 534.4385375976562 82.077880859375 537.7463989257812 77.85591888427734 540.3765258789062 C 59.438011169433594 558.3377685546875 47.61440658569336 557.15234375 64.53804016113281 547.1272583007812 C 77.93065643310547 532.27587890625 82.55836486816406 533.6080322265625 82.69391632080078 531.405029296875 C 99.92512512207031 525.929931640625 120.12962341308594 513.1053466796875 120.92587280273438 521.1217651367188" stroke-width="0.0" fill="rgb(30, 30, 30)" opacity="0.94912684"/>
    <path d="M 172.78103637695312 351.6209411621094 C 173.9132537841797 356.9351806640625 173.78001403808594 360.36138916015625 172.7643280029297 359.86737060546875 C 170.11436462402344 359.1683044433594 167.96157836914062 356.85687255859375 165.55274963378906 355.88470458984375 C 164.3438262939453 347.69415283203125 163.21546936035156 344.1409912109375 185.16200256347656 331.548583984375 C 189.718017578125 339.5809326171875 180.81130981445312 346.4390563964844 172.78103637695312 351.6209411621094" stroke-width="0.0" fill="rgb(162, 162, 162)" opacity="1.0"/>
    <path d="M 291.7547912597656 251.77294921875 C 274.6398010253906 251.39227294921875 266.2435607910156 250.07313537597656 258.4736022949219 229.60499572753906 C 251.92147827148438 223.53366088867188 249.92440795898438 221.43646240234375 247.86474609375 217.36868286132812 C 235.6253204345703 203.16468811035156 236.24081420898438 200.22010803222656 242.84600830078125 202.19090270996094 C 271.66778564453125 198.30735778808594 292.5118103027344 212.7220458984375 291.7547912597656 251.77294921875" stroke-width="0.0" fill="rgb(9, 9, 9)" opacity="1.0"/>
    <path d="M 116.25367736816406 64.0384521484375 C 129.4273223876953 69.03361511230469 127.62071228027344 77.5477066040039 117.05998992919922 72.71432495117188 C 99.2521743774414 64.31151580810547 93.72692108154297 56.0979118347168 54.62111282348633 48.51448440551758 C 70.63976287841797 36.53936004638672 95.49712371826172 56.01877212524414 109.36083984375 58.36858367919922 C 103.58729553222656 57.233253479003906 105.45466613769531 60.05491256713867 116.25367736816406 64.0384521484375" stroke-width="0.0" fill="rgb(17, 18, 17)" opacity="1.0"/>
    <path d="M 49.06621551513672 90.15303039550781 C 50.38870620727539 104.28350830078125 56.19036865234375 112.25824737548828 29.521242141723633 140.05332946777344 C 20.938310623168945 132.24522399902344 27.885540008544922 115.3173599243164 35.89308547973633 100.47268676757812 C 51.8830680847168 89.18826293945312 23.55328369140625 69.92564392089844 34.769859313964844 56.321964263916016 C 54.07998275756836 81.27442932128906 53.183876037597656 98.64678955078125 49.06621551513672 90.15303039550781" stroke-width="0.0" fill="rgb(54, 54, 54)" opacity="0.85873586"/>
    <path d="M 77.63023376464844 460.4194641113281 C 79.66559600830078 481.2809753417969 70.67988586425781 485.9771423339844 44.027950286865234 481.22247314453125 C 33.67937469482422 473.34942626953125 30.998504638671875 475.67236328125 31.285951614379883 461.4643249511719 C 51.59953308105469 462.6693420410156 51.75979995727539 458.76275634765625 47.665401458740234 459.6068420410156 C 48.66605758666992 463.2688293457031 51.14708709716797 462.7044982910156 77.63023376464844 460.4194641113281" stroke-width="0.0" fill="rgb(133, 133, 133)" opacity="1.0"/>
    <path d="M 251.77352905273438 554.3362426757812 C 262.2513732910156 561.267822265625 266.007080078125 572.7203369140625 259.58843994140625 576.5354614257812 C 244.39059448242188 555.580078125 242.27685546875 554.2750854492188 222.07464599609375 530.2349243164062 C 225.44187927246094 526.8908081054688 241.8257598876953 529.98681640625 245.67970275878906 537.685546875 C 246.43601989746094 548.2807006835938 250.4078826904297 549.6361694335938 251.77352905273438 554.3362426757812" stroke-width="0.0" fill="rgb(134, 134, 133)" opacity="0.99425393"/>
    <path d="M 532.80908203125 418.84716796875 C 530.5708618164062 425.60906982421875 531.3626098632812 430.8892822265625 518.377685546875 440.0030517578125 C 501.7812805175781 451.50982666015625 506.2149658203125 440.3656921386719 526.7557373046875 426.05218505859375 C 517.2422485351562 424.1098937988281 502.15155029296875 400.6098327636719 528.8523559570312 376.356201171875 C 561.9924926757812 391.44598388671875 547.7835083007812 406.3482971191406 532.80908203125 418.84716796875" stroke-width="0.0" fill="rgb(58, 58, 57)" opacity="0.8899456"/>
    <path d="M 146.55218505859375 311.28057861328125 C 135.20809936523438 317.6482238769531 131.90957641601562 318.5982360839844 120.88709259033203 325.8362731933594 C 96.10501098632812 342.6065673828125 94.4682846069336 334.77117919921875 120.66720581054688 321.5833435058594 C 131.10313415527344 314.17193603515625 135.15882873535156 312.9950256347656 129.1656951904297 317.3252258300781 C 131.16554260253906 315.14801025390625 142.22650146484375 307.7414245605469 146.55218505859375 311.28057861328125" stroke-width="0.0" fill="rgb(30, 31, 31)" opacity="0.94989675"/>
    <path d="M 147.15541076660156 20.840351104736328 C 124.05084991455078 28.58501434326172 109.17991638183594 24.82925796508789 103.12877655029297 27.966690063476562 C 97.80510711669922 25.541810989379883 80.36727142333984 33.92744445800781 65.23111724853516 31.839282989501953 C 104.22748565673828 20.258323669433594 110.7291030883789 26.25977897644043 107.11445617675781 23.93983268737793 C 104.70756530761719 27.185941696166992 109.95662689208984 21.289775848388672 147.15541076660156 20.840351104736328" stroke-width="0.0" fill="rgb(61, 63, 61)" opacity="0.97770864"/>
    <path d="M 426.1921691894531 250.2694091796875 C 395.4928283691406 263.1106262207031 400.3262939453125 270.9857482910156 396.0096130371094 264.47320556640625 C 368.2689514160156 272.5772705078125 353.1590881347656 277.403564453125 346.7353820800781 254.2786102294922 C 365.6505126953125 238.2431182861328 372.0692138671875 247.90872192382812 378.61016845703125 246.0970458984375 C 408.448486328125 247.49484252929688 420.6114501953125 229.86288452148438 426.1921691894531 250.2694091796875" stroke-width="0.0" fill="rgb(110, 109, 109)" opacity="1.0"/>
    <path d="M 140.2472381591797 473.3389892578125 C 126.34349060058594 470.6462707519531 113.82109069824219 445.1087341308594 105.32910919189453 458.67352294921875 C 102.32586669921875 460.9163818359375 102.02227783203125 454.8473815917969 76.2139892578125 435.4186706542969 C 80.39191436767578 421.9681396484375 83.78955841064453 417.9527587890625 114.41474151611328 437.1092834472656 C 137.05087280273438 407.3548583984375 134.36544799804688 415.2861022949219 140.2472381591797 473.3389892578125" stroke-width="0.0" fill="rgb(59, 59, 58)" opacity="0.67875695"/>
    <path d="M 152.43661499023438 441.6213073730469 C 143.2072296142578 455.107666015625 142.17066955566406 471.74700927734375 125.50216674804688 480.0330505371094 C 136.75238037109375 458.0232238769531 143.1657257080078 452.8923034667969 140.81011962890625 450.0266418457031 C 140.79383850097656 451.4901123046875 141.8505401611328 449.3064270019531 148.95803833007812 439.99951171875 C 156.0588836669922 424.10894775390625 163.4272918701172 425.2691650390625 152.43661499023438 441.6213073730469" stroke-width="0.0" fill="rgb(91, 92, 91)" opacity="1.0"/>
    <path d="M 136.3692626953125 199.4741973876953 C 129.63494873046875 201.63351440429688 124.24470520019531 198.91026306152344 128.69381713867188 202.89706420898438 C 124.40375518798828 196.99864196777344 110.63543701171875 208.4734649658203 82.55796813964844 211.60072326660156 C 113.98887634277344 195.65093994140625 130.7007293701172 200.78591918945312 126.22917175292969 195.87416076660156 C 126.38542938232422 199.8831024169922 132.4723663330078 196.05238342285156 136.3692626953125 199.4741973876953" stroke-width="0.0" fill="rgb(41, 41, 40)" opacity="0.9820411"/>
    <path d="M 409.95263671875 500.1793518066406 C 402.0520935058594 502.721435546875 404.4837341308594 506.798095703125 402.1940612792969 504.7038269042969 C 403.41827392578125 500.8301086425781 404.4679260253906 498.51605224609375 398.8508605957031 495.88446044921875 C 391.7857666015625 494.1716613769531 391.3542175292969 488.70977783203125 401.0033874511719 480.5904235839844 C 410.22503662109375 485.9232482910156 406.51727294921875 490.22998046875 409.95263671875 500.1793518066406" stroke-width="0.0" fill="rgb(171, 171, 172)" opacity="1.0"/>
    <path d="M 297.32330322265625 445.1832580566406 C 281.9555358886719 472.02972412109375 274.3785400390625 461.718017578125 257.7906188964844 458.9834289550781 C 245.0675506591797 460.3042907714844 240.64187622070312 462.5815734863281 229.01080322265625 453.2512512207031 C 248.92982482910156 448.1202697753906 253.05621337890625 446.4372863769531 253.86053466796875 442.50640869140625 C 260.0434875488281 450.3491516113281 268.376953125 442.4828796386719 297.32330322265625 445.1832580566406" stroke-width="0.0" fill="rgb(134, 134, 134)" opacity="1.0"/>
    <path d="M 38.69203567504883 91.7376937866211 C 42.861473083496094 104.12360382080078 37.394126892089844 108.85006713867188 23.972841262817383 109.05320739746094 C 22.054853439331055 82.23460388183594 20.93350601196289 80.10952758789062 23.916044235229492 82.53943634033203 C 26.937467575073242 83.62407684326172 22.845273971557617 81.86457824707031 20.321231842041016 50.12467956542969 C 42.761802673339844 49.506473541259766 36.32358932495117 57.37286376953125 38.69203567504883 91.7376937866211" stroke-width="0.0" fill="rgb(135, 135, 136)" opacity="0.89007115"/>
    <path d="M 383.4532775878906 513.074462890625 C 365.9930114746094 533.283447265625 363.843017578125 537.2716674804688 345.8848571777344 568.9447021484375 C 352.357666015625 544.7255859375 366.20770263671875 531.6200561523438 365.0643310546875 527.4447021484375 C 362.8083801269531 534.5641479492188 361.7331848144531 532.8233032226562 365.5672302246094 528.6141967773438 C 376.7301025390625 513.206298828125 383.40679931640625 506.79986572265625 383.4532775878906 513.074462890625" stroke-width="0.0" fill="rgb(37, 38, 38)" opacity="0.92881685"/>
    <path d="M 53.30119323730469 323.4330749511719 C 55.00478744506836 335.47601318359375 61.09730529785156 336.4733581542969 61.11713409423828 342.77734375 C 49.83963394165039 343.6445617675781 40.9615592956543 341.1120910644531 34.36819839477539 327.3090515136719 C 38.40035629272461 308.03240966796875 44.36549377441406 307.70111083984375 55.6548957824707 310.1368713378906 C 54.85576629638672 321.76263427734375 58.10015869140625 322.5149841308594 53.30119323730469 323.4330749511719" stroke-width="0.0" fill="rgb(139, 139, 138)" opacity="1.0"/>
    <path d="M 418.39678955078125 477.6092834472656 C 431.17059326171875 506.02301025390625 430.88525390625 520.2279052734375 419.2941589355469 509.7225646972656 C 378.6177062988281 480.5774230957031 373.55914306640625 475.5548400878906 352.1446838378906 475.9683837890625 C 348.445068359375 435.25030517578125 355.5572204589844 440.3227844238281 392.36865234375 444.73187255859375 C 402.2944030761719 458.7751770019531 407.65093994140625 467.58984375 418.39678955078125 477.6092834472656" stroke-width="0.0" fill="rgb(61, 61, 62)" opacity="0.7841238"/>
    <path d="M 303.02618408203125 197.6874237060547 C 305.68450927734375 245.61260986328125 293.85107421875 247.1858673095703 269.6188659667969 237.46749877929688 C 251.7787322998047 219.66860961914062 244.31796264648438 219.9871826171875 233.18807983398438 195.97361755371094 C 236.15110778808594 180.056396484375 236.7810516357422 173.15098571777344 254.90939331054688 161.97528076171875 C 274.7745361328125 175.59124755859375 256.9012451171875 194.78326416015625 303.02618408203125 197.6874237060547" stroke-width="0.0" fill="rgb(68, 67, 67)" opacity="1.0"/>
    <path d="M 81.32354736328125 402.5792541503906 C 89.08705139160156 413.0226745605469 81.99173736572266 411.2584533691406 69.17179870605469 405.59649658203125 C 67.95883178710938 391.75006103515625 60.740440368652344 391.663818359375 55.60355758666992 386.78533935546875 C 65.3197021484375 370.8399353027344 35.96849822998047 352.67572021484375 50.121788024902344 349.0296325683594 C 81.72782135009766 364.6916809082031 62.411163330078125 384.9941711425781 81.32354736328125 402.5792541503906" stroke-width="0.0" fill="rgb(26, 26, 26)" opacity="0.9451115"/>
    <path d="M 178.66574096679688 251.973388671875 C 145.867919921875 257.5126647949219 135.77256774902344 257.12078857421875 123.59575653076172 260.5479736328125 C 102.60916137695312 260.6802673339844 93.75572204589844 277.5174560546875 84.74161529541016 245.72911071777344 C 86.74327850341797 221.91444396972656 93.49590301513672 233.6375274658203 129.72384643554688 235.27569580078125 C 163.44606018066406 239.7234344482422 174.7088623046875 231.27761840820312 178.66574096679688 251.973388671875" stroke-width="0.0" fill="rgb(74, 74, 74)" opacity="1.0"/>
    <path d="M 121.38815307617188 62.33858108520508 C 149.4083709716797 80.92778778076172 163.5459747314453 94.95690155029297 152.39761352539062 97.60001373291016 C 113.45526885986328 70.28231811523438 109.93167114257812 71.11064910888672 119.80424499511719 65.77616119384766 C 103.80408477783203 40.358299255371094 107.47144317626953 63.04480743408203 152.86009216308594 52.798797607421875 C 157.66546630859375 58.88661575317383 146.3104248046875 54.94102096557617 121.38815307617188 62.33858108520508" stroke-width="0.0" fill="rgb(19, 20, 20)" opacity="0.838593"/>
    <path d="M 569.3677368164062 310.6177978515625 C 565.8887939453125 324.9756774902344 563.161376953125 327.13275146484375 559.5650024414062 328.63409423828125 C 556.1932983398438 328.0666809082031 558.4733276367188 323.24346923828125 545.61669921875 312.6686706542969 C 540.1758422851562 302.5086364746094 544.9070434570312 307.69720458984375 562.2501831054688 316.8830261230469 C 562.791748046875 319.7380676269531 564.9608154296875 310.40985107421875 569.3677368164062 310.6177978515625" stroke-width="0.0" fill="rgb(4, 5, 5)" opacity="0.64117277"/>
    <path d="M 216.29544067382812 13.47467041015625 C 176.4359893798828 9.521843910217285 162.3379669189453 2.8503315448760986 162.00709533691406 7.948733806610107 C 169.4425048828125 4.011138916015625 158.35934448242188 12.074071884155273 145.4276580810547 -2.9458932876586914 C 146.10643005371094 -9.958454132080078 155.46334838867188 -6.861869812011719 161.64614868164062 -4.273800849914551 C 176.2174835205078 9.3704195022583 202.8551788330078 -0.30900830030441284 216.29544067382812 13.47467041015625" stroke-width="0.0" fill="rgb(33, 33, 31)" opacity="0.99263734"/>
    <path d="M 407.3400573730469 505.75653076171875 C 383.3338928222656 533.4848022460938 379.5540771484375 533.252685546875 351.2170104980469 568.1160278320312 C 355.1972961425781 553.4421997070312 373.443115234375 540.3992919921875 376.75 531.197998046875 C 377.5026550292969 532.8450927734375 381.2855529785156 528.7271118164062 378.90277099609375 530.1089477539062 C 391.3559265136719 521.01513671875 397.6576232910156 502.6780700683594 407.3400573730469 505.75653076171875" stroke-width="0.0" fill="rgb(30, 31, 31)" opacity="1.0"/>
    <path d="M 499.84539794921875 456.67919921875 C 493.9895324707031 468.398193359375 492.3011169433594 493.7903137207031 455.6890563964844 493.1392517089844 C 480.4463806152344 439.42376708984375 502.2218017578125 455.2654113769531 457.8171691894531 473.981201171875 C 483.2182922363281 438.3927307128906 477.7613220214844 430.55206298828125 466.59027099609375 421.66925048828125 C 494.16986083984375 444.4314270019531 499.37432861328125 443.0990295410156 499.84539794921875 456.67919921875" stroke-width="0.0" fill="rgb(39, 39, 38)" opacity="0.7935495"/>
    <path d="M 44.24190139770508 315.1830139160156 C 29.720321655273438 318.8094787597656 35.47044372558594 327.8070068359375 21.975753784179688 364.5563659667969 C -1.5614887475967407 341.5954284667969 39.833831787109375 330.8438415527344 17.72597885131836 305.7578430175781 C 29.948244094848633 311.5207214355469 49.38884735107422 337.2093200683594 16.915822982788086 284.3588562011719 C 49.169979095458984 282.0184631347656 48.80159378051758 293.7012023925781 44.24190139770508 315.1830139160156" stroke-width="0.0" fill="rgb(47, 47, 47)" opacity="0.8660061"/>
    <path d="M 228.39755249023438 412.75299072265625 C 224.82638549804688 416.5352783203125 222.12672424316406 418.2684020996094 220.25439453125 420.3122863769531 C 217.55902099609375 418.24945068359375 214.974365234375 416.5733642578125 216.0853729248047 414.1156921386719 C 215.315185546875 411.3786926269531 217.2213134765625 409.401611328125 220.19512939453125 408.8958435058594 C 223.74119567871094 408.2711181640625 226.39991760253906 410.16839599609375 228.39755249023438 412.75299072265625" stroke-width="0.0" fill="rgb(255, 255, 255)" opacity="0.6034275"/>
    <path d="M 177.08531188964844 203.96551513671875 C 142.385498046875 200.06561279296875 142.57180786132812 205.3326416015625 112.42462158203125 220.87588500976562 C 101.44873046875 215.03311157226562 113.42628479003906 216.5056610107422 146.15090942382812 197.01710510253906 C 105.6939697265625 191.44635009765625 103.70060729980469 189.84288024902344 121.18720245361328 188.4882354736328 C 143.23512268066406 194.368896484375 152.68154907226562 192.6301727294922 177.08531188964844 203.96551513671875" stroke-width="0.0" fill="rgb(78, 78, 77)" opacity="1.0"/>
    <path d="M 591.781494140625 500.43438720703125 C 591.0783081054688 500.15234375 592.8226318359375 506.10516357421875 588.2103881835938 504.7257080078125 C 585.6464233398438 505.9287109375 590.556640625 500.0751037597656 590.8575439453125 495.6636047363281 C 587.1481323242188 501.55487060546875 591.8706665039062 502.67401123046875 593.0694580078125 477.1766357421875 C 605.3451538085938 474.1131896972656 599.7259521484375 488.62042236328125 591.781494140625 500.43438720703125" stroke-width="0.0" fill="rgb(83, 83, 81)" opacity="0.9428538"/>
    <path d="M 355.53497314453125 79.82357025146484 C 344.8483581542969 89.81893920898438 337.60552978515625 90.27057647705078 333.1723327636719 92.64495849609375 C 332.49261474609375 85.07809448242188 331.4088134765625 80.87699127197266 307.030029296875 75.30744934082031 C 306.5945129394531 57.47900390625 309.82958984375 52.44310760498047 327.8445129394531 49.264530181884766 C 351.9000244140625 52.96939468383789 354.3267822265625 61.419063568115234 355.53497314453125 79.82357025146484" stroke-width="0.0" fill="rgb(157, 156, 156)" opacity="1.0"/>
    <path d="M 525.4260864257812 191.11447143554688 C 510.09893798828125 197.19696044921875 490.2711486816406 189.25828552246094 477.3032531738281 194.35304260253906 C 463.39794921875 188.73118591308594 452.6646423339844 211.3008270263672 438.0867004394531 199.32403564453125 C 475.9231872558594 186.3959197998047 483.1795959472656 192.46875 478.7753601074219 187.85195922851562 C 477.19830322265625 193.0121612548828 484.0800476074219 185.23114013671875 525.4260864257812 191.11447143554688" stroke-width="0.0" fill="rgb(46, 45, 44)" opacity="1.0"/>
    <path d="M 230.11878967285156 576.612548828125 C 235.56752014160156 580.7504272460938 235.01856994628906 583.407958984375 232.6708221435547 582.4099731445312 C 217.0412139892578 577.5325317382812 204.55982971191406 580.8038330078125 197.10162353515625 573.7842407226562 C 210.21484375 558.5903930664062 210.12161254882812 558.8878173828125 214.9889373779297 563.8900146484375 C 227.7822723388672 568.8436279296875 231.3163299560547 568.302001953125 230.11878967285156 576.612548828125" stroke-width="0.0" fill="rgb(137, 137, 136)" opacity="1.0"/>
    <path d="M 592.3430786132812 56.897464752197266 C 557.9931030273438 63.5269660949707 572.25439453125 77.66341400146484 558.9596557617188 114.9452896118164 C 549.1611328125 64.7520523071289 528.2276000976562 79.65274047851562 517.37158203125 69.1072006225586 C 563.435302734375 56.160282135009766 561.0929565429688 72.74128723144531 568.4322509765625 53.48719024658203 C 564.576171875 31.42781639099121 579.4921875 26.545883178710938 592.3430786132812 56.897464752197266" stroke-width="0.0" fill="rgb(65, 65, 65)" opacity="0.8657122"/>
  </g>
</svg>
