<?xml version="1.0" ?>
<svg xmlns="http://www.w3.org/2000/svg" version="1.1" width="600" height="600">
  <defs/>
  <g>
    <path d="M 243.61961364746094 97.36634063720703 C 243.00599670410156 100.12300872802734 241.10089111328125 101.94269561767578 238.42288208007812 102.29080200195312 C 235.57464599609375 101.16258239746094 233.55593872070312 99.51557922363281 232.46397399902344 96.66416931152344 C 233.08071899414062 93.96477508544922 234.98912048339844 92.153076171875 237.8486328125 91.45769500732422 C 240.85646057128906 92.34215545654297 242.80816650390625 94.09439849853516 243.61961364746094 97.36634063720703" stroke-width="0.0" fill="rgb(194, 193, 193)" opacity="1.0"/>
    <path d="M 67.28878021240234 60.12499237060547 C 66.67987823486328 62.85438919067383 64.8501968383789 64.65866088867188 62.10222244262695 64.35880279541016 C 59.29533004760742 64.47529602050781 57.45309066772461 62.721702575683594 56.827415466308594 59.988765716552734 C 57.44606399536133 57.28087615966797 59.26561737060547 55.39484786987305 61.7620964050293 54.732425689697266 C 64.4849624633789 55.7209587097168 66.28219604492188 57.51585388183594 67.28878021240234 60.12499237060547" stroke-width="0.0" fill="rgb(252, 252, 252)" opacity="0.9979319"/>
    <path d="M 576.2669677734375 380.1792297363281 C 576.0869140625 382.32568359375 574.3296508789062 384.1037902832031 571.6983642578125 384.8076171875 C 569.0543212890625 384.80633544921875 567.2105712890625 382.9397888183594 566.4166259765625 380.0137634277344 C 567.3297729492188 377.298583984375 569.48974609375 375.9094543457031 571.744384765625 375.7035827636719 C 574.224365234375 376.0451965332031 575.9845581054688 377.7643737792969 576.2669677734375 380.1792297363281" stroke-width="0.0" fill="rgb(252, 252, 252)" opacity="1.0"/>
    <path d="M 601.7655029296875 196.0934600830078 C 600.966552734375 198.05502319335938 598.9390258789062 199.64013671875 597.18505859375 200.09075927734375 C 595.2220458984375 199.55860900878906 593.407958984375 197.7902374267578 592.4463500976562 195.449462890625 C 593.1150512695312 194.0806121826172 595.165771484375 192.4140625 596.64990234375 191.91244506835938 C 598.831787109375 192.4375762939453 600.8384399414062 194.07199096679688 601.7655029296875 196.0934600830078" stroke-width="0.0" fill="rgb(11, 12, 12)" opacity="0.99005127"/>
    <path d="M 82.6526870727539 510.5856628417969 C 81.45498657226562 513.5664672851562 79.51278686523438 515.2750854492188 76.97856140136719 516.085205078125 C 74.50554656982422 515.3027954101562 72.97296142578125 513.3945922851562 72.72772216796875 510.57830810546875 C 72.52918243408203 508.4006042480469 74.4612808227539 506.7352294921875 77.34542083740234 505.884765625 C 80.06462860107422 506.1174011230469 81.98131561279297 507.9027404785156 82.6526870727539 510.5856628417969" stroke-width="0.0" fill="rgb(204, 205, 204)" opacity="1.0"/>
    <path d="M 369.3282470703125 62.321712493896484 C 369.3479309082031 64.54862213134766 367.52880859375 66.27739715576172 365.2938537597656 66.35774993896484 C 362.7384338378906 65.93765258789062 360.6529846191406 64.3991928100586 360.666015625 61.67221450805664 C 360.5614929199219 59.398681640625 362.52581787109375 57.946388244628906 365.551025390625 57.700313568115234 C 367.6864318847656 57.37799072265625 369.3214416503906 59.39838790893555 369.3282470703125 62.321712493896484" stroke-width="0.0" fill="rgb(246, 245, 246)" opacity="1.0"/>
    <path d="M 483.89996337890625 338.02154541015625 C 483.5456237792969 340.7778015136719 481.7665100097656 342.4792175292969 478.56329345703125 342.34344482421875 C 476.4963684082031 342.4443359375 475.1063537597656 340.299560546875 474.8349914550781 337.6458740234375 C 474.8508605957031 335.5013427734375 476.4240417480469 333.5916748046875 478.9737854003906 332.9768981933594 C 481.5 333.66986083984375 483.33013916015625 335.5 483.89996337890625 338.02154541015625" stroke-width="0.0" fill="rgb(223, 222, 222)" opacity="1.0"/>
    <path d="M 44.6580924987793 245.49473571777344 C 43.43464279174805 248.5762176513672 41.560970306396484 250.38853454589844 38.51417541503906 251.70779418945312 C 36.04613494873047 250.94686889648438 34.745548248291016 248.7519989013672 34.436912536621094 246.0467987060547 C 34.96625900268555 243.71487426757812 36.694183349609375 241.90792846679688 38.95407485961914 241.48318481445312 C 41.8211784362793 241.621826171875 43.97371292114258 243.0033721923828 44.6580924987793 245.49473571777344" stroke-width="0.0" fill="rgb(136, 138, 137)" opacity="0.9904363"/>
    <path d="M 120.1884765625 82.615478515625 C 120.93461608886719 85.14913940429688 119.1893081665039 87.06694793701172 115.94439697265625 87.82198333740234 C 112.80792236328125 87.0636215209961 110.94561767578125 85.18844604492188 110.17234802246094 82.3599853515625 C 111.2412109375 79.56260681152344 113.93435668945312 78.29471588134766 115.93466186523438 77.85565185546875 C 117.86353302001953 78.35022735595703 119.62132263183594 80.14789581298828 120.1884765625 82.615478515625" stroke-width="0.0" fill="rgb(60, 60, 59)" opacity="0.9901872"/>
    <path d="M 575.47412109375 351.0978088378906 C 574.5872192382812 353.7752990722656 572.8165283203125 355.7138366699219 569.7906494140625 356.419677734375 C 566.9244384765625 355.9111022949219 565.0195922851562 354.099853515625 564.6276245117188 351.1812438964844 C 565.2145385742188 348.0854797363281 567.0398559570312 346.0955505371094 569.461669921875 345.41534423828125 C 572.470947265625 346.75201416015625 574.3411865234375 348.5036926269531 575.47412109375 351.0978088378906" stroke-width="0.0" fill="rgb(190, 190, 188)" opacity="1.0"/>
    <path d="M 454.29803466796875 448.7253723144531 C 455.0722961425781 451.2201843261719 453.2166442871094 453.0620422363281 450.7735595703125 452.18377685546875 C 448.2557373046875 451.5289001464844 446.45074462890625 449.75274658203125 445.8904113769531 447.425537109375 C 445.4796142578125 444.96484375 446.8302307128906 442.904052734375 449.2398376464844 442.36956787109375 C 451.82586669921875 444.3656921386719 453.5980224609375 446.1873779296875 454.29803466796875 448.7253723144531" stroke-width="0.0" fill="rgb(3, 3, 3)" opacity="0.99009985"/>
    <path d="M 421.1524963378906 338.6581115722656 C 421.95660400390625 341.1746520996094 420.2200012207031 343.10345458984375 417.33209228515625 343.8540954589844 C 413.813720703125 343.0525817871094 411.92279052734375 341.1960144042969 411.1702880859375 338.4837951660156 C 412.22076416015625 335.4513854980469 414.8890380859375 334.2792663574219 416.8750915527344 333.87628173828125 C 418.7910461425781 334.4153747558594 420.5796813964844 336.2105712890625 421.1524963378906 338.6581115722656" stroke-width="0.0" fill="rgb(30, 32, 29)" opacity="0.9901304"/>
    <path d="M 267.77642822265625 399.30841064453125 C 267.7793884277344 401.91375732421875 265.913818359375 403.7781982421875 263.0540771484375 404.2887268066406 C 260.091552734375 403.79486083984375 258.2478942871094 401.8946838378906 258.1839294433594 399.00360107421875 C 258.26226806640625 396.073974609375 260.0201110839844 394.1022033691406 262.5924377441406 393.49151611328125 C 265.69488525390625 394.5309753417969 267.54620361328125 396.2825927734375 267.77642822265625 399.30841064453125" stroke-width="0.0" fill="rgb(186, 186, 185)" opacity="1.0"/>
    <path d="M 261.8542175292969 373.31878662109375 C 260.71539306640625 375.9351806640625 258.93096923828125 377.7041015625 257.0621032714844 378.17376708984375 C 254.9285888671875 377.73876953125 252.37844848632812 376.3244323730469 251.22140502929688 374.0005187988281 C 252.36431884765625 371.6012878417969 254.86683654785156 370.2099914550781 257.4075622558594 369.77410888671875 C 260.0366516113281 369.27423095703125 262.0336608886719 370.87591552734375 261.8542175292969 373.31878662109375" stroke-width="0.0" fill="rgb(75, 77, 76)" opacity="0.99021345"/>
    <path d="M 421.2129211425781 85.72744750976562 C 421.9897155761719 88.11414337158203 420.06573486328125 89.81269836425781 417.6922302246094 89.10941314697266 C 415.24737548828125 88.5307388305664 413.4300537109375 86.76878356933594 412.8294677734375 84.29618072509766 C 412.00189208984375 81.86980438232422 413.9216003417969 80.20098114013672 416.3220520019531 80.8803939819336 C 418.74676513671875 81.46520233154297 420.546875 83.24850463867188 421.2129211425781 85.72744750976562" stroke-width="0.0" fill="rgb(4, 4, 4)" opacity="0.9900824"/>
    <path d="M 525.580810546875 126.93553924560547 C 524.630859375 129.759033203125 522.7337646484375 131.5283966064453 520.0698852539062 131.19232177734375 C 517.2257080078125 131.560791015625 515.3976440429688 129.78030395507812 514.452392578125 126.87744903564453 C 515.3010864257812 124.2076644897461 517.300537109375 122.66315460205078 520.3770141601562 122.67425537109375 C 522.962158203125 122.15424346923828 524.7659912109375 124.06511688232422 525.580810546875 126.93553924560547" stroke-width="0.0" fill="rgb(252, 252, 252)" opacity="1.0"/>
    <path d="M 234.4593048095703 428.74127197265625 C 234.84951782226562 432.0538024902344 233.0946044921875 433.9809875488281 230.3065643310547 434.67059326171875 C 226.97811889648438 433.8542175292969 225.08506774902344 432.04229736328125 224.48574829101562 428.6314392089844 C 225.0176544189453 425.9256896972656 226.9703369140625 424.1434326171875 230.19766235351562 424.0451965332031 C 232.9974365234375 424.1485900878906 234.9045867919922 425.9833984375 234.4593048095703 428.74127197265625" stroke-width="0.0" fill="rgb(195, 196, 193)" opacity="1.0"/>
    <path d="M 434.255615234375 80.67576599121094 C 433.75286865234375 82.99217987060547 432.00946044921875 84.80013275146484 429.5812072753906 85.64850616455078 C 427.7973327636719 85.21289825439453 426.2088317871094 83.08043670654297 425.79638671875 81.13455963134766 C 426.2759704589844 79.03462982177734 428.0168762207031 77.22836303710938 430.50079345703125 76.56734466552734 C 432.9134216308594 76.18328857421875 434.3538818359375 78.19720458984375 434.255615234375 80.67576599121094" stroke-width="0.0" fill="rgb(94, 94, 95)" opacity="0.9901046"/>
    <path d="M 461.83636474609375 102.53544616699219 C 461.0463562011719 106.19929504394531 459.2237243652344 108.11024475097656 456.1244812011719 108.87621307373047 C 452.7345275878906 108.12963104248047 450.8758544921875 106.26326751708984 450.1418151855469 103.3455581665039 C 450.94769287109375 99.87952423095703 453.0010986328125 98.38200378417969 456.6012878417969 97.8872299194336 C 459.23260498046875 97.92032623291016 461.1164245605469 99.75394439697266 461.83636474609375 102.53544616699219" stroke-width="0.0" fill="rgb(3, 3, 3)" opacity="1.0"/>
    <path d="M 347.8618469238281 178.4745330810547 C 347.12005615234375 181.24464416503906 345.2367858886719 183.10047912597656 342.4849853515625 183.83172607421875 C 339.1400146484375 182.8868408203125 338.07562255859375 180.49526977539062 337.1500549316406 177.39175415039062 C 337.0447692871094 174.93942260742188 338.96051025390625 173.10504150390625 341.56378173828125 173.594970703125 C 344.84515380859375 173.69662475585938 346.98968505859375 174.9762420654297 347.8618469238281 178.4745330810547" stroke-width="0.0" fill="rgb(42, 43, 44)" opacity="0.99025553"/>
    <path d="M 443.60272216796875 493.16949462890625 C 443.47894287109375 495.6343078613281 441.6343688964844 497.4797058105469 439.1177062988281 497.9410400390625 C 436.438720703125 497.416259765625 434.6540832519531 495.5379943847656 433.5472106933594 492.8664855957031 C 434.506103515625 490.4267883300781 436.4901123046875 488.7171325683594 439.3725280761719 488.2055969238281 C 441.9709777832031 488.1227111816406 443.69580078125 490.0853271484375 443.60272216796875 493.16949462890625" stroke-width="0.0" fill="rgb(227, 227, 227)" opacity="1.0"/>
    <path d="M 17.44784164428711 482.10443115234375 C 16.951553344726562 485.04962158203125 14.99561882019043 486.785888671875 12.137938499450684 487.0888977050781 C 9.147523880004883 486.6261291503906 7.233260631561279 484.8941650390625 7.263880252838135 482.12884521484375 C 7.414841175079346 479.2237243652344 9.185979843139648 477.29364013671875 11.92163372039795 476.5395812988281 C 14.928998947143555 477.3202209472656 16.9151611328125 478.99725341796875 17.44784164428711 482.10443115234375" stroke-width="0.0" fill="rgb(187, 185, 187)" opacity="1.0"/>
    <path d="M 390.46356201171875 503.2998352050781 C 389.6515808105469 505.8414611816406 387.827392578125 507.6131591796875 385.2666015625 509.3495178222656 C 383.05120849609375 509.0045166015625 382.272705078125 506.3148193359375 381.9106140136719 504.3341369628906 C 382.428955078125 502.1641540527344 384.05645751953125 500.0586853027344 386.5922546386719 498.2051086425781 C 389.2262268066406 498.9083557128906 391.07843017578125 500.7782287597656 390.46356201171875 503.2998352050781" stroke-width="0.0" fill="rgb(9, 10, 11)" opacity="0.99007577"/>
    <path d="M 520.850830078125 448.77410888671875 C 520.0770263671875 452.21527099609375 518.2178344726562 454.0841369628906 515.442138671875 454.828857421875 C 512.4642333984375 453.7643737792969 511.2304992675781 451.14239501953125 510.8157653808594 449.0021667480469 C 511.25140380859375 447.0124206542969 513.0167236328125 445.2615661621094 515.36669921875 444.7895202636719 C 518.0040283203125 444.400634765625 520.0638427734375 445.8692321777344 520.850830078125 448.77410888671875" stroke-width="0.0" fill="rgb(86, 86, 86)" opacity="0.9902444"/>
    <path d="M 324.40692138671875 342.9923400878906 C 323.3501892089844 345.4737243652344 321.4757080078125 347.3573303222656 319.1439514160156 348.21484375 C 316.43951416015625 347.342529296875 314.5924377441406 345.5775146484375 313.73419189453125 343.0312194824219 C 314.5194396972656 340.3350524902344 316.2959899902344 338.3981628417969 318.63079833984375 338.653564453125 C 321.4577331542969 338.9508056640625 323.48101806640625 340.3941955566406 324.40692138671875 342.9923400878906" stroke-width="0.0" fill="rgb(253, 253, 253)" opacity="0.9936157"/>
    <path d="M 131.51858520507812 381.262451171875 C 130.62890625 383.864013671875 128.89425659179688 385.71295166015625 126.36029815673828 387.5039978027344 C 124.41957092285156 386.8688049316406 123.31622314453125 384.06097412109375 122.88377380371094 382.18121337890625 C 123.3980484008789 380.1694641113281 125.1632080078125 378.3829040527344 127.29389953613281 377.87994384765625 C 129.79103088378906 378.0770568847656 132.02955627441406 378.9371032714844 131.51858520507812 381.262451171875" stroke-width="0.0" fill="rgb(43, 44, 43)" opacity="0.99008065"/>
    <path d="M 402.1625671386719 325.6270751953125 C 402.83612060546875 328.1038818359375 401.1755676269531 330.0765686035156 398.446533203125 330.8027038574219 C 394.9587097167969 329.8970642089844 393.0093994140625 328.0775146484375 392.18499755859375 324.81903076171875 C 392.9774475097656 321.9382019042969 395.1956481933594 321.0673828125 397.5514831542969 320.8970642089844 C 399.7803039550781 321.4369812011719 401.57049560546875 323.2168884277344 402.1625671386719 325.6270751953125" stroke-width="0.0" fill="rgb(31, 32, 31)" opacity="0.9901308"/>
    <path d="M 501.78692626953125 435.8000793457031 C 500.9873962402344 439.12078857421875 499.1157531738281 440.9731140136719 495.9066467285156 441.705810546875 C 492.8852233886719 440.9902038574219 491.08984375 439.0890808105469 491.3616638183594 436.4151611328125 C 492.0805358886719 433.8758239746094 493.9002990722656 432.14984130859375 496.2913513183594 431.6813659667969 C 498.9027099609375 431.4496765136719 500.96795654296875 432.97552490234375 501.78692626953125 435.8000793457031" stroke-width="0.0" fill="rgb(121, 121, 125)" opacity="0.9904092"/>
    <path d="M 554.5664672851562 332.6351013183594 C 554.063232421875 335.2060546875 552.2200927734375 337.0995788574219 549.4520874023438 337.8439636230469 C 546.0717163085938 336.9371032714844 545.0394897460938 334.6131286621094 544.7559814453125 331.66546630859375 C 544.251220703125 328.9664001464844 545.91064453125 327.0379943847656 548.3961181640625 327.6053161621094 C 550.9752807617188 328.2651062011719 552.818115234375 329.9958190917969 554.5664672851562 332.6351013183594" stroke-width="0.0" fill="rgb(88, 88, 85)" opacity="0.99040294"/>
    <path d="M 485.9138488769531 334.9059143066406 C 485.3023376464844 337.5310974121094 483.5542907714844 339.3870544433594 481.12841796875 339.7787780761719 C 478.6270751953125 339.1527099609375 476.7516784667969 337.40185546875 475.9046630859375 334.92327880859375 C 476.5384826660156 332.32562255859375 478.2772521972656 330.3798828125 480.8728332519531 329.6826477050781 C 483.6593322753906 330.4565734863281 485.43841552734375 332.3741149902344 485.9138488769531 334.9059143066406" stroke-width="0.0" fill="rgb(253, 253, 252)" opacity="0.9956057"/>
    <path d="M 543.0838012695312 343.8059387207031 C 542.5604248046875 345.79241943359375 540.8054809570312 347.5915222167969 538.7059326171875 348.1297302246094 C 537.1038208007812 347.64874267578125 535.128173828125 345.9652404785156 534.5595703125 344.0722351074219 C 534.8257446289062 341.42779541015625 536.1932983398438 339.14996337890625 538.5797119140625 338.2215881347656 C 540.9776000976562 340.0133056640625 542.5789184570312 342.14453125 543.0838012695312 343.8059387207031" stroke-width="0.0" fill="rgb(6, 6, 7)" opacity="0.9901049"/>
    <path d="M 600.0765380859375 449.89788818359375 C 599.426025390625 452.6561279296875 597.6514282226562 454.3921203613281 594.5707397460938 454.4210510253906 C 592.0552368164062 454.8344421386719 590.2492065429688 452.91619873046875 589.62939453125 450.29266357421875 C 590.6813354492188 447.45050048828125 592.4202880859375 445.5722961425781 594.9364013671875 444.9894714355469 C 597.6278076171875 445.6026611328125 599.5240478515625 447.33636474609375 600.0765380859375 449.89788818359375" stroke-width="0.0" fill="rgb(250, 250, 250)" opacity="0.9937075"/>
    <path d="M 274.05010986328125 347.018798828125 C 273.5625915527344 349.7489929199219 271.67608642578125 351.2159729003906 268.494384765625 351.23333740234375 C 266.2033996582031 351.71527099609375 264.6006774902344 349.7044677734375 264.064208984375 346.8666076660156 C 264.4560241699219 344.2958679199219 266.29656982421875 342.4583435058594 268.93194580078125 341.7687072753906 C 271.480712890625 342.7409973144531 273.4079284667969 344.4718933105469 274.05010986328125 347.018798828125" stroke-width="0.0" fill="rgb(252, 252, 252)" opacity="0.9943257"/>
    <path d="M 112.69115447998047 459.52301025390625 C 112.01922607421875 462.15216064453125 110.14286041259766 463.99072265625 107.40304565429688 463.78009033203125 C 103.90678405761719 463.8393859863281 101.92658996582031 462.16607666015625 101.1373291015625 459.3311767578125 C 101.9406509399414 455.82568359375 103.8607406616211 454.0446472167969 106.61046600341797 453.6649475097656 C 109.36949920654297 454.8306884765625 111.31598663330078 456.5897216796875 112.69115447998047 459.52301025390625" stroke-width="0.0" fill="rgb(79, 78, 80)" opacity="1.0"/>
    <path d="M 524.4666137695312 225.72689819335938 C 523.68017578125 227.09713745117188 520.8740844726562 228.5845947265625 518.8362426757812 229.09446716308594 C 517.22802734375 228.56236267089844 515.4302368164062 226.77468872070312 514.7188110351562 224.2802276611328 C 514.1810302734375 222.5501708984375 516.9949951171875 221.360595703125 518.7369995117188 220.91561889648438 C 520.749755859375 221.46653747558594 522.5801391601562 223.23277282714844 524.4666137695312 225.72689819335938" stroke-width="0.0" fill="rgb(18, 20, 18)" opacity="0.99005723"/>
    <path d="M 55.186134338378906 163.39828491210938 C 54.5909423828125 165.81948852539062 52.84882354736328 167.6731414794922 50.25398254394531 169.74679565429688 C 47.75048065185547 169.12416076660156 45.89152908325195 167.2429962158203 45.124698638916016 164.20706176757812 C 45.89317321777344 160.75857543945312 47.755210876464844 158.88494873046875 50.31706619262695 158.26170349121094 C 53.18970489501953 160.04827880859375 55.10053634643555 161.76194763183594 55.186134338378906 163.39828491210938" stroke-width="0.0" fill="rgb(40, 42, 41)" opacity="0.99073094"/>
    <path d="M 548.8353881835938 306.55987548828125 C 548.1035766601562 309.1934814453125 546.1041870117188 310.7926330566406 543.5828247070312 310.1197814941406 C 540.9751586914062 309.6414794921875 538.081787109375 308.6293640136719 537.1953735351562 306.5788879394531 C 539.1734619140625 304.0810852050781 541.1336669921875 302.3577575683594 543.7388305664062 300.47967529296875 C 546.1779174804688 300.9206848144531 547.9767456054688 302.86138916015625 548.8353881835938 306.55987548828125" stroke-width="0.0" fill="rgb(2, 2, 2)" opacity="0.9901589"/>
    <path d="M 487.7974548339844 237.63424682617188 C 486.6949462890625 240.36959838867188 484.05914306640625 241.71151733398438 482.5771789550781 242.0933837890625 C 480.1087951660156 241.57379150390625 477.2344970703125 240.1966552734375 476.1764221191406 238.47503662109375 C 477.9187316894531 235.970947265625 480.11260986328125 234.40223693847656 482.3899841308594 233.9109649658203 C 484.1353759765625 234.2943878173828 486.8892822265625 235.28504943847656 487.7974548339844 237.63424682617188" stroke-width="0.0" fill="rgb(2, 2, 2)" opacity="0.9901138"/>
    <path d="M 461.9580078125 409.6564025878906 C 462.02154541015625 412.1087341308594 459.98980712890625 413.4930725097656 457.4131774902344 413.1626281738281 C 455.1378173828125 412.6466979980469 453.3758239746094 410.8532409667969 452.85931396484375 408.6140441894531 C 452.9590148925781 406.1380615234375 453.9171142578125 403.9599914550781 456.34710693359375 403.2769470214844 C 459.0194396972656 405.1424865722656 460.7350769042969 407.0218811035156 461.9580078125 409.6564025878906" stroke-width="0.0" fill="rgb(58, 62, 61)" opacity="0.9901378"/>
    <path d="M 195.4359893798828 381.9042053222656 C 194.46128845214844 384.6580810546875 192.69424438476562 386.5805358886719 190.23536682128906 387.2796325683594 C 187.4742889404297 386.2966613769531 185.6171112060547 384.5493469238281 184.66851806640625 381.857666015625 C 185.51724243164062 379.4053955078125 187.41429138183594 377.54351806640625 189.92239379882812 376.6622009277344 C 192.6532440185547 377.5091247558594 194.543212890625 379.3312683105469 195.4359893798828 381.9042053222656" stroke-width="0.0" fill="rgb(255, 255, 255)" opacity="0.99179375"/>
    <path d="M 401.74456787109375 63.95079040527344 C 401.39874267578125 66.55229949951172 399.4580993652344 68.11243438720703 397.019775390625 68.19499969482422 C 394.11639404296875 68.64232635498047 392.30853271484375 66.89192962646484 391.8216247558594 64.06124877929688 C 392.42254638671875 61.25162124633789 394.2644958496094 59.47635269165039 396.9171447753906 59.643672943115234 C 399.3561706542969 59.849517822265625 401.2214050292969 61.62441635131836 401.74456787109375 63.95079040527344" stroke-width="0.0" fill="rgb(252, 252, 252)" opacity="1.0"/>
    <path d="M 599.7534790039062 401.94580078125 C 599.2150268554688 404.40966796875 597.4320068359375 406.29736328125 595.0210571289062 407.3536376953125 C 592.4515991210938 406.3749694824219 590.5860595703125 404.55914306640625 589.6209716796875 402.02838134765625 C 590.571044921875 399.3885192871094 592.3865966796875 397.56463623046875 594.7490844726562 397.154052734375 C 597.1685791015625 398.0400695800781 599.155029296875 399.7785949707031 599.7534790039062 401.94580078125" stroke-width="0.0" fill="rgb(250, 250, 249)" opacity="0.99353695"/>
    <path d="M 175.1845703125 523.3579711914062 C 174.58131408691406 525.7933959960938 172.79107666015625 527.5758056640625 170.32994079589844 528.2003173828125 C 168.19505310058594 528.8226928710938 167.16627502441406 526.381103515625 166.8799591064453 524.37548828125 C 167.39300537109375 522.1713256835938 169.1706085205078 520.39111328125 171.18605041503906 519.8864135742188 C 173.3010711669922 520.2247924804688 175.74217224121094 521.257080078125 175.1845703125 523.3579711914062" stroke-width="0.0" fill="rgb(36, 35, 36)" opacity="0.9900588"/>
    <path d="M 545.27880859375 496.80126953125 C 544.3668823242188 499.5775146484375 542.5308227539062 501.1991271972656 540.349609375 501.1918640136719 C 537.28857421875 501.1466369628906 535.2307739257812 499.8591003417969 535.7918701171875 497.51202392578125 C 535.9192504882812 494.5281677246094 537.409912109375 492.55126953125 540.0242919921875 491.7622375488281 C 542.61474609375 492.5807189941406 544.5396728515625 494.3487243652344 545.27880859375 496.80126953125" stroke-width="0.0" fill="rgb(251, 251, 251)" opacity="1.0"/>
    <path d="M 238.44764709472656 462.15771484375 C 237.54200744628906 464.6549987792969 235.6383819580078 466.4920959472656 233.1400604248047 467.3886413574219 C 230.51632690429688 466.2691955566406 228.6410675048828 464.5114440917969 227.54347229003906 461.842041015625 C 228.40953063964844 459.36376953125 230.6260223388672 458.0820007324219 232.6285858154297 457.8722839355469 C 235.1829833984375 458.17095947265625 237.16351318359375 459.6951904296875 238.44764709472656 462.15771484375" stroke-width="0.0" fill="rgb(252, 252, 252)" opacity="1.0"/>
    <path d="M 437.5007629394531 227.68893432617188 C 437.04949951171875 230.1286163330078 435.0340881347656 231.73744201660156 431.7841491699219 231.4749298095703 C 428.87078857421875 231.9012908935547 426.9211730957031 230.18524169921875 426.5818786621094 227.7035675048828 C 428.2886047363281 225.06674194335938 430.0617370605469 223.2751922607422 431.92779541015625 222.78041076660156 C 433.9609375 223.2743377685547 435.75421142578125 225.02835083007812 437.5007629394531 227.68893432617188" stroke-width="0.0" fill="rgb(95, 93, 93)" opacity="0.99019796"/>
    <path d="M 534.7650146484375 47.66011047363281 C 534.1328125 50.27197265625 532.271728515625 52.13220977783203 529.2279052734375 52.882076263427734 C 525.8059692382812 52.07427978515625 523.9841918945312 50.17364501953125 524.795654296875 47.704402923583984 C 525.2925415039062 44.88759231567383 526.4143676757812 42.20851135253906 529.1354370117188 41.23101806640625 C 531.8400268554688 42.16184997558594 533.4501342773438 44.295867919921875 534.7650146484375 47.66011047363281" stroke-width="0.0" fill="rgb(26, 27, 27)" opacity="0.99014515"/>
    <path d="M 419.2874755859375 274.82305908203125 C 418.1485595703125 277.3321533203125 416.31744384765625 279.099853515625 413.8223876953125 279.8328552246094 C 411.4178161621094 279.4397888183594 409.5691833496094 277.5779724121094 408.6739807128906 275.15081787109375 C 409.83868408203125 272.5839538574219 411.4695739746094 270.5000915527344 413.45135498046875 270.8307189941406 C 416.4682922363281 271.0312194824219 418.5856628417969 272.3183288574219 419.2874755859375 274.82305908203125" stroke-width="0.0" fill="rgb(252, 252, 251)" opacity="1.0"/>
    <path d="M 225.5146484375 498.6212463378906 C 224.46437072753906 501.7546691894531 222.8595733642578 503.8013000488281 220.39999389648438 503.3507995605469 C 217.3776092529297 503.2204284667969 215.4527587890625 501.70599365234375 215.69046020507812 498.8468017578125 C 215.2300567626953 496.0752258300781 217.0917205810547 494.285888671875 220.484130859375 493.7812805175781 C 223.0832977294922 494.02667236328125 224.9204864501953 495.93572998046875 225.5146484375 498.6212463378906" stroke-width="0.0" fill="rgb(193, 194, 192)" opacity="1.0"/>
    <path d="M 333.6508483886719 92.71027374267578 C 332.75775146484375 95.84358215332031 330.768310546875 97.50682067871094 328.19921875 97.49546813964844 C 325.1157531738281 97.55126190185547 323.1295471191406 95.96906280517578 322.5956726074219 93.34335327148438 C 323.416748046875 90.13610076904297 325.0484313964844 88.124755859375 327.6167907714844 87.60237884521484 C 330.9066467285156 88.35726928710938 332.91046142578125 90.01131439208984 333.6508483886719 92.71027374267578" stroke-width="0.0" fill="rgb(132, 136, 134)" opacity="0.9965946"/>
    <path d="M 210.5695037841797 153.11558532714844 C 210.51795959472656 155.8268280029297 208.9281768798828 157.86190795898438 205.5079803466797 158.7872314453125 C 202.7717742919922 158.0990447998047 200.94778442382812 156.21176147460938 200.33203125 153.23789978027344 C 201.18336486816406 150.1617889404297 203.3367462158203 148.7906951904297 206.2015838623047 148.43443298339844 C 208.34217834472656 148.85955810546875 210.0995635986328 150.6702880859375 210.5695037841797 153.11558532714844" stroke-width="0.0" fill="rgb(158, 157, 155)" opacity="1.0"/>
    <path d="M 447.8967590332031 85.73497772216797 C 447.6026611328125 88.81702423095703 445.8435974121094 90.6971435546875 442.9901123046875 91.3259506225586 C 440.3961486816406 90.47557067871094 438.58294677734375 88.5865249633789 437.8275146484375 86.11136627197266 C 438.6233215332031 83.4131088256836 440.4182434082031 81.64300537109375 443.1760559082031 80.89132690429688 C 445.7510681152344 81.41411590576172 447.732666015625 83.1980209350586 447.8967590332031 85.73497772216797" stroke-width="0.0" fill="rgb(250, 249, 251)" opacity="1.0"/>
    <path d="M 205.21144104003906 396.46563720703125 C 204.94308471679688 399.5387878417969 203.7805633544922 401.70233154296875 201.0618896484375 402.46270751953125 C 198.3397674560547 401.5477294921875 196.5606231689453 399.62713623046875 195.67796325683594 396.8963317871094 C 196.5183868408203 394.3695983886719 198.36729431152344 392.5147399902344 200.89691162109375 392.03973388671875 C 203.62986755371094 392.6206970214844 205.5372772216797 394.32501220703125 205.21144104003906 396.46563720703125" stroke-width="0.0" fill="rgb(251, 251, 251)" opacity="0.993776"/>
    <path d="M 236.7035675048828 200.43539428710938 C 235.98060607910156 203.00965881347656 233.8555908203125 204.4961395263672 231.24038696289062 204.68650817871094 C 228.79998779296875 203.984619140625 227.0086212158203 202.2012176513672 225.98434448242188 199.85227966308594 C 226.61170959472656 197.22023010253906 228.0336151123047 195.036865234375 231.05422973632812 194.1534423828125 C 234.07675170898438 195.0041961669922 235.86935424804688 196.9696807861328 236.7035675048828 200.43539428710938" stroke-width="0.0" fill="rgb(157, 158, 156)" opacity="1.0"/>
    <path d="M 297.87841796875 291.1799011230469 C 297.1159973144531 294.239990234375 295.2296447753906 296.0892333984375 291.51763916015625 296.8759460449219 C 288.74334716796875 296.1270446777344 286.87701416015625 294.2549743652344 286.1180725097656 291.3061828613281 C 286.87884521484375 287.7457580566406 288.7497863769531 285.8887634277344 291.9992980957031 285.12884521484375 C 295.2391357421875 285.8925476074219 297.1040954589844 287.76220703125 297.87841796875 291.1799011230469" stroke-width="0.0" fill="rgb(0, 0, 0)" opacity="1.0"/>
    <path d="M 200.42941284179688 516.3868408203125 C 199.8408660888672 518.89990234375 197.80355834960938 520.5372314453125 195.1207275390625 521.2903442382812 C 192.63247680664062 520.1592407226562 190.77633666992188 518.3871459960938 189.82843017578125 515.9893798828125 C 190.37771606445312 513.0969848632812 191.98793029785156 511.04095458984375 194.50588989257812 510.3876037597656 C 197.54132080078125 511.63970947265625 199.26539611816406 513.4871215820312 200.42941284179688 516.3868408203125" stroke-width="0.0" fill="rgb(172, 173, 173)" opacity="1.0"/>
    <path d="M 348.1488952636719 135.59909057617188 C 348.58685302734375 137.80734252929688 346.8255920410156 139.6608123779297 343.9758605957031 140.39801025390625 C 341.3436584472656 139.5233612060547 339.5030517578125 137.64852905273438 338.6369934082031 135.10313415527344 C 339.7076721191406 132.54354858398438 341.60076904296875 130.8883056640625 343.6098327636719 130.7814178466797 C 345.9219970703125 131.30303955078125 347.69085693359375 133.07850646972656 348.1488952636719 135.59909057617188" stroke-width="0.0" fill="rgb(252, 252, 252)" opacity="1.0"/>
    <path d="M 44.33075714111328 430.3191833496094 C 43.848079681396484 432.9762268066406 41.96092987060547 434.80206298828125 39.26664733886719 435.1327819824219 C 36.20701217651367 434.56842041015625 34.22026443481445 432.8592529296875 33.39485168457031 430.1986083984375 C 34.36643981933594 427.181640625 36.14751434326172 425.2608642578125 38.799232482910156 424.7138366699219 C 41.52700424194336 425.59930419921875 43.23509216308594 427.5252380371094 44.33075714111328 430.3191833496094" stroke-width="0.0" fill="rgb(194, 194, 196)" opacity="1.0"/>
    <path d="M 481.87689208984375 91.2814712524414 C 481.10693359375 94.21678161621094 479.1929626464844 96.04765319824219 475.5873718261719 96.82756805419922 C 472.7420654296875 96.1254653930664 470.92144775390625 94.24185180664062 471.84112548828125 91.76432037353516 C 472.47662353515625 89.2696304321289 474.26690673828125 87.46995544433594 476.5839538574219 86.89469146728516 C 478.916748046875 86.8208999633789 481.04736328125 87.90010833740234 481.87689208984375 91.2814712524414" stroke-width="0.0" fill="rgb(3, 3, 3)" opacity="0.9901352"/>
    <path d="M 139.76780700683594 97.54387664794922 C 139.08181762695312 100.20114135742188 137.1488494873047 101.89198303222656 134.64962768554688 101.106201171875 C 132.22157287597656 100.55586242675781 130.3588409423828 98.8077392578125 128.2284393310547 96.29331970214844 C 128.89907836914062 93.77498626708984 130.78623962402344 91.92855834960938 133.30577087402344 92.42210388183594 C 135.99688720703125 93.26722717285156 138.0684814453125 94.90787506103516 139.76780700683594 97.54387664794922" stroke-width="0.0" fill="rgb(3, 3, 4)" opacity="0.99021155"/>
    <path d="M 38.09971618652344 319.610107421875 C 37.5584716796875 321.77178955078125 35.7779655456543 323.5748596191406 33.28018569946289 324.33349609375 C 30.899736404418945 324.9949645996094 29.166339874267578 323.0484313964844 28.7886905670166 320.229248046875 C 29.669872283935547 317.5 31.5 315.66986083984375 34.16603088378906 314.8157043457031 C 36.70998764038086 315.34710693359375 37.7977409362793 317.6653137207031 38.09971618652344 319.610107421875" stroke-width="0.0" fill="rgb(2, 2, 3)" opacity="0.99028844"/>
    <path d="M 233.54763793945312 131.33274841308594 C 232.87747192382812 133.9586944580078 230.9168243408203 135.7626495361328 228.34095764160156 136.2982177734375 C 225.71334838867188 135.08067321777344 223.9363250732422 133.28138732910156 222.47743225097656 130.4380340576172 C 222.94898986816406 127.81201171875 224.82008361816406 125.9718246459961 227.73287963867188 125.31846618652344 C 231.0114288330078 126.09635162353516 232.72325134277344 128.04315185546875 233.54763793945312 131.33274841308594" stroke-width="0.0" fill="rgb(141, 143, 145)" opacity="1.0"/>
    <path d="M 215.4417724609375 215.78700256347656 C 214.4039306640625 218.58531188964844 212.61056518554688 220.4890899658203 210.20021057128906 221.27210998535156 C 207.6130828857422 220.21437072753906 205.86911010742188 218.35911560058594 204.870361328125 215.86172485351562 C 205.48495483398438 213.341552734375 207.3845672607422 211.64462280273438 210.25564575195312 211.14161682128906 C 212.90689086914062 211.2505645751953 214.77114868164062 213.08660888671875 215.4417724609375 215.78700256347656" stroke-width="0.0" fill="rgb(252, 252, 251)" opacity="0.99361813"/>
    <path d="M 404.5389404296875 76.28153228759766 C 404.821044921875 78.87621307373047 402.7684020996094 80.47473907470703 399.74017333984375 81.41118621826172 C 397.1519470214844 80.72489929199219 395.3833312988281 78.81572723388672 394.8929748535156 76.04230499267578 C 395.3688049316406 73.1135482788086 397.04290771484375 71.1345443725586 399.7520446777344 70.5350341796875 C 402.8414611816406 71.32083892822266 404.67266845703125 73.15885162353516 404.5389404296875 76.28153228759766" stroke-width="0.0" fill="rgb(184, 183, 183)" opacity="1.0"/>
    <path d="M 436.32159423828125 50.81718826293945 C 435.29241943359375 53.474159240722656 433.47503662109375 55.290523529052734 431.0307922363281 55.533756256103516 C 428.45892333984375 55.32841873168945 426.5526123046875 53.57377624511719 425.5084533691406 50.919864654541016 C 426.4049987792969 48.27443313598633 428.28887939453125 46.45351791381836 430.9320373535156 45.85742950439453 C 433.60693359375 46.582603454589844 435.53399658203125 48.357521057128906 436.32159423828125 50.81718826293945" stroke-width="0.0" fill="rgb(254, 255, 255)" opacity="0.992607"/>
    <path d="M 158.7102508544922 160.3802947998047 C 158.56666564941406 162.68992614746094 156.66162109375 164.47325134277344 154.1396484375 165.08370971679688 C 151.3541259765625 164.37579345703125 149.37713623046875 162.71728515625 148.55882263183594 160.0559844970703 C 149.585205078125 157.46693420410156 151.49072265625 155.66629028320312 153.98435974121094 155.00840759277344 C 156.36416625976562 155.7481231689453 157.9635772705078 157.73109436035156 158.7102508544922 160.3802947998047" stroke-width="0.0" fill="rgb(255, 255, 255)" opacity="0.99135906"/>
    <path d="M 388.17449951171875 374.184814453125 C 387.9712219238281 376.7272033691406 387.0163879394531 379.0077209472656 384.6402893066406 379.70538330078125 C 381.9908752441406 377.80987548828125 380.22625732421875 375.99737548828125 378.70965576171875 373.3343200683594 C 378.94769287109375 370.8261413574219 380.8677978515625 369.0869445800781 383.4144287109375 369.7940368652344 C 385.8822021484375 370.3521728515625 387.68609619140625 372.1029357910156 388.17449951171875 374.184814453125" stroke-width="0.0" fill="rgb(77, 76, 75)" opacity="0.99017346"/>
    <path d="M 54.71320724487305 186.57223510742188 C 54.0190544128418 189.1163330078125 52.08150863647461 190.92385864257812 49.175697326660156 191.5821990966797 C 45.94023132324219 190.85885620117188 43.98262023925781 189.11349487304688 43.2650260925293 186.20550537109375 C 44.06765365600586 183.0177459716797 46.13142776489258 181.42074584960938 49.28642272949219 180.4897918701172 C 51.67955017089844 181.28871154785156 53.352210998535156 183.4553985595703 54.71320724487305 186.57223510742188" stroke-width="0.0" fill="rgb(193, 193, 190)" opacity="1.0"/>
    <path d="M 217.63404846191406 586.258056640625 C 216.8744354248047 588.9742431640625 214.94888305664062 590.8009643554688 212.52560424804688 590.2894897460938 C 209.4322967529297 590.0567626953125 207.3444366455078 588.7401733398438 206.5918426513672 586.2232055664062 C 207.65492248535156 583.4563598632812 209.453125 581.641845703125 211.96334838867188 580.769775390625 C 214.565185546875 581.7012329101562 216.60340881347656 583.3406372070312 217.63404846191406 586.258056640625" stroke-width="0.0" fill="rgb(233, 233, 233)" opacity="1.0"/>
    <path d="M 240.85501098632812 157.26370239257812 C 240.1205596923828 160.24440002441406 238.2199249267578 162.0515594482422 235.77627563476562 161.15907287597656 C 233.24996948242188 160.53736877441406 231.46707153320312 158.747802734375 230.91416931152344 156.61297607421875 C 231.2427978515625 154.5871124267578 232.07176208496094 152.05751037597656 235.00404357910156 151.26229858398438 C 238.16444396972656 151.98382568359375 240.05908203125 153.8200225830078 240.85501098632812 157.26370239257812" stroke-width="0.0" fill="rgb(6, 6, 7)" opacity="0.9901117"/>
    <path d="M 244.35147094726562 86.16350555419922 C 243.68408203125 88.7789077758789 241.7270050048828 90.5185546875 238.72987365722656 91.51006317138672 C 236.03228759765625 90.8248062133789 234.19061279296875 88.96324920654297 233.74122619628906 86.22550964355469 C 234.61744689941406 83.41243743896484 236.3842010498047 81.5236587524414 239.16372680664062 81.02552795410156 C 241.7681884765625 81.32445526123047 243.52560424804688 83.27955627441406 244.35147094726562 86.16350555419922" stroke-width="0.0" fill="rgb(200, 201, 199)" opacity="1.0"/>
    <path d="M 84.5604248046875 325.3791198730469 C 83.56910705566406 327.3498840332031 81.11395263671875 328.77545166015625 78.42550659179688 329.2961730957031 C 75.85710906982422 329.9544677734375 73.96826934814453 328.1669616699219 74.71148681640625 325.69866943359375 C 75.38658905029297 323.1717529296875 77.17679595947266 321.39935302734375 79.44060516357422 320.8470458984375 C 80.9958724975586 321.23114013671875 82.8701400756836 322.9729309082031 84.5604248046875 325.3791198730469" stroke-width="0.0" fill="rgb(63, 65, 64)" opacity="0.9901213"/>
    <path d="M 463.1941223144531 366.19183349609375 C 462.6182556152344 368.82037353515625 460.8558044433594 370.7254943847656 457.7308654785156 370.38116455078125 C 455.4081115722656 370.59979248046875 453.94891357421875 368.3951110839844 453.73480224609375 365.57855224609375 C 453.37384033203125 363.22869873046875 455.24444580078125 361.4190368652344 457.8671875 360.6220703125 C 460.5616149902344 361.6537780761719 462.3929138183594 363.4242248535156 463.1941223144531 366.19183349609375" stroke-width="0.0" fill="rgb(219, 220, 217)" opacity="1.0"/>
    <path d="M 335.27008056640625 297.8182678222656 C 335.8492736816406 301.10888671875 334.14239501953125 302.9824523925781 331.593505859375 302.146484375 C 328.84600830078125 301.7398376464844 326.1667175292969 300.65338134765625 325.6103210449219 298.49761962890625 C 326.2770690917969 294.9407653808594 327.8429870605469 292.9299011230469 330.31439208984375 293.67633056640625 C 333.50018310546875 294.0583801269531 335.7107238769531 295.2325439453125 335.27008056640625 297.8182678222656" stroke-width="0.0" fill="rgb(5, 5, 5)" opacity="0.9900681"/>
    <path d="M 506.52008056640625 49.747108459472656 C 505.792236328125 51.969764709472656 503.92852783203125 53.678192138671875 501.876708984375 54.144264221191406 C 499.5531311035156 53.85858154296875 497.2381286621094 52.79890441894531 497.6784362792969 50.41846466064453 C 497.7300109863281 47.212581634521484 499.05792236328125 45.108642578125 501.64605712890625 44.327083587646484 C 504.1664733886719 45.80817413330078 505.9183654785156 47.897186279296875 506.52008056640625 49.747108459472656" stroke-width="0.0" fill="rgb(61, 62, 62)" opacity="0.9900913"/>
    <path d="M 164.28810119628906 458.7305603027344 C 163.7794189453125 461.0235290527344 162.04185485839844 462.8281555175781 159.39662170410156 463.7810974121094 C 156.7943878173828 464.0446472167969 154.90904235839844 462.2215881347656 154.22357177734375 459.4293518066406 C 155.01580810546875 455.8477478027344 156.81417846679688 453.9234619140625 159.46139526367188 453.2162780761719 C 162.42263793945312 454.4975891113281 164.00218200683594 456.7213439941406 164.28810119628906 458.7305603027344" stroke-width="0.0" fill="rgb(111, 112, 112)" opacity="1.0"/>
    <path d="M 504.41522216796875 137.7608642578125 C 503.5491638183594 140.64794921875 501.5772399902344 142.30709838867188 498.9874572753906 143.02183532714844 C 496.46356201171875 142.27334594726562 494.47796630859375 140.61329650878906 494.110107421875 137.93150329589844 C 494.1556091308594 135.0259246826172 496.0633239746094 133.27830505371094 499.23626708984375 132.7735137939453 C 502.0334167480469 133.10572814941406 503.84185791015625 134.9835968017578 504.41522216796875 137.7608642578125" stroke-width="0.0" fill="rgb(217, 216, 216)" opacity="1.0"/>
    <path d="M 64.8539810180664 296.828857421875 C 64.10104370117188 300.2304382324219 62.211936950683594 302.0474853515625 59.54767990112305 301.50091552734375 C 56.113040924072266 301.54388427734375 54.18089294433594 299.9541320800781 54.62602996826172 297.2239990234375 C 54.18219757080078 293.913818359375 55.843509674072266 291.9435119628906 59.20655822753906 291.16650390625 C 62.237796783447266 291.9058532714844 64.11688995361328 293.7533874511719 64.8539810180664 296.828857421875" stroke-width="0.0" fill="rgb(33, 34, 33)" opacity="0.9903668"/>
    <path d="M 250.47628784179688 231.73365783691406 C 249.97145080566406 233.82742309570312 247.13632202148438 234.68020629882812 245.29490661621094 235.09776306152344 C 243.21444702148438 234.56723022460938 241.4129638671875 232.7931671142578 240.82687377929688 230.38845825195312 C 240.13082885742188 227.96507263183594 242.028564453125 226.4464874267578 244.389404296875 226.8888702392578 C 246.76951599121094 227.4509735107422 248.6107940673828 229.20767211914062 250.47628784179688 231.73365783691406" stroke-width="0.0" fill="rgb(17, 15, 18)" opacity="0.99006915"/>
    <path d="M 158.79873657226562 156.6649932861328 C 158.51416015625 158.04324340820312 155.83926391601562 159.5476531982422 153.73110961914062 160.07498168945312 C 152.24012756347656 159.53482055664062 150.3863983154297 157.78919982910156 148.3552703857422 155.3189697265625 C 149.28805541992188 153.82339477539062 152.0999755859375 152.4152069091797 154.11016845703125 151.9202423095703 C 155.8028106689453 152.4361114501953 157.6477813720703 154.1642608642578 158.79873657226562 156.6649932861328" stroke-width="0.0" fill="rgb(5, 5, 5)" opacity="0.99006313"/>
    <path d="M 79.6501693725586 277.43707275390625 C 78.85831451416016 279.79388427734375 76.46612548828125 281.0296325683594 73.6432113647461 281.6378479003906 C 71.04586029052734 281.79736328125 69.2938461303711 279.929443359375 68.60093688964844 276.5505676269531 C 68.98963165283203 273.8233642578125 70.79303741455078 271.9062805175781 73.5101318359375 271.1712646484375 C 76.84806060791016 272.150634765625 78.3863525390625 274.30975341796875 79.6501693725586 277.43707275390625" stroke-width="0.0" fill="rgb(126, 128, 128)" opacity="0.99131185"/>
    <path d="M 500.5675354003906 165.4980010986328 C 500.8305358886719 167.88128662109375 498.7073059082031 169.1566619873047 496.3130187988281 169.2263641357422 C 493.9674377441406 168.7488555908203 491.87762451171875 167.14454650878906 490.8999328613281 165.0448760986328 C 491.2071228027344 161.9494171142578 492.8761901855469 159.96827697753906 495.6097412109375 159.22535705566406 C 498.7451171875 160.21043395996094 499.9664001464844 162.58229064941406 500.5675354003906 165.4980010986328" stroke-width="0.0" fill="rgb(98, 99, 96)" opacity="0.9901751"/>
    <path d="M 79.55376434326172 424.53521728515625 C 79.0457534790039 427.5582580566406 77.8287582397461 429.84832763671875 74.62952423095703 430.79461669921875 C 71.80030822753906 430.0743408203125 69.95501708984375 428.1885681152344 69.18399047851562 424.78118896484375 C 69.91535186767578 421.79791259765625 71.82825469970703 420.0022888183594 75.03471374511719 419.3489685058594 C 78.06015014648438 420.0543518066406 79.84590148925781 421.9725341796875 79.55376434326172 424.53521728515625" stroke-width="0.0" fill="rgb(129, 130, 127)" opacity="1.0"/>
    <path d="M 439.8000183105469 486.582763671875 C 438.8619384765625 489.75811767578125 436.2035827636719 490.7288513183594 434.0908203125 491.1171569824219 C 431.85498046875 490.7132873535156 429.03863525390625 489.79071044921875 428.1383972167969 487.3325500488281 C 428.96258544921875 483.87689208984375 430.9971618652344 482.5005187988281 434.6741027832031 482.5535888671875 C 437.237548828125 481.90203857421875 439.0937194824219 483.7642822265625 439.8000183105469 486.582763671875" stroke-width="0.0" fill="rgb(31, 32, 31)" opacity="0.9902368"/>
    <path d="M 465.29937744140625 380.1273193359375 C 464.7265319824219 382.847412109375 462.8186950683594 384.6358337402344 460.1024475097656 385.3301086425781 C 457.39093017578125 384.4324951171875 455.56317138671875 382.610595703125 454.8526611328125 380.10089111328125 C 455.830322265625 377.6324768066406 457.6569519042969 375.9115905761719 460.38525390625 375.553955078125 C 462.89898681640625 375.17047119140625 464.57977294921875 377.182373046875 465.29937744140625 380.1273193359375" stroke-width="0.0" fill="rgb(199, 197, 195)" opacity="1.0"/>
    <path d="M 485.3830871582031 535.8068237304688 C 484.0141906738281 538.1416625976562 482.0663146972656 539.784912109375 479.77294921875 540.13232421875 C 477.5956115722656 540.031982421875 475.63671875 538.5202026367188 475.35858154296875 535.9285278320312 C 475.6881103515625 533.48779296875 477.47979736328125 531.6597290039062 480.0958251953125 530.65185546875 C 482.6944885253906 531.4556884765625 484.5556335449219 533.3021850585938 485.3830871582031 535.8068237304688" stroke-width="0.0" fill="rgb(232, 234, 234)" opacity="1.0"/>
    <path d="M 159.67404174804688 118.85677337646484 C 159.06817626953125 121.26473236083984 157.17088317871094 122.82589721679688 154.6424102783203 123.13612365722656 C 152.96009826660156 122.79019165039062 151.22958374023438 121.0346450805664 150.8976593017578 119.15081024169922 C 151.22476196289062 116.84086608886719 152.79168701171875 115.13639068603516 155.36691284179688 114.83639526367188 C 157.59910583496094 114.77468872070312 159.43223571777344 116.35303497314453 159.67404174804688 118.85677337646484" stroke-width="0.0" fill="rgb(250, 250, 250)" opacity="1.0"/>
    <path d="M 53.790367126464844 98.34000396728516 C 52.6781005859375 100.89644622802734 50.89657211303711 102.67781066894531 48.56285095214844 103.20608520507812 C 46.175418853759766 103.48902130126953 44.26591110229492 101.8824462890625 43.7971076965332 99.19361114501953 C 44.669944763183594 96.49979400634766 46.49625778198242 94.6571044921875 48.60276412963867 94.61776733398438 C 51.706268310546875 94.93476867675781 53.936344146728516 96.0511474609375 53.790367126464844 98.34000396728516" stroke-width="0.0" fill="rgb(75, 75, 75)" opacity="0.9902295"/>
    <path d="M 541.3187866210938 43.35535430908203 C 540.9638671875 46.13432312011719 539.165771484375 48.053062438964844 536.4049072265625 48.761497497558594 C 533.133544921875 47.77497482299805 531.2382202148438 45.863319396972656 530.5203247070312 43.166656494140625 C 531.6378784179688 40.6236686706543 533.7278442382812 39.0035514831543 536.52294921875 37.627113342285156 C 539.030029296875 38.06266784667969 540.7293701171875 40.034446716308594 541.3187866210938 43.35535430908203" stroke-width="0.0" fill="rgb(138, 137, 137)" opacity="1.0"/>
    <path d="M 565.2050170898438 325.3921813964844 C 565.9205932617188 328.152099609375 564.2051391601562 330.0943908691406 561.0194091796875 330.8578186035156 C 557.7379150390625 330.1238708496094 555.8758544921875 328.26214599609375 555.19091796875 325.5729675292969 C 556.4183959960938 322.3846130371094 558.4608764648438 320.653564453125 560.950927734375 320.0370788574219 C 563.3005981445312 320.82806396484375 564.922119140625 322.7814025878906 565.2050170898438 325.3921813964844" stroke-width="0.0" fill="rgb(2, 2, 2)" opacity="0.99149424"/>
    <path d="M 84.1732406616211 175.78359985351562 C 83.38628387451172 178.62107849121094 81.65765380859375 180.51756286621094 79.1883773803711 180.89529418945312 C 76.39590454101562 180.3782196044922 74.61272430419922 178.60585021972656 74.07604217529297 175.8982696533203 C 74.44316864013672 173.22897338867188 76.20931243896484 171.38552856445312 79.36465454101562 171.60739135742188 C 81.80059814453125 171.34986877441406 83.6773910522461 173.19097900390625 84.1732406616211 175.78359985351562" stroke-width="0.0" fill="rgb(253, 253, 253)" opacity="0.9943511"/>
    <path d="M 407.2041931152344 424.03045654296875 C 406.46136474609375 426.58404541015625 404.51849365234375 428.241943359375 401.7559814453125 429.20281982421875 C 399.2737731933594 428.5880432128906 397.4049987792969 426.7283935546875 396.50579833984375 424.05755615234375 C 397.50653076171875 421.3599853515625 399.3464050292969 419.4656677246094 401.8944396972656 418.5621337890625 C 404.5184631347656 419.6300964355469 406.2840576171875 421.5078430175781 407.2041931152344 424.03045654296875" stroke-width="0.0" fill="rgb(254, 254, 253)" opacity="0.99170136"/>
    <path d="M 86.30435943603516 534.2318115234375 C 85.55009460449219 536.755859375 83.75104522705078 538.5379028320312 81.34956359863281 539.1172485351562 C 78.94197845458984 539.7185668945312 76.9739761352539 538.1354370117188 77.77131652832031 535.75341796875 C 78.46114349365234 533.26123046875 80.27115631103516 531.4854125976562 82.60404968261719 530.912109375 C 84.94520568847656 530.9375610351562 87.05711364746094 531.8728637695312 86.30435943603516 534.2318115234375" stroke-width="0.0" fill="rgb(16, 17, 16)" opacity="0.99007285"/>
    <path d="M 177.1690216064453 354.96868896484375 C 176.49871826171875 357.6560363769531 174.6457977294922 359.4653625488281 172.0799560546875 360.2294616699219 C 169.40744018554688 359.4071350097656 167.499267578125 357.62066650390625 166.66888427734375 355.10260009765625 C 167.51011657714844 352.32427978515625 169.29127502441406 350.4026794433594 172.0061798095703 349.4714660644531 C 174.72959899902344 350.39996337890625 176.5536651611328 352.2840576171875 177.1690216064453 354.96868896484375" stroke-width="0.0" fill="rgb(255, 255, 255)" opacity="0.9916098"/>
    <path d="M 257.2493591308594 220.47705078125 C 257.52972412109375 223.9569854736328 256.0389709472656 225.90756225585938 253.7373809814453 225.1238555908203 C 251.26217651367188 224.52642822265625 249.47308349609375 222.7379608154297 248.89744567871094 220.34652709960938 C 248.59629821777344 218.16563415527344 250.21469116210938 216.88668823242188 253.3600311279297 216.86184692382812 C 255.96981811523438 216.30926513671875 257.88275146484375 217.9813690185547 257.2493591308594 220.47705078125" stroke-width="0.0" fill="rgb(15, 15, 15)" opacity="0.99006414"/>
    <path d="M 110.14006805419922 60.672027587890625 C 110.90890502929688 63.15270233154297 109.21739196777344 65.11564636230469 106.34213256835938 65.87188720703125 C 102.75170135498047 65.1031494140625 100.8609390258789 63.26278305053711 100.13773345947266 60.587608337402344 C 101.13749694824219 57.335487365722656 103.87895202636719 56.29020309448242 105.53736114501953 55.89888381958008 C 107.76234436035156 56.45399475097656 109.5547866821289 58.234092712402344 110.14006805419922 60.672027587890625" stroke-width="0.0" fill="rgb(25, 24, 23)" opacity="0.9901157"/>
    <path d="M 48.8624267578125 96.97449493408203 C 48.47864532470703 99.62823486328125 46.64914321899414 101.54520416259766 43.366390228271484 102.79305267333984 C 40.75770568847656 102.11286163330078 38.933650970458984 100.22596740722656 39.118812561035156 97.60330963134766 C 40.102115631103516 94.66766357421875 41.17105484008789 92.05299377441406 44.35137176513672 91.12377166748047 C 47.17994689941406 91.9039077758789 48.81679153442383 93.90878295898438 48.8624267578125 96.97449493408203" stroke-width="0.0" fill="rgb(5, 5, 6)" opacity="0.993022"/>
    <path d="M 57.492286682128906 460.2108459472656 C 56.75969314575195 462.9369812011719 54.99139404296875 464.9142761230469 52.52763748168945 465.0071105957031 C 49.22321701049805 464.4857177734375 47.31014633178711 462.8287658691406 47.0516357421875 460.2491149902344 C 47.79875183105469 457.5097961425781 49.411128997802734 455.488525390625 51.87993621826172 454.5633239746094 C 54.545677185058594 455.6423034667969 56.39873504638672 457.44219970703125 57.492286682128906 460.2108459472656" stroke-width="0.0" fill="rgb(252, 252, 252)" opacity="1.0"/>
    <path d="M 250.36448669433594 551.704833984375 C 250.63336181640625 554.8494262695312 248.8712921142578 556.7167358398438 246.25210571289062 556.3796997070312 C 243.49786376953125 556.2763671875 241.74813842773438 554.4923706054688 241.2460479736328 551.7346801757812 C 241.5023193359375 549.44091796875 243.55142211914062 547.8386840820312 245.7157440185547 547.7373657226562 C 248.55953979492188 547.71435546875 250.3868865966797 549.419677734375 250.36448669433594 551.704833984375" stroke-width="0.0" fill="rgb(243, 243, 243)" opacity="1.0"/>
    <path d="M 532.0941772460938 425.5228271484375 C 531.5328369140625 427.7574157714844 529.7782592773438 429.58489990234375 527.2781372070312 430.3489990234375 C 524.9730224609375 430.9857482910156 524.0931396484375 428.75836181640625 523.8877563476562 426.107666015625 C 524.3176879882812 423.9067687988281 525.313720703125 421.104248046875 527.9359130859375 420.1954650878906 C 530.8010864257812 421.09515380859375 531.7141723632812 423.79888916015625 532.0941772460938 425.5228271484375" stroke-width="0.0" fill="rgb(18, 19, 18)" opacity="0.9900986"/>
    <path d="M 136.1664581298828 315.4056396484375 C 134.63113403320312 317.8157043457031 132.79063415527344 319.56378173828125 130.3773651123047 320.12347412109375 C 127.96805572509766 320.7879638671875 126.1781005859375 319.0391845703125 126.88907623291016 316.72216796875 C 127.4821548461914 314.2633361816406 129.25204467773438 312.45550537109375 131.2825469970703 311.91119384765625 C 132.90077209472656 312.3834228515625 135.20277404785156 313.9501953125 136.1664581298828 315.4056396484375" stroke-width="0.0" fill="rgb(20, 20, 21)" opacity="0.9900628"/>
    <path d="M 112.09969329833984 24.429155349731445 C 111.69332885742188 26.645383834838867 109.37045288085938 27.989112854003906 106.81238555908203 28.414072036743164 C 104.1367416381836 28.47614288330078 102.0633544921875 26.992897033691406 101.66726684570312 24.563505172729492 C 103.13693237304688 21.912303924560547 104.92012023925781 20.15927505493164 107.10823059082031 19.69922637939453 C 109.10658264160156 20.140954971313477 110.92264556884766 21.870662689208984 112.09969329833984 24.429155349731445" stroke-width="0.0" fill="rgb(119, 117, 115)" opacity="0.99019074"/>
    <path d="M 390.841064453125 255.09120178222656 C 390.49053955078125 257.76226806640625 388.8673400878906 259.81634521484375 386.5589904785156 259.2377014160156 C 383.25506591796875 259.2590026855469 381.3978271484375 257.8110656738281 381.7699890136719 255.28988647460938 C 382.081298828125 252.884765625 383.887939453125 251.0794677734375 385.6770935058594 250.69204711914062 C 388.5189514160156 250.77005004882812 390.4564208984375 252.41635131835938 390.841064453125 255.09120178222656" stroke-width="0.0" fill="rgb(233, 232, 232)" opacity="1.0"/>
    <path d="M 112.83399963378906 450.5984802246094 C 111.77867126464844 453.5963439941406 109.26708984375 454.9541320800781 106.48228454589844 456.24169921875 C 103.80816650390625 456.0124206542969 101.90110778808594 454.2214050292969 101.57898712158203 451.6383361816406 C 102.30511474609375 448.0196838378906 103.94187927246094 446.0334777832031 107.49128723144531 445.1724548339844 C 110.2509994506836 445.8843078613281 112.1049575805664 447.7530517578125 112.83399963378906 450.5984802246094" stroke-width="0.0" fill="rgb(23, 25, 23)" opacity="0.99435717"/>
    <path d="M 145.48284912109375 449.4908752441406 C 145.6688690185547 452.91510009765625 143.95460510253906 454.8171691894531 141.221435546875 454.7643737792969 C 138.3181610107422 454.4999084472656 136.48519897460938 452.6845703125 135.54835510253906 449.92578125 C 136.45086669921875 447.3118896484375 138.3212432861328 445.48193359375 141.07508850097656 444.5952453613281 C 143.9121856689453 445.30914306640625 145.9191131591797 447.0109558105469 145.48284912109375 449.4908752441406" stroke-width="0.0" fill="rgb(211, 212, 210)" opacity="1.0"/>
    <path d="M 131.70401000976562 199.8146514892578 C 130.8682098388672 202.0338897705078 128.99282836914062 203.7460479736328 127.0682601928711 204.1957550048828 C 124.95439147949219 203.74966430664062 122.7402114868164 202.1870574951172 121.42874908447266 200.2637481689453 C 123.00320434570312 197.9107666015625 124.98926544189453 196.25392150878906 127.01542663574219 195.78927612304688 C 129.1015625 196.19969177246094 131.0983428955078 197.79739379882812 131.70401000976562 199.8146514892578" stroke-width="0.0" fill="rgb(93, 93, 92)" opacity="0.9901548"/>
    <path d="M 405.3354797363281 500.32330322265625 C 405.5311584472656 502.71826171875 403.6642761230469 504.2752685546875 400.4855041503906 504.2449951171875 C 398.0447998046875 504.831298828125 396.17047119140625 502.9538269042969 395.488037109375 500.24078369140625 C 396.57598876953125 497.4893493652344 398.64764404296875 496.02410888671875 401.40533447265625 495.72052001953125 C 403.6887512207031 495.3909606933594 405.4211120605469 497.3680725097656 405.3354797363281 500.32330322265625" stroke-width="0.0" fill="rgb(252, 252, 252)" opacity="1.0"/>
    <path d="M 263.08636474609375 451.9200439453125 C 262.19085693359375 454.4518737792969 260.4742736816406 456.2477111816406 257.6723327636719 456.6278991699219 C 255.19993591308594 456.6834716796875 253.4003143310547 454.77301025390625 253.12155151367188 452.3677978515625 C 254.16978454589844 449.96044921875 255.9125213623047 448.00091552734375 257.630859375 447.5892639160156 C 259.9286804199219 448.2850341796875 261.914794921875 450.0178527832031 263.08636474609375 451.9200439453125" stroke-width="0.0" fill="rgb(236, 236, 235)" opacity="1.0"/>
    <path d="M 27.376379013061523 81.79153442382812 C 26.481470108032227 84.62918853759766 24.632347106933594 86.49140930175781 22.261268615722656 86.74835205078125 C 19.850788116455078 85.93370819091797 17.998727798461914 84.16986846923828 16.66090965270996 81.87732696533203 C 17.78743553161621 79.6259536743164 19.645427703857422 77.8548583984375 22.20631217956543 76.99986267089844 C 24.868852615356445 77.33047485351562 26.780704498291016 79.09716796875 27.376379013061523 81.79153442382812" stroke-width="0.0" fill="rgb(184, 183, 184)" opacity="0.9904087"/>
    <path d="M 369.43121337890625 530.3958740234375 C 367.9113464355469 533.1844482421875 366.3002624511719 535.3381958007812 363.8027038574219 536.6254272460938 C 361.8666076660156 535.35546875 360.34674072265625 532.9561157226562 359.87420654296875 531.0824584960938 C 360.385986328125 529.1587524414062 362.15283203125 527.3712158203125 364.4621887207031 526.8348999023438 C 366.9307861328125 526.5628051757812 368.9979553222656 527.9335327148438 369.43121337890625 530.3958740234375" stroke-width="0.0" fill="rgb(61, 61, 62)" opacity="0.990107"/>
    <path d="M 58.20867919921875 322.6175231933594 C 58.591609954833984 325.8288269042969 56.83041000366211 327.6145324707031 54.158267974853516 327.4739990234375 C 51.466163635253906 327.22308349609375 49.5344123840332 325.60302734375 48.85007095336914 322.84808349609375 C 49.3159065246582 320.2254638671875 51.28358459472656 318.5006408691406 53.70146179199219 318.3141784667969 C 56.125797271728516 319.1302185058594 58.31294250488281 320.7577819824219 58.20867919921875 322.6175231933594" stroke-width="0.0" fill="rgb(251, 251, 251)" opacity="1.0"/>
    <path d="M 391.30712890625 479.2679443359375 C 392.0050048828125 482.208984375 390.2513732910156 484.13458251953125 387.3433532714844 484.8797302246094 C 383.7611389160156 484.1097412109375 381.90716552734375 482.23236083984375 381.1352233886719 478.71112060546875 C 381.93017578125 475.8970031738281 384.1318664550781 474.9477844238281 387.58636474609375 474.773193359375 C 390.0179748535156 474.0850830078125 391.70330810546875 476.0449523925781 391.30712890625 479.2679443359375" stroke-width="0.0" fill="rgb(17, 17, 19)" opacity="0.9901633"/>
    <path d="M 266.814697265625 201.31790161132812 C 266.0740661621094 204.17625427246094 264.12158203125 205.90826416015625 261.29998779296875 205.7491912841797 C 258.41546630859375 205.21697998046875 256.2958679199219 203.73367309570312 255.8412628173828 201.34976196289062 C 256.8935852050781 198.5006561279297 258.2472839355469 196.2041473388672 261.40625 195.2269287109375 C 264.1891784667969 195.9460906982422 266.0472106933594 197.8131103515625 266.814697265625 201.31790161132812" stroke-width="0.0" fill="rgb(131, 130, 129)" opacity="1.0"/>
    <path d="M 69.87557983398438 390.5518493652344 C 69.05516052246094 394.164306640625 67.10929870605469 395.87066650390625 64.64366912841797 395.1402893066406 C 62.22251510620117 394.5746765136719 60.46725845336914 392.75970458984375 59.85530471801758 390.21923828125 C 58.92262649536133 387.7605285644531 60.74437713623047 385.8763122558594 63.98627471923828 385.13970947265625 C 67.2507553100586 385.8922119140625 69.13629150390625 387.73779296875 69.87557983398438 390.5518493652344" stroke-width="0.0" fill="rgb(2, 2, 3)" opacity="0.99017"/>
    <path d="M 135.45643615722656 254.29214477539062 C 134.84906005859375 256.9178771972656 132.8399200439453 258.6092224121094 129.5746612548828 259.4281005859375 C 126.90100860595703 258.9661560058594 125.07467651367188 257.08551025390625 124.38223266601562 254.0038604736328 C 125.10501861572266 250.92535400390625 126.88831329345703 248.99740600585938 129.94740295410156 248.35678100585938 C 133.04666137695312 249.05921936035156 134.76966857910156 251.0059356689453 135.45643615722656 254.29214477539062" stroke-width="0.0" fill="rgb(172, 173, 171)" opacity="1.0"/>
    <path d="M 126.10275268554688 63.23685836791992 C 125.69544219970703 65.13760375976562 124.76790618896484 67.9250259399414 121.82027435302734 68.81256866455078 C 118.8619384765625 68.04298400878906 117.18849182128906 66.06771087646484 117.723388671875 62.838375091552734 C 117.2573471069336 60.173118591308594 119.30236053466797 58.74345779418945 122.6195068359375 57.29539489746094 C 125.00164031982422 57.97726058959961 125.73957061767578 60.561424255371094 126.10275268554688 63.23685836791992" stroke-width="0.0" fill="rgb(15, 18, 19)" opacity="0.9900911"/>
    <path d="M 565.2601318359375 320.9112243652344 C 564.3256225585938 323.50213623046875 562.5050048828125 325.33477783203125 559.9161376953125 326.0433654785156 C 557.114501953125 325.6178894042969 555.05126953125 323.9962463378906 554.1981811523438 320.67230224609375 C 554.9276123046875 317.8038330078125 556.8074951171875 315.935302734375 559.3458251953125 315.2369384765625 C 562.2010498046875 317.0644836425781 564.5376586914062 318.63507080078125 565.2601318359375 320.9112243652344" stroke-width="0.0" fill="rgb(17, 18, 17)" opacity="0.9904852"/>
    <path d="M 172.7214813232422 4.398047924041748 C 170.8234405517578 6.943979263305664 168.88339233398438 8.636419296264648 166.86697387695312 9.148089408874512 C 165.0665283203125 8.676318168640137 163.10647583007812 7.003364562988281 161.2007293701172 4.314541339874268 C 161.88632202148438 1.7804405689239502 163.82867431640625 0.02461230754852295 166.74253845214844 -0.004461850039660931 C 170.05157470703125 0.17813259363174438 172.03359985351562 1.8788914680480957 172.7214813232422 4.398047924041748" stroke-width="0.0" fill="rgb(70, 71, 70)" opacity="0.99033856"/>
    <path d="M 383.671142578125 530.5557861328125 C 382.3194885253906 533.4888305664062 380.53216552734375 535.4545288085938 377.6935729980469 536.6119995117188 C 375.17822265625 535.818115234375 373.8384094238281 533.62060546875 373.6630859375 531.2938842773438 C 374.1861877441406 528.9542846679688 375.9526672363281 527.1810302734375 378.1705322265625 526.6707153320312 C 380.4339294433594 527.020263671875 382.84967041015625 528.2129516601562 383.671142578125 530.5557861328125" stroke-width="0.0" fill="rgb(124, 124, 124)" opacity="0.9903316"/>
    <path d="M 490.4708557128906 453.4731750488281 C 489.66534423828125 456.9993896484375 488.110595703125 459.0399169921875 485.7677001953125 458.41473388671875 C 483.23309326171875 457.5516662597656 481.4130859375 455.7803955078125 480.2978820800781 453.2403564453125 C 479.88360595703125 450.7464599609375 481.75 448.89239501953125 484.76947021484375 448.1517333984375 C 488.21417236328125 448.91680908203125 490.0622863769531 450.79351806640625 490.4708557128906 453.4731750488281" stroke-width="0.0" fill="rgb(23, 22, 24)" opacity="0.9901361"/>
    <path d="M 38.39527130126953 318.6166076660156 C 37.338253021240234 321.5060729980469 35.50529479980469 323.3356018066406 32.69783020019531 324.2760925292969 C 29.840316772460938 323.9369201660156 27.883811950683594 322.2194519042969 27.140117645263672 319.3899841308594 C 28.137184143066406 316.5559997558594 30.991926193237305 315.3352355957031 33.74243927001953 314.60565185546875 C 36.20759582519531 313.9162902832031 37.98820877075195 315.8239440917969 38.39527130126953 318.6166076660156" stroke-width="0.0" fill="rgb(2, 4, 2)" opacity="0.9905799"/>
    <path d="M 224.94129943847656 414.0177307128906 C 224.40318298339844 416.60430908203125 222.64453125 418.5361328125 220.13290405273438 419.3330993652344 C 217.3950653076172 418.4591064453125 215.6741485595703 416.5679016113281 215.2559814453125 413.9975891113281 C 215.63502502441406 411.37872314453125 217.31808471679688 409.4220275878906 219.84048461914062 408.5646667480469 C 222.49928283691406 409.67987060546875 224.32859802246094 411.4978332519531 224.94129943847656 414.0177307128906" stroke-width="0.0" fill="rgb(255, 255, 255)" opacity="0.9918579"/>
    <path d="M 140.33587646484375 199.2783966064453 C 139.82728576660156 202.01937866210938 138.0660858154297 203.9665985107422 135.45089721679688 204.51751708984375 C 132.3653106689453 203.39321899414062 130.48757934570312 201.6693115234375 130.5266571044922 199.1031494140625 C 130.65750122070312 196.4069366455078 132.35763549804688 194.4801025390625 135.09681701660156 193.647705078125 C 137.60531616210938 194.41476440429688 139.16452026367188 196.54115295410156 140.33587646484375 199.2783966064453" stroke-width="0.0" fill="rgb(181, 180, 179)" opacity="0.9905885"/>
    <path d="M 594.237060546875 500.16912841796875 C 593.8703002929688 502.0639343261719 592.044189453125 503.81365966796875 589.4003295898438 505.4367980957031 C 587.3416748046875 504.84381103515625 586.1634521484375 502.212890625 585.6197509765625 499.5778503417969 C 585.6382446289062 497.65264892578125 587.8294677734375 496.17919921875 590.5769653320312 495.64739990234375 C 592.945068359375 495.10906982421875 594.0591430664062 497.2582702636719 594.237060546875 500.16912841796875" stroke-width="0.0" fill="rgb(80, 79, 77)" opacity="0.99009645"/>
    <path d="M 337.380615234375 82.63270568847656 C 336.3155822753906 85.51316833496094 334.49615478515625 87.26188659667969 332.2967834472656 87.35316467285156 C 329.5845947265625 87.14804077148438 327.7762451171875 85.43726348876953 326.691162109375 82.74036407470703 C 327.416015625 80.4117431640625 329.5290832519531 78.76183319091797 332.2033386230469 78.17707061767578 C 334.9074401855469 78.28050231933594 336.8419189453125 80.05355834960938 337.380615234375 82.63270568847656" stroke-width="0.0" fill="rgb(217, 215, 217)" opacity="1.0"/>
    <path d="M 485.5361328125 189.5076141357422 C 484.99151611328125 192.1075439453125 483.0753173828125 193.89468383789062 479.9884033203125 194.5097198486328 C 476.9371643066406 193.89361572265625 475.05035400390625 192.0810546875 474.5373229980469 189.42868041992188 C 475.8977966308594 186.70233154296875 477.7240295410156 184.96530151367188 480.0871887207031 184.38111877441406 C 482.20166015625 185.0110321044922 484.01678466796875 186.78895568847656 485.5361328125 189.5076141357422" stroke-width="0.0" fill="rgb(161, 160, 159)" opacity="1.0"/>
    <path d="M 227.1810760498047 573.6890258789062 C 227.54779052734375 575.6748657226562 225.5695037841797 577.1499633789062 222.6075439453125 577.2256469726562 C 220.22056579589844 577.5842895507812 218.41944885253906 575.776123046875 217.55947875976562 572.9789428710938 C 218.51028442382812 570.4254150390625 220.6363525390625 569.0704345703125 222.81521606445312 568.8916015625 C 224.91329956054688 569.2894287109375 226.59854125976562 571.1357421875 227.1810760498047 573.6890258789062" stroke-width="0.0" fill="rgb(252, 252, 250)" opacity="1.0"/>
    <path d="M 567.8338012695312 64.98631286621094 C 567.0906982421875 68.23467254638672 565.2478637695312 70.12442016601562 562.233154296875 70.87665557861328 C 558.7470703125 70.12187957763672 556.9131469726562 68.24019622802734 557.60888671875 65.73075103759766 C 558.4210815429688 63.22943878173828 560.2459106445312 61.463661193847656 562.4525146484375 60.904483795166016 C 564.6692504882812 61.19451904296875 567.0396728515625 61.94745635986328 567.8338012695312 64.98631286621094" stroke-width="0.0" fill="rgb(14, 14, 15)" opacity="0.9901145"/>
  </g>
</svg>
