<?xml version="1.0" ?>
<svg xmlns="http://www.w3.org/2000/svg" version="1.1" width="600" height="600">
  <defs/>
  <g>
    <path d="M 269.3660888671875 452.8065490722656 C 267.11102294921875 454.8289489746094 264.8457946777344 456.8880615234375 261.8996887207031 458.551025390625 C 258.6799621582031 456.46734619140625 254.95811462402344 454.78900146484375 257.4291076660156 448.6446838378906 C 255.34913635253906 446.0374450683594 256.46136474609375 444.38134765625 260.8144226074219 444.1018981933594 C 264.19854736328125 447.94439697265625 266.5142822265625 449.916259765625 269.3660888671875 452.8065490722656" stroke-width="0.0" fill="rgb(252, 252, 252)" opacity="0.6275973"/>
    <path d="M 437.31146240234375 1.967217206954956 C 435.36260986328125 5.115567684173584 434.3963928222656 7.658295631408691 432.0307922363281 9.528815269470215 C 429.6524963378906 7.013140678405762 427.2381591796875 5.401337146759033 426.8323059082031 2.7578821182250977 C 427.09124755859375 0.5476556420326233 429.5833740234375 -1.1329447031021118 432.07293701171875 -1.9991730451583862 C 434.4561767578125 -1.3070483207702637 436.4899597167969 0.6747785210609436 437.31146240234375 1.967217206954956" stroke-width="0.0" fill="rgb(250, 251, 251)" opacity="0.6279446"/>
    <path d="M 48.709449768066406 18.417470932006836 C 60.12667465209961 19.044811248779297 55.16297912597656 31.46052360534668 44.65608596801758 24.97347640991211 C 25.533916473388672 20.56508445739746 24.638015747070312 16.64031219482422 25.62946891784668 13.90194034576416 C 29.10191535949707 13.898491859436035 32.33793258666992 13.817137718200684 26.643516540527344 15.862707138061523 C 25.73387908935547 11.484052658081055 29.759607315063477 10.495527267456055 48.709449768066406 18.417470932006836" stroke-width="0.0" fill="rgb(10, 10, 10)" opacity="0.9656377"/>
    <path d="M 373.9435119628906 339.6676940917969 C 373.4637451171875 342.4122009277344 371.4940185546875 344.9200744628906 369.23858642578125 345.1407470703125 C 366.5771484375 344.774658203125 364.5419921875 342.4033508300781 363.83172607421875 339.6422119140625 C 364.3579406738281 337.5199279785156 366.55999755859375 335.7207336425781 369.1243896484375 334.8020935058594 C 372.0316467285156 334.96466064453125 374.3475341796875 336.84979248046875 373.9435119628906 339.6676940917969" stroke-width="0.0" fill="rgb(251, 251, 251)" opacity="0.60119444"/>
    <path d="M 495.2669982910156 216.4044189453125 C 487.9698791503906 214.84010314941406 482.1885986328125 213.98434448242188 484.75408935546875 211.08139038085938 C 488.4638977050781 211.6314239501953 486.3990783691406 210.94642639160156 484.2808532714844 210.57351684570312 C 481.5506896972656 210.46971130371094 483.3650817871094 208.5135498046875 486.03680419921875 207.44952392578125 C 488.7271423339844 208.386474609375 490.5940856933594 210.2603759765625 495.2669982910156 216.4044189453125" stroke-width="0.0" fill="rgb(84, 84, 83)" opacity="0.88566196"/>
    <path d="M 504.1890869140625 195.70399475097656 C 503.9687805175781 198.28948974609375 502.62060546875 201.0043182373047 500.3708190917969 201.2122039794922 C 497.58758544921875 200.45022583007812 495.5504455566406 198.252685546875 494.4612121582031 196.57899475097656 C 495.2618408203125 193.57464599609375 497.5321350097656 191.4193115234375 500.0656433105469 190.73324584960938 C 502.6754455566406 191.29942321777344 504.26068115234375 193.54379272460938 504.1890869140625 195.70399475097656" stroke-width="0.0" fill="rgb(255, 255, 255)" opacity="0.59762776"/>
    <path d="M 75.27069091796875 140.37611389160156 C 70.34713745117188 193.25921630859375 60.382530212402344 189.05738830566406 40.69386291503906 180.3065643310547 C 19.378692626953125 170.51695251464844 10.622870445251465 170.94754028320312 -5.984001159667969 128.74620056152344 C 20.75894546508789 124.41697692871094 28.765825271606445 134.4166717529297 29.515602111816406 147.2052459716797 C 35.42036437988281 129.79714965820312 52.411468505859375 122.65364074707031 75.27069091796875 140.37611389160156" stroke-width="0.0" fill="rgb(106, 105, 105)" opacity="1.0"/>
    <path d="M 106.85948181152344 135.722900390625 C 101.5213623046875 144.55551147460938 100.83171081542969 141.72113037109375 119.72041320800781 154.20681762695312 C 94.53142547607422 152.5296630859375 66.5369873046875 148.55224609375 59.209835052490234 140.35626220703125 C 92.81878662109375 137.00083923339844 98.55293273925781 135.55868530273438 100.50163269042969 133.9271697998047 C 98.46345520019531 133.79818725585938 100.53909301757812 135.3463134765625 106.85948181152344 135.722900390625" stroke-width="0.0" fill="rgb(107, 107, 107)" opacity="1.0"/>
    <path d="M 334.06988525390625 139.9079132080078 C 333.7740783691406 142.52847290039062 331.44287109375 144.3854522705078 329.2989501953125 143.7801055908203 C 326.4837951660156 144.4438934326172 324.5295104980469 142.75946044921875 322.60906982421875 139.69921875 C 324.6949157714844 137.41041564941406 326.1334533691406 135.43678283691406 329.6028137207031 136.2183074951172 C 332.00018310546875 134.98463439941406 333.64404296875 137.1027374267578 334.06988525390625 139.9079132080078" stroke-width="0.0" fill="rgb(253, 254, 253)" opacity="0.6139023"/>
    <path d="M 507.1766357421875 72.7978515625 C 487.27252197265625 60.836978912353516 471.406982421875 58.76148986816406 477.6021728515625 84.7601089477539 C 431.3791198730469 83.74720001220703 423.041748046875 97.58331298828125 420.46014404296875 85.35847473144531 C 461.33697509765625 55.569679260253906 468.74224853515625 55.04059600830078 482.6894836425781 46.35347366333008 C 495.31512451171875 40.79889678955078 499.4789123535156 37.22526550292969 507.1766357421875 72.7978515625" stroke-width="0.0" fill="rgb(10, 10, 10)" opacity="1.0"/>
    <path d="M 443.2333068847656 508.85540771484375 C 441.5401916503906 511.5057373046875 439.4800109863281 513.21728515625 436.9172668457031 514.2072143554688 C 434.523681640625 513.142822265625 432.171630859375 511.53826904296875 431.9307556152344 509.33251953125 C 431.4967956542969 506.10015869140625 434.28955078125 505.0456237792969 436.9064025878906 506.1651916503906 C 439.0317077636719 505.3454284667969 441.7416687011719 506.1691589355469 443.2333068847656 508.85540771484375" stroke-width="0.0" fill="rgb(255, 255, 255)" opacity="0.59975296"/>
    <path d="M 458.7200927734375 231.37351989746094 C 460.9712219238281 240.3660430908203 456.96923828125 242.9151153564453 419.5284118652344 249.35821533203125 C 417.142333984375 239.9355926513672 424.7415466308594 236.18052673339844 435.65850830078125 234.10101318359375 C 434.611572265625 230.2679443359375 435.3157958984375 227.40737915039062 436.93426513671875 227.1231231689453 C 437.6287536621094 227.95542907714844 439.0917663574219 231.6613311767578 458.7200927734375 231.37351989746094" stroke-width="0.0" fill="rgb(153, 153, 154)" opacity="1.0"/>
    <path d="M 584.757568359375 224.21365356445312 C 584.614990234375 225.1077117919922 582.1162109375 226.74240112304688 579.2857666015625 226.54518127441406 C 577.3142700195312 229.84510803222656 573.2860717773438 238.38645935058594 547.9415893554688 236.93551635742188 C 555.6735229492188 202.12387084960938 563.3621215820312 206.5474090576172 584.1583251953125 209.49278259277344 C 584.2071533203125 219.0058135986328 584.6288452148438 220.8470916748047 584.757568359375 224.21365356445312" stroke-width="0.0" fill="rgb(162, 162, 161)" opacity="1.0"/>
    <path d="M 134.72792053222656 389.1524658203125 C 74.38468933105469 398.21026611328125 130.2818145751953 440.3999328613281 94.28661346435547 450.819580078125 C 69.1561279296875 427.0937805175781 76.3221206665039 417.1688232421875 77.11105346679688 392.7122497558594 C 70.02664184570312 365.8066101074219 66.77941131591797 363.0568542480469 81.09029388427734 380.8086853027344 C 100.46309661865234 397.5307312011719 103.80777740478516 385.55499267578125 134.72792053222656 389.1524658203125" stroke-width="0.0" fill="rgb(20, 20, 20)" opacity="0.9464348"/>
    <path d="M 612.9494018554688 128.77452087402344 C 612.3367309570312 183.86105346679688 609.015625 191.95358276367188 569.3754272460938 199.3631134033203 C 538.3701782226562 190.4506072998047 536.3748779296875 187.15057373046875 541.1817626953125 134.43685913085938 C 590.3147583007812 155.9540557861328 590.302490234375 162.75949096679688 567.3117065429688 121.83657836914062 C 583.3746948242188 116.84416198730469 609.267578125 117.05123138427734 612.9494018554688 128.77452087402344" stroke-width="0.0" fill="rgb(90, 90, 91)" opacity="1.0"/>
    <path d="M 104.66879272460938 369.5363464355469 C 104.89469909667969 389.2745056152344 104.8052978515625 399.6975402832031 89.93058013916016 407.6365051269531 C 79.11140441894531 401.3027038574219 91.7561264038086 396.1792297363281 84.46096801757812 372.32244873046875 C 69.37889862060547 358.76068115234375 70.33611297607422 346.7005310058594 99.51203155517578 329.1053466796875 C 131.37339782714844 331.4817199707031 111.47920227050781 343.731689453125 104.66879272460938 369.5363464355469" stroke-width="0.0" fill="rgb(12, 12, 12)" opacity="0.93035537"/>
    <path d="M 472.6318359375 191.4322509765625 C 474.4637756347656 196.86170959472656 472.828125 199.947021484375 468.1336975097656 202.15138244628906 C 460.76214599609375 197.2325439453125 459.00152587890625 194.12094116210938 462.4769287109375 187.55030822753906 C 456.82952880859375 183.62973022460938 458.5721740722656 183.0426788330078 462.1171875 186.42955017089844 C 467.8927307128906 184.8530731201172 469.3172607421875 186.91180419921875 472.6318359375 191.4322509765625" stroke-width="0.0" fill="rgb(236, 236, 237)" opacity="0.75833094"/>
    <path d="M 112.97618865966797 227.6331024169922 C 121.25263977050781 229.59756469726562 118.83537292480469 230.03399658203125 113.5405502319336 230.25497436523438 C 103.08989715576172 232.24598693847656 91.29364776611328 239.96273803710938 75.16217803955078 224.76072692871094 C 100.50591278076172 215.4345703125 111.65864562988281 226.38421630859375 113.77356719970703 224.62091064453125 C 111.93000030517578 220.10684204101562 112.82029724121094 222.7243194580078 112.97618865966797 227.6331024169922" stroke-width="0.0" fill="rgb(159, 159, 159)" opacity="0.9903922"/>
    <path d="M 218.35537719726562 319.3529968261719 C 197.77642822265625 331.3464660644531 204.765869140625 350.03021240234375 178.63536071777344 375.2911071777344 C 199.32159423828125 306.66363525390625 180.5457000732422 344.8865661621094 141.9523162841797 338.5432434082031 C 156.40411376953125 320.53509521484375 182.4191131591797 332.830810546875 200.04666137695312 320.6685791015625 C 210.8488006591797 326.0594482421875 218.8203887939453 314.32781982421875 218.35537719726562 319.3529968261719" stroke-width="0.0" fill="rgb(24, 24, 24)" opacity="0.9850152"/>
    <path d="M 560.8696899414062 23.79065704345703 C 515.6819458007812 41.17622375488281 512.0369873046875 43.00640106201172 507.6489562988281 45.06633758544922 C 499.6639404296875 50.51551818847656 497.0853576660156 51.90817642211914 492.78216552734375 43.62131881713867 C 499.156982421875 37.375850677490234 506.9371643066406 37.94274139404297 518.4523315429688 30.93587303161621 C 541.2509765625 26.445650100708008 556.77685546875 11.358421325683594 560.8696899414062 23.79065704345703" stroke-width="0.0" fill="rgb(9, 9, 9)" opacity="1.0"/>
    <path d="M 138.248046875 591.7083740234375 C 137.74122619628906 595.5719604492188 135.63641357421875 597.8472290039062 132.1504364013672 598.1162719726562 C 130.48788452148438 597.9019165039062 129.16375732421875 595.2268676757812 127.96247100830078 592.7118530273438 C 128.46229553222656 590.6243286132812 130.82237243652344 588.855224609375 133.00633239746094 586.4401245117188 C 135.28684997558594 588.802001953125 137.45375061035156 590.7547607421875 138.248046875 591.7083740234375" stroke-width="0.0" fill="rgb(255, 255, 255)" opacity="0.59903044"/>
    <path d="M 403.5674133300781 204.8167724609375 C 375.0128479003906 222.3863983154297 362.9615478515625 238.00904846191406 328.9562072753906 261.9769287109375 C 333.0636901855469 232.7164764404297 358.65850830078125 231.43658447265625 354.5347595214844 219.9229736328125 C 355.0257568359375 224.0553741455078 356.90008544921875 222.428955078125 370.49298095703125 193.52328491210938 C 369.4909362792969 180.21218872070312 386.98065185546875 179.6838836669922 403.5674133300781 204.8167724609375" stroke-width="0.0" fill="rgb(70, 71, 71)" opacity="1.0"/>
    <path d="M 453.863037109375 361.4215087890625 C 454.863037109375 363.788330078125 452.70306396484375 365.19195556640625 449.5914001464844 366.2427673339844 C 447.6993103027344 365.4026794433594 445.31475830078125 363.48944091796875 443.95062255859375 360.5603332519531 C 443.9852294921875 357.1352233886719 446.2966003417969 355.4278869628906 449.71966552734375 356.0160217285156 C 452.5721435546875 355.66741943359375 454.2337646484375 358.4985046386719 453.863037109375 361.4215087890625" stroke-width="0.0" fill="rgb(253, 253, 253)" opacity="0.6023943"/>
    <path d="M 87.58660125732422 13.632622718811035 C 87.9505386352539 31.780736923217773 79.85018920898438 15.92615795135498 48.820865631103516 11.33397388458252 C 27.796369552612305 4.877256393432617 9.04379940032959 8.532690048217773 -4.687413692474365 0.24937871098518372 C 18.88094711303711 -17.251985549926758 35.47447204589844 -5.590826988220215 38.56318664550781 -0.2210533618927002 C 37.95595169067383 0.8997021317481995 41.56809616088867 -3.3184597492218018 87.58660125732422 13.632622718811035" stroke-width="0.0" fill="rgb(7, 7, 7)" opacity="1.0"/>
    <path d="M 302.4857482910156 81.98059844970703 C 301.1980895996094 85.4141616821289 299.67822265625 87.86590576171875 297.44635009765625 88.18267822265625 C 294.2837219238281 87.7514419555664 292.4625549316406 85.75299072265625 291.57733154296875 82.17045593261719 C 292.51690673828125 80.6229248046875 294.6539611816406 78.45252990722656 296.60992431640625 77.76691436767578 C 299.16790771484375 79.2812728881836 301.6355285644531 80.57933044433594 302.4857482910156 81.98059844970703" stroke-width="0.0" fill="rgb(252, 254, 254)" opacity="0.59828824"/>
    <path d="M 226.0362548828125 350.4020690917969 C 226.31857299804688 353.6575012207031 223.3988494873047 354.85430908203125 220.81893920898438 355.7378234863281 C 218.50001525878906 355.33013916015625 216.66993713378906 353.5 216.41650390625 351.2861022949219 C 217.0907745361328 349.0491027832031 219.00137329101562 347.3901672363281 220.68582153320312 345.6081237792969 C 223.0871124267578 346.7011413574219 226.03468322753906 348.67138671875 226.0362548828125 350.4020690917969" stroke-width="0.0" fill="rgb(255, 255, 255)" opacity="0.67166054"/>
    <path d="M 479.3395690917969 597.9387817382812 C 478.95379638671875 601.7275390625 476.7397766113281 603.4320678710938 474.0210876464844 604.0091552734375 C 471.5016174316406 603.3243408203125 469.7127380371094 601.4259643554688 468.81683349609375 598.5765380859375 C 470.2143859863281 597.2018432617188 472.2310791015625 595.4215698242188 473.86492919921875 593.794189453125 C 476.61688232421875 594.0891723632812 478.12969970703125 596.76220703125 479.3395690917969 597.9387817382812" stroke-width="0.0" fill="rgb(253, 254, 254)" opacity="0.6578196"/>
    <path d="M 74.46916198730469 340.4803466796875 C 74.46966552734375 341.212646484375 72.28482055664062 343.7005310058594 70.509765625 344.2759094238281 C 67.19075775146484 343.9864196777344 65.42716217041016 341.5726623535156 64.90542602539062 339.1676940917969 C 65.09469604492188 335.68194580078125 66.32085418701172 333.266357421875 70.1235122680664 334.0158996582031 C 72.37064361572266 334.71734619140625 73.03813934326172 337.5746765136719 74.46916198730469 340.4803466796875" stroke-width="0.0" fill="rgb(254, 255, 255)" opacity="0.5977801"/>
    <path d="M 297.1869812011719 469.2815246582031 C 296.7699890136719 470.41351318359375 294.0623779296875 471.47247314453125 291.3050231933594 473.7263488769531 C 289.71307373046875 472.2774658203125 287.7508239746094 470.1295166015625 285.7963562011719 468.5086364746094 C 287.0520935058594 464.9300842285156 288.9010314941406 462.4252014160156 292.1465148925781 462.9117736816406 C 294.6600646972656 462.72528076171875 295.8482666015625 465.608154296875 297.1869812011719 469.2815246582031" stroke-width="0.0" fill="rgb(254, 255, 254)" opacity="0.5980908"/>
    <path d="M 273.4989318847656 107.08678436279297 C 274.12591552734375 107.43448638916016 274.0215148925781 109.55670166015625 275.13580322265625 117.24601745605469 C 269.5601806640625 118.39933776855469 266.7823181152344 110.28768157958984 261.3389892578125 89.17583465576172 C 262.9891357421875 90.0010986328125 261.7912902832031 87.05348205566406 268.01422119140625 90.26683044433594 C 271.1322937011719 107.33152770996094 273.9042663574219 108.80549621582031 273.4989318847656 107.08678436279297" stroke-width="0.0" fill="rgb(127, 127, 127)" opacity="1.0"/>
    <path d="M 273.26739501953125 150.9884033203125 C 272.464599609375 154.47396850585938 270.613525390625 156.9116973876953 268.3005065917969 157.18162536621094 C 265.5070495605469 156.3686981201172 263.6669921875 154.51197814941406 262.67962646484375 151.7926788330078 C 263.5365295410156 149.463623046875 265.7943115234375 147.83200073242188 268.161376953125 145.6828155517578 C 270.03460693359375 147.95034790039062 272.698974609375 149.63494873046875 273.26739501953125 150.9884033203125" stroke-width="0.0" fill="rgb(255, 255, 255)" opacity="0.63602716"/>
    <path d="M 268.99737548828125 152.99794006347656 C 268.35723876953125 155.61900329589844 266.7774353027344 158.08126831054688 265.0709533691406 159.30218505859375 C 261.7001647949219 156.90943908691406 259.626953125 155.51072692871094 260.0798645019531 153.07106018066406 C 259.20587158203125 150.43048095703125 260.8460388183594 148.84585571289062 263.659423828125 150.57083129882812 C 266.3143005371094 149.0652313232422 268.31329345703125 150.541748046875 268.99737548828125 152.99794006347656" stroke-width="0.0" fill="rgb(253, 253, 253)" opacity="0.64725536"/>
    <path d="M 109.45740509033203 12.70858383178711 C 109.10401916503906 15.617989540100098 106.30012512207031 17.713624954223633 104.24954986572266 16.99134063720703 C 101.5006103515625 17.275150299072266 99.08370208740234 15.662236213684082 98.7226791381836 12.901591300964355 C 99.45620727539062 10.49785041809082 101.61251068115234 8.432540893554688 104.02818298339844 8.11414909362793 C 106.1866226196289 8.589934349060059 108.81393432617188 10.653024673461914 109.45740509033203 12.70858383178711" stroke-width="0.0" fill="rgb(253, 254, 254)" opacity="0.6056834"/>
    <path d="M 260.966796875 442.25128173828125 C 259.83514404296875 432.6764831542969 259.3516540527344 443.5498962402344 254.14076232910156 468.23785400390625 C 240.23199462890625 461.7612609863281 241.22312927246094 455.61981201171875 237.5512237548828 425.5204772949219 C 227.2257843017578 409.74847412109375 225.78076171875 402.43194580078125 278.0550842285156 390.0710754394531 C 266.2430114746094 414.5329895019531 257.5350036621094 432.0057678222656 260.966796875 442.25128173828125" stroke-width="0.0" fill="rgb(57, 57, 57)" opacity="0.79441357"/>
    <path d="M 297.3523864746094 31.379257202148438 C 296.87115478515625 34.32176971435547 295.2489013671875 36.42197799682617 292.0909423828125 35.808250427246094 C 290.38861083984375 36.696353912353516 288.4421691894531 34.57073211669922 287.5087585449219 31.759654998779297 C 288.3164978027344 29.29100799560547 290.5339660644531 27.185068130493164 293.0408630371094 28.061914443969727 C 295.7869873046875 27.14725685119629 297.5916442871094 29.21228790283203 297.3523864746094 31.379257202148438" stroke-width="0.0" fill="rgb(252, 252, 252)" opacity="0.6129826"/>
    <path d="M 495.4310607910156 597.1624145507812 C 494.832275390625 598.4039306640625 491.70343017578125 599.2332153320312 489.0589904785156 599.0689697265625 C 486.45184326171875 599.531005859375 484.7553405761719 597.4320068359375 482.7207946777344 594.85205078125 C 484.48651123046875 592.5137329101562 486.6097717285156 590.7720336914062 489.49835205078125 589.6714477539062 C 491.8943176269531 590.2083129882812 493.24822998046875 592.6680908203125 495.4310607910156 597.1624145507812" stroke-width="0.0" fill="rgb(253, 253, 254)" opacity="0.5917252"/>
    <path d="M 418.10333251953125 21.368637084960938 C 416.0340270996094 24.26200294494629 414.27349853515625 26.4768009185791 410.5872497558594 27.1478214263916 C 407.8858947753906 26.416946411132812 406.1916809082031 24.052961349487305 405.931640625 21.021451950073242 C 406.31671142578125 18.386146545410156 408.4123229980469 16.597871780395508 412.1598205566406 15.974750518798828 C 413.14385986328125 16.54070472717285 415.35858154296875 19.014820098876953 418.10333251953125 21.368637084960938" stroke-width="0.0" fill="rgb(252, 252, 252)" opacity="0.5972018"/>
    <path d="M 233.13107299804688 59.85609436035156 C 232.8448028564453 62.22096252441406 231.4462432861328 65.08344268798828 229.68727111816406 65.13471221923828 C 225.81881713867188 65.3255844116211 223.19473266601562 63.272464752197266 224.10423278808594 60.66910171508789 C 225.16162109375 58.049232482910156 226.89410400390625 55.878761291503906 229.2952880859375 55.8901252746582 C 231.7436981201172 55.255271911621094 232.9561004638672 57.31583786010742 233.13107299804688 59.85609436035156" stroke-width="0.0" fill="rgb(255, 255, 255)" opacity="0.60414034"/>
    <path d="M 321.3980712890625 302.3464660644531 C 313.73077392578125 337.2572326660156 312.7619934082031 347.142578125 302.25579833984375 359.4622802734375 C 287.2543640136719 353.74041748046875 284.8486328125 339.6882019042969 279.9017639160156 315.654541015625 C 270.93096923828125 290.62811279296875 266.5144348144531 278.0390625 295.3799743652344 269.0216369628906 C 333.52581787109375 277.104736328125 334.0596618652344 285.0613708496094 321.3980712890625 302.3464660644531" stroke-width="0.0" fill="rgb(0, 0, 0)" opacity="1.0"/>
    <path d="M 352.37506103515625 26.450258255004883 C 350.67266845703125 36.302555084228516 350.98834228515625 49.618125915527344 334.9929504394531 56.45822525024414 C 342.8333740234375 24.472864151000977 341.0904846191406 22.651517868041992 339.0803527832031 21.87624168395996 C 336.7349853515625 22.91813850402832 339.2321472167969 22.448535919189453 340.80908203125 23.97051429748535 C 340.6919860839844 22.06159210205078 345.43389892578125 19.54724884033203 352.37506103515625 26.450258255004883" stroke-width="0.0" fill="rgb(138, 138, 138)" opacity="1.0"/>
    <path d="M 245.90402221679688 148.79443359375 C 265.3512878417969 179.6802978515625 283.8267822265625 191.10928344726562 258.0328369140625 193.97317504882812 C 232.21542358398438 164.87599182128906 227.53707885742188 154.19960021972656 193.08389282226562 119.14727783203125 C 191.75479125976562 97.8506088256836 214.6925506591797 95.89727783203125 217.7780303955078 111.85931396484375 C 240.85226440429688 140.52066040039062 242.02781677246094 144.4521942138672 245.90402221679688 148.79443359375" stroke-width="0.0" fill="rgb(13, 13, 13)" opacity="0.9599943"/>
    <path d="M 181.03994750976562 242.16162109375 C 176.68702697753906 258.49102783203125 161.198486328125 239.06105041503906 136.24319458007812 237.53372192382812 C 111.6996841430664 231.60154724121094 89.19766235351562 236.1283416748047 80.25686645507812 223.2294464111328 C 116.50228881835938 225.63966369628906 133.2359619140625 228.957275390625 133.203369140625 227.69293212890625 C 125.16172790527344 228.3821563720703 135.31146240234375 226.49220275878906 181.03994750976562 242.16162109375" stroke-width="0.0" fill="rgb(10, 10, 10)" opacity="0.9862433"/>
    <path d="M 542.585205078125 382.5732116699219 C 541.3546752929688 382.1831970214844 547.3221435546875 391.27435302734375 524.4564819335938 414.7614440917969 C 510.429443359375 411.61810302734375 506.56756591796875 374.77301025390625 522.98583984375 374.4154357910156 C 526.1779174804688 386.38250732421875 521.6709594726562 381.0093078613281 525.1410522460938 358.7259521484375 C 548.3070068359375 373.114990234375 542.4010620117188 383.80535888671875 542.585205078125 382.5732116699219" stroke-width="0.0" fill="rgb(146, 146, 146)" opacity="1.0"/>
    <path d="M 563.4210815429688 115.91727447509766 C 554.07373046875 127.5784683227539 532.3899536132812 117.3818588256836 511.4100036621094 121.74024963378906 C 497.3505859375 118.51061248779297 491.79461669921875 132.20001220703125 495.2126770019531 108.51603698730469 C 503.1455993652344 111.9472885131836 513.49169921875 117.42659759521484 504.9443664550781 113.4698486328125 C 505.8795166015625 117.30408477783203 519.672119140625 114.1921615600586 563.4210815429688 115.91727447509766" stroke-width="0.0" fill="rgb(12, 12, 12)" opacity="1.0"/>
    <path d="M 420.7950744628906 356.9273986816406 C 424.38861083984375 376.2960510253906 429.6539306640625 376.2654113769531 414.6228332519531 376.84619140625 C 408.6965026855469 356.5084533691406 406.783935546875 350.889404296875 404.0512390136719 344.3210754394531 C 399.03167724609375 332.8644104003906 383.37078857421875 333.62982177734375 411.1822509765625 317.78631591796875 C 423.0880432128906 318.00653076171875 410.35345458984375 339.4114685058594 420.7950744628906 356.9273986816406" stroke-width="0.0" fill="rgb(28, 28, 28)" opacity="0.91776395"/>
    <path d="M 369.4293518066406 466.5430603027344 C 366.4745788574219 464.48077392578125 371.8844909667969 483.3912048339844 378.7898254394531 519.1468505859375 C 326.0936279296875 515.8231201171875 322.7716979980469 509.30804443359375 334.0268249511719 488.7768859863281 C 352.9710998535156 436.9129638671875 344.5853271484375 424.57452392578125 364.95367431640625 421.5224609375 C 367.3856506347656 467.0796203613281 367.21160888671875 472.9804992675781 369.4293518066406 466.5430603027344" stroke-width="0.0" fill="rgb(11, 11, 11)" opacity="0.9669384"/>
    <path d="M 135.24673461914062 284.9995422363281 C 148.9880828857422 288.0922546386719 149.96315002441406 294.3787841796875 145.89561462402344 306.4052734375 C 124.72003936767578 312.83575439453125 103.05579376220703 312.33367919921875 100.52837371826172 297.3921813964844 C 118.29578399658203 276.9681091308594 125.55890655517578 280.2794189453125 131.38275146484375 278.6864013671875 C 130.1929168701172 279.64703369140625 131.1591796875 281.9522399902344 135.24673461914062 284.9995422363281" stroke-width="0.0" fill="rgb(139, 139, 138)" opacity="1.0"/>
    <path d="M 333.3630676269531 157.10557556152344 C 332.42486572265625 158.39669799804688 330.0600280761719 160.36114501953125 328.4903259277344 162.0749969482422 C 325.58514404296875 160.2676544189453 324.1829833984375 158.14047241210938 322.7410583496094 155.3679656982422 C 324.0601501464844 154.5640411376953 326.37969970703125 152.97262573242188 328.68798828125 151.19776916503906 C 330.96527099609375 150.75965881347656 332.1318664550781 153.34654235839844 333.3630676269531 157.10557556152344" stroke-width="0.0" fill="rgb(254, 254, 254)" opacity="0.6262936"/>
    <path d="M 38.94904708862305 16.338407516479492 C 37.38058090209961 22.852418899536133 37.16815185546875 21.426111221313477 29.74208641052246 21.398311614990234 C 8.081934928894043 13.161931037902832 -9.872982025146484 24.53684425354004 -14.806009292602539 -4.127214431762695 C 2.5258982181549072 -14.56014633178711 4.131048202514648 8.247207641601562 16.164695739746094 9.821295738220215 C 26.896188735961914 10.464851379394531 31.09680938720703 14.306992530822754 38.94904708862305 16.338407516479492" stroke-width="0.0" fill="rgb(0, 0, 0)" opacity="0.9440351"/>
    <path d="M 444.3717346191406 45.14216232299805 C 442.9344482421875 48.4046516418457 441.5081481933594 50.513912200927734 438.5808410644531 52.672821044921875 C 435.910400390625 51.147891998291016 433.9386291503906 49.10567092895508 434.0170593261719 45.76011276245117 C 433.949462890625 43.26256561279297 436.6081237792969 41.74338912963867 438.4759826660156 41.737464904785156 C 441.080810546875 42.023033142089844 443.7250671386719 43.53380584716797 444.3717346191406 45.14216232299805" stroke-width="0.0" fill="rgb(253, 253, 254)" opacity="0.5985012"/>
    <path d="M 69.5150146484375 108.02481842041016 C 74.51683807373047 114.03565216064453 77.27584075927734 119.33293914794922 71.02552795410156 126.42229461669922 C 49.81547546386719 121.98265075683594 51.20061111450195 117.57894897460938 56.421966552734375 109.29082489013672 C 57.964447021484375 106.14534759521484 60.916507720947266 105.10884094238281 63.05034255981445 104.34111022949219 C 65.99219512939453 104.36869049072266 69.39163208007812 105.05512237548828 69.5150146484375 108.02481842041016" stroke-width="0.0" fill="rgb(173, 173, 173)" opacity="1.0"/>
    <path d="M 571.3998413085938 228.17347717285156 C 532.68310546875 259.5783386230469 532.9849853515625 258.6279602050781 533.6851806640625 252.8410186767578 C 496.8604736328125 246.98275756835938 478.0158996582031 262.2142639160156 469.9610290527344 245.44639587402344 C 485.79827880859375 237.5246124267578 508.7565612792969 247.3019256591797 536.3489379882812 234.87652587890625 C 539.9893188476562 213.2172393798828 564.4796142578125 203.158447265625 571.3998413085938 228.17347717285156" stroke-width="0.0" fill="rgb(5, 5, 6)" opacity="0.99187744"/>
    <path d="M 237.87637329101562 276.97076416015625 C 212.98599243164062 279.7696533203125 191.5039520263672 266.6833801269531 183.50003051757812 269.2939758300781 C 190.77825927734375 267.9215087890625 182.06893920898438 270.2688903808594 139.24667358398438 253.6630401611328 C 139.1305389404297 236.16915893554688 149.2890625 252.62811279296875 177.18264770507812 257.06231689453125 C 200.34906005859375 267.9972229003906 227.40626525878906 263.5317687988281 237.87637329101562 276.97076416015625" stroke-width="0.0" fill="rgb(12, 12, 12)" opacity="1.0"/>
    <path d="M 204.33993530273438 522.9475708007812 C 203.4569091796875 524.3880615234375 201.4051513671875 525.9668579101562 197.72503662109375 527.2926025390625 C 196.93016052246094 526.1692504882812 194.23870849609375 524.1375732421875 194.9481964111328 523.6884155273438 C 196.22640991210938 520.1771850585938 196.99925231933594 518.00244140625 198.8167266845703 516.8003540039062 C 201.06130981445312 518.1455078125 202.77903747558594 519.8079223632812 204.33993530273438 522.9475708007812" stroke-width="0.0" fill="rgb(254, 255, 255)" opacity="0.6026749"/>
    <path d="M 338.0986633300781 233.48458862304688 C 335.6796875 235.63363647460938 333.97760009765625 238.30628967285156 331.5513000488281 238.36227416992188 C 328.9549560546875 237.6601104736328 327.95025634765625 234.6261749267578 327.1307373046875 233.6419677734375 C 328.1054382324219 231.4661865234375 328.98370361328125 228.94859313964844 331.10003662109375 227.58322143554688 C 333.6180114746094 228.25375366210938 334.80731201171875 230.91384887695312 338.0986633300781 233.48458862304688" stroke-width="0.0" fill="rgb(255, 255, 255)" opacity="0.59455657"/>
    <path d="M 67.79541778564453 165.49359130859375 C 36.369327545166016 215.29141235351562 59.17470932006836 227.23902893066406 27.861385345458984 230.74009704589844 C 5.851259708404541 199.32183837890625 23.98001480102539 176.4945831298828 -12.970978736877441 170.59866333007812 C -15.690732955932617 142.81700134277344 -16.66525650024414 135.5420379638672 0.4435994327068329 137.47732543945312 C 43.38163375854492 164.26644897460938 61.850528717041016 145.0399169921875 67.79541778564453 165.49359130859375" stroke-width="0.0" fill="rgb(16, 16, 16)" opacity="0.9201807"/>
    <path d="M 469.0361633300781 456.0321350097656 C 488.63629150390625 464.12908935546875 489.7487487792969 479.1641845703125 477.7472839355469 471.19073486328125 C 454.272705078125 452.62713623046875 444.8590393066406 451.4416198730469 416.3026428222656 420.0149230957031 C 430.6289367675781 413.76239013671875 439.1816711425781 435.6380920410156 454.3620300292969 444.4576110839844 C 456.00238037109375 445.6208801269531 456.5426025390625 446.8179931640625 469.0361633300781 456.0321350097656" stroke-width="0.0" fill="rgb(83, 84, 84)" opacity="1.0"/>
    <path d="M 563.576904296875 254.9989776611328 C 568.0106201171875 261.7986145019531 554.0641479492188 258.3684387207031 535.8912353515625 293.16754150390625 C 506.4839172363281 295.4081115722656 508.86822509765625 292.46307373046875 527.0764770507812 248.9496612548828 C 548.5446166992188 254.62403869628906 558.539794921875 255.0198974609375 554.0974731445312 249.52842712402344 C 536.9857177734375 225.5099334716797 554.37060546875 221.62225341796875 563.576904296875 254.9989776611328" stroke-width="0.0" fill="rgb(15, 15, 15)" opacity="0.95467556"/>
    <path d="M 473.3024597167969 116.50326538085938 C 471.18817138671875 117.98072052001953 469.04473876953125 120.58244323730469 468.38348388671875 121.05148315429688 C 464.7130432128906 119.66096496582031 462.69024658203125 118.4335708618164 460.61749267578125 116.10710906982422 C 462.5975341796875 113.66808319091797 464.39459228515625 111.51174926757812 467.38323974609375 111.50414276123047 C 470.2883605957031 110.76898193359375 471.8924255371094 112.89311218261719 473.3024597167969 116.50326538085938" stroke-width="0.0" fill="rgb(252, 254, 255)" opacity="0.5933075"/>
    <path d="M 224.1799774169922 353.8160705566406 C 224.7568359375 355.74652099609375 222.20965576171875 357.2705993652344 219.78170776367188 359.73284912109375 C 218.08526611328125 356.6041564941406 214.79656982421875 355.5976257324219 214.67657470703125 353.26995849609375 C 214.9114227294922 350.36737060546875 217.498779296875 348.6072692871094 219.94898986816406 347.87255859375 C 222.49380493164062 348.6710510253906 224.19003295898438 350.55364990234375 224.1799774169922 353.8160705566406" stroke-width="0.0" fill="rgb(254, 254, 254)" opacity="0.6467516"/>
    <path d="M 317.4121398925781 591.8936157226562 C 316.2685241699219 594.4998779296875 314.3754577636719 596.690185546875 311.96197509765625 595.7883911132812 C 309.4871520996094 596.7906494140625 307.19805908203125 594.588134765625 306.6079406738281 591.7599487304688 C 307.45458984375 589.2020263671875 309.175048828125 587.2178344726562 311.40765380859375 587.98291015625 C 314.28656005859375 587.2518920898438 316.8454284667969 589.3683471679688 317.4121398925781 591.8936157226562" stroke-width="0.0" fill="rgb(252, 252, 253)" opacity="0.60917723"/>
    <path d="M 377.8170166015625 105.08688354492188 C 377.1156921386719 108.0569839477539 374.91827392578125 110.18211364746094 371.52215576171875 111.63484954833984 C 369.3328552246094 110.01470184326172 367.85430908203125 107.25375366210938 368.0002136230469 104.3490219116211 C 367.0550231933594 102.18565368652344 369.5797119140625 101.14075469970703 372.0867614746094 98.40335083007812 C 373.9712219238281 101.26102447509766 376.9516906738281 102.35502624511719 377.8170166015625 105.08688354492188" stroke-width="0.0" fill="rgb(255, 255, 255)" opacity="0.60659385"/>
    <path d="M 503.76055908203125 485.8716125488281 C 494.9242858886719 543.78271484375 482.6339416503906 546.0128784179688 424.5519104003906 549.8753051757812 C 434.3421630859375 506.8603210449219 460.6396484375 526.408203125 450.01556396484375 514.2799682617188 C 428.98736572265625 479.002197265625 410.80255126953125 467.9755859375 434.5085144042969 474.90386962890625 C 456.90087890625 531.0453491210938 471.1634826660156 482.60906982421875 503.76055908203125 485.8716125488281" stroke-width="0.0" fill="rgb(31, 31, 30)" opacity="0.93418866"/>
    <path d="M 539.6019287109375 420.4496154785156 C 529.4103393554688 487.9278869628906 533.89501953125 493.4247131347656 465.8087158203125 495.0169372558594 C 467.43450927734375 469.35455322265625 496.005615234375 457.0257263183594 494.40478515625 434.3996887207031 C 503.1673278808594 439.914794921875 505.868408203125 442.1646728515625 470.4870300292969 421.67938232421875 C 530.0735473632812 398.1150817871094 542.0078735351562 400.8733215332031 539.6019287109375 420.4496154785156" stroke-width="0.0" fill="rgb(28, 28, 28)" opacity="0.9297098"/>
    <path d="M 452.9927062988281 376.4155578613281 C 421.58831787109375 394.6467590332031 433.5732421875 421.6831359863281 415.39434814453125 418.81097412109375 C 421.04168701171875 372.1866149902344 408.4319152832031 375.9224548339844 413.541259765625 377.42474365234375 C 411.9273376464844 379.253173828125 410.3371887207031 365.19708251953125 407.8356628417969 352.87445068359375 C 413.5916442871094 366.2340087890625 412.4525451660156 373.75537109375 452.9927062988281 376.4155578613281" stroke-width="0.0" fill="rgb(23, 23, 23)" opacity="0.9243039"/>
    <path d="M 476.6351013183594 325.3573303222656 C 473.5548400878906 342.4993896484375 466.0087890625 328.0359191894531 437.7155456542969 325.01116943359375 C 410.17108154296875 318.20989990234375 393.72308349609375 323.8800354003906 383.17974853515625 309.51971435546875 C 387.2430725097656 293.6285400390625 399.5439453125 304.18243408203125 422.23583984375 305.8249816894531 C 442.9595642089844 310.62591552734375 463.55694580078125 311.63128662109375 476.6351013183594 325.3573303222656" stroke-width="0.0" fill="rgb(1, 1, 1)" opacity="1.0"/>
    <path d="M 559.1693115234375 374.751708984375 C 559.7860717773438 377.74676513671875 557.9375 379.6730651855469 554.09814453125 379.00152587890625 C 551.53662109375 378.57562255859375 549.7849731445312 376.35748291015625 547.6593627929688 373.8799743652344 C 549.7882080078125 371.7734069824219 551.9305419921875 369.5240173339844 552.98291015625 368.6971435546875 C 556.2493286132812 369.9542236328125 557.8760986328125 371.8125305175781 559.1693115234375 374.751708984375" stroke-width="0.0" fill="rgb(251, 251, 251)" opacity="0.5976245"/>
    <path d="M 324.8890380859375 430.99188232421875 C 330.7378845214844 455.85382080078125 324.7039489746094 456.5899353027344 313.4852600097656 457.0212097167969 C 310.9429016113281 442.5628356933594 309.5502014160156 440.2145690917969 310.4041748046875 443.85028076171875 C 312.4919128417969 444.1641540527344 307.3903503417969 435.8363342285156 305.44171142578125 394.15032958984375 C 336.5428466796875 396.6529846191406 319.6737976074219 407.2602233886719 324.8890380859375 430.99188232421875" stroke-width="0.0" fill="rgb(55, 55, 56)" opacity="1.0"/>
    <path d="M 107.45884704589844 104.51557159423828 C 77.93873596191406 105.6520004272461 63.56830596923828 105.26600646972656 49.451778411865234 109.39965057373047 C 32.17927169799805 118.83873748779297 16.783397674560547 139.79379272460938 8.174629211425781 94.99440002441406 C 21.974679946899414 77.35466003417969 41.299922943115234 106.91507720947266 54.35049819946289 100.48104095458984 C 75.05081176757812 102.80606842041016 96.43550109863281 93.7065658569336 107.45884704589844 104.51557159423828" stroke-width="0.0" fill="rgb(10, 10, 10)" opacity="0.99708873"/>
    <path d="M 364.2848815917969 562.0357666015625 C 363.5246276855469 564.3070678710938 361.25958251953125 566.5585327148438 359.4251403808594 567.6653442382812 C 356.5870056152344 566.5841674804688 354.8868713378906 564.2787475585938 352.7767028808594 562.3255615234375 C 354.2715148925781 559.38916015625 356.3576965332031 557.2166748046875 359.31500244140625 556.7200927734375 C 361.4169616699219 557.1946411132812 363.36480712890625 559.6082153320312 364.2848815917969 562.0357666015625" stroke-width="0.0" fill="rgb(253, 253, 253)" opacity="0.6028288"/>
    <path d="M 348.3514404296875 413.77044677734375 C 353.6547546386719 433.2424011230469 365.4854431152344 444.2633361816406 343.0067138671875 448.5301818847656 C 334.50732421875 407.9313049316406 333.6969299316406 390.1640319824219 314.08984375 413.5574645996094 C 322.9978332519531 370.2891845703125 313.74359130859375 367.8503723144531 318.1450500488281 365.102783203125 C 338.19970703125 394.60455322265625 341.8745422363281 397.80120849609375 348.3514404296875 413.77044677734375" stroke-width="0.0" fill="rgb(14, 14, 14)" opacity="0.97373116"/>
    <path d="M 72.59095001220703 35.302650451660156 C 42.59849548339844 23.735544204711914 39.23992919921875 25.212799072265625 37.61699295043945 26.211275100708008 C 39.82863998413086 26.47710609436035 39.65294647216797 24.706937789916992 37.4650764465332 25.223228454589844 C 48.1576042175293 26.414098739624023 55.898765563964844 28.71518325805664 54.767608642578125 22.006193161010742 C 60.3715934753418 15.217668533325195 71.01704406738281 13.213679313659668 72.59095001220703 35.302650451660156" stroke-width="0.0" fill="rgb(105, 105, 104)" opacity="1.0"/>
    <path d="M 247.14776611328125 132.87838745117188 C 246.6416473388672 134.16693115234375 244.0777130126953 135.7930145263672 242.207763671875 138.52664184570312 C 239.96823120117188 135.9827880859375 237.27183532714844 134.60557556152344 236.57037353515625 131.8797149658203 C 237.7430877685547 129.61672973632812 239.5658416748047 127.25544738769531 242.1230926513672 126.60806274414062 C 244.69329833984375 126.99179077148438 246.1505126953125 129.4588623046875 247.14776611328125 132.87838745117188" stroke-width="0.0" fill="rgb(251, 252, 252)" opacity="0.6004359"/>
    <path d="M 503.3187561035156 220.7236785888672 C 515.4713745117188 223.08985900878906 516.5448608398438 232.36744689941406 490.44451904296875 242.2222442626953 C 465.4889831542969 239.88009643554688 467.2904052734375 231.38587951660156 474.9102478027344 224.66941833496094 C 488.4420166015625 218.13441467285156 489.2272033691406 215.3321990966797 494.0027770996094 209.1997833251953 C 497.19500732421875 212.53477478027344 494.6025390625 216.47854614257812 503.3187561035156 220.7236785888672" stroke-width="0.0" fill="rgb(156, 156, 157)" opacity="1.0"/>
    <path d="M 244.3767547607422 359.8018798828125 C 244.11007690429688 363.0496826171875 241.74783325195312 365.1573791503906 239.33843994140625 366.7705383300781 C 236.74325561523438 364.20245361328125 234.67330932617188 362.39044189453125 232.52293395996094 360.15301513671875 C 234.33474731445312 357.3675231933594 236.87481689453125 356.5730285644531 240.26573181152344 354.7381591796875 C 241.05941772460938 355.9156799316406 243.8509521484375 357.6120910644531 244.3767547607422 359.8018798828125" stroke-width="0.0" fill="rgb(253, 253, 253)" opacity="0.5947891"/>
    <path d="M 356.7418518066406 128.28599548339844 C 358.1813049316406 130.74014282226562 355.569580078125 131.9423065185547 352.90802001953125 134.4809112548828 C 350.9664001464844 132.1078338623047 348.5528564453125 130.25527954101562 347.6213684082031 129.11949157714844 C 348.83453369140625 125.83142852783203 351.0269470214844 123.73959350585938 352.4161682128906 122.51189422607422 C 355.4166564941406 124.18690490722656 357.2468566894531 125.52536010742188 356.7418518066406 128.28599548339844" stroke-width="0.0" fill="rgb(252, 252, 252)" opacity="0.6034109"/>
    <path d="M 131.05975341796875 286.3271179199219 C 126.06993865966797 298.6181945800781 120.09150695800781 307.7945861816406 88.9567642211914 306.7997741699219 C 86.35425567626953 295.38507080078125 81.36751556396484 300.4970703125 77.89268493652344 274.1927185058594 C 92.08746337890625 262.0437927246094 98.34485626220703 266.3566589355469 105.57653045654297 261.16156005859375 C 121.79920959472656 271.6487731933594 127.44035339355469 272.8217468261719 131.05975341796875 286.3271179199219" stroke-width="0.0" fill="rgb(132, 132, 132)" opacity="1.0"/>
    <path d="M 225.33181762695312 503.5801086425781 C 222.46807861328125 505.78399658203125 220.6482391357422 507.5306091308594 218.60118103027344 509.9346008300781 C 216.62351989746094 508.28741455078125 215.21189880371094 506.2735595703125 213.7060546875 502.6280517578125 C 214.8686981201172 501.8498229980469 216.80319213867188 499.3492736816406 217.80062866210938 498.8896179199219 C 220.9739990234375 500.48797607421875 223.3396759033203 501.7789001464844 225.33181762695312 503.5801086425781" stroke-width="0.0" fill="rgb(255, 255, 255)" opacity="0.5982142"/>
    <path d="M 468.49163818359375 569.3787841796875 C 462.74859619140625 557.3759155273438 472.49365234375 575.2451782226562 456.8392333984375 611.3037719726562 C 425.48883056640625 604.5936889648438 443.5226135253906 592.3377685546875 463.0629577636719 563.297119140625 C 423.90155029296875 537.5792236328125 424.4531555175781 529.2627563476562 482.5838928222656 522.9609375 C 476.3919982910156 537.4613037109375 463.76165771484375 557.1253051757812 468.49163818359375 569.3787841796875" stroke-width="0.0" fill="rgb(29, 29, 29)" opacity="1.0"/>
    <path d="M 163.01565551757812 164.3635711669922 C 145.50279235839844 160.64730834960938 121.16742706298828 147.24063110351562 100.85706329345703 153.06619262695312 C 129.67335510253906 146.72813415527344 112.07942199707031 137.26669311523438 101.85824584960938 140.252197265625 C 97.48271179199219 110.85267639160156 75.81842041015625 99.37155151367188 104.73062896728516 92.04102325439453 C 106.43831634521484 141.9935760498047 120.65747833251953 134.56199645996094 163.01565551757812 164.3635711669922" stroke-width="0.0" fill="rgb(19, 19, 19)" opacity="0.96080595"/>
    <path d="M 315.3994140625 550.9793701171875 C 313.2620544433594 553.2193603515625 311.19622802734375 555.2623291015625 310.110107421875 556.2855224609375 C 306.5417175292969 555.1829223632812 303.97607421875 553.8905639648438 303.81268310546875 550.7412719726562 C 304.2770690917969 548.5340576171875 306.4753723144531 546.266845703125 308.9111022949219 545.4296875 C 311.3841247558594 546.6184692382812 313.35528564453125 548.7086181640625 315.3994140625 550.9793701171875" stroke-width="0.0" fill="rgb(253, 255, 255)" opacity="0.6019768"/>
    <path d="M 328.2332458496094 160.43540954589844 C 328.505126953125 163.00885009765625 327.2114562988281 164.6334686279297 324.9271240234375 166.5908966064453 C 322.6105651855469 165.48928833007812 320.5321960449219 163.41207885742188 318.77960205078125 160.55160522460938 C 320.9246826171875 158.89344787597656 322.5693664550781 156.55889892578125 324.7068176269531 155.3857421875 C 327.4957275390625 156.67086791992188 329.26190185546875 158.53158569335938 328.2332458496094 160.43540954589844" stroke-width="0.0" fill="rgb(253, 253, 253)" opacity="0.63687456"/>
    <path d="M 261.8905334472656 317.5044860839844 C 226.62167358398438 329.6550598144531 218.8353729248047 327.85858154296875 223.0946044921875 328.1492919921875 C 215.37210083007812 326.9397277832031 206.38165283203125 344.7794494628906 183.2230682373047 321.1650390625 C 181.45083618164062 290.50390625 187.0537109375 290.1898498535156 203.2908172607422 285.5193786621094 C 255.96322631835938 283.9408874511719 261.3080749511719 287.61639404296875 261.8905334472656 317.5044860839844" stroke-width="0.0" fill="rgb(38, 37, 38)" opacity="0.9714723"/>
    <path d="M 118.14175415039062 375.82379150390625 C 118.591552734375 379.6584167480469 117.12279510498047 381.4056091308594 114.11930084228516 380.9015808105469 C 112.02666473388672 381.0549011230469 109.83828735351562 378.6992492675781 109.91055297851562 377.3529052734375 C 109.51248168945312 374.62774658203125 111.47979736328125 372.66070556640625 114.12676239013672 370.5915222167969 C 116.25236511230469 372.9778137207031 118.93310546875 374.43487548828125 118.14175415039062 375.82379150390625" stroke-width="0.0" fill="rgb(255, 255, 254)" opacity="0.60902154"/>
    <path d="M 138.83441162109375 428.4034118652344 C 139.78872680664062 430.38134765625 137.15463256835938 432.1122131347656 134.31883239746094 433.38592529296875 C 132.7477264404297 432.6597595214844 131.11497497558594 429.80792236328125 125.28948974609375 426.0758056640625 C 122.47955322265625 419.9190979003906 123.35844421386719 415.6773681640625 143.2936248779297 408.6114196777344 C 145.61038208007812 418.4303894042969 142.28912353515625 423.9039001464844 138.83441162109375 428.4034118652344" stroke-width="0.0" fill="rgb(200, 200, 200)" opacity="0.95118916"/>
    <path d="M 278.4649353027344 310.8687438964844 C 273.25701904296875 345.4134521484375 297.8174743652344 358.1023864746094 280.7566223144531 358.40093994140625 C 245.19293212890625 357.69281005859375 265.971923828125 337.91729736328125 227.4242706298828 288.2768249511719 C 230.70156860351562 287.50445556640625 240.80050659179688 288.55230712890625 290.32757568359375 266.9239501953125 C 313.3695068359375 268.2728271484375 305.66522216796875 281.14141845703125 278.4649353027344 310.8687438964844" stroke-width="0.0" fill="rgb(26, 26, 26)" opacity="0.83363396"/>
    <path d="M 337.5663146972656 471.3587341308594 C 343.40008544921875 491.4731750488281 340.2073059082031 496.45867919921875 326.2963562011719 496.4740295410156 C 311.1226806640625 456.8139343261719 313.2787170410156 454.99395751953125 315.4087219238281 460.4580383300781 C 312.5246276855469 456.0904541015625 312.5617370605469 454.89837646484375 325.6086730957031 448.8777160644531 C 325.7101135253906 441.2265319824219 326.0574645996094 444.8437805175781 337.5663146972656 471.3587341308594" stroke-width="0.0" fill="rgb(61, 60, 62)" opacity="1.0"/>
    <path d="M 201.01536560058594 408.79498291015625 C 226.8459930419922 405.106201171875 211.47744750976562 415.840087890625 164.1336669921875 435.8460388183594 C 187.61146545410156 398.30047607421875 175.60552978515625 418.4883728027344 130.74757385253906 414.345703125 C 190.3966827392578 401.33282470703125 165.19569396972656 395.4850769042969 183.11045837402344 354.916748046875 C 209.24415588378906 367.34503173828125 160.62371826171875 415.9588317871094 201.01536560058594 408.79498291015625" stroke-width="0.0" fill="rgb(16, 16, 16)" opacity="0.9715129"/>
    <path d="M 350.5113220214844 365.5899658203125 C 358.86700439453125 381.87542724609375 384.501708984375 389.2891540527344 378.7332458496094 402.96661376953125 C 341.2805480957031 373.0390319824219 340.2141418457031 364.3935852050781 335.8689880371094 349.6428527832031 C 327.321533203125 325.44085693359375 311.1824035644531 316.4747619628906 331.46087646484375 313.7021484375 C 349.90576171875 331.7987976074219 345.58819580078125 348.1190185546875 350.5113220214844 365.5899658203125" stroke-width="0.0" fill="rgb(9, 9, 9)" opacity="0.99689716"/>
    <path d="M 293.3902893066406 417.6180114746094 C 287.613525390625 440.7504577636719 294.2612609863281 458.62884521484375 271.1174011230469 462.9932556152344 C 267.30413818359375 452.3768005371094 279.0625915527344 437.90045166015625 276.0211486816406 408.4734191894531 C 266.6952819824219 389.7041931152344 248.56631469726562 381.41168212890625 286.4293518066406 376.8851013183594 C 301.7083435058594 381.92193603515625 295.1689758300781 393.0033264160156 293.3902893066406 417.6180114746094" stroke-width="0.0" fill="rgb(10, 10, 10)" opacity="0.984777"/>
    <path d="M 244.93724060058594 523.6618041992188 C 228.12509155273438 558.7587890625 214.00506591796875 559.1407470703125 192.0880584716797 563.41748046875 C 182.92160034179688 556.0244140625 158.38658142089844 559.4530639648438 152.5662841796875 524.9725952148438 C 163.33126831054688 521.6925048828125 174.69741821289062 535.7737426757812 208.5915985107422 535.605712890625 C 245.09471130371094 507.6364440917969 252.89991760253906 507.9378662109375 244.93724060058594 523.6618041992188" stroke-width="0.0" fill="rgb(25, 25, 25)" opacity="0.9867973"/>
    <path d="M 81.2341079711914 329.8476867675781 C 80.39828491210938 333.8465881347656 78.76988983154297 335.9191589355469 76.470458984375 334.9679870605469 C 74.5373764038086 333.1317138671875 71.78191375732422 332.71270751953125 70.55571746826172 332.1838684082031 C 72.05305480957031 329.1585693359375 73.94467163085938 327.0224609375 76.4734878540039 325.72088623046875 C 78.30683898925781 326.33642578125 80.11698150634766 328.9194030761719 81.2341079711914 329.8476867675781" stroke-width="0.0" fill="rgb(254, 255, 255)" opacity="0.6035403"/>
    <path d="M 476.4605712890625 208.34100341796875 C 482.7031555175781 214.50277709960938 474.924560546875 210.66087341308594 457.78802490234375 200.60069274902344 C 456.8118896484375 197.22052001953125 452.7063293457031 195.87498474121094 443.6620788574219 184.40257263183594 C 414.9877624511719 165.66587829589844 411.0712890625 150.26071166992188 446.94439697265625 144.2716064453125 C 482.140625 158.08111572265625 449.1769714355469 191.6841583251953 476.4605712890625 208.34100341796875" stroke-width="0.0" fill="rgb(17, 17, 17)" opacity="0.9850884"/>
    <path d="M 157.45993041992188 174.19229125976562 C 98.25289916992188 160.26341247558594 131.39073181152344 188.4010009765625 117.1383056640625 198.89797973632812 C 108.22362518310547 155.79310607910156 121.6034927368164 176.40283203125 64.7072525024414 173.34584045410156 C 74.90160369873047 159.58566284179688 97.5314712524414 171.08123779296875 113.2341537475586 164.8647918701172 C 134.21836853027344 168.09410095214844 150.11978149414062 152.5097198486328 157.45993041992188 174.19229125976562" stroke-width="0.0" fill="rgb(14, 14, 14)" opacity="0.98322916"/>
    <path d="M 92.0523681640625 89.88462829589844 C 90.9422607421875 91.94660949707031 89.02156829833984 94.72515869140625 88.3587875366211 94.91596984863281 C 85.46475982666016 91.3167953491211 79.38886260986328 96.55355072021484 62.672908782958984 84.62088012695312 C 86.47931671142578 89.84310913085938 86.15111541748047 88.42460632324219 86.68942260742188 85.88725280761719 C 89.19180297851562 86.63680267333984 92.40940856933594 87.34961700439453 92.0523681640625 89.88462829589844" stroke-width="0.0" fill="rgb(179, 179, 179)" opacity="1.0"/>
    <path d="M 181.48081970214844 109.73759460449219 C 173.05715942382812 117.12482452392578 170.6055145263672 118.42969512939453 162.22708129882812 132.88265991210938 C 154.97824096679688 138.93385314941406 152.9752960205078 136.52328491210938 157.81285095214844 114.03528594970703 C 165.13812255859375 90.35810089111328 136.36856079101562 80.24744415283203 148.82301330566406 70.7131118774414 C 173.46841430664062 105.38465118408203 179.9932861328125 105.20917510986328 181.48081970214844 109.73759460449219" stroke-width="0.0" fill="rgb(8, 7, 7)" opacity="0.97509056"/>
    <path d="M 512.7889404296875 340.4128723144531 C 538.449951171875 362.0517883300781 541.7070922851562 374.4228210449219 511.79388427734375 379.5876770019531 C 483.2496032714844 343.96038818359375 471.5695495605469 339.01531982421875 452.6184997558594 312.3860168457031 C 463.9501037597656 316.7203369140625 490.65802001953125 318.8502197265625 495.1246032714844 327.74127197265625 C 489.6451416015625 326.70904541015625 499.7030944824219 325.2920837402344 512.7889404296875 340.4128723144531" stroke-width="0.0" fill="rgb(11, 11, 11)" opacity="0.956574"/>
    <path d="M 542.7833251953125 425.8625793457031 C 532.01806640625 453.24810791015625 534.2621459960938 468.2946472167969 529.0616455078125 476.57720947265625 C 522.3446044921875 445.359619140625 507.63348388671875 454.5201416015625 496.22601318359375 447.58184814453125 C 522.4686889648438 437.189208984375 528.8677978515625 452.57562255859375 518.89013671875 433.0678405761719 C 525.8932495117188 422.7725830078125 528.3291015625 427.3400573730469 542.7833251953125 425.8625793457031" stroke-width="0.0" fill="rgb(131, 131, 130)" opacity="0.8758147"/>
    <path d="M 324.9057312011719 359.0698547363281 C 313.7237548828125 380.9137268066406 337.7796630859375 387.0765686035156 310.7194519042969 401.5279846191406 C 273.2073669433594 393.68316650390625 269.9019470214844 400.2668762207031 271.40386962890625 361.0691223144531 C 282.2976379394531 336.3164367675781 296.20697021484375 343.50250244140625 329.8197937011719 317.1888732910156 C 342.7339782714844 321.84637451171875 335.5759582519531 330.6448059082031 324.9057312011719 359.0698547363281" stroke-width="0.0" fill="rgb(35, 35, 35)" opacity="0.82245606"/>
    <path d="M 223.49273681640625 478.4932556152344 C 222.43099975585938 481.5072326660156 220.58189392089844 483.70526123046875 217.63314819335938 484.3027038574219 C 215.81985473632812 483.66558837890625 213.5670623779297 481.15008544921875 212.88070678710938 479.8001708984375 C 213.43911743164062 476.1459655761719 215.31578063964844 474.3923034667969 217.91627502441406 475.0161437988281 C 220.27166748046875 474.259521484375 222.5883331298828 476.59796142578125 223.49273681640625 478.4932556152344" stroke-width="0.0" fill="rgb(254, 254, 255)" opacity="0.60604393"/>
    <path d="M 210.90882873535156 143.99229431152344 C 221.27235412597656 163.5279541015625 218.2405242919922 167.3946075439453 199.93353271484375 169.220947265625 C 129.9318389892578 166.70654296875 144.5810089111328 162.96238708496094 151.48069763183594 143.44390869140625 C 158.39578247070312 109.08775329589844 164.7578582763672 110.18782043457031 173.51011657714844 106.09272766113281 C 181.3597869873047 104.49702453613281 182.8193359375 107.6419677734375 210.90882873535156 143.99229431152344" stroke-width="0.0" fill="rgb(1, 1, 1)" opacity="1.0"/>
    <path d="M 508.689697265625 105.80162811279297 C 490.0490417480469 130.2628631591797 507.0723571777344 146.64248657226562 457.7266845703125 159.98974609375 C 454.8585510253906 145.17074584960938 486.4323425292969 137.56625366210938 487.5875244140625 122.64570617675781 C 481.356201171875 126.37035369873047 501.5611267089844 122.27201080322266 489.0039978027344 88.76107788085938 C 509.745361328125 100.763671875 531.2232666015625 104.75293731689453 508.689697265625 105.80162811279297" stroke-width="0.0" fill="rgb(17, 17, 17)" opacity="0.9048934"/>
    <path d="M 228.80389404296875 578.514892578125 C 227.6399688720703 580.4822998046875 225.1260986328125 582.139892578125 223.01556396484375 584.3519897460938 C 220.66749572753906 582.6734008789062 219.1135711669922 580.1046752929688 215.81971740722656 577.5647583007812 C 218.67526245117188 575.45263671875 219.61793518066406 572.3439331054688 222.90249633789062 572.8876953125 C 225.5974578857422 573.0741577148438 227.38722229003906 575.6701049804688 228.80389404296875 578.514892578125" stroke-width="0.0" fill="rgb(255, 255, 255)" opacity="0.59218115"/>
    <path d="M 479.3003845214844 250.03089904785156 C 433.2024230957031 262.71197509765625 428.1378173828125 264.75933837890625 436.4703369140625 265.4019470214844 C 423.8818359375 261.8342590332031 399.835205078125 278.5652160644531 381.55108642578125 272.85760498046875 C 399.0263671875 260.0693359375 423.57708740234375 262.06341552734375 441.6466979980469 251.72235107421875 C 466.302734375 244.49066162109375 478.4112854003906 234.83047485351562 479.3003845214844 250.03089904785156" stroke-width="0.0" fill="rgb(5, 6, 6)" opacity="0.9883393"/>
    <path d="M 385.19610595703125 296.63568115234375 C 372.7327880859375 316.1248779296875 362.616455078125 311.86175537109375 322.3464660644531 323.6658935546875 C 307.4025573730469 333.1402587890625 306.8626403808594 325.8617858886719 292.2687683105469 275.1270751953125 C 298.31951904296875 251.6959991455078 325.5102233886719 267.96661376953125 330.9639892578125 285.7234802246094 C 367.6788635253906 286.9162902832031 379.9905090332031 283.9464416503906 385.19610595703125 296.63568115234375" stroke-width="0.0" fill="rgb(2, 2, 2)" opacity="0.93725085"/>
    <path d="M 355.1403503417969 547.788330078125 C 354.0892639160156 551.3521728515625 352.2809143066406 553.6334228515625 350.38482666015625 554.3402709960938 C 347.72344970703125 553.4530639648438 345.3746643066406 551.361572265625 344.87933349609375 549.7838134765625 C 345.6171875 546.6848754882812 347.3273010253906 544.293701171875 349.5405578613281 543.7216796875 C 352.3793029785156 544.3568725585938 354.2696533203125 546.8450927734375 355.1403503417969 547.788330078125" stroke-width="0.0" fill="rgb(252, 252, 252)" opacity="0.6035805"/>
    <path d="M 152.6837615966797 185.65145874023438 C 147.98193359375 195.56021118164062 145.56024169921875 195.97027587890625 133.10183715820312 207.11813354492188 C 120.50837707519531 217.56944274902344 113.15206909179688 213.4894256591797 123.16767883300781 188.1560516357422 C 133.18727111816406 174.3373565673828 123.57096099853516 159.0612030029297 170.08453369140625 153.5842742919922 C 179.2845001220703 164.2962646484375 173.87928771972656 174.9224395751953 152.6837615966797 185.65145874023438" stroke-width="0.0" fill="rgb(111, 110, 110)" opacity="1.0"/>
    <path d="M 213.30735778808594 573.6029052734375 C 211.63426208496094 576.4930419921875 209.2063751220703 578.2318725585938 207.6127166748047 579.3575439453125 C 205.14561462402344 577.6513671875 202.78082275390625 576.18017578125 201.76296997070312 572.977783203125 C 202.41578674316406 571.705810546875 204.62391662597656 569.9591674804688 206.72235107421875 567.8831176757812 C 209.67697143554688 569.4608154296875 212.28187561035156 571.013671875 213.30735778808594 573.6029052734375" stroke-width="0.0" fill="rgb(252, 252, 252)" opacity="0.5968187"/>
    <path d="M 537.4188232421875 215.7383270263672 C 498.54510498046875 215.59637451171875 485.81951904296875 212.1258544921875 486.50079345703125 214.29742431640625 C 485.8779296875 214.023681640625 478.443359375 216.62161254882812 458.7629089355469 201.08822631835938 C 467.348388671875 195.5254669189453 489.1705017089844 183.6626739501953 480.1942138671875 201.2252655029297 C 510.5899658203125 215.8392791748047 532.6475219726562 190.47305297851562 537.4188232421875 215.7383270263672" stroke-width="0.0" fill="rgb(3, 3, 3)" opacity="0.9908967"/>
    <path d="M 254.82350158691406 454.5751037597656 C 257.5218811035156 468.8299255371094 258.5752258300781 472.7415466308594 235.58279418945312 481.9971923828125 C 229.06927490234375 478.8725280761719 235.64700317382812 466.70050048828125 236.30792236328125 458.15869140625 C 236.3230743408203 444.24908447265625 236.2481689453125 431.06890869140625 237.0321044921875 421.4644775390625 C 260.3233947753906 434.3922424316406 263.5691223144531 433.57421875 254.82350158691406 454.5751037597656" stroke-width="0.0" fill="rgb(11, 11, 11)" opacity="0.9181837"/>
    <path d="M 411.9806823730469 330.6089172363281 C 406.9565734863281 349.9307861328125 397.82232666015625 329.57464599609375 381.3460388183594 327.60760498046875 C 366.1882629394531 324.9427490234375 352.7994689941406 320.9550476074219 336.2553405761719 316.8917236328125 C 341.97918701171875 291.7013854980469 345.7782897949219 289.8025817871094 404.09991455078125 289.8466796875 C 402.8907775878906 325.68365478515625 393.7266540527344 328.1927185058594 411.9806823730469 330.6089172363281" stroke-width="0.0" fill="rgb(8, 8, 8)" opacity="0.82404983"/>
    <path d="M 386.1524963378906 357.7107849121094 C 386.14190673828125 359.53851318359375 383.09149169921875 360.7263488769531 380.9122009277344 361.2806396484375 C 378.51800537109375 361.3353576660156 376.5977783203125 359.46319580078125 375.7584228515625 357.8840026855469 C 377.45068359375 354.70452880859375 378.6789245605469 352.5340270996094 381.1822509765625 350.64202880859375 C 383.07269287109375 352.89593505859375 385.6510314941406 354.531982421875 386.1524963378906 357.7107849121094" stroke-width="0.0" fill="rgb(252, 255, 255)" opacity="0.60022056"/>
    <path d="M 490.2711181640625 333.6868896484375 C 488.7510986328125 359.27362060546875 481.7972106933594 345.80792236328125 464.46282958984375 343.24285888671875 C 441.0422668457031 334.29071044921875 418.636474609375 337.7850341796875 405.8274230957031 329.59100341796875 C 420.2223815917969 320.8414306640625 445.196533203125 331.5697326660156 455.3865966796875 331.8363952636719 C 454.74310302734375 331.6898193359375 460.37921142578125 338.4394836425781 490.2711181640625 333.6868896484375" stroke-width="0.0" fill="rgb(0, 0, 0)" opacity="0.9445975"/>
    <path d="M 214.2834930419922 186.6658172607422 C 210.6249542236328 211.53280639648438 205.23951721191406 211.85101318359375 193.76226806640625 198.0083465576172 C 186.38821411132812 187.37332153320312 184.6663818359375 186.11911010742188 182.26292419433594 181.77474975585938 C 165.7247314453125 175.47479248046875 158.07318115234375 162.32444763183594 177.72430419921875 154.01702880859375 C 215.44699096679688 159.04576110839844 215.9857177734375 161.28390502929688 214.2834930419922 186.6658172607422" stroke-width="0.0" fill="rgb(130, 130, 129)" opacity="1.0"/>
    <path d="M 280.264892578125 474.3313293457031 C 282.8660888671875 473.7667236328125 282.8439025878906 478.9714050292969 269.3846130371094 500.3113098144531 C 257.7762756347656 505.5678405761719 254.53427124023438 501.2484436035156 262.92474365234375 480.8501281738281 C 269.9538269042969 462.5978088378906 269.0125732421875 451.6867370605469 289.3128356933594 442.53399658203125 C 285.660400390625 459.1897888183594 283.3759765625 473.8639221191406 280.264892578125 474.3313293457031" stroke-width="0.0" fill="rgb(71, 71, 71)" opacity="1.0"/>
    <path d="M 395.33514404296875 568.9481201171875 C 395.18817138671875 572.0255126953125 393.23699951171875 574.2420043945312 390.14630126953125 575.2750244140625 C 387.3161926269531 573.2131958007812 385.45037841796875 571.3182373046875 386.1276550292969 569.1963500976562 C 385.70697021484375 566.7360229492188 387.5644226074219 564.6408081054688 390.0272521972656 562.7298583984375 C 392.13629150390625 565.096923828125 394.9371032714844 566.2330322265625 395.33514404296875 568.9481201171875" stroke-width="0.0" fill="rgb(253, 252, 252)" opacity="0.6017375"/>
    <path d="M 591.7747192382812 213.43399047851562 C 590.4846801757812 217.89056396484375 589.4697875976562 220.46090698242188 584.6124877929688 224.9952392578125 C 580.1934204101562 224.4630889892578 578.65771484375 221.2218475341797 579.6898193359375 214.9354248046875 C 581.7448120117188 213.15914916992188 584.4747924804688 211.66940307617188 587.8190307617188 210.98516845703125 C 590.5357666015625 210.24853515625 592.7044677734375 212.1840362548828 591.7747192382812 213.43399047851562" stroke-width="0.0" fill="rgb(255, 255, 255)" opacity="0.6522151"/>
    <path d="M 282.6890869140625 458.6037292480469 C 270.2936096191406 491.3861083984375 267.3968505859375 506.4819030761719 239.1013641357422 524.0711059570312 C 212.58694458007812 521.9750366210938 227.07052612304688 517.3514404296875 229.33770751953125 488.46710205078125 C 234.68435668945312 459.7145690917969 240.16641235351562 456.5977783203125 240.81329345703125 450.905029296875 C 247.2897491455078 471.78521728515625 259.1925964355469 470.020751953125 282.6890869140625 458.6037292480469" stroke-width="0.0" fill="rgb(0, 0, 0)" opacity="0.9999229"/>
    <path d="M 421.1084899902344 515.4863891601562 C 421.3180847167969 517.5247192382812 419.6127624511719 519.6832885742188 416.5419006347656 520.055908203125 C 414.55615234375 519.9330444335938 412.76507568359375 517.2200927734375 413.17254638671875 514.8863525390625 C 412.04010009765625 512.3853149414062 414.6551208496094 511.0252380371094 416.97576904296875 508.6052551269531 C 419.91973876953125 510.030517578125 420.04876708984375 512.767578125 421.1084899902344 515.4863891601562" stroke-width="0.0" fill="rgb(252, 253, 253)" opacity="0.6054411"/>
    <path d="M 537.3319702148438 6.9022979736328125 C 538.6221923828125 25.12577247619629 534.6162719726562 26.698463439941406 505.6264953613281 37.445255279541016 C 496.1140441894531 24.81505012512207 502.7492370605469 16.0451602935791 509.8363037109375 10.428169250488281 C 510.8753967285156 7.424286365509033 515.1535034179688 7.783720970153809 517.8975219726562 7.813783645629883 C 516.9336547851562 5.747857093811035 517.4935302734375 7.8669328689575195 537.3319702148438 6.9022979736328125" stroke-width="0.0" fill="rgb(158, 158, 158)" opacity="1.0"/>
    <path d="M 441.52630615234375 138.26280212402344 C 438.3518981933594 171.83053588867188 434.8411865234375 175.90835571289062 383.3511047363281 177.70787048339844 C 358.8114013671875 163.63414001464844 355.4380798339844 158.4714813232422 353.5052185058594 150.69361877441406 C 362.88427734375 116.68199920654297 372.5267333984375 109.6851806640625 402.8172302246094 89.99600982666016 C 434.4926452636719 86.33492279052734 438.3751525878906 90.52972412109375 441.52630615234375 138.26280212402344" stroke-width="0.0" fill="rgb(85, 85, 86)" opacity="1.0"/>
    <path d="M 501.66278076171875 47.99348449707031 C 528.4778442382812 69.39188385009766 539.909423828125 88.00594329833984 515.8590698242188 75.96955871582031 C 470.0055236816406 67.32281494140625 466.5503845214844 61.31694793701172 482.5161437988281 48.270225524902344 C 496.42059326171875 40.550636291503906 500.1251220703125 39.322635650634766 488.7754821777344 43.05756378173828 C 495.8831787109375 41.79817581176758 507.25640869140625 34.12498092651367 501.66278076171875 47.99348449707031" stroke-width="0.0" fill="rgb(2, 2, 2)" opacity="0.9271779"/>
    <path d="M 175.27305603027344 210.76010131835938 C 173.3629608154297 213.5351104736328 171.7776336669922 215.38751220703125 168.07154846191406 216.2834930419922 C 166.80946350097656 215.42645263671875 164.52902221679688 213.40036010742188 163.75991821289062 210.56028747558594 C 164.3375244140625 208.54937744140625 166.6338348388672 206.61146545410156 169.32350158691406 205.7254638671875 C 171.38934326171875 206.3533172607422 173.23501586914062 208.73362731933594 175.27305603027344 210.76010131835938" stroke-width="0.0" fill="rgb(252, 254, 253)" opacity="0.5997358"/>
    <path d="M 550.7252197265625 165.1630401611328 C 540.646484375 173.60902404785156 531.0374755859375 171.91403198242188 527.8793334960938 165.755859375 C 528.365234375 155.48765563964844 526.4031982421875 153.10888671875 518.7903442382812 149.66488647460938 C 512.2122192382812 142.11154174804688 515.5717163085938 142.49681091308594 521.7631225585938 137.2862091064453 C 538.6511840820312 136.6988067626953 546.2804565429688 132.18331909179688 550.7252197265625 165.1630401611328" stroke-width="0.0" fill="rgb(166, 166, 166)" opacity="1.0"/>
    <path d="M 342.19873046875 136.3957977294922 C 341.84027099609375 138.58261108398438 339.3233337402344 140.5806884765625 336.13836669921875 141.2598114013672 C 334.5259704589844 140.6873779296875 332.85009765625 138.34864807128906 329.75927734375 135.2823028564453 C 331.363525390625 132.4495086669922 333.1246643066406 130.61141967773438 335.9597473144531 130.90435791015625 C 339.6142272949219 131.46316528320312 342.1172790527344 133.38510131835938 342.19873046875 136.3957977294922" stroke-width="0.0" fill="rgb(252, 253, 253)" opacity="0.612098"/>
    <path d="M 446.5098571777344 62.89008712768555 C 422.56707763671875 78.04508972167969 419.9168701171875 80.90901947021484 414.0278625488281 86.22549438476562 C 391.2447509765625 106.8392333984375 383.9910583496094 118.91184997558594 381.8907775878906 107.70291137695312 C 411.0226135253906 73.95829010009766 416.12652587890625 72.67525482177734 455.35821533203125 47.31275939941406 C 465.2425537109375 39.1924934387207 466.695068359375 56.49041748046875 446.5098571777344 62.89008712768555" stroke-width="0.0" fill="rgb(5, 6, 5)" opacity="0.987684"/>
    <path d="M 372.3844909667969 581.8002319335938 C 371.2858581542969 584.2696533203125 369.3673400878906 586.59423828125 366.9464416503906 588.19970703125 C 364.6466369628906 586.465087890625 362.6717529296875 584.081298828125 360.95928955078125 582.4264526367188 C 363.6432189941406 580.197265625 364.7339782714844 578.0480346679688 367.6850891113281 576.7852172851562 C 369.22259521484375 577.3123779296875 371.3924255371094 579.4939575195312 372.3844909667969 581.8002319335938" stroke-width="0.0" fill="rgb(252, 252, 255)" opacity="0.6006987"/>
    <path d="M 158.42340087890625 430.18359375 C 156.61305236816406 432.7967529296875 154.5355682373047 434.3825378417969 151.2040252685547 434.3383483886719 C 149.45571899414062 434.4436950683594 147.04537963867188 432.7753601074219 146.6782684326172 429.5342712402344 C 147.16781616210938 427.6209716796875 149.7447052001953 425.8182373046875 152.12657165527344 424.7810974121094 C 154.37200927734375 425.0965270996094 156.21351623535156 427.6309509277344 158.42340087890625 430.18359375" stroke-width="0.0" fill="rgb(255, 255, 255)" opacity="0.6005319"/>
  </g>
</svg>
