<?xml version="1.0" ?>
<svg xmlns="http://www.w3.org/2000/svg" version="1.1" width="256" height="256">
  <defs/>
  <g>
    <path d="M 135.0 59.0 C 132.99038696289062 66.5 127.5 71.9903793334961 120.0 74.0 C 112.5 71.9903793334961 107.0096206665039 66.5 105.0 59.0 C 107.0096206665039 51.5 112.5 46.009620666503906 120.0 44.0 C 127.5 46.009620666503906 132.99038696289062 51.5 135.0 59.0" stroke-width="0.0" fill="rgb(0, 1, 0)" opacity="1.0"/>
    <path d="M 200.0 191.0 C 197.99038696289062 198.5 192.5 203.99038696289062 185.29623413085938 205.79611206054688 C 178.29238891601562 203.30764770507812 172.94419860839844 197.6201629638672 169.02542114257812 190.02410888671875 C 171.0321044921875 182.53988647460938 176.5669708251953 177.1140594482422 184.350341796875 175.4490966796875 C 192.5 178.00961303710938 197.99038696289062 183.5 200.0 191.0" stroke-width="0.0" fill="rgb(2, 3, 2)" opacity="0.99010754"/>
    <path d="M 195.90142822265625 102.709716796875 C 193.7781219482422 110.10536193847656 187.85311889648438 115.17537689208984 179.94589233398438 117.06163024902344 C 172.1270751953125 115.26678466796875 166.43222045898438 109.97023010253906 164.87355041503906 102.51738739013672 C 167.25860595703125 94.1527099609375 171.8973846435547 88.25831604003906 180.75509643554688 87.24017333984375 C 188.02279663085938 88.24053192138672 192.93728637695312 94.388671875 195.90142822265625 102.709716796875" stroke-width="0.0" fill="rgb(240, 240, 239)" opacity="1.0"/>
    <path d="M 85.72209930419922 183.76551818847656 C 83.9152603149414 191.44204711914062 78.4568099975586 196.96043395996094 70.96144104003906 198.9722900390625 C 63.450340270996094 195.03282165527344 57.827491760253906 189.56704711914062 54.01637268066406 182.62594604492188 C 56.13739776611328 174.78030395507812 62.07615661621094 169.7878875732422 69.97157287597656 167.98858642578125 C 77.5 170.00961303710938 82.9903793334961 175.5 85.72209930419922 183.76551818847656" stroke-width="0.0" fill="rgb(43, 44, 44)" opacity="0.99000686"/>
    <path d="M 98.00753784179688 229.17877197265625 C 96.03817749023438 236.60377502441406 90.7249755859375 242.36898803710938 83.798095703125 244.88812255859375 C 76.5 242.99038696289062 71.0096206665039 237.5 68.07839965820312 229.1017608642578 C 70.0553970336914 221.55752563476562 75.569091796875 216.09217834472656 83.2132339477539 214.28778076171875 C 90.6495132446289 217.75570678710938 96.02961730957031 223.4224395751953 98.00753784179688 229.17877197265625" stroke-width="0.0" fill="rgb(3, 3, 3)" opacity="0.99000734"/>
    <path d="M 85.09297943115234 10.89671516418457 C 82.9903793334961 18.5 77.5 23.990381240844727 69.24552917480469 26.778799057006836 C 61.609806060791016 24.88480567932129 56.11033248901367 19.39185333251953 55.97307586669922 11.751558303833008 C 57.47652053833008 3.7021737098693848 62.51740264892578 -1.985235571861267 70.09823608398438 -4.092081546783447 C 77.76359558105469 -2.2456541061401367 83.2562026977539 3.2330822944641113 85.09297943115234 10.89671516418457" stroke-width="0.0" fill="rgb(251, 251, 251)" opacity="1.0"/>
    <path d="M 104.0140380859375 252.8582305908203 C 102.09420013427734 258.7181701660156 96.93415069580078 264.62506103515625 89.9277572631836 266.9659423828125 C 82.5 264.9903869628906 77.0096206665039 259.5 75.0 252.0 C 77.0096206665039 244.5 82.5 239.00961303710938 89.2649154663086 237.69435119628906 C 96.56977081298828 239.9208221435547 102.02721405029297 245.44737243652344 104.0140380859375 252.8582305908203" stroke-width="0.0" fill="rgb(20, 21, 20)" opacity="0.9900043"/>
    <path d="M 47.938533782958984 117.03744506835938 C 44.1512451171875 124.97110748291016 40.26930236816406 131.90431213378906 32.61708068847656 133.986083984375 C 25.3751277923584 131.81141662597656 19.973379135131836 124.5588607788086 17.98763084411621 118.62109375 C 19.981847763061523 111.46727752685547 25.468128204345703 105.98382568359375 32.97787857055664 102.60997009277344 C 40.47083282470703 104.03306579589844 45.96406555175781 109.53033447265625 47.938533782958984 117.03744506835938" stroke-width="0.0" fill="rgb(69, 69, 68)" opacity="0.99000293"/>
    <path d="M 76.67723846435547 166.2598419189453 C 73.9903793334961 174.5 68.5 179.99038696289062 61.497833251953125 181.26217651367188 C 53.677490234375 179.58436584472656 48.00952911376953 174.47369384765625 45.998016357421875 167.0028839111328 C 48.009620666503906 159.5 53.5 154.00961303710938 61.95058822631836 151.03045654296875 C 69.46000671386719 153.03610229492188 74.91100311279297 158.55686950683594 76.67723846435547 166.2598419189453" stroke-width="0.0" fill="rgb(0, 0, 0)" opacity="1.0"/>
    <path d="M 89.98091125488281 180.96507263183594 C 87.96917724609375 188.47267150878906 82.47010040283203 193.96253967285156 74.95770263671875 194.4961395263672 C 67.42914581298828 192.0499725341797 61.953514099121094 186.5693359375 59.938499450683594 179.10299682617188 C 61.009620666503906 172.5 66.5 167.00961303710938 73.9892807006836 165.00511169433594 C 81.38099670410156 167.07269287109375 86.67051696777344 172.70230102539062 89.98091125488281 180.96507263183594" stroke-width="0.0" fill="rgb(3, 3, 2)" opacity="0.9900284"/>
    <path d="M 141.97442626953125 202.93023681640625 C 139.9635467529297 210.46348571777344 134.45370483398438 215.9337921142578 126.82526397705078 217.8021240234375 C 118.5 214.99038696289062 113.0096206665039 209.5 111.00157165527344 202.00396728515625 C 113.04669952392578 194.5902099609375 118.75618743896484 189.48719787597656 125.51676940917969 187.89010620117188 C 133.02490234375 189.74110412597656 139.8036651611328 193.9673309326172 141.97442626953125 202.93023681640625" stroke-width="0.0" fill="rgb(142, 139, 140)" opacity="1.0"/>
    <path d="M 233.8787841796875 2.2564544677734375 C 231.1263427734375 10.796205520629883 226.11167907714844 16.801368713378906 217.02838134765625 18.989442825317383 C 209.5167694091797 16.976423263549805 204.02340698242188 11.483299255371094 202.01060485839844 3.962771415710449 C 204.10752868652344 -5.279314041137695 209.98536682128906 -10.282889366149902 217.97584533691406 -12.023920059204102 C 225.78585815429688 -10.12983226776123 231.73619079589844 -5.042142868041992 233.8787841796875 2.2564544677734375" stroke-width="0.0" fill="rgb(0, 0, 0)" opacity="1.0"/>
    <path d="M 39.1299934387207 82.09196472167969 C 37.7249870300293 90.40756225585938 32.49526596069336 95.98902130126953 24.99997329711914 97.99999237060547 C 17.499982833862305 95.99038696289062 12.00814151763916 90.50041198730469 10.643243789672852 83.44251251220703 C 12.455415725708008 75.6551284790039 17.32928466796875 69.65647888183594 24.84332847595215 67.30873107910156 C 32.8509635925293 70.42282104492188 38.88588333129883 74.73450469970703 39.1299934387207 82.09196472167969" stroke-width="0.0" fill="rgb(251, 251, 251)" opacity="1.0"/>
    <path d="M 156.0 40.0 C 153.99038696289062 47.5 148.5 52.990379333496094 141.0 55.0 C 133.5 52.990379333496094 128.00961303710938 47.5 126.0 40.0 C 128.00961303710938 32.5 133.5 27.009618759155273 141.0 25.0 C 148.5 27.009618759155273 153.99038696289062 32.5 156.0 40.0" stroke-width="0.0" fill="rgb(254, 254, 254)" opacity="1.0"/>
    <path d="M 120.0 203.0 C 117.9903793334961 210.5 112.5 215.99038696289062 105.0 218.0 C 97.5 215.99038696289062 92.0096206665039 210.5 90.68782043457031 203.44454956054688 C 92.34976959228516 195.46336364746094 97.30459594726562 189.8207550048828 104.93730926513672 187.95352172851562 C 112.5 190.00961303710938 117.9903793334961 195.5 120.0 203.0" stroke-width="0.0" fill="rgb(251, 251, 251)" opacity="0.9909774"/>
    <path d="M 259.3734130859375 7.476552486419678 C 256.4589538574219 14.977103233337402 251.0103302001953 20.593332290649414 243.98484802246094 23.275236129760742 C 236.5 20.990381240844727 231.00961303710938 15.5 228.3984375 7.464717388153076 C 230.2783966064453 -0.1752721071243286 235.87876892089844 -5.547165870666504 243.87051391601562 -7.280742168426514 C 251.98672485351562 -5.404900074005127 257.61376953125 -0.051986873149871826 259.3734130859375 7.476552486419678" stroke-width="0.0" fill="rgb(251, 251, 251)" opacity="0.9903576"/>
    <path d="M 139.62261962890625 134.6254425048828 C 137.83253479003906 142.358154296875 132.3785858154297 147.89381408691406 124.6632080078125 149.89979553222656 C 115.92870330810547 147.70565795898438 110.70504760742188 141.92298889160156 108.94529724121094 134.0836639404297 C 111.0096206665039 126.5 116.5 121.0096206665039 124.0 119.0 C 131.5 121.0096206665039 136.99038696289062 126.5 139.62261962890625 134.6254425048828" stroke-width="0.0" fill="rgb(193, 191, 195)" opacity="1.0"/>
    <path d="M 144.99623107910156 230.00941467285156 C 142.99038696289062 237.5 137.5 242.99038696289062 129.9647979736328 245.01402282714844 C 122.00672149658203 243.26075744628906 116.1029052734375 238.2819061279297 114.02568054199219 230.93080139160156 C 117.0096206665039 222.5 122.5 217.00961303710938 129.35523986816406 215.82186889648438 C 137.09303283691406 217.644287109375 142.9097900390625 222.6810302734375 144.99623107910156 230.00941467285156" stroke-width="0.0" fill="rgb(0, 0, 0)" opacity="1.0"/>
    <path d="M 211.0 56.0 C 208.99038696289062 63.5 203.5 68.9903793334961 195.1269989013672 71.89861297607422 C 187.5536651611328 69.9375991821289 182.04354858398438 64.45384216308594 180.0478515625 56.921852111816406 C 182.12643432617188 47.70738983154297 187.84957885742188 42.554115295410156 195.9053497314453 40.97975158691406 C 203.5 43.009620666503906 208.99038696289062 48.5 211.0 56.0" stroke-width="0.0" fill="rgb(224, 222, 222)" opacity="1.0"/>
    <path d="M 120.14666748046875 185.6254119873047 C 118.9903793334961 192.5 113.5 197.99038696289062 105.66932678222656 200.23411560058594 C 97.7255630493164 198.68121337890625 92.1584243774414 193.31898498535156 91.92806243896484 184.90951538085938 C 93.70279693603516 178.18690490722656 99.15396881103516 172.5871124267578 106.46595001220703 169.67686462402344 C 113.96805572509766 171.4601593017578 118.88893127441406 177.17039489746094 120.14666748046875 185.6254119873047" stroke-width="0.0" fill="rgb(251, 251, 252)" opacity="1.0"/>
    <path d="M 131.5518798828125 71.68549346923828 C 130.90518188476562 79.3961410522461 125.37482452392578 84.83313751220703 117.9063949584961 85.0887451171875 C 110.44534301757812 83.03829193115234 104.95333099365234 77.5574722290039 102.87088775634766 70.14332580566406 C 104.0096206665039 63.5 109.5 58.009620666503906 117.00019073486328 55.99993896484375 C 124.50934600830078 58.00651931762695 130.12574768066406 63.45082092285156 131.5518798828125 71.68549346923828" stroke-width="0.0" fill="rgb(26, 26, 26)" opacity="0.99000645"/>
    <path d="M 138.7542266845703 92.22041320800781 C 135.99038696289062 100.5 130.5 105.9903793334961 122.2955322265625 108.77365112304688 C 114.70970153808594 106.82971954345703 109.37683868408203 101.23219299316406 108.59898376464844 92.37908935546875 C 109.16661071777344 84.64205169677734 114.62541198730469 79.11485290527344 122.0660400390625 78.9773941040039 C 131.36929321289062 79.93982696533203 136.90480041503906 84.5938949584961 138.7542266845703 92.22041320800781" stroke-width="0.0" fill="rgb(220, 220, 221)" opacity="0.9905319"/>
    <path d="M 156.0004119873047 31.998817443847656 C 153.99038696289062 39.5 148.5 44.990379333496094 141.0 47.0 C 133.5 44.990379333496094 128.00961303710938 39.5 125.97500610351562 31.998857498168945 C 128.0851593017578 24.67205238342285 133.77520751953125 19.408695220947266 141.62466430664062 16.14649200439453 C 148.70213317871094 18.57855987548828 154.00686645507812 24.453344345092773 156.0004119873047 31.998817443847656" stroke-width="0.0" fill="rgb(255, 255, 255)" opacity="0.990637"/>
    <path d="M 35.04306411743164 55.881961822509766 C 34.77385711669922 63.28236770629883 29.21816062927246 68.14281463623047 20.77448272705078 69.13888549804688 C 13.714441299438477 67.51053619384766 7.987069606781006 62.49787902832031 5.198004722595215 54.93929672241211 C 7.944361209869385 47.72703552246094 13.910755157470703 42.567527770996094 21.523653030395508 40.31853485107422 C 28.772539138793945 41.468997955322266 33.11286544799805 48.16714096069336 35.04306411743164 55.881961822509766" stroke-width="0.0" fill="rgb(251, 251, 252)" opacity="1.0"/>
    <path d="M 179.97430419921875 144.9545135498047 C 177.97308349609375 152.48023986816406 172.4815216064453 157.97608947753906 164.62623596191406 159.99310302734375 C 155.5221405029297 157.9730987548828 150.026123046875 152.47825622558594 148.00682067871094 143.16932678222656 C 150.02578735351562 135.52525329589844 155.5362091064453 130.0578155517578 163.16534423828125 128.1849365234375 C 172.10400390625 130.5377960205078 177.84027099609375 135.75656127929688 179.97430419921875 144.9545135498047" stroke-width="0.0" fill="rgb(8, 9, 10)" opacity="0.99001867"/>
    <path d="M 167.1944122314453 29.955461502075195 C 165.0204620361328 37.51185607910156 159.50367736816406 42.991817474365234 152.00015258789062 45.00006103515625 C 144.5 42.990379333496094 139.00961303710938 37.5 137.0028839111328 30.006271362304688 C 139.04437255859375 22.56243324279785 144.6024932861328 17.174272537231445 152.32284545898438 14.545002937316895 C 159.59725952148438 16.78572654724121 165.10189819335938 22.440933227539062 167.1944122314453 29.955461502075195" stroke-width="0.0" fill="rgb(255, 255, 255)" opacity="0.99051285"/>
    <path d="M 151.998291015625 104.00019836425781 C 149.99038696289062 111.5 144.5 116.9903793334961 137.0 119.0 C 129.5 116.9903793334961 124.0096206665039 111.5 121.37577056884766 103.32640075683594 C 123.1275405883789 95.59648132324219 128.57366943359375 90.06088256835938 136.11624145507812 88.03472900390625 C 144.95535278320312 90.30561828613281 150.0399932861328 96.34214782714844 151.998291015625 104.00019836425781" stroke-width="0.0" fill="rgb(161, 158, 160)" opacity="1.0"/>
    <path d="M 217.00286865234375 201.00550842285156 C 215.021484375 208.55824279785156 209.60678100585938 214.17758178710938 202.12924194335938 216.22235107421875 C 194.5 213.99038696289062 189.00961303710938 208.5 187.0 201.0 C 189.00961303710938 193.5 194.5 188.00961303710938 202.0 186.0 C 209.5 188.00961303710938 214.99038696289062 193.5 217.00286865234375 201.00550842285156" stroke-width="0.0" fill="rgb(2, 2, 1)" opacity="1.0"/>
    <path d="M 135.99546813964844 120.99169921875 C 133.94639587402344 128.42149353027344 128.3642578125 133.76437377929688 120.70864868164062 136.04647827148438 C 113.74911499023438 134.09799194335938 108.6559066772461 128.02711486816406 105.05599975585938 120.0697250366211 C 107.05953216552734 112.59007263183594 112.65448760986328 107.25462341308594 120.65269470214844 105.89380645751953 C 128.5 108.0096206665039 133.99038696289062 113.5 135.99546813964844 120.99169921875" stroke-width="0.0" fill="rgb(214, 213, 214)" opacity="1.0"/>
    <path d="M 207.98617553710938 216.96983337402344 C 205.97509765625 224.48141479492188 200.4817657470703 229.9758758544922 192.973876953125 231.9857635498047 C 184.5 228.99038696289062 179.00961303710938 223.5 177.0 216.0 C 179.00961303710938 208.5 184.5 203.00961303710938 192.001953125 200.9993438720703 C 199.5817108154297 202.98057556152344 205.57269287109375 208.1824188232422 207.98617553710938 216.96983337402344" stroke-width="0.0" fill="rgb(0, 0, 0)" opacity="1.0"/>
    <path d="M 141.98709106445312 57.97454071044922 C 139.97561645507812 65.47916412353516 134.47415161132812 70.96222686767578 126.9207992553711 72.91203308105469 C 118.54985046386719 69.84854888916016 113.00304412841797 64.49568939208984 110.99673461914062 57.003482818603516 C 113.0096206665039 49.5 118.5 44.009620666503906 126.0 42.0 C 133.5 44.009620666503906 138.99363708496094 49.499122619628906 141.98709106445312 57.97454071044922" stroke-width="0.0" fill="rgb(0, 0, 0)" opacity="1.0"/>
    <path d="M 156.77841186523438 227.76223754882812 C 154.9167022705078 235.43736267089844 149.4486846923828 240.95123291015625 141.9263916015625 242.95558166503906 C 133.5 239.99038696289062 128.00961303710938 234.5 126.47423553466797 227.5566864013672 C 128.84725952148438 220.38055419921875 134.40512084960938 214.93362426757812 141.9525909423828 211.01820373535156 C 149.41246032714844 213.0543212890625 154.71722412109375 218.66543579101562 156.77841186523438 227.76223754882812" stroke-width="0.0" fill="rgb(3, 3, 2)" opacity="0.99000305"/>
    <path d="M 124.10974884033203 192.20663452148438 C 122.13150024414062 199.7005615234375 116.76565551757812 205.3302764892578 109.67680358886719 207.7408447265625 C 102.49995422363281 205.99041748046875 97.00927734375 200.50013732910156 94.99620056152344 193.0020751953125 C 97.0096206665039 185.5 102.5 180.00961303710938 110.00996398925781 177.99464416503906 C 117.552978515625 179.9686279296875 122.92159271240234 185.4752197265625 124.10974884033203 192.20663452148438" stroke-width="0.0" fill="rgb(251, 251, 252)" opacity="0.9900338"/>
    <path d="M 265.0456237792969 147.00942993164062 C 263.17333984375 154.7746124267578 257.8843688964844 160.50440979003906 250.384521484375 162.49172973632812 C 242.7764892578125 159.80886840820312 236.640869140625 154.34188842773438 234.09945678710938 147.54710388183594 C 236.18997192382812 138.6255645751953 241.58700561523438 133.066650390625 249.13014221191406 131.046630859375 C 257.9400939941406 133.3804473876953 263.15228271484375 139.23660278320312 265.0456237792969 147.00942993164062" stroke-width="0.0" fill="rgb(248, 248, 249)" opacity="1.0"/>
    <path d="M 119.00926208496094 138.0755615234375 C 117.01384735107422 145.5352783203125 111.54947662353516 151.05914306640625 104.1319351196289 154.8675994873047 C 96.58270263671875 152.9141082763672 91.1036148071289 147.411865234375 89.25794219970703 139.75247192382812 C 91.99564361572266 131.45721435546875 97.24491882324219 125.48490905761719 105.95933532714844 123.01402282714844 C 113.45484161376953 125.03555297851562 117.2005844116211 130.59796142578125 119.00926208496094 138.0755615234375" stroke-width="0.0" fill="rgb(2, 2, 2)" opacity="0.99000573"/>
    <path d="M 39.0 216.0 C 36.990379333496094 223.5 31.5 228.99038696289062 24.961050033569336 230.02725219726562 C 17.48136329650879 228.00729370117188 11.995294570922852 222.5176239013672 9.988387107849121 215.03829956054688 C 11.976115226745605 209.45516967773438 17.44304084777832 203.93771362304688 24.77852439880371 201.74205017089844 C 31.5 203.00961303710938 36.990379333496094 208.5 39.0 216.0" stroke-width="0.0" fill="rgb(3, 2, 2)" opacity="0.99000275"/>
    <path d="M 104.9776611328125 125.03781127929688 C 101.98686218261719 133.49716186523438 96.49762725830078 138.98843383789062 88.95677947998047 141.01719665527344 C 80.98455810546875 139.28530883789062 75.10581970214844 134.28173828125 73.01693725585938 126.43755340576172 C 75.07159423828125 117.63674926757812 80.77156066894531 112.26516723632812 89.96099853515625 110.01492309570312 C 97.4782485961914 112.02731323242188 102.97125244140625 117.52235412597656 104.9776611328125 125.03781127929688" stroke-width="0.0" fill="rgb(3, 3, 3)" opacity="0.99007684"/>
    <path d="M 102.03176879882812 213.046142578125 C 100.0111312866211 220.52713012695312 94.53323364257812 226.02978515625 87.11459350585938 228.1229705810547 C 79.68565368652344 227.66468811035156 74.04902648925781 222.41485595703125 72.00804901123047 213.11990356445312 C 74.02656555175781 205.5203857421875 79.51979064941406 200.0252227783203 87.02203369140625 198.02777099609375 C 94.62120819091797 201.93992614746094 100.2900390625 207.30177307128906 102.03176879882812 213.046142578125" stroke-width="0.0" fill="rgb(2, 2, 2)" opacity="0.9900035"/>
    <path d="M 263.0 64.0 C 260.9903869628906 71.5 255.5 76.9903793334961 248.0 79.0 C 240.5 76.9903793334961 235.00961303710938 71.5 233.0 64.0 C 235.00961303710938 56.5 240.5 51.009620666503906 248.0 49.0 C 255.5 51.009620666503906 260.9903869628906 56.5 263.0 64.0" stroke-width="0.0" fill="rgb(253, 253, 254)" opacity="1.0"/>
    <path d="M 87.0 239.0 C 84.9903793334961 246.5 79.5 251.99038696289062 71.85881805419922 254.071044921875 C 63.778587341308594 252.52928161621094 58.070865631103516 247.36874389648438 56.01034927368164 238.05389404296875 C 58.02485656738281 230.51805114746094 63.51762771606445 225.02389526367188 71.02754974365234 223.0160369873047 C 79.5 226.00961303710938 84.9903793334961 231.5 87.0 239.0" stroke-width="0.0" fill="rgb(3, 3, 3)" opacity="0.99031746"/>
    <path d="M 243.75149536132812 59.19770812988281 C 240.99038696289062 67.5 235.5 72.9903793334961 227.8852996826172 75.05873107910156 C 219.83193969726562 73.46700286865234 214.0876922607422 68.33647918701172 212.0377197265625 60.91446304321289 C 215.00851440429688 52.49620819091797 220.44459533691406 46.840301513671875 228.9752960205078 44.01115417480469 C 236.47390747070312 46.025550842285156 241.93368530273438 51.53972244262695 243.75149536132812 59.19770812988281" stroke-width="0.0" fill="rgb(0, 0, 0)" opacity="1.0"/>
    <path d="M 41.990989685058594 5.9362640380859375 C 39.97492980957031 13.481664657592773 34.48166275024414 18.974842071533203 26.97309112548828 20.972261428833008 C 19.46651840209961 17.028705596923828 13.991049766540527 11.526381492614746 11.992966651916504 4.078426837921143 C 13.96288013458252 -1.599653720855713 19.288467407226562 -7.351035118103027 26.394947052001953 -10.056855201721191 C 34.32680892944336 -8.692246437072754 39.948486328125 -3.4142186641693115 41.990989685058594 5.9362640380859375" stroke-width="0.0" fill="rgb(3, 3, 2)" opacity="0.990004"/>
    <path d="M 168.9617156982422 99.19779968261719 C 166.62664794921875 106.15361785888672 161.1878204345703 111.73807525634766 154.08245849609375 113.83677673339844 C 147.0124969482422 111.57406616210938 141.7511444091797 105.87332153320312 139.6853485107422 98.23796844482422 C 140.23416137695312 90.72256469726562 145.70242309570312 85.176513671875 153.2190399169922 83.15560150146484 C 161.3184814453125 86.37757873535156 166.68167114257812 91.64400482177734 168.9617156982422 99.19779968261719" stroke-width="0.0" fill="rgb(221, 219, 219)" opacity="0.9902541"/>
    <path d="M 144.97146606445312 238.9593048095703 C 142.97254943847656 246.47996520996094 137.48126220703125 251.9757537841797 129.84886169433594 253.9931182861328 C 120.5202865600586 251.97349548339844 115.02505493164062 246.48036193847656 113.0076904296875 238.9010467529297 C 115.04248046875 229.56930541992188 120.64607238769531 224.26612854003906 128.65707397460938 222.90484619140625 C 136.4882049560547 225.0402069091797 141.9893341064453 230.50335693359375 144.97146606445312 238.9593048095703" stroke-width="0.0" fill="rgb(2, 2, 2)" opacity="1.0"/>
    <path d="M 39.03447723388672 84.85274505615234 C 38.34123611450195 91.53273010253906 32.491302490234375 97.30250549316406 25.170940399169922 99.82252502441406 C 17.70806884765625 96.76213836669922 12.460785865783691 91.21333312988281 10.66927719116211 83.5406494140625 C 12.00688648223877 76.49922180175781 17.499958038330078 71.00960540771484 24.999876022338867 69.00003814697266 C 32.481117248535156 71.01513671875 37.469932556152344 76.73733520507812 39.03447723388672 84.85274505615234" stroke-width="0.0" fill="rgb(251, 251, 251)" opacity="1.0"/>
    <path d="M 212.8431854248047 37.14087677001953 C 209.9733428955078 45.447113037109375 204.17332458496094 50.3760986328125 196.06304931640625 52.040409088134766 C 188.52716064453125 51.96296310424805 183.02716064453125 46.47654342651367 181.0144805908203 38.96906280517578 C 183.51426696777344 29.844688415527344 188.65553283691406 24.078718185424805 197.95462036132812 22.008968353271484 C 205.47425842285156 24.02678108215332 210.94619750976562 29.535144805908203 212.8431854248047 37.14087677001953" stroke-width="0.0" fill="rgb(0, 0, 0)" opacity="1.0"/>
    <path d="M 137.95907592773438 33.066566467285156 C 135.99038696289062 40.5 130.5 45.990379333496094 123.01366424560547 47.99789810180664 C 115.6922607421875 45.891841888427734 110.43560791015625 40.20069122314453 107.1268310546875 32.428775787353516 C 110.45999908447266 26.13153839111328 116.18569946289062 20.71949005126953 123.38505554199219 17.47395133972168 C 130.0505828857422 20.566205978393555 135.73861694335938 25.85132598876953 137.95907592773438 33.066566467285156" stroke-width="0.0" fill="rgb(255, 255, 255)" opacity="0.9902722"/>
    <path d="M 218.0 89.0 C 215.99038696289062 96.5 210.5 101.9903793334961 203.89480590820312 103.05547332763672 C 196.326416015625 101.06639099121094 189.08706665039062 97.18621063232422 187.0112762451172 88.10596466064453 C 189.04017639160156 80.55119323730469 194.5798797607422 75.1256332397461 202.35972595214844 73.44171142578125 C 210.5 76.0096206665039 215.99038696289062 81.5 218.0 89.0" stroke-width="0.0" fill="rgb(3, 2, 3)" opacity="0.9900083"/>
    <path d="M 242.94326782226562 208.9321746826172 C 240.9636688232422 216.47134399414062 235.47300720214844 221.96836853027344 226.09994506835938 223.99200439453125 C 218.52047729492188 221.97508239746094 213.03526306152344 216.47573852539062 211.06610107421875 208.9278106689453 C 213.73199462890625 200.00086975097656 218.73028564453125 194.1123046875 226.09048461914062 192.03627014160156 C 234.5 195.00961303710938 239.99038696289062 200.5 242.94326782226562 208.9321746826172" stroke-width="0.0" fill="rgb(3, 3, 2)" opacity="1.0"/>
    <path d="M 81.12855529785156 255.04286193847656 C 79.00521087646484 262.50457763671875 73.50052642822266 267.99053955078125 66.00000762939453 270.0 C 58.499935150146484 267.99041748046875 53.00757598876953 262.5006103515625 50.01358413696289 254.0264129638672 C 52.026039123535156 246.52432250976562 57.5322265625 241.0478057861328 65.11506652832031 239.11643981933594 C 73.50017547607422 242.00926208496094 78.99042510986328 247.49990844726562 81.12855529785156 255.04286193847656" stroke-width="0.0" fill="rgb(3, 3, 2)" opacity="1.0"/>
    <path d="M 63.99225616455078 206.91552734375 C 61.975669860839844 214.4813690185547 56.48101043701172 219.97486877441406 48.96499252319336 221.98818969726562 C 40.10745620727539 219.66470336914062 34.982364654541016 213.5806884765625 32.4701042175293 205.40859985351562 C 34.15861892700195 197.61094665527344 39.5713996887207 192.0510711669922 48.946510314941406 190.0077362060547 C 56.47640609741211 192.02627563476562 61.96831512451172 197.52630615234375 63.99225616455078 206.91552734375" stroke-width="0.0" fill="rgb(3, 2, 2)" opacity="1.0"/>
    <path d="M 171.20626831054688 117.17654418945312 C 168.99038696289062 124.5 163.5 129.99038696289062 155.2158966064453 132.88864135742188 C 147.81211853027344 130.8140411376953 142.6827392578125 125.0 141.90142822265625 117.88763427734375 C 143.96546936035156 110.45545959472656 149.458984375 104.9754867553711 156.8636932373047 102.9837875366211 C 162.63111877441406 104.92955017089844 168.3203125 110.2947769165039 171.20626831054688 117.17654418945312" stroke-width="0.0" fill="rgb(3, 3, 2)" opacity="0.99000466"/>
    <path d="M 254.0 198.0 C 251.99038696289062 205.5 246.5 210.99038696289062 239.38137817382812 212.4320068359375 C 231.9188690185547 210.50436401367188 226.4190216064453 205.10638427734375 223.0419158935547 197.05445861816406 C 225.03363037109375 189.52870178222656 230.5316619873047 184.04226684570312 238.08934020996094 182.08169555664062 C 246.5 185.00961303710938 251.99038696289062 190.5 254.0 198.0" stroke-width="0.0" fill="rgb(29, 29, 28)" opacity="1.0"/>
    <path d="M 260.2541198730469 77.25233459472656 C 258.4903564453125 84.99484252929688 252.9877166748047 90.46611022949219 245.22019958496094 92.19992065429688 C 237.5 89.9903793334961 232.00961303710938 84.5 230.0 77.0 C 232.00961303710938 69.5 237.5 64.0096206665039 245.0 62.0 C 252.5 64.0096206665039 257.9903869628906 69.5 260.2541198730469 77.25233459472656" stroke-width="0.0" fill="rgb(255, 255, 255)" opacity="0.99129325"/>
    <path d="M 262.72479248046875 180.33555603027344 C 260.9903869628906 187.5 255.5 192.99038696289062 248.0 195.0 C 240.5 192.99038696289062 235.00961303710938 187.5 233.0 180.0 C 235.00961303710938 172.5 240.5 167.00961303710938 247.33766174316406 165.7249298095703 C 254.7282257080078 167.8287353515625 260.32867431640625 173.22303771972656 262.72479248046875 180.33555603027344" stroke-width="0.0" fill="rgb(95, 95, 94)" opacity="0.9900197"/>
    <path d="M 74.18517303466797 165.69497680664062 C 71.9903793334961 173.5 66.49995422363281 178.99020385742188 58.04473114013672 181.97242736816406 C 50.536380767822266 179.96649169921875 45.20132827758789 174.4404754638672 44.984405517578125 165.51084899902344 C 46.917449951171875 157.743408203125 50.55070495605469 152.03196716308594 58.073116302490234 150.00741577148438 C 67.42208099365234 152.04771423339844 72.71778106689453 157.65733337402344 74.18517303466797 165.69497680664062" stroke-width="0.0" fill="rgb(3, 3, 2)" opacity="0.99002206"/>
    <path d="M 224.97824096679688 113.04949951171875 C 221.1862335205078 120.63339233398438 215.61541748046875 126.09858703613281 208.2531280517578 128.2354278564453 C 201.5 126.9903793334961 196.00961303710938 121.5 194.90646362304688 114.87928009033203 C 196.95492553710938 107.43228912353516 202.4202117919922 101.91703796386719 209.76425170898438 99.71098327636719 C 217.31443786621094 100.32894897460938 222.94664001464844 105.5905990600586 224.97824096679688 113.04949951171875" stroke-width="0.0" fill="rgb(4, 5, 4)" opacity="0.9900047"/>
    <path d="M 225.68470764160156 201.40345764160156 C 224.4167022705078 209.14169311523438 219.34315490722656 214.92115783691406 211.19924926757812 216.98727416992188 C 202.63192749023438 214.92901611328125 197.47267150878906 209.2191162109375 195.92861938476562 201.14105224609375 C 198.00958251953125 193.49989318847656 203.49557495117188 187.99371337890625 211.96063232421875 185.0164031982422 C 219.41799926757812 187.04510498046875 223.8165283203125 192.7327423095703 225.68470764160156 201.40345764160156" stroke-width="0.0" fill="rgb(2, 2, 2)" opacity="0.99013376"/>
    <path d="M 122.71324920654297 207.0575714111328 C 120.9903793334961 214.5 115.5 219.99038696289062 107.10031127929688 222.9036102294922 C 99.53124237060547 220.95556640625 94.02761840820312 215.47486877441406 92.01405334472656 207.95855712890625 C 94.10099792480469 198.68569946289062 99.86367797851562 193.5907745361328 108.21119689941406 191.85903930664062 C 115.94332122802734 193.53541564941406 121.25118255615234 199.11119079589844 122.71324920654297 207.0575714111328" stroke-width="0.0" fill="rgb(240, 240, 244)" opacity="1.0"/>
    <path d="M 115.09834289550781 163.16390991210938 C 113.0798110961914 170.59983825683594 107.59453582763672 176.06668090820312 100.06087493896484 179.8695068359375 C 92.7598876953125 177.86981201171875 87.864501953125 171.95266723632812 85.80650329589844 163.66026306152344 C 87.33354187011719 155.73846435546875 92.68182373046875 150.144775390625 100.11783599853516 149.95932006835938 C 107.9568099975586 151.8699493408203 114.70951080322266 155.9218292236328 115.09834289550781 163.16390991210938" stroke-width="0.0" fill="rgb(141, 140, 142)" opacity="0.9900171"/>
    <path d="M 69.0 53.0 C 66.9903793334961 60.5 61.5 65.9903793334961 54.0 68.0 C 46.5 65.9903793334961 41.009620666503906 60.5 39.0 53.0 C 41.009620666503906 45.5 46.5 40.009620666503906 54.0 38.0 C 61.5 40.009620666503906 66.9903793334961 45.5 69.0 53.0" stroke-width="0.0" fill="rgb(165, 164, 167)" opacity="1.0"/>
    <path d="M 179.0 231.0 C 176.99038696289062 238.5 171.5 243.99038696289062 163.3588104248047 246.7811279296875 C 157.10232543945312 244.63330078125 151.95883178710938 237.61947631835938 149.99195861816406 231.59814453125 C 151.95867919921875 224.39187622070312 157.27296447753906 218.62942504882812 164.20184326171875 216.1117706298828 C 171.5 218.00961303710938 176.99038696289062 223.5 179.0 231.0" stroke-width="0.0" fill="rgb(252, 252, 252)" opacity="0.99001044"/>
    <path d="M 235.0 87.0 C 232.99038696289062 94.5 227.5 99.9903793334961 220.0003204345703 101.9998550415039 C 212.5052032470703 99.9880599975586 207.0428009033203 94.48590850830078 205.09707641601562 86.96142578125 C 207.00997924804688 79.5013198852539 212.51983642578125 74.0752944946289 220.2439422607422 72.5263900756836 C 227.5 74.0096206665039 232.99038696289062 79.5 235.0 87.0" stroke-width="0.0" fill="rgb(9, 9, 9)" opacity="1.0"/>
    <path d="M 206.99087524414062 171.03372192382812 C 204.8693389892578 179.93411254882812 197.86585998535156 184.34326171875 190.64312744140625 186.7032470703125 C 183.50140380859375 184.98995971679688 178.05491638183594 179.4860076904297 175.04397583007812 171.09046936035156 C 177.08663940429688 163.63356018066406 182.6150665283203 158.06686401367188 191.95384216308594 156.00794982910156 C 199.48367309570312 158.02333068847656 204.97776794433594 163.5158233642578 206.99087524414062 171.03372192382812" stroke-width="0.0" fill="rgb(2, 2, 2)" opacity="0.9900162"/>
    <path d="M 195.9901123046875 112.99203491210938 C 193.99038696289062 120.5 188.5 125.9903793334961 181.0 128.0 C 173.5 125.9903793334961 168.00961303710938 120.5 166.93624877929688 113.82937622070312 C 168.70135498046875 105.26842498779297 172.9160919189453 99.38013458251953 180.72178649902344 97.68087005615234 C 188.57968139648438 99.89400482177734 194.04010009765625 105.4384536743164 195.9901123046875 112.99203491210938" stroke-width="0.0" fill="rgb(207, 208, 208)" opacity="1.0"/>
    <path d="M 252.12147521972656 170.07737731933594 C 250.12632751464844 177.5872802734375 244.55653381347656 183.02560424804688 236.04156494140625 185.97117614746094 C 228.52145385742188 183.97183227539062 223.0272979736328 178.47886657714844 221.0150146484375 170.74119567871094 C 223.0341033935547 161.5364227294922 228.54949951171875 156.0721893310547 236.1937713623047 154.21836853027344 C 244.5 157.00961303710938 249.99038696289062 162.5 252.12147521972656 170.07737731933594" stroke-width="0.0" fill="rgb(2, 2, 2)" opacity="0.9911329"/>
    <path d="M 267.0 50.0 C 264.9903869628906 57.5 259.5 62.990379333496094 252.00064086914062 64.99979400634766 C 244.542724609375 62.97661209106445 239.54722595214844 57.23627471923828 237.21400451660156 49.097503662109375 C 238.14186096191406 41.78048324584961 244.05422973632812 36.77192306518555 251.96900939941406 34.987762451171875 C 259.5 37.009620666503906 264.9903869628906 42.5 267.0 50.0" stroke-width="0.0" fill="rgb(251, 251, 252)" opacity="1.0"/>
    <path d="M 97.03785705566406 161.90750122070312 C 96.31978607177734 168.87689208984375 90.92103576660156 174.4607391357422 83.25399017333984 176.28004455566406 C 75.5 173.99038696289062 70.0096206665039 168.5 67.19463348388672 160.11854553222656 C 69.0456771850586 152.5339813232422 74.53133392333984 147.0371856689453 82.06562805175781 145.054443359375 C 89.74720001220703 148.63693237304688 95.06946563720703 154.35552978515625 97.03785705566406 161.90750122070312" stroke-width="0.0" fill="rgb(201, 200, 200)" opacity="1.0"/>
    <path d="M 89.02373504638672 170.35598754882812 C 87.14213562011719 177.796142578125 82.01899719238281 183.67532348632812 74.99756622314453 185.88128662109375 C 67.65931701660156 183.8269500732422 62.212303161621094 178.3287353515625 60.04280090332031 170.7261505126953 C 61.405418395996094 162.75013732910156 66.63239288330078 157.07659912109375 74.0406494140625 155.0752716064453 C 81.5669174194336 158.95733642578125 87.06773376464844 164.4237060546875 89.02373504638672 170.35598754882812" stroke-width="0.0" fill="rgb(2, 2, 2)" opacity="0.9900093"/>
    <path d="M 36.98316192626953 29.038841247558594 C 34.93041229248047 38.45362091064453 29.466577529907227 43.96832275390625 21.984046936035156 44.02185821533203 C 14.480585098266602 42.005950927734375 8.994132041931152 36.5193977355957 6.994868755340576 29.255306243896484 C 8.993179321289062 23.478239059448242 14.4765625 17.989328384399414 21.96710205078125 15.967409133911133 C 29.462263107299805 16.053266525268555 34.970481872558594 21.529054641723633 36.98316192626953 29.038841247558594" stroke-width="0.0" fill="rgb(3, 3, 2)" opacity="0.9900012"/>
    <path d="M 118.438232421875 13.536272048950195 C 115.21369934082031 20.70812225341797 109.69084167480469 26.159021377563477 102.39232635498047 28.20687484741211 C 95.35295867919922 27.221006393432617 90.17888641357422 21.50094985961914 87.37113189697266 13.997754096984863 C 90.16100311279297 6.754252910614014 95.58370208740234 0.6018590927124023 102.54503631591797 -1.6990928649902344 C 110.77161407470703 0.9113178849220276 116.41134643554688 6.139227390289307 118.438232421875 13.536272048950195" stroke-width="0.0" fill="rgb(255, 255, 255)" opacity="0.9901353"/>
    <path d="M 132.96875 216.97193908691406 C 130.9224090576172 222.6028594970703 123.53498840332031 228.009521484375 116.03288269042969 230.00885009765625 C 109.94013977050781 228.30311584472656 104.79303741455078 222.93663024902344 102.80299377441406 215.29542541503906 C 103.98251342773438 208.5897674560547 109.75791931152344 203.46710205078125 116.11255645751953 201.9367218017578 C 123.5429916381836 203.96682739257812 129.0203857421875 209.46182250976562 132.96875 216.97193908691406" stroke-width="0.0" fill="rgb(252, 252, 252)" opacity="0.9900041"/>
    <path d="M 203.36964416503906 118.78751373291016 C 201.00045776367188 126.53105926513672 195.68527221679688 132.41030883789062 187.05018615722656 134.98252868652344 C 179.5780792236328 132.9510498046875 174.26084899902344 127.34957885742188 172.25888061523438 118.6751480102539 C 174.91714477539062 112.20464324951172 181.3494110107422 106.9271240234375 187.303955078125 104.97799682617188 C 194.6448211669922 106.93537139892578 200.69601440429688 112.20591735839844 203.36964416503906 118.78751373291016" stroke-width="0.0" fill="rgb(62, 61, 61)" opacity="0.9900076"/>
    <path d="M 99.16448211669922 242.9417724609375 C 98.94404602050781 250.4366912841797 93.42076873779297 255.89649963378906 85.82305145263672 256.3162841796875 C 78.14912414550781 254.2066650390625 71.4312515258789 249.22305297851562 70.90233612060547 242.78961181640625 C 72.85240936279297 235.31529235839844 78.32298278808594 229.86944580078125 85.94296264648438 226.11111450195312 C 93.4521713256836 228.0443572998047 98.82989501953125 233.5697021484375 99.16448211669922 242.9417724609375" stroke-width="0.0" fill="rgb(86, 86, 85)" opacity="1.0"/>
    <path d="M 260.8544616699219 190.16177368164062 C 258.9903869628906 197.5 253.5 202.99038696289062 246.22909545898438 204.82054138183594 C 239.14036560058594 202.4399871826172 233.82542419433594 196.76901245117188 230.29307556152344 189.110595703125 C 232.1131134033203 181.69960021972656 237.89523315429688 176.8540802001953 245.76376342773438 175.47425842285156 C 253.0167999267578 177.54811096191406 258.5926208496094 182.9393310546875 260.8544616699219 190.16177368164062" stroke-width="0.0" fill="rgb(88, 88, 87)" opacity="0.990041"/>
    <path d="M 109.73146057128906 47.13261032104492 C 107.9903793334961 54.5 102.5 59.990379333496094 95.00009155273438 61.99997329711914 C 87.51103973388672 59.987098693847656 82.35830688476562 54.365623474121094 80.83028411865234 46.092376708984375 C 81.07262420654297 38.579673767089844 86.5956039428711 33.12248611450195 94.74453735351562 31.115596771240234 C 102.9400863647461 33.423492431640625 107.96424102783203 39.23394012451172 109.73146057128906 47.13261032104492" stroke-width="0.0" fill="rgb(250, 250, 250)" opacity="1.0"/>
    <path d="M 249.00588989257812 15.96989917755127 C 247.04556274414062 21.61591911315918 241.739013671875 27.384695053100586 234.04632568359375 30.96707534790039 C 226.5236358642578 28.96963119506836 221.0288543701172 23.476947784423828 219.0242919921875 15.960775375366211 C 221.85348510742188 7.163604259490967 226.82937622070312 1.1593961715698242 235.8602294921875 -0.9861610531806946 C 241.5356903076172 2.8690690994262695 247.00390625 8.478878021240234 249.00588989257812 15.96989917755127" stroke-width="0.0" fill="rgb(3, 3, 2)" opacity="0.9900033"/>
    <path d="M 68.98782348632812 133.9701690673828 C 66.97537231445312 141.48147583007812 61.481449127197266 146.97532653808594 53.966243743896484 148.98699951171875 C 44.55535888671875 146.920166015625 39.069339752197266 141.4471893310547 38.98630142211914 133.93289184570312 C 40.963233947753906 126.43489074707031 46.41979217529297 120.91824340820312 53.75326919555664 117.02387237548828 C 59.812896728515625 119.20063781738281 65.14545440673828 126.33580017089844 68.98782348632812 133.9701690673828" stroke-width="0.0" fill="rgb(3, 3, 3)" opacity="0.99000263"/>
    <path d="M 182.86265563964844 126.94760131835938 C 180.8881378173828 135.40235900878906 175.4026641845703 140.8899688720703 167.71060180664062 142.70687866210938 C 158.67318725585938 140.7226104736328 153.07818603515625 135.38839721679688 151.0657958984375 127.88426971435547 C 153.89822387695312 119.45523071289062 159.48768615722656 114.00716400146484 167.9545135498047 111.02127075195312 C 175.43894958496094 113.04414367675781 180.86660766601562 118.59668731689453 182.86265563964844 126.94760131835938" stroke-width="0.0" fill="rgb(3, 3, 2)" opacity="0.9900106"/>
    <path d="M 255.01014709472656 165.86741638183594 C 253.03701782226562 171.56985473632812 247.59278869628906 177.10044860839844 240.49349975585938 179.90081787109375 C 234.03041076660156 177.41064453125 228.5894317626953 171.97006225585938 225.0491180419922 164.054931640625 C 227.0328369140625 156.52450561523438 232.5226287841797 151.02784729003906 240.01766967773438 150.95498657226562 C 247.52731323242188 152.98907470703125 253.0156707763672 158.47055053710938 255.01014709472656 165.86741638183594" stroke-width="0.0" fill="rgb(41, 40, 39)" opacity="0.9900072"/>
    <path d="M 183.00160217285156 215.99700927734375 C 180.99038696289062 223.5 175.5 228.99038696289062 168.0 231.0 C 160.5 228.99038696289062 155.00961303710938 223.5 153.11074829101562 216.1452178955078 C 155.41175842285156 208.97850036621094 161.04641723632812 203.62930297851562 168.45079040527344 201.86578369140625 C 175.54434204101562 202.9505615234375 181.0070037841797 208.4691619873047 183.00160217285156 215.99700927734375" stroke-width="0.0" fill="rgb(251, 251, 251)" opacity="1.0"/>
    <path d="M 144.93331909179688 113.17251586914062 C 141.99038696289062 121.5 136.5 126.9903793334961 129.43467712402344 128.55459594726562 C 122.22451782226562 126.287353515625 116.83293151855469 120.73286437988281 114.7997055053711 113.18994140625 C 115.25245666503906 105.7826919555664 120.8096694946289 100.33537292480469 129.5030059814453 98.14068603515625 C 137.0445098876953 100.35437774658203 142.7539825439453 105.89128875732422 144.93331909179688 113.17251586914062" stroke-width="0.0" fill="rgb(148, 147, 147)" opacity="0.99007004"/>
    <path d="M 133.0238494873047 51.035518646240234 C 131.00662231445312 58.51897430419922 125.51836395263672 64.00508880615234 118.02510070800781 66.01187133789062 C 111.53289794921875 64.88310241699219 106.0101089477539 59.498287200927734 104.12073516845703 52.1219367980957 C 106.30410766601562 44.7927360534668 111.78730010986328 39.285335540771484 119.10309600830078 37.08781433105469 C 126.49981689453125 39.009971618652344 131.99032592773438 44.50009536743164 133.0238494873047 51.035518646240234" stroke-width="0.0" fill="rgb(250, 250, 250)" opacity="0.99000305"/>
    <path d="M 43.98722839355469 150.14212036132812 C 41.97105026245117 159.47940063476562 36.481746673583984 164.9767608642578 28.97971534729004 166.9876708984375 C 21.474090576171875 163.01864624023438 15.993212699890137 157.52178955078125 13.993962287902832 150.24940490722656 C 15.993612289428711 144.4784393310547 21.47254180908203 138.97377014160156 28.713111877441406 135.04454040527344 C 36.397064208984375 137.35679626464844 41.96049118041992 142.55361938476562 43.98722839355469 150.14212036132812" stroke-width="0.0" fill="rgb(3, 3, 3)" opacity="0.99000126"/>
    <path d="M 155.99513244628906 41.99403762817383 C 154.00987243652344 49.61244583129883 148.86976623535156 55.61422348022461 141.92816162109375 56.01839065551758 C 134.2125244140625 54.109130859375 127.99237823486328 49.21086502075195 125.94013977050781 42.057106018066406 C 128.00938415527344 34.49980545043945 133.49981689453125 29.009418487548828 140.9999237060547 26.999923706054688 C 148.5 29.009618759155273 153.99038696289062 34.5 155.99513244628906 41.99403762817383" stroke-width="0.0" fill="rgb(251, 251, 251)" opacity="0.990072"/>
    <path d="M 219.96664428710938 72.07072448730469 C 216.96917724609375 80.40843963623047 211.28465270996094 85.60464477539062 203.14097595214844 88.9024658203125 C 195.6158447265625 86.89100646972656 190.0862579345703 81.39473724365234 188.05435180664062 73.87759399414062 C 191.9411163330078 66.44264221191406 197.45095825195312 60.96961975097656 204.94944763183594 58.94171905517578 C 212.42825317382812 59.07765197753906 217.94093322753906 64.5647201538086 219.96664428710938 72.07072448730469" stroke-width="0.0" fill="rgb(48, 48, 47)" opacity="1.0"/>
    <path d="M 120.99011993408203 62.05663299560547 C 118.88584899902344 71.22219848632812 112.2204818725586 75.3250732421875 105.91448974609375 77.0211181640625 C 98.34780883789062 75.06600189208984 91.31959533691406 69.92115020751953 89.05418395996094 62.1131477355957 C 91.05494689941406 54.575679779052734 96.92848205566406 50.95144271850586 104.07099151611328 48.993858337402344 C 111.54000091552734 50.988529205322266 118.93807983398438 56.34208679199219 120.99011993408203 62.05663299560547" stroke-width="0.0" fill="rgb(10, 10, 9)" opacity="0.9900019"/>
    <path d="M 217.9770050048828 128.944580078125 C 215.96775817871094 136.472412109375 210.47178649902344 141.96644592285156 201.26190185546875 143.98867797851562 C 193.53114318847656 141.9679412841797 188.05859375 136.4602508544922 187.93954467773438 128.76019287109375 C 188.16427612304688 119.61925506591797 193.59866333007812 114.09041595458984 201.07508850097656 113.95670318603516 C 208.56930541992188 115.95966339111328 214.21202087402344 121.3993148803711 217.9770050048828 128.944580078125" stroke-width="0.0" fill="rgb(149, 148, 150)" opacity="1.0"/>
    <path d="M 50.990928649902344 228.9389190673828 C 48.97455978393555 236.48049926757812 43.48005676269531 241.97335815429688 35.727142333984375 243.98611450195312 C 27.86962890625 241.94424438476562 22.984912872314453 234.5523681640625 20.980318069458008 227.03594970703125 C 21.579607009887695 220.20852661132812 27.309852600097656 214.8831787109375 35.49190139770508 212.6121368408203 C 43.39313888549805 214.1788330078125 48.95576095581055 219.56239318847656 50.990928649902344 228.9389190673828" stroke-width="0.0" fill="rgb(5, 5, 5)" opacity="0.9900108"/>
    <path d="M 65.0 56.0 C 62.990379333496094 63.5 57.5 68.9903793334961 49.042598724365234 71.97020721435547 C 41.52115249633789 69.97164154052734 36.02604293823242 64.47975158691406 34.00815963745117 56.91084289550781 C 36.04377746582031 47.56593322753906 41.623130798339844 42.215614318847656 49.58484649658203 40.71393966674805 C 57.5 43.009620666503906 62.990379333496094 48.5 65.0 56.0" stroke-width="0.0" fill="rgb(0, 0, 0)" opacity="1.0"/>
    <path d="M 228.94139099121094 46.04886245727539 C 225.53125 54.25345993041992 220.2254180908203 59.48332595825195 213.7750244140625 61.055206298828125 C 206.2805938720703 59.11532974243164 200.4856414794922 53.858360290527344 198.0565948486328 46.8725700378418 C 200.00961303710938 39.5 205.5 34.009620666503906 213.90887451171875 31.076099395751953 C 221.46310424804688 33.04556655883789 226.96395874023438 38.53335189819336 228.94139099121094 46.04886245727539" stroke-width="0.0" fill="rgb(136, 135, 135)" opacity="0.9900958"/>
    <path d="M 196.98013305664062 238.87570190429688 C 194.95701599121094 246.45730590820312 189.45205688476562 251.94261169433594 181.87648010253906 253.8900604248047 C 173.5 250.99038696289062 168.00961303710938 245.5 166.88735961914062 238.77346801757812 C 168.81497192382812 231.1756591796875 174.01431274414062 225.37879943847656 181.23106384277344 223.0108184814453 C 189.2574005126953 224.4215545654297 194.9230194091797 229.62960815429688 196.98013305664062 238.87570190429688" stroke-width="0.0" fill="rgb(159, 157, 157)" opacity="1.0"/>
    <path d="M 236.02682495117188 94.06182861328125 C 234.3517303466797 102.08040618896484 229.3068389892578 107.90316772460938 221.9351348876953 109.95438385009766 C 214.33619689941406 106.13394165039062 208.87562561035156 100.65994262695312 206.9268341064453 93.43305206298828 C 208.7945556640625 87.17752838134766 214.058349609375 81.4491958618164 221.14491271972656 79.09860229492188 C 228.5 81.0096206665039 233.99038696289062 86.5 236.02682495117188 94.06182861328125" stroke-width="0.0" fill="rgb(80, 79, 79)" opacity="0.9900518"/>
    <path d="M 152.0172576904297 126.94064331054688 C 151.9114227294922 134.42684936523438 146.42958068847656 139.92247009277344 138.77902221679688 141.74949645996094 C 129.9299774169922 139.58035278320312 124.33201599121094 134.10189819335938 122.19075775146484 126.39459228515625 C 124.7939224243164 118.69775390625 130.86965942382812 113.48473358154297 137.60877990722656 111.50098419189453 C 144.57948303222656 113.88876342773438 150.02561950683594 119.44583129882812 152.0172576904297 126.94064331054688" stroke-width="0.0" fill="rgb(165, 162, 163)" opacity="0.990015"/>
    <path d="M 178.30433654785156 219.35801696777344 C 176.64988708496094 227.20553588867188 171.24627685546875 232.78024291992188 163.48605346679688 234.71136474609375 C 154.63475036621094 232.76609802246094 149.0462188720703 227.42860412597656 147.01254272460938 219.92027282714844 C 149.258056640625 212.17356872558594 156.2791290283203 206.724853515625 163.1028289794922 203.46141052246094 C 170.44146728515625 206.07533264160156 175.94161987304688 211.55343627929688 178.30433654785156 219.35801696777344" stroke-width="0.0" fill="rgb(251, 252, 252)" opacity="1.0"/>
    <path d="M 264.2425231933594 203.7245330810547 C 262.33465576171875 212.01617431640625 257.18341064453125 217.80105590820312 248.76341247558594 219.9228057861328 C 242.2493438720703 217.72642517089844 236.96588134765625 210.58953857421875 234.98934936523438 204.73666381835938 C 236.9821014404297 197.4666290283203 242.4672393798828 191.9833526611328 249.96839904785156 189.94606018066406 C 257.37982177734375 190.0775146484375 262.68902587890625 195.69955444335938 264.2425231933594 203.7245330810547" stroke-width="0.0" fill="rgb(208, 208, 209)" opacity="0.9900044"/>
    <path d="M 60.97407150268555 37.03815841674805 C 57.990379333496094 45.5 52.5 50.990379333496094 44.09366226196289 53.91008758544922 C 36.529422760009766 51.95786666870117 31.02667808532715 46.476226806640625 29.015872955322266 38.96565628051758 C 31.069719314575195 29.544809341430664 36.53142166137695 24.029939651489258 45.44759750366211 22.008342742919922 C 53.480064392089844 24.02601432800293 58.973052978515625 29.520288467407227 60.97407150268555 37.03815841674805" stroke-width="0.0" fill="rgb(4, 4, 4)" opacity="0.99000573"/>
    <path d="M 72.93450927734375 48.078548431396484 C 69.9903793334961 56.5 64.5 61.990379333496094 57.04159164428711 63.980648040771484 C 49.92268371582031 61.74668502807617 44.844486236572266 55.82582092285156 42.97620391845703 49.488956451416016 C 44.8611946105957 41.76087188720703 48.68131637573242 35.09270477294922 57.941062927246094 33.018070220947266 C 65.4724349975586 35.030921936035156 70.95979309082031 40.53108215332031 72.93450927734375 48.078548431396484" stroke-width="0.0" fill="rgb(127, 126, 128)" opacity="0.99006236"/>
    <path d="M 192.00942993164062 23.02662467956543 C 190.00511169433594 30.518203735351562 184.51876831054688 36.006534576416016 177.0337371826172 38.01713562011719 C 170.0076141357422 37.63758087158203 164.71897888183594 31.85856819152832 162.44000244140625 23.918245315551758 C 165.46310424804688 17.12555503845215 171.22071838378906 11.808074951171875 178.7548370361328 9.67970085144043 C 185.6070556640625 10.693757057189941 190.6780548095703 16.62746238708496 192.00942993164062 23.02662467956543" stroke-width="0.0" fill="rgb(250, 250, 251)" opacity="0.9900092"/>
    <path d="M 267.0 66.0 C 264.9903869628906 73.49998474121094 259.49993896484375 78.9902572631836 251.99981689453125 80.99939727783203 C 244.5 78.9903793334961 239.00961303710938 73.5 236.99996948242188 65.99996185302734 C 239.00946044921875 58.49980163574219 244.49972534179688 53.00920486450195 251.99960327148438 51.000247955322266 C 259.49993896484375 53.009769439697266 264.9903869628906 58.500022888183594 267.0 66.0" stroke-width="0.0" fill="rgb(255, 255, 255)" opacity="0.9983109"/>
    <path d="M 163.91310119628906 2.705080270767212 C 161.7338104248047 10.167169570922852 156.12689208984375 15.622398376464844 148.4332275390625 17.05447006225586 C 139.96136474609375 15.317705154418945 134.29127502441406 10.141067504882812 132.5347442626953 2.4909253120422363 C 135.01388549804688 -5.4985222816467285 140.5003204345703 -10.990269660949707 148.0000457763672 -13.000009536743164 C 155.5038604736328 -10.991551399230957 161.10812377929688 -5.538302421569824 163.91310119628906 2.705080270767212" stroke-width="0.0" fill="rgb(255, 255, 255)" opacity="0.99022037"/>
    <path d="M 240.197265625 92.21570587158203 C 238.0823516845703 99.60316467285156 232.6474609375 106.31057739257812 226.92050170898438 108.96952819824219 C 219.32254028320312 105.1468505859375 213.86209106445312 99.6744384765625 211.88487243652344 92.21582794189453 C 213.00961303710938 85.5 218.5 80.0096206665039 226.0 78.0 C 233.5 80.0096206665039 238.99038696289062 85.5 240.197265625 92.21570587158203" stroke-width="0.0" fill="rgb(109, 107, 110)" opacity="0.9900469"/>
    <path d="M 42.78025436401367 201.2812957763672 C 39.99091339111328 209.5010986328125 34.50187683105469 214.9935760498047 27.157459259033203 216.95626831054688 C 20.276046752929688 214.3892822265625 14.964644432067871 208.59927368164062 12.99306583404541 202.9197540283203 C 14.99309253692627 195.4785614013672 20.476097106933594 189.98658752441406 27.939056396484375 187.93795776367188 C 35.256263732910156 188.31655883789062 40.841495513916016 193.6946563720703 42.78025436401367 201.2812957763672" stroke-width="0.0" fill="rgb(3, 3, 3)" opacity="0.9900028"/>
    <path d="M 170.95294189453125 65.8750228881836 C 168.6912841796875 71.69184112548828 161.58944702148438 77.04181671142578 154.04246520996094 79.02562713623047 C 147.0723419189453 78.67235565185547 141.06459045410156 73.33531951904297 139.0091552734375 64.07857513427734 C 141.031494140625 56.54264831542969 146.6055450439453 52.76338195800781 154.04978942871094 50.982177734375 C 161.5440216064453 52.98475646972656 167.1373291015625 58.42276382446289 170.95294189453125 65.8750228881836" stroke-width="0.0" fill="rgb(3, 3, 2)" opacity="0.99000216"/>
    <path d="M 168.7078094482422 38.51504898071289 C 166.79612731933594 46.350765228271484 161.40863037109375 51.94047164916992 153.83212280273438 53.98683547973633 C 144.71807861328125 51.89408493041992 139.71475219726562 46.0167121887207 137.9828643798828 38.0421028137207 C 140.00961303710938 30.5 145.5 25.009618759155273 152.98196411132812 23.009737014770508 C 160.3363494873047 25.103435516357422 165.5968475341797 30.762521743774414 168.7078094482422 38.51504898071289" stroke-width="0.0" fill="rgb(255, 255, 255)" opacity="1.0"/>
    <path d="M 88.98353576660156 14.322566986083984 C 86.26201629638672 21.777780532836914 80.67996215820312 27.084562301635742 73.08551788330078 29.02056884765625 C 65.64964294433594 28.815187454223633 60.14497756958008 23.36017417907715 58.26448440551758 15.693958282470703 C 60.999183654785156 7.496737003326416 66.49957275390625 2.009483814239502 73.7718505859375 0.3165229260921478 C 81.42169189453125 2.341336965560913 87.51727294921875 7.2213521003723145 88.98353576660156 14.322566986083984" stroke-width="0.0" fill="rgb(250, 250, 250)" opacity="1.0"/>
    <path d="M 244.0057830810547 63.39289093017578 C 242.0144500732422 69.54190063476562 236.5679168701172 75.09078216552734 229.20008850097656 78.1150894165039 C 221.60018920898438 76.86683654785156 216.07382202148438 71.41816711425781 214.03875732421875 62.23858642578125 C 216.06085205078125 54.560585021972656 221.5592498779297 49.05796813964844 229.0580596923828 47.11345672607422 C 236.53712463378906 50.966835021972656 242.0095977783203 56.471595764160156 244.0057830810547 63.39289093017578" stroke-width="0.0" fill="rgb(3, 3, 2)" opacity="0.990004"/>
    <path d="M 260.06964111328125 253.94078063964844 C 257.9903869628906 261.5 252.5 266.9903869628906 245.0 269.0 C 237.5 266.9903869628906 232.00961303710938 261.5 230.0 254.0 C 232.00961303710938 246.5 237.5 241.00961303710938 245.0275115966797 238.9767608642578 C 252.60501098632812 240.91978454589844 258.1300354003906 246.37989807128906 260.06964111328125 253.94078063964844" stroke-width="0.0" fill="rgb(255, 255, 255)" opacity="0.9902318"/>
    <path d="M 213.0079803466797 192.13162231445312 C 211.01051330566406 199.52383422851562 205.52297973632812 205.00857543945312 198.03271484375 207.01791381835938 C 191.5 205.99038696289062 186.00961303710938 200.5 184.0 193.0 C 186.00961303710938 185.5 191.5 180.00961303710938 199.57765197753906 177.36769104003906 C 206.12869262695312 179.30433654785156 211.04119873046875 186.36932373046875 213.0079803466797 192.13162231445312" stroke-width="0.0" fill="rgb(231, 230, 232)" opacity="0.99000293"/>
    <path d="M 100.22886657714844 138.80538940429688 C 99.90914916992188 146.43600463867188 94.45244598388672 151.9579620361328 85.23433685302734 153.98680114746094 C 77.52661895751953 151.9658660888672 72.02621459960938 146.4768829345703 70.00720977783203 138.87828063964844 C 72.0361328125 129.54908752441406 77.58879089355469 124.17156982421875 85.3849105834961 123.86170959472656 C 92.81895446777344 125.7400131225586 98.25988006591797 131.18104553222656 100.22886657714844 138.80538940429688" stroke-width="0.0" fill="rgb(75, 49, 14)" opacity="1.0"/>
    <path d="M 93.90400695800781 88.16539764404297 C 91.29299926757812 95.98947143554688 84.84564971923828 101.28605651855469 77.6551284790039 104.4979019165039 C 69.58612060546875 102.85755920410156 64.04437255859375 97.44364166259766 62.0191764831543 89.91950225830078 C 64.07544708251953 80.58329772949219 69.58951568603516 75.0914306640625 78.85587310791016 73.04344177246094 C 86.44780731201172 75.05070495605469 91.9288101196289 80.5596923828125 93.90400695800781 88.16539764404297" stroke-width="0.0" fill="rgb(154, 153, 154)" opacity="1.0"/>
    <path d="M 264.76470947265625 232.67945861816406 C 262.2640686035156 239.67019653320312 256.5905456542969 245.03652954101562 250.6667022705078 247.00856018066406 C 243.3970184326172 245.0360870361328 236.1172637939453 240.22140502929688 234.01327514648438 232.1420440673828 C 236.06251525878906 224.56292724609375 241.55853271484375 219.05575561523438 250.8060760498047 218.96214294433594 C 258.1085205078125 219.21054077148438 263.0653991699219 225.19239807128906 264.76470947265625 232.67945861816406" stroke-width="0.0" fill="rgb(18, 18, 17)" opacity="0.9900012"/>
    <path d="M 93.96964263916016 61.1158447265625 C 91.95368194580078 70.46460723876953 86.46797180175781 75.96361541748047 78.90167236328125 77.97161102294922 C 69.79751586914062 75.84211730957031 64.77872467041016 69.94881439208984 62.96804428100586 61.94770050048828 C 64.61669921875 53.89130401611328 69.6781997680664 48.08979797363281 78.94025421142578 46.01140213012695 C 86.47454833984375 48.029361724853516 91.9652328491211 53.52763366699219 93.96964263916016 61.1158447265625" stroke-width="0.0" fill="rgb(0, 0, 0)" opacity="1.0"/>
    <path d="M 245.00897216796875 250.86630249023438 C 243.0768280029297 256.68890380859375 237.90086364746094 262.5963439941406 230.65907287597656 265.163330078125 C 222.6698455810547 263.705322265625 217.05194091796875 258.4141845703125 215.0100860595703 249.52841186523438 C 217.03721618652344 241.53280639648438 222.5314483642578 236.03463745117188 230.1570281982422 234.17333984375 C 239.30694580078125 236.07998657226562 243.04429626464844 243.3231658935547 245.00897216796875 250.86630249023438" stroke-width="0.0" fill="rgb(14, 13, 13)" opacity="0.9900025"/>
    <path d="M 79.84632110595703 0.99764084815979 C 77.9647445678711 8.454947471618652 72.4003677368164 13.791190147399902 65.48118591308594 15.285272598266602 C 58.11477279663086 13.272369384765625 51.177024841308594 8.857662200927734 50.9553337097168 1.8948485851287842 C 52.625091552734375 -6.172840118408203 57.5518798828125 -11.973807334899902 65.00069427490234 -13.999783515930176 C 72.49981689453125 -11.990324974060059 77.98442840576172 -6.498203754425049 79.84632110595703 0.99764084815979" stroke-width="0.0" fill="rgb(252, 252, 252)" opacity="1.0"/>
    <path d="M 198.3097686767578 219.39796447753906 C 196.73538208007812 227.3188934326172 191.37132263183594 232.90322875976562 183.92344665527344 233.05223083496094 C 176.46151733398438 231.0343017578125 170.9910430908203 225.52854919433594 168.99246215820312 218.03904724121094 C 169.42958068847656 210.58621215820312 174.56324768066406 205.06764221191406 182.1502685546875 203.14727783203125 C 190.5 206.00961303710938 195.99038696289062 211.5 198.3097686767578 219.39796447753906" stroke-width="0.0" fill="rgb(3, 3, 2)" opacity="0.99000657"/>
    <path d="M 51.989532470703125 180.935546875 C 49.96721649169922 188.46498107910156 44.45451354980469 193.9424285888672 36.902339935302734 195.94895935058594 C 27.93431282043457 193.59999084472656 23.88726806640625 186.97213745117188 21.988386154174805 179.13307189941406 C 22.055423736572266 171.532958984375 27.525894165039062 166.02931213378906 35.08735656738281 164.01014709472656 C 44.362083435058594 166.06619262695312 49.899356842041016 171.6875457763672 51.989532470703125 180.935546875" stroke-width="0.0" fill="rgb(2, 2, 2)" opacity="0.9900081"/>
    <path d="M 74.7947006225586 51.381771087646484 C 71.9903793334961 59.5 66.5 64.9903793334961 59.000118255615234 66.99996185302734 C 51.51081085205078 64.98709106445312 46.28505325317383 59.398189544677734 44.976497650146484 52.93753433227539 C 46.97137451171875 45.44829177856445 52.44013214111328 39.950897216796875 58.178001403808594 37.977149963378906 C 65.59400177001953 39.95512390136719 72.05032348632812 45.31938171386719 74.7947006225586 51.381771087646484" stroke-width="0.0" fill="rgb(218, 217, 219)" opacity="0.9900094"/>
    <path d="M 202.01052856445312 179.0545654296875 C 200.01385498046875 186.5309600830078 194.5364532470703 192.02923583984375 187.1087188720703 194.10496520996094 C 180.12103271484375 193.17916870117188 174.1566619873047 188.18441772460938 172.09671020507812 180.92791748046875 C 175.9029083251953 173.2821807861328 181.06748962402344 167.31114196777344 188.01284790039062 164.97903442382812 C 195.43228149414062 167.03109741210938 200.27882385253906 172.92442321777344 202.01052856445312 179.0545654296875" stroke-width="0.0" fill="rgb(2, 2, 2)" opacity="0.99000454"/>
    <path d="M 252.43641662597656 84.57217407226562 C 250.41053771972656 91.95997619628906 244.98326110839844 97.50411224365234 237.2743682861328 100.93585968017578 C 230.2528076171875 98.59097290039062 225.10182189941406 92.40444946289062 223.73968505859375 85.77729034423828 C 225.93833923339844 78.44369506835938 231.45387268066406 72.9724349975586 238.92630004882812 69.03884887695312 C 246.19313049316406 71.15380859375 251.19534301757812 77.10028839111328 252.43641662597656 84.57217407226562" stroke-width="0.0" fill="rgb(251, 251, 251)" opacity="0.9900195"/>
    <path d="M 238.4784698486328 87.38485717773438 C 236.121337890625 94.58984375 230.55735778808594 100.02454376220703 224.91775512695312 102.00991821289062 C 217.4763641357422 100.0093002319336 211.9897918701172 94.5240478515625 209.99159240722656 88.220703125 C 211.98959350585938 81.47540283203125 217.4764404296875 75.99183654785156 224.9497528076172 73.9924087524414 C 230.62356567382812 75.95529174804688 236.60635375976562 81.19803619384766 238.4784698486328 87.38485717773438" stroke-width="0.0" fill="rgb(241, 241, 241)" opacity="0.99000174"/>
    <path d="M 188.98487854003906 249.94949340820312 C 186.9625244140625 257.4493103027344 181.41192626953125 262.8483581542969 173.64480590820312 264.2666015625 C 166.3023223876953 261.2648620605469 160.90908813476562 255.6440887451172 158.9727020263672 249.87469482421875 C 160.9668426513672 242.45310974121094 166.45767211914062 236.9775848388672 173.94229125976562 234.97882080078125 C 181.33047485351562 235.2677764892578 186.91366577148438 240.61647033691406 188.98487854003906 249.94949340820312" stroke-width="0.0" fill="rgb(59, 59, 60)" opacity="0.9900031"/>
    <path d="M 258.75347900390625 34.11156463623047 C 256.9903869628906 41.5 251.5 46.990379333496094 243.41551208496094 49.69498062133789 C 235.88607788085938 47.71652603149414 230.24276733398438 42.13176727294922 229.9572296142578 34.94020462036133 C 231.9873046875 27.4769344329834 237.47755432128906 21.989173889160156 244.96530151367188 18.039247512817383 C 252.3308868408203 20.085540771484375 257.2566833496094 25.88926887512207 258.75347900390625 34.11156463623047" stroke-width="0.0" fill="rgb(251, 251, 252)" opacity="0.9900071"/>
    <path d="M 202.96673583984375 202.97250366210938 C 200.9407958984375 210.3939666748047 195.27481079101562 215.6114959716797 186.82054138183594 217.2761688232422 C 178.66102600097656 215.72073364257812 173.05567932128906 210.41246032714844 172.91552734375 202.9553985595703 C 174.83892822265625 195.1371307373047 179.81239318847656 189.16241455078125 186.1277313232422 187.86688232421875 C 193.5380401611328 189.96661376953125 199.01658630371094 195.46743774414062 202.96673583984375 202.97250366210938" stroke-width="0.0" fill="rgb(3, 3, 2)" opacity="0.9900084"/>
    <path d="M 81.00843811035156 59.249855041503906 C 79.0120849609375 66.52850341796875 73.53229522705078 72.02189636230469 66.0771713256836 74.02947998046875 C 60.03644561767578 72.29643249511719 54.22779083251953 67.13398742675781 52.02886199951172 59.978363037109375 C 54.131473541259766 52.728389739990234 59.92409896850586 47.63739776611328 66.10572052001953 45.952659606933594 C 73.5378646850586 47.97209548950195 79.01433563232422 53.467464447021484 81.00843811035156 59.249855041503906" stroke-width="0.0" fill="rgb(231, 231, 232)" opacity="0.9900027"/>
    <path d="M 224.80857849121094 43.529781341552734 C 222.59359741210938 52.04939270019531 217.04925537109375 57.59339141845703 209.5297393798828 59.61802291870117 C 201.45941162109375 56.70325469970703 196.74746704101562 51.127445220947266 194.97439575195312 44.814022064208984 C 196.95208740234375 37.42794418334961 202.42459106445312 31.943801879882812 209.94190979003906 28.09161376953125 C 217.4010467529297 30.074472427368164 222.82794189453125 35.63496398925781 224.80857849121094 43.529781341552734" stroke-width="0.0" fill="rgb(131, 130, 128)" opacity="0.99001783"/>
    <path d="M 146.3778533935547 166.60708618164062 C 145.791259765625 174.2734375 140.26324462890625 179.76431274414062 132.57894897460938 181.69869995117188 C 123.9806137084961 179.4131622314453 118.31109619140625 174.10784912109375 116.12667846679688 165.35057067871094 C 118.18536376953125 157.73870849609375 123.78252410888672 152.295166015625 132.72145080566406 150.51622009277344 C 140.240478515625 152.1854705810547 145.29380798339844 157.88214111328125 146.3778533935547 166.60708618164062" stroke-width="0.0" fill="rgb(205, 205, 206)" opacity="1.0"/>
    <path d="M 70.0202865600586 59.093048095703125 C 68.06721496582031 68.20673370361328 64.43025970458984 73.95232391357422 55.07151794433594 75.98453521728516 C 47.5325813293457 73.96980285644531 42.078086853027344 68.45173645019531 40.098533630371094 59.274513244628906 C 42.06659698486328 51.561031341552734 47.563934326171875 46.07591247558594 55.37505340576172 44.62092590332031 C 62.92665481567383 46.20466232299805 68.09679412841797 53.33403396606445 70.0202865600586 59.093048095703125" stroke-width="0.0" fill="rgb(4, 4, 4)" opacity="0.9900021"/>
  </g>
</svg>
