<?xml version="1.0" ?>
<svg xmlns="http://www.w3.org/2000/svg" version="1.1" width="256" height="256">
  <defs/>
  <g>
    <path d="M 174.0 149.0 C 171.99038696289062 156.5 166.5 161.99038696289062 159.0 164.0 C 151.5 161.99038696289062 146.00961303710938 156.5 144.0 149.0 C 146.00961303710938 141.5 151.5 136.00961303710938 159.0 134.0 C 166.5 136.00961303710938 171.99038696289062 141.5 174.0 149.0" stroke-width="0.0" fill="rgb(242, 242, 243)" opacity="0.9901855"/>
    <path d="M 87.93515014648438 7.092555522918701 C 84.9903793334961 15.5 79.5 20.990381240844727 72.0 23.0 C 64.5 20.990381240844727 59.009620666503906 15.5 57.0 8.0 C 59.009620666503906 0.5 64.5 -4.990381240844727 72.64286041259766 -7.563662528991699 C 80.41242980957031 -5.870645999908447 85.94458770751953 -0.4352179169654846 87.93515014648438 7.092555522918701" stroke-width="0.0" fill="rgb(0, 0, 0)" opacity="1.0"/>
    <path d="M 148.8023223876953 101.77935791015625 C 146.911865234375 109.4410171508789 141.46163940429688 114.96772766113281 132.15773010253906 116.9930191040039 C 124.52601623535156 114.97307586669922 119.08892059326172 109.46076965332031 118.99166107177734 101.94415283203125 C 120.9881362915039 94.46680450439453 126.45269775390625 88.94622039794922 133.78660583496094 86.77887725830078 C 140.49594116210938 88.02398681640625 145.99034118652344 93.50015258789062 148.8023223876953 101.77935791015625" stroke-width="0.0" fill="rgb(2, 2, 2)" opacity="0.9900017"/>
    <path d="M 75.0 0.0 C 72.9903793334961 7.5 67.5 12.990381240844727 60.97235107421875 14.016839981079102 C 53.483890533447266 12.00395679473877 47.99658966064453 6.515896797180176 45.98971939086914 -0.9789099097251892 C 47.009620666503906 -7.5 52.5 -12.990381240844727 60.0 -15.0 C 67.5 -12.990381240844727 72.9903793334961 -7.5 75.0 0.0" stroke-width="0.0" fill="rgb(2, 2, 2)" opacity="0.99000263"/>
    <path d="M 179.8545379638672 62.225608825683594 C 176.99038696289062 70.5 171.5 75.9903793334961 164.0 78.0 C 156.5 75.9903793334961 151.00961303710938 70.5 149.0 63.0 C 151.00961303710938 55.5 156.5 50.009620666503906 164.21458435058594 47.85837173461914 C 172.18997192382812 49.4388313293457 177.85125732421875 54.71476745605469 179.8545379638672 62.225608825683594" stroke-width="0.0" fill="rgb(0, 0, 0)" opacity="1.0"/>
    <path d="M 147.58726501464844 16.033796310424805 C 145.10488891601562 23.539783477783203 139.5064697265625 28.99246597290039 132.00010681152344 31.00003433227539 C 124.5 28.990381240844727 119.0096206665039 23.5 117.9324951171875 16.924518585205078 C 119.98189544677734 9.472929000854492 125.47650909423828 3.991645336151123 132.89801025390625 1.9927432537078857 C 138.57850646972656 3.9729297161102295 144.4705810546875 9.31735610961914 147.58726501464844 16.033796310424805" stroke-width="0.0" fill="rgb(4, 4, 4)" opacity="0.990003"/>
    <path d="M 190.50462341308594 20.526813507080078 C 188.77491760253906 28.302234649658203 183.31832885742188 33.82725524902344 175.65966796875 35.69331741333008 C 167.5 32.990379333496094 162.00961303710938 27.5 160.0 20.0 C 162.00961303710938 12.5 167.5 7.009618759155273 175.0 5.0 C 182.5 7.009618759155273 187.99038696289062 12.5 190.50462341308594 20.526813507080078" stroke-width="0.0" fill="rgb(1, 1, 1)" opacity="0.9965895"/>
    <path d="M 184.41488647460938 24.328447341918945 C 182.11029052734375 31.607881546020508 176.60159301757812 37.087806701660156 169.23973083496094 39.23650360107422 C 162.5 37.990379333496094 157.00961303710938 32.5 155.0 25.0 C 157.00961303710938 17.5 162.5 12.009618759155273 170.0 10.0 C 177.5 12.009618759155273 182.99038696289062 17.5 184.41488647460938 24.328447341918945" stroke-width="0.0" fill="rgb(5, 4, 4)" opacity="0.99036074"/>
    <path d="M 81.0 185.0 C 78.9903793334961 192.5 73.5 197.99038696289062 66.72176361083984 199.3070526123047 C 59.41496658325195 197.09063720703125 53.954200744628906 191.5706787109375 51.921234130859375 184.11338806152344 C 53.009620666503906 177.5 58.5 172.00961303710938 66.0 170.0 C 73.5 172.00961303710938 78.9903793334961 177.5 81.0 185.0" stroke-width="0.0" fill="rgb(252, 252, 252)" opacity="1.0"/>
    <path d="M 218.00730895996094 223.10928344726562 C 216.00611877441406 230.51925659179688 210.5196990966797 236.00714111328125 204.13597106933594 238.00721740722656 C 197.46072387695312 236.01451110839844 191.9263916015625 230.5592041015625 189.66885375976562 223.27003479003906 C 191.00961303710938 216.5 196.5 211.00961303710938 203.43109130859375 209.4630126953125 C 210.58990478515625 211.8701629638672 216.0194854736328 217.44735717773438 218.00730895996094 223.10928344726562" stroke-width="0.0" fill="rgb(3, 3, 3)" opacity="0.9900015"/>
    <path d="M 213.57569885253906 118.32361602783203 C 211.25424194335938 125.89445495605469 206.06658935546875 131.83212280273438 199.06423950195312 134.15625 C 191.5 131.99038696289062 186.00961303710938 126.5 184.0 119.0 C 186.00961303710938 111.5 191.5 106.0096206665039 199.552490234375 103.28746795654297 C 206.9493408203125 105.3674087524414 211.74893188476562 111.33832550048828 213.57569885253906 118.32361602783203" stroke-width="0.0" fill="rgb(255, 255, 255)" opacity="0.9902909"/>
    <path d="M 66.0 107.0 C 63.990379333496094 114.5 58.5 119.9903793334961 51.88237762451172 121.11106872558594 C 44.46039581298828 119.0328598022461 38.986106872558594 113.53256225585938 36.985660552978516 106.0360336303711 C 38.207881927490234 99.5658950805664 43.50402069091797 94.01077270507812 51.000022888183594 92.00000762939453 C 58.5 94.0096206665039 63.990379333496094 99.5 66.0 107.0" stroke-width="0.0" fill="rgb(43, 43, 43)" opacity="0.9900705"/>
    <path d="M 116.0 36.0 C 113.9903793334961 43.5 108.5 48.990379333496094 100.93402099609375 51.032562255859375 C 93.00371551513672 49.30859375 87.18646240234375 44.1866455078125 85.11824798583984 36.77713394165039 C 88.0096206665039 28.5 93.5 23.009618759155273 101.0 21.0 C 108.5 23.009618759155273 113.9903793334961 28.5 116.0 36.0" stroke-width="0.0" fill="rgb(1, 1, 1)" opacity="1.0"/>
    <path d="M 166.04151916503906 126.0576400756836 C 164.01617431640625 133.53004455566406 158.53097534179688 139.0185546875 151.05459594726562 141.0491943359375 C 143.5540008544922 140.91046142578125 138.02987670898438 135.46580505371094 136.0080108642578 127.77288818359375 C 138.0272216796875 118.52096557617188 143.5201416015625 113.025390625 151.0382537841797 111.01140594482422 C 160.29598999023438 113.11112976074219 165.4243621826172 118.88462829589844 166.04151916503906 126.0576400756836" stroke-width="0.0" fill="rgb(84, 84, 84)" opacity="0.9900903"/>
    <path d="M 209.0 198.0 C 206.99038696289062 205.5 201.5 210.99038696289062 193.96966552734375 213.02017211914062 C 186.32701110839844 211.11141967773438 180.69125366210938 205.7349395751953 178.7411346435547 198.18637084960938 C 181.00961303710938 190.5 186.5 185.00961303710938 194.0 183.0 C 201.5 185.00961303710938 206.99038696289062 190.5 209.0 198.0" stroke-width="0.0" fill="rgb(220, 219, 220)" opacity="0.99034685"/>
    <path d="M 101.00001525878906 122.00005340576172 C 98.99178314208984 129.5045928955078 93.54369354248047 135.12266540527344 85.45905303955078 137.8704833984375 C 77.98750305175781 135.6533966064453 72.8162841796875 129.8572540283203 70.23833465576172 121.49388885498047 C 72.75520324707031 114.40357208251953 78.48555755615234 109.00499725341797 85.99977111816406 106.99992370605469 C 93.5 109.0096206665039 98.9903793334961 114.5 101.00001525878906 122.00005340576172" stroke-width="0.0" fill="rgb(255, 255, 255)" opacity="0.9901098"/>
    <path d="M 131.03619384765625 125.1280517578125 C 130.68385314941406 134.17538452148438 125.24689483642578 139.82843017578125 117.75029754638672 141.84202575683594 C 109.5 138.99038696289062 104.0096206665039 133.5 102.0 126.0 C 104.0096206665039 118.5 109.5 113.0096206665039 117.86439514160156 110.09418487548828 C 125.3985595703125 112.08033752441406 130.87257385253906 117.62301635742188 131.03619384765625 125.1280517578125" stroke-width="0.0" fill="rgb(252, 252, 252)" opacity="1.0"/>
    <path d="M 161.0 50.0 C 158.99038696289062 57.5 153.5 62.990379333496094 146.79786682128906 64.23900604248047 C 139.45068359375 62.05392074584961 133.98251342773438 56.53767013549805 131.96371459960938 49.05470275878906 C 133.00961303710938 42.5 138.5 37.009620666503906 146.0 35.0 C 153.5 37.009620666503906 158.99038696289062 42.5 161.0 50.0" stroke-width="0.0" fill="rgb(2, 2, 2)" opacity="0.9900088"/>
    <path d="M 161.24325561523438 215.76858520507812 C 158.99038696289062 223.5 153.5 228.99038696289062 146.0 231.0 C 138.5 228.99038696289062 133.00961303710938 223.5 131.0 216.0 C 133.00961303710938 208.5 138.5 203.00961303710938 146.1348876953125 200.9136505126953 C 153.91139221191406 202.63772583007812 159.44882202148438 208.0633544921875 161.24325561523438 215.76858520507812" stroke-width="0.0" fill="rgb(255, 255, 255)" opacity="0.9917336"/>
    <path d="M 133.0 177.0 C 130.99038696289062 184.5 125.5 189.99038696289062 118.0 192.0 C 110.5 189.99038696289062 105.0096206665039 184.5 103.0 177.0 C 105.0096206665039 169.5 110.5 164.00961303710938 118.0 162.0 C 125.5 164.00961303710938 130.99038696289062 169.5 133.0 177.0" stroke-width="0.0" fill="rgb(255, 255, 255)" opacity="1.0"/>
    <path d="M 137.0 213.0 C 134.99038696289062 220.5 129.5 225.99038696289062 122.93939971923828 227.05136108398438 C 115.47779083251953 225.0130615234375 109.99532318115234 219.51904296875 107.99288177490234 212.04226684570312 C 109.95872497558594 206.375244140625 115.0745849609375 199.53945922851562 121.71763610839844 198.0872344970703 C 129.5 200.00961303710938 134.99038696289062 205.5 137.0 213.0" stroke-width="0.0" fill="rgb(6, 6, 6)" opacity="0.9900024"/>
    <path d="M 76.0 139.0 C 73.9903793334961 146.5 68.5 151.99038696289062 60.999977111816406 154.0 C 53.49795913696289 151.99099731445312 47.94327926635742 146.520751953125 46.96186828613281 139.92813110351562 C 48.96061706542969 132.43170166015625 54.41499328613281 126.91413116455078 61.749107360839844 124.74967956542969 C 68.5 126.0096206665039 73.9903793334961 131.5 76.0 139.0" stroke-width="0.0" fill="rgb(115, 115, 114)" opacity="0.99001914"/>
    <path d="M 82.97991180419922 62.03022766113281 C 79.9903793334961 70.5 74.5 75.9903793334961 67.0 78.0 C 59.5 75.9903793334961 54.009620666503906 70.5 51.97611618041992 62.94281005859375 C 53.65084457397461 54.91453552246094 58.67925262451172 49.08761215209961 67.94744873046875 47.010986328125 C 75.48313903808594 49.024532318115234 80.97649383544922 54.51645278930664 82.97991180419922 62.03022766113281" stroke-width="0.0" fill="rgb(0, 0, 0)" opacity="1.0"/>
    <path d="M 159.0 72.0 C 156.99038696289062 79.5 151.5 84.9903793334961 144.0 87.0 C 136.5 84.9903793334961 131.00961303710938 79.5 128.92221069335938 71.94319152832031 C 130.90609741210938 64.46434783935547 136.53369140625 59.11873245239258 144.06356811523438 57.0919303894043 C 151.5 59.009620666503906 156.99038696289062 64.5 159.0 72.0" stroke-width="0.0" fill="rgb(253, 253, 253)" opacity="0.9902783"/>
    <path d="M 69.7152099609375 151.60986328125 C 67.75914001464844 159.23602294921875 62.21908950805664 164.70603942871094 54.48164367675781 166.32144165039062 C 46.403133392333984 164.06875610351562 41.427669525146484 158.38531494140625 38.56459426879883 150.88278198242188 C 40.46610641479492 142.73606872558594 45.63078689575195 137.08164978027344 53.10141372680664 135.04241943359375 C 61.5010986328125 138.0055389404297 66.9903793334961 143.5 69.7152099609375 151.60986328125" stroke-width="0.0" fill="rgb(252, 252, 252)" opacity="0.9902275"/>
    <path d="M 106.18428039550781 168.17581176757812 C 104.40194702148438 175.9754638671875 99.11896514892578 181.7534637451172 91.85192108154297 182.0244903564453 C 83.77421569824219 180.44851684570312 78.03074645996094 175.4432373046875 75.99944305419922 167.99868774414062 C 78.0096206665039 160.5 83.5 155.00961303710938 91.0 153.0 C 98.5 155.00961303710938 103.9903793334961 160.5 106.18428039550781 168.17581176757812" stroke-width="0.0" fill="rgb(252, 252, 252)" opacity="0.9980394"/>
    <path d="M 208.48123168945312 84.5486831665039 C 206.65713500976562 92.18334197998047 201.20669555664062 97.72962951660156 192.1707000732422 99.9278335571289 C 184.67381286621094 97.8801498413086 179.31591796875 92.25515747070312 177.68704223632812 84.36930847167969 C 180.00961303710938 76.5 185.5 71.0096206665039 193.43678283691406 68.52751159667969 C 201.11351013183594 70.34324645996094 206.26678466796875 75.97422790527344 208.48123168945312 84.5486831665039" stroke-width="0.0" fill="rgb(252, 252, 252)" opacity="0.9913625"/>
    <path d="M 165.0854949951172 62.951595306396484 C 162.99038696289062 70.5 157.5 75.9903793334961 150.8321990966797 77.19696807861328 C 143.4607391357422 75.04165649414062 137.9913787841797 69.5279541015625 135.9920654296875 62.042823791503906 C 137.9159393310547 56.28942108154297 143.0362091064453 50.31668472290039 149.93084716796875 47.98280715942383 C 157.43226623535156 50.13924789428711 163.0530242919922 55.508365631103516 165.0854949951172 62.951595306396484" stroke-width="0.0" fill="rgb(4, 4, 4)" opacity="0.9900046"/>
    <path d="M 202.0 68.0 C 199.99038696289062 75.5 194.5 80.9903793334961 187.0 83.0 C 179.5 80.9903793334961 174.00961303710938 75.5 172.63087463378906 68.60721588134766 C 174.81915283203125 61.29354476928711 180.27879333496094 55.77042007446289 187.49234008789062 53.466426849365234 C 194.5 55.009620666503906 199.99038696289062 60.5 202.0 68.0" stroke-width="0.0" fill="rgb(253, 253, 253)" opacity="0.9933301"/>
    <path d="M 89.48110961914062 173.45547485351562 C 87.68809509277344 181.17904663085938 82.16375732421875 186.6380157470703 74.36680603027344 188.35369873046875 C 66.5 185.99038696289062 61.009620666503906 180.5 58.74822998046875 172.7394256591797 C 60.47808074951172 164.9398193359375 65.90543365478516 159.36965942382812 73.35230255126953 158.87738037109375 C 81.37020874023438 160.3374786376953 86.98494720458984 165.51731872558594 89.48110961914062 173.45547485351562" stroke-width="0.0" fill="rgb(252, 252, 252)" opacity="0.9911672"/>
    <path d="M 105.0 159.0 C 102.9903793334961 166.5 97.5 171.99038696289062 90.0 174.0 C 82.5 171.99038696289062 77.0096206665039 166.5 75.6393814086914 159.35743713378906 C 76.91356658935547 151.0152130126953 81.87738037109375 145.29489135742188 89.38927459716797 143.2402801513672 C 97.5 146.00961303710938 102.9903793334961 151.5 105.0 159.0" stroke-width="0.0" fill="rgb(252, 252, 252)" opacity="1.0"/>
    <path d="M 97.0 103.0 C 94.9903793334961 110.5 89.5 115.9903793334961 82.0 118.0 C 74.5 115.9903793334961 69.0096206665039 110.5 67.0 103.0 C 69.0096206665039 95.5 74.5 90.0096206665039 82.0 88.0 C 89.5 90.0096206665039 94.9903793334961 95.5 97.0 103.0" stroke-width="0.0" fill="rgb(255, 255, 255)" opacity="0.99101543"/>
    <path d="M 105.0 90.0 C 102.9903793334961 97.5 97.5 102.9903793334961 90.0 105.0 C 82.5 102.9903793334961 77.0096206665039 97.5 75.0 90.0 C 77.0096206665039 82.5 82.5 77.0096206665039 90.0 75.0 C 97.5 77.0096206665039 102.9903793334961 82.5 105.0 90.0" stroke-width="0.0" fill="rgb(255, 255, 255)" opacity="1.0"/>
    <path d="M 202.9976348876953 81.00015258789062 C 200.99147033691406 88.50370788574219 195.51312255859375 94.0244140625 187.30152893066406 96.7659912109375 C 179.68072509765625 94.84260559082031 174.27249145507812 89.28453826904297 172.64820861816406 81.42290496826172 C 175.00961303710938 73.5 180.5 68.0096206665039 187.99998474121094 66.00000762939453 C 195.4998779296875 68.00968933105469 200.98989868164062 73.50025177001953 202.9976348876953 81.00015258789062" stroke-width="0.0" fill="rgb(251, 251, 251)" opacity="1.0"/>
    <path d="M 145.38182067871094 34.35404968261719 C 143.1315155029297 41.626792907714844 137.61512756347656 47.093116760253906 130.23472595214844 49.21187973022461 C 123.5 47.990379333496094 118.0096206665039 42.5 116.0 35.0 C 118.0096206665039 27.5 123.5 22.009618759155273 131.0 20.0 C 138.5 22.009618759155273 143.99038696289062 27.5 145.38182067871094 34.35404968261719" stroke-width="0.0" fill="rgb(253, 253, 253)" opacity="0.9911582"/>
    <path d="M 191.6253204345703 19.674585342407227 C 189.86431884765625 27.381227493286133 184.38531494140625 32.878597259521484 176.7298126220703 34.73329162597656 C 168.5 31.990381240844727 163.00961303710938 26.5 161.0 19.0 C 163.00961303710938 11.5 168.5 6.009618759155273 176.0 4.0 C 183.5 6.009618759155273 188.99038696289062 11.5 191.6253204345703 19.674585342407227" stroke-width="0.0" fill="rgb(3, 3, 3)" opacity="1.0"/>
    <path d="M 184.9876708984375 45.831844329833984 C 182.9644775390625 53.46238708496094 177.4496612548828 58.925994873046875 169.8762969970703 59.309295654296875 C 162.3684539794922 57.100921630859375 156.89474487304688 51.63430404663086 154.9647216796875 44.29152297973633 C 156.61883544921875 37.84981918334961 161.6058807373047 32.05110549926758 169.19175720214844 30.037490844726562 C 177.32713317871094 31.328777313232422 182.94454956054688 36.589359283447266 184.9876708984375 45.831844329833984" stroke-width="0.0" fill="rgb(127, 127, 127)" opacity="1.0"/>
    <path d="M 105.97572326660156 69.98021697998047 C 103.94242095947266 77.46074676513672 98.46711730957031 82.96354675292969 90.9924087524414 84.99383544921875 C 83.5 82.9903793334961 78.0096206665039 77.5 75.28595733642578 69.25025939941406 C 77.09529113769531 61.57088851928711 82.5592269897461 56.05738830566406 90.10863494873047 54.08695602416992 C 98.5 57.009620666503906 103.9903793334961 62.5 105.97572326660156 69.98021697998047" stroke-width="0.0" fill="rgb(0, 0, 0)" opacity="1.0"/>
    <path d="M 112.0 162.0 C 109.9903793334961 169.5 104.5 174.99038696289062 97.0 177.0 C 89.5 174.99038696289062 84.0096206665039 169.5 82.0 162.0 C 84.0096206665039 154.5 89.5 149.00961303710938 97.0 147.0 C 104.5 149.00961303710938 109.9903793334961 154.5 112.0 162.0" stroke-width="0.0" fill="rgb(255, 255, 255)" opacity="1.0"/>
    <path d="M 182.0 168.0 C 179.99038696289062 175.5 174.5 180.99038696289062 167.0 183.0 C 159.5 180.99038696289062 154.00961303710938 175.5 152.0 168.0 C 154.00961303710938 160.5 159.5 155.00961303710938 167.0 153.0 C 174.5 155.00961303710938 179.99038696289062 160.5 182.0 168.0" stroke-width="0.0" fill="rgb(239, 239, 239)" opacity="1.0"/>
    <path d="M 199.0000762939453 219.99978637695312 C 196.99038696289062 227.5 191.5 232.99038696289062 184.0 235.0 C 176.5 232.99038696289062 171.00961303710938 227.5 169.2291717529297 220.26544189453125 C 171.57186889648438 213.1087188720703 177.14292907714844 207.68533325195312 184.46966552734375 205.0850067138672 C 191.5372314453125 206.9084930419922 196.99325561523438 212.49176025390625 199.0000762939453 219.99978637695312" stroke-width="0.0" fill="rgb(255, 255, 255)" opacity="0.9905144"/>
    <path d="M 132.0 42.0 C 129.99038696289062 49.5 124.5 54.990379333496094 117.0 57.0 C 109.5 54.990379333496094 104.0096206665039 49.5 102.0 42.0 C 104.0096206665039 34.5 109.5 29.009618759155273 117.0 27.0 C 124.5 29.009618759155273 129.99038696289062 34.5 132.0 42.0" stroke-width="0.0" fill="rgb(2, 2, 2)" opacity="0.9900466"/>
    <path d="M 198.0 145.0 C 195.99038696289062 152.5 190.5 157.99038696289062 183.0 160.0 C 175.5 157.99038696289062 170.00961303710938 152.5 168.0 145.0 C 170.00961303710938 137.5 175.5 132.00961303710938 183.0 130.0 C 190.5 132.00961303710938 195.99038696289062 137.5 198.0 145.0" stroke-width="0.0" fill="rgb(214, 213, 215)" opacity="1.0"/>
    <path d="M 176.0283966064453 101.85932922363281 C 174.40052795410156 108.08464050292969 169.24588012695312 113.849853515625 162.88369750976562 115.07215118408203 C 155.4080352783203 113.0551528930664 149.90921020507812 107.60800170898438 147.8626251220703 100.198974609375 C 149.00961303710938 93.5 154.5 88.0096206665039 161.9993133544922 86.00021362304688 C 169.44712829589844 88.02642822265625 174.3498077392578 93.84900665283203 176.0283966064453 101.85932922363281" stroke-width="0.0" fill="rgb(252, 252, 252)" opacity="1.0"/>
    <path d="M 91.98517608642578 12.0371732711792 C 89.72332000732422 20.99166488647461 83.68492889404297 26.06486701965332 76.00639343261719 28.00229835510254 C 68.5 25.990381240844727 63.009620666503906 20.5 61.0 13.0 C 63.009620666503906 5.5 68.5 0.009618943557143211 76.8604965209961 -2.843902826309204 C 84.46403503417969 -0.9462200999259949 89.97093200683594 4.52760124206543 91.98517608642578 12.0371732711792" stroke-width="0.0" fill="rgb(2, 2, 2)" opacity="0.99005467"/>
    <path d="M 115.02911376953125 131.06539916992188 C 113.0468521118164 138.61297607421875 107.71866607666016 144.34803771972656 101.81482696533203 146.19973754882812 C 94.4593734741211 144.04396057128906 88.99119567871094 138.52857971191406 86.99344635009766 131.12950134277344 C 88.98065948486328 125.4449234008789 94.39993286132812 119.8484878540039 101.51302337646484 117.39871215820312 C 108.5 119.0096206665039 113.9903793334961 124.5 115.02911376953125 131.06539916992188" stroke-width="0.0" fill="rgb(4, 4, 4)" opacity="0.9900031"/>
    <path d="M 136.03726196289062 73.97427368164062 C 133.99038696289062 81.5 128.5 86.9903793334961 121.0 89.0 C 113.5 86.9903793334961 108.0096206665039 81.5 106.0 74.0 C 108.0096206665039 66.5 113.5 61.009620666503906 121.00435638427734 58.99701690673828 C 128.5263671875 60.99143600463867 134.04342651367188 66.46315002441406 136.03726196289062 73.97427368164062" stroke-width="0.0" fill="rgb(255, 255, 255)" opacity="1.0"/>
    <path d="M 124.97694396972656 150.9351806640625 C 122.9903793334961 158.5 117.5 163.99038696289062 110.0 166.0 C 102.5 163.99038696289062 97.0096206665039 158.5 94.99990844726562 150.99972534179688 C 97.00393676757812 143.48223876953125 102.37521362304688 137.6937713623047 110.86636352539062 135.03440856933594 C 118.26410675048828 137.13345336914062 123.38101959228516 142.916015625 124.97694396972656 150.9351806640625" stroke-width="0.0" fill="rgb(82, 81, 81)" opacity="0.9902152"/>
    <path d="M 113.98249053955078 59.9622688293457 C 111.76968383789062 67.11275482177734 105.87840270996094 72.197021484375 98.19300842285156 74.07117462158203 C 92.25044250488281 72.32122802734375 86.8972396850586 66.67481231689453 84.89795684814453 59.1077766418457 C 85.33230590820312 52.06024932861328 91.3206787109375 46.93672180175781 98.99356842041016 44.997867584228516 C 106.5 47.009620666503906 111.9903793334961 52.5 113.98249053955078 59.9622688293457" stroke-width="0.0" fill="rgb(189, 70, 22)" opacity="0.99001163"/>
    <path d="M 131.0 30.0 C 128.99038696289062 37.5 123.5 42.990379333496094 115.87420654296875 45.18830490112305 C 108.34699249267578 43.20893478393555 102.93364715576172 37.60892868041992 100.23934936523438 29.206600189208984 C 102.07465362548828 21.5501651763916 107.53683471679688 16.034643173217773 115.04479217529297 14.025983810424805 C 123.5 17.009618759155273 128.99038696289062 22.5 131.0 30.0" stroke-width="0.0" fill="rgb(3, 4, 3)" opacity="1.0"/>
    <path d="M 218.00588989257812 207.09735107421875 C 216.01409912109375 214.54246520996094 210.57188415527344 220.10267639160156 203.37586975097656 222.502685546875 C 196.5 220.99038696289062 191.00961303710938 215.5 189.0 208.0 C 191.00961303710938 200.5 196.5 195.00961303710938 203.60765075683594 193.27914428710938 C 210.64459228515625 195.77835083007812 216.02955627441406 201.42303466796875 218.00588989257812 207.09735107421875" stroke-width="0.0" fill="rgb(4, 4, 3)" opacity="0.9900046"/>
    <path d="M 82.00680541992188 139.9127655029297 C 80.08714294433594 147.40341186523438 76.45718383789062 152.96304321289062 68.97338104248047 153.03717041015625 C 61.474754333496094 151.0166015625 55.993953704833984 145.52120971679688 53.99285125732422 138.05413818359375 C 55.96318435668945 132.40383911132812 61.24748611450195 125.35195922851562 67.0340576171875 124.97352600097656 C 74.52111053466797 126.9915542602539 80.00775146484375 132.4791259765625 82.00680541992188 139.9127655029297" stroke-width="0.0" fill="rgb(2, 2, 2)" opacity="0.9900017"/>
    <path d="M 203.8214874267578 221.40440368652344 C 202.8211212158203 229.3992462158203 197.4313507080078 234.9437255859375 189.91062927246094 236.94361877441406 C 181.49424743652344 234.0096893310547 176.0094757080078 228.50048828125 174.0177459716797 221.02015686035156 C 176.0742950439453 213.5731201171875 181.58135986328125 208.10154724121094 189.03656005859375 206.04165649414062 C 196.5 208.00961303710938 201.99038696289062 213.5 203.8214874267578 221.40440368652344" stroke-width="0.0" fill="rgb(251, 251, 252)" opacity="1.0"/>
    <path d="M 142.97747802734375 154.04713439941406 C 140.99038696289062 161.5 135.5 166.99038696289062 128.0 169.0 C 120.5 166.99038696289062 115.0096206665039 161.5 112.69114685058594 153.62037658691406 C 114.28946685791016 145.7063446044922 119.64024353027344 140.09722900390625 127.09410858154297 139.3843536376953 C 134.85504150390625 141.8105926513672 140.73263549804688 146.93270874023438 142.97747802734375 154.04713439941406" stroke-width="0.0" fill="rgb(218, 218, 218)" opacity="1.0"/>
    <path d="M 124.79554748535156 152.92494201660156 C 122.82494354248047 160.10098266601562 116.53646850585938 164.808349609375 108.9131088256836 166.9319610595703 C 101.5 164.99038696289062 96.0096206665039 159.5 94.0 152.0 C 96.0096206665039 144.5 101.5 139.00961303710938 108.09307098388672 137.9453582763672 C 115.56813049316406 139.95765686035156 121.07243347167969 145.42083740234375 124.79554748535156 152.92494201660156" stroke-width="0.0" fill="rgb(18, 18, 17)" opacity="0.99002004"/>
    <path d="M 189.0 172.0 C 186.99038696289062 179.5 181.5 184.99038696289062 174.0 187.0 C 166.5 184.99038696289062 161.00961303710938 179.5 159.0 172.0 C 161.00961303710938 164.5 166.5 159.00961303710938 174.0 157.0 C 181.5 159.00961303710938 186.99038696289062 164.5 189.0 172.0" stroke-width="0.0" fill="rgb(255, 255, 255)" opacity="0.9997845"/>
    <path d="M 90.00060272216797 79.99935150146484 C 87.9903793334961 87.5 82.5 92.9903793334961 74.0883560180664 95.91917419433594 C 66.5304946899414 93.9583511352539 61.03125762939453 88.47313690185547 59.03472137451172 80.93911743164062 C 61.364295959472656 72.10293579101562 67.3419418334961 66.89325714111328 74.81884002685547 64.5813980102539 C 82.50244140625 67.00690460205078 87.99244689941406 72.49774932861328 90.00060272216797 79.99935150146484" stroke-width="0.0" fill="rgb(3, 3, 3)" opacity="0.9900664"/>
    <path d="M 180.58465576171875 30.170848846435547 C 179.6962890625 38.34069061279297 174.39453125 43.920082092285156 166.90228271484375 44.15192794799805 C 157.6949005126953 43.76642990112305 152.2364501953125 38.3018913269043 150.552734375 30.492958068847656 C 153.00961303710938 22.5 158.5 17.009618759155273 165.99996948242188 15.000008583068848 C 173.49879455566406 17.01001739501953 178.9658966064453 22.50791358947754 180.58465576171875 30.170848846435547" stroke-width="0.0" fill="rgb(25, 25, 24)" opacity="0.9900416"/>
    <path d="M 89.49417114257812 225.49867248535156 C 86.85102081298828 232.02490234375 80.88116455078125 237.26527404785156 73.4030990600586 239.9898681640625 C 67.13784790039062 237.42074584960938 61.735408782958984 231.81881713867188 59.727210998535156 224.4977264404297 C 61.54115676879883 218.0585479736328 67.037841796875 212.42532348632812 73.82073211669922 209.1049346923828 C 81.92764282226562 211.5396270751953 87.3110580444336 217.1069793701172 89.49417114257812 225.49867248535156" stroke-width="0.0" fill="rgb(252, 252, 252)" opacity="0.9901478"/>
    <path d="M 131.99867248535156 76.99669647216797 C 129.96157836914062 84.43138885498047 124.33602142333984 89.67606353759766 116.63682556152344 92.70327758789062 C 109.54149627685547 90.2230453491211 104.71351623535156 84.06099700927734 102.98738861083984 77.94436645507812 C 104.97686767578125 70.43930053710938 110.3930892944336 64.84001922607422 117.50090789794922 62.38878631591797 C 124.5 64.0096206665039 129.99038696289062 69.5 131.99867248535156 76.99669647216797" stroke-width="0.0" fill="rgb(251, 251, 252)" opacity="0.99004465"/>
    <path d="M 143.39915466308594 196.45159912109375 C 141.99038696289062 203.5 136.5 208.99038696289062 128.06016540527344 211.95150756835938 C 120.52654266357422 209.9661407470703 115.03424835205078 204.4733123779297 113.04740142822266 196.93955993652344 C 116.0096206665039 188.5 121.5 183.00961303710938 129.0655517578125 180.89598083496094 C 136.29843139648438 182.97882080078125 141.41757202148438 188.89697265625 143.39915466308594 196.45159912109375" stroke-width="0.0" fill="rgb(255, 255, 255)" opacity="1.0"/>
    <path d="M 215.0 176.0 C 212.99038696289062 183.5 207.5 188.99038696289062 200.0 191.0 C 192.5 188.99038696289062 187.00961303710938 183.5 185.00172424316406 176.0 C 187.0021209716797 168.4775390625 192.38356018066406 162.72238159179688 199.58428955078125 160.28219604492188 C 207.5040740966797 162.99609375 212.99050903320312 168.49960327148438 215.0 176.0" stroke-width="0.0" fill="rgb(254, 254, 254)" opacity="0.9928711"/>
    <path d="M 154.91375732421875 219.89186096191406 C 152.67044067382812 227.1082000732422 147.01341247558594 232.3882598876953 139.4144744873047 235.7106170654297 C 132.12493896484375 233.55870056152344 126.9049072265625 227.70376586914062 124.99240112304688 220.01641845703125 C 127.0096206665039 212.5 132.5 207.00961303710938 140.0 205.0 C 147.5 207.00961303710938 152.99038696289062 212.5 154.91375732421875 219.89186096191406" stroke-width="0.0" fill="rgb(255, 255, 255)" opacity="0.9903962"/>
    <path d="M 113.52910614013672 30.38190269470215 C 110.9841079711914 38.49504852294922 105.49605560302734 43.98745346069336 97.3935317993164 46.521148681640625 C 89.59902954101562 44.85455322265625 84.0679931640625 39.42350769042969 83.28109741210938 31.80354118347168 C 84.39741516113281 22.722061157226562 89.59786224365234 17.053646087646484 98.42623138427734 15.009783744812012 C 106.4488525390625 17.03923225402832 111.86719512939453 22.58265495300293 113.52910614013672 30.38190269470215" stroke-width="0.0" fill="rgb(3, 3, 3)" opacity="0.99005306"/>
    <path d="M 188.997314453125 15.924055099487305 C 186.8115997314453 23.195341110229492 180.9862518310547 28.285188674926758 173.8599395751953 30.069761276245117 C 167.1256866455078 28.261850357055664 161.46885681152344 22.96695327758789 159.14346313476562 15.81875228881836 C 160.9850311279297 8.428624153137207 166.1773681640625 2.412814140319824 174.86244201660156 0.024371981620788574 C 182.2823028564453 2.1070454120635986 187.29319763183594 7.974045276641846 188.997314453125 15.924055099487305" stroke-width="0.0" fill="rgb(2, 2, 2)" opacity="0.9901455"/>
    <path d="M 209.8789520263672 134.62648010253906 C 207.54330444335938 141.81748962402344 201.64588928222656 147.12603759765625 194.04640197753906 149.038818359375 C 186.5 146.99038696289062 181.00961303710938 141.5 179.0 134.0 C 181.00961303710938 126.5 186.5 121.0096206665039 194.01646423339844 118.991943359375 C 201.67538452148438 120.9147720336914 207.44168090820312 126.2032241821289 209.8789520263672 134.62648010253906" stroke-width="0.0" fill="rgb(255, 255, 255)" opacity="0.9902662"/>
    <path d="M 217.39312744140625 175.92860412597656 C 216.17855834960938 183.7457275390625 210.7025604248047 189.0087890625 202.92379760742188 190.80763244628906 C 195.51490783691406 188.97357177734375 190.0213623046875 183.4866180419922 188.00701904296875 175.99844360351562 C 190.0108184814453 168.49966430664062 195.49755859375 163.00341796875 203.6492919921875 160.1881103515625 C 211.09188842773438 162.30563354492188 216.17938232421875 168.0484161376953 217.39312744140625 175.92860412597656" stroke-width="0.0" fill="rgb(252, 252, 252)" opacity="0.990187"/>
    <path d="M 184.19065856933594 70.7481689453125 C 181.99038696289062 78.5 176.5 83.9903793334961 168.99795532226562 86.00076293945312 C 161.44406127929688 84.01197814941406 155.64520263671875 78.67599487304688 153.3638916015625 71.41424560546875 C 155.8421630859375 63.13218688964844 160.9202423095703 57.26142120361328 169.82107543945312 55.0455207824707 C 177.3123779296875 57.11802673339844 182.59104919433594 62.794471740722656 184.19065856933594 70.7481689453125" stroke-width="0.0" fill="rgb(3, 3, 3)" opacity="1.0"/>
    <path d="M 74.00695037841797 62.15363311767578 C 72.00804901123047 69.52301025390625 66.52485656738281 75.0123519897461 59.041831970214844 77.01785278320312 C 52.607093811035156 75.7017593383789 47.01279067993164 70.48945617675781 45.000030517578125 62.99989700317383 C 47.009620666503906 55.5 52.50001907348633 50.00968933105469 59.09622573852539 48.82007598876953 C 66.52941131591797 50.980350494384766 72.01103210449219 56.47367477416992 74.00695037841797 62.15363311767578" stroke-width="0.0" fill="rgb(226, 226, 226)" opacity="0.9900083"/>
    <path d="M 153.2136993408203 207.677978515625 C 151.99273681640625 214.50355529785156 146.50534057617188 219.998779296875 139.00433349609375 222.0069122314453 C 131.5 219.99038696289062 126.0096206665039 214.5 124.0 207.0 C 126.0096206665039 199.5 131.5 194.00961303710938 138.5595703125 192.52462768554688 C 145.822265625 194.6774444580078 151.19569396972656 200.22576904296875 153.2136993408203 207.677978515625" stroke-width="0.0" fill="rgb(252, 252, 252)" opacity="1.0"/>
    <path d="M 177.05145263671875 226.0854034423828 C 175.314453125 233.95718383789062 170.09823608398438 239.7195281982422 161.95423889160156 241.87030029296875 C 153.85858154296875 239.7115020751953 148.44345092773438 234.08526611328125 146.58790588378906 226.33375549316406 C 149.0093994140625 218.49989318847656 154.4999542236328 213.00958251953125 162.0 211.0 C 169.5 213.00961303710938 174.99038696289062 218.5 177.05145263671875 226.0854034423828" stroke-width="0.0" fill="rgb(255, 255, 255)" opacity="0.9903564"/>
    <path d="M 141.56414794921875 21.4068660736084 C 138.99038696289062 29.5 133.5 34.990379333496094 126.11693572998047 36.8929557800293 C 118.84490966796875 34.68159484863281 113.4813003540039 29.103525161743164 111.69479370117188 22.639585494995117 C 113.91471099853516 15.426227569580078 119.43633270263672 9.952597618103027 126.91690826416016 6.061732292175293 C 134.38345336914062 8.093099594116211 139.82196044921875 13.646435737609863 141.56414794921875 21.4068660736084" stroke-width="0.0" fill="rgb(31, 31, 31)" opacity="0.9900702"/>
    <path d="M 206.32061767578125 115.67364501953125 C 204.99038696289062 122.5 199.5 127.9903793334961 192.0 130.0 C 184.5 127.9903793334961 179.00961303710938 122.5 176.21127319335938 114.20573425292969 C 178.0828094482422 106.56294250488281 183.549072265625 101.04395294189453 191.03665161132812 99.05784606933594 C 198.59368896484375 102.94427490234375 204.12379455566406 108.38121795654297 206.32061767578125 115.67364501953125" stroke-width="0.0" fill="rgb(150, 150, 150)" opacity="1.0"/>
    <path d="M 102.69776153564453 203.5447540283203 C 100.74309539794922 211.2163848876953 95.17904663085938 216.6068115234375 86.61483764648438 218.8248291015625 C 79.34639739990234 216.31967163085938 73.90569305419922 210.57308959960938 71.83937072753906 203.07911682128906 C 74.00646209716797 195.48971557617188 79.4102783203125 189.7631072998047 86.92041015625 187.13755798339844 C 95.2106704711914 189.28114318847656 100.70457458496094 194.79257202148438 102.69776153564453 203.5447540283203" stroke-width="0.0" fill="rgb(255, 255, 255)" opacity="0.9902175"/>
    <path d="M 81.49987030029297 26.499441146850586 C 79.74362182617188 34.26251983642578 74.2952880859375 39.83559799194336 66.79835510253906 41.899288177490234 C 58.5 38.990379333496094 53.009620666503906 33.5 51.15256881713867 26.265893936157227 C 53.64992904663086 19.24445152282715 59.31271743774414 13.87609577178955 65.4548110961914 10.222345352172852 C 73.44998931884766 13.163220405578613 78.98926544189453 18.5037899017334 81.49987030029297 26.499441146850586" stroke-width="0.0" fill="rgb(250, 250, 251)" opacity="0.9900348"/>
    <path d="M 216.00796508789062 198.96142578125 C 214.0928192138672 204.7362060546875 209.03921508789062 210.78366088867188 202.3240203857422 212.8363800048828 C 195.3356170654297 210.26327514648438 189.9618682861328 204.5901641845703 187.96522521972656 197.06214904785156 C 188.1719207763672 189.61160278320312 193.57667541503906 184.05982971191406 201.0206298828125 183.99046325683594 C 208.5179901123047 185.9948272705078 214.00546264648438 191.4818878173828 216.00796508789062 198.96142578125" stroke-width="0.0" fill="rgb(4, 4, 4)" opacity="0.9900021"/>
    <path d="M 162.39796447753906 85.66656494140625 C 160.99038696289062 92.5 155.5 97.9903793334961 147.84129333496094 100.0842056274414 C 139.77088928222656 98.54784393310547 134.07321166992188 93.36726379394531 132.03004455566406 85.92657470703125 C 134.2392578125 76.65260314941406 139.60633850097656 71.08198547363281 147.0862274169922 70.97852325439453 C 154.56346130371094 72.9640884399414 160.10299682617188 78.41566467285156 162.39796447753906 85.66656494140625" stroke-width="0.0" fill="rgb(250, 250, 250)" opacity="0.99001175"/>
    <path d="M 159.0792694091797 150.8845672607422 C 157.5379638671875 156.87322998046875 151.70797729492188 162.09835815429688 144.11070251464844 164.04742431640625 C 137.6945037841797 162.90921020507812 132.75376892089844 156.9940185546875 130.95162963867188 149.07022094726562 C 131.0425567626953 141.52935791015625 136.5244598388672 136.02825927734375 144.0344696044922 134.0283966064453 C 151.58966064453125 137.90919494628906 157.04644775390625 143.42591857910156 159.0792694091797 150.8845672607422" stroke-width="0.0" fill="rgb(67, 67, 68)" opacity="0.9900035"/>
    <path d="M 203.00741577148438 152.74884033203125 C 201.015380859375 158.54188537597656 195.5648956298828 164.0824432373047 188.29318237304688 166.3539581298828 C 181.5 164.99038696289062 176.00961303710938 159.5 174.0 152.0 C 176.00961303710938 144.5 181.5 139.00961303710938 188.14590454101562 137.8430633544922 C 195.54006958007812 139.9617156982422 201.01171875 145.46923828125 203.00741577148438 152.74884033203125" stroke-width="0.0" fill="rgb(15, 16, 15)" opacity="0.99000436"/>
    <path d="M 108.0 96.0 C 105.9903793334961 103.5 100.5 108.9903793334961 92.84722137451172 111.12506103515625 C 85.04419708251953 109.38937377929688 79.44498443603516 104.00688171386719 77.5989990234375 96.34664916992188 C 80.0096206665039 88.5 85.5 83.0096206665039 93.0 81.0 C 100.5 83.0096206665039 105.9903793334961 88.5 108.0 96.0" stroke-width="0.0" fill="rgb(255, 255, 255)" opacity="1.0"/>
    <path d="M 175.05665588378906 8.166142463684082 C 173.0497283935547 15.568138122558594 167.56497192382812 21.04203987121582 160.06314086914062 24.379859924316406 C 152.89353942871094 22.791563034057617 147.85540771484375 16.815767288208008 145.9921417236328 9.019267082214355 C 148.00961303710938 1.5 153.5 -3.9903810024261475 161.42787170410156 -6.414541721343994 C 169.15208435058594 -4.67602014541626 173.42579650878906 1.03256356716156 175.05665588378906 8.166142463684082" stroke-width="0.0" fill="rgb(130, 129, 129)" opacity="0.990022"/>
    <path d="M 138.8524169921875 77.86734771728516 C 136.9485626220703 85.4659423828125 131.47402954101562 90.9722671508789 123.96897888183594 92.9825439453125 C 115.62776947021484 89.72521209716797 110.030029296875 84.4521484375 108.02604675292969 77.00465393066406 C 110.01470947265625 69.50166320800781 115.50027465820312 64.00967407226562 123.00053405761719 61.999610900878906 C 130.5034637451172 64.00730895996094 135.99977111816406 69.49447631835938 138.8524169921875 77.86734771728516" stroke-width="0.0" fill="rgb(252, 252, 252)" opacity="1.0"/>
    <path d="M 187.82821655273438 75.86735534667969 C 185.94979858398438 83.46578216552734 180.47181701660156 88.96857452392578 172.9513397216797 90.96731567382812 C 163.62042236328125 88.78011322021484 158.0406494140625 83.43834686279297 156.01832580566406 75.96041107177734 C 159.00955200195312 67.49998474121094 164.5 62.009620666503906 172.0 60.0 C 179.5 62.009620666503906 184.99038696289062 67.5 187.82821655273438 75.86735534667969" stroke-width="0.0" fill="rgb(3, 3, 3)" opacity="1.0"/>
    <path d="M 82.0066909790039 106.1229248046875 C 80.0070571899414 113.52010345458984 74.51937866210938 119.00545501708984 67.02476501464844 121.0121078491211 C 60.50033187866211 119.98915100097656 55.009620666503906 114.5 52.952354431152344 106.89922332763672 C 54.54722595214844 98.83447265625 59.65068435668945 93.07737731933594 67.05953979492188 91.0218734741211 C 74.73612976074219 94.4649887084961 80.03697967529297 100.39815521240234 82.0066909790039 106.1229248046875" stroke-width="0.0" fill="rgb(5, 5, 5)" opacity="0.9900023"/>
    <path d="M 144.01837158203125 220.09835815429688 C 142.0266571044922 227.5447235107422 136.54449462890625 233.02626037597656 129.50465393066406 235.0159912109375 C 123.44355010986328 233.03175354003906 117.90045928955078 227.5744171142578 114.01704406738281 220.06944274902344 C 116.05135345458984 212.57286071777344 121.6493911743164 208.5871124267578 129.1525421142578 206.97935485839844 C 136.67556762695312 208.93470764160156 142.24363708496094 214.14981079101562 144.01837158203125 220.09835815429688" stroke-width="0.0" fill="rgb(97, 97, 97)" opacity="0.9900032"/>
    <path d="M 199.98495483398438 159.03468322753906 C 197.65354919433594 168.1265869140625 192.12161254882812 173.6337432861328 184.41204833984375 175.36053466796875 C 176.52627563476562 172.93890380859375 171.01712036132812 167.48663330078125 169.00086975097656 159.99855041503906 C 171.00961303710938 152.5 176.5 147.00961303710938 184.6952362060547 144.38433837890625 C 192.43858337402344 146.10110473632812 197.96771240234375 151.53854370117188 199.98495483398438 159.03468322753906" stroke-width="0.0" fill="rgb(241, 240, 241)" opacity="0.990009"/>
    <path d="M 133.00592041015625 63.09368896484375 C 131.00575256347656 70.51876831054688 125.5184326171875 76.00501251220703 118.05057525634766 78.00696563720703 C 112.34972381591797 76.05030822753906 105.43116760253906 71.06352996826172 103.27582550048828 63.26363754272461 C 105.34711456298828 56.07136535644531 111.31684875488281 50.92814636230469 118.24686431884766 49.698970794677734 C 125.5549545288086 51.93353271484375 131.01309204101562 57.46322250366211 133.00592041015625 63.09368896484375" stroke-width="0.0" fill="rgb(2, 2, 2)" opacity="0.99000126"/>
    <path d="M 178.2478790283203 94.96525573730469 C 177.94354248046875 102.40550994873047 172.31292724609375 107.67073822021484 164.2543487548828 109.14720153808594 C 156.5 106.99038696289062 151.00961303710938 101.5 149.09568786621094 94.18524169921875 C 151.62646484375 87.28060913085938 157.40145874023438 81.96471405029297 164.91676330566406 79.985107421875 C 170.5276641845703 81.98310852050781 176.01731872558594 87.47216033935547 178.2478790283203 94.96525573730469" stroke-width="0.0" fill="rgb(252, 252, 252)" opacity="0.9900085"/>
    <path d="M 115.40990447998047 94.37857818603516 C 112.39141082763672 102.0247802734375 107.13282012939453 107.71598052978516 99.92890167236328 109.97561645507812 C 92.5 107.9903793334961 87.0096206665039 102.5 85.0 95.0 C 87.0096206665039 87.5 92.5 82.0096206665039 99.58539581298828 80.61559295654297 C 107.29199981689453 82.46122741699219 113.31195831298828 87.4002914428711 115.40990447998047 94.37857818603516" stroke-width="0.0" fill="rgb(255, 255, 255)" opacity="0.99063855"/>
    <path d="M 186.4563751220703 118.54273986816406 C 184.99038696289062 125.5 179.5 130.99038696289062 171.17173767089844 133.8476104736328 C 163.56991577148438 131.92115783691406 158.0623321533203 126.4359130859375 157.92359924316406 118.92256164550781 C 159.7473907470703 110.99726867675781 164.68580627441406 105.08075714111328 171.2082977294922 103.87336730957031 C 178.66909790039062 105.88256072998047 184.20413208007812 111.29996490478516 186.4563751220703 118.54273986816406" stroke-width="0.0" fill="rgb(250, 250, 250)" opacity="0.99006736"/>
    <path d="M 189.0 143.0 C 186.99038696289062 150.5 181.5 155.99038696289062 174.00318908691406 157.99891662597656 C 166.63282775878906 155.94190979003906 161.7482147216797 150.0220489501953 159.99195861816406 143.97584533691406 C 161.9969024658203 136.48324584960938 167.4806671142578 130.99014282226562 174.95184326171875 128.9647674560547 C 181.5 130.00961303710938 186.99038696289062 135.5 189.0 143.0" stroke-width="0.0" fill="rgb(3, 3, 3)" opacity="0.99000525"/>
    <path d="M 181.34744262695312 194.3809356689453 C 179.67462158203125 202.22787475585938 174.2707061767578 207.80783081054688 166.68260192871094 209.7238006591797 C 158.3238983154297 206.93038940429688 152.77227783203125 201.7504119873047 151.42813110351562 193.88119506835938 C 153.00961303710938 186.5 158.5 181.00961303710938 166.0 179.0 C 173.5 181.00961303710938 178.99038696289062 186.5 181.34744262695312 194.3809356689453" stroke-width="0.0" fill="rgb(255, 255, 255)" opacity="0.9906833"/>
    <path d="M 172.97030639648438 7.380160331726074 C 170.8983917236328 16.182106018066406 163.64016723632812 20.04159164428711 156.06216430664062 22.02815818786621 C 149.31866455078125 21.13606071472168 143.80096435546875 15.698822021484375 141.01773071289062 7.036595821380615 C 143.0352020263672 -0.45594316720962524 148.57107543945312 -5.8838019371032715 156.4334259033203 -7.627620220184326 C 165.30946350097656 -5.717612266540527 170.9162139892578 -0.37664610147476196 172.97030639648438 7.380160331726074" stroke-width="0.0" fill="rgb(6, 6, 6)" opacity="0.9900058"/>
    <path d="M 164.9708251953125 91.0374526977539 C 162.99038696289062 98.5 157.5 103.9903793334961 150.90924072265625 105.07233428955078 C 143.4553985595703 103.02883911132812 137.92922973632812 97.5538558959961 134.03558349609375 91.84260559082031 C 137.00718688964844 83.4984359741211 142.5035858154297 78.0256118774414 149.80941772460938 76.40145111083984 C 157.26185607910156 78.33726501464844 162.8572540283203 83.67672729492188 164.9708251953125 91.0374526977539" stroke-width="0.0" fill="rgb(252, 252, 252)" opacity="0.99000955"/>
    <path d="M 72.03987121582031 62.87772750854492 C 70.07891845703125 69.6086654663086 64.60459899902344 75.069580078125 57.10905075073242 77.02352905273438 C 50.80585479736328 75.40773010253906 44.684326171875 70.58381652832031 42.26527786254883 62.605552673339844 C 44.81272888183594 55.12831497192383 49.97482681274414 49.34627151489258 57.160457611083984 48.811073303222656 C 64.60737609863281 50.91348648071289 70.07366180419922 56.39767837524414 72.03987121582031 62.87772750854492" stroke-width="0.0" fill="rgb(248, 248, 248)" opacity="0.99001515"/>
    <path d="M 180.1320037841797 164.0354461669922 C 178.04647827148438 171.52903747558594 172.5150146484375 176.99884033203125 164.96835327148438 179.02203369140625 C 157.31793212890625 177.1212615966797 151.77171325683594 171.7155303955078 149.0233612060547 163.05332946777344 C 151.05487060546875 155.5910186767578 156.67872619628906 150.31085205078125 164.71978759765625 148.82968139648438 C 172.5004119873047 151.0094757080078 177.9966278076172 156.49789428710938 180.1320037841797 164.0354461669922" stroke-width="0.0" fill="rgb(252, 252, 252)" opacity="1.0"/>
    <path d="M 160.1634063720703 32.81251907348633 C 159.84414672851562 40.34505081176758 154.3372344970703 45.81879425048828 145.98428344726562 47.803470611572266 C 137.84414672851562 45.7430534362793 132.57347106933594 40.05224609375 131.8206787109375 32.76544189453125 C 133.87890625 25.3348331451416 139.3052520751953 19.788991928100586 146.58970642089844 16.508878707885742 C 152.8836212158203 19.485435485839844 158.18580627441406 25.21769905090332 160.1634063720703 32.81251907348633" stroke-width="0.0" fill="rgb(3, 2, 2)" opacity="0.9900229"/>
    <path d="M 73.02310943603516 176.90419006347656 C 71.36796569824219 183.14968872070312 66.41361236572266 188.95944213867188 58.081729888916016 191.96678161621094 C 52.1909065246582 189.88131713867188 46.95063018798828 182.5980224609375 44.97572708129883 176.23892211914062 C 46.96028518676758 169.44105529785156 52.44192886352539 163.96241760253906 59.9536018371582 160.5087890625 C 65.60790252685547 163.60409545898438 71.03876495361328 169.43081665039062 73.02310943603516 176.90419006347656" stroke-width="0.0" fill="rgb(112, 112, 113)" opacity="0.9900031"/>
    <path d="M 91.05071258544922 20.886245727539062 C 89.5162582397461 26.978450775146484 84.86731719970703 33.831783294677734 76.06962585449219 35.98749923706055 C 68.5557861328125 33.95897674560547 63.10427474975586 28.41482162475586 61.04255676269531 20.638669967651367 C 63.201759338378906 12.3595552444458 70.07398223876953 7.574717044830322 77.37483215332031 4.953684329986572 C 84.06851196289062 6.821704864501953 89.09140014648438 13.27109432220459 91.05071258544922 20.886245727539062" stroke-width="0.0" fill="rgb(8, 8, 8)" opacity="0.9900028"/>
    <path d="M 74.44059753417969 106.71357727050781 C 72.65399932861328 114.29869842529297 67.38816833496094 119.92593383789062 59.98725128173828 121.9925765991211 C 52.5 119.9903793334961 47.009620666503906 114.5 44.98761749267578 106.9695816040039 C 46.78160858154297 99.07073974609375 51.78262710571289 93.1401138305664 59.248626708984375 91.0229263305664 C 68.16284942626953 93.17156219482422 73.1445541381836 99.13897705078125 74.44059753417969 106.71357727050781" stroke-width="0.0" fill="rgb(3, 3, 3)" opacity="1.0"/>
    <path d="M 124.23802947998047 121.42315673828125 C 122.77017974853516 129.36898803710938 117.43343353271484 134.9573974609375 109.96839141845703 136.9829864501953 C 102.18804168701172 133.16278076171875 96.31305694580078 128.01248168945312 94.02787017822266 120.94092559814453 C 96.00428009033203 113.48412322998047 101.4202880859375 107.80264282226562 108.8821792602539 105.29094696044922 C 116.3132553100586 107.93172454833984 121.75255584716797 113.75292205810547 124.23802947998047 121.42315673828125" stroke-width="0.0" fill="rgb(252, 252, 252)" opacity="1.0"/>
    <path d="M 209.40921020507812 117.55078887939453 C 206.98703002929688 125.49691009521484 201.494140625 130.9769744873047 193.95968627929688 132.877197265625 C 186.5 130.99038696289062 181.00961303710938 125.5 179.59986877441406 118.65540313720703 C 181.8883819580078 111.40641021728516 187.43017578125 105.96111297607422 194.93997192382812 103.91130828857422 C 202.33938598632812 104.1213607788086 207.73634338378906 109.70982360839844 209.40921020507812 117.55078887939453" stroke-width="0.0" fill="rgb(250, 250, 250)" opacity="0.99014217"/>
    <path d="M 135.0 184.0 C 132.99038696289062 191.5 127.5 196.99038696289062 120.0 199.0 C 112.5 196.99038696289062 107.0096206665039 191.5 105.0 184.0 C 107.0096206665039 176.5 112.5 171.00961303710938 120.0 169.0 C 127.5 171.00961303710938 132.99038696289062 176.5 135.0 184.0" stroke-width="0.0" fill="rgb(255, 255, 255)" opacity="1.0"/>
    <path d="M 118.95182800292969 148.04273986816406 C 115.15058135986328 155.82131958007812 110.08329772949219 161.76295471191406 102.97029876708984 163.9841766357422 C 95.58155059814453 161.95571899414062 90.45162200927734 156.26889038085938 87.87604522705078 148.1182403564453 C 89.05594635009766 140.54432678222656 94.54386901855469 135.05477905273438 102.60861206054688 134.66543579101562 C 111.45172882080078 135.06219482421875 116.9569091796875 140.54202270507812 118.95182800292969 148.04273986816406" stroke-width="0.0" fill="rgb(179, 179, 179)" opacity="0.9900042"/>
    <path d="M 206.2964324951172 218.44833374023438 C 205.63323974609375 226.26708984375 200.29949951171875 231.78277587890625 192.5639190673828 232.02334594726562 C 184.8924560546875 230.32281494140625 179.04295349121094 225.4056396484375 177.90557861328125 218.8960418701172 C 179.97103881835938 211.46255493164062 185.4668426513672 205.98313903808594 192.94366455078125 203.95611572265625 C 198.92733764648438 205.5693359375 204.35891723632812 211.09378051757812 206.2964324951172 218.44833374023438" stroke-width="0.0" fill="rgb(46, 45, 46)" opacity="0.9900051"/>
    <path d="M 181.5491943359375 155.709716796875 C 179.73524475097656 163.88067626953125 175.2065887451172 169.84552001953125 167.86441040039062 171.9296112060547 C 160.0056915283203 168.42103576660156 153.67922973632812 163.15771484375 151.0203857421875 155.05624389648438 C 153.03746032714844 147.53404235839844 158.53343200683594 142.0361328125 166.03872680664062 140.23252868652344 C 174.06484985351562 143.7167510986328 179.95260620117188 148.60643005371094 181.5491943359375 155.709716796875" stroke-width="0.0" fill="rgb(215, 214, 215)" opacity="0.990015"/>
    <path d="M 130.0 184.0 C 127.9903793334961 191.5 122.5 196.99038696289062 114.4162368774414 199.6129608154297 C 106.67216491699219 197.80067443847656 101.1356430053711 192.34800720214844 99.51952362060547 184.81719970703125 C 102.49626159667969 176.7578582763672 107.58419036865234 171.04148864746094 115.00238800048828 169.00013732910156 C 122.5 171.00961303710938 127.9903793334961 176.5 130.0 184.0" stroke-width="0.0" fill="rgb(255, 255, 255)" opacity="0.99056715"/>
    <path d="M 203.91592407226562 66.71376037597656 C 202.0889434814453 73.44541931152344 196.405029296875 78.91816711425781 189.9215087890625 80.08063507080078 C 182.47512817382812 78.0169677734375 176.9945526123047 72.52064514160156 174.99363708496094 65.05130767822266 C 176.96800231933594 59.377994537353516 180.9393768310547 52.14734649658203 188.25392150878906 50.126121520996094 C 196.26512145996094 52.80354309082031 201.3072509765625 59.001155853271484 203.91592407226562 66.71376037597656" stroke-width="0.0" fill="rgb(252, 252, 252)" opacity="0.9900035"/>
    <path d="M 171.0963134765625 183.9145965576172 C 168.98898315429688 191.49818420410156 163.49749755859375 196.9866485595703 156.8181610107422 198.11148071289062 C 149.3305206298828 196.1020050048828 143.716796875 190.734130859375 140.60031127929688 183.3932342529297 C 142.75125122070312 176.57553100585938 148.65447998046875 171.01034545898438 155.8482666015625 168.54823303222656 C 163.67071533203125 170.8505401611328 169.19036865234375 176.31692504882812 171.0963134765625 183.9145965576172" stroke-width="0.0" fill="rgb(250, 250, 250)" opacity="1.0"/>
    <path d="M 112.8095703125 49.34785079956055 C 110.59952545166016 58.202022552490234 105.27283477783203 63.82583236694336 97.70569610595703 64.1347885131836 C 88.57659912109375 63.87416458129883 83.03564453125 58.453739166259766 81.00728607177734 49.19672393798828 C 83.03009033203125 41.532413482666016 88.54690551757812 36.07197952270508 96.208740234375 34.25061798095703 C 105.0576171875 36.579498291015625 110.76937866210938 41.825714111328125 112.8095703125 49.34785079956055" stroke-width="0.0" fill="rgb(16, 16, 15)" opacity="0.99001735"/>
    <path d="M 70.95531463623047 34.077449798583984 C 68.73341369628906 43.17744064331055 63.159881591796875 48.69322204589844 55.633995056152344 50.58972930908203 C 47.93048095703125 47.38976287841797 41.51726150512695 42.47327423095703 39.10896682739258 34.74178695678711 C 42.33875274658203 28.019485473632812 48.02529525756836 22.390790939331055 55.80942916870117 19.153623580932617 C 63.45063781738281 21.06905746459961 68.95880126953125 26.540512084960938 70.95531463623047 34.077449798583984" stroke-width="0.0" fill="rgb(248, 248, 248)" opacity="1.0"/>
    <path d="M 103.02833557128906 84.95868682861328 C 101.9903793334961 91.5 96.5 96.9903793334961 89.0 99.0 C 81.5 96.9903793334961 76.0096206665039 91.5 74.8877182006836 84.88529968261719 C 76.96900939941406 77.46208190917969 82.46783447265625 71.9852523803711 88.63690948486328 69.99200439453125 C 95.52114868164062 71.9920654296875 101.00896453857422 77.47846984863281 103.02833557128906 84.95868682861328" stroke-width="0.0" fill="rgb(252, 252, 252)" opacity="0.9900041"/>
    <path d="M 126.4690933227539 166.404541015625 C 123.9903793334961 174.5 118.5 179.99038696289062 110.6971664428711 182.32737731933594 C 102.98578643798828 180.53207397460938 97.5456314086914 174.9906005859375 95.8138656616211 167.2216796875 C 98.17005157470703 159.8223419189453 104.11504364013672 154.8170928955078 111.75164031982422 152.9722137451172 C 119.3739013671875 153.1687469482422 124.84159851074219 158.6256866455078 126.4690933227539 166.404541015625" stroke-width="0.0" fill="rgb(252, 252, 252)" opacity="0.99001783"/>
    <path d="M 194.2605438232422 189.9000701904297 C 193.9633331298828 197.46572875976562 188.45947265625 202.94454956054688 180.8701629638672 204.8771514892578 C 172.4999237060547 201.99041748046875 167.0089874267578 196.500244140625 164.99465942382812 188.9991455078125 C 167.00741577148438 181.4987030029297 172.49917602539062 176.00906372070312 179.9988555908203 173.99966430664062 C 187.48663330078125 176.01695251464844 193.17086791992188 181.455322265625 194.2605438232422 189.9000701904297" stroke-width="0.0" fill="rgb(252, 252, 252)" opacity="0.99013454"/>
    <path d="M 178.91229248046875 219.0823974609375 C 176.99038696289062 226.5 171.5 231.99038696289062 164.0 234.0 C 156.5 231.99038696289062 151.0095977783203 226.5 148.96435546875 218.95465087890625 C 150.85855102539062 211.31491088867188 156.28399658203125 205.7573699951172 163.9830780029297 203.7271728515625 C 171.4420928955078 205.91220092773438 176.80194091796875 211.63995361328125 178.91229248046875 219.0823974609375" stroke-width="0.0" fill="rgb(255, 255, 255)" opacity="0.9908983"/>
    <path d="M 100.0 88.0 C 97.9903793334961 95.5 92.5 100.9903793334961 84.0573501586914 103.95796203613281 C 76.53413391113281 101.96438598632812 71.15980529785156 96.45015716552734 70.99280548095703 88.95549011230469 C 72.991455078125 81.47447204589844 78.4684066772461 75.97502136230469 85.90061950683594 73.90347290039062 C 92.5 75.0096206665039 97.9903793334961 80.5 100.0 88.0" stroke-width="0.0" fill="rgb(252, 252, 252)" opacity="0.9900081"/>
    <path d="M 66.12419128417969 105.75685119628906 C 63.990379333496094 113.5 58.5 118.9903793334961 51.61347961425781 120.39740753173828 C 44.356658935546875 118.15216064453125 38.92381286621094 112.6167984008789 36.99091339111328 106.97159576416016 C 38.99524688720703 99.48191833496094 44.481529235839844 93.99442291259766 51.981666564941406 91.98423767089844 C 59.40846633911133 92.0546646118164 64.67007446289062 97.68379974365234 66.12419128417969 105.75685119628906" stroke-width="0.0" fill="rgb(11, 11, 11)" opacity="0.9900104"/>
    <path d="M 148.8495330810547 170.61529541015625 C 146.27516174316406 178.6513214111328 140.5404052734375 183.925537109375 132.96217346191406 185.96823120117188 C 125.5 183.99038696289062 120.0096206665039 178.5 118.27583312988281 171.32557678222656 C 120.66578674316406 164.23036193847656 126.31256866455078 158.892578125 132.07138061523438 156.98660278320312 C 139.6425323486328 158.95477294921875 146.7025146484375 163.75071716308594 148.8495330810547 170.61529541015625" stroke-width="0.0" fill="rgb(252, 252, 252)" opacity="0.99001825"/>
    <path d="M 117.99874114990234 119.99638366699219 C 115.9422607421875 127.37184143066406 110.07389831542969 132.30218505859375 103.90965270996094 134.01693725585938 C 94.59107208251953 132.15052795410156 89.04151916503906 128.45315551757812 87.04664611816406 120.93399047851562 C 90.0096206665039 112.5 95.5 107.0096206665039 103.0 105.0 C 110.5 107.0096206665039 115.9903793334961 112.5 117.99874114990234 119.99638366699219" stroke-width="0.0" fill="rgb(252, 252, 252)" opacity="0.9900107"/>
    <path d="M 140.0089569091797 40.38760757446289 C 138.17039489746094 49.41477966308594 134.45838928222656 54.964664459228516 126.97632598876953 56.974822998046875 C 119.47097778320312 53.01194381713867 113.88233947753906 47.54304504394531 110.06531524658203 41.972389221191406 C 113.9889144897461 34.47314453125 119.46878051757812 28.977073669433594 126.96756744384766 26.932998657226562 C 134.46749877929688 27.036256790161133 139.89031982421875 32.54370880126953 140.0089569091797 40.38760757446289" stroke-width="0.0" fill="rgb(252, 252, 252)" opacity="0.9900016"/>
    <path d="M 203.007080078125 9.084153175354004 C 201.00582885742188 16.519943237304688 195.52073669433594 22.007476806640625 188.03073120117188 24.01120376586914 C 181.38172912597656 22.844104766845703 175.3912811279297 17.88636589050293 173.05284118652344 9.165310859680176 C 175.07363891601562 1.5748481750488281 180.58261108398438 -3.901921272277832 188.10513305664062 -4.364128589630127 C 195.5452423095703 -2.043729305267334 201.01499938964844 3.4648518562316895 203.007080078125 9.084153175354004" stroke-width="0.0" fill="rgb(3, 3, 3)" opacity="0.9900014"/>
    <path d="M 64.009521484375 218.9363250732422 C 62.19502258300781 224.6510772705078 56.57211685180664 230.02468872070312 50.89273452758789 232.00755310058594 C 43.47694396972656 230.0100555419922 37.993526458740234 224.52139282226562 35.99378967285156 218.7932586669922 C 37.993675231933594 211.47940063476562 43.47856521606445 205.9917755126953 50.97803497314453 203.95005798339844 C 56.596412658691406 204.1569061279297 62.01747131347656 211.455322265625 64.009521484375 218.9363250732422" stroke-width="0.0" fill="rgb(13, 13, 13)" opacity="0.9900009"/>
    <path d="M 198.98675537109375 144.93971252441406 C 196.9586944580078 152.44654846191406 191.42282104492188 157.9036407470703 183.7559814453125 159.79347229003906 C 174.79055786132812 157.67799377441406 169.18894958496094 152.257568359375 168.9696807861328 144.96205139160156 C 170.98658752441406 137.46742248535156 176.4583282470703 131.9607391357422 183.846435546875 129.85894775390625 C 189.96295166015625 131.56204223632812 196.72532653808594 136.55844116210938 198.98675537109375 144.93971252441406" stroke-width="0.0" fill="rgb(201, 201, 202)" opacity="0.9900045"/>
    <path d="M 112.71141052246094 163.314453125 C 111.00824737548828 170.53936767578125 105.5914535522461 176.1752471923828 98.15670013427734 178.29519653320312 C 90.5 175.99038696289062 85.0096206665039 170.5 82.87763214111328 162.83895874023438 C 84.56367492675781 154.9556121826172 89.8427963256836 149.24252319335938 97.37129211425781 147.11383056640625 C 104.90225219726562 150.5142822265625 110.39238739013672 156.1160430908203 112.71141052246094 163.314453125" stroke-width="0.0" fill="rgb(252, 252, 252)" opacity="0.99525905"/>
    <path d="M 71.30228424072266 113.41063690185547 C 69.25462341308594 120.8784408569336 64.16767883300781 127.51629638671875 57.960540771484375 128.03114318847656 C 50.47682189941406 126.00997924804688 44.98853302001953 120.52374267578125 42.97139358520508 113.0526351928711 C 44.77162551879883 107.19444274902344 50.1462516784668 101.63320922851562 57.35660934448242 99.32752990722656 C 64.51532745361328 100.98116302490234 69.99524688720703 106.4915542602539 71.30228424072266 113.41063690185547" stroke-width="0.0" fill="rgb(3, 3, 3)" opacity="0.9900094"/>
    <path d="M 199.00633239746094 122.10722351074219 C 197.00509643554688 129.5180206298828 191.51806640625 135.00521850585938 184.0173797607422 137.030029296875 C 176.54774475097656 136.95921325683594 171.29397583007812 131.42105102539062 170.98910522460938 123.89825439453125 C 172.9444122314453 115.07525634765625 176.5674285888672 109.04132843017578 184.03424072265625 107.02069854736328 C 191.52670288085938 110.98138427734375 197.00909423828125 116.47650146484375 199.00633239746094 122.10722351074219" stroke-width="0.0" fill="rgb(3, 3, 3)" opacity="0.99000156"/>
    <path d="M 87.47510528564453 192.68661499023438 C 85.00284576416016 200.5365447998047 79.68069458007812 206.39398193359375 72.63860321044922 208.80978393554688 C 64.03216552734375 206.428466796875 58.732826232910156 200.92990112304688 57.916297912597656 193.76084899902344 C 58.51585388183594 184.6401824951172 63.5862922668457 179.0669708251953 71.09368133544922 177.04112243652344 C 79.47132110595703 180.0499725341797 85.37378692626953 185.35519409179688 87.47510528564453 192.68661499023438" stroke-width="0.0" fill="rgb(252, 252, 252)" opacity="0.9901908"/>
    <path d="M 193.92613220214844 225.04690551757812 C 191.198974609375 234.0469207763672 186.0294189453125 239.201171875 178.5137176513672 240.7174835205078 C 171.07826232910156 238.30828857421875 165.40240478515625 233.01795959472656 163.1029510498047 225.8638153076172 C 165.00961303710938 218.5 170.5 213.00961303710938 178.96649169921875 210.0196533203125 C 186.47735595703125 212.02720642089844 191.96678161621094 217.5250244140625 193.92613220214844 225.04690551757812" stroke-width="0.0" fill="rgb(252, 252, 252)" opacity="0.9900754"/>
  </g>
</svg>
