<?xml version="1.0" ?>
<svg xmlns="http://www.w3.org/2000/svg" version="1.1" width="600" height="600">
  <defs/>
  <g>
    <path d="M 163.30584716796875 276.499267578125 C 163.60752868652344 276.3030090332031 164.58358764648438 275.2740783691406 164.45228576660156 276.87646484375 C 162.1296844482422 275.4608154296875 163.1046905517578 272.857177734375 165.00619506835938 274.531494140625 C 163.4661102294922 275.2062072753906 161.00375366210938 275.8565673828125 159.51841735839844 275.7615051269531 C 158.5167694091797 277.8422546386719 159.4844512939453 275.7015075683594 163.30584716796875 276.499267578125" stroke-width="0.0" fill="rgb(253, 253, 253)" opacity="1.0"/>
    <path d="M 415.85723876953125 569.148193359375 C 412.3760986328125 572.2333374023438 409.91387939453125 570.2947387695312 408.92333984375 569.0634155273438 C 408.3700866699219 568.2542724609375 407.46759033203125 568.96533203125 407.6224060058594 566.7730712890625 C 406.7351379394531 568.2283325195312 403.98583984375 568.8153076171875 400.9608154296875 567.6231079101562 C 404.1871337890625 565.3240356445312 403.1444091796875 564.1712646484375 415.85723876953125 569.148193359375" stroke-width="0.0" fill="rgb(13, 13, 12)" opacity="1.0"/>
    <path d="M 55.92823791503906 169.961669921875 C 57.8354606628418 171.5235137939453 55.96261978149414 171.87493896484375 54.39848709106445 171.32081604003906 C 55.067176818847656 172.71678161621094 56.37596130371094 171.88294982910156 54.402099609375 170.33563232421875 C 54.82503890991211 172.00018310546875 56.42682647705078 171.10769653320312 56.289390563964844 168.79612731933594 C 54.480613708496094 166.34683227539062 56.4503173828125 165.91322326660156 55.92823791503906 169.961669921875" stroke-width="0.0" fill="rgb(254, 255, 255)" opacity="0.9937632"/>
    <path d="M 509.6247863769531 216.5719451904297 C 508.73724365234375 213.7598114013672 508.5422668457031 211.76744079589844 508.35009765625 212.62673950195312 C 508.9972839355469 213.19015502929688 508.36151123046875 213.6181640625 509.02337646484375 215.34068298339844 C 510.24261474609375 214.04937744140625 511.26898193359375 215.42567443847656 508.902099609375 212.265380859375 C 506.254150390625 213.76148986816406 506.24658203125 213.7281036376953 509.6247863769531 216.5719451904297" stroke-width="0.0" fill="rgb(97, 98, 99)" opacity="1.0"/>
    <path d="M 91.86122131347656 260.537353515625 C 90.92330932617188 261.47265625 89.31455993652344 262.1328430175781 89.11224365234375 261.8528137207031 C 87.78621673583984 261.4220886230469 90.55877685546875 260.587890625 91.37016296386719 258.2216796875 C 89.09056091308594 257.71844482421875 90.32414245605469 259.2928161621094 89.29044342041016 261.3795471191406 C 90.1968765258789 259.11846923828125 89.23945617675781 258.4089050292969 91.86122131347656 260.537353515625" stroke-width="0.0" fill="rgb(152, 152, 153)" opacity="0.99219686"/>
    <path d="M 84.02246856689453 340.5753479003906 C 85.77375030517578 339.4819641113281 86.71768951416016 339.6694030761719 85.79621887207031 337.7983093261719 C 85.69227600097656 338.0432434082031 87.60314178466797 335.97760009765625 87.99629974365234 333.7483825683594 C 88.31458282470703 336.2127685546875 88.80240631103516 338.2088623046875 91.23690032958984 338.9523620605469 C 91.69922637939453 341.2309875488281 90.33789825439453 341.0257568359375 84.02246856689453 340.5753479003906" stroke-width="0.0" fill="rgb(255, 255, 255)" opacity="0.9923866"/>
    <path d="M 452.1771240234375 369.72869873046875 C 454.03070068359375 370.92718505859375 451.8595275878906 373.2803039550781 455.5671081542969 372.21820068359375 C 456.6067199707031 370.60198974609375 454.895751953125 368.3713684082031 452.7088928222656 367.1077575683594 C 452.0641174316406 367.2328186035156 451.9111633300781 367.5404968261719 449.4147033691406 368.4106140136719 C 448.0248718261719 366.89715576171875 448.2211608886719 364.6911926269531 452.1771240234375 369.72869873046875" stroke-width="0.0" fill="rgb(25, 25, 25)" opacity="1.0"/>
    <path d="M 336.23028564453125 111.21497344970703 C 335.88616943359375 112.10700225830078 336.70355224609375 112.52716827392578 335.10797119140625 113.9520492553711 C 335.451416015625 116.5337142944336 336.52655029296875 115.76338958740234 337.5787048339844 114.8667984008789 C 338.0946350097656 115.36788177490234 341.0993957519531 115.64813995361328 340.65283203125 113.88804626464844 C 341.40191650390625 111.87015533447266 340.55755615234375 112.43819427490234 336.23028564453125 111.21497344970703" stroke-width="0.0" fill="rgb(17, 18, 16)" opacity="1.0"/>
    <path d="M 112.37580871582031 114.30084991455078 C 111.09220123291016 116.52218627929688 112.18589782714844 117.25286865234375 112.79780578613281 115.2242431640625 C 114.419921875 116.55763244628906 115.6309585571289 114.25299072265625 114.2939682006836 115.66907501220703 C 114.40043640136719 116.07273864746094 114.43209075927734 117.60409545898438 117.48336791992188 116.61566925048828 C 115.75371551513672 114.22914123535156 116.85311126708984 112.28753662109375 112.37580871582031 114.30084991455078" stroke-width="0.0" fill="rgb(57, 55, 58)" opacity="1.0"/>
    <path d="M 15.083624839782715 67.38640594482422 C 15.331494331359863 66.83570098876953 13.0103120803833 68.2778549194336 13.779773712158203 67.718505859375 C 11.818472862243652 69.40884399414062 10.114655494689941 70.46996307373047 9.406891822814941 71.65753936767578 C 8.862117767333984 73.71754455566406 7.8316826820373535 71.77615356445312 7.039043426513672 73.27920532226562 C 4.865429401397705 70.95050048828125 3.379951000213623 69.46573638916016 15.083624839782715 67.38640594482422" stroke-width="0.0" fill="rgb(225, 226, 227)" opacity="1.0"/>
    <path d="M 89.60527801513672 89.55378723144531 C 87.0794677734375 88.83938598632812 86.66378021240234 88.94934844970703 87.77519989013672 90.8906478881836 C 85.50492095947266 93.08335876464844 83.74150848388672 93.00846862792969 82.5547866821289 92.04535675048828 C 81.78948974609375 89.95710754394531 80.60160827636719 92.13842010498047 82.0772933959961 94.11117553710938 C 79.6470718383789 92.99317932128906 80.27278137207031 94.45866394042969 89.60527801513672 89.55378723144531" stroke-width="0.0" fill="rgb(160, 159, 162)" opacity="0.99215823"/>
    <path d="M 39.92218780517578 148.92510986328125 C 39.146873474121094 149.67520141601562 40.0751838684082 148.0332794189453 40.63338851928711 146.47512817382812 C 43.107330322265625 146.98529052734375 41.22702407836914 149.37844848632812 40.88652420043945 148.29202270507812 C 42.85352325439453 150.3208770751953 42.59480667114258 149.9448699951172 41.57815933227539 152.1627197265625 C 39.389102935791016 149.93017578125 38.19443130493164 149.50086975097656 39.92218780517578 148.92510986328125" stroke-width="0.0" fill="rgb(251, 251, 251)" opacity="0.992736"/>
    <path d="M 313.5911560058594 113.38655853271484 C 310.2320861816406 114.53065490722656 311.347900390625 116.82393646240234 310.06842041015625 114.75938415527344 C 312.267822265625 116.45340728759766 314.3976135253906 116.45948028564453 313.8276672363281 115.94021606445312 C 313.83734130859375 117.70279693603516 314.38031005859375 117.97398376464844 311.1274108886719 118.21540832519531 C 310.68988037109375 115.29295349121094 313.1115417480469 116.99274444580078 313.5911560058594 113.38655853271484" stroke-width="0.0" fill="rgb(14, 13, 12)" opacity="1.0"/>
    <path d="M 315.24725341796875 410.771240234375 C 314.7867431640625 410.27764892578125 317.2800598144531 409.2911376953125 315.1444091796875 407.810546875 C 315.4316101074219 407.3777160644531 315.8370361328125 406.2821960449219 318.2573547363281 406.5885925292969 C 317.2296447753906 406.6719665527344 317.5264892578125 407.0185241699219 319.46484375 405.51141357421875 C 320.06060791015625 402.8648376464844 319.68780517578125 404.299072265625 315.24725341796875 410.771240234375" stroke-width="0.0" fill="rgb(122, 123, 123)" opacity="0.99080086"/>
    <path d="M 345.3182678222656 259.9278869628906 C 346.18023681640625 260.3169250488281 346.8005065917969 262.1290283203125 345.43280029296875 263.217041015625 C 344.32733154296875 261.7664794921875 344.36407470703125 264.1546325683594 341.7023010253906 265.4579772949219 C 341.0894775390625 265.38641357421875 342.666015625 266.592041015625 345.071533203125 264.92352294921875 C 347.26947021484375 263.1340637207031 347.56378173828125 263.8077697753906 345.3182678222656 259.9278869628906" stroke-width="0.0" fill="rgb(253, 254, 253)" opacity="0.99321294"/>
    <path d="M 453.1087646484375 307.5013427734375 C 454.1372375488281 308.2466735839844 455.5177307128906 306.9753112792969 454.69677734375 305.25994873046875 C 452.6783447265625 306.1468811035156 450.97601318359375 307.7142639160156 451.2178955078125 305.1576843261719 C 453.5984802246094 304.22418212890625 452.0375671386719 302.02008056640625 453.29974365234375 301.77484130859375 C 452.1476745605469 299.8388366699219 452.0025634765625 297.6352233886719 453.1087646484375 307.5013427734375" stroke-width="0.0" fill="rgb(4, 4, 4)" opacity="0.9916477"/>
    <path d="M 210.01148986816406 210.1804962158203 C 208.12057495117188 210.80502319335938 210.38348388671875 212.55616760253906 210.49856567382812 213.2428741455078 C 209.22430419921875 213.05714416503906 207.47781372070312 213.91758728027344 209.0997314453125 214.0333251953125 C 208.150146484375 212.87779235839844 207.19212341308594 213.91641235351562 204.6492156982422 212.75694274902344 C 205.23477172851562 211.31581115722656 205.93972778320312 212.95703125 210.01148986816406 210.1804962158203" stroke-width="0.0" fill="rgb(255, 255, 255)" opacity="0.9925699"/>
    <path d="M 171.93328857421875 407.0172119140625 C 170.49017333984375 407.498291015625 172.51724243164062 405.2247314453125 171.65440368652344 405.8344421386719 C 173.26051330566406 404.88507080078125 174.63595581054688 402.9620361328125 172.01617431640625 401.9388427734375 C 173.11495971679688 402.04473876953125 172.22105407714844 403.9066467285156 171.6468505859375 403.0978698730469 C 171.36956787109375 401.535888671875 171.08782958984375 399.943359375 171.93328857421875 407.0172119140625" stroke-width="0.0" fill="rgb(193, 194, 194)" opacity="0.9924177"/>
    <path d="M 334.87872314453125 518.8357543945312 C 332.4449157714844 518.0459594726562 334.83538818359375 518.8390502929688 333.4527893066406 519.9769287109375 C 330.93426513671875 520.5709838867188 332.30059814453125 517.9198608398438 331.76824951171875 517.0435180664062 C 332.1928405761719 516.7836303710938 333.94708251953125 517.8477783203125 333.21697998046875 515.7603759765625 C 334.51776123046875 514.74072265625 337.756591796875 513.6611938476562 334.87872314453125 518.8357543945312" stroke-width="0.0" fill="rgb(22, 23, 20)" opacity="1.0"/>
    <path d="M 157.24330139160156 125.95145416259766 C 154.5901336669922 124.88690185546875 155.47352600097656 123.39816284179688 154.82730102539062 121.02096557617188 C 156.3137664794922 123.03009033203125 156.5978240966797 125.23075866699219 155.79696655273438 127.17926025390625 C 154.2309112548828 126.07318115234375 155.86807250976562 125.41917419433594 155.10740661621094 123.27903747558594 C 156.84771728515625 125.73446655273438 157.10621643066406 123.79350280761719 157.24330139160156 125.95145416259766" stroke-width="0.0" fill="rgb(145, 143, 147)" opacity="0.99286133"/>
    <path d="M 37.00124740600586 394.0014953613281 C 35.95287322998047 393.8778381347656 37.74905776977539 395.979736328125 39.26517868041992 396.1529235839844 C 40.82904052734375 395.9389953613281 39.82151412963867 395.0169372558594 39.340293884277344 396.42578125 C 38.08504867553711 396.5221252441406 36.39696502685547 398.94927978515625 37.05459213256836 398.6019592285156 C 38.41825485229492 396.70526123046875 38.13897705078125 396.25408935546875 37.00124740600586 394.0014953613281" stroke-width="0.0" fill="rgb(255, 255, 255)" opacity="0.99472845"/>
    <path d="M 405.6553039550781 165.67379760742188 C 408.2900390625 163.90234375 409.0084228515625 162.070556640625 407.6903381347656 161.67636108398438 C 409.2733459472656 159.3313751220703 408.596435546875 157.5348663330078 410.74859619140625 157.7551727294922 C 412.9845275878906 159.57791137695312 413.6149597167969 158.54054260253906 414.0579528808594 156.75723266601562 C 414.6983642578125 155.35208129882812 413.87847900390625 157.2051544189453 405.6553039550781 165.67379760742188" stroke-width="0.0" fill="rgb(255, 255, 255)" opacity="0.99226475"/>
    <path d="M 40.83488464355469 226.30929565429688 C 42.77393341064453 227.1430206298828 45.264156341552734 228.35150146484375 46.11347198486328 226.0968017578125 C 48.18910217285156 227.39161682128906 50.063724517822266 224.8787384033203 52.21022415161133 224.7545166015625 C 51.50941467285156 226.8345947265625 51.281890869140625 228.40838623046875 53.09605026245117 229.10653686523438 C 52.92894744873047 230.55519104003906 51.73093795776367 231.72605895996094 40.83488464355469 226.30929565429688" stroke-width="0.0" fill="rgb(255, 255, 255)" opacity="0.991855"/>
    <path d="M 260.08355712890625 63.146942138671875 C 261.8529052734375 63.74711990356445 262.2110595703125 64.32727813720703 263.8088073730469 62.38605880737305 C 265.7335510253906 64.32508850097656 267.7310791015625 62.418556213378906 270.34710693359375 60.02273178100586 C 268.3301696777344 56.40324401855469 268.0976867675781 54.10892105102539 265.6794128417969 53.043914794921875 C 264.6520080566406 54.02735900878906 265.8926696777344 53.80436706542969 260.08355712890625 63.146942138671875" stroke-width="0.0" fill="rgb(12, 13, 11)" opacity="1.0"/>
    <path d="M 138.68287658691406 397.6372375488281 C 137.00033569335938 398.4031066894531 134.69461059570312 395.739013671875 137.3812713623047 393.6448974609375 C 139.8811798095703 395.7310791015625 139.6011505126953 396.9801025390625 137.15557861328125 399.2539978027344 C 139.021728515625 400.2314453125 137.37208557128906 399.3781433105469 137.04457092285156 396.0249938964844 C 134.37081909179688 395.91558837890625 133.7340545654297 398.52740478515625 138.68287658691406 397.6372375488281" stroke-width="0.0" fill="rgb(214, 215, 215)" opacity="1.0"/>
    <path d="M 429.2529296875 234.59127807617188 C 426.7509460449219 237.10366821289062 428.2349853515625 237.74794006347656 428.2107849121094 237.3627471923828 C 430.08868408203125 239.51344299316406 429.147216796875 238.9903106689453 429.2623596191406 238.86146545410156 C 430.9106750488281 238.7862548828125 433.0080871582031 240.78097534179688 432.84765625 240.0373077392578 C 433.3671875 239.30450439453125 434.5705261230469 238.89263916015625 429.2529296875 234.59127807617188" stroke-width="0.0" fill="rgb(191, 191, 191)" opacity="0.9911489"/>
    <path d="M 338.7532653808594 419.58233642578125 C 337.11541748046875 419.4244079589844 336.337646484375 417.0231628417969 337.1056213378906 415.6341857910156 C 337.1744079589844 415.4259338378906 337.4804992675781 413.8177490234375 338.6318054199219 415.4683532714844 C 339.6624755859375 413.86187744140625 340.0181579589844 416.35498046875 337.4156799316406 416.62664794921875 C 335.8640441894531 414.38330078125 338.29888916015625 415.70306396484375 338.7532653808594 419.58233642578125" stroke-width="0.0" fill="rgb(0, 0, 0)" opacity="1.0"/>
    <path d="M 431.31494140625 352.8447265625 C 432.1139831542969 351.93817138671875 431.79876708984375 350.6220397949219 430.04144287109375 349.0533752441406 C 428.13665771484375 348.50537109375 430.76275634765625 347.8091735839844 429.6976013183594 349.532470703125 C 428.5717468261719 351.6802673339844 427.2032775878906 350.5318298339844 429.4328308105469 350.592041015625 C 427.865966796875 348.58636474609375 429.9232177734375 348.84503173828125 431.31494140625 352.8447265625" stroke-width="0.0" fill="rgb(252, 252, 253)" opacity="0.9936854"/>
    <path d="M 98.21043395996094 469.4501037597656 C 97.95156860351562 467.78216552734375 96.01007843017578 466.24407958984375 97.9226303100586 468.6369323730469 C 98.50399017333984 470.69573974609375 97.53712463378906 469.8553466796875 96.33619689941406 471.2671203613281 C 95.55821990966797 473.4263610839844 94.53271484375 471.29107666015625 95.25463104248047 470.78070068359375 C 93.75826263427734 469.55108642578125 93.51237487792969 468.5466003417969 98.21043395996094 469.4501037597656" stroke-width="0.0" fill="rgb(250, 251, 252)" opacity="0.99328446"/>
    <path d="M 238.34007263183594 487.93450927734375 C 239.42160034179688 486.962158203125 240.01925659179688 489.17724609375 236.73675537109375 488.7134094238281 C 239.16058349609375 486.61749267578125 240.05409240722656 485.4391784667969 237.74423217773438 485.83392333984375 C 240.03224182128906 485.09771728515625 239.42941284179688 483.77752685546875 240.3731689453125 481.8220520019531 C 237.71815490722656 482.5310363769531 235.58087158203125 482.3041076660156 238.34007263183594 487.93450927734375" stroke-width="0.0" fill="rgb(23, 24, 23)" opacity="1.0"/>
    <path d="M 88.8490982055664 507.67218017578125 C 87.39385223388672 506.403564453125 84.94647216796875 504.28466796875 86.53044891357422 502.1985168457031 C 88.1500244140625 501.8389892578125 87.10907745361328 501.02423095703125 89.20803833007812 499.2572937011719 C 88.6854248046875 500.080322265625 90.67898559570312 498.97235107421875 89.87962341308594 498.1681213378906 C 89.5765609741211 500.56103515625 89.5702133178711 500.02783203125 88.8490982055664 507.67218017578125" stroke-width="0.0" fill="rgb(8, 9, 8)" opacity="0.99112123"/>
    <path d="M 157.0189666748047 233.0116729736328 C 157.91859436035156 235.14500427246094 159.32652282714844 233.5112762451172 157.95875549316406 235.16360473632812 C 157.92799377441406 234.31944274902344 156.92320251464844 233.51565551757812 159.4181365966797 232.7032012939453 C 156.98452758789062 231.2672119140625 157.47601318359375 233.11488342285156 157.6170196533203 235.24073791503906 C 159.3690643310547 234.32424926757812 158.40989685058594 235.7312774658203 157.0189666748047 233.0116729736328" stroke-width="0.0" fill="rgb(255, 255, 255)" opacity="0.994796"/>
    <path d="M 59.25233840942383 75.78746032714844 C 57.207550048828125 73.74836730957031 57.95908737182617 71.86540222167969 55.61592102050781 72.13095092773438 C 54.19287109375 73.94302368164062 56.4632453918457 72.69393920898438 58.2077522277832 73.42738342285156 C 60.02199935913086 75.48664855957031 62.389366149902344 75.50413513183594 63.80587387084961 77.67973327636719 C 63.48627471923828 79.23402404785156 65.50959777832031 79.8590087890625 59.25233840942383 75.78746032714844" stroke-width="0.0" fill="rgb(204, 202, 206)" opacity="1.0"/>
    <path d="M 302.0802917480469 446.7486877441406 C 304.0655822753906 447.79730224609375 304.97833251953125 446.92791748046875 304.93359375 445.06585693359375 C 302.3692321777344 444.54400634765625 301.1446228027344 445.749755859375 301.23822021484375 448.7592468261719 C 298.9931335449219 447.6307678222656 300.1683349609375 447.8675231933594 299.93389892578125 445.6465759277344 C 302.30560302734375 447.5491638183594 302.615966796875 447.09588623046875 302.0802917480469 446.7486877441406" stroke-width="0.0" fill="rgb(19, 20, 18)" opacity="1.0"/>
    <path d="M 586.4437255859375 109.42228698730469 C 587.3046264648438 110.63540649414062 585.0596313476562 108.99310302734375 585.6051635742188 108.63580322265625 C 586.1846923828125 107.83775329589844 584.8369140625 107.17233276367188 586.0618896484375 107.15727996826172 C 584.6567993164062 105.58528900146484 583.1043090820312 106.76314544677734 581.4322509765625 108.95724487304688 C 579.8048095703125 107.02220153808594 578.7402954101562 104.59565734863281 586.4437255859375 109.42228698730469" stroke-width="0.0" fill="rgb(193, 195, 194)" opacity="1.0"/>
    <path d="M 511.107666015625 370.7711181640625 C 513.384521484375 370.11126708984375 515.439208984375 371.5968933105469 517.4857788085938 372.7157287597656 C 517.443359375 373.0470886230469 516.7684326171875 373.75274658203125 517.107666015625 375.73504638671875 C 517.3911743164062 376.064697265625 516.2420043945312 376.8053894042969 514.26416015625 377.48297119140625 C 515.8678588867188 379.5274658203125 515.8601684570312 380.04595947265625 511.107666015625 370.7711181640625" stroke-width="0.0" fill="rgb(15, 15, 14)" opacity="1.0"/>
    <path d="M 234.71986389160156 44.41505813598633 C 232.627197265625 42.660152435302734 232.0074920654297 44.9842529296875 231.59414672851562 44.12226486206055 C 232.98236083984375 44.414676666259766 233.6837615966797 43.835994720458984 230.80755615234375 42.51093292236328 C 231.23497009277344 44.80491638183594 233.5204315185547 46.33639144897461 234.5000457763672 47.824886322021484 C 234.6269989013672 44.78948974609375 233.6179962158203 45.715843200683594 234.71986389160156 44.41505813598633" stroke-width="0.0" fill="rgb(14, 15, 14)" opacity="1.0"/>
    <path d="M 576.2443237304688 151.865478515625 C 575.5804443359375 148.43772888183594 577.1318359375 149.7880401611328 579.5958251953125 149.80706787109375 C 581.8529663085938 150.87530517578125 581.9268798828125 149.7041473388672 582.5696411132812 148.7599334716797 C 580.3248291015625 150.18411254882812 582.6603393554688 151.595458984375 584.651611328125 153.41265869140625 C 585.7275390625 151.5454559326172 583.5548095703125 154.07675170898438 576.2443237304688 151.865478515625" stroke-width="0.0" fill="rgb(90, 90, 92)" opacity="1.0"/>
    <path d="M 133.21450805664062 119.83373260498047 C 133.22628784179688 120.99281311035156 133.52493286132812 120.05741882324219 131.17481994628906 120.60932922363281 C 133.14450073242188 123.33364868164062 132.77737426757812 124.59141540527344 132.2289276123047 123.58875274658203 C 130.66783142089844 124.16717529296875 129.67198181152344 123.86849212646484 129.8257293701172 122.7005844116211 C 131.4754180908203 122.38177490234375 131.14979553222656 123.74131774902344 133.21450805664062 119.83373260498047" stroke-width="0.0" fill="rgb(113, 112, 113)" opacity="1.0"/>
    <path d="M 57.123260498046875 143.67860412597656 C 58.24436950683594 142.1773223876953 58.04433059692383 139.93865966796875 55.79275894165039 141.60585021972656 C 57.45783996582031 140.40794372558594 55.17599105834961 138.44398498535156 56.90410232543945 141.17202758789062 C 58.59157943725586 143.46609497070312 57.44217300415039 145.62994384765625 60.061885833740234 146.097900390625 C 60.16798400878906 143.72222900390625 58.09445571899414 143.56832885742188 57.123260498046875 143.67860412597656" stroke-width="0.0" fill="rgb(109, 110, 109)" opacity="0.9931505"/>
    <path d="M 340.49713134765625 558.5662231445312 C 338.30908203125 561.1324462890625 338.7790222167969 563.513916015625 339.19775390625 562.366943359375 C 336.2557067871094 560.6549682617188 338.5487060546875 560.5106201171875 336.06121826171875 562.2265014648438 C 338.4372253417969 561.4205932617188 337.0278015136719 563.2781372070312 338.5386657714844 561.7129516601562 C 337.45672607421875 559.4400024414062 340.6914367675781 561.1541748046875 340.49713134765625 558.5662231445312" stroke-width="0.0" fill="rgb(13, 13, 12)" opacity="1.0"/>
    <path d="M 386.86102294921875 554.9448852539062 C 386.3145751953125 556.7581176757812 383.61810302734375 558.5089111328125 384.36724853515625 556.1490478515625 C 383.3642272949219 555.2063598632812 381.85107421875 553.8482055664062 380.6181335449219 552.435791015625 C 381.8991394042969 549.8214111328125 380.261474609375 550.3746948242188 380.5746765136719 551.0558471679688 C 384.05584716796875 550.2213134765625 385.2084045410156 549.9082641601562 386.86102294921875 554.9448852539062" stroke-width="0.0" fill="rgb(13, 13, 11)" opacity="1.0"/>
    <path d="M 547.4708862304688 141.1796417236328 C 548.5662231445312 142.2017364501953 549.7548828125 139.92495727539062 551.95947265625 138.8163604736328 C 553.3181762695312 138.36837768554688 552.3397827148438 137.23574829101562 550.9083862304688 137.88217163085938 C 551.0091552734375 137.7510528564453 548.8427734375 136.38587951660156 551.23583984375 134.45761108398438 C 550.689697265625 134.57447814941406 552.2197265625 132.3917999267578 547.4708862304688 141.1796417236328" stroke-width="0.0" fill="rgb(126, 126, 127)" opacity="0.99241453"/>
    <path d="M 321.1655578613281 540.710205078125 C 320.6746520996094 543.2235717773438 321.63775634765625 545.3622436523438 322.94158935546875 542.9174194335938 C 323.7840881347656 539.4910888671875 325.69549560546875 538.9944458007812 325.9505615234375 539.6703491210938 C 323.56671142578125 538.6813354492188 325.9376525878906 539.76025390625 328.02001953125 541.3807983398438 C 327.6203308105469 544.2969360351562 326.6913146972656 545.4025268554688 321.1655578613281 540.710205078125" stroke-width="0.0" fill="rgb(12, 13, 11)" opacity="1.0"/>
    <path d="M 188.90011596679688 123.15141296386719 C 185.41310119628906 124.30493927001953 184.55662536621094 123.80268096923828 183.87815856933594 122.50067138671875 C 182.0442352294922 121.4685287475586 181.14927673339844 119.57756805419922 181.71424865722656 120.250244140625 C 181.65414428710938 118.04136657714844 184.12136840820312 118.50641632080078 181.59971618652344 118.86177062988281 C 183.1176300048828 115.80933380126953 182.79795837402344 114.41655731201172 188.90011596679688 123.15141296386719" stroke-width="0.0" fill="rgb(17, 17, 16)" opacity="1.0"/>
    <path d="M 405.2125244140625 86.27788543701172 C 408.2245788574219 88.5050277709961 410.11517333984375 91.45459747314453 409.5568542480469 88.97254943847656 C 407.1508483886719 89.69641876220703 407.2301025390625 91.31205749511719 404.0926818847656 89.51683044433594 C 402.8180847167969 92.00675964355469 404.2677917480469 92.626708984375 405.3922424316406 94.00373840332031 C 408.6022033691406 91.57769012451172 405.89532470703125 92.98515319824219 405.2125244140625 86.27788543701172" stroke-width="0.0" fill="rgb(37, 38, 35)" opacity="1.0"/>
    <path d="M 436.5932922363281 318.2955627441406 C 434.7354431152344 315.964111328125 433.33685302734375 317.7265930175781 431.03338623046875 320.1575927734375 C 433.3147888183594 319.3332214355469 432.8504333496094 318.00372314453125 431.3833312988281 319.64447021484375 C 432.3215026855469 317.39141845703125 434.03070068359375 317.7705383300781 435.3085632324219 320.02227783203125 C 436.6128845214844 321.2728576660156 438.5772705078125 323.19659423828125 436.5932922363281 318.2955627441406" stroke-width="0.0" fill="rgb(255, 255, 255)" opacity="0.9933333"/>
    <path d="M 449.3597106933594 469.89141845703125 C 449.8778076171875 468.22137451171875 448.185791015625 467.1224365234375 447.0560607910156 468.7763977050781 C 447.38909912109375 469.8888854980469 446.431640625 470.5552062988281 446.73779296875 467.97113037109375 C 446.1174011230469 467.7275085449219 445.4219970703125 468.3603820800781 446.4926452636719 467.00390625 C 447.83782958984375 469.052734375 447.0260925292969 469.80999755859375 449.3597106933594 469.89141845703125" stroke-width="0.0" fill="rgb(248, 248, 249)" opacity="1.0"/>
    <path d="M 506.193603515625 149.8689727783203 C 506.1555480957031 151.2471923828125 504.5906066894531 153.10821533203125 505.4756774902344 151.97705078125 C 504.74554443359375 151.0375213623047 504.842529296875 148.55056762695312 505.4599914550781 150.1755828857422 C 504.8575439453125 148.9142303466797 503.4715576171875 147.7829132080078 502.6501159667969 150.1769256591797 C 500.70928955078125 151.02012634277344 499.407958984375 153.3682403564453 506.193603515625 149.8689727783203" stroke-width="0.0" fill="rgb(255, 255, 255)" opacity="0.9939697"/>
    <path d="M 81.77758026123047 102.79319763183594 C 79.05599212646484 104.27994537353516 78.98564147949219 103.92562103271484 77.66656494140625 104.46629333496094 C 75.78274536132812 105.09233093261719 75.89400482177734 107.31654357910156 74.68788146972656 109.44697570800781 C 74.79924774169922 111.05203247070312 72.75009155273438 109.83050537109375 71.80530548095703 112.17832946777344 C 70.62543487548828 111.34798431396484 69.80126953125 109.6084976196289 81.77758026123047 102.79319763183594" stroke-width="0.0" fill="rgb(67, 66, 68)" opacity="0.9901348"/>
    <path d="M 120.49500274658203 71.29407501220703 C 118.65020751953125 73.83598327636719 116.61481475830078 72.21337890625 116.86734008789062 70.99647521972656 C 116.62767028808594 70.1906967163086 116.36920166015625 67.59410095214844 119.50082397460938 68.0424575805664 C 120.2540054321289 71.02882385253906 119.94481658935547 73.19439697265625 118.2528305053711 72.66719818115234 C 118.36231994628906 73.60295867919922 119.06346893310547 71.5748291015625 120.49500274658203 71.29407501220703" stroke-width="0.0" fill="rgb(24, 25, 23)" opacity="1.0"/>
    <path d="M 498.0574951171875 73.1272964477539 C 497.4293518066406 74.19718933105469 496.0950927734375 73.4690170288086 496.6474914550781 71.23554229736328 C 495.7684631347656 73.38780975341797 495.0302734375 70.96256256103516 494.6563415527344 67.87022399902344 C 492.2132873535156 68.3258285522461 492.95361328125 70.04418182373047 492.3473205566406 72.39659118652344 C 492.52655029296875 74.19332122802734 492.3080749511719 75.98553466796875 498.0574951171875 73.1272964477539" stroke-width="0.0" fill="rgb(196, 193, 195)" opacity="1.0"/>
    <path d="M 24.189577102661133 438.28717041015625 C 27.091360092163086 438.0877990722656 25.75274658203125 441.0256652832031 24.343250274658203 439.9856262207031 C 25.517724990844727 442.3266906738281 25.729772567749023 443.93328857421875 23.260828018188477 441.5705261230469 C 24.732088088989258 440.1377258300781 26.866130828857422 438.76409912109375 26.526575088500977 441.06622314453125 C 27.52713966369629 442.3143005371094 24.96936798095703 444.29754638671875 24.189577102661133 438.28717041015625" stroke-width="0.0" fill="rgb(50, 51, 49)" opacity="1.0"/>
    <path d="M 576.2032470703125 66.16333770751953 C 575.5927734375 66.62934112548828 576.449951171875 67.35653686523438 576.95361328125 67.70439910888672 C 574.97607421875 66.35750579833984 576.7786254882812 65.6502914428711 578.5888671875 66.97634887695312 C 578.7994995117188 69.8581771850586 576.9993896484375 69.81763458251953 575.7097778320312 70.70126342773438 C 573.1239624023438 71.15326690673828 571.9148559570312 69.57093048095703 576.2032470703125 66.16333770751953" stroke-width="0.0" fill="rgb(0, 1, 0)" opacity="1.0"/>
    <path d="M 360.9621276855469 159.82504272460938 C 358.8702392578125 159.80653381347656 360.5837097167969 157.419921875 358.2555847167969 156.3782196044922 C 359.925048828125 157.7017364501953 358.4333801269531 158.86058044433594 359.30419921875 157.25189208984375 C 356.7265930175781 156.25668334960938 354.6145324707031 154.3811492919922 355.3340759277344 153.47259521484375 C 353.25341796875 155.26162719726562 354.97406005859375 155.26272583007812 360.9621276855469 159.82504272460938" stroke-width="0.0" fill="rgb(255, 255, 255)" opacity="0.9933914"/>
    <path d="M 287.5648498535156 306.4435729980469 C 288.43878173828125 308.8294677734375 287.8612060546875 311.1509704589844 287.742431640625 312.8228454589844 C 286.1343688964844 310.91241455078125 286.6756591796875 312.04034423828125 285.614990234375 312.37542724609375 C 287.1884460449219 311.0052490234375 285.255859375 308.6107482910156 282.8017578125 307.551025390625 C 282.2957763671875 309.4716796875 282.5430603027344 307.1543884277344 287.5648498535156 306.4435729980469" stroke-width="0.0" fill="rgb(252, 252, 252)" opacity="1.0"/>
    <path d="M 315.44476318359375 348.52679443359375 C 317.2234802246094 348.2839660644531 318.063720703125 347.609375 318.5705261230469 346.7613830566406 C 320.8571472167969 347.4390563964844 320.54150390625 346.75970458984375 318.7611083984375 346.9948425292969 C 321.2675476074219 348.6639709472656 320.9202575683594 347.6619567871094 319.64227294921875 347.0165710449219 C 318.5080871582031 345.8713684082031 315.931396484375 345.7484130859375 315.44476318359375 348.52679443359375" stroke-width="0.0" fill="rgb(2, 3, 3)" opacity="0.9909781"/>
    <path d="M 374.823974609375 260.2205505371094 C 376.5056457519531 261.0244445800781 376.54827880859375 262.7887878417969 376.29400634765625 261.24517822265625 C 374.45599365234375 262.501220703125 372.0475158691406 262.34619140625 372.2757873535156 260.0277099609375 C 372.140625 257.6939697265625 370.91534423828125 258.4556579589844 371.83355712890625 259.0210266113281 C 374.0735778808594 259.2959899902344 373.63665771484375 259.324951171875 374.823974609375 260.2205505371094" stroke-width="0.0" fill="rgb(254, 254, 254)" opacity="0.99315834"/>
    <path d="M 598.1766967773438 112.28302764892578 C 599.1812744140625 111.41839599609375 600.4769897460938 113.95297241210938 599.4722900390625 115.96336364746094 C 599.8801879882812 115.6710205078125 597.8363037109375 114.07965850830078 598.5679321289062 114.13136291503906 C 600.9013061523438 113.70933532714844 603.1597290039062 114.85808563232422 601.0724487304688 114.49921417236328 C 599.96337890625 115.22868347167969 600.1002197265625 117.29345703125 598.1766967773438 112.28302764892578" stroke-width="0.0" fill="rgb(137, 137, 139)" opacity="0.9933442"/>
    <path d="M 281.11761474609375 159.42967224121094 C 283.5711669921875 162.6797332763672 285.7865905761719 162.46844482421875 286.0678405761719 160.949462890625 C 287.2615051269531 159.2563018798828 287.6999206542969 158.53057861328125 285.92584228515625 158.67562866210938 C 287.36334228515625 158.3573455810547 288.38690185546875 157.19061279296875 288.2869873046875 153.67868041992188 C 285.38818359375 155.12940979003906 286.06707763671875 155.62149047851562 281.11761474609375 159.42967224121094" stroke-width="0.0" fill="rgb(17, 17, 17)" opacity="1.0"/>
    <path d="M 495.4439392089844 290.80889892578125 C 497.8500671386719 287.5917053222656 496.1679382324219 285.7165222167969 493.4186096191406 288.1098937988281 C 492.91339111328125 290.01983642578125 494.5243225097656 289.3699951171875 494.18524169921875 291.2564697265625 C 495.8018798828125 288.5904541015625 498.2825012207031 288.5223693847656 500.4879150390625 289.42218017578125 C 499.241943359375 291.42242431640625 498.52496337890625 291.9493408203125 495.4439392089844 290.80889892578125" stroke-width="0.0" fill="rgb(13, 13, 12)" opacity="1.0"/>
    <path d="M 321.09295654296875 404.012451171875 C 321.5857238769531 404.055908203125 321.626708984375 405.7665710449219 323.1889343261719 407.4668884277344 C 321.5134582519531 408.7528381347656 320.0598449707031 408.8200988769531 320.2863464355469 408.5054626464844 C 318.336181640625 407.3426208496094 320.63433837890625 408.84967041015625 320.46624755859375 408.188720703125 C 320.77947998046875 406.1961975097656 321.2367248535156 404.4255065917969 321.09295654296875 404.012451171875" stroke-width="0.0" fill="rgb(254, 255, 255)" opacity="0.99272597"/>
    <path d="M 464.54498291015625 332.8065185546875 C 467.2051086425781 330.7920837402344 465.44451904296875 329.4638366699219 462.90435791015625 328.0251770019531 C 464.8722229003906 325.9971618652344 463.9978942871094 325.2268981933594 465.2065124511719 324.1638488769531 C 464.96435546875 321.8302917480469 463.0384826660156 323.8736267089844 463.7960205078125 322.091064453125 C 463.2643737792969 323.880126953125 461.4341125488281 322.9629821777344 464.54498291015625 332.8065185546875" stroke-width="0.0" fill="rgb(255, 255, 255)" opacity="0.9922744"/>
    <path d="M 66.90287017822266 291.0820617675781 C 66.80668640136719 290.8536682128906 68.77648162841797 290.9655456542969 70.12651062011719 291.5677795410156 C 68.31645202636719 291.4368591308594 68.84013366699219 293.1795654296875 68.32862091064453 291.6981506347656 C 68.4100570678711 293.9593505859375 66.94215393066406 294.1634216308594 68.56652069091797 295.0247802734375 C 68.77397155761719 296.4446105957031 70.83404541015625 295.230224609375 66.90287017822266 291.0820617675781" stroke-width="0.0" fill="rgb(253, 254, 254)" opacity="0.99347115"/>
    <path d="M 160.73275756835938 569.495849609375 C 159.81353759765625 571.923828125 158.3285675048828 573.3568725585938 160.34823608398438 573.0658569335938 C 160.31723022460938 571.6856079101562 160.04391479492188 571.8316040039062 160.06935119628906 574.343017578125 C 161.7256622314453 573.8065795898438 162.11541748046875 573.4290771484375 161.25851440429688 571.1344604492188 C 157.7373046875 570.6612548828125 159.33331298828125 569.617431640625 160.73275756835938 569.495849609375" stroke-width="0.0" fill="rgb(20, 20, 18)" opacity="1.0"/>
    <path d="M 538.4490966796875 266.1643981933594 C 538.0774536132812 268.0963134765625 536.9589233398438 267.66748046875 535.70458984375 270.2070007324219 C 538.6470336914062 269.40472412109375 537.6121826171875 270.5771179199219 539.3681640625 268.9035949707031 C 540.5883178710938 270.6331481933594 542.3890380859375 269.0281677246094 543.2164916992188 270.7320556640625 C 544.6529541015625 267.6122131347656 544.4301147460938 268.744140625 538.4490966796875 266.1643981933594" stroke-width="0.0" fill="rgb(3, 4, 3)" opacity="1.0"/>
    <path d="M 202.25364685058594 278.82098388671875 C 201.3092498779297 276.0430603027344 199.3556671142578 274.31097412109375 197.79452514648438 276.61749267578125 C 196.36375427246094 276.00335693359375 196.4706573486328 277.7203063964844 197.4925994873047 275.6654052734375 C 195.3910675048828 273.4795837402344 195.88912963867188 273.8787841796875 194.36415100097656 275.25 C 193.34031677246094 276.5279235839844 190.58155822753906 275.0107116699219 202.25364685058594 278.82098388671875" stroke-width="0.0" fill="rgb(83, 84, 84)" opacity="0.9909613"/>
    <path d="M 485.22344970703125 412.86224365234375 C 487.24530029296875 412.18414306640625 485.8702392578125 411.42852783203125 485.0928955078125 409.74188232421875 C 487.81451416015625 408.5555725097656 486.2623291015625 407.9936218261719 488.100341796875 407.4655456542969 C 487.1063232421875 407.69342041015625 486.8486022949219 408.4898986816406 489.30029296875 409.0999450683594 C 489.3003234863281 409.6211853027344 490.50457763671875 411.6954650878906 485.22344970703125 412.86224365234375" stroke-width="0.0" fill="rgb(252, 252, 252)" opacity="1.0"/>
    <path d="M 14.080416679382324 535.9358520507812 C 13.627951622009277 533.3799438476562 15.223231315612793 531.5184326171875 18.621789932250977 532.953369140625 C 20.8032169342041 534.306640625 22.206928253173828 534.8890380859375 24.89924430847168 537.1554565429688 C 23.91621971130371 540.1358642578125 22.087261199951172 541.5604248046875 23.4923152923584 544.40087890625 C 27.215551376342773 543.8129272460938 27.139875411987305 542.7426147460938 14.080416679382324 535.9358520507812" stroke-width="0.0" fill="rgb(11, 12, 10)" opacity="1.0"/>
    <path d="M 409.0845947265625 319.7475891113281 C 407.665283203125 321.7754821777344 405.7475891113281 319.61480712890625 404.3876647949219 318.9116516113281 C 402.4991455078125 317.0899353027344 404.8064270019531 316.7021179199219 405.5360412597656 316.842529296875 C 404.7859191894531 315.99114990234375 406.65362548828125 317.048828125 408.5101013183594 316.7055969238281 C 408.2582702636719 316.705322265625 408.1528625488281 317.9794921875 409.0845947265625 319.7475891113281" stroke-width="0.0" fill="rgb(253, 253, 253)" opacity="1.0"/>
    <path d="M 486.3242492675781 513.0343017578125 C 487.48736572265625 513.3389892578125 490.0178527832031 513.9512329101562 486.79913330078125 516.19140625 C 486.399658203125 518.7472534179688 487.8948974609375 518.2090454101562 490.3299865722656 518.417724609375 C 489.9755859375 516.86181640625 490.67620849609375 515.9359741210938 488.123046875 515.5325317382812 C 490.2685546875 517.79931640625 489.08319091796875 518.39599609375 486.3242492675781 513.0343017578125" stroke-width="0.0" fill="rgb(20, 20, 19)" opacity="1.0"/>
    <path d="M 458.8457946777344 469.32159423828125 C 456.6394958496094 467.0130920410156 455.98663330078125 469.18170166015625 457.5782775878906 468.6868591308594 C 458.1118469238281 469.7403869628906 457.2268371582031 469.8305358886719 459.388671875 471.8992919921875 C 458.30810546875 473.2835693359375 456.4353942871094 473.3435974121094 454.6725158691406 473.71807861328125 C 454.6455993652344 475.6107177734375 454.2865905761719 477.7260437011719 458.8457946777344 469.32159423828125" stroke-width="0.0" fill="rgb(255, 255, 255)" opacity="0.9923447"/>
    <path d="M 67.98662567138672 459.9844055175781 C 68.44623565673828 460.0192565917969 66.45623016357422 458.21685791015625 68.95038604736328 455.9100341796875 C 68.10556030273438 453.4139404296875 67.40016174316406 454.67303466796875 68.44026184082031 455.5780029296875 C 68.20189666748047 455.9676818847656 68.26009368896484 458.4782409667969 69.9341812133789 457.7794494628906 C 67.6605224609375 457.924072265625 68.22876739501953 455.9382629394531 67.98662567138672 459.9844055175781" stroke-width="0.0" fill="rgb(252, 252, 252)" opacity="0.99414307"/>
    <path d="M 217.7505645751953 539.515625 C 214.32420349121094 540.4410400390625 211.85829162597656 541.964599609375 211.42909240722656 543.0271606445312 C 210.86720275878906 542.969482421875 209.2894287109375 542.2245483398438 211.71170043945312 540.570556640625 C 213.638427734375 543.7114868164062 214.02679443359375 541.9591064453125 214.28060913085938 538.281982421875 C 215.01373291015625 536.9791870117188 212.41436767578125 536.8704833984375 217.7505645751953 539.515625" stroke-width="0.0" fill="rgb(16, 17, 15)" opacity="1.0"/>
    <path d="M 104.6827621459961 167.3735809326172 C 107.02350616455078 167.73147583007812 107.52364349365234 165.884033203125 108.55200958251953 167.8762969970703 C 109.87206268310547 166.66891479492188 110.40753173828125 166.7923126220703 112.26951599121094 165.6527557373047 C 109.68426513671875 165.85313415527344 107.80999755859375 168.26168823242188 107.33930969238281 166.97940063476562 C 108.64308166503906 169.59054565429688 108.6038818359375 168.56581115722656 104.6827621459961 167.3735809326172" stroke-width="0.0" fill="rgb(104, 106, 106)" opacity="0.99378157"/>
    <path d="M 508.25164794921875 251.416259765625 C 508.415771484375 251.00730895996094 508.10235595703125 251.9970703125 509.9832763671875 252.39137268066406 C 510.0028076171875 251.08094787597656 511.3979797363281 251.4891357421875 508.6186218261719 249.8959197998047 C 509.0279235839844 247.63661193847656 507.3702697753906 249.2257080078125 507.7584533691406 248.77244567871094 C 508.3486022949219 247.19400024414062 507.9228820800781 249.58892822265625 508.25164794921875 251.416259765625" stroke-width="0.0" fill="rgb(28, 28, 29)" opacity="0.99246305"/>
    <path d="M 178.8140869140625 126.23966979980469 C 175.25762939453125 127.44478607177734 175.24952697753906 128.18397521972656 174.40567016601562 130.7157745361328 C 177.0920867919922 132.9170379638672 177.93626403808594 130.77035522460938 177.73171997070312 133.4711151123047 C 180.3300018310547 134.24452209472656 181.16268920898438 133.1656036376953 181.31423950195312 132.32925415039062 C 179.92620849609375 131.2983856201172 180.58799743652344 129.8723907470703 178.8140869140625 126.23966979980469" stroke-width="0.0" fill="rgb(8, 9, 7)" opacity="1.0"/>
    <path d="M 388.259765625 474.2182922363281 C 388.6626281738281 474.2998046875 390.9348449707031 474.28741455078125 393.4472351074219 474.60516357421875 C 395.38043212890625 473.0621032714844 397.61907958984375 473.98187255859375 396.9477844238281 475.8857727050781 C 398.67779541015625 476.8211364746094 398.783935546875 475.27154541015625 397.6548767089844 473.7021484375 C 396.75518798828125 471.9609680175781 398.4122619628906 470.0531311035156 388.259765625 474.2182922363281" stroke-width="0.0" fill="rgb(255, 255, 255)" opacity="0.99159753"/>
    <path d="M 245.77972412109375 560.8452758789062 C 243.408203125 559.665771484375 243.55181884765625 558.575927734375 240.3904571533203 557.6411743164062 C 241.8767852783203 560.359130859375 241.38168334960938 559.7098388671875 239.1146240234375 557.8209838867188 C 238.59841918945312 559.477294921875 237.12289428710938 561.19140625 234.97792053222656 563.5401611328125 C 238.09779357910156 563.975341796875 235.92205810546875 564.6181030273438 245.77972412109375 560.8452758789062" stroke-width="0.0" fill="rgb(11, 11, 10)" opacity="1.0"/>
    <path d="M 493.946533203125 388.9201354980469 C 495.53399658203125 390.0236511230469 496.1783142089844 388.2377624511719 495.98760986328125 385.85516357421875 C 496.9881286621094 387.81884765625 496.59423828125 389.4251403808594 497.1585998535156 391.38916015625 C 494.7165832519531 390.8330078125 492.6461181640625 390.639404296875 490.7080993652344 388.7766418457031 C 489.725341796875 390.2239990234375 491.0157775878906 389.1421203613281 493.946533203125 388.9201354980469" stroke-width="0.0" fill="rgb(254, 254, 254)" opacity="0.9926137"/>
    <path d="M 236.1736297607422 152.11619567871094 C 239.7715301513672 152.240966796875 238.04039001464844 153.3619842529297 236.65794372558594 155.95156860351562 C 235.15890502929688 158.29666137695312 232.955810546875 160.75608825683594 231.58404541015625 159.27728271484375 C 229.1991424560547 156.99734497070312 227.90383911132812 157.74627685546875 229.5194549560547 160.20004272460938 C 231.59864807128906 156.3614959716797 230.60792541503906 155.48416137695312 236.1736297607422 152.11619567871094" stroke-width="0.0" fill="rgb(23, 23, 22)" opacity="1.0"/>
    <path d="M 389.7208557128906 537.6725463867188 C 387.9826354980469 539.5816040039062 388.94671630859375 541.3216552734375 388.7732238769531 541.6846313476562 C 389.7475280761719 543.9849853515625 389.0521545410156 543.6591186523438 385.9970703125 544.7735595703125 C 388.4758605957031 548.12744140625 387.6590576171875 545.6926879882812 389.1940612792969 542.6303100585938 C 392.0417785644531 541.8790893554688 389.6720275878906 542.330078125 389.7208557128906 537.6725463867188" stroke-width="0.0" fill="rgb(21, 21, 20)" opacity="1.0"/>
    <path d="M 387.1923828125 183.4816131591797 C 386.4786376953125 182.44261169433594 384.9150390625 183.637451171875 386.29888916015625 182.01382446289062 C 386.8033752441406 181.4447784423828 385.16241455078125 179.900390625 386.8908386230469 180.7333984375 C 388.0296325683594 178.38809204101562 390.3130798339844 177.26126098632812 389.9825439453125 178.92686462402344 C 391.7359924316406 180.3985137939453 393.45166015625 179.7524871826172 387.1923828125 183.4816131591797" stroke-width="0.0" fill="rgb(255, 255, 255)" opacity="0.992636"/>
    <path d="M 299.30889892578125 304.8878479003906 C 296.909423828125 302.59759521484375 298.074462890625 303.65283203125 297.46710205078125 302.9869079589844 C 299.6061706542969 304.6972961425781 298.7559509277344 303.64581298828125 301.04608154296875 304.7653503417969 C 301.3642578125 304.445068359375 299.0703125 304.73858642578125 299.66119384765625 304.0083923339844 C 301.0912170410156 303.8353576660156 299.25 305.0070495605469 299.30889892578125 304.8878479003906" stroke-width="0.0" fill="rgb(254, 254, 255)" opacity="0.9956592"/>
    <path d="M 275.08172607421875 139.1781005859375 C 277.9579162597656 141.26058959960938 277.0165710449219 143.42662048339844 275.4035339355469 145.5498809814453 C 277.0570983886719 146.7069854736328 278.07373046875 149.81027221679688 276.0487365722656 149.23562622070312 C 275.7668762207031 150.7823028564453 275.7747497558594 150.69076538085938 273.7138366699219 151.40379333496094 C 272.5257873535156 150.4224395751953 272.0254821777344 148.3426971435547 275.08172607421875 139.1781005859375" stroke-width="0.0" fill="rgb(10, 10, 9)" opacity="1.0"/>
    <path d="M 165.16885375976562 291.43157958984375 C 163.9068145751953 288.56134033203125 164.6305694580078 288.0849304199219 165.53221130371094 290.0887145996094 C 163.7706298828125 291.0618896484375 162.48516845703125 291.21002197265625 161.12725830078125 291.4043884277344 C 158.89610290527344 291.2803649902344 157.58749389648438 290.5386657714844 155.87783813476562 290.81536865234375 C 157.1464080810547 290.9664611816406 155.65162658691406 290.75811767578125 165.16885375976562 291.43157958984375" stroke-width="0.0" fill="rgb(73, 75, 74)" opacity="0.99099654"/>
    <path d="M 409.3311462402344 250.82814025878906 C 406.8746643066406 249.35931396484375 408.453125 250.95928955078125 407.9853210449219 252.4654083251953 C 405.65411376953125 251.5572509765625 407.9886474609375 250.1370391845703 409.06634521484375 249.6376495361328 C 406.7033386230469 247.71136474609375 407.4820861816406 247.5792236328125 405.9774475097656 247.94635009765625 C 404.8613586425781 245.88790893554688 404.7907409667969 246.18768310546875 409.3311462402344 250.82814025878906" stroke-width="0.0" fill="rgb(35, 36, 36)" opacity="0.99108356"/>
    <path d="M 487.59649658203125 57.52763366699219 C 488.8385925292969 55.14822006225586 487.1814270019531 56.63508605957031 488.9797058105469 55.99794387817383 C 489.5969543457031 58.3383674621582 492.3790588378906 56.83767318725586 491.5909118652344 58.45658874511719 C 490.83990478515625 56.90122604370117 491.5468444824219 54.675872802734375 489.8716125488281 53.28745651245117 C 487.6385192871094 55.820045471191406 490.5399169921875 56.99837112426758 487.59649658203125 57.52763366699219" stroke-width="0.0" fill="rgb(36, 37, 35)" opacity="1.0"/>
    <path d="M 83.67584228515625 241.59193420410156 C 81.36470794677734 244.35044860839844 79.56948852539062 244.26536560058594 77.47102355957031 243.4294891357422 C 78.41600799560547 243.8315887451172 76.70503234863281 245.24380493164062 74.53156280517578 243.63340759277344 C 72.40235137939453 242.4300079345703 71.53654479980469 240.68980407714844 73.01921844482422 237.95132446289062 C 75.24012756347656 240.2740020751953 75.14836883544922 238.4357147216797 83.67584228515625 241.59193420410156" stroke-width="0.0" fill="rgb(254, 254, 254)" opacity="0.99399954"/>
    <path d="M 502.7511291503906 419.5608215332031 C 502.29376220703125 419.05706787109375 503.2900390625 418.28131103515625 503.3302001953125 416.224365234375 C 502.68255615234375 417.6325988769531 505.2101135253906 417.2864074707031 505.7820129394531 417.29443359375 C 507.46185302734375 420.7975769042969 509.4629821777344 418.9152526855469 511.16180419921875 419.0975341796875 C 511.6019287109375 417.25457763671875 511.7855224609375 415.9356384277344 502.7511291503906 419.5608215332031" stroke-width="0.0" fill="rgb(202, 202, 202)" opacity="1.0"/>
    <path d="M 89.83475494384766 49.185272216796875 C 87.23020935058594 50.798126220703125 86.62002563476562 53.40089416503906 85.0219955444336 55.088558197021484 C 82.78629302978516 55.41761779785156 82.4854965209961 52.58131790161133 84.90409088134766 51.75191116333008 C 87.94631958007812 52.34001159667969 88.40251922607422 52.45436096191406 87.03746032714844 53.17356491088867 C 89.28072357177734 55.48349380493164 91.4524154663086 55.81697463989258 89.83475494384766 49.185272216796875" stroke-width="0.0" fill="rgb(13, 13, 12)" opacity="1.0"/>
    <path d="M 389.7837829589844 404.57330322265625 C 387.85467529296875 405.2870178222656 385.62237548828125 402.99676513671875 385.51873779296875 401.56805419921875 C 383.5495910644531 401.6040344238281 383.0951232910156 402.7550964355469 381.9651794433594 403.7841796875 C 384.2912902832031 402.5202331542969 385.3111267089844 400.6392517089844 387.42181396484375 399.861083984375 C 388.4377136230469 401.88665771484375 389.2779541015625 402.302490234375 389.7837829589844 404.57330322265625" stroke-width="0.0" fill="rgb(3, 3, 3)" opacity="0.9904252"/>
    <path d="M 585.2339477539062 221.503173828125 C 582.387451171875 223.55538940429688 581.5601196289062 223.55235290527344 584.395263671875 226.38027954101562 C 582.0884399414062 227.6061248779297 580.08447265625 228.89234924316406 580.7371826171875 231.13253784179688 C 579.1734008789062 230.64205932617188 578.83984375 230.4187774658203 577.9002075195312 228.82107543945312 C 576.620849609375 228.7842559814453 577.4962158203125 230.53199768066406 585.2339477539062 221.503173828125" stroke-width="0.0" fill="rgb(6, 7, 5)" opacity="1.0"/>
    <path d="M 247.128662109375 524.2536010742188 C 249.24659729003906 527.8818969726562 250.05543518066406 527.8475341796875 250.04962158203125 525.4420166015625 C 249.6464385986328 526.2896118164062 251.46922302246094 526.1968383789062 252.77540588378906 525.8765869140625 C 253.6522674560547 523.1004028320312 251.680908203125 522.933837890625 252.75076293945312 522.8070678710938 C 250.20361328125 522.7268676757812 251.50059509277344 520.9388427734375 247.128662109375 524.2536010742188" stroke-width="0.0" fill="rgb(11, 12, 10)" opacity="1.0"/>
    <path d="M 87.14508819580078 250.10133361816406 C 89.59989166259766 252.0406951904297 89.3211898803711 253.88575744628906 87.48699951171875 256.5801086425781 C 90.71668243408203 255.6175079345703 90.97809600830078 254.38937377929688 92.5396957397461 253.071533203125 C 91.07364654541016 253.1717987060547 93.0567398071289 251.59725952148438 91.72620391845703 251.34913635253906 C 93.93218231201172 251.1598358154297 95.64446258544922 252.21142578125 87.14508819580078 250.10133361816406" stroke-width="0.0" fill="rgb(250, 251, 252)" opacity="1.0"/>
    <path d="M 421.80865478515625 533.5257568359375 C 418.2482604980469 534.662841796875 419.1250305175781 536.2608642578125 417.7662048339844 535.5053100585938 C 418.0127258300781 538.370361328125 419.1976318359375 536.0402221679688 418.46929931640625 537.8468017578125 C 416.033203125 536.0822143554688 415.8917236328125 535.26611328125 418.6866149902344 535.1407470703125 C 417.9554748535156 538.5986328125 418.87420654296875 540.69580078125 421.80865478515625 533.5257568359375" stroke-width="0.0" fill="rgb(54, 55, 54)" opacity="1.0"/>
    <path d="M 254.4716339111328 433.2481384277344 C 253.67373657226562 436.2183837890625 256.279296875 436.7497253417969 257.92889404296875 436.1626281738281 C 257.33831787109375 432.87445068359375 258.51422119140625 433.6700744628906 261.28192138671875 431.6368103027344 C 263.8482360839844 432.49908447265625 265.5802917480469 433.7825927734375 264.9058532714844 437.0429382324219 C 261.541259765625 438.86016845703125 259.8234558105469 437.52520751953125 254.4716339111328 433.2481384277344" stroke-width="0.0" fill="rgb(11, 12, 10)" opacity="1.0"/>
    <path d="M 295.2103576660156 555.376953125 C 294.8183898925781 557.5472412109375 295.39898681640625 557.4437866210938 297.60498046875 556.718994140625 C 296.09539794921875 553.9755249023438 294.3086853027344 554.3235473632812 295.2748718261719 556.6554565429688 C 297.4313049316406 555.23876953125 298.95672607421875 553.901611328125 297.7945251464844 551.0971069335938 C 295.1845397949219 552.8720703125 296.05682373046875 554.3921508789062 295.2103576660156 555.376953125" stroke-width="0.0" fill="rgb(17, 17, 15)" opacity="1.0"/>
    <path d="M 332.1319885253906 493.4311218261719 C 331.17559814453125 490.19354248046875 330.76531982421875 490.2533874511719 329.6050720214844 492.93292236328125 C 329.7377014160156 494.0140686035156 331.9451904296875 492.76885986328125 333.99493408203125 491.2676696777344 C 333.2488708496094 488.9844970703125 332.0788269042969 489.62939453125 331.5747985839844 490.74273681640625 C 333.98345947265625 493.5001525878906 335.04974365234375 491.612060546875 332.1319885253906 493.4311218261719" stroke-width="0.0" fill="rgb(45, 45, 42)" opacity="1.0"/>
    <path d="M 190.2440643310547 86.32347106933594 C 193.37680053710938 85.4212417602539 195.4995880126953 86.76240539550781 194.6334991455078 85.44751739501953 C 194.10650634765625 84.39258575439453 195.5701446533203 87.00912475585938 196.30894470214844 84.92445373535156 C 195.66375732421875 84.8434829711914 194.47915649414062 83.44884490966797 194.97462463378906 82.6891098022461 C 193.87741088867188 81.63590240478516 191.92413330078125 82.07925415039062 190.2440643310547 86.32347106933594" stroke-width="0.0" fill="rgb(29, 30, 28)" opacity="1.0"/>
    <path d="M 2.8050546646118164 296.6892395019531 C 4.412653923034668 297.2077941894531 2.0789003372192383 299.5627136230469 0.19465240836143494 299.0837097167969 C -0.2072691023349762 298.54193115234375 1.7087806463241577 296.8562316894531 1.3683488368988037 294.8914794921875 C -0.5892142057418823 294.5242004394531 0.643223226070404 295.6840515136719 -1.1722055673599243 295.10015869140625 C 0.2199922502040863 297.4640808105469 -0.22278165817260742 299.1697082519531 2.8050546646118164 296.6892395019531" stroke-width="0.0" fill="rgb(3, 3, 2)" opacity="1.0"/>
    <path d="M 480.36138916015625 486.9001770019531 C 478.800048828125 485.82305908203125 478.4057922363281 484.1556396484375 480.2053527832031 483.41650390625 C 479.9280700683594 484.49530029296875 478.9714050292969 483.4947509765625 480.78912353515625 481.9869079589844 C 482.0021667480469 481.6275634765625 484.35577392578125 484.00811767578125 485.1439208984375 482.69793701171875 C 485.9920349121094 486.2367248535156 487.3947448730469 488.1338806152344 480.36138916015625 486.9001770019531" stroke-width="0.0" fill="rgb(9, 10, 9)" opacity="1.0"/>
    <path d="M 305.17242431640625 517.7260131835938 C 307.5052490234375 515.6312866210938 308.41998291015625 518.0888671875 308.7027893066406 521.1865234375 C 309.9216003417969 523.6143188476562 309.8046569824219 523.7026977539062 312.33563232421875 525.1544189453125 C 314.79864501953125 524.6210327148438 314.42889404296875 521.7860107421875 311.66009521484375 524.4498901367188 C 313.67919921875 524.8388671875 316.1675720214844 526.504150390625 305.17242431640625 517.7260131835938" stroke-width="0.0" fill="rgb(17, 18, 16)" opacity="1.0"/>
    <path d="M 195.65460205078125 187.01620483398438 C 195.00741577148438 187.64129638671875 194.4021453857422 185.72024536132812 195.96177673339844 183.7404022216797 C 197.0134735107422 182.4325408935547 196.97598266601562 181.64938354492188 195.93240356445312 179.26242065429688 C 195.90135192871094 177.91539001464844 197.89747619628906 179.83822631835938 196.69284057617188 179.78155517578125 C 195.73451232910156 181.4613037109375 197.06260681152344 180.05967712402344 195.65460205078125 187.01620483398438" stroke-width="0.0" fill="rgb(253, 255, 255)" opacity="0.99300414"/>
    <path d="M 79.37548828125 125.76518249511719 C 78.00869750976562 124.7748794555664 79.11678314208984 122.23426818847656 77.7857666015625 123.81558990478516 C 76.14261627197266 122.16272735595703 74.24456024169922 120.8436050415039 72.58772277832031 117.97002410888672 C 70.5444564819336 116.27705383300781 68.1600112915039 116.0970230102539 68.18099212646484 114.91693878173828 C 67.19708251953125 117.48085021972656 66.09031677246094 119.53800964355469 79.37548828125 125.76518249511719" stroke-width="0.0" fill="rgb(251, 251, 251)" opacity="1.0"/>
    <path d="M 221.55081176757812 229.66543579101562 C 220.9169464111328 228.61248779296875 219.27413940429688 230.4026336669922 219.0400848388672 230.89117431640625 C 219.2853546142578 232.45196533203125 220.15237426757812 235.0838165283203 220.0620574951172 235.58676147460938 C 222.31263732910156 237.30047607421875 220.8367462158203 237.02688598632812 220.0148468017578 237.43731689453125 C 218.84445190429688 239.54727172851562 218.70034790039062 237.6102294921875 221.55081176757812 229.66543579101562" stroke-width="0.0" fill="rgb(44, 44, 45)" opacity="0.9902582"/>
    <path d="M 231.3887176513672 207.1891326904297 C 232.094482421875 206.56121826171875 234.0396728515625 205.97349548339844 233.4794464111328 205.026123046875 C 233.4893798828125 205.80929565429688 233.9013214111328 206.77633666992188 232.31723022460938 207.34400939941406 C 230.64259338378906 208.4618377685547 229.10060119628906 210.261474609375 229.0401611328125 210.5420684814453 C 230.82188415527344 210.06488037109375 229.03367614746094 207.03109741210938 231.3887176513672 207.1891326904297" stroke-width="0.0" fill="rgb(76, 75, 76)" opacity="0.99097073"/>
    <path d="M 343.1354675292969 518.8859252929688 C 344.3914794921875 515.0553588867188 344.8911437988281 513.4385375976562 346.6365661621094 513.251953125 C 347.93450927734375 515.258056640625 346.7159423828125 515.896240234375 349.00372314453125 517.1777954101562 C 349.69097900390625 517.96142578125 351.7304382324219 517.7965698242188 352.3787536621094 519.5287475585938 C 351.9877014160156 519.4347534179688 349.7352600097656 522.0061645507812 343.1354675292969 518.8859252929688" stroke-width="0.0" fill="rgb(19, 19, 19)" opacity="1.0"/>
    <path d="M 587.0968017578125 92.98917388916016 C 584.7799682617188 94.07086181640625 582.3167724609375 93.92491912841797 582.8532104492188 92.83151245117188 C 583.7939453125 94.42001342773438 586.3298950195312 94.68660736083984 586.6594848632812 95.58233642578125 C 584.4556884765625 97.71895599365234 584.192626953125 97.52080535888672 587.403076171875 99.20803833007812 C 587.2182006835938 96.88214874267578 586.2064819335938 99.12310028076172 587.0968017578125 92.98917388916016" stroke-width="0.0" fill="rgb(253, 252, 253)" opacity="1.0"/>
    <path d="M 521.7117309570312 319.1596374511719 C 521.3831787109375 321.87738037109375 521.9852294921875 319.1458435058594 519.3929443359375 322.4720153808594 C 520.5348510742188 324.37774658203125 522.7324829101562 325.127197265625 523.9439086914062 325.6244201660156 C 524.3684692382812 325.6516418457031 524.471435546875 324.311767578125 526.1575927734375 321.0421142578125 C 526.177978515625 322.4396667480469 528.0874633789062 322.8492431640625 521.7117309570312 319.1596374511719" stroke-width="0.0" fill="rgb(12, 13, 11)" opacity="1.0"/>
    <path d="M 77.33348083496094 516.4254760742188 C 77.01974487304688 518.5416870117188 79.12516021728516 519.9524536132812 80.06182098388672 517.478271484375 C 81.06639099121094 516.1309204101562 80.435546875 513.54150390625 78.34105682373047 515.83447265625 C 76.83638000488281 518.6519775390625 75.52948760986328 516.6343994140625 75.76556396484375 517.1969604492188 C 76.20568084716797 514.4478759765625 77.37047576904297 516.6500244140625 77.33348083496094 516.4254760742188" stroke-width="0.0" fill="rgb(25, 26, 24)" opacity="1.0"/>
    <path d="M 75.3510971069336 514.6177978515625 C 78.26366424560547 513.4532470703125 79.84254455566406 515.28076171875 79.41099548339844 516.6610107421875 C 77.6050796508789 518.3063354492188 79.57464599609375 516.3185424804688 80.7173080444336 514.536376953125 C 82.66444396972656 515.5555419921875 82.33036804199219 514.5045776367188 83.56694030761719 517.1529541015625 C 83.51006317138672 518.6535034179688 80.45817565917969 521.0513305664062 75.3510971069336 514.6177978515625" stroke-width="0.0" fill="rgb(10, 10, 8)" opacity="1.0"/>
    <path d="M 60.344482421875 412.9234619140625 C 59.907447814941406 411.47503662109375 58.693538665771484 413.2254943847656 59.20704650878906 413.7196350097656 C 57.921993255615234 415.29669189453125 60.27911376953125 413.3887023925781 59.09323501586914 415.7931823730469 C 59.55015182495117 415.3714904785156 61.9382209777832 415.0028991699219 64.16707611083984 414.3497314453125 C 65.13096618652344 411.49639892578125 66.25674438476562 408.60772705078125 60.344482421875 412.9234619140625" stroke-width="0.0" fill="rgb(49, 50, 49)" opacity="0.9917742"/>
    <path d="M 504.4259948730469 348.6202697753906 C 505.5493469238281 347.9864807128906 506.2545166015625 350.0132751464844 507.46722412109375 350.994140625 C 505.5343017578125 350.5110168457031 504.953857421875 350.6542663574219 503.79364013671875 351.0998840332031 C 505.1275939941406 352.6061096191406 505.2698974609375 354.4873046875 507.0274963378906 355.1207580566406 C 505.0054626464844 353.9456481933594 503.3468322753906 352.36669921875 504.4259948730469 348.6202697753906" stroke-width="0.0" fill="rgb(75, 75, 74)" opacity="0.9919278"/>
    <path d="M 28.82649803161621 380.08538818359375 C 27.10834503173828 379.33489990234375 25.34671974182129 376.7843933105469 26.026691436767578 377.9676513671875 C 24.639720916748047 375.5271301269531 23.823678970336914 377.6318054199219 23.099252700805664 375.0871887207031 C 21.599090576171875 375.443359375 21.242650985717773 377.11865234375 21.438568115234375 378.04718017578125 C 20.153030395507812 378.6032409667969 20.057607650756836 378.6877746582031 28.82649803161621 380.08538818359375" stroke-width="0.0" fill="rgb(248, 248, 249)" opacity="1.0"/>
    <path d="M 78.9565658569336 68.38130950927734 C 77.58221435546875 68.2541732788086 79.2496337890625 65.58294677734375 76.23432159423828 64.31709289550781 C 76.36141967773438 67.20211791992188 77.77726745605469 68.59308624267578 78.33662414550781 71.14418029785156 C 80.83568572998047 69.76606750488281 79.16838073730469 68.68875885009766 80.6322250366211 66.43955993652344 C 82.22662353515625 66.98301696777344 83.79216003417969 69.71263122558594 78.9565658569336 68.38130950927734" stroke-width="0.0" fill="rgb(3, 4, 2)" opacity="1.0"/>
    <path d="M 244.61317443847656 52.83810043334961 C 243.9130859375 50.014366149902344 244.9044647216797 51.26970672607422 242.94955444335938 50.58858108520508 C 243.91563415527344 48.53947067260742 244.87257385253906 48.57499313354492 245.4379119873047 48.16699981689453 C 247.26104736328125 49.85223388671875 249.14599609375 48.55461502075195 249.57386779785156 50.91317367553711 C 251.16883850097656 49.85493469238281 250.17352294921875 49.634517669677734 244.61317443847656 52.83810043334961" stroke-width="0.0" fill="rgb(13, 13, 12)" opacity="1.0"/>
    <path d="M 272.8702087402344 400.58941650390625 C 271.825439453125 401.0780029296875 271.096435546875 402.42236328125 270.96771240234375 400.5138854980469 C 270.5518798828125 401.06170654296875 269.7993469238281 402.67779541015625 267.1842041015625 403.38958740234375 C 266.5651550292969 400.82623291015625 264.50518798828125 399.67974853515625 263.73980712890625 401.47509765625 C 262.27069091796875 403.9867858886719 261.7160949707031 403.65655517578125 272.8702087402344 400.58941650390625" stroke-width="0.0" fill="rgb(134, 135, 135)" opacity="1.0"/>
    <path d="M 234.5952911376953 564.2350463867188 C 234.04202270507812 563.8445434570312 232.22720336914062 564.6517944335938 232.90127563476562 566.5231323242188 C 233.931884765625 566.6471557617188 234.3605194091797 563.4530639648438 236.6194305419922 563.1632690429688 C 235.11424255371094 566.0888061523438 236.05296325683594 567.0145874023438 232.79055786132812 564.7327880859375 C 232.21047973632812 562.2783203125 234.95571899414062 563.1192016601562 234.5952911376953 564.2350463867188" stroke-width="0.0" fill="rgb(21, 21, 19)" opacity="1.0"/>
    <path d="M 505.6429138183594 430.7675476074219 C 507.6461181640625 429.5868835449219 510.137939453125 427.5113525390625 507.72979736328125 426.1929016113281 C 507.3771667480469 427.1343688964844 507.4859619140625 427.4794006347656 506.4109802246094 426.9253845214844 C 505.3199768066406 425.07586669921875 504.8151550292969 426.5849914550781 504.9684753417969 424.66387939453125 C 503.4160461425781 427.0424499511719 504.01776123046875 428.4996337890625 505.6429138183594 430.7675476074219" stroke-width="0.0" fill="rgb(8, 8, 7)" opacity="1.0"/>
    <path d="M 79.97834777832031 424.0090637207031 C 79.25712585449219 424.7369384765625 81.38140869140625 423.22369384765625 80.8038330078125 421.9957275390625 C 82.5441665649414 420.4344482421875 80.53751373291016 421.12493896484375 81.84998321533203 423.3599853515625 C 81.10356903076172 424.38909912109375 80.91966247558594 425.593505859375 81.26171875 426.6441345214844 C 78.9015884399414 424.2060546875 79.27588653564453 423.6124267578125 79.97834777832031 424.0090637207031" stroke-width="0.0" fill="rgb(165, 164, 166)" opacity="0.9952448"/>
    <path d="M 441.1781311035156 61.14972686767578 C 441.3829345703125 60.77616500854492 444.83233642578125 60.61406326293945 444.1228942871094 57.86320114135742 C 442.80462646484375 59.27959060668945 442.76104736328125 62.445335388183594 442.3479919433594 63.41979217529297 C 442.459716796875 65.46034240722656 441.6708068847656 66.9094009399414 439.9075012207031 64.68383026123047 C 438.21319580078125 63.824424743652344 437.9205322265625 62.359500885009766 441.1781311035156 61.14972686767578" stroke-width="0.0" fill="rgb(18, 19, 17)" opacity="1.0"/>
    <path d="M 113.85990142822266 169.36285400390625 C 112.09556579589844 168.0395050048828 113.2699966430664 166.2593994140625 114.14744567871094 164.97193908691406 C 116.50286102294922 162.93873596191406 116.38201141357422 164.92080688476562 114.73260498046875 163.51165771484375 C 114.33786010742188 164.86053466796875 112.93262481689453 163.43405151367188 112.26515197753906 162.21778869628906 C 111.52848815917969 161.94773864746094 111.88883972167969 163.2928924560547 113.85990142822266 169.36285400390625" stroke-width="0.0" fill="rgb(4, 5, 5)" opacity="0.9901103"/>
    <path d="M 500.8851318359375 525.5350952148438 C 499.7124328613281 523.5554809570312 498.85968017578125 521.59228515625 497.8373107910156 521.9826049804688 C 498.9159851074219 523.8195190429688 498.82818603515625 525.9480590820312 496.7328186035156 526.4683837890625 C 497.6971740722656 524.1511840820312 499.1509704589844 523.9398193359375 498.8283386230469 526.380859375 C 498.07562255859375 528.6927490234375 498.0966796875 530.0651245117188 500.8851318359375 525.5350952148438" stroke-width="0.0" fill="rgb(13, 14, 11)" opacity="1.0"/>
    <path d="M 354.479736328125 443.5484313964844 C 351.4934387207031 443.73333740234375 351.4689025878906 444.6470642089844 350.8735656738281 447.2425231933594 C 348.5400390625 448.6184387207031 350.4482421875 448.4564208984375 349.0745544433594 448.4352722167969 C 347.64324951171875 445.52099609375 346.6702880859375 446.94244384765625 345.8329162597656 449.21563720703125 C 347.5177001953125 449.0728454589844 349.0794372558594 448.0089111328125 354.479736328125 443.5484313964844" stroke-width="0.0" fill="rgb(253, 253, 253)" opacity="1.0"/>
    <path d="M 242.09043884277344 417.58929443359375 C 242.52391052246094 418.0811767578125 242.19540405273438 418.3095397949219 241.2645721435547 419.13629150390625 C 243.00331115722656 420.2418212890625 243.45278930664062 419.2379150390625 245.27613830566406 418.24224853515625 C 244.6662139892578 415.3230895996094 242.43865966796875 415.3186340332031 243.51498413085938 413.343505859375 C 242.34205627441406 412.1199951171875 240.8349151611328 411.42144775390625 242.09043884277344 417.58929443359375" stroke-width="0.0" fill="rgb(37, 37, 37)" opacity="1.0"/>
    <path d="M 405.28594970703125 143.70700073242188 C 405.8816223144531 145.94070434570312 407.966552734375 147.87710571289062 405.3271179199219 148.53594970703125 C 404.81201171875 148.47357177734375 404.8443603515625 151.0147705078125 406.4387512207031 151.098876953125 C 405.09735107421875 151.09597778320312 406.3888244628906 153.3590087890625 404.2076110839844 153.78378295898438 C 403.9820556640625 154.8080596923828 402.9515380859375 152.545166015625 405.28594970703125 143.70700073242188" stroke-width="0.0" fill="rgb(251, 252, 252)" opacity="1.0"/>
    <path d="M 423.7976379394531 207.17340087890625 C 425.4662780761719 206.8740692138672 424.3381652832031 209.20115661621094 424.74658203125 207.50588989257812 C 423.9995422363281 205.05545043945312 423.9273376464844 203.84030151367188 422.3230285644531 203.0984649658203 C 422.5787353515625 201.7784423828125 423.54107666015625 201.30638122558594 422.59552001953125 203.27296447753906 C 421.9294738769531 204.4244842529297 420.6907653808594 205.25015258789062 423.7976379394531 207.17340087890625" stroke-width="0.0" fill="rgb(255, 255, 255)" opacity="0.9931402"/>
  </g>
</svg>
