<?xml version="1.0" ?>
<svg xmlns="http://www.w3.org/2000/svg" version="1.1" width="600" height="600">
  <defs/>
  <g>
    <path d="M 36.37272644042969 356.4310607910156 C 35.26769256591797 356.7713317871094 35.88447570800781 356.74835205078125 37.22389221191406 355.2867126464844 C 36.407569885253906 355.444580078125 34.84530258178711 358.1612243652344 38.75798797607422 366.44171142578125 C 46.024009704589844 360.5165100097656 54.75212478637695 367.4317321777344 63.60498046875 354.88104248046875 C 40.433895111083984 350.8629455566406 37.05073165893555 353.51904296875 36.37272644042969 356.4310607910156" stroke-width="0.0" fill="rgb(141, 140, 141)" opacity="1.0"/>
    <path d="M 30.617198944091797 580.9022827148438 C 32.251007080078125 579.2169799804688 31.558685302734375 580.2184448242188 33.594825744628906 579.8758544921875 C 35.574974060058594 580.8607177734375 36.4891357421875 578.6089477539062 37.008087158203125 578.6801147460938 C 37.70839309692383 580.1026000976562 38.35004425048828 578.3516845703125 38.12291717529297 577.1375732421875 C 37.3917350769043 576.6305541992188 37.11338806152344 576.6687622070312 30.617198944091797 580.9022827148438" stroke-width="0.0" fill="rgb(255, 255, 255)" opacity="0.6701635"/>
    <path d="M 537.3930053710938 456.70184326171875 C 553.87451171875 427.8897399902344 547.6036376953125 448.9171447753906 545.5220947265625 422.0245666503906 C 574.5584716796875 422.5206298828125 570.43994140625 428.9145812988281 567.833251953125 441.1839294433594 C 569.8314208984375 445.4237365722656 566.3299560546875 439.72125244140625 567.59912109375 451.92254638671875 C 573.20703125 467.13372802734375 545.2037963867188 470.2287292480469 537.3930053710938 456.70184326171875" stroke-width="0.0" fill="rgb(7, 6, 7)" opacity="0.98099715"/>
    <path d="M 538.7738037109375 587.7238159179688 C 538.5626220703125 589.1936645507812 539.9630737304688 590.2620239257812 538.7048950195312 588.3146362304688 C 539.7733154296875 587.244873046875 538.1422119140625 584.5517578125 539.627197265625 584.9414672851562 C 539.8726196289062 584.0086059570312 540.0258178710938 585.5277099609375 540.3031005859375 586.5911865234375 C 540.7404174804688 585.8792114257812 539.4882202148438 586.7665405273438 538.7738037109375 587.7238159179688" stroke-width="0.0" fill="rgb(255, 255, 255)" opacity="0.794012"/>
    <path d="M 570.0621337890625 438.8047180175781 C 568.0018310546875 443.705078125 565.4576416015625 443.1222229003906 569.2334594726562 440.3125305175781 C 566.2221069335938 440.96783447265625 567.6939697265625 442.0135498046875 566.859375 463.87249755859375 C 562.1281127929688 460.3102722167969 573.0172729492188 453.6603088378906 569.4025268554688 445.7352600097656 C 568.0704956054688 446.4393005371094 567.0309448242188 444.4093322753906 570.0621337890625 438.8047180175781" stroke-width="0.0" fill="rgb(200, 200, 200)" opacity="0.77104455"/>
    <path d="M 25.955934524536133 582.0526733398438 C 26.180984497070312 579.6615600585938 25.31255531311035 581.5652465820312 24.03205108642578 582.49169921875 C 23.781513214111328 584.59423828125 24.11087417602539 584.0645141601562 23.971424102783203 585.5697631835938 C 24.383323669433594 585.9609375 26.744346618652344 588.056884765625 27.315593719482422 588.6879272460938 C 27.325328826904297 588.01416015625 25.602140426635742 589.4402465820312 25.955934524536133 582.0526733398438" stroke-width="0.0" fill="rgb(255, 255, 255)" opacity="0.70362896"/>
    <path d="M 484.7904968261719 14.12516975402832 C 481.6463928222656 27.10125732421875 474.3153991699219 30.821054458618164 468.9504089355469 33.43402099609375 C 465.0002746582031 28.808992385864258 467.2235412597656 23.611705780029297 457.2406311035156 32.87773895263672 C 474.3868713378906 33.80129623413086 467.0894775390625 32.52046203613281 464.54241943359375 26.33785057067871 C 466.17901611328125 28.883024215698242 466.49285888671875 25.384531021118164 484.7904968261719 14.12516975402832" stroke-width="0.0" fill="rgb(3, 4, 4)" opacity="1.0"/>
    <path d="M 41.6524658203125 540.8143310546875 C 43.16192626953125 539.8388061523438 48.19417953491211 524.1399536132812 56.70240783691406 535.9154052734375 C 69.72079467773438 557.9964599609375 48.54880905151367 557.590087890625 43.49162673950195 543.5240478515625 C 42.48007583618164 523.8017578125 61.87308883666992 536.34130859375 52.585105895996094 530.5823974609375 C 44.214229583740234 508.0126037597656 47.007083892822266 502.6998596191406 41.6524658203125 540.8143310546875" stroke-width="0.0" fill="rgb(9, 9, 9)" opacity="0.9931986"/>
    <path d="M 52.136314392089844 566.1553955078125 C 51.50542449951172 564.3270874023438 52.1287841796875 562.99462890625 53.70680236816406 561.8916625976562 C 55.05754470825195 563.1099853515625 53.28608703613281 564.9251098632812 51.76268768310547 564.95556640625 C 52.07288360595703 563.88330078125 53.81388473510742 565.8916015625 54.32453918457031 567.3395385742188 C 52.84547424316406 568.9786987304688 51.3500862121582 568.0187377929688 52.136314392089844 566.1553955078125" stroke-width="0.0" fill="rgb(255, 255, 255)" opacity="0.6931466"/>
    <path d="M 499.38323974609375 19.2308349609375 C 498.93572998046875 12.795422554016113 493.64727783203125 17.86744499206543 476.78662109375 28.004274368286133 C 466.09771728515625 33.11297607421875 466.8528747558594 27.320253372192383 481.7113037109375 15.19759750366211 C 504.052734375 7.450260162353516 498.5721130371094 -3.469576835632324 512.7272338867188 11.765093803405762 C 518.6134643554688 -13.122995376586914 510.79974365234375 -3.7688193321228027 499.38323974609375 19.2308349609375" stroke-width="0.0" fill="rgb(12, 12, 12)" opacity="0.9618503"/>
    <path d="M 587.8374633789062 269.4067077636719 C 588.4066772460938 268.8434143066406 588.4661254882812 270.6673583984375 588.226318359375 269.3764343261719 C 587.274169921875 266.7221374511719 588.8182373046875 265.6020812988281 589.3623046875 268.61962890625 C 590.5221557617188 269.8891296386719 591.9922485351562 267.979736328125 590.3900146484375 267.8575134277344 C 591.5808715820312 267.7320251464844 593.7847900390625 266.0620422363281 587.8374633789062 269.4067077636719" stroke-width="0.0" fill="rgb(255, 255, 255)" opacity="0.7575042"/>
    <path d="M 23.573410034179688 547.3321533203125 C 25.41777992248535 546.4329833984375 24.125890731811523 546.31103515625 26.178043365478516 545.5338134765625 C 26.059133529663086 546.5088500976562 25.98455047607422 544.80224609375 25.899141311645508 543.4566650390625 C 27.35247802734375 542.1740112304688 25.962574005126953 541.8773193359375 26.7429256439209 543.0560302734375 C 28.16619110107422 542.9741821289062 30.057785034179688 542.1787109375 23.573410034179688 547.3321533203125" stroke-width="0.0" fill="rgb(255, 255, 255)" opacity="0.74193484"/>
    <path d="M 16.11456298828125 228.21624755859375 C 16.46739387512207 228.74844360351562 16.08917808532715 228.11412048339844 17.312742233276367 227.77194213867188 C 16.226818084716797 228.93789672851562 14.008728981018066 229.35540771484375 12.840631484985352 230.68531799316406 C 13.253743171691895 231.63671875 12.918553352355957 233.40475463867188 12.757831573486328 234.8416290283203 C 13.835447311401367 235.13943481445312 16.116493225097656 236.8950653076172 16.11456298828125 228.21624755859375" stroke-width="0.0" fill="rgb(255, 255, 255)" opacity="0.669532"/>
    <path d="M 594.10595703125 533.9473876953125 C 594.0335693359375 535.89013671875 592.9540405273438 534.4057006835938 591.4243774414062 535.3010864257812 C 591.9713745117188 535.7088623046875 589.7982788085938 533.0855102539062 590.7772827148438 533.7880249023438 C 589.1236572265625 531.8817749023438 590.6250610351562 530.5970458984375 589.8262329101562 533.37109375 C 589.396484375 533.2047729492188 591.6527709960938 534.577392578125 594.10595703125 533.9473876953125" stroke-width="0.0" fill="rgb(255, 255, 255)" opacity="0.85573846"/>
    <path d="M 597.5494995117188 124.32984924316406 C 598.65771484375 122.68026733398438 597.79052734375 121.75578308105469 597.1856079101562 121.94529724121094 C 597.5450439453125 121.22636413574219 597.716064453125 120.57720947265625 597.73828125 120.20343780517578 C 598.011474609375 119.86724090576172 597.3234252929688 118.22616577148438 598.0011596679688 119.83187866210938 C 597.7014770507812 121.8627700805664 595.9533081054688 122.59494018554688 597.5494995117188 124.32984924316406" stroke-width="0.0" fill="rgb(255, 255, 255)" opacity="0.8005286"/>
    <path d="M 8.957330703735352 219.65103149414062 C 8.886148452758789 220.88491821289062 6.793135643005371 219.50045776367188 4.6926751136779785 220.51634216308594 C 6.606788635253906 219.90283203125 6.512791156768799 217.8966064453125 9.06592845916748 217.0644073486328 C 11.015095710754395 216.20547485351562 10.835049629211426 214.8607177734375 11.119682312011719 214.750732421875 C 11.742857933044434 213.9315643310547 11.202218055725098 214.50747680664062 8.957330703735352 219.65103149414062" stroke-width="0.0" fill="rgb(255, 255, 255)" opacity="0.6908936"/>
    <path d="M 579.6187133789062 306.9163818359375 C 578.5302124023438 309.0508728027344 576.238037109375 308.33807373046875 574.449951171875 308.21209716796875 C 574.9371948242188 308.56390380859375 577.4647827148438 308.21038818359375 578.32958984375 308.45123291015625 C 575.9423217773438 310.6028137207031 578.1594848632812 308.67864990234375 580.076416015625 306.2150573730469 C 580.641357421875 304.90631103515625 582.3964233398438 307.6234436035156 579.6187133789062 306.9163818359375" stroke-width="0.0" fill="rgb(255, 255, 255)" opacity="0.7867472"/>
    <path d="M 17.5786190032959 533.20263671875 C 17.652372360229492 533.3522338867188 18.223939895629883 532.7928466796875 17.757244110107422 530.8001708984375 C 18.319822311401367 530.4060668945312 19.70070457458496 532.602294921875 21.761621475219727 534.1596069335938 C 22.86530876159668 535.854248046875 23.484535217285156 535.4912109375 25.64380645751953 532.91162109375 C 23.4414119720459 533.2259521484375 24.944438934326172 532.6924438476562 17.5786190032959 533.20263671875" stroke-width="0.0" fill="rgb(255, 255, 255)" opacity="0.69276893"/>
    <path d="M 32.189208984375 253.17214965820312 C 35.43564224243164 252.6926727294922 32.64323425292969 252.52395629882812 35.32914733886719 250.2330780029297 C 34.196533203125 248.01637268066406 33.54876708984375 248.69505310058594 34.49386978149414 249.2107696533203 C 34.969852447509766 249.6815185546875 32.56614685058594 247.7064666748047 34.114410400390625 249.07896423339844 C 35.06036376953125 247.38792419433594 35.39733123779297 246.4174346923828 32.189208984375 253.17214965820312" stroke-width="0.0" fill="rgb(255, 255, 255)" opacity="0.70982754"/>
    <path d="M 578.6567993164062 318.74957275390625 C 581.1177978515625 315.9809875488281 583.5425415039062 316.98345947265625 585.5032348632812 317.06427001953125 C 582.94189453125 319.3782958984375 583.94873046875 318.2137145996094 584.3262329101562 320.24847412109375 C 583.1299438476562 321.6036071777344 582.4718627929688 321.7187194824219 581.4393310546875 323.1424255371094 C 580.9148559570312 323.5235900878906 580.6395263671875 323.7546081542969 578.6567993164062 318.74957275390625" stroke-width="0.0" fill="rgb(255, 255, 255)" opacity="0.64779466"/>
    <path d="M 585.670654296875 600.740966796875 C 583.9724731445312 599.5738525390625 582.4409790039062 601.2609252929688 581.154541015625 603.5640869140625 C 578.7921752929688 601.965087890625 577.013671875 600.580322265625 579.01416015625 601.6724853515625 C 579.1205444335938 603.3916015625 578.499755859375 601.3778076171875 578.4519653320312 600.7615356445312 C 577.83544921875 602.1343383789062 576.0032958984375 603.2122802734375 585.670654296875 600.740966796875" stroke-width="0.0" fill="rgb(253, 254, 254)" opacity="0.98153687"/>
    <path d="M 9.862435340881348 340.31427001953125 C 10.739261627197266 338.8893737792969 9.155671119689941 336.9666748046875 9.201149940490723 338.4624938964844 C 8.291823387145996 336.5537414550781 10.18962574005127 335.6667785644531 7.619750022888184 334.5203552246094 C 9.644067764282227 335.5931091308594 9.58203411102295 336.5223693847656 8.011866569519043 338.1552429199219 C 9.573140144348145 337.26898193359375 11.622734069824219 338.58349609375 9.862435340881348 340.31427001953125" stroke-width="0.0" fill="rgb(255, 255, 255)" opacity="0.84269893"/>
    <path d="M 24.61024284362793 258.62213134765625 C 26.18715476989746 257.2349548339844 23.760480880737305 257.8750915527344 25.096845626831055 257.6945495605469 C 24.15029525756836 259.8651428222656 24.78763771057129 259.8464050292969 26.465978622436523 258.36474609375 C 27.651634216308594 257.34954833984375 25.90694808959961 258.7038269042969 23.583044052124023 260.5284118652344 C 24.478544235229492 260.24261474609375 25.15665626525879 259.33868408203125 24.61024284362793 258.62213134765625" stroke-width="0.0" fill="rgb(255, 255, 255)" opacity="0.827796"/>
    <path d="M 40.687129974365234 550.184814453125 C 40.61277389526367 550.4097900390625 39.32889938354492 549.8680419921875 38.20983123779297 549.114013671875 C 37.905601501464844 548.2952880859375 35.933929443359375 550.1382446289062 38.11934280395508 548.7044067382812 C 37.86919403076172 549.7290649414062 39.38606643676758 549.69775390625 39.40365219116211 548.7045288085938 C 39.24152755737305 549.0220336914062 38.35628128051758 549.9747924804688 40.687129974365234 550.184814453125" stroke-width="0.0" fill="rgb(255, 255, 255)" opacity="0.8551196"/>
    <path d="M 556.7354736328125 516.7445068359375 C 557.9009399414062 505.19354248046875 556.6475830078125 526.0925903320312 547.369140625 536.308349609375 C 536.2045288085938 529.4448852539062 541.8974609375 522.3160400390625 539.4901123046875 521.4575805664062 C 544.4877319335938 520.2911376953125 533.9259033203125 506.1529541015625 554.2987670898438 495.24530029296875 C 559.6846313476562 499.7728576660156 554.5001831054688 511.4808044433594 556.7354736328125 516.7445068359375" stroke-width="0.0" fill="rgb(6, 5, 5)" opacity="0.981189"/>
    <path d="M 548.9990234375 496.9991149902344 C 556.9473876953125 508.4853210449219 559.2952270507812 501.8512268066406 557.7718505859375 489.9483642578125 C 562.0430297851562 490.0751953125 563.5557250976562 488.1222229003906 565.2514038085938 484.4114990234375 C 565.5579833984375 481.9087829589844 565.2135009765625 483.4718933105469 567.2045288085938 479.7092590332031 C 565.71142578125 477.3241271972656 560.8472900390625 474.71246337890625 548.9990234375 496.9991149902344" stroke-width="0.0" fill="rgb(46, 46, 46)" opacity="0.8086156"/>
    <path d="M 600.2081909179688 528.2816772460938 C 600.4777221679688 529.628173828125 602.1572265625 531.2499389648438 600.6632690429688 529.1031494140625 C 598.9314575195312 529.4326782226562 600.1342163085938 528.93115234375 599.9301147460938 529.60400390625 C 600.2432250976562 527.5162963867188 601.03759765625 528.4609375 601.9326171875 527.64501953125 C 603.5339965820312 528.599609375 603.9508056640625 528.8849487304688 600.2081909179688 528.2816772460938" stroke-width="0.0" fill="rgb(255, 255, 255)" opacity="0.8695896"/>
    <path d="M 565.0066528320312 308.2242431640625 C 567.5400390625 307.0736999511719 567.4627075195312 306.62738037109375 566.3744506835938 307.4654846191406 C 565.5819702148438 305.8658752441406 565.53076171875 305.3814697265625 564.7047729492188 304.52642822265625 C 566.7507934570312 303.1888732910156 566.5733642578125 303.4576721191406 568.0435791015625 301.2794189453125 C 566.02392578125 303.4845275878906 564.8800659179688 305.5940246582031 565.0066528320312 308.2242431640625" stroke-width="0.0" fill="rgb(255, 255, 255)" opacity="0.70806056"/>
    <path d="M 25.95468521118164 130.8781280517578 C 24.247840881347656 133.27098083496094 24.64230728149414 133.58656311035156 25.160490036010742 132.18984985351562 C 26.935413360595703 129.9248809814453 27.492448806762695 131.97605895996094 28.078182220458984 130.54312133789062 C 26.50786018371582 128.96006774902344 26.893972396850586 131.1001739501953 25.79424476623535 129.37484741210938 C 25.892423629760742 128.92654418945312 25.825180053710938 127.7681884765625 25.95468521118164 130.8781280517578" stroke-width="0.0" fill="rgb(255, 255, 255)" opacity="0.7911463"/>
    <path d="M 3.4940414428710938 171.97470092773438 C 1.4200438261032104 171.5430908203125 2.4292707443237305 173.55357360839844 0.45013898611068726 175.26263427734375 C 2.9306068420410156 177.01744079589844 3.1445202827453613 175.4242706298828 2.252535581588745 175.4392547607422 C 4.801741123199463 176.98373413085938 5.587671756744385 175.4840545654297 4.842271327972412 173.9292755126953 C 5.131906986236572 174.28660583496094 5.790799617767334 173.86082458496094 3.4940414428710938 171.97470092773438" stroke-width="0.0" fill="rgb(255, 255, 255)" opacity="0.70099336"/>
    <path d="M 537.754638671875 380.0208740234375 C 546.9646606445312 406.875 561.6145629882812 409.6678771972656 573.5523071289062 408.2521057128906 C 565.101806640625 367.6393127441406 576.4397583007812 376.2936096191406 553.263916015625 374.63189697265625 C 563.0498046875 371.0228576660156 568.424560546875 373.23809814453125 565.0707397460938 373.7466125488281 C 568.2335205078125 374.23297119140625 566.2774047851562 367.8404235839844 537.754638671875 380.0208740234375" stroke-width="0.0" fill="rgb(0, 0, 0)" opacity="1.0"/>
    <path d="M 10.803875923156738 526.0933837890625 C 12.529597282409668 526.6637573242188 13.077184677124023 523.8209838867188 13.291828155517578 521.849365234375 C 13.542213439941406 522.6665649414062 11.945230484008789 523.3065795898438 13.901402473449707 522.9158935546875 C 14.421916007995605 523.5636596679688 13.912663459777832 525.96240234375 12.798108100891113 524.8168334960938 C 15.147530555725098 524.6513671875 14.981416702270508 524.5682983398438 10.803875923156738 526.0933837890625" stroke-width="0.0" fill="rgb(255, 255, 255)" opacity="0.7067108"/>
    <path d="M 34.27976989746094 269.2054138183594 C 35.4702262878418 267.1524658203125 37.038665771484375 268.3836364746094 36.68940734863281 267.4884948730469 C 37.45228576660156 268.4988098144531 36.74549865722656 268.97998046875 37.343788146972656 269.85894775390625 C 36.66465377807617 268.4997253417969 36.30840301513672 268.9896545410156 35.879608154296875 269.31817626953125 C 35.790706634521484 270.77716064453125 33.31660842895508 270.01220703125 34.27976989746094 269.2054138183594" stroke-width="0.0" fill="rgb(255, 255, 255)" opacity="0.7292146"/>
    <path d="M 585.7106323242188 294.2716369628906 C 587.6588134765625 294.5838317871094 585.4918823242188 294.1130065917969 583.291748046875 292.9154968261719 C 583.3008422851562 291.9152526855469 581.9113159179688 293.70703125 580.5980834960938 294.6083984375 C 582.7805786132812 295.696533203125 584.5655517578125 295.2825622558594 584.6617431640625 292.6658630371094 C 583.394287109375 290.9386291503906 582.5603637695312 290.0694885253906 585.7106323242188 294.2716369628906" stroke-width="0.0" fill="rgb(255, 255, 255)" opacity="0.6922123"/>
    <path d="M 595.3712768554688 119.22037506103516 C 597.3775024414062 118.38379669189453 595.0382690429688 117.08903503417969 593.5398559570312 118.66118621826172 C 592.0599975585938 120.96146392822266 594.0321655273438 123.19642639160156 591.9053955078125 121.57369232177734 C 592.8490600585938 118.77774047851562 590.4965209960938 121.17332458496094 588.4585571289062 119.30677795410156 C 589.2578735351562 119.34940338134766 591.4629516601562 118.72779846191406 595.3712768554688 119.22037506103516" stroke-width="0.0" fill="rgb(255, 255, 255)" opacity="0.6961629"/>
    <path d="M 9.225232124328613 151.51095581054688 C 9.06803035736084 150.33050537109375 8.445658683776855 152.15895080566406 7.1403326988220215 153.3472442626953 C 6.8849077224731445 151.1022491455078 6.895677089691162 152.4974365234375 5.870349884033203 151.83773803710938 C 6.483489036560059 150.22113037109375 4.358670234680176 150.1164093017578 4.835577964782715 149.86566162109375 C 6.574858665466309 151.2129669189453 8.227927207946777 152.25 9.225232124328613 151.51095581054688" stroke-width="0.0" fill="rgb(255, 255, 255)" opacity="0.7385768"/>
    <path d="M 587.386474609375 509.3033447265625 C 589.2034912109375 509.16973876953125 590.3558959960938 507.19293212890625 587.9328002929688 506.7138671875 C 588.7999877929688 506.4969177246094 587.2691040039062 507.99371337890625 588.0751342773438 507.5948181152344 C 587.5740356445312 509.01416015625 585.7747192382812 507.17376708984375 583.8798217773438 505.7250061035156 C 583.7395629882812 503.121826171875 584.89794921875 502.3924560546875 587.386474609375 509.3033447265625" stroke-width="0.0" fill="rgb(255, 255, 255)" opacity="0.6811042"/>
    <path d="M 555.4957275390625 521.5109252929688 C 551.9703979492188 546.26220703125 536.58203125 544.995361328125 514.3473510742188 554.6383056640625 C 546.5485229492188 529.2914428710938 536.5836791992188 529.3985595703125 532.2963256835938 540.1043090820312 C 539.6884765625 530.4154663085938 539.0044555664062 524.7007446289062 538.913818359375 527.1922607421875 C 543.5526733398438 517.2684936523438 554.99755859375 509.9369812011719 555.4957275390625 521.5109252929688" stroke-width="0.0" fill="rgb(2, 2, 2)" opacity="0.9768518"/>
    <path d="M 459.3414306640625 2.4355568885803223 C 472.50250244140625 0.05751385539770126 471.2842712402344 -0.6436798572540283 476.5272216796875 -1.2892872095108032 C 473.9544372558594 5.882923126220703 473.04095458984375 3.126323699951172 472.6148986816406 3.9268839359283447 C 472.1354675292969 2.9001975059509277 472.37786865234375 2.5726194381713867 477.90185546875 9.896194458007812 C 474.69183349609375 14.611595153808594 468.2431335449219 13.970268249511719 459.3414306640625 2.4355568885803223" stroke-width="0.0" fill="rgb(209, 208, 209)" opacity="0.8157948"/>
    <path d="M 560.8057861328125 327.00836181640625 C 561.3878173828125 326.91607666015625 562.5719604492188 326.7707214355469 560.4450073242188 327.2240295410156 C 561.391357421875 324.42388916015625 561.0015869140625 327.037841796875 563.5321044921875 325.43408203125 C 561.6181640625 324.3915100097656 560.1331787109375 323.1673583984375 559.6034545898438 320.36029052734375 C 558.6724243164062 322.4416198730469 558.2064208984375 320.2735595703125 560.8057861328125 327.00836181640625" stroke-width="0.0" fill="rgb(255, 255, 255)" opacity="0.66674703"/>
    <path d="M 2.6318719387054443 575.8693237304688 C 3.468773126602173 575.3892822265625 5.454490661621094 577.0641479492188 2.7453482151031494 576.9707641601562 C 1.1716561317443848 577.5706787109375 2.997169256210327 575.05029296875 0.9714463353157043 576.8623046875 C -1.62291419506073 577.7786254882812 0.6032137274742126 578.2974243164062 -0.4844924211502075 578.4430541992188 C -2.0790224075317383 578.4996948242188 -1.0284912586212158 577.0777587890625 2.6318719387054443 575.8693237304688" stroke-width="0.0" fill="rgb(255, 255, 255)" opacity="0.79955757"/>
    <path d="M 12.3331937789917 336.94854736328125 C 10.833152770996094 338.8038330078125 11.144755363464355 337.0345153808594 9.33285140991211 338.7926940917969 C 10.042489051818848 338.54571533203125 12.301905632019043 338.4308166503906 10.534590721130371 340.81842041015625 C 11.634598731994629 340.07098388671875 10.168233871459961 341.7003479003906 11.427915573120117 343.3770751953125 C 9.311070442199707 341.4857177734375 6.335666656494141 343.7741394042969 12.3331937789917 336.94854736328125" stroke-width="0.0" fill="rgb(255, 255, 255)" opacity="0.7143898"/>
    <path d="M 459.7500915527344 11.509700775146484 C 454.8751220703125 23.045185089111328 451.8297119140625 21.02273941040039 448.6873474121094 19.784526824951172 C 444.8367614746094 21.02454376220703 443.9132080078125 26.552886962890625 453.4521179199219 29.425844192504883 C 454.7032165527344 19.867603302001953 449.4328308105469 20.523075103759766 442.0491027832031 20.506072998046875 C 442.4897766113281 13.454545021057129 447.5926818847656 8.400216102600098 459.7500915527344 11.509700775146484" stroke-width="0.0" fill="rgb(196, 194, 194)" opacity="0.75776994"/>
    <path d="M 30.934131622314453 186.1308135986328 C 31.802085876464844 185.62234497070312 29.882545471191406 184.60458374023438 30.441564559936523 183.0166778564453 C 28.718599319458008 181.188232421875 28.252973556518555 180.3825225830078 29.236995697021484 181.71409606933594 C 31.77836799621582 183.56552124023438 29.49143409729004 185.49400329589844 30.027368545532227 186.36614990234375 C 31.628023147583008 185.19187927246094 29.57373046875 183.6272430419922 30.934131622314453 186.1308135986328" stroke-width="0.0" fill="rgb(255, 255, 255)" opacity="0.7791352"/>
    <path d="M 466.8804931640625 26.78843116760254 C 451.29705810546875 21.490863800048828 453.9170837402344 16.66206169128418 453.18768310546875 13.417627334594727 C 454.54168701171875 12.457921028137207 456.0050048828125 11.97132682800293 450.0484313964844 6.734687805175781 C 452.7936706542969 1.4764957427978516 454.747802734375 -0.9402256011962891 467.3641052246094 -5.206882953643799 C 474.4753723144531 7.295478343963623 475.5519104003906 11.633179664611816 466.8804931640625 26.78843116760254" stroke-width="0.0" fill="rgb(197, 197, 197)" opacity="0.83666813"/>
    <path d="M 14.403234481811523 587.9025268554688 C 12.221822738647461 587.2879638671875 11.694477081298828 587.807861328125 11.185428619384766 587.8019409179688 C 11.07166862487793 587.7994384765625 9.579054832458496 588.79248046875 7.748345851898193 587.7852172851562 C 7.717518329620361 588.469970703125 8.888777732849121 590.0343017578125 9.052145004272461 588.3404541015625 C 10.200929641723633 588.6217041015625 11.881086349487305 587.0319213867188 14.403234481811523 587.9025268554688" stroke-width="0.0" fill="rgb(255, 255, 255)" opacity="0.7542299"/>
    <path d="M 11.03866195678711 252.15281677246094 C 9.496896743774414 251.51124572753906 9.49050235748291 251.9834442138672 10.101144790649414 254.15220642089844 C 9.042176246643066 254.0006103515625 7.706559181213379 254.01687622070312 10.158900260925293 252.3196563720703 C 8.583969116210938 251.92987060546875 8.973848342895508 251.3851776123047 9.157231330871582 249.04653930664062 C 8.518148422241211 247.85169982910156 10.851162910461426 246.57896423339844 11.03866195678711 252.15281677246094" stroke-width="0.0" fill="rgb(255, 255, 255)" opacity="0.71995187"/>
    <path d="M 519.3173828125 553.2271118164062 C 506.05670166015625 567.7237548828125 512.15478515625 548.603271484375 527.7294921875 547.5350341796875 C 517.777587890625 549.8907470703125 519.4317626953125 548.9920043945312 519.4375 547.185302734375 C 518.0632934570312 542.7857666015625 519.2830200195312 543.5868530273438 518.16845703125 542.0767822265625 C 516.3590698242188 542.2191162109375 519.4044799804688 539.4804077148438 519.3173828125 553.2271118164062" stroke-width="0.0" fill="rgb(36, 35, 36)" opacity="0.9864051"/>
    <path d="M 14.81003189086914 133.0479278564453 C 10.612452507019043 132.98655700683594 9.20278549194336 133.34483337402344 9.899085998535156 132.62879943847656 C 11.753854751586914 130.72389221191406 13.124689102172852 129.30706787109375 12.455801010131836 129.67041015625 C 14.08808422088623 130.38973999023438 15.18232536315918 130.20045471191406 16.70954132080078 128.8775634765625 C 17.738819122314453 128.16220092773438 15.913871765136719 125.56379699707031 14.81003189086914 133.0479278564453" stroke-width="0.0" fill="rgb(255, 255, 255)" opacity="0.66691667"/>
    <path d="M 94.91142272949219 14.723773956298828 C 96.11920166015625 23.48760414123535 87.72341918945312 19.60867691040039 87.86299896240234 22.13152503967285 C 100.0628433227539 11.456113815307617 104.46739196777344 -2.2740511894226074 83.48448181152344 2.6452126502990723 C 76.05763244628906 28.223237991333008 76.2936782836914 15.739410400390625 97.8138427734375 21.12652015686035 C 102.305908203125 11.094014167785645 99.2701187133789 5.4105916023254395 94.91142272949219 14.723773956298828" stroke-width="0.0" fill="rgb(41, 41, 41)" opacity="0.8488071"/>
    <path d="M 559.9882202148438 497.1512145996094 C 559.2614135742188 497.60052490234375 559.29541015625 499.28228759765625 556.9480590820312 495.4591979980469 C 558.7723999023438 498.9300231933594 558.3456420898438 500.4071044921875 558.3568115234375 494.2892761230469 C 559.11767578125 498.18414306640625 560.1264038085938 501.6266784667969 548.6867065429688 503.6508483886719 C 556.7472534179688 502.41400146484375 556.066650390625 501.01336669921875 559.9882202148438 497.1512145996094" stroke-width="0.0" fill="rgb(226, 225, 225)" opacity="0.916088"/>
    <path d="M 524.3576049804688 479.9485168457031 C 530.4154663085938 479.6848449707031 531.6201782226562 480.2290344238281 535.9949951171875 480.9183654785156 C 535.7953491210938 490.3007507324219 531.9796752929688 492.0229797363281 535.5404052734375 489.92279052734375 C 537.4240112304688 489.7038879394531 542.62060546875 489.486572265625 543.38330078125 507.6216735839844 C 518.2205810546875 503.314697265625 522.4347534179688 502.3058776855469 524.3576049804688 479.9485168457031" stroke-width="0.0" fill="rgb(0, 0, 0)" opacity="1.0"/>
    <path d="M 32.90879821777344 190.4291534423828 C 33.17314147949219 187.76434326171875 33.28782653808594 186.33740234375 31.17804718017578 187.09420776367188 C 30.232101440429688 189.24049377441406 28.10460090637207 190.3802947998047 29.455440521240234 189.46844482421875 C 31.07775115966797 187.21432495117188 31.22789192199707 188.6066436767578 29.867258071899414 187.46743774414062 C 30.12293243408203 187.6592254638672 30.836313247680664 187.84909057617188 32.90879821777344 190.4291534423828" stroke-width="0.0" fill="rgb(255, 255, 255)" opacity="0.7535309"/>
    <path d="M 540.6902465820312 415.6419372558594 C 541.6205444335938 397.48577880859375 539.954833984375 393.6971130371094 536.277587890625 396.2544860839844 C 532.3106079101562 401.4478454589844 529.8399658203125 404.4473876953125 531.0980224609375 410.0338134765625 C 527.21630859375 406.8474426269531 526.8819580078125 404.6831359863281 526.9224853515625 403.5455017089844 C 526.5794067382812 404.3354797363281 527.3048706054688 409.8514709472656 540.6902465820312 415.6419372558594" stroke-width="0.0" fill="rgb(12, 12, 12)" opacity="0.92282635"/>
    <path d="M 580.829345703125 505.440185546875 C 580.1034545898438 505.6051025390625 582.3627319335938 504.739990234375 581.7324829101562 503.71856689453125 C 580.4536743164062 505.2406005859375 582.7244873046875 503.90289306640625 582.072265625 504.4195251464844 C 580.5240478515625 505.9027099609375 581.673095703125 505.95587158203125 581.3563842773438 503.94854736328125 C 582.51318359375 503.6998291015625 581.1315307617188 505.2015380859375 580.829345703125 505.440185546875" stroke-width="0.0" fill="rgb(255, 255, 255)" opacity="0.88501525"/>
    <path d="M 17.405879974365234 189.08961486816406 C 15.235607147216797 188.208251953125 14.612038612365723 190.03887939453125 15.42823314666748 190.25706481933594 C 13.957110404968262 187.82569885253906 15.710701942443848 187.5609130859375 17.383136749267578 188.1768035888672 C 18.676372528076172 186.52999877929688 20.62055778503418 184.6960906982422 19.302433013916016 186.47607421875 C 18.059633255004883 186.5887908935547 20.88629722595215 189.32383728027344 17.405879974365234 189.08961486816406" stroke-width="0.0" fill="rgb(255, 255, 255)" opacity="0.71519077"/>
    <path d="M 8.181747436523438 227.5648193359375 C 5.411855220794678 225.83641052246094 7.396467208862305 224.76364135742188 7.994189262390137 225.10736083984375 C 10.320938110351562 224.59397888183594 12.460345268249512 226.75697326660156 12.233846664428711 226.728515625 C 11.09017276763916 227.15869140625 9.557765007019043 227.12547302246094 12.438054084777832 228.4093017578125 C 10.521854400634766 229.94338989257812 8.693588256835938 228.75259399414062 8.181747436523438 227.5648193359375" stroke-width="0.0" fill="rgb(255, 255, 255)" opacity="0.68783337"/>
    <path d="M 33.668521881103516 280.9206237792969 C 33.15610885620117 281.7351379394531 31.770675659179688 279.8494873046875 31.75975227355957 281.8896179199219 C 32.15134811401367 282.45477294921875 30.804698944091797 283.4545593261719 33.827186584472656 284.9578552246094 C 35.139034271240234 285.0688171386719 34.562774658203125 285.348876953125 34.62079620361328 285.3639831542969 C 34.33679962158203 284.60870361328125 36.48114776611328 284.9019470214844 33.668521881103516 280.9206237792969" stroke-width="0.0" fill="rgb(255, 255, 255)" opacity="0.7291903"/>
    <path d="M 583.5517578125 124.59538269042969 C 584.1095581054688 124.38639831542969 583.328857421875 126.4814682006836 585.3031616210938 125.21073913574219 C 583.3651123046875 127.0877685546875 581.8553466796875 125.53678894042969 578.5079956054688 126.1107177734375 C 576.9910278320312 123.43247985839844 577.4894409179688 129.49392700195312 579.1737060546875 119.34088134765625 C 569.0742797851562 125.32921600341797 569.2638549804688 127.28401947021484 583.5517578125 124.59538269042969" stroke-width="0.0" fill="rgb(249, 248, 248)" opacity="0.9190707"/>
    <path d="M 49.84000778198242 583.70703125 C 49.423118591308594 582.744873046875 48.2994499206543 583.5281372070312 47.936222076416016 582.8126220703125 C 47.816184997558594 583.2935180664062 50.08368682861328 582.93701171875 48.43146514892578 583.4111328125 C 50.1265754699707 582.7373046875 50.56818771362305 584.0103759765625 49.52165603637695 583.4005126953125 C 50.9030876159668 582.5985717773438 51.18052291870117 581.1011962890625 49.84000778198242 583.70703125" stroke-width="0.0" fill="rgb(255, 255, 255)" opacity="0.8803092"/>
    <path d="M 31.952714920043945 251.41900634765625 C 31.4738712310791 252.68649291992188 29.514015197753906 251.95823669433594 27.420188903808594 253.70455932617188 C 29.19055938720703 252.4685516357422 30.88404083251953 252.54025268554688 30.550657272338867 251.82168579101562 C 31.810447692871094 254.20497131347656 33.086238861083984 252.12648010253906 33.30777359008789 252.6292724609375 C 30.731884002685547 251.1066131591797 30.287342071533203 253.31861877441406 31.952714920043945 251.41900634765625" stroke-width="0.0" fill="rgb(255, 255, 255)" opacity="0.81158614"/>
    <path d="M 589.3417358398438 552.9385375976562 C 590.1569213867188 552.4896850585938 591.4694213867188 553.927978515625 592.1683959960938 551.8076782226562 C 592.666015625 551.6255493164062 591.3895263671875 553.4771118164062 590.3836669921875 552.91748046875 C 588.2084350585938 555.77392578125 587.3374633789062 556.991455078125 588.666259765625 554.9590454101562 C 587.1920776367188 555.2721557617188 587.5921630859375 554.5029907226562 589.3417358398438 552.9385375976562" stroke-width="0.0" fill="rgb(255, 255, 255)" opacity="0.7577566"/>
    <path d="M 37.01105499267578 227.47830200195312 C 36.738216400146484 228.00579833984375 38.398460388183594 226.7303924560547 39.28529357910156 225.47998046875 C 37.722450256347656 224.19015502929688 36.24344253540039 224.49844360351562 35.492332458496094 224.8572235107422 C 36.753028869628906 223.99380493164062 37.9629020690918 224.66903686523438 40.570438385009766 225.43153381347656 C 41.17321014404297 225.94854736328125 41.91277313232422 223.8944854736328 37.01105499267578 227.47830200195312" stroke-width="0.0" fill="rgb(255, 255, 255)" opacity="0.7169644"/>
    <path d="M 566.3073120117188 6.995137691497803 C 579.99755859375 -8.938651084899902 597.6177978515625 -12.321371078491211 611.9378662109375 -7.398542881011963 C 602.312744140625 31.896730422973633 597.4275512695312 32.325897216796875 558.9421997070312 33.907466888427734 C 562.645751953125 13.757326126098633 575.845947265625 15.554573059082031 594.7711791992188 24.14737319946289 C 591.355712890625 16.578826904296875 577.9952392578125 19.29664421081543 566.3073120117188 6.995137691497803" stroke-width="0.0" fill="rgb(24, 24, 24)" opacity="0.9100419"/>
    <path d="M 2.8192121982574463 571.5511474609375 C 3.669724941253662 571.273193359375 1.2995452880859375 570.3160400390625 0.7220058441162109 569.4747314453125 C 3.031447649002075 567.7758178710938 3.5978033542633057 570.2477416992188 3.064647912979126 570.1947631835938 C 3.1657512187957764 571.5067749023438 2.504458427429199 572.24267578125 1.3390579223632812 573.0126953125 C -0.35798394680023193 575.0369873046875 0.10811151564121246 574.5936889648438 2.8192121982574463 571.5511474609375" stroke-width="0.0" fill="rgb(255, 255, 255)" opacity="0.7014009"/>
    <path d="M 586.5208740234375 298.431396484375 C 587.1482543945312 299.4510192871094 585.9473266601562 298.06573486328125 586.7799072265625 298.3470764160156 C 584.3831787109375 301.2792663574219 584.4016723632812 301.161376953125 582.5922241210938 303.18072509765625 C 580.8150634765625 303.6046142578125 581.6497192382812 305.21441650390625 581.3760986328125 304.0589294433594 C 579.3432006835938 303.88153076171875 580.977783203125 306.0845947265625 586.5208740234375 298.431396484375" stroke-width="0.0" fill="rgb(255, 255, 255)" opacity="0.80117315"/>
    <path d="M 79.82343292236328 567.8961791992188 C 69.94195556640625 557.9020385742188 75.72891998291016 547.7798461914062 42.75672912597656 541.2898559570312 C 52.782875061035156 566.7694702148438 78.32746124267578 569.6869506835938 87.08106994628906 582.487060546875 C 68.50032043457031 556.5471801757812 63.445316314697266 556.9146728515625 72.33930969238281 562.9675903320312 C 87.50383758544922 582.9443359375 84.41988372802734 580.0503540039062 79.82343292236328 567.8961791992188" stroke-width="0.0" fill="rgb(55, 55, 55)" opacity="0.8397376"/>
    <path d="M 553.82763671875 597.3375244140625 C 553.8922729492188 596.5084838867188 555.9944458007812 597.5101928710938 557.8583374023438 596.7255859375 C 556.1410522460938 596.9224853515625 557.5354614257812 598.3153686523438 556.6730346679688 600.7312622070312 C 554.92822265625 600.8111572265625 554.7100219726562 599.4100952148438 556.773681640625 600.6036987304688 C 554.7337646484375 601.3504028320312 555.4785766601562 598.9530639648438 553.82763671875 597.3375244140625" stroke-width="0.0" fill="rgb(255, 255, 255)" opacity="0.77006894"/>
    <path d="M 561.5608520507812 265.43109130859375 C 560.813720703125 264.83697509765625 563.2242431640625 264.6694030761719 562.5355834960938 262.9276123046875 C 560.978759765625 262.92352294921875 558.6640014648438 261.14056396484375 557.8014526367188 262.2274169921875 C 560.2498779296875 264.5274963378906 560.220703125 264.4676818847656 558.6848754882812 262.8735656738281 C 559.7799682617188 262.660400390625 558.7071533203125 260.97247314453125 561.5608520507812 265.43109130859375" stroke-width="0.0" fill="rgb(255, 255, 255)" opacity="0.7570424"/>
    <path d="M 592.2650756835938 534.50244140625 C 591.988037109375 532.3665161132812 590.3257446289062 532.4761352539062 589.7247924804688 533.8906860351562 C 590.4835205078125 533.2498779296875 589.3997802734375 531.917236328125 590.4129638671875 530.988037109375 C 588.7698974609375 533.093017578125 589.6074829101562 531.5646362304688 591.3488159179688 530.4813232421875 C 588.8681030273438 532.4349975585938 586.597900390625 533.2288208007812 592.2650756835938 534.50244140625" stroke-width="0.0" fill="rgb(255, 255, 255)" opacity="0.78460747"/>
    <path d="M 37.885215759277344 556.9155883789062 C 35.252689361572266 558.8281860351562 35.46769714355469 559.6241455078125 36.59028244018555 558.9168701171875 C 34.75226593017578 560.3626098632812 36.22551345825195 559.2691650390625 38.078590393066406 557.3389892578125 C 37.26923751831055 559.2338256835938 37.815608978271484 558.98388671875 38.89376449584961 560.2020263671875 C 37.045860290527344 558.4413452148438 37.90617752075195 559.6695556640625 37.885215759277344 556.9155883789062" stroke-width="0.0" fill="rgb(255, 255, 255)" opacity="0.7678935"/>
    <path d="M 430.19464111328125 25.571022033691406 C 428.7955627441406 8.509073257446289 437.813720703125 7.554511070251465 429.337158203125 27.44232940673828 C 442.801025390625 17.753578186035156 442.1454772949219 12.816448211669922 442.9314880371094 19.837812423706055 C 442.2701110839844 15.880653381347656 440.6236572265625 14.631291389465332 469.90960693359375 0.15977352857589722 C 461.65509033203125 -8.874192237854004 438.4826965332031 -5.571258544921875 430.19464111328125 25.571022033691406" stroke-width="0.0" fill="rgb(0, 0, 0)" opacity="1.0"/>
    <path d="M 544.7774658203125 -14.608386039733887 C 526.9097290039062 26.45431900024414 510.9005126953125 30.05596923828125 500.78912353515625 31.666109085083008 C 514.8980102539062 35.820213317871094 508.9987487792969 35.26141357421875 518.181640625 34.28387451171875 C 532.2188110351562 25.95623207092285 526.9177856445312 30.0883731842041 536.70263671875 24.425582885742188 C 558.2421875 21.066991806030273 563.9183349609375 0.407188355922699 544.7774658203125 -14.608386039733887" stroke-width="0.0" fill="rgb(9, 9, 9)" opacity="0.9769965"/>
    <path d="M 6.023796081542969 338.63409423828125 C 5.795079231262207 338.383056640625 8.183809280395508 336.9700927734375 8.264713287353516 336.4321594238281 C 9.0697660446167 336.52197265625 6.941852569580078 336.1227722167969 9.022416114807129 337.4456787109375 C 8.087443351745605 338.0390625 7.256465435028076 337.9895324707031 6.841670036315918 337.6286315917969 C 8.83930492401123 335.4536437988281 9.406519889831543 335.19671630859375 6.023796081542969 338.63409423828125" stroke-width="0.0" fill="rgb(255, 255, 255)" opacity="0.8092939"/>
    <path d="M 541.9454345703125 399.5899963378906 C 541.7074584960938 403.6400451660156 537.9464721679688 403.1514587402344 535.6690063476562 399.6875915527344 C 529.4273681640625 386.4822998046875 535.4718017578125 385.0777587890625 542.2984008789062 389.5083923339844 C 546.6727905273438 397.1839294433594 557.55078125 401.82391357421875 551.818603515625 375.5504150390625 C 526.0894775390625 369.90728759765625 532.6529541015625 383.7440185546875 541.9454345703125 399.5899963378906" stroke-width="0.0" fill="rgb(8, 8, 8)" opacity="0.9405846"/>
    <path d="M 557.6808471679688 263.1387634277344 C 559.9444580078125 261.8795471191406 561.5529174804688 261.1412353515625 562.3121948242188 262.91790771484375 C 563.4901733398438 263.6783142089844 561.3046264648438 263.694091796875 563.6251220703125 262.7876892089844 C 562.5006713867188 264.56390380859375 560.08349609375 262.5576171875 558.9220581054688 260.9560852050781 C 560.7257690429688 262.9597473144531 562.45556640625 262.6712341308594 557.6808471679688 263.1387634277344" stroke-width="0.0" fill="rgb(255, 255, 255)" opacity="0.82276815"/>
    <path d="M 577.5709228515625 138.2806396484375 C 576.7799072265625 127.454833984375 578.4256591796875 125.87944793701172 573.9283447265625 121.94378662109375 C 569.3967895507812 120.13594055175781 571.4606323242188 124.8572769165039 568.110595703125 132.62554931640625 C 574.0447387695312 137.43450927734375 576.934814453125 133.90451049804688 574.9427490234375 164.83616638183594 C 559.4814453125 145.92933654785156 563.3485717773438 135.5476531982422 577.5709228515625 138.2806396484375" stroke-width="0.0" fill="rgb(133, 132, 133)" opacity="1.0"/>
    <path d="M 544.3980102539062 461.6086120605469 C 530.849365234375 487.2031555175781 527.2335205078125 485.09405517578125 530.8072509765625 474.33599853515625 C 530.2783813476562 482.66357421875 532.5901489257812 487.0674133300781 525.8257446289062 488.36669921875 C 518.7252197265625 464.5560607910156 526.60595703125 456.7617492675781 526.513427734375 458.9666442871094 C 520.2294921875 461.2757568359375 530.1868896484375 457.79071044921875 544.3980102539062 461.6086120605469" stroke-width="0.0" fill="rgb(0, 0, 0)" opacity="1.0"/>
    <path d="M 1.6337366104125977 267.0843200683594 C 3.772639036178589 264.7708435058594 3.0790462493896484 265.72467041015625 3.654459238052368 266.5823059082031 C 2.6718392372131348 264.46435546875 2.550769329071045 263.0701599121094 5.315047740936279 261.2951354980469 C 4.339751720428467 259.8391418457031 5.294732093811035 259.7249450683594 6.915056228637695 260.5943603515625 C 5.8039069175720215 260.07696533203125 7.754167556762695 260.3962097167969 1.6337366104125977 267.0843200683594" stroke-width="0.0" fill="rgb(255, 255, 255)" opacity="0.7146741"/>
    <path d="M 538.509521484375 36.449623107910156 C 528.0968017578125 28.41356086730957 531.485595703125 25.38738250732422 539.2605590820312 23.268198013305664 C 538.9851684570312 26.954933166503906 538.6607055664062 24.395862579345703 560.4593505859375 16.32447052001953 C 552.1923217773438 38.386253356933594 539.4053955078125 31.20794677734375 544.6773071289062 22.703081130981445 C 543.0436401367188 22.030776977539062 540.1190795898438 21.653148651123047 538.509521484375 36.449623107910156" stroke-width="0.0" fill="rgb(166, 165, 165)" opacity="0.8326238"/>
    <path d="M 76.80789184570312 9.8173828125 C 86.65717315673828 26.24492073059082 100.05928039550781 20.443252563476562 117.39067840576172 19.39320945739746 C 114.54412841796875 21.075775146484375 112.53301239013672 15.060685157775879 105.01185607910156 -11.80247974395752 C 84.6286849975586 -8.014701843261719 87.65242767333984 1.069359540939331 87.71873474121094 -8.262988090515137 C 106.6179428100586 -2.8671040534973145 86.78484344482422 -6.997915744781494 76.80789184570312 9.8173828125" stroke-width="0.0" fill="rgb(0, 0, 0)" opacity="0.98262966"/>
    <path d="M 567.5695190429688 374.6656799316406 C 527.6643676757812 383.2630920410156 531.48779296875 390.38128662109375 537.2779541015625 393.93695068359375 C 535.2625122070312 402.6182556152344 536.1492309570312 402.8193664550781 531.3567504882812 401.2881164550781 C 533.786376953125 401.16534423828125 528.8855590820312 412.5036315917969 529.263671875 427.29840087890625 C 569.8286743164062 432.4544677734375 574.1900024414062 428.5496520996094 567.5695190429688 374.6656799316406" stroke-width="0.0" fill="rgb(0, 0, 0)" opacity="0.975215"/>
    <path d="M 80.9299087524414 588.8831176757812 C 79.46328735351562 588.3121337890625 80.81926727294922 589.5244140625 81.47570037841797 588.0924682617188 C 81.51290130615234 589.3809814453125 81.62646484375 590.9370727539062 81.4565658569336 588.910888671875 C 81.62798309326172 588.0213623046875 81.44601440429688 586.7988891601562 80.45826721191406 587.9891967773438 C 81.07396697998047 587.421142578125 82.24391174316406 587.5264282226562 80.9299087524414 588.8831176757812" stroke-width="0.0" fill="rgb(255, 255, 255)" opacity="0.86843735"/>
    <path d="M 555.3017578125 302.9910888671875 C 555.4136962890625 304.9347229003906 554.4126586914062 307.3961181640625 554.2048950195312 309.1847839355469 C 553.3976440429688 310.8018493652344 553.304443359375 311.7835693359375 554.7151489257812 311.18902587890625 C 554.7805786132812 310.5998840332031 553.6256103515625 311.8115234375 551.8958129882812 312.27337646484375 C 551.7255249023438 313.4952697753906 553.8189697265625 315.04437255859375 555.3017578125 302.9910888671875" stroke-width="0.0" fill="rgb(255, 255, 255)" opacity="0.7067093"/>
    <path d="M 574.9310913085938 279.9331970214844 C 572.81640625 281.26953125 574.0889282226562 280.5338439941406 572.1175537109375 281.86199951171875 C 569.5156860351562 283.62811279296875 567.7764282226562 284.6637878417969 569.7892456054688 284.71728515625 C 571.947265625 284.50714111328125 571.233154296875 286.7079772949219 570.6570434570312 284.7933044433594 C 567.8262939453125 284.3603210449219 565.6793212890625 286.24639892578125 574.9310913085938 279.9331970214844" stroke-width="0.0" fill="rgb(255, 255, 255)" opacity="0.74220616"/>
    <path d="M 33.61376190185547 509.8880920410156 C 32.47510528564453 510.7310791015625 30.609737396240234 511.0653076171875 29.47930908203125 513.2473754882812 C 27.972978591918945 511.4538879394531 26.894325256347656 511.0001525878906 28.98740005493164 509.7990417480469 C 31.270858764648438 506.94842529296875 31.206562042236328 507.6695251464844 31.07252311706543 509.3036193847656 C 31.368791580200195 510.1498107910156 29.615774154663086 512.345458984375 33.61376190185547 509.8880920410156" stroke-width="0.0" fill="rgb(255, 255, 255)" opacity="0.70749635"/>
    <path d="M 535.8695068359375 443.2001647949219 C 539.9710083007812 488.3316345214844 551.9114379882812 485.78924560546875 560.8931274414062 487.79754638671875 C 572.66162109375 479.49444580078125 572.4547119140625 469.8536682128906 573.1717529296875 465.69891357421875 C 574.0620727539062 470.67803955078125 571.6846313476562 459.4182434082031 569.442138671875 457.3345031738281 C 568.2847290039062 464.4217224121094 577.9635009765625 444.43414306640625 535.8695068359375 443.2001647949219" stroke-width="0.0" fill="rgb(13, 13, 13)" opacity="0.90379655"/>
    <path d="M 540.6055297851562 401.3927001953125 C 548.351806640625 445.446044921875 554.016845703125 443.51300048828125 565.7359008789062 443.86834716796875 C 572.6867065429688 427.2288818359375 573.6409301757812 428.105224609375 572.6549072265625 428.6315612792969 C 575.8660278320312 423.69287109375 579.3690795898438 429.4678649902344 569.6104736328125 393.9029846191406 C 562.8683471679688 392.4780578613281 553.6953735351562 396.021240234375 540.6055297851562 401.3927001953125" stroke-width="0.0" fill="rgb(0, 0, 0)" opacity="0.98671854"/>
    <path d="M 526.744873046875 494.04144287109375 C 546.8702392578125 498.71429443359375 556.1962890625 498.8380126953125 563.2539672851562 456.1065368652344 C 556.6425170898438 447.2559509277344 526.1199340820312 448.02899169921875 527.0027465820312 454.36492919921875 C 544.1007690429688 476.32513427734375 545.1670532226562 475.99871826171875 542.9412841796875 476.3743591308594 C 533.7217407226562 473.17218017578125 529.23828125 467.0618591308594 526.744873046875 494.04144287109375" stroke-width="0.0" fill="rgb(29, 29, 29)" opacity="0.8879156"/>
    <path d="M 554.4148559570312 572.1329956054688 C 556.1615600585938 572.57177734375 555.0232543945312 572.5736083984375 554.9627685546875 572.599365234375 C 552.9542236328125 571.2234497070312 552.89111328125 568.982666015625 550.7831420898438 570.250732421875 C 552.8402099609375 568.7733154296875 550.6034545898438 569.6908569335938 550.9906616210938 571.2884521484375 C 551.1903686523438 572.0670776367188 550.0530395507812 574.1141967773438 554.4148559570312 572.1329956054688" stroke-width="0.0" fill="rgb(255, 255, 255)" opacity="0.7078211"/>
    <path d="M 556.0667724609375 493.5914611816406 C 548.7689819335938 525.97265625 542.9448852539062 516.8340454101562 536.5126342773438 508.51031494140625 C 538.6423950195312 508.7511901855469 535.9302368164062 508.911865234375 539.98486328125 512.4249877929688 C 539.1842041015625 505.1815490722656 527.0103759765625 509.64459228515625 526.796142578125 490.573486328125 C 548.7274169921875 485.34814453125 555.30712890625 482.56915283203125 556.0667724609375 493.5914611816406" stroke-width="0.0" fill="rgb(0, 0, 0)" opacity="0.9333427"/>
    <path d="M 596.9819946289062 131.7841033935547 C 596.4105224609375 131.38836669921875 595.837890625 132.96327209472656 596.2568969726562 133.9536895751953 C 597.6278686523438 134.2296142578125 597.4331665039062 135.8155517578125 595.4025268554688 136.7930145263672 C 593.923583984375 137.46340942382812 594.0678100585938 136.54783630371094 594.101806640625 136.0232391357422 C 590.8944091796875 135.14512634277344 588.4473266601562 134.2710723876953 596.9819946289062 131.7841033935547" stroke-width="0.0" fill="rgb(255, 255, 255)" opacity="0.6588549"/>
    <path d="M 76.90569305419922 20.0407657623291 C 77.31871032714844 0.9651639461517334 76.14427185058594 0.588999330997467 78.58639526367188 -9.97126293182373 C 88.01038360595703 -6.650261402130127 79.62773132324219 2.803185224533081 83.1198959350586 10.306408882141113 C 81.423583984375 -6.208967685699463 82.19001007080078 -11.633949279785156 108.31055450439453 -2.400116443634033 C 101.12075805664062 22.249475479125977 91.188720703125 19.607337951660156 76.90569305419922 20.0407657623291" stroke-width="0.0" fill="rgb(0, 0, 0)" opacity="1.0"/>
    <path d="M 22.618942260742188 507.68914794921875 C 19.43230438232422 509.7079162597656 19.67601203918457 509.1629943847656 20.09685707092285 510.8437194824219 C 19.19944190979004 511.65142822265625 20.747770309448242 513.4216918945312 21.173866271972656 513.7864379882812 C 21.381725311279297 514.9456787109375 19.327547073364258 515.1923828125 20.246662139892578 515.9348754882812 C 21.377195358276367 516.1637573242188 24.375661849975586 516.0560302734375 22.618942260742188 507.68914794921875" stroke-width="0.0" fill="rgb(255, 255, 255)" opacity="0.64823914"/>
    <path d="M 555.9163818359375 264.05413818359375 C 557.4160766601562 264.73406982421875 559.1463623046875 263.31365966796875 557.2984008789062 262.8937683105469 C 558.3773803710938 260.4573059082031 557.2681274414062 262.6357727050781 557.0716552734375 263.8993835449219 C 556.1307373046875 264.2781066894531 554.6369018554688 265.5622863769531 556.2429809570312 264.9522705078125 C 556.1146240234375 266.5097351074219 556.1036987304688 266.686767578125 555.9163818359375 264.05413818359375" stroke-width="0.0" fill="rgb(255, 255, 255)" opacity="0.74656236"/>
    <path d="M 67.85092163085938 548.6488647460938 C 48.8508186340332 530.8318481445312 42.401241302490234 530.4201049804688 45.34648132324219 544.3071899414062 C 55.030364990234375 561.187744140625 58.978858947753906 561.4330444335938 59.28401565551758 562.701416015625 C 69.30104064941406 566.1368408203125 75.63219451904297 572.1605834960938 84.0772705078125 579.2399291992188 C 84.76306915283203 557.50146484375 75.5349349975586 556.1769409179688 67.85092163085938 548.6488647460938" stroke-width="0.0" fill="rgb(0, 0, 0)" opacity="0.99759984"/>
    <path d="M 34.002685546875 177.36810302734375 C 36.32247543334961 175.25559997558594 37.47068405151367 173.9249267578125 38.30657958984375 173.4186553955078 C 35.57499313354492 172.1979217529297 35.228206634521484 173.16378784179688 33.55584716796875 175.3054656982422 C 31.274503707885742 174.4664764404297 29.66126823425293 174.47862243652344 27.97463607788086 172.45689392089844 C 28.027889251708984 170.62957763671875 28.95521354675293 172.8479461669922 34.002685546875 177.36810302734375" stroke-width="0.0" fill="rgb(255, 255, 255)" opacity="0.6347176"/>
    <path d="M 98.27816772460938 1.3929460048675537 C 96.37139129638672 28.880931854248047 104.71226501464844 18.858280181884766 112.21891021728516 21.26907730102539 C 121.3213882446289 20.125394821166992 127.2979507446289 22.94808578491211 119.6985855102539 18.703073501586914 C 114.27949523925781 13.569038391113281 118.89137268066406 17.016983032226562 120.0753402709961 20.389728546142578 C 121.00043487548828 24.89849090576172 122.14952850341797 13.955477714538574 98.27816772460938 1.3929460048675537" stroke-width="0.0" fill="rgb(0, 0, 0)" opacity="0.916079"/>
    <path d="M 76.6617431640625 9.296941757202148 C 77.74764251708984 8.250958442687988 78.228759765625 7.916488170623779 76.15400695800781 9.745160102844238 C 77.169677734375 8.585492134094238 76.6695785522461 10.296531677246094 76.95436096191406 10.563281059265137 C 75.99101257324219 6.301887035369873 75.99603271484375 6.813767433166504 75.98816680908203 7.301570892333984 C 76.37567901611328 6.359291076660156 75.3409194946289 4.388183116912842 76.6617431640625 9.296941757202148" stroke-width="0.0" fill="rgb(39, 39, 39)" opacity="0.7261308"/>
    <path d="M 573.234619140625 468.46905517578125 C 554.2383422851562 496.5559387207031 559.2257690429688 508.4938049316406 547.9188842773438 509.008056640625 C 547.2445068359375 501.3690185546875 550.190673828125 503.7748107910156 534.1824951171875 507.18603515625 C 533.5687866210938 495.4457702636719 533.532470703125 485.882080078125 536.7738647460938 456.9245910644531 C 564.0075073242188 456.6551208496094 570.2948608398438 457.8841247558594 573.234619140625 468.46905517578125" stroke-width="0.0" fill="rgb(0, 0, 0)" opacity="0.94203025"/>
    <path d="M 596.1500854492188 102.07584381103516 C 595.182373046875 100.88482666015625 593.279541015625 100.82533264160156 594.0247192382812 99.947998046875 C 596.0537719726562 100.23528289794922 596.2052001953125 101.7053451538086 595.4319458007812 100.3912353515625 C 594.1910400390625 99.92558288574219 593.3235473632812 99.96084594726562 594.0007934570312 100.60022735595703 C 596.431884765625 102.30782318115234 596.8099365234375 102.10047912597656 596.1500854492188 102.07584381103516" stroke-width="0.0" fill="rgb(255, 255, 255)" opacity="0.8310125"/>
    <path d="M 571.702880859375 438.39996337890625 C 572.21337890625 438.93145751953125 571.00537109375 438.77447509765625 570.4694213867188 440.5879821777344 C 571.4971313476562 439.3305358886719 569.8077392578125 440.2168273925781 567.2110595703125 440.65728759765625 C 570.2642211914062 438.0545959472656 570.0013427734375 435.0619812011719 569.2769165039062 430.8825988769531 C 570.1903076171875 436.02587890625 566.6570434570312 433.3612976074219 571.702880859375 438.39996337890625" stroke-width="0.0" fill="rgb(206, 205, 205)" opacity="0.7491157"/>
    <path d="M 24.42658233642578 570.37158203125 C 21.684585571289062 569.9579467773438 20.235698699951172 569.5562133789062 18.284502029418945 573.5729370117188 C 17.828845977783203 574.7489013671875 17.36572265625 573.2595825195312 18.06479263305664 573.4015502929688 C 20.42002296447754 571.3652954101562 19.873220443725586 568.9880981445312 18.7099609375 569.8675537109375 C 17.520008087158203 570.9727172851562 16.017372131347656 569.14111328125 24.42658233642578 570.37158203125" stroke-width="0.0" fill="rgb(255, 255, 255)" opacity="0.6926071"/>
    <path d="M 542.10791015625 35.067325592041016 C 584.8189086914062 39.34137725830078 578.0800170898438 33.978416442871094 572.5237426757812 18.625444412231445 C 567.4896850585938 14.281604766845703 567.6035766601562 15.09725570678711 571.7269897460938 17.70686912536621 C 573.0536499023438 12.513038635253906 573.7124633789062 9.553704261779785 548.0469970703125 -11.66473388671875 C 540.2262573242188 -11.516313552856445 538.2616577148438 -13.355618476867676 542.10791015625 35.067325592041016" stroke-width="0.0" fill="rgb(0, 0, 0)" opacity="1.0"/>
    <path d="M 563.0643920898438 230.05230712890625 C 561.4676513671875 229.3450927734375 562.3970336914062 231.52613830566406 561.017822265625 229.23179626464844 C 562.1806640625 231.102294921875 563.0993041992188 231.80953979492188 564.0197143554688 232.3717803955078 C 564.1776733398438 234.19754028320312 563.75634765625 234.9666748046875 565.6085205078125 235.99008178710938 C 563.329833984375 237.41766357421875 562.6297607421875 239.72540283203125 563.0643920898438 230.05230712890625" stroke-width="0.0" fill="rgb(255, 255, 255)" opacity="0.6897375"/>
    <path d="M 587.5138549804688 144.61080932617188 C 588.5460205078125 145.1910858154297 587.8566284179688 147.55633544921875 587.7344360351562 145.08787536621094 C 586.7613525390625 143.48048400878906 584.9168090820312 139.83932495117188 581.5034790039062 141.50416564941406 C 575.2254028320312 150.48561096191406 571.6476440429688 150.74305725097656 571.5093383789062 139.76657104492188 C 576.9664306640625 135.7210693359375 577.0818481445312 135.34803771972656 587.5138549804688 144.61080932617188" stroke-width="0.0" fill="rgb(170, 170, 170)" opacity="1.0"/>
    <path d="M 10.344218254089355 346.1781311035156 C 9.112706184387207 344.722412109375 9.16174030303955 343.95068359375 7.635499954223633 341.4820251464844 C 7.844081878662109 342.3970642089844 9.264602661132812 342.9815979003906 8.866024017333984 342.880615234375 C 6.812804698944092 341.876953125 9.129281044006348 342.3681335449219 10.401693344116211 340.71807861328125 C 8.379361152648926 338.9396057128906 6.165551662445068 339.8900146484375 10.344218254089355 346.1781311035156" stroke-width="0.0" fill="rgb(255, 255, 255)" opacity="0.7941525"/>
    <path d="M 550.9060668945312 25.728166580200195 C 530.1055297851562 23.460416793823242 534.2255249023438 33.17844772338867 543.0503540039062 42.126590728759766 C 552.582763671875 38.23967361450195 552.0110473632812 36.362876892089844 550.1878662109375 39.9397087097168 C 546.6618041992188 37.88362503051758 545.9208984375 39.678428649902344 547.7317504882812 37.89628219604492 C 547.8917846679688 40.75896072387695 552.7095947265625 41.95186996459961 550.9060668945312 25.728166580200195" stroke-width="0.0" fill="rgb(213, 212, 212)" opacity="0.8423182"/>
    <path d="M 8.854854583740234 353.2538757324219 C 7.043729305267334 352.1715393066406 7.96223783493042 351.2157897949219 9.20765495300293 349.89947509765625 C 8.29086685180664 349.4173889160156 9.292924880981445 350.7804870605469 8.079141616821289 350.8619689941406 C 10.066855430603027 350.9675598144531 11.285486221313477 352.0775146484375 10.908653259277344 353.8846130371094 C 11.901105880737305 353.7157897949219 9.42916488647461 354.7588195800781 8.854854583740234 353.2538757324219" stroke-width="0.0" fill="rgb(255, 255, 255)" opacity="0.7193628"/>
    <path d="M 512.4575805664062 598.2604370117188 C 510.9824523925781 596.4037475585938 511.0659484863281 596.3347778320312 510.3610534667969 597.1651000976562 C 510.90399169921875 596.3956909179688 512.1535034179688 595.1266479492188 513.6768188476562 593.9442749023438 C 513.9627075195312 591.9541015625 515.1381225585938 591.5012817382812 514.2991943359375 591.5549926757812 C 515.4805297851562 593.2957763671875 516.251953125 594.8245849609375 512.4575805664062 598.2604370117188" stroke-width="0.0" fill="rgb(255, 255, 255)" opacity="0.67166454"/>
    <path d="M 81.02212524414062 576.4629516601562 C 77.82115936279297 574.0443115234375 75.79224395751953 570.747314453125 70.08356475830078 570.5474243164062 C 75.59957122802734 570.91796875 75.53370666503906 572.48583984375 78.26953887939453 573.7454833984375 C 78.3173828125 571.74658203125 77.16627502441406 575.2487182617188 77.42462921142578 575.551025390625 C 83.57035064697266 579.6119384765625 86.79399871826172 582.0900268554688 81.02212524414062 576.4629516601562" stroke-width="0.0" fill="rgb(170, 170, 170)" opacity="0.91995555"/>
    <path d="M 12.615586280822754 301.2521057128906 C 12.303023338317871 300.287109375 14.456942558288574 301.45758056640625 15.294548034667969 302.2043151855469 C 14.131473541259766 300.725341796875 13.935707092285156 302.8848876953125 11.912232398986816 301.9512634277344 C 11.853509902954102 301.30963134765625 12.348611831665039 300.37725830078125 10.468965530395508 300.0072326660156 C 9.589674949645996 298.130126953125 7.817920207977295 296.8973083496094 12.615586280822754 301.2521057128906" stroke-width="0.0" fill="rgb(255, 255, 255)" opacity="0.7719828"/>
    <path d="M 24.46533966064453 158.17230224609375 C 22.55217742919922 156.25035095214844 24.754669189453125 157.83251953125 23.955108642578125 159.61370849609375 C 23.570402145385742 158.32229614257812 23.741621017456055 160.59335327148438 24.1391658782959 158.7757110595703 C 24.014671325683594 157.6738739013672 23.638578414916992 156.9181365966797 24.576940536499023 156.80487060546875 C 23.9261417388916 156.51268005371094 26.19546127319336 157.47068786621094 24.46533966064453 158.17230224609375" stroke-width="0.0" fill="rgb(255, 255, 255)" opacity="0.8427311"/>
    <path d="M 441.8754577636719 17.852197647094727 C 447.0399475097656 -3.6978046894073486 438.2651672363281 6.236778736114502 429.322265625 15.59514045715332 C 428.22711181640625 16.695783615112305 428.8761291503906 14.849732398986816 428.89813232421875 15.506709098815918 C 428.6194763183594 14.19116497039795 427.05145263671875 15.9599027633667 428.4252014160156 14.74634838104248 C 428.9123840332031 11.7439546585083 425.3658447265625 20.155658721923828 441.8754577636719 17.852197647094727" stroke-width="0.0" fill="rgb(0, 0, 0)" opacity="0.78147554"/>
    <path d="M 573.05126953125 340.3545837402344 C 543.2536010742188 363.0344543457031 539.6478271484375 368.4536437988281 542.2700805664062 321.6407165527344 C 570.2999877929688 330.22760009765625 560.8801879882812 340.5823059082031 557.7666625976562 360.71197509765625 C 546.8848876953125 363.20562744140625 544.119384765625 360.01947021484375 545.0797729492188 361.54840087890625 C 538.9041137695312 357.2522888183594 560.973388671875 372.95172119140625 573.05126953125 340.3545837402344" stroke-width="0.0" fill="rgb(15, 15, 15)" opacity="0.9825337"/>
    <path d="M 548.819580078125 508.5938415527344 C 521.9022216796875 504.0945739746094 522.3842163085938 496.51324462890625 523.230224609375 478.91766357421875 C 520.8655395507812 471.0869445800781 534.6522216796875 468.90142822265625 545.4077758789062 469.6153259277344 C 533.7174072265625 486.0794982910156 534.9569702148438 485.9412536621094 544.8409423828125 479.0293273925781 C 552.1296997070312 484.1152648925781 555.7892456054688 502.50146484375 548.819580078125 508.5938415527344" stroke-width="0.0" fill="rgb(0, 0, 0)" opacity="0.99601716"/>
    <path d="M 599.9570922851562 -3.334868907928467 C 576.0645751953125 15.556118965148926 584.5580444335938 24.55247688293457 575.1417236328125 36.78620910644531 C 584.6038208007812 37.3943977355957 588.2381591796875 37.14659118652344 598.4296875 36.84529113769531 C 603.2627563476562 37.23727798461914 603.507080078125 33.28544616699219 604.3423461914062 30.889930725097656 C 607.9537963867188 28.587879180908203 618.3471069335938 19.111900329589844 599.9570922851562 -3.334868907928467" stroke-width="0.0" fill="rgb(0, 0, 0)" opacity="1.0"/>
    <path d="M 564.9374389648438 7.116655349731445 C 563.6045532226562 42.69244384765625 565.8630981445312 36.39832305908203 576.671142578125 36.8871955871582 C 599.9276123046875 36.048030853271484 597.4899291992188 28.28137969970703 595.5880737304688 29.0736141204834 C 598.4464111328125 27.565811157226562 600.7495727539062 29.057863235473633 602.4707641601562 24.65035629272461 C 600.7666015625 19.410350799560547 607.6232299804688 9.843416213989258 564.9374389648438 7.116655349731445" stroke-width="0.0" fill="rgb(0, 0, 0)" opacity="0.92618424"/>
    <path d="M 19.721094131469727 266.38250732421875 C 17.346113204956055 266.8817138671875 15.842456817626953 267.80120849609375 16.19101333618164 265.5918273925781 C 14.277508735656738 267.432373046875 13.670605659484863 267.60101318359375 12.161128044128418 267.1143493652344 C 13.104180335998535 267.44342041015625 13.2932767868042 267.39990234375 13.414803504943848 267.4261169433594 C 11.400862693786621 267.4400634765625 12.370892524719238 267.651611328125 19.721094131469727 266.38250732421875" stroke-width="0.0" fill="rgb(255, 255, 255)" opacity="0.74643004"/>
    <path d="M 8.906737327575684 260.85760498046875 C 9.366203308105469 260.11676025390625 11.588249206542969 257.8121337890625 12.209477424621582 257.2481384277344 C 9.556488037109375 256.3934326171875 11.888851165771484 256.49639892578125 10.807405471801758 254.6442108154297 C 8.962350845336914 256.464599609375 6.655773162841797 258.8820495605469 5.410383224487305 260.3681945800781 C 3.0028703212738037 262.0305480957031 2.421607255935669 262.3487548828125 8.906737327575684 260.85760498046875" stroke-width="0.0" fill="rgb(255, 255, 255)" opacity="0.6520148"/>
    <path d="M 493.06781005859375 -4.042823791503906 C 492.99700927734375 12.386520385742188 490.5435791015625 12.494168281555176 480.8000793457031 15.609092712402344 C 474.8359375 10.677092552185059 478.6340026855469 8.48093318939209 478.6048583984375 10.189708709716797 C 477.3883056640625 13.669323921203613 475.2464599609375 11.154352188110352 473.12152099609375 6.623498439788818 C 472.8006286621094 4.787380695343018 470.8725280761719 -0.03378020226955414 493.06781005859375 -4.042823791503906" stroke-width="0.0" fill="rgb(195, 194, 195)" opacity="0.77851343"/>
    <path d="M 524.0257568359375 462.99365234375 C 536.427490234375 462.9019775390625 548.2086181640625 454.0180969238281 548.00634765625 431.6089782714844 C 528.488037109375 435.65313720703125 526.2457275390625 432.2550964355469 527.1778564453125 439.4347839355469 C 526.7955322265625 437.732666015625 527.4288940429688 434.7502746582031 526.943359375 440.15533447265625 C 527.2510986328125 437.2572937011719 527.8544311523438 432.2469177246094 524.0257568359375 462.99365234375" stroke-width="0.0" fill="rgb(1, 1, 1)" opacity="1.0"/>
    <path d="M 7.307487487792969 213.57366943359375 C 4.640052318572998 212.82289123535156 6.157235622406006 212.1044464111328 4.548561096191406 212.74546813964844 C 3.070481538772583 213.51385498046875 2.02795147895813 211.2748565673828 1.465815782546997 210.72080993652344 C 0.6227678656578064 209.5778350830078 1.4789470434188843 208.64454650878906 0.21237097680568695 209.16629028320312 C -1.1485154628753662 208.74839782714844 -1.4465786218643188 209.83901977539062 7.307487487792969 213.57366943359375" stroke-width="0.0" fill="rgb(255, 255, 255)" opacity="0.68832624"/>
    <path d="M 600.31884765625 -8.206400871276855 C 583.0067138671875 24.637603759765625 577.3056030273438 20.398487091064453 585.2218017578125 19.431913375854492 C 587.3953247070312 26.497440338134766 584.8605346679688 33.0567741394043 560.5266723632812 34.05979537963867 C 563.2052612304688 12.605871200561523 560.707275390625 10.615629196166992 555.1494140625 -9.719351768493652 C 576.4530029296875 -9.483598709106445 587.8026733398438 -13.483116149902344 600.31884765625 -8.206400871276855" stroke-width="0.0" fill="rgb(0, 0, 0)" opacity="0.9924347"/>
    <path d="M 44.08776092529297 315.8633117675781 C 44.741294860839844 315.78192138671875 45.47853088378906 317.172119140625 46.394168853759766 318.068359375 C 45.23097229003906 318.0005187988281 42.93991470336914 317.35626220703125 41.39392852783203 319.0289611816406 C 40.536529541015625 318.621826171875 40.768672943115234 316.80291748046875 41.60758972167969 317.09552001953125 C 43.22105407714844 315.20794677734375 43.8033447265625 313.83868408203125 44.08776092529297 315.8633117675781" stroke-width="0.0" fill="rgb(255, 255, 255)" opacity="0.6941473"/>
    <path d="M 522.9390869140625 467.8135681152344 C 549.3810424804688 468.1995849609375 553.7756958007812 464.5805358886719 564.6585083007812 460.7362976074219 C 566.6416625976562 446.2982177734375 566.5524291992188 447.9759826660156 570.5005493164062 415.7778625488281 C 565.8433837890625 409.48785400390625 562.0095825195312 406.9017028808594 534.5003051757812 410.63421630859375 C 542.2827758789062 435.21923828125 539.5184326171875 425.7954406738281 522.9390869140625 467.8135681152344" stroke-width="0.0" fill="rgb(0, 0, 0)" opacity="0.8557052"/>
    <path d="M 596.8156127929688 137.9201202392578 C 598.1152954101562 138.8751220703125 596.4273071289062 137.99362182617188 597.419677734375 137.3004150390625 C 595.6586303710938 138.894775390625 596.9984130859375 140.8375244140625 595.4270629882812 139.6874542236328 C 594.1713256835938 141.79124450683594 596.3501586914062 142.5903778076172 596.9557495117188 141.8478546142578 C 595.1661376953125 143.21728515625 595.635009765625 141.22891235351562 596.8156127929688 137.9201202392578" stroke-width="0.0" fill="rgb(255, 255, 255)" opacity="0.80276096"/>
    <path d="M 585.0617065429688 89.53063201904297 C 581.69775390625 111.8540267944336 579.7179565429688 126.06405639648438 572.7725830078125 151.58123779296875 C 561.153076171875 133.46533203125 574.165283203125 107.2015380859375 568.7152709960938 103.36750030517578 C 573.0298461914062 111.8595199584961 570.1946411132812 107.81739044189453 568.8856811523438 111.82953643798828 C 575.5333862304688 105.11272430419922 563.9254150390625 86.5399169921875 585.0617065429688 89.53063201904297" stroke-width="0.0" fill="rgb(0, 0, 0)" opacity="0.98433435"/>
  </g>
</svg>
