<?xml version="1.0" ?>
<svg xmlns="http://www.w3.org/2000/svg" version="1.1" width="600" height="600">
  <defs/>
  <g>
    <path d="M 294.7523193359375 586.6582641601562 C 295.8598937988281 587.6563720703125 297.3096618652344 586.2434692382812 295.63250732421875 587.0745239257812 C 296.89678955078125 586.7008056640625 295.2904052734375 588.947265625 294.06597900390625 589.1975708007812 C 293.27813720703125 590.3107299804688 294.3946838378906 591.4639282226562 296.38653564453125 592.3212280273438 C 297.3858337402344 593.6217041015625 296.4040222167969 593.7947387695312 294.7523193359375 586.6582641601562" stroke-width="0.0" fill="rgb(255, 255, 255)" opacity="0.68697536"/>
    <path d="M 263.0353088378906 599.4652709960938 C 265.2438659667969 597.2777709960938 265.34918212890625 597.3114624023438 265.8720703125 597.386474609375 C 263.7453308105469 597.01904296875 263.30596923828125 596.4203491210938 262.8846435546875 598.1392822265625 C 263.74267578125 597.6365966796875 263.2865905761719 598.29345703125 264.9830627441406 597.9013671875 C 265.5008239746094 595.4844970703125 262.7999572753906 593.30126953125 263.0353088378906 599.4652709960938" stroke-width="0.0" fill="rgb(255, 255, 255)" opacity="0.76201516"/>
    <path d="M 21.337787628173828 557.2407836914062 C 20.29595184326172 558.269287109375 22.58000373840332 556.596923828125 19.869388580322266 559.4043579101562 C 19.381399154663086 555.7963256835938 21.057294845581055 557.1553955078125 21.958791732788086 556.4326171875 C 20.023521423339844 557.3502807617188 18.12468147277832 557.2531127929688 20.428709030151367 555.4083251953125 C 18.96143913269043 556.80712890625 18.607736587524414 556.489013671875 21.337787628173828 557.2407836914062" stroke-width="0.0" fill="rgb(255, 255, 255)" opacity="0.7524821"/>
    <path d="M 39.38775634765625 583.578125 C 38.212642669677734 585.1624755859375 37.56505584716797 587.5752563476562 37.57733917236328 588.2792358398438 C 34.73681640625 587.41259765625 32.527626037597656 588.4616088867188 30.7916202545166 587.75390625 C 28.946975708007812 587.5147094726562 27.207937240600586 589.9467163085938 27.556259155273438 589.4606323242188 C 27.130773544311523 590.0796508789062 28.271533966064453 587.562744140625 39.38775634765625 583.578125" stroke-width="0.0" fill="rgb(255, 255, 255)" opacity="0.6484294"/>
    <path d="M 28.912050247192383 562.6987915039062 C 29.11590576171875 562.1896362304688 29.498876571655273 560.0314331054688 27.659317016601562 561.2592163085938 C 25.560779571533203 560.4332275390625 26.819536209106445 561.091064453125 24.45350456237793 563.2645874023438 C 23.11380958557129 562.03125 24.590309143066406 561.467529296875 25.266515731811523 562.2915649414062 C 26.88054656982422 561.0887451171875 24.467357635498047 564.1083984375 28.912050247192383 562.6987915039062" stroke-width="0.0" fill="rgb(255, 255, 255)" opacity="0.725642"/>
    <path d="M 1.8286893367767334 542.054443359375 C 2.8020384311676025 539.9554443359375 2.277981758117676 538.8432006835938 2.4932327270507812 539.8029174804688 C 4.080134868621826 539.5411376953125 2.114710807800293 539.26806640625 -0.3148563504219055 538.3648071289062 C -1.1934072971343994 537.15576171875 0.4522247910499573 536.9556884765625 1.8622486591339111 537.03125 C 1.9246201515197754 537.0838623046875 4.661159038543701 535.9463500976562 1.8286893367767334 542.054443359375" stroke-width="0.0" fill="rgb(255, 255, 255)" opacity="0.80643946"/>
    <path d="M 20.840499877929688 320.843994140625 C 22.038022994995117 318.74066162109375 19.317684173583984 320.47503662109375 17.847522735595703 320.1097717285156 C 16.219438552856445 320.3775634765625 18.18194580078125 320.438232421875 19.898027420043945 320.05657958984375 C 20.094844818115234 321.4404602050781 20.148733139038086 321.9240417480469 19.096763610839844 322.1366882324219 C 20.78447151184082 322.2108459472656 18.350231170654297 322.16357421875 20.840499877929688 320.843994140625" stroke-width="0.0" fill="rgb(255, 255, 255)" opacity="0.82119787"/>
    <path d="M 6.618497848510742 297.125732421875 C 3.736743211746216 297.4194641113281 1.8620613813400269 294.8609619140625 3.6060078144073486 295.826904296875 C 2.1821815967559814 295.2963562011719 3.6443352699279785 295.7939147949219 2.095134735107422 295.1907043457031 C 3.7872653007507324 296.4874572753906 5.101998329162598 298.0823974609375 3.9152719974517822 296.4425964355469 C 3.715137243270874 300.40643310546875 3.859771728515625 299.4860534667969 6.618497848510742 297.125732421875" stroke-width="0.0" fill="rgb(255, 255, 255)" opacity="0.71196187"/>
    <path d="M 64.56433868408203 588.203125 C 63.86155700683594 589.9307250976562 62.534584045410156 588.21875 60.93592071533203 589.3495483398438 C 58.73240661621094 592.0805053710938 60.37977981567383 592.4903564453125 61.18100357055664 591.6494750976562 C 60.13028335571289 592.7713623046875 62.52210998535156 593.1766357421875 62.044471740722656 593.9364624023438 C 59.398502349853516 594.4761962890625 58.30133056640625 593.314697265625 64.56433868408203 588.203125" stroke-width="0.0" fill="rgb(255, 255, 255)" opacity="0.6670315"/>
    <path d="M 44.36255645751953 580.9664306640625 C 47.41135025024414 583.1611328125 46.264163970947266 584.0283203125 43.21510314941406 585.2777709960938 C 42.39326858520508 586.1649169921875 43.3048210144043 586.208740234375 40.639892578125 585.9483642578125 C 42.57573699951172 583.3477783203125 43.31321716308594 584.06494140625 43.11099624633789 583.1990356445312 C 41.38764190673828 583.130859375 41.24959182739258 580.2637939453125 44.36255645751953 580.9664306640625" stroke-width="0.0" fill="rgb(255, 255, 255)" opacity="0.6651542"/>
    <path d="M 29.187652587890625 594.685546875 C 27.083234786987305 592.675537109375 26.556753158569336 592.2635498046875 25.39206886291504 591.013427734375 C 23.848224639892578 589.3311157226562 23.776803970336914 589.3391723632812 23.617145538330078 590.998046875 C 22.922155380249023 591.6419677734375 24.078128814697266 590.5830078125 23.823055267333984 589.0611572265625 C 23.98969841003418 589.1303100585938 22.591991424560547 588.5388793945312 29.187652587890625 594.685546875" stroke-width="0.0" fill="rgb(255, 255, 255)" opacity="0.802491"/>
    <path d="M 29.094223022460938 524.0208129882812 C 29.73178482055664 525.3025512695312 29.43691062927246 525.3945922851562 32.52372741699219 527.8111572265625 C 32.06784439086914 524.3729858398438 33.40615463256836 523.7124633789062 31.959678649902344 524.6199951171875 C 28.547134399414062 525.4285278320312 26.36272430419922 525.2202758789062 28.828779220581055 526.1502685546875 C 29.09990119934082 527.8943481445312 31.163246154785156 527.3366088867188 29.094223022460938 524.0208129882812" stroke-width="0.0" fill="rgb(251, 251, 251)" opacity="0.8178407"/>
    <path d="M 14.173796653747559 578.62890625 C 15.519784927368164 578.7852172851562 13.585990905761719 578.0899658203125 14.135809898376465 580.129150390625 C 12.456405639648438 581.6907958984375 11.699297904968262 580.9696044921875 10.767097473144531 580.8857421875 C 10.196155548095703 582.2437133789062 10.970410346984863 580.2739868164062 11.588825225830078 579.8256225585938 C 13.533061027526855 579.8443603515625 14.035054206848145 581.9793701171875 14.173796653747559 578.62890625" stroke-width="0.0" fill="rgb(255, 255, 255)" opacity="0.7943392"/>
    <path d="M 331.83013916015625 572.2180786132812 C 330.97607421875 572.3959350585938 328.8417663574219 573.6055297851562 328.9179382324219 573.0284423828125 C 327.5209655761719 573.2711791992188 327.7210693359375 572.1445922851562 328.13531494140625 572.9656982421875 C 329.67498779296875 573.3124389648438 330.25103759765625 571.481689453125 329.0932922363281 572.9422607421875 C 329.1817626953125 573.3914794921875 331.3021240234375 572.386962890625 331.83013916015625 572.2180786132812" stroke-width="0.0" fill="rgb(255, 255, 255)" opacity="0.85503024"/>
    <path d="M 581.1495971679688 583.6027221679688 C 579.2508544921875 584.0958862304688 579.1689453125 584.207763671875 580.468505859375 584.6844482421875 C 578.8868408203125 583.2412109375 576.8873901367188 585.6195678710938 575.4576416015625 585.5077514648438 C 574.6992797851562 586.1097412109375 573.4995727539062 586.270751953125 571.420166015625 586.9614868164062 C 569.8514404296875 587.5757446289062 569.6190795898438 587.7301635742188 581.1495971679688 583.6027221679688" stroke-width="0.0" fill="rgb(255, 255, 255)" opacity="0.7181506"/>
    <path d="M 273.5871887207031 589.655029296875 C 273.5308837890625 589.2130126953125 274.946533203125 590.6878051757812 274.4910888671875 590.236328125 C 273.23828125 588.8572998046875 273.00238037109375 588.5052490234375 270.74273681640625 589.2871704101562 C 271.912353515625 588.0927734375 271.62249755859375 589.8700561523438 270.9607238769531 588.8946533203125 C 272.9554138183594 588.5701904296875 274.484619140625 589.5601806640625 273.5871887207031 589.655029296875" stroke-width="0.0" fill="rgb(255, 255, 255)" opacity="0.8366346"/>
    <path d="M 598.5465698242188 580.14208984375 C 597.0292358398438 582.1285400390625 595.0357666015625 580.4132080078125 593.2027587890625 579.8424072265625 C 591.699462890625 580.1671752929688 591.9276733398438 580.0865478515625 591.9570922851562 578.19970703125 C 593.9251708984375 577.738037109375 593.2089233398438 575.662841796875 591.4971923828125 575.6865234375 C 592.766845703125 575.2406005859375 591.335205078125 572.2979736328125 598.5465698242188 580.14208984375" stroke-width="0.0" fill="rgb(255, 255, 255)" opacity="0.64538753"/>
    <path d="M 46.76463317871094 579.2476196289062 C 46.39754104614258 580.1644897460938 48.003414154052734 580.3408203125 49.733970642089844 579.6340942382812 C 50.62969207763672 581.5860595703125 47.85997772216797 581.5972900390625 49.482139587402344 581.260986328125 C 51.047264099121094 580.2190551757812 48.867225646972656 579.15380859375 47.69322204589844 578.958984375 C 48.833099365234375 576.04833984375 48.68255615234375 578.3818359375 46.76463317871094 579.2476196289062" stroke-width="0.0" fill="rgb(255, 255, 255)" opacity="0.7866733"/>
    <path d="M 9.673537254333496 324.6895751953125 C 11.39799690246582 322.8048400878906 11.782166481018066 322.9560546875 14.309820175170898 323.0472106933594 C 13.898512840270996 323.5118713378906 15.351728439331055 321.7226867675781 14.922722816467285 324.3534851074219 C 17.218141555786133 326.476806640625 16.47222137451172 327.431396484375 13.039329528808594 330.4749450683594 C 12.92292594909668 328.6299133300781 13.925251007080078 326.9866638183594 9.673537254333496 324.6895751953125" stroke-width="0.0" fill="rgb(255, 255, 255)" opacity="0.664388"/>
    <path d="M 6.782192707061768 329.1341247558594 C 9.203875541687012 328.94744873046875 7.2132110595703125 327.9967956542969 7.913908004760742 328.391357421875 C 8.093353271484375 326.4927673339844 8.072759628295898 328.0111999511719 6.820159435272217 326.3323669433594 C 5.214479923248291 324.7790832519531 4.027245998382568 326.07989501953125 6.141964912414551 325.48187255859375 C 5.2123918533325195 328.5743103027344 6.597236633300781 329.90478515625 6.782192707061768 329.1341247558594" stroke-width="0.0" fill="rgb(255, 255, 255)" opacity="0.7427048"/>
    <path d="M 15.008685111999512 569.007568359375 C 17.628864288330078 569.796875 15.12435245513916 570.6324462890625 14.269194602966309 569.3621826171875 C 13.483492851257324 569.6450805664062 15.253807067871094 567.9242553710938 14.940491676330566 569.4266357421875 C 12.361197471618652 567.8837280273438 10.449905395507812 568.3125 11.584477424621582 567.7615356445312 C 10.353719711303711 567.7227783203125 12.055547714233398 568.673828125 15.008685111999512 569.007568359375" stroke-width="0.0" fill="rgb(255, 255, 255)" opacity="0.7379966"/>
    <path d="M 49.85248565673828 600.3264770507812 C 49.30183029174805 600.9097290039062 50.938758850097656 600.3173217773438 52.53986358642578 602.4367065429688 C 53.41368103027344 601.63720703125 55.48582077026367 599.423583984375 53.73710632324219 600.8975219726562 C 53.51105880737305 600.4323120117188 55.191734313964844 601.8164672851562 55.71854782104492 600.4220581054688 C 53.553470611572266 602.2813720703125 50.93343734741211 604.5044555664062 49.85248565673828 600.3264770507812" stroke-width="0.0" fill="rgb(255, 255, 255)" opacity="0.94365555"/>
    <path d="M 315.5605773925781 598.4574584960938 C 313.842529296875 597.393310546875 316.07330322265625 596.9791259765625 316.838134765625 595.50048828125 C 317.0328369140625 597.3172607421875 318.07025146484375 598.1544189453125 315.3291320800781 597.9910888671875 C 315.2461853027344 600.8968505859375 313.7237243652344 600.8025512695312 314.1266784667969 599.14404296875 C 313.2195129394531 599.4824829101562 311.8359069824219 600.1746215820312 315.5605773925781 598.4574584960938" stroke-width="0.0" fill="rgb(255, 255, 255)" opacity="0.73995364"/>
    <path d="M 325.50152587890625 581.950927734375 C 321.3641662597656 582.4569702148438 322.6788024902344 581.8743896484375 323.74346923828125 581.951416015625 C 322.29302978515625 581.7581176757812 322.5279541015625 582.62890625 322.8995361328125 581.7462158203125 C 324.0830078125 582.9556884765625 325.4816589355469 581.44873046875 323.84808349609375 582.1180419921875 C 324.0773620605469 583.8521728515625 324.2626953125 586.07568359375 325.50152587890625 581.950927734375" stroke-width="0.0" fill="rgb(255, 255, 255)" opacity="0.81999916"/>
    <path d="M 564.0748901367188 565.9776611328125 C 563.9491577148438 563.798583984375 563.620849609375 561.5974731445312 565.1566772460938 563.6366577148438 C 566.4395751953125 565.33740234375 567.7189331054688 565.2279663085938 570.2842407226562 564.8616943359375 C 569.1740112304688 565.986083984375 570.8807983398438 565.65283203125 572.5885620117188 567.8792724609375 C 573.2823486328125 568.5298461914062 574.7294921875 565.54443359375 564.0748901367188 565.9776611328125" stroke-width="0.0" fill="rgb(255, 255, 255)" opacity="0.66980505"/>
    <path d="M 553.781982421875 577.3549194335938 C 554.1536865234375 578.1511840820312 556.8343505859375 576.171630859375 555.7837524414062 575.7112426757812 C 556.6029052734375 576.9279174804688 554.7521362304688 576.1541137695312 555.3211059570312 577.3018188476562 C 552.3306884765625 577.5834350585938 550.8704223632812 577.1103515625 548.9129028320312 576.3336181640625 C 548.45751953125 576.2008666992188 549.942138671875 577.3099365234375 553.781982421875 577.3549194335938" stroke-width="0.0" fill="rgb(255, 255, 255)" opacity="0.7509324"/>
    <path d="M 38.9682502746582 272.3868713378906 C 37.27728271484375 275.4000549316406 35.62968444824219 276.18359375 37.22533416748047 278.0462341308594 C 40.563533782958984 277.6781311035156 38.68181228637695 279.73309326171875 38.31245803833008 278.8087463378906 C 37.98713684082031 279.4115295410156 35.90433883666992 279.75177001953125 35.768035888671875 277.76727294921875 C 33.584556579589844 279.4733581542969 33.424705505371094 281.2685852050781 38.9682502746582 272.3868713378906" stroke-width="0.0" fill="rgb(255, 255, 255)" opacity="0.68588805"/>
    <path d="M 543.1181640625 575.1051635742188 C 541.4810180664062 573.2576904296875 540.4136962890625 573.4669189453125 538.8311157226562 575.8970947265625 C 537.9722290039062 575.8016967773438 540.649658203125 578.2069702148438 541.3262939453125 578.5780639648438 C 538.9916381835938 580.8335571289062 540.6510009765625 580.03173828125 539.1484375 581.4345703125 C 539.052490234375 583.1331787109375 537.2842407226562 584.124267578125 543.1181640625 575.1051635742188" stroke-width="0.0" fill="rgb(255, 255, 255)" opacity="0.664852"/>
    <path d="M 41.01637268066406 299.76312255859375 C 37.28839874267578 302.9638366699219 36.81514358520508 303.0273742675781 36.94184112548828 300.0669250488281 C 38.123722076416016 299.96551513671875 39.159141540527344 297.8885803222656 40.94984817504883 296.4395751953125 C 41.23799514770508 298.7734680175781 40.90889358520508 296.578369140625 40.25769805908203 294.7647399902344 C 40.70047378540039 292.4245910644531 41.16535186767578 292.5556335449219 41.01637268066406 299.76312255859375" stroke-width="0.0" fill="rgb(255, 255, 255)" opacity="0.7148876"/>
    <path d="M 592.057861328125 572.1460571289062 C 592.5790405273438 570.2769165039062 592.9644775390625 571.9207153320312 591.4488525390625 572.201416015625 C 590.5001831054688 571.0765380859375 590.0350341796875 569.3739013671875 588.3114013671875 570.0608520507812 C 587.6854248046875 569.2787475585938 588.0771484375 570.9264526367188 588.1405029296875 571.1253662109375 C 590.17431640625 570.3226928710938 589.6478881835938 572.7994995117188 592.057861328125 572.1460571289062" stroke-width="0.0" fill="rgb(255, 255, 255)" opacity="0.7470112"/>
    <path d="M 565.136474609375 588.7161865234375 C 565.0712890625 586.6157836914062 565.2457885742188 586.4718017578125 562.2386474609375 587.3402709960938 C 561.8696899414062 590.1763916015625 561.8579711914062 589.9542846679688 562.7267456054688 589.817626953125 C 560.3740234375 591.2963256835938 560.82763671875 591.2384033203125 560.4910278320312 591.5204467773438 C 562.1102905273438 589.9275512695312 562.5039672851562 589.5140380859375 565.136474609375 588.7161865234375" stroke-width="0.0" fill="rgb(255, 255, 255)" opacity="0.73905706"/>
    <path d="M 322.399169921875 573.743896484375 C 324.63983154296875 574.0177001953125 327.3033447265625 574.1771240234375 327.22430419921875 573.6507568359375 C 326.94158935546875 572.0357666015625 326.385986328125 570.9122924804688 327.9568176269531 570.0399169921875 C 328.6340637207031 569.3524780273438 330.07855224609375 569.4562377929688 330.5693054199219 568.558349609375 C 333.0176086425781 567.8394165039062 334.6634826660156 565.5538330078125 322.399169921875 573.743896484375" stroke-width="0.0" fill="rgb(255, 255, 255)" opacity="0.6755699"/>
    <path d="M 575.4168701171875 594.487548828125 C 576.3740844726562 596.860595703125 574.917724609375 596.494140625 576.0512084960938 595.5642700195312 C 575.0244140625 595.172607421875 575.6069946289062 593.8351440429688 577.2581176757812 592.0782470703125 C 579.3384399414062 591.3173828125 579.5469970703125 593.372314453125 577.9464721679688 593.0250854492188 C 577.6419067382812 593.7140502929688 579.4112548828125 596.0626831054688 575.4168701171875 594.487548828125" stroke-width="0.0" fill="rgb(255, 255, 255)" opacity="0.7349732"/>
    <path d="M 348.39764404296875 574.6343994140625 C 347.427490234375 574.6749267578125 349.46148681640625 575.41455078125 351.0820007324219 574.7362060546875 C 351.3933410644531 576.8465576171875 349.0824279785156 575.9525756835938 347.49517822265625 575.8634033203125 C 345.9149475097656 576.224853515625 343.66558837890625 575.4921875 343.8187561035156 576.6050415039062 C 346.16339111328125 577.3961181640625 344.0565185546875 580.1139526367188 348.39764404296875 574.6343994140625" stroke-width="0.0" fill="rgb(255, 255, 255)" opacity="0.7051691"/>
    <path d="M 11.28270435333252 559.1297607421875 C 9.811412811279297 558.16845703125 8.767199516296387 557.0120239257812 6.421511173248291 556.3715209960938 C 5.066679954528809 555.9736328125 3.0920653343200684 555.2333984375 3.9155685901641846 554.545166015625 C 5.206556797027588 552.5799560546875 4.00889253616333 554.9175415039062 2.6176767349243164 555.9061279296875 C 4.208086967468262 556.1672973632812 4.660684108734131 554.3167724609375 11.28270435333252 559.1297607421875" stroke-width="0.0" fill="rgb(255, 255, 255)" opacity="0.7189569"/>
    <path d="M 560.8976440429688 590.0460815429688 C 559.4763793945312 590.2581787109375 560.912353515625 588.4671630859375 559.2030639648438 588.9713745117188 C 560.5732421875 589.8289794921875 561.3535766601562 591.097412109375 560.9078369140625 588.656494140625 C 559.399658203125 589.8973999023438 558.9108276367188 589.1920166015625 560.52978515625 588.1420288085938 C 558.362060546875 589.5052490234375 557.9583129882812 590.2384643554688 560.8976440429688 590.0460815429688" stroke-width="0.0" fill="rgb(255, 255, 255)" opacity="0.82526195"/>
    <path d="M 3.531693458557129 539.8396606445312 C 1.4015717506408691 540.0494384765625 1.0651646852493286 539.9762573242188 -1.078812837600708 539.9829711914062 C -0.13145987689495087 541.3239135742188 0.0036918879486620426 543.221435546875 -1.6815603971481323 541.9354248046875 C -2.528625249862671 541.4368896484375 -1.4061206579208374 540.8596801757812 -2.604145050048828 540.0714111328125 C -0.39453354477882385 539.0946655273438 -0.7863848209381104 536.706298828125 3.531693458557129 539.8396606445312" stroke-width="0.0" fill="rgb(255, 255, 255)" opacity="0.8862186"/>
    <path d="M 281.27557373046875 577.9757080078125 C 279.5966796875 578.0770263671875 278.5325927734375 576.4795532226562 278.67974853515625 577.0038452148438 C 280.57745361328125 577.8992919921875 280.4100646972656 578.0191650390625 279.2742614746094 579.8394165039062 C 280.6050109863281 577.8533935546875 279.0408020019531 579.6224975585938 281.04144287109375 580.065673828125 C 282.3369445800781 579.3361206054688 284.7794189453125 577.4390258789062 281.27557373046875 577.9757080078125" stroke-width="0.0" fill="rgb(255, 255, 255)" opacity="0.74529487"/>
    <path d="M 267.1839599609375 584.6121826171875 C 268.1727294921875 585.5833740234375 267.7875671386719 585.513916015625 267.8337707519531 587.4376220703125 C 269.678466796875 584.817626953125 269.3652038574219 583.7468872070312 267.3770751953125 584.0215454101562 C 265.3316955566406 584.3871459960938 266.5646057128906 583.4425659179688 265.41729736328125 582.4905395507812 C 266.8708801269531 584.1636352539062 266.78350830078125 581.3028564453125 267.1839599609375 584.6121826171875" stroke-width="0.0" fill="rgb(255, 255, 255)" opacity="0.805964"/>
    <path d="M 33.9099235534668 327.04925537109375 C 34.483734130859375 327.4339904785156 36.8346061706543 326.53369140625 38.381431579589844 323.9643859863281 C 39.75482940673828 324.1204528808594 40.38175964355469 323.2427062988281 39.11014175415039 324.114990234375 C 42.16178894042969 323.54486083984375 40.6417350769043 324.4512939453125 40.80837631225586 326.9122619628906 C 43.33194351196289 327.63861083984375 45.090476989746094 326.8183288574219 33.9099235534668 327.04925537109375" stroke-width="0.0" fill="rgb(255, 255, 255)" opacity="0.67913526"/>
    <path d="M 22.37057876586914 545.146240234375 C 20.760135650634766 547.095703125 19.909912109375 545.8418579101562 21.911264419555664 545.9749755859375 C 22.774829864501953 548.0325317382812 20.429439544677734 546.5845336914062 20.86998748779297 546.4624633789062 C 24.0128231048584 543.3314208984375 25.18936538696289 542.1611328125 24.973464965820312 543.8355102539062 C 24.388565063476562 544.576904296875 23.40924644470215 543.3609008789062 22.37057876586914 545.146240234375" stroke-width="0.0" fill="rgb(255, 255, 255)" opacity="0.75220144"/>
    <path d="M 26.603199005126953 273.0005798339844 C 25.105897903442383 272.1669616699219 26.910043716430664 269.7692565917969 25.97671127319336 271.0124206542969 C 23.955785751342773 270.9660339355469 25.86153793334961 269.3540954589844 25.1083984375 270.03106689453125 C 24.957618713378906 267.8345947265625 23.44576072692871 269.0671081542969 24.03753662109375 270.3917541503906 C 22.834936141967773 270.38775634765625 21.711402893066406 268.52783203125 26.603199005126953 273.0005798339844" stroke-width="0.0" fill="rgb(255, 255, 255)" opacity="0.79310143"/>
    <path d="M 34.5417366027832 557.0902709960938 C 33.56632614135742 555.9140014648438 32.48795700073242 556.464111328125 34.06985855102539 555.808837890625 C 34.6188850402832 554.6612548828125 32.82757568359375 553.2352905273438 31.21869468688965 551.8790893554688 C 30.48854637145996 550.4058837890625 32.008140563964844 549.1854858398438 30.13209342956543 548.8630981445312 C 29.661724090576172 550.8759765625 29.178417205810547 552.0653686523438 34.5417366027832 557.0902709960938" stroke-width="0.0" fill="rgb(255, 255, 255)" opacity="0.6603772"/>
    <path d="M 300.0494079589844 582.8914184570312 C 299.517578125 583.773193359375 300.4830322265625 584.285400390625 303.12823486328125 584.033447265625 C 302.92608642578125 581.4747924804688 302.7370300292969 582.9210205078125 303.0592956542969 580.9187622070312 C 302.6025695800781 580.740966796875 304.8689880371094 581.4973754882812 303.84832763671875 580.9169311523438 C 303.63299560546875 581.4218139648438 305.9147033691406 583.8435668945312 300.0494079589844 582.8914184570312" stroke-width="0.0" fill="rgb(255, 255, 255)" opacity="0.7492865"/>
    <path d="M 1.3674702644348145 251.81553649902344 C -0.2636217474937439 250.2893829345703 -0.0786636546254158 251.07986450195312 1.3869037628173828 249.92762756347656 C -0.24717667698860168 250.8202362060547 -0.6364173293113708 252.47943115234375 -3.1177144050598145 251.66412353515625 C -3.911875009536743 254.0191650390625 -5.90531063079834 254.5188751220703 -6.400589942932129 252.26919555664062 C -7.785313129425049 252.60855102539062 -8.114799499511719 254.432373046875 1.3674702644348145 251.81553649902344" stroke-width="0.0" fill="rgb(255, 255, 255)" opacity="0.8681472"/>
    <path d="M 25.096359252929688 276.006103515625 C 23.398462295532227 276.5290222167969 23.52997398376465 274.061279296875 25.839588165283203 271.5804748535156 C 24.79197883605957 271.0034484863281 26.366043090820312 273.181396484375 28.431880950927734 274.6366882324219 C 25.60138702392578 275.7991027832031 23.041770935058594 274.39947509765625 24.305967330932617 274.8519287109375 C 23.714200973510742 276.1964416503906 24.160531997680664 275.9427795410156 25.096359252929688 276.006103515625" stroke-width="0.0" fill="rgb(255, 255, 255)" opacity="0.71194434"/>
    <path d="M 546.9244384765625 572.6495971679688 C 546.815673828125 573.5656127929688 547.7627563476562 573.1192626953125 548.595947265625 571.7279052734375 C 549.9755859375 573.1195068359375 547.9441528320312 575.4491577148438 546.1886596679688 575.0391845703125 C 544.4702758789062 574.835693359375 542.6561889648438 572.5127563476562 540.4593505859375 575.0239868164062 C 540.1807250976562 574.343994140625 542.8840942382812 576.746337890625 546.9244384765625 572.6495971679688" stroke-width="0.0" fill="rgb(255, 255, 255)" opacity="0.6820186"/>
    <path d="M 12.535073280334473 592.4551391601562 C 11.903247833251953 593.6353759765625 12.759785652160645 592.7949829101562 13.11662483215332 591.0130004882812 C 14.99158763885498 591.39404296875 13.829987525939941 589.8529663085938 12.528985023498535 589.296875 C 14.286828994750977 588.5690307617188 14.15062141418457 589.2409057617188 17.084022521972656 588.8658447265625 C 17.00014305114746 589.6913452148438 16.718069076538086 590.204345703125 12.535073280334473 592.4551391601562" stroke-width="0.0" fill="rgb(255, 255, 255)" opacity="0.7010312"/>
    <path d="M 259.8232421875 597.9554443359375 C 258.71319580078125 598.8468627929688 258.4928283691406 596.477783203125 260.0490417480469 598.3787841796875 C 258.35626220703125 597.2609252929688 259.3890686035156 595.7581787109375 258.9818115234375 593.3032836914062 C 259.2218322753906 592.1926879882812 256.1726379394531 594.0029296875 256.87646484375 596.882568359375 C 259.7337951660156 597.6194458007812 260.57611083984375 595.939453125 259.8232421875 597.9554443359375" stroke-width="0.0" fill="rgb(255, 255, 255)" opacity="0.74109745"/>
    <path d="M 294.2049560546875 597.9267578125 C 292.1529541015625 597.89501953125 292.2517395019531 599.895263671875 291.4654235839844 598.5897216796875 C 290.09344482421875 596.8060302734375 291.9101257324219 594.2652587890625 290.94720458984375 593.4324340820312 C 292.1303405761719 594.425048828125 290.8338317871094 593.3795776367188 290.09552001953125 592.170654296875 C 288.1822204589844 591.3673706054688 289.95684814453125 591.1556396484375 294.2049560546875 597.9267578125" stroke-width="0.0" fill="rgb(255, 255, 255)" opacity="0.7103598"/>
    <path d="M 32.696598052978516 263.89422607421875 C 34.01210403442383 263.7498474121094 32.503089904785156 264.0608215332031 30.681211471557617 263.9832763671875 C 32.328086853027344 266.8482971191406 33.96800994873047 266.0179748535156 35.470184326171875 265.91656494140625 C 36.66188430786133 266.83526611328125 35.812191009521484 268.87335205078125 35.55312728881836 267.6044616699219 C 35.858741760253906 269.6069641113281 36.87871551513672 269.54461669921875 32.696598052978516 263.89422607421875" stroke-width="0.0" fill="rgb(255, 255, 255)" opacity="0.6932052"/>
    <path d="M 6.955351829528809 551.9076538085938 C 7.102446556091309 551.610595703125 5.200015544891357 550.7973022460938 3.6204702854156494 549.0021362304688 C 3.073542356491089 549.8717651367188 1.1182218790054321 551.1260986328125 3.7573187351226807 549.00732421875 C 1.4612716436386108 547.5859985351562 -0.1977146565914154 544.99365234375 -1.5088732242584229 543.8782348632812 C 0.15258488059043884 546.102294921875 -1.9185206890106201 543.9922485351562 6.955351829528809 551.9076538085938" stroke-width="0.0" fill="rgb(255, 255, 255)" opacity="0.76059407"/>
    <path d="M 269.1681823730469 598.696044921875 C 268.5311279296875 597.3683471679688 269.97174072265625 598.0808715820312 270.28790283203125 598.3088989257812 C 269.6881103515625 599.0641479492188 270.10955810546875 597.5010986328125 273.6371765136719 596.9381103515625 C 274.76287841796875 596.490234375 274.7989196777344 598.2249755859375 273.56268310546875 598.4207153320312 C 274.7943420410156 597.8462524414062 275.5951232910156 595.4100341796875 269.1681823730469 598.696044921875" stroke-width="0.0" fill="rgb(255, 255, 255)" opacity="0.74636644"/>
    <path d="M 267.29632568359375 594.8522338867188 C 266.3293762207031 592.9511108398438 265.6762390136719 594.72607421875 266.66156005859375 593.8011474609375 C 264.2431945800781 596.2470703125 263.7696838378906 597.9854736328125 261.8395690917969 594.9267578125 C 259.9180908203125 592.7831420898438 260.27520751953125 593.8179931640625 260.7892761230469 593.8973388671875 C 261.0228576660156 593.8831176757812 260.3734130859375 595.7542114257812 267.29632568359375 594.8522338867188" stroke-width="0.0" fill="rgb(255, 255, 255)" opacity="0.7098874"/>
    <path d="M 36.3368034362793 251.87808227539062 C 35.201629638671875 254.48602294921875 36.739192962646484 252.54544067382812 35.79109573364258 249.771728515625 C 36.061553955078125 251.33367919921875 35.99137496948242 248.71878051757812 35.933292388916016 247.22201538085938 C 33.72783660888672 246.15545654296875 31.32191276550293 247.75103759765625 33.96942138671875 249.2161865234375 C 35.02479934692383 250.1849365234375 31.833908081054688 252.887939453125 36.3368034362793 251.87808227539062" stroke-width="0.0" fill="rgb(255, 255, 255)" opacity="0.69696856"/>
    <path d="M 26.305152893066406 546.1459350585938 C 27.51186180114746 546.7888793945312 26.747817993164062 547.9315795898438 27.026779174804688 549.3082275390625 C 28.212915420532227 547.8795166015625 30.46826934814453 549.970947265625 28.034576416015625 551.29248046875 C 27.992658615112305 549.4125366210938 28.249025344848633 549.3060913085938 27.975303649902344 548.930419921875 C 28.83770179748535 546.6483154296875 27.23320960998535 547.252685546875 26.305152893066406 546.1459350585938" stroke-width="0.0" fill="rgb(255, 255, 255)" opacity="0.7675899"/>
    <path d="M 352.5517578125 591.6963500976562 C 354.0908508300781 591.8009033203125 354.88409423828125 593.8590698242188 356.3254089355469 594.518310546875 C 354.7447204589844 595.0582885742188 353.5509033203125 597.1401977539062 350.6950988769531 599.57373046875 C 352.8052978515625 601.6856079101562 353.66473388671875 599.9338989257812 355.0299987792969 598.4923706054688 C 355.3207702636719 596.7863159179688 354.5262756347656 594.61181640625 352.5517578125 591.6963500976562" stroke-width="0.0" fill="rgb(255, 255, 255)" opacity="0.6465309"/>
    <path d="M 15.778626441955566 593.1531982421875 C 14.770236015319824 595.0176391601562 16.225515365600586 595.88232421875 16.12660789489746 597.8191528320312 C 14.78633975982666 597.8216552734375 13.906146049499512 599.4873657226562 14.913229942321777 597.9217529296875 C 14.22295093536377 599.9976196289062 14.499037742614746 599.1660766601562 14.090802192687988 600.34814453125 C 15.002915382385254 598.3399658203125 14.719554901123047 597.183349609375 15.778626441955566 593.1531982421875" stroke-width="0.0" fill="rgb(255, 255, 255)" opacity="0.7530595"/>
    <path d="M 570.60595703125 594.9539184570312 C 570.15869140625 596.068115234375 571.761962890625 597.3665771484375 570.1886596679688 597.3519897460938 C 572.4273681640625 598.093505859375 572.9327392578125 600.3945922851562 570.2855834960938 601.5799560546875 C 570.2522583007812 604.0111694335938 570.8534545898438 605.1773071289062 569.19921875 607.5237426757812 C 570.5979614257812 605.341796875 571.7243041992188 605.4759521484375 570.60595703125 594.9539184570312" stroke-width="0.0" fill="rgb(255, 255, 255)" opacity="0.76569575"/>
    <path d="M 60.2332763671875 561.9869995117188 C 62.27296447753906 561.7576904296875 62.329097747802734 563.3587036132812 63.667213439941406 562.0498657226562 C 64.49524688720703 563.1472778320312 65.93502807617188 562.1036987304688 66.9931869506836 562.437255859375 C 67.82714080810547 561.4912719726562 68.63969421386719 559.1383666992188 67.8971939086914 560.5651245117188 C 67.23104858398438 561.0971069335938 69.31680297851562 563.581298828125 60.2332763671875 561.9869995117188" stroke-width="0.0" fill="rgb(255, 255, 255)" opacity="0.7103458"/>
    <path d="M 15.444178581237793 268.9033508300781 C 15.070584297180176 267.0309753417969 15.49029541015625 269.47357177734375 16.392635345458984 269.58062744140625 C 15.257612228393555 268.832763671875 13.982720375061035 268.6476135253906 14.060321807861328 269.779296875 C 12.679008483886719 270.962646484375 11.830124855041504 271.9128723144531 12.773772239685059 269.9290466308594 C 12.81719970703125 270.7623596191406 14.894381523132324 270.1228942871094 15.444178581237793 268.9033508300781" stroke-width="0.0" fill="rgb(255, 255, 255)" opacity="0.7290732"/>
    <path d="M 38.73708724975586 298.1064758300781 C 41.68729019165039 296.8912658691406 39.85841751098633 295.3581237792969 41.99818420410156 294.77777099609375 C 42.20572280883789 292.97222900390625 41.630306243896484 291.1597595214844 42.11963653564453 289.7254638671875 C 41.73912048339844 290.9869689941406 43.0623664855957 288.9432678222656 41.94501495361328 290.794189453125 C 42.27372741699219 293.0572204589844 38.988189697265625 291.339111328125 38.73708724975586 298.1064758300781" stroke-width="0.0" fill="rgb(255, 255, 255)" opacity="0.7041817"/>
    <path d="M 39.475589752197266 283.38970947265625 C 42.52588653564453 284.6166076660156 40.0403938293457 284.8285827636719 41.283241271972656 284.177734375 C 40.61467361450195 280.4927978515625 41.914878845214844 280.2670593261719 43.13405990600586 278.0072937011719 C 44.59809875488281 276.8665771484375 46.63189697265625 277.3400573730469 43.725494384765625 277.42755126953125 C 45.959468841552734 274.3497009277344 46.975624084472656 272.4292907714844 39.475589752197266 283.38970947265625" stroke-width="0.0" fill="rgb(255, 255, 255)" opacity="0.6883787"/>
    <path d="M 294.6787414550781 572.9124145507812 C 296.0600891113281 574.5655517578125 297.0587158203125 576.1820678710938 298.29119873046875 573.964111328125 C 300.6737060546875 574.2188110351562 300.88092041015625 572.4099731445312 297.70068359375 573.0244750976562 C 299.3269958496094 573.8753051757812 301.71282958984375 575.2029418945312 301.15472412109375 575.1347045898438 C 300.36895751953125 575.9170532226562 303.22015380859375 573.7534790039062 294.6787414550781 572.9124145507812" stroke-width="0.0" fill="rgb(255, 255, 255)" opacity="0.69039273"/>
    <path d="M 20.069917678833008 244.46990966796875 C 18.137380599975586 246.3525848388672 18.709787368774414 246.42031860351562 19.837846755981445 244.6396484375 C 20.23916244506836 243.69862365722656 19.588525772094727 245.78749084472656 19.744630813598633 244.43646240234375 C 20.588274002075195 242.3534698486328 19.73113250732422 242.99639892578125 17.018146514892578 243.2070770263672 C 17.269664764404297 241.33798217773438 15.437337875366211 240.16871643066406 20.069917678833008 244.46990966796875" stroke-width="0.0" fill="rgb(255, 255, 255)" opacity="0.72742194"/>
    <path d="M 579.56689453125 564.9319458007812 C 582.602783203125 565.0542602539062 580.5670776367188 567.076171875 578.5419311523438 566.73486328125 C 580.3377075195312 566.3771362304688 582.2093505859375 567.465087890625 583.5692749023438 570.47900390625 C 585.0677490234375 569.674072265625 586.7164916992188 568.8146362304688 585.888427734375 567.7194213867188 C 584.949462890625 568.9824829101562 582.947998046875 571.0466918945312 579.56689453125 564.9319458007812" stroke-width="0.0" fill="rgb(255, 255, 255)" opacity="0.67161685"/>
    <path d="M 23.306610107421875 262.2589111328125 C 25.261476516723633 261.02105712890625 23.428489685058594 258.06353759765625 21.35664939880371 261.19189453125 C 21.664670944213867 263.0570983886719 19.697467803955078 263.8244934082031 18.72249984741211 262.0918884277344 C 17.408884048461914 260.1689147949219 16.501953125 259.5869140625 17.140295028686523 260.9603271484375 C 18.233381271362305 258.7679138183594 18.41765594482422 260.3007507324219 23.306610107421875 262.2589111328125" stroke-width="0.0" fill="rgb(255, 255, 255)" opacity="0.6570884"/>
    <path d="M 33.910057067871094 316.36962890625 C 36.09524154663086 317.7400817871094 35.626441955566406 320.0338134765625 38.182655334472656 321.25537109375 C 37.84413146972656 320.6241455078125 38.09403610229492 320.85888671875 38.05918884277344 322.5563659667969 C 35.710243225097656 319.974609375 34.82267761230469 319.1846008300781 34.143489837646484 320.34381103515625 C 33.41417694091797 317.9716491699219 34.25849533081055 320.5718078613281 33.910057067871094 316.36962890625" stroke-width="0.0" fill="rgb(255, 255, 255)" opacity="0.67687595"/>
    <path d="M 8.856328964233398 287.1543273925781 C 8.217909812927246 288.0310974121094 9.301985740661621 288.3672180175781 10.034262657165527 289.0067138671875 C 8.714217185974121 287.8485412597656 8.872369766235352 288.7124938964844 8.774161338806152 286.3006286621094 C 9.89518928527832 284.1432800292969 7.905702590942383 282.1609191894531 7.6054229736328125 286.2593994140625 C 5.968386650085449 285.1181945800781 7.2123541831970215 283.4170837402344 8.856328964233398 287.1543273925781" stroke-width="0.0" fill="rgb(255, 255, 255)" opacity="0.7411419"/>
    <path d="M 288.8035583496094 584.9324951171875 C 287.00494384765625 585.9354858398438 289.1056823730469 588.3152465820312 287.47552490234375 589.2044067382812 C 287.8954162597656 589.23681640625 290.0260009765625 591.6155395507812 290.4395751953125 591.998779296875 C 288.1681213378906 591.4519653320312 286.4486999511719 594.1674194335938 283.7264099121094 592.6942138671875 C 282.8822021484375 594.3182373046875 282.2998046875 595.3368530273438 288.8035583496094 584.9324951171875" stroke-width="0.0" fill="rgb(255, 255, 255)" opacity="0.62053025"/>
    <path d="M 585.5785522460938 581.23681640625 C 587.8078002929688 580.439208984375 588.9908447265625 581.6547241210938 587.6117553710938 581.645751953125 C 589.3497924804688 582.623291015625 591.1609497070312 581.8086547851562 589.600341796875 579.9357299804688 C 587.5702514648438 579.0337524414062 589.6412963867188 579.5191040039062 588.7542114257812 581.0994873046875 C 586.49755859375 578.581298828125 586.2632446289062 580.0362548828125 585.5785522460938 581.23681640625" stroke-width="0.0" fill="rgb(255, 255, 255)" opacity="0.72350043"/>
    <path d="M 47.882347106933594 555.904541015625 C 48.52909851074219 557.97314453125 46.72697830200195 556.5841674804688 48.032318115234375 556.7114868164062 C 47.49847412109375 555.4391479492188 48.99392318725586 555.432861328125 46.94480895996094 554.8021240234375 C 47.04246139526367 555.83056640625 47.051849365234375 556.4566650390625 46.85432052612305 558.3296508789062 C 46.545196533203125 556.4129638671875 48.689361572265625 557.1187744140625 47.882347106933594 555.904541015625" stroke-width="0.0" fill="rgb(255, 255, 255)" opacity="0.84208316"/>
    <path d="M 36.905517578125 297.1820373535156 C 38.230613708496094 296.4234924316406 36.884307861328125 297.2130432128906 37.06120300292969 297.56005859375 C 35.88254165649414 295.7356872558594 35.80522155761719 297.6683044433594 36.1239128112793 299.7279968261719 C 33.91135025024414 300.5838928222656 34.276432037353516 299.6687316894531 32.82794952392578 298.44140625 C 32.48752212524414 296.82464599609375 34.463783264160156 296.8494567871094 36.905517578125 297.1820373535156" stroke-width="0.0" fill="rgb(255, 255, 255)" opacity="0.7124158"/>
    <path d="M 24.495561599731445 583.2166748046875 C 23.697595596313477 583.641845703125 22.921756744384766 584.7997436523438 24.284442901611328 583.1923217773438 C 24.724885940551758 583.0646362304688 25.80596351623535 580.5420532226562 25.041248321533203 582.8736572265625 C 25.93422508239746 579.6903076171875 25.919294357299805 580.8789672851562 25.80192756652832 578.7404174804688 C 24.710832595825195 578.1292724609375 27.612102508544922 578.404296875 24.495561599731445 583.2166748046875" stroke-width="0.0" fill="rgb(255, 255, 255)" opacity="0.76235455"/>
    <path d="M 345.272705078125 571.5252685546875 C 345.108154296875 569.2201538085938 345.86199951171875 571.3665771484375 344.5086975097656 572.191650390625 C 341.99615478515625 571.2500610351562 343.4051513671875 573.2996215820312 342.7173156738281 573.4367065429688 C 341.7073059082031 573.3605346679688 344.46832275390625 572.9517211914062 344.066162109375 572.6627807617188 C 343.47601318359375 571.4256591796875 344.5546875 570.1285400390625 345.272705078125 571.5252685546875" stroke-width="0.0" fill="rgb(255, 255, 255)" opacity="0.80895835"/>
    <path d="M 582.3566284179688 570.7908325195312 C 584.8727416992188 571.695068359375 586.5562744140625 574.1387939453125 587.30810546875 576.1293334960938 C 588.9423828125 573.79296875 589.3775634765625 574.6932983398438 589.2114868164062 573.5337524414062 C 587.3265380859375 572.149658203125 588.0797729492188 573.3594360351562 588.6922607421875 575.1435546875 C 589.5836181640625 574.315673828125 588.4170532226562 574.8551025390625 582.3566284179688 570.7908325195312" stroke-width="0.0" fill="rgb(255, 255, 255)" opacity="0.7255989"/>
    <path d="M 13.630316734313965 328.71575927734375 C 12.462342262268066 327.1358947753906 12.986994743347168 325.793701171875 14.7086763381958 322.96173095703125 C 15.231679916381836 324.88458251953125 16.36907386779785 323.9249572753906 17.37324333190918 322.00396728515625 C 17.126079559326172 321.7158203125 16.633087158203125 321.78778076171875 16.67290496826172 323.01220703125 C 16.61205291748047 321.7650451660156 19.275375366210938 319.478759765625 13.630316734313965 328.71575927734375" stroke-width="0.0" fill="rgb(255, 255, 255)" opacity="0.75344783"/>
    <path d="M 37.73774719238281 561.6250610351562 C 37.9995231628418 562.4491577148438 35.43092346191406 560.8759155273438 36.09846496582031 563.6619873046875 C 35.46863555908203 565.4511108398438 36.663055419921875 564.3411865234375 38.371360778808594 566.7256469726562 C 37.52167892456055 567.3197631835938 38.696414947509766 569.1561279296875 41.02334976196289 569.1551513671875 C 40.36222839355469 568.0386352539062 39.10469436645508 566.8623657226562 37.73774719238281 561.6250610351562" stroke-width="0.0" fill="rgb(255, 255, 255)" opacity="0.65394324"/>
    <path d="M 582.9122924804688 577.5938110351562 C 584.4971923828125 579.501953125 586.1431884765625 578.68603515625 587.5065307617188 577.6322631835938 C 585.7833862304688 578.7402954101562 586.8573608398438 578.1756591796875 587.0242309570312 578.1469116210938 C 586.8864135742188 578.3460083007812 584.6974487304688 579.126953125 581.7776489257812 579.1356811523438 C 581.9388427734375 577.5836181640625 584.0697021484375 577.830322265625 582.9122924804688 577.5938110351562" stroke-width="0.0" fill="rgb(255, 255, 255)" opacity="0.76198864"/>
    <path d="M 600.3436889648438 589.066650390625 C 600.8397216796875 587.645751953125 602.3797607421875 585.3419189453125 599.9540405273438 585.837158203125 C 602.2380981445312 586.5631713867188 604.60302734375 586.9878540039062 604.2321166992188 588.7098999023438 C 606.161376953125 587.1912231445312 608.00244140625 584.694580078125 607.6513061523438 582.58447265625 C 607.31396484375 584.286865234375 607.206298828125 585.9190063476562 600.3436889648438 589.066650390625" stroke-width="0.0" fill="rgb(255, 255, 255)" opacity="0.9187684"/>
    <path d="M 585.5963745117188 578.9517822265625 C 585.4605102539062 576.5205688476562 587.5467529296875 577.3858642578125 586.940185546875 575.3788452148438 C 586.4291381835938 573.58349609375 586.7906494140625 572.0743408203125 584.8004760742188 573.4654541015625 C 585.6980590820312 574.755615234375 583.8526611328125 576.5292358398438 586.2992553710938 577.3018798828125 C 585.3187255859375 575.6943359375 586.7020874023438 574.0285034179688 585.5963745117188 578.9517822265625" stroke-width="0.0" fill="rgb(255, 255, 255)" opacity="0.78697956"/>
    <path d="M 593.8544921875 580.5384521484375 C 593.0438842773438 583.2511596679688 592.2749633789062 585.3599853515625 592.0733642578125 585.6873168945312 C 591.7478637695312 587.6963500976562 591.30224609375 587.904052734375 592.7256469726562 590.0526123046875 C 593.6217651367188 590.8775024414062 594.0823974609375 591.3895874023438 592.3027954101562 589.5267333984375 C 591.593505859375 587.5482788085938 590.9561767578125 589.5490112304688 593.8544921875 580.5384521484375" stroke-width="0.0" fill="rgb(255, 255, 255)" opacity="0.73771566"/>
    <path d="M 47.729759216308594 571.7271728515625 C 47.976295471191406 568.85498046875 48.85946273803711 570.1243286132812 49.2983283996582 569.97265625 C 50.12095260620117 568.8920288085938 52.41962814331055 571.7277221679688 52.2540168762207 572.3104858398438 C 53.49967956542969 571.34228515625 52.94874572753906 571.6127319335938 52.932594299316406 568.904296875 C 53.19252395629883 567.6596069335938 52.296295166015625 566.5260009765625 47.729759216308594 571.7271728515625" stroke-width="0.0" fill="rgb(255, 255, 255)" opacity="0.66788244"/>
    <path d="M 0.0014635520055890083 561.0 C -1.8525103330612183 558.9833374023438 -2.5214030742645264 558.0576171875 -2.510481119155884 555.9974975585938 C -0.49072012305259705 555.666015625 -0.7861443758010864 554.9436645507812 -2.861125946044922 556.2892456054688 C -3.6022610664367676 554.1787109375 -3.1284871101379395 556.6309204101562 -3.9096176624298096 555.3834838867188 C -3.1536991596221924 555.3934936523438 -1.2461811304092407 552.9630737304688 0.0014635520055890083 561.0" stroke-width="0.0" fill="rgb(252, 253, 252)" opacity="1.0"/>
    <path d="M 349.5037536621094 579.6900634765625 C 348.11590576171875 581.0238037109375 349.7146301269531 581.1041870117188 352.060302734375 580.7901611328125 C 350.77239990234375 580.92626953125 350.2139892578125 581.127197265625 352.783447265625 583.1943969726562 C 353.568115234375 584.5234375 352.2100830078125 586.9417114257812 353.576416015625 586.673095703125 C 353.9070129394531 586.70361328125 352.26837158203125 587.6944580078125 349.5037536621094 579.6900634765625" stroke-width="0.0" fill="rgb(255, 255, 255)" opacity="0.66842896"/>
    <path d="M 58.20212936401367 595.1184692382812 C 58.373695373535156 596.1712036132812 60.64051818847656 596.085693359375 61.004051208496094 595.9749145507812 C 61.24211120605469 593.5064697265625 62.825645446777344 596.07421875 61.699703216552734 598.2637939453125 C 60.36301040649414 597.8527221679688 61.18008804321289 595.7403564453125 59.76193618774414 597.3602294921875 C 61.73417282104492 600.0156860351562 63.06599426269531 602.3197021484375 58.20212936401367 595.1184692382812" stroke-width="0.0" fill="rgb(255, 255, 255)" opacity="0.70465696"/>
    <path d="M 49.124420166015625 588.0115966796875 C 48.0652961730957 588.42529296875 47.06159973144531 587.072509765625 44.67589569091797 587.4848022460938 C 46.730377197265625 586.9921875 47.54503631591797 585.0232543945312 46.85699462890625 582.1749877929688 C 47.13182830810547 581.6181030273438 49.92082977294922 582.7423095703125 49.0793342590332 580.6864624023438 C 49.301998138427734 581.8328857421875 48.96656799316406 581.365966796875 49.124420166015625 588.0115966796875" stroke-width="0.0" fill="rgb(255, 255, 255)" opacity="0.72042984"/>
    <path d="M 338.2558898925781 595.0537109375 C 336.7220458984375 597.7611694335938 336.2703552246094 595.6390991210938 334.3479309082031 598.375732421875 C 331.4051513671875 596.6144409179688 331.68280029296875 595.8143920898438 332.1068420410156 595.8518676757812 C 331.5222473144531 595.4280395507812 333.0562744140625 595.0733032226562 330.87554931640625 595.4832763671875 C 332.82012939453125 594.7518310546875 332.2893981933594 594.9899291992188 338.2558898925781 595.0537109375" stroke-width="0.0" fill="rgb(255, 255, 255)" opacity="0.68154895"/>
    <path d="M 47.766998291015625 566.4967651367188 C 49.03757095336914 569.4486083984375 45.91926193237305 566.997802734375 44.40229034423828 568.4129028320312 C 45.8391227722168 567.1783447265625 43.1158447265625 568.5574340820312 43.245845794677734 567.8035888671875 C 42.0798225402832 568.1971435546875 39.78860092163086 567.6610107421875 40.354949951171875 568.3104248046875 C 42.86006546020508 569.459716796875 43.231788635253906 572.2542724609375 47.766998291015625 566.4967651367188" stroke-width="0.0" fill="rgb(255, 255, 255)" opacity="0.6991926"/>
    <path d="M 43.977752685546875 586.031494140625 C 47.6516227722168 585.5702514648438 49.12043380737305 587.167724609375 47.548614501953125 589.216064453125 C 48.954734802246094 588.3496704101562 46.93827819824219 589.0380859375 46.73874282836914 589.7040405273438 C 47.469696044921875 591.5624389648438 46.92508316040039 592.3939208984375 46.579345703125 593.8477783203125 C 48.32057571411133 595.5139770507812 46.53285217285156 595.1553955078125 43.977752685546875 586.031494140625" stroke-width="0.0" fill="rgb(255, 255, 255)" opacity="0.6788277"/>
    <path d="M 268.455078125 584.518310546875 C 268.9300842285156 587.3999633789062 270.87939453125 589.1027221679688 269.1160583496094 586.75 C 267.6755676269531 589.3524169921875 267.2856750488281 589.0802001953125 264.8291015625 588.7731323242188 C 265.1009521484375 588.201171875 265.2721862792969 586.1898803710938 264.3348388671875 586.9403686523438 C 266.1417236328125 585.4085693359375 266.77325439453125 584.3718872070312 268.455078125 584.518310546875" stroke-width="0.0" fill="rgb(255, 255, 255)" opacity="0.71725124"/>
    <path d="M 22.72216796875 570.8678588867188 C 22.76230239868164 571.1666259765625 21.24538230895996 573.158935546875 22.348379135131836 575.1591796875 C 20.949981689453125 574.577880859375 21.60904312133789 575.5924072265625 19.646509170532227 574.97998046875 C 20.31765365600586 573.8594970703125 18.98415756225586 575.68017578125 20.98822784423828 576.009521484375 C 20.725502014160156 575.6272583007812 19.089191436767578 578.301513671875 22.72216796875 570.8678588867188" stroke-width="0.0" fill="rgb(255, 255, 255)" opacity="0.7368651"/>
    <path d="M 64.93647003173828 593.4557495117188 C 65.07386779785156 593.7947387695312 67.80680847167969 592.2007446289062 69.00189971923828 592.0493774414062 C 68.56635284423828 592.3242797851562 70.40596008300781 593.719970703125 68.91465759277344 592.4192504882812 C 68.53271484375 591.2703857421875 70.08893585205078 591.5885620117188 69.38854217529297 591.8989868164062 C 70.1392593383789 589.8112182617188 71.82584381103516 591.3561401367188 64.93647003173828 593.4557495117188" stroke-width="0.0" fill="rgb(255, 255, 255)" opacity="0.7874494"/>
    <path d="M 1.7838737964630127 296.7389221191406 C 2.0754876136779785 296.9541015625 2.288649559020996 296.9789733886719 1.6595652103424072 296.7506103515625 C 0.24045613408088684 296.3135070800781 2.009732246398926 297.6385498046875 1.692341923713684 297.38165283203125 C -0.14876490831375122 295.4320068359375 -2.5653016567230225 297.1454162597656 -3.598933458328247 295.6765441894531 C -5.173640727996826 296.25079345703125 -7.166464805603027 295.9524841308594 1.7838737964630127 296.7389221191406" stroke-width="0.0" fill="rgb(255, 255, 255)" opacity="0.89927584"/>
    <path d="M 35.16799545288086 266.9045715332031 C 34.50432586669922 267.6177978515625 35.75946807861328 268.1322021484375 34.68235778808594 266.72198486328125 C 35.95566940307617 268.0614929199219 34.464168548583984 269.72216796875 35.4398078918457 270.025390625 C 34.797874450683594 270.85821533203125 32.708045959472656 272.7808532714844 34.829139709472656 274.4507751464844 C 34.91703414916992 275.0380859375 34.988677978515625 275.2239685058594 35.16799545288086 266.9045715332031" stroke-width="0.0" fill="rgb(255, 255, 255)" opacity="0.7432097"/>
    <path d="M 330.0174255371094 585.8056640625 C 332.00286865234375 586.833984375 333.7607421875 586.90478515625 335.1488342285156 588.43408203125 C 333.35235595703125 591.365966796875 331.0543518066406 589.3197631835938 331.3063049316406 590.201416015625 C 332.10577392578125 592.5805053710938 331.9947814941406 591.5083618164062 330.66851806640625 590.5184326171875 C 332.5669250488281 592.3134155273438 332.0297546386719 592.7573852539062 330.0174255371094 585.8056640625" stroke-width="0.0" fill="rgb(255, 255, 255)" opacity="0.69758785"/>
    <path d="M 1.8367949724197388 591.632568359375 C 3.106579542160034 593.0372924804688 1.3631863594055176 591.0765991210938 1.1892033815383911 590.7080078125 C 0.3358427584171295 590.0823364257812 1.2315596342086792 589.9517822265625 -1.0467184782028198 588.1130981445312 C -2.1904895305633545 585.5817260742188 -1.4989714622497559 587.3355712890625 1.0386693477630615 589.48193359375 C -0.8469030857086182 587.7453002929688 -2.462697982788086 585.6192016601562 1.8367949724197388 591.632568359375" stroke-width="0.0" fill="rgb(255, 255, 255)" opacity="0.88475406"/>
    <path d="M 577.677001953125 596.7325439453125 C 579.0447998046875 594.73486328125 578.089111328125 597.5287475585938 578.6764526367188 597.1189575195312 C 578.0120239257812 596.37841796875 578.826416015625 595.5814819335938 580.6679077148438 593.6203002929688 C 581.2241821289062 594.0562744140625 581.4189453125 596.015625 580.187744140625 594.6114501953125 C 582.274658203125 596.0421752929688 581.011474609375 598.1241455078125 577.677001953125 596.7325439453125" stroke-width="0.0" fill="rgb(255, 255, 255)" opacity="0.7577576"/>
    <path d="M 323.6091613769531 587.86962890625 C 322.4873046875 585.4458618164062 320.7090759277344 585.3631591796875 319.14306640625 587.499267578125 C 319.5642395019531 587.6964721679688 318.4763488769531 585.688232421875 318.9882507324219 585.4384765625 C 318.7031555175781 585.219482421875 321.6046142578125 584.37060546875 319.07672119140625 582.8203125 C 319.5109558105469 583.37451171875 320.26031494140625 583.1407470703125 323.6091613769531 587.86962890625" stroke-width="0.0" fill="rgb(255, 255, 255)" opacity="0.7041752"/>
    <path d="M 582.1207275390625 582.8417358398438 C 582.0023803710938 583.002685546875 581.56298828125 584.4017944335938 582.3480834960938 584.1356201171875 C 581.4833374023438 582.763671875 582.2348022460938 581.845703125 582.6004638671875 582.0311889648438 C 584.8837890625 581.59716796875 583.751953125 583.3470458984375 584.06689453125 583.837646484375 C 581.8763427734375 584.6339721679688 581.76318359375 583.11962890625 582.1207275390625 582.8417358398438" stroke-width="0.0" fill="rgb(255, 255, 255)" opacity="0.7927267"/>
    <path d="M 34.055442810058594 589.4480590820312 C 36.44268798828125 586.2499389648438 38.68369674682617 586.6463012695312 37.85411071777344 587.9996337890625 C 36.091983795166016 587.6691284179688 35.44586181640625 586.5877075195312 35.943302154541016 586.6005859375 C 33.9904670715332 586.0046997070312 34.819068908691406 587.1810302734375 35.66239929199219 586.3650512695312 C 34.69527816772461 584.715087890625 33.527828216552734 582.9639892578125 34.055442810058594 589.4480590820312" stroke-width="0.0" fill="rgb(255, 255, 255)" opacity="0.82950634"/>
    <path d="M 550.38525390625 562.83349609375 C 549.0066528320312 563.96435546875 547.9963989257812 562.9644775390625 549.341064453125 564.9080200195312 C 546.9321899414062 565.3706665039062 546.0078125 564.077880859375 545.881103515625 566.04296875 C 544.7089233398438 566.0188598632812 542.5092163085938 565.5211791992188 540.8453369140625 565.185302734375 C 541.85888671875 565.8534545898438 543.5759887695312 565.8707275390625 550.38525390625 562.83349609375" stroke-width="0.0" fill="rgb(255, 255, 255)" opacity="0.6836974"/>
    <path d="M 343.13739013671875 571.111572265625 C 344.7693176269531 570.5156860351562 346.2435607910156 567.9697875976562 345.6258544921875 569.0676879882812 C 344.87164306640625 568.1536254882812 343.8113098144531 567.0363159179688 345.5324401855469 568.974853515625 C 344.2951354980469 571.7251586914062 342.6970520019531 569.4061279296875 345.2231140136719 568.3147583007812 C 343.9548034667969 568.5767822265625 342.3927001953125 569.0377807617188 343.13739013671875 571.111572265625" stroke-width="0.0" fill="rgb(255, 255, 255)" opacity="0.7465315"/>
    <path d="M 33.56773376464844 325.44873046875 C 34.24455642700195 326.03924560546875 34.62683868408203 326.3547058105469 32.919281005859375 325.0838623046875 C 34.5274772644043 325.22796630859375 34.2012939453125 323.4509582519531 33.84368896484375 322.86846923828125 C 31.80502700805664 322.5628662109375 31.709877014160156 323.9319152832031 31.069318771362305 321.6714172363281 C 30.5347957611084 319.69183349609375 29.870147705078125 320.70330810546875 33.56773376464844 325.44873046875" stroke-width="0.0" fill="rgb(255, 255, 255)" opacity="0.7195218"/>
    <path d="M 256.4500732421875 587.012451171875 C 254.5183563232422 588.9246215820312 254.9031524658203 589.2293090820312 252.73892211914062 588.8689575195312 C 250.70384216308594 587.9374389648438 250.9840087890625 586.5446166992188 251.0081787109375 584.9431762695312 C 251.41783142089844 584.1864624023438 250.2731170654297 583.2518310546875 251.62026977539062 581.6589965820312 C 251.90386962890625 583.518798828125 252.9725341796875 582.8695068359375 256.4500732421875 587.012451171875" stroke-width="0.0" fill="rgb(255, 255, 255)" opacity="0.65519553"/>
    <path d="M 42.67680358886719 565.2061157226562 C 44.47126770019531 562.2236328125 43.5645751953125 562.354248046875 43.34904098510742 564.3619384765625 C 41.88556671142578 563.4237060546875 40.891056060791016 564.4638061523438 40.16072082519531 564.614990234375 C 38.125125885009766 563.7085571289062 35.68882751464844 564.65283203125 37.81296920776367 566.1661987304688 C 36.88734817504883 564.4328002929688 34.755401611328125 563.1060791015625 42.67680358886719 565.2061157226562" stroke-width="0.0" fill="rgb(255, 255, 255)" opacity="0.76977277"/>
    <path d="M 234.57424926757812 588.2512817382812 C 235.99815368652344 585.8147583007812 237.2762908935547 585.0612182617188 236.92434692382812 587.0848388671875 C 235.0545196533203 587.4933471679688 235.67074584960938 585.0350341796875 237.79823303222656 583.7588500976562 C 239.46102905273438 583.7791748046875 240.63343811035156 584.4327392578125 241.2713165283203 586.3385620117188 C 239.00173950195312 589.4150390625 236.2494354248047 587.4202270507812 234.57424926757812 588.2512817382812" stroke-width="0.0" fill="rgb(255, 255, 255)" opacity="0.6770283"/>
    <path d="M 8.391108512878418 537.2894287109375 C 8.519548416137695 536.7615356445312 9.842817306518555 538.1359252929688 9.131234169006348 537.1180419921875 C 9.413926124572754 538.5999145507812 7.605241298675537 538.2568969726562 7.994828224182129 538.5900268554688 C 7.483155727386475 537.738037109375 8.153697967529297 539.0457763671875 9.719287872314453 537.5572509765625 C 11.868332862854004 535.8093872070312 12.008204460144043 536.4347534179688 8.391108512878418 537.2894287109375" stroke-width="0.0" fill="rgb(255, 255, 255)" opacity="0.7950028"/>
    <path d="M 270.0226745605469 598.2946166992188 C 269.64947509765625 599.8043212890625 267.98370361328125 599.741943359375 267.2645263671875 596.655517578125 C 268.5239562988281 598.0615234375 268.4480285644531 598.1961669921875 266.3147888183594 596.8169555664062 C 267.1734619140625 597.2915649414062 267.0144958496094 597.433837890625 268.7131652832031 596.975830078125 C 270.003662109375 596.9624633789062 267.71368408203125 597.9077758789062 270.0226745605469 598.2946166992188" stroke-width="0.0" fill="rgb(255, 255, 255)" opacity="0.76883245"/>
    <path d="M 591.1974487304688 577.8463745117188 C 589.8626098632812 577.3789672851562 588.25390625 576.393310546875 587.791015625 577.2384033203125 C 588.9064331054688 579.1245727539062 587.2028198242188 578.6055908203125 589.0025024414062 577.7667846679688 C 588.802734375 576.4824829101562 590.49560546875 577.305419921875 592.8370971679688 578.7723999023438 C 592.8528442382812 580.3560791015625 594.7855224609375 580.02490234375 591.1974487304688 577.8463745117188" stroke-width="0.0" fill="rgb(255, 255, 255)" opacity="0.8017957"/>
    <path d="M 541.6720581054688 594.6366577148438 C 542.18017578125 596.26953125 541.2948608398438 598.086181640625 540.5806274414062 600.3382568359375 C 542.3766479492188 600.0689086914062 540.4509887695312 601.9390258789062 542.5977783203125 602.2916259765625 C 543.6137084960938 602.7401123046875 542.01416015625 603.2955932617188 544.2559204101562 605.2909545898438 C 542.1489868164062 604.1348876953125 542.2477416992188 602.4610595703125 541.6720581054688 594.6366577148438" stroke-width="0.0" fill="rgb(255, 255, 255)" opacity="0.7552549"/>
    <path d="M 561.669189453125 585.8777465820312 C 559.3617553710938 587.2400512695312 562.6553344726562 586.5650634765625 562.0770263671875 587.8504028320312 C 563.6494750976562 586.2249145507812 563.09228515625 585.3364868164062 562.7081909179688 584.55224609375 C 562.896240234375 585.1531372070312 564.5247192382812 583.0057983398438 565.0850830078125 583.4615478515625 C 566.4988403320312 584.1209106445312 565.1189575195312 582.0079956054688 561.669189453125 585.8777465820312" stroke-width="0.0" fill="rgb(255, 255, 255)" opacity="0.76975256"/>
    <path d="M 22.754600524902344 327.3897399902344 C 23.589797973632812 325.9998779296875 23.319265365600586 327.7813720703125 25.644466400146484 326.639892578125 C 22.907352447509766 325.3976135253906 23.899494171142578 323.9101257324219 25.111692428588867 324.94635009765625 C 23.47896957397461 324.1596984863281 21.330474853515625 321.8034973144531 20.545244216918945 321.18743896484375 C 23.327342987060547 320.4079284667969 23.30406951904297 320.43341064453125 22.754600524902344 327.3897399902344" stroke-width="0.0" fill="rgb(255, 255, 255)" opacity="0.6976411"/>
    <path d="M 26.787715911865234 538.4813842773438 C 24.381092071533203 537.6729736328125 21.960887908935547 538.455322265625 21.99403190612793 537.38818359375 C 22.39091682434082 535.5985717773438 21.496593475341797 535.048583984375 20.61774253845215 536.9965209960938 C 22.330476760864258 539.2921752929688 23.11067771911621 538.2213134765625 21.11920738220215 539.1810913085938 C 18.710987091064453 538.4307861328125 19.35973358154297 537.1138305664062 26.787715911865234 538.4813842773438" stroke-width="0.0" fill="rgb(255, 255, 255)" opacity="0.74682003"/>
    <path d="M 61.9000244140625 577.2462768554688 C 62.021602630615234 578.8316040039062 60.91398620605469 578.2371826171875 61.04570770263672 578.8790283203125 C 60.98001480102539 578.4607543945312 63.1324348449707 581.2373046875 62.255043029785156 580.2031860351562 C 62.64697265625 579.6250610351562 61.684112548828125 581.1837158203125 62.358192443847656 580.1530151367188 C 60.036033630371094 578.1668090820312 61.83137512207031 579.500244140625 61.9000244140625 577.2462768554688" stroke-width="0.0" fill="rgb(255, 255, 255)" opacity="0.7859425"/>
    <path d="M 18.84360694885254 283.1852111816406 C 20.75115966796875 281.48193359375 19.88749885559082 279.1885986328125 19.79092025756836 277.5871887207031 C 16.90546417236328 280.0869140625 17.6212215423584 281.7441101074219 18.880756378173828 282.1966552734375 C 21.438274383544922 283.6142578125 23.052749633789062 284.44891357421875 21.55369758605957 286.704345703125 C 21.508073806762695 285.2159423828125 21.502891540527344 286.5193786621094 18.84360694885254 283.1852111816406" stroke-width="0.0" fill="rgb(255, 255, 255)" opacity="0.65132743"/>
    <path d="M 11.060893058776855 279.4033508300781 C 11.652209281921387 281.20648193359375 11.812596321105957 279.78851318359375 10.056973457336426 279.9528503417969 C 11.572772979736328 280.7139892578125 9.366541862487793 279.3560791015625 8.774615287780762 280.2392578125 C 5.66937780380249 277.3443908691406 5.156310558319092 277.0312805175781 6.414440631866455 274.629150390625 C 7.605805397033691 276.09503173828125 6.402492523193359 274.5870666503906 11.060893058776855 279.4033508300781" stroke-width="0.0" fill="rgb(255, 255, 255)" opacity="0.6792116"/>
    <path d="M 244.8742218017578 594.7523803710938 C 246.13360595703125 594.1839599609375 246.17361450195312 592.2001342773438 245.67837524414062 591.23095703125 C 245.76612854003906 592.77197265625 247.88768005371094 591.2335205078125 245.2747344970703 592.1524658203125 C 244.62432861328125 590.6172485351562 245.78704833984375 591.3158569335938 244.7686309814453 592.498779296875 C 245.6768035888672 595.3527221679688 246.20156860351562 593.5951538085938 244.8742218017578 594.7523803710938" stroke-width="0.0" fill="rgb(255, 255, 255)" opacity="0.7948154"/>
    <path d="M 14.966728210449219 293.5536804199219 C 15.717279434204102 292.361328125 13.260754585266113 291.781494140625 13.778385162353516 289.050048828125 C 13.154373168945312 290.76824951171875 12.01072883605957 291.7714538574219 12.130558967590332 289.86822509765625 C 11.37613296508789 291.6791076660156 13.21781063079834 291.1418151855469 11.840774536132812 290.0537109375 C 15.779825210571289 289.2826232910156 15.082630157470703 290.11224365234375 14.966728210449219 293.5536804199219" stroke-width="0.0" fill="rgb(255, 255, 255)" opacity="0.7223817"/>
    <path d="M 27.429346084594727 278.22998046875 C 28.98611831665039 276.97296142578125 30.480283737182617 275.5467529296875 28.27420425415039 277.305908203125 C 27.23272132873535 274.9835205078125 28.671911239624023 274.51483154296875 29.678119659423828 275.1392822265625 C 27.618314743041992 274.55322265625 26.03081512451172 274.1817932128906 27.937131881713867 274.912841796875 C 28.2109375 274.1471862792969 30.767742156982422 275.94580078125 27.429346084594727 278.22998046875" stroke-width="0.0" fill="rgb(255, 255, 255)" opacity="0.8134634"/>
    <path d="M 329.9114685058594 587.562255859375 C 328.723876953125 586.7886352539062 330.6339416503906 587.8065795898438 331.3691101074219 589.1814575195312 C 330.1854553222656 587.7874755859375 331.3531799316406 586.6808471679688 333.0311584472656 584.6531982421875 C 332.6727600097656 585.6429443359375 331.09954833984375 585.5805053710938 331.896240234375 584.1975708007812 C 333.32012939453125 582.9530029296875 333.648193359375 581.245361328125 329.9114685058594 587.562255859375" stroke-width="0.0" fill="rgb(255, 255, 255)" opacity="0.76291364"/>
    <path d="M 295.9753112792969 574.2642211914062 C 296.338623046875 573.1492919921875 294.27142333984375 574.95556640625 295.4926452636719 574.0365600585938 C 296.451416015625 573.3978271484375 296.7088317871094 574.732666015625 296.4331970214844 574.3327026367188 C 296.7865905761719 574.3575439453125 296.6016845703125 574.1228637695312 295.9583740234375 573.884765625 C 297.2983703613281 572.4544677734375 297.6789855957031 571.1381225585938 295.9753112792969 574.2642211914062" stroke-width="0.0" fill="rgb(255, 255, 255)" opacity="0.9393513"/>
    <path d="M 596.8639526367188 575.0201416015625 C 598.2283325195312 576.668701171875 597.8533325195312 576.0929565429688 598.0533447265625 574.97021484375 C 599.3103637695312 575.09765625 599.3385009765625 576.0223388671875 598.3914794921875 577.9818725585938 C 598.1887817382812 578.2960205078125 597.173095703125 575.8496704101562 597.980224609375 577.5095825195312 C 599.3316650390625 578.6836547851562 598.67822265625 577.0587158203125 596.8639526367188 575.0201416015625" stroke-width="0.0" fill="rgb(255, 255, 255)" opacity="0.77275646"/>
    <path d="M 40.34892654418945 280.0387268066406 C 38.11207580566406 279.71099853515625 38.69028854370117 280.2969055175781 40.626949310302734 280.3475646972656 C 38.18666076660156 280.22674560546875 39.44598388671875 280.25286865234375 39.93846893310547 279.58538818359375 C 38.156898498535156 280.77117919921875 38.349693298339844 282.5652160644531 38.69626998901367 280.68890380859375 C 40.48355484008789 281.7204284667969 39.5402717590332 280.5903625488281 40.34892654418945 280.0387268066406" stroke-width="0.0" fill="rgb(255, 255, 255)" opacity="0.81754166"/>
    <path d="M 19.33597183227539 271.0707702636719 C 18.51791000366211 268.8417663574219 17.90610122680664 267.0841064453125 18.307374954223633 268.3720397949219 C 17.630094528198242 268.5860290527344 17.33405113220215 268.19781494140625 17.262470245361328 268.619873046875 C 17.851465225219727 267.83099365234375 18.905649185180664 268.6673583984375 18.822792053222656 270.1076965332031 C 17.03279685974121 269.79046630859375 14.930418968200684 271.0003356933594 19.33597183227539 271.0707702636719" stroke-width="0.0" fill="rgb(255, 255, 255)" opacity="0.7686231"/>
    <path d="M 26.99562644958496 534.908935546875 C 26.957143783569336 535.04931640625 26.952167510986328 535.1229858398438 26.970661163330078 534.9561157226562 C 26.255287170410156 533.8530883789062 23.818408966064453 531.4702758789062 23.223112106323242 530.657470703125 C 22.296703338623047 531.6575927734375 20.374568939208984 530.7339477539062 21.02667236328125 530.2571411132812 C 20.954345703125 528.3733520507812 20.256532669067383 527.2667846679688 26.99562644958496 534.908935546875" stroke-width="0.0" fill="rgb(255, 255, 255)" opacity="0.7360469"/>
    <path d="M 288.63946533203125 597.4970092773438 C 291.02294921875 598.7201538085938 290.86456298828125 600.2755126953125 293.09124755859375 600.7433471679688 C 292.2128601074219 598.1832275390625 291.94683837890625 599.722900390625 294.65106201171875 601.8495483398438 C 295.17254638671875 599.3085327148438 292.24810791015625 598.3709716796875 291.9517822265625 597.7339477539062 C 291.87335205078125 596.2611694335938 293.6133728027344 596.2427978515625 288.63946533203125 597.4970092773438" stroke-width="0.0" fill="rgb(255, 255, 255)" opacity="0.7588268"/>
    <path d="M 41.78947830200195 318.8861389160156 C 40.79820251464844 319.47442626953125 40.3797492980957 318.68231201171875 42.284183502197266 316.6554870605469 C 41.32513427734375 316.849365234375 41.92472457885742 318.5691833496094 39.10891342163086 319.66436767578125 C 40.39616394042969 319.18328857421875 38.5498046875 319.42291259765625 40.49715042114258 320.2098083496094 C 40.73291015625 319.93817138671875 42.51927185058594 320.3439025878906 41.78947830200195 318.8861389160156" stroke-width="0.0" fill="rgb(255, 255, 255)" opacity="0.80042505"/>
  </g>
</svg>
