<?xml version="1.0" ?>
<svg xmlns="http://www.w3.org/2000/svg" version="1.1" width="600" height="600">
  <defs/>
  <g>
    <path d="M 266.3684997558594 7.761264324188232 C 265.67132568359375 6.522265911102295 265.7380065917969 4.8696184158325195 265.2457275390625 4.86710786819458 C 266.5872497558594 5.380293369293213 263.8278503417969 6.6053056716918945 265.3663024902344 8.276390075683594 C 267.9494323730469 6.931765556335449 269.6497802734375 5.393116474151611 270.13043212890625 3.965500831604004 C 270.373046875 3.565692901611328 269.97393798828125 5.6747260093688965 266.3684997558594 7.761264324188232" stroke-width="0.0" fill="rgb(255, 255, 255)" opacity="0.75099295"/>
    <path d="M 227.2889862060547 12.456504821777344 C 228.40806579589844 10.77673625946045 229.89268493652344 8.292302131652832 228.4984893798828 6.7224555015563965 C 228.43939208984375 6.807808876037598 228.01296997070312 5.728952884674072 225.3911590576172 6.075595378875732 C 224.54364013671875 1.8089640140533447 224.17825317382812 2.4156384468078613 223.80126953125 1.279555320739746 C 224.620361328125 1.526807427406311 224.58428955078125 3.119128465652466 227.2889862060547 12.456504821777344" stroke-width="0.0" fill="rgb(255, 255, 255)" opacity="0.6333982"/>
    <path d="M 579.9818115234375 142.6909942626953 C 580.3621215820312 141.62008666992188 578.7424926757812 140.61131286621094 581.7142333984375 141.65542602539062 C 580.5661010742188 142.6890106201172 580.2440185546875 143.36643981933594 579.0594482421875 140.7306671142578 C 578.3717041015625 139.4113006591797 578.8761596679688 137.9536590576172 579.1561279296875 138.64390563964844 C 578.7338256835938 138.9974822998047 578.4282836914062 138.40646362304688 579.9818115234375 142.6909942626953" stroke-width="0.0" fill="rgb(64, 64, 64)" opacity="0.7768432"/>
    <path d="M 246.0723419189453 522.0565795898438 C 244.69703674316406 503.56683349609375 247.00698852539062 506.9988708496094 246.812255859375 516.8704833984375 C 246.2861328125 522.9155883789062 248.21389770507812 525.1965942382812 249.831298828125 524.6333618164062 C 250.96142578125 525.8715209960938 252.9117889404297 527.7359008789062 253.8050537109375 528.4328002929688 C 255.07740783691406 528.4159545898438 255.37728881835938 529.7662353515625 246.0723419189453 522.0565795898438" stroke-width="0.0" fill="rgb(201, 201, 201)" opacity="1.0"/>
    <path d="M 346.3865966796875 69.18710327148438 C 344.9749755859375 67.8012466430664 345.3883056640625 66.99142456054688 344.2210693359375 66.49050903320312 C 341.67071533203125 65.83879852294922 342.33135986328125 64.62452697753906 341.1204528808594 65.93539428710938 C 341.8369445800781 65.60447692871094 342.49920654296875 64.73979187011719 341.2771301269531 64.16934204101562 C 340.24383544921875 64.90635681152344 339.94818115234375 61.6859245300293 346.3865966796875 69.18710327148438" stroke-width="0.0" fill="rgb(255, 255, 255)" opacity="0.7189618"/>
    <path d="M 475.0881042480469 31.03499984741211 C 476.6575622558594 31.50652313232422 477.743896484375 30.015907287597656 478.12188720703125 32.04001235961914 C 477.78271484375 32.932533264160156 475.8613586425781 35.015628814697266 474.9436340332031 35.153350830078125 C 475.0112609863281 35.34089279174805 472.7231140136719 34.7747917175293 472.9571838378906 34.71394348144531 C 472.4925537109375 32.511619567871094 475.06268310546875 32.276031494140625 475.0881042480469 31.03499984741211" stroke-width="0.0" fill="rgb(255, 255, 255)" opacity="0.68117034"/>
    <path d="M 239.47633361816406 102.11296844482422 C 219.29446411132812 109.29863739013672 231.0176544189453 84.09539794921875 209.9811248779297 84.75888061523438 C 191.78643798828125 73.80584716796875 223.9311981201172 95.81451416015625 252.83819580078125 46.54182052612305 C 189.5750732421875 43.52787780761719 179.56910705566406 56.55900192260742 185.00230407714844 85.60880279541016 C 236.94110107421875 77.51887512207031 227.95359802246094 65.13262176513672 239.47633361816406 102.11296844482422" stroke-width="0.0" fill="rgb(34, 34, 34)" opacity="0.93218136"/>
    <path d="M 80.36626434326172 241.6049041748047 C 50.072509765625 243.1094970703125 45.31477355957031 244.37059020996094 43.76946258544922 296.81097412109375 C 87.42221069335938 287.798828125 82.62622833251953 270.5407409667969 62.47519302368164 288.93817138671875 C 74.96292114257812 283.5860290527344 91.12024688720703 277.3727111816406 103.76756286621094 270.783935546875 C 98.7866439819336 256.4727783203125 94.83427429199219 252.1550750732422 80.36626434326172 241.6049041748047" stroke-width="0.0" fill="rgb(10, 10, 10)" opacity="0.980523"/>
    <path d="M 19.974742889404297 176.60867309570312 C 18.581985473632812 175.8792724609375 21.547576904296875 177.337646484375 21.252546310424805 178.04391479492188 C 22.541427612304688 176.55239868164062 23.556272506713867 179.11129760742188 22.487098693847656 177.49655151367188 C 24.190187454223633 177.07823181152344 21.708179473876953 177.92005920410156 19.835384368896484 178.17127990722656 C 20.520687103271484 179.8759002685547 19.836626052856445 179.5809783935547 19.974742889404297 176.60867309570312" stroke-width="0.0" fill="rgb(255, 255, 255)" opacity="0.7782363"/>
    <path d="M 132.0248565673828 453.8489685058594 C 131.74168395996094 456.3621826171875 132.019287109375 457.6371765136719 133.72425842285156 456.96923828125 C 135.05426025390625 458.88275146484375 133.2488250732422 457.0924987792969 134.0802459716797 454.9688415527344 C 137.81332397460938 455.8511047363281 136.98350524902344 453.22674560546875 137.99794006347656 453.8155517578125 C 137.925537109375 453.41400146484375 139.2202911376953 454.1146240234375 132.0248565673828 453.8489685058594" stroke-width="0.0" fill="rgb(255, 255, 255)" opacity="0.71838814"/>
    <path d="M 232.0343780517578 476.57244873046875 C 229.73678588867188 475.2037048339844 232.05531311035156 474.0967102050781 230.63528442382812 474.64801025390625 C 229.79864501953125 476.4964904785156 230.06004333496094 475.6288146972656 230.0376434326172 474.14996337890625 C 232.05519104003906 475.1503601074219 230.4349822998047 474.2206726074219 231.22023010253906 472.08807373046875 C 229.12152099609375 471.5056457519531 226.94410705566406 472.0137634277344 232.0343780517578 476.57244873046875" stroke-width="0.0" fill="rgb(255, 255, 255)" opacity="0.77253777"/>
    <path d="M 252.50775146484375 365.38775634765625 C 299.01519775390625 348.2107238769531 308.7362976074219 325.2284240722656 332.3974914550781 324.6636047363281 C 301.759765625 359.2093811035156 288.64453125 355.5398254394531 294.0190734863281 356.2103271484375 C 301.1277770996094 351.6822509765625 299.5404052734375 355.9798889160156 286.9233703613281 363.69110107421875 C 280.7206115722656 382.64642333984375 259.9178771972656 397.408935546875 252.50775146484375 365.38775634765625" stroke-width="0.0" fill="rgb(10, 10, 10)" opacity="0.9869109"/>
    <path d="M 126.3899917602539 504.5440979003906 C 128.05706787109375 504.1053161621094 128.8421173095703 505.7972412109375 130.4049835205078 504.5520935058594 C 129.59239196777344 505.66925048828125 131.39581298828125 507.74346923828125 130.0481414794922 505.6013488769531 C 129.5474853515625 507.29669189453125 130.9224395751953 504.734619140625 129.7234649658203 505.4623107910156 C 130.5426483154297 504.8818054199219 131.91587829589844 505.2315673828125 126.3899917602539 504.5440979003906" stroke-width="0.0" fill="rgb(255, 255, 255)" opacity="0.7714591"/>
    <path d="M 313.58795166015625 22.653255462646484 C 312.0538024902344 21.12489891052246 313.1430969238281 22.232215881347656 314.30133056640625 24.006969451904297 C 313.24053955078125 24.15810203552246 314.66571044921875 26.199308395385742 315.19683837890625 26.870784759521484 C 315.2321472167969 28.794355392456055 313.1042785644531 27.754356384277344 310.8248596191406 27.92743682861328 C 311.903564453125 25.704021453857422 309.0672912597656 24.441797256469727 313.58795166015625 22.653255462646484" stroke-width="0.0" fill="rgb(255, 255, 255)" opacity="0.69122887"/>
    <path d="M 112.29960632324219 126.6484146118164 C 118.9500961303711 110.96919250488281 105.14197540283203 108.05854034423828 94.32837677001953 75.06967163085938 C 92.63609313964844 70.40544891357422 76.38113403320312 71.76473236083984 46.69313430786133 85.8463363647461 C 47.778472900390625 118.58135223388672 55.73592758178711 101.62614440917969 68.77578735351562 97.75218963623047 C 76.60420989990234 93.69991302490234 64.05931854248047 115.66381072998047 112.29960632324219 126.6484146118164" stroke-width="0.0" fill="rgb(35, 35, 35)" opacity="0.88913274"/>
    <path d="M 208.86474609375 308.78582763671875 C 206.83773803710938 317.0657958984375 211.0480194091797 318.8988037109375 205.70343017578125 330.2896728515625 C 188.91995239257812 339.16680908203125 184.62307739257812 346.6072082519531 163.7090606689453 350.1494445800781 C 167.61688232421875 317.8045349121094 178.63475036621094 314.92181396484375 185.70806884765625 301.99432373046875 C 204.98138427734375 294.72674560546875 205.4153289794922 301.2237243652344 208.86474609375 308.78582763671875" stroke-width="0.0" fill="rgb(21, 21, 21)" opacity="0.9341839"/>
    <path d="M 527.31494140625 78.82154083251953 C 527.7720947265625 77.96404266357422 526.8801879882812 77.5172119140625 527.6255493164062 78.30099487304688 C 527.9039306640625 79.15455627441406 529.1752319335938 76.27725219726562 529.9696655273438 77.02809143066406 C 529.416259765625 77.1192398071289 529.6508178710938 75.43912506103516 529.4630126953125 77.30693054199219 C 530.3070068359375 74.9089126586914 531.0634765625 75.85122680664062 527.31494140625 78.82154083251953" stroke-width="0.0" fill="rgb(255, 255, 255)" opacity="0.8197145"/>
    <path d="M 235.42820739746094 91.55787658691406 C 217.04476928710938 89.70167541503906 233.89283752441406 101.18885040283203 185.57264709472656 102.85070037841797 C 182.2254180908203 124.19151306152344 190.06114196777344 112.84063720703125 202.85325622558594 115.65299224853516 C 223.31787109375 112.00009155273438 228.2646942138672 114.24212646484375 237.67103576660156 112.88826751708984 C 247.38487243652344 111.45996856689453 245.62359619140625 120.68720245361328 235.42820739746094 91.55787658691406" stroke-width="0.0" fill="rgb(0, 0, 0)" opacity="0.9991676"/>
    <path d="M 254.06271362304688 563.2584838867188 C 252.38751220703125 487.4026794433594 247.15798950195312 488.3619079589844 184.75668334960938 489.803955078125 C 181.57089233398438 525.5636596679688 206.2341766357422 511.9114685058594 223.1334228515625 555.0599975585938 C 236.09814453125 563.060546875 229.46371459960938 552.5317993164062 208.6002197265625 545.677490234375 C 207.24208068847656 533.4422607421875 192.84109497070312 546.03125 254.06271362304688 563.2584838867188" stroke-width="0.0" fill="rgb(16, 16, 16)" opacity="0.993829"/>
    <path d="M 113.83380889892578 29.81647491455078 C 111.94351959228516 28.86737823486328 106.56562042236328 34.489227294921875 111.05652618408203 59.055965423583984 C 145.7714385986328 55.59234619140625 143.0730438232422 40.67120361328125 136.33740234375 28.643760681152344 C 122.95240783691406 26.661922454833984 126.82164001464844 29.376924514770508 139.0609588623047 31.560209274291992 C 117.9022216796875 27.323829650878906 116.66090393066406 32.553409576416016 113.83380889892578 29.81647491455078" stroke-width="0.0" fill="rgb(109, 109, 110)" opacity="1.0"/>
    <path d="M 288.5268859863281 33.31526184082031 C 287.4923095703125 31.419174194335938 284.5951232910156 29.69501495361328 285.35919189453125 29.72803497314453 C 282.88055419921875 30.851890563964844 281.0722351074219 29.750001907348633 280.30670166015625 26.619564056396484 C 280.3571472167969 28.727737426757812 281.7588806152344 27.244035720825195 283.61212158203125 28.33509635925293 C 282.1899719238281 27.741924285888672 282.8284912109375 31.276329040527344 288.5268859863281 33.31526184082031" stroke-width="0.0" fill="rgb(255, 255, 255)" opacity="0.6598704"/>
    <path d="M 210.24119567871094 270.13970947265625 C 247.18284606933594 280.9015197753906 223.00796508789062 267.2839660644531 230.2340087890625 262.90325927734375 C 246.7294158935547 261.03662109375 244.7748260498047 261.2084655761719 249.6062469482422 259.7974853515625 C 253.94174194335938 255.78660583496094 262.7218322753906 272.47430419921875 246.4300994873047 302.6787109375 C 227.55604553222656 251.82972717285156 208.2667999267578 232.32577514648438 210.24119567871094 270.13970947265625" stroke-width="0.0" fill="rgb(31, 31, 31)" opacity="0.96019095"/>
    <path d="M 461.09979248046875 498.4466247558594 C 463.2800598144531 496.35223388671875 462.10992431640625 494.6160583496094 459.47576904296875 491.9173583984375 C 457.3614807128906 491.7889099121094 456.63616943359375 492.47808837890625 455.8475646972656 491.9240417480469 C 454.3887634277344 491.7044677734375 456.4929504394531 492.3919372558594 456.0627136230469 489.9349060058594 C 452.53594970703125 489.4072570800781 452.2560119628906 490.7480773925781 461.09979248046875 498.4466247558594" stroke-width="0.0" fill="rgb(255, 255, 255)" opacity="0.62305784"/>
    <path d="M 265.2439270019531 347.0227966308594 C 264.55517578125 347.36492919921875 266.5240173339844 346.9447937011719 265.7991943359375 344.9928283691406 C 267.6887512207031 345.10247802734375 268.2772521972656 344.38140869140625 267.1487731933594 344.984130859375 C 265.65869140625 342.8718566894531 267.6175842285156 344.42974853515625 266.8984069824219 345.6913146972656 C 268.7167663574219 344.7353820800781 269.7701110839844 343.6761474609375 265.2439270019531 347.0227966308594" stroke-width="0.0" fill="rgb(255, 255, 255)" opacity="0.81743944"/>
    <path d="M 365.1437072753906 80.25139617919922 C 365.29296875 81.37040710449219 365.4806213378906 83.02909088134766 364.8759765625 84.49237060546875 C 363.5369873046875 84.94676208496094 365.2214660644531 85.1351318359375 362.8293151855469 83.73216247558594 C 363.6050109863281 85.44810485839844 361.7657165527344 85.39461517333984 363.1979064941406 84.99962615966797 C 364.6020202636719 84.62415313720703 365.6518859863281 85.53236389160156 365.1437072753906 80.25139617919922" stroke-width="0.0" fill="rgb(255, 255, 255)" opacity="0.7964246"/>
    <path d="M 90.0409927368164 250.64556884765625 C 82.61359405517578 273.95318603515625 88.56147003173828 269.9725646972656 108.67630004882812 269.93701171875 C 110.19312286376953 266.60687255859375 106.3753662109375 274.6413879394531 85.38768005371094 273.87054443359375 C 93.09428405761719 265.44476318359375 117.65819549560547 277.6027526855469 117.10037231445312 257.76617431640625 C 111.34358215332031 255.36575317382812 118.57130432128906 252.5779266357422 90.0409927368164 250.64556884765625" stroke-width="0.0" fill="rgb(5, 5, 5)" opacity="0.9323474"/>
    <path d="M 360.1786804199219 70.09808349609375 C 359.2825927734375 70.76673889160156 358.09039306640625 68.84982299804688 359.4222412109375 67.8792953491211 C 359.0260314941406 64.87007141113281 358.1727294921875 64.18394470214844 358.7850646972656 66.47087097167969 C 358.4432678222656 63.537906646728516 357.61737060546875 63.99384689331055 357.4022521972656 65.15914916992188 C 357.774658203125 63.892967224121094 358.3316650390625 62.97090148925781 360.1786804199219 70.09808349609375" stroke-width="0.0" fill="rgb(255, 255, 255)" opacity="0.744723"/>
    <path d="M 138.57957458496094 86.40315246582031 C 119.0346450805664 80.51776885986328 120.08081817626953 70.3598861694336 109.44963836669922 82.08943176269531 C 116.75031280517578 90.66272735595703 119.82939910888672 85.66339874267578 126.88114929199219 88.25814056396484 C 141.37184143066406 86.1654052734375 145.35101318359375 88.54952239990234 120.28911590576172 80.2876968383789 C 120.61175537109375 64.78115844726562 145.8437957763672 63.15696334838867 138.57957458496094 86.40315246582031" stroke-width="0.0" fill="rgb(37, 37, 37)" opacity="0.9000658"/>
    <path d="M 493.5993957519531 451.2799072265625 C 492.68548583984375 450.5094299316406 490.80560302734375 451.5474853515625 489.10784912109375 452.2009582519531 C 489.8468017578125 452.1695861816406 489.6249694824219 451.84130859375 492.3002624511719 450.9034118652344 C 491.4546813964844 452.31903076171875 493.3891906738281 452.8168640136719 493.07696533203125 450.7694396972656 C 492.3946533203125 450.7008056640625 491.1471862792969 449.6526794433594 493.5993957519531 451.2799072265625" stroke-width="0.0" fill="rgb(255, 255, 255)" opacity="0.74671304"/>
    <path d="M 45.55080032348633 254.56309509277344 C 51.78066635131836 249.02651977539062 56.39580535888672 251.36322021484375 55.23736572265625 249.5672607421875 C 57.42608642578125 253.8265380859375 64.90746307373047 250.53018188476562 51.92765808105469 266.29095458984375 C 43.056861877441406 256.9407043457031 51.183719635009766 247.69091796875 56.82646560668945 245.1245574951172 C 58.397422790527344 244.50289916992188 53.65406036376953 244.4087677001953 45.55080032348633 254.56309509277344" stroke-width="0.0" fill="rgb(161, 161, 161)" opacity="1.0"/>
    <path d="M 154.7679443359375 529.9152221679688 C 153.27928161621094 532.1002197265625 153.03546142578125 531.7317504882812 152.54090881347656 531.6597900390625 C 154.44076538085938 531.9241333007812 154.73399353027344 532.6757202148438 153.42784118652344 531.3991088867188 C 154.8089141845703 530.4957885742188 154.21958923339844 529.333984375 155.32606506347656 531.098876953125 C 157.72952270507812 530.4768676757812 157.9351348876953 530.1510009765625 154.7679443359375 529.9152221679688" stroke-width="0.0" fill="rgb(255, 255, 255)" opacity="0.7571531"/>
    <path d="M 448.2818908691406 45.269264221191406 C 446.8939514160156 44.1182746887207 448.85028076171875 43.06187438964844 451.6540832519531 45.096923828125 C 449.9591979980469 44.19422912597656 450.7787780761719 43.64539337158203 452.24462890625 44.1231803894043 C 453.1019592285156 41.95071792602539 452.74169921875 42.39777755737305 451.704345703125 45.20156478881836 C 449.8118591308594 44.78785705566406 450.5934753417969 43.57346725463867 448.2818908691406 45.269264221191406" stroke-width="0.0" fill="rgb(255, 255, 255)" opacity="0.7584673"/>
    <path d="M 139.6103515625 415.7134704589844 C 129.0264129638672 371.3272399902344 137.8784637451172 376.9859619140625 144.2106475830078 364.2088928222656 C 143.9088592529297 368.0032958984375 141.0592498779297 368.3121337890625 157.51319885253906 351.8961486816406 C 167.18148803710938 358.76239013671875 164.38739013671875 362.14776611328125 179.1610870361328 362.46533203125 C 175.11436462402344 418.8153381347656 176.36471557617188 422.3565368652344 139.6103515625 415.7134704589844" stroke-width="0.0" fill="rgb(13, 13, 13)" opacity="0.9752162"/>
    <path d="M 65.33515930175781 32.13508605957031 C 56.30701446533203 43.991859436035156 51.78858184814453 45.358116149902344 89.12376403808594 45.429229736328125 C 101.19947052001953 35.28785705566406 99.78363800048828 10.045235633850098 86.21289825439453 7.688541412353516 C 59.2257080078125 34.9189567565918 60.5043830871582 44.93960952758789 56.90571594238281 37.78398513793945 C 55.884483337402344 27.773860931396484 73.31470489501953 28.373504638671875 65.33515930175781 32.13508605957031" stroke-width="0.0" fill="rgb(10, 10, 10)" opacity="0.9962795"/>
    <path d="M 117.09748077392578 266.8763427734375 C 118.2852783203125 242.56939697265625 113.5441665649414 245.9791259765625 108.27639770507812 246.322509765625 C 109.0943832397461 246.5266571044922 112.16397094726562 246.4688262939453 82.49261474609375 251.7313232421875 C 83.33558654785156 268.5880432128906 93.7080078125 266.62261962890625 88.08977508544922 270.8829040527344 C 86.06570434570312 258.0976867675781 88.01216888427734 267.62200927734375 117.09748077392578 266.8763427734375" stroke-width="0.0" fill="rgb(0, 0, 0)" opacity="0.96871376"/>
    <path d="M 450.338623046875 26.08125114440918 C 451.14447021484375 25.716156005859375 451.78521728515625 27.144990921020508 449.7366638183594 28.456838607788086 C 452.6405334472656 30.24302864074707 452.2162170410156 31.847103118896484 451.8319091796875 31.621877670288086 C 452.5267028808594 32.86929702758789 451.7178955078125 33.50105285644531 450.9993591308594 32.86371612548828 C 449.4072265625 33.43077850341797 447.6047668457031 33.3968620300293 450.338623046875 26.08125114440918" stroke-width="0.0" fill="rgb(255, 255, 255)" opacity="0.6577625"/>
    <path d="M 120.79241943359375 532.7650756835938 C 119.70333099365234 531.6298828125 120.03095245361328 531.0989990234375 120.1808090209961 529.1613159179688 C 121.25665283203125 529.1674194335938 121.70309448242188 527.9174194335938 120.06835174560547 527.9761352539062 C 117.65987396240234 528.168212890625 115.35735321044922 528.2007446289062 116.37628936767578 526.5737915039062 C 115.5009994506836 528.1484985351562 118.56649017333984 529.0840454101562 120.79241943359375 532.7650756835938" stroke-width="0.0" fill="rgb(255, 255, 255)" opacity="0.7140432"/>
    <path d="M 33.318416595458984 496.84027099609375 C 33.938209533691406 494.90264892578125 35.12991714477539 493.83026123046875 34.375118255615234 491.99908447265625 C 32.928863525390625 491.6680908203125 34.392818450927734 492.2142333984375 33.95631790161133 489.7362365722656 C 32.860565185546875 489.3839416503906 35.074527740478516 490.6047668457031 35.063472747802734 489.7417907714844 C 34.41573715209961 489.12158203125 36.33482360839844 488.5950622558594 33.318416595458984 496.84027099609375" stroke-width="0.0" fill="rgb(255, 255, 255)" opacity="0.7599901"/>
    <path d="M 239.6545867919922 31.102642059326172 C 240.48362731933594 30.050437927246094 240.0631103515625 30.143566131591797 240.835205078125 29.080928802490234 C 242.2189483642578 27.38286781311035 243.06204223632812 26.28807258605957 244.37513732910156 25.39992904663086 C 242.18594360351562 24.090728759765625 241.38601684570312 25.443927764892578 242.28225708007812 27.307037353515625 C 240.61354064941406 28.88580894470215 240.31883239746094 30.493669509887695 239.6545867919922 31.102642059326172" stroke-width="0.0" fill="rgb(255, 255, 255)" opacity="0.7577734"/>
    <path d="M 138.7885284423828 394.00604248046875 C 142.72825622558594 410.17242431640625 116.34862518310547 426.80621337890625 169.666748046875 434.89324951171875 C 172.51795959472656 403.54443359375 151.25929260253906 406.0513610839844 138.06979370117188 403.697509765625 C 134.06069946289062 395.8525085449219 136.32534790039062 394.0835876464844 134.74273681640625 396.9986572265625 C 134.09588623046875 393.6471862792969 138.51742553710938 395.2112121582031 138.7885284423828 394.00604248046875" stroke-width="0.0" fill="rgb(68, 67, 69)" opacity="1.0"/>
    <path d="M 14.186105728149414 370.9205627441406 C 11.186592102050781 371.173583984375 10.074176788330078 371.4698791503906 10.303911209106445 369.6906433105469 C 10.884102821350098 367.56365966796875 11.55153751373291 369.2643737792969 12.941429138183594 370.11859130859375 C 13.420249938964844 371.9087219238281 14.233060836791992 369.7454833984375 13.566024780273438 368.4842224121094 C 11.664114952087402 366.46209716796875 12.196249008178711 365.56182861328125 14.186105728149414 370.9205627441406" stroke-width="0.0" fill="rgb(255, 255, 255)" opacity="0.7281105"/>
    <path d="M 16.956470489501953 212.6324920654297 C 18.166540145874023 209.68136596679688 19.147266387939453 208.11703491210938 18.2165470123291 207.26406860351562 C 18.95071029663086 208.43592834472656 18.15955352783203 207.76712036132812 18.327709197998047 208.45437622070312 C 17.753671646118164 210.45326232910156 18.811704635620117 208.33865356445312 18.351076126098633 206.3128662109375 C 18.6868839263916 207.87098693847656 18.763835906982422 208.86729431152344 16.956470489501953 212.6324920654297" stroke-width="0.0" fill="rgb(255, 255, 255)" opacity="0.84071773"/>
    <path d="M 427.2111511230469 95.68025970458984 C 427.6292724609375 94.2490234375 429.52239990234375 93.78672790527344 429.0509338378906 93.84599304199219 C 428.2120361328125 93.8876724243164 426.8859558105469 96.08721160888672 427.23199462890625 95.44369506835938 C 428.7785339355469 93.55305480957031 427.7043762207031 95.10411071777344 426.7630615234375 95.88558959960938 C 427.31793212890625 96.22331237792969 426.7550048828125 94.71540832519531 427.2111511230469 95.68025970458984" stroke-width="0.0" fill="rgb(255, 255, 255)" opacity="0.87443984"/>
    <path d="M 109.32878112792969 464.64654541015625 C 107.3165054321289 461.68115234375 106.11970520019531 461.5577392578125 107.61029052734375 462.65875244140625 C 108.47611236572266 462.6669006347656 108.28875732421875 464.396484375 111.04328155517578 466.3894958496094 C 113.50247955322266 467.1010437011719 110.55623626708984 468.45538330078125 109.44805145263672 470.06097412109375 C 105.28926849365234 469.7369079589844 106.56689453125 469.9747314453125 109.32878112792969 464.64654541015625" stroke-width="0.0" fill="rgb(255, 255, 255)" opacity="0.648375"/>
    <path d="M 282.0489501953125 386.4847717285156 C 238.87367248535156 410.4327697753906 239.67359924316406 415.55767822265625 236.96633911132812 411.8031311035156 C 233.78285217285156 425.7187805175781 207.2681884765625 421.6216125488281 201.36878967285156 454.6341552734375 C 242.40721130371094 456.1577453613281 242.49554443359375 435.1226501464844 256.1957092285156 422.574951171875 C 246.84539794921875 422.467041015625 278.928955078125 417.2886657714844 282.0489501953125 386.4847717285156" stroke-width="0.0" fill="rgb(6, 7, 7)" opacity="0.99346054"/>
    <path d="M 117.98558044433594 65.53704833984375 C 118.0578842163086 65.21654510498047 116.07151794433594 64.99014282226562 117.91751861572266 65.27201843261719 C 115.64521026611328 64.02139282226562 115.13249969482422 62.50733184814453 114.16324615478516 62.54627227783203 C 112.55085754394531 63.1048583984375 111.54642486572266 63.884552001953125 112.12002563476562 60.63947677612305 C 110.54993438720703 59.78403091430664 111.69914245605469 60.274497985839844 117.98558044433594 65.53704833984375" stroke-width="0.0" fill="rgb(255, 255, 255)" opacity="0.7227451"/>
    <path d="M 191.8616180419922 294.5262756347656 C 185.2339630126953 297.9150390625 180.23387145996094 305.8839416503906 186.15933227539062 341.884521484375 C 201.83741760253906 335.3938293457031 206.38558959960938 332.0057678222656 216.49147033691406 328.7376403808594 C 240.89004516601562 316.5655212402344 251.0314483642578 331.2307434082031 248.6859588623047 284.5929260253906 C 182.3137664794922 286.8588562011719 185.71824645996094 292.44580078125 191.8616180419922 294.5262756347656" stroke-width="0.0" fill="rgb(6, 6, 6)" opacity="0.9558896"/>
    <path d="M 111.07036590576172 31.317386627197266 C 110.92678833007812 43.03653335571289 122.64356231689453 54.63771438598633 91.29542541503906 50.66957092285156 C 100.90068817138672 19.911624908447266 106.73241424560547 25.992477416992188 111.4091567993164 30.93331527709961 C 113.37019348144531 27.638708114624023 110.72711181640625 26.626359939575195 112.55842590332031 26.25384521484375 C 112.29196166992188 25.752084732055664 112.5428695678711 22.987796783447266 111.07036590576172 31.317386627197266" stroke-width="0.0" fill="rgb(152, 152, 152)" opacity="1.0"/>
    <path d="M 305.8758239746094 121.6855697631836 C 266.7648010253906 110.25542449951172 275.7327880859375 77.89706420898438 242.06198120117188 74.6164779663086 C 250.68003845214844 82.87433624267578 243.1231231689453 93.3763198852539 232.4458770751953 44.82346725463867 C 281.34002685546875 46.556270599365234 284.8994445800781 60.57935333251953 310.17022705078125 71.95042419433594 C 310.0143127441406 113.86327362060547 309.30438232421875 114.3226318359375 305.8758239746094 121.6855697631836" stroke-width="0.0" fill="rgb(6, 6, 6)" opacity="1.0"/>
    <path d="M 10.8335599899292 372.5966491699219 C 8.312234878540039 370.0078125 10.437355995178223 371.3201904296875 8.822295188903809 370.938232421875 C 8.990400314331055 369.882080078125 8.822651863098145 368.8321838378906 8.963504791259766 367.1711120605469 C 8.613917350769043 366.0768127441406 10.837458610534668 367.8414306640625 10.274059295654297 369.1944580078125 C 10.365045547485352 366.94610595703125 11.483194351196289 367.2879333496094 10.8335599899292 372.5966491699219" stroke-width="0.0" fill="rgb(255, 255, 255)" opacity="0.7606161"/>
    <path d="M 487.7262268066406 474.4620056152344 C 487.6815185546875 473.4978942871094 486.2529296875 473.5751953125 486.9822082519531 473.9129333496094 C 487.88409423828125 472.17388916015625 485.8851623535156 473.57318115234375 482.51513671875 472.9521484375 C 485.7936096191406 470.1334533691406 485.5625 469.382080078125 485.022216796875 468.8102722167969 C 486.8437194824219 471.98321533203125 487.0539245605469 473.0544128417969 487.7262268066406 474.4620056152344" stroke-width="0.0" fill="rgb(255, 255, 255)" opacity="0.7011407"/>
    <path d="M 47.941429138183594 197.0045166015625 C 44.73460006713867 212.4976043701172 44.8336296081543 223.63255310058594 29.29523468017578 227.6160125732422 C 21.429866790771484 231.19871520996094 33.765350341796875 217.9964141845703 39.72844696044922 204.94993591308594 C 37.6813850402832 208.7186737060547 38.01283264160156 210.0656280517578 39.99711608886719 206.80746459960938 C 36.42577362060547 213.09791564941406 33.21123123168945 211.85394287109375 47.941429138183594 197.0045166015625" stroke-width="0.0" fill="rgb(2, 2, 2)" opacity="1.0"/>
    <path d="M 443.2819519042969 82.72461700439453 C 443.81378173828125 81.845703125 443.2099304199219 83.45447540283203 442.509521484375 82.1324691772461 C 440.3387145996094 81.77169036865234 438.1959533691406 80.28791046142578 439.1491394042969 79.46495819091797 C 438.4778137207031 80.20608520507812 440.6354064941406 78.35289764404297 438.9013671875 79.63750457763672 C 439.13214111328125 81.08258819580078 438.9274597167969 80.64562225341797 443.2819519042969 82.72461700439453" stroke-width="0.0" fill="rgb(255, 255, 255)" opacity="0.794317"/>
    <path d="M 489.6867370605469 399.06292724609375 C 490.3819885253906 400.22613525390625 490.1976318359375 400.65264892578125 489.39422607421875 402.2521667480469 C 490.0648193359375 401.72613525390625 490.1922302246094 399.9002380371094 488.1392822265625 398.9178161621094 C 486.0478210449219 398.8245849609375 486.913818359375 401.5799560546875 488.2413024902344 401.0546875 C 489.1946716308594 400.9511413574219 490.85931396484375 401.38165283203125 489.6867370605469 399.06292724609375" stroke-width="0.0" fill="rgb(255, 255, 255)" opacity="0.748087"/>
    <path d="M 357.6960754394531 54.19853210449219 C 356.71673583984375 54.235355377197266 356.6003112792969 53.26862335205078 357.7489013671875 54.26311492919922 C 358.2677917480469 54.90673065185547 360.2121276855469 53.55352783203125 358.96392822265625 54.23147964477539 C 358.03973388671875 54.21792221069336 358.2264099121094 54.97951889038086 356.8962707519531 53.53416442871094 C 356.6974182128906 55.286842346191406 357.097900390625 53.577030181884766 357.6960754394531 54.19853210449219" stroke-width="0.0" fill="rgb(255, 255, 255)" opacity="0.8626076"/>
    <path d="M 128.00559997558594 98.05126953125 C 127.9261474609375 100.21683502197266 128.86898803710938 97.99016571044922 129.94798278808594 99.61256408691406 C 130.76953125 99.31480407714844 129.74473571777344 100.20982360839844 129.8311004638672 100.79419708251953 C 130.74459838867188 101.5771484375 129.4171600341797 101.22692108154297 131.6331329345703 100.86360931396484 C 130.2400360107422 100.82047271728516 132.9580078125 101.13418579101562 128.00559997558594 98.05126953125" stroke-width="0.0" fill="rgb(255, 255, 255)" opacity="0.8188944"/>
    <path d="M 171.86851501464844 134.88206481933594 C 207.67640686035156 134.3424072265625 220.25650024414062 131.0968475341797 230.396728515625 133.2794647216797 C 221.159912109375 155.01377868652344 220.5184783935547 148.9204559326172 226.37860107421875 147.5322265625 C 226.61996459960938 156.7745819091797 227.44586181640625 162.71762084960938 229.2712860107422 169.99789428710938 C 197.6599578857422 153.2386932373047 178.89051818847656 143.3548126220703 171.86851501464844 134.88206481933594" stroke-width="0.0" fill="rgb(2, 2, 2)" opacity="0.9905935"/>
    <path d="M 75.70979309082031 565.9921875 C 77.34335327148438 566.632080078125 77.61431884765625 564.7808837890625 76.54531860351562 566.32861328125 C 75.42236328125 565.1055297851562 75.57720184326172 566.5693969726562 73.38748168945312 563.5873413085938 C 74.57537841796875 565.0409545898438 74.56671142578125 564.5492553710938 73.03853607177734 564.4633178710938 C 74.73519134521484 564.5499877929688 74.89317321777344 565.2907104492188 75.70979309082031 565.9921875" stroke-width="0.0" fill="rgb(255, 255, 255)" opacity="0.8049073"/>
    <path d="M 10.017334938049316 596.2728881835938 C 11.791345596313477 597.479248046875 12.102231979370117 598.1077880859375 10.892416000366211 599.4904174804688 C 12.647496223449707 597.6088256835938 10.652851104736328 596.6907958984375 8.619546890258789 595.4085083007812 C 9.917831420898438 592.6790771484375 12.150976181030273 592.5405883789062 10.606688499450684 590.8624267578125 C 9.583683013916016 591.4357299804688 10.052568435668945 589.6773071289062 10.017334938049316 596.2728881835938" stroke-width="0.0" fill="rgb(255, 255, 255)" opacity="0.71843123"/>
    <path d="M 20.411691665649414 295.5208435058594 C 19.619028091430664 294.85125732421875 18.764646530151367 295.83123779296875 19.856351852416992 295.18255615234375 C 19.94063377380371 294.21844482421875 17.048158645629883 292.4624938964844 16.739206314086914 293.2495422363281 C 14.38569164276123 294.2757873535156 16.277849197387695 293.4303283691406 18.245712280273438 292.29638671875 C 16.381633758544922 293.64068603515625 17.48151206970215 291.4342956542969 20.411691665649414 295.5208435058594" stroke-width="0.0" fill="rgb(255, 255, 255)" opacity="0.7445799"/>
    <path d="M 243.04217529296875 586.5538940429688 C 242.343017578125 587.3047485351562 244.9364776611328 586.68701171875 243.90354919433594 588.9270629882812 C 243.99681091308594 587.7520751953125 246.3270721435547 587.2621459960938 246.0672607421875 589.5604248046875 C 247.94488525390625 590.844970703125 246.4478759765625 591.0615844726562 248.8992462158203 590.9159545898438 C 248.68704223632812 588.565673828125 251.2520751953125 588.3286743164062 243.04217529296875 586.5538940429688" stroke-width="0.0" fill="rgb(255, 255, 255)" opacity="0.6585672"/>
    <path d="M 202.97879028320312 235.83628845214844 C 198.93344116210938 278.33892822265625 180.99835205078125 266.2577209472656 169.7367401123047 262.5007629394531 C 175.775634765625 246.0708770751953 167.81982421875 252.15020751953125 147.80540466308594 256.734619140625 C 145.08836364746094 255.7544403076172 145.43463134765625 238.83836364746094 146.6009979248047 239.3577117919922 C 167.22857666015625 238.25428771972656 172.84518432617188 231.9182891845703 202.97879028320312 235.83628845214844" stroke-width="0.0" fill="rgb(4, 4, 4)" opacity="0.9858194"/>
    <path d="M 387.9858093261719 53.97331619262695 C 389.3011169433594 53.80374526977539 389.1125793457031 54.420875549316406 389.00445556640625 56.46427536010742 C 387.11224365234375 57.82390594482422 387.4226379394531 58.86864471435547 388.0762939453125 57.17890167236328 C 387.99407958984375 58.202606201171875 388.6910705566406 60.11697769165039 388.8437194824219 60.37939453125 C 389.1067199707031 61.08420944213867 387.69134521484375 59.229679107666016 387.9858093261719 53.97331619262695" stroke-width="0.0" fill="rgb(255, 255, 255)" opacity="0.77928025"/>
    <path d="M 263.6138916015625 23.24060821533203 C 265.2051696777344 23.544021606445312 264.9416809082031 23.724863052368164 263.4034118652344 23.200260162353516 C 262.6248779296875 22.54312515258789 263.7287292480469 23.51085090637207 261.1452331542969 22.25586700439453 C 261.92919921875 24.155227661132812 261.5547790527344 22.0418701171875 260.2002258300781 21.77661895751953 C 261.1484069824219 22.30771255493164 261.5817565917969 22.471158981323242 263.6138916015625 23.24060821533203" stroke-width="0.0" fill="rgb(255, 255, 255)" opacity="0.830444"/>
    <path d="M 329.017333984375 13.73331356048584 C 327.7416076660156 13.810551643371582 326.8125915527344 16.495031356811523 325.9985046386719 17.552356719970703 C 325.15234375 18.08497428894043 327.5506286621094 20.71463394165039 328.83502197265625 19.878381729125977 C 330.1410217285156 20.745651245117188 328.6126708984375 20.142677307128906 329.22509765625 19.30923843383789 C 328.73431396484375 21.50554656982422 329.1089782714844 19.135221481323242 329.017333984375 13.73331356048584" stroke-width="0.0" fill="rgb(255, 255, 255)" opacity="0.70801044"/>
    <path d="M 203.57785034179688 267.7915344238281 C 203.4172821044922 268.4166564941406 203.12741088867188 267.92730712890625 202.8776397705078 267.15496826171875 C 204.1924285888672 266.1349182128906 206.58624267578125 268.0868835449219 205.92868041992188 270.4072265625 C 206.89520263671875 270.3916320800781 206.92633056640625 269.518310546875 205.47750854492188 270.8914489746094 C 205.68714904785156 273.9364013671875 206.90802001953125 273.7891540527344 203.57785034179688 267.7915344238281" stroke-width="0.0" fill="rgb(255, 255, 255)" opacity="0.68107873"/>
    <path d="M 468.3741455078125 567.4607543945312 C 469.17022705078125 566.4686279296875 469.1154479980469 566.3356323242188 468.4461975097656 567.0586547851562 C 469.73907470703125 565.7628173828125 470.8360900878906 564.1560668945312 470.75811767578125 564.3848876953125 C 472.5602111816406 562.2787475585938 472.4217224121094 562.3718872070312 471.74176025390625 560.4486083984375 C 472.7916564941406 559.2946166992188 475.4161376953125 559.2464599609375 468.3741455078125 567.4607543945312" stroke-width="0.0" fill="rgb(255, 255, 255)" opacity="0.7310054"/>
    <path d="M 537.6046752929688 597.8558349609375 C 537.63818359375 595.686767578125 538.7925415039062 595.4258422851562 539.1631469726562 596.8729248046875 C 537.4099731445312 594.8093872070312 539.6439208984375 596.5889282226562 540.0745239257812 598.4906005859375 C 538.4625244140625 599.7942504882812 537.8733520507812 599.2007446289062 537.4680786132812 596.6778564453125 C 536.6513061523438 598.9569702148438 534.6535034179688 598.7184448242188 537.6046752929688 597.8558349609375" stroke-width="0.0" fill="rgb(255, 255, 255)" opacity="0.729929"/>
    <path d="M 13.590282440185547 506.0105285644531 C 13.993074417114258 505.24407958984375 13.73618221282959 507.37335205078125 15.243661880493164 507.1103210449219 C 16.599903106689453 506.1595153808594 14.92016315460205 507.36114501953125 16.73780632019043 506.8890075683594 C 17.093172073364258 505.3653869628906 18.891887664794922 504.00421142578125 17.703702926635742 501.6505432128906 C 19.38787841796875 500.63232421875 19.312910079956055 499.9612731933594 13.590282440185547 506.0105285644531" stroke-width="0.0" fill="rgb(255, 255, 255)" opacity="0.67970586"/>
    <path d="M 27.82653045654297 412.0731506347656 C 28.419044494628906 412.3753356933594 26.976757049560547 411.40936279296875 24.853282928466797 410.5991516113281 C 24.81546401977539 411.27996826171875 24.475772857666016 410.1690673828125 26.213916778564453 411.348876953125 C 25.020721435546875 409.1929626464844 27.349891662597656 407.6341247558594 28.239587783813477 410.12176513671875 C 25.910017013549805 409.69866943359375 24.169586181640625 410.2474060058594 27.82653045654297 412.0731506347656" stroke-width="0.0" fill="rgb(255, 255, 255)" opacity="0.7688226"/>
    <path d="M 234.8805694580078 12.592599868774414 C 234.37237548828125 12.904848098754883 236.06324768066406 11.34998607635498 236.76309204101562 10.713550567626953 C 237.26065063476562 10.501215934753418 239.10000610351562 8.332221031188965 239.15965270996094 7.974630832672119 C 239.3593292236328 7.188722133636475 237.7818603515625 6.083144664764404 239.26507568359375 7.214442729949951 C 239.1327362060547 8.689722061157227 240.00845336914062 7.713434219360352 234.8805694580078 12.592599868774414" stroke-width="0.0" fill="rgb(255, 255, 255)" opacity="0.75546885"/>
    <path d="M 514.9346313476562 468.1069030761719 C 516.852294921875 502.74493408203125 518.2508544921875 493.6744689941406 525.65478515625 525.9993286132812 C 527.9276733398438 540.5623168945312 535.723876953125 536.6118774414062 532.6640625 526.71728515625 C 533.0634765625 495.2480163574219 534.53271484375 491.70068359375 529.129150390625 484.9340515136719 C 524.1224975585938 490.5652160644531 520.3117065429688 483.45855712890625 514.9346313476562 468.1069030761719" stroke-width="0.0" fill="rgb(0, 0, 0)" opacity="1.0"/>
    <path d="M 50.89845657348633 286.6864318847656 C 54.832889556884766 303.9346923828125 63.36454391479492 290.45660400390625 76.64881896972656 288.5992126464844 C 102.87564849853516 305.6712341308594 96.20746612548828 296.7950439453125 94.58130645751953 262.8759460449219 C 99.47142791748047 253.21902465820312 93.2121353149414 256.5713195800781 83.26795196533203 258.3731689453125 C 86.68234252929688 263.0207214355469 88.17430877685547 258.9382629394531 50.89845657348633 286.6864318847656" stroke-width="0.0" fill="rgb(0, 0, 0)" opacity="0.72924536"/>
    <path d="M 55.30148696899414 113.64189910888672 C 73.37781524658203 127.2414321899414 75.02980041503906 121.97276306152344 104.2165756225586 119.16158294677734 C 95.47431945800781 92.0089111328125 87.90898132324219 96.74679565429688 82.83877563476562 101.0738754272461 C 79.17718505859375 103.58212280273438 84.7231674194336 100.39402770996094 78.72980499267578 107.16207885742188 C 42.17188262939453 98.65147399902344 40.38957214355469 85.33097076416016 55.30148696899414 113.64189910888672" stroke-width="0.0" fill="rgb(0, 0, 0)" opacity="0.9575019"/>
    <path d="M 213.5094757080078 521.8773193359375 C 214.56118774414062 471.4002380371094 215.3426971435547 454.56512451171875 211.0950164794922 448.26727294921875 C 188.0302276611328 487.37176513671875 189.89906311035156 486.0576171875 212.4171142578125 444.8673400878906 C 148.0681610107422 441.4012451171875 148.1250762939453 446.1254577636719 141.71734619140625 445.3384094238281 C 157.77685546875 483.1542053222656 168.6858673095703 516.706298828125 213.5094757080078 521.8773193359375" stroke-width="0.0" fill="rgb(10, 10, 10)" opacity="0.97655404"/>
    <path d="M 239.23487854003906 253.4237823486328 C 241.5913848876953 207.667236328125 233.3422393798828 232.17111206054688 219.32699584960938 228.01516723632812 C 213.05596923828125 230.0591278076172 212.3127899169922 230.79437255859375 211.00013732910156 227.91644287109375 C 213.2316436767578 231.39451599121094 209.18260192871094 230.2792510986328 185.4616241455078 233.28359985351562 C 183.76185607910156 261.00665283203125 189.83285522460938 264.20343017578125 239.23487854003906 253.4237823486328" stroke-width="0.0" fill="rgb(67, 66, 68)" opacity="1.0"/>
    <path d="M 427.2635803222656 509.9553527832031 C 426.06976318359375 514.5482177734375 423.6333312988281 513.1795043945312 421.8319396972656 511.84356689453125 C 421.5789489746094 511.5799865722656 423.1766662597656 513.1752319335938 423.18719482421875 511.69189453125 C 420.88909912109375 509.2966613769531 421.95343017578125 510.2685852050781 419.9908447265625 510.3243103027344 C 419.18218994140625 510.7772521972656 419.5943908691406 509.9049987792969 427.2635803222656 509.9553527832031" stroke-width="0.0" fill="rgb(255, 255, 255)" opacity="0.67991495"/>
    <path d="M 444.4045104980469 478.015625 C 443.32391357421875 480.8583679199219 444.690185546875 480.198974609375 445.2286376953125 482.2172546386719 C 443.6182861328125 483.45343017578125 444.5926818847656 483.8513488769531 444.1187438964844 482.6449279785156 C 441.9080810546875 483.4906005859375 438.8045349121094 482.80084228515625 437.27593994140625 483.0671691894531 C 438.38433837890625 483.5351257324219 435.6943054199219 482.84393310546875 444.4045104980469 478.015625" stroke-width="0.0" fill="rgb(255, 255, 255)" opacity="0.646395"/>
    <path d="M 462.6648254394531 445.9105224609375 C 461.4910583496094 443.4173278808594 461.5895080566406 441.6258239746094 462.37158203125 443.52471923828125 C 461.64337158203125 442.28228759765625 460.7861328125 442.4320983886719 460.5253601074219 440.29107666015625 C 460.3196105957031 439.6335144042969 462.3913879394531 437.561767578125 459.854736328125 436.6772766113281 C 457.353759765625 438.6385498046875 459.5052795410156 436.5779113769531 462.6648254394531 445.9105224609375" stroke-width="0.0" fill="rgb(255, 255, 255)" opacity="0.67317384"/>
    <path d="M 115.39281463623047 586.518798828125 C 117.00483703613281 585.4560546875 117.84154510498047 585.9175415039062 118.47807312011719 586.5529174804688 C 117.5830078125 586.281494140625 118.40007019042969 586.5977172851562 117.76653289794922 588.2258911132812 C 121.46074676513672 587.2901000976562 119.90913391113281 588.9232788085938 118.13115692138672 589.9563598632812 C 120.08316040039062 587.8160400390625 118.76063537597656 588.646484375 115.39281463623047 586.518798828125" stroke-width="0.0" fill="rgb(255, 255, 255)" opacity="0.71091783"/>
    <path d="M 70.99674987792969 90.11100769042969 C 114.75946807861328 93.63247680664062 112.93657684326172 85.21135711669922 106.27104949951172 71.16941833496094 C 91.93144989013672 74.43169403076172 95.64608764648438 72.42356872558594 85.1568832397461 73.24781036376953 C 95.75848388671875 71.04576110839844 101.65628814697266 69.11676788330078 95.4730224609375 72.5140151977539 C 101.39049530029297 76.46235656738281 87.91393280029297 63.84088134765625 70.99674987792969 90.11100769042969" stroke-width="0.0" fill="rgb(0, 0, 0)" opacity="0.8328135"/>
    <path d="M 446.94329833984375 400.84356689453125 C 446.1520080566406 399.9747009277344 448.544921875 401.7395935058594 449.4992980957031 400.8463134765625 C 450.23370361328125 400.58648681640625 449.2964172363281 401.4295959472656 447.3694152832031 400.78955078125 C 446.5424499511719 399.5216064453125 447.9243469238281 397.67938232421875 447.3116149902344 399.5963134765625 C 448.894287109375 398.2085876464844 450.01080322265625 395.8190002441406 446.94329833984375 400.84356689453125" stroke-width="0.0" fill="rgb(255, 255, 255)" opacity="0.779078"/>
    <path d="M 164.86805725097656 523.0309448242188 C 166.6680908203125 522.8050537109375 166.83094787597656 521.3435668945312 165.70143127441406 523.1284790039062 C 162.02923583984375 523.155517578125 163.2799072265625 522.1590576171875 163.0038604736328 524.83349609375 C 163.22276306152344 526.7913208007812 163.06991577148438 527.533447265625 163.0637664794922 526.68505859375 C 161.1177215576172 527.4306640625 159.32215881347656 527.4442749023438 164.86805725097656 523.0309448242188" stroke-width="0.0" fill="rgb(255, 255, 255)" opacity="0.6996675"/>
    <path d="M 514.0150756835938 520.0908813476562 C 514.5881958007812 520.2468872070312 515.214599609375 521.3349609375 515.9332275390625 521.4734497070312 C 517.376708984375 523.7614135742188 518.6289672851562 522.9396362304688 518.23876953125 524.1016235351562 C 517.4671020507812 525.7407836914062 518.249755859375 527.1749267578125 520.6776123046875 529.081787109375 C 521.43310546875 527.4909057617188 522.4193725585938 526.830322265625 514.0150756835938 520.0908813476562" stroke-width="0.0" fill="rgb(255, 255, 255)" opacity="0.66328627"/>
    <path d="M 91.900390625 24.148340225219727 C 60.83376693725586 65.93464660644531 56.10061264038086 78.09004211425781 60.55453872680664 92.1623306274414 C 100.94857025146484 86.01942443847656 91.2991714477539 79.616455078125 82.15526580810547 69.92406463623047 C 81.764404296875 69.85739135742188 76.24312591552734 58.592613220214844 99.73052978515625 54.23554992675781 C 110.35232543945312 56.13105773925781 117.84478759765625 32.177146911621094 91.900390625 24.148340225219727" stroke-width="0.0" fill="rgb(8, 7, 7)" opacity="0.97489476"/>
    <path d="M 509.9874267578125 50.790157318115234 C 512.328125 52.747406005859375 510.398193359375 50.86067199707031 510.39239501953125 51.57810592651367 C 511.8471374511719 49.30524444580078 510.8995361328125 48.04308319091797 508.77166748046875 47.46377182006836 C 506.28253173828125 46.86553955078125 506.8573913574219 44.48464584350586 510.0581359863281 47.8230094909668 C 509.5515441894531 48.697166442871094 510.12615966796875 46.33787155151367 509.9874267578125 50.790157318115234" stroke-width="0.0" fill="rgb(255, 255, 255)" opacity="0.76213485"/>
    <path d="M 562.15283203125 95.24391174316406 C 561.1154174804688 95.24330139160156 560.4276733398438 93.62272644042969 558.485595703125 91.9052505493164 C 560.8955688476562 92.41857147216797 562.7791748046875 90.93299102783203 564.902587890625 90.82563781738281 C 565.5972290039062 87.11466217041016 563.4010620117188 89.84750366210938 562.0006713867188 91.86158752441406 C 560.3604125976562 89.42500305175781 561.2611083984375 87.62586975097656 562.15283203125 95.24391174316406" stroke-width="0.0" fill="rgb(255, 255, 255)" opacity="0.658112"/>
    <path d="M 230.69790649414062 210.7538299560547 C 232.8966522216797 211.87954711914062 231.15065002441406 213.45472717285156 233.1263885498047 212.71531677246094 C 234.869384765625 212.98448181152344 233.85072326660156 212.8647918701172 232.7660369873047 213.01187133789062 C 233.53712463378906 214.2601318359375 232.5359344482422 214.08370971679688 234.55946350097656 213.99441528320312 C 236.03512573242188 212.11082458496094 235.45404052734375 214.71295166015625 230.69790649414062 210.7538299560547" stroke-width="0.0" fill="rgb(255, 255, 255)" opacity="0.75521576"/>
    <path d="M 203.25387573242188 174.1904754638672 C 205.6392059326172 187.85543823242188 203.71678161621094 171.4561004638672 221.83253479003906 182.46058654785156 C 232.85643005371094 190.32904052734375 227.40171813964844 186.05831909179688 222.59335327148438 181.40414428710938 C 238.21173095703125 189.65847778320312 244.15933227539062 208.83370971679688 249.88414001464844 160.60670471191406 C 204.57601928710938 151.00221252441406 191.4141082763672 155.6644744873047 203.25387573242188 174.1904754638672" stroke-width="0.0" fill="rgb(9, 9, 9)" opacity="0.9738697"/>
    <path d="M 26.311344146728516 366.61724853515625 C 27.09579086303711 368.1666564941406 28.719778060913086 368.26263427734375 30.857097625732422 367.799072265625 C 29.846923828125 368.0443420410156 29.149133682250977 367.4487609863281 29.92270851135254 368.46661376953125 C 30.521177291870117 369.6241149902344 28.806119918823242 368.7715759277344 28.17754364013672 366.6949768066406 C 28.490070343017578 367.87152099609375 28.409107208251953 369.1344909667969 26.311344146728516 366.61724853515625" stroke-width="0.0" fill="rgb(255, 255, 255)" opacity="0.77083135"/>
    <path d="M 268.6360778808594 96.27577209472656 C 268.0481872558594 94.71997833251953 266.87335205078125 93.29737091064453 265.349609375 92.47773742675781 C 266.2265625 93.04399871826172 267.1771545410156 93.2769546508789 267.7294921875 94.50899505615234 C 267.6442565917969 89.29485321044922 268.75274658203125 88.93011474609375 275.20904541015625 100.63407897949219 C 265.0833740234375 101.64059448242188 267.36334228515625 97.41732025146484 268.6360778808594 96.27577209472656" stroke-width="0.0" fill="rgb(123, 122, 122)" opacity="1.0"/>
    <path d="M 293.4905700683594 370.7135009765625 C 319.67999267578125 356.058349609375 320.41424560546875 350.50341796875 311.55499267578125 362.9989013671875 C 307.8689270019531 366.96527099609375 306.3882141113281 370.9374084472656 306.33062744140625 368.21221923828125 C 305.31207275390625 367.8958740234375 307.050537109375 377.0740661621094 288.42626953125 398.0500793457031 C 268.8536376953125 400.9800109863281 264.83306884765625 374.1878662109375 293.4905700683594 370.7135009765625" stroke-width="0.0" fill="rgb(22, 22, 22)" opacity="0.96759456"/>
    <path d="M 458.6293640136719 390.1708679199219 C 459.7536926269531 387.4002990722656 459.02197265625 388.6056213378906 457.2451171875 387.3353271484375 C 457.6996154785156 387.7279357910156 457.9105224609375 388.02880859375 458.62823486328125 387.0744323730469 C 457.21649169921875 389.1899108886719 458.8480529785156 387.2243957519531 456.6220703125 388.33251953125 C 456.49517822265625 388.0833435058594 455.7100830078125 387.2710876464844 458.6293640136719 390.1708679199219" stroke-width="0.0" fill="rgb(255, 255, 255)" opacity="0.75398326"/>
    <path d="M 404.9208068847656 553.1008911132812 C 404.67431640625 552.367431640625 403.1895751953125 554.0587158203125 403.1893005371094 554.8988037109375 C 403.3804016113281 553.8580932617188 401.3197021484375 552.7373657226562 404.6061706542969 551.0811767578125 C 405.230224609375 551.2593994140625 407.3267822265625 550.7839965820312 405.3728332519531 549.8724365234375 C 403.8959655761719 550.4119873046875 405.3357238769531 548.156982421875 404.9208068847656 553.1008911132812" stroke-width="0.0" fill="rgb(255, 255, 255)" opacity="0.71497244"/>
    <path d="M 150.90724182128906 592.2130126953125 C 153.09402465820312 594.3218383789062 153.05580139160156 592.233642578125 151.53480529785156 593.0323486328125 C 150.75572204589844 591.6095581054688 149.54441833496094 589.8333740234375 150.5984344482422 591.1690063476562 C 147.9713897705078 589.1453247070312 145.42076110839844 587.8853149414062 147.58724975585938 588.9618530273438 C 146.29185485839844 588.47412109375 145.1328582763672 586.5411987304688 150.90724182128906 592.2130126953125" stroke-width="0.0" fill="rgb(255, 255, 255)" opacity="0.7332283"/>
    <path d="M 584.7217407226562 34.59623718261719 C 582.9072265625 33.7977294921875 581.13671875 31.928823471069336 580.8895874023438 30.82408332824707 C 580.6867065429688 30.517353057861328 582.0051879882812 32.45056915283203 579.6110229492188 32.13752746582031 C 579.3457641601562 31.47196388244629 579.8981323242188 32.762489318847656 581.4345703125 33.921688079833984 C 579.5757446289062 32.67002868652344 580.923828125 32.03544616699219 584.7217407226562 34.59623718261719" stroke-width="0.0" fill="rgb(255, 255, 255)" opacity="0.7478584"/>
    <path d="M 344.14581298828125 93.17488861083984 C 304.7072448730469 64.60050201416016 297.9695129394531 65.09032440185547 302.03582763671875 96.9981689453125 C 343.30810546875 91.52631378173828 348.6714172363281 88.43596649169922 371.5160827636719 109.99010467529297 C 341.2586975097656 108.95449829101562 334.5964050292969 113.64483642578125 333.56964111328125 110.34697723388672 C 311.2519226074219 91.92015838623047 307.3116149902344 93.76122283935547 344.14581298828125 93.17488861083984" stroke-width="0.0" fill="rgb(6, 6, 6)" opacity="0.9998508"/>
    <path d="M 225.30116271972656 591.1310424804688 C 224.50132751464844 592.8636474609375 224.32760620117188 592.2992553710938 224.16249084472656 592.601318359375 C 225.04249572753906 593.2904052734375 225.6194305419922 593.8966674804688 225.6913604736328 594.0593872070312 C 224.56089782714844 592.3685913085938 224.31468200683594 592.3819580078125 222.9067840576172 593.7152709960938 C 225.29139709472656 591.79150390625 224.94781494140625 591.7880859375 225.30116271972656 591.1310424804688" stroke-width="0.0" fill="rgb(255, 255, 255)" opacity="0.837442"/>
    <path d="M 333.09405517578125 110.81746673583984 C 328.3009338378906 110.72996520996094 329.0452575683594 111.31023406982422 327.9156494140625 110.78375244140625 C 329.2823791503906 111.48858642578125 328.6520690917969 112.12462615966797 327.9414978027344 109.46620178222656 C 323.29241943359375 105.24535369873047 321.51373291015625 99.72171783447266 326.1052551269531 103.2942886352539 C 337.3601989746094 110.64234161376953 340.159423828125 112.24786376953125 333.09405517578125 110.81746673583984" stroke-width="0.0" fill="rgb(255, 255, 255)" opacity="0.8073827"/>
    <path d="M 472.4314880371094 62.55865478515625 C 472.522216796875 61.107479095458984 471.55755615234375 62.89641189575195 471.52777099609375 63.63136291503906 C 471.0263366699219 63.23051834106445 472.4371337890625 62.52251434326172 472.30853271484375 60.95663070678711 C 472.265380859375 63.33075714111328 473.168701171875 66.04904174804688 473.3265686035156 66.78059387207031 C 473.6531066894531 68.0591049194336 472.73626708984375 65.77511596679688 472.4314880371094 62.55865478515625" stroke-width="0.0" fill="rgb(255, 255, 255)" opacity="0.77964145"/>
    <path d="M 350.6455383300781 453.6989440917969 C 351.8646545410156 408.1092834472656 349.50579833984375 405.9490051269531 346.49896240234375 413.2605285644531 C 337.2230529785156 435.98272705078125 338.3221740722656 434.3216552734375 346.7663879394531 411.4912414550781 C 306.3463439941406 411.7439880371094 315.9954528808594 417.3796081542969 327.7967834472656 448.7228088378906 C 321.0173034667969 455.2418518066406 334.9695129394531 458.9903869628906 350.6455383300781 453.6989440917969" stroke-width="0.0" fill="rgb(26, 26, 26)" opacity="0.9354676"/>
    <path d="M 100.96692657470703 90.42608642578125 C 124.02759552001953 88.94184112548828 117.03888702392578 87.42550659179688 85.52544403076172 91.6129150390625 C 89.40165710449219 66.54058074951172 97.10652160644531 70.70575714111328 139.08059692382812 68.32006072998047 C 138.5811004638672 82.5107421875 131.8607177734375 88.50898742675781 121.25843048095703 88.60712432861328 C 105.32259368896484 90.40849304199219 98.13294982910156 90.12886047363281 100.96692657470703 90.42608642578125" stroke-width="0.0" fill="rgb(0, 0, 0)" opacity="0.9595327"/>
    <path d="M 233.74398803710938 253.6272735595703 C 239.72900390625 249.50430297851562 240.01583862304688 247.8772735595703 239.8199920654297 244.1265106201172 C 237.77557373046875 244.35401916503906 236.4998779296875 243.21365356445312 234.02577209472656 243.2566375732422 C 234.72731018066406 246.0084228515625 236.07200622558594 246.55081176757812 235.33226013183594 245.35470581054688 C 233.03900146484375 243.7578887939453 228.736328125 246.0220489501953 233.74398803710938 253.6272735595703" stroke-width="0.0" fill="rgb(255, 255, 255)" opacity="0.91523737"/>
    <path d="M 129.31524658203125 75.6786880493164 C 136.6689453125 87.86309814453125 136.06605529785156 86.8834228515625 146.216796875 86.44961547851562 C 152.86801147460938 78.74737548828125 154.42481994628906 74.34440612792969 152.35379028320312 78.82258605957031 C 150.03561401367188 80.81983184814453 151.302490234375 82.83056640625 150.9012451171875 68.14817810058594 C 133.42474365234375 69.22148895263672 128.40463256835938 69.40235137939453 129.31524658203125 75.6786880493164" stroke-width="0.0" fill="rgb(1, 1, 1)" opacity="0.9934405"/>
    <path d="M 459.4079284667969 400.74615478515625 C 461.3924560546875 401.6260986328125 463.8442687988281 400.489013671875 464.8075256347656 399.73883056640625 C 463.6260070800781 399.51611328125 465.44598388671875 399.34063720703125 464.8772888183594 401.4473876953125 C 464.6697082519531 400.388427734375 462.8775634765625 400.71337890625 462.84832763671875 402.5166931152344 C 462.4472351074219 404.3507995605469 462.04522705078125 401.16900634765625 459.4079284667969 400.74615478515625" stroke-width="0.0" fill="rgb(255, 255, 255)" opacity="0.68077135"/>
    <path d="M 39.06718826293945 511.72418212890625 C 38.85765838623047 514.2320556640625 39.84661865234375 512.559326171875 40.7098274230957 511.88641357421875 C 41.744346618652344 510.8518981933594 40.49858093261719 511.0775146484375 41.358001708984375 509.133544921875 C 39.7869987487793 511.07861328125 38.18701934814453 511.3521423339844 39.315185546875 511.97650146484375 C 37.8731803894043 510.5669860839844 37.27255630493164 509.7735900878906 39.06718826293945 511.72418212890625" stroke-width="0.0" fill="rgb(255, 255, 255)" opacity="0.7501564"/>
    <path d="M 57.35562515258789 463.3646240234375 C 59.304786682128906 463.6639099121094 58.497920989990234 464.0690612792969 59.0571174621582 465.9057312011719 C 58.50236892700195 467.8406982421875 59.519020080566406 469.0487365722656 60.348663330078125 466.6221618652344 C 60.37438201904297 466.4674072265625 57.83760070800781 465.5012512207031 59.154197692871094 463.68572998046875 C 59.90705108642578 465.13671875 60.34204864501953 464.2623291015625 57.35562515258789 463.3646240234375" stroke-width="0.0" fill="rgb(255, 255, 255)" opacity="0.7615394"/>
    <path d="M 2.611201286315918 219.55764770507812 C 2.9632773399353027 219.3229522705078 3.8406293392181396 221.6904754638672 5.484171390533447 219.56321716308594 C 3.867717981338501 220.7462921142578 3.8223273754119873 222.1482391357422 3.5017218589782715 220.96249389648438 C 5.242922306060791 223.52194213867188 4.967258930206299 221.11685180664062 5.120504856109619 221.02052307128906 C 7.672979354858398 221.8757781982422 5.199028968811035 221.42031860351562 2.611201286315918 219.55764770507812" stroke-width="0.0" fill="rgb(255, 255, 255)" opacity="0.80746865"/>
    <path d="M 195.29461669921875 586.9269409179688 C 191.18304443359375 587.396484375 189.20606994628906 586.3645629882812 190.1374969482422 587.9693603515625 C 189.2595977783203 589.881591796875 191.0391845703125 591.5087280273438 189.33456420898438 591.5050659179688 C 188.5440673828125 592.6728515625 188.34976196289062 592.9943237304688 189.48617553710938 591.7469482421875 C 191.47564697265625 590.1588745117188 190.7978057861328 592.4382934570312 195.29461669921875 586.9269409179688" stroke-width="0.0" fill="rgb(255, 255, 255)" opacity="0.6812237"/>
    <path d="M 148.15603637695312 84.90859985351562 C 147.11997985839844 83.3560791015625 149.6947479248047 87.5086441040039 136.51939392089844 83.90666198730469 C 137.7694091796875 79.27765655517578 149.7717742919922 73.42694854736328 120.92107391357422 68.69633483886719 C 119.45808410644531 83.00704956054688 128.8582305908203 89.33316802978516 138.79751586914062 85.3866958618164 C 124.18192291259766 84.17481231689453 126.12297821044922 85.70496368408203 148.15603637695312 84.90859985351562" stroke-width="0.0" fill="rgb(0, 0, 0)" opacity="0.88117665"/>
    <path d="M 194.17514038085938 134.9861297607422 C 191.41754150390625 156.41368103027344 185.0541534423828 144.1673126220703 167.0027618408203 149.03851318359375 C 145.40887451171875 150.05307006835938 152.11260986328125 155.2819061279297 150.97503662109375 138.8135986328125 C 151.57855224609375 133.4608154296875 152.3960418701172 136.9404296875 149.2178497314453 136.0642547607422 C 152.58139038085938 137.3717041015625 157.3667755126953 134.32168579101562 194.17514038085938 134.9861297607422" stroke-width="0.0" fill="rgb(2, 2, 2)" opacity="0.982347"/>
    <path d="M 150.355224609375 361.4529724121094 C 176.68771362304688 343.44744873046875 189.69921875 353.80743408203125 194.2510223388672 317.3713684082031 C 156.79185485839844 324.3094177246094 159.49099731445312 335.22308349609375 137.99960327148438 344.12255859375 C 129.6122283935547 353.6830139160156 152.9018096923828 347.55615234375 165.9303436279297 355.9451599121094 C 181.17691040039062 377.3332824707031 152.71307373046875 378.186279296875 150.355224609375 361.4529724121094" stroke-width="0.0" fill="rgb(0, 0, 0)" opacity="0.9999842"/>
    <path d="M 483.9928894042969 87.10230255126953 C 485.7758483886719 85.93404388427734 487.1143798828125 83.89977264404297 474.1158752441406 86.18216705322266 C 473.2652282714844 87.45974731445312 482.17803955078125 88.49003601074219 484.77459716796875 87.27873229980469 C 484.8658142089844 85.2734603881836 488.3960876464844 84.78347778320312 485.11724853515625 83.89060974121094 C 482.47314453125 82.33492279052734 484.8172607421875 86.036376953125 483.9928894042969 87.10230255126953" stroke-width="0.0" fill="rgb(140, 139, 138)" opacity="1.0"/>
    <path d="M 185.39064025878906 102.66626739501953 C 145.1493682861328 99.5030288696289 152.9021453857422 115.69664001464844 151.26475524902344 120.67218017578125 C 155.74378967285156 118.23434448242188 163.8155059814453 119.06322479248047 180.43458557128906 116.92011260986328 C 173.40310668945312 121.07390594482422 170.3514404296875 120.62394714355469 185.70965576171875 115.55464935302734 C 192.751708984375 121.45720672607422 203.66116333007812 97.6115951538086 185.39064025878906 102.66626739501953" stroke-width="0.0" fill="rgb(4, 4, 4)" opacity="0.99153125"/>
    <path d="M 131.05735778808594 92.73674011230469 C 131.15895080566406 94.5804672241211 130.48570251464844 95.9091796875 131.53732299804688 96.29158020019531 C 129.3768768310547 98.01919555664062 128.9158477783203 98.67700958251953 127.73104858398438 98.1839828491211 C 128.72808837890625 99.27852630615234 129.55783081054688 99.81600189208984 127.71226501464844 97.94349670410156 C 126.26529693603516 98.35984802246094 126.13092041015625 96.6650161743164 131.05735778808594 92.73674011230469" stroke-width="0.0" fill="rgb(255, 255, 255)" opacity="0.68180597"/>
    <path d="M 107.53157806396484 451.8338928222656 C 108.32455444335938 451.9314880371094 108.3250732421875 448.9894714355469 110.1380386352539 448.29620361328125 C 110.02157592773438 451.56640625 109.06401062011719 451.7062683105469 109.96746063232422 450.7123718261719 C 110.39060974121094 447.78387451171875 109.6748046875 448.96337890625 110.6700668334961 447.8045654296875 C 108.96099853515625 449.30804443359375 108.6429443359375 449.7044982910156 107.53157806396484 451.8338928222656" stroke-width="0.0" fill="rgb(255, 255, 255)" opacity="0.7714839"/>
    <path d="M 149.66189575195312 535.16748046875 C 147.5235595703125 537.1641845703125 146.65414428710938 537.4841918945312 148.1715087890625 536.3636474609375 C 147.75418090820312 534.781982421875 147.6768341064453 535.0104370117188 148.66331481933594 535.0018310546875 C 150.40304565429688 535.6324462890625 152.363037109375 537.739990234375 155.74888610839844 537.0429077148438 C 156.3798828125 535.5892333984375 157.548583984375 534.4296875 149.66189575195312 535.16748046875" stroke-width="0.0" fill="rgb(255, 255, 255)" opacity="0.68087125"/>
    <path d="M 57.64033508300781 35.079166412353516 C 69.03966522216797 29.18150520324707 70.5378189086914 40.545753479003906 64.29723358154297 46.59931182861328 C 60.59929275512695 47.85407257080078 66.88847351074219 49.97927474975586 79.7876205444336 63.97356414794922 C 73.80601501464844 72.50585174560547 68.59748840332031 74.59833526611328 48.15974807739258 75.66017150878906 C 46.193603515625 47.70965576171875 51.98934555053711 41.61309051513672 57.64033508300781 35.079166412353516" stroke-width="0.0" fill="rgb(5, 5, 5)" opacity="0.96445733"/>
    <path d="M 245.67808532714844 95.62033081054688 C 266.5566101074219 103.89329528808594 252.0540313720703 98.24259948730469 302.23260498046875 90.39551544189453 C 301.673828125 147.7384796142578 297.0058288574219 154.16464233398438 264.1144104003906 132.8922882080078 C 239.403076171875 126.88126373291016 239.4086456298828 118.6358413696289 254.1019287109375 134.33055114746094 C 252.4606170654297 119.15380096435547 240.61373901367188 107.67233276367188 245.67808532714844 95.62033081054688" stroke-width="0.0" fill="rgb(5, 5, 5)" opacity="0.8437041"/>
    <path d="M 264.09844970703125 119.5313720703125 C 258.4840393066406 139.77194213867188 257.9107666015625 130.02365112304688 241.25177001953125 139.32191467285156 C 230.80026245117188 144.87721252441406 233.26651000976562 161.20411682128906 214.53225708007812 159.9469451904297 C 227.0635223388672 153.45639038085938 219.3118438720703 160.20187377929688 200.9972686767578 154.7932891845703 C 208.54396057128906 127.40403747558594 224.35552978515625 135.44970703125 264.09844970703125 119.5313720703125" stroke-width="0.0" fill="rgb(3, 3, 3)" opacity="0.9672524"/>
    <path d="M 412.6260986328125 524.9517822265625 C 414.5556335449219 529.0609741210938 414.9187927246094 530.5994262695312 411.9403076171875 532.160888671875 C 412.0275573730469 534.25634765625 411.52813720703125 535.4412231445312 413.1844177246094 534.896484375 C 415.71600341796875 535.315185546875 415.83984375 534.7490234375 413.0748596191406 532.5753784179688 C 413.4784851074219 530.6121215820312 411.105224609375 529.868408203125 412.6260986328125 524.9517822265625" stroke-width="0.0" fill="rgb(255, 255, 255)" opacity="0.6640557"/>
    <path d="M 140.2458953857422 587.44287109375 C 138.5839080810547 585.9883422851562 141.1296844482422 583.8223876953125 140.2474822998047 584.9821166992188 C 138.6681671142578 586.4093627929688 140.3219757080078 587.75537109375 141.87049865722656 589.0298461914062 C 142.5376434326172 586.6050415039062 143.0194091796875 587.731689453125 143.06048583984375 589.740966796875 C 141.561279296875 590.6345825195312 143.66732788085938 590.944580078125 140.2458953857422 587.44287109375" stroke-width="0.0" fill="rgb(255, 255, 255)" opacity="0.74537194"/>
    <path d="M 492.4423522949219 42.927799224853516 C 494.8310852050781 41.06796646118164 494.2391357421875 40.51734924316406 493.6120300292969 40.732418060302734 C 495.2845764160156 39.1239013671875 495.47235107421875 40.46825408935547 497.2181396484375 39.7475700378418 C 496.12872314453125 42.11738967895508 497.6625671386719 41.288124084472656 498.5782470703125 43.51803970336914 C 498.17791748046875 42.78477478027344 497.9179992675781 43.109554290771484 492.4423522949219 42.927799224853516" stroke-width="0.0" fill="rgb(255, 255, 255)" opacity="0.7242804"/>
    <path d="M 447.9683837890625 511.0340270996094 C 448.08502197265625 511.007568359375 450.20794677734375 512.338134765625 451.4486083984375 513.1317749023438 C 449.2049865722656 513.73193359375 450.154296875 515.6110229492188 450.243408203125 514.8104858398438 C 448.6851806640625 515.403076171875 448.163818359375 514.0150146484375 450.3376770019531 513.8538818359375 C 451.5647277832031 512.1882934570312 452.4930725097656 514.1500244140625 447.9683837890625 511.0340270996094" stroke-width="0.0" fill="rgb(255, 255, 255)" opacity="0.808969"/>
    <path d="M 306.04473876953125 305.864990234375 C 245.01617431640625 308.1676025390625 241.85250854492188 305.7208251953125 242.48374938964844 275.1955871582031 C 261.513916015625 256.54132080078125 280.750732421875 267.5053405761719 287.0466003417969 262.8545227050781 C 310.2586669921875 270.9325866699219 321.0560302734375 245.15603637695312 324.3553466796875 301.6512145996094 C 283.9599304199219 304.398193359375 287.9364929199219 294.168212890625 306.04473876953125 305.864990234375" stroke-width="0.0" fill="rgb(2, 2, 2)" opacity="0.9982162"/>
    <path d="M 230.52452087402344 479.6633605957031 C 230.36505126953125 477.2753601074219 231.1473846435547 479.6106872558594 231.98382568359375 479.3317565917969 C 230.937744140625 479.718505859375 230.13490295410156 477.3080749511719 230.50054931640625 474.7600402832031 C 229.72158813476562 473.195556640625 231.08319091796875 474.6451721191406 230.400146484375 474.107421875 C 230.33518981933594 473.8034362792969 230.4793701171875 474.96240234375 230.52452087402344 479.6633605957031" stroke-width="0.0" fill="rgb(255, 255, 255)" opacity="0.8033536"/>
    <path d="M 136.6624298095703 568.271728515625 C 137.52249145507812 567.6192016601562 137.3185577392578 565.1610717773438 136.1312713623047 564.5823364257812 C 134.68621826171875 563.2256469726562 134.061279296875 564.0185546875 132.3459014892578 565.2650756835938 C 132.68809509277344 564.5408935546875 131.34315490722656 565.438720703125 132.4598846435547 563.7120361328125 C 132.07037353515625 563.4097290039062 130.9691925048828 562.1537475585938 136.6624298095703 568.271728515625" stroke-width="0.0" fill="rgb(255, 255, 255)" opacity="0.6763928"/>
    <path d="M 233.99879455566406 340.19293212890625 C 219.8309326171875 377.4237976074219 201.45510864257812 367.1701354980469 206.24952697753906 349.876953125 C 226.49615478515625 340.0001525878906 214.6632080078125 348.6334228515625 203.5989532470703 349.4664306640625 C 214.36093139648438 368.3190002441406 202.16363525390625 378.52520751953125 158.63722229003906 391.845458984375 C 166.35516357421875 359.99139404296875 195.27378845214844 352.8986511230469 233.99879455566406 340.19293212890625" stroke-width="0.0" fill="rgb(1, 2, 2)" opacity="0.9975808"/>
  </g>
</svg>
