<?xml version="1.0" ?>
<svg xmlns="http://www.w3.org/2000/svg" version="1.1" width="600" height="600">
  <defs/>
  <g>
    <path d="M 1.9015264511108398 353.8835144042969 C -0.0867556557059288 354.4538269042969 -2.0422098636627197 353.3110046386719 -0.19985979795455933 350.9454040527344 C -1.3731449842453003 351.5711364746094 -1.7442225217819214 350.32177734375 0.6729752421379089 351.17236328125 C 1.1294604539871216 351.91278076171875 3.323197364807129 353.197021484375 2.4463584423065186 352.9556884765625 C 1.4653757810592651 351.2635498046875 2.390368938446045 353.20745849609375 1.9015264511108398 353.8835144042969" stroke-width="0.0" fill="rgb(255, 255, 255)" opacity="0.7874718"/>
    <path d="M 382.75201416015625 590.404296875 C 383.3696594238281 589.0818481445312 383.73492431640625 590.1156616210938 386.20263671875 588.6685180664062 C 384.82171630859375 589.3803100585938 384.65728759765625 589.1582641601562 382.58807373046875 590.059326171875 C 384.4481201171875 592.360107421875 386.1090393066406 593.3685302734375 387.2779235839844 594.4109497070312 C 385.7937316894531 593.638427734375 387.8700866699219 594.66357421875 382.75201416015625 590.404296875" stroke-width="0.0" fill="rgb(255, 255, 255)" opacity="0.7122546"/>
    <path d="M 19.847591400146484 3.012284278869629 C 20.554676055908203 0.6371639966964722 18.888015747070312 3.055307626724243 18.475887298583984 4.142209529876709 C 18.66893196105957 3.350015878677368 19.539522171020508 1.9882140159606934 20.594757080078125 3.2611372470855713 C 21.56092643737793 1.8916857242584229 21.215898513793945 0.2859506905078888 19.00796890258789 1.0679280757904053 C 18.941648483276367 0.9601588845252991 17.66241455078125 -1.3595706224441528 19.847591400146484 3.012284278869629" stroke-width="0.0" fill="rgb(255, 255, 255)" opacity="0.75701755"/>
    <path d="M -0.4409245252609253 368.8858642578125 C 0.38754040002822876 369.0581970214844 -1.1394810676574707 367.0614318847656 -2.5862815380096436 364.7341003417969 C -3.248795509338379 364.49609375 -1.8675545454025269 363.8060302734375 -0.8952409029006958 365.4088134765625 C 0.49651825428009033 362.9576721191406 -0.539249062538147 364.6908874511719 -1.998167872428894 362.36602783203125 C -0.22934769093990326 364.1094970703125 -1.1812751293182373 366.0325927734375 -0.4409245252609253 368.8858642578125" stroke-width="0.0" fill="rgb(255, 255, 255)" opacity="0.9947448"/>
    <path d="M 17.995168685913086 367.4482727050781 C 17.497011184692383 365.1561584472656 19.16078758239746 362.4533386230469 20.217010498046875 363.0082702636719 C 19.584531784057617 363.3437805175781 20.439294815063477 364.4149169921875 19.813003540039062 366.3057556152344 C 18.077844619750977 364.5789489746094 17.270750045776367 362.55157470703125 18.098159790039062 362.8099670410156 C 17.48125648498535 365.3663330078125 15.838062286376953 366.0876159667969 17.995168685913086 367.4482727050781" stroke-width="0.0" fill="rgb(255, 255, 255)" opacity="0.6852511"/>
    <path d="M 22.800039291381836 427.1734313964844 C 22.81143569946289 428.3465270996094 25.433727264404297 428.06512451171875 26.343669891357422 429.2247619628906 C 28.425870895385742 431.3167419433594 28.1016902923584 431.2620544433594 27.245159149169922 430.2199401855469 C 26.328872680664062 428.5256652832031 24.783124923706055 429.0465087890625 23.618614196777344 426.7747802734375 C 22.81193733215332 427.36224365234375 21.243040084838867 426.77032470703125 22.800039291381836 427.1734313964844" stroke-width="0.0" fill="rgb(255, 255, 255)" opacity="0.7399754"/>
    <path d="M 597.4671630859375 471.2052917480469 C 598.12548828125 468.4096374511719 600.0411376953125 466.8020935058594 598.5416259765625 468.0732116699219 C 597.7258911132812 467.65081787109375 597.3334350585938 468.58831787109375 595.5301513671875 467.6825866699219 C 597.9098510742188 466.2563781738281 596.6357421875 465.7649841308594 596.9828491210938 464.1871643066406 C 598.309814453125 463.4717712402344 600.9939575195312 463.82635498046875 597.4671630859375 471.2052917480469" stroke-width="0.0" fill="rgb(255, 255, 255)" opacity="0.69432116"/>
    <path d="M 341.0782165527344 570.3710327148438 C 342.2460021972656 569.1170654296875 343.2631530761719 569.1399536132812 342.6761474609375 569.5202026367188 C 341.4390869140625 569.3451538085938 341.1242980957031 570.3453979492188 340.21051025390625 571.856689453125 C 340.9171142578125 569.6969604492188 342.4178771972656 572.0111083984375 340.6636657714844 570.4830322265625 C 341.8794250488281 572.3438110351562 340.61553955078125 570.766357421875 341.0782165527344 570.3710327148438" stroke-width="0.0" fill="rgb(255, 255, 255)" opacity="0.8035108"/>
    <path d="M 284.93402099609375 576.8897705078125 C 287.2610168457031 577.1425170898438 285.28839111328125 577.8548583984375 285.7055358886719 579.5947875976562 C 285.5718078613281 580.2728271484375 286.65667724609375 582.5582275390625 287.1551208496094 584.4601440429688 C 287.01788330078125 586.2113647460938 288.8492126464844 585.1314697265625 287.8216857910156 587.43212890625 C 287.48590087890625 588.8145751953125 289.14019775390625 590.1868896484375 284.93402099609375 576.8897705078125" stroke-width="0.0" fill="rgb(255, 255, 255)" opacity="0.6626786"/>
    <path d="M 564.2762451171875 466.90386962890625 C 563.2570190429688 465.10260009765625 561.319091796875 463.7537536621094 562.1947631835938 466.4826354980469 C 561.3134765625 467.6075744628906 560.6246948242188 469.2314758300781 561.1659545898438 471.1860046386719 C 562.8065185546875 470.3605651855469 563.908447265625 471.6258239746094 563.39111328125 471.0364685058594 C 563.6055908203125 471.2623596191406 561.7872314453125 471.3309631347656 564.2762451171875 466.90386962890625" stroke-width="0.0" fill="rgb(255, 255, 255)" opacity="0.68894506"/>
    <path d="M 11.270739555358887 27.963512420654297 C 12.361679077148438 26.219614028930664 11.780777931213379 24.069726943969727 9.729032516479492 22.11573028564453 C 7.819774627685547 20.19609832763672 9.088830947875977 21.324810028076172 7.414487361907959 22.026411056518555 C 8.632184982299805 21.155681610107422 10.873895645141602 18.690954208374023 9.656515121459961 19.467504501342773 C 11.112052917480469 17.743398666381836 13.103511810302734 19.894289016723633 11.270739555358887 27.963512420654297" stroke-width="0.0" fill="rgb(255, 255, 255)" opacity="0.6326696"/>
    <path d="M 594.5782470703125 304.9834899902344 C 595.814453125 303.78143310546875 596.59521484375 302.7996826171875 595.632568359375 302.0344543457031 C 594.5384521484375 301.66314697265625 593.117431640625 303.1933898925781 592.7643432617188 300.8671875 C 591.2789306640625 302.2759704589844 590.3418579101562 303.18157958984375 592.2218017578125 301.48040771484375 C 592.5750732421875 300.2582702636719 590.2133178710938 301.41552734375 594.5782470703125 304.9834899902344" stroke-width="0.0" fill="rgb(255, 255, 255)" opacity="0.69513965"/>
    <path d="M 305.4165344238281 570.4506225585938 C 307.20245361328125 573.3448486328125 308.5884704589844 572.592041015625 307.8975830078125 574.8783569335938 C 308.9325866699219 575.8248901367188 306.77203369140625 576.359375 305.6223449707031 575.9683227539062 C 307.4316101074219 576.3634643554688 305.892822265625 576.7783203125 305.987548828125 573.9591064453125 C 304.9493103027344 571.2430419921875 304.1412353515625 574.1945190429688 305.4165344238281 570.4506225585938" stroke-width="0.0" fill="rgb(255, 255, 255)" opacity="0.68826324"/>
    <path d="M 11.031010627746582 372.9714050292969 C 11.002532005310059 373.1112976074219 9.24305248260498 373.1275634765625 7.250178337097168 372.82818603515625 C 6.807150363922119 373.85565185546875 5.7135820388793945 371.8033447265625 4.553546905517578 371.1491394042969 C 3.1376264095306396 369.95904541015625 2.0700106620788574 368.700439453125 3.519989490509033 366.7929992675781 C 2.8819756507873535 366.6913146972656 6.299045085906982 366.5180969238281 11.031010627746582 372.9714050292969" stroke-width="0.0" fill="rgb(255, 255, 255)" opacity="0.6382626"/>
    <path d="M 598.8114624023438 390.7532653808594 C 597.0857543945312 391.28228759765625 598.587158203125 393.06097412109375 598.200927734375 391.7151184082031 C 599.3630981445312 392.64312744140625 601.3153076171875 394.56134033203125 601.041015625 394.64990234375 C 599.9099731445312 392.6104736328125 601.2472534179688 390.4208984375 600.706298828125 388.37640380859375 C 600.1624755859375 387.0628662109375 600.2656860351562 387.44268798828125 598.8114624023438 390.7532653808594" stroke-width="0.0" fill="rgb(255, 255, 255)" opacity="0.785442"/>
    <path d="M 572.8429565429688 403.44305419921875 C 572.7836303710938 401.3786926269531 571.2865600585938 402.79443359375 570.777099609375 403.6719665527344 C 568.9237060546875 404.23175048828125 571.2669677734375 404.2832336425781 570.5199584960938 403.8453369140625 C 571.44482421875 402.0659484863281 573.557373046875 402.6095886230469 572.7590942382812 402.9618225097656 C 572.9740600585938 403.5428771972656 572.7813110351562 404.6707763671875 572.8429565429688 403.44305419921875" stroke-width="0.0" fill="rgb(255, 255, 255)" opacity="0.7962684"/>
    <path d="M 339.07904052734375 588.6057739257812 C 336.80340576171875 590.0183715820312 337.8193359375 590.50732421875 339.4119873046875 590.0811767578125 C 341.94781494140625 589.4713134765625 340.85455322265625 591.3201293945312 340.9517822265625 590.8162841796875 C 339.4772644042969 592.07958984375 337.9188537597656 589.0173950195312 337.2582092285156 590.2548828125 C 338.1869201660156 589.316650390625 339.3834228515625 588.3952026367188 339.07904052734375 588.6057739257812" stroke-width="0.0" fill="rgb(255, 255, 255)" opacity="0.75978684"/>
    <path d="M 588.3961791992188 447.81378173828125 C 586.7966918945312 448.7275085449219 589.12939453125 450.35430908203125 588.1631469726562 449.5645751953125 C 587.1800537109375 450.5323181152344 585.8931274414062 449.63336181640625 583.8018798828125 450.14642333984375 C 583.6654663085938 451.98016357421875 586.6265258789062 450.3987121582031 588.1827392578125 451.2529296875 C 586.5953979492188 453.81103515625 583.9834594726562 450.6825866699219 588.3961791992188 447.81378173828125" stroke-width="0.0" fill="rgb(255, 255, 255)" opacity="0.70866907"/>
    <path d="M 572.837646484375 386.4989318847656 C 573.9999389648438 386.50848388671875 572.7796630859375 386.19036865234375 570.9197998046875 387.6968688964844 C 573.7330322265625 388.7572326660156 573.1527709960938 388.4227294921875 573.6017456054688 388.4176330566406 C 572.8073120117188 388.2446594238281 570.1212158203125 387.4653625488281 569.5845336914062 387.66510009765625 C 569.100830078125 387.0009460449219 569.8674926757812 389.0682678222656 572.837646484375 386.4989318847656" stroke-width="0.0" fill="rgb(255, 255, 255)" opacity="0.7247001"/>
    <path d="M 377.03912353515625 570.99755859375 C 376.17864990234375 573.0359497070312 375.3248596191406 575.341064453125 375.2510986328125 576.8646850585938 C 375.6308898925781 576.0770874023438 374.5409851074219 578.3786010742188 377.14495849609375 580.5134887695312 C 375.9061584472656 581.712646484375 378.38299560546875 580.51708984375 376.3068542480469 579.5402221679688 C 375.8523864746094 578.4747314453125 373.9007568359375 578.2503051757812 377.03912353515625 570.99755859375" stroke-width="0.0" fill="rgb(255, 255, 255)" opacity="0.76792014"/>
    <path d="M 17.0242862701416 12.343472480773926 C 16.882802963256836 10.422356605529785 17.786455154418945 8.580535888671875 15.441685676574707 11.289563179016113 C 14.31869888305664 11.644431114196777 16.183801651000977 13.862752914428711 12.806303977966309 12.878793716430664 C 13.54564094543457 12.928197860717773 12.392633438110352 16.15003204345703 13.357078552246094 17.334928512573242 C 13.255045890808105 17.81887435913086 11.976426124572754 19.172975540161133 17.0242862701416 12.343472480773926" stroke-width="0.0" fill="rgb(255, 255, 255)" opacity="0.66877997"/>
    <path d="M 592.8689575195312 360.4501647949219 C 591.7203979492188 359.0712585449219 590.9627685546875 358.311279296875 592.3112182617188 360.0067443847656 C 593.2326049804688 360.8161315917969 591.7606811523438 361.9254150390625 595.719970703125 363.3017272949219 C 593.8358154296875 365.1339416503906 595.0481567382812 365.1025390625 594.40087890625 365.4043884277344 C 595.1370239257812 366.8170471191406 592.7314453125 366.1477966308594 592.8689575195312 360.4501647949219" stroke-width="0.0" fill="rgb(255, 255, 255)" opacity="0.72858846"/>
    <path d="M 562.1998291015625 594.0320434570312 C 563.4015502929688 593.3173217773438 564.961181640625 595.2021484375 565.5551147460938 596.4229736328125 C 565.4710693359375 596.950927734375 565.57568359375 595.2349243164062 566.8311157226562 596.3347778320312 C 567.4912719726562 598.7261352539062 566.2266235351562 597.8941040039062 564.7122802734375 598.1117553710938 C 563.3882446289062 598.2828979492188 561.2918701171875 596.9562377929688 562.1998291015625 594.0320434570312" stroke-width="0.0" fill="rgb(255, 255, 255)" opacity="0.6997596"/>
    <path d="M 19.362333297729492 495.354736328125 C 19.378332138061523 496.00823974609375 20.028059005737305 494.1932067871094 16.998926162719727 495.2862854003906 C 17.0008544921875 493.7035217285156 19.325300216674805 492.17236328125 21.061656951904297 493.393798828125 C 20.283079147338867 494.8526611328125 21.796785354614258 494.7130126953125 22.952579498291016 493.82489013671875 C 23.08771514892578 494.2856750488281 21.61774444580078 494.422607421875 19.362333297729492 495.354736328125" stroke-width="0.0" fill="rgb(255, 255, 255)" opacity="0.70855796"/>
    <path d="M 5.493967056274414 503.6587829589844 C 5.6752705574035645 505.3195495605469 6.977422714233398 507.8251953125 5.222538471221924 508.3751525878906 C 5.0485992431640625 508.1030578613281 6.067623615264893 508.94415283203125 4.7309346199035645 507.097900390625 C 3.437601327896118 506.65771484375 3.709036111831665 504.9776611328125 4.700150489807129 504.7940368652344 C 5.197390556335449 505.72320556640625 6.089015483856201 504.03173828125 5.493967056274414 503.6587829589844" stroke-width="0.0" fill="rgb(255, 255, 255)" opacity="0.7564624"/>
    <path d="M 28.534128189086914 68.7455062866211 C 31.732030868530273 66.64368438720703 29.5615291595459 65.66993713378906 27.767120361328125 65.94618225097656 C 25.815784454345703 66.78746795654297 27.285415649414062 68.07852935791016 29.233055114746094 68.04415130615234 C 29.40184211730957 68.63858795166016 27.45044708251953 68.83702850341797 26.718563079833984 69.33466339111328 C 27.58034896850586 67.02007293701172 25.83778190612793 66.10094451904297 28.534128189086914 68.7455062866211" stroke-width="0.0" fill="rgb(255, 255, 255)" opacity="0.72122234"/>
    <path d="M 259.6844787597656 586.8527221679688 C 260.6205749511719 587.4074096679688 259.6384582519531 586.6882934570312 258.78411865234375 585.197509765625 C 260.9414367675781 587.6323852539062 259.4442138671875 589.43505859375 261.0404052734375 587.5244140625 C 260.65008544921875 585.8252563476562 263.0888366699219 584.2752075195312 264.1475524902344 585.241455078125 C 263.6560363769531 583.5335693359375 263.1482849121094 582.6516723632812 259.6844787597656 586.8527221679688" stroke-width="0.0" fill="rgb(255, 255, 255)" opacity="0.7010157"/>
    <path d="M 589.3408203125 432.2103576660156 C 591.130859375 430.061767578125 592.7876586914062 428.6778259277344 593.0979614257812 429.76385498046875 C 592.2469482421875 430.6990966796875 592.2932739257812 429.3697204589844 590.66162109375 429.52691650390625 C 591.8839111328125 429.61376953125 594.2574462890625 429.4215393066406 592.4437866210938 428.88873291015625 C 594.3613891601562 426.5627136230469 596.3516845703125 424.75653076171875 589.3408203125 432.2103576660156" stroke-width="0.0" fill="rgb(255, 255, 255)" opacity="0.82428616"/>
    <path d="M 18.107038497924805 380.0682067871094 C 17.585872650146484 378.8365783691406 18.62189483642578 380.5335693359375 18.228229522705078 381.15618896484375 C 18.22026252746582 379.1139221191406 19.316814422607422 379.6252746582031 18.961061477661133 381.7989501953125 C 20.759428024291992 382.5053405761719 20.803794860839844 381.64373779296875 21.124433517456055 381.8624267578125 C 20.480026245117188 379.7965087890625 22.113250732421875 379.9249267578125 18.107038497924805 380.0682067871094" stroke-width="0.0" fill="rgb(255, 255, 255)" opacity="0.7935563"/>
    <path d="M 5.605953216552734 499.74993896484375 C 5.0381340980529785 498.9930725097656 6.3816142082214355 500.7561950683594 7.941374778747559 499.7231750488281 C 9.23138427734375 500.326171875 9.442401885986328 500.91363525390625 10.667096138000488 502.4006042480469 C 7.699450969696045 501.3536376953125 6.587796211242676 502.286376953125 8.65842342376709 503.4288330078125 C 10.547527313232422 505.2727966308594 9.032081604003906 504.5531921386719 5.605953216552734 499.74993896484375" stroke-width="0.0" fill="rgb(255, 255, 255)" opacity="0.69410884"/>
    <path d="M 502.46136474609375 565.8599243164062 C 503.54345703125 567.9826049804688 504.0854187011719 569.6947631835938 504.00006103515625 568.9683837890625 C 505.7224426269531 569.40283203125 507.0589904785156 567.685791015625 504.8271179199219 569.1738891601562 C 504.7430114746094 571.9197998046875 505.71624755859375 570.1815185546875 506.02020263671875 571.4910888671875 C 505.6867370605469 573.2583618164062 505.4612121582031 572.73583984375 502.46136474609375 565.8599243164062" stroke-width="0.0" fill="rgb(255, 255, 255)" opacity="0.7075494"/>
    <path d="M 10.318527221679688 420.86395263671875 C 11.184609413146973 418.6116027832031 9.040450096130371 419.3307189941406 9.433095932006836 418.746826171875 C 9.672053337097168 419.7303466796875 7.527847766876221 417.73406982421875 9.184938430786133 418.8360595703125 C 10.824503898620605 418.7616882324219 9.796855926513672 420.8304138183594 10.440802574157715 419.19952392578125 C 10.191725730895996 419.8551330566406 10.833045959472656 418.9079284667969 10.318527221679688 420.86395263671875" stroke-width="0.0" fill="rgb(255, 255, 255)" opacity="0.836827"/>
    <path d="M 543.2018432617188 592.9757690429688 C 543.6901245117188 593.8635864257812 544.7294311523438 592.7725830078125 545.4140625 592.5137939453125 C 547.460205078125 590.25 548.72705078125 587.6901245117188 549.6199951171875 589.2542724609375 C 552.5534057617188 587.9664916992188 552.5502319335938 585.68701171875 552.3745727539062 585.0584716796875 C 552.9884643554688 586.2899169921875 553.0542602539062 587.8905029296875 543.2018432617188 592.9757690429688" stroke-width="0.0" fill="rgb(255, 255, 255)" opacity="0.6296746"/>
    <path d="M 278.2447509765625 594.9785766601562 C 279.6666259765625 593.5169067382812 279.6550598144531 594.0162353515625 280.377685546875 593.6812744140625 C 282.23175048828125 596.092041015625 280.8328857421875 593.7676391601562 279.8467102050781 593.7021484375 C 278.2236633300781 594.5296630859375 276.0692138671875 596.8807373046875 277.5283203125 595.927734375 C 275.8482666015625 595.9759521484375 274.1018981933594 598.1046142578125 278.2447509765625 594.9785766601562" stroke-width="0.0" fill="rgb(255, 255, 255)" opacity="0.7945983"/>
    <path d="M 542.990966796875 583.3118286132812 C 540.9527587890625 582.2883911132812 541.655517578125 579.4735717773438 543.2078247070312 578.7423095703125 C 540.8809204101562 580.236328125 542.6066284179688 580.880615234375 541.9119873046875 581.944091796875 C 540.8093872070312 582.2222900390625 540.9078369140625 582.2523803710938 541.544921875 582.0400390625 C 541.4702758789062 579.8825073242188 543.5458374023438 577.8782348632812 542.990966796875 583.3118286132812" stroke-width="0.0" fill="rgb(255, 255, 255)" opacity="0.75554764"/>
    <path d="M 568.1153564453125 339.6055908203125 C 567.5634765625 339.9924621582031 566.6437377929688 338.9788513183594 568.2080688476562 340.5404052734375 C 567.5858154296875 341.1193542480469 565.5322875976562 342.895263671875 565.0055541992188 341.85748291015625 C 562.9028930664062 341.7674560546875 562.4346923828125 342.3349914550781 561.9700927734375 341.78106689453125 C 560.5926513671875 341.9438781738281 559.0231323242188 341.83917236328125 568.1153564453125 339.6055908203125" stroke-width="0.0" fill="rgb(255, 255, 255)" opacity="0.6723453"/>
    <path d="M 567.9078979492188 450.29302978515625 C 567.5055541992188 449.568603515625 569.3157348632812 447.7079162597656 569.8906860351562 448.000732421875 C 570.2030029296875 450.3775634765625 570.0574340820312 451.8106384277344 568.2460327148438 450.8362121582031 C 568.520751953125 451.85528564453125 568.419677734375 454.0816650390625 567.4271240234375 454.0643310546875 C 567.507080078125 454.4130859375 569.3504638671875 452.724609375 567.9078979492188 450.29302978515625" stroke-width="0.0" fill="rgb(255, 255, 255)" opacity="0.72998136"/>
    <path d="M 584.945068359375 492.5740661621094 C 583.54150390625 491.5648498535156 583.52734375 490.7539367675781 584.53076171875 489.65753173828125 C 582.6967163085938 488.0189514160156 584.5709228515625 490.2397155761719 585.4307250976562 489.72589111328125 C 583.4693603515625 489.9261474609375 582.5999145507812 490.0981140136719 582.7350463867188 490.3919982910156 C 583.0650024414062 490.0640869140625 581.0906982421875 488.66900634765625 584.945068359375 492.5740661621094" stroke-width="0.0" fill="rgb(255, 255, 255)" opacity="0.80609244"/>
    <path d="M 253.67779541015625 574.768798828125 C 253.37142944335938 574.6470947265625 251.55020141601562 574.787109375 250.8383026123047 574.0975341796875 C 249.03829956054688 573.8069458007812 249.12432861328125 573.7044067382812 250.731689453125 574.6246948242188 C 251.95957946777344 571.6150512695312 249.76998901367188 570.4072265625 246.10816955566406 571.1548461914062 C 245.1637420654297 573.5106201171875 247.17970275878906 574.1611938476562 253.67779541015625 574.768798828125" stroke-width="0.0" fill="rgb(255, 255, 255)" opacity="0.6817131"/>
    <path d="M 298.5662841796875 580.18310546875 C 297.246337890625 578.2100830078125 295.21966552734375 579.8271484375 296.13818359375 577.323486328125 C 297.1060791015625 576.5159301757812 299.8706970214844 577.0243530273438 302.0889587402344 578.2608642578125 C 301.21405029296875 578.861083984375 303.6273193359375 577.219970703125 304.2956237792969 576.0604248046875 C 306.2583923339844 575.5740966796875 304.96673583984375 572.1076049804688 298.5662841796875 580.18310546875" stroke-width="0.0" fill="rgb(255, 255, 255)" opacity="0.63908625"/>
    <path d="M 584.4950561523438 382.67315673828125 C 585.0472412109375 383.23876953125 585.305908203125 383.4088439941406 584.8244018554688 385.499267578125 C 583.2272338867188 383.14691162109375 581.9698486328125 383.93017578125 580.537353515625 382.7949523925781 C 581.59912109375 383.7599792480469 582.0929565429688 383.2532043457031 583.5420532226562 384.10174560546875 C 582.9907836914062 384.86566162109375 582.4598999023438 385.76739501953125 584.4950561523438 382.67315673828125" stroke-width="0.0" fill="rgb(255, 255, 255)" opacity="0.76232976"/>
    <path d="M 21.941354751586914 358.8408203125 C 21.70745086669922 356.7260437011719 19.971839904785156 358.7571105957031 21.479080200195312 360.11322021484375 C 21.85874366760254 359.801025390625 23.40414047241211 359.50738525390625 23.256811141967773 361.3689270019531 C 22.229333877563477 362.6683654785156 22.646896362304688 361.5478210449219 23.97543716430664 359.2179870605469 C 24.3707275390625 359.3152770996094 26.424776077270508 359.9969787597656 21.941354751586914 358.8408203125" stroke-width="0.0" fill="rgb(255, 255, 255)" opacity="0.7148942"/>
    <path d="M 594.942138671875 400.5971984863281 C 597.7658081054688 402.1574401855469 595.2305297851562 404.0623779296875 592.4359741210938 402.47137451171875 C 594.3307495117188 402.0867919921875 593.0277099609375 400.19677734375 591.9864501953125 398.99224853515625 C 591.1986083984375 398.1693115234375 593.3699951171875 399.414306640625 591.6070556640625 400.9759521484375 C 589.6403198242188 401.3839416503906 591.44140625 403.3482360839844 594.942138671875 400.5971984863281" stroke-width="0.0" fill="rgb(255, 255, 255)" opacity="0.6813273"/>
    <path d="M 584.1275634765625 361.3042907714844 C 585.1878662109375 360.3406677246094 582.767822265625 360.7366027832031 583.0228271484375 360.40771484375 C 583.6209716796875 361.7062683105469 584.6463012695312 363.0851745605469 584.2254028320312 360.49334716796875 C 581.9588623046875 358.8572692871094 581.5340576171875 357.423828125 581.4829711914062 359.27484130859375 C 579.4973754882812 361.2820739746094 578.3715209960938 362.9349670410156 584.1275634765625 361.3042907714844" stroke-width="0.0" fill="rgb(255, 255, 255)" opacity="0.8074693"/>
    <path d="M 333.5000915527344 589.6572265625 C 332.5916442871094 588.4309692382812 334.63671875 590.0345458984375 333.9448547363281 586.6746826171875 C 333.5659484863281 587.5469360351562 333.90362548828125 586.4680786132812 335.10260009765625 586.8087768554688 C 336.0332946777344 587.790771484375 335.5110778808594 586.2639770507812 333.6187744140625 586.9472045898438 C 332.28594970703125 586.9326171875 333.0532531738281 589.0032348632812 333.5000915527344 589.6572265625" stroke-width="0.0" fill="rgb(255, 255, 255)" opacity="0.82410294"/>
    <path d="M 533.4202270507812 581.9902954101562 C 530.9541015625 581.6369018554688 530.1114501953125 579.4782104492188 531.3623657226562 579.2401123046875 C 533.3404541015625 577.8902587890625 531.822998046875 577.1201782226562 529.3013305664062 575.6885375976562 C 528.4097900390625 574.0703735351562 527.6026000976562 574.9943237304688 526.0032958984375 576.4590454101562 C 526.28515625 579.0833129882812 523.8211669921875 578.518798828125 533.4202270507812 581.9902954101562" stroke-width="0.0" fill="rgb(255, 255, 255)" opacity="0.65818053"/>
    <path d="M 513.611572265625 566.9287719726562 C 516.353515625 566.7916870117188 517.8449096679688 568.9120483398438 518.9500122070312 567.74755859375 C 518.908935546875 565.3649291992188 519.2568969726562 563.5288696289062 518.5838623046875 564.0020751953125 C 519.249267578125 564.0996704101562 521.5657348632812 563.4890747070312 520.748046875 564.3340454101562 C 521.9966430664062 565.8634033203125 519.3724975585938 568.1887817382812 513.611572265625 566.9287719726562" stroke-width="0.0" fill="rgb(255, 255, 255)" opacity="0.68867874"/>
    <path d="M 567.63037109375 486.7529602050781 C 568.4495849609375 487.5781555175781 567.8833618164062 488.2413330078125 568.30029296875 489.03045654296875 C 568.632568359375 488.9004821777344 566.844482421875 487.33148193359375 569.0816650390625 486.8349914550781 C 570.3268432617188 487.6045227050781 571.7720947265625 488.95556640625 570.6428833007812 488.7917175292969 C 572.41162109375 488.26312255859375 569.327880859375 490.8074951171875 567.63037109375 486.7529602050781" stroke-width="0.0" fill="rgb(255, 255, 255)" opacity="0.74215"/>
    <path d="M 28.020519256591797 374.1502990722656 C 27.910640716552734 375.20465087890625 26.30832862854004 376.7671813964844 28.14402961730957 374.96453857421875 C 25.60297203063965 373.1076354980469 23.5323486328125 374.0117492675781 23.914419174194336 374.8816223144531 C 24.21533966064453 376.4998474121094 25.930267333984375 374.93267822265625 27.84566307067871 376.2921142578125 C 26.14117431640625 378.79296875 28.18293571472168 377.1555480957031 28.020519256591797 374.1502990722656" stroke-width="0.0" fill="rgb(255, 255, 255)" opacity="0.8340461"/>
    <path d="M 571.9047241210938 358.0506286621094 C 572.0994262695312 356.7744445800781 572.1764526367188 355.19293212890625 571.3592529296875 356.1177673339844 C 569.7522583007812 359.1805114746094 567.0647583007812 357.49835205078125 567.3099365234375 358.1768493652344 C 567.3887329101562 357.3865661621094 566.0869750976562 358.7465515136719 567.8814086914062 359.3080749511719 C 567.7647705078125 357.6121520996094 569.5003051757812 357.4308776855469 571.9047241210938 358.0506286621094" stroke-width="0.0" fill="rgb(255, 255, 255)" opacity="0.75004464"/>
    <path d="M 321.77801513671875 577.6918334960938 C 320.2669372558594 579.9285888671875 321.0692443847656 577.7250366210938 320.7866516113281 577.7496948242188 C 320.6912536621094 579.4326782226562 321.86212158203125 579.48828125 320.9838562011719 579.0459594726562 C 321.90289306640625 577.412353515625 321.75250244140625 577.8258056640625 320.2486572265625 579.0255126953125 C 320.6722106933594 578.8492431640625 318.47637939453125 580.7003173828125 321.77801513671875 577.6918334960938" stroke-width="0.0" fill="rgb(255, 255, 255)" opacity="0.84386134"/>
    <path d="M 531.9224853515625 577.958984375 C 529.2747192382812 579.1903076171875 528.5966796875 580.6658935546875 529.091064453125 582.7994384765625 C 528.9285888671875 581.8776245117188 528.9691772460938 581.2393188476562 529.7899780273438 583.6270751953125 C 529.2806396484375 581.2875366210938 527.076416015625 581.82373046875 528.2551879882812 582.9664306640625 C 529.4680786132812 582.8009033203125 527.9701538085938 584.512451171875 531.9224853515625 577.958984375" stroke-width="0.0" fill="rgb(255, 255, 255)" opacity="0.78799427"/>
    <path d="M 66.28057861328125 590.4462890625 C 68.27460479736328 590.287841796875 66.03897857666016 589.7958374023438 67.31910705566406 588.8252563476562 C 65.99785614013672 587.9622192382812 67.70899200439453 589.2039794921875 69.3028564453125 589.7958984375 C 68.87044525146484 590.1696166992188 68.8309097290039 588.7679443359375 67.71578216552734 589.7348022460938 C 68.86222076416016 589.1392822265625 67.43779754638672 590.625 66.28057861328125 590.4462890625" stroke-width="0.0" fill="rgb(255, 255, 255)" opacity="0.8051412"/>
    <path d="M 596.9893188476562 534.9024658203125 C 596.9712524414062 535.5997924804688 595.4374389648438 534.3468627929688 594.970947265625 533.2055053710938 C 594.6275634765625 532.5719604492188 595.5322265625 531.2548828125 596.9254150390625 531.7281494140625 C 595.9078979492188 532.2545776367188 595.17724609375 532.177978515625 596.7415161132812 531.1569213867188 C 594.1512451171875 529.1138305664062 596.9276123046875 529.7591552734375 596.9893188476562 534.9024658203125" stroke-width="0.0" fill="rgb(255, 255, 255)" opacity="0.7242478"/>
    <path d="M 1.610851764678955 312.67816162109375 C 3.2382712364196777 315.4807434082031 0.6171432733535767 316.9417724609375 -1.4593250751495361 317.86883544921875 C -2.9736058712005615 320.6805725097656 -4.635208606719971 319.32220458984375 -6.622762203216553 321.0103454589844 C -4.2200608253479 320.5146789550781 -3.8726508617401123 320.792724609375 -5.071765422821045 320.73541259765625 C -6.025387763977051 321.9681091308594 -6.417443752288818 321.0942687988281 1.610851764678955 312.67816162109375" stroke-width="0.0" fill="rgb(255, 255, 255)" opacity="0.75696975"/>
    <path d="M 343.49468994140625 568.1563110351562 C 345.52825927734375 568.0126342773438 346.2203063964844 565.5619506835938 348.04534912109375 564.8029174804688 C 348.4578552246094 564.6905517578125 347.36175537109375 563.6978149414062 348.6517028808594 564.2606811523438 C 348.1473083496094 564.4928588867188 347.0863037109375 562.1221313476562 348.2847900390625 561.4544677734375 C 350.765380859375 559.0557861328125 351.68121337890625 556.510498046875 343.49468994140625 568.1563110351562" stroke-width="0.0" fill="rgb(255, 255, 255)" opacity="0.65948755"/>
    <path d="M 313.478271484375 598.5484619140625 C 312.6915283203125 596.814208984375 310.633056640625 594.8668823242188 310.1176452636719 596.4951171875 C 309.6190490722656 593.7723388671875 310.2657775878906 592.6045532226562 311.986572265625 592.704345703125 C 314.3778381347656 591.3212280273438 312.6353454589844 590.5394897460938 314.085205078125 592.7684326171875 C 315.57025146484375 593.498291015625 315.7381286621094 594.5654907226562 313.478271484375 598.5484619140625" stroke-width="0.0" fill="rgb(255, 255, 255)" opacity="0.68683094"/>
    <path d="M -6.6059417724609375 48.96452713012695 C 3.604417085647583 46.99630355834961 3.2279388904571533 46.474266052246094 -9.311347007751465 50.45693588256836 C -2.5144550800323486 63.084068298339844 -0.8109074831008911 63.801353454589844 0.1331280767917633 66.83863067626953 C 16.185304641723633 57.99489974975586 19.1656436920166 54.728118896484375 28.42572784423828 49.18778610229492 C 24.23613739013672 46.366798400878906 17.89484214782715 51.70027542114258 -6.6059417724609375 48.96452713012695" stroke-width="0.0" fill="rgb(21, 21, 21)" opacity="1.0"/>
    <path d="M 6.188863754272461 381.70465087890625 C 8.419219970703125 383.26129150390625 6.020405292510986 384.6611328125 3.2426602840423584 386.61822509765625 C 2.535437822341919 389.2649841308594 1.1339410543441772 387.9833068847656 2.3800065517425537 387.110107421875 C 4.7567901611328125 386.5008544921875 4.2447943687438965 383.2506103515625 3.0415072441101074 382.17724609375 C 4.630135536193848 383.7342834472656 6.2205305099487305 383.32330322265625 6.188863754272461 381.70465087890625" stroke-width="0.0" fill="rgb(255, 255, 255)" opacity="0.6786889"/>
    <path d="M 542.7894897460938 567.1031494140625 C 540.357177734375 566.9323120117188 540.9307250976562 566.5772705078125 541.1023559570312 567.5847778320312 C 542.6091918945312 567.5872192382812 544.4682006835938 565.803955078125 541.9994506835938 564.619140625 C 543.654541015625 563.6912231445312 541.4442749023438 564.57666015625 539.726806640625 567.010498046875 C 537.103271484375 566.60302734375 536.3792724609375 569.4254150390625 542.7894897460938 567.1031494140625" stroke-width="0.0" fill="rgb(255, 255, 255)" opacity="0.7029138"/>
    <path d="M 572.52001953125 529.6763916015625 C 574.0972900390625 528.6246948242188 573.7449951171875 527.9237670898438 571.5480346679688 530.81884765625 C 569.4326782226562 532.8577270507812 572.3875732421875 534.1344604492188 575.2011108398438 534.068603515625 C 574.3013305664062 535.8858032226562 575.3312377929688 536.5833740234375 577.7824096679688 535.766357421875 C 578.310302734375 538.63232421875 577.0599365234375 537.3741455078125 572.52001953125 529.6763916015625" stroke-width="0.0" fill="rgb(255, 255, 255)" opacity="0.6242432"/>
    <path d="M 525.9766845703125 563.8584594726562 C 525.8587036132812 564.2404174804688 524.5675048828125 563.5940551757812 525.9739990234375 564.522216796875 C 524.0875854492188 563.1596069335938 525.0455932617188 563.9812622070312 523.4127197265625 565.0880737304688 C 524.4760131835938 564.3534545898438 525.8194580078125 562.5009155273438 525.15283203125 562.7140502929688 C 527.4777221679688 564.113037109375 525.4029541015625 562.449462890625 525.9766845703125 563.8584594726562" stroke-width="0.0" fill="rgb(255, 255, 255)" opacity="0.87724584"/>
    <path d="M 14.325972557067871 394.1952819824219 C 17.104585647583008 392.85296630859375 15.767733573913574 392.87139892578125 13.520194053649902 394.9444580078125 C 11.570640563964844 397.4056701660156 9.36922550201416 395.6667785644531 13.046775817871094 393.81573486328125 C 15.107428550720215 395.079345703125 16.124006271362305 393.5768737792969 16.8177433013916 393.5412902832031 C 17.90517234802246 392.23736572265625 16.132837295532227 394.54510498046875 14.325972557067871 394.1952819824219" stroke-width="0.0" fill="rgb(255, 255, 255)" opacity="0.69545054"/>
    <path d="M 590.8523559570312 584.7533569335938 C 592.0078125 582.2871704101562 589.414306640625 581.11083984375 587.4019775390625 579.5355834960938 C 586.9821166992188 579.3440551757812 587.0064697265625 578.4075317382812 586.7088012695312 576.4179077148438 C 586.9663696289062 575.6996459960938 587.5236206054688 575.7290649414062 587.1231079101562 575.1356201171875 C 586.4154052734375 577.5217895507812 585.4822998046875 575.7777709960938 590.8523559570312 584.7533569335938" stroke-width="0.0" fill="rgb(255, 255, 255)" opacity="0.65745825"/>
    <path d="M 579.723388671875 357.0663146972656 C 580.3760375976562 358.4988708496094 583.2069091796875 360.0816955566406 584.6744384765625 361.31201171875 C 584.9904174804688 360.8050231933594 586.0155639648438 363.5390930175781 582.9551391601562 363.17138671875 C 580.7493286132812 361.99920654296875 581.5012817382812 360.982177734375 579.8964233398438 360.52862548828125 C 582.2548828125 358.3915100097656 583.299072265625 356.39935302734375 579.723388671875 357.0663146972656" stroke-width="0.0" fill="rgb(255, 255, 255)" opacity="0.7003105"/>
    <path d="M 529.2840576171875 566.1389770507812 C 529.0521850585938 568.5364990234375 530.8713989257812 569.9170532226562 530.551513671875 571.1150512695312 C 530.4646606445312 570.5660400390625 530.7264404296875 568.6296997070312 530.671142578125 570.2396850585938 C 532.2281494140625 571.629638671875 534.1369018554688 572.5050659179688 534.2918701171875 572.547607421875 C 531.7003173828125 571.1538696289062 529.6565551757812 570.6378173828125 529.2840576171875 566.1389770507812" stroke-width="0.0" fill="rgb(255, 255, 255)" opacity="0.8170688"/>
    <path d="M 30.734630584716797 43.95026397705078 C 30.149354934692383 45.038246154785156 31.668413162231445 42.53044128417969 30.687183380126953 43.08170700073242 C 33.47180938720703 42.913978576660156 32.488155364990234 43.2227668762207 33.80772399902344 42.8750114440918 C 34.15116882324219 44.70846939086914 34.4267578125 43.056644439697266 33.865726470947266 44.18949890136719 C 35.52980422973633 43.99082565307617 33.798580169677734 44.229610443115234 30.734630584716797 43.95026397705078" stroke-width="0.0" fill="rgb(255, 255, 255)" opacity="0.82250434"/>
    <path d="M 594.0067138671875 485.056640625 C 593.5599975585938 484.6695251464844 595.0924072265625 482.68389892578125 595.2099609375 481.9351806640625 C 592.8591918945312 482.024169921875 593.7156372070312 481.44256591796875 592.1961059570312 483.7481689453125 C 592.8098754882812 482.33062744140625 592.5009765625 482.5138854980469 595.076416015625 483.86083984375 C 593.1853637695312 483.52398681640625 591.7180786132812 484.859619140625 594.0067138671875 485.056640625" stroke-width="0.0" fill="rgb(255, 255, 255)" opacity="0.7468687"/>
    <path d="M 294.8661193847656 593.5155029296875 C 295.33062744140625 590.828857421875 296.222900390625 590.3504028320312 295.37744140625 589.809814453125 C 294.82220458984375 590.8340454101562 294.6244201660156 589.2523193359375 294.84564208984375 590.759033203125 C 294.665771484375 589.294189453125 295.8064270019531 587.7745971679688 296.1145935058594 589.7250366210938 C 296.6024475097656 588.422607421875 296.42767333984375 587.8857421875 294.8661193847656 593.5155029296875" stroke-width="0.0" fill="rgb(255, 255, 255)" opacity="0.7870737"/>
    <path d="M 273.129638671875 591.766845703125 C 272.6024169921875 592.38818359375 274.253173828125 592.076904296875 272.6270751953125 590.5513916015625 C 273.5547790527344 593.0247802734375 273.8613586425781 591.6441040039062 272.4822692871094 590.6077270507812 C 273.46759033203125 587.3514404296875 273.91033935546875 586.1680297851562 271.4536437988281 585.9117431640625 C 270.40972900390625 584.9682006835938 271.40875244140625 584.7392578125 273.129638671875 591.766845703125" stroke-width="0.0" fill="rgb(255, 255, 255)" opacity="0.68682593"/>
    <path d="M 555.4031372070312 478.93511962890625 C 553.2548828125 478.82330322265625 554.138671875 479.75531005859375 555.285888671875 478.9810485839844 C 554.7533569335938 478.7836608886719 555.2784423828125 481.2365417480469 554.929443359375 482.0456848144531 C 552.5086669921875 481.6412353515625 555.1657104492188 480.45947265625 553.6819458007812 479.370361328125 C 551.1727905273438 478.8674621582031 553.1317138671875 480.07940673828125 555.4031372070312 478.93511962890625" stroke-width="0.0" fill="rgb(255, 255, 255)" opacity="0.76918596"/>
    <path d="M 575.200439453125 398.0246276855469 C 573.130615234375 399.1299133300781 575.5323486328125 398.093994140625 576.2506713867188 396.4719543457031 C 575.3790893554688 398.42236328125 573.8289794921875 397.9698486328125 575.6700439453125 396.9366149902344 C 577.0005493164062 396.5953063964844 575.0877075195312 398.89447021484375 576.2661743164062 397.0599060058594 C 577.5115966796875 396.577392578125 577.3460083007812 398.7692565917969 575.200439453125 398.0246276855469" stroke-width="0.0" fill="rgb(255, 255, 255)" opacity="0.81130385"/>
    <path d="M 557.982177734375 470.507568359375 C 557.804931640625 469.24298095703125 558.8717041015625 469.9158020019531 560.2054443359375 469.9500732421875 C 558.9652709960938 466.9893798828125 561.61669921875 467.69219970703125 561.5756225585938 469.3034362792969 C 562.7083740234375 466.8929138183594 561.9844970703125 466.9518737792969 559.3045654296875 467.0397644042969 C 557.709228515625 465.6015319824219 560.5459594726562 466.689453125 557.982177734375 470.507568359375" stroke-width="0.0" fill="rgb(255, 255, 255)" opacity="0.72319204"/>
    <path d="M 24.313833236694336 67.9373779296875 C 2.7894420623779297 60.963993072509766 6.410775661468506 53.722190856933594 6.799749851226807 53.183528900146484 C -6.553616523742676 50.149200439453125 -6.404218673706055 55.43946075439453 -3.9185237884521484 66.22174835205078 C -2.028977155685425 68.96283721923828 -2.873488426208496 68.50220489501953 -7.911952495574951 72.23892211914062 C 9.3180513381958 74.56802368164062 10.925631523132324 71.91769409179688 24.313833236694336 67.9373779296875" stroke-width="0.0" fill="rgb(0, 0, 0)" opacity="0.9784578"/>
    <path d="M 566.9617309570312 543.4508666992188 C 568.1862182617188 546.5155029296875 568.7333984375 545.0698852539062 567.6603393554688 545.0511474609375 C 566.366455078125 542.7061157226562 567.6041870117188 540.248779296875 567.2810668945312 537.7969360351562 C 565.8084106445312 535.8655395507812 565.7405395507812 537.6707763671875 566.2824096679688 538.134765625 C 567.7046508789062 537.8560791015625 567.5909423828125 535.569091796875 566.9617309570312 543.4508666992188" stroke-width="0.0" fill="rgb(255, 255, 255)" opacity="0.7556664"/>
    <path d="M 42.77437210083008 590.5418090820312 C 44.698787689208984 591.2089233398438 45.533695220947266 591.631103515625 47.86735153198242 592.65625 C 48.483482360839844 595.1769409179688 50.609962463378906 595.7916259765625 51.352298736572266 594.3615112304688 C 50.6720085144043 594.63916015625 50.90206527709961 594.3984375 52.285892486572266 594.975830078125 C 53.7550048828125 596.7662353515625 53.88621139526367 595.0962524414062 42.77437210083008 590.5418090820312" stroke-width="0.0" fill="rgb(255, 255, 255)" opacity="0.699803"/>
    <path d="M 3.19437837600708 336.8889465332031 C 2.0208208560943604 338.18658447265625 3.680473804473877 338.7306823730469 6.344797611236572 337.0602111816406 C 5.933282852172852 338.1588439941406 4.047316551208496 338.2605285644531 4.897068023681641 337.3990783691406 C 7.7252373695373535 337.193115234375 7.2891621589660645 336.92620849609375 4.799962997436523 337.80645751953125 C 5.5100555419921875 337.8612060546875 7.773652076721191 337.22052001953125 3.19437837600708 336.8889465332031" stroke-width="0.0" fill="rgb(255, 255, 255)" opacity="0.7393546"/>
    <path d="M 11.743693351745605 430.7459411621094 C 12.112237930297852 429.5780944824219 12.3945894241333 430.50830078125 11.854499816894531 430.4649963378906 C 13.665331840515137 428.918212890625 15.248294830322266 426.8010559082031 16.53223419189453 424.8962707519531 C 16.823801040649414 423.9309997558594 16.655719757080078 425.0445861816406 17.020889282226562 423.6829528808594 C 17.7351016998291 421.7983703613281 17.796058654785156 424.1891784667969 11.743693351745605 430.7459411621094" stroke-width="0.0" fill="rgb(255, 255, 255)" opacity="0.7823509"/>
    <path d="M 582.1920166015625 395.21734619140625 C 584.355712890625 395.6033020019531 584.3019409179688 393.3721008300781 583.7325439453125 391.9527893066406 C 582.8023071289062 392.3659973144531 583.1058959960938 389.6834716796875 581.1778564453125 388.76214599609375 C 580.561767578125 389.706787109375 581.2515869140625 391.63702392578125 580.9027709960938 391.89251708984375 C 580.3041381835938 391.5688171386719 578.3468017578125 393.4748840332031 582.1920166015625 395.21734619140625" stroke-width="0.0" fill="rgb(255, 255, 255)" opacity="0.68143594"/>
    <path d="M 357.3560791015625 570.1732177734375 C 356.376953125 568.0309448242188 352.9628601074219 568.690673828125 351.8529357910156 570.8421630859375 C 349.9768371582031 572.22509765625 348.8066101074219 573.3043212890625 351.415283203125 574.531005859375 C 351.7913818359375 573.4003295898438 351.0955810546875 574.3096923828125 350.9953308105469 575.9127807617188 C 350.8542175292969 576.9102783203125 351.4366455078125 576.1588134765625 357.3560791015625 570.1732177734375" stroke-width="0.0" fill="rgb(255, 255, 255)" opacity="0.6337356"/>
    <path d="M 591.3649291992188 368.2250671386719 C 590.9545288085938 368.1153259277344 589.1527709960938 368.8998107910156 590.6441650390625 368.7424621582031 C 588.0759887695312 368.19287109375 585.0059204101562 370.01141357421875 588.062255859375 369.9441223144531 C 587.6504516601562 367.83587646484375 588.7666015625 365.4679870605469 586.7510375976562 367.66253662109375 C 584.8260498046875 369.3235778808594 585.975341796875 369.4227600097656 591.3649291992188 368.2250671386719" stroke-width="0.0" fill="rgb(255, 255, 255)" opacity="0.7074173"/>
    <path d="M 593.5675659179688 460.2568359375 C 593.1837768554688 459.25 590.9523315429688 461.48321533203125 590.466552734375 460.959228515625 C 593.9560546875 460.2060852050781 592.5128173828125 458.98809814453125 593.2273559570312 460.0236511230469 C 594.3184814453125 460.90264892578125 594.8624877929688 461.5106201171875 594.4285888671875 461.218994140625 C 595.7374267578125 461.7898864746094 595.4412231445312 461.9889221191406 593.5675659179688 460.2568359375" stroke-width="0.0" fill="rgb(255, 255, 255)" opacity="0.786077"/>
    <path d="M 0.7893792986869812 364.9854736328125 C 1.4877732992172241 366.1062927246094 0.5960344672203064 364.37030029296875 1.1824276447296143 366.20404052734375 C 0.5527150630950928 367.0520324707031 2.411698579788208 368.2420349121094 1.2466456890106201 367.1149597167969 C 0.9355652332305908 368.9609069824219 1.6506638526916504 368.1656494140625 0.9237338304519653 365.7655944824219 C 2.6520001888275146 368.5146789550781 2.889561414718628 370.1221923828125 0.7893792986869812 364.9854736328125" stroke-width="0.0" fill="rgb(255, 255, 255)" opacity="0.8377772"/>
    <path d="M 580.6238403320312 376.49310302734375 C 581.9345092773438 376.00091552734375 580.34033203125 376.68914794921875 581.1212158203125 377.9170837402344 C 583.4251708984375 378.4161071777344 583.7973022460938 377.0277099609375 582.1984252929688 376.81695556640625 C 582.1290893554688 376.6623229980469 581.64599609375 375.3668518066406 582.047607421875 375.81329345703125 C 583.5450439453125 374.26287841796875 585.1002197265625 373.6996765136719 580.6238403320312 376.49310302734375" stroke-width="0.0" fill="rgb(255, 255, 255)" opacity="0.76061755"/>
    <path d="M 597.70849609375 349.5682373046875 C 600.1417846679688 348.16607666015625 598.4147338867188 345.6927795410156 599.2622680664062 344.104736328125 C 601.8902587890625 342.784912109375 603.8748168945312 344.8707275390625 601.467041015625 343.1816101074219 C 602.21484375 344.09967041015625 602.19140625 345.8607482910156 602.4459228515625 345.1336975097656 C 603.0829467773438 343.6195373535156 604.9876098632812 342.75946044921875 597.70849609375 349.5682373046875" stroke-width="0.0" fill="rgb(255, 255, 255)" opacity="0.8320847"/>
    <path d="M 598.1281127929688 346.3056640625 C 599.051025390625 346.7696533203125 598.137451171875 346.34783935546875 597.6881103515625 346.0588073730469 C 599.1552124023438 345.8768615722656 600.7986450195312 345.805908203125 599.387939453125 344.28594970703125 C 596.7529296875 344.5274658203125 598.0835571289062 344.0032958984375 601.3961791992188 344.96014404296875 C 599.8063354492188 346.6679382324219 597.3670654296875 348.03497314453125 598.1281127929688 346.3056640625" stroke-width="0.0" fill="rgb(255, 255, 255)" opacity="0.8386549"/>
    <path d="M 39.96072006225586 587.1732788085938 C 40.01352310180664 586.0695190429688 40.35749816894531 585.2950439453125 39.89876937866211 586.7471313476562 C 41.952354431152344 588.5634765625 40.38777542114258 590.1893920898438 40.803558349609375 589.7686767578125 C 38.65957260131836 590.9295654296875 40.77614974975586 591.2505493164062 42.22139358520508 591.0747680664062 C 43.80168914794922 591.1256103515625 43.659793853759766 589.0108032226562 39.96072006225586 587.1732788085938" stroke-width="0.0" fill="rgb(255, 255, 255)" opacity="0.7169112"/>
    <path d="M 24.237619400024414 56.75239562988281 C 23.44820213317871 57.10169982910156 23.154499053955078 57.79020309448242 7.995723247528076 59.17703628540039 C 9.628885269165039 52.690277099609375 11.6930513381958 47.626792907714844 40.311248779296875 48.57878875732422 C 42.43829345703125 47.86092758178711 42.129451751708984 58.6898307800293 39.71852111816406 57.870399475097656 C 19.778425216674805 56.6590576171875 21.636743545532227 59.158206939697266 24.237619400024414 56.75239562988281" stroke-width="0.0" fill="rgb(0, 0, 0)" opacity="0.9878093"/>
    <path d="M 531.8841552734375 584.5794067382812 C 531.9158935546875 583.3948364257812 532.19091796875 584.852783203125 531.9813842773438 586.836669921875 C 533.4964599609375 587.3390502929688 532.3355712890625 586.8992919921875 534.6085815429688 589.1871948242188 C 533.4806518554688 589.541015625 535.568603515625 588.389892578125 536.9663696289062 589.3870239257812 C 538.627197265625 591.7933959960938 540.9444580078125 592.9707641601562 531.8841552734375 584.5794067382812" stroke-width="0.0" fill="rgb(255, 255, 255)" opacity="0.6947763"/>
    <path d="M 311.4814758300781 591.1697998046875 C 313.8807373046875 592.8001098632812 312.75726318359375 594.677001953125 311.5596008300781 595.7178955078125 C 310.2248840332031 593.4732666015625 310.8985290527344 594.178466796875 308.1001281738281 593.95263671875 C 306.62030029296875 590.8560180664062 304.75372314453125 592.2945556640625 302.09765625 591.9169311523438 C 301.1544189453125 590.02001953125 301.9924011230469 588.697021484375 311.4814758300781 591.1697998046875" stroke-width="0.0" fill="rgb(255, 255, 255)" opacity="0.6564854"/>
    <path d="M 74.84547424316406 592.5347290039062 C 78.17698669433594 593.8923950195312 76.94664001464844 592.9998168945312 79.47957611083984 591.48779296875 C 76.49823760986328 589.731201171875 76.96672058105469 592.17822265625 76.97347259521484 593.5015258789062 C 76.13617706298828 592.6556396484375 77.97517395019531 595.4911499023438 78.67623138427734 595.1259155273438 C 78.22559356689453 594.9754028320312 80.84304809570312 596.9212646484375 74.84547424316406 592.5347290039062" stroke-width="0.0" fill="rgb(255, 255, 255)" opacity="0.6966174"/>
    <path d="M 558.2929077148438 565.6107177734375 C 558.1993408203125 564.247802734375 558.42919921875 565.579833984375 557.7379760742188 564.972900390625 C 555.9559936523438 565.0051879882812 557.8462524414062 562.8746948242188 556.3162231445312 562.572021484375 C 558.8890991210938 563.7410278320312 560.9783935546875 562.8015747070312 559.6848754882812 561.9351806640625 C 559.5040893554688 562.2145385742188 556.78466796875 564.1859741210938 558.2929077148438 565.6107177734375" stroke-width="0.0" fill="rgb(255, 255, 255)" opacity="0.7392857"/>
    <path d="M 565.4290771484375 364.0350646972656 C 564.2103271484375 363.2395324707031 564.5791625976562 361.996337890625 562.7813720703125 361.8016052246094 C 560.9090576171875 363.5457458496094 562.34326171875 364.3483581542969 563.6034545898438 364.08782958984375 C 563.7885131835938 363.0047912597656 562.27001953125 364.222900390625 563.9274291992188 362.9134826660156 C 563.14404296875 363.2557678222656 562.7770385742188 364.3591003417969 565.4290771484375 364.0350646972656" stroke-width="0.0" fill="rgb(255, 255, 255)" opacity="0.7368624"/>
    <path d="M 587.1013793945312 371.89617919921875 C 588.2224731445312 371.98162841796875 589.7672729492188 374.098388671875 588.7850341796875 376.7557678222656 C 589.5738525390625 375.956787109375 588.6084594726562 377.2566223144531 589.6104736328125 376.25213623046875 C 587.50048828125 377.9947204589844 588.9109497070312 376.7335510253906 586.8075561523438 375.1994323730469 C 587.3668823242188 374.1900939941406 586.8150634765625 372.00244140625 587.1013793945312 371.89617919921875" stroke-width="0.0" fill="rgb(255, 255, 255)" opacity="0.7152393"/>
    <path d="M 502.6361999511719 595.7710571289062 C 502.5482177734375 595.5595703125 501.0337829589844 596.2891845703125 502.4240417480469 595.7855834960938 C 501.2989196777344 595.2249145507812 500.15301513671875 594.8594970703125 501.5685729980469 595.4803466796875 C 502.3629455566406 594.9945678710938 500.37420654296875 595.6843872070312 502.69036865234375 595.667236328125 C 501.2371520996094 597.4470825195312 502.5643615722656 595.8550415039062 502.6361999511719 595.7710571289062" stroke-width="0.0" fill="rgb(255, 255, 255)" opacity="0.8072022"/>
    <path d="M 559.5336303710938 399.8747863769531 C 560.5361938476562 396.85565185546875 561.1995239257812 397.4518737792969 563.441162109375 399.9720153808594 C 565.01953125 398.884033203125 563.8418579101562 400.148681640625 561.4385375976562 399.9932861328125 C 560.6381225585938 399.7154235839844 558.2321166992188 400.1655578613281 556.9348754882812 399.3606262207031 C 557.1028442382812 398.493408203125 555.0391235351562 398.0721435546875 559.5336303710938 399.8747863769531" stroke-width="0.0" fill="rgb(255, 255, 255)" opacity="0.77804345"/>
    <path d="M 579.3731079101562 372.8494873046875 C 581.3483276367188 374.496826171875 579.3827514648438 375.7313232421875 577.8695678710938 374.6527099609375 C 577.8123168945312 374.14617919921875 577.9019165039062 372.2838134765625 577.9786376953125 372.9701232910156 C 578.9293823242188 372.6797180175781 578.3013916015625 372.8348388671875 577.7666625976562 373.1618957519531 C 579.8079833984375 372.52850341796875 577.8126831054688 373.5514221191406 579.3731079101562 372.8494873046875" stroke-width="0.0" fill="rgb(255, 255, 255)" opacity="0.779697"/>
    <path d="M 361.1297302246094 571.5176391601562 C 360.47833251953125 572.8190307617188 358.1006164550781 572.8388061523438 359.3172607421875 575.10986328125 C 358.4803466796875 574.8442993164062 357.57110595703125 574.8491821289062 358.07110595703125 576.1094360351562 C 357.2005615234375 577.1195678710938 359.3149108886719 579.2551879882812 361.2005920410156 580.1948852539062 C 361.9346008300781 581.2665405273438 360.330322265625 580.1290893554688 361.1297302246094 571.5176391601562" stroke-width="0.0" fill="rgb(255, 255, 255)" opacity="0.65387887"/>
    <path d="M -1.178755283355713 42.828304290771484 C 0.38080593943595886 42.053104400634766 -0.414646178483963 42.74715042114258 -2.119335889816284 42.51581954956055 C -3.263382911682129 41.95875930786133 -0.7451582551002502 40.369266510009766 0.516867995262146 41.926761627197266 C -0.308912992477417 40.96446990966797 -0.06919105350971222 40.445255279541016 0.32806396484375 41.28445053100586 C -0.37854018807411194 43.14993667602539 -0.3473011255264282 44.478790283203125 -1.178755283355713 42.828304290771484" stroke-width="0.0" fill="rgb(255, 255, 255)" opacity="0.84232044"/>
    <path d="M 568.8270263671875 447.7040710449219 C 566.04296875 449.549072265625 567.9278564453125 451.7322082519531 565.5538330078125 450.9869384765625 C 563.6500854492188 451.9259338378906 564.2794189453125 451.46026611328125 565.458251953125 451.0041809082031 C 566.6516723632812 451.39849853515625 568.4923706054688 449.87567138671875 566.662109375 450.7401123046875 C 568.7108764648438 448.7195129394531 569.52099609375 450.487060546875 568.8270263671875 447.7040710449219" stroke-width="0.0" fill="rgb(255, 255, 255)" opacity="0.7915348"/>
    <path d="M 370.9988098144531 579.7808837890625 C 369.2461853027344 581.2269897460938 366.6192321777344 583.2438354492188 368.6229553222656 584.2343139648438 C 369.5271911621094 581.7630615234375 371.9764404296875 582.8115844726562 372.3885803222656 584.0990600585938 C 375.4154968261719 583.7515869140625 373.68896484375 584.816650390625 375.591796875 583.072998046875 C 377.152587890625 582.9957885742188 374.8919982910156 580.3469848632812 370.9988098144531 579.7808837890625" stroke-width="0.0" fill="rgb(255, 255, 255)" opacity="0.6406547"/>
    <path d="M 22.814579010009766 377.03546142578125 C 21.09935760498047 375.01824951171875 23.680376052856445 377.6449279785156 25.299062728881836 374.13787841796875 C 24.523996353149414 373.7967224121094 25.82395362854004 374.7107849121094 28.064546585083008 373.77056884765625 C 28.246456146240234 373.21588134765625 28.614582061767578 374.7745361328125 27.790542602539062 373.6761169433594 C 30.39649772644043 374.26666259765625 28.989410400390625 375.48529052734375 22.814579010009766 377.03546142578125" stroke-width="0.0" fill="rgb(255, 255, 255)" opacity="0.6958331"/>
    <path d="M 48.03633117675781 596.002685546875 C 47.61917495727539 597.9857177734375 49.55580520629883 596.3574829101562 48.414459228515625 597.4171752929688 C 48.99431610107422 595.9142456054688 50.877662658691406 595.0428466796875 51.773475646972656 595.3844604492188 C 52.81108474731445 595.3807373046875 52.46499252319336 595.2725830078125 49.87979507446289 595.63916015625 C 49.95206832885742 596.9209594726562 51.621768951416016 595.8768920898438 48.03633117675781 596.002685546875" stroke-width="0.0" fill="rgb(255, 255, 255)" opacity="0.81438863"/>
    <path d="M 574.6094970703125 553.6986083984375 C 576.0839233398438 552.1912231445312 576.1858520507812 551.3163452148438 576.2850952148438 552.7400512695312 C 575.157958984375 550.6775512695312 574.0563354492188 549.7364501953125 573.1775512695312 548.7896118164062 C 574.7761840820312 550.2568359375 575.4735107421875 551.6597290039062 576.6676025390625 552.9802856445312 C 575.6414184570312 551.2664184570312 575.0062255859375 553.6023559570312 574.6094970703125 553.6986083984375" stroke-width="0.0" fill="rgb(255, 255, 255)" opacity="0.7915857"/>
    <path d="M 555.5783081054688 553.1768798828125 C 559.244873046875 552.7060546875 557.5888061523438 553.9950561523438 556.8897094726562 552.5423583984375 C 554.78564453125 549.7023315429688 554.0672607421875 551.0347900390625 555.0187377929688 549.9945068359375 C 554.2734375 547.7301025390625 552.1927490234375 547.760986328125 551.6585083007812 547.9061279296875 C 549.426025390625 547.7295532226562 547.5185546875 549.5866088867188 555.5783081054688 553.1768798828125" stroke-width="0.0" fill="rgb(255, 255, 255)" opacity="0.6463655"/>
    <path d="M 503.1087341308594 584.0904541015625 C 502.7620849609375 582.477783203125 503.3027038574219 580.8301391601562 502.8023681640625 579.4510498046875 C 504.0050048828125 581.123779296875 506.4043884277344 581.1454467773438 504.6209411621094 582.0939331054688 C 505.064697265625 582.9033813476562 504.38720703125 581.6502685546875 506.8853454589844 579.45947265625 C 506.96600341796875 581.3803100585938 507.8535461425781 584.398681640625 503.1087341308594 584.0904541015625" stroke-width="0.0" fill="rgb(255, 255, 255)" opacity="0.6830579"/>
    <path d="M 16.901111602783203 318.73577880859375 C 16.655719757080078 316.96685791015625 17.044754028320312 316.9305725097656 16.91292953491211 318.4045104980469 C 18.55744743347168 319.58709716796875 18.47898292541504 321.7099609375 21.215456008911133 318.198486328125 C 21.352415084838867 317.8874206542969 18.958105087280273 317.82330322265625 19.96957778930664 318.4833984375 C 20.379758834838867 319.11920166015625 18.223100662231445 319.13494873046875 16.901111602783203 318.73577880859375" stroke-width="0.0" fill="rgb(255, 255, 255)" opacity="0.73723257"/>
    <path d="M 585.0401611328125 408.43450927734375 C 584.7881469726562 409.442626953125 584.7788696289062 410.3566589355469 584.5040283203125 411.6770324707031 C 584.3416137695312 412.1744689941406 585.7266235351562 412.2984924316406 584.9171142578125 415.38909912109375 C 585.0191650390625 414.1754150390625 585.1182250976562 416.4884338378906 585.1566162109375 416.17193603515625 C 582.8976440429688 415.615966796875 584.1683959960938 417.21063232421875 585.0401611328125 408.43450927734375" stroke-width="0.0" fill="rgb(255, 255, 255)" opacity="0.68799675"/>
    <path d="M 591.1232299804688 351.9579772949219 C 589.29345703125 350.14520263671875 587.9093017578125 350.5946960449219 587.6127319335938 351.8913879394531 C 587.8314819335938 349.748046875 589.2012329101562 349.1781311035156 589.0852661132812 349.7926025390625 C 588.5904541015625 349.90032958984375 587.4996948242188 349.62957763671875 586.1030883789062 347.90301513671875 C 586.8846435546875 348.1996765136719 585.7075805664062 348.12237548828125 591.1232299804688 351.9579772949219" stroke-width="0.0" fill="rgb(255, 255, 255)" opacity="0.74476194"/>
    <path d="M 78.83759307861328 586.653076171875 C 79.173828125 586.3331909179688 80.948486328125 585.4298095703125 79.32902526855469 586.4553833007812 C 79.71333312988281 586.709228515625 77.12464141845703 586.2362060546875 76.55799865722656 585.83056640625 C 76.5717544555664 585.9824829101562 76.32144927978516 585.9523315429688 75.16014862060547 586.0011596679688 C 74.15160369873047 586.4515991210938 76.02387237548828 585.5203857421875 78.83759307861328 586.653076171875" stroke-width="0.0" fill="rgb(255, 255, 255)" opacity="0.77999157"/>
    <path d="M 499.8340759277344 557.4180908203125 C 502.1153564453125 554.971923828125 503.9364318847656 555.61181640625 502.7734069824219 558.43310546875 C 504.68341064453125 559.9779052734375 504.487548828125 561.4505615234375 505.48138427734375 558.5875244140625 C 506.246826171875 560.624755859375 507.3996276855469 561.4231567382812 506.13323974609375 559.930908203125 C 506.0609130859375 563.4854736328125 504.8874816894531 562.8113403320312 499.8340759277344 557.4180908203125" stroke-width="0.0" fill="rgb(255, 255, 255)" opacity="0.6437958"/>
    <path d="M 301.5633544921875 593.6454467773438 C 299.32049560546875 592.8743896484375 299.6867980957031 591.6329956054688 300.5181884765625 591.9892578125 C 302.2496032714844 593.7202758789062 303.24005126953125 594.8915405273438 303.2704162597656 594.9373779296875 C 302.30645751953125 597.5302734375 301.574951171875 595.115478515625 303.6380920410156 597.7039184570312 C 302.8381042480469 596.3265991210938 303.0093078613281 598.2235107421875 301.5633544921875 593.6454467773438" stroke-width="0.0" fill="rgb(255, 255, 255)" opacity="0.71418333"/>
    <path d="M 582.1188354492188 539.9324951171875 C 583.34228515625 538.00537109375 583.4892578125 536.2774047851562 583.4981689453125 536.927978515625 C 582.0451049804688 536.9077758789062 583.2553100585938 535.3773803710938 583.5737915039062 536.05419921875 C 584.5933837890625 535.47314453125 584.4244995117188 536.8331298828125 584.2589111328125 535.9419555664062 C 584.8995971679688 535.3365478515625 583.8048706054688 536.1347045898438 582.1188354492188 539.9324951171875" stroke-width="0.0" fill="rgb(255, 255, 255)" opacity="0.77766055"/>
    <path d="M 566.329345703125 561.07421875 C 566.8021850585938 560.2789306640625 568.1458740234375 559.7153930664062 569.5861206054688 558.4915771484375 C 571.0421142578125 559.5592651367188 573.8651123046875 560.9937133789062 575.983642578125 562.3587036132812 C 573.805419921875 561.1585083007812 574.3410034179688 561.2363891601562 576.39501953125 559.3365478515625 C 574.25244140625 558.1438598632812 571.3077392578125 556.0924072265625 566.329345703125 561.07421875" stroke-width="0.0" fill="rgb(255, 255, 255)" opacity="0.6441609"/>
    <path d="M 569.4398803710938 582.8438110351562 C 567.5415649414062 582.69580078125 565.6572875976562 581.38427734375 564.6653442382812 584.3164672851562 C 563.5497436523438 583.0645141601562 564.5028686523438 582.7764892578125 562.5216674804688 583.0906372070312 C 561.43798828125 582.373046875 563.0179443359375 583.89501953125 561.8134765625 582.1913452148438 C 562.0369262695312 582.3733520507812 562.092529296875 581.2080688476562 569.4398803710938 582.8438110351562" stroke-width="0.0" fill="rgb(255, 255, 255)" opacity="0.7401222"/>
    <path d="M 594.8836669921875 582.994873046875 C 596.3934936523438 584.8313598632812 596.612548828125 584.1552734375 597.2653198242188 585.97900390625 C 596.5438842773438 585.6927490234375 597.323486328125 588.1275634765625 596.7321166992188 587.7545166015625 C 598.3843994140625 588.5670166015625 598.0595092773438 587.6483154296875 597.7861328125 583.8310546875 C 596.0684204101562 584.424560546875 597.8714599609375 586.1956176757812 594.8836669921875 582.994873046875" stroke-width="0.0" fill="rgb(255, 255, 255)" opacity="0.7651191"/>
    <path d="M 598.9968872070312 547.0031127929688 C 601.3492431640625 549.3381958007812 601.7792358398438 551.1038818359375 603.9512939453125 549.694580078125 C 603.0999145507812 548.4500732421875 601.056640625 549.2112426757812 600.5121459960938 550.7808227539062 C 601.480224609375 548.9310302734375 602.317626953125 547.9037475585938 602.7326049804688 548.992431640625 C 602.9224853515625 550.123046875 602.8724975585938 551.5120239257812 598.9968872070312 547.0031127929688" stroke-width="0.0" fill="rgb(255, 254, 255)" opacity="0.9840343"/>
    <path d="M 598.1069946289062 331.03204345703125 C 595.9917602539062 331.5328674316406 595.926025390625 331.2123107910156 595.0784301757812 333.2447204589844 C 595.3705444335938 332.7566223144531 595.285888671875 331.674560546875 596.7691650390625 331.3523864746094 C 598.1696166992188 331.33563232421875 597.4542846679688 330.8796691894531 598.6181640625 330.6135559082031 C 597.2265014648438 331.3383483886719 595.83544921875 330.7098083496094 598.1069946289062 331.03204345703125" stroke-width="0.0" fill="rgb(255, 255, 255)" opacity="0.8569678"/>
    <path d="M 83.1732177734375 584.8883056640625 C 83.10738372802734 585.3473510742188 84.77599334716797 587.5616455078125 85.13702392578125 588.3001708984375 C 87.36099243164062 587.5179443359375 85.65570068359375 587.8661499023438 86.46369934082031 588.0646362304688 C 84.6764907836914 587.8215942382812 86.11929321289062 589.3126831054688 84.93616485595703 589.0032348632812 C 87.24323272705078 588.4047241210938 85.4476318359375 590.5208740234375 83.1732177734375 584.8883056640625" stroke-width="0.0" fill="rgb(255, 255, 255)" opacity="0.77529746"/>
    <path d="M 4.961307525634766 323.17236328125 C 3.4607644081115723 324.1545715332031 4.112119674682617 323.50299072265625 6.503096580505371 322.935791015625 C 5.05332088470459 324.16143798828125 6.718724250793457 322.8337097167969 8.190295219421387 321.5293273925781 C 6.901206970214844 319.7276916503906 8.63686752319336 318.86053466796875 10.410264015197754 317.2799987792969 C 7.625237464904785 315.96649169921875 10.86143970489502 318.6828308105469 4.961307525634766 323.17236328125" stroke-width="0.0" fill="rgb(255, 255, 255)" opacity="0.65750235"/>
    <path d="M 2.8882362842559814 471.43609619140625 C 6.148819923400879 469.6198425292969 5.401393413543701 466.2625427246094 3.448141574859619 464.8745422363281 C 2.563328742980957 466.3929443359375 0.9405805468559265 467.3152160644531 1.7262097597122192 466.5830383300781 C 2.924299955368042 468.285400390625 1.0204417705535889 469.5079650878906 1.8115894794464111 468.8953552246094 C 3.1105740070343018 468.9689636230469 3.1748814582824707 468.7486572265625 2.8882362842559814 471.43609619140625" stroke-width="0.0" fill="rgb(255, 255, 255)" opacity="0.68766934"/>
    <path d="M 597.0267333984375 386.15716552734375 C 599.039794921875 386.7207946777344 599.2056274414062 386.85577392578125 598.9628295898438 390.1246032714844 C 599.9788208007812 389.2632141113281 602.2355346679688 386.7552795410156 604.4427490234375 387.90057373046875 C 602.9081420898438 385.8145751953125 604.5147705078125 384.39459228515625 604.5640258789062 385.3070983886719 C 604.1679077148438 386.85870361328125 604.7416381835938 388.8457336425781 597.0267333984375 386.15716552734375" stroke-width="0.0" fill="rgb(255, 255, 255)" opacity="0.9054983"/>
    <path d="M 593.1157836914062 363.8789978027344 C 592.6373291015625 366.0144348144531 593.0323486328125 366.37054443359375 595.1853637695312 365.8028259277344 C 594.2811889648438 362.5013122558594 596.7002563476562 362.0999755859375 598.2866821289062 363.6912536621094 C 598.7251586914062 364.5088806152344 600.7416381835938 363.886962890625 603.2476806640625 362.0490417480469 C 600.8862915039062 364.43902587890625 600.7257080078125 364.0340576171875 593.1157836914062 363.8789978027344" stroke-width="0.0" fill="rgb(255, 255, 255)" opacity="0.7625232"/>
    <path d="M 20.167078018188477 449.467529296875 C 18.97753143310547 449.8951721191406 20.780275344848633 448.87652587890625 22.299375534057617 446.94866943359375 C 19.835973739624023 445.57623291015625 20.04630470275879 444.11138916015625 19.878414154052734 442.0773620605469 C 23.280920028686523 441.6970520019531 24.35340118408203 442.5679626464844 23.17755889892578 442.0763854980469 C 23.43621063232422 440.1025390625 25.12915802001953 437.7338562011719 20.167078018188477 449.467529296875" stroke-width="0.0" fill="rgb(255, 255, 255)" opacity="0.65328765"/>
    <path d="M 103.57177734375 597.3308715820312 C 100.76424407958984 597.36474609375 99.90733337402344 595.5718383789062 99.83891296386719 594.8831176757812 C 100.34197235107422 593.703857421875 101.97769927978516 592.146240234375 103.95518493652344 593.16650390625 C 103.05192565917969 593.28125 104.86774444580078 591.912109375 105.12122344970703 594.115234375 C 106.74205780029297 593.6654663085938 109.2037582397461 594.0294189453125 103.57177734375 597.3308715820312" stroke-width="0.0" fill="rgb(255, 255, 255)" opacity="0.67270344"/>
    <path d="M 565.7481689453125 396.9250183105469 C 565.223876953125 397.3993225097656 563.1539916992188 398.0947570800781 561.33837890625 399.1284484863281 C 559.5220336914062 399.688232421875 558.7842407226562 398.0896301269531 556.8912963867188 399.7216491699219 C 554.9063110351562 400.632568359375 556.514404296875 401.49908447265625 555.9759521484375 402.8592224121094 C 556.5709228515625 401.96893310546875 554.8729858398438 401.9859924316406 565.7481689453125 396.9250183105469" stroke-width="0.0" fill="rgb(255, 255, 255)" opacity="0.6807555"/>
    <path d="M 575.7640380859375 587.8631591796875 C 578.095458984375 588.4342041015625 578.4031372070312 588.022216796875 577.9166259765625 585.7545776367188 C 576.0458984375 586.7586669921875 577.4160766601562 583.9122924804688 576.9157104492188 582.23193359375 C 578.8291625976562 581.6738891601562 579.5244140625 581.7205810546875 578.6331787109375 584.9112548828125 C 579.1397705078125 585.6621704101562 580.0562744140625 582.7272338867188 575.7640380859375 587.8631591796875" stroke-width="0.0" fill="rgb(255, 255, 255)" opacity="0.70827764"/>
    <path d="M 556.5868530273438 561.5296020507812 C 557.7760009765625 563.8305053710938 558.373291015625 566.2738037109375 557.7210693359375 568.494140625 C 556.0247192382812 569.214111328125 558.4483032226562 567.360107421875 560.5753784179688 568.1890258789062 C 559.1287231445312 567.1937255859375 560.5740356445312 567.6888427734375 559.9869384765625 566.2399291992188 C 559.12744140625 565.4517822265625 558.3191528320312 565.8829956054688 556.5868530273438 561.5296020507812" stroke-width="0.0" fill="rgb(255, 255, 255)" opacity="0.7398636"/>
  </g>
</svg>
