<?xml version="1.0" ?>
<svg xmlns="http://www.w3.org/2000/svg" version="1.1" width="600" height="600">
  <defs/>
  <g>
    <path d="M 1.183148741722107 355.8744812011719 C 0.538526177406311 353.9730224609375 -0.7083907723426819 352.4398193359375 0.23652273416519165 350.6629333496094 C -1.3539655208587646 351.59490966796875 -1.7532756328582764 350.2669372558594 0.7806412577629089 351.4975280761719 C 1.2217819690704346 352.1315612792969 3.60672664642334 353.30029296875 1.7347279787063599 353.1440124511719 C 1.5354975461959839 351.1712646484375 3.372073173522949 353.28778076171875 1.183148741722107 355.8744812011719" stroke-width="0.0" fill="rgb(254, 254, 254)" opacity="0.99355245"/>
    <path d="M 383.0022888183594 588.944580078125 C 383.5191345214844 588.609619140625 383.5151062011719 590.02587890625 385.9635009765625 588.1997680664062 C 385.1792907714844 589.47900390625 384.9665832519531 588.89892578125 382.58648681640625 590.8563232421875 C 384.7413330078125 591.9218139648438 385.8402099609375 592.5292358398438 385.6642761230469 594.5430297851562 C 385.96282958984375 593.8404541015625 388.33721923828125 594.5470581054688 383.0022888183594 588.944580078125" stroke-width="0.0" fill="rgb(255, 255, 255)" opacity="0.99214864"/>
    <path d="M 19.84817123413086 3.233027696609497 C 20.16733741760254 0.6300341486930847 18.79228973388672 2.9841411113739014 18.189502716064453 4.508697509765625 C 17.88526725769043 3.358044147491455 19.573652267456055 2.104727029800415 21.29868507385254 3.3574719429016113 C 20.93633270263672 2.1442959308624268 20.445972442626953 -0.302521288394928 18.28054428100586 0.6384437680244446 C 18.383756637573242 0.7179388403892517 17.19101333618164 -1.534246802330017 19.84817123413086 3.233027696609497" stroke-width="0.0" fill="rgb(255, 255, 255)" opacity="0.99404716"/>
    <path d="M -0.1395891159772873 368.9623107910156 C 0.6210582256317139 369.0038146972656 -1.0619455575942993 367.03326416015625 -2.561049699783325 364.652587890625 C -3.264561891555786 364.5736083984375 -1.8418060541152954 363.7910461425781 -0.9209893941879272 365.4237976074219 C 0.49651825428009033 362.9576721191406 -0.539249062538147 364.6908874511719 -1.998167872428894 362.36602783203125 C -0.22934769093990326 364.1094970703125 -1.1812751293182373 366.0325927734375 -0.1395891159772873 368.9623107910156" stroke-width="0.0" fill="rgb(255, 255, 255)" opacity="0.998366"/>
    <path d="M 18.194608688354492 367.422119140625 C 17.83648109436035 365.04412841796875 19.000782012939453 362.5961608886719 20.428823471069336 362.9101867675781 C 20.343666076660156 363.3790283203125 20.89389991760254 364.16729736328125 19.03671646118164 366.6551208496094 C 18.828319549560547 364.2123718261719 17.9198055267334 362.649658203125 16.83173370361328 363.2081298828125 C 15.738295555114746 365.4577331542969 14.077749252319336 366.57464599609375 18.194608688354492 367.422119140625" stroke-width="0.0" fill="rgb(255, 255, 255)" opacity="0.9928681"/>
    <path d="M 23.21478843688965 427.7431945800781 C 22.661815643310547 429.4934997558594 25.0869083404541 429.679443359375 27.294923782348633 429.5715637207031 C 28.971485137939453 431.7748718261719 28.39181900024414 432.1856994628906 26.959463119506836 430.8984069824219 C 26.40216827392578 428.61431884765625 25.527870178222656 428.5758056640625 24.32794761657715 426.63397216796875 C 23.115459442138672 427.98974609375 21.199993133544922 426.8223571777344 23.21478843688965 427.7431945800781" stroke-width="0.0" fill="rgb(255, 255, 255)" opacity="0.99310315"/>
    <path d="M 596.282958984375 471.24554443359375 C 598.5526733398438 469.00982666015625 600.65380859375 466.9390563964844 599.0907592773438 467.7661437988281 C 597.67578125 467.0673522949219 597.4740600585938 468.3047180175781 595.4622192382812 468.12261962890625 C 597.70556640625 466.0020751953125 596.53271484375 465.5166015625 596.9258422851562 464.0269775390625 C 599.1807861328125 463.94720458984375 601.6787719726562 463.646484375 596.282958984375 471.24554443359375" stroke-width="0.0" fill="rgb(255, 255, 255)" opacity="0.9922103"/>
    <path d="M 340.6539611816406 569.1655883789062 C 342.3731689453125 568.2350463867188 343.3099365234375 568.2999877929688 342.4126892089844 570.5472412109375 C 341.156982421875 569.4434814453125 340.9837951660156 570.3829345703125 340.1427917480469 572.6002807617188 C 341.535400390625 570.4843139648438 342.9823913574219 572.0839233398438 340.51983642578125 570.4130249023438 C 342.1275939941406 572.5498657226562 341.12103271484375 570.8512573242188 340.6539611816406 569.1655883789062" stroke-width="0.0" fill="rgb(254, 255, 255)" opacity="0.99397814"/>
    <path d="M 286.71575927734375 576.0677490234375 C 286.9075927734375 576.94189453125 285.0118408203125 577.8069458007812 284.6237487792969 579.3540649414062 C 286.07061767578125 579.9910888671875 287.19024658203125 582.4696044921875 288.1172790527344 584.32373046875 C 288.0922546386719 585.8926391601562 289.5805358886719 584.7724609375 287.2123718261719 586.5178833007812 C 287.2150573730469 588.8849487304688 289.3141174316406 589.9523315429688 286.71575927734375 576.0677490234375" stroke-width="0.0" fill="rgb(255, 255, 255)" opacity="0.9919698"/>
    <path d="M 565.1238403320312 467.367919921875 C 562.7799072265625 465.3681335449219 560.54150390625 463.73638916015625 561.873046875 465.39605712890625 C 561.387939453125 467.4162292480469 561.5358276367188 469.36859130859375 560.785888671875 471.6263732910156 C 562.8416137695312 469.7572937011719 563.9579467773438 471.75848388671875 563.7374267578125 470.8600769042969 C 562.7344970703125 471.3255310058594 561.3873291015625 471.8085021972656 565.1238403320312 467.367919921875" stroke-width="0.0" fill="rgb(255, 255, 255)" opacity="0.99273497"/>
    <path d="M 13.400403022766113 29.134294509887695 C 10.77109146118164 26.659515380859375 10.530349731445312 24.572669982910156 8.646401405334473 22.233131408691406 C 7.02006196975708 20.60358238220215 8.407465934753418 21.12661361694336 6.9709978103637695 21.783079147338867 C 8.540203094482422 21.032798767089844 10.54162883758545 18.56074333190918 9.979586601257324 19.85807228088379 C 10.95954704284668 17.838285446166992 13.372259140014648 19.986804962158203 13.400403022766113 29.134294509887695" stroke-width="0.0" fill="rgb(255, 255, 255)" opacity="0.9920481"/>
    <path d="M 594.2550048828125 305.7900695800781 C 595.5262451171875 303.5970153808594 596.7059936523438 302.4453430175781 596.6293334960938 301.3824768066406 C 594.5222778320312 301.4580078125 593.3975830078125 302.8507995605469 592.6312255859375 301.0313415527344 C 591.2620239257812 302.3424377441406 590.3441162109375 303.3008728027344 592.33740234375 301.35443115234375 C 592.1824340820312 299.12652587890625 590.084716796875 300.6492919921875 594.2550048828125 305.7900695800781" stroke-width="0.0" fill="rgb(255, 255, 255)" opacity="0.992626"/>
    <path d="M 305.6348571777344 570.8901977539062 C 306.80426025390625 573.5293579101562 307.9583740234375 572.4033813476562 307.96527099609375 574.0980224609375 C 308.7997131347656 575.4483642578125 306.8045654296875 577.207763671875 305.5409851074219 576.8428955078125 C 307.47064208984375 575.9478149414062 306.6318664550781 576.2879638671875 305.2403564453125 573.9336547851562 C 304.0526123046875 571.349609375 303.0552673339844 573.6882934570312 305.6348571777344 570.8901977539062" stroke-width="0.0" fill="rgb(255, 255, 255)" opacity="0.99290866"/>
    <path d="M 11.892982482910156 373.1594543457031 C 10.81470012664795 373.0570068359375 9.176151275634766 372.8509826660156 8.094339370727539 373.0516662597656 C 7.560691833496094 373.7900695800781 6.215165138244629 371.847412109375 4.646601676940918 372.3330078125 C 3.020872116088867 369.7803039550781 1.8767588138580322 368.7225036621094 3.7176027297973633 366.3121337890625 C 2.994837760925293 366.8714599609375 5.3220648765563965 368.1949157714844 11.892982482910156 373.1594543457031" stroke-width="0.0" fill="rgb(255, 255, 255)" opacity="0.99204844"/>
    <path d="M 598.2958374023438 390.11053466796875 C 596.9974975585938 390.9339904785156 599.0197143554688 392.8559265136719 598.3956298828125 391.8997802734375 C 599.042236328125 392.7662658691406 600.3667602539062 395.16357421875 600.1719970703125 395.013427734375 C 599.5040283203125 392.5980224609375 600.6080932617188 390.4474182128906 599.8755493164062 388.5419616699219 C 599.9019165039062 386.9319763183594 599.2236328125 386.8130798339844 598.2958374023438 390.11053466796875" stroke-width="0.0" fill="rgb(255, 255, 255)" opacity="0.99301636"/>
    <path d="M 573.0144653320312 402.9540710449219 C 573.6719360351562 401.0340881347656 571.9391479492188 403.0650329589844 570.6201782226562 402.6815185546875 C 568.4896850585938 404.5784606933594 571.0532836914062 404.4237365722656 571.4234008789062 402.7987365722656 C 570.8610229492188 400.635986328125 573.1636352539062 402.1813659667969 573.5022583007812 402.890380859375 C 573.923095703125 403.87066650390625 572.6923217773438 405.0606689453125 573.0144653320312 402.9540710449219" stroke-width="0.0" fill="rgb(254, 254, 255)" opacity="0.9938202"/>
    <path d="M 338.3509216308594 588.1392211914062 C 336.08380126953125 590.0579223632812 337.28790283203125 590.2355346679688 339.4332580566406 589.9238891601562 C 341.8878173828125 589.2569580078125 340.9703369140625 591.2671508789062 341.38092041015625 591.240966796875 C 340.20416259765625 591.2911987304688 338.3497314453125 588.861328125 337.8717346191406 590.930908203125 C 338.5763244628906 589.0284423828125 339.38958740234375 587.818359375 338.3509216308594 588.1392211914062" stroke-width="0.0" fill="rgb(254, 254, 255)" opacity="0.99391913"/>
    <path d="M 588.72314453125 447.8756408691406 C 586.6599731445312 449.3186340332031 589.1465454101562 450.65667724609375 588.6249389648438 449.6722106933594 C 587.038330078125 450.38385009765625 585.9530029296875 449.5565185546875 584.1185913085938 450.0929870605469 C 584.1729736328125 451.35382080078125 586.6715698242188 451.3008117675781 588.5498657226562 451.5859375 C 586.7237548828125 453.3116455078125 584.3734741210938 450.86480712890625 588.72314453125 447.8756408691406" stroke-width="0.0" fill="rgb(255, 255, 255)" opacity="0.9927897"/>
    <path d="M 571.825439453125 385.7886657714844 C 573.4009399414062 386.897705078125 572.6582641601562 386.5963439941406 571.6740112304688 387.9371032714844 C 573.75732421875 389.3564758300781 573.7373046875 388.6570129394531 573.9517211914062 388.1991271972656 C 572.8544311523438 388.3340759277344 570.5828247070312 388.1329650878906 568.847900390625 388.787353515625 C 568.1617431640625 386.9981689453125 568.8970336914062 388.4660339355469 571.825439453125 385.7886657714844" stroke-width="0.0" fill="rgb(255, 255, 255)" opacity="0.9927162"/>
    <path d="M 377.2838134765625 571.1103515625 C 376.2181091308594 572.7459716796875 375.01251220703125 574.8153686523438 374.52374267578125 576.2823486328125 C 376.559814453125 576.2718505859375 374.57208251953125 578.6533203125 376.3138732910156 580.8364868164062 C 375.7247619628906 582.656005859375 378.1909484863281 581.21875 375.9339904785156 579.2879638671875 C 375.3788146972656 578.3883666992188 373.53155517578125 578.338623046875 377.2838134765625 571.1103515625" stroke-width="0.0" fill="rgb(255, 255, 255)" opacity="0.99278617"/>
    <path d="M 17.681663513183594 11.140819549560547 C 16.346303939819336 10.064067840576172 17.824928283691406 8.718441009521484 15.669161796569824 10.778306007385254 C 14.487364768981934 12.077346801757812 15.927021980285645 14.346861839294434 13.753145217895508 12.375045776367188 C 13.416386604309082 13.240160942077637 11.739590644836426 15.742746353149414 13.827594757080078 17.420894622802734 C 13.64068603515625 18.275775909423828 11.880416870117188 19.23162269592285 17.681663513183594 11.140819549560547" stroke-width="0.0" fill="rgb(255, 255, 255)" opacity="0.9922881"/>
    <path d="M 590.6909790039062 361.2027893066406 C 590.8875732421875 358.8696594238281 590.4069213867188 357.9619445800781 591.8359375 359.6007385253906 C 593.8077392578125 360.44732666015625 592.9465942382812 361.25665283203125 594.9835205078125 363.3017272949219 C 593.4120483398438 364.99578857421875 594.9620361328125 365.1765441894531 594.4684448242188 365.2188720703125 C 595.6455078125 366.5029296875 593.4793090820312 365.68359375 590.6909790039062 361.2027893066406" stroke-width="0.0" fill="rgb(255, 255, 255)" opacity="0.9937746"/>
    <path d="M 562.1182250976562 594.30078125 C 563.327392578125 593.4484252929688 565.7142944335938 593.6754760742188 566.9620971679688 594.984619140625 C 565.8696899414062 597.05712890625 565.7576293945312 595.0135498046875 567.0663452148438 596.0603637695312 C 567.0792846679688 598.5470581054688 565.675048828125 598.7487182617188 564.3040161132812 597.7994995117188 C 562.984375 598.850341796875 561.6763305664062 597.4291381835938 562.1182250976562 594.30078125" stroke-width="0.0" fill="rgb(255, 255, 255)" opacity="0.9926935"/>
    <path d="M 19.926376342773438 495.9570007324219 C 18.930858612060547 496.64935302734375 19.263324737548828 494.9837341308594 17.097997665405273 495.2571716308594 C 16.623397827148438 493.3275451660156 19.154191970825195 492.3116760253906 21.325054168701172 493.16815185546875 C 19.8427734375 493.8918762207031 21.81629753112793 494.22467041015625 24.04775619506836 494.0324401855469 C 23.46941375732422 493.3292541503906 22.056594848632812 494.3893127441406 19.926376342773438 495.9570007324219" stroke-width="0.0" fill="rgb(255, 255, 255)" opacity="0.99349684"/>
    <path d="M 6.055588722229004 503.90924072265625 C 6.045260906219482 505.3564453125 6.808910846710205 507.6417236328125 4.645019054412842 508.5274658203125 C 4.844199180603027 507.9388732910156 6.514528274536133 508.59332275390625 4.942007541656494 508.14178466796875 C 3.8757355213165283 506.5193786621094 3.70332407951355 504.9433288574219 4.297783374786377 504.8590393066406 C 4.504819393157959 504.8828430175781 6.139560699462891 503.74346923828125 6.055588722229004 503.90924072265625" stroke-width="0.0" fill="rgb(255, 255, 255)" opacity="0.9939679"/>
    <path d="M 28.975284576416016 68.7890396118164 C 30.9122257232666 66.81912231445312 28.96500015258789 64.92134094238281 28.11180305480957 65.58638000488281 C 25.745500564575195 67.20148468017578 27.31543731689453 66.967041015625 29.311403274536133 68.4470443725586 C 29.659753799438477 68.81876373291016 27.541242599487305 68.42535400390625 26.999935150146484 68.6170425415039 C 26.943506240844727 67.15286254882812 25.29412269592285 65.9687728881836 28.975284576416016 68.7890396118164" stroke-width="0.0" fill="rgb(255, 255, 255)" opacity="0.9927756"/>
    <path d="M 259.1927795410156 586.866455078125 C 261.16485595703125 587.4202270507812 259.9242248535156 586.4572143554688 258.57916259765625 585.1640014648438 C 260.99188232421875 587.6103515625 259.20458984375 589.0174560546875 261.3202209472656 586.816650390625 C 261.22882080078125 585.8272705078125 262.8226318359375 584.2532348632812 263.83251953125 585.7145385742188 C 263.9607849121094 583.6868286132812 263.5243835449219 583.111083984375 259.1927795410156 586.866455078125" stroke-width="0.0" fill="rgb(255, 255, 255)" opacity="0.9930842"/>
    <path d="M 589.0825805664062 432.0864562988281 C 590.8032836914062 429.98101806640625 592.935546875 428.89495849609375 593.2739868164062 429.41229248046875 C 592.0923461914062 430.3806457519531 592.2394409179688 429.9986877441406 590.1481323242188 429.93603515625 C 591.7212524414062 429.1544494628906 594.127685546875 429.54840087890625 592.3297729492188 428.65618896484375 C 594.0237426757812 426.2281799316406 596.1312866210938 424.50457763671875 589.0825805664062 432.0864562988281" stroke-width="0.0" fill="rgb(255, 255, 255)" opacity="0.99517286"/>
    <path d="M 17.988073348999023 380.2132873535156 C 17.473356246948242 378.78863525390625 18.52054214477539 380.60491943359375 18.782346725463867 381.0816345214844 C 18.18843650817871 379.1002502441406 18.46022605895996 379.81768798828125 18.8062744140625 381.0653991699219 C 21.145343780517578 382.6470947265625 20.754880905151367 381.7242431640625 21.10723114013672 381.5566711425781 C 20.788230895996094 379.3085021972656 22.28470802307129 379.8287048339844 17.988073348999023 380.2132873535156" stroke-width="0.0" fill="rgb(254, 254, 255)" opacity="0.9938202"/>
    <path d="M 4.949753284454346 500.0077209472656 C 4.554600715637207 499.52679443359375 6.020257472991943 501.7054443359375 7.650942325592041 499.73101806640625 C 9.710400581359863 500.1823425292969 9.231302261352539 501.01025390625 10.577581405639648 502.415771484375 C 8.577203750610352 501.0016174316406 7.313931465148926 502.97772216796875 8.674501419067383 504.734619140625 C 10.988168716430664 505.20916748046875 8.644050598144531 504.96630859375 4.949753284454346 500.0077209472656" stroke-width="0.0" fill="rgb(255, 255, 255)" opacity="0.9935012"/>
    <path d="M 502.2673034667969 565.9182739257812 C 502.2483825683594 568.121337890625 503.8133239746094 569.4189453125 504.30364990234375 569.3032836914062 C 505.8258972167969 569.3590698242188 507.54180908203125 567.9737548828125 504.95635986328125 570.0853881835938 C 505.1056213378906 571.651123046875 505.4706726074219 570.2959594726562 506.01104736328125 572.764404296875 C 504.4735412597656 574.542236328125 504.1126708984375 573.7064819335938 502.2673034667969 565.9182739257812" stroke-width="0.0" fill="rgb(255, 255, 255)" opacity="0.9925794"/>
    <path d="M 10.106344223022461 421.9066162109375 C 10.642109870910645 419.9805603027344 8.124650001525879 420.10455322265625 8.373964309692383 418.7365417480469 C 9.13124942779541 419.4336853027344 7.285610198974609 417.1548156738281 9.722623825073242 419.1155090332031 C 11.182817459106445 418.79608154296875 10.360097885131836 421.31134033203125 12.023850440979004 419.13958740234375 C 10.682891845703125 419.03021240234375 10.8487548828125 418.626953125 10.106344223022461 421.9066162109375" stroke-width="0.0" fill="rgb(255, 255, 255)" opacity="0.9936089"/>
    <path d="M 542.4644165039062 594.3939208984375 C 543.2661743164062 594.6705322265625 545.2466430664062 593.6455078125 546.1151123046875 592.7998046875 C 547.138671875 590.2163696289062 549.12646484375 587.9481811523438 549.9683227539062 589.61962890625 C 550.7874755859375 587.4221801757812 551.3587646484375 585.50048828125 552.6431884765625 584.7246704101562 C 553.36376953125 586.5245361328125 552.66845703125 587.1771240234375 542.4644165039062 594.3939208984375" stroke-width="0.0" fill="rgb(255, 255, 255)" opacity="0.991744"/>
    <path d="M 278.87060546875 593.794189453125 C 279.996337890625 592.7339477539062 279.750732421875 593.43603515625 280.3708801269531 593.7286376953125 C 282.13641357421875 596.3555297851562 280.8638000488281 594.0071411132812 279.5799560546875 593.9241943359375 C 277.9173583984375 594.3775024414062 275.9524841308594 596.6240234375 277.35870361328125 595.30517578125 C 275.3003234863281 595.6988525390625 273.3460998535156 597.48974609375 278.87060546875 593.794189453125" stroke-width="0.0" fill="rgb(254, 255, 255)" opacity="0.99576974"/>
    <path d="M 543.2517700195312 583.6782836914062 C 540.8082275390625 581.69189453125 541.2110595703125 579.6828002929688 542.8541870117188 578.4387817382812 C 540.5322265625 579.5850830078125 542.8890380859375 580.7213134765625 540.5074462890625 580.7943115234375 C 540.2742919921875 582.5234985351562 540.5068359375 582.48876953125 541.3532104492188 581.8192138671875 C 541.8018798828125 579.7301635742188 542.7516479492188 577.5415649414062 543.2517700195312 583.6782836914062" stroke-width="0.0" fill="rgb(255, 255, 255)" opacity="0.99354845"/>
    <path d="M 568.7071533203125 339.6427001953125 C 568.091796875 339.4891357421875 566.4780883789062 338.7173767089844 568.0555419921875 340.36370849609375 C 566.8645629882812 340.4025573730469 564.5989379882812 342.4199523925781 564.1000366210938 342.3921813964844 C 562.5523681640625 341.7652587890625 562.4732055664062 342.5246276855469 561.4918212890625 340.67633056640625 C 559.8394165039062 342.3201599121094 558.814453125 342.44921875 568.7071533203125 339.6427001953125" stroke-width="0.0" fill="rgb(255, 255, 255)" opacity="0.99299616"/>
    <path d="M 566.6054077148438 451.8272399902344 C 567.4727783203125 449.5859680175781 569.3508911132812 447.70623779296875 568.5737915039062 448.15673828125 C 570.3184814453125 450.7444763183594 570.9295043945312 452.06500244140625 570.38427734375 451.0102233886719 C 568.5625610351562 452.3049011230469 568.0477294921875 454.3540954589844 567.4037475585938 455.0762023925781 C 568.0863647460938 454.5911865234375 570.129150390625 453.6236267089844 566.6054077148438 451.8272399902344" stroke-width="0.0" fill="rgb(255, 255, 255)" opacity="0.9930058"/>
    <path d="M 585.0135498046875 493.00262451171875 C 584.0647583007812 491.5194396972656 583.6577758789062 490.4058837890625 584.4822387695312 489.190185546875 C 582.5578002929688 487.9813537597656 584.98291015625 489.79168701171875 585.1039428710938 490.9288024902344 C 583.2635498046875 489.512451171875 582.83056640625 489.21148681640625 582.4581909179688 490.1558532714844 C 583.0760498046875 489.9008483886719 581.5325927734375 488.30853271484375 585.0135498046875 493.00262451171875" stroke-width="0.0" fill="rgb(254, 254, 254)" opacity="0.9947199"/>
    <path d="M 253.06411743164062 575.9171752929688 C 253.41012573242188 574.7196655273438 252.00892639160156 574.8236083984375 250.86607360839844 575.233154296875 C 248.51976013183594 574.1054077148438 248.864990234375 573.5758056640625 251.0446319580078 574.0134887695312 C 251.66783142089844 571.992919921875 249.3320770263672 570.1832885742188 246.72662353515625 571.2132568359375 C 244.5572052001953 573.4613037109375 247.0508575439453 573.3732299804688 253.06411743164062 575.9171752929688" stroke-width="0.0" fill="rgb(255, 255, 255)" opacity="0.99290174"/>
    <path d="M 298.3719177246094 580.331298828125 C 296.9080810546875 578.7402954101562 295.0281677246094 579.23876953125 295.7484130859375 578.50048828125 C 297.9328308105469 576.5651245117188 300.1671447753906 576.212646484375 301.0513916015625 577.915283203125 C 300.6100158691406 579.2868041992188 303.0989685058594 576.7822265625 304.535400390625 576.7867431640625 C 305.71136474609375 574.6664428710938 305.71453857421875 572.3964233398438 298.3719177246094 580.331298828125" stroke-width="0.0" fill="rgb(255, 255, 255)" opacity="0.99244314"/>
    <path d="M 584.2666625976562 382.37506103515625 C 584.9518432617188 383.4588623046875 585.0576782226562 383.4847412109375 585.0288696289062 385.31671142578125 C 583.2061767578125 383.58026123046875 581.9816284179688 384.1500244140625 580.2349243164062 382.861328125 C 581.079345703125 384.0089111328125 581.4725952148438 383.02880859375 582.2904052734375 385.2258605957031 C 582.9104614257812 384.9701843261719 581.61279296875 385.2511291503906 584.2666625976562 382.37506103515625" stroke-width="0.0" fill="rgb(254, 255, 255)" opacity="0.99327713"/>
    <path d="M 21.99943733215332 357.8374938964844 C 21.169105529785156 356.7359313964844 19.373624801635742 358.626708984375 21.861305236816406 360.3291320800781 C 21.951309204101562 360.2967224121094 23.580963134765625 359.7362365722656 23.373859405517578 361.07958984375 C 22.15843963623047 362.6835632324219 22.46544075012207 361.4689025878906 24.952407836914062 360.3139343261719 C 24.553783416748047 358.89398193359375 26.786556243896484 359.57794189453125 21.99943733215332 357.8374938964844" stroke-width="0.0" fill="rgb(255, 255, 255)" opacity="0.99267673"/>
    <path d="M 595.664306640625 400.1134033203125 C 597.421875 402.27911376953125 595.034912109375 404.1963195800781 593.7015380859375 402.28265380859375 C 595.1370239257812 402.36077880859375 592.9331665039062 400.655029296875 591.709716796875 399.1928405761719 C 590.7522583007812 398.1065368652344 592.6564331054688 399.3795471191406 591.6132202148438 401.3203125 C 590.4238891601562 401.9661560058594 592.064697265625 404.31890869140625 595.664306640625 400.1134033203125" stroke-width="0.0" fill="rgb(255, 255, 255)" opacity="0.99226815"/>
    <path d="M 583.9978637695312 361.01513671875 C 585.039794921875 360.4658508300781 582.6517944335938 360.7516174316406 583.1992797851562 360.4989929199219 C 583.6611328125 361.7646789550781 584.7046508789062 363.1921081542969 584.2920532226562 360.7743835449219 C 582.088134765625 358.8298034667969 581.8836059570312 357.19775390625 581.0452270507812 358.69580078125 C 578.931396484375 361.0035705566406 578.065185546875 362.3057556152344 583.9978637695312 361.01513671875" stroke-width="0.0" fill="rgb(254, 255, 255)" opacity="0.99404633"/>
    <path d="M 333.89862060546875 590.0296630859375 C 333.04656982421875 588.5403442382812 334.8961486816406 589.9464111328125 333.97882080078125 587.891845703125 C 332.7469177246094 588.054931640625 333.0902404785156 586.132080078125 334.28857421875 586.4628295898438 C 336.2916564941406 588.0392456054688 335.9968566894531 585.7061157226562 334.10955810546875 586.640869140625 C 332.46929931640625 587.0609130859375 333.2071838378906 589.03662109375 333.89862060546875 590.0296630859375" stroke-width="0.0" fill="rgb(254, 255, 255)" opacity="0.99518985"/>
    <path d="M 534.0782470703125 582.7144775390625 C 531.6715087890625 581.65283203125 530.5791625976562 579.2915649414062 531.4482421875 579.1998901367188 C 533.5814819335938 577.1920776367188 532.4000854492188 576.4987182617188 529.9511108398438 576.1025390625 C 527.6957397460938 574.4560546875 527.1923217773438 574.7471313476562 525.8034057617188 576.3186645507812 C 526.2410278320312 578.0908203125 524.2310791015625 578.278564453125 534.0782470703125 582.7144775390625" stroke-width="0.0" fill="rgb(255, 255, 255)" opacity="0.9922202"/>
    <path d="M 513.1350708007812 566.1624755859375 C 515.4146118164062 567.4952392578125 517.3123168945312 568.9450073242188 519.521240234375 567.195556640625 C 519.3070678710938 565.1008911132812 519.9334716796875 562.8086547851562 518.7756958007812 563.0309448242188 C 519.1302490234375 564.0631713867188 521.4204711914062 563.8916015625 520.6704711914062 564.4913940429688 C 521.8047485351562 565.8751220703125 519.4998168945312 568.3814697265625 513.1350708007812 566.1624755859375" stroke-width="0.0" fill="rgb(255, 255, 255)" opacity="0.99218434"/>
    <path d="M 569.6431884765625 485.828125 C 568.7704467773438 487.14166259765625 567.6503295898438 487.8786926269531 567.3914794921875 489.4384460449219 C 569.3944702148438 489.10980224609375 567.3148193359375 487.4051513671875 568.5955200195312 487.4280700683594 C 570.5675659179688 487.4985046386719 571.781005859375 488.7056884765625 570.7490234375 489.304443359375 C 572.7478637695312 488.8235778808594 570.3430786132812 490.78717041015625 569.6431884765625 485.828125" stroke-width="0.0" fill="rgb(254, 254, 255)" opacity="0.99355793"/>
    <path d="M 27.153066635131836 374.037841796875 C 27.978626251220703 375.2158203125 26.293560028076172 376.7484436035156 27.76665687561035 375.08941650390625 C 25.55268669128418 372.713134765625 23.993793487548828 373.7247619628906 24.161863327026367 374.7936096191406 C 24.255746841430664 375.7222900390625 25.977598190307617 374.0119323730469 27.563419342041016 376.2778625488281 C 25.50523567199707 378.8759460449219 27.25286293029785 377.10894775390625 27.153066635131836 374.037841796875" stroke-width="0.0" fill="rgb(254, 254, 255)" opacity="0.9947546"/>
    <path d="M 570.9808349609375 357.9716491699219 C 572.5653076171875 356.5650939941406 573.0458984375 355.52545166015625 571.4605712890625 356.008056640625 C 569.233154296875 358.4828796386719 567.1888427734375 357.56427001953125 567.405029296875 358.49468994140625 C 567.3070068359375 356.9810791015625 566.3182373046875 358.21295166015625 567.6185302734375 359.4082946777344 C 567.6903686523438 357.4664306640625 569.481689453125 357.0030212402344 570.9808349609375 357.9716491699219" stroke-width="0.0" fill="rgb(255, 255, 255)" opacity="0.9934942"/>
    <path d="M 322.7839050292969 577.832275390625 C 320.58306884765625 579.3297729492188 321.17877197265625 577.2879028320312 321.5597229003906 577.5452270507812 C 320.6973571777344 579.445556640625 322.0500183105469 579.69482421875 320.1190490722656 578.6256103515625 C 321.8054504394531 576.6289672851562 321.9833068847656 577.5518188476562 320.2478942871094 579.3043212890625 C 321.2204895019531 579.719482421875 318.6586608886719 581.3217163085938 322.7839050292969 577.832275390625" stroke-width="0.0" fill="rgb(254, 254, 255)" opacity="0.99406093"/>
    <path d="M 531.9608154296875 577.9951171875 C 530.0508422851562 579.6036987304688 528.9491577148438 581.1758422851562 528.2868041992188 583.039794921875 C 529.2587280273438 582.1590576171875 528.9301147460938 581.2967529296875 530.0255737304688 583.6004638671875 C 529.0249633789062 581.3370361328125 526.659423828125 581.7007446289062 528.571533203125 583.2192993164062 C 529.9244384765625 583.522705078125 527.91455078125 584.4818725585938 531.9608154296875 577.9951171875" stroke-width="0.0" fill="rgb(254, 255, 255)" opacity="0.9957607"/>
    <path d="M 66.06651306152344 590.9714965820312 C 68.03130340576172 590.5247192382812 66.10151672363281 590.3488159179688 67.6264419555664 588.4735717773438 C 66.2225112915039 587.4696044921875 67.86405181884766 588.8277587890625 69.92123413085938 590.155029296875 C 69.24945831298828 590.3089599609375 69.4274673461914 588.7163696289062 68.06790924072266 590.3860473632812 C 68.1435775756836 588.7257080078125 67.22563171386719 590.67919921875 66.06651306152344 590.9714965820312" stroke-width="0.0" fill="rgb(255, 255, 255)" opacity="0.9946043"/>
    <path d="M 597.0252075195312 534.9828491210938 C 597.1414794921875 535.0906982421875 595.8215942382812 533.8521728515625 594.3180541992188 532.7434692382812 C 595.2702026367188 532.724365234375 595.9508666992188 531.2976684570312 596.6051635742188 531.517822265625 C 595.8531494140625 532.4581298828125 595.2630004882812 532.3102416992188 596.3070068359375 530.6075439453125 C 593.891357421875 528.940673828125 596.2105102539062 529.5362548828125 597.0252075195312 534.9828491210938" stroke-width="0.0" fill="rgb(255, 255, 255)" opacity="0.9931544"/>
    <path d="M 2.1178746223449707 312.0663146972656 C 1.3985240459442139 314.2430725097656 -0.5353630781173706 316.5762939453125 -0.8384777307510376 318.6244201660156 C -2.9768762588500977 320.6766052246094 -4.6391425132751465 319.31768798828125 -6.611676216125488 321.0465393066406 C -4.227212429046631 320.48291015625 -3.8808486461639404 320.85748291015625 -5.089193344116211 320.654052734375 C -5.888657093048096 322.078369140625 -5.523549556732178 321.8572692871094 2.1178746223449707 312.0663146972656" stroke-width="0.0" fill="rgb(255, 255, 254)" opacity="0.9957607"/>
    <path d="M 343.5597839355469 568.6405029296875 C 344.9615783691406 567.712158203125 345.991943359375 565.726806640625 347.311279296875 564.5104370117188 C 347.8491516113281 564.5848999023438 346.5481872558594 563.7747192382812 347.67340087890625 564.2711181640625 C 348.1722106933594 564.3635864257812 347.545654296875 562.15283203125 348.58648681640625 560.7113037109375 C 350.7685241699219 558.4125366210938 352.2214660644531 556.55419921875 343.5597839355469 568.6405029296875" stroke-width="0.0" fill="rgb(254, 255, 255)" opacity="0.9930755"/>
    <path d="M 313.8146057128906 597.2610473632812 C 312.5869140625 596.711669921875 310.2158203125 594.8305053710938 310.24542236328125 596.209228515625 C 309.99273681640625 593.7760009765625 310.4034118652344 592.6121215820312 312.27447509765625 593.0287475585938 C 313.8564758300781 590.810546875 312.8800964355469 589.7459716796875 314.5302429199219 592.0398559570312 C 315.892333984375 593.3153076171875 314.9884338378906 593.9917602539062 313.8146057128906 597.2610473632812" stroke-width="0.0" fill="rgb(255, 255, 255)" opacity="0.99299943"/>
    <path d="M 5.194652080535889 50.27265167236328 C 7.42748498916626 48.45997619628906 8.920755386352539 49.16096878051758 7.964723587036133 50.80985641479492 C 9.003084182739258 51.225250244140625 9.555011749267578 52.11056137084961 11.295068740844727 52.39598846435547 C 12.821816444396973 53.72161102294922 12.849980354309082 51.71992492675781 14.402257919311523 49.45827102661133 C 14.688156127929688 47.54983901977539 14.049835205078125 49.62038803100586 5.194652080535889 50.27265167236328" stroke-width="0.0" fill="rgb(65, 66, 66)" opacity="0.9910677"/>
    <path d="M 6.071578502655029 381.076416015625 C 7.7309699058532715 382.99420166015625 5.605145454406738 384.4873962402344 3.9518840312957764 386.8162841796875 C 3.1759564876556396 388.9945068359375 1.1655259132385254 387.5184631347656 1.9602572917938232 387.2442321777344 C 4.430266380310059 385.4920959472656 4.279979705810547 383.393310546875 3.2703394889831543 381.8518981933594 C 5.074716091156006 383.9722595214844 6.240921974182129 383.6320495605469 6.071578502655029 381.076416015625" stroke-width="0.0" fill="rgb(255, 255, 255)" opacity="0.9925065"/>
    <path d="M 542.2024536132812 567.7910766601562 C 539.8806762695312 566.5369873046875 540.4431762695312 565.86767578125 541.4780883789062 568.0244140625 C 542.1380004882812 567.2594604492188 544.3008422851562 565.5288696289062 542.8200073242188 564.1256713867188 C 543.5776977539062 563.214599609375 541.7214965820312 564.49267578125 539.6854858398438 566.1942138671875 C 537.5779418945312 567.5051879882812 536.395263671875 568.5316162109375 542.2024536132812 567.7910766601562" stroke-width="0.0" fill="rgb(255, 255, 255)" opacity="0.9928212"/>
    <path d="M 574.0130004882812 528.1309814453125 C 573.7677001953125 529.055419921875 574.4075927734375 529.2476196289062 571.861083984375 531.038818359375 C 569.7581176757812 532.833984375 572.1197509765625 534.9531860351562 574.078125 535.7496337890625 C 574.4451904296875 535.3116455078125 575.4786987304688 536.0477294921875 577.4777221679688 537.1572265625 C 579.529541015625 539.5831298828125 578.4134521484375 537.3385009765625 574.0130004882812 528.1309814453125" stroke-width="0.0" fill="rgb(255, 255, 255)" opacity="0.99163115"/>
    <path d="M 526.1499633789062 564.0133056640625 C 525.9417114257812 564.3496704101562 524.8599243164062 563.1703491210938 526.15576171875 564.03466796875 C 523.9483642578125 563.0451049804688 524.83056640625 563.9255981445312 523.15478515625 564.869140625 C 524.2349853515625 564.07421875 525.7953491210938 562.439453125 525.4756469726562 562.5172119140625 C 527.5020751953125 564.1769409179688 525.3052368164062 562.494384765625 526.1499633789062 564.0133056640625" stroke-width="0.0" fill="rgb(254, 254, 255)" opacity="0.99836373"/>
    <path d="M 14.904004096984863 393.9704284667969 C 17.032485961914062 393.902587890625 16.283174514770508 394.48748779296875 14.02198314666748 394.77935791015625 C 11.596734046936035 397.01068115234375 9.813435554504395 395.1336975097656 12.346242904663086 393.1662292480469 C 14.737396240234375 394.5446472167969 15.55188274383545 392.5838317871094 17.763879776000977 393.0105895996094 C 19.153100967407227 393.1104431152344 17.130115509033203 395.6190490722656 14.904004096984863 393.9704284667969" stroke-width="0.0" fill="rgb(255, 255, 255)" opacity="0.9925428"/>
    <path d="M 591.62939453125 585.2218017578125 C 591.4583129882812 582.4616088867188 589.447265625 580.8980102539062 588.2306518554688 579.3314208984375 C 586.709716796875 579.65283203125 586.8703002929688 578.5440673828125 586.7921142578125 576.1786499023438 C 587.0511474609375 575.5907592773438 588.1215209960938 575.4205322265625 587.3076171875 574.4701538085938 C 586.8167114257812 576.81689453125 586.6502685546875 574.798095703125 591.62939453125 585.2218017578125" stroke-width="0.0" fill="rgb(255, 255, 255)" opacity="0.99274015"/>
    <path d="M 579.7890625 356.7682800292969 C 580.5958862304688 358.41717529296875 583.0546875 360.2467956542969 585.44970703125 361.48638916015625 C 584.8521728515625 361.0009765625 585.208251953125 363.30560302734375 582.8263549804688 362.8661193847656 C 580.40234375 362.4340515136719 581.5195922851562 361.16790771484375 580.670654296875 360.19189453125 C 582.7598266601562 358.42498779296875 583.7359619140625 356.73681640625 579.7890625 356.7682800292969" stroke-width="0.0" fill="rgb(255, 255, 255)" opacity="0.99309814"/>
    <path d="M 529.0457763671875 565.9615478515625 C 529.2473754882812 568.2606811523438 531.0696411132812 570.1416625976562 529.829833984375 571.7901611328125 C 529.7842407226562 570.2638549804688 531.3441162109375 568.1002807617188 530.8912963867188 570.5613403320312 C 532.4255981445312 571.6196899414062 534.3864135742188 572.3170166015625 534.3046264648438 572.3538208007812 C 532.0535888671875 570.6903686523438 529.7131958007812 570.2573852539062 529.0457763671875 565.9615478515625" stroke-width="0.0" fill="rgb(254, 254, 255)" opacity="0.9956356"/>
    <path d="M 31.015771865844727 44.36397933959961 C 29.933441162109375 45.03118896484375 32.006080627441406 42.791019439697266 31.061546325683594 42.70723342895508 C 33.396270751953125 42.46932601928711 32.10171127319336 43.467952728271484 33.18764114379883 44.28937911987305 C 34.446922302246094 45.225284576416016 34.49541473388672 43.05325698852539 33.81756591796875 43.31453323364258 C 35.9344482421875 43.77012634277344 34.008602142333984 43.96611785888672 31.015771865844727 44.36397933959961" stroke-width="0.0" fill="rgb(253, 254, 254)" opacity="0.99377"/>
    <path d="M 593.9990844726562 485.0062561035156 C 594.2979125976562 484.96148681640625 594.8856811523438 482.6517639160156 594.8133544921875 481.45166015625 C 593.0895385742188 482.31268310546875 593.952392578125 481.77362060546875 592.0437622070312 483.796630859375 C 592.9017333984375 482.3388671875 592.4932861328125 482.5271301269531 594.861328125 484.2409973144531 C 593.4381103515625 483.72076416015625 591.6868286132812 485.4169006347656 593.9990844726562 485.0062561035156" stroke-width="0.0" fill="rgb(254, 255, 255)" opacity="0.99411"/>
    <path d="M 295.1554870605469 594.038330078125 C 295.66357421875 592.12353515625 295.3811950683594 592.19970703125 293.2695617675781 591.73828125 C 293.6619567871094 590.650634765625 293.69342041015625 589.21875 293.45550537109375 589.8601684570312 C 294.5145263671875 589.0289306640625 295.2895812988281 588.076904296875 295.8554992675781 590.2708740234375 C 296.9912414550781 588.5390014648438 296.55694580078125 587.9306030273438 295.1554870605469 594.038330078125" stroke-width="0.0" fill="rgb(255, 255, 255)" opacity="0.9928084"/>
    <path d="M 273.4856262207031 590.858154296875 C 272.4842224121094 593.0457763671875 273.98883056640625 593.451171875 271.6039123535156 591.7891845703125 C 274.0150146484375 592.5240478515625 274.5010681152344 591.7310791015625 274.0977783203125 590.10546875 C 272.0022888183594 587.7799682617188 272.5610046386719 586.2828979492188 270.57568359375 584.8004760742188 C 270.1689147949219 584.335205078125 272.4497375488281 583.9660034179688 273.4856262207031 590.858154296875" stroke-width="0.0" fill="rgb(254, 254, 255)" opacity="0.99282557"/>
    <path d="M 555.921142578125 478.1639404296875 C 553.759521484375 479.5506286621094 554.1116943359375 480.13470458984375 554.3470458984375 477.9582824707031 C 555.1573486328125 478.71881103515625 555.6077270507812 480.839599609375 554.1061401367188 482.3616943359375 C 552.6920776367188 481.9021911621094 555.0093383789062 481.1272888183594 552.6022338867188 479.1543273925781 C 550.7232666015625 478.33282470703125 552.7080078125 479.00054931640625 555.921142578125 478.1639404296875" stroke-width="0.0" fill="rgb(255, 255, 255)" opacity="0.992764"/>
    <path d="M 574.9315185546875 397.8881530761719 C 572.88330078125 399.2110900878906 575.2431640625 397.95159912109375 576.4236450195312 396.71160888671875 C 575.4554443359375 398.87176513671875 573.4500122070312 398.36798095703125 575.8529663085938 397.0040283203125 C 577.010986328125 396.43267822265625 574.9141845703125 398.676513671875 576.109375 396.6481628417969 C 578.3714599609375 396.3240051269531 577.7670288085938 398.4389343261719 574.9315185546875 397.8881530761719" stroke-width="0.0" fill="rgb(254, 254, 255)" opacity="0.9944061"/>
    <path d="M 555.9960327148438 470.01104736328125 C 557.3997802734375 470.515380859375 558.4561157226562 470.431884765625 560.6056518554688 469.4769592285156 C 559.8116455078125 467.4732971191406 562.2017822265625 467.57989501953125 561.7131958007812 469.267822265625 C 562.5914916992188 467.3488464355469 561.866943359375 467.3742980957031 559.5195922851562 466.2373046875 C 557.7009887695312 464.2598876953125 559.6265869140625 465.34197998046875 555.9960327148438 470.01104736328125" stroke-width="0.0" fill="rgb(255, 255, 255)" opacity="0.9922098"/>
    <path d="M 5.797809600830078 60.473087310791016 C 5.903153419494629 62.558170318603516 2.8150315284729004 62.25762939453125 3.2806520462036133 61.9745979309082 C 0.26594680547714233 60.558143615722656 -1.6275548934936523 63.413475036621094 0.1793142557144165 65.08374786376953 C 0.23382139205932617 66.72130584716797 0.39171940088272095 64.91116333007812 1.7222013473510742 67.07829284667969 C 2.250964641571045 68.94761657714844 2.963723659515381 69.17687225341797 5.797809600830078 60.473087310791016" stroke-width="0.0" fill="rgb(0, 0, 0)" opacity="1.0"/>
    <path d="M 566.1736450195312 544.7674560546875 C 567.4105224609375 547.3552856445312 568.6422119140625 545.1272583007812 567.7752685546875 544.75732421875 C 566.3562622070312 542.4264526367188 567.564208984375 540.1425170898438 567.7477416992188 537.7341918945312 C 565.95263671875 536.189208984375 565.6984252929688 537.991455078125 566.0782470703125 538.487548828125 C 567.9671630859375 537.5047607421875 568.2310791015625 535.4754028320312 566.1736450195312 544.7674560546875" stroke-width="0.0" fill="rgb(255, 255, 255)" opacity="0.9926273"/>
    <path d="M 42.88283920288086 590.178955078125 C 44.462646484375 591.6513671875 45.9940185546875 590.4060668945312 48.23016357421875 592.8822021484375 C 48.038658142089844 595.2196655273438 50.27333450317383 594.70166015625 51.687870025634766 594.4373779296875 C 50.70966339111328 594.1323852539062 51.8653564453125 593.1549682617188 52.53005599975586 595.4169311523438 C 53.91812515258789 596.9675903320312 54.12577438354492 595.0369873046875 42.88283920288086 590.178955078125" stroke-width="0.0" fill="rgb(255, 255, 255)" opacity="0.9926407"/>
    <path d="M 2.9847161769866943 337.7769470214844 C 1.1763964891433716 338.3492126464844 2.8093810081481934 338.2469482421875 5.401847839355469 336.28179931640625 C 6.107996463775635 338.36553955078125 3.769085645675659 338.3516845703125 5.299262523651123 339.68927001953125 C 7.682200908660889 337.9280700683594 7.0407633781433105 336.2857666015625 4.529723644256592 336.7563781738281 C 5.399408340454102 337.763916015625 7.829583168029785 337.2489318847656 2.9847161769866943 337.7769470214844" stroke-width="0.0" fill="rgb(255, 255, 255)" opacity="0.9934888"/>
    <path d="M 11.724507331848145 430.73590087890625 C 11.924619674682617 429.3846740722656 13.037779808044434 430.95965576171875 11.907387733459473 430.7696838378906 C 13.45909309387207 428.6411437988281 15.325148582458496 426.96160888671875 16.831117630004883 425.5064392089844 C 16.030160903930664 423.580078125 16.217397689819336 424.6319580078125 17.560091018676758 423.5450744628906 C 17.677684783935547 421.5765075683594 17.69997215270996 424.0719909667969 11.724507331848145 430.73590087890625" stroke-width="0.0" fill="rgb(254, 254, 254)" opacity="0.9925564"/>
    <path d="M 582.1136474609375 394.8197937011719 C 583.8933715820312 394.8758239746094 584.5137939453125 393.0897521972656 583.716552734375 391.7100524902344 C 582.9098510742188 391.86431884765625 583.1275634765625 389.4259338378906 581.3770751953125 387.53558349609375 C 580.359375 389.6700439453125 581.7305297851562 391.6932373046875 581.2589721679688 391.8036804199219 C 580.695068359375 392.352294921875 578.3195190429688 394.0308837890625 582.1136474609375 394.8197937011719" stroke-width="0.0" fill="rgb(255, 255, 255)" opacity="0.99240273"/>
    <path d="M 357.54827880859375 570.3160400390625 C 355.761474609375 568.1129150390625 353.189697265625 568.6349487304688 351.9695739746094 570.5971069335938 C 350.0734558105469 572.4351196289062 348.6979675292969 573.5465698242188 351.19598388671875 573.8056030273438 C 352.01947021484375 573.2374877929688 351.2024230957031 573.97607421875 349.69891357421875 575.7679443359375 C 350.4516906738281 576.6091918945312 351.9734191894531 576.5391235351562 357.54827880859375 570.3160400390625" stroke-width="0.0" fill="rgb(255, 255, 255)" opacity="0.9920185"/>
    <path d="M 592.0477905273438 367.70782470703125 C 591.9230346679688 368.7637939453125 589.398681640625 369.6685791015625 589.822998046875 368.9972229003906 C 587.9630126953125 366.7667236328125 585.71533203125 369.2322998046875 587.6306762695312 370.2320251464844 C 587.769287109375 367.6936340332031 589.8619995117188 365.4095458984375 587.4064331054688 367.59747314453125 C 585.2463989257812 368.9316711425781 586.4160766601562 369.5711669921875 592.0477905273438 367.70782470703125" stroke-width="0.0" fill="rgb(255, 255, 255)" opacity="0.9925729"/>
    <path d="M 593.9740600585938 459.79180908203125 C 592.6533813476562 458.692626953125 590.3642578125 461.0469055175781 591.0765991210938 462.7673034667969 C 593.4169921875 460.3122253417969 592.0767211914062 458.5660095214844 593.3624267578125 459.77679443359375 C 594.6085815429688 460.6543884277344 595.0948486328125 461.0898742675781 594.6130981445312 461.30364990234375 C 595.8432006835938 461.9974670410156 595.2451782226562 462.3073425292969 593.9740600585938 459.79180908203125" stroke-width="0.0" fill="rgb(254, 255, 255)" opacity="0.9933263"/>
    <path d="M 0.5652110576629639 365.0801086425781 C 2.4153149127960205 365.7764587402344 1.1125293970108032 363.6546936035156 1.2406699657440186 365.30474853515625 C 0.9409418106079102 366.9979248046875 2.869074583053589 368.2224426269531 1.054993987083435 366.9064636230469 C 0.4070512652397156 369.0839538574219 1.5195685625076294 368.33331298828125 0.6811015009880066 366.8135070800781 C 3.087043046951294 368.466064453125 2.7625794410705566 370.293212890625 0.5652110576629639 365.0801086425781" stroke-width="0.0" fill="rgb(254, 254, 255)" opacity="0.99471736"/>
    <path d="M 580.1910400390625 375.3946838378906 C 581.9396362304688 376.2958068847656 579.8618774414062 376.4801940917969 581.6036376953125 377.10205078125 C 583.806884765625 379.5321960449219 584.068359375 377.85296630859375 582.482177734375 376.7812805175781 C 582.3599853515625 376.5048828125 581.6780395507812 375.2796936035156 583.4619750976562 376.2410583496094 C 584.4851684570312 374.0851135253906 585.6664428710938 373.4333190917969 580.1910400390625 375.3946838378906" stroke-width="0.0" fill="rgb(255, 255, 255)" opacity="0.99244344"/>
    <path d="M 597.9869384765625 350.000244140625 C 600.4011840820312 347.922119140625 598.5798950195312 345.6735534667969 599.5897216796875 343.7021179199219 C 601.7910766601562 342.52752685546875 603.861572265625 344.86456298828125 601.4520874023438 343.1895446777344 C 602.2365112304688 344.0809631347656 602.151611328125 345.8418884277344 602.526123046875 345.1639404296875 C 602.991455078125 343.55548095703125 604.8685913085938 342.61602783203125 597.9869384765625 350.000244140625" stroke-width="0.0" fill="rgb(255, 255, 255)" opacity="0.9938826"/>
    <path d="M 598.1262817382812 346.20220947265625 C 599.445556640625 347.2919616699219 597.9915161132812 347.55908203125 597.7138061523438 346.6082458496094 C 598.9749145507812 345.3877868652344 600.6951293945312 345.6872863769531 598.6553344726562 345.2628173828125 C 596.2802734375 344.8693542480469 597.7890625 344.029541015625 599.7272338867188 343.58135986328125 C 598.0558471679688 345.3548889160156 596.1633911132812 347.76727294921875 598.1262817382812 346.20220947265625" stroke-width="0.0" fill="rgb(255, 255, 255)" opacity="0.99354506"/>
    <path d="M 40.077369689941406 586.774169921875 C 39.99011993408203 586.1622314453125 41.264896392822266 585.3504028320312 40.920814514160156 587.1889038085938 C 42.31768798828125 588.6454467773438 40.08017349243164 589.8212890625 40.678131103515625 590.1911010742188 C 38.871849060058594 590.7525634765625 40.8358039855957 590.7861328125 41.72053527832031 591.3468017578125 C 43.596099853515625 590.6124877929688 43.90768814086914 588.4472045898438 40.077369689941406 586.774169921875" stroke-width="0.0" fill="rgb(255, 255, 255)" opacity="0.99327046"/>
    <path d="M 24.41257667541504 54.84813690185547 C 24.89939308166504 56.808841705322266 23.820905685424805 57.02808380126953 23.235570907592773 56.881797790527344 C 23.151607513427734 55.61072540283203 21.751516342163086 54.2200927734375 24.63375473022461 53.56597137451172 C 25.59260368347168 55.103492736816406 27.24553680419922 57.646331787109375 25.51627540588379 57.92781066894531 C 22.797937393188477 59.17604446411133 23.72414207458496 58.120880126953125 24.41257667541504 54.84813690185547" stroke-width="0.0" fill="rgb(0, 0, 0)" opacity="1.0"/>
    <path d="M 532.0264892578125 583.97216796875 C 531.1879272460938 583.2362060546875 532.192626953125 584.8684692382812 531.9542846679688 586.940185546875 C 533.1497192382812 587.8845825195312 532.3016967773438 587.0601196289062 534.7234497070312 589.0654907226562 C 533.3806762695312 589.1239013671875 535.3223266601562 587.9824829101562 536.5130615234375 589.977294921875 C 538.648193359375 591.973388671875 540.5538330078125 593.4752197265625 532.0264892578125 583.97216796875" stroke-width="0.0" fill="rgb(255, 255, 255)" opacity="0.9931175"/>
    <path d="M 311.1534423828125 591.7833251953125 C 313.5353698730469 592.9428100585938 312.6078796386719 594.8084716796875 311.35980224609375 596.4900512695312 C 310.0240478515625 593.9259033203125 310.61419677734375 595.109130859375 307.9032897949219 593.7731323242188 C 306.7810974121094 590.9750366210938 304.5364685058594 592.36865234375 302.641845703125 592.2698974609375 C 300.78558349609375 589.9244384765625 301.74505615234375 589.0016479492188 311.1534423828125 591.7833251953125" stroke-width="0.0" fill="rgb(255, 255, 255)" opacity="0.99276835"/>
    <path d="M 75.71728515625 591.2509765625 C 78.42169952392578 593.396240234375 76.85980224609375 592.7916259765625 79.43705749511719 591.5013427734375 C 76.88819122314453 590.2506713867188 76.46231842041016 592.1988525390625 75.06282043457031 594.4815063476562 C 76.3232650756836 593.7699584960938 78.0562515258789 595.7130126953125 79.82807922363281 595.393798828125 C 79.10895538330078 595.5697021484375 81.43085479736328 596.9903564453125 75.71728515625 591.2509765625" stroke-width="0.0" fill="rgb(255, 255, 255)" opacity="0.9926958"/>
    <path d="M 558.827880859375 565.1569213867188 C 558.314453125 564.5171508789062 558.6023559570312 565.9528198242188 558.3325805664062 564.6901245117188 C 556.1194458007812 564.569091796875 558.0951538085938 562.2662353515625 556.6126708984375 562.16162109375 C 558.770751953125 564.3672485351562 561.0975952148438 562.9591064453125 558.9366455078125 560.9013061523438 C 558.627197265625 561.4891967773438 556.6669311523438 563.8342895507812 558.827880859375 565.1569213867188" stroke-width="0.0" fill="rgb(255, 255, 255)" opacity="0.9940584"/>
    <path d="M 567.1041259765625 363.80767822265625 C 564.6381225585938 362.30029296875 564.3800659179688 362.2322082519531 562.5364379882812 361.62261962890625 C 561.4030151367188 363.2975769042969 562.6714477539062 364.2449645996094 564.5431518554688 364.1913757324219 C 563.8842163085938 363.06463623046875 561.7703247070312 364.53387451171875 563.5145874023438 362.569580078125 C 563.0488891601562 362.7435302734375 562.7886352539062 364.53118896484375 567.1041259765625 363.80767822265625" stroke-width="0.0" fill="rgb(255, 255, 255)" opacity="0.9929396"/>
    <path d="M 587.0303344726562 371.9946594238281 C 588.2212524414062 371.8999938964844 589.2986450195312 374.2558898925781 589.0982055664062 376.4786376953125 C 590.2698974609375 376.1796569824219 588.9288330078125 377.7832946777344 589.194580078125 376.2840270996094 C 587.086181640625 378.6127014160156 588.3294067382812 377.3200988769531 586.5426635742188 375.1872863769531 C 587.6652221679688 373.81317138671875 586.509033203125 371.8214416503906 587.0303344726562 371.9946594238281" stroke-width="0.0" fill="rgb(254, 255, 255)" opacity="0.9940478"/>
    <path d="M 504.9040832519531 596.239501953125 C 502.4884033203125 595.5669555664062 500.2769775390625 596.9283447265625 501.0188903808594 594.8120727539062 C 500.9256591796875 594.63330078125 499.5335998535156 594.546875 501.3511047363281 594.5531005859375 C 503.1761474609375 594.2823486328125 501.501953125 595.6721801757812 502.2853088378906 596.26025390625 C 500.3583984375 598.224609375 502.75177001953125 597.0660400390625 504.9040832519531 596.239501953125" stroke-width="0.0" fill="rgb(255, 255, 255)" opacity="0.99278367"/>
    <path d="M 559.7230224609375 399.105224609375 C 561.0073852539062 397.46917724609375 561.5310668945312 397.5592346191406 563.4793701171875 400.0758056640625 C 565.0798950195312 398.860107421875 564.0142822265625 400.2637634277344 561.6383056640625 400.4876708984375 C 560.56640625 400.1150817871094 558.2687377929688 400.4967041015625 557.1117553710938 398.57427978515625 C 556.7725219726562 398.3190002441406 554.9159545898438 397.6846923828125 559.7230224609375 399.105224609375" stroke-width="0.0" fill="rgb(254, 254, 255)" opacity="0.995158"/>
    <path d="M 579.0921020507812 372.6338806152344 C 581.26220703125 374.287109375 579.3117065429688 375.93817138671875 578.57373046875 376.0451965332031 C 577.67041015625 374.0975341796875 577.4136352539062 372.317138671875 577.7656860351562 372.4068603515625 C 578.9424438476562 372.6498718261719 578.0712890625 372.44122314453125 577.1278076171875 372.98822021484375 C 579.5408935546875 372.924560546875 577.5896606445312 373.8464660644531 579.0921020507812 372.6338806152344" stroke-width="0.0" fill="rgb(255, 255, 255)" opacity="0.9938136"/>
    <path d="M 361.7872619628906 570.1277465820312 C 360.0055847167969 572.4999389648438 358.10162353515625 572.8180541992188 359.36358642578125 575.3289184570312 C 358.28045654296875 574.6759643554688 357.0093078613281 574.759765625 357.6661682128906 576.251220703125 C 358.42767333984375 576.690185546875 360.20477294921875 578.7947387695312 361.5123596191406 580.9261474609375 C 361.97149658203125 581.0455322265625 359.43756103515625 580.2202758789062 361.7872619628906 570.1277465820312" stroke-width="0.0" fill="rgb(255, 255, 255)" opacity="0.9920849"/>
    <path d="M 2.0005829334259033 42.9215087890625 C 0.8604298830032349 41.428466796875 -0.3209931254386902 42.75075912475586 -2.0802054405212402 42.48888397216797 C -3.2961952686309814 42.074127197265625 -0.8275560140609741 40.60103225708008 1.6248464584350586 41.77687072753906 C 0.5137275457382202 40.32762908935547 0.14118298888206482 40.15924072265625 0.4098462462425232 41.49230194091797 C 0.14166854321956635 43.883636474609375 0.2787993848323822 45.837158203125 2.0005829334259033 42.9215087890625" stroke-width="0.0" fill="rgb(254, 254, 255)" opacity="0.99391264"/>
    <path d="M 568.0975952148438 447.30828857421875 C 565.6874389648438 449.5378723144531 567.1328735351562 451.8143005371094 565.35546875 451.0408630371094 C 563.61767578125 452.4338073730469 563.8380737304688 450.9891662597656 565.3614501953125 451.2298278808594 C 566.8604125976562 451.62799072265625 568.6609497070312 450.06451416015625 566.6989135742188 450.7232971191406 C 568.8062744140625 448.85748291015625 569.514404296875 450.5571594238281 568.0975952148438 447.30828857421875" stroke-width="0.0" fill="rgb(254, 254, 255)" opacity="0.99381816"/>
    <path d="M 370.12823486328125 579.8934326171875 C 369.00250244140625 580.9364624023438 367.37982177734375 583.3755493164062 368.62042236328125 584.0538330078125 C 369.30487060546875 581.7464599609375 371.4721374511719 583.3994750976562 373.2362060546875 584.6270141601562 C 375.1500549316406 582.7576293945312 373.1438903808594 584.7976684570312 374.94305419921875 584.02978515625 C 377.4179382324219 582.0254516601562 375.0470275878906 581.1365966796875 370.12823486328125 579.8934326171875" stroke-width="0.0" fill="rgb(255, 255, 255)" opacity="0.9924168"/>
    <path d="M 22.1474552154541 377.5066833496094 C 21.700075149536133 374.81890869140625 23.90941619873047 377.2263488769531 26.098642349243164 374.9393615722656 C 24.371706008911133 373.5784912109375 25.372621536254883 374.2575378417969 27.102041244506836 372.48138427734375 C 28.09133529663086 373.4273681640625 28.66412353515625 374.9305114746094 28.45964241027832 373.8163757324219 C 30.50971221923828 375.3438415527344 29.085596084594727 375.2222595214844 22.1474552154541 377.5066833496094" stroke-width="0.0" fill="rgb(255, 255, 255)" opacity="0.9933173"/>
    <path d="M 47.99506378173828 595.9786987304688 C 47.662899017333984 598.102294921875 49.836524963378906 596.9555053710938 47.380680084228516 597.7440795898438 C 49.25502014160156 596.3953857421875 51.307682037353516 595.055419921875 52.00892639160156 595.7468872070312 C 52.98391342163086 595.37939453125 52.57497787475586 595.414306640625 50.302181243896484 595.9973754882812 C 50.212066650390625 597.077880859375 51.86916732788086 595.5209350585938 47.99506378173828 595.9786987304688" stroke-width="0.0" fill="rgb(254, 255, 255)" opacity="0.99837434"/>
    <path d="M 574.9929809570312 554.0014038085938 C 575.9428100585938 552.1005859375 576.346923828125 551.3497314453125 576.491455078125 552.4119873046875 C 575.55908203125 550.0045166015625 573.755859375 549.8189697265625 572.8109130859375 548.4863891601562 C 574.40234375 550.2484130859375 574.4156494140625 552.1622314453125 576.078369140625 554.1809692382812 C 575.4505615234375 552.07568359375 574.5895385742188 554.0079345703125 574.9929809570312 554.0014038085938" stroke-width="0.0" fill="rgb(254, 254, 255)" opacity="0.9944097"/>
    <path d="M 557.8103637695312 550.2618408203125 C 558.8317260742188 552.5306396484375 556.7741088867188 554.200439453125 556.6701049804688 552.1259155273438 C 554.5013427734375 550.5133666992188 553.7338256835938 551.270751953125 554.64794921875 549.3228759765625 C 554.0673828125 547.8126220703125 551.8011474609375 547.0447387695312 550.8717041015625 548.4521484375 C 549.6513671875 546.7979736328125 548.9103393554688 546.850830078125 557.8103637695312 550.2618408203125" stroke-width="0.0" fill="rgb(255, 255, 255)" opacity="0.9921396"/>
    <path d="M 502.1287536621094 584.3134765625 C 502.59881591796875 582.17626953125 503.9339599609375 581.0926513671875 503.36737060546875 579.32275390625 C 504.01141357421875 581.306640625 506.2701721191406 582.0905151367188 504.2391052246094 583.228515625 C 505.0355224609375 583.5429077148438 504.4354248046875 581.855224609375 505.9872741699219 579.4268188476562 C 507.880126953125 581.5856323242188 508.6515808105469 583.5383911132812 502.1287536621094 584.3134765625" stroke-width="0.0" fill="rgb(255, 255, 255)" opacity="0.99222946"/>
    <path d="M 16.969221115112305 318.9923400878906 C 16.642059326171875 316.8479919433594 17.073986053466797 316.8298034667969 16.655986785888672 319.02191162109375 C 18.100723266601562 319.26239013671875 18.774580001831055 320.8804626464844 21.134408950805664 318.5256652832031 C 21.124347686767578 318.11492919921875 18.893287658691406 317.4284362792969 19.50077247619629 317.13848876953125 C 19.41344451904297 318.09765625 17.710874557495117 318.8946533203125 16.969221115112305 318.9923400878906" stroke-width="0.0" fill="rgb(255, 255, 255)" opacity="0.99351186"/>
    <path d="M 583.9288940429688 407.9908142089844 C 584.7861328125 409.2799987792969 584.753662109375 410.3248596191406 583.6275634765625 410.7815856933594 C 584.2590942382812 412.7149963378906 586.2523193359375 412.8881530761719 584.7695922851562 415.3384094238281 C 584.6788330078125 414.69622802734375 585.4740600585938 416.7762451171875 584.6312866210938 418.4308166503906 C 582.43701171875 416.5514831542969 583.3350219726562 417.1109313964844 583.9288940429688 407.9908142089844" stroke-width="0.0" fill="rgb(255, 255, 255)" opacity="0.9920671"/>
    <path d="M 591.8440551757812 352.1319274902344 C 590.123291015625 349.7660217285156 587.8967895507812 350.51708984375 587.737548828125 352.3087158203125 C 588.3118896484375 349.8936767578125 589.7529296875 349.05792236328125 588.9205932617188 348.7317810058594 C 588.17041015625 349.89532470703125 587.0320434570312 350.2125244140625 585.9403686523438 348.114990234375 C 586.8143920898438 347.9761657714844 585.9043579101562 347.7466735839844 591.8440551757812 352.1319274902344" stroke-width="0.0" fill="rgb(255, 255, 255)" opacity="0.9933744"/>
    <path d="M 78.96440887451172 586.3541870117188 C 79.48222351074219 586.2328491210938 81.49130249023438 585.0639038085938 79.06519317626953 587.157470703125 C 79.18635559082031 587.132568359375 77.86331939697266 585.2908325195312 75.7021255493164 584.51611328125 C 75.50978088378906 586.0343017578125 76.08634185791016 586.1337890625 74.9927978515625 586.3444213867188 C 73.77913665771484 586.194580078125 75.70653533935547 585.8179321289062 78.96440887451172 586.3541870117188" stroke-width="0.0" fill="rgb(255, 255, 255)" opacity="0.99307036"/>
    <path d="M 499.8975524902344 556.5748901367188 C 501.6096496582031 554.6153564453125 502.7036437988281 556.0126342773438 503.68988037109375 557.9573974609375 C 505.0987243652344 559.8163452148438 504.3623352050781 561.3395385742188 505.4806823730469 559.0331420898438 C 507.21453857421875 560.1166381835938 508.3713684082031 561.2833251953125 506.4910888671875 561.2041015625 C 506.60809326171875 563.2544555664062 505.9482116699219 561.9561767578125 499.8975524902344 556.5748901367188" stroke-width="0.0" fill="rgb(255, 255, 255)" opacity="0.9921204"/>
    <path d="M 301.2009582519531 592.9150390625 C 299.5967102050781 592.7349853515625 299.95709228515625 591.2923583984375 300.1877136230469 592.4622802734375 C 302.523681640625 593.5488891601562 302.7419128417969 595.312744140625 303.1344299316406 595.4092407226562 C 302.1795959472656 597.8649291992188 301.18658447265625 595.5297241210938 303.5964660644531 597.9789428710938 C 302.916015625 596.2865600585938 302.4842224121094 598.5067749023438 301.2009582519531 592.9150390625" stroke-width="0.0" fill="rgb(255, 255, 255)" opacity="0.9931544"/>
    <path d="M 582.0023193359375 539.9945678710938 C 582.156982421875 537.8890991210938 582.5739135742188 536.134521484375 582.6898803710938 538.260986328125 C 582.9347534179688 538.0806884765625 584.62353515625 536.4512939453125 584.1107788085938 535.888427734375 C 584.5194702148438 535.46337890625 584.4121704101562 537.291015625 585.0014038085938 534.9497680664062 C 583.7175903320312 533.4895629882812 582.98779296875 535.1183471679688 582.0023193359375 539.9945678710938" stroke-width="0.0" fill="rgb(255, 255, 255)" opacity="0.9933763"/>
    <path d="M 567.1838989257812 561.13232421875 C 566.395751953125 559.1925659179688 567.7460327148438 559.0355834960938 569.1923828125 558.6333618164062 C 571.3667602539062 559.2989501953125 574.0364990234375 560.6655883789062 575.6431884765625 563.021728515625 C 573.830810546875 561.4904174804688 574.5634155273438 561.1578369140625 576.0159301757812 559.1376342773438 C 574.1173706054688 558.1129150390625 571.6488037109375 556.0919189453125 567.1838989257812 561.13232421875" stroke-width="0.0" fill="rgb(255, 255, 255)" opacity="0.99231535"/>
    <path d="M 569.9176635742188 583.0234985351562 C 568.3502807617188 581.8422241210938 566.0823364257812 581.761474609375 564.4607543945312 584.2166137695312 C 563.0790405273438 582.9765014648438 564.067626953125 582.3451538085938 561.7396850585938 583.5768432617188 C 561.243896484375 582.337646484375 562.9340209960938 583.9691162109375 561.3187866210938 582.8644409179688 C 562.6696166992188 582.3406372070312 562.2603149414062 580.7939453125 569.9176635742188 583.0234985351562" stroke-width="0.0" fill="rgb(254, 254, 255)" opacity="0.9943162"/>
    <path d="M 594.96240234375 582.95703125 C 596.0482177734375 585.1513061523438 596.9797973632812 583.6101684570312 598.5278930664062 585.2747192382812 C 596.7970581054688 585.7966918945312 597.6273803710938 587.767578125 596.0480346679688 588.513916015625 C 598.425537109375 589.025634765625 598.649658203125 587.636962890625 597.6463623046875 585.0144653320312 C 596.109130859375 585.3900756835938 597.6973876953125 586.583740234375 594.96240234375 582.95703125" stroke-width="0.0" fill="rgb(255, 255, 255)" opacity="0.9935536"/>
    <path d="M 598.9999389648438 547.0000610351562 C 601.34619140625 549.3412475585938 601.7822875976562 551.1099853515625 603.9482421875 549.6884765625 C 603.0999145507812 548.4500732421875 601.056640625 549.2112426757812 600.5121459960938 550.7808227539062 C 601.480224609375 548.9310302734375 602.317626953125 547.9037475585938 602.7326049804688 548.992431640625 C 602.9224853515625 550.123046875 602.8724975585938 551.5120239257812 598.9999389648438 547.0000610351562" stroke-width="0.0" fill="rgb(255, 254, 255)" opacity="1.0"/>
    <path d="M 598.1721801757812 331.11444091796875 C 596.0154418945312 332.0312194824219 595.7274169921875 331.16693115234375 594.7947387695312 333.24444580078125 C 595.4668579101562 333.035400390625 595.2967529296875 331.8373107910156 596.6065673828125 331.0482177734375 C 598.0831298828125 331.73553466796875 597.7507934570312 331.6255187988281 599.0599975585938 330.5893249511719 C 597.0408325195312 331.1719970703125 595.7880249023438 330.1789245605469 598.1721801757812 331.11444091796875" stroke-width="0.0" fill="rgb(254, 255, 255)" opacity="0.99375486"/>
    <path d="M 83.12133026123047 584.91162109375 C 82.4902572631836 585.51123046875 84.81214141845703 587.302978515625 84.6700439453125 588.7537231445312 C 86.66970825195312 586.8361206054688 85.27973175048828 587.41943359375 86.834228515625 587.3372192382812 C 86.01394653320312 587.904541015625 87.41880798339844 589.5901489257812 85.40570831298828 590.2623901367188 C 87.08497619628906 589.133056640625 85.1941146850586 590.8258056640625 83.12133026123047 584.91162109375" stroke-width="0.0" fill="rgb(255, 255, 255)" opacity="0.9931615"/>
    <path d="M 3.5380496978759766 323.5461120605469 C 2.820005416870117 324.011474609375 3.351560354232788 322.4357604980469 5.992618083953857 322.7565612792969 C 4.966125965118408 324.60107421875 6.762178897857666 323.11279296875 7.796916484832764 320.9018249511719 C 6.610107421875 319.60137939453125 8.722491264343262 319.21868896484375 9.958174705505371 317.3183288574219 C 7.930629730224609 315.5310974121094 9.88454532623291 317.56915283203125 3.5380496978759766 323.5461120605469" stroke-width="0.0" fill="rgb(255, 255, 255)" opacity="0.99200565"/>
    <path d="M 3.689873695373535 470.7976989746094 C 5.904499053955078 469.0397644042969 5.337608337402344 466.7062683105469 3.645474672317505 465.23077392578125 C 2.1143922805786133 465.9422912597656 0.624644935131073 467.147216796875 2.1203486919403076 466.0464782714844 C 2.4563162326812744 468.1955261230469 0.2756667137145996 469.97003173828125 0.6784446835517883 468.5826721191406 C 2.685258626937866 469.5074768066406 3.5349462032318115 468.9089660644531 3.689873695373535 470.7976989746094" stroke-width="0.0" fill="rgb(255, 255, 254)" opacity="0.99332404"/>
    <path d="M 597.0023193359375 385.9922180175781 C 599.222412109375 387.2447204589844 599.9830322265625 386.88409423828125 598.3756713867188 389.36328125 C 599.8378295898438 389.0243835449219 602.2033081054688 386.65765380859375 604.4472045898438 387.8944396972656 C 602.88818359375 385.8297119140625 604.5862426757812 384.3976135253906 604.4973754882812 385.3097839355469 C 604.1506958007812 386.91412353515625 604.7599487304688 388.93450927734375 597.0023193359375 385.9922180175781" stroke-width="0.0" fill="rgb(255, 255, 255)" opacity="0.9993917"/>
    <path d="M 592.9757690429688 364.8794250488281 C 592.4915161132812 365.8200378417969 592.9334716796875 366.2801513671875 594.7999877929688 365.4674072265625 C 595.1334228515625 363.150634765625 596.8847045898438 362.99920654296875 598.3369140625 362.66888427734375 C 599.0975952148438 364.4329833984375 600.7861328125 364.4526672363281 603.2208251953125 362.0741882324219 C 600.80859375 363.9475402832031 600.7051391601562 363.5366516113281 592.9757690429688 364.8794250488281" stroke-width="0.0" fill="rgb(255, 255, 255)" opacity="0.9926624"/>
    <path d="M 20.30632209777832 450.99627685546875 C 19.311349868774414 450.0224914550781 20.674375534057617 448.2611389160156 21.160512924194336 448.1754455566406 C 19.062089920043945 446.21484375 19.959808349609375 444.25543212890625 20.362138748168945 441.9085388183594 C 22.867115020751953 442.6311340332031 24.101945877075195 443.39862060546875 23.37394142150879 442.1886291503906 C 23.87784194946289 439.9458312988281 25.9934139251709 437.8424987792969 20.30632209777832 450.99627685546875" stroke-width="0.0" fill="rgb(255, 255, 255)" opacity="0.99242795"/>
    <path d="M 102.14901733398438 596.3025512695312 C 100.08903503417969 598.0665283203125 99.10039520263672 596.0863647460938 100.31104278564453 595.06884765625 C 99.96503448486328 593.5302124023438 102.16236114501953 592.0521240234375 104.10350036621094 593.1735229492188 C 102.75569152832031 593.4952392578125 104.72128295898438 591.87890625 105.85467529296875 594.1453247070312 C 106.85139465332031 594.0476684570312 109.09637451171875 593.3965454101562 102.14901733398438 596.3025512695312" stroke-width="0.0" fill="rgb(255, 255, 255)" opacity="0.9925348"/>
    <path d="M 567.9683227539062 398.2513732910156 C 565.4861450195312 397.5305480957031 563.2467041015625 398.2581787109375 561.4320068359375 400.1360168457031 C 559.4181518554688 399.6617431640625 559.0530395507812 397.8607482910156 557.2007446289062 399.2147216796875 C 555.3192138671875 400.109130859375 557.0458374023438 401.6304016113281 554.8904418945312 403.4383850097656 C 555.3980712890625 402.8058776855469 555.248779296875 403.953125 567.9683227539062 398.2513732910156" stroke-width="0.0" fill="rgb(255, 255, 255)" opacity="0.9922474"/>
    <path d="M 575.7288818359375 587.6624145507812 C 578.1986083984375 588.6470336914062 578.5836791992188 588.31787109375 577.3546142578125 586.156982421875 C 575.9435424804688 586.4647216796875 578.0884399414062 584.18115234375 577.8395385742188 582.2786254882812 C 578.483154296875 582.0630493164062 579.4793701171875 582.2422485351562 578.9146728515625 584.0713500976562 C 580.1861572265625 585.7610473632812 580.5440673828125 583.20166015625 575.7288818359375 587.6624145507812" stroke-width="0.0" fill="rgb(255, 255, 255)" opacity="0.9934546"/>
    <path d="M 555.9014282226562 561.9463500976562 C 557.3815307617188 564.0779418945312 559.3778686523438 566.3772583007812 557.8490600585938 567.9202880859375 C 556.1029663085938 569.84228515625 558.5049438476562 567.369384765625 560.5877685546875 567.2870483398438 C 559.2139282226562 566.9945678710938 560.945068359375 567.809326171875 560.1185913085938 566.1599731445312 C 558.44580078125 565.6786499023438 557.46923828125 566.7560424804688 555.9014282226562 561.9463500976562" stroke-width="0.0" fill="rgb(254, 254, 255)" opacity="0.99333954"/>
  </g>
</svg>
