<?xml version="1.0" ?>
<svg xmlns="http://www.w3.org/2000/svg" version="1.1" width="600" height="600">
  <defs/>
  <g>
    <path d="M 123.0 220.0 C 120.9903793334961 227.5 115.5 232.99038696289062 108.0 235.0 C 100.5 232.99038696289062 95.0096206665039 227.5 93.0 220.0 C 95.0096206665039 212.5 100.5 207.00961303710938 108.0 205.0 C 115.5 207.00961303710938 120.9903793334961 212.5 123.0 220.0" stroke-width="0.0" fill="rgb(36, 49, 71)" opacity="1.0"/>
    <path d="M 300.94073486328125 344.78082275390625 C 298.89019775390625 352.3538818359375 293.3063049316406 357.7530822753906 285.4272766113281 359.5093994140625 C 277.3926696777344 357.1755065917969 271.97698974609375 351.5599670410156 269.9968566894531 344.00592041015625 C 272.0096130371094 336.5 277.5 331.0096130371094 285.0062561035156 328.9975280761719 C 292.64044189453125 330.9505920410156 298.5950012207031 336.1352844238281 300.94073486328125 344.78082275390625" stroke-width="0.0" fill="rgb(12, 15, 22)" opacity="1.0"/>
    <path d="M 317.0395812988281 310.76580810546875 C 315.07720947265625 317.6061706542969 309.6089172363281 323.0838928222656 302.1053161621094 325.60052490234375 C 294.7305908203125 324.8074951171875 289.16461181640625 319.2846374511719 287.0467834472656 310.23583984375 C 289.08294677734375 302.5942077636719 294.5998840332031 297.0957946777344 302.09564208984375 295.1950378417969 C 309.6300964355469 298.8975524902344 315.09149169921875 304.3743896484375 317.0395812988281 310.76580810546875" stroke-width="0.0" fill="rgb(20, 23, 30)" opacity="0.99000835"/>
    <path d="M 186.27410888671875 479.6549377441406 C 183.96005249023438 487.4179992675781 178.19412231445312 492.4245910644531 171.79977416992188 494.0382080078125 C 164.32127380371094 492.09722900390625 158.47317504882812 486.79327392578125 155.11715698242188 479.2002868652344 C 157.11094665527344 471.6092529296875 162.5993194580078 466.0865783691406 170.58592224121094 464.03802490234375 C 179.33860778808594 466.11199951171875 184.67869567871094 471.73333740234375 186.27410888671875 479.6549377441406" stroke-width="0.0" fill="rgb(3, 2, 3)" opacity="0.99002486"/>
    <path d="M 165.63218688964844 291.56890869140625 C 163.754150390625 299.2311706542969 158.2095947265625 304.687744140625 150.43348693847656 306.4455871582031 C 142.5 303.9903869628906 137.00961303710938 298.5 135.0 291.0 C 137.00961303710938 283.5 142.5 278.0096130371094 150.0 276.0 C 157.5 278.0096130371094 162.99038696289062 283.5 165.63218688964844 291.56890869140625" stroke-width="0.0" fill="rgb(130, 101, 35)" opacity="1.0"/>
    <path d="M 192.0 181.0 C 189.99038696289062 188.5 184.5 193.99038696289062 177.0 196.0 C 169.5 193.99038696289062 164.00961303710938 188.5 162.0 181.0 C 164.00961303710938 173.5 169.5 168.00961303710938 177.0 166.0 C 184.5 168.00961303710938 189.99038696289062 173.5 192.0 181.0" stroke-width="0.0" fill="rgb(141, 154, 177)" opacity="1.0"/>
    <path d="M 277.779052734375 263.72357177734375 C 275.844970703125 271.3404235839844 270.3539733886719 276.87786865234375 262.8152770996094 278.890869140625 C 254.49916076660156 275.99066162109375 248.98899841308594 270.5064697265625 246.0784912109375 262.1516418457031 C 248.11163330078125 254.65240478515625 253.7066650390625 249.2674102783203 261.5628967285156 247.610107421875 C 269.4527893066406 250.0365753173828 274.9338684082031 255.55775451660156 277.779052734375 263.72357177734375" stroke-width="0.0" fill="rgb(18, 15, 15)" opacity="0.99016744"/>
    <path d="M 185.33531188964844 163.4606170654297 C 183.99038696289062 170.5 178.5 175.99038696289062 171.00003051757812 177.99998474121094 C 163.50137329101562 175.9899444580078 158.03628540039062 170.49130249023438 156.649658203125 163.36016845703125 C 158.2959747314453 155.25462341308594 162.96995544433594 149.30670166015625 170.3633270263672 147.21397399902344 C 178.3256378173828 150.1046142578125 183.4888916015625 155.81951904296875 185.33531188964844 163.4606170654297" stroke-width="0.0" fill="rgb(139, 138, 107)" opacity="0.99003786"/>
    <path d="M 221.35633850097656 66.58586883544922 C 219.99038696289062 73.5 214.5 78.9903793334961 206.99940490722656 81.00020599365234 C 199.4818572998047 78.99712371826172 193.87472534179688 73.55705261230469 192.56045532226562 66.564697265625 C 194.77862548828125 59.26609802246094 200.29177856445312 53.848045349121094 207.12799072265625 51.933834075927734 C 213.70599365234375 53.843318939208984 219.20472717285156 59.27647399902344 221.35633850097656 66.58586883544922" stroke-width="0.0" fill="rgb(81, 85, 93)" opacity="0.99003565"/>
    <path d="M 184.0 404.0 C 181.99038696289062 411.5 176.5 416.9903869628906 169.0 419.0 C 161.5 416.9903869628906 156.00961303710938 411.5 153.1254425048828 403.1900939941406 C 155.11070251464844 395.6178283691406 160.61439514160156 390.1023864746094 168.161376953125 388.0967712402344 C 176.5 391.0096130371094 181.99038696289062 396.5 184.0 404.0" stroke-width="0.0" fill="rgb(8, 9, 16)" opacity="1.0"/>
    <path d="M 135.87322998046875 205.2451934814453 C 133.03480529785156 213.51373291015625 127.50139617919922 218.99081420898438 120.00001525878906 221.0 C 112.5 218.99038696289062 107.0096206665039 213.5 104.11447143554688 205.2148895263672 C 106.17310333251953 197.765625 111.8936996459961 192.5356903076172 120.26284790039062 190.6424560546875 C 128.22703552246094 192.3417510986328 133.84019470214844 197.7113494873047 135.87322998046875 205.2451934814453" stroke-width="0.0" fill="rgb(100, 111, 128)" opacity="1.0"/>
    <path d="M 157.90084838867188 341.4460754394531 C 155.5657501220703 349.859130859375 149.66770935058594 355.0708312988281 142.01138305664062 357.00518798828125 C 134.5 354.9903869628906 129.00961303710938 349.5 127.0 342.0 C 129.00961303710938 334.5 134.5 329.0096130371094 142.65887451171875 326.2101135253906 C 150.23080444335938 328.2392272949219 155.79656982421875 333.7532043457031 157.90084838867188 341.4460754394531" stroke-width="0.0" fill="rgb(81, 91, 109)" opacity="0.99054694"/>
    <path d="M 143.8004608154297 233.7637939453125 C 141.88572692871094 241.3913116455078 136.4002685546875 246.9100799560547 128.3617401123047 248.9575653076172 C 119.69490814208984 246.87391662597656 114.4184799194336 241.20164489746094 112.82736206054688 233.23849487304688 C 115.0096206665039 225.5 120.5 220.00961303710938 128.0 218.0 C 135.5 220.00961303710938 140.99038696289062 225.5 143.8004608154297 233.7637939453125" stroke-width="0.0" fill="rgb(0, 0, 0)" opacity="1.0"/>
    <path d="M 194.0 253.0 C 191.99038696289062 260.5 186.5 265.9903869628906 178.7970733642578 268.14300537109375 C 170.83740234375 266.5343933105469 165.14662170410156 261.27508544921875 163.09938049316406 253.81373596191406 C 166.00961303710938 245.5 171.5 240.00961303710938 179.0 238.0 C 186.5 240.00961303710938 191.99038696289062 245.5 194.0 253.0" stroke-width="0.0" fill="rgb(45, 50, 67)" opacity="0.9919068"/>
    <path d="M 180.94827270507812 428.3416748046875 C 178.81576538085938 437.21734619140625 173.08372497558594 442.4394226074219 164.29345703125 444.7709655761719 C 156.6374969482422 442.85992431640625 151.12326049804688 437.3684997558594 149.1720733642578 429.7710876464844 C 152.00961303710938 421.5 157.5 416.0096130371094 165.38955688476562 413.6594543457031 C 173.2676239013672 415.30096435546875 178.8790283203125 420.6690979003906 180.94827270507812 428.3416748046875" stroke-width="0.0" fill="rgb(0, 1, 1)" opacity="1.0"/>
    <path d="M 273.8851318359375 303.15167236328125 C 271.29339599609375 311.8157653808594 265.5521240234375 316.4966735839844 257.09930419921875 319.91204833984375 C 249.5880584716797 317.9195251464844 244.08299255371094 312.410888671875 242.0428466796875 304.72100830078125 C 244.18052673339844 295.7958068847656 249.961669921875 290.62359619140625 258.8652038574219 288.072265625 C 266.4008483886719 290.0907287597656 271.90679931640625 295.60009765625 273.8851318359375 303.15167236328125" stroke-width="0.0" fill="rgb(3, 2, 3)" opacity="0.9900618"/>
    <path d="M 296.9134521484375 435.20916748046875 C 294.7803649902344 444.311279296875 289.34649658203125 449.87872314453125 281.6330871582031 451.94268798828125 C 272.85711669921875 449.7803955078125 267.7111511230469 443.9566650390625 265.9639587402344 436.066650390625 C 268.00836181640625 428.4961853027344 273.4792785644531 422.9492492675781 281.84942626953125 420.07861328125 C 289.3824768066406 422.1026306152344 294.8905029296875 427.6204528808594 296.9134521484375 435.20916748046875" stroke-width="0.0" fill="rgb(13, 17, 23)" opacity="1.0"/>
    <path d="M 106.66590881347656 281.60540771484375 C 104.780029296875 289.2584533691406 99.24342346191406 294.73846435546875 91.12034606933594 296.8029479980469 C 83.04873657226562 294.612060546875 77.83837890625 288.7888488769531 75.98236846923828 281.03363037109375 C 78.0096206665039 273.5 83.5 268.0096130371094 91.0 266.0 C 98.5 268.0096130371094 103.9903793334961 273.5 106.66590881347656 281.60540771484375" stroke-width="0.0" fill="rgb(105, 108, 114)" opacity="0.9902112"/>
    <path d="M 170.0019989013672 233.99510192871094 C 167.99038696289062 241.5 162.5 246.99038696289062 154.5633087158203 249.37701416015625 C 146.69703674316406 247.74020385742188 141.11769104003906 242.34915161132812 139.13250732421875 234.80490112304688 C 142.00961303710938 226.5 147.5001220703125 221.01007080078125 155.59225463867188 218.1997833251953 C 162.7921600341797 220.48748779296875 168.03506469726562 226.39308166503906 170.0019989013672 233.99510192871094" stroke-width="0.0" fill="rgb(2, 4, 13)" opacity="0.991862"/>
    <path d="M 143.935546875 385.2164001464844 C 141.5768585205078 393.8551940917969 135.6463165283203 399.05462646484375 127.5728530883789 401.6465759277344 C 121.18185424804688 398.99169921875 115.9005126953125 392.6806335449219 113.95868682861328 385.5601806640625 C 115.8990478515625 379.34686279296875 121.27753448486328 373.5028381347656 128.7917938232422 370.0512390136719 C 136.3928985595703 372.0989074707031 141.8999786376953 377.6075439453125 143.935546875 385.2164001464844" stroke-width="0.0" fill="rgb(18, 21, 27)" opacity="0.990017"/>
    <path d="M 305.10614013671875 274.7039489746094 C 304.7305603027344 282.3046875 299.3528747558594 287.8868408203125 291.8083801269531 289.911865234375 C 282.7134704589844 287.7598571777344 277.13934326171875 282.3229675292969 275.0574035644531 274.4190979003906 C 277.13787841796875 265.6626892089844 282.6837463378906 260.1965637207031 290.6983337402344 258.22283935546875 C 298.7607116699219 260.37200927734375 303.2386169433594 267.01385498046875 305.10614013671875 274.7039489746094" stroke-width="0.0" fill="rgb(83, 85, 89)" opacity="1.0"/>
    <path d="M 187.9539337158203 449.48919677734375 C 185.9114532470703 457.40338134765625 180.40219116210938 462.9087829589844 172.565185546875 464.9544372558594 C 163.61534118652344 462.8947448730469 158.1043701171875 457.3850402832031 156.05755615234375 449.58245849609375 C 158.17782592773438 440.7733154296875 163.90379333496094 435.544921875 172.70408630371094 433.2384033203125 C 180.37184143066406 435.13568115234375 185.89840698242188 440.61566162109375 187.9539337158203 449.48919677734375" stroke-width="0.0" fill="rgb(1, 1, 2)" opacity="1.0"/>
    <path d="M 187.0 283.0 C 184.99038696289062 290.5 179.5 295.9903869628906 172.0 298.0 C 164.5 295.9903869628906 159.00961303710938 290.5 157.0 283.0 C 159.00961303710938 275.5 164.5 270.0096130371094 172.0 268.0 C 179.5 270.0096130371094 184.99038696289062 275.5 187.0 283.0" stroke-width="0.0" fill="rgb(247, 224, 58)" opacity="1.0"/>
    <path d="M 225.59768676757812 71.04367065429688 C 223.1729278564453 78.52763366699219 217.4481964111328 83.92295837402344 209.97531127929688 85.977294921875 C 202.5 83.9903793334961 197.00961303710938 78.5 195.01620483398438 70.92161560058594 C 196.74696350097656 63.262882232666016 202.2532501220703 57.690452575683594 210.63198852539062 55.11581802368164 C 218.21376037597656 57.216976165771484 223.56687927246094 62.85982131958008 225.59768676757812 71.04367065429688" stroke-width="0.0" fill="rgb(246, 250, 250)" opacity="0.9900444"/>
    <path d="M 168.97315979003906 418.97943115234375 C 166.94012451171875 426.45361328125 161.45420837402344 431.94256591796875 153.19607543945312 434.87115478515625 C 145.6221923828125 432.8851318359375 140.10975646972656 427.3798522949219 138.0916748046875 419.8038024902344 C 140.8289031982422 411.4302673339844 146.46505737304688 405.935546875 153.86134338378906 403.6661071777344 C 161.5 406.0096130371094 166.99038696289062 411.5 168.97315979003906 418.97943115234375" stroke-width="0.0" fill="rgb(13, 15, 25)" opacity="0.9925728"/>
    <path d="M 253.96099853515625 468.5224609375 C 251.89796447753906 476.3772888183594 246.3684844970703 481.87872314453125 238.83946228027344 483.8726806640625 C 230.6158905029297 480.6134948730469 224.45501708984375 475.7812194824219 222.1407470703125 468.48095703125 C 224.81141662597656 460.4261779785156 230.48716735839844 455.0054016113281 238.43637084960938 452.59710693359375 C 246.2831268310547 454.2734375 251.88031005859375 459.6626281738281 253.96099853515625 468.5224609375" stroke-width="0.0" fill="rgb(72, 56, 13)" opacity="0.9900566"/>
    <path d="M 121.93511962890625 247.84303283691406 C 119.89979553222656 255.38096618652344 114.36772155761719 260.8664855957031 106.7269515991211 262.80133056640625 C 98.07849884033203 260.3760986328125 92.44136810302734 254.98126220703125 90.46141815185547 247.4656524658203 C 93.03717041015625 239.50894165039062 98.50138092041016 234.0100860595703 105.9326400756836 232.05235290527344 C 113.2392807006836 234.2243194580078 118.8592758178711 239.7474822998047 121.93511962890625 247.84303283691406" stroke-width="0.0" fill="rgb(90, 92, 100)" opacity="1.0"/>
    <path d="M 176.00582885742188 240.01226806640625 C 174.07801818847656 247.68356323242188 168.8937530517578 253.6055908203125 160.31431579589844 255.91383361816406 C 152.758056640625 253.83065795898438 147.5083465576172 248.12135314941406 145.87464904785156 240.17803955078125 C 148.00961303710938 232.5 153.5 227.00961303710938 161.0 225.0 C 168.5 227.00961303710938 173.99038696289062 232.5 176.00582885742188 240.01226806640625" stroke-width="0.0" fill="rgb(4, 6, 16)" opacity="0.99184954"/>
    <path d="M 286.20574951171875 431.73260498046875 C 283.9893493652344 439.499267578125 278.4993896484375 444.9898376464844 270.99981689453125 446.99981689453125 C 263.5 444.9903869628906 258.0096130371094 439.5 255.1225128173828 431.1824645996094 C 257.1057434082031 423.6158752441406 262.61761474609375 418.1095275878906 270.5756530761719 416.05670166015625 C 279.28240966796875 418.1518249511719 284.5963134765625 423.8042907714844 286.20574951171875 431.73260498046875" stroke-width="0.0" fill="rgb(12, 16, 21)" opacity="1.0"/>
    <path d="M 149.77235412597656 451.26605224609375 C 146.99038696289062 459.5 141.5 464.9903869628906 133.22422790527344 467.89044189453125 C 125.72398376464844 465.80914306640625 120.14704132080078 460.29949951171875 118.0745620727539 452.8009033203125 C 120.73735809326172 444.3690490722656 126.3660659790039 438.73016357421875 134.8121337890625 436.08502197265625 C 142.38034057617188 438.1080627441406 147.86947631835938 443.6277160644531 149.77235412597656 451.26605224609375" stroke-width="0.0" fill="rgb(17, 22, 32)" opacity="0.9905125"/>
    <path d="M 216.8603515625 322.6636047363281 C 214.77557373046875 331.2715759277344 209.3048858642578 336.8526916503906 200.30584716796875 338.95550537109375 C 192.59303283691406 336.91302490234375 187.09024047851562 331.4057312011719 185.07669067382812 323.7915954589844 C 187.28323364257812 314.8736572265625 192.9630126953125 309.5427551269531 201.30282592773438 307.5176696777344 C 209.17166137695312 309.3481140136719 214.7630615234375 314.7890930175781 216.8603515625 322.6636047363281" stroke-width="0.0" fill="rgb(36, 43, 61)" opacity="0.99006826"/>
    <path d="M 253.6240234375 194.21302795410156 C 251.99038696289062 201.5 246.5 206.99038696289062 239.0 209.0 C 231.5 206.99038696289062 226.00961303710938 201.5 223.99961853027344 193.99891662597656 C 225.9962158203125 186.46304321289062 231.35333251953125 180.678466796875 239.7083282470703 178.0838623046875 C 247.0790557861328 180.24288940429688 251.84092712402344 186.2213897705078 253.6240234375 194.21302795410156" stroke-width="0.0" fill="rgb(2, 5, 5)" opacity="0.99003536"/>
    <path d="M 197.78826904296875 143.71484375 C 195.8367462158203 151.3105010986328 190.28773498535156 156.77337646484375 182.74473571777344 157.1564178466797 C 174.82814025878906 155.355712890625 168.35897827148438 150.85214233398438 166.07687377929688 142.22618103027344 C 168.102783203125 134.60606384277344 173.6018524169922 129.09249877929688 181.2000274658203 127.0529556274414 C 189.8618621826172 129.40611267089844 195.04766845703125 135.3633270263672 197.78826904296875 143.71484375" stroke-width="0.0" fill="rgb(4, 7, 20)" opacity="0.99003994"/>
    <path d="M 185.0 194.0 C 182.9901580810547 201.49920654296875 177.4878692626953 206.94943237304688 169.16583251953125 209.85855102539062 C 161.59970092773438 207.904296875 156.08944702148438 202.4027557373047 154.0469512939453 194.7197265625 C 156.22021484375 185.8734588623047 162.0868377685547 180.75762939453125 169.95034790039062 178.97459411621094 C 177.5 181.00961303710938 182.99038696289062 186.5 185.0 194.0" stroke-width="0.0" fill="rgb(13, 16, 34)" opacity="1.0"/>
    <path d="M 201.0 357.0 C 198.99038696289062 364.5 193.5 369.9903869628906 185.33460998535156 372.672607421875 C 177.62936401367188 370.8500671386719 172.09158325195312 365.39129638671875 170.0522003173828 357.82183837890625 C 172.4287872314453 349.159423828125 178.3738555908203 343.95721435546875 185.9945068359375 341.99786376953125 C 193.5 344.0096130371094 198.99038696289062 349.5 201.0 357.0" stroke-width="0.0" fill="rgb(0, 0, 1)" opacity="1.0"/>
    <path d="M 88.64054107666016 288.72412109375 C 86.85543823242188 296.3514404296875 81.34271240234375 301.8280029296875 73.77793884277344 302.89849853515625 C 66.3585205078125 300.1437072753906 60.921104431152344 294.6183776855469 58.96455383300781 287.92095947265625 C 60.92043685913086 281.38037109375 66.35684204101562 275.8547668457031 73.64009094238281 273.6494140625 C 80.47847747802734 275.0190734863281 85.85577392578125 280.5594482421875 88.64054107666016 288.72412109375" stroke-width="0.0" fill="rgb(8, 9, 13)" opacity="0.9900086"/>
    <path d="M 182.9715118408203 181.0314178466797 C 180.99038696289062 188.5 175.5 193.99038696289062 168.17822265625 195.74867248535156 C 160.4713592529297 193.7359161376953 154.50201416015625 188.80477905273438 152.50360107421875 181.3729705810547 C 155.01657104492188 173.514404296875 160.53347778320312 168.08120727539062 167.9418487548828 166.3515625 C 175.36227416992188 168.1893768310547 180.8920135498047 173.61326599121094 182.9715118408203 181.0314178466797" stroke-width="0.0" fill="rgb(117, 135, 161)" opacity="0.99020946"/>
    <path d="M 144.79856872558594 324.33807373046875 C 141.5814208984375 332.0945739746094 136.09564208984375 337.5799255371094 128.7941131591797 339.75848388671875 C 121.5 337.9903869628906 116.0096206665039 332.5 113.14599609375 324.2162780761719 C 115.12106323242188 316.6196594238281 120.61090850830078 311.0983581542969 128.17030334472656 309.0692138671875 C 136.95101928710938 311.6203308105469 142.7262725830078 316.9089660644531 144.79856872558594 324.33807373046875" stroke-width="0.0" fill="rgb(3, 2, 7)" opacity="0.99005693"/>
    <path d="M 119.09247589111328 332.8955383300781 C 116.917724609375 340.34112548828125 111.11892700195312 345.37493896484375 103.41641998291016 347.0621337890625 C 95.65872192382812 346.7711181640625 90.10115814208984 341.3768615722656 88.04705810546875 333.713134765625 C 90.26559448242188 324.96014404296875 96.21409606933594 319.86480712890625 104.0879135131836 317.8848571777344 C 111.752197265625 319.75311279296875 117.23609161376953 325.2510681152344 119.09247589111328 332.8955383300781" stroke-width="0.0" fill="rgb(9, 10, 16)" opacity="0.990355"/>
    <path d="M 113.9766845703125 217.9893798828125 C 111.9903793334961 225.5 106.5 230.99038696289062 99.53050994873047 232.49339294433594 C 92.32645416259766 230.19509887695312 86.9146499633789 224.6350860595703 84.96177673339844 217.6590576171875 C 86.91362762451172 211.3861083984375 92.38873291015625 205.91969299316406 99.84674835205078 203.9458770751953 C 106.97828674316406 204.4105987548828 112.16212463378906 210.15573120117188 113.9766845703125 217.9893798828125" stroke-width="0.0" fill="rgb(14, 17, 32)" opacity="0.9900096"/>
    <path d="M 214.9429473876953 300.6715393066406 C 212.8477325439453 309.2876281738281 207.21974182128906 314.6658935546875 199.1890869140625 316.6683349609375 C 191.09912109375 314.46295166015625 185.6876220703125 308.8533630371094 183.8842010498047 301.1271057128906 C 186.0223846435547 293.52496337890625 191.55755615234375 288.1308288574219 199.61802673339844 285.8268737792969 C 207.32940673828125 287.1904296875 212.87875366210938 292.645751953125 214.9429473876953 300.6715393066406" stroke-width="0.0" fill="rgb(84, 98, 108)" opacity="1.0"/>
    <path d="M 193.0 292.0 C 190.99038696289062 299.5 185.5 304.9903869628906 177.77528381347656 307.1816711425781 C 169.89920043945312 305.51873779296875 164.27685546875 300.16546630859375 162.3647003173828 292.552734375 C 165.00961303710938 284.5 170.5 279.0096130371094 178.0 277.0 C 185.5 279.0096130371094 190.99038696289062 284.5 193.0 292.0" stroke-width="0.0" fill="rgb(102, 83, 30)" opacity="1.0"/>
    <path d="M 208.83319091796875 246.2563934326172 C 205.99038696289062 254.5 200.5 259.9903869628906 193.00172424316406 261.9985656738281 C 185.5072021484375 259.984375 180.01968383789062 254.4915771484375 178.00474548339844 246.9960479736328 C 180.00961303710938 239.5 185.5 234.00961303710938 193.23216247558594 231.82952880859375 C 201.17343139648438 233.43801879882812 206.8303985595703 238.73727416992188 208.83319091796875 246.2563934326172" stroke-width="0.0" fill="rgb(68, 76, 94)" opacity="1.0"/>
    <path d="M 185.99327087402344 275.0119934082031 C 183.99038696289062 282.5 178.5 287.9903869628906 171.0 290.0 C 163.5 287.9903869628906 158.00961303710938 282.5 155.67359924316406 274.6954650878906 C 157.4480438232422 266.9269104003906 162.91441345214844 261.4114990234375 170.48773193359375 260.84765625 C 178.2611083984375 262.4255676269531 183.9261016845703 267.61627197265625 185.99327087402344 275.0119934082031" stroke-width="0.0" fill="rgb(247, 232, 78)" opacity="0.99023414"/>
    <path d="M 322.0841369628906 443.8515319824219 C 321.8727111816406 451.3714599609375 316.3730163574219 456.8781433105469 307.43438720703125 458.9456481933594 C 299.6217346191406 456.8941345214844 294.1149597167969 451.3742980957031 292.08929443359375 443.7538757324219 C 294.1833190917969 434.661865234375 299.6396484375 429.1189880371094 308.1015930175781 427.0506591796875 C 316.22503662109375 429.146484375 320.1939697265625 435.75579833984375 322.0841369628906 443.8515319824219" stroke-width="0.0" fill="rgb(21, 25, 31)" opacity="0.99115825"/>
    <path d="M 182.7776336669922 408.72845458984375 C 180.85870361328125 416.348388671875 175.3345947265625 421.8161315917969 167.6060791015625 423.6128845214844 C 159.50588989257812 420.99102783203125 154.03262329101562 415.4872741699219 151.3964385986328 407.5229187011719 C 153.3989715576172 400.0216369628906 159.1416778564453 394.7518615722656 166.92649841308594 392.9361572265625 C 174.5000457763672 395.00946044921875 179.99038696289062 400.5 182.7776336669922 408.72845458984375" stroke-width="0.0" fill="rgb(11, 15, 23)" opacity="1.0"/>
    <path d="M 274.8515625 178.58914184570312 C 272.697509765625 186.0896759033203 267.02069091796875 191.52943420410156 259.3319091796875 193.3095703125 C 251.05581665039062 191.29647827148438 245.33567810058594 186.05885314941406 243.09266662597656 177.63314819335938 C 245.38099670410156 170.10279846191406 251.32867431640625 164.93199157714844 258.99072265625 162.99578857421875 C 266.5155944824219 165.00425720214844 272.18365478515625 170.4254913330078 274.8515625 178.58914184570312" stroke-width="0.0" fill="rgb(59, 61, 75)" opacity="0.9904203"/>
    <path d="M 215.9447021484375 367.3762512207031 C 213.89627075195312 375.38916015625 208.39230346679688 380.9034118652344 200.55416870117188 382.9558410644531 C 191.84930419921875 380.7989196777344 186.74765014648438 374.9320068359375 184.99185180664062 367.0458068847656 C 187.00961303710938 359.5 192.5 354.0096130371094 200.82106018066406 351.1091003417969 C 208.37225341796875 353.1128234863281 213.87762451171875 358.6318664550781 215.9447021484375 367.3762512207031" stroke-width="0.0" fill="rgb(11, 14, 21)" opacity="0.99100864"/>
    <path d="M 216.92442321777344 224.71644592285156 C 214.8483428955078 233.34034729003906 209.34181213378906 238.8518524169922 201.72642517089844 240.7889404296875 C 193.5 237.99037170410156 188.00961303710938 232.5 186.0 225.0 C 188.00961303710938 217.5 193.5 212.00961303710938 201.13568115234375 209.90086364746094 C 209.0300750732422 211.59634399414062 214.78689575195312 216.8277130126953 216.92442321777344 224.71644592285156" stroke-width="0.0" fill="rgb(89, 101, 120)" opacity="1.0"/>
    <path d="M 88.3261947631836 310.65765380859375 C 86.00409698486328 318.5382995605469 80.65760040283203 324.3435363769531 73.78819274902344 326.31781005859375 C 66.38079833984375 323.1029968261719 60.918312072753906 317.61151123046875 58.96066665649414 311.3992004394531 C 60.92057800292969 304.3798522949219 66.35438537597656 298.8484802246094 73.7068862915039 296.3782958984375 C 81.16558837890625 297.3221435546875 86.61724853515625 302.8529052734375 88.3261947631836 310.65765380859375" stroke-width="0.0" fill="rgb(11, 13, 22)" opacity="0.9900098"/>
    <path d="M 140.78465270996094 270.2683410644531 C 138.4110870361328 279.0574645996094 133.20387268066406 284.81158447265625 124.29055786132812 286.95330810546875 C 116.6595230102539 284.8869934082031 111.29710388183594 279.27618408203125 109.38177490234375 270.65985107421875 C 111.2208251953125 262.6871643066406 116.65242004394531 257.12164306640625 125.57489013671875 255.0457305908203 C 133.3916778564453 257.0943603515625 138.87437438964844 262.62005615234375 140.78465270996094 270.2683410644531" stroke-width="0.0" fill="rgb(2, 1, 1)" opacity="1.0"/>
    <path d="M 118.517578125 272.3691711425781 C 116.75029754638672 280.2857666015625 111.32339477539062 285.8583679199219 103.77495574951172 287.89447021484375 C 95.2369384765625 285.3463134765625 89.83045196533203 279.7070617675781 88.11601257324219 272.1687316894531 C 90.23605346679688 264.6348571777344 95.53966522216797 258.9328918457031 103.44156646728516 256.6554870605469 C 111.16880798339844 258.3191833496094 116.60442352294922 263.8535461425781 118.517578125 272.3691711425781" stroke-width="0.0" fill="rgb(66, 66, 72)" opacity="0.99038124"/>
    <path d="M 158.91281127929688 355.71636962890625 C 156.86448669433594 363.354736328125 151.3603973388672 368.8780212402344 142.71253967285156 370.94659423828125 C 134.67184448242188 368.8753356933594 129.30853271484375 363.2652282714844 127.67926025390625 355.3721618652344 C 129.98757934570312 347.470458984375 135.46238708496094 341.9613037109375 142.85897827148438 340.3091735839844 C 150.5670928955078 342.18133544921875 156.57864379882812 347.1483154296875 158.91281127929688 355.71636962890625" stroke-width="0.0" fill="rgb(42, 52, 68)" opacity="0.99096024"/>
    <path d="M 218.0601043701172 84.21221160888672 C 216.15235900878906 90.73455810546875 210.81097412109375 96.3766860961914 203.71292114257812 98.76325225830078 C 196.5 96.9903793334961 191.00961303710938 91.5 188.99984741210938 83.99958038330078 C 191.00482177734375 76.48694610595703 196.45213317871094 70.8887939453125 204.5028839111328 68.16437530517578 C 210.7699737548828 71.57903289794922 216.13746643066406 77.29933166503906 218.0601043701172 84.21221160888672" stroke-width="0.0" fill="rgb(52, 65, 85)" opacity="0.990037"/>
    <path d="M 240.9174346923828 429.18609619140625 C 238.0167236328125 437.4701843261719 232.4441680908203 442.9215393066406 224.1379852294922 445.92401123046875 C 216.61538696289062 443.9026184082031 211.10574340820312 438.3805847167969 209.05442810058594 430.7768859863281 C 211.39991760253906 422.1298522949219 217.35577392578125 416.94830322265625 225.21383666992188 414.8418884277344 C 233.17210388183594 416.4490661621094 238.85357666015625 421.7216491699219 240.9174346923828 429.18609619140625" stroke-width="0.0" fill="rgb(8, 10, 19)" opacity="0.9907187"/>
    <path d="M 197.94850158691406 483.1578369140625 C 194.22808837890625 490.646728515625 188.60821533203125 496.06951904296875 181.30490112304688 498.0336608886719 C 175.32235717773438 496.10894775390625 169.70118713378906 490.742919921875 167.30691528320312 483.63592529296875 C 168.99172973632812 476.45068359375 174.30807495117188 470.6019287109375 182.83074951171875 468.06201171875 C 190.4048309326172 470.0890197753906 195.9130859375 475.59429931640625 197.94850158691406 483.1578369140625" stroke-width="0.0" fill="rgb(2, 2, 3)" opacity="0.99001634"/>
    <path d="M 196.95953369140625 398.6282653808594 C 194.91615295410156 406.40789794921875 189.40464782714844 411.9084167480469 181.86062622070312 413.92279052734375 C 173.48170471191406 411.0230407714844 168.0198974609375 405.505859375 166.11026000976562 398.0030822753906 C 168.0360107421875 390.51373291015625 173.50726318359375 385.0137939453125 181.17823791503906 382.8836975097656 C 189.1543731689453 384.4890441894531 194.86239624023438 389.71978759765625 196.95953369140625 398.6282653808594" stroke-width="0.0" fill="rgb(0, 0, 1)" opacity="1.0"/>
    <path d="M 158.71900939941406 150.26087951660156 C 155.22897338867188 157.778564453125 149.81121826171875 163.3318328857422 142.63111877441406 165.6487579345703 C 135.5 163.99038696289062 130.00961303710938 158.5 128.7309112548828 151.68418884277344 C 130.86013793945312 144.3448028564453 136.3582000732422 138.89633178710938 143.4312286376953 136.95632934570312 C 149.85658264160156 138.81752014160156 156.5224151611328 143.71051025390625 158.71900939941406 150.26087951660156" stroke-width="0.0" fill="rgb(20, 24, 29)" opacity="0.9900143"/>
    <path d="M 118.88700866699219 311.3194580078125 C 116.46546173095703 319.2609558105469 109.9040756225586 324.2345275878906 102.78425598144531 326.0792541503906 C 96.07546997070312 324.2645263671875 90.2946548461914 319.0860900878906 87.73473358154297 311.6591491699219 C 89.40276336669922 303.8335876464844 94.75099182128906 298.1773986816406 102.47865295410156 296.0860595703125 C 111.30525970458984 298.1749267578125 116.83480834960938 303.69085693359375 118.88700866699219 311.3194580078125" stroke-width="0.0" fill="rgb(185, 188, 192)" opacity="1.0"/>
    <path d="M 157.8699188232422 303.7528381347656 C 155.84002685546875 311.3056640625 150.29002380371094 316.80303955078125 142.63583374023438 318.8574523925781 C 133.9387969970703 316.4385070800781 128.1687774658203 311.219970703125 126.05867767333984 303.7080078125 C 128.36961364746094 295.0840148925781 134.30714416503906 289.9187316894531 141.99276733398438 287.9921875 C 149.55528259277344 289.98095703125 155.19895935058594 295.38824462890625 157.8699188232422 303.7528381347656" stroke-width="0.0" fill="rgb(55, 61, 83)" opacity="1.0"/>
    <path d="M 100.77235412597656 316.61602783203125 C 98.77882385253906 324.2378234863281 93.2603988647461 329.8249206542969 84.59463500976562 331.9507751464844 C 76.67103576660156 329.87408447265625 71.2950210571289 324.270751953125 69.65711975097656 316.3997497558594 C 72.00395965576172 308.4584045410156 77.30260467529297 302.5853576660156 85.80335235595703 300.0615539550781 C 93.33375549316406 302.118408203125 98.70783233642578 307.7285461425781 100.77235412597656 316.61602783203125" stroke-width="0.0" fill="rgb(18, 17, 19)" opacity="1.0"/>
    <path d="M 158.99700927734375 484.5517272949219 C 157.54806518554688 491.54296875 151.09954833984375 496.4430847167969 143.76361083984375 498.2530517578125 C 136.12403869628906 496.9053955078125 130.28431701660156 492.08270263671875 128.26669311523438 484.0439758300781 C 130.29269409179688 475.8488464355469 135.87916564941406 470.3777160644531 143.72537231445312 468.4848937988281 C 151.97555541992188 470.5484619140625 157.43287658691406 476.02777099609375 158.99700927734375 484.5517272949219" stroke-width="0.0" fill="rgb(247, 229, 77)" opacity="1.0"/>
    <path d="M 276.0043029785156 203.99185180664062 C 273.9903869628906 211.5 268.5 216.99038696289062 260.30926513671875 219.81129455566406 C 252.83609008789062 217.76992797851562 247.60763549804688 212.0325469970703 245.38877868652344 203.54786682128906 C 247.33848571777344 195.88905334472656 252.9265899658203 190.44908142089844 260.69000244140625 188.7261505126953 C 268.6206359863281 190.82728576660156 274.0338439941406 196.42263793945312 276.0043029785156 203.99185180664062" stroke-width="0.0" fill="rgb(92, 104, 122)" opacity="1.0"/>
    <path d="M 255.79342651367188 213.84600830078125 C 253.89898681640625 221.39601135253906 248.39878845214844 226.9063720703125 239.6150665283203 228.95925903320312 C 231.60313415527344 226.91085815429688 226.10464477539062 221.39007568359375 224.06138610839844 213.58518981933594 C 226.17617797851562 204.75399780273438 231.85231018066406 199.45855712890625 239.5840301513672 198.1954345703125 C 246.92364501953125 200.5684356689453 252.31463623046875 206.11512756347656 255.79342651367188 213.84600830078125" stroke-width="0.0" fill="rgb(2, 2, 2)" opacity="0.9900608"/>
    <path d="M 206.73538208007812 266.59375 C 204.66812133789062 273.8619079589844 198.14683532714844 278.3646545410156 190.49981689453125 280.3719482421875 C 183.5 278.9903869628906 178.00961303710938 273.5 176.14810180664062 266.0677795410156 C 178.07675170898438 258.51068115234375 183.475341796875 252.95965576171875 190.97323608398438 250.95941162109375 C 198.5 253.00961303710938 203.99038696289062 258.5 206.73538208007812 266.59375" stroke-width="0.0" fill="rgb(47, 51, 64)" opacity="0.9901003"/>
    <path d="M 207.70565795898438 173.5485076904297 C 204.8641815185547 181.33209228515625 199.28472900390625 186.711181640625 191.9610137939453 188.738037109375 C 184.9215545654297 186.64170837402344 179.55923461914062 181.0161895751953 176.8590545654297 174.30511474609375 C 179.76126098632812 167.2633056640625 185.2985076904297 161.85853576660156 191.53286743164062 159.95033264160156 C 198.70700073242188 161.8773651123047 204.74569702148438 167.16912841796875 207.70565795898438 173.5485076904297" stroke-width="0.0" fill="rgb(55, 52, 41)" opacity="0.990013"/>
    <path d="M 133.96253967285156 338.0158386230469 C 131.99038696289062 345.5 126.5 350.9903869628906 119.0 353.0 C 111.50006103515625 350.9903564453125 106.01071166992188 345.4996337890625 104.02696990966797 338.00579833984375 C 106.02290344238281 330.5111389160156 111.51115417480469 325.0230712890625 119.00714111328125 323.01361083984375 C 126.4952621459961 325.01214599609375 131.97268676757812 330.5091247558594 133.96253967285156 338.0158386230469" stroke-width="0.0" fill="rgb(2, 2, 3)" opacity="0.9975857"/>
    <path d="M 274.0880126953125 172.9104461669922 C 273.6741638183594 179.955322265625 267.6925048828125 185.04220581054688 260.4453125 186.4499969482422 C 252.9906768798828 184.42025756835938 247.3750457763672 179.07229614257812 244.12501525878906 171.27711486816406 C 246.27642822265625 163.9551544189453 252.1768035888672 158.82891845703125 259.3088684082031 157.67568969726562 C 266.6180114746094 159.88357543945312 272.06610107421875 165.39990234375 274.0880126953125 172.9104461669922" stroke-width="0.0" fill="rgb(6, 6, 12)" opacity="0.99004436"/>
    <path d="M 230.11944580078125 181.88232421875 C 227.99038696289062 189.5 222.5 194.99038696289062 214.99639892578125 197.00181579589844 C 207.45477294921875 195.0128173828125 201.79957580566406 189.60426330566406 199.20355224609375 181.4844970703125 C 201.3187713623047 173.8231658935547 206.7721405029297 168.2022705078125 214.25091552734375 166.22486877441406 C 222.66070556640625 169.1228790283203 228.2655487060547 174.24908447265625 230.11944580078125 181.88232421875" stroke-width="0.0" fill="rgb(104, 127, 145)" opacity="0.990613"/>
    <path d="M 191.62741088867188 278.3248291015625 C 189.99038696289062 285.5 184.5 290.9903869628906 177.0 293.0 C 169.5 290.9903869628906 164.00961303710938 285.5 161.89678955078125 277.8756103515625 C 163.6590576171875 270.0782165527344 168.98822021484375 264.3897705078125 176.39505004882812 262.57177734375 C 183.98583984375 265.5419006347656 189.43772888183594 271.0215759277344 191.62741088867188 278.3248291015625" stroke-width="0.0" fill="rgb(202, 164, 29)" opacity="0.99049324"/>
    <path d="M 132.93426513671875 187.5097198486328 C 130.75733947753906 196.11949157714844 124.94740295410156 201.29891967773438 116.5535659790039 203.47206115722656 C 108.74413299560547 201.73072814941406 103.24122619628906 196.26466369628906 102.82084655761719 188.71836853027344 C 104.792236328125 181.23887634277344 110.2177505493164 175.73074340820312 117.80113220214844 172.146728515625 C 125.34628295898438 174.1408233642578 130.86181640625 179.6528778076172 132.93426513671875 187.5097198486328" stroke-width="0.0" fill="rgb(102, 111, 129)" opacity="1.0"/>
    <path d="M 264.91650390625 279.8298034667969 C 262.8948669433594 287.36676025390625 257.32916259765625 292.78326416015625 249.5157470703125 294.4755859375 C 241.5 291.9903869628906 236.00961303710938 286.5 233.8794708251953 278.8153381347656 C 235.4912872314453 270.86260986328125 240.75088500976562 265.1684875488281 248.22267150878906 263.1241149902344 C 256.48779296875 266.0136413574219 262.0884704589844 271.4824523925781 264.91650390625 279.8298034667969" stroke-width="0.0" fill="rgb(2, 2, 2)" opacity="1.0"/>
    <path d="M 263.31640625 442.1893615722656 C 261.636474609375 450.22406005859375 256.2994079589844 455.85687255859375 248.7923126220703 457.9001770019531 C 240.48155212402344 455.0493469238281 235.009033203125 449.5019226074219 232.76004028320312 441.779296875 C 234.48147583007812 433.853515625 239.73480224609375 428.1512145996094 248.20863342285156 426.0440979003906 C 256.2796936035156 428.1383361816406 261.51031494140625 433.8456115722656 263.31640625 442.1893615722656" stroke-width="0.0" fill="rgb(7, 8, 10)" opacity="0.9906601"/>
    <path d="M 212.27774047851562 82.88079071044922 C 209.99081420898438 90.5001220703125 204.5 95.9903793334961 197.0 98.0 C 189.5 95.9903793334961 184.00961303710938 90.5 181.15020751953125 82.24958801269531 C 183.1729736328125 74.72456359863281 188.76486206054688 69.2739028930664 196.53700256347656 67.723388671875 C 204.62380981445312 69.79837799072266 210.12554931640625 75.40154266357422 212.27774047851562 82.88079071044922" stroke-width="0.0" fill="rgb(60, 70, 91)" opacity="0.9902258"/>
    <path d="M 183.3447265625 230.63449096679688 C 180.99038696289062 238.5 175.5 243.99038696289062 168.0 246.0 C 160.5 243.99038696289062 155.00961303710938 238.5 152.84938049316406 230.79757690429688 C 154.48585510253906 222.87332153320312 159.77142333984375 217.18994140625 167.60498046875 215.0891876220703 C 176.2527313232422 217.19808959960938 181.6523895263672 222.7977752685547 183.3447265625 230.63449096679688" stroke-width="0.0" fill="rgb(48, 56, 73)" opacity="1.0"/>
    <path d="M 214.16258239746094 133.1910858154297 C 212.45294189453125 141.0221405029297 207.08200073242188 146.6415557861328 198.69639587402344 148.58963012695312 C 191.21994018554688 146.49102783203125 185.95603942871094 140.60952758789062 183.17726135253906 132.27359008789062 C 185.192626953125 124.85636901855469 191.93881225585938 120.82518005371094 199.8127899169922 118.94380950927734 C 206.45655822753906 120.1438980102539 211.9893035888672 125.50364685058594 214.16258239746094 133.1910858154297" stroke-width="0.0" fill="rgb(2, 3, 2)" opacity="0.9900376"/>
    <path d="M 216.9213104248047 255.29273986816406 C 214.798095703125 264.2835998535156 209.2979278564453 269.83123779296875 201.72450256347656 271.8068542480469 C 193.516357421875 268.9626159667969 188.01625061035156 263.489990234375 185.8829345703125 255.91714477539062 C 187.8719024658203 248.4092254638672 193.43772888183594 242.96505737304688 201.7262420654297 240.21739196777344 C 209.36337280273438 242.13818359375 214.88670349121094 247.62745666503906 216.9213104248047 255.29273986816406" stroke-width="0.0" fill="rgb(41, 51, 63)" opacity="1.0"/>
    <path d="M 276.7930603027344 333.2398681640625 C 273.98101806640625 341.49462890625 268.4968566894531 346.9885559082031 260.3822937011719 349.6205749511719 C 252.6455841064453 347.8271179199219 247.0956573486328 342.38189697265625 245.04022216796875 333.8643798828125 C 247.09298706054688 325.6021423339844 252.6057586669922 320.10247802734375 261.102294921875 318.1145935058594 C 269.3966064453125 320.09967041015625 274.8851013183594 325.60870361328125 276.7930603027344 333.2398681640625" stroke-width="0.0" fill="rgb(5, 5, 10)" opacity="0.99081695"/>
    <path d="M 264.1294860839844 153.64036560058594 C 263.0100402832031 160.60240173339844 257.5426940917969 165.82696533203125 249.2084503173828 168.8185577392578 C 241.63475036621094 166.8738250732422 236.1170196533203 161.36871337890625 234.05870056152344 153.54345703125 C 236.17616271972656 144.7572479248047 241.91192626953125 140.05999755859375 249.54087829589844 138.88037109375 C 256.7460632324219 140.79202270507812 262.1876220703125 146.26193237304688 264.1294860839844 153.64036560058594" stroke-width="0.0" fill="rgb(89, 107, 131)" opacity="0.9900589"/>
    <path d="M 249.9547576904297 356.7919006347656 C 247.8931884765625 365.3819274902344 242.38368225097656 370.89727783203125 234.5198516845703 372.952880859375 C 225.644775390625 370.875 220.1372833251953 365.3498840332031 218.07574462890625 357.4856872558594 C 220.185546875 348.7265319824219 225.73556518554688 343.2052917480469 234.72486877441406 341.06414794921875 C 242.3835906982422 343.1051330566406 247.896240234375 348.6159362792969 249.9547576904297 356.7919006347656" stroke-width="0.0" fill="rgb(33, 42, 57)" opacity="0.9903532"/>
    <path d="M 288.9537353515625 392.3053283691406 C 286.898681640625 400.3865966796875 281.3856201171875 405.89642333984375 273.0965576171875 407.95037841796875 C 264.60931396484375 405.89874267578125 259.0977478027344 400.3921203613281 257.0418701171875 392.352783203125 C 259.1210632324219 383.6702880859375 264.7373352050781 378.315185546875 272.9901123046875 376.5304870605469 C 281.25115966796875 378.3247985839844 286.8719787597656 383.68011474609375 288.9537353515625 392.3053283691406" stroke-width="0.0" fill="rgb(13, 17, 24)" opacity="1.0"/>
    <path d="M 248.9585418701172 398.5665283203125 C 246.9049835205078 406.3928527832031 241.3893280029297 411.8963317871094 233.82476806640625 413.8885498046875 C 225.2211456298828 411.1429138183594 219.33058166503906 405.98431396484375 217.0699462890625 397.2855224609375 C 219.11599731445312 389.6236572265625 224.6160888671875 384.0987854003906 232.50547790527344 382.0450134277344 C 241.38584899902344 384.1036682128906 246.89459228515625 389.61492919921875 248.9585418701172 398.5665283203125" stroke-width="0.0" fill="rgb(27, 36, 47)" opacity="1.0"/>
    <path d="M 220.9286346435547 204.57240295410156 C 218.83706665039062 212.27647399902344 213.19859313964844 217.59840393066406 205.19419860839844 218.75326538085938 C 197.7179718017578 216.84954833984375 192.45201110839844 211.1830291748047 190.43240356445312 203.6929473876953 C 192.00961303710938 196.5 197.5 191.00961303710938 205.0157928466797 188.99276733398438 C 212.72230529785156 190.89990234375 218.6593017578125 196.04891967773438 220.9286346435547 204.57240295410156" stroke-width="0.0" fill="rgb(11, 13, 27)" opacity="0.9903362"/>
    <path d="M 214.08746337890625 89.57954406738281 C 212.22586059570312 97.03819274902344 207.74510192871094 103.39729309082031 200.11721801757812 104.0794677734375 C 192.61550903320312 102.68299865722656 187.0116729736328 97.48958587646484 185.0010223388672 90.00272369384766 C 187.0261993408203 82.53546142578125 192.58883666992188 77.19745635986328 199.83090209960938 75.6395263671875 C 206.9359588623047 77.53477478027344 212.25230407714844 83.14202880859375 214.08746337890625 89.57954406738281" stroke-width="0.0" fill="rgb(13, 14, 26)" opacity="0.9900663"/>
    <path d="M 135.010009765625 218.938720703125 C 132.88633728027344 226.36502075195312 127.3154296875 231.7269287109375 119.86534881591797 233.53533935546875 C 112.5309829711914 231.91371154785156 106.9949722290039 226.49566650390625 104.7072525024414 218.8968505859375 C 106.8996353149414 211.53506469726562 112.66910552978516 206.32144165039062 120.15780639648438 204.64645385742188 C 127.52525329589844 206.0968780517578 133.07862854003906 211.42562866210938 135.010009765625 218.938720703125" stroke-width="0.0" fill="rgb(36, 48, 59)" opacity="0.99016446"/>
    <path d="M 191.0006561279297 196.0247344970703 C 189.00015258789062 203.4682159423828 183.369873046875 208.70620727539062 176.34800720214844 210.1881103515625 C 168.76760864257812 208.56150817871094 163.07774353027344 203.35345458984375 160.56185913085938 195.7977752685547 C 163.0076141357422 188.8664093017578 169.05006408691406 183.6982879638672 176.32102966308594 181.8780059814453 C 183.15036010742188 183.55615234375 188.8936309814453 188.6832275390625 191.0006561279297 196.0247344970703" stroke-width="0.0" fill="rgb(6, 7, 13)" opacity="0.99004745"/>
    <path d="M 173.0 238.0 C 170.99038696289062 245.5 165.5 250.99038696289062 157.25733947753906 253.79190063476562 C 149.63565063476562 251.867919921875 144.14207458496094 246.36094665527344 142.24853515625 238.71151733398438 C 145.00677490234375 230.49778747558594 150.49803161621094 225.0078582763672 157.99053955078125 223.11654663085938 C 165.4986572265625 225.01414489746094 170.9903564453125 230.5001220703125 173.0 238.0" stroke-width="0.0" fill="rgb(6, 6, 14)" opacity="1.0"/>
    <path d="M 163.13035583496094 174.9970703125 C 161.4472198486328 183.08323669433594 156.20660400390625 188.8021697998047 147.3549041748047 190.93850708007812 C 139.6134796142578 188.89321899414062 134.10035705566406 183.38914489746094 132.08448791503906 175.8491668701172 C 135.00933837890625 167.50015258789062 140.50331115722656 162.0208740234375 148.3120574951172 159.52964782714844 C 155.54354858398438 161.78842163085938 161.05084228515625 167.5146026611328 163.13035583496094 174.9970703125" stroke-width="0.0" fill="rgb(95, 112, 137)" opacity="1.0"/>
    <path d="M 161.03213500976562 275.8988037109375 C 158.99038696289062 283.5 153.5 288.9903869628906 146.03030395507812 290.9836730957031 C 138.76223754882812 288.83612060546875 133.62672424316406 283.0663757324219 131.91859436035156 276.590087890625 C 133.80503845214844 269.151611328125 138.67262268066406 262.36358642578125 145.80543518066406 260.1541442871094 C 154.10243225097656 262.2898254394531 159.35983276367188 268.01593017578125 161.03213500976562 275.8988037109375" stroke-width="0.0" fill="rgb(229, 182, 13)" opacity="0.990054"/>
    <path d="M 204.1220245361328 233.0936279296875 C 202.16152954101562 240.57823181152344 196.4827117919922 245.86700439453125 188.90631103515625 247.83456420898438 C 181.5 245.99038696289062 176.00961303710938 240.5 174.049072265625 233.0357666015625 C 176.0862579345703 225.5567626953125 181.54330444335938 220.04164123535156 189.00828552246094 218.00611877441406 C 196.5 220.00961303710938 201.99038696289062 225.5 204.1220245361328 233.0936279296875" stroke-width="0.0" fill="rgb(23, 30, 36)" opacity="0.9914671"/>
    <path d="M 296.05938720703125 245.91046142578125 C 294.04107666015625 253.6171875 288.80218505859375 259.519287109375 280.93511962890625 261.87847900390625 C 273.0738220214844 259.5950622558594 267.7723083496094 253.78501892089844 265.9041748046875 246.08810424804688 C 268.0096130371094 238.5 273.5 233.00961303710938 281.7488708496094 230.13064575195312 C 289.15997314453125 232.21719360351562 294.3456726074219 238.0006103515625 296.05938720703125 245.91046142578125" stroke-width="0.0" fill="rgb(68, 66, 71)" opacity="0.99038136"/>
    <path d="M 196.93756103515625 383.7195129394531 C 194.83311462402344 391.23773193359375 189.10302734375 396.4596862792969 181.1188507080078 398.1180725097656 C 173.15313720703125 396.19976806640625 167.27584838867188 391.0538330078125 165.0518341064453 382.2461242675781 C 167.09959411621094 374.6081237792969 172.60696411132812 369.0972900390625 180.16262817382812 367.1033630371094 C 188.6464385986328 369.9267272949219 194.55319213867188 375.16357421875 196.93756103515625 383.7195129394531" stroke-width="0.0" fill="rgb(0, 1, 2)" opacity="1.0"/>
    <path d="M 207.0882110595703 90.9377212524414 C 205.05418395996094 98.46159362792969 199.1864471435547 103.404541015625 191.37232971191406 105.08855438232422 C 183.65997314453125 104.76952362060547 178.09750366210938 99.3785171508789 176.06935119628906 91.80526733398438 C 178.21226501464844 82.75880432128906 183.8189239501953 77.41182708740234 191.82579040527344 76.20777130126953 C 199.6975555419922 77.81666564941406 205.21519470214844 83.29315185546875 207.0882110595703 90.9377212524414" stroke-width="0.0" fill="rgb(30, 40, 53)" opacity="0.9900802"/>
    <path d="M 287.0791320800781 221.77999877929688 C 286.8320617675781 229.31939697265625 281.292236328125 234.7379913330078 273.361328125 236.15774536132812 C 264.9944152832031 234.33802795410156 259.19781494140625 229.17864990234375 257.0847473144531 221.7571258544922 C 259.6890563964844 213.4664306640625 265.6552429199219 208.23342895507812 273.5272521972656 205.46090698242188 C 281.1883239746094 207.27427673339844 285.4626159667969 212.9799346923828 287.0791320800781 221.77999877929688" stroke-width="0.0" fill="rgb(23, 26, 42)" opacity="0.99012876"/>
    <path d="M 93.25381469726562 271.5888366699219 C 91.3341293334961 278.927001953125 85.99372100830078 284.5370788574219 78.74964141845703 286.9349670410156 C 71.56110382080078 285.125732421875 66.67877197265625 279.09466552734375 64.96112060546875 272.7995300292969 C 66.92903137207031 265.4014587402344 72.40169525146484 259.9294738769531 79.87845611572266 257.94622802734375 C 87.1680908203125 258.25946044921875 92.1833267211914 263.95721435546875 93.25381469726562 271.5888366699219" stroke-width="0.0" fill="rgb(15, 15, 17)" opacity="0.99001044"/>
    <path d="M 202.91519165039062 352.1492004394531 C 199.9797821044922 360.5075988769531 194.5216827392578 366.0283508300781 187.0229034423828 368.05780029296875 C 179.499755859375 365.991943359375 174.02386474609375 360.49591064453125 171.0823974609375 352.1372375488281 C 173.0891571044922 344.59552001953125 178.59461975097656 339.0872802734375 186.56939697265625 337.04425048828125 C 195.38951110839844 339.1002197265625 200.9000701904297 344.61041259765625 202.91519165039062 352.1492004394531" stroke-width="0.0" fill="rgb(0, 0, 2)" opacity="1.0"/>
    <path d="M 161.94723510742188 461.03887939453125 C 159.84555053710938 469.2216796875 153.8040313720703 473.3879089355469 145.13804626464844 476.8194580078125 C 137.61276245117188 474.8951416015625 132.1259765625 469.3799743652344 130.2362060546875 461.73486328125 C 133.0107879638672 453.5005187988281 138.49989318847656 448.0086364746094 146.85325622558594 445.0832824707031 C 154.39053344726562 447.0976257324219 159.89242553710938 452.6135559082031 161.94723510742188 461.03887939453125" stroke-width="0.0" fill="rgb(16, 22, 22)" opacity="0.9908632"/>
    <path d="M 293.08331298828125 195.0947723388672 C 291.1839904785156 201.7531280517578 285.8345031738281 207.5429229736328 279.5270690917969 210.56222534179688 C 271.6672668457031 207.6636962890625 265.93865966796875 202.46327209472656 263.4255676269531 194.64862060546875 C 265.4574890136719 186.9442138671875 270.84429931640625 181.2318878173828 278.1584167480469 179.67495727539062 C 285.7019958496094 182.83279418945312 291.1570129394531 188.30203247070312 293.08331298828125 195.0947723388672" stroke-width="0.0" fill="rgb(86, 92, 111)" opacity="0.9900372"/>
    <path d="M 287.2289733886719 373.1985168457031 C 285.37835693359375 380.8467712402344 279.81292724609375 386.26751708984375 271.56561279296875 388.4633483886719 C 263.7007751464844 386.7478332519531 258.11151123046875 381.34918212890625 256.04193115234375 373.52545166015625 C 258.140869140625 364.71636962890625 263.8261413574219 359.4526672363281 271.7869873046875 357.85614013671875 C 279.4969482421875 360.014892578125 284.9893493652344 365.5018005371094 287.2289733886719 373.1985168457031" stroke-width="0.0" fill="rgb(9, 13, 19)" opacity="1.0"/>
    <path d="M 225.03897094726562 126.70585632324219 C 223.13937377929688 132.76419067382812 218.01669311523438 139.38284301757812 211.4395751953125 141.44505310058594 C 203.41624450683594 139.15155029296875 198.03501892089844 133.5267333984375 195.83102416992188 125.94852447509766 C 198.14561462402344 118.33033752441406 202.94322204589844 112.23267364501953 210.1046905517578 111.80500030517578 C 217.60440063476562 113.919921875 223.06900024414062 119.40037536621094 225.03897094726562 126.70585632324219" stroke-width="0.0" fill="rgb(16, 21, 38)" opacity="0.9900094"/>
    <path d="M 180.0448760986328 282.9364318847656 C 177.99032592773438 290.4998779296875 172.50035095214844 295.9921569824219 164.3834228515625 298.812255859375 C 157.11172485351562 296.59033203125 151.89906311035156 290.6974792480469 150.07440185546875 283.0669250488281 C 152.2157745361328 275.8644104003906 157.96595764160156 270.5684814453125 165.60507202148438 267.41754150390625 C 172.93606567382812 269.43292236328125 178.2205047607422 275.182861328125 180.0448760986328 282.9364318847656" stroke-width="0.0" fill="rgb(111, 76, 11)" opacity="0.9900506"/>
    <path d="M 303.9508361816406 332.64385986328125 C 301.8553771972656 341.28778076171875 296.1932373046875 346.5791931152344 288.2413635253906 348.174072265625 C 280.49957275390625 345.98992919921875 275.00250244140625 340.5025939941406 272.1492614746094 332.20562744140625 C 274.1116027832031 324.6180725097656 279.6189880371094 319.1135559082031 287.37176513671875 317.07659912109375 C 296.2707214355469 319.2299499511719 301.8633728027344 324.68701171875 303.9508361816406 332.64385986328125" stroke-width="0.0" fill="rgb(9, 14, 17)" opacity="1.0"/>
    <path d="M 306.0402526855469 248.32289123535156 C 304.0919494628906 254.62985229492188 298.6493835449219 260.14849853515625 291.5219421386719 262.24725341796875 C 284.81170654296875 260.5748596191406 279.4152526855469 255.189208984375 277.71929931640625 248.15037536621094 C 279.4761047363281 240.91343688964844 285.0137634277344 235.68972778320312 291.23712158203125 233.95094299316406 C 298.6095886230469 235.9175567626953 304.0796813964844 241.39163208007812 306.0402526855469 248.32289123535156" stroke-width="0.0" fill="rgb(18, 18, 20)" opacity="0.9900079"/>
    <path d="M 243.2290496826172 189.8193359375 C 240.99014282226562 197.48716735839844 235.50547790527344 203.0548553466797 227.15814208984375 205.9237060546875 C 219.64718627929688 203.89256286621094 214.26821899414062 198.29745483398438 213.37864685058594 190.57957458496094 C 215.61622619628906 183.0927734375 221.1248321533203 177.7045135498047 228.7082977294922 175.75442504882812 C 236.13192749023438 176.29563903808594 241.46778869628906 181.94488525390625 243.2290496826172 189.8193359375" stroke-width="0.0" fill="rgb(10, 18, 30)" opacity="0.9900704"/>
    <path d="M 125.59716796875 466.2975158691406 C 124.537353515625 475.2033996582031 119.30714416503906 480.8716125488281 111.127197265625 482.95489501953125 C 102.6341552734375 480.89117431640625 97.27813720703125 475.3227844238281 96.95965576171875 467.8337097167969 C 98.9044189453125 460.30572509765625 103.80760192871094 453.2010192871094 111.5887222290039 451.0421142578125 C 119.37173461914062 453.1022644042969 124.84986114501953 458.6484069824219 125.59716796875 466.2975158691406" stroke-width="0.0" fill="rgb(7, 7, 10)" opacity="0.99003065"/>
    <path d="M 279.5149841308594 441.53900146484375 C 277.7899475097656 449.32879638671875 272.36322021484375 454.89056396484375 264.3782958984375 456.9539794921875 C 255.75250244140625 454.8426818847656 250.539306640625 449.10809326171875 248.83926391601562 441.0182189941406 C 250.6290283203125 433.0559997558594 255.99977111816406 427.4464111328125 263.64990234375 425.58868408203125 C 271.4992370605469 428.00994873046875 276.9883117675781 433.5012512207031 279.5149841308594 441.53900146484375" stroke-width="0.0" fill="rgb(10, 12, 19)" opacity="1.0"/>
    <path d="M 192.29107666015625 242.1087188720703 C 190.124755859375 249.59384155273438 184.57608032226562 255.06460571289062 177.05039978027344 256.997314453125 C 169.545654296875 254.93618774414062 164.04689025878906 249.45938110351562 162.0116424560547 241.9878692626953 C 164.00930786132812 234.4994354248047 169.4986572265625 229.00656127929688 177.01942443847656 226.8890380859375 C 184.5017852783203 229.0014190673828 189.98902893066406 234.5009307861328 192.29107666015625 242.1087188720703" stroke-width="0.0" fill="rgb(50, 59, 69)" opacity="0.9911314"/>
    <path d="M 174.70352172851562 238.2022705078125 C 173.00439453125 245.5082550048828 167.51025390625 251.00894165039062 160.00889587402344 253.0295867919922 C 152.49888610839844 250.99160766601562 147.0083465576172 245.5011444091797 144.9960174560547 237.99974060058594 C 147.00808715820312 230.49647521972656 152.49462890625 225.002197265625 159.8099365234375 223.2900390625 C 167.16751098632812 225.3807373046875 172.64633178710938 230.82351684570312 174.70352172851562 238.2022705078125" stroke-width="0.0" fill="rgb(7, 7, 20)" opacity="0.9906068"/>
    <path d="M 134.48663330078125 340.9017639160156 C 132.85325622558594 348.42877197265625 127.46414947509766 353.9700622558594 120.29801940917969 355.7392578125 C 113.16407012939453 353.380615234375 107.77470397949219 347.787109375 105.6584243774414 340.4145812988281 C 107.01075744628906 333.5008239746094 112.50069427490234 328.0103454589844 119.9997787475586 326.0010070800781 C 127.49517822265625 328.01220703125 132.94754028320312 333.5162658691406 134.48663330078125 340.9017639160156" stroke-width="0.0" fill="rgb(2, 2, 2)" opacity="0.9903416"/>
    <path d="M 152.8734893798828 402.1936950683594 C 149.9552001953125 410.53125 144.65921020507812 416.336669921875 136.16175842285156 418.9297180175781 C 128.60604858398438 416.90576171875 123.09679412841797 411.3927917480469 121.04898071289062 403.77130126953125 C 123.31596374511719 395.0305480957031 129.2833709716797 389.9145812988281 137.70970153808594 387.24334716796875 C 145.35337829589844 389.14605712890625 150.87149047851562 394.6405334472656 152.8734893798828 402.1936950683594" stroke-width="0.0" fill="rgb(18, 21, 31)" opacity="1.0"/>
    <path d="M 116.15703582763672 236.3393096923828 C 114.5650405883789 243.19586181640625 109.25592041015625 248.73944091796875 101.76988220214844 251.18280029296875 C 94.25909423828125 249.24853515625 89.10430908203125 243.66221618652344 87.81133270263672 236.12925720214844 C 88.59507751464844 227.87107849121094 93.80148315429688 222.27178955078125 101.40538024902344 221.41989135742188 C 108.96562957763672 223.56344604492188 114.33973693847656 229.0701141357422 116.15703582763672 236.3393096923828" stroke-width="0.0" fill="rgb(108, 112, 122)" opacity="0.99006146"/>
    <path d="M 132.90635681152344 435.1607971191406 C 129.87855529785156 443.4453125 124.65250396728516 449.41204833984375 116.16393280029297 451.9488830566406 C 108.67097473144531 449.8883361816406 104.58189392089844 444.1565246582031 102.9645767211914 436.8099060058594 C 104.92721557617188 429.39349365234375 110.37926483154297 423.8876647949219 117.90094757080078 420.0689392089844 C 125.40579223632812 422.0839538574219 130.90330505371094 427.5995788574219 132.90635681152344 435.1607971191406" stroke-width="0.0" fill="rgb(3, 3, 3)" opacity="0.9900182"/>
    <path d="M 137.29808044433594 357.559326171875 C 135.79014587402344 365.3310852050781 130.36854553222656 370.89776611328125 122.92912292480469 371.2665710449219 C 115.39675903320312 369.0760803222656 109.92725372314453 363.60174560546875 107.96442413330078 356.31109619140625 C 109.85350036621094 350.2388916015625 115.10282135009766 344.4746398925781 122.13175201416016 342.1030578613281 C 129.40408325195312 344.08154296875 134.7976531982422 349.63275146484375 137.29808044433594 357.559326171875" stroke-width="0.0" fill="rgb(2, 2, 4)" opacity="0.9900088"/>
    <path d="M 146.55140686035156 159.8814239501953 C 144.96026611328125 167.75387573242188 139.93820190429688 173.58692932128906 131.2931671142578 175.89158630371094 C 123.7362060546875 173.83413696289062 119.5112075805664 168.08154296875 117.95950317382812 160.79318237304688 C 119.92500305175781 153.39796447753906 125.39832305908203 147.92572021484375 132.84213256835938 145.91427612304688 C 139.35018920898438 147.25384521484375 144.88169860839844 152.6060028076172 146.55140686035156 159.8814239501953" stroke-width="0.0" fill="rgb(10, 11, 21)" opacity="0.9900133"/>
    <path d="M 219.1237030029297 201.97964477539062 C 217.09617614746094 209.6029815673828 211.6152801513672 215.13714599609375 204.10084533691406 217.14625549316406 C 196.49423217773438 214.99375915527344 190.9964141845703 209.50869750976562 188.99130249023438 202.0076141357422 C 191.01002502441406 194.4896697998047 196.4251708984375 188.80706787109375 203.740966796875 186.952392578125 C 211.643798828125 188.88279724121094 217.13780212402344 194.3517303466797 219.1237030029297 201.97964477539062" stroke-width="0.0" fill="rgb(18, 20, 32)" opacity="0.99165434"/>
    <path d="M 237.92771911621094 417.45855712890625 C 235.60499572753906 425.875 229.6470947265625 431.0539855957031 221.8129119873047 433.1444396972656 C 213.868408203125 431.5068359375 208.1603546142578 426.2520751953125 206.04563903808594 417.3973388671875 C 208.10272216796875 409.6148681640625 213.61802673339844 404.11077880859375 221.18853759765625 402.12554931640625 C 229.90277099609375 404.7886962890625 235.77110290527344 409.8829345703125 237.92771911621094 417.45855712890625" stroke-width="0.0" fill="rgb(11, 14, 20)" opacity="0.99021274"/>
    <path d="M 155.89292907714844 219.18394470214844 C 153.023681640625 227.5149688720703 147.50633239746094 232.99429321289062 140.01303100585938 234.94869995117188 C 132.44737243652344 233.0060272216797 126.84219360351562 227.5986785888672 124.70170593261719 219.97654724121094 C 126.58553314208984 211.93930053710938 131.78628540039062 206.1773223876953 140.4208984375 204.04974365234375 C 148.37374877929688 206.1114959716797 153.88223266601562 211.62890625 155.89292907714844 219.18394470214844" stroke-width="0.0" fill="rgb(8, 9, 18)" opacity="1.0"/>
    <path d="M 202.97915649414062 195.04141235351562 C 200.99078369140625 202.51248168945312 195.57054138183594 208.1754913330078 187.33937072753906 210.85484313964844 C 179.9865264892578 208.6901092529297 174.82089233398438 202.8137664794922 172.80714416503906 194.91712951660156 C 174.84291076660156 187.44459533691406 180.57945251464844 182.2349090576172 187.89520263671875 180.44961547851562 C 195.21083068847656 182.37535095214844 200.82591247558594 187.72702026367188 202.97915649414062 195.04141235351562" stroke-width="0.0" fill="rgb(17, 18, 31)" opacity="0.99013245"/>
    <path d="M 182.2994384765625 115.30267333984375 C 181.50390625 123.21668243408203 176.31553649902344 128.8734130859375 168.87548828125 130.91397094726562 C 161.34396362304688 127.1373519897461 155.88990783691406 121.6462631225586 153.95355224609375 115.26847076416016 C 155.8990936279297 108.3649673461914 161.35682678222656 102.87681579589844 168.8096923828125 99.22248840332031 C 175.76934814453125 101.37062072753906 180.51853942871094 107.78507995605469 182.2994384765625 115.30267333984375" stroke-width="0.0" fill="rgb(39, 47, 55)" opacity="0.99000806"/>
    <path d="M 196.7893829345703 283.6846008300781 C 194.4907684326172 291.83270263671875 188.69773864746094 297.10455322265625 181.1083526611328 298.9478759765625 C 173.89389038085938 296.69000244140625 168.62890625 290.99969482421875 166.72120666503906 283.40087890625 C 167.48989868164062 276.0751953125 173.23126220703125 271.1582336425781 180.8546142578125 269.73675537109375 C 188.81539916992188 271.2578125 194.67042541503906 275.958251953125 196.7893829345703 283.6846008300781" stroke-width="0.0" fill="rgb(248, 232, 68)" opacity="0.9901688"/>
    <path d="M 247.0502166748047 455.9441223144531 C 244.801025390625 463.34918212890625 239.38516235351562 468.9256286621094 231.47219848632812 471.5740051269531 C 223.68064880371094 469.77880859375 218.1079559326172 464.35955810546875 216.04403686523438 456.039794921875 C 218.11305236816406 447.646240234375 223.68576049804688 442.2245178222656 231.4898681640625 440.4582214355469 C 239.54193115234375 442.9493713378906 245.0237579345703 448.4657897949219 247.0502166748047 455.9441223144531" stroke-width="0.0" fill="rgb(14, 20, 27)" opacity="1.0"/>
    <path d="M 275.79425048828125 242.1698760986328 C 273.93310546875 249.45187377929688 268.48834228515625 255.05552673339844 260.42633056640625 257.6312561035156 C 252.6500244140625 255.8164520263672 247.09104919433594 250.38316345214844 245.03733825683594 242.4486541748047 C 247.088623046875 233.5965118408203 252.5970916748047 228.08987426757812 260.13568115234375 226.07662963867188 C 268.4460144042969 229.03977966308594 273.8026123046875 234.60301208496094 275.79425048828125 242.1698760986328" stroke-width="0.0" fill="rgb(24, 25, 31)" opacity="1.0"/>
    <path d="M 254.142578125 285.11199951171875 C 252.3108367919922 291.96844482421875 247.55636596679688 298.66204833984375 239.3167724609375 300.9387512207031 C 231.63290405273438 298.8826904296875 226.131591796875 293.36138916015625 224.08193969726562 285.4735412597656 C 226.1852569580078 276.7296142578125 231.7574462890625 271.2537841796875 239.27479553222656 269.31256103515625 C 246.80982971191406 272.7182312011719 252.24276733398438 278.2042236328125 254.142578125 285.11199951171875" stroke-width="0.0" fill="rgb(173, 131, 40)" opacity="0.99007934"/>
    <path d="M 208.30809020996094 224.77993774414062 C 206.0302276611328 232.49827575683594 200.41648864746094 237.77806091308594 193.10897827148438 239.34657287597656 C 185.76930236816406 237.62559509277344 180.18434143066406 232.29107666015625 177.27084350585938 224.35496520996094 C 179.21217346191406 216.72731018066406 184.71926879882812 211.19091796875 192.415771484375 209.13742065429688 C 201.00595092773438 211.41091918945312 206.42735290527344 217.0503387451172 208.30809020996094 224.77993774414062" stroke-width="0.0" fill="rgb(77, 89, 108)" opacity="0.9903132"/>
    <path d="M 281.581298828125 352.4778137207031 C 279.6407470703125 360.0525207519531 273.9603271484375 365.3555603027344 265.2667541503906 367.7869567871094 C 257.6199951171875 365.8742980957031 252.09547424316406 360.3912658691406 250.0463104248047 352.6667785644531 C 252.17538452148438 343.7867431640625 257.9498291015625 338.616943359375 265.9034729003906 336.927490234375 C 273.5030822753906 339.0007019042969 278.9869079589844 344.50054931640625 281.581298828125 352.4778137207031" stroke-width="0.0" fill="rgb(5, 7, 15)" opacity="1.0"/>
    <path d="M 155.2677764892578 293.6322937011719 C 154.24502563476562 300.57781982421875 148.43031311035156 305.81494140625 140.654296875 307.68951416015625 C 132.8743133544922 306.5503234863281 127.1694564819336 301.2378845214844 125.04439544677734 292.40765380859375 C 127.11151123046875 284.6466979980469 132.6915283203125 279.2422790527344 140.24472045898438 278.8985595703125 C 147.75271606445312 280.8206787109375 153.26513671875 286.21197509765625 155.2677764892578 293.6322937011719" stroke-width="0.0" fill="rgb(6, 4, 4)" opacity="0.99003065"/>
    <path d="M 196.53749084472656 298.2796325683594 C 194.75096130371094 305.4173889160156 189.70526123046875 311.46209716796875 181.5946502685547 313.7877197265625 C 173.7377166748047 311.76922607421875 168.1884765625 306.27874755859375 166.18902587890625 298.6800231933594 C 169.21331787109375 290.9112243652344 175.0463104248047 285.6766052246094 181.59422302246094 283.9051513671875 C 188.78663635253906 285.7845458984375 194.3261260986328 291.17425537109375 196.53749084472656 298.2796325683594" stroke-width="0.0" fill="rgb(43, 47, 54)" opacity="0.9900254"/>
    <path d="M 303.6338195800781 367.7947082519531 C 302.8756408691406 376.3759765625 297.3834533691406 381.8961486816406 289.7161865234375 383.948974609375 C 280.9071960449219 381.7569274902344 275.7855529785156 375.8759460449219 273.4765319824219 367.5138854980469 C 275.2734680175781 359.7764587402344 280.78607177734375 354.3049621582031 289.66009521484375 352.1944885253906 C 297.373291015625 354.1320495605469 302.88165283203125 359.621826171875 303.6338195800781 367.7947082519531" stroke-width="0.0" fill="rgb(15, 18, 25)" opacity="1.0"/>
  </g>
</svg>
