<?xml version="1.0" ?>
<svg xmlns="http://www.w3.org/2000/svg" version="1.1" width="600" height="600">
  <defs/>
  <g>
    <path d="M 404.0 311.0 C 401.9903869628906 318.5 396.5 323.9903869628906 388.939453125 326.0316467285156 C 381.0500183105469 324.2767639160156 375.2093200683594 319.1492614746094 373.0829162597656 311.74676513671875 C 375.7021789550781 303.3644104003906 381.4640808105469 297.996337890625 388.9988708496094 295.99957275390625 C 396.5 298.0096130371094 401.9903869628906 303.5 404.0 311.0" stroke-width="0.0" fill="rgb(9, 0, 3)" opacity="1.0"/>
    <path d="M 455.3453674316406 265.76104736328125 C 452.9903869628906 273.5 447.5 278.9903869628906 440.0 281.0 C 432.5 278.9903869628906 427.0096130371094 273.5 425.0 266.0 C 427.0096130371094 258.5 432.5 253.00961303710938 440.0328674316406 250.97817993164062 C 447.6911926269531 252.87754821777344 453.3590087890625 258.2332763671875 455.3453674316406 265.76104736328125" stroke-width="0.0" fill="rgb(193, 201, 207)" opacity="1.0"/>
    <path d="M 382.7156677246094 292.5052490234375 C 380.5765075683594 300.11224365234375 375.22235107421875 305.8221740722656 367.80218505859375 307.903564453125 C 359.5 304.9903564453125 354.0096130371094 299.5 352.0 292.0 C 354.0096130371094 284.5 359.5 279.0096130371094 367.0 277.0 C 374.5 279.0096130371094 379.9903564453125 284.5 382.7156677246094 292.5052490234375" stroke-width="0.0" fill="rgb(68, 30, 16)" opacity="0.9901166"/>
    <path d="M 344.0 186.0 C 341.9903869628906 193.5 336.5 198.99038696289062 329.0 201.0 C 321.5 198.99038696289062 316.0096130371094 193.5 314.0 186.0 C 316.0096130371094 178.5 321.5 173.00961303710938 329.0 171.0 C 336.5 173.00961303710938 341.9903869628906 178.5 344.0 186.0" stroke-width="0.0" fill="rgb(255, 252, 48)" opacity="1.0"/>
    <path d="M 367.0 282.0 C 364.9903869628906 289.5 359.5 294.9903869628906 352.0 297.0 C 344.5 294.9903869628906 339.0096130371094 289.5 337.0 282.0 C 339.0096130371094 274.5 344.5 269.0096130371094 352.0 267.0 C 359.5 269.0096130371094 364.9903869628906 274.5 367.0 282.0" stroke-width="0.0" fill="rgb(23, 25, 39)" opacity="1.0"/>
    <path d="M 427.2073669433594 121.13304901123047 C 424.96661376953125 128.4903564453125 419.4968566894531 133.98928833007812 411.9999084472656 135.99996948242188 C 404.5 133.99038696289062 399.0096130371094 128.5 397.0 121.0 C 399.0096130371094 113.5 404.5 108.0096206665039 411.9591979980469 106.03437042236328 C 419.3489990234375 108.1393051147461 424.7637634277344 113.68016052246094 427.2073669433594 121.13304901123047" stroke-width="0.0" fill="rgb(191, 197, 209)" opacity="0.99081004"/>
    <path d="M 362.0 194.0 C 359.9903869628906 201.5 354.5 206.99038696289062 347.00634765625 208.98756408691406 C 339.50482177734375 206.9809112548828 334.0108337402344 201.49758911132812 332.0000915527344 193.9998016357422 C 334.0096130371094 186.5 339.5 181.00961303710938 347.0 179.0 C 354.5 181.00961303710938 359.9903869628906 186.5 362.0 194.0" stroke-width="0.0" fill="rgb(4, 3, 0)" opacity="0.99313706"/>
    <path d="M 386.0 236.0 C 383.9903869628906 243.5 378.5 248.99038696289062 371.0 251.0 C 363.5 248.99038696289062 358.0096130371094 243.5 356.0 236.0 C 358.0096130371094 228.5 363.5 223.00961303710938 371.0 221.0 C 378.5 223.00961303710938 383.9903869628906 228.5 386.0 236.0" stroke-width="0.0" fill="rgb(7, 12, 23)" opacity="1.0"/>
    <path d="M 405.0 308.0 C 402.9903869628906 315.5 397.5 320.9903869628906 390.0010681152344 322.9993896484375 C 382.5099182128906 320.9848327636719 377.0413818359375 315.4823303222656 375.0359802246094 307.9803161621094 C 377.0096130371094 300.5 382.5 295.0096130371094 390.0 293.0 C 397.5 295.0096130371094 402.9903869628906 300.5 405.0 308.0" stroke-width="0.0" fill="rgb(46, 17, 3)" opacity="0.99990827"/>
    <path d="M 427.0 169.0 C 424.9903869628906 176.5 419.5 181.99038696289062 412.0 184.0 C 404.5 181.99038696289062 399.0096130371094 176.5 397.0 169.0 C 399.0096130371094 161.5 404.5 156.00961303710938 412.0 154.0 C 419.5 156.00961303710938 424.9903869628906 161.5 427.0 169.0" stroke-width="0.0" fill="rgb(0, 11, 19)" opacity="1.0"/>
    <path d="M 457.81854248046875 250.75863647460938 C 455.86505126953125 258.34027099609375 450.3081970214844 263.7658996582031 442.49908447265625 265.4688415527344 C 434.5158386230469 262.9858093261719 429.27850341796875 257.3963623046875 427.70721435546875 249.5633087158203 C 429.0096130371094 242.5 434.5 237.00961303710938 442.0 235.0 C 449.5 237.00961303710938 454.9903869628906 242.5 457.81854248046875 250.75863647460938" stroke-width="0.0" fill="rgb(6, 6, 9)" opacity="0.99005675"/>
    <path d="M 435.0643005371094 176.85545349121094 C 433.9761962890625 183.49606323242188 428.4999084472656 188.9903564453125 421.0 191.0 C 413.5 188.99038696289062 408.0096130371094 183.5 406.0 176.0 C 408.0096130371094 168.5 413.5 163.00961303710938 420.38165283203125 161.63626098632812 C 427.6611633300781 163.83831787109375 433.0899353027344 169.36512756347656 435.0643005371094 176.85545349121094" stroke-width="0.0" fill="rgb(12, 17, 24)" opacity="0.9900798"/>
    <path d="M 370.9975891113281 281.9980163574219 C 368.9853515625 289.495849609375 363.4964904785156 294.98748779296875 355.9991760253906 296.99932861328125 C 348.5 294.9903869628906 343.0096130371094 289.5 341.0 282.0 C 343.0096130371094 274.5 348.5 269.0096130371094 356.0 267.0 C 363.5 269.0096130371094 368.9903869628906 274.5 370.9975891113281 281.9980163574219" stroke-width="0.0" fill="rgb(19, 21, 33)" opacity="1.0"/>
    <path d="M 418.0284118652344 101.98004150390625 C 415.9903869628906 109.5 410.5 114.9903793334961 402.9020080566406 117.07775115966797 C 395.15399169921875 115.28056335449219 389.545166015625 109.89997863769531 387.67620849609375 102.26797485351562 C 390.0096130371094 94.5 395.5 89.0096206665039 403.0036926269531 86.99742126464844 C 410.52166748046875 88.99443054199219 416.0325927734375 94.47023010253906 418.0284118652344 101.98004150390625" stroke-width="0.0" fill="rgb(186, 193, 205)" opacity="1.0"/>
    <path d="M 463.9126892089844 274.2676086425781 C 461.8224182128906 283.3340148925781 456.359130859375 288.8871154785156 448.90399169921875 290.2223205566406 C 441.3510437011719 287.1112060546875 435.86236572265625 281.6587219238281 433.75262451171875 274.3021240234375 C 435.0096130371094 267.5000305175781 440.5002746582031 262.0105895996094 448.738037109375 259.20208740234375 C 456.3623046875 261.1380310058594 461.88800048828125 266.6277160644531 463.9126892089844 274.2676086425781" stroke-width="0.0" fill="rgb(13, 2, 2)" opacity="0.9900179"/>
    <path d="M 430.4682922363281 242.4849395751953 C 428.2288513183594 249.7269287109375 422.716064453125 255.19482421875 415.176025390625 258.9112548828125 C 407.87908935546875 256.7807922363281 402.7789001464844 250.8939971923828 400.9793701171875 243.04202270507812 C 403.0096130371094 235.5 408.5 230.00961303710938 416.0 228.0 C 423.5 230.00961303710938 428.9903869628906 235.5 430.4682922363281 242.4849395751953" stroke-width="0.0" fill="rgb(2, 3, 3)" opacity="0.99006957"/>
    <path d="M 361.0 261.0 C 358.9903869628906 268.5 353.5 273.9903869628906 346.16754150390625 275.88385009765625 C 339.1028137207031 273.5074157714844 333.83892822265625 267.77362060546875 331.9544677734375 261.49200439453125 C 333.8819580078125 254.30406188964844 339.2260437011719 248.6575164794922 346.3124694824219 246.2565155029297 C 353.5 248.00961303710938 358.9903869628906 253.5 361.0 261.0" stroke-width="0.0" fill="rgb(27, 31, 42)" opacity="0.9900368"/>
    <path d="M 360.0 277.0 C 357.9903869628906 284.5 352.5 289.9903869628906 345.6392822265625 291.36492919921875 C 338.3670959472656 289.1396789550781 332.92901611328125 283.60888671875 330.96319580078125 276.3139343261719 C 332.8860168457031 270.3216857910156 338.26947021484375 264.74163818359375 345.4575500488281 262.4693908691406 C 352.5 264.0096130371094 357.9903869628906 269.5 360.0 277.0" stroke-width="0.0" fill="rgb(9, 10, 13)" opacity="0.99001634"/>
    <path d="M 427.1204833984375 277.3104248046875 C 425.3131103515625 285.00335693359375 420.18463134765625 290.78717041015625 412.95306396484375 292.97052001953125 C 405.5 290.9903869628906 400.0096130371094 285.5 397.7027893066406 277.6465759277344 C 399.3266906738281 269.74957275390625 404.68194580078125 264.1305847167969 412.3103332519531 262.0560302734375 C 421.0909118652344 264.25732421875 426.2223205566406 270.1023864746094 427.1204833984375 277.3104248046875" stroke-width="0.0" fill="rgb(77, 42, 21)" opacity="0.990162"/>
    <path d="M 427.1333312988281 126.9911117553711 C 424.71258544921875 134.21336364746094 419.19464111328125 139.65377807617188 411.83648681640625 142.03919982910156 C 404.49530029296875 140.004638671875 399.00933837890625 134.5008087158203 397.0 127.00001525878906 C 399.0096130371094 119.5 404.5 114.0096206665039 412.00091552734375 111.99913024902344 C 419.5014953613281 114.00714874267578 424.9595947265625 119.5078353881836 427.1333312988281 126.9911117553711" stroke-width="0.0" fill="rgb(191, 198, 209)" opacity="0.990458"/>
    <path d="M 491.9552001953125 277.4258117675781 C 489.8303527832031 286.16485595703125 483.2601318359375 290.2628479003906 475.6110534667969 292.0816955566406 C 468.054931640625 290.4035949707031 462.1413269042969 286.2585754394531 460.0859375 278.7001037597656 C 462.1567687988281 269.6512145996094 467.63690185546875 264.1177673339844 475.3910827636719 262.0654602050781 C 484.3782043457031 264.1225891113281 489.9010009765625 269.6126403808594 491.9552001953125 277.4258117675781" stroke-width="0.0" fill="rgb(65, 78, 97)" opacity="1.0"/>
    <path d="M 384.0 122.0 C 381.9903869628906 129.5 376.5 134.99038696289062 369.0 137.0 C 361.5 134.99038696289062 356.0096130371094 129.5 354.0 122.0 C 356.0096130371094 114.5 361.5 109.0096206665039 369.0 107.0 C 376.5 109.0096206665039 381.9903869628906 114.5 384.0 122.0" stroke-width="0.0" fill="rgb(1, 0, 8)" opacity="1.0"/>
    <path d="M 368.21954345703125 297.56695556640625 C 366.9903869628906 304.5 361.5 309.9903869628906 354.0 312.0 C 346.5 309.9903869628906 341.0096130371094 304.5 339.0 297.0 C 341.0096130371094 289.5 346.5 284.0096130371094 353.9881286621094 282.0057067871094 C 361.34820556640625 284.08575439453125 366.46929931640625 289.8171081542969 368.21954345703125 297.56695556640625" stroke-width="0.0" fill="rgb(238, 188, 32)" opacity="0.99353033"/>
    <path d="M 451.2354431152344 207.71078491210938 C 448.9903869628906 215.5 443.5 220.99038696289062 436.0 223.0 C 428.5 220.99038696289062 423.0096130371094 215.5 421.0 208.0 C 423.0096130371094 200.5 428.5 195.00961303710938 436.64154052734375 192.2819366455078 C 444.2398376464844 194.2120361328125 449.60345458984375 199.81837463378906 451.2354431152344 207.71078491210938" stroke-width="0.0" fill="rgb(2, 4, 7)" opacity="1.0"/>
    <path d="M 405.30426025390625 165.644287109375 C 402.9903869628906 173.5 397.5 178.99038696289062 390.0 181.0 C 382.5 178.99038696289062 377.0096130371094 173.5 375.0 166.0 C 377.0096130371094 158.4999542236328 382.49932861328125 153.00729370117188 390.83502197265625 150.08392333984375 C 398.31536865234375 152.13079833984375 403.6714172363281 157.75425720214844 405.30426025390625 165.644287109375" stroke-width="0.0" fill="rgb(2, 6, 21)" opacity="0.99376845"/>
    <path d="M 366.138671875 190.9159698486328 C 364.3596496582031 197.8636016845703 358.8469543457031 203.30992126464844 351.5513916015625 205.5260467529297 C 344.4834289550781 204.0170135498047 339.0030517578125 198.51060485839844 336.9991455078125 191.00140380859375 C 339.0096130371094 183.5 344.5 178.00961303710938 351.9993591308594 176.00022888183594 C 359.4761962890625 178.01800537109375 364.7071533203125 183.61575317382812 366.138671875 190.9159698486328" stroke-width="0.0" fill="rgb(30, 24, 2)" opacity="0.99008906"/>
    <path d="M 407.0 191.0 C 404.9903869628906 198.5 399.5 203.99038696289062 392.0 206.0 C 384.5 203.99038696289062 379.0096130371094 198.5 377.633056640625 191.55020141601562 C 379.74322509765625 184.17628479003906 385.1258239746094 178.58473205566406 392.2766418457031 176.24649047851562 C 399.5 178.00961303710938 404.9903869628906 183.5 407.0 191.0" stroke-width="0.0" fill="rgb(35, 41, 60)" opacity="0.9900832"/>
    <path d="M 379.0 115.0 C 376.9903869628906 122.5 371.5 127.9903793334961 364.0 130.0 C 356.5 127.9903793334961 351.0096130371094 122.5 349.0 115.0 C 351.0096130371094 107.5 356.5 102.0096206665039 364.0 100.0 C 371.5 102.0096206665039 376.9903869628906 107.5 379.0 115.0" stroke-width="0.0" fill="rgb(10, 18, 20)" opacity="1.0"/>
    <path d="M 427.07562255859375 292.4226379394531 C 425.19091796875 299.75091552734375 419.77587890625 305.2623596191406 412.5152587890625 307.4922180175781 C 405.5 305.9903869628906 400.0096130371094 300.5 398.0 293.0 C 400.0094909667969 285.49969482421875 405.4990234375 280.0070495605469 412.9346618652344 278.0378112792969 C 420.15045166015625 280.2504577636719 425.3298034667969 286.0016784667969 427.07562255859375 292.4226379394531" stroke-width="0.0" fill="rgb(74, 39, 6)" opacity="0.99014103"/>
    <path d="M 378.00177001953125 231.9967498779297 C 375.9903869628906 239.5 370.5 244.99038696289062 363.0 247.0 C 355.5 244.99038696289062 350.0096130371094 239.5 348.0 232.0 C 350.0096130371094 224.5 355.5 219.00961303710938 363.06524658203125 216.8853302001953 C 370.55780029296875 218.90745544433594 376.008056640625 224.4677276611328 378.00177001953125 231.9967498779297" stroke-width="0.0" fill="rgb(20, 27, 38)" opacity="1.0"/>
    <path d="M 422.9999694824219 223.9999542236328 C 420.9901428222656 231.49957275390625 415.49920654296875 236.9888916015625 407.9990234375 238.9980926513672 C 400.5 236.99038696289062 395.0096130371094 231.5 393.0 224.0 C 395.0096130371094 216.5 400.5 211.00961303710938 408.0 209.0 C 415.5 211.00961303710938 420.9903869628906 216.5 422.9999694824219 223.9999542236328" stroke-width="0.0" fill="rgb(0, 3, 6)" opacity="1.0"/>
    <path d="M 378.999755859375 275.9995422363281 C 376.9876403808594 283.4945068359375 371.4882507324219 288.9661560058594 363.98150634765625 290.9608154296875 C 356.5 288.9903869628906 351.0096130371094 283.5 349.0 276.0 C 351.0096130371094 268.5 356.5 263.0096130371094 364.0 261.0 C 371.5 263.0096130371094 376.9903869628906 268.5 378.999755859375 275.9995422363281" stroke-width="0.0" fill="rgb(3, 3, 7)" opacity="0.9986315"/>
    <path d="M 339.4941711425781 221.54127502441406 C 336.6764831542969 229.02252197265625 330.8316650390625 234.17916870117188 324.7523193359375 236.03485107421875 C 317.40374755859375 234.06524658203125 311.9238586425781 228.6011199951172 309.9556884765625 221.14895629882812 C 310.2525939941406 213.69448852539062 315.664306640625 208.1435089111328 323.25274658203125 206.15682983398438 C 332.0191650390625 208.5579833984375 337.6349792480469 213.92074584960938 339.4941711425781 221.54127502441406" stroke-width="0.0" fill="rgb(3, 4, 7)" opacity="0.99000716"/>
    <path d="M 391.9931640625 200.7979278564453 C 389.9903869628906 208.5 384.5 213.99038696289062 376.4039306640625 216.69747924804688 C 368.8152770996094 214.74227905273438 363.3692626953125 209.14207458496094 361.1241760253906 200.4038543701172 C 363.2127685546875 192.7747802734375 368.822998046875 187.3378143310547 377.554443359375 185.15347290039062 C 385.2077331542969 187.22850036621094 390.5510559082031 192.86306762695312 391.9931640625 200.7979278564453" stroke-width="0.0" fill="rgb(172, 188, 121)" opacity="1.0"/>
    <path d="M 366.0 163.0 C 363.9903869628906 170.5 358.5 175.99038696289062 351.0 178.0 C 343.5 175.99038696289062 338.0096130371094 170.5 336.0 163.0 C 338.0096130371094 155.5 343.5 150.00961303710938 351.0 148.0 C 358.5 150.00961303710938 363.9903869628906 155.5 366.0 163.0" stroke-width="0.0" fill="rgb(7, 14, 21)" opacity="1.0"/>
    <path d="M 478.19879150390625 239.76193237304688 C 476.9906921386719 246.5010528564453 471.5115661621094 252.0284423828125 463.2021179199219 254.9172821044922 C 455.8519287109375 252.79629516601562 450.7443542480469 246.93197631835938 448.9732971191406 239.05245971679688 C 451.01043701171875 231.5028839111328 456.5409240722656 226.13839721679688 463.1368713378906 224.94815063476562 C 470.60107421875 226.92904663085938 476.09686279296875 232.3892822265625 478.19879150390625 239.76193237304688" stroke-width="0.0" fill="rgb(4, 10, 13)" opacity="0.99002606"/>
    <path d="M 377.0 159.0 C 374.9903869628906 166.5 369.5 171.99038696289062 362.0 174.0 C 354.5 171.99038696289062 349.0096130371094 166.5 347.0 159.0 C 349.0096130371094 151.5 354.5 146.00961303710938 362.0 144.0 C 369.5 146.00961303710938 374.9903869628906 151.5 377.0 159.0" stroke-width="0.0" fill="rgb(7, 10, 23)" opacity="0.9996982"/>
    <path d="M 406.7952575683594 76.15947723388672 C 404.9903869628906 83.5 399.5 88.9903793334961 392.0 91.0 C 384.5 88.9903793334961 379.0096130371094 83.5 377.0003967285156 76.00098419189453 C 379.0188903808594 68.52344512939453 384.57159423828125 63.17494583129883 392.11865234375 61.16222381591797 C 399.1934814453125 63.31157302856445 404.6659851074219 68.81295776367188 406.7952575683594 76.15947723388672" stroke-width="0.0" fill="rgb(199, 205, 220)" opacity="0.9903739"/>
    <path d="M 465.0343933105469 210.55970764160156 C 463.10302734375 216.66542053222656 457.7230529785156 222.27439880371094 450.6139831542969 224.69027709960938 C 443.5 222.99038696289062 438.0096130371094 217.5 435.9401550292969 209.89627075195312 C 437.6143798828125 201.94528198242188 442.78167724609375 196.17152404785156 450.0841064453125 195.9140625 C 457.6011047363281 197.92945861816406 463.07196044921875 203.39825439453125 465.0343933105469 210.55970764160156" stroke-width="0.0" fill="rgb(3, 7, 8)" opacity="0.9900118"/>
    <path d="M 384.0364685058594 82.05506134033203 C 382.1971740722656 89.78714752197266 376.8763732910156 95.4740982055664 369.28985595703125 97.43418884277344 C 361.0787658691406 95.25981903076172 355.23773193359375 90.1142807006836 353.1246337890625 82.75370788574219 C 356.0122985839844 74.50074005126953 361.5000305175781 69.00962829589844 369.0 67.0 C 376.5 69.0096206665039 381.9903869628906 74.5 384.0364685058594 82.05506134033203" stroke-width="0.0" fill="rgb(61, 86, 114)" opacity="1.0"/>
    <path d="M 408.3539733886719 276.59942626953125 C 405.9903869628906 284.5 400.5 289.9903869628906 393.0 292.0 C 385.5 289.9903869628906 380.0096130371094 284.5 377.9707336425781 276.9434814453125 C 379.73492431640625 269.06158447265625 384.85772705078125 263.2126770019531 392.3271179199219 261.0918273925781 C 401.25225830078125 263.2279052734375 406.68768310546875 268.773681640625 408.3539733886719 276.59942626953125" stroke-width="0.0" fill="rgb(15, 10, 5)" opacity="1.0"/>
    <path d="M 380.9985046386719 74.99657440185547 C 378.9635925292969 82.43892669677734 373.3451232910156 87.68242645263672 366.45709228515625 89.25465393066406 C 359.16278076171875 87.24906158447266 352.5928649902344 82.0203628540039 350.13446044921875 74.67768859863281 C 352.2077331542969 66.73988342285156 357.77166748046875 61.30547332763672 365.577392578125 59.5928840637207 C 373.5 62.009620666503906 378.9903869628906 67.5 380.9985046386719 74.99657440185547" stroke-width="0.0" fill="rgb(192, 198, 209)" opacity="0.9901302"/>
    <path d="M 383.90338134765625 250.7974090576172 C 381.8076171875 258.1792907714844 375.9953918457031 263.3274230957031 368.0814208984375 265.0462646484375 C 360.5 262.9903869628906 355.0096130371094 257.5 353.0 250.0 C 355.0096130371094 242.5 360.5 237.00961303710938 368.0 235.0 C 375.5 237.00961303710938 380.9903869628906 242.5 383.90338134765625 250.7974090576172" stroke-width="0.0" fill="rgb(0, 1, 6)" opacity="1.0"/>
    <path d="M 387.0017395019531 274.00274658203125 C 385.0025939941406 281.5186767578125 379.5239562988281 287.01904296875 371.99957275390625 288.83416748046875 C 364.4993591308594 286.9883117675781 359.0086975097656 281.5013732910156 356.9998779296875 274.0002136230469 C 359.0096130371094 266.5 364.5 261.0096130371094 372.0 259.0 C 379.5 261.0096130371094 384.9903869628906 266.5 387.0017395019531 274.00274658203125" stroke-width="0.0" fill="rgb(8, 9, 13)" opacity="0.9982179"/>
    <path d="M 423.0372009277344 127.00682067871094 C 421.0086975097656 134.51234436035156 415.505859375 139.9857635498047 408.0220031738281 141.9468994140625 C 400.508544921875 139.9670867919922 395.0104064941406 134.49783325195312 393.0000305175781 126.99993896484375 C 395.0096130371094 119.5 400.5 114.0096206665039 408.0000305175781 111.99999237060547 C 415.5004577636719 114.00942993164062 420.99395751953125 119.49859619140625 423.0372009277344 127.00682067871094" stroke-width="0.0" fill="rgb(192, 199, 210)" opacity="0.9978857"/>
    <path d="M 370.0 127.0 C 367.9903869628906 134.5 362.5 139.99038696289062 355.0 142.0 C 347.5 139.99038696289062 342.0096130371094 134.5 340.0 127.0 C 342.0096130371094 119.5 347.5 114.0096206665039 355.0 112.0 C 362.5 114.0096206665039 367.9903869628906 119.5 370.0 127.0" stroke-width="0.0" fill="rgb(7, 3, 1)" opacity="1.0"/>
    <path d="M 431.0 179.0 C 428.9903869628906 186.5 423.5 191.99038696289062 416.0 194.0 C 408.5 191.99038696289062 403.0096130371094 186.5 401.0 179.0 C 403.0096130371094 171.5 408.5 166.00961303710938 416.0 164.0 C 423.5 166.00961303710938 428.9903869628906 171.5 431.0 179.0" stroke-width="0.0" fill="rgb(3, 1, 3)" opacity="1.0"/>
    <path d="M 410.0 127.0 C 407.9903869628906 134.5 402.5 139.99038696289062 395.0 142.0 C 387.5 139.99038696289062 382.0096130371094 134.5 380.01220703125 126.9917984008789 C 381.9228515625 119.33497619628906 387.249755859375 113.652587890625 394.7648620605469 111.6583023071289 C 402.49993896484375 114.00982666015625 407.9903869628906 119.50000762939453 410.0 127.0" stroke-width="0.0" fill="rgb(217, 225, 238)" opacity="1.0"/>
    <path d="M 414.7402038574219 250.71347045898438 C 412.8671569824219 258.38067626953125 407.396240234375 263.9100646972656 399.7985534667969 265.93084716796875 C 390.6297302246094 263.8555603027344 385.09478759765625 258.3882751464844 383.07635498046875 250.8623809814453 C 386.0096130371094 242.5 391.5 237.00961303710938 398.99993896484375 235.0000457763672 C 406.49981689453125 237.009765625 411.9900207519531 242.500244140625 414.7402038574219 250.71347045898438" stroke-width="0.0" fill="rgb(0, 0, 0)" opacity="1.0"/>
    <path d="M 365.0 255.0 C 362.9903869628906 262.5 357.5 267.9903869628906 350.081787109375 269.93731689453125 C 342.8434143066406 267.7243347167969 337.5831604003906 262.05279541015625 335.8853759765625 255.64735412597656 C 337.8191833496094 248.2000274658203 343.0677490234375 242.4396209716797 350.129638671875 240.0811004638672 C 357.5 242.00961303710938 362.9903869628906 247.5 365.0 255.0" stroke-width="0.0" fill="rgb(7, 10, 15)" opacity="0.9901528"/>
    <path d="M 371.0 113.0 C 368.9903869628906 120.5 363.5 125.9903793334961 356.0 128.0 C 348.5 125.9903793334961 343.0096130371094 120.5 341.0 113.0 C 343.0096130371094 105.5 348.5 100.0096206665039 356.0 98.0 C 363.5 100.0096206665039 368.9903869628906 105.5 371.0 113.0" stroke-width="0.0" fill="rgb(11, 18, 25)" opacity="1.0"/>
    <path d="M 410.02099609375 133.03550720214844 C 408.1505126953125 140.754150390625 402.91180419921875 146.5813751220703 395.125 148.544677734375 C 386.9884338378906 146.63885498046875 381.7424621582031 140.8804931640625 379.95428466796875 133.0665740966797 C 381.99029541015625 125.46439361572266 387.4342956542969 119.89107513427734 394.919189453125 117.85335540771484 C 402.5 120.0096206665039 407.9903869628906 125.5 410.02099609375 133.03550720214844" stroke-width="0.0" fill="rgb(204, 211, 217)" opacity="1.0"/>
    <path d="M 358.9996643066406 235.99940490722656 C 356.9875183105469 243.495361328125 351.5030517578125 249.01651000976562 344.4322814941406 251.6184844970703 C 337.3079528808594 248.21133422851562 331.8899841308594 242.65863037109375 329.9083251953125 235.15455627441406 C 330.34478759765625 227.9624481201172 336.0849609375 222.70431518554688 343.9131774902344 220.9417266845703 C 351.5 223.00961303710938 356.9903869628906 228.5 358.9996643066406 235.99940490722656" stroke-width="0.0" fill="rgb(44, 52, 67)" opacity="0.99002117"/>
    <path d="M 379.9465026855469 247.9748077392578 C 377.9571533203125 255.48226928710938 372.4904479980469 260.9850158691406 364.9999694824219 262.9986877441406 C 357.5065002441406 260.9860534667969 352.0226135253906 255.4908905029297 350.10400390625 248.0489044189453 C 352.0881042480469 240.54937744140625 357.53363037109375 235.03567504882812 365.0099182128906 233.0155487060547 C 372.5 235.00961303710938 377.9903869628906 240.5 379.9465026855469 247.9748077392578" stroke-width="0.0" fill="rgb(19, 24, 32)" opacity="0.99527025"/>
    <path d="M 372.0013732910156 272.00140380859375 C 369.9948425292969 279.5047912597656 364.5052185058594 284.9962463378906 356.9987487792969 287.00457763671875 C 349.4678039550781 285.00836181640625 343.8934326171875 279.5617980957031 341.63726806640625 271.9932861328125 C 343.8816833496094 264.4260559082031 349.454833984375 258.9769592285156 356.990478515625 256.9899597167969 C 364.5 259.0096130371094 369.9903869628906 264.5 372.0013732910156 272.00140380859375" stroke-width="0.0" fill="rgb(9, 12, 21)" opacity="1.0"/>
    <path d="M 357.0 157.0 C 354.9903869628906 164.5 349.5 169.99038696289062 342.07269287109375 171.9449005126953 C 334.823486328125 169.74539184570312 329.5879821777344 164.06149291992188 327.69158935546875 156.49514770507812 C 329.0096130371094 149.5 334.5 144.00961303710938 342.0 142.0 C 349.5 144.00961303710938 354.9903869628906 149.5 357.0 157.0" stroke-width="0.0" fill="rgb(135, 139, 156)" opacity="0.9906094"/>
    <path d="M 407.997314453125 284.0050048828125 C 405.9903869628906 291.5 400.5 296.9903869628906 392.79571533203125 299.185302734375 C 385.00653076171875 297.4522399902344 379.4637145996094 292.01904296875 377.9982604980469 284.2806091308594 C 380.021728515625 276.5105895996094 385.52801513671875 271.08099365234375 392.8990783691406 269.5193176269531 C 400.3914794921875 271.213623046875 405.9620361328125 276.5535583496094 407.997314453125 284.0050048828125" stroke-width="0.0" fill="rgb(97, 44, 14)" opacity="0.99059844"/>
    <path d="M 421.9941101074219 121.99201202392578 C 419.9792175292969 129.49237060546875 414.4942932128906 134.98580932617188 406.9986877441406 136.99884033203125 C 399.5 134.99038696289062 394.0096130371094 129.5 392.0 122.0 C 394.0096130371094 114.5 399.5 109.0096206665039 407.0000305175781 106.99998474121094 C 414.5003662109375 109.00942993164062 419.99224853515625 114.49915313720703 421.9941101074219 121.99201202392578" stroke-width="0.0" fill="rgb(191, 198, 210)" opacity="0.99960643"/>
    <path d="M 346.1481018066406 198.7535858154297 C 345.34320068359375 207.06350708007812 340.1196594238281 212.62062072753906 332.718505859375 213.09625244140625 C 325.1964111328125 211.19244384765625 319.3490295410156 205.93704223632812 316.76153564453125 199.04745483398438 C 319.0096130371094 191.5 324.5 186.00961303710938 331.9999694824219 184.0 C 339.4973449707031 186.01040649414062 344.88720703125 191.5325469970703 346.1481018066406 198.7535858154297" stroke-width="0.0" fill="rgb(251, 250, 43)" opacity="0.9900643"/>
    <path d="M 366.9247741699219 290.9959716796875 C 365.00177001953125 298.5044250488281 359.5013427734375 303.9908447265625 352.0012512207031 305.99957275390625 C 344.54534912109375 303.9742126464844 339.4313659667969 298.3037109375 337.92254638671875 291.1030578613281 C 339.29547119140625 283.44085693359375 344.3059997558594 277.8065490722656 351.9189758300781 275.9194641113281 C 359.5086669921875 278.0042724609375 365.0103759765625 283.4870300292969 366.9247741699219 290.9959716796875" stroke-width="0.0" fill="rgb(14, 14, 23)" opacity="0.99034417"/>
    <path d="M 378.9176025390625 102.17660522460938 C 376.13330078125 110.55245971679688 370.5102233886719 115.99382781982422 363.0002136230469 118.00007629394531 C 355.5 115.9903793334961 350.0096130371094 110.5 347.99993896484375 102.99974822998047 C 350.0055236816406 95.48785400390625 355.4469299316406 89.87036895751953 363.5303039550781 87.23088836669922 C 371.2601318359375 89.27025604248047 376.8734436035156 94.68028259277344 378.9176025390625 102.17660522460938" stroke-width="0.0" fill="rgb(7, 13, 21)" opacity="1.0"/>
    <path d="M 492.2019958496094 249.5849609375 C 491.517333984375 257.1900634765625 486.2878112792969 262.8521423339844 478.6839599609375 264.91015625 C 469.6943359375 262.8184509277344 464.2270812988281 257.2915344238281 463.8304748535156 249.62420654296875 C 464.8630676269531 240.85841369628906 469.72039794921875 235.14883422851562 477.1551818847656 233.1371612548828 C 484.8342590332031 236.7190399169922 490.2709655761719 242.16958618164062 492.2019958496094 249.5849609375" stroke-width="0.0" fill="rgb(138, 142, 152)" opacity="0.9902166"/>
    <path d="M 390.8877868652344 152.2086639404297 C 387.99066162109375 160.5000762939453 382.5 165.99038696289062 375.0005798339844 167.99960327148438 C 367.5031433105469 165.9880828857422 362.01226806640625 160.49668884277344 359.9588928222656 152.995361328125 C 362.00909423828125 145.49986267089844 367.5 140.00961303710938 375.1233215332031 137.92724609375 C 383.08697509765625 139.57528686523438 388.8330383300781 144.76663208007812 390.8877868652344 152.2086639404297" stroke-width="0.0" fill="rgb(1, 2, 7)" opacity="0.9909957"/>
    <path d="M 403.0039367675781 167.99485778808594 C 400.990234375 175.4994659423828 395.4981689453125 180.98568725585938 388.4245910644531 182.464599609375 C 381.0099792480469 180.3871612548828 375.3589172363281 175.07179260253906 373.0908508300781 167.88156127929688 C 375.009765625 160.50045776367188 380.5035095214844 155.02084350585938 388.0048828125 153.224609375 C 395.5252990722656 154.98985290527344 401.0096130371094 160.47543334960938 403.0039367675781 167.99485778808594" stroke-width="0.0" fill="rgb(25, 38, 60)" opacity="0.99041736"/>
    <path d="M 361.0 316.0 C 358.9903869628906 323.5 353.5 328.9903869628906 345.9562683105469 331.0223083496094 C 338.1175231933594 329.2186279296875 332.24090576171875 324.0973205566406 330.09466552734375 316.7663879394531 C 333.71661376953125 309.17242431640625 339.1275634765625 303.5641174316406 346.2405700683594 301.1900329589844 C 353.5 303.0096130371094 358.9903869628906 308.5 361.0 316.0" stroke-width="0.0" fill="rgb(37, 14, 13)" opacity="0.99030083"/>
    <path d="M 396.0 81.0 C 393.9903869628906 88.5 388.5 93.9903793334961 381.1696472167969 96.08091735839844 C 374.0159912109375 93.49275207519531 368.4736328125 87.99351501464844 365.86083984375 80.87152862548828 C 368.0093994140625 73.49993133544922 373.5 68.0096206665039 381.0 66.0 C 388.5 68.0096206665039 393.9903869628906 73.5 396.0 81.0" stroke-width="0.0" fill="rgb(170, 185, 197)" opacity="0.99070776"/>
    <path d="M 423.6316833496094 108.18155670166016 C 421.8342590332031 115.42749786376953 416.4699401855469 120.97312927246094 408.9959716796875 122.99695587158203 C 401.4980773925781 120.99146270751953 396.0037841796875 115.50331115722656 393.99212646484375 108.00389099121094 C 396.0096130371094 100.5 401.5 95.0096206665039 408.8856201171875 93.10856628417969 C 416.168212890625 95.30862426757812 421.5525207519531 100.87531280517578 423.6316833496094 108.18155670166016" stroke-width="0.0" fill="rgb(190, 196, 207)" opacity="0.99040633"/>
    <path d="M 363.0 129.0 C 360.9903869628906 136.5 355.5 141.99038696289062 347.99163818359375 144.00704956054688 C 340.4754638671875 142.01641845703125 335.0588684082031 136.50335693359375 332.7143249511719 128.94287109375 C 335.0108337402344 121.49824523925781 340.4975891113281 116.008056640625 347.9996643066406 113.99983978271484 C 355.5 116.0096206665039 360.9903869628906 121.5 363.0 129.0" stroke-width="0.0" fill="rgb(207, 211, 222)" opacity="0.9920141"/>
    <path d="M 417.3493957519531 88.29251098632812 C 415.7398986816406 95.3755874633789 410.4504699707031 100.971923828125 402.9988098144531 103.00249481201172 C 395.4999694824219 100.99043273925781 390.0096130371094 95.5 388.0000915527344 88.000244140625 C 390.0116271972656 80.50480651855469 395.51446533203125 75.04521942138672 402.9500427246094 73.09544372558594 C 410.08062744140625 75.35887908935547 415.43023681640625 80.98316192626953 417.3493957519531 88.29251098632812" stroke-width="0.0" fill="rgb(190, 197, 208)" opacity="0.9901766"/>
    <path d="M 348.0 188.0 C 345.9903869628906 195.5 340.5 200.99038696289062 332.9986572265625 203.0018768310547 C 325.49786376953125 200.9933319091797 320.00848388671875 195.5015869140625 317.9997863769531 188.0002899169922 C 320.0096130371094 180.5 325.5 175.00961303710938 333.0 173.0 C 340.5 175.00961303710938 345.9903869628906 180.5 348.0 188.0" stroke-width="0.0" fill="rgb(255, 254, 43)" opacity="1.0"/>
    <path d="M 392.8539123535156 163.99600219726562 C 390.8316955566406 171.32455444335938 385.23046875 176.56195068359375 377.3507995605469 178.22779846191406 C 370.3828125 177.2515106201172 364.9954833984375 171.53636169433594 363.002197265625 164.00433349609375 C 365.01800537109375 156.50709533691406 370.5060119628906 151.0144500732422 378.0125427246094 148.98831176757812 C 385.5252685546875 150.9799346923828 390.9678955078125 156.48941040039062 392.8539123535156 163.99600219726562" stroke-width="0.0" fill="rgb(8, 14, 22)" opacity="0.99039173"/>
    <path d="M 414.0455017089844 286.98516845703125 C 411.99078369140625 294.5001220703125 406.5 299.9903869628906 399.0013427734375 301.99932861328125 C 391.51873779296875 299.9814758300781 386.10894775390625 294.45428466796875 384.4466857910156 287.0238342285156 C 386.0318908691406 279.39227294921875 391.31182861328125 273.7431945800781 398.9118347167969 271.5624084472656 C 406.5678405761719 273.8746032714844 412.01446533203125 279.4662780761719 414.0455017089844 286.98516845703125" stroke-width="0.0" fill="rgb(67, 26, 6)" opacity="0.99087864"/>
    <path d="M 354.9998474121094 152.00022888183594 C 352.9903869628906 159.5 347.5 164.99038696289062 339.81744384765625 167.18527221679688 C 332.1004943847656 165.38990783691406 326.64080810546875 159.89158630371094 324.7821044921875 152.3177490234375 C 327.4336242675781 144.8739471435547 332.84375 139.33590698242188 340.1257629394531 137.08853149414062 C 347.499267578125 139.00900268554688 352.989501953125 144.50111389160156 354.9998474121094 152.00022888183594" stroke-width="0.0" fill="rgb(194, 197, 207)" opacity="0.992396"/>
    <path d="M 360.0 328.0 C 357.9903869628906 335.5 352.5 340.9903869628906 345.7100524902344 342.2435607910156 C 338.36016845703125 340.1254577636719 332.9096984863281 334.62664794921875 330.5299377441406 327.09942626953125 C 331.1673583984375 319.7652587890625 336.9075927734375 314.5677795410156 344.88177490234375 312.9617919921875 C 352.5 315.0096130371094 357.9903869628906 320.5 360.0 328.0" stroke-width="0.0" fill="rgb(21, 27, 34)" opacity="0.9900859"/>
    <path d="M 468.72540283203125 234.29969787597656 C 466.99005126953125 241.4998321533203 461.4999084472656 246.9903106689453 453.9999694824219 248.99998474121094 C 446.5 246.99038696289062 441.0096130371094 241.5 438.5176696777344 233.62557983398438 C 440.4653015136719 226.0650177001953 446.16058349609375 220.76028442382812 453.54803466796875 219.43057250976562 C 460.852783203125 221.6841583251953 466.4004211425781 227.12155151367188 468.72540283203125 234.29969787597656" stroke-width="0.0" fill="rgb(5, 7, 15)" opacity="0.9904355"/>
    <path d="M 396.0 79.0 C 393.9903869628906 86.5 388.5 91.9903793334961 381.3902893066406 93.51456451416016 C 374.0511779785156 91.39849853515625 368.590087890625 85.95297241210938 366.5040283203125 78.62686157226562 C 368.0444030761719 71.52008819580078 373.51214599609375 66.01741790771484 381.00177001953125 64.00121307373047 C 388.5 66.0096206665039 393.9903869628906 71.5 396.0 79.0" stroke-width="0.0" fill="rgb(209, 213, 222)" opacity="0.9904263"/>
    <path d="M 442.655029296875 230.54148864746094 C 439.9843444824219 238.48973083496094 434.4849853515625 243.96885681152344 426.9932861328125 246.06826782226562 C 419.4988708496094 243.99444580078125 414.0096130371094 238.50001525878906 411.9989318847656 230.99990844726562 C 414.00933837890625 223.4998779296875 419.49993896484375 218.0095977783203 427.0121765136719 215.99440002441406 C 434.66259765625 217.92886352539062 440.50018310546875 223.18174743652344 442.655029296875 230.54148864746094" stroke-width="0.0" fill="rgb(3, 5, 6)" opacity="0.9902662"/>
    <path d="M 390.7773132324219 268.3280029296875 C 388.3713073730469 276.8188781738281 382.7965087890625 282.3026428222656 375.1569519042969 284.2228698730469 C 367.4977722167969 281.995361328125 362.00927734375 276.5008850097656 360.0000305175781 269.0000305175781 C 362.0096130371094 261.5 367.5 256.0096130371094 375.73577880859375 253.21923828125 C 383.3628845214844 255.13385009765625 388.8547668457031 260.6409912109375 390.7773132324219 268.3280029296875" stroke-width="0.0" fill="rgb(5, 7, 13)" opacity="1.0"/>
    <path d="M 402.32049560546875 322.3341979980469 C 400.1340637207031 329.6362609863281 394.6159362792969 335.0777587890625 387.2697448730469 337.0371398925781 C 380.990966796875 335.1781311035156 374.1603088378906 331.158935546875 372.0583190917969 323.62066650390625 C 374.1738586425781 314.7579650878906 379.87396240234375 309.5145263671875 387.8347473144531 307.8933410644531 C 395.5 310.0096130371094 400.9903869628906 315.5 402.32049560546875 322.3341979980469" stroke-width="0.0" fill="rgb(16, 20, 32)" opacity="0.99002874"/>
    <path d="M 380.9477844238281 263.99334716796875 C 378.9630432128906 271.477294921875 373.47723388671875 276.96282958984375 365.99627685546875 278.9546203613281 C 358.50994873046875 276.97308349609375 353.0050354003906 271.4963684082031 350.9444580078125 263.9974060058594 C 352.9946594238281 256.4895935058594 358.49090576171875 250.99945068359375 365.99847412109375 248.9835205078125 C 373.4937438964844 251.01112365722656 378.9759521484375 256.5100402832031 380.9477844238281 263.99334716796875" stroke-width="0.0" fill="rgb(12, 15, 24)" opacity="0.99330527"/>
    <path d="M 438.9999694824219 215.99996948242188 C 436.990234375 223.4997100830078 431.49951171875 228.989501953125 423.99884033203125 231.00045776367188 C 416.4994201660156 228.99136352539062 411.00933837890625 223.50039672851562 408.9664611816406 215.93531799316406 C 410.7041320800781 208.02378845214844 415.82183837890625 202.18727111816406 423.1809997558594 200.08123779296875 C 431.5 203.00961303710938 436.9903869628906 208.5 438.9999694824219 215.99996948242188" stroke-width="0.0" fill="rgb(0, 0, 0)" opacity="1.0"/>
    <path d="M 369.9219665527344 214.8345489501953 C 367.6725158691406 222.9575958251953 361.7123718261719 228.08798217773438 354.0119323730469 230.00491333007812 C 346.5 227.99038696289062 341.0096130371094 222.5 338.33599853515625 214.83010864257812 C 341.5754089355469 208.0446014404297 347.0173645019531 202.49664306640625 354.2051086425781 200.6175079345703 C 362.0302734375 201.6826934814453 367.7583312988281 206.8396453857422 369.9219665527344 214.8345489501953" stroke-width="0.0" fill="rgb(8, 16, 33)" opacity="0.99007106"/>
    <path d="M 418.77667236328125 190.7008056640625 C 416.8239440917969 198.28286743164062 411.23248291015625 203.66650390625 403.360595703125 205.3037567138672 C 395.54718017578125 202.95761108398438 390.1386413574219 197.42384338378906 388.31561279296875 189.93972778320312 C 390.0993957519531 182.5673370361328 395.55535888671875 177.05918884277344 403.01666259765625 175.0177764892578 C 410.5 177.00961303710938 415.9903869628906 182.5 418.77667236328125 190.7008056640625" stroke-width="0.0" fill="rgb(17, 24, 40)" opacity="1.0"/>
    <path d="M 397.0926818847656 132.06105041503906 C 395.4149475097656 139.9875030517578 390.0507507324219 145.61740112304688 382.46917724609375 147.6051025390625 C 374.5 144.99038696289062 369.0096130371094 139.5 367.0 132.0 C 369.0096130371094 124.5 374.5 119.0096206665039 382.5474548339844 116.3000717163086 C 390.0270080566406 118.35108947753906 395.2931823730469 124.09581756591797 397.0926818847656 132.06105041503906" stroke-width="0.0" fill="rgb(198, 150, 141)" opacity="1.0"/>
    <path d="M 364.0237121582031 223.99655151367188 C 361.9903869628906 231.5 356.5 236.99038696289062 349.0 239.0 C 341.5 236.99038696289062 336.0095520019531 231.50001525878906 333.4791564941406 223.54318237304688 C 335.3420104980469 215.89344787597656 340.95770263671875 210.56088256835938 348.8635559082031 209.20884704589844 C 356.4544677734375 211.0733184814453 361.97088623046875 216.5326385498047 364.0237121582031 223.99655151367188" stroke-width="0.0" fill="rgb(4, 9, 10)" opacity="0.99296385"/>
    <path d="M 407.0572509765625 317.2656555175781 C 405.110107421875 324.65631103515625 399.6844787597656 330.1921691894531 392.3807678222656 333.4014892578125 C 385.2247619628906 331.4051513671875 379.9375 325.66424560546875 378.1299133300781 317.99664306640625 C 380.0183410644531 310.50311279296875 385.5007629394531 305.0098876953125 392.99560546875 303.00177001953125 C 400.3975830078125 305.0516662597656 405.4534912109375 310.7984313964844 407.0572509765625 317.2656555175781" stroke-width="0.0" fill="rgb(21, 37, 55)" opacity="0.99005455"/>
    <path d="M 374.9410400390625 319.3834533691406 C 372.8736877441406 328.3464050292969 367.311767578125 333.768798828125 359.5032653808594 335.47509765625 C 351.5001220703125 332.9903259277344 346.010009765625 327.4997863769531 343.9771423339844 319.99285888671875 C 346.00323486328125 312.4974365234375 351.4991455078125 307.0092468261719 359.59375 304.3946228027344 C 367.3315734863281 306.19219970703125 372.8876037597656 311.6395568847656 374.9410400390625 319.3834533691406" stroke-width="0.0" fill="rgb(13, 16, 16)" opacity="1.0"/>
    <path d="M 448.0001525878906 214.0004425048828 C 445.9923400878906 221.5035858154297 440.5069885253906 227.0039825439453 433.0205078125 229.0067901611328 C 425.51861572265625 226.96896362304688 420.0273742675781 221.48243713378906 418.0101318359375 213.99668884277344 C 420.01837158203125 206.50860595703125 425.5086669921875 201.01852416992188 432.9992370605469 199.01171875 C 440.4975891113281 201.01475524902344 445.9898681640625 206.50108337402344 448.0001525878906 214.0004425048828" stroke-width="0.0" fill="rgb(8, 10, 17)" opacity="0.99352294"/>
    <path d="M 329.49481201171875 190.49705505371094 C 327.23516845703125 197.73654174804688 321.7353210449219 203.23536682128906 314.2405700683594 206.91079711914062 C 307.28912353515625 204.78013610839844 302.88128662109375 197.7626190185547 300.9668884277344 191.5696258544922 C 302.9306945800781 184.405029296875 308.4062194824219 178.93338012695312 315.8810729980469 176.94036865234375 C 322.4976806640625 178.017822265625 327.9903564453125 183.50010681152344 329.49481201171875 190.49705505371094" stroke-width="0.0" fill="rgb(4, 3, 3)" opacity="0.9900068"/>
    <path d="M 404.1015930175781 85.7253646850586 C 402.84075927734375 92.44608306884766 397.49053955078125 97.98712158203125 389.94244384765625 100.03336334228516 C 382.1208801269531 98.23858642578125 376.2981872558594 93.0507583618164 374.1742248535156 85.6719970703125 C 377.0096130371094 77.5 382.5 72.0096206665039 389.7610168457031 70.19513702392578 C 396.86529541015625 72.5633316040039 402.18017578125 78.2236328125 404.1015930175781 85.7253646850586" stroke-width="0.0" fill="rgb(57, 60, 83)" opacity="0.9902064"/>
    <path d="M 385.94781494140625 115.18962097167969 C 383.6440124511719 123.94308471679688 377.7305603027344 129.11073303222656 370.01934814453125 131.0093994140625 C 362.5 128.99038696289062 357.0096130371094 123.5 355.0 116.0 C 357.0096130371094 108.5 362.5 103.00958251953125 370.6036376953125 100.4041976928711 C 378.3540344238281 102.17665100097656 383.9068908691406 107.61640930175781 385.94781494140625 115.18962097167969" stroke-width="0.0" fill="rgb(8, 9, 19)" opacity="1.0"/>
    <path d="M 424.44482421875 165.5052490234375 C 422.9903869628906 172.5 417.5 177.99038696289062 410.0 180.0 C 402.5 177.99038696289062 397.0101318359375 172.49984741210938 394.814453125 164.65908813476562 C 396.32177734375 156.7484588623047 401.6846923828125 151.13510131835938 409.16082763671875 149.16067504882812 C 416.8095703125 152.70782470703125 422.2650451660156 158.20001220703125 424.44482421875 165.5052490234375" stroke-width="0.0" fill="rgb(55, 68, 85)" opacity="1.0"/>
    <path d="M 360.8370666503906 160.08863830566406 C 358.990234375 167.4999542236328 353.5 172.99038696289062 345.98712158203125 175.01467895507812 C 338.6321105957031 172.97509765625 333.66094970703125 167.09754943847656 331.9433288574219 160.68092346191406 C 333.8876953125 153.3484344482422 339.3420715332031 147.87225341796875 346.6199951171875 145.9193572998047 C 353.0682067871094 147.6331024169922 358.79840087890625 152.76202392578125 360.8370666503906 160.08863830566406" stroke-width="0.0" fill="rgb(21, 37, 56)" opacity="0.9900209"/>
    <path d="M 424.0013427734375 168.9974365234375 C 421.9903869628906 176.50003051757812 416.5000915527344 181.9906463623047 409.0699157714844 183.88018798828125 C 401.6290283203125 181.85389709472656 396.1943054199219 176.35610961914062 394.1282653808594 168.82864379882812 C 395.8851318359375 161.41871643066406 401.41619873046875 155.8765411376953 408.9560546875 153.69178771972656 C 416.5587463378906 155.8958740234375 422.00531005859375 161.47109985351562 424.0013427734375 168.9974365234375" stroke-width="0.0" fill="rgb(3, 3, 13)" opacity="0.9904613"/>
    <path d="M 386.5143127441406 128.4020538330078 C 384.4289855957031 136.0775146484375 379.1969909667969 141.78134155273438 371.9471740722656 143.96603393554688 C 364.5 141.99038696289062 359.0096130371094 136.5 357.0300598144531 129.0366973876953 C 359.1365051269531 121.66549682617188 364.7308349609375 116.34160614013672 372.43377685546875 114.24043273925781 C 379.9142150878906 115.56813049316406 385.5536804199219 121.03826141357422 386.5143127441406 128.4020538330078" stroke-width="0.0" fill="rgb(96, 51, 40)" opacity="0.9902078"/>
    <path d="M 369.1322326660156 299.87371826171875 C 367.5397033691406 307.5967102050781 362.81317138671875 313.2604675292969 354.7542419433594 314.2126770019531 C 347.5210876464844 312.92333984375 342.01025390625 307.4978332519531 340.0140686035156 300.0269470214844 C 342.15618896484375 292.75909423828125 347.9490661621094 287.6527404785156 354.6890563964844 285.9096374511719 C 361.7951965332031 287.78765869140625 367.3558044433594 293.15130615234375 369.1322326660156 299.87371826171875" stroke-width="0.0" fill="rgb(227, 183, 27)" opacity="0.99006134"/>
    <path d="M 413.9735412597656 230.99497985839844 C 411.97503662109375 238.48680114746094 406.4862365722656 243.97314453125 398.9917297363281 245.9761962890625 C 391.5000915527344 243.99000549316406 386.0096130371094 238.5 384.0 231.0 C 386.0096130371094 223.5 391.5 218.00961303710938 399.0 216.0 C 406.49969482421875 218.00973510742188 411.9880065917969 223.5009307861328 413.9735412597656 230.99497985839844" stroke-width="0.0" fill="rgb(2, 8, 10)" opacity="0.9953139"/>
    <path d="M 402.9202880859375 229.99362182617188 C 400.9756164550781 237.49363708496094 395.4975280761719 242.98924255371094 387.9998474121094 244.9999237060547 C 380.5 242.99038696289062 375.0096130371094 237.5 373.0 230.0 C 375.0096130371094 222.5 380.5 217.00961303710938 387.99993896484375 215.00003051757812 C 395.498779296875 217.01016235351562 400.9820556640625 222.50344848632812 402.9202880859375 229.99362182617188" stroke-width="0.0" fill="rgb(10, 16, 29)" opacity="0.9972276"/>
    <path d="M 392.0 228.9999542236328 C 389.9903869628906 236.5 384.5 241.99038696289062 377.0234680175781 243.96734619140625 C 369.55706787109375 241.9335479736328 364.0973815917969 236.43359375 361.7913513183594 228.67396545410156 C 363.3800048828125 220.79966735839844 368.7320556640625 215.17616271972656 376.2582702636719 213.17417907714844 C 384.5002136230469 216.012451171875 389.9907531738281 221.4990234375 392.0 228.9999542236328" stroke-width="0.0" fill="rgb(6, 8, 11)" opacity="0.9905657"/>
    <path d="M 376.6540222167969 176.4007110595703 C 373.9360046386719 182.93093872070312 367.80230712890625 188.21710205078125 360.37713623046875 190.28314208984375 C 353.5 188.99038696289062 348.0096130371094 183.5 346.0 176.0 C 348.0096130371094 168.5 353.5 163.00961303710938 360.9992370605469 160.9969482421875 C 368.4886474609375 163.0177459716797 373.9731140136719 168.5139923095703 376.6540222167969 176.4007110595703" stroke-width="0.0" fill="rgb(6, 6, 19)" opacity="0.99012095"/>
    <path d="M 449.9248352050781 264.3736267089844 C 447.70849609375 273.2342224121094 442.28704833984375 278.8412170410156 434.7281188964844 280.8851318359375 C 425.8141174316406 278.6915588378906 420.4216003417969 273.15777587890625 419.7510986328125 264.814208984375 C 420.6777038574219 257.03436279296875 425.862548828125 251.22755432128906 433.4295349121094 249.07644653320312 C 442.15570068359375 251.33212280273438 447.8179626464844 256.7705383300781 449.9248352050781 264.3736267089844" stroke-width="0.0" fill="rgb(199, 204, 213)" opacity="1.0"/>
    <path d="M 404.1354675292969 306.1224365234375 C 402.2759704589844 313.78619384765625 396.7975769042969 319.3124084472656 389.2365417480469 320.73516845703125 C 381.640625 318.7849426269531 375.7786560058594 313.49298095703125 373.1739807128906 305.7471618652344 C 375.474365234375 298.00421142578125 380.9745788574219 292.4044494628906 388.593017578125 290.4700927734375 C 396.514892578125 292.9784851074219 401.993896484375 298.4931335449219 404.1354675292969 306.1224365234375" stroke-width="0.0" fill="rgb(81, 45, 16)" opacity="0.9906545"/>
    <path d="M 364.73828125 183.78195190429688 C 362.5626525878906 191.06912231445312 357.0321960449219 196.4513397216797 349.60491943359375 198.42018127441406 C 342.4994201660156 196.989990234375 337.0093078613281 191.50070190429688 334.9999694824219 184.0000457763672 C 337.0096130371094 176.5 342.5 171.00961303710938 350.0 169.0 C 357.5 171.00961303710938 362.9903869628906 176.5 364.73828125 183.78195190429688" stroke-width="0.0" fill="rgb(6, 3, 8)" opacity="0.9906157"/>
    <path d="M 361.13226318359375 119.39924621582031 C 359.5150146484375 127.2555923461914 354.42608642578125 132.96151733398438 347.03204345703125 135.0207977294922 C 339.4660949707031 132.98883056640625 333.8975830078125 127.56829833984375 331.80096435546875 120.13313293457031 C 334.0974426269531 112.53547668457031 339.5106506347656 107.01346588134766 347.00030517578125 105.00010681152344 C 354.49932861328125 107.00981903076172 359.9539794921875 112.51073455810547 361.13226318359375 119.39924621582031" stroke-width="0.0" fill="rgb(212, 216, 225)" opacity="0.99084395"/>
    <path d="M 362.1216125488281 116.26627349853516 C 360.9740905761719 123.6184310913086 355.6394348144531 129.08937072753906 347.9989013671875 130.98451232910156 C 340.50421142578125 129.02496337890625 335.14947509765625 123.44161987304688 333.2490539550781 116.19060516357422 C 335.3666076660156 108.72118377685547 340.6269226074219 103.08130645751953 348.0091247558594 101.01028442382812 C 355.4171142578125 103.04656219482422 360.57354736328125 108.71902465820312 362.1216125488281 116.26627349853516" stroke-width="0.0" fill="rgb(183, 189, 195)" opacity="0.99794465"/>
    <path d="M 463.3767395019531 243.41738891601562 C 461.689697265625 251.22189331054688 456.2429504394531 256.7581481933594 448.7685852050781 257.3649597167969 C 441.2574462890625 255.17898559570312 435.6541748046875 249.7948760986328 432.8393249511719 242.7235107421875 C 434.9852600097656 235.4805145263672 440.480224609375 229.9849090576172 447.98541259765625 227.98780822753906 C 455.49310302734375 230.0164794921875 460.97698974609375 235.5087890625 463.3767395019531 243.41738891601562" stroke-width="0.0" fill="rgb(12, 19, 23)" opacity="0.99060553"/>
    <path d="M 430.6463623046875 171.58502197265625 C 429.05657958984375 178.52391052246094 423.50537109375 183.9923095703125 415.99798583984375 185.99937438964844 C 408.48095703125 184.0030975341797 402.97540283203125 178.52548217773438 400.94610595703125 170.97927856445312 C 402.94818115234375 163.4441680908203 408.4339599609375 157.9153594970703 415.29620361328125 156.75257873535156 C 422.6687316894531 158.8602752685547 428.1810607910156 164.3181610107422 430.6463623046875 171.58502197265625" stroke-width="0.0" fill="rgb(15, 26, 40)" opacity="0.99040806"/>
    <path d="M 371.98931884765625 174.05137634277344 C 370.2268371582031 181.81443786621094 364.9168701171875 187.5341033935547 357.41546630859375 189.70712280273438 C 349.48162841796875 187.0449676513672 344.0085754394531 181.5031280517578 341.9999694824219 174.00003051757812 C 344.0093078613281 166.49925231933594 349.4975280761719 161.00315856933594 356.97894287109375 158.98081970214844 C 364.4803161621094 161.0435333251953 370.0110778808594 166.50318908691406 371.98931884765625 174.05137634277344" stroke-width="0.0" fill="rgb(33, 38, 23)" opacity="1.0"/>
    <path d="M 385.7068176269531 141.5787811279297 C 383.3478698730469 148.83509826660156 377.7887268066406 154.21435546875 370.97454833984375 156.08670043945312 C 364.10711669921875 154.25645446777344 358.38006591796875 149.02183532714844 356.0851135253906 141.88211059570312 C 358.0096130371094 134.5 363.5 129.00961303710938 371.0372009277344 126.97311401367188 C 378.6792297363281 128.87432861328125 384.2735290527344 134.27508544921875 385.7068176269531 141.5787811279297" stroke-width="0.0" fill="rgb(199, 129, 115)" opacity="0.9900577"/>
    <path d="M 367.45013427734375 334.1537170410156 C 365.09246826171875 341.6186828613281 359.6173095703125 347.0885925292969 352.7488708496094 349.04241943359375 C 346.3501892089844 347.10504150390625 340.8292541503906 341.6736755371094 338.64703369140625 334.3862609863281 C 340.009521484375 327.4996643066406 345.4991760253906 322.0078430175781 353.00726318359375 319.98681640625 C 360.63446044921875 321.9491882324219 366.5632629394531 327.1606750488281 367.45013427734375 334.1537170410156" stroke-width="0.0" fill="rgb(19, 24, 33)" opacity="0.9900142"/>
    <path d="M 382.4797058105469 137.32485961914062 C 381.4276123046875 144.97824096679688 376.0647277832031 150.6678466796875 368.5320129394531 152.83148193359375 C 360.4101867675781 150.2084503173828 355.00115966796875 144.52297973632812 352.9996032714844 137.00042724609375 C 355.0073547363281 129.494873046875 360.4853210449219 123.97416687011719 368.04852294921875 121.74239349365234 C 375.5731506347656 123.88343048095703 380.8401794433594 129.51171875 382.4797058105469 137.32485961914062" stroke-width="0.0" fill="rgb(88, 37, 29)" opacity="0.990463"/>
    <path d="M 366.0571594238281 174.98983764648438 C 363.8552551269531 182.29489135742188 358.2312927246094 187.64599609375 350.798583984375 189.75137329101562 C 343.4999694824219 187.99046325683594 338.0096130371094 182.5 336.0823669433594 175.06417846679688 C 338.1546936035156 167.629150390625 343.626220703125 162.1456756591797 351.0867919921875 160.04824829101562 C 358.52581787109375 161.97454833984375 364.0146484375 167.47695922851562 366.0571594238281 174.98983764648438" stroke-width="0.0" fill="rgb(17, 13, 13)" opacity="0.99037576"/>
    <path d="M 425.3249206542969 212.6488800048828 C 423.01513671875 220.51443481445312 417.5091552734375 225.9971923828125 410.0067138671875 227.99658203125 C 402.5028381347656 225.9853515625 397.0106506347656 220.4983367919922 395.0002746582031 212.99986267089844 C 397.0097351074219 205.499755859375 402.49884033203125 200.00657653808594 410.77899169921875 197.14263916015625 C 418.3111877441406 199.14157104492188 423.67437744140625 204.7501220703125 425.3249206542969 212.6488800048828" stroke-width="0.0" fill="rgb(0, 1, 3)" opacity="1.0"/>
    <path d="M 459.5367431640625 212.82550048828125 C 457.0729064941406 220.53530883789062 451.51397705078125 226.0001678466797 443.520751953125 228.70272827148438 C 436.243408203125 226.4585723876953 430.9718017578125 220.5974884033203 429.0068359375 213.00242614746094 C 431.010986328125 205.50244140625 436.5052490234375 200.02072143554688 444.0302734375 198.03594970703125 C 451.6602478027344 199.8994598388672 457.31988525390625 205.2705078125 459.5367431640625 212.82550048828125" stroke-width="0.0" fill="rgb(4, 12, 20)" opacity="0.9960505"/>
    <path d="M 375.4159851074219 138.3007354736328 C 374.427490234375 145.82911682128906 368.67340087890625 150.84646606445312 361.4897766113281 152.15696716308594 C 353.9668884277344 150.39320373535156 348.47979736328125 145.08583068847656 346.723388671875 137.8270263671875 C 347.8955383300781 130.09461975097656 352.9582214355469 124.36100006103516 360.4491271972656 122.392578125 C 368.6960754394531 124.80319213867188 373.9840087890625 130.35964965820312 375.4159851074219 138.3007354736328" stroke-width="0.0" fill="rgb(185, 113, 95)" opacity="0.99010205"/>
    <path d="M 421.239501953125 299.28985595703125 C 419.134765625 306.65478515625 413.6421203613281 312.1020812988281 406.1653137207031 314.0799255371094 C 399.667724609375 312.75482177734375 394.0945739746094 307.37921142578125 392.11065673828125 299.9951171875 C 394.0360107421875 292.5116882324219 399.5021057128906 287.00286865234375 407.0045166015625 284.97021484375 C 414.53961181640625 286.9721374511719 420.0554504394531 292.45233154296875 421.239501953125 299.28985595703125" stroke-width="0.0" fill="rgb(66, 31, 13)" opacity="0.99003536"/>
    <path d="M 443.1541748046875 188.92306518554688 C 442.85491943359375 196.2701873779297 437.1435546875 201.50051879882812 428.241455078125 203.82049560546875 C 420.6263427734375 201.88125610351562 415.1497802734375 196.36325073242188 413.28558349609375 188.6751251220703 C 415.930908203125 180.4478302001953 421.4728698730469 175.01930236816406 428.3536682128906 173.7493896484375 C 435.65625 175.84542846679688 441.07989501953125 181.3727569580078 443.1541748046875 188.92306518554688" stroke-width="0.0" fill="rgb(7, 9, 10)" opacity="0.9900573"/>
    <path d="M 368.1863098144531 102.22862243652344 C 366.5498962402344 110.14244079589844 361.2293395996094 115.80342102050781 353.80889892578125 117.8208236694336 C 346.30657958984375 114.17338562011719 340.8545227050781 108.68374633789062 338.92864990234375 102.16868591308594 C 340.845947265625 95.29623413085938 346.268798828125 89.7608871459961 353.71405029296875 86.1091079711914 C 360.95556640625 88.33501434326172 366.1063232421875 94.27552795410156 368.1863098144531 102.22862243652344" stroke-width="0.0" fill="rgb(8, 19, 29)" opacity="0.9900153"/>
    <path d="M 409.0007019042969 214.00396728515625 C 406.99615478515625 221.5074462890625 401.51123046875 227.00901794433594 394.0111083984375 229.01956176757812 C 386.50244140625 226.9892578125 381.0213623046875 221.49449157714844 378.33892822265625 213.54428100585938 C 380.5491943359375 206.4755859375 386.89532470703125 201.6055450439453 394.46478271484375 199.6829833984375 C 401.4562683105469 201.0978240966797 406.9791564941406 206.52084350585938 409.0007019042969 214.00396728515625" stroke-width="0.0" fill="rgb(2, 4, 4)" opacity="0.99008954"/>
    <path d="M 399.193359375 76.73967742919922 C 398.21136474609375 83.61370086669922 392.552001953125 89.01632690429688 384.9205627441406 91.0539321899414 C 377.1932373046875 89.2529296875 371.80914306640625 83.79639434814453 370.81634521484375 76.21553802490234 C 372.3970947265625 68.71534729003906 377.5982666015625 63.05786895751953 385.0371398925781 60.42601776123047 C 391.7903137207031 63.64822769165039 397.1759948730469 69.26158905029297 399.193359375 76.73967742919922" stroke-width="0.0" fill="rgb(78, 87, 93)" opacity="0.99004287"/>
    <path d="M 420.0492248535156 123.99439239501953 C 418.0040283203125 131.50843811035156 412.50677490234375 136.99847412109375 404.97857666015625 139.05850219726562 C 397.4989929199219 137.03822326660156 392.2387390136719 131.40960693359375 390.33306884765625 123.70113372802734 C 391.72711181640625 116.28900146484375 397.3396911621094 110.8897705078125 404.968994140625 108.97423553466797 C 412.5127868652344 111.00039672851562 418.0166931152344 116.48217010498047 420.0492248535156 123.99439239501953" stroke-width="0.0" fill="rgb(192, 197, 206)" opacity="0.9920869"/>
    <path d="M 363.01116943359375 301.98590087890625 C 360.98028564453125 309.46929931640625 355.3768310546875 314.7041320800781 347.8050231933594 316.17193603515625 C 339.8960266113281 315.51654052734375 334.4323425292969 310.11566162109375 333.84625244140625 302.5536193847656 C 335.4662170410156 294.1246032714844 339.8895263671875 288.3028869628906 347.50738525390625 287.72589111328125 C 355.51495361328125 289.07586669921875 361.0297546386719 294.4572448730469 363.01116943359375 301.98590087890625" stroke-width="0.0" fill="rgb(221, 184, 18)" opacity="0.9900748"/>
    <path d="M 350.05645751953125 189.55702209472656 C 348.1765441894531 196.7891387939453 342.9070129394531 202.51095581054688 335.6459655761719 205.02088928222656 C 327.82281494140625 203.58168029785156 322.16802978515625 198.26324462890625 320.1307067871094 190.77122497558594 C 323.0096130371094 182.5 328.5 177.00961303710938 335.667236328125 175.3620147705078 C 342.9093017578125 177.59512329101562 348.235595703125 183.1563262939453 350.05645751953125 189.55702209472656" stroke-width="0.0" fill="rgb(248, 248, 27)" opacity="0.99002504"/>
    <path d="M 401.039794921875 235.9850311279297 C 398.9939880371094 243.5027313232422 393.5028991699219 248.9945526123047 385.4972229003906 251.71926879882812 C 378.2161560058594 249.48709106445312 372.95623779296875 243.61790466308594 370.99615478515625 236.00717163085938 C 373.0096740722656 228.5001220703125 378.5002136230469 223.01007080078125 386.0068054199219 220.99913024902344 C 393.5194091796875 222.99008178710938 399.0190124511719 228.47802734375 401.039794921875 235.9850311279297" stroke-width="0.0" fill="rgb(5, 9, 11)" opacity="0.99972636"/>
    <path d="M 343.1584777832031 180.76779174804688 C 341.9946594238281 187.44215393066406 336.3919677734375 192.8224334716797 328.98468017578125 194.6782989501953 C 321.6661682128906 192.75990295410156 315.3219299316406 187.83404541015625 313.07421875 180.5576171875 C 315.7667541503906 172.89427185058594 322.05206298828125 167.64442443847656 328.46307373046875 165.83184814453125 C 335.6761169433594 167.84268188476562 341.1240234375 173.33641052246094 343.1584777832031 180.76779174804688" stroke-width="0.0" fill="rgb(238, 234, 94)" opacity="0.9900458"/>
    <path d="M 406.572998046875 93.68448638916016 C 404.6804504394531 101.23722076416016 399.2324523925781 106.66622924804688 391.1768493652344 109.88701629638672 C 383.6436462402344 107.87606048583984 378.12872314453125 102.35411071777344 376.1003112792969 94.82062530517578 C 379.5276184082031 86.99765014648438 385.01495361328125 81.5810317993164 392.6506042480469 78.45809936523438 C 400.10577392578125 80.3345947265625 405.4967956542969 85.94796752929688 406.572998046875 93.68448638916016" stroke-width="0.0" fill="rgb(131, 136, 150)" opacity="1.0"/>
    <path d="M 387.3702392578125 56.57783508300781 C 385.651611328125 64.14285278320312 380.1574401855469 69.69388580322266 372.56451416015625 71.70846557617188 C 364.5596618652344 68.96196746826172 359.2563171386719 63.37057113647461 357.301513671875 55.861488342285156 C 359.3421630859375 48.81656265258789 364.85296630859375 43.4503173828125 372.22369384765625 41.42536163330078 C 379.1507568359375 43.378143310546875 384.5213317871094 48.88419723510742 387.3702392578125 56.57783508300781" stroke-width="0.0" fill="rgb(191, 197, 208)" opacity="0.9900938"/>
    <path d="M 363.9447937011719 226.95372009277344 C 361.8709411621094 234.37652587890625 356.3500061035156 239.783935546875 349.4936218261719 241.31578063964844 C 342.2174377441406 239.2556610107422 336.7608337402344 233.7767791748047 334.63470458984375 226.4420166015625 C 336.0140686035156 219.50791931152344 341.5143737792969 214.03604125976562 349.0204772949219 212.0347137451172 C 356.501708984375 214.00653076171875 361.99078369140625 219.49908447265625 363.9447937011719 226.95372009277344" stroke-width="0.0" fill="rgb(3, 7, 13)" opacity="0.9903673"/>
  </g>
</svg>
