<?xml version="1.0" ?>
<svg xmlns="http://www.w3.org/2000/svg" version="1.1" width="600" height="600">
  <defs/>
  <g>
    <path d="M 246.9088592529297 494.2916564941406 C 244.47515869140625 502.76397705078125 238.59591674804688 508.02978515625 230.6884002685547 510.2568664550781 C 222.77540588378906 508.6387023925781 217.14285278320312 503.2995910644531 215.05638122558594 495.1989440917969 C 217.1491241455078 486.6898193359375 222.70211791992188 481.1736145019531 230.6149444580078 479.07830810546875 C 239.29005432128906 481.1890869140625 244.8404083251953 486.6968078613281 246.9088592529297 494.2916564941406" stroke-width="0.0" fill="rgb(42, 48, 66)" opacity="0.99011636"/>
    <path d="M 237.60374450683594 523.119384765625 C 235.2132110595703 530.5965576171875 229.5288848876953 536.0014038085938 222.0010528564453 538.0003662109375 C 214.5 535.9903564453125 209.00961303710938 530.5 207.0 523.0 C 209.00961303710938 515.5 214.5 510.0096130371094 222.0000457763672 508.0 C 229.502685546875 510.0087585449219 235.04733276367188 515.4813842773438 237.60374450683594 523.119384765625" stroke-width="0.0" fill="rgb(192, 121, 3)" opacity="1.0"/>
    <path d="M 166.87893676757812 299.2214050292969 C 164.30081176757812 307.9645690917969 159.15113830566406 313.7875671386719 150.22732543945312 315.95697021484375 C 142.59451293945312 313.9145202636719 137.0904998779297 308.4033203125 135.04562377929688 300.6378173828125 C 137.18527221679688 291.8111877441406 142.99623107910156 286.66943359375 151.38255310058594 284.58905029296875 C 159.24478149414062 286.3034362792969 164.84486389160156 291.7030944824219 166.87893676757812 299.2214050292969" stroke-width="0.0" fill="rgb(6, 8, 13)" opacity="1.0"/>
    <path d="M 258.4204406738281 381.34173583984375 C 256.659912109375 389.2033386230469 251.25115966796875 394.7992858886719 242.6503448486328 396.9017028808594 C 234.7005615234375 394.8183288574219 229.17857360839844 389.3010559082031 227.1929168701172 381.71124267578125 C 230.00962829589844 373.5 235.5 368.0096130371094 243.60818481445312 365.2625427246094 C 251.10488891601562 367.2840576171875 256.3467712402344 373.0213317871094 258.4204406738281 381.34173583984375" stroke-width="0.0" fill="rgb(121, 137, 163)" opacity="1.0"/>
    <path d="M 372.59613037109375 316.39447021484375 C 370.5132751464844 323.9351806640625 364.8981018066406 329.4064636230469 357.09375 331.24969482421875 C 349.3551025390625 329.1383056640625 343.7172546386719 323.6936340332031 341.6495056152344 316.2249755859375 C 344.03045654296875 308.4985656738281 349.49090576171875 303.0019226074219 357.0141296386719 300.981201171875 C 364.53546142578125 302.96734619140625 370.0174255371094 308.469482421875 372.59613037109375 316.39447021484375" stroke-width="0.0" fill="rgb(198, 210, 221)" opacity="1.0"/>
    <path d="M 176.5220947265625 429.5072937011719 C 174.78311157226562 437.322509765625 169.35983276367188 442.89019775390625 160.82423400878906 444.95635986328125 C 152.6133575439453 442.9000549316406 147.10305786132812 437.3852844238281 145.05108642578125 429.41644287109375 C 147.11636352539062 420.6281433105469 152.62510681152344 415.1094055175781 160.38412475585938 413.0531921386719 C 169.17526245117188 415.2008972167969 174.3400115966797 420.9960021972656 176.5220947265625 429.5072937011719" stroke-width="0.0" fill="rgb(12, 15, 24)" opacity="1.0"/>
    <path d="M 329.5246887207031 386.4642639160156 C 327.686767578125 394.1964416503906 322.2398986816406 399.7989501953125 313.8223571777344 401.9179382324219 C 305.7420349121094 399.81060791015625 300.26556396484375 394.22607421875 298.2417297363281 386.5646057128906 C 300.9106750488281 378.46337890625 306.49169921875 373.0066833496094 313.9997863769531 370.9999084472656 C 321.5 373.0096130371094 326.9903869628906 378.5 329.5246887207031 386.4642639160156" stroke-width="0.0" fill="rgb(139, 154, 176)" opacity="1.0"/>
    <path d="M 254.96142578125 209.3913116455078 C 252.9190216064453 217.41319274902344 247.41258239746094 222.9177703857422 239.1508026123047 224.96463012695312 C 230.58450317382812 222.91836547851562 225.07608032226562 217.41790771484375 223.04327392578125 209.75279235839844 C 225.13192749023438 200.68167114257812 230.74606323242188 195.31849670410156 239.79666137695312 193.1174774169922 C 247.38914489746094 195.10328674316406 252.9033660888672 200.6082763671875 254.96142578125 209.3913116455078" stroke-width="0.0" fill="rgb(0, 0, 1)" opacity="1.0"/>
    <path d="M 250.1500701904297 50.79813003540039 C 249.7534942626953 58.24421310424805 244.25502014160156 63.78113555908203 235.4612274169922 65.88528442382812 C 228.86302185058594 63.719722747802734 223.893798828125 56.718711853027344 221.96722412109375 50.45576477050781 C 223.9335479736328 43.40800094604492 229.4076690673828 37.93285369873047 236.890869140625 35.793331146240234 C 242.8607940673828 37.08059310913086 248.1835479736328 43.24641036987305 250.1500701904297 50.79813003540039" stroke-width="0.0" fill="rgb(3, 4, 4)" opacity="0.9900079"/>
    <path d="M 279.63238525390625 431.6029968261719 C 277.4945373535156 439.9527587890625 271.9092712402344 445.35308837890625 263.708740234375 447.3644714355469 C 255.86610412597656 445.628662109375 250.1891632080078 440.2171325683594 248.11355590820312 432.7757263183594 C 250.82476806640625 424.19549560546875 256.021240234375 418.35479736328125 264.49658203125 416.1253356933594 C 272.27685546875 418.1923828125 277.74188232421875 423.7460021972656 279.63238525390625 431.6029968261719" stroke-width="0.0" fill="rgb(25, 27, 45)" opacity="0.99003553"/>
    <path d="M 193.95155334472656 425.6225280761719 C 191.9066162109375 433.3979797363281 186.39768981933594 438.9059753417969 178.70095825195312 440.9519348144531 C 169.8057861328125 438.81036376953125 164.6374969482422 433.0296936035156 162.4341583251953 424.4422912597656 C 164.1885528564453 416.65374755859375 169.62144470214844 411.09625244140625 177.6194610595703 409.0397644042969 C 186.387939453125 411.09759521484375 191.8855438232422 416.6191711425781 193.95155334472656 425.6225280761719" stroke-width="0.0" fill="rgb(3, 7, 8)" opacity="1.0"/>
    <path d="M 250.9350128173828 506.9507751464844 C 248.8391876220703 515.2752685546875 243.198486328125 520.6220703125 235.36541748046875 522.0205688476562 C 227.50604248046875 519.9700927734375 222.009765625 514.49951171875 220.05101013183594 507.0525817871094 C 222.15431213378906 499.6459045410156 227.64964294433594 494.1674499511719 235.3537139892578 491.8325500488281 C 243.23040771484375 493.35162353515625 248.8518524169922 498.7013244628906 250.9350128173828 506.9507751464844" stroke-width="0.0" fill="rgb(34, 32, 45)" opacity="0.99003935"/>
    <path d="M 137.94029235839844 306.3402404785156 C 135.8431854248047 315.3274230957031 130.33163452148438 320.85247802734375 121.28187561035156 322.94244384765625 C 113.60569763183594 320.90350341796875 108.09688568115234 315.39410400390625 106.04949951171875 307.5684509277344 C 108.12055206298828 298.6310119628906 113.62621307373047 293.10955810546875 122.35570526123047 291.04534912109375 C 130.3826446533203 293.1036376953125 135.89044189453125 298.6200256347656 137.94029235839844 306.3402404785156" stroke-width="0.0" fill="rgb(3, 4, 7)" opacity="0.99004877"/>
    <path d="M 270.9382019042969 564.3008422851562 C 268.77740478515625 573.213134765625 263.1884765625 578.723388671875 255.2163543701172 580.8572998046875 C 246.8119354248047 578.7233276367188 241.2713165283203 573.1906127929688 239.10227966308594 564.2937622070312 C 241.130126953125 556.6397094726562 246.63662719726562 551.1228637695312 254.17494201660156 549.1663208007812 C 263.0960998535156 552.1326293945312 268.86212158203125 556.7224731445312 270.9382019042969 564.3008422851562" stroke-width="0.0" fill="rgb(57, 61, 76)" opacity="0.990159"/>
    <path d="M 326.9917907714844 377.9911804199219 C 324.96051025390625 385.46258544921875 319.4468688964844 390.90740966796875 311.98583984375 392.7632141113281 C 304.4054260253906 390.98223876953125 298.5624694824219 385.7524719238281 296.3207092285156 378.3438720703125 C 298.7042236328125 370.26806640625 304.3192443847656 364.8688049316406 311.959716796875 362.9700012207031 C 319.5 365.0096130371094 324.9903869628906 370.5 326.9917907714844 377.9911804199219" stroke-width="0.0" fill="rgb(152, 170, 188)" opacity="0.99053484"/>
    <path d="M 237.87806701660156 528.236572265625 C 235.66827392578125 535.9913940429688 229.7965087890625 541.1592407226562 221.63848876953125 543.3834838867188 C 213.8192138671875 541.6437377929688 208.22415161132812 536.22607421875 206.21522521972656 528.66845703125 C 209.0096893310547 520.5 214.5 515.0096435546875 222.38720703125 512.5842895507812 C 230.12672424316406 514.3722534179688 235.66891479492188 519.8605346679688 237.87806701660156 528.236572265625" stroke-width="0.0" fill="rgb(201, 132, 14)" opacity="1.0"/>
    <path d="M 285.77374267578125 514.5751342773438 C 283.7325744628906 522.2015380859375 278.2079772949219 527.7489013671875 270.0130920410156 529.8818359375 C 261.8289794921875 527.736328125 256.32440185546875 522.145263671875 254.2099151611328 514.3541259765625 C 256.4203796386719 505.95294189453125 261.9714050292969 500.4781799316406 269.71295166015625 498.6873779296875 C 277.5013732910156 501.0091857910156 283.03192138671875 506.4870910644531 285.77374267578125 514.5751342773438" stroke-width="0.0" fill="rgb(250, 252, 42)" opacity="0.99220914"/>
    <path d="M 294.6820373535156 55.43936538696289 C 292.0359191894531 63.587100982666016 286.66949462890625 69.28863525390625 278.3567810058594 71.8065185546875 C 270.72991943359375 69.79660034179688 265.2200622558594 64.263916015625 263.1297607421875 55.920066833496094 C 265.3130187988281 48.00076675415039 271.4029235839844 43.447792053222656 278.9568786621094 41.8654670715332 C 286.7659912109375 43.428260803222656 292.69012451171875 47.94352340698242 294.6820373535156 55.43936538696289" stroke-width="0.0" fill="rgb(75, 107, 132)" opacity="0.99009377"/>
    <path d="M 523.3070068359375 444.1723327636719 C 521.6398315429688 452.2077941894531 516.274169921875 457.83197021484375 508.75830078125 459.8547058105469 C 500.5 456.9903869628906 495.0096130371094 451.5 493.0 444.0 C 495.0096130371094 436.5 500.5000305175781 431.0097351074219 508.491943359375 428.31890869140625 C 515.868408203125 430.4591369628906 521.2506103515625 436.25054931640625 523.3070068359375 444.1723327636719" stroke-width="0.0" fill="rgb(131, 143, 158)" opacity="0.9901735"/>
    <path d="M 473.9509582519531 496.7550964355469 C 471.90594482421875 504.39404296875 466.3929748535156 509.9035949707031 457.80609130859375 511.959716796875 C 449.5921325683594 509.9143371582031 444.0895080566406 504.40631103515625 442.0419921875 495.95477294921875 C 444.0934143066406 487.6007995605469 449.60260009765625 482.09832763671875 457.1795959472656 480.1273193359375 C 465.6799011230469 482.9317321777344 471.66473388671875 488.06329345703125 473.9509582519531 496.7550964355469" stroke-width="0.0" fill="rgb(0, 1, 7)" opacity="1.0"/>
    <path d="M 222.91758728027344 445.720458984375 C 220.83177185058594 453.2906494140625 215.28741455078125 458.8253173828125 206.8322296142578 460.9356689453125 C 198.66798400878906 458.8497619628906 193.1446533203125 453.334716796875 191.05482482910156 444.2752990722656 C 193.09719848632812 436.611083984375 198.6226806640625 431.1282958984375 206.26365661621094 429.2248840332031 C 214.5370330810547 431.99639892578125 220.33987426757812 437.34503173828125 222.91758728027344 445.720458984375" stroke-width="0.0" fill="rgb(28, 32, 49)" opacity="1.0"/>
    <path d="M 78.95912170410156 476.3225402832031 C 76.91047668457031 484.4061584472656 71.40634155273438 489.9107666015625 63.78936767578125 491.9277038574219 C 55.016395568847656 489.65740966796875 49.79465866088867 483.80560302734375 47.08859634399414 475.1764221191406 C 49.11615753173828 467.6322326660156 54.63506317138672 462.12249755859375 62.553585052490234 460.0644226074219 C 71.36888885498047 462.1280822753906 76.89806365966797 467.6201477050781 78.95912170410156 476.3225402832031" stroke-width="0.0" fill="rgb(48, 23, 3)" opacity="0.99003124"/>
    <path d="M 301.8755798339844 362.24462890625 C 299.5307922363281 371.0857238769531 294.1678161621094 376.75225830078125 286.48492431640625 378.8365173339844 C 278.1210021972656 376.5362854003906 272.8573303222656 370.7397155761719 270.0904235839844 362.1481018066406 C 272.0914306640625 354.6025390625 277.6068115234375 349.1011657714844 285.2909851074219 347.05755615234375 C 294.3421936035156 349.1513671875 299.8679504394531 354.6499328613281 301.8755798339844 362.24462890625" stroke-width="0.0" fill="rgb(103, 114, 130)" opacity="1.0"/>
    <path d="M 286.8855895996094 229.1752166748047 C 284.037109375 237.6150665283203 278.82598876953125 243.55845642089844 270.1479797363281 245.95315551757812 C 262.5889587402344 243.9207763671875 257.08807373046875 238.40711975097656 255.04421997070312 230.5377960205078 C 257.1053466796875 221.6108856201172 262.60369873046875 216.08900451660156 270.4259033203125 214.03665161132812 C 279.39508056640625 216.09523010253906 284.89794921875 221.6077117919922 286.8855895996094 229.1752166748047" stroke-width="0.0" fill="rgb(0, 0, 0)" opacity="1.0"/>
    <path d="M 387.3693542480469 534.381591796875 C 385.6694030761719 542.2269287109375 380.2900085449219 547.845458984375 372.7531433105469 549.85888671875 C 364.589599609375 547.0862426757812 359.1570739746094 541.3510131835938 357.0441589355469 533.9490966796875 C 359.0096130371094 526.5 364.5 521.0096435546875 372.0 519.0 C 379.5 521.0096435546875 384.9903869628906 526.5 387.3693542480469 534.381591796875" stroke-width="0.0" fill="rgb(249, 229, 31)" opacity="1.0"/>
    <path d="M 210.0892791748047 190.10545349121094 C 208.2870330810547 197.84266662597656 202.88905334472656 203.4369354248047 195.21151733398438 205.39474487304688 C 187.44430541992188 203.0942840576172 181.99447631835938 197.52891540527344 179.83229064941406 189.87457275390625 C 181.74351501464844 182.2443389892578 187.22796630859375 176.69259643554688 194.8450927734375 174.84255981445312 C 202.50149536132812 177.00552368164062 207.9905242919922 182.49961853027344 210.0892791748047 190.10545349121094" stroke-width="0.0" fill="rgb(206, 200, 191)" opacity="1.0"/>
    <path d="M 251.2082061767578 174.87452697753906 C 250.46339416503906 182.922119140625 244.8699493408203 188.29281616210938 237.09893798828125 190.0740509033203 C 229.5 187.99038696289062 224.00961303710938 182.5 222.0 175.0 C 224.00961303710938 167.5 229.5 162.00961303710938 237.19715881347656 159.820556640625 C 244.97267150878906 161.5621337890625 250.45004272460938 167.02207946777344 251.2082061767578 174.87452697753906" stroke-width="0.0" fill="rgb(3, 4, 7)" opacity="0.99034774"/>
    <path d="M 177.02804565429688 474.95477294921875 C 175.04017639160156 482.6184997558594 169.8121795654297 488.53399658203125 161.18545532226562 490.9429626464844 C 153.62001037597656 488.89691162109375 148.1153106689453 483.3746643066406 146.05386352539062 474.6303405761719 C 148.1103057861328 466.6239318847656 153.6259765625 461.1153259277344 161.5609130859375 459.0508117675781 C 170.12538146972656 461.2203674316406 175.2420654296875 467.08905029296875 177.02804565429688 474.95477294921875" stroke-width="0.0" fill="rgb(17, 19, 24)" opacity="0.99113744"/>
    <path d="M 246.9107666015625 596.4990844726562 C 244.5958709716797 604.869140625 238.64784240722656 610.0535888671875 231.0044708251953 612.0037841796875 C 223.44361877441406 610.0133666992188 217.68093872070312 604.6603393554688 215.0860595703125 596.17919921875 C 217.10647583007812 588.6265258789062 222.63694763183594 583.1300659179688 230.60719299316406 581.0654296875 C 239.32717895507812 583.1490478515625 244.8346710205078 588.6796875 246.9107666015625 596.4990844726562" stroke-width="0.0" fill="rgb(62, 72, 94)" opacity="1.0"/>
    <path d="M 369.70880126953125 299.69720458984375 C 367.1663513183594 307.5621337890625 361.5032958984375 312.9781799316406 353.9649353027344 314.9991760253906 C 346.3782653808594 313.0808410644531 340.74285888671875 307.6772155761719 338.2852783203125 299.5948181152344 C 340.3922424316406 291.9941101074219 346.0600891113281 286.5755310058594 354.1717529296875 285.5688781738281 C 361.9585876464844 286.4930419921875 367.5585021972656 292.0233154296875 369.70880126953125 299.69720458984375" stroke-width="0.0" fill="rgb(213, 223, 230)" opacity="1.0"/>
    <path d="M 429.9376525878906 279.4013671875 C 427.8697509765625 287.3573913574219 422.3622741699219 292.8808288574219 414.8204040527344 294.8964538574219 C 406.4998779296875 291.9908447265625 401.0096130371094 286.5 398.42913818359375 278.50537109375 C 400.29437255859375 270.77899169921875 405.732177734375 265.1769104003906 414.6918029785156 263.06231689453125 C 422.359130859375 265.1158752441406 427.8514709472656 270.65496826171875 429.9376525878906 279.4013671875" stroke-width="0.0" fill="rgb(51, 56, 74)" opacity="0.9901022"/>
    <path d="M 278.6736755371094 375.27294921875 C 276.6376037597656 383.1290588378906 271.1668395996094 388.7339172363281 263.446533203125 390.8373107910156 C 255.06568908691406 388.5736999511719 249.82196044921875 382.79937744140625 247.39903259277344 374.42919921875 C 249.21835327148438 366.71002197265625 254.69082641601562 361.1643981933594 262.41888427734375 359.0989074707031 C 271.0888977050781 361.3092346191406 276.49359130859375 366.987548828125 278.6736755371094 375.27294921875" stroke-width="0.0" fill="rgb(145, 159, 178)" opacity="1.0"/>
    <path d="M 212.99363708496094 157.98764038085938 C 210.99038696289062 165.5 205.5 170.99038696289062 197.70968627929688 173.42236328125 C 190.1642608642578 171.41427612304688 184.70028686523438 165.79689025878906 182.67918395996094 158.1586151123047 C 185.00111389160156 150.49734497070312 190.49964904785156 145.00950622558594 198.11341857910156 142.82650756835938 C 205.64210510253906 144.81103515625 211.06166076660156 150.39654541015625 212.99363708496094 157.98764038085938" stroke-width="0.0" fill="rgb(206, 198, 189)" opacity="1.0"/>
    <path d="M 414.8287048339844 293.6795959472656 C 412.7979736328125 301.2425842285156 407.2007751464844 306.6899719238281 399.1939392089844 308.75457763671875 C 391.206298828125 306.44464111328125 385.9757080078125 300.6605224609375 384.02496337890625 292.60186767578125 C 385.5942077636719 285.1326904296875 391.0849609375 279.4742431640625 398.81646728515625 277.26104736328125 C 406.9546813964844 279.49853515625 412.44952392578125 285.0623779296875 414.8287048339844 293.6795959472656" stroke-width="0.0" fill="rgb(122, 136, 152)" opacity="0.99007124"/>
    <path d="M 200.02490234375 321.0447692871094 C 198.22007751464844 328.875732421875 193.0714569091797 334.7304992675781 184.28945922851562 336.9389953613281 C 176.66172790527344 334.8781433105469 171.2504425048828 329.2918395996094 169.51702880859375 321.4881286621094 C 172.00979614257812 313.5005798339844 177.5055694580078 308.0278625488281 185.39291381835938 305.44036865234375 C 192.6494598388672 307.6885681152344 198.00831604003906 313.4537048339844 200.02490234375 321.0447692871094" stroke-width="0.0" fill="rgb(59, 79, 94)" opacity="1.0"/>
    <path d="M 353.9443054199219 422.2056579589844 C 351.6849060058594 431.1781005859375 346.2359924316406 436.8107604980469 337.3428649902344 438.9413146972656 C 329.6475830078125 436.8782043457031 324.14739990234375 431.3413391113281 322.0843505859375 423.3188171386719 C 324.17669677734375 414.68634033203125 329.6693115234375 409.1374206542969 337.83270263671875 407.0611572265625 C 346.3507080078125 409.13531494140625 351.8870544433594 414.6390686035156 353.9443054199219 422.2056579589844" stroke-width="0.0" fill="rgb(63, 71, 92)" opacity="1.0"/>
    <path d="M 439.9605407714844 428.3746337890625 C 437.9040832519531 437.39471435546875 432.393798828125 442.90191650390625 424.4242858886719 444.95294189453125 C 415.61273193359375 442.8933410644531 410.0958251953125 437.3919372558594 408.0423583984375 428.9057312011719 C 410.0962829589844 420.60247802734375 415.6004638671875 415.0916442871094 424.5236511230469 413.0392761230469 C 432.4111328125 415.08282470703125 437.917724609375 420.588623046875 439.9605407714844 428.3746337890625" stroke-width="0.0" fill="rgb(0, 0, 0)" opacity="1.0"/>
    <path d="M 124.92278289794922 495.2192077636719 C 121.32832336425781 502.72772216796875 115.67581176757812 508.1240234375 109.56987762451172 510.04620361328125 C 102.36967468261719 508.0924377441406 96.8538589477539 502.64886474609375 93.0977554321289 495.1387939453125 C 95.11325073242188 487.6261291503906 100.6262435913086 482.1135559082031 108.79615783691406 480.0538330078125 C 117.36536407470703 482.1180419921875 122.87818908691406 487.6363220214844 124.92278289794922 495.2192077636719" stroke-width="0.0" fill="rgb(36, 40, 55)" opacity="0.9900172"/>
    <path d="M 292.7724304199219 332.53057861328125 C 290.54656982421875 341.0880126953125 285.1854248046875 346.78369140625 276.9312744140625 348.9042053222656 C 268.80462646484375 346.7713928222656 263.4439392089844 341.1191101074219 261.4461364746094 333.05126953125 C 263.6905212402344 325.30303955078125 269.3537292480469 319.8326721191406 277.21856689453125 317.5115661621094 C 285.0843811035156 319.4302673339844 290.7117004394531 324.8634033203125 292.7724304199219 332.53057861328125" stroke-width="0.0" fill="rgb(185, 198, 212)" opacity="1.0"/>
    <path d="M 306.8694763183594 586.50634765625 C 304.8229064941406 594.3069458007812 299.3045959472656 599.8162841796875 291.20672607421875 601.8546142578125 C 282.7377624511719 599.78759765625 277.22540283203125 594.2569580078125 275.1257629394531 585.7442016601562 C 277.21527099609375 577.7518920898438 282.7759704589844 572.28369140625 290.6558532714844 570.3893432617188 C 299.088623046875 572.4425659179688 304.69879150390625 577.863037109375 306.8694763183594 586.50634765625" stroke-width="0.0" fill="rgb(106, 118, 141)" opacity="1.0"/>
    <path d="M 309.9281921386719 560.2272338867188 C 307.668701171875 569.0681762695312 301.9646301269531 574.33837890625 294.3726501464844 575.2230834960938 C 286.7069396972656 573.5558471679688 280.81988525390625 568.5299682617188 278.83270263671875 561.1187133789062 C 281.0096130371094 553.5 286.5 548.0096435546875 293.91534423828125 546.2787475585938 C 302.1294250488281 547.6475219726562 307.8578186035156 552.72509765625 309.9281921386719 560.2272338867188" stroke-width="0.0" fill="rgb(30, 29, 30)" opacity="0.9900327"/>
    <path d="M 217.9999542236328 295.0001220703125 C 215.99038696289062 302.5 210.50015258789062 307.9909362792969 202.93215942382812 310.0745849609375 C 195.2212371826172 308.2123718261719 189.4929656982422 302.87957763671875 187.33111572265625 295.3724060058594 C 189.75247192382812 287.3090515136719 195.32350158691406 281.7909240722656 202.79696655273438 279.64501953125 C 210.48753356933594 282.042236328125 215.98910522460938 287.5035095214844 217.9999542236328 295.0001220703125" stroke-width="0.0" fill="rgb(183, 197, 210)" opacity="1.0"/>
    <path d="M 251.27157592773438 173.7022705078125 C 248.99038696289062 181.5 243.5 186.99038696289062 236.0 189.0 C 228.5 186.99038696289062 223.00961303710938 181.5 221.8957061767578 174.78317260742188 C 223.82015991210938 167.19503784179688 228.8629913330078 160.3907928466797 236.59945678710938 158.06983947753906 C 244.25360107421875 160.17454528808594 249.5970458984375 165.82887268066406 251.27157592773438 173.7022705078125" stroke-width="0.0" fill="rgb(3, 4, 7)" opacity="0.9901797"/>
    <path d="M 211.9410858154297 245.13119506835938 C 208.20799255371094 252.68682861328125 202.65853881835938 258.1159973144531 195.21832275390625 260.0594482421875 C 187.69781494140625 259.73974609375 182.1204833984375 254.3461456298828 180.0511932373047 246.16482543945312 C 182.1305694580078 237.65634155273438 187.6602783203125 232.1387176513672 196.54673767089844 230.04786682128906 C 204.3775177001953 232.1084442138672 209.89776611328125 237.61959838867188 211.9410858154297 245.13119506835938" stroke-width="0.0" fill="rgb(8, 11, 12)" opacity="0.99002224"/>
    <path d="M 460.02484130859375 405.9512634277344 C 457.9907531738281 413.501220703125 452.5189514160156 419.053466796875 444.1429443359375 421.9282531738281 C 436.58575439453125 419.91864013671875 431.08050537109375 414.41455078125 429.0378112792969 406.1008605957031 C 431.08416748046875 397.5915832519531 436.5926208496094 392.0865478515625 444.2386779785156 390.0476379394531 C 453.1224060058594 392.2237548828125 458.2394714355469 398.0899963378906 460.02484130859375 405.9512634277344" stroke-width="0.0" fill="rgb(0, 0, 0)" opacity="1.0"/>
    <path d="M 487.9090576171875 383.7187805175781 C 485.86572265625 391.3505859375 480.35400390625 396.87310791015625 472.8011779785156 398.89715576171875 C 464.4908752441406 396.0211486816406 459.0094299316406 390.5006408691406 456.9999694824219 382.9999084472656 C 459.00836181640625 375.4966125488281 464.4888916015625 369.9814147949219 472.45050048828125 367.44891357421875 C 480.087646484375 369.3794860839844 485.6807556152344 374.8883361816406 487.9090576171875 383.7187805175781" stroke-width="0.0" fill="rgb(77, 88, 108)" opacity="0.99037534"/>
    <path d="M 202.46072387695312 142.77333068847656 C 200.01443481445312 150.5177001953125 194.51632690429688 156.00942993164062 187.1201629638672 157.93646240234375 C 179.88819885253906 155.65289306640625 174.48785400390625 150.06939697265625 172.2267608642578 142.9562530517578 C 174.42674255371094 135.9346466064453 179.9645538330078 130.52012634277344 187.25335693359375 128.04515075683594 C 194.6211700439453 129.8944854736328 200.253662109375 135.33209228515625 202.46072387695312 142.77333068847656" stroke-width="0.0" fill="rgb(197, 189, 181)" opacity="0.9900694"/>
    <path d="M 403.7384948730469 526.1419067382812 C 400.1898193359375 533.7293090820312 394.7279052734375 539.1863403320312 387.3369140625 541.1422729492188 C 380.5042419433594 539.9451293945312 375.00579833984375 534.5086059570312 372.7986755371094 526.7923583984375 C 374.54461669921875 518.9915161132812 379.9166564941406 513.3284301757812 388.442138671875 511.1322326660156 C 396.3227233886719 513.1738891601562 401.8652038574219 518.6617431640625 403.7384948730469 526.1419067382812" stroke-width="0.0" fill="rgb(178, 132, 41)" opacity="0.9900392"/>
    <path d="M 187.35252380371094 312.6733093261719 C 184.9846954345703 320.4914855957031 179.49267578125 325.99066162109375 171.16378784179688 328.9071044921875 C 163.612060546875 326.8976135253906 158.10157775878906 321.38812255859375 156.0870819091797 313.85894775390625 C 159.29164123535156 305.2304382324219 163.89295959472656 299.2233581542969 171.3660888671875 297.095458984375 C 180.13458251953125 299.30645751953125 185.57289123535156 304.9071960449219 187.35252380371094 312.6733093261719" stroke-width="0.0" fill="rgb(64, 80, 99)" opacity="1.0"/>
    <path d="M 335.9157409667969 453.59661865234375 C 333.8551330566406 461.3284912109375 328.3207092285156 466.83746337890625 320.487548828125 468.9150695800781 C 311.7100830078125 466.80908203125 306.1924743652344 461.2893371582031 304.1372375488281 453.5435485839844 C 306.3829650878906 444.9576110839844 311.9481506347656 439.359619140625 320.58868408203125 437.1042785644531 C 328.2731018066406 439.1880798339844 333.7898254394531 444.7362365722656 335.9157409667969 453.59661865234375" stroke-width="0.0" fill="rgb(90, 99, 118)" opacity="0.99024796"/>
    <path d="M 440.9626770019531 382.62640380859375 C 438.91717529296875 390.4041748046875 433.3968811035156 395.9004211425781 425.845458984375 397.9116516113281 C 417.5 394.9903869628906 412.0096130371094 389.5 409.31646728515625 381.40924072265625 C 411.2586669921875 373.8276062011719 416.9072570800781 368.5073547363281 425.76092529296875 366.1628112792969 C 433.3763427734375 368.1209716796875 438.8979797363281 373.6162109375 440.9626770019531 382.62640380859375" stroke-width="0.0" fill="rgb(2, 3, 7)" opacity="1.0"/>
    <path d="M 441.94171142578125 509.11865234375 C 439.2888488769531 517.9326782226562 434.1233215332031 523.7699584960938 425.2647399902344 525.9526977539062 C 417.6051330566406 523.9032592773438 412.0901184082031 518.3978271484375 410.0350646972656 509.7498779296875 C 412.08831787109375 501.60125732421875 417.6056823730469 496.0982971191406 426.14617919921875 494.0415344238281 C 434.4079284667969 496.0872497558594 439.92010498046875 501.58892822265625 441.94171142578125 509.11865234375" stroke-width="0.0" fill="rgb(1, 2, 8)" opacity="1.0"/>
    <path d="M 366.87017822265625 383.0304260253906 C 364.7698974609375 391.24462890625 359.261962890625 396.8086242675781 351.0807800292969 398.90997314453125 C 342.83551025390625 396.77239990234375 337.591796875 391.0344543457031 335.8818359375 383.1015625 C 337.7806396484375 375.1181640625 342.907470703125 369.2463073730469 351.6754150390625 367.0568542480469 C 359.34967041015625 369.1185302734375 364.8131408691406 374.67767333984375 366.87017822265625 383.0304260253906" stroke-width="0.0" fill="rgb(114, 127, 146)" opacity="1.0"/>
    <path d="M 304.66424560546875 412.29449462890625 C 302.159912109375 420.5943603515625 296.549560546875 426.015380859375 288.8294372558594 428.1417236328125 C 280.9766845703125 426.4379577636719 275.3055419921875 421.1089172363281 273.37646484375 412.90460205078125 C 275.1689147949219 404.6573791503906 280.6432800292969 399.1278381347656 289.09271240234375 397.0614013671875 C 297.3481140136719 399.13812255859375 302.85614013671875 404.65362548828125 304.66424560546875 412.29449462890625" stroke-width="0.0" fill="rgb(13, 21, 37)" opacity="0.99002516"/>
    <path d="M 186.95852661132812 476.1073303222656 C 184.91302490234375 484.406005859375 179.4053192138672 489.9114074707031 171.7476043701172 491.9528503417969 C 162.8661346435547 489.7834167480469 157.7498016357422 483.924072265625 155.97740173339844 476.0417175292969 C 157.92044067382812 468.3012390136719 163.05783081054688 462.3392639160156 171.7818145751953 460.0534362792969 C 179.4012908935547 462.09063720703125 184.90773010253906 467.5994567871094 186.95852661132812 476.1073303222656" stroke-width="0.0" fill="rgb(10, 12, 18)" opacity="1.0"/>
    <path d="M 470.9578552246094 411.27783203125 C 468.87158203125 419.3425598144531 463.35009765625 424.8844909667969 454.8067626953125 426.958251953125 C 446.67633056640625 424.8761901855469 441.3260498046875 419.2528076171875 439.7021179199219 411.35345458984375 C 442.00994873046875 403.499755859375 447.4990234375 398.0074157714844 455.3377990722656 395.7207336425781 C 463.2524719238281 397.33294677734375 468.87738037109375 402.6749267578125 470.9578552246094 411.27783203125" stroke-width="0.0" fill="rgb(0, 0, 1)" opacity="1.0"/>
    <path d="M 337.36297607421875 513.3359375 C 335.3678283691406 521.0327758789062 330.65045166015625 527.6597290039062 323.7214660644531 529.866943359375 C 315.516357421875 526.9766235351562 310.19403076171875 521.4301147460938 307.29364013671875 513.23828125 C 309.1670227050781 505.6941223144531 314.6991882324219 500.17864990234375 323.46343994140625 498.0770568847656 C 331.306396484375 500.1541748046875 336.74169921875 505.7309875488281 337.36297607421875 513.3359375" stroke-width="0.0" fill="rgb(92, 57, 33)" opacity="0.9900233"/>
    <path d="M 303.1658020019531 433.1937255859375 C 301.4532470703125 441.0158996582031 296.0654602050781 446.6127014160156 288.3900451660156 448.47900390625 C 280.2767333984375 446.15374755859375 274.6332702636719 440.79034423828125 272.82647705078125 433.1785583496094 C 274.7276306152344 425.20623779296875 280.2164001464844 419.7613525390625 287.9303894042969 417.9879150390625 C 295.5 420.0096130371094 300.9903869628906 425.5 303.1658020019531 433.1937255859375" stroke-width="0.0" fill="rgb(4, 10, 21)" opacity="0.990234"/>
    <path d="M 374.9501647949219 557.3599853515625 C 372.8572692871094 566.3370361328125 367.33074951171875 571.8414306640625 358.82745361328125 573.9103393554688 C 350.6938781738281 571.8308715820312 345.16680908203125 566.3070678710938 343.0616455078125 557.3726196289062 C 345.114990234375 549.644775390625 350.6668701171875 544.1651000976562 359.3019714355469 542.0648193359375 C 367.3516540527344 544.1429443359375 372.8953552246094 549.6309204101562 374.9501647949219 557.3599853515625" stroke-width="0.0" fill="rgb(52, 60, 81)" opacity="1.0"/>
    <path d="M 410.9447326660156 251.24884033203125 C 408.750244140625 260.0931396484375 402.8900451660156 265.2264099121094 395.0462646484375 267.0235900878906 C 387.5 264.9903869628906 382.0096130371094 259.5 379.0811767578125 251.14312744140625 C 381.09564208984375 243.60855102539062 386.6127014160156 238.10494995117188 394.7961730957031 236.04251098632812 C 403.37939453125 238.1084442138672 408.8977355957031 243.6178436279297 410.9447326660156 251.24884033203125" stroke-width="0.0" fill="rgb(2, 2, 4)" opacity="0.9903349"/>
    <path d="M 258.8669738769531 420.2311706542969 C 256.3408508300781 428.9505920410156 251.1118621826172 434.7506103515625 242.4112091064453 436.9328308105469 C 234.64141845703125 434.8719787597656 229.1280517578125 429.3585510253906 227.05101013183594 420.41888427734375 C 229.1073455810547 412.6258850097656 234.6339111328125 407.12628173828125 243.5380401611328 405.05792236328125 C 251.37124633789062 407.1091613769531 256.8652038574219 412.6395568847656 258.8669738769531 420.2311706542969" stroke-width="0.0" fill="rgb(50, 57, 73)" opacity="1.0"/>
    <path d="M 427.7986755371094 392.7602233886719 C 425.8836669921875 400.3898010253906 420.40087890625 405.91302490234375 411.4056701660156 407.9661865234375 C 403.5802001953125 405.92535400390625 398.0794372558594 400.4178161621094 396.0393981933594 392.42724609375 C 398.088623046875 383.5970153808594 403.59716796875 378.0888671875 411.1328125 376.07440185546875 C 419.5007629394531 379.00848388671875 424.9912414550781 384.49932861328125 427.7986755371094 392.7602233886719" stroke-width="0.0" fill="rgb(0, 0, 0)" opacity="1.0"/>
    <path d="M 191.2622528076172 199.29966735839844 C 189.58445739746094 207.1613006591797 184.2443084716797 212.8167724609375 176.7061309814453 214.87722778320312 C 168.174560546875 212.4771270751953 162.76773071289062 206.7349853515625 161.6240997314453 199.50332641601562 C 163.6185302734375 192.01515197753906 168.9289093017578 186.3347930908203 176.37254333496094 183.3759765625 C 183.7677764892578 185.57345581054688 189.05320739746094 191.3602752685547 191.2622528076172 199.29966735839844" stroke-width="0.0" fill="rgb(188, 180, 172)" opacity="0.99023485"/>
    <path d="M 513.32568359375 450.4131774902344 C 512.75048828125 458.320068359375 507.36761474609375 463.8998107910156 499.6341552734375 465.9552001953125 C 490.6354675292969 463.8796081542969 485.1179504394531 458.3655090332031 483.05810546875 450.65557861328125 C 485.2149353027344 441.8276672363281 490.9729919433594 436.6202392578125 498.88800048828125 434.9305114746094 C 506.48565673828125 437.0148620605469 511.8376770019531 442.5593566894531 513.32568359375 450.4131774902344" stroke-width="0.0" fill="rgb(55, 63, 71)" opacity="1.0"/>
    <path d="M 338.144775390625 155.25123596191406 C 336.15655517578125 162.70770263671875 330.75738525390625 168.35662841796875 323.261962890625 171.93812561035156 C 316.28692626953125 169.73475646972656 310.8872985839844 163.14999389648438 308.0601806640625 155.22787475585938 C 310.1251525878906 147.6689910888672 315.71844482421875 142.2585906982422 323.5162658691406 140.51182556152344 C 331.5 143.00961303710938 336.990478515625 148.49996948242188 338.144775390625 155.25123596191406" stroke-width="0.0" fill="rgb(5, 5, 6)" opacity="0.99002814"/>
    <path d="M 298.5197448730469 199.88307189941406 C 296.35504150390625 207.89981079101562 290.9690246582031 213.55722045898438 283.59033203125 214.2350616455078 C 275.84552001953125 212.61831665039062 270.3044128417969 207.17861938476562 268.34063720703125 199.8143310546875 C 269.72381591796875 192.1238555908203 274.9952392578125 186.36256408691406 282.5655822753906 184.22718811035156 C 290.84197998046875 186.59951782226562 296.4141540527344 192.15206909179688 298.5197448730469 199.88307189941406" stroke-width="0.0" fill="rgb(250, 237, 218)" opacity="1.0"/>
    <path d="M 515.2680053710938 441.25537109375 C 513.8798217773438 448.5820007324219 508.6563415527344 454.1670227050781 501.17645263671875 455.7725830078125 C 493.6258850097656 453.78729248046875 487.59466552734375 448.6116027832031 485.09906005859375 440.368896484375 C 487.1829833984375 432.70404052734375 492.70166015625 427.1776428222656 500.49749755859375 425.09393310546875 C 508.8687438964844 427.3670959472656 513.5623168945312 433.62835693359375 515.2680053710938 441.25537109375" stroke-width="0.0" fill="rgb(81, 92, 104)" opacity="0.99046856"/>
    <path d="M 321.4955139160156 252.09390258789062 C 318.1453552246094 259.74853515625 312.8637390136719 265.4739990234375 305.7838439941406 267.8914489746094 C 298.1336364746094 266.2158203125 292.304931640625 261.04229736328125 290.2272644042969 253.6232147216797 C 292.93438720703125 245.33229064941406 298.1168212890625 239.398681640625 306.7626037597656 237.0722198486328 C 314.38604736328125 239.10690307617188 319.9006652832031 244.6107940673828 321.4955139160156 252.09390258789062" stroke-width="0.0" fill="rgb(7, 9, 15)" opacity="0.9900477"/>
    <path d="M 303.8584899902344 241.20364379882812 C 301.25030517578125 249.7520751953125 295.8741149902344 255.55311584472656 287.16326904296875 257.94403076171875 C 279.60186767578125 255.9088592529297 274.0989990234375 250.3948516845703 272.1084899902344 242.8369903564453 C 275.1450500488281 234.56463623046875 280.3778381347656 228.6394805908203 288.86346435546875 226.05447387695312 C 296.4053955078125 228.0850830078125 301.89788818359375 233.60118103027344 303.8584899902344 241.20364379882812" stroke-width="0.0" fill="rgb(28, 31, 35)" opacity="1.0"/>
    <path d="M 290.4001159667969 545.6089477539062 C 287.9903869628906 553.5 282.5 558.9903564453125 274.2254943847656 561.8674926757812 C 266.70440673828125 559.8427124023438 261.23394775390625 554.2626342773438 259.0985107421875 545.4827880859375 C 261.16571044921875 537.7032470703125 266.72747802734375 532.2254638671875 275.3487548828125 530.1165771484375 C 283.22998046875 532.2197875976562 288.65478515625 537.8135986328125 290.4001159667969 545.6089477539062" stroke-width="0.0" fill="rgb(252, 252, 28)" opacity="1.0"/>
    <path d="M 386.5365295410156 533.17431640625 C 384.2677917480469 540.6698608398438 378.6129150390625 546.0941162109375 370.7585754394531 548.3379516601562 C 362.84698486328125 546.571533203125 357.1914978027344 541.2361450195312 355.1577453613281 533.4961547851562 C 357.2350158691406 524.7527465820312 362.7491760253906 519.22607421875 370.4305419921875 517.1846313476562 C 378.22174072265625 520.1146850585938 383.7695007324219 525.801025390625 386.5365295410156 533.17431640625" stroke-width="0.0" fill="rgb(249, 221, 24)" opacity="0.99113363"/>
    <path d="M 373.9404602050781 462.64874267578125 C 371.88165283203125 470.3636779785156 366.3570251464844 475.8653869628906 358.2268981933594 477.9257507324219 C 349.6881408691406 475.8359680175781 344.1571044921875 470.3153076171875 342.09637451171875 462.24835205078125 C 344.1684265136719 453.6891784667969 349.7035217285156 448.209228515625 357.5838928222656 446.2737121582031 C 366.2330017089844 448.30084228515625 371.8266906738281 453.7212829589844 373.9404602050781 462.64874267578125" stroke-width="0.0" fill="rgb(14, 20, 31)" opacity="0.9900201"/>
    <path d="M 341.0609130859375 97.8939437866211 C 339.1335754394531 104.68262481689453 333.7329406738281 110.34228515625 326.2071228027344 113.93785095214844 C 318.6302795410156 111.88928985595703 313.15667724609375 106.35273742675781 311.2264404296875 98.51175689697266 C 313.2257080078125 89.68214416503906 318.64056396484375 84.10746002197266 326.14739990234375 82.07424926757812 C 334.048828125 85.2983627319336 339.2086181640625 91.13429260253906 341.0609130859375 97.8939437866211" stroke-width="0.0" fill="rgb(8, 9, 10)" opacity="0.99001527"/>
    <path d="M 226.02276611328125 81.02429962158203 C 224.10816955566406 88.66931915283203 218.7382354736328 94.32536315917969 211.37924194335938 96.23831176757812 C 203.95399475097656 93.52397155761719 198.489501953125 88.04237365722656 196.4723663330078 80.9120101928711 C 198.4290313720703 73.92015075683594 203.94049072265625 68.49052429199219 211.38308715820312 65.5484619140625 C 218.6373291015625 67.74945831298828 224.02293395996094 73.43599700927734 226.02276611328125 81.02429962158203" stroke-width="0.0" fill="rgb(201, 194, 186)" opacity="0.9900804"/>
    <path d="M 245.9343719482422 546.5794067382812 C 243.8749237060547 554.3622436523438 238.36180114746094 559.8734741210938 230.78611755371094 561.8588256835938 C 222.5 558.9903564453125 217.00961303710938 553.5 215.0017547607422 546.0033569335938 C 217.02980041503906 538.5398559570312 222.58726501464844 533.1832885742188 230.48794555664062 530.7908325195312 C 238.14207458496094 532.35498046875 243.7671661376953 537.8087768554688 245.9343719482422 546.5794067382812" stroke-width="0.0" fill="rgb(144, 105, 22)" opacity="1.0"/>
    <path d="M 490.8749694824219 429.4475402832031 C 488.8600769042969 437.35064697265625 483.3563232421875 442.8744812011719 475.73602294921875 444.9225158691406 C 467.0823974609375 442.5618896484375 461.3025207519531 437.00469970703125 459.0533447265625 428.5137634277344 C 461.14532470703125 420.67950439453125 466.6767272949219 415.14019775390625 475.3308410644531 413.0548095703125 C 483.36297607421875 415.1189270019531 488.8452453613281 420.6503601074219 490.8749694824219 429.4475402832031" stroke-width="0.0" fill="rgb(5, 6, 12)" opacity="0.99005014"/>
    <path d="M 323.7897033691406 531.3427124023438 C 321.771240234375 539.2647705078125 316.28533935546875 544.822509765625 308.5689392089844 546.8911743164062 C 299.791015625 544.7411499023438 294.2565002441406 539.2095947265625 292.12908935546875 531.2642211914062 C 294.2943115234375 522.841796875 299.8467102050781 517.306640625 308.3890686035156 515.1244506835938 C 316.2107849121094 517.23876953125 321.7074279785156 522.8106079101562 323.7897033691406 531.3427124023438" stroke-width="0.0" fill="rgb(249, 252, 27)" opacity="0.99294835"/>
    <path d="M 229.9076690673828 567.56591796875 C 227.82974243164062 575.3058471679688 222.30471801757812 580.8263549804688 213.56585693359375 582.911865234375 C 205.65591430664062 580.8594970703125 200.14842224121094 575.3409423828125 198.0685272216797 566.5689086914062 C 200.13137817382812 558.6453857421875 205.6390380859375 553.1173706054688 213.17640686035156 551.1025390625 C 221.670654296875 553.9305419921875 227.5899200439453 559.123291015625 229.9076690673828 567.56591796875" stroke-width="0.0" fill="rgb(66, 78, 105)" opacity="1.0"/>
    <path d="M 309.9251708984375 429.4844970703125 C 307.8846130371094 437.3791809082031 302.37908935546875 442.8841857910156 294.78668212890625 444.8365478515625 C 286.36614990234375 442.0738525390625 280.69671630859375 436.7059020996094 278.3507385253906 428.8209228515625 C 280.52362060546875 421.0996398925781 286.1573486328125 415.7020263671875 294.35662841796875 413.4261779785156 C 302.17181396484375 415.3653869628906 307.8079833984375 420.76165771484375 309.9251708984375 429.4844970703125" stroke-width="0.0" fill="rgb(47, 53, 70)" opacity="0.9905383"/>
    <path d="M 119.92777252197266 448.8460998535156 C 117.90055847167969 456.3893737792969 112.38818359375 461.8976135253906 103.64204406738281 463.9541015625 C 95.60771179199219 461.9013366699219 90.09467315673828 456.3940734863281 88.03970336914062 447.6869201660156 C 90.09403228759766 439.6216735839844 95.66045379638672 434.2074890136719 103.47235107421875 432.511962890625 C 111.50635528564453 435.007568359375 117.11105346679688 440.4583740234375 119.92777252197266 448.8460998535156" stroke-width="0.0" fill="rgb(13, 16, 23)" opacity="1.0"/>
    <path d="M 269.1341857910156 265.9266052246094 C 267.27630615234375 273.90179443359375 262.0626220703125 279.70758056640625 254.69644165039062 281.5055236816406 C 246.34449768066406 279.2371520996094 240.83460998535156 273.6295471191406 238.61618041992188 265.9966125488281 C 240.98883056640625 258.4031982421875 246.2706298828125 252.61569213867188 254.6817169189453 251.66343688964844 C 262.1517028808594 252.24093627929688 267.4158935546875 257.9715270996094 269.1341857910156 265.9266052246094" stroke-width="0.0" fill="rgb(232, 241, 247)" opacity="1.0"/>
    <path d="M 321.6247253417969 267.545166015625 C 319.41876220703125 275.9168701171875 313.9288330078125 281.452880859375 306.05987548828125 282.26141357421875 C 298.5198974609375 280.926513671875 293.01019287109375 275.49810791015625 291.00006103515625 268.0002136230469 C 293.01409912109375 260.5140380859375 298.6007995605469 255.27589416503906 306.13189697265625 253.91746520996094 C 314.2822265625 254.24942016601562 319.7646789550781 259.7157897949219 321.6247253417969 267.545166015625" stroke-width="0.0" fill="rgb(232, 240, 244)" opacity="0.99051917"/>
    <path d="M 55.36955261230469 488.58380126953125 C 53.58611297607422 495.62579345703125 46.925270080566406 500.2033386230469 40.400577545166016 502.0517578125 C 33.32644271850586 500.114990234375 27.533082962036133 494.7474060058594 24.105806350708008 487.36279296875 C 26.1789608001709 479.6852722167969 31.666906356811523 474.1358337402344 39.40983581542969 472.06854248046875 C 48.16497039794922 474.22265625 53.3508415222168 479.9806213378906 55.36955261230469 488.58380126953125" stroke-width="0.0" fill="rgb(47, 48, 49)" opacity="0.99003047"/>
    <path d="M 223.296630859375 167.81605529785156 C 220.90029907226562 175.44297790527344 215.46484375 180.9716033935547 207.9934539794922 183.00047302246094 C 200.47698974609375 181.0049285888672 194.94639587402344 175.53749084472656 192.9215087890625 168.03677368164062 C 195.0050048828125 160.49627685546875 200.49591064453125 155.00376892089844 208.230224609375 152.69784545898438 C 215.88092041015625 154.5926513671875 221.37643432617188 160.12867736816406 223.296630859375 167.81605529785156" stroke-width="0.0" fill="rgb(202, 195, 187)" opacity="0.9935431"/>
    <path d="M 356.9414367675781 223.5816650390625 C 354.8721618652344 232.36721801757812 349.37554931640625 237.89224243164062 341.5977783203125 239.94100952148438 C 332.6409912109375 237.86390686035156 327.1191711425781 232.3658447265625 325.05865478515625 223.87295532226562 C 327.1227722167969 215.6361083984375 332.6341247558594 210.11856079101562 340.9181823730469 208.05682373046875 C 349.3380126953125 210.14080810546875 354.87078857421875 215.65635681152344 356.9414367675781 223.5816650390625" stroke-width="0.0" fill="rgb(39, 49, 59)" opacity="1.0"/>
    <path d="M 160.93185424804688 281.3970642089844 C 158.7310333251953 290.06866455078125 152.861328125 295.179443359375 144.43836975097656 297.5408020019531 C 136.66392517089844 295.7998352050781 131.09974670410156 290.3717956542969 129.0442657470703 282.6705627441406 C 131.13931274414062 273.69488525390625 136.7668914794922 268.3476867675781 144.8691864013672 266.61614990234375 C 153.19610595703125 268.40966796875 158.85215759277344 273.71405029296875 160.93185424804688 281.3970642089844" stroke-width="0.0" fill="rgb(3, 2, 4)" opacity="0.9901773"/>
    <path d="M 161.9553680419922 265.3948669433594 C 159.88865661621094 273.3421936035156 154.2748565673828 278.6904602050781 146.18458557128906 280.3562927246094 C 137.80233764648438 278.58795166015625 132.1420440673828 273.2908630371094 130.0458984375 264.4917907714844 C 132.09886169433594 256.6075744628906 137.60635375976562 251.0960235595703 145.40663146972656 249.04705810546875 C 154.36590576171875 251.11903381347656 159.88267517089844 256.6333923339844 161.9553680419922 265.3948669433594" stroke-width="0.0" fill="rgb(8, 12, 21)" opacity="1.0"/>
    <path d="M 301.83636474609375 553.3089599609375 C 298.5584411621094 561.115478515625 293.1629638671875 566.7180786132812 285.304443359375 569.7501831054688 C 277.67059326171875 567.8360595703125 272.15924072265625 562.3309326171875 270.15234375 554.699951171875 C 273.28076171875 546.8052978515625 278.8134765625 541.3228149414062 286.4802551269531 539.344482421875 C 294.1749572753906 540.3414916992188 299.76678466796875 545.7857666015625 301.83636474609375 553.3089599609375" stroke-width="0.0" fill="rgb(152, 101, 33)" opacity="0.9901103"/>
    <path d="M 331.0607604980469 356.90618896484375 C 328.9893493652344 364.49658203125 323.4658508300781 369.8844299316406 316.76776123046875 371.0902099609375 C 309.2983703613281 369.138427734375 303.61737060546875 363.7669677734375 300.0611572265625 356.142333984375 C 302.08831787109375 348.59521484375 307.5962219238281 343.0910949707031 315.20196533203125 341.0966796875 C 324.0719299316406 343.3123474121094 329.3194885253906 349.05401611328125 331.0607604980469 356.90618896484375" stroke-width="0.0" fill="rgb(6, 9, 13)" opacity="0.99006045"/>
    <path d="M 347.37457275390625 144.1715850830078 C 345.4642333984375 152.01815795898438 340.1263732910156 157.7397918701172 332.79931640625 159.7657928466797 C 325.3211364746094 156.1603546142578 319.8760070800781 150.66539001464844 317.8700256347656 143.1806640625 C 318.31475830078125 135.81637573242188 323.7884521484375 130.241455078125 331.4022521972656 128.2488555908203 C 339.7230224609375 130.72508239746094 345.2170104980469 136.29501342773438 347.37457275390625 144.1715850830078" stroke-width="0.0" fill="rgb(199, 196, 194)" opacity="0.9900281"/>
    <path d="M 318.747802734375 95.65617370605469 C 317.56781005859375 104.1166763305664 312.14849853515625 109.67736053466797 303.2653503417969 111.90104675292969 C 295.67047119140625 109.85665130615234 290.1752014160156 104.31678009033203 288.52734375 96.77515411376953 C 291.7182312011719 89.17916870117188 297.172119140625 83.69647216796875 304.70306396484375 80.68159484863281 C 312.2418518066406 82.23710632324219 317.70721435546875 87.77583312988281 318.747802734375 95.65617370605469" stroke-width="0.0" fill="rgb(82, 89, 96)" opacity="0.9900491"/>
    <path d="M 242.9497833251953 81.38697052001953 C 240.8997802734375 89.3907470703125 235.3898468017578 94.89727783203125 227.8507537841797 96.89696502685547 C 220.28346252441406 93.2165298461914 214.85324096679688 87.6932601928711 212.9335479736328 81.053955078125 C 214.859375 74.32113647460938 220.31756591796875 68.85005187988281 227.88189697265625 65.1990966796875 C 235.3754119873047 67.11463928222656 240.89076232910156 72.62223052978516 242.9497833251953 81.38697052001953" stroke-width="0.0" fill="rgb(18, 31, 40)" opacity="0.9900143"/>
    <path d="M 231.94309997558594 430.4057922363281 C 229.88540649414062 438.36822509765625 224.3552703857422 443.85028076171875 216.69873046875 445.7369689941406 C 208.45675659179688 443.0007019042969 202.6627655029297 437.65960693359375 200.0705108642578 429.1611633300781 C 202.08999633789062 421.595703125 207.59588623046875 416.09051513671875 215.65599060058594 414.0533447265625 C 224.38328552246094 416.10516357421875 229.88107299804688 421.6222229003906 231.94309997558594 430.4057922363281" stroke-width="0.0" fill="rgb(21, 25, 38)" opacity="1.0"/>
    <path d="M 297.9000549316406 453.6694030761719 C 295.84686279296875 461.3262023925781 290.32464599609375 466.8432312011719 282.75506591796875 468.8507995605469 C 274.4989929199219 465.99371337890625 269.00958251953125 460.5000915527344 266.9686584472656 452.95550537109375 C 268.85467529296875 445.306640625 274.3198547363281 439.9290771484375 281.8345642089844 438.7434997558594 C 289.3239440917969 440.4139404296875 295.56146240234375 445.2304992675781 297.9000549316406 453.6694030761719" stroke-width="0.0" fill="rgb(102, 112, 132)" opacity="1.0"/>
    <path d="M 348.29779052734375 269.47869873046875 C 347.5710144042969 277.08978271484375 342.11077880859375 282.63751220703125 334.5332336425781 283.15936279296875 C 326.2527770996094 282.0517578125 320.6621398925781 276.8126220703125 318.6493225097656 269.1696472167969 C 320.9407958984375 261.5098876953125 326.55548095703125 256.0836181640625 334.23736572265625 253.7314910888672 C 341.72418212890625 255.66445922851562 346.86871337890625 261.41400146484375 348.29779052734375 269.47869873046875" stroke-width="0.0" fill="rgb(245, 249, 250)" opacity="1.0"/>
    <path d="M 293.9105529785156 500.53948974609375 C 291.6539611816406 508.6340637207031 284.9452209472656 513.2491455078125 277.6879577636719 515.0874633789062 C 271.0350036621094 513.2747192382812 264.4240417480469 508.4877014160156 262.09185791015625 500.3892822265625 C 264.1700744628906 492.6966552734375 269.697998046875 487.17425537109375 277.88555908203125 485.111083984375 C 286.3176574707031 487.1755676269531 291.8441467285156 492.6746520996094 293.9105529785156 500.53948974609375" stroke-width="0.0" fill="rgb(67, 76, 85)" opacity="0.99005646"/>
    <path d="M 226.46058654785156 182.63442993164062 C 224.16575622558594 190.72021484375 218.7936248779297 196.3925018310547 211.29055786132812 198.48211669921875 C 203.46258544921875 196.05335998535156 197.9900665283203 190.52468872070312 195.99472045898438 183.00369262695312 C 198.004150390625 175.4956817626953 203.4961395263672 170.00588989257812 211.18328857421875 167.86549377441406 C 219.0029296875 169.5606689453125 224.5974884033203 174.94822692871094 226.46058654785156 182.63442993164062" stroke-width="0.0" fill="rgb(198, 191, 183)" opacity="0.99068093"/>
    <path d="M 317.98101806640625 267.99761962890625 C 315.9415588378906 275.4217224121094 310.3584289550781 280.741455078125 303.3636474609375 282.1491394042969 C 295.3090515136719 280.91937255859375 289.74102783203125 275.7635498046875 288.1529846191406 268.3460998535156 C 290.63494873046875 261.20709228515625 296.28851318359375 255.8704833984375 303.7353820800781 253.94461059570312 C 310.2814025878906 255.4390869140625 315.9494934082031 260.5763854980469 317.98101806640625 267.99761962890625" stroke-width="0.0" fill="rgb(243, 246, 250)" opacity="0.9901255"/>
    <path d="M 473.9353942871094 447.8170166015625 C 471.904052734375 455.3943786621094 466.3953552246094 460.90625 457.5812683105469 462.9589538574219 C 449.5887145996094 460.91650390625 444.0818786621094 455.41192626953125 442.0381774902344 447.5882568359375 C 444.0974426269531 438.6046142578125 449.60174560546875 433.0910339355469 457.1617431640625 431.0644226074219 C 465.84796142578125 433.5162658691406 471.57550048828125 439.10296630859375 473.9353942871094 447.8170166015625" stroke-width="0.0" fill="rgb(1, 2, 7)" opacity="1.0"/>
    <path d="M 336.0401916503906 53.735809326171875 C 334.1331481933594 59.709415435791016 328.8173828125 65.75316619873047 321.81024169921875 68.91972351074219 C 314.0821533203125 66.66483306884766 308.9732360839844 60.61885070800781 306.1730651855469 52.26485824584961 C 308.1601257324219 44.65904998779297 313.64215087890625 39.118309020996094 321.09271240234375 38.810028076171875 C 328.6002502441406 40.92267990112305 334.0666198730469 46.40424346923828 336.0401916503906 53.735809326171875" stroke-width="0.0" fill="rgb(10, 18, 24)" opacity="0.99000865"/>
    <path d="M 313.83050537109375 65.55582427978516 C 311.76861572265625 73.2361831665039 306.2261657714844 78.7417984008789 298.52642822265625 80.70643615722656 C 290.1629333496094 78.41302490234375 284.6428527832031 72.81593322753906 282.5844421386719 65.2259750366211 C 284.9300537109375 57.34036636352539 290.1459655761719 51.43549728393555 298.28411865234375 49.133087158203125 C 306.189208984375 51.25736999511719 311.63427734375 56.84978103637695 313.83050537109375 65.55582427978516" stroke-width="0.0" fill="rgb(99, 124, 142)" opacity="1.0"/>
    <path d="M 289.5520935058594 456.15838623046875 C 287.4727478027344 464.0395202636719 282.1607360839844 469.7742004394531 273.4220886230469 471.9374084472656 C 265.6589660644531 469.86669921875 260.1647644042969 464.3280029296875 258.1152648925781 456.5646667480469 C 260.30865478515625 447.8643798828125 265.8876953125 442.371826171875 273.7783203125 440.3514099121094 C 281.6402587890625 442.7797546386719 287.1790466308594 448.3736877441406 289.5520935058594 456.15838623046875" stroke-width="0.0" fill="rgb(88, 98, 115)" opacity="1.0"/>
    <path d="M 142.95816040039062 411.3125 C 140.90676879882812 419.3943176269531 135.38819885253906 424.89215087890625 126.9094009399414 426.9449768066406 C 118.61495208740234 424.888916015625 113.0877456665039 419.39532470703125 111.0345687866211 411.4149169921875 C 113.09117889404297 402.6018371582031 118.60400390625 397.0963439941406 127.15604400634766 395.0452880859375 C 135.3941192626953 397.0951232910156 140.8988494873047 402.6084899902344 142.95816040039062 411.3125" stroke-width="0.0" fill="rgb(10, 13, 20)" opacity="1.0"/>
    <path d="M 229.81118774414062 515.4025268554688 C 227.20167541503906 523.6145629882812 221.56292724609375 529.0465087890625 213.5391082763672 531.6253662109375 C 205.79898071289062 529.693359375 200.23849487304688 524.2249755859375 198.1280517578125 515.9627685546875 C 200.2445068359375 507.76348876953125 205.7427215576172 502.1959228515625 213.35813903808594 500.1797790527344 C 221.60169982910156 502.9480895996094 227.66555786132812 508.0845642089844 229.81118774414062 515.4025268554688" stroke-width="0.0" fill="rgb(249, 210, 24)" opacity="0.99032784"/>
    <path d="M 246.8993377685547 366.1431884765625 C 243.40977478027344 373.8959655761719 237.84124755859375 379.254638671875 230.21075439453125 381.2652282714844 C 222.6435089111328 380.8431396484375 217.09979248046875 375.3780822753906 215.03761291503906 366.82061767578125 C 217.0941162109375 358.6069030761719 222.61546325683594 353.1160583496094 230.4552001953125 351.11602783203125 C 239.3670654296875 353.14208984375 244.90065002441406 358.6166687011719 246.8993377685547 366.1431884765625" stroke-width="0.0" fill="rgb(2, 2, 2)" opacity="0.990031"/>
    <path d="M 125.94883728027344 435.6762390136719 C 123.87629699707031 444.3359375 118.2855224609375 449.7304382324219 110.44115447998047 451.40216064453125 C 102.49130249023438 448.992431640625 96.8799057006836 443.5469665527344 94.07756805419922 435.14569091796875 C 96.08631134033203 427.59185791015625 101.59213256835938 422.0869445800781 109.60004425048828 420.043212890625 C 118.38327026367188 422.1036376953125 123.89534759521484 427.6170959472656 125.94883728027344 435.6762390136719" stroke-width="0.0" fill="rgb(10, 14, 19)" opacity="1.0"/>
    <path d="M 408.8911437988281 257.8155822753906 C 406.8551330566406 265.309814453125 401.26214599609375 270.7246398925781 393.47216796875 272.494140625 C 385.5 269.9903869628906 380.0096130371094 264.5 378.19635009765625 257.1568298339844 C 380.32220458984375 249.77841186523438 385.75909423828125 244.25900268554688 393.1089172363281 242.1532440185547 C 400.4841003417969 243.9832305908203 405.8025207519531 249.5834197998047 408.8911437988281 257.8155822753906" stroke-width="0.0" fill="rgb(54, 58, 69)" opacity="0.990187"/>
    <path d="M 484.8987121582031 479.5101623535156 C 482.8645935058594 487.3614196777344 477.36834716796875 492.8819580078125 469.7929992675781 494.8573913574219 C 461.3171081542969 492.0787353515625 455.3488464355469 486.9262390136719 453.0486145019531 478.1961975097656 C 455.0863952636719 470.5929870605469 460.593505859375 465.08758544921875 468.67755126953125 463.038818359375 C 477.3492126464844 465.112060546875 482.8029479980469 470.6870422363281 484.8987121582031 479.5101623535156" stroke-width="0.0" fill="rgb(11, 16, 16)" opacity="0.99012214"/>
    <path d="M 528.0467529296875 517.1911010742188 C 526.1172485351562 524.6590576171875 520.6549072265625 530.1094360351562 513.1792602539062 532.0572509765625 C 505.6737365722656 531.7945556640625 500.1300048828125 526.3497314453125 498.05859375 517.6593627929688 C 500.10784912109375 509.6153869628906 505.61346435546875 504.1031799316406 513.698974609375 502.050537109375 C 522.3687133789062 504.10833740234375 527.7418212890625 509.67059326171875 528.0467529296875 517.1911010742188" stroke-width="0.0" fill="rgb(12, 17, 14)" opacity="0.99001354"/>
    <path d="M 477.5907897949219 387.5606689453125 C 476.7019348144531 395.26239013671875 471.325439453125 400.8753356933594 463.8276062011719 402.9028625488281 C 455.0287780761719 400.27197265625 449.1991271972656 395.16748046875 447.0537414550781 386.5138854980469 C 449.1329040527344 378.6656188964844 454.6946105957031 373.2105407714844 462.3444519042969 371.55059814453125 C 470.0360412597656 374.5207824707031 475.4792175292969 379.96368408203125 477.5907897949219 387.5606689453125" stroke-width="0.0" fill="rgb(22, 27, 40)" opacity="0.9902199"/>
    <path d="M 388.17144775390625 278.1676940917969 C 386.34527587890625 285.8240966796875 380.8436584472656 291.4037780761719 373.2393493652344 292.7480163574219 C 365.3216247558594 291.16851806640625 359.8155212402344 285.6786193847656 357.7383728027344 277.7398681640625 C 359.59527587890625 270.14642333984375 365.1480712890625 264.59613037109375 372.7223205566406 262.58990478515625 C 380.5 265.0096130371094 385.9903869628906 270.5 388.17144775390625 278.1676940917969" stroke-width="0.0" fill="rgb(216, 228, 237)" opacity="1.0"/>
    <path d="M 248.68612670898438 185.79806518554688 C 246.86512756347656 193.34024047851562 241.31048583984375 198.77474975585938 232.38021850585938 200.85231018066406 C 224.81980895996094 198.80960083007812 220.71011352539062 192.60768127441406 218.94219970703125 185.41909790039062 C 220.82423400878906 178.21578979492188 226.10330200195312 172.4990692138672 233.18038940429688 170.06658935546875 C 240.549560546875 171.95465087890625 245.8292999267578 177.5155792236328 248.68612670898438 185.79806518554688" stroke-width="0.0" fill="rgb(6, 6, 10)" opacity="0.9900231"/>
    <path d="M 292.0669250488281 273.8541564941406 C 291.83148193359375 281.3537292480469 286.36932373046875 286.88140869140625 277.6199645996094 288.9446716308594 C 269.6679382324219 286.87677001953125 264.65582275390625 281.2412414550781 263.9507751464844 273.7300720214844 C 265.89501953125 266.3612976074219 271.35888671875 260.88873291015625 278.34552001953125 258.9303283691406 C 284.65863037109375 260.8705139160156 290.1065673828125 266.3507995605469 292.0669250488281 273.8541564941406" stroke-width="0.0" fill="rgb(26, 32, 39)" opacity="0.9900066"/>
    <path d="M 400.2388610839844 264.7404479980469 C 399.6106262207031 272.0740051269531 394.0619201660156 277.5785217285156 386.4287414550781 279.5765075683594 C 378.5645446777344 276.906005859375 372.9200744628906 271.4854431152344 370.71209716796875 264.138427734375 C 373.0898132324219 256.69842529296875 378.9044189453125 251.6249542236328 385.4941101074219 249.91725158691406 C 392.7085876464844 251.83595275878906 398.1759948730469 257.28680419921875 400.2388610839844 264.7404479980469" stroke-width="0.0" fill="rgb(169, 186, 202)" opacity="0.9900407"/>
    <path d="M 105.88851165771484 360.8235168457031 C 103.7878646850586 369.2636413574219 98.26750946044922 374.7967834472656 90.32740020751953 376.8801574707031 C 81.88998413085938 374.73486328125 77.57022857666016 368.7563171386719 75.90833282470703 361.4645690917969 C 77.82100677490234 354.2653503417969 83.22289276123047 348.6740417480469 90.72135162353516 345.0936279296875 C 98.29289245605469 347.1744689941406 103.80770874023438 352.7146301269531 105.88851165771484 360.8235168457031" stroke-width="0.0" fill="rgb(75, 94, 123)" opacity="0.99004275"/>
    <path d="M 378.88946533203125 344.5935974121094 C 376.8125915527344 352.2944641113281 371.3103332519531 357.8481750488281 363.6741638183594 359.9158020019531 C 354.8378601074219 357.71923828125 349.3536376953125 352.134521484375 347.2937927246094 344.1826477050781 C 349.49981689453125 336.142333984375 355.2881774902344 330.9549255371094 363.4682312011719 328.4181213378906 C 371.05523681640625 330.4161071777344 376.65643310546875 335.91583251953125 378.88946533203125 344.5935974121094" stroke-width="0.0" fill="rgb(118, 135, 155)" opacity="1.0"/>
    <path d="M 240.10906982421875 547.6029663085938 C 238.25343322753906 554.9014282226562 233.16329956054688 561.3538818359375 226.7305145263672 562.201904296875 C 219.2373809814453 560.19873046875 213.6105194091797 554.8170166015625 210.1642608642578 547.4183349609375 C 212.31016540527344 539.9502563476562 218.1241912841797 534.83984375 225.9922637939453 532.8037719726562 C 233.110107421875 535.3173828125 238.3629150390625 540.9978637695312 240.10906982421875 547.6029663085938" stroke-width="0.0" fill="rgb(243, 191, 27)" opacity="0.99002755"/>
    <path d="M 209.77635192871094 320.3401184082031 C 207.7568359375 328.2718811035156 202.30856323242188 333.8509216308594 194.73309326171875 335.90802001953125 C 186.46249389648438 333.32745361328125 181.24681091308594 327.3394775390625 179.2853240966797 319.84234619140625 C 180.88824462890625 312.31787109375 186.22015380859375 306.5932922363281 193.65383911132812 304.6269836425781 C 201.8519287109375 306.76727294921875 207.55857849121094 312.0457763671875 209.77635192871094 320.3401184082031" stroke-width="0.0" fill="rgb(90, 107, 124)" opacity="0.9901641"/>
    <path d="M 339.95562744140625 359.2039794921875 C 337.7212829589844 368.0465393066406 331.8335266113281 373.18505859375 324.64044189453125 374.21124267578125 C 317.0374450683594 372.28961181640625 311.1153564453125 367.1595153808594 308.7503356933594 360.0791931152344 C 311.0217590332031 352.51397705078125 316.5091552734375 347.003662109375 324.78173828125 344.1443786621094 C 332.3883361816406 346.1146545410156 337.9139709472656 351.60015869140625 339.95562744140625 359.2039794921875" stroke-width="0.0" fill="rgb(11, 14, 22)" opacity="0.9901534"/>
    <path d="M 474.7535400390625 360.4617004394531 C 472.6272277832031 368.0118713378906 466.925048828125 373.3974609375 458.3077392578125 375.79595947265625 C 450.66741943359375 373.8424072265625 445.13970947265625 368.3398132324219 443.0747375488281 360.11871337890625 C 445.1620178222656 351.7181701660156 450.7823791503906 346.3443298339844 458.8085632324219 344.53717041015625 C 466.94287109375 346.5209045410156 472.4168701171875 352.07830810546875 474.7535400390625 360.4617004394531" stroke-width="0.0" fill="rgb(124, 137, 157)" opacity="1.0"/>
    <path d="M 462.944091796875 522.1572265625 C 459.2628479003906 529.6795654296875 453.6346130371094 535.0889282226562 446.8591003417969 537.0372924804688 C 440.3826904296875 535.0868530273438 434.8768310546875 529.6292114257812 431.3724365234375 522.456298828125 C 433.68316650390625 515.0108642578125 438.8196716308594 509.1889953613281 447.67254638671875 507.0417175292969 C 455.40130615234375 509.09112548828125 460.9097900390625 514.5982666015625 462.944091796875 522.1572265625" stroke-width="0.0" fill="rgb(2, 2, 3)" opacity="0.9900111"/>
    <path d="M 350.7724304199219 379.82061767578125 C 348.9939880371094 387.6167297363281 343.8103942871094 393.5189208984375 335.5119323730469 395.874267578125 C 327.8887634277344 393.736328125 322.66827392578125 387.9655456542969 320.4637451171875 379.5743103027344 C 322.33099365234375 371.85723876953125 327.89324951171875 366.4596862792969 336.71185302734375 364.2781982421875 C 344.244873046875 366.19158935546875 349.5433654785156 371.83746337890625 350.7724304199219 379.82061767578125" stroke-width="0.0" fill="rgb(135, 153, 171)" opacity="1.0"/>
    <path d="M 354.3501281738281 76.71272277832031 C 352.4759826660156 84.06658172607422 347.1112060546875 89.61106872558594 339.2497253417969 92.8513412475586 C 331.8316650390625 90.7890853881836 326.6565856933594 85.00127410888672 324.234130859375 76.38431549072266 C 326.34686279296875 68.99996948242188 332.1712951660156 63.86061477661133 339.8475341796875 62.27031326293945 C 347.02825927734375 64.51551055908203 352.5439758300781 69.9523696899414 354.3501281738281 76.71272277832031" stroke-width="0.0" fill="rgb(211, 205, 197)" opacity="0.9902186"/>
    <path d="M 259.3437805175781 0.7913815975189209 C 256.9190368652344 8.63464069366455 251.75184631347656 14.340238571166992 244.3404541015625 15.878630638122559 C 236.7014617919922 13.720026969909668 231.14694213867188 8.340314865112305 228.8565216064453 0.8648179769515991 C 230.9917755126953 -6.505390644073486 236.49948120117188 -11.990540504455566 244.00001525878906 -14.000006675720215 C 251.50137329101562 -11.990800857543945 257.03289794921875 -6.513162612915039 259.3437805175781 0.7913815975189209" stroke-width="0.0" fill="rgb(211, 206, 198)" opacity="0.9901973"/>
    <path d="M 222.7943878173828 295.2506103515625 C 219.59588623046875 303.2912292480469 214.5006103515625 309.1935729980469 206.7152557373047 311.63421630859375 C 199.2322540283203 309.38702392578125 193.79640197753906 303.7043762207031 191.96519470214844 296.17877197265625 C 194.19827270507812 288.6899719238281 199.7176513671875 283.286865234375 207.53118896484375 280.52838134765625 C 215.1932830810547 282.32073974609375 220.79823303222656 287.7607116699219 222.7943878173828 295.2506103515625" stroke-width="0.0" fill="rgb(150, 163, 172)" opacity="0.9906728"/>
    <path d="M 422.95452880859375 320.4742736816406 C 420.89324951171875 329.3847961425781 415.3854675292969 334.8949890136719 407.5531921386719 336.9468078613281 C 398.71923828125 334.8396301269531 393.3022155761719 329.22491455078125 391.31927490234375 321.2642517089844 C 393.5139465332031 313.05657958984375 399.013916015625 307.4082336425781 407.72491455078125 305.1145324707031 C 415.3776550292969 307.120849609375 420.902587890625 312.6127624511719 422.95452880859375 320.4742736816406" stroke-width="0.0" fill="rgb(88, 101, 125)" opacity="1.0"/>
    <path d="M 432.93829345703125 360.1603698730469 C 430.853515625 368.2849426269531 425.19091796875 373.58197021484375 416.1747131347656 375.8861389160156 C 408.5937805175781 373.9094543457031 403.0885009765625 368.4069519042969 401.04937744140625 360.397216796875 C 403.10882568359375 351.615478515625 408.6095886230469 346.0953063964844 416.8872985839844 344.0417785644531 C 425.3674011230469 346.109130859375 430.871826171875 351.6413269042969 432.93829345703125 360.1603698730469" stroke-width="0.0" fill="rgb(2, 2, 3)" opacity="0.990321"/>
    <path d="M 376.9441833496094 436.10614013671875 C 374.867919921875 444.3504943847656 369.35009765625 449.8656311035156 361.72027587890625 451.8572082519531 C 352.7583923339844 449.67840576171875 347.13836669921875 444.30767822265625 345.07232666015625 436.7795715332031 C 347.30609130859375 427.75872802734375 352.69708251953125 422.1430969238281 361.22430419921875 420.0535888671875 C 369.3673400878906 422.1202697753906 374.8798522949219 427.6325378417969 376.9441833496094 436.10614013671875" stroke-width="0.0" fill="rgb(41, 52, 73)" opacity="1.0"/>
  </g>
</svg>
