<?xml version="1.0" ?>
<svg xmlns="http://www.w3.org/2000/svg" version="1.1" width="600" height="600">
  <defs/>
  <g>
    <path d="M 356.0 91.0 C 353.9903869628906 98.5 348.5 103.9903793334961 340.9574279785156 106.05607604980469 C 333.4283447265625 104.08383178710938 327.9668273925781 98.55631256103516 325.991455078125 91.01139068603516 C 328.0096130371094 83.5 333.5 78.0096206665039 341.0 76.0 C 348.5 78.0096206665039 353.9903869628906 83.5 356.0 91.0" stroke-width="0.0" fill="rgb(0, 0, 11)" opacity="1.0"/>
    <path d="M 222.9487762451172 75.68717193603516 C 220.89614868164062 83.38511657714844 215.38365173339844 88.89260864257812 206.9970703125 90.95024108886719 C 198.64840698242188 88.88084411621094 193.27650451660156 83.30791473388672 192.94464111328125 75.79326629638672 C 194.9058837890625 68.37232971191406 200.36712646484375 62.89311218261719 207.1531982421875 60.947303771972656 C 213.7903594970703 62.846065521240234 220.73992919921875 67.58552551269531 222.9487762451172 75.68717193603516" stroke-width="0.0" fill="rgb(21, 39, 66)" opacity="0.990012"/>
    <path d="M 379.2965393066406 322.7432861328125 C 376.9703674316406 330.6130065917969 371.6907958984375 336.2596740722656 364.15643310546875 338.62640380859375 C 356.0826721191406 336.30755615234375 350.35052490234375 331.0347900390625 348.3508605957031 323.5181884765625 C 351.0096130371094 315.5 356.5 310.0096130371094 364.0837707519531 307.8720397949219 C 371.62811279296875 309.85174560546875 377.19549560546875 315.35748291015625 379.2965393066406 322.7432861328125" stroke-width="0.0" fill="rgb(221, 223, 225)" opacity="1.0"/>
    <path d="M 409.9447937011719 224.20236206054688 C 407.6285095214844 232.9011993408203 401.6644592285156 238.06130981445312 394.0078125 240.00308227539062 C 386.5 237.99038696289062 381.0096130371094 232.5 378.9943542480469 224.98707580566406 C 380.9139099121094 217.2991485595703 386.0762023925781 211.3641815185547 394.8155822753906 209.05174255371094 C 402.4049377441406 211.08741760253906 407.9097595214844 216.59629821777344 409.9447937011719 224.20236206054688" stroke-width="0.0" fill="rgb(5, 3, 5)" opacity="1.0"/>
    <path d="M 333.84344482421875 294.2500305175781 C 330.9903869628906 302.5 325.5 307.9903869628906 317.1798095703125 310.8785705566406 C 309.6094665527344 308.8973388671875 304.112548828125 303.3869323730469 302.17327880859375 295.7799377441406 C 305.0096130371094 287.5 310.5 282.0096130371094 318.2416076660156 279.81982421875 C 326.176513671875 281.42987060546875 331.8300476074219 286.7367248535156 333.84344482421875 294.2500305175781" stroke-width="0.0" fill="rgb(9, 21, 43)" opacity="1.0"/>
    <path d="M 293.9484558105469 380.9345397949219 C 291.7798767089844 388.23968505859375 286.1867370605469 393.6094970703125 278.78692626953125 395.7289123535156 C 271.5005187988281 393.990234375 266.02532958984375 388.4952087402344 263.1186218261719 380.238525390625 C 265.241455078125 372.90203857421875 271.1150817871094 367.78033447265625 278.9563903808594 365.97802734375 C 286.5 368.0096130371094 291.9903869628906 373.5 293.9484558105469 380.9345397949219" stroke-width="0.0" fill="rgb(2, 6, 20)" opacity="0.9907857"/>
    <path d="M 334.6072998046875 59.66859436035156 C 332.3856201171875 66.69388580322266 326.560791015625 72.01409149169922 319.0022888183594 74.0008773803711 C 311.5000915527344 71.9903564453125 306.0136413574219 66.49884033203125 303.0938720703125 58.16450881958008 C 305.1116943359375 50.62715148925781 310.6376037597656 45.14011001586914 318.1680908203125 44.877750396728516 C 325.6935729980469 46.84962463378906 331.19390869140625 52.291465759277344 334.6072998046875 59.66859436035156" stroke-width="0.0" fill="rgb(5, 8, 29)" opacity="0.9900278"/>
    <path d="M 366.7938537597656 172.65504455566406 C 364.73052978515625 180.11550903320312 358.98779296875 185.37017822265625 351.1221618652344 187.088134765625 C 343.5 184.99038696289062 338.0096130371094 179.5 335.42919921875 171.45767211914062 C 337.2413024902344 163.73826599121094 342.73577880859375 158.23333740234375 350.4338073730469 156.38720703125 C 358.5 159.00961303710938 363.9906311035156 164.4999237060547 366.7938537597656 172.65504455566406" stroke-width="0.0" fill="rgb(195, 194, 204)" opacity="1.0"/>
    <path d="M 402.05450439453125 160.85296630859375 C 400.8243713378906 167.44419860839844 395.49456787109375 172.98875427246094 387.99993896484375 174.99998474121094 C 380.5 172.99038696289062 375.0096130371094 167.5 372.99224853515625 159.9834442138672 C 374.8988037109375 152.27911376953125 380.05926513671875 146.353515625 387.222900390625 144.17324829101562 C 394.6318054199219 147.87060546875 400.0776062011719 153.38629150390625 402.05450439453125 160.85296630859375" stroke-width="0.0" fill="rgb(5, 16, 36)" opacity="0.99006"/>
    <path d="M 338.1854248046875 345.7783508300781 C 335.9903869628906 353.5 330.5 358.9903869628906 323.0 361.0 C 315.5 358.9903869628906 310.0096130371094 353.5 307.9995422363281 345.99871826171875 C 309.9939880371094 338.4571838378906 315.3385925292969 332.6556701660156 323.0370178222656 330.22454833984375 C 331.1191101074219 332.3355712890625 336.5014343261719 337.93133544921875 338.1854248046875 345.7783508300781" stroke-width="0.0" fill="rgb(8, 11, 18)" opacity="0.9925982"/>
    <path d="M 235.98951721191406 148.97679138183594 C 233.83746337890625 156.20664978027344 227.960693359375 161.2499237060547 221.71121215820312 163.03778076171875 C 214.30490112304688 161.10279846191406 208.4711456298828 155.8250274658203 205.83499145507812 148.97857666015625 C 208.00961303710938 141.5 213.5 136.00961303710938 221.0 134.0 C 228.5 136.00961303710938 233.99038696289062 141.5 235.98951721191406 148.97679138183594" stroke-width="0.0" fill="rgb(2, 2, 2)" opacity="0.99004483"/>
    <path d="M 305.33416748046875 377.39471435546875 C 303.71148681640625 385.2841796875 298.34527587890625 390.8890380859375 290.8435363769531 392.93603515625 C 282.3501281738281 390.291015625 276.9795837402344 384.5601806640625 274.9974060058594 377.0049133300781 C 277.0096130371094 369.5 282.5 364.0096130371094 290.0 362.0 C 297.5 364.0096130371094 302.9903869628906 369.5 305.33416748046875 377.39471435546875" stroke-width="0.0" fill="rgb(18, 22, 24)" opacity="1.0"/>
    <path d="M 317.0 373.0 C 314.9903869628906 380.5 309.5 385.9903869628906 301.3764953613281 388.8125 C 294.1338806152344 386.58734130859375 288.9414978027344 380.6535949707031 286.99639892578125 373.00823974609375 C 289.0096130371094 365.5 294.5 360.0096130371094 302.0 358.0 C 309.5 360.0096130371094 314.9903869628906 365.5 317.0 373.0" stroke-width="0.0" fill="rgb(0, 0, 0)" opacity="1.0"/>
    <path d="M 325.5316162109375 339.4347229003906 C 322.9903869628906 347.5 317.5 352.9903869628906 309.6768493652344 355.25482177734375 C 301.7510681152344 353.65826416015625 296.1237487792969 348.3233337402344 294.03912353515625 339.37457275390625 C 296.0845642089844 331.5888671875 301.5881652832031 326.0829772949219 310.3068542480469 324.03717041015625 C 318.3844909667969 326.0906066894531 323.8109130859375 331.64959716796875 325.5316162109375 339.4347229003906" stroke-width="0.0" fill="rgb(0, 0, 0)" opacity="1.0"/>
    <path d="M 258.0 490.0 C 255.99005126953125 497.4988708496094 250.48190307617188 502.9300231933594 243.76699829101562 504.0714111328125 C 234.9449462890625 502.4116516113281 229.20278930664062 498.2400817871094 227.08773803710938 490.2095642089844 C 229.36614990234375 482.09234619140625 235.3306884765625 476.9364013671875 242.99195861816406 474.996826171875 C 250.5 477.0096130371094 255.99038696289062 482.5 258.0 490.0" stroke-width="0.0" fill="rgb(15, 10, 15)" opacity="0.9901401"/>
    <path d="M 357.0947570800781 215.291259765625 C 355.2433166503906 222.9253692626953 350.1490478515625 228.86248779296875 343.02508544921875 231.06919860839844 C 335.5 228.99038696289062 330.0096130371094 223.5 328.0 216.0 C 330.0096130371094 208.5 335.5 203.00961303710938 342.9999084472656 201.00003051757812 C 350.4938049316406 203.01156616210938 355.8527526855469 208.5469512939453 357.0947570800781 215.291259765625" stroke-width="0.0" fill="rgb(7, 2, 25)" opacity="0.99003243"/>
    <path d="M 322.0 360.0 C 319.9903869628906 367.5 314.5 372.9903869628906 307.0 375.0 C 299.5 372.9903869628906 294.0096130371094 367.5 291.6197204589844 359.60455322265625 C 293.3334045410156 351.8067932128906 298.7909240722656 346.2814636230469 306.5059814453125 344.478515625 C 314.5 347.0096130371094 319.9903869628906 352.5 322.0 360.0" stroke-width="0.0" fill="rgb(0, 0, 0)" opacity="1.0"/>
    <path d="M 295.6551818847656 103.63798522949219 C 293.83111572265625 111.3504867553711 288.3722839355469 116.89251708984375 280.8233642578125 118.9192123413086 C 272.3190002441406 116.35470581054688 266.984130859375 110.5630111694336 264.9989318847656 103.00270080566406 C 267.0096130371094 95.5 272.5 90.0096206665039 280.0 88.0 C 287.5 90.0096206665039 292.9903869628906 95.5 295.6551818847656 103.63798522949219" stroke-width="0.0" fill="rgb(4, 17, 54)" opacity="0.9988865"/>
    <path d="M 349.04205322265625 363.2459411621094 C 347.0946960449219 370.6588134765625 341.72119140625 376.2767639160156 334.5995178222656 378.6969909667969 C 327.3008117675781 377.1447448730469 321.7007141113281 371.7469482421875 319.7886657714844 364.16424560546875 C 322.0096130371094 356.5 327.5 351.0096130371094 334.9581298828125 349.02117919921875 C 342.13323974609375 351.22802734375 347.2431640625 357.073486328125 349.04205322265625 363.2459411621094" stroke-width="0.0" fill="rgb(2, 5, 8)" opacity="0.99002045"/>
    <path d="M 237.84107971191406 124.21759796142578 C 234.99029541015625 132.49974060058594 229.49880981445312 137.9869384765625 221.9908447265625 139.96946716308594 C 214.37281799316406 138.04310607910156 208.4363555908203 132.83619689941406 206.05531311035156 124.1828384399414 C 208.0886688232422 116.59375762939453 213.5926971435547 111.086181640625 221.2678985595703 109.0536880493164 C 230.36892700195312 111.12741088867188 235.88084411621094 116.62781524658203 237.84107971191406 124.21759796142578" stroke-width="0.0" fill="rgb(12, 11, 7)" opacity="1.0"/>
    <path d="M 327.0192565917969 288.00677490234375 C 324.9916687011719 295.490966796875 319.47540283203125 300.9383239746094 311.40289306640625 303.560302734375 C 303.66888427734375 301.8076477050781 298.11834716796875 296.357177734375 296.0539245605469 287.8333740234375 C 298.1250305175781 279.6524353027344 303.6739196777344 274.1817932128906 311.36175537109375 272.32086181640625 C 319.5 275.0096130371094 324.9903869628906 280.5 327.0192565917969 288.00677490234375" stroke-width="0.0" fill="rgb(10, 34, 63)" opacity="1.0"/>
    <path d="M 249.92958068847656 470.12451171875 C 246.99090576171875 478.5001525878906 241.50001525878906 483.9903869628906 233.26699829101562 486.7951354980469 C 225.71835327148438 484.84429931640625 221.76528930664062 478.9921875 219.9632110595703 471.3750305175781 C 221.9059295654297 464.36285400390625 227.3273468017578 458.7817077636719 234.8794708251953 455.0489501953125 C 242.4117889404297 457.0814514160156 247.91783142089844 462.58843994140625 249.92958068847656 470.12451171875" stroke-width="0.0" fill="rgb(4, 4, 9)" opacity="0.9900176"/>
    <path d="M 414.0318298339844 175.69772338867188 C 412.1436462402344 181.76907348632812 406.9280090332031 187.56997680664062 399.88140869140625 189.92840576171875 C 392.5 187.99038696289062 387.0096130371094 182.5 385.0 175.0 C 387.0096130371094 167.5 392.5 162.00961303710938 399.1794128417969 160.87916564941406 C 406.6052551269531 162.9175262451172 412.0694274902344 168.40005493164062 414.0318298339844 175.69772338867188" stroke-width="0.0" fill="rgb(4, 6, 10)" opacity="0.9900124"/>
    <path d="M 174.0 164.0 C 171.99038696289062 171.5 166.5 176.99038696289062 158.194091796875 179.8662872314453 C 150.63792419433594 177.8861846923828 145.3324432373047 172.31394958496094 144.95880126953125 164.83116149902344 C 146.9224853515625 157.3831329345703 152.35858154296875 151.852294921875 159.6265869140625 149.62350463867188 C 166.5 151.00961303710938 171.99038696289062 156.5 174.0 164.0" stroke-width="0.0" fill="rgb(9, 15, 29)" opacity="0.9900305"/>
    <path d="M 198.95579528808594 90.70609283447266 C 196.9081573486328 98.3962173461914 191.39602661132812 103.90790557861328 183.66612243652344 105.96045684814453 C 175.65769958496094 103.79063415527344 170.8819122314453 96.73065948486328 168.95826721191406 90.30583190917969 C 170.91493225097656 83.38600158691406 176.38734436035156 77.91836547851562 183.706298828125 75.95992279052734 C 190.35789489746094 77.79032897949219 196.850341796875 81.77306365966797 198.95579528808594 90.70609283447266" stroke-width="0.0" fill="rgb(12, 24, 54)" opacity="0.9900079"/>
    <path d="M 265.93829345703125 124.49588775634766 C 263.76715087890625 132.0980224609375 257.8612976074219 137.18397521972656 250.0277557373047 139.00872802734375 C 242.5 136.99038696289062 237.00961303710938 131.5 234.16761779785156 123.26895904541016 C 236.18228149414062 115.73255920410156 241.76113891601562 110.24910736083984 249.98204040527344 108.15995025634766 C 258.154296875 110.30047607421875 263.7591857910156 115.81829833984375 265.93829345703125 124.49588775634766" stroke-width="0.0" fill="rgb(4, 3, 2)" opacity="0.9900211"/>
    <path d="M 337.9373779296875 275.7672424316406 C 335.8908386230469 283.3655090332031 330.3393249511719 288.8191223144531 322.617919921875 290.6363525390625 C 314.498779296875 287.99176025390625 309.0076904296875 282.5013732910156 306.0975036621094 274.1720275878906 C 308.115966796875 266.6325378417969 313.6366271972656 261.125732421875 322.40203857421875 259.0541687011719 C 330.3498229980469 261.1183166503906 335.8049621582031 266.6803894042969 337.9373779296875 275.7672424316406" stroke-width="0.0" fill="rgb(10, 34, 65)" opacity="1.0"/>
    <path d="M 315.9549560546875 183.9841766357422 C 313.89947509765625 192.3834228515625 308.36663818359375 197.8524627685547 300.681884765625 199.70228576660156 C 292.48065185546875 196.9971466064453 286.7995300292969 191.58384704589844 284.4156799316406 184.23052978515625 C 287.0010986328125 176.49758911132812 292.4998779296875 171.00958251953125 300.7408142089844 168.2101287841797 C 308.3663024902344 170.1324005126953 313.8915710449219 175.62460327148438 315.9549560546875 183.9841766357422" stroke-width="0.0" fill="rgb(4, 16, 32)" opacity="0.9930016"/>
    <path d="M 285.8490295410156 188.2659454345703 C 283.533203125 197.1552276611328 278.26031494140625 202.83766174316406 270.5881042480469 204.92742919921875 C 262.0798645019531 202.63189697265625 256.9130859375 196.69967651367188 254.99391174316406 189.01351928710938 C 257.0096130371094 181.5 262.5 176.00961303710938 270.7356262207031 173.1741485595703 C 278.3124694824219 175.1640625 283.83892822265625 180.6864013671875 285.8490295410156 188.2659454345703" stroke-width="0.0" fill="rgb(6, 11, 22)" opacity="0.99045163"/>
    <path d="M 180.93521118164062 147.9165802001953 C 178.81826782226562 156.2209930419922 173.08944702148438 161.44960021972656 165.11598205566406 163.126708984375 C 157.4409942626953 161.09869384765625 152.57176208496094 155.25323486328125 150.94354248046875 148.70521545410156 C 152.8807373046875 141.33213806152344 158.31930541992188 135.85069274902344 165.87542724609375 132.28126525878906 C 173.3593292236328 134.12448120117188 178.86729431152344 139.64401245117188 180.93521118164062 147.9165802001953" stroke-width="0.0" fill="rgb(30, 47, 70)" opacity="0.99002016"/>
    <path d="M 199.9578094482422 125.04502868652344 C 197.8973846435547 133.3780059814453 192.36692810058594 138.87127685546875 184.38265991210938 140.9287109375 C 175.67889404296875 138.83334350585938 170.1360626220703 133.3345184326172 168.05780029296875 124.60398864746094 C 170.1074981689453 116.61389923095703 175.60763549804688 111.09306335449219 183.2719268798828 109.04918670654297 C 192.35833740234375 111.13334655761719 197.8911590576172 116.63101196289062 199.9578094482422 125.04502868652344" stroke-width="0.0" fill="rgb(32, 66, 107)" opacity="1.0"/>
    <path d="M 417.8928527832031 240.16867065429688 C 414.9903869628906 248.5 409.5 253.99038696289062 402.7685241699219 255.1439208984375 C 395.32354736328125 253.12937927246094 389.78863525390625 247.70460510253906 387.54345703125 240.46624755859375 C 389.0096130371094 233.49996948242188 394.4995422363281 228.00799560546875 402.7491455078125 225.21673583984375 C 410.38702392578125 227.1189727783203 415.8998718261719 232.60643005371094 417.8928527832031 240.16867065429688" stroke-width="0.0" fill="rgb(2, 2, 2)" opacity="0.99002075"/>
    <path d="M 401.8666687011719 166.0024871826172 C 399.9728088378906 173.49227905273438 394.4965515136719 178.9879150390625 386.5223388671875 181.4368133544922 C 378.6875915527344 179.75958251953125 373.1065368652344 174.35865783691406 371.0823059082031 166.85108947753906 C 374.0096130371094 158.5 379.5 153.00961303710938 386.9998779296875 151.00006103515625 C 394.4973449707031 153.01071166992188 399.9701232910156 158.5081024169922 401.8666687011719 166.0024871826172" stroke-width="0.0" fill="rgb(2, 5, 9)" opacity="1.0"/>
    <path d="M 347.0160217285156 209.96873474121094 C 344.9903869628906 217.5 339.5 222.99038696289062 331.15411376953125 225.9066925048828 C 323.6040344238281 223.90411376953125 318.0984191894531 218.39483642578125 316.0472717285156 210.63970947265625 C 318.1509704589844 201.65841674804688 323.6347351074219 196.10214233398438 331.1915588378906 194.05361938476562 C 339.9990234375 196.3212432861328 345.1604309082031 202.20236206054688 347.0160217285156 209.96873474121094" stroke-width="0.0" fill="rgb(10, 24, 54)" opacity="1.0"/>
    <path d="M 265.0003967285156 184.0003204345703 C 262.9912109375 191.50067138671875 257.50054931640625 196.9908447265625 249.39111328125 199.64004516601562 C 241.6970977783203 197.8014373779297 236.23193359375 192.2941436767578 235.87535095214844 183.2473602294922 C 236.12721252441406 175.6618194580078 241.7109832763672 170.28192138671875 249.59812927246094 168.66259765625 C 257.5 171.00961303710938 262.9903869628906 176.5 265.0003967285156 184.0003204345703" stroke-width="0.0" fill="rgb(8, 5, 5)" opacity="0.99013305"/>
    <path d="M 258.1221008300781 485.765625 C 256.9903869628906 492.5 251.5 497.9903869628906 243.99740600585938 500.00177001953125 C 236.48448181152344 498.00115966796875 230.9720916748047 492.52337646484375 228.48114013671875 484.82501220703125 C 230.9287872314453 477.43878173828125 236.4239501953125 471.8837585449219 244.57406616210938 469.276611328125 C 251.95550537109375 471.2886657714844 256.1938171386719 478.01715087890625 258.1221008300781 485.765625" stroke-width="0.0" fill="rgb(26, 26, 28)" opacity="0.99040323"/>
    <path d="M 271.37237548828125 192.3193359375 C 270.4209289550781 200.0921630859375 265.21343994140625 205.80194091796875 256.44232177734375 207.9286346435547 C 248.62774658203125 205.87864685058594 243.11761474609375 200.37393188476562 241.1637725830078 192.7725830078125 C 243.97434997558594 184.52008056640625 249.5402069091797 179.0497589111328 256.9756774902344 177.03863525390625 C 264.30950927734375 179.14678955078125 269.5965270996094 184.77418518066406 271.37237548828125 192.3193359375" stroke-width="0.0" fill="rgb(52, 75, 110)" opacity="0.9901306"/>
    <path d="M 287.11981201171875 86.73513793945312 C 285.9903869628906 93.5 280.5 98.9903793334961 272.68170166015625 101.25713348388672 C 264.7588806152344 99.65005493164062 259.1219177246094 94.32125091552734 257.0459899902344 86.71516418457031 C 259.2091369628906 77.84577178955078 265.0357971191406 72.70514678955078 272.8588562011719 71.01776885986328 C 280.07659912109375 73.3139419555664 285.2691955566406 79.07520294189453 287.11981201171875 86.73513793945312" stroke-width="0.0" fill="rgb(2, 2, 11)" opacity="0.9900377"/>
    <path d="M 393.07080078125 128.7871856689453 C 391.7154235839844 135.39004516601562 386.47918701171875 140.98324584960938 378.99951171875 142.9998321533203 C 371.5 140.99038696289062 366.0096130371094 135.5 364.0 128.0 C 366.0096130371094 120.5 371.5 115.0096206665039 378.72021484375 112.74397277832031 C 385.7173767089844 115.72489929199219 391.1090393066406 121.33403778076172 393.07080078125 128.7871856689453" stroke-width="0.0" fill="rgb(23, 51, 86)" opacity="0.990086"/>
    <path d="M 345.6095275878906 306.41015625 C 342.9903869628906 314.5 337.5 319.9903869628906 329.95379638671875 322.02410888671875 C 322.1277770996094 320.2185363769531 316.2874755859375 315.0569763183594 314.190673828125 307.6558837890625 C 316.9405517578125 299.4450988769531 322.4535217285156 293.96905517578125 330.7627258300781 291.15887451171875 C 338.33697509765625 293.1416931152344 343.7996520996094 298.6832580566406 345.6095275878906 306.41015625" stroke-width="0.0" fill="rgb(8, 18, 34)" opacity="1.0"/>
    <path d="M 182.03248596191406 183.75807189941406 C 180.06631469726562 190.59689331054688 174.61170959472656 196.11001586914062 167.1535186767578 199.89793395996094 C 159.64027404785156 197.87303161621094 154.1322021484375 192.3576202392578 152.09365844726562 184.61029052734375 C 154.281494140625 175.92160034179688 160.08554077148438 170.73208618164062 167.38392639160156 169.59280395507812 C 174.64939880371094 171.8416748046875 180.0794677734375 177.3783721923828 182.03248596191406 183.75807189941406" stroke-width="0.0" fill="rgb(3, 4, 4)" opacity="0.99000984"/>
    <path d="M 365.0348815917969 344.2770080566406 C 363.07025146484375 351.5960693359375 357.5945739746094 357.06689453125 350.1791687011719 359.0411071777344 C 343.8687744140625 357.37420654296875 338.0644226074219 352.367431640625 335.620849609375 344.57061767578125 C 337.2724609375 336.71075439453125 342.658447265625 331.1187744140625 350.4048156738281 329.06134033203125 C 359.1388244628906 331.19134521484375 363.2024230957031 337.880859375 365.0348815917969 344.2770080566406" stroke-width="0.0" fill="rgb(3, 6, 8)" opacity="0.99000907"/>
    <path d="M 371.0085144042969 122.98615264892578 C 368.9903869628906 130.5 363.5 135.99038696289062 356.0 138.0 C 348.5 135.99038696289062 343.0096130371094 130.5 341.0 123.0 C 343.0096130371094 115.5 348.5 110.0096206665039 356.134521484375 107.79518127441406 C 363.64959716796875 109.78472900390625 369.0531921386719 115.40087890625 371.0085144042969 122.98615264892578" stroke-width="0.0" fill="rgb(28, 57, 110)" opacity="1.0"/>
    <path d="M 289.0353698730469 102.95213317871094 C 287.0045166015625 110.54065704345703 281.619140625 116.24581146240234 273.3839111328125 118.74571228027344 C 265.73004150390625 116.79801940917969 260.2003479003906 111.27021789550781 258.0687561035156 102.34925079345703 C 260.139892578125 94.7040023803711 265.7930603027344 89.39897918701172 273.91754150390625 87.61038970947266 C 281.77197265625 89.65572357177734 287.1549072265625 95.28754425048828 289.0353698730469 102.95213317871094" stroke-width="0.0" fill="rgb(6, 18, 53)" opacity="0.99015516"/>
    <path d="M 285.0761413574219 393.2548522949219 C 283.250732421875 401.78338623046875 279.24212646484375 407.84027099609375 270.67437744140625 409.9232482910156 C 262.64837646484375 407.87701416015625 257.22021484375 402.3194885253906 255.46893310546875 394.468994140625 C 257.56884765625 385.9911193847656 262.9300842285156 380.37298583984375 270.5715637207031 378.49835205078125 C 278.5380554199219 380.99066162109375 284.0191650390625 386.4564514160156 285.0761413574219 393.2548522949219" stroke-width="0.0" fill="rgb(15, 23, 40)" opacity="0.9902038"/>
    <path d="M 299.8100891113281 355.2299499511719 C 296.9903869628906 363.5 291.5 368.9903869628906 284.0 371.0 C 276.5 368.9903869628906 271.0096130371094 363.5 269.0 356.0 C 271.0096130371094 348.5 276.5 343.0096130371094 284.66632080078125 340.3280944824219 C 292.3662109375 342.1507263183594 297.88360595703125 347.6226806640625 299.8100891113281 355.2299499511719" stroke-width="0.0" fill="rgb(3, 12, 24)" opacity="1.0"/>
    <path d="M 287.96087646484375 362.0152282714844 C 285.9903869628906 369.5 280.5 374.9903869628906 272.39013671875 377.6157531738281 C 264.65814208984375 375.8191223144531 259.1202697753906 370.36236572265625 257.15301513671875 362.78680419921875 C 260.0096130371094 354.5 265.5 349.0096130371094 272.99993896484375 347.0000305175781 C 280.4984436035156 349.0102233886719 285.9770202636719 354.50518798828125 287.96087646484375 362.0152282714844" stroke-width="0.0" fill="rgb(11, 31, 53)" opacity="1.0"/>
    <path d="M 369.94097900390625 192.02159118652344 C 367.9903869628906 199.5 362.5 204.99038696289062 354.8934020996094 207.0696258544922 C 347.0090026855469 205.35556030273438 341.25885009765625 200.1261749267578 339.18499755859375 192.60317993164062 C 341.88006591796875 184.4523162841797 347.49017333984375 179.00619506835938 355.0631103515625 176.93142700195312 C 362.61260986328125 178.86148071289062 368.0029602050781 184.42733764648438 369.94097900390625 192.02159118652344" stroke-width="0.0" fill="rgb(207, 208, 212)" opacity="1.0"/>
    <path d="M 282.31842041015625 342.63702392578125 C 279.9903869628906 350.5 274.5 355.9903869628906 267.0 358.0 C 259.5 355.9903869628906 254.00961303710938 350.5 251.1170654296875 342.2030944824219 C 253.1345672607422 334.6469421386719 258.6415100097656 329.1221923828125 266.72454833984375 327.0596618652344 C 275.3056335449219 329.1439208984375 280.6728820800781 334.7571105957031 282.31842041015625 342.63702392578125" stroke-width="0.0" fill="rgb(19, 44, 76)" opacity="1.0"/>
    <path d="M 403.0588073730469 231.9838104248047 C 401.27313232421875 239.56825256347656 397.20086669921875 245.83082580566406 389.7842712402344 247.87957763671875 C 381.5 244.99038696289062 376.0096130371094 239.5 374.0 232.0 C 376.0096130371094 224.5 381.5 219.00961303710938 388.709228515625 217.24847412109375 C 395.8243408203125 219.61795043945312 401.1683654785156 225.2486114501953 403.0588073730469 231.9838104248047" stroke-width="0.0" fill="rgb(192, 194, 194)" opacity="0.9900354"/>
    <path d="M 344.0000305175781 353.00006103515625 C 341.99053955078125 360.5001525878906 336.50018310546875 365.9905700683594 328.99957275390625 368.0012512207031 C 321.49981689453125 365.9908447265625 316.00958251953125 360.50006103515625 314.0024108886719 353.0010986328125 C 316.01019287109375 345.4981689453125 321.4960021972656 340.0030517578125 328.99755859375 337.9981384277344 C 336.5 340.0096130371094 341.9903869628906 345.5 344.0000305175781 353.00006103515625" stroke-width="0.0" fill="rgb(3, 4, 10)" opacity="0.99963915"/>
    <path d="M 357.8598937988281 316.7798156738281 C 355.8668212890625 324.3585510253906 350.3658447265625 329.8843994140625 342.7292175292969 331.9359130859375 C 334.0513916015625 329.65557861328125 328.9002990722656 323.72259521484375 326.9929504394531 316.0154113769531 C 329.009033203125 308.49908447265625 334.498291015625 303.00634765625 341.9954528808594 300.9977722167969 C 349.4999694824219 303.00970458984375 354.9903869628906 308.5 357.8598937988281 316.7798156738281" stroke-width="0.0" fill="rgb(10, 21, 40)" opacity="1.0"/>
    <path d="M 278.930908203125 275.7002258300781 C 276.8838806152344 283.37188720703125 271.3722839355469 288.88494873046875 263.2080993652344 290.9458923339844 C 254.6260986328125 288.88641357421875 249.1360626220703 283.3658752441406 247.0928497314453 274.20684814453125 C 249.10354614257812 266.61297607421875 254.6156005859375 261.11077880859375 262.20623779296875 259.1512451171875 C 270.68975830078125 261.9208984375 276.6285705566406 267.0867919921875 278.930908203125 275.7002258300781" stroke-width="0.0" fill="rgb(19, 38, 65)" opacity="0.9902065"/>
    <path d="M 316.9611511230469 406.8995361328125 C 314.8759460449219 415.2173156738281 307.88983154296875 419.1264953613281 300.44287109375 421.0357666015625 C 294.2863464355469 419.1429748535156 288.86083984375 413.71099853515625 286.9532775878906 406.23956298828125 C 287.26165771484375 398.66961669921875 292.6266174316406 393.1009521484375 301.004638671875 391.04052734375 C 309.39385986328125 393.0975341796875 314.9049987792969 398.6050109863281 316.9611511230469 406.8995361328125" stroke-width="0.0" fill="rgb(4, 3, 7)" opacity="0.99001634"/>
    <path d="M 401.0152282714844 186.98919677734375 C 398.9903869628906 194.5 393.5 199.99038696289062 386.0 202.0 C 378.5 199.99038696289062 373.0096130371094 194.5 370.34197998046875 186.37648010253906 C 372.1936950683594 178.70050048828125 377.71240234375 173.2317657470703 385.4693908691406 171.47108459472656 C 393.5137939453125 173.99932861328125 399.0141906738281 179.482177734375 401.0152282714844 186.98919677734375" stroke-width="0.0" fill="rgb(6, 9, 15)" opacity="1.0"/>
    <path d="M 272.1043701171875 174.05433654785156 C 270.1312561035156 181.6728515625 264.74176025390625 187.34286499023438 256.89068603515625 189.6761932373047 C 249.15980529785156 187.44264221191406 243.84312438964844 181.75 242.1087646484375 173.9949951171875 C 243.9619598388672 166.38668823242188 249.2023162841797 160.48484802246094 257.2015380859375 158.1094207763672 C 264.8693542480469 160.4106903076172 270.0603942871094 166.3428497314453 272.1043701171875 174.05433654785156" stroke-width="0.0" fill="rgb(23, 21, 33)" opacity="0.9906182"/>
    <path d="M 295.9980773925781 374.99676513671875 C 293.97503662109375 382.4733581542969 288.44512939453125 387.88067626953125 280.8887023925781 389.7365417480469 C 273.5147399902344 387.9772644042969 268.02783203125 382.4838562011719 266.392578125 375.0574645996094 C 268.05474853515625 367.5166320800781 273.5042419433594 362.0113525390625 281.0032043457031 359.9944763183594 C 288.50250244140625 362.0048522949219 293.9910888671875 367.4986572265625 295.9980773925781 374.99676513671875" stroke-width="0.0" fill="rgb(11, 16, 27)" opacity="0.99130374"/>
    <path d="M 261.0324401855469 490.5578308105469 C 259.0663757324219 497.5901184082031 253.5885467529297 503.062744140625 246.1846466064453 505.0372009277344 C 240.0107879638672 503.3005676269531 234.32955932617188 498.14495849609375 232.3557586669922 490.8053283691406 C 234.0340118408203 483.5399169921875 239.55999755859375 478.10028076171875 246.70729064941406 476.295654296875 C 253.78260803222656 478.6528625488281 259.112548828125 484.3035583496094 261.0324401855469 490.5578308105469" stroke-width="0.0" fill="rgb(3, 4, 3)" opacity="0.99001855"/>
    <path d="M 327.08636474609375 363.0916442871094 C 325.1893005371094 370.6733703613281 319.6530456542969 376.1224060058594 312.0417785644531 378.035400390625 C 304.5 375.9903869628906 299.0096130371094 370.5 297.0 363.0 C 299.0096130371094 355.5 304.5 350.0096130371094 311.9992370605469 347.9998474121094 C 319.494384765625 350.013671875 324.979736328125 355.5075378417969 327.08636474609375 363.0916442871094" stroke-width="0.0" fill="rgb(1, 1, 2)" opacity="0.9948309"/>
    <path d="M 412.3193359375 287.3941650390625 C 409.44573974609375 294.98553466796875 403.9759826660156 300.41937255859375 396.6241149902344 302.5237731933594 C 389.5 300.9903869628906 384.0096130371094 295.5 381.9990539550781 287.9985046386719 C 384.0030212402344 280.4898681640625 389.4828186035156 274.9786682128906 397.24444580078125 272.62615966796875 C 405.0770568847656 274.4875183105469 410.6767883300781 279.8710021972656 412.3193359375 287.3941650390625" stroke-width="0.0" fill="rgb(204, 206, 209)" opacity="1.0"/>
    <path d="M 279.78924560546875 26.34794044494629 C 277.3741149902344 34.82286071777344 271.75958251953125 40.14970779418945 263.30078125 42.71596908569336 C 255.79574584960938 40.76426315307617 250.371337890625 35.155616760253906 248.6326446533203 27.322484970092773 C 250.91006469726562 19.463163375854492 256.4939270019531 14.012495040893555 264.39825439453125 11.62642765045166 C 272.22430419921875 13.319476127624512 277.8011474609375 18.73628807067871 279.78924560546875 26.34794044494629" stroke-width="0.0" fill="rgb(209, 155, 124)" opacity="1.0"/>
    <path d="M 309.77655029296875 46.70952606201172 C 307.8378601074219 54.3155517578125 302.2913818359375 59.764671325683594 293.45404052734375 61.83880615234375 C 285.80438232421875 59.788917541503906 280.5636291503906 54.07597351074219 278.3411865234375 45.4951057434082 C 280.3166809082031 37.96524429321289 286.25213623046875 33.336978912353516 294.286865234375 31.409093856811523 C 301.5 33.009620666503906 306.9903869628906 38.5 309.77655029296875 46.70952606201172" stroke-width="0.0" fill="rgb(11, 25, 66)" opacity="1.0"/>
    <path d="M 336.1581115722656 88.24959564208984 C 334.1433410644531 95.71888732910156 328.7891540527344 101.35293579101562 321.6918640136719 103.7439956665039 C 314.5 101.9903793334961 309.0096130371094 96.5 306.508544921875 88.66744995117188 C 308.57794189453125 81.2248764038086 314.34259033203125 75.9233169555664 321.8558349609375 74.16625213623047 C 329.29583740234375 76.26798248291016 334.8644714355469 81.66341400146484 336.1581115722656 88.24959564208984" stroke-width="0.0" fill="rgb(247, 251, 28)" opacity="0.99004143"/>
    <path d="M 254.00222778320312 136.99819946289062 C 251.99038696289062 144.5 246.5 149.99038696289062 239.0 152.0 C 231.5000457763672 149.9903564453125 226.00904846191406 144.5001220703125 223.98016357421875 137.00096130371094 C 226.02330017089844 129.51834106445312 231.52159118652344 124.03460693359375 239.00975036621094 122.0169677734375 C 246.50230407714844 124.0087661743164 251.9947967529297 129.49664306640625 254.00222778320312 136.99819946289062" stroke-width="0.0" fill="rgb(6, 6, 8)" opacity="0.99111676"/>
    <path d="M 254.35447692871094 159.76809692382812 C 251.8245391845703 167.40478515625 246.48626708984375 173.09535217285156 238.48841857910156 175.8893280029297 C 232.31480407714844 172.2893829345703 226.90431213378906 166.63963317871094 224.88037109375 159.186279296875 C 226.00961303710938 152.5 231.5 147.00961303710938 238.999755859375 145.00009155273438 C 246.49510192871094 147.0116729736328 251.99728393554688 152.50299072265625 254.35447692871094 159.76809692382812" stroke-width="0.0" fill="rgb(2, 2, 2)" opacity="0.990048"/>
    <path d="M 315.0891418457031 38.734859466552734 C 314.7585754394531 46.296085357666016 309.3099060058594 51.8106575012207 301.618896484375 53.65241241455078 C 293.4495849609375 51.019256591796875 287.8590393066406 45.58794403076172 286.82330322265625 38.7636833190918 C 288.8738098144531 31.31925392150879 294.2403869628906 25.365291595458984 300.2425537109375 22.12948989868164 C 307.7651062011719 25.77324676513672 313.18988037109375 31.249460220336914 315.0891418457031 38.734859466552734" stroke-width="0.0" fill="rgb(2, 6, 28)" opacity="0.9900154"/>
    <path d="M 269.93878173828125 143.71726989746094 C 267.8996276855469 151.38803100585938 262.380615234375 156.87953186035156 254.76869201660156 158.607666015625 C 246.51918029785156 155.92611694335938 241.0098419189453 150.4989471435547 239.0093231201172 143.01026916503906 C 241.0428466796875 135.537841796875 246.5437774658203 130.062744140625 254.13238525390625 127.97073364257812 C 262.0310363769531 129.612548828125 267.793701171875 134.82040405273438 269.93878173828125 143.71726989746094" stroke-width="0.0" fill="rgb(2, 3, 2)" opacity="0.99004763"/>
    <path d="M 222.01898193359375 142.995849609375 C 220.05471801757812 150.6510009765625 214.87890625 156.60728454589844 206.1876678466797 158.9451904296875 C 198.6019744873047 156.90855407714844 193.08973693847656 151.3988037109375 191.0426483154297 143.57167053222656 C 193.109375 134.62191772460938 198.62030029296875 129.10568237304688 206.16693115234375 127.07978057861328 C 214.544189453125 129.9121856689453 220.01571655273438 135.47659301757812 222.01898193359375 142.995849609375" stroke-width="0.0" fill="rgb(0, 0, 0)" opacity="1.0"/>
    <path d="M 285.0368347167969 422.48291015625 C 283.0791015625 429.6129455566406 277.6166687011719 435.0873718261719 270.1463623046875 437.0641174316406 C 263.2532043457031 436.3907165527344 257.94500732421875 430.6329650878906 255.3120574951172 422.32720947265625 C 257.14825439453125 414.6302490234375 262.6134033203125 409.09967041015625 270.2362976074219 407.0812683105469 C 277.9401550292969 409.4909973144531 283.1163330078125 416.2828674316406 285.0368347167969 422.48291015625" stroke-width="0.0" fill="rgb(4, 6, 5)" opacity="0.99001026"/>
    <path d="M 269.66998291015625 431.6675109863281 C 267.8279113769531 439.3352355957031 262.357177734375 444.8843994140625 254.51356506347656 446.9557800292969 C 245.8162841796875 444.8150329589844 240.69287109375 438.9866943359375 238.9637908935547 431.06903076171875 C 241.00961303710938 423.5 246.5 418.0096130371094 253.9706573486328 416.0332336425781 C 261.4166259765625 418.08953857421875 266.8555603027344 423.5997314453125 269.66998291015625 431.6675109863281" stroke-width="0.0" fill="rgb(9, 25, 51)" opacity="0.9931092"/>
    <path d="M 312.9476013183594 160.30641174316406 C 310.8868103027344 168.357177734375 305.3227844238281 173.78941345214844 297.5493469238281 175.5420379638672 C 289.5 172.99038696289062 284.0096130371094 167.5 281.72625732421875 159.73944091796875 C 283.503173828125 151.99221801757812 288.9789733886719 146.46096801757812 297.6183166503906 144.81309509277344 C 305.35015869140625 146.1553955078125 310.8831787109375 151.635498046875 312.9476013183594 160.30641174316406" stroke-width="0.0" fill="rgb(4, 10, 20)" opacity="0.99006355"/>
    <path d="M 378.0 202.0 C 375.9903869628906 209.5 370.5 214.99038696289062 362.31488037109375 217.734375 C 354.6678161621094 215.83737182617188 349.1754455566406 210.32785034179688 347.3081970214844 202.65135192871094 C 350.0096130371094 194.5 355.5 189.00961303710938 363.0 187.0 C 370.5 189.00961303710938 375.9903869628906 194.5 378.0 202.0" stroke-width="0.0" fill="rgb(209, 212, 215)" opacity="1.0"/>
    <path d="M 289.40850830078125 257.55999755859375 C 287.7794189453125 265.3036193847656 282.326904296875 270.84906005859375 274.7566833496094 272.77569580078125 C 266.6557312011719 269.69219970703125 260.5892333984375 264.6253662109375 258.5317687988281 256.6302490234375 C 260.2013244628906 248.6807861328125 265.6528625488281 243.12551879882812 273.24395751953125 241.3677520751953 C 282.1473083496094 243.3096466064453 287.3860778808594 248.92916870117188 289.40850830078125 257.55999755859375" stroke-width="0.0" fill="rgb(2, 2, 3)" opacity="0.9900175"/>
    <path d="M 352.42919921875 212.39442443847656 C 350.33544921875 219.73834228515625 344.66796875 225.11618041992188 337.0145263671875 227.05484008789062 C 329.4519348144531 225.04344177246094 323.95709228515625 219.54788208007812 322.03314208984375 212.0410614013672 C 324.0454406738281 204.52557373046875 329.5216064453125 199.03204345703125 337.7599182128906 196.1117401123047 C 344.9535217285156 198.26380920410156 349.5746154785156 204.67982482910156 352.42919921875 212.39442443847656" stroke-width="0.0" fill="rgb(11, 21, 37)" opacity="1.0"/>
    <path d="M 329.75933837890625 70.6880111694336 C 327.78924560546875 78.18477630615234 321.93585205078125 82.56949615478516 313.80584716796875 85.30534362792969 C 306.9353332519531 82.43444061279297 301.2222595214844 77.17691802978516 299.03240966796875 69.95573425292969 C 301.031982421875 62.53242874145508 306.55078125 57.09366226196289 314.0041809082031 55.22457504272461 C 321.3753356933594 57.13051223754883 326.7990417480469 62.64680480957031 329.75933837890625 70.6880111694336" stroke-width="0.0" fill="rgb(3, 3, 2)" opacity="0.9900374"/>
    <path d="M 361.818359375 176.29217529296875 C 358.400390625 184.02415466308594 353.0944519042969 189.57533264160156 345.1556701660156 192.7903594970703 C 337.60382080078125 190.89810180664062 332.0924072265625 185.39981079101562 330.04498291015625 177.40203857421875 C 332.1063232421875 168.6289825439453 337.6466369628906 163.14910888671875 345.32568359375 161.11016845703125 C 353.8679504394531 163.54541015625 359.6454162597656 169.03225708007812 361.818359375 176.29217529296875" stroke-width="0.0" fill="rgb(6, 10, 15)" opacity="0.9900178"/>
    <path d="M 303.1617431640625 170.3664093017578 C 301.5086669921875 177.07261657714844 296.0640869140625 182.49224853515625 288.3524475097656 185.57113647460938 C 280.8085632324219 183.74325561523438 275.3581237792969 178.15426635742188 273.5171813964844 170.41647338867188 C 276.0096435546875 162.50010681152344 281.5019836425781 157.0165252685547 288.48486328125 155.7054443359375 C 295.86346435546875 157.67738342285156 301.2784423828125 163.1536407470703 303.1617431640625 170.3664093017578" stroke-width="0.0" fill="rgb(95, 114, 137)" opacity="0.99006337"/>
    <path d="M 307.8461608886719 198.822998046875 C 305.8677978515625 206.35105895996094 300.3485107421875 211.86192321777344 291.72088623046875 213.9289093017578 C 283.63775634765625 211.874267578125 278.12841796875 206.36126708984375 276.4023742675781 198.81507873535156 C 279.6585388183594 191.04945373535156 284.9836120605469 185.48011779785156 291.53839111328125 183.7633056640625 C 298.8181457519531 185.7303924560547 304.2878723144531 191.17572021484375 307.8461608886719 198.822998046875" stroke-width="0.0" fill="rgb(99, 146, 157)" opacity="1.0"/>
    <path d="M 389.1302795410156 216.89175415039062 C 386.9903869628906 224.5 381.5 229.99038696289062 373.8410949707031 232.19798278808594 C 366.2394714355469 230.30091857910156 360.82977294921875 224.72091674804688 358.8920593261719 217.06195068359375 C 361.0042724609375 209.498291015625 366.4997253417969 204.00953674316406 374.03411865234375 201.9775390625 C 381.65960693359375 203.8849639892578 387.22137451171875 209.30807495117188 389.1302795410156 216.89175415039062" stroke-width="0.0" fill="rgb(209, 213, 215)" opacity="1.0"/>
    <path d="M 311.9999694824219 370.0 C 309.9903869628906 377.5 304.5 382.9903869628906 297.0536193847656 384.95062255859375 C 289.68072509765625 382.8314514160156 284.275390625 377.2864685058594 282.3102722167969 369.89794921875 C 284.0830383300781 362.5269775390625 289.493408203125 356.9725646972656 296.97503662109375 354.9316101074219 C 304.5005187988281 357.0080261230469 309.9903869628906 362.4999084472656 311.9999694824219 370.0" stroke-width="0.0" fill="rgb(2, 2, 3)" opacity="0.99098825"/>
    <path d="M 275.9524841308594 9.337274551391602 C 273.7397766113281 17.762239456176758 266.9310302734375 22.251808166503906 260.33685302734375 24.138330459594727 C 253.3413848876953 22.1363582611084 247.90625 16.64085578918457 245.9618682861328 9.432807922363281 C 247.88722229003906 3.3207921981811523 253.2610321044922 -2.285965919494629 260.5515441894531 -4.963676929473877 C 268.2562255859375 -3.68452787399292 273.8749694824219 1.6764662265777588 275.9524841308594 9.337274551391602" stroke-width="0.0" fill="rgb(17, 21, 21)" opacity="0.990011"/>
    <path d="M 313.4130859375 72.35237121582031 C 311.63665771484375 80.17293548583984 306.2080078125 85.74335479736328 298.4654541015625 87.697265625 C 290.321044921875 85.41088104248047 285.4375305175781 79.31736755371094 282.234130859375 71.22898864746094 C 284.135009765625 63.64836120605469 289.66448974609375 58.18357849121094 298.1682434082031 56.16289138793945 C 306.0819396972656 58.280609130859375 311.2679748535156 64.08063507080078 313.4130859375 72.35237121582031" stroke-width="0.0" fill="rgb(20, 17, 5)" opacity="0.99002683"/>
    <path d="M 287.271728515625 72.30147552490234 C 284.4373779296875 80.104736328125 279.2454528808594 85.8470230102539 271.82147216796875 88.11077117919922 C 263.8856201171875 86.47663879394531 258.17279052734375 81.23746490478516 256.0482177734375 72.27118682861328 C 258.100341796875 64.6317138671875 263.6716003417969 59.211971282958984 271.5754089355469 57.41033935546875 C 280.1684875488281 59.398494720458984 285.76385498046875 64.78036499023438 287.271728515625 72.30147552490234" stroke-width="0.0" fill="rgb(3, 3, 11)" opacity="0.9912101"/>
    <path d="M 351.1438903808594 349.0342712402344 C 349.1724548339844 356.6600036621094 343.6520080566406 362.14599609375 336.0648498535156 364.0769348144531 C 328.4999694824219 361.989990234375 323.0087585449219 356.5003967285156 320.9901123046875 348.98553466796875 C 322.9129333496094 341.30657958984375 328.101806640625 335.39453125 336.6401062011719 333.0670471191406 C 344.1285400390625 335.21624755859375 349.2447204589844 341.0896301269531 351.1438903808594 349.0342712402344" stroke-width="0.0" fill="rgb(5, 8, 14)" opacity="1.0"/>
    <path d="M 257.14190673828125 387.8103942871094 C 254.9928741455078 395.5076904296875 249.54969787597656 401.13214111328125 242.53363037109375 403.7850036621094 C 235.35841369628906 400.1479797363281 229.91481018066406 394.6212463378906 227.96414184570312 388.32122802734375 C 229.91954040527344 381.3845520019531 235.36764526367188 375.8703918457031 242.8414306640625 372.10400390625 C 250.23675537109375 374.1731872558594 255.49813842773438 379.8819580078125 257.14190673828125 387.8103942871094" stroke-width="0.0" fill="rgb(15, 21, 30)" opacity="0.9900114"/>
    <path d="M 375.02374267578125 198.02369689941406 C 373.0193786621094 205.51683044433594 367.5101318359375 210.9967498779297 359.69415283203125 213.26295471191406 C 351.8153381347656 211.61422729492188 346.21221923828125 206.2401580810547 344.19232177734375 198.29931640625 C 346.2057189941406 189.68710327148438 351.66180419921875 184.1348114013672 359.2114562988281 182.1325225830078 C 367.46978759765625 185.04127502441406 372.9663391113281 190.52781677246094 375.02374267578125 198.02369689941406" stroke-width="0.0" fill="rgb(211, 212, 216)" opacity="1.0"/>
    <path d="M 355.92364501953125 235.1064453125 C 353.8454284667969 243.32015991210938 348.3157958984375 248.8351593017578 340.2502746582031 250.90792846679688 C 331.6953125 248.8240203857422 326.1697082519531 243.30712890625 324.1029968261719 235.5355682373047 C 326.2718811035156 226.85546875 331.9690246582031 221.6990203857422 340.4981994628906 220.78968811035156 C 348.2317810058594 221.29164123535156 353.8190002441406 226.728271484375 355.92364501953125 235.1064453125" stroke-width="0.0" fill="rgb(224, 179, 13)" opacity="1.0"/>
    <path d="M 327.5850830078125 380.5494384765625 C 325.8046875 388.3388671875 320.3745422363281 393.9033203125 312.45428466796875 395.96185302734375 C 303.6282653808594 393.89794921875 298.193603515625 388.3395080566406 296.4370422363281 380.5736999511719 C 299.0108337402344 372.5010070800781 304.50103759765625 367.0108947753906 312.0464782714844 364.96380615234375 C 319.66790771484375 366.86505126953125 325.2099609375 372.3092956542969 327.5850830078125 380.5494384765625" stroke-width="0.0" fill="rgb(0, 0, 2)" opacity="1.0"/>
    <path d="M 293.8173828125 348.2190856933594 C 290.9180603027344 356.4554138183594 285.4708557128906 361.96990966796875 277.9938049316406 363.9923095703125 C 270.5 361.9903869628906 265.0096130371094 356.5 263.0097961425781 349.0094909667969 C 265.0379943847656 341.5301818847656 270.53509521484375 336.05487060546875 278.84490966796875 333.09381103515625 C 286.3939514160156 335.09832763671875 291.8885192871094 340.61077880859375 293.8173828125 348.2190856933594" stroke-width="0.0" fill="rgb(7, 23, 42)" opacity="1.0"/>
    <path d="M 348.03546142578125 379.4666442871094 C 346.0737609863281 386.6000061035156 340.5981140136719 392.069580078125 333.141357421875 394.0455627441406 C 325.7316589355469 393.68792724609375 320.2191162109375 388.2879943847656 318.3799743652344 380.5032958984375 C 320.6001281738281 372.13067626953125 326.16448974609375 366.7110900878906 333.8092346191406 364.8786315917969 C 340.8733825683594 367.4751892089844 346.1341552734375 373.25909423828125 348.03546142578125 379.4666442871094" stroke-width="0.0" fill="rgb(4, 11, 17)" opacity="0.9900087"/>
    <path d="M 348.90478515625 126.0522689819336 C 346.9903869628906 133.5 341.5 138.99038696289062 333.6197204589844 141.33352661132812 C 325.74658203125 139.6874542236328 320.1400451660156 134.31234741210938 318.0614318847656 126.1152572631836 C 320.1487731933594 117.705810546875 325.7421569824219 112.22089385986328 333.32427978515625 110.08749389648438 C 341.6145324707031 112.69880676269531 346.91693115234375 118.5179443359375 348.90478515625 126.0522689819336" stroke-width="0.0" fill="rgb(13, 33, 63)" opacity="1.0"/>
    <path d="M 261.55706787109375 355.5434265136719 C 259.78948974609375 363.3192443847656 254.3524169921875 368.8825988769531 246.6863250732422 370.9447021484375 C 239.07574462890625 368.623046875 233.8807373046875 361.7071838378906 231.94992065429688 354.8628845214844 C 233.8923797607422 348.36248779296875 239.35862731933594 342.8811340332031 246.85519409179688 339.1482849121094 C 254.1248779296875 341.2226257324219 259.2467956542969 347.0849609375 261.55706787109375 355.5434265136719" stroke-width="0.0" fill="rgb(23, 38, 58)" opacity="0.9900181"/>
    <path d="M 371.3700866699219 301.7252502441406 C 369.42572021484375 308.9823913574219 364.0093688964844 314.520751953125 357.5321044921875 316.9559326171875 C 350.05670166015625 314.3768615722656 344.6093444824219 308.9485778808594 341.1473693847656 301.1590270996094 C 343.119140625 293.63525390625 348.63775634765625 288.1253356933594 356.1862487792969 286.1839294433594 C 364.0191345214844 289.53631591796875 369.5256652832031 294.96148681640625 371.3700866699219 301.7252502441406" stroke-width="0.0" fill="rgb(120, 122, 133)" opacity="0.990074"/>
    <path d="M 421.25775146484375 194.90115356445312 C 419.8440856933594 202.3196563720703 414.33233642578125 207.8688507080078 405.4847717285156 209.954833984375 C 397.6128845214844 207.90237426757812 392.1340637207031 202.3734893798828 390.236083984375 194.72320556640625 C 392.9762878417969 186.4587860107422 398.450439453125 180.9489288330078 405.3645935058594 179.63890075683594 C 412.6470031738281 181.85137939453125 418.085205078125 187.37542724609375 421.25775146484375 194.90115356445312" stroke-width="0.0" fill="rgb(12, 21, 44)" opacity="0.9901553"/>
    <path d="M 267.47015380859375 391.61700439453125 C 265.5309143066406 400.14813232421875 260.2604675292969 405.8430480957031 252.79722595214844 407.9209289550781 C 244.0411834716797 405.5169677734375 238.70657348632812 399.89288330078125 237.46815490722656 392.1298522949219 C 239.10472106933594 384.53424072265625 244.45191955566406 378.837890625 252.8258819580078 376.0775451660156 C 260.3548583984375 378.1101379394531 265.7554626464844 383.69122314453125 267.47015380859375 391.61700439453125" stroke-width="0.0" fill="rgb(7, 13, 16)" opacity="0.99509174"/>
    <path d="M 400.01788330078125 287.9842529296875 C 397.9903869628906 295.5 392.5 300.9903869628906 384.9786071777344 303.0127258300781 C 377.3290710449219 301.0931091308594 371.5742492675781 295.7837219238281 369.4554443359375 288.35821533203125 C 371.8326721191406 280.29541015625 377.2660217285156 274.7321472167969 385.04779052734375 272.5012512207031 C 392.68359375 274.7142028808594 398.05487060546875 280.39080810546875 400.01788330078125 287.9842529296875" stroke-width="0.0" fill="rgb(212, 213, 216)" opacity="0.9916636"/>
    <path d="M 264.9292907714844 304.5133972167969 C 262.8557434082031 313.3450927734375 257.3517761230469 318.8721008300781 249.89710998535156 320.65985107421875 C 242.3733673095703 317.0991516113281 236.9046630859375 311.6250305175781 234.9508514404297 305.18994140625 C 236.9082489013672 298.3799743652344 242.38223266601562 292.91357421875 249.90414428710938 290.8254699707031 C 257.34521484375 291.138916015625 262.86810302734375 296.6517333984375 264.9292907714844 304.5133972167969" stroke-width="0.0" fill="rgb(29, 43, 60)" opacity="0.99000853"/>
    <path d="M 219.18353271484375 519.0989990234375 C 217.09780883789062 526.6320190429688 211.63461303710938 532.1036987304688 204.79685974121094 534.0490112304688 C 198.36614990234375 532.1001586914062 192.8885498046875 526.6384887695312 190.95140075683594 520.4937133789062 C 192.9026641845703 513.3681030273438 198.36541748046875 507.8964538574219 205.89723205566406 505.8058166503906 C 213.38003540039062 506.1123046875 218.88987731933594 511.6189880371094 219.18353271484375 519.0989990234375" stroke-width="0.0" fill="rgb(55, 48, 32)" opacity="0.990009"/>
    <path d="M 437.1649475097656 257.1640930175781 C 435.1509094238281 264.6952209472656 429.70050048828125 270.1639709472656 422.2273254394531 272.1627502441406 C 414.89300537109375 271.6997985839844 409.6329345703125 265.99908447265625 407.9285888671875 258.1119384765625 C 410.0096130371094 250.50003051757812 415.5014343261719 245.0148162841797 423.7743835449219 242.15570068359375 C 431.3482360839844 244.13922119140625 436.8478088378906 249.65628051757812 437.1649475097656 257.1640930175781" stroke-width="0.0" fill="rgb(148, 116, 29)" opacity="0.99004495"/>
    <path d="M 441.0484313964844 210.88433837890625 C 439.1040344238281 217.64723205566406 433.6804504394531 223.21707153320312 427.0809631347656 226.8065185546875 C 419.92254638671875 223.67547607421875 414.4501953125 218.04620361328125 411.0982971191406 210.24217224121094 C 413.1826171875 202.72052001953125 418.7372131347656 197.2296600341797 426.1639099121094 196.92294311523438 C 433.6377868652344 198.89419555664062 439.10015869140625 204.36473083496094 441.0484313964844 210.88433837890625" stroke-width="0.0" fill="rgb(47, 37, 61)" opacity="0.99000776"/>
    <path d="M 354.1474304199219 134.130126953125 C 352.4471435546875 142.07997131347656 347.2159118652344 147.81773376464844 338.4151916503906 149.9512481689453 C 330.6222839355469 147.88772583007812 325.1063537597656 142.38046264648438 323.1045837402344 134.8293914794922 C 326.0451965332031 126.57865142822266 331.6278076171875 121.20751953125 339.0972595214844 119.3837890625 C 346.5271911621094 121.01664733886719 352.04791259765625 126.45515441894531 354.1474304199219 134.130126953125" stroke-width="0.0" fill="rgb(31, 65, 99)" opacity="1.0"/>
    <path d="M 291.80035400390625 161.00991821289062 C 289.5234375 168.85565185546875 283.7536926269531 174.28884887695312 275.6838073730469 176.80763244628906 C 268.23486328125 174.46449279785156 262.980224609375 168.60240173339844 260.1051025390625 160.17320251464844 C 262.1095275878906 152.6229248046875 267.6212158203125 147.1053924560547 275.2232666015625 145.0577392578125 C 284.16668701171875 147.2594757080078 289.6280517578125 152.8788299560547 291.80035400390625 161.00991821289062" stroke-width="0.0" fill="rgb(12, 20, 31)" opacity="1.0"/>
    <path d="M 392.1687316894531 130.4203643798828 C 391.64544677734375 139.2715301513672 386.3207702636719 144.8492889404297 378.7497863769531 146.82965087890625 C 370.5 143.99038696289062 365.0096130371094 138.5 363.0 131.0 C 365.0096130371094 123.5 370.5 118.0096206665039 378.0458984375 115.9603042602539 C 385.6825256347656 117.8616943359375 391.313720703125 123.26229858398438 392.1687316894531 130.4203643798828" stroke-width="0.0" fill="rgb(31, 58, 96)" opacity="1.0"/>
    <path d="M 312.058837890625 96.17398071289062 C 310.3772277832031 103.98184204101562 305.0915832519531 109.69703674316406 297.6647033691406 111.40161895751953 C 290.311279296875 108.1887435913086 284.87420654296875 102.6678695678711 282.6898498535156 95.12316131591797 C 283.1722412109375 87.7288589477539 288.8035583496094 82.41585540771484 296.6482849121094 80.25144958496094 C 304.11273193359375 83.50381469726562 309.7862854003906 88.79224395751953 312.058837890625 96.17398071289062" stroke-width="0.0" fill="rgb(242, 251, 38)" opacity="0.9900347"/>
    <path d="M 344.2461242675781 319.3095397949219 C 342.636474609375 327.2249755859375 337.2999572753906 332.85687255859375 329.67657470703125 334.913818359375 C 320.6300048828125 332.8516540527344 315.0933532714844 327.3896789550781 313.0419921875 319.575439453125 C 315.16278076171875 310.7660217285156 320.9181823730469 305.5727844238281 328.8692626953125 303.91815185546875 C 336.497314453125 306.0119934082031 341.98590087890625 311.5033264160156 344.2461242675781 319.3095397949219" stroke-width="0.0" fill="rgb(8, 17, 34)" opacity="1.0"/>
    <path d="M 402.9933776855469 294.9267883300781 C 400.81890869140625 302.3346862792969 395.3576965332031 307.90679931640625 387.8791809082031 310.419189453125 C 380.285888671875 308.2458190917969 374.82373046875 302.6919860839844 372.8045349121094 295.1013488769531 C 375.0087890625 287.49957275390625 380.499755859375 282.0093994140625 388.00030517578125 279.9999694824219 C 395.5032958984375 282.0077819824219 401.0043029785156 287.49322509765625 402.9933776855469 294.9267883300781" stroke-width="0.0" fill="rgb(214, 214, 217)" opacity="0.9907518"/>
    <path d="M 356.0473327636719 72.8362808227539 C 354.6191101074219 79.34146881103516 349.47174072265625 84.98096466064453 341.5000915527344 87.49610900878906 C 333.7094421386719 85.75431823730469 328.13616943359375 80.32887268066406 326.1275329589844 72.77241516113281 C 328.4444885253906 63.89236831665039 333.91094970703125 58.56912612915039 341.18701171875 57.95033645629883 C 348.6072082519531 59.922393798828125 354.0773010253906 65.39282989501953 356.0473327636719 72.8362808227539" stroke-width="0.0" fill="rgb(3, 8, 39)" opacity="0.9900113"/>
    <path d="M 363.03656005859375 85.5763168334961 C 361.224365234375 92.12369537353516 356.89276123046875 98.5149154663086 349.2852783203125 100.3209228515625 C 341.1709289550781 98.18102264404297 335.2947692871094 93.03276824951172 333.11236572265625 85.58634185791016 C 335.7617492675781 77.41844177246094 341.5453186035156 72.14647674560547 348.3857116699219 70.71876525878906 C 355.6519470214844 72.84642028808594 361.0887145996094 78.37104034423828 363.03656005859375 85.5763168334961" stroke-width="0.0" fill="rgb(3, 4, 23)" opacity="0.99001604"/>
    <path d="M 258.02862548828125 431.0491027832031 C 256.2431335449219 438.91705322265625 251.13453674316406 444.7870178222656 242.5240020751953 446.951904296875 C 235.1024169921875 444.8165283203125 230.87167358398438 437.7826843261719 228.95765686035156 430.6033020019531 C 230.84547424316406 424.2332458496094 236.10760498046875 418.495361328125 243.16787719726562 416.1158447265625 C 250.50018310546875 418.009521484375 255.99134826660156 423.49957275390625 258.02862548828125 431.0491027832031" stroke-width="0.0" fill="rgb(14, 30, 54)" opacity="0.9900317"/>
    <path d="M 361.050048828125 264.2768859863281 C 359.136474609375 270.7023010253906 353.7779541015625 276.4554443359375 346.1741638183594 279.9351806640625 C 338.6423645019531 277.8902893066406 333.1914367675781 272.3248291015625 331.0871887207031 264.28582763671875 C 333.70751953125 256.91229248046875 340.028076171875 251.52212524414062 346.46563720703125 249.78811645507812 C 353.7262268066406 251.76296997070312 359.1217956542969 257.3166809082031 361.050048828125 264.2768859863281" stroke-width="0.0" fill="rgb(3, 4, 17)" opacity="0.9900078"/>
    <path d="M 260.8732604980469 418.18206787109375 C 257.8699035644531 426.3829345703125 252.37913513183594 431.8553161621094 245.17185974121094 433.6605529785156 C 238.05303955078125 431.51263427734375 232.81185913085938 425.8189392089844 230.9598388671875 419.66070556640625 C 232.90708923339844 412.34027099609375 238.22650146484375 405.8271484375 245.1189422607422 403.1126403808594 C 253.36776733398438 405.14794921875 258.8956298828125 410.6171875 260.8732604980469 418.18206787109375" stroke-width="0.0" fill="rgb(5, 7, 17)" opacity="0.9900318"/>
    <path d="M 430.1652526855469 255.7071990966797 C 429.6082458496094 263.1166687011719 424.14923095703125 268.7021789550781 416.77069091796875 270.7125244140625 C 409.3608703613281 267.1180419921875 403.8991394042969 261.6329040527344 401.89080810546875 254.1819305419922 C 402.9332580566406 247.45738220214844 408.4754943847656 241.99432373046875 416.4505310058594 239.2592010498047 C 422.9281921386719 242.25408935546875 428.2269592285156 248.18470764160156 430.1652526855469 255.7071990966797" stroke-width="0.0" fill="rgb(4, 5, 3)" opacity="0.9900172"/>
    <path d="M 180.07125854492188 163.1382598876953 C 178.1142120361328 170.68687438964844 172.7576141357422 176.32015991210938 165.66270446777344 178.75401306152344 C 158.50360107421875 176.99142456054688 153.00621032714844 171.49713134765625 151.01995849609375 164.0199737548828 C 153.0281524658203 156.52073669433594 158.5413055419922 151.095947265625 166.29751586914062 149.23715209960938 C 174.2101593017578 150.389404296875 179.822021484375 155.72515869140625 180.07125854492188 163.1382598876953" stroke-width="0.0" fill="rgb(2, 5, 11)" opacity="0.990058"/>
    <path d="M 283.862548828125 355.9918518066406 C 281.9378967285156 363.46533203125 276.47686767578125 368.97784423828125 268.67193603515625 371.31298828125 C 260.83477783203125 369.6204833984375 255.2812042236328 364.19525146484375 253.44891357421875 356.50762939453125 C 255.9881591796875 348.4703063964844 261.4587707519531 342.9493103027344 268.97552490234375 340.8990173339844 C 276.49139404296875 343.0056457519531 281.9532165527344 348.52056884765625 283.862548828125 355.9918518066406" stroke-width="0.0" fill="rgb(13, 35, 62)" opacity="0.9935941"/>
    <path d="M 377.73583984375 157.87164306640625 C 375.77978515625 166.32720947265625 370.36578369140625 171.89442443847656 362.8101501464844 173.92031860351562 C 354.1948547363281 171.3916473388672 348.4442443847656 165.88388061523438 346.0760192871094 157.25802612304688 C 348.17962646484375 149.78895568847656 353.94354248046875 144.59829711914062 361.9971008300781 142.8591766357422 C 369.9864196777344 144.6344451904297 375.6878662109375 149.90777587890625 377.73583984375 157.87164306640625" stroke-width="0.0" fill="rgb(2, 2, 2)" opacity="0.99072194"/>
    <path d="M 363.9200744628906 104.3133773803711 C 361.6467590332031 112.9219970703125 355.61334228515625 117.82469177246094 347.8092346191406 119.48826599121094 C 339.9922790527344 118.33120727539062 334.20794677734375 113.17201232910156 332.1277160644531 105.74850463867188 C 334.95050048828125 97.47860717773438 340.4964904785156 92.01200866699219 348.34979248046875 89.70890045166016 C 356.2427062988281 91.33319091796875 361.85882568359375 96.69210052490234 363.9200744628906 104.3133773803711" stroke-width="0.0" fill="rgb(2, 4, 27)" opacity="0.9901757"/>
    <path d="M 253.99378967285156 146.9995574951172 C 251.98789978027344 154.49819946289062 246.49859619140625 159.98927307128906 238.99969482421875 161.99974060058594 C 231.5 159.99038696289062 226.00961303710938 154.5 223.9991455078125 146.99948120117188 C 226.00926208496094 139.50157165527344 231.5060577392578 134.0248260498047 238.99822998046875 132.06988525390625 C 246.48985290527344 134.02989196777344 251.98716735839844 139.5052032470703 253.99378967285156 146.9995574951172" stroke-width="0.0" fill="rgb(2, 2, 2)" opacity="0.99663013"/>
    <path d="M 289.7595520019531 52.69124221801758 C 287.8522644042969 60.340641021728516 282.323486328125 65.79816436767578 274.4892578125 67.6043472290039 C 265.8099365234375 65.58816528320312 260.1453552246094 60.28459930419922 258.0482177734375 51.43195724487305 C 260.10162353515625 43.621665954589844 265.6365051269531 38.13807678222656 274.6470642089844 36.05976867675781 C 282.25567626953125 38.152034759521484 287.48931884765625 43.878170013427734 289.7595520019531 52.69124221801758" stroke-width="0.0" fill="rgb(2, 2, 5)" opacity="0.9901697"/>
    <path d="M 399.6194152832031 224.7471160888672 C 397.69580078125 232.10206604003906 392.0008544921875 237.38319396972656 384.1099548339844 238.9672393798828 C 376.6043395996094 236.92649841308594 371.2989807128906 231.32337951660156 369.6770935058594 224.14947509765625 C 371.4464416503906 216.82391357421875 376.6455078125 210.77565002441406 384.4951171875 208.12098693847656 C 390.99853515625 210.69432067871094 396.2445373535156 217.16465759277344 399.6194152832031 224.7471160888672" stroke-width="0.0" fill="rgb(140, 142, 139)" opacity="1.0"/>
    <path d="M 314.9541015625 259.2806396484375 C 312.8693542480469 268.35504150390625 307.35357666015625 273.8653564453125 298.43072509765625 275.9387512207031 C 290.62774658203125 273.8857421875 285.1361999511719 268.3642578125 283.2317199707031 260.71099853515625 C 285.55072021484375 251.9644012451172 290.86773681640625 246.2733917236328 299.78369140625 244.0800323486328 C 307.3935852050781 246.09742736816406 312.9074401855469 251.60430908203125 314.9541015625 259.2806396484375" stroke-width="0.0" fill="rgb(17, 39, 75)" opacity="0.99009067"/>
    <path d="M 400.6545104980469 161.33016967773438 C 399.06317138671875 168.5342559814453 393.5159606933594 174.00082397460938 386.00604248046875 176.0008087158203 C 378.5081787109375 173.982177734375 373.02154541015625 168.4907684326172 370.443115234375 160.42893981933594 C 372.2003173828125 152.67404174804688 377.6525573730469 147.13479614257812 385.23028564453125 145.18934631347656 C 393.17333984375 148.3424072265625 398.56756591796875 153.85589599609375 400.6545104980469 161.33016967773438" stroke-width="0.0" fill="rgb(2, 8, 18)" opacity="0.9937216"/>
    <path d="M 383.5279541015625 139.64620971679688 C 381.8249816894531 147.3374786376953 376.3465576171875 152.8528289794922 368.71044921875 154.75355529785156 C 360.5 151.99038696289062 355.0096130371094 146.5 352.9914245605469 138.99066162109375 C 354.9799499511719 131.4676513671875 360.4651184082031 125.9715347290039 367.9797668457031 123.9883804321289 C 375.4486083984375 126.0401382446289 380.8275451660156 131.5919647216797 383.5279541015625 139.64620971679688" stroke-width="0.0" fill="rgb(6, 14, 26)" opacity="0.9905266"/>
    <path d="M 396.6779479980469 192.65211486816406 C 394.8387756347656 200.35682678222656 389.3774108886719 205.8964080810547 381.8633728027344 207.90701293945312 C 374.3113098144531 204.19456481933594 368.89630126953125 198.655517578125 366.9132385253906 191.1100311279297 C 367.1204528808594 183.62637329101562 372.6346740722656 178.14505004882812 380.308837890625 176.28240966796875 C 388.4953918457031 179.00714111328125 393.9888916015625 184.50599670410156 396.6779479980469 192.65211486816406" stroke-width="0.0" fill="rgb(2, 3, 3)" opacity="0.9900608"/>
    <path d="M 376.6495056152344 143.05760192871094 C 374.9101867675781 150.45779418945312 369.477783203125 155.97752380371094 361.87347412109375 158.0801239013672 C 353.9667053222656 156.3967742919922 348.23699951171875 151.15948486328125 346.2149658203125 143.6605224609375 C 348.8895568847656 135.3755340576172 354.3243103027344 129.7367706298828 361.81146240234375 127.71099090576172 C 369.4454650878906 130.0440673828125 374.8362121582031 135.591064453125 376.6495056152344 143.05760192871094" stroke-width="0.0" fill="rgb(2, 2, 2)" opacity="0.99021363"/>
    <path d="M 386.69842529296875 120.34720611572266 C 384.104736328125 128.6111602783203 378.6468505859375 134.2161407470703 371.2640380859375 136.253662109375 C 363.70196533203125 133.74497985839844 358.1820983886719 128.3208465576172 355.8914794921875 120.6833267211914 C 357.3755187988281 112.76927185058594 362.6782531738281 107.11738586425781 370.89544677734375 105.03931427001953 C 379.3847351074219 107.09601593017578 384.8437805175781 112.63703155517578 386.69842529296875 120.34720611572266" stroke-width="0.0" fill="rgb(14, 42, 78)" opacity="1.0"/>
    <path d="M 391.6766052246094 245.38975524902344 C 389.4134216308594 252.76951599121094 383.70648193359375 258.2414245605469 375.95068359375 260.4273376464844 C 368.3953552246094 258.1703796386719 362.81903076171875 252.60740661621094 360.4799499511719 245.0283660888672 C 362.6982116699219 237.22894287109375 368.2165222167969 231.66006469726562 376.0538330078125 229.36282348632812 C 383.8311462402344 231.59593200683594 389.25146484375 237.21783447265625 391.6766052246094 245.38975524902344" stroke-width="0.0" fill="rgb(213, 213, 217)" opacity="0.991484"/>
    <path d="M 277.8762512207031 226.46336364746094 C 275.8307800292969 234.3311309814453 270.34600830078125 239.86819458007812 262.6279296875 241.90951538085938 C 253.73037719726562 239.78729248046875 248.1828155517578 234.2822265625 246.0748291015625 225.48760986328125 C 248.14022827148438 217.66905212402344 253.6844024658203 212.178466796875 262.44140625 210.14910888671875 C 270.3050537109375 212.1630859375 275.78070068359375 217.71644592285156 277.8762512207031 226.46336364746094" stroke-width="0.0" fill="rgb(222, 167, 6)" opacity="1.0"/>
    <path d="M 334.751220703125 104.7421875 C 332.8341064453125 112.28430938720703 327.2381591796875 117.71966552734375 318.2015380859375 119.9320068359375 C 310.60870361328125 117.90143585205078 305.10137939453125 112.39025115966797 303.13702392578125 104.813232421875 C 305.3533020019531 95.83136749267578 310.7858581542969 90.22624969482422 318.2198181152344 88.29863739013672 C 326.0280456542969 91.62305450439453 331.78436279296875 96.83390045166016 334.751220703125 104.7421875" stroke-width="0.0" fill="rgb(112, 116, 52)" opacity="0.9920607"/>
  </g>
</svg>
