<?xml version="1.0" ?>
<svg xmlns="http://www.w3.org/2000/svg" version="1.1" width="256" height="256">
  <defs/>
  <g>
    <path d="M 205.0 22.0 C 202.3205108642578 32.0 195.0 39.32050704956055 185.0 42.0 C 175.0 39.32050704956055 167.6794891357422 32.0 165.0 22.0 C 167.6794891357422 12.0 175.0 4.679491996765137 185.0 2.0 C 195.0 4.679491996765137 202.3205108642578 12.0 205.0 22.0" stroke-width="0.0" fill="rgb(32, 35, 27)" opacity="1.0"/>
    <path d="M 123.0 25.0 C 120.32051086425781 35.0 113.0 42.32050704956055 103.0 45.0 C 93.0 42.32050704956055 85.67948913574219 35.0 83.0 25.0 C 85.67948913574219 15.0 93.0 7.679491996765137 103.0 5.0 C 113.0 7.679491996765137 120.32051086425781 15.0 123.0 25.0" stroke-width="0.0" fill="rgb(42, 48, 38)" opacity="1.0"/>
    <path d="M 137.0 20.0 C 134.3205108642578 30.0 127.0 37.32050704956055 117.0 40.0 C 107.0 37.32050704956055 99.67948913574219 30.0 97.0 20.0 C 99.67948913574219 10.0 107.0 2.6794919967651367 117.0 0.0 C 127.0 2.6794919967651367 134.3205108642578 10.0 137.0 20.0" stroke-width="0.0" fill="rgb(42, 42, 38)" opacity="1.0"/>
    <path d="M 222.0 8.0 C 219.3205108642578 18.0 212.0 25.32050895690918 202.0 28.0 C 192.0 25.32050895690918 184.6794891357422 18.0 182.0 8.0 C 184.6794891357422 -2.0 192.0 -9.320508003234863 202.0 -12.0 C 212.0 -9.320508003234863 219.3205108642578 -2.0 222.0 8.0" stroke-width="0.0" fill="rgb(41, 52, 41)" opacity="1.0"/>
    <path d="M 156.0 19.0 C 153.3205108642578 29.0 146.0 36.32050704956055 136.0 39.0 C 126.0 36.32050704956055 118.67948913574219 29.0 116.0 19.0 C 118.67948913574219 9.0 126.0 1.6794918775558472 136.0 -1.0 C 146.0 1.6794918775558472 153.3205108642578 9.0 156.0 19.0" stroke-width="0.0" fill="rgb(25, 29, 29)" opacity="1.0"/>
    <path d="M 206.99998474121094 18.00002670288086 C 204.3205108642578 28.0 197.0 35.32050704956055 187.0 38.0 C 177.0 35.32050704956055 169.6794891357422 28.0 167.0 18.0 C 169.6794891357422 8.0 177.0 0.6794919371604919 186.9990234375 -1.9980292320251465 C 196.9993133544922 0.6808935403823853 204.32034301757812 8.000332832336426 206.99998474121094 18.00002670288086" stroke-width="0.0" fill="rgb(44, 58, 44)" opacity="0.99375266"/>
    <path d="M 130.0 253.0 C 127.32051086425781 263.0 120.0 270.32049560546875 110.0 273.0 C 100.0 270.32049560546875 92.67948913574219 263.0 90.0 253.0 C 92.67948913574219 243.0 100.0 235.6794891357422 110.0 233.0 C 120.0 235.6794891357422 127.32051086425781 243.0 130.0 253.0" stroke-width="0.0" fill="rgb(86, 70, 70)" opacity="1.0"/>
    <path d="M 221.0 24.0 C 218.3205108642578 34.0 211.0 41.32050704956055 201.0 44.0 C 191.0 41.32050704956055 183.6794891357422 34.0 181.0 24.0 C 183.6794891357422 14.0 191.0 6.679491996765137 201.0 4.0 C 211.0 6.679491996765137 218.3205108642578 14.0 221.0 24.0" stroke-width="0.0" fill="rgb(44, 54, 42)" opacity="1.0"/>
    <path d="M 102.0 20.0 C 99.32051086425781 30.0 92.0 37.32050704956055 82.0 40.0 C 72.0 37.32050704956055 64.67948913574219 30.0 62.0 20.0 C 64.67948913574219 10.0 72.0 2.6794919967651367 82.0 0.0 C 92.0 2.6794919967651367 99.32051086425781 10.0 102.0 20.0" stroke-width="0.0" fill="rgb(46, 64, 48)" opacity="1.0"/>
    <path d="M 236.0 229.0 C 233.3205108642578 239.0 226.0 246.3205108642578 216.0 249.0 C 206.0 246.3205108642578 198.6794891357422 239.0 196.0 229.0 C 198.6794891357422 219.0 206.0 211.6794891357422 216.0 209.0 C 226.0 211.6794891357422 233.3205108642578 219.0 236.0 229.0" stroke-width="0.0" fill="rgb(96, 85, 81)" opacity="1.0"/>
    <path d="M 239.6145477294922 221.4897003173828 C 237.3205108642578 231.0 230.0 238.3205108642578 220.0 241.0 C 210.0 238.3205108642578 202.6794891357422 231.0 200.84039306640625 221.8384246826172 C 203.62176513671875 211.94857788085938 210.95974731445312 204.65179443359375 220.75636291503906 201.99073791503906 C 229.06935119628906 204.64120483398438 236.50186157226562 211.88180541992188 239.6145477294922 221.4897003173828" stroke-width="0.0" fill="rgb(68, 74, 65)" opacity="0.99000466"/>
    <path d="M 140.0 242.0 C 137.3205108642578 252.0 130.0 259.32049560546875 120.0 262.0 C 110.0 259.32049560546875 102.67948913574219 252.0 100.0 242.0 C 102.67948913574219 232.0 110.0 224.6794891357422 120.0 222.0 C 130.0 224.6794891357422 137.3205108642578 232.0 140.0 242.0" stroke-width="0.0" fill="rgb(57, 63, 53)" opacity="1.0"/>
    <path d="M 264.0 218.0000457763672 C 261.32049560546875 228.0 254.0 235.3205108642578 244.0 238.0 C 234.0 235.3205108642578 226.6794891357422 228.0 224.85215759277344 218.86610412597656 C 227.63705444335938 208.9655303955078 234.9746856689453 201.66275024414062 244.97349548339844 198.9915771484375 C 253.8308868408203 201.09930419921875 261.31793212890625 208.00900268554688 264.0 218.0000457763672" stroke-width="0.0" fill="rgb(31, 29, 29)" opacity="0.9900268"/>
    <path d="M 171.0 12.0 C 168.3205108642578 22.0 161.0 29.32050895690918 151.0 32.0 C 141.0 29.32050895690918 133.6794891357422 22.0 131.0 12.0 C 133.6794891357422 2.0 141.0 -5.320508003234863 151.0 -8.0 C 161.0 -5.320508003234863 168.3205108642578 2.0 171.0 12.0" stroke-width="0.0" fill="rgb(43, 50, 37)" opacity="1.0"/>
    <path d="M 167.0 15.0 C 164.3205108642578 25.0 157.0 32.32050704956055 147.0 35.0 C 137.0 32.32050704956055 129.6794891357422 25.0 127.0 15.0 C 129.6794891357422 5.0 137.0 -2.3205080032348633 147.0 -5.0 C 157.0 -2.3205080032348633 164.3205108642578 5.0 167.0 15.0" stroke-width="0.0" fill="rgb(55, 58, 52)" opacity="1.0"/>
    <path d="M 81.81114959716797 233.2984619140625 C 79.32051086425781 243.0 72.0 250.3205108642578 62.0 253.0 C 52.0 250.3205108642578 44.67949295043945 243.0 42.35181427001953 233.45947265625 C 45.480995178222656 223.8700408935547 52.9228401184082 216.63644409179688 61.4865837097168 213.98983764648438 C 71.09204864501953 216.63319396972656 78.61275482177734 223.82284545898438 81.81114959716797 233.2984619140625" stroke-width="0.0" fill="rgb(82, 66, 70)" opacity="0.99000794"/>
    <path d="M 170.0 241.0 C 167.3205108642578 251.0 160.0 258.32049560546875 150.0 261.0 C 140.0 258.32049560546875 132.6794891357422 251.0 130.0 241.0 C 132.6794891357422 231.0 140.0 223.6794891357422 150.0 221.0 C 160.0 223.6794891357422 167.3205108642578 231.0 170.0 241.0" stroke-width="0.0" fill="rgb(35, 38, 30)" opacity="1.0"/>
    <path d="M 243.0 24.0 C 240.3205108642578 34.0 233.0 41.32050704956055 223.89349365234375 43.053932189941406 C 213.85159301757812 40.39950180053711 206.2626953125 33.26505661010742 203.1072998046875 23.810810089111328 C 205.6794891357422 14.0 213.0 6.679491996765137 223.0 4.0 C 233.0 6.679491996765137 240.3205108642578 14.0 243.0 24.0" stroke-width="0.0" fill="rgb(38, 51, 35)" opacity="0.990066"/>
    <path d="M 163.0 237.0 C 160.3205108642578 247.0 153.0 254.3205108642578 143.0 257.0 C 133.0 254.3205108642578 125.67948913574219 247.0 123.0 237.0 C 125.67948913574219 227.0 133.0 219.6794891357422 143.0 217.0 C 153.0 219.6794891357422 160.3205108642578 227.0 163.0 237.0" stroke-width="0.0" fill="rgb(53, 51, 47)" opacity="1.0"/>
    <path d="M 258.0 240.0 C 255.3205108642578 250.0 248.0 257.32049560546875 238.0 260.0 C 228.0 257.32049560546875 220.6794891357422 250.0 218.0 240.0 C 220.6794891357422 230.0 228.0 222.6794891357422 238.0 220.0 C 248.0 222.6794891357422 255.3205108642578 230.0 258.0 240.0" stroke-width="0.0" fill="rgb(42, 45, 38)" opacity="1.0"/>
    <path d="M 242.9999237060547 230.00022888183594 C 240.3205108642578 240.0 233.0 247.3205108642578 223.0 250.0 C 213.0 247.3205108642578 205.6794891357422 240.0 203.0 230.00001525878906 C 205.67987060546875 220.0012969970703 213.01658630371094 212.73414611816406 222.6141357421875 210.8211669921875 C 232.91229248046875 212.91400146484375 240.31619262695312 220.01332092285156 242.9999237060547 230.00022888183594" stroke-width="0.0" fill="rgb(54, 54, 50)" opacity="0.9922521"/>
    <path d="M 275.0 242.0 C 272.32049560546875 252.0 265.0 259.32049560546875 255.0 262.0 C 245.0 259.32049560546875 237.6794891357422 252.0 235.0 242.0 C 237.6794891357422 232.0 245.0 224.6794891357422 255.0 222.0 C 265.0 224.6794891357422 272.32049560546875 232.0 275.0 242.0" stroke-width="0.0" fill="rgb(79, 82, 72)" opacity="1.0"/>
    <path d="M 227.0 248.0 C 224.3205108642578 258.0 217.0 265.32049560546875 207.0 268.0 C 197.0 265.32049560546875 189.6794891357422 258.0 187.0 248.0 C 189.6794891357422 238.0 197.0 230.6794891357422 207.0 228.0 C 217.0 230.6794891357422 224.3205108642578 238.0 227.0 248.0" stroke-width="0.0" fill="rgb(84, 79, 71)" opacity="1.0"/>
    <path d="M 241.0 2.0 C 238.3205108642578 12.0 231.0 19.32050895690918 221.0 22.0 C 211.0 19.32050895690918 203.6794891357422 12.0 201.0 2.0 C 203.6794891357422 -8.0 211.0 -15.320508003234863 221.0 -18.0 C 231.0 -15.320508003234863 238.3205108642578 -8.0 241.0 2.0" stroke-width="0.0" fill="rgb(9, 15, 7)" opacity="1.0"/>
    <path d="M 30.427471160888672 22.351781845092773 C 27.435203552246094 32.08037567138672 20.052207946777344 39.35195541381836 10.059553146362305 42.01433563232422 C 1.423965334892273 39.62435531616211 -6.2829270362854 32.89447784423828 -8.999191284179688 22.997602462768555 C -6.320508003234863 13.0 1.0 5.679491996765137 11.0 3.0 C 21.0 5.679491996765137 28.32050895690918 13.0 30.427471160888672 22.351781845092773" stroke-width="0.0" fill="rgb(59, 63, 59)" opacity="0.99001884"/>
    <path d="M 84.0 18.999996185302734 C 81.3201904296875 28.998851776123047 73.96405792236328 36.20189666748047 64.96922302246094 38.01180648803711 C 54.9591064453125 35.3442268371582 47.57988357543945 28.066146850585938 44.581302642822266 18.32942771911621 C 46.67949295043945 9.0 54.0 1.6794918775558472 64.0 -1.0 C 74.0 1.6794918775558472 81.32051086425781 9.0 84.0 18.999996185302734" stroke-width="0.0" fill="rgb(35, 57, 30)" opacity="0.99002403"/>
    <path d="M 246.0 233.0 C 243.3205108642578 243.0 236.0 250.3205108642578 226.0 253.0 C 216.0 250.3205108642578 208.6794891357422 243.0 206.0 233.0 C 208.6794891357422 223.0 216.0 215.6794891357422 226.0 213.0 C 236.0 215.6794891357422 243.3205108642578 223.0 246.0 233.0" stroke-width="0.0" fill="rgb(61, 68, 54)" opacity="1.0"/>
    <path d="M 220.0 20.0 C 217.3205108642578 30.0 210.0 37.32050704956055 200.0 40.0 C 190.0 37.32050704956055 182.6794891357422 30.0 180.0 20.0 C 182.6794891357422 10.0 190.0 2.6794919967651367 200.0 0.0 C 210.0 2.6794919967651367 217.3205108642578 10.0 220.0 20.0" stroke-width="0.0" fill="rgb(63, 67, 63)" opacity="1.0"/>
    <path d="M 247.0 18.0 C 244.3205108642578 28.0 237.0 35.32050704956055 227.0 38.0 C 217.0 35.32050704956055 209.6794891357422 28.0 207.0 18.0 C 209.6794891357422 8.0 217.0 0.6794919371604919 227.0 -2.0 C 237.0 0.6794919371604919 244.3205108642578 8.0 247.0 18.0" stroke-width="0.0" fill="rgb(32, 47, 26)" opacity="1.0"/>
    <path d="M 257.0 18.0 C 254.3205108642578 28.0 247.0 35.32050704956055 237.0 38.0 C 227.0 35.32050704956055 219.6794891357422 28.0 217.0 18.0 C 219.6794891357422 8.0 227.0 0.6794919371604919 237.0 -2.0 C 247.0 0.6794919371604919 254.3205108642578 8.0 257.0 18.0" stroke-width="0.0" fill="rgb(11, 26, 10)" opacity="1.0"/>
    <path d="M 92.0 22.0 C 89.32051086425781 32.0 82.0 39.32050704956055 72.94497680664062 41.02315139770508 C 62.87906265258789 38.37366485595703 54.837371826171875 31.310529708862305 51.69747543334961 22.216508865356445 C 54.67949295043945 12.0 62.0 4.679491996765137 72.0 2.0 C 82.0 4.679491996765137 89.32051086425781 12.0 92.0 22.0" stroke-width="0.0" fill="rgb(46, 71, 42)" opacity="0.99017954"/>
    <path d="M 115.3938217163086 32.32177734375 C 112.42315673828125 42.072452545166016 105.04792022705078 49.34992980957031 96.6996841430664 52.008514404296875 C 86.9455337524414 49.35075759887695 79.53690338134766 42.092403411865234 76.45606994628906 32.43689727783203 C 78.67948913574219 23.0 86.0 15.679491996765137 96.0 13.0 C 106.0 15.679491996765137 113.32051086425781 23.0 115.3938217163086 32.32177734375" stroke-width="0.0" fill="rgb(55, 56, 52)" opacity="0.99001074"/>
    <path d="M 108.0 5.0 C 105.32051086425781 15.0 98.0 22.32050895690918 88.0 25.0 C 78.0 22.32050895690918 70.67948913574219 15.0 68.0 5.0 C 70.67948913574219 -5.0 78.0 -12.320508003234863 88.0 -15.0 C 98.0 -12.320508003234863 105.32051086425781 -5.0 108.0 5.0" stroke-width="0.0" fill="rgb(47, 64, 39)" opacity="0.9902428"/>
    <path d="M 104.0 241.0 C 101.32051086425781 251.0 94.0 258.32049560546875 84.0 261.0 C 74.0 258.32049560546875 66.67948913574219 251.0 64.0 241.0 C 66.67948913574219 231.0 74.0 223.6794891357422 84.0 221.0 C 94.0 223.6794891357422 101.32051086425781 231.0 104.0 241.0" stroke-width="0.0" fill="rgb(75, 63, 64)" opacity="1.0"/>
    <path d="M 168.01290893554688 229.97299194335938 C 167.1364288330078 239.64476013183594 159.3850860595703 246.5170135498047 149.02490234375 249.0098876953125 C 139.0 246.3205108642578 131.6794891357422 239.0 129.91607666015625 229.91273498535156 C 132.6490020751953 219.9716796875 139.97633361816406 212.66189575195312 148.36318969726562 209.99386596679688 C 158.01998901367188 212.66354370117188 165.33706665039062 219.979736328125 168.01290893554688 229.97299194335938" stroke-width="0.0" fill="rgb(40, 43, 39)" opacity="0.9900017"/>
    <path d="M 109.99993896484375 238.0001983642578 C 107.32051086425781 248.0 100.0 255.3205108642578 90.0 258.0 C 80.0 255.3205108642578 72.67948913574219 248.0 70.04196166992188 238.09127807617188 C 73.11979675292969 228.64744567871094 80.83919525146484 221.60675048828125 90.92155456542969 218.98452758789062 C 99.79373168945312 221.1488494873047 107.31410217285156 228.02122497558594 109.99993896484375 238.0001983642578" stroke-width="0.0" fill="rgb(39, 37, 36)" opacity="0.9900571"/>
    <path d="M 271.0 224.0 C 268.32049560546875 234.0 261.0 241.3205108642578 251.0 244.0 C 241.0 241.3205108642578 233.6794891357422 234.0 231.0 224.0 C 233.6794891357422 214.0 241.0 206.6794891357422 251.0 204.0 C 261.0 206.6794891357422 268.32049560546875 214.0 271.0 224.0" stroke-width="0.0" fill="rgb(38, 33, 34)" opacity="1.0"/>
    <path d="M 274.0 4.0 C 271.32049560546875 14.0 264.0 21.32050895690918 254.0 24.0 C 244.0 21.32050895690918 236.6794891357422 14.0 234.0 4.0 C 236.6794891357422 -6.0 244.0 -13.320508003234863 254.0 -16.0 C 264.0 -13.320508003234863 271.32049560546875 -6.0 274.0 4.0" stroke-width="0.0" fill="rgb(104, 114, 94)" opacity="1.0"/>
    <path d="M 45.0 6.0 C 42.32050704956055 16.0 35.0 23.32050895690918 25.0 26.0 C 15.0 23.32050895690918 7.679491996765137 16.0 5.0 6.0 C 7.679491996765137 -4.0 15.0 -11.320508003234863 25.0 -14.0 C 35.0 -11.320508003234863 42.32050704956055 -4.0 45.0 6.0" stroke-width="0.0" fill="rgb(30, 38, 28)" opacity="1.0"/>
    <path d="M 158.0 253.0 C 155.3205108642578 263.0 148.0 270.32049560546875 138.0 273.0 C 128.0 270.32049560546875 120.67948913574219 263.0 118.0 253.0 C 120.67948913574219 243.0 128.0 235.6794891357422 138.0 233.0 C 148.0 235.6794891357422 155.3205108642578 243.0 158.0 253.0" stroke-width="0.0" fill="rgb(55, 50, 51)" opacity="0.9992967"/>
    <path d="M 264.0 27.0 C 261.32049560546875 37.0 254.0 44.32050704956055 244.0 47.0 C 234.0 44.32050704956055 226.6794891357422 37.0 224.0 27.0 C 226.6794891357422 17.0 234.0 9.679491996765137 244.0 7.0 C 254.0 9.679491996765137 261.32049560546875 17.0 264.0 27.0" stroke-width="0.0" fill="rgb(21, 23, 17)" opacity="1.0"/>
    <path d="M 147.0 239.0 C 144.3205108642578 249.0 137.0 256.32049560546875 127.0 259.0 C 117.0 256.32049560546875 109.67948913574219 249.0 107.0 239.0 C 109.67948913574219 229.0 117.0 221.6794891357422 127.0 219.0 C 137.0 221.6794891357422 144.3205108642578 229.0 147.0 239.0" stroke-width="0.0" fill="rgb(40, 38, 33)" opacity="1.0"/>
    <path d="M 162.0010528564453 240.00143432617188 C 159.32618713378906 250.00772094726562 152.01016235351562 257.3343200683594 142.00613403320312 260.00836181640625 C 132.0 257.32049560546875 124.67948913574219 250.0 122.0 240.0 C 124.67948913574219 230.0 132.0 222.6794891357422 142.0 220.0 C 152.0 222.6794891357422 159.3205108642578 230.0 162.0010528564453 240.00143432617188" stroke-width="0.0" fill="rgb(44, 42, 37)" opacity="0.99648947"/>
    <path d="M 269.0 18.0 C 266.32049560546875 28.0 259.0 35.32050704956055 249.0 38.0 C 239.0 35.32050704956055 231.6794891357422 28.0 229.0 18.0 C 231.6794891357422 8.0 239.0 0.6794919371604919 249.0 -2.0 C 259.0 0.6794919371604919 266.32049560546875 8.0 269.0 18.0" stroke-width="0.0" fill="rgb(25, 34, 20)" opacity="1.0"/>
    <path d="M 258.0023498535156 38.00528335571289 C 255.3545379638672 48.068580627441406 248.10475158691406 55.469024658203125 237.3590850830078 58.83879089355469 C 227.26780700683594 56.06645584106445 219.7679901123047 48.826595306396484 217.0274200439453 38.92780303955078 C 220.6794891357422 28.0 228.0 20.67949104309082 238.0 18.0 C 248.0 20.67949104309082 255.3205108642578 28.0 258.0023498535156 38.00528335571289" stroke-width="0.0" fill="rgb(226, 227, 231)" opacity="1.0"/>
    <path d="M 237.0 236.0 C 234.3205108642578 246.0 227.0 253.3205108642578 217.0 256.0 C 207.0 253.3205108642578 199.6794891357422 246.0 197.0 236.0 C 199.6794891357422 226.0 207.0 218.6794891357422 217.0 216.0 C 227.0 218.6794891357422 234.3205108642578 226.0 237.0 236.0" stroke-width="0.0" fill="rgb(55, 57, 43)" opacity="1.0"/>
    <path d="M 240.99896240234375 18.99688148498535 C 238.26856994628906 28.855979919433594 230.45822143554688 35.53056335449219 220.15359497070312 38.01533889770508 C 211.51766967773438 35.56010437011719 203.74928283691406 28.82162094116211 201.0019073486328 18.99454689025879 C 203.6794891357422 9.0 211.0 1.6794918775558472 221.0 -1.0 C 231.0 1.6794918775558472 238.3205108642578 9.0 240.99896240234375 18.99688148498535" stroke-width="0.0" fill="rgb(19, 22, 16)" opacity="0.9900479"/>
    <path d="M 139.0 27.0 C 136.3205108642578 37.0 129.0 44.32050704956055 119.0 47.0 C 109.0 44.32050704956055 101.67948913574219 37.0 99.0 27.0 C 101.67948913574219 17.0 109.0 9.679491996765137 119.0 7.0 C 129.0 9.679491996765137 136.3205108642578 17.0 139.0 27.0" stroke-width="0.0" fill="rgb(11, 12, 11)" opacity="1.0"/>
    <path d="M 224.8254852294922 25.819271087646484 C 221.91322326660156 35.582000732421875 214.5724639892578 42.881710052490234 204.78652954101562 45.77842712402344 C 195.0 43.32050704956055 187.6794891357422 36.0 185.0 26.0 C 187.6794891357422 16.0 195.0 8.679491996765137 205.0 6.0 C 215.0 8.679491996765137 222.3205108642578 16.0 224.8254852294922 25.819271087646484" stroke-width="0.0" fill="rgb(20, 25, 21)" opacity="1.0"/>
    <path d="M 47.5511474609375 18.444334030151367 C 44.4660758972168 28.09381675720215 37.05548095703125 35.35149383544922 27.09457015991211 38.010162353515625 C 18.83241081237793 35.39887237548828 11.144564628601074 28.347064971923828 8.060124397277832 18.886091232299805 C 10.679491996765137 9.0 18.0 1.6794918775558472 28.0 -1.0 C 38.0 1.6794918775558472 45.32050704956055 9.0 47.5511474609375 18.444334030151367" stroke-width="0.0" fill="rgb(49, 64, 44)" opacity="0.9900069"/>
    <path d="M 258.0 223.0 C 255.3205108642578 233.0 248.0 240.3205108642578 238.0 243.0 C 228.0 240.3205108642578 220.6794891357422 233.0 218.67562866210938 223.6988525390625 C 221.56686401367188 213.9031524658203 228.9188995361328 206.61558532714844 238.870849609375 203.91029357910156 C 248.0 205.6794891357422 255.3205108642578 213.0 258.0 223.0" stroke-width="0.0" fill="rgb(18, 19, 20)" opacity="0.99011636"/>
    <path d="M 212.0 22.0 C 209.3205108642578 32.0 202.0 39.32050704956055 192.0 42.0 C 182.0 39.32050704956055 174.6794891357422 32.0 172.0 22.0 C 174.6794891357422 12.0 182.0 4.679491996765137 192.0 2.0 C 202.0 4.679491996765137 209.3205108642578 12.0 212.0 22.0" stroke-width="0.0" fill="rgb(58, 67, 53)" opacity="1.0"/>
    <path d="M 149.0 28.0 C 146.3205108642578 38.0 139.0 45.32050704956055 129.0 48.0 C 119.0 45.32050704956055 111.67948913574219 38.0 109.0 28.0 C 111.67948913574219 18.0 119.0 10.679491996765137 129.0 8.0 C 139.0 10.679491996765137 146.3205108642578 18.0 149.0 28.0" stroke-width="0.0" fill="rgb(23, 28, 26)" opacity="1.0"/>
    <path d="M 251.0 9.0 C 248.3205108642578 19.0 241.0 26.32050895690918 231.0 29.0 C 221.0 26.32050895690918 213.6794891357422 19.0 211.0 9.0 C 213.6794891357422 -1.0 221.0 -8.320508003234863 231.0 -11.0 C 241.0 -8.320508003234863 248.3205108642578 -1.0 251.0 9.0" stroke-width="0.0" fill="rgb(19, 28, 16)" opacity="1.0"/>
    <path d="M 123.0 249.0 C 120.32051086425781 259.0 113.0 266.32049560546875 103.0 269.0 C 93.0 266.32049560546875 85.67948913574219 259.0 83.0 249.0 C 85.67948913574219 239.0 93.0 231.6794891357422 103.0 229.0 C 113.0 231.6794891357422 120.32051086425781 239.0 123.0 249.0" stroke-width="0.0" fill="rgb(78, 65, 64)" opacity="1.0"/>
    <path d="M 125.0 237.0 C 122.32051086425781 247.0 115.0 254.3205108642578 105.0 257.0 C 95.0 254.3205108642578 87.67948913574219 247.0 85.0 237.0 C 87.67948913574219 227.0 95.0 219.6794891357422 105.0 217.0 C 115.0 219.6794891357422 122.32051086425781 227.0 125.0 237.0" stroke-width="0.0" fill="rgb(62, 64, 59)" opacity="1.0"/>
    <path d="M 189.15870666503906 34.14167785644531 C 186.36538696289062 44.03650665283203 179.02784729003906 51.33995056152344 170.923095703125 54.0061149597168 C 160.96871948242188 51.33900451660156 153.61036682128906 44.04881286621094 150.71881103515625 34.2309684753418 C 152.6794891357422 25.0 160.0 17.67949104309082 170.0 15.0 C 180.0 17.67949104309082 187.3205108642578 25.0 189.15870666503906 34.14167785644531" stroke-width="0.0" fill="rgb(28, 37, 27)" opacity="0.9900023"/>
    <path d="M 65.0 10.0 C 62.32050704956055 20.0 55.0 27.32050895690918 45.0 30.0 C 35.0 27.32050895690918 27.67949104309082 20.0 25.0 10.0 C 27.67949104309082 5.329070518200751e-15 35.0 -7.320508003234863 45.0 -10.0 C 55.0 -7.320508003234863 62.32050704956055 -8.881784197001252e-15 65.0 10.0" stroke-width="0.0" fill="rgb(47, 63, 43)" opacity="1.0"/>
    <path d="M 205.99957275390625 240.00131225585938 C 203.3205108642578 250.0 196.0 257.32049560546875 186.0 260.0 C 176.0 257.32049560546875 168.6794891357422 250.0 166.16134643554688 240.6775360107422 C 169.5931396484375 230.93792724609375 176.95565795898438 223.6498565673828 186.94793701171875 220.98338317871094 C 195.6759796142578 223.28041076660156 203.2974090576172 230.06802368164062 205.99957275390625 240.00131225585938" stroke-width="0.0" fill="rgb(78, 80, 73)" opacity="0.990016"/>
    <path d="M 205.99598693847656 27.98893928527832 C 203.19293212890625 37.70509719848633 195.3203125 44.457122802734375 185.1837921142578 47.013118743896484 C 176.6564483642578 44.49591827392578 168.98878479003906 37.5792236328125 166.07188415527344 27.907602310180664 C 168.6794891357422 18.0 176.0 10.679491996765137 186.0 8.0 C 196.0 10.679491996765137 203.3205108642578 18.0 205.99598693847656 27.98893928527832" stroke-width="0.0" fill="rgb(26, 31, 25)" opacity="0.9900294"/>
    <path d="M 81.08326721191406 11.937461853027344 C 78.32051086425781 22.0 71.0 29.32050895690918 61.01845169067383 31.943382263183594 C 51.00261306762695 29.31268882751465 43.67967224121094 21.999502182006836 41.00000762939453 11.999983787536621 C 43.67949295043945 2.0 51.0 -5.320508003234863 61.01823043823242 -8.0144624710083 C 71.08270263671875 -5.3855061531066895 78.45330810546875 1.896728754043579 81.08326721191406 11.937461853027344" stroke-width="0.0" fill="rgb(33, 45, 30)" opacity="1.0"/>
    <path d="M 77.0 241.0 C 74.32051086425781 251.0 67.0 258.32049560546875 56.344886779785156 261.6921691894531 C 46.19371032714844 259.1515808105469 38.926551818847656 251.7825164794922 36.572914123535156 241.46783447265625 C 39.67949295043945 231.0 47.0 223.6794891357422 57.0 221.0 C 67.0 223.6794891357422 74.32051086425781 231.0 77.0 241.0" stroke-width="0.0" fill="rgb(64, 59, 57)" opacity="0.9927664"/>
    <path d="M 126.0 237.0 C 123.32051086425781 247.0 116.0 254.3205108642578 106.0 257.0 C 96.0 254.3205108642578 88.67948913574219 247.0 86.0 237.0 C 88.67948913574219 227.0 96.0 219.6794891357422 106.0 217.0 C 116.0 219.6794891357422 123.32051086425781 227.0 126.0 237.0" stroke-width="0.0" fill="rgb(53, 57, 53)" opacity="1.0"/>
    <path d="M 195.01242065429688 21.027070999145508 C 192.49305725097656 31.32257843017578 185.5692901611328 39.08221435546875 175.78665161132812 41.92599868774414 C 164.99066162109375 38.352901458740234 157.6793670654297 31.000429153442383 155.0 21.000001907348633 C 157.6794891357422 11.0 165.0 3.6794919967651367 175.0 1.0 C 185.0 3.6794919967651367 192.3205108642578 11.0 195.01242065429688 21.027070999145508" stroke-width="0.0" fill="rgb(51, 61, 44)" opacity="1.0"/>
    <path d="M 237.0 244.0 C 234.3205108642578 254.0 227.0 261.32049560546875 217.0 264.0 C 207.0 261.32049560546875 199.6794891357422 254.0 197.0 244.0 C 199.6794891357422 234.0 207.0 226.6794891357422 217.0 224.0 C 227.0 226.6794891357422 234.3205108642578 234.0 237.0 244.0" stroke-width="0.0" fill="rgb(56, 55, 49)" opacity="1.0"/>
    <path d="M 220.88385009765625 32.818721771240234 C 218.2073974609375 42.77893829345703 209.81658935546875 48.487667083740234 199.28176879882812 51.0396614074707 C 189.08168029785156 50.17855453491211 181.73208618164062 42.93650436401367 179.10362243652344 32.876808166503906 C 182.6794891357422 22.0 190.0 14.679491996765137 200.0 12.0 C 210.0 14.679491996765137 217.3205108642578 22.0 220.88385009765625 32.818721771240234" stroke-width="0.0" fill="rgb(150, 155, 161)" opacity="1.0"/>
    <path d="M 120.0 251.0 C 117.32051086425781 261.0 110.0 268.32049560546875 100.0 271.0 C 90.0 268.32049560546875 82.67948913574219 261.0 80.0 251.0 C 82.67948913574219 241.0 90.0 233.6794891357422 100.0 231.0 C 110.0 233.6794891357422 117.32051086425781 241.0 120.0 251.0" stroke-width="0.0" fill="rgb(70, 64, 62)" opacity="1.0"/>
    <path d="M 58.0 2.0 C 55.32050704956055 12.0 48.0 19.32050895690918 38.0 22.0 C 28.0 19.32050895690918 20.67949104309082 12.0 18.0 2.0 C 20.67949104309082 -8.0 28.0 -15.320508003234863 38.0 -18.0 C 48.0 -15.320508003234863 55.32050704956055 -8.0 58.0 2.0" stroke-width="0.0" fill="rgb(66, 83, 63)" opacity="0.9952095"/>
    <path d="M 111.0 249.0 C 108.32051086425781 259.0 101.0 266.32049560546875 91.0 269.0 C 81.0 266.32049560546875 73.67948913574219 259.0 71.0 249.0 C 73.67948913574219 239.0 81.0 231.6794891357422 91.0 229.0 C 101.0 231.6794891357422 108.32051086425781 239.0 111.0 249.0" stroke-width="0.0" fill="rgb(53, 48, 45)" opacity="1.0"/>
    <path d="M 129.0 241.0 C 126.32051086425781 251.0 119.0 258.32049560546875 108.99970245361328 261.0006103515625 C 99.00025177001953 258.3207702636719 91.68033599853516 250.99942016601562 89.00037384033203 240.99966430664062 C 91.67948913574219 231.0 99.0 223.6794891357422 109.0 221.0 C 119.0 223.6794891357422 126.32051086425781 231.0 129.0 241.0" stroke-width="0.0" fill="rgb(54, 53, 51)" opacity="0.9978453"/>
    <path d="M 255.0 11.0 C 252.3205108642578 21.0 245.0 28.32050895690918 235.0 31.0 C 225.0 28.32050895690918 217.6794891357422 21.0 215.0 11.0 C 217.6794891357422 1.0 225.0 -6.320508003234863 235.0 -9.0 C 245.0 -6.320508003234863 252.3205108642578 1.0 255.0 11.0" stroke-width="0.0" fill="rgb(25, 35, 23)" opacity="1.0"/>
    <path d="M 94.99237060546875 251.0015411376953 C 92.33238983154297 261.0069274902344 85.00393676757812 268.32244873046875 75.00029754638672 271.0001525878906 C 64.99977111816406 268.3205871582031 57.678260803222656 261.00054931640625 54.99774932861328 251.00100708007812 C 57.67949295043945 241.0 65.0 233.6794891357422 75.0 231.0 C 85.0 233.6794891357422 92.32051086425781 241.0 94.99237060546875 251.0015411376953" stroke-width="0.0" fill="rgb(56, 60, 49)" opacity="1.0"/>
    <path d="M 144.0001678466797 250.0000762939453 C 141.32064819335938 260.00006103515625 134.00003051757812 267.3205261230469 124.00228118896484 269.9989318847656 C 114.0328598022461 267.3050537109375 106.83106994628906 259.9253845214844 104.24919891357422 249.8720703125 C 106.67948913574219 240.0 114.0 232.6794891357422 124.0 230.0 C 134.0 232.6794891357422 141.3205108642578 240.0 144.0001678466797 250.0000762939453" stroke-width="0.0" fill="rgb(42, 43, 32)" opacity="0.99106866"/>
    <path d="M 70.76144409179688 237.3077850341797 C 68.23165130615234 246.872314453125 60.813602447509766 254.04476928710938 50.386932373046875 257.6718444824219 C 40.45693588256836 255.00877380371094 33.42230987548828 247.39187622070312 31.069490432739258 237.22274780273438 C 34.28240203857422 227.7659454345703 41.89332580566406 220.63067626953125 51.85710144042969 217.9916229248047 C 60.117408752441406 220.6175537109375 67.6270523071289 227.79298400878906 70.76144409179688 237.3077850341797" stroke-width="0.0" fill="rgb(38, 41, 33)" opacity="0.99001724"/>
    <path d="M 267.99639892578125 4.9942522048950195 C 265.2943115234375 14.958741188049316 257.9374694824219 22.224010467529297 247.94769287109375 24.918798446655273 C 238.0 22.32050895690918 230.6794891357422 15.0 228.0 5.0 C 230.6794891357422 -5.0 238.0 -12.320508003234863 248.0 -15.0 C 258.0 -12.320508003234863 265.32049560546875 -5.0 267.99639892578125 4.9942522048950195" stroke-width="0.0" fill="rgb(52, 64, 45)" opacity="1.0"/>
    <path d="M 191.0 251.99998474121094 C 188.3205108642578 262.0 181.0 269.32049560546875 171.0004119873047 271.9998474121094 C 161.0102996826172 269.3164978027344 153.7803497314453 261.9610595703125 151.4443817138672 251.81578063964844 C 153.73086547851562 241.9912109375 160.64292907714844 234.02066040039062 170.25616455078125 231.10313415527344 C 181.006591796875 234.65921020507812 188.3208465576172 241.99896240234375 191.0 251.99998474121094" stroke-width="0.0" fill="rgb(66, 67, 59)" opacity="1.0"/>
    <path d="M 168.0 5.0 C 165.3205108642578 15.0 158.0 22.32050895690918 148.0 25.0 C 138.0 22.32050895690918 130.6794891357422 15.0 128.0 5.0 C 130.6794891357422 -5.0 138.0 -12.320508003234863 148.0 -15.0 C 158.0 -12.320508003234863 165.3205108642578 -5.0 168.0 5.0" stroke-width="0.0" fill="rgb(39, 52, 34)" opacity="1.0"/>
    <path d="M 90.97425842285156 237.05555725097656 C 88.3203353881836 246.99954223632812 80.99856567382812 254.31686401367188 71.04122924804688 256.8049011230469 C 60.74848175048828 254.45782470703125 53.30521011352539 247.3176727294922 50.20328140258789 236.26473999023438 C 52.79102325439453 226.12269592285156 60.129878997802734 218.8136749267578 70.07524108886719 217.9677734375 C 80.2512435913086 220.55966186523438 88.01094055175781 227.5082550048828 90.97425842285156 237.05555725097656" stroke-width="0.0" fill="rgb(84, 68, 66)" opacity="1.0"/>
    <path d="M 162.99900817871094 27.99704933166504 C 160.2735595703125 37.86986541748047 152.51358032226562 44.57326889038086 142.172119140625 47.0242805480957 C 133.14320373535156 44.95256423950195 125.68252563476562 37.98957443237305 123.0000228881836 27.999929428100586 C 125.67948913574219 18.0 133.0 10.679491996765137 143.0 8.0 C 153.0 10.679491996765137 160.3205108642578 18.0 162.99900817871094 27.99704933166504" stroke-width="0.0" fill="rgb(35, 47, 41)" opacity="0.990234"/>
    <path d="M 140.29676818847656 232.7542724609375 C 138.3205108642578 242.0 131.0 249.3205108642578 121.0 252.0 C 111.0 249.3205108642578 103.67948913574219 242.0 101.00028991699219 232.0009307861328 C 103.6998062133789 222.0624237060547 111.35478210449219 215.3213348388672 120.04306030273438 212.987548828125 C 130.03741455078125 215.6558837890625 137.3963165283203 222.945068359375 140.29676818847656 232.7542724609375" stroke-width="0.0" fill="rgb(46, 52, 45)" opacity="0.9900291"/>
    <path d="M 159.0 18.0 C 156.3205108642578 28.0 149.0 35.32050704956055 139.0 38.0 C 129.0 35.32050704956055 121.67948913574219 28.0 119.0 18.0 C 121.67948913574219 8.0 129.0 0.6794919371604919 139.0 -2.0 C 149.0 0.6794919371604919 156.3205108642578 8.0 159.0 18.0" stroke-width="0.0" fill="rgb(16, 18, 22)" opacity="1.0"/>
    <path d="M 142.03907775878906 233.94561767578125 C 139.3205108642578 244.0 132.0 251.3205108642578 122.0 254.0 C 112.0 251.3205108642578 104.67948913574219 244.0 102.0 234.0 C 104.67948913574219 224.0 112.0 216.6794891357422 122.43744659423828 213.3712921142578 C 132.38067626953125 216.16343688964844 139.5189666748047 223.72634887695312 142.03907775878906 233.94561767578125" stroke-width="0.0" fill="rgb(53, 53, 46)" opacity="1.0"/>
    <path d="M 172.06626892089844 30.065166473388672 C 169.25631713867188 39.55558395385742 161.20504760742188 46.40355682373047 152.57533264160156 49.0112190246582 C 142.85482788085938 46.388614654541016 135.1984100341797 39.302181243896484 132.07298278808594 29.861196517944336 C 134.6794891357422 20.0 142.0 12.679491996765137 152.0 10.0 C 162.0 12.679491996765137 169.3205108642578 20.0 172.06626892089844 30.065166473388672" stroke-width="0.0" fill="rgb(46, 53, 42)" opacity="0.9900134"/>
    <path d="M 162.8214569091797 235.2563018798828 C 159.650634765625 246.2818145751953 152.26853942871094 253.61138916015625 142.01327514648438 256.4836730957031 C 131.92074584960938 253.50543212890625 124.67826080322266 246.02145385742188 121.87335968017578 235.817626953125 C 124.17291259765625 225.371826171875 131.24598693847656 217.8267364501953 142.63504028320312 215.0382843017578 C 152.89251708984375 217.76287841796875 160.20838928222656 225.11866760253906 162.8214569091797 235.2563018798828" stroke-width="0.0" fill="rgb(63, 62, 57)" opacity="1.0"/>
    <path d="M 25.03252601623535 23.873199462890625 C 24.28728675842285 33.970001220703125 16.973840713500977 41.2993049621582 6.949832916259766 43.97505569458008 C -4.446930408477783 40.96581268310547 -11.45621395111084 33.250308990478516 -14.01122760772705 23.023046493530273 C -11.320508003234863 13.0 -4.0 5.679491996765137 5.998806953430176 3.0003902912139893 C 15.936613082885742 5.700875282287598 22.727577209472656 13.315376281738281 25.03252601623535 23.873199462890625" stroke-width="0.0" fill="rgb(208, 210, 219)" opacity="1.0"/>
    <path d="M 235.0 253.0 C 232.3205108642578 263.0 225.0 270.32049560546875 215.0 273.0 C 205.0 270.32049560546875 197.6794891357422 263.0 195.0 253.0 C 197.6794891357422 243.0 205.0 235.6794891357422 215.0 233.0 C 225.0 235.6794891357422 232.3205108642578 243.0 235.0 253.0" stroke-width="0.0" fill="rgb(59, 65, 54)" opacity="1.0"/>
    <path d="M 137.0 25.0 C 134.3205108642578 35.0 127.0 42.32050704956055 117.0 45.0 C 107.0 42.32050704956055 99.67948913574219 35.0 97.0 25.0 C 99.67948913574219 15.0 107.0 7.679491996765137 117.0 5.0 C 127.0 7.679491996765137 134.3205108642578 15.0 137.0 25.0" stroke-width="0.0" fill="rgb(20, 27, 17)" opacity="1.0"/>
    <path d="M 69.79566955566406 9.115296363830566 C 67.32051086425781 19.0 60.0 26.32050895690918 50.0 29.0 C 40.0 26.32050895690918 32.67949295043945 19.0 29.97405433654785 8.988274574279785 C 32.665916442871094 -1.0043100118637085 40.0 -8.319130897521973 49.99605178833008 -10.997198104858398 C 59.9500732421875 -8.294193267822266 67.15581512451172 -0.9073776602745056 69.79566955566406 9.115296363830566" stroke-width="0.0" fill="rgb(50, 73, 40)" opacity="0.99073297"/>
    <path d="M 131.0 16.0 C 128.3205108642578 26.0 121.0 33.32050704956055 111.0 36.0 C 101.0 33.32050704956055 93.67948913574219 26.0 91.32440948486328 16.22804069519043 C 94.04194641113281 6.265072822570801 101.18749237060547 -1.2054376602172852 111.0190658569336 -4.003188133239746 C 121.0 -1.3205081224441528 128.3205108642578 6.0 131.0 16.0" stroke-width="0.0" fill="rgb(72, 76, 67)" opacity="0.9901735"/>
    <path d="M 268.9208068847656 39.11106491088867 C 266.2294616699219 48.83930969238281 258.79278564453125 56.084232330322266 248.46429443359375 59.909996032714844 C 238.55543518066406 56.950923919677734 231.5053253173828 49.272396087646484 228.9735870361328 39.040245056152344 C 231.6794891357422 29.0 239.0 21.67949104309082 248.25076293945312 19.8472957611084 C 258.275390625 22.50910186767578 265.8827819824219 29.58941078186035 268.9208068847656 39.11106491088867" stroke-width="0.0" fill="rgb(230, 231, 236)" opacity="0.9902114"/>
    <path d="M 183.50474548339844 25.494972229003906 C 180.55648803710938 35.220314025878906 173.1988067626953 42.48959732055664 164.3966064453125 45.081356048583984 C 154.6436767578125 42.5302619934082 146.97889709472656 35.541900634765625 144.03616333007812 25.93309211730957 C 146.6794891357422 16.0 154.0 8.679491996765137 164.0 6.0 C 174.0 8.679491996765137 181.3205108642578 16.0 183.50474548339844 25.494972229003906" stroke-width="0.0" fill="rgb(23, 34, 22)" opacity="0.9900514"/>
    <path d="M 234.0 14.0 C 231.3205108642578 24.0 224.0 31.32050895690918 214.0 34.0 C 204.0 31.32050895690918 196.6794891357422 24.0 194.0 14.0 C 196.6794891357422 4.0 204.0 -3.3205080032348633 214.0 -6.0 C 224.0 -3.3205080032348633 231.3205108642578 4.0 234.0 14.0" stroke-width="0.0" fill="rgb(11, 17, 14)" opacity="1.0"/>
    <path d="M 171.0 23.0 C 168.3205108642578 33.0 161.0 40.32050704956055 151.0 43.0 C 141.0 40.32050704956055 133.6794891357422 33.0 131.0 23.0 C 133.6794891357422 13.0 141.0 5.679491996765137 151.0 3.0 C 161.0 5.679491996765137 168.3205108642578 13.0 171.0 23.0" stroke-width="0.0" fill="rgb(16, 26, 14)" opacity="1.0"/>
    <path d="M 163.0 0.0 C 160.3205108642578 10.0 153.0 17.32050895690918 143.0 20.0 C 133.0 17.32050895690918 125.67948913574219 10.0 123.0 2.4492935992912173e-15 C 125.67948913574219 -10.0 133.0 -17.32050895690918 143.0 -20.0 C 153.0 -17.32050895690918 160.3205108642578 -10.0 163.0 0.0" stroke-width="0.0" fill="rgb(17, 27, 15)" opacity="1.0"/>
    <path d="M 221.0 18.0 C 218.3205108642578 27.999980926513672 210.99850463867188 35.314998626708984 201.8564453125 37.04682922363281 C 191.43466186523438 34.61848449707031 183.7229766845703 27.882160186767578 181.0010986328125 17.99686050415039 C 183.6794891357422 8.0 191.0 0.6794919371604919 201.0 -2.0 C 211.0 0.6794919371604919 218.3205108642578 8.0 221.0 18.0" stroke-width="0.0" fill="rgb(59, 64, 57)" opacity="0.9908899"/>
    <path d="M 173.0 5.0 C 170.3205108642578 15.0 163.0 22.32050895690918 153.0 25.0 C 143.0 22.32050895690918 135.6794891357422 15.0 133.0 5.0 C 135.6794891357422 -5.0 143.0 -12.320508003234863 153.0 -15.0 C 163.0 -12.320508003234863 170.3205108642578 -5.0 173.0 5.0" stroke-width="0.0" fill="rgb(67, 88, 55)" opacity="1.0"/>
    <path d="M 207.6269989013672 21.522705078125 C 204.51026916503906 31.12506103515625 197.0753936767578 38.363182067871094 187.07400512695312 41.01765823364258 C 177.5966033935547 39.02649688720703 170.32040405273438 32.473331451416016 167.9659423828125 22.09653663635254 C 170.67955017089844 12.000204086303711 178.0011749267578 4.683102130889893 188.0043487548828 2.0333430767059326 C 197.99977111816406 4.680259704589844 205.32049560546875 12.000025749206543 207.6269989013672 21.522705078125" stroke-width="0.0" fill="rgb(54, 60, 52)" opacity="0.9900192"/>
    <path d="M 153.0 13.0 C 150.3205108642578 23.0 143.0 30.32050895690918 133.000732421875 32.99974060058594 C 123.02806854248047 30.31062889099121 115.99293518066406 22.868066787719727 113.78269958496094 12.52121353149414 C 115.68358612060547 3.0011308193206787 123.00003051757812 -4.320500373840332 133.0 -7.0 C 143.0 -4.320508003234863 150.3205108642578 3.0 153.0 13.0" stroke-width="0.0" fill="rgb(14, 18, 16)" opacity="0.99226433"/>
    <path d="M 96.9988021850586 23.99995994567871 C 94.26544189453125 33.851768493652344 86.49040222167969 40.55819320678711 77.922119140625 43.011566162109375 C 67.90084838867188 40.3751220703125 60.494869232177734 33.15526580810547 57.58734130859375 23.422021865844727 C 59.68086624145508 14.019468307495117 67.04196166992188 6.755289554595947 76.9111099243164 4.295292854309082 C 86.90287017822266 6.847005844116211 94.29312133789062 14.054019927978516 96.9988021850586 23.99995994567871" stroke-width="0.0" fill="rgb(36, 48, 32)" opacity="0.990022"/>
    <path d="M 170.0 7.0 C 167.3205108642578 17.0 160.0 24.32050895690918 150.0 27.0 C 140.0 24.32050895690918 132.6794891357422 17.0 130.0 7.0 C 132.6794891357422 -3.0 140.0 -10.320508003234863 150.0 -13.0 C 160.0 -10.320508003234863 167.3205108642578 -3.0 170.0 7.0" stroke-width="0.0" fill="rgb(32, 46, 29)" opacity="1.0"/>
    <path d="M 191.10476684570312 13.078375816345215 C 188.51795959472656 23.186132431030273 181.18670654296875 30.521991729736328 171.0509490966797 33.50279998779297 C 160.97906494140625 30.380918502807617 153.6781005859375 23.004032135009766 150.99996948242188 13.000100135803223 C 153.6794891357422 3.0 161.0 -4.320508003234863 170.9915008544922 -6.9910736083984375 C 180.98129272460938 -4.297661304473877 188.31924438476562 3.012354612350464 191.10476684570312 13.078375816345215" stroke-width="0.0" fill="rgb(38, 50, 34)" opacity="1.0"/>
    <path d="M 224.0 14.0 C 221.3205108642578 24.0 214.0 31.32050895690918 204.00189208984375 33.99843215942383 C 194.0121307373047 31.312681198120117 186.70838928222656 23.98152732849121 184.0 13.960015296936035 C 186.62254333496094 3.963402032852173 193.9758758544922 -3.3358891010284424 203.99659729003906 -6.002188682556152 C 214.0 -3.3205080032348633 221.3205108642578 4.0 224.0 14.0" stroke-width="0.0" fill="rgb(45, 55, 44)" opacity="1.0"/>
    <path d="M 31.871286392211914 7.060419082641602 C 29.32600212097168 17.0047607421875 22.00420379638672 24.32415199279785 12.00107479095459 27.000930786132812 C 2.0 24.32050895690918 -5.320508003234863 17.0 -8.0 7.0 C -5.320508003234863 -3.0 2.0 -10.320508003234863 11.998929023742676 -12.999443054199219 C 21.986757278442383 -10.313946723937988 29.256765365600586 -2.969942569732666 31.871286392211914 7.060419082641602" stroke-width="0.0" fill="rgb(39, 46, 36)" opacity="0.9932923"/>
    <path d="M 267.7269592285156 217.3996124267578 C 265.32049560546875 227.0 258.0 234.3205108642578 248.0 237.0 C 238.0 234.3205108642578 230.6794891357422 227.0 227.13088989257812 216.19671630859375 C 229.7899169921875 206.15321350097656 237.2754669189453 200.36318969726562 247.05418395996094 197.99099731445312 C 257.0659484863281 200.646240234375 264.53497314453125 207.87269592285156 267.7269592285156 217.3996124267578" stroke-width="0.0" fill="rgb(39, 33, 33)" opacity="0.99002707"/>
    <path d="M 26.888572692871094 18.72080421447754 C 22.454816818237305 27.062185287475586 15.039604187011719 34.3461799621582 5.067500114440918 37.011051177978516 C -3.189800977706909 34.409942626953125 -10.90821361541748 27.387361526489258 -13.957721710205078 17.91264533996582 C -11.319565773010254 8.001864433288574 -3.996259927749634 0.6868780255317688 5.789838790893555 -1.7102769613265991 C 15.63833999633789 1.0656310319900513 22.85816192626953 8.387343406677246 26.888572692871094 18.72080421447754" stroke-width="0.0" fill="rgb(58, 75, 50)" opacity="0.9900044"/>
    <path d="M 99.98546600341797 238.0516815185547 C 97.32720184326172 247.99252319335938 89.96748352050781 255.24459838867188 79.67232513427734 258.3525085449219 C 69.59886932373047 255.79994201660156 62.50754928588867 248.3165283203125 60.91164779663086 238.8583526611328 C 63.615196228027344 228.9287567138672 70.9366455078125 221.63372802734375 80.7857666015625 218.98951721191406 C 89.22889709472656 221.57626342773438 97.01982879638672 228.51219177246094 99.98546600341797 238.0516815185547" stroke-width="0.0" fill="rgb(45, 39, 39)" opacity="0.99000895"/>
    <path d="M 112.95573425292969 30.66720199584961 C 109.77118682861328 40.36793518066406 102.27593231201172 47.507835388183594 93.88113403320312 50.0413818359375 C 83.94493103027344 47.362586975097656 76.58922576904297 40.06947326660156 73.46563720703125 30.306474685668945 C 75.7295150756836 21.051013946533203 83.05858612060547 13.75473403930664 93.53858184814453 10.279597282409668 C 103.51055145263672 13.058080673217773 110.70513153076172 20.571462631225586 112.95573425292969 30.66720199584961" stroke-width="0.0" fill="rgb(44, 48, 39)" opacity="0.9900375"/>
    <path d="M 177.452392578125 7.911964416503906 C 175.05303955078125 17.820972442626953 167.8753662109375 25.226831436157227 157.9739227294922 27.97900390625 C 148.0 25.32050895690918 140.6794891357422 18.0 138.0 8.0 C 140.6794891357422 -2.0 148.0 -9.320508003234863 157.98960876464844 -11.994032859802246 C 167.91175842285156 -9.268722534179688 175.08685302734375 -1.8546098470687866 177.452392578125 7.911964416503906" stroke-width="0.0" fill="rgb(50, 69, 41)" opacity="0.9904564"/>
    <path d="M 249.46824645996094 4.9170918464660645 C 247.1675262451172 14.901891708374023 239.93222045898438 22.268848419189453 229.98614501953125 24.9896183013916 C 220.0 22.32050895690918 212.6794891357422 15.0 209.84213256835938 4.929888725280762 C 212.60870361328125 -5.030332088470459 219.9890899658203 -12.325119972229004 229.9983673095703 -14.99979019165039 C 239.98011779785156 -12.312026023864746 247.19688415527344 -4.945365905761719 249.46824645996094 4.9170918464660645" stroke-width="0.0" fill="rgb(20, 32, 16)" opacity="0.9902201"/>
    <path d="M 230.31288146972656 22.115171432495117 C 227.326171875 31.445798873901367 219.1722869873047 38.394615173339844 210.87913513183594 41.010963439941406 C 200.92767333984375 38.360313415527344 193.5002899169922 31.121971130371094 190.47540283203125 21.4923095703125 C 192.66795349121094 11.889565467834473 199.7849884033203 4.332502365112305 209.6151885986328 1.5349704027175903 C 219.8421173095703 4.890085220336914 227.28378295898438 12.108338356018066 230.31288146972656 22.115171432495117" stroke-width="0.0" fill="rgb(40, 42, 39)" opacity="0.9900095"/>
    <path d="M 139.72328186035156 33.595252990722656 C 136.5323486328125 43.126258850097656 129.0662841796875 50.3542594909668 120.94966125488281 53.005531311035156 C 110.9819564819336 50.333045959472656 103.65511322021484 43.02267837524414 100.96542358398438 33.0592041015625 C 103.2081069946289 24.45754623413086 110.45889282226562 17.208587646484375 120.35751342773438 14.47352123260498 C 130.0 16.67949104309082 137.3205108642578 24.0 139.72328186035156 33.595252990722656" stroke-width="0.0" fill="rgb(10, 11, 11)" opacity="0.9900028"/>
    <path d="M 209.9990997314453 240.0026397705078 C 207.3205108642578 250.0 200.0 257.32049560546875 190.00283813476562 259.9974365234375 C 179.98678588867188 257.318115234375 172.5633544921875 250.04928588867188 170.36978149414062 240.5897674560547 C 173.49488830566406 230.8350067138672 180.87168884277344 223.59266662597656 190.88876342773438 220.98081970214844 C 199.59619140625 223.35263061523438 207.28135681152344 230.10836791992188 209.9990997314453 240.0026397705078" stroke-width="0.0" fill="rgb(63, 62, 52)" opacity="0.9900465"/>
    <path d="M 118.9941635131836 235.0443115234375 C 116.36813354492188 245.05885314941406 109.0090560913086 252.18844604492188 99.46002197265625 254.1847381591797 C 89.63007354736328 251.62445068359375 82.36998748779297 244.37364196777344 78.05804443359375 234.0669708251953 C 80.72179412841797 224.05882263183594 88.0865707397461 216.89588928222656 98.51651000976562 215.9796905517578 C 108.32453918457031 218.5208740234375 116.10309600830078 225.40036010742188 118.9941635131836 235.0443115234375" stroke-width="0.0" fill="rgb(106, 94, 86)" opacity="0.9910253"/>
    <path d="M 171.33621215820312 25.457210540771484 C 169.03564453125 35.75740051269531 161.79751586914062 43.16051483154297 151.724365234375 45.517303466796875 C 141.09213256835938 42.10146713256836 133.68931579589844 34.974544525146484 131.00038146972656 24.999027252197266 C 133.67950439453125 15.000066757202148 141.00140380859375 7.684444904327393 150.7555389404297 5.466683864593506 C 160.67591857910156 8.064342498779297 168.03619384765625 15.292959213256836 171.33621215820312 25.457210540771484" stroke-width="0.0" fill="rgb(41, 52, 37)" opacity="1.0"/>
    <path d="M 235.41622924804688 228.38600158691406 C 233.3205108642578 238.0 226.0 245.3205108642578 216.0 248.0 C 206.0 245.3205108642578 198.6794891357422 238.0 195.97877502441406 227.95700073242188 C 198.4464111328125 217.60452270507812 205.3778839111328 209.88816833496094 216.79342651367188 207.03408813476562 C 226.85177612304688 209.76116943359375 233.40672302246094 217.287353515625 235.41622924804688 228.38600158691406" stroke-width="0.0" fill="rgb(106, 99, 92)" opacity="1.0"/>
    <path d="M 266.98968505859375 239.02786254882812 C 264.34521484375 249.0380859375 257.0565490722656 256.4064025878906 247.0454559326172 259.0697326660156 C 237.0 256.32049560546875 229.6794891357422 249.0 227.007080078125 239.01382446289062 C 229.759521484375 229.15040588378906 237.2859344482422 222.1438446044922 247.21188354492188 219.77304077148438 C 256.73248291015625 222.08815002441406 264.2173767089844 229.16554260253906 266.98968505859375 239.02786254882812" stroke-width="0.0" fill="rgb(62, 61, 58)" opacity="0.99021274"/>
    <path d="M 140.31629943847656 237.84117126464844 C 137.30914306640625 247.9728546142578 129.96897888183594 255.295166015625 119.92813110351562 258.1168518066406 C 109.90282440185547 255.44715881347656 102.53958892822266 248.10116577148438 99.86119842529297 238.0830535888672 C 102.67948913574219 228.0 110.0 220.6794891357422 120.0135726928711 217.99046325683594 C 130.0906219482422 220.62112426757812 137.558349609375 227.85302734375 140.31629943847656 237.84117126464844" stroke-width="0.0" fill="rgb(50, 54, 44)" opacity="0.993367"/>
    <path d="M 58.78981018066406 236.2998504638672 C 55.90125274658203 247.73146057128906 48.85813903808594 255.24880981445312 38.95191955566406 257.9242248535156 C 28.96628189086914 253.35446166992188 21.65781593322754 246.02906799316406 18.99172019958496 236.27011108398438 C 21.657590866088867 227.97264099121094 28.972431182861328 220.6571807861328 38.94102478027344 217.98902893066406 C 48.736637115478516 220.44769287109375 56.19640350341797 226.1483154296875 58.78981018066406 236.2998504638672" stroke-width="0.0" fill="rgb(68, 68, 63)" opacity="0.99000156"/>
    <path d="M 154.82052612304688 25.906686782836914 C 152.24148559570312 35.96427917480469 144.98580932617188 43.314239501953125 134.99916076660156 45.999629974365234 C 125.00007629394531 43.32048416137695 117.68811798095703 35.997589111328125 114.45494842529297 25.57102394104004 C 117.2833251953125 15.776451110839844 124.89561462402344 8.627839088439941 135.00245666503906 5.984940528869629 C 145.02011108398438 8.65248966217041 152.3395233154297 15.98300838470459 154.82052612304688 25.906686782836914" stroke-width="0.0" fill="rgb(47, 55, 48)" opacity="0.9914631"/>
    <path d="M 257.0073547363281 240.88348388671875 C 254.26809692382812 251.00103759765625 247.03805541992188 258.3895263671875 237.0329132080078 261.0423889160156 C 227.0 258.32049560546875 219.6794891357422 251.0 216.99942016601562 240.99864196777344 C 219.6694793701172 230.9776611328125 226.95538330078125 223.59584045410156 237.05735778808594 221.34788513183594 C 247.20330810546875 223.44781494140625 254.51821899414062 230.80747985839844 257.0073547363281 240.88348388671875" stroke-width="0.0" fill="rgb(53, 59, 48)" opacity="1.0"/>
    <path d="M 153.77723693847656 32.682373046875 C 151.05043029785156 41.43313980102539 142.11288452148438 48.368167877197266 132.05084228515625 51.01382827758789 C 122.05128479003906 50.26433563232422 114.71611022949219 42.95487976074219 112.04512786865234 32.928260803222656 C 115.60240173339844 21.97947120666504 123.00814056396484 14.697046279907227 132.99728393554688 12.01396656036377 C 142.95741271972656 14.712984085083008 150.23158264160156 22.059022903442383 153.77723693847656 32.682373046875" stroke-width="0.0" fill="rgb(57, 60, 62)" opacity="0.99005467"/>
    <path d="M 150.34649658203125 6.5219316482543945 C 147.75177001953125 16.52532196044922 140.55723571777344 23.828763961791992 130.3896026611328 26.780296325683594 C 120.53719329833984 24.91809844970703 113.938232421875 17.248661041259766 111.7486801147461 6.608023643493652 C 113.392578125 -3.1873111724853516 120.8830337524414 -10.387043952941895 130.99176025390625 -13.009312629699707 C 141.05152893066406 -10.34721565246582 148.4979705810547 -3.098313093185425 150.34649658203125 6.5219316482543945" stroke-width="0.0" fill="rgb(11, 12, 13)" opacity="0.99005365"/>
    <path d="M 134.77915954589844 230.674560546875 C 132.2120361328125 240.99310302734375 125.07861328125 248.48497009277344 114.96642303466797 251.29779052734375 C 104.56368255615234 248.7230987548828 97.26322937011719 241.4426727294922 95.9488296508789 231.91456604003906 C 98.63958740234375 221.95797729492188 105.96428680419922 214.6542205810547 115.95146942138672 211.98878479003906 C 125.0296630859375 214.4178924560547 132.86863708496094 220.4669952392578 134.77915954589844 230.674560546875" stroke-width="0.0" fill="rgb(53, 69, 52)" opacity="0.99001"/>
    <path d="M 246.14559936523438 239.9036407470703 C 243.26866149902344 249.94544982910156 235.94290161132812 257.2596435546875 225.97674560546875 259.97314453125 C 216.0 257.32049560546875 208.6794891357422 250.0 205.9998779296875 239.99964904785156 C 208.67408752441406 229.98410034179688 215.91738891601562 222.4645538330078 226.4181671142578 219.1590576171875 C 236.38241577148438 222.11917114257812 243.5191192626953 229.7537384033203 246.14559936523438 239.9036407470703" stroke-width="0.0" fill="rgb(53, 56, 45)" opacity="1.0"/>
    <path d="M 66.135009765625 16.607505798339844 C 62.62088394165039 26.17686653137207 55.08469009399414 33.36066818237305 45.12488555908203 36.00843048095703 C 36.90050506591797 33.37105178833008 29.366497039794922 26.189210891723633 26.121173858642578 16.743228912353516 C 28.715261459350586 6.999648094177246 35.96280288696289 -0.40436041355133057 45.951629638671875 -3.0528178215026855 C 56.159889221191406 -0.4050511121749878 63.64729690551758 6.7653889656066895 66.135009765625 16.607505798339844" stroke-width="0.0" fill="rgb(34, 45, 35)" opacity="0.99000955"/>
    <path d="M 228.32882690429688 229.87908935546875 C 225.47573852539062 240.1065673828125 218.0772247314453 247.37893676757812 208.01495361328125 250.01344299316406 C 197.98789978027344 247.32684326171875 190.63876342773438 240.02230834960938 188.82791137695312 230.8443603515625 C 191.62725830078125 220.95452880859375 198.9633331298828 213.65260314941406 208.9310760498047 210.97775268554688 C 217.27511596679688 213.5417938232422 225.47190856933594 220.4349365234375 228.32882690429688 229.87908935546875" stroke-width="0.0" fill="rgb(63, 69, 59)" opacity="0.9900085"/>
    <path d="M 261.4131164550781 34.4841423034668 C 258.7210693359375 43.34915542602539 251.2808380126953 50.52476501464844 241.7825469970703 53.08628845214844 C 232.69989013671875 50.53394317626953 223.8596649169922 43.97228240966797 221.01986694335938 34.903350830078125 C 225.61541748046875 24.947946548461914 232.95791625976562 17.647891998291016 242.8828887939453 14.9855318069458 C 251.08590698242188 17.621780395507812 258.476806640625 24.881488800048828 261.4131164550781 34.4841423034668" stroke-width="0.0" fill="rgb(187, 188, 194)" opacity="0.9900052"/>
    <path d="M 225.76068115234375 251.95985412597656 C 223.29583740234375 261.9912414550781 215.99795532226562 269.3197021484375 206.00015258789062 271.9998779296875 C 196.00514221191406 269.31842041015625 188.71861267089844 261.98419189453125 186.09710693359375 251.94784545898438 C 188.6685333251953 241.99913024902344 196.00474548339844 234.6875 205.9802703857422 232.08433532714844 C 216.03736877441406 234.6785888671875 223.39598083496094 241.9402618408203 225.76068115234375 251.95985412597656" stroke-width="0.0" fill="rgb(64, 62, 53)" opacity="0.9906913"/>
  </g>
</svg>
