<?xml version="1.0" ?>
<svg xmlns="http://www.w3.org/2000/svg" version="1.1" width="256" height="256">
  <defs/>
  <g>
    <path d="M 159.0 98.0 C 156.3205108642578 108.0 149.0 115.32051086425781 139.0 118.0 C 129.0 115.32051086425781 121.67948913574219 108.0 119.0 98.0 C 121.67948913574219 88.0 129.0 80.67948913574219 139.0 78.0 C 149.0 80.67948913574219 156.3205108642578 88.0 159.0 98.0" stroke-width="0.0" fill="rgb(32, 32, 31)" opacity="1.0"/>
    <path d="M 127.0 228.0 C 124.32051086425781 238.0 117.0 245.3205108642578 107.00487518310547 247.9972686767578 C 97.03591918945312 245.29762268066406 89.67733001708984 237.96884155273438 86.71307373046875 228.10252380371094 C 89.67948913574219 218.0 97.0 210.6794891357422 107.0 208.0 C 117.0 210.6794891357422 124.32051086425781 218.0 127.0 228.0" stroke-width="0.0" fill="rgb(200, 200, 200)" opacity="0.99421406"/>
    <path d="M 235.0 157.0 C 232.3205108642578 167.0 225.0 174.3205108642578 215.0 177.0 C 205.0 174.3205108642578 197.6794891357422 167.0 195.0 157.0 C 197.6794891357422 147.0 205.0 139.6794891357422 215.0 137.0 C 225.0 139.6794891357422 232.3205108642578 147.0 235.0 157.0" stroke-width="0.0" fill="rgb(3, 3, 3)" opacity="0.99137765"/>
    <path d="M 236.74557495117188 179.67872619628906 C 233.54310607910156 188.68081665039062 225.5138702392578 195.7484893798828 215.6446990966797 198.60000610351562 C 206.0 196.3205108642578 198.6794891357422 189.0 196.0 179.0 C 198.6794891357422 169.0 206.0 161.6794891357422 215.90782165527344 159.0602264404297 C 225.5595245361328 162.00375366210938 232.63568115234375 169.5624237060547 236.74557495117188 179.67872619628906" stroke-width="0.0" fill="rgb(242, 242, 241)" opacity="0.9901124"/>
    <path d="M 189.0 78.0 C 186.3205108642578 88.0 179.0 95.32051086425781 169.0 98.0 C 159.0 95.32051086425781 151.6794891357422 88.0 149.0 78.0 C 151.6794891357422 68.0 159.0 60.67949295043945 169.0 58.0 C 179.0 60.67949295043945 186.3205108642578 68.0 189.0 78.0" stroke-width="0.0" fill="rgb(253, 253, 253)" opacity="1.0"/>
    <path d="M 98.82783508300781 0.7042780518531799 C 96.11555480957031 10.7349214553833 88.65095520019531 17.754762649536133 78.8125228881836 19.047279357910156 C 68.3499984741211 16.75556755065918 60.77743148803711 9.830041885375977 58.01041030883789 -0.019009502604603767 C 60.67949295043945 -10.0 68.0 -17.32050895690918 78.0 -20.0 C 88.0 -17.32050895690918 95.32051086425781 -10.0 98.82783508300781 0.7042780518531799" stroke-width="0.0" fill="rgb(252, 252, 252)" opacity="0.9911436"/>
    <path d="M 198.0 106.0 C 195.3205108642578 116.0 188.0 123.32051086425781 178.0 126.0 C 168.0 123.32051086425781 160.6794891357422 116.0 158.0 106.0 C 160.6794891357422 96.0 168.0 88.67948913574219 178.0 86.0 C 188.0 88.67948913574219 195.3205108642578 96.0 198.0 106.0" stroke-width="0.0" fill="rgb(9, 9, 8)" opacity="1.0"/>
    <path d="M 112.0374755859375 77.07281494140625 C 109.6458969116211 87.49172973632812 102.6615982055664 95.11571502685547 92.8183364868164 97.78278350830078 C 82.9155502319336 93.43348693847656 75.61802673339844 86.0704345703125 72.9793472290039 77.93663024902344 C 75.43286895751953 66.23184204101562 81.15674591064453 58.85383987426758 91.42726135253906 56.4912223815918 C 102.0 59.67949295043945 109.32051086425781 67.0 112.0374755859375 77.07281494140625" stroke-width="0.0" fill="rgb(8, 9, 8)" opacity="0.9900015"/>
    <path d="M 174.97779846191406 205.9322967529297 C 172.07882690429688 214.09109497070312 163.04627990722656 221.3494110107422 153.04736328125 224.02569580078125 C 144.0 222.3205108642578 136.6794891357422 215.0 134.0 205.0 C 136.6794891357422 195.0 144.0 187.6794891357422 154.0 185.0 C 164.0004119873047 187.6793670654297 171.35377502441406 194.9904327392578 174.97779846191406 205.9322967529297" stroke-width="0.0" fill="rgb(66, 66, 67)" opacity="0.9900096"/>
    <path d="M 141.75851440429688 47.60700988769531 C 138.99859619140625 57.49587631225586 131.30409240722656 64.49132537841797 121.0300521850586 67.01456451416016 C 111.0 64.32051086425781 103.67948913574219 57.0 100.66162872314453 46.65480422973633 C 103.052001953125 36.34648513793945 110.2984390258789 28.91188621520996 120.31867218017578 26.183155059814453 C 130.99998474121094 29.679492950439453 138.31932067871094 37.00033187866211 141.75851440429688 47.60700988769531" stroke-width="0.0" fill="rgb(255, 255, 255)" opacity="0.99033266"/>
    <path d="M 64.0 6.0 C 61.32050704956055 16.0 54.0 23.32050895690918 43.996307373046875 26.001394271850586 C 33.91180419921875 23.35631561279297 26.24030876159668 16.23493194580078 24.78774070739746 6.707740306854248 C 27.26868438720703 -3.614626407623291 34.20341491699219 -11.20917797088623 44.01979446411133 -13.989740371704102 C 54.0 -11.320508003234863 61.32050704956055 -4.0 64.0 6.0" stroke-width="0.0" fill="rgb(239, 238, 238)" opacity="1.0"/>
    <path d="M 189.0 153.0 C 186.3205108642578 163.0 179.0 170.3205108642578 169.0 173.0 C 159.0 170.3205108642578 151.6794891357422 163.0 149.0 153.0 C 151.6794891357422 143.0 159.0 135.6794891357422 169.0 133.0 C 179.0 135.6794891357422 186.3205108642578 143.0 189.0 153.0" stroke-width="0.0" fill="rgb(230, 230, 231)" opacity="1.0"/>
    <path d="M 63.02865219116211 47.959842681884766 C 62.21417236328125 57.7894287109375 54.63640213012695 64.87857055664062 44.256553649902344 67.23871612548828 C 34.0 64.32051086425781 26.67949104309082 57.0 24.0 47.0 C 26.67949104309082 37.0 34.0 29.67949104309082 44.66326141357422 26.321489334106445 C 54.69811248779297 28.853431701660156 60.38237380981445 37.77365493774414 63.02865219116211 47.959842681884766" stroke-width="0.0" fill="rgb(62, 63, 62)" opacity="0.9900085"/>
    <path d="M 38.00078201293945 141.00271606445312 C 35.366432189941406 151.1284637451172 28.42456817626953 159.00634765625 18.66802215576172 161.9371337890625 C 7.339033126831055 159.05343627929688 -0.13917303085327148 151.7118682861328 -2.871793270111084 141.67555236816406 C 0.026423633098602295 130.43043518066406 7.525424480438232 123.3592529296875 18.334257125854492 121.677978515625 C 28.0 123.67948913574219 35.32050704956055 131.0 38.00078201293945 141.00271606445312" stroke-width="0.0" fill="rgb(180, 180, 181)" opacity="0.99002117"/>
    <path d="M 169.0 123.0 C 166.3205108642578 133.0 159.0 140.3205108642578 149.0 143.0 C 139.0 140.3205108642578 131.6794891357422 133.0 129.0 123.0 C 131.6794891357422 113.0 139.0 105.67948913574219 149.0 103.0 C 159.0 105.67948913574219 166.3205108642578 113.0 169.0 123.0" stroke-width="0.0" fill="rgb(43, 43, 43)" opacity="1.0"/>
    <path d="M 41.450321197509766 230.81243896484375 C 39.1917839050293 240.88803100585938 31.90790557861328 248.25006103515625 21.83742332458496 250.9180145263672 C 10.965201377868652 247.4311065673828 3.6787335872650146 240.00257873535156 0.9999938607215881 230.00001525878906 C 3.6794919967651367 220.0 11.0 212.6794891357422 20.98215103149414 209.85189819335938 C 30.504892349243164 213.01190185546875 37.578033447265625 220.62596130371094 41.450321197509766 230.81243896484375" stroke-width="0.0" fill="rgb(241, 241, 241)" opacity="1.0"/>
    <path d="M 113.04937744140625 49.941287994384766 C 111.32051086425781 59.0 104.0 66.32051086425781 93.62423706054688 69.2500991821289 C 83.1417236328125 67.08697509765625 75.72762298583984 59.915950775146484 74.98921966552734 49.979583740234375 C 77.66407012939453 39.978492736816406 84.97627258300781 32.6595458984375 93.06827545166016 29.994462966918945 C 103.01998138427734 32.66442108154297 110.34292602539062 39.977203369140625 113.04937744140625 49.941287994384766" stroke-width="0.0" fill="rgb(6, 5, 5)" opacity="0.990001"/>
    <path d="M 250.9270477294922 232.94667053222656 C 248.23336791992188 242.8129119873047 240.60989379882812 249.7191619873047 230.40879821777344 251.77149963378906 C 220.87200927734375 248.542236328125 213.64950561523438 241.06227111816406 210.99502563476562 232.9503936767578 C 213.66851806640625 222.98587036132812 220.98529052734375 215.66726684570312 229.15167236328125 212.99530029296875 C 239.0169677734375 215.66758728027344 246.34817504882812 222.9778289794922 250.9270477294922 232.94667053222656" stroke-width="0.0" fill="rgb(5, 6, 6)" opacity="0.9900007"/>
    <path d="M 261.02716064453125 139.02127075195312 C 258.37017822265625 149.0391082763672 251.03160095214844 156.3452911376953 241.00674438476562 159.00526428222656 C 231.0 156.3205108642578 223.6794891357422 149.0 221.0 139.0 C 223.6794891357422 129.0 231.0 121.67948913574219 241.0 119.0 C 251.0 121.67948913574219 258.32049560546875 129.0 261.02716064453125 139.02127075195312" stroke-width="0.0" fill="rgb(239, 239, 238)" opacity="0.9916699"/>
    <path d="M 188.0 78.0 C 185.3205108642578 88.0 178.0 95.32051086425781 168.0 98.0 C 158.0 95.32051086425781 150.6794891357422 88.0 148.0 78.0 C 150.6794891357422 68.0 158.0 60.67949295043945 168.0 58.0 C 178.0 60.67949295043945 185.3205108642578 68.0 188.0 78.0" stroke-width="0.0" fill="rgb(254, 254, 254)" opacity="1.0"/>
    <path d="M 265.0 41.0 C 262.32049560546875 51.0 255.0 58.32050704956055 245.06838989257812 60.954200744628906 C 235.33242797851562 58.07497024536133 228.20925903320312 50.57600784301758 225.45944213867188 40.64298629760742 C 227.6794891357422 31.0 235.0 23.67949104309082 245.0 21.0 C 255.0 23.67949104309082 262.32049560546875 31.0 265.0 41.0" stroke-width="0.0" fill="rgb(254, 253, 253)" opacity="0.9933225"/>
    <path d="M 98.95120239257812 143.9023895263672 C 96.24612426757812 153.86155700683594 88.75664520263672 160.9447479248047 77.13383483886719 163.9229278564453 C 67.10801696777344 161.2461395263672 59.87430953979492 153.85311889648438 57.19152069091797 142.340087890625 C 59.78630065917969 132.10226440429688 67.08537292480469 124.74214172363281 77.1037826538086 122.09629821777344 C 87.43570709228516 126.37249755859375 95.01812744140625 133.43136596679688 98.95120239257812 143.9023895263672" stroke-width="0.0" fill="rgb(173, 173, 173)" opacity="1.0"/>
    <path d="M 20.995927810668945 236.01589965820312 C 18.451719284057617 246.25123596191406 11.387868881225586 253.85829162597656 1.5793458223342896 256.78057861328125 C -8.998224258422852 253.31451416015625 -16.320463180541992 245.99984741210938 -19.0 236.0 C -16.32050895690918 226.0 -9.0 218.6794891357422 1.0 216.0 C 11.0 218.6794891357422 18.32050895690918 226.0 20.995927810668945 236.01589965820312" stroke-width="0.0" fill="rgb(255, 255, 255)" opacity="0.9907072"/>
    <path d="M 256.7872009277344 149.47357177734375 C 253.58938598632812 158.99093627929688 245.70172119140625 165.8023223876953 235.8448944091797 169.72354125976562 C 226.11363220214844 166.08285522460938 218.6956787109375 158.95770263671875 216.00054931640625 148.9984893798828 C 218.6794891357422 139.0 226.0 131.6794891357422 236.0081329345703 128.99461364746094 C 246.0572052001953 131.6431884765625 253.4784698486328 138.9056396484375 256.7872009277344 149.47357177734375" stroke-width="0.0" fill="rgb(246, 247, 247)" opacity="0.9904197"/>
    <path d="M 192.02023315429688 9.187359809875488 C 189.45838928222656 19.294055938720703 182.57801818847656 27.091815948486328 172.9671630859375 29.986207962036133 C 163.0 27.32050895690918 155.6794891357422 20.0 153.0 10.0 C 155.6794891357422 5.329070518200751e-15 163.0 -7.320508003234863 172.7727813720703 -9.853378295898438 C 182.27969360351562 -6.722464084625244 189.439697265625 0.811906635761261 192.02023315429688 9.187359809875488" stroke-width="0.0" fill="rgb(251, 251, 251)" opacity="1.0"/>
    <path d="M 218.0 107.0 C 215.3205108642578 117.0 208.0 124.32051086425781 198.0 127.0 C 188.0 124.32051086425781 180.6794891357422 117.0 178.0 107.0 C 180.6794891357422 97.0 188.0 89.67948913574219 198.0 87.0 C 208.0 89.67948913574219 215.3205108642578 97.0 218.0 107.0" stroke-width="0.0" fill="rgb(190, 191, 191)" opacity="1.0"/>
    <path d="M 141.0 182.0 C 138.3205108642578 192.0 131.0 199.3205108642578 121.0 202.0 C 111.0 199.3205108642578 103.67948913574219 192.0 101.0 182.0 C 103.67948913574219 172.0 111.0 164.6794891357422 121.0 162.0 C 131.0 164.6794891357422 138.3205108642578 172.0 141.0 182.0" stroke-width="0.0" fill="rgb(251, 251, 252)" opacity="0.99465847"/>
    <path d="M 162.1734161376953 27.208099365234375 C 159.81198120117188 37.550113677978516 152.61688232421875 45.01706314086914 142.44566345214844 47.90013885498047 C 131.94631958007812 44.4838752746582 124.67826843261719 37.004146575927734 121.99999237060547 27.00003433227539 C 124.67948913574219 17.0 132.0 9.679491996765137 142.0 7.0 C 152.0 9.679491996765137 159.3205108642578 17.0 162.1734161376953 27.208099365234375" stroke-width="0.0" fill="rgb(251, 251, 252)" opacity="0.99399096"/>
    <path d="M 160.9814910888672 215.9397430419922 C 158.28738403320312 225.95152282714844 150.9384765625 233.2542266845703 140.8351287841797 235.8638916015625 C 130.0 232.3205108642578 122.67948913574219 225.0 120.0 215.0 C 122.67948913574219 205.0 130.0 197.6794891357422 140.00149536132812 194.99949645996094 C 150.0692138671875 197.65550231933594 157.90264892578125 204.68951416015625 160.9814910888672 215.9397430419922" stroke-width="0.0" fill="rgb(153, 154, 153)" opacity="1.0"/>
    <path d="M 212.96910095214844 194.95501708984375 C 210.15406799316406 204.7745361328125 202.69366455078125 211.9029541015625 192.5630645751953 215.04823303222656 C 182.19593811035156 213.05067443847656 174.79066467285156 205.85000610351562 172.15713500976562 195.78720092773438 C 175.6794891357422 185.0 183.0 177.6794891357422 193.0 175.0 C 203.0 177.6794891357422 210.3205108642578 185.0 212.96910095214844 194.95501708984375" stroke-width="0.0" fill="rgb(207, 206, 205)" opacity="1.0"/>
    <path d="M 241.0011444091797 150.00250244140625 C 238.33767700195312 160.0366668701172 231.0814666748047 167.4828643798828 221.25881958007812 170.17332458496094 C 211.60731506347656 166.83497619628906 204.4814910888672 159.28863525390625 201.7804718017578 149.31666564941406 C 203.6794891357422 140.0 211.0 132.6794891357422 221.0 130.0 C 231.0 132.6794891357422 238.3205108642578 140.0 241.0011444091797 150.00250244140625" stroke-width="0.0" fill="rgb(134, 135, 135)" opacity="0.99003774"/>
    <path d="M 94.000244140625 182.99925231933594 C 91.32051086425781 193.0 84.0 200.3205108642578 74.0 203.0 C 64.0 200.3205108642578 56.67949295043945 193.0 54.671424865722656 183.82077026367188 C 57.63009262084961 173.96151733398438 64.97125244140625 166.6597137451172 74.97164154052734 163.98370361328125 C 84.21440124511719 165.2190399169922 91.33406829833984 172.9591827392578 94.000244140625 182.99925231933594" stroke-width="0.0" fill="rgb(50, 51, 51)" opacity="0.99000484"/>
    <path d="M 55.02177810668945 48.090545654296875 C 52.420066833496094 58.21739196777344 45.45779800415039 65.99555969238281 35.94768524169922 68.97776794433594 C 26.0 66.32051086425781 18.67949104309082 59.0 16.0 49.0 C 18.67949104309082 39.0 26.0 31.67949104309082 36.555938720703125 28.529924392700195 C 46.884010314941406 30.839990615844727 54.255287170410156 38.08784484863281 55.02177810668945 48.090545654296875" stroke-width="0.0" fill="rgb(230, 231, 230)" opacity="0.9900235"/>
    <path d="M 144.05178833007812 224.64727783203125 C 141.8414306640625 233.78369140625 134.9747314453125 241.31703186035156 125.00129699707031 244.0007781982422 C 115.0 241.3205108642578 107.67948913574219 234.0 105.0 224.0 C 107.67948913574219 214.0 115.0 206.6794891357422 124.91386413574219 204.04583740234375 C 134.46669006347656 207.0433807373047 141.488525390625 214.70643615722656 144.05178833007812 224.64727783203125" stroke-width="0.0" fill="rgb(100, 101, 100)" opacity="0.99007034"/>
    <path d="M 271.0 51.0 C 268.32049560546875 61.0 261.0 68.32051086425781 251.0 71.0 C 241.0 68.32051086425781 233.6794891357422 61.0 231.0 51.0 C 233.6794891357422 41.0 241.0 33.67949295043945 251.0 31.0 C 261.0 33.67949295043945 268.32049560546875 41.0 271.0 51.0" stroke-width="0.0" fill="rgb(255, 255, 255)" opacity="1.0"/>
    <path d="M 157.99880981445312 78.00328826904297 C 155.3205108642578 88.0 148.0 95.32051086425781 138.0 98.0 C 128.0 95.32051086425781 120.67948913574219 88.0 118.0 78.0 C 120.67948913574219 68.0 128.0 60.67949295043945 137.3554229736328 58.83659362792969 C 147.68377685546875 61.24437713623047 155.2818603515625 68.10099792480469 157.99880981445312 78.00328826904297" stroke-width="0.0" fill="rgb(50, 51, 51)" opacity="0.9900122"/>
    <path d="M 222.2293243408203 191.28887939453125 C 219.915771484375 201.63430786132812 212.66026306152344 209.00360107421875 202.46092224121094 211.67489624023438 C 192.80123901367188 207.59837341308594 185.55078125 200.15956115722656 182.78721618652344 190.2606964111328 C 184.6794891357422 181.0 192.0 173.6794891357422 202.0 171.0 C 212.0 173.6794891357422 219.3205108642578 181.0 222.2293243408203 191.28887939453125" stroke-width="0.0" fill="rgb(251, 251, 251)" opacity="0.9900406"/>
    <path d="M 219.1367950439453 176.8197021484375 C 216.2679901123047 186.85850524902344 208.5180206298828 193.5811004638672 198.03553771972656 197.96694946289062 C 188.0918731689453 195.27354431152344 180.956787109375 187.82777404785156 178.78515625 177.3251190185547 C 181.6794891357422 167.0 189.0 159.6794891357422 199.67489624023438 156.20252990722656 C 209.6715087890625 158.90660095214844 216.792724609375 166.43240356445312 219.1367950439453 176.8197021484375" stroke-width="0.0" fill="rgb(119, 118, 118)" opacity="0.9900377"/>
    <path d="M 159.0 26.0 C 156.3205108642578 36.0 149.0 43.32050704956055 138.9951629638672 46.005226135253906 C 128.99989318847656 43.330623626708984 122.08045196533203 35.84475326538086 119.9549560546875 25.239112854003906 C 122.22547149658203 16.51169204711914 129.4671630859375 9.053857803344727 138.96946716308594 5.66082239151001 C 149.0 8.679491996765137 156.3205108642578 16.0 159.0 26.0" stroke-width="0.0" fill="rgb(251, 251, 252)" opacity="1.0"/>
    <path d="M 194.0 109.0 C 191.3205108642578 119.0 184.0 126.32051086425781 174.0 129.0 C 164.0 126.32051086425781 156.6794891357422 119.0 154.0 109.0 C 156.6794891357422 99.0 164.0 91.67948913574219 174.0 89.0 C 184.0 91.67948913574219 191.3205108642578 99.0 194.0 109.0" stroke-width="0.0" fill="rgb(254, 254, 254)" opacity="1.0"/>
    <path d="M 112.00113677978516 171.99684143066406 C 109.32051086425781 182.0 102.0 189.3205108642578 91.74571228027344 192.15505981445312 C 81.2088851928711 189.9829864501953 73.7403564453125 182.8848114013672 71.0343017578125 172.8675079345703 C 73.83262634277344 161.2058563232422 81.23152160644531 153.90411376953125 92.50463104248047 151.30337524414062 C 102.30004119873047 154.13575744628906 109.35752868652344 161.90313720703125 112.00113677978516 171.99684143066406" stroke-width="0.0" fill="rgb(148, 148, 148)" opacity="1.0"/>
    <path d="M 60.100921630859375 22.447328567504883 C 57.544883728027344 32.14622497558594 50.097938537597656 39.382530212402344 40.093536376953125 42.049285888671875 C 31.0 40.32050704956055 23.67949104309082 33.0 21.0 23.0 C 23.67949104309082 13.0 31.0 5.679491996765137 40.99995422363281 3.000013828277588 C 50.995174407958984 5.680934906005859 58.165626525878906 13.051429748535156 60.100921630859375 22.447328567504883" stroke-width="0.0" fill="rgb(118, 118, 118)" opacity="0.99002784"/>
    <path d="M 192.0 99.0 C 189.3205108642578 109.0 182.0 116.32051086425781 172.0003204345703 118.99905395507812 C 162.00006103515625 116.3203125 154.6794891357422 108.99998474121094 152.0 99.0 C 154.6794891357422 89.0 162.0 81.67948913574219 172.0 79.0 C 182.0 81.67948913574219 189.3205108642578 89.0 192.0 99.0" stroke-width="0.0" fill="rgb(252, 252, 252)" opacity="0.9993459"/>
    <path d="M 271.0 59.0 C 268.32049560546875 69.0 261.0 76.32051086425781 251.0 79.0 C 241.0 76.32051086425781 233.6794891357422 69.0 231.0 59.0 C 233.6794891357422 49.0 241.0 41.67949295043945 251.0 39.0 C 261.0 41.67949295043945 268.32049560546875 49.0 271.0 59.0" stroke-width="0.0" fill="rgb(254, 254, 254)" opacity="1.0"/>
    <path d="M 245.54489135742188 78.43014526367188 C 242.4609832763672 88.0931167602539 235.06655883789062 95.36759948730469 225.32595825195312 98.53102111816406 C 216.03671264648438 96.19935607910156 208.67979431152344 88.9989013671875 206.0 79.0 C 208.6794891357422 69.0 216.0 61.67949295043945 226.0 59.0 C 236.0 61.67949295043945 243.3205108642578 69.0 245.54489135742188 78.43014526367188" stroke-width="0.0" fill="rgb(5, 5, 5)" opacity="0.99002856"/>
    <path d="M 80.1397476196289 2.0661661624908447 C 77.30004119873047 11.803505897521973 69.61289978027344 18.742820739746094 59.44915008544922 22.479496002197266 C 49.9901123046875 19.35521125793457 42.67940139770508 12.000329971313477 40.0 2.0000011920928955 C 42.67949295043945 -8.0 50.0 -15.320508003234863 60.0 -18.0 C 69.99994659423828 -15.320489883422852 77.31937408447266 -7.999636173248291 80.1397476196289 2.0661661624908447" stroke-width="0.0" fill="rgb(248, 248, 248)" opacity="0.9914487"/>
    <path d="M 65.09799194335938 10.376493453979492 C 62.804473876953125 20.04717445373535 56.483802795410156 27.99266815185547 46.62932586669922 30.79558563232422 C 36.00029373168945 27.320423126220703 28.693359375 19.99593734741211 25.23485565185547 9.380392074584961 C 28.039535522460938 -0.42190423607826233 35.794403076171875 -7.4217329025268555 45.91371154785156 -9.958934783935547 C 55.61144256591797 -7.045465469360352 62.630619049072266 0.5387396216392517 65.09799194335938 10.376493453979492" stroke-width="0.0" fill="rgb(201, 201, 200)" opacity="0.9900439"/>
    <path d="M 36.14868927001953 82.21119689941406 C 33.87408447265625 92.66769409179688 26.7718448638916 100.17659759521484 16.451536178588867 102.94644927978516 C 5.344780921936035 100.0716781616211 -1.9317432641983032 92.60128784179688 -4.387713432312012 82.36095428466797 C -1.3205081224441528 72.0 6.0 64.67948913574219 16.0 62.0 C 26.0 64.67948913574219 33.32050704956055 72.0 36.14868927001953 82.21119689941406" stroke-width="0.0" fill="rgb(228, 228, 227)" opacity="1.0"/>
    <path d="M 272.0021667480469 103.99446868896484 C 269.32049560546875 114.0 262.0 121.32051086425781 252.0 124.0 C 242.0 121.32051086425781 234.6794891357422 114.0 232.50694274902344 104.42506408691406 C 235.3014373779297 94.53966522216797 242.46327209472656 87.05906677246094 252.5937042236328 83.2311019897461 C 262.3110656738281 86.14018249511719 269.3713073730469 93.87910461425781 272.0021667480469 103.99446868896484" stroke-width="0.0" fill="rgb(255, 255, 255)" opacity="0.99116415"/>
    <path d="M 156.0 112.0 C 153.3205108642578 122.0 146.0 129.3205108642578 136.0 132.0 C 126.0 129.3205108642578 118.67948913574219 122.0 116.0 112.0 C 118.67948913574219 102.0 126.0 94.67948913574219 136.0 92.0 C 146.0 94.67948913574219 153.3205108642578 102.0 156.0 112.0" stroke-width="0.0" fill="rgb(0, 0, 0)" opacity="1.0"/>
    <path d="M 68.97856140136719 120.2578125 C 64.39646911621094 130.1121368408203 57.171627044677734 137.63894653320312 47.7817268371582 140.87705993652344 C 38.0 138.3205108642578 30.67949104309082 131.0 28.0 121.0 C 30.67949104309082 111.0 38.0 103.67948913574219 47.0623779296875 101.95939636230469 C 57.04707336425781 104.64738464355469 64.42987823486328 111.93235778808594 68.97856140136719 120.2578125" stroke-width="0.0" fill="rgb(4, 4, 4)" opacity="0.9900024"/>
    <path d="M 116.0 214.0 C 113.32051086425781 224.0 106.0 231.3205108642578 95.41604614257812 234.6115264892578 C 85.19684600830078 232.1211395263672 77.84815979003906 224.81344604492188 76.96652221679688 214.59217834472656 C 79.14510345458984 204.2067108154297 86.02503204345703 196.68698120117188 96.00020599365234 194.0000457763672 C 106.0 196.6794891357422 113.32051086425781 204.0 116.0 214.0" stroke-width="0.0" fill="rgb(252, 251, 251)" opacity="1.0"/>
    <path d="M 195.04833984375 183.9055633544922 C 193.71726989746094 193.69921875 186.7821807861328 201.15484619140625 176.59901428222656 202.63140869140625 C 166.0037078857422 200.30764770507812 158.67955017089844 192.99977111816406 156.0 183.0 C 158.6794891357422 173.0 166.0 165.6794891357422 175.13771057128906 163.87586975097656 C 185.0518341064453 166.62661743164062 192.35951232910156 173.95298767089844 195.04833984375 183.9055633544922" stroke-width="0.0" fill="rgb(200, 200, 199)" opacity="0.99003136"/>
    <path d="M 210.0 118.0 C 207.3205108642578 128.0 200.0 135.3205108642578 189.99996948242188 138.0 C 179.9971160888672 135.32135009765625 172.56744384765625 128.03555297851562 169.34039306640625 118.3604965209961 C 172.6794891357422 108.0 180.0 100.67948913574219 190.0 98.0 C 200.0 100.67948913574219 207.3205108642578 108.0 210.0 118.0" stroke-width="0.0" fill="rgb(51, 52, 52)" opacity="0.99002016"/>
    <path d="M 78.6357650756836 196.80125427246094 C 76.17415618896484 206.6558380126953 67.13597869873047 212.36265563964844 58.96037292480469 215.00604248046875 C 48.985435485839844 212.3324432373047 41.66788101196289 205.01441955566406 38.99509048461914 195.0829315185547 C 41.6572265625 186.9467010498047 47.34151077270508 177.7193603515625 57.03288269042969 175.02581787109375 C 67.1036605834961 179.6062774658203 74.4862060546875 186.8650665283203 78.6357650756836 196.80125427246094" stroke-width="0.0" fill="rgb(13, 13, 12)" opacity="0.9900008"/>
    <path d="M 240.99993896484375 135.00022888183594 C 238.3205108642578 145.0 231.0 152.3205108642578 221.0 155.0 C 211.0 152.3205108642578 203.6794891357422 145.0 201.00003051757812 135.0001220703125 C 203.6842803955078 125.01626586914062 211.19369506835938 118.1334228515625 220.2600555419922 115.97908782958984 C 230.72451782226562 118.2458267211914 238.3121795654297 125.02786254882812 240.99993896484375 135.00022888183594" stroke-width="0.0" fill="rgb(251, 252, 252)" opacity="1.0"/>
    <path d="M 55.853759765625 115.00248718261719 C 53.03237533569336 125.63219451904297 45.56163024902344 132.81613159179688 35.650630950927734 134.55165100097656 C 25.926734924316406 131.43666076660156 18.656536102294922 124.0420913696289 15.99134635925293 114.06770324707031 C 18.659887313842773 105.9724349975586 25.9621639251709 98.62342071533203 35.756866455078125 94.8018798828125 C 45.348167419433594 97.43333435058594 52.93912124633789 104.52323913574219 55.853759765625 115.00248718261719" stroke-width="0.0" fill="rgb(13, 13, 13)" opacity="0.990002"/>
    <path d="M 202.7328338623047 98.79039764404297 C 199.66824340820312 108.2504653930664 192.1548309326172 115.40760040283203 183.90187072753906 118.0091552734375 C 173.84814453125 115.37757110595703 165.34239196777344 108.56182861328125 162.7604217529297 99.24663543701172 C 165.6794891357422 89.0 173.0 81.67948913574219 182.54736328125 79.5458984375 C 192.45046997070312 82.318359375 199.9444580078125 89.46580505371094 202.7328338623047 98.79039764404297" stroke-width="0.0" fill="rgb(252, 252, 252)" opacity="0.99000615"/>
    <path d="M 48.09851837158203 29.143115997314453 C 45.501094818115234 40.13572311401367 39.68673324584961 48.04685592651367 29.474836349487305 50.452030181884766 C 19.0 47.32050704956055 11.679491996765137 40.0 8.99106502532959 29.980871200561523 C 11.559470176696777 19.770105361938477 18.580537796020508 12.061267852783203 28.51666831970215 9.167601585388184 C 39.419837951660156 12.415672302246094 46.99415969848633 19.445985794067383 48.09851837158203 29.143115997314453" stroke-width="0.0" fill="rgb(251, 251, 251)" opacity="0.9900099"/>
    <path d="M 37.02718734741211 45.952301025390625 C 35.32050704956055 55.0 28.0 62.32050704956055 18.0 65.0 C 8.0 62.32050704956055 0.6794919371604919 55.0 -2.0 45.0 C 0.6794919371604919 35.0 8.0 27.67949104309082 17.07452964782715 25.94377326965332 C 27.035234451293945 28.64766502380371 34.346492767333984 35.96705627441406 37.02718734741211 45.952301025390625" stroke-width="0.0" fill="rgb(84, 84, 84)" opacity="0.9900035"/>
    <path d="M 164.99148559570312 22.02178192138672 C 162.3205108642578 32.0 155.0 39.32050704956055 144.9998779296875 42.00004577636719 C 134.99722290039062 39.321598052978516 127.65498352050781 32.009422302246094 124.83244323730469 22.000442504882812 C 127.5949935913086 11.767892837524414 134.3727569580078 3.8443045616149902 144.06309509277344 2.9449868202209473 C 154.34796142578125 5.511401176452637 162.14451599121094 12.353495597839355 164.99148559570312 22.02178192138672" stroke-width="0.0" fill="rgb(251, 251, 251)" opacity="1.0"/>
    <path d="M 192.00430297851562 152.0116424560547 C 189.439453125 162.27000427246094 182.57994079589844 170.1099853515625 172.87847900390625 171.1075897216797 C 162.2188262939453 168.8365478515625 154.68768310546875 161.97332763671875 152.00009155273438 151.9997100830078 C 154.6794891357422 142.0 162.0 134.6794891357422 172.0 132.0 C 182.0 134.6794891357422 189.3205108642578 142.0 192.00430297851562 152.0116424560547" stroke-width="0.0" fill="rgb(42, 41, 40)" opacity="0.99103874"/>
    <path d="M 250.0 71.0 C 247.3205108642578 81.0 240.0 88.32051086425781 230.0 91.0 C 220.0 88.32051086425781 212.6794891357422 81.0 209.7661895751953 70.72523498535156 C 212.0994415283203 60.366363525390625 219.40121459960938 53.42565155029297 230.88995361328125 51.96750259399414 C 240.0 53.67949295043945 247.3205108642578 61.0 250.0 71.0" stroke-width="0.0" fill="rgb(11, 11, 11)" opacity="0.9901479"/>
    <path d="M 117.25665283203125 59.56804275512695 C 113.8261489868164 69.32434844970703 106.1731185913086 76.40853881835938 97.9648208618164 79.0071029663086 C 87.96566772460938 76.34070587158203 80.58950805664062 69.05599212646484 77.88645935058594 59.082916259765625 C 78.70085144042969 49.019500732421875 86.01668548583984 41.69239807128906 96.02696990966797 39.00957489013672 C 107.84412384033203 41.78694152832031 115.04219818115234 49.21100997924805 117.25665283203125 59.56804275512695" stroke-width="0.0" fill="rgb(252, 252, 252)" opacity="0.990001"/>
    <path d="M 124.4614028930664 169.53636169433594 C 122.30191040039062 178.9655303955078 114.93878173828125 186.2135467529297 104.90991973876953 188.89297485351562 C 94.92076110839844 186.40493774414062 88.24076843261719 178.77711486816406 85.97383117675781 169.88951110839844 C 88.49201965332031 158.33204650878906 94.17876434326172 150.85580444335938 105.81588745117188 149.9733428955078 C 114.24970245361328 152.40904235839844 121.54781341552734 159.76309204101562 124.4614028930664 169.53636169433594" stroke-width="0.0" fill="rgb(252, 252, 252)" opacity="0.9900031"/>
    <path d="M 166.0 139.0 C 163.3205108642578 149.0 156.0 156.3205108642578 145.45449829101562 159.45925903320312 C 135.12635803222656 157.15121459960938 127.75074005126953 149.90338134765625 125.11322021484375 139.85215759277344 C 128.6794891357422 129.0 136.0 121.67948913574219 146.0 119.0 C 156.0 121.67948913574219 163.3205108642578 129.0 166.0 139.0" stroke-width="0.0" fill="rgb(86, 83, 84)" opacity="1.0"/>
    <path d="M 47.59208297729492 141.32467651367188 C 44.26700210571289 151.88751220703125 36.76209259033203 158.90699768066406 27.770708084106445 161.11831665039062 C 17.82513427734375 158.4315643310547 9.722046852111816 151.29576110839844 7.628045558929443 142.618408203125 C 8.815550804138184 131.11106872558594 16.067548751831055 123.71546173095703 27.87561798095703 121.0076675415039 C 37.95886993408203 123.70309448242188 45.220855712890625 131.06692504882812 47.59208297729492 141.32467651367188" stroke-width="0.0" fill="rgb(251, 251, 251)" opacity="0.99002266"/>
    <path d="M 171.0 143.0 C 168.3205108642578 153.0 161.0 160.3205108642578 150.98687744140625 163.0063018798828 C 140.8441162109375 160.40109252929688 133.21517944335938 153.2903289794922 130.42083740234375 143.39239501953125 C 133.6794891357422 133.0 141.0 125.67948913574219 151.0 123.0 C 161.0 125.67948913574219 168.3205108642578 133.0 171.0 143.0" stroke-width="0.0" fill="rgb(24, 25, 24)" opacity="0.99004865"/>
    <path d="M 257.4566955566406 251.5473175048828 C 254.5065155029297 261.0650634765625 247.0060272216797 268.3185119628906 236.99864196777344 270.9991760253906 C 227.0 268.32049560546875 219.6794891357422 261.0 216.99984741210938 250.99954223632812 C 219.67469787597656 240.98753356933594 227.11279296875 234.02239990234375 236.28372192382812 231.98008728027344 C 246.14425659179688 234.5513458251953 253.5153045654297 241.83668518066406 257.4566955566406 251.5473175048828" stroke-width="0.0" fill="rgb(250, 250, 250)" opacity="0.99001604"/>
    <path d="M 275.0 58.0 C 272.32049560546875 68.0 265.0 75.32051086425781 255.0 78.0 C 245.0 75.32051086425781 237.6794891357422 68.0 235.0 58.0 C 237.6794891357422 48.0 245.0 40.67949295043945 255.0 38.0 C 265.0 40.67949295043945 272.32049560546875 48.0 275.0 58.0" stroke-width="0.0" fill="rgb(255, 255, 255)" opacity="1.0"/>
    <path d="M 176.00917053222656 106.86299133300781 C 173.34939575195312 115.05218505859375 166.09075927734375 122.47063446044922 156.47740173339844 125.6120834350586 C 147.0 123.32051086425781 139.6794891357422 116.0 137.0 106.0 C 139.6794891357422 96.0 147.0 88.67948913574219 157.86866760253906 85.09479522705078 C 167.81800842285156 87.75255584716797 173.35374450683594 96.88402557373047 176.00917053222656 106.86299133300781" stroke-width="0.0" fill="rgb(6, 6, 6)" opacity="0.99000144"/>
    <path d="M 227.9876708984375 103.97908020019531 C 225.30796813964844 113.98367309570312 217.9818572998047 121.3033218383789 207.95880126953125 123.96570587158203 C 197.83155822753906 119.52970123291016 190.5548095703125 112.14418029785156 187.98193359375 103.8869400024414 C 190.58056640625 93.82063293457031 197.721923828125 86.35028839111328 207.3574981689453 83.33224487304688 C 216.79147338867188 85.7806625366211 223.69541931152344 93.41366577148438 227.9876708984375 103.97908020019531" stroke-width="0.0" fill="rgb(65, 64, 64)" opacity="0.9900062"/>
    <path d="M 259.335693359375 33.68009567260742 C 256.32049560546875 44.0 249.0 51.32050704956055 239.04127502441406 53.94763946533203 C 229.0419921875 51.2359733581543 221.6166534423828 44.00424575805664 218.93463134765625 34.04151153564453 C 221.68515014648438 24.017858505249023 229.1470489501953 17.04355812072754 239.88131713867188 13.270925521850586 C 249.79541015625 15.80124568939209 256.9410095214844 23.304494857788086 259.335693359375 33.68009567260742" stroke-width="0.0" fill="rgb(243, 243, 244)" opacity="1.0"/>
    <path d="M 179.1244659423828 193.89476013183594 C 178.23550415039062 203.88345336914062 170.84921264648438 211.1293182373047 160.9357147216797 212.04110717773438 C 150.92445373535156 209.3690185546875 143.541015625 202.10690307617188 140.22735595703125 192.42283630371094 C 142.6794891357422 183.0 150.0 175.6794891357422 160.11941528320312 172.79124450683594 C 169.20095825195312 176.19851684570312 176.39987182617188 183.87738037109375 179.1244659423828 193.89476013183594" stroke-width="0.0" fill="rgb(83, 83, 83)" opacity="0.9900044"/>
    <path d="M 219.01402282714844 133.96673583984375 C 217.8285675048828 143.6033935546875 210.68344116210938 151.08082580566406 200.6000518798828 153.6880645751953 C 190.0 150.3205108642578 182.6794891357422 143.0 180.00363159179688 133.00857543945312 C 182.74794006347656 123.1517105102539 190.3619384765625 116.27222442626953 199.55010986328125 113.9225082397461 C 209.08718872070312 116.55339050292969 216.34957885742188 123.94781494140625 219.01402282714844 133.96673583984375" stroke-width="0.0" fill="rgb(47, 46, 46)" opacity="0.9900047"/>
    <path d="M 157.7250518798828 174.42515563964844 C 153.41690063476562 184.0872039794922 146.10975646972656 191.76441955566406 137.8407745361328 195.9447479248047 C 127.01496887207031 192.31016540527344 119.71051788330078 184.97885131835938 117.02261352539062 174.9848175048828 C 119.67948913574219 165.0 127.0 157.6794891357422 137.0 155.0 C 147.0 157.6794891357422 154.3205108642578 165.0 157.7250518798828 174.42515563964844" stroke-width="0.0" fill="rgb(249, 249, 249)" opacity="0.9900113"/>
    <path d="M 62.052825927734375 146.89845275878906 C 61.23207092285156 156.93368530273438 53.957122802734375 164.29531860351562 43.9515495300293 166.98878479003906 C 33.9233283996582 162.4130859375 26.59607696533203 155.07574462890625 23.977676391601562 146.93870544433594 C 26.654346466064453 136.96932983398438 33.96694564819336 129.6475372314453 43.94428253173828 125.03224182128906 C 52.67118835449219 127.8206558227539 59.4131965637207 136.8342742919922 62.052825927734375 146.89845275878906" stroke-width="0.0" fill="rgb(82, 82, 80)" opacity="0.99000204"/>
    <path d="M 27.993799209594727 199.01565551757812 C 25.32050895690918 209.0 18.0 216.3205108642578 8.033211708068848 218.94830322265625 C -1.9594258069992065 216.2576141357422 -9.303450584411621 208.97320556640625 -11.87080192565918 199.2041015625 C -8.73208236694336 189.72740173339844 -1.1547932624816895 182.59707641601562 8.777366638183594 179.98135375976562 C 17.38553810119629 182.493408203125 25.18256950378418 189.29522705078125 27.993799209594727 199.01565551757812" stroke-width="0.0" fill="rgb(90, 90, 89)" opacity="0.9900084"/>
    <path d="M 241.8243865966797 24.853670120239258 C 239.2566680908203 34.901554107666016 231.8445587158203 42.07699203491211 222.49069213867188 44.2817268371582 C 211.5067901611328 41.89704513549805 203.78041076660156 35.788787841796875 201.03753662109375 25.880887985229492 C 204.0291748046875 14.490623474121094 211.75111389160156 8.034296035766602 222.81692504882812 4.123541355133057 C 232.7347412109375 6.85996150970459 239.8350372314453 14.362897872924805 241.8243865966797 24.853670120239258" stroke-width="0.0" fill="rgb(249, 248, 248)" opacity="0.9901144"/>
    <path d="M 124.92433166503906 127.04940795898438 C 122.06974792480469 136.57325744628906 114.3868179321289 143.55746459960938 105.37939453125 147.9583740234375 C 95.95111846923828 143.36912536621094 88.62649536132812 136.05043029785156 85.9664077758789 127.80752563476562 C 88.49369812011719 117.59779357910156 94.592041015625 108.8993148803711 104.36128234863281 106.02045440673828 C 115.21997833251953 108.96070861816406 122.03685760498047 117.33476257324219 124.92433166503906 127.04940795898438" stroke-width="0.0" fill="rgb(50, 51, 50)" opacity="0.9900024"/>
    <path d="M 35.926422119140625 231.04750061035156 C 33.06949996948242 240.72447204589844 25.788223266601562 248.3970184326172 16.001604080200195 251.86337280273438 C 5.9061455726623535 248.5469512939453 -1.330146074295044 241.02444458007812 -4.000400066375732 231.00100708007812 C -1.3205081224441528 221.0 6.0 213.6794891357422 15.913494110107422 211.068603515625 C 25.73345947265625 213.92576599121094 33.03476333618164 221.2783660888672 35.926422119140625 231.04750061035156" stroke-width="0.0" fill="rgb(251, 251, 251)" opacity="0.9902978"/>
    <path d="M 194.9020538330078 73.92869567871094 C 192.17950439453125 83.9045639038086 184.94064331054688 91.29891204833984 174.96893310546875 94.13481903076172 C 164.9577178955078 91.38492584228516 157.6576690673828 84.02965545654297 154.99557495117188 74.00569915771484 C 157.6794891357422 64.0 165.0 56.67949295043945 175.0 54.0 C 185.0 56.67949295043945 192.3205108642578 64.0 194.9020538330078 73.92869567871094" stroke-width="0.0" fill="rgb(251, 252, 252)" opacity="1.0"/>
    <path d="M 264.00555419921875 120.00637817382812 C 261.3418273925781 130.02447509765625 254.02761840820312 137.35223388671875 244.01222229003906 140.01409912109375 C 234.0 137.3205108642578 226.6794891357422 130.0 223.6975555419922 119.726318359375 C 226.17921447753906 109.53422546386719 233.5638427734375 102.27648162841797 243.8333282470703 99.85115051269531 C 254.0 102.67948913574219 261.32049560546875 110.0 264.00555419921875 120.00637817382812" stroke-width="0.0" fill="rgb(253, 253, 253)" opacity="1.0"/>
    <path d="M 176.80364990234375 129.23748779296875 C 173.3205108642578 140.0 166.0 147.3205108642578 155.17279052734375 150.84854125976562 C 145.08401489257812 148.2469024658203 137.78472900390625 140.90631103515625 135.30548095703125 130.7181396484375 C 138.6794891357422 120.0 146.0 112.67948913574219 156.9600372314453 109.02072143554688 C 166.9504852294922 111.7061538696289 174.22140502929688 119.08203125 176.80364990234375 129.23748779296875" stroke-width="0.0" fill="rgb(197, 200, 197)" opacity="0.9900111"/>
    <path d="M 188.0 10.0 C 185.3205108642578 20.0 178.0 27.32050895690918 167.48435974121094 30.723068237304688 C 157.68971252441406 27.84501075744629 150.61984252929688 20.134563446044922 147.35498046875 9.506242752075195 C 150.06320190429688 -0.46164941787719727 157.68621826171875 -7.512411594390869 167.9611358642578 -10.019415855407715 C 178.0 -7.320508003234863 185.3205108642578 -8.881784197001252e-15 188.0 10.0" stroke-width="0.0" fill="rgb(251, 251, 251)" opacity="0.99117124"/>
    <path d="M 100.064208984375 106.88664245605469 C 97.40167236328125 115.09627532958984 90.07347869873047 122.36265563964844 80.80683898925781 125.00801849365234 C 71.83670806884766 122.37198638916016 62.85209274291992 116.60262298583984 61.98371887207031 106.95323181152344 C 64.640625 96.93822479248047 71.91148376464844 89.56181335449219 80.89098358154297 86.58039855957031 C 90.07229614257812 89.56851959228516 97.35127258300781 96.95195007324219 100.064208984375 106.88664245605469" stroke-width="0.0" fill="rgb(10, 11, 10)" opacity="0.9900006"/>
    <path d="M 57.22111892700195 61.057979583740234 C 54.44729232788086 71.21659088134766 47.325706481933594 78.72947692871094 37.73713684082031 81.79017639160156 C 28.0 79.32051086425781 20.67949104309082 72.0 17.692302703857422 61.681854248046875 C 20.077693939208984 51.36764907836914 27.328731536865234 43.958065032958984 37.11782455444336 42.97697448730469 C 48.920162200927734 43.89284133911133 56.272010803222656 51.05841827392578 57.22111892700195 61.057979583740234" stroke-width="0.0" fill="rgb(92, 93, 92)" opacity="1.0"/>
    <path d="M 166.53460693359375 24.351959228515625 C 163.7154998779297 34.098793029785156 155.8324737548828 41.025997161865234 145.8240966796875 43.78950119018555 C 135.98675537109375 41.33115005493164 128.65489196777344 34.01747131347656 125.98360443115234 24.011476516723633 C 128.6794891357422 14.0 136.0 6.679491996765137 146.0 4.0 C 156.0 6.679491996765137 163.3205108642578 14.0 166.53460693359375 24.351959228515625" stroke-width="0.0" fill="rgb(251, 251, 251)" opacity="1.0"/>
    <path d="M 223.0 67.0 C 220.3205108642578 77.0 213.0 84.32051086425781 203.76480102539062 86.19658660888672 C 193.8687744140625 83.43109893798828 186.56040954589844 76.13568878173828 183.87423706054688 66.20606231689453 C 185.6794891357422 57.0 193.0 49.67949295043945 203.0 47.0 C 213.0 49.67949295043945 220.3205108642578 57.0 223.0 67.0" stroke-width="0.0" fill="rgb(5, 5, 5)" opacity="0.9900263"/>
    <path d="M 152.87588500976562 169.7077178955078 C 148.57981872558594 178.0740966796875 141.036376953125 185.33966064453125 131.0662384033203 188.00689697265625 C 122.97981262207031 185.3361053466797 115.6549072265625 178.0235137939453 112.98098754882812 168.0338897705078 C 113.91387176513672 158.33010864257812 121.31624603271484 150.931884765625 131.3379364013672 149.87521362304688 C 141.42872619628906 152.40272521972656 149.04751586914062 159.40670776367188 152.87588500976562 169.7077178955078" stroke-width="0.0" fill="rgb(6, 6, 6)" opacity="0.9900008"/>
    <path d="M 126.00004577636719 205.99989318847656 C 123.32051086425781 216.0 116.0 223.3205108642578 106.0 226.0 C 96.0 223.3205108642578 88.67948913574219 216.0 85.99996948242188 205.99990844726562 C 88.67837524414062 195.99685668945312 95.98580932617188 188.6394805908203 105.9476547241211 185.76185607910156 C 116.00753021240234 188.6603240966797 123.32144927978516 195.99765014648438 126.00004577636719 205.99989318847656" stroke-width="0.0" fill="rgb(252, 251, 251)" opacity="1.0"/>
    <path d="M 232.00497436523438 182.50503540039062 C 229.33303833007812 191.01458740234375 222.01393127441406 198.33155822753906 212.20216369628906 201.00486755371094 C 203.97402954101562 198.3367462158203 196.63197326660156 191.03729248046875 193.9765167236328 182.88465881347656 C 196.64276123046875 172.95407104492188 203.94741821289062 165.62298583984375 212.06834411621094 162.9659423828125 C 222.02499389648438 165.65554809570312 229.3357391357422 172.97866821289062 232.00497436523438 182.50503540039062" stroke-width="0.0" fill="rgb(8, 7, 7)" opacity="0.9900006"/>
    <path d="M 106.98888397216797 195.94549560546875 C 104.30189514160156 205.9770965576172 96.9756851196289 213.29818725585938 86.86813354492188 215.98387145996094 C 76.83905029296875 213.06954956054688 69.55287170410156 204.1117706298828 65.07666778564453 194.22509765625 C 67.845947265625 184.31007385253906 76.1890640258789 178.45391845703125 85.14432525634766 175.96630859375 C 95.04954528808594 178.63880920410156 102.5279312133789 185.93109130859375 106.98888397216797 195.94549560546875" stroke-width="0.0" fill="rgb(42, 42, 41)" opacity="0.99000233"/>
    <path d="M 147.97512817382812 206.05133056640625 C 145.2026824951172 217.9096221923828 137.9244842529297 225.25762939453125 127.85926818847656 227.8878173828125 C 117.0 224.3205108642578 109.6795425415039 216.99998474121094 106.99970245361328 206.99948120117188 C 109.67877960205078 196.99935913085938 116.99919891357422 189.67823791503906 127.95471954345703 186.0186767578125 C 137.94979858398438 188.7184295654297 145.29000854492188 196.04519653320312 147.97512817382812 206.05133056640625" stroke-width="0.0" fill="rgb(252, 252, 252)" opacity="0.99002224"/>
    <path d="M 138.7845458984375 128.7208709716797 C 135.7330322265625 138.37742614746094 128.50186157226562 146.8303680419922 119.92888641357422 148.0763397216797 C 109.94972229003906 145.35874938964844 102.63385772705078 138.05368041992188 99.9748306274414 128.23663330078125 C 102.60104370117188 119.8909683227539 109.88175201416016 112.58147430419922 119.83580017089844 109.9056625366211 C 128.99560546875 111.68843841552734 136.3195037841797 119.00209045410156 138.7845458984375 128.7208709716797" stroke-width="0.0" fill="rgb(7, 7, 6)" opacity="0.99000436"/>
    <path d="M 161.05880737304688 117.08904266357422 C 158.3590850830078 127.04483795166016 151.04656982421875 134.36422729492188 141.10948181152344 137.09425354003906 C 132.0 135.3205108642578 124.67948913574219 128.0 122.0 118.0 C 124.67948913574219 108.0 132.0 100.67948913574219 141.80609130859375 98.11101531982422 C 151.27249145507812 101.26116180419922 158.4265594482422 108.82618713378906 161.05880737304688 117.08904266357422" stroke-width="0.0" fill="rgb(6, 6, 5)" opacity="0.99000496"/>
    <path d="M 26.056669235229492 68.91773986816406 C 24.25958824157715 77.86953735351562 16.694177627563477 84.79779815673828 6.497594833374023 87.16680908203125 C -3.01037335395813 85.29219055175781 -10.331158638000488 78.01945495605469 -13.000975608825684 68.00192260742188 C -10.320508003234863 58.0 -3.0 50.67949295043945 6.33792781829834 48.58349609375 C 16.080076217651367 51.56897735595703 23.36143684387207 58.94140625 26.056669235229492 68.91773986816406" stroke-width="0.0" fill="rgb(252, 252, 252)" opacity="0.99002016"/>
    <path d="M 22.933300018310547 55.04841613769531 C 18.66587257385254 65.63296508789062 11.93574047088623 73.29977416992188 1.9991172552108765 75.99972534179688 C -8.0 73.32051086425781 -15.320508003234863 66.0 -18.0 56.0 C -15.320508003234863 46.0 -8.0 38.67949295043945 1.1153604984283447 36.90903854370117 C 11.084470748901367 39.62482452392578 20.225568771362305 46.748077392578125 22.933300018310547 55.04841613769531" stroke-width="0.0" fill="rgb(252, 252, 252)" opacity="0.9900585"/>
    <path d="M 135.11024475097656 90.81710052490234 C 132.67904663085938 99.20652770996094 125.09451293945312 106.36408233642578 115.05035400390625 109.01009368896484 C 105.5580825805664 107.97122955322266 99.59272766113281 99.26815795898438 96.97212982177734 89.04266357421875 C 99.53963470458984 80.92086791992188 106.92888641357422 73.60106658935547 116.83488464355469 70.44175720214844 C 126.14053344726562 71.9368896484375 132.4314422607422 80.75572204589844 135.11024475097656 90.81710052490234" stroke-width="0.0" fill="rgb(246, 245, 245)" opacity="0.9900024"/>
    <path d="M 248.9999542236328 72.0001449584961 C 246.3205108642578 82.0 239.0 89.32051086425781 229.0 92.0 C 219.0 89.32051086425781 211.6794891357422 82.0 209.00428771972656 72.00892639160156 C 211.7322998046875 62.10066223144531 219.19577026367188 55.018829345703125 229.0798797607422 52.75794219970703 C 238.94728088378906 54.82842254638672 246.3177947998047 62.00835418701172 248.9999542236328 72.0001449584961" stroke-width="0.0" fill="rgb(5, 5, 5)" opacity="0.991329"/>
    <path d="M 31.724445343017578 228.94996643066406 C 29.201175689697266 238.91912841796875 21.939485549926758 246.26979064941406 11.984733581542969 248.9868927001953 C 1.9999927282333374 246.32052612304688 -5.3205084800720215 239.0 -8.49518871307373 228.43646240234375 C -6.1560378074646 218.1250457763672 1.0940607786178589 210.746337890625 11.128995895385742 208.0886688232422 C 21.96177864074707 211.707275390625 29.247081756591797 219.05189514160156 31.724445343017578 228.94996643066406" stroke-width="0.0" fill="rgb(252, 252, 252)" opacity="1.0"/>
    <path d="M 24.857545852661133 10.326215744018555 C 21.374555587768555 21.01629638671875 14.001187324523926 28.320858001708984 4.000009536743164 31.000001907348633 C -6.0 28.32050895690918 -13.320508003234863 21.0 -16.0 11.0 C -13.320508003234863 1.0 -6.0 -6.320508003234863 4.173788547515869 -9.136944770812988 C 14.555425643920898 -6.782433032989502 22.108457565307617 0.3255840539932251 24.857545852661133 10.326215744018555" stroke-width="0.0" fill="rgb(251, 252, 252)" opacity="1.0"/>
    <path d="M 248.3720245361328 149.36618041992188 C 246.88267517089844 159.52052307128906 239.40109252929688 166.2060089111328 228.1184539794922 169.8999786376953 C 218.39210510253906 167.2209930419922 212.57479858398438 158.21524047851562 209.98236083984375 149.79611206054688 C 212.24220275878906 138.09841918945312 218.06211853027344 130.72915649414062 228.1177520751953 128.10235595703125 C 238.94570922851562 131.7049560546875 246.06900024414062 139.12709045410156 248.3720245361328 149.36618041992188" stroke-width="0.0" fill="rgb(215, 216, 215)" opacity="0.990016"/>
    <path d="M 159.966796875 99.191162109375 C 157.271484375 110.95250701904297 149.95347595214844 118.27513885498047 139.88128662109375 120.88986206054688 C 128.27296447753906 117.76771545410156 120.7289810180664 110.8877182006836 118.0137939453125 100.51302337646484 C 120.6997299194336 89.02384948730469 128.0253143310547 81.70365905761719 138.05587768554688 79.03826904296875 C 149.35690307617188 82.44482421875 157.15135192871094 89.35334014892578 159.966796875 99.191162109375" stroke-width="0.0" fill="rgb(109, 109, 108)" opacity="1.0"/>
    <path d="M 242.02748107910156 78.032958984375 C 239.44338989257812 88.15776824951172 232.19577026367188 95.56716918945312 222.12477111816406 98.16157531738281 C 212.0 95.32051086425781 204.6794891357422 88.0 202.0 78.0 C 204.6794891357422 68.0000228881836 212.00022888183594 60.68025207519531 222.0533447265625 57.92487716674805 C 232.0432586669922 60.59934997558594 239.33241271972656 67.97718811035156 242.02748107910156 78.032958984375" stroke-width="0.0" fill="rgb(9, 10, 9)" opacity="1.0"/>
    <path d="M 258.0257263183594 74.20939636230469 C 255.3472442626953 84.03410339355469 248.04171752929688 91.37185668945312 238.2342529296875 94.09798431396484 C 229.399169921875 91.70034790039062 221.77769470214844 84.80970764160156 219.42922973632812 75.3126220703125 C 222.1736602783203 65.42375183105469 229.37661743164062 58.02576446533203 238.33245849609375 55.63438415527344 C 248.07449340820312 58.57757568359375 255.35926818847656 65.94499969482422 258.0257263183594 74.20939636230469" stroke-width="0.0" fill="rgb(5, 5, 4)" opacity="0.9900016"/>
    <path d="M 248.00770568847656 248.2688751220703 C 245.36642456054688 258.0970458984375 238.2030029296875 265.6639099121094 229.1287078857422 268.7220153808594 C 219.85218811035156 265.58221435546875 212.64744567871094 258.068603515625 209.994873046875 249.56167602539062 C 212.6546173095703 239.9521484375 219.91000366210938 232.5192108154297 228.44143676757812 229.34939575195312 C 238.1344451904297 232.5381622314453 245.3707275390625 239.9089813232422 248.00770568847656 248.2688751220703" stroke-width="0.0" fill="rgb(8, 8, 7)" opacity="0.99000067"/>
    <path d="M 208.01290893554688 146.05555725097656 C 205.3560028076172 156.05885314941406 198.0880889892578 163.43434143066406 188.26864624023438 167.1107635498047 C 178.965087890625 164.46942138671875 171.68621826171875 156.98826599121094 169.0005340576172 146.998779296875 C 171.6794891357422 137.0 179.0 129.6794891357422 188.99774169921875 127.0007553100586 C 198.89674377441406 129.7159881591797 205.63037109375 137.4172821044922 208.01290893554688 146.05555725097656" stroke-width="0.0" fill="rgb(250, 249, 250)" opacity="0.99000823"/>
    <path d="M 127.99970245361328 230.00030517578125 C 125.32051086425781 240.0 118.0 247.3205108642578 107.38749694824219 250.6313934326172 C 97.19781494140625 248.13568115234375 89.88868713378906 240.7941436767578 87.28955841064453 230.6121826171875 C 90.6802749633789 220.00042724609375 98.00023651123047 212.67965698242188 107.99895477294922 210.0020751953125 C 117.99845886230469 212.68162536621094 125.3194808959961 220.001220703125 127.99970245361328 230.00030517578125" stroke-width="0.0" fill="rgb(251, 251, 250)" opacity="0.9902823"/>
    <path d="M 186.10826110839844 62.04576110839844 C 183.34117126464844 72.01935577392578 176.01625061035156 79.33264923095703 166.02178955078125 82.01200866699219 C 157.0 80.32051086425781 149.6794891357422 73.0 147.8391876220703 63.860748291015625 C 150.6370086669922 53.966861724853516 157.9759979248047 46.663604736328125 167.94711303710938 43.992218017578125 C 176.09593200683594 46.63900375366211 185.1909637451172 53.37721633911133 186.10826110839844 62.04576110839844" stroke-width="0.0" fill="rgb(7, 7, 5)" opacity="0.9900011"/>
    <path d="M 260.0155944824219 124.01757049560547 C 257.38555908203125 134.0936279296875 250.17449951171875 141.63182067871094 240.0927276611328 144.6410369873047 C 229.49844360351562 141.83892822265625 222.1753692626953 134.4966278076172 219.1696014404297 123.2071304321289 C 221.75643920898438 113.08037567138672 229.08277893066406 105.76421356201172 239.21923828125 103.21919250488281 C 250.0 106.67948913574219 257.32049560546875 114.0 260.0155944824219 124.01757049560547" stroke-width="0.0" fill="rgb(249, 250, 249)" opacity="0.9903147"/>
    <path d="M 63.0074348449707 88.86923217773438 C 60.34451675415039 97.03601837158203 53.04574203491211 104.36825561523438 43.13347244262695 107.08052062988281 C 33.24533462524414 105.82150268554688 25.764389038085938 98.8561782836914 23.0859317779541 88.8599624633789 C 26.67949104309082 78.0 34.0 70.67948913574219 43.05991744995117 68.95232391357422 C 53.02669143676758 71.6551284790039 60.339927673339844 78.97518157958984 63.0074348449707 88.86923217773438" stroke-width="0.0" fill="rgb(4, 4, 4)" opacity="0.99000144"/>
    <path d="M 153.3838653564453 244.41900634765625 C 149.60267639160156 253.38894653320312 142.504150390625 260.9571228027344 132.90020751953125 263.94415283203125 C 123.0 261.32049560546875 115.67948913574219 254.0 113.0 244.0 C 115.67939758300781 233.99972534179688 122.99834442138672 226.6743927001953 132.28457641601562 223.552490234375 C 142.12408447265625 227.58583068847656 149.47906494140625 234.85128784179688 153.3838653564453 244.41900634765625" stroke-width="0.0" fill="rgb(250, 250, 250)" opacity="0.99009836"/>
    <path d="M 222.9517059326172 62.071163177490234 C 219.3205108642578 73.0 212.0 80.32051086425781 201.71994018554688 83.32319641113281 C 191.51670837402344 80.82514190673828 184.1729736328125 73.4834976196289 181.08546447753906 62.1872444152832 C 184.0296630859375 53.922245025634766 192.9661865234375 46.661624908447266 202.87989807128906 43.99446487426758 C 211.1208038330078 46.65060043334961 220.2812957763672 52.092926025390625 222.9517059326172 62.071163177490234" stroke-width="0.0" fill="rgb(9, 10, 9)" opacity="0.9900093"/>
    <path d="M 213.9838409423828 134.04110717773438 C 210.32887268066406 145.65589904785156 203.79086303710938 153.1840057373047 193.77532958984375 155.85458374023438 C 183.0 152.3205108642578 175.6794891357422 145.0 173.0695037841797 134.5122833251953 C 174.8874053955078 124.2347183227539 182.30247497558594 117.25928497314453 192.15025329589844 115.97605895996094 C 203.78553771972656 118.51737976074219 211.28973388671875 124.06531524658203 213.9838409423828 134.04110717773438" stroke-width="0.0" fill="rgb(207, 205, 206)" opacity="0.990003"/>
    <path d="M 174.9608612060547 71.93321228027344 C 172.3004150390625 81.97111511230469 164.96295166015625 89.27934265136719 154.9514923095703 90.23408508300781 C 144.65318298339844 87.40878295898438 135.7473907470703 81.83341217041016 133.0248260498047 71.92324829101562 C 135.909423828125 60.217166900634766 143.20925903320312 52.879783630371094 154.9689483642578 50.01344680786133 C 164.96847534179688 52.698829650878906 172.24810791015625 60.04848861694336 174.9608612060547 71.93321228027344" stroke-width="0.0" fill="rgb(237, 237, 237)" opacity="0.99000186"/>
    <path d="M 270.0002746582031 106.99845123291016 C 267.3172607421875 116.99158477783203 259.97119140625 124.24748229980469 249.98782348632812 126.70438385009766 C 240.0655059814453 124.20191955566406 232.6374969482422 116.98121643066406 229.12448120117188 106.14583587646484 C 231.72726440429688 96.03694915771484 239.02597045898438 88.69609832763672 249.0289306640625 86.01065063476562 C 260.3177490234375 89.08372497558594 267.34210205078125 96.93620300292969 270.0002746582031 106.99845123291016" stroke-width="0.0" fill="rgb(252, 252, 252)" opacity="1.0"/>
    <path d="M 37.00695037841797 198.73080444335938 C 34.341636657714844 207.0297393798828 27.033945083618164 214.35052490234375 17.353271484375 217.01004028320312 C 8.956769943237305 214.3552703857422 1.631609320640564 207.04808044433594 -1.0522880554199219 197.40863037109375 C 1.6185393333435059 188.93711853027344 8.948160171508789 181.64422607421875 17.12712860107422 178.99105834960938 C 27.02531623840332 181.6582794189453 34.33848571777344 188.97616577148438 37.00695037841797 198.73080444335938" stroke-width="0.0" fill="rgb(52, 52, 52)" opacity="0.9900011"/>
    <path d="M 194.8718719482422 151.6445770263672 C 193.05975341796875 161.51934814453125 184.8162384033203 167.71405029296875 175.86888122558594 170.03245544433594 C 165.40232849121094 167.63626098632812 157.7066650390625 160.9186248779297 155.173828125 151.20477294921875 C 158.1721954345703 141.5629119873047 165.6409149169922 134.406494140625 175.19931030273438 131.86497497558594 C 184.5994110107422 134.19839477539062 191.8479766845703 141.38455200195312 194.8718719482422 151.6445770263672" stroke-width="0.0" fill="rgb(222, 220, 221)" opacity="0.9900774"/>
    <path d="M 139.29153442382812 238.0420379638672 C 136.40643310546875 248.03689575195312 129.01065063476562 255.31849670410156 119.07173156738281 257.8420715332031 C 109.17240905761719 255.18678283691406 101.92057037353516 247.79299926757812 98.96617126464844 237.83421325683594 C 101.49779510498047 227.8567657470703 108.8861312866211 220.59442138671875 119.07563018798828 217.89395141601562 C 129.18978881835938 220.46490478515625 136.47096252441406 227.82980346679688 139.29153442382812 238.0420379638672" stroke-width="0.0" fill="rgb(248, 248, 248)" opacity="1.0"/>
    <path d="M 230.32339477539062 87.33122253417969 C 227.4660186767578 97.14186096191406 220.12501525878906 104.41838836669922 211.8219451904297 107.0374984741211 C 201.952392578125 104.36176300048828 194.64573669433594 97.04447937011719 191.99038696289062 88.88983917236328 C 194.6357421875 78.90897369384766 201.82460021972656 71.44236755371094 211.44073486328125 68.65679931640625 C 221.032470703125 70.71923065185547 228.3922119140625 77.93730163574219 230.32339477539062 87.33122253417969" stroke-width="0.0" fill="rgb(6, 5, 5)" opacity="0.99000436"/>
    <path d="M 268.05560302734375 46.11649703979492 C 265.8255920410156 56.70283126831055 258.869140625 64.26213836669922 248.9606475830078 66.98431396484375 C 238.97003173828125 62.3481330871582 231.6346893310547 55.03425979614258 227.31930541992188 45.29204559326172 C 231.22027587890625 36.4205322265625 238.37759399414062 29.113203048706055 248.2139434814453 26.667552947998047 C 257.9721984863281 28.771772384643555 265.3216857910156 36.00059127807617 268.05560302734375 46.11649703979492" stroke-width="0.0" fill="rgb(252, 252, 252)" opacity="0.99002206"/>
    <path d="M 203.00653076171875 30.42875862121582 C 200.33743286132812 40.02003479003906 193.01951599121094 47.336299896240234 183.03961181640625 50.01398468017578 C 174.96475219726562 47.36086654663086 167.6566925048828 40.0294075012207 164.98963928222656 31.902332305908203 C 167.65689086914062 21.96978759765625 174.96322631835938 14.636526107788086 183.06605529785156 11.982097625732422 C 193.029296875 14.650575637817383 200.33787536621094 21.975568771362305 203.00653076171875 30.42875862121582" stroke-width="0.0" fill="rgb(39, 38, 37)" opacity="0.99000055"/>
    <path d="M 178.9498291015625 159.87640380859375 C 176.2539825439453 169.923583984375 168.9193878173828 177.24246215820312 158.91871643066406 178.14683532714844 C 147.17628479003906 175.599609375 139.73960876464844 169.9091339111328 137.0336456298828 158.9546356201172 C 139.74827575683594 148.10423278808594 147.16079711914062 141.0575714111328 157.08811950683594 139.9814453125 C 167.0771026611328 142.63381958007812 174.8525390625 149.86007690429688 178.9498291015625 159.87640380859375" stroke-width="0.0" fill="rgb(112, 112, 111)" opacity="0.9900256"/>
    <path d="M 152.04718017578125 126.09785461425781 C 149.35494995117188 136.04342651367188 142.05001831054688 143.373291015625 132.14852905273438 146.07688903808594 C 123.59729766845703 143.594482421875 116.12056732177734 136.51565551757812 113.56306457519531 126.8796157836914 C 116.26419067382812 117.74796295166016 123.879150390625 110.62234497070312 133.94808959960938 107.96337890625 C 142.15328979492188 110.38811492919922 149.43148803710938 117.87689208984375 152.04718017578125 126.09785461425781" stroke-width="0.0" fill="rgb(5, 5, 4)" opacity="0.9900085"/>
    <path d="M 53.98579025268555 77.5306396484375 C 51.27499008178711 87.9059829711914 43.790122985839844 94.74959564208984 33.79682922363281 96.05255126953125 C 23.84186363220215 93.44745635986328 16.556955337524414 86.15711212158203 12.081576347351074 76.03304290771484 C 14.699357032775879 66.02555084228516 22.02997589111328 58.71232986450195 32.0904541015625 56.890506744384766 C 42.35612869262695 60.44480895996094 51.22653579711914 66.35112762451172 53.98579025268555 77.5306396484375" stroke-width="0.0" fill="rgb(119, 119, 119)" opacity="0.9900074"/>
    <path d="M 27.887956619262695 19.603729248046875 C 25.218076705932617 30.909658432006836 17.919769287109375 38.25046920776367 7.797601699829102 39.639015197753906 C -2.857980966567993 37.05152893066406 -10.288040161132812 29.93456268310547 -12.997005462646484 19.994701385498047 C -10.3339262008667 9.955144882202148 -3.1696033477783203 2.3133983612060547 7.788539409637451 -0.9139318466186523 C 17.850082397460938 1.7957196235656738 25.179790496826172 9.160457611083984 27.887956619262695 19.603729248046875" stroke-width="0.0" fill="rgb(224, 225, 224)" opacity="0.9904884"/>
    <path d="M 140.95314025878906 57.61996841430664 C 138.06866455078125 67.8548355102539 130.91671752929688 75.27264404296875 120.91383361816406 77.94461059570312 C 109.98750305175781 74.34160614013672 102.67632293701172 67.00717163085938 99.44708251953125 56.37259292602539 C 101.81199645996094 46.1030158996582 109.08219909667969 38.74302291870117 119.13827514648438 36.107025146484375 C 130.21405029296875 39.54330062866211 138.020751953125 46.53181838989258 140.95314025878906 57.61996841430664" stroke-width="0.0" fill="rgb(250, 251, 250)" opacity="0.9900148"/>
  </g>
</svg>
