<?xml version="1.0" ?>
<svg xmlns="http://www.w3.org/2000/svg" version="1.1" width="256" height="256">
  <defs/>
  <g>
    <path d="M 46.0 19.0 C 43.32050704956055 29.0 36.0 36.32050704956055 26.0 39.0 C 16.0 36.32050704956055 8.679491996765137 29.0 6.0 19.0 C 8.679491996765137 9.0 16.0 1.6794918775558472 26.0 -1.0 C 36.0 1.6794918775558472 43.32050704956055 9.0 46.0 19.0" stroke-width="0.0" fill="rgb(251, 252, 252)" opacity="1.0"/>
    <path d="M 228.0 7.0 C 225.3205108642578 17.0 218.0 24.32050895690918 208.0 27.0 C 198.0 24.32050895690918 190.6794891357422 17.0 188.0 7.0 C 190.6794891357422 -3.0 198.0 -10.320508003234863 208.0 -13.0 C 218.0 -10.320508003234863 225.3205108642578 -3.0 228.0 7.0" stroke-width="0.0" fill="rgb(251, 251, 252)" opacity="1.0"/>
    <path d="M 52.20207214355469 20.40983009338379 C 49.569557189941406 30.345735549926758 42.40757369995117 37.72207260131836 32.59192657470703 40.58418273925781 C 23.001876831054688 38.31635665893555 15.6797456741333 30.999258041381836 13.000005722045898 20.999982833862305 C 15.679491996765137 11.0 23.0 3.6794919967651367 32.999271392822266 1.0002598762512207 C 42.975196838378906 3.6884641647338867 50.09852600097656 11.092899322509766 52.20207214355469 20.40983009338379" stroke-width="0.0" fill="rgb(253, 253, 254)" opacity="0.99026996"/>
    <path d="M 258.0 1.0 C 255.3205108642578 11.0 248.0 18.32050895690918 238.0 21.0 C 228.0 18.32050895690918 220.6794891357422 11.0 218.0 1.0 C 220.6794891357422 -9.0 228.0 -16.32050895690918 238.0 -19.0 C 248.0 -16.32050895690918 255.3205108642578 -9.0 258.0 1.0" stroke-width="0.0" fill="rgb(252, 252, 252)" opacity="1.0"/>
    <path d="M 20.0 24.0 C 17.32050895690918 34.0 10.0 41.32050704956055 1.2246467996456087e-15 44.0 C -10.0 41.32050704956055 -17.32050895690918 34.0 -20.0 24.0 C -17.32050895690918 14.0 -10.0 6.679491996765137 -3.673940187178589e-15 4.0 C 10.0 6.679491996765137 17.32050895690918 14.0 20.0 24.0" stroke-width="0.0" fill="rgb(251, 250, 251)" opacity="1.0"/>
    <path d="M 217.0 21.0 C 214.3205108642578 31.0 207.0 38.32050704956055 197.0 41.0 C 187.0 38.32050704956055 179.6794891357422 31.0 177.0 21.0 C 179.6794891357422 11.0 187.0 3.6794919967651367 197.0 1.0 C 207.0 3.6794919967651367 214.3205108642578 11.0 217.0 21.0" stroke-width="0.0" fill="rgb(251, 251, 252)" opacity="1.0"/>
    <path d="M 264.0 11.0 C 261.32049560546875 21.0 254.0 28.32050895690918 244.0 31.0 C 234.0 28.32050895690918 226.6794891357422 21.0 224.0 11.0 C 226.6794891357422 1.0 234.0 -6.320508003234863 244.0 -9.0 C 254.0 -6.320508003234863 261.32049560546875 1.0 264.0 11.0" stroke-width="0.0" fill="rgb(251, 252, 252)" opacity="1.0"/>
    <path d="M 29.0 12.0 C 26.32050895690918 22.0 19.0 29.32050895690918 9.0 32.0 C -1.0 29.32050895690918 -8.320508003234863 22.0 -11.0 12.0 C -8.320508003234863 2.0 -1.0 -5.320508003234863 9.0 -8.0 C 19.0 -5.320508003234863 26.32050895690918 2.0 29.0 12.0" stroke-width="0.0" fill="rgb(251, 251, 252)" opacity="1.0"/>
    <path d="M 255.0 12.0 C 252.3205108642578 22.0 245.0 29.32050895690918 235.0 32.0 C 225.0 29.32050895690918 217.6794891357422 22.0 215.0 12.0 C 217.6794891357422 2.0 225.0 -5.320508003234863 235.0 -8.0 C 245.0 -5.320508003234863 252.3205108642578 2.0 255.0 12.0" stroke-width="0.0" fill="rgb(251, 252, 252)" opacity="1.0"/>
    <path d="M 244.0 5.0 C 241.3205108642578 15.0 234.0 22.32050895690918 224.0 25.0 C 214.0 22.32050895690918 206.6794891357422 15.0 204.0 5.0 C 206.6794891357422 -5.0 214.0 -12.320508003234863 224.0 -15.0 C 234.0 -12.320508003234863 241.3205108642578 -5.0 244.0 5.0" stroke-width="0.0" fill="rgb(251, 252, 252)" opacity="1.0"/>
    <path d="M 179.0 0.0 C 176.3205108642578 10.0 169.0 17.32050895690918 159.0 20.0 C 149.0 17.32050895690918 141.6794891357422 10.0 139.0 2.4492935992912173e-15 C 141.6794891357422 -10.0 149.0 -17.32050895690918 159.0 -20.0 C 169.0 -17.32050895690918 176.3205108642578 -10.0 179.0 0.0" stroke-width="0.0" fill="rgb(250, 250, 251)" opacity="1.0"/>
    <path d="M 230.0 12.0 C 227.3205108642578 22.0 220.0 29.32050895690918 210.0 32.0 C 200.0 29.32050895690918 192.6794891357422 22.0 190.0 12.0 C 192.6794891357422 2.0 200.0 -5.320508003234863 210.0 -8.0 C 220.0 -5.320508003234863 227.3205108642578 2.0 230.0 12.0" stroke-width="0.0" fill="rgb(252, 252, 253)" opacity="1.0"/>
    <path d="M 150.0 22.0 C 147.3205108642578 32.0 140.0 39.32050704956055 130.0 42.0 C 120.0 39.32050704956055 112.67948913574219 32.0 110.0 22.0 C 112.67948913574219 12.0 120.0 4.679491996765137 130.0 2.0 C 140.0 4.679491996765137 147.3205108642578 12.0 150.0 22.0" stroke-width="0.0" fill="rgb(251, 251, 252)" opacity="1.0"/>
    <path d="M 205.0 12.0 C 202.3205108642578 22.0 195.0 29.32050895690918 185.0 32.0 C 175.0 29.32050895690918 167.6794891357422 22.0 165.0 12.0 C 167.6794891357422 2.0 175.0 -5.320508003234863 185.0 -8.0 C 195.0 -5.320508003234863 202.3205108642578 2.0 205.0 12.0" stroke-width="0.0" fill="rgb(251, 252, 252)" opacity="1.0"/>
    <path d="M 209.0 13.0 C 206.3205108642578 23.0 199.0 30.32050895690918 189.0 33.0 C 179.0 30.32050895690918 171.6794891357422 23.0 169.0 13.0 C 171.6794891357422 3.0 179.0 -4.320508003234863 189.0 -7.0 C 199.0 -4.320508003234863 206.3205108642578 3.0 209.0 13.0" stroke-width="0.0" fill="rgb(251, 252, 252)" opacity="1.0"/>
    <path d="M 147.0 4.0 C 144.3205108642578 14.0 137.0 21.32050895690918 127.0 24.0 C 117.0 21.32050895690918 109.67948913574219 14.0 107.0 4.0 C 109.67948913574219 -6.0 117.0 -13.320508003234863 127.0 -16.0 C 137.0 -13.320508003234863 144.3205108642578 -6.0 147.0 4.0" stroke-width="0.0" fill="rgb(251, 251, 252)" opacity="1.0"/>
    <path d="M 52.0 6.0 C 49.32050704956055 16.0 42.0 23.32050895690918 32.0 26.0 C 22.0 23.32050895690918 14.679491996765137 16.0 12.0 6.0 C 14.679491996765137 -4.0 22.0 -11.320508003234863 32.0 -14.0 C 42.0 -11.320508003234863 49.32050704956055 -4.0 52.0 6.0" stroke-width="0.0" fill="rgb(251, 251, 252)" opacity="1.0"/>
    <path d="M 175.02618408203125 25.023929595947266 C 172.37156677246094 35.0126953125 164.9371337890625 42.1398811340332 154.51808166503906 45.66856002807617 C 144.96546936035156 42.43071365356445 137.6787872314453 35.0024299621582 135.0 25.000017166137695 C 137.6794891357422 15.0 145.0 7.679491996765137 155.0 5.0 C 165.0 7.679491996765137 172.3205108642578 15.0 175.02618408203125 25.023929595947266" stroke-width="0.0" fill="rgb(253, 254, 254)" opacity="0.9906256"/>
    <path d="M 258.0 2.0 C 255.3205108642578 12.0 248.0 19.32050895690918 238.0 22.0 C 228.0 19.32050895690918 220.6794891357422 12.0 218.0 2.0 C 220.6794891357422 -8.0 228.0 -15.320508003234863 238.0 -18.0 C 248.0 -15.320508003234863 255.3205108642578 -8.0 258.0 2.0" stroke-width="0.0" fill="rgb(251, 252, 252)" opacity="1.0"/>
    <path d="M 173.0 4.0 C 170.3205108642578 14.0 163.0 21.32050895690918 153.0 24.0 C 143.0 21.32050895690918 135.6794891357422 14.0 133.0 4.0 C 135.6794891357422 -6.0 143.0 -13.320508003234863 153.0 -16.0 C 163.0 -13.320508003234863 170.3205108642578 -6.0 173.0 4.0" stroke-width="0.0" fill="rgb(251, 252, 252)" opacity="1.0"/>
    <path d="M 24.0 14.0 C 21.32050895690918 24.0 14.0 31.32050895690918 4.0 34.0 C -6.0 31.32050895690918 -13.320508003234863 24.0 -16.0 14.0 C -13.320508003234863 4.0 -6.0 -3.3205080032348633 4.0 -6.0 C 14.0 -3.3205080032348633 21.32050895690918 4.0 24.0 14.0" stroke-width="0.0" fill="rgb(251, 251, 251)" opacity="1.0"/>
    <path d="M 53.48589324951172 2.8781707286834717 C 50.32488250732422 13.001220703125 43.00004196166992 20.320520401000977 33.0 23.0 C 23.0 20.32050895690918 15.679491996765137 13.0 13.0 3.0 C 15.679491996765137 -7.0 23.0 -14.320508003234863 32.999916076660156 -16.999967575073242 C 42.998023986816406 -14.319719314575195 50.3322639465332 -7.0012125968933105 53.48589324951172 2.8781707286834717" stroke-width="0.0" fill="rgb(252, 252, 253)" opacity="0.99253553"/>
    <path d="M 255.0 6.0 C 252.3205108642578 16.0 245.0 23.32050895690918 235.0 26.0 C 225.0 23.32050895690918 217.6794891357422 16.0 215.0 6.0 C 217.6794891357422 -4.0 225.0 -11.320508003234863 235.0 -14.0 C 245.0 -11.320508003234863 252.3205108642578 -4.0 255.0 6.0" stroke-width="0.0" fill="rgb(251, 252, 252)" opacity="1.0"/>
    <path d="M 53.759883880615234 4.438150882720947 C 50.421905517578125 14.043684959411621 43.01616668701172 21.328744888305664 33.0013427734375 24.000612258911133 C 23.0 21.32050895690918 15.679491996765137 14.0 13.0 4.0 C 15.679491996765137 -6.0 23.0 -13.320508003234863 33.0 -16.0 C 43.000057220458984 -13.320524215698242 50.32527542114258 -6.001343250274658 53.759883880615234 4.438150882720947" stroke-width="0.0" fill="rgb(253, 253, 254)" opacity="0.9920735"/>
    <path d="M 47.0 11.0 C 44.32050704956055 21.0 37.0 28.32050895690918 27.0 31.0 C 17.0 28.32050895690918 9.679491996765137 21.0 7.0 11.0 C 9.679491996765137 1.0 17.0 -6.320508003234863 27.0 -9.0 C 37.0 -6.320508003234863 44.32050704956055 1.0 47.0 11.0" stroke-width="0.0" fill="rgb(251, 252, 252)" opacity="1.0"/>
    <path d="M 235.90480041503906 24.910245895385742 C 233.1125030517578 34.82988739013672 225.82826232910156 42.08939743041992 215.48304748535156 45.653053283691406 C 205.8209991455078 42.677364349365234 198.6514434814453 35.06544876098633 195.99859619140625 25.003387451171875 C 198.6794891357422 15.0 206.0 7.679491996765137 216.0 5.0 C 226.0 7.679491996765137 233.3205108642578 15.0 235.90480041503906 24.910245895385742" stroke-width="0.0" fill="rgb(253, 253, 253)" opacity="0.99047846"/>
    <path d="M 252.0 9.0 C 249.3205108642578 19.0 242.0 26.32050895690918 232.0 29.0 C 222.0 26.32050895690918 214.6794891357422 19.0 212.0 9.0 C 214.6794891357422 -1.0 222.0 -8.320508003234863 232.0 -11.0 C 242.0 -8.320508003234863 249.3205108642578 -1.0 252.0 9.0" stroke-width="0.0" fill="rgb(251, 252, 252)" opacity="1.0"/>
    <path d="M 28.0 8.0 C 25.32050895690918 18.0 18.0 25.32050895690918 8.0 28.0 C -2.0 25.32050895690918 -9.320508003234863 18.0 -12.0 8.0 C -9.320508003234863 -2.0 -2.0 -9.320508003234863 8.0 -12.0 C 18.0 -9.320508003234863 25.32050895690918 -2.0 28.0 8.0" stroke-width="0.0" fill="rgb(251, 251, 252)" opacity="1.0"/>
    <path d="M 153.0 10.0 C 150.3205108642578 20.0 143.0 27.32050895690918 133.0 30.0 C 123.0 27.32050895690918 115.67948913574219 20.0 113.0 10.0 C 115.67948913574219 5.329070518200751e-15 123.0 -7.320508003234863 133.0 -10.0 C 143.0 -7.320508003234863 150.3205108642578 -8.881784197001252e-15 153.0 10.0" stroke-width="0.0" fill="rgb(251, 251, 252)" opacity="1.0"/>
    <path d="M 179.0 5.0 C 176.3205108642578 15.0 169.0 22.32050895690918 159.0 25.0 C 149.0 22.32050895690918 141.6794891357422 15.0 139.0 5.0 C 141.6794891357422 -5.0 149.0 -12.320508003234863 159.0 -15.0 C 169.0 -12.320508003234863 176.3205108642578 -5.0 179.0 5.0" stroke-width="0.0" fill="rgb(251, 251, 252)" opacity="1.0"/>
    <path d="M 148.0 22.0 C 145.3205108642578 32.0 138.0 39.32050704956055 128.0 42.0 C 118.0 39.32050704956055 110.67948913574219 32.0 108.0 22.0 C 110.67948913574219 12.0 118.0 4.679491996765137 128.0 2.0 C 138.0 4.679491996765137 145.3205108642578 12.0 148.0 22.0" stroke-width="0.0" fill="rgb(251, 251, 252)" opacity="1.0"/>
    <path d="M 52.23589324951172 16.504911422729492 C 50.24164581298828 25.97038459777832 42.993343353271484 33.3199348449707 33.00095748901367 36.001834869384766 C 23.0 33.32050704956055 15.679491996765137 26.0 13.0 16.0 C 15.679491996765137 6.0 23.0 -1.3205081224441528 33.00232696533203 -4.001089096069336 C 43.01210403442383 -1.3304141759872437 50.02843475341797 6.091846466064453 52.23589324951172 16.504911422729492" stroke-width="0.0" fill="rgb(253, 254, 254)" opacity="0.9916976"/>
    <path d="M 200.0140380859375 23.02536392211914 C 197.44406127929688 33.20479202270508 190.3043670654297 40.74821472167969 179.51708984375 43.84127426147461 C 169.45703125 40.95393753051758 162.28111267089844 33.466426849365234 159.8771514892578 23.14946937561035 C 162.6794891357422 13.0 170.0 5.679491996765137 180.0 3.0 C 190.0 5.679491996765137 197.3205108642578 13.0 200.0140380859375 23.02536392211914" stroke-width="0.0" fill="rgb(242, 243, 243)" opacity="0.9902496"/>
    <path d="M 265.0 14.0 C 262.32049560546875 24.0 255.0 31.32050895690918 245.0 34.0 C 235.0 31.32050895690918 227.6794891357422 24.0 225.0 14.0 C 227.6794891357422 4.0 235.0 -3.3205080032348633 245.0 -6.0 C 255.0 -3.3205080032348633 262.32049560546875 4.0 265.0 14.0" stroke-width="0.0" fill="rgb(251, 252, 252)" opacity="1.0"/>
    <path d="M 216.0 20.0 C 213.3205108642578 30.0 206.0 37.32050704956055 196.0 40.0 C 186.0 37.32050704956055 178.6794891357422 30.0 176.0 20.0 C 178.6794891357422 10.0 186.0 2.6794919967651367 196.0 0.0 C 206.0 2.6794919967651367 213.3205108642578 10.0 216.0 20.0" stroke-width="0.0" fill="rgb(251, 251, 251)" opacity="1.0"/>
    <path d="M 170.0 18.0 C 167.3205108642578 28.0 160.0 35.32050704956055 150.0 38.0 C 140.0 35.32050704956055 132.6794891357422 28.0 130.0 18.0 C 132.6794891357422 8.0 140.0 0.6794919371604919 150.0 -2.0 C 160.0 0.6794919371604919 167.3205108642578 8.0 170.0 18.0" stroke-width="0.0" fill="rgb(251, 252, 252)" opacity="1.0"/>
    <path d="M 267.0 14.0 C 264.32049560546875 24.0 257.0 31.32050895690918 247.0 34.0 C 237.0 31.32050895690918 229.6794891357422 24.0 227.0 14.0 C 229.6794891357422 4.0 237.0 -3.3205080032348633 247.0 -6.0 C 257.0 -3.3205080032348633 264.32049560546875 4.0 267.0 14.0" stroke-width="0.0" fill="rgb(251, 252, 252)" opacity="1.0"/>
    <path d="M 27.0 3.0 C 24.32050895690918 13.0 17.0 20.32050895690918 7.0 23.0 C -3.0 20.32050895690918 -10.320508003234863 13.0 -13.0 3.0 C -10.320508003234863 -7.0 -3.0 -14.320508003234863 7.0 -17.0 C 17.0 -14.320508003234863 24.32050895690918 -7.0 27.0 3.0" stroke-width="0.0" fill="rgb(251, 251, 252)" opacity="1.0"/>
    <path d="M 25.0 8.0 C 22.32050895690918 18.0 15.0 25.32050895690918 5.0 28.0 C -5.0 25.32050895690918 -12.320508003234863 18.0 -15.0 8.0 C -12.320508003234863 -2.0 -5.0 -9.320508003234863 5.0 -12.0 C 15.0 -9.320508003234863 22.32050895690918 -2.0 25.0 8.0" stroke-width="0.0" fill="rgb(251, 251, 252)" opacity="1.0"/>
    <path d="M 224.0 8.0 C 221.3205108642578 18.0 214.0 25.32050895690918 204.0 28.0 C 194.0 25.32050895690918 186.6794891357422 18.0 184.0 8.0 C 186.6794891357422 -2.0 194.0 -9.320508003234863 204.0 -12.0 C 214.0 -9.320508003234863 221.3205108642578 -2.0 224.0 8.0" stroke-width="0.0" fill="rgb(251, 251, 252)" opacity="1.0"/>
    <path d="M 40.0 5.0 C 37.32050704956055 15.0 30.0 22.32050895690918 20.0 25.0 C 10.0 22.32050895690918 2.6794919967651367 15.0 0.0 5.0 C 2.6794919967651367 -5.0 10.0 -12.320508003234863 20.0 -15.0 C 30.0 -12.320508003234863 37.32050704956055 -5.0 40.0 5.0" stroke-width="0.0" fill="rgb(251, 251, 252)" opacity="1.0"/>
    <path d="M 223.99960327148438 23.998903274536133 C 221.30889892578125 33.969573974609375 213.92425537109375 41.1626091003418 203.77565002441406 44.8311653137207 C 193.95889282226562 41.448402404785156 186.67849731445312 34.003379821777344 183.99998474121094 24.000028610229492 C 186.6794891357422 14.0 194.0 6.679491996765137 204.0 4.0 C 214.0 6.679491996765137 221.3205108642578 14.0 223.99960327148438 23.998903274536133" stroke-width="0.0" fill="rgb(252, 253, 253)" opacity="0.9915698"/>
    <path d="M 260.0 21.0 C 257.32049560546875 31.0 250.0 38.32050704956055 240.0 41.0 C 230.0 38.32050704956055 222.6794891357422 31.0 220.0 21.0 C 222.6794891357422 11.0 230.0 3.6794919967651367 240.0 1.0 C 250.0 3.6794919967651367 257.32049560546875 11.0 260.0 21.0" stroke-width="0.0" fill="rgb(251, 251, 251)" opacity="1.0"/>
    <path d="M 173.00022888183594 25.000356674194336 C 170.3232879638672 35.00681686401367 163.0530242919922 42.475460052490234 153.62081909179688 45.542572021484375 C 143.17567443847656 41.949527740478516 135.69863891601562 34.94866943359375 133.00059509277344 24.99835777282715 C 135.6794891357422 15.0 143.0 7.679491996765137 153.0 5.0 C 163.0 7.679491996765137 170.3205108642578 15.0 173.00022888183594 25.000356674194336" stroke-width="0.0" fill="rgb(254, 254, 255)" opacity="0.9922811"/>
    <path d="M 261.01116943359375 24.022998809814453 C 258.4543762207031 34.2453727722168 251.41981506347656 41.92661666870117 241.67816162109375 44.13205337524414 C 230.88827514648438 41.01348876953125 223.4403533935547 34.24909591674805 220.93170166015625 24.08477783203125 C 223.6794891357422 14.0 231.0 6.679491996765137 241.0 4.0 C 251.0 6.679491996765137 258.32049560546875 14.0 261.01116943359375 24.022998809814453" stroke-width="0.0" fill="rgb(253, 253, 254)" opacity="0.99053377"/>
    <path d="M 241.0 6.0 C 238.3205108642578 16.0 231.0 23.32050895690918 221.0 26.0 C 211.0 23.32050895690918 203.6794891357422 16.0 201.0 6.0 C 203.6794891357422 -4.0 211.0 -11.320508003234863 221.0 -14.0 C 231.0 -11.320508003234863 238.3205108642578 -4.0 241.0 6.0" stroke-width="0.0" fill="rgb(252, 252, 253)" opacity="1.0"/>
    <path d="M 234.0 19.0 C 231.3205108642578 29.0 224.0 36.32050704956055 214.0 39.0 C 204.0 36.32050704956055 196.6794891357422 29.0 194.0 19.0 C 196.6794891357422 9.0 204.0 1.6794918775558472 214.0 -1.0 C 224.0 1.6794918775558472 231.3205108642578 9.0 234.0 19.0" stroke-width="0.0" fill="rgb(252, 252, 252)" opacity="1.0"/>
    <path d="M 32.0 12.0 C 29.32050895690918 22.0 22.0 29.32050895690918 12.0 32.0 C 2.0 29.32050895690918 -5.320508003234863 22.0 -8.0 12.0 C -5.320508003234863 2.0 2.0 -5.320508003234863 12.0 -8.0 C 22.0 -5.320508003234863 29.32050895690918 2.0 32.0 12.0" stroke-width="0.0" fill="rgb(251, 251, 252)" opacity="1.0"/>
    <path d="M 232.0 3.0 C 229.3205108642578 13.0 222.0 20.32050895690918 212.0 23.0 C 202.0 20.32050895690918 194.6794891357422 13.0 192.0 3.0 C 194.6794891357422 -7.0 202.0 -14.320508003234863 212.0 -17.0 C 222.0 -14.320508003234863 229.3205108642578 -7.0 232.0 3.0" stroke-width="0.0" fill="rgb(251, 251, 252)" opacity="1.0"/>
    <path d="M 224.0 10.0 C 221.3205108642578 20.0 214.0 27.32050895690918 204.0 30.0 C 194.0 27.32050895690918 186.6794891357422 20.0 184.0 10.0 C 186.6794891357422 5.329070518200751e-15 194.0 -7.320508003234863 204.0 -10.0 C 214.0 -7.320508003234863 221.3205108642578 -8.881784197001252e-15 224.0 10.0" stroke-width="0.0" fill="rgb(251, 251, 252)" opacity="1.0"/>
    <path d="M 273.0 12.0 C 270.32049560546875 22.0 263.0 29.32050895690918 253.0 32.0 C 243.0 29.32050895690918 235.6794891357422 22.0 233.0 12.0 C 235.6794891357422 2.0 243.0 -5.320508003234863 253.0 -8.0 C 263.0 -5.320508003234863 270.32049560546875 2.0 273.0 12.0" stroke-width="0.0" fill="rgb(251, 252, 252)" opacity="1.0"/>
    <path d="M 241.0 14.0 C 238.3205108642578 24.0 231.0 31.32050895690918 221.0 34.0 C 211.0 31.32050895690918 203.6794891357422 24.0 201.0 14.0 C 203.6794891357422 4.0 211.0 -3.3205080032348633 221.0 -6.0 C 231.0 -3.3205080032348633 238.3205108642578 4.0 241.0 14.0" stroke-width="0.0" fill="rgb(251, 252, 252)" opacity="1.0"/>
    <path d="M 51.0 1.0 C 48.32050704956055 11.0 41.0 18.32050895690918 31.0 21.0 C 21.0 18.32050895690918 13.679491996765137 11.0 11.0 1.0 C 13.679491996765137 -9.0 21.0 -16.32050895690918 31.0 -19.0 C 41.0 -16.32050895690918 48.32050704956055 -9.0 51.0 1.0" stroke-width="0.0" fill="rgb(252, 252, 253)" opacity="1.0"/>
    <path d="M 220.0 13.0 C 217.3205108642578 23.0 210.0 30.32050895690918 200.0 33.0 C 190.0 30.32050895690918 182.6794891357422 23.0 180.0 13.0 C 182.6794891357422 3.0 190.0 -4.320508003234863 200.0 -7.0 C 210.0 -4.320508003234863 217.3205108642578 3.0 220.0 13.0" stroke-width="0.0" fill="rgb(251, 251, 252)" opacity="1.0"/>
    <path d="M 173.0 21.0 C 170.3205108642578 31.0 163.0 38.32050704956055 153.0 41.0 C 143.0 38.32050704956055 135.6794891357422 31.0 133.0 21.0 C 135.6794891357422 11.0 143.0 3.6794919967651367 153.0 1.0 C 163.0 3.6794919967651367 170.3205108642578 11.0 173.0 21.0" stroke-width="0.0" fill="rgb(251, 252, 252)" opacity="1.0"/>
    <path d="M 151.0 22.0 C 148.3205108642578 32.0 141.0 39.32050704956055 131.0 42.0 C 121.0 39.32050704956055 113.67948913574219 32.0 111.0 22.0 C 113.67948913574219 12.0 121.0 4.679491996765137 131.0 2.0 C 141.0 4.679491996765137 148.3205108642578 12.0 151.0 22.0" stroke-width="0.0" fill="rgb(251, 251, 252)" opacity="1.0"/>
    <path d="M 254.0 18.0 C 251.3205108642578 28.0 244.0 35.32050704956055 234.0 38.0 C 224.0 35.32050704956055 216.6794891357422 28.0 214.0 18.0 C 216.6794891357422 8.0 224.0 0.6794919371604919 234.0 -2.0 C 244.0 0.6794919371604919 251.3205108642578 8.0 254.0 18.0" stroke-width="0.0" fill="rgb(251, 251, 252)" opacity="1.0"/>
    <path d="M 169.0 0.0 C 166.3205108642578 10.0 159.0 17.32050895690918 149.0 20.0 C 139.0 17.32050895690918 131.6794891357422 10.0 129.0 2.4492935992912173e-15 C 131.6794891357422 -10.0 139.0 -17.32050895690918 149.0 -20.0 C 159.0 -17.32050895690918 166.3205108642578 -10.0 169.0 0.0" stroke-width="0.0" fill="rgb(251, 251, 252)" opacity="1.0"/>
    <path d="M 202.0 10.0 C 199.3205108642578 20.0 192.0 27.32050895690918 182.0 30.0 C 172.0 27.32050895690918 164.6794891357422 20.0 162.0 10.0 C 164.6794891357422 5.329070518200751e-15 172.0 -7.320508003234863 182.0 -10.0 C 192.0 -7.320508003234863 199.3205108642578 -8.881784197001252e-15 202.0 10.0" stroke-width="0.0" fill="rgb(251, 251, 252)" opacity="1.0"/>
    <path d="M 165.99996948242188 25.0000057220459 C 163.32107543945312 35.0018424987793 156.00758361816406 42.3414192199707 146.40301513671875 44.42710494995117 C 136.1597442626953 41.979881286621094 128.6978302001953 34.9515266418457 126.00059509277344 24.998355865478516 C 128.6794891357422 15.0 136.0 7.679491996765137 146.0 5.0 C 156.0 7.679491996765137 163.3205108642578 15.0 165.99996948242188 25.0000057220459" stroke-width="0.0" fill="rgb(253, 254, 254)" opacity="0.9909989"/>
    <path d="M 231.0003204345703 24.000375747680664 C 228.32276916503906 34.00505065917969 221.03224182128906 41.41608428955078 211.6613311767578 43.2136116027832 C 201.27554321289062 40.79917526245117 193.7091827392578 33.92031478881836 191.0008544921875 23.997589111328125 C 193.6794891357422 14.0 201.0 6.679491996765137 211.0 4.0 C 221.0 6.679491996765137 228.3205108642578 14.0 231.0003204345703 24.000375747680664" stroke-width="0.0" fill="rgb(253, 253, 254)" opacity="0.99313605"/>
    <path d="M 273.0 10.0 C 270.32049560546875 20.0 263.0 27.32050895690918 253.0 30.0 C 243.0 27.32050895690918 235.6794891357422 20.0 233.0 10.0 C 235.6794891357422 5.329070518200751e-15 243.0 -7.320508003234863 253.0 -10.0 C 263.0 -7.320508003234863 270.32049560546875 -8.881784197001252e-15 273.0 10.0" stroke-width="0.0" fill="rgb(252, 252, 252)" opacity="1.0"/>
    <path d="M 36.0 15.0 C 33.32050704956055 25.0 26.0 32.32050704956055 16.0 35.0 C 6.0 32.32050704956055 -1.3205081224441528 25.0 -4.0 15.0 C -1.3205081224441528 5.0 6.0 -2.3205080032348633 16.0 -5.0 C 26.0 -2.3205080032348633 33.32050704956055 5.0 36.0 15.0" stroke-width="0.0" fill="rgb(251, 252, 252)" opacity="1.0"/>
    <path d="M 51.0 10.0 C 48.32050704956055 20.0 41.0 27.32050895690918 31.0 30.0 C 21.0 27.32050895690918 13.679491996765137 20.0 11.0 10.0 C 13.679491996765137 5.329070518200751e-15 21.0 -7.320508003234863 31.0 -10.0 C 41.0 -7.320508003234863 48.32050704956055 -8.881784197001252e-15 51.0 10.0" stroke-width="0.0" fill="rgb(251, 251, 252)" opacity="1.0"/>
    <path d="M 228.00001525878906 19.000028610229492 C 225.3206787109375 29.00031089782715 218.0006103515625 36.32172775268555 208.00088500976562 39.00185012817383 C 198.0 36.32050704956055 190.6794891357422 29.0 188.0 19.0 C 190.6794891357422 9.0 198.0 1.6794918775558472 208.0 -1.0 C 218.0 1.6794918775558472 225.3205108642578 9.0 228.00001525878906 19.000028610229492" stroke-width="0.0" fill="rgb(251, 252, 252)" opacity="1.0"/>
    <path d="M 44.0 20.0 C 41.32050704956055 30.0 34.0 37.32050704956055 24.0 40.0 C 14.0 37.32050704956055 6.679491996765137 30.0 4.0 20.0 C 6.679491996765137 10.0 14.0 2.6794919967651367 24.0 0.0 C 34.0 2.6794919967651367 41.32050704956055 10.0 44.0 20.0" stroke-width="0.0" fill="rgb(251, 252, 252)" opacity="1.0"/>
    <path d="M 257.0 20.9999942779541 C 254.32046508789062 30.99991226196289 246.999755859375 38.31991958618164 236.952880859375 41.06976318359375 C 226.9444580078125 38.40693283081055 219.65667724609375 31.036325454711914 216.99693298339844 21.00494956970215 C 219.6794891357422 11.0 227.0 3.6794919967651367 237.0 1.0 C 247.0 3.6794919967651367 254.3205108642578 11.0 257.0 20.9999942779541" stroke-width="0.0" fill="rgb(253, 253, 253)" opacity="0.99948543"/>
    <path d="M 147.0 0.0 C 144.3205108642578 10.0 137.0 17.32050895690918 127.0 20.0 C 117.0 17.32050895690918 109.67948913574219 10.0 107.0 2.4492935992912173e-15 C 109.67948913574219 -10.0 117.0 -17.32050895690918 127.0 -20.0 C 137.0 -17.32050895690918 144.3205108642578 -10.0 147.0 0.0" stroke-width="0.0" fill="rgb(251, 251, 252)" opacity="1.0"/>
    <path d="M 143.0 17.0 C 140.3205108642578 27.0 133.0 34.32050704956055 123.0 37.0 C 113.0 34.32050704956055 105.67948913574219 27.0 103.0 17.0 C 105.67948913574219 7.0 113.0 -0.32050806283950806 123.0 -3.0 C 133.0 -0.32050806283950806 140.3205108642578 7.0 143.0 17.0" stroke-width="0.0" fill="rgb(251, 251, 251)" opacity="1.0"/>
    <path d="M 201.0 0.0 C 198.3205108642578 10.0 191.0 17.32050895690918 181.0 20.0 C 171.0 17.32050895690918 163.6794891357422 10.0 161.0 2.4492935992912173e-15 C 163.6794891357422 -10.0 171.0 -17.32050895690918 181.0 -20.0 C 191.0 -17.32050895690918 198.3205108642578 -10.0 201.0 0.0" stroke-width="0.0" fill="rgb(251, 252, 253)" opacity="1.0"/>
    <path d="M 152.0 21.0 C 149.3205108642578 31.0 142.0 38.32050704956055 132.0 41.0 C 122.0 38.32050704956055 114.67948913574219 31.0 112.0 21.0 C 114.67948913574219 11.0 122.0 3.6794919967651367 132.0 1.0 C 142.0 3.6794919967651367 149.3205108642578 11.0 152.0 21.0" stroke-width="0.0" fill="rgb(251, 251, 252)" opacity="1.0"/>
    <path d="M 270.0107421875 22.021530151367188 C 267.4437561035156 32.22538375854492 260.39385986328125 39.90199661254883 250.52761840820312 42.748077392578125 C 239.9959259033203 39.32740783691406 232.67568969726562 32.0032844543457 229.99815368652344 22.00149154663086 C 232.6794891357422 12.0 240.0 4.679491996765137 250.0 2.0 C 260.0 4.679491996765137 267.32049560546875 12.0 270.0107421875 22.021530151367188" stroke-width="0.0" fill="rgb(253, 254, 254)" opacity="0.99108654"/>
    <path d="M 228.0 6.0 C 225.3205108642578 16.0 218.0 23.32050895690918 208.0 26.0 C 198.0 23.32050895690918 190.6794891357422 16.0 188.0 6.0 C 190.6794891357422 -4.0 198.0 -11.320508003234863 208.0 -14.0 C 218.0 -11.320508003234863 225.3205108642578 -4.0 228.0 6.0" stroke-width="0.0" fill="rgb(251, 251, 252)" opacity="1.0"/>
    <path d="M 150.0 23.0 C 147.3205108642578 33.0 140.0 40.32050704956055 130.0 43.0 C 120.0 40.32050704956055 112.67948913574219 33.0 110.0 23.0 C 112.67948913574219 13.0 120.0 5.679491996765137 130.0 3.0 C 140.0 5.679491996765137 147.3205108642578 13.0 150.0 23.0" stroke-width="0.0" fill="rgb(251, 251, 252)" opacity="1.0"/>
    <path d="M 32.0 1.0 C 29.32050895690918 11.0 22.0 18.32050895690918 12.0 21.0 C 2.0 18.32050895690918 -5.320508003234863 11.0 -8.0 1.0 C -5.320508003234863 -9.0 2.0 -16.32050895690918 12.0 -19.0 C 22.0 -16.32050895690918 29.32050895690918 -9.0 32.0 1.0" stroke-width="0.0" fill="rgb(251, 251, 252)" opacity="1.0"/>
    <path d="M 236.0 14.0 C 233.3205108642578 24.0 226.0 31.32050895690918 216.0 34.0 C 206.0 31.32050895690918 198.6794891357422 24.0 196.0 14.0 C 198.6794891357422 4.0 206.0 -3.3205080032348633 216.0 -6.0 C 226.0 -3.3205080032348633 233.3205108642578 4.0 236.0 14.0" stroke-width="0.0" fill="rgb(252, 252, 253)" opacity="1.0"/>
    <path d="M 225.0 10.0 C 222.3205108642578 20.0 215.0 27.32050895690918 205.0 30.0 C 195.0 27.32050895690918 187.6794891357422 20.0 185.0 10.0 C 187.6794891357422 5.329070518200751e-15 195.0 -7.320508003234863 205.0 -10.0 C 215.0 -7.320508003234863 222.3205108642578 -8.881784197001252e-15 225.0 10.0" stroke-width="0.0" fill="rgb(251, 251, 252)" opacity="1.0"/>
    <path d="M 139.0 11.0 C 136.3205108642578 21.0 129.0 28.32050895690918 119.00946044921875 30.99571990966797 C 109.12967681884766 28.2570743560791 102.06645202636719 20.761425018310547 98.17793273925781 10.827680587768555 C 101.611328125 0.9800882935523987 108.99934387207031 -6.320663928985596 119.00000762939453 -8.99999713897705 C 129.0 -6.320508003234863 136.3205108642578 1.0 139.0 11.0" stroke-width="0.0" fill="rgb(253, 253, 254)" opacity="0.9911825"/>
    <path d="M 159.0 6.0 C 156.3205108642578 16.0 149.0 23.32050895690918 139.0 26.0 C 129.0 23.32050895690918 121.67948913574219 16.0 119.0 6.0 C 121.67948913574219 -4.0 129.0 -11.320508003234863 139.0 -14.0 C 149.0 -11.320508003234863 156.3205108642578 -4.0 159.0 6.0" stroke-width="0.0" fill="rgb(251, 252, 252)" opacity="1.0"/>
    <path d="M 39.0 23.0 C 36.32050704956055 33.0 29.0 40.32050704956055 19.0 43.0 C 9.0 40.32050704956055 1.6794918775558472 33.0 -1.0 23.0 C 1.6794918775558472 13.0 9.0 5.679491996765137 19.0 3.0 C 29.0 5.679491996765137 36.32050704956055 13.0 39.0 23.0" stroke-width="0.0" fill="rgb(251, 251, 252)" opacity="1.0"/>
    <path d="M 240.0 5.0 C 237.3205108642578 15.0 230.0 22.32050895690918 220.0 25.0 C 210.0 22.32050895690918 202.6794891357422 15.0 200.0 5.0 C 202.6794891357422 -5.0 210.0 -12.320508003234863 220.0 -15.0 C 230.0 -12.320508003234863 237.3205108642578 -5.0 240.0 5.0" stroke-width="0.0" fill="rgb(252, 252, 253)" opacity="1.0"/>
    <path d="M 152.0 5.0 C 149.3205108642578 15.0 142.0 22.32050895690918 132.0 25.0 C 122.0 22.32050895690918 114.67948913574219 15.0 112.0 5.0 C 114.67948913574219 -5.0 122.0 -12.320508003234863 132.0 -15.0 C 142.0 -12.320508003234863 149.3205108642578 -5.0 152.0 5.0" stroke-width="0.0" fill="rgb(251, 251, 252)" opacity="1.0"/>
    <path d="M 182.0 14.0 C 179.3205108642578 24.0 172.0 31.32050895690918 162.0 34.0 C 152.0 31.32050895690918 144.6794891357422 24.0 142.0 14.0 C 144.6794891357422 4.0 152.0 -3.3205080032348633 162.0 -6.0 C 172.0 -3.3205080032348633 179.3205108642578 4.0 182.0 14.0" stroke-width="0.0" fill="rgb(251, 251, 251)" opacity="1.0"/>
    <path d="M 30.0 4.0 C 27.32050895690918 14.0 20.0 21.32050895690918 10.0 24.0 C 3.552713678800501e-15 21.32050895690918 -7.320508003234863 14.0 -10.0 4.0 C -7.320508003234863 -6.0 -8.881784197001252e-15 -13.320508003234863 10.0 -16.0 C 20.0 -13.320508003234863 27.32050895690918 -6.0 30.0 4.0" stroke-width="0.0" fill="rgb(251, 251, 252)" opacity="1.0"/>
    <path d="M 137.0 1.0 C 134.3205108642578 11.0 127.0 18.32050895690918 117.00041961669922 20.999818801879883 C 107.02169036865234 18.31336784362793 99.85687255859375 10.925223350524902 96.29322052001953 1.215962290763855 C 99.65374755859375 -9.007674217224121 106.99938201904297 -16.320693969726562 116.99999237060547 -19.000001907348633 C 127.0 -16.32050895690918 134.3205108642578 -9.0 137.0 1.0" stroke-width="0.0" fill="rgb(253, 253, 253)" opacity="0.99106306"/>
    <path d="M 210.0 18.0 C 207.3205108642578 28.0 200.0 35.32050704956055 190.0 38.0 C 180.0 35.32050704956055 172.6794891357422 28.0 170.0 18.0 C 172.6794891357422 8.0 180.0 0.6794919371604919 190.0 -2.0 C 200.0 0.6794919371604919 207.3205108642578 8.0 210.0 18.0" stroke-width="0.0" fill="rgb(251, 251, 252)" opacity="1.0"/>
    <path d="M 205.0 1.0 C 202.3205108642578 11.0 195.0 18.32050895690918 185.0 21.0 C 175.0 18.32050895690918 167.6794891357422 11.0 165.0 1.0 C 167.6794891357422 -9.0 175.0 -16.32050895690918 185.0 -19.0 C 195.0 -16.32050895690918 202.3205108642578 -9.0 205.0 1.0" stroke-width="0.0" fill="rgb(252, 252, 253)" opacity="1.0"/>
    <path d="M 272.0 15.0 C 269.32049560546875 25.0 262.0 32.32050704956055 252.0 35.0 C 242.0 32.32050704956055 234.6794891357422 25.0 232.0 15.0 C 234.6794891357422 5.0 242.0 -2.3205080032348633 252.0 -5.0 C 262.0 -2.3205080032348633 269.32049560546875 5.0 272.0 15.0" stroke-width="0.0" fill="rgb(252, 252, 252)" opacity="1.0"/>
    <path d="M 204.0 13.0 C 201.3205108642578 23.0 194.0 30.32050895690918 184.0 33.0 C 174.0 30.32050895690918 166.6794891357422 23.0 164.0 13.0 C 166.6794891357422 3.0 174.0 -4.320508003234863 184.0 -7.0 C 194.0 -4.320508003234863 201.3205108642578 3.0 204.0 13.0" stroke-width="0.0" fill="rgb(251, 251, 252)" opacity="1.0"/>
    <path d="M 272.0 16.000001907348633 C 269.3205261230469 26.00006103515625 262.0002136230469 33.32112121582031 251.99798583984375 36.0088996887207 C 241.99656677246094 33.32526779174805 234.67689514160156 26.002805709838867 231.99908447265625 16.0008602142334 C 234.6794891357422 6.0 242.0 -1.3205081224441528 252.0 -4.0 C 262.0 -1.3205081224441528 269.32049560546875 6.0 272.0 16.000001907348633" stroke-width="0.0" fill="rgb(254, 254, 255)" opacity="1.0"/>
    <path d="M 24.0 13.0 C 21.32050895690918 23.0 14.0 30.32050895690918 4.0 33.0 C -6.0 30.32050895690918 -13.320508003234863 23.0 -16.0 13.0 C -13.320508003234863 3.0 -6.0 -4.320508003234863 4.0 -7.0 C 14.0 -4.320508003234863 21.32050895690918 3.0 24.0 13.0" stroke-width="0.0" fill="rgb(251, 251, 251)" opacity="1.0"/>
    <path d="M 20.0 7.0 C 17.32050895690918 17.0 10.0 24.32050895690918 1.2246467996456087e-15 27.0 C -10.0 24.32050895690918 -17.32050895690918 17.0 -20.0 7.0 C -17.32050895690918 -3.0 -10.0 -10.320508003234863 -3.673940187178589e-15 -13.0 C 10.0 -10.320508003234863 17.32050895690918 -3.0 20.0 7.0" stroke-width="0.0" fill="rgb(252, 252, 252)" opacity="1.0"/>
    <path d="M 239.99951171875 16.99970245361328 C 237.32005310058594 27.00002098083496 230.00050354003906 34.3216667175293 220.00076293945312 37.00098419189453 C 210.0000457763672 34.320396423339844 202.67950439453125 26.99997901916504 200.0 16.999998092651367 C 202.6794891357422 7.0 210.0 -0.32050806283950806 220.0 -3.0 C 230.0 -0.32050806283950806 237.3205108642578 7.0 239.99951171875 16.99970245361328" stroke-width="0.0" fill="rgb(253, 253, 254)" opacity="0.99951094"/>
    <path d="M 241.9999542236328 5.9999470710754395 C 239.32029724121094 15.999719619750977 231.9996795654297 23.320178985595703 222.00027465820312 26.00133514404297 C 212.0 23.32050895690918 204.6794891357422 16.0 202.0 6.0 C 204.6794891357422 -4.0 212.0 -11.320508003234863 222.0 -14.0 C 232.0 -11.320508003234863 239.3205108642578 -4.0 241.9999542236328 5.9999470710754395" stroke-width="0.0" fill="rgb(250, 250, 251)" opacity="0.9998128"/>
    <path d="M 149.0 18.0 C 146.3205108642578 28.0 139.0 35.32050704956055 129.0 38.0 C 119.0 35.32050704956055 111.67948913574219 28.0 109.0 18.0 C 111.67948913574219 8.0 119.0 0.6794919371604919 129.0 -2.0 C 139.0 0.6794919371604919 146.3205108642578 8.0 149.0 18.0" stroke-width="0.0" fill="rgb(251, 251, 252)" opacity="1.0"/>
    <path d="M 41.000221252441406 25.00018882751465 C 38.32100296020508 35.00042724609375 31.000377655029297 42.320838928222656 21.000099182128906 45.00008773803711 C 11.0 42.32050704956055 3.6794919967651367 35.0 1.0 25.0 C 3.6794919967651367 15.0 11.0 7.679491996765137 21.0 5.0 C 31.0 7.679491996765137 38.32050704956055 15.0 41.000221252441406 25.00018882751465" stroke-width="0.0" fill="rgb(251, 252, 252)" opacity="1.0"/>
    <path d="M 34.0 7.0 C 31.32050895690918 17.0 24.0 24.32050895690918 14.0 27.0 C 4.0 24.32050895690918 -3.3205080032348633 17.0 -6.0 7.0 C -3.3205080032348633 -3.0 4.0 -10.320508003234863 14.0 -13.0 C 24.0 -10.320508003234863 31.32050895690918 -3.0 34.0 7.0" stroke-width="0.0" fill="rgb(251, 251, 252)" opacity="1.0"/>
    <path d="M 28.0 1.0 C 25.32050895690918 11.0 18.0 18.32050895690918 8.0 21.0 C -2.0 18.32050895690918 -9.320508003234863 11.0 -12.0 1.0 C -9.320508003234863 -9.0 -2.0 -16.32050895690918 8.0 -19.0 C 18.0 -16.32050895690918 25.32050895690918 -9.0 28.0 1.0" stroke-width="0.0" fill="rgb(252, 252, 253)" opacity="1.0"/>
    <path d="M 33.00112533569336 28.002336502075195 C 30.335845947265625 38.03204345703125 23.069072723388672 45.457176208496094 13.04450511932373 48.633846282958984 C 3.446131467819214 44.75925827026367 -4.076732158660889 37.65739440917969 -6.959326267242432 27.935819625854492 C -4.320508003234863 18.0 3.0 10.679491996765137 13.0 8.0 C 23.0 10.679491996765137 30.32050895690918 18.0 33.00112533569336 28.002336502075195" stroke-width="0.0" fill="rgb(253, 254, 254)" opacity="0.99050736"/>
    <path d="M 271.0 12.999994277954102 C 268.3204345703125 22.9998779296875 260.9996032714844 30.319517135620117 251.00123596191406 32.990806579589844 C 241.00262451171875 30.316553115844727 233.68087768554688 22.99812889099121 230.99998474121094 12.999669075012207 C 233.6793975830078 2.9999334812164307 240.9999542236328 -4.3205413818359375 251.0 -7.000003814697266 C 261.0 -4.320508003234863 268.32049560546875 3.0 271.0 12.999994277954102" stroke-width="0.0" fill="rgb(253, 254, 254)" opacity="0.9986173"/>
    <path d="M 20.002307891845703 25.00575065612793 C 17.37052345275879 35.116573333740234 10.304643630981445 42.854068756103516 0.6797233819961548 45.866458892822266 C -10.0 42.32050704956055 -17.32050895690918 35.0 -20.0 25.0 C -17.32050895690918 15.0 -10.0 7.679491996765137 -0.00025278821703977883 5.00083065032959 C 9.999972343444824 7.6795783042907715 17.320507049560547 15.000003814697266 20.002307891845703 25.00575065612793" stroke-width="0.0" fill="rgb(253, 252, 253)" opacity="0.9919679"/>
    <path d="M 140.0 22.0 C 137.3205108642578 32.0 130.0 39.32050704956055 119.2523193359375 42.82271194458008 C 109.20113372802734 40.17679214477539 102.0421142578125 32.7313346862793 99.30548858642578 22.187562942504883 C 102.82134246826172 12.0505952835083 110.00791931152344 4.680817127227783 119.99971771240234 1.999882698059082 C 130.0 4.679491996765137 137.3205108642578 12.0 140.0 22.0" stroke-width="0.0" fill="rgb(252, 253, 253)" opacity="0.99036616"/>
    <path d="M 45.0 14.0 C 42.32050704956055 24.0 35.0 31.32050895690918 25.0 34.0 C 15.0 31.32050895690918 7.679491996765137 24.0 5.0 14.0 C 7.679491996765137 4.0 15.0 -3.3205080032348633 25.0 -6.0 C 35.0 -3.3205080032348633 42.32050704956055 4.0 45.0 14.0" stroke-width="0.0" fill="rgb(251, 252, 252)" opacity="1.0"/>
    <path d="M 33.0 20.0 C 30.32050895690918 30.0 23.0 37.32050704956055 12.998397827148438 40.00213623046875 C 2.997072219848633 37.32426834106445 -4.322431564331055 30.002378463745117 -7.000532627105713 20.000455856323242 C -4.32078742980957 9.999687194824219 2.9996466636657715 2.6790783405303955 12.999835968017578 -0.00020392020815052092 C 23.0 2.6794919967651367 30.32050895690918 10.0 33.0 20.0" stroke-width="0.0" fill="rgb(252, 251, 252)" opacity="0.9999813"/>
    <path d="M 147.0 23.0 C 144.3205108642578 33.0 137.0 40.32050704956055 127.0 43.0 C 116.99999237060547 40.32050704956055 109.67935943603516 33.000038146972656 106.99149322509766 22.99761390686035 C 109.67646026611328 12.998490333557129 116.9992446899414 5.6790771484375 126.99992370605469 2.99995493888855 C 137.0 5.679491996765137 144.3205108642578 13.0 147.0 23.0" stroke-width="0.0" fill="rgb(252, 252, 253)" opacity="1.0"/>
    <path d="M 182.0 15.0 C 179.3205108642578 25.0 172.0 32.32050704956055 162.0 35.0 C 152.0 32.32050704956055 144.6794891357422 25.0 142.0 15.0 C 144.6794891357422 5.0 152.0 -2.3205080032348633 162.0 -5.0 C 172.0 -2.3205080032348633 179.3205108642578 5.0 182.0 15.0" stroke-width="0.0" fill="rgb(251, 251, 251)" opacity="1.0"/>
    <path d="M 236.00059509277344 4.999969005584717 C 233.3209228515625 15.000398635864258 226.00039672851562 22.320926666259766 216.00015258789062 25.000164031982422 C 206.0 22.32050895690918 198.6794891357422 15.0 196.0 5.0 C 198.6794891357422 -5.0 206.0 -12.320508003234863 216.0 -15.000000953674316 C 226.00001525878906 -12.320517539978027 233.3206787109375 -5.000064849853516 236.00059509277344 4.999969005584717" stroke-width="0.0" fill="rgb(252, 249, 253)" opacity="0.9999141"/>
    <path d="M 225.0004119873047 20.000011444091797 C 222.3201141357422 29.999465942382812 214.99923706054688 37.3193359375 204.9993896484375 39.999000549316406 C 195.0 37.32050704956055 187.6794891357422 30.0 185.0 20.0 C 187.6794891357422 10.0 195.0 2.6794919967651367 205.00001525878906 -6.633406883338466e-05 C 214.9999237060547 2.6795120239257812 222.32037353515625 10.000120162963867 225.0004119873047 20.000011444091797" stroke-width="0.0" fill="rgb(253, 253, 253)" opacity="0.9999199"/>
    <path d="M 159.9999237060547 22.999889373779297 C 157.32005310058594 32.99932861328125 150.00030517578125 40.32379913330078 139.4535369873047 43.79545593261719 C 129.7744598388672 40.75914001464844 122.64811706542969 33.0756950378418 119.99858093261719 23.003490447998047 C 122.67948913574219 13.0 130.0 5.679491996765137 140.0 3.0 C 150.0 5.679491996765137 157.3205108642578 13.0 159.9999237060547 22.999889373779297" stroke-width="0.0" fill="rgb(253, 253, 254)" opacity="0.99246186"/>
    <path d="M 163.0 20.0 C 160.3205108642578 30.0 153.0 37.32050704956055 143.0 40.0 C 133.0 37.32050704956055 125.67948913574219 30.0 123.0 20.0 C 125.67948913574219 10.0 133.0 2.6794919967651367 143.0 0.0 C 153.0 2.6794919967651367 160.3205108642578 10.0 163.0 20.0" stroke-width="0.0" fill="rgb(253, 253, 254)" opacity="1.0"/>
    <path d="M 155.0 5.0 C 152.3205108642578 15.0 145.0 22.32050895690918 135.0 25.0 C 125.0 22.32050895690918 117.67948913574219 15.0 115.0 5.0 C 117.67948913574219 -5.0 125.0 -12.320508003234863 135.0 -15.0 C 145.0 -12.320508003234863 152.3205108642578 -5.0 155.0 5.0" stroke-width="0.0" fill="rgb(251, 252, 252)" opacity="1.0"/>
    <path d="M 183.0 8.0 C 180.3205108642578 18.0 173.0 25.32050895690918 163.0 28.0 C 153.0 25.32050895690918 145.6794891357422 18.0 143.0 8.0 C 145.6794891357422 -2.0 153.0 -9.320508003234863 163.0 -12.0 C 173.0 -9.320508003234863 180.3205108642578 -2.0 183.0 8.0" stroke-width="0.0" fill="rgb(251, 251, 252)" opacity="1.0"/>
    <path d="M 206.0 9.0 C 203.3205108642578 19.0 196.0 26.32050895690918 186.0 29.0 C 176.0 26.32050895690918 168.6794891357422 19.0 165.9998779296875 8.999913215637207 C 168.67930603027344 -1.0001219511032104 175.99990844726562 -8.320565223693848 185.99998474121094 -11.000008583068848 C 196.0 -8.320508003234863 203.3205108642578 -1.0 206.0 9.0" stroke-width="0.0" fill="rgb(252, 253, 253)" opacity="1.0"/>
    <path d="M 144.0 2.0 C 141.3205108642578 12.0 134.0 19.32050895690918 123.99960327148438 22.000316619873047 C 113.99807739257812 19.321977615356445 106.67572784423828 12.002595901489258 103.99488067626953 2.0019078254699707 C 106.67938232421875 -8.00003433227539 113.99999237060547 -15.320509910583496 124.0 -18.0 C 134.0 -15.320508003234863 141.3205108642578 -8.0 144.0 2.0" stroke-width="0.0" fill="rgb(253, 253, 254)" opacity="1.0"/>
    <path d="M 208.0 14.0 C 205.3205108642578 24.0 198.0 31.32050895690918 188.0 34.0 C 178.0 31.32050895690918 170.6794891357422 24.0 168.0 14.0 C 170.6794891357422 4.0 178.0 -3.3205080032348633 188.0 -6.0 C 198.0 -3.3205080032348633 205.3205108642578 4.0 208.0 14.0" stroke-width="0.0" fill="rgb(251, 252, 252)" opacity="1.0"/>
    <path d="M 147.03370666503906 26.04697036743164 C 144.47608947753906 36.18069839477539 137.09840393066406 43.12810516357422 127.17887878417969 45.26242446899414 C 117.48455810546875 42.64209747314453 109.75501251220703 35.73961639404297 106.96602630615234 26.015453338623047 C 109.67940521240234 15.999975204467773 117.0 8.67949104309082 127.0 6.0 C 137.0 8.679491996765137 144.3205108642578 16.0 147.03370666503906 26.04697036743164" stroke-width="0.0" fill="rgb(253, 253, 254)" opacity="0.99056387"/>
    <path d="M 222.00100708007812 21.000776290893555 C 219.322509765625 31.0015811920166 212.00132751464844 38.32167434692383 202.0003662109375 41.000343322753906 C 192.0 38.32050704956055 184.6794891357422 31.0 182.0 21.0 C 184.6794891357422 11.0 192.0 3.6794919967651367 202.0000457763672 0.9999645948410034 C 212.0001678466797 3.6793582439422607 219.32077026367188 10.999800682067871 222.00100708007812 21.000776290893555" stroke-width="0.0" fill="rgb(253, 253, 253)" opacity="1.0"/>
    <path d="M 43.0 10.0 C 40.32050704956055 20.0 33.0 27.32050895690918 23.0 30.0 C 12.999984741210938 27.32051658630371 5.679396152496338 20.00004005432129 2.9995312690734863 10.000022888183594 C 5.679462432861328 -3.891158030455699e-06 13.000004768371582 -7.3205037117004395 23.000001907348633 -9.999999046325684 C 33.0 -7.320508003234863 40.32050704956055 -8.881784197001252e-15 43.0 10.0" stroke-width="0.0" fill="rgb(251, 250, 251)" opacity="1.0"/>
    <path d="M 178.99986267089844 15.000134468078613 C 176.3205108642578 25.0 169.0 32.32050704956055 159.0 35.0 C 149.0 32.32050704956055 141.6794891357422 25.0 139.0 15.0 C 141.6794891357422 5.0 149.0 -2.3205080032348633 158.9998321533203 -4.999812602996826 C 168.99954223632812 -2.3200154304504395 176.32008361816406 5.000441074371338 178.99986267089844 15.000134468078613" stroke-width="0.0" fill="rgb(253, 253, 254)" opacity="0.99985"/>
    <path d="M 39.955989837646484 25.922948837280273 C 37.03301239013672 35.60536193847656 29.500892639160156 42.710391998291016 19.44873809814453 46.70965576171875 C 9.952226638793945 43.46137237548828 2.6756246089935303 36.00668716430664 -0.0008500182302668691 26.00098991394043 C 2.679673194885254 16.000192642211914 10.000213623046875 8.679739952087402 20.000099182128906 6.000124931335449 C 30.0 8.679491996765137 37.32050704956055 16.0 39.955989837646484 25.922948837280273" stroke-width="0.0" fill="rgb(253, 254, 254)" opacity="0.99088013"/>
    <path d="M 149.0 20.0 C 146.3205108642578 30.0 139.0 37.32050704956055 129.0 40.0 C 119.0 37.32050704956055 111.67948913574219 30.0 109.0 20.0 C 111.67948913574219 10.0 119.0 2.6794919967651367 129.0 0.0 C 139.0 2.6794919967651367 146.3205108642578 10.0 149.0 20.0" stroke-width="0.0" fill="rgb(253, 253, 254)" opacity="1.0"/>
    <path d="M 179.0561981201172 21.047311782836914 C 176.43572998046875 31.10393714904785 169.09735107421875 38.413818359375 159.03350830078125 41.02413558959961 C 149.00071716308594 38.318931579589844 141.67965698242188 30.99968719482422 139.00001525878906 20.999971389770508 C 141.6794891357422 11.0 149.0 3.6794919967651367 159.0 1.0 C 169.0 3.6794919967651367 176.3205108642578 11.0 179.0561981201172 21.047311782836914" stroke-width="0.0" fill="rgb(253, 253, 254)" opacity="1.0"/>
    <path d="M 158.0 3.0 C 155.3205108642578 13.0 148.0 20.32050895690918 138.00006103515625 22.999948501586914 C 128.0002899169922 20.32028579711914 120.6801986694336 12.999561309814453 118.0018539428711 2.9997384548187256 C 120.67962646484375 -6.999950885772705 128.00001525878906 -14.320504188537598 138.0 -17.0 C 148.0 -14.320508003234863 155.3205108642578 -7.0 158.0 3.0" stroke-width="0.0" fill="rgb(250, 250, 251)" opacity="0.99992824"/>
    <path d="M 52.77482986450195 10.510758399963379 C 49.32892608642578 21.00267219543457 42.00038528442383 28.320629119873047 32.000003814697266 31.000001907348633 C 22.0 28.32050895690918 14.679491996765137 21.0 12.000391960144043 11.000203132629395 C 14.679821968078613 1.0002069473266602 22.000139236450195 -6.320409774780273 32.0001335144043 -9.000051498413086 C 42.0035400390625 -6.321751594543457 49.45783233642578 0.9557429552078247 52.77482986450195 10.510758399963379" stroke-width="0.0" fill="rgb(253, 254, 254)" opacity="0.99200046"/>
    <path d="M 211.0 20.0 C 208.3205108642578 30.0 201.0 37.32050704956055 190.9370574951172 40.08736038208008 C 180.89097595214844 37.45308303833008 173.58998107910156 30.096065521240234 170.96743774414062 20.03126335144043 C 173.6794891357422 10.0 181.0 2.6794919967651367 191.0 0.0 C 201.0 2.6794919967651367 208.3205108642578 10.0 211.0 20.0" stroke-width="0.0" fill="rgb(253, 253, 254)" opacity="1.0"/>
    <path d="M 211.99960327148438 5.000054359436035 C 209.3205108642578 14.999999046325684 202.0 22.32050895690918 191.99978637695312 25.00016975402832 C 181.99896240234375 22.3212833404541 174.67710876464844 15.001502990722656 171.99575805664062 5.001408576965332 C 174.67941284179688 -5.000024795532227 182.0 -12.32050895690918 192.0 -15.0 C 202.0 -12.320507049560547 209.3204803466797 -4.9999895095825195 211.99960327148438 5.000054359436035" stroke-width="0.0" fill="rgb(253, 253, 254)" opacity="1.0"/>
    <path d="M 217.9973602294922 25.00031089782715 C 215.33895874023438 35.054962158203125 208.23324584960938 42.797183990478516 198.31069946289062 45.91423797607422 C 187.4676055908203 43.00544357299805 180.41697692871094 35.3795166015625 177.9516143798828 25.069042205810547 C 180.6794891357422 15.000053405761719 188.00013732910156 7.6797566413879395 198.00006103515625 5.000951766967773 C 207.99984741210938 7.679663181304932 215.3202362060547 15.000186920166016 217.9973602294922 25.00031089782715" stroke-width="0.0" fill="rgb(248, 248, 249)" opacity="0.9905172"/>
    <path d="M 159.99908447265625 4.999979496002197 C 157.32034301757812 14.99996280670166 150.00003051757812 22.32057762145996 140.00022888183594 24.999248504638672 C 130.0001983642578 22.32014274597168 122.67941284179688 14.999927520751953 119.99922943115234 4.999959468841553 C 122.6793212890625 -5.000072002410889 129.99996948242188 -12.32051944732666 140.0 -15.0 C 149.99996948242188 -12.320497512817383 157.3203582763672 -4.999935150146484 159.99908447265625 4.999979496002197" stroke-width="0.0" fill="rgb(252, 249, 250)" opacity="0.99986076"/>
  </g>
</svg>
