<?xml version="1.0" ?>
<svg xmlns="http://www.w3.org/2000/svg" version="1.1" width="600" height="600">
  <defs/>
  <g>
    <path d="M 331.95941162109375 17.10878562927246 C 344.32305908203125 -6.745725154876709 347.5386962890625 -8.823148727416992 355.5755310058594 -7.917750358581543 C 354.40447998046875 18.61776351928711 356.6779479980469 21.611204147338867 354.2796630859375 28.247962951660156 C 350.6484680175781 27.466148376464844 355.285400390625 31.276344299316406 352.6944580078125 41.625999450683594 C 342.6417236328125 34.80476760864258 337.19256591796875 34.16995620727539 331.95941162109375 17.10878562927246" stroke-width="0.0" fill="rgb(36, 37, 35)" opacity="0.8976833"/>
    <path d="M 466.2317810058594 29.371702194213867 C 474.5092468261719 49.383609771728516 511.4132385253906 46.40110397338867 510.0284423828125 40.7689323425293 C 505.8039245605469 49.326168060302734 524.3765869140625 50.16497039794922 533.4714965820312 1.5342258214950562 C 517.6271362304688 -15.484367370605469 496.82275390625 -8.830883979797363 495.9953308105469 0.9531609416007996 C 496.1021728515625 14.093960762023926 499.5448303222656 11.667757987976074 466.2317810058594 29.371702194213867" stroke-width="0.0" fill="rgb(38, 38, 37)" opacity="0.94145256"/>
    <path d="M 591.0399169921875 516.1156005859375 C 591.69970703125 513.1278076171875 594.309326171875 511.0335998535156 600.7902221679688 514.1489868164062 C 600.0394287109375 515.7609252929688 593.563720703125 515.9637451171875 582.1619262695312 517.3865966796875 C 572.373046875 516.9921264648438 561.9666748046875 520.7952270507812 555.4352416992188 482.3986511230469 C 600.050537109375 488.1524963378906 595.9696044921875 492.20977783203125 591.0399169921875 516.1156005859375" stroke-width="0.0" fill="rgb(32, 33, 31)" opacity="0.9463918"/>
    <path d="M 536.39697265625 503.1910705566406 C 573.7151489257812 497.2794189453125 575.2642822265625 499.4183654785156 572.1033325195312 548.1332397460938 C 536.0079956054688 540.6270751953125 546.829833984375 517.626953125 532.7980346679688 518.0443725585938 C 531.478759765625 530.5512084960938 528.2391967773438 527.0908203125 529.4722290039062 553.156494140625 C 557.5573120117188 552.3199462890625 544.070068359375 548.1785888671875 536.39697265625 503.1910705566406" stroke-width="0.0" fill="rgb(24, 26, 24)" opacity="1.0"/>
    <path d="M 493.8243713378906 593.3690795898438 C 473.4700622558594 597.6686401367188 471.6737060546875 595.5550537109375 473.50787353515625 566.1298217773438 C 495.8804931640625 563.9876708984375 489.4331359863281 574.03662109375 490.31268310546875 585.05615234375 C 503.4164123535156 585.7996826171875 504.5264892578125 582.5036010742188 503.959228515625 572.4450073242188 C 490.4990539550781 563.9791870117188 493.7190856933594 562.6721801757812 493.8243713378906 593.3690795898438" stroke-width="0.0" fill="rgb(5, 4, 2)" opacity="1.0"/>
    <path d="M 556.7012329101562 487.0797424316406 C 555.8991088867188 493.94256591796875 554.0457153320312 488.84197998046875 550.7789916992188 529.655029296875 C 582.5880126953125 538.8245849609375 587.9301147460938 529.0203247070312 589.8065185546875 522.1231689453125 C 590.7463989257812 516.5132446289062 589.9259643554688 517.025146484375 605.2574462890625 536.27783203125 C 609.1076049804688 523.7613525390625 604.1946411132812 511.6051330566406 556.7012329101562 487.0797424316406" stroke-width="0.0" fill="rgb(20, 21, 19)" opacity="1.0"/>
    <path d="M 217.0745391845703 36.967037200927734 C 232.72930908203125 35.261478424072266 230.51971435546875 37.6592903137207 224.25625610351562 37.048309326171875 C 231.2135467529297 36.387264251708984 234.77841186523438 33.21517562866211 234.6582794189453 6.1425909996032715 C 208.74169921875 4.699618816375732 203.4250946044922 8.802900314331055 198.67225646972656 15.274943351745605 C 197.98910522460938 40.10535430908203 197.84048461914062 36.663291931152344 217.0745391845703 36.967037200927734" stroke-width="0.0" fill="rgb(16, 16, 14)" opacity="0.9878066"/>
    <path d="M 132.7406768798828 577.5780029296875 C 157.4377899169922 574.8936157226562 151.1409454345703 576.03857421875 155.20265197753906 576.4747314453125 C 153.7833709716797 600.1231079101562 159.78257751464844 608.5225830078125 140.48658752441406 610.2471923828125 C 139.0269012451172 586.9150390625 126.62452697753906 572.9491577148438 117.04679107666016 600.180908203125 C 152.34335327148438 612.232177734375 136.6224822998047 601.1405639648438 132.7406768798828 577.5780029296875" stroke-width="0.0" fill="rgb(18, 19, 18)" opacity="0.9998671"/>
    <path d="M 578.3480224609375 403.126220703125 C 587.0879516601562 411.9070739746094 589.9729614257812 411.3973388671875 590.0660400390625 422.6786804199219 C 599.4467163085938 426.5241394042969 606.7582397460938 425.5649719238281 611.89599609375 420.7261962890625 C 611.462646484375 386.6566162109375 611.944580078125 376.2243957519531 600.989990234375 373.28076171875 C 583.2261962890625 395.400634765625 582.47021484375 395.77032470703125 578.3480224609375 403.126220703125" stroke-width="0.0" fill="rgb(0, 0, 0)" opacity="1.0"/>
    <path d="M 305.7964172363281 610.5542602539062 C 321.78759765625 612.18896484375 326.31036376953125 611.6063232421875 327.3428649902344 586.961181640625 C 303.3118591308594 578.0646362304688 295.8818664550781 582.6752319335938 299.62261962890625 582.2254638671875 C 293.6781921386719 581.3907470703125 286.1308288574219 578.5445556640625 267.4929504394531 603.8482666015625 C 275.14239501953125 614.4799194335938 284.6396484375 610.9000854492188 305.7964172363281 610.5542602539062" stroke-width="0.0" fill="rgb(24, 24, 23)" opacity="1.0"/>
    <path d="M 288.2934875488281 566.8853149414062 C 280.2518005371094 566.823486328125 277.1922912597656 568.6976928710938 267.3508605957031 596.06689453125 C 287.69903564453125 590.798828125 291.3704833984375 585.8173217773438 288.9107971191406 582.3140869140625 C 294.276611328125 585.0824584960938 297.07293701171875 583.864501953125 314.287353515625 582.1008911132812 C 316.8396911621094 561.0598754882812 312.5058288574219 564.2874145507812 288.2934875488281 566.8853149414062" stroke-width="0.0" fill="rgb(11, 11, 10)" opacity="1.0"/>
    <path d="M 594.8015747070312 326.22509765625 C 611.2681884765625 328.41253662109375 611.9658203125 337.3974914550781 610.422607421875 363.9135437011719 C 605.063232421875 365.4845886230469 599.42529296875 368.78656005859375 567.487060546875 375.4210510253906 C 567.5752563476562 364.1982421875 567.1372680664062 362.8915710449219 569.9990234375 340.37359619140625 C 585.3960571289062 337.7195739746094 583.8753662109375 337.2333679199219 594.8015747070312 326.22509765625" stroke-width="0.0" fill="rgb(19, 20, 18)" opacity="1.0"/>
    <path d="M 564.4523315429688 314.765625 C 552.79736328125 339.3263854980469 555.548583984375 344.7237854003906 590.5980834960938 342.656982421875 C 574.8600463867188 314.5204162597656 575.454345703125 316.3883972167969 578.0765380859375 318.4939880371094 C 577.2854614257812 313.3782043457031 571.1548461914062 316.39361572265625 599.3201904296875 336.7767028808594 C 602.1654663085938 304.026123046875 593.3657836914062 302.1255187988281 564.4523315429688 314.765625" stroke-width="0.0" fill="rgb(36, 36, 33)" opacity="1.0"/>
    <path d="M 598.3265991210938 424.4630126953125 C 566.0745239257812 421.3957214355469 571.2472534179688 418.63580322265625 564.0310668945312 421.77056884765625 C 562.6054077148438 414.6153564453125 561.1722412109375 408.5245361328125 560.447998046875 382.18780517578125 C 567.6134643554688 379.81744384765625 571.4139404296875 383.1668395996094 573.2957153320312 370.9661560058594 C 607.7430419921875 369.2690124511719 609.5397338867188 373.6903076171875 598.3265991210938 424.4630126953125" stroke-width="0.0" fill="rgb(20, 21, 19)" opacity="0.99512327"/>
    <path d="M 546.3285522460938 383.529052734375 C 578.3763427734375 388.2712097167969 572.6513061523438 388.7607116699219 581.7534790039062 386.94384765625 C 581.2949829101562 408.5867919921875 581.3499145507812 411.1448059082031 580.2388305664062 429.5533142089844 C 550.4219970703125 426.4309997558594 551.0308837890625 423.5926208496094 543.9426879882812 425.0962219238281 C 538.38037109375 424.21966552734375 535.9405517578125 411.01605224609375 546.3285522460938 383.529052734375" stroke-width="0.0" fill="rgb(21, 21, 19)" opacity="0.99276316"/>
    <path d="M 9.18723201751709 29.880233764648438 C 39.331214904785156 32.49482727050781 50.54091262817383 33.00885009765625 49.518192291259766 26.41638946533203 C 41.96049499511719 5.025857448577881 43.59973907470703 -1.2252696752548218 41.76060485839844 -5.014677047729492 C 22.686010360717773 10.970787048339844 19.704723358154297 -3.7264950275421143 40.29802322387695 -6.7097554206848145 C 36.799503326416016 5.961849689483643 20.434619903564453 -2.163499355316162 9.18723201751709 29.880233764648438" stroke-width="0.0" fill="rgb(42, 42, 40)" opacity="0.9276024"/>
    <path d="M 550.3578491210938 576.5137939453125 C 578.1187133789062 567.6290283203125 579.4640502929688 566.6787719726562 584.4970092773438 560.1172485351562 C 581.4851684570312 557.3099975585938 582.45556640625 567.3330078125 601.7960815429688 548.38037109375 C 593.9434814453125 538.3408203125 590.0844116210938 544.2434692382812 590.3065795898438 536.2357177734375 C 556.8286743164062 538.5982666015625 550.3612670898438 543.772705078125 550.3578491210938 576.5137939453125" stroke-width="0.0" fill="rgb(20, 21, 19)" opacity="0.99846333"/>
    <path d="M 540.728271484375 334.1068420410156 C 542.9436645507812 293.7677307128906 545.3560180664062 294.8729248046875 554.8504638671875 294.0714111328125 C 566.94482421875 297.623291015625 570.0733642578125 298.0184020996094 581.5699462890625 294.9510192871094 C 580.5813598632812 301.1330871582031 579.1555786132812 298.9563903808594 593.8558349609375 302.20086669921875 C 586.6231079101562 332.25628662109375 577.261962890625 335.5371398925781 540.728271484375 334.1068420410156" stroke-width="0.0" fill="rgb(26, 26, 24)" opacity="0.95376027"/>
    <path d="M 443.7940979003906 608.8108520507812 C 445.26593017578125 567.4721069335938 456.6432189941406 566.5835571289062 457.3836975097656 567.145751953125 C 470.46026611328125 563.4096069335938 479.6768493652344 567.1134643554688 489.52392578125 563.3244018554688 C 483.1339111328125 565.1187133789062 484.48272705078125 565.5689086914062 502.7416076660156 557.3370971679688 C 500.2574157714844 589.2359619140625 504.0768737792969 599.3286743164062 443.7940979003906 608.8108520507812" stroke-width="0.0" fill="rgb(23, 23, 22)" opacity="0.999192"/>
    <path d="M 554.777099609375 565.1595458984375 C 517.9585571289062 564.9765014648438 518.4022216796875 576.1432495117188 522.4033203125 609.9527587890625 C 546.8927001953125 592.532958984375 542.5971069335938 598.447265625 536.9951171875 599.565185546875 C 549.5150756835938 564.5382080078125 570.2294311523438 569.8590698242188 572.3359985351562 607.512939453125 C 525.7659912109375 609.9710693359375 529.7836303710938 610.5780639648438 554.777099609375 565.1595458984375" stroke-width="0.0" fill="rgb(19, 20, 18)" opacity="1.0"/>
    <path d="M 543.8870849609375 404.7728576660156 C 561.8818969726562 393.65191650390625 561.0648193359375 386.3475646972656 556.32763671875 383.68182373046875 C 558.2199096679688 388.6190185546875 559.7477416992188 383.3221740722656 562.62451171875 376.84686279296875 C 560.8035278320312 373.5044250488281 559.5277099609375 368.434326171875 547.0504760742188 370.0091857910156 C 549.3533935546875 392.86309814453125 546.435546875 396.6370544433594 543.8870849609375 404.7728576660156" stroke-width="0.0" fill="rgb(55, 55, 54)" opacity="0.8461523"/>
    <path d="M 473.171630859375 565.5150756835938 C 446.0599365234375 563.3516845703125 441.9355163574219 567.7517700195312 445.869873046875 605.9051513671875 C 483.8398132324219 591.1306762695312 471.7121887207031 571.9752807617188 470.0705871582031 575.126953125 C 452.481689453125 582.4319458007812 455.0057678222656 588.8902587890625 475.8100891113281 581.1723022460938 C 472.078369140625 583.27880859375 472.8614196777344 582.2938842773438 473.171630859375 565.5150756835938" stroke-width="0.0" fill="rgb(22, 22, 20)" opacity="0.9940021"/>
    <path d="M 22.499826431274414 11.4251708984375 C 72.14244079589844 11.96312427520752 71.33514404296875 39.61354064941406 35.01287078857422 31.480195999145508 C 34.59919357299805 33.45425033569336 46.249977111816406 38.20050048828125 49.4216423034668 38.08195495605469 C 47.8341178894043 38.22271728515625 48.37343215942383 38.69685363769531 47.8627815246582 38.29981994628906 C 52.186912536621094 36.1485595703125 35.01823425292969 43.76332092285156 22.499826431274414 11.4251708984375" stroke-width="0.0" fill="rgb(21, 22, 20)" opacity="0.9015149"/>
    <path d="M 447.4275817871094 -13.777863502502441 C 425.92718505859375 -11.196964263916016 422.3277893066406 -6.518266201019287 426.88299560546875 21.33161163330078 C 435.76446533203125 35.675437927246094 449.8650817871094 37.367713928222656 469.1325988769531 27.51193618774414 C 465.41455078125 36.19731140136719 447.3973388671875 32.4317512512207 472.070068359375 32.19573974609375 C 474.989501953125 23.644275665283203 471.6618957519531 6.91810417175293 447.4275817871094 -13.777863502502441" stroke-width="0.0" fill="rgb(16, 16, 14)" opacity="0.99975985"/>
    <path d="M 558.48974609375 595.8823852539062 C 559.6963500976562 566.1627807617188 562.8792724609375 564.6543579101562 608.2319946289062 562.7832641601562 C 611.5247802734375 604.15283203125 607.99951171875 608.0284423828125 595.7620239257812 603.4610595703125 C 569.0853881835938 590.91015625 564.2447509765625 592.1325073242188 576.4661254882812 602.6879272460938 C 598.3304443359375 595.9550170898438 597.27587890625 583.4532470703125 558.48974609375 595.8823852539062" stroke-width="0.0" fill="rgb(18, 19, 18)" opacity="1.0"/>
    <path d="M 585.1893310546875 516.886474609375 C 584.6964111328125 509.4447021484375 589.9679565429688 510.17913818359375 596.6529541015625 510.131103515625 C 596.713134765625 512.5497436523438 598.30078125 509.3071594238281 609.6061401367188 513.4788208007812 C 604.3878173828125 523.2096557617188 600.14013671875 517.409912109375 596.5746459960938 517.9411010742188 C 592.3251342773438 517.2841796875 591.8411254882812 516.5615234375 585.1893310546875 516.886474609375" stroke-width="0.0" fill="rgb(21, 21, 20)" opacity="1.0"/>
    <path d="M 568.2930297851562 525.823486328125 C 564.3890380859375 536.6153564453125 574.6370849609375 539.2681274414062 578.8313598632812 532.3622436523438 C 585.5722045898438 517.6465454101562 591.1702880859375 519.92724609375 588.0491333007812 507.37103271484375 C 580.0218505859375 506.0463562011719 582.2224731445312 512.2251586914062 590.56591796875 525.0404663085938 C 587.4136352539062 533.0692749023438 585.543701171875 530.4512939453125 568.2930297851562 525.823486328125" stroke-width="0.0" fill="rgb(19, 20, 18)" opacity="1.0"/>
    <path d="M 548.0208129882812 466.2846984863281 C 573.0455932617188 455.8545227050781 574.5132446289062 448.72271728515625 572.655029296875 449.1119079589844 C 565.0979614257812 424.2762145996094 559.9891357421875 423.7873229980469 552.0383911132812 432.2989196777344 C 547.1575927734375 435.3662414550781 546.3233642578125 437.0520324707031 550.622314453125 427.4593200683594 C 530.697021484375 428.525390625 523.603759765625 449.971923828125 548.0208129882812 466.2846984863281" stroke-width="0.0" fill="rgb(41, 42, 40)" opacity="0.97461337"/>
    <path d="M 594.7924194335938 552.4373779296875 C 570.059326171875 518.2520141601562 568.5567626953125 516.7615966796875 610.668212890625 519.4620971679688 C 610.8089599609375 553.0134887695312 612.1632690429688 558.2325439453125 601.7901000976562 562.1669311523438 C 568.889404296875 513.6038208007812 558.0950317382812 509.1268310546875 553.3013305664062 540.663330078125 C 583.4205932617188 559.7621459960938 603.9009399414062 563.0697021484375 594.7924194335938 552.4373779296875" stroke-width="0.0" fill="rgb(24, 24, 22)" opacity="0.9840302"/>
    <path d="M 263.3440246582031 30.670806884765625 C 273.9976806640625 3.549534797668457 272.3829650878906 3.9035675525665283 265.98834228515625 24.368671417236328 C 283.7718505859375 12.10341739654541 278.9187927246094 6.317620277404785 284.3924255371094 3.3591699600219727 C 293.87127685546875 9.279704093933105 295.8223571777344 11.752009391784668 303.3941650390625 25.450124740600586 C 301.5599365234375 28.401004791259766 299.14422607421875 32.72086715698242 263.3440246582031 30.670806884765625" stroke-width="0.0" fill="rgb(26, 27, 25)" opacity="0.9927783"/>
    <path d="M 54.107139587402344 33.735939025878906 C 50.015193939208984 24.046953201293945 55.69061279296875 33.8751106262207 44.48076629638672 29.555484771728516 C 44.696929931640625 -4.0091118812561035 52.7364616394043 -5.750211715698242 71.7378921508789 0.9214594960212708 C 74.06278228759766 13.999064445495605 71.01055908203125 13.42064380645752 89.21424865722656 15.402277946472168 C 97.7389144897461 37.69499969482422 98.85621643066406 33.52001953125 54.107139587402344 33.735939025878906" stroke-width="0.0" fill="rgb(18, 19, 17)" opacity="0.991017"/>
    <path d="M 71.23625946044922 9.953300476074219 C 77.51676177978516 21.60549545288086 76.8062515258789 26.722412109375 88.68567657470703 34.13395309448242 C 97.7286605834961 35.31147003173828 91.88117218017578 29.85332679748535 93.99858856201172 25.663419723510742 C 93.53754425048828 13.687556266784668 94.83758544921875 13.09194564819336 92.9833755493164 1.2935972213745117 C 78.90021514892578 -0.6026373505592346 76.13593292236328 -1.9801764488220215 71.23625946044922 9.953300476074219" stroke-width="0.0" fill="rgb(12, 13, 11)" opacity="0.9545448"/>
    <path d="M 134.6695098876953 580.9597778320312 C 132.12034606933594 621.7904663085938 119.47234344482422 615.79931640625 85.02271270751953 601.3307495117188 C 91.02364349365234 583.1781616210938 111.32032012939453 599.3868408203125 121.80281829833984 583.1150512695312 C 101.65338897705078 579.3368530273438 103.24900817871094 583.0423583984375 89.30746459960938 582.7513427734375 C 81.26275634765625 596.4163818359375 79.75169372558594 597.31298828125 134.6695098876953 580.9597778320312" stroke-width="0.0" fill="rgb(17, 18, 16)" opacity="1.0"/>
    <path d="M 242.83749389648438 32.55716323852539 C 235.35791015625 3.6008496284484863 248.07264709472656 3.7485766410827637 249.76109313964844 24.833667755126953 C 230.29434204101562 32.625877380371094 245.76974487304688 14.55476188659668 243.55160522460938 -10.95369815826416 C 213.56643676757812 -6.726165771484375 213.93040466308594 -9.682371139526367 202.71475219726562 -5.249635696411133 C 215.58590698242188 37.89054489135742 223.9463653564453 35.58797073364258 242.83749389648438 32.55716323852539" stroke-width="0.0" fill="rgb(20, 21, 19)" opacity="1.0"/>
    <path d="M 548.7515258789062 294.6468200683594 C 563.5806884765625 276.0597839355469 567.8778076171875 278.5853271484375 564.6834106445312 283.5137023925781 C 565.9666748046875 286.59716796875 559.668701171875 275.5093688964844 601.8839721679688 250.8157958984375 C 600.2811279296875 277.7236328125 594.6592407226562 278.2889099121094 587.1937866210938 301.9697570800781 C 570.9188232421875 301.7732849121094 555.7056274414062 303.9529724121094 548.7515258789062 294.6468200683594" stroke-width="0.0" fill="rgb(11, 12, 11)" opacity="1.0"/>
    <path d="M 160.2118682861328 7.143548011779785 C 157.7214813232422 39.37753677368164 158.97250366210938 38.07209396362305 194.87144470214844 33.583621978759766 C 189.72872924804688 17.353748321533203 167.41908264160156 24.893964767456055 155.4610595703125 -3.9702439308166504 C 189.8505401611328 -0.914114236831665 201.3494415283203 -5.378542423248291 224.6969757080078 -7.118268966674805 C 209.6144561767578 36.3990592956543 198.4282989501953 38.06484603881836 160.2118682861328 7.143548011779785" stroke-width="0.0" fill="rgb(27, 28, 26)" opacity="0.9743071"/>
    <path d="M 566.728515625 315.787109375 C 544.135986328125 317.8699035644531 540.7645874023438 318.265380859375 547.5863647460938 303.8745422363281 C 560.431884765625 288.51934814453125 558.7377319335938 284.27789306640625 553.7105102539062 286.9713439941406 C 560.7390747070312 287.1646423339844 567.7288208007812 282.6876525878906 587.2334594726562 297.3606872558594 C 583.0525512695312 313.2572326660156 579.62109375 315.0851135253906 566.728515625 315.787109375" stroke-width="0.0" fill="rgb(23, 24, 22)" opacity="0.9002969"/>
    <path d="M 229.59133911132812 31.910442352294922 C 230.13540649414062 10.982423782348633 229.83192443847656 8.195307731628418 245.8902587890625 -10.578926086425781 C 266.3791198730469 -7.060024261474609 258.3153991699219 -7.6793928146362305 279.098876953125 -4.766053199768066 C 273.8640441894531 38.1951904296875 267.7330322265625 34.27302932739258 261.1402282714844 35.051597595214844 C 239.59634399414062 36.722938537597656 236.1595001220703 40.682655334472656 229.59133911132812 31.910442352294922" stroke-width="0.0" fill="rgb(19, 19, 18)" opacity="0.9999246"/>
    <path d="M 596.4553833007812 314.7695617675781 C 591.0094604492188 339.6923828125 596.1465454101562 351.7781066894531 611.6221313476562 315.63311767578125 C 586.8507690429688 310.31689453125 584.417236328125 318.2709045410156 595.2968139648438 335.2937316894531 C 596.0523681640625 346.4017333984375 595.3267211914062 351.41046142578125 564.98876953125 363.9857177734375 C 562.90478515625 326.24761962890625 562.9362182617188 316.4281921386719 596.4553833007812 314.7695617675781" stroke-width="0.0" fill="rgb(17, 17, 16)" opacity="0.9787561"/>
    <path d="M 140.8170623779297 607.7118530273438 C 110.17816162109375 605.7417602539062 112.0101318359375 595.1046752929688 117.81029510498047 576.23486328125 C 142.24720764160156 575.984375 140.39866638183594 575.8232421875 140.40496826171875 576.3499145507812 C 140.63592529296875 576.69677734375 137.19456481933594 574.9024658203125 150.22206115722656 576.8468017578125 C 158.123779296875 575.3129272460938 158.87583923339844 570.2698364257812 140.8170623779297 607.7118530273438" stroke-width="0.0" fill="rgb(21, 21, 20)" opacity="0.9829184"/>
    <path d="M 583.9112548828125 323.5115051269531 C 585.0992431640625 365.5430908203125 588.0302734375 372.63140869140625 582.9734497070312 380.0687561035156 C 552.2188720703125 371.9977111816406 559.224609375 372.138916015625 547.748046875 371.87396240234375 C 559.8372192382812 355.7658996582031 564.6157836914062 359.7571105957031 541.9653930664062 372.8063049316406 C 543.5936279296875 337.9009704589844 544.7227783203125 328.30279541015625 583.9112548828125 323.5115051269531" stroke-width="0.0" fill="rgb(21, 22, 20)" opacity="1.0"/>
    <path d="M -8.903721809387207 -3.1506197452545166 C -8.89235782623291 -4.2881999015808105 -4.044878959655762 -10.11005973815918 16.67751121520996 -7.838140487670898 C -2.8869903087615967 11.493708610534668 -11.679702758789062 4.349449157714844 -7.441366195678711 28.891544342041016 C 24.92824363708496 26.61430549621582 24.047958374023438 14.110953330993652 12.662032127380371 -3.6773836612701416 C -5.002231597900391 7.308353424072266 -8.669539451599121 18.249046325683594 -8.903721809387207 -3.1506197452545166" stroke-width="0.0" fill="rgb(20, 21, 19)" opacity="1.0"/>
    <path d="M 218.34239196777344 570.670166015625 C 219.10519409179688 597.9210815429688 223.78672790527344 596.0183715820312 263.9152526855469 593.1364135742188 C 261.081787109375 573.6483764648438 251.13943481445312 573.9630737304688 254.84976196289062 576.3873901367188 C 260.6257629394531 586.1319580078125 269.968994140625 588.001220703125 277.644775390625 567.8193969726562 C 257.17822265625 567.64111328125 251.85910034179688 567.6459350585938 218.34239196777344 570.670166015625" stroke-width="0.0" fill="rgb(31, 31, 29)" opacity="0.94504863"/>
    <path d="M 491.4302978515625 613.3139038085938 C 523.099609375 611.4956665039062 527.7626342773438 608.7605590820312 536.9608154296875 604.9786987304688 C 537.6266479492188 573.3196411132812 534.406494140625 571.9622802734375 532.5008544921875 557.6729736328125 C 498.22100830078125 564.4107055664062 493.389892578125 570.027099609375 479.2682189941406 575.8079833984375 C 478.42291259765625 599.324951171875 476.7617492675781 603.2293701171875 491.4302978515625 613.3139038085938" stroke-width="0.0" fill="rgb(19, 19, 17)" opacity="0.9932151"/>
    <path d="M 503.2217712402344 573.8900146484375 C 488.91839599609375 560.7534790039062 517.30908203125 548.7147216796875 511.5058898925781 551.09423828125 C 503.37835693359375 569.0883178710938 512.7314453125 569.3253784179688 517.764892578125 572.4948120117188 C 529.9564819335938 570.127685546875 533.9421997070312 566.1104736328125 536.1106567382812 542.4790649414062 C 533.2400512695312 534.2203369140625 512.2879638671875 535.9761352539062 503.2217712402344 573.8900146484375" stroke-width="0.0" fill="rgb(14, 14, 12)" opacity="1.0"/>
    <path d="M 543.3707275390625 475.04461669921875 C 534.41455078125 471.6233215332031 528.0005493164062 470.8071594238281 528.9637451171875 458.1753234863281 C 525.4182739257812 457.3141784667969 526.2858276367188 459.0587463378906 522.20556640625 460.6017150878906 C 521.9853515625 470.5897521972656 517.6698608398438 485.78900146484375 519.6837158203125 499.5770263671875 C 553.1939086914062 495.4190368652344 549.5763549804688 490.4093017578125 543.3707275390625 475.04461669921875" stroke-width="0.0" fill="rgb(22, 23, 21)" opacity="0.99455136"/>
    <path d="M 219.30311584472656 569.1714477539062 C 250.26519775390625 572.3946533203125 246.5665283203125 580.5746459960938 245.46141052246094 599.3837280273438 C 227.08642578125 604.487548828125 227.7445068359375 602.8226928710938 227.67503356933594 604.882080078125 C 226.63287353515625 603.0602416992188 229.04701232910156 603.1517333984375 226.1205596923828 605.8884887695312 C 219.99496459960938 609.6890869140625 215.4149169921875 616.3335571289062 219.30311584472656 569.1714477539062" stroke-width="0.0" fill="rgb(19, 20, 18)" opacity="0.9987537"/>
    <path d="M 491.6418762207031 17.340015411376953 C 490.7092590332031 54.333675384521484 485.1542053222656 40.85639953613281 459.9540100097656 42.26826858520508 C 437.78973388671875 38.95756912231445 431.2513427734375 49.42564010620117 429.4314270019531 16.541915893554688 C 475.22540283203125 12.81657600402832 481.24310302734375 16.151432037353516 472.9573059082031 24.082305908203125 C 452.2628173828125 35.35577392578125 446.02520751953125 36.17601776123047 491.6418762207031 17.340015411376953" stroke-width="0.0" fill="rgb(24, 24, 22)" opacity="1.0"/>
    <path d="M 332.3671569824219 -12.433298110961914 C 298.79559326171875 -3.2744357585906982 299.1162109375 -0.17829851806163788 297.58843994140625 35.210025787353516 C 307.6089782714844 39.25856018066406 324.0218505859375 40.31340789794922 328.9890441894531 37.85593032836914 C 318.1785888671875 31.755985260009766 318.1582336425781 31.49543571472168 332.052978515625 38.8326416015625 C 343.963134765625 28.1287784576416 347.0102844238281 1.9333854913711548 332.3671569824219 -12.433298110961914" stroke-width="0.0" fill="rgb(14, 15, 13)" opacity="1.0"/>
    <path d="M 602.9996337890625 402.82073974609375 C 568.443359375 417.0727844238281 564.8947143554688 416.8232116699219 557.1653442382812 416.04486083984375 C 557.7227783203125 423.7341003417969 556.9052734375 422.40087890625 554.020751953125 451.67401123046875 C 565.0035400390625 454.2695007324219 581.57275390625 450.3970031738281 593.71142578125 442.37982177734375 C 599.9833984375 424.31378173828125 605.7406005859375 415.455810546875 602.9996337890625 402.82073974609375" stroke-width="0.0" fill="rgb(20, 21, 19)" opacity="1.0"/>
    <path d="M -5.187528133392334 -3.233694553375244 C 5.458802700042725 17.933320999145508 23.16365623474121 8.865683555603027 25.760164260864258 17.037883758544922 C 13.45268440246582 6.6753764152526855 5.801128387451172 2.587331771850586 9.793450355529785 30.433303833007812 C 33.126522064208984 24.371538162231445 22.969036102294922 15.691987037658691 28.12601089477539 18.533464431762695 C 27.979724884033203 7.420897483825684 24.94266700744629 -7.766341686248779 -5.187528133392334 -3.233694553375244" stroke-width="0.0" fill="rgb(17, 17, 16)" opacity="1.0"/>
    <path d="M 471.4808349609375 41.55278015136719 C 500.31121826171875 37.004573822021484 496.0814514160156 28.842313766479492 509.1272277832031 5.056154251098633 C 504.0921630859375 -7.631619930267334 504.7837219238281 17.765548706054688 513.8328247070312 -0.14698778092861176 C 488.8116455078125 -10.862833023071289 478.71026611328125 -9.759315490722656 462.9679870605469 -7.924250602722168 C 459.9190368652344 29.230361938476562 459.2718811035156 33.62643814086914 471.4808349609375 41.55278015136719" stroke-width="0.0" fill="rgb(19, 19, 18)" opacity="1.0"/>
    <path d="M 562.8168334960938 401.8795166015625 C 532.5734252929688 405.732666015625 535.3490600585938 411.39697265625 544.7086791992188 431.83306884765625 C 539.238037109375 433.66156005859375 536.6610107421875 425.48333740234375 544.4130249023438 417.8965759277344 C 543.3875732421875 437.45477294921875 544.0801391601562 439.2779541015625 554.0816650390625 437.3383483886719 C 554.5462036132812 430.9931945800781 560.1248168945312 433.9527587890625 562.8168334960938 401.8795166015625" stroke-width="0.0" fill="rgb(19, 20, 18)" opacity="1.0"/>
    <path d="M 547.5057373046875 408.8423767089844 C 580.3873291015625 408.2060852050781 586.68212890625 405.0575256347656 588.012451171875 367.3689270019531 C 583.9197387695312 362.8646240234375 580.9146728515625 361.4381408691406 578.4970703125 361.45892333984375 C 572.72705078125 373.4554748535156 580.2224731445312 363.3359375 572.4578857421875 351.5701599121094 C 536.9683227539062 360.4333190917969 542.3487548828125 373.30487060546875 547.5057373046875 408.8423767089844" stroke-width="0.0" fill="rgb(20, 21, 19)" opacity="0.99752086"/>
    <path d="M 63.89820098876953 9.902756690979004 C 67.84488677978516 -12.764616966247559 74.83642578125 -9.652412414550781 81.40068054199219 -8.121427536010742 C 91.79100799560547 -3.1352016925811768 94.60706329345703 -0.3339489996433258 94.41212463378906 -3.7399215698242188 C 93.39408111572266 1.771066665649414 94.59553527832031 6.567104816436768 93.57302856445312 10.022599220275879 C 95.18632507324219 15.743660926818848 90.71012878417969 19.713294982910156 63.89820098876953 9.902756690979004" stroke-width="0.0" fill="rgb(18, 19, 17)" opacity="1.0"/>
    <path d="M 133.94354248046875 576.2785034179688 C 104.60429382324219 574.6773681640625 97.92864990234375 580.4613037109375 107.07219696044922 576.4671020507812 C 104.7133560180664 577.3287963867188 101.69396209716797 575.9607543945312 85.24080657958984 579.0569458007812 C 83.70311737060547 584.2415771484375 89.2284927368164 586.4376220703125 109.48715209960938 596.7215576171875 C 120.5771484375 597.8887939453125 126.39562225341797 602.511962890625 133.94354248046875 576.2785034179688" stroke-width="0.0" fill="rgb(20, 21, 19)" opacity="1.0"/>
    <path d="M 5.020933628082275 31.923664093017578 C -11.152685165405273 34.456626892089844 -13.831191062927246 12.28602409362793 1.5362179279327393 6.763624668121338 C 10.559481620788574 22.773099899291992 -1.0360530614852905 15.9173002243042 19.301124572753906 11.640625953674316 C 4.433013916015625 35.68928527832031 -9.355562210083008 33.14299774169922 40.657596588134766 33.07493209838867 C 34.63882827758789 2.1424551010131836 19.828250885009766 3.0231614112854004 5.020933628082275 31.923664093017578" stroke-width="0.0" fill="rgb(20, 21, 19)" opacity="0.9999753"/>
    <path d="M 608.5889892578125 407.8045654296875 C 609.7058715820312 422.7904052734375 610.0422973632812 436.95794677734375 607.0820922851562 455.59039306640625 C 572.1358642578125 453.0969543457031 580.6454467773438 439.87237548828125 575.1693115234375 429.1965637207031 C 568.091796875 444.0326843261719 564.1115112304688 450.5113525390625 579.8106079101562 455.0061340332031 C 583.6854858398438 429.1417236328125 573.5848999023438 420.32666015625 608.5889892578125 407.8045654296875" stroke-width="0.0" fill="rgb(21, 22, 19)" opacity="0.97124165"/>
    <path d="M 71.72563934326172 15.239564895629883 C 73.10957336425781 26.088510513305664 84.0191650390625 29.676549911499023 93.33528137207031 21.795774459838867 C 83.40899658203125 10.338099479675293 77.66993713378906 13.279362678527832 78.6154556274414 15.20028305053711 C 82.20503997802734 16.612560272216797 88.9721450805664 17.954063415527344 88.85743713378906 10.900460243225098 C 77.23307800292969 8.575728416442871 79.09291076660156 7.257903575897217 71.72563934326172 15.239564895629883" stroke-width="0.0" fill="rgb(21, 21, 19)" opacity="0.9986264"/>
    <path d="M 523.7591552734375 541.275634765625 C 524.0972290039062 525.6409301757812 527.1660766601562 523.959228515625 532.7020263671875 523.8775024414062 C 538.5615844726562 526.19873046875 544.0294189453125 527.7860107421875 542.8611450195312 512.1875610351562 C 525.5801391601562 520.7054443359375 529.7765502929688 526.5020141601562 549.51513671875 527.13720703125 C 545.7142333984375 541.3533325195312 538.4374389648438 536.259765625 523.7591552734375 541.275634765625" stroke-width="0.0" fill="rgb(38, 39, 37)" opacity="0.9146689"/>
    <path d="M 534.7736206054688 437.7923583984375 C 531.05224609375 467.4671936035156 527.5548706054688 485.18353271484375 530.9634399414062 500.9242248535156 C 586.3848266601562 498.25970458984375 582.8818969726562 492.66998291015625 568.488037109375 479.4125061035156 C 567.8131103515625 467.6929931640625 561.979248046875 485.0358581542969 582.0480346679688 487.8567199707031 C 577.8637084960938 445.5643615722656 577.9341430664062 442.63409423828125 534.7736206054688 437.7923583984375" stroke-width="0.0" fill="rgb(15, 16, 14)" opacity="1.0"/>
    <path d="M 24.678646087646484 21.84072494506836 C 28.739513397216797 -7.642663955688477 29.558427810668945 -10.058808326721191 68.41656494140625 -4.534384250640869 C 68.73538208007812 11.259810447692871 60.892051696777344 5.16737174987793 52.905845642089844 10.090420722961426 C 48.99658966064453 9.168523788452148 58.88084411621094 -5.192516326904297 72.04048156738281 15.341958999633789 C 63.84349060058594 36.51462173461914 47.811798095703125 36.99250793457031 24.678646087646484 21.84072494506836" stroke-width="0.0" fill="rgb(19, 20, 18)" opacity="1.0"/>
    <path d="M 413.836181640625 37.89457702636719 C 432.4510803222656 36.95833969116211 435.5047302246094 34.50803756713867 432.3337707519531 35.05390930175781 C 434.6265869140625 32.333518981933594 442.1199951171875 36.5855598449707 443.2076416015625 26.043655395507812 C 428.7797546386719 19.679134368896484 431.052001953125 19.657163619995117 418.842529296875 5.7800679206848145 C 411.2696838378906 3.3221359252929688 413.2978515625 9.748292922973633 413.836181640625 37.89457702636719" stroke-width="0.0" fill="rgb(21, 21, 19)" opacity="0.9924949"/>
    <path d="M 567.4888305664062 441.10723876953125 C 589.4600219726562 440.26580810546875 596.525634765625 445.7648010253906 611.3700561523438 468.0987548828125 C 607.8585815429688 479.3922119140625 596.4559936523438 483.3887939453125 563.3309326171875 477.1693420410156 C 563.1211547851562 488.18975830078125 575.1172485351562 488.8935241699219 606.3388671875 474.224365234375 C 607.3707275390625 489.22174072265625 590.5986938476562 486.4471435546875 567.4888305664062 441.10723876953125" stroke-width="0.0" fill="rgb(21, 22, 20)" opacity="1.0"/>
    <path d="M 540.28125 373.1341552734375 C 536.294677734375 375.5823669433594 538.892333984375 377.7160339355469 544.6945190429688 384.6259765625 C 547.2872924804688 378.7930603027344 545.8219604492188 374.604248046875 538.1539306640625 371.0454406738281 C 537.5460205078125 380.288330078125 541.8463134765625 378.19793701171875 550.0042114257812 388.8890686035156 C 547.0968017578125 392.2824401855469 543.36669921875 388.705322265625 540.28125 373.1341552734375" stroke-width="0.0" fill="rgb(27, 28, 26)" opacity="0.9964716"/>
    <path d="M 272.6451110839844 36.124107360839844 C 262.50054931640625 33.27000427246094 262.95989990234375 37.31553649902344 262.0442199707031 15.683198928833008 C 281.4956359863281 11.195901870727539 274.9632568359375 15.348939895629883 265.7035217285156 32.99881362915039 C 281.3439636230469 37.38738250732422 288.56866455078125 39.85521697998047 293.7286071777344 23.7971248626709 C 277.2550048828125 12.700567245483398 276.7441711425781 18.360700607299805 272.6451110839844 36.124107360839844" stroke-width="0.0" fill="rgb(21, 21, 20)" opacity="1.0"/>
    <path d="M 537.1337280273438 10.597527503967285 C 569.8633422851562 22.102781295776367 575.7064208984375 18.1776123046875 563.4361572265625 5.040029048919678 C 552.8330078125 35.87440490722656 563.0768432617188 39.11127471923828 559.543212890625 43.463470458984375 C 544.1045532226562 44.25267028808594 539.0946655273438 43.85259246826172 521.9481201171875 44.15473937988281 C 521.126708984375 47.59657287597656 522.0995483398438 23.283466339111328 537.1337280273438 10.597527503967285" stroke-width="0.0" fill="rgb(10, 11, 9)" opacity="0.9995231"/>
    <path d="M 503.5263977050781 42.572113037109375 C 509.71527099609375 -13.257059097290039 511.2137145996094 -14.22323989868164 572.7019653320312 -11.442658424377441 C 573.9805908203125 13.544734001159668 563.63623046875 9.817652702331543 561.8131713867188 15.129050254821777 C 566.9545288085938 11.789942741394043 571.6990356445312 -10.056785583496094 579.1734619140625 1.3214569091796875 C 558.9627075195312 38.99755096435547 539.8173217773438 44.544029235839844 503.5263977050781 42.572113037109375" stroke-width="0.0" fill="rgb(16, 16, 15)" opacity="0.9857574"/>
    <path d="M 493.41033935546875 565.3219604492188 C 506.480712890625 569.8123779296875 502.9371643066406 575.97607421875 496.94580078125 575.9535522460938 C 495.8471984863281 576.2363891601562 498.4198303222656 578.6499633789062 497.3050842285156 578.31005859375 C 488.2684631347656 580.2152099609375 491.3299865722656 573.5651245117188 491.6204833984375 565.24365234375 C 484.5228271484375 579.1138916015625 493.8069152832031 583.7896728515625 493.41033935546875 565.3219604492188" stroke-width="0.0" fill="rgb(20, 20, 18)" opacity="0.81979585"/>
    <path d="M 552.1727294921875 309.26910400390625 C 541.385986328125 305.8798522949219 547.7730102539062 304.9701843261719 544.4413452148438 294.406494140625 C 554.100830078125 260.17706298828125 543.3318481445312 242.99090576171875 574.5374145507812 238.7245635986328 C 575.7817993164062 275.11676025390625 562.0632934570312 278.1752014160156 569.7570190429688 255.80796813964844 C 572.7734375 265.3294372558594 570.4151611328125 284.6539306640625 552.1727294921875 309.26910400390625" stroke-width="0.0" fill="rgb(24, 24, 23)" opacity="1.0"/>
    <path d="M 310.6592102050781 595.890625 C 342.5538024902344 600.664306640625 348.4707946777344 602.1151123046875 349.35626220703125 564.5963745117188 C 317.2130432128906 563.1746826171875 318.5462646484375 564.6336669921875 296.61004638671875 566.589111328125 C 294.28363037109375 569.3452758789062 296.43865966796875 584.931640625 303.2381896972656 585.728759765625 C 325.9877624511719 585.6690063476562 311.74078369140625 590.1617431640625 310.6592102050781 595.890625" stroke-width="0.0" fill="rgb(19, 19, 17)" opacity="0.9966074"/>
    <path d="M 604.5780029296875 522.861328125 C 590.3722534179688 513.427001953125 590.5146484375 513.1260986328125 591.6542358398438 513.7366943359375 C 588.8111572265625 512.3541870117188 587.4881591796875 512.1389770507812 584.5955200195312 515.5763549804688 C 582.9776000976562 521.4301147460938 579.9664916992188 525.0894775390625 592.1220703125 540.7269287109375 C 609.9666137695312 541.3009033203125 611.0366821289062 536.41796875 604.5780029296875 522.861328125" stroke-width="0.0" fill="rgb(19, 20, 18)" opacity="1.0"/>
    <path d="M 286.3431701660156 32.96402359008789 C 290.44451904296875 14.60930061340332 299.51513671875 24.758886337280273 321.187744140625 11.454086303710938 C 320.2390441894531 -7.1049885749816895 318.173583984375 -8.235944747924805 288.53912353515625 -4.403003692626953 C 284.932373046875 26.99141502380371 289.4320983886719 18.420551300048828 325.4902038574219 20.757543563842773 C 328.3482971191406 39.55266189575195 322.6606750488281 38.94954299926758 286.3431701660156 32.96402359008789" stroke-width="0.0" fill="rgb(26, 27, 25)" opacity="0.8921952"/>
    <path d="M 530.3649291992188 401.0035705566406 C 549.4976196289062 390.7757873535156 549.2986450195312 386.4172058105469 562.8671264648438 387.2352294921875 C 560.7611694335938 414.2439270019531 559.3832397460938 414.5635070800781 530.87451171875 401.62884521484375 C 531.6482543945312 397.36248779296875 530.4072265625 403.97772216796875 527.1543579101562 428.7789611816406 C 565.6607666015625 420.5437316894531 551.5311889648438 410.7875671386719 530.3649291992188 401.0035705566406" stroke-width="0.0" fill="rgb(13, 14, 12)" opacity="0.9408906"/>
    <path d="M 562.2792358398438 315.47601318359375 C 588.2001953125 317.0750732421875 592.849853515625 315.451904296875 595.5634155273438 296.6805725097656 C 574.9564819335938 292.83746337890625 565.839599609375 304.8013000488281 569.5756225585938 268.7088317871094 C 599.9129638671875 267.1666564941406 598.3226318359375 273.2913818359375 592.9495849609375 299.38458251953125 C 575.1153564453125 300.09710693359375 566.5606689453125 287.0848693847656 562.2792358398438 315.47601318359375" stroke-width="0.0" fill="rgb(19, 19, 17)" opacity="1.0"/>
    <path d="M 104.31004333496094 596.1227416992188 C 91.8930435180664 573.2061157226562 81.9013442993164 576.9788818359375 85.61946105957031 580.5767211914062 C 84.45525360107422 580.3782958984375 87.33268737792969 583.4898071289062 94.4426498413086 594.1239013671875 C 91.33204650878906 585.76953125 87.84843444824219 579.4966430664062 85.38807678222656 580.7340698242188 C 83.4182357788086 605.902587890625 84.94775390625 609.9443359375 104.31004333496094 596.1227416992188" stroke-width="0.0" fill="rgb(17, 17, 15)" opacity="0.9745696"/>
    <path d="M 551.4607543945312 326.45947265625 C 545.6367797851562 326.0767822265625 543.0787963867188 317.1539611816406 577.565673828125 315.503662109375 C 578.0108642578125 348.21923828125 573.52197265625 346.50341796875 569.0888671875 344.9503173828125 C 553.6862182617188 348.3492126464844 544.3899536132812 348.5091857910156 539.8870849609375 350.05596923828125 C 539.2886962890625 331.0638732910156 539.76123046875 325.43853759765625 551.4607543945312 326.45947265625" stroke-width="0.0" fill="rgb(21, 21, 19)" opacity="0.9892606"/>
    <path d="M 314.4859924316406 592.6661376953125 C 312.5793762207031 565.511474609375 303.60162353515625 575.9207763671875 282.0429992675781 583.5964965820312 C 290.3824157714844 571.400390625 289.3101501464844 568.87109375 316.08575439453125 569.12841796875 C 309.23480224609375 584.5221557617188 283.8603515625 570.406982421875 263.720703125 599.7610473632812 C 270.45361328125 607.8070678710938 283.4317932128906 604.9784545898438 314.4859924316406 592.6661376953125" stroke-width="0.0" fill="rgb(20, 21, 19)" opacity="1.0"/>
    <path d="M 541.7835083007812 481.2394104003906 C 524.8650512695312 530.2091064453125 517.1475830078125 521.3245849609375 518.075439453125 504.3872985839844 C 517.71533203125 493.191162109375 518.9473876953125 492.37750244140625 517.7566528320312 496.5975341796875 C 516.0479736328125 499.8818359375 517.102294921875 496.68536376953125 517.1260375976562 497.5205383300781 C 520.1993408203125 492.678466796875 514.1656494140625 478.3251037597656 541.7835083007812 481.2394104003906" stroke-width="0.0" fill="rgb(22, 22, 21)" opacity="0.97256875"/>
    <path d="M 17.06715965270996 16.500768661499023 C 26.139179229736328 6.710239887237549 24.462982177734375 4.630805492401123 24.44485855102539 3.023310661315918 C 23.784788131713867 5.258747100830078 25.560277938842773 5.025457382202148 29.080636978149414 -4.92159366607666 C 25.244476318359375 -5.782263278961182 25.860380172729492 -5.739672660827637 10.672198295593262 -9.950136184692383 C 6.647473335266113 2.2152042388916016 9.910609245300293 11.171792984008789 17.06715965270996 16.500768661499023" stroke-width="0.0" fill="rgb(18, 19, 17)" opacity="1.0"/>
    <path d="M 552.9995727539062 597.2734985351562 C 556.648681640625 589.8090209960938 559.3994140625 603.7071533203125 573.5868530273438 611.7412109375 C 601.6804809570312 610.8107299804688 604.1177368164062 611.1461181640625 603.5079956054688 582.0828247070312 C 560.380615234375 580.8889770507812 571.8068237304688 583.0145263671875 553.16748046875 581.0014038085938 C 554.7182006835938 600.416015625 577.4401245117188 602.180419921875 552.9995727539062 597.2734985351562" stroke-width="0.0" fill="rgb(20, 21, 19)" opacity="1.0"/>
    <path d="M 456.41278076171875 575.783203125 C 497.6275939941406 576.347412109375 502.2996826171875 580.71435546875 503.4766845703125 600.9317626953125 C 486.55780029296875 603.3004150390625 490.78338623046875 600.17431640625 489.1120910644531 601.525634765625 C 485.9490051269531 602.46142578125 486.014892578125 601.9152221679688 473.9139709472656 606.2105102539062 C 459.3526611328125 611.0345458984375 453.4160461425781 610.4004516601562 456.41278076171875 575.783203125" stroke-width="0.0" fill="rgb(21, 21, 20)" opacity="1.0"/>
    <path d="M 546.8682250976562 400.2666320800781 C 525.4669189453125 403.5546569824219 529.3197631835938 410.8061218261719 530.2091064453125 417.816650390625 C 526.0807495117188 426.85394287109375 525.5743408203125 442.54559326171875 525.7542724609375 453.9422607421875 C 547.1472778320312 450.0995788574219 554.4894409179688 446.3058776855469 556.8882446289062 433.0414733886719 C 551.4539184570312 422.6004638671875 552.5657958984375 422.2196960449219 546.8682250976562 400.2666320800781" stroke-width="0.0" fill="rgb(13, 13, 12)" opacity="0.9856978"/>
    <path d="M 509.0995788574219 573.6546630859375 C 511.70916748046875 579.865234375 508.5050964355469 584.9629516601562 501.1924743652344 585.6015014648438 C 494.7021179199219 575.4302978515625 494.74261474609375 571.8517456054688 500.0782470703125 558.9225463867188 C 509.1612243652344 552.9701538085938 514.6119995117188 548.4501953125 528.1930541992188 555.6856689453125 C 518.84716796875 586.47314453125 511.669677734375 579.566650390625 509.0995788574219 573.6546630859375" stroke-width="0.0" fill="rgb(23, 24, 22)" opacity="0.9179965"/>
    <path d="M 485.6734619140625 24.602649688720703 C 480.0207214355469 32.82233428955078 459.3411865234375 31.31315040588379 443.3180236816406 25.268585205078125 C 447.11676025390625 -11.831988334655762 450.7318420410156 -11.148921012878418 484.59014892578125 -6.119574069976807 C 484.47235107421875 16.857728958129883 481.86053466796875 19.58803367614746 471.7626037597656 11.093502044677734 C 464.9648742675781 4.498937129974365 465.09014892578125 5.101123809814453 485.6734619140625 24.602649688720703" stroke-width="0.0" fill="rgb(20, 20, 19)" opacity="1.0"/>
    <path d="M 17.747739791870117 25.939098358154297 C 11.118555068969727 22.14699363708496 13.910502433776855 19.73769760131836 37.02692794799805 20.137941360473633 C 38.430259704589844 1.0375020503997803 37.25325012207031 -3.571378469467163 33.53805923461914 -8.158968925476074 C 20.338382720947266 4.492523193359375 23.651046752929688 4.8480024337768555 23.444416046142578 5.802742004394531 C 17.69803810119629 6.316905498504639 13.3511962890625 10.928511619567871 17.747739791870117 25.939098358154297" stroke-width="0.0" fill="rgb(20, 20, 18)" opacity="0.97596014"/>
    <path d="M 294.9065856933594 576.5897216796875 C 287.29193115234375 577.1056518554688 289.9356994628906 577.822021484375 281.095703125 595.0618286132812 C 268.8028259277344 595.7708740234375 267.35931396484375 597.0723876953125 253.31300354003906 589.910400390625 C 257.5926818847656 559.0659790039062 267.573486328125 568.9508056640625 280.6100158691406 566.6068725585938 C 291.4681701660156 564.8617553710938 297.5120544433594 565.3607177734375 294.9065856933594 576.5897216796875" stroke-width="0.0" fill="rgb(22, 22, 20)" opacity="1.0"/>
    <path d="M 592.147216796875 478.9873962402344 C 592.4266357421875 438.658447265625 565.6798706054688 447.6462707519531 562.0311279296875 430.9109802246094 C 595.6533203125 437.9311828613281 588.2882690429688 452.7384338378906 566.2894287109375 441.709716796875 C 569.6707763671875 445.6811828613281 578.9840087890625 436.16845703125 548.7157592773438 433.7169494628906 C 549.1286010742188 475.1899719238281 554.4583740234375 481.2259826660156 592.147216796875 478.9873962402344" stroke-width="0.0" fill="rgb(21, 21, 20)" opacity="1.0"/>
    <path d="M 570.4288330078125 477.3877258300781 C 513.000732421875 481.1748962402344 520.4811401367188 488.8852233886719 521.5438232421875 517.284912109375 C 531.0452880859375 519.262451171875 535.3275756835938 525.1693115234375 518.0985107421875 526.5269775390625 C 523.6376953125 512.7350463867188 527.9636840820312 521.1312255859375 531.0735473632812 531.1497192382812 C 565.0631713867188 530.8739624023438 572.106689453125 527.1148681640625 570.4288330078125 477.3877258300781" stroke-width="0.0" fill="rgb(20, 21, 19)" opacity="0.9891983"/>
    <path d="M 587.9500122070312 293.1342468261719 C 588.9423217773438 314.9219970703125 594.9910888671875 320.66644287109375 608.3309326171875 316.2906799316406 C 594.96728515625 294.9383544921875 594.6470336914062 297.8976135253906 592.509033203125 295.90118408203125 C 594.6768188476562 298.1791076660156 593.5743408203125 300.0357360839844 606.1707763671875 305.1800537109375 C 609.4678344726562 286.60247802734375 602.9093017578125 282.7374267578125 587.9500122070312 293.1342468261719" stroke-width="0.0" fill="rgb(2, 3, 1)" opacity="1.0"/>
    <path d="M 252.43850708007812 19.363384246826172 C 254.0054473876953 34.31603240966797 254.93849182128906 40.62907028198242 254.57443237304688 37.87751388549805 C 236.31715393066406 38.78265380859375 235.05215454101562 35.067264556884766 214.69970703125 37.786399841308594 C 219.00982666015625 35.531429290771484 216.87637329101562 43.32266616821289 214.1084747314453 21.572513580322266 C 236.69483947753906 15.113296508789062 242.87442016601562 14.690559387207031 252.43850708007812 19.363384246826172" stroke-width="0.0" fill="rgb(21, 22, 20)" opacity="0.99246484"/>
    <path d="M 341.0289306640625 -3.737210512161255 C 322.77984619140625 -7.177101135253906 316.492431640625 3.24918794631958 324.4431457519531 13.260210037231445 C 322.1119384765625 11.48828411102295 321.0986633300781 5.2945380210876465 305.45184326171875 8.715621948242188 C 299.4205627441406 -2.803239583969116 299.0716857910156 -9.234164237976074 318.0761413574219 -11.47437572479248 C 326.1141357421875 9.829695701599121 322.0182800292969 15.528952598571777 341.0289306640625 -3.737210512161255" stroke-width="0.0" fill="rgb(15, 15, 13)" opacity="0.9998784"/>
    <path d="M 214.29559326171875 22.894107818603516 C 171.9394989013672 16.636390686035156 161.603271484375 -13.083194732666016 157.00535583496094 1.7544054985046387 C 172.0449676513672 22.719816207885742 162.66351318359375 7.100985050201416 162.64430236816406 -7.6013264656066895 C 188.8805389404297 0.48426276445388794 177.39212036132812 2.450432300567627 191.1627655029297 -12.409850120544434 C 215.6715545654297 -13.178142547607422 218.66053771972656 -7.74596643447876 214.29559326171875 22.894107818603516" stroke-width="0.0" fill="rgb(26, 26, 25)" opacity="0.94784003"/>
    <path d="M 610.6653442382812 572.9528198242188 C 608.1903076171875 548.5763549804688 606.5413208007812 539.114990234375 598.0910034179688 543.5242919921875 C 564.0713500976562 556.6245727539062 558.5294189453125 558.4869384765625 556.2619018554688 579.7949829101562 C 567.1966552734375 582.0615844726562 565.843994140625 582.3526611328125 586.764404296875 585.3857421875 C 591.97216796875 580.46875 593.6408081054688 584.1923217773438 610.6653442382812 572.9528198242188" stroke-width="0.0" fill="rgb(21, 22, 20)" opacity="0.9645195"/>
    <path d="M 413.0186462402344 39.811763763427734 C 412.85272216796875 15.268543243408203 421.6365051269531 19.39426040649414 430.06439208984375 22.772172927856445 C 434.157470703125 23.44280433654785 439.0481262207031 22.550996780395508 452.57403564453125 36.53099822998047 C 445.5893249511719 45.4962272644043 447.40576171875 26.832258224487305 452.9609375 41.76854705810547 C 431.6929626464844 42.11141586303711 413.8978271484375 42.57762145996094 413.0186462402344 39.811763763427734" stroke-width="0.0" fill="rgb(10, 11, 9)" opacity="0.9679276"/>
    <path d="M 551.7009887695312 531.423828125 C 546.319091796875 523.2799072265625 561.6775512695312 520.603515625 587.8434448242188 526.1383056640625 C 580.4134521484375 565.2943115234375 565.06787109375 566.6090698242188 552.080810546875 529.5866088867188 C 541.4065551757812 534.1054077148438 541.6409912109375 533.9271850585938 536.46240234375 575.3712158203125 C 570.4783325195312 577.9127807617188 575.0108032226562 572.1923828125 551.7009887695312 531.423828125" stroke-width="0.0" fill="rgb(20, 20, 19)" opacity="1.0"/>
    <path d="M 552.3888549804688 293.3178405761719 C 566.690185546875 296.4349365234375 569.357421875 294.0579528808594 552.93212890625 248.5012664794922 C 575.557861328125 244.5325927734375 589.3847045898438 244.83071899414062 602.4955444335938 246.89047241210938 C 580.5543823242188 294.9378967285156 564.6614379882812 292.7577819824219 557.60595703125 287.9552307128906 C 556.8386840820312 275.04974365234375 553.7824096679688 279.4322204589844 552.3888549804688 293.3178405761719" stroke-width="0.0" fill="rgb(19, 20, 18)" opacity="1.0"/>
    <path d="M 556.5103149414062 420.26171875 C 560.588134765625 404.01336669921875 563.3092651367188 402.2828674316406 592.624267578125 401.0144348144531 C 587.9644165039062 426.8572998046875 584.5087890625 424.4405517578125 579.4165649414062 425.0780334472656 C 571.2496337890625 420.0126953125 569.5885009765625 427.5104064941406 575.2855834960938 427.7757568359375 C 577.7642211914062 425.37762451171875 572.7281494140625 427.7195739746094 556.5103149414062 420.26171875" stroke-width="0.0" fill="rgb(20, 21, 19)" opacity="1.0"/>
    <path d="M 562.93994140625 530.6327514648438 C 558.598876953125 571.2603149414062 557.9363403320312 566.7150268554688 559.1649169921875 586.7022094726562 C 517.4415283203125 588.70361328125 511.90582275390625 586.83642578125 507.0494384765625 577.52001953125 C 517.2102661132812 541.9088134765625 518.8973388671875 559.0375366210938 523.7474975585938 538.0762939453125 C 521.1728515625 531.70556640625 540.1593017578125 528.1952514648438 562.93994140625 530.6327514648438" stroke-width="0.0" fill="rgb(22, 23, 21)" opacity="1.0"/>
    <path d="M 333.44708251953125 15.204730987548828 C 325.02691650390625 7.0948381423950195 316.8981628417969 8.767023086547852 313.1321716308594 38.5793342590332 C 359.8656311035156 41.09185028076172 355.6512145996094 41.27448654174805 356.1153259277344 16.838844299316406 C 337.8725280761719 2.57777738571167 331.5042419433594 4.7268147468566895 325.3458251953125 9.507588386535645 C 337.4842834472656 17.17369842529297 339.23675537109375 14.180108070373535 333.44708251953125 15.204730987548828" stroke-width="0.0" fill="rgb(18, 19, 17)" opacity="0.92724156"/>
    <path d="M 49.66054916381836 -7.967110633850098 C 56.30002212524414 27.454164505004883 67.9070053100586 23.051191329956055 78.3604736328125 26.429643630981445 C 88.39989471435547 19.289794921875 93.81112670898438 8.61270523071289 67.24258422851562 -11.003026962280273 C 67.80266571044922 5.0934977531433105 86.22737884521484 10.242613792419434 82.51972198486328 12.358335494995117 C 77.06338500976562 -5.010883331298828 72.90641021728516 -8.46345043182373 49.66054916381836 -7.967110633850098" stroke-width="0.0" fill="rgb(20, 20, 18)" opacity="1.0"/>
    <path d="M 576.8270263671875 406.2846984863281 C 574.0443725585938 432.4710998535156 575.5289916992188 415.7485046386719 577.0961303710938 450.9499206542969 C 550.1549682617188 446.3848876953125 551.5823364257812 443.4869689941406 541.4718627929688 439.48126220703125 C 548.6819458007812 428.1131896972656 548.7156372070312 432.1988220214844 547.8953857421875 426.7242431640625 C 549.406005859375 420.43109130859375 543.6837768554688 410.70318603515625 576.8270263671875 406.2846984863281" stroke-width="0.0" fill="rgb(20, 21, 19)" opacity="1.0"/>
    <path d="M 520.3903198242188 543.6781616210938 C 516.15576171875 511.9017639160156 515.1961059570312 504.27081298828125 531.5148315429688 506.037353515625 C 538.7859497070312 516.675537109375 533.8195190429688 520.4677124023438 535.1348876953125 512.7282104492188 C 540.1402587890625 522.1885375976562 538.9494018554688 526.390869140625 542.7522583007812 549.0496826171875 C 527.0958251953125 551.5892944335938 518.0888061523438 553.3651123046875 520.3903198242188 543.6781616210938" stroke-width="0.0" fill="rgb(14, 14, 12)" opacity="0.9081477"/>
    <path d="M 535.8284912109375 589.663330078125 C 537.9625244140625 555.9808959960938 542.9749755859375 552.9739990234375 577.19921875 556.5266723632812 C 581.404052734375 591.7460327148438 580.47705078125 598.1534423828125 546.2324829101562 600.711181640625 C 540.2174682617188 581.6769409179688 544.27734375 581.37451171875 550.9526977539062 587.87548828125 C 560.606201171875 581.6461791992188 563.202880859375 585.903076171875 535.8284912109375 589.663330078125" stroke-width="0.0" fill="rgb(22, 22, 20)" opacity="1.0"/>
    <path d="M 301.1445617675781 -6.846680164337158 C 291.9786071777344 10.863077163696289 290.5807800292969 11.736668586730957 289.0621337890625 16.432662963867188 C 284.559326171875 17.221031188964844 281.6580505371094 23.367919921875 260.74365234375 30.39638900756836 C 257.9286193847656 23.544891357421875 252.8524932861328 16.864418029785156 254.2962646484375 -11.979410171508789 C 291.7204895019531 -7.1878461837768555 288.03277587890625 -6.215510845184326 301.1445617675781 -6.846680164337158" stroke-width="0.0" fill="rgb(19, 20, 18)" opacity="1.0"/>
    <path d="M 274.8692932128906 588.5546875 C 240.37823486328125 582.50048828125 254.02267456054688 572.3002319335938 262.5185546875 572.4364013671875 C 262.58428955078125 568.4747924804688 260.064208984375 565.909912109375 256.60919189453125 563.6213989257812 C 257.9775390625 563.6859130859375 256.0475769042969 562.5477905273438 257.5124816894531 563.51123046875 C 252.5957489013672 563.281982421875 258.09747314453125 557.8871459960938 274.8692932128906 588.5546875" stroke-width="0.0" fill="rgb(13, 13, 11)" opacity="0.8659394"/>
    <path d="M 318.3408203125 18.817445755004883 C 320.9897766113281 -10.790769577026367 324.6135559082031 -10.094489097595215 347.80810546875 -12.474052429199219 C 357.12823486328125 1.4616426229476929 359.5458984375 4.397265911102295 352.8384094238281 -7.436384201049805 C 354.1897277832031 -0.7022202610969543 357.6601867675781 -2.7294938564300537 355.36370849609375 18.419002532958984 C 336.09710693359375 20.201692581176758 331.4659729003906 24.662578582763672 318.3408203125 18.817445755004883" stroke-width="0.0" fill="rgb(17, 18, 16)" opacity="0.9936709"/>
    <path d="M 580.6687622070312 43.20771789550781 C 551.5803833007812 34.94357681274414 545.1161499023438 38.099342346191406 571.5155029296875 -1.6012153625488281 C 593.4693603515625 -1.508385181427002 592.960205078125 4.999746322631836 591.6800537109375 46.06103515625 C 547.6400146484375 34.40102005004883 539.1856689453125 33.22686767578125 539.18798828125 42.116790771484375 C 576.15234375 47.12942123413086 586.64892578125 44.35380172729492 580.6687622070312 43.20771789550781" stroke-width="0.0" fill="rgb(19, 20, 18)" opacity="1.0"/>
    <path d="M 609.70703125 507.9535827636719 C 577.5944213867188 500.9375 585.1988525390625 510.03033447265625 603.6962280273438 504.4261474609375 C 565.6871337890625 506.6010437011719 561.4965209960938 507.39959716796875 562.3118286132812 467.5067443847656 C 590.5534057617188 478.1568603515625 578.9495239257812 484.0296630859375 579.52197265625 461.8936767578125 C 617.2111206054688 464.98114013671875 615.1664428710938 478.0836181640625 609.70703125 507.9535827636719" stroke-width="0.0" fill="rgb(19, 19, 18)" opacity="1.0"/>
    <path d="M 538.4259643554688 338.12347412109375 C 554.7631225585938 354.5263366699219 560.7310791015625 357.1170654296875 574.3154907226562 344.9989318847656 C 569.7437744140625 326.447509765625 558.4367065429688 332.5476989746094 550.8697509765625 337.15606689453125 C 550.3670654296875 338.9272155761719 548.504638671875 335.7147521972656 557.00146484375 341.2684020996094 C 557.7048950195312 336.2965393066406 548.718505859375 332.56329345703125 538.4259643554688 338.12347412109375" stroke-width="0.0" fill="rgb(21, 21, 20)" opacity="0.99146026"/>
    <path d="M 612.8442993164062 349.43804931640625 C 609.206298828125 389.1573791503906 603.092529296875 391.2550964355469 591.2719116210938 388.916259765625 C 598.3333129882812 388.2694091796875 593.043212890625 389.1104736328125 566.505615234375 388.4509582519531 C 569.0535888671875 353.10601806640625 573.8487548828125 360.6531066894531 573.1831665039062 360.0871887207031 C 578.180908203125 347.5924072265625 591.0921020507812 345.46514892578125 612.8442993164062 349.43804931640625" stroke-width="0.0" fill="rgb(20, 20, 18)" opacity="1.0"/>
    <path d="M 274.3380432128906 10.682040214538574 C 299.60504150390625 11.49153995513916 300.227783203125 14.368406295776367 316.0467529296875 33.838748931884766 C 314.4571838378906 42.77060317993164 308.3412170410156 37.94317626953125 285.04583740234375 38.799072265625 C 272.5760498046875 30.14961814880371 272.2839050292969 28.437599182128906 270.4116516113281 21.578767776489258 C 272.9451599121094 21.08277702331543 272.9908142089844 21.85606575012207 274.3380432128906 10.682040214538574" stroke-width="0.0" fill="rgb(15, 16, 14)" opacity="0.93092155"/>
    <path d="M 554.9743041992188 385.51611328125 C 531.52294921875 401.6847839355469 541.8182983398438 394.2380676269531 545.8389282226562 389.6201477050781 C 537.5325317382812 390.481201171875 538.3274536132812 393.6424255371094 539.09814453125 391.6785583496094 C 541.3604736328125 391.0588684082031 540.8533935546875 389.2387390136719 540.7218017578125 390.83563232421875 C 538.1481323242188 393.4671630859375 545.4364013671875 388.1024169921875 554.9743041992188 385.51611328125" stroke-width="0.0" fill="rgb(19, 19, 18)" opacity="0.8246628"/>
    <path d="M 578.8668823242188 303.112548828125 C 577.822265625 290.44781494140625 570.358154296875 270.9418640136719 600.4374389648438 256.5152587890625 C 614.0961303710938 263.8244323730469 608.1388549804688 271.0407409667969 609.9734497070312 277.6002502441406 C 608.6987915039062 318.8917541503906 618.324462890625 328.1502990722656 592.5607299804688 331.59521484375 C 575.468017578125 307.7624816894531 579.2297973632812 303.5943298339844 578.8668823242188 303.112548828125" stroke-width="0.0" fill="rgb(22, 23, 21)" opacity="1.0"/>
    <path d="M 536.5396118164062 379.262451171875 C 539.1312866210938 382.853271484375 537.229736328125 371.6204528808594 538.38134765625 348.2480773925781 C 558.2810668945312 350.264404296875 562.6021728515625 352.2250671386719 567.5441284179688 355.4300842285156 C 562.1784057617188 369.20343017578125 561.4547119140625 376.41693115234375 557.3270874023438 394.37554931640625 C 544.214599609375 394.0089111328125 546.4078979492188 387.3400573730469 536.5396118164062 379.262451171875" stroke-width="0.0" fill="rgb(19, 20, 18)" opacity="0.99732697"/>
    <path d="M 598.0466918945312 429.0638732910156 C 612.7991333007812 431.4805603027344 612.7167358398438 444.9605712890625 607.9624633789062 468.9089660644531 C 588.0540161132812 454.7562255859375 591.1488647460938 450.2415466308594 592.6865844726562 438.7065734863281 C 588.2827758789062 434.458984375 575.111572265625 432.0072937011719 570.0078735351562 438.8804016113281 C 586.557861328125 461.1836242675781 591.5996704101562 461.3594055175781 598.0466918945312 429.0638732910156" stroke-width="0.0" fill="rgb(18, 18, 16)" opacity="1.0"/>
    <path d="M 329.6620178222656 605.57421875 C 362.638427734375 598.7470703125 347.8355407714844 599.2005004882812 359.7926940917969 594.8681640625 C 369.0615539550781 582.6746826171875 375.21783447265625 609.5240478515625 344.533203125 605.124755859375 C 376.31134033203125 584.1448364257812 375.19244384765625 577.9747924804688 347.2419128417969 564.2724609375 C 330.217529296875 563.5027465820312 325.3497314453125 568.86572265625 329.6620178222656 605.57421875" stroke-width="0.0" fill="rgb(23, 23, 22)" opacity="1.0"/>
    <path d="M 557.6566162109375 334.3614501953125 C 542.4218139648438 335.7166748046875 542.8274536132812 337.6266784667969 540.5025024414062 336.3344421386719 C 538.4452514648438 318.0000915527344 545.5892944335938 327.771484375 564.205810546875 308.7393493652344 C 541.8928833007812 303.9189758300781 544.3265380859375 310.45306396484375 545.8912353515625 326.9955749511719 C 558.3273315429688 320.8056945800781 561.0486450195312 322.0752258300781 557.6566162109375 334.3614501953125" stroke-width="0.0" fill="rgb(18, 19, 17)" opacity="0.8320825"/>
    <path d="M 285.1175231933594 19.968460083007812 C 298.7837219238281 24.429529190063477 306.2882080078125 25.347368240356445 319.0015869140625 -5.953700542449951 C 306.1989440917969 -11.431487083435059 297.029541015625 -7.892613410949707 283.2959289550781 -1.48606538772583 C 279.54803466796875 -5.000133514404297 284.7189636230469 -8.262463569641113 294.5732727050781 -8.82534122467041 C 295.81805419921875 -2.257493495941162 295.0296630859375 0.6056070327758789 285.1175231933594 19.968460083007812" stroke-width="0.0" fill="rgb(19, 19, 18)" opacity="1.0"/>
    <path d="M 561.998291015625 370.1600341796875 C 544.6163330078125 369.1614685058594 544.93408203125 368.38616943359375 539.6250610351562 368.89923095703125 C 537.1873779296875 353.3916015625 537.3771362304688 351.4530029296875 539.3538818359375 337.6066589355469 C 547.4398193359375 340.22705078125 549.5277709960938 342.55718994140625 560.30615234375 343.6525573730469 C 562.88037109375 351.9663391113281 565.1690063476562 357.2227478027344 561.998291015625 370.1600341796875" stroke-width="0.0" fill="rgb(20, 21, 19)" opacity="0.9652111"/>
    <path d="M 438.4115905761719 31.822364807128906 C 446.7093200683594 39.20771026611328 432.7370910644531 41.60315704345703 426.45721435546875 32.38665008544922 C 448.8240661621094 38.20844268798828 453.55596923828125 39.54277420043945 451.90478515625 15.179159164428711 C 432.3905334472656 22.39156723022461 417.875732421875 36.412235260009766 410.5958251953125 -5.091632843017578 C 424.6758728027344 -10.03443717956543 440.6331787109375 3.4875922203063965 438.4115905761719 31.822364807128906" stroke-width="0.0" fill="rgb(12, 13, 11)" opacity="0.9145252"/>
    <path d="M 102.41939544677734 591.1416015625 C 102.29635620117188 583.674072265625 108.7337646484375 578.0060424804688 112.08419799804688 596.7870483398438 C 88.83091735839844 598.6924438476562 85.0118637084961 597.1531982421875 86.97366333007812 588.4656372070312 C 90.87458801269531 577.3556518554688 93.22449493408203 577.3165283203125 97.90666961669922 579.1123657226562 C 100.58694458007812 579.9581298828125 105.0444564819336 580.00341796875 102.41939544677734 591.1416015625" stroke-width="0.0" fill="rgb(22, 22, 20)" opacity="1.0"/>
    <path d="M 302.2723083496094 564.8386840820312 C 320.637939453125 576.9771728515625 302.9164123535156 569.0238647460938 291.61114501953125 574.6109008789062 C 299.35565185546875 599.5123291015625 311.0364685058594 574.7342529296875 346.3919677734375 603.6825561523438 C 326.1888427734375 618.9408569335938 304.4607238769531 606.8948364257812 327.5364685058594 583.701416015625 C 303.5227966308594 571.7460327148438 294.1233825683594 575.6751708984375 302.2723083496094 564.8386840820312" stroke-width="0.0" fill="rgb(23, 23, 21)" opacity="1.0"/>
    <path d="M 240.6486053466797 27.530170440673828 C 246.2043914794922 41.70310974121094 255.71224975585938 37.019351959228516 282.4246520996094 38.06290054321289 C 281.7935485839844 14.704795837402344 284.0592346191406 8.641070365905762 258.545654296875 7.582927703857422 C 252.59815979003906 32.07933044433594 260.90106201171875 34.76291275024414 261.42474365234375 40.65299606323242 C 261.0401306152344 37.62154006958008 257.4996032714844 25.785552978515625 240.6486053466797 27.530170440673828" stroke-width="0.0" fill="rgb(19, 20, 18)" opacity="0.9925909"/>
    <path d="M 410.70501708984375 -10.681145668029785 C 454.03839111328125 -6.403434753417969 452.2825622558594 4.1284613609313965 443.75128173828125 1.3248649835586548 C 443.7914733886719 12.053461074829102 449.10382080078125 16.63673973083496 443.8375244140625 31.78582763671875 C 427.0760192871094 27.392223358154297 427.1374206542969 19.530134201049805 434.38922119140625 10.63054084777832 C 429.35235595703125 13.407964706420898 417.65240478515625 26.731525421142578 410.70501708984375 -10.681145668029785" stroke-width="0.0" fill="rgb(21, 21, 20)" opacity="1.0"/>
    <path d="M 554.135498046875 431.86993408203125 C 519.1324462890625 431.6097106933594 528.4603271484375 438.0728759765625 524.124755859375 446.83160400390625 C 522.0671997070312 464.2272644042969 522.5885620117188 468.7415771484375 525.0375366210938 464.33929443359375 C 522.1364135742188 463.1385498046875 521.4850463867188 467.8824157714844 540.0585327148438 485.0428161621094 C 553.9581909179688 486.032470703125 555.5184326171875 484.6180725097656 554.135498046875 431.86993408203125" stroke-width="0.0" fill="rgb(20, 21, 19)" opacity="1.0"/>
    <path d="M 287.0935363769531 599.9395141601562 C 278.8749694824219 566.440185546875 268.8577880859375 567.6598510742188 223.23513793945312 573.4351196289062 C 226.5789031982422 608.9104614257812 231.31028747558594 591.2401733398438 226.04811096191406 598.1171264648438 C 237.1847381591797 608.00927734375 238.1456756591797 604.1170654296875 243.01864624023438 604.2164306640625 C 254.18350219726562 605.3546142578125 269.5328369140625 621.0054321289062 287.0935363769531 599.9395141601562" stroke-width="0.0" fill="rgb(21, 21, 20)" opacity="0.9852124"/>
    <path d="M 176.17864990234375 35.60275650024414 C 183.32052612304688 6.907542705535889 189.55227661132812 8.348705291748047 207.86997985839844 3.505249261856079 C 206.8280792236328 5.833985805511475 195.38052368164062 -0.7973994612693787 223.50253295898438 -1.8111865520477295 C 218.2772979736328 30.75177001953125 209.40780639648438 28.64716339111328 217.941162109375 27.91343116760254 C 218.87315368652344 36.831878662109375 209.76597595214844 38.25794219970703 176.17864990234375 35.60275650024414" stroke-width="0.0" fill="rgb(22, 23, 22)" opacity="0.97508097"/>
  </g>
</svg>
