<?xml version="1.0" ?>
<svg xmlns="http://www.w3.org/2000/svg" version="1.1" width="600" height="600">
  <defs/>
  <g>
    <path d="M 294.7526550292969 586.658447265625 C 295.8599853515625 587.6566162109375 297.3094787597656 586.243408203125 295.6310729980469 587.07177734375 C 296.8967590332031 586.7010498046875 295.2907409667969 588.94775390625 294.0660095214844 589.1971435546875 C 293.2779541015625 590.310791015625 294.3946228027344 591.4638061523438 296.38714599609375 592.31982421875 C 297.38671875 593.6212158203125 296.4053955078125 593.7942504882812 294.7526550292969 586.658447265625" stroke-width="0.0" fill="rgb(255, 255, 255)" opacity="0.68697536"/>
    <path d="M 263.03594970703125 599.4588012695312 C 265.24542236328125 597.279541015625 265.3507080078125 597.3135375976562 265.8748474121094 597.3787231445312 C 263.7463073730469 597.012939453125 263.3037414550781 596.4197387695312 262.8922119140625 598.1423950195312 C 263.7427062988281 597.6394653320312 263.2868957519531 598.2926025390625 264.9800109863281 597.8786010742188 C 265.5114440917969 595.4563598632812 262.8022155761719 593.2761840820312 263.03594970703125 599.4588012695312" stroke-width="0.0" fill="rgb(255, 255, 255)" opacity="0.76180637"/>
    <path d="M 21.28620147705078 557.6087036132812 C 20.393728256225586 558.332763671875 22.6453800201416 556.619140625 19.953020095825195 559.450927734375 C 19.575410842895508 555.8824462890625 21.164318084716797 557.146728515625 21.980321884155273 556.472900390625 C 20.012239456176758 557.4549560546875 18.091354370117188 557.3323364257812 20.407590866088867 555.4192504882812 C 18.972240447998047 556.7440185546875 18.61164665222168 556.4944458007812 21.28620147705078 557.6087036132812" stroke-width="0.0" fill="rgb(255, 255, 255)" opacity="0.7517157"/>
    <path d="M 39.44940948486328 583.6552124023438 C 38.196876525878906 585.1604614257812 37.50149154663086 587.5484008789062 37.54857635498047 588.197998046875 C 34.742332458496094 587.3341674804688 32.532928466796875 588.3633422851562 30.778640747070312 587.8053588867188 C 28.93284797668457 587.530517578125 27.17924690246582 589.9304809570312 27.529531478881836 589.4421997070312 C 27.1121768951416 590.0490112304688 28.254667282104492 587.55078125 39.44940948486328 583.6552124023438" stroke-width="0.0" fill="rgb(255, 255, 255)" opacity="0.65057594"/>
    <path d="M 28.97207260131836 562.7683715820312 C 29.10030746459961 562.1869506835938 29.482824325561523 560.0343627929688 27.65413475036621 561.2637939453125 C 25.561485290527344 560.4342041015625 26.828506469726562 561.1031494140625 24.425857543945312 563.254150390625 C 23.08687973022461 562.036865234375 24.57561683654785 561.4832153320312 25.25847625732422 562.2645874023438 C 26.9010066986084 561.1058349609375 24.47268295288086 564.1280517578125 28.97207260131836 562.7683715820312" stroke-width="0.0" fill="rgb(255, 255, 255)" opacity="0.7263398"/>
    <path d="M 1.6492516994476318 541.9353637695312 C 2.8144471645355225 539.947021484375 2.29797101020813 538.8258056640625 2.5076863765716553 539.7896728515625 C 4.044371128082275 539.6027221679688 2.078099012374878 539.3466186523438 -0.33246174454689026 538.4133911132812 C -1.194430947303772 537.1449584960938 0.4460802376270294 536.9241333007812 1.8361657857894897 537.0180053710938 C 1.9623358249664307 537.0944213867188 4.641730785369873 535.90185546875 1.6492516994476318 541.9353637695312" stroke-width="0.0" fill="rgb(255, 255, 255)" opacity="0.80836034"/>
    <path d="M 20.840961456298828 320.843505859375 C 22.037796020507812 318.7395324707031 19.317848205566406 320.4756774902344 17.848358154296875 320.1094055175781 C 16.219552993774414 320.3784484863281 18.182207107543945 320.4404296875 19.896137237548828 320.0606994628906 C 20.09432029724121 321.44073486328125 20.149263381958008 321.9245300292969 19.097089767456055 322.138427734375 C 20.78379249572754 322.21142578125 18.349822998046875 322.1643981933594 20.840961456298828 320.843505859375" stroke-width="0.0" fill="rgb(255, 255, 255)" opacity="0.82119787"/>
    <path d="M 6.604395389556885 297.1177673339844 C 3.7260522842407227 297.40606689453125 1.8414270877838135 294.8741760253906 3.595019578933716 295.8306884765625 C 2.19111967086792 295.2832946777344 3.664677143096924 295.7656555175781 2.10475754737854 295.16400146484375 C 3.8064985275268555 296.46246337890625 5.09431266784668 298.0750732421875 3.873854637145996 296.46856689453125 C 3.748535394668579 300.4131164550781 3.885606050491333 299.5019226074219 6.604395389556885 297.1177673339844" stroke-width="0.0" fill="rgb(255, 255, 255)" opacity="0.71486944"/>
    <path d="M 64.5593032836914 588.2010498046875 C 63.8619499206543 589.9365234375 62.5340576171875 588.2218627929688 60.939971923828125 589.3517456054688 C 58.732208251953125 592.0809326171875 60.379207611083984 592.490478515625 61.18364334106445 591.6468505859375 C 60.13240051269531 592.7728881835938 62.520809173583984 593.1885375976562 62.05065155029297 593.9312744140625 C 59.38834762573242 594.5015869140625 58.297821044921875 593.3252563476562 64.5593032836914 588.2010498046875" stroke-width="0.0" fill="rgb(255, 255, 255)" opacity="0.6675079"/>
    <path d="M 44.36381912231445 580.9696655273438 C 47.40882110595703 583.15771484375 46.260128021240234 584.02490234375 43.222782135009766 585.2942504882812 C 42.393455505371094 586.165771484375 43.3043098449707 586.211181640625 40.63746643066406 585.9462280273438 C 42.575138092041016 583.3470458984375 43.313350677490234 584.0642700195312 43.112186431884766 583.2013549804688 C 41.38804244995117 583.1311645507812 41.25008773803711 580.2655029296875 44.36381912231445 580.9696655273438" stroke-width="0.0" fill="rgb(255, 255, 255)" opacity="0.6649832"/>
    <path d="M 29.167430877685547 594.7035522460938 C 27.097421646118164 592.661865234375 26.565156936645508 592.255859375 25.419591903686523 590.9768676757812 C 23.847427368164062 589.3168334960938 23.87046241760254 589.3195190429688 23.727968215942383 590.9898071289062 C 22.89010238647461 591.6312255859375 23.978742599487305 590.5474243164062 23.793001174926758 589.0046997070312 C 23.954246520996094 589.1219482421875 22.56161880493164 588.5513916015625 29.167430877685547 594.7035522460938" stroke-width="0.0" fill="rgb(255, 255, 255)" opacity="0.8028549"/>
    <path d="M 29.07733726501465 524.031005859375 C 29.726421356201172 525.3060913085938 29.43609046936035 525.3936767578125 32.5317497253418 527.8124389648438 C 32.087894439697266 524.375 33.4123420715332 523.6964111328125 31.928417205810547 524.5827026367188 C 28.548723220825195 525.4237670898438 26.362499237060547 525.21630859375 28.82567596435547 526.1451416015625 C 29.095731735229492 527.8960571289062 31.157485961914062 527.3372192382812 29.07733726501465 524.031005859375" stroke-width="0.0" fill="rgb(251, 251, 251)" opacity="0.81801605"/>
    <path d="M 14.171326637268066 578.6275634765625 C 15.520026206970215 578.7857055664062 13.586524963378906 578.0906372070312 14.135499000549316 580.1278076171875 C 12.456766128540039 581.6930541992188 11.699352264404297 580.9703979492188 10.767390251159668 580.8853759765625 C 10.196232795715332 582.2440185546875 10.97016716003418 580.2742919921875 11.587688446044922 579.8243408203125 C 13.53348445892334 579.8428344726562 14.034472465515137 581.9776611328125 14.171326637268066 578.6275634765625" stroke-width="0.0" fill="rgb(255, 255, 255)" opacity="0.7943392"/>
    <path d="M 331.82952880859375 572.215576171875 C 330.97503662109375 572.3922119140625 328.8445739746094 573.6017456054688 328.9374084472656 573.0217895507812 C 327.5183410644531 573.2627563476562 327.71893310546875 572.1419677734375 328.12457275390625 572.9392700195312 C 329.671630859375 573.2964477539062 330.2503967285156 571.478759765625 329.09185791015625 572.9356689453125 C 329.181884765625 573.3867797851562 331.30255126953125 572.3867797851562 331.82952880859375 572.215576171875" stroke-width="0.0" fill="rgb(255, 255, 255)" opacity="0.855663"/>
    <path d="M 581.1070556640625 583.6793212890625 C 579.2174072265625 584.216796875 579.11376953125 584.196533203125 580.47607421875 584.6781005859375 C 578.9541625976562 583.3582153320312 576.9210815429688 585.6517944335938 575.4505615234375 585.5106811523438 C 574.6804809570312 586.0780029296875 573.5159912109375 586.323486328125 571.40625 587.0245361328125 C 569.8506469726562 587.6114501953125 569.6065063476562 587.71630859375 581.1070556640625 583.6793212890625" stroke-width="0.0" fill="rgb(255, 255, 255)" opacity="0.72405607"/>
    <path d="M 273.5877990722656 589.6544799804688 C 273.5322265625 589.2108764648438 274.9468688964844 590.6868896484375 274.4871520996094 590.2401123046875 C 273.23052978515625 588.85498046875 272.9942626953125 588.4791259765625 270.75555419921875 589.2677612304688 C 271.91741943359375 588.0812377929688 271.621337890625 589.84619140625 270.9616394042969 588.9739379882812 C 272.9574279785156 588.6176147460938 274.48577880859375 589.5684814453125 273.5877990722656 589.6544799804688" stroke-width="0.0" fill="rgb(255, 255, 255)" opacity="0.83412814"/>
    <path d="M 598.52294921875 580.1103515625 C 597.0184326171875 582.1272583007812 595.0317993164062 580.432861328125 593.1710815429688 579.8997192382812 C 591.7024536132812 580.1563110351562 591.933349609375 580.0824584960938 591.9724731445312 578.2044677734375 C 593.92724609375 577.7409057617188 593.2094116210938 575.66357421875 591.4984741210938 575.6760864257812 C 592.7759399414062 575.212646484375 591.3511352539062 572.2650756835938 598.52294921875 580.1103515625" stroke-width="0.0" fill="rgb(255, 255, 255)" opacity="0.6454324"/>
    <path d="M 46.81602478027344 579.3004760742188 C 46.40609359741211 580.127685546875 48.016117095947266 580.3306884765625 49.967803955078125 579.6309814453125 C 50.59361267089844 581.5017700195312 47.844852447509766 581.5338134765625 49.46521759033203 581.1832275390625 C 51.02832794189453 580.2003784179688 48.89323043823242 579.0805053710938 47.71026611328125 578.9632568359375 C 48.83686065673828 576.0512084960938 48.694427490234375 578.40234375 46.81602478027344 579.3004760742188" stroke-width="0.0" fill="rgb(255, 255, 255)" opacity="0.7840085"/>
    <path d="M 9.67623519897461 324.69793701171875 C 11.412408828735352 322.8357238769531 11.792805671691895 322.9815368652344 14.310025215148926 323.0586242675781 C 13.897090911865234 323.510498046875 15.348167419433594 321.722412109375 14.90915584564209 324.35400390625 C 17.218170166015625 326.480224609375 16.486492156982422 327.4526062011719 13.037168502807617 330.5024719238281 C 12.923656463623047 328.62957763671875 13.934057235717773 326.97509765625 9.67623519897461 324.69793701171875" stroke-width="0.0" fill="rgb(255, 255, 255)" opacity="0.66412884"/>
    <path d="M 6.786794662475586 329.1358642578125 C 9.207681655883789 328.94512939453125 7.222912311553955 327.99951171875 7.976381301879883 328.4031982421875 C 8.04981803894043 326.4850158691406 8.054184913635254 327.99615478515625 6.857844829559326 326.3092041015625 C 5.191465854644775 324.7944030761719 4.01581335067749 326.093505859375 6.1267409324646 325.51824951171875 C 5.250573635101318 328.5770568847656 6.606433868408203 329.90582275390625 6.786794662475586 329.1358642578125" stroke-width="0.0" fill="rgb(255, 255, 255)" opacity="0.74195296"/>
    <path d="M 15.039085388183594 568.8392944335938 C 17.662120819091797 569.7213134765625 15.048966407775879 570.6663208007812 13.88433837890625 569.8358764648438 C 13.391966819763184 569.56298828125 15.209817886352539 567.8832397460938 15.176284790039062 569.035400390625 C 12.354218482971191 567.935791015625 10.45067310333252 568.3302001953125 11.594564437866211 567.7640380859375 C 10.346957206726074 567.7025146484375 12.07213306427002 568.5248413085938 15.039085388183594 568.8392944335938" stroke-width="0.0" fill="rgb(255, 255, 255)" opacity="0.73762333"/>
    <path d="M 49.84929275512695 600.3255615234375 C 49.30123519897461 600.9093627929688 50.93867874145508 600.3173217773438 52.53985595703125 602.4367065429688 C 53.41368103027344 601.63720703125 55.48582077026367 599.423583984375 53.73710632324219 600.8975219726562 C 53.51105880737305 600.4323120117188 55.191734313964844 601.8164672851562 55.71854782104492 600.4220581054688 C 53.553470611572266 602.2813720703125 50.93335723876953 604.5044555664062 49.84929275512695 600.3255615234375" stroke-width="0.0" fill="rgb(255, 255, 255)" opacity="0.94365555"/>
    <path d="M 315.5646057128906 598.533203125 C 313.8129577636719 597.3953247070312 316.0870056152344 597.0035400390625 316.84649658203125 595.5419311523438 C 317.011962890625 597.3018188476562 318.052490234375 598.1092529296875 315.29388427734375 597.951416015625 C 315.2444152832031 600.8976440429688 313.7073059082031 600.8035888671875 314.05877685546875 599.1055908203125 C 313.2165222167969 599.478271484375 311.84820556640625 600.2034912109375 315.5646057128906 598.533203125" stroke-width="0.0" fill="rgb(255, 255, 255)" opacity="0.7408842"/>
    <path d="M 325.4617919921875 581.9097290039062 C 321.36492919921875 582.4732666015625 322.67559814453125 581.8673095703125 323.7378234863281 581.921630859375 C 322.2949523925781 581.7508544921875 322.5319519042969 582.631591796875 322.9067687988281 581.7622680664062 C 324.1027526855469 582.97265625 325.49609375 581.4588012695312 323.792236328125 582.1032104492188 C 324.089599609375 583.8374633789062 324.28253173828125 586.05615234375 325.4617919921875 581.9097290039062" stroke-width="0.0" fill="rgb(255, 255, 255)" opacity="0.817158"/>
    <path d="M 564.045654296875 566.0053100585938 C 563.9305419921875 563.8023071289062 563.5974731445312 561.615478515625 565.1598510742188 563.6024169921875 C 566.4749755859375 565.2684936523438 567.7335815429688 565.2009887695312 570.2854614257812 564.8770141601562 C 569.1586303710938 566.0100708007812 570.8618774414062 565.6677856445312 572.5435791015625 567.9461669921875 C 573.3471069335938 568.5399169921875 574.7587890625 565.5387573242188 564.045654296875 566.0053100585938" stroke-width="0.0" fill="rgb(255, 255, 255)" opacity="0.67048717"/>
    <path d="M 553.7810668945312 577.3270874023438 C 554.1283569335938 578.1538696289062 556.813720703125 576.1534423828125 555.7713623046875 575.7054443359375 C 556.6017456054688 576.9259033203125 554.750244140625 576.153076171875 555.3148803710938 577.3128662109375 C 552.3129272460938 577.6224365234375 550.8385009765625 577.2007446289062 548.9014892578125 576.34375 C 548.458251953125 576.204345703125 549.9620971679688 577.2282104492188 553.7810668945312 577.3270874023438" stroke-width="0.0" fill="rgb(255, 255, 255)" opacity="0.75008345"/>
    <path d="M 38.96992874145508 272.386962890625 C 37.272499084472656 275.4030456542969 35.605430603027344 276.1842041015625 37.185516357421875 278.04931640625 C 40.56208801269531 277.67779541015625 38.68096923828125 279.7333068847656 38.31380081176758 278.80877685546875 C 37.99128341674805 279.4115905761719 35.91862869262695 279.74420166015625 35.729270935058594 277.7319641113281 C 33.56992721557617 279.4627990722656 33.40690612792969 281.2552795410156 38.96992874145508 272.386962890625" stroke-width="0.0" fill="rgb(255, 255, 255)" opacity="0.6863414"/>
    <path d="M 543.1329345703125 575.1470336914062 C 541.47705078125 573.2728881835938 540.4187622070312 573.484130859375 538.8380126953125 575.9224853515625 C 537.942626953125 575.8402099609375 540.6183471679688 578.236572265625 541.36083984375 578.6339111328125 C 538.9993286132812 580.8529052734375 540.6296997070312 580.0119018554688 539.1879272460938 581.4463500976562 C 539.016357421875 583.12060546875 537.2884521484375 584.1437377929688 543.1329345703125 575.1470336914062" stroke-width="0.0" fill="rgb(255, 255, 255)" opacity="0.66629595"/>
    <path d="M 39.969512939453125 299.55657958984375 C 36.978721618652344 302.5798034667969 36.80045700073242 303.1623229980469 36.96559143066406 300.0359191894531 C 38.190635681152344 299.9523620605469 39.21236038208008 297.880615234375 41.03580856323242 295.7102966308594 C 41.342041015625 298.7127990722656 40.4177131652832 296.7005615234375 39.93256378173828 294.9051513671875 C 40.95285415649414 292.3816223144531 40.715576171875 292.3117980957031 39.969512939453125 299.55657958984375" stroke-width="0.0" fill="rgb(255, 255, 255)" opacity="0.72131354"/>
    <path d="M 592.0523681640625 572.15966796875 C 592.5817260742188 570.2786865234375 592.9627075195312 571.9193725585938 591.4381713867188 572.2095947265625 C 590.5049438476562 571.0806884765625 590.0202026367188 569.3796997070312 588.2907104492188 570.0825805664062 C 587.6973266601562 569.2872924804688 588.0723266601562 570.9277954101562 588.1438598632812 571.1436157226562 C 590.170166015625 570.31982421875 589.620849609375 572.8101196289062 592.0523681640625 572.15966796875" stroke-width="0.0" fill="rgb(255, 255, 255)" opacity="0.74554414"/>
    <path d="M 565.118896484375 588.6878051757812 C 565.0667724609375 586.61572265625 565.24560546875 586.4739990234375 562.1782836914062 587.334716796875 C 561.856689453125 590.1845092773438 561.8582153320312 589.9420166015625 562.7562866210938 589.8157958984375 C 560.38623046875 591.3093872070312 560.8296508789062 591.2423706054688 560.4903564453125 591.5202026367188 C 562.10498046875 589.91455078125 562.4911499023438 589.4845581054688 565.118896484375 588.6878051757812" stroke-width="0.0" fill="rgb(255, 255, 255)" opacity="0.7403022"/>
    <path d="M 322.916015625 574.08984375 C 324.66119384765625 573.8399047851562 327.2961730957031 574.146240234375 327.18206787109375 573.5802612304688 C 326.7684631347656 572.026123046875 326.23736572265625 571.03466796875 328.2058410644531 570.4884033203125 C 328.8211975097656 569.642333984375 330.1678466796875 569.7359008789062 330.17889404296875 568.3578491210938 C 332.9363098144531 567.7972412109375 334.5275573730469 565.4038696289062 322.916015625 574.08984375" stroke-width="0.0" fill="rgb(255, 255, 255)" opacity="0.6740212"/>
    <path d="M 575.4407958984375 594.52001953125 C 576.3711547851562 596.8733520507812 574.8911743164062 596.500244140625 576.08251953125 595.510498046875 C 574.9873046875 595.1658935546875 575.5734252929688 593.8329467773438 577.2495727539062 592.0939331054688 C 579.3388671875 591.3226928710938 579.5479125976562 593.3727416992188 577.962890625 593.0098266601562 C 577.642578125 593.723388671875 579.421630859375 596.0656127929688 575.4407958984375 594.52001953125" stroke-width="0.0" fill="rgb(255, 255, 255)" opacity="0.7338647"/>
    <path d="M 348.4149475097656 574.6707763671875 C 347.4299621582031 574.6792602539062 349.4727478027344 575.4156494140625 351.0483093261719 574.7494506835938 C 351.3721618652344 576.77392578125 349.0772399902344 575.8980102539062 347.5025634765625 575.9514770507812 C 345.914306640625 576.2191772460938 343.6651916503906 575.4391479492188 343.8272705078125 576.5948486328125 C 346.1755676269531 577.360107421875 344.05322265625 580.0638427734375 348.4149475097656 574.6707763671875" stroke-width="0.0" fill="rgb(255, 255, 255)" opacity="0.7037423"/>
    <path d="M 11.331178665161133 559.09326171875 C 9.828707695007324 558.1591186523438 8.738129615783691 557.0747680664062 6.343560218811035 556.5820922851562 C 5.259851455688477 555.6565551757812 3.3043718338012695 554.8648681640625 4.019505500793457 554.4483032226562 C 5.183995723724365 552.5645141601562 3.933987855911255 554.8527221679688 2.429779291152954 556.055908203125 C 4.188929557800293 556.4512329101562 4.707424163818359 554.4711303710938 11.331178665161133 559.09326171875" stroke-width="0.0" fill="rgb(255, 255, 255)" opacity="0.7171773"/>
    <path d="M 560.8973999023438 590.0513305664062 C 559.465576171875 590.2720336914062 560.903564453125 588.4660034179688 559.1964111328125 588.968994140625 C 560.5732421875 589.833251953125 561.3607177734375 591.0999145507812 560.9021606445312 588.6199951171875 C 559.3922729492188 589.9091186523438 558.911865234375 589.20703125 560.5496215820312 588.16162109375 C 558.3834228515625 589.5099487304688 557.9725952148438 590.1995239257812 560.8973999023438 590.0513305664062" stroke-width="0.0" fill="rgb(255, 255, 255)" opacity="0.82608134"/>
    <path d="M 3.45111083984375 539.9334106445312 C 1.428824782371521 540.0699462890625 1.0805124044418335 540.0519409179688 -1.0770565271377563 539.9822998046875 C -0.13145987689495087 541.3239135742188 0.0036918879486620426 543.221435546875 -1.6815603971481323 541.9354248046875 C -2.528625249862671 541.4368896484375 -1.4061206579208374 540.8596801757812 -2.6042115688323975 540.0711669921875 C -0.39660537242889404 539.0984497070312 -0.8286265134811401 536.7734375 3.45111083984375 539.9334106445312" stroke-width="0.0" fill="rgb(255, 255, 255)" opacity="0.8776757"/>
    <path d="M 281.2887268066406 577.955810546875 C 279.6047058105469 578.0599365234375 278.5343017578125 576.4833374023438 278.678466796875 577.0125732421875 C 280.5596008300781 577.8907470703125 280.3797912597656 578.0096435546875 279.2572937011719 579.8317260742188 C 280.612060546875 577.8513793945312 279.0497131347656 579.6214599609375 281.0457763671875 580.0660400390625 C 282.3354797363281 579.3397827148438 284.7724304199219 577.4456176757812 281.2887268066406 577.955810546875" stroke-width="0.0" fill="rgb(255, 255, 255)" opacity="0.7447535"/>
    <path d="M 267.19403076171875 584.63232421875 C 268.1652526855469 585.5888671875 267.7870788574219 585.51416015625 267.82489013671875 587.4299926757812 C 269.67889404296875 584.8065185546875 269.36883544921875 583.7025146484375 267.3892517089844 583.9912719726562 C 265.291259765625 584.4058837890625 266.5220031738281 583.4551391601562 265.4035949707031 582.4656982421875 C 266.8844909667969 584.1300659179688 266.8717346191406 581.2647094726562 267.19403076171875 584.63232421875" stroke-width="0.0" fill="rgb(255, 255, 255)" opacity="0.8089944"/>
    <path d="M 33.837764739990234 326.9203186035156 C 34.46250534057617 327.475341796875 36.89142990112305 326.57958984375 38.407901763916016 323.9627990722656 C 39.753875732421875 324.1159973144531 40.380069732666016 323.2392883300781 39.1180534362793 324.1446228027344 C 42.20172119140625 323.54925537109375 40.64424514770508 324.4400634765625 40.79890823364258 326.8820495605469 C 43.26203155517578 327.7542724609375 45.02913284301758 326.8802490234375 33.837764739990234 326.9203186035156" stroke-width="0.0" fill="rgb(255, 255, 255)" opacity="0.67700326"/>
    <path d="M 22.371387481689453 545.11083984375 C 20.704309463500977 547.0714721679688 19.90297508239746 545.86376953125 21.90968894958496 546.01708984375 C 22.781354904174805 548.0474243164062 20.424442291259766 546.593017578125 20.87118148803711 546.4819946289062 C 24.01640510559082 543.3357543945312 25.193523406982422 542.1911010742188 24.96286964416504 543.8352661132812 C 24.393901824951172 544.568115234375 23.466665267944336 543.3892822265625 22.371387481689453 545.11083984375" stroke-width="0.0" fill="rgb(255, 255, 255)" opacity="0.75314707"/>
    <path d="M 26.629127502441406 272.9740905761719 C 25.105806350708008 272.1688232421875 26.90928840637207 269.76861572265625 25.971445083618164 270.99676513671875 C 23.955305099487305 270.9622497558594 25.861305236816406 269.3533630371094 25.107728958129883 270.0333251953125 C 24.958038330078125 267.83355712890625 23.44623374938965 269.0668029785156 24.05484390258789 270.3671569824219 C 22.85729217529297 270.35992431640625 21.72689437866211 268.5159606933594 26.629127502441406 272.9740905761719" stroke-width="0.0" fill="rgb(255, 255, 255)" opacity="0.7926982"/>
    <path d="M 34.52982711791992 557.0933227539062 C 33.56205749511719 555.9127807617188 32.492645263671875 556.4619750976562 34.069602966308594 555.8128051757812 C 34.61436462402344 554.66455078125 32.827598571777344 553.2340698242188 31.21674346923828 551.8804321289062 C 30.488943099975586 550.4064331054688 32.00882339477539 549.18603515625 30.12898826599121 548.867919921875 C 29.665468215942383 550.8759155273438 29.178253173828125 552.0657958984375 34.52982711791992 557.0933227539062" stroke-width="0.0" fill="rgb(255, 255, 255)" opacity="0.6604714"/>
    <path d="M 300.10845947265625 582.7891235351562 C 299.5311279296875 583.779296875 300.4892578125 584.3198852539062 303.0832214355469 584.0045166015625 C 302.95709228515625 581.4602661132812 302.7599792480469 582.91552734375 303.07275390625 580.91845703125 C 302.6030578613281 580.7388305664062 304.8699035644531 581.4948120117188 303.84765625 580.9091796875 C 303.631591796875 581.4188232421875 305.9162292480469 583.8077392578125 300.10845947265625 582.7891235351562" stroke-width="0.0" fill="rgb(255, 255, 255)" opacity="0.75074273"/>
    <path d="M 1.3997539281845093 251.8209686279297 C -0.25800812244415283 250.2862091064453 -0.07752662897109985 251.0789794921875 1.3859912157058716 249.92689514160156 C -0.24750345945358276 250.82025146484375 -0.6366338729858398 252.47921752929688 -3.117722272872925 251.6641082763672 C -3.911875009536743 254.0191650390625 -5.90531063079834 254.5188751220703 -6.400590896606445 252.26919555664062 C -7.785286903381348 252.60867309570312 -8.114264488220215 254.434326171875 1.3997539281845093 251.8209686279297" stroke-width="0.0" fill="rgb(255, 255, 255)" opacity="0.868532"/>
    <path d="M 25.106067657470703 275.9291076660156 C 23.3737850189209 276.4784851074219 23.44108772277832 274.0126647949219 25.78498649597168 271.5646057128906 C 24.77691650390625 271.01910400390625 26.32691764831543 273.2226867675781 28.410968780517578 274.658203125 C 25.587055206298828 275.78680419921875 23.014907836914062 274.44207763671875 24.368473052978516 274.92596435546875 C 23.71885871887207 276.19915771484375 24.150741577148438 275.9276428222656 25.106067657470703 275.9291076660156" stroke-width="0.0" fill="rgb(255, 255, 255)" opacity="0.71203285"/>
    <path d="M 546.9178466796875 572.6534423828125 C 546.8148803710938 573.5652465820312 547.7468872070312 573.1063842773438 548.6102294921875 571.7234497070312 C 550.0237426757812 573.1417236328125 547.9699096679688 575.4545288085938 546.1925048828125 574.9754638671875 C 544.4990234375 574.7614135742188 542.6630249023438 572.4815063476562 540.45703125 575.0199584960938 C 540.1845092773438 574.3732299804688 542.8890380859375 576.7825927734375 546.9178466796875 572.6534423828125" stroke-width="0.0" fill="rgb(255, 255, 255)" opacity="0.6817502"/>
    <path d="M 12.53093433380127 592.4508056640625 C 11.904935836791992 593.6348876953125 12.762042999267578 592.79541015625 13.115832328796387 591.0137329101562 C 14.991554260253906 591.39453125 13.83555793762207 589.8417358398438 12.598353385925293 589.3016357421875 C 14.298855781555176 588.5169677734375 14.157171249389648 589.2001953125 17.082359313964844 588.9140014648438 C 16.996244430541992 589.6909790039062 16.71430778503418 590.2015380859375 12.53093433380127 592.4508056640625" stroke-width="0.0" fill="rgb(255, 255, 255)" opacity="0.7018858"/>
    <path d="M 259.83636474609375 597.9467163085938 C 258.72235107421875 598.8347778320312 258.4880676269531 596.4891357421875 260.053466796875 598.3751220703125 C 258.3619384765625 597.2487182617188 259.3897705078125 595.7575073242188 258.99725341796875 593.3007202148438 C 259.221923828125 592.19091796875 256.17462158203125 594.0035400390625 256.87457275390625 596.8527221679688 C 259.73681640625 597.5945434570312 260.5736083984375 595.9364013671875 259.83636474609375 597.9467163085938" stroke-width="0.0" fill="rgb(255, 255, 255)" opacity="0.7404384"/>
    <path d="M 294.6082458496094 597.6162109375 C 292.197021484375 597.96875 292.2611083984375 599.915771484375 291.44451904296875 598.5866088867188 C 290.05126953125 596.7985229492188 291.870361328125 594.2483520507812 291.0013122558594 593.3707885742188 C 292.12603759765625 594.4217529296875 290.8602600097656 593.3486328125 290.0101318359375 592.2489013671875 C 288.0675048828125 591.4767456054688 289.76019287109375 591.3526000976562 294.6082458496094 597.6162109375" stroke-width="0.0" fill="rgb(255, 255, 255)" opacity="0.7093974"/>
    <path d="M 32.727291107177734 263.8641052246094 C 34.012351989746094 263.7506103515625 32.50366973876953 264.06390380859375 30.679513931274414 263.98321533203125 C 32.32646179199219 266.84698486328125 33.96759033203125 266.01397705078125 35.433021545410156 265.93365478515625 C 36.657901763916016 266.8392639160156 35.81892013549805 268.85089111328125 35.55023193359375 267.57879638671875 C 35.866695404052734 269.6021423339844 36.898685455322266 269.5328063964844 32.727291107177734 263.8641052246094" stroke-width="0.0" fill="rgb(255, 255, 255)" opacity="0.6937985"/>
    <path d="M 6.841794013977051 551.9918212890625 C 7.031396389007568 551.66455078125 5.211833477020264 550.7694091796875 3.6181302070617676 548.9788208007812 C 3.021267890930176 549.8171997070312 1.1353044509887695 551.148193359375 3.7538692951202393 548.9666748046875 C 1.4173023700714111 547.6062622070312 -0.20131240785121918 544.9928588867188 -1.497634768486023 543.8681640625 C 0.1427396833896637 546.1156616210938 -1.940040946006775 544.021240234375 6.841794013977051 551.9918212890625" stroke-width="0.0" fill="rgb(255, 255, 255)" opacity="0.7573775"/>
    <path d="M 269.17529296875 598.6986083984375 C 268.5378723144531 597.3632202148438 269.9782409667969 598.0720825195312 270.28900146484375 598.2965087890625 C 269.6859130859375 599.068115234375 270.1082763671875 597.4970703125 273.6304016113281 596.9064331054688 C 274.7665710449219 596.4905395507812 274.8070068359375 598.2330932617188 273.5540466308594 598.4232788085938 C 274.7898864746094 597.8583374023438 275.60076904296875 595.4459228515625 269.17529296875 598.6986083984375" stroke-width="0.0" fill="rgb(255, 255, 255)" opacity="0.74893796"/>
    <path d="M 267.28399658203125 594.75537109375 C 266.3431091308594 592.96923828125 265.6741943359375 594.7284545898438 266.64556884765625 593.776123046875 C 264.27581787109375 596.2706909179688 263.8019714355469 597.9838256835938 261.8642272949219 594.9129028320312 C 259.9032897949219 592.79296875 260.26043701171875 593.8095703125 260.7872619628906 593.9156494140625 C 261.0416259765625 593.8990478515625 260.3664245605469 595.7005615234375 267.28399658203125 594.75537109375" stroke-width="0.0" fill="rgb(255, 255, 255)" opacity="0.7091741"/>
    <path d="M 36.323936462402344 251.80079650878906 C 35.222312927246094 254.4902801513672 36.7754020690918 252.55052185058594 35.82044982910156 249.76568603515625 C 36.065452575683594 251.3300018310547 35.98501205444336 248.71641540527344 35.91046142578125 247.21485900878906 C 33.730709075927734 246.18296813964844 31.331621170043945 247.76873779296875 33.97026824951172 249.23187255859375 C 35.022525787353516 250.1912841796875 31.825862884521484 252.89984130859375 36.323936462402344 251.80079650878906" stroke-width="0.0" fill="rgb(255, 255, 255)" opacity="0.6973713"/>
    <path d="M 26.304744720458984 546.1430053710938 C 27.51152229309082 546.78857421875 26.74959945678711 547.9306030273438 27.036842346191406 549.3058471679688 C 28.21181297302246 547.881103515625 30.467771530151367 549.9720458984375 28.034521102905273 551.2929077148438 C 27.99519920349121 549.4127197265625 28.24964141845703 549.3054809570312 27.973100662231445 548.93115234375 C 28.838022232055664 546.6477661132812 27.23433494567871 547.2506103515625 26.304744720458984 546.1430053710938" stroke-width="0.0" fill="rgb(255, 255, 255)" opacity="0.7675899"/>
    <path d="M 352.5830383300781 591.6941528320312 C 354.0711975097656 591.8262329101562 354.8794250488281 593.8648681640625 356.3291320800781 594.5178833007812 C 354.745361328125 595.05908203125 353.55145263671875 597.1405639648438 350.69476318359375 599.5684204101562 C 352.8049621582031 601.6846313476562 353.6640625 599.9329833984375 355.0279846191406 598.4959716796875 C 355.31201171875 596.7897338867188 354.5387878417969 594.6004028320312 352.5830383300781 591.6941528320312" stroke-width="0.0" fill="rgb(255, 255, 255)" opacity="0.6464478"/>
    <path d="M 15.74942684173584 593.1884765625 C 14.952187538146973 595.0521240234375 16.28331756591797 595.8804321289062 16.165815353393555 597.9401245117188 C 14.75106143951416 597.7680053710938 13.913843154907227 599.4766845703125 14.861597061157227 597.9298095703125 C 14.20776653289795 599.988037109375 14.500242233276367 599.1615600585938 14.063087463378906 600.3416137695312 C 14.987446784973145 598.332275390625 14.701266288757324 597.1696166992188 15.74942684173584 593.1884765625" stroke-width="0.0" fill="rgb(255, 255, 255)" opacity="0.7536015"/>
    <path d="M 570.5465087890625 595.0208129882812 C 570.0762939453125 596.1557006835938 571.7285766601562 597.3736572265625 570.1177368164062 597.3511352539062 C 572.5250854492188 598.0228881835938 572.9044799804688 600.2955322265625 570.2272338867188 601.5511474609375 C 570.2523193359375 604.0111694335938 570.8535766601562 605.1773071289062 569.1996459960938 607.523681640625 C 570.5975341796875 605.3423461914062 571.6956176757812 605.4788208007812 570.5465087890625 595.0208129882812" stroke-width="0.0" fill="rgb(255, 255, 255)" opacity="0.7646559"/>
    <path d="M 60.24762725830078 561.8926391601562 C 62.26816940307617 561.7181396484375 62.3303108215332 563.3124389648438 63.68558883666992 561.9560546875 C 64.488037109375 563.16455078125 65.92103576660156 562.0865478515625 67.04847717285156 562.4821166992188 C 67.85456848144531 561.5150146484375 68.63316345214844 559.143310546875 67.98186492919922 560.5975341796875 C 67.20458221435547 561.0699462890625 69.28919219970703 563.5732421875 60.24762725830078 561.8926391601562" stroke-width="0.0" fill="rgb(255, 255, 255)" opacity="0.71043664"/>
    <path d="M 15.466632843017578 268.9227294921875 C 15.048154830932617 267.0361022949219 15.448627471923828 269.5030517578125 16.398681640625 269.5518798828125 C 15.273611068725586 268.8101501464844 13.987144470214844 268.6479187011719 14.053423881530762 269.8046875 C 12.77450942993164 271.19659423828125 11.496965408325195 271.96905517578125 12.1517972946167 269.6322937011719 C 12.962112426757812 270.7418212890625 14.950078964233398 270.1893005371094 15.466632843017578 268.9227294921875" stroke-width="0.0" fill="rgb(255, 255, 255)" opacity="0.7294483"/>
    <path d="M 38.71017837524414 298.2707214355469 C 41.582176208496094 296.6859130859375 40.12786865234375 295.4504089355469 42.023033142089844 294.6820373535156 C 42.20759582519531 292.9664306640625 41.76719284057617 291.16082763671875 42.25444412231445 289.7070007324219 C 41.69404983520508 290.928955078125 43.03495407104492 288.9048767089844 41.9124870300293 290.7565612792969 C 42.42169952392578 293.2137451171875 38.91165542602539 291.518310546875 38.71017837524414 298.2707214355469" stroke-width="0.0" fill="rgb(255, 255, 255)" opacity="0.7009347"/>
    <path d="M 39.57353591918945 283.48870849609375 C 42.60791778564453 284.63995361328125 40.16476058959961 284.8375549316406 41.27647399902344 284.0987854003906 C 40.50334548950195 280.5373229980469 41.992149353027344 280.395263671875 43.32382583618164 278.0780944824219 C 44.569236755371094 276.8236389160156 46.634246826171875 277.331787109375 43.79589080810547 277.4239501953125 C 45.952693939208984 274.33697509765625 47.08192825317383 272.49462890625 39.57353591918945 283.48870849609375" stroke-width="0.0" fill="rgb(255, 255, 255)" opacity="0.6893528"/>
    <path d="M 294.6082458496094 572.890625 C 295.9981994628906 574.6056518554688 297.0573425292969 576.1871948242188 298.3492431640625 573.9195556640625 C 300.75042724609375 574.2376708984375 300.9563293457031 572.2077026367188 297.49285888671875 572.9620971679688 C 299.3086242675781 573.9298706054688 301.7767028808594 575.1017456054688 301.16180419921875 575.0796508789062 C 300.31671142578125 575.9593505859375 303.1919860839844 573.6801147460938 294.6082458496094 572.890625" stroke-width="0.0" fill="rgb(255, 255, 255)" opacity="0.6902665"/>
    <path d="M 20.17481231689453 244.39149475097656 C 18.093482971191406 246.30796813964844 18.7701358795166 246.4739990234375 19.736576080322266 244.56887817382812 C 20.400840759277344 243.66091918945312 19.8045654296875 245.80026245117188 19.92841911315918 244.5086212158203 C 20.513845443725586 242.37257385253906 19.69490623474121 242.9947967529297 17.034133911132812 243.11245727539062 C 17.12937355041504 241.37881469726562 15.390681266784668 240.15493774414062 20.17481231689453 244.39149475097656" stroke-width="0.0" fill="rgb(255, 255, 255)" opacity="0.7252134"/>
    <path d="M 579.5902709960938 564.9366455078125 C 582.5905151367188 565.0283813476562 580.5565795898438 567.0848388671875 578.566650390625 566.796875 C 580.3159790039062 566.3763427734375 582.1512451171875 567.4983520507812 583.5552978515625 570.5421142578125 C 584.9754638671875 569.5716552734375 586.6141357421875 568.7296752929688 585.8895263671875 567.7776489257812 C 584.939208984375 568.9971313476562 582.950439453125 571.05322265625 579.5902709960938 564.9366455078125" stroke-width="0.0" fill="rgb(255, 255, 255)" opacity="0.67138696"/>
    <path d="M 23.297794342041016 262.2712707519531 C 25.2618465423584 261.020263671875 23.431074142456055 258.064453125 21.35997772216797 261.19830322265625 C 21.667621612548828 263.06048583984375 19.700944900512695 263.8245544433594 18.773876190185547 262.0594482421875 C 17.416532516479492 260.1642150878906 16.503528594970703 259.585693359375 17.14259147644043 260.9604797363281 C 18.23436164855957 258.7671813964844 18.41758918762207 260.30126953125 23.297794342041016 262.2712707519531" stroke-width="0.0" fill="rgb(255, 255, 255)" opacity="0.65691876"/>
    <path d="M 33.904510498046875 316.42742919921875 C 36.029056549072266 317.7934265136719 35.62363052368164 320.03436279296875 38.187496185302734 321.28082275390625 C 37.86061096191406 320.6300964355469 38.174015045166016 320.8658142089844 37.9158821105957 322.44091796875 C 35.75483322143555 319.9430236816406 34.851558685302734 319.210205078125 34.18104934692383 320.4316101074219 C 33.41879653930664 317.95819091796875 34.17350387573242 320.5545654296875 33.904510498046875 316.42742919921875" stroke-width="0.0" fill="rgb(255, 255, 255)" opacity="0.6772736"/>
    <path d="M 8.966747283935547 287.1639099121094 C 8.20914363861084 288.0298767089844 9.298722267150879 288.35955810546875 10.03691577911377 289.0030212402344 C 8.715107917785645 287.8478698730469 8.825439453125 288.7117919921875 8.66727066040039 286.31097412109375 C 9.911311149597168 284.12469482421875 7.936166286468506 282.1667175292969 7.5831403732299805 286.2901306152344 C 5.966021537780762 285.1448059082031 7.209071636199951 283.4342041015625 8.966747283935547 287.1639099121094" stroke-width="0.0" fill="rgb(255, 255, 255)" opacity="0.7407066"/>
    <path d="M 288.97412109375 585.0244140625 C 286.9011535644531 585.791259765625 289.2017822265625 588.243896484375 287.3841857910156 589.1431274414062 C 287.89788818359375 589.2432250976562 290.03143310546875 591.6104736328125 290.4356689453125 591.9510498046875 C 288.19024658203125 591.44140625 286.4729919433594 594.1055908203125 283.73388671875 592.73681640625 C 282.8252258300781 594.296142578125 282.26641845703125 595.3154296875 288.97412109375 585.0244140625" stroke-width="0.0" fill="rgb(255, 255, 255)" opacity="0.6217903"/>
    <path d="M 585.5880737304688 581.2266845703125 C 587.8073120117188 580.4403686523438 588.9912719726562 581.6552124023438 587.61181640625 581.6415405273438 C 589.3497314453125 582.62060546875 591.158203125 581.8084106445312 589.5968017578125 579.930419921875 C 587.56982421875 579.0325317382812 589.6417846679688 579.51953125 588.7528076171875 581.1039428710938 C 586.4945678710938 578.5819091796875 586.2630004882812 580.0358276367188 585.5880737304688 581.2266845703125" stroke-width="0.0" fill="rgb(255, 255, 255)" opacity="0.7233098"/>
    <path d="M 47.766841888427734 555.9229736328125 C 48.516632080078125 557.9747924804688 46.742408752441406 556.5690307617188 48.01110076904297 556.6890258789062 C 47.509727478027344 555.4420776367188 49.019649505615234 555.4290161132812 46.95164489746094 554.8035278320312 C 47.035030364990234 555.8322143554688 47.05923843383789 556.4586791992188 46.88582992553711 558.340576171875 C 46.55607604980469 556.4044189453125 48.667728424072266 557.0951538085938 47.766841888427734 555.9229736328125" stroke-width="0.0" fill="rgb(255, 255, 255)" opacity="0.84364444"/>
    <path d="M 36.91814422607422 297.0602111816406 C 38.238590240478516 296.43829345703125 36.88284683227539 297.24163818359375 37.15262222290039 297.4903869628906 C 35.90540313720703 295.6943664550781 35.845619201660156 297.653564453125 36.146240234375 299.7596130371094 C 33.9283561706543 300.5921630859375 34.27998352050781 299.6627502441406 32.842403411865234 298.4630432128906 C 32.52161407470703 296.82861328125 34.48768615722656 296.82958984375 36.91814422607422 297.0602111816406" stroke-width="0.0" fill="rgb(255, 255, 255)" opacity="0.70994014"/>
    <path d="M 24.37362289428711 583.1235961914062 C 23.695337295532227 583.6315307617188 22.93094825744629 584.8040161132812 24.27765464782715 583.202392578125 C 24.664796829223633 583.013427734375 25.7990665435791 580.5577392578125 24.94736671447754 582.8360595703125 C 25.899795532226562 579.6444091796875 25.92860984802246 580.85888671875 25.917774200439453 578.7357788085938 C 24.664892196655273 578.1348876953125 27.554061889648438 578.407470703125 24.37362289428711 583.1235961914062" stroke-width="0.0" fill="rgb(255, 255, 255)" opacity="0.7658421"/>
    <path d="M 345.30340576171875 571.4711303710938 C 345.1070861816406 569.2262573242188 345.8626403808594 571.3803100585938 344.5356140136719 572.171142578125 C 341.9672546386719 571.23193359375 343.3736877441406 573.2979125976562 342.7062072753906 573.4459228515625 C 341.70440673828125 573.3558959960938 344.46685791015625 572.9506225585938 344.074462890625 572.6515502929688 C 343.4727783203125 571.38720703125 344.5556945800781 570.058837890625 345.30340576171875 571.4711303710938" stroke-width="0.0" fill="rgb(255, 255, 255)" opacity="0.8106887"/>
    <path d="M 582.3629150390625 570.7646484375 C 584.8745727539062 571.6836547851562 586.5584716796875 574.1382446289062 587.31884765625 576.154052734375 C 588.9429321289062 573.7933349609375 589.37744140625 574.6929321289062 589.2086181640625 573.5389404296875 C 587.3292846679688 572.1502685546875 588.084228515625 573.3582763671875 588.6937866210938 575.1416015625 C 589.5817260742188 574.3167114257812 588.41943359375 574.851806640625 582.3629150390625 570.7646484375" stroke-width="0.0" fill="rgb(255, 255, 255)" opacity="0.72527236"/>
    <path d="M 13.617291450500488 328.7170104980469 C 12.458902359008789 327.1370849609375 12.985909461975098 325.7939147949219 14.708881378173828 322.969970703125 C 15.230790138244629 324.89385986328125 16.366735458374023 323.9309387207031 17.36151695251465 321.9972229003906 C 17.126604080200195 321.7156677246094 16.634366989135742 321.78839111328125 16.671253204345703 323.01287841796875 C 16.605199813842773 321.76336669921875 19.26288414001465 319.473876953125 13.617291450500488 328.7170104980469" stroke-width="0.0" fill="rgb(255, 255, 255)" opacity="0.7537163"/>
    <path d="M 37.72315216064453 561.7176513671875 C 38.02479934692383 562.4402465820312 35.41901779174805 560.807861328125 36.12717056274414 563.6351318359375 C 35.458675384521484 565.4420166015625 36.66366195678711 564.318359375 38.354183197021484 566.7195434570312 C 37.55352783203125 567.3309936523438 38.688087463378906 569.2199096679688 41.1102409362793 569.171875 C 40.38971710205078 568.0154418945312 39.05363082885742 566.8778686523438 37.72315216064453 561.7176513671875" stroke-width="0.0" fill="rgb(255, 255, 255)" opacity="0.6534421"/>
    <path d="M 582.0137939453125 578.1981201171875 C 584.0830078125 579.4293212890625 586.1719970703125 578.4564208984375 587.6157836914062 577.7308959960938 C 585.7495727539062 578.7255859375 586.8627319335938 578.2166748046875 587.0042114257812 578.1070556640625 C 586.875244140625 578.4710693359375 584.7259521484375 579.1218872070312 581.9295654296875 578.5159301757812 C 581.9987182617188 577.5718994140625 584.012939453125 577.6588745117188 582.0137939453125 578.1981201171875" stroke-width="0.0" fill="rgb(255, 255, 255)" opacity="0.7643396"/>
    <path d="M 600.3480224609375 589.0750732421875 C 600.8397827148438 587.6456298828125 602.379638671875 585.342041015625 599.9540405273438 585.8370361328125 C 602.2380981445312 586.5631713867188 604.60302734375 586.9878540039062 604.2321166992188 588.7098999023438 C 606.161376953125 587.1912231445312 608.00244140625 584.694580078125 607.6513061523438 582.58447265625 C 607.3139038085938 584.286865234375 607.2064819335938 585.9193115234375 600.3480224609375 589.0750732421875" stroke-width="0.0" fill="rgb(255, 255, 255)" opacity="0.9187684"/>
    <path d="M 585.616455078125 578.9410400390625 C 585.5181884765625 576.5473022460938 587.5941772460938 577.41650390625 586.9776000976562 575.3975219726562 C 586.4110717773438 573.5928955078125 586.7657470703125 572.0753784179688 584.7693481445312 573.4406127929688 C 585.6649169921875 574.7778930664062 583.74755859375 576.59423828125 586.2525024414062 577.385009765625 C 585.4417114257812 575.6918334960938 586.7565307617188 574.021484375 585.616455078125 578.9410400390625" stroke-width="0.0" fill="rgb(255, 255, 255)" opacity="0.7865466"/>
    <path d="M 593.88525390625 580.5966796875 C 593.0838623046875 583.2791137695312 592.237060546875 585.3280029296875 592.146240234375 585.6485595703125 C 591.7431030273438 587.69921875 591.2974853515625 587.9120483398438 592.7255859375 590.0455322265625 C 593.6240234375 590.8751220703125 594.084228515625 591.3875122070312 592.322265625 589.5071411132812 C 591.590576171875 587.536376953125 590.9661254882812 589.55029296875 593.88525390625 580.5966796875" stroke-width="0.0" fill="rgb(255, 255, 255)" opacity="0.7406087"/>
    <path d="M 47.73873519897461 571.7008666992188 C 47.99675750732422 568.8660888671875 48.87078857421875 570.126708984375 49.31315612792969 569.9784545898438 C 50.11591339111328 568.9046630859375 52.414363861083984 571.7342529296875 52.27215576171875 572.3312377929688 C 53.54102325439453 571.349853515625 52.98484802246094 571.6137084960938 52.95200729370117 568.9035034179688 C 53.186004638671875 567.6585693359375 52.25831604003906 566.4939575195312 47.73873519897461 571.7008666992188" stroke-width="0.0" fill="rgb(255, 255, 255)" opacity="0.66835654"/>
    <path d="M 0.0014635520055890083 561.0 C -1.8525103330612183 558.9833374023438 -2.5214030742645264 558.0576171875 -2.510481119155884 555.9974975585938 C -0.49072012305259705 555.666015625 -0.7861443758010864 554.9436645507812 -2.861125946044922 556.2892456054688 C -3.6022610664367676 554.1787109375 -3.1284871101379395 556.6309204101562 -3.9096176624298096 555.3834838867188 C -3.1536991596221924 555.3934936523438 -1.2461811304092407 552.9630737304688 0.0014635520055890083 561.0" stroke-width="0.0" fill="rgb(252, 253, 252)" opacity="1.0"/>
    <path d="M 349.4270935058594 579.718017578125 C 348.1036376953125 581.0392456054688 349.70611572265625 581.1158447265625 352.0543518066406 580.7977294921875 C 350.7584533691406 580.9708862304688 350.16400146484375 581.1917114257812 352.8398132324219 583.2344360351562 C 353.5955505371094 584.5194091796875 352.2121887207031 586.941162109375 353.5736999511719 586.6701049804688 C 353.8976745605469 586.7085571289062 352.2245178222656 587.7139282226562 349.4270935058594 579.718017578125" stroke-width="0.0" fill="rgb(255, 255, 255)" opacity="0.6683484"/>
    <path d="M 58.15651321411133 595.1871337890625 C 58.32878875732422 596.2183837890625 60.633567810058594 596.0767211914062 61.01189422607422 595.9765625 C 61.23292541503906 593.4985961914062 62.78207015991211 596.064208984375 61.67017364501953 598.2478637695312 C 60.35020065307617 597.85986328125 61.1624755859375 595.7473754882812 59.755165100097656 597.3294677734375 C 61.70927810668945 600.0474853515625 63.1036491394043 602.2987060546875 58.15651321411133 595.1871337890625" stroke-width="0.0" fill="rgb(255, 255, 255)" opacity="0.70753676"/>
    <path d="M 49.04047775268555 587.9927368164062 C 48.06684112548828 588.5090942382812 47.06203079223633 587.1036987304688 44.66865158081055 587.4832153320312 C 46.70077133178711 586.982177734375 47.50395202636719 585.0095825195312 46.84016418457031 582.1513671875 C 47.13267135620117 581.591552734375 49.914161682128906 582.741455078125 49.01350784301758 580.72412109375 C 49.26267623901367 581.8486328125 49.06263732910156 581.3867797851562 49.04047775268555 587.9927368164062" stroke-width="0.0" fill="rgb(255, 255, 255)" opacity="0.7155857"/>
    <path d="M 338.2821350097656 595.073974609375 C 336.7360534667969 597.7696533203125 336.2834167480469 595.6516723632812 334.3585205078125 598.3952026367188 C 331.4003601074219 596.6107788085938 331.6698303222656 595.8192749023438 332.108154296875 595.8615112304688 C 331.525634765625 595.429931640625 333.0565490722656 595.07470703125 330.875732421875 595.4846801757812 C 332.8213806152344 594.7594604492188 332.2909240722656 595.0216674804688 338.2821350097656 595.073974609375" stroke-width="0.0" fill="rgb(255, 255, 255)" opacity="0.68082416"/>
    <path d="M 47.618839263916016 566.5588989257812 C 48.832069396972656 569.3532104492188 45.84954071044922 566.99169921875 44.433231353759766 568.4395751953125 C 45.87248611450195 567.2127685546875 43.12839126586914 568.5796508789062 43.25775146484375 567.7855224609375 C 42.071651458740234 568.229736328125 39.79696273803711 567.6405639648438 40.37482833862305 568.3123779296875 C 42.77849197387695 569.6527709960938 43.25931930541992 572.4353637695312 47.618839263916016 566.5588989257812" stroke-width="0.0" fill="rgb(255, 255, 255)" opacity="0.6976185"/>
    <path d="M 43.94032669067383 586.0382080078125 C 47.6553955078125 585.5731811523438 49.13125991821289 587.1668701171875 47.55265426635742 589.2100219726562 C 48.95767593383789 588.3506469726562 46.938419342041016 589.0374145507812 46.73615264892578 589.7049560546875 C 47.46512985229492 591.562255859375 46.921913146972656 592.3931884765625 46.58261489868164 593.8392944335938 C 48.31431198120117 595.51708984375 46.51421356201172 595.164794921875 43.94032669067383 586.0382080078125" stroke-width="0.0" fill="rgb(255, 255, 255)" opacity="0.6785922"/>
    <path d="M 268.486083984375 584.52099609375 C 268.93511962890625 587.3985595703125 270.8799133300781 589.101318359375 269.144775390625 586.7313232421875 C 267.64501953125 589.3355712890625 267.2743225097656 589.0923461914062 264.87738037109375 588.8243408203125 C 265.1236572265625 588.2039184570312 265.2915954589844 586.2030639648438 264.3240661621094 586.9518432617188 C 266.1313781738281 585.4091186523438 266.77972412109375 584.395751953125 268.486083984375 584.52099609375" stroke-width="0.0" fill="rgb(255, 255, 255)" opacity="0.7176499"/>
    <path d="M 22.761566162109375 570.883056640625 C 22.762514114379883 571.166259765625 21.186620712280273 573.1636352539062 22.308223724365234 575.1401977539062 C 20.95295524597168 574.584716796875 21.620071411132812 575.5764770507812 19.6749267578125 574.89453125 C 20.317447662353516 573.864501953125 18.972524642944336 575.6976928710938 20.977407455444336 576.0020751953125 C 20.746471405029297 575.6365356445312 19.144731521606445 578.3261108398438 22.761566162109375 570.883056640625" stroke-width="0.0" fill="rgb(255, 255, 255)" opacity="0.738188"/>
    <path d="M 64.94808197021484 593.4853515625 C 65.05815887451172 593.7679443359375 67.80662536621094 592.2235717773438 68.98241424560547 592.1057739257812 C 68.57456970214844 592.288330078125 70.41107940673828 593.703857421875 68.8710708618164 592.4999389648438 C 68.54661560058594 591.2723999023438 70.0893783569336 591.5907592773438 69.396728515625 591.9090576171875 C 70.14571380615234 589.8200073242188 71.83425903320312 591.3711547851562 64.94808197021484 593.4853515625" stroke-width="0.0" fill="rgb(255, 255, 255)" opacity="0.78854483"/>
    <path d="M 1.7964332103729248 296.699951171875 C 2.0763936042785645 296.9547119140625 2.2869062423706055 296.98370361328125 1.665406584739685 296.7734680175781 C 0.2620979845523834 296.3097229003906 2.020012378692627 297.6389465332031 1.6958955526351929 297.3752136230469 C -0.14719122648239136 295.42431640625 -2.5645246505737305 297.1427307128906 -3.5988428592681885 295.6762390136719 C -5.173648834228516 296.2508850097656 -7.166492938995361 295.9522705078125 1.7964332103729248 296.699951171875" stroke-width="0.0" fill="rgb(255, 255, 255)" opacity="0.89988524"/>
    <path d="M 35.15219497680664 266.9007568359375 C 34.48532485961914 267.6144714355469 35.73568344116211 268.12689208984375 34.598960876464844 266.7225341796875 C 35.90559768676758 268.05804443359375 34.59368133544922 269.70513916015625 35.54404830932617 269.9886779785156 C 34.76740646362305 270.8446350097656 32.675437927246094 272.754638671875 34.829078674316406 274.4145812988281 C 34.940162658691406 275.03253173828125 34.98746109008789 275.220458984375 35.15219497680664 266.9007568359375" stroke-width="0.0" fill="rgb(255, 255, 255)" opacity="0.7395323"/>
    <path d="M 330.0085144042969 585.8007202148438 C 332.0032958984375 586.8314819335938 333.7600402832031 586.9048461914062 335.14599609375 588.4321899414062 C 333.3521423339844 591.3668212890625 331.0537109375 589.3215942382812 331.3081970214844 590.2015991210938 C 332.10491943359375 592.5807495117188 331.99334716796875 591.5090942382812 330.6674499511719 590.5202026367188 C 332.57061767578125 592.3146362304688 332.03424072265625 592.7559204101562 330.0085144042969 585.8007202148438" stroke-width="0.0" fill="rgb(255, 255, 255)" opacity="0.6975878"/>
    <path d="M 1.842369794845581 591.6251220703125 C 3.095216751098633 593.0332641601562 1.408578634262085 591.0357055664062 1.1956827640533447 590.6815795898438 C 0.3089712858200073 590.0843505859375 1.1647379398345947 589.9912109375 -1.0930777788162231 588.1461791992188 C -2.1941659450531006 585.5850830078125 -1.5307976007461548 587.3668212890625 0.6855257153511047 589.7615966796875 C -0.8636760115623474 587.75341796875 -2.339818239212036 585.527587890625 1.842369794845581 591.6251220703125" stroke-width="0.0" fill="rgb(255, 255, 255)" opacity="0.8888377"/>
    <path d="M 577.682861328125 596.7362060546875 C 579.055908203125 594.7177124023438 578.0964965820312 597.5220947265625 578.66552734375 597.120849609375 C 577.9979248046875 596.3759765625 578.8229370117188 595.5830688476562 580.6713256835938 593.62451171875 C 581.2262573242188 594.0557250976562 581.41748046875 596.0176391601562 580.1853637695312 594.6140747070312 C 582.2769165039062 596.0394897460938 581.0098266601562 598.1268310546875 577.682861328125 596.7362060546875" stroke-width="0.0" fill="rgb(255, 255, 255)" opacity="0.75831485"/>
    <path d="M 323.6411437988281 587.8477783203125 C 322.4797668457031 585.4537963867188 320.7093811035156 585.3675537109375 319.143798828125 587.499267578125 C 319.5666198730469 587.6953125 318.480224609375 585.6874389648438 318.9898376464844 585.428955078125 C 318.7015686035156 585.2090454101562 321.6155700683594 584.3587646484375 319.08831787109375 582.8211669921875 C 319.4948425292969 583.3952026367188 320.2630310058594 583.1470947265625 323.6411437988281 587.8477783203125" stroke-width="0.0" fill="rgb(255, 255, 255)" opacity="0.70401937"/>
    <path d="M 582.1422119140625 582.8453979492188 C 582.0043334960938 583.0032958984375 581.5673828125 584.400634765625 582.3657836914062 584.122314453125 C 581.4934692382812 582.7584838867188 582.234375 581.8419189453125 582.60107421875 582.0391845703125 C 584.8833618164062 581.595703125 583.7523193359375 583.3466796875 584.084716796875 583.8447875976562 C 581.8860473632812 584.6336059570312 581.7835083007812 583.1207275390625 582.1422119140625 582.8453979492188" stroke-width="0.0" fill="rgb(255, 255, 255)" opacity="0.79256797"/>
    <path d="M 34.04654312133789 589.383544921875 C 36.39374923706055 586.223388671875 38.66022491455078 586.6714477539062 37.86772918701172 587.9805297851562 C 36.09737777709961 587.644775390625 35.44606018066406 586.5863037109375 35.94321060180664 586.6005859375 C 33.99047088623047 586.0046997070312 34.819091796875 587.1810302734375 35.689422607421875 586.3487548828125 C 34.706016540527344 584.708740234375 33.54471206665039 582.9627685546875 34.04654312133789 589.383544921875" stroke-width="0.0" fill="rgb(255, 255, 255)" opacity="0.8320537"/>
    <path d="M 550.412841796875 562.9091796875 C 549.0316162109375 563.9555053710938 548.0554809570312 562.966796875 549.3270874023438 564.9778442382812 C 546.9065551757812 565.3555297851562 546.008544921875 563.9558715820312 545.9971923828125 566.068115234375 C 544.7369995117188 565.9046630859375 542.5086059570312 565.5398559570312 540.8707885742188 565.2255249023438 C 541.9071655273438 565.866455078125 543.6431884765625 566.0224609375 550.412841796875 562.9091796875" stroke-width="0.0" fill="rgb(255, 255, 255)" opacity="0.6826903"/>
    <path d="M 343.1909484863281 571.1279907226562 C 344.80780029296875 570.5584106445312 346.2594909667969 567.9846801757812 345.6446533203125 569.0630493164062 C 344.8752746582031 568.1502685546875 343.8074035644531 567.0397338867188 345.54150390625 568.9661254882812 C 344.335205078125 571.650634765625 342.65643310546875 569.254150390625 345.07135009765625 568.2705078125 C 343.9560852050781 568.6898803710938 342.36376953125 569.0460815429688 343.1909484863281 571.1279907226562" stroke-width="0.0" fill="rgb(255, 255, 255)" opacity="0.74479157"/>
    <path d="M 33.58125686645508 325.41802978515625 C 34.246246337890625 326.04156494140625 34.61146545410156 326.3783264160156 32.888790130615234 325.1413269042969 C 34.523441314697266 325.2320251464844 34.195831298828125 323.4524230957031 33.83654022216797 322.8503723144531 C 31.820436477661133 322.5091247558594 31.765382766723633 323.8780517578125 31.065814971923828 321.6796875 C 30.508359909057617 319.70465087890625 29.845802307128906 320.7135925292969 33.58125686645508 325.41802978515625" stroke-width="0.0" fill="rgb(255, 255, 255)" opacity="0.71984893"/>
    <path d="M 256.45135498046875 587.012451171875 C 254.51611328125 588.9175415039062 254.90054321289062 589.2135009765625 252.72900390625 588.824462890625 C 250.70033264160156 587.9525756835938 250.98123168945312 586.5481567382812 250.98204040527344 584.9395751953125 C 251.41578674316406 584.1864624023438 250.2730255126953 583.2527465820312 251.61871337890625 581.6586303710938 C 251.90328979492188 583.52001953125 252.9700164794922 582.8719482421875 256.45135498046875 587.012451171875" stroke-width="0.0" fill="rgb(255, 255, 255)" opacity="0.6542508"/>
    <path d="M 42.81637191772461 565.2440795898438 C 44.49360275268555 562.216796875 43.548892974853516 562.3325805664062 43.248069763183594 564.3090209960938 C 41.8959846496582 563.4105224609375 40.89591979980469 564.50390625 40.175262451171875 564.64013671875 C 38.135536193847656 563.6665649414062 35.67843246459961 564.668701171875 37.82522964477539 566.2010498046875 C 36.927345275878906 564.4224853515625 34.765045166015625 563.117431640625 42.81637191772461 565.2440795898438" stroke-width="0.0" fill="rgb(255, 255, 255)" opacity="0.7663329"/>
    <path d="M 234.5716552734375 588.2538452148438 C 235.99864196777344 585.8132934570312 237.28634643554688 585.0591430664062 236.95489501953125 587.0860595703125 C 235.0546112060547 587.4940795898438 235.67027282714844 585.0347900390625 237.79917907714844 583.7562866210938 C 239.46188354492188 583.77685546875 240.63255310058594 584.4320678710938 241.26856994628906 586.3377685546875 C 239.00216674804688 589.4124145507812 236.25022888183594 587.4196166992188 234.5716552734375 588.2538452148438" stroke-width="0.0" fill="rgb(255, 255, 255)" opacity="0.67696863"/>
    <path d="M 8.390528678894043 537.28564453125 C 8.520475387573242 536.7576904296875 9.842324256896973 538.1328735351562 9.117610931396484 537.1181640625 C 9.411944389343262 538.599365234375 7.605072975158691 538.2567749023438 7.995693206787109 538.5892944335938 C 7.4831929206848145 537.7363891601562 8.154916763305664 539.0435791015625 9.72375774383545 537.55615234375 C 11.867959976196289 535.8072509765625 12.009732246398926 536.4362182617188 8.390528678894043 537.28564453125" stroke-width="0.0" fill="rgb(255, 255, 255)" opacity="0.7950028"/>
    <path d="M 270.00299072265625 598.2933959960938 C 269.64886474609375 599.7877807617188 267.98583984375 599.7312622070312 267.2635192871094 596.65185546875 C 268.5228271484375 598.0593872070312 268.455078125 598.1829833984375 266.334716796875 596.79296875 C 267.1669921875 597.3114013671875 267.0137634277344 597.4442749023438 268.716796875 596.9616088867188 C 270.0022277832031 596.960205078125 267.71240234375 597.9078979492188 270.00299072265625 598.2933959960938" stroke-width="0.0" fill="rgb(255, 255, 255)" opacity="0.7687949"/>
    <path d="M 591.2509765625 577.7706298828125 C 589.8483276367188 577.402099609375 588.2550048828125 576.379638671875 587.7918090820312 577.2249755859375 C 588.9234619140625 579.117919921875 587.1925048828125 578.5831298828125 588.9346313476562 577.6939697265625 C 588.8515014648438 576.496337890625 590.51806640625 577.2821655273438 592.8638916015625 578.7376098632812 C 592.856689453125 580.3427734375 594.7907104492188 580.0066528320312 591.2509765625 577.7706298828125" stroke-width="0.0" fill="rgb(255, 255, 255)" opacity="0.8007986"/>
    <path d="M 541.4677124023438 594.6414184570312 C 542.1978759765625 596.2903442382812 541.3529052734375 598.0960083007812 540.6744995117188 600.3660888671875 C 542.3766479492188 600.0689086914062 540.4509887695312 601.9390258789062 542.5977783203125 602.2916259765625 C 543.6137084960938 602.7401123046875 542.01416015625 603.2955932617188 544.2540283203125 605.2910766601562 C 542.1229248046875 604.137939453125 542.132568359375 602.4746704101562 541.4677124023438 594.6414184570312" stroke-width="0.0" fill="rgb(255, 255, 255)" opacity="0.7550667"/>
    <path d="M 561.7283325195312 585.96337890625 C 559.3406982421875 587.2826538085938 562.6445922851562 586.6239013671875 562.0947875976562 587.850341796875 C 563.6019897460938 586.1881713867188 563.0807495117188 585.3244018554688 562.6459350585938 584.4884643554688 C 562.8675537109375 585.0869750976562 564.5140991210938 583.0040893554688 565.0977783203125 583.4576416015625 C 566.4918212890625 584.1259155273438 565.14404296875 582.0517578125 561.7283325195312 585.96337890625" stroke-width="0.0" fill="rgb(255, 255, 255)" opacity="0.76723874"/>
    <path d="M 22.826990127563477 327.3757019042969 C 23.590221405029297 325.96826171875 23.324174880981445 327.7620544433594 25.645061492919922 326.6415710449219 C 22.89946746826172 325.39447021484375 23.890396118164062 323.9049987792969 25.09885597229004 324.9568786621094 C 23.471586227416992 324.1702880859375 21.32866859436035 321.8064270019531 20.544803619384766 321.1875915527344 C 23.330713272094727 320.4075927734375 23.337305068969727 320.43572998046875 22.826990127563477 327.3757019042969" stroke-width="0.0" fill="rgb(255, 255, 255)" opacity="0.6977942"/>
    <path d="M 26.771860122680664 538.569580078125 C 24.372093200683594 537.7398071289062 21.960954666137695 538.4879760742188 22.017072677612305 537.3992919921875 C 22.344646453857422 535.57763671875 21.48812484741211 535.0169677734375 20.615758895874023 537.0255126953125 C 22.307764053344727 539.2893676757812 23.080839157104492 538.2056884765625 21.124221801757812 539.142333984375 C 18.696565628051758 538.4146728515625 19.346757888793945 537.1442260742188 26.771860122680664 538.569580078125" stroke-width="0.0" fill="rgb(255, 255, 255)" opacity="0.74596596"/>
    <path d="M 61.88690185546875 577.2423706054688 C 62.01618957519531 578.829345703125 60.912452697753906 578.23681640625 61.045597076416016 578.8795776367188 C 60.97834777832031 578.4615478515625 63.12978744506836 581.2392578125 62.255619049072266 580.196533203125 C 62.64830780029297 579.626220703125 61.686397552490234 581.1851196289062 62.3644905090332 580.1602172851562 C 60.032649993896484 578.1673583984375 61.8304557800293 579.4986572265625 61.88690185546875 577.2423706054688" stroke-width="0.0" fill="rgb(255, 255, 255)" opacity="0.7859425"/>
    <path d="M 18.77184295654297 283.19390869140625 C 20.73485565185547 281.4764404296875 19.901161193847656 279.1837463378906 19.753686904907227 277.55322265625 C 16.94051170349121 280.0893859863281 17.653959274291992 281.7565612792969 18.88663101196289 282.2165222167969 C 21.4398136138916 283.5874938964844 23.027767181396484 284.45550537109375 21.545896530151367 286.7147521972656 C 21.509782791137695 285.2154235839844 21.501413345336914 286.51910400390625 18.77184295654297 283.19390869140625" stroke-width="0.0" fill="rgb(255, 255, 255)" opacity="0.6524058"/>
    <path d="M 11.044755935668945 279.4175109863281 C 11.649916648864746 281.2089538574219 11.80423641204834 279.7955627441406 10.055462837219238 279.9452819824219 C 11.574115753173828 280.7110595703125 9.366599082946777 279.3529052734375 8.769309997558594 280.24310302734375 C 5.666481018066406 277.3468322753906 5.155589580535889 277.0325622558594 6.411834716796875 274.63531494140625 C 7.586021900177002 276.1135559082031 6.36190128326416 274.6234130859375 11.044755935668945 279.4175109863281" stroke-width="0.0" fill="rgb(255, 255, 255)" opacity="0.67940074"/>
    <path d="M 244.8748016357422 594.7508544921875 C 246.136474609375 594.1846923828125 246.17898559570312 592.2001953125 245.68215942382812 591.232177734375 C 245.7665252685547 592.7728881835938 247.88812255859375 591.2329711914062 245.27671813964844 592.1506958007812 C 244.6225128173828 590.6190795898438 245.7884979248047 591.317626953125 244.76480102539062 592.4962768554688 C 245.6766357421875 595.3510131835938 246.20086669921875 593.5922241210938 244.8748016357422 594.7508544921875" stroke-width="0.0" fill="rgb(255, 255, 255)" opacity="0.7946548"/>
    <path d="M 14.936952590942383 293.52667236328125 C 15.937994003295898 292.0559387207031 13.544230461120605 291.3936462402344 13.73138427734375 289.16448974609375 C 13.312732696533203 290.8658447265625 12.067002296447754 291.8124694824219 12.121078491210938 289.8392639160156 C 11.294859886169434 291.6900634765625 13.203845024108887 291.1556701660156 11.8788480758667 290.0516662597656 C 15.775923728942871 289.23895263671875 15.053515434265137 290.0578918457031 14.936952590942383 293.52667236328125" stroke-width="0.0" fill="rgb(255, 255, 255)" opacity="0.71278185"/>
    <path d="M 27.456369400024414 278.2452697753906 C 28.996747970581055 276.9825134277344 30.47997283935547 275.5407409667969 28.20772933959961 277.2789001464844 C 27.273483276367188 275.0018615722656 28.702892303466797 274.5179748535156 29.687416076660156 275.1270751953125 C 27.620288848876953 274.54412841796875 26.03152847290039 274.1766357421875 27.928882598876953 274.8912048339844 C 28.206405639648438 274.158203125 30.785999298095703 275.965576171875 27.456369400024414 278.2452697753906" stroke-width="0.0" fill="rgb(255, 255, 255)" opacity="0.81260717"/>
    <path d="M 329.9274597167969 587.571044921875 C 328.72509765625 586.7877807617188 330.63641357421875 587.803955078125 331.3709716796875 589.1797485351562 C 330.1851501464844 587.78662109375 331.3516540527344 586.6798095703125 333.03118896484375 584.6533813476562 C 332.6731262207031 585.6426391601562 331.1001281738281 585.5799560546875 331.8926086425781 584.1968994140625 C 333.31414794921875 582.948486328125 333.6539001464844 581.2500610351562 329.9274597167969 587.571044921875" stroke-width="0.0" fill="rgb(255, 255, 255)" opacity="0.76257575"/>
    <path d="M 295.9880676269531 574.2660522460938 C 296.3381042480469 573.1439208984375 294.27099609375 574.9534912109375 295.5 574.0545654296875 C 296.4511413574219 573.402587890625 296.70849609375 574.7340698242188 296.43341064453125 574.3330078125 C 296.7867126464844 574.3576049804688 296.601806640625 574.12255859375 295.9497375488281 573.8781127929688 C 297.2962951660156 572.4525146484375 297.6829528808594 571.1401977539062 295.9880676269531 574.2660522460938" stroke-width="0.0" fill="rgb(255, 255, 255)" opacity="0.9391792"/>
    <path d="M 596.8858642578125 575.010986328125 C 598.2568359375 576.6572265625 597.8724975585938 576.0949096679688 598.0543823242188 574.9703369140625 C 599.3153686523438 575.09521484375 599.3302612304688 576.0167236328125 598.35302734375 577.9362182617188 C 598.1990356445312 578.2855224609375 597.1785278320312 575.844970703125 597.9544677734375 577.5398559570312 C 599.3642578125 578.6829833984375 598.7158813476562 577.0459594726562 596.8858642578125 575.010986328125" stroke-width="0.0" fill="rgb(255, 255, 255)" opacity="0.7717875"/>
    <path d="M 40.33061599731445 280.06109619140625 C 38.10525894165039 279.7110595703125 38.69080352783203 280.295166015625 40.65336990356445 280.193603515625 C 38.18656921386719 280.17340087890625 39.43214416503906 280.23529052734375 39.933319091796875 279.5688781738281 C 38.15541076660156 280.7650146484375 38.355167388916016 282.56573486328125 38.68070983886719 280.72064208984375 C 40.49217987060547 281.7365417480469 39.552490234375 280.59619140625 40.33061599731445 280.06109619140625" stroke-width="0.0" fill="rgb(255, 255, 255)" opacity="0.81847525"/>
    <path d="M 19.259811401367188 271.1345520019531 C 18.478740692138672 268.8397216796875 17.904165267944336 267.0691223144531 18.280521392822266 268.3672790527344 C 17.623926162719727 268.5780944824219 17.331520080566406 268.19366455078125 17.270584106445312 268.6177978515625 C 17.865907669067383 267.8218688964844 18.884122848510742 268.6527404785156 18.76877212524414 269.9917297363281 C 17.091022491455078 269.7706298828125 15.024041175842285 270.8206787109375 19.259811401367188 271.1345520019531" stroke-width="0.0" fill="rgb(255, 255, 255)" opacity="0.77374077"/>
    <path d="M 26.981494903564453 534.923095703125 C 26.956682205200195 535.0492553710938 26.95214080810547 535.1231079101562 26.974069595336914 534.9544067382812 C 26.263586044311523 533.8447265625 23.82035255432129 531.467529296875 23.20916175842285 530.6709594726562 C 22.30055809020996 531.660400390625 20.377473831176758 530.7274780273438 21.025354385375977 530.2532348632812 C 20.951082229614258 528.37548828125 20.24608612060547 527.2758178710938 26.981494903564453 534.923095703125" stroke-width="0.0" fill="rgb(255, 255, 255)" opacity="0.73665845"/>
    <path d="M 288.63641357421875 597.4862670898438 C 291.02349853515625 598.7198486328125 290.8652038574219 600.2749633789062 293.09149169921875 600.742919921875 C 292.2123107910156 598.18359375 291.9462890625 599.7229614257812 294.65118408203125 601.8500366210938 C 295.1683349609375 599.3157348632812 292.23577880859375 598.3892211914062 291.94287109375 597.7467041015625 C 291.87261962890625 596.2586669921875 293.6104431152344 596.2330322265625 288.63641357421875 597.4862670898438" stroke-width="0.0" fill="rgb(255, 255, 255)" opacity="0.7592694"/>
    <path d="M 41.78767776489258 318.886474609375 C 40.79819869995117 319.47467041015625 40.379852294921875 318.6824645996094 42.283287048339844 316.6546936035156 C 41.32494354248047 316.84918212890625 41.924930572509766 318.56939697265625 39.1090087890625 319.6647644042969 C 40.39588928222656 319.18341064453125 38.54946517944336 319.4233703613281 40.49739456176758 320.2102355957031 C 40.7329216003418 319.9380798339844 42.51902389526367 320.3437805175781 41.78767776489258 318.886474609375" stroke-width="0.0" fill="rgb(255, 255, 255)" opacity="0.80042505"/>
  </g>
</svg>
