<?xml version="1.0" ?>
<svg xmlns="http://www.w3.org/2000/svg" version="1.1" width="600" height="600">
  <defs/>
  <g>
    <path d="M 266.153076171875 7.189301490783691 C 265.179443359375 6.56258487701416 266.3468322753906 4.388713359832764 264.84869384765625 4.43383264541626 C 266.2053527832031 5.638368606567383 263.90252685546875 6.888072490692139 265.4256591796875 8.36237621307373 C 267.87744140625 6.963822364807129 269.27386474609375 5.110518932342529 269.90997314453125 3.840871810913086 C 270.3610534667969 3.5377447605133057 270.1389465332031 5.743472576141357 266.153076171875 7.189301490783691" stroke-width="0.0" fill="rgb(254, 254, 255)" opacity="0.99281025"/>
    <path d="M 228.6532440185547 12.170122146606445 C 228.6864776611328 10.611960411071777 230.45907592773438 8.23079776763916 228.6318359375 7.428513526916504 C 227.68991088867188 7.609745025634766 227.57949829101562 5.903313159942627 226.32069396972656 4.3196563720703125 C 224.81640625 1.7568565607070923 224.26710510253906 2.4898245334625244 224.11370849609375 0.2732436954975128 C 225.2449188232422 1.105033040046692 225.43603515625 2.7482311725616455 228.6532440185547 12.170122146606445" stroke-width="0.0" fill="rgb(255, 255, 255)" opacity="0.9922016"/>
    <path d="M 577.8690185546875 143.5419921875 C 576.7392578125 142.1273956298828 578.19140625 140.6815185546875 577.556884765625 139.7865447998047 C 576.0410766601562 141.6300048828125 578.295654296875 141.89405822753906 579.5802612304688 139.50559997558594 C 577.4085693359375 139.54257202148438 579.570556640625 137.81234741210938 578.434326171875 138.79998779296875 C 577.5414428710938 139.11167907714844 579.2855834960938 138.74574279785156 577.8690185546875 143.5419921875" stroke-width="0.0" fill="rgb(40, 40, 40)" opacity="0.9904958"/>
    <path d="M 245.3579559326172 523.1019287109375 C 245.54269409179688 520.3807373046875 246.9506072998047 522.12060546875 246.1142578125 523.5072631835938 C 247.88548278808594 522.3721923828125 249.18472290039062 524.78369140625 249.25112915039062 526.34912109375 C 251.3104705810547 525.9043579101562 253.38035583496094 527.0023193359375 254.39869689941406 528.6969604492188 C 255.0056610107422 529.2221069335938 256.0960998535156 529.1192016601562 245.3579559326172 523.1019287109375" stroke-width="0.0" fill="rgb(241, 241, 240)" opacity="0.9928883"/>
    <path d="M 346.97540283203125 69.04022979736328 C 345.2576599121094 67.65296173095703 345.7741394042969 66.6624755859375 344.5025939941406 67.61112213134766 C 342.6412658691406 65.22100830078125 343.4262390136719 63.58218765258789 341.16534423828125 65.28175354003906 C 341.2717590332031 65.07022857666016 342.4721984863281 64.19486999511719 341.52874755859375 63.97392272949219 C 339.2262268066406 65.40010070800781 338.9565124511719 62.928592681884766 346.97540283203125 69.04022979736328" stroke-width="0.0" fill="rgb(253, 253, 253)" opacity="0.99382114"/>
    <path d="M 475.04412841796875 30.273727416992188 C 476.8472595214844 32.313743591308594 477.861328125 29.99150276184082 479.5965576171875 31.724483489990234 C 477.7734375 32.94157791137695 475.537841796875 34.246761322021484 474.3028259277344 34.8454704284668 C 475.01776123046875 35.986427307128906 473.09844970703125 34.18829345703125 472.5325012207031 34.67233657836914 C 473.08953857421875 32.86647033691406 474.71282958984375 32.02886199951172 475.04412841796875 30.273727416992188" stroke-width="0.0" fill="rgb(254, 255, 255)" opacity="0.99215126"/>
    <path d="M 221.833984375 86.29991912841797 C 218.32823181152344 86.8876724243164 220.6425018310547 86.30027770996094 218.46533203125 86.09615325927734 C 217.10342407226562 83.9714126586914 216.87246704101562 82.93408966064453 219.068115234375 82.56465148925781 C 216.66891479492188 80.32093811035156 215.0297088623047 83.01908874511719 216.95999145507812 84.0139389038086 C 218.56101989746094 81.72340393066406 219.44830322265625 83.45787048339844 221.833984375 86.29991912841797" stroke-width="0.0" fill="rgb(74, 75, 74)" opacity="1.0"/>
    <path d="M 79.82295989990234 252.1076202392578 C 77.46186828613281 254.78616333007812 78.39199829101562 256.9296569824219 79.11601257324219 258.998291015625 C 81.14291381835938 259.7750244140625 82.61366271972656 258.76531982421875 81.9102783203125 259.5658874511719 C 83.35147857666016 260.9392395019531 85.85494995117188 261.8676452636719 85.7975082397461 260.21435546875 C 85.71414947509766 258.7809753417969 84.75323486328125 258.45263671875 79.82295989990234 252.1076202392578" stroke-width="0.0" fill="rgb(0, 0, 0)" opacity="1.0"/>
    <path d="M 20.051021575927734 175.98403930664062 C 18.815105438232422 175.47177124023438 21.146467208862305 177.38644409179688 22.16611671447754 179.3175506591797 C 22.984458923339844 176.79039001464844 23.654144287109375 179.1808624267578 22.780733108520508 177.51231384277344 C 24.444955825805664 177.17527770996094 22.012502670288086 178.41864013671875 19.838193893432617 179.6742401123047 C 20.175199508666992 180.12559509277344 19.293434143066406 179.703369140625 20.051021575927734 175.98403930664062" stroke-width="0.0" fill="rgb(253, 253, 254)" opacity="0.99304"/>
    <path d="M 132.00628662109375 453.6997985839844 C 130.7028350830078 455.99822998046875 131.94036865234375 457.0758361816406 133.70217895507812 457.1368103027344 C 134.8991241455078 459.02685546875 132.85256958007812 456.947021484375 135.1621551513672 455.8619079589844 C 137.5191192626953 454.876220703125 136.83566284179688 452.5047302246094 138.3123321533203 453.77117919921875 C 138.1873016357422 452.9953308105469 139.2294921875 454.2083740234375 132.00628662109375 453.6997985839844" stroke-width="0.0" fill="rgb(255, 255, 255)" opacity="0.9925738"/>
    <path d="M 232.0494384765625 476.9512939453125 C 229.94329833984375 474.7810974121094 231.85372924804688 473.9235534667969 230.74037170410156 474.82470703125 C 229.65322875976562 476.59716796875 229.75904846191406 475.72027587890625 230.16094970703125 474.19610595703125 C 231.8787078857422 475.1832580566406 230.28916931152344 474.4375305175781 231.05624389648438 472.890625 C 229.21917724609375 471.3666076660156 227.2963104248047 471.8870849609375 232.0494384765625 476.9512939453125" stroke-width="0.0" fill="rgb(251, 251, 251)" opacity="0.9948215"/>
    <path d="M 289.19287109375 355.44122314453125 C 292.24017333984375 355.56561279296875 293.6163024902344 354.5383605957031 294.5735168457031 356.9178466796875 C 293.82550048828125 358.0760192871094 296.2542419433594 357.4573059082031 296.54510498046875 358.0955810546875 C 298.9295654296875 358.0019836425781 296.68682861328125 357.91778564453125 294.0928649902344 357.7255859375 C 296.0257263183594 360.6249694824219 294.7709045410156 362.621337890625 289.19287109375 355.44122314453125" stroke-width="0.0" fill="rgb(2, 2, 2)" opacity="0.9906809"/>
    <path d="M 125.8440170288086 502.112060546875 C 127.43938446044922 504.1919250488281 128.8173370361328 506.1045227050781 129.84901428222656 505.1010437011719 C 129.23631286621094 505.97882080078125 131.3708953857422 508.0637512207031 130.12783813476562 505.7508239746094 C 129.97386169433594 507.5545349121094 131.34423828125 505.16815185546875 130.73455810546875 505.81561279296875 C 130.98606872558594 504.6229553222656 132.45184326171875 503.8831787109375 125.8440170288086 502.112060546875" stroke-width="0.0" fill="rgb(254, 255, 255)" opacity="0.99371254"/>
    <path d="M 314.17034912109375 22.11600112915039 C 311.7010192871094 21.058027267456055 312.4996032714844 22.730121612548828 314.46820068359375 24.209413528442383 C 313.2173156738281 23.48277473449707 315.1683044433594 25.479312896728516 316.2862243652344 26.623165130615234 C 314.4374694824219 28.650405883789062 312.9283752441406 28.575439453125 310.6471252441406 27.343503952026367 C 311.5255432128906 25.951372146606445 309.2948303222656 24.884477615356445 314.17034912109375 22.11600112915039" stroke-width="0.0" fill="rgb(255, 255, 255)" opacity="0.99299604"/>
    <path d="M 80.23960876464844 99.90404510498047 C 81.06059265136719 97.10272216796875 79.43301391601562 96.78730010986328 80.42330932617188 95.44149780273438 C 79.29212951660156 93.72809600830078 77.40421295166016 94.10811614990234 75.01583099365234 94.81210327148438 C 75.80814361572266 95.81192016601562 77.97699737548828 96.77593994140625 76.92343139648438 96.46510314941406 C 74.50875854492188 95.30390167236328 72.71015167236328 97.24730682373047 80.23960876464844 99.90404510498047" stroke-width="0.0" fill="rgb(0, 0, 0)" opacity="1.0"/>
    <path d="M 198.30499267578125 323.692138671875 C 197.08033752441406 322.5816345214844 198.0330810546875 323.8785095214844 197.70651245117188 325.6526184082031 C 195.4089813232422 325.3871154785156 193.66995239257812 325.6011047363281 193.26327514648438 325.8821716308594 C 192.31607055664062 324.3541259765625 193.23731994628906 323.0046081542969 194.50172424316406 323.7932434082031 C 196.7642059326172 322.3409729003906 195.9810333251953 323.3768310546875 198.30499267578125 323.692138671875" stroke-width="0.0" fill="rgb(0, 0, 0)" opacity="1.0"/>
    <path d="M 527.8997192382812 78.86314392089844 C 527.9561767578125 77.71308135986328 526.6067504882812 77.25653076171875 526.741455078125 79.1778793334961 C 527.981689453125 79.34390258789062 529.6949462890625 76.9933853149414 530.1465454101562 77.08711242675781 C 527.9663696289062 76.8755111694336 528.3488159179688 74.84321594238281 529.1500854492188 75.73030090332031 C 530.6408081054688 74.30084991455078 531.4281005859375 75.49816131591797 527.8997192382812 78.86314392089844" stroke-width="0.0" fill="rgb(254, 254, 255)" opacity="0.99318653"/>
    <path d="M 220.6876220703125 109.29154968261719 C 222.34727478027344 109.9260025024414 220.06040954589844 111.06867218017578 217.83547973632812 109.10328674316406 C 217.79620361328125 112.06111907958984 219.48904418945312 113.85302734375 218.73440551757812 112.7888412475586 C 220.64254760742188 114.22589874267578 222.13601684570312 114.60100555419922 222.8737335205078 113.82855987548828 C 224.623046875 115.0110855102539 224.319580078125 116.24443054199219 220.6876220703125 109.29154968261719" stroke-width="0.0" fill="rgb(2, 2, 2)" opacity="0.9906643"/>
    <path d="M 215.74026489257812 529.3171997070312 C 214.30577087402344 526.08740234375 211.71900939941406 526.5514526367188 211.7427215576172 526.6004028320312 C 211.33908081054688 527.855224609375 210.8803253173828 527.8819580078125 211.00379943847656 530.3263549804688 C 213.64515686035156 529.37890625 214.03309631347656 529.1809692382812 211.7665252685547 528.8731689453125 C 209.7139892578125 528.4930419921875 207.87562561035156 526.7342529296875 215.74026489257812 529.3171997070312" stroke-width="0.0" fill="rgb(0, 0, 0)" opacity="1.0"/>
    <path d="M 115.73391723632812 29.076610565185547 C 114.48603820800781 29.86860466003418 115.49199676513672 31.615009307861328 115.72261047363281 33.58287048339844 C 116.58737182617188 32.63580322265625 117.3919906616211 32.26404571533203 115.94096374511719 30.43924903869629 C 116.29766082763672 31.4960994720459 116.41261291503906 30.727439880371094 117.81971740722656 28.726137161254883 C 115.45668029785156 26.849462509155273 115.80598449707031 29.1264705657959 115.73391723632812 29.076610565185547" stroke-width="0.0" fill="rgb(219, 219, 220)" opacity="1.0"/>
    <path d="M 288.70361328125 33.38923263549805 C 287.1466979980469 31.449371337890625 284.9180908203125 29.417299270629883 285.5843811035156 30.147104263305664 C 283.49090576171875 29.717697143554688 281.09735107421875 29.06637954711914 279.33587646484375 26.951807022094727 C 279.7646484375 28.773557662963867 281.275146484375 27.755754470825195 282.57330322265625 29.771221160888672 C 281.83831787109375 28.235363006591797 283.0719299316406 30.680086135864258 288.70361328125 33.38923263549805" stroke-width="0.0" fill="rgb(254, 255, 255)" opacity="0.9937044"/>
    <path d="M 241.32875061035156 265.50885009765625 C 240.7080078125 263.2127380371094 242.5049285888672 261.1240234375 244.26600646972656 262.71697998046875 C 245.3830108642578 262.8257751464844 244.5855712890625 260.7339782714844 243.13035583496094 261.37054443359375 C 245.560791015625 260.4938659667969 244.8309783935547 261.5942077636719 243.35833740234375 264.340576171875 C 241.6982879638672 263.00384521484375 238.783935546875 260.85943603515625 241.32875061035156 265.50885009765625" stroke-width="0.0" fill="rgb(0, 0, 0)" opacity="1.0"/>
    <path d="M 463.0423583984375 496.99853515625 C 463.8287048339844 495.8310852050781 461.28338623046875 495.19085693359375 459.0576171875 492.7835388183594 C 457.0313720703125 492.49310302734375 456.7952880859375 492.06683349609375 455.8287353515625 491.26031494140625 C 454.01641845703125 491.69537353515625 455.91619873046875 492.502197265625 455.88336181640625 489.8197937011719 C 453.2840270996094 490.4087829589844 451.6887512207031 492.03997802734375 463.0423583984375 496.99853515625" stroke-width="0.0" fill="rgb(254, 254, 254)" opacity="0.99207014"/>
    <path d="M 265.2481384277344 346.35382080078125 C 264.5263671875 347.2768249511719 266.0093688964844 346.7016906738281 266.0214538574219 345.6250915527344 C 268.0763854980469 346.2449645996094 268.2765808105469 344.75006103515625 267.0960998535156 344.49359130859375 C 265.41265869140625 342.8721618652344 267.46002197265625 344.4251403808594 267.3560791015625 345.4264831542969 C 269.0340576171875 344.70166015625 269.65447998046875 343.0231018066406 265.2481384277344 346.35382080078125" stroke-width="0.0" fill="rgb(255, 255, 255)" opacity="0.9932147"/>
    <path d="M 365.0147399902344 80.09245300292969 C 364.3321838378906 81.27888488769531 365.0419921875 82.80901336669922 365.37677001953125 84.10259246826172 C 363.3911437988281 84.9059829711914 365.2010803222656 85.38506317138672 363.2924499511719 83.29405975341797 C 363.68145751953125 85.610107421875 361.40594482421875 85.74815368652344 362.7176513671875 85.1100082397461 C 364.30828857421875 84.46572875976562 365.03265380859375 85.50748443603516 365.0147399902344 80.09245300292969" stroke-width="0.0" fill="rgb(253, 254, 254)" opacity="0.99330384"/>
    <path d="M 100.51439666748047 265.34466552734375 C 99.97140502929688 267.5732116699219 101.42263793945312 269.44451904296875 102.56629943847656 270.374267578125 C 103.44523620605469 269.6537170410156 101.4436264038086 269.4983215332031 99.78831481933594 270.1785583496094 C 100.00406646728516 267.9395446777344 103.32357788085938 268.288330078125 102.2550048828125 266.2241516113281 C 101.2151107788086 267.7267761230469 103.28919982910156 268.0942077636719 100.51439666748047 265.34466552734375" stroke-width="0.0" fill="rgb(0, 0, 0)" opacity="1.0"/>
    <path d="M 360.78985595703125 70.88652038574219 C 359.54351806640625 70.2523193359375 357.3871154785156 68.17375183105469 359.8319091796875 67.27495574951172 C 358.3687438964844 65.01972961425781 357.1487121582031 64.07839965820312 357.9549560546875 65.763916015625 C 358.8782043457031 63.30131149291992 357.91326904296875 64.07765197753906 357.1412658691406 65.08834838867188 C 357.70513916015625 63.49053192138672 357.9978942871094 62.8820686340332 360.78985595703125 70.88652038574219" stroke-width="0.0" fill="rgb(254, 255, 255)" opacity="0.99319875"/>
    <path d="M 128.78091430664062 85.73432922363281 C 126.72498321533203 85.17822265625 124.18385314941406 85.97034454345703 124.78901672363281 86.97014617919922 C 125.34757995605469 89.79936981201172 123.6534423828125 91.68292236328125 124.10850524902344 89.04246520996094 C 126.25029754638672 88.33222198486328 127.39344787597656 86.56726837158203 126.89277648925781 85.92155456542969 C 125.88916015625 84.01525115966797 129.18133544921875 83.02845001220703 128.78091430664062 85.73432922363281" stroke-width="0.0" fill="rgb(6, 6, 6)" opacity="0.99584424"/>
    <path d="M 493.9808349609375 450.0545654296875 C 492.2898864746094 449.58697509765625 490.36138916015625 450.2890625 488.6974792480469 450.8421936035156 C 489.72540283203125 451.5226745605469 489.5042419433594 452.1009826660156 491.80780029296875 452.2557373046875 C 490.99053955078125 452.7026062011719 492.53094482421875 452.5459899902344 492.8793640136719 450.4626770019531 C 492.22247314453125 450.9801330566406 491.28509521484375 449.2935485839844 493.9808349609375 450.0545654296875" stroke-width="0.0" fill="rgb(254, 255, 255)" opacity="0.9928759"/>
    <path d="M 51.284420013427734 252.6067352294922 C 50.49098587036133 251.06114196777344 52.3275032043457 252.17677307128906 53.54343032836914 249.43360900878906 C 54.135562896728516 249.92462158203125 55.267127990722656 248.263427734375 56.003360748291016 250.0330810546875 C 53.665748596191406 247.44581604003906 54.402671813964844 247.63375854492188 52.113006591796875 249.40249633789062 C 52.51803970336914 247.96682739257812 52.65642547607422 246.3011016845703 51.284420013427734 252.6067352294922" stroke-width="0.0" fill="rgb(253, 253, 253)" opacity="1.0"/>
    <path d="M 154.99603271484375 530.9898071289062 C 153.3733673095703 532.3690795898438 152.67709350585938 531.7439575195312 152.40379333496094 531.2908935546875 C 154.73924255371094 531.3887939453125 154.7637939453125 532.5762329101562 153.09414672851562 531.713134765625 C 153.61729431152344 529.8270874023438 153.60986328125 528.5552368164062 155.53489685058594 530.9515380859375 C 157.54513549804688 529.6679077148438 158.21185302734375 530.5986938476562 154.99603271484375 530.9898071289062" stroke-width="0.0" fill="rgb(253, 254, 254)" opacity="0.99344057"/>
    <path d="M 448.72711181640625 45.15932846069336 C 446.7480773925781 44.142799377441406 448.72955322265625 43.164180755615234 451.2028503417969 45.579139709472656 C 449.8956298828125 43.825923919677734 450.578125 43.00459289550781 452.0135192871094 44.12775421142578 C 453.099609375 41.79142761230469 453.1028137207031 42.41761779785156 451.3387145996094 44.9158821105957 C 449.58984375 44.44051742553711 450.5184631347656 43.3192024230957 448.72711181640625 45.15932846069336" stroke-width="0.0" fill="rgb(255, 255, 255)" opacity="0.99353445"/>
    <path d="M 139.3140106201172 381.9497375488281 C 141.81422424316406 379.4623107910156 142.41299438476562 380.476318359375 144.01698303222656 379.66534423828125 C 143.32923889160156 379.2712707519531 145.64892578125 379.9872741699219 146.79222106933594 378.5821228027344 C 149.18263244628906 379.37615966796875 149.45748901367188 380.3916931152344 150.84341430664062 379.6073303222656 C 150.77001953125 382.5973205566406 151.7042236328125 382.70068359375 139.3140106201172 381.9497375488281" stroke-width="0.0" fill="rgb(0, 0, 0)" opacity="1.0"/>
    <path d="M 61.149658203125 40.391937255859375 C 60.47615051269531 41.70832061767578 59.19831466674805 44.26442337036133 63.10684585571289 44.32503890991211 C 63.810489654541016 41.27640914916992 62.13563919067383 39.35811233520508 62.76024627685547 36.917789459228516 C 63.175025939941406 38.94563293457031 61.61365509033203 40.455352783203125 58.66822814941406 38.09943389892578 C 60.400230407714844 34.77450180053711 61.66302490234375 32.92822265625 61.149658203125 40.391937255859375" stroke-width="0.0" fill="rgb(0, 0, 0)" opacity="1.0"/>
    <path d="M 107.66941833496094 255.72227478027344 C 106.04059600830078 252.91796875 106.6787109375 252.50601196289062 104.09251403808594 255.11805725097656 C 104.3770523071289 254.8979949951172 103.48186492919922 253.4308624267578 100.45548248291016 251.69229125976562 C 100.91002655029297 254.17654418945312 104.17417907714844 254.9963836669922 101.73674774169922 256.1031799316406 C 100.08399963378906 254.58856201171875 99.5321273803711 254.3490447998047 107.66941833496094 255.72227478027344" stroke-width="0.0" fill="rgb(0, 0, 0)" opacity="1.0"/>
    <path d="M 450.7970275878906 25.828996658325195 C 451.8330383300781 25.000654220581055 452.2309875488281 26.944501876831055 450.95318603515625 28.500656127929688 C 453.0183410644531 29.773218154907227 452.0052795410156 31.77584457397461 452.0114440917969 31.71014976501465 C 453.1608581542969 33.02509307861328 452.1419677734375 33.83370590209961 451.25494384765625 32.77922439575195 C 448.9171447753906 33.056758880615234 446.6703186035156 33.21876525878906 450.7970275878906 25.828996658325195" stroke-width="0.0" fill="rgb(254, 255, 255)" opacity="0.9919108"/>
    <path d="M 119.80292510986328 534.0032348632812 C 118.74272155761719 532.3760986328125 119.1163558959961 530.7666625976562 120.35684204101562 529.3783569335938 C 121.02295684814453 528.4208984375 121.95421600341797 527.38330078125 120.07471466064453 527.7277221679688 C 117.95501708984375 528.697998046875 115.91400909423828 527.7359008789062 116.70679473876953 526.0283203125 C 115.97996520996094 527.5977172851562 118.28431701660156 529.0088500976562 119.80292510986328 534.0032348632812" stroke-width="0.0" fill="rgb(254, 254, 255)" opacity="0.9926935"/>
    <path d="M 33.17234802246094 497.0561218261719 C 33.47445297241211 494.9862365722656 34.883358001708984 494.03436279296875 33.54115676879883 491.5553283691406 C 32.853363037109375 491.3829040527344 34.585784912109375 492.1299133300781 33.88747787475586 490.101806640625 C 32.829505920410156 489.3460998535156 35.023406982421875 490.84832763671875 35.09368896484375 489.6766357421875 C 34.76481246948242 488.9727783203125 36.43101501464844 488.4277038574219 33.17234802246094 497.0561218261719" stroke-width="0.0" fill="rgb(253, 254, 254)" opacity="0.9943371"/>
    <path d="M 238.96951293945312 30.957067489624023 C 240.6870574951172 29.851112365722656 240.7420654296875 30.489299774169922 239.99261474609375 28.5036563873291 C 241.6775665283203 26.705158233642578 242.82186889648438 26.02163314819336 244.26719665527344 25.661420822143555 C 242.48345947265625 23.422731399536133 242.22291564941406 25.20650291442871 241.41693115234375 27.34144401550293 C 240.41696166992188 28.873188018798828 240.1544952392578 30.93070411682129 238.96951293945312 30.957067489624023" stroke-width="0.0" fill="rgb(253, 254, 254)" opacity="0.99347544"/>
    <path d="M 135.42091369628906 395.30792236328125 C 137.72030639648438 397.0321350097656 137.38665771484375 398.8901062011719 138.6230926513672 398.95654296875 C 140.613525390625 395.84326171875 138.72691345214844 393.2635803222656 137.3427734375 392.39959716796875 C 134.25189208984375 391.134033203125 135.04823303222656 394.3230895996094 137.04470825195312 395.9444885253906 C 136.9801483154297 393.6517333984375 138.95773315429688 394.8192443847656 135.42091369628906 395.30792236328125" stroke-width="0.0" fill="rgb(187, 186, 188)" opacity="1.0"/>
    <path d="M 13.000575065612793 371.2518005371094 C 11.245094299316406 370.36944580078125 10.145295143127441 370.9454040527344 10.378286361694336 369.615234375 C 10.633378982543945 367.8096008300781 11.119513511657715 369.56219482421875 12.55306625366211 370.0111999511719 C 14.078176498413086 372.4269104003906 15.035746574401855 370.01702880859375 12.631482124328613 368.2367248535156 C 10.345574378967285 366.9709777832031 12.04272747039795 365.02996826171875 13.000575065612793 371.2518005371094" stroke-width="0.0" fill="rgb(254, 254, 255)" opacity="0.9936053"/>
    <path d="M 16.870237350463867 212.83937072753906 C 19.1116943359375 210.43246459960938 19.215421676635742 208.33135986328125 17.817861557006836 207.22264099121094 C 18.82806396484375 208.25462341308594 18.371004104614258 207.46615600585938 18.6260929107666 208.4155731201172 C 17.804494857788086 210.65455627441406 19.30267906188965 208.39573669433594 19.028465270996094 206.0550994873047 C 19.607959747314453 208.06358337402344 18.925556182861328 208.71221923828125 16.870237350463867 212.83937072753906" stroke-width="0.0" fill="rgb(253, 253, 254)" opacity="0.9935862"/>
    <path d="M 428.02740478515625 96.03652954101562 C 427.8033142089844 93.70917510986328 429.6374816894531 92.97273254394531 429.5337829589844 94.19732666015625 C 427.7253723144531 93.5966796875 426.6309509277344 95.76841735839844 427.2521057128906 95.40727233886719 C 428.94384765625 93.67835998535156 427.9344787597656 95.15070343017578 427.3226318359375 96.55380249023438 C 427.0610656738281 96.41393280029297 426.58050537109375 94.97173309326172 428.02740478515625 96.03652954101562" stroke-width="0.0" fill="rgb(253, 254, 254)" opacity="0.99442726"/>
    <path d="M 108.0869369506836 462.0909423828125 C 106.9215087890625 461.0932922363281 105.22835540771484 461.3914794921875 106.95558166503906 462.3623962402344 C 108.72351837158203 462.31341552734375 108.94790649414062 464.0359802246094 110.49945831298828 466.30633544921875 C 112.93757629394531 467.5015563964844 110.89922332763672 469.2024230957031 108.66166687011719 470.1260070800781 C 106.41615295410156 469.8876037597656 106.72329711914062 469.7813415527344 108.0869369506836 462.0909423828125" stroke-width="0.0" fill="rgb(254, 255, 255)" opacity="0.9921494"/>
    <path d="M 243.88339233398438 413.1667175292969 C 242.44708251953125 414.42010498046875 242.03900146484375 415.8316650390625 239.49876403808594 413.5780944824219 C 239.98532104492188 415.9478454589844 239.46681213378906 417.5995178222656 239.16912841796875 417.0700988769531 C 241.33932495117188 418.6705322265625 244.30230712890625 417.7301940917969 247.0191192626953 417.5904235839844 C 243.6630859375 419.76934814453125 246.57704162597656 420.333740234375 243.88339233398438 413.1667175292969" stroke-width="0.0" fill="rgb(0, 0, 0)" opacity="1.0"/>
    <path d="M 118.77433013916016 65.34764862060547 C 119.14374542236328 63.915611267089844 116.92037200927734 64.33226776123047 117.57189178466797 66.06761932373047 C 115.38133239746094 63.934749603271484 115.50519561767578 61.88248825073242 114.2195053100586 62.71778869628906 C 112.7693099975586 63.23387145996094 111.94988250732422 64.00496673583984 111.50208282470703 61.905799865722656 C 110.03204345703125 60.522464752197266 111.31427764892578 60.8924560546875 118.77433013916016 65.34764862060547" stroke-width="0.0" fill="rgb(255, 255, 255)" opacity="0.99257183"/>
    <path d="M 208.0013885498047 320.2326965332031 C 205.71099853515625 318.4566650390625 204.3694305419922 320.205078125 206.47894287109375 322.73492431640625 C 204.9767303466797 322.0594482421875 206.7498016357422 322.2240905761719 208.77606201171875 321.2648010253906 C 210.11524963378906 323.3100280761719 212.46453857421875 320.8042907714844 210.58299255371094 316.9885559082031 C 208.09356689453125 317.5301208496094 206.7765655517578 319.9111328125 208.0013885498047 320.2326965332031" stroke-width="0.0" fill="rgb(0, 0, 0)" opacity="1.0"/>
    <path d="M 116.45863342285156 27.93477439880371 C 115.2572250366211 30.273828506469727 114.43624114990234 32.150142669677734 112.80923461914062 30.587297439575195 C 113.80779266357422 30.941253662109375 114.82601165771484 28.673322677612305 113.71314239501953 27.651966094970703 C 115.08992767333984 26.5795955657959 112.56500244140625 25.235855102539062 112.9198989868164 24.1138858795166 C 111.19063568115234 25.189495086669922 110.93209075927734 22.864233016967773 116.45863342285156 27.93477439880371" stroke-width="0.0" fill="rgb(254, 255, 254)" opacity="0.9935733"/>
    <path d="M 271.62664794921875 84.65595245361328 C 270.8985290527344 85.33536529541016 269.2616271972656 84.14887237548828 270.1301574707031 81.67731475830078 C 269.36383056640625 83.29368591308594 271.0155334472656 82.2451171875 269.4384765625 80.13042449951172 C 271.5234680175781 80.31753540039062 272.5630187988281 81.23954772949219 273.5642395019531 82.56207275390625 C 273.44451904296875 83.92568969726562 273.0487976074219 83.31258392333984 271.62664794921875 84.65595245361328" stroke-width="0.0" fill="rgb(0, 0, 0)" opacity="1.0"/>
    <path d="M 10.988239288330078 372.0096130371094 C 8.569426536560059 369.54095458984375 10.472817420959473 371.23529052734375 8.674995422363281 371.2610778808594 C 9.071453094482422 369.693115234375 8.812932014465332 369.05206298828125 9.313376426696777 368.203857421875 C 9.36609935760498 366.175537109375 11.444660186767578 367.1976318359375 10.117705345153809 369.4124755859375 C 10.81353759765625 367.95263671875 11.421699523925781 367.7758483886719 10.988239288330078 372.0096130371094" stroke-width="0.0" fill="rgb(254, 254, 254)" opacity="0.9931972"/>
    <path d="M 488.9400634765625 474.040771484375 C 487.5810852050781 473.4120178222656 486.01214599609375 473.421875 486.7207336425781 473.7548828125 C 488.2430419921875 471.8266296386719 486.2022399902344 473.47760009765625 484.69195556640625 472.7489318847656 C 485.1678771972656 470.18536376953125 484.6497497558594 469.24578857421875 485.6786804199219 468.88995361328125 C 488.0281982421875 471.28460693359375 487.6617736816406 472.5411682128906 488.9400634765625 474.040771484375" stroke-width="0.0" fill="rgb(254, 254, 255)" opacity="0.9931443"/>
    <path d="M 41.7931022644043 205.67523193359375 C 42.0283203125 207.48460388183594 39.83475875854492 210.08653259277344 42.24675369262695 208.86050415039062 C 39.00497817993164 207.2291717529297 40.81363296508789 206.1240234375 39.72835922241211 204.7348175048828 C 40.33885192871094 206.84356689453125 39.92147445678711 209.12086486816406 39.80787658691406 206.3762664794922 C 38.22700881958008 207.55899047851562 37.81857681274414 210.1823272705078 41.7931022644043 205.67523193359375" stroke-width="0.0" fill="rgb(8, 8, 9)" opacity="0.9953065"/>
    <path d="M 443.8880310058594 83.15721130371094 C 444.0350646972656 82.10893249511719 442.87994384765625 84.30361938476562 441.9370422363281 81.98979187011719 C 440.2832336425781 81.65575408935547 438.14959716796875 80.12371826171875 439.3529052734375 78.59786224365234 C 439.186767578125 80.53837585449219 440.9953308105469 78.39453887939453 438.59515380859375 79.78059387207031 C 439.03814697265625 80.86064147949219 439.0587158203125 80.1762466430664 443.8880310058594 83.15721130371094" stroke-width="0.0" fill="rgb(254, 254, 254)" opacity="0.99532235"/>
    <path d="M 489.15350341796875 399.8180236816406 C 490.86175537109375 399.904296875 490.5446472167969 400.4317626953125 488.5476379394531 401.84149169921875 C 489.463623046875 402.5010070800781 488.83795166015625 400.7447204589844 487.2897033691406 398.93817138671875 C 486.2471618652344 399.4237365722656 486.6629638671875 401.31414794921875 488.0699768066406 400.68255615234375 C 489.426513671875 401.59808349609375 491.29443359375 402.074462890625 489.15350341796875 399.8180236816406" stroke-width="0.0" fill="rgb(254, 254, 254)" opacity="0.9935242"/>
    <path d="M 358.0486145019531 54.25218200683594 C 356.1712951660156 54.80165481567383 356.24200439453125 53.11558532714844 357.9538269042969 54.02956008911133 C 358.44183349609375 55.44137954711914 360.4866638183594 53.36498260498047 359.85784912109375 54.44493103027344 C 357.9368896484375 53.497467041015625 358.2424011230469 54.83302688598633 356.9725646972656 54.65019607543945 C 356.1416015625 55.366127014160156 356.90087890625 53.24855041503906 358.0486145019531 54.25218200683594" stroke-width="0.0" fill="rgb(253, 253, 254)" opacity="0.9958095"/>
    <path d="M 128.15966796875 97.80082702636719 C 127.8550033569336 100.18254852294922 128.73507690429688 98.1014175415039 130.19029235839844 98.9793701171875 C 130.94207763671875 98.85903930664062 129.47157287597656 99.8690185546875 129.6327362060547 100.8482666015625 C 130.71923828125 102.11900329589844 129.51795959472656 101.48350524902344 131.52374267578125 100.57365417480469 C 130.45980834960938 101.00968933105469 133.01882934570312 101.29657745361328 128.15966796875 97.80082702636719" stroke-width="0.0" fill="rgb(254, 254, 255)" opacity="0.9935142"/>
    <path d="M 202.075439453125 138.28762817382812 C 204.2404022216797 138.8177490234375 205.97605895996094 136.9239959716797 207.4107208251953 139.17095947265625 C 204.6690673828125 140.99737548828125 205.7908477783203 139.4992218017578 204.49977111816406 141.6769561767578 C 206.06951904296875 143.88607788085938 204.81724548339844 143.4578094482422 203.52696228027344 145.20594787597656 C 202.4908447265625 146.9871368408203 200.83135986328125 145.5624542236328 202.075439453125 138.28762817382812" stroke-width="0.0" fill="rgb(0, 0, 0)" opacity="1.0"/>
    <path d="M 75.8385009765625 565.8373413085938 C 77.65162658691406 566.2702026367188 78.13111114501953 564.4510498046875 77.0930404663086 565.8970947265625 C 75.93505859375 564.1130981445312 76.15567779541016 565.5590209960938 73.77180480957031 563.0996704101562 C 74.49275207519531 565.2085571289062 74.63337707519531 564.2644653320312 72.81962585449219 564.4635009765625 C 74.59534454345703 564.8419799804688 74.79713439941406 565.3218383789062 75.8385009765625 565.8373413085938" stroke-width="0.0" fill="rgb(253, 253, 254)" opacity="0.99353427"/>
    <path d="M 10.307805061340332 596.73876953125 C 11.755243301391602 597.7359619140625 11.901785850524902 598.0311889648438 11.148839950561523 599.9434204101562 C 13.14954948425293 597.7896728515625 11.035310745239258 596.2784423828125 9.170077323913574 595.9047241210938 C 11.006545066833496 593.417724609375 12.438844680786133 592.5363159179688 10.756471633911133 590.4323120117188 C 9.49361801147461 591.2567138671875 10.357155799865723 589.5987548828125 10.307805061340332 596.73876953125" stroke-width="0.0" fill="rgb(254, 255, 255)" opacity="0.9919624"/>
    <path d="M 19.858583450317383 297.0992736816406 C 19.59175682067871 294.9148864746094 18.47681427001953 295.6857604980469 20.038923263549805 295.93096923828125 C 19.869657516479492 293.4532165527344 17.736316680908203 291.8776550292969 16.452762603759766 293.25262451171875 C 14.058969497680664 294.5829772949219 16.297277450561523 293.97247314453125 18.52165412902832 292.763427734375 C 16.530118942260742 293.472412109375 16.746566772460938 291.89599609375 19.858583450317383 297.0992736816406" stroke-width="0.0" fill="rgb(255, 255, 255)" opacity="0.9935249"/>
    <path d="M 241.1617431640625 588.4675903320312 C 242.2775115966797 586.8876953125 244.73196411132812 586.6981811523438 243.53097534179688 589.002685546875 C 243.81883239746094 587.664306640625 245.70518493652344 587.4789428710938 246.4510955810547 589.6591796875 C 248.54351806640625 590.7410278320312 246.42750549316406 591.5084228515625 248.03506469726562 591.4912719726562 C 249.37071228027344 589.5098266601562 251.21890258789062 590.2926635742188 241.1617431640625 588.4675903320312" stroke-width="0.0" fill="rgb(254, 255, 255)" opacity="0.9927108"/>
    <path d="M 165.71316528320312 250.15826416015625 C 165.7054443359375 251.59397888183594 163.68515014648438 251.59266662597656 161.7576141357422 252.33447265625 C 163.79432678222656 250.99929809570312 162.5721893310547 251.63487243652344 159.27101135253906 254.2337188720703 C 156.94287109375 252.65797424316406 158.0365447998047 249.60458374023438 159.36074829101562 248.18157958984375 C 160.8986053466797 249.69554138183594 160.34263610839844 247.57212829589844 165.71316528320312 250.15826416015625" stroke-width="0.0" fill="rgb(14, 14, 14)" opacity="1.0"/>
    <path d="M 388.3223876953125 54.031986236572266 C 389.3182678222656 53.58374786376953 389.0345458984375 54.31591033935547 387.5845031738281 56.623592376708984 C 388.0573425292969 58.477176666259766 387.6531066894531 59.056358337402344 387.8482971191406 57.3874397277832 C 388.0663146972656 58.18454360961914 388.6886901855469 60.16829299926758 388.6171875 60.73244857788086 C 389.1939392089844 61.0318489074707 387.24249267578125 59.29499816894531 388.3223876953125 54.031986236572266" stroke-width="0.0" fill="rgb(253, 254, 254)" opacity="0.9943447"/>
    <path d="M 263.9440612792969 23.7949275970459 C 265.4237060546875 23.784774780273438 265.055908203125 23.206132888793945 263.5134582519531 24.0256404876709 C 263.8288269042969 22.057180404663086 264.2974853515625 22.682832717895508 261.9273681640625 22.8569278717041 C 261.74005126953125 24.52875328063965 261.34796142578125 21.965686798095703 259.3276062011719 21.441463470458984 C 261.3111877441406 21.355552673339844 262.2079772949219 20.886947631835938 263.9440612792969 23.7949275970459" stroke-width="0.0" fill="rgb(254, 254, 254)" opacity="0.9931409"/>
    <path d="M 328.2131652832031 13.23733901977539 C 327.5218505859375 13.760604858398438 326.0501403808594 16.174467086791992 326.0162048339844 17.303321838378906 C 325.17578125 18.61443519592285 327.0301818847656 21.014850616455078 329.0769958496094 19.464937210083008 C 330.38568115234375 20.892404556274414 328.63348388671875 20.31192398071289 329.0673522949219 19.397306442260742 C 328.8233337402344 21.426950454711914 329.9012756347656 19.140735626220703 328.2131652832031 13.23733901977539" stroke-width="0.0" fill="rgb(255, 255, 255)" opacity="0.9925537"/>
    <path d="M 203.79591369628906 268.123291015625 C 203.50311279296875 268.5979919433594 203.5532684326172 267.796875 202.99876403808594 267.62548828125 C 204.49600219726562 266.7693786621094 206.8049774169922 267.8196105957031 205.97317504882812 269.3262634277344 C 207.15762329101562 270.3294982910156 207.5887451171875 269.8507385253906 207.65167236328125 271.9108581542969 C 205.8821258544922 274.3577880859375 207.62962341308594 273.6082458496094 203.79591369628906 268.123291015625" stroke-width="0.0" fill="rgb(255, 255, 255)" opacity="0.99238735"/>
    <path d="M 469.1782531738281 568.0794067382812 C 469.0871276855469 566.2185668945312 468.8765869140625 566.065185546875 468.51373291015625 567.0470581054688 C 470.8532409667969 566.0484619140625 472.19268798828125 564.848388671875 470.7780456542969 564.44091796875 C 473.1020202636719 562.4993286132812 472.9103698730469 562.31005859375 471.5299987792969 561.0452880859375 C 473.77972412109375 558.5783081054688 475.5221862792969 558.4093627929688 469.1782531738281 568.0794067382812" stroke-width="0.0" fill="rgb(253, 253, 254)" opacity="0.9933526"/>
    <path d="M 538.3323364257812 597.1363525390625 C 537.3975219726562 595.353515625 538.5894775390625 595.4201049804688 539.0684814453125 596.8687744140625 C 537.759033203125 594.555908203125 539.4978637695312 596.5089721679688 540.9345703125 599.002685546875 C 538.9241943359375 598.5960693359375 537.873779296875 598.46142578125 537.066162109375 597.447998046875 C 536.3955078125 598.6214599609375 534.4505615234375 598.6473388671875 538.3323364257812 597.1363525390625" stroke-width="0.0" fill="rgb(254, 255, 255)" opacity="0.9940347"/>
    <path d="M 13.162210464477539 506.1882629394531 C 13.17309284210205 505.76922607421875 13.60490608215332 507.36004638671875 14.977660179138184 506.8932189941406 C 16.76890754699707 505.5589294433594 15.225081443786621 507.2557067871094 16.978416442871094 507.33538818359375 C 17.624664306640625 505.6080627441406 19.003700256347656 503.9326477050781 17.476579666137695 501.98101806640625 C 19.591922760009766 500.84332275390625 19.85303497314453 500.4933166503906 13.162210464477539 506.1882629394531" stroke-width="0.0" fill="rgb(253, 253, 254)" opacity="0.99315387"/>
    <path d="M 27.356782913208008 412.76214599609375 C 28.823999404907227 411.8314514160156 26.887975692749023 411.7486267089844 24.53499984741211 410.62384033203125 C 24.56945037841797 411.47772216796875 24.3775691986084 410.190185546875 26.322973251342773 410.4700012207031 C 25.18082046508789 409.0908203125 26.908809661865234 407.73345947265625 28.418601989746094 410.23345947265625 C 26.338735580444336 409.1781921386719 24.864334106445312 409.69976806640625 27.356782913208008 412.76214599609375" stroke-width="0.0" fill="rgb(254, 255, 255)" opacity="0.993126"/>
    <path d="M 234.63339233398438 12.869400978088379 C 233.34181213378906 12.350420951843262 235.489501953125 11.147112846374512 236.8499298095703 11.231545448303223 C 236.98651123046875 10.242890357971191 238.7620086669922 8.552552223205566 240.29469299316406 8.251928329467773 C 239.15354919433594 7.342898368835449 237.2097930908203 7.037037372589111 239.08201599121094 6.437713623046875 C 237.5574951171875 6.785173416137695 237.66700744628906 5.705498695373535 234.63339233398438 12.869400978088379" stroke-width="0.0" fill="rgb(254, 255, 255)" opacity="0.9925085"/>
    <path d="M 531.3032836914062 501.24761962890625 C 531.0143432617188 500.58465576171875 531.3551025390625 501.8001708984375 530.2687377929688 502.0008239746094 C 531.8291015625 504.64752197265625 533.2503662109375 502.7589416503906 532.6824951171875 502.2378234863281 C 533.9685668945312 498.929443359375 533.7327880859375 497.22894287109375 533.0883178710938 495.685791015625 C 534.8020629882812 496.6481628417969 534.2245483398438 496.6836242675781 531.3032836914062 501.24761962890625" stroke-width="0.0" fill="rgb(0, 0, 0)" opacity="0.99489796"/>
    <path d="M 85.38430786132812 268.3480224609375 C 87.10807800292969 270.93743896484375 88.13677978515625 269.9385070800781 86.62054443359375 269.71319580078125 C 87.01773834228516 270.4098815917969 88.14285278320312 269.9362487792969 89.8482666015625 269.1505126953125 C 87.28921508789062 267.8595275878906 88.30431365966797 267.92266845703125 87.39319610595703 268.2973937988281 C 87.17659759521484 268.0028381347656 89.0312271118164 268.5688781738281 85.38430786132812 268.3480224609375" stroke-width="0.0" fill="rgb(0, 0, 0)" opacity="1.0"/>
    <path d="M 67.09733581542969 115.85310363769531 C 70.03938293457031 115.62601470947266 71.37590026855469 115.25178527832031 73.20196533203125 112.8702392578125 C 72.95686340332031 111.84249877929688 71.59490203857422 111.62035369873047 70.37382507324219 111.57617950439453 C 70.91677856445312 110.9798355102539 71.50148010253906 110.27981567382812 69.70726013183594 107.98062133789062 C 66.24714660644531 106.99113464355469 63.727760314941406 108.299560546875 67.09733581542969 115.85310363769531" stroke-width="0.0" fill="rgb(0, 0, 0)" opacity="1.0"/>
    <path d="M 180.76324462890625 483.7760314941406 C 178.93994140625 483.76318359375 179.41964721679688 482.345947265625 176.94557189941406 481.4999694824219 C 178.46009826660156 482.8087158203125 177.28131103515625 482.4272155761719 176.78599548339844 480.541015625 C 173.67596435546875 478.52325439453125 174.00469970703125 481.6780090332031 174.2334747314453 480.5509033203125 C 172.6653289794922 482.8688049316406 170.38319396972656 483.4801940917969 180.76324462890625 483.7760314941406" stroke-width="0.0" fill="rgb(0, 0, 0)" opacity="1.0"/>
    <path d="M 212.22512817382812 229.52085876464844 C 213.46234130859375 227.2581329345703 213.2542724609375 229.64114379882812 211.5671844482422 228.4603729248047 C 212.75914001464844 227.7471466064453 212.98690795898438 228.7798309326172 211.99378967285156 229.89613342285156 C 212.10597229003906 229.35394287109375 211.51779174804688 227.33474731445312 209.91311645507812 228.31884765625 C 209.86419677734375 230.0150604248047 211.38265991210938 232.19322204589844 212.22512817382812 229.52085876464844" stroke-width="0.0" fill="rgb(169, 168, 170)" opacity="0.9925759"/>
    <path d="M 427.0318908691406 511.9250183105469 C 425.6706848144531 513.9945678710938 423.520263671875 512.9442138671875 421.7823486328125 511.20440673828125 C 421.0091857910156 511.66253662109375 422.6913757324219 512.478271484375 423.4088134765625 510.651611328125 C 421.0318908691406 508.77880859375 421.78057861328125 509.99896240234375 419.37042236328125 510.4746398925781 C 418.7972717285156 510.1694030761719 419.1975402832031 509.8348083496094 427.0318908691406 511.9250183105469" stroke-width="0.0" fill="rgb(254, 254, 254)" opacity="0.9924804"/>
    <path d="M 444.8370361328125 480.4914245605469 C 442.6799621582031 480.7302551269531 444.508056640625 479.671142578125 445.27056884765625 481.1088562011719 C 443.4658203125 483.0971984863281 444.7190246582031 483.7589111328125 444.21295166015625 482.9654541015625 C 442.1430358886719 482.94940185546875 439.6544494628906 483.4819030761719 437.77044677734375 484.35125732421875 C 436.704345703125 482.6039733886719 434.3787536621094 482.557861328125 444.8370361328125 480.4914245605469" stroke-width="0.0" fill="rgb(254, 254, 254)" opacity="0.99203193"/>
    <path d="M 462.1822814941406 446.9051818847656 C 460.2501220703125 444.7158203125 462.5099792480469 442.3125305175781 463.604736328125 443.7225341796875 C 461.7460021972656 441.9908752441406 460.7456970214844 442.5195007324219 461.2003479003906 440.2753601074219 C 460.3719482421875 439.66534423828125 461.6792907714844 438.5353698730469 459.956298828125 436.6360168457031 C 457.7881164550781 439.1712951660156 458.50567626953125 437.16522216796875 462.1822814941406 446.9051818847656" stroke-width="0.0" fill="rgb(254, 254, 254)" opacity="0.9917934"/>
    <path d="M 115.88943481445312 586.3660278320312 C 117.31480407714844 585.1729125976562 117.91989135742188 585.134521484375 118.25225830078125 586.0654907226562 C 117.01554870605469 586.1737670898438 118.40315246582031 586.3800659179688 119.82302856445312 588.7083129882812 C 120.77323913574219 586.8214721679688 118.99751281738281 588.7177124023438 118.70587921142578 590.6718139648438 C 120.41796875 588.384033203125 118.76133728027344 589.1822509765625 115.88943481445312 586.3660278320312" stroke-width="0.0" fill="rgb(254, 254, 254)" opacity="0.9928469"/>
    <path d="M 94.48229217529297 73.69377136230469 C 96.2875747680664 71.45362854003906 98.22225189208984 70.50555419921875 97.40253448486328 69.61114501953125 C 97.72637939453125 70.65874481201172 100.19120788574219 69.33063507080078 99.15930938720703 69.77345275878906 C 98.35816955566406 69.28797912597656 99.03820037841797 67.60993194580078 97.27642059326172 66.25985717773438 C 98.99175262451172 67.55725860595703 100.92823791503906 65.36671447753906 94.48229217529297 73.69377136230469" stroke-width="0.0" fill="rgb(2, 2, 2)" opacity="0.99059653"/>
    <path d="M 447.8800354003906 401.9727478027344 C 445.8731384277344 400.1033020019531 448.3204040527344 401.9189758300781 448.8869934082031 400.3615417480469 C 450.4924621582031 400.3344421386719 449.45635986328125 401.26904296875 447.3120422363281 400.9006042480469 C 447.171630859375 399.5718078613281 448.21881103515625 397.40478515625 447.04168701171875 399.07464599609375 C 449.30462646484375 398.0145263671875 450.8355712890625 395.77679443359375 447.8800354003906 401.9727478027344" stroke-width="0.0" fill="rgb(254, 254, 255)" opacity="0.99339366"/>
    <path d="M 165.6015167236328 524.5489501953125 C 166.54136657714844 522.8359985351562 166.31060791015625 520.6542358398438 164.33200073242188 522.82275390625 C 161.97254943847656 523.9033203125 163.2740020751953 522.3157348632812 163.26524353027344 524.7304077148438 C 162.87599182128906 526.6982421875 162.85646057128906 527.4576416015625 163.13868713378906 527.1873168945312 C 160.83734130859375 526.8737182617188 158.8441619873047 527.5646362304688 165.6015167236328 524.5489501953125" stroke-width="0.0" fill="rgb(254, 255, 255)" opacity="0.99316955"/>
    <path d="M 514.0559692382812 519.9547729492188 C 514.7933959960938 519.8775024414062 515.2534790039062 520.7582397460938 515.62841796875 521.9765014648438 C 517.3141479492188 524.336181640625 519.0015258789062 522.4143676757812 518.585693359375 524.19677734375 C 517.1719360351562 525.2001953125 518.6952514648438 526.6863403320312 520.63427734375 529.1986083984375 C 521.515625 528.1115112304688 521.9712524414062 527.4014282226562 514.0559692382812 519.9547729492188" stroke-width="0.0" fill="rgb(255, 255, 255)" opacity="0.9920267"/>
    <path d="M 80.26522827148438 59.27924346923828 C 79.69803619384766 62.416343688964844 79.79398345947266 64.05305480957031 80.89308166503906 65.83867645263672 C 82.30225372314453 65.23812866210938 82.69123077392578 64.48677825927734 81.86463928222656 64.42298126220703 C 82.82286834716797 66.32504272460938 81.6797866821289 64.61422729492188 80.85503387451172 64.31041717529297 C 83.31327819824219 64.42232513427734 83.41500091552734 64.67799377441406 80.26522827148438 59.27924346923828" stroke-width="0.0" fill="rgb(3, 3, 2)" opacity="0.99358064"/>
    <path d="M 509.843994140625 51.71514129638672 C 512.4041137695312 53.0007209777832 510.3760986328125 51.450740814208984 509.9914245605469 51.7851676940918 C 512.289306640625 49.28968048095703 511.247802734375 48.0275993347168 509.9383544921875 47.048583984375 C 507.39703369140625 47.746376037597656 508.3182373046875 45.267452239990234 510.3914489746094 47.57247543334961 C 509.28912353515625 48.43088150024414 510.35406494140625 46.22441482543945 509.843994140625 51.71514129638672" stroke-width="0.0" fill="rgb(255, 253, 255)" opacity="0.99432456"/>
    <path d="M 562.404052734375 95.91095733642578 C 561.0232543945312 95.36144256591797 560.7899780273438 93.42829132080078 559.769287109375 92.5705795288086 C 560.7979125976562 92.15670776367188 562.502197265625 90.7436294555664 564.76220703125 90.12162780761719 C 565.4512329101562 87.91983032226562 563.0233154296875 89.90648651123047 561.0177612304688 91.42644500732422 C 559.7804565429688 89.0604476928711 560.9705810546875 87.13221740722656 562.404052734375 95.91095733642578" stroke-width="0.0" fill="rgb(254, 255, 255)" opacity="0.9926878"/>
    <path d="M 230.817138671875 210.281982421875 C 233.0176239013672 211.2256622314453 231.30258178710938 213.5157470703125 233.3878173828125 212.54653930664062 C 234.72767639160156 212.8372344970703 233.80760192871094 213.4153594970703 233.05772399902344 213.1067352294922 C 234.33932495117188 213.90310668945312 232.89027404785156 214.0924530029297 234.88441467285156 213.9707489013672 C 236.7047576904297 212.37066650390625 235.72079467773438 214.72340393066406 230.817138671875 210.281982421875" stroke-width="0.0" fill="rgb(255, 255, 255)" opacity="0.9933863"/>
    <path d="M 206.3043670654297 176.20652770996094 C 208.1740264892578 177.6803436279297 208.93553161621094 177.1460418701172 211.7496337890625 177.32032775878906 C 209.68157958984375 177.7427978515625 211.77523803710938 176.23146057128906 210.138916015625 174.43479919433594 C 211.39154052734375 173.7789764404297 211.04383850097656 176.9839324951172 212.2227783203125 174.89239501953125 C 209.46104431152344 175.6751251220703 207.5357666015625 174.01858520507812 206.3043670654297 176.20652770996094" stroke-width="0.0" fill="rgb(0, 0, 0)" opacity="1.0"/>
    <path d="M 25.816205978393555 366.2263488769531 C 27.79132843017578 367.0809020996094 28.816930770874023 368.5535583496094 30.865110397338867 368.7875671386719 C 29.926504135131836 368.2481994628906 29.163793563842773 367.74285888671875 29.949365615844727 368.9380187988281 C 30.050220489501953 370.29278564453125 27.71516227722168 370.1380615234375 28.074464797973633 367.78814697265625 C 28.859615325927734 367.55145263671875 28.166296005249023 369.3084716796875 25.816205978393555 366.2263488769531" stroke-width="0.0" fill="rgb(254, 255, 255)" opacity="0.993348"/>
    <path d="M 267.052001953125 95.96517944335938 C 267.2548828125 95.36609649658203 266.1976623535156 93.60411834716797 264.241455078125 92.08656311035156 C 265.5357971191406 93.29872131347656 267.8255920410156 92.24677276611328 266.90960693359375 94.05889129638672 C 266.9655456542969 91.66523742675781 267.9443054199219 91.77288818359375 268.12713623046875 91.39350128173828 C 265.8598937988281 93.15229797363281 267.6758117675781 94.46556854248047 267.052001953125 95.96517944335938" stroke-width="0.0" fill="rgb(174, 173, 173)" opacity="0.9925148"/>
    <path d="M 305.1632080078125 365.1007080078125 C 307.4239501953125 364.3662414550781 309.82867431640625 366.05224609375 307.5858154296875 365.960693359375 C 307.7897644042969 366.64459228515625 309.4951171875 367.9931640625 309.7024841308594 367.58807373046875 C 307.86236572265625 368.897705078125 305.7503356933594 367.990478515625 304.7876281738281 368.2001953125 C 303.7826843261719 369.8831787109375 300.52459716796875 368.2738037109375 305.1632080078125 365.1007080078125" stroke-width="0.0" fill="rgb(0, 0, 0)" opacity="0.9973928"/>
    <path d="M 459.93536376953125 389.96258544921875 C 459.08203125 388.77069091796875 457.9129333496094 390.57000732421875 456.0997314453125 388.1055908203125 C 457.5933837890625 387.7308349609375 458.16485595703125 388.2033386230469 458.509033203125 387.0597839355469 C 457.0931701660156 389.3181457519531 459.0398864746094 387.2793273925781 456.4147033691406 388.91278076171875 C 456.26361083984375 387.7177734375 456.3836669921875 386.29736328125 459.93536376953125 389.96258544921875" stroke-width="0.0" fill="rgb(255, 255, 255)" opacity="0.99373066"/>
    <path d="M 405.1339416503906 553.1367797851562 C 403.9714660644531 551.8225708007812 403.90240478515625 553.5005493164062 404.2108459472656 555.5831909179688 C 403.49273681640625 554.1055297851562 402.26824951171875 552.171875 404.7608337402344 551.3844604492188 C 404.6929931640625 551.8294677734375 406.86834716796875 550.365966796875 405.8725280761719 548.0114135742188 C 403.3237609863281 550.0573120117188 405.58355712890625 548.1397705078125 405.1339416503906 553.1367797851562" stroke-width="0.0" fill="rgb(255, 254, 253)" opacity="0.9926659"/>
    <path d="M 150.68844604492188 592.3397216796875 C 153.51370239257812 594.05517578125 153.5276336669922 592.2081909179688 152.29920959472656 593.1738891601562 C 150.7086181640625 591.2891845703125 149.62831115722656 589.2634887695312 150.31898498535156 591.0144653320312 C 147.6949005126953 589.181640625 145.17364501953125 587.8536987304688 147.25518798828125 588.9381103515625 C 145.9752197265625 588.659912109375 144.55889892578125 586.9713745117188 150.68844604492188 592.3397216796875" stroke-width="0.0" fill="rgb(253, 254, 254)" opacity="0.9931444"/>
    <path d="M 585.0851440429688 34.854454040527344 C 582.9397583007812 34.179012298583984 581.354736328125 31.908266067504883 580.7799072265625 30.601125717163086 C 580.9550170898438 29.875368118286133 581.5846557617188 32.30574417114258 579.27587890625 32.3843994140625 C 578.815185546875 31.56125831604004 579.5827026367188 32.664546966552734 581.61328125 32.84727478027344 C 579.3695678710938 32.51375198364258 580.50048828125 32.58491516113281 585.0851440429688 34.854454040527344" stroke-width="0.0" fill="rgb(253, 253, 253)" opacity="0.9943406"/>
    <path d="M 338.6197509765625 97.64603424072266 C 335.0032653808594 96.31311798095703 333.40924072265625 98.66592407226562 335.0057678222656 100.32210540771484 C 333.91998291015625 97.75509643554688 336.4612731933594 99.49666595458984 338.81085205078125 100.72633361816406 C 336.8993225097656 102.4056396484375 334.5113220214844 100.33954620361328 334.7444763183594 101.65375518798828 C 331.76959228515625 102.42613983154297 331.1358947753906 101.58695220947266 338.6197509765625 97.64603424072266" stroke-width="0.0" fill="rgb(104, 104, 104)" opacity="1.0"/>
    <path d="M 225.9742889404297 590.9976196289062 C 224.9084014892578 593.1975708007812 224.468505859375 592.2570190429688 224.91165161132812 592.3983154296875 C 225.11199951171875 593.818603515625 225.5306396484375 594.666259765625 226.66830444335938 594.3167114257812 C 224.7411651611328 592.3715209960938 224.2899932861328 592.7012329101562 222.651123046875 593.7692260742188 C 225.1785125732422 591.5416870117188 224.71485900878906 591.2574462890625 225.9742889404297 590.9976196289062" stroke-width="0.0" fill="rgb(254, 254, 254)" opacity="0.9937247"/>
    <path d="M 328.15087890625 111.98159790039062 C 328.29229736328125 110.16770935058594 329.32080078125 110.58411407470703 327.37542724609375 110.27136993408203 C 329.2017822265625 112.04871368408203 328.9520568847656 112.76441955566406 329.3401184082031 110.7762222290039 C 328.4821472167969 108.60282897949219 328.9526672363281 107.05638122558594 329.45294189453125 106.46994018554688 C 330.2394714355469 108.75202941894531 332.1256103515625 110.4443359375 328.15087890625 111.98159790039062" stroke-width="0.0" fill="rgb(255, 255, 255)" opacity="0.9929678"/>
    <path d="M 470.4123229980469 62.26974105834961 C 472.43719482421875 60.406280517578125 471.52325439453125 62.453941345214844 471.70404052734375 63.91341018676758 C 470.29632568359375 63.173221588134766 472.5259094238281 62.365638732910156 471.4878234863281 61.029396057128906 C 471.88763427734375 63.479122161865234 473.53851318359375 65.88417053222656 473.7347717285156 67.48448181152344 C 473.389892578125 68.8447265625 471.5165100097656 66.49907684326172 470.4123229980469 62.26974105834961" stroke-width="0.0" fill="rgb(253, 254, 254)" opacity="0.99299586"/>
    <path d="M 341.8316650390625 442.8569030761719 C 339.5636901855469 439.5323791503906 336.4041748046875 439.5878601074219 337.4618225097656 441.89111328125 C 336.3448791503906 440.7594909667969 338.1290588378906 441.60467529296875 336.02777099609375 440.1696472167969 C 335.3650817871094 439.6136779785156 333.59014892578125 440.6846618652344 334.4464111328125 443.1498718261719 C 334.9586181640625 445.3570861816406 334.0003662109375 446.5586242675781 341.8316650390625 442.8569030761719" stroke-width="0.0" fill="rgb(0, 0, 0)" opacity="1.0"/>
    <path d="M 113.255615234375 83.6519546508789 C 115.87869262695312 81.10868072509766 115.36616516113281 80.42974090576172 112.10382080078125 81.12850189208984 C 112.2841796875 78.50464630126953 113.3452377319336 79.45911407470703 115.49630737304688 78.64614868164062 C 116.81698608398438 80.81449890136719 117.03556060791016 83.46785736083984 113.91404724121094 81.29019165039062 C 114.87187194824219 79.67765808105469 112.76173400878906 79.45381927490234 113.255615234375 83.6519546508789" stroke-width="0.0" fill="rgb(0, 0, 0)" opacity="1.0"/>
    <path d="M 237.9609375 249.06033325195312 C 236.78575134277344 247.7691192626953 236.70083618164062 246.9949493408203 237.40560913085938 246.18113708496094 C 236.92831420898438 246.6055450439453 235.76605224609375 245.18788146972656 236.2347869873047 245.83883666992188 C 235.29917907714844 246.8831024169922 236.1990203857422 247.1463165283203 235.3806610107422 246.72349548339844 C 234.51768493652344 245.1836700439453 232.12930297851562 244.0784912109375 237.9609375 249.06033325195312" stroke-width="0.0" fill="rgb(254, 254, 254)" opacity="0.995095"/>
    <path d="M 144.22630310058594 80.40672302246094 C 145.78419494628906 82.27179718017578 143.98390197753906 82.78667449951172 147.14405822753906 83.93972778320312 C 148.34530639648438 81.15666961669922 148.17935180664062 79.1761703491211 145.79486083984375 79.5970687866211 C 147.179931640625 78.81422424316406 146.99049377441406 80.70657348632812 147.3204803466797 78.01057434082031 C 145.3697509765625 77.35296630859375 143.3000030517578 78.85700225830078 144.22630310058594 80.40672302246094" stroke-width="0.0" fill="rgb(0, 0, 0)" opacity="1.0"/>
    <path d="M 458.1975402832031 401.81219482421875 C 460.4779968261719 401.4761657714844 462.2337341308594 399.1583251953125 464.255126953125 397.1458740234375 C 463.9785461425781 399.3917541503906 466.12445068359375 399.1016845703125 465.7599182128906 401.14678955078125 C 464.7554626464844 399.9471130371094 464.50946044921875 400.97064208984375 463.8424987792969 402.42010498046875 C 462.8164978027344 403.93377685546875 461.9678039550781 401.5538635253906 458.1975402832031 401.81219482421875" stroke-width="0.0" fill="rgb(254, 255, 255)" opacity="0.99213266"/>
    <path d="M 38.96856689453125 512.0 C 38.531944274902344 514.0218505859375 39.503501892089844 512.4805908203125 41.04651641845703 511.8236389160156 C 41.78517532348633 510.7449035644531 40.49076843261719 511.4680480957031 41.92400360107422 509.08380126953125 C 39.57479476928711 510.7780456542969 38.40986251831055 510.90008544921875 39.60050964355469 512.0929565429688 C 37.50836944580078 510.861083984375 37.4742317199707 509.53466796875 38.96856689453125 512.0" stroke-width="0.0" fill="rgb(254, 255, 255)" opacity="0.99406576"/>
    <path d="M 57.007686614990234 462.9677734375 C 58.69172668457031 463.86065673828125 58.01956558227539 464.5611572265625 59.46946334838867 466.4658508300781 C 59.637046813964844 468.3638916015625 59.583282470703125 469.96380615234375 60.003662109375 467.5826110839844 C 60.353939056396484 466.1513977050781 58.08723449707031 464.81646728515625 58.96254348754883 464.0033874511719 C 60.1230583190918 465.4494934082031 60.802734375 464.1202392578125 57.007686614990234 462.9677734375" stroke-width="0.0" fill="rgb(253, 253, 254)" opacity="0.99637747"/>
    <path d="M 2.755148410797119 218.17910766601562 C 2.2014975547790527 219.2860870361328 3.5499467849731445 221.35369873046875 5.350268363952637 219.1576690673828 C 3.9497454166412354 220.7073516845703 3.8605964183807373 221.94253540039062 3.1299824714660645 220.7998046875 C 5.180249214172363 223.22451782226562 5.061063289642334 221.0894317626953 5.663827896118164 220.50408935546875 C 7.799411296844482 222.04258728027344 5.40397834777832 221.4879913330078 2.755148410797119 218.17910766601562" stroke-width="0.0" fill="rgb(254, 254, 254)" opacity="0.9956422"/>
    <path d="M 193.00778198242188 586.748291015625 C 191.110595703125 587.60302734375 188.8754119873047 585.6135864257812 190.48484802246094 588.1541137695312 C 188.771240234375 589.9457397460938 191.20106506347656 591.6010131835938 189.62100219726562 592.9232788085938 C 188.2634735107422 592.744384765625 188.1889190673828 592.7131958007812 190.12554931640625 592.3032836914062 C 192.22328186035156 591.1875 190.36215209960938 592.4060668945312 193.00778198242188 586.748291015625" stroke-width="0.0" fill="rgb(253, 254, 254)" opacity="0.99334586"/>
    <path d="M 147.4921112060547 81.67021942138672 C 145.90127563476562 81.60216522216797 145.4511260986328 83.5050277709961 143.08570861816406 85.31682586669922 C 143.57916259765625 81.72272491455078 144.6896209716797 81.81434631347656 142.12997436523438 80.46701049804688 C 140.27105712890625 82.51384735107422 140.16685485839844 85.22088623046875 138.94381713867188 87.4467544555664 C 135.91078186035156 86.44306182861328 135.78033447265625 85.98648834228516 147.4921112060547 81.67021942138672" stroke-width="0.0" fill="rgb(0, 0, 0)" opacity="1.0"/>
    <path d="M 161.72012329101562 139.19276428222656 C 159.36553955078125 141.76821899414062 159.6054229736328 142.1642608642578 158.08935546875 143.73660278320312 C 154.5909881591797 142.33349609375 152.61984252929688 143.25210571289062 152.54603576660156 140.3899383544922 C 154.4808807373047 139.28565979003906 154.9238739013672 141.34820556640625 154.60643005371094 140.4159698486328 C 155.99267578125 138.80335998535156 157.4707794189453 138.64254760742188 161.72012329101562 139.19276428222656" stroke-width="0.0" fill="rgb(0, 0, 0)" opacity="1.0"/>
    <path d="M 163.24806213378906 349.61541748046875 C 166.50099182128906 351.65716552734375 164.3754119873047 349.5955505371094 165.88450622558594 346.871337890625 C 162.7938232421875 347.04986572265625 163.3568878173828 348.3957824707031 161.14710998535156 347.8439636230469 C 161.5780487060547 350.8502197265625 164.2384796142578 350.1930236816406 163.4871368408203 349.9844055175781 C 166.15924072265625 352.1239013671875 163.1798095703125 353.1354064941406 163.24806213378906 349.61541748046875" stroke-width="0.0" fill="rgb(0, 0, 0)" opacity="1.0"/>
    <path d="M 485.9847106933594 88.91963958740234 C 485.9454345703125 87.70893859863281 485.2629699707031 86.43234252929688 482.3417053222656 85.50484466552734 C 481.10540771484375 86.6218490600586 483.97161865234375 88.3443603515625 485.1174011230469 86.69644165039062 C 485.6700439453125 87.79641723632812 487.8218688964844 85.77609252929688 486.8071594238281 84.90782165527344 C 484.96978759765625 84.24990844726562 485.8724670410156 86.63990783691406 485.9847106933594 88.91963958740234" stroke-width="0.0" fill="rgb(253, 252, 251)" opacity="1.0"/>
    <path d="M 158.81346130371094 113.08729553222656 C 158.2117156982422 116.89105224609375 157.860595703125 118.66217803955078 159.80661010742188 116.64546966552734 C 161.15904235839844 118.50458526611328 163.56863403320312 119.96330261230469 166.89056396484375 119.730712890625 C 164.87606811523438 122.0697250366211 165.802734375 123.48274230957031 166.11892700195312 124.19224548339844 C 167.81883239746094 124.95819854736328 169.87245178222656 121.75402069091797 158.81346130371094 113.08729553222656" stroke-width="0.0" fill="rgb(2, 2, 2)" opacity="0.99027216"/>
    <path d="M 132.08743286132812 92.83009338378906 C 131.1147918701172 94.67666625976562 129.6280975341797 95.98854064941406 130.99464416503906 96.29137420654297 C 129.2368927001953 98.01775360107422 128.8802947998047 98.63495635986328 128.05587768554688 97.94091033935547 C 128.75833129882812 99.41280364990234 129.4377899169922 100.083740234375 127.70348358154297 97.74830627441406 C 127.2270736694336 98.18920135498047 125.94436645507812 95.74568176269531 132.08743286132812 92.83009338378906" stroke-width="0.0" fill="rgb(254, 253, 254)" opacity="0.99265605"/>
    <path d="M 107.20248413085938 452.0119323730469 C 107.18999481201172 452.14471435546875 108.09355926513672 449.8605041503906 110.38617706298828 449.501953125 C 110.07471466064453 452.04742431640625 108.51014709472656 451.7076721191406 110.37210845947266 450.226806640625 C 110.8605728149414 447.7157897949219 109.43468475341797 449.02410888671875 109.72187805175781 447.43048095703125 C 107.80303192138672 448.8959045410156 108.02656555175781 449.2999267578125 107.20248413085938 452.0119323730469" stroke-width="0.0" fill="rgb(254, 255, 255)" opacity="0.9929552"/>
    <path d="M 148.99168395996094 535.2590942382812 C 147.12376403808594 536.68115234375 146.56764221191406 537.400634765625 148.0594024658203 535.7412109375 C 147.37477111816406 534.607177734375 147.3990478515625 534.8120727539062 148.43551635742188 534.8304443359375 C 150.27639770507812 535.6657104492188 152.58058166503906 537.4558715820312 154.709228515625 536.4131469726562 C 156.66482543945312 535.098876953125 157.98123168945312 535.0245971679688 148.99168395996094 535.2590942382812" stroke-width="0.0" fill="rgb(254, 254, 255)" opacity="0.99305403"/>
    <path d="M 57.1429443359375 39.13458251953125 C 60.85734176635742 38.312408447265625 61.3016357421875 41.770042419433594 59.02997970581055 43.82139205932617 C 59.39568328857422 44.41168975830078 59.385189056396484 47.27909469604492 60.20228576660156 44.39420700073242 C 57.90911865234375 45.48814392089844 57.40445327758789 46.25897979736328 57.727394104003906 44.99523162841797 C 55.38041305541992 42.322872161865234 56.96213912963867 42.796077728271484 57.1429443359375 39.13458251953125" stroke-width="0.0" fill="rgb(0, 0, 0)" opacity="1.0"/>
    <path d="M 266.23248291015625 117.23076629638672 C 265.1520080566406 117.44914245605469 265.2643127441406 116.71669006347656 266.20660400390625 118.12821197509766 C 268.6464538574219 120.83979034423828 267.36126708984375 121.39503479003906 265.05450439453125 123.57154083251953 C 264.7309875488281 120.09185791015625 262.7106628417969 121.65081024169922 263.3733215332031 123.3879623413086 C 264.9909973144531 120.7957763671875 263.9148254394531 120.18579864501953 266.23248291015625 117.23076629638672" stroke-width="0.0" fill="rgb(0, 0, 0)" opacity="1.0"/>
    <path d="M 234.6325225830078 131.11456298828125 C 233.14419555664062 132.87579345703125 234.85574340820312 134.05795288085938 234.82481384277344 133.228515625 C 232.8123321533203 134.06509399414062 230.50372314453125 136.07249450683594 228.6874542236328 133.74180603027344 C 229.49183654785156 133.99456787109375 227.3064727783203 135.4298858642578 225.06973266601562 133.92727661132812 C 227.58421325683594 131.3223114013672 227.51614379882812 129.36734008789062 234.6325225830078 131.11456298828125" stroke-width="0.0" fill="rgb(0, 0, 0)" opacity="1.0"/>
    <path d="M 413.7644348144531 528.6819458007812 C 414.8921813964844 528.7282104492188 414.6072998046875 530.28173828125 412.14605712890625 532.1715087890625 C 411.4174499511719 534.0623779296875 411.5091857910156 535.5411376953125 413.38690185546875 534.93310546875 C 415.43316650390625 535.012451171875 415.3593444824219 535.0726928710938 413.30670166015625 532.5866088867188 C 412.5257568359375 531.0781860351562 410.41192626953125 530.3548583984375 413.7644348144531 528.6819458007812" stroke-width="0.0" fill="rgb(255, 254, 253)" opacity="0.9923375"/>
    <path d="M 140.3310089111328 587.6014404296875 C 138.4430694580078 585.6473388671875 140.78182983398438 583.32861328125 139.9031982421875 584.7975463867188 C 138.14727783203125 586.347412109375 139.8162078857422 588.0123901367188 141.15830993652344 588.601318359375 C 142.65277099609375 586.7145385742188 141.9506072998047 587.982421875 143.22853088378906 590.1342163085938 C 141.56414794921875 590.4641723632812 144.0496368408203 590.7692260742188 140.3310089111328 587.6014404296875" stroke-width="0.0" fill="rgb(253, 254, 254)" opacity="0.9931507"/>
    <path d="M 493.037841796875 42.72492599487305 C 495.312255859375 41.29502487182617 494.6525573730469 40.31647491455078 493.90179443359375 40.480712890625 C 495.32415771484375 38.948822021484375 495.1795654296875 40.98921585083008 497.3546447753906 40.384090423583984 C 495.9688415527344 42.186126708984375 497.37353515625 41.60358428955078 499.1829833984375 43.400230407714844 C 498.06890869140625 43.12199783325195 497.96282958984375 43.08130645751953 493.037841796875 42.72492599487305" stroke-width="0.0" fill="rgb(254, 254, 255)" opacity="0.9927108"/>
    <path d="M 447.80999755859375 511.249755859375 C 447.8965759277344 511.00897216796875 450.18280029296875 512.1179809570312 451.24053955078125 513.5321044921875 C 449.4088134765625 513.7284545898438 450.3095397949219 515.6827392578125 449.98370361328125 515.1776733398438 C 448.98614501953125 515.8841552734375 448.4786071777344 513.8877563476562 450.7396240234375 513.0838012695312 C 451.7654113769531 512.0285034179688 452.4729919433594 514.3575439453125 447.80999755859375 511.249755859375" stroke-width="0.0" fill="rgb(253, 253, 254)" opacity="0.9951369"/>
    <path d="M 281.2711486816406 267.83392333984375 C 278.8419189453125 269.2957458496094 276.8551940917969 266.86669921875 274.28875732421875 264.3677062988281 C 276.8444519042969 264.5953369140625 279.5210266113281 262.6083068847656 280.1431884765625 264.3033752441406 C 280.8528137207031 262.7446594238281 283.327392578125 264.12347412109375 284.34576416015625 267.62933349609375 C 281.8470458984375 268.9688720703125 279.42694091796875 266.9836730957031 281.2711486816406 267.83392333984375" stroke-width="0.0" fill="rgb(0, 0, 0)" opacity="1.0"/>
    <path d="M 230.0184783935547 480.0014953613281 C 230.28427124023438 477.84295654296875 231.4630126953125 479.4077453613281 232.5560302734375 478.91180419921875 C 231.3383026123047 479.61419677734375 230.02134704589844 477.1923522949219 230.01036071777344 474.88165283203125 C 229.82505798339844 473.14129638671875 231.15646362304688 474.5355224609375 230.4986572265625 474.194580078125 C 230.71522521972656 473.7953186035156 231.19224548339844 474.9353942871094 230.0184783935547 480.0014953613281" stroke-width="0.0" fill="rgb(252, 252, 252)" opacity="0.99551946"/>
    <path d="M 136.3018798828125 569.7101440429688 C 138.09559631347656 568.0907592773438 136.48873901367188 565.739990234375 135.71861267089844 565.0425415039062 C 134.14784240722656 563.1939697265625 133.92750549316406 563.4956665039062 132.423828125 565.189453125 C 132.42332458496094 565.1678466796875 131.59535217285156 566.08056640625 132.21762084960938 563.7869873046875 C 131.63876342773438 562.9482421875 129.85877990722656 562.656982421875 136.3018798828125 569.7101440429688" stroke-width="0.0" fill="rgb(254, 254, 254)" opacity="0.9923327"/>
    <path d="M 197.37515258789062 357.8836364746094 C 195.8872833251953 359.0745849609375 197.29969787597656 358.9524841308594 196.32774353027344 355.4988708496094 C 198.82081604003906 356.8040771484375 197.03135681152344 356.1166687011719 194.6760711669922 357.77276611328125 C 196.0433807373047 360.84423828125 193.92970275878906 362.02056884765625 190.37545776367188 360.59393310546875 C 191.81072998046875 358.0055236816406 190.79672241210938 360.1076354980469 197.37515258789062 357.8836364746094" stroke-width="0.0" fill="rgb(0, 0, 0)" opacity="1.0"/>
  </g>
</svg>
