<?xml version="1.0" ?>
<svg xmlns="http://www.w3.org/2000/svg" version="1.1" width="600" height="600">
  <defs/>
  <g>
    <path d="M 494.1236572265625 40.096473693847656 C 491.55218505859375 50.222129821777344 484.2248229980469 57.55790328979492 474.0927734375 60.100406646728516 C 464.0387878417969 57.288612365722656 456.724609375 49.95690155029297 453.85443115234375 39.86761474609375 C 455.9639587402344 29.041515350341797 462.0387268066406 19.56317901611328 471.10638427734375 15.362957954406738 C 483.9236755371094 22.76313591003418 491.2630920410156 30.057329177856445 494.1236572265625 40.096473693847656" stroke-width="0.0" fill="rgb(206, 204, 202)" opacity="0.95980597"/>
    <path d="M 586.3886108398438 298.7486267089844 C 583.3822631835938 309.0351867675781 576.0194091796875 316.3301086425781 565.1917114257812 319.6919250488281 C 551.1060180664062 320.4233093261719 537.8519897460938 318.06744384765625 535.2884521484375 305.6151123046875 C 543.8186645507812 285.5660705566406 554.5053100585938 280.53155517578125 567.5860595703125 275.2210998535156 C 578.0250244140625 278.7320556640625 584.3335571289062 287.58160400390625 586.3886108398438 298.7486267089844" stroke-width="0.0" fill="rgb(190, 190, 188)" opacity="0.73096603"/>
    <path d="M 163.3450469970703 577.6205444335938 C 152.88522338867188 607.9522705078125 139.52581787109375 612.3424072265625 110.56838989257812 613.8214111328125 C 81.556640625 610.4149780273438 70.49929809570312 604.1863403320312 62.404212951660156 580.6674194335938 C 81.6446762084961 557.9564819335938 96.20065307617188 555.793701171875 118.33534240722656 542.5560913085938 C 135.57069396972656 542.0286865234375 150.40419006347656 545.588134765625 163.3450469970703 577.6205444335938" stroke-width="0.0" fill="rgb(190, 189, 186)" opacity="0.8733438"/>
    <path d="M 72.68668365478516 265.04913330078125 C 71.32051086425781 274.0 64.0 281.32049560546875 54.00389862060547 283.9965515136719 C 44.01633834838867 281.306640625 36.712982177734375 273.97662353515625 32.08002853393555 262.0961608886719 C 31.01650047302246 248.0019989013672 35.80636978149414 236.58863830566406 46.21763229370117 232.07203674316406 C 60.0658073425293 251.90765380859375 68.68890380859375 256.8319091796875 72.68668365478516 265.04913330078125" stroke-width="0.0" fill="rgb(191, 189, 187)" opacity="0.72511494"/>
    <path d="M 388.2899169921875 479.92437744140625 C 398.39312744140625 498.71075439453125 391.4076232910156 501.9391784667969 367.89105224609375 491.4831848144531 C 346.93115234375 475.40966796875 339.6241760253906 468.04345703125 340.4423522949219 460.327880859375 C 342.8387756347656 452.00616455078125 349.72015380859375 448.3029479980469 348.0487365722656 457.97808837890625 C 361.7118225097656 454.76318359375 377.4656982421875 445.52093505859375 388.2899169921875 479.92437744140625" stroke-width="0.0" fill="rgb(91, 91, 91)" opacity="1.0"/>
    <path d="M 503.4448547363281 66.90731811523438 C 495.7192687988281 77.22135925292969 488.3102722167969 83.87871551513672 481.7994689941406 85.06897735595703 C 470.7725830078125 85.82920837402344 459.5325012207031 85.25581359863281 458.2119140625 74.48912811279297 C 464.72784423828125 61.04658508300781 472.04669189453125 53.73594284057617 482.3885803222656 50.81240463256836 C 493.64971923828125 52.447322845458984 503.9788513183594 58.37300491333008 503.4448547363281 66.90731811523438" stroke-width="0.0" fill="rgb(182, 180, 176)" opacity="0.6196991"/>
    <path d="M 44.24050521850586 188.3466339111328 C 45.442230224609375 197.7013397216797 38.868194580078125 205.33346557617188 28.285480499267578 208.8009033203125 C 16.904659271240234 207.30963134765625 9.396267890930176 200.17086791992188 8.054024696350098 189.01016235351562 C 11.501468658447266 177.77674865722656 18.351741790771484 169.50621032714844 27.37371063232422 161.96607971191406 C 38.39723587036133 171.02879333496094 44.79209518432617 178.75975036621094 44.24050521850586 188.3466339111328" stroke-width="0.0" fill="rgb(183, 181, 179)" opacity="1.0"/>
    <path d="M 329.4681701660156 581.6836547851562 C 321.274169921875 602.4557495117188 310.7905578613281 607.4470825195312 297.2218933105469 607.0879516601562 C 286.0225830078125 603.30322265625 278.7223815917969 595.9698486328125 276.02545166015625 585.9686279296875 C 278.5610046386719 575.7376708984375 284.95147705078125 566.4789428710938 298.6900939941406 556.5039672851562 C 315.5828552246094 559.2246704101562 325.38092041015625 565.3613891601562 329.4681701660156 581.6836547851562" stroke-width="0.0" fill="rgb(196, 194, 193)" opacity="0.95256805"/>
    <path d="M 92.98241424560547 336.0849914550781 C 93.83743286132812 335.4082946777344 93.11579895019531 347.9332580566406 81.78014373779297 355.9615783691406 C 69.59379577636719 368.636962890625 71.51316833496094 354.991943359375 82.30609130859375 345.8402099609375 C 84.1086196899414 338.6042175292969 90.77344512939453 332.5594177246094 78.45550537109375 333.7769775390625 C 86.62964630126953 332.55780029296875 96.02604675292969 335.4844665527344 92.98241424560547 336.0849914550781" stroke-width="0.0" fill="rgb(19, 19, 19)" opacity="0.93836814"/>
    <path d="M 53.974952697753906 391.2049865722656 C 54.82206726074219 407.3624572753906 49.950035095214844 416.68780517578125 39.09791946411133 422.19091796875 C 24.841453552246094 417.36114501953125 16.78995704650879 410.45916748046875 15.581058502197266 398.4878234863281 C 18.410818099975586 383.6304626464844 20.707181930541992 369.2998352050781 40.57425308227539 351.972412109375 C 63.31576156616211 362.8304748535156 62.98735809326172 374.2352600097656 53.974952697753906 391.2049865722656" stroke-width="0.0" fill="rgb(176, 174, 171)" opacity="0.6629239"/>
    <path d="M 371.0073547363281 0.004328884184360504 C 368.32867431640625 10.005654335021973 361.0046081542969 17.325700759887695 350.9892883300781 20.025938034057617 C 340.9535217285156 17.35840606689453 333.301025390625 10.143856048583984 330.0008850097656 0.3227158784866333 C 333.6746826171875 -10.001744270324707 341.0 -17.32052230834961 351.0 -20.0 C 361.0 -17.32050895690918 368.32049560546875 -10.0 371.0073547363281 0.004328884184360504" stroke-width="0.0" fill="rgb(210, 208, 205)" opacity="0.97091305"/>
    <path d="M 509.1672668457031 8.991108894348145 C 506.35858154296875 19.01923942565918 499.0043029785156 26.307161331176758 488.7392272949219 29.0642147064209 C 476.9745178222656 27.609683990478516 466.2151794433594 22.67585563659668 455.0649108886719 6.241257667541504 C 465.18658447265625 -5.778595924377441 477.21356201171875 -9.618133544921875 488.8403015136719 -11.118419647216797 C 499.0028076171875 -8.322511672973633 506.33135986328125 -1.0054137706756592 509.1672668457031 8.991108894348145" stroke-width="0.0" fill="rgb(207, 205, 203)" opacity="0.94811064"/>
    <path d="M 343.0241394042969 531.9660034179688 C 340.3086853027344 541.9909057617188 332.994384765625 549.3198852539062 323.00152587890625 552.0096435546875 C 313.0 549.3204956054688 305.6805419921875 542.0 300.4156188964844 529.4630737304688 C 297.6832580566406 513.7698364257812 302.13104248046875 502.6932067871094 317.10003662109375 497.5090637207031 C 334.4107666015625 512.2090454101562 340.5565490722656 521.6386108398438 343.0241394042969 531.9660034179688" stroke-width="0.0" fill="rgb(194, 193, 191)" opacity="0.95810795"/>
    <path d="M 312.5784606933594 65.1652603149414 C 307.6333923339844 84.87383270263672 297.5636901855469 90.55802917480469 269.5144348144531 92.7647705078125 C 244.84939575195312 93.28059387207031 232.69883728027344 88.63182067871094 225.291259765625 65.68257141113281 C 243.32272338867188 37.30535888671875 250.26644897460938 25.971532821655273 269.4294738769531 16.75979232788086 C 293.190185546875 29.86243438720703 301.51495361328125 39.137813568115234 312.5784606933594 65.1652603149414" stroke-width="0.0" fill="rgb(200, 196, 194)" opacity="0.7830338"/>
    <path d="M 600.6571044921875 262.3554382324219 C 573.844482421875 284.9989318847656 562.71337890625 289.7080078125 547.9469604492188 298.2994689941406 C 539.8197021484375 294.64019775390625 537.9534912109375 284.2626647949219 544.399658203125 277.12982177734375 C 545.1607666015625 267.32977294921875 544.8155517578125 253.58529663085938 553.8541259765625 223.6771697998047 C 582.553466796875 231.27728271484375 592.2810668945312 240.91506958007812 600.6571044921875 262.3554382324219" stroke-width="0.0" fill="rgb(182, 181, 178)" opacity="0.7106538"/>
    <path d="M 588.877197265625 403.1043395996094 C 593.3399658203125 420.9456787109375 587.2637329101562 431.8767395019531 564.697509765625 436.0597839355469 C 542.6568603515625 424.1617736816406 544.8236694335938 411.8546447753906 548.5831909179688 400.7398986816406 C 550.6766357421875 388.2236022949219 549.7432250976562 374.00439453125 556.160888671875 366.3215637207031 C 571.6262817382812 375.95245361328125 577.76171875 385.2182922363281 588.877197265625 403.1043395996094" stroke-width="0.0" fill="rgb(176, 174, 172)" opacity="0.72028524"/>
    <path d="M 281.7897033691406 479.7049865722656 C 281.6494140625 496.74847412109375 272.44573974609375 504.6007995605469 243.15447998046875 513.7164916992188 C 219.72781372070312 509.24365234375 214.37704467773438 499.0889587402344 225.0911102294922 480.5311279296875 C 234.92825317382812 466.41705322265625 243.238525390625 460.78021240234375 251.88975524902344 455.94061279296875 C 259.6361389160156 453.6101989746094 267.7858581542969 460.6268005371094 281.7897033691406 479.7049865722656" stroke-width="0.0" fill="rgb(193, 191, 189)" opacity="0.9016266"/>
    <path d="M 468.5758361816406 75.2933349609375 C 465.4858093261719 84.30953216552734 455.4905090332031 89.25957489013672 448.5039367675781 87.1781005859375 C 438.8009033203125 84.30011749267578 428.09210205078125 80.3927230834961 419.8373107910156 72.63176727294922 C 424.97607421875 61.116943359375 433.776611328125 54.857688903808594 444.73046875 52.81150436401367 C 454.9117736816406 55.785560607910156 462.22137451171875 63.092430114746094 468.5758361816406 75.2933349609375" stroke-width="0.0" fill="rgb(193, 190, 186)" opacity="0.67360073"/>
    <path d="M 72.61438751220703 575.6517944335938 C 68.20002746582031 585.300048828125 55.231632232666016 588.2169799804688 39.3421630859375 585.4412231445312 C 27.001018524169922 580.3189697265625 19.681310653686523 573.0 17.043916702270508 562.9898071289062 C 19.67156219482422 552.9813232421875 26.95454978942871 545.5792236328125 36.89877700805664 542.91015625 C 47.007198333740234 545.6856079101562 54.27145767211914 553.0165405273438 72.61438751220703 575.6517944335938" stroke-width="0.0" fill="rgb(194, 192, 190)" opacity="0.95882165"/>
    <path d="M 31.99836540222168 582.0 C 29.3183650970459 591.99658203125 21.995534896850586 599.3147583007812 12.145210266113281 601.773681640625 C 2.21262264251709 599.0165405273438 -5.204172611236572 591.842529296875 -8.099017143249512 581.82958984375 C -5.77105188369751 571.4872436523438 1.427129864692688 564.0269165039062 11.73895263671875 561.5469970703125 C 22.008081436157227 564.6591796875 29.320762634277344 571.997314453125 31.99836540222168 582.0" stroke-width="0.0" fill="rgb(200, 199, 196)" opacity="0.98281044"/>
    <path d="M 268.0043640136719 534.082275390625 C 265.8416748046875 544.9561767578125 260.4641418457031 555.5388793945312 241.90176391601562 570.7088012695312 C 226.0474853515625 565.2184448242188 222.47824096679688 554.1304321289062 218.2554473876953 525.5304565429688 C 216.28465270996094 510.0426330566406 228.08349609375 506.61480712890625 245.1552734375 510.9365539550781 C 257.9892272949219 516.690185546875 265.2970886230469 524.0140380859375 268.0043640136719 534.082275390625" stroke-width="0.0" fill="rgb(188, 187, 184)" opacity="0.71559393"/>
    <path d="M 63.721885681152344 328.9486999511719 C 58.66462707519531 346.3493347167969 52.526641845703125 358.6160583496094 28.136154174804688 368.6770935058594 C 0.9471774101257324 358.912353515625 -7.338893890380859 349.7651672363281 -13.189062118530273 323.43353271484375 C -6.6726250648498535 297.4788818359375 1.5208063125610352 288.6646728515625 15.84054183959961 287.7146301269531 C 38.17873764038086 305.6302795410156 47.566680908203125 311.8602600097656 63.721885681152344 328.9486999511719" stroke-width="0.0" fill="rgb(198, 197, 194)" opacity="0.9125139"/>
    <path d="M 268.9292297363281 25.916610717773438 C 256.03558349609375 51.8161735534668 249.7653350830078 64.4902572631836 222.78599548339844 81.9797592163086 C 196.29812622070312 69.37751007080078 187.86404418945312 58.70649719238281 179.5236053466797 32.03459167480469 C 189.0968475341797 1.808939814567566 198.83541870117188 -6.215475559234619 227.14157104492188 -12.74946403503418 C 253.1697998046875 -5.949459552764893 262.1229248046875 2.9377167224884033 268.9292297363281 25.916610717773438" stroke-width="0.0" fill="rgb(205, 202, 199)" opacity="0.93107325"/>
    <path d="M 264.2163391113281 591.0993041992188 C 255.8125457763672 605.4317626953125 243.54319763183594 609.0125732421875 229.67645263671875 610.090576171875 C 213.5017547607422 611.5306396484375 195.94044494628906 612.6957397460938 181.6860809326172 589.3098754882812 C 189.16294860839844 556.5748901367188 198.27586364746094 547.865966796875 221.34361267089844 544.8307495117188 C 251.16944885253906 558.0053100585938 257.25250244140625 568.9772338867188 264.2163391113281 591.0993041992188" stroke-width="0.0" fill="rgb(192, 190, 187)" opacity="0.82867086"/>
    <path d="M 611.2476806640625 586.4171752929688 C 601.99951171875 605.7536010742188 589.7399291992188 609.2653198242188 573.6533813476562 608.51416015625 C 559.7826538085938 606.3848266601562 552.1162719726562 599.3978271484375 551.4076538085938 587.5443115234375 C 555.6727905273438 575.9952392578125 562.9959716796875 568.6743774414062 573.9852905273438 565.182373046875 C 588.2621459960938 564.3317260742188 601.116455078125 567.283447265625 611.2476806640625 586.4171752929688" stroke-width="0.0" fill="rgb(191, 190, 188)" opacity="0.9170784"/>
    <path d="M 607.6665649414062 346.275634765625 C 587.8876953125 368.96893310546875 577.9177856445312 375.6352844238281 565.2130126953125 381.9144287109375 C 554.8683471679688 374.1842346191406 549.0728759765625 364.34234619140625 529.6702270507812 346.7928466796875 C 534.0620727539062 332.7804870605469 546.70361328125 329.5472717285156 564.8917236328125 330.2851257324219 C 583.2727661132812 329.9871826171875 597.2649536132812 332.1536560058594 607.6665649414062 346.275634765625" stroke-width="0.0" fill="rgb(188, 188, 186)" opacity="0.7307319"/>
    <path d="M 54.648868560791016 439.18206787109375 C 48.86781692504883 454.3882751464844 39.92475891113281 462.7839660644531 4.950752258300781 480.2232971191406 C -7.907486915588379 467.98394775390625 -6.871246337890625 451.1541748046875 -2.8419318199157715 434.3631896972656 C 1.358123779296875 422.53985595703125 8.062833786010742 413.9856262207031 21.414737701416016 405.1417236328125 C 32.45547103881836 411.2232360839844 40.26146697998047 419.6089782714844 54.648868560791016 439.18206787109375" stroke-width="0.0" fill="rgb(196, 194, 191)" opacity="0.9446638"/>
    <path d="M 35.57085037231445 172.4138946533203 C 25.485797882080078 188.22207641601562 18.72800636291504 196.68663024902344 4.4877495765686035 208.11549377441406 C -4.616002559661865 199.19491577148438 -9.923200607299805 188.88363647460938 -12.231941223144531 177.83175659179688 C -11.282576560974121 165.44595336914062 -8.799881935119629 152.10726928710938 11.905564308166504 142.32754516601562 C 34.74988555908203 143.9680633544922 40.45130920410156 154.52291870117188 35.57085037231445 172.4138946533203" stroke-width="0.0" fill="rgb(194, 192, 190)" opacity="0.78116024"/>
    <path d="M 25.562667846679688 403.0646667480469 C 23.31393814086914 413.9644775390625 14.31085205078125 420.2112731933594 2.081277847290039 421.21417236328125 C -9.002948760986328 417.3280944824219 -16.320636749267578 410.0 -19.0 400.0 C -16.32050895690918 390.0 -9.00085163116455 382.6766357421875 1.0341403484344482 379.8246154785156 C 11.061328887939453 382.6089172363281 18.360265731811523 389.94976806640625 25.562667846679688 403.0646667480469" stroke-width="0.0" fill="rgb(200, 198, 196)" opacity="0.9813484"/>
    <path d="M 605.8495483398438 453.1096496582031 C 595.9304809570312 484.6640625 585.8746948242188 493.81170654296875 559.9241943359375 501.4222412109375 C 530.4647216796875 479.25372314453125 524.12646484375 467.2667236328125 525.9613037109375 453.83294677734375 C 537.1923828125 437.71673583984375 538.8412475585938 422.5932312011719 549.2063598632812 407.79779052734375 C 580.336669921875 412.8601989746094 593.9940185546875 417.3152770996094 605.8495483398438 453.1096496582031" stroke-width="0.0" fill="rgb(193, 192, 190)" opacity="0.9198826"/>
    <path d="M 108.0135498046875 542.10107421875 C 105.37439727783203 552.028564453125 98.01937103271484 559.3392333984375 84.93763732910156 566.5169677734375 C 74.64384460449219 564.05908203125 69.0918960571289 554.1923828125 67.49011993408203 542.3021850585938 C 70.4236068725586 531.7208862304688 77.71890258789062 524.425048828125 88.0320053100586 521.9293212890625 C 98.05673217773438 524.5663452148438 105.29940795898438 531.982666015625 108.0135498046875 542.10107421875" stroke-width="0.0" fill="rgb(200, 199, 196)" opacity="0.9383591"/>
    <path d="M 524.985107421875 571.1077270507812 C 522.0950927734375 585.556640625 515.7118530273438 597.809326171875 489.5279846191406 608.1427612304688 C 479.65606689453125 585.3085327148438 480.74884033203125 569.8806762695312 486.1552429199219 562.8511962890625 C 481.2774353027344 556.779052734375 487.55035400390625 551.140625 499.9193420410156 539.4532470703125 C 504.2807922363281 541.4913940429688 510.2829284667969 551.818115234375 524.985107421875 571.1077270507812" stroke-width="0.0" fill="rgb(201, 200, 198)" opacity="0.8056063"/>
    <path d="M 104.03951263427734 331.7906188964844 C 92.28631591796875 350.41363525390625 81.37627410888672 352.6264343261719 69.18011474609375 367.26885986328125 C 55.222267150878906 380.48016357421875 42.596038818359375 371.7501220703125 35.59745407104492 349.5975036621094 C 46.19126510620117 323.7057800292969 53.58610534667969 313.7952575683594 84.18628692626953 305.9405517578125 C 97.55200958251953 315.74603271484375 105.01248931884766 324.482421875 104.03951263427734 331.7906188964844" stroke-width="0.0" fill="rgb(167, 166, 163)" opacity="0.5023229"/>
    <path d="M 598.0743408203125 76.0771255493164 C 596.2225341796875 84.9805908203125 589.2686767578125 91.03118133544922 586.75048828125 87.05268859863281 C 577.2655029296875 86.39850616455078 567.6026000976562 83.17289733886719 552.7000122070312 69.13127899169922 C 555.1976318359375 61.59870529174805 568.3383178710938 59.77809524536133 580.8312377929688 59.280494689941406 C 590.587890625 60.18195343017578 597.674560546875 67.44374084472656 598.0743408203125 76.0771255493164" stroke-width="0.0" fill="rgb(212, 212, 212)" opacity="0.7480106"/>
    <path d="M 76.56952667236328 304.4939880371094 C 75.65988159179688 319.4034118652344 67.98025512695312 328.4526672363281 54.27653884887695 330.24176025390625 C 35.91714859008789 315.42669677734375 28.340341567993164 308.17474365234375 17.53678321838379 295.2398986816406 C 25.468379974365234 286.14788818359375 35.19089126586914 280.20697021484375 45.911865234375 277.9009704589844 C 56.01046371459961 280.6776428222656 63.56205749511719 287.9163818359375 76.56952667236328 304.4939880371094" stroke-width="0.0" fill="rgb(202, 200, 198)" opacity="1.0"/>
    <path d="M 619.0 29.0 C 616.320556640625 39.000877380371094 609.0142211914062 46.365379333496094 599.6595458984375 49.6776123046875 C 589.5285034179688 44.856056213378906 579.7876586914062 38.994834899902344 570.0872802734375 30.543212890625 C 580.1678466796875 18.245609283447266 588.7749633789062 11.523832321166992 598.9659423828125 8.97968864440918 C 609.0 11.67982292175293 616.3204956054688 19.0 619.0 29.0" stroke-width="0.0" fill="rgb(205, 203, 201)" opacity="0.9508556"/>
    <path d="M 609.57373046875 326.93212890625 C 598.9151611328125 346.7971496582031 585.093994140625 349.2747497558594 566.207275390625 348.29443359375 C 547.5932006835938 347.8527526855469 535.0840454101562 344.40521240234375 530.5830688476562 324.5218200683594 C 537.8817138671875 304.1375732421875 550.3674926757812 300.8185119628906 565.095947265625 301.843505859375 C 578.1663208007812 304.0904541015625 591.9772338867188 306.3398132324219 609.57373046875 326.93212890625" stroke-width="0.0" fill="rgb(194, 194, 192)" opacity="0.82837147"/>
    <path d="M 162.2669677734375 72.27702331542969 C 153.8622283935547 82.67949676513672 145.0049591064453 86.90533447265625 136.84368896484375 85.98833465576172 C 133.9815673828125 86.96200561523438 125.32191467285156 82.15314483642578 96.38380432128906 63.6119384765625 C 100.91572570800781 46.6555061340332 110.37236022949219 37.434112548828125 136.68032836914062 31.719661712646484 C 161.08518981933594 44.78903579711914 165.2969207763672 56.81342315673828 162.2669677734375 72.27702331542969" stroke-width="0.0" fill="rgb(200, 198, 195)" opacity="0.80993885"/>
    <path d="M 558.1472778320312 485.1539001464844 C 553.35302734375 501.43914794921875 541.112548828125 506.34759521484375 517.6326904296875 506.999755859375 C 502.07391357421875 497.9243469238281 499.84954833984375 485.0852966308594 499.8706970214844 474.91644287109375 C 501.9791259765625 467.8062438964844 510.88177490234375 464.4520568847656 524.262451171875 460.79150390625 C 531.105224609375 450.7977600097656 538.7938232421875 458.5989685058594 558.1472778320312 485.1539001464844" stroke-width="0.0" fill="rgb(204, 204, 203)" opacity="0.6871926"/>
    <path d="M 517.0308837890625 39.33624267578125 C 511.2026062011719 47.76369094848633 506.84210205078125 58.46881866455078 501.9384460449219 67.87154388427734 C 487.27581787109375 59.24930953979492 480.2908935546875 51.46026611328125 478.1266784667969 41.14057922363281 C 480.715087890625 31.015193939208984 488.0072326660156 23.686513900756836 498.006103515625 21.001405715942383 C 508.0067443847656 23.671417236328125 515.3392333984375 30.990007400512695 517.0308837890625 39.33624267578125" stroke-width="0.0" fill="rgb(205, 203, 201)" opacity="0.7532189"/>
    <path d="M 434.3761291503906 66.02987670898438 C 432.82861328125 79.48655700683594 425.5036926269531 86.58050537109375 405.8281555175781 86.64159393310547 C 386.2833251953125 87.8446044921875 377.648193359375 81.86164855957031 377.8682556152344 68.10413360595703 C 389.70538330078125 51.011756896972656 397.00848388671875 43.701805114746094 407.0663757324219 41.032188415527344 C 417.04144287109375 43.610191345214844 424.3743591308594 50.950809478759766 434.3761291503906 66.02987670898438" stroke-width="0.0" fill="rgb(186, 184, 180)" opacity="0.66875774"/>
    <path d="M 561.2908935546875 539.6967163085938 C 549.9013671875 564.3129272460938 541.0397338867188 572.1419677734375 523.2294311523438 578.8216552734375 C 505.8102722167969 567.9581909179688 499.8377685546875 557.57958984375 492.9247131347656 544.2789916992188 C 502.3373107910156 533.2893676757812 510.8690185546875 526.6162109375 521.6928100585938 523.5324096679688 C 535.9236450195312 522.75244140625 550.7174682617188 524.1286010742188 561.2908935546875 539.6967163085938" stroke-width="0.0" fill="rgb(195, 194, 192)" opacity="0.9989837"/>
    <path d="M 38.9930534362793 561.00390625 C 36.32025146484375 571.0 28.999786376953125 578.3204956054688 18.99937629699707 581.0022583007812 C 9.006686210632324 578.3145751953125 1.6100351810455322 571.010986328125 -6.362186431884766 556.7373657226562 C -6.629490852355957 542.9871826171875 1.0639536380767822 535.2742919921875 14.68598461151123 536.2710571289062 C 28.91868019104004 543.8251342773438 36.29840087890625 551.0332641601562 38.9930534362793 561.00390625" stroke-width="0.0" fill="rgb(195, 193, 191)" opacity="0.93540514"/>
    <path d="M 416.5310363769531 541.0009155273438 C 419.5084228515625 553.9114379882812 407.6748352050781 557.6702270507812 393.261474609375 556.6976318359375 C 382.01739501953125 553.2825927734375 374.68707275390625 545.9916381835938 364.6187744140625 529.68408203125 C 361.486328125 512.9577026367188 367.18328857421875 501.99688720703125 384.5167236328125 494.0271301269531 C 405.18212890625 512.0280151367188 411.259765625 522.7881469726562 416.5310363769531 541.0009155273438" stroke-width="0.0" fill="rgb(179, 178, 177)" opacity="0.7680217"/>
    <path d="M 450.6157531738281 42.39409637451172 C 448.2160949707031 52.864139556884766 440.8310546875 60.209869384765625 430.2866516113281 61.640037536621094 C 420.0369873046875 59.27822494506836 412.7138366699219 51.9660530090332 407.6771240234375 40.04594802856445 C 408.41705322265625 28.35675621032715 416.41015625 21.73235321044922 429.5715637207031 20.82308006286621 C 440.1276550292969 24.334985733032227 447.320556640625 31.98679542541504 450.6157531738281 42.39409637451172" stroke-width="0.0" fill="rgb(206, 203, 201)" opacity="0.8371178"/>
    <path d="M 314.76904296875 2.4571943283081055 C 308.2304992675781 12.953764915466309 301.598876953125 22.076526641845703 282.5906677246094 37.31981658935547 C 266.6353759765625 33.189125061035156 256.3426818847656 25.9176082611084 248.7418670654297 3.597658634185791 C 269.4705810546875 -10.74783992767334 279.67523193359375 -15.610835075378418 289.9894714355469 -18.011199951171875 C 300.0348815917969 -15.339710235595703 307.7281494140625 -8.22756290435791 314.76904296875 2.4571943283081055" stroke-width="0.0" fill="rgb(209, 206, 204)" opacity="0.9426423"/>
    <path d="M 366.88958740234375 467.7905578613281 C 361.40545654296875 477.21099853515625 352.2037048339844 483.4311828613281 342.00360107421875 485.997802734375 C 332.0 483.32049560546875 324.67950439453125 476.0 323.8649597167969 467.7303161621094 C 328.1818542480469 459.4895324707031 335.23284912109375 452.3013610839844 348.6317443847656 441.807861328125 C 359.18695068359375 441.2077941894531 364.0296325683594 449.5050964355469 366.88958740234375 467.7905578613281" stroke-width="0.0" fill="rgb(255, 255, 255)" opacity="0.7789821"/>
    <path d="M 293.3619079589844 512.9991455078125 C 271.5614929199219 536.0839233398438 263.9998474121094 543.3096313476562 253.5737762451172 546.6918334960938 C 243.2988739013672 544.2076416015625 235.66050720214844 537.0036010742188 219.14013671875 516.420654296875 C 216.96478271484375 499.7763977050781 227.0155487060547 492.2214050292969 260.13916015625 483.84735107421875 C 283.7701721191406 487.1217956542969 292.0673522949219 496.5326843261719 293.3619079589844 512.9991455078125" stroke-width="0.0" fill="rgb(197, 196, 194)" opacity="0.9776362"/>
    <path d="M 568.131103515625 17.06134605407715 C 565.8251342773438 27.578672409057617 561.3734741210938 38.384883880615234 547.9606323242188 52.20039367675781 C 526.9991455078125 45.741180419921875 520.8895874023438 36.417503356933594 522.0662231445312 19.09959602355957 C 525.986328125 2.237070322036743 532.8359985351562 -5.7410502433776855 545.537841796875 -5.767213344573975 C 558.0164184570312 -0.3497557044029236 565.3179931640625 6.994438171386719 568.131103515625 17.06134605407715" stroke-width="0.0" fill="rgb(204, 202, 200)" opacity="0.72892034"/>
    <path d="M 150.75527954101562 533.2078857421875 C 161.36204528808594 550.6005249023438 156.15309143066406 561.6696166992188 136.4881591796875 566.1889038085938 C 110.33426666259766 548.0617065429688 104.43476867675781 537.4696655273438 103.16290283203125 524.7228393554688 C 109.3344497680664 515.4295043945312 119.12799835205078 513.7042236328125 126.28294372558594 518.4523315429688 C 130.38461303710938 513.7020263671875 137.14039611816406 518.7794189453125 150.75527954101562 533.2078857421875" stroke-width="0.0" fill="rgb(192, 190, 187)" opacity="0.8176462"/>
    <path d="M 83.19102478027344 596.5950317382812 C 61.665489196777344 611.3907470703125 49.59857940673828 614.80859375 39.022117614746094 617.01806640625 C 29.001296997070312 614.3204956054688 21.695674896240234 606.9945678710938 19.08169937133789 596.9725952148438 C 21.679290771484375 587.0 29.00039291381836 579.6799926757812 42.574275970458984 572.9592895507812 C 59.52912902832031 569.37890625 72.56294250488281 572.8427734375 83.19102478027344 596.5950317382812" stroke-width="0.0" fill="rgb(195, 194, 191)" opacity="0.9663183"/>
    <path d="M 378.8010559082031 515.7369384765625 C 363.7883605957031 533.272705078125 354.3570251464844 539.498291015625 344.0359802246094 541.999755859375 C 333.958984375 539.349853515625 326.603271484375 532.0565795898438 320.9806213378906 519.6393432617188 C 321.0915832519531 506.7784118652344 328.3450622558594 498.6065979003906 341.158203125 497.06182861328125 C 358.34716796875 501.12359619140625 370.67169189453125 504.72528076171875 378.8010559082031 515.7369384765625" stroke-width="0.0" fill="rgb(197, 196, 194)" opacity="0.9921641"/>
    <path d="M 21.166824340820312 428.8255920410156 C 18.536251068115234 439.4264221191406 12.46728515625 449.023681640625 3.4887852668762207 459.849609375 C -9.407509803771973 446.9032897949219 -16.348039627075195 439.0367431640625 -19.000680923461914 429.0007629394531 C -16.32050895690918 419.0 -8.99942398071289 411.6814880371094 1.2866605520248413 408.8316345214844 C 11.685463905334473 410.9346923828125 18.894323348999023 418.37188720703125 21.166824340820312 428.8255920410156" stroke-width="0.0" fill="rgb(200, 199, 196)" opacity="0.9173399"/>
    <path d="M 298.2915954589844 549.007080078125 C 297.09442138671875 561.240478515625 288.63372802734375 567.576171875 276.07080078125 567.8208618164062 C 264.32672119140625 564.6254272460938 255.51962280273438 558.2863159179688 252.50851440429688 548.29345703125 C 257.4383850097656 536.7940673828125 264.7440185546875 529.2894897460938 280.6716613769531 517.50341796875 C 290.4068603515625 522.3744506835938 294.9166564941406 533.5889282226562 298.2915954589844 549.007080078125" stroke-width="0.0" fill="rgb(197, 196, 193)" opacity="0.97817445"/>
    <path d="M 364.9942321777344 35.007232666015625 C 362.32049560546875 45.00030517578125 355.00152587890625 52.325069427490234 344.8104248046875 55.34444808959961 C 334.6812744140625 52.7318000793457 327.4269714355469 45.2700309753418 324.9013671875 35.07847213745117 C 327.6695556640625 24.992876052856445 334.9936218261719 17.67238998413086 344.9637756347656 15.035719871520996 C 354.9488525390625 17.750328063964844 362.29254150390625 25.038372039794922 364.9942321777344 35.007232666015625" stroke-width="0.0" fill="rgb(207, 205, 202)" opacity="0.9920498"/>
    <path d="M 392.0881042480469 4.862818241119385 C 389.3805236816406 21.44993019104004 383.53240966796875 31.061086654663086 371.2447204589844 31.878040313720703 C 356.0313415527344 22.288663864135742 348.7093200683594 14.971538543701172 346.1557312011719 5.058304786682129 C 348.71820068359375 -4.984084606170654 356.00579833984375 -12.31795597076416 366.00830078125 -15.003572463989258 C 376.20697021484375 -12.412975311279297 384.9649658203125 -5.776787757873535 392.0881042480469 4.862818241119385" stroke-width="0.0" fill="rgb(210, 208, 205)" opacity="1.0"/>
    <path d="M 343.022216796875 482.0203857421875 C 340.44451904296875 492.161376953125 333.6579284667969 500.4365234375 313.4577331542969 516.7145385742188 C 298.9410095214844 513.8403930664062 294.1283264160156 502.5804138183594 298.3926086425781 485.75054931640625 C 305.6780700683594 471.9893798828125 312.947265625 464.450927734375 321.9794006347656 462.80145263671875 C 332.92218017578125 464.901611328125 340.3211364746094 472.00653076171875 343.022216796875 482.0203857421875" stroke-width="0.0" fill="rgb(194, 193, 191)" opacity="0.8590156"/>
    <path d="M 47.36212158203125 268.6714172363281 C 44.33254623413086 279.01715087890625 37.14060592651367 286.733154296875 16.21070671081543 304.4402160644531 C 1.0386523008346558 303.279541015625 -7.332873344421387 294.47930908203125 -8.52822208404541 276.84271240234375 C 8.328031539916992 258.0314025878906 16.86041259765625 251.59603881835938 29.743671417236328 244.86558532714844 C 39.87504577636719 247.626708984375 45.714088439941406 257.2140808105469 47.36212158203125 268.6714172363281" stroke-width="0.0" fill="rgb(202, 200, 197)" opacity="1.0"/>
    <path d="M 61.19371032714844 215.2408447265625 C 58.677677154541016 224.42909240722656 52.2854118347168 234.27410888671875 40.73674011230469 244.30703735351562 C 28.647436141967773 235.27444458007812 23.153770446777344 225.01097106933594 21.062763214111328 214.11595153808594 C 23.881134033203125 204.22511291503906 31.270946502685547 197.0521240234375 41.13555145263672 194.57247924804688 C 50.867469787597656 196.86050415039062 57.42225646972656 204.4385223388672 61.19371032714844 215.2408447265625" stroke-width="0.0" fill="rgb(248, 248, 247)" opacity="0.61678666"/>
    <path d="M 125.48261260986328 545.3716430664062 C 115.53665161132812 558.2831420898438 104.43805694580078 563.1744384765625 84.95393371582031 575.51123046875 C 75.47584533691406 571.349853515625 72.05705261230469 559.1243286132812 72.34284210205078 545.6917724609375 C 75.67513275146484 534.9979858398438 83.00083923339844 527.6842041015625 93.31824493408203 524.762939453125 C 104.85348510742188 526.2725219726562 115.18274688720703 531.6022338867188 125.48261260986328 545.3716430664062" stroke-width="0.0" fill="rgb(197, 196, 193)" opacity="0.9928106"/>
    <path d="M 603.9521484375 571.6846923828125 C 593.9188842773438 579.5778198242188 582.0001831054688 583.5989379882812 570.2059326171875 585.111083984375 C 559.8320922851562 582.4193115234375 551.001953125 576.0371704101562 535.8827514648438 559.1301879882812 C 540.57763671875 543.378662109375 548.9026489257812 534.9598388671875 563.0909423828125 535.5739135742188 C 580.066650390625 547.5960693359375 587.4603271484375 554.8983764648438 603.9521484375 571.6846923828125" stroke-width="0.0" fill="rgb(196, 195, 193)" opacity="1.0"/>
    <path d="M 472.610595703125 23.011926651000977 C 463.3241271972656 37.98382568359375 455.95281982421875 45.22007751464844 445.8857421875 47.81254577636719 C 436.0078430175781 45.341793060302734 428.8738098144531 37.96430206298828 431.1702575683594 29.867202758789062 C 433.138671875 18.219938278198242 433.9866638183594 4.284107208251953 447.5158996582031 -9.497993469238281 C 467.332275390625 -2.639275550842285 473.4100341796875 7.9931511878967285 472.610595703125 23.011926651000977" stroke-width="0.0" fill="rgb(207, 204, 202)" opacity="0.922995"/>
    <path d="M 84.72063446044922 545.4166259765625 C 87.20003509521484 560.6320190429688 84.56554412841797 573.6738891601562 70.64006805419922 584.0890502929688 C 52.938385009765625 563.4326782226562 46.6280517578125 554.13916015625 38.334991455078125 539.50341796875 C 36.237464904785156 523.7050170898438 41.12605667114258 511.37109375 57.683353424072266 501.7635498046875 C 77.83491516113281 520.6718139648438 82.1440200805664 532.3995971679688 84.72063446044922 545.4166259765625" stroke-width="0.0" fill="rgb(196, 195, 192)" opacity="0.97904044"/>
    <path d="M 96.5365219116211 287.0417785644531 C 95.20244598388672 296.3890686035156 94.09635162353516 310.476806640625 83.1360855102539 325.427978515625 C 65.17540740966797 317.2396240234375 60.319000244140625 305.9091491699219 61.12809371948242 291.5482482910156 C 66.68107604980469 279.0047607421875 74.0152587890625 271.7254943847656 83.29475402832031 270.2486572265625 C 92.54277038574219 273.2294616699219 99.45506286621094 280.2890319824219 96.5365219116211 287.0417785644531" stroke-width="0.0" fill="rgb(199, 198, 196)" opacity="0.832329"/>
    <path d="M 105.22826385498047 286.554443359375 C 102.60185241699219 297.01800537109375 95.9840316772461 305.3575134277344 89.46614074707031 295.1003723144531 C 79.03177642822266 296.3425598144531 71.08106994628906 291.7151794433594 66.52043151855469 284.5099182128906 C 67.7071762084961 276.0488586425781 75.10308837890625 268.86907958984375 85.8413314819336 264.7887268066406 C 95.49261474609375 267.7808837890625 102.87030792236328 275.6022644042969 105.22826385498047 286.554443359375" stroke-width="0.0" fill="rgb(255, 255, 255)" opacity="0.56172615"/>
    <path d="M 362.01446533203125 552.9972534179688 C 359.32891845703125 563.009033203125 352.0067138671875 570.3244018554688 338.3919372558594 576.76806640625 C 323.377685546875 578.6017456054688 313.6702575683594 572.8533325195312 312.9945068359375 560.1673583984375 C 324.8269348144531 543.1622314453125 332.1900634765625 535.9190673828125 342.0213317871094 533.5679931640625 C 351.9397888183594 535.8078002929688 359.31878662109375 543.02392578125 362.01446533203125 552.9972534179688" stroke-width="0.0" fill="rgb(197, 196, 194)" opacity="1.0"/>
    <path d="M 395.8379821777344 592.9738159179688 C 386.15850830078125 606.58251953125 373.896728515625 610.5224609375 362.1668701171875 612.1055908203125 C 351.9938659667969 609.3234252929688 344.6502990722656 602.013671875 341.93731689453125 592.0386352539062 C 344.6667785644531 581.9903564453125 351.9935607910156 574.6765747070312 363.02093505859375 571.0830078125 C 376.16351318359375 571.2294311523438 386.938720703125 576.098388671875 395.8379821777344 592.9738159179688" stroke-width="0.0" fill="rgb(196, 194, 193)" opacity="0.9628525"/>
    <path d="M 359.3819885253906 473.39373779296875 C 354.50244140625 485.1445617675781 347.1209716796875 492.4350280761719 337.0268249511719 495.05523681640625 C 326.98773193359375 492.3404235839844 319.6742858886719 485.0080871582031 317.2874450683594 475.2939758300781 C 320.42529296875 465.6213684082031 327.51611328125 457.5220947265625 337.83294677734375 457.08935546875 C 349.6351623535156 455.0841064453125 357.6919250488281 461.8552551269531 359.3819885253906 473.39373779296875" stroke-width="0.0" fill="rgb(195, 194, 193)" opacity="0.94358116"/>
    <path d="M 89.09333801269531 39.19240951538086 C 66.27542877197266 52.200439453125 57.466514587402344 64.0220947265625 40.45904541015625 85.43087768554688 C 20.51527214050293 77.96623229980469 14.473236083984375 65.15184783935547 14.309639930725098 49.61348342895508 C 26.060989379882812 27.47977638244629 28.00891876220703 12.903233528137207 48.20488357543945 -6.823086738586426 C 71.75706481933594 4.672055721282959 79.01004791259766 16.14301300048828 89.09333801269531 39.19240951538086" stroke-width="0.0" fill="rgb(197, 195, 193)" opacity="0.84916407"/>
    <path d="M 46.4658088684082 239.47865295410156 C 28.863418579101562 259.3757019042969 21.0823974609375 266.4056396484375 8.240004539489746 273.09381103515625 C -2.115126132965088 270.6607360839844 -7.7087860107421875 260.9233703613281 -9.272927284240723 249.2208251953125 C -6.569769382476807 238.69857788085938 0.6538501381874084 231.28326416015625 11.204263687133789 228.73834228515625 C 23.82893180847168 229.55738830566406 36.72739791870117 232.40496826171875 46.4658088684082 239.47865295410156" stroke-width="0.0" fill="rgb(204, 201, 199)" opacity="0.9969748"/>
    <path d="M 424.7535095214844 590.20947265625 C 426.89788818359375 599.3287353515625 420.636474609375 607.106201171875 410.64251708984375 610.2014770507812 C 398.4306335449219 609.1571655273438 386.7378845214844 605.051025390625 378.13787841796875 591.649169921875 C 389.1001281738281 577.1983032226562 399.5511169433594 571.161376953125 415.46551513671875 558.948486328125 C 423.4022216796875 566.3482055664062 425.99395751953125 578.7489624023438 424.7535095214844 590.20947265625" stroke-width="0.0" fill="rgb(192, 191, 189)" opacity="0.94823927"/>
    <path d="M 539.8107299804688 16.867259979248047 C 537.348876953125 36.159000396728516 530.2089233398438 44.078670501708984 515.780517578125 41.74270248413086 C 501.01141357421875 34.31172561645508 493.7005310058594 26.984668731689453 490.89971923828125 16.873071670532227 C 493.5842590332031 6.973748207092285 501.0176086425781 -0.27368631958961487 513.640380859375 -5.765618801116943 C 527.7709350585938 -6.778589248657227 536.8519287109375 -0.528579831123352 539.8107299804688 16.867259979248047" stroke-width="0.0" fill="rgb(206, 205, 203)" opacity="0.9423602"/>
    <path d="M 601.7164306640625 54.869140625 C 595.4418334960938 65.33007049560547 588.153076171875 72.34721374511719 575.2985229492188 83.01639556884766 C 563.2290649414062 83.06919860839844 556.3174438476562 73.70809936523438 551.8170776367188 54.369529724121094 C 548.1396484375 36.87118911743164 560.554443359375 30.62724494934082 572.4812622070312 30.365699768066406 C 587.9902954101562 42.52262878417969 597.3359985351562 48.25592041015625 601.7164306640625 54.869140625" stroke-width="0.0" fill="rgb(154, 152, 149)" opacity="0.64137006"/>
    <path d="M 19.915393829345703 86.66513061523438 C 16.769100189208984 96.4920425415039 9.50928020477295 103.827880859375 -0.2604476809501648 106.1435775756836 C -9.998066902160645 104.31429290771484 -17.320505142211914 97.0 -20.0 87.0 C -17.32050895690918 77.0 -10.0 69.67948913574219 0.1743362843990326 66.62662506103516 C 10.213862419128418 69.412353515625 17.562387466430664 76.79462432861328 19.915393829345703 86.66513061523438" stroke-width="0.0" fill="rgb(255, 255, 255)" opacity="0.7159142"/>
    <path d="M 49.75817108154297 223.5226593017578 C 43.42059326171875 240.03135681152344 32.38087463378906 245.07418823242188 17.957752227783203 244.25010681152344 C 5.315682411193848 239.8651580810547 -2.381669044494629 232.8462677001953 -6.061415672302246 220.96475219726562 C -6.084174633026123 207.0497283935547 -0.4956437647342682 197.18943786621094 11.114423751831055 194.25413513183594 C 28.422771453857422 202.4916229248047 38.78543472290039 207.45269775390625 49.75817108154297 223.5226593017578" stroke-width="0.0" fill="rgb(204, 202, 200)" opacity="0.9737149"/>
    <path d="M 38.51389694213867 374.28436279296875 C 23.43386459350586 394.0870666503906 16.05890655517578 401.3736267089844 6.031493663787842 404.0209655761719 C -3.9954588413238525 401.3096618652344 -11.319772720336914 393.99822998046875 -14.06456470489502 383.916015625 C -12.354645729064941 372.6372985839844 -9.595988273620605 359.3143310546875 4.895041465759277 341.933349609375 C 30.82451820373535 350.33648681640625 39.299339294433594 359.0704345703125 38.51389694213867 374.28436279296875" stroke-width="0.0" fill="rgb(201, 200, 197)" opacity="1.0"/>
    <path d="M 46.2913703918457 18.413524627685547 C 32.31797790527344 40.58230972290039 27.81484031677246 52.19492721557617 18.735647201538086 62.343685150146484 C 2.5248374938964844 46.0632209777832 -4.425605773925781 38.10456848144531 -7.614495277404785 27.386531829833984 C -8.160781860351562 13.656828880310059 -5.969084739685059 0.05150977522134781 15.330506324768066 -13.161293029785156 C 40.3099250793457 -7.344987392425537 48.526405334472656 1.4416028261184692 46.2913703918457 18.413524627685547" stroke-width="0.0" fill="rgb(204, 203, 200)" opacity="0.9990311"/>
    <path d="M 116.855712890625 521.1796264648438 C 112.37287139892578 532.4380493164062 104.02330780029297 539.118408203125 93.17520904541016 541.187744140625 C 82.310546875 538.66064453125 72.4069595336914 532.7589111328125 55.03514099121094 512.6408081054688 C 59.379737854003906 496.05596923828125 68.16524505615234 486.5816955566406 93.6476821899414 475.5940246582031 C 104.33316040039062 496.7642517089844 107.51028442382812 511.0047302246094 116.855712890625 521.1796264648438" stroke-width="0.0" fill="rgb(195, 194, 191)" opacity="0.8928101"/>
    <path d="M 204.63937377929688 11.611982345581055 C 194.66827392578125 42.583953857421875 184.9834747314453 50.72726821899414 158.68453979492188 58.94163131713867 C 139.18540954589844 45.533199310302734 136.98898315429688 31.617780685424805 138.14796447753906 17.02803611755371 C 141.6829833984375 6.006869316101074 149.01004028320312 -1.3067395687103271 159.9482879638672 -5.08073616027832 C 175.08840942382812 -7.3886518478393555 190.83656311035156 -7.053112030029297 204.63937377929688 11.611982345581055" stroke-width="0.0" fill="rgb(207, 205, 202)" opacity="0.83829707"/>
    <path d="M 603.01708984375 5.019133567810059 C 600.3826293945312 15.06520938873291 593.072265625 22.409391403198242 582.0690307617188 26.819486618041992 C 572.261962890625 23.639387130737305 565.4556274414062 15.398565292358398 562.7882080078125 4.9857940673828125 C 565.6370849609375 -5.01558256149292 572.99609375 -12.321871757507324 583.0000610351562 -15.000022888183594 C 593.0 -12.320508003234863 600.3204956054688 -5.0 603.01708984375 5.019133567810059" stroke-width="0.0" fill="rgb(204, 202, 200)" opacity="0.9302366"/>
    <path d="M 53.51670455932617 78.18115234375 C 24.189844131469727 95.35488891601562 9.086298942565918 94.41529846191406 -0.948600172996521 93.98603820800781 C -6.986832141876221 102.83692932128906 -14.318913459777832 95.97389221191406 -17.0124568939209 85.98240661621094 C -14.546723365783691 75.68196868896484 -8.423873901367188 66.6286849975586 8.739826202392578 51.841373443603516 C 27.037513732910156 56.369606018066406 44.47941207885742 57.216548919677734 53.51670455932617 78.18115234375" stroke-width="0.0" fill="rgb(159, 158, 157)" opacity="0.9446726"/>
    <path d="M 89.23687744140625 271.7986145019531 C 87.64334869384766 281.887451171875 79.74781799316406 289.0372314453125 69.34744262695312 291.5951232910156 C 59.0 288.32049560546875 51.67949295043945 281.0 49.150997161865234 271.15045166015625 C 52.157989501953125 261.24005126953125 58.709495544433594 251.76007080078125 67.75479125976562 250.5128936767578 C 79.19187927246094 253.23590087890625 86.26431274414062 260.93927001953125 89.23687744140625 271.7986145019531" stroke-width="0.0" fill="rgb(255, 255, 255)" opacity="0.61514395"/>
    <path d="M 44.58662796020508 188.35020446777344 C 46.280025482177734 197.23077392578125 40.72805404663086 205.8283233642578 31.698389053344727 209.818359375 C 20.925376892089844 205.4332733154297 13.650795936584473 198.05128479003906 10.84920597076416 187.9390411376953 C 13.446308135986328 177.77130126953125 19.423295974731445 168.69183349609375 37.650814056396484 148.2786102294922 C 44.153114318847656 164.81234741210938 44.33879852294922 178.59072875976562 44.58662796020508 188.35020446777344" stroke-width="0.0" fill="rgb(206, 204, 202)" opacity="0.59487295"/>
    <path d="M 65.81684112548828 414.66796875 C 62.86931610107422 425.4488525390625 60.61484146118164 438.4076843261719 52.21483612060547 449.2553405761719 C 37.097137451171875 434.2200012207031 31.297710418701172 424.3536376953125 30.908788681030273 415.1475524902344 C 30.996091842651367 406.0216369628906 38.098812103271484 399.2802429199219 48.3227424621582 397.5509948730469 C 56.81612777709961 397.3027038574219 63.144229888916016 405.6316223144531 65.81684112548828 414.66796875" stroke-width="0.0" fill="rgb(210, 210, 206)" opacity="0.51229614"/>
    <path d="M 359.9377136230469 587.9968872070312 C 357.35723876953125 598.0020751953125 349.9849548339844 605.2982788085938 339.272216796875 608.5491943359375 C 326.0256652832031 608.408203125 314.80670166015625 604.1685180664062 307.8005676269531 588.1959228515625 C 313.1956481933594 569.4855346679688 322.230712890625 562.9136352539062 336.29559326171875 563.6898193359375 C 350.0021667480469 570.6746826171875 357.3207702636719 578.0003051757812 359.9377136230469 587.9968872070312" stroke-width="0.0" fill="rgb(197, 196, 194)" opacity="0.9917835"/>
    <path d="M 609.7867431640625 72.71786499023438 C 605.954833984375 80.7088394165039 596.8290405273438 84.35945892333984 588.1792602539062 79.61747741699219 C 580.62744140625 84.0153579711914 568.7978515625 83.6275405883789 559.9446411132812 76.71794128417969 C 572.0406494140625 62.606319427490234 580.3599243164062 56.40115737915039 590.3192138671875 54.77389144897461 C 599.8619384765625 55.94431686401367 607.2685546875 63.087318420410156 609.7867431640625 72.71786499023438" stroke-width="0.0" fill="rgb(157, 154, 152)" opacity="0.5597276"/>
    <path d="M 397.32708740234375 499.2445068359375 C 385.5159606933594 512.9547729492188 373.7417297363281 518.4600830078125 358.7255554199219 514.9873657226562 C 342.6973876953125 506.8115234375 334.45391845703125 500.8158874511719 332.2393493652344 490.6140441894531 C 335.7597961425781 480.13470458984375 343.2298278808594 473.0744323730469 358.1488037109375 462.14813232421875 C 368.53070068359375 463.7628479003906 373.1037292480469 477.9906921386719 397.32708740234375 499.2445068359375" stroke-width="0.0" fill="rgb(201, 200, 199)" opacity="1.0"/>
    <path d="M 163.00489807128906 11.208369255065918 C 160.4290008544922 22.150890350341797 155.44944763183594 33.14463806152344 135.6078338623047 52.053043365478516 C 115.89418029785156 45.99115753173828 109.86343383789062 34.99722671508789 108.86664581298828 13.205779075622559 C 118.2732162475586 -3.697301149368286 129.47178649902344 -8.179988861083984 141.6680450439453 -9.262256622314453 C 152.13497924804688 -6.393317222595215 159.71383666992188 0.7641645073890686 163.00489807128906 11.208369255065918" stroke-width="0.0" fill="rgb(207, 205, 202)" opacity="0.99932295"/>
    <path d="M 612.4652099609375 300.0237731933594 C 601.1107788085938 323.5490417480469 587.5584106445312 326.0701904296875 571.6527099609375 323.94244384765625 C 559.9225463867188 319.43377685546875 552.6468505859375 312.0536193847656 549.332763671875 301.76519775390625 C 552.2361450195312 291.632568359375 559.58251953125 284.15142822265625 583.327392578125 263.10693359375 C 599.8023681640625 262.66754150390625 607.845458984375 272.27032470703125 612.4652099609375 300.0237731933594" stroke-width="0.0" fill="rgb(200, 200, 198)" opacity="0.9620602"/>
    <path d="M 57.81039810180664 514.2144775390625 C 41.00415802001953 536.444580078125 29.229328155517578 540.83447265625 12.23517894744873 548.2243041992188 C -0.5438678860664368 547.6141967773438 -6.891000747680664 538.7250366210938 -8.6041259765625 521.7755737304688 C -10.523670196533203 500.99200439453125 -9.86277961730957 485.0751953125 9.778386116027832 473.923828125 C 40.89348220825195 489.01123046875 50.230674743652344 497.6712341308594 57.81039810180664 514.2144775390625" stroke-width="0.0" fill="rgb(198, 196, 194)" opacity="0.98611885"/>
    <path d="M 374.34527587890625 67.68862915039062 C 373.0965270996094 80.24044799804688 367.0289611816406 88.60643768310547 352.2204895019531 86.82160949707031 C 335.6669006347656 88.4577407836914 329.4143981933594 83.6541748046875 330.70684814453125 69.4544677734375 C 335.5436096191406 56.88136291503906 342.8984680175781 49.599708557128906 352.9853210449219 46.993831634521484 C 363.0431213378906 49.65711212158203 370.49395751953125 56.907657623291016 374.34527587890625 67.68862915039062" stroke-width="0.0" fill="rgb(189, 186, 183)" opacity="0.6886161"/>
    <path d="M 609.1985473632812 384.0972900390625 C 609.933837890625 399.45465087890625 610.381103515625 415.78094482421875 592.77490234375 432.936279296875 C 572.5317993164062 408.4618225097656 569.4907836914062 395.4219665527344 564.7198486328125 382.2762756347656 C 567.1353149414062 370.90087890625 574.6766967773438 362.6653137207031 595.5526733398438 348.5073547363281 C 606.190185546875 356.2364196777344 608.6859741210938 369.7451171875 609.1985473632812 384.0972900390625" stroke-width="0.0" fill="rgb(199, 198, 197)" opacity="0.9625389"/>
    <path d="M 371.6045227050781 26.902721405029297 C 368.3280029296875 37.00248718261719 361.00054931640625 44.32197189331055 350.9940185546875 47.01578140258789 C 340.9476318359375 44.35675048828125 333.5672302246094 37.07517623901367 330.8244323730469 27.015541076660156 C 333.6590881347656 17.052553176879883 341.11419677734375 9.87229061126709 351.0603332519531 7.331643104553223 C 360.9208679199219 9.775333404541016 368.2253723144531 17.079757690429688 371.6045227050781 26.902721405029297" stroke-width="0.0" fill="rgb(209, 206, 204)" opacity="0.9032484"/>
    <path d="M 524.8316040039062 36.28892135620117 C 514.96337890625 43.5442008972168 507.4739990234375 51.600067138671875 498.4810485839844 56.749305725097656 C 488.69268798828125 53.75920486450195 481.43890380859375 46.245941162109375 478.7480163574219 36.060997009277344 C 481.59368896484375 25.91886329650879 488.9147033691406 18.580469131469727 499.0052185058594 15.874801635742188 C 509.07611083984375 18.5831298828125 516.6402587890625 25.827651977539062 524.8316040039062 36.28892135620117" stroke-width="0.0" fill="rgb(207, 205, 203)" opacity="0.83566797"/>
    <path d="M 382.5773620605469 569.7156372070312 C 380.2973937988281 580.2389526367188 371.65777587890625 586.5822143554688 360.3235168457031 588.3417358398438 C 349.93890380859375 585.3685302734375 342.53118896484375 578.0929565429688 339.3907775878906 567.90185546875 C 342.3375549316406 557.7465209960938 349.7978210449219 550.5034790039062 359.9450378417969 547.961669921875 C 370.01025390625 550.669677734375 377.3323669433594 557.9889526367188 382.5773620605469 569.7156372070312" stroke-width="0.0" fill="rgb(196, 195, 194)" opacity="0.9928108"/>
    <path d="M 418.0997009277344 41.763221740722656 C 413.4853210449219 53.118873596191406 406.13604736328125 60.5405158996582 395.57073974609375 63.96588134765625 C 384.89569091796875 61.59782028198242 377.6923522949219 54.01688003540039 372.0766296386719 40.48839569091797 C 372.26104736328125 26.716487884521484 379.7334899902344 18.819149017333984 393.8157653808594 17.6141300201416 C 408.11175537109375 23.64714813232422 416.05487060546875 30.6591739654541 418.0997009277344 41.763221740722656" stroke-width="0.0" fill="rgb(207, 205, 202)" opacity="0.97561723"/>
    <path d="M 332.3312072753906 475.8976135253906 C 331.2220458984375 483.903076171875 323.665283203125 490.87640380859375 303.1654968261719 506.2350158691406 C 285.9783630371094 510.58056640625 275.4677734375 503.24957275390625 268.5993347167969 478.36614990234375 C 281.57244873046875 451.7143249511719 289.7272644042969 446.0911560058594 302.7694091796875 449.0483703613281 C 320.7387390136719 460.6167297363281 326.6390686035156 469.4771728515625 332.3312072753906 475.8976135253906" stroke-width="0.0" fill="rgb(177, 176, 175)" opacity="1.0"/>
    <path d="M 128.96087646484375 10.555330276489258 C 128.2214813232422 31.408002853393555 124.10709381103516 44.65037155151367 100.16619110107422 57.26991271972656 C 71.48429870605469 43.678409576416016 64.4982681274414 31.4775390625 54.02314376831055 4.2647480964660645 C 71.06576538085938 -9.636490821838379 85.14180755615234 -11.72086238861084 96.94229888916016 -13.157337188720703 C 108.01380920410156 -10.957657814025879 118.4783935546875 -5.6468186378479 128.96087646484375 10.555330276489258" stroke-width="0.0" fill="rgb(208, 205, 203)" opacity="0.98532385"/>
    <path d="M 484.9642333984375 58.048187255859375 C 480.6778869628906 68.26889038085938 473.3117370605469 75.78590393066406 462.6863708496094 80.16133880615234 C 452.13690185546875 76.35609436035156 444.3238220214844 68.99791717529297 439.7274169921875 58.14655303955078 C 444.7357482910156 47.43312072753906 452.68023681640625 40.41135025024414 462.8780212402344 38.14274215698242 C 472.958251953125 40.77931213378906 480.51953125 47.95237731933594 484.9642333984375 58.048187255859375" stroke-width="0.0" fill="rgb(206, 204, 202)" opacity="0.96023226"/>
    <path d="M 383.63446044921875 36.01566696166992 C 375.44818115234375 50.10185241699219 368.0914306640625 57.41814041137695 358.0348205566406 60.03300857543945 C 347.9957275390625 57.3231315612793 340.67755126953125 50.0039176940918 337.8910827636719 39.92690658569336 C 340.5497741699219 29.906757354736328 347.90533447265625 22.5463809967041 358.8405456542969 18.799551010131836 C 371.7164306640625 19.536296844482422 381.6537780761719 24.93319320678711 383.63446044921875 36.01566696166992" stroke-width="0.0" fill="rgb(208, 206, 203)" opacity="1.0"/>
    <path d="M 22.60988998413086 32.28611373901367 C 21.973329544067383 45.25638198852539 19.660558700561523 58.66466522216797 6.390030384063721 70.59324645996094 C -10.301026344299316 52.354225158691406 -15.590998649597168 42.33815383911133 -18.01143455505371 32.01337814331055 C -15.32724380493164 21.98516273498535 -8.186722755432129 14.278966903686523 1.2252622842788696 5.592271327972412 C 12.190485000610352 14.36013126373291 19.509891510009766 21.862939834594727 22.60988998413086 32.28611373901367" stroke-width="0.0" fill="rgb(204, 202, 200)" opacity="1.0"/>
    <path d="M 56.19569396972656 193.255615234375 C 53.86298751831055 201.58749389648438 46.68431854248047 209.23191833496094 38.67608642578125 213.7397918701172 C 29.8028564453125 208.99378967285156 23.62228775024414 201.18115234375 24.912067413330078 193.8601837158203 C 24.70911979675293 185.96575927734375 30.94463348388672 178.66001892089844 40.64492416381836 172.61508178710938 C 48.38984298706055 174.5483856201172 55.007328033447266 183.0789031982422 56.19569396972656 193.255615234375" stroke-width="0.0" fill="rgb(229, 229, 228)" opacity="0.51536334"/>
    <path d="M 220.09860229492188 81.37982940673828 C 198.14161682128906 95.16835021972656 181.5319061279297 93.13191986083984 173.65455627441406 91.13204193115234 C 164.15585327148438 90.27035522460938 155.46432495117188 86.2357406616211 149.8157196044922 76.35543823242188 C 147.63613891601562 62.67710494995117 150.65017700195312 49.431087493896484 173.1463165283203 34.17942428588867 C 198.5934600830078 41.74053192138672 207.847412109375 51.2568359375 220.09860229492188 81.37982940673828" stroke-width="0.0" fill="rgb(200, 198, 195)" opacity="0.795102"/>
    <path d="M 387.2498779296875 546.8944702148438 C 384.3931579589844 557.065673828125 377.0572204589844 564.3661499023438 367.0536193847656 566.8093872070312 C 357.0624084472656 564.2261962890625 349.67498779296875 556.9656372070312 346.5260009765625 546.9334106445312 C 349.5601501464844 536.8817138671875 356.6731872558594 528.8882446289062 370.5267639160156 518.4241333007812 C 378.8006286621094 526.7364501953125 384.9267578125 536.3047485351562 387.2498779296875 546.8944702148438" stroke-width="0.0" fill="rgb(197, 196, 194)" opacity="1.0"/>
    <path d="M 335.2066345214844 29.846704483032227 C 332.3790588378906 40.056663513183594 325.05987548828125 47.372371673583984 307.5504455566406 60.40852737426758 C 295.0534362792969 58.761600494384766 287.1009521484375 49.70759201049805 280.8693542480469 33.72006607055664 C 292.9618225097656 16.811765670776367 302.9626770019531 11.267910957336426 314.9957580566406 9.598077774047852 C 325.4855041503906 12.058982849121094 332.7776184082031 19.561840057373047 335.2066345214844 29.846704483032227" stroke-width="0.0" fill="rgb(208, 205, 203)" opacity="1.0"/>
    <path d="M 298.9636535644531 585.9512939453125 C 296.2656555175781 595.9610595703125 288.9703063964844 603.2958984375 277.55047607421875 607.3202514648438 C 263.5004577636719 608.1963500976562 252.47811889648438 603.7505493164062 248.41299438476562 592.4143676757812 C 261.2816467285156 575.8070678710938 268.964111328125 568.6338500976562 279.0108947753906 565.8772583007812 C 289.04180908203125 568.6173706054688 296.35186767578125 575.9673461914062 298.9636535644531 585.9512939453125" stroke-width="0.0" fill="rgb(198, 196, 194)" opacity="0.9848391"/>
    <path d="M 561.7210083007812 590.1074829101562 C 559.5585327148438 600.6796875 551.2435302734375 607.2600708007812 539.7390747070312 609.5997314453125 C 525.8819580078125 609.7642211914062 510.26708984375 609.3229370117188 495.6033020019531 594.4740600585938 C 508.8616943359375 567.242919921875 518.8967895507812 560.0297241210938 538.4127197265625 554.2826538085938 C 553.3597412109375 566.272216796875 558.0142822265625 577.833251953125 561.7210083007812 590.1074829101562" stroke-width="0.0" fill="rgb(195, 194, 192)" opacity="0.97806513"/>
    <path d="M 427.4532165527344 597.8095703125 C 433.9107666015625 605.8369750976562 427.8730163574219 613.316162109375 417.9964599609375 615.9996337890625 C 408.01153564453125 613.31640625 400.79302978515625 605.962158203125 399.69635009765625 596.3424682617188 C 401.54205322265625 586.7239379882812 408.74737548828125 579.6622314453125 417.6499938964844 578.3662109375 C 425.096435546875 580.0988159179688 429.1087646484375 588.7719116210938 427.4532165527344 597.8095703125" stroke-width="0.0" fill="rgb(199, 198, 197)" opacity="0.5337961"/>
    <path d="M 50.4929084777832 580.1002197265625 C 45.43364334106445 591.083740234375 38.06718063354492 598.400146484375 28.037050247192383 601.067626953125 C 18.00490951538086 598.3168334960938 10.682120323181152 590.99560546875 8.007699012756348 580.9995727539062 C 10.683155059814453 571.0056762695312 18.00822639465332 563.692138671875 28.002532958984375 561.0244140625 C 38.04353713989258 563.6751708984375 45.94507598876953 570.7756958007812 50.4929084777832 580.1002197265625" stroke-width="0.0" fill="rgb(197, 195, 193)" opacity="0.9593272"/>
    <path d="M 350.16534423828125 60.1904182434082 C 348.5033874511719 71.6271743774414 343.60107421875 82.36347961425781 323.73895263671875 88.99800872802734 C 305.0529479980469 92.21366882324219 294.83306884765625 86.14573669433594 290.71014404296875 66.91621398925781 C 306.86822509765625 46.24714660644531 318.14892578125 41.52265930175781 329.7194519042969 39.89447784423828 C 339.97772216796875 42.70304489135742 347.29693603515625 50.02284240722656 350.16534423828125 60.1904182434082" stroke-width="0.0" fill="rgb(204, 202, 199)" opacity="0.8662954"/>
    <path d="M 416.4306640625 16.43828010559082 C 426.48388671875 25.815174102783203 417.88330078125 33.6279296875 404.76287841796875 34.408477783203125 C 390.102294921875 31.5460262298584 380.3309020996094 26.08738136291504 377.5953063964844 14.84627628326416 C 383.6973571777344 0.32764625549316406 391.56494140625 -6.51302433013916 402.2563781738281 -8.149236679077148 C 410.8367004394531 -4.479976177215576 414.6861572265625 4.1737213134765625 416.4306640625 16.43828010559082" stroke-width="0.0" fill="rgb(203, 201, 198)" opacity="0.77528054"/>
    <path d="M 582.2890014648438 22.544139862060547 C 581.5003662109375 35.41436767578125 573.3561401367188 43.988059997558594 554.118408203125 52.628562927246094 C 542.5184936523438 39.99943161010742 537.4983520507812 29.128440856933594 535.2578125 18.247844696044922 C 538.5015869140625 7.812566757202148 545.773193359375 0.4017084240913391 557.0213623046875 -3.933351755142212 C 567.2162475585938 -1.209457516670227 573.8289184570312 7.231313705444336 582.2890014648438 22.544139862060547" stroke-width="0.0" fill="rgb(205, 204, 202)" opacity="0.97552764"/>
    <path d="M 393.41473388671875 66.07652282714844 C 393.45953369140625 80.49414825439453 386.02728271484375 89.49276733398438 373.4920654296875 90.04330444335938 C 355.46722412109375 76.84358215332031 347.85650634765625 69.86405181884766 345.5762023925781 60.069091796875 C 347.968994140625 50.204593658447266 355.1758117675781 42.86347579956055 365.0753173828125 40.32117462158203 C 374.99468994140625 42.72124099731445 382.6760559082031 49.91437911987305 393.41473388671875 66.07652282714844" stroke-width="0.0" fill="rgb(204, 202, 199)" opacity="0.7799607"/>
    <path d="M 33.09201431274414 585.0341796875 C 30.406661987304688 595.0641479492188 23.052446365356445 602.366943359375 12.261107444763184 605.8473510742188 C 1.2849406003952026 604.2035522460938 -5.74766206741333 596.5662231445312 -7.423814296722412 585.4521484375 C -4.347808837890625 574.9686279296875 2.9669764041900635 567.6478881835938 13.028008460998535 564.94384765625 C 23.02174186706543 567.6427001953125 30.338655471801758 574.9838256835938 33.09201431274414 585.0341796875" stroke-width="0.0" fill="rgb(197, 196, 193)" opacity="0.8665925"/>
    <path d="M 608.5977783203125 545.65380859375 C 608.1284790039062 562.576416015625 603.0805053710938 572.8432006835938 590.67626953125 573.08447265625 C 575.056396484375 563.2527465820312 567.7489624023438 555.9249877929688 543.5065307617188 529.77294921875 C 544.9000244140625 513.64599609375 552.323974609375 502.33709716796875 585.0880737304688 491.7013244628906 C 611.8480224609375 508.48065185546875 610.9766235351562 526.0029296875 608.5977783203125 545.65380859375" stroke-width="0.0" fill="rgb(195, 194, 192)" opacity="0.96755403"/>
    <path d="M 419.124267578125 558.6168823242188 C 412.4122009277344 573.4741821289062 402.1097717285156 579.3706665039062 385.2750244140625 591.4003295898438 C 375.419189453125 585.5149536132812 370.46630859375 574.916015625 370.18634033203125 561.892578125 C 373.6134033203125 550.9666137695312 380.9913024902344 543.6958618164062 391.8630676269531 540.1254272460938 C 405.656494140625 539.7350463867188 416.6018371582031 543.902099609375 419.124267578125 558.6168823242188" stroke-width="0.0" fill="rgb(195, 194, 192)" opacity="0.9346572"/>
    <path d="M 328.1295166015625 545.3690795898438 C 328.442138671875 558.8998413085938 323.92559814453125 570.1842041015625 309.6663513183594 575.8807983398438 C 290.8225402832031 568.3715209960938 284.7506408691406 559.3154296875 285.0475158691406 545.8139038085938 C 289.70330810546875 534.0282592773438 297.0337219238281 526.7210083007812 307.0184631347656 524.0216674804688 C 316.9999084472656 526.67919921875 324.3031005859375 534.005126953125 328.1295166015625 545.3690795898438" stroke-width="0.0" fill="rgb(196, 195, 193)" opacity="0.9862042"/>
    <path d="M 342.6530456542969 20.05326271057129 C 339.5753479003906 30.174551010131836 332.1346435546875 37.44678497314453 322.0277099609375 40.06182098388672 C 312.0061340332031 37.318206787109375 304.6875305175781 29.99234962463379 301.8651428222656 19.855682373046875 C 303.9570007324219 8.942719459533691 310.11407470703125 -0.11474109441041946 321.68408203125 -5.531117916107178 C 333.3605041503906 0.4128727912902832 339.7753601074219 9.255952835083008 342.6530456542969 20.05326271057129" stroke-width="0.0" fill="rgb(207, 205, 203)" opacity="0.91356003"/>
    <path d="M 89.2163314819336 285.41253662109375 C 83.45722961425781 292.20343017578125 73.01323699951172 297.3097839355469 61.99217224121094 296.20465087890625 C 50.74362564086914 292.29217529296875 43.479793548583984 285.377197265625 42.30973815917969 276.083984375 C 43.51264190673828 266.4464111328125 50.4117317199707 259.175048828125 60.80415725708008 254.56222534179688 C 69.9021987915039 257.9129333496094 79.62303924560547 265.5897216796875 89.2163314819336 285.41253662109375" stroke-width="0.0" fill="rgb(189, 187, 186)" opacity="1.0"/>
    <path d="M 349.54254150390625 483.16876220703125 C 346.3311462402344 494.1785583496094 339.9791564941406 503.40423583984375 325.8568420410156 512.5878295898438 C 316.17767333984375 502.74298095703125 308.9740295410156 493.99713134765625 304.68603515625 483.5227966308594 C 309.5177307128906 471.9326171875 316.9604797363281 464.57061767578125 327.39959716796875 462.4354248046875 C 337.92767333984375 465.8189697265625 345.5944519042969 472.94207763671875 349.54254150390625 483.16876220703125" stroke-width="0.0" fill="rgb(195, 194, 192)" opacity="0.9498042"/>
    <path d="M 563.1682739257812 509.76654052734375 C 534.9561157226562 530.81201171875 524.2843627929688 535.5579223632812 513.7858276367188 538.1439819335938 C 502.73492431640625 535.9406127929688 494.25860595703125 529.008544921875 498.3020935058594 520.3086547851562 C 501.2055969238281 506.4161071777344 498.9678649902344 491.0782775878906 513.4957885742188 477.9649963378906 C 541.2651977539062 482.69281005859375 554.8104858398438 487.79107666015625 563.1682739257812 509.76654052734375" stroke-width="0.0" fill="rgb(192, 191, 189)" opacity="0.90106624"/>
    <path d="M 56.33107376098633 551.70849609375 C 53.34428787231445 561.99658203125 45.9691276550293 569.2506103515625 36.05244064331055 571.8029174804688 C 26.117366790771484 569.1594848632812 18.773122787475586 561.90185546875 16.406845092773438 551.9701538085938 C 18.604204177856445 541.8508911132812 25.61988067626953 533.7304077148438 40.941993713378906 521.3567504882812 C 50.37471008300781 528.5226440429688 54.88359069824219 539.8218994140625 56.33107376098633 551.70849609375" stroke-width="0.0" fill="rgb(196, 194, 192)" opacity="0.99773806"/>
    <path d="M 296.0570068359375 565.9519653320312 C 288.2933349609375 578.95947265625 280.9354248046875 586.2197265625 269.4383850097656 590.1448974609375 C 256.34381103515625 590.5579223632812 246.53797912597656 584.8141479492188 237.64149475097656 567.52685546875 C 244.95497131347656 552.2203979492188 256.2645568847656 547.747802734375 269.8846130371094 548.0792846679688 C 281.8621826171875 551.2186889648438 291.7139892578125 556.9695434570312 296.0570068359375 565.9519653320312" stroke-width="0.0" fill="rgb(196, 195, 193)" opacity="0.9839226"/>
    <path d="M 561.2308959960938 523.2135620117188 C 540.602294921875 544.3422241210938 527.8363037109375 547.8963623046875 516.54296875 550.4305419921875 C 503.4922790527344 549.7183227539062 491.804931640625 545.5733642578125 494.99102783203125 536.6035766601562 C 497.16876220703125 518.6224975585938 505.8565673828125 511.95733642578125 517.189697265625 509.48223876953125 C 530.882080078125 509.5648193359375 546.7792358398438 509.3041687011719 561.2308959960938 523.2135620117188" stroke-width="0.0" fill="rgb(195, 194, 192)" opacity="0.97404337"/>
    <path d="M 99.25477600097656 470.232421875 C 87.91143798828125 500.71014404296875 76.8994140625 509.36968994140625 52.197635650634766 517.3861694335938 C 27.24254608154297 506.01336669921875 15.756017684936523 498.83807373046875 0.7691795825958252 477.810302734375 C 18.83657455444336 451.7464904785156 29.897533416748047 444.63568115234375 51.43535614013672 437.5546569824219 C 74.73802947998047 444.8196105957031 87.62310791015625 448.55657958984375 99.25477600097656 470.232421875" stroke-width="0.0" fill="rgb(196, 195, 194)" opacity="1.0"/>
    <path d="M 300.8443298339844 463.8028259277344 C 294.8751525878906 482.8058166503906 286.6181640625 492.6983642578125 273.0646057128906 492.2885437011719 C 253.45712280273438 475.57904052734375 245.42723083496094 468.9637145996094 241.990478515625 459.81109619140625 C 247.5373992919922 451.5709228515625 256.26531982421875 445.87213134765625 263.9129943847656 440.9844055175781 C 275.0740966796875 439.9837341308594 287.6373291015625 444.421875 300.8443298339844 463.8028259277344" stroke-width="0.0" fill="rgb(206, 205, 204)" opacity="0.59222686"/>
    <path d="M 587.4857788085938 575.4503173828125 C 584.9514770507812 585.5172729492188 577.5277099609375 592.9705200195312 567.207275390625 596.2711791992188 C 556.8899536132812 592.5133666992188 549.5891723632812 585.08349609375 542.8155517578125 572.3759765625 C 546.3025512695312 562.8506469726562 555.8370971679688 556.8954467773438 566.8659057617188 554.5437622070312 C 577.0938720703125 557.539794921875 584.3334350585938 564.9430541992188 587.4857788085938 575.4503173828125" stroke-width="0.0" fill="rgb(194, 193, 191)" opacity="0.94327366"/>
    <path d="M 326.23760986328125 540.0195922851562 C 323.45465087890625 550.1173095703125 316.1282043457031 557.4906616210938 305.9857482910156 560.328369140625 C 295.85260009765625 557.5042114257812 288.48516845703125 550.1561889648438 278.1236267089844 533.3464965820312 C 273.9504699707031 515.4213256835938 278.3577880859375 502.8924865722656 295.3961181640625 494.8505859375 C 318.0242614746094 519.9262084960938 323.5547790527344 529.73876953125 326.23760986328125 540.0195922851562" stroke-width="0.0" fill="rgb(196, 195, 193)" opacity="0.99402106"/>
  </g>
</svg>
