<?xml version="1.0" ?>
<svg xmlns="http://www.w3.org/2000/svg" version="1.1" width="600" height="600">
  <defs/>
  <g>
    <path d="M 313.1052551269531 520.5230712890625 C 312.177001953125 530.883056640625 304.9056396484375 538.24951171875 293.8661193847656 540.96630859375 C 283.0742492675781 538.2593994140625 275.7417907714844 530.9251098632812 273.0324401855469 520.6212768554688 C 275.7534484863281 509.0874328613281 283.08404541015625 501.745849609375 293.11407470703125 499.0649719238281 C 303.970947265625 502.69000244140625 311.00848388671875 510.13201904296875 313.1052551269531 520.5230712890625" stroke-width="0.0" fill="rgb(15, 18, 24)" opacity="1.0"/>
    <path d="M 400.6766662597656 120.78921508789062 C 397.8177490234375 131.42694091796875 390.3771667480469 138.66148376464844 380.0815734863281 141.17257690429688 C 369.76873779296875 138.51495361328125 362.28515625 131.2952117919922 359.44439697265625 121.22331237792969 C 362.3454284667969 110.66133117675781 369.6065368652344 103.1844253540039 379.7487487792969 100.3473892211914 C 390.4954833984375 103.18122100830078 397.89862060546875 110.47856903076172 400.6766662597656 120.78921508789062" stroke-width="0.0" fill="rgb(202, 208, 217)" opacity="0.9960733"/>
    <path d="M 593.0001220703125 487.0003356933594 C 590.3245239257812 497.0112609863281 583.0458984375 504.44036865234375 572.4569702148438 507.7309875488281 C 562.2770385742188 505.07305908203125 554.9188842773438 497.7255859375 552.14453125 487.2766418457031 C 554.9965209960938 476.3955993652344 562.4520263671875 469.1641540527344 572.7516479492188 466.75640869140625 C 583.0 469.67950439453125 590.3204956054688 477.0 593.0001220703125 487.0003356933594" stroke-width="0.0" fill="rgb(151, 159, 171)" opacity="0.9913577"/>
    <path d="M 423.8045654296875 518.79931640625 C 420.9265441894531 529.533935546875 413.5092468261719 536.8567504882812 402.9672546386719 539.6220703125 C 392.5345153808594 536.859619140625 385.3144836425781 529.4102172851562 382.87249755859375 519.139404296875 C 385.6543273925781 508.9451904296875 392.8592834472656 501.3935852050781 403.41571044921875 498.2518310546875 C 413.6770935058594 500.9661560058594 421.02716064453125 508.3257751464844 423.8045654296875 518.79931640625" stroke-width="0.0" fill="rgb(179, 186, 196)" opacity="0.9983406"/>
    <path d="M 547.2070922851562 377.78778076171875 C 544.3086547851562 387.9842529296875 536.97705078125 395.2839660644531 526.5300903320312 398.50103759765625 C 516.3416748046875 395.99951171875 508.9853210449219 388.6634826660156 506.2911376953125 378.2574157714844 C 509.0857849121094 367.43450927734375 516.430419921875 360.07403564453125 526.951171875 357.3266906738281 C 537.517333984375 360.103515625 544.77587890625 367.5211181640625 547.2070922851562 377.78778076171875" stroke-width="0.0" fill="rgb(177, 185, 197)" opacity="0.9926057"/>
    <path d="M 172.772705078125 592.486572265625 C 169.63636779785156 603.1792602539062 162.09059143066406 610.3670043945312 152.00442504882812 613.0053100585938 C 141.9381103515625 610.3472900390625 134.34536743164062 603.1663818359375 131.35218811035156 593.31396484375 C 134.57965087890625 582.9580688476562 141.98611450195312 575.6739501953125 152.61309814453125 572.2802124023438 C 162.72068786621094 574.9140014648438 170.0540313720703 582.2918090820312 172.772705078125 592.486572265625" stroke-width="0.0" fill="rgb(178, 182, 192)" opacity="1.0"/>
    <path d="M 315.6243591308594 28.761621475219727 C 312.8124694824219 39.466529846191406 305.4620666503906 46.79777145385742 295.0337219238281 49.47209930419922 C 284.50897216796875 46.829185485839844 277.1487731933594 39.49796676635742 274.567138671875 29.317062377929688 C 277.5483093261719 18.79738426208496 284.6732482910156 11.190788269042969 295.068115234375 8.241596221923828 C 305.6009216308594 11.032363891601562 312.92962646484375 18.41269302368164 315.6243591308594 28.761621475219727" stroke-width="0.0" fill="rgb(192, 197, 206)" opacity="0.9914384"/>
    <path d="M 531.5555419921875 0.3107215166091919 C 528.5753173828125 10.110820770263672 521.031494140625 17.332334518432617 511.0010681152344 20.000396728515625 C 501.0 17.320510864257812 493.67919921875 10.000090599060059 490.9910583496094 0.0025199991650879383 C 493.67950439453125 -10.0 501.0 -17.32050895690918 511.0 -20.0 C 521.0 -17.32050895690918 528.3204956054688 -10.0 531.5555419921875 0.3107215166091919" stroke-width="0.0" fill="rgb(128, 136, 146)" opacity="1.0"/>
    <path d="M 376.7420349121094 550.593994140625 C 374.02520751953125 560.630615234375 366.5934143066406 567.9239501953125 356.19873046875 570.6820068359375 C 345.8937072753906 567.5660400390625 338.668212890625 560.0303344726562 335.4104309082031 549.630126953125 C 338.2908020019531 539.7669067382812 345.8731384277344 532.6046752929688 355.98455810546875 529.990478515625 C 366.0 532.6795043945312 373.31988525390625 540.0001831054688 376.7420349121094 550.593994140625" stroke-width="0.0" fill="rgb(184, 189, 199)" opacity="0.9974212"/>
    <path d="M 367.4150695800781 515.6472778320312 C 364.32049560546875 526.0 357.0 533.3204956054688 346.7863464355469 536.2366333007812 C 336.5657043457031 533.7542724609375 329.1479797363281 526.4658813476562 326.37542724609375 516.3048095703125 C 329.2409362792969 505.58038330078125 336.57720947265625 498.2318420410156 347.1636962890625 495.47235107421875 C 357.5404357910156 498.1225891113281 364.89703369140625 505.4529724121094 367.4150695800781 515.6472778320312" stroke-width="0.0" fill="rgb(198, 204, 214)" opacity="0.99050725"/>
    <path d="M 324.96331787109375 379.68609619140625 C 322.246826171875 390.9092102050781 314.90264892578125 398.22918701171875 304.9088439941406 399.066162109375 C 294.9070739746094 396.3967590332031 287.603515625 389.09283447265625 284.9670715332031 379.636962890625 C 287.6056213378906 370.910400390625 294.90972900390625 363.604248046875 304.9319152832031 359.4366760253906 C 314.91119384765625 361.75213623046875 322.24664306640625 369.08935546875 324.96331787109375 379.68609619140625" stroke-width="0.0" fill="rgb(22, 27, 33)" opacity="0.9900043"/>
    <path d="M 495.7372131347656 401.8926086425781 C 492.9219970703125 412.54803466796875 485.5218505859375 419.8423767089844 474.5688171386719 422.73431396484375 C 464.365478515625 420.00128173828125 457.02191162109375 412.62652587890625 454.3042297363281 402.19873046875 C 457.0917663574219 391.45196533203125 464.4508361816406 384.08819580078125 474.9572448730469 381.31781005859375 C 485.5863342285156 384.07037353515625 492.9561767578125 391.4048156738281 495.7372131347656 401.8926086425781" stroke-width="0.0" fill="rgb(190, 195, 207)" opacity="0.99119794"/>
    <path d="M 589.8853149414062 586.4949951171875 C 587.02880859375 597.6199340820312 579.5443115234375 604.8031616210938 568.9981689453125 607.30419921875 C 558.4600219726562 604.8019409179688 550.9823608398438 597.6116943359375 548.1567993164062 586.6986694335938 C 550.9070434570312 576.2701416015625 558.2672729492188 568.8986206054688 568.6110229492188 566.1134643554688 C 579.7507934570312 568.9024658203125 587.1261596679688 576.2382202148438 589.8853149414062 586.4949951171875" stroke-width="0.0" fill="rgb(130, 138, 149)" opacity="1.0"/>
    <path d="M 523.8773803710938 81.37499237060547 C 521.1058349609375 91.7132568359375 513.6522827148438 98.92862701416016 503.1722412109375 101.3871841430664 C 492.47039794921875 98.79267120361328 485.00543212890625 91.5953369140625 482.2329406738281 81.07866668701172 C 484.98992919921875 70.33187866210938 492.3177490234375 62.95081329345703 503.2387390136719 60.14637756347656 C 513.7195434570312 62.92460250854492 521.0806274414062 70.2781982421875 523.8773803710938 81.37499237060547" stroke-width="0.0" fill="rgb(146, 156, 166)" opacity="1.0"/>
    <path d="M 440.7807312011719 595.4291381835938 C 437.4618225097656 606.0574951171875 430.0164489746094 613.32666015625 420.00018310546875 616.0003662109375 C 409.9891357421875 613.3245849609375 402.582763671875 606.0382690429688 399.3445739746094 595.5488891601562 C 402.0059509277344 585.3483276367188 409.33465576171875 577.9688110351562 419.661865234375 575.260986328125 C 430.6097717285156 578.0630493164062 438.03656005859375 585.3538208007812 440.7807312011719 595.4291381835938" stroke-width="0.0" fill="rgb(165, 172, 182)" opacity="0.9912306"/>
    <path d="M 563.002685546875 411.0057067871094 C 560.35888671875 421.08013916015625 553.1728515625 428.6382751464844 542.5409545898438 431.7763977050781 C 532.4028930664062 428.9825439453125 525.0397338867188 421.58837890625 522.2051391601562 411.06268310546875 C 525.0247192382812 400.4266357421875 532.491455078125 393.2225341796875 542.8081665039062 390.834716796875 C 553.0 393.67950439453125 560.3204956054688 401.0 563.002685546875 411.0057067871094" stroke-width="0.0" fill="rgb(170, 177, 189)" opacity="0.99086136"/>
    <path d="M 268.7699279785156 551.2899169921875 C 266.07379150390625 561.741455078125 258.7684020996094 569.14208984375 247.98016357421875 571.8543090820312 C 237.18402099609375 569.1588745117188 229.8212432861328 561.8240356445312 227.085205078125 550.92138671875 C 229.79641723632812 540.1365966796875 237.1348419189453 532.791259765625 247.4747772216797 530.058837890625 C 258.78814697265625 532.8271484375 266.0245056152344 540.267578125 268.7699279785156 551.2899169921875" stroke-width="0.0" fill="rgb(180, 186, 197)" opacity="1.0"/>
    <path d="M 122.96697998046875 513.7567749023438 C 120.25846862792969 523.9246826171875 112.92459869384766 531.2582397460938 101.74431610107422 533.9690551757812 C 91.07686614990234 531.259033203125 83.74810791015625 523.920166015625 81.08963012695312 513.8663330078125 C 85.06655883789062 503.5520324707031 92.72853088378906 496.5301208496094 101.36933135986328 493.96856689453125 C 111.21409606933594 496.5805358886719 120.17524719238281 502.59002685546875 122.96697998046875 513.7567749023438" stroke-width="0.0" fill="rgb(5, 5, 8)" opacity="0.99001807"/>
    <path d="M 508.69793701171875 447.1861877441406 C 505.9703063964844 457.6143493652344 498.6154479980469 464.9736328125 488.4128112792969 467.62164306640625 C 477.5445861816406 464.726318359375 470.10076904296875 457.5101623535156 467.2562255859375 446.7028503417969 C 470.0419616699219 436.4202575683594 477.4331970214844 429.078857421875 488.0643005371094 426.30413818359375 C 498.5900573730469 429.0550231933594 505.93670654296875 436.4124755859375 508.69793701171875 447.1861877441406" stroke-width="0.0" fill="rgb(177, 184, 195)" opacity="1.0"/>
    <path d="M 212.0906982421875 492.9305725097656 C 211.23760986328125 502.87646484375 203.82958984375 510.0972900390625 193.46902465820312 512.4071655273438 C 183.0 509.32049560546875 175.6794891357422 502.0 173.876708984375 492.8375549316406 C 176.6053924560547 482.91851806640625 183.92367553710938 475.61871337890625 192.71328735351562 472.9761962890625 C 202.06932067871094 475.6231994628906 209.38259887695312 482.9283447265625 212.0906982421875 492.9305725097656" stroke-width="0.0" fill="rgb(5, 3, 8)" opacity="0.990007"/>
    <path d="M 46.7247314453125 336.2741394042969 C 43.11103439331055 346.8817138671875 35.93464279174805 354.28125 25.991201400756836 356.99578857421875 C 15.98192024230957 354.3277587890625 8.554247856140137 347.0536804199219 5.455997467041016 336.8899230957031 C 8.554252624511719 326.9305114746094 15.942464828491211 319.5990295410156 26.10796356201172 316.8554992675781 C 36.432960510253906 319.30255126953125 43.998779296875 326.456787109375 46.7247314453125 336.2741394042969" stroke-width="0.0" fill="rgb(239, 242, 247)" opacity="1.0"/>
    <path d="M 354.020263671875 307.09027099609375 C 351.63092041015625 317.3456115722656 344.3858337402344 324.7643127441406 334.1724548339844 327.6427917480469 C 323.58270263671875 324.63323974609375 316.0028381347656 317.546142578125 313.3011169433594 306.4401550292969 C 315.9457702636719 296.4324951171875 323.585693359375 289.2882080078125 333.681640625 286.3807373046875 C 344.0232238769531 289.6497497558594 351.3382263183594 296.9801330566406 354.020263671875 307.09027099609375" stroke-width="0.0" fill="rgb(235, 238, 244)" opacity="1.0"/>
    <path d="M 21.607868194580078 385.2944641113281 C 18.83111572265625 395.4740295410156 11.473925590515137 402.8305358886719 1.2824434041976929 405.53082275390625 C -9.005212783813477 402.3380432128906 -16.320636749267578 395.00042724609375 -19.000001907348633 385.0 C -16.32050895690918 375.0 -9.0 367.67950439453125 0.9998243451118469 365.00006103515625 C 10.99622917175293 367.6810607910156 18.32256317138672 375.0032043457031 21.607868194580078 385.2944641113281" stroke-width="0.0" fill="rgb(236, 241, 248)" opacity="0.9917636"/>
    <path d="M 587.56103515625 89.4937515258789 C 584.3419189453125 100.04639434814453 577.1046142578125 107.52681732177734 566.5713500976562 110.66764831542969 C 556.374755859375 107.98884582519531 548.99853515625 100.62979888916016 546.13671875 89.52428436279297 C 548.9025268554688 79.27149963378906 556.28125 71.9273910522461 567.4159545898438 69.1219711303711 C 577.7568359375 71.87633514404297 585.0545043945312 79.26793670654297 587.56103515625 89.4937515258789" stroke-width="0.0" fill="rgb(138, 146, 157)" opacity="1.0"/>
    <path d="M 94.5036849975586 545.5955810546875 C 91.32051086425781 556.0 84.0 563.3204956054688 73.98612213134766 566.008544921875 C 63.92580032348633 563.3758544921875 56.56416702270508 556.0924072265625 53.93838882446289 546.0503540039062 C 56.67949295043945 536.0 64.0 528.6795043945312 74.35517883300781 525.4434814453125 C 84.4607925415039 528.219482421875 91.91065216064453 535.4918212890625 94.5036849975586 545.5955810546875" stroke-width="0.0" fill="rgb(223, 227, 230)" opacity="1.0"/>
    <path d="M 111.20652770996094 177.93385314941406 C 108.86868286132812 187.49554443359375 101.42901611328125 194.6636199951172 91.474853515625 197.19638061523438 C 82.03190612792969 195.2289276123047 74.68135070800781 187.9943084716797 72.00003051757812 177.99989318847656 C 74.67936706542969 167.9995880126953 81.99373626708984 160.65806579589844 92.23322296142578 157.42929077148438 C 102.35291290283203 160.24806213378906 109.31204986572266 167.7574005126953 111.20652770996094 177.93385314941406" stroke-width="0.0" fill="rgb(250, 251, 250)" opacity="1.0"/>
    <path d="M 64.95494079589844 400.7510681152344 C 62.24233627319336 410.90435791015625 54.9035530090332 418.240478515625 44.84708023071289 420.9211120605469 C 33.22627639770508 418.028076171875 25.798824310302734 410.8301086425781 24.877117156982422 400.8675537109375 C 27.44108772277832 390.587890625 34.37397384643555 382.9026794433594 44.098915100097656 379.9892578125 C 54.44770431518555 382.3937683105469 62.119354248046875 389.35296630859375 64.95494079589844 400.7510681152344" stroke-width="0.0" fill="rgb(25, 26, 34)" opacity="0.99080586"/>
    <path d="M 125.0015640258789 123.99797821044922 C 122.32051086425781 134.0 115.0 141.3205108642578 105.0 144.0 C 95.0 141.3205108642578 87.67948913574219 134.0 84.86245727539062 123.86737823486328 C 87.37474060058594 113.7037582397461 94.69985961914062 106.36344909667969 104.8421859741211 103.88566589355469 C 114.9863510131836 106.72774505615234 122.32595825195312 113.99798583984375 125.0015640258789 123.99797821044922" stroke-width="0.0" fill="rgb(249, 251, 253)" opacity="0.9915671"/>
    <path d="M 319.0295715332031 265.8226623535156 C 316.7344665527344 275.7041015625 310.8336181640625 283.2042541503906 300.9169921875 284.0470275878906 C 290.9236145019531 281.3839111328125 283.61956787109375 274.0748291015625 280.97515869140625 264.6792297363281 C 283.6143798828125 255.916015625 290.90460205078125 248.58338928222656 300.5625305175781 245.8614044189453 C 309.1178894042969 248.5484619140625 316.3908386230469 255.90374755859375 319.0295715332031 265.8226623535156" stroke-width="0.0" fill="rgb(4, 5, 5)" opacity="0.990003"/>
    <path d="M 573.7489624023438 380.6124267578125 C 570.8074340820312 391.38482666015625 563.3101806640625 398.5780029296875 553.0885620117188 401.07403564453125 C 543.0067138671875 398.31463623046875 535.6882934570312 390.9924011230469 532.94580078125 380.9151611328125 C 535.4134521484375 370.6612854003906 542.56982421875 363.1359558105469 553.1477661132812 360.2614440917969 C 563.6346435546875 363.0225524902344 571.02490234375 370.3478088378906 573.7489624023438 380.6124267578125" stroke-width="0.0" fill="rgb(168, 177, 187)" opacity="1.0"/>
    <path d="M 27.02035903930664 368.0242004394531 C 24.392005920410156 378.06744384765625 17.061697006225586 385.3733215332031 7.015390396118164 388.0101318359375 C -2.999911308288574 385.3202819824219 -10.320493698120117 377.9999694824219 -13.00181770324707 367.99615478515625 C -10.345507621765137 357.9485168457031 -3.1071696281433105 350.47711181640625 6.843826770782471 347.7203674316406 C 17.0 350.67950439453125 24.32050895690918 358.0 27.02035903930664 368.0242004394531" stroke-width="0.0" fill="rgb(240, 244, 249)" opacity="0.99166876"/>
    <path d="M 588.7852172851562 128.5371551513672 C 586.0835571289062 138.721923828125 578.7174682617188 146.07379150390625 568.5234985351562 148.83584594726562 C 557.8496704101562 145.64682006835938 550.6627197265625 138.04440307617188 547.4259033203125 127.51009368896484 C 549.9756469726562 117.30327606201172 557.2770385742188 109.90434265136719 567.369873046875 107.25738525390625 C 578.0941162109375 110.62413024902344 585.6559448242188 117.81180572509766 588.7852172851562 128.5371551513672" stroke-width="0.0" fill="rgb(145, 154, 166)" opacity="1.0"/>
    <path d="M 454.5051574707031 219.9802703857422 C 451.8000793457031 230.44320678710938 444.4256286621094 237.74327087402344 434.20025634765625 240.21115112304688 C 423.99908447265625 237.32102966308594 416.68646240234375 229.99896240234375 413.57830810546875 219.64749145507812 C 416.11834716796875 209.47386169433594 423.47686767578125 202.12440490722656 433.67608642578125 199.37353515625 C 444.41455078125 202.27493286132812 451.82275390625 209.55348205566406 454.5051574707031 219.9802703857422" stroke-width="0.0" fill="rgb(204, 210, 223)" opacity="0.9915442"/>
    <path d="M 62.3958625793457 582.2427978515625 C 59.81864547729492 592.4675903320312 52.4615478515625 599.7990112304688 42.09037399291992 602.4368286132812 C 31.651954650878906 599.6982421875 24.278419494628906 592.3551025390625 21.462284088134766 581.8684692382812 C 24.151546478271484 571.496826171875 31.491514205932617 564.136474609375 42.49736404418945 561.2008666992188 C 52.52226638793945 564.0125122070312 59.61133575439453 571.6123657226562 62.3958625793457 582.2427978515625" stroke-width="0.0" fill="rgb(191, 195, 204)" opacity="1.0"/>
    <path d="M 497.7512512207031 481.2181091308594 C 495.0057067871094 491.6465148925781 487.64068603515625 498.9889831542969 477.1324768066406 501.7304992675781 C 466.4221496582031 498.9389953613281 459.06591796875 491.5762023925781 456.24176025390625 480.7427673339844 C 459.0260925292969 470.3880920410156 466.3875732421875 463.02679443359375 476.6217346191406 460.3929748535156 C 487.4770812988281 463.23480224609375 494.9197082519531 470.47283935546875 497.7512512207031 481.2181091308594" stroke-width="0.0" fill="rgb(175, 181, 193)" opacity="0.9916053"/>
    <path d="M 52.845726013183594 431.2637939453125 C 49.92569351196289 442.6996154785156 42.789310455322266 450.1853332519531 32.32469940185547 452.9502868652344 C 21.38605499267578 450.10986328125 14.46453857421875 442.3768005371094 12.713278770446777 432.6067810058594 C 15.373807907104492 421.963134765625 21.258955001831055 413.7987976074219 31.152076721191406 411.0663146972656 C 42.73612976074219 414.0116271972656 50.17776870727539 421.2013244628906 52.845726013183594 431.2637939453125" stroke-width="0.0" fill="rgb(20, 22, 28)" opacity="0.9901983"/>
    <path d="M 99.99217987060547 174.01242065429688 C 97.32051086425781 184.0 90.0 191.3205108642578 79.84383392333984 194.15428161621094 C 69.6285171508789 191.68260192871094 62.260528564453125 184.38877868652344 59.65581512451172 174.34934997558594 C 62.72285842895508 163.948486328125 69.89204406738281 156.5205535888672 79.71485137939453 153.73744201660156 C 89.85385131835938 156.91123962402344 97.26361846923828 164.09140014648438 99.99217987060547 174.01242065429688" stroke-width="0.0" fill="rgb(251, 252, 255)" opacity="0.99107504"/>
    <path d="M 480.0028381347656 174.00057983398438 C 477.34393310546875 184.05091857910156 470.10992431640625 191.53115844726562 459.92401123046875 194.539306640625 C 449.7464904785156 191.67933654785156 442.56097412109375 184.17652893066406 439.9775085449219 174.02061462402344 C 442.63092041015625 163.9049530029297 449.7960205078125 156.3113555908203 459.62005615234375 153.4415740966797 C 470.00897216796875 156.68223571777344 477.33001708984375 163.98802185058594 480.0028381347656 174.00057983398438" stroke-width="0.0" fill="rgb(191, 197, 208)" opacity="0.9924698"/>
    <path d="M 587.8968505859375 45.54026412963867 C 585.1029663085938 56.74127197265625 577.7366333007812 64.09144592285156 566.6246948242188 66.88452911376953 C 556.2608032226562 64.11064147949219 548.9111938476562 56.730079650878906 546.1261596679688 45.946800231933594 C 548.9011840820312 35.2630500793457 556.2718505859375 27.92406463623047 567.181884765625 25.14482879638672 C 577.7578125 27.897769927978516 585.1414184570312 35.2263298034668 587.8968505859375 45.54026412963867" stroke-width="0.0" fill="rgb(126, 135, 144)" opacity="1.0"/>
    <path d="M 580.8011474609375 299.5614013671875 C 577.93798828125 310.58416748046875 570.591064453125 317.95733642578125 559.8106079101562 320.7581787109375 C 549.3411865234375 318.0208740234375 541.9840087890625 310.6563720703125 539.2234497070312 300.4036560058594 C 542.1856689453125 289.60968017578125 549.6469116210938 282.2817687988281 560.544677734375 279.20245361328125 C 570.6964721679688 281.93878173828125 578.0594482421875 289.3040466308594 580.8011474609375 299.5614013671875" stroke-width="0.0" fill="rgb(168, 176, 187)" opacity="1.0"/>
    <path d="M 384.5387878417969 296.83721923828125 C 381.52911376953125 307.1776123046875 374.20379638671875 314.6081237792969 364.0622253417969 317.582275390625 C 353.9775085449219 314.4237976074219 346.700439453125 306.98529052734375 344.1082458496094 296.98968505859375 C 346.5316467285156 286.7986145019531 353.7691345214844 279.42669677734375 363.9504089355469 276.66241455078125 C 374.0945739746094 279.58843994140625 381.6006774902344 286.83990478515625 384.5387878417969 296.83721923828125" stroke-width="0.0" fill="rgb(233, 237, 244)" opacity="0.9906652"/>
    <path d="M 327.50408935546875 110.10376739501953 C 324.66094970703125 120.29344177246094 317.3016052246094 127.68666076660156 306.81951904296875 130.6848602294922 C 296.567626953125 127.80382537841797 289.2420349121094 120.41788482666016 286.4769592285156 110.17636108398438 C 289.37017822265625 99.68853759765625 296.6786193847656 92.33658599853516 307.1770324707031 89.5399169921875 C 317.3796691894531 92.28041076660156 324.703857421875 99.62409210205078 327.50408935546875 110.10376739501953" stroke-width="0.0" fill="rgb(227, 230, 238)" opacity="0.9905143"/>
    <path d="M 346.0455322265625 425.76239013671875 C 343.7584533691406 434.67578125 336.88006591796875 442.26885986328125 327.0103759765625 444.99053955078125 C 317.2450256347656 442.2010498046875 310.3898010253906 434.5057067871094 307.9568176269531 425.5357666015625 C 310.2453918457031 414.2396545410156 316.12530517578125 406.7575378417969 326.389892578125 404.0331726074219 C 337.6595764160156 406.8062438964844 343.4638977050781 415.6427917480469 346.0455322265625 425.76239013671875" stroke-width="0.0" fill="rgb(21, 24, 30)" opacity="0.9900211"/>
    <path d="M 20.233530044555664 259.29833984375 C 17.543678283691406 269.1078186035156 10.032418251037598 276.3053283691406 0.0814509317278862 279.26763916015625 C -10.0 276.32049560546875 -17.32050895690918 269.0 -20.0 259.0 C -17.32050895690918 249.0 -10.0 241.6794891357422 0.021409491077065468 238.97984313964844 C 10.043742179870605 241.6216583251953 17.2174129486084 249.0045928955078 20.233530044555664 259.29833984375" stroke-width="0.0" fill="rgb(244, 246, 252)" opacity="0.9911193"/>
    <path d="M 500.758544921875 174.36831665039062 C 497.9823303222656 184.59759521484375 490.5758361816406 191.92176818847656 480.3553771972656 194.54713439941406 C 469.97967529296875 191.40380859375 462.697509765625 183.99000549316406 460.00634765625 173.99066162109375 C 462.6727294921875 163.99148559570312 469.9893493652344 156.66563415527344 480.15081787109375 153.85452270507812 C 490.4310302734375 156.2925567626953 497.87762451171875 163.51483154296875 500.758544921875 174.36831665039062" stroke-width="0.0" fill="rgb(182, 188, 202)" opacity="1.0"/>
    <path d="M 297.9634704589844 481.6339416503906 C 295.245849609375 491.9078063964844 287.9075927734375 499.24530029296875 276.5157775878906 501.9660339355469 C 266.1041564941406 499.2498779296875 259.0509948730469 491.84100341796875 257.9656066894531 481.822998046875 C 260.6075134277344 471.91204833984375 267.91217041015625 464.60784912109375 277.5574951171875 461.9690856933594 C 286.23028564453125 464.5670166015625 295.1592102050781 470.6806945800781 297.9634704589844 481.6339416503906" stroke-width="0.0" fill="rgb(20, 24, 30)" opacity="0.9900102"/>
    <path d="M 285.697998046875 15.48086929321289 C 282.4720458984375 26.220481872558594 275.32464599609375 33.78333282470703 265.293701171875 36.66706085205078 C 254.5924835205078 33.72526931762695 247.15084838867188 26.450037002563477 244.26174926757812 15.711752891540527 C 247.06663513183594 5.454110145568848 254.49021911621094 -1.8235349655151367 264.9996337890625 -4.424496650695801 C 275.5216979980469 -1.8285449743270874 282.9619140625 5.4335432052612305 285.697998046875 15.48086929321289" stroke-width="0.0" fill="rgb(192, 198, 206)" opacity="0.99088234"/>
    <path d="M 411.25909423828125 381.0489501953125 C 408.454345703125 391.0672912597656 401.0075378417969 398.2581481933594 390.8208312988281 401.2745666503906 C 380.8796081542969 398.4698486328125 373.6470947265625 391.08837890625 371.1463317871094 380.91607666015625 C 373.59844970703125 370.9479675292969 380.9669494628906 363.66064453125 390.9963684082031 360.998046875 C 401.0000915527344 363.6794738769531 408.3264465332031 370.998291015625 411.25909423828125 381.0489501953125" stroke-width="0.0" fill="rgb(216, 222, 232)" opacity="0.9915643"/>
    <path d="M 521.837890625 109.39622497558594 C 519.0595092773438 119.68815612792969 511.6758728027344 127.0262222290039 501.49853515625 129.6349334716797 C 490.6711730957031 126.58016967773438 483.1455078125 119.4194107055664 480.305908203125 108.98919677734375 C 483.05596923828125 98.41935729980469 490.44775390625 91.14593505859375 500.8609924316406 88.6574935913086 C 511.47900390625 91.2539291381836 518.95703125 98.45169830322266 521.837890625 109.39622497558594" stroke-width="0.0" fill="rgb(155, 162, 173)" opacity="1.0"/>
    <path d="M 217.94529724121094 548.621826171875 C 215.19407653808594 558.8395385742188 207.8341827392578 566.1810302734375 196.90277099609375 568.9201049804688 C 186.16586303710938 566.1845703125 178.83993530273438 558.8246459960938 176.18116760253906 548.6788940429688 C 179.75303649902344 538.1692504882812 187.231689453125 530.9793090820312 196.67108154296875 528.5814819335938 C 206.78323364257812 531.15234375 215.0251922607422 537.6025390625 217.94529724121094 548.621826171875" stroke-width="0.0" fill="rgb(149, 157, 167)" opacity="0.99014825"/>
    <path d="M 487.3354797363281 283.7665710449219 C 484.32049560546875 294.0 477.0 301.32049560546875 466.7502136230469 304.26226806640625 C 456.49932861328125 301.8150329589844 449.11639404296875 294.5224914550781 446.5838928222656 284.3455810546875 C 449.65716552734375 273.95965576171875 456.93316650390625 266.57037353515625 467.2425537109375 263.5999450683594 C 477.3606262207031 266.2687683105469 484.7087097167969 273.6470642089844 487.3354797363281 283.7665710449219" stroke-width="0.0" fill="rgb(200, 206, 217)" opacity="0.9917177"/>
    <path d="M 393.0035705566406 475.0064697265625 C 390.35540771484375 485.0634460449219 383.1156311035156 492.5224914550781 372.646484375 495.55767822265625 C 362.2849426269531 493.00848388671875 354.8367614746094 485.7734069824219 352.1255187988281 475.77752685546875 C 355.3896179199219 464.8293762207031 362.9028625488281 457.6151428222656 373.04913330078125 455.1236267089844 C 383.0003662109375 457.67822265625 390.32049560546875 465.0 393.0035705566406 475.0064697265625" stroke-width="0.0" fill="rgb(201, 207, 216)" opacity="1.0"/>
    <path d="M 84.02826690673828 300.69964599609375 C 81.38941192626953 310.0890197753906 74.10197448730469 317.42626953125 64.11405181884766 321.9331970214844 C 54.11944580078125 319.2329406738281 46.965206146240234 311.8362121582031 45.960025787353516 301.797119140625 C 48.57284927368164 291.8059997558594 55.4005241394043 282.8964538574219 64.45878601074219 280.04559326171875 C 74.21074676513672 283.60931396484375 81.40201568603516 291.87530517578125 84.02826690673828 300.69964599609375" stroke-width="0.0" fill="rgb(17, 21, 27)" opacity="0.99000573"/>
    <path d="M 445.52978515625 239.06410217285156 C 442.75238037109375 249.4169921875 435.4363708496094 256.8107604980469 424.7965087890625 259.7003479003906 C 414.52972412109375 256.85504150390625 407.2424011230469 249.43898010253906 404.3638000488281 238.77586364746094 C 407.2356872558594 228.6097412109375 414.6290283203125 221.29934692382812 424.8193359375 218.80252075195312 C 435.0128479003906 221.67788696289062 442.4805908203125 228.93836975097656 445.52978515625 239.06410217285156" stroke-width="0.0" fill="rgb(214, 219, 229)" opacity="0.99061924"/>
    <path d="M 150.41119384765625 117.74610900878906 C 147.27247619628906 127.94951629638672 139.96263122558594 135.32177734375 130.2141876220703 137.63320922851562 C 120.06592559814453 135.17066955566406 112.6884536743164 127.97714233398438 110.02376556396484 118.00389099121094 C 112.64578247070312 107.91748809814453 119.87615966796875 100.50868225097656 130.05401611328125 97.88108825683594 C 140.27316284179688 100.45653533935547 147.70355224609375 107.67935180664062 150.41119384765625 117.74610900878906" stroke-width="0.0" fill="rgb(250, 252, 252)" opacity="0.9907517"/>
    <path d="M 64.95587158203125 385.2314147949219 C 62.08380126953125 396.5927734375 54.38363265991211 403.5544738769531 44.09088134765625 405.9975280761719 C 34.379241943359375 403.08770751953125 27.42972183227539 395.41949462890625 24.948034286499023 386.437744140625 C 27.463619232177734 376.6268310546875 34.42721939086914 368.94989013671875 44.438072204589844 365.65509033203125 C 54.80109405517578 367.93914794921875 62.22960662841797 375.1406555175781 64.95587158203125 385.2314147949219" stroke-width="0.0" fill="rgb(25, 29, 36)" opacity="0.9900501"/>
    <path d="M 610.0418090820312 103.00366973876953 C 607.4844360351562 113.25574493408203 600.4049072265625 120.89844512939453 590.45703125 123.78665924072266 C 579.903076171875 120.53724670410156 572.6482543945312 113.03754425048828 569.968994140625 103.01396942138672 C 572.6522216796875 92.93035125732422 579.7880859375 85.26039123535156 590.1534423828125 82.17300415039062 C 600.425048828125 85.08432006835938 607.4849243164062 92.7293472290039 610.0418090820312 103.00366973876953" stroke-width="0.0" fill="rgb(137, 146, 156)" opacity="1.0"/>
    <path d="M 506.0282897949219 300.9568176269531 C 503.32293701171875 311.00579833984375 496.01617431640625 318.3587951660156 485.73968505859375 321.41748046875 C 475.5284729003906 318.8144226074219 468.1695251464844 311.47711181640625 465.6283874511719 301.30426025390625 C 468.6839599609375 291.00250244140625 476.0013732910156 283.67999267578125 486.3356628417969 280.5316467285156 C 496.35089111328125 283.20526123046875 503.4941711425781 290.74786376953125 506.0282897949219 300.9568176269531" stroke-width="0.0" fill="rgb(195, 201, 212)" opacity="0.99129224"/>
    <path d="M 577.772216796875 411.2092590332031 C 575.003662109375 421.62152099609375 567.6021118164062 428.95196533203125 557.332763671875 431.68426513671875 C 546.8612670898438 428.5876770019531 539.651611328125 421.0611877441406 537.0120849609375 411.0062561035156 C 539.6841430664062 401.0028076171875 547.0020751953125 393.6816711425781 557.357421875 390.6229248046875 C 567.62109375 393.06256103515625 574.99755859375 400.35955810546875 577.772216796875 411.2092590332031" stroke-width="0.0" fill="rgb(166, 173, 185)" opacity="1.0"/>
    <path d="M 93.66375732421875 573.5177001953125 C 90.97329711914062 583.5775146484375 83.55113220214844 590.9063720703125 73.2970962524414 593.6886596679688 C 62.63198471069336 590.7913208007812 55.53278732299805 583.269775390625 52.67094421386719 572.688232421875 C 55.24822998046875 562.6796264648438 62.766361236572266 555.5191040039062 72.96460723876953 552.9894409179688 C 83.0 555.6795043945312 90.32042694091797 563.0 93.66375732421875 573.5177001953125" stroke-width="0.0" fill="rgb(159, 164, 172)" opacity="0.9900936"/>
    <path d="M 607.264404296875 491.9372863769531 C 604.7267456054688 502.4827880859375 597.5840454101562 510.018310546875 587.3560180664062 512.847412109375 C 576.5411987304688 509.9196472167969 569.432373046875 502.33734130859375 566.96728515625 492.0737609863281 C 569.6888427734375 482.0062255859375 577.0045776367188 474.6831359863281 587.3528442382812 471.5965881347656 C 597.5318603515625 474.1023864746094 604.7762451171875 481.5055847167969 607.264404296875 491.9372863769531" stroke-width="0.0" fill="rgb(145, 153, 166)" opacity="1.0"/>
    <path d="M 208.72348022460938 499.47882080078125 C 205.03074645996094 508.22882080078125 197.12771606445312 515.3958740234375 187.35647583007812 518.0257568359375 C 178.89401245117188 515.3988647460938 171.45538330078125 508.1414794921875 167.0417938232422 498.24786376953125 C 169.8563232421875 488.4587707519531 178.30084228515625 482.17413330078125 188.31466674804688 479.0900573730469 C 198.10289001464844 481.5477294921875 205.41104125976562 488.9093322753906 208.72348022460938 499.47882080078125" stroke-width="0.0" fill="rgb(6, 6, 8)" opacity="0.99001014"/>
    <path d="M 76.92438507080078 523.254150390625 C 73.91812896728516 533.3532104492188 66.12845611572266 540.3741455078125 56.00569534301758 543.0022583007812 C 46.0 540.3204956054688 38.67949295043945 533.0 36.13447189331055 523.0908813476562 C 38.616485595703125 512.5552368164062 45.28670120239258 504.8238220214844 55.16041564941406 502.0753173828125 C 66.099609375 505.6413269042969 73.88492584228516 512.6849975585938 76.92438507080078 523.254150390625" stroke-width="0.0" fill="rgb(22, 24, 30)" opacity="0.9903913"/>
    <path d="M 60.95166015625 365.2711486816406 C 58.105010986328125 376.6322021484375 50.44062805175781 383.6045227050781 40.401039123535156 385.6998291015625 C 30.775238037109375 382.6125793457031 23.573604583740234 375.1611328125 20.921926498413086 365.1497497558594 C 22.67949104309082 356.0 30.0 348.67950439453125 40.79853820800781 345.1537170410156 C 50.89637756347656 347.7740478515625 58.23867416381836 355.098876953125 60.95166015625 365.2711486816406" stroke-width="0.0" fill="rgb(28, 32, 38)" opacity="0.9900267"/>
    <path d="M 66.41557312011719 247.2892303466797 C 63.80548858642578 257.3757629394531 56.285526275634766 264.5262145996094 45.975189208984375 267.3114013671875 C 35.80514907836914 264.4120788574219 28.357759475708008 257.26092529296875 25.495346069335938 247.20089721679688 C 28.946773529052734 237.21456909179688 36.14595413208008 229.69366455078125 45.98165512084961 226.3660125732422 C 56.20493698120117 229.39939880371094 63.3228874206543 236.8722381591797 66.41557312011719 247.2892303466797" stroke-width="0.0" fill="rgb(251, 253, 255)" opacity="0.9905499"/>
    <path d="M 335.1524353027344 556.84228515625 C 332.32049560546875 567.0 325.0003356933594 574.3216552734375 314.48724365234375 577.622802734375 C 304.32891845703125 575.0230712890625 296.99053955078125 567.6665649414062 294.317138671875 556.9176025390625 C 296.9396057128906 546.2578735351562 304.2364196777344 538.876953125 314.3800964355469 536.208740234375 C 325.43505859375 539.1959228515625 332.6957702636719 546.5986938476562 335.1524353027344 556.84228515625" stroke-width="0.0" fill="rgb(200, 204, 212)" opacity="1.0"/>
    <path d="M 104.84849548339844 557.56103515625 C 102.11317443847656 567.7518310546875 94.73102569580078 575.05224609375 84.49378967285156 577.5081787109375 C 74.0241928100586 574.288330078125 66.6759033203125 566.9859619140625 64.013671875 557.0192260742188 C 66.60275268554688 546.8746337890625 73.71302032470703 539.1788330078125 83.52436065673828 536.1678466796875 C 94.2020034790039 539.485595703125 101.77848815917969 546.7008056640625 104.84849548339844 557.56103515625" stroke-width="0.0" fill="rgb(165, 173, 181)" opacity="0.9902781"/>
    <path d="M 432.6536865234375 409.6187438964844 C 429.60137939453125 420.2500305175781 422.2796630859375 427.68988037109375 412.22784423828125 430.5215148925781 C 401.82147216796875 427.5716857910156 394.6240234375 420.118896484375 391.80914306640625 409.8897399902344 C 394.5409240722656 399.9169921875 401.9017639160156 392.4930725097656 412.0438537597656 389.49285888671875 C 422.4990234375 392.19305419921875 429.93377685546875 399.4586181640625 432.6536865234375 409.6187438964844" stroke-width="0.0" fill="rgb(207, 213, 223)" opacity="0.9911006"/>
    <path d="M 133.02691650390625 352.40533447265625 C 130.38836669921875 361.0952453613281 123.13386535644531 368.55718994140625 113.12266540527344 372.9627990722656 C 103.08133697509766 370.2572021484375 95.74932861328125 362.9156799316406 93.05370330810547 352.9035949707031 C 97.56907653808594 342.9009704589844 104.9169692993164 335.61663818359375 114.23639678955078 332.9754943847656 C 123.06863403320312 335.6219177246094 130.37612915039062 342.93218994140625 133.02691650390625 352.40533447265625" stroke-width="0.0" fill="rgb(2, 2, 4)" opacity="0.9900034"/>
    <path d="M 395.29534912109375 151.93875122070312 C 392.6697998046875 162.3330841064453 385.3398742675781 169.69187927246094 375.258056640625 172.3545684814453 C 364.9654235839844 169.3721923828125 357.66778564453125 162.022216796875 354.9613037109375 151.9583740234375 C 357.5459289550781 141.85015869140625 364.83709716796875 134.50315856933594 374.9880065917969 131.89816284179688 C 385.2339172363281 134.4902801513672 392.6874694824219 141.7102813720703 395.29534912109375 151.93875122070312" stroke-width="0.0" fill="rgb(213, 219, 227)" opacity="0.9935023"/>
    <path d="M 433.9918518066406 314.05963134765625 C 431.5693664550781 324.3138122558594 424.3898620605469 331.8106689453125 414.36297607421875 334.6051025390625 C 403.6732177734375 331.6531066894531 396.2911682128906 324.34429931640625 393.4977111816406 313.9119873046875 C 396.48712158203125 303.915771484375 403.9723205566406 296.6677551269531 413.99853515625 293.99932861328125 C 424.0 296.67950439453125 431.32049560546875 304.0 433.9918518066406 314.05963134765625" stroke-width="0.0" fill="rgb(220, 225, 234)" opacity="0.9912683"/>
    <path d="M 343.5333251953125 190.40257263183594 C 340.77325439453125 200.35470581054688 333.3091125488281 207.6428985595703 322.94293212890625 210.62220764160156 C 312.7163391113281 207.64224243164062 305.3942565917969 200.27455139160156 302.5474853515625 189.87254333496094 C 305.30419921875 179.69451904296875 312.7612609863281 172.53659057617188 322.995361328125 170.08480834960938 C 333.11041259765625 172.5836639404297 340.389404296875 179.8966064453125 343.5333251953125 190.40257263183594" stroke-width="0.0" fill="rgb(244, 246, 250)" opacity="0.99053127"/>
    <path d="M 27.036407470703125 443.82403564453125 C 24.58749008178711 452.475341796875 17.714101791381836 460.08819580078125 7.483797073364258 462.11468505859375 C -2.1112148761749268 460.575439453125 -9.328085899353027 453.03009033203125 -12.004280090332031 442.9916076660156 C -9.359274864196777 432.9356994628906 -2.0967469215393066 425.53546142578125 7.498641014099121 423.36932373046875 C 17.149152755737305 426.4909362792969 24.397090911865234 433.88836669921875 27.036407470703125 443.82403564453125" stroke-width="0.0" fill="rgb(241, 243, 249)" opacity="0.9900144"/>
    <path d="M 556.7796020507812 273.8512268066406 C 553.8280029296875 284.3682861328125 546.3134155273438 291.6906433105469 535.6597290039062 294.6900634765625 C 525.4180908203125 291.96234130859375 518.1017456054688 284.55889892578125 515.3802490234375 274.0768127441406 C 518.10107421875 263.4241638183594 525.4028930664062 256.0365295410156 535.8788452148438 253.2969512939453 C 546.6064453125 256.05810546875 554.0 263.3726806640625 556.7796020507812 273.8512268066406" stroke-width="0.0" fill="rgb(178, 185, 197)" opacity="0.99154985"/>
    <path d="M 521.8251953125 303.9045715332031 C 518.9515380859375 314.5513000488281 511.52178955078125 321.8698425292969 501.0957336425781 324.5762634277344 C 490.7080993652344 321.7302551269531 483.5484619140625 314.2014465332031 480.9939880371094 304.0308837890625 C 483.6744079589844 293.97662353515625 490.9046630859375 286.4503173828125 501.2395935058594 283.3119812011719 C 511.6121520996094 286.0461120605469 519.015625 293.365478515625 521.8251953125 303.9045715332031" stroke-width="0.0" fill="rgb(190, 196, 205)" opacity="1.0"/>
    <path d="M 352.46307373046875 568.3505249023438 C 349.8553161621094 578.4906005859375 342.4842224121094 585.8372802734375 331.92529296875 588.6434326171875 C 321.5368957519531 585.8571166992188 314.2769470214844 578.4190673828125 311.4808654785156 567.9315795898438 C 314.4310607910156 557.8754272460938 321.94866943359375 550.6583862304688 332.0081481933594 547.8863525390625 C 342.00604248046875 550.6638793945312 349.3211669921875 557.9981689453125 352.46307373046875 568.3505249023438" stroke-width="0.0" fill="rgb(183, 188, 198)" opacity="1.0"/>
    <path d="M 105.52001190185547 4.346686363220215 C 102.91363525390625 14.577933311462402 95.59947967529297 21.975740432739258 85.1611557006836 24.779766082763672 C 74.44330596923828 21.936403274536133 67.11940002441406 14.537033081054688 64.4533920288086 4.314486503601074 C 67.5940933227539 -6.0343828201293945 74.98957824707031 -13.324528694152832 84.99992370605469 -16.00028419494629 C 95.0080337524414 -13.323661804199219 102.38203430175781 -6.025036334991455 105.52001190185547 4.346686363220215" stroke-width="0.0" fill="rgb(187, 192, 202)" opacity="0.99049705"/>
    <path d="M 44.0576057434082 347.15570068359375 C 41.42048645019531 357.16705322265625 34.36837387084961 366.0115661621094 25.603609085083008 368.93841552734375 C 14.604592323303223 365.94512939453125 7.6004533767700195 358.1734313964844 4.8354878425598145 347.9513854980469 C 7.6558990478515625 337.9828186035156 14.988021850585938 330.6726379394531 24.991809844970703 328.00238037109375 C 34.90778350830078 330.7248229980469 42.02110290527344 338.1749572753906 44.0576057434082 347.15570068359375" stroke-width="0.0" fill="rgb(239, 242, 247)" opacity="0.9900447"/>
    <path d="M 445.6546936035156 299.3013916015625 C 442.78411865234375 309.3751220703125 435.3237609863281 316.6261901855469 425.1268615722656 319.13323974609375 C 415.0 316.32049560546875 407.67950439453125 309.0 404.8446960449219 298.859375 C 407.3585205078125 288.6690368652344 414.6224365234375 281.21630859375 424.66925048828125 278.5197448730469 C 435.0189514160156 281.67138671875 442.4430847167969 288.9465637207031 445.6546936035156 299.3013916015625" stroke-width="0.0" fill="rgb(213, 218, 228)" opacity="0.9925733"/>
    <path d="M 499.85540771484375 48.29856872558594 C 497.0863952636719 58.73728942871094 489.73687744140625 66.08353424072266 479.57452392578125 68.65298461914062 C 468.9548034667969 65.3376235961914 461.3512878417969 58.15176010131836 458.1957092285156 47.543479919433594 C 460.9216613769531 37.26569747924805 468.2591857910156 29.904142379760742 478.4564208984375 27.20002555847168 C 489.4782409667969 30.225692749023438 497.0016174316406 37.43445587158203 499.85540771484375 48.29856872558594" stroke-width="0.0" fill="rgb(144, 149, 162)" opacity="1.0"/>
    <path d="M 120.96951293945312 393.5751647949219 C 118.25514221191406 404.9216613769531 110.92277526855469 412.25762939453125 99.93975830078125 414.9675598144531 C 89.0761489868164 412.2574157714844 81.73882293701172 404.9254455566406 79.02891540527344 394.4419250488281 C 81.74176788330078 383.0749816894531 89.07550048828125 375.7431335449219 100.26583099365234 373.0359191894531 C 110.92566680908203 375.7421875 118.2618179321289 383.0726623535156 120.96951293945312 393.5751647949219" stroke-width="0.0" fill="rgb(6, 10, 15)" opacity="1.0"/>
    <path d="M 415.5611267089844 370.96270751953125 C 412.5497131347656 381.1014709472656 405.03143310546875 388.33148193359375 395.0006103515625 390.9996337890625 C 384.9998474121094 388.3206481933594 377.6831359863281 380.9991455078125 374.6787109375 370.7724914550781 C 377.3766784667969 360.73443603515625 384.7387390136719 353.3918151855469 395.36199951171875 350.3572692871094 C 405.4776916503906 353.13433837890625 412.7948913574219 360.5460205078125 415.5611267089844 370.96270751953125" stroke-width="0.0" fill="rgb(219, 223, 232)" opacity="0.9909853"/>
    <path d="M 435.98870849609375 307.0005798339844 C 433.3187561035156 316.9995422363281 426.00030517578125 324.3213195800781 416.0008544921875 327.0004577636719 C 406.0005187988281 324.31976318359375 398.66650390625 317.00323486328125 395.8188781738281 306.90631103515625 C 398.2489013671875 296.5587463378906 405.5461730957031 289.2060546875 415.7481994628906 286.714599609375 C 425.9981994628906 289.6811218261719 433.3169250488281 297.00238037109375 435.98870849609375 307.0005798339844" stroke-width="0.0" fill="rgb(218, 224, 233)" opacity="0.99207467"/>
    <path d="M 550.8901977539062 23.57513427734375 C 548.1008911132812 34.755096435546875 540.761962890625 42.11878204345703 529.656494140625 44.90217590332031 C 519.2278442382812 42.140464782714844 511.92962646484375 34.7464485168457 509.41558837890625 24.529630661010742 C 512.67919921875 13.999652862548828 519.9995727539062 6.678832530975342 530.6239624023438 3.279329776763916 C 540.76123046875 5.894032001495361 548.1319580078125 13.2290620803833 550.8901977539062 23.57513427734375" stroke-width="0.0" fill="rgb(130, 138, 148)" opacity="1.0"/>
    <path d="M 586.3194580078125 452.6814270019531 C 583.3204956054688 463.00006103515625 576.000244140625 470.32122802734375 565.527099609375 473.5812683105469 C 555.3695678710938 470.9853210449219 547.9915161132812 463.638427734375 545.1886596679688 453.1796875 C 547.9853515625 442.33990478515625 555.3355102539062 434.9735412597656 566.3243408203125 432.15875244140625 C 576.6595458984375 434.9523620605469 583.9130249023438 442.38616943359375 586.3194580078125 452.6814270019531" stroke-width="0.0" fill="rgb(158, 167, 179)" opacity="0.9908605"/>
    <path d="M 365.12060546875 143.9169158935547 C 362.3199462890625 153.9998321533203 354.9999694824219 161.3205108642578 345.0 164.0 C 335.0 161.3205108642578 327.67950439453125 154.0 325.0000305175781 144.00010681152344 C 327.6806945800781 134.00331115722656 335.0119934082031 126.71115112304688 345.1017761230469 123.75138092041016 C 355.09814453125 126.56443786621094 362.4699401855469 133.89028930664062 365.12060546875 143.9169158935547" stroke-width="0.0" fill="rgb(222, 225, 234)" opacity="0.99447495"/>
    <path d="M 245.93887329101562 582.132568359375 C 241.47091674804688 592.1493530273438 234.14613342285156 599.4588012695312 225.16603088378906 602.1373901367188 C 215.85133361816406 599.4555053710938 208.5523681640625 592.1460571289062 205.91329956054688 582.1896362304688 C 206.86480712890625 572.149658203125 214.114013671875 564.7588500976562 224.21981811523438 562.043212890625 C 235.80735778808594 564.835205078125 243.20761108398438 572.1697998046875 245.93887329101562 582.132568359375" stroke-width="0.0" fill="rgb(2, 2, 3)" opacity="0.9900048"/>
    <path d="M 259.6214599609375 135.65147399902344 C 256.2945251464844 146.07110595703125 249.14404296875 153.53729248046875 239.3182373046875 155.98582458496094 C 229.04672241210938 153.1343994140625 221.5599365234375 146.05311584472656 218.75518798828125 136.01724243164062 C 221.48895263671875 125.82151794433594 228.7889862060547 118.388916015625 238.92340087890625 115.49425506591797 C 249.1689910888672 118.63311004638672 256.7450256347656 125.70987701416016 259.6214599609375 135.65147399902344" stroke-width="0.0" fill="rgb(251, 252, 252)" opacity="0.99056166"/>
    <path d="M 543.8297119140625 485.1932678222656 C 541.0633544921875 495.69696044921875 533.6950073242188 503.05853271484375 522.9368896484375 505.86468505859375 C 512.3245239257812 503.0603942871094 505.0087890625 495.6485595703125 502.1925964355469 484.7642822265625 C 504.97210693359375 474.324462890625 512.3151245117188 466.9485168457031 523.0750732421875 464.1703186035156 C 533.6795654296875 466.9589538574219 541.0386962890625 474.32110595703125 543.8297119140625 485.1932678222656" stroke-width="0.0" fill="rgb(160, 168, 182)" opacity="1.0"/>
    <path d="M 492.01507568359375 138.97772216796875 C 489.3209533691406 149.00076293945312 482.0012512207031 156.3225860595703 471.873779296875 159.14039611816406 C 461.680908203125 156.6206817626953 454.210693359375 149.37425231933594 451.2490234375 138.81472778320312 C 454.0733947753906 128.41763305664062 461.3874206542969 120.99468231201172 471.53802490234375 118.23262023925781 C 482.2413635253906 121.30693054199219 489.417236328125 128.84945678710938 492.01507568359375 138.97772216796875" stroke-width="0.0" fill="rgb(180, 186, 197)" opacity="0.99106973"/>
    <path d="M 156.92092895507812 569.2650146484375 C 154.09515380859375 580.722900390625 146.6827850341797 587.9630126953125 135.22515869140625 589.5785522460938 C 125.09625244140625 588.2255859375 117.74835968017578 580.9132690429688 115.04165649414062 570.6403198242188 C 117.76921844482422 559.1075439453125 125.1142349243164 551.7879028320312 136.7728729248047 549.0780029296875 C 146.90953063964844 551.7552490234375 154.2357635498047 559.0939331054688 156.92092895507812 569.2650146484375" stroke-width="0.0" fill="rgb(45, 43, 40)" opacity="1.0"/>
    <path d="M 343.5982971191406 74.7116470336914 C 340.7351379394531 85.41191101074219 333.4163818359375 92.75049591064453 322.9151611328125 95.44063568115234 C 312.517333984375 92.81554412841797 305.14508056640625 85.49552154541016 302.5354309082031 75.30101013183594 C 305.39105224609375 64.67652130126953 312.6289367675781 57.23820877075195 323.2565612792969 54.29264831542969 C 333.4944152832031 57.12530517578125 340.8619689941406 64.5099868774414 343.5982971191406 74.7116470336914" stroke-width="0.0" fill="rgb(204, 209, 220)" opacity="0.99134755"/>
    <path d="M 24.843544006347656 230.1131134033203 C 22.517440795898438 240.19252014160156 15.180814743041992 247.47633361816406 5.040931701660156 250.01004028320312 C -4.999997138977051 247.3205108642578 -12.320508003234863 240.0 -15.000225067138672 229.9994354248047 C -12.32553482055664 219.9876251220703 -5.0344696044921875 212.59970092773438 5.157406330108643 209.65171813964844 C 15.396208763122559 212.28733825683594 22.69385528564453 219.6082000732422 24.843544006347656 230.1131134033203" stroke-width="0.0" fill="rgb(243, 246, 251)" opacity="0.99097425"/>
    <path d="M 122.03067016601562 130.0296630859375 C 119.3899917602539 140.0341796875 111.9528579711914 147.14186096191406 101.58391571044922 150.4397735595703 C 91.61260986328125 147.7698516845703 84.23786926269531 140.3846893310547 81.33295440673828 130.2092742919922 C 84.5577163696289 119.95369720458984 91.99014282226562 112.67867279052734 102.00093841552734 110.00105285644531 C 112.0 112.67948913574219 119.32051086425781 120.0 122.03067016601562 130.0296630859375" stroke-width="0.0" fill="rgb(251, 252, 254)" opacity="0.99104804"/>
    <path d="M 53.29118347167969 526.5633544921875 C 51.31560516357422 535.99853515625 44.02379608154297 543.4017333984375 33.66762924194336 546.6353759765625 C 23.559423446655273 543.8369140625 16.286067962646484 536.4003295898438 13.412327766418457 525.82568359375 C 16.31876564025879 515.7249755859375 23.755207061767578 508.41229248046875 34.463321685791016 505.3924255371094 C 44.51815414428711 507.992431640625 50.6851806640625 516.08935546875 53.29118347167969 526.5633544921875" stroke-width="0.0" fill="rgb(211, 215, 225)" opacity="0.9904283"/>
    <path d="M 179.98902893066406 66.2920150756836 C 177.67791748046875 76.35062408447266 170.35699462890625 83.69688415527344 160.10667419433594 86.478515625 C 149.74319458007812 83.6332778930664 142.6106414794922 76.19088745117188 140.3450469970703 65.78689575195312 C 142.4491729736328 55.783302307128906 149.78065490722656 48.438255310058594 159.83120727539062 45.585304260253906 C 170.0457000732422 48.622291564941406 177.2069091796875 56.00551223754883 179.98902893066406 66.2920150756836" stroke-width="0.0" fill="rgb(238, 239, 241)" opacity="0.99057287"/>
    <path d="M 22.740163803100586 13.009367942810059 C 19.962120056152344 23.613754272460938 12.612568855285645 30.959056854248047 2.4150571823120117 33.58206558227539 C -8.00871467590332 30.347124099731445 -15.320967674255371 23.00140953063965 -18.000009536743164 13.00002670288086 C -15.320508003234863 3.0 -8.0 -4.320508003234863 2.0558061599731445 -7.043852806091309 C 12.255805015563965 -4.512678146362305 19.818939208984375 2.6403305530548096 22.740163803100586 13.009367942810059" stroke-width="0.0" fill="rgb(177, 184, 193)" opacity="0.99109095"/>
    <path d="M 369.6299133300781 447.91839599609375 C 366.69598388671875 458.3035888671875 359.3105163574219 465.72039794921875 348.32763671875 468.710693359375 C 338.25079345703125 466.09527587890625 330.8858642578125 458.7574462890625 328.2986145019531 448.62506103515625 C 331.65252685546875 437.93792724609375 338.8462829589844 430.3767395019531 348.718994140625 427.4637451171875 C 359.2105712890625 430.5334777832031 366.72418212890625 437.7076721191406 369.6299133300781 447.91839599609375" stroke-width="0.0" fill="rgb(216, 218, 226)" opacity="1.0"/>
    <path d="M 40.586524963378906 303.0148620605469 C 37.49393844604492 313.11175537109375 30.096363067626953 320.4378967285156 19.97265625 323.1435546875 C 9.790224075317383 320.5149230957031 2.3296916484832764 313.2594909667969 -0.38656824827194214 303.38055419921875 C 2.7850747108459473 292.95538330078125 9.932223320007324 285.7082214355469 20.37540626525879 282.5040588378906 C 30.4050235748291 285.2102355957031 37.64835739135742 292.63916015625 40.586524963378906 303.0148620605469" stroke-width="0.0" fill="rgb(245, 248, 253)" opacity="0.9905536"/>
    <path d="M 89.95664978027344 478.1876525878906 C 87.08795166015625 489.587646484375 79.3581314086914 496.5220642089844 68.44774627685547 499.5284118652344 C 58.15138626098633 497.13824462890625 50.764469146728516 489.8815612792969 48.04084777832031 479.1153259277344 C 50.76346969604492 468.1093444824219 58.12508010864258 460.8060607910156 69.82113647460938 458.0596923828125 C 79.9183349609375 460.74859619140625 87.25434112548828 468.0804138183594 89.95664978027344 478.1876525878906" stroke-width="0.0" fill="rgb(17, 21, 28)" opacity="1.0"/>
    <path d="M 352.0047912597656 139.98568725585938 C 349.32061767578125 150.00057983398438 342.0066833496094 157.3427734375 331.85400390625 160.50259399414062 C 321.814453125 157.5854949951172 314.50115966796875 150.15606689453125 311.6538391113281 140.1938934326172 C 314.5007629394531 129.74403381347656 321.677490234375 122.27593231201172 331.8113708496094 119.48258209228516 C 342.1525573730469 122.46350860595703 349.3885498046875 129.89324951171875 352.0047912597656 139.98568725585938" stroke-width="0.0" fill="rgb(229, 232, 239)" opacity="0.9906868"/>
    <path d="M 511.7963562011719 140.0193328857422 C 508.9972229003906 150.63681030273438 501.6273498535156 157.96923828125 491.4302673339844 160.50454711914062 C 481.0091247558594 157.31289672851562 473.69671630859375 149.9880828857422 471.0025329589844 139.9423065185547 C 473.48150634765625 129.7118377685547 480.604248046875 122.15638732910156 490.65765380859375 119.46847534179688 C 501.34234619140625 122.41153717041016 508.9031066894531 129.5498504638672 511.7963562011719 140.0193328857422" stroke-width="0.0" fill="rgb(172, 179, 190)" opacity="0.9956595"/>
    <path d="M 427.8504638671875 23.756380081176758 C 425.0453796386719 34.67460632324219 417.660400390625 42.007816314697266 407.0888366699219 44.77853012084961 C 396.41143798828125 41.95787048339844 389.02752685546875 34.59415054321289 386.22503662109375 24.077098846435547 C 389.0163879394531 13.366964340209961 396.35675048828125 5.9880805015563965 407.27655029296875 3.177008628845215 C 417.7290954589844 5.912100315093994 425.0722961425781 13.2775239944458 427.8504638671875 23.756380081176758" stroke-width="0.0" fill="rgb(157, 164, 174)" opacity="0.9926838"/>
    <path d="M 604.5150146484375 460.93011474609375 C 601.8762817382812 471.536865234375 594.5236206054688 478.8329772949219 584.2531127929688 481.251708984375 C 573.9985961914062 478.3232421875 566.6802368164062 471.0003967285156 564.0156860351562 461.00146484375 C 566.6716918945312 450.9645690917969 573.8648681640625 443.37603759765625 584.417236328125 440.2103576660156 C 594.6565551757812 442.96881103515625 601.9323120117188 450.3763427734375 604.5150146484375 460.93011474609375" stroke-width="0.0" fill="rgb(152, 160, 171)" opacity="1.0"/>
    <path d="M 131.49134826660156 40.30274200439453 C 128.75128173828125 50.344154357910156 121.29532623291016 57.59935760498047 110.86773681640625 60.391483306884766 C 100.60289764404297 57.72672653198242 93.20254516601562 50.41902542114258 90.3958969116211 40.327911376953125 C 93.41227722167969 29.77172088623047 100.78175354003906 22.443593978881836 111.2276840209961 19.48797035217285 C 121.36571502685547 22.240726470947266 128.5547637939453 29.69498062133789 131.49134826660156 40.30274200439453" stroke-width="0.0" fill="rgb(216, 220, 227)" opacity="0.9907215"/>
    <path d="M 319.1890563964844 230.99183654785156 C 316.7009582519531 240.53211975097656 309.6268310546875 247.91104125976562 299.9837646484375 250.15093994140625 C 290.42633056640625 247.88731384277344 283.2591857910156 240.51988220214844 280.73590087890625 230.45233154296875 C 281.9609680175781 220.2349853515625 289.20794677734375 212.86293029785156 299.27490234375 211.24757385253906 C 309.3782653808594 214.3695526123047 316.67913818359375 221.60191345214844 319.1890563964844 230.99183654785156" stroke-width="0.0" fill="rgb(145, 151, 162)" opacity="0.99003714"/>
    <path d="M 373.0436096191406 161.0651092529297 C 370.5089416503906 171.2115020751953 363.2545166015625 178.6492919921875 353.2176208496094 181.54808044433594 C 342.8044128417969 178.49131774902344 335.3901062011719 171.23257446289062 332.65252685546875 161.14382934570312 C 335.66973876953125 150.99734497070312 342.9999084472656 143.6791534423828 352.9991455078125 140.9993438720703 C 362.998291015625 143.68080139160156 370.3161315917969 151.00259399414062 373.0436096191406 161.0651092529297" stroke-width="0.0" fill="rgb(227, 231, 238)" opacity="0.9908767"/>
    <path d="M 35.38066101074219 134.21958923339844 C 32.584171295166016 144.21018981933594 25.206933975219727 151.56822204589844 14.723123550415039 154.5122528076172 C 4.721238136291504 151.6908416748047 -2.53706693649292 144.22984313964844 -5.18192195892334 133.9764404296875 C -2.557307243347168 123.7860107421875 4.813083171844482 116.5362777709961 15.009146690368652 113.73966979980469 C 25.17743492126465 116.4566421508789 32.41332244873047 123.86033630371094 35.38066101074219 134.21958923339844" stroke-width="0.0" fill="rgb(227, 230, 238)" opacity="0.9908226"/>
    <path d="M 381.68292236328125 539.4068603515625 C 378.82025146484375 549.3428344726562 371.2215881347656 556.4695434570312 361.0367736816406 559.0252075195312 C 350.9999694824219 556.3204956054688 343.67803955078125 549.0004272460938 340.7825012207031 538.9428100585938 C 343.65057373046875 528.9945678710938 351.00555419921875 521.6893920898438 361.0042724609375 519.0202026367188 C 371.015869140625 521.6740112304688 378.4237976074219 528.9549560546875 381.68292236328125 539.4068603515625" stroke-width="0.0" fill="rgb(187, 193, 203)" opacity="0.9934706"/>
    <path d="M 612.0260009765625 261.9792785644531 C 609.4005126953125 272.1484375 602.2763671875 279.7679138183594 591.6491088867188 282.7671813964844 C 581.3026733398438 280.0509948730469 573.9505615234375 272.696533203125 571.2028198242188 262.1940612792969 C 574.004638671875 251.3667449951172 581.3673706054688 244.0068359375 591.9597778320312 241.2080535888672 C 602.4198608398438 244.09527587890625 609.4862060546875 251.72805786132812 612.0260009765625 261.9792785644531" stroke-width="0.0" fill="rgb(159, 168, 179)" opacity="0.9911019"/>
    <path d="M 331.0522155761719 496.1571960449219 C 328.4172668457031 506.1162414550781 321.117431640625 513.4202270507812 311.1707458496094 516.0999145507812 C 301.9021301269531 514.3572387695312 294.1136779785156 507.31512451171875 291.04644775390625 496.1614074707031 C 293.7540283203125 486.092041015625 301.0915832519531 478.7529602050781 312.4455261230469 476.03192138671875 C 322.9132080078125 478.7440490722656 330.1806335449219 486.10955810546875 331.0522155761719 496.1571960449219" stroke-width="0.0" fill="rgb(15, 17, 22)" opacity="0.9900091"/>
    <path d="M 533.8096313476562 544.1384887695312 C 531.0639038085938 554.7182006835938 523.7199096679688 562.0687255859375 512.8733520507812 564.8443603515625 C 502.3843078613281 562.0179443359375 495.08660888671875 554.576171875 492.5013122558594 544.3809814453125 C 495.56158447265625 533.7952270507812 502.6557922363281 526.1651000976562 513.5275268554688 523.153564453125 C 523.6953735351562 525.9190673828125 531.0193481445312 533.3294067382812 533.8096313476562 544.1384887695312" stroke-width="0.0" fill="rgb(149, 156, 167)" opacity="1.0"/>
    <path d="M 462.9851989746094 173.0108642578125 C 460.3519287109375 183.05477905273438 453.0984191894531 190.4936981201172 442.69012451171875 193.63674926757812 C 432.56103515625 190.81690979003906 425.23248291015625 183.4233856201172 422.6154479980469 173.0734100341797 C 425.2457580566406 162.56369018554688 432.54241943359375 155.1763458251953 442.6675109863281 152.52957153320312 C 453.0254821777344 155.62799072265625 460.3198547363281 162.989990234375 462.9851989746094 173.0108642578125" stroke-width="0.0" fill="rgb(198, 203, 214)" opacity="0.9906986"/>
    <path d="M 397.3341369628906 414.1038513183594 C 394.74298095703125 424.41461181640625 387.4212951660156 431.7651062011719 376.9792175292969 434.4600830078125 C 366.6251525878906 431.7352294921875 359.3309326171875 424.3544006347656 356.5832214355469 413.8692321777344 C 359.2690734863281 403.59271240234375 366.5634765625 396.1802062988281 376.71197509765625 393.3763122558594 C 387.19976806640625 396.4864807128906 394.5851745605469 403.7769775390625 397.3341369628906 414.1038513183594" stroke-width="0.0" fill="rgb(217, 222, 231)" opacity="0.9907107"/>
    <path d="M 485.79949951171875 71.38445281982422 C 483.0574035644531 81.71284484863281 475.7184753417969 89.07242584228516 464.7923583984375 91.84396362304688 C 454.3211364746094 89.05577087402344 446.986328125 81.66299438476562 444.1731872558594 70.6772232055664 C 446.9443054199219 60.31379699707031 454.3257141113281 52.976802825927734 464.4872741699219 50.39101791381836 C 475.0408020019531 53.67155838012695 482.6627197265625 60.843502044677734 485.79949951171875 71.38445281982422" stroke-width="0.0" fill="rgb(156, 163, 172)" opacity="0.99072665"/>
    <path d="M 124.16844177246094 128.1366729736328 C 121.60692596435547 138.26095581054688 114.24449920654297 145.55250549316406 104.0877685546875 148.08636474609375 C 94.00001525878906 145.3207550048828 86.6801528930664 137.99972534179688 84.00301361083984 128.0001983642578 C 86.68097686767578 118.00130462646484 94.0013656616211 110.68121337890625 104.00113677978516 108.00209045410156 C 114.0009765625 110.6785888671875 121.32157135009766 117.99897766113281 124.16844177246094 128.1366729736328" stroke-width="0.0" fill="rgb(247, 248, 250)" opacity="0.99526024"/>
    <path d="M 94.25962829589844 499.4533996582031 C 92.7371597290039 509.56658935546875 85.74199676513672 517.1813354492188 75.85310363769531 519.934814453125 C 64.84235382080078 516.3856811523438 56.997215270996094 509.4334411621094 54.05571365356445 499.4648132324219 C 56.970306396484375 488.4965515136719 64.73081970214844 481.5418395996094 75.49615478515625 478.51812744140625 C 85.77718353271484 480.91552734375 93.02872467041016 488.2330627441406 94.25962829589844 499.4533996582031" stroke-width="0.0" fill="rgb(19, 22, 29)" opacity="0.9904207"/>
    <path d="M 460.3262023925781 274.7615966796875 C 457.443359375 285.18621826171875 450.2706298828125 292.7049255371094 440.266845703125 295.39788818359375 C 430.0101318359375 292.31622314453125 422.7468566894531 284.9714660644531 419.9218444824219 274.77471923828125 C 422.32421875 264.65985107421875 429.6709289550781 257.36224365234375 440.2637939453125 254.43580627441406 C 450.3788146972656 257.2546081542969 457.7577209472656 264.61517333984375 460.3262023925781 274.7615966796875" stroke-width="0.0" fill="rgb(210, 216, 223)" opacity="0.99114406"/>
    <path d="M 565.6218872070312 143.50933837890625 C 563.0111694335938 153.65232849121094 555.6475830078125 160.99742126464844 544.7490844726562 163.80484008789062 C 534.3897094726562 160.9977569580078 527.050048828125 153.59231567382812 524.1943359375 142.6779327392578 C 526.9891357421875 132.36764526367188 534.3816528320312 125.02684020996094 544.5987548828125 122.29718780517578 C 555.07275390625 125.50130462646484 562.3269653320312 132.98072814941406 565.6218872070312 143.50933837890625" stroke-width="0.0" fill="rgb(155, 166, 177)" opacity="0.991754"/>
    <path d="M 403.0364074707031 514.9423828125 C 400.3694152832031 525.1047973632812 393.22283935546875 532.7132568359375 383.3931884765625 535.5781860351562 C 373.01483154296875 532.2813110351562 365.6781311035156 524.996826171875 362.7891540527344 514.7924194335938 C 365.23077392578125 504.5318298339844 372.4907531738281 497.1033630371094 382.9348449707031 494.2458190917969 C 393.3553771972656 497.1935729980469 400.52239990234375 504.7398681640625 403.0364074707031 514.9423828125" stroke-width="0.0" fill="rgb(187, 192, 202)" opacity="1.0"/>
    <path d="M 518.1817626953125 18.214574813842773 C 515.8192749023438 28.56682014465332 508.65460205078125 36.07155990600586 498.6152038574219 38.831382751464844 C 487.5816650390625 35.72690200805664 480.008056640625 28.526458740234375 477.1094665527344 17.617231369018555 C 479.8904724121094 7.262424945831299 487.2862854003906 -0.043805480003356934 497.50054931640625 -2.554508686065674 C 507.9961853027344 0.6836678385734558 515.3153686523438 8.004087448120117 518.1817626953125 18.214574813842773" stroke-width="0.0" fill="rgb(132, 140, 150)" opacity="0.9973514"/>
    <path d="M 374.0850830078125 345.08917236328125 C 371.6209411621094 355.3166198730469 364.3157043457031 362.6162414550781 354.0705261230469 365.0553283691406 C 343.77569580078125 362.51080322265625 336.35504150390625 355.26617431640625 333.3393859863281 344.67681884765625 C 336.131103515625 334.5162353515625 343.5333251953125 327.179443359375 353.788330078125 324.36724853515625 C 364.29742431640625 327.32562255859375 371.5517578125 334.7396545410156 374.0850830078125 345.08917236328125" stroke-width="0.0" fill="rgb(232, 237, 244)" opacity="0.9905138"/>
    <path d="M 346.0639953613281 435.6142578125 C 345.1029357910156 445.84130859375 337.8785095214844 453.23223876953125 327.9263610839844 455.7909851074219 C 317.91351318359375 451.39263916015625 310.6094665527344 444.08563232421875 307.96240234375 434.17340087890625 C 310.384765625 425.4958801269531 317.2626647949219 417.8238525390625 326.9975280761719 415.0301818847656 C 336.7052307128906 417.8433837890625 343.6090087890625 425.5152282714844 346.0639953613281 435.6142578125" stroke-width="0.0" fill="rgb(19, 23, 28)" opacity="0.9900127"/>
    <path d="M 401.7546691894531 472.0849914550781 C 398.90057373046875 482.5212097167969 391.5143127441406 489.8793640136719 381.3562316894531 492.4185485839844 C 370.9998474121094 489.3213806152344 363.682373046875 481.9990539550781 361.01458740234375 471.9930419921875 C 363.6364440917969 461.9122314453125 370.8369140625 454.40179443359375 380.9691162109375 451.5086975097656 C 391.3277282714844 454.3407897949219 398.8076477050781 461.62017822265625 401.7546691894531 472.0849914550781" stroke-width="0.0" fill="rgb(203, 209, 218)" opacity="0.9916776"/>
    <path d="M 506.6315612792969 529.474853515625 C 503.4140930175781 540.1651000976562 496.2842712402344 547.7630004882812 485.5295715332031 550.8095703125 C 475.3351135253906 548.036376953125 467.99267578125 540.6544799804688 465.1839599609375 529.7119140625 C 467.9694519042969 519.3444213867188 475.3533630371094 511.99212646484375 485.9162902832031 509.18603515625 C 496.6830749511719 511.9651794433594 504.03472900390625 519.3168334960938 506.6315612792969 529.474853515625" stroke-width="0.0" fill="rgb(161, 168, 179)" opacity="0.99080557"/>
    <path d="M 105.07563781738281 178.00711059570312 C 102.35552215576172 188.02780151367188 95.02156829833984 195.33221435546875 84.7529296875 198.2894744873047 C 74.8080062866211 195.55557250976562 67.52337646484375 188.1683349609375 64.94752502441406 178.05479431152344 C 67.6793212890625 167.99986267089844 74.99987030029297 160.6793212890625 85.0003662109375 157.99935913085938 C 95.00387573242188 160.6773223876953 102.33631896972656 167.9921875 105.07563781738281 178.00711059570312" stroke-width="0.0" fill="rgb(250, 250, 250)" opacity="0.9929961"/>
    <path d="M 82.9656982421875 441.9992370605469 C 80.2442626953125 452.8997802734375 72.88510131835938 460.20501708984375 61.204078674316406 462.94024658203125 C 51.09375 460.2444763183594 43.76829147338867 452.9012756347656 41.12754440307617 442.8050537109375 C 44.08482360839844 431.30279541015625 51.202423095703125 423.8026123046875 62.49988555908203 421.0375061035156 C 72.90777587890625 423.7570495605469 80.2491226196289 431.08953857421875 82.9656982421875 441.9992370605469" stroke-width="0.0" fill="rgb(23, 27, 35)" opacity="1.0"/>
    <path d="M 79.88037872314453 536.12646484375 C 75.43195343017578 546.1220703125 68.11690521240234 553.417724609375 58.11616134643555 556.1033935546875 C 49.34419250488281 555.0414428710938 42.54953384399414 546.2361450195312 39.96064376831055 537.1431274414062 C 42.57001876831055 527.8425903320312 49.788700103759766 520.4000854492188 59.41667938232422 517.034912109375 C 69.61390686035156 519.2019653320312 77.1700668334961 526.2525024414062 79.88037872314453 536.12646484375" stroke-width="0.0" fill="rgb(17, 20, 24)" opacity="0.9900101"/>
  </g>
</svg>
