<?xml version="1.0" ?>
<svg xmlns="http://www.w3.org/2000/svg" version="1.1" width="600" height="600">
  <defs/>
  <g>
    <path d="M 301.94384765625 290.907958984375 C 298.97442626953125 300.5130310058594 291.35211181640625 307.5371398925781 281.3378601074219 310.0743103027344 C 272.2237854003906 307.8832092285156 264.70965576171875 300.9260559082031 261.2463073730469 290.3701171875 C 263.9366149902344 280.3784484863281 271.5103454589844 273.3204040527344 281.898681640625 270.9364929199219 C 292.0 273.67950439453125 299.32049560546875 281.0 301.94384765625 290.907958984375" stroke-width="0.0" fill="rgb(35, 42, 51)" opacity="0.9900334"/>
    <path d="M 107.66311645507812 413.1782531738281 C 104.94361877441406 423.6069030761719 97.62178039550781 430.98583984375 87.28223419189453 433.6838073730469 C 76.5198974609375 430.8401794433594 69.15007019042969 423.4833984375 66.24894714355469 412.6639099121094 C 69.02731323242188 402.4078674316406 76.44244384765625 395.13299560546875 86.7353286743164 392.69195556640625 C 97.2336654663086 395.518798828125 104.77069091796875 402.67156982421875 107.66311645507812 413.1782531738281" stroke-width="0.0" fill="rgb(185, 187, 198)" opacity="0.99270284"/>
    <path d="M 314.3216552734375 467.61810302734375 C 312.32049560546875 477.0000305175781 305.0012512207031 484.3250427246094 294.1162109375 487.9351501464844 C 284.0785217285156 485.25543212890625 276.744873046875 477.9212951660156 274.030517578125 467.36083984375 C 276.7505798339844 456.0941162109375 284.1142272949219 448.8125915527344 294.2109375 447.9146728515625 C 304.191650390625 450.52178955078125 311.5154724121094 457.7948303222656 314.3216552734375 467.61810302734375" stroke-width="0.0" fill="rgb(22, 30, 38)" opacity="0.990014"/>
    <path d="M 573.7133178710938 126.25765991210938 C 570.9346313476562 136.55764770507812 563.554931640625 143.92938232421875 553.4938354492188 146.67092895507812 C 543.0 143.3205108642578 535.6795043945312 136.0 533.0 126.0 C 535.6795043945312 116.0 543.0 108.67948913574219 553.1077880859375 105.90713500976562 C 563.3568725585938 108.3758316040039 570.8297119140625 115.5772933959961 573.7133178710938 126.25765991210938" stroke-width="0.0" fill="rgb(175, 182, 193)" opacity="0.9961858"/>
    <path d="M 52.77337646484375 460.54345703125 C 49.69456100463867 471.229248046875 42.12779235839844 478.3908386230469 32.00590896606445 481.01080322265625 C 21.93184471130371 478.3581237792969 14.447307586669922 471.129638671875 11.362066268920898 460.6917724609375 C 14.096135139465332 450.466552734375 21.473499298095703 443.1158142089844 32.099491119384766 440.3150939941406 C 42.59134292602539 443.0701599121094 50.00541687011719 450.3808898925781 52.77337646484375 460.54345703125" stroke-width="0.0" fill="rgb(181, 183, 197)" opacity="0.9937276"/>
    <path d="M 219.72926330566406 322.3036804199219 C 216.93130493164062 332.5447692871094 209.51756286621094 339.8523864746094 199.01873779296875 342.5379943847656 C 188.510498046875 339.83831787109375 181.20399475097656 332.4764404296875 178.7497100830078 322.2374572753906 C 181.6786651611328 311.9980773925781 188.99578857421875 304.6708068847656 199.29190063476562 301.5860595703125 C 209.44448852539062 304.20013427734375 216.8226318359375 311.5475769042969 219.72926330566406 322.3036804199219" stroke-width="0.0" fill="rgb(192, 196, 206)" opacity="0.99119794"/>
    <path d="M 264.6225280761719 588.072021484375 C 261.70245361328125 598.2765502929688 254.20664978027344 605.484375 243.99224853515625 608.083251953125 C 233.78756713867188 605.4978637695312 226.36668395996094 598.254150390625 223.37510681152344 587.7181396484375 C 226.1616973876953 577.56103515625 233.5809326171875 570.2139282226562 243.77403259277344 567.4762573242188 C 254.4338836669922 570.2404174804688 261.8133239746094 577.5491333007812 264.6225280761719 588.072021484375" stroke-width="0.0" fill="rgb(211, 214, 221)" opacity="1.0"/>
    <path d="M 65.53272247314453 245.2678680419922 C 62.91911315917969 255.58412170410156 55.58938217163086 262.9362487792969 44.785560607910156 265.7406311035156 C 34.39753341674805 262.9622497558594 27.042131423950195 255.60171508789062 24.41535186767578 245.3106689453125 C 27.222620010375977 234.53160095214844 34.504913330078125 227.13880920410156 44.67463684082031 224.610107421875 C 55.041107177734375 227.6596221923828 62.500850677490234 234.90904235839844 65.53272247314453 245.2678680419922" stroke-width="0.0" fill="rgb(186, 190, 201)" opacity="0.99134284"/>
    <path d="M 128.79266357421875 236.22972106933594 C 125.9813232421875 246.59213256835938 118.57506561279297 253.9381103515625 108.04226684570312 256.7868957519531 C 97.46309661865234 253.91392517089844 90.1000747680664 246.53245544433594 87.30390167236328 235.9599609375 C 90.04169464111328 225.37391662597656 97.35749053955078 217.99432373046875 107.92542266845703 215.2545928955078 C 118.6049575805664 218.02249145507812 125.93348693847656 225.41162109375 128.79266357421875 236.22972106933594" stroke-width="0.0" fill="rgb(187, 190, 200)" opacity="0.99193436"/>
    <path d="M 67.66567993164062 373.2336120605469 C 64.85472106933594 383.4554443359375 57.42671203613281 390.7706298828125 46.686485290527344 393.6759338378906 C 36.55963897705078 390.8464660644531 29.228397369384766 383.414306640625 26.339256286621094 372.6424255371094 C 29.013912200927734 362.36566162109375 36.35694122314453 354.98980712890625 46.6313591003418 352.276611328125 C 57.54161834716797 355.11395263671875 64.85916900634766 362.4666442871094 67.66567993164062 373.2336120605469" stroke-width="0.0" fill="rgb(185, 189, 200)" opacity="0.99163395"/>
    <path d="M 370.7671813964844 465.9849853515625 C 367.9099426269531 476.5364990234375 360.53729248046875 483.91265869140625 350.320068359375 486.6993713378906 C 339.52838134765625 483.82574462890625 332.2127990722656 476.4591064453125 329.50177001953125 465.97955322265625 C 332.20001220703125 455.52032470703125 339.4984130859375 448.13330078125 350.0500793457031 445.3733825683594 C 360.50518798828125 448.1357116699219 367.8998107910156 455.482666015625 370.7671813964844 465.9849853515625" stroke-width="0.0" fill="rgb(196, 201, 212)" opacity="0.9909498"/>
    <path d="M 128.79913330078125 100.9999771118164 C 125.94963073730469 111.56143951416016 118.5453872680664 118.90772247314453 108.23021697998047 121.75169372558594 C 97.8405990600586 118.64132690429688 90.65303802490234 111.06019592285156 87.93827056884766 100.92845153808594 C 90.44509887695312 90.70879364013672 97.63432312011719 83.2139892578125 108.22445678710938 80.3216781616211 C 118.60445404052734 83.04461669921875 125.98731231689453 90.38410186767578 128.79913330078125 100.9999771118164" stroke-width="0.0" fill="rgb(187, 191, 202)" opacity="0.9914478"/>
    <path d="M 519.5018920898438 110.65827178955078 C 516.3204956054688 121.0 509.0 128.3205108642578 499.0 131.0 C 488.99981689453125 128.32054138183594 481.6676940917969 121.00341033935547 478.8377990722656 110.97075653076172 C 481.49639892578125 100.76091003417969 488.67974853515625 93.24711608886719 499.1493225097656 90.28919982910156 C 509.33837890625 93.25453186035156 516.7777709960938 100.64678192138672 519.5018920898438 110.65827178955078" stroke-width="0.0" fill="rgb(181, 187, 198)" opacity="0.9934304"/>
    <path d="M 460.0255432128906 576.9605102539062 C 457.33154296875 587.0283813476562 450.0938415527344 594.5372314453125 439.9501647949219 597.5964965820312 C 429.4945983886719 594.8374633789062 422.100341796875 587.52587890625 419.3542175292969 577.3070678710938 C 422.2525939941406 566.5704956054688 429.505859375 559.0757446289062 439.99267578125 556.1806640625 C 450.4137268066406 559.1001586914062 457.4955749511719 566.7300415039062 460.0255432128906 576.9605102539062" stroke-width="0.0" fill="rgb(195, 198, 207)" opacity="0.9913685"/>
    <path d="M 431.5608825683594 476.0296630859375 C 428.8490905761719 486.5283203125 421.5627136230469 493.9496765136719 411.1401062011719 496.7747497558594 C 400.5362243652344 493.856689453125 393.23028564453125 486.4349060058594 390.5348205566406 476.1302185058594 C 393.46917724609375 465.8582763671875 400.9022216796875 458.6116027832031 411.10931396484375 455.8741760253906 C 421.3424072265625 458.3660888671875 428.7731018066406 465.6138000488281 431.5608825683594 476.0296630859375" stroke-width="0.0" fill="rgb(194, 197, 209)" opacity="0.9919658"/>
    <path d="M 583.803955078125 288.5664367675781 C 580.9281005859375 299.5614929199219 573.5506591796875 306.8966979980469 563.3675537109375 309.45892333984375 C 553.0 306.32049560546875 545.6785278320312 299.0002746582031 542.9826049804688 289.0103454589844 C 545.68310546875 279.0010070800781 552.9988403320312 271.6752014160156 563.6063842773438 268.2487487792969 C 573.687744140625 270.94561767578125 581.0523681640625 278.3130187988281 583.803955078125 288.5664367675781" stroke-width="0.0" fill="rgb(176, 183, 194)" opacity="0.9930022"/>
    <path d="M 322.64617919921875 528.6587524414062 C 319.5293273925781 539.1514282226562 312.1227722167969 546.4351196289062 301.9140319824219 549.1228637695312 C 291.5191345214844 546.6964111328125 283.94256591796875 539.609619140625 281.4002685546875 529.7468872070312 C 284.81280517578125 519.038818359375 291.9901123046875 511.65020751953125 302.430419921875 508.4143371582031 C 312.49188232421875 511.1202392578125 319.85107421875 518.5184936523438 322.64617919921875 528.6587524414062" stroke-width="0.0" fill="rgb(212, 213, 220)" opacity="1.0"/>
    <path d="M 266.1910095214844 144.18893432617188 C 263.73565673828125 154.42745971679688 256.4519348144531 161.8145751953125 246.03396606445312 164.54306030273438 C 235.47805786132812 161.83621215820312 228.076171875 154.55101013183594 225.380126953125 144.20843505859375 C 228.15255737304688 133.48081970214844 235.436279296875 126.02922821044922 245.4608154296875 123.29329681396484 C 256.0008544921875 126.67674255371094 263.3205261230469 133.9998779296875 266.1910095214844 144.18893432617188" stroke-width="0.0" fill="rgb(192, 196, 207)" opacity="0.9913307"/>
    <path d="M 88.62989807128906 170.1587677001953 C 85.8973388671875 180.53529357910156 78.52300262451172 187.86044311523438 67.85591125488281 190.61451721191406 C 57.41444778442383 187.92996215820312 50.05217361450195 180.59141540527344 47.327110290527344 170.2159423828125 C 50.16421890258789 159.53170776367188 57.53770446777344 152.18179321289062 68.02900695800781 149.38604736328125 C 78.44741821289062 152.18540954589844 85.81134033203125 159.5532989501953 88.62989807128906 170.1587677001953" stroke-width="0.0" fill="rgb(186, 191, 202)" opacity="0.991325"/>
    <path d="M 562.663330078125 341.50823974609375 C 559.3617553710938 352.01519775390625 552.0037841796875 359.3218688964844 542.0001220703125 362.0000305175781 C 532.0 359.32049560546875 524.6795043945312 352.0 522.0 342.0 C 524.6795043945312 332.0 532.0 324.67950439453125 542.24462890625 321.7562255859375 C 552.5330810546875 324.17401123046875 559.9745483398438 331.4176940917969 562.663330078125 341.50823974609375" stroke-width="0.0" fill="rgb(178, 185, 196)" opacity="1.0"/>
    <path d="M 298.03948974609375 508.5712890625 C 295.5149230957031 518.5196533203125 289.6563720703125 527.1704711914062 278.1780090332031 529.9675903320312 C 268.0731506347656 527.2647094726562 260.7533874511719 519.9193725585938 258.05499267578125 509.4040832519531 C 260.7661437988281 498.1014099121094 268.10064697265625 490.76397705078125 279.682861328125 488.03533935546875 C 289.87841796875 490.7540283203125 295.9480285644531 498.2242126464844 298.03948974609375 508.5712890625" stroke-width="0.0" fill="rgb(2, 2, 3)" opacity="0.9900169"/>
    <path d="M 214.69085693359375 423.24310302734375 C 211.90557861328125 433.52099609375 204.5123748779297 440.884765625 194.45242309570312 443.6370849609375 C 184.0 440.32049560546875 176.6794891357422 433.0 173.75933837890625 422.7812805175781 C 176.23797607421875 412.559814453125 183.54029846191406 405.1758117675781 194.0914764404297 402.3888244628906 C 204.53482055664062 405.0997619628906 211.85079956054688 412.4822998046875 214.69085693359375 423.24310302734375" stroke-width="0.0" fill="rgb(190, 194, 205)" opacity="0.992011"/>
    <path d="M 487.5399475097656 96.58366394042969 C 484.4974365234375 107.20567321777344 477.2345275878906 114.59213256835938 467.12957763671875 117.15532684326172 C 457.0 114.32051086425781 449.67950439453125 107.0 446.4381103515625 96.54635620117188 C 449.0396423339844 86.4156265258789 456.4407958984375 79.11215209960938 467.33624267578125 76.27645111083984 C 477.6246337890625 79.01609802246094 484.96417236328125 86.38188934326172 487.5399475097656 96.58366394042969" stroke-width="0.0" fill="rgb(183, 189, 201)" opacity="0.9919592"/>
    <path d="M 535.35546875 75.66954803466797 C 532.3204956054688 86.0 525.0 93.32051086425781 514.7391967773438 96.26437377929688 C 504.4613342285156 93.84059143066406 497.0465087890625 86.5752944946289 494.2318420410156 75.8776626586914 C 497.0666198730469 65.4442138671875 504.4496765136719 58.083770751953125 515.0052490234375 55.34073257446289 C 525.5924072265625 58.05768966674805 532.9036254882812 65.41975402832031 535.35546875 75.66954803466797" stroke-width="0.0" fill="rgb(179, 184, 196)" opacity="0.99317133"/>
    <path d="M 541.2047729492188 546.20166015625 C 538.9049072265625 556.685791015625 531.7836303710938 564.1846923828125 521.8616333007812 566.9015502929688 C 511.8303527832031 562.4794311523438 504.5507507324219 555.1586303710938 501.9153137207031 545.1780395507812 C 503.6571350097656 535.92333984375 510.7325439453125 528.1699829101562 521.5791625976562 525.0753173828125 C 531.6353759765625 527.8925170898438 538.6072998046875 535.5562744140625 541.2047729492188 546.20166015625" stroke-width="0.0" fill="rgb(15, 19, 25)" opacity="0.99000937"/>
    <path d="M 347.04522705078125 404.24090576171875 C 344.423828125 414.1259460449219 337.1317138671875 421.43988037109375 327.2505798339844 424.204345703125 C 317.7096252441406 422.4725036621094 309.95526123046875 415.52459716796875 307.0476989746094 404.1914978027344 C 309.7560729980469 394.10308837890625 317.1250305175781 386.8184509277344 327.338623046875 384.34161376953125 C 337.8928527832031 387.724365234375 344.7684631347656 395.310546875 347.04522705078125 404.24090576171875" stroke-width="0.0" fill="rgb(7, 9, 15)" opacity="0.9900105"/>
    <path d="M 197.34011840820312 437.2894592285156 C 194.84088134765625 447.51995849609375 187.55010986328125 454.9299011230469 177.28160095214844 457.6317138671875 C 166.6321258544922 454.7222900390625 159.21788024902344 447.3887023925781 156.26318359375 436.63946533203125 C 159.02297973632812 426.4034729003906 166.43661499023438 419.1222839355469 176.7033233642578 416.698974609375 C 186.99996948242188 419.6794738769531 194.3203582763672 427.0000915527344 197.34011840820312 437.2894592285156" stroke-width="0.0" fill="rgb(186, 192, 202)" opacity="0.993356"/>
    <path d="M 277.7034912109375 344.90802001953125 C 274.88800048828125 355.5105285644531 267.49029541015625 362.8312683105469 256.76513671875 365.7084045410156 C 246.4694366455078 362.8941345214844 239.07650756835938 355.5421447753906 236.22850036621094 344.57989501953125 C 238.91114807128906 334.238525390625 246.21652221679688 326.8524169921875 256.3331604003906 324.1560974121094 C 267.4981689453125 327.1271057128906 274.8575439453125 334.5081787109375 277.7034912109375 344.90802001953125" stroke-width="0.0" fill="rgb(195, 201, 213)" opacity="1.0"/>
    <path d="M 275.9523620605469 421.81787109375 C 273.2503662109375 431.9152526855469 265.9156799316406 439.2511901855469 255.52882385253906 441.9640197753906 C 244.19387817382812 439.2125549316406 238.29299926757812 431.5643005371094 235.92791748046875 421.1146240234375 C 238.51341247558594 411.8048400878906 245.80490112304688 404.51483154296875 255.80686950683594 401.9044189453125 C 265.79193115234375 402.8648681640625 273.1175537109375 410.21612548828125 275.9523620605469 421.81787109375" stroke-width="0.0" fill="rgb(26, 34, 43)" opacity="0.9900096"/>
    <path d="M 217.04388427734375 483.9369201660156 C 214.3205108642578 494.0 207.0 501.32049560546875 197.00001525878906 504.00006103515625 C 186.99998474121094 501.32049560546875 179.67848205566406 494.0002746582031 176.33982849121094 483.50128173828125 C 179.0326690673828 473.39385986328125 186.39117431640625 466.0254821777344 196.87892150878906 463.1955871582031 C 207.4300994873047 466.1120910644531 214.5495147705078 473.6850891113281 217.04388427734375 483.9369201660156" stroke-width="0.0" fill="rgb(188, 190, 201)" opacity="0.9941993"/>
    <path d="M 81.65522766113281 218.32481384277344 C 78.87818908691406 228.51539611816406 71.51348876953125 235.87046813964844 61.34585189819336 238.43719482421875 C 50.96084976196289 235.33816528320312 43.49197006225586 228.09219360351562 40.690486907958984 218.16329956054688 C 43.67949295043945 208.0 51.0 200.6794891357422 61.007362365722656 197.9959259033203 C 71.07118225097656 200.6400909423828 78.55079650878906 207.86859130859375 81.65522766113281 218.32481384277344" stroke-width="0.0" fill="rgb(185, 190, 200)" opacity="0.99252605"/>
    <path d="M 500.9615783691406 447.2344970703125 C 498.2467041015625 457.9107971191406 490.9118347167969 465.2489929199219 480.42059326171875 467.9614562988281 C 469.0909729003906 465.2464599609375 461.7546691894531 457.90838623046875 459.03277587890625 447.0460510253906 C 461.7538146972656 436.0979919433594 469.1036376953125 428.7655334472656 479.2811584472656 426.0398254394531 C 490.8656311035156 428.7971496582031 498.23150634765625 436.121337890625 500.9615783691406 447.2344970703125" stroke-width="0.0" fill="rgb(10, 12, 16)" opacity="0.99007976"/>
    <path d="M 407.93939208984375 336.1903076171875 C 405.230712890625 346.89959716796875 397.9036560058594 354.241455078125 386.56072998046875 356.96258544921875 C 376.08160400390625 354.2525634765625 368.746337890625 346.9188537597656 367.88177490234375 336.93914794921875 C 370.61474609375 326.9200134277344 377.9196472167969 319.6139221191406 387.8701477050781 316.9659423828125 C 397.76019287109375 318.0603942871094 405.1831359863281 325.1825866699219 407.93939208984375 336.1903076171875" stroke-width="0.0" fill="rgb(11, 17, 25)" opacity="0.9900071"/>
    <path d="M 524.2921752929688 358.252685546875 C 521.7904663085938 368.463623046875 514.504638671875 375.9095458984375 504.27410888671875 378.7379455566406 C 493.436279296875 375.8956604003906 486.0259704589844 368.5909423828125 483.2268371582031 358.3294372558594 C 486.1980895996094 347.6668395996094 493.7850341796875 340.5466003417969 503.8985290527344 338.119140625 C 513.928466796875 340.8022766113281 521.29736328125 348.04119873046875 524.2921752929688 358.252685546875" stroke-width="0.0" fill="rgb(181, 188, 198)" opacity="1.0"/>
    <path d="M 282.5942687988281 134.9693145751953 C 279.7642517089844 145.41929626464844 272.462646484375 152.88243103027344 262.4635314941406 155.67063903808594 C 251.99740600585938 152.32864379882812 244.67935180664062 145.00039672851562 241.86839294433594 134.85931396484375 C 244.33042907714844 124.62239074707031 251.58499145507812 117.20999908447266 262.0233459472656 114.40618896484375 C 272.3962097167969 117.22590637207031 279.76483154296875 124.60713958740234 282.5942687988281 134.9693145751953" stroke-width="0.0" fill="rgb(190, 196, 207)" opacity="0.99177593"/>
    <path d="M 564.0507202148438 546.275634765625 C 561.4464721679688 556.19189453125 554.257080078125 563.615478515625 544.2230224609375 567.8048095703125 C 534.243896484375 565.147216796875 527.0732421875 557.6828002929688 524.8115844726562 547.2686767578125 C 527.6583862304688 536.9829711914062 534.9861450195312 529.6687622070312 544.983642578125 527.0036010742188 C 554.7852172851562 529.7817993164062 561.6504516601562 537.4488525390625 564.0507202148438 546.275634765625" stroke-width="0.0" fill="rgb(3, 3, 2)" opacity="0.9900112"/>
    <path d="M 544.0 315.0 C 541.3204956054688 325.0 534.0 332.32049560546875 523.9998779296875 335.00006103515625 C 513.9956665039062 332.3221130371094 506.6402282714844 325.0151062011719 503.7195739746094 314.9757080078125 C 506.6134948730469 304.9728698730469 513.9911499023438 297.676025390625 523.9996337890625 294.9998474121094 C 534.0 297.67950439453125 541.3204956054688 305.0 544.0 315.0" stroke-width="0.0" fill="rgb(184, 190, 201)" opacity="0.99130535"/>
    <path d="M 612.0125732421875 91.00337982177734 C 609.391845703125 101.12763214111328 602.2230224609375 108.68023681640625 591.6255493164062 111.69361877441406 C 581.3770141601562 108.99683380126953 574.1188354492188 101.58565521240234 571.498291015625 90.92679595947266 C 574.124755859375 80.46107482910156 581.4357299804688 73.05040740966797 591.5999145507812 70.25408172607422 C 602.19091796875 73.3542709350586 609.3760986328125 80.89766693115234 612.0125732421875 91.00337982177734" stroke-width="0.0" fill="rgb(172, 177, 190)" opacity="0.9946807"/>
    <path d="M 568.7498779296875 531.3851928710938 C 566.10009765625 541.7723388671875 558.7496337890625 548.99560546875 548.8223876953125 550.0528564453125 C 538.8837280273438 547.41357421875 531.5851440429688 540.1170654296875 528.9246826171875 530.0999145507812 C 529.8322143554688 520.1950073242188 537.2283325195312 512.9296264648438 547.8751831054688 510.3076171875 C 558.5219116210938 513.0838623046875 565.8532104492188 520.5020141601562 568.7498779296875 531.3851928710938" stroke-width="0.0" fill="rgb(205, 208, 216)" opacity="0.99000937"/>
    <path d="M 356.2498779296875 347.72869873046875 C 354.32049560546875 357.0 347.0 364.32049560546875 336.4335632324219 367.55218505859375 C 326.16241455078125 365.13348388671875 318.77197265625 357.8708801269531 316.03509521484375 346.49468994140625 C 318.7560119628906 336.0999450683594 326.119873046875 328.8188171386719 336.1178283691406 327.9580993652344 C 346.09527587890625 330.60699462890625 353.43463134765625 337.8895263671875 356.2498779296875 347.72869873046875" stroke-width="0.0" fill="rgb(10, 15, 21)" opacity="0.9900159"/>
    <path d="M 53.006134033203125 479.033935546875 C 50.42969512939453 489.1665954589844 43.260433197021484 496.71368408203125 32.67325210571289 499.71142578125 C 22.378416061401367 496.9883117675781 15.021501541137695 489.61724853515625 12.272904396057129 479.4311218261719 C 15.38157844543457 468.8244934082031 22.90400505065918 461.62689208984375 32.98818588256836 458.99676513671875 C 42.98894500732422 461.68780517578125 50.30117416381836 469.0143737792969 53.006134033203125 479.033935546875" stroke-width="0.0" fill="rgb(180, 182, 196)" opacity="0.9946242"/>
    <path d="M 353.0 380.0 C 350.32049560546875 390.0000305175781 343.00006103515625 397.32061767578125 332.768798828125 400.16259765625 C 322.2989807128906 397.9072570800781 314.7923583984375 390.8079528808594 312.0311584472656 379.356689453125 C 314.7456359863281 369.0869140625 322.1006774902344 361.7828369140625 332.2444152832031 359.21551513671875 C 343.0 362.67950439453125 350.32049560546875 370.0 353.0 380.0" stroke-width="0.0" fill="rgb(3, 6, 11)" opacity="1.0"/>
    <path d="M 241.62191772460938 505.8343200683594 C 238.73965454101562 516.342041015625 231.2891082763672 523.572265625 221.0900421142578 526.0833740234375 C 211.0 523.3204956054688 203.6794891357422 516.0 201.0 506.0 C 203.6794891357422 496.0 211.0 488.67950439453125 221.07969665527344 485.9386291503906 C 231.32928466796875 488.42181396484375 238.84176635742188 495.5849609375 241.62191772460938 505.8343200683594" stroke-width="0.0" fill="rgb(192, 195, 204)" opacity="0.99256563"/>
    <path d="M 562.7086791992188 266.44293212890625 C 559.314208984375 276.9982604980469 552.001220703125 284.32489013671875 541.5433349609375 287.5809631347656 C 531.4031982421875 284.963134765625 524.0297241210938 277.5987854003906 521.31689453125 267.51513671875 C 524.6717529296875 256.9971008300781 531.9992065429688 249.67919921875 542.4563598632812 246.45542907714844 C 552.625244140625 249.01812744140625 559.9955444335938 256.3707580566406 562.7086791992188 266.44293212890625" stroke-width="0.0" fill="rgb(177, 183, 194)" opacity="1.0"/>
    <path d="M 246.7619171142578 8.426129341125488 C 244.00709533691406 18.623523712158203 236.59466552734375 25.926897048950195 225.95767211914062 28.70794105529785 C 215.52206420898438 25.852384567260742 208.11643981933594 18.489227294921875 205.3111114501953 8.39596176147461 C 208.4512939453125 -2.1324260234832764 215.92665100097656 -9.361228942871094 226.01705932617188 -12.01779842376709 C 236.1963348388672 -9.43906021118164 243.76524353027344 -2.3052525520324707 246.7619171142578 8.426129341125488" stroke-width="0.0" fill="rgb(189, 194, 205)" opacity="0.99166614"/>
    <path d="M 170.72576904296875 228.61705017089844 C 167.50999450683594 239.0784149169922 160.02159118652344 246.3284454345703 149.99179077148438 249.0050506591797 C 139.9103546142578 246.36927795410156 132.3939666748047 239.1660919189453 129.2721405029297 228.5987548828125 C 132.08401489257812 218.48651123046875 139.52151489257812 211.1823272705078 150.264404296875 208.3314971923828 C 160.5812225341797 211.04991149902344 167.93508911132812 218.42507934570312 170.72576904296875 228.61705017089844" stroke-width="0.0" fill="rgb(189, 194, 205)" opacity="0.99133873"/>
    <path d="M 23.170190811157227 422.17474365234375 C 20.721914291381836 432.4239501953125 13.461832046508789 439.84210205078125 3.088454246520996 442.673828125 C -7.1074137687683105 439.5688781738281 -14.33182144165039 432.0303649902344 -17.000408172607422 422.0008850097656 C -14.321688652038574 411.996826171875 -7.010941028594971 404.6510314941406 2.9694409370422363 401.9252014160156 C 13.0 404.67950439453125 20.32050895690918 412.0 23.170190811157227 422.17474365234375" stroke-width="0.0" fill="rgb(181, 186, 197)" opacity="0.99738973"/>
    <path d="M 200.2504119873047 312.7539367675781 C 197.32107543945312 323.00146484375 190.0019073486328 330.3221740722656 179.6444549560547 333.4172058105469 C 169.4407958984375 330.88702392578125 162.01785278320312 323.5929870605469 159.1928253173828 313.1122131347656 C 162.05697631835938 302.4344787597656 169.4368438720703 295.0632629394531 179.7530975341797 292.26690673828125 C 190.5340118408203 295.1009826660156 197.81736755371094 302.49169921875 200.2504119873047 312.7539367675781" stroke-width="0.0" fill="rgb(190, 195, 205)" opacity="0.991873"/>
    <path d="M 76.54131317138672 98.73308563232422 C 73.79076385498047 109.48684692382812 66.52355194091797 116.90473175048828 56.14327621459961 119.66869354248047 C 45.56904220581055 116.81454467773438 38.20231628417969 109.42486572265625 35.26970291137695 98.74962615966797 C 38.12220764160156 88.51385498046875 45.52937698364258 81.16696166992188 56.19573211669922 78.36572265625 C 66.61619567871094 81.0337142944336 73.94253540039062 88.39197540283203 76.54131317138672 98.73308563232422" stroke-width="0.0" fill="rgb(182, 187, 198)" opacity="1.0"/>
    <path d="M 163.7628173828125 80.41563415527344 C 160.9998779296875 90.60800170898438 153.58749389648438 97.94898986816406 143.2875213623047 100.73860168457031 C 132.46249389648438 97.88843536376953 125.11872863769531 90.53507232666016 122.34838104248047 79.86402130126953 C 125.08307647705078 69.45860290527344 132.47164916992188 62.11872100830078 143.2530975341797 59.28889465332031 C 153.60693359375 62.01448059082031 160.8972930908203 69.42373657226562 163.7628173828125 80.41563415527344" stroke-width="0.0" fill="rgb(187, 192, 203)" opacity="0.991235"/>
    <path d="M 545.0133056640625 308.98114013671875 C 542.3204956054688 319.0 535.0 326.32049560546875 525.0001220703125 328.9998779296875 C 515.0012817382812 326.3197937011719 507.6875 318.99664306640625 504.4793395996094 308.6476135253906 C 507.1427917480469 298.4992980957031 514.4949951171875 291.13031005859375 524.779541015625 288.3927917480469 C 535.1903076171875 291.3790588378906 542.3992309570312 298.8807067871094 545.0133056640625 308.98114013671875" stroke-width="0.0" fill="rgb(184, 189, 200)" opacity="0.9923914"/>
    <path d="M 556.0 353.0 C 553.3203735351562 362.9996032714844 545.99755859375 370.3128967285156 535.5360107421875 373.5605773925781 C 525.4176025390625 370.9628601074219 518.1817016601562 363.5363464355469 515.7915649414062 353.2288818359375 C 518.6806640625 343.00048828125 526.0001831054688 335.6795654296875 536.0 333.0 C 546.0 335.6794738769531 553.3204956054688 342.9999694824219 556.0 353.0" stroke-width="0.0" fill="rgb(182, 188, 199)" opacity="0.9930519"/>
    <path d="M 195.0 504.0 C 192.3205108642578 514.0 185.0 521.3204956054688 174.71095275878906 524.3399658203125 C 164.52024841308594 521.8289794921875 157.1977081298828 514.470947265625 154.53245544433594 504.08502197265625 C 157.2392120361328 493.563232421875 164.54078674316406 486.1693420410156 174.65264892578125 483.5764465332031 C 184.996337890625 486.6910095214844 192.3203582763672 494.0005187988281 195.0 504.0" stroke-width="0.0" fill="rgb(189, 193, 203)" opacity="0.99170876"/>
    <path d="M 516.5155029296875 526.2212524414062 C 515.0283203125 537.7937622070312 507.8377990722656 545.1951293945312 497.72906494140625 547.8814086914062 C 486.43133544921875 544.9334716796875 479.0543212890625 537.5729370117188 476.2401123046875 527.0859375 C 478.9900207519531 516.3043212890625 486.2478332519531 508.850830078125 496.8514709472656 506.0858459472656 C 507.8644104003906 508.793701171875 515.1921997070312 516.14111328125 516.5155029296875 526.2212524414062" stroke-width="0.0" fill="rgb(191, 194, 201)" opacity="1.0"/>
    <path d="M 547.1181030273438 187.1339569091797 C 544.6752319335938 197.40870666503906 537.4760131835938 204.8834228515625 526.745361328125 207.73976135253906 C 516.4149169921875 204.97279357910156 509.11956787109375 197.55242919921875 506.29364013671875 186.75897216796875 C 509.1339416503906 176.5464324951172 516.605224609375 169.31263732910156 526.8469848632812 166.8513641357422 C 537.0 169.6794891357422 544.3204956054688 177.0 547.1181030273438 187.1339569091797" stroke-width="0.0" fill="rgb(180, 187, 198)" opacity="0.99237615"/>
    <path d="M 440.8941955566406 436.40899658203125 C 437.9017028808594 447.4792175292969 430.4291687011719 454.7597351074219 420.23370361328125 457.2850646972656 C 410.0 454.32049560546875 402.67950439453125 447.0 399.62554931640625 436.6954650878906 C 402.1591491699219 426.4951477050781 409.4483642578125 419.0314636230469 420.53692626953125 416.1995849609375 C 430.8168640136719 418.83599853515625 438.1598205566406 426.1852111816406 440.8941955566406 436.40899658203125" stroke-width="0.0" fill="rgb(191, 196, 206)" opacity="1.0"/>
    <path d="M 474.60406494140625 579.1080322265625 C 471.8182678222656 589.44775390625 464.445068359375 596.8090209960938 454.25506591796875 599.5198364257812 C 443.89306640625 596.4935913085938 436.6380920410156 589.0663452148438 434.0018310546875 579.0133666992188 C 436.67523193359375 568.9725341796875 443.9170837402344 561.4972534179688 454.5089111328125 558.2484741210938 C 464.5416564941406 561.04248046875 471.8019714355469 568.5140380859375 474.60406494140625 579.1080322265625" stroke-width="0.0" fill="rgb(193, 196, 204)" opacity="0.9909413"/>
    <path d="M 542.7698974609375 84.11898803710938 C 539.9048461914062 94.51691436767578 532.5252685546875 101.9252700805664 522.1640014648438 104.79035186767578 C 511.62109375 101.84333801269531 504.4129333496094 94.28527069091797 501.8231506347656 84.12789154052734 C 504.6802062988281 74.00041961669922 512.0003051757812 66.6797103881836 522.2220458984375 63.767818450927734 C 532.4895629882812 66.21403503417969 539.9314575195312 73.46216583251953 542.7698974609375 84.11898803710938" stroke-width="0.0" fill="rgb(178, 185, 196)" opacity="0.99437857"/>
    <path d="M 201.15419006347656 508.1720886230469 C 198.7349090576172 518.4536743164062 191.49639892578125 525.8717651367188 181.0037384033203 528.6446533203125 C 170.7426300048828 525.6968383789062 163.53839111328125 518.1807250976562 160.96400451660156 508.0425720214844 C 163.67991638183594 498.00042724609375 171.00054931640625 490.68035888671875 181.0001220703125 488.0025939941406 C 190.99972534179688 490.6800231933594 198.3203582763672 498.00018310546875 201.15419006347656 508.1720886230469" stroke-width="0.0" fill="rgb(191, 195, 204)" opacity="0.99054164"/>
    <path d="M 78.0024185180664 509.00439453125 C 75.34431457519531 519.0435180664062 68.0831527709961 526.4738159179688 58.033287048339844 529.276611328125 C 47.634517669677734 526.6875 40.18157958984375 519.4102783203125 37.2219352722168 508.57318115234375 C 40.00226974487305 498.4197692871094 47.50262451171875 491.249755859375 57.83130645751953 488.8569030761719 C 68.0 491.67950439453125 75.32051086425781 499.0 78.0024185180664 509.00439453125" stroke-width="0.0" fill="rgb(187, 190, 201)" opacity="0.9903114"/>
    <path d="M 427.2070617675781 450.1364440917969 C 424.55078125 460.1595153808594 417.11224365234375 467.3984375 406.8873596191406 470.14556884765625 C 396.6897888183594 467.6230163574219 389.2927551269531 460.33636474609375 386.3309020996094 449.65472412109375 C 389.1058349609375 439.51092529296875 396.5477294921875 432.2089538574219 406.72186279296875 429.6326904296875 C 416.9998779296875 432.6796569824219 424.3204040527344 440.0000915527344 427.2070617675781 450.1364440917969" stroke-width="0.0" fill="rgb(194, 197, 211)" opacity="0.99248415"/>
    <path d="M 329.6864318847656 297.35394287109375 C 326.265380859375 307.982421875 318.99786376953125 315.31982421875 308.9862976074219 318.00634765625 C 298.8153991699219 315.4120178222656 291.09014892578125 308.3769226074219 289.75250244140625 298.816650390625 C 292.4628601074219 288.6206359863281 299.2378845214844 280.1815490722656 309.5879821777344 277.1382141113281 C 319.6650085449219 279.94488525390625 327.06036376953125 287.3308410644531 329.6864318847656 297.35394287109375" stroke-width="0.0" fill="rgb(203, 205, 217)" opacity="0.9901792"/>
    <path d="M 371.05059814453125 382.2379150390625 C 368.4281005859375 392.1291809082031 361.1250305175781 399.4190979003906 351.238037109375 402.04644775390625 C 342.4056396484375 399.6861572265625 334.76300048828125 392.8199462890625 332.01849365234375 382.98834228515625 C 334.68023681640625 373.000244140625 342.00006103515625 365.6795349121094 352.4424133300781 362.5714416503906 C 362.7096862792969 364.9697265625 369.7463073730469 372.3361511230469 371.05059814453125 382.2379150390625" stroke-width="0.0" fill="rgb(12, 14, 23)" opacity="0.99000645"/>
    <path d="M 137.47483825683594 328.634765625 C 134.33474731445312 339.005615234375 127.00176239013672 346.3211669921875 116.78246307373047 349.2793273925781 C 106.61445617675781 346.7242126464844 99.21766662597656 339.40478515625 96.4713363647461 329.1942138671875 C 99.50279235839844 318.91436767578125 106.96172332763672 311.65399169921875 117.37701416015625 308.4852294921875 C 127.54647827148438 311.1003723144531 134.89505004882812 318.454833984375 137.47483825683594 328.634765625" stroke-width="0.0" fill="rgb(187, 190, 203)" opacity="0.9923389"/>
    <path d="M 479.1672058105469 121.90553283691406 C 476.3762512207031 132.1012725830078 469.2038269042969 139.68048095703125 459.0396728515625 142.70054626464844 C 448.5303955078125 139.83872985839844 441.2289733886719 132.44827270507812 438.75640869140625 122.22417449951172 C 441.67950439453125 112.0 449.0 104.67951202392578 459.0088195800781 101.9957046508789 C 469.0698547363281 104.63699340820312 476.49322509765625 111.89002227783203 479.1672058105469 121.90553283691406" stroke-width="0.0" fill="rgb(182, 191, 201)" opacity="0.9932792"/>
    <path d="M 613.0000610351562 213.000244140625 C 610.3234252929688 223.00819396972656 603.0349731445312 230.4144287109375 592.5160522460938 233.6964111328125 C 582.3660278320312 231.01211547851562 575.0669555664062 223.6060791015625 572.267822265625 212.8021697998047 C 575.084716796875 202.463623046875 582.4783325195312 195.12942504882812 592.6583862304688 192.57275390625 C 603.0 195.6794891357422 610.3204956054688 203.0 613.0000610351562 213.000244140625" stroke-width="0.0" fill="rgb(175, 181, 192)" opacity="0.99367464"/>
    <path d="M 60.79061508178711 53.990333557128906 C 57.93183517456055 64.54098510742188 50.50818634033203 71.83525848388672 39.69109344482422 74.64337158203125 C 29.38794708251953 71.97096252441406 22.050230026245117 64.60460662841797 19.312536239624023 54.04509735107422 C 22.069934844970703 43.41797637939453 29.39923858642578 36.01704025268555 39.479576110839844 33.269561767578125 C 50.369937896728516 36.39607238769531 57.93960952758789 43.51333999633789 60.79061508178711 53.990333557128906" stroke-width="0.0" fill="rgb(181, 189, 200)" opacity="0.9928473"/>
    <path d="M 279.1001892089844 304.1965637207031 C 276.427001953125 314.1359558105469 269.16448974609375 321.5235290527344 259.13995361328125 325.9450988769531 C 249.10121154785156 323.24554443359375 241.82443237304688 315.8749084472656 239.38070678710938 305.64178466796875 C 242.8367919921875 295.2790222167969 250.4672088623047 288.3340148925781 260.7525939941406 285.244384765625 C 270.1479187011719 287.2723388671875 277.17828369140625 295.056640625 279.1001892089844 304.1965637207031" stroke-width="0.0" fill="rgb(5, 5, 9)" opacity="0.9900151"/>
    <path d="M 78.73497009277344 24.28030776977539 C 75.9671859741211 34.60816955566406 68.61616516113281 41.9885368347168 58.424781799316406 44.76017761230469 C 47.77822494506836 41.607757568359375 40.353214263916016 34.238285064697266 37.45372009277344 23.785648345947266 C 40.12261962890625 13.466607093811035 47.449005126953125 6.07059907913208 57.76762390136719 3.2692205905914307 C 68.57902526855469 6.075451850891113 75.92476654052734 13.420809745788574 78.73497009277344 24.28030776977539" stroke-width="0.0" fill="rgb(182, 189, 200)" opacity="0.99216235"/>
    <path d="M 605.3939208984375 175.16554260253906 C 602.8955078125 185.6009979248047 595.6398315429688 193.01510620117188 585.0301513671875 195.7820281982422 C 574.4051513671875 192.98477172851562 567.1619873046875 185.5462646484375 564.680419921875 175.15460205078125 C 567.3059692382812 164.55421447753906 574.4678955078125 157.04579162597656 584.7979736328125 154.25387573242188 C 595.492919921875 157.10853576660156 602.73583984375 164.55816650390625 605.3939208984375 175.16554260253906" stroke-width="0.0" fill="rgb(175, 181, 192)" opacity="0.991861"/>
    <path d="M 505.4877014160156 132.38885498046875 C 502.915771484375 142.57102966308594 495.5752868652344 149.9284210205078 484.7550048828125 152.75193786621094 C 474.4149475097656 149.95321655273438 467.0682067871094 142.5785675048828 464.534912109375 132.3906707763672 C 467.65576171875 121.96044921875 474.93670654296875 114.57732391357422 484.9416198730469 111.90570068359375 C 495.0 114.67948913574219 502.32049560546875 122.0 505.4877014160156 132.38885498046875" stroke-width="0.0" fill="rgb(183, 190, 201)" opacity="0.992047"/>
    <path d="M 317.7422180175781 556.281494140625 C 314.7554931640625 566.2368774414062 307.0953674316406 573.3627319335938 296.72772216796875 576.3048095703125 C 286.4872131347656 573.8353881835938 279.0863952636719 566.5382080078125 276.115478515625 555.2349853515625 C 278.78424072265625 545.1246948242188 286.13287353515625 537.8067626953125 296.2592468261719 535.23779296875 C 307.1230773925781 538.7317504882812 314.73455810546875 545.7333984375 317.7422180175781 556.281494140625" stroke-width="0.0" fill="rgb(173, 176, 188)" opacity="1.0"/>
    <path d="M 518.66455078125 597.4759521484375 C 515.3068237304688 607.9954223632812 507.9991760253906 615.3201904296875 497.9999694824219 618.0 C 487.99920654296875 615.3207397460938 480.6661376953125 608.0044555664062 477.3432312011719 597.52685546875 C 480.0693359375 587.4357299804688 487.421142578125 580.0328369140625 497.8298034667969 577.2216186523438 C 508.6164855957031 580.0230102539062 515.9816284179688 587.38232421875 518.66455078125 597.4759521484375" stroke-width="0.0" fill="rgb(195, 199, 207)" opacity="1.0"/>
    <path d="M 110.11117553710938 106.12417602539062 C 107.65625 116.38684844970703 100.46714782714844 123.8962173461914 90.3116226196289 126.73322296142578 C 79.51899719238281 123.83466339111328 72.14696502685547 116.48710632324219 69.48920440673828 106.25642395019531 C 72.31092071533203 95.61288452148438 79.56594848632812 88.16580963134766 89.65309143066406 85.37593841552734 C 100.05570983886719 88.5594482421875 107.33058166503906 95.97749328613281 110.11117553710938 106.12417602539062" stroke-width="0.0" fill="rgb(186, 191, 201)" opacity="0.9924416"/>
    <path d="M 575.4515991210938 169.600830078125 C 572.3209838867188 180.00035095214844 565.000244140625 187.32070922851562 555.0000610351562 190.00003051757812 C 545.0 187.3205108642578 537.6795043945312 180.0 534.9912109375 169.98468017578125 C 537.6023559570312 159.86708068847656 544.7743530273438 152.32081604003906 555.4149169921875 149.25384521484375 C 565.6181640625 152.021484375 572.9533081054688 159.38949584960938 575.4515991210938 169.600830078125" stroke-width="0.0" fill="rgb(174, 181, 193)" opacity="1.0"/>
    <path d="M 550.0439453125 124.95358276367188 C 547.364013671875 135.068359375 540.1029663085938 142.47686767578125 529.7570190429688 145.40090942382812 C 519.5012817382812 142.84182739257812 512.1730346679688 135.49386596679688 509.6732177734375 125.26421356201172 C 512.5852661132812 114.8681869506836 519.8143920898438 107.41300201416016 530.397216796875 104.31499481201172 C 540.40185546875 107.13611602783203 547.5256958007812 114.71343994140625 550.0439453125 124.95358276367188" stroke-width="0.0" fill="rgb(177, 185, 196)" opacity="0.9932749"/>
    <path d="M 225.66543579101562 155.18638610839844 C 222.8116912841797 165.42294311523438 215.4371795654297 172.8473663330078 205.181884765625 175.7100067138672 C 194.4890594482422 172.8613739013672 187.09854125976562 165.52516174316406 184.35977172851562 155.19895935058594 C 187.19482421875 144.5661163330078 194.559814453125 137.17425537109375 205.28598022460938 134.21759033203125 C 215.58468627929688 137.03074645996094 222.86941528320312 144.44883728027344 225.66543579101562 155.18638610839844" stroke-width="0.0" fill="rgb(191, 195, 206)" opacity="0.9910044"/>
    <path d="M 137.78338623046875 438.7388916015625 C 134.86082458496094 449.47247314453125 127.45853424072266 456.821044921875 116.92686462402344 459.64117431640625 C 106.4322280883789 456.9074401855469 99.06078338623047 449.57843017578125 96.37596130371094 439.2479553222656 C 99.12049102783203 428.43414306640625 106.41091918945312 421.0478820800781 116.82881927490234 418.33642578125 C 127.57186126708984 421.09197998046875 134.96937561035156 428.4073791503906 137.78338623046875 438.7388916015625" stroke-width="0.0" fill="rgb(186, 188, 202)" opacity="0.9918519"/>
    <path d="M 460.003662109375 109.99171447753906 C 457.3204345703125 120.00051879882812 450.004150390625 127.33358001708984 439.6158752441406 130.5206756591797 C 429.4223327636719 127.927734375 422.0784912109375 120.57547760009766 419.32501220703125 109.9041748046875 C 422.0276794433594 99.38511657714844 429.398193359375 92.06576538085938 439.7091064453125 89.40882110595703 C 450.1446838378906 92.4293441772461 457.3642883300781 99.9209213256836 460.003662109375 109.99171447753906" stroke-width="0.0" fill="rgb(186, 193, 204)" opacity="0.9911237"/>
    <path d="M 547.4432983398438 245.62757873535156 C 544.3053588867188 255.99468994140625 536.9987182617188 263.31976318359375 526.56201171875 266.52325439453125 C 516.3596801757812 263.9754943847656 508.9880065917969 256.65301513671875 506.27117919921875 246.23196411132812 C 509.0760803222656 235.42404174804688 516.3990478515625 228.00909423828125 526.6146850585938 225.2367401123047 C 537.5065307617188 228.12530517578125 544.8648071289062 235.49700927734375 547.4432983398438 245.62757873535156" stroke-width="0.0" fill="rgb(181, 185, 197)" opacity="0.99256396"/>
    <path d="M 616.0006103515625 212.0009307861328 C 613.3346557617188 222.03758239746094 606.1284790039062 229.6074981689453 596.3399047851562 232.58567810058594 C 586.0 229.3205108642578 578.6795043945312 222.0 575.9998779296875 211.99969482421875 C 578.6762084960938 201.99114990234375 585.96875 194.59976196289062 596.0164794921875 191.6136016845703 C 606.0361938476562 194.5875701904297 613.3243408203125 201.98977661132812 616.0006103515625 212.0009307861328" stroke-width="0.0" fill="rgb(173, 181, 191)" opacity="0.9981828"/>
    <path d="M 547.9970092773438 332.99981689453125 C 545.3198852539062 342.9997253417969 537.9998779296875 350.3204650878906 528.0 353.00103759765625 C 518.0021362304688 350.3194274902344 510.6842346191406 342.9967956542969 507.9921569824219 332.9912109375 C 510.6667785644531 322.9919738769531 517.9947509765625 315.6760559082031 527.9992065429688 312.9994201660156 C 537.9999389648438 315.67950439453125 545.3201293945312 323.0001525878906 547.9970092773438 332.99981689453125" stroke-width="0.0" fill="rgb(183, 189, 200)" opacity="0.9914919"/>
    <path d="M 150.7736053466797 293.0867614746094 C 147.92730712890625 303.53411865234375 140.49948120117188 310.82659912109375 129.93075561523438 313.56378173828125 C 119.56967163085938 310.82098388671875 112.34053802490234 303.3794250488281 109.49751281738281 292.7233581542969 C 112.1521224975586 282.5062561035156 119.48831939697266 275.103759765625 129.89309692382812 272.3338623046875 C 140.51516723632812 275.1262512207031 147.89501953125 282.4781494140625 150.7736053466797 293.0867614746094" stroke-width="0.0" fill="rgb(189, 192, 204)" opacity="0.9912119"/>
    <path d="M 569.6908569335938 182.55015563964844 C 567.0167236328125 192.65069580078125 559.6375122070312 199.97854614257812 549.2796020507812 202.65353393554688 C 538.779052734375 199.67755126953125 531.6080322265625 192.12669372558594 528.9944458007812 182.01329040527344 C 531.6795043945312 172.0 539.0 164.6794891357422 548.9998779296875 162.0001983642578 C 558.9998168945312 164.67970275878906 566.3202514648438 172.0001983642578 569.6908569335938 182.55015563964844" stroke-width="0.0" fill="rgb(178, 184, 195)" opacity="0.9940745"/>
    <path d="M 53.72809982299805 143.21463012695312 C 51.00360107421875 153.63670349121094 43.615264892578125 160.94094848632812 33.0231819152832 163.64093017578125 C 22.49016571044922 160.87185668945312 15.12818431854248 153.5100860595703 12.36631965637207 143.07936096191406 C 15.170049667358398 132.53335571289062 22.53169059753418 125.16505432128906 33.13105392456055 122.35919189453125 C 43.57979965209961 125.06938171386719 50.93894958496094 132.41737365722656 53.72809982299805 143.21463012695312" stroke-width="0.0" fill="rgb(184, 190, 201)" opacity="0.9913594"/>
    <path d="M 80.59403228759766 484.8211669921875 C 77.60897064208984 495.1745910644531 70.10139465332031 502.3811340332031 60.0000114440918 505.0206604003906 C 49.944313049316406 502.3654479980469 42.59527587890625 495.06756591796875 39.9283447265625 484.9947204589844 C 42.51669692993164 474.76348876953125 49.6453971862793 467.1732177734375 59.824432373046875 464.2569885253906 C 70.51097106933594 467.13214111328125 77.85820770263672 474.4922790527344 80.59403228759766 484.8211669921875" stroke-width="0.0" fill="rgb(182, 187, 197)" opacity="0.9922016"/>
    <path d="M 196.96812438964844 592.6543579101562 C 194.13502502441406 602.9067993164062 186.9580841064453 610.2999267578125 176.99688720703125 612.9982299804688 C 166.99517822265625 610.321533203125 159.614013671875 603.0234985351562 156.62696838378906 593.0390014648438 C 159.4500732421875 582.720458984375 166.6729278564453 575.295654296875 176.994140625 572.5733642578125 C 187.35423278808594 575.2945556640625 194.6858367919922 582.6533203125 196.96812438964844 592.6543579101562" stroke-width="0.0" fill="rgb(220, 223, 230)" opacity="0.99124676"/>
    <path d="M 333.5738220214844 480.8648986816406 C 330.8383483886719 491.4788513183594 323.458984375 498.7749938964844 312.77374267578125 501.4956970214844 C 302.5259094238281 498.86834716796875 295.8572998046875 491.3320007324219 293.92791748046875 481.5347595214844 C 296.31396484375 470.6712646484375 302.3097839355469 462.8692932128906 312.2966003417969 460.1143798828125 C 323.5848388671875 463.0591735839844 330.9224853515625 470.4212646484375 333.5738220214844 480.8648986816406" stroke-width="0.0" fill="rgb(193, 198, 207)" opacity="0.990089"/>
    <path d="M 78.56925201416016 210.55223083496094 C 75.3206787109375 221.00013732910156 68.00013732910156 228.3206787109375 57.98957061767578 231.0060577392578 C 47.899818420410156 228.3763885498047 40.379825592041016 221.17910766601562 37.39915466308594 210.7624969482422 C 40.10360336303711 200.4837188720703 47.49830627441406 193.13926696777344 58.26219177246094 190.22959899902344 C 68.62989044189453 192.99557495117188 75.9568862915039 200.38754272460938 78.56925201416016 210.55223083496094" stroke-width="0.0" fill="rgb(183, 190, 201)" opacity="0.9931697"/>
    <path d="M 493.84295654296875 240.50889587402344 C 491.12255859375 250.7316436767578 483.63848876953125 257.7611083984375 473.1788330078125 259.3947448730469 C 463.43463134765625 256.8417053222656 456.21612548828125 249.5447998046875 453.6827697753906 239.764892578125 C 455.4725341796875 229.45321655273438 462.3130798339844 221.89649963378906 472.42608642578125 219.1992950439453 C 483.522216796875 222.1349334716797 490.9528503417969 229.44593811035156 493.84295654296875 240.50889587402344" stroke-width="0.0" fill="rgb(157, 161, 170)" opacity="0.990036"/>
    <path d="M 439.7329406738281 18.372608184814453 C 437.0273742675781 28.647111892700195 429.62493896484375 35.970703125 419.31585693359375 38.730430603027344 C 408.4642028808594 35.87922286987305 401.0582580566406 28.557519912719727 398.24505615234375 18.162561416625977 C 401.03656005859375 7.39857292175293 408.42071533203125 0.10486239194869995 418.8521423339844 -2.47170352935791 C 429.4668884277344 0.22368940711021423 436.8885498046875 7.495769023895264 439.7329406738281 18.372608184814453" stroke-width="0.0" fill="rgb(186, 192, 203)" opacity="0.99171305"/>
    <path d="M 570.0004272460938 127.00119018554688 C 567.3336791992188 137.0350341796875 560.12060546875 144.5929412841797 549.8199462890625 147.7162322998047 C 539.5623779296875 144.87696838378906 532.43017578125 137.33621215820312 529.9473876953125 127.06101989746094 C 532.619140625 116.8911361694336 539.8094482421875 109.36731719970703 549.7683715820312 106.62633514404297 C 560.0 109.67948913574219 567.3204956054688 117.0 570.0004272460938 127.00119018554688" stroke-width="0.0" fill="rgb(177, 183, 194)" opacity="0.9947941"/>
    <path d="M 118.28784942626953 301.9764709472656 C 115.48884582519531 312.09332275390625 108.04691314697266 319.3372497558594 97.54450225830078 322.6180114746094 C 87.47305297851562 319.9061584472656 80.122802734375 312.5166320800781 77.3530044555664 302.10797119140625 C 80.11378479003906 291.4524230957031 87.43145751953125 284.05377197265625 98.01667022705078 281.2463073730469 C 108.46592712402344 284.11920166015625 115.6746826171875 291.60150146484375 118.28784942626953 301.9764709472656" stroke-width="0.0" fill="rgb(187, 191, 202)" opacity="0.9915336"/>
    <path d="M 589.7333374023438 26.830120086669922 C 586.9432983398438 37.59729766845703 579.6050415039062 44.96523666381836 568.8909301757812 47.76496505737305 C 558.4127807617188 44.94660568237305 551.0241088867188 37.59890365600586 548.2367553710938 26.92877197265625 C 550.9848022460938 16.34794044494629 558.3595581054688 9.015905380249023 568.8143310546875 6.2730326652526855 C 579.5902709960938 9.070320129394531 586.9881591796875 16.388519287109375 589.7333374023438 26.830120086669922" stroke-width="0.0" fill="rgb(169, 176, 187)" opacity="1.0"/>
    <path d="M 295.558837890625 190.06253051757812 C 292.8492431640625 200.49708557128906 285.4996643066406 207.85675048828125 275.23333740234375 210.5161895751953 C 264.6409912109375 207.6689453125 257.2054748535156 200.4002227783203 254.26759338378906 189.6840057373047 C 257.0621032714844 179.44485473632812 264.4556579589844 172.09315490722656 274.7841796875 169.41860961914062 C 285.4700622558594 172.19573974609375 292.8330993652344 179.5208740234375 295.558837890625 190.06253051757812" stroke-width="0.0" fill="rgb(194, 199, 210)" opacity="0.99107516"/>
    <path d="M 228.6592559814453 280.962890625 C 225.60768127441406 291.22027587890625 218.266845703125 298.7243347167969 207.97048950195312 301.6562194824219 C 197.45199584960938 298.88604736328125 190.05438232421875 291.5680847167969 187.26499938964844 281.32037353515625 C 190.15296936035156 270.5201416015625 197.52975463867188 263.181396484375 208.17161560058594 260.3624572753906 C 218.48362731933594 263.13232421875 225.81919860839844 270.5335998535156 228.6592559814453 280.962890625" stroke-width="0.0" fill="rgb(191, 196, 207)" opacity="0.99170667"/>
    <path d="M 328.57196044921875 579.8677368164062 C 325.8055419921875 590.4520263671875 318.4713134765625 597.8643798828125 308.40521240234375 600.6643676757812 C 297.69183349609375 597.6063232421875 290.27288818359375 590.345947265625 287.34588623046875 579.8583374023438 C 290.3703308105469 569.87548828125 298.0158996582031 562.7799072265625 308.43060302734375 559.6934204101562 C 318.5989685058594 562.0485229492188 325.9107360839844 569.4146728515625 328.57196044921875 579.8677368164062" stroke-width="0.0" fill="rgb(202, 205, 212)" opacity="0.99054813"/>
    <path d="M 580.5863647460938 94.25724792480469 C 577.98486328125 104.6383056640625 570.632080078125 111.96662902832031 560.3391723632812 114.52066802978516 C 549.5145874023438 111.74139404296875 542.0181884765625 104.56547546386719 539.2255249023438 94.31753540039062 C 542.091796875 83.45370483398438 549.451171875 76.0853500366211 560.373779296875 73.21733856201172 C 570.6314697265625 75.98516082763672 577.892822265625 83.40896606445312 580.5863647460938 94.25724792480469" stroke-width="0.0" fill="rgb(173, 182, 191)" opacity="0.99336475"/>
    <path d="M 236.1893768310547 511.16632080078125 C 233.66421508789062 521.3131713867188 226.28900146484375 528.584716796875 216.09738159179688 531.0882568359375 C 206.001953125 528.3201904296875 198.69338989257812 520.9940795898438 196.02340698242188 510.992431640625 C 198.68338012695312 501.00262451171875 206.0019073486328 493.68096923828125 216.0003204345703 491.0003967285156 C 225.99954223632812 493.6798400878906 233.319580078125 501.0006408691406 236.1893768310547 511.16632080078125" stroke-width="0.0" fill="rgb(193, 198, 206)" opacity="0.99410576"/>
    <path d="M 588.7659301757812 424.8397521972656 C 585.9304809570312 435.5707092285156 578.5684814453125 442.9240417480469 568.1129150390625 445.6776428222656 C 557.4798583984375 442.87103271484375 550.0924682617188 435.5331726074219 547.4180908203125 425.37286376953125 C 550.5003662109375 414.8855895996094 557.9270629882812 407.6346740722656 568.0609741210938 404.9403991699219 C 578.30029296875 407.44927978515625 585.870361328125 414.5899353027344 588.7659301757812 424.8397521972656" stroke-width="0.0" fill="rgb(177, 181, 195)" opacity="0.99210083"/>
    <path d="M 237.7081298828125 485.48980712890625 C 234.4178009033203 496.05023193359375 227.02536010742188 503.3347473144531 217.00173950195312 506.0050354003906 C 206.9982452392578 503.3229064941406 199.67843627929688 496.0013427734375 196.99461364746094 485.990478515625 C 199.62841796875 475.9093017578125 206.83901977539062 468.4087219238281 217.37525939941406 465.3592224121094 C 227.62387084960938 468.0221252441406 234.99151611328125 475.3719177246094 237.7081298828125 485.48980712890625" stroke-width="0.0" fill="rgb(190, 194, 202)" opacity="0.9918171"/>
    <path d="M 172.35157775878906 240.84359741210938 C 169.33877563476562 251.0307159423828 162.0994110107422 258.5513610839844 151.78184509277344 261.6833190917969 C 141.43890380859375 258.9151916503906 134.08355712890625 251.56161499023438 131.463134765625 241.37632751464844 C 134.6454315185547 230.9866485595703 141.99598693847656 223.6780548095703 152.00704956054688 220.99642944335938 C 162.0729522705078 223.64002990722656 169.55812072753906 230.86427307128906 172.35157775878906 240.84359741210938" stroke-width="0.0" fill="rgb(189, 193, 204)" opacity="0.9921378"/>
    <path d="M 365.81951904296875 366.6202697753906 C 362.86932373046875 376.3049011230469 355.1000061035156 383.360107421875 344.9957580566406 386.0293273925781 C 334.9944763183594 383.3316345214844 327.68023681640625 376.0020751953125 324.59344482421875 365.77996826171875 C 327.45843505859375 355.8974609375 334.96307373046875 348.6644287109375 344.9983215332031 345.9993591308594 C 355.0 348.67950439453125 362.3204650878906 356.0 365.81951904296875 366.6202697753906" stroke-width="0.0" fill="rgb(5, 7, 12)" opacity="1.0"/>
    <path d="M 151.748779296875 349.6680908203125 C 148.89537048339844 360.5563659667969 141.5704345703125 367.9364929199219 130.8137969970703 370.7574157714844 C 120.45361328125 367.9240417480469 113.05906677246094 360.553466796875 110.32798767089844 350.4794921875 C 113.6464614868164 339.9882507324219 120.99739074707031 332.6786804199219 131.2957000732422 329.6593017578125 C 141.5287322998047 332.1484375 148.95474243164062 339.4360046386719 151.748779296875 349.6680908203125" stroke-width="0.0" fill="rgb(188, 189, 204)" opacity="0.99177396"/>
    <path d="M 307.96673583984375 404.55029296875 C 305.2612609863281 414.927978515625 297.92840576171875 422.26239013671875 287.70697021484375 424.969482421875 C 276.1385192871094 422.22998046875 268.9124755859375 414.809814453125 266.48382568359375 404.49761962890625 C 269.67950439453125 394.0 277.0 386.67950439453125 287.54730224609375 383.4865417480469 C 297.8464660644531 385.8675231933594 305.2415466308594 393.1155700683594 307.96673583984375 404.55029296875" stroke-width="0.0" fill="rgb(7, 14, 20)" opacity="1.0"/>
    <path d="M 513.0459594726562 332.4559020996094 C 510.50115966796875 341.39227294921875 504.4327697753906 350.09393310546875 493.2731018066406 352.940673828125 C 483.08465576171875 350.2452697753906 475.7466735839844 342.9184265136719 473.0329284667969 332.01025390625 C 475.7499694824219 321.0887145996094 483.08953857421875 313.75177001953125 493.1628723144531 311.0411682128906 C 503.23419189453125 315.12066650390625 510.4340515136719 322.8408203125 513.0459594726562 332.4559020996094" stroke-width="0.0" fill="rgb(3, 3, 6)" opacity="0.9900116"/>
    <path d="M 364.62603759765625 502.8826904296875 C 361.7910461425781 513.4175415039062 354.3990783691406 520.7360229492188 343.7718811035156 523.6226196289062 C 333.5298767089844 520.8284912109375 326.14520263671875 513.4805297851562 323.2868347167969 502.824951171875 C 326.1187744140625 492.5077209472656 333.5320129394531 485.1899108886719 343.86260986328125 482.54302978515625 C 354.4518737792969 485.2513427734375 361.88189697265625 492.50482177734375 364.62603759765625 502.8826904296875" stroke-width="0.0" fill="rgb(195, 201, 208)" opacity="0.9910496"/>
    <path d="M 232.76971435546875 532.6624145507812 C 230.14491271972656 542.7935180664062 222.78187561035156 550.1134643554688 212.5994110107422 552.5878295898438 C 201.7318572998047 549.5621948242188 194.3240509033203 542.3023681640625 191.53358459472656 532.178955078125 C 194.55349731445312 521.9276733398438 201.96617126464844 514.6829833984375 212.00230407714844 512.1571044921875 C 222.06527709960938 514.6722412109375 229.54783630371094 521.86669921875 232.76971435546875 532.6624145507812" stroke-width="0.0" fill="rgb(214, 216, 222)" opacity="1.0"/>
    <path d="M 196.6439666748047 261.1313171386719 C 193.9017333984375 271.55499267578125 186.5598602294922 278.9161071777344 176.22116088867188 281.64349365234375 C 165.5445098876953 278.79730224609375 158.1237030029297 271.482666015625 155.3681640625 261.4272766113281 C 158.65927124023438 250.96766662597656 165.8993377685547 243.4481201171875 176.06895446777344 240.3751220703125 C 186.44065856933594 243.21131896972656 193.82154846191406 250.54835510253906 196.6439666748047 261.1313171386719" stroke-width="0.0" fill="rgb(191, 195, 206)" opacity="0.9912263"/>
    <path d="M 520.0166015625 115.0261459350586 C 517.427001953125 125.15697479248047 510.22900390625 132.6525421142578 500.2231140136719 135.34007263183594 C 490.00054931640625 132.32008361816406 482.6805419921875 124.999267578125 480.0015869140625 114.99947357177734 C 482.6795349121094 105.00000762939453 490.0 97.67948913574219 500.0 95.0 C 510.0 97.67949676513672 517.3203735351562 105.00005340576172 520.0166015625 115.0261459350586" stroke-width="0.0" fill="rgb(179, 187, 198)" opacity="0.997076"/>
    <path d="M 336.8377990722656 427.42559814453125 C 333.9443664550781 438.5760192871094 326.5586853027344 445.89398193359375 316.1257019042969 448.59033203125 C 305.5137023925781 445.82867431640625 298.0479431152344 438.5323486328125 295.13916015625 427.5762634277344 C 297.8559265136719 417.216064453125 305.25079345703125 409.9752502441406 315.21826171875 408.9427185058594 C 325.5138244628906 411.4910583496094 334.0978698730469 417.42913818359375 336.8377990722656 427.42559814453125" stroke-width="0.0" fill="rgb(193, 197, 206)" opacity="0.9900645"/>
    <path d="M 369.9645690917969 356.24005126953125 C 367.1866455078125 367.77008056640625 359.6385498046875 374.8197937011719 349.16162109375 377.08953857421875 C 339.0002136230469 374.31768798828125 331.67376708984375 367.00225830078125 328.98846435546875 357.0051574707031 C 331.68023681640625 347.001220703125 339.0023498535156 339.6842346191406 349.6548767089844 336.48272705078125 C 359.89013671875 338.80389404296875 367.2536315917969 346.09014892578125 369.9645690917969 356.24005126953125" stroke-width="0.0" fill="rgb(11, 15, 19)" opacity="1.0"/>
    <path d="M 70.50022888183594 553.1847534179688 C 67.64859008789062 563.3125 60.318336486816406 570.66357421875 49.84447479248047 573.437744140625 C 39.65032196044922 570.7179565429688 32.29839324951172 563.3430786132812 29.560382843017578 553.2897338867188 C 32.468284606933594 542.76708984375 39.75357437133789 535.42138671875 50.23469543457031 532.4716796875 C 60.34171676635742 535.2713623046875 67.61643981933594 542.6943969726562 70.50022888183594 553.1847534179688" stroke-width="0.0" fill="rgb(233, 235, 241)" opacity="0.9907021"/>
    <path d="M 568.6959838867188 308.5284118652344 C 565.9737548828125 318.5980529785156 558.5838623046875 325.93328857421875 548.4100341796875 328.5110778808594 C 538.0 325.3207092285156 530.6802978515625 317.9997253417969 527.9434814453125 307.9242248535156 C 530.4422607421875 297.70654296875 537.6392211914062 290.23028564453125 547.7093505859375 287.6025390625 C 557.9996948242188 290.6795654296875 565.320556640625 298.0002746582031 568.6959838867188 308.5284118652344" stroke-width="0.0" fill="rgb(179, 186, 197)" opacity="0.99356264"/>
    <path d="M 28.607585906982422 236.6964874267578 C 25.838464736938477 247.525390625 18.55905532836914 254.94125366210938 8.357332229614258 257.7145080566406 C -2.1669158935546875 254.6162567138672 -9.365372657775879 247.08517456054688 -12.008893966674805 236.99884033203125 C -9.369821548461914 226.90916442871094 -2.1686081886291504 219.3897705078125 8.279890060424805 216.37139892578125 C 18.592756271362305 219.06222534179688 25.95526885986328 226.4013671875 28.607585906982422 236.6964874267578" stroke-width="0.0" fill="rgb(183, 188, 199)" opacity="1.0"/>
    <path d="M 304.97015380859375 273.2374572753906 C 302.2267761230469 284.8732604980469 294.8515930175781 292.1697082519531 284.667724609375 294.6825256347656 C 273.86480712890625 291.37335205078125 266.40240478515625 284.204345703125 264.89111328125 274.7016296386719 C 267.5028381347656 264.79620361328125 274.802978515625 257.51904296875 284.9090270996094 253.17698669433594 C 294.9263916015625 255.7440185546875 302.26495361328125 263.0699157714844 304.97015380859375 273.2374572753906" stroke-width="0.0" fill="rgb(35, 47, 63)" opacity="0.9901431"/>
    <path d="M 570.7699584960938 359.1124267578125 C 567.8901977539062 369.47833251953125 560.4429931640625 376.79364013671875 549.7979736328125 379.67236328125 C 539.5455322265625 376.8825378417969 532.3890991210938 369.365478515625 529.929931640625 359.0930480957031 C 532.6798095703125 349.0000915527344 539.9999389648438 341.6793212890625 550.156005859375 338.8580322265625 C 560.4391479492188 341.2890930175781 567.9099731445312 348.4960632324219 570.7699584960938 359.1124267578125" stroke-width="0.0" fill="rgb(178, 186, 197)" opacity="1.0"/>
    <path d="M 331.9014587402344 306.6708679199219 C 329.1597595214844 316.80072021484375 321.7951354980469 324.14410400390625 311.6270446777344 326.8139953613281 C 300.468505859375 323.86602783203125 293.0891418457031 316.5468444824219 290.32232666015625 306.3049621582031 C 293.6055603027344 295.9727478027344 300.9885559082031 288.66156005859375 311.02716064453125 285.9507141113281 C 321.22320556640625 288.5357666015625 328.93731689453125 295.5899353027344 331.9014587402344 306.6708679199219" stroke-width="0.0" fill="rgb(194, 208, 213)" opacity="1.0"/>
    <path d="M 194.72683715820312 183.23178100585938 C 191.93087768554688 193.5675811767578 184.57571411132812 200.953369140625 174.34619140625 203.7287139892578 C 163.44984436035156 200.87808227539062 156.05801391601562 193.57177734375 153.25660705566406 183.0575714111328 C 156.18922424316406 172.59710693359375 163.60546875 165.21351623535156 173.85609436035156 162.38316345214844 C 184.403076171875 165.24908447265625 191.8242645263672 172.5708770751953 194.72683715820312 183.23178100585938" stroke-width="0.0" fill="rgb(190, 194, 206)" opacity="0.99142075"/>
    <path d="M 100.50135803222656 512.7588500976562 C 97.76927185058594 523.4752807617188 90.51043701171875 530.8821411132812 80.36206817626953 533.5469360351562 C 69.7558364868164 530.5508422851562 62.43423080444336 523.24755859375 59.899070739746094 513.11181640625 C 62.701290130615234 503.0162048339844 70.01290130615234 495.6900634765625 80.29463958740234 492.6194763183594 C 90.48217010498047 495.18316650390625 97.8777084350586 502.4966735839844 100.50135803222656 512.7588500976562" stroke-width="0.0" fill="rgb(197, 199, 207)" opacity="0.99041957"/>
    <path d="M 112.70684051513672 387.1667175292969 C 109.97047424316406 397.595458984375 102.55826568603516 404.8549499511719 92.25204467773438 407.2754821777344 C 81.83155059814453 404.4325256347656 74.25069427490234 397.2760925292969 71.22069549560547 386.791259765625 C 74.0789566040039 376.48760986328125 81.52910614013672 369.19329833984375 92.13336944580078 366.3895263671875 C 102.55516815185547 369.1005859375 109.91680908203125 376.4389953613281 112.70684051513672 387.1667175292969" stroke-width="0.0" fill="rgb(185, 189, 200)" opacity="0.99247754"/>
    <path d="M 586.7066040039062 404.6387023925781 C 583.75927734375 415.3221740722656 576.2314453125 422.4801330566406 565.9640502929688 425.07391357421875 C 555.6533813476562 422.57745361328125 548.1097412109375 415.45013427734375 545.2827758789062 404.93792724609375 C 548.030517578125 394.3736572265625 555.357666015625 386.9851379394531 565.697021484375 384.20257568359375 C 576.6288452148438 387.024169921875 584.0031127929688 394.36102294921875 586.7066040039062 404.6387023925781" stroke-width="0.0" fill="rgb(176, 184, 194)" opacity="0.9928901"/>
    <path d="M 300.89044189453125 393.1574401855469 C 297.3101501464844 403.9907531738281 289.9890441894531 411.3041687011719 279.4835205078125 414.4769592285156 C 269.1923828125 412.1017761230469 261.83197021484375 404.827880859375 260.9082336425781 394.8108825683594 C 263.4507751464844 384.3578186035156 269.307373046875 375.8165283203125 280.68121337890625 373.0363464355469 C 290.91510009765625 375.74774169921875 298.24298095703125 383.0886535644531 300.89044189453125 393.1574401855469" stroke-width="0.0" fill="rgb(21, 28, 36)" opacity="0.9901046"/>
    <path d="M 215.71243286132812 383.66204833984375 C 212.86769104003906 394.5307922363281 205.53646850585938 401.88543701171875 195.0935821533203 404.5948486328125 C 184.55445861816406 401.8052673339844 177.14279174804688 394.46368408203125 174.26315307617188 383.9923095703125 C 177.08152770996094 373.46429443359375 184.494140625 366.169677734375 195.31289672851562 363.3099060058594 C 205.5665283203125 366.07000732421875 212.95494079589844 373.4238586425781 215.71243286132812 383.66204833984375" stroke-width="0.0" fill="rgb(191, 192, 206)" opacity="0.99129534"/>
    <path d="M 408.6092834472656 582.1765747070312 C 405.9442443847656 592.5974731445312 398.5931091308594 599.9306640625 388.212646484375 602.5315551757812 C 377.5209045410156 599.7994995117188 370.1338806152344 592.5005493164062 367.3160095214844 581.8265380859375 C 370.07147216796875 571.44970703125 377.48126220703125 564.1658935546875 387.8675842285156 561.51806640625 C 398.3851623535156 564.2800903320312 405.7979431152344 571.588134765625 408.6092834472656 582.1765747070312" stroke-width="0.0" fill="rgb(201, 204, 212)" opacity="0.99067485"/>
    <path d="M 549.3547973632812 160.67027282714844 C 546.320068359375 170.999755859375 538.9998779296875 178.32052612304688 528.9190063476562 181.0647735595703 C 518.6802978515625 178.57594299316406 511.1744689941406 171.40074157714844 508.3916320800781 161.0535888671875 C 511.1283874511719 150.4727020263672 518.4718017578125 143.12583923339844 529.0457153320312 140.43540954589844 C 539.5785522460938 143.084716796875 546.90087890625 150.42596435546875 549.3547973632812 160.67027282714844" stroke-width="0.0" fill="rgb(179, 183, 194)" opacity="0.9928795"/>
    <path d="M 257.06103515625 298.2183532714844 C 254.43775939941406 308.1636657714844 247.20826721191406 315.57110595703125 237.35650634765625 318.695068359375 C 227.47760009765625 316.91021728515625 220.13645935058594 309.50653076171875 217.4710693359375 299.28662109375 C 220.4672393798828 288.72943115234375 227.61708068847656 281.149169921875 238.0838623046875 278.21038818359375 C 248.50796508789062 281.073974609375 254.943115234375 288.7029724121094 257.06103515625 298.2183532714844" stroke-width="0.0" fill="rgb(186, 190, 202)" opacity="0.9900177"/>
    <path d="M 36.730369567871094 413.9014587402344 C 33.9259147644043 424.54486083984375 26.526905059814453 431.8772888183594 16.376670837402344 434.50457763671875 C 6.000153541564941 431.3204650878906 -1.3202098608016968 423.999755859375 -4.187234878540039 413.7962951660156 C -1.7870807647705078 403.4866027832031 5.4275898933410645 396.03167724609375 15.95303726196289 393.26312255859375 C 26.626039505004883 396.0133972167969 33.96366500854492 403.382568359375 36.730369567871094 413.9014587402344" stroke-width="0.0" fill="rgb(183, 187, 198)" opacity="0.99137044"/>
  </g>
</svg>
