<?xml version="1.0" ?>
<svg xmlns="http://www.w3.org/2000/svg" version="1.1" width="600" height="600">
  <defs/>
  <g>
    <path d="M 67.566650390625 276.7605895996094 C 64.56363677978516 287.1464538574219 57.087337493896484 294.3759765625 46.96907043457031 297.03643798828125 C 36.746883392333984 294.49285888671875 29.166542053222656 287.3688049316406 26.247621536254883 276.9403991699219 C 29.103492736816406 266.4713134765625 36.46195983886719 259.0782470703125 46.75897979736328 256.2713623046875 C 57.57656478881836 259.07708740234375 64.9179458618164 266.4248352050781 67.566650390625 276.7605895996094" stroke-width="0.0" fill="rgb(200, 201, 206)" opacity="0.99121666"/>
    <path d="M 588.99365234375 466.98907470703125 C 586.2900390625 476.9650573730469 578.960693359375 484.2751159667969 568.7587890625 487.17803955078125 C 558.5939331054688 484.7396240234375 551.2529296875 477.40814208984375 548.729248046875 467.22149658203125 C 551.6514282226562 456.94171142578125 558.861083984375 449.4042663574219 568.942138671875 446.32867431640625 C 579.1080932617188 449.4484558105469 586.3374633789062 456.9604187011719 588.99365234375 466.98907470703125" stroke-width="0.0" fill="rgb(210, 211, 216)" opacity="0.9914797"/>
    <path d="M 201.0 430.0 C 198.3205108642578 440.0 191.0 447.32049560546875 181.0 450.0 C 171.0 447.32049560546875 163.6794891357422 440.0 160.96726989746094 429.9627380371094 C 163.56385803222656 419.8695983886719 170.8552703857422 412.5166320800781 180.93167114257812 409.92205810546875 C 191.0 412.67950439453125 198.3205108642578 420.0 201.0 430.0" stroke-width="0.0" fill="rgb(212, 213, 219)" opacity="0.9975022"/>
    <path d="M 397.71337890625 493.9975280761719 C 394.8477783203125 504.4580078125 387.4219055175781 511.73699951171875 376.88629150390625 514.4503784179688 C 366.3509216308594 511.8892822265625 358.8420104980469 504.74774169921875 356.0910339355469 494.4665832519531 C 358.8329772949219 483.18035888671875 366.19146728515625 475.86505126953125 376.4927673339844 473.2239685058594 C 387.4459228515625 476.1843566894531 394.8420104980469 483.5438537597656 397.71337890625 493.9975280761719" stroke-width="0.0" fill="rgb(208, 210, 215)" opacity="1.0"/>
    <path d="M 211.48898315429688 5.311958312988281 C 208.85519409179688 15.536710739135742 201.5658721923828 22.94089698791504 191.1183624267578 25.668350219726562 C 180.453125 22.89607048034668 173.06399536132812 15.560397148132324 170.2376708984375 5.324808120727539 C 173.42945861816406 -5.106344699859619 180.97178649902344 -12.330676078796387 190.9991455078125 -15.000239372253418 C 201.0017852783203 -12.320881843566895 208.35133361816406 -5.010376930236816 211.48898315429688 5.311958312988281" stroke-width="0.0" fill="rgb(190, 191, 197)" opacity="0.9922569"/>
    <path d="M 452.0 248.0 C 449.32049560546875 258.0 442.0 265.32049560546875 431.28985595703125 268.8087463378906 C 421.2062683105469 266.1481018066406 413.8618469238281 258.7898254394531 411.1382751464844 247.6681365966797 C 413.86492919921875 237.27630615234375 421.37579345703125 230.15286254882812 431.7901916503906 227.83602905273438 C 442.0 230.6794891357422 449.32049560546875 238.0 452.0 248.0" stroke-width="0.0" fill="rgb(203, 203, 209)" opacity="1.0"/>
    <path d="M 438.12445068359375 213.87905883789062 C 435.32049560546875 224.0 428.0 231.3205108642578 417.46240234375 234.62924194335938 C 407.2666015625 232.05870056152344 399.8797302246094 224.75570678710938 397.1357116699219 214.31861877441406 C 400.0334167480469 203.47235107421875 407.538818359375 196.20950317382812 418.1982727050781 193.39356994628906 C 428.3905944824219 196.19358825683594 435.6219177246094 203.67007446289062 438.12445068359375 213.87905883789062" stroke-width="0.0" fill="rgb(205, 206, 211)" opacity="1.0"/>
    <path d="M 441.623291015625 586.72119140625 C 438.596923828125 597.1807250976562 431.12005615234375 604.4051513671875 420.9427795410156 607.088623046875 C 410.780029296875 604.5292358398438 403.42889404296875 597.2326049804688 400.7764587402344 586.9904174804688 C 403.3890075683594 576.6929931640625 410.6513977050781 569.2581787109375 421.0495910644531 566.405029296875 C 431.5079345703125 569.1657104492188 438.9006042480469 576.4696655273438 441.623291015625 586.72119140625" stroke-width="0.0" fill="rgb(198, 201, 205)" opacity="1.0"/>
    <path d="M 572.0900268554688 64.96438598632812 C 569.3204956054688 75.0 562.0 82.32051086425781 551.9343872070312 85.05299377441406 C 541.7447509765625 82.52857971191406 534.2841796875 75.31405639648438 531.34228515625 64.70902252197266 C 534.0537719726562 54.4208984375 541.4498291015625 47.14496994018555 551.7285766601562 44.72831344604492 C 562.0032958984375 47.678226470947266 569.3505249023438 54.988487243652344 572.0900268554688 64.96438598632812" stroke-width="0.0" fill="rgb(190, 191, 196)" opacity="0.99305487"/>
    <path d="M 53.19709777832031 130.7926788330078 C 50.32050704956055 141.0 43.0 148.3205108642578 32.61282730102539 151.45513916015625 C 22.426090240478516 148.92840576171875 15.081857681274414 141.5697021484375 12.357535362243652 131.1529083251953 C 15.10047721862793 120.43386840820312 22.423683166503906 113.06934356689453 32.94074249267578 110.33317565917969 C 43.5212287902832 113.10616302490234 50.778770446777344 120.51480865478516 53.19709777832031 130.7926788330078" stroke-width="0.0" fill="rgb(185, 186, 192)" opacity="0.99319893"/>
    <path d="M 154.9964599609375 568.0011596679688 C 152.33880615234375 578.0387573242188 145.0672607421875 585.4332275390625 134.8199920654297 588.4180297851562 C 124.56414794921875 585.7586669921875 117.19105529785156 578.4517822265625 114.6173324584961 568.1922607421875 C 117.32484436035156 557.6132202148438 124.57026672363281 550.1886596679688 134.70166015625 547.6242065429688 C 145.0 550.6795043945312 152.3205108642578 558.0 154.9964599609375 568.0011596679688" stroke-width="0.0" fill="rgb(218, 219, 224)" opacity="0.9907601"/>
    <path d="M 51.5909423828125 338.0035400390625 C 48.84892654418945 348.489990234375 41.47300720214844 355.795654296875 31.06024742126465 358.4819030761719 C 20.661226272583008 355.7073974609375 13.31296443939209 348.3316955566406 10.438820838928223 337.78546142578125 C 13.144811630249023 327.5024719238281 20.508380889892578 320.1625671386719 31.24430274963379 317.3096923828125 C 41.5207633972168 320.0977478027344 48.84641647338867 327.4983215332031 51.5909423828125 338.0035400390625" stroke-width="0.0" fill="rgb(202, 201, 207)" opacity="0.99168193"/>
    <path d="M 537.0447998046875 457.9454040527344 C 534.32080078125 468.0008850097656 527.0069580078125 475.3428039550781 516.6430053710938 478.6329040527344 C 506.6065368652344 475.7850341796875 499.3235778808594 468.3593444824219 496.8302001953125 458.15081787109375 C 499.63787841796875 447.9351501464844 506.8705139160156 440.4344787597656 517.144287109375 437.3175964355469 C 527.3023071289062 440.2630310058594 534.4991455078125 447.7750549316406 537.0447998046875 457.9454040527344" stroke-width="0.0" fill="rgb(209, 208, 216)" opacity="0.9921083"/>
    <path d="M 609.0332641601562 465.9927978515625 C 606.39501953125 476.1048278808594 599.1529541015625 483.550048828125 589.0962524414062 486.3110656738281 C 578.971435546875 483.3852844238281 571.6773681640625 476.0099182128906 568.9818725585938 465.97088623046875 C 571.5621948242188 455.8280334472656 578.7575073242188 448.34027099609375 588.9000854492188 445.6306457519531 C 599.1893310546875 448.4118957519531 606.4194946289062 455.8633117675781 609.0332641601562 465.9927978515625" stroke-width="0.0" fill="rgb(209, 210, 216)" opacity="0.99154335"/>
    <path d="M 314.4883117675781 533.0721435546875 C 311.8152770996094 543.4852294921875 304.5153503417969 550.9026489257812 294.1191101074219 553.5604248046875 C 283.4710693359375 550.8812866210938 276.1178894042969 543.5296020507812 273.31427001953125 532.8236694335938 C 276.1346740722656 522.5317993164062 283.5518493652344 515.188720703125 293.8121337890625 512.3502197265625 C 304.4005432128906 515.2604370117188 311.74859619140625 522.5963134765625 314.4883117675781 533.0721435546875" stroke-width="0.0" fill="rgb(204, 205, 210)" opacity="1.0"/>
    <path d="M 90.69673919677734 36.18629837036133 C 87.98384094238281 46.64089584350586 80.6512680053711 54.01346969604492 70.26081848144531 56.738365173339844 C 59.45094680786133 53.909263610839844 52.073551177978516 46.55536651611328 49.418052673339844 36.412086486816406 C 52.643367767333984 25.986515045166016 59.99644088745117 18.67818832397461 70.0472412109375 15.969056129455566 C 80.26704406738281 18.493486404418945 87.81629943847656 25.630592346191406 90.69673919677734 36.18629837036133" stroke-width="0.0" fill="rgb(183, 185, 190)" opacity="0.99354035"/>
    <path d="M 470.7576599121094 84.15227508544922 C 467.9522705078125 94.58877563476562 460.5879821777344 101.94828033447266 450.18994140625 104.66492462158203 C 439.51727294921875 101.87336730957031 432.30810546875 94.42557525634766 429.7190246582031 83.90090942382812 C 432.2020263671875 73.48304748535156 439.4262390136719 66.02898406982422 449.7106628417969 63.244842529296875 C 460.5884094238281 66.06206512451172 467.9587097167969 73.40424346923828 470.7576599121094 84.15227508544922" stroke-width="0.0" fill="rgb(195, 197, 203)" opacity="0.9918643"/>
    <path d="M 84.77415466308594 174.09860229492188 C 81.90460205078125 184.52210998535156 74.5182113647461 191.89132690429688 64.38733673095703 194.5012664794922 C 54.0 191.3205108642578 46.67953109741211 183.99998474121094 43.4756965637207 173.58314514160156 C 46.06283187866211 163.4080810546875 53.396907806396484 156.02964782714844 63.66866683959961 153.2780303955078 C 74.53356170654297 156.1222686767578 81.90716552734375 163.4569549560547 84.77415466308594 174.09860229492188" stroke-width="0.0" fill="rgb(191, 192, 197)" opacity="1.0"/>
    <path d="M 172.24073791503906 551.8226318359375 C 169.3205108642578 562.0 162.0 569.3204956054688 152.0001678466797 571.9998168945312 C 142.00057983398438 569.3199462890625 134.6802978515625 561.9993286132812 131.77664184570312 551.8444213867188 C 134.39688110351562 541.7591552734375 141.7952423095703 534.52294921875 152.1465606689453 531.751220703125 C 162.24729919433594 534.4174194335938 169.64149475097656 541.73291015625 172.24073791503906 551.8226318359375" stroke-width="0.0" fill="rgb(215, 216, 221)" opacity="0.9915473"/>
    <path d="M 408.4250793457031 581.9888305664062 C 405.79302978515625 592.4949951171875 398.5263977050781 599.8928833007812 388.212890625 602.5113525390625 C 377.5234069824219 599.78173828125 370.1246337890625 592.5065307617188 367.5857238769531 582.3438110351562 C 370.67950439453125 572.0 378.0 564.6795043945312 388.0395202636719 561.972900390625 C 398.21087646484375 564.5283813476562 405.6943054199219 571.7185668945312 408.4250793457031 581.9888305664062" stroke-width="0.0" fill="rgb(201, 204, 208)" opacity="0.9922028"/>
    <path d="M 210.22479248046875 576.8245239257812 C 207.33921813964844 587.0451049804688 200.1218719482422 594.5759887695312 190.09259033203125 597.595947265625 C 179.58660888671875 594.7493286132812 172.22190856933594 587.4224243164062 169.63632202148438 577.2581176757812 C 172.57284545898438 566.8296508789062 179.72332763671875 559.2565307617188 189.75157165527344 556.374267578125 C 200.30653381347656 559.35888671875 207.663818359375 566.686279296875 210.22479248046875 576.8245239257812" stroke-width="0.0" fill="rgb(211, 212, 216)" opacity="0.991872"/>
    <path d="M 209.42605590820312 449.03765869140625 C 206.77676391601562 459.4204406738281 199.40028381347656 466.7119140625 188.93724060058594 469.4024963378906 C 178.5454864501953 466.7690734863281 171.15676879882812 459.47808837890625 168.60421752929688 449.3188171386719 C 171.6794891357422 439.0 179.0 431.67950439453125 189.146728515625 428.8585510253906 C 199.37100219726562 431.3270568847656 206.7519989013672 438.60479736328125 209.42605590820312 449.03765869140625" stroke-width="0.0" fill="rgb(214, 215, 221)" opacity="0.99098396"/>
    <path d="M 165.23802185058594 400.9424133300781 C 162.6570281982422 411.36529541015625 155.3896484375 418.7407531738281 145.07823181152344 421.4050598144531 C 134.937744140625 418.44586181640625 127.66461181640625 411.02886962890625 124.6809310913086 400.73681640625 C 127.19713592529297 390.5276184082031 134.50686645507812 383.1332092285156 144.749267578125 380.3442687988281 C 155.3860321044922 383.2540283203125 162.6763153076172 390.6350402832031 165.23802185058594 400.9424133300781" stroke-width="0.0" fill="rgb(212, 213, 218)" opacity="0.99114925"/>
    <path d="M 385.037109375 444.771484375 C 382.4268798828125 454.1512451171875 375.2272644042969 461.9169616699219 366.86260986328125 465.8320617675781 C 356.91546630859375 461.3996276855469 349.6187438964844 454.0775146484375 346.96527099609375 444.08294677734375 C 347.7767028808594 434.1041564941406 355.11407470703125 426.8138732910156 365.1506042480469 425.9510803222656 C 375.1192626953125 428.5824890136719 382.42059326171875 435.8794250488281 385.037109375 444.771484375" stroke-width="0.0" fill="rgb(7, 8, 9)" opacity="0.99000454"/>
    <path d="M 555.6668701171875 485.81378173828125 C 552.7974853515625 496.45440673828125 545.4452514648438 503.7669677734375 535.0957641601562 506.3179016113281 C 524.649658203125 503.6614685058594 517.2862548828125 496.36639404296875 514.4069213867188 485.83489990234375 C 517.3426513671875 475.80926513671875 524.9037475585938 468.6266784667969 535.046875 465.94830322265625 C 545.22265625 468.50006103515625 552.7396240234375 475.6989440917969 555.6668701171875 485.81378173828125" stroke-width="0.0" fill="rgb(210, 211, 217)" opacity="0.99164987"/>
    <path d="M 239.806884765625 585.3804931640625 C 236.80532836914062 596.41357421875 229.3618927001953 603.6414794921875 219.0907440185547 606.135498046875 C 208.87525939941406 603.4317016601562 201.52064514160156 596.1392211914062 198.89691162109375 586.0245361328125 C 201.5122833251953 575.7684936523438 208.6810760498047 568.2438354492188 219.5664520263672 565.22021484375 C 229.723876953125 567.9263305664062 237.1148223876953 575.258544921875 239.806884765625 585.3804931640625" stroke-width="0.0" fill="rgb(207, 209, 214)" opacity="1.0"/>
    <path d="M 346.8295593261719 506.3637390136719 C 343.85296630859375 517.4093017578125 336.3896789550781 524.8004150390625 326.318115234375 527.608642578125 C 315.6184997558594 524.6957397460938 308.194580078125 517.4176025390625 305.5912170410156 507.30877685546875 C 308.67950439453125 497.0 316.0 489.67950439453125 326.39447021484375 486.600830078125 C 336.6990966796875 489.0074157714844 344.1274719238281 496.2536926269531 346.8295593261719 506.3637390136719" stroke-width="0.0" fill="rgb(209, 210, 214)" opacity="1.0"/>
    <path d="M 207.4923858642578 422.8310546875 C 204.60377502441406 433.239501953125 197.20582580566406 440.49383544921875 187.0552520751953 443.0461120605469 C 177.0 440.32049560546875 169.6794891357422 433.0 166.81463623046875 422.826171875 C 169.300537109375 412.61932373046875 176.58909606933594 405.20428466796875 186.6824493408203 402.4166564941406 C 197.3555450439453 405.3472595214844 204.7436065673828 412.61773681640625 207.4923858642578 422.8310546875" stroke-width="0.0" fill="rgb(214, 215, 221)" opacity="0.9911991"/>
    <path d="M 65.29057312011719 596.7041015625 C 62.279685974121094 606.9854736328125 54.99673080444336 614.3193359375 44.99953842163086 617.0001220703125 C 34.98878479003906 614.3246459960938 27.577327728271484 607.040283203125 24.367433547973633 596.665283203125 C 27.176883697509766 586.5489501953125 34.55879592895508 579.2099609375 45.01292037963867 576.457275390625 C 55.42884826660156 579.2158203125 62.74502182006836 586.5838623046875 65.29057312011719 596.7041015625" stroke-width="0.0" fill="rgb(221, 222, 227)" opacity="0.99114287"/>
    <path d="M 404.353515625 575.6701049804688 C 401.3178405761719 585.99755859375 393.99737548828125 593.3171997070312 383.9202575683594 596.0560913085938 C 373.6668395996094 593.5770263671875 366.0980224609375 586.4449462890625 363.1093444824219 575.265625 C 365.79815673828125 565.1520385742188 373.16943359375 557.8424682617188 383.41619873046875 555.1434936523438 C 394.6297912597656 557.997802734375 401.9088439941406 565.401123046875 404.353515625 575.6701049804688" stroke-width="0.0" fill="rgb(194, 196, 201)" opacity="1.0"/>
    <path d="M 516.1533203125 279.14935302734375 C 513.6671142578125 289.35845947265625 506.3973388671875 296.78948974609375 495.8285827636719 299.71343994140625 C 485.4726257324219 296.8948669433594 478.1486511230469 289.5132751464844 475.32366943359375 278.75885009765625 C 478.0852966308594 268.4713439941406 485.50244140625 261.1756591796875 495.70556640625 258.62335205078125 C 506.0 261.67950439453125 513.3204956054688 269.0 516.1533203125 279.14935302734375" stroke-width="0.0" fill="rgb(207, 208, 214)" opacity="0.9909897"/>
    <path d="M 536.5802001953125 99.13970947265625 C 533.8623046875 109.49246215820312 526.4810180664062 116.82917022705078 516.0005493164062 119.61197662353516 C 505.49188232421875 116.8432846069336 498.0898742675781 109.53070068359375 495.3045959472656 99.25775909423828 C 498.1548767089844 88.5135726928711 505.5129089355469 81.15231323242188 516.00537109375 78.38273620605469 C 526.4924926757812 81.14268493652344 533.8238525390625 88.51849365234375 536.5802001953125 99.13970947265625" stroke-width="0.0" fill="rgb(195, 196, 201)" opacity="0.9909798"/>
    <path d="M 493.6639709472656 229.21920776367188 C 490.8460693359375 239.48309326171875 483.49169921875 246.86732482910156 473.36328125 249.53704833984375 C 462.9805908203125 246.36865234375 455.67816162109375 239.00576782226562 453.0002136230469 228.99984741210938 C 455.67950439453125 219.0 463.0 211.6794891357422 473.2547607421875 208.7166748046875 C 483.4656982421875 211.19737243652344 490.8053283691406 218.5338897705078 493.6639709472656 229.21920776367188" stroke-width="0.0" fill="rgb(203, 204, 212)" opacity="0.992429"/>
    <path d="M 240.0 334.0 C 237.3205108642578 344.0 230.0 351.32049560546875 220.0000762939453 353.9999694824219 C 210.00318908691406 351.31939697265625 202.7208709716797 343.9853515625 200.2454376220703 333.96246337890625 C 202.66232299804688 323.993408203125 209.998779296875 316.6805114746094 220.0005645751953 314.0004577636719 C 230.0 316.67950439453125 237.3205108642578 324.0 240.0 334.0" stroke-width="0.0" fill="rgb(216, 217, 222)" opacity="0.9936723"/>
    <path d="M 25.435523986816406 407.37139892578125 C 22.921207427978516 417.58538818359375 15.607871055603027 424.98602294921875 5.522793292999268 427.6850891113281 C -5.007500171661377 424.3437805175781 -12.320573806762695 417.0010070800781 -14.99994945526123 406.9999084472656 C -12.320508003234863 397.0 -5.0 389.67950439453125 5.0 387.0 C 15.0 389.67950439453125 22.32050895690918 397.0 25.435523986816406 407.37139892578125" stroke-width="0.0" fill="rgb(199, 200, 205)" opacity="0.9932358"/>
    <path d="M 142.51907348632812 325.12646484375 C 139.81106567382812 335.4524230957031 132.44935607910156 342.80120849609375 122.10871887207031 345.4736022949219 C 111.53778839111328 342.7821350097656 104.1174545288086 335.4952697753906 101.32781219482422 325.2652893066406 C 104.2239990234375 314.5823974609375 111.59123229980469 307.2519836425781 122.38275909423828 304.3207702636719 C 132.5142059326172 307.0863342285156 139.78048706054688 314.5310363769531 142.51907348632812 325.12646484375" stroke-width="0.0" fill="rgb(211, 212, 217)" opacity="0.99073863"/>
    <path d="M 580.287353515625 46.245609283447266 C 577.77685546875 56.42518997192383 570.405029296875 63.71108627319336 560.1710205078125 66.16902923583984 C 549.9913330078125 63.32380676269531 542.60986328125 56.02803421020508 539.29443359375 45.45596694946289 C 541.9627685546875 35.33983612060547 549.3668823242188 28.038982391357422 559.721923828125 25.353748321533203 C 570.0800170898438 28.4862060546875 577.32861328125 35.97807693481445 580.287353515625 46.245609283447266" stroke-width="0.0" fill="rgb(188, 187, 194)" opacity="0.99445987"/>
    <path d="M 224.66317749023438 47.09339904785156 C 221.89059448242188 57.47191619873047 214.39085388183594 64.64115905761719 204.10926818847656 67.0885009765625 C 194.0 64.32051086425781 186.6794891357422 57.0 183.59034729003906 46.70252990722656 C 186.20872497558594 36.56879425048828 193.57205200195312 29.219749450683594 204.24462890625 26.381004333496094 C 214.5447540283203 29.095396041870117 221.8948974609375 36.458534240722656 224.66317749023438 47.09339904785156" stroke-width="0.0" fill="rgb(190, 193, 199)" opacity="0.9930664"/>
    <path d="M 360.69140625 587.6017456054688 C 357.7714538574219 598.3536987304688 350.2816467285156 605.5470581054688 339.986328125 608.1160278320312 C 329.66436767578125 605.585693359375 322.1289367675781 598.4307250976562 319.282958984375 588.2460327148438 C 322.1381530761719 577.4801025390625 329.44036865234375 570.0308837890625 339.5547180175781 567.2484130859375 C 350.6188659667969 570.0919799804688 358.0279541015625 577.3427124023438 360.69140625 587.6017456054688" stroke-width="0.0" fill="rgb(195, 197, 202)" opacity="1.0"/>
    <path d="M 563.2075805664062 455.8175964355469 C 560.321044921875 465.99920654296875 552.9953002929688 473.3075256347656 542.989501953125 475.9768981933594 C 533.0001220703125 473.3203125 525.6796264648438 465.9998779296875 522.922119140625 455.925048828125 C 525.4898071289062 445.81658935546875 532.8218383789062 438.5071105957031 543.1956787109375 435.6800537109375 C 553.4032592773438 438.2439880371094 560.70556640625 445.61260986328125 563.2075805664062 455.8175964355469" stroke-width="0.0" fill="rgb(209, 211, 216)" opacity="0.99111736"/>
    <path d="M 180.4960174560547 562.6412353515625 C 177.2980194091797 572.9696044921875 169.95327758789062 580.2418823242188 159.82989501953125 582.9281616210938 C 150.00885009765625 580.3489379882812 142.70350646972656 572.9767456054688 140.0111846923828 562.9927978515625 C 142.6809539794922 553.0010375976562 150.00083923339844 545.6803588867188 160.20338439941406 542.7957153320312 C 170.44703674316406 545.242919921875 177.83944702148438 552.5274658203125 180.4960174560547 562.6412353515625" stroke-width="0.0" fill="rgb(214, 214, 220)" opacity="0.9913821"/>
    <path d="M 137.2563934326172 413.2337646484375 C 134.77947998046875 423.45257568359375 127.46711730957031 430.82550048828125 116.98615264892578 433.5691223144531 C 106.4732437133789 430.8577880859375 99.05195617675781 423.5579528808594 96.25150299072266 413.2290954589844 C 99.0669174194336 402.42279052734375 106.42643737792969 395.0771484375 116.63092803955078 392.4503173828125 C 127.02654266357422 395.6112365722656 134.32034301757812 402.9936828613281 137.2563934326172 413.2337646484375" stroke-width="0.0" fill="rgb(210, 208, 216)" opacity="0.9912457"/>
    <path d="M 479.0 218.0 C 476.32049560546875 228.0 469.0 235.3205108642578 459.0 238.0 C 449.0 235.3205108642578 441.67950439453125 228.0 438.9828186035156 217.9856414794922 C 441.6438293457031 207.97067260742188 448.9754333496094 200.6595916748047 458.99444580078125 197.9955596923828 C 469.0 200.6794891357422 476.32049560546875 208.0 479.0 218.0" stroke-width="0.0" fill="rgb(203, 204, 210)" opacity="0.9984775"/>
    <path d="M 614.0028076171875 558.9999389648438 C 611.3385009765625 569.0364990234375 604.0745239257812 576.4627075195312 593.7661743164062 579.4363403320312 C 583.4638061523438 576.8533935546875 576.052001953125 569.568359375 573.2147827148438 558.718994140625 C 576.0005493164062 548.377685546875 583.3950805664062 541.0497436523438 593.6187133789062 538.4348754882812 C 604.0799560546875 541.5244140625 611.339111328125 548.9619750976562 614.0028076171875 558.9999389648438" stroke-width="0.0" fill="rgb(184, 186, 192)" opacity="0.990521"/>
    <path d="M 351.0452575683594 381.58441162109375 C 348.7818603515625 390.6943054199219 341.8863525390625 398.2711181640625 331.5448303222656 401.3963317871094 C 321.18072509765625 399.0847473144531 313.75958251953125 391.8738708496094 312.5784606933594 381.9430847167969 C 315.61956787109375 371.9270324707031 322.9254455566406 364.6153564453125 332.937744140625 360.0787353515625 C 342.89788818359375 362.7461242675781 349.8678894042969 370.1640319824219 351.0452575683594 381.58441162109375" stroke-width="0.0" fill="rgb(2, 2, 3)" opacity="0.99000543"/>
    <path d="M 453.0028991699219 223.99391174316406 C 450.32049560546875 234.0 443.0 241.3205108642578 432.9766540527344 244.01983642578125 C 422.9105224609375 241.39720153808594 415.5612487792969 234.10208129882812 412.9449462890625 224.04759216308594 C 415.6776428222656 213.99832153320312 422.9981384277344 206.67697143554688 433.182373046875 203.6691436767578 C 443.13006591796875 206.45123291015625 450.356689453125 213.93060302734375 453.0028991699219 223.99391174316406" stroke-width="0.0" fill="rgb(205, 206, 213)" opacity="0.9965771"/>
    <path d="M 202.82003784179688 184.2891387939453 C 200.01785278320312 195.72076416015625 192.74603271484375 203.10061645507812 182.54739379882812 205.78013610839844 C 171.51686096191406 202.85165405273438 164.21224975585938 195.46197509765625 161.3317108154297 184.69247436523438 C 164.0774383544922 174.4178466796875 171.39785766601562 167.02218627929688 181.612548828125 164.29754638671875 C 192.58016967773438 167.1341552734375 200.09933471679688 174.3282470703125 202.82003784179688 184.2891387939453" stroke-width="0.0" fill="rgb(200, 201, 206)" opacity="1.0"/>
    <path d="M 61.120662689208984 395.8734130859375 C 58.32050704956055 406.0 51.0 413.32049560546875 40.99633026123047 416.0041198730469 C 30.992162704467773 413.3301086425781 23.67584991455078 406.00604248046875 20.777788162231445 395.7746887207031 C 23.2008056640625 385.4970703125 30.459848403930664 378.084228515625 41.06309127807617 375.32305908203125 C 51.446502685546875 378.1344299316406 58.649600982666016 385.624755859375 61.120662689208984 395.8734130859375" stroke-width="0.0" fill="rgb(203, 204, 209)" opacity="0.99230283"/>
    <path d="M 91.6805191040039 401.7845153808594 C 88.88545989990234 412.5376892089844 81.5421142578125 419.901611328125 71.1775131225586 422.735595703125 C 60.79945755004883 419.6772155761719 53.62726593017578 412.0978698730469 50.974918365478516 401.9817199707031 C 53.57728576660156 391.85980224609375 60.80469512939453 384.4013671875 71.39913940429688 381.3550720214844 C 81.6053237915039 384.02239990234375 88.92952728271484 391.4124755859375 91.6805191040039 401.7845153808594" stroke-width="0.0" fill="rgb(206, 207, 212)" opacity="0.99111015"/>
    <path d="M 512.7446899414062 157.14260864257812 C 509.86688232421875 167.49798583984375 502.5182800292969 174.9181671142578 492.2720947265625 177.71664428710938 C 481.41632080078125 174.91094970703125 474.04400634765625 167.59864807128906 471.3556823730469 157.28305053710938 C 474.4872741699219 146.91981506347656 481.9774169921875 139.6710662841797 492.0250549316406 136.98211669921875 C 502.16705322265625 139.5705108642578 509.7406311035156 146.72796630859375 512.7446899414062 157.14260864257812" stroke-width="0.0" fill="rgb(201, 202, 208)" opacity="0.9913036"/>
    <path d="M 161.4946746826172 201.83021545410156 C 158.60865783691406 212.2208251953125 151.1746063232422 219.45962524414062 141.0415496826172 222.03392028808594 C 131.00006103515625 219.32049560546875 123.68163299560547 211.99935913085938 120.74505615234375 201.77304077148438 C 123.25965881347656 191.58323669433594 130.562744140625 184.1957244873047 141.37266540527344 181.2737579345703 C 151.52072143554688 184.07620239257812 158.81378173828125 191.5177001953125 161.4946746826172 201.83021545410156" stroke-width="0.0" fill="rgb(202, 205, 208)" opacity="0.9920325"/>
    <path d="M 512.716552734375 551.7052001953125 C 509.8315124511719 562.4680786132812 502.4825439453125 569.8737182617188 492.2513427734375 572.7138061523438 C 481.4299621582031 569.8941650390625 473.9957580566406 562.609130859375 471.1775207519531 552.3325805664062 C 474.09490966796875 541.4956665039062 481.53076171875 534.1943359375 492.2876892089844 531.3075561523438 C 502.60302734375 534.041259765625 509.97198486328125 541.392333984375 512.716552734375 551.7052001953125" stroke-width="0.0" fill="rgb(173, 174, 180)" opacity="0.9901434"/>
    <path d="M 458.9999694824219 230.00001525878906 C 456.32049560546875 240.0 449.0 247.3205108642578 439.0001525878906 249.999755859375 C 429.0002136230469 247.32017517089844 421.67950439453125 239.99989318847656 418.9996337890625 229.99996948242188 C 421.67938232421875 219.99990844726562 428.99993896484375 212.679443359375 438.9999694824219 210.00013732910156 C 448.9999694824219 212.67953491210938 456.3204650878906 220.00003051757812 458.9999694824219 230.00001525878906" stroke-width="0.0" fill="rgb(206, 207, 213)" opacity="1.0"/>
    <path d="M 293.3182678222656 488.7479553222656 C 290.81494140625 498.5517272949219 283.53948974609375 505.7859802246094 273.6341552734375 508.5137939453125 C 264.0 506.32049560546875 256.67950439453125 499.0 254.0 489.0 C 256.6794738769531 478.9999084472656 263.9983825683594 471.6737976074219 274.7102966308594 468.11199951171875 C 284.0423889160156 471.15582275390625 290.9136962890625 479.3114013671875 293.3182678222656 488.7479553222656" stroke-width="0.0" fill="rgb(128, 129, 132)" opacity="0.9900224"/>
    <path d="M 153.61917114257812 274.1688232421875 C 150.82412719726562 284.4467468261719 143.42848205566406 291.7686462402344 133.11378479003906 294.51263427734375 C 122.61207580566406 291.7259521484375 115.23211669921875 284.4015197753906 112.5030746459961 274.120849609375 C 115.28456115722656 263.6058044433594 122.57278442382812 256.1831359863281 132.77914428710938 253.39114379882812 C 143.41409301757812 256.24658203125 150.77110290527344 263.58001708984375 153.61917114257812 274.1688232421875" stroke-width="0.0" fill="rgb(208, 209, 215)" opacity="0.99077463"/>
    <path d="M 155.5629119873047 215.37139892578125 C 152.86509704589844 225.49282836914062 145.48150634765625 232.83120727539062 134.82369995117188 235.69024658203125 C 124.55790710449219 232.83010864257812 117.2059097290039 225.4298095703125 114.415771484375 215.0277099609375 C 117.2693099975586 204.68446350097656 124.75241088867188 197.4823455810547 134.93939208984375 194.9507598876953 C 145.00027465820312 197.67930603027344 152.3287811279297 204.99752807617188 155.5629119873047 215.37139892578125" stroke-width="0.0" fill="rgb(201, 205, 211)" opacity="0.9915486"/>
    <path d="M 593.7125854492188 297.8623962402344 C 590.8960571289062 308.51324462890625 583.477294921875 315.786865234375 573.23291015625 318.2563781738281 C 563.0 315.32049560546875 555.6795043945312 308.0 552.904296875 297.9248962402344 C 555.5177612304688 287.8706970214844 562.8965454101562 280.6038513183594 573.322265625 277.5825500488281 C 583.46923828125 280.17333984375 590.8650512695312 287.5180358886719 593.7125854492188 297.8623962402344" stroke-width="0.0" fill="rgb(202, 204, 210)" opacity="0.99151504"/>
    <path d="M 162.51254272460938 21.65071678161621 C 159.3744354248047 32.018741607666016 152.00360107421875 39.3215217590332 141.72137451171875 42.29988098144531 C 131.4879150390625 39.84170150756836 124.16395568847656 32.51040267944336 121.62903594970703 22.149723052978516 C 124.30255126953125 11.596089363098145 131.54782104492188 4.153036594390869 142.35061645507812 1.2666294574737549 C 152.6513671875 3.982410192489624 159.95143127441406 11.371060371398926 162.51254272460938 21.65071678161621" stroke-width="0.0" fill="rgb(188, 189, 192)" opacity="0.9947036"/>
    <path d="M 357.04302978515625 398.4927673339844 C 354.5079345703125 407.6929016113281 348.7665710449219 416.2146301269531 337.27435302734375 418.9695129394531 C 327.0713806152344 416.2635192871094 319.7401428222656 408.927001953125 317.039794921875 398.8695983886719 C 320.0229187011719 387.51239013671875 327.6419677734375 380.3473815917969 337.5718688964844 378.2152099609375 C 347.2507629394531 381.3685302734375 354.4456481933594 388.8139343261719 357.04302978515625 398.4927673339844" stroke-width="0.0" fill="rgb(8, 9, 11)" opacity="0.99001527"/>
    <path d="M 278.60870361328125 478.19818115234375 C 274.73199462890625 488.508544921875 267.5705871582031 495.9150085449219 257.26202392578125 499.7237243652344 C 247.10995483398438 497.204833984375 239.75198364257812 489.905517578125 237.0780487060547 479.9040832519531 C 241.58644104003906 469.89935302734375 248.8856964111328 462.5295104980469 258.88165283203125 458.0420837402344 C 268.9119873046875 460.7461853027344 276.21539306640625 468.102294921875 278.60870361328125 478.19818115234375" stroke-width="0.0" fill="rgb(6, 7, 7)" opacity="0.9900161"/>
    <path d="M 217.36846923828125 385.9613037109375 C 214.74673461914062 396.4228210449219 207.45555114746094 403.84637451171875 197.29559326171875 406.5917053222656 C 186.66732788085938 403.6841735839844 179.29788208007812 396.3359069824219 176.36680603027344 386.0194091796875 C 179.19212341308594 375.54248046875 186.54183959960938 368.1912841796875 197.1564178466797 365.405517578125 C 207.4313507080078 368.1953125 214.7588348388672 375.58306884765625 217.36846923828125 385.9613037109375" stroke-width="0.0" fill="rgb(215, 216, 222)" opacity="0.99085927"/>
    <path d="M 592.760498046875 193.03021240234375 C 589.8925170898438 203.5121307373047 582.5031127929688 210.86512756347656 572.2648315429688 213.55552673339844 C 561.8673095703125 210.54122924804688 554.6346435546875 203.0775604248047 551.8318481445312 192.83616638183594 C 554.2858276367188 182.58563232421875 561.556884765625 175.19277954101562 572.1019897460938 172.46835327148438 C 582.5030517578125 175.14376831054688 589.8897094726562 182.48605346679688 592.760498046875 193.03021240234375" stroke-width="0.0" fill="rgb(196, 200, 206)" opacity="0.99193716"/>
    <path d="M 41.19317626953125 198.18923950195312 C 38.77180480957031 208.48655700683594 31.53005599975586 215.90928649902344 21.12442970275879 218.63575744628906 C 10.520445823669434 215.83335876464844 3.1412510871887207 208.48806762695312 0.26388275623321533 197.8119354248047 C 3.1047580242156982 187.4879913330078 10.499382019042969 180.1390838623047 20.88751220703125 177.39263916015625 C 31.21185874938965 180.33917236328125 38.39427947998047 187.8753662109375 41.19317626953125 198.18923950195312" stroke-width="0.0" fill="rgb(193, 191, 197)" opacity="0.9922206"/>
    <path d="M 469.4923400878906 531.1644287109375 C 466.8283996582031 541.4859008789062 459.5055847167969 548.8854370117188 449.1388244628906 551.54443359375 C 438.4715270996094 548.8706665039062 431.1002197265625 541.5382080078125 428.2867736816406 530.8898315429688 C 431.1062927246094 520.4918823242188 438.5274353027344 513.214599609375 448.88671875 510.64788818359375 C 459.3332824707031 513.3421630859375 466.6863098144531 520.658203125 469.4923400878906 531.1644287109375" stroke-width="0.0" fill="rgb(201, 202, 207)" opacity="1.0"/>
    <path d="M 529.1156616210938 269.1213684082031 C 526.6234741210938 279.2795715332031 519.2885131835938 286.6526794433594 509.197998046875 289.2938232421875 C 499.0 286.32049560546875 491.67950439453125 279.0 488.8592224121094 268.8657531738281 C 491.3647766113281 258.6785583496094 498.65582275390625 251.291015625 508.91558837890625 248.52259826660156 C 519.1497802734375 251.43994140625 526.3771362304688 258.90765380859375 529.1156616210938 269.1213684082031" stroke-width="0.0" fill="rgb(203, 204, 212)" opacity="0.99242526"/>
    <path d="M 150.5685577392578 161.13624572753906 C 147.88250732421875 171.50914001464844 140.48703002929688 178.81626892089844 129.965576171875 181.53961181640625 C 119.52304077148438 178.8105926513672 112.1686019897461 171.4838104248047 109.62355041503906 161.30018615722656 C 112.65753173828125 150.9504852294922 119.86927032470703 143.4091339111328 130.04034423828125 140.3633270263672 C 140.48464965820312 143.17071533203125 147.83038330078125 150.51487731933594 150.5685577392578 161.13624572753906" stroke-width="0.0" fill="rgb(197, 198, 203)" opacity="0.9918475"/>
    <path d="M 383.7755432128906 351.3625793457031 C 380.7267150878906 362.37347412109375 373.3857421875 369.7660217285156 362.672607421875 372.74658203125 C 352.3115539550781 369.9918212890625 344.8545227050781 362.7492980957031 342.16717529296875 352.5992126464844 C 345.0127258300781 341.3597106933594 352.3279724121094 333.93212890625 363.7655334472656 331.0811767578125 C 373.84088134765625 333.7996520996094 381.15252685546875 341.17816162109375 383.7755432128906 351.3625793457031" stroke-width="0.0" fill="rgb(204, 205, 211)" opacity="1.0"/>
    <path d="M 151.6715545654297 107.86712646484375 C 148.90768432617188 118.55847930908203 141.55953979492188 125.91029357910156 130.89151000976562 128.71307373046875 C 120.53430938720703 125.86563110351562 113.16339874267578 118.45384979248047 110.27652740478516 108.17897033691406 C 113.15025329589844 97.50061798095703 120.48968505859375 90.11882019042969 131.25694274902344 87.25897979736328 C 141.61419677734375 90.03422546386719 148.97462463378906 97.38178253173828 151.6715545654297 107.86712646484375" stroke-width="0.0" fill="rgb(194, 193, 197)" opacity="0.99222827"/>
    <path d="M 508.4334411621094 142.6803741455078 C 505.3329162597656 153.00465393066406 498.0009765625 160.32005310058594 487.9560241699219 163.02603149414062 C 477.7616271972656 160.48890686035156 470.2448425292969 153.3243865966797 467.3699951171875 142.81991577148438 C 470.09161376953125 132.43789672851562 477.43743896484375 125.09046936035156 488.33251953125 122.2580795288086 C 498.588134765625 125.02359008789062 505.87274169921875 132.4478759765625 508.4334411621094 142.6803741455078" stroke-width="0.0" fill="rgb(199, 200, 206)" opacity="0.9910556"/>
    <path d="M 554.6704711914062 516.3861694335938 C 551.9276123046875 526.5355224609375 544.4964599609375 533.8134155273438 534.1001586914062 536.489013671875 C 523.5465698242188 533.7946166992188 516.2362060546875 526.4441528320312 513.4320678710938 515.8753051757812 C 516.3162841796875 505.72784423828125 523.7750244140625 498.46490478515625 534.1214599609375 495.7532653808594 C 544.418212890625 498.2691650390625 551.7718505859375 505.5692443847656 554.6704711914062 516.3861694335938" stroke-width="0.0" fill="rgb(206, 207, 213)" opacity="0.9933904"/>
    <path d="M 392.0585021972656 156.19451904296875 C 389.4320068359375 166.14561462402344 382.1599426269531 173.46559143066406 373.8320617675781 176.0347442626953 C 363.92681884765625 173.3807830810547 356.6208801269531 166.072509765625 353.973876953125 156.21295166015625 C 356.556884765625 147.78675842285156 363.6603698730469 140.2058868408203 373.1802978515625 137.11782836914062 C 382.9943542480469 139.68118286132812 390.1293640136719 147.0648193359375 392.0585021972656 156.19451904296875" stroke-width="0.0" fill="rgb(2, 2, 3)" opacity="0.9900049"/>
    <path d="M 134.20094299316406 520.9743041992188 C 131.66090393066406 531.3201293945312 124.3330307006836 538.704833984375 113.88773345947266 541.665771484375 C 103.53512573242188 538.8363647460938 96.2221908569336 531.4464111328125 93.41612243652344 520.7494506835938 C 96.13885498046875 510.47930908203125 103.46455383300781 503.096923828125 113.75089263916016 500.37286376953125 C 124.42176055908203 503.2236328125 131.72325134277344 510.5948791503906 134.20094299316406 520.9743041992188" stroke-width="0.0" fill="rgb(214, 217, 223)" opacity="0.990916"/>
    <path d="M 454.0003967285156 1.0010690689086914 C 451.3322448730469 11.031176567077637 444.1075439453125 18.56748390197754 433.5860290527344 21.764995574951172 C 423.3753356933594 18.989755630493164 416.0279541015625 11.618789672851562 413.41827392578125 1.4627659320831299 C 416.678955078125 -9.000163078308105 424.0 -16.320512771606445 434.0 -19.0 C 444.0 -16.32050895690918 451.32049560546875 -9.0 454.0003967285156 1.0010690689086914" stroke-width="0.0" fill="rgb(191, 193, 198)" opacity="0.9928898"/>
    <path d="M 65.4396743774414 194.32464599609375 C 62.81583023071289 204.42530822753906 55.41877365112305 211.80313110351562 45.38020324707031 214.6355743408203 C 34.939476013183594 211.4271240234375 27.66108512878418 204.0338592529297 24.841753005981445 193.8307342529297 C 27.262197494506836 183.5315399169922 34.459022521972656 176.0448760986328 44.48808670043945 173.32859802246094 C 55.000423431396484 176.67872619628906 62.3201904296875 183.99989318847656 65.4396743774414 194.32464599609375" stroke-width="0.0" fill="rgb(194, 195, 199)" opacity="0.9912259"/>
    <path d="M 423.0328674316406 325.890869140625 C 422.1927185058594 335.8917236328125 414.908935546875 343.2491149902344 403.5025634765625 345.9670715332031 C 393.0788269042969 343.25860595703125 385.7479553222656 335.91815185546875 383.0315856933594 325.70147705078125 C 385.8161315917969 314.5037841796875 394.77392578125 308.57781982421875 403.74090576171875 305.97344970703125 C 413.08184814453125 308.61212158203125 420.385498046875 315.9191589355469 423.0328674316406 325.890869140625" stroke-width="0.0" fill="rgb(4, 4, 5)" opacity="0.9900043"/>
    <path d="M 29.232149124145508 400.9568176269531 C 26.514719009399414 411.1469421386719 19.114124298095703 418.4074401855469 9.023969650268555 421.01837158203125 C -0.999958336353302 418.3204345703125 -8.320493698120117 410.9999694824219 -11.020915031433105 400.9678039550781 C -8.45150375366211 390.80914306640625 -1.2638672590255737 383.3188171386719 9.13477611541748 380.47943115234375 C 19.428525924682617 383.1820373535156 26.663496017456055 390.6203308105469 29.232149124145508 400.9568176269531" stroke-width="0.0" fill="rgb(199, 198, 206)" opacity="0.9932823"/>
    <path d="M 251.5326690673828 328.37255859375 C 248.9609832763672 338.6673889160156 241.71311950683594 346.0929260253906 231.61778259277344 348.7122802734375 C 221.0 345.32049560546875 213.6794891357422 338.0 211.0 328.0 C 213.6794891357422 318.0 221.0 310.67950439453125 231.34713745117188 307.5671691894531 C 241.47891235351562 310.13525390625 248.64649963378906 317.5852966308594 251.5326690673828 328.37255859375" stroke-width="0.0" fill="rgb(221, 223, 227)" opacity="1.0"/>
    <path d="M 393.7078857421875 37.75871276855469 C 390.9122009277344 48.57120132446289 383.58367919921875 55.95025634765625 373.0924377441406 58.76068878173828 C 362.3910827636719 55.97083282470703 355.05621337890625 48.59885787963867 352.22381591796875 37.7793083190918 C 355.00238037109375 27.372407913208008 362.3888854980469 20.049720764160156 373.0283508300781 17.322124481201172 C 383.6246032714844 20.033357620239258 390.9911193847656 27.366945266723633 393.7078857421875 37.75871276855469" stroke-width="0.0" fill="rgb(195, 197, 202)" opacity="0.9909872"/>
    <path d="M 86.54081726074219 22.651256561279297 C 83.36479187011719 33.01670455932617 76.00438690185547 40.321861267089844 65.98750305175781 43.00643539428711 C 55.88984680175781 40.38396072387695 48.375335693359375 33.18783950805664 45.3221321105957 22.605070114135742 C 48.02007293701172 12.382548332214355 55.38187026977539 5.016814708709717 65.6433334350586 2.2471015453338623 C 76.488525390625 5.150501728057861 83.86286926269531 12.506891250610352 86.54081726074219 22.651256561279297" stroke-width="0.0" fill="rgb(183, 185, 190)" opacity="0.992967"/>
    <path d="M 68.62965393066406 524.8486938476562 C 65.69335174560547 535.3536376953125 58.37172317504883 542.7509155273438 48.29972457885742 545.49169921875 C 37.65668487548828 542.6261596679688 30.209611892700195 535.3939208984375 27.387075424194336 525.1616821289062 C 30.241121292114258 514.594482421875 37.610107421875 507.2918395996094 48.21906280517578 504.4613037109375 C 58.300086975097656 507.28424072265625 65.66741943359375 514.7183837890625 68.62965393066406 524.8486938476562" stroke-width="0.0" fill="rgb(215, 214, 219)" opacity="0.9908207"/>
    <path d="M 66.4480972290039 299.11907958984375 C 63.66951370239258 309.32269287109375 56.365970611572266 316.7914123535156 46.06401062011719 319.7146911621094 C 35.442779541015625 316.8948974609375 28.064983367919922 309.5710754394531 25.281408309936523 299.036376953125 C 28.18754005432129 288.6305236816406 35.719844818115234 281.4563903808594 45.93510055541992 278.9410095214844 C 56.05415344238281 281.6499328613281 63.50568389892578 288.8974609375 66.4480972290039 299.11907958984375" stroke-width="0.0" fill="rgb(202, 203, 208)" opacity="0.991125"/>
    <path d="M 357.52001953125 83.58818054199219 C 354.3518981933594 94.06102752685547 347.1351013183594 101.58161163330078 337.3648986816406 104.32051849365234 C 327.2057800292969 101.09628295898438 320.0886535644531 93.72652435302734 317.21905517578125 83.6837387084961 C 319.91461181640625 74.12054443359375 326.92620849609375 66.37141418457031 337.01959228515625 63.301597595214844 C 347.5308837890625 66.12300872802734 354.9231262207031 73.45243835449219 357.52001953125 83.58818054199219" stroke-width="0.0" fill="rgb(200, 201, 206)" opacity="0.9901114"/>
    <path d="M 559.506591796875 185.5944366455078 C 556.3204956054688 196.0 549.0 203.3205108642578 538.91015625 206.07974243164062 C 528.7064819335938 203.5755157470703 521.26171875 196.3446044921875 518.3819580078125 185.7958221435547 C 521.102783203125 175.4546661376953 528.4574584960938 168.11151123046875 539.3119506835938 165.25326538085938 C 549.580322265625 168.03965759277344 556.9251708984375 175.4320526123047 559.506591796875 185.5944366455078" stroke-width="0.0" fill="rgb(200, 201, 207)" opacity="0.9916079"/>
    <path d="M 279.03173828125 509.4512023925781 C 276.408203125 519.115234375 269.1357727050781 526.4701538085938 259.1163024902344 530.947509765625 C 249.0983123779297 528.2409057617188 241.75559997558594 520.9033813476562 239.03317260742188 509.6824035644531 C 241.75143432617188 499.1003112792969 249.12564086914062 491.8228454589844 259.2355041503906 489.75244140625 C 269.17218017578125 493.4926452636719 276.42724609375 500.8564758300781 279.03173828125 509.4512023925781" stroke-width="0.0" fill="rgb(3, 3, 3)" opacity="0.99000865"/>
    <path d="M 385.47509765625 101.12254333496094 C 382.83740234375 111.49700164794922 375.5077819824219 118.8696060180664 365.1910095214844 121.60891723632812 C 354.64166259765625 118.71404266357422 347.2814025878906 111.35962677001953 344.66827392578125 101.22930908203125 C 347.63043212890625 90.91329956054688 354.8500671386719 83.43084716796875 365.24163818359375 80.4105224609375 C 375.40350341796875 83.2230224609375 382.7375183105469 90.60843658447266 385.47509765625 101.12254333496094" stroke-width="0.0" fill="rgb(201, 199, 207)" opacity="0.99134743"/>
    <path d="M 73.08163452148438 462.07763671875 C 70.55807495117188 472.26409912109375 63.29478073120117 479.6586608886719 52.751502990722656 482.62567138671875 C 42.56655502319336 479.8148498535156 35.222469329833984 472.42132568359375 32.47590255737305 461.95751953125 C 35.216251373291016 451.5625915527344 42.541656494140625 444.15472412109375 52.740848541259766 441.3027038574219 C 63.12162780761719 444.4384765625 70.35621643066406 451.9437255859375 73.08163452148438 462.07763671875" stroke-width="0.0" fill="rgb(206, 206, 211)" opacity="0.9913376"/>
    <path d="M 565.3757934570312 203.31312561035156 C 562.8509521484375 213.50103759765625 555.5007934570312 220.85101318359375 544.8154907226562 223.6888427734375 C 534.594482421875 220.81405639648438 527.2713012695312 213.37612915039062 524.6917114257812 203.23471069335938 C 527.6712036132812 192.9961700439453 534.9984741210938 185.67904663085938 545.0 183.0008544921875 C 554.9999389648438 185.6796112060547 562.3204956054688 193.0000457763672 565.3757934570312 203.31312561035156" stroke-width="0.0" fill="rgb(198, 202, 208)" opacity="0.9913687"/>
    <path d="M 615.000244140625 347.9999084472656 C 612.3220825195312 358.0036315917969 605.006591796875 365.3319091796875 594.5466918945312 368.6235046386719 C 584.5349731445312 365.8768005371094 577.209228515625 358.43316650390625 574.4111328125 348.0259704589844 C 577.1871337890625 337.5332946777344 584.5336303710938 330.1885070800781 594.7381591796875 327.56939697265625 C 605.0170288085938 330.63922119140625 612.322998046875 337.993896484375 615.000244140625 347.9999084472656" stroke-width="0.0" fill="rgb(204, 205, 211)" opacity="0.99128073"/>
    <path d="M 511.1107177734375 454.9324951171875 C 508.4457702636719 465.1559143066406 501.1980895996094 472.5823669433594 490.833984375 475.4090270996094 C 480.5594177246094 472.79510498046875 473.2466125488281 465.42742919921875 470.3838806152344 454.6820983886719 C 473.1111755371094 444.4912109375 480.5068664550781 437.15704345703125 490.95953369140625 434.4989318847656 C 501.3995056152344 437.2047119140625 508.6090393066406 444.6592102050781 511.1107177734375 454.9324951171875" stroke-width="0.0" fill="rgb(207, 208, 214)" opacity="0.9916772"/>
    <path d="M 272.1099548339844 559.5565185546875 C 271.07305908203125 569.641357421875 263.29296875 575.7020263671875 252.10304260253906 579.591796875 C 242.0743865966797 577.2570190429688 234.74221801757812 569.9258422851562 232.03675842285156 559.4728393554688 C 234.75865173339844 548.0967407226562 242.09605407714844 540.7568969726562 253.5707550048828 538.0314331054688 C 263.9078063964844 540.7460327148438 271.1548156738281 548.1211547851562 272.1099548339844 559.5565185546875" stroke-width="0.0" fill="rgb(3, 3, 3)" opacity="0.99002594"/>
    <path d="M 248.60243225097656 85.66717529296875 C 245.30023193359375 95.99044036865234 237.99594116210938 103.31896209716797 227.6210174560547 106.46701049804688 C 217.4658203125 103.90299987792969 210.1616973876953 96.51219177246094 207.26974487304688 85.6103515625 C 209.99423217773438 75.37500762939453 217.40782165527344 68.08956146240234 227.9665985107422 65.37666320800781 C 238.44509887695312 68.1700210571289 245.77476501464844 75.57460021972656 248.60243225097656 85.66717529296875" stroke-width="0.0" fill="rgb(197, 199, 203)" opacity="0.9910405"/>
    <path d="M 601.6270141601562 31.924213409423828 C 598.84521484375 42.47666931152344 591.4892578125 49.88266372680664 581.4752197265625 52.647613525390625 C 571.0072631835938 49.300132751464844 563.6802978515625 41.99821090698242 560.4636840820312 31.560619354248047 C 563.04345703125 21.413070678710938 570.42822265625 14.085136413574219 581.3829345703125 11.216198921203613 C 591.590576171875 14.0101318359375 598.894287109375 21.444944381713867 601.6270141601562 31.924213409423828" stroke-width="0.0" fill="rgb(183, 187, 192)" opacity="1.0"/>
    <path d="M 200.63006591796875 528.8193969726562 C 197.73565673828125 539.3870239257812 190.38490295410156 546.72607421875 179.98046875 549.33447265625 C 169.7481231689453 546.6218872070312 162.35963439941406 539.2567749023438 159.46937561035156 529.089111328125 C 162.25379943847656 518.5660400390625 169.54647827148438 511.1914367675781 179.97055053710938 508.5399475097656 C 190.38735961914062 511.2672119140625 197.78001403808594 518.5977172851562 200.63006591796875 528.8193969726562" stroke-width="0.0" fill="rgb(216, 214, 222)" opacity="0.99105346"/>
    <path d="M 216.4166259765625 60.35649871826172 C 213.90542602539062 70.56244659423828 206.5623321533203 77.90538024902344 196.0417938232422 80.6037826538086 C 185.4169921875 77.90430450439453 178.00259399414062 70.61505126953125 175.23939514160156 60.40214920043945 C 178.1881866455078 49.61220169067383 185.69308471679688 42.43778610229492 195.92454528808594 39.940189361572266 C 205.99984741210938 42.67971420288086 213.3204803466797 50.000099182128906 216.4166259765625 60.35649871826172" stroke-width="0.0" fill="rgb(194, 196, 200)" opacity="0.9913593"/>
    <path d="M 160.52703857421875 475.76702880859375 C 157.69175720214844 486.3629150390625 150.37440490722656 493.7292785644531 139.95498657226562 496.5 C 129.61688232421875 493.72857666015625 122.266845703125 486.3851318359375 119.6032943725586 475.9810485839844 C 122.23622131347656 465.5638427734375 129.544677734375 458.17431640625 139.67628479003906 455.46282958984375 C 150.37066650390625 458.3365478515625 157.78659057617188 465.591796875 160.52703857421875 475.76702880859375" stroke-width="0.0" fill="rgb(214, 215, 220)" opacity="0.99063426"/>
    <path d="M 312.9080505371094 394.4222717285156 C 310.1337585449219 404.7121276855469 302.6244201660156 411.9240417480469 291.98919677734375 414.6526794433594 C 281.4339904785156 411.8855285644531 273.9681396484375 404.62176513671875 271.1568603515625 393.39111328125 C 273.9599304199219 383.44537353515625 281.58868408203125 376.2945251464844 292.41845703125 373.4120788574219 C 302.71575927734375 375.967041015625 310.12567138671875 383.2508850097656 312.9080505371094 394.4222717285156" stroke-width="0.0" fill="rgb(213, 214, 219)" opacity="1.0"/>
    <path d="M 540.6892700195312 577.0656127929688 C 537.7916259765625 587.3908081054688 530.3629760742188 594.709716796875 519.8984985351562 597.5091552734375 C 509.5097961425781 594.8236083984375 502.1086120605469 587.513427734375 499.2556457519531 576.7384643554688 C 502.0328674316406 566.3836669921875 509.3735046386719 559.007080078125 520.0158081054688 556.2239990234375 C 530.5516357421875 559.0667114257812 537.8712158203125 566.469482421875 540.6892700195312 577.0656127929688" stroke-width="0.0" fill="rgb(195, 198, 202)" opacity="1.0"/>
    <path d="M 460.71612548828125 466.8670349121094 C 457.6619567871094 477.2087097167969 450.1242980957031 484.4047546386719 439.7389221191406 487.29345703125 C 429.4984130859375 484.8356628417969 422.1589050292969 477.5029602050781 419.43597412109375 467.07476806640625 C 422.1865234375 456.5174865722656 429.4872741699219 449.0992431640625 439.9317321777344 446.2750549316406 C 450.4808044433594 449.13494873046875 457.835693359375 456.530029296875 460.71612548828125 466.8670349121094" stroke-width="0.0" fill="rgb(211, 212, 218)" opacity="0.99108696"/>
    <path d="M 577.6459350585938 266.5792541503906 C 574.4402465820312 277.0692443847656 567.044677734375 284.3609619140625 556.7019653320312 287.46038818359375 C 546.51220703125 284.8535461425781 539.2185668945312 277.4648132324219 536.7493896484375 267.2298583984375 C 539.6795043945312 257.0 547.0000610351562 249.6796112060547 557.4683227539062 246.36837768554688 C 567.55419921875 249.0748291015625 574.9061279296875 256.4527893066406 577.6459350585938 266.5792541503906" stroke-width="0.0" fill="rgb(201, 202, 211)" opacity="0.99214685"/>
    <path d="M 474.64862060546875 497.6500244140625 C 471.81011962890625 508.4851379394531 464.4988708496094 515.8527221679688 454.2762145996094 518.3963012695312 C 443.7756652832031 515.5166015625 436.36376953125 508.2614440917969 433.4326477050781 497.84149169921875 C 436.38787841796875 487.8330383300781 443.909423828125 480.62396240234375 454.3854675292969 477.4529724121094 C 464.5246887207031 480.1304016113281 471.9299621582031 487.4532470703125 474.64862060546875 497.6500244140625" stroke-width="0.0" fill="rgb(209, 211, 214)" opacity="0.99124044"/>
    <path d="M 264.6287841796875 107.70506286621094 C 262.0460510253906 118.04358673095703 255.2242889404297 125.63345336914062 244.7738037109375 128.45571899414062 C 234.30238342285156 125.99116516113281 226.94313049316406 118.71647644042969 224.39190673828125 108.51810455322266 C 227.67892456054688 98.00237274169922 235.00399780273438 90.6849594116211 244.84353637695312 88.30548858642578 C 254.84658813476562 90.88274383544922 262.1783142089844 98.13658142089844 264.6287841796875 107.70506286621094" stroke-width="0.0" fill="rgb(202, 205, 210)" opacity="0.99012"/>
    <path d="M 97.61844635009766 460.69549560546875 C 94.71918487548828 471.3587646484375 87.34976196289062 478.6925354003906 76.82646179199219 481.5821228027344 C 66.6758804321289 478.7659606933594 59.502037048339844 471.23583984375 56.95357131958008 461.0366516113281 C 59.602622985839844 450.8706970214844 66.76801300048828 443.29705810546875 76.87142181396484 440.3267822265625 C 87.50350189208984 443.1653747558594 94.89813995361328 450.475341796875 97.61844635009766 460.69549560546875" stroke-width="0.0" fill="rgb(207, 206, 211)" opacity="0.9913645"/>
    <path d="M 578.6888427734375 75.19959259033203 C 575.9479370117188 85.57799530029297 568.5592041015625 92.89276885986328 557.528564453125 95.78475952148438 C 547.3868408203125 93.01103210449219 540.0771484375 85.57996368408203 537.4810180664062 75.40585327148438 C 540.6791381835938 64.99977111816406 547.999755859375 57.679168701171875 558.0833740234375 54.93684768676758 C 568.3466796875 57.408817291259766 575.8545532226562 64.56818389892578 578.6888427734375 75.19959259033203" stroke-width="0.0" fill="rgb(191, 193, 198)" opacity="0.9915563"/>
    <path d="M 459.4798889160156 0.3756890892982483 C 456.90679931640625 10.582618713378906 449.6145324707031 17.997562408447266 439.507080078125 20.64168930053711 C 428.9988708496094 17.324331283569336 421.6794738769531 10.000105857849121 419.0 1.0824036280610017e-06 C 421.67950439453125 -10.0 429.0 -17.32050895690918 439.0 -20.0 C 449.0 -17.32050895690918 456.32049560546875 -10.0 459.4798889160156 0.3756890892982483" stroke-width="0.0" fill="rgb(190, 193, 195)" opacity="0.99384576"/>
    <path d="M 470.56536865234375 265.0103759765625 C 467.765625 275.4098815917969 460.43389892578125 282.83416748046875 449.49169921875 285.7843322753906 C 439.19097900390625 283.14276123046875 431.8728332519531 275.8041687011719 429.5 265.5724182128906 C 432.6884460449219 255.00277709960938 440.00030517578125 247.67945861816406 450.1043395996094 244.90460205078125 C 460.3135070800781 247.398193359375 467.74468994140625 254.64190673828125 470.56536865234375 265.0103759765625" stroke-width="0.0" fill="rgb(204, 205, 211)" opacity="1.0"/>
    <path d="M 556.9468383789062 424.1512451171875 C 552.6434936523438 434.1898193359375 545.1370849609375 441.4190979003906 536.088623046875 444.0389404296875 C 526.8829345703125 441.41387939453125 519.5824584960938 434.1187438964844 516.8746337890625 424.08428955078125 C 517.7594604492188 414.0943908691406 525.0929565429688 406.7555847167969 535.6849975585938 404.03485107421875 C 546.9091186523438 406.7547302246094 554.2457885742188 414.0906982421875 556.9468383789062 424.1512451171875" stroke-width="0.0" fill="rgb(8, 10, 16)" opacity="0.99000525"/>
    <path d="M 337.79144287109375 495.28997802734375 C 334.3030090332031 505.9904479980469 326.9945068359375 513.3169555664062 316.80426025390625 516.2058715820312 C 306.59051513671875 513.732421875 299.1948547363281 506.43182373046875 296.427001953125 496.1853942871094 C 299.2517395019531 485.6109619140625 306.6120300292969 478.2527160644531 317.5955505371094 475.1871643066406 C 327.7756652832031 477.8963317871094 335.1559753417969 485.20428466796875 337.79144287109375 495.28997802734375" stroke-width="0.0" fill="rgb(209, 210, 215)" opacity="1.0"/>
    <path d="M 397.7474670410156 146.60687255859375 C 395.1706848144531 156.85647583007812 387.8744812011719 164.22152709960938 376.4706115722656 166.92578125 C 366.0815734863281 164.24949645996094 358.74261474609375 156.92160034179688 356.05426025390625 146.8637237548828 C 358.87335205078125 135.2128143310547 366.22015380859375 127.89498901367188 376.64532470703125 125.22671508789062 C 387.4934387207031 128.1179962158203 394.8431091308594 135.51956176757812 397.7474670410156 146.60687255859375" stroke-width="0.0" fill="rgb(206, 206, 212)" opacity="0.99001664"/>
    <path d="M 239.61257934570312 317.9689025878906 C 236.6416015625 328.215087890625 229.14598083496094 335.4258117675781 219.02752685546875 338.0249328613281 C 208.95175170898438 335.3392028808594 201.431884765625 328.1221923828125 198.43179321289062 317.55535888671875 C 201.0684051513672 307.4443664550781 208.4610595703125 300.1183166503906 219.0723114013672 297.3707275390625 C 229.4272918701172 300.1853332519531 236.73663330078125 307.5997314453125 239.61257934570312 317.9689025878906" stroke-width="0.0" fill="rgb(212, 213, 219)" opacity="1.0"/>
    <path d="M 456.7318115234375 137.34371948242188 C 453.9534912109375 147.55587768554688 446.51214599609375 154.8275604248047 435.8132019042969 157.66970825195312 C 425.5482482910156 154.8299560546875 418.200439453125 147.4422149658203 415.42388916015625 136.8553466796875 C 418.0861511230469 126.43114471435547 425.4245300292969 119.06409454345703 435.6997985839844 116.32025146484375 C 446.4781494140625 119.17394256591797 453.8345947265625 126.51897430419922 456.7318115234375 137.34371948242188" stroke-width="0.0" fill="rgb(198, 200, 208)" opacity="0.99144506"/>
    <path d="M 182.9990234375 436.00091552734375 C 180.3275604248047 446.0173645019531 173.04051208496094 453.40496826171875 162.5741424560547 456.6451416015625 C 152.49388122558594 453.9027404785156 145.14901733398438 446.4867248535156 142.3615264892578 436.1267395019531 C 145.13926696777344 425.4897155761719 152.4908447265625 418.14263916015625 162.64508056640625 415.569091796875 C 172.99771118164062 418.68609619140625 180.31980895996094 426.0007019042969 182.9990234375 436.00091552734375" stroke-width="0.0" fill="rgb(213, 214, 219)" opacity="0.99103147"/>
    <path d="M 63.62151336669922 420.40338134765625 C 60.845680236816406 430.46337890625 53.46569061279297 437.8525085449219 43.24000930786133 440.685546875 C 32.46188735961914 437.8722229003906 25.098087310791016 430.54803466796875 22.53205108642578 420.2919921875 C 25.459259033203125 409.86737060546875 32.92261505126953 402.6353454589844 42.991207122802734 399.9955749511719 C 52.999717712402344 402.6799621582031 60.32802200317383 409.99810791015625 63.62151336669922 420.40338134765625" stroke-width="0.0" fill="rgb(203, 204, 209)" opacity="0.99128336"/>
    <path d="M 443.2146301269531 86.13753509521484 C 440.73736572265625 96.44398498535156 433.4974365234375 103.90030670166016 423.2012023925781 106.72907257080078 C 412.4685363769531 103.89947509765625 405.1572265625 96.51235961914062 402.4360046386719 85.96087646484375 C 405.1309509277344 75.48099517822266 412.48162841796875 68.1329345703125 422.8804931640625 65.40904998779297 C 433.3115539550781 68.27310180664062 440.5171203613281 75.75540924072266 443.2146301269531 86.13753509521484" stroke-width="0.0" fill="rgb(198, 196, 203)" opacity="0.99187446"/>
    <path d="M 559.2769775390625 252.7427215576172 C 556.3200073242188 262.99969482421875 548.9998168945312 270.32037353515625 538.8525390625 273.28271484375 C 528.8965454101562 270.50189208984375 521.6442260742188 263.058349609375 518.4652709960938 252.62539672851562 C 521.1528930664062 242.5186767578125 528.5250244140625 235.17291259765625 539.2589111328125 232.29788208007812 C 549.518310546875 235.10305786132812 556.816162109375 242.507568359375 559.2769775390625 252.7427215576172" stroke-width="0.0" fill="rgb(201, 202, 208)" opacity="0.9960295"/>
    <path d="M 24.676288604736328 362.7281188964844 C 21.714767456054688 373.35382080078125 14.345388412475586 380.6866760253906 3.838507652282715 383.5898742675781 C -6.105894088745117 380.564697265625 -13.332014083862305 373.0304870605469 -16.000431060791016 363.0009765625 C -13.321358680725098 352.99786376953125 -6.004604816436768 345.6702880859375 4.258808612823486 342.70941162109375 C 14.370713233947754 345.2713928222656 21.805456161499023 352.60302734375 24.676288604736328 362.7281188964844" stroke-width="0.0" fill="rgb(200, 201, 206)" opacity="0.9911489"/>
    <path d="M 425.5279846191406 523.09765625 C 422.7893371582031 533.4402465820312 415.44635009765625 540.8068237304688 404.7732849121094 543.654296875 C 394.52685546875 540.8987426757812 387.2850341796875 533.4073486328125 384.55804443359375 522.88232421875 C 387.186279296875 512.5386352539062 394.53118896484375 505.1611022949219 404.7481384277344 502.35595703125 C 415.3637390136719 505.2820129394531 422.7168884277344 512.6367797851562 425.5279846191406 523.09765625" stroke-width="0.0" fill="rgb(201, 202, 209)" opacity="0.99166787"/>
    <path d="M 233.13194274902344 350.50714111328125 C 231.0464324951172 360.6465148925781 223.60609436035156 367.9410095214844 213.33480834960938 370.54437255859375 C 202.72511291503906 367.6190185546875 195.30735778808594 360.29815673828125 192.4319610595703 350.0862731933594 C 195.23037719726562 339.61175537109375 202.65956115722656 332.3841857910156 212.89630126953125 329.9075622558594 C 223.019775390625 332.6684875488281 230.3883819580078 339.96319580078125 233.13194274902344 350.50714111328125" stroke-width="0.0" fill="rgb(210, 211, 217)" opacity="1.0"/>
    <path d="M 482.5039367675781 201.89993286132812 C 479.5665588378906 212.1425323486328 472.0777893066406 219.3626708984375 462.0049743652344 222.0047607421875 C 451.96417236328125 219.33775329589844 444.5325012207031 212.07562255859375 441.4595642089844 201.68991088867188 C 444.1097106933594 191.4754638671875 451.4836120605469 184.13348388671875 462.2138671875 181.31724548339844 C 472.4720153808594 184.12322998046875 479.7656555175781 191.5668487548828 482.5039367675781 201.89993286132812" stroke-width="0.0" fill="rgb(201, 203, 210)" opacity="0.9923649"/>
    <path d="M 583.12841796875 307.1224365234375 C 580.6157836914062 317.3127136230469 573.3741455078125 324.8000183105469 562.9483642578125 327.7322692871094 C 552.4694213867188 324.8895263671875 545.0678100585938 317.54638671875 542.2944946289062 307.380859375 C 545.2689208984375 296.623291015625 552.6358642578125 289.3104553222656 562.8273315429688 286.80963134765625 C 572.9995727539062 289.6800842285156 580.3200073242188 297.0003967285156 583.12841796875 307.1224365234375" stroke-width="0.0" fill="rgb(201, 202, 209)" opacity="0.9915274"/>
    <path d="M 124.41123962402344 144.6543426513672 C 121.3474349975586 155.05447387695312 114.11643981933594 162.54310607910156 103.85826110839844 165.5693817138672 C 93.58174133300781 162.7845916748047 86.2222671508789 155.416015625 83.60684204101562 145.2494354248047 C 86.47936248779297 134.7223358154297 93.62847137451172 127.19181823730469 104.21097564697266 124.3291015625 C 114.59005737304688 127.04436492919922 121.9000244140625 134.42860412597656 124.41123962402344 144.6543426513672" stroke-width="0.0" fill="rgb(196, 197, 201)" opacity="0.99171084"/>
    <path d="M 173.7436065673828 43.99843978881836 C 170.9502716064453 54.60956954956055 163.62738037109375 61.99912643432617 153.38885498046875 64.66193389892578 C 142.48965454101562 61.82163619995117 135.07046508789062 54.54563522338867 132.2419891357422 44.30842208862305 C 135.39532470703125 33.86931228637695 142.95814514160156 26.663166046142578 153.3242950439453 23.61649513244629 C 163.51840209960938 26.13238525390625 170.896240234375 33.4729118347168 173.7436065673828 43.99843978881836" stroke-width="0.0" fill="rgb(191, 193, 198)" opacity="0.9909833"/>
    <path d="M 23.510879516601562 533.766357421875 C 20.738136291503906 544.4255981445312 13.44182300567627 551.7922973632812 3.313817024230957 554.2809448242188 C -6.98325252532959 551.2745971679688 -14.319049835205078 543.9959716796875 -16.999935150146484 533.9999389648438 C -14.319787979125977 524.0020141601562 -6.992140769958496 516.700927734375 3.2281110286712646 513.72900390625 C 13.407927513122559 516.2568359375 20.793563842773438 523.5763549804688 23.510879516601562 533.766357421875" stroke-width="0.0" fill="rgb(211, 212, 217)" opacity="0.9920062"/>
    <path d="M 129.37364196777344 24.13700294494629 C 126.84020233154297 34.531673431396484 119.57041931152344 41.95759963989258 109.21102142333984 44.76824188232422 C 98.43740844726562 41.93246078491211 91.09729766845703 34.552162170410156 88.33937072753906 24.044153213500977 C 91.08676147460938 13.419110298156738 98.39806365966797 6.0255327224731445 108.94644165039062 3.211087703704834 C 119.47233581542969 6.105480670928955 126.70478820800781 13.592269897460938 129.37364196777344 24.13700294494629" stroke-width="0.0" fill="rgb(185, 187, 192)" opacity="0.9911955"/>
    <path d="M 94.4151840209961 134.6821746826172 C 91.42599487304688 145.15586853027344 84.23668670654297 152.67523193359375 73.55681610107422 155.7370147705078 C 63.38734436035156 153.0091552734375 56.160675048828125 145.55577087402344 53.54612350463867 134.93084716796875 C 56.169647216796875 124.51414489746094 63.51044845581055 117.15691375732422 74.03628540039062 114.39543914794922 C 84.50932312011719 117.14434051513672 91.8611068725586 124.48878479003906 94.4151840209961 134.6821746826172" stroke-width="0.0" fill="rgb(192, 193, 198)" opacity="0.99242646"/>
    <path d="M 61.45534896850586 137.0001983642578 C 58.848724365234375 147.52976989746094 51.5618896484375 154.9462127685547 40.8809928894043 157.8157958984375 C 30.478124618530273 154.94691467285156 23.29545021057129 147.44024658203125 20.87045669555664 137.14950561523438 C 23.681100845336914 127.00120544433594 31.0010929107666 119.68071746826172 41.327388763427734 116.6318130493164 C 51.54452896118164 119.11548614501953 58.854835510253906 126.46455383300781 61.45534896850586 137.0001983642578" stroke-width="0.0" fill="rgb(188, 187, 195)" opacity="0.9917972"/>
    <path d="M 370.89678955078125 554.8574829101562 C 368.24530029296875 564.9115600585938 360.9154357910156 572.2542114257812 350.760009765625 574.9637451171875 C 339.1219787597656 572.2222290039062 331.82550048828125 564.8622436523438 330.7933044433594 554.4801025390625 C 331.89654541015625 543.1565551757812 339.1138610839844 535.7574462890625 350.1746520996094 533.0337524414062 C 360.8849182128906 535.7579345703125 368.0943908691406 543.1595458984375 370.89678955078125 554.8574829101562" stroke-width="0.0" fill="rgb(23, 24, 25)" opacity="1.0"/>
    <path d="M 469.10302734375 238.0922088623047 C 466.53472900390625 248.19215393066406 459.174072265625 255.47520446777344 449.051513671875 258.0433654785156 C 439.0003967285156 255.3198699951172 431.6797180175781 247.99972534179688 429.00006103515625 237.99993896484375 C 431.67950439453125 228.0 439.0 220.6794891357422 448.99993896484375 218.00009155273438 C 458.9999694824219 220.67958068847656 466.3205871582031 227.99998474121094 469.10302734375 238.0922088623047" stroke-width="0.0" fill="rgb(207, 207, 214)" opacity="0.9953512"/>
    <path d="M 538.4418334960938 313.0359191894531 C 535.6719360351562 323.316162109375 528.3136596679688 330.6632080078125 518.003662109375 333.30755615234375 C 507.6717834472656 330.6723327636719 500.3168640136719 323.33123779296875 497.33984375 312.6875305175781 C 500.13043212890625 302.5241394042969 507.5521240234375 295.2113952636719 517.986328125 292.42181396484375 C 528.4075317382812 295.2032775878906 535.692626953125 302.6275634765625 538.4418334960938 313.0359191894531" stroke-width="0.0" fill="rgb(206, 207, 213)" opacity="0.9906512"/>
  </g>
</svg>
