<?xml version="1.0" ?>
<svg xmlns="http://www.w3.org/2000/svg" version="1.1" width="256" height="256">
  <defs/>
  <g>
    <path d="M 112.0 10.0 C 109.32051086425781 20.0 102.0 27.32050895690918 92.0 30.0 C 82.0 27.32050895690918 74.67948913574219 20.0 72.0 10.0 C 74.67948913574219 5.329070518200751e-15 82.0 -7.320508003234863 92.0 -10.0 C 102.0 -7.320508003234863 109.32051086425781 -8.881784197001252e-15 112.0 10.0" stroke-width="0.0" fill="rgb(254, 254, 254)" opacity="1.0"/>
    <path d="M 258.0 26.0 C 255.3205108642578 36.0 248.0 43.32050704956055 238.0 46.0 C 228.0 43.32050704956055 220.6794891357422 36.0 218.0 26.0 C 220.6794891357422 16.0 228.0 8.679491996765137 238.0 6.0 C 248.0 8.679491996765137 255.3205108642578 16.0 258.0 26.0" stroke-width="0.0" fill="rgb(253, 253, 253)" opacity="1.0"/>
    <path d="M 95.0 0.0 C 92.32051086425781 10.0 85.0 17.32050895690918 75.0 20.0 C 65.0 17.32050895690918 57.67949295043945 10.0 55.0 2.4492935992912173e-15 C 57.67949295043945 -10.0 65.0 -17.32050895690918 75.0 -20.0 C 85.0 -17.32050895690918 92.32051086425781 -10.0 95.0 0.0" stroke-width="0.0" fill="rgb(253, 253, 254)" opacity="1.0"/>
    <path d="M 242.0 7.0 C 239.3205108642578 17.0 232.0 24.32050895690918 222.0 27.0 C 212.0 24.32050895690918 204.6794891357422 17.0 202.0 7.0 C 204.6794891357422 -3.0 212.0 -10.320508003234863 222.0 -13.0 C 232.0 -10.320508003234863 239.3205108642578 -3.0 242.0 7.0" stroke-width="0.0" fill="rgb(253, 253, 253)" opacity="1.0"/>
    <path d="M 259.0 21.0 C 256.32049560546875 31.0 249.0 38.32050704956055 239.0 41.0 C 229.0 38.32050704956055 221.6794891357422 31.0 219.0 21.0 C 221.6794891357422 11.0 229.0 3.6794919967651367 239.0 1.0 C 249.0 3.6794919967651367 256.32049560546875 11.0 259.0 21.0" stroke-width="0.0" fill="rgb(253, 253, 253)" opacity="1.0"/>
    <path d="M 102.0 9.0 C 99.32051086425781 19.0 92.0 26.32050895690918 82.0 29.0 C 72.0 26.32050895690918 64.67948913574219 19.0 62.0 9.0 C 64.67948913574219 -1.0 72.0 -8.320508003234863 82.0 -11.0 C 92.0 -8.320508003234863 99.32051086425781 -1.0 102.0 9.0" stroke-width="0.0" fill="rgb(253, 253, 253)" opacity="1.0"/>
    <path d="M 74.0 9.0 C 71.32051086425781 19.0 64.0 26.32050895690918 54.0 29.0 C 44.0 26.32050895690918 36.67949295043945 19.0 34.0 9.0 C 36.67949295043945 -1.0 44.0 -8.320508003234863 54.0 -11.0 C 64.0 -8.320508003234863 71.32051086425781 -1.0 74.0 9.0" stroke-width="0.0" fill="rgb(253, 254, 254)" opacity="1.0"/>
    <path d="M 118.0 7.0 C 115.32051086425781 17.0 108.0 24.32050895690918 98.0 27.0 C 88.0 24.32050895690918 80.67948913574219 17.0 78.0 7.0 C 80.67948913574219 -3.0 88.0 -10.320508003234863 98.0 -13.0 C 108.0 -10.320508003234863 115.32051086425781 -3.0 118.0 7.0" stroke-width="0.0" fill="rgb(254, 254, 253)" opacity="1.0"/>
    <path d="M 125.53192901611328 4.783783912658691 C 122.32312774658203 15.000733375549316 115.00003051757812 22.32051658630371 105.0 25.0 C 95.0 22.32050895690918 87.67948913574219 15.0 85.0 5.0 C 87.67948913574219 -5.0 95.0 -12.320508003234863 105.00214385986328 -15.000932693481445 C 115.030029296875 -12.334883689880371 122.41291046142578 -5.053868293762207 125.53192901611328 4.783783912658691" stroke-width="0.0" fill="rgb(254, 254, 254)" opacity="0.99174196"/>
    <path d="M 104.0 15.0 C 101.32051086425781 25.0 94.0 32.32050704956055 84.0 35.0 C 74.0 32.32050704956055 66.67948913574219 25.0 64.0 15.0 C 66.67948913574219 5.0 74.0 -2.3205080032348633 84.0 -5.0 C 94.0 -2.3205080032348633 101.32051086425781 5.0 104.0 15.0" stroke-width="0.0" fill="rgb(253, 254, 254)" opacity="1.0"/>
    <path d="M 266.0 21.0 C 263.32049560546875 31.0 256.0 38.32050704956055 246.0 41.0 C 236.0 38.32050704956055 228.6794891357422 31.0 226.0 21.0 C 228.6794891357422 11.0 236.0 3.6794919967651367 246.0 1.0 C 256.0 3.6794919967651367 263.32049560546875 11.0 266.0 21.0" stroke-width="0.0" fill="rgb(253, 253, 253)" opacity="1.0"/>
    <path d="M 83.98458862304688 19.964149475097656 C 81.07595825195312 29.556251525878906 73.26924896240234 36.44291305541992 64.926513671875 39.01020812988281 C 54.93687057495117 36.355567932128906 47.50859832763672 29.10796546936035 44.37615203857422 19.503570556640625 C 46.67949295043945 10.0 54.0 2.6794919967651367 64.0 0.0 C 74.0 2.6794919967651367 81.32051086425781 10.0 83.98458862304688 19.964149475097656" stroke-width="0.0" fill="rgb(51, 51, 51)" opacity="0.9900188"/>
    <path d="M 267.0 5.0 C 264.32049560546875 15.0 257.0 22.32050895690918 247.0 25.0 C 237.0 22.32050895690918 229.6794891357422 15.0 227.0 5.0 C 229.6794891357422 -5.0 237.0 -12.320508003234863 247.0 -15.0 C 257.0 -12.320508003234863 264.32049560546875 -5.0 267.0 5.0" stroke-width="0.0" fill="rgb(253, 254, 254)" opacity="1.0"/>
    <path d="M 116.0 12.0 C 113.32051086425781 22.0 106.0 29.32050895690918 96.0 32.0 C 86.0 29.32050895690918 78.67948913574219 22.0 76.0 12.0 C 78.67948913574219 2.0 86.0 -5.320508003234863 96.0 -8.0 C 106.0 -5.320508003234863 113.32051086425781 2.0 116.0 12.0" stroke-width="0.0" fill="rgb(254, 254, 254)" opacity="1.0"/>
    <path d="M 120.81107330322266 20.68003273010254 C 118.10169982910156 30.739086151123047 110.72572326660156 38.069786071777344 100.60679626464844 40.8743896484375 C 89.82318115234375 37.674312591552734 82.67925262451172 30.054819107055664 80.00897979736328 19.992141723632812 C 82.67948913574219 10.0 90.0 2.6794919967651367 100.0 0.0 C 110.0 2.6794919967651367 117.32051086425781 10.0 120.81107330322266 20.68003273010254" stroke-width="0.0" fill="rgb(255, 255, 255)" opacity="0.9902715"/>
    <path d="M 72.0 0.0 C 69.32051086425781 10.0 62.0 17.32050895690918 52.0 20.0 C 42.0 17.32050895690918 34.67949295043945 10.0 32.0 2.4492935992912173e-15 C 34.67949295043945 -10.0 42.0 -17.32050895690918 52.0 -20.0 C 62.0 -17.32050895690918 69.32051086425781 -10.0 72.0 0.0" stroke-width="0.0" fill="rgb(253, 253, 253)" opacity="1.0"/>
    <path d="M 244.0 5.0 C 241.3205108642578 15.0 234.0 22.32050895690918 224.0 25.0 C 214.0 22.32050895690918 206.6794891357422 15.0 204.0 5.0 C 206.6794891357422 -5.0 214.0 -12.320508003234863 224.0 -15.0 C 234.0 -12.320508003234863 241.3205108642578 -5.0 244.0 5.0" stroke-width="0.0" fill="rgb(253, 253, 254)" opacity="1.0"/>
    <path d="M 247.0 6.0 C 244.3205108642578 16.0 237.0 23.32050895690918 227.0 26.0 C 217.0 23.32050895690918 209.6794891357422 16.0 207.0 6.0 C 209.6794891357422 -4.0 217.0 -11.320508003234863 227.0 -14.0 C 237.0 -11.320508003234863 244.3205108642578 -4.0 247.0 6.0" stroke-width="0.0" fill="rgb(253, 253, 253)" opacity="1.0"/>
    <path d="M 264.0 3.0 C 261.32049560546875 13.0 254.0 20.32050895690918 244.0 23.0 C 234.0 20.32050895690918 226.6794891357422 13.0 224.0 3.0 C 226.6794891357422 -7.0 234.0 -14.320508003234863 244.0 -17.0 C 254.0 -14.320508003234863 261.32049560546875 -7.0 264.0 3.0" stroke-width="0.0" fill="rgb(254, 254, 254)" opacity="1.0"/>
    <path d="M 83.0015640258789 17.004486083984375 C 80.3792953491211 27.153520584106445 73.47422790527344 35.0480842590332 62.19983673095703 37.976531982421875 C 52.213802337646484 35.21890640258789 45.30952835083008 27.572471618652344 42.965538024902344 17.072885513305664 C 45.67949295043945 7.0 53.0 -0.32050806283950806 63.0 -3.0 C 73.0 -0.32050806283950806 80.32051086425781 7.0 83.0015640258789 17.004486083984375" stroke-width="0.0" fill="rgb(255, 255, 255)" opacity="1.0"/>
    <path d="M 270.0 9.0 C 267.32049560546875 19.0 260.0 26.32050895690918 250.0 29.0 C 240.0 26.32050895690918 232.6794891357422 19.0 230.0 9.0 C 232.6794891357422 -1.0 240.0 -8.320508003234863 250.0 -11.0 C 260.0 -8.320508003234863 267.32049560546875 -1.0 270.0 9.0" stroke-width="0.0" fill="rgb(254, 254, 254)" opacity="1.0"/>
    <path d="M 252.0 15.0 C 249.3205108642578 25.0 242.0 32.32050704956055 232.0 35.0 C 222.0 32.32050704956055 214.6794891357422 25.0 212.0 15.0 C 214.6794891357422 5.0 222.0 -2.3205080032348633 232.0 -5.0 C 242.0 -2.3205080032348633 249.3205108642578 5.0 252.0 15.0" stroke-width="0.0" fill="rgb(253, 253, 253)" opacity="1.0"/>
    <path d="M 271.0 11.0 C 268.32049560546875 21.0 261.0 28.32050895690918 251.0 31.0 C 241.0 28.32050895690918 233.6794891357422 21.0 231.0 11.0 C 233.6794891357422 1.0 241.0 -6.320508003234863 251.0 -9.0 C 261.0 -6.320508003234863 268.32049560546875 1.0 271.0 11.0" stroke-width="0.0" fill="rgb(254, 254, 254)" opacity="1.0"/>
    <path d="M 91.0 11.0 C 88.32051086425781 21.0 81.0 28.32050895690918 71.0 31.0 C 61.0 28.32050895690918 53.67949295043945 21.0 51.0 11.0 C 53.67949295043945 1.0 61.0 -6.320508003234863 71.0 -9.0 C 81.0 -6.320508003234863 88.32051086425781 1.0 91.0 11.0" stroke-width="0.0" fill="rgb(253, 254, 254)" opacity="1.0"/>
    <path d="M 245.0 24.000001907348633 C 242.320556640625 34.00016403198242 235.002197265625 41.3280029296875 225.61993408203125 43.36833190917969 C 215.6854248046875 40.53507614135742 208.16268920898438 33.41992950439453 205.15916442871094 23.811559677124023 C 207.6794891357422 14.0 215.0 6.679491996765137 225.0 4.0 C 235.0 6.679491996765137 242.3205108642578 14.0 245.0 24.000001907348633" stroke-width="0.0" fill="rgb(255, 255, 255)" opacity="0.9907182"/>
    <path d="M 121.0 0.0 C 118.32051086425781 10.0 111.0 17.32050895690918 101.0 20.0 C 91.0 17.32050895690918 83.67948913574219 10.0 81.0 2.4492935992912173e-15 C 83.67948913574219 -10.0 91.0 -17.32050895690918 101.0 -20.0 C 111.0 -17.32050895690918 118.32051086425781 -10.0 121.0 0.0" stroke-width="0.0" fill="rgb(253, 254, 254)" opacity="1.0"/>
    <path d="M 79.0 6.0 C 76.32051086425781 16.0 69.0 23.32050895690918 59.0 26.0 C 49.0 23.32050895690918 41.67949295043945 16.0 39.0 6.0 C 41.67949295043945 -4.0 49.0 -11.320508003234863 59.0 -14.0 C 69.0 -11.320508003234863 76.32051086425781 -4.0 79.0 6.0" stroke-width="0.0" fill="rgb(253, 253, 253)" opacity="1.0"/>
    <path d="M 100.0 14.0 C 97.32051086425781 24.0 90.0 31.32050895690918 80.0 34.0 C 70.0 31.32050895690918 62.67949295043945 24.0 60.0 14.0 C 62.67949295043945 4.0 70.0 -3.3205080032348633 80.0 -6.0 C 90.0 -3.3205080032348633 97.32051086425781 4.0 100.0 14.0" stroke-width="0.0" fill="rgb(253, 254, 254)" opacity="1.0"/>
    <path d="M 73.99589538574219 15.989620208740234 C 71.22451782226562 25.78200340270996 63.46263885498047 32.55378723144531 54.75482177734375 35.01325988769531 C 44.5504150390625 32.52394104003906 36.73078918457031 25.855979919433594 34.000946044921875 15.99712085723877 C 36.67949295043945 6.0 44.0 -1.3205081224441528 54.0 -4.0 C 64.0 -1.3205081224441528 71.32051086425781 6.0 73.99589538574219 15.989620208740234" stroke-width="0.0" fill="rgb(2, 2, 2)" opacity="0.99014163"/>
    <path d="M 243.0 14.0 C 240.3205108642578 24.0 233.0 31.32050895690918 223.0 34.0 C 213.0 31.32050895690918 205.6794891357422 24.0 203.0 14.0 C 205.6794891357422 4.0 213.0 -3.3205080032348633 223.0 -6.0 C 233.0 -3.3205080032348633 240.3205108642578 4.0 243.0 14.0" stroke-width="0.0" fill="rgb(253, 253, 253)" opacity="1.0"/>
    <path d="M 254.0 10.0 C 251.3205108642578 20.0 244.0 27.32050895690918 234.0 30.0 C 224.0 27.32050895690918 216.6794891357422 20.0 214.0 10.0 C 216.6794891357422 5.329070518200751e-15 224.0 -7.320508003234863 234.0 -10.0 C 244.0 -7.320508003234863 251.3205108642578 -8.881784197001252e-15 254.0 10.0" stroke-width="0.0" fill="rgb(253, 253, 253)" opacity="1.0"/>
    <path d="M 86.0 14.0 C 83.32051086425781 24.0 76.0 31.32050895690918 66.0 34.0 C 56.0 31.32050895690918 48.67949295043945 24.0 46.0 14.0 C 48.67949295043945 4.0 56.0 -3.3205080032348633 66.0 -6.0 C 76.0 -3.3205080032348633 83.32051086425781 4.0 86.0 14.0" stroke-width="0.0" fill="rgb(253, 254, 254)" opacity="1.0"/>
    <path d="M 238.0 6.0 C 235.3205108642578 16.0 228.0 23.32050895690918 218.00001525878906 25.999996185302734 C 208.00039672851562 23.32036781311035 200.67945861816406 15.99959945678711 198.72189331054688 6.507343292236328 C 201.10743713378906 -3.792445182800293 208.05580139160156 -11.302003860473633 218.00086975097656 -13.999907493591309 C 228.0 -11.320508003234863 235.3205108642578 -4.0 238.0 6.0" stroke-width="0.0" fill="rgb(254, 254, 254)" opacity="0.99144"/>
    <path d="M 83.0 14.0 C 80.32051086425781 24.0 73.0 31.32050895690918 63.0 34.0 C 53.0 31.32050895690918 45.67949295043945 24.0 43.0 14.0 C 45.67949295043945 4.0 53.0 -3.3205080032348633 63.0 -6.0 C 73.0 -3.3205080032348633 80.32051086425781 4.0 83.0 14.0" stroke-width="0.0" fill="rgb(253, 254, 254)" opacity="1.0"/>
    <path d="M 101.96829986572266 19.954317092895508 C 99.15370178222656 29.77686309814453 91.72148895263672 36.975215911865234 81.78883361816406 40.0583381652832 C 71.97956848144531 37.370147705078125 64.67668151855469 30.00686264038086 61.9998664855957 20.000322341918945 C 64.67948913574219 10.0 72.0 2.6794919967651367 82.0 0.0 C 92.0 2.6794919967651367 99.32051086425781 10.0 101.96829986572266 19.954317092895508" stroke-width="0.0" fill="rgb(255, 255, 255)" opacity="0.99066794"/>
    <path d="M 114.0 1.0 C 111.32051086425781 11.0 104.0 18.32050895690918 94.0 21.0 C 84.0 18.32050895690918 76.67948913574219 11.0 74.0 1.0 C 76.67948913574219 -9.0 84.0 -16.32050895690918 94.0 -19.0 C 104.0 -16.32050895690918 111.32051086425781 -9.0 114.0 1.0" stroke-width="0.0" fill="rgb(247, 247, 247)" opacity="1.0"/>
    <path d="M 115.0 1.0 C 112.32051086425781 11.0 105.0 18.32050895690918 95.0 21.0 C 85.0 18.32050895690918 77.67948913574219 11.0 75.0 1.0 C 77.67948913574219 -9.0 85.0 -16.32050895690918 95.0 -19.0 C 105.0 -16.32050895690918 112.32051086425781 -9.0 115.0 1.0" stroke-width="0.0" fill="rgb(156, 157, 156)" opacity="1.0"/>
    <path d="M 261.0 10.0 C 258.32049560546875 20.0 251.0 27.32050895690918 241.0 30.0 C 231.0 27.32050895690918 223.6794891357422 20.0 221.0 10.0 C 223.6794891357422 5.329070518200751e-15 231.0 -7.320508003234863 241.0 -10.0 C 251.0 -7.320508003234863 258.32049560546875 -8.881784197001252e-15 261.0 10.0" stroke-width="0.0" fill="rgb(254, 254, 254)" opacity="1.0"/>
    <path d="M 87.0 6.0 C 84.32051086425781 16.0 77.0 23.32050895690918 67.0 26.0 C 57.0 23.32050895690918 49.67949295043945 16.0 47.0 6.0 C 49.67949295043945 -4.0 57.0 -11.320508003234863 67.0 -14.0 C 77.0 -11.320508003234863 84.32051086425781 -4.0 87.0 6.0" stroke-width="0.0" fill="rgb(253, 254, 254)" opacity="1.0"/>
    <path d="M 101.99998474121094 16.999969482421875 C 99.3203353881836 26.999664306640625 91.99927520751953 34.31898498535156 81.99857330322266 36.995609283447266 C 72.0 34.32049560546875 64.67948913574219 27.0 62.0 17.0 C 64.67948913574219 7.0 72.0 -0.32050806283950806 82.0 -3.0 C 92.0 -0.32050806283950806 99.32051086425781 7.0 101.99998474121094 16.999969482421875" stroke-width="0.0" fill="rgb(254, 254, 254)" opacity="0.9998925"/>
    <path d="M 95.0 14.0 C 92.32051086425781 24.0 85.0 31.32050895690918 75.0 34.0 C 65.0 31.32050895690918 57.67949295043945 24.0 55.0 14.0 C 57.67949295043945 4.0 65.0 -3.3205080032348633 75.0 -6.0 C 85.0 -3.3205080032348633 92.32051086425781 4.0 95.0 14.0" stroke-width="0.0" fill="rgb(253, 254, 254)" opacity="1.0"/>
    <path d="M 87.0 5.0 C 84.32051086425781 15.0 77.0 22.32050895690918 67.0 25.0 C 57.0 22.32050895690918 49.67949295043945 15.0 47.0 5.0 C 49.67949295043945 -5.0 57.0 -12.320508003234863 67.0 -15.0 C 77.0 -12.320508003234863 84.32051086425781 -5.0 87.0 5.0" stroke-width="0.0" fill="rgb(253, 254, 254)" opacity="1.0"/>
    <path d="M 254.99830627441406 27.995250701904297 C 252.27638244628906 37.89461135864258 244.7372589111328 44.849571228027344 234.35679626464844 48.256980895996094 C 224.76080322265625 45.79384231567383 217.69473266601562 38.05295944213867 215.01290893554688 27.98636245727539 C 217.6794891357422 18.0 225.0 10.679491996765137 235.0 8.0 C 245.0 10.679491996765137 252.3205108642578 18.0 254.99830627441406 27.995250701904297" stroke-width="0.0" fill="rgb(254, 254, 255)" opacity="0.99078655"/>
    <path d="M 253.0 1.0 C 250.3205108642578 11.0 243.0 18.32050895690918 233.0 21.0 C 223.0 18.32050895690918 215.6794891357422 11.0 213.0 1.0 C 215.6794891357422 -9.0 223.0 -16.32050895690918 233.0 -19.0 C 243.0 -16.32050895690918 250.3205108642578 -9.0 253.0 1.0" stroke-width="0.0" fill="rgb(253, 254, 253)" opacity="1.0"/>
    <path d="M 100.0 15.0 C 97.32051086425781 25.0 90.0 32.32050704956055 80.0 35.0 C 70.0 32.32050704956055 62.67949295043945 25.0 60.0 15.0 C 62.67949295043945 5.0 70.0 -2.3205080032348633 80.0 -5.0 C 90.0 -2.3205080032348633 97.32051086425781 5.0 100.0 15.0" stroke-width="0.0" fill="rgb(253, 254, 254)" opacity="1.0"/>
    <path d="M 79.0 15.0 C 76.32051086425781 25.00000762939453 69.00003051757812 32.32058334350586 58.11017608642578 35.95832443237305 C 48.33311462402344 33.169620513916016 41.53106689453125 25.326541900634766 38.99475860595703 15.014330863952637 C 41.67949295043945 5.0 49.0 -2.3205080032348633 59.0 -5.0 C 69.0 -2.3205080032348633 76.32051086425781 5.0 79.0 15.0" stroke-width="0.0" fill="rgb(255, 255, 255)" opacity="1.0"/>
    <path d="M 94.0 13.0 C 91.32051086425781 23.0 84.0 30.32050895690918 74.0 33.0 C 64.0 30.32050895690918 56.67949295043945 23.0 54.0 13.0 C 56.67949295043945 3.0 64.0 -4.320508003234863 74.0 -7.0 C 84.0 -4.320508003234863 91.32051086425781 3.0 94.0 13.0" stroke-width="0.0" fill="rgb(253, 254, 254)" opacity="1.0"/>
    <path d="M 256.0 13.0 C 253.3205108642578 23.0 246.0 30.32050895690918 236.0 33.0 C 226.0 30.32050895690918 218.6794891357422 23.0 216.0 13.0 C 218.6794891357422 3.0 226.0 -4.320508003234863 236.0 -7.0 C 246.0 -4.320508003234863 253.3205108642578 3.0 256.0 13.0" stroke-width="0.0" fill="rgb(253, 253, 253)" opacity="1.0"/>
    <path d="M 76.0 9.0 C 73.32051086425781 19.0 66.0 26.32050895690918 56.0 29.0 C 46.0 26.32050895690918 38.67949295043945 19.0 36.0 9.0 C 38.67949295043945 -1.0 46.0 -8.320508003234863 56.0 -11.0 C 66.0 -8.320508003234863 73.32051086425781 -1.0 76.0 9.0" stroke-width="0.0" fill="rgb(253, 253, 253)" opacity="1.0"/>
    <path d="M 74.0 5.0 C 71.32051086425781 15.0 64.0 22.32050895690918 54.0 25.0 C 44.0 22.32050895690918 36.67949295043945 15.0 34.0 5.0 C 36.67949295043945 -5.0 44.0 -12.320508003234863 54.0 -15.0 C 64.0 -12.320508003234863 71.32051086425781 -5.0 74.0 5.0" stroke-width="0.0" fill="rgb(253, 253, 253)" opacity="1.0"/>
    <path d="M 64.0 17.9999942779541 C 61.32012176513672 27.998632431030273 53.96906280517578 35.21841049194336 44.97991180419922 37.00852584838867 C 34.977439880371094 34.335182189941406 27.638755798339844 27.031599044799805 24.844484329223633 17.134502410888672 C 26.67949104309082 8.0 34.0 0.6794919371604919 44.0 -2.0 C 54.0 0.6794919371604919 61.32050704956055 8.0 64.0 17.9999942779541" stroke-width="0.0" fill="rgb(2, 2, 2)" opacity="0.99007773"/>
    <path d="M 76.0 3.0 C 73.32051086425781 13.0 66.0 20.32050895690918 56.0 23.0 C 46.0 20.32050895690918 38.67949295043945 13.0 36.0 3.0 C 38.67949295043945 -7.0 46.0 -14.320508003234863 56.0 -17.0 C 66.0 -14.320508003234863 73.32051086425781 -7.0 76.0 3.0" stroke-width="0.0" fill="rgb(253, 254, 253)" opacity="1.0"/>
    <path d="M 121.00000762939453 14.000011444091797 C 118.32059478759766 24.000179290771484 111.00045776367188 31.321575164794922 101.00109100341797 34.00275802612305 C 91.0 31.32050895690918 83.67948913574219 24.0 81.0 14.0 C 83.67948913574219 4.0 91.0 -3.3205080032348633 101.0 -6.0 C 111.0 -3.3205080032348633 118.32051086425781 4.0 121.00000762939453 14.000011444091797" stroke-width="0.0" fill="rgb(254, 254, 254)" opacity="1.0"/>
    <path d="M 257.0 5.0 C 254.3205108642578 15.0 247.0 22.32050895690918 237.0 25.0 C 227.0 22.32050895690918 219.6794891357422 15.0 217.0 5.0 C 219.6794891357422 -5.0 227.0 -12.320508003234863 237.0 -15.0 C 247.0 -12.320508003234863 254.3205108642578 -5.0 257.0 5.0" stroke-width="0.0" fill="rgb(254, 254, 254)" opacity="1.0"/>
    <path d="M 275.0 27.00002098083496 C 272.3211975097656 37.002376556396484 265.03009033203125 44.416709899902344 255.38099670410156 47.695068359375 C 244.99954223632812 44.32215881347656 237.6794891357422 37.00001525878906 235.0 27.0 C 237.6794891357422 17.0 245.0 9.679491996765137 255.0 7.0 C 265.0 9.679491996765137 272.32049560546875 17.0 275.0 27.00002098083496" stroke-width="0.0" fill="rgb(253, 253, 253)" opacity="0.99726117"/>
    <path d="M 72.98519897460938 14.964455604553223 C 70.07708740234375 24.55829620361328 62.30239486694336 31.470272064208984 52.15474319458008 34.070377349853516 C 42.99958801269531 32.321990966796875 35.67948913574219 25.000011444091797 33.0 15.0 C 35.67949295043945 5.0 43.0 -2.3205080032348633 53.0 -5.0 C 63.0 -2.3205080032348633 70.32051086425781 5.0 72.98519897460938 14.964455604553223" stroke-width="0.0" fill="rgb(4, 4, 5)" opacity="0.99022144"/>
    <path d="M 115.99999237060547 15.999983787536621 C 113.32042694091797 25.999845504760742 105.99972534179688 33.32002258300781 96.00027465820312 35.998287200927734 C 86.00035095214844 33.319759368896484 78.6795654296875 25.99983787536621 76.00000762939453 15.999987602233887 C 78.67948913574219 6.0 86.0 -1.3205081224441528 96.0 -4.0 C 106.0 -1.3205081224441528 113.32051086425781 6.0 115.99999237060547 15.999983787536621" stroke-width="0.0" fill="rgb(255, 255, 255)" opacity="0.99977016"/>
    <path d="M 89.0 1.0 C 86.32051086425781 11.0 79.0 18.32050895690918 69.0 21.0 C 59.0 18.32050895690918 51.67949295043945 11.0 49.0 1.0 C 51.67949295043945 -9.0 59.0 -16.32050895690918 69.0 -19.0 C 79.0 -16.32050895690918 86.32051086425781 -9.0 89.0 1.0" stroke-width="0.0" fill="rgb(253, 254, 253)" opacity="1.0"/>
    <path d="M 89.0 6.0 C 86.32051086425781 16.0 79.0 23.32050895690918 69.0 26.0 C 59.0 23.32050895690918 51.67949295043945 16.0 49.0 6.0 C 51.67949295043945 -4.0 59.0 -11.320508003234863 69.0 -14.0 C 79.0 -11.320508003234863 86.32051086425781 -4.0 89.0 6.0" stroke-width="0.0" fill="rgb(253, 254, 254)" opacity="1.0"/>
    <path d="M 113.0 5.0 C 110.32051086425781 15.0 103.0 22.32050895690918 93.0 25.0 C 83.0 22.32050895690918 75.67948913574219 15.0 73.0 5.0 C 75.67948913574219 -5.0 83.0 -12.320508003234863 93.0 -15.0 C 103.0 -12.320508003234863 110.32051086425781 -5.0 113.0 5.0" stroke-width="0.0" fill="rgb(254, 254, 254)" opacity="1.0"/>
    <path d="M 248.0 3.0 C 245.3205108642578 13.0 238.0 20.32050895690918 228.0 23.0 C 218.0 20.32050895690918 210.6794891357422 13.0 208.0 3.0 C 210.6794891357422 -7.0 218.0 -14.320508003234863 228.0 -17.0 C 238.0 -14.320508003234863 245.3205108642578 -7.0 248.0 3.0" stroke-width="0.0" fill="rgb(253, 253, 253)" opacity="1.0"/>
    <path d="M 273.0 0.0 C 270.32049560546875 10.0 263.0 17.32050895690918 253.0 20.0 C 243.0 17.32050895690918 235.6794891357422 10.0 233.0 2.4492935992912173e-15 C 235.6794891357422 -10.0 243.0 -17.32050895690918 253.0 -20.0 C 263.0 -17.32050895690918 270.32049560546875 -10.0 273.0 0.0" stroke-width="0.0" fill="rgb(253, 254, 254)" opacity="1.0"/>
    <path d="M 114.0 10.0 C 111.32051086425781 20.000001907348633 104.00001525878906 27.3205509185791 93.99949645996094 30.0029354095459 C 83.99989318847656 27.32082176208496 76.67948150634766 20.00002098083496 74.0 10.000000953674316 C 76.67948913574219 5.329070518200751e-15 84.0 -7.320508003234863 94.0 -10.0 C 104.0 -7.320508003234863 111.32051086425781 -8.881784197001252e-15 114.0 10.0" stroke-width="0.0" fill="rgb(254, 254, 254)" opacity="1.0"/>
    <path d="M 255.0 8.0 C 252.3205108642578 18.0 245.0 25.32050895690918 235.0 28.0 C 225.0 25.32050895690918 217.6794891357422 18.0 215.0 8.0 C 217.6794891357422 -2.0 225.0 -9.320508003234863 235.0 -12.0 C 245.0 -9.320508003234863 252.3205108642578 -2.0 255.0 8.0" stroke-width="0.0" fill="rgb(253, 254, 253)" opacity="1.0"/>
    <path d="M 238.0 10.0 C 235.3205108642578 20.0 228.0 27.32050895690918 217.92835998535156 30.046951293945312 C 207.6204071044922 27.589370727539062 200.03497314453125 20.508623123168945 197.1110382080078 9.55252456665039 C 200.3247833251953 -0.1468561291694641 207.9766845703125 -7.328102111816406 217.99960327148438 -10.000131607055664 C 228.0 -7.320508003234863 235.3205108642578 -8.881784197001252e-15 238.0 10.0" stroke-width="0.0" fill="rgb(255, 255, 255)" opacity="0.9908058"/>
    <path d="M 92.0 2.0 C 89.32051086425781 12.0 82.0 19.32050895690918 72.0 22.0 C 62.0 19.32050895690918 54.67949295043945 12.0 52.0 2.0 C 54.67949295043945 -8.0 62.0 -15.320508003234863 72.0 -18.0 C 82.0 -15.320508003234863 89.32051086425781 -8.0 92.0 2.0" stroke-width="0.0" fill="rgb(254, 254, 254)" opacity="1.0"/>
    <path d="M 264.0 21.0 C 261.32049560546875 31.0 254.0 38.32050704956055 244.0 41.0 C 234.0 38.32050704956055 226.6794891357422 31.0 224.0 21.0 C 226.6794891357422 11.0 234.0 3.6794919967651367 244.0 1.0 C 254.0 3.6794919967651367 261.32049560546875 11.0 264.0 21.0" stroke-width="0.0" fill="rgb(253, 253, 253)" opacity="1.0"/>
    <path d="M 275.0 24.0 C 272.32049560546875 34.0 265.0 41.32050704956055 255.0 44.0 C 245.0 41.32050704956055 237.6794891357422 34.0 235.0 24.0 C 237.6794891357422 14.0 245.0 6.679491996765137 255.0 4.0 C 265.0 6.679491996765137 272.32049560546875 14.0 275.0 24.0" stroke-width="0.0" fill="rgb(253, 253, 253)" opacity="1.0"/>
    <path d="M 262.0 10.0 C 259.32049560546875 20.0 252.0 27.32050895690918 242.0 30.0 C 232.0 27.32050895690918 224.6794891357422 20.0 222.0 10.0 C 224.6794891357422 5.329070518200751e-15 232.0 -7.320508003234863 242.0 -10.0 C 252.0 -7.320508003234863 259.32049560546875 -8.881784197001252e-15 262.0 10.0" stroke-width="0.0" fill="rgb(254, 254, 254)" opacity="1.0"/>
    <path d="M 249.0 10.0 C 246.3205108642578 20.0 239.0 27.32050895690918 229.0 30.0 C 219.0 27.32050895690918 211.6794891357422 20.0 209.0 10.0 C 211.6794891357422 5.329070518200751e-15 219.0 -7.320508003234863 229.0 -10.0 C 239.0 -7.320508003234863 246.3205108642578 -8.881784197001252e-15 249.0 10.0" stroke-width="0.0" fill="rgb(253, 253, 253)" opacity="1.0"/>
    <path d="M 67.04121398925781 17.067277908325195 C 64.58429718017578 27.37940216064453 57.508365631103516 34.963077545166016 47.509342193603516 37.64813995361328 C 37.0 34.32050704956055 29.67949104309082 27.0 27.0 17.0 C 29.67949104309082 7.0 37.0 -0.32050806283950806 47.0 -3.0 C 57.0 -0.32050806283950806 64.32051086425781 7.0 67.04121398925781 17.067277908325195" stroke-width="0.0" fill="rgb(13, 13, 13)" opacity="1.0"/>
    <path d="M 120.0 7.0 C 117.32051086425781 17.0 110.0 24.32050895690918 100.0 27.0 C 90.0 24.32050895690918 82.67948913574219 17.0 80.0 7.0 C 82.67948913574219 -3.0 90.0 -10.320508003234863 100.0 -13.0 C 110.0 -10.320508003234863 117.32051086425781 -3.0 120.0 7.0" stroke-width="0.0" fill="rgb(157, 157, 157)" opacity="1.0"/>
    <path d="M 97.0 4.0 C 94.32051086425781 14.0 87.0 21.32050895690918 77.0 24.0 C 67.0 21.32050895690918 59.67949295043945 14.0 57.0 4.0 C 59.67949295043945 -6.0 67.0 -13.320508003234863 77.0 -16.0 C 87.0 -13.320508003234863 94.32051086425781 -6.0 97.0 4.0" stroke-width="0.0" fill="rgb(254, 254, 254)" opacity="1.0"/>
    <path d="M 89.0 5.0 C 86.32051086425781 15.0 79.0 22.32050895690918 69.0 25.0 C 59.0 22.32050895690918 51.67949295043945 15.0 49.0 5.0 C 51.67949295043945 -5.0 59.0 -12.320508003234863 69.0 -15.0 C 79.0 -12.320508003234863 86.32051086425781 -5.0 89.0 5.0" stroke-width="0.0" fill="rgb(253, 254, 254)" opacity="1.0"/>
    <path d="M 79.0 14.0 C 76.32051086425781 24.0 69.0 31.32050895690918 58.074913024902344 34.97024917602539 C 48.196197509765625 32.235443115234375 41.36321258544922 24.54705047607422 38.98256301879883 14.044065475463867 C 41.67949295043945 4.0 49.0 -3.3205080032348633 59.0 -6.0 C 69.0 -3.3205080032348633 76.32051086425781 4.0 79.0 14.0" stroke-width="0.0" fill="rgb(255, 255, 255)" opacity="1.0"/>
    <path d="M 254.0 6.0 C 251.3205108642578 16.0 244.0 23.32050895690918 234.0 26.0 C 224.0 23.32050895690918 216.6794891357422 16.0 214.0 6.0 C 216.6794891357422 -4.0 224.0 -11.320508003234863 234.0 -14.0 C 244.0 -11.320508003234863 251.3205108642578 -4.0 254.0 6.0" stroke-width="0.0" fill="rgb(253, 254, 253)" opacity="1.0"/>
    <path d="M 99.00000762939453 16.000024795532227 C 96.32064056396484 26.00020408630371 89.00028991699219 33.32093048095703 79.00019073486328 36.00027084350586 C 69.0 33.32050704956055 61.67949295043945 26.0 59.0 16.0 C 61.67949295043945 6.0 69.0 -1.3205081224441528 79.0 -4.0 C 89.0 -1.3205081224441528 96.32051086425781 6.0 99.00000762939453 16.000024795532227" stroke-width="0.0" fill="rgb(253, 253, 254)" opacity="0.99999696"/>
    <path d="M 62.0 12.0 C 59.32050704956055 22.0 52.0 29.32050895690918 42.001220703125 31.999603271484375 C 32.06582260131836 29.298330307006836 25.286874771118164 21.67212677001953 22.979534149169922 12.885133743286133 C 25.601463317871094 2.8445475101470947 32.70614242553711 -4.772183418273926 42.16978073120117 -7.901710510253906 C 52.0 -5.320508003234863 59.32050704956055 2.0 62.0 12.0" stroke-width="0.0" fill="rgb(89, 90, 91)" opacity="0.9900591"/>
    <path d="M 71.0 1.0 C 68.32051086425781 11.0 61.0 18.32050895690918 51.0 21.0 C 41.0 18.32050895690918 33.67949295043945 11.0 31.0 1.0 C 33.67949295043945 -9.0 41.0 -16.32050895690918 51.0 -19.0 C 61.0 -16.32050895690918 68.32051086425781 -9.0 71.0 1.0" stroke-width="0.0" fill="rgb(253, 254, 253)" opacity="1.0"/>
    <path d="M 254.0 27.0 C 251.3205108642578 37.0 244.0 44.32050704956055 234.0 47.0 C 224.0 44.32050704956055 216.6794891357422 37.0 214.0 27.0 C 216.6794891357422 17.0 224.0 9.679491996765137 234.0 7.0 C 244.0 9.679491996765137 251.3205108642578 17.0 254.0 27.0" stroke-width="0.0" fill="rgb(254, 254, 255)" opacity="1.0"/>
    <path d="M 272.0 19.0 C 269.32049560546875 29.0 262.0 36.32050704956055 252.0 39.0 C 242.0 36.32050704956055 234.6794891357422 29.0 232.0 19.0 C 234.6794891357422 9.0 242.0 1.6794918775558472 252.0 -1.0 C 262.0 1.6794918775558472 269.32049560546875 9.0 272.0 19.0" stroke-width="0.0" fill="rgb(254, 254, 254)" opacity="1.0"/>
    <path d="M 266.0 23.0 C 263.32049560546875 33.0 256.0 40.32050704956055 246.0 43.0 C 236.0 40.32050704956055 228.6794891357422 33.0 226.0 23.0 C 228.6794891357422 13.0 236.0 5.679491996765137 246.0 3.0 C 256.0 5.679491996765137 263.32049560546875 13.0 266.0 23.0" stroke-width="0.0" fill="rgb(253, 253, 253)" opacity="1.0"/>
    <path d="M 266.0 16.0 C 263.32049560546875 26.0 256.0 33.32050704956055 246.0 36.0 C 236.0 33.32050704956055 228.6794891357422 26.0 226.0 16.0 C 228.6794891357422 6.0 236.0 -1.3205081224441528 246.0 -4.0 C 256.0 -1.3205081224441528 263.32049560546875 6.0 266.0 16.0" stroke-width="0.0" fill="rgb(253, 254, 254)" opacity="1.0"/>
    <path d="M 245.0 0.0 C 242.3205108642578 10.0 235.0 17.32050895690918 225.0 20.0 C 215.0 17.32050895690918 207.6794891357422 10.0 205.0 2.4492935992912173e-15 C 207.6794891357422 -10.0 215.0 -17.32050895690918 225.0 -20.0 C 235.0 -17.32050895690918 242.3205108642578 -10.0 245.0 0.0" stroke-width="0.0" fill="rgb(254, 254, 254)" opacity="1.0"/>
    <path d="M 257.0 26.000001907348633 C 254.32052612304688 36.00003433227539 247.00013732910156 43.320919036865234 236.9988250732422 46.006526947021484 C 226.99871826171875 43.322845458984375 219.6790313720703 36.000736236572266 216.99993896484375 26.000099182128906 C 219.6794891357422 16.0 227.0 8.679491996765137 237.0 6.0 C 247.0 8.679491996765137 254.3205108642578 16.0 257.0 26.000001907348633" stroke-width="0.0" fill="rgb(254, 254, 254)" opacity="1.0"/>
    <path d="M 89.0 3.0 C 86.32051086425781 13.0 79.0 20.32050895690918 69.0 23.0 C 59.0 20.32050895690918 51.67949295043945 13.0 49.0 3.0 C 51.67949295043945 -7.0 59.0 -14.320508003234863 69.0 -17.0 C 79.0 -14.320508003234863 86.32051086425781 -7.0 89.0 3.0" stroke-width="0.0" fill="rgb(254, 254, 254)" opacity="1.0"/>
    <path d="M 77.0 10.0 C 74.32051086425781 20.0 67.0 27.32050895690918 57.0 30.0 C 47.0 27.32050895690918 39.67949295043945 20.0 37.0 10.0 C 39.67949295043945 5.329070518200751e-15 47.0 -7.320508003234863 57.0 -10.0 C 67.0 -7.320508003234863 74.32051086425781 -8.881784197001252e-15 77.0 10.0" stroke-width="0.0" fill="rgb(253, 253, 253)" opacity="1.0"/>
    <path d="M 267.0 4.0 C 264.32049560546875 14.0 257.0 21.32050895690918 247.0 24.0 C 237.0 21.32050895690918 229.6794891357422 14.0 227.0 4.0 C 229.6794891357422 -6.0 237.0 -13.320508003234863 247.0 -16.0 C 257.0 -13.320508003234863 264.32049560546875 -6.0 267.0 4.0" stroke-width="0.0" fill="rgb(254, 254, 254)" opacity="1.0"/>
    <path d="M 269.0 5.0 C 266.32049560546875 15.0 259.0 22.32050895690918 249.0 25.0 C 239.0 22.32050895690918 231.6794891357422 15.0 229.0 5.0 C 231.6794891357422 -5.0 239.0 -12.320508003234863 249.0 -15.0 C 259.0 -12.320508003234863 266.32049560546875 -5.0 269.0 5.0" stroke-width="0.0" fill="rgb(253, 254, 253)" opacity="1.0"/>
    <path d="M 254.0 8.0 C 251.3205108642578 18.0 244.0 25.32050895690918 234.0 28.0 C 224.0 25.32050895690918 216.6794891357422 18.0 214.0 8.0 C 216.6794891357422 -2.0 224.0 -9.320508003234863 234.0 -12.0 C 244.0 -9.320508003234863 251.3205108642578 -2.0 254.0 8.0" stroke-width="0.0" fill="rgb(253, 253, 253)" opacity="1.0"/>
    <path d="M 268.99072265625 28.98021125793457 C 266.20135498046875 38.7769889831543 258.64508056640625 45.81405258178711 249.2533721923828 49.80604553222656 C 239.0397491455078 46.32115936279297 231.69676208496094 38.95912170410156 228.99911499023438 28.99860382080078 C 231.6794891357422 19.0 239.0 11.679491996765137 249.0 9.0 C 259.0 11.679491996765137 266.32049560546875 19.0 268.99072265625 28.98021125793457" stroke-width="0.0" fill="rgb(254, 255, 255)" opacity="0.99071413"/>
    <path d="M 113.0 8.0 C 110.32051086425781 18.0 103.0 25.32050895690918 92.99989318847656 28.000347137451172 C 82.99999237060547 25.320539474487305 75.67948913574219 18.000001907348633 73.0 8.0 C 75.67948913574219 -2.0 83.0 -9.320508003234863 93.0 -12.0 C 103.0 -9.320508003234863 110.32051086425781 -2.0 113.0 8.0" stroke-width="0.0" fill="rgb(254, 254, 254)" opacity="1.0"/>
    <path d="M 255.0 7.0 C 252.3205108642578 17.0 245.0 24.32050895690918 235.0 27.0 C 225.0 24.32050895690918 217.6794891357422 17.0 215.0 7.0 C 217.6794891357422 -3.0 225.0 -10.320508003234863 235.0 -13.0 C 245.0 -10.320508003234863 252.3205108642578 -3.0 255.0 7.0" stroke-width="0.0" fill="rgb(253, 254, 253)" opacity="1.0"/>
    <path d="M 62.0 16.0 C 59.32050704956055 26.0 52.0 33.32050704956055 42.89168167114258 35.11809158325195 C 32.971534729003906 32.354801177978516 25.66423225402832 25.021867752075195 22.99336814880371 15.049453735351562 C 25.63180923461914 6.902960300445557 32.808650970458984 -0.6327375173568726 42.2792854309082 -3.8241803646087646 C 52.0 -1.3205081224441528 59.32050704956055 6.0 62.0 16.0" stroke-width="0.0" fill="rgb(2, 2, 2)" opacity="0.99001545"/>
    <path d="M 252.0 10.0 C 249.3205108642578 20.0 242.0 27.32050895690918 232.0 30.0 C 222.0 27.32050895690918 214.6794891357422 20.0 212.0 10.0 C 214.6794891357422 5.329070518200751e-15 222.0 -7.320508003234863 232.0 -10.0 C 242.0 -7.320508003234863 249.3205108642578 -8.881784197001252e-15 252.0 10.0" stroke-width="0.0" fill="rgb(253, 253, 253)" opacity="1.0"/>
    <path d="M 249.0 7.0 C 246.3205108642578 17.0 239.0 24.32050895690918 229.0 27.0 C 219.0 24.32050895690918 211.6794891357422 17.0 209.0 7.0 C 211.6794891357422 -3.0 219.0 -10.320508003234863 229.0 -13.0 C 239.0 -10.320508003234863 246.3205108642578 -3.0 249.0 7.0" stroke-width="0.0" fill="rgb(253, 253, 253)" opacity="1.0"/>
    <path d="M 103.0 10.0 C 100.32051086425781 20.0 93.0 27.32050895690918 83.0 30.0 C 73.0 27.32050895690918 65.67948913574219 20.0 63.0 10.0 C 65.67948913574219 5.329070518200751e-15 73.0 -7.320508003234863 83.0 -10.0 C 93.0 -7.320508003234863 100.32051086425781 -8.881784197001252e-15 103.0 10.0" stroke-width="0.0" fill="rgb(253, 253, 253)" opacity="1.0"/>
    <path d="M 92.0 5.0 C 89.32051086425781 15.0 82.0 22.32050895690918 72.0 25.0 C 62.0 22.32050895690918 54.67949295043945 15.0 52.0 5.0 C 54.67949295043945 -5.0 62.0 -12.320508003234863 72.0 -15.0 C 82.0 -12.320508003234863 89.32051086425781 -5.0 92.0 5.0" stroke-width="0.0" fill="rgb(253, 253, 254)" opacity="1.0"/>
    <path d="M 66.0 0.0 C 63.32050704956055 10.0 56.0 17.32050895690918 45.999820709228516 20.000057220458984 C 35.98995590209961 17.323772430419922 28.515233993530273 10.059454917907715 25.432270050048828 0.29581180214881897 C 28.67949104309082 -10.0 36.0 -17.32050895690918 46.0 -20.0 C 56.0 -17.32050895690918 63.32050704956055 -10.0 66.0 0.0" stroke-width="0.0" fill="rgb(254, 255, 255)" opacity="0.9973184"/>
    <path d="M 275.0 6.0 C 272.32049560546875 16.0 265.0 23.32050895690918 255.0 26.0 C 245.0 23.32050895690918 237.6794891357422 16.0 235.0 6.0 C 237.6794891357422 -4.0 245.0 -11.320508003234863 255.0 -14.0 C 265.0 -11.320508003234863 272.32049560546875 -4.0 275.0 6.0" stroke-width="0.0" fill="rgb(254, 254, 254)" opacity="1.0"/>
    <path d="M 268.0 9.0 C 265.32049560546875 19.0 258.0 26.32050895690918 248.0 29.0 C 238.0 26.32050895690918 230.6794891357422 19.0 228.0 9.0 C 230.6794891357422 -1.0 238.0 -8.320508003234863 248.0 -11.0 C 258.0 -8.320508003234863 265.32049560546875 -1.0 268.0 9.0" stroke-width="0.0" fill="rgb(254, 254, 254)" opacity="1.0"/>
    <path d="M 250.0000762939453 22.00010108947754 C 247.3209228515625 32.00058364868164 240.00083923339844 39.3217887878418 230.00038146972656 42.00173568725586 C 219.99984741210938 39.32085418701172 212.67945861816406 32.000064849853516 210.0 22.000003814697266 C 212.6794891357422 12.0 220.0 4.679491996765137 230.0 2.0 C 240.0 4.679491996765137 247.3205108642578 12.0 250.0000762939453 22.00010108947754" stroke-width="0.0" fill="rgb(254, 254, 254)" opacity="1.0"/>
    <path d="M 119.0 2.0 C 116.32051086425781 12.0 109.0 19.32050895690918 99.0 22.0 C 89.0 19.32050895690918 81.67948913574219 12.0 79.0 2.0 C 81.67948913574219 -8.0 89.0 -15.320508003234863 99.0 -18.0 C 109.0 -15.320508003234863 116.32051086425781 -8.0 119.0 2.0" stroke-width="0.0" fill="rgb(16, 16, 15)" opacity="1.0"/>
    <path d="M 94.0000228881836 19.99934959411621 C 91.30949401855469 29.968156814575195 83.8822250366211 37.04935836791992 73.19011688232422 40.84018325805664 C 63.20207214355469 38.19233322143555 56.10054397583008 30.701675415039062 53.8599853515625 20.216005325317383 C 56.67949295043945 10.0 64.0 2.6794919967651367 74.0 0.0 C 84.0 2.6794919967651367 91.32051086425781 10.0 94.0000228881836 19.99934959411621" stroke-width="0.0" fill="rgb(255, 255, 255)" opacity="1.0"/>
    <path d="M 125.84832000732422 8.490161895751953 C 122.05625915527344 18.84717559814453 114.91797637939453 26.277023315429688 104.99229431152344 28.995790481567383 C 95.0 26.32050895690918 87.67948913574219 19.0 85.0 9.0 C 87.67948913574219 -1.0 95.0 -8.320508003234863 105.0001220703125 -11.000038146972656 C 115.00960540771484 -8.323485374450684 122.54794311523438 -1.0817639827728271 125.84832000732422 8.490161895751953" stroke-width="0.0" fill="rgb(207, 207, 207)" opacity="0.9907068"/>
    <path d="M 71.0 10.0 C 68.32051086425781 20.0 61.0 27.32050895690918 51.0 30.0 C 41.0 27.32050895690918 33.67949295043945 20.0 31.0 10.0 C 33.67949295043945 5.329070518200751e-15 41.0 -7.320508003234863 51.0 -10.0 C 61.0 -7.320508003234863 68.32051086425781 -8.881784197001252e-15 71.0 10.0" stroke-width="0.0" fill="rgb(253, 253, 253)" opacity="1.0"/>
    <path d="M 253.0 12.0 C 250.3205108642578 22.0 243.0 29.32050895690918 233.0 32.0 C 223.0 29.32050895690918 215.6794891357422 22.0 213.0 12.0 C 215.6794891357422 2.0 223.0 -5.320508003234863 233.0 -8.0 C 243.0 -5.320508003234863 250.3205108642578 2.0 253.0 12.0" stroke-width="0.0" fill="rgb(253, 253, 253)" opacity="1.0"/>
    <path d="M 88.0 6.0 C 85.32051086425781 16.0 78.0 23.32050895690918 68.0 26.0 C 58.0 23.32050895690918 50.67949295043945 16.0 48.0 6.0 C 50.67949295043945 -4.0 58.0 -11.320508003234863 68.0 -14.0 C 78.0 -11.320508003234863 85.32051086425781 -4.0 88.0 6.0" stroke-width="0.0" fill="rgb(253, 254, 254)" opacity="1.0"/>
    <path d="M 265.0 13.0 C 262.32049560546875 23.0 255.0 30.32050895690918 245.0 33.0 C 235.0 30.32050895690918 227.6794891357422 23.0 225.0 13.0 C 227.6794891357422 3.0 235.0 -4.320508003234863 245.0 -7.0 C 255.0 -4.320508003234863 262.32049560546875 3.0 265.0 13.0" stroke-width="0.0" fill="rgb(253, 253, 252)" opacity="0.99999934"/>
    <path d="M 80.0 12.0 C 77.32051086425781 21.9999942779541 69.9999771118164 29.3204345703125 60.00022888183594 31.998048782348633 C 50.000057220458984 29.320335388183594 42.67949676513672 21.999988555908203 40.0 12.0 C 42.67949295043945 2.0 50.0 -5.320508003234863 60.0 -8.0 C 70.0 -5.320508003234863 77.32051086425781 2.0 80.0 12.0" stroke-width="0.0" fill="rgb(255, 255, 255)" opacity="0.9997001"/>
    <path d="M 123.7520980834961 13.564397811889648 C 120.93779754638672 23.457435607910156 113.30880737304688 30.518535614013672 103.04335021972656 33.030738830566406 C 92.99916076660156 30.322263717651367 85.67928314208984 23.000394821166992 82.99998474121094 13.00003433227539 C 85.67948913574219 3.0 93.0 -4.320508003234863 103.0 -7.0 C 113.00005340576172 -4.3205246925354 120.32266998291016 2.999361276626587 123.7520980834961 13.564397811889648" stroke-width="0.0" fill="rgb(255, 255, 255)" opacity="0.9978132"/>
    <path d="M 77.0 8.0 C 74.32051086425781 18.0 67.0 25.32050895690918 57.0 28.0 C 47.0 25.32050895690918 39.67949295043945 18.0 37.0 8.0 C 39.67949295043945 -2.0 47.0 -9.320508003234863 57.0 -12.0 C 67.0 -9.320508003234863 74.32051086425781 -2.0 77.0 8.0" stroke-width="0.0" fill="rgb(253, 253, 253)" opacity="1.0"/>
    <path d="M 74.0 10.0 C 71.32051086425781 20.0 64.0 27.32050895690918 54.0 30.0 C 44.0 27.32050895690918 36.67949295043945 20.0 34.0 10.0 C 36.67949295043945 5.329070518200751e-15 44.0 -7.320508003234863 54.0 -10.0 C 64.0 -7.320508003234863 71.32051086425781 -8.881784197001252e-15 74.0 10.0" stroke-width="0.0" fill="rgb(253, 254, 253)" opacity="1.0"/>
    <path d="M 267.0000305175781 18.00006675720215 C 264.3208312988281 28.000627517700195 257.001220703125 35.3228759765625 247.00025939941406 38.00931167602539 C 236.99920654296875 35.32221603393555 229.67930603027344 28.000354766845703 226.99998474121094 18.000030517578125 C 229.6794891357422 8.0 237.0 0.6794919371604919 247.0 -2.0 C 257.0 0.6794919371604919 264.32049560546875 8.0 267.0000305175781 18.00006675720215" stroke-width="0.0" fill="rgb(255, 255, 255)" opacity="1.0"/>
    <path d="M 66.0 4.0 C 63.32050704956055 14.0 56.0 21.32050895690918 46.0 24.0 C 36.0 21.32050895690918 28.67949104309082 14.0 26.0 4.0 C 28.67949104309082 -6.0 36.0 -13.320508003234863 46.0 -16.0 C 56.0 -13.320508003234863 63.32050704956055 -6.0 66.0 4.0" stroke-width="0.0" fill="rgb(254, 254, 254)" opacity="1.0"/>
    <path d="M 65.0 6.0 C 62.32050704956055 16.0 55.0 23.32050895690918 44.81287384033203 26.09777069091797 C 34.22307205200195 23.93531608581543 26.72699737548828 16.89731216430664 24.018444061279297 6.9510955810546875 C 27.426115036010742 -4.111213207244873 34.96609115600586 -11.335824966430664 44.997886657714844 -14.000960350036621 C 55.0 -11.320508003234863 62.32050704956055 -4.0 65.0 6.0" stroke-width="0.0" fill="rgb(255, 255, 255)" opacity="1.0"/>
    <path d="M 103.9997329711914 10.9996919631958 C 101.31942749023438 20.998661041259766 93.99822235107422 28.317922592163086 83.99886322021484 30.99509048461914 C 74.00009155273438 28.320247650146484 66.67949676513672 20.999977111816406 64.0 10.999999046325684 C 66.67948913574219 1.0 74.0 -6.320508003234863 84.0 -9.0 C 94.0 -6.320508003234863 101.32051086425781 1.0 103.9997329711914 10.9996919631958" stroke-width="0.0" fill="rgb(255, 255, 255)" opacity="0.9995843"/>
    <path d="M 245.0 12.0 C 242.3205108642578 22.0 235.0 29.32050895690918 225.0 32.0 C 215.0 29.32050895690918 207.6794891357422 22.0 205.0 12.0 C 207.6794891357422 2.0 215.0 -5.320508003234863 225.0 -8.0 C 235.0 -5.320508003234863 242.3205108642578 2.0 245.0 12.0" stroke-width="0.0" fill="rgb(254, 254, 254)" opacity="1.0"/>
    <path d="M 76.0 7.0 C 73.32051086425781 17.0 66.0 24.32050895690918 56.0 27.0 C 46.0 24.32050895690918 38.67949295043945 17.0 36.00290298461914 7.001616954803467 C 38.68223190307617 -2.9984734058380127 46.00086212158203 -10.320026397705078 56.000091552734375 -12.99994945526123 C 66.0 -10.320508003234863 73.32051086425781 -3.0 76.0 7.0" stroke-width="0.0" fill="rgb(255, 255, 255)" opacity="0.9995959"/>
    <path d="M 90.0 14.0 C 87.32051086425781 24.0 80.0 31.32050895690918 69.9988784790039 34.00147247314453 C 59.99795913696289 31.323162078857422 52.67824172973633 24.001619338989258 49.99871826171875 13.999488830566406 C 52.6773567199707 3.9982402324676514 59.99851608276367 -3.321730613708496 69.9996566772461 -6.000282287597656 C 80.0 -3.3205080032348633 87.32051086425781 4.0 90.0 14.0" stroke-width="0.0" fill="rgb(255, 255, 255)" opacity="1.0"/>
    <path d="M 99.0 10.0 C 96.32051086425781 20.0 88.99999237060547 27.32047462463379 79.0438003540039 29.962318420410156 C 69.17081451416016 27.178770065307617 61.91884994506836 19.79936981201172 59.14570999145508 9.889359474182129 C 61.68258285522461 0.0011947095626965165 69.00037384033203 -7.320348739624023 79.0000228881836 -9.999988555908203 C 89.0 -7.320508003234863 96.32051086425781 -8.881784197001252e-15 99.0 10.0" stroke-width="0.0" fill="rgb(255, 255, 255)" opacity="0.9980635"/>
    <path d="M 125.813232421875 6.602671146392822 C 122.87350463867188 16.334253311157227 115.1475601196289 23.387733459472656 105.0092544555664 25.991554260253906 C 95.00145721435547 23.31779670715332 87.68024444580078 15.999102592468262 85.00090026855469 5.999770641326904 C 87.67955017089844 -3.9999775886535645 95.00000762939453 -11.320505142211914 104.99996948242188 -13.999984741210938 C 114.99944305419922 -11.320262908935547 122.3189468383789 -3.9990415573120117 125.813232421875 6.602671146392822" stroke-width="0.0" fill="rgb(249, 250, 250)" opacity="1.0"/>
    <path d="M 248.99998474121094 18.999977111816406 C 246.32041931152344 28.99989128112793 238.99986267089844 36.320335388183594 228.9999237060547 38.999908447265625 C 219.0 36.32050704956055 211.6794891357422 29.0 209.0 19.0 C 211.6794891357422 9.0 219.0 1.6794918775558472 229.0 -1.0 C 239.0 1.6794918775558472 246.3205108642578 9.0 248.99998474121094 18.999977111816406" stroke-width="0.0" fill="rgb(253, 253, 253)" opacity="0.99998933"/>
    <path d="M 64.00544738769531 18.682252883911133 C 61.33502197265625 27.018878936767578 54.01945114135742 34.33611297607422 44.022979736328125 37.00937271118164 C 34.80398941040039 35.457061767578125 27.386470794677734 28.239280700683594 25.9713134765625 18.963533401489258 C 28.66455841064453 8.983739852905273 35.98399353027344 1.665254831314087 44.83881378173828 -1.0125240087509155 C 54.01765441894531 1.6643989086151123 61.33512496948242 8.982490539550781 64.00544738769531 18.682252883911133" stroke-width="0.0" fill="rgb(3, 3, 2)" opacity="0.9900005"/>
    <path d="M 264.0 14.999983787536621 C 261.3204040527344 24.999814987182617 253.99964904785156 32.3198127746582 243.9995880126953 34.997833251953125 C 234.00003051757812 32.3204231262207 226.6794891357422 25.0 224.0 15.000000953674316 C 226.6794891357422 5.0 234.0 -2.3205080032348633 244.0 -4.999996662139893 C 253.99998474121094 -2.3204970359802246 261.32049560546875 5.000010967254639 264.0 14.999983787536621" stroke-width="0.0" fill="rgb(255, 255, 252)" opacity="0.9996523"/>
    <path d="M 242.0 21.0 C 239.32052612304688 31.000032424926758 232.00015258789062 38.32093048095703 222.2037811279297 40.722259521484375 C 211.8207550048828 38.06037139892578 204.0277557373047 31.468505859375 201.11720275878906 21.413095474243164 C 204.481689453125 10.929322242736816 211.99037170410156 3.676067352294922 221.9996795654297 0.9997561573982239 C 232.0 3.6794919967651367 239.3205108642578 11.0 242.0 21.0" stroke-width="0.0" fill="rgb(255, 255, 255)" opacity="0.99048877"/>
    <path d="M 251.99966430664062 4.99999475479126 C 249.320556640625 15.000032424926758 242.00001525878906 22.320512771606445 232.0 24.999996185302734 C 222.0 22.320507049560547 214.67953491210938 14.999983787536621 212.00030517578125 4.999902725219727 C 214.6794891357422 -5.0 222.0 -12.320508003234863 232.0 -15.0 C 242.0 -12.320510864257812 249.32052612304688 -5.000010013580322 251.99966430664062 4.99999475479126" stroke-width="0.0" fill="rgb(255, 255, 255)" opacity="0.9998057"/>
    <path d="M 245.99996948242188 20.00013542175293 C 243.32049560546875 29.999897003173828 235.99986267089844 37.32035827636719 226.00067138671875 39.99856948852539 C 216.00103759765625 37.3192253112793 208.68084716796875 29.998947143554688 206.0033416748047 19.99997901916504 C 208.68060302734375 10.000692367553711 216.00047302246094 2.6798322200775146 226.00009155273438 6.923136243131012e-05 C 236.0 2.679492712020874 243.3204803466797 10.000009536743164 245.99996948242188 20.00013542175293" stroke-width="0.0" fill="rgb(255, 255, 255)" opacity="0.9988263"/>
  </g>
</svg>
