<?xml version="1.0" ?>
<svg xmlns="http://www.w3.org/2000/svg" version="1.1" width="256" height="256">
  <defs/>
  <g>
    <path d="M 202.0 247.0 C 199.3205108642578 257.0 192.0 264.32049560546875 182.0 267.0 C 172.0 264.32049560546875 164.6794891357422 257.0 162.0 247.0 C 164.6794891357422 237.0 172.0 229.6794891357422 182.0 227.0 C 192.0 229.6794891357422 199.3205108642578 237.0 202.0 247.0" stroke-width="0.0" fill="rgb(200, 177, 145)" opacity="1.0"/>
    <path d="M 244.0 197.0 C 241.3205108642578 207.0 234.0 214.3205108642578 224.01315307617188 216.9943084716797 C 214.20565795898438 214.2225341796875 207.32110595703125 206.57632446289062 204.9326934814453 197.77615356445312 C 207.5259552001953 187.73077392578125 214.57363891601562 180.10704040527344 224.12510681152344 177.0782012939453 C 234.0 179.6794891357422 241.3205108642578 187.0 244.0 197.0" stroke-width="0.0" fill="rgb(202, 178, 148)" opacity="1.0"/>
    <path d="M 229.0 230.0 C 226.3205108642578 240.0 219.0 247.3205108642578 209.0 250.0 C 199.0 247.3205108642578 191.6794891357422 240.0 188.40896606445312 229.3961944580078 C 190.85205078125 219.1646270751953 198.15774536132812 211.82933044433594 208.3335723876953 209.3191680908203 C 219.0 212.6794891357422 226.3205108642578 220.0 229.0 230.0" stroke-width="0.0" fill="rgb(193, 170, 138)" opacity="1.0"/>
    <path d="M 45.0 11.0 C 42.32050704956055 21.0 35.0 28.32050895690918 25.0 31.0 C 15.0 28.32050895690918 7.679491996765137 21.0 5.0 11.0 C 7.679491996765137 1.0 15.0 -6.320508003234863 25.0 -9.0 C 35.0 -6.320508003234863 42.32050704956055 1.0 45.0 11.0" stroke-width="0.0" fill="rgb(225, 195, 164)" opacity="1.0"/>
    <path d="M 34.0 193.0 C 31.32050895690918 203.0 24.0 210.3205108642578 14.0 213.0 C 4.0 210.3205108642578 -3.3205080032348633 203.0 -6.0 193.0 C -3.3205080032348633 183.0 4.0 175.6794891357422 14.0 173.0 C 24.0 175.6794891357422 31.32050895690918 183.0 34.0 193.0" stroke-width="0.0" fill="rgb(212, 186, 152)" opacity="1.0"/>
    <path d="M 185.0 15.000000953674316 C 182.320556640625 25.00014305114746 175.00408935546875 32.33505630493164 165.66221618652344 34.198760986328125 C 155.36378479003906 31.705392837524414 147.7190399169922 24.879526138305664 144.99913024902344 14.999134063720703 C 147.6794891357422 5.0 155.0 -2.3205080032348633 165.0 -5.0 C 175.0 -2.3205080032348633 182.3205108642578 5.0 185.0 15.000000953674316" stroke-width="0.0" fill="rgb(227, 199, 169)" opacity="0.991674"/>
    <path d="M 243.0 239.0 C 240.3205108642578 249.0 233.0 256.32049560546875 223.0 259.0 C 213.0 256.32049560546875 205.6794891357422 249.0 203.0 239.0 C 205.6794891357422 229.0 213.0 221.6794891357422 223.0 219.0 C 233.0 221.6794891357422 240.3205108642578 229.0 243.0 239.0" stroke-width="0.0" fill="rgb(193, 170, 139)" opacity="1.0"/>
    <path d="M 22.0 194.0 C 19.32050895690918 204.0 12.0 211.3205108642578 2.0 214.0 C -8.0 211.3205108642578 -15.320508003234863 204.0 -18.0 194.0 C -15.320508003234863 184.0 -8.0 176.6794891357422 2.0 174.0 C 12.0 176.6794891357422 19.32050895690918 184.0 22.0 194.0" stroke-width="0.0" fill="rgb(212, 184, 150)" opacity="1.0"/>
    <path d="M 262.0 236.0 C 259.32049560546875 246.0 252.0 253.3205108642578 242.0 256.0 C 232.0 253.3205108642578 224.6794891357422 246.0 222.0 236.0 C 224.6794891357422 226.0 232.0 218.6794891357422 242.0 216.0 C 252.0 218.6794891357422 259.32049560546875 226.0 262.0 236.0" stroke-width="0.0" fill="rgb(192, 170, 139)" opacity="1.0"/>
    <path d="M 237.99996948242188 217.00009155273438 C 235.3205108642578 227.0 228.0 234.3205108642578 218.0 237.0 C 208.0 234.3205108642578 200.6794891357422 227.0 197.0582275390625 216.1582794189453 C 199.9629364013672 206.85728454589844 208.33737182617188 199.69935607910156 217.72438049316406 196.38818359375 C 227.998779296875 199.6787567138672 235.3198699951172 207.00144958496094 237.99996948242188 217.00009155273438" stroke-width="0.0" fill="rgb(197, 173, 142)" opacity="0.990232"/>
    <path d="M 60.0 7.0 C 57.32050704956055 17.0 50.0 24.32050895690918 40.0 27.0 C 30.0 24.32050895690918 22.67949104309082 17.0 20.0 7.0 C 22.67949104309082 -3.0 30.0 -10.320508003234863 40.0 -13.0 C 50.0 -10.320508003234863 57.32050704956055 -3.0 60.0 7.0" stroke-width="0.0" fill="rgb(228, 196, 163)" opacity="1.0"/>
    <path d="M 259.0 221.0 C 256.32049560546875 231.0 249.0 238.3205108642578 239.0 241.0 C 229.0 238.3205108642578 221.6794891357422 231.0 219.0 221.0 C 221.6794891357422 211.0 229.0 203.6794891357422 239.0 201.0 C 249.0 203.6794891357422 256.32049560546875 211.0 259.0 221.0" stroke-width="0.0" fill="rgb(197, 175, 146)" opacity="1.0"/>
    <path d="M 245.0 220.0 C 242.3205108642578 230.0 235.0 237.3205108642578 225.0 240.0 C 215.0 237.3205108642578 207.6794891357422 230.0 205.0 220.0 C 207.6794891357422 210.0 215.0 202.6794891357422 225.0 200.0 C 235.0 202.6794891357422 242.3205108642578 210.0 245.0 220.0" stroke-width="0.0" fill="rgb(194, 171, 141)" opacity="1.0"/>
    <path d="M 31.567031860351562 153.7017364501953 C 28.901470184326172 163.7134246826172 21.814769744873047 171.2080841064453 11.976648330688477 173.98684692382812 C 2.0 171.3205108642578 -5.320508003234863 164.0 -8.0 154.0 C -5.320508003234863 144.0 2.0 136.6794891357422 12.0 134.0 C 22.0 136.6794891357422 29.32050895690918 144.0 31.567031860351562 153.7017364501953" stroke-width="0.0" fill="rgb(211, 184, 153)" opacity="1.0"/>
    <path d="M 201.69873046875 227.72059631347656 C 198.3205108642578 238.0 191.0 245.3205108642578 181.07376098632812 247.96807861328125 C 171.6375732421875 244.9060821533203 164.619140625 237.14443969726562 161.99415588378906 228.95782470703125 C 164.6670684814453 218.9849090576172 171.98507690429688 211.66744995117188 181.9132843017578 208.99449157714844 C 190.03477478027344 211.6604766845703 197.48387145996094 218.9340362548828 201.69873046875 227.72059631347656" stroke-width="0.0" fill="rgb(5, 5, 8)" opacity="0.99000096"/>
    <path d="M 35.0 12.0 C 32.32050704956055 22.0 25.0 29.32050895690918 15.0 32.0 C 5.0 29.32050895690918 -2.3205080032348633 22.0 -5.0 12.0 C -2.3205080032348633 2.0 5.0 -5.320508003234863 15.0 -8.0 C 25.0 -5.320508003234863 32.32050704956055 2.0 35.0 12.0" stroke-width="0.0" fill="rgb(223, 194, 165)" opacity="1.0"/>
    <path d="M 21.0 77.0 C 18.32050895690918 87.0 11.0 94.32051086425781 1.0 97.0 C -9.0 94.32051086425781 -16.32050895690918 87.0 -19.0 77.0 C -16.32050895690918 67.0 -9.0 59.67949295043945 1.0 57.0 C 11.0 59.67949295043945 18.32050895690918 67.0 21.0 77.0" stroke-width="0.0" fill="rgb(228, 199, 164)" opacity="1.0"/>
    <path d="M 21.0 85.0 C 18.32050895690918 95.0 11.0 102.32051086425781 1.0 105.0 C -9.0 102.32051086425781 -16.32050895690918 95.0 -19.0 85.0 C -16.32050895690918 75.0 -9.0 67.67948913574219 1.0 65.0 C 11.0 67.67948913574219 18.32050895690918 75.0 21.0 85.0" stroke-width="0.0" fill="rgb(227, 196, 163)" opacity="1.0"/>
    <path d="M 167.85372924804688 17.795345306396484 C 164.7877655029297 27.362709045410156 157.2740478515625 34.514739990234375 148.33709716796875 37.167354583740234 C 138.73211669921875 34.49550247192383 131.11880493164062 27.38801383972168 127.93390655517578 17.922876358032227 C 130.6794891357422 8.0 138.0 0.6794919371604919 148.0 -2.0 C 158.0 0.6794919371604919 165.3205108642578 8.0 167.85372924804688 17.795345306396484" stroke-width="0.0" fill="rgb(230, 201, 172)" opacity="0.99007887"/>
    <path d="M 252.0 182.0 C 249.3205108642578 192.0 242.0 199.3205108642578 231.90093994140625 202.08401489257812 C 221.68231201171875 199.59951782226562 214.2751007080078 192.3561553955078 211.74301147460938 182.2154998779297 C 214.6794891357422 172.0 222.0 164.6794891357422 232.0 162.0 C 242.0 164.6794891357422 249.3205108642578 172.0 252.0 182.0" stroke-width="0.0" fill="rgb(197, 173, 141)" opacity="1.0"/>
    <path d="M 32.0 2.0 C 29.32050895690918 12.0 22.0 19.32050895690918 12.0 22.0 C 2.0 19.32050895690918 -5.320508003234863 12.0 -8.0 2.0 C -5.320508003234863 -8.0 2.0 -15.320508003234863 12.0 -18.0 C 22.0 -15.320508003234863 29.32050895690918 -8.0 32.0 2.0" stroke-width="0.0" fill="rgb(225, 194, 161)" opacity="1.0"/>
    <path d="M 262.1985778808594 90.8099136352539 C 259.32049560546875 101.0 252.0 108.32051086425781 242.0 111.0 C 232.0 108.32051086425781 224.6794891357422 101.0 222.0 91.0 C 224.6794891357422 81.0 232.0 73.67948913574219 242.15867614746094 70.84671783447266 C 252.38063049316406 73.30945587158203 259.7227783203125 80.60961151123047 262.1985778808594 90.8099136352539" stroke-width="0.0" fill="rgb(216, 192, 161)" opacity="1.0"/>
    <path d="M 23.0 233.0 C 20.32050895690918 243.0 13.0 250.3205108642578 3.0 253.0 C -7.0 250.3205108642578 -14.320508003234863 243.0 -17.0 233.0 C -14.320508003234863 223.0 -7.0 215.6794891357422 3.0 213.0 C 13.0 215.6794891357422 20.32050895690918 223.0 23.0 233.0" stroke-width="0.0" fill="rgb(207, 182, 146)" opacity="1.0"/>
    <path d="M 212.14825439453125 20.136838912963867 C 209.59078979492188 30.125083923339844 201.66928100585938 36.66920471191406 191.52227783203125 39.12429428100586 C 181.6927032470703 36.88235855102539 174.0513916015625 30.537973403930664 171.52725219726562 20.401765823364258 C 174.5047149658203 9.711959838867188 181.5597686767578 2.075377941131592 191.57806396484375 -0.7245750427246094 C 202.08189392089844 2.4927752017974854 209.33108520507812 9.973163604736328 212.14825439453125 20.136838912963867" stroke-width="0.0" fill="rgb(232, 202, 174)" opacity="0.99001586"/>
    <path d="M 31.105831146240234 177.61026000976562 C 29.444032669067383 187.15838623046875 22.141305923461914 194.4047088623047 12.01681137084961 197.00888061523438 C 2.0 194.3205108642578 -5.320508003234863 187.0 -8.0 177.0 C -5.320508003234863 167.0 2.0 159.6794891357422 11.98641586303711 157.00656127929688 C 21.817228317260742 159.76991271972656 28.692018508911133 167.40162658691406 31.105831146240234 177.61026000976562" stroke-width="0.0" fill="rgb(215, 185, 149)" opacity="0.990067"/>
    <path d="M 30.167097091674805 166.77865600585938 C 28.75106430053711 176.29476928710938 21.198392868041992 183.46266174316406 11.03860855102539 186.02999877929688 C 1.0 183.3205108642578 -6.320508003234863 176.0 -9.0 166.0 C -6.320508003234863 156.0 1.0 148.6794891357422 10.989194869995117 146.00486755371094 C 20.839967727661133 148.75604248046875 27.741390228271484 156.35694885253906 30.167097091674805 166.77865600585938" stroke-width="0.0" fill="rgb(217, 188, 153)" opacity="0.9901448"/>
    <path d="M 244.0 227.0 C 241.3205108642578 237.0 234.0 244.3205108642578 224.0 247.0 C 214.0 244.3205108642578 206.6794891357422 237.0 204.0 227.0 C 206.6794891357422 217.0 214.0 209.6794891357422 224.0 207.0 C 234.0 209.6794891357422 241.3205108642578 217.0 244.0 227.0" stroke-width="0.0" fill="rgb(191, 167, 136)" opacity="1.0"/>
    <path d="M 92.0 1.0 C 89.32051086425781 11.0 82.0 18.32050895690918 72.0 21.0 C 62.0 18.32050895690918 54.67949295043945 11.0 52.0 1.0 C 54.67949295043945 -9.0 62.0 -16.32050895690918 72.0 -19.0 C 82.0 -16.32050895690918 89.32051086425781 -9.0 92.0 1.0" stroke-width="0.0" fill="rgb(231, 201, 171)" opacity="1.0"/>
    <path d="M 38.13136291503906 71.75183868408203 C 36.32050704956055 81.0 29.0 88.32051086425781 19.0 91.0 C 9.0 88.32051086425781 1.6794918775558472 81.0 -1.0 71.0 C 1.6794918775558472 61.0 9.0 53.67949295043945 18.873388290405273 51.06974411010742 C 28.435861587524414 54.10823059082031 35.51658248901367 61.69413375854492 38.13136291503906 71.75183868408203" stroke-width="0.0" fill="rgb(196, 176, 145)" opacity="0.9906563"/>
    <path d="M 22.0 93.0 C 19.32050895690918 103.0 12.0 110.32051086425781 2.0 113.0 C -8.0 110.32051086425781 -15.320508003234863 103.0 -18.0 93.0 C -15.320508003234863 83.0 -8.0 75.67948913574219 2.0 73.0 C 12.0 75.67948913574219 19.32050895690918 83.0 22.0 93.0" stroke-width="0.0" fill="rgb(230, 200, 167)" opacity="0.99505705"/>
    <path d="M 251.0 169.0 C 248.3205108642578 179.0 241.0 186.3205108642578 231.0 189.0 C 221.0 186.3205108642578 213.6794891357422 179.0 211.0 169.0 C 213.6794891357422 159.0 221.0 151.6794891357422 231.0 149.0 C 241.0 151.6794891357422 248.3205108642578 159.0 251.0 169.0" stroke-width="0.0" fill="rgb(206, 181, 149)" opacity="1.0"/>
    <path d="M 40.840667724609375 131.11990356445312 C 38.32050704956055 141.0 31.0 148.3205108642578 21.0 151.0 C 11.0 148.3205108642578 3.6794919967651367 141.0 1.0 131.0 C 3.6794919967651367 121.0 11.0 113.67948913574219 20.991514205932617 111.00448608398438 C 30.91761016845703 113.72527313232422 38.10103988647461 121.13689422607422 40.840667724609375 131.11990356445312" stroke-width="0.0" fill="rgb(221, 195, 166)" opacity="0.99277437"/>
    <path d="M 255.0 180.0 C 252.3205108642578 190.0 245.0 197.3205108642578 234.99549865722656 199.9990234375 C 224.9589080810547 197.3470458984375 217.60589599609375 190.05526733398438 214.95703125 180.03297424316406 C 217.6794891357422 170.0 225.0 162.6794891357422 235.0 160.0 C 245.0 162.6794891357422 252.3205108642578 170.0 255.0 180.0" stroke-width="0.0" fill="rgb(197, 171, 139)" opacity="1.0"/>
    <path d="M 245.0 232.0 C 242.3205108642578 242.0 235.0 249.3205108642578 225.0 252.0 C 215.0 249.3205108642578 207.6794891357422 242.0 205.0 232.0 C 207.6794891357422 222.0 215.0 214.6794891357422 225.0 212.0 C 235.0 214.6794891357422 242.3205108642578 222.0 245.0 232.0" stroke-width="0.0" fill="rgb(195, 171, 141)" opacity="1.0"/>
    <path d="M 266.0 157.0 C 263.32049560546875 167.0 256.0 174.3205108642578 246.0 177.0 C 236.0 174.3205108642578 228.6794891357422 167.0 226.0 157.0 C 228.6794891357422 147.0 236.0 139.6794891357422 246.0 137.0 C 256.0 139.6794891357422 263.32049560546875 147.0 266.0 157.0" stroke-width="0.0" fill="rgb(203, 181, 151)" opacity="1.0"/>
    <path d="M 148.0 0.0 C 145.3205108642578 10.0 138.0 17.32050895690918 128.0 20.0 C 118.0 17.32050895690918 110.67948913574219 10.0 108.0 2.4492935992912173e-15 C 110.67948913574219 -10.0 118.0 -17.32050895690918 128.0 -20.0 C 138.0 -17.32050895690918 145.3205108642578 -10.0 148.0 0.0" stroke-width="0.0" fill="rgb(234, 207, 177)" opacity="1.0"/>
    <path d="M 47.0 8.0 C 44.32050704956055 18.0 37.0 25.32050895690918 27.0 28.0 C 17.0 25.32050895690918 9.679491996765137 18.0 7.0 8.0 C 9.679491996765137 -2.0 17.0 -9.320508003234863 27.0 -12.0 C 37.0 -9.320508003234863 44.32050704956055 -2.0 47.0 8.0" stroke-width="0.0" fill="rgb(230, 198, 166)" opacity="1.0"/>
    <path d="M 259.7584533691406 242.6728057861328 C 257.1275634765625 252.73272705078125 249.65045166015625 259.8701477050781 239.21652221679688 262.153564453125 C 229.0 259.32049560546875 221.6794891357422 252.0 219.0 242.0 C 221.6794891357422 232.0 229.0 224.6794891357422 239.0 222.0 C 249.0 224.6794891357422 256.32049560546875 232.0 259.7584533691406 242.6728057861328" stroke-width="0.0" fill="rgb(190, 168, 137)" opacity="0.99791634"/>
    <path d="M 21.994050979614258 90.99427032470703 C 19.304073333740234 100.98417663574219 11.984685897827148 108.3057632446289 1.9951969385147095 110.99537658691406 C -8.0 108.32051086425781 -15.320508003234863 101.0 -18.0 91.0 C -15.320508003234863 81.0 -8.0 73.67948913574219 2.0 71.0 C 12.0 73.67948913574219 19.32050895690918 81.0 21.994050979614258 90.99427032470703" stroke-width="0.0" fill="rgb(223, 193, 158)" opacity="0.99380744"/>
    <path d="M 38.10520553588867 197.55506896972656 C 35.48727035522461 207.06497192382812 28.015466690063477 214.32640075683594 18.000568389892578 217.00022888183594 C 8.0 214.3205108642578 0.6794919371604919 207.0 -2.0 197.0 C 0.6794919371604919 187.0 8.0 179.6794891357422 18.193408966064453 176.74700927734375 C 28.194873809814453 179.34915161132812 34.827938079833984 187.1531524658203 38.10520553588867 197.55506896972656" stroke-width="0.0" fill="rgb(218, 191, 156)" opacity="0.9900971"/>
    <path d="M 140.0 8.0 C 137.3205108642578 18.0 130.0 25.32050895690918 120.0 28.0 C 110.0 25.32050895690918 102.67948913574219 18.0 100.0 8.0 C 102.67948913574219 -2.0 110.0 -9.320508003234863 120.0 -12.0 C 130.0 -9.320508003234863 137.3205108642578 -2.0 140.0 8.0" stroke-width="0.0" fill="rgb(236, 208, 178)" opacity="1.0"/>
    <path d="M 152.0 7.000002384185791 C 149.32054138183594 17.000072479248047 142.00027465820312 24.321260452270508 132.00094604492188 27.00260353088379 C 122.0 24.32050895690918 114.67948913574219 17.0 112.0 7.0 C 114.67948913574219 -3.0 122.0 -10.320508003234863 132.0 -13.0 C 142.0 -10.320508003234863 149.3205108642578 -3.0 152.0 7.000002384185791" stroke-width="0.0" fill="rgb(233, 202, 171)" opacity="0.9937477"/>
    <path d="M 259.5774230957031 7.515201091766357 C 257.0440673828125 17.685483932495117 249.64874267578125 24.918315887451172 239.24798583984375 27.046144485473633 C 229.0 24.32050895690918 221.6794891357422 17.0 219.0 7.0 C 221.6794891357422 -3.0 229.0 -10.320508003234863 239.0 -13.0 C 249.0 -10.320508003234863 256.32049560546875 -3.0 259.5774230957031 7.515201091766357" stroke-width="0.0" fill="rgb(228, 203, 174)" opacity="0.9902106"/>
    <path d="M 23.0 214.0 C 20.32050895690918 224.0 13.0 231.3205108642578 3.0 234.0 C -7.0 231.3205108642578 -14.320508003234863 224.0 -17.0 214.0 C -14.320508003234863 204.0 -7.0 196.6794891357422 3.0 194.0 C 13.0 196.6794891357422 20.32050895690918 204.0 23.0 214.0" stroke-width="0.0" fill="rgb(211, 185, 149)" opacity="1.0"/>
    <path d="M 24.997526168823242 119.00337219238281 C 22.32050895690918 129.0 15.0 136.3205108642578 5.0 139.0 C -5.0 136.3205108642578 -12.320508003234863 129.0 -14.999994277954102 119.00001525878906 C -12.320380210876465 109.00031280517578 -4.999081611633301 101.6817626953125 4.9769287109375 99.05233764648438 C 14.972620964050293 101.72103881835938 22.306983947753906 109.0190658569336 24.997526168823242 119.00337219238281" stroke-width="0.0" fill="rgb(220, 190, 155)" opacity="0.9967441"/>
    <path d="M 44.00562286376953 87.06172943115234 C 41.33322525024414 97.01538848876953 34.01543426513672 104.33340454101562 24.03173828125 107.01507568359375 C 15.94124698638916 104.37720489501953 8.621561050415039 97.05914306640625 5.859744548797607 87.14994049072266 C 7.679491996765137 78.0 15.0 70.67948913574219 24.770063400268555 68.12620544433594 C 34.18851852416992 71.34697723388672 41.359188079833984 78.91526794433594 44.00562286376953 87.06172943115234" stroke-width="0.0" fill="rgb(14, 13, 20)" opacity="0.9900018"/>
    <path d="M 182.90802001953125 7.037106037139893 C 180.32052612304688 17.0000057220459 173.0 24.32050895690918 163.0 27.0 C 153.0 24.32050895690918 145.6794891357422 17.0 143.0 7.0 C 145.6794891357422 -3.0 153.0 -10.320508003234863 162.99989318847656 -12.999957084655762 C 172.9967041015625 -10.319279670715332 180.28961181640625 -2.988257884979248 182.90802001953125 7.037106037139893" stroke-width="0.0" fill="rgb(231, 202, 172)" opacity="1.0"/>
    <path d="M 170.0082244873047 16.014339447021484 C 167.39341735839844 26.126672744750977 160.22607421875 33.691322326660156 149.90933227539062 36.72043991088867 C 139.56248474121094 33.83552169799805 132.3101806640625 26.39020538330078 129.8590545654297 16.176589965820312 C 132.72515869140625 6.032496452331543 140.0242462158203 -1.30256187915802 150.00448608398438 -3.997051954269409 C 160.0 -1.3205081224441528 167.3205108642578 6.0 170.0082244873047 16.014339447021484" stroke-width="0.0" fill="rgb(241, 211, 181)" opacity="1.0"/>
    <path d="M 267.0 103.0 C 264.32049560546875 113.0 257.0 120.32051086425781 247.0 123.0 C 237.0 120.32051086425781 229.6794891357422 113.0 227.0 103.0 C 229.6794891357422 93.0 237.0 85.67948913574219 247.0 83.0 C 257.0 85.67948913574219 264.32049560546875 93.0 267.0 103.0" stroke-width="0.0" fill="rgb(211, 187, 157)" opacity="1.0"/>
    <path d="M 35.00499725341797 23.013439178466797 C 32.453678131103516 33.295127868652344 25.619253158569336 41.138160705566406 15.755317687988281 43.958248138427734 C 4.128130912780762 41.212825775146484 -3.157418727874756 33.854286193847656 -5.59115743637085 23.609182357788086 C -2.3203864097595215 13.00009536743164 5.000077247619629 5.679553031921387 15.000016212463379 3.0000128746032715 C 25.0 5.679491996765137 32.32050704956055 13.0 35.00499725341797 23.013439178466797" stroke-width="0.0" fill="rgb(216, 190, 156)" opacity="1.0"/>
    <path d="M 185.8970947265625 14.862074851989746 C 182.90335083007812 24.472869873046875 175.35220336914062 31.558198928833008 165.3182373046875 34.25691604614258 C 156.29519653320312 32.04920196533203 148.98768615722656 24.6951961517334 146.126220703125 14.868213653564453 C 148.67857360839844 4.999711513519287 155.9999542236328 -2.320521593093872 165.99990844726562 -4.9999470710754395 C 175.99935913085938 -2.320115327835083 183.3185577392578 5.001094341278076 185.8970947265625 14.862074851989746" stroke-width="0.0" fill="rgb(232, 205, 172)" opacity="0.99040943"/>
    <path d="M 24.06758689880371 226.63755798339844 C 21.786470413208008 235.71763610839844 14.922735214233398 243.2930450439453 4.998138427734375 245.9993896484375 C -5.0 243.3205108642578 -12.320508003234863 236.0 -15.0 226.0 C -12.320508003234863 216.0 -5.0 208.6794891357422 4.9940338134765625 206.00238037109375 C 14.861586570739746 208.73699951171875 21.67985725402832 216.39012145996094 24.06758689880371 226.63755798339844" stroke-width="0.0" fill="rgb(206, 179, 144)" opacity="0.99014676"/>
    <path d="M 42.008140563964844 79.9696044921875 C 39.67513656616211 88.89724731445312 33.377254486083984 96.76896667480469 23.276567459106445 99.37689971923828 C 12.999247550964355 96.32267761230469 5.679434776306152 89.00016784667969 2.9999985694885254 79.00000762939453 C 5.679491996765137 69.0 13.0 61.67949295043945 22.354032516479492 59.54298400878906 C 32.06593704223633 62.57515335083008 39.34144973754883 69.96186065673828 42.008140563964844 79.9696044921875" stroke-width="0.0" fill="rgb(15, 13, 24)" opacity="0.9900147"/>
    <path d="M 255.81927490234375 251.64376831054688 C 252.96449279785156 261.430908203125 245.2176513671875 268.4279479980469 235.01544189453125 271.00689697265625 C 225.0 268.32049560546875 217.6794891357422 261.0 215.0 251.0 C 217.6794891357422 241.0 225.0 233.6794891357422 235.0 231.0 C 245.00003051757812 233.67947387695312 252.32077026367188 240.99990844726562 255.81927490234375 251.64376831054688" stroke-width="0.0" fill="rgb(190, 168, 136)" opacity="1.0"/>
    <path d="M 250.0 114.0 C 247.3205108642578 124.0 240.0 131.3205108642578 230.06460571289062 133.97216796875 C 220.600830078125 130.94229125976562 213.60787963867188 123.1674575805664 210.98545837402344 113.05370330810547 C 212.8563232421875 104.05609130859375 220.00173950195312 96.67996978759766 230.0 94.0 C 240.0 96.67948913574219 247.3205108642578 104.0 250.0 114.0" stroke-width="0.0" fill="rgb(11, 11, 16)" opacity="0.9900883"/>
    <path d="M 132.0 20.0 C 129.3205108642578 30.0 122.0 37.32050704956055 112.0 40.0 C 102.0 37.32050704956055 94.67948913574219 30.0 92.0 20.0 C 94.67948913574219 10.0 102.0 2.6794919967651367 112.0 0.0 C 122.0 2.6794919967651367 129.3205108642578 10.0 132.0 20.0" stroke-width="0.0" fill="rgb(231, 202, 172)" opacity="1.0"/>
    <path d="M 36.21934127807617 202.7341766357422 C 34.41049575805664 212.02796936035156 27.002155303955078 219.32115173339844 17.000019073486328 222.0 C 7.0 219.3205108642578 -0.32050806283950806 212.0 -3.0 202.0 C -0.32050806283950806 192.0 7.0 184.6794891357422 16.75872039794922 182.2467803955078 C 26.47170639038086 185.17767333984375 33.6317024230957 192.59512329101562 36.21934127807617 202.7341766357422" stroke-width="0.0" fill="rgb(209, 179, 143)" opacity="0.9908925"/>
    <path d="M 273.0 219.00001525878906 C 270.32073974609375 229.0006561279297 263.0023498535156 236.3267822265625 253.00897216796875 239.0060577392578 C 243.00013732910156 236.3200225830078 235.6794891357422 228.99998474121094 233.0 219.0 C 235.6794891357422 209.0 243.0 201.6794891357422 253.0 199.0 C 263.0 201.6794891357422 270.32049560546875 209.0 273.0 219.00001525878906" stroke-width="0.0" fill="rgb(195, 172, 141)" opacity="0.99883485"/>
    <path d="M 272.0 156.0 C 269.32049560546875 166.0 262.0 173.3205108642578 252.0 176.0 C 242.0 173.3205108642578 234.6794891357422 166.0 232.0 156.0 C 234.6794891357422 146.0 242.0 138.6794891357422 252.0 136.0 C 262.0 138.6794891357422 269.32049560546875 146.0 272.0 156.0" stroke-width="0.0" fill="rgb(207, 185, 157)" opacity="1.0"/>
    <path d="M 254.03903198242188 243.9965362548828 C 251.3256378173828 254.0019989013672 244.00050354003906 261.3204040527344 233.9998779296875 263.9998474121094 C 224.0 261.32049560546875 216.6794891357422 254.0 214.0 244.0 C 216.6794891357422 234.0 224.0 226.6794891357422 234.00009155273438 223.9999542236328 C 244.00115966796875 226.67893981933594 251.3276824951172 233.99696350097656 254.03903198242188 243.9965362548828" stroke-width="0.0" fill="rgb(189, 167, 139)" opacity="0.9996161"/>
    <path d="M 123.0 16.0 C 120.32051086425781 26.0 113.0 33.32050704956055 103.0 36.0 C 93.0 33.32050704956055 85.67948913574219 26.0 83.0 16.0 C 85.67948913574219 6.0 93.0 -1.3205081224441528 103.0 -4.0 C 113.0 -1.3205081224441528 120.32051086425781 6.0 123.0 16.0" stroke-width="0.0" fill="rgb(230, 198, 167)" opacity="1.0"/>
    <path d="M 251.0 113.0 C 248.3205108642578 123.0 241.0 130.3205108642578 231.0001983642578 132.99989318847656 C 221.00267028808594 130.3192138671875 213.69094848632812 122.994384765625 211.0165252685547 112.99188995361328 C 213.6794891357422 103.0 221.0 95.67948913574219 231.0 93.0 C 241.0 95.67948913574219 248.3205108642578 103.0 251.0 113.0" stroke-width="0.0" fill="rgb(9, 9, 13)" opacity="1.0"/>
    <path d="M 182.21261596679688 3.9372270107269287 C 179.3223114013672 14.001493453979492 171.99868774414062 21.3122501373291 161.9781036376953 23.934032440185547 C 151.99114990234375 21.32578468322754 144.6473846435547 14.016705513000488 141.94140625 4.02497673034668 C 144.68167114257812 -5.999042987823486 152.00038146972656 -13.320357322692871 162.0001678466797 -16.000064849853516 C 172.00100708007812 -13.321228981018066 179.30751037597656 -5.997299671173096 182.21261596679688 3.9372270107269287" stroke-width="0.0" fill="rgb(233, 203, 171)" opacity="0.9930598"/>
    <path d="M 198.51904296875 242.49179077148438 C 195.3205108642578 253.0 188.0 260.32049560546875 178.04090881347656 263.0267639160156 C 168.5376739501953 259.9900207519531 161.496826171875 252.30038452148438 158.85223388671875 242.13323974609375 C 159.72006225585938 232.03111267089844 167.023193359375 224.6954803466797 177.0365753173828 222.00865173339844 C 188.80422973632812 224.79074096679688 196.0673065185547 232.265380859375 198.51904296875 242.49179077148438" stroke-width="0.0" fill="rgb(204, 178, 147)" opacity="1.0"/>
    <path d="M 233.99871826171875 234.9990997314453 C 231.31874084472656 244.99916076660156 223.99961853027344 252.32034301757812 213.99996948242188 254.99998474121094 C 204.0 252.3205108642578 196.6794891357422 245.0 194.0 235.0 C 196.6794891357422 225.0 204.0 217.6794891357422 214.0 215.0 C 224.0 217.6794891357422 231.3205108642578 225.0 233.99871826171875 234.9990997314453" stroke-width="0.0" fill="rgb(194, 172, 141)" opacity="0.9996851"/>
    <path d="M 50.10742950439453 28.123506546020508 C 47.367942810058594 38.045536041259766 40.03759765625 45.3474006652832 30.040761947631836 48.01581573486328 C 20.05834197998047 47.26505661010742 12.754716873168945 39.93592834472656 10.249853134155273 29.779430389404297 C 13.679491996765137 19.0 21.0 11.679491996765137 31.0 9.0 C 41.0 11.679491996765137 48.32050704956055 19.0 50.10742950439453 28.123506546020508" stroke-width="0.0" fill="rgb(112, 87, 66)" opacity="0.9900031"/>
    <path d="M 77.95394897460938 21.900989532470703 C 74.95726013183594 31.51192855834961 67.41617584228516 38.64755630493164 57.24977111816406 42.858062744140625 C 47.06904983520508 40.23816680908203 39.71900177001953 32.94544982910156 37.03849411010742 22.93149185180664 C 40.67949295043945 12.0 48.0 4.679491996765137 58.0 2.0 C 68.0 4.679491996765137 75.32051086425781 12.0 77.95394897460938 21.900989532470703" stroke-width="0.0" fill="rgb(231, 203, 174)" opacity="0.99006647"/>
    <path d="M 266.0 177.0 C 263.32049560546875 187.0 256.0 194.3205108642578 245.9973602294922 197.00283813476562 C 235.99298095703125 194.3279571533203 228.67311096191406 187.00669860839844 225.9980010986328 177.00205993652344 C 228.6794891357422 167.0 236.0 159.6794891357422 246.0 157.0 C 256.0 159.6794891357422 263.32049560546875 167.0 266.0 177.0" stroke-width="0.0" fill="rgb(208, 186, 155)" opacity="0.99994886"/>
    <path d="M 118.0 22.0 C 115.32051086425781 32.0 108.0 39.32050704956055 98.0 42.0 C 88.0 39.32050704956055 80.67948913574219 32.0 78.0 22.0 C 80.67948913574219 12.0 88.0 4.679491996765137 98.0 2.0 C 108.0 4.679491996765137 115.32051086425781 12.0 118.0 22.0" stroke-width="0.0" fill="rgb(235, 203, 174)" opacity="1.0"/>
    <path d="M 273.0 138.0 C 270.32049560546875 148.0 263.0 155.3205108642578 253.0 158.0 C 243.0 155.3205108642578 235.6794891357422 148.0 233.0 138.0 C 235.6794891357422 128.0 243.0 120.67948913574219 253.0 118.0 C 263.0 120.67948913574219 270.32049560546875 128.0 273.0 138.0" stroke-width="0.0" fill="rgb(210, 187, 157)" opacity="1.0"/>
    <path d="M 248.07501220703125 15.053401947021484 C 245.40924072265625 24.969924926757812 237.8033447265625 31.929561614990234 227.76718139648438 35.506568908691406 C 217.6747589111328 32.6260986328125 210.4073486328125 25.31325340270996 207.92587280273438 15.093118667602539 C 210.6794891357422 5.0 218.0 -2.3205080032348633 228.0 -5.000000953674316 C 238.0000762939453 -2.320533514022827 245.32144165039062 4.999678611755371 248.07501220703125 15.053401947021484" stroke-width="0.0" fill="rgb(226, 201, 174)" opacity="0.9900409"/>
    <path d="M 258.0 165.0 C 255.3205108642578 175.0 248.0 182.3205108642578 238.0 185.0 C 228.0 182.3205108642578 220.6794891357422 175.0 218.0 165.0 C 220.6794891357422 155.0 228.0 147.6794891357422 238.0 145.0 C 248.0 147.6794891357422 255.3205108642578 155.0 258.0 165.0" stroke-width="0.0" fill="rgb(209, 186, 157)" opacity="1.0"/>
    <path d="M 232.0 155.0 C 229.3205108642578 165.0 222.0 172.3205108642578 212.25352478027344 174.8203887939453 C 202.7208709716797 171.707275390625 195.56988525390625 164.1824951171875 192.97169494628906 155.54994201660156 C 195.56582641601562 145.78289794921875 202.6174774169922 138.1324005126953 212.12501525878906 135.0725860595703 C 222.0 137.6794891357422 229.3205108642578 145.0 232.0 155.0" stroke-width="0.0" fill="rgb(63, 173, 210)" opacity="0.99001485"/>
    <path d="M 247.0 218.00001525878906 C 244.32052612304688 228.0 236.99989318847656 235.32015991210938 226.9997100830078 237.99937438964844 C 217.0 235.3205108642578 209.6794891357422 228.0 207.01788330078125 218.02108764648438 C 209.75137329101562 208.08912658691406 217.1154327392578 200.8385009765625 227.0927276611328 198.245849609375 C 236.99696350097656 200.68862915039062 244.3203125 208.0005645751953 247.0 218.00001525878906" stroke-width="0.0" fill="rgb(192, 170, 140)" opacity="0.9931647"/>
    <path d="M 265.0001525878906 127.00021362304688 C 262.3213195800781 137.0011444091797 255.0015106201172 144.32260131835938 245.0009307861328 147.0012969970703 C 235.0 144.3205108642578 227.6794891357422 137.0 225.0 127.0 C 227.6794891357422 117.0 235.0 109.67948913574219 245.0 107.0 C 255.0 109.67948913574219 262.32049560546875 117.0 265.0001525878906 127.00021362304688" stroke-width="0.0" fill="rgb(210, 188, 159)" opacity="1.0"/>
    <path d="M 262.9980773925781 220.99745178222656 C 260.309814453125 230.9838104248047 252.9730987548828 238.2733917236328 242.97618103027344 240.90554809570312 C 233.01133728027344 238.30526733398438 225.68731689453125 230.99082946777344 222.9843292236328 220.9830322265625 C 225.64195251464844 210.96646118164062 232.9688720703125 203.6500701904297 242.99032592773438 200.990478515625 C 253.0 203.6794891357422 260.32049560546875 211.0 262.9980773925781 220.99745178222656" stroke-width="0.0" fill="rgb(195, 173, 143)" opacity="0.99169755"/>
    <path d="M 128.0044708251953 26.00838851928711 C 125.36392211914062 36.075233459472656 118.1148910522461 43.49176025390625 108.65121459960938 45.449729919433594 C 98.35225677490234 42.72898483276367 90.7353515625 35.8659782409668 88.00233459472656 25.99413299560547 C 90.67948913574219 16.0 98.0 8.679491996765137 108.0 6.0 C 118.0 8.679491996765137 125.32051086425781 16.0 128.0044708251953 26.00838851928711" stroke-width="0.0" fill="rgb(233, 203, 173)" opacity="0.9902001"/>
    <path d="M 261.0 104.0 C 258.32049560546875 114.0 251.0 121.32051086425781 241.0 124.0 C 231.0 121.32051086425781 223.6794891357422 114.0 221.0 104.0 C 223.6794891357422 94.0 231.0 86.67948913574219 241.0 84.0 C 251.0 86.67948913574219 258.32049560546875 94.0 261.0 104.0" stroke-width="0.0" fill="rgb(215, 189, 158)" opacity="1.0"/>
    <path d="M 233.00376892089844 226.01515197753906 C 230.33447265625 236.00669860839844 223.00299072265625 243.3217315673828 212.98683166503906 246.00514221191406 C 202.72921752929688 243.443359375 194.88771057128906 236.58224487304688 192.03048706054688 225.4779510498047 C 194.8202667236328 215.24542236328125 202.38818359375 208.20741271972656 212.8068084716797 205.68145751953125 C 223.0147705078125 208.65025329589844 230.31808471679688 215.9945068359375 233.00376892089844 226.01515197753906" stroke-width="0.0" fill="rgb(192, 168, 136)" opacity="1.0"/>
    <path d="M 118.99722290039062 25.99496078491211 C 116.28963470458984 35.93758010864258 108.86314392089844 43.05923080444336 99.32659912109375 45.96589279174805 C 89.05496978759766 42.88451385498047 81.26560974121094 36.27406692504883 78.71087646484375 26.241846084594727 C 81.67948913574219 16.0 89.0 8.679491996765137 99.0 6.0 C 109.0 8.679491996765137 116.32051086425781 16.0 118.99722290039062 25.99496078491211" stroke-width="0.0" fill="rgb(232, 202, 171)" opacity="0.9900718"/>
    <path d="M 135.70681762695312 24.525131225585938 C 132.86654663085938 33.673580169677734 124.30533599853516 40.49046325683594 114.23651123046875 44.53813552856445 C 104.72718811035156 41.671722412109375 97.39254760742188 34.252506256103516 94.7667236328125 24.15949058532715 C 97.67948913574219 14.0 105.0 6.679491996765137 115.00102233886719 3.9993793964385986 C 125.00886535644531 6.674376010894775 132.35166931152344 13.983518600463867 135.70681762695312 24.525131225585938" stroke-width="0.0" fill="rgb(234, 205, 175)" opacity="0.9900691"/>
    <path d="M 33.07023620605469 254.73831176757812 C 30.99187469482422 263.8611145019531 23.971717834472656 271.3109130859375 13.999399185180664 273.9997863769531 C 4.0 271.32049560546875 -3.3205080032348633 264.0 -6.0 254.0 C -3.3205080032348633 244.0 4.0 236.6794891357422 13.62179946899414 234.43667602539062 C 23.379976272583008 237.29689025878906 30.543701171875 244.68359375 33.07023620605469 254.73831176757812" stroke-width="0.0" fill="rgb(200, 174, 140)" opacity="0.9900328"/>
    <path d="M 42.15956497192383 142.237548828125 C 39.51071548461914 152.29791259765625 32.400543212890625 159.760986328125 22.695310592651367 162.65145874023438 C 13.0 160.3205108642578 5.679491996765137 153.0 3.0 143.0 C 5.679491996765137 133.0 13.0 125.67948913574219 23.000110626220703 122.99987030029297 C 32.986305236816406 125.68299865722656 40.17475509643555 133.05718994140625 42.15956497192383 142.237548828125" stroke-width="0.0" fill="rgb(222, 193, 161)" opacity="0.9900449"/>
    <path d="M 240.87689208984375 254.0321044921875 C 238.3164825439453 263.99871826171875 230.99981689453125 271.3204345703125 221.0 274.0 C 211.0 271.32049560546875 203.6794891357422 264.0 201.00003051757812 254.00006103515625 C 203.6798858642578 244.0008544921875 211.00250244140625 236.68572998046875 220.98760986328125 234.07357788085938 C 230.96311950683594 236.72085571289062 238.26272583007812 244.04171752929688 240.87689208984375 254.0321044921875" stroke-width="0.0" fill="rgb(196, 173, 140)" opacity="0.9916908"/>
    <path d="M 220.06703186035156 248.0044403076172 C 217.33575439453125 258.0066223144531 210.00265502929688 265.3218078613281 200.00021362304688 268.0001220703125 C 190.0 265.32049560546875 182.6794891357422 258.0 179.9024200439453 247.83807373046875 C 182.17425537109375 237.35333251953125 189.2360382080078 229.82614135742188 199.22509765625 227.13864135742188 C 210.00640869140625 230.67527770996094 217.33822631835938 237.98965454101562 220.06703186035156 248.0044403076172" stroke-width="0.0" fill="rgb(192, 168, 138)" opacity="1.0"/>
    <path d="M 33.0 0.0 C 30.32050895690918 10.0 23.0 17.32050895690918 12.999944686889648 20.000059127807617 C 2.9998512268066406 17.320667266845703 -4.32064151763916 10.000141143798828 -7.000039577484131 4.2229970858898014e-05 C -4.320508003234863 -10.0 3.0 -17.32050895690918 13.0 -20.0 C 23.0 -17.32050895690918 30.32050895690918 -10.0 33.0 0.0" stroke-width="0.0" fill="rgb(224, 195, 160)" opacity="0.99664253"/>
    <path d="M 55.999168395996094 3.9989724159240723 C 53.32040786743164 14.008728981018066 46.077980041503906 21.536808013916016 36.357505798339844 24.63195037841797 C 26.0 21.32050895690918 18.67949104309082 14.0 15.997448921203613 3.9993321895599365 C 18.67959213256836 -5.999871253967285 26.000106811523438 -13.320457458496094 36.00000762939453 -15.99999713897705 C 46.0 -13.320508003234863 53.32050704956055 -6.0 55.999168395996094 3.9989724159240723" stroke-width="0.0" fill="rgb(230, 197, 165)" opacity="1.0"/>
    <path d="M 238.0 137.0 C 235.3205108642578 147.0 228.0 154.3205108642578 218.0 157.0 C 208.0 154.3205108642578 200.6794891357422 147.0 198.0726776123047 137.07791137695312 C 200.79928588867188 126.83602905273438 207.43922424316406 118.89405059814453 217.23497009277344 116.11737060546875 C 228.0 119.67948913574219 235.3205108642578 127.0 238.0 137.0" stroke-width="0.0" fill="rgb(212, 188, 157)" opacity="1.0"/>
    <path d="M 38.14224624633789 123.650390625 C 36.15766906738281 132.9410858154297 28.990020751953125 140.31729125976562 18.999828338623047 142.99993896484375 C 9.0 140.3205108642578 1.6794918775558472 133.0 -1.0016194581985474 122.99622344970703 C 1.6407102346420288 112.9018783569336 8.67100715637207 105.09300994873047 18.320039749145508 102.07131958007812 C 28.75954246520996 106.09508514404297 35.594085693359375 113.46990966796875 38.14224624633789 123.650390625" stroke-width="0.0" fill="rgb(220, 193, 163)" opacity="0.9900421"/>
    <path d="M 269.0000305175781 201.00003051757812 C 266.32073974609375 211.00048828125 259.0012512207031 218.3234100341797 248.99887084960938 221.01756286621094 C 238.9991455078125 218.32150268554688 231.66346740722656 211.005126953125 228.93869018554688 201.0322723388672 C 231.6920166015625 191.00758361816406 239.0048828125 183.6827850341797 249.0007781982422 181.0005645751953 C 259.0 183.6794891357422 266.32049560546875 191.0 269.0000305175781 201.00003051757812" stroke-width="0.0" fill="rgb(198, 175, 142)" opacity="0.99255896"/>
    <path d="M 270.9997863769531 98.00045776367188 C 268.32049560546875 108.0 261.0 115.32051086425781 251.0 118.0 C 241.0 115.32051086425781 233.6794891357422 108.0 231.0 98.0 C 233.6794891357422 88.0 241.0 80.67948913574219 250.97280883789062 78.0576400756836 C 260.9838562011719 80.71414947509766 268.3172912597656 88.0069808959961 270.9997863769531 98.00045776367188" stroke-width="0.0" fill="rgb(211, 187, 155)" opacity="0.9996478"/>
    <path d="M 248.00656127929688 7.996242046356201 C 245.3171844482422 17.998178482055664 237.9993133544922 25.320999145507812 228.0004119873047 28.00258445739746 C 217.99977111816406 25.321012496948242 210.679443359375 18.000089645385742 208.0 8.000005722045898 C 210.6794891357422 -2.0 218.0 -9.320508003234863 228.0000762939453 -12.000045776367188 C 238.00082397460938 -9.320954322814941 245.32376098632812 -2.0016376972198486 248.00656127929688 7.996242046356201" stroke-width="0.0" fill="rgb(228, 203, 172)" opacity="0.9966501"/>
    <path d="M 233.00022888183594 139.99935913085938 C 230.3205108642578 150.0 223.0 157.3205108642578 212.40933227539062 160.57362365722656 C 202.16033935546875 158.14474487304688 194.80718994140625 150.85462951660156 193.7715301513672 140.88580322265625 C 196.54786682128906 130.81182861328125 203.77259826660156 123.45235443115234 213.63380432128906 120.27356719970703 C 223.0942840576172 122.45012664794922 230.32876586914062 129.97679138183594 233.00022888183594 139.99935913085938" stroke-width="0.0" fill="rgb(214, 189, 159)" opacity="0.9900513"/>
    <path d="M 24.136730194091797 232.3239288330078 C 21.61298179626465 242.49375915527344 14.721541404724121 250.17605590820312 4.978055000305176 252.99008178710938 C -5.0 250.3205108642578 -12.320508003234863 243.0 -14.999988555908203 233.00003051757812 C -12.320293426513672 223.00050354003906 -4.998657703399658 215.6826629638672 4.992249965667725 213.0139617919922 C 14.92605972290039 215.72634887695312 22.021085739135742 223.15667724609375 24.136730194091797 232.3239288330078" stroke-width="0.0" fill="rgb(204, 177, 142)" opacity="0.99015105"/>
    <path d="M 22.966655731201172 176.0062713623047 C 20.320186614990234 185.99990844726562 12.999994277954102 193.3205108642578 3.0 196.0 C -7.0 193.3205108642578 -14.320508003234863 186.0 -17.0 176.0 C -14.320508003234863 166.0 -7.0 158.6794891357422 2.999929904937744 156.00003051757812 C 12.99899959564209 158.67996215820312 20.314382553100586 166.0026092529297 22.966655731201172 176.0062713623047" stroke-width="0.0" fill="rgb(213, 183, 147)" opacity="0.9990674"/>
    <path d="M 106.0 1.0 C 103.32051086425781 11.0 96.0 18.32050895690918 86.0 21.0 C 76.0 18.32050895690918 68.67948913574219 11.0 66.0 1.0 C 68.67948913574219 -9.0 76.0 -16.32050895690918 86.0 -19.0 C 96.0 -16.32050895690918 103.32051086425781 -9.0 106.0 1.0" stroke-width="0.0" fill="rgb(233, 204, 171)" opacity="0.9996218"/>
    <path d="M 231.0833282470703 12.07696533203125 C 228.50762939453125 22.174617767333984 221.0562744140625 29.07412338256836 210.45831298828125 31.920930862426758 C 200.76473999023438 29.716651916503906 193.5987091064453 22.127038955688477 190.67214965820312 11.721290588378906 C 193.16259765625 1.5207265615463257 200.55328369140625 -5.730579376220703 210.83108520507812 -8.149229049682617 C 221.00071716308594 -5.3210859298706055 228.32156372070312 1.9991369247436523 231.0833282470703 12.07696533203125" stroke-width="0.0" fill="rgb(230, 202, 176)" opacity="0.99013233"/>
    <path d="M 259.9952087402344 130.9962615966797 C 257.3115234375 140.9928741455078 249.99415588378906 148.31581115722656 239.9709930419922 151.0261993408203 C 229.9081268310547 148.40354919433594 222.46316528320312 141.1324920654297 219.2898712158203 130.88641357421875 C 222.40744018554688 120.86942291259766 229.95159912109375 113.6583480834961 239.99728393554688 110.99880981445312 C 250.0 113.67948913574219 257.32049560546875 121.0 259.9952087402344 130.9962615966797" stroke-width="0.0" fill="rgb(203, 181, 152)" opacity="1.0"/>
    <path d="M 22.000154495239258 241.99978637695312 C 19.32050895690918 252.0 12.0 259.32049560546875 2.0 262.0 C -8.0 259.32049560546875 -15.320508003234863 252.0 -18.0 242.0 C -15.320509910583496 232.0 -8.000029563903809 224.6793975830078 2.0019567012786865 221.99407958984375 C 12.001558303833008 224.67691040039062 19.32132911682129 231.9989471435547 22.000154495239258 241.99978637695312" stroke-width="0.0" fill="rgb(203, 178, 143)" opacity="1.0"/>
    <path d="M 37.86125564575195 21.549236297607422 C 33.39315414428711 31.053604125976562 26.040542602539062 38.349430084228516 16.050668716430664 41.02726745605469 C 7.072965621948242 39.15724563598633 -0.31275588274002075 31.975069046020508 -2.994598627090454 22.00533103942871 C -0.30777597427368164 12.010910034179688 7.009797096252441 4.6884446144104 16.986770629882812 2.0355122089385986 C 26.979976654052734 4.705642223358154 34.29896926879883 12.018644332885742 37.86125564575195 21.549236297607422" stroke-width="0.0" fill="rgb(217, 191, 161)" opacity="0.9900071"/>
    <path d="M 274.0 185.0 C 271.32049560546875 195.00001525878906 264.0000915527344 202.32080078125 253.99783325195312 205.00938415527344 C 243.9955291748047 202.32574462890625 236.67437744140625 195.00445556640625 233.9971466064453 185.00210571289062 C 236.6794891357422 175.0 244.0 167.6794891357422 254.0 165.0 C 264.0 167.6794891357422 271.32049560546875 175.0 274.0 185.0" stroke-width="0.0" fill="rgb(198, 176, 143)" opacity="1.0"/>
    <path d="M 247.9957733154297 107.98909759521484 C 245.21694946289062 117.76498413085938 237.44972229003906 124.54734802246094 228.3336639404297 127.05607604980469 C 218.96554565429688 124.35173034667969 211.64639282226562 117.03543090820312 208.9924774169922 108.93444061279297 C 211.66151428222656 98.97582244873047 218.97145080566406 91.64974975585938 228.91856384277344 88.92672729492188 C 238.0 90.67948913574219 245.3205108642578 98.0 247.9957733154297 107.98909759521484" stroke-width="0.0" fill="rgb(12, 33, 55)" opacity="0.9900107"/>
    <path d="M 269.00006103515625 120.00009155273438 C 266.3210754394531 130.00111389160156 259.002197265625 137.3248291015625 248.96983337402344 140.0228729248047 C 238.76132202148438 137.46971130371094 231.17909240722656 130.35716247558594 228.48231506347656 120.3726806640625 C 231.6794891357422 110.0 239.0 102.67948913574219 249.0 100.0 C 259.0 102.67948913574219 266.32049560546875 110.0 269.00006103515625 120.00009155273438" stroke-width="0.0" fill="rgb(212, 188, 158)" opacity="1.0"/>
    <path d="M 130.8533477783203 16.885066986083984 C 128.05177307128906 26.730836868286133 120.70574188232422 33.97115707397461 110.99805450439453 36.44024658203125 C 101.25225830078125 33.995574951171875 93.86654663085938 26.790782928466797 91.05667114257812 16.926633834838867 C 93.66111755371094 6.985387325286865 100.9878158569336 -0.330819308757782 110.99365997314453 -2.99871826171875 C 120.99351501464844 -0.31289947032928467 128.313232421875 7.0063605308532715 130.8533477783203 16.885066986083984" stroke-width="0.0" fill="rgb(232, 201, 170)" opacity="0.99036324"/>
    <path d="M 205.98680114746094 253.9991912841797 C 203.3199920654297 263.9998474121094 195.99998474121094 271.32049560546875 186.00001525878906 274.0 C 176.00048828125 271.3203430175781 168.68975830078125 263.9967041015625 166.21798706054688 254.0303192138672 C 168.70977783203125 244.01084899902344 176.0025634765625 236.68043518066406 186.0000762939453 234.00003051757812 C 196.0 236.6794891357422 203.32025146484375 244.0000762939453 205.98680114746094 253.9991912841797" stroke-width="0.0" fill="rgb(200, 178, 146)" opacity="0.99608475"/>
    <path d="M 25.0 158.0 C 22.32050895690918 168.0 15.0 175.3205108642578 5.0 178.0 C -5.0 175.3205108642578 -12.320508003234863 168.0 -15.0 158.0 C -12.320508003234863 148.0 -5.0 140.6794891357422 5.0 138.0 C 15.0 140.6794891357422 22.32050895690918 148.0 25.0 158.0" stroke-width="0.0" fill="rgb(218, 190, 156)" opacity="1.0"/>
    <path d="M 42.131446838378906 135.675048828125 C 40.025596618652344 144.97311401367188 33.11930465698242 152.46954345703125 23.06964874267578 155.09263610839844 C 13.0 152.3205108642578 5.679491996765137 145.0 3.0 135.0 C 5.679477214813232 124.99994659423828 12.99929428100586 117.67706298828125 23.061748504638672 114.6735610961914 C 32.67438507080078 117.87714385986328 39.584739685058594 125.5451889038086 42.131446838378906 135.675048828125" stroke-width="0.0" fill="rgb(223, 195, 162)" opacity="0.9902232"/>
    <path d="M 263.0039367675781 174.0049591064453 C 260.3391418457031 184.02488708496094 253.03416442871094 191.37037658691406 242.99496459960938 194.08152770996094 C 232.90231323242188 191.4033966064453 225.52784729003906 184.11878967285156 222.90399169921875 174.07228088378906 C 225.6794891357422 164.0 233.0 156.6794891357422 243.0 154.0 C 253.0 156.6794891357422 260.32049560546875 164.0 263.0039367675781 174.0049591064453" stroke-width="0.0" fill="rgb(201, 178, 146)" opacity="0.9967146"/>
    <path d="M 261.9909362792969 104.9955062866211 C 259.29278564453125 114.96204376220703 251.94297790527344 122.2287826538086 241.90206909179688 124.90483093261719 C 231.98037719726562 122.36534118652344 224.67636108398438 115.0074691772461 221.99984741210938 105.00038146972656 C 224.6794891357422 95.0 232.0 87.67948913574219 241.99806213378906 85.00177764892578 C 251.99322509765625 87.68570709228516 259.31256103515625 95.00729370117188 261.9909362792969 104.9955062866211" stroke-width="0.0" fill="rgb(216, 192, 162)" opacity="0.99207264"/>
    <path d="M 36.309391021728516 203.18865966796875 C 33.43473434448242 213.15274047851562 26.183425903320312 220.5200653076172 16.44023895263672 223.42115783691406 C 7.008732795715332 221.29595947265625 -0.3254393935203552 213.99990844726562 -3.004178524017334 204.0028839111328 C -0.32050806283950806 194.0 7.0 186.6794891357422 17.20155143737793 183.78932189941406 C 27.456254959106445 186.24526977539062 34.91065216064453 193.49179077148438 36.309391021728516 203.18865966796875" stroke-width="0.0" fill="rgb(212, 186, 153)" opacity="0.9903921"/>
    <path d="M 100.0294418334961 17.082448959350586 C 97.54045867919922 27.2591495513916 90.36442565917969 34.8388557434082 80.55078887939453 37.880950927734375 C 69.59422302246094 34.827003479003906 62.46308135986328 27.31344223022461 59.967384338378906 17.05389404296875 C 62.67949295043945 7.0 70.0 -0.32050806283950806 80.00000762939453 -3.000398635864258 C 89.99663543701172 -0.31917136907577515 97.3081283569336 7.006600379943848 100.0294418334961 17.082448959350586" stroke-width="0.0" fill="rgb(237, 208, 176)" opacity="0.99010915"/>
    <path d="M 258.5378112792969 85.5259017944336 C 255.1050262451172 95.81732940673828 247.83642578125 103.16816711425781 237.94500732421875 105.9473876953125 C 228.06605529785156 103.3025894165039 221.1553192138672 95.75820922851562 218.81484985351562 86.3291244506836 C 221.44827270507812 76.6614761352539 228.56198120117188 69.17365264892578 237.40716552734375 65.17070007324219 C 247.80459594726562 69.14811706542969 255.8809356689453 75.71229553222656 258.5378112792969 85.5259017944336" stroke-width="0.0" fill="rgb(231, 209, 182)" opacity="0.9900344"/>
    <path d="M 257.9961853027344 167.9943084716797 C 255.29931640625 177.97377014160156 247.96417236328125 185.2664031982422 237.9668731689453 187.86378479003906 C 227.9715576171875 185.34710693359375 220.65774536132812 178.02664184570312 217.9952392578125 168.0060577392578 C 220.6794891357422 158.0 228.0 150.6794891357422 238.0 148.0 C 248.0 150.6794891357422 255.3205108642578 158.0 257.9961853027344 167.9943084716797" stroke-width="0.0" fill="rgb(206, 182, 152)" opacity="0.99288595"/>
    <path d="M 26.317941665649414 186.26190185546875 C 24.04918670654297 195.81846618652344 16.877490997314453 203.2362823486328 6.980273246765137 205.96852111816406 C -2.998602867126465 203.3175506591797 -10.320191383361816 195.99935913085938 -12.99997329711914 185.9999542236328 C -10.320508003234863 176.0 -3.0 168.6794891357422 6.985879421234131 166.008544921875 C 16.87434959411621 168.75111389160156 23.930124282836914 176.2337646484375 26.317941665649414 186.26190185546875" stroke-width="0.0" fill="rgb(211, 182, 148)" opacity="0.9908477"/>
    <path d="M 28.207523345947266 59.39501953125 C 25.32050895690918 70.0 18.0 77.32051086425781 8.0 80.0 C -2.0 77.32051086425781 -9.320508003234863 70.0 -12.008684158325195 59.9852180480957 C -9.388697624206543 49.891815185546875 -2.144214391708374 42.496315002441406 8.884805679321289 39.094688415527344 C 18.932052612304688 41.732261657714844 26.203031539916992 49.0861930847168 28.207523345947266 59.39501953125" stroke-width="0.0" fill="rgb(220, 191, 165)" opacity="1.0"/>
    <path d="M 29.0 73.0 C 26.32050895690918 83.0 19.0 90.32051086425781 9.0 93.0 C -1.0 90.32051086425781 -8.320508003234863 83.0 -10.999821662902832 73.00031280517578 C -8.31873607635498 63.00338363647461 -0.9922976493835449 55.69633102416992 9.025275230407715 53.05677032470703 C 19.000146865844727 55.67900848388672 26.320512771606445 62.99998474121094 29.0 73.0" stroke-width="0.0" fill="rgb(219, 190, 158)" opacity="0.9977657"/>
    <path d="M 261.9925842285156 157.00473022460938 C 259.3164367675781 166.9964599609375 251.99801635742188 174.3219757080078 242.00180053710938 177.02951049804688 C 232.00375366210938 174.31968688964844 224.68296813964844 166.99562072753906 222.00509643554688 157.00390625 C 224.6951446533203 147.01788330078125 232.02142333984375 139.70718383789062 241.9907684326172 137.0796661376953 C 251.9731903076172 139.71612548828125 259.301025390625 147.02182006835938 261.9925842285156 157.00473022460938" stroke-width="0.0" fill="rgb(205, 182, 154)" opacity="0.99163234"/>
    <path d="M 28.644628524780273 248.87725830078125 C 25.53812599182129 259.1094055175781 18.048053741455078 266.343994140625 8.003700256347656 269.0018310546875 C -2.0 266.32049560546875 -9.320508003234863 259.0 -12.000020980834961 248.9999542236328 C -9.320731163024902 238.99957275390625 -2.000894069671631 231.67764282226562 8.04355525970459 228.9577178955078 C 18.194625854492188 231.52915954589844 25.70081329345703 238.73089599609375 28.644628524780273 248.87725830078125" stroke-width="0.0" fill="rgb(203, 178, 145)" opacity="1.0"/>
    <path d="M 38.98540496826172 70.93826293945312 C 36.28021240234375 80.91837310791016 28.837528228759766 88.0416488647461 18.30021095275879 90.18193054199219 C 8.0 87.32051086425781 0.6794919371604919 80.0 -1.8909010887145996 70.07856750488281 C 0.8509033918380737 60.169193267822266 8.245077133178711 53.070430755615234 17.421653747558594 50.88875198364258 C 28.027992248535156 53.338924407958984 36.13856506347656 59.347816467285156 38.98540496826172 70.93826293945312" stroke-width="0.0" fill="rgb(227, 203, 171)" opacity="1.0"/>
    <path d="M 238.0285186767578 160.67474365234375 C 235.42706298828125 169.17733764648438 228.2706298828125 176.69325256347656 218.73004150390625 179.8011932373047 C 209.00103759765625 177.32022094726562 201.7506866455078 169.9788055419922 199.95339965820312 160.9044189453125 C 202.6309051513672 150.94216918945312 209.9405517578125 143.62680053710938 219.71421813964844 140.96969604492188 C 228.08441162109375 143.60662841796875 235.38429260253906 150.91937255859375 238.0285186767578 160.67474365234375" stroke-width="0.0" fill="rgb(53, 125, 153)" opacity="0.99000484"/>
    <path d="M 84.98051452636719 15.009180068969727 C 82.36283874511719 25.077112197875977 75.1393051147461 32.56076431274414 64.91417694091797 35.59809494018555 C 54.78834915161133 32.6472282409668 47.614070892333984 25.128496170043945 45.068199157714844 15.02126693725586 C 47.71079635620117 5.025661468505859 55.02214813232422 -2.3011410236358643 65.0039291381836 -4.993244647979736 C 74.9934310913086 -2.3146233558654785 82.31023406982422 5.007850646972656 84.98051452636719 15.009180068969727" stroke-width="0.0" fill="rgb(232, 204, 174)" opacity="0.9927445"/>
    <path d="M 28.274715423583984 155.00006103515625 C 25.981826782226562 164.80630493164062 18.903718948364258 172.27723693847656 8.991720199584961 175.04708862304688 C -1.0069204568862915 172.33396911621094 -8.32254409790039 165.00360107421875 -11.000240325927734 155.00039672851562 C -8.320508003234863 145.0 -1.0 137.6794891357422 8.991606712341309 135.00437927246094 C 18.90623664855957 137.72845458984375 25.98335838317871 145.18978881835938 28.274715423583984 155.00006103515625" stroke-width="0.0" fill="rgb(214, 187, 152)" opacity="0.9910355"/>
    <path d="M 27.904001235961914 126.80802917480469 C 25.243553161621094 136.9659423828125 17.986736297607422 144.314208984375 7.999021053314209 146.99948120117188 C -2.0 144.3205108642578 -9.320508003234863 137.0 -12.000020980834961 126.99994659423828 C -9.320978164672852 116.99889373779297 -2.002943754196167 109.67259216308594 7.996170997619629 106.97965240478516 C 18.080902099609375 109.63809204101562 25.533926010131836 116.86566925048828 27.904001235961914 126.80802917480469" stroke-width="0.0" fill="rgb(218, 189, 153)" opacity="1.0"/>
    <path d="M 233.01467895507812 170.278564453125 C 230.3753204345703 180.1581573486328 224.84793090820312 189.27345275878906 214.9801025390625 190.0564727783203 C 204.97994995117188 187.33729553222656 197.66409301757812 180.01943969726562 194.99302673339844 170.14993286132812 C 197.65895080566406 161.97215270996094 204.96929931640625 154.6524658203125 214.7853240966797 151.98062133789062 C 223.05279541015625 154.6389923095703 230.36862182617188 161.94381713867188 233.01467895507812 170.278564453125" stroke-width="0.0" fill="rgb(7, 29, 54)" opacity="0.9900011"/>
    <path d="M 36.99022674560547 80.97062683105469 C 34.30363082885742 90.97282409667969 26.95969009399414 98.26649475097656 16.406326293945312 100.97807312011719 C 5.226386547088623 98.21332550048828 -1.6614279747009277 90.54701232910156 -4.041947364807129 80.0479507446289 C -1.3644331693649292 69.95266723632812 5.944142818450928 62.60674285888672 16.399690628051758 59.38975524902344 C 26.415748596191406 62.171714782714844 34.11239242553711 69.40554809570312 36.99022674560547 80.97062683105469" stroke-width="0.0" fill="rgb(225, 197, 167)" opacity="0.9900156"/>
    <path d="M 26.950143814086914 151.12403869628906 C 24.360933303833008 161.0204315185547 17.011091232299805 168.32858276367188 7.002485275268555 171.0017547607422 C -2.999659538269043 168.32003784179688 -10.320363998413086 160.999755859375 -12.999972343444824 150.99998474121094 C -10.320555686950684 140.99969482421875 -3.0022754669189453 133.6722869873047 6.976315021514893 130.96800231933594 C 16.952619552612305 133.71360778808594 24.188350677490234 141.07699584960938 26.950143814086914 151.12403869628906" stroke-width="0.0" fill="rgb(216, 187, 153)" opacity="0.99425924"/>
    <path d="M 249.01174926757812 106.35243225097656 C 246.3499298095703 116.03704071044922 239.037353515625 123.35067749023438 229.05093383789062 126.0321044921875 C 219.20643615722656 125.1124267578125 211.82757568359375 117.81483459472656 209.06944274902344 107.6385269165039 C 213.3370361328125 97.88703918457031 220.9449005126953 90.65091705322266 230.972412109375 87.9782943725586 C 239.07090759277344 90.51947021484375 246.3536376953125 97.95233917236328 249.01174926757812 106.35243225097656" stroke-width="0.0" fill="rgb(16, 45, 73)" opacity="0.99000216"/>
    <path d="M 207.02427673339844 248.9480438232422 C 204.3218231201172 259.0006408691406 197.0002899169922 266.3206481933594 187.0043487548828 268.9978332519531 C 177.05421447753906 266.2935791015625 169.9066619873047 258.88226318359375 167.6501922607422 249.150146484375 C 170.01483154296875 239.172607421875 176.97305297851562 231.43612670898438 187.7316131591797 228.1107177734375 C 197.6571807861328 230.8738250732422 204.59970092773438 238.54444885253906 207.02427673339844 248.9480438232422" stroke-width="0.0" fill="rgb(198, 174, 142)" opacity="0.9920169"/>
  </g>
</svg>
