<?xml version="1.0" ?>
<svg xmlns="http://www.w3.org/2000/svg" version="1.1" width="600" height="600">
  <defs/>
  <g>
    <path d="M 504.2218017578125 222.8270721435547 C 503.2200012207031 221.56581115722656 501.5982971191406 219.94595336914062 500.7641906738281 219.78704833984375 C 499.4189453125 218.70132446289062 500.14276123046875 217.49203491210938 502.36553955078125 219.62387084960938 C 501.5314636230469 220.51951599121094 501.7281188964844 221.31686401367188 502.0380859375 223.06260681152344 C 504.2716064453125 223.6643829345703 504.6171875 222.7028045654297 504.2218017578125 222.8270721435547" stroke-width="0.0" fill="rgb(223, 221, 222)" opacity="0.99439794"/>
    <path d="M 399.65478515625 356.8706970214844 C 401.87408447265625 359.18621826171875 403.66552734375 357.9403076171875 401.8673400878906 356.3364562988281 C 403.8237609863281 355.0035400390625 404.403076171875 353.7387390136719 402.3826904296875 353.3285827636719 C 403.564697265625 351.63555908203125 403.9312744140625 349.4305114746094 401.9275817871094 351.44036865234375 C 400.9744873046875 352.38580322265625 403.23236083984375 352.7203674316406 399.65478515625 356.8706970214844" stroke-width="0.0" fill="rgb(228, 227, 227)" opacity="0.99247015"/>
    <path d="M 192.11917114257812 519.1643676757812 C 190.6700897216797 519.1824340820312 190.22779846191406 520.70263671875 191.7711944580078 522.130126953125 C 192.77772521972656 519.5834350585938 194.2719268798828 517.237548828125 193.7742919921875 517.5046997070312 C 195.1339874267578 515.6126098632812 194.90289306640625 513.1280517578125 195.0709991455078 510.8905334472656 C 192.43203735351562 509.6123046875 191.0905303955078 511.8122863769531 192.11917114257812 519.1643676757812" stroke-width="0.0" fill="rgb(57, 55, 56)" opacity="1.0"/>
    <path d="M 185.69326782226562 452.3923645019531 C 183.78245544433594 449.82208251953125 184.5178680419922 448.31939697265625 182.8777618408203 448.4230041503906 C 184.15513610839844 446.2049865722656 182.45355224609375 448.2677001953125 180.46762084960938 447.2410888671875 C 178.0631103515625 445.1302185058594 176.270751953125 442.8577575683594 176.53118896484375 445.0875244140625 C 176.97348022460938 445.9639892578125 179.38690185546875 447.836181640625 185.69326782226562 452.3923645019531" stroke-width="0.0" fill="rgb(181, 181, 181)" opacity="0.99273646"/>
    <path d="M 171.156982421875 82.80061340332031 C 174.1575164794922 83.45886993408203 176.00830078125 82.93595886230469 177.33897399902344 84.38666534423828 C 178.23239135742188 85.46651458740234 175.81951904296875 87.87844848632812 176.87644958496094 89.49419403076172 C 178.47154235839844 88.76085662841797 176.0575714111328 87.57422637939453 176.7490234375 86.98197174072266 C 178.32252502441406 88.97854614257812 177.52615356445312 90.49597930908203 171.156982421875 82.80061340332031" stroke-width="0.0" fill="rgb(142, 141, 140)" opacity="1.0"/>
    <path d="M 239.2719268798828 368.4121398925781 C 241.28103637695312 365.1446838378906 239.14154052734375 363.89324951171875 241.24363708496094 364.4211730957031 C 241.20516967773438 365.15301513671875 243.2682342529297 363.202880859375 240.6519775390625 363.0165100097656 C 241.93630981445312 365.3311462402344 244.65179443359375 363.43194580078125 243.92965698242188 366.63665771484375 C 241.7261199951172 367.0282287597656 242.81634521484375 366.82940673828125 239.2719268798828 368.4121398925781" stroke-width="0.0" fill="rgb(0, 0, 0)" opacity="1.0"/>
    <path d="M 45.33003616333008 104.92070770263672 C 45.83719253540039 107.50428771972656 45.0977668762207 106.3206558227539 46.54383087158203 107.02826690673828 C 47.93954849243164 105.01475524902344 47.57316589355469 102.45836639404297 47.086524963378906 103.55187225341797 C 47.67600631713867 102.79759216308594 49.02100372314453 102.3541488647461 48.67247772216797 104.5312728881836 C 44.93841552734375 103.66567993164062 45.709678649902344 105.25651550292969 45.33003616333008 104.92070770263672" stroke-width="0.0" fill="rgb(0, 0, 0)" opacity="1.0"/>
    <path d="M 378.5895080566406 329.8531494140625 C 378.2947082519531 327.7684020996094 379.1021728515625 328.4085998535156 376.7601013183594 328.71514892578125 C 375.3645935058594 328.7966613769531 374.4400329589844 331.2398986816406 374.09576416015625 332.840576171875 C 376.2731628417969 330.83734130859375 376.1365051269531 328.91558837890625 374.26324462890625 326.5740661621094 C 374.8411865234375 326.42626953125 376.69866943359375 326.74700927734375 378.5895080566406 329.8531494140625" stroke-width="0.0" fill="rgb(232, 231, 232)" opacity="0.99966496"/>
    <path d="M 214.03411865234375 89.0887680053711 C 214.4581298828125 88.31199645996094 213.63150024414062 87.48939514160156 211.50120544433594 88.5208740234375 C 211.60678100585938 89.84207153320312 210.35397338867188 90.46968841552734 210.3050994873047 90.13021087646484 C 211.55764770507812 91.16478729248047 212.2549285888672 89.42018127441406 213.87420654296875 87.82391357421875 C 213.3817901611328 89.63383483886719 215.33631896972656 91.38158416748047 214.03411865234375 89.0887680053711" stroke-width="0.0" fill="rgb(221, 219, 221)" opacity="0.99550986"/>
    <path d="M 193.14895629882812 349.7791748046875 C 195.16061401367188 351.9036560058594 197.3243408203125 350.9828796386719 196.8421630859375 350.2964782714844 C 195.58544921875 350.3785400390625 195.70571899414062 352.7801208496094 196.4863739013672 354.2820129394531 C 198.03729248046875 352.657958984375 197.04173278808594 355.1193542480469 199.41400146484375 353.9498291015625 C 201.20448303222656 351.44927978515625 202.51791381835938 352.66204833984375 193.14895629882812 349.7791748046875" stroke-width="0.0" fill="rgb(226, 225, 225)" opacity="0.9937528"/>
    <path d="M 199.8976593017578 188.02273559570312 C 199.6693115234375 185.92454528808594 200.22824096679688 184.02919006347656 197.82472229003906 184.4448699951172 C 195.5271453857422 185.02149963378906 197.6423797607422 185.8151397705078 197.4935302734375 188.43629455566406 C 196.68984985351562 190.47332763671875 199.2255096435547 190.6993865966797 200.479248046875 191.12525939941406 C 203.05186462402344 190.78475952148438 205.18165588378906 192.0359649658203 199.8976593017578 188.02273559570312" stroke-width="0.0" fill="rgb(225, 224, 224)" opacity="0.99432784"/>
    <path d="M 253.19216918945312 541.125244140625 C 252.2079620361328 541.9727172851562 254.17054748535156 543.3055419921875 252.06346130371094 541.3870849609375 C 252.37374877929688 543.4521484375 251.0737762451172 543.9491577148438 248.76776123046875 541.7752075195312 C 250.2350616455078 542.2800903320312 248.6744842529297 540.22119140625 247.07379150390625 541.0422973632812 C 249.49375915527344 538.4716186523438 247.89303588867188 536.4536743164062 253.19216918945312 541.125244140625" stroke-width="0.0" fill="rgb(253, 253, 253)" opacity="0.99272263"/>
    <path d="M 111.12713623046875 407.0712890625 C 112.01424407958984 407.98016357421875 112.25483703613281 410.154541015625 112.86798858642578 412.10150146484375 C 111.45626831054688 410.8288879394531 111.92237091064453 412.1858825683594 111.49137878417969 414.6391906738281 C 108.17005920410156 414.8803405761719 106.07604217529297 412.533203125 103.80658721923828 414.3487548828125 C 101.2720718383789 411.7811279296875 101.17253875732422 413.8401794433594 111.12713623046875 407.0712890625" stroke-width="0.0" fill="rgb(0, 0, 0)" opacity="1.0"/>
    <path d="M 487.41650390625 150.34634399414062 C 485.8136291503906 149.06405639648438 485.27447509765625 148.9009552001953 486.9541931152344 148.1942596435547 C 487.6875305175781 148.38963317871094 488.4293518066406 147.16783142089844 486.18603515625 144.64073181152344 C 488.5391845703125 143.15777587890625 490.7088928222656 143.2521209716797 492.68560791015625 142.7398681640625 C 494.02886962890625 143.51580810546875 493.5445251464844 141.88124084472656 487.41650390625 150.34634399414062" stroke-width="0.0" fill="rgb(218, 218, 218)" opacity="0.9928883"/>
    <path d="M 360.9292907714844 239.97991943359375 C 362.6986083984375 241.18968200683594 363.9937744140625 239.23272705078125 361.633056640625 241.20455932617188 C 361.7847900390625 241.38787841796875 362.3155212402344 242.0430145263672 362.4987487792969 241.29225158691406 C 364.7822570800781 242.69921875 362.4530334472656 242.49098205566406 362.4686279296875 242.93182373046875 C 362.57049560546875 240.5389862060547 360.9654235839844 240.21258544921875 360.9292907714844 239.97991943359375" stroke-width="0.0" fill="rgb(207, 206, 207)" opacity="0.9970736"/>
    <path d="M 250.6239776611328 443.43304443359375 C 249.9199981689453 441.593505859375 249.42308044433594 439.539306640625 250.98631286621094 441.4923095703125 C 253.8182830810547 442.4389343261719 252.7954559326172 443.7742919921875 250.98895263671875 442.7529602050781 C 253.9936065673828 441.042724609375 255.12460327148438 439.91131591796875 255.90365600585938 437.56451416015625 C 252.68824768066406 439.54266357421875 252.13995361328125 437.4678955078125 250.6239776611328 443.43304443359375" stroke-width="0.0" fill="rgb(0, 0, 0)" opacity="1.0"/>
    <path d="M 483.3255310058594 213.15037536621094 C 485.2289733886719 215.26580810546875 483.03302001953125 215.37881469726562 480.333740234375 217.11904907226562 C 478.634765625 217.07858276367188 479.4066467285156 217.05616760253906 477.78118896484375 214.22219848632812 C 477.1097717285156 216.2448272705078 475.393310546875 215.0994110107422 472.77569580078125 214.12841796875 C 474.73822021484375 216.93505859375 472.86822509765625 219.01824951171875 483.3255310058594 213.15037536621094" stroke-width="0.0" fill="rgb(83, 84, 84)" opacity="1.0"/>
    <path d="M 121.76483917236328 317.8046875 C 123.52574157714844 317.896484375 123.49042510986328 320.26434326171875 124.50360107421875 318.9815979003906 C 122.39350128173828 319.541259765625 123.33010864257812 320.7181091308594 121.26419067382812 321.9023132324219 C 121.44869232177734 322.6210632324219 122.92803955078125 325.3025207519531 121.54440307617188 326.36688232421875 C 119.92515563964844 324.43524169921875 120.55964660644531 325.53228759765625 121.76483917236328 317.8046875" stroke-width="0.0" fill="rgb(236, 237, 237)" opacity="1.0"/>
    <path d="M 123.85493469238281 275.4042053222656 C 120.65911865234375 278.1602783203125 118.78269958496094 276.07293701171875 116.412353515625 274.7246398925781 C 116.10731506347656 272.30914306640625 113.86720275878906 270.8581237792969 112.12380981445312 269.53387451171875 C 111.73149108886719 268.6746826171875 111.58319854736328 268.84130859375 114.42627716064453 266.58447265625 C 117.33942413330078 267.4365539550781 114.9623794555664 269.38836669921875 123.85493469238281 275.4042053222656" stroke-width="0.0" fill="rgb(2, 2, 2)" opacity="0.9905158"/>
    <path d="M 182.23838806152344 579.6286010742188 C 181.93321228027344 578.1830444335938 182.11376953125 576.3571166992188 180.1686553955078 580.0348510742188 C 178.9647216796875 579.466064453125 175.779296875 581.1500244140625 178.61561584472656 581.3551025390625 C 177.09226989746094 579.48046875 178.67601013183594 578.1228637695312 176.09054565429688 580.5822143554688 C 176.3697967529297 577.2649536132812 174.11915588378906 576.835205078125 182.23838806152344 579.6286010742188" stroke-width="0.0" fill="rgb(0, 0, 0)" opacity="1.0"/>
    <path d="M 434.31451416015625 418.24542236328125 C 433.3318176269531 419.99212646484375 432.9099426269531 420.4244384765625 435.3388366699219 419.6238708496094 C 437.6193542480469 421.5679931640625 438.0782470703125 419.92578125 440.3675231933594 420.1231384277344 C 442.2662048339844 421.6941223144531 440.20770263671875 419.6089172363281 439.9259338378906 417.7851867675781 C 438.4422302246094 418.3453369140625 438.84771728515625 416.4576110839844 434.31451416015625 418.24542236328125" stroke-width="0.0" fill="rgb(247, 247, 247)" opacity="0.9968355"/>
    <path d="M 240.0235137939453 193.14830017089844 C 240.62060546875 193.6945343017578 242.6792755126953 192.96714782714844 244.98892211914062 191.6054229736328 C 242.43919372558594 192.71263122558594 242.27597045898438 193.48486328125 242.8684844970703 193.8450927734375 C 242.7740020751953 195.67098999023438 240.93045043945312 195.27975463867188 242.99038696289062 196.28485107421875 C 240.30064392089844 198.538330078125 240.42849731445312 198.8389129638672 240.0235137939453 193.14830017089844" stroke-width="0.0" fill="rgb(199, 197, 199)" opacity="1.0"/>
    <path d="M 382.99505615234375 135.3704376220703 C 384.3741149902344 137.22821044921875 382.0833740234375 138.75086975097656 383.243408203125 139.69273376464844 C 382.25054931640625 138.3372802734375 381.91400146484375 137.0227813720703 383.4751892089844 138.54547119140625 C 385.6968994140625 138.68557739257812 387.2986145019531 137.9298095703125 389.8915710449219 138.71243286132812 C 387.9087829589844 136.9732666015625 389.6161804199219 134.8247528076172 382.99505615234375 135.3704376220703" stroke-width="0.0" fill="rgb(209, 209, 209)" opacity="0.9939848"/>
    <path d="M 243.9520263671875 414.0836486816406 C 244.7840576171875 413.11492919921875 242.2794952392578 411.4542236328125 242.32949829101562 409.95953369140625 C 242.19667053222656 410.21588134765625 244.13539123535156 410.2121276855469 245.38858032226562 409.0126647949219 C 244.49925231933594 406.9715270996094 246.74107360839844 409.38226318359375 247.48794555664062 408.8368835449219 C 246.4948272705078 408.0931701660156 245.74594116210938 410.28033447265625 243.9520263671875 414.0836486816406" stroke-width="0.0" fill="rgb(223, 222, 223)" opacity="0.9949781"/>
    <path d="M 205.35076904296875 121.14695739746094 C 205.3672637939453 123.80708312988281 204.22406005859375 125.67607116699219 202.89366149902344 124.32725524902344 C 201.58360290527344 123.1079330444336 198.7593231201172 123.00743865966797 197.2105712890625 123.78694152832031 C 196.54241943359375 124.81504821777344 196.30819702148438 124.18605041503906 196.80520629882812 122.34607696533203 C 198.00100708007812 124.0463638305664 199.7709503173828 124.93545532226562 205.35076904296875 121.14695739746094" stroke-width="0.0" fill="rgb(2, 2, 2)" opacity="0.9908148"/>
    <path d="M 413.26007080078125 36.467586517333984 C 410.5231018066406 36.687583923339844 409.50299072265625 39.372886657714844 409.3585510253906 39.70811080932617 C 412.28179931640625 40.32598114013672 413.24810791015625 39.979888916015625 414.31103515625 39.08013916015625 C 414.1138610839844 35.959442138671875 412.8807678222656 36.09687042236328 411.86358642578125 38.00813674926758 C 411.74139404296875 38.144248962402344 411.4048156738281 39.47039031982422 413.26007080078125 36.467586517333984" stroke-width="0.0" fill="rgb(1, 0, 0)" opacity="1.0"/>
    <path d="M 108.22123718261719 398.3817138671875 C 108.86746978759766 399.7638244628906 110.92125701904297 400.5860595703125 112.8943862915039 400.9193420410156 C 112.6324691772461 402.5810852050781 110.98846435546875 403.65960693359375 113.34314727783203 402.3636779785156 C 111.12676239013672 400.8635559082031 110.8021011352539 402.3191833496094 112.57617950439453 403.3624572753906 C 113.74823760986328 401.2508239746094 113.75187683105469 399.7727355957031 108.22123718261719 398.3817138671875" stroke-width="0.0" fill="rgb(63, 63, 63)" opacity="0.99207443"/>
    <path d="M 520.1119995117188 309.23291015625 C 522.8206176757812 308.888671875 524.7761840820312 307.1925354003906 525.2596435546875 304.14404296875 C 524.9132080078125 305.20635986328125 525.5956420898438 303.0076599121094 526.6735229492188 301.91473388671875 C 528.6815185546875 301.2889099121094 529.8309326171875 302.20355224609375 528.155517578125 302.6258850097656 C 526.501708984375 301.5893859863281 526.394287109375 299.55377197265625 520.1119995117188 309.23291015625" stroke-width="0.0" fill="rgb(2, 2, 2)" opacity="0.99041814"/>
    <path d="M 454.1862487792969 65.64673614501953 C 452.0823669433594 63.36764144897461 451.4687805175781 66.58411407470703 451.86090087890625 66.2037124633789 C 449.7409973144531 66.52590942382812 448.7144470214844 64.82373809814453 447.514404296875 67.464599609375 C 447.8181457519531 64.5132064819336 447.9100036621094 63.77311706542969 445.7427978515625 65.42832946777344 C 443.9747009277344 63.98211669921875 444.4548034667969 63.16732406616211 454.1862487792969 65.64673614501953" stroke-width="0.0" fill="rgb(2, 2, 2)" opacity="0.9903595"/>
    <path d="M 141.571533203125 368.0326232910156 C 139.09109497070312 367.2857666015625 140.07899475097656 366.910400390625 141.56687927246094 366.7676696777344 C 143.68630981445312 365.58038330078125 145.02725219726562 366.87445068359375 146.2194366455078 366.0600891113281 C 144.5546875 364.07012939453125 143.0453338623047 365.18316650390625 143.59054565429688 363.6754455566406 C 140.96461486816406 362.03936767578125 141.2421417236328 363.8289794921875 141.571533203125 368.0326232910156" stroke-width="0.0" fill="rgb(216, 215, 215)" opacity="0.995037"/>
    <path d="M 272.1529541015625 270.7972412109375 C 275.31683349609375 271.2792053222656 277.1448669433594 269.6578369140625 274.92803955078125 269.8651428222656 C 276.7000427246094 270.2249450683594 275.1492004394531 268.7501220703125 276.65106201171875 270.91351318359375 C 273.83978271484375 272.7513732910156 276.14044189453125 270.2269287109375 275.93536376953125 267.8335876464844 C 275.5576171875 266.76312255859375 273.974365234375 266.6910705566406 272.1529541015625 270.7972412109375" stroke-width="0.0" fill="rgb(0, 0, 0)" opacity="1.0"/>
    <path d="M 130.7379150390625 571.6624755859375 C 129.246337890625 572.19091796875 128.9611358642578 570.8179931640625 129.4037322998047 570.0580444335938 C 129.13473510742188 570.6702880859375 129.2803192138672 571.7643432617188 128.86851501464844 570.0552978515625 C 129.35348510742188 568.3837280273438 130.1294403076172 565.9293823242188 128.92269897460938 567.3282470703125 C 131.2270050048828 568.5999145507812 131.279296875 571.1714477539062 130.7379150390625 571.6624755859375" stroke-width="0.0" fill="rgb(0, 0, 0)" opacity="1.0"/>
    <path d="M 210.22177124023438 167.29559326171875 C 211.05270385742188 168.78225708007812 209.65936279296875 167.89402770996094 211.02468872070312 169.2769317626953 C 210.7324676513672 167.58029174804688 212.06678771972656 166.9762420654297 212.88735961914062 165.3834991455078 C 210.50682067871094 164.92459106445312 209.8702850341797 166.0387725830078 209.99984741210938 163.8356170654297 C 212.8146209716797 163.0065155029297 212.77833557128906 163.4434814453125 210.22177124023438 167.29559326171875" stroke-width="0.0" fill="rgb(110, 109, 109)" opacity="1.0"/>
    <path d="M 100.7139663696289 591.277099609375 C 100.6648178100586 593.5342407226562 100.345947265625 593.0569458007812 100.64707946777344 592.0089721679688 C 103.33588409423828 592.30078125 102.96319580078125 593.39697265625 100.87825775146484 595.8750610351562 C 98.30168914794922 597.1226196289062 96.05279541015625 594.5493774414062 96.3821792602539 591.9623413085938 C 96.55648040771484 592.9265747070312 97.85694122314453 593.3768310546875 100.7139663696289 591.277099609375" stroke-width="0.0" fill="rgb(0, 0, 0)" opacity="1.0"/>
    <path d="M 401.934326171875 346.0972595214844 C 401.6665344238281 347.213623046875 400.0733642578125 347.4421691894531 401.1739501953125 349.0442810058594 C 399.13836669921875 347.56353759765625 398.7602233886719 349.24603271484375 399.514892578125 348.6272277832031 C 400.7696533203125 347.7031555175781 398.3822937011719 346.49310302734375 397.3802185058594 344.5323791503906 C 394.9106140136719 344.6025695800781 395.64617919921875 346.99658203125 401.934326171875 346.0972595214844" stroke-width="0.0" fill="rgb(237, 234, 236)" opacity="0.99447423"/>
    <path d="M 305.31512451171875 331.5322570800781 C 306.10638427734375 332.7341003417969 307.5734558105469 332.5116882324219 308.1858215332031 335.0453186035156 C 309.9345397949219 332.9142761230469 308.8990478515625 332.5662841796875 308.48016357421875 332.3092041015625 C 306.85443115234375 334.55517578125 303.93353271484375 334.5668029785156 306.2289733886719 331.72308349609375 C 306.8249206542969 330.8295593261719 306.07110595703125 330.7281799316406 305.31512451171875 331.5322570800781" stroke-width="0.0" fill="rgb(0, 0, 0)" opacity="1.0"/>
    <path d="M 145.1220245361328 198.12957763671875 C 145.07972717285156 197.2594451904297 144.42738342285156 197.3608856201172 144.3270721435547 196.09986877441406 C 145.66171264648438 197.795166015625 144.35739135742188 196.22552490234375 142.63705444335938 196.77301025390625 C 140.9956512451172 196.46206665039062 142.17506408691406 198.34437561035156 140.32992553710938 198.6902313232422 C 141.28729248046875 197.92881774902344 139.801025390625 198.7779998779297 145.1220245361328 198.12957763671875" stroke-width="0.0" fill="rgb(226, 226, 226)" opacity="0.994446"/>
    <path d="M 255.92005920410156 103.63858032226562 C 253.81060791015625 101.79399108886719 255.20968627929688 104.31562805175781 255.63670349121094 105.10100555419922 C 254.85629272460938 104.62024688720703 256.2798767089844 105.43115997314453 257.8926696777344 103.874267578125 C 257.1421203613281 105.08307647705078 255.48280334472656 106.86823272705078 255.55433654785156 106.83536529541016 C 253.4269561767578 106.74097442626953 251.83798217773438 106.60374450683594 255.92005920410156 103.63858032226562" stroke-width="0.0" fill="rgb(219, 219, 220)" opacity="0.9945737"/>
    <path d="M 114.14238739013672 123.91704559326172 C 116.28681182861328 124.68376922607422 116.64844512939453 122.44731903076172 118.51116180419922 120.05695343017578 C 122.03890228271484 121.75123596191406 123.0507583618164 121.71442413330078 123.10702514648438 123.21427917480469 C 124.90149688720703 124.70435333251953 126.07861328125 125.99727630615234 128.1133575439453 125.20931243896484 C 127.89636993408203 128.58602905273438 124.8103256225586 130.61485290527344 114.14238739013672 123.91704559326172" stroke-width="0.0" fill="rgb(0, 0, 0)" opacity="1.0"/>
    <path d="M 119.38520812988281 290.5290832519531 C 120.83425903320312 291.619140625 123.16114807128906 289.6958923339844 123.51311492919922 287.0610656738281 C 120.35259246826172 287.95263671875 120.72003936767578 288.4100341796875 120.73582458496094 286.715087890625 C 117.70957946777344 287.53692626953125 120.31097412109375 290.1287536621094 117.77474212646484 288.9414367675781 C 117.64867401123047 285.53240966796875 118.72201538085938 285.0106201171875 119.38520812988281 290.5290832519531" stroke-width="0.0" fill="rgb(0, 0, 0)" opacity="1.0"/>
    <path d="M 475.0545959472656 227.12457275390625 C 474.7149658203125 228.64541625976562 475.6528625488281 231.2082061767578 478.0795593261719 231.40606689453125 C 477.10577392578125 228.9384307861328 476.5179138183594 228.27212524414062 474.58563232421875 229.32675170898438 C 472.79498291015625 231.04725646972656 472.2052307128906 231.26187133789062 472.68609619140625 229.02420043945312 C 472.3628234863281 227.90618896484375 472.9603576660156 225.49607849121094 475.0545959472656 227.12457275390625" stroke-width="0.0" fill="rgb(208, 206, 207)" opacity="0.99357885"/>
    <path d="M 170.56227111816406 470.7547302246094 C 169.6251220703125 472.4738464355469 167.13397216796875 470.7543029785156 168.14698791503906 469.51812744140625 C 167.323486328125 471.42974853515625 166.79574584960938 470.49652099609375 168.78855895996094 468.7515563964844 C 170.08045959472656 467.0998229980469 168.50611877441406 467.65020751953125 168.3250274658203 465.6899719238281 C 165.98138427734375 466.26171875 167.94029235839844 466.53765869140625 170.56227111816406 470.7547302246094" stroke-width="0.0" fill="rgb(9, 9, 9)" opacity="0.99029905"/>
    <path d="M 305.5349426269531 563.296142578125 C 304.4076843261719 561.7970581054688 303.5986022949219 560.0875244140625 304.7256164550781 560.7750244140625 C 307.10797119140625 562.9642944335938 305.71630859375 564.4797973632812 304.67852783203125 566.3272094726562 C 305.25091552734375 565.3102416992188 304.3611755371094 567.7066040039062 304.6376647949219 566.2673950195312 C 302.6860046386719 567.7506713867188 301.4972229003906 567.17626953125 305.5349426269531 563.296142578125" stroke-width="0.0" fill="rgb(253, 253, 253)" opacity="0.9930077"/>
    <path d="M 136.94873046875 423.12152099609375 C 135.2151641845703 421.6593933105469 137.3158721923828 421.31689453125 137.86094665527344 421.85223388671875 C 136.6795654296875 423.7586975097656 137.77085876464844 421.8937072753906 136.85162353515625 423.4866027832031 C 135.1868438720703 423.10687255859375 134.44088745117188 422.2312316894531 132.68545532226562 424.06707763671875 C 133.04531860351562 422.6585998535156 134.79624938964844 421.8096618652344 136.94873046875 423.12152099609375" stroke-width="0.0" fill="rgb(226, 226, 226)" opacity="0.9945547"/>
    <path d="M 240.8050994873047 24.56437110900879 C 241.7469482421875 26.60641098022461 239.42164611816406 27.95596694946289 238.52658081054688 25.870288848876953 C 238.5535888671875 23.45477867126465 240.48585510253906 21.66988182067871 243.5305633544922 23.441194534301758 C 242.33282470703125 21.380884170532227 242.2621307373047 23.78433609008789 243.101318359375 22.425844192504883 C 241.65464782714844 24.188045501708984 240.93057250976562 25.511276245117188 240.8050994873047 24.56437110900879" stroke-width="0.0" fill="rgb(0, 0, 0)" opacity="1.0"/>
    <path d="M 392.6976318359375 441.7265930175781 C 390.93560791015625 443.6558837890625 391.3999938964844 445.87371826171875 390.99993896484375 446.08782958984375 C 390.9322814941406 448.0040283203125 391.0072937011719 449.96240234375 391.1115417480469 451.89288330078125 C 393.2280578613281 449.66290283203125 393.15521240234375 449.0423889160156 393.0459289550781 451.4877624511719 C 395.1343078613281 452.0330810546875 395.52398681640625 449.7672119140625 392.6976318359375 441.7265930175781" stroke-width="0.0" fill="rgb(170, 170, 171)" opacity="0.99086165"/>
    <path d="M 176.7442169189453 543.8238525390625 C 174.4912872314453 546.0776977539062 173.28219604492188 546.66943359375 172.8203582763672 545.4867553710938 C 173.30377197265625 543.0281982421875 175.508544921875 541.0447998046875 178.74557495117188 542.907470703125 C 179.47291564941406 545.5382080078125 180.41036987304688 546.2860107421875 180.61065673828125 544.5643310546875 C 178.70115661621094 544.8126220703125 178.67417907714844 546.427490234375 176.7442169189453 543.8238525390625" stroke-width="0.0" fill="rgb(117, 118, 117)" opacity="1.0"/>
    <path d="M 349.0466613769531 572.0040283203125 C 350.7033386230469 570.35205078125 349.7672424316406 570.2245483398438 349.0713806152344 570.7418823242188 C 348.31024169921875 571.0772094726562 346.6743469238281 569.6546630859375 348.1747131347656 569.7249755859375 C 349.6854553222656 570.9917602539062 350.8019104003906 571.0613403320312 351.90850830078125 572.9019775390625 C 349.8064270019531 570.7733154296875 351.0413513183594 570.1016845703125 349.0466613769531 572.0040283203125" stroke-width="0.0" fill="rgb(252, 252, 253)" opacity="0.9956929"/>
    <path d="M 540.37841796875 367.35430908203125 C 541.0133666992188 366.7823181152344 543.0457763671875 369.9598388671875 541.8494262695312 370.5862121582031 C 544.4082641601562 369.4979553222656 544.0612182617188 369.76904296875 544.07861328125 369.9343566894531 C 543.8841552734375 368.14483642578125 543.4874877929688 367.2837829589844 540.3755493164062 369.5310974121094 C 542.8860473632812 370.9073181152344 541.1111450195312 371.7638854980469 540.37841796875 367.35430908203125" stroke-width="0.0" fill="rgb(0, 0, 0)" opacity="1.0"/>
    <path d="M 497.75048828125 410.4189453125 C 498.0445251464844 412.8864440917969 497.25909423828125 412.878173828125 497.8271789550781 410.30419921875 C 494.9215087890625 411.0945129394531 494.8023986816406 409.3385314941406 494.6523132324219 408.2925720214844 C 492.4623107910156 407.2121276855469 493.7129821777344 405.7569274902344 494.2987976074219 406.5933837890625 C 496.2501525878906 404.9566955566406 495.32647705078125 407.07318115234375 497.75048828125 410.4189453125" stroke-width="0.0" fill="rgb(210, 210, 211)" opacity="1.0"/>
    <path d="M 258.9168395996094 367.16680908203125 C 256.7452697753906 367.88336181640625 254.51895141601562 369.3023986816406 256.6584777832031 367.95416259765625 C 254.41847229003906 366.7292785644531 254.8637237548828 367.1549072265625 254.25173950195312 368.1809387207031 C 256.3022155761719 367.2958984375 253.91722106933594 368.6952209472656 255.67298889160156 367.854736328125 C 257.9757385253906 367.86590576171875 258.2991027832031 369.3204650878906 258.9168395996094 367.16680908203125" stroke-width="0.0" fill="rgb(195, 199, 195)" opacity="0.99503565"/>
    <path d="M 448.8829040527344 420.43841552734375 C 449.06787109375 422.0635070800781 450.7085266113281 419.31829833984375 447.91387939453125 419.1671447753906 C 449.2569885253906 420.71551513671875 448.56866455078125 422.36016845703125 450.9606018066406 423.7754821777344 C 450.0160827636719 423.02716064453125 451.98931884765625 425.1380310058594 451.3666076660156 424.1781921386719 C 449.49578857421875 423.1274108886719 451.424072265625 420.613525390625 448.8829040527344 420.43841552734375" stroke-width="0.0" fill="rgb(59, 60, 60)" opacity="1.0"/>
    <path d="M 255.94786071777344 332.9678955078125 C 256.18719482421875 332.4574890136719 258.4761962890625 332.6520080566406 260.2579345703125 331.3621520996094 C 261.8377380371094 330.1641540527344 262.8135681152344 331.43963623046875 261.82586669921875 333.0854797363281 C 262.1463623046875 331.23992919921875 261.7566223144531 329.535888671875 260.5050964355469 327.4391174316406 C 260.9533996582031 328.9618225097656 261.661865234375 327.9648742675781 255.94786071777344 332.9678955078125" stroke-width="0.0" fill="rgb(224, 224, 225)" opacity="0.9933773"/>
    <path d="M 558.7937622070312 117.16197204589844 C 561.9329833984375 119.25314331054688 561.7482299804688 120.8924789428711 559.86474609375 121.02312469482422 C 558.6217651367188 118.67642211914062 560.265625 120.12850189208984 562.8639526367188 117.33325958251953 C 563.3269653320312 119.20301055908203 560.96923828125 116.3066177368164 559.7981567382812 117.99922943115234 C 558.1767578125 120.49420928955078 555.9953002929688 120.71187591552734 558.7937622070312 117.16197204589844" stroke-width="0.0" fill="rgb(0, 0, 0)" opacity="1.0"/>
    <path d="M 313.0351867675781 527.0206298828125 C 315.29205322265625 527.8059692382812 317.21014404296875 529.9058837890625 317.9828796386719 530.703369140625 C 316.366943359375 529.3822631835938 314.89373779296875 531.6870727539062 315.44970703125 530.5112915039062 C 316.8546447753906 529.2046508789062 317.9207458496094 528.1151123046875 320.0778503417969 528.747314453125 C 319.13262939453125 530.59912109375 320.8351135253906 529.53759765625 313.0351867675781 527.0206298828125" stroke-width="0.0" fill="rgb(253, 253, 253)" opacity="0.9927539"/>
    <path d="M 420.59527587890625 101.72998046875 C 418.2354431152344 102.15223693847656 416.1878967285156 101.0945816040039 415.1981201171875 100.5774917602539 C 417.5455627441406 102.46094512939453 419.15399169921875 104.60395812988281 417.3458251953125 106.43594360351562 C 418.0364685058594 107.98400115966797 419.8968200683594 110.18453979492188 419.24151611328125 109.49308776855469 C 420.27337646484375 109.33433532714844 420.8760986328125 109.99549102783203 420.59527587890625 101.72998046875" stroke-width="0.0" fill="rgb(202, 202, 202)" opacity="0.9937433"/>
    <path d="M 110.27449798583984 517.769775390625 C 111.29278564453125 519.61328125 112.52947235107422 519.5540771484375 113.48194885253906 517.1115112304688 C 111.65864562988281 516.509521484375 112.08634948730469 516.9357299804688 112.44495391845703 514.95361328125 C 112.03250885009766 513.7782592773438 110.83846282958984 512.5531616210938 108.63174438476562 513.6148681640625 C 107.84367370605469 516.4696655273438 107.71369171142578 515.9780883789062 110.27449798583984 517.769775390625" stroke-width="0.0" fill="rgb(27, 27, 28)" opacity="1.0"/>
    <path d="M 335.3822937011719 89.19046783447266 C 336.3768615722656 91.9044418334961 338.6448669433594 93.6862564086914 341.9281921386719 93.03887176513672 C 340.8244934082031 90.29450988769531 342.470703125 91.4405288696289 344.53424072265625 93.49483489990234 C 344.3931579589844 91.931884765625 342.8268127441406 94.8251953125 341.8982238769531 92.87196350097656 C 345.38916015625 89.15498352050781 344.2281799316406 90.28290557861328 335.3822937011719 89.19046783447266" stroke-width="0.0" fill="rgb(0, 0, 0)" opacity="1.0"/>
    <path d="M 183.4566650390625 342.4556884765625 C 186.64187622070312 343.9852294921875 187.19805908203125 342.73626708984375 188.76551818847656 342.43524169921875 C 187.46356201171875 344.611328125 187.57196044921875 344.41693115234375 188.82054138183594 344.04107666015625 C 187.8253936767578 345.53045654296875 186.78683471679688 345.48492431640625 186.78150939941406 343.21563720703125 C 187.89634704589844 346.0362243652344 185.21957397460938 345.8255615234375 183.4566650390625 342.4556884765625" stroke-width="0.0" fill="rgb(0, 0, 0)" opacity="1.0"/>
    <path d="M 560.3583984375 200.270263671875 C 563.4811401367188 201.13528442382812 561.517822265625 201.20062255859375 563.1033325195312 203.3022918701172 C 564.0504150390625 202.225341796875 563.2420043945312 199.8480224609375 563.8150024414062 199.34620666503906 C 561.0728759765625 200.7904815673828 561.306640625 201.87771606445312 562.668212890625 200.03082275390625 C 563.509033203125 198.95703125 562.5029296875 197.31924438476562 560.3583984375 200.270263671875" stroke-width="0.0" fill="rgb(2, 1, 1)" opacity="1.0"/>
    <path d="M 280.0418395996094 462.11004638671875 C 282.3312072753906 461.5351257324219 282.9937744140625 460.2184143066406 281.51416015625 460.32196044921875 C 280.872314453125 461.6639099121094 282.554931640625 463.67620849609375 283.1037902832031 465.8446350097656 C 280.3978576660156 463.5072937011719 282.47564697265625 463.1563415527344 281.40313720703125 461.1475830078125 C 280.439453125 461.15673828125 281.7015075683594 462.3687744140625 280.0418395996094 462.11004638671875" stroke-width="0.0" fill="rgb(253, 253, 254)" opacity="0.9948895"/>
    <path d="M 91.1917953491211 109.14641571044922 C 91.03506469726562 110.46068572998047 91.91129302978516 109.12576293945312 93.19783020019531 108.75306701660156 C 92.89888000488281 110.27488708496094 95.00257110595703 110.34564971923828 95.60918426513672 107.77216339111328 C 96.03265380859375 106.72190856933594 94.08902740478516 104.6979751586914 91.76444244384766 106.99553680419922 C 90.2094955444336 109.49897003173828 89.68510437011719 110.15208435058594 91.1917953491211 109.14641571044922" stroke-width="0.0" fill="rgb(211, 209, 210)" opacity="0.99347836"/>
    <path d="M 344.9141845703125 490.1392517089844 C 347.1216735839844 490.25909423828125 348.2463684082031 487.84051513671875 346.6278381347656 486.6159362792969 C 344.6287536621094 485.9884033203125 342.968505859375 486.32659912109375 342.79351806640625 488.43414306640625 C 342.4970703125 487.6396484375 340.1018371582031 485.81243896484375 338.5928955078125 483.1656799316406 C 336.829345703125 485.04718017578125 339.1260070800781 484.5671081542969 344.9141845703125 490.1392517089844" stroke-width="0.0" fill="rgb(247, 246, 247)" opacity="0.99376416"/>
    <path d="M 393.885498046875 356.30242919921875 C 392.8021240234375 354.7863464355469 392.0565185546875 356.7140808105469 392.19573974609375 354.6563415527344 C 391.39385986328125 353.3197937011719 391.7964172363281 353.5248107910156 392.3791809082031 352.71417236328125 C 390.7353210449219 353.36334228515625 389.9500732421875 355.04339599609375 388.3968505859375 356.55426025390625 C 387.1536865234375 354.56536865234375 386.84759521484375 353.7782897949219 393.885498046875 356.30242919921875" stroke-width="0.0" fill="rgb(237, 236, 237)" opacity="0.9941203"/>
    <path d="M 117.0530014038086 289.11236572265625 C 118.85399627685547 290.0586853027344 121.50586700439453 289.05950927734375 121.25528717041016 291.5988464355469 C 121.2881088256836 293.5295715332031 120.52886199951172 294.47265625 118.62054443359375 296.0784912109375 C 118.01443481445312 297.30487060546875 119.23159790039062 296.65380859375 117.2695083618164 299.32275390625 C 113.26055145263672 301.08319091796875 111.57332611083984 300.687255859375 117.0530014038086 289.11236572265625" stroke-width="0.0" fill="rgb(0, 0, 0)" opacity="1.0"/>
    <path d="M 486.0765380859375 497.06231689453125 C 485.50714111328125 496.3165283203125 485.5440673828125 494.5726013183594 483.27069091796875 496.3037109375 C 484.0716857910156 498.9364318847656 482.79010009765625 501.0662841796875 483.286865234375 502.7740173339844 C 481.2891540527344 504.0617370605469 483.52630615234375 503.3551330566406 483.5932312011719 504.2104187011719 C 484.2200927734375 504.0746154785156 481.8401184082031 501.908203125 486.0765380859375 497.06231689453125" stroke-width="0.0" fill="rgb(172, 170, 171)" opacity="0.9919916"/>
    <path d="M 214.02780151367188 8.963698387145996 C 215.31143188476562 11.09142017364502 215.5593719482422 10.789377212524414 214.73333740234375 12.50669002532959 C 217.63587951660156 11.481108665466309 219.19598388671875 9.230759620666504 219.32960510253906 7.8549957275390625 C 218.33352661132812 8.4331693649292 215.9097900390625 7.724769592285156 217.92166137695312 4.840582847595215 C 219.10250854492188 7.025938034057617 220.71580505371094 8.806624412536621 214.02780151367188 8.963698387145996" stroke-width="0.0" fill="rgb(238, 238, 237)" opacity="1.0"/>
    <path d="M 140.22715759277344 570.634521484375 C 139.4018096923828 569.3460083007812 138.72007751464844 568.871826171875 141.2299041748047 568.2191772460938 C 142.60452270507812 568.9520263671875 143.89422607421875 568.6085205078125 144.78749084472656 569.203857421875 C 142.78224182128906 570.88330078125 144.50096130371094 569.5508422851562 144.1881561279297 570.4728393554688 C 142.84446716308594 572.6178588867188 140.4636688232422 572.3755493164062 140.22715759277344 570.634521484375" stroke-width="0.0" fill="rgb(0, 0, 0)" opacity="1.0"/>
    <path d="M 591.9613647460938 71.17338562011719 C 592.4703369140625 71.09123992919922 591.6492919921875 72.08120727539062 591.0208129882812 72.35213470458984 C 588.8684692382812 70.22372436523438 586.6124267578125 71.67692565917969 585.1134033203125 69.67587280273438 C 586.7361450195312 71.14818572998047 585.4691772460938 69.94794464111328 587.0814819335938 67.44038391113281 C 586.450927734375 69.1736831665039 586.1325073242188 67.0191421508789 591.9613647460938 71.17338562011719" stroke-width="0.0" fill="rgb(251, 251, 252)" opacity="1.0"/>
    <path d="M 141.29698181152344 74.74229431152344 C 141.34483337402344 76.1273422241211 143.2842254638672 74.74695587158203 141.86380004882812 72.84523010253906 C 141.56207275390625 71.80618286132812 141.38958740234375 70.86656188964844 144.05711364746094 69.32720184326172 C 145.07008361816406 67.2835464477539 145.33946228027344 64.58731079101562 143.88674926757812 65.04218292236328 C 142.33795166015625 64.58448028564453 141.62294006347656 66.01053619384766 141.29698181152344 74.74229431152344" stroke-width="0.0" fill="rgb(211, 209, 210)" opacity="1.0"/>
    <path d="M 375.51513671875 364.9913024902344 C 372.9744873046875 364.82525634765625 372.9601135253906 365.17608642578125 370.9963684082031 363.21197509765625 C 373.80279541015625 361.1698913574219 374.4154052734375 361.0234375 375.6053771972656 361.06488037109375 C 374.6993103027344 359.5748291015625 376.8616027832031 360.5085144042969 375.8835754394531 358.43719482421875 C 377.3494567871094 356.3633117675781 375.4285583496094 354.2297058105469 375.51513671875 364.9913024902344" stroke-width="0.0" fill="rgb(207, 205, 208)" opacity="1.0"/>
    <path d="M 140.5723114013672 244.39637756347656 C 142.17372131347656 242.99948120117188 144.222412109375 243.2556610107422 144.26730346679688 241.2392578125 C 141.9397735595703 240.29331970214844 141.18359375 241.93002319335938 141.0350341796875 244.0302734375 C 139.6996307373047 241.8597869873047 139.29136657714844 239.29920959472656 141.46939086914062 237.69654846191406 C 142.99581909179688 238.50302124023438 142.1034698486328 239.33493041992188 140.5723114013672 244.39637756347656" stroke-width="0.0" fill="rgb(1, 1, 1)" opacity="1.0"/>
    <path d="M 354.89813232421875 87.08934020996094 C 356.0889587402344 88.51004791259766 355.4567565917969 88.01421356201172 357.29425048828125 89.69133758544922 C 357.8583679199219 91.83574676513672 357.5938415527344 92.3995361328125 356.163818359375 89.79974365234375 C 355.7103576660156 92.30559539794922 358.10302734375 94.4516830444336 356.5776062011719 94.50907897949219 C 358.780517578125 96.0419692993164 357.889892578125 97.44235229492188 354.89813232421875 87.08934020996094" stroke-width="0.0" fill="rgb(237, 237, 238)" opacity="0.9932349"/>
    <path d="M 185.71755981445312 393.8212890625 C 183.7701416015625 391.8515625 183.26583862304688 393.0773010253906 182.53749084472656 393.6178283691406 C 181.79176330566406 392.0038757324219 182.04690551757812 390.1145324707031 183.83966064453125 392.01068115234375 C 185.52902221679688 391.3025817871094 186.6099090576172 391.5529479980469 185.1693572998047 390.7453918457031 C 188.5561065673828 388.7038879394531 188.95335388183594 391.87518310546875 185.71755981445312 393.8212890625" stroke-width="0.0" fill="rgb(40, 40, 39)" opacity="1.0"/>
    <path d="M 329.20965576171875 439.22308349609375 C 329.6047058105469 438.1850280761719 332.513916015625 436.693603515625 334.8990478515625 436.0225524902344 C 336.1696472167969 436.7849426269531 334.6756286621094 434.9721984863281 337.2477111816406 434.7461242675781 C 336.6755065917969 431.74725341796875 336.6254577636719 432.760986328125 336.01678466796875 431.9367370605469 C 336.495849609375 432.94134521484375 337.61444091796875 433.792236328125 329.20965576171875 439.22308349609375" stroke-width="0.0" fill="rgb(4, 4, 3)" opacity="0.99034345"/>
    <path d="M 233.92457580566406 578.8636474609375 C 233.55569458007812 580.2683715820312 235.75595092773438 579.7042846679688 238.09091186523438 580.0277709960938 C 237.75624084472656 582.5162963867188 238.0487060546875 580.6727905273438 238.1913299560547 579.4976196289062 C 238.18685913085938 580.9695434570312 239.45291137695312 580.2523803710938 238.32994079589844 580.8275146484375 C 239.7384796142578 580.9202270507812 237.31541442871094 579.5299072265625 233.92457580566406 578.8636474609375" stroke-width="0.0" fill="rgb(252, 252, 253)" opacity="0.993818"/>
    <path d="M 291.3443298339844 204.52772521972656 C 290.39068603515625 201.32936096191406 292.6654052734375 201.02597045898438 294.5211486816406 198.76060485839844 C 291.9954833984375 199.39202880859375 294.6736755371094 200.9168701171875 296.08905029296875 198.93740844726562 C 294.1324157714844 198.5840301513672 294.83544921875 199.392578125 295.8882751464844 200.92941284179688 C 294.9442138671875 202.22079467773438 294.1080322265625 203.8104705810547 291.3443298339844 204.52772521972656" stroke-width="0.0" fill="rgb(105, 105, 105)" opacity="1.0"/>
    <path d="M 423.92822265625 218.8870849609375 C 425.1371765136719 219.1147003173828 425.9817199707031 221.12933349609375 425.0289611816406 221.70359802246094 C 424.57958984375 220.05746459960938 424.0762939453125 219.828369140625 424.3204345703125 219.41981506347656 C 423.9417419433594 219.70681762695312 425.41668701171875 219.70713806152344 427.3311767578125 217.4452667236328 C 426.84857177734375 217.70330810546875 426.10101318359375 216.57203674316406 423.92822265625 218.8870849609375" stroke-width="0.0" fill="rgb(216, 215, 215)" opacity="0.9951862"/>
    <path d="M 71.1749267578125 333.50640869140625 C 73.37545776367188 330.91094970703125 76.51576232910156 332.1923828125 74.537841796875 334.3291931152344 C 75.63623809814453 335.8590393066406 74.97209930419922 336.2173156738281 71.3967514038086 338.1103515625 C 73.88818359375 337.9175109863281 72.65338897705078 339.04681396484375 72.68184661865234 339.7381896972656 C 74.10023498535156 340.021240234375 75.9065170288086 340.8860778808594 71.1749267578125 333.50640869140625" stroke-width="0.0" fill="rgb(0, 0, 0)" opacity="1.0"/>
    <path d="M 425.3441467285156 159.98178100585938 C 425.2220153808594 161.98516845703125 426.1916809082031 160.66668701171875 426.3265380859375 160.75531005859375 C 425.2848815917969 159.98780822753906 423.0000305175781 161.7249755859375 425.06549072265625 159.49554443359375 C 424.33172607421875 160.0201416015625 423.8125915527344 159.94627380371094 426.3562927246094 158.63352966308594 C 424.70880126953125 161.3590087890625 423.09423828125 160.6818084716797 425.3441467285156 159.98178100585938" stroke-width="0.0" fill="rgb(208, 206, 207)" opacity="0.99792784"/>
    <path d="M 159.90304565429688 528.0964965820312 C 159.8298797607422 528.07421875 160.2797393798828 526.2225341796875 158.27944946289062 526.3760375976562 C 160.06613159179688 526.0034790039062 162.2185821533203 528.4439086914062 159.81668090820312 528.7409057617188 C 157.4558563232422 526.618896484375 159.17031860351562 526.0282592773438 156.9365997314453 524.012939453125 C 156.2209014892578 524.3294677734375 155.1616973876953 524.1779174804688 159.90304565429688 528.0964965820312" stroke-width="0.0" fill="rgb(213, 211, 212)" opacity="0.9971173"/>
    <path d="M 98.1495132446289 520.0941772460938 C 100.43013763427734 522.4629516601562 100.40553283691406 522.3207397460938 100.25772094726562 522.680419921875 C 102.6046371459961 523.4266967773438 104.34292602539062 521.33935546875 106.60530853271484 520.42333984375 C 108.35211181640625 520.6162719726562 108.92913818359375 519.4576416015625 109.13277435302734 516.2620849609375 C 107.43374633789062 517.899658203125 105.29743194580078 518.1434936523438 98.1495132446289 520.0941772460938" stroke-width="0.0" fill="rgb(0, 0, 0)" opacity="1.0"/>
    <path d="M 230.55764770507812 101.21350860595703 C 232.13983154296875 100.04674530029297 233.1841278076172 100.43108367919922 234.3315887451172 101.94261169433594 C 232.56005859375 102.83003234863281 230.14988708496094 104.57813262939453 230.15089416503906 103.46070098876953 C 231.4420166015625 105.12677001953125 232.14479064941406 107.47911834716797 231.1328582763672 108.95091247558594 C 234.01600646972656 109.51309204101562 233.64767456054688 106.65232849121094 230.55764770507812 101.21350860595703" stroke-width="0.0" fill="rgb(31, 31, 32)" opacity="1.0"/>
    <path d="M 406.06231689453125 160.6296844482422 C 404.1600341796875 160.78204345703125 402.9967956542969 160.1411895751953 403.8780517578125 159.14125061035156 C 403.4599914550781 160.4676055908203 402.1630859375 160.89366149902344 401.5608825683594 161.2674102783203 C 400.6716003417969 160.03585815429688 400.636474609375 160.11898803710938 401.8768615722656 158.7278289794922 C 402.387451171875 160.665283203125 403.1730651855469 162.48446655273438 406.06231689453125 160.6296844482422" stroke-width="0.0" fill="rgb(224, 225, 224)" opacity="0.9944965"/>
    <path d="M 322.8429870605469 86.27521514892578 C 324.5050048828125 87.48694610595703 324.8509826660156 87.62725830078125 323.17889404296875 89.26519012451172 C 322.522705078125 90.43751525878906 322.2591247558594 92.24640655517578 322.96759033203125 92.54608917236328 C 320.8128356933594 94.57243347167969 322.066650390625 94.39117431640625 325.1287841796875 95.76993560791016 C 324.65771484375 95.54932403564453 325.91961669921875 93.7026138305664 322.8429870605469 86.27521514892578" stroke-width="0.0" fill="rgb(0, 0, 0)" opacity="1.0"/>
    <path d="M 128.54931640625 571.0718383789062 C 127.6996841430664 569.4208984375 130.47158813476562 570.295166015625 128.3409881591797 572.6558227539062 C 127.02517700195312 571.7586669921875 128.64068603515625 568.5674438476562 126.88745880126953 566.5592651367188 C 126.35979461669922 567.9132690429688 125.19342803955078 569.6434326171875 122.81964111328125 568.768798828125 C 124.82610321044922 565.1369018554688 123.77393341064453 567.7015380859375 128.54931640625 571.0718383789062" stroke-width="0.0" fill="rgb(0, 0, 0)" opacity="1.0"/>
    <path d="M 116.86096954345703 47.9534797668457 C 115.13633728027344 47.98883056640625 115.40384674072266 45.566734313964844 117.83133697509766 46.649139404296875 C 120.29753875732422 44.77614974975586 117.97469329833984 42.2684326171875 118.54874420166016 40.142906188964844 C 118.97383880615234 38.139400482177734 119.15846252441406 36.31074142456055 118.62769317626953 35.38193893432617 C 116.19239044189453 35.388641357421875 114.30280303955078 35.93446350097656 116.86096954345703 47.9534797668457" stroke-width="0.0" fill="rgb(230, 229, 230)" opacity="0.99242514"/>
    <path d="M 291.20404052734375 326.5835876464844 C 294.7920227050781 326.8254089355469 296.1444396972656 324.9832763671875 295.992919921875 324.2738952636719 C 294.66546630859375 325.0210266113281 294.3558044433594 323.14837646484375 294.1252746582031 325.2923889160156 C 294.5252380371094 326.3868408203125 296.2296447753906 324.00897216796875 293.6478271484375 321.99810791015625 C 294.47406005859375 322.11737060546875 293.384521484375 321.2599792480469 291.20404052734375 326.5835876464844" stroke-width="0.0" fill="rgb(0, 0, 0)" opacity="1.0"/>
    <path d="M 454.3371276855469 183.3638458251953 C 451.97216796875 184.13665771484375 449.7366027832031 186.36256408691406 451.02294921875 187.5220947265625 C 450.0993347167969 189.73678588867188 449.22064208984375 186.99691772460938 450.0087585449219 186.76937866210938 C 449.7776794433594 186.1754913330078 451.6667785644531 186.72621154785156 450.8354797363281 189.33590698242188 C 453.6350402832031 189.8006134033203 454.6427917480469 188.1690216064453 454.3371276855469 183.3638458251953" stroke-width="0.0" fill="rgb(0, 0, 0)" opacity="1.0"/>
    <path d="M 103.64765930175781 83.53431701660156 C 101.7418441772461 83.34239196777344 101.71385955810547 82.58247375488281 102.54935455322266 85.56983947753906 C 101.39501190185547 86.04339599609375 102.81458282470703 86.48748779296875 100.85232543945312 83.20378875732422 C 98.0455551147461 84.54034423828125 99.42932891845703 85.41059875488281 98.30049896240234 85.4734878540039 C 96.79985046386719 85.69900512695312 98.16636657714844 86.59593200683594 103.64765930175781 83.53431701660156" stroke-width="0.0" fill="rgb(6, 7, 7)" opacity="1.0"/>
    <path d="M 471.0122985839844 497.9807434082031 C 473.423583984375 498.3230895996094 471.6102294921875 497.0907287597656 471.46795654296875 499.2711181640625 C 470.220947265625 500.3638916015625 468.1837463378906 501.03021240234375 468.5535583496094 500.90765380859375 C 470.11944580078125 502.1112365722656 472.5025329589844 500.0469055175781 471.5518493652344 498.0229187011719 C 469.7671813964844 497.4222106933594 471.9896545410156 498.20880126953125 471.0122985839844 497.9807434082031" stroke-width="0.0" fill="rgb(222, 222, 221)" opacity="0.99753356"/>
    <path d="M 256.78094482421875 236.75572204589844 C 256.0279846191406 238.06675720214844 258.3551330566406 237.63555908203125 259.6046447753906 236.3241729736328 C 258.5304870605469 237.95855712890625 260.2856140136719 237.29258728027344 261.1380310058594 236.16604614257812 C 262.4667663574219 233.79296875 264.0369873046875 233.1665802001953 264.2919921875 233.62771606445312 C 264.7591857910156 235.7960205078125 267.1004638671875 235.8861541748047 256.78094482421875 236.75572204589844" stroke-width="0.0" fill="rgb(215, 214, 215)" opacity="0.99293965"/>
    <path d="M 531.727294921875 325.2067565917969 C 533.0878295898438 327.8264465332031 532.5376586914062 327.49163818359375 530.2411499023438 328.097900390625 C 531.0726928710938 327.225341796875 529.1339721679688 329.15460205078125 526.5142211914062 325.59088134765625 C 529.27783203125 324.80419921875 531.4339599609375 325.76123046875 530.2451171875 326.9748840332031 C 528.76611328125 328.04071044921875 530.3511352539062 325.8802185058594 531.727294921875 325.2067565917969" stroke-width="0.0" fill="rgb(0, 0, 0)" opacity="1.0"/>
    <path d="M 226.36399841308594 527.2075805664062 C 224.2522430419922 526.2972412109375 223.60369873046875 527.4548950195312 224.96966552734375 528.3438110351562 C 224.27061462402344 530.7613525390625 222.1980438232422 529.67529296875 222.4784698486328 532.5811157226562 C 220.1881866455078 530.7902221679688 221.2575225830078 529.8983154296875 219.51170349121094 527.0302734375 C 222.36476135253906 529.275390625 220.93655395507812 528.3003540039062 226.36399841308594 527.2075805664062" stroke-width="0.0" fill="rgb(155, 155, 153)" opacity="1.0"/>
    <path d="M 114.50936889648438 274.1256103515625 C 113.24237060546875 277.1958923339844 114.47013854980469 278.96600341796875 113.35513305664062 280.251953125 C 111.17189025878906 279.5511474609375 112.18888092041016 277.3769226074219 111.03073120117188 278.59271240234375 C 111.61811065673828 280.0949401855469 109.13925170898438 280.1446228027344 107.97431182861328 279.9483947753906 C 106.29835510253906 277.81622314453125 107.63241577148438 275.8547668457031 114.50936889648438 274.1256103515625" stroke-width="0.0" fill="rgb(9, 10, 10)" opacity="1.0"/>
    <path d="M 319.1310119628906 522.097412109375 C 318.6398010253906 522.7737426757812 316.8344421386719 524.3806762695312 316.2076110839844 523.8800048828125 C 317.5978698730469 522.9974365234375 317.13897705078125 523.5994262695312 315.4437561035156 522.3543701171875 C 316.16326904296875 523.0150756835938 314.89178466796875 524.7158203125 315.2641906738281 524.0368041992188 C 315.0706787109375 526.1766967773438 316.83624267578125 525.37060546875 319.1310119628906 522.097412109375" stroke-width="0.0" fill="rgb(253, 253, 254)" opacity="0.9935005"/>
    <path d="M 7.640195369720459 3.091975212097168 C 6.714923858642578 3.768937587738037 5.290995121002197 2.3696062564849854 4.081290245056152 4.228575229644775 C 5.173811435699463 3.2190937995910645 6.627624034881592 2.5891005992889404 7.062786102294922 5.200831890106201 C 5.316241264343262 4.627711296081543 4.429910182952881 2.9724531173706055 5.87199592590332 2.2502219676971436 C 8.074117660522461 3.763087749481201 9.400103569030762 6.21577262878418 7.640195369720459 3.091975212097168" stroke-width="0.0" fill="rgb(253, 253, 253)" opacity="0.9940478"/>
    <path d="M 268.0928649902344 540.9778442382812 C 269.15570068359375 542.803466796875 266.9457702636719 543.6580810546875 266.0226135253906 544.8145751953125 C 268.3075866699219 542.984375 266.01153564453125 543.7417602539062 267.7463684082031 544.2560424804688 C 266.9847412109375 544.2277221679688 268.8761901855469 543.2044067382812 267.7765197753906 545.2060546875 C 268.8147888183594 543.4738159179688 267.2215270996094 543.252197265625 268.0928649902344 540.9778442382812" stroke-width="0.0" fill="rgb(252, 252, 253)" opacity="0.99388087"/>
    <path d="M 156.83633422851562 375.37957763671875 C 158.32931518554688 375.47869873046875 156.5009002685547 375.3650207519531 158.9308319091797 375.2299499511719 C 160.67178344726562 374.1981201171875 159.68699645996094 376.300048828125 159.3950653076172 374.24835205078125 C 157.5237274169922 375.5447692871094 159.5897216796875 374.8979797363281 159.6450958251953 375.718505859375 C 161.49969482421875 376.9179992675781 163.8544158935547 377.08770751953125 156.83633422851562 375.37957763671875" stroke-width="0.0" fill="rgb(230, 230, 230)" opacity="0.9995389"/>
    <path d="M 496.1444396972656 454.9845275878906 C 496.2812805175781 457.213134765625 494.4088439941406 458.4450988769531 492.6408996582031 456.6202392578125 C 491.8022766113281 455.7079772949219 492.3036193847656 456.87188720703125 493.5299377441406 455.2935791015625 C 493.8582763671875 456.3544616699219 491.8529357910156 458.4383544921875 491.8125305175781 457.88385009765625 C 492.35784912109375 455.8338928222656 493.9520568847656 456.6446533203125 496.1444396972656 454.9845275878906" stroke-width="0.0" fill="rgb(239, 239, 239)" opacity="0.99501795"/>
    <path d="M 102.26127624511719 364.38653564453125 C 101.54411315917969 363.6570739746094 102.7555923461914 363.36712646484375 103.54762268066406 365.53912353515625 C 105.23365783691406 367.1556701660156 107.40182495117188 365.55133056640625 107.05683898925781 363.4867248535156 C 104.26630401611328 361.07562255859375 106.03754425048828 361.5129699707031 106.22313690185547 359.67620849609375 C 108.44755554199219 360.627197265625 109.89756774902344 360.7219543457031 102.26127624511719 364.38653564453125" stroke-width="0.0" fill="rgb(0, 0, 0)" opacity="1.0"/>
    <path d="M 158.60682678222656 417.42279052734375 C 158.8211669921875 415.48638916015625 159.59439086914062 413.1505432128906 160.88829040527344 410.6551208496094 C 159.28733825683594 409.056396484375 160.22727966308594 406.86138916015625 158.05545043945312 407.2698669433594 C 157.09498596191406 407.2206115722656 155.7949981689453 405.49957275390625 154.3850555419922 406.225830078125 C 152.88145446777344 406.98614501953125 151.5770721435547 408.9808044433594 158.60682678222656 417.42279052734375" stroke-width="0.0" fill="rgb(224, 223, 223)" opacity="0.9932316"/>
    <path d="M 96.3918228149414 274.1186218261719 C 94.56724548339844 275.9204406738281 93.34823608398438 273.5946350097656 94.56620025634766 273.2152099609375 C 96.79310607910156 271.7886657714844 96.4789047241211 270.95428466796875 93.96395111083984 271.5228271484375 C 95.2098617553711 273.3866271972656 97.77179718017578 271.8040466308594 95.65904998779297 274.13787841796875 C 95.74981689453125 271.8795471191406 94.25755310058594 273.5380859375 96.3918228149414 274.1186218261719" stroke-width="0.0" fill="rgb(167, 166, 167)" opacity="1.0"/>
    <path d="M 565.6895751953125 54.67578125 C 564.2109375 51.809505462646484 565.0782470703125 50.96818161010742 563.4010620117188 50.84444808959961 C 565.254150390625 49.74825668334961 568.5397338867188 50.55940628051758 570.8114624023438 49.05234909057617 C 568.6617431640625 45.63983154296875 570.9555053710938 47.836219787597656 568.2530517578125 45.710716247558594 C 568.0595092773438 45.948123931884766 566.3082885742188 47.17603302001953 565.6895751953125 54.67578125" stroke-width="0.0" fill="rgb(0, 0, 0)" opacity="1.0"/>
    <path d="M 243.04986572265625 576.9524536132812 C 241.36239624023438 576.9534912109375 242.26803588867188 576.1698608398438 240.69015502929688 575.7716064453125 C 239.88760375976562 576.24560546875 241.59066772460938 575.665283203125 243.45326232910156 575.3674926757812 C 245.71290588378906 575.9403686523438 244.036865234375 575.687255859375 243.32864379882812 577.2611694335938 C 243.52276611328125 577.638427734375 245.18455505371094 577.79052734375 243.04986572265625 576.9524536132812" stroke-width="0.0" fill="rgb(252, 252, 253)" opacity="0.9943872"/>
    <path d="M 145.0062255859375 370.04315185546875 C 146.2163848876953 367.94281005859375 145.4333038330078 366.7649230957031 144.79730224609375 367.4278564453125 C 142.5851287841797 368.5584716796875 142.2239532470703 368.9731750488281 140.87623596191406 370.0060119628906 C 139.27899169921875 372.17913818359375 137.32618713378906 374.3172607421875 139.4947967529297 373.5908203125 C 141.2988739013672 374.9317932128906 143.48143005371094 374.2705993652344 145.0062255859375 370.04315185546875" stroke-width="0.0" fill="rgb(211, 209, 210)" opacity="0.9944158"/>
    <path d="M 490.1087951660156 350.91424560546875 C 490.52734375 348.66351318359375 492.8078308105469 351.2257080078125 492.3065490722656 353.51300048828125 C 490.5803527832031 354.38311767578125 492.337646484375 354.5035705566406 490.42401123046875 355.1046142578125 C 488.4497985839844 355.7694396972656 490.4478454589844 355.8995361328125 490.0922546386719 358.1358947753906 C 488.93084716796875 355.82269287109375 490.9324645996094 355.6722412109375 490.1087951660156 350.91424560546875" stroke-width="0.0" fill="rgb(201, 200, 200)" opacity="0.9929154"/>
    <path d="M 151.24954223632812 73.55110931396484 C 151.11859130859375 73.86463165283203 152.26254272460938 74.2551040649414 152.5501251220703 76.261962890625 C 155.24012756347656 76.19752502441406 156.53602600097656 73.69358825683594 155.91973876953125 73.29734802246094 C 156.8749237060547 70.80636596679688 155.3107452392578 72.32981872558594 153.68540954589844 70.13064575195312 C 153.87557983398438 69.34540557861328 152.26568603515625 69.73448181152344 151.24954223632812 73.55110931396484" stroke-width="0.0" fill="rgb(0, 0, 0)" opacity="1.0"/>
    <path d="M 239.3942108154297 378.340576171875 C 237.01771545410156 376.9171447753906 235.6083526611328 379.536376953125 234.19314575195312 377.7927551269531 C 235.75401306152344 378.24481201171875 236.0150146484375 378.6841735839844 235.75469970703125 379.4788818359375 C 235.1763153076172 379.13653564453125 235.1770477294922 380.7805480957031 233.7650146484375 380.1163024902344 C 232.92698669433594 380.71160888671875 234.10813903808594 380.2348937988281 239.3942108154297 378.340576171875" stroke-width="0.0" fill="rgb(224, 223, 222)" opacity="0.9964138"/>
    <path d="M 68.25249481201172 9.604580879211426 C 65.93083190917969 7.485579967498779 68.6067123413086 5.820520877838135 69.2474365234375 8.029370307922363 C 69.77397155761719 5.768492221832275 73.28868103027344 6.2927961349487305 73.08965301513672 9.446428298950195 C 71.3375244140625 11.899843215942383 69.41809844970703 11.244036674499512 67.88484954833984 9.229004859924316 C 70.1853256225586 10.302847862243652 72.5030746459961 10.017328262329102 68.25249481201172 9.604580879211426" stroke-width="0.0" fill="rgb(0, 0, 0)" opacity="1.0"/>
    <path d="M 480.1628112792969 256.6582946777344 C 478.1813659667969 254.64459228515625 479.26708984375 252.27725219726562 481.34991455078125 252.91123962402344 C 481.8098449707031 255.8782196044922 480.2314758300781 257.0164794921875 481.6842346191406 255.3450469970703 C 481.1532897949219 258.18701171875 483.2386779785156 260.4527587890625 483.673583984375 258.98785400390625 C 483.39678955078125 256.92205810546875 480.5771484375 257.9187316894531 480.1628112792969 256.6582946777344" stroke-width="0.0" fill="rgb(0, 0, 0)" opacity="1.0"/>
    <path d="M 128.60647583007812 554.06396484375 C 130.817138671875 556.4826049804688 128.8201141357422 553.6016235351562 130.0939483642578 556.3553466796875 C 131.88621520996094 555.7579345703125 132.51199340820312 555.76025390625 133.27011108398438 558.0772705078125 C 133.9520263671875 556.0074462890625 135.0067901611328 556.6570434570312 137.16110229492188 557.2946166992188 C 138.31777954101562 554.1008911132812 136.77313232421875 553.8527221679688 128.60647583007812 554.06396484375" stroke-width="0.0" fill="rgb(0, 0, 0)" opacity="1.0"/>
    <path d="M 416.0021667480469 427.0079650878906 C 414.1131896972656 427.90521240234375 412.60791015625 427.0595397949219 414.7397155761719 428.9861755371094 C 413.20770263671875 428.85321044921875 413.6600036621094 428.18548583984375 414.754638671875 428.5295104980469 C 416.8495788574219 426.7298889160156 415.4374084472656 428.670654296875 414.4624938964844 427.060546875 C 412.8615417480469 428.6825866699219 413.63720703125 428.0856018066406 416.0021667480469 427.0079650878906" stroke-width="0.0" fill="rgb(249, 249, 249)" opacity="0.99606705"/>
    <path d="M 271.37353515625 316.7174377441406 C 271.22882080078125 319.2279357910156 268.5038757324219 318.4975280761719 269.2964172363281 318.02960205078125 C 266.583984375 317.261474609375 265.4499206542969 319.2633361816406 266.90240478515625 319.5898132324219 C 268.760986328125 320.2348327636719 266.7161560058594 318.7581787109375 268.11761474609375 320.902099609375 C 268.6951904296875 321.5879211425781 267.1379089355469 322.6232604980469 271.37353515625 316.7174377441406" stroke-width="0.0" fill="rgb(3, 3, 2)" opacity="1.0"/>
    <path d="M 297.6882629394531 277.1630554199219 C 296.2066650390625 279.8690185546875 295.70159912109375 279.3770751953125 295.1220397949219 280.19329833984375 C 296.5692138671875 277.7836608886719 297.9365539550781 279.2972106933594 295.3580322265625 280.41168212890625 C 293.5577087402344 279.5085754394531 293.29608154296875 279.7827453613281 294.1322326660156 278.0615539550781 C 292.59649658203125 277.6302795410156 293.64532470703125 276.2672119140625 297.6882629394531 277.1630554199219" stroke-width="0.0" fill="rgb(0, 0, 0)" opacity="1.0"/>
    <path d="M 315.4775390625 481.4436340332031 C 314.98431396484375 484.039794921875 316.9736328125 485.9132080078125 314.2042236328125 488.0442199707031 C 315.3520812988281 485.54949951171875 313.3680725097656 487.0323181152344 312.9403991699219 486.1327819824219 C 313.3184509277344 488.5143737792969 313.63134765625 486.4592590332031 312.3257751464844 484.48504638671875 C 312.32879638671875 484.252685546875 312.2436218261719 486.0454406738281 315.4775390625 481.4436340332031" stroke-width="0.0" fill="rgb(247, 247, 247)" opacity="1.0"/>
    <path d="M 274.05303955078125 507.84710693359375 C 275.250732421875 509.87274169921875 275.8481140136719 509.9808349609375 277.1512145996094 510.1482849121094 C 275.8846740722656 510.1944274902344 278.23046875 508.2656555175781 280.0996398925781 507.8474426269531 C 282.08544921875 509.9468994140625 282.21527099609375 510.9768981933594 280.89312744140625 509.97442626953125 C 280.6046142578125 510.478271484375 281.7247314453125 509.8085021972656 274.05303955078125 507.84710693359375" stroke-width="0.0" fill="rgb(252, 253, 253)" opacity="0.9921964"/>
    <path d="M 240.06002807617188 10.283824920654297 C 242.0200653076172 11.96291732788086 240.38873291015625 10.678088188171387 242.3436279296875 8.217201232910156 C 242.87057495117188 7.275412082672119 243.50775146484375 9.115275382995605 243.7093963623047 8.277750015258789 C 246.1096649169922 7.995941162109375 247.24017333984375 5.678481101989746 247.7345733642578 7.259692668914795 C 249.25669860839844 5.590061664581299 251.2302703857422 8.419291496276855 240.06002807617188 10.283824920654297" stroke-width="0.0" fill="rgb(214, 212, 214)" opacity="0.9920686"/>
    <path d="M 189.66233825683594 544.9331665039062 C 189.18731689453125 542.9129638671875 190.52684020996094 541.2162475585938 188.92657470703125 541.7965087890625 C 188.72909545898438 541.8414306640625 188.061279296875 539.4732055664062 188.42092895507812 540.0952758789062 C 190.6903076171875 538.5631713867188 191.8540802001953 536.9666137695312 194.03155517578125 538.2319946289062 C 194.55886840820312 538.7515258789062 196.19703674316406 537.2123413085938 189.66233825683594 544.9331665039062" stroke-width="0.0" fill="rgb(223, 222, 222)" opacity="0.9932855"/>
    <path d="M 474.21917724609375 460.8555603027344 C 473.6506652832031 458.9292907714844 473.5994873046875 460.3080749511719 475.6552734375 460.2568359375 C 475.7450866699219 458.2026672363281 476.3330383300781 459.4791259765625 474.1640319824219 461.69207763671875 C 472.1852722167969 461.6078186035156 470.9141845703125 461.53314208984375 469.2752380371094 461.57269287109375 C 467.8225402832031 459.53387451171875 465.6103820800781 459.6324768066406 474.21917724609375 460.8555603027344" stroke-width="0.0" fill="rgb(240, 240, 240)" opacity="0.99362075"/>
    <path d="M 83.90926361083984 264.84967041015625 C 80.67627716064453 264.6828308105469 80.81932830810547 266.5370788574219 81.02928924560547 265.3890380859375 C 83.11638641357422 265.308837890625 82.24187469482422 266.0443115234375 81.58744812011719 267.0470886230469 C 80.14169311523438 269.02325439453125 78.29153442382812 270.926513671875 77.04359436035156 272.492431640625 C 77.7401123046875 272.7742919921875 78.05341339111328 272.793212890625 83.90926361083984 264.84967041015625" stroke-width="0.0" fill="rgb(4, 4, 4)" opacity="0.9901941"/>
    <path d="M 445.29058837890625 356.5186767578125 C 446.25396728515625 357.5836486816406 446.8360900878906 354.9776306152344 448.6123962402344 353.7543640136719 C 452.065673828125 353.89739990234375 449.99822998046875 355.05487060546875 451.3842468261719 356.8952331542969 C 448.6246643066406 356.9598693847656 447.7124328613281 358.77239990234375 445.4581604003906 358.8560791015625 C 445.4400634765625 358.6857604980469 444.8208312988281 360.5647277832031 445.29058837890625 356.5186767578125" stroke-width="0.0" fill="rgb(101, 101, 102)" opacity="1.0"/>
    <path d="M 140.03221130371094 211.82435607910156 C 137.67103576660156 209.5593719482422 139.03028869628906 208.26397705078125 141.1888885498047 210.08187866210938 C 139.01266479492188 210.4492645263672 137.6024932861328 209.5572052001953 139.4913787841797 210.0991668701172 C 137.3339385986328 210.4162139892578 138.6057586669922 210.10577392578125 138.86639404296875 211.60035705566406 C 140.26309204101562 209.6294708251953 141.87680053710938 210.0276641845703 140.03221130371094 211.82435607910156" stroke-width="0.0" fill="rgb(206, 204, 205)" opacity="0.9928592"/>
    <path d="M 568.6753540039062 114.45223999023438 C 568.0361328125 115.491943359375 567.8465576171875 113.15355682373047 569.8316650390625 115.29212951660156 C 569.6563110351562 115.19900512695312 571.6848754882812 116.51583862304688 573.3101806640625 117.19001770019531 C 571.6329956054688 118.11769104003906 570.6329956054688 120.32373046875 570.498779296875 121.84134674072266 C 570.8274536132812 121.06298065185547 573.3248901367188 122.84415435791016 568.6753540039062 114.45223999023438" stroke-width="0.0" fill="rgb(2, 2, 2)" opacity="0.99011344"/>
    <path d="M 486.4637145996094 461.1444091796875 C 486.83135986328125 461.6155700683594 485.98297119140625 463.6974792480469 486.2068176269531 465.20526123046875 C 484.7686767578125 467.6831359863281 483.03570556640625 468.7692565917969 482.3114318847656 467.94549560546875 C 480.3424377441406 466.747314453125 482.3194885253906 466.79901123046875 482.9908142089844 465.7642822265625 C 482.13623046875 466.47113037109375 483.9578857421875 467.0939636230469 486.4637145996094 461.1444091796875" stroke-width="0.0" fill="rgb(230, 230, 230)" opacity="0.99316156"/>
    <path d="M 194.7952423095703 396.1393127441406 C 197.04551696777344 396.69219970703125 198.20553588867188 396.6531677246094 199.91094970703125 398.93035888671875 C 201.3272705078125 399.0525207519531 199.11334228515625 400.06561279296875 200.12612915039062 398.6080322265625 C 199.5809783935547 400.98712158203125 201.52783203125 399.7655334472656 199.95962524414062 399.97021484375 C 201.6075439453125 401.6429138183594 200.71609497070312 399.2414855957031 194.7952423095703 396.1393127441406" stroke-width="0.0" fill="rgb(115, 113, 114)" opacity="0.9923009"/>
    <path d="M 404.1089782714844 457.8819580078125 C 404.3650817871094 459.6319274902344 403.6879577636719 457.49383544921875 406.4156799316406 456.2598571777344 C 406.9449462890625 458.81689453125 408.6651611328125 456.778076171875 410.14801025390625 457.6753845214844 C 412.45074462890625 458.7606506347656 410.94879150390625 461.393798828125 409.735595703125 463.9535217285156 C 411.9244689941406 464.91876220703125 410.2409362792969 463.3859558105469 404.1089782714844 457.8819580078125" stroke-width="0.0" fill="rgb(0, 0, 0)" opacity="1.0"/>
    <path d="M 307.424560546875 503.71844482421875 C 310.1380310058594 504.78717041015625 307.91571044921875 505.7188720703125 307.8190002441406 504.8544616699219 C 307.046142578125 505.3447265625 306.6446228027344 507.9736633300781 307.85223388671875 508.8124694824219 C 307.9123840332031 509.2994689941406 310.2970275878906 510.413330078125 307.28564453125 511.1927490234375 C 308.1653747558594 510.7117919921875 310.0509338378906 508.43585205078125 307.424560546875 503.71844482421875" stroke-width="0.0" fill="rgb(5, 6, 5)" opacity="0.9906515"/>
  </g>
</svg>
