<?xml version="1.0" ?>
<svg xmlns="http://www.w3.org/2000/svg" version="1.1" width="600" height="600">
  <defs/>
  <g>
    <path d="M 237.8704376220703 305.7716064453125 C 237.1144561767578 309.24627685546875 235.2382354736328 311.0932922363281 231.8957061767578 311.8483581542969 C 228.75030517578125 311.1136169433594 226.8672637939453 309.25726318359375 226.12017822265625 306.5040588378906 C 226.90423583984375 302.7635803222656 228.7623291015625 300.9008483886719 232.1000518798828 300.15460205078125 C 235.21043395996094 300.9234619140625 237.10830688476562 302.7763366699219 237.8704376220703 305.7716064453125" stroke-width="0.0" fill="rgb(1, 1, 2)" opacity="1.0"/>
    <path d="M 436.8378601074219 403.47314453125 C 436.1270446777344 406.2640380859375 434.2649230957031 408.12957763671875 431.193359375 408.87628173828125 C 427.7366638183594 408.1188049316406 425.8661193847656 406.2692565917969 425.1475524902344 403.4570617675781 C 425.9367980957031 399.8072204589844 427.81036376953125 397.9446105957031 431.3621520996094 397.1590881347656 C 434.22760009765625 397.899169921875 436.060546875 399.7870178222656 436.8378601074219 403.47314453125" stroke-width="0.0" fill="rgb(0, 0, 1)" opacity="1.0"/>
    <path d="M 159.33299255371094 520.9971313476562 C 158.58877563476562 523.7479858398438 156.74478149414062 525.5763549804688 153.9925537109375 526.115234375 C 151.314208984375 525.51708984375 149.48126220703125 523.6867065429688 148.94369506835938 520.9981689453125 C 149.541748046875 518.3915405273438 151.4071502685547 516.5913696289062 153.95437622070312 515.801025390625 C 156.58981323242188 516.626220703125 158.5292205810547 518.3630981445312 159.33299255371094 520.9971313476562" stroke-width="0.0" fill="rgb(202, 201, 199)" opacity="0.9915427"/>
    <path d="M 307.1768798828125 169.0664825439453 C 306.5804443359375 171.74655151367188 304.7510070800781 173.5955047607422 302.019287109375 174.30401611328125 C 299.2989807128906 173.55477905273438 297.4793701171875 171.6906280517578 296.7293701171875 168.93125915527344 C 297.38677978515625 166.2474365234375 299.25433349609375 164.40875244140625 301.9696044921875 163.72720336914062 C 304.69390869140625 164.44464111328125 306.490234375 166.32574462890625 307.1768798828125 169.0664825439453" stroke-width="0.0" fill="rgb(196, 195, 193)" opacity="0.992461"/>
    <path d="M 306.1614074707031 240.45855712890625 C 306.9681396484375 243.18226623535156 305.2286682128906 245.11485290527344 302.3355407714844 245.86578369140625 C 298.86737060546875 245.06192016601562 297.21826171875 243.0377197265625 296.8491516113281 240.152587890625 C 297.5282287597656 237.2559051513672 299.0964050292969 235.0878143310547 302.4261779785156 234.1348419189453 C 305.1733093261719 234.91404724121094 306.7220458984375 236.9235076904297 306.1614074707031 240.45855712890625" stroke-width="0.0" fill="rgb(4, 4, 4)" opacity="0.9902864"/>
    <path d="M 535.3564453125 438.8690490722656 C 534.416259765625 441.6381530761719 532.6755981445312 443.5459899902344 530.0737915039062 444.220703125 C 527.351318359375 443.4876403808594 525.5609130859375 441.63458251953125 524.6210327148438 438.6830139160156 C 525.1384887695312 436.0206604003906 527.0569458007812 434.2555236816406 529.9467163085938 433.76885986328125 C 532.6146850585938 434.5210266113281 534.4773559570312 436.3862609863281 535.3564453125 438.8690490722656" stroke-width="0.0" fill="rgb(210, 209, 207)" opacity="0.9919707"/>
    <path d="M 516.8687133789062 205.6288299560547 C 516.0676879882812 209.1428985595703 514.05419921875 210.80645751953125 510.380859375 211.7608184814453 C 507.7464599609375 211.12496948242188 505.9001770019531 209.24339294433594 505.12353515625 205.7109375 C 505.8749084472656 202.74664306640625 507.7498779296875 200.88319396972656 511.1825256347656 200.13311767578125 C 514.2623901367188 200.87425231933594 516.13037109375 202.7359161376953 516.8687133789062 205.6288299560547" stroke-width="0.0" fill="rgb(2, 2, 3)" opacity="1.0"/>
    <path d="M 333.2866516113281 127.04552459716797 C 332.5030517578125 129.6411590576172 330.635009765625 131.48281860351562 327.9319152832031 132.30828857421875 C 325.22589111328125 131.61849975585938 323.383056640625 129.7737274169922 322.7741394042969 127.1268081665039 C 323.6637268066406 124.49803161621094 325.49969482421875 122.6697769165039 328.0074768066406 121.99495697021484 C 330.5460510253906 122.63842010498047 332.4300231933594 124.433349609375 333.2866516113281 127.04552459716797" stroke-width="0.0" fill="rgb(202, 200, 198)" opacity="0.99287"/>
    <path d="M 181.88722229003906 330.9635009765625 C 181.14736938476562 334.2828369140625 179.27651977539062 336.1311340332031 176.141357421875 336.8699035644531 C 172.74789428710938 336.1084289550781 170.86825561523438 334.26153564453125 170.1246795654297 330.8301086425781 C 170.8634033203125 327.72528076171875 172.7220458984375 325.8553771972656 175.80906677246094 325.1092529296875 C 179.25634765625 325.8744812011719 181.12158203125 327.7453918457031 181.88722229003906 330.9635009765625" stroke-width="0.0" fill="rgb(2, 2, 2)" opacity="1.0"/>
    <path d="M 362.2564392089844 100.9588623046875 C 361.4841003417969 103.64584350585938 359.64007568359375 105.46189880371094 356.9722900390625 105.86710357666016 C 354.3208312988281 105.50843048095703 352.53594970703125 103.6669692993164 352.09466552734375 100.8791732788086 C 352.54132080078125 98.41226196289062 354.43438720703125 96.61351013183594 357.0617980957031 95.80720520019531 C 359.6958312988281 96.4720458984375 361.54534912109375 98.29899597167969 362.2564392089844 100.9588623046875" stroke-width="0.0" fill="rgb(224, 222, 220)" opacity="1.0"/>
    <path d="M 426.18927001953125 524.0993041992188 C 425.616455078125 526.766357421875 423.763671875 528.6083984375 421.0781555175781 529.2171630859375 C 418.28546142578125 528.5423583984375 416.4298400878906 526.72265625 415.65924072265625 523.962646484375 C 416.40191650390625 521.2548217773438 418.26214599609375 519.4263305664062 420.94146728515625 518.7523803710938 C 423.5602111816406 519.5863037109375 425.3891296386719 521.4472045898438 426.18927001953125 524.0993041992188" stroke-width="0.0" fill="rgb(196, 194, 193)" opacity="0.99240315"/>
    <path d="M 176.88247680664062 229.58621215820312 C 176.1201629638672 233.269287109375 174.2804718017578 235.14833068847656 171.4889678955078 235.8409881591797 C 167.81690979003906 235.05003356933594 165.9467010498047 233.18421936035156 165.1653289794922 229.9112548828125 C 165.9214630126953 226.80076599121094 167.80824279785156 224.93955993652344 171.02142333984375 224.16395568847656 C 174.24867248535156 224.89732360839844 176.13523864746094 226.73878479003906 176.88247680664062 229.58621215820312" stroke-width="0.0" fill="rgb(3, 4, 4)" opacity="1.0"/>
    <path d="M 57.83848571777344 102.2673568725586 C 57.070011138916016 105.16152954101562 55.07258224487305 106.74533081054688 51.693359375 106.20018768310547 C 48.848880767822266 106.9217758178711 46.892913818359375 105.2102279663086 46.12635040283203 102.29051208496094 C 46.92607879638672 98.7927017211914 48.78264617919922 96.90215301513672 52.329193115234375 96.12289428710938 C 55.228294372558594 96.89248657226562 57.073055267333984 98.78496551513672 57.83848571777344 102.2673568725586" stroke-width="0.0" fill="rgb(2, 2, 3)" opacity="1.0"/>
    <path d="M 141.83502197265625 115.56853485107422 C 141.06947326660156 119.22547149658203 139.24595642089844 121.12422180175781 136.21934509277344 121.87425231933594 C 132.73521423339844 121.1268081665039 130.86549377441406 119.26771545410156 130.1213836669922 116.32070922851562 C 130.91200256347656 112.7839584350586 132.79489135742188 110.94273376464844 136.48817443847656 110.15982055664062 C 139.26461791992188 110.87127685546875 141.1209716796875 112.73847961425781 141.83502197265625 115.56853485107422" stroke-width="0.0" fill="rgb(0, 0, 0)" opacity="1.0"/>
    <path d="M 300.8839416503906 224.03884887695312 C 300.12188720703125 227.2508087158203 298.2476501464844 229.11373901367188 295.2876892089844 229.8563232421875 C 292.0583801269531 228.968505859375 291.1535339355469 226.51234436035156 290.8893127441406 224.19789123535156 C 291.3977355957031 222.17483520507812 293.1756286621094 220.39984130859375 295.4509582519531 219.8872833251953 C 298.09063720703125 219.32144165039062 300.1055908203125 220.80450439453125 300.8839416503906 224.03884887695312" stroke-width="0.0" fill="rgb(9, 9, 8)" opacity="0.9901204"/>
    <path d="M 182.8767852783203 443.8294372558594 C 182.10426330566406 447.236328125 180.23255920410156 449.0941162109375 176.61801147460938 449.8630065917969 C 173.75643920898438 449.119140625 171.90737915039062 447.23333740234375 171.17971801757812 444.04052734375 C 171.91358947753906 440.7762451171875 173.77267456054688 438.9039001464844 177.06382751464844 438.14031982421875 C 180.25006103515625 438.8813781738281 182.1176300048828 440.7506103515625 182.8767852783203 443.8294372558594" stroke-width="0.0" fill="rgb(1, 1, 1)" opacity="1.0"/>
    <path d="M 77.8131332397461 85.78775787353516 C 77.0625228881836 89.20445251464844 75.21692657470703 91.09440612792969 71.8385009765625 91.84634399414062 C 68.74958801269531 91.1175765991211 66.88829803466797 89.248046875 66.1285400390625 85.6847915649414 C 66.87075805664062 82.74205017089844 68.74728393554688 80.88400268554688 72.12308502197266 80.13580322265625 C 75.24226379394531 80.89143371582031 77.10111236572266 82.76033782958984 77.8131332397461 85.78775787353516" stroke-width="0.0" fill="rgb(3, 3, 4)" opacity="1.0"/>
    <path d="M 190.88560485839844 483.6921081542969 C 190.1077880859375 487.2320556640625 188.21978759765625 489.07598876953125 184.77276611328125 489.8281555175781 C 181.78651428222656 489.09429931640625 179.94154357910156 487.1993408203125 179.158203125 483.6094970703125 C 179.88084411621094 480.7345886230469 181.72372436523438 478.8535461425781 184.98597717285156 478.1059875488281 C 188.2849884033203 478.8535461425781 190.1494903564453 480.71368408203125 190.88560485839844 483.6921081542969" stroke-width="0.0" fill="rgb(1, 1, 2)" opacity="1.0"/>
    <path d="M 502.7456359863281 359.64691162109375 C 502.1239318847656 362.2579040527344 500.24932861328125 364.1006774902344 497.5516357421875 364.63629150390625 C 494.04010009765625 363.7362365722656 491.9889831542969 362.0594787597656 491.1585998535156 359.4411926269531 C 492.08245849609375 356.05181884765625 494.17645263671875 354.4489440917969 496.9451599121094 353.9658203125 C 499.5 354.66986083984375 501.3302307128906 356.4999694824219 502.7456359863281 359.64691162109375" stroke-width="0.0" fill="rgb(2, 2, 2)" opacity="1.0"/>
    <path d="M 248.0195770263672 143.00291442871094 C 247.5322723388672 145.70285034179688 245.7094268798828 147.5557403564453 242.9730987548828 148.32180786132812 C 240.25595092773438 147.59088134765625 238.4124755859375 145.74305725097656 237.78028869628906 143.0823974609375 C 238.51991271972656 140.31700134277344 240.2527313232422 138.32102966308594 242.8460235595703 137.5302276611328 C 245.73167419433594 138.4111328125 247.52310180664062 140.2877960205078 248.0195770263672 143.00291442871094" stroke-width="0.0" fill="rgb(213, 212, 210)" opacity="0.99420786"/>
    <path d="M 218.26602172851562 92.97991943359375 C 217.56910705566406 95.72828674316406 215.7255096435547 97.56018829345703 213.0047607421875 98.26708984375 C 210.2799530029297 97.55280303955078 208.4011993408203 95.73413848876953 207.74801635742188 93.1286849975586 C 208.5908966064453 90.4105453491211 210.3890380859375 88.52015686035156 213.0348663330078 87.72709655761719 C 215.7147979736328 88.44508361816406 217.5708770751953 90.28018951416016 218.26602172851562 92.97991943359375" stroke-width="0.0" fill="rgb(210, 208, 206)" opacity="0.99276143"/>
    <path d="M 107.87184143066406 163.91607666015625 C 107.13169860839844 167.27110290527344 105.2726821899414 169.13583374023438 101.89205932617188 169.88409423828125 C 98.72339630126953 169.1497039794922 96.89520263671875 167.2592315673828 96.17967224121094 164.16461181640625 C 96.94819641113281 160.78953552246094 98.760009765625 158.87281799316406 102.16044616699219 158.11070251464844 C 105.24411010742188 158.88192749023438 107.11294555664062 160.75804138183594 107.87184143066406 163.91607666015625" stroke-width="0.0" fill="rgb(1, 2, 2)" opacity="1.0"/>
    <path d="M 348.75775146484375 233.2659912109375 C 346.7421569824219 235.8798065185547 344.81805419921875 237.568359375 342.2085876464844 238.2567596435547 C 339.7523498535156 239.1027374267578 337.87213134765625 237.2571563720703 337.1326599121094 234.29107666015625 C 337.8795471191406 230.73951721191406 339.7386169433594 228.8769073486328 342.7666931152344 228.1626739501953 C 346.2429504394531 228.90121459960938 348.12774658203125 230.74586486816406 348.75775146484375 233.2659912109375" stroke-width="0.0" fill="rgb(2, 2, 2)" opacity="0.99277467"/>
    <path d="M 203.88128662109375 315.3910827636719 C 203.1505584716797 318.2822570800781 201.2689666748047 320.1155700683594 197.9441680908203 320.83453369140625 C 194.78334045410156 320.0948486328125 192.91937255859375 318.2106018066406 192.1322784423828 314.88946533203125 C 192.90049743652344 311.7702331542969 194.77565002441406 309.9151611328125 198.0819854736328 309.1722412109375 C 201.2174530029297 309.92584228515625 203.0970458984375 311.77392578125 203.88128662109375 315.3910827636719" stroke-width="0.0" fill="rgb(1, 1, 2)" opacity="1.0"/>
    <path d="M 324.2604675292969 457.0563659667969 C 323.5623779296875 459.6931457519531 321.6633605957031 461.458251953125 318.9306640625 461.7872314453125 C 316.4615478515625 461.3747863769531 314.67401123046875 459.5235595703125 313.72119140625 456.9791259765625 C 314.4999694824219 454.3450927734375 316.3507995605469 452.5178527832031 319.0226135253906 451.75372314453125 C 321.6932678222656 452.45880126953125 323.51177978515625 454.3157043457031 324.2604675292969 457.0563659667969" stroke-width="0.0" fill="rgb(215, 215, 211)" opacity="0.9933739"/>
    <path d="M 148.8678741455078 219.45944213867188 C 148.122314453125 222.25682067871094 146.25732421875 224.12281799316406 142.7308807373047 224.87905883789062 C 139.750244140625 224.11878967285156 137.87979125976562 222.25047302246094 137.1249542236328 219.2498779296875 C 137.9075927734375 215.7699737548828 139.76307678222656 213.89085388183594 142.7498779296875 213.1681671142578 C 146.214111328125 213.92144775390625 148.078857421875 215.78575134277344 148.8678741455078 219.45944213867188" stroke-width="0.0" fill="rgb(2, 2, 2)" opacity="1.0"/>
    <path d="M 478.5535888671875 201.6231689453125 C 477.85382080078125 205.06427001953125 476.1123046875 207.00367736816406 473.3378601074219 207.58837890625 C 469.89642333984375 206.94895935058594 468.026123046875 205.1114044189453 467.29217529296875 201.81919860839844 C 467.97125244140625 198.8353729248047 469.8422546386719 196.9906005859375 472.9776611328125 196.3231658935547 C 476.1686096191406 196.97100830078125 478.0382385253906 198.82803344726562 478.5535888671875 201.6231689453125" stroke-width="0.0" fill="rgb(171, 171, 173)" opacity="1.0"/>
    <path d="M 362.8495178222656 234.8692626953125 C 362.083740234375 238.22276306152344 360.22869873046875 240.09945678710938 356.5939636230469 240.8740692138672 C 353.75140380859375 240.13343811035156 351.9971923828125 238.2056427001953 352.8690185546875 235.69659423828125 C 353.433349609375 233.2045135498047 355.197509765625 231.41798400878906 356.9127197265625 230.92007446289062 C 358.9643249511719 231.39886474609375 361.9529113769531 232.4024200439453 362.8495178222656 234.8692626953125" stroke-width="0.0" fill="rgb(3, 2, 3)" opacity="0.9900835"/>
    <path d="M 488.88311767578125 282.8554382324219 C 488.0517883300781 286.04345703125 485.6487731933594 286.8566589355469 482.6434020996094 287.148193359375 C 480.19769287109375 287.1112976074219 478.0065002441406 286.021484375 477.18634033203125 282.7065734863281 C 477.8926086425781 279.7467041015625 479.7391052246094 277.8725891113281 482.9893493652344 277.1425476074219 C 486.2569274902344 277.8757019042969 488.1214599609375 279.744384765625 488.88311767578125 282.8554382324219" stroke-width="0.0" fill="rgb(3, 3, 4)" opacity="0.9908558"/>
    <path d="M 140.83990478515625 449.5835266113281 C 140.04383850097656 453.18182373046875 138.19918823242188 455.0876159667969 134.54428100585938 455.8951416015625 C 131.72019958496094 455.1560974121094 129.89193725585938 453.26092529296875 129.1761474609375 450.1815490722656 C 129.9486083984375 446.7967224121094 131.7768096923828 444.8966979980469 134.826416015625 444.16546630859375 C 138.2422637939453 444.9007263183594 140.11297607421875 446.752685546875 140.83990478515625 449.5835266113281" stroke-width="0.0" fill="rgb(0, 0, 0)" opacity="1.0"/>
    <path d="M 192.93521118164062 126.13778686523438 C 192.52249145507812 128.7291717529297 190.77464294433594 130.6659393310547 188.4192657470703 130.25924682617188 C 185.2852020263672 130.4788818359375 183.87326049804688 128.62326049804688 183.63572692871094 125.70376586914062 C 183.64207458496094 123.43700408935547 185.42796325683594 121.60782623291016 188.09165954589844 120.95248413085938 C 190.59861755371094 121.54454040527344 192.3711395263672 123.42497253417969 192.93521118164062 126.13778686523438" stroke-width="0.0" fill="rgb(231, 231, 228)" opacity="1.0"/>
    <path d="M 268.228759765625 102.89408111572266 C 267.4549865722656 105.6511001586914 265.6658935546875 107.50452423095703 262.9159240722656 108.14430236816406 C 260.27874755859375 107.56902313232422 258.4614562988281 105.71220397949219 257.8789367675781 103.04061889648438 C 258.5327453613281 100.36275482177734 260.3445739746094 98.4732437133789 263.0015869140625 97.72836303710938 C 265.7441101074219 98.41075134277344 267.592529296875 100.2551498413086 268.228759765625 102.89408111572266" stroke-width="0.0" fill="rgb(197, 195, 193)" opacity="0.99133706"/>
    <path d="M 209.87350463867188 162.33815002441406 C 209.12757873535156 165.25022888183594 207.2237091064453 167.05174255371094 204.7368621826172 166.15957641601562 C 202.20497131347656 165.56353759765625 200.3359832763672 163.83139038085938 198.52679443359375 161.3072967529297 C 198.90008544921875 158.75921630859375 200.7560272216797 156.89102172851562 203.8618621826172 156.1331024169922 C 207.225830078125 156.9105987548828 209.0930633544922 158.7724609375 209.87350463867188 162.33815002441406" stroke-width="0.0" fill="rgb(4, 4, 5)" opacity="0.9907925"/>
    <path d="M 256.8138427734375 335.5919494628906 C 256.0553894042969 339.21575927734375 254.23667907714844 341.1129150390625 250.95787048339844 341.8690185546875 C 247.7135772705078 341.1418151855469 245.84616088867188 339.2911071777344 245.13424682617188 336.5199279785156 C 245.91896057128906 332.7789611816406 247.77525329589844 330.90899658203125 251.40602111816406 330.1361999511719 C 254.25973510742188 330.8697509765625 256.1041564941406 332.750244140625 256.8138427734375 335.5919494628906" stroke-width="0.0" fill="rgb(1, 1, 1)" opacity="1.0"/>
    <path d="M 294.9007568359375 246.19989013671875 C 294.122314453125 249.23548889160156 292.2167053222656 251.0755615234375 289.37164306640625 251.8106689453125 C 286.9253234863281 250.53378295898438 285.4229736328125 247.87054443359375 284.9151306152344 245.9888458251953 C 285.42047119140625 244.1992645263672 287.2039489746094 242.43051147460938 289.655517578125 241.88363647460938 C 292.1778869628906 241.04940795898438 294.1229553222656 242.76788330078125 294.9007568359375 246.19989013671875" stroke-width="0.0" fill="rgb(12, 11, 12)" opacity="0.9900822"/>
    <path d="M 449.8380432128906 119.74112701416016 C 449.0965270996094 123.24153900146484 447.2511291503906 125.12208557128906 444.41326904296875 125.86849212646484 C 440.7550964355469 125.09976196289062 438.8789978027344 123.25302124023438 438.14453125 120.16643524169922 C 438.92059326171875 116.7812271118164 440.7659606933594 114.88338470458984 443.74456787109375 114.1281967163086 C 447.2462158203125 114.88773345947266 449.1166687011719 116.75199890136719 449.8380432128906 119.74112701416016" stroke-width="0.0" fill="rgb(1, 1, 1)" opacity="1.0"/>
    <path d="M 98.87616729736328 437.8135070800781 C 98.10884094238281 441.24810791015625 96.25257873535156 443.1199035644531 92.89848327636719 443.85626220703125 C 89.72970581054688 443.1313781738281 87.85974884033203 441.27374267578125 87.12380981445312 438.32843017578125 C 87.88340759277344 434.7532653808594 89.75086212158203 432.8763732910156 92.71917724609375 432.10308837890625 C 96.24635314941406 432.88421630859375 98.12005615234375 434.7518005371094 98.87616729736328 437.8135070800781" stroke-width="0.0" fill="rgb(1, 1, 2)" opacity="1.0"/>
    <path d="M 37.869930267333984 119.56240844726562 C 37.087162017822266 123.22232818603516 35.22020721435547 125.0815658569336 32.7096061706543 125.31016540527344 C 30.19913101196289 123.62057495117188 28.45207977294922 121.77405548095703 27.882308959960938 119.29674530029297 C 27.077348709106445 116.8438491821289 28.794782638549805 114.91184997558594 32.256874084472656 114.14916229248047 C 35.24200439453125 114.89353942871094 37.11861801147461 116.75324249267578 37.869930267333984 119.56240844726562" stroke-width="0.0" fill="rgb(3, 3, 3)" opacity="0.99051327"/>
    <path d="M 224.85626220703125 190.69482421875 C 224.01748657226562 194.05625915527344 221.92491149902344 195.635986328125 219.034912109375 196.08181762695312 C 216.174560546875 195.54702758789062 214.04689025878906 193.96856689453125 213.12977600097656 190.5362091064453 C 213.87548828125 187.74456787109375 215.7455291748047 185.87847900390625 218.78402709960938 185.1420440673828 C 222.1826171875 185.93887329101562 224.07638549804688 187.81118774414062 224.85626220703125 190.69482421875" stroke-width="0.0" fill="rgb(1, 1, 2)" opacity="1.0"/>
    <path d="M 275.244873046875 127.97364044189453 C 274.46307373046875 130.62059020996094 272.6178894042969 132.4540557861328 269.9365234375 133.2240753173828 C 267.2650451660156 132.57896423339844 265.4190979003906 130.7354278564453 264.7588806152344 128.05911254882812 C 265.5423583984375 125.36231994628906 267.33416748046875 123.45216369628906 269.9950866699219 122.71295166015625 C 272.6666564941406 123.4791259765625 274.50408935546875 125.33856964111328 275.244873046875 127.97364044189453" stroke-width="0.0" fill="rgb(206, 204, 202)" opacity="0.9939579"/>
    <path d="M 247.62322998046875 109.580322265625 C 247.03688049316406 112.13260650634766 245.06585693359375 113.82532501220703 242.3791046142578 113.5008316040039 C 239.82073974609375 112.93688201904297 238.0388641357422 111.18793487548828 237.5540771484375 108.86812591552734 C 237.735107421875 106.26686096191406 239.0728302001953 104.08074951171875 241.54014587402344 103.43656921386719 C 244.3779754638672 104.72544860839844 246.05389404296875 106.69000244140625 247.62322998046875 109.580322265625" stroke-width="0.0" fill="rgb(142, 142, 142)" opacity="0.9947296"/>
    <path d="M 521.2457275390625 288.9588623046875 C 520.45068359375 291.6063232421875 518.6072387695312 293.45294189453125 516.0027465820312 294.16510009765625 C 513.3412475585938 293.47808837890625 511.46014404296875 291.67730712890625 510.7386474609375 289.05072021484375 C 511.514892578125 286.33990478515625 513.32958984375 284.47967529296875 515.9990844726562 283.6792297363281 C 518.7030639648438 284.45489501953125 520.5419311523438 286.29779052734375 521.2457275390625 288.9588623046875" stroke-width="0.0" fill="rgb(204, 203, 202)" opacity="0.9921617"/>
    <path d="M 335.23114013671875 207.993896484375 C 334.521484375 210.68592834472656 332.6869812011719 212.52500915527344 329.9580993652344 213.27931213378906 C 327.28155517578125 212.5703887939453 325.4588928222656 210.7095184326172 324.6986999511719 207.9650115966797 C 325.4156799316406 205.269287109375 327.2750244140625 203.43487548828125 330.0005187988281 202.75027465820312 C 332.7025146484375 203.45394897460938 334.5314636230469 205.3018798828125 335.23114013671875 207.993896484375" stroke-width="0.0" fill="rgb(200, 199, 199)" opacity="0.9913323"/>
    <path d="M 281.2459411621094 250.8974151611328 C 281.0458679199219 253.35031127929688 279.3164978027344 254.95721435546875 276.69598388671875 255.1454315185547 C 274.7113037109375 254.89779663085938 272.3426818847656 253.58970642089844 271.6526184082031 251.31243896484375 C 272.86590576171875 248.6849365234375 274.74169921875 247.0360870361328 276.8403625488281 246.87351989746094 C 279.42724609375 247.00743103027344 281.2546081542969 248.46136474609375 281.2459411621094 250.8974151611328" stroke-width="0.0" fill="rgb(247, 246, 246)" opacity="1.0"/>
    <path d="M 224.82962036132812 196.02943420410156 C 224.0709686279297 199.20291137695312 222.1945343017578 201.04742431640625 218.76544189453125 201.78823852539062 C 215.7962188720703 201.07411193847656 213.91302490234375 199.2083740234375 213.1280059814453 196.4355010986328 C 214.05123901367188 193.03289794921875 216.17239379882812 191.44947814941406 219.01596069335938 190.92587280273438 C 221.8668975830078 191.41148376464844 223.9736785888672 192.99905395507812 224.82962036132812 196.02943420410156" stroke-width="0.0" fill="rgb(2, 1, 2)" opacity="1.0"/>
    <path d="M 203.83656311035156 270.1499328613281 C 203.1121826171875 273.2454833984375 201.2442626953125 275.1092224121094 197.7618408203125 275.8559875488281 C 194.7250518798828 275.1374206542969 192.86044311523438 273.2756652832031 192.12242126464844 270.3547058105469 C 192.90975952148438 266.7794494628906 194.7803497314453 264.9119873046875 198.3529815673828 264.1227111816406 C 201.26304626464844 264.8661193847656 203.10646057128906 266.7474670410156 203.83656311035156 270.1499328613281" stroke-width="0.0" fill="rgb(2, 2, 2)" opacity="1.0"/>
    <path d="M 289.2705078125 220.97401428222656 C 288.5715637207031 223.76760864257812 286.82000732421875 225.7349395751953 284.18084716796875 226.48704528808594 C 281.2738342285156 225.58241271972656 279.45599365234375 223.71453857421875 278.6229553222656 220.84115600585938 C 279.31256103515625 218.213134765625 281.26043701171875 216.46646118164062 284.1069030761719 215.8107147216797 C 286.6907043457031 216.44410705566406 288.5423583984375 218.3134765625 289.2705078125 220.97401428222656" stroke-width="0.0" fill="rgb(201, 201, 201)" opacity="0.992941"/>
    <path d="M 119.84352111816406 92.5138168334961 C 119.1190185546875 95.236328125 117.22046661376953 97.08056640625 113.91525268554688 97.86116027832031 C 110.76658630371094 97.09513854980469 108.8785400390625 95.2440414428711 108.1389389038086 92.39701080322266 C 108.90584564208984 88.76344299316406 110.75289154052734 86.878173828125 113.61151885986328 86.11890411376953 C 117.21556091308594 86.9036865234375 119.04252624511719 88.80448150634766 119.84352111816406 92.5138168334961" stroke-width="0.0" fill="rgb(1, 1, 2)" opacity="1.0"/>
    <path d="M 159.8714141845703 302.9087829589844 C 159.0892333984375 306.21429443359375 157.21151733398438 308.0826721191406 154.18209838867188 308.8422546386719 C 150.76251220703125 308.0948486328125 148.89013671875 306.2430114746094 148.12875366210938 302.8041076660156 C 148.85243225097656 299.7172546386719 150.72564697265625 297.8738098144531 153.5498809814453 297.1932067871094 C 157.21469116210938 297.938720703125 159.1037139892578 299.7699890136719 159.8714141845703 302.9087829589844" stroke-width="0.0" fill="rgb(0, 0, 0)" opacity="1.0"/>
    <path d="M 443.87835693359375 500.1471252441406 C 443.13525390625 503.2746887207031 441.2745056152344 505.13470458984375 438.4385986328125 505.8230285644531 C 434.7812805175781 505.0653991699219 432.8934326171875 503.23370361328125 432.1187744140625 499.7484130859375 C 432.865966796875 496.7354736328125 434.7392883300781 494.875 438.1706237792969 494.0986328125 C 441.2679443359375 494.8621520996094 443.1202392578125 496.7390441894531 443.87835693359375 500.1471252441406" stroke-width="0.0" fill="rgb(0, 0, 0)" opacity="1.0"/>
    <path d="M 533.869873046875 99.88613891601562 C 533.121337890625 103.2536849975586 531.2531127929688 105.12037658691406 527.8699340820312 105.88929748535156 C 524.7470092773438 105.11842346191406 522.873046875 103.25656127929688 522.1065063476562 100.14790344238281 C 522.8758544921875 96.7493667602539 524.7601928710938 94.9040756225586 527.8370361328125 94.19178009033203 C 531.2135620117188 94.93163299560547 533.1092529296875 96.77056121826172 533.869873046875 99.88613891601562" stroke-width="0.0" fill="rgb(3, 3, 4)" opacity="1.0"/>
    <path d="M 127.86233520507812 404.42669677734375 C 127.11569213867188 407.22821044921875 125.20732116699219 409.0638122558594 121.65364837646484 409.8428955078125 C 118.77884674072266 409.0967712402344 116.92253112792969 407.2133483886719 116.12615966796875 403.6712341308594 C 116.88032531738281 400.7563781738281 118.76432037353516 398.9000244140625 122.35414123535156 398.1307067871094 C 125.24871063232422 398.8746643066406 127.087890625 400.76580810546875 127.86233520507812 404.42669677734375" stroke-width="0.0" fill="rgb(2, 2, 3)" opacity="1.0"/>
    <path d="M 530.87646484375 172.94708251953125 C 530.05322265625 176.0770263671875 527.8709106445312 177.2848358154297 524.3477783203125 178.63687133789062 C 521.9136962890625 178.04347229003906 520.8721313476562 175.88238525390625 520.3269653320312 172.31703186035156 C 519.927490234375 169.79270935058594 521.7907104492188 167.9212646484375 524.894775390625 167.15565490722656 C 528.2424926757812 167.89923095703125 530.110595703125 169.75399780273438 530.87646484375 172.94708251953125" stroke-width="0.0" fill="rgb(10, 10, 12)" opacity="0.9902305"/>
    <path d="M 350.3453674316406 132.8531036376953 C 349.445556640625 135.65480041503906 347.6976318359375 137.5874786376953 345.05889892578125 138.36322021484375 C 342.2539978027344 137.57745361328125 340.4044189453125 135.7517852783203 339.7312316894531 132.9711151123047 C 340.435546875 130.2831573486328 342.2900390625 128.45870971679688 344.8898010253906 128.0282745361328 C 347.6597900390625 128.56016540527344 349.60186767578125 130.2920379638672 350.3453674316406 132.8531036376953" stroke-width="0.0" fill="rgb(217, 215, 214)" opacity="0.9921497"/>
    <path d="M 332.17999267578125 123.88623809814453 C 331.3322448730469 126.50054168701172 329.4998474121094 128.32965087890625 326.9940185546875 129.00086975097656 C 324.4658203125 128.35354614257812 322.6011047363281 126.54781341552734 321.8138122558594 123.9371337890625 C 322.4423828125 121.2695541381836 324.2539367675781 119.3906478881836 326.9575500488281 118.63124084472656 C 329.7263488769531 119.43079376220703 331.5740051269531 121.27206420898438 332.17999267578125 123.88623809814453" stroke-width="0.0" fill="rgb(201, 199, 197)" opacity="0.99269754"/>
    <path d="M 450.8585510253906 312.440673828125 C 449.93743896484375 315.881591796875 447.3141784667969 316.7513732910156 445.17755126953125 317.0941467285156 C 443.236572265625 316.5608215332031 441.4609680175781 314.7546691894531 440.7704772949219 312.2218933105469 C 439.97137451171875 309.8150329589844 441.79150390625 307.9082946777344 445.2121887207031 307.1266174316406 C 448.2714538574219 307.868896484375 450.1403503417969 309.7250061035156 450.8585510253906 312.440673828125" stroke-width="0.0" fill="rgb(7, 7, 8)" opacity="0.9901252"/>
    <path d="M 322.18792724609375 328.5193176269531 C 322.0863952636719 331.55517578125 320.65924072265625 333.4725036621094 318.08782958984375 334.1051330566406 C 315.2730712890625 333.4814453125 313.4978942871094 331.7388610839844 313.8286437988281 328.743408203125 C 313.8639831542969 326.49774169921875 315.406982421875 324.57061767578125 317.8313293457031 324.3021545410156 C 320.3184509277344 324.8925476074219 322.41351318359375 326.5965881347656 322.18792724609375 328.5193176269531" stroke-width="0.0" fill="rgb(249, 247, 249)" opacity="1.0"/>
    <path d="M 456.8394470214844 220.88323974609375 C 456.0888366699219 224.20790100097656 454.17791748046875 226.0006103515625 451.5595397949219 225.28074645996094 C 448.1407775878906 225.198486328125 445.96234130859375 224.06581115722656 445.1241760253906 220.86012268066406 C 445.9002380371094 217.77706909179688 447.7848815917969 215.91957092285156 451.356201171875 215.12391662597656 C 454.2575378417969 215.8704833984375 456.112060546875 217.7493438720703 456.8394470214844 220.88323974609375" stroke-width="0.0" fill="rgb(0, 1, 1)" opacity="1.0"/>
    <path d="M 348.8781433105469 307.5240783691406 C 348.0552062988281 311.1832580566406 346.1983947753906 313.09100341796875 343.0681457519531 313.87335205078125 C 339.75885009765625 313.10638427734375 337.892578125 311.2416076660156 337.1402282714844 308.2294616699219 C 337.919677734375 304.7780456542969 339.77008056640625 302.89874267578125 343.0876770019531 302.1305847167969 C 346.26763916015625 302.8790588378906 348.1484069824219 304.721435546875 348.8781433105469 307.5240783691406" stroke-width="0.0" fill="rgb(3, 3, 3)" opacity="1.0"/>
    <path d="M 597.1158447265625 94.06978607177734 C 596.5391845703125 96.7083511352539 594.7112426757812 98.54942321777344 592.0003662109375 99.23826599121094 C 589.2789916992188 98.5521469116211 587.3877563476562 96.73956298828125 586.6538696289062 94.10356903076172 C 587.5560302734375 91.403564453125 589.4083251953125 89.57230377197266 592.0261840820312 88.75523376464844 C 594.56787109375 89.57160186767578 596.3644409179688 91.45114135742188 597.1158447265625 94.06978607177734" stroke-width="0.0" fill="rgb(201, 199, 197)" opacity="0.99140793"/>
    <path d="M 300.21954345703125 144.9698486328125 C 299.45184326171875 147.60699462890625 297.6062927246094 149.44918823242188 294.96063232421875 150.1873016357422 C 292.3138427734375 149.52951049804688 290.49969482421875 147.67752075195312 289.7991638183594 144.969482421875 C 290.46917724609375 142.30833435058594 292.30511474609375 140.4585418701172 294.9761657714844 139.76876831054688 C 297.69146728515625 140.47122192382812 299.5321044921875 142.30755615234375 300.21954345703125 144.9698486328125" stroke-width="0.0" fill="rgb(199, 197, 195)" opacity="0.991989"/>
    <path d="M 131.3074951171875 303.06842041015625 C 130.60292053222656 305.7900085449219 128.81617736816406 307.6875 126.13907623291016 308.2940979003906 C 123.3140640258789 307.5128173828125 121.47787475585938 305.68890380859375 121.07416534423828 303.0469665527344 C 121.5704345703125 300.4076232910156 123.40729522705078 298.566650390625 125.88557434082031 298.06353759765625 C 128.5708465576172 298.6480712890625 130.44680786132812 300.4026184082031 131.3074951171875 303.06842041015625" stroke-width="0.0" fill="rgb(227, 226, 225)" opacity="0.9939612"/>
    <path d="M 510.8905334472656 415.9412536621094 C 510.1339111328125 419.2654724121094 508.26019287109375 421.1201171875 505.0255432128906 421.84674072265625 C 501.7657470703125 421.10894775390625 499.9382629394531 419.2168273925781 499.2183837890625 415.89703369140625 C 499.9356689453125 412.79412841796875 501.7842712402344 410.9096984863281 505.3052673339844 410.1230773925781 C 508.2706604003906 410.8654479980469 510.1393737792969 412.7273864746094 510.8905334472656 415.9412536621094" stroke-width="0.0" fill="rgb(2, 2, 3)" opacity="1.0"/>
    <path d="M 489.8756103515625 407.1363830566406 C 489.1055908203125 410.2349853515625 487.2327575683594 412.0994873046875 484.4006042480469 412.8259582519531 C 480.78704833984375 412.0567932128906 478.89044189453125 410.2325134277344 478.16082763671875 407.1480712890625 C 478.8908386230469 403.7424011230469 480.7273254394531 401.8524169921875 483.7753601074219 401.1045837402344 C 487.2708740234375 401.863037109375 489.12884521484375 403.73223876953125 489.8756103515625 407.1363830566406" stroke-width="0.0" fill="rgb(2, 2, 3)" opacity="1.0"/>
    <path d="M 511.2249450683594 380.2446594238281 C 510.86029052734375 383.083740234375 509.1535339355469 385.0660400390625 506.4062805175781 385.8470458984375 C 503.1318054199219 384.87066650390625 501.5384521484375 382.7229919433594 500.6001281738281 379.6263122558594 C 501.0113525390625 376.8164978027344 502.77020263671875 374.8786315917969 505.31964111328125 374.1924743652344 C 508.5041198730469 375.65692138671875 510.3302917480469 377.4994201660156 511.2249450683594 380.2446594238281" stroke-width="0.0" fill="rgb(1, 1, 2)" opacity="1.0"/>
    <path d="M 379.1551513671875 148.0420379638672 C 378.4970703125 150.6704559326172 376.6777038574219 152.52122497558594 373.9761657714844 153.26634216308594 C 371.3028869628906 152.5380096435547 369.46405029296875 150.69679260253906 368.7915344238281 147.99522399902344 C 369.4209899902344 145.25338745117188 371.24078369140625 143.37924194335938 373.9319152832031 142.6584930419922 C 376.6326904296875 143.4978790283203 378.43743896484375 145.3867645263672 379.1551513671875 148.0420379638672" stroke-width="0.0" fill="rgb(206, 205, 203)" opacity="0.9917486"/>
    <path d="M 561.2894897460938 194.93356323242188 C 560.2946166992188 197.49989318847656 558.5093994140625 199.32298278808594 555.8490600585938 200.07208251953125 C 553.1792602539062 199.61289978027344 551.2710571289062 197.8577117919922 551.186767578125 194.56137084960938 C 551.0702514648438 191.98956298828125 553.046875 190.23451232910156 555.816162109375 189.5767059326172 C 558.6091918945312 190.53042602539062 560.3818969726562 192.41688537597656 561.2894897460938 194.93356323242188" stroke-width="0.0" fill="rgb(216, 215, 213)" opacity="0.9940291"/>
    <path d="M 341.88067626953125 364.3562316894531 C 341.14495849609375 367.279296875 339.27880859375 369.14373779296875 336.5165100097656 369.8699035644531 C 332.85467529296875 369.0246276855469 331.0312194824219 367.1261291503906 330.219482421875 363.53863525390625 C 330.9122314453125 360.7724304199219 332.7595520019531 358.88043212890625 335.6245422363281 358.1400451660156 C 339.2429504394531 358.90142822265625 341.1201477050781 360.74884033203125 341.88067626953125 364.3562316894531" stroke-width="0.0" fill="rgb(0, 0, 0)" opacity="1.0"/>
    <path d="M 262.46392822265625 149.35748291015625 C 262.56927490234375 151.6992645263672 260.6749572753906 153.48472595214844 257.883544921875 154.030517578125 C 255.2975616455078 153.55862426757812 253.5071258544922 151.6830596923828 252.83851623535156 148.96922302246094 C 253.60894775390625 146.46517944335938 255.4744415283203 144.64073181152344 257.73223876953125 144.46444702148438 C 260.46484375 144.85557556152344 262.46002197265625 146.42613220214844 262.46392822265625 149.35748291015625" stroke-width="0.0" fill="rgb(225, 223, 222)" opacity="1.0"/>
    <path d="M 229.28216552734375 93.90765380859375 C 228.37669372558594 96.51908874511719 226.50001525878906 98.3132553100586 223.93356323242188 99.09378051757812 C 221.306396484375 98.52924346923828 219.47393798828125 96.69244384765625 218.78465270996094 94.0064697265625 C 219.450439453125 91.2752456665039 221.25563049316406 89.38604736328125 223.9177703857422 88.70040130615234 C 226.7314910888672 89.44074249267578 228.6020050048828 91.25564575195312 229.28216552734375 93.90765380859375" stroke-width="0.0" fill="rgb(210, 208, 206)" opacity="0.99240357"/>
    <path d="M 155.85324096679688 269.8057556152344 C 155.10572814941406 273.2326354980469 153.22193908691406 275.07818603515625 150.24058532714844 275.7811279296875 C 146.7944793701172 275.0467529296875 144.88558959960938 273.23089599609375 144.116943359375 269.95819091796875 C 144.87107849121094 266.7340087890625 146.730712890625 264.8630065917969 149.96136474609375 264.1092529296875 C 153.26397705078125 264.8681335449219 155.12770080566406 266.737548828125 155.85324096679688 269.8057556152344" stroke-width="0.0" fill="rgb(2, 2, 3)" opacity="1.0"/>
    <path d="M 9.236152648925781 118.97247314453125 C 8.546536445617676 121.71168518066406 6.716060161590576 123.56182861328125 4.07236909866333 124.19987487792969 C 1.3823959827423096 123.47331237792969 -0.38850516080856323 121.59210205078125 -0.9914751052856445 119.00788116455078 C -0.3301270306110382 116.5 1.5 114.66987609863281 4.053701400756836 113.9471664428711 C 6.6603546142578125 114.5193099975586 8.533722877502441 116.32371520996094 9.236152648925781 118.97247314453125" stroke-width="0.0" fill="rgb(207, 206, 205)" opacity="0.9951962"/>
    <path d="M 152.85595703125 122.78790283203125 C 152.1092529296875 126.23389434814453 150.2087860107422 128.0355224609375 147.71363830566406 127.16694641113281 C 145.17384338378906 126.58753967285156 143.28933715820312 124.86949920654297 141.31329345703125 122.33728790283203 C 141.89097595214844 119.73904418945312 143.7273712158203 117.86028289794922 147.2303924560547 117.11953735351562 C 150.28431701660156 117.85397338867188 152.1416778564453 119.71720886230469 152.85595703125 122.78790283203125" stroke-width="0.0" fill="rgb(3, 4, 4)" opacity="0.99082404"/>
    <path d="M 396.874267578125 254.32498168945312 C 396.1449890136719 257.2803955078125 394.2759094238281 259.1335144042969 391.3449401855469 259.837158203125 C 387.785400390625 259.07940673828125 385.9266357421875 257.2123107910156 385.17034912109375 253.7028045654297 C 385.8862609863281 250.75222778320312 387.75177001953125 248.8850860595703 390.7926025390625 248.16127014160156 C 394.2461242675781 248.89892578125 396.1213073730469 250.74618530273438 396.874267578125 254.32498168945312" stroke-width="0.0" fill="rgb(4, 4, 4)" opacity="1.0"/>
    <path d="M 503.85687255859375 355.5967712402344 C 502.9408264160156 358.9571533203125 500.8172607421875 360.5421142578125 498.051025390625 361.03143310546875 C 495.4999694824219 360.3301696777344 493.66986083984375 358.5 492.252685546875 355.35760498046875 C 492.88531494140625 352.75830078125 494.7688293457031 350.91253662109375 497.9258117675781 350.1988525390625 C 501.2418212890625 350.9070739746094 503.11077880859375 352.7520446777344 503.85687255859375 355.5967712402344" stroke-width="0.0" fill="rgb(2, 1, 2)" opacity="1.0"/>
    <path d="M 558.1013793945312 170.22872924804688 C 557.7643432617188 172.26670837402344 556.8646240234375 174.96449279785156 553.9712524414062 175.8494415283203 C 550.7642211914062 175.0968780517578 548.8955078125 173.23851013183594 548.1163330078125 169.6757049560547 C 548.8605346679688 166.73121643066406 550.738525390625 164.87892150878906 553.5396118164062 164.1695098876953 C 556.7743530273438 165.14170837402344 557.7459716796875 167.75979614257812 558.1013793945312 170.22872924804688" stroke-width="0.0" fill="rgb(2, 2, 2)" opacity="0.9904648"/>
    <path d="M 7.104167461395264 116.8895034790039 C 6.3206915855407715 119.48673248291016 4.478614330291748 121.29308319091797 1.9866880178451538 121.90229797363281 C -0.4898691177368164 121.31031799316406 -2.3272817134857178 119.49480438232422 -2.9995453357696533 116.99972534179688 C -2.3289594650268555 114.50177001953125 -0.49900028109550476 112.66790771484375 2.1126091480255127 111.7979736328125 C 4.738620281219482 112.41923522949219 6.581483364105225 114.26101684570312 7.104167461395264 116.8895034790039" stroke-width="0.0" fill="rgb(222, 221, 219)" opacity="0.99480534"/>
    <path d="M 149.8921661376953 260.3387145996094 C 149.12832641601562 263.2550048828125 147.25399780273438 265.1253967285156 144.30032348632812 265.8749084472656 C 140.77700805664062 265.0907287597656 138.9149932861328 263.22100830078125 138.16265869140625 259.71807861328125 C 138.88027954101562 256.7478332519531 140.75180053710938 254.8900909423828 143.86700439453125 254.13401794433594 C 147.23440551757812 254.90716552734375 149.11383056640625 256.7571716308594 149.8921661376953 260.3387145996094" stroke-width="0.0" fill="rgb(3, 3, 3)" opacity="1.0"/>
    <path d="M 237.8087921142578 216.38690185546875 C 237.12673950195312 219.27313232421875 235.27940368652344 221.1437530517578 232.16912841796875 221.88742065429688 C 228.73226928710938 221.1348419189453 226.897705078125 219.25547790527344 226.16600036621094 216.11767578125 C 226.90403747558594 212.76455688476562 228.76148986816406 210.89547729492188 232.10763549804688 210.12557983398438 C 235.2122344970703 210.8983917236328 237.03807067871094 212.81265258789062 237.8087921142578 216.38690185546875" stroke-width="0.0" fill="rgb(0, 1, 0)" opacity="1.0"/>
    <path d="M 288.3283996582031 91.0737533569336 C 287.618408203125 93.75579071044922 285.7437744140625 95.57923126220703 282.98846435546875 96.29768371582031 C 280.240966796875 95.6013412475586 278.4020690917969 93.75800323486328 277.66192626953125 90.97740936279297 C 278.4249572753906 88.31842803955078 280.3714599609375 86.59982299804688 282.90576171875 85.78316497802734 C 285.5989685058594 86.66188049316406 287.5212097167969 88.34954833984375 288.3283996582031 91.0737533569336" stroke-width="0.0" fill="rgb(201, 198, 197)" opacity="0.99140877"/>
    <path d="M 322.2984924316406 145.0718231201172 C 321.5791015625 147.72999572753906 319.7360534667969 149.59754943847656 317.0514221191406 150.2686004638672 C 314.2633972167969 149.56460571289062 312.4042663574219 147.74586486816406 311.7110290527344 145.0278778076172 C 312.4276428222656 142.2738800048828 314.2767333984375 140.4368896484375 316.9576721191406 139.7617950439453 C 319.6299743652344 140.52859497070312 321.4755554199219 142.36874389648438 322.2984924316406 145.0718231201172" stroke-width="0.0" fill="rgb(201, 199, 197)" opacity="0.99261487"/>
    <path d="M 105.84349822998047 128.27415466308594 C 105.09266662597656 131.2239227294922 103.21975708007812 133.0811767578125 99.62389373779297 133.85263061523438 C 96.76583862304688 133.10984802246094 94.91336059570312 131.22525024414062 94.13619995117188 127.57498931884766 C 94.88082885742188 124.77642822265625 96.84088897705078 123.09361267089844 99.55615997314453 123.86370849609375 C 102.98863220214844 123.71204376220703 105.05331420898438 124.86712646484375 105.84349822998047 128.27415466308594" stroke-width="0.0" fill="rgb(3, 3, 4)" opacity="1.0"/>
    <path d="M 449.8683166503906 176.25807189941406 C 449.0926818847656 179.20616149902344 447.1980895996094 181.07322692871094 443.7974548339844 181.8499755859375 C 440.7698059082031 181.09591674804688 438.8960876464844 179.2333984375 438.1472473144531 175.8445587158203 C 438.87408447265625 172.74093627929688 440.7459411621094 170.8865966796875 443.8182067871094 170.1429443359375 C 447.209228515625 170.90733337402344 449.06219482421875 172.80352783203125 449.8683166503906 176.25807189941406" stroke-width="0.0" fill="rgb(3, 3, 4)" opacity="1.0"/>
    <path d="M 120.3716049194336 364.3773193359375 C 120.9083480834961 367.073974609375 119.08687591552734 368.9502868652344 115.8307876586914 369.6944580078125 C 112.99820709228516 368.94384765625 111.27986145019531 366.92181396484375 110.89686584472656 364.011474609375 C 111.22640991210938 361.0342102050781 113.01786041259766 359.1708984375 116.23637390136719 358.3843688964844 C 118.8180923461914 359.2425231933594 120.41950225830078 361.2779235839844 120.3716049194336 364.3773193359375" stroke-width="0.0" fill="rgb(183, 183, 182)" opacity="1.0"/>
    <path d="M 39.8644905090332 89.60536193847656 C 39.126129150390625 92.24579620361328 37.22612762451172 94.07563018798828 33.69953155517578 94.82623291015625 C 30.75747299194336 94.11335754394531 28.964141845703125 92.21751403808594 29.886215209960938 89.74886322021484 C 30.496931076049805 87.29349517822266 32.29212188720703 85.49370574951172 34.188411712646484 84.9183120727539 C 35.78947830200195 85.4605712890625 38.02738952636719 87.09867095947266 39.8644905090332 89.60536193847656" stroke-width="0.0" fill="rgb(6, 5, 6)" opacity="0.9900705"/>
    <path d="M 336.1661071777344 375.8438720703125 C 335.6688537597656 378.8687744140625 333.8870544433594 380.7333679199219 331.1864929199219 381.1924743652344 C 328.3602294921875 380.4462585449219 326.4894714355469 378.6578063964844 326.0548400878906 376.1409606933594 C 326.481201171875 373.2657165527344 328.218994140625 371.3234558105469 330.935302734375 370.4564514160156 C 333.7466735839844 371.3771667480469 335.62567138671875 373.2525329589844 336.1661071777344 375.8438720703125" stroke-width="0.0" fill="rgb(237, 236, 237)" opacity="1.0"/>
    <path d="M 81.81352996826172 386.2900390625 C 81.1094741821289 389.25341796875 79.2628402709961 391.13397216796875 76.42552947998047 391.8719787597656 C 72.78878784179688 391.0704650878906 70.89632415771484 389.2241516113281 70.13542175292969 386.1846618652344 C 70.8928451538086 382.7620544433594 72.76444244384766 380.89862060546875 75.8983154296875 380.133056640625 C 79.19695281982422 380.9223937988281 81.0484619140625 382.8143005371094 81.81352996826172 386.2900390625" stroke-width="0.0" fill="rgb(0, 0, 0)" opacity="1.0"/>
    <path d="M 441.29937744140625 511.2249755859375 C 440.5621643066406 513.6843872070312 438.6752014160156 515.5313110351562 435.9924011230469 516.3426513671875 C 433.31231689453125 515.5516357421875 431.5101623535156 513.6688232421875 430.9525146484375 510.8513488769531 C 431.1143493652344 508.006591796875 433.109375 506.5870666503906 435.98931884765625 506.8656921386719 C 438.09185791015625 507.1129455566406 440.02691650390625 508.8724060058594 441.29937744140625 511.2249755859375" stroke-width="0.0" fill="rgb(240, 239, 240)" opacity="1.0"/>
    <path d="M 445.005859375 534.0811157226562 C 444.625 536.7694091796875 442.756103515625 538.5813598632812 439.96038818359375 539.1876220703125 C 437.2167663574219 538.62646484375 435.3757019042969 536.7822265625 434.68798828125 533.9929809570312 C 435.3642578125 531.216064453125 437.22119140625 529.3809814453125 440.04132080078125 528.71923828125 C 442.7735900878906 529.3719482421875 444.5744323730469 531.2420043945312 445.005859375 534.0811157226562" stroke-width="0.0" fill="rgb(198, 197, 195)" opacity="1.0"/>
    <path d="M 505.46856689453125 382.43597412109375 C 505.0332946777344 385.2155456542969 503.24688720703125 387.12451171875 500.3914489746094 387.8336181640625 C 496.8043518066406 387.0581359863281 494.9144287109375 385.206298828125 494.1357727050781 381.72760009765625 C 494.8970031738281 378.76983642578125 496.7649841308594 376.885986328125 499.4860534667969 376.1397399902344 C 502.8679504394531 377.1287841796875 504.4603576660156 379.2780456542969 505.46856689453125 382.43597412109375" stroke-width="0.0" fill="rgb(3, 2, 3)" opacity="1.0"/>
    <path d="M 403.86102294921875 198.4378204345703 C 403.13275146484375 201.26376342773438 401.25762939453125 203.11700439453125 398.4547119140625 203.8287353515625 C 394.79656982421875 203.0495147705078 392.9128112792969 201.2169952392578 392.2091369628906 198.266357421875 C 392.9474792480469 194.79547119140625 394.7789001464844 192.90235900878906 398.2454833984375 192.12062072753906 C 401.2536926269531 192.8720245361328 403.0919494628906 194.76016235351562 403.86102294921875 198.4378204345703" stroke-width="0.0" fill="rgb(3, 2, 4)" opacity="1.0"/>
    <path d="M 297.352783203125 157.77822875976562 C 296.57220458984375 160.7443084716797 294.7472839355469 162.5826416015625 292.0643615722656 163.04319763183594 C 289.2987976074219 162.5233612060547 287.4512939453125 160.7083282470703 286.7543640136719 157.94952392578125 C 287.37811279296875 155.24034118652344 289.25848388671875 153.43832397460938 291.9988708496094 152.8883056640625 C 294.7605895996094 153.4613037109375 296.7615966796875 155.1676025390625 297.352783203125 157.77822875976562" stroke-width="0.0" fill="rgb(208, 206, 204)" opacity="0.9978863"/>
    <path d="M 328.8826599121094 246.80552673339844 C 328.09381103515625 250.20162963867188 326.1730041503906 252.01983642578125 322.8565673828125 252.78363037109375 C 319.8172302246094 252.04579162597656 317.9535827636719 250.1829833984375 318.4511413574219 247.69424438476562 C 319.3462829589844 245.12013244628906 321.11749267578125 243.34085083007812 323.595458984375 242.78773498535156 C 326.170166015625 242.0465850830078 328.1147766113281 243.7774658203125 328.8826599121094 246.80552673339844" stroke-width="0.0" fill="rgb(56, 56, 57)" opacity="0.9902046"/>
    <path d="M 515.33447265625 377.2570495605469 C 513.9442749023438 380.60986328125 512.9441528320312 382.9597473144531 510.54974365234375 383.734130859375 C 507.50225830078125 382.33477783203125 505.6789855957031 380.4939270019531 504.8004455566406 377.7832336425781 C 505.2254943847656 375.07373046875 507.1714172363281 373.7641296386719 510.5757751464844 373.7894592285156 C 513.1896362304688 373.006591796875 515.1138916015625 374.7701721191406 515.33447265625 377.2570495605469" stroke-width="0.0" fill="rgb(17, 17, 19)" opacity="0.9901318"/>
    <path d="M 325.1209411621094 314.6146545410156 C 325.935302734375 317.17633056640625 324.2300109863281 319.11614990234375 321.3892822265625 319.8365478515625 C 317.818359375 319.04876708984375 315.930908203125 317.1894226074219 315.1228942871094 313.6709899902344 C 315.884765625 310.7665710449219 317.78717041015625 308.9400634765625 320.2785339355469 309.8069152832031 C 322.8445129394531 310.37274169921875 324.5855712890625 312.1739196777344 325.1209411621094 314.6146545410156" stroke-width="0.0" fill="rgb(9, 10, 11)" opacity="0.99011844"/>
    <path d="M 301.1573791503906 238.9543914794922 C 300.70013427734375 240.97232055664062 299.0857849121094 243.11363220214844 296.7365417480469 244.57717895507812 C 293.9474792480469 243.88758850097656 291.9863586425781 242.09954833984375 291.27606201171875 239.52737426757812 C 292.3697204589844 236.09852600097656 293.9945068359375 234.05075073242188 296.5546569824219 233.41641235351562 C 299.4281005859375 234.4429473876953 300.794189453125 236.83396911621094 301.1573791503906 238.9543914794922" stroke-width="0.0" fill="rgb(174, 175, 175)" opacity="0.99152076"/>
    <path d="M 247.8544464111328 445.9192810058594 C 247.11941528320312 449.2519836425781 245.246337890625 451.1053771972656 242.14834594726562 451.86944580078125 C 238.8456573486328 451.0384826660156 236.99508666992188 449.14239501953125 236.1257781982422 445.34228515625 C 236.84181213378906 442.71087646484375 238.7169647216797 440.8562927246094 241.48240661621094 440.1198425292969 C 245.24444580078125 440.9015197753906 247.1239471435547 442.7458190917969 247.8544464111328 445.9192810058594" stroke-width="0.0" fill="rgb(0, 0, 0)" opacity="1.0"/>
    <path d="M 212.8592987060547 402.34637451171875 C 212.11817932128906 405.2516784667969 210.2561798095703 407.1288146972656 207.022216796875 407.8873596191406 C 203.73193359375 407.1335144042969 201.87408447265625 405.2652587890625 201.1109161376953 401.5573425292969 C 201.85340881347656 398.72137451171875 203.72752380371094 396.8693542480469 206.81692504882812 396.1268310546875 C 210.24081420898438 396.89532470703125 212.09873962402344 398.7611999511719 212.8592987060547 402.34637451171875" stroke-width="0.0" fill="rgb(1, 1, 2)" opacity="1.0"/>
    <path d="M 104.87323760986328 473.4549560546875 C 104.07162475585938 477.2005310058594 102.19615936279297 479.0605773925781 99.432861328125 479.7352600097656 C 96.13166809082031 478.8310241699219 95.12224578857422 476.5563049316406 94.65391540527344 473.246337890625 C 93.9734878540039 470.9647521972656 96.29391479492188 470.1062927246094 99.74433135986328 469.2747497558594 C 102.26004028320312 468.8880920410156 104.15082550048828 470.7244567871094 104.87323760986328 473.4549560546875" stroke-width="0.0" fill="rgb(3, 2, 3)" opacity="0.99038845"/>
    <path d="M 290.4342346191406 198.32850646972656 C 290.81634521484375 200.9340362548828 288.8913879394531 202.6786346435547 286.02752685546875 203.09878540039062 C 283.4077453613281 202.4356689453125 281.5982360839844 200.58309936523438 280.98162841796875 197.8759765625 C 281.4652099609375 195.30270385742188 283.3049621582031 193.4751434326172 285.7785339355469 193.3643035888672 C 288.2441711425781 193.9569091796875 290.0331115722656 195.75732421875 290.4342346191406 198.32850646972656" stroke-width="0.0" fill="rgb(221, 221, 221)" opacity="1.0"/>
    <path d="M 206.8648681640625 205.62100219726562 C 206.11004638671875 209.26031494140625 204.2708282470703 211.13755798339844 200.76559448242188 211.88209533691406 C 197.7399139404297 211.13414001464844 195.87335205078125 209.25668334960938 195.09780883789062 206.10528564453125 C 195.88162231445312 202.76014709472656 197.7805938720703 200.93701171875 201.2156524658203 200.21270751953125 C 204.2331085205078 200.912841796875 206.12586975097656 202.7517852783203 206.8648681640625 205.62100219726562" stroke-width="0.0" fill="rgb(2, 2, 2)" opacity="1.0"/>
    <path d="M 452.2188415527344 547.0779418945312 C 451.60986328125 549.7647705078125 449.76458740234375 551.6085815429688 446.94696044921875 552.2756958007812 C 444.2104187011719 551.6486206054688 442.3865051269531 549.7786865234375 441.6403503417969 546.9495849609375 C 442.3879089355469 544.2857666015625 444.3247985839844 542.5130615234375 447.0580749511719 541.8696899414062 C 449.70538330078125 542.4583740234375 451.5442810058594 544.2935180664062 452.2188415527344 547.0779418945312" stroke-width="0.0" fill="rgb(199, 198, 196)" opacity="0.99492115"/>
    <path d="M 144.76406860351562 284.5521240234375 C 143.82522583007812 287.79998779296875 141.4053192138672 288.869140625 139.18948364257812 289.1257019042969 C 136.4886932373047 288.87835693359375 134.0343780517578 287.9292297363281 133.14381408691406 284.8238220214844 C 133.9317626953125 281.8045654296875 135.80416870117188 279.93182373046875 139.0734100341797 279.1894836425781 C 142.2205810546875 279.9152526855469 144.0828094482422 281.78021240234375 144.76406860351562 284.5521240234375" stroke-width="0.0" fill="rgb(2, 2, 2)" opacity="0.99226433"/>
    <path d="M 90.85022735595703 457.53265380859375 C 90.11944580078125 460.2163391113281 88.11874389648438 461.7098083496094 85.62189483642578 461.09515380859375 C 83.24454498291016 460.5413513183594 81.4425048828125 458.7616271972656 80.85992431640625 456.33905029296875 C 79.97639465332031 453.80224609375 81.78668212890625 451.9246520996094 85.22135162353516 451.1318664550781 C 88.18461608886719 451.9381103515625 90.0380859375 453.8236083984375 90.85022735595703 457.53265380859375" stroke-width="0.0" fill="rgb(3, 3, 4)" opacity="0.9901515"/>
    <path d="M 505.8603820800781 192.05897521972656 C 505.11541748046875 195.25912475585938 503.26409912109375 197.12811279296875 500.2239990234375 197.86851501464844 C 496.7674255371094 197.09774780273438 494.9096374511719 195.22994995117188 494.1528015136719 191.69970703125 C 494.88671875 188.7445068359375 496.737060546875 186.867919921875 499.7109680175781 186.125244140625 C 503.2359313964844 186.90151977539062 505.1139221191406 188.7578125 505.8603820800781 192.05897521972656" stroke-width="0.0" fill="rgb(3, 3, 4)" opacity="1.0"/>
    <path d="M 370.8431701660156 348.1585693359375 C 370.11566162109375 351.2406005859375 368.229736328125 353.08905029296875 365.3567810058594 353.8424072265625 C 361.93310546875 352.97174072265625 360.15753173828125 351.0226745605469 359.2503356933594 347.5465393066406 C 359.92169189453125 344.7692565917969 361.74725341796875 342.8659362792969 364.7178955078125 342.1240539550781 C 368.2609558105469 342.8731689453125 370.11126708984375 344.7450256347656 370.8431701660156 348.1585693359375" stroke-width="0.0" fill="rgb(1, 1, 2)" opacity="1.0"/>
    <path d="M 281.3045959472656 378.0323181152344 C 280.5533752441406 380.7103271484375 278.7049560546875 382.5352478027344 275.8873291015625 383.37109375 C 273.0692443847656 382.72613525390625 271.0961608886719 380.989990234375 271.14166259765625 378.3817443847656 C 271.44525146484375 375.2331237792969 273.15478515625 373.2076416015625 275.71209716796875 372.46441650390625 C 278.6611022949219 373.5004577636719 280.49346923828125 375.3406982421875 281.3045959472656 378.0323181152344" stroke-width="0.0" fill="rgb(220, 220, 220)" opacity="1.0"/>
    <path d="M 120.38240051269531 78.13467407226562 C 119.63162231445312 80.84282684326172 117.88516235351562 82.7610855102539 114.88800811767578 82.2579345703125 C 111.99691772460938 82.84008026123047 110.10107421875 81.02130126953125 109.57404327392578 78.27835083007812 C 110.58440399169922 75.42378234863281 112.40867614746094 73.53668975830078 114.87467956542969 72.79254150390625 C 117.61947631835938 73.55513000488281 119.40060424804688 75.39383697509766 120.38240051269531 78.13467407226562" stroke-width="0.0" fill="rgb(226, 225, 224)" opacity="1.0"/>
    <path d="M 221.86634826660156 283.4349365234375 C 221.1422119140625 286.2777404785156 219.27731323242188 288.1412658691406 216.13909912109375 288.8909606933594 C 212.7539520263672 288.122314453125 210.90939331054688 286.2337341308594 210.1817169189453 282.9430236816406 C 210.90106201171875 279.7596740722656 212.75198364257812 277.8805236816406 215.6107177734375 277.126220703125 C 219.24989318847656 277.88824462890625 221.1030731201172 279.7534484863281 221.86634826660156 283.4349365234375" stroke-width="0.0" fill="rgb(0, 0, 0)" opacity="1.0"/>
    <path d="M 115.35746765136719 502.0614318847656 C 114.59397888183594 504.7475280761719 112.74454498291016 506.5831604003906 110.08927154541016 507.2242736816406 C 107.5268783569336 506.35382080078125 105.8508529663086 504.4097900390625 104.9369125366211 501.7566223144531 C 105.39854431152344 499.26336669921875 107.27395629882812 497.43218994140625 109.83214569091797 496.9166564941406 C 112.64881896972656 497.5731201171875 114.52601623535156 499.3236999511719 115.35746765136719 502.0614318847656" stroke-width="0.0" fill="rgb(208, 207, 205)" opacity="0.9914392"/>
    <path d="M 424.8720397949219 326.8023986816406 C 424.12176513671875 330.2543640136719 422.250732421875 332.1128845214844 419.2578430175781 332.85406494140625 C 415.7587890625 332.10284423828125 413.9016418457031 330.2395324707031 413.1812438964844 327.0228576660156 C 413.9042053222656 323.7644348144531 415.76470947265625 321.9049072265625 419.2377624511719 321.1534118652344 C 422.2430419921875 321.8952331542969 424.12255859375 323.7498474121094 424.8720397949219 326.8023986816406" stroke-width="0.0" fill="rgb(3, 3, 3)" opacity="1.0"/>
    <path d="M 399.8623046875 142.81568908691406 C 399.1086120605469 146.25564575195312 397.2668151855469 148.1376190185547 394.36138916015625 148.8863067626953 C 390.9488830566406 148.0361328125 389.983642578125 145.78616333007812 389.89361572265625 143.5830535888672 C 390.4301452636719 141.18899536132812 392.1656494140625 139.3743438720703 394.1126403808594 138.8656463623047 C 396.66607666015625 139.1329345703125 399.04742431640625 139.957275390625 399.8623046875 142.81568908691406" stroke-width="0.0" fill="rgb(18, 18, 19)" opacity="0.9900843"/>
    <path d="M 126.83935546875 238.66380310058594 C 126.08939361572266 242.22523498535156 124.22013092041016 244.07598876953125 120.7505111694336 244.84750366210938 C 117.74735260009766 244.11886596679688 115.88277435302734 242.25201416015625 115.12885284423828 238.75726318359375 C 115.87994384765625 235.75924682617188 117.77682495117188 233.92514038085938 121.58348083496094 233.1263427734375 C 124.29536437988281 233.83609008789062 126.13802337646484 235.71499633789062 126.83935546875 238.66380310058594" stroke-width="0.0" fill="rgb(3, 3, 4)" opacity="1.0"/>
    <path d="M 153.90187072753906 357.652587890625 C 153.11680603027344 361.2481384277344 151.2525634765625 363.126953125 148.44032287597656 363.8590393066406 C 144.766845703125 363.0863342285156 142.89425659179688 361.2405700683594 142.13174438476562 357.5528259277344 C 142.8509979248047 354.7187805175781 144.7316436767578 352.885009765625 148.3092498779297 352.1418151855469 C 151.2516632080078 352.8830261230469 153.13917541503906 354.73895263671875 153.90187072753906 357.652587890625" stroke-width="0.0" fill="rgb(1, 1, 1)" opacity="1.0"/>
    <path d="M 384.8525695800781 198.36465454101562 C 384.1326599121094 201.27230834960938 382.2731018066406 203.1349334716797 379.189453125 203.87261962890625 C 375.73870849609375 203.12791442871094 373.87774658203125 201.25875854492188 373.11322021484375 198.2278289794922 C 373.89154052734375 194.76296997070312 375.7718200683594 192.91494750976562 379.3179931640625 192.15342712402344 C 382.24365234375 192.8905029296875 384.0972900390625 194.7608184814453 384.8525695800781 198.36465454101562" stroke-width="0.0" fill="rgb(0, 0, 1)" opacity="1.0"/>
    <path d="M 130.87197875976562 374.608642578125 C 130.10733032226562 378.2437438964844 128.25039672851562 380.1241455078125 125.22054290771484 380.87957763671875 C 121.75836181640625 380.1080322265625 119.90480041503906 378.2369079589844 119.15492248535156 374.76446533203125 C 119.89730834960938 371.7574768066406 121.75047302246094 369.8799743652344 124.89897918701172 369.1533203125 C 128.27157592773438 369.87506103515625 130.14425659179688 371.7211608886719 130.87197875976562 374.608642578125" stroke-width="0.0" fill="rgb(2, 1, 2)" opacity="1.0"/>
    <path d="M 207.88540649414062 232.81517028808594 C 207.12631225585938 236.26309204101562 205.26095581054688 238.12095642089844 202.41152954101562 238.83827209472656 C 198.77772521972656 238.07574462890625 196.90106201171875 236.23057556152344 196.1327667236328 232.6420440673828 C 196.86814880371094 229.73797607421875 198.74740600585938 227.89280700683594 202.16700744628906 227.15966796875 C 205.25706481933594 227.88235473632812 207.13414001464844 229.73641967773438 207.88540649414062 232.81517028808594" stroke-width="0.0" fill="rgb(1, 2, 2)" opacity="1.0"/>
    <path d="M 467.8635559082031 212.00448608398438 C 467.1060791015625 215.24530029296875 465.2550964355469 217.1301727294922 462.13702392578125 217.89149475097656 C 458.7817687988281 217.09844970703125 456.93780517578125 215.2042236328125 456.1943359375 212.19371032714844 C 456.92828369140625 208.76634216308594 458.7422790527344 206.86398315429688 461.6607971191406 206.12049865722656 C 465.2358703613281 206.90240478515625 467.11639404296875 208.7564697265625 467.8635559082031 212.00448608398438" stroke-width="0.0" fill="rgb(3, 3, 3)" opacity="1.0"/>
    <path d="M 484.78875732421875 87.5732650756836 C 484.05682373046875 90.1790542602539 482.1748352050781 92.0452651977539 478.6808776855469 92.82115173339844 C 475.7776794433594 92.09874725341797 473.95196533203125 90.20429992675781 474.8536071777344 87.76714324951172 C 475.46484375 85.2509765625 477.2453918457031 83.45087432861328 478.9189758300781 82.9080581665039 C 480.8205261230469 83.43264770507812 482.9297790527344 85.08063507080078 484.78875732421875 87.5732650756836" stroke-width="0.0" fill="rgb(2, 2, 3)" opacity="0.99009985"/>
    <path d="M 106.83771514892578 326.4718933105469 C 106.08716583251953 329.2210693359375 104.22267150878906 331.0906677246094 101.08135986328125 331.8403015136719 C 97.84125518798828 331.0648498535156 96.25989532470703 329.0707092285156 96.8331069946289 326.4664306640625 C 97.34925079345703 324.12493896484375 99.12113952636719 322.33929443359375 101.24237060546875 321.82867431640625 C 103.17340087890625 322.1725769042969 105.71885681152344 323.5109558105469 106.83771514892578 326.4718933105469" stroke-width="0.0" fill="rgb(42, 44, 44)" opacity="0.9901203"/>
    <path d="M 517.671630859375 213.9847869873047 C 517.8187866210938 217.0268096923828 516.061767578125 218.9329071044922 513.26806640625 218.7655792236328 C 510.10601806640625 218.73220825195312 508.3140869140625 216.88121032714844 508.50128173828125 214.0328369140625 C 509.0023193359375 211.92935180664062 511.0496520996094 210.34837341308594 513.58544921875 209.8408660888672 C 516.0026245117188 209.22694396972656 517.91845703125 210.95567321777344 517.671630859375 213.9847869873047" stroke-width="0.0" fill="rgb(215, 214, 217)" opacity="1.0"/>
    <path d="M 233.24363708496094 383.5372009277344 C 232.83102416992188 386.0375061035156 231.00689697265625 387.7544860839844 228.77410888671875 388.1669006347656 C 226.12619018554688 388.6795349121094 224.31494140625 386.8704528808594 223.67599487304688 384.1944274902344 C 224.61862182617188 381.42938232421875 226.36231994628906 379.4227294921875 229.16659545898438 379.5360107421875 C 231.8034210205078 379.24957275390625 233.3704833984375 381.3114013671875 233.24363708496094 383.5372009277344" stroke-width="0.0" fill="rgb(250, 251, 250)" opacity="1.0"/>
    <path d="M 269.23297119140625 201.0345001220703 C 268.54595947265625 203.69480895996094 266.6847229003906 205.51254272460938 263.94390869140625 206.3032684326172 C 261.16180419921875 205.618896484375 259.1781921386719 203.90382385253906 258.6599426269531 201.24020385742188 C 259.5231628417969 198.333740234375 261.3171081542969 196.46676635742188 263.9620666503906 195.81651306152344 C 266.6722717285156 196.4815673828125 268.4921875 198.33612060546875 269.23297119140625 201.0345001220703" stroke-width="0.0" fill="rgb(223, 223, 223)" opacity="0.9942631"/>
    <path d="M 60.265525817871094 400.93994140625 C 59.414398193359375 403.5852966308594 57.598663330078125 405.4576416015625 55.02852249145508 406.15283203125 C 52.38255310058594 405.47137451171875 50.54790496826172 403.6102294921875 49.59191131591797 401.0306091308594 C 50.5241813659668 398.3670349121094 52.383914947509766 396.5861511230469 55.08612823486328 396.07122802734375 C 57.68173599243164 396.485595703125 59.52812576293945 398.31463623046875 60.265525817871094 400.93994140625" stroke-width="0.0" fill="rgb(218, 216, 217)" opacity="0.991336"/>
    <path d="M 166.27264404296875 587.090087890625 C 165.60696411132812 589.7689208984375 163.78749084472656 591.6650390625 161.145751953125 592.3318481445312 C 158.3380584716797 591.5111083984375 156.5399169921875 589.646240234375 155.99459838867188 587.2186279296875 C 156.8362579345703 584.5506591796875 158.4626922607422 582.5675048828125 161.09542846679688 581.7249755859375 C 163.72781372070312 582.4175415039062 165.5409393310547 584.2843017578125 166.27264404296875 587.090087890625" stroke-width="0.0" fill="rgb(172, 171, 169)" opacity="0.9905118"/>
    <path d="M 259.85821533203125 276.0956115722656 C 259.1007385253906 279.2341003417969 257.2384948730469 281.11199951171875 254.06903076171875 281.8718566894531 C 250.73089599609375 281.1308288574219 248.85791015625 279.2734375 248.122314453125 276.51495361328125 C 248.90383911132812 272.7602233886719 250.75714111328125 270.89581298828125 253.82504272460938 270.1750183105469 C 257.20263671875 270.9486999511719 259.10369873046875 272.777099609375 259.85821533203125 276.0956115722656" stroke-width="0.0" fill="rgb(1, 2, 2)" opacity="1.0"/>
    <path d="M 238.85198974609375 454.283203125 C 238.10455322265625 457.2377014160156 236.23822021484375 459.105712890625 233.20425415039062 459.85272216796875 C 229.7495880126953 459.1083679199219 227.88922119140625 457.25146484375 228.08956909179688 454.6564636230469 C 228.5391387939453 451.1581115722656 230.0258026123047 449.0734558105469 233.30552673339844 448.2196350097656 C 236.20660400390625 448.9329833984375 238.08505249023438 450.7864074707031 238.85198974609375 454.283203125" stroke-width="0.0" fill="rgb(0, 0, 0)" opacity="1.0"/>
    <path d="M 417.85614013671875 406.942626953125 C 417.0618591308594 410.1840515136719 415.18511962890625 412.0644836425781 411.8033142089844 412.86505126953125 C 408.75799560546875 412.1067199707031 406.8985900878906 410.24017333984375 406.12939453125 406.6175231933594 C 406.8854675292969 403.7518615722656 408.7493591308594 401.880126953125 412.40325927734375 401.1102600097656 C 415.2452087402344 401.86993408203125 417.083740234375 403.7737731933594 417.85614013671875 406.942626953125" stroke-width="0.0" fill="rgb(1, 2, 2)" opacity="1.0"/>
  </g>
</svg>
