<?xml version="1.0" ?>
<svg xmlns="http://www.w3.org/2000/svg" version="1.1" width="600" height="600">
  <defs/>
  <g>
    <path d="M 282.9838562011719 289.64813232421875 C 266.3329772949219 331.86968994140625 257.58673095703125 332.8141174316406 225.57774353027344 343.5148620605469 C 203.24977111816406 341.2901916503906 202.3842315673828 335.9448547363281 199.8314666748047 314.94915771484375 C 203.2594757080078 289.9203186035156 212.4798126220703 303.1824035644531 236.4757537841797 296.05865478515625 C 266.4143371582031 292.2585754394531 278.763427734375 284.0016174316406 282.9838562011719 289.64813232421875" stroke-width="0.0" fill="rgb(14, 14, 15)" opacity="0.9872528"/>
    <path d="M 470.6951904296875 422.0302429199219 C 473.90960693359375 445.52716064453125 474.53546142578125 451.0455627441406 454.19384765625 455.6648864746094 C 404.8147277832031 444.927001953125 410.5580139160156 425.5603942871094 408.2337646484375 400.21453857421875 C 410.7995910644531 389.82574462890625 417.38299560546875 391.0980529785156 432.2714538574219 385.666748046875 C 438.9566955566406 387.7547302246094 437.4521179199219 399.24786376953125 470.6951904296875 422.0302429199219" stroke-width="0.0" fill="rgb(31, 31, 32)" opacity="0.90403694"/>
    <path d="M 185.97251892089844 521.5181884765625 C 177.40525817871094 540.7109375 174.58193969726562 544.3958740234375 159.84304809570312 554.5025024414062 C 146.84071350097656 531.1445922851562 147.21859741210938 525.3933715820312 133.1260223388672 514.7398681640625 C 144.4993438720703 512.6215209960938 148.88540649414062 514.5504760742188 152.95697021484375 515.8969116210938 C 159.6067657470703 511.6870422363281 166.2735137939453 508.0928649902344 185.97251892089844 521.5181884765625" stroke-width="0.0" fill="rgb(179, 178, 175)" opacity="0.6915813"/>
    <path d="M 331.7881164550781 171.12661743164062 C 322.8844299316406 186.09432983398438 319.44732666015625 189.6922149658203 303.2212829589844 201.2178192138672 C 285.5245056152344 189.7925262451172 284.2864990234375 185.39939880371094 280.1043701171875 177.54129028320312 C 293.6562194824219 163.0787353515625 296.3632507324219 160.94223022460938 305.8042907714844 152.6732177734375 C 313.0830993652344 154.7086944580078 316.92950439453125 156.41163635253906 331.7881164550781 171.12661743164062" stroke-width="0.0" fill="rgb(187, 186, 183)" opacity="0.7781933"/>
    <path d="M 310.6690673828125 236.3089599609375 C 326.55035400390625 252.79129028320312 328.98016357421875 267.7369079589844 300.3608093261719 288.8978271484375 C 276.27587890625 277.9605407714844 287.2264404296875 257.98736572265625 294.4141540527344 241.6186065673828 C 294.28204345703125 232.4634552001953 289.8747253417969 224.7239532470703 301.4106140136719 216.00563049316406 C 317.5580139160156 222.9490509033203 318.1337890625 228.08546447753906 310.6690673828125 236.3089599609375" stroke-width="0.0" fill="rgb(47, 47, 48)" opacity="0.8605936"/>
    <path d="M 532.0928344726562 434.09521484375 C 532.7152099609375 439.8313903808594 529.327880859375 441.192626953125 520.0719604492188 463.6594543457031 C 508.0812072753906 471.54595947265625 494.842041015625 474.7060241699219 485.1396179199219 466.6251525878906 C 505.30657958984375 419.32427978515625 513.500732421875 418.22857666015625 531.5162353515625 415.5936279296875 C 538.5289916992188 430.159423828125 539.8613891601562 432.4814147949219 532.0928344726562 434.09521484375" stroke-width="0.0" fill="rgb(134, 133, 133)" opacity="0.9922766"/>
    <path d="M 547.6871337890625 215.32688903808594 C 541.6690063476562 233.56826782226562 532.7982177734375 221.7708282470703 510.0439758300781 212.9936065673828 C 504.1825256347656 209.2986297607422 493.3828430175781 209.58108520507812 485.6410217285156 205.1314697265625 C 493.4620056152344 191.67575073242188 497.10723876953125 188.4770050048828 527.9361572265625 175.2434844970703 C 542.8809814453125 175.85472106933594 548.4354248046875 175.69998168945312 547.6871337890625 215.32688903808594" stroke-width="0.0" fill="rgb(30, 30, 31)" opacity="0.90135825"/>
    <path d="M 342.4065856933594 127.88375854492188 C 338.2766418457031 135.27455139160156 337.20330810546875 139.2235565185547 328.8330383300781 145.57037353515625 C 319.17718505859375 138.21514892578125 315.9807434082031 135.7300262451172 309.7264404296875 126.99142456054688 C 322.7721252441406 123.55162048339844 325.47491455078125 122.74227142333984 328.1005859375 121.71548461914062 C 331.3052673339844 121.91256713867188 334.87664794921875 122.14978790283203 342.4065856933594 127.88375854492188" stroke-width="0.0" fill="rgb(198, 196, 193)" opacity="0.8122126"/>
    <path d="M 223.98422241210938 358.32037353515625 C 223.058837890625 376.3993835449219 220.71334838867188 380.6845703125 184.23171997070312 383.70562744140625 C 156.38893127441406 378.455322265625 160.23146057128906 359.722900390625 158.52743530273438 333.6343688964844 C 163.1658172607422 315.63360595703125 164.1053924560547 305.8295593261719 167.96739196777344 304.8031921386719 C 194.28594970703125 311.43463134765625 199.11746215820312 311.1254577636719 223.98422241210938 358.32037353515625" stroke-width="0.0" fill="rgb(3, 3, 4)" opacity="1.0"/>
    <path d="M 382.19158935546875 106.57965087890625 C 374.08709716796875 115.38520812988281 370.91961669921875 117.78577423095703 359.8705139160156 125.95082092285156 C 342.4201965332031 116.41570281982422 339.47698974609375 110.99078369140625 335.943359375 100.29412078857422 C 339.98077392578125 91.65882873535156 340.9909362792969 86.99592590332031 356.2257385253906 82.349853515625 C 371.7405090332031 85.50213623046875 374.8159484863281 87.97883605957031 382.19158935546875 106.57965087890625" stroke-width="0.0" fill="rgb(182, 180, 178)" opacity="0.8536553"/>
    <path d="M 440.27093505859375 521.2710571289062 C 432.6632995605469 533.206787109375 431.3316650390625 537.7225341796875 419.1032409667969 552.9049682617188 C 413.5462951660156 537.1777954101562 416.3059997558594 529.5110473632812 407.1202392578125 518.904541015625 C 403.6599426269531 510.2070007324219 408.7772216796875 508.6099548339844 421.8429260253906 504.04949951171875 C 431.0591125488281 510.85943603515625 433.88067626953125 513.3917236328125 440.27093505859375 521.2710571289062" stroke-width="0.0" fill="rgb(179, 177, 176)" opacity="0.70357853"/>
    <path d="M 200.31663513183594 229.91549682617188 C 199.8011932373047 257.1868591308594 198.9973907470703 262.9120178222656 177.15863037109375 267.24566650390625 C 143.9960479736328 261.9706726074219 140.55853271484375 257.36566162109375 137.94964599609375 239.02828979492188 C 144.46043395996094 206.17384338378906 146.93557739257812 199.89939880371094 161.6728973388672 204.00372314453125 C 184.99197387695312 214.8942413330078 191.3316192626953 216.314453125 200.31663513183594 229.91549682617188" stroke-width="0.0" fill="rgb(7, 7, 7)" opacity="0.99810797"/>
    <path d="M 81.22811889648438 98.43390655517578 C 71.06198120117188 103.3919448852539 61.320281982421875 94.48863983154297 71.47223663330078 118.44715118408203 C 46.53779983520508 128.15383911132812 30.383636474609375 123.00157928466797 25.291418075561523 111.62837219238281 C 36.88930892944336 91.32276916503906 42.162681579589844 87.49154663085938 61.51732635498047 72.92079162597656 C 73.72391510009766 75.77777099609375 76.30380249023438 80.94536590576172 81.22811889648438 98.43390655517578" stroke-width="0.0" fill="rgb(31, 31, 32)" opacity="0.9556317"/>
    <path d="M 158.77664184570312 108.26356506347656 C 149.0023956298828 127.24266815185547 145.95712280273438 128.06739807128906 133.69415283203125 119.70237731933594 C 115.14424896240234 131.67398071289062 107.06917572021484 144.24423217773438 97.68013763427734 119.81057739257812 C 106.07585144042969 91.67371368408203 112.15922546386719 87.75989532470703 127.44571685791016 90.33177185058594 C 149.0768585205078 101.1739730834961 154.03854370117188 102.38470458984375 158.77664184570312 108.26356506347656" stroke-width="0.0" fill="rgb(24, 24, 24)" opacity="0.9148749"/>
    <path d="M 315.58599853515625 232.08966064453125 C 315.8282470703125 237.95721435546875 308.7149353027344 237.87294006347656 296.0577392578125 239.02578735351562 C 290.13818359375 235.48670959472656 290.4032897949219 228.4768829345703 293.12701416015625 222.114990234375 C 292.0279541015625 224.24266052246094 293.0191955566406 221.27076721191406 297.7510681152344 221.3157501220703 C 310.2141418457031 213.36676025390625 307.5921325683594 213.28076171875 315.58599853515625 232.08966064453125" stroke-width="0.0" fill="rgb(22, 22, 22)" opacity="0.9379054"/>
    <path d="M 227.00933837890625 446.5485534667969 C 220.06411743164062 478.2453918457031 212.00013732910156 478.0637512207031 190.1222381591797 479.2202453613281 C 161.7078399658203 475.9847717285156 172.83999633789062 467.84503173828125 169.45814514160156 441.7684326171875 C 175.28335571289062 416.8749084472656 165.11256408691406 403.5205383300781 174.54013061523438 400.2025146484375 C 210.72393798828125 408.8155822753906 218.6884765625 410.0283508300781 227.00933837890625 446.5485534667969" stroke-width="0.0" fill="rgb(0, 1, 1)" opacity="1.0"/>
    <path d="M 107.13162231445312 90.85256958007812 C 104.9080810546875 117.89608001708984 103.04621887207031 123.9493179321289 67.71151733398438 127.99989318847656 C 44.43867492675781 120.81450653076172 46.33945083618164 111.28556823730469 49.500301361083984 81.13821411132812 C 50.25295639038086 66.38188934326172 49.97911071777344 62.53581237792969 65.20268249511719 66.06300354003906 C 88.81950378417969 72.35879516601562 99.55803680419922 71.6717529296875 107.13162231445312 90.85256958007812" stroke-width="0.0" fill="rgb(5, 5, 5)" opacity="0.95906645"/>
    <path d="M 226.87130737304688 467.2976989746094 C 210.04318237304688 500.5831604003906 202.41651916503906 504.8865966796875 174.07359313964844 514.0930786132812 C 141.83056640625 515.0855712890625 137.0025177001953 517.6858520507812 136.5321044921875 494.8985900878906 C 146.67572021484375 450.1145324707031 150.742919921875 449.74029541015625 200.64599609375 445.5164489746094 C 228.24583435058594 438.2149658203125 229.3638916015625 439.86114501953125 226.87130737304688 467.2976989746094" stroke-width="0.0" fill="rgb(9, 9, 9)" opacity="0.92142713"/>
    <path d="M 528.54296875 363.2171630859375 C 524.0339965820312 383.1346740722656 516.7946166992188 380.69830322265625 505.8058166503906 368.8432922363281 C 493.73583984375 362.9413146972656 488.8214416503906 360.2072448730469 452.42144775390625 339.2943420410156 C 465.6196594238281 327.1972961425781 486.0131530761719 339.545166015625 499.7922058105469 345.02435302734375 C 501.07281494140625 351.15985107421875 507.4687194824219 350.0398254394531 528.54296875 363.2171630859375" stroke-width="0.0" fill="rgb(3, 3, 5)" opacity="0.9988798"/>
    <path d="M 256.8446350097656 141.80885314941406 C 251.50018310546875 149.2036590576172 252.0114288330078 153.80099487304688 245.40760803222656 169.39450073242188 C 229.86068725585938 160.6913299560547 225.82382202148438 159.10084533691406 211.5464324951172 144.5596160888672 C 223.2927703857422 125.72908020019531 227.76638793945312 123.30252838134766 242.5679168701172 116.73741149902344 C 253.42308044433594 129.86883544921875 253.4609832763672 134.80686950683594 256.8446350097656 141.80885314941406" stroke-width="0.0" fill="rgb(193, 191, 189)" opacity="0.7470079"/>
    <path d="M 222.032470703125 91.84418487548828 C 221.17691040039062 99.05244445800781 223.55105590820312 105.02510070800781 213.0314483642578 120.72412109375 C 196.5245361328125 113.30463409423828 192.08981323242188 110.50043487548828 183.49850463867188 91.05425262451172 C 200.71414184570312 84.3322982788086 207.16021728515625 90.55831909179688 212.7130889892578 88.3620834350586 C 218.0327911376953 87.46315002441406 221.0327606201172 87.5400161743164 222.032470703125 91.84418487548828" stroke-width="0.0" fill="rgb(187, 184, 181)" opacity="0.7145485"/>
    <path d="M 126.09393310546875 169.10423278808594 C 133.40093994140625 178.18087768554688 113.09261322021484 162.84823608398438 92.80914306640625 174.9100799560547 C 59.36018753051758 177.72604370117188 52.62722396850586 200.59278869628906 49.43074035644531 171.90016174316406 C 56.81596755981445 129.3067169189453 68.55635833740234 131.56117248535156 95.0992431640625 131.1927947998047 C 118.04163360595703 138.01828002929688 116.32404327392578 147.55203247070312 126.09393310546875 169.10423278808594" stroke-width="0.0" fill="rgb(9, 9, 10)" opacity="0.98108274"/>
    <path d="M 378.5805969238281 220.7502899169922 C 343.920654296875 231.0448760986328 346.64306640625 240.2423858642578 336.69000244140625 242.46063232421875 C 326.0538635253906 252.58575439453125 322.9317321777344 252.17308044433594 323.96209716796875 242.3059844970703 C 332.8306579589844 225.07608032226562 337.6253967285156 214.5508270263672 353.2453308105469 182.41622924804688 C 380.09283447265625 187.7857208251953 377.7975769042969 197.3153076171875 378.5805969238281 220.7502899169922" stroke-width="0.0" fill="rgb(28, 28, 28)" opacity="0.9313397"/>
    <path d="M 234.6431884765625 331.98126220703125 C 236.89418029785156 352.2840881347656 235.03363037109375 357.4823303222656 219.0938262939453 361.9640808105469 C 176.87969970703125 342.4360656738281 174.819091796875 335.6900634765625 164.2405242919922 312.06256103515625 C 169.30551147460938 307.0733947753906 182.552734375 305.6855773925781 206.41221618652344 300.00274658203125 C 225.6714324951172 300.5900573730469 226.87403869628906 297.77593994140625 234.6431884765625 331.98126220703125" stroke-width="0.0" fill="rgb(3, 3, 4)" opacity="0.991435"/>
    <path d="M 347.3079528808594 451.0354919433594 C 325.359619140625 460.6522521972656 321.3751525878906 463.4711608886719 320.2038879394531 464.112548828125 C 318.201416015625 458.4302673339844 318.0355224609375 455.4687194824219 300.4164123535156 451.4247131347656 C 294.35833740234375 442.4313659667969 296.02392578125 433.815185546875 306.2823791503906 427.9564514160156 C 333.8196105957031 435.71697998046875 337.5096130371094 438.72796630859375 347.3079528808594 451.0354919433594" stroke-width="0.0" fill="rgb(148, 146, 145)" opacity="0.99797"/>
    <path d="M 171.63601684570312 222.68441772460938 C 169.18612670898438 244.2524871826172 167.95440673828125 249.85940551757812 147.3324737548828 253.47003173828125 C 120.896240234375 245.890869140625 116.93870544433594 240.87286376953125 91.07412719726562 190.75531005859375 C 94.06553649902344 174.136474609375 99.31730651855469 172.88427734375 132.1771697998047 171.38333129882812 C 155.7129364013672 198.03717041015625 161.5330352783203 207.47935485839844 171.63601684570312 222.68441772460938" stroke-width="0.0" fill="rgb(3, 3, 3)" opacity="0.9628808"/>
    <path d="M 504.67938232421875 207.38796997070312 C 507.3386535644531 231.55564880371094 505.9558410644531 237.3091583251953 496.6935729980469 240.84324645996094 C 460.6851501464844 219.10411071777344 459.2257995605469 213.29954528808594 452.59405517578125 184.95611572265625 C 445.2525939941406 176.85316467285156 446.63629150390625 170.27650451660156 468.63433837890625 161.1025390625 C 497.584228515625 166.93417358398438 496.7901611328125 177.3585662841797 504.67938232421875 207.38796997070312" stroke-width="0.0" fill="rgb(94, 94, 95)" opacity="0.97374696"/>
    <path d="M 395.7271423339844 221.81480407714844 C 389.3056640625 266.2208557128906 389.0083312988281 280.01300048828125 335.91241455078125 287.55908203125 C 314.8464660644531 281.309814453125 314.8934631347656 266.2839050292969 335.0252685546875 249.17286682128906 C 356.2437438964844 233.2695770263672 360.2655944824219 231.4310760498047 354.7503662109375 236.8127899169922 C 358.3946838378906 231.19833374023438 376.45513916015625 225.7183074951172 395.7271423339844 221.81480407714844" stroke-width="0.0" fill="rgb(6, 6, 7)" opacity="1.0"/>
    <path d="M 530.6471557617188 261.0337829589844 C 506.94061279296875 292.85882568359375 490.6055603027344 284.8940124511719 478.25958251953125 287.05511474609375 C 459.6468505859375 283.39825439453125 439.4207458496094 296.5799560546875 431.2034912109375 280.1270446777344 C 433.5081787109375 236.1219024658203 436.4909362792969 232.97523498535156 475.09149169921875 231.0274200439453 C 527.4483642578125 236.27719116210938 531.84716796875 238.578125 530.6471557617188 261.0337829589844" stroke-width="0.0" fill="rgb(12, 12, 13)" opacity="1.0"/>
    <path d="M 177.45533752441406 447.5060119628906 C 173.645263671875 487.2123107910156 172.22315979003906 493.2731628417969 145.75967407226562 500.6180419921875 C 102.01628112792969 495.4830017089844 107.01974487304688 484.6134948730469 120.17491149902344 468.2913818359375 C 130.18017578125 445.85504150390625 133.41705322265625 443.1859130859375 168.26795959472656 401.98486328125 C 177.7151336669922 403.4498596191406 178.33517456054688 408.40057373046875 177.45533752441406 447.5060119628906" stroke-width="0.0" fill="rgb(22, 21, 22)" opacity="1.0"/>
    <path d="M 207.81826782226562 125.89655303955078 C 197.59495544433594 136.68673706054688 191.05677795410156 143.4603271484375 176.77865600585938 143.87840270996094 C 169.76541137695312 137.0876007080078 166.00531005859375 141.94017028808594 164.75247192382812 118.08849334716797 C 173.68914794921875 114.21031188964844 178.10528564453125 112.08303833007812 191.6743621826172 102.78570556640625 C 201.79220581054688 111.83744049072266 202.0811767578125 116.06443786621094 207.81826782226562 125.89655303955078" stroke-width="0.0" fill="rgb(182, 181, 179)" opacity="0.894735"/>
    <path d="M 284.58251953125 106.7115707397461 C 279.2872619628906 115.9038314819336 275.6341857910156 118.16997528076172 260.77740478515625 125.45368194580078 C 250.16607666015625 118.52357482910156 247.3887176513672 116.08087158203125 236.63189697265625 99.56859588623047 C 244.87391662597656 87.69766998291016 248.13145446777344 86.21721649169922 258.47808837890625 82.17748260498047 C 273.1498107910156 90.24872589111328 275.46136474609375 93.404052734375 284.58251953125 106.7115707397461" stroke-width="0.0" fill="rgb(197, 195, 193)" opacity="0.7095066"/>
    <path d="M 244.66221618652344 179.72470092773438 C 248.9663543701172 203.38722229003906 242.8542938232422 199.6438751220703 218.0585174560547 176.52285766601562 C 202.72239685058594 165.8569793701172 200.7946319580078 162.88540649414062 167.32562255859375 139.93443298339844 C 164.0714569091797 124.39213562011719 167.61708068847656 118.63080596923828 185.0448760986328 129.25526428222656 C 214.93899536132812 149.07676696777344 222.5657501220703 152.0161895751953 244.66221618652344 179.72470092773438" stroke-width="0.0" fill="rgb(5, 5, 6)" opacity="0.99256235"/>
    <path d="M 268.5704650878906 319.1855163574219 C 249.1511688232422 337.5234680175781 257.4280090332031 356.9201354980469 232.4083709716797 379.5098876953125 C 209.26351928710938 379.6712341308594 205.0813751220703 377.8279113769531 203.19142150878906 358.73876953125 C 214.40853881835938 308.56658935546875 222.99853515625 308.0030822753906 270.6865539550781 288.0735168457031 C 294.3471374511719 288.6555480957031 295.2635803222656 304.328369140625 268.5704650878906 319.1855163574219" stroke-width="0.0" fill="rgb(5, 5, 5)" opacity="0.9996443"/>
    <path d="M 315.39190673828125 261.4517517089844 C 319.27020263671875 277.1270446777344 320.3404846191406 284.05584716796875 279.33380126953125 293.5950927734375 C 261.4053649902344 253.97402954101562 271.1557922363281 245.72216796875 287.47998046875 250.47544860839844 C 284.3165283203125 249.61459350585938 288.2992858886719 249.36102294921875 289.7973937988281 242.24671936035156 C 295.9703674316406 234.20562744140625 304.76702880859375 233.86343383789062 315.39190673828125 261.4517517089844" stroke-width="0.0" fill="rgb(22, 22, 23)" opacity="0.9925626"/>
    <path d="M 486.99114990234375 119.56644439697266 C 474.420654296875 119.29939270019531 451.2477111816406 120.46929931640625 433.7039489746094 148.3595428466797 C 412.2608947753906 160.38548278808594 407.02435302734375 156.29661560058594 408.96832275390625 133.42221069335938 C 430.6375732421875 115.82728576660156 435.7633056640625 110.84124755859375 458.9805603027344 97.24703979492188 C 472.89239501953125 85.5723648071289 477.2859191894531 88.93903350830078 486.99114990234375 119.56644439697266" stroke-width="0.0" fill="rgb(5, 5, 6)" opacity="0.9892416"/>
    <path d="M 138.307373046875 441.20587158203125 C 131.93247985839844 468.6556091308594 122.90331268310547 465.8405456542969 107.22380065917969 461.1795654296875 C 73.99785614013672 453.92486572265625 68.72625732421875 455.86773681640625 64.95655822753906 418.49053955078125 C 59.95829391479492 402.09539794921875 58.51527786254883 399.3650207519531 80.54732513427734 396.320068359375 C 123.55709838867188 400.5973205566406 126.8814926147461 406.78338623046875 138.307373046875 441.20587158203125" stroke-width="0.0" fill="rgb(13, 13, 13)" opacity="0.99867874"/>
    <path d="M 79.12383270263672 133.29515075683594 C 75.69356536865234 162.908203125 74.53929138183594 168.1678009033203 45.47386932373047 169.3421630859375 C 34.44855499267578 121.8088150024414 26.551197052001953 122.21258544921875 27.150531768798828 118.26506042480469 C 24.237398147583008 102.66901397705078 19.870773315429688 92.99996948242188 30.966394424438477 90.03789520263672 C 56.58686447143555 94.80294799804688 71.65620422363281 91.19223022460938 79.12383270263672 133.29515075683594" stroke-width="0.0" fill="rgb(25, 25, 26)" opacity="1.0"/>
    <path d="M 235.2999725341797 199.2323760986328 C 233.06326293945312 203.05026245117188 225.19749450683594 199.29127502441406 218.71826171875 197.04322814941406 C 210.3321533203125 199.15927124023438 199.09153747558594 204.51133728027344 168.64414978027344 161.35763549804688 C 170.39532470703125 146.49232482910156 175.24285888671875 149.54336547851562 197.83187866210938 167.87220764160156 C 223.2206268310547 184.0541534423828 222.9711456298828 188.9646759033203 235.2999725341797 199.2323760986328" stroke-width="0.0" fill="rgb(11, 11, 12)" opacity="1.0"/>
    <path d="M 299.0423278808594 124.1720962524414 C 285.79632568359375 141.83616638183594 282.8534240722656 144.5063934326172 273.1824035644531 151.9472198486328 C 260.51513671875 139.74835205078125 258.1126403808594 136.87379455566406 250.23141479492188 124.34075164794922 C 256.8582458496094 116.75370788574219 260.3822937011719 114.83199310302734 272.4247741699219 106.41059112548828 C 284.4524230957031 109.54407501220703 289.8088073730469 110.68971252441406 299.0423278808594 124.1720962524414" stroke-width="0.0" fill="rgb(202, 199, 197)" opacity="0.83427864"/>
    <path d="M 254.75112915039062 125.59325408935547 C 261.10205078125 138.17123413085938 256.2368469238281 137.49168395996094 250.01358032226562 123.45994567871094 C 243.20919799804688 109.62496185302734 242.06394958496094 107.4501724243164 236.07261657714844 102.3808822631836 C 228.09339904785156 120.6927261352539 225.97610473632812 108.85955047607422 234.47686767578125 99.36822509765625 C 241.6649627685547 98.81539916992188 245.4201202392578 106.13742065429688 254.75112915039062 125.59325408935547" stroke-width="0.0" fill="rgb(32, 33, 32)" opacity="1.0"/>
    <path d="M 544.96044921875 284.5507507324219 C 538.1148071289062 306.4117431640625 534.1482543945312 310.000732421875 517.5486450195312 320.77288818359375 C 498.09686279296875 309.73931884765625 495.0829772949219 305.5738830566406 489.90130615234375 291.3836364746094 C 506.5553283691406 280.4920654296875 513.0511474609375 281.9437255859375 520.4667358398438 276.25848388671875 C 526.0219116210938 275.0538330078125 531.1251831054688 274.3399658203125 544.96044921875 284.5507507324219" stroke-width="0.0" fill="rgb(186, 185, 182)" opacity="0.72840023"/>
    <path d="M 343.8351745605469 202.21847534179688 C 337.3179931640625 211.68621826171875 339.3429870605469 218.78155517578125 328.6389465332031 232.54544067382812 C 314.2526550292969 226.16184997558594 309.44659423828125 223.9942626953125 300.4388427734375 204.86427307128906 C 308.7051086425781 190.32049560546875 311.4508361816406 186.94613647460938 325.69940185546875 176.72666931152344 C 346.723388671875 189.0924072265625 348.39093017578125 194.74853515625 343.8351745605469 202.21847534179688" stroke-width="0.0" fill="rgb(181, 181, 180)" opacity="0.7976686"/>
    <path d="M 277.0872497558594 254.16995239257812 C 281.6349182128906 254.19223022460938 282.32440185546875 247.71324157714844 275.1446228027344 255.8497314453125 C 275.1708984375 266.59820556640625 267.7197570800781 267.6179504394531 249.40077209472656 250.92343139648438 C 256.21514892578125 226.94203186035156 262.3298645019531 223.59104919433594 278.007568359375 232.57933044433594 C 279.88140869140625 250.6262664794922 285.28594970703125 247.20266723632812 277.0872497558594 254.16995239257812" stroke-width="0.0" fill="rgb(130, 129, 129)" opacity="1.0"/>
    <path d="M 244.42713928222656 207.8454132080078 C 241.4701385498047 215.21920776367188 237.24325561523438 217.88467407226562 216.73316955566406 221.42034912109375 C 202.96336364746094 216.86502075195312 200.82496643066406 212.55372619628906 195.69178771972656 195.3739776611328 C 201.63121032714844 184.12823486328125 210.90306091308594 188.1363067626953 217.27688598632812 192.36880493164062 C 219.7943115234375 195.7314453125 226.52731323242188 195.29568481445312 244.42713928222656 207.8454132080078" stroke-width="0.0" fill="rgb(4, 4, 4)" opacity="0.9736127"/>
    <path d="M 235.24774169921875 254.35023498535156 C 217.08412170410156 285.1788635253906 212.0677490234375 286.7833251953125 185.27053833007812 289.31439208984375 C 165.7555694580078 285.6949462890625 160.95724487304688 295.2367858886719 159.31552124023438 266.0982971191406 C 162.36268615722656 238.59278869628906 166.72216796875 236.81832885742188 196.89259338378906 236.2488250732422 C 228.83485412597656 238.1449737548828 233.7290802001953 239.64236450195312 235.24774169921875 254.35023498535156" stroke-width="0.0" fill="rgb(1, 1, 1)" opacity="0.9947888"/>
    <path d="M 302.1651916503906 215.07879638671875 C 289.0543212890625 225.08392333984375 292.3673095703125 232.12356567382812 285.67938232421875 244.98193359375 C 271.6231689453125 236.60174560546875 269.88818359375 232.48587036132812 263.747802734375 220.15113830566406 C 269.6753234863281 209.9634246826172 271.7043762207031 206.785400390625 284.27783203125 196.58851623535156 C 300.5052795410156 202.176025390625 303.76971435546875 205.4676055908203 302.1651916503906 215.07879638671875" stroke-width="0.0" fill="rgb(198, 197, 198)" opacity="0.8385993"/>
    <path d="M 149.05555725097656 100.54973602294922 C 141.3614501953125 116.43504333496094 136.60292053222656 120.53878784179688 97.59349060058594 130.14756774902344 C 76.44871520996094 131.31613159179688 71.81924438476562 130.49911499023438 75.47100067138672 102.45650482177734 C 78.60108184814453 64.28282928466797 80.89921569824219 70.85380554199219 105.30682373046875 75.8617172241211 C 122.41077423095703 83.53443908691406 133.031494140625 87.77880859375 149.05555725097656 100.54973602294922" stroke-width="0.0" fill="rgb(19, 19, 19)" opacity="0.94192266"/>
    <path d="M 182.8295440673828 308.7264099121094 C 164.5947723388672 311.55841064453125 156.34994506835938 305.3475646972656 154.11434936523438 339.26715087890625 C 120.35835266113281 341.4196472167969 117.10222625732422 338.3281555175781 117.62071228027344 319.84796142578125 C 131.88043212890625 300.3619079589844 147.74668884277344 297.2723083496094 155.7672119140625 297.5030517578125 C 161.52528381347656 297.2602844238281 167.53762817382812 301.8515319824219 182.8295440673828 308.7264099121094" stroke-width="0.0" fill="rgb(22, 22, 22)" opacity="1.0"/>
    <path d="M 490.46759033203125 477.19635009765625 C 483.1008605957031 515.7484130859375 461.3951721191406 503.64801025390625 439.7249450683594 515.3085327148438 C 408.9053039550781 502.8123474121094 395.23809814453125 515.3289794921875 386.99578857421875 477.94378662109375 C 388.13372802734375 453.173583984375 391.3821716308594 450.1638488769531 442.5967712402344 447.45745849609375 C 482.4613952636719 451.2951965332031 484.77593994140625 455.9822998046875 490.46759033203125 477.19635009765625" stroke-width="0.0" fill="rgb(14, 14, 15)" opacity="0.9967594"/>
    <path d="M 578.2823486328125 96.20882415771484 C 577.4387817382812 140.2917022705078 572.56640625 117.5497817993164 537.7538452148438 116.40546417236328 C 504.51971435546875 112.83769226074219 491.9914245605469 113.17902374267578 489.52716064453125 95.64070892333984 C 499.3927001953125 75.98419952392578 503.7456970214844 71.81986999511719 539.5405883789062 62.75528335571289 C 559.3983764648438 62.16551208496094 562.2591552734375 67.52761840820312 578.2823486328125 96.20882415771484" stroke-width="0.0" fill="rgb(15, 14, 15)" opacity="0.95217806"/>
    <path d="M 166.53167724609375 411.9178161621094 C 157.5196990966797 437.48907470703125 154.36965942382812 444.4232482910156 124.81475067138672 448.6858825683594 C 90.67552947998047 435.2152404785156 84.13080596923828 433.9940490722656 81.08058166503906 398.69110107421875 C 86.8851318359375 373.08135986328125 92.0839614868164 373.0302429199219 122.87705993652344 374.1461486816406 C 152.2480010986328 376.03558349609375 162.14431762695312 374.3883056640625 166.53167724609375 411.9178161621094" stroke-width="0.0" fill="rgb(17, 17, 18)" opacity="0.8183259"/>
    <path d="M 554.1362915039062 176.59817504882812 C 554.0126342773438 200.78561401367188 552.2798461914062 203.73915100097656 538.6459350585938 209.09857177734375 C 501.3124084472656 198.56698608398438 501.51763916015625 191.94715881347656 478.9308166503906 153.3167266845703 C 476.7251892089844 129.0323944091797 479.11981201171875 124.49128723144531 502.90679931640625 120.7485122680664 C 560.7181396484375 124.15543365478516 554.1288452148438 136.8000946044922 554.1362915039062 176.59817504882812" stroke-width="0.0" fill="rgb(4, 4, 4)" opacity="0.98483396"/>
    <path d="M 372.3240051269531 132.82568359375 C 361.53436279296875 148.25770568847656 358.78131103515625 151.35809326171875 343.0161437988281 157.2202606201172 C 334.2657775878906 148.92291259765625 333.4648132324219 143.7392578125 331.1606750488281 135.1724090576172 C 335.85113525390625 125.47772979736328 335.8233337402344 120.08534240722656 347.0112609863281 109.06919860839844 C 359.4704284667969 117.27747344970703 364.867919921875 116.96539306640625 372.3240051269531 132.82568359375" stroke-width="0.0" fill="rgb(176, 175, 174)" opacity="1.0"/>
    <path d="M 348.0862121582031 121.43995666503906 C 332.0527038574219 127.75765991210938 329.6313171386719 128.52862548828125 327.01312255859375 129.5561981201172 C 323.4191589355469 129.84664916992188 318.0802307128906 132.82687377929688 298.10772705078125 122.9750747680664 C 306.4453430175781 105.9973373413086 310.0871276855469 103.13167572021484 327.9068603515625 93.2435531616211 C 343.8148498535156 105.64717864990234 345.6591796875 110.2166748046875 348.0862121582031 121.43995666503906" stroke-width="0.0" fill="rgb(202, 200, 197)" opacity="0.929871"/>
    <path d="M 495.2667236328125 330.7435607910156 C 465.44366455078125 349.573486328125 449.8509216308594 340.90631103515625 453.3352966308594 317.9351806640625 C 446.3614196777344 316.8420104980469 443.4601135253906 312.7648620605469 415.9059753417969 302.42596435546875 C 421.7796936035156 308.0863342285156 431.3627014160156 298.2984924316406 449.4704284667969 292.5902404785156 C 478.6628112792969 302.80413818359375 493.4725646972656 296.34906005859375 495.2667236328125 330.7435607910156" stroke-width="0.0" fill="rgb(7, 7, 8)" opacity="0.99540454"/>
    <path d="M 321.430908203125 324.4625549316406 C 326.1462707519531 336.0356750488281 331.6388854980469 346.1861572265625 315.8841552734375 367.49822998046875 C 286.9700622558594 361.076416015625 281.8648376464844 356.5987243652344 285.79730224609375 338.16082763671875 C 306.13287353515625 319.6849060058594 309.20501708984375 319.14276123046875 316.76080322265625 321.5143127441406 C 323.2994079589844 321.494873046875 324.70721435546875 323.4792785644531 321.430908203125 324.4625549316406" stroke-width="0.0" fill="rgb(126, 124, 126)" opacity="1.0"/>
    <path d="M 482.41015625 230.87777709960938 C 475.5610046386719 235.23275756835938 465.5564270019531 230.35626220703125 455.715087890625 225.082275390625 C 443.36431884765625 226.23822021484375 434.1029357910156 215.9703826904297 419.0752868652344 222.2188262939453 C 425.47576904296875 196.8162841796875 426.8070373535156 194.864990234375 435.2225646972656 199.87225341796875 C 463.0317687988281 206.74684143066406 467.2031555175781 208.0201873779297 482.41015625 230.87777709960938" stroke-width="0.0" fill="rgb(28, 29, 29)" opacity="0.9202722"/>
    <path d="M 392.0377502441406 302.93170166015625 C 382.6756896972656 340.3922119140625 375.3484802246094 341.3963623046875 355.3641662597656 339.5951843261719 C 338.0019226074219 314.1504211425781 327.92706298828125 315.515380859375 300.5605773925781 293.60675048828125 C 299.27362060546875 267.4525451660156 304.57305908203125 271.1341857910156 331.1650085449219 287.29925537109375 C 367.2845153808594 299.1068115234375 386.9043273925781 293.4500427246094 392.0377502441406 302.93170166015625" stroke-width="0.0" fill="rgb(5, 5, 5)" opacity="0.98348016"/>
    <path d="M 605.811767578125 94.41070556640625 C 604.2828369140625 103.63352966308594 605.6222534179688 110.3062744140625 590.5210571289062 124.36538696289062 C 574.3309936523438 114.89270782470703 572.2496337890625 111.83909606933594 565.6389770507812 92.08358764648438 C 573.5885620117188 78.14013671875 579.5130615234375 82.07017517089844 591.6283569335938 85.26615905761719 C 600.9937133789062 83.38542938232422 602.2075805664062 86.19628143310547 605.811767578125 94.41070556640625" stroke-width="0.0" fill="rgb(159, 157, 155)" opacity="0.8813804"/>
    <path d="M 313.15179443359375 144.8419647216797 C 306.86065673828125 154.2174530029297 303.7845764160156 156.1242218017578 297.17413330078125 157.66021728515625 C 288.9713439941406 152.95928955078125 284.4181213378906 153.1097869873047 271.7115173339844 146.64764404296875 C 279.95391845703125 133.1536102294922 281.6241455078125 128.9247283935547 298.1929016113281 114.4452896118164 C 310.82110595703125 127.20761108398438 309.7530822753906 133.2593536376953 313.15179443359375 144.8419647216797" stroke-width="0.0" fill="rgb(200, 197, 195)" opacity="0.87483066"/>
    <path d="M 123.39804077148438 319.31414794921875 C 126.4981689453125 308.886474609375 128.10377502441406 315.3476257324219 117.75089263916016 332.7205810546875 C 108.08300018310547 322.02899169921875 107.35018920898438 315.6227111816406 99.25741577148438 297.88629150390625 C 111.92509460449219 289.3740539550781 117.84801483154297 289.5321960449219 126.61181640625 291.6562194824219 C 129.12371826171875 298.5461730957031 126.18675231933594 306.2960205078125 123.39804077148438 319.31414794921875" stroke-width="0.0" fill="rgb(182, 182, 181)" opacity="0.7786149"/>
    <path d="M 533.8876342773438 409.4180908203125 C 525.868408203125 439.5159606933594 527.27099609375 458.2995910644531 487.1554260253906 468.3981628417969 C 463.9103088378906 462.8280029296875 462.9257507324219 456.3426818847656 466.49639892578125 437.5609436035156 C 483.0082092285156 395.54949951171875 484.071533203125 389.42547607421875 516.2579956054688 384.1911315917969 C 530.4185180664062 383.6875305175781 531.6378784179688 387.8411560058594 533.8876342773438 409.4180908203125" stroke-width="0.0" fill="rgb(9, 9, 10)" opacity="0.9929076"/>
    <path d="M 512.087646484375 398.79498291015625 C 506.0167541503906 426.6670837402344 504.5319519042969 432.9500427246094 467.3058166503906 453.5158996582031 C 450.0103759765625 447.0453796386719 453.7469787597656 438.71673583984375 437.6119689941406 383.3606262207031 C 435.71270751953125 363.1252746582031 438.8060607910156 358.8113708496094 452.55572509765625 356.03289794921875 C 506.157958984375 380.873779296875 510.0101623535156 384.5957946777344 512.087646484375 398.79498291015625" stroke-width="0.0" fill="rgb(34, 34, 35)" opacity="0.872052"/>
    <path d="M 515.5181884765625 385.547607421875 C 527.6144409179688 396.37750244140625 531.6419067382812 405.858154296875 523.8817138671875 412.59375 C 496.51531982421875 395.59088134765625 500.5867004394531 384.5169372558594 495.7779846191406 375.613037109375 C 488.7344970703125 365.6493835449219 485.61920166015625 360.05010986328125 493.8527526855469 364.8457336425781 C 510.4342956542969 372.5397644042969 510.4701232910156 377.0246276855469 515.5181884765625 385.547607421875" stroke-width="0.0" fill="rgb(1, 1, 2)" opacity="0.95343435"/>
    <path d="M 395.4088439941406 148.04635620117188 C 381.8060607910156 154.94239807128906 379.80523681640625 156.01657104492188 371.8583068847656 166.47866821289062 C 361.7369079589844 164.30984497070312 357.5768737792969 162.1925811767578 348.7703552246094 152.4098358154297 C 361.2145690917969 137.53903198242188 359.9747619628906 129.76336669921875 372.2737731933594 119.10839080810547 C 388.064697265625 132.126220703125 390.17254638671875 135.26248168945312 395.4088439941406 148.04635620117188" stroke-width="0.0" fill="rgb(185, 183, 182)" opacity="0.7366798"/>
    <path d="M 557.1029663085938 195.0824432373047 C 556.4271240234375 194.77134704589844 555.499267578125 197.97373962402344 554.2660522460938 212.5613250732422 C 543.3488159179688 211.79678344726562 539.937255859375 208.55789184570312 537.864501953125 204.81036376953125 C 532.3966674804688 188.77406311035156 537.28662109375 178.5315704345703 550.709228515625 174.99818420410156 C 558.275390625 189.5180206298828 557.4425048828125 194.86305236816406 557.1029663085938 195.0824432373047" stroke-width="0.0" fill="rgb(141, 141, 140)" opacity="0.8988388"/>
    <path d="M 377.39617919921875 378.0076599121094 C 384.2604675292969 407.0760803222656 380.9811096191406 411.850341796875 362.15240478515625 415.22796630859375 C 334.558837890625 376.63818359375 329.99566650390625 368.7430419921875 328.9786376953125 354.4395446777344 C 324.835205078125 335.8851623535156 307.94580078125 327.9368896484375 330.68292236328125 324.336181640625 C 351.9903564453125 338.0068664550781 351.5639343261719 348.9756774902344 377.39617919921875 378.0076599121094" stroke-width="0.0" fill="rgb(0, 0, 0)" opacity="0.99911094"/>
    <path d="M 279.7825927734375 163.8727569580078 C 278.1372985839844 171.3575439453125 270.80218505859375 170.12832641601562 251.95655822753906 175.18035888671875 C 245.64366149902344 164.05258178710938 245.01271057128906 160.25843811035156 249.7012939453125 154.6077117919922 C 252.0355987548828 143.26913452148438 239.15589904785156 133.1810760498047 240.81028747558594 122.78382873535156 C 263.24981689453125 139.1857452392578 267.86114501953125 142.5345001220703 279.7825927734375 163.8727569580078" stroke-width="0.0" fill="rgb(177, 176, 175)" opacity="0.93619156"/>
    <path d="M 247.80731201171875 89.65250396728516 C 230.14984130859375 99.00882720947266 232.76019287109375 105.46560668945312 226.07559204101562 120.83790588378906 C 212.9412384033203 106.16313934326172 214.54139709472656 100.55471801757812 215.7959747314453 95.06031036376953 C 217.45985412597656 89.50877380371094 219.1999969482422 87.9412612915039 225.9344482421875 88.84525299072266 C 232.16188049316406 87.03726196289062 238.88352966308594 82.81889343261719 247.80731201171875 89.65250396728516" stroke-width="0.0" fill="rgb(203, 201, 198)" opacity="0.8250711"/>
    <path d="M 188.3428955078125 268.2262878417969 C 185.27316284179688 292.53057861328125 180.76519775390625 286.9355773925781 169.17483520507812 286.1935729980469 C 137.61569213867188 283.14166259765625 131.7999267578125 284.5745544433594 126.17675018310547 276.0947570800781 C 134.94903564453125 260.02630615234375 141.000732421875 259.1571044921875 168.2996063232422 242.22547912597656 C 180.95233154296875 238.60549926757812 185.40513610839844 239.7344970703125 188.3428955078125 268.2262878417969" stroke-width="0.0" fill="rgb(7, 7, 7)" opacity="1.0"/>
    <path d="M 29.51731300354004 117.25664520263672 C 22.25950050354004 133.7278289794922 19.96468162536621 137.78480529785156 3.0324671268463135 146.9258270263672 C -6.343685626983643 130.02565002441406 -2.771723985671997 123.57368469238281 -1.226381778717041 119.2180404663086 C -0.36143678426742554 116.45109558105469 1.4351143836975098 114.5948257446289 4.826534748077393 112.85489654541016 C 9.946370124816895 109.73667907714844 15.864151954650879 106.95429992675781 29.51731300354004 117.25664520263672" stroke-width="0.0" fill="rgb(191, 189, 187)" opacity="0.75417614"/>
    <path d="M 192.45242309570312 136.3411407470703 C 187.81715393066406 155.95909118652344 179.0045166015625 149.55532836914062 156.1811981201172 133.80235290527344 C 145.55357360839844 125.52544403076172 142.3038330078125 121.1204833984375 124.24705505371094 122.07362365722656 C 132.79812622070312 110.83667755126953 134.35760498046875 103.87838745117188 151.25018310546875 100.11367797851562 C 157.9718780517578 108.7215347290039 169.30215454101562 112.88333892822266 192.45242309570312 136.3411407470703" stroke-width="0.0" fill="rgb(2, 2, 3)" opacity="0.98785436"/>
    <path d="M 443.3659362792969 261.9837341308594 C 440.43719482421875 296.9022216796875 436.3563537597656 292.1553039550781 395.89398193359375 288.0894470214844 C 347.41326904296875 289.29058837890625 342.01141357421875 292.73236083984375 340.62579345703125 276.70660400390625 C 364.3725891113281 234.0701904296875 371.32879638671875 230.80020141601562 409.4848327636719 217.82398986816406 C 437.530029296875 205.67799377441406 441.1832275390625 208.14158630371094 443.3659362792969 261.9837341308594" stroke-width="0.0" fill="rgb(2, 2, 3)" opacity="0.9660881"/>
    <path d="M 524.5741577148438 357.5766296386719 C 523.80859375 375.7193298339844 512.382568359375 369.1848449707031 501.05694580078125 360.974609375 C 498.0146484375 356.0621643066406 488.660888671875 360.2074890136719 452.18841552734375 337.9723205566406 C 454.75823974609375 314.1470031738281 458.09771728515625 308.0849914550781 493.939453125 306.809326171875 C 515.7537231445312 329.53143310546875 517.689697265625 335.3064270019531 524.5741577148438 357.5766296386719" stroke-width="0.0" fill="rgb(11, 10, 11)" opacity="0.9120631"/>
    <path d="M 557.3782958984375 171.19305419921875 C 557.9207153320312 172.4965057373047 555.5487670898438 187.6089630126953 543.7640991210938 217.97567749023438 C 520.2919921875 212.15570068359375 524.5905151367188 201.39683532714844 522.0573120117188 151.20204162597656 C 511.883056640625 123.76226043701172 509.57525634765625 119.81855773925781 569.704345703125 117.7459945678711 C 564.9674072265625 136.5836944580078 556.8353271484375 154.0467071533203 557.3782958984375 171.19305419921875" stroke-width="0.0" fill="rgb(7, 6, 7)" opacity="1.0"/>
    <path d="M 14.816073417663574 113.3044662475586 C 6.147615909576416 119.27642059326172 4.299455642700195 121.01274871826172 1.9136933088302612 121.70796966552734 C -0.476106196641922 121.29602813720703 -2.323904514312744 119.49217224121094 -3.1084275245666504 116.97383117675781 C -2.777073860168457 114.23847961425781 -4.015836715698242 110.65474700927734 3.2374000549316406 91.71353912353516 C 17.173959732055664 100.43865966796875 18.548620223999023 106.07125854492188 14.816073417663574 113.3044662475586" stroke-width="0.0" fill="rgb(203, 201, 199)" opacity="0.89803284"/>
    <path d="M 178.2367706298828 243.7059326171875 C 158.7047882080078 270.2002868652344 152.8647003173828 270.6744689941406 131.09353637695312 282.5413818359375 C 119.35084533691406 283.74517822265625 111.95247650146484 283.9868469238281 108.09087371826172 265.1884765625 C 117.5738525390625 237.10809326171875 121.1053466796875 231.76370239257812 149.11343383789062 225.5629119873047 C 170.22914123535156 229.1551971435547 173.80172729492188 233.21112060546875 178.2367706298828 243.7059326171875" stroke-width="0.0" fill="rgb(4, 5, 5)" opacity="1.0"/>
    <path d="M 275.0224914550781 240.50146484375 C 278.4267578125 256.2657775878906 272.123779296875 242.68516540527344 241.96405029296875 232.4642791748047 C 223.9835662841797 222.22119140625 211.1768341064453 221.56439208984375 202.15061950683594 212.1995086669922 C 207.35842895507812 196.73028564453125 212.89613342285156 194.46051025390625 233.39051818847656 198.2598419189453 C 253.92494201660156 192.00086975097656 254.98509216308594 194.7491455078125 275.0224914550781 240.50146484375" stroke-width="0.0" fill="rgb(1, 1, 2)" opacity="0.98889184"/>
    <path d="M 313.1883850097656 91.08848571777344 C 304.6698913574219 108.62459564208984 301.1371765136719 111.82659912109375 286.9654235839844 121.44009399414062 C 270.76934814453125 106.42569732666016 270.0216979980469 101.31315612792969 263.4318542480469 89.34632873535156 C 274.6609802246094 86.22079467773438 279.39044189453125 85.84188079833984 282.9740905761719 85.6239013671875 C 287.77423095703125 87.0647964477539 293.74017333984375 83.23369598388672 313.1883850097656 91.08848571777344" stroke-width="0.0" fill="rgb(194, 191, 188)" opacity="0.73580354"/>
    <path d="M 346.99853515625 145.72402954101562 C 337.77264404296875 162.2107391357422 334.8558654785156 165.39483642578125 323.49676513671875 173.5263671875 C 304.4216003417969 160.74765014648438 302.7240905761719 156.78097534179688 296.7091369628906 142.59266662597656 C 302.4779357910156 131.935302734375 303.7679443359375 127.92750549316406 312.1783752441406 123.01808166503906 C 325.9049987792969 133.45326232910156 331.3505859375 133.0817108154297 346.99853515625 145.72402954101562" stroke-width="0.0" fill="rgb(202, 200, 199)" opacity="0.93308985"/>
    <path d="M 120.42439270019531 118.20665740966797 C 115.62890625 149.2376708984375 118.72721862792969 157.09814453125 87.20055389404297 161.3165740966797 C 60.321327209472656 164.7018280029297 54.97318649291992 166.75193786621094 53.052459716796875 132.35934448242188 C 62.48108673095703 119.70547485351562 79.9214096069336 127.17208099365234 114.27700805664062 125.47653198242188 C 117.14450073242188 117.27994537353516 127.14107513427734 103.7999038696289 120.42439270019531 118.20665740966797" stroke-width="0.0" fill="rgb(7, 7, 7)" opacity="0.98976964"/>
    <path d="M 471.65869140625 154.65187072753906 C 454.3196105957031 186.21115112304688 446.6324157714844 188.7604217529297 427.9007568359375 209.10491943359375 C 410.25152587890625 211.0023651123047 407.8094177246094 208.95193481445312 402.78125 168.81419372558594 C 406.1045227050781 145.2686309814453 413.6479797363281 146.49740600585938 457.87884521484375 127.50858306884766 C 482.8606872558594 127.15528869628906 478.53033447265625 131.36155700683594 471.65869140625 154.65187072753906" stroke-width="0.0" fill="rgb(32, 32, 33)" opacity="1.0"/>
    <path d="M 136.3982696533203 357.5757141113281 C 128.6782684326172 371.3145751953125 124.66785430908203 374.9317626953125 95.50399780273438 393.62030029296875 C 88.62873840332031 392.3697814941406 86.13688659667969 387.420166015625 82.56803894042969 363.62042236328125 C 89.8908920288086 343.7453918457031 94.89415740966797 338.5204162597656 133.44639587402344 327.3092956542969 C 141.19178771972656 336.0502014160156 139.25924682617188 345.20098876953125 136.3982696533203 357.5757141113281" stroke-width="0.0" fill="rgb(84, 84, 84)" opacity="1.0"/>
    <path d="M 62.95547866821289 63.879512786865234 C 56.60834884643555 106.93643188476562 51.05280685424805 112.2436752319336 33.43710708618164 117.88855743408203 C 26.818710327148438 110.56104278564453 26.11119270324707 102.72648620605469 23.328542709350586 90.34268951416016 C 37.23756790161133 89.66194915771484 40.5824089050293 85.8683853149414 32.320899963378906 88.38341522216797 C 42.82133483886719 90.25552368164062 49.37287902832031 66.799072265625 62.95547866821289 63.879512786865234" stroke-width="0.0" fill="rgb(4, 5, 5)" opacity="0.97399753"/>
    <path d="M 341.3439025878906 383.40716552734375 C 350.64337158203125 394.1846923828125 356.3233947753906 407.40814208984375 343.7229919433594 413.2830810546875 C 327.1784973144531 383.83734130859375 328.30859375 378.57275390625 327.2126770019531 375.54754638671875 C 325.112548828125 372.28564453125 326.7950439453125 369.97283935546875 324.01373291015625 372.8787536621094 C 326.6506042480469 377.2151794433594 332.4151611328125 375.7510070800781 341.3439025878906 383.40716552734375" stroke-width="0.0" fill="rgb(123, 122, 123)" opacity="1.0"/>
    <path d="M 112.30233001708984 392.7511901855469 C 107.65859985351562 415.67633056640625 106.39010620117188 419.1767272949219 83.71858978271484 426.9920959472656 C 56.1475830078125 421.4707946777344 66.26447296142578 409.9137268066406 64.4856185913086 395.1201171875 C 65.93292999267578 370.4252014160156 67.5203857421875 362.51593017578125 94.1010513305664 348.5625 C 111.9090347290039 345.6759033203125 113.25396728515625 351.21832275390625 112.30233001708984 392.7511901855469" stroke-width="0.0" fill="rgb(19, 19, 19)" opacity="0.9397936"/>
    <path d="M 458.6763000488281 510.24249267578125 C 446.8992004394531 522.0806884765625 442.3300476074219 520.4984741210938 436.0760803222656 526.4271850585938 C 428.9041748046875 518.6697998046875 425.3903503417969 513.6588745117188 431.236572265625 511.5498352050781 C 433.8934326171875 509.7383728027344 431.50390625 508.669189453125 419.5733642578125 512.8121948242188 C 431.5801696777344 509.2545166015625 438.57110595703125 510.3865051269531 458.6763000488281 510.24249267578125" stroke-width="0.0" fill="rgb(233, 232, 233)" opacity="0.85731024"/>
    <path d="M 470.9837951660156 526.61669921875 C 451.6394348144531 542.0503540039062 447.134033203125 543.4031982421875 438.9747619628906 549.3872680664062 C 428.16485595703125 549.617431640625 422.0338439941406 550.66162109375 415.5264892578125 541.3524780273438 C 426.5154724121094 522.989990234375 429.2413024902344 520.0336303710938 447.5845642089844 511.3368225097656 C 458.7744140625 513.5576782226562 462.9112243652344 515.552490234375 470.9837951660156 526.61669921875" stroke-width="0.0" fill="rgb(197, 196, 195)" opacity="0.9947785"/>
    <path d="M 512.570556640625 390.4542236328125 C 520.8001098632812 403.84881591796875 522.9430541992188 410.2747802734375 502.3733215332031 414.068115234375 C 474.9971923828125 409.0107727050781 467.4857482910156 408.2453918457031 448.5538024902344 359.986328125 C 451.2182312011719 338.82110595703125 454.6215515136719 341.4142761230469 475.5228271484375 355.355712890625 C 508.298828125 368.5403137207031 505.5242614746094 377.4811096191406 512.570556640625 390.4542236328125" stroke-width="0.0" fill="rgb(7, 8, 7)" opacity="0.97889096"/>
    <path d="M 438.21954345703125 194.85751342773438 C 426.20318603515625 209.0347442626953 412.14898681640625 212.73190307617188 392.1925048828125 218.7806854248047 C 371.84625244140625 221.33389282226562 374.3994140625 218.46051025390625 381.10479736328125 207.59829711914062 C 391.63116455078125 191.43362426757812 392.0167236328125 181.7762451171875 416.595458984375 155.47457885742188 C 432.32220458984375 159.537109375 434.1217346191406 164.81460571289062 438.21954345703125 194.85751342773438" stroke-width="0.0" fill="rgb(5, 5, 5)" opacity="0.99561274"/>
    <path d="M 309.71124267578125 154.8818359375 C 301.8062744140625 165.15335083007812 298.88629150390625 167.22402954101562 285.3232727050781 178.3811492919922 C 274.4273986816406 178.903076171875 269.9388427734375 177.0770263671875 263.12310791015625 162.90818786621094 C 274.79290771484375 144.0070037841797 279.837158203125 143.42926025390625 288.55181884765625 144.09237670898438 C 298.3812255859375 149.480712890625 303.0858154296875 149.73361206054688 309.71124267578125 154.8818359375" stroke-width="0.0" fill="rgb(197, 196, 194)" opacity="0.9062887"/>
    <path d="M 340.3369445800781 238.11717224121094 C 326.0517272949219 244.01795959472656 344.4736633300781 255.6318817138672 339.7130126953125 294.0074462890625 C 285.83392333984375 290.1141662597656 290.5658874511719 279.0946044921875 309.3580322265625 236.86904907226562 C 327.02520751953125 254.51026916503906 316.98980712890625 254.8804931640625 329.5706481933594 233.3502197265625 C 333.5163269042969 220.93028259277344 340.84466552734375 226.2216339111328 340.3369445800781 238.11717224121094" stroke-width="0.0" fill="rgb(28, 28, 28)" opacity="0.7733729"/>
    <path d="M 531.811279296875 394.85552978515625 C 533.6261596679688 405.4831237792969 535.2644653320312 408.2817077636719 533.1663208007812 413.1851501464844 C 510.91485595703125 380.6978454589844 510.203857421875 377.60955810546875 512.3159790039062 377.3636779785156 C 512.3493041992188 376.5608825683594 515.3977661132812 376.6949157714844 513.6342163085938 349.5072326660156 C 528.0690307617188 345.32586669921875 529.2215576171875 352.7731628417969 531.811279296875 394.85552978515625" stroke-width="0.0" fill="rgb(29, 29, 30)" opacity="0.87303406"/>
    <path d="M 331.1258239746094 319.7377624511719 C 354.4193115234375 339.0094299316406 359.06072998046875 347.18072509765625 342.7745056152344 346.8055114746094 C 283.01861572265625 349.73974609375 275.35784912109375 354.08953857421875 270.3656005859375 311.1055908203125 C 274.68682861328125 271.2209777832031 282.6431884765625 274.1438293457031 327.62481689453125 281.1492614746094 C 316.7127685546875 317.6734619140625 318.37548828125 308.60491943359375 331.1258239746094 319.7377624511719" stroke-width="0.0" fill="rgb(43, 42, 44)" opacity="0.9555658"/>
    <path d="M 289.55340576171875 232.66285705566406 C 295.9577331542969 235.34579467773438 293.2656555175781 238.3837127685547 296.9184265136719 241.42401123046875 C 300.432861328125 236.80657958984375 294.7699279785156 236.54437255859375 292.6375732421875 240.65411376953125 C 295.8041076660156 233.53131103515625 291.2833557128906 227.5782928466797 297.44757080078125 230.01539611816406 C 302.9096374511719 233.55877685546875 292.8998107910156 236.79025268554688 289.55340576171875 232.66285705566406" stroke-width="0.0" fill="rgb(149, 149, 149)" opacity="0.9076979"/>
    <path d="M 254.9951171875 434.0711975097656 C 245.82984924316406 449.16937255859375 245.29647827148438 454.9710693359375 236.54342651367188 464.9757385253906 C 232.3489227294922 458.5915832519531 229.86669921875 454.8995361328125 234.16824340820312 449.8520812988281 C 234.7713165283203 442.5840759277344 238.3792724609375 437.14007568359375 263.0137634277344 395.9144287109375 C 273.9761962890625 398.41259765625 263.84295654296875 409.37213134765625 254.9951171875 434.0711975097656" stroke-width="0.0" fill="rgb(12, 12, 12)" opacity="0.9927676"/>
    <path d="M 256.1980285644531 409.77130126953125 C 246.5224609375 440.7335205078125 245.0513916015625 447.2984619140625 221.9637451171875 452.0225830078125 C 172.83163452148438 437.8473205566406 163.383544921875 436.36181640625 156.76991271972656 395.11639404296875 C 162.5359649658203 377.2686462402344 172.955810546875 395.87762451171875 209.7113494873047 389.8593444824219 C 241.40325927734375 385.2026672363281 254.22657775878906 368.248779296875 256.1980285644531 409.77130126953125" stroke-width="0.0" fill="rgb(11, 11, 11)" opacity="0.9453469"/>
    <path d="M 143.20034790039062 485.0546875 C 139.1478271484375 509.3216247558594 133.12594604492188 509.4066162109375 118.0966796875 502.93377685546875 C 95.72872924804688 477.71429443359375 95.1534652709961 477.5849304199219 90.81964874267578 465.73931884765625 C 83.17172241210938 457.0320129394531 86.90328979492188 458.8951416015625 118.02116394042969 439.261962890625 C 130.98619079589844 435.4656982421875 131.42245483398438 439.46881103515625 143.20034790039062 485.0546875" stroke-width="0.0" fill="rgb(19, 18, 19)" opacity="0.95783174"/>
    <path d="M 290.88165283203125 197.37892150878906 C 290.4973449707031 205.7256622314453 292.50396728515625 208.74581909179688 282.49237060546875 212.8138885498047 C 275.7508239746094 209.86727905273438 274.40234375 206.1558074951172 268.8034362792969 194.30191040039062 C 269.4385681152344 184.01406860351562 268.9692077636719 175.36363220214844 276.8548583984375 168.54605102539062 C 295.2890319824219 186.9875030517578 291.3246154785156 191.57630920410156 290.88165283203125 197.37892150878906" stroke-width="0.0" fill="rgb(190, 190, 189)" opacity="1.0"/>
    <path d="M 229.25389099121094 213.8759307861328 C 229.59707641601562 222.96849060058594 229.57447814941406 220.14181518554688 207.2733154296875 217.3562469482422 C 191.9658966064453 212.5363006591797 178.62371826171875 210.59591674804688 148.1859588623047 185.98008728027344 C 150.91326904296875 159.3955841064453 154.42385864257812 156.23301696777344 169.59573364257812 153.9766845703125 C 219.1573028564453 180.8784942626953 219.79971313476562 188.16200256347656 229.25389099121094 213.8759307861328" stroke-width="0.0" fill="rgb(5, 5, 5)" opacity="0.9930287"/>
    <path d="M 483.4536437988281 549.7520141601562 C 471.1557922363281 569.8737182617188 467.0835266113281 572.8056030273438 442.1481018066406 582.2843017578125 C 424.8390808105469 572.2199096679688 421.1773376464844 568.9915161132812 413.8238830566406 554.2861938476562 C 434.5786437988281 537.6045532226562 440.3531799316406 538.0296020507812 452.0222473144531 528.5907592773438 C 463.7653503417969 527.4270629882812 469.906494140625 527.0833740234375 483.4536437988281 549.7520141601562" stroke-width="0.0" fill="rgb(194, 193, 191)" opacity="0.9670061"/>
    <path d="M 173.41534423828125 287.97808837890625 C 160.01138305664062 288.83447265625 149.00369262695312 288.806640625 140.376220703125 288.3935546875 C 129.19911193847656 289.5457458496094 111.18922424316406 288.37664794921875 88.67279815673828 285.1195983886719 C 94.68798828125 249.28134155273438 102.72069549560547 250.15798950195312 119.22221374511719 255.09068298339844 C 153.93653869628906 267.4064025878906 159.90330505371094 269.03729248046875 173.41534423828125 287.97808837890625" stroke-width="0.0" fill="rgb(4, 4, 4)" opacity="0.9959404"/>
    <path d="M 114.09095764160156 461.50360107421875 C 106.27095794677734 477.0057373046875 96.71168518066406 477.4062194824219 88.56974029541016 463.9239196777344 C 85.5406723022461 458.7554016113281 81.10968017578125 458.96649169921875 75.4368667602539 449.00823974609375 C 66.24443054199219 432.773681640625 64.67098999023438 426.1708984375 75.6739273071289 428.5014953613281 C 104.3287353515625 437.0679016113281 110.4416732788086 437.9140319824219 114.09095764160156 461.50360107421875" stroke-width="0.0" fill="rgb(14, 15, 15)" opacity="0.96350783"/>
    <path d="M 530.639404296875 179.62261962890625 C 519.419189453125 206.60606384277344 515.6403198242188 211.55081176757812 493.96728515625 228.44003295898438 C 473.5401306152344 222.73529052734375 467.34368896484375 218.1446533203125 461.8745422363281 183.61724853515625 C 465.9367370605469 159.51025390625 466.936767578125 153.64456176757812 485.2514343261719 143.3275146484375 C 526.7970581054688 155.31918334960938 527.17919921875 165.46194458007812 530.639404296875 179.62261962890625" stroke-width="0.0" fill="rgb(22, 22, 23)" opacity="0.8877582"/>
    <path d="M 413.7171936035156 352.6441650390625 C 414.6836853027344 390.9739990234375 411.1883239746094 390.3018493652344 394.8281555175781 386.9892883300781 C 359.976806640625 360.57830810546875 362.6792297363281 350.60784912109375 353.7480163574219 336.66058349609375 C 341.95623779296875 319.59527587890625 337.3034362792969 314.9854736328125 384.212158203125 301.5538024902344 C 403.0155944824219 304.3748474121094 404.4684753417969 310.0634765625 413.7171936035156 352.6441650390625" stroke-width="0.0" fill="rgb(7, 7, 8)" opacity="0.9638685"/>
    <path d="M 316.5472717285156 379.13037109375 C 307.1478271484375 407.3213195800781 300.05902099609375 405.9894714355469 284.1457214355469 403.5092468261719 C 272.9200744628906 395.6990051269531 277.4257507324219 402.728759765625 244.19664001464844 407.5187072753906 C 239.24285888671875 368.4060974121094 242.77020263671875 345.5555419921875 271.83929443359375 331.49407958984375 C 304.93511962890625 346.12969970703125 306.7489013671875 350.0494384765625 316.5472717285156 379.13037109375" stroke-width="0.0" fill="rgb(104, 104, 104)" opacity="1.0"/>
    <path d="M 130.75433349609375 84.05062103271484 C 131.0447235107422 90.11202239990234 124.42303466796875 84.84249877929688 100.69676208496094 74.78215026855469 C 104.0522232055664 74.15518188476562 109.0391616821289 75.29879760742188 94.0367202758789 68.10134887695312 C 107.30204772949219 67.8202133178711 111.11865234375 72.97643280029297 111.89020538330078 77.54430389404297 C 114.76765441894531 77.5142593383789 117.57054901123047 77.1010971069336 130.75433349609375 84.05062103271484" stroke-width="0.0" fill="rgb(221, 220, 219)" opacity="0.67446333"/>
    <path d="M 250.96002197265625 275.2166442871094 C 247.74522399902344 295.045166015625 236.62823486328125 286.3047180175781 216.51119995117188 288.7063293457031 C 200.69203186035156 287.82647705078125 190.71136474609375 290.6165466308594 183.67498779296875 288.0970764160156 C 195.6329803466797 265.07110595703125 197.2971649169922 258.1531677246094 233.8645477294922 242.02011108398438 C 247.59288024902344 245.89146423339844 248.7490234375 251.8085479736328 250.96002197265625 275.2166442871094" stroke-width="0.0" fill="rgb(5, 5, 5)" opacity="1.0"/>
    <path d="M 147.4381561279297 513.5590209960938 C 135.406494140625 521.2935791015625 125.05025482177734 516.3685913085938 118.28128051757812 512.7203369140625 C 106.17357635498047 508.61090087890625 108.03323364257812 503.87420654296875 104.66999816894531 499.0958251953125 C 104.50862121582031 498.74896240234375 115.54730987548828 506.0402526855469 135.89793395996094 505.75457763671875 C 142.081298828125 492.9757080078125 144.85775756835938 479.7113342285156 147.4381561279297 513.5590209960938" stroke-width="0.0" fill="rgb(124, 122, 121)" opacity="0.9383315"/>
    <path d="M 449.61676025390625 339.88323974609375 C 448.3548278808594 362.41357421875 451.3782653808594 375.181396484375 422.5982360839844 379.5669250488281 C 378.26702880859375 375.5600891113281 378.6669921875 368.5848388671875 372.9695739746094 318.35797119140625 C 372.7088623046875 292.8257751464844 375.2961730957031 299.53936767578125 408.72076416015625 304.760009765625 C 435.2923278808594 313.0855407714844 450.4727783203125 312.3014221191406 449.61676025390625 339.88323974609375" stroke-width="0.0" fill="rgb(5, 5, 6)" opacity="0.9833358"/>
    <path d="M 435.2893981933594 125.72702026367188 C 432.4530944824219 172.31390380859375 424.5393371582031 178.27670288085938 363.0971374511719 194.9755096435547 C 348.60015869140625 188.86178588867188 355.9014587402344 173.54193115234375 386.8486633300781 150.04420471191406 C 390.57513427734375 141.8876495361328 397.58087158203125 143.7414093017578 393.4532470703125 141.95465087890625 C 409.7726745605469 133.1681671142578 423.6969909667969 114.08472442626953 435.2893981933594 125.72702026367188" stroke-width="0.0" fill="rgb(26, 26, 26)" opacity="1.0"/>
    <path d="M 153.7617645263672 241.16293334960938 C 147.15289306640625 261.8979797363281 144.0102081298828 268.490234375 94.53458404541016 287.9354248046875 C 76.49449920654297 285.42401123046875 71.06441497802734 282.6231994628906 68.37984466552734 225.72097778320312 C 71.7076187133789 192.98231506347656 76.1473159790039 191.20350646972656 98.92434692382812 190.16696166992188 C 143.46359252929688 214.12513732910156 148.7399139404297 216.71937561035156 153.7617645263672 241.16293334960938" stroke-width="0.0" fill="rgb(16, 16, 16)" opacity="0.971244"/>
    <path d="M 158.20562744140625 365.41705322265625 C 171.4730224609375 391.0547180175781 183.42410278320312 398.4930114746094 166.21066284179688 403.46539306640625 C 126.54005432128906 385.89471435546875 125.27123260498047 378.5982360839844 110.83126068115234 343.3858947753906 C 111.57646942138672 324.1754455566406 114.93701171875 320.85565185546875 151.35525512695312 316.68212890625 C 157.6265106201172 325.6940002441406 146.7283172607422 342.91583251953125 158.20562744140625 365.41705322265625" stroke-width="0.0" fill="rgb(46, 46, 47)" opacity="0.95339197"/>
    <path d="M 402.2884216308594 203.54061889648438 C 400.0863342285156 216.59750366210938 396.70648193359375 218.6891326904297 366.2061767578125 223.65850830078125 C 348.6910095214844 232.59031677246094 345.2205810546875 229.72669982910156 345.0325622558594 218.21603393554688 C 375.24871826171875 198.243408203125 373.5561828613281 191.2039794921875 395.83099365234375 178.85594177246094 C 400.005126953125 172.70281982421875 401.0513610839844 178.76170349121094 402.2884216308594 203.54061889648438" stroke-width="0.0" fill="rgb(1, 1, 1)" opacity="0.9982317"/>
    <path d="M 169.0959014892578 392.96319580078125 C 167.06495666503906 409.61602783203125 162.15975952148438 407.38818359375 140.33885192871094 408.10614013671875 C 99.16499328613281 405.3594665527344 93.15245056152344 402.991455078125 87.02561950683594 388.8073425292969 C 107.3283920288086 368.54681396484375 119.43277740478516 367.7485656738281 139.6636505126953 348.0840148925781 C 148.49107360839844 347.5470886230469 152.24832153320312 351.6732482910156 169.0959014892578 392.96319580078125" stroke-width="0.0" fill="rgb(6, 6, 7)" opacity="0.95706564"/>
    <path d="M 248.6236572265625 242.12562561035156 C 244.1890411376953 269.0981750488281 238.06935119628906 269.2848205566406 209.70045471191406 267.2243957519531 C 173.69944763183594 264.63165283203125 171.11961364746094 261.47796630859375 170.39584350585938 237.81146240234375 C 172.39239501953125 210.22470092773438 170.67852783203125 213.60842895507812 193.44126892089844 217.20213317871094 C 213.334228515625 226.01953125 229.18170166015625 229.0697021484375 248.6236572265625 242.12562561035156" stroke-width="0.0" fill="rgb(5, 5, 6)" opacity="0.9904755"/>
    <path d="M 506.4551086425781 235.29835510253906 C 504.8234558105469 245.59408569335938 502.72418212890625 239.2186279296875 483.57696533203125 235.18856811523438 C 451.3252868652344 225.93942260742188 445.5384826660156 225.1320343017578 436.2810974121094 206.7266387939453 C 442.2603759765625 199.4703826904297 447.3072509765625 196.97877502441406 466.21624755859375 179.22369384765625 C 482.66064453125 187.155517578125 490.7147216796875 191.95797729492188 506.4551086425781 235.29835510253906" stroke-width="0.0" fill="rgb(6, 6, 7)" opacity="0.9220131"/>
    <path d="M 521.3978881835938 66.45570373535156 C 521.0587768554688 128.49984741210938 522.2742309570312 134.382080078125 501.2457580566406 138.31948852539062 C 448.354736328125 128.45962524414062 446.4007263183594 114.33135986328125 451.21893310546875 101.29557037353516 C 476.1472473144531 84.16788482666016 480.55657958984375 86.81704711914062 475.470947265625 84.34211730957031 C 484.75177001953125 88.59818267822266 493.8533020019531 72.2945327758789 521.3978881835938 66.45570373535156" stroke-width="0.0" fill="rgb(8, 8, 9)" opacity="0.8811402"/>
    <path d="M 143.368896484375 302.159912109375 C 139.18162536621094 358.9600830078125 134.28639221191406 363.514892578125 93.03118896484375 367.0346984863281 C 80.99150085449219 363.1073303222656 93.57913970947266 349.4432678222656 92.80030059814453 332.0013732910156 C 100.97843933105469 325.8310546875 106.01638793945312 322.2630310058594 100.73666381835938 324.34332275390625 C 113.52010345458984 322.9021301269531 130.1694793701172 301.1910095214844 143.368896484375 302.159912109375" stroke-width="0.0" fill="rgb(21, 22, 22)" opacity="1.0"/>
    <path d="M 542.846435546875 223.2139892578125 C 548.2369995117188 242.69552612304688 545.8269653320312 252.55613708496094 530.9165649414062 255.1510772705078 C 487.8388977050781 252.4838409423828 492.75885009765625 246.7375946044922 500.4075012207031 208.50146484375 C 510.66436767578125 212.95294189453125 516.609130859375 213.74493408203125 524.5792846679688 215.62628173828125 C 521.767578125 212.84613037109375 515.66943359375 213.26927185058594 542.846435546875 223.2139892578125" stroke-width="0.0" fill="rgb(96, 95, 98)" opacity="1.0"/>
    <path d="M 252.7670440673828 377.8125305175781 C 253.5109405517578 399.9581298828125 253.08302307128906 405.4878845214844 254.43951416015625 389.9728088378906 C 240.6000213623047 375.63165283203125 229.56394958496094 383.6562194824219 195.13633728027344 388.0101318359375 C 199.59324645996094 362.0264587402344 204.73817443847656 363.5804443359375 221.90576171875 372.87994384765625 C 242.34214782714844 371.51788330078125 248.90032958984375 372.3333435058594 252.7670440673828 377.8125305175781" stroke-width="0.0" fill="rgb(132, 132, 132)" opacity="0.98791176"/>
    <path d="M 274.0740051269531 202.1385498046875 C 271.8224182128906 207.6781768798828 268.7319641113281 209.92544555664062 269.4156799316406 229.82528686523438 C 254.50596618652344 212.64703369140625 239.65992736816406 210.31532287597656 226.3114471435547 189.02320861816406 C 236.2752685546875 176.11399841308594 244.05538940429688 177.1735076904297 266.89068603515625 172.5380096435547 C 273.2420654296875 186.78211975097656 271.6620788574219 193.4696044921875 274.0740051269531 202.1385498046875" stroke-width="0.0" fill="rgb(118, 118, 117)" opacity="0.87308794"/>
    <path d="M 64.05596923828125 399.4244689941406 C 64.21475982666016 415.2495422363281 69.39119720458984 419.8508605957031 55.10966873168945 425.9371643066406 C 49.35622024536133 408.1549987792969 53.71122360229492 402.5769958496094 50.547691345214844 399.3138732910156 C 50.17988967895508 398.9058532714844 53.6165657043457 398.2965087890625 57.26089096069336 384.82757568359375 C 63.5700798034668 382.8624267578125 66.69949340820312 385.58935546875 64.05596923828125 399.4244689941406" stroke-width="0.0" fill="rgb(203, 202, 201)" opacity="0.82938284"/>
    <path d="M 195.59678649902344 585.3661499023438 C 183.5539093017578 605.9442749023438 176.61578369140625 605.7865600585938 160.13148498535156 607.943115234375 C 156.4429168701172 595.8488159179688 159.6262664794922 590.017333984375 157.9482421875 587.5531005859375 C 160.36766052246094 584.7639770507812 155.63516235351562 577.966796875 158.0928497314453 553.5887451171875 C 182.2105255126953 561.1809692382812 185.7615509033203 565.2291870117188 195.59678649902344 585.3661499023438" stroke-width="0.0" fill="rgb(188, 187, 184)" opacity="0.81655675"/>
    <path d="M 298.9113464355469 282.20458984375 C 297.00506591796875 292.7261657714844 279.5970153808594 281.4806823730469 251.96253967285156 288.4411926269531 C 229.16900634765625 285.58563232421875 223.27902221679688 293.5086364746094 218.97056579589844 268.492919921875 C 215.89337158203125 239.20892333984375 216.24591064453125 233.64920043945312 231.1621551513672 236.62709045410156 C 284.5823059082031 245.7268524169922 289.2467346191406 244.36676025390625 298.9113464355469 282.20458984375" stroke-width="0.0" fill="rgb(20, 20, 21)" opacity="0.9598812"/>
    <path d="M 239.96826171875 451.5080261230469 C 241.89869689941406 459.50128173828125 241.03720092773438 465.25897216796875 212.50965881347656 490.73468017578125 C 200.67652893066406 494.8382568359375 215.92214965820312 486.0777282714844 223.12042236328125 465.1233215332031 C 229.50733947753906 451.5309143066406 232.6354522705078 446.469970703125 240.48199462890625 436.01116943359375 C 243.16647338867188 441.0083312988281 244.58656311035156 445.20489501953125 239.96826171875 451.5080261230469" stroke-width="0.0" fill="rgb(5, 4, 5)" opacity="0.9898747"/>
    <path d="M 442.261474609375 433.2866516113281 C 452.125244140625 452.5893249511719 455.4720764160156 456.48162841796875 391.45355224609375 459.44964599609375 C 367.3724365234375 455.1759948730469 362.7705383300781 450.87042236328125 360.27069091796875 404.7859191894531 C 365.3933410644531 367.632568359375 371.45965576171875 386.0950622558594 397.97589111328125 389.1997375488281 C 430.487548828125 388.91864013671875 437.8175964355469 389.1210021972656 442.261474609375 433.2866516113281" stroke-width="0.0" fill="rgb(10, 10, 11)" opacity="0.96961987"/>
  </g>
</svg>
