<?xml version="1.0" ?>
<svg xmlns="http://www.w3.org/2000/svg" version="1.1" width="600" height="600">
  <defs/>
  <g>
    <path d="M 342.8976135253906 285.4861755371094 C 342.1551818847656 288.2827453613281 340.2691345214844 290.1209716796875 337.17218017578125 290.8655700683594 C 333.7484436035156 290.1015930175781 331.8631591796875 288.2654113769531 331.13092041015625 285.1852722167969 C 331.89892578125 281.7666015625 333.7648010253906 279.8945617675781 337.1019287109375 279.13787841796875 C 340.2322998046875 279.8986511230469 342.0996398925781 281.76837158203125 342.8976135253906 285.4861755371094" stroke-width="0.0" fill="rgb(3, 3, 3)" opacity="1.0"/>
    <path d="M 28.81749153137207 577.2368774414062 C 28.078445434570312 580.2111206054688 26.211484909057617 582.0792236328125 23.311893463134766 582.8114624023438 C 19.83339500427246 582.0130004882812 17.912137985229492 580.1956787109375 17.18112564086914 577.3430786132812 C 17.97307586669922 573.8429565429688 19.832040786743164 571.9448852539062 22.680618286132812 571.1693115234375 C 26.157400131225586 571.9813232421875 28.043428421020508 573.833251953125 28.81749153137207 577.2368774414062" stroke-width="0.0" fill="rgb(107, 44, 16)" opacity="1.0"/>
    <path d="M 419.15386962890625 463.96978759765625 C 418.4753723144531 466.64373779296875 416.61322021484375 468.3595886230469 413.8692626953125 468.8569030761719 C 411.3813171386719 468.4091796875 409.4820861816406 466.6502990722656 408.5578918457031 463.9859313964844 C 409.4566650390625 461.291748046875 411.2743835449219 459.4029846191406 413.91064453125 458.7157897949219 C 416.5860900878906 459.5811462402344 418.43035888671875 461.41046142578125 419.15386962890625 463.96978759765625" stroke-width="0.0" fill="rgb(222, 226, 231)" opacity="0.99134314"/>
    <path d="M 328.86944580078125 327.20867919921875 C 328.1539611816406 330.293212890625 326.28533935546875 332.1328125 323.02667236328125 332.8402404785156 C 319.7497863769531 332.1116943359375 317.87548828125 330.25543212890625 317.1590576171875 327.2894287109375 C 317.9007873535156 323.75262451171875 319.7391662597656 321.8658752441406 323.029052734375 321.1085205078125 C 326.2703857421875 321.860595703125 328.1200866699219 323.73724365234375 328.86944580078125 327.20867919921875" stroke-width="0.0" fill="rgb(0, 0, 0)" opacity="1.0"/>
    <path d="M 434.0000915527344 444.999755859375 C 433.3303527832031 447.5005798339844 431.50225830078125 449.33636474609375 429.00213623046875 450.0553283691406 C 426.4981689453125 449.335205078125 424.669677734375 447.50048828125 424.0 445.0 C 424.6696472167969 442.49945068359375 426.4978332519531 440.6639099121094 429.1045837402344 439.70977783203125 C 431.5262451171875 440.6007995605469 433.332763671875 442.4930419921875 434.0000915527344 444.999755859375" stroke-width="0.0" fill="rgb(170, 173, 177)" opacity="0.99488366"/>
    <path d="M 177.19786071777344 257.8770446777344 C 176.44813537597656 260.6849670410156 174.72640991210938 262.592529296875 171.71690368652344 263.4223937988281 C 169.0861358642578 262.8172607421875 167.32557678222656 260.8678894042969 166.7316436767578 258.1030578613281 C 167.66278076171875 255.49310302734375 169.47860717773438 253.61228942871094 171.9408416748047 252.64669799804688 C 174.50595092773438 253.66944885253906 176.39979553222656 255.47378540039062 177.19786071777344 257.8770446777344" stroke-width="0.0" fill="rgb(245, 249, 252)" opacity="0.9921707"/>
    <path d="M 298.9274597167969 436.9410705566406 C 298.3546142578125 439.56842041015625 296.5940246582031 441.443359375 293.9366455078125 442.197509765625 C 291.3191833496094 441.51123046875 289.46636962890625 439.687744140625 288.8904113769531 437.0911560058594 C 289.677734375 434.5145568847656 291.52630615234375 432.7172546386719 294.0751037597656 432.0502624511719 C 296.6689453125 432.49554443359375 298.4719543457031 434.3407897949219 298.9274597167969 436.9410705566406" stroke-width="0.0" fill="rgb(225, 228, 233)" opacity="0.9920491"/>
    <path d="M 329.87481689453125 297.8121032714844 C 329.108642578125 301.244140625 327.24090576171875 303.09954833984375 323.59332275390625 303.86077880859375 C 320.72509765625 303.13726806640625 318.856201171875 301.27752685546875 318.1365661621094 298.5093688964844 C 318.9337463378906 294.7996520996094 320.7994079589844 292.9329528808594 324.4789123535156 292.1244201660156 C 327.2843017578125 292.8489074707031 329.1314392089844 294.7236022949219 329.87481689453125 297.8121032714844" stroke-width="0.0" fill="rgb(0, 0, 0)" opacity="1.0"/>
    <path d="M 274.3789978027344 289.12713623046875 C 273.6461181640625 291.82537841796875 271.8578186035156 293.74261474609375 269.22552490234375 293.40032958984375 C 266.1733093261719 293.61468505859375 264.30816650390625 291.84619140625 263.60638427734375 289.05560302734375 C 264.4781799316406 286.3319396972656 266.3177185058594 284.4338073730469 269.1373291015625 283.4622802734375 C 271.838623046875 284.25152587890625 273.57598876953125 286.216064453125 274.3789978027344 289.12713623046875" stroke-width="0.0" fill="rgb(244, 243, 245)" opacity="1.0"/>
    <path d="M 209.20457458496094 210.7013702392578 C 209.9105682373047 212.900146484375 207.6136016845703 214.02633666992188 204.81813049316406 214.29348754882812 C 202.41551208496094 214.2954559326172 200.86428833007812 212.5349884033203 200.69886779785156 209.49786376953125 C 200.172119140625 207.1662139892578 202.6143035888672 206.2096405029297 204.8974151611328 205.88528442382812 C 206.81736755371094 206.39410400390625 208.5966033935547 208.18621826171875 209.20457458496094 210.7013702392578" stroke-width="0.0" fill="rgb(25, 28, 33)" opacity="0.99007297"/>
    <path d="M 281.21978759765625 365.2334899902344 C 280.8912658691406 367.0831298828125 279.08734130859375 368.9081726074219 277.0718078613281 369.3011474609375 C 274.5318908691406 369.1285705566406 272.6575927734375 367.5399475097656 272.4878845214844 364.99920654296875 C 272.5827331542969 362.46826171875 274.5464172363281 360.8247985839844 276.57830810546875 360.7986755371094 C 279.47283935546875 360.9682312011719 281.14263916015625 362.47406005859375 281.21978759765625 365.2334899902344" stroke-width="0.0" fill="rgb(239, 238, 242)" opacity="1.0"/>
    <path d="M 80.84503936767578 552.9793701171875 C 80.06076049804688 556.1820068359375 78.17037200927734 558.0298461914062 75.08891296386719 558.7904663085938 C 71.8646240234375 558.0004272460938 69.95840454101562 556.1513671875 69.22101593017578 553.4111328125 C 70.10738372802734 550.0244750976562 72.08930206298828 548.3063354492188 75.04337310791016 547.7483520507812 C 78.0003890991211 548.235595703125 80.02073669433594 549.9118041992188 80.84503936767578 552.9793701171875" stroke-width="0.0" fill="rgb(103, 42, 19)" opacity="1.0"/>
    <path d="M 357.90618896484375 404.02764892578125 C 357.4142150878906 406.5904846191406 355.5808410644531 408.3825988769531 352.907470703125 409.3786315917969 C 350.3799133300781 408.4911193847656 348.5835876464844 406.5979309082031 347.78228759765625 403.9507141113281 C 348.6081237792969 401.4603271484375 350.4691467285156 399.638671875 352.9986877441406 398.8235778808594 C 355.58807373046875 399.5653991699219 357.36346435546875 401.4322814941406 357.90618896484375 404.02764892578125" stroke-width="0.0" fill="rgb(227, 231, 236)" opacity="0.9917245"/>
    <path d="M 183.7432861328125 337.1443786621094 C 183.02310180664062 339.1769104003906 181.14059448242188 340.9053039550781 178.9850616455078 341.3819885253906 C 176.65171813964844 340.9813537597656 174.3753204345703 339.59185791015625 174.0786895751953 337.3207092285156 C 174.96847534179688 334.8218688964844 176.87002563476562 333.1166687011719 178.80789184570312 332.6990661621094 C 181.1180419921875 333.1459655761719 182.97677612304688 334.8393249511719 183.7432861328125 337.1443786621094" stroke-width="0.0" fill="rgb(111, 115, 126)" opacity="0.9901851"/>
    <path d="M 421.2752380371094 443.6260070800781 C 421.4942321777344 445.32550048828125 419.1261901855469 446.7991943359375 417.24688720703125 447.1598205566406 C 415.0135803222656 446.6947021484375 412.7361755371094 445.1356506347656 411.2145690917969 442.55218505859375 C 412.0917663574219 440.2588806152344 414.81488037109375 439.2366943359375 416.78973388671875 438.8537902832031 C 418.8763122558594 439.3536071777344 420.64886474609375 441.1225280761719 421.2752380371094 443.6260070800781" stroke-width="0.0" fill="rgb(55, 58, 61)" opacity="0.9900849"/>
    <path d="M 109.77555084228516 593.2667846679688 C 109.05006408691406 596.1886596679688 107.1968765258789 598.0720825195312 104.05613708496094 598.8304443359375 C 100.79581451416016 598.0802001953125 98.96481323242188 596.1876220703125 98.23263549804688 593.0108032226562 C 99.01094818115234 589.8885498046875 100.89704895019531 588.034912109375 104.32437133789062 587.1954956054688 C 107.13336944580078 587.9823608398438 108.9897689819336 589.8767700195312 109.77555084228516 593.2667846679688" stroke-width="0.0" fill="rgb(101, 42, 16)" opacity="1.0"/>
    <path d="M 339.4017639160156 294.0564270019531 C 338.9129333496094 297.1309509277344 337.18524169921875 299.0789489746094 334.1359558105469 299.79962158203125 C 330.76519775390625 299.08642578125 328.892333984375 297.2422180175781 328.128173828125 293.9111328125 C 328.8824768066406 290.7441101074219 330.7417297363281 288.8766784667969 333.7276916503906 288.1291809082031 C 337.14312744140625 288.94647216796875 338.8655090332031 290.9206848144531 339.4017639160156 294.0564270019531" stroke-width="0.0" fill="rgb(0, 0, 0)" opacity="1.0"/>
    <path d="M 432.0003356933594 444.9999694824219 C 431.3335266113281 447.50848388671875 429.52874755859375 449.4030456542969 426.9337158203125 450.4375915527344 C 424.3232727050781 449.5494689941406 422.57366943359375 447.6418762207031 421.5085754394531 444.63671875 C 422.1474914550781 441.9678039550781 423.921630859375 440.0173034667969 426.5589599609375 439.33697509765625 C 429.5328063964844 440.5860595703125 431.3338317871094 442.4906921386719 432.0003356933594 444.9999694824219" stroke-width="0.0" fill="rgb(168, 172, 175)" opacity="1.0"/>
    <path d="M 237.3911895751953 236.90745544433594 C 237.2543182373047 239.446533203125 235.4017791748047 241.1298828125 232.7559814453125 241.94796752929688 C 230.39028930664062 241.46556091308594 228.53907775878906 239.60841369628906 227.55885314941406 236.822509765625 C 228.2373046875 234.08407592773438 230.0786895751953 232.21908569335938 232.7521209716797 231.52357482910156 C 235.51707458496094 232.6619415283203 237.3451385498047 234.477294921875 237.3911895751953 236.90745544433594" stroke-width="0.0" fill="rgb(220, 228, 229)" opacity="1.0"/>
    <path d="M 166.15872192382812 207.15216064453125 C 165.56666564941406 209.62872314453125 163.38404846191406 210.92645263671875 160.84661865234375 211.1197509765625 C 158.52549743652344 211.03057861328125 156.5192108154297 209.62461853027344 156.10873413085938 207.06396484375 C 156.6336212158203 204.4248504638672 158.42227172851562 202.6243438720703 161.01878356933594 202.08584594726562 C 163.497802734375 202.67083740234375 165.31521606445312 204.50616455078125 166.15872192382812 207.15216064453125" stroke-width="0.0" fill="rgb(244, 247, 248)" opacity="1.0"/>
    <path d="M 490.0227355957031 322.1513977050781 C 489.42010498046875 324.61163330078125 487.64178466796875 326.5198974609375 485.0823059082031 327.31561279296875 C 482.32781982421875 326.51409912109375 480.5978088378906 324.6427917480469 480.611083984375 322.0913391113281 C 480.6686706542969 319.39483642578125 482.3399353027344 317.4620666503906 484.8650207519531 316.6162109375 C 487.21893310546875 317.8784484863281 488.9723815917969 319.8242492675781 490.0227355957031 322.1513977050781" stroke-width="0.0" fill="rgb(233, 238, 242)" opacity="1.0"/>
    <path d="M 182.07350158691406 234.3050537109375 C 181.74420166015625 236.88021850585938 179.81634521484375 238.48741149902344 177.13778686523438 238.37173461914062 C 174.70498657226562 238.0237274169922 172.87940979003906 236.3282012939453 172.00755310058594 233.8247528076172 C 172.81906127929688 231.77101135253906 174.8660888671875 230.1389617919922 177.10177612304688 229.63404846191406 C 179.14125061035156 230.0905303955078 180.99713134765625 231.83102416992188 182.07350158691406 234.3050537109375" stroke-width="0.0" fill="rgb(114, 118, 121)" opacity="0.9902001"/>
    <path d="M 148.71018981933594 186.88955688476562 C 148.7248077392578 189.5341339111328 146.13389587402344 190.74012756347656 144.15574645996094 191.13267517089844 C 142.1337890625 190.639892578125 140.3377227783203 188.8745574951172 139.33644104003906 186.31715393066406 C 138.99429321289062 183.84962463378906 140.81890869140625 181.91830444335938 144.14048767089844 181.12107849121094 C 147.22259521484375 181.890380859375 148.99839782714844 183.81561279296875 148.71018981933594 186.88955688476562" stroke-width="0.0" fill="rgb(43, 48, 52)" opacity="0.99009675"/>
    <path d="M 192.1789093017578 456.9928894042969 C 191.48434448242188 459.6351318359375 189.60926818847656 461.3944091796875 186.9134521484375 461.9956970214844 C 184.3064727783203 461.5297546386719 182.47994995117188 459.69061279296875 181.92283630371094 457.0456237792969 C 182.57237243652344 454.39013671875 184.37872314453125 452.53326416015625 187.0245819091797 451.6678771972656 C 189.6132049560547 452.52313232421875 191.4205780029297 454.4037170410156 192.1789093017578 456.9928894042969" stroke-width="0.0" fill="rgb(229, 231, 236)" opacity="0.9920999"/>
    <path d="M 212.45742797851562 392.25341796875 C 211.7999725341797 394.9332275390625 209.9226837158203 396.7685241699219 207.2786102294922 397.3542175292969 C 204.37939453125 396.3846130371094 202.43321228027344 394.6744079589844 201.71839904785156 392.0849304199219 C 202.60397338867188 389.4063415527344 204.372802734375 387.4934997558594 206.89495849609375 386.7405090332031 C 209.5909423828125 387.5691833496094 211.40673828125 389.41668701171875 212.45742797851562 392.25341796875" stroke-width="0.0" fill="rgb(233, 237, 240)" opacity="0.99242294"/>
    <path d="M 227.85679626464844 407.4261779785156 C 227.09664916992188 410.2301330566406 225.23681640625 412.11175537109375 222.1616668701172 412.83856201171875 C 218.74134826660156 412.1104431152344 216.8677520751953 410.2669372558594 216.14324951171875 407.24462890625 C 216.91986083984375 403.77911376953125 218.76486206054688 401.884765625 222.056884765625 401.1155090332031 C 225.23977661132812 401.88104248046875 227.07229614257812 403.7781066894531 227.85679626464844 407.4261779785156" stroke-width="0.0" fill="rgb(0, 1, 0)" opacity="1.0"/>
    <path d="M 170.89376831054688 290.9606628417969 C 170.4076385498047 293.7328186035156 168.84393310546875 295.78271484375 166.3113555908203 295.45843505859375 C 163.2295684814453 295.5345458984375 161.4059600830078 293.7845458984375 161.19895935058594 291.1080322265625 C 161.62208557128906 288.4824523925781 163.53176879882812 286.7781677246094 165.917724609375 286.3643493652344 C 168.3106689453125 286.9314270019531 170.26271057128906 288.6311950683594 170.89376831054688 290.9606628417969" stroke-width="0.0" fill="rgb(242, 245, 249)" opacity="1.0"/>
    <path d="M 284.8538818359375 199.0087890625 C 284.3721923828125 201.53134155273438 282.5206298828125 203.33807373046875 279.7717590332031 203.93905639648438 C 276.9810485839844 203.882080078125 275.17120361328125 202.00347900390625 275.7522888183594 199.35475158691406 C 275.3251647949219 196.15826416015625 277.1833190917969 194.40032958984375 280.0380554199219 193.60964965820312 C 282.69830322265625 194.42898559570312 284.4429016113281 196.33848571777344 284.8538818359375 199.0087890625" stroke-width="0.0" fill="rgb(234, 238, 242)" opacity="1.0"/>
    <path d="M 346.8772277832031 294.2137756347656 C 346.08331298828125 297.1880798339844 344.1649169921875 299.02508544921875 340.52117919921875 299.8710021972656 C 337.8032531738281 299.1000061035156 336.078125 297.1358947753906 335.569580078125 294.0231018066406 C 336.0877380371094 290.8673095703125 337.79754638671875 288.8875427246094 340.76751708984375 288.1041259765625 C 344.2724304199219 288.8653869628906 346.12530517578125 290.7311096191406 346.8772277832031 294.2137756347656" stroke-width="0.0" fill="rgb(1, 1, 1)" opacity="1.0"/>
    <path d="M 436.6146545410156 444.52215576171875 C 435.3317565917969 447.50665283203125 433.5277404785156 449.4039611816406 431.0860595703125 450.30975341796875 C 428.47650146484375 449.3650207519531 426.64776611328125 447.5198669433594 426.05194091796875 445.0393981933594 C 426.70648193359375 442.5149841308594 428.49578857421875 440.6412048339844 431.0338134765625 439.92083740234375 C 433.906494140625 440.3680725097656 435.9530944824219 441.98974609375 436.6146545410156 444.52215576171875" stroke-width="0.0" fill="rgb(172, 175, 179)" opacity="0.9955413"/>
    <path d="M 325.6349182128906 317.5601806640625 C 325.09088134765625 320.2466735839844 323.26031494140625 322.1284484863281 320.0077209472656 322.8825988769531 C 316.7520446777344 322.12115478515625 314.9028015136719 320.23870849609375 314.1383972167969 316.65789794921875 C 314.8865051269531 313.7586975097656 316.75909423828125 311.887451171875 319.35821533203125 311.16448974609375 C 322.6894226074219 312.3417053222656 324.379638671875 314.4026794433594 325.6349182128906 317.5601806640625" stroke-width="0.0" fill="rgb(0, 0, 1)" opacity="1.0"/>
    <path d="M 112.0769271850586 173.8492431640625 C 111.25572967529297 176.468017578125 109.49295043945312 178.34239196777344 106.96210479736328 179.2856903076172 C 104.40978240966797 178.47900390625 102.64559173583984 176.5519561767578 101.83051300048828 174.0304412841797 C 102.62419891357422 171.48716735839844 104.53135681152344 169.7657470703125 107.20587158203125 168.82540893554688 C 109.69108581542969 169.44432067871094 111.49414825439453 171.32745361328125 112.0769271850586 173.8492431640625" stroke-width="0.0" fill="rgb(234, 238, 243)" opacity="0.99196583"/>
    <path d="M 225.50450134277344 224.1199188232422 C 224.671142578125 226.82333374023438 222.83673095703125 228.7028350830078 219.7882080078125 228.3656463623047 C 217.32496643066406 228.56182861328125 215.8280029296875 226.5691375732422 215.77496337890625 223.7279510498047 C 215.83047485351562 221.56295776367188 217.54087829589844 219.75827026367188 219.6296844482422 219.701904296875 C 222.53335571289062 219.8720703125 224.51881408691406 221.354736328125 225.50450134277344 224.1199188232422" stroke-width="0.0" fill="rgb(219, 229, 231)" opacity="1.0"/>
    <path d="M 222.19386291503906 205.0830841064453 C 221.48068237304688 207.6233673095703 219.60726928710938 209.42584228515625 216.98391723632812 210.03616333007812 C 214.33322143554688 209.489990234375 212.4187469482422 207.69415283203125 211.56561279296875 205.12179565429688 C 212.54351806640625 202.3861083984375 214.39495849609375 200.5745391845703 217.04861450195312 199.94102478027344 C 219.68222045898438 200.48077392578125 221.48866271972656 202.32656860351562 222.19386291503906 205.0830841064453" stroke-width="0.0" fill="rgb(234, 239, 244)" opacity="0.99177"/>
    <path d="M 294.41314697265625 447.7843933105469 C 293.2132873535156 450.4024658203125 291.40814208984375 452.2333984375 288.95806884765625 453.0822448730469 C 286.3717956542969 452.4515380859375 284.5224914550781 450.6356506347656 283.8587951660156 448.1036682128906 C 284.66143798828125 445.4718017578125 286.4564514160156 443.60595703125 289.03717041015625 442.68634033203125 C 291.68853759765625 443.48486328125 293.609619140625 445.2822265625 294.41314697265625 447.7843933105469" stroke-width="0.0" fill="rgb(224, 226, 232)" opacity="0.9917792"/>
    <path d="M 350.2828674316406 266.9779357910156 C 349.392333984375 269.58074951171875 347.5883483886719 271.41522216796875 344.66705322265625 272.4588623046875 C 342.0192565917969 271.8558044433594 340.3072814941406 269.935791015625 340.6298828125 266.8917541503906 C 340.8607177734375 264.645751953125 342.6278381347656 262.8004150390625 345.1418151855469 261.6793518066406 C 347.6233825683594 262.50244140625 349.419189453125 264.4003601074219 350.2828674316406 266.9779357910156" stroke-width="0.0" fill="rgb(234, 237, 242)" opacity="0.99458"/>
    <path d="M 400.4856872558594 355.7166748046875 C 399.5632019042969 358.75152587890625 397.7825012207031 360.6607971191406 395.0303649902344 360.6685791015625 C 392.6934814453125 360.43292236328125 391.1526184082031 358.1451110839844 390.7835693359375 356.0646667480469 C 390.8692321777344 353.5111083984375 392.4695129394531 351.7487487792969 395.424560546875 351.2388610839844 C 398.0063781738281 351.1133117675781 399.84185791015625 353.00927734375 400.4856872558594 355.7166748046875" stroke-width="0.0" fill="rgb(246, 246, 247)" opacity="1.0"/>
    <path d="M 192.48284912109375 229.8640899658203 C 191.42611694335938 232.55491638183594 189.53575134277344 234.3603973388672 187.00930786132812 235.00880432128906 C 184.49996948242188 234.33013916015625 182.66932678222656 232.5001678466797 181.74380493164062 229.8984375 C 182.60018920898438 227.4608917236328 184.46343994140625 225.61224365234375 186.74642944335938 225.46890258789062 C 189.42164611816406 225.9305419921875 191.6336669921875 227.3726043701172 192.48284912109375 229.8640899658203" stroke-width="0.0" fill="rgb(242, 245, 246)" opacity="1.0"/>
    <path d="M 471.30584716796875 356.9512023925781 C 470.4354553222656 359.61456298828125 468.62347412109375 361.4648742675781 466.074462890625 362.1322326660156 C 463.3863220214844 361.4239196777344 461.5232238769531 359.62823486328125 460.6455383300781 356.9947204589844 C 461.52001953125 354.37872314453125 463.3898010253906 352.5582275390625 466.0100402832031 351.89691162109375 C 468.6211242675781 352.54400634765625 470.48492431640625 354.37054443359375 471.30584716796875 356.9512023925781" stroke-width="0.0" fill="rgb(228, 231, 237)" opacity="0.99196255"/>
    <path d="M 225.12400817871094 273.9012451171875 C 224.32952880859375 276.498046875 222.4799346923828 278.26580810546875 220.3447265625 278.1994934082031 C 217.3590545654297 278.2705993652344 215.3782196044922 276.72808837890625 214.62217712402344 274.187744140625 C 215.59449768066406 271.4245300292969 217.42822265625 269.607666015625 220.1317596435547 268.6771240234375 C 222.75950622558594 269.3617248535156 224.5576629638672 271.2658996582031 225.12400817871094 273.9012451171875" stroke-width="0.0" fill="rgb(247, 248, 248)" opacity="0.99557275"/>
    <path d="M 288.42034912109375 286.091064453125 C 287.6219177246094 288.7577819824219 285.7410888671875 290.5634460449219 283.15863037109375 290.66400146484375 C 280.6845397949219 290.0900573730469 278.8537902832031 288.3343505859375 278.4691467285156 285.88958740234375 C 278.65667724609375 283.4178161621094 280.4039001464844 281.6017150878906 283.1929016113281 280.68280029296875 C 285.73419189453125 281.39996337890625 287.57879638671875 283.27203369140625 288.42034912109375 286.091064453125" stroke-width="0.0" fill="rgb(242, 243, 244)" opacity="1.0"/>
    <path d="M 227.3030242919922 262.3735046386719 C 226.74180603027344 264.7972717285156 224.7039031982422 266.44061279296875 221.75592041015625 267.2420349121094 C 219.14230346679688 266.74053955078125 217.4014892578125 264.81536865234375 216.52862548828125 261.7369079589844 C 217.2774200439453 259.21820068359375 219.29525756835938 257.5133056640625 222.04701232910156 256.7009582519531 C 224.41647338867188 257.6673889160156 226.08554077148438 259.65679931640625 227.3030242919922 262.3735046386719" stroke-width="0.0" fill="rgb(170, 172, 182)" opacity="0.9906354"/>
    <path d="M 17.83620262145996 595.369384765625 C 17.068483352661133 598.1837158203125 15.169139862060547 600.030517578125 12.1034517288208 600.7929077148438 C 8.848626136779785 600.006591796875 6.924300193786621 598.1787719726562 6.182585716247559 595.407958984375 C 6.9787187576293945 591.8314819335938 8.817264556884766 589.9398803710938 11.933186531066895 589.1862182617188 C 15.143728256225586 589.9735107421875 17.005706787109375 591.8640747070312 17.83620262145996 595.369384765625" stroke-width="0.0" fill="rgb(108, 43, 16)" opacity="1.0"/>
    <path d="M 80.8023910522461 546.0510864257812 C 80.03353118896484 549.1293334960938 78.0666732788086 550.841552734375 75.08309173583984 551.3016967773438 C 72.00889587402344 550.7552490234375 69.98521423339844 549.0801391601562 69.14261627197266 545.8252563476562 C 69.92515563964844 542.7926635742188 71.78160095214844 540.8986206054688 74.66917419433594 540.1507568359375 C 78.17378997802734 540.9528198242188 80.04473114013672 542.8269653320312 80.8023910522461 546.0510864257812" stroke-width="0.0" fill="rgb(103, 44, 19)" opacity="1.0"/>
    <path d="M 467.22576904296875 373.05377197265625 C 466.507568359375 375.6702575683594 464.6676330566406 377.49884033203125 462.0573425292969 378.2848205566406 C 459.5282897949219 377.31793212890625 457.70245361328125 375.46649169921875 456.6299133300781 372.7629089355469 C 457.3397521972656 370.24249267578125 459.2868957519531 368.48193359375 461.9389343261719 367.8105163574219 C 464.6221923828125 368.5584716796875 466.4739990234375 370.3679504394531 467.22576904296875 373.05377197265625" stroke-width="0.0" fill="rgb(227, 230, 236)" opacity="0.99195737"/>
    <path d="M 420.62109375 299.2861328125 C 420.46258544921875 301.6275634765625 418.6231994628906 303.4470520019531 416.0577087402344 304.18426513671875 C 413.43121337890625 303.4306335449219 411.8420715332031 301.4827880859375 411.71295166015625 299.1310119628906 C 412.03521728515625 296.7754821777344 413.71588134765625 294.8409729003906 416.00238037109375 293.727294921875 C 418.5060119628906 294.7133483886719 420.248779296875 296.5034484863281 420.62109375 299.2861328125" stroke-width="0.0" fill="rgb(237, 237, 240)" opacity="1.0"/>
    <path d="M 300.5166931152344 313.1419372558594 C 299.6490783691406 315.7234802246094 297.65069580078125 317.4095153808594 294.96002197265625 317.97589111328125 C 292.2443542480469 317.51837158203125 290.26019287109375 315.8233337402344 289.56390380859375 313.2135925292969 C 290.3330993652344 310.25494384765625 292.3307800292969 308.5790100097656 295.0500183105469 308.0610656738281 C 297.7283935546875 308.44384765625 299.61016845703125 310.2560729980469 300.5166931152344 313.1419372558594" stroke-width="0.0" fill="rgb(177, 178, 183)" opacity="1.0"/>
    <path d="M 436.9517517089844 357.9559326171875 C 436.3739929199219 360.5957336425781 434.62322998046875 362.4700622558594 431.93865966796875 363.17901611328125 C 429.3365173339844 362.4919738769531 427.4944763183594 360.66778564453125 426.7174072265625 357.94403076171875 C 427.5097961425781 355.3919372558594 429.4466857910156 353.7015380859375 432.0631408691406 353.18841552734375 C 434.5216369628906 353.6681213378906 436.3872985839844 355.4617614746094 436.9517517089844 357.9559326171875" stroke-width="0.0" fill="rgb(230, 234, 239)" opacity="0.99181634"/>
    <path d="M 250.26812744140625 245.4448699951172 C 250.471435546875 247.64208984375 248.6248016357422 249.40846252441406 245.88394165039062 250.21461486816406 C 243.4944610595703 249.3800506591797 241.74327087402344 247.46971130371094 240.84889221191406 244.9079132080078 C 241.84849548339844 242.75572204589844 243.88648986816406 241.22128295898438 246.41314697265625 240.84544372558594 C 248.5651092529297 240.88385009765625 250.42324829101562 242.34371948242188 250.26812744140625 245.4448699951172" stroke-width="0.0" fill="rgb(243, 244, 245)" opacity="1.0"/>
    <path d="M 281.9228515625 308.0879211425781 C 281.5137023925781 310.6925964355469 279.6855773925781 312.4918212890625 277.18963623046875 312.78143310546875 C 274.8057861328125 312.01519775390625 272.9966125488281 310.1893615722656 271.839599609375 307.801025390625 C 272.5914611816406 305.4966125488281 274.55865478515625 303.7898254394531 277.01507568359375 303.18243408203125 C 279.31939697265625 303.8422546386719 281.1295166015625 305.6898193359375 281.9228515625 308.0879211425781" stroke-width="0.0" fill="rgb(235, 238, 241)" opacity="1.0"/>
    <path d="M 169.50498962402344 200.70619201660156 C 168.54417419433594 203.66310119628906 166.61300659179688 205.37208557128906 163.9817657470703 205.93673706054688 C 161.5386962890625 205.31736755371094 159.91038513183594 203.38778686523438 159.6265869140625 200.9018096923828 C 159.8336639404297 198.52828979492188 161.47503662109375 196.68678283691406 164.00242614746094 196.67779541015625 C 166.7864532470703 196.5348358154297 168.83984375 198.10324096679688 169.50498962402344 200.70619201660156" stroke-width="0.0" fill="rgb(230, 235, 240)" opacity="1.0"/>
    <path d="M 522.3577270507812 225.5950164794922 C 521.713623046875 227.93080139160156 519.9281616210938 229.705322265625 518.0897827148438 230.16261291503906 C 515.9061279296875 229.75186157226562 513.7576293945312 228.26373291015625 513.4488525390625 225.555419921875 C 513.0440673828125 222.92007446289062 514.9456176757812 221.1222381591797 518.2137451171875 220.54246520996094 C 520.8617553710938 221.15379333496094 522.2027587890625 223.32797241210938 522.3577270507812 225.5950164794922" stroke-width="0.0" fill="rgb(54, 56, 65)" opacity="0.9901045"/>
    <path d="M 365.6474304199219 267.7527160644531 C 365.05499267578125 270.2210693359375 363.1126403808594 271.7772216796875 360.4673767089844 272.1801452636719 C 358.818603515625 272.0168762207031 357.12799072265625 270.1322021484375 356.7581481933594 267.75958251953125 C 356.6444091796875 265.3027648925781 358.32135009765625 263.76177978515625 361.325439453125 263.8390197753906 C 363.2989196777344 263.980224609375 365.2364501953125 265.6329650878906 365.6474304199219 267.7527160644531" stroke-width="0.0" fill="rgb(243, 245, 246)" opacity="1.0"/>
    <path d="M 303.2740783691406 420.0590515136719 C 302.5023193359375 422.6664733886719 300.6655578613281 424.49676513671875 297.98297119140625 425.16534423828125 C 295.5060729980469 424.3536682128906 293.766357421875 422.4592590332031 293.3280334472656 419.8140869140625 C 293.4580383300781 417.29937744140625 295.311279296875 415.4966125488281 298.02496337890625 414.78851318359375 C 300.6044616699219 415.54827880859375 302.4035949707031 417.409912109375 303.2740783691406 420.0590515136719" stroke-width="0.0" fill="rgb(226, 230, 236)" opacity="0.992254"/>
    <path d="M 190.42462158203125 267.5875244140625 C 190.7536163330078 269.67901611328125 188.3443145751953 270.9385986328125 186.172607421875 271.2206115722656 C 183.8471221923828 270.83465576171875 181.93711853027344 269.2400207519531 181.35467529296875 266.6581115722656 C 181.69949340820312 264.77923583984375 183.92825317382812 263.2306823730469 186.06748962402344 262.7826232910156 C 187.98004150390625 263.24456787109375 189.73463439941406 265.02764892578125 190.42462158203125 267.5875244140625" stroke-width="0.0" fill="rgb(77, 88, 98)" opacity="0.9901075"/>
    <path d="M 428.88861083984375 462.1107482910156 C 428.4337463378906 464.59588623046875 426.5924072265625 466.42315673828125 424.0232238769531 467.1372375488281 C 421.3038024902344 466.5009460449219 419.3841247558594 464.73077392578125 418.69232177734375 462.17474365234375 C 419.57183837890625 459.38092041015625 421.3689270019531 457.5319519042969 424.01495361328125 456.89471435546875 C 426.4834289550781 457.6493225097656 428.21282958984375 459.5584411621094 428.88861083984375 462.1107482910156" stroke-width="0.0" fill="rgb(222, 226, 231)" opacity="0.99203"/>
    <path d="M 429.3896789550781 349.7779235839844 C 428.2253112792969 352.4140625 426.42578125 354.26324462890625 423.93060302734375 355.1269836425781 C 421.45654296875 354.35980224609375 419.6068420410156 352.5537414550781 418.78564453125 349.8704528808594 C 419.3794250488281 347.25006103515625 421.2639465332031 345.4223327636719 423.9315185546875 344.63739013671875 C 426.695556640625 345.49566650390625 428.63409423828125 347.2640380859375 429.3896789550781 349.7779235839844" stroke-width="0.0" fill="rgb(233, 236, 241)" opacity="0.99193996"/>
    <path d="M 24.751070022583008 507.9148254394531 C 23.974498748779297 511.1214904785156 22.132123947143555 513.0048217773438 18.77952003479004 513.8021240234375 C 15.835816383361816 513.0419921875 13.960800170898438 511.1632385253906 13.235776901245117 508.27850341796875 C 14.055081367492676 504.9859924316406 16.134193420410156 503.7269287109375 19.03092384338379 503.8161926269531 C 21.886926651000977 503.6575622558594 23.95473289489746 504.9741516113281 24.751070022583008 507.9148254394531" stroke-width="0.0" fill="rgb(113, 49, 22)" opacity="1.0"/>
    <path d="M 464.53839111328125 323.2248840332031 C 463.99212646484375 325.1356201171875 462.0833740234375 326.8298645019531 460.0141296386719 327.294677734375 C 457.8414306640625 326.8489990234375 455.6312255859375 325.30908203125 455.25616455078125 323.2137145996094 C 455.3810729980469 320.0321960449219 456.9082946777344 317.9671630859375 459.5990295410156 317.1835632324219 C 462.7910461425781 318.16455078125 464.0022888183594 320.5292053222656 464.53839111328125 323.2248840332031" stroke-width="0.0" fill="rgb(99, 107, 116)" opacity="0.99015355"/>
    <path d="M 157.24569702148438 179.96815490722656 C 156.56884765625 182.7451171875 154.67689514160156 184.24107360839844 151.44117736816406 184.2088623046875 C 148.9312286376953 184.97975158691406 147.17916870117188 183.01194763183594 146.57888793945312 180.23019409179688 C 147.5904083251953 177.42288208007812 149.42347717285156 175.59268188476562 152.09579467773438 174.64703369140625 C 154.6934814453125 175.44195556640625 156.5027618408203 177.32330322265625 157.24569702148438 179.96815490722656" stroke-width="0.0" fill="rgb(234, 239, 242)" opacity="1.0"/>
    <path d="M 476.43695068359375 258.0054931640625 C 475.2205505371094 260.3083801269531 473.2444152832031 261.9992370605469 470.7945251464844 262.52215576171875 C 468.65625 262.1637268066406 466.9610290527344 260.3049011230469 466.675048828125 257.7098693847656 C 466.5343322753906 255.3153533935547 468.2991027832031 253.47215270996094 470.8211669921875 252.9803924560547 C 473.0804138183594 254.1143341064453 475.0617980957031 255.8722686767578 476.43695068359375 258.0054931640625" stroke-width="0.0" fill="rgb(247, 247, 249)" opacity="1.0"/>
    <path d="M 442.135986328125 305.2205810546875 C 441.42474365234375 307.49530029296875 439.3380432128906 308.97735595703125 436.8829650878906 309.2973327636719 C 434.48309326171875 309.0989685058594 432.3051452636719 307.7138977050781 432.51263427734375 305.4934387207031 C 433.1604309082031 302.9012145996094 434.8756103515625 301.0907897949219 436.9524841308594 300.652099609375 C 439.1483459472656 301.1100769042969 441.04974365234375 302.7991638183594 442.135986328125 305.2205810546875" stroke-width="0.0" fill="rgb(102, 107, 120)" opacity="0.9901428"/>
    <path d="M 365.15277099609375 216.19366455078125 C 364.56646728515625 218.7095947265625 362.7002868652344 220.53428649902344 360.0999450683594 220.9774627685547 C 357.400146484375 220.39675903320312 355.5462951660156 218.61546325683594 354.5593566894531 215.70738220214844 C 355.17132568359375 213.10328674316406 357.1841125488281 211.42332458496094 360.0744934082031 210.7250518798828 C 362.6336669921875 211.48431396484375 364.33282470703125 213.4183349609375 365.15277099609375 216.19366455078125" stroke-width="0.0" fill="rgb(234, 240, 243)" opacity="0.9931158"/>
    <path d="M 269.2625732421875 380.462158203125 C 268.69036865234375 382.9251403808594 266.9350891113281 384.7163391113281 264.48590087890625 385.35333251953125 C 262.78857421875 385.2777099609375 261.259033203125 383.0533447265625 260.83294677734375 381.0893249511719 C 261.31982421875 379.0879821777344 263.0854797363281 377.3134460449219 265.2428283691406 376.8149719238281 C 267.3213195800781 377.1253662109375 269.6239929199219 378.3686218261719 269.2625732421875 380.462158203125" stroke-width="0.0" fill="rgb(74, 76, 82)" opacity="0.9900867"/>
    <path d="M 9.710027694702148 516.0602416992188 C 8.999385833740234 519.1484375 7.170860290527344 521.059814453125 4.346811294555664 521.8294067382812 C 0.9012250900268555 521.00439453125 -0.8429826498031616 519.0444946289062 -1.4096869230270386 515.982666015625 C -0.8538219928741455 512.9502563476562 0.9048457145690918 511.0084533691406 3.8511996269226074 510.2424621582031 C 7.118079662322998 511.0122985839844 8.974334716796875 512.8867797851562 9.710027694702148 516.0602416992188" stroke-width="0.0" fill="rgb(111, 47, 21)" opacity="1.0"/>
    <path d="M 287.5181579589844 338.8468322753906 C 286.28955078125 341.3489685058594 284.2813415527344 343.0467224121094 281.60400390625 344.2345886230469 C 279.07305908203125 343.8275451660156 277.3976135253906 341.8612365722656 277.570068359375 339.2040710449219 C 277.9005126953125 336.6244812011719 279.58099365234375 334.77044677734375 281.96136474609375 334.3907470703125 C 284.7101745605469 334.6336669921875 286.6947326660156 336.20294189453125 287.5181579589844 338.8468322753906" stroke-width="0.0" fill="rgb(119, 126, 127)" opacity="0.99036634"/>
    <path d="M 404.4936218261719 430.0065612792969 C 404.57647705078125 432.71893310546875 402.69635009765625 434.50347900390625 399.8098449707031 435.3679504394531 C 397.2864074707031 434.62860107421875 395.6043701171875 432.6438903808594 394.7858581542969 429.88336181640625 C 395.499755859375 427.3317565917969 397.3129577636719 425.4412536621094 400.0986633300781 424.70489501953125 C 402.902587890625 425.2578125 404.7159423828125 427.104248046875 404.4936218261719 430.0065612792969" stroke-width="0.0" fill="rgb(228, 233, 237)" opacity="1.0"/>
    <path d="M 405.4328918457031 305.0863952636719 C 404.58856201171875 307.733154296875 402.69720458984375 309.4449768066406 399.94903564453125 309.3036193847656 C 397.39410400390625 309.3627624511719 395.5740966796875 307.6196594238281 394.595458984375 304.70037841796875 C 395.2086181640625 302.11993408203125 397.1930236816406 300.4729309082031 399.67645263671875 300.8544616699219 C 402.33673095703125 301.04833984375 404.4181213378906 302.498046875 405.4328918457031 305.0863952636719" stroke-width="0.0" fill="rgb(243, 245, 246)" opacity="1.0"/>
    <path d="M 138.61795043945312 308.7857360839844 C 137.75242614746094 311.890625 135.87452697753906 313.6995544433594 133.15492248535156 314.3178405761719 C 130.38534545898438 313.41204833984375 128.51708984375 311.63470458984375 127.66007232666016 309.0388488769531 C 128.6148681640625 306.5035400390625 130.5879669189453 304.87847900390625 133.50973510742188 303.5696105957031 C 135.9753875732422 304.1173400878906 137.861083984375 306.0328369140625 138.61795043945312 308.7857360839844" stroke-width="0.0" fill="rgb(204, 206, 208)" opacity="1.0"/>
    <path d="M 337.3547058105469 261.0884704589844 C 336.6228332519531 263.83184814453125 334.874267578125 265.75140380859375 332.5154724121094 265.14935302734375 C 329.865234375 264.78631591796875 327.8091125488281 263.2782897949219 326.60504150390625 260.91363525390625 C 327.50628662109375 258.3896789550781 329.452392578125 256.7292785644531 332.40594482421875 255.7757110595703 C 334.8982849121094 256.182373046875 336.59088134765625 258.1730041503906 337.3547058105469 261.0884704589844" stroke-width="0.0" fill="rgb(226, 227, 227)" opacity="1.0"/>
    <path d="M 124.81179809570312 557.8289184570312 C 124.04882049560547 561.1851196289062 122.19223022460938 563.0677490234375 119.21612548828125 563.82470703125 C 115.84603881835938 563.024658203125 113.96100616455078 561.1597900390625 113.21477508544922 558.1758422851562 C 114.01935577392578 554.8980102539062 115.89926147460938 553.0223999023438 118.96074676513672 552.2389526367188 C 122.14469909667969 552.9945068359375 124.04598236083984 554.8401489257812 124.81179809570312 557.8289184570312" stroke-width="0.0" fill="rgb(104, 42, 18)" opacity="1.0"/>
    <path d="M 296.1672668457031 241.95016479492188 C 295.4636535644531 244.62867736816406 293.6397399902344 246.5018768310547 290.9993896484375 247.42103576660156 C 288.3564758300781 246.5070343017578 286.502685546875 244.64048767089844 285.5400695800781 241.9293670654297 C 286.4631042480469 239.38800048828125 288.4679870605469 237.72775268554688 291.2049255371094 236.85812377929688 C 293.7218322753906 237.43081665039062 295.5546875 239.28184509277344 296.1672668457031 241.95016479492188" stroke-width="0.0" fill="rgb(239, 242, 245)" opacity="0.99188095"/>
    <path d="M 283.9159851074219 184.02711486816406 C 283.43389892578125 186.59947204589844 281.59490966796875 188.42034912109375 279.0931091308594 189.08416748046875 C 276.4169616699219 188.3537139892578 274.52325439453125 186.61819458007812 273.7075500488281 183.92691040039062 C 274.49114990234375 181.372314453125 276.4193115234375 179.654052734375 279.00848388671875 179.18345642089844 C 281.5715026855469 179.641845703125 283.39825439453125 181.4171905517578 283.9159851074219 184.02711486816406" stroke-width="0.0" fill="rgb(229, 236, 240)" opacity="0.99223727"/>
    <path d="M 416.3014221191406 289.0845947265625 C 415.52691650390625 291.66448974609375 413.6361083984375 293.4284973144531 410.9329528808594 294.1628723144531 C 408.34381103515625 293.5188903808594 406.5576477050781 291.6329650878906 405.4493103027344 288.6381530761719 C 406.1251525878906 286.0851745605469 408.1971130371094 284.4637451171875 411.2627868652344 283.62884521484375 C 413.90118408203125 284.1969909667969 415.6121520996094 286.1575012207031 416.3014221191406 289.0845947265625" stroke-width="0.0" fill="rgb(189, 190, 191)" opacity="1.0"/>
    <path d="M 312.97833251953125 226.91261291503906 C 312.2449035644531 229.4618377685547 310.4777526855469 231.29473876953125 307.9632263183594 231.8629913330078 C 305.3464050292969 231.44195556640625 303.44488525390625 229.68609619140625 302.6409606933594 227.10684204101562 C 303.61529541015625 224.44261169433594 305.4396667480469 222.60523986816406 307.9027404785156 221.90753173828125 C 310.4732971191406 222.70831298828125 312.2795715332031 224.5316162109375 312.97833251953125 226.91261291503906" stroke-width="0.0" fill="rgb(234, 238, 242)" opacity="0.9920873"/>
    <path d="M 242.29722595214844 300.7464904785156 C 241.35923767089844 303.5643615722656 239.5741729736328 305.3968811035156 236.8082733154297 306.3233642578125 C 234.2560272216797 305.63262939453125 232.46340942382812 303.7138977050781 231.67874145507812 301.0408630371094 C 232.64515686035156 298.4862060546875 234.47738647460938 296.6156921386719 236.6905975341797 296.56201171875 C 239.7805633544922 296.47821044921875 241.68991088867188 298.1761169433594 242.29722595214844 300.7464904785156" stroke-width="0.0" fill="rgb(224, 228, 233)" opacity="0.9917428"/>
    <path d="M 470.4353332519531 308.83978271484375 C 469.499755859375 311.66107177734375 467.663330078125 313.5075988769531 464.9615783691406 314.406005859375 C 462.3448791503906 313.5189514160156 460.684814453125 311.6026916503906 460.5322265625 308.8017883300781 C 460.4690246582031 306.3266296386719 462.3785705566406 304.6522521972656 465.0564270019531 304.36090087890625 C 467.7616882324219 304.4483642578125 469.6781311035156 306.201904296875 470.4353332519531 308.83978271484375" stroke-width="0.0" fill="rgb(209, 211, 218)" opacity="1.0"/>
    <path d="M 304.55181884765625 340.0652770996094 C 304.4437561035156 342.67828369140625 302.72955322265625 344.6184387207031 300.2521667480469 344.6435546875 C 297.31884765625 344.4102783203125 295.3193054199219 342.75946044921875 295.09381103515625 340.3350830078125 C 295.8738098144531 337.67974853515625 297.69256591796875 335.9115295410156 300.3606262207031 334.8209533691406 C 302.8021545410156 335.2749938964844 304.3967590332031 337.290283203125 304.55181884765625 340.0652770996094" stroke-width="0.0" fill="rgb(108, 110, 128)" opacity="0.99023974"/>
    <path d="M 245.2691650390625 406.42987060546875 C 245.47286987304688 408.385986328125 243.18069458007812 409.8292236328125 240.50621032714844 410.2252197265625 C 238.41891479492188 410.3172912597656 236.5099334716797 408.6271057128906 235.79763793945312 406.123291015625 C 236.58255004882812 403.3602294921875 238.32337951660156 401.453369140625 240.89830017089844 400.6748962402344 C 243.5937042236328 401.5440368652344 245.0716094970703 403.5328674316406 245.2691650390625 406.42987060546875" stroke-width="0.0" fill="rgb(235, 236, 238)" opacity="1.0"/>
    <path d="M 99.7920150756836 558.0838012695312 C 99.03857421875 561.161376953125 97.15800476074219 563.03076171875 93.92642974853516 563.8385620117188 C 90.80878448486328 563.064453125 88.95219421386719 561.1851196289062 88.17573547363281 557.7484130859375 C 88.91866302490234 554.7989501953125 90.81954193115234 552.974609375 93.9244155883789 552.2710571289062 C 97.12814331054688 553.0088500976562 99.01013946533203 554.8650512695312 99.7920150756836 558.0838012695312" stroke-width="0.0" fill="rgb(101, 42, 19)" opacity="1.0"/>
    <path d="M 313.53472900390625 375.36895751953125 C 313.8722839355469 377.9545593261719 311.89337158203125 379.69085693359375 309.15380859375 380.32708740234375 C 306.3362731933594 379.49383544921875 304.4571533203125 377.67816162109375 303.63861083984375 375.09625244140625 C 304.54901123046875 372.3866882324219 306.3597412109375 370.4620666503906 309.33203125 369.3600769042969 C 311.9667053222656 370.1060485839844 313.611328125 372.1191711425781 313.53472900390625 375.36895751953125" stroke-width="0.0" fill="rgb(233, 236, 241)" opacity="1.0"/>
    <path d="M 60.568748474121094 559.5443115234375 C 59.33012771606445 562.5 57.5 564.3301391601562 54.815067291259766 565.1749877929688 C 52.030174255371094 564.7600708007812 50.06714630126953 563.0260620117188 49.21355438232422 559.6070556640625 C 49.9404296875 556.8099365234375 51.803565979003906 554.9244384765625 54.775753021240234 554.1669311523438 C 58.1010627746582 555.0128784179688 59.971153259277344 556.9043579101562 60.568748474121094 559.5443115234375" stroke-width="0.0" fill="rgb(104, 45, 18)" opacity="1.0"/>
    <path d="M 479.39654541015625 218.45693969726562 C 478.7133483886719 220.93980407714844 476.9425048828125 222.72015380859375 474.75482177734375 223.23193359375 C 472.67401123046875 222.92987060546875 470.3442687988281 221.61178588867188 469.2406005859375 218.48178100585938 C 469.9657287597656 215.88772583007812 471.9533996582031 214.1464080810547 475.4676513671875 213.25344848632812 C 478.1019287109375 213.97286987304688 479.77764892578125 215.98190307617188 479.39654541015625 218.45693969726562" stroke-width="0.0" fill="rgb(84, 86, 101)" opacity="0.9902774"/>
    <path d="M 332.830322265625 408.1253356933594 C 332.0927429199219 411.22808837890625 330.20538330078125 413.0184631347656 327.64013671875 412.1451110839844 C 325.1413269042969 411.63433837890625 323.3795166015625 409.8526611328125 322.87945556640625 407.6092224121094 C 323.1563720703125 405.40692138671875 324.0119323730469 403.0067138671875 327.501708984375 402.1394348144531 C 330.2571716308594 402.8697509765625 332.0965881347656 404.7557067871094 332.830322265625 408.1253356933594" stroke-width="0.0" fill="rgb(7, 8, 10)" opacity="0.9901259"/>
    <path d="M 15.772584915161133 561.2581176757812 C 15.053091049194336 564.1771850585938 13.164115905761719 566.0172119140625 9.691779136657715 566.7932739257812 C 6.810758590698242 566.06103515625 4.956578731536865 564.1828002929688 4.199609279632568 560.8894653320312 C 4.931707382202148 557.7991333007812 6.799460411071777 555.9319458007812 9.563920021057129 555.2289428710938 C 13.093021392822266 556.0585327148438 14.987858772277832 557.8907470703125 15.772584915161133 561.2581176757812" stroke-width="0.0" fill="rgb(108, 45, 18)" opacity="1.0"/>
    <path d="M 207.24029541015625 456.14605712890625 C 206.61141967773438 458.72015380859375 204.6860809326172 460.5019836425781 202.06021118164062 461.1612548828125 C 199.34071350097656 460.47613525390625 197.49855041503906 458.6661376953125 196.8118133544922 456.0775451660156 C 197.56861877441406 453.3757019042969 199.35055541992188 451.4840393066406 202.033203125 450.6371154785156 C 204.7252960205078 451.39691162109375 206.48439025878906 453.3099365234375 207.24029541015625 456.14605712890625" stroke-width="0.0" fill="rgb(227, 229, 234)" opacity="0.9923516"/>
    <path d="M 41.816314697265625 583.3388061523438 C 41.065391540527344 586.1758422851562 39.145442962646484 587.9812622070312 35.615806579589844 588.7586669921875 C 32.80589294433594 588.0691528320312 30.94816017150879 586.1871337890625 30.195833206176758 583.16455078125 C 30.971324920654297 579.8452758789062 32.84420394897461 577.9686279296875 36.139122009277344 577.1824951171875 C 39.13315963745117 577.984375 40.99151611328125 579.875732421875 41.816314697265625 583.3388061523438" stroke-width="0.0" fill="rgb(104, 42, 17)" opacity="1.0"/>
    <path d="M 424.6461181640625 376.9994201660156 C 424.2251892089844 379.4676513671875 422.49334716796875 381.3078918457031 419.6423645019531 382.3951721191406 C 416.99560546875 381.8908996582031 415.0920104980469 380.01043701171875 414.44091796875 377.4292907714844 C 415.63482666015625 374.4505920410156 417.4533386230469 372.640869140625 419.8569641113281 371.83416748046875 C 422.32110595703125 372.91912841796875 424.1742858886719 374.64678955078125 424.6461181640625 376.9994201660156" stroke-width="0.0" fill="rgb(166, 164, 168)" opacity="0.99062324"/>
    <path d="M 205.3809814453125 306.87835693359375 C 204.53533935546875 309.71563720703125 202.72264099121094 311.5527648925781 200.2888946533203 311.2996826171875 C 197.33653259277344 311.34576416015625 195.6206817626953 309.6695556640625 195.74325561523438 307.3069763183594 C 196.234375 305.0395812988281 198.0511016845703 303.2671813964844 200.19955444335938 302.790283203125 C 202.73941040039062 302.8153381347656 204.74984741210938 304.13580322265625 205.3809814453125 306.87835693359375" stroke-width="0.0" fill="rgb(236, 239, 241)" opacity="1.0"/>
    <path d="M 404.0224609375 218.11473083496094 C 403.4369812011719 220.61448669433594 401.62835693359375 222.4849395751953 398.9692687988281 223.4007568359375 C 396.3167724609375 222.54708862304688 394.5166320800781 220.6641387939453 393.8818664550781 218.09019470214844 C 394.56689453125 215.3692626953125 396.3682861328125 213.56341552734375 398.9823913574219 213.13818359375 C 401.5516662597656 213.62744140625 403.2991027832031 215.46937561035156 404.0224609375 218.11473083496094" stroke-width="0.0" fill="rgb(234, 239, 242)" opacity="0.9921879"/>
    <path d="M 268.27496337890625 414.447265625 C 267.83795166015625 417.1994934082031 266.43096923828125 419.53704833984375 264.1610107421875 420.48193359375 C 261.43853759765625 419.3955078125 259.5352478027344 417.5834655761719 258.6136169433594 414.7640686035156 C 259.08349609375 411.9647521972656 260.9923095703125 410.1653137207031 263.6927795410156 409.5716247558594 C 266.542236328125 410.6552429199219 268.4954833984375 412.4110412597656 268.27496337890625 414.447265625" stroke-width="0.0" fill="rgb(237, 237, 240)" opacity="1.0"/>
    <path d="M 373.15301513671875 273.3183898925781 C 372.6663818359375 275.7786865234375 370.7463684082031 277.5637512207031 368.1416931152344 277.8692626953125 C 365.3979187011719 277.3844299316406 363.68194580078125 275.58624267578125 363.7962951660156 273.4847106933594 C 364.1170959472656 270.7977294921875 365.7912292480469 269.1003112792969 368.45111083984375 268.7899169921875 C 370.5450134277344 268.5571594238281 372.1560974121094 270.5520324707031 373.15301513671875 273.3183898925781" stroke-width="0.0" fill="rgb(245, 248, 245)" opacity="1.0"/>
    <path d="M 380.36090087890625 368.89434814453125 C 379.4844055175781 371.75677490234375 377.8651123046875 373.8205871582031 375.3485107421875 374.4080810546875 C 372.5863037109375 373.2050476074219 370.7055358886719 371.4399108886719 369.7875671386719 369.08477783203125 C 370.850830078125 366.6463317871094 372.6095886230469 364.7257080078125 375.0755615234375 363.6615295410156 C 377.6580505371094 364.50299072265625 379.5592956542969 366.3222351074219 380.36090087890625 368.89434814453125" stroke-width="0.0" fill="rgb(216, 218, 219)" opacity="1.0"/>
    <path d="M 231.42893981933594 311.0934143066406 C 230.4829559326172 313.6206970214844 228.6063232421875 315.4334716796875 226.07423400878906 316.1865234375 C 223.36087036132812 315.42559814453125 221.4836883544922 313.6650085449219 220.67649841308594 310.9997863769531 C 221.80157470703125 308.78424072265625 223.89247131347656 307.16900634765625 226.16148376464844 306.5955810546875 C 228.0941925048828 307.1504821777344 230.12460327148438 308.8258972167969 231.42893981933594 311.0934143066406" stroke-width="0.0" fill="rgb(240, 244, 243)" opacity="1.0"/>
    <path d="M 469.2325134277344 438.0415954589844 C 468.3620300292969 440.5210266113281 466.52484130859375 442.3728942871094 463.93597412109375 443.3092346191406 C 461.3650207519531 442.4899597167969 459.82806396484375 440.5513610839844 459.7855224609375 437.5739440917969 C 459.28399658203125 435.05865478515625 461.0025939941406 433.1018981933594 464.1186218261719 432.4023132324219 C 466.6604309082031 433.2939453125 468.28466796875 435.4953918457031 469.2325134277344 438.0415954589844" stroke-width="0.0" fill="rgb(231, 232, 235)" opacity="1.0"/>
    <path d="M 438.67095947265625 211.31190490722656 C 438.5073547363281 213.66152954101562 436.6322326660156 215.40151977539062 433.9028625488281 215.8716583251953 C 431.3721008300781 215.49618530273438 430.04754638671875 213.42807006835938 429.7940673828125 210.38478088378906 C 429.28369140625 208.1264190673828 431.1090393066406 206.23052978515625 433.4996032714844 206.21920776367188 C 435.93048095703125 207.2865753173828 437.8142395019531 209.03662109375 438.67095947265625 211.31190490722656" stroke-width="0.0" fill="rgb(248, 248, 249)" opacity="1.0"/>
    <path d="M 250.13160705566406 454.9172668457031 C 249.3993682861328 457.60443115234375 247.6652374267578 459.5917663574219 245.17759704589844 460.3656311035156 C 242.40335083007812 459.4346618652344 240.57913208007812 457.5921325683594 239.679443359375 454.90081787109375 C 240.36373901367188 452.1814880371094 242.21083068847656 450.5025329589844 245.36798095703125 450.765625 C 247.72584533691406 450.4529724121094 249.56234741210938 452.27081298828125 250.13160705566406 454.9172668457031" stroke-width="0.0" fill="rgb(223, 226, 231)" opacity="1.0"/>
    <path d="M 146.4937744140625 205.0922393798828 C 145.72525024414062 207.8971405029297 143.92791748046875 209.81756591796875 141.51840209960938 209.30157470703125 C 138.601806640625 209.01039123535156 136.5170135498047 207.56570434570312 135.55442810058594 205.0408935546875 C 136.56727600097656 202.4053955078125 138.39157104492188 200.52610778808594 141.20492553710938 199.51333618164062 C 143.78443908691406 200.3158416748047 145.59617614746094 202.2442626953125 146.4937744140625 205.0922393798828" stroke-width="0.0" fill="rgb(236, 239, 240)" opacity="0.99310637"/>
    <path d="M 347.82958984375 383.62939453125 C 347.06494140625 387.210693359375 345.223388671875 389.0984802246094 341.79742431640625 389.8829345703125 C 338.79302978515625 389.0895690917969 336.93548583984375 387.19732666015625 336.1609191894531 383.67205810546875 C 336.88421630859375 380.7510986328125 338.7522277832031 378.8874206542969 342.1486511230469 378.14801025390625 C 345.26177978515625 378.87432861328125 347.122802734375 380.7393493652344 347.82958984375 383.62939453125" stroke-width="0.0" fill="rgb(7, 7, 7)" opacity="1.0"/>
    <path d="M 311.87945556640625 287.6104736328125 C 311.1065368652344 291.2255859375 309.2127990722656 293.0758972167969 305.7005310058594 293.87420654296875 C 302.76239013671875 293.11700439453125 300.9169921875 291.2239685058594 300.1333312988281 287.7861328125 C 300.91021728515625 284.7950439453125 302.80938720703125 282.9474182128906 306.4859619140625 282.1487731933594 C 309.2639465332031 282.8715515136719 311.1430358886719 284.7298889160156 311.87945556640625 287.6104736328125" stroke-width="0.0" fill="rgb(0, 0, 0)" opacity="1.0"/>
    <path d="M 467.1103515625 448.0310974121094 C 466.3440856933594 450.4957275390625 464.4891052246094 452.324951171875 461.96429443359375 453.38031005859375 C 459.4847412109375 452.3808288574219 457.69818115234375 450.492431640625 456.84454345703125 447.850341796875 C 457.48895263671875 445.36297607421875 459.40325927734375 443.6283264160156 462.0762023925781 442.9678649902344 C 464.5921325683594 443.59234619140625 466.423583984375 445.4024353027344 467.1103515625 448.0310974121094" stroke-width="0.0" fill="rgb(225, 229, 234)" opacity="0.9917234"/>
    <path d="M 62.80152130126953 562.5809936523438 C 61.984371185302734 566.1192626953125 60.12548065185547 568.0017700195312 56.882171630859375 568.7942504882812 C 53.84552001953125 568.0398559570312 52.01618576049805 566.1337280273438 51.44389343261719 563.4522094726562 C 52.66992950439453 560.5000610351562 54.50007247924805 558.6699829101562 57.23064422607422 557.7910766601562 C 60.07994842529297 558.1524658203125 62.07353591918945 559.8430786132812 62.80152130126953 562.5809936523438" stroke-width="0.0" fill="rgb(105, 44, 19)" opacity="1.0"/>
    <path d="M 501.4665222167969 323.84033203125 C 500.5118713378906 326.6336364746094 498.59124755859375 328.368896484375 496.2741394042969 328.74468994140625 C 493.8162536621094 327.9413757324219 491.9902648925781 326.2064514160156 491.0190734863281 323.72772216796875 C 491.4154052734375 321.1968688964844 493.1239013671875 319.195556640625 495.8849792480469 318.8467102050781 C 498.8617858886719 319.25994873046875 500.7131652832031 321.148193359375 501.4665222167969 323.84033203125" stroke-width="0.0" fill="rgb(236, 241, 242)" opacity="1.0"/>
    <path d="M 440.0058288574219 201.63739013671875 C 439.51348876953125 204.8065948486328 437.8694763183594 206.74766540527344 435.2235412597656 206.37734985351562 C 431.9092102050781 206.81182861328125 429.94586181640625 205.15975952148438 430.7025451660156 202.7228546142578 C 431.415771484375 200.2034454345703 433.2028503417969 198.41506958007812 434.7671203613281 197.903564453125 C 436.85565185546875 198.40948486328125 439.0437927246094 200.0261993408203 440.0058288574219 201.63739013671875" stroke-width="0.0" fill="rgb(21, 26, 27)" opacity="0.9900885"/>
    <path d="M 331.8570251464844 314.2831726074219 C 331.1092529296875 317.2461242675781 329.24749755859375 319.11279296875 326.610595703125 319.8021240234375 C 323.329345703125 318.63128662109375 321.62628173828125 316.5864562988281 320.3751525878906 313.454833984375 C 320.9230651855469 310.76837158203125 322.7532653808594 308.8819885253906 325.6511535644531 308.16302490234375 C 329.1716613769531 308.96917724609375 331.057373046875 310.8182373046875 331.8570251464844 314.2831726074219" stroke-width="0.0" fill="rgb(0, 0, 0)" opacity="1.0"/>
    <path d="M 450.5505065917969 247.333740234375 C 449.85321044921875 249.88174438476562 447.71795654296875 251.2688751220703 445.4164123535156 251.1721954345703 C 442.51971435546875 251.00611877441406 440.478271484375 249.65228271484375 439.7903137207031 247.1381378173828 C 440.94647216796875 244.75904846191406 442.741455078125 242.89920043945312 445.0297546386719 242.7838592529297 C 447.64947509765625 242.6757049560547 449.5311279296875 244.30322265625 450.5505065917969 247.333740234375" stroke-width="0.0" fill="rgb(242, 242, 244)" opacity="1.0"/>
    <path d="M 230.30479431152344 278.2200012207031 C 229.5623016357422 280.7413635253906 227.7667236328125 282.6387023925781 225.06117248535156 283.18585205078125 C 222.10032653808594 282.6016540527344 219.9828338623047 281.04461669921875 219.24534606933594 278.600830078125 C 220.766845703125 275.60125732421875 222.61473083496094 273.8128662109375 225.09390258789062 272.8409423828125 C 227.4343719482422 273.73388671875 229.19020080566406 275.5885314941406 230.30479431152344 278.2200012207031" stroke-width="0.0" fill="rgb(190, 198, 202)" opacity="1.0"/>
    <path d="M 242.31761169433594 229.673583984375 C 242.88937377929688 231.86903381347656 240.43934631347656 232.84194946289062 237.8006134033203 233.1622772216797 C 235.86338806152344 232.8227996826172 233.99252319335938 231.21109008789062 233.77342224121094 229.1268768310547 C 234.2622528076172 227.11184692382812 236.15899658203125 225.398193359375 238.12518310546875 224.88189697265625 C 239.83197021484375 225.38845825195312 241.6270294189453 227.1620635986328 242.31761169433594 229.673583984375" stroke-width="0.0" fill="rgb(36, 43, 48)" opacity="0.99007225"/>
    <path d="M 352.1437072753906 282.5146484375 C 351.61981201171875 284.8583068847656 349.8690185546875 286.6453857421875 347.27154541015625 287.5684509277344 C 344.806396484375 288.0450744628906 342.9000244140625 286.2148132324219 342.11474609375 283.1459045410156 C 342.8897705078125 279.7556457519531 344.75714111328125 277.8935852050781 347.50396728515625 277.1629638671875 C 350.8817138671875 278.1398620605469 352.31793212890625 280.2699890136719 352.1437072753906 282.5146484375" stroke-width="0.0" fill="rgb(30, 32, 30)" opacity="0.99028325"/>
    <path d="M 189.95350646972656 234.02536010742188 C 189.41929626464844 236.5886688232422 187.47096252441406 238.06198120117188 184.89686584472656 238.171142578125 C 182.69924926757812 237.93045043945312 180.67214965820312 236.44346618652344 179.66893005371094 233.77899169921875 C 180.33798217773438 231.27731323242188 182.35621643066406 229.58441162109375 184.98353576660156 228.99545288085938 C 187.49961853027344 229.67034912109375 189.32701110839844 231.5010986328125 189.95350646972656 234.02536010742188" stroke-width="0.0" fill="rgb(245, 247, 249)" opacity="1.0"/>
    <path d="M 197.39239501953125 354.33056640625 C 196.7722930908203 356.86083984375 194.73780822753906 358.2388916015625 191.40621948242188 358.29620361328125 C 188.9569091796875 358.95074462890625 187.2730255126953 356.9735412597656 186.6637725830078 353.8528747558594 C 187.32676696777344 351.2241516113281 189.3341827392578 349.7782897949219 192.3913116455078 349.7337646484375 C 194.7616424560547 349.3962707519531 196.47898864746094 351.2735290527344 197.39239501953125 354.33056640625" stroke-width="0.0" fill="rgb(238, 240, 239)" opacity="1.0"/>
    <path d="M 235.87037658691406 295.5025329589844 C 234.70956420898438 297.9060363769531 232.8949432373047 299.67681884765625 231.10659790039062 300.1588439941406 C 229.05935668945312 299.6782531738281 227.03549194335938 298.0267333984375 225.26510620117188 295.6145324707031 C 226.2920684814453 293.61236572265625 228.9142303466797 292.253173828125 230.8347625732422 291.8460388183594 C 232.9455108642578 292.33148193359375 235.12428283691406 293.9300842285156 235.87037658691406 295.5025329589844" stroke-width="0.0" fill="rgb(59, 64, 65)" opacity="0.99012524"/>
    <path d="M 321.1318054199219 393.37237548828125 C 321.0286560058594 396.14300537109375 319.09942626953125 397.894775390625 316.3252868652344 398.3976135253906 C 313.46685791015625 397.3241882324219 311.575927734375 395.5619201660156 310.7373352050781 393.085205078125 C 311.6413269042969 390.4927978515625 313.5843505859375 388.91143798828125 316.3141784667969 388.6473388671875 C 319.02105712890625 388.16766357421875 320.8929443359375 389.9604187011719 321.1318054199219 393.37237548828125" stroke-width="0.0" fill="rgb(183, 185, 187)" opacity="1.0"/>
    <path d="M 443.252685546875 448.01861572265625 C 442.49005126953125 450.63226318359375 440.6198425292969 452.4472961425781 437.9826965332031 453.1389465332031 C 435.4661865234375 452.3768310546875 433.65667724609375 450.52410888671875 432.9712829589844 447.9906311035156 C 433.6788330078125 445.471435546875 435.45111083984375 443.6311950683594 438.511474609375 443.6489562988281 C 440.96783447265625 443.1060485839844 442.64556884765625 445.1125793457031 443.252685546875 448.01861572265625" stroke-width="0.0" fill="rgb(224, 226, 231)" opacity="1.0"/>
    <path d="M 280.41143798828125 403.1946716308594 C 279.5701599121094 405.6560974121094 277.5788269042969 407.3018493652344 274.6815490722656 408.2585144042969 C 272.2086486816406 407.7402648925781 270.5793762207031 405.6903381347656 269.8213195800781 403.0989990234375 C 270.8901672363281 400.703369140625 272.71905517578125 398.9413757324219 275.2937316894531 398.0727844238281 C 277.6523132324219 398.4009704589844 279.25714111328125 400.454833984375 280.41143798828125 403.1946716308594" stroke-width="0.0" fill="rgb(160, 161, 168)" opacity="0.9903122"/>
    <path d="M 256.4953918457031 302.2353210449219 C 256.3818054199219 304.5779113769531 254.5973358154297 306.450927734375 251.91921997070312 307.34918212890625 C 249.2564697265625 306.61517333984375 247.4951629638672 304.7110290527344 247.3470458984375 302.1622619628906 C 247.7793731689453 299.4580993652344 249.3824005126953 297.5201721191406 251.8394317626953 297.5489501953125 C 254.6380615234375 297.5126953125 256.1533203125 299.46185302734375 256.4953918457031 302.2353210449219" stroke-width="0.0" fill="rgb(221, 223, 228)" opacity="0.9916101"/>
    <path d="M 195.16384887695312 308.2039489746094 C 193.6013946533203 310.8800048828125 192.02586364746094 313.17803955078125 190.2581329345703 313.4823303222656 C 186.8667449951172 313.87860107421875 184.89401245117188 312.20379638671875 184.1651611328125 309.5720520019531 C 185.19081115722656 306.3453674316406 187.82000732421875 305.23919677734375 190.6708526611328 304.6225280761719 C 193.17874145507812 303.98345947265625 195.1025390625 305.7891540527344 195.16384887695312 308.2039489746094" stroke-width="0.0" fill="rgb(5, 6, 6)" opacity="0.99016744"/>
    <path d="M 565.2152099609375 223.25521850585938 C 564.7821044921875 224.97686767578125 562.9502563476562 226.70880126953125 561.0399780273438 227.1797332763672 C 559.0755004882812 226.6932830810547 557.2872924804688 224.9320831298828 556.7955322265625 222.9166259765625 C 557.2572021484375 221.03219604492188 559.0432739257812 219.28553771972656 561.0828247070312 218.81300354003906 C 562.9544067382812 219.26763916015625 564.70361328125 221.0569610595703 565.2152099609375 223.25521850585938" stroke-width="0.0" fill="rgb(125, 82, 58)" opacity="0.9900687"/>
    <path d="M 438.2186584472656 475.0248718261719 C 437.5088806152344 477.6687316894531 435.6695251464844 479.5130615234375 433.1465148925781 480.302734375 C 430.6087646484375 479.2002868652344 428.7875061035156 477.3945007324219 427.8584289550781 474.9618835449219 C 428.70654296875 472.51446533203125 430.4885559082031 470.62335205078125 433.00567626953125 469.8315734863281 C 435.6871337890625 470.4927673339844 437.53021240234375 472.30615234375 438.2186584472656 475.0248718261719" stroke-width="0.0" fill="rgb(221, 223, 229)" opacity="0.99133146"/>
    <path d="M 269.2115173339844 319.1060791015625 C 268.5513000488281 321.70196533203125 266.7546691894531 323.6988220214844 264.0728759765625 324.5003967285156 C 261.2538146972656 323.63653564453125 259.2451477050781 321.7917785644531 258.49371337890625 319.3174743652344 C 259.4739074707031 316.41253662109375 261.6258850097656 315.037109375 263.91845703125 314.7768859863281 C 266.2229309082031 315.1110534667969 268.2715148925781 316.6484375 269.2115173339844 319.1060791015625" stroke-width="0.0" fill="rgb(87, 96, 102)" opacity="0.99020207"/>
    <path d="M 475.7054748535156 282.1634216308594 C 474.11639404296875 283.99908447265625 471.8659973144531 285.59393310546875 469.7538146972656 286.1106262207031 C 468.1315002441406 285.6214294433594 466.1022033691406 283.9479064941406 464.4743347167969 282.2788391113281 C 466.2003173828125 280.0887756347656 468.1482238769531 278.3891906738281 469.66644287109375 277.8973083496094 C 471.83343505859375 278.4278564453125 473.9917907714844 280.053955078125 475.7054748535156 282.1634216308594" stroke-width="0.0" fill="rgb(21, 26, 30)" opacity="0.99007875"/>
    <path d="M 97.7944107055664 532.17236328125 C 97.05292510986328 535.18994140625 95.1938247680664 537.0634765625 91.9914321899414 537.8090209960938 C 88.82109832763672 537.062255859375 87.00609588623047 535.154052734375 86.259765625 531.9962158203125 C 87.00887298583984 528.8777465820312 88.87824249267578 527.0105590820312 92.15090942382812 526.2388305664062 C 95.1238021850586 527.0029296875 97.01117706298828 528.8706665039062 97.7944107055664 532.17236328125" stroke-width="0.0" fill="rgb(105, 46, 20)" opacity="1.0"/>
    <path d="M 234.17344665527344 380.252685546875 C 233.55889892578125 382.7594909667969 231.74813842773438 384.53155517578125 229.26446533203125 385.1467590332031 C 226.79893493652344 386.0205078125 224.895263671875 384.2289123535156 224.24595642089844 381.6848449707031 C 226.17762756347656 379.00616455078125 228.0170440673828 377.2148742675781 230.6728057861328 375.5542297363281 C 233.21746826171875 375.91754150390625 235.05833435058594 377.7906494140625 234.17344665527344 380.252685546875" stroke-width="0.0" fill="rgb(12, 14, 14)" opacity="0.9901974"/>
    <path d="M 335.88043212890625 369.70318603515625 C 335.10711669921875 373.2433776855469 333.24493408203125 375.11114501953125 329.96600341796875 375.8744812011719 C 326.7375793457031 375.1203308105469 324.8609313964844 373.2698974609375 324.12005615234375 370.31756591796875 C 324.8896789550781 366.7430419921875 326.7321472167969 364.8623352050781 329.9252014160156 364.12786865234375 C 333.25714111328125 364.8815612792969 335.13397216796875 366.73663330078125 335.88043212890625 369.70318603515625" stroke-width="0.0" fill="rgb(0, 0, 0)" opacity="1.0"/>
    <path d="M 501.26763916015625 178.43934631347656 C 500.6326599121094 180.86561584472656 498.87933349609375 182.6664276123047 496.8779296875 183.1481475830078 C 494.6761779785156 182.81822204589844 492.2723388671875 181.7249755859375 492.6865539550781 179.14454650878906 C 492.2127380371094 175.97300720214844 493.927001953125 174.04859924316406 496.9827880859375 173.2901153564453 C 499.7991943359375 174.14407348632812 501.08966064453125 176.4940643310547 501.26763916015625 178.43934631347656" stroke-width="0.0" fill="rgb(54, 55, 61)" opacity="0.9900803"/>
    <path d="M 291.6790771484375 433.9459228515625 C 291.19146728515625 436.39892578125 289.4197692871094 438.26202392578125 286.9221496582031 439.1471252441406 C 284.46026611328125 438.41094970703125 282.8093566894531 436.4706115722656 282.4777526855469 434.0186767578125 C 283.00457763671875 431.7831726074219 284.751708984375 429.9018859863281 287.2541198730469 428.66253662109375 C 289.6980895996094 429.4059753417969 291.3987121582031 431.3583068847656 291.6790771484375 433.9459228515625" stroke-width="0.0" fill="rgb(172, 175, 181)" opacity="0.9903542"/>
    <path d="M 457.7569580078125 201.0399169921875 C 457.35369873046875 203.54171752929688 455.5181884765625 205.27413940429688 452.9966125488281 205.7156982421875 C 450.5138854980469 205.26365661621094 448.67633056640625 203.50462341308594 448.4845886230469 201.14710998535156 C 448.64617919921875 198.4254608154297 450.42059326171875 196.6175079345703 453.0644226074219 196.0084228515625 C 455.7586364746094 196.2778778076172 457.3096008300781 198.3691864013672 457.7569580078125 201.0399169921875" stroke-width="0.0" fill="rgb(237, 239, 243)" opacity="1.0"/>
    <path d="M 378.4300537109375 358.4801025390625 C 377.85516357421875 360.89080810546875 375.7783508300781 362.5151672363281 372.760986328125 363.3845520019531 C 370.12811279296875 362.7430114746094 368.4524230957031 360.82098388671875 368.6270751953125 357.7646179199219 C 368.61444091796875 355.3758850097656 370.3631591796875 353.5700988769531 373.19195556640625 353.2707214355469 C 375.4574279785156 353.6595153808594 377.18902587890625 355.58514404296875 378.4300537109375 358.4801025390625" stroke-width="0.0" fill="rgb(221, 224, 227)" opacity="1.0"/>
  </g>
</svg>
