<?xml version="1.0" ?>
<svg xmlns="http://www.w3.org/2000/svg" version="1.1" width="600" height="600">
  <defs/>
  <g>
    <path d="M 1.9010131359100342 353.8835754394531 C -0.08671694993972778 354.4537048339844 -2.0422096252441406 353.31103515625 -0.19986380636692047 350.9454040527344 C -1.373145341873169 351.5711975097656 -1.7442092895507812 350.32183837890625 0.6738449931144714 351.1717529296875 C 1.1295156478881836 351.9128723144531 3.3233442306518555 353.197265625 2.446371078491211 352.9582214355469 C 1.4655041694641113 351.2638244628906 2.38926362991333 353.2074890136719 1.9010131359100342 353.8835754394531" stroke-width="0.0" fill="rgb(255, 255, 255)" opacity="0.7874718"/>
    <path d="M 382.7525634765625 590.4044799804688 C 383.3696594238281 589.0805053710938 383.7347717285156 590.115234375 386.2028503417969 588.669189453125 C 384.8221130371094 589.3800048828125 384.6568298339844 589.1558227539062 382.5885925292969 590.0596313476562 C 384.4478454589844 592.3602905273438 386.1087341308594 593.3689575195312 387.27789306640625 594.4104614257812 C 385.79296875 593.6382446289062 387.86883544921875 594.6643676757812 382.7525634765625 590.4044799804688" stroke-width="0.0" fill="rgb(255, 255, 255)" opacity="0.7122546"/>
    <path d="M 19.8461971282959 3.0134575366973877 C 20.555068969726562 0.6369426846504211 18.88823699951172 3.055312395095825 18.476119995117188 4.142505645751953 C 18.668935775756836 3.3501851558685303 19.53962516784668 1.988731861114502 20.595073699951172 3.2614219188690186 C 21.56107521057129 1.8917261362075806 21.215898513793945 0.28592604398727417 19.0078125 1.0683013200759888 C 18.94110679626465 0.9603733420372009 17.661531448364258 -1.3591699600219727 19.8461971282959 3.0134575366973877" stroke-width="0.0" fill="rgb(255, 255, 255)" opacity="0.75701755"/>
    <path d="M -0.44092458486557007 368.8858642578125 C 0.38754040002822876 369.0581970214844 -1.1394810676574707 367.0614318847656 -2.5862815380096436 364.7341003417969 C -3.248795509338379 364.49609375 -1.8675545454025269 363.8060302734375 -0.8952409029006958 365.4088134765625 C 0.49651825428009033 362.9576721191406 -0.539249062538147 364.6908874511719 -1.998167872428894 362.36602783203125 C -0.22934769093990326 364.1094970703125 -1.1812751293182373 366.0325927734375 -0.44092458486557007 368.8858642578125" stroke-width="0.0" fill="rgb(255, 255, 255)" opacity="0.9947448"/>
    <path d="M 17.995962142944336 367.447998046875 C 17.496849060058594 365.15594482421875 19.160478591918945 362.45355224609375 20.21674346923828 363.008056640625 C 19.58400535583496 363.34375 20.43868637084961 364.4151611328125 19.811731338500977 366.30706787109375 C 18.077299118041992 364.5792236328125 17.269794464111328 362.55181884765625 18.097122192382812 362.8094482421875 C 17.481033325195312 365.3660583496094 15.838334083557129 366.0874328613281 17.995962142944336 367.447998046875" stroke-width="0.0" fill="rgb(255, 255, 255)" opacity="0.6852511"/>
    <path d="M 22.832813262939453 427.1277770996094 C 22.835704803466797 428.2677001953125 25.44754409790039 428.02911376953125 26.412221908569336 429.22845458984375 C 28.435367584228516 431.31427001953125 28.097143173217773 431.28338623046875 27.24285125732422 430.2642822265625 C 26.314634323120117 428.53466796875 24.73885726928711 429.0928039550781 23.595577239990234 426.78265380859375 C 22.807947158813477 427.3594055175781 21.24100112915039 426.7709045410156 22.832813262939453 427.1277770996094" stroke-width="0.0" fill="rgb(255, 255, 255)" opacity="0.74031925"/>
    <path d="M 597.3817749023438 471.19390869140625 C 598.0845336914062 468.41705322265625 600.10302734375 466.8559875488281 598.5808715820312 468.077880859375 C 597.7254028320312 467.63140869140625 597.3318481445312 468.5885314941406 595.5263671875 467.68072509765625 C 597.937744140625 466.2464599609375 596.7059326171875 465.7584228515625 596.9996948242188 464.1112976074219 C 598.3085327148438 463.46380615234375 600.9994506835938 463.83380126953125 597.3817749023438 471.19390869140625" stroke-width="0.0" fill="rgb(255, 255, 255)" opacity="0.69399154"/>
    <path d="M 341.0985412597656 570.38671875 C 342.2523193359375 569.134765625 343.2557373046875 569.1456909179688 342.63507080078125 569.516357421875 C 341.4031066894531 569.3168334960938 341.107421875 570.327880859375 340.2069396972656 571.8486938476562 C 340.9110107421875 569.6844482421875 342.4126892089844 572.0087890625 340.6785583496094 570.4803466796875 C 341.88641357421875 572.3409423828125 340.6247863769531 570.7643432617188 341.0985412597656 570.38671875" stroke-width="0.0" fill="rgb(255, 255, 255)" opacity="0.80103827"/>
    <path d="M 284.9327392578125 576.9028930664062 C 287.2752685546875 577.1458129882812 285.30712890625 577.8560791015625 285.75164794921875 579.5878295898438 C 285.5928039550781 580.2648315429688 286.6742248535156 582.5518798828125 287.164306640625 584.461669921875 C 287.0108642578125 586.2254028320312 288.84100341796875 585.1452026367188 287.822509765625 587.4371948242188 C 287.48931884765625 588.8141479492188 289.13311767578125 590.1901245117188 284.9327392578125 576.9028930664062" stroke-width="0.0" fill="rgb(255, 255, 255)" opacity="0.66270065"/>
    <path d="M 564.223388671875 466.8691711425781 C 563.258056640625 465.0978088378906 561.2879638671875 463.7614440917969 562.2197875976562 466.4866638183594 C 561.305908203125 467.60711669921875 560.6126708984375 469.226806640625 561.1974487304688 471.1136474609375 C 562.8087768554688 470.3226318359375 563.9094848632812 471.58135986328125 563.3447265625 471.06256103515625 C 563.6254272460938 471.2868957519531 561.7409057617188 471.3197937011719 564.223388671875 466.8691711425781" stroke-width="0.0" fill="rgb(255, 255, 255)" opacity="0.6889451"/>
    <path d="M 11.253205299377441 27.953697204589844 C 12.406098365783691 26.207311630249023 11.853350639343262 24.032732009887695 9.720565795898438 22.143733978271484 C 7.808745861053467 20.204439163208008 9.086932182312012 21.32560157775879 7.412666320800781 22.023841857910156 C 8.634356498718262 21.1558837890625 10.87948226928711 18.690885543823242 9.652706146240234 19.451143264770508 C 11.100397109985352 17.743946075439453 13.116205215454102 19.89972686767578 11.253205299377441 27.953697204589844" stroke-width="0.0" fill="rgb(255, 255, 255)" opacity="0.63343483"/>
    <path d="M 594.560302734375 304.99932861328125 C 595.813720703125 303.78076171875 596.5950927734375 302.7984619140625 595.6248168945312 302.0417785644531 C 594.5467529296875 301.66851806640625 593.1292724609375 303.1944580078125 592.7534790039062 300.9200744628906 C 591.2841796875 302.28076171875 590.3418579101562 303.1815185546875 592.205078125 301.5049133300781 C 592.575439453125 300.2548522949219 590.2257080078125 301.4205017089844 594.560302734375 304.99932861328125" stroke-width="0.0" fill="rgb(255, 255, 255)" opacity="0.6955734"/>
    <path d="M 305.4090881347656 570.4580688476562 C 307.2097473144531 573.3414306640625 308.6145935058594 572.57177734375 307.9005432128906 574.8634643554688 C 308.93170166015625 575.8259887695312 306.7723693847656 576.3605346679688 305.6214599609375 575.968994140625 C 307.42279052734375 576.3668823242188 305.87158203125 576.7853393554688 305.9607849121094 573.9653930664062 C 304.9466857910156 571.243408203125 304.1396484375 574.193603515625 305.4090881347656 570.4580688476562" stroke-width="0.0" fill="rgb(255, 255, 255)" opacity="0.6880238"/>
    <path d="M 11.026379585266113 372.9105529785156 C 10.987833976745605 373.07080078125 9.235840797424316 373.14312744140625 7.299546241760254 372.90264892578125 C 6.816708564758301 373.8645935058594 5.731318473815918 371.7880859375 4.504973888397217 371.1965026855469 C 3.312772750854492 369.8200378417969 2.133967638015747 368.56396484375 3.4788851737976074 366.8609619140625 C 2.8665597438812256 366.7060241699219 6.318348407745361 366.50616455078125 11.026379585266113 372.9105529785156" stroke-width="0.0" fill="rgb(255, 255, 255)" opacity="0.63554156"/>
    <path d="M 598.8108520507812 390.7536926269531 C 597.0864868164062 391.2825622558594 598.5858154296875 393.0615539550781 598.2000732421875 391.7149353027344 C 599.3628540039062 392.64349365234375 601.3151245117188 394.5616149902344 601.0407104492188 394.6500244140625 C 599.9099731445312 392.6104736328125 601.2472534179688 390.4208984375 600.706787109375 388.3760986328125 C 600.1614379882812 387.06298828125 600.2642822265625 387.4425354003906 598.8108520507812 390.7536926269531" stroke-width="0.0" fill="rgb(255, 255, 255)" opacity="0.785442"/>
    <path d="M 572.8865356445312 403.4581604003906 C 572.8522338867188 401.4874572753906 571.4540405273438 403.0482482910156 570.3701782226562 402.93609619140625 C 568.8607177734375 404.15484619140625 571.4552612304688 404.41729736328125 570.9544677734375 403.58355712890625 C 571.211181640625 401.7942810058594 573.5231323242188 402.5165710449219 572.7486572265625 402.9739990234375 C 572.9645385742188 403.5475769042969 572.7800903320312 404.671142578125 572.8865356445312 403.4581604003906" stroke-width="0.0" fill="rgb(255, 255, 255)" opacity="0.79517996"/>
    <path d="M 339.1151123046875 588.6133422851562 C 336.8294372558594 589.9205322265625 337.8272399902344 589.8859252929688 339.7010498046875 590.6820068359375 C 341.7516174316406 588.8052368164062 340.6525573730469 591.1113891601562 341.1447448730469 590.9921875 C 340.1677551269531 591.4366455078125 338.1114807128906 588.821044921875 337.1607971191406 590.3831176757812 C 338.1273193359375 589.278564453125 339.4079895019531 588.4774780273438 339.1151123046875 588.6133422851562" stroke-width="0.0" fill="rgb(255, 255, 255)" opacity="0.7759428"/>
    <path d="M 588.3680419921875 447.8411560058594 C 586.7742309570312 448.71405029296875 589.129638671875 450.3502502441406 588.1663208007812 449.5674133300781 C 587.1840209960938 450.5427551269531 585.8953857421875 449.6695251464844 583.8002319335938 450.176025390625 C 583.662841796875 451.95367431640625 586.6268310546875 450.37774658203125 588.1864624023438 451.2263488769531 C 586.588623046875 453.7900695800781 583.9676513671875 450.6764831542969 588.3680419921875 447.8411560058594" stroke-width="0.0" fill="rgb(255, 255, 255)" opacity="0.7082007"/>
    <path d="M 572.7907104492188 386.48480224609375 C 573.9838256835938 386.4967346191406 572.8008422851562 386.2146911621094 571.2227783203125 387.77093505859375 C 573.74755859375 388.7185974121094 573.1539916992188 388.4202575683594 573.5926513671875 388.4508056640625 C 572.7800903320312 388.3389587402344 570.0927734375 387.54815673828125 569.5690307617188 387.6658935546875 C 569.0869750976562 387.0024719238281 569.8132934570312 389.0084228515625 572.7907104492188 386.48480224609375" stroke-width="0.0" fill="rgb(255, 255, 255)" opacity="0.72442794"/>
    <path d="M 376.8520812988281 570.8993530273438 C 376.07318115234375 572.9896850585938 375.3911437988281 575.3792114257812 375.2900390625 576.893310546875 C 375.5889587402344 576.1261596679688 374.51123046875 578.4068603515625 377.19549560546875 580.4524536132812 C 375.9144287109375 581.7113647460938 378.3802795410156 580.5269775390625 376.1939697265625 579.6647338867188 C 375.8973388671875 578.4793701171875 373.90582275390625 578.222412109375 376.8520812988281 570.8993530273438" stroke-width="0.0" fill="rgb(255, 255, 255)" opacity="0.77174443"/>
    <path d="M 17.010976791381836 12.343658447265625 C 16.96656036376953 10.461568832397461 17.779788970947266 8.613534927368164 15.318807601928711 11.228857040405273 C 14.303688049316406 11.670029640197754 16.2030029296875 13.877833366394043 12.767651557922363 12.83296012878418 C 13.543651580810547 12.929410934448242 12.500787734985352 16.136093139648438 13.3693208694458 17.317594528198242 C 13.248125076293945 17.792484283447266 11.927631378173828 19.123340606689453 17.010976791381836 12.343658447265625" stroke-width="0.0" fill="rgb(255, 255, 255)" opacity="0.66914725"/>
    <path d="M 592.86376953125 360.4544372558594 C 591.7168579101562 359.0731506347656 590.9611206054688 358.3110046386719 592.3165893554688 360.00286865234375 C 593.2303466796875 360.8208923339844 591.7481079101562 361.95611572265625 595.6880493164062 363.375 C 593.835693359375 365.13360595703125 595.04833984375 365.10247802734375 594.4010009765625 365.4041748046875 C 595.1372680664062 366.81689453125 592.7311401367188 366.1477355957031 592.86376953125 360.4544372558594" stroke-width="0.0" fill="rgb(255, 255, 255)" opacity="0.72848916"/>
    <path d="M 562.1966552734375 594.0446166992188 C 563.3869018554688 593.3263549804688 564.9613647460938 595.2125244140625 565.578125 596.4303588867188 C 565.4785766601562 596.94970703125 565.5759887695312 595.2199096679688 566.8258666992188 596.3269653320312 C 567.4898071289062 598.7207641601562 566.226318359375 597.8828735351562 564.7018432617188 598.0947875976562 C 563.4099731445312 598.3078002929688 561.3036499023438 596.9448852539062 562.1966552734375 594.0446166992188" stroke-width="0.0" fill="rgb(255, 255, 255)" opacity="0.69776744"/>
    <path d="M 19.353891372680664 495.3217468261719 C 19.4266357421875 496.0057373046875 20.058650970458984 494.18353271484375 16.911592483520508 495.2818908691406 C 16.970149993896484 493.6893615722656 19.321807861328125 492.1554870605469 21.0573787689209 493.38555908203125 C 20.276634216308594 494.8878479003906 21.793540954589844 494.7518615722656 22.950923919677734 493.8224182128906 C 23.081832885742188 494.2450256347656 21.609466552734375 494.36492919921875 19.353891372680664 495.3217468261719" stroke-width="0.0" fill="rgb(255, 255, 255)" opacity="0.70750815"/>
    <path d="M 5.496496200561523 503.66046142578125 C 5.675253868103027 505.319580078125 6.97804594039917 507.8275146484375 5.2252302169799805 508.3741149902344 C 5.04986572265625 508.100341796875 6.070864200592041 508.9418640136719 4.7326483726501465 507.0976867675781 C 3.4343907833099365 506.6603698730469 3.709153175354004 504.97796630859375 4.7031965255737305 504.7919006347656 C 5.198509693145752 505.7231140136719 6.089774131774902 504.0323791503906 5.496496200561523 503.66046142578125" stroke-width="0.0" fill="rgb(255, 255, 255)" opacity="0.7564624"/>
    <path d="M 28.495746612548828 68.73700714111328 C 31.73224449157715 66.68177795410156 29.54608917236328 65.67396545410156 27.762697219848633 65.94095611572266 C 25.81480598449707 66.7946548461914 27.283578872680664 68.10496520996094 29.267900466918945 67.96887969970703 C 29.409759521484375 68.64299774169922 27.450658798217773 68.82707214355469 26.747568130493164 69.35051727294922 C 27.576759338378906 67.02094268798828 25.82992935180664 66.079345703125 28.495746612548828 68.73700714111328" stroke-width="0.0" fill="rgb(255, 255, 255)" opacity="0.72008383"/>
    <path d="M 259.6851806640625 586.8565673828125 C 260.6183776855469 587.41015625 259.6401062011719 586.6878051757812 258.78131103515625 585.2006225585938 C 260.9413757324219 587.6331176757812 259.44512939453125 589.4346313476562 261.0397644042969 587.5238037109375 C 260.6476135253906 585.8245849609375 263.0877380371094 584.275146484375 264.1481018066406 585.2413940429688 C 263.656005859375 583.533935546875 263.14862060546875 582.651611328125 259.6851806640625 586.8565673828125" stroke-width="0.0" fill="rgb(255, 255, 255)" opacity="0.7010157"/>
    <path d="M 589.3440551757812 432.21331787109375 C 591.1263427734375 430.05645751953125 592.7911987304688 428.6712951660156 593.0941162109375 429.7715759277344 C 592.244873046875 430.7220153808594 592.293701171875 429.3760070800781 590.661376953125 429.5219421386719 C 591.885498046875 429.6136474609375 594.259521484375 429.4316101074219 592.4439086914062 428.9014892578125 C 594.3616943359375 426.5630798339844 596.3546142578125 424.75927734375 589.3440551757812 432.21331787109375" stroke-width="0.0" fill="rgb(255, 255, 255)" opacity="0.8251457"/>
    <path d="M 18.10645866394043 380.0460510253906 C 17.596832275390625 378.8316955566406 18.625164031982422 380.5262145996094 18.223358154296875 381.1487121582031 C 18.20973014831543 379.1171875 19.31926727294922 379.6361389160156 18.967729568481445 381.8217468261719 C 20.747703552246094 382.48724365234375 20.798744201660156 381.6291809082031 21.118358612060547 381.867919921875 C 20.475711822509766 379.7948303222656 22.11223793029785 379.91900634765625 18.10645866394043 380.0460510253906" stroke-width="0.0" fill="rgb(255, 255, 255)" opacity="0.7933406"/>
    <path d="M 5.673101425170898 499.7831726074219 C 5.067199230194092 499.0164794921875 6.396629810333252 500.7837219238281 8.032821655273438 499.7035827636719 C 9.22527027130127 500.3324890136719 9.445363998413086 500.920166015625 10.7050199508667 502.38623046875 C 7.713636875152588 501.35491943359375 6.633142471313477 502.2779541015625 8.709915161132812 503.4335632324219 C 10.57001781463623 505.2693176269531 9.05617618560791 504.5439758300781 5.673101425170898 499.7831726074219" stroke-width="0.0" fill="rgb(255, 255, 255)" opacity="0.6949018"/>
    <path d="M 502.2577819824219 565.9309692382812 C 503.46624755859375 568.0103759765625 503.957763671875 569.748046875 503.956787109375 568.9110717773438 C 505.74114990234375 569.38427734375 507.0717468261719 567.677734375 505.0139465332031 569.2991333007812 C 504.5103454589844 571.8661499023438 505.5434875488281 570.1183471679688 506.0910339355469 571.4547729492188 C 506.0368347167969 572.9067993164062 505.433349609375 572.6384887695312 502.2577819824219 565.9309692382812" stroke-width="0.0" fill="rgb(255, 255, 255)" opacity="0.714589"/>
    <path d="M 10.314692497253418 420.8823547363281 C 11.186393737792969 418.65802001953125 9.020574569702148 419.3565673828125 9.427031517028809 418.74981689453125 C 9.672120094299316 419.7289733886719 7.5281572341918945 417.73583984375 9.19463062286377 418.8390808105469 C 10.841060638427734 418.74456787109375 9.791119575500488 420.81756591796875 10.408267974853516 419.14892578125 C 10.241596221923828 419.8382263183594 10.842925071716309 418.8927307128906 10.314692497253418 420.8823547363281" stroke-width="0.0" fill="rgb(255, 255, 255)" opacity="0.8382607"/>
    <path d="M 543.239501953125 593.0082397460938 C 543.6591186523438 593.8176879882812 544.7298583984375 592.7595825195312 545.443603515625 592.530029296875 C 547.4684448242188 590.2562255859375 548.7326049804688 587.6798706054688 549.7306518554688 589.2423095703125 C 552.6411743164062 587.9974975585938 552.6570434570312 585.7136840820312 552.361572265625 585.0838012695312 C 552.9232788085938 586.2987060546875 553.0896606445312 587.9656372070312 543.239501953125 593.0082397460938" stroke-width="0.0" fill="rgb(255, 255, 255)" opacity="0.62968445"/>
    <path d="M 278.304931640625 595.0482788085938 C 279.6296081542969 593.4990234375 279.6255187988281 594.0421142578125 280.4000549316406 593.6773071289062 C 282.23077392578125 596.09375 280.8234558105469 593.7684936523438 279.9531555175781 593.719482421875 C 278.2397155761719 594.5471801757812 276.0911560058594 596.90087890625 277.57861328125 595.9525146484375 C 275.8377990722656 595.9578247070312 274.0745544433594 598.0542602539062 278.304931640625 595.0482788085938" stroke-width="0.0" fill="rgb(255, 255, 255)" opacity="0.7935448"/>
    <path d="M 542.8900756835938 583.29833984375 C 540.9973754882812 582.1780395507812 541.5255126953125 579.39453125 543.1182861328125 578.6248779296875 C 541.11376953125 580.0543823242188 542.6502685546875 580.6309204101562 541.5045776367188 581.9096069335938 C 540.850341796875 582.1598510742188 541.0087280273438 582.1538696289062 540.9838256835938 581.5040283203125 C 541.8668823242188 580.1675415039062 543.7710571289062 578.0361938476562 542.8900756835938 583.29833984375" stroke-width="0.0" fill="rgb(255, 255, 255)" opacity="0.750272"/>
    <path d="M 568.1083374023438 339.5414733886719 C 567.545654296875 339.9778137207031 566.5534057617188 339.0470275878906 568.07080078125 340.46209716796875 C 567.667236328125 341.1892395019531 565.6637573242188 342.9105529785156 565.03271484375 341.8410339355469 C 562.8729248046875 341.80242919921875 562.4228515625 342.3520202636719 561.9697265625 341.7931213378906 C 560.59521484375 341.942626953125 559.010498046875 341.7792663574219 568.1083374023438 339.5414733886719" stroke-width="0.0" fill="rgb(255, 255, 255)" opacity="0.67342746"/>
    <path d="M 567.8364868164062 450.3417053222656 C 567.5050659179688 449.5678405761719 569.3126831054688 447.7039794921875 569.9146728515625 447.99468994140625 C 570.2257080078125 450.37750244140625 570.0607299804688 451.8200378417969 568.257080078125 450.8724060058594 C 568.4990234375 451.8524475097656 568.422607421875 454.0802001953125 567.4202270507812 454.05999755859375 C 567.5067138671875 454.3920593261719 569.3564453125 452.7215881347656 567.8364868164062 450.3417053222656" stroke-width="0.0" fill="rgb(255, 255, 255)" opacity="0.73120457"/>
    <path d="M 584.9328002929688 492.6664733886719 C 583.4292602539062 491.7081298828125 583.513916015625 490.7451171875 584.55029296875 489.6422424316406 C 582.682861328125 488.0256652832031 584.5555419921875 490.2335205078125 585.4241943359375 489.7123718261719 C 583.4718627929688 489.9290466308594 582.6152954101562 490.1347351074219 582.7576904296875 490.40972900390625 C 583.0886840820312 490.04443359375 581.14111328125 488.6247253417969 584.9328002929688 492.6664733886719" stroke-width="0.0" fill="rgb(255, 255, 255)" opacity="0.8121896"/>
    <path d="M 253.65011596679688 574.7609252929688 C 253.35931396484375 574.6122436523438 251.5240478515625 574.831298828125 250.7998809814453 574.1231079101562 C 249.045654296875 573.7892456054688 249.13710021972656 573.679931640625 250.7346954345703 574.5883178710938 C 251.95704650878906 571.6171264648438 249.76785278320312 570.4091186523438 246.11143493652344 571.1570434570312 C 245.16307067871094 573.5170288085938 247.17816162109375 574.15771484375 253.65011596679688 574.7609252929688" stroke-width="0.0" fill="rgb(255, 255, 255)" opacity="0.6805816"/>
    <path d="M 298.57135009765625 580.3062744140625 C 297.2100524902344 578.2587890625 295.2178649902344 579.8267822265625 296.1494445800781 577.3406372070312 C 297.11114501953125 576.527587890625 299.8787841796875 577.0101928710938 302.0904235839844 578.2510986328125 C 301.2135009765625 578.8596801757812 303.6257019042969 577.2178955078125 304.29339599609375 576.0585327148438 C 306.2386169433594 575.5446166992188 304.9520263671875 572.06494140625 298.57135009765625 580.3062744140625" stroke-width="0.0" fill="rgb(255, 255, 255)" opacity="0.6395897"/>
    <path d="M 584.494384765625 382.6745910644531 C 585.0445556640625 383.2393493652344 585.301513671875 383.409423828125 584.8275146484375 385.49676513671875 C 583.227294921875 383.1478271484375 581.9691162109375 383.9319763183594 580.533203125 382.8004455566406 C 581.5977172851562 383.7618408203125 582.0924682617188 383.2545166015625 583.5419311523438 384.09942626953125 C 582.9903564453125 384.8657531738281 582.4588012695312 385.76690673828125 584.494384765625 382.6745910644531" stroke-width="0.0" fill="rgb(255, 255, 255)" opacity="0.7620537"/>
    <path d="M 21.976581573486328 358.77508544921875 C 21.709035873413086 356.7269287109375 19.966190338134766 358.76025390625 21.47688102722168 360.11248779296875 C 21.859193801879883 359.80096435546875 23.410367965698242 359.5066833496094 23.252904891967773 361.3547668457031 C 22.229509353637695 362.66937255859375 22.653173446655273 361.55255126953125 24.00973129272461 359.1822814941406 C 24.378210067749023 359.3161315917969 26.43511199951172 359.9837341308594 21.976581573486328 358.77508544921875" stroke-width="0.0" fill="rgb(255, 255, 255)" opacity="0.7147988"/>
    <path d="M 594.9010009765625 400.6046142578125 C 597.7627563476562 402.13592529296875 595.2117309570312 404.0647277832031 592.4510498046875 402.50042724609375 C 594.3426513671875 402.07342529296875 593.0394287109375 400.1957092285156 591.9752197265625 399.0058288574219 C 591.1978759765625 398.1733703613281 593.3756103515625 399.4172668457031 591.599609375 400.9674377441406 C 589.6301879882812 401.4064025878906 591.4207763671875 403.3559265136719 594.9010009765625 400.6046142578125" stroke-width="0.0" fill="rgb(255, 255, 255)" opacity="0.68122745"/>
    <path d="M 584.1532592773438 361.3034973144531 C 585.1888427734375 360.3777770996094 582.7600708007812 360.7808532714844 583.05224609375 360.421630859375 C 583.6285400390625 361.7014465332031 584.6419067382812 363.0845031738281 584.24365234375 360.4749755859375 C 582.0125122070312 358.7975158691406 581.541748046875 357.40081787109375 581.4093017578125 359.2175598144531 C 579.4454956054688 361.2831726074219 578.3326416015625 362.8866271972656 584.1532592773438 361.3034973144531" stroke-width="0.0" fill="rgb(255, 255, 255)" opacity="0.81190825"/>
    <path d="M 333.49615478515625 589.6578979492188 C 332.5897216796875 588.429931640625 334.6304931640625 590.0335693359375 333.93902587890625 586.6766357421875 C 333.5622863769531 587.5498657226562 333.901611328125 586.4682006835938 335.1035461425781 586.80078125 C 336.0351257324219 587.785888671875 335.5137023925781 586.2572021484375 333.6245422363281 586.9472045898438 C 332.28619384765625 586.93212890625 333.0505065917969 589.0047607421875 333.49615478515625 589.6578979492188" stroke-width="0.0" fill="rgb(255, 255, 255)" opacity="0.82410294"/>
    <path d="M 533.4012451171875 582.0084838867188 C 530.965576171875 581.6427612304688 530.16064453125 579.454345703125 531.393310546875 579.2662353515625 C 533.3515625 577.9092407226562 531.824951171875 577.1242065429688 529.2977905273438 575.6881713867188 C 528.4082641601562 574.0599365234375 527.611572265625 574.9942016601562 526.01708984375 576.4695434570312 C 526.3375244140625 579.07421875 523.8287963867188 578.6114501953125 533.4012451171875 582.0084838867188" stroke-width="0.0" fill="rgb(255, 255, 255)" opacity="0.65724623"/>
    <path d="M 513.6244506835938 566.9197998046875 C 516.3700561523438 566.7581787109375 517.853759765625 568.923583984375 518.944580078125 567.7786254882812 C 518.9046630859375 565.3652954101562 519.251953125 563.52880859375 518.582275390625 564.0028076171875 C 519.24853515625 564.1008911132812 521.5642700195312 563.4881591796875 520.7432250976562 564.3316650390625 C 521.9946899414062 565.8662109375 519.3709716796875 568.206298828125 513.6244506835938 566.9197998046875" stroke-width="0.0" fill="rgb(255, 255, 255)" opacity="0.6884366"/>
    <path d="M 567.6474609375 486.7380676269531 C 568.4334716796875 487.5848388671875 567.8809814453125 488.2420959472656 568.307861328125 489.0322570800781 C 568.6505126953125 488.904541015625 566.88232421875 487.34405517578125 569.1184692382812 486.8588562011719 C 570.32763671875 487.6037902832031 571.7728271484375 488.9544677734375 570.6437377929688 488.7926025390625 C 572.4127807617188 488.2620544433594 569.3394165039062 490.79937744140625 567.6474609375 486.7380676269531" stroke-width="0.0" fill="rgb(255, 255, 255)" opacity="0.74199414"/>
    <path d="M 28.08831787109375 374.15966796875 C 27.90859603881836 375.2029724121094 26.30663299560547 376.764892578125 28.175052642822266 374.9481506347656 C 25.631315231323242 373.1200256347656 23.560394287109375 374.05828857421875 23.891515731811523 374.84906005859375 C 24.216245651245117 376.47698974609375 25.917377471923828 374.96331787109375 27.882822036743164 376.3829650878906 C 26.151891708374023 378.7969055175781 28.221073150634766 377.161376953125 28.08831787109375 374.15966796875" stroke-width="0.0" fill="rgb(255, 255, 255)" opacity="0.83231115"/>
    <path d="M 571.8980712890625 358.0997619628906 C 572.113525390625 356.7720031738281 572.1865844726562 355.1982727050781 571.3644409179688 356.1207580566406 C 569.7503051757812 359.1791687011719 567.0638427734375 357.51055908203125 567.3206176757812 358.1943054199219 C 567.3895874023438 357.3853454589844 566.0862426757812 358.74481201171875 567.8829345703125 359.29962158203125 C 567.76123046875 357.6063232421875 569.4901733398438 357.4606628417969 571.8980712890625 358.0997619628906" stroke-width="0.0" fill="rgb(255, 255, 255)" opacity="0.7507145"/>
    <path d="M 321.8187561035156 577.6878051757812 C 320.3181457519531 579.9483642578125 321.0538024902344 577.7154541015625 320.8182067871094 577.7350463867188 C 320.7259521484375 579.4246215820312 321.87274169921875 579.4866333007812 320.9583435058594 579.0285034179688 C 321.8822937011719 577.385498046875 321.728271484375 577.7891845703125 320.2610778808594 579.0292358398438 C 320.660888671875 578.8416748046875 318.4385986328125 580.6646118164062 321.8187561035156 577.6878051757812" stroke-width="0.0" fill="rgb(255, 255, 255)" opacity="0.84575814"/>
    <path d="M 531.9021606445312 577.94384765625 C 529.2835693359375 579.1968383789062 528.5884399414062 580.671630859375 529.1560668945312 582.7952880859375 C 528.9583740234375 581.8836669921875 528.9779052734375 581.2445068359375 529.7947998046875 583.6339721679688 C 529.2733764648438 581.31982421875 527.0784301757812 581.8557739257812 528.283203125 582.9120483398438 C 529.4911499023438 582.797119140625 527.9840087890625 584.5185546875 531.9021606445312 577.94384765625" stroke-width="0.0" fill="rgb(255, 255, 255)" opacity="0.7897883"/>
    <path d="M 66.28104400634766 590.416015625 C 68.30940246582031 590.2975463867188 66.0667953491211 589.7980346679688 67.31452178955078 588.8818969726562 C 65.98108673095703 587.9959716796875 67.67871856689453 589.257568359375 69.27590942382812 589.8195190429688 C 68.8484115600586 590.1912841796875 68.78125 588.7868041992188 67.88722229003906 589.9630126953125 C 68.85558319091797 589.1177978515625 67.41380310058594 590.5809326171875 66.28104400634766 590.416015625" stroke-width="0.0" fill="rgb(255, 255, 255)" opacity="0.8035996"/>
    <path d="M 596.9931640625 534.8934936523438 C 596.9695434570312 535.6035766601562 595.4362182617188 534.3501586914062 594.9710693359375 533.2086181640625 C 594.6268920898438 532.5753784179688 595.5325317382812 531.27734375 596.9242553710938 531.7279052734375 C 595.9005737304688 532.2320556640625 595.1661376953125 532.16064453125 596.7269897460938 531.072509765625 C 594.1679077148438 529.0999145507812 596.9527587890625 529.747314453125 596.9931640625 534.8934936523438" stroke-width="0.0" fill="rgb(255, 255, 255)" opacity="0.7238346"/>
    <path d="M 1.6461082696914673 312.7230224609375 C 3.270984411239624 315.4899597167969 0.63641756772995 316.96356201171875 -1.451426386833191 317.8763732910156 C -2.9736058712005615 320.6805725097656 -4.635208606719971 319.32220458984375 -6.622762203216553 321.0103454589844 C -4.2200608253479 320.5146789550781 -3.8726508617401123 320.792724609375 -5.071775436401367 320.73541259765625 C -6.025489330291748 321.9681396484375 -6.41934061050415 321.0925598144531 1.6461082696914673 312.7230224609375" stroke-width="0.0" fill="rgb(255, 255, 255)" opacity="0.75720114"/>
    <path d="M 343.50677490234375 568.1619262695312 C 345.5169982910156 568.0010375976562 346.2069091796875 565.5498046875 348.0397033691406 564.7974243164062 C 348.4588623046875 564.68994140625 347.3627624511719 563.697265625 348.6543273925781 564.2612915039062 C 348.1499938964844 564.4922485351562 347.0883483886719 562.1249389648438 348.2677001953125 561.4801635742188 C 350.7350158691406 559.0347290039062 351.68963623046875 556.521240234375 343.50677490234375 568.1619262695312" stroke-width="0.0" fill="rgb(255, 255, 255)" opacity="0.65933836"/>
    <path d="M 313.4739685058594 598.5477905273438 C 312.6910095214844 596.8145751953125 310.6335144042969 594.866455078125 310.130126953125 596.495849609375 C 309.6340026855469 593.7734985351562 310.2723083496094 592.6052856445312 311.992431640625 592.7105712890625 C 314.37908935546875 591.3233642578125 312.63372802734375 590.5392456054688 314.0881042480469 592.7639770507812 C 315.5696105957031 593.498779296875 315.73736572265625 594.564697265625 313.4739685058594 598.5477905273438" stroke-width="0.0" fill="rgb(255, 255, 255)" opacity="0.6868672"/>
    <path d="M -6.5865478515625 49.28314971923828 C 3.3349130153656006 46.887271881103516 3.1206471920013428 46.623695373535156 -9.362911224365234 50.41099166870117 C -2.515277147293091 63.08539962768555 -0.809474766254425 63.8007926940918 0.10924629867076874 66.78593444824219 C 16.20236587524414 57.98074722290039 19.202390670776367 54.74188995361328 28.303403854370117 49.40509796142578 C 24.041603088378906 46.14000701904297 17.74150276184082 51.45375442504883 -6.5865478515625 49.28314971923828" stroke-width="0.0" fill="rgb(19, 19, 19)" opacity="1.0"/>
    <path d="M 6.185278415679932 381.70672607421875 C 8.422714233398438 383.2611999511719 6.021737098693848 384.661376953125 3.242215633392334 386.6197814941406 C 2.534816026687622 389.2640380859375 1.1339813470840454 387.9840393066406 2.377629280090332 387.10797119140625 C 4.756267547607422 386.4978942871094 4.245921611785889 383.24981689453125 3.0411529541015625 382.1784362792969 C 4.630189418792725 383.73577880859375 6.219455718994141 383.32427978515625 6.185278415679932 381.70672607421875" stroke-width="0.0" fill="rgb(255, 255, 255)" opacity="0.6786889"/>
    <path d="M 542.8021850585938 567.094482421875 C 540.3609619140625 566.9356689453125 540.9224853515625 566.5818481445312 541.1074829101562 567.6427001953125 C 542.5839233398438 567.5682983398438 544.466796875 565.762451171875 541.9856567382812 564.6390991210938 C 543.648681640625 563.6804809570312 541.4608764648438 564.5831298828125 539.7343139648438 567.0181274414062 C 537.1041870117188 566.6046142578125 536.3759155273438 569.4109497070312 542.8021850585938 567.094482421875" stroke-width="0.0" fill="rgb(255, 255, 255)" opacity="0.70235145"/>
    <path d="M 572.4723510742188 529.6337890625 C 574.095703125 528.6180419921875 573.7405395507812 527.9219970703125 571.540771484375 530.8016357421875 C 569.4578247070312 532.8699951171875 572.39111328125 534.1383056640625 575.2222900390625 534.0628662109375 C 574.296142578125 535.8917846679688 575.3270874023438 536.5896606445312 577.8460083007812 535.761962890625 C 578.3134155273438 538.6361694335938 577.0020141601562 537.4102783203125 572.4723510742188 529.6337890625" stroke-width="0.0" fill="rgb(255, 255, 255)" opacity="0.624766"/>
    <path d="M 526.031982421875 563.8627319335938 C 525.8604125976562 564.240478515625 524.5724487304688 563.5899658203125 525.96435546875 564.5297241210938 C 524.0772094726562 563.1558227539062 525.0433959960938 563.9762573242188 523.4228515625 565.0979614257812 C 524.4908447265625 564.3701171875 525.8172607421875 562.5094604492188 525.1559448242188 562.6995849609375 C 527.49169921875 564.0994262695312 525.4320068359375 562.4496459960938 526.031982421875 563.8627319335938" stroke-width="0.0" fill="rgb(255, 255, 255)" opacity="0.87503165"/>
    <path d="M 14.345843315124512 394.07989501953125 C 17.107257843017578 392.93341064453125 15.770968437194824 392.8662414550781 13.567320823669434 394.9541320800781 C 11.579680442810059 397.4948425292969 9.337370872497559 395.6988830566406 12.94433879852295 393.7712707519531 C 15.042835235595703 395.06121826171875 16.072858810424805 393.44476318359375 16.999473571777344 393.44195556640625 C 17.92130470275879 392.1697692871094 16.1301326751709 394.46331787109375 14.345843315124512 394.07989501953125" stroke-width="0.0" fill="rgb(255, 255, 255)" opacity="0.6944295"/>
    <path d="M 590.5570068359375 585.349853515625 C 592.2774047851562 582.3096313476562 589.517333984375 581.053955078125 587.466064453125 579.431884765625 C 586.9697875976562 579.3351440429688 586.9414672851562 578.4122314453125 586.3787841796875 576.3875732421875 C 586.9533081054688 575.6843872070312 587.531494140625 575.7258911132812 587.2739868164062 575.1640014648438 C 586.5797119140625 577.5671997070312 585.3485107421875 575.9047241210938 590.5570068359375 585.349853515625" stroke-width="0.0" fill="rgb(255, 255, 255)" opacity="0.6581231"/>
    <path d="M 579.7315673828125 357.0863037109375 C 580.3961791992188 358.4945373535156 583.185302734375 360.13934326171875 584.718505859375 361.29351806640625 C 584.9998168945312 360.7950439453125 586.019775390625 363.5400390625 582.9678344726562 363.1467590332031 C 580.7545166015625 361.9904479980469 581.5026245117188 360.9927978515625 579.6473388671875 360.5498046875 C 582.228759765625 358.4048767089844 583.2772827148438 356.4513244628906 579.7315673828125 357.0863037109375" stroke-width="0.0" fill="rgb(255, 255, 255)" opacity="0.6972413"/>
    <path d="M 529.282470703125 566.164794921875 C 529.0940551757812 568.5106811523438 530.8700561523438 569.8847045898438 530.5437622070312 571.0900268554688 C 530.543212890625 570.566650390625 530.753173828125 568.6222534179688 530.6168823242188 570.288330078125 C 532.22216796875 571.64599609375 534.1092529296875 572.5808715820312 534.2994384765625 572.688232421875 C 531.6600341796875 571.199462890625 529.6005859375 570.6870727539062 529.282470703125 566.164794921875" stroke-width="0.0" fill="rgb(255, 255, 255)" opacity="0.8148285"/>
    <path d="M 30.729568481445312 43.896541595458984 C 30.122783660888672 45.01457977294922 31.676240921020508 42.49962615966797 30.7559757232666 43.006900787353516 C 33.48224639892578 42.91144561767578 32.48695755004883 43.28592300415039 33.861698150634766 42.94099807739258 C 34.169715881347656 44.702735900878906 34.43637466430664 43.046485900878906 33.78672790527344 44.18593215942383 C 35.51700973510742 43.86213684082031 33.80550003051758 44.00886917114258 30.729568481445312 43.896541595458984" stroke-width="0.0" fill="rgb(255, 255, 255)" opacity="0.82853603"/>
    <path d="M 594.014404296875 485.0512390136719 C 593.5520629882812 484.66998291015625 595.0855712890625 482.6822509765625 595.1995239257812 481.97528076171875 C 592.85693359375 482.09051513671875 593.6815795898438 481.4681701660156 592.1654663085938 483.7417907714844 C 592.8619995117188 482.3553771972656 592.5211181640625 482.51129150390625 595.0833129882812 483.8959045410156 C 593.1737060546875 483.48651123046875 591.7378540039062 484.8291931152344 594.014404296875 485.0512390136719" stroke-width="0.0" fill="rgb(255, 255, 255)" opacity="0.7471912"/>
    <path d="M 294.8089599609375 593.4832763671875 C 295.315673828125 590.81005859375 296.2231140136719 590.3485717773438 295.4031066894531 589.8176879882812 C 294.82330322265625 590.8161010742188 294.6192626953125 589.2455444335938 294.8460998535156 590.7627563476562 C 294.6664123535156 589.3187866210938 295.7912292480469 587.8325805664062 296.1463317871094 589.7433471679688 C 296.6294860839844 588.4282836914062 296.42877197265625 587.8895263671875 294.8089599609375 593.4832763671875" stroke-width="0.0" fill="rgb(255, 255, 255)" opacity="0.78642243"/>
    <path d="M 273.3077392578125 591.7227172851562 C 272.6075744628906 592.3673095703125 274.23345947265625 592.1112670898438 272.58343505859375 590.66357421875 C 273.5520935058594 593.0160522460938 273.8263244628906 591.6819458007812 271.9322204589844 590.69970703125 C 273.440185546875 587.4498901367188 273.67974853515625 586.2947387695312 271.6122741699219 584.8727416992188 C 270.0685119628906 585.0435180664062 270.8630065917969 585.0127563476562 273.3077392578125 591.7227172851562" stroke-width="0.0" fill="rgb(255, 255, 255)" opacity="0.68686044"/>
    <path d="M 555.4005126953125 478.8948974609375 C 553.248046875 478.80657958984375 554.1165771484375 479.69500732421875 555.2284545898438 478.88238525390625 C 554.7288818359375 478.77587890625 555.2863159179688 481.2367858886719 554.9406127929688 482.0489807128906 C 552.5118408203125 481.654052734375 555.185546875 480.5077209472656 553.697509765625 479.3741760253906 C 551.164306640625 478.86773681640625 553.1165161132812 480.03973388671875 555.4005126953125 478.8948974609375" stroke-width="0.0" fill="rgb(255, 255, 255)" opacity="0.7690319"/>
    <path d="M 575.3516235351562 397.9093933105469 C 573.101806640625 399.10406494140625 575.5216674804688 398.0683288574219 576.1805419921875 396.40045166015625 C 575.2554931640625 398.3368225097656 573.8181762695312 398.0459899902344 575.7767333984375 396.9083251953125 C 576.9909057617188 396.5540466308594 575.0716552734375 398.8839111328125 576.2637939453125 397.0499572753906 C 577.5238037109375 396.58966064453125 577.3870239257812 398.7598876953125 575.3516235351562 397.9093933105469" stroke-width="0.0" fill="rgb(255, 255, 255)" opacity="0.81455165"/>
    <path d="M 557.8870239257812 470.5509338378906 C 557.7786865234375 469.4354553222656 558.8224487304688 470.1066589355469 560.1925659179688 469.9937744140625 C 558.9562377929688 467.017578125 561.619384765625 467.7172546386719 561.579833984375 469.3087463378906 C 562.7108154296875 466.8890075683594 561.9884643554688 466.9480895996094 559.2723999023438 467.0311584472656 C 557.7591552734375 465.5982360839844 560.6432495117188 466.66973876953125 557.8870239257812 470.5509338378906" stroke-width="0.0" fill="rgb(255, 255, 255)" opacity="0.7267257"/>
    <path d="M 24.27571678161621 67.99182891845703 C 2.8347129821777344 60.912452697753906 6.488681793212891 53.64315414428711 6.927587509155273 53.58523941040039 C -6.4859724044799805 50.456382751464844 -6.387054920196533 55.53144454956055 -3.9173052310943604 66.22874450683594 C -2.028978109359741 68.96283721923828 -2.873491048812866 68.50221252441406 -8.008565902709961 72.26158142089844 C 9.26654052734375 74.56199645996094 10.914697647094727 71.90565490722656 24.27571678161621 67.99182891845703" stroke-width="0.0" fill="rgb(0, 0, 0)" opacity="0.9784898"/>
    <path d="M 566.953857421875 543.439697265625 C 568.2314453125 546.4508056640625 568.7293090820312 545.0431518554688 567.684814453125 545.0156860351562 C 566.3468017578125 542.6857299804688 567.6311645507812 540.2485961914062 567.3015747070312 537.8049926757812 C 565.8097534179688 535.8513793945312 565.7308959960938 537.6680297851562 566.2650146484375 538.13916015625 C 567.6915893554688 537.8483276367188 567.55126953125 535.560302734375 566.953857421875 543.439697265625" stroke-width="0.0" fill="rgb(255, 255, 255)" opacity="0.75937444"/>
    <path d="M 42.77512741088867 590.5397338867188 C 44.69143295288086 591.2241821289062 45.53525924682617 591.627197265625 47.886775970458984 592.6503295898438 C 48.43600082397461 595.1953735351562 50.58323669433594 595.7437133789062 51.380714416503906 594.3502807617188 C 50.673213958740234 594.644287109375 50.902671813964844 594.3953857421875 52.283714294433594 594.983154296875 C 53.766029357910156 596.7507934570312 53.89845657348633 595.08154296875 42.77512741088867 590.5397338867188" stroke-width="0.0" fill="rgb(255, 255, 255)" opacity="0.69991964"/>
    <path d="M 3.184075117111206 336.816162109375 C 2.02717924118042 338.2539367675781 3.660895347595215 338.7542724609375 6.375329494476318 337.06549072265625 C 6.052858829498291 338.32427978515625 4.100286960601807 338.30377197265625 4.901208877563477 337.2566223144531 C 7.742835998535156 337.17864990234375 7.316352367401123 336.9469909667969 4.847054958343506 337.88787841796875 C 5.488649845123291 337.72802734375 7.784060001373291 337.04583740234375 3.184075117111206 336.816162109375" stroke-width="0.0" fill="rgb(255, 255, 255)" opacity="0.7414594"/>
    <path d="M 11.513303756713867 430.3882141113281 C 12.177985191345215 429.0856628417969 12.727330207824707 430.26959228515625 11.972085952758789 430.4796447753906 C 13.480456352233887 428.8132629394531 14.8653564453125 426.6050720214844 16.729284286499023 425.22802734375 C 16.890283584594727 424.1846923828125 16.75083351135254 425.2214050292969 17.276235580444336 423.81500244140625 C 17.67960548400879 421.79736328125 17.965770721435547 424.4144592285156 11.513303756713867 430.3882141113281" stroke-width="0.0" fill="rgb(255, 255, 255)" opacity="0.74503195"/>
    <path d="M 582.23388671875 395.2199401855469 C 584.3563232421875 395.6161193847656 584.2955322265625 393.3755187988281 583.7155151367188 391.9669494628906 C 582.8042602539062 392.36712646484375 583.1067504882812 389.68426513671875 581.1776123046875 388.7626647949219 C 580.5597534179688 389.70574951171875 581.2531127929688 391.6365966796875 580.9033203125 391.8853454589844 C 580.31591796875 391.5714111328125 578.3701171875 393.45770263671875 582.23388671875 395.2199401855469" stroke-width="0.0" fill="rgb(255, 255, 255)" opacity="0.6806368"/>
    <path d="M 357.3563232421875 570.1710815429688 C 356.3786926269531 568.0298461914062 352.9643249511719 568.6915893554688 351.8520812988281 570.8400268554688 C 349.9767150878906 572.2251586914062 348.8069763183594 573.304443359375 351.4143981933594 574.5325927734375 C 351.7913513183594 573.400146484375 351.0957946777344 574.3099975585938 350.9942932128906 575.9130249023438 C 350.8544921875 576.9105834960938 351.4375915527344 576.1595458984375 357.3563232421875 570.1710815429688" stroke-width="0.0" fill="rgb(255, 255, 255)" opacity="0.6337356"/>
    <path d="M 591.359619140625 368.1805725097656 C 590.9691772460938 368.13751220703125 589.1657104492188 368.9417724609375 590.6340942382812 368.7353210449219 C 588.0658569335938 368.16046142578125 584.991455078125 370.0277404785156 588.0552978515625 369.9266357421875 C 587.6773681640625 367.8198547363281 588.79736328125 365.44482421875 586.8698120117188 367.7602844238281 C 584.8128662109375 369.3246154785156 585.9671020507812 369.404541015625 591.359619140625 368.1805725097656" stroke-width="0.0" fill="rgb(255, 255, 255)" opacity="0.70989853"/>
    <path d="M 593.5838012695312 460.24957275390625 C 593.211669921875 459.27508544921875 590.9799194335938 461.48919677734375 590.5748291015625 460.9800720214844 C 593.9797973632812 460.2120056152344 592.5227661132812 458.9641418457031 593.1791381835938 460.0552673339844 C 594.3119506835938 460.9157409667969 594.8566284179688 461.5113830566406 594.4066162109375 461.26800537109375 C 595.73779296875 461.799072265625 595.4552612304688 461.97027587890625 593.5838012695312 460.24957275390625" stroke-width="0.0" fill="rgb(255, 255, 255)" opacity="0.78762376"/>
    <path d="M 0.9398623108863831 364.8556213378906 C 1.4624452590942383 366.0442199707031 0.585607647895813 364.3175048828125 1.518024206161499 366.2554626464844 C 0.6595662236213684 367.1490783691406 2.5526294708251953 368.307861328125 1.4246035814285278 367.27996826171875 C 0.8306450247764587 368.9632263183594 1.6177037954330444 368.1176452636719 1.2336517572402954 365.9382019042969 C 2.582838535308838 368.5561828613281 3.0160136222839355 370.040771484375 0.9398623108863831 364.8556213378906" stroke-width="0.0" fill="rgb(255, 255, 255)" opacity="0.8390638"/>
    <path d="M 580.6271362304688 376.52606201171875 C 581.920166015625 375.9922790527344 580.3851318359375 376.6767883300781 581.2574462890625 377.8403015136719 C 583.3794555664062 378.4945068359375 583.7611694335938 377.0400085449219 582.2193603515625 376.8687438964844 C 582.1253051757812 376.6645812988281 581.63916015625 375.3641357421875 582.0025024414062 375.760009765625 C 583.5438842773438 374.262451171875 585.1189575195312 373.726806640625 580.6271362304688 376.52606201171875" stroke-width="0.0" fill="rgb(255, 255, 255)" opacity="0.7566279"/>
    <path d="M 597.7080688476562 349.6097717285156 C 600.0972290039062 348.1459655761719 598.48779296875 345.6672058105469 599.2659912109375 344.1300048828125 C 601.8927612304688 342.796630859375 603.875 344.8713073730469 601.467041015625 343.1817932128906 C 602.21484375 344.09967041015625 602.19140625 345.8607482910156 602.4459228515625 345.13372802734375 C 603.0844116210938 343.6207580566406 605.0029907226562 342.7745056152344 597.7080688476562 349.6097717285156" stroke-width="0.0" fill="rgb(255, 255, 255)" opacity="0.8288493"/>
    <path d="M 598.1357421875 346.3103332519531 C 599.0490112304688 346.7696228027344 598.1387939453125 346.3445129394531 597.699951171875 346.0866394042969 C 599.16259765625 345.91082763671875 600.8018798828125 345.8160400390625 599.409423828125 344.30975341796875 C 596.7545776367188 344.5205383300781 598.0855712890625 343.9997253417969 601.3990478515625 344.9525146484375 C 599.8103637695312 346.66680908203125 597.3801879882812 348.0303039550781 598.1357421875 346.3103332519531" stroke-width="0.0" fill="rgb(255, 255, 255)" opacity="0.83935374"/>
    <path d="M 39.8990364074707 587.2177124023438 C 40.00944519042969 586.0653076171875 40.37485885620117 585.2957763671875 39.91606903076172 586.8754272460938 C 41.984901428222656 588.6015014648438 40.44103240966797 590.218017578125 40.7984504699707 589.774658203125 C 38.622589111328125 590.9358520507812 40.75874328613281 591.2874755859375 42.23556900024414 591.1039428710938 C 43.848453521728516 591.1171875 43.684791564941406 589.015869140625 39.8990364074707 587.2177124023438" stroke-width="0.0" fill="rgb(255, 255, 255)" opacity="0.71497965"/>
    <path d="M 24.156774520874023 56.80521011352539 C 23.892446517944336 57.41659927368164 23.23603057861328 57.68690872192383 7.907261371612549 59.15586471557617 C 9.587529182434082 52.36113357543945 11.549473762512207 47.2723274230957 40.364219665527344 48.60186767578125 C 42.46805191040039 47.82932662963867 42.15080642700195 58.528358459472656 39.635467529296875 58.43256378173828 C 20.12975311279297 55.8641242980957 21.710735321044922 58.66218948364258 24.156774520874023 56.80521011352539" stroke-width="0.0" fill="rgb(1, 1, 1)" opacity="0.9757456"/>
    <path d="M 531.9384155273438 584.444580078125 C 531.760986328125 583.400146484375 532.0101928710938 584.8699340820312 531.9966430664062 586.8524169921875 C 533.496826171875 587.343017578125 532.3438110351562 586.8937377929688 534.6077880859375 589.1910400390625 C 533.4810180664062 589.5302734375 535.5479125976562 588.4239501953125 537.0911254882812 589.38671875 C 538.6696166992188 591.7847900390625 540.881103515625 593.0398559570312 531.9384155273438 584.444580078125" stroke-width="0.0" fill="rgb(255, 255, 255)" opacity="0.6935608"/>
    <path d="M 311.5096740722656 591.0764770507812 C 313.86444091796875 592.811767578125 312.7540283203125 594.679443359375 311.5595703125 595.7173461914062 C 310.2247009277344 593.4676513671875 310.89697265625 594.1688842773438 308.0908203125 593.963134765625 C 306.6539001464844 590.8404541015625 304.7726135253906 592.3656616210938 302.12811279296875 591.9522094726562 C 301.152587890625 590.0717163085938 302.00311279296875 588.7311401367188 311.5096740722656 591.0764770507812" stroke-width="0.0" fill="rgb(255, 255, 255)" opacity="0.6564366"/>
    <path d="M 75.51945495605469 591.6138305664062 C 77.98676300048828 594.26220703125 76.86563873291016 593.0411376953125 79.44293212890625 591.4277954101562 C 76.46585845947266 589.7828369140625 77.03512573242188 592.1896362304688 76.94721984863281 593.445556640625 C 76.49199676513672 592.32861328125 78.58291625976562 595.0250244140625 79.01216888427734 594.9007568359375 C 78.17376708984375 595.01513671875 80.89740753173828 596.857177734375 75.51945495605469 591.6138305664062" stroke-width="0.0" fill="rgb(255, 255, 255)" opacity="0.711666"/>
    <path d="M 558.377685546875 565.6251831054688 C 558.234375 564.2213134765625 558.4168701171875 565.5703735351562 557.736083984375 564.9893798828125 C 555.9970703125 564.9735107421875 557.8255004882812 562.8602905273438 556.317138671875 562.5111694335938 C 558.9143676757812 563.7537841796875 561.0020751953125 562.847900390625 559.6930541992188 561.9332275390625 C 559.5091552734375 562.1961669921875 556.8338012695312 564.1903076171875 558.377685546875 565.6251831054688" stroke-width="0.0" fill="rgb(255, 255, 255)" opacity="0.740137"/>
    <path d="M 565.377197265625 364.0426330566406 C 564.1653442382812 363.2783203125 564.5676879882812 361.9994812011719 562.7711181640625 361.79156494140625 C 560.8724975585938 363.55023193359375 562.3195190429688 364.3514709472656 563.64697265625 364.0788879394531 C 563.802001953125 362.99322509765625 562.263916015625 364.2137756347656 563.91650390625 362.9046325683594 C 563.137939453125 363.26275634765625 562.7669677734375 364.3543701171875 565.377197265625 364.0426330566406" stroke-width="0.0" fill="rgb(255, 255, 255)" opacity="0.7371537"/>
    <path d="M 587.0889282226562 371.9082336425781 C 588.2559814453125 371.9966735839844 589.85205078125 374.07427978515625 588.7836303710938 376.7515563964844 C 589.5648803710938 375.96832275390625 588.5691528320312 377.2513732910156 589.5879516601562 376.2376403808594 C 587.4845581054688 377.959228515625 588.869873046875 376.7333679199219 586.7908325195312 375.20770263671875 C 587.3770141601562 374.1904296875 586.820068359375 372.0031433105469 587.0889282226562 371.9082336425781" stroke-width="0.0" fill="rgb(255, 255, 255)" opacity="0.7149617"/>
    <path d="M 502.6566162109375 595.55517578125 C 502.6212463378906 595.8492431640625 501.0740661621094 596.406005859375 502.10406494140625 595.7771606445312 C 501.2825012207031 595.2508544921875 500.150146484375 594.8611450195312 501.6736755371094 595.6170654296875 C 502.4014892578125 594.868896484375 500.4035339355469 595.7210693359375 502.5894775390625 595.9338989257812 C 501.42694091796875 597.0028686523438 502.7048034667969 595.6557006835938 502.6566162109375 595.55517578125" stroke-width="0.0" fill="rgb(255, 255, 255)" opacity="0.79759634"/>
    <path d="M 559.5114135742188 399.8764953613281 C 560.516357421875 396.8589782714844 561.1751708984375 397.4771728515625 563.3640747070312 399.9507141113281 C 565.006103515625 398.89569091796875 563.834228515625 400.1351318359375 561.4190063476562 400.025634765625 C 560.6387939453125 399.6810607910156 558.234375 400.16070556640625 556.9397583007812 399.352294921875 C 557.1011352539062 398.4959411621094 555.0371704101562 398.07989501953125 559.5114135742188 399.8764953613281" stroke-width="0.0" fill="rgb(255, 255, 255)" opacity="0.7764055"/>
    <path d="M 579.375244140625 372.8049011230469 C 581.3193969726562 374.47088623046875 579.3693237304688 375.7177734375 577.9314575195312 374.6681213378906 C 577.83837890625 374.15228271484375 577.9278564453125 372.28302001953125 578.011962890625 373.0509948730469 C 578.9388427734375 372.7174377441406 578.332275390625 372.9001159667969 577.8532104492188 373.19622802734375 C 579.8057250976562 372.5116271972656 577.810302734375 373.5742492675781 579.375244140625 372.8049011230469" stroke-width="0.0" fill="rgb(255, 255, 255)" opacity="0.7773237"/>
    <path d="M 361.3461608886719 571.499755859375 C 360.3799133300781 572.492431640625 358.0472106933594 572.6099243164062 359.3785095214844 575.1448974609375 C 358.4764709472656 574.9056396484375 357.56719970703125 574.8753051757812 358.0527648925781 576.101318359375 C 357.21405029296875 577.083251953125 359.3591613769531 579.2400512695312 361.29400634765625 580.2508544921875 C 362.2684631347656 581.1725463867188 359.9843444824219 579.876220703125 361.3461608886719 571.499755859375" stroke-width="0.0" fill="rgb(255, 255, 255)" opacity="0.64580905"/>
    <path d="M -1.1791036128997803 42.828895568847656 C 0.38041922450065613 42.05390930175781 -0.4147854149341583 42.74754333496094 -2.1193642616271973 42.51586151123047 C -3.263014793395996 41.95779037475586 -0.7426522970199585 40.3629150390625 0.5370548367500305 41.90297317504883 C -0.30547216534614563 40.96481704711914 -0.06944365799427032 40.44598388671875 0.3252168297767639 41.284950256347656 C -0.37693458795547485 43.15065002441406 -0.34676098823547363 44.47916030883789 -1.1791036128997803 42.828895568847656" stroke-width="0.0" fill="rgb(255, 255, 255)" opacity="0.8426628"/>
    <path d="M 568.8143920898438 447.6781921386719 C 566.0664672851562 449.54290771484375 567.9338989257812 451.7113342285156 565.54638671875 451.017822265625 C 563.652099609375 451.92901611328125 564.2802124023438 451.4617919921875 565.4639282226562 451.1410827636719 C 566.6693115234375 451.4532470703125 568.5055541992188 449.88592529296875 566.6741943359375 450.72650146484375 C 568.7116088867188 448.7155456542969 569.519775390625 450.4848937988281 568.8143920898438 447.6781921386719" stroke-width="0.0" fill="rgb(255, 255, 255)" opacity="0.7921774"/>
    <path d="M 370.99188232421875 579.805908203125 C 369.2438049316406 581.2249755859375 366.617919921875 583.2435302734375 368.6223449707031 584.234375 C 369.5256652832031 581.7611083984375 371.97222900390625 582.8146362304688 372.387939453125 584.0760498046875 C 375.4173889160156 583.7388916015625 373.6937255859375 584.8215942382812 375.59503173828125 583.0753784179688 C 377.15283203125 582.9937133789062 374.8917541503906 580.3500366210938 370.99188232421875 579.805908203125" stroke-width="0.0" fill="rgb(255, 255, 255)" opacity="0.6408709"/>
    <path d="M 22.303781509399414 377.1449279785156 C 20.871784210205078 374.7388000488281 23.693326950073242 377.6071472167969 25.344966888427734 374.2467346191406 C 24.524568557739258 373.8021240234375 25.82785415649414 374.73077392578125 28.09436798095703 373.7654724121094 C 28.251951217651367 373.1675109863281 28.62168312072754 374.7405090332031 27.91608428955078 373.6771545410156 C 30.49979019165039 374.3248596191406 29.053878784179688 375.5291748046875 22.303781509399414 377.1449279785156" stroke-width="0.0" fill="rgb(255, 255, 255)" opacity="0.697596"/>
    <path d="M 48.04936981201172 596.0005493164062 C 47.60768508911133 598.0245361328125 49.55682373046875 596.3917846679688 48.39952087402344 597.421142578125 C 48.974586486816406 595.8917236328125 50.860389709472656 595.0663452148438 51.7757568359375 595.4855346679688 C 52.82954025268555 595.3707275390625 52.46530532836914 595.2039184570312 49.89567947387695 595.5263671875 C 49.95633316040039 596.9362182617188 51.64227294921875 595.8477172851562 48.04936981201172 596.0005493164062" stroke-width="0.0" fill="rgb(255, 255, 255)" opacity="0.8138813"/>
    <path d="M 574.6148071289062 553.6998901367188 C 576.0870971679688 552.1935424804688 576.1885986328125 551.3167114257812 576.2874145507812 552.7429809570312 C 575.1614379882812 550.6759643554688 574.05810546875 549.7355346679688 573.1798706054688 548.7883911132812 C 574.7777709960938 550.2556762695312 575.474609375 551.658935546875 576.66748046875 552.9813232421875 C 575.6422729492188 551.2682495117188 575.0076904296875 553.60302734375 574.6148071289062 553.6998901367188" stroke-width="0.0" fill="rgb(255, 255, 255)" opacity="0.7906158"/>
    <path d="M 555.5408325195312 553.1603393554688 C 559.234375 552.6886596679688 557.5819702148438 553.9796752929688 556.8219604492188 552.572509765625 C 554.7943115234375 549.7096557617188 554.075439453125 551.0325317382812 555.04052734375 549.9931030273438 C 554.2551879882812 547.7548828125 552.193359375 547.76708984375 551.6593627929688 547.8919677734375 C 549.4002075195312 547.7202758789062 547.5109252929688 549.5678100585938 555.5408325195312 553.1603393554688" stroke-width="0.0" fill="rgb(255, 255, 255)" opacity="0.64558196"/>
    <path d="M 503.1209411621094 584.1611938476562 C 502.71441650390625 582.4776611328125 503.21978759765625 580.8339233398438 502.85821533203125 579.341552734375 C 504.0505676269531 581.1065673828125 506.4283752441406 581.15185546875 504.6481018066406 582.1195068359375 C 505.0513000488281 582.8869018554688 504.366943359375 581.6368408203125 507.0352783203125 579.4666137695312 C 507.0320739746094 581.3828735351562 507.84326171875 584.4225463867188 503.1209411621094 584.1611938476562" stroke-width="0.0" fill="rgb(255, 255, 255)" opacity="0.682953"/>
    <path d="M 16.89784049987793 318.72760009765625 C 16.652860641479492 316.966796875 17.04462242126465 316.93023681640625 16.91716957092285 318.40814208984375 C 18.557090759277344 319.5863037109375 18.478078842163086 321.70880126953125 21.213441848754883 318.1993103027344 C 21.352313995361328 317.8869934082031 18.96044921875 317.8208312988281 19.973215103149414 318.4914245605469 C 20.379362106323242 319.1172180175781 18.222604751586914 319.13134765625 16.89784049987793 318.72760009765625" stroke-width="0.0" fill="rgb(255, 255, 255)" opacity="0.73723257"/>
    <path d="M 584.984619140625 408.4266052246094 C 584.8243408203125 409.4444885253906 584.8150634765625 410.35943603515625 584.5398559570312 411.68829345703125 C 584.3275756835938 412.1899108886719 585.7416381835938 412.3125 584.945556640625 415.4048156738281 C 585.0374755859375 414.1849365234375 585.159423828125 416.4929504394531 585.1905517578125 416.096923828125 C 582.88134765625 415.5906982421875 584.1409301757812 417.203369140625 584.984619140625 408.4266052246094" stroke-width="0.0" fill="rgb(255, 255, 255)" opacity="0.6892242"/>
    <path d="M 591.1932373046875 351.88165283203125 C 589.3665771484375 350.1676940917969 587.9432983398438 350.7168884277344 587.6253051757812 351.929443359375 C 587.8110961914062 349.73138427734375 589.1771850585938 349.17938232421875 589.095703125 349.79827880859375 C 588.6005249023438 349.8875427246094 587.5513305664062 349.5736083984375 586.168701171875 347.8313293457031 C 586.8399047851562 348.2378234863281 585.6713256835938 348.1533508300781 591.1932373046875 351.88165283203125" stroke-width="0.0" fill="rgb(255, 255, 255)" opacity="0.74518037"/>
    <path d="M 78.79906463623047 586.6555786132812 C 79.14827728271484 586.3106079101562 80.91349029541016 585.3980102539062 79.30250549316406 586.382568359375 C 79.74591827392578 586.6594848632812 77.1363296508789 586.183837890625 76.56060028076172 585.8045043945312 C 76.57535552978516 585.9898681640625 76.32279205322266 585.96875 75.16128540039062 586.0333251953125 C 74.15374755859375 586.456787109375 76.02330780029297 585.5208129882812 78.79906463623047 586.6555786132812" stroke-width="0.0" fill="rgb(255, 255, 255)" opacity="0.7767735"/>
    <path d="M 499.9260559082031 557.4478149414062 C 502.1199951171875 554.8953247070312 503.90582275390625 555.54541015625 502.81048583984375 558.4448852539062 C 504.6976318359375 559.9540405273438 504.458984375 561.4188232421875 505.52362060546875 558.4996337890625 C 506.2767028808594 560.6008911132812 507.3799133300781 561.4076538085938 506.1518249511719 559.9151611328125 C 506.0050048828125 563.5443725585938 504.9533996582031 562.7661743164062 499.9260559082031 557.4478149414062" stroke-width="0.0" fill="rgb(255, 255, 255)" opacity="0.64426625"/>
    <path d="M 301.4710388183594 593.6625366210938 C 299.2952880859375 592.9071044921875 299.6628723144531 591.6356201171875 300.4956970214844 591.998779296875 C 302.2474060058594 593.7222290039062 303.2303161621094 594.8822021484375 303.2862243652344 594.9767456054688 C 302.3170166015625 597.5538330078125 301.54827880859375 595.1485595703125 303.5996398925781 597.7418823242188 C 302.8443298339844 596.3058471679688 302.9336853027344 598.2368774414062 301.4710388183594 593.6625366210938" stroke-width="0.0" fill="rgb(255, 255, 255)" opacity="0.71490824"/>
    <path d="M 582.1278686523438 539.9384155273438 C 583.3428955078125 538.0059814453125 583.489013671875 536.2783813476562 583.4829711914062 536.9595336914062 C 582.0422973632812 536.919677734375 583.2681884765625 535.3580322265625 583.5708618164062 536.067138671875 C 584.6170043945312 535.4407348632812 584.4336547851562 536.8157958984375 584.2599487304688 535.9376831054688 C 584.9152221679688 535.3457641601562 583.8242797851562 536.1475219726562 582.1278686523438 539.9384155273438" stroke-width="0.0" fill="rgb(255, 255, 255)" opacity="0.7774917"/>
    <path d="M 566.3462524414062 561.1884765625 C 566.95654296875 560.461181640625 568.2720947265625 559.9044799804688 569.6486206054688 557.5905151367188 C 571.2127075195312 559.3590698242188 573.850341796875 561.030029296875 575.952392578125 562.4052734375 C 573.7971801757812 561.1697998046875 574.3357543945312 561.2354736328125 576.4072875976562 559.2622680664062 C 574.3668212890625 558.0279541015625 571.478759765625 556.2431640625 566.3462524414062 561.1884765625" stroke-width="0.0" fill="rgb(255, 255, 255)" opacity="0.6431651"/>
    <path d="M 569.4304809570312 582.877685546875 C 567.56591796875 582.638427734375 565.6552734375 581.3758544921875 564.6537475585938 584.388427734375 C 563.5482177734375 583.0609130859375 564.5140380859375 582.7555541992188 562.525390625 583.1036987304688 C 561.4400024414062 582.3711547851562 563.0165405273438 583.8956298828125 561.8077392578125 582.1820068359375 C 562.036865234375 582.350830078125 562.0911865234375 581.1832275390625 569.4304809570312 582.877685546875" stroke-width="0.0" fill="rgb(255, 255, 255)" opacity="0.74197406"/>
    <path d="M 594.884765625 582.9932250976562 C 596.3944091796875 584.8306884765625 596.6129150390625 584.1548461914062 597.2647705078125 585.9776611328125 C 596.5423583984375 585.692138671875 597.322021484375 588.1275024414062 596.7305297851562 587.7552490234375 C 598.38525390625 588.5657348632812 598.0777587890625 587.64599609375 597.8547973632812 583.82666015625 C 596.0654296875 584.423583984375 597.8699951171875 586.1946411132812 594.884765625 582.9932250976562" stroke-width="0.0" fill="rgb(255, 255, 255)" opacity="0.76484936"/>
    <path d="M 598.9968872070312 547.0031127929688 C 601.3492431640625 549.3381958007812 601.7792358398438 551.1038818359375 603.9512939453125 549.694580078125 C 603.0999145507812 548.4500732421875 601.056640625 549.2112426757812 600.5121459960938 550.7808227539062 C 601.480224609375 548.9310302734375 602.317626953125 547.9037475585938 602.7326049804688 548.992431640625 C 602.9224853515625 550.123046875 602.8724975585938 551.5120239257812 598.9968872070312 547.0031127929688" stroke-width="0.0" fill="rgb(255, 254, 255)" opacity="0.9840343"/>
    <path d="M 598.13525390625 331.07000732421875 C 595.9677734375 331.5670166015625 595.8745727539062 331.18017578125 595.0610961914062 333.22467041015625 C 595.371826171875 332.7647705078125 595.341552734375 331.72113037109375 596.794189453125 331.3055725097656 C 598.1636962890625 331.3429260253906 597.4454345703125 330.8775634765625 598.6133422851562 330.6427917480469 C 597.2263793945312 331.3893127441406 595.834716796875 330.7286682128906 598.13525390625 331.07000732421875" stroke-width="0.0" fill="rgb(255, 255, 255)" opacity="0.8567007"/>
    <path d="M 83.18605041503906 584.8804931640625 C 83.11700439453125 585.3431396484375 84.75282287597656 587.5744018554688 85.09183502197266 588.2919311523438 C 87.359619140625 587.505859375 85.65547180175781 587.8594360351562 86.46836853027344 588.0601196289062 C 84.67444610595703 587.8311767578125 86.1214599609375 589.3174438476562 84.94159698486328 588.9929809570312 C 87.24026489257812 588.4010009765625 85.45833587646484 590.5203247070312 83.18605041503906 584.8804931640625" stroke-width="0.0" fill="rgb(255, 255, 255)" opacity="0.777171"/>
    <path d="M 5.096325397491455 323.1710205078125 C 3.491694927215576 324.14910888671875 4.155152320861816 323.56365966796875 6.493678569793701 322.9366760253906 C 5.073483943939209 324.1850280761719 6.772256374359131 322.8969421386719 8.202337265014648 321.5843811035156 C 6.774196147918701 319.76666259765625 8.601051330566406 318.9254455566406 10.361493110656738 317.2139892578125 C 7.39926815032959 315.89697265625 10.775490760803223 318.72216796875 5.096325397491455 323.1710205078125" stroke-width="0.0" fill="rgb(255, 255, 255)" opacity="0.656427"/>
    <path d="M 2.886751890182495 471.4369201660156 C 6.149636745452881 469.62091064453125 5.401500701904297 466.262939453125 3.447402000427246 464.8764343261719 C 2.5634803771972656 466.3926696777344 0.9403309226036072 467.3146057128906 1.7241724729537964 466.5801696777344 C 2.924467086791992 468.285888671875 1.0204014778137207 469.5080871582031 1.8098584413528442 468.895263671875 C 3.111069440841675 468.9689636230469 3.175732374191284 468.74810791015625 2.886751890182495 471.4369201660156" stroke-width="0.0" fill="rgb(255, 255, 255)" opacity="0.6876694"/>
    <path d="M 597.0275268554688 386.1537170410156 C 599.0394897460938 386.71917724609375 599.204833984375 386.8558044433594 598.9678344726562 390.125244140625 C 599.9781494140625 389.261962890625 602.2352905273438 386.7550048828125 604.4427490234375 387.90057373046875 C 602.9081420898438 385.8145751953125 604.5147705078125 384.39459228515625 604.5640258789062 385.30706787109375 C 604.16796875 386.858642578125 604.7415161132812 388.845703125 597.0275268554688 386.1537170410156" stroke-width="0.0" fill="rgb(255, 255, 255)" opacity="0.9054983"/>
    <path d="M 593.1160888671875 363.8846740722656 C 592.6372680664062 366.0141906738281 593.0325927734375 366.37091064453125 595.181640625 365.8023376464844 C 594.2744140625 362.4964294433594 596.6959838867188 362.09759521484375 598.2869873046875 363.6908264160156 C 598.725830078125 364.509521484375 600.7418823242188 363.8880920410156 603.2477416992188 362.05120849609375 C 600.8863525390625 364.447998046875 600.7259521484375 364.04510498046875 593.1160888671875 363.8846740722656" stroke-width="0.0" fill="rgb(255, 255, 255)" opacity="0.76262677"/>
    <path d="M 20.241762161254883 449.43377685546875 C 19.0320987701416 449.9119873046875 20.790607452392578 448.8816833496094 22.155813217163086 447.21636962890625 C 19.782310485839844 445.6617126464844 20.090679168701172 444.1376037597656 19.87152862548828 441.9874572753906 C 23.28333854675293 441.67938232421875 24.34620475769043 442.568115234375 23.22295379638672 442.0180358886719 C 23.42230987548828 440.0749206542969 25.077735900878906 437.7093505859375 20.241762161254883 449.43377685546875" stroke-width="0.0" fill="rgb(255, 255, 255)" opacity="0.65327775"/>
    <path d="M 103.57035064697266 597.3300170898438 C 100.7643051147461 597.365234375 99.90771484375 595.57177734375 99.8392562866211 594.8837890625 C 100.3413314819336 593.7034912109375 101.97826385498047 592.1447143554688 103.9586181640625 593.1642456054688 C 103.05294036865234 593.2810668945312 104.86860656738281 591.9119262695312 105.1197280883789 594.1150512695312 C 106.74240112304688 593.6651611328125 109.2042236328125 594.0296020507812 103.57035064697266 597.3300170898438" stroke-width="0.0" fill="rgb(255, 255, 255)" opacity="0.67270356"/>
    <path d="M 565.7084350585938 396.85943603515625 C 565.2233276367188 397.4103088378906 563.1841430664062 398.154296875 561.3790893554688 399.1840515136719 C 559.5210571289062 399.6864929199219 558.7852172851562 398.10150146484375 556.9170532226562 399.7302551269531 C 554.9256591796875 400.6487731933594 556.5282592773438 401.5038757324219 555.9785766601562 402.8545227050781 C 556.5693359375 401.9954528808594 554.8820190429688 402.0098876953125 565.7084350585938 396.85943603515625" stroke-width="0.0" fill="rgb(255, 255, 255)" opacity="0.67978126"/>
    <path d="M 575.6507568359375 587.8516235351562 C 578.079833984375 588.4473266601562 578.379150390625 588.0205688476562 577.8875122070312 585.8107299804688 C 576.045654296875 586.7566528320312 577.4112548828125 583.9111328125 576.907958984375 582.231689453125 C 578.8291015625 581.67333984375 579.5234375 581.720458984375 578.6298828125 584.9107055664062 C 579.131591796875 585.6539306640625 580.0176391601562 582.689453125 575.6507568359375 587.8516235351562" stroke-width="0.0" fill="rgb(255, 255, 255)" opacity="0.70844406"/>
    <path d="M 556.65380859375 561.5194702148438 C 557.7581787109375 563.8283081054688 558.38134765625 566.2847900390625 557.8125 568.4642944335938 C 556.0479736328125 569.233154296875 558.4666137695312 567.3821411132812 560.5797119140625 568.1843872070312 C 559.1256713867188 567.1941528320312 560.57666015625 567.6891479492188 560.0201416015625 566.17578125 C 559.0388793945312 565.5050048828125 558.2608642578125 565.9539184570312 556.65380859375 561.5194702148438" stroke-width="0.0" fill="rgb(255, 255, 255)" opacity="0.7422218"/>
  </g>
</svg>
