<?xml version="1.0" ?>
<svg xmlns="http://www.w3.org/2000/svg" version="1.1" width="256" height="256">
  <defs/>
  <g>
    <path d="M 81.4510726928711 41.41010665893555 C 79.48920440673828 49.191314697265625 74.34590148925781 54.91551971435547 66.98912048339844 56.995140075683594 C 59.5 54.990379333496094 54.009620666503906 49.5 52.07866287231445 42.1085205078125 C 54.31404113769531 34.822166442871094 59.39436340332031 28.372827529907227 66.37952423095703 26.20567512512207 C 75.14286804199219 28.39459800720215 80.64088439941406 33.84841537475586 81.4510726928711 41.41010665893555" stroke-width="0.0" fill="rgb(252, 252, 252)" opacity="0.9909267"/>
    <path d="M 73.0 55.0 C 70.9903793334961 62.5 65.5 67.9903793334961 58.00042724609375 69.99983978271484 C 50.511817932128906 67.98590087890625 45.109859466552734 62.45976257324219 43.47567367553711 55.24831771850586 C 45.49987030029297 47.8038444519043 50.65541458129883 42.08572769165039 58.01121520996094 40.00503921508789 C 65.5 42.009620666503906 70.9903793334961 47.5 73.0 55.0" stroke-width="0.0" fill="rgb(252, 252, 252)" opacity="0.9907129"/>
    <path d="M 177.64927673339844 84.71526336669922 C 175.90325927734375 92.43661499023438 170.4537353515625 97.95829010009766 162.9119873046875 99.97199249267578 C 153.69627380371094 97.86962890625 148.38330078125 92.21189880371094 146.7445831298828 84.2950210571289 C 149.00961303710938 76.5 154.5 71.0096206665039 162.05174255371094 68.94866180419922 C 169.64039611816406 70.86872863769531 175.12696838378906 76.36088562011719 177.64927673339844 84.71526336669922" stroke-width="0.0" fill="rgb(252, 252, 252)" opacity="0.99276966"/>
    <path d="M 239.0102081298828 208.78562927246094 C 238.93006896972656 216.4656524658203 233.47560119628906 221.97315979003906 225.9589080810547 223.98843383789062 C 218.20181274414062 221.83155822753906 212.87408447265625 214.65020751953125 210.66314697265625 207.31878662109375 C 212.00961303710938 200.5 217.5 195.00961303710938 224.9561004638672 193.01893615722656 C 232.00424194335938 195.29495239257812 237.09356689453125 201.2677764892578 239.0102081298828 208.78562927246094" stroke-width="0.0" fill="rgb(6, 6, 6)" opacity="0.99000204"/>
    <path d="M 152.7583770751953 70.22550964355469 C 149.99038696289062 78.5 144.5 83.9903793334961 137.0 86.0 C 129.5 83.9903793334961 124.0096206665039 78.5 121.82628631591797 70.86833953857422 C 123.75611877441406 63.30291748046875 129.33326721191406 57.84701156616211 136.15740966796875 56.940269470214844 C 145.4073944091797 57.1807861328125 150.90664672851562 62.580421447753906 152.7583770751953 70.22550964355469" stroke-width="0.0" fill="rgb(2, 2, 2)" opacity="0.9901371"/>
    <path d="M 192.99078369140625 125.10105895996094 C 190.9477996826172 134.41622924804688 185.3402557373047 139.72372436523438 176.08486938476562 141.95616149902344 C 168.9581756591797 139.92837524414062 164.96824645996094 132.58970642089844 161.01602172851562 125.01908111572266 C 163.02455139160156 117.52037048339844 168.5220184326172 112.02792358398438 176.1166229248047 110.0086441040039 C 185.4660186767578 112.03589630126953 190.96844482421875 117.53154754638672 192.99078369140625 125.10105895996094" stroke-width="0.0" fill="rgb(32, 31, 31)" opacity="0.9900032"/>
    <path d="M 205.0 206.0 C 202.99038696289062 213.5 197.5 218.99038696289062 190.0 221.0 C 182.5 218.99038696289062 177.00961303710938 213.5 175.0 206.0 C 177.00961303710938 198.5 182.5 193.00961303710938 190.0 191.0 C 197.5 193.00961303710938 202.99038696289062 198.5 205.0 206.0" stroke-width="0.0" fill="rgb(0, 0, 1)" opacity="1.0"/>
    <path d="M 217.32772827148438 201.63829040527344 C 214.99038696289062 209.5 209.5 214.99038696289062 202.0 217.0 C 194.5 214.99038696289062 189.00961303710938 209.5 187.0 202.0 C 189.00961303710938 194.5 194.5 189.00961303710938 202.5361785888672 186.42477416992188 C 210.22129821777344 188.2581329345703 215.65036010742188 193.80657958984375 217.32772827148438 201.63829040527344" stroke-width="0.0" fill="rgb(21, 21, 21)" opacity="0.99045694"/>
    <path d="M 76.9530029296875 1.939145803451538 C 74.94223022460938 9.37784481048584 67.68004608154297 13.037242889404297 61.40726852416992 15.0101318359375 C 54.414146423339844 13.032469749450684 47.09410858154297 7.979240417480469 45.02578353881836 1.951896071434021 C 48.3300895690918 -6.378455638885498 53.511253356933594 -11.986998558044434 60.99998092651367 -13.999927520751953 C 68.48865509033203 -11.98691463470459 73.70228576660156 -6.392466068267822 76.9530029296875 1.939145803451538" stroke-width="0.0" fill="rgb(41, 42, 43)" opacity="0.9900041"/>
    <path d="M 150.103515625 117.84452819824219 C 148.99038696289062 124.5 143.5 129.99038696289062 136.0 132.0 C 128.5 129.99038696289062 123.0096206665039 124.5 120.99987030029297 116.99958801269531 C 123.00141906738281 109.4745864868164 128.3316192626953 103.61417388916016 136.8160400390625 101.02472686767578 C 142.5612335205078 104.91565704345703 148.0569610595703 110.44236755371094 150.103515625 117.84452819824219" stroke-width="0.0" fill="rgb(4, 4, 5)" opacity="0.99001247"/>
    <path d="M 159.9503631591797 198.10443115234375 C 157.99038696289062 205.5 152.5 210.99038696289062 145.1272430419922 212.89540100097656 C 137.78713989257812 210.67518615722656 131.5338897705078 205.4840545654297 130.94839477539062 197.4485321044922 C 132.00836181640625 190.33265686035156 137.39076232910156 185.26333618164062 144.10501098632812 183.9815673828125 C 151.66600036621094 185.93121337890625 157.52923583984375 191.158203125 159.9503631591797 198.10443115234375" stroke-width="0.0" fill="rgb(238, 239, 238)" opacity="1.0"/>
    <path d="M 211.53553771972656 185.4732666015625 C 209.67430114746094 193.12806701660156 204.07582092285156 198.50523376464844 196.22164916992188 200.18231201171875 C 188.5 197.99038696289062 183.00961303710938 192.5 181.0 185.0 C 183.00961303710938 177.5 188.5 172.00961303710938 196.0 170.0 C 203.5 172.00961303710938 208.99038696289062 177.5 211.53553771972656 185.4732666015625" stroke-width="0.0" fill="rgb(206, 205, 204)" opacity="0.9901284"/>
    <path d="M 152.0 157.0 C 149.99038696289062 164.5 144.5 169.99038696289062 137.0 172.0 C 129.5 169.99038696289062 124.0096206665039 164.5 121.06088256835938 156.07272338867188 C 123.03762817382812 148.5281524658203 128.524169921875 143.02740478515625 136.02976989746094 141.0155792236328 C 144.5 144.00961303710938 149.99038696289062 149.5 152.0 157.0" stroke-width="0.0" fill="rgb(1, 0, 1)" opacity="1.0"/>
    <path d="M 168.0 157.0 C 165.99038696289062 164.5 160.5 169.99038696289062 153.0 172.0 C 145.5 169.99038696289062 140.00961303710938 164.5 138.0 157.0 C 140.00961303710938 149.5 145.5 144.00961303710938 153.0 142.0 C 160.5 144.00961303710938 165.99038696289062 149.5 168.0 157.0" stroke-width="0.0" fill="rgb(255, 255, 255)" opacity="1.0"/>
    <path d="M 244.19117736816406 193.53292846679688 C 243.48190307617188 202.32061767578125 238.40643310546875 207.9396514892578 230.96116638183594 208.07626342773438 C 221.60130310058594 207.82919311523438 216.12879943847656 202.403076171875 214.6017303466797 194.63368225097656 C 217.00961303710938 186.5 222.5 181.00961303710938 229.69439697265625 179.3937530517578 C 237.09991455078125 181.4920196533203 242.4443359375 186.92276000976562 244.19117736816406 193.53292846679688" stroke-width="0.0" fill="rgb(252, 252, 252)" opacity="0.9900055"/>
    <path d="M 87.03101348876953 64.04695129394531 C 85.01353454589844 71.5320816040039 79.54290771484375 77.05137634277344 72.29496765136719 80.66213989257812 C 65.5 77.9903793334961 60.009620666503906 72.5 58.0 65.0 C 60.009620666503906 57.5 65.5 52.009620666503906 73.0 50.0 C 80.5 52.009620666503906 85.9903793334961 57.5 87.03101348876953 64.04695129394531" stroke-width="0.0" fill="rgb(5, 5, 5)" opacity="0.99000746"/>
    <path d="M 88.04608917236328 230.13946533203125 C 86.37645721435547 238.63650512695312 82.02704620361328 244.6345672607422 74.59635925292969 246.8505859375 C 65.89676666259766 244.57447814941406 60.224491119384766 239.18408203125 58.176124572753906 231.80508422851562 C 61.769248962402344 224.26248168945312 67.29874420166016 218.86195373535156 73.2152099609375 216.98153686523438 C 82.37154388427734 217.25326538085938 87.8939437866211 222.60423278808594 88.04608917236328 230.13946533203125" stroke-width="0.0" fill="rgb(252, 252, 252)" opacity="1.0"/>
    <path d="M 229.00831604003906 23.113548278808594 C 227.0152587890625 30.549928665161133 221.73609924316406 37.925724029541016 215.96514892578125 38.020320892333984 C 208.40948486328125 36.03599166870117 202.71875 30.674394607543945 200.62417602539062 24.37516212463379 C 202.84710693359375 17.41680335998535 208.45431518554688 11.984488487243652 215.96583557128906 9.989240646362305 C 223.39739990234375 10.077743530273438 227.06796264648438 15.934049606323242 229.00831604003906 23.113548278808594" stroke-width="0.0" fill="rgb(8, 8, 8)" opacity="0.99000114"/>
    <path d="M 80.5030517578125 175.43911743164062 C 78.16094970703125 182.63497924804688 72.60720825195312 188.07171630859375 65.16444396972656 190.12185668945312 C 58.5 188.99038696289062 53.009620666503906 183.5 51.0 176.0 C 53.009620666503906 168.5 58.5 163.00961303710938 66.0 161.0 C 73.5 163.00961303710938 78.9903793334961 168.5 80.5030517578125 175.43911743164062" stroke-width="0.0" fill="rgb(252, 252, 252)" opacity="1.0"/>
    <path d="M 62.055110931396484 38.938499450683594 C 60.990379333496094 45.5 55.5 50.990379333496094 48.070457458496094 53.402381896972656 C 41.36323928833008 50.26738357543945 35.978302001953125 44.564613342285156 33.99046325683594 37.043968200683594 C 34.14169692993164 29.62285804748535 39.7872314453125 25.915090560913086 47.042789459228516 23.99339485168457 C 54.51948547363281 25.994403839111328 60.01280212402344 31.477909088134766 62.055110931396484 38.938499450683594" stroke-width="0.0" fill="rgb(4, 5, 5)" opacity="0.99000186"/>
    <path d="M 95.0 118.0 C 92.9903793334961 125.5 87.5 130.99038696289062 80.06224060058594 132.90853881835938 C 72.58084106445312 130.87115478515625 67.03480529785156 125.44725036621094 64.02938079833984 117.08085632324219 C 66.109619140625 109.71350860595703 71.9253158569336 104.59883880615234 79.88817596435547 102.92705535888672 C 87.5 105.0096206665039 92.9903793334961 110.5 95.0 118.0" stroke-width="0.0" fill="rgb(70, 71, 70)" opacity="0.9900288"/>
    <path d="M 210.02767944335938 31.04229164123535 C 208.00721740722656 38.519752502441406 202.52122497558594 44.011417388916016 195.05633544921875 46.04888153076172 C 188.5 44.990379333496094 183.00961303710938 39.5 181.0 32.0 C 183.00961303710938 24.5 188.5 19.009618759155273 195.08843994140625 17.950687408447266 C 202.59304809570312 19.953821182250977 208.1686553955078 25.360179901123047 210.02767944335938 31.04229164123535" stroke-width="0.0" fill="rgb(3, 4, 4)" opacity="0.99000216"/>
    <path d="M 147.0 8.0 C 144.99038696289062 15.5 139.5 20.990381240844727 132.0 23.0 C 124.5 20.990381240844727 119.0096206665039 15.5 117.0 8.0 C 119.0096206665039 0.5 124.5 -4.990381240844727 132.0 -7.0 C 139.5 -4.990381240844727 144.99038696289062 0.5 147.0 8.0" stroke-width="0.0" fill="rgb(255, 255, 255)" opacity="1.0"/>
    <path d="M 58.01013946533203 102.86505889892578 C 56.16865158081055 108.59981536865234 50.56789779663086 114.0380859375 43.132171630859375 116.0726318359375 C 37.43228530883789 114.09003448486328 31.985143661499023 108.54218292236328 29.994054794311523 102.78526306152344 C 31.98820686340332 95.46134948730469 37.43388748168945 89.90567779541016 44.63718795776367 87.55300903320312 C 50.87135696411133 89.42469024658203 56.06254959106445 95.33647155761719 58.01013946533203 102.86505889892578" stroke-width="0.0" fill="rgb(3, 4, 4)" opacity="0.99000186"/>
    <path d="M 185.0 164.0 C 182.99038696289062 171.5 177.5 176.99038696289062 170.0 179.0 C 162.5 176.99038696289062 157.00961303710938 171.5 155.0 164.0 C 157.00961303710938 156.5 162.5 151.00961303710938 170.0 149.0 C 177.5 151.00961303710938 182.99038696289062 156.5 185.0 164.0" stroke-width="0.0" fill="rgb(2, 2, 2)" opacity="1.0"/>
    <path d="M 148.68063354492188 9.679962158203125 C 146.4040985107422 16.912445068359375 140.91111755371094 22.399715423583984 133.67361450195312 24.671546936035156 C 126.5 22.990381240844727 121.0096206665039 17.5 119.0 10.0 C 121.0096206665039 2.5 126.5 -2.9903810024261475 134.0 -5.0 C 141.5 -2.9903810024261475 146.99038696289062 2.5 148.68063354492188 9.679962158203125" stroke-width="0.0" fill="rgb(255, 255, 255)" opacity="1.0"/>
    <path d="M 80.97705841064453 84.04668426513672 C 77.52959442138672 91.83897399902344 71.65436553955078 97.06013488769531 65.86730194091797 99.00796508789062 C 58.425010681152344 97.02848815917969 52.77315139770508 91.6426773071289 50.24748611450195 84.62943267822266 C 52.009620666503906 77.5 57.5 72.0096206665039 65.42528533935547 69.7060546875 C 73.38182067871094 71.20840454101562 78.95629119873047 76.56451416015625 80.97705841064453 84.04668426513672" stroke-width="0.0" fill="rgb(5, 5, 5)" opacity="0.99000233"/>
    <path d="M 199.0914764404297 81.94134521484375 C 197.02630615234375 87.52977752685547 191.5264129638672 93.01384735107422 184.0343017578125 96.97169494628906 C 178.4404296875 94.55278778076172 172.98944091796875 87.53204345703125 170.99093627929688 80.04792785644531 C 172.78128051757812 74.12055969238281 177.3529815673828 67.21025848388672 185.9442901611328 65.00936126708984 C 193.41981506347656 67.03892517089844 197.03273010253906 74.3263931274414 199.0914764404297 81.94134521484375" stroke-width="0.0" fill="rgb(11, 11, 11)" opacity="0.990001"/>
    <path d="M 222.87022399902344 207.07647705078125 C 219.0515899658203 214.54473876953125 213.53099060058594 220.0103302001953 206.02163696289062 222.07350158691406 C 198.6242218017578 221.93365478515625 193.465576171875 216.22744750976562 191.380126953125 207.3458709716797 C 193.1193084716797 199.58204650878906 198.5630340576172 194.0565185546875 206.3024444580078 193.91087341308594 C 215.4194793701172 194.11639404296875 220.9403839111328 199.5641632080078 222.87022399902344 207.07647705078125" stroke-width="0.0" fill="rgb(4, 4, 5)" opacity="0.99000573"/>
    <path d="M 198.0126495361328 45.6974983215332 C 196.15203857421875 51.860328674316406 191.99423217773438 58.80466842651367 184.90350341796875 59.024227142333984 C 176.04287719726562 57.47175216674805 170.52857971191406 53.07111740112305 168.93141174316406 45.21726608276367 C 171.11898803710938 37.485408782958984 176.26992797851562 31.54994010925293 184.95071411132812 29.027362823486328 C 192.45411682128906 31.036823272705078 196.20492553710938 36.5977897644043 198.0126495361328 45.6974983215332" stroke-width="0.0" fill="rgb(252, 252, 252)" opacity="0.99000484"/>
    <path d="M 121.52837371826172 34.411338806152344 C 119.9863052368164 41.49009704589844 114.47198486328125 46.92448806762695 106.93640899658203 48.857357025146484 C 99.5 46.990379333496094 94.0096206665039 41.5 92.00889587402344 34.016815185546875 C 94.10246276855469 26.668975830078125 99.80970764160156 21.49890899658203 107.61848449707031 18.838380813598633 C 114.86399841308594 20.332624435424805 119.39946746826172 26.830799102783203 121.52837371826172 34.411338806152344" stroke-width="0.0" fill="rgb(252, 252, 252)" opacity="1.0"/>
    <path d="M 144.0 12.0 C 141.99038696289062 19.5 136.5 24.990381240844727 128.77500915527344 27.20290756225586 C 120.97120666503906 25.485055923461914 115.41502380371094 20.059288024902344 113.60469818115234 12.358255386352539 C 116.0096206665039 4.5 121.5 -0.9903810620307922 129.0 -3.0 C 136.5 -0.9903810620307922 141.99038696289062 4.5 144.0 12.0" stroke-width="0.0" fill="rgb(255, 255, 255)" opacity="0.9908621"/>
    <path d="M 104.0 7.0 C 101.9903793334961 14.5 96.5 19.990381240844727 89.49877166748047 21.51556968688965 C 82.27654266357422 19.229618072509766 76.79821014404297 13.71451473236084 73.25033569335938 6.299989700317383 C 75.16442108154297 -1.2698605060577393 80.82252502441406 -6.548642158508301 88.79244232177734 -8.137910842895508 C 96.5 -5.990381240844727 101.9903793334961 -0.5 104.0 7.0" stroke-width="0.0" fill="rgb(163, 164, 163)" opacity="1.0"/>
    <path d="M 166.88467407226562 199.15797424316406 C 164.99038696289062 206.5 159.5 211.99038696289062 151.9974365234375 214.00088500976562 C 144.41058349609375 212.02346801757812 138.53111267089844 206.75733947753906 137.9789581298828 199.9451904296875 C 139.9678955078125 192.4010009765625 143.69195556640625 185.0516357421875 151.0811767578125 183.01287841796875 C 160.05764770507812 185.1549530029297 164.6083984375 191.84226989746094 166.88467407226562 199.15797424316406" stroke-width="0.0" fill="rgb(66, 66, 66)" opacity="0.9903164"/>
    <path d="M 176.1248016357422 224.19955444335938 C 174.51083374023438 232.10928344726562 169.19354248046875 237.7677459716797 161.3803253173828 239.90643310546875 C 153.071044921875 237.52317810058594 147.57891845703125 231.89501953125 145.7415008544922 224.22630310058594 C 148.00961303710938 216.5 153.5 211.00961303710938 161.0 209.0 C 168.5 211.00961303710938 173.99038696289062 216.5 176.1248016357422 224.19955444335938" stroke-width="0.0" fill="rgb(252, 252, 252)" opacity="0.9903425"/>
    <path d="M 173.9632568359375 69.15682983398438 C 171.8297576904297 78.1519546508789 165.80902099609375 83.10330200195312 158.00067138671875 84.99684143066406 C 150.5 82.9903793334961 145.00961303710938 77.5 143.9587860107422 70.91946411132812 C 145.94920349121094 63.346160888671875 150.31243896484375 56.21210479736328 157.34341430664062 54.495662689208984 C 166.18714904785156 56.736289978027344 171.92283630371094 61.64126205444336 173.9632568359375 69.15682983398438" stroke-width="0.0" fill="rgb(252, 252, 252)" opacity="0.9900133"/>
    <path d="M 99.86581420898438 163.20384216308594 C 96.61585998535156 171.30764770507812 91.42801666259766 176.9610137939453 83.9968490600586 178.99876403808594 C 76.5 176.99038696289062 71.0096206665039 171.5 69.0 164.0 C 71.0096206665039 156.5 76.5 151.00961303710938 83.52066040039062 149.66236877441406 C 92.13050842285156 151.34315490722656 97.85626983642578 155.70936584472656 99.86581420898438 163.20384216308594" stroke-width="0.0" fill="rgb(222, 222, 221)" opacity="1.0"/>
    <path d="M 55.11921310424805 224.41929626464844 C 53.253196716308594 231.8703155517578 47.878658294677734 237.27093505859375 40.40182876586914 239.27078247070312 C 33.5 237.99038696289062 28.009618759155273 232.5 26.0 225.0 C 28.009618759155273 217.5 33.5 212.00961303710938 40.99811935424805 210.0006866455078 C 48.42578887939453 212.0361328125 53.49101257324219 217.75918579101562 55.11921310424805 224.41929626464844" stroke-width="0.0" fill="rgb(169, 169, 169)" opacity="0.990035"/>
    <path d="M 107.21310424804688 30.742666244506836 C 104.9903793334961 38.5 99.5 43.990379333496094 92.0 46.0 C 84.5 43.990379333496094 79.0096206665039 38.5 77.7903060913086 31.763051986694336 C 79.91583251953125 24.41690444946289 85.42738342285156 18.948692321777344 92.87852478027344 16.861051559448242 C 100.1728744506836 17.284841537475586 105.55414581298828 22.87678337097168 107.21310424804688 30.742666244506836" stroke-width="0.0" fill="rgb(252, 252, 252)" opacity="0.99005777"/>
    <path d="M 146.25938415527344 13.250755310058594 C 144.4819793701172 20.98123550415039 138.97259521484375 26.45343017578125 131.21774291992188 28.211671829223633 C 123.5 25.990381240844727 118.0096206665039 20.5 116.0 13.0 C 118.0096206665039 5.5 123.5 0.009618943557143211 131.0 -2.0 C 138.5 0.009618943557143211 143.99038696289062 5.5 146.25938415527344 13.250755310058594" stroke-width="0.0" fill="rgb(252, 252, 252)" opacity="0.99165106"/>
    <path d="M 110.87919616699219 49.22309875488281 C 107.80194091796875 57.42100143432617 102.47762298583984 62.982635498046875 94.99945831298828 64.99981689453125 C 87.5 62.990379333496094 82.0096206665039 57.5 79.6220474243164 49.74270248413086 C 81.63259887695312 42.24324035644531 87.33233642578125 36.90638732910156 95.53466796875 34.5075569152832 C 103.342529296875 36.19984436035156 108.88507843017578 41.63119888305664 110.87919616699219 49.22309875488281" stroke-width="0.0" fill="rgb(204, 204, 203)" opacity="0.99019176"/>
    <path d="M 129.0 168.0 C 126.9903793334961 175.5 121.5 180.99038696289062 114.0 183.0 C 106.5 180.99038696289062 101.0096206665039 175.5 99.97959899902344 168.95269775390625 C 101.96755981445312 161.41558837890625 107.33453369140625 155.72958374023438 114.30398559570312 153.18777465820312 C 121.5 155.00961303710938 126.9903793334961 160.5 129.0 168.0" stroke-width="0.0" fill="rgb(5, 5, 5)" opacity="0.990022"/>
    <path d="M 145.010986328125 31.06686019897461 C 143.05166625976562 38.846824645996094 139.3270263671875 45.87746047973633 131.7723846435547 47.778202056884766 C 124.22858428955078 44.433589935302734 118.9496841430664 38.62847137451172 116.99058532714844 31.752466201782227 C 118.96524047851562 25.43276596069336 124.35261535644531 18.147817611694336 130.08628845214844 16.21923065185547 C 137.56814575195312 19.944547653198242 143.0753631591797 25.426536560058594 145.010986328125 31.06686019897461" stroke-width="0.0" fill="rgb(7, 8, 8)" opacity="0.9900015"/>
    <path d="M 72.08704376220703 193.3049774169922 C 69.9903793334961 200.5 64.5 205.99038696289062 57.000701904296875 207.99978637695312 C 49.55583190917969 205.97265625 44.670536041259766 200.1311798095703 42.91403579711914 192.04515075683594 C 43.05084228515625 184.56582641601562 48.58692169189453 179.0975341796875 56.18860626220703 177.13792419433594 C 64.1915283203125 180.1875457763672 69.38760375976562 185.953857421875 72.08704376220703 193.3049774169922" stroke-width="0.0" fill="rgb(252, 252, 251)" opacity="1.0"/>
    <path d="M 190.0 156.0 C 187.99038696289062 163.5 182.5 168.99038696289062 175.0 171.0 C 167.5 168.99038696289062 162.00961303710938 163.5 160.00741577148438 156.01853942871094 C 162.144775390625 148.7712860107422 167.99172973632812 143.7010955810547 175.65309143066406 141.81114196777344 C 182.5 143.00961303710938 187.99038696289062 148.5 190.0 156.0" stroke-width="0.0" fill="rgb(232, 232, 232)" opacity="0.9902818"/>
    <path d="M 188.3602294921875 187.41586303710938 C 186.99038696289062 194.5 181.5 199.99038696289062 174.0 202.0 C 166.5 199.99038696289062 161.00961303710938 194.5 158.19923400878906 186.4649658203125 C 160.83651733398438 179.44207763671875 166.49490356445312 174.00808715820312 173.995849609375 172.00164794921875 C 181.4153594970703 174.04534912109375 186.5753173828125 179.7201385498047 188.3602294921875 187.41586303710938" stroke-width="0.0" fill="rgb(248, 249, 247)" opacity="1.0"/>
    <path d="M 194.0 202.0 C 191.99038696289062 209.5 186.5 214.99038696289062 179.0 217.0 C 171.5 214.99038696289062 166.00961303710938 209.5 164.0 202.0 C 166.00961303710938 194.5 171.5 189.00961303710938 179.0 187.0 C 186.5 189.00961303710938 191.99038696289062 194.5 194.0 202.0" stroke-width="0.0" fill="rgb(1, 1, 1)" opacity="1.0"/>
    <path d="M 89.03775787353516 58.94678497314453 C 87.94831085205078 65.44590759277344 82.42475891113281 70.87765502929688 74.92280578613281 72.85008239746094 C 67.50017547607422 70.98998260498047 62.00965118408203 65.49993133544922 60.01389694213867 58.03144073486328 C 62.21459197998047 50.87747573852539 68.13009643554688 45.81473922729492 74.06254577636719 43.972286224365234 C 81.52587127685547 45.98748016357422 87.01372528076172 51.47366714477539 89.03775787353516 58.94678497314453" stroke-width="0.0" fill="rgb(5, 4, 5)" opacity="0.9900053"/>
    <path d="M 72.07205200195312 130.74359130859375 C 70.9903793334961 137.5 65.5 142.99038696289062 58.0 145.0 C 50.5 142.99038696289062 45.009620666503906 137.5 43.33918762207031 130.47021484375 C 45.83308410644531 123.3935317993164 51.44255065917969 117.979736328125 58.936195373535156 115.9925308227539 C 64.98821258544922 117.89324951171875 71.67236328125 121.87181854248047 72.07205200195312 130.74359130859375" stroke-width="0.0" fill="rgb(2, 3, 3)" opacity="0.99000233"/>
    <path d="M 131.56471252441406 161.35218811035156 C 128.99038696289062 169.5 123.5 174.99038696289062 115.98821258544922 177.0157012939453 C 108.45821380615234 175.02430725097656 103.34982299804688 169.4068145751953 101.984130859375 162.81451416015625 C 102.05606079101562 153.5319061279297 107.52437591552734 148.02764892578125 115.121826171875 146.00894165039062 C 124.45249938964844 148.03741455078125 129.8788604736328 153.5757293701172 131.56471252441406 161.35218811035156" stroke-width="0.0" fill="rgb(6, 5, 6)" opacity="0.9900357"/>
    <path d="M 191.9670867919922 4.087809085845947 C 189.0838623046875 12.529378890991211 183.50250244140625 17.991127014160156 176.00003051757812 20.00000762939453 C 168.5 17.990381240844727 163.00961303710938 12.5 161.0 5.0 C 163.00961303710938 -2.5 168.5 -7.990381240844727 176.1136932373047 -10.058964729309082 C 184.15208435058594 -8.455141067504883 189.90655517578125 -3.3256537914276123 191.9670867919922 4.087809085845947" stroke-width="0.0" fill="rgb(105, 104, 104)" opacity="1.0"/>
    <path d="M 51.03455352783203 218.07301330566406 C 49.047000885009766 225.6038360595703 43.67975997924805 231.26870727539062 36.6623420715332 233.76470947265625 C 29.5 231.99038696289062 24.009618759155273 226.5 22.0 219.0 C 24.009618759155273 211.5 29.5 206.00961303710938 37.0 204.0 C 44.5 206.00961303710938 49.990379333496094 211.5 51.03455352783203 218.07301330566406" stroke-width="0.0" fill="rgb(50, 50, 50)" opacity="0.9900534"/>
    <path d="M 133.0 94.0 C 130.99038696289062 101.5 125.5 106.9903793334961 117.44972229003906 109.47552490234375 C 109.65185546875 107.81031799316406 104.59893798828125 102.3226547241211 103.98394012451172 93.16665649414062 C 105.53276824951172 86.7459945678711 110.52983093261719 81.0189208984375 118.0003662109375 79.00011444091797 C 125.5 81.0096206665039 130.99038696289062 86.5 133.0 94.0" stroke-width="0.0" fill="rgb(4, 4, 4)" opacity="0.99001604"/>
    <path d="M 181.2870635986328 218.2334442138672 C 179.06085205078125 225.5506591796875 173.53436279296875 231.0120086669922 166.10304260253906 233.00648498535156 C 160.13645935058594 231.0420379638672 153.08082580566406 227.38079833984375 151.12637329101562 219.85003662109375 C 154.00961303710938 211.5 159.5 206.00961303710938 167.0 204.0 C 174.5 206.00961303710938 179.99038696289062 211.5 181.2870635986328 218.2334442138672" stroke-width="0.0" fill="rgb(23, 23, 22)" opacity="0.99000233"/>
    <path d="M 190.0 166.0 C 187.99038696289062 173.5 182.5 178.99038696289062 175.0 181.0 C 167.5 178.99038696289062 162.00961303710938 173.5 160.0164794921875 166.02757263183594 C 162.1354217529297 158.70054626464844 167.8081817626953 153.45738220214844 175.33987426757812 151.49798583984375 C 182.5 153.00961303710938 187.99038696289062 158.5 190.0 166.0" stroke-width="0.0" fill="rgb(237, 237, 237)" opacity="0.9904497"/>
    <path d="M 188.0 205.0 C 185.99038696289062 212.5 180.5 217.99038696289062 173.90237426757812 219.04534912109375 C 166.2762908935547 217.0762939453125 159.2760772705078 212.80133056640625 157.35252380371094 205.58657836914062 C 160.00961303710938 197.5 165.5 192.00961303710938 173.0 190.0 C 180.5 192.00961303710938 185.99038696289062 197.5 188.0 205.0" stroke-width="0.0" fill="rgb(182, 181, 181)" opacity="0.99001676"/>
    <path d="M 198.98219299316406 16.038002014160156 C 196.87994384765625 25.33673858642578 191.1260528564453 29.186582565307617 183.9250946044922 31.009267807006836 C 176.4070281982422 29.032949447631836 170.9276123046875 23.63681411743164 168.97950744628906 16.059011459350586 C 170.54513549804688 9.99814510345459 175.6963653564453 3.4092636108398438 183.822998046875 1.049032211303711 C 191.45297241210938 3.063286781311035 196.9689178466797 8.534018516540527 198.98219299316406 16.038002014160156" stroke-width="0.0" fill="rgb(25, 25, 25)" opacity="0.99000293"/>
    <path d="M 198.01148986816406 199.26837158203125 C 196.1589813232422 207.83114624023438 192.1973114013672 213.64222717285156 184.73143005371094 214.2774658203125 C 177.31130981445312 212.14529418945312 171.74497985839844 206.72242736816406 169.37893676757812 199.56968688964844 C 171.03660583496094 192.55979919433594 176.64404296875 187.29327392578125 184.13003540039062 185.70408630371094 C 191.9143524169922 186.5782928466797 196.1845703125 192.89266967773438 198.01148986816406 199.26837158203125" stroke-width="0.0" fill="rgb(252, 252, 252)" opacity="0.990005"/>
    <path d="M 173.1622772216797 6.177004814147949 C 171.07508850097656 13.563026428222656 165.54135131835938 19.01508903503418 158.0263671875 21.013168334960938 C 150.5451202392578 20.953475952148438 145.07383728027344 15.446432113647461 143.21200561523438 7.808006286621094 C 146.00961303710938 -0.5 151.5 -5.990381240844727 159.16143798828125 -8.104811668395996 C 167.12030029296875 -6.4785685539245605 172.8189239501953 -1.2349958419799805 173.1622772216797 6.177004814147949" stroke-width="0.0" fill="rgb(19, 19, 19)" opacity="0.990003"/>
    <path d="M 72.9860610961914 46.965572357177734 C 70.97096252441406 54.470340728759766 65.4583969116211 59.935813903808594 57.83599090576172 61.777748107910156 C 50.34261703491211 58.2552490234375 44.968997955322266 52.581024169921875 42.99146270751953 45.23112869262695 C 44.93295669555664 37.63700485229492 48.544403076171875 32.03390121459961 56.056602478027344 30.011762619018555 C 65.26947784423828 32.11445617675781 70.67727661132812 37.891868591308594 72.9860610961914 46.965572357177734" stroke-width="0.0" fill="rgb(252, 252, 252)" opacity="0.9900038"/>
    <path d="M 157.98545837402344 126.96533966064453 C 155.96218872070312 134.44873046875 150.41131591796875 139.84902954101562 141.0569610595703 141.966796875 C 133.5404052734375 139.96287536621094 128.08587646484375 134.44406127929688 126.30086517333984 126.75350189208984 C 129.00967407226562 118.50009155273438 134.49948120117188 113.00738525390625 141.18785095214844 111.77991485595703 C 148.5565948486328 113.94580841064453 154.0423583984375 119.44696044921875 157.98545837402344 126.96533966064453" stroke-width="0.0" fill="rgb(6, 6, 6)" opacity="0.99000704"/>
    <path d="M 101.32405090332031 113.43977355957031 C 99.9903793334961 120.5 94.5 125.9903793334961 86.76216888427734 128.1747283935547 C 78.83687591552734 126.56182098388672 73.20369720458984 121.2374267578125 71.25448608398438 113.66421508789062 C 74.0096206665039 105.5 79.5 100.0096206665039 86.84365844726562 98.11822509765625 C 94.05641174316406 100.41363525390625 99.51412963867188 105.96424865722656 101.32405090332031 113.43977355957031" stroke-width="0.0" fill="rgb(252, 252, 251)" opacity="1.0"/>
    <path d="M 99.10798645019531 138.98170471191406 C 96.60755157470703 145.89242553710938 90.74208068847656 151.13238525390625 83.19470977783203 153.10623168945312 C 76.5 151.99038696289062 71.0096206665039 146.5 69.70781707763672 139.74281311035156 C 71.9209213256836 132.4266815185547 77.43920135498047 126.96121978759766 84.89216613769531 124.91600799560547 C 91.5 126.0096206665039 96.9903793334961 131.5 99.10798645019531 138.98170471191406" stroke-width="0.0" fill="rgb(252, 252, 252)" opacity="0.99003583"/>
    <path d="M 157.04598999023438 221.5966033935547 C 155.15269470214844 227.71002197265625 149.7112579345703 233.15684509277344 142.24221801757812 235.46580505371094 C 135.50291442871094 233.7319793701172 129.77334594726562 228.72239685058594 128.92543029785156 221.80604553222656 C 130.90037536621094 214.34022521972656 136.29075622558594 208.76202392578125 143.4656524658203 206.4435577392578 C 150.34906005859375 208.06922912597656 155.29248046875 213.94459533691406 157.04598999023438 221.5966033935547" stroke-width="0.0" fill="rgb(159, 160, 159)" opacity="1.0"/>
    <path d="M 137.00723266601562 186.7530975341797 C 135.018310546875 192.54107666015625 129.54530334472656 198.02557373046875 122.05785369873047 200.02622985839844 C 116.4049301147461 198.13809204101562 110.97813415527344 192.55628967285156 108.984130859375 185.03640747070312 C 109.31179809570312 177.87283325195312 114.91105651855469 172.41629028320312 122.59063720703125 170.3311767578125 C 129.71624755859375 173.60862731933594 135.03001403808594 179.4096221923828 137.00723266601562 186.7530975341797" stroke-width="0.0" fill="rgb(10, 10, 11)" opacity="0.9900013"/>
    <path d="M 96.94145202636719 106.15231323242188 C 93.9903793334961 114.5 88.5 119.9903793334961 81.79132843017578 121.16218566894531 C 74.36445617675781 119.09367370605469 68.1520767211914 113.70423889160156 66.984375 107.95142364501953 C 68.96891784667969 100.42484283447266 74.36870574951172 94.80421447753906 81.44348907470703 92.32785034179688 C 88.737060546875 93.90904998779297 94.77703094482422 98.93392181396484 96.94145202636719 106.15231323242188" stroke-width="0.0" fill="rgb(37, 37, 37)" opacity="0.9900079"/>
    <path d="M 76.96431732177734 200.8896942138672 C 74.92786407470703 207.22683715820312 67.57417297363281 212.02761840820312 60.06830978393555 214.04530334472656 C 53.5 212.99038696289062 48.009620666503906 207.5 46.91687774658203 200.9116668701172 C 48.977237701416016 193.4671630859375 54.46690368652344 187.9761505126953 60.13554382324219 185.98443603515625 C 69.37264251708984 187.77523803710938 74.91207885742188 191.58285522460938 76.96431732177734 200.8896942138672" stroke-width="0.0" fill="rgb(4, 4, 5)" opacity="0.9900033"/>
    <path d="M 182.66864013671875 175.63600158691406 C 180.82620239257812 183.3240509033203 175.31336975097656 188.79090881347656 167.9057159423828 189.12258911132812 C 160.46739196777344 187.02679443359375 154.98854064941406 181.52737426757812 152.97181701660156 174.04330444335938 C 154.00961303710938 167.5 159.5 162.00961303710938 167.93475341796875 159.02572631835938 C 175.33290100097656 161.0833740234375 180.3911590576172 166.87974548339844 182.66864013671875 175.63600158691406" stroke-width="0.0" fill="rgb(4, 4, 4)" opacity="0.99000216"/>
    <path d="M 51.31626892089844 206.38726806640625 C 48.403175354003906 213.87806701660156 42.847145080566406 219.30230712890625 35.56776809692383 221.48399353027344 C 28.97820281982422 219.6593780517578 23.807992935180664 213.8436737060547 21.963531494140625 207.81488037109375 C 23.949909210205078 200.4208526611328 29.393999099731445 194.82763671875 36.91917419433594 191.0213623046875 C 44.42366409301758 193.05528259277344 49.82244873046875 198.61807250976562 51.31626892089844 206.38726806640625" stroke-width="0.0" fill="rgb(133, 133, 133)" opacity="0.99006706"/>
    <path d="M 128.1496124267578 207.16265869140625 C 126.067138671875 214.63893127441406 120.73812103271484 220.360595703125 113.76604461669922 222.85690307617188 C 106.47854614257812 220.99710083007812 100.60697937011719 215.6691436767578 98.04415130615234 207.39271545410156 C 100.24375915527344 199.74615478515625 106.00476837158203 195.8282928466797 114.85460662841797 193.95956420898438 C 120.60376739501953 195.8799591064453 126.0633544921875 201.4131622314453 128.1496124267578 207.16265869140625" stroke-width="0.0" fill="rgb(6, 6, 6)" opacity="0.9900041"/>
    <path d="M 153.0563507080078 6.792416095733643 C 152.49473571777344 14.038330078125 146.36219787597656 18.205236434936523 138.08763122558594 20.23383140563965 C 132.38331604003906 18.204238891601562 126.94220733642578 12.586976051330566 124.86766815185547 5.108767032623291 C 125.24982452392578 -2.1473140716552734 130.9779052734375 -7.379792213439941 138.82015991210938 -9.024457931518555 C 145.99066162109375 -6.642667293548584 151.1622772216797 -0.8061984777450562 153.0563507080078 6.792416095733643" stroke-width="0.0" fill="rgb(108, 108, 108)" opacity="0.9900466"/>
    <path d="M 72.36466217041016 66.69379425048828 C 70.8408203125 73.35380554199219 65.34959411621094 78.82697296142578 57.93028259277344 80.9157485961914 C 50.5 78.9903793334961 45.009620666503906 73.5 43.00267028808594 66.00767517089844 C 45.110355377197266 58.74761962890625 51.14097213745117 53.85332107543945 57.0507926940918 51.991249084472656 C 64.54102325439453 53.984954833984375 70.08244323730469 59.43644332885742 72.36466217041016 66.69379425048828" stroke-width="0.0" fill="rgb(4, 4, 5)" opacity="0.9900165"/>
    <path d="M 135.06475830078125 99.83434295654297 C 134.71571350097656 107.24705505371094 129.24452209472656 112.710693359375 121.43881225585938 114.36701965332031 C 113.70159912109375 111.85455322265625 108.70014190673828 106.04830169677734 106.93315887451172 98.12377166748047 C 107.21293640136719 91.36821746826172 114.10248565673828 86.66951751708984 121.3992919921875 84.37248229980469 C 128.44862365722656 86.02659606933594 133.42840576171875 91.78582000732422 135.06475830078125 99.83434295654297" stroke-width="0.0" fill="rgb(186, 186, 185)" opacity="0.9900234"/>
    <path d="M 172.95213317871094 146.04452514648438 C 170.9082794189453 155.42201232910156 165.41696166992188 160.89096069335938 157.7158203125 162.67019653320312 C 149.5 159.99038696289062 144.00961303710938 154.5 141.98016357421875 146.9512939453125 C 143.6819305419922 138.9452362060547 148.69683837890625 133.09603881835938 156.03192138671875 132.88352966308594 C 165.15626525878906 134.96197509765625 170.9638671875 138.55108642578125 172.95213317871094 146.04452514648438" stroke-width="0.0" fill="rgb(3, 3, 4)" opacity="0.9900044"/>
    <path d="M 181.9947052001953 197.98690795898438 C 179.8790283203125 205.25746154785156 173.95948791503906 210.22886657714844 167.71702575683594 212.02374267578125 C 160.2447967529297 210.1156463623047 154.32879638671875 204.982666015625 152.9593505859375 198.9305877685547 C 154.96566772460938 191.3775177001953 158.61163330078125 184.04180908203125 166.03573608398438 182.01283264160156 C 174.5722198486328 184.7948760986328 179.9916229248047 190.49571228027344 181.9947052001953 197.98690795898438" stroke-width="0.0" fill="rgb(250, 250, 249)" opacity="0.99002135"/>
    <path d="M 110.50775909423828 5.430683612823486 C 108.1433334350586 12.608145713806152 102.56961059570312 18.03172492980957 95.05284118652344 20.018884658813477 C 89.24835205078125 19.799480438232422 83.9559326171875 12.595907211303711 81.5582275390625 5.063930511474609 C 82.1949234008789 -2.1293704509735107 88.16356658935547 -7.1370062828063965 95.99087524414062 -8.997913360595703 C 103.5 -6.990381240844727 108.9903793334961 -1.5 110.50775909423828 5.430683612823486" stroke-width="0.0" fill="rgb(64, 65, 64)" opacity="0.9900076"/>
    <path d="M 126.06163024902344 4.041531085968018 C 124.0455322265625 11.608582496643066 118.7008285522461 17.33637237548828 112.97438049316406 19.016082763671875 C 105.46097564697266 17.013212203979492 99.94715881347656 11.556865692138672 97.92173767089844 4.131959915161133 C 99.34270477294922 -2.265281915664673 104.65857696533203 -7.895793914794922 112.18389129638672 -10.086847305297852 C 120.2103500366211 -8.54332160949707 125.90382385253906 -3.337141752243042 126.06163024902344 4.041531085968018" stroke-width="0.0" fill="rgb(6, 5, 6)" opacity="0.99000394"/>
    <path d="M 139.156494140625 88.20148468017578 C 137.07171630859375 95.59098052978516 131.60125732421875 101.10803985595703 125.7136459350586 103.23110961914062 C 118.43180084228516 101.06159210205078 112.97125244140625 95.55531311035156 110.9885482788086 88.06629943847656 C 112.73585510253906 81.95333862304688 117.60203552246094 76.04447174072266 124.21240997314453 74.85868835449219 C 131.689208984375 76.88473510742188 137.36692810058594 82.22994995117188 139.156494140625 88.20148468017578" stroke-width="0.0" fill="rgb(252, 252, 252)" opacity="0.99000996"/>
    <path d="M 230.55963134765625 93.2992172241211 C 228.32418823242188 101.01604461669922 223.203125 106.821533203125 215.96942138671875 108.9848403930664 C 208.5 106.9903793334961 203.00961303710938 101.5 201.59619140625 94.58949279785156 C 203.8124542236328 87.28777313232422 209.2479248046875 81.591552734375 215.3749542236328 78.13152313232422 C 223.48660278320312 81.01948547363281 229.14962768554688 86.46190643310547 230.55963134765625 93.2992172241211" stroke-width="0.0" fill="rgb(252, 252, 251)" opacity="0.9910247"/>
    <path d="M 185.01296997070312 197.88699340820312 C 184.95399475097656 205.47084045410156 179.47608947753906 210.97177124023438 170.6162109375 212.99066162109375 C 162.54905700683594 210.96377563476562 157.14955139160156 205.41355895996094 155.0253448486328 196.09291076660156 C 158.78138732910156 190.441162109375 164.4610137939453 184.9803924560547 171.9651641845703 181.18626403808594 C 179.46548461914062 183.038330078125 184.90318298339844 188.5449676513672 185.01296997070312 197.88699340820312" stroke-width="0.0" fill="rgb(40, 41, 40)" opacity="0.9900019"/>
    <path d="M 163.01019287109375 208.94496154785156 C 161.0277557373047 214.53964233398438 155.5381622314453 220.02389526367188 148.1028289794922 222.06434631347656 C 142.3095245361328 220.11886596679688 135.41690063476562 214.8599090576172 133.24974060058594 208.739501953125 C 136.75022888183594 201.30941772460938 142.37118530273438 195.92784118652344 148.04672241210938 193.98167419433594 C 155.52825927734375 195.98460388183594 161.01036071777344 201.47396850585938 163.01019287109375 208.94496154785156" stroke-width="0.0" fill="rgb(252, 252, 252)" opacity="0.9900029"/>
    <path d="M 152.0 165.0 C 149.99021911621094 172.49942016601562 144.48153686523438 177.92681884765625 137.73951721191406 179.04730224609375 C 130.16917419433594 177.23841857910156 124.63517761230469 171.878173828125 122.51693725585938 164.6562957763672 C 124.16172790527344 157.60240173339844 129.57147216796875 152.05960083007812 137.0112762451172 150.00474548339844 C 144.5 152.00961303710938 149.99038696289062 157.5 152.0 165.0" stroke-width="0.0" fill="rgb(5, 5, 5)" opacity="0.9900217"/>
    <path d="M 104.02670288085938 119.92301940917969 C 102.21637725830078 125.93885803222656 97.23590087890625 131.869384765625 89.14832305908203 134.8558807373047 C 81.55567169189453 132.93458557128906 76.06317138671875 127.445068359375 75.83283233642578 119.82829284667969 C 77.42082214355469 111.62349700927734 82.40614318847656 105.86620330810547 89.3207778930664 103.74547576904297 C 96.55296325683594 106.93108367919922 102.01831817626953 112.46111297607422 104.02670288085938 119.92301940917969" stroke-width="0.0" fill="rgb(29, 30, 28)" opacity="0.9900028"/>
    <path d="M 131.88418579101562 73.36213684082031 C 128.0389862060547 80.53577423095703 122.53059387207031 86.01787567138672 115.0379409790039 89.9830093383789 C 107.59254455566406 87.9459228515625 102.33562469482422 82.30951690673828 100.85759735107422 74.24716186523438 C 103.00548553466797 66.48648071289062 108.3810806274414 60.69929122924805 115.36009979248047 58.14200210571289 C 123.50023651123047 61.00967025756836 128.99221801757812 66.49922180175781 131.88418579101562 73.36213684082031" stroke-width="0.0" fill="rgb(4, 4, 4)" opacity="0.9900049"/>
    <path d="M 134.97010803222656 132.95753479003906 C 132.9717559814453 140.47882080078125 127.47964477539062 145.973876953125 119.9549560546875 147.9900360107422 C 112.43972778320312 144.12925720214844 106.9643325805664 138.54812622070312 104.92356872558594 131.19760131835938 C 106.88920593261719 125.3409652709961 112.29839324951172 119.75111389160156 119.41740417480469 117.34172821044922 C 126.5011215209961 119.00920104980469 132.00071716308594 124.49607849121094 134.97010803222656 132.95753479003906" stroke-width="0.0" fill="rgb(4, 4, 4)" opacity="0.9900053"/>
    <path d="M 61.118194580078125 166.12306213378906 C 59.034610748291016 173.54132080078125 53.537208557128906 179.02218627929688 47.89188003540039 181.03546142578125 C 40.4579963684082 179.0185546875 34.91718673706055 173.5608367919922 32.98686218261719 167.87684631347656 C 34.94291687011719 160.30789184570312 39.281959533691406 153.37327575683594 46.564029693603516 151.56394958496094 C 54.5 154.00961303710938 59.990379333496094 159.5 61.118194580078125 166.12306213378906" stroke-width="0.0" fill="rgb(23, 24, 24)" opacity="0.9900027"/>
    <path d="M 102.36543273925781 176.58987426757812 C 100.9903793334961 183.5 95.5 188.99038696289062 88.0 191.0 C 80.5 188.99038696289062 75.0096206665039 183.5 73.0 176.0 C 75.0096206665039 168.5 80.49964904785156 163.00830078125 88.95945739746094 160.01588439941406 C 96.38671875 162.05227661132812 100.26658630371094 168.11972045898438 102.36543273925781 176.58987426757812" stroke-width="0.0" fill="rgb(0, 0, 0)" opacity="1.0"/>
    <path d="M 231.9917449951172 160.94357299804688 C 229.9753875732422 168.4803924560547 224.4780731201172 173.969482421875 216.95126342773438 175.96591186523438 C 208.72804260253906 172.865234375 203.57504272460938 167.1134796142578 201.6761474609375 159.6329345703125 C 203.69393920898438 153.31689453125 209.41465759277344 147.96981811523438 215.15582275390625 145.9929962158203 C 222.53684997558594 147.9884796142578 229.90611267089844 153.40489196777344 231.9917449951172 160.94357299804688" stroke-width="0.0" fill="rgb(5, 5, 6)" opacity="0.990002"/>
    <path d="M 49.10926055908203 79.8171615600586 C 47.01472091674805 87.5483169555664 41.607479095458984 93.20260620117188 34.96860885620117 94.01905822753906 C 27.481412887573242 92.00626373291016 21.995546340942383 86.517822265625 19.994218826293945 79.2739028930664 C 21.993967056274414 73.47981262207031 27.479455947875977 67.99317932128906 34.96587371826172 65.99089050292969 C 42.25258255004883 66.22537994384766 47.54367446899414 71.80765533447266 49.10926055908203 79.8171615600586" stroke-width="0.0" fill="rgb(5, 5, 6)" opacity="0.990001"/>
    <path d="M 126.01722717285156 214.04986572265625 C 124.03142547607422 221.62132263183594 120.34417724609375 228.9424285888672 111.2187728881836 230.97808837890625 C 103.5752182006836 228.93295288085938 98.0547103881836 223.43307495117188 97.97228240966797 215.9461212158203 C 99.8909912109375 208.07374572753906 103.73499298095703 201.1125030517578 111.18950653076172 199.0429229736328 C 120.40768432617188 201.09774780273438 125.89696502685547 206.59376525878906 126.01722717285156 214.04986572265625" stroke-width="0.0" fill="rgb(52, 52, 52)" opacity="0.99001515"/>
    <path d="M 218.89833068847656 178.0896759033203 C 215.26234436035156 185.6980743408203 209.64297485351562 191.08799743652344 202.2110137939453 193.04469299316406 C 195.07960510253906 192.11972045898438 189.736083984375 186.9346466064453 188.46908569335938 179.259521484375 C 190.7131805419922 172.30123901367188 196.36387634277344 166.9197235107422 203.97344970703125 163.01475524902344 C 211.47479248046875 165.02774047851562 216.95773315429688 170.53062438964844 218.89833068847656 178.0896759033203" stroke-width="0.0" fill="rgb(252, 252, 252)" opacity="0.99001265"/>
    <path d="M 139.00807189941406 118.15522766113281 C 137.01043701171875 125.5267333984375 131.53506469726562 131.04360961914062 125.97115325927734 133.01889038085938 C 118.43679809570312 131.022216796875 112.8066177368164 125.6217041015625 110.296875 118.57760620117188 C 112.00960540771484 111.49993896484375 117.49710083007812 105.9991226196289 125.0583724975586 103.14942932128906 C 131.56886291503906 106.891845703125 137.01907348632812 112.4549789428711 139.00807189941406 118.15522766113281" stroke-width="0.0" fill="rgb(251, 251, 251)" opacity="0.99000293"/>
    <path d="M 181.01426696777344 45.03901290893555 C 179.0235137939453 52.594947814941406 175.3890838623047 59.959312438964844 167.92347717285156 61.99015426635742 C 160.43911743164062 59.55437469482422 154.98536682128906 52.53495407104492 152.92694091796875 45.14539337158203 C 154.98458862304688 39.47610855102539 160.47865295410156 33.99215316772461 167.8730010986328 31.981592178344727 C 173.53392028808594 33.98518371582031 179.10000610351562 39.45022964477539 181.01426696777344 45.03901290893555" stroke-width="0.0" fill="rgb(18, 19, 19)" opacity="0.9900011"/>
    <path d="M 234.00521850585938 54.87759780883789 C 232.0132598876953 60.54172134399414 226.5723876953125 66.10572052001953 219.38418579101562 68.4949722290039 C 212.5 66.9903793334961 207.00961303710938 61.5 205.96141052246094 54.95079803466797 C 207.98995971679688 47.4793586730957 213.4813232421875 41.99504089355469 220.9776611328125 39.97720718383789 C 226.5303192138672 41.95628356933594 232.00498962402344 47.47883605957031 234.00521850585938 54.87759780883789" stroke-width="0.0" fill="rgb(3, 3, 3)" opacity="0.9900012"/>
    <path d="M 49.0150032043457 229.1531982421875 C 47.03858184814453 236.5834197998047 41.987937927246094 243.9272003173828 35.444175720214844 245.99009704589844 C 26.594465255737305 243.94371032714844 21.32244300842285 238.3134307861328 19.835920333862305 230.261474609375 C 21.906530380249023 222.27685546875 27.023656845092773 216.31024169921875 34.2669563293457 214.1432342529297 C 42.090576171875 216.4943084716797 47.08464813232422 223.2909393310547 49.0150032043457 229.1531982421875" stroke-width="0.0" fill="rgb(20, 20, 20)" opacity="0.99000496"/>
    <path d="M 158.89248657226562 81.86102294921875 C 156.60629272460938 89.0481185913086 150.99925231933594 94.44487762451172 143.45623779296875 97.79513549804688 C 137.034423828125 94.49637603759766 131.43797302246094 88.9873275756836 129.95553588867188 82.9447021484375 C 131.98841857910156 75.47840118408203 137.48098754882812 69.99517822265625 144.97738647460938 67.989013671875 C 151.5 69.0096206665039 156.99038696289062 74.5 158.89248657226562 81.86102294921875" stroke-width="0.0" fill="rgb(252, 252, 252)" opacity="0.9900049"/>
    <path d="M 167.10504150390625 159.9722900390625 C 166.94638061523438 167.3232879638672 159.60231018066406 171.03091430664062 152.06784057617188 173.04222106933594 C 145.5 171.99038696289062 140.00961303710938 166.5 138.0 159.0 C 140.00961303710938 151.5 145.5 146.00961303710938 152.21595764160156 144.74607849121094 C 159.5519256591797 146.94154357910156 165.01614379882812 152.46205139160156 167.10504150390625 159.9722900390625" stroke-width="0.0" fill="rgb(250, 250, 249)" opacity="0.9900053"/>
    <path d="M 68.22203826904297 205.25303649902344 C 66.10296630859375 212.60643005371094 60.570106506347656 218.02859497070312 53.07770538330078 220.00921630859375 C 47.43318176269531 218.05039978027344 41.97857666015625 212.55111694335938 39.98583984375 205.04539489746094 C 41.745201110839844 199.39662170410156 47.43913650512695 193.9718475341797 54.929744720458984 191.95286560058594 C 61.65060806274414 192.80950927734375 67.13108825683594 198.3675079345703 68.22203826904297 205.25303649902344" stroke-width="0.0" fill="rgb(5, 5, 5)" opacity="0.99000436"/>
    <path d="M 101.00839233398438 195.03033447265625 C 99.0048599243164 202.5185546875 93.52024841308594 208.0093231201172 86.04972839355469 210.1294403076172 C 78.55182647705078 209.92581176757812 73.050537109375 204.4543914794922 71.03214263916016 195.1269989013672 C 73.03620147705078 187.53489685058594 78.54368591308594 182.06414794921875 86.17221069335938 180.19920349121094 C 94.33821868896484 183.07066345214844 99.20679473876953 189.03903198242188 101.00839233398438 195.03033447265625" stroke-width="0.0" fill="rgb(5, 4, 5)" opacity="0.99000174"/>
    <path d="M 219.6939697265625 103.60426330566406 C 217.21694946289062 110.645263671875 211.5887908935547 116.04193878173828 204.0899658203125 118.0425033569336 C 198.29360961914062 116.17035675048828 192.63101196289062 110.75100708007812 190.95401000976562 103.10311889648438 C 191.1179656982422 95.65966796875 196.76348876953125 91.19731140136719 205.65155029296875 89.84617614746094 C 212.4507293701172 91.07525634765625 217.93565368652344 96.5462417602539 219.6939697265625 103.60426330566406" stroke-width="0.0" fill="rgb(252, 252, 252)" opacity="1.0"/>
    <path d="M 201.01220703125 220.02377319335938 C 199.00563049316406 227.52029418945312 193.52178955078125 233.00888061523438 187.86119079589844 235.00579833984375 C 180.47573852539062 233.00680541992188 174.97122192382812 227.5321502685547 172.9721221923828 221.8522491455078 C 174.9461669921875 212.84005737304688 178.54995727539062 207.0318603515625 186.06732177734375 205.00775146484375 C 195.44207763671875 207.0413818359375 200.82861328125 212.6007080078125 201.01220703125 220.02377319335938" stroke-width="0.0" fill="rgb(3, 3, 3)" opacity="0.99000126"/>
    <path d="M 110.04490661621094 132.16688537597656 C 108.01814270019531 139.52658081054688 102.52235412597656 145.0068359375 95.04033660888672 147.00758361816406 C 89.34986114501953 145.06459045410156 83.56800079345703 139.78851318359375 80.33446502685547 133.0902557373047 C 83.80072021484375 126.30108642578125 89.3164291381836 120.85374450683594 95.09780883789062 118.96790313720703 C 102.53926849365234 120.97596740722656 108.0352783203125 126.45706176757812 110.04490661621094 132.16688537597656" stroke-width="0.0" fill="rgb(2, 2, 2)" opacity="0.99000144"/>
    <path d="M 68.99848937988281 66.00495910644531 C 66.99100494384766 73.50076293945312 61.500911712646484 78.99150085449219 54.00027084350586 81.00062561035156 C 46.4892578125 78.99378967285156 40.74633026123047 73.59674835205078 39.50189971923828 66.9273910522461 C 41.98032760620117 59.45807647705078 47.43925476074219 53.90681076049805 53.416141510009766 51.981689453125 C 60.95846176147461 53.792198181152344 66.92394256591797 58.673744201660156 68.99848937988281 66.00495910644531" stroke-width="0.0" fill="rgb(4, 4, 5)" opacity="0.99000823"/>
    <path d="M 109.01449584960938 181.98023986816406 C 108.9322738647461 189.3925323486328 103.32723999023438 194.78756713867188 95.8465805053711 195.01666259765625 C 86.53985595703125 194.92527770996094 81.03497314453125 189.46881103515625 79.04525756835938 181.94122314453125 C 82.11815643310547 173.7573699951172 88.12847137451172 168.84263610839844 95.86371612548828 166.9795379638672 C 101.54826354980469 168.89999389648438 107.00831604003906 174.47080993652344 109.01449584960938 181.98023986816406" stroke-width="0.0" fill="rgb(252, 252, 252)" opacity="0.99000186"/>
    <path d="M 239.81369018554688 110.35345458984375 C 236.56277465820312 117.7890625 230.65769958496094 123.07636260986328 223.09341430664062 125.0649642944336 C 215.6019744873047 124.87513732910156 210.08807373046875 119.40930938720703 208.15692138671875 111.81916809082031 C 211.0172576904297 103.51380157470703 216.52622985839844 98.05941772460938 224.71189880371094 95.2702865600586 C 232.32875061035156 97.14896392822266 237.75204467773438 102.70308685302734 239.81369018554688 110.35345458984375" stroke-width="0.0" fill="rgb(252, 252, 252)" opacity="1.0"/>
    <path d="M 162.05393981933594 148.11331176757812 C 160.301513671875 155.98976135253906 155.1429901123047 161.67665100097656 148.52210998535156 163.51971435546875 C 141.40631103515625 161.13685607910156 135.98074340820312 155.55348205566406 133.99327087402344 149.72793579101562 C 135.98919677734375 142.47361755371094 141.47450256347656 136.9908447265625 148.69427490234375 134.99371337890625 C 154.53106689453125 136.9886474609375 160.08065795898438 142.45387268066406 162.05393981933594 148.11331176757812" stroke-width="0.0" fill="rgb(252, 252, 252)" opacity="0.9900014"/>
    <path d="M 242.005615234375 74.11204528808594 C 240.00367736816406 81.51698303222656 234.51840209960938 87.00720977783203 227.5010223388672 89.01453399658203 C 221.47572326660156 87.00926971435547 215.97023010253906 81.53011322021484 212.08438110351562 74.32828521728516 C 214.9794464111328 67.44535827636719 220.39527893066406 61.81830978393555 227.04942321777344 60.964088439941406 C 234.52427673339844 62.987762451171875 240.00738525390625 68.47773742675781 242.005615234375 74.11204528808594" stroke-width="0.0" fill="rgb(4, 4, 4)" opacity="0.99000096"/>
    <path d="M 132.0233917236328 115.02824401855469 C 130.0108642578125 122.52870178222656 124.54045104980469 128.0634307861328 118.89631652832031 131.9612579345703 C 111.44525909423828 128.0662841796875 105.98421478271484 122.53849029541016 103.97835540771484 115.04569244384766 C 104.4290771484375 109.37739562988281 111.44325256347656 103.97757720947266 118.86409759521484 101.94996643066406 C 124.53701782226562 103.97809600830078 130.08981323242188 109.45166015625 132.0233917236328 115.02824401855469" stroke-width="0.0" fill="rgb(4, 3, 4)" opacity="0.9900014"/>
    <path d="M 78.2746810913086 142.62457275390625 C 75.9903793334961 150.5 70.5 155.99038696289062 63.0 158.0 C 55.5 155.99038696289062 50.009620666503906 150.5 48.5308952331543 143.51698303222656 C 50.77725601196289 136.28858947753906 56.32796096801758 130.88526916503906 63.90570831298828 128.83045959472656 C 71.37630462646484 129.0902099609375 76.72775268554688 134.68067932128906 78.2746810913086 142.62457275390625" stroke-width="0.0" fill="rgb(101, 100, 100)" opacity="1.0"/>
    <path d="M 198.9749755859375 171.8887176513672 C 196.96437072753906 179.46926879882812 191.46945190429688 184.9650421142578 183.93067932128906 186.98690795898438 C 176.3966827392578 183.49124145507812 170.95785522460938 177.5681610107422 167.06671142578125 170.09878540039062 C 170.85385131835938 164.3673553466797 176.37863159179688 158.89906311035156 183.7757110595703 156.812255859375 C 191.202880859375 157.47268676757812 196.9049072265625 162.66354370117188 198.9749755859375 171.8887176513672" stroke-width="0.0" fill="rgb(142, 143, 143)" opacity="0.99001265"/>
    <path d="M 61.58411407470703 148.91302490234375 C 58.36903762817383 154.67149353027344 52.5975456237793 160.04661560058594 46.94989776611328 162.01116943359375 C 39.46513748168945 160.01402282714844 33.9635009765625 154.5439453125 30.164674758911133 147.06060791015625 C 32.06782531738281 139.5801544189453 37.600624084472656 134.1270751953125 45.07381057739258 133.80874633789062 C 52.530792236328125 135.98095703125 58.023284912109375 141.46786499023438 61.58411407470703 148.91302490234375" stroke-width="0.0" fill="rgb(252, 252, 252)" opacity="0.9900025"/>
    <path d="M 54.987060546875 122.27572631835938 C 52.946712493896484 131.43907165527344 47.42625045776367 136.91549682617188 38.17885208129883 138.9794464111328 C 30.964969635009766 136.90882873535156 26.931461334228516 129.65325927734375 24.972030639648438 123.61085510253906 C 26.94523048400879 116.4001693725586 32.245262145996094 109.13862609863281 38.15322494506836 107.0211181640625 C 47.447364807128906 109.05496215820312 52.95066833496094 114.55074310302734 54.987060546875 122.27572631835938" stroke-width="0.0" fill="rgb(125, 125, 125)" opacity="0.9900103"/>
    <path d="M 66.40424346923828 85.5570068359375 C 64.22456359863281 92.68973541259766 58.64894485473633 98.10022735595703 51.21021270751953 100.15484619140625 C 44.52299118041992 98.97745513916016 39.08705139160156 93.45777130126953 37.32212448120117 86.13973236083984 C 39.315128326416016 78.73213195800781 44.68172836303711 73.15387725830078 51.973358154296875 71.16490173339844 C 59.32828903198242 73.16720581054688 64.7170639038086 78.70805358886719 66.40424346923828 85.5570068359375" stroke-width="0.0" fill="rgb(3, 4, 4)" opacity="0.9900134"/>
    <path d="M 106.15772247314453 34.16474151611328 C 104.06929779052734 41.59152603149414 98.60262298583984 47.105831146240234 91.20597076416016 50.774513244628906 C 83.82013702392578 48.744083404541016 78.38128662109375 43.132896423339844 76.36976623535156 35.322471618652344 C 78.74906921386719 27.214807510375977 84.11199951171875 21.47310447692871 91.5374526977539 19.31133270263672 C 99.80516052246094 21.777406692504883 105.45081329345703 27.124038696289062 106.15772247314453 34.16474151611328" stroke-width="0.0" fill="rgb(248, 248, 247)" opacity="0.9900351"/>
    <path d="M 114.00617980957031 78.64932250976562 C 112.00988006591797 85.52886962890625 106.54084777832031 91.05231475830078 99.39014434814453 94.85983276367188 C 92.8298568725586 91.97891235351562 87.43865203857422 86.07595825195312 84.08805847167969 79.39083099365234 C 86.3712158203125 70.9442138671875 92.00614929199219 65.56102752685547 99.35692596435547 64.45304107666016 C 106.57884979248047 66.88813781738281 112.01654815673828 72.45319366455078 114.00617980957031 78.64932250976562" stroke-width="0.0" fill="rgb(252, 252, 252)" opacity="0.99000514"/>
    <path d="M 201.09739685058594 145.8530731201172 C 199.01722717285156 153.57772827148438 193.82737731933594 159.5888214111328 185.30979919433594 161.955078125 C 177.8370819091797 159.8341827392578 172.43447875976562 153.92820739746094 170.887451171875 146.94644165039062 C 173.97845458984375 139.46739196777344 179.46749877929688 133.9785614013672 186.93045043945312 130.22817993164062 C 194.2379150390625 132.16539001464844 199.4544677734375 137.89999389648438 201.09739685058594 145.8530731201172" stroke-width="0.0" fill="rgb(252, 252, 251)" opacity="0.9900188"/>
    <path d="M 98.69093322753906 96.19615173339844 C 96.09175872802734 103.7557373046875 92.36638641357422 110.94927978515625 84.98206329345703 111.06375122070312 C 77.4636001586914 109.0098648071289 70.13336181640625 103.59354400634766 68.01250457763672 96.07470703125 C 70.04002380371094 88.58832550048828 77.35614013671875 84.96893310546875 84.90127563476562 82.98480987548828 C 90.85624694824219 84.8467788696289 96.9075698852539 89.78668975830078 98.69093322753906 96.19615173339844" stroke-width="0.0" fill="rgb(252, 252, 252)" opacity="0.9900022"/>
    <path d="M 212.40260314941406 150.2214813232422 C 209.50877380371094 157.8691864013672 203.7348175048828 163.1285400390625 197.94956970214844 165.02679443359375 C 190.4707794189453 163.01251220703125 184.94424438476562 157.53903198242188 181.02220153808594 151.90460205078125 C 184.981201171875 144.4744415283203 190.47816467285156 138.99261474609375 197.92185974121094 136.99261474609375 C 205.1237335205078 138.9376983642578 210.90963745117188 142.6029510498047 212.40260314941406 150.2214813232422" stroke-width="0.0" fill="rgb(5, 4, 5)" opacity="0.9900013"/>
    <path d="M 159.98748779296875 167.1529083251953 C 157.94325256347656 176.4522247314453 152.464111328125 181.9680938720703 144.9710235595703 183.98422241210938 C 137.40728759765625 180.04884338378906 131.79953002929688 174.64036560058594 129.27731323242188 167.3402557373047 C 130.16404724121094 159.5989532470703 135.5648956298828 154.05067443847656 143.01953125 153.98931884765625 C 150.5253448486328 155.99378967285156 156.5928192138672 161.453857421875 159.98748779296875 167.1529083251953" stroke-width="0.0" fill="rgb(4, 4, 5)" opacity="0.99000233"/>
    <path d="M 94.07281494140625 172.90921020507812 C 93.12841033935547 179.70376586914062 87.83783721923828 185.49899291992188 80.90596008300781 186.0199432373047 C 73.22020721435547 184.11727905273438 67.24392700195312 179.07542419433594 65.01693725585938 171.9640350341797 C 67.0096206665039 164.5 72.5 159.00961303710938 79.09673309326172 157.93441772460938 C 86.5469970703125 159.9654083251953 92.02965545654297 165.45484924316406 94.07281494140625 172.90921020507812" stroke-width="0.0" fill="rgb(251, 251, 251)" opacity="0.99000466"/>
    <path d="M 158.01280212402344 252.90652465820312 C 156.09286499023438 258.7177429199219 150.93955993652344 264.632080078125 144.0093231201172 266.93402099609375 C 137.1044464111328 264.5946960449219 131.92628479003906 258.6835632324219 129.98953247070312 252.92507934570312 C 131.9866943359375 245.4690704345703 137.45855712890625 239.94207763671875 143.037353515625 236.2548828125 C 150.53231811523438 239.9839630126953 156.01824951171875 245.46664428710938 158.01280212402344 252.90652465820312" stroke-width="0.0" fill="rgb(46, 46, 45)" opacity="0.99000156"/>
    <path d="M 91.98458099365234 143.0318603515625 C 88.38139343261719 150.74159240722656 82.68270111083984 156.130615234375 75.25592803955078 158.1996307373047 C 67.91239929199219 157.3936004638672 62.12771987915039 152.27098083496094 61.905120849609375 144.92373657226562 C 62.12156295776367 135.56715393066406 67.548095703125 130.04344177246094 75.18310546875 128.02545166015625 C 84.47181701660156 130.0400390625 89.97328186035156 135.52328491210938 91.98458099365234 143.0318603515625" stroke-width="0.0" fill="rgb(252, 252, 252)" opacity="0.9900062"/>
    <path d="M 116.77993774414062 62.78520584106445 C 114.10218048095703 68.71569061279297 107.58316040039062 74.02828216552734 100.19055938720703 76.00846862792969 C 94.45056915283203 74.03660583496094 88.97328186035156 68.54501342773438 86.94818115234375 61.16040802001953 C 88.95948028564453 55.45818328857422 94.46613311767578 49.983890533447266 100.07967376708984 47.98618698120117 C 107.52842712402344 49.98988342285156 113.04304504394531 55.46152114868164 116.77993774414062 62.78520584106445" stroke-width="0.0" fill="rgb(5, 5, 5)" opacity="0.9900022"/>
    <path d="M 222.131591796875 63.63173294067383 C 219.28964233398438 70.67741394042969 213.5871124267578 76.03242492675781 206.093994140625 78.01065826416016 C 200.46044921875 76.02835845947266 194.93824768066406 70.54594421386719 191.01768493652344 63.26996994018555 C 194.90525817871094 57.435020446777344 200.43820190429688 51.93436050415039 207.92864990234375 49.973777770996094 C 214.71971130371094 50.723270416259766 220.23965454101562 56.292579650878906 222.131591796875 63.63173294067383" stroke-width="0.0" fill="rgb(4, 4, 4)" opacity="0.9900027"/>
    <path d="M 81.9662857055664 162.7244873046875 C 79.90056610107422 171.3717041015625 74.3333969116211 176.78785705566406 66.79415130615234 177.27490234375 C 59.43016815185547 175.0768280029297 53.95425033569336 169.56105041503906 51.89552688598633 163.73280334472656 C 52.267860412597656 154.72409057617188 57.697181701660156 149.17086791992188 66.43452453613281 147.1032257080078 C 74.4012222290039 149.1055145263672 79.9194564819336 154.58946228027344 81.9662857055664 162.7244873046875" stroke-width="0.0" fill="rgb(223, 223, 222)" opacity="0.9900073"/>
    <path d="M 39.02208709716797 228.9654083251953 C 38.96492385864258 236.46656799316406 33.45641326904297 241.92764282226562 24.64011573791504 243.88861083984375 C 16.685335159301758 241.85159301757812 11.214963912963867 236.28753662109375 9.038421630859375 227.1679229736328 C 11.156085014343262 219.95021057128906 17.906726837158203 215.47821044921875 24.105213165283203 213.70533752441406 C 31.537919998168945 215.97320556640625 37.02593231201172 221.46224975585938 39.02208709716797 228.9654083251953" stroke-width="0.0" fill="rgb(252, 252, 252)" opacity="0.9900044"/>
    <path d="M 238.00689697265625 186.07192993164062 C 236.00633239746094 193.52098083496094 230.52366638183594 199.01327514648438 223.02578735351562 202.98348999023438 C 215.55233764648438 200.96185302734375 210.0672607421875 195.42828369140625 208.00804138183594 186.04095458984375 C 210.02523803710938 178.5212860107422 215.52450561523438 173.03302001953125 223.27163696289062 171.01095581054688 C 232.345947265625 173.04931640625 236.0242156982422 180.4080352783203 238.00689697265625 186.07192993164062" stroke-width="0.0" fill="rgb(5, 5, 5)" opacity="0.9900017"/>
    <path d="M 140.92929077148438 48.03453063964844 C 137.01968383789062 55.528541564941406 131.5243682861328 61.0085334777832 124.844482421875 63.00676727294922 C 118.47259521484375 61.00883102416992 112.96015930175781 55.537574768066406 109.35256958007812 48.16753387451172 C 112.21704864501953 42.05875015258789 118.27031707763672 36.89197540283203 125.97859191894531 33.01276397705078 C 133.478271484375 35.02486801147461 138.96530151367188 40.5258903503418 140.92929077148438 48.03453063964844" stroke-width="0.0" fill="rgb(252, 252, 251)" opacity="0.99000764"/>
  </g>
</svg>
