<?xml version="1.0" ?>
<svg xmlns="http://www.w3.org/2000/svg" version="1.1" width="256" height="256">
  <defs/>
  <g>
    <path d="M 261.79156494140625 80.47404479980469 C 259.8403015136719 89.36966705322266 254.38697814941406 94.89593505859375 246.79574584960938 96.83281707763672 C 238.36663818359375 94.04656982421875 232.4417266845703 88.83626556396484 230.07521057128906 80.17644500732422 C 232.07142639160156 72.56385803222656 237.55526733398438 67.05028533935547 246.79579162597656 65.01614379882812 C 254.4476776123047 67.0443115234375 259.8996887207031 72.57176208496094 261.79156494140625 80.47404479980469" stroke-width="0.0" fill="rgb(160, 115, 70)" opacity="1.0"/>
    <path d="M 213.9290771484375 54.150508880615234 C 211.61439514160156 63.02869415283203 205.9528350830078 68.38531494140625 198.15415954589844 70.1352767944336 C 190.5 67.9903793334961 185.00961303710938 62.5 183.2002410888672 55.08748245239258 C 184.88319396972656 47.07432174682617 189.8135528564453 41.170047760009766 198.73275756835938 39.03437423706055 C 206.40426635742188 41.08221435546875 211.90966796875 46.5993537902832 213.9290771484375 54.150508880615234" stroke-width="0.0" fill="rgb(218, 189, 158)" opacity="1.0"/>
    <path d="M 107.44290161132812 33.47465133666992 C 105.7517318725586 41.30036544799805 100.34520721435547 46.8813591003418 92.7941665649414 48.9164924621582 C 83.93905639648438 46.59590530395508 78.2830810546875 41.11503219604492 77.24211120605469 33.811100006103516 C 79.87342071533203 26.353614807128906 85.3596420288086 20.890167236328125 92.77472686767578 18.7962589263916 C 99.5215835571289 19.944555282592773 104.991455078125 25.496719360351562 107.44290161132812 33.47465133666992" stroke-width="0.0" fill="rgb(222, 193, 158)" opacity="0.99004084"/>
    <path d="M 48.07622528076172 104.4727783203125 C 45.240394592285156 111.66236877441406 39.59992980957031 117.04841613769531 32.07637405395508 119.02521514892578 C 24.566909790039062 118.90301513671875 19.038623809814453 113.45375061035156 17.0237979888916 105.9358139038086 C 19.050128936767578 96.55953216552734 24.583160400390625 91.12531280517578 33.95236587524414 89.0172348022461 C 41.41802978515625 91.05175018310547 46.739830017089844 96.65339660644531 48.07622528076172 104.4727783203125" stroke-width="0.0" fill="rgb(8, 8, 7)" opacity="0.9900025"/>
    <path d="M 50.0 51.0 C 47.990379333496094 58.5 42.5 63.990379333496094 35.0 66.0 C 27.5 63.990379333496094 22.009618759155273 58.5 20.0 51.0 C 22.009618759155273 43.5 27.5 38.009620666503906 35.0 36.0 C 42.5 38.009620666503906 47.990379333496094 43.5 50.0 51.0" stroke-width="0.0" fill="rgb(209, 214, 207)" opacity="1.0"/>
    <path d="M 224.98275756835938 228.1793212890625 C 222.9464111328125 237.44821166992188 217.45132446289062 242.9532928466797 208.2627410888672 244.9845733642578 C 200.5392303466797 242.9587860107422 195.04405212402344 237.45965576171875 193.04107666015625 229.9320068359375 C 195.78392028808594 221.08047485351562 200.81332397460938 215.16358947753906 209.83384704589844 213.02940368652344 C 217.44789123535156 215.05532836914062 222.95645141601562 220.54673767089844 224.98275756835938 228.1793212890625" stroke-width="0.0" fill="rgb(133, 96, 62)" opacity="1.0"/>
    <path d="M 39.982757568359375 184.9637908935547 C 37.97190475463867 192.47886657714844 32.48103332519531 197.97665405273438 24.934736251831055 199.99343872070312 C 15.526897430419922 197.9700927734375 10.03443717956543 192.47109985351562 8.01457691192627 184.736083984375 C 10.05002498626709 175.5681915283203 15.606915473937988 170.1641387939453 23.44131851196289 168.52801513671875 C 31.541473388671875 170.99557495117188 37.42044448852539 176.30191040039062 39.982757568359375 184.9637908935547" stroke-width="0.0" fill="rgb(14, 11, 5)" opacity="1.0"/>
    <path d="M 191.92649841308594 3.3736886978149414 C 189.7805938720703 11.143211364746094 183.9559783935547 16.28448486328125 176.28907775878906 17.833101272583008 C 169.19825744628906 15.392071723937988 163.8801727294922 9.706765174865723 161.93896484375 2.231029510498047 C 163.61402893066406 -4.132245063781738 168.64637756347656 -9.92830753326416 176.01705932617188 -12.001598358154297 C 183.70083618164062 -10.080577850341797 189.66567993164062 -4.947052478790283 191.92649841308594 3.3736886978149414" stroke-width="0.0" fill="rgb(202, 152, 107)" opacity="0.99001825"/>
    <path d="M 43.986324310302734 174.97084045410156 C 41.96974182128906 182.4651641845703 36.44511795043945 187.9096221923828 28.727510452270508 189.59193420410156 C 20.452585220336914 186.95660400390625 14.806798934936523 181.61827087402344 12.033036231994629 173.05801391601562 C 14.04675006866455 165.5570526123047 19.581066131591797 160.11842346191406 27.32217788696289 158.37570190429688 C 35.50053787231445 161.00946044921875 41.0200309753418 166.49131774902344 43.986324310302734 174.97084045410156" stroke-width="0.0" fill="rgb(25, 25, 17)" opacity="0.99051994"/>
    <path d="M 85.98117065429688 86.93779754638672 C 83.96530151367188 94.47132873535156 78.47266387939453 99.96841430664062 70.95701599121094 101.97502899169922 C 62.47916793823242 99.05360412597656 57.00863265991211 93.50305938720703 54.951934814453125 85.90748596191406 C 56.61710739135742 77.9293441772461 61.761898040771484 72.15678405761719 70.830810546875 70.06915283203125 C 78.41749572753906 72.06509399414062 83.87760925292969 77.60676574707031 85.98117065429688 86.93779754638672" stroke-width="0.0" fill="rgb(58, 60, 56)" opacity="1.0"/>
    <path d="M 109.84590148925781 141.75387573242188 C 107.34234619140625 148.72132873535156 101.61477661132812 154.0474853515625 95.66869354248047 156.01071166992188 C 88.44779205322266 154.02468872070312 82.91364288330078 148.5730438232422 80.66148376464844 141.2886199951172 C 82.0096206665039 134.5 87.5 129.00961303710938 95.0 127.0 C 102.5 129.00961303710938 107.9903793334961 134.5 109.84590148925781 141.75387573242188" stroke-width="0.0" fill="rgb(9, 9, 9)" opacity="0.9900044"/>
    <path d="M 155.98927307128906 106.70663452148438 C 153.96978759765625 114.47410583496094 148.47129821777344 119.96205139160156 139.24098205566406 121.97472381591797 C 131.5373077392578 119.96121215820312 126.05348205566406 114.45733642578125 124.09882354736328 106.88585662841797 C 127.00944519042969 98.49938201904297 132.48928833007812 92.97303009033203 140.95327758789062 90.02367401123047 C 148.47088623046875 92.03546142578125 153.96841430664062 97.52749633789062 155.98927307128906 106.70663452148438" stroke-width="0.0" fill="rgb(19, 27, 26)" opacity="0.9900143"/>
    <path d="M 40.0 54.0 C 37.990379333496094 61.5 32.5 66.9903793334961 24.71930694580078 69.25952911376953 C 16.900699615478516 67.55522918701172 11.255403518676758 62.166717529296875 9.106185913085938 53.79513931274414 C 11.240859031677246 45.8712043762207 17.08746910095215 41.08976745605469 25.242040634155273 39.42961120605469 C 32.5 41.009620666503906 37.990379333496094 46.5 40.0 54.0" stroke-width="0.0" fill="rgb(205, 207, 201)" opacity="1.0"/>
    <path d="M 42.88803482055664 133.1815643310547 C 39.990379333496094 141.5 34.5 146.99038696289062 27.0 149.0 C 19.5 146.99038696289062 14.009618759155273 141.5 12.000000953674316 134.0 C 14.009713172912598 126.50032806396484 19.505231857299805 121.02762603759766 27.598772048950195 118.42350769042969 C 35.301361083984375 120.21803283691406 40.8807373046875 125.65875244140625 42.88803482055664 133.1815643310547" stroke-width="0.0" fill="rgb(180, 182, 166)" opacity="0.9950407"/>
    <path d="M 198.93064880371094 95.89347076416016 C 196.9352264404297 103.42744445800781 191.4135284423828 108.89556884765625 182.43568420410156 110.87686920166016 C 174.5505828857422 108.92864227294922 169.0377197265625 103.46073913574219 167.01663208007812 94.18598937988281 C 169.04214477539062 86.55577850341797 174.5895538330078 81.1430892944336 182.40625 79.49951934814453 C 190.5 82.0096206665039 195.99038696289062 87.5 198.93064880371094 95.89347076416016" stroke-width="0.0" fill="rgb(11, 10, 8)" opacity="0.99004525"/>
    <path d="M 247.92710876464844 187.1691131591797 C 244.99038696289062 195.5 239.5 200.99038696289062 231.6632843017578 203.2578582763672 C 223.72601318359375 201.68043518066406 218.1060333251953 196.3463592529297 216.02938842773438 187.25082397460938 C 218.09356689453125 179.65745544433594 223.7744598388672 174.41290283203125 231.7906494140625 172.84060668945312 C 239.86099243164062 174.82623291015625 245.80894470214844 179.86065673828125 247.92710876464844 187.1691131591797" stroke-width="0.0" fill="rgb(134, 103, 75)" opacity="0.9902885"/>
    <path d="M 205.94129943847656 214.14108276367188 C 203.1756591796875 222.8900604248047 198.17518615722656 228.83255004882812 189.97569274902344 230.9700164794922 C 181.8662109375 228.81040954589844 176.84515380859375 222.83689880371094 174.99215698242188 215.01979064941406 C 177.00961303710938 207.5 182.5 202.00961303710938 190.0245361328125 199.99008178710938 C 197.87571716308594 201.8183135986328 203.82699584960938 206.8362274169922 205.94129943847656 214.14108276367188" stroke-width="0.0" fill="rgb(139, 98, 63)" opacity="1.0"/>
    <path d="M 262.501220703125 29.566972732543945 C 260.8299560546875 37.3814811706543 255.41822814941406 42.93834686279297 247.91683959960938 44.95435333251953 C 239.5 41.990379333496094 234.00961303710938 36.5 232.0 29.0 C 234.00961303710938 21.5 239.5 16.009618759155273 247.0 14.0 C 254.5 16.009618759155273 259.9903869628906 21.5 262.501220703125 29.566972732543945" stroke-width="0.0" fill="rgb(152, 99, 59)" opacity="1.0"/>
    <path d="M 97.86563110351562 167.4811553955078 C 95.67100524902344 175.01312255859375 89.93168640136719 180.51547241210938 81.26411437988281 182.9150848388672 C 73.61530303955078 180.8710479736328 68.06226348876953 175.41477966308594 66.03463745117188 167.91770935058594 C 68.15997314453125 158.7212371826172 73.79680633544922 153.375 82.65023803710938 151.20211791992188 C 90.30107879638672 153.16888427734375 95.77140808105469 158.7211456298828 97.86563110351562 167.4811553955078" stroke-width="0.0" fill="rgb(235, 216, 195)" opacity="1.0"/>
    <path d="M 244.9829864501953 248.1642608642578 C 242.92735290527344 257.38330078125 237.29696655273438 262.6805725097656 228.7135467529297 264.43756103515625 C 220.62210083007812 262.79718017578125 215.0486602783203 257.4291687011719 213.01406860351562 249.71359252929688 C 215.0463104248047 240.54933166503906 220.55271911621094 235.05364990234375 229.88107299804688 233.01771545410156 C 237.46641540527344 235.03668212890625 242.96043395996094 240.5347900390625 244.9829864501953 248.1642608642578" stroke-width="0.0" fill="rgb(136, 96, 64)" opacity="1.0"/>
    <path d="M 89.05024719238281 196.93447875976562 C 88.88838958740234 204.33497619628906 83.24967956542969 209.62921142578125 75.2650146484375 211.17987060546875 C 67.5 208.99038696289062 62.009620666503906 203.5 59.93354034423828 195.86769104003906 C 61.49386978149414 187.80006408691406 66.6488265991211 182.08143615722656 74.04410552978516 180.1254425048828 C 81.56835174560547 183.95252990722656 87.04646301269531 189.43203735351562 89.05024719238281 196.93447875976562" stroke-width="0.0" fill="rgb(64, 75, 60)" opacity="0.99001"/>
    <path d="M 87.92576599121094 129.09584045410156 C 84.9903793334961 137.5 79.5 142.99038696289062 72.91320037841797 144.05062866210938 C 65.35009765625 142.0470428466797 58.08686447143555 138.23597717285156 56.05842208862305 129.1255340576172 C 58.032630920410156 121.52432250976562 63.52288818359375 116.02862548828125 71.04957580566406 114.0186996459961 C 80.43486785888672 116.088134765625 85.9476547241211 121.5538330078125 87.92576599121094 129.09584045410156" stroke-width="0.0" fill="rgb(6, 5, 4)" opacity="0.9900036"/>
    <path d="M 235.0836181640625 164.9104766845703 C 232.99061584472656 172.50070190429688 227.50607299804688 178.0100555419922 219.2256317138672 180.90090942382812 C 211.9051055908203 178.7687530517578 206.8183135986328 172.8505859375 204.98568725585938 165.0307159423828 C 207.00961303710938 157.5 212.5 152.00961303710938 220.1214141845703 149.87059020996094 C 227.76547241210938 151.7295379638672 233.2297821044922 157.246826171875 235.0836181640625 164.9104766845703" stroke-width="0.0" fill="rgb(179, 140, 107)" opacity="0.99464417"/>
    <path d="M 136.72784423828125 167.2730255126953 C 134.3498992919922 175.84808349609375 128.83956909179688 181.32183837890625 120.90189361572266 183.24684143066406 C 112.82465362548828 181.55014038085938 107.14984893798828 176.27774047851562 105.05390930175781 167.38021850585938 C 107.1200180053711 159.69517517089844 112.82194519042969 154.48443603515625 121.87142181396484 152.10025024414062 C 129.43307495117188 154.06478881835938 134.89859008789062 159.57827758789062 136.72784423828125 167.2730255126953" stroke-width="0.0" fill="rgb(196, 174, 144)" opacity="1.0"/>
    <path d="M 162.95632934570312 174.85479736328125 C 160.9368896484375 182.4279022216797 155.4237823486328 187.92845153808594 147.89682006835938 189.93922424316406 C 139.0250701904297 187.52381896972656 133.30636596679688 182.0603485107422 131.21067810058594 174.58700561523438 C 133.99826049804688 166.49684143066406 139.49990844726562 161.00958251953125 147.13623046875 158.91294860839844 C 155.09214782714844 160.56124877929688 160.8391571044922 165.76068115234375 162.95632934570312 174.85479736328125" stroke-width="0.0" fill="rgb(214, 209, 197)" opacity="1.0"/>
    <path d="M 66.59097290039062 75.21831512451172 C 63.58711624145508 82.24613189697266 58.355838775634766 87.91275024414062 50.09773635864258 90.92457580566406 C 42.55643081665039 88.94623565673828 37.0954475402832 83.43069458007812 35.29635238647461 75.74494171142578 C 38.009620666503906 67.5 43.5 62.009620666503906 50.356773376464844 60.6463623046875 C 57.64956283569336 62.85502243041992 63.137123107910156 68.3532943725586 66.59097290039062 75.21831512451172" stroke-width="0.0" fill="rgb(10, 8, 7)" opacity="0.9900059"/>
    <path d="M 249.99996948242188 198.00006103515625 C 247.9904022216797 205.50006103515625 242.5011444091797 210.99440002441406 234.05068969726562 213.97320556640625 C 226.5435791015625 211.9595947265625 221.05609130859375 206.44932556152344 219.0480194091797 198.9156951904297 C 221.9281768798828 190.5032501220703 227.53952026367188 185.0540313720703 235.004150390625 183.03070068359375 C 242.4961700439453 185.0189666748047 247.9898223876953 190.5013427734375 249.99996948242188 198.00006103515625" stroke-width="0.0" fill="rgb(127, 97, 68)" opacity="0.9903081"/>
    <path d="M 252.45635986328125 34.940792083740234 C 250.833984375 42.42901611328125 245.4742431640625 47.98109436035156 237.9995880126953 50.00065612792969 C 230.5 47.990379333496094 225.00961303710938 42.5 223.0 35.0 C 225.00961303710938 27.5 230.5 22.009618759155273 237.99632263183594 20.002099990844727 C 245.46432495117188 22.029226303100586 250.8512420654297 27.571990966796875 252.45635986328125 34.940792083740234" stroke-width="0.0" fill="rgb(167, 117, 77)" opacity="0.99109536"/>
    <path d="M 123.59901428222656 16.316774368286133 C 120.9903793334961 24.5 115.5 29.990381240844727 107.94486236572266 32.027427673339844 C 100.13203430175781 30.2340145111084 94.50239562988281 24.947208404541016 93.95159149169922 17.814115524291992 C 95.8552474975586 10.172053337097168 100.78926086425781 3.910527229309082 108.95865631103516 1.0413062572479248 C 116.45756530761719 3.035707712173462 121.8941421508789 8.565058708190918 123.59901428222656 16.316774368286133" stroke-width="0.0" fill="rgb(26, 28, 25)" opacity="0.99000645"/>
    <path d="M 48.94316101074219 225.5632781982422 C 46.70201873779297 233.9847412109375 40.71775817871094 239.08761596679688 33.010902404785156 241.00430297851562 C 25.5 238.99038696289062 20.009618759155273 233.5 17.821508407592773 225.71339416503906 C 19.315141677856445 217.68789672851562 24.602773666381836 212.0635528564453 32.2021598815918 210.01510620117188 C 41.28866958618164 212.11024475097656 46.772159576416016 217.8095245361328 48.94316101074219 225.5632781982422" stroke-width="0.0" fill="rgb(71, 87, 67)" opacity="1.0"/>
    <path d="M 117.0205307006836 83.83797454833984 C 115.36017608642578 90.15067291259766 110.42761993408203 95.9642105102539 102.99800872802734 97.99919891357422 C 95.5 95.9903793334961 90.0096206665039 90.5 88.0 83.0 C 90.0096206665039 75.5 95.5 70.0096206665039 102.89322662353516 68.0551528930664 C 109.87224578857422 70.45188903808594 115.08667755126953 76.30522918701172 117.0205307006836 83.83797454833984" stroke-width="0.0" fill="rgb(7, 6, 5)" opacity="0.99000597"/>
    <path d="M 193.0 166.0 C 190.99038696289062 173.5 185.5 178.99038696289062 177.985107421875 181.00582885742188 C 170.21865844726562 179.12112426757812 164.2286834716797 174.07423400878906 162.03680419921875 165.20252990722656 C 164.068603515625 157.58364868164062 169.6092987060547 152.1450958251953 177.36170959472656 150.40069580078125 C 185.5 153.00961303710938 190.99038696289062 158.5 193.0 166.0" stroke-width="0.0" fill="rgb(187, 158, 124)" opacity="1.0"/>
    <path d="M 105.9820327758789 225.9509735107422 C 103.9657211303711 233.46890258789062 98.46741485595703 238.96205139160156 90.93821716308594 240.95785522460938 C 82.5 237.99038696289062 77.0096206665039 232.5 75.0 225.0 C 77.0096206665039 217.5 82.5 212.00961303710938 90.409912109375 209.47984313964844 C 97.77835083007812 211.4602508544922 103.41976928710938 217.33741760253906 105.9820327758789 225.9509735107422" stroke-width="0.0" fill="rgb(71, 87, 68)" opacity="1.0"/>
    <path d="M 158.94151306152344 252.29501342773438 C 156.72035217285156 261.017578125 150.75877380371094 266.1120910644531 142.9824676513672 268.0187683105469 C 135.07159423828125 266.220703125 129.16236877441406 261.19073486328125 127.04214477539062 252.82162475585938 C 129.14633178710938 244.72164916992188 134.76953125 239.23599243164062 143.7761993408203 237.06640625 C 151.3797607421875 239.1043243408203 156.88714599609375 244.6240692138672 158.94151306152344 252.29501342773438" stroke-width="0.0" fill="rgb(211, 190, 163)" opacity="1.0"/>
    <path d="M 232.7404327392578 146.62586975097656 C 230.74205017089844 154.14019775390625 225.00779724121094 159.32151794433594 217.04031372070312 160.9342803955078 C 209.5 158.99038696289062 204.00961303710938 153.5 202.0 146.0 C 204.00961303710938 138.5 209.5 133.00961303710938 217.0 131.0 C 224.5 133.00961303710938 229.99038696289062 138.5 232.7404327392578 146.62586975097656" stroke-width="0.0" fill="rgb(210, 188, 159)" opacity="1.0"/>
    <path d="M 185.0 37.0 C 182.99038696289062 44.5 177.5 49.990379333496094 169.9999237060547 52.00002670288086 C 162.4962158203125 49.991634368896484 156.94107055664062 44.52309799194336 154.16815185546875 36.392662048339844 C 156.38804626464844 29.456653594970703 163.00430297851562 24.674819946289062 170.5010223388672 22.59846305847168 C 177.5 24.009618759155273 182.99038696289062 29.5 185.0 37.0" stroke-width="0.0" fill="rgb(218, 184, 150)" opacity="0.99017435"/>
    <path d="M 128.0 241.0 C 125.9903793334961 248.5 120.5 253.99038696289062 113.0 256.0 C 105.5 253.99038696289062 100.0096206665039 248.5 97.16219329833984 240.1692657470703 C 99.07564544677734 232.56857299804688 104.5705795288086 227.0822296142578 112.19368743896484 225.1969757080078 C 120.5 228.00961303710938 125.9903793334961 233.5 128.0 241.0" stroke-width="0.0" fill="rgb(11, 7, 2)" opacity="1.0"/>
    <path d="M 133.6278533935547 184.56683349609375 C 130.99038696289062 192.5 125.49996185302734 197.99024963378906 118.46052551269531 199.36996459960938 C 111.08796691894531 197.3715057373047 105.77056884765625 191.84959411621094 103.88227081298828 184.1731414794922 C 104.15235137939453 176.66146850585938 109.66106414794922 171.14987182617188 117.21379852294922 169.2027587890625 C 125.23330688476562 172.46807861328125 131.45480346679688 177.3817596435547 133.6278533935547 184.56683349609375" stroke-width="0.0" fill="rgb(181, 125, 77)" opacity="0.9900168"/>
    <path d="M 131.3092498779297 236.70278930664062 C 129.99038696289062 243.5 124.5 248.99038696289062 117.0 251.0 C 109.5 248.99038696289062 104.0096206665039 243.5 101.0542221069336 235.07081604003906 C 103.04090881347656 227.53982543945312 108.5507583618164 222.08287048339844 116.09558868408203 221.97122192382812 C 123.57783508300781 223.95272827148438 129.10325622558594 229.40289306640625 131.3092498779297 236.70278930664062" stroke-width="0.0" fill="rgb(91, 73, 55)" opacity="0.990023"/>
    <path d="M 125.72161865234375 244.75314331054688 C 123.90440368652344 252.42697143554688 118.437255859375 257.9380187988281 109.29251861572266 259.9514465332031 C 101.53569793701172 257.9549865722656 96.03939056396484 252.46620178222656 94.01969146728516 243.19647216796875 C 96.04292297363281 235.549072265625 101.56488037109375 230.0865020751953 109.21621704101562 228.174560546875 C 117.50910186767578 230.9790496826172 122.99058532714844 236.49929809570312 125.72161865234375 244.75314331054688" stroke-width="0.0" fill="rgb(18, 14, 7)" opacity="0.9900527"/>
    <path d="M 195.0484161376953 17.95846176147461 C 192.99038696289062 25.5 187.5 30.990381240844727 180.0 33.0 C 172.5 30.990381240844727 167.00961303710938 25.5 165.00001525878906 18.000030517578125 C 167.01025390625 10.50202751159668 172.51589965820312 5.05941104888916 179.7009735107422 3.6905159950256348 C 187.3501739501953 5.356683731079102 193.06964111328125 10.497889518737793 195.0484161376953 17.95846176147461" stroke-width="0.0" fill="rgb(168, 111, 67)" opacity="0.9908461"/>
    <path d="M 192.00816345214844 17.99135398864746 C 189.99038696289062 25.5 184.5 30.990381240844727 177.52841186523438 32.517845153808594 C 170.35049438476562 30.182172775268555 164.9420166015625 24.605623245239258 162.97900390625 18.168550491333008 C 164.9423065185547 11.404006958007812 170.3900909423828 5.911557674407959 177.81362915039062 3.8962349891662598 C 184.51869201660156 5.027742862701416 190.01776123046875 10.469752311706543 192.00816345214844 17.99135398864746" stroke-width="0.0" fill="rgb(170, 112, 68)" opacity="0.990022"/>
    <path d="M 63.892494201660156 57.87800598144531 C 61.9444694519043 65.45670318603516 56.46243667602539 70.96075439453125 48.938114166259766 72.95836639404297 C 40.5 69.9903793334961 35.009620666503906 64.5 33.0 57.0 C 35.009620666503906 49.5 40.5 44.009620666503906 48.0 42.0 C 55.5 44.009620666503906 60.990379333496094 49.5 63.892494201660156 57.87800598144531" stroke-width="0.0" fill="rgb(218, 224, 221)" opacity="1.0"/>
    <path d="M 62.98804473876953 143.74009704589844 C 60.95955276489258 151.44866943359375 55.42001724243164 156.87281799316406 47.63235092163086 158.5425262451172 C 39.5 155.99038696289062 34.009620666503906 150.5 32.801639556884766 143.71414184570312 C 34.84001922607422 136.26095581054688 40.04936981201172 129.35020446777344 47.750160217285156 127.06912994384766 C 55.4460563659668 129.06455993652344 60.957481384277344 134.54537963867188 62.98804473876953 143.74009704589844" stroke-width="0.0" fill="rgb(91, 89, 76)" opacity="0.99002194"/>
    <path d="M 269.0 1.0 C 266.9903869628906 8.5 261.5 13.990381240844727 253.99832153320312 16.000568389892578 C 246.43092346191406 14.014830589294434 240.4827423095703 8.772671699523926 238.05416870117188 0.3945329785346985 C 240.58229064941406 -6.681817531585693 246.47926330566406 -11.996729850769043 253.99977111816406 -14.000068664550781 C 261.5 -11.990381240844727 266.9903869628906 -6.5 269.0 1.0" stroke-width="0.0" fill="rgb(31, 23, 16)" opacity="1.0"/>
    <path d="M 145.92201232910156 37.896453857421875 C 143.94522094726562 45.449790954589844 138.44796752929688 50.9395751953125 130.86599731445312 52.8715934753418 C 122.5 49.990379333496094 117.0096206665039 44.5 115.0 37.0 C 117.0096206665039 29.5 122.5 24.009618759155273 130.0 22.0 C 137.5 24.009618759155273 142.99038696289062 29.5 145.92201232910156 37.896453857421875" stroke-width="0.0" fill="rgb(130, 139, 148)" opacity="1.0"/>
    <path d="M 56.56100845336914 62.55879592895508 C 54.780948638916016 70.2896499633789 49.289310455322266 75.77979278564453 41.55610656738281 77.55741882324219 C 33.5 74.9903793334961 28.009618759155273 69.5 26.0 62.0 C 28.009618759155273 54.5 33.5 49.009620666503906 41.0 47.0 C 48.5 49.009620666503906 53.990379333496094 54.5 56.56100845336914 62.55879592895508" stroke-width="0.0" fill="rgb(204, 209, 206)" opacity="1.0"/>
    <path d="M 192.0016632080078 211.00254821777344 C 190.001708984375 218.51734924316406 184.5256805419922 224.02952575683594 177.00180053710938 226.03758239746094 C 169.22120666503906 224.12725830078125 163.2791748046875 219.02589416503906 161.1356201171875 211.7224884033203 C 164.00961303710938 203.5 169.5 198.00961303710938 177.0 196.0 C 184.5 198.00961303710938 189.99038696289062 203.5 192.0016632080078 211.00254821777344" stroke-width="0.0" fill="rgb(118, 71, 40)" opacity="1.0"/>
    <path d="M 38.784236907958984 80.76646423339844 C 36.890968322753906 88.39238739013672 31.385276794433594 93.86762237548828 23.69078826904297 95.67533111572266 C 15.5 92.9903793334961 10.009618759155273 87.5 7.845914363861084 79.88280487060547 C 9.918530464172363 72.82146453857422 16.103212356567383 67.78626251220703 23.702308654785156 65.82198333740234 C 30.5 67.0096206665039 35.990379333496094 72.5 38.784236907958984 80.76646423339844" stroke-width="0.0" fill="rgb(48, 45, 38)" opacity="0.99024695"/>
    <path d="M 43.03246307373047 154.80825805664062 C 40.66811752319336 162.05734252929688 34.91897201538086 167.27500915527344 27.300634384155273 169.11886596679688 C 19.649600982666016 168.78504943847656 14.077940940856934 163.39503479003906 12.030509948730469 155.415283203125 C 14.096962928771973 146.65725708007812 19.7640323638916 141.40106201171875 27.764795303344727 140.20591735839844 C 35.87311935424805 141.6728973388672 41.326873779296875 147.12940979003906 43.03246307373047 154.80825805664062" stroke-width="0.0" fill="rgb(111, 112, 97)" opacity="0.9900187"/>
    <path d="M 26.681371688842773 88.71956634521484 C 24.89264488220215 96.42037963867188 19.439361572265625 101.94832611083984 10.086034774780273 103.98834991455078 C 2.5277483463287354 101.97047424316406 -2.9493489265441895 96.46489715576172 -4.91182804107666 88.75566101074219 C -2.9229817390441895 79.55429077148438 2.5399980545043945 74.0363540649414 10.04563045501709 72.02537536621094 C 18.5 75.0096206665039 23.990381240844727 80.5 26.681371688842773 88.71956634521484" stroke-width="0.0" fill="rgb(12, 12, 8)" opacity="0.99005216"/>
    <path d="M 97.9759521484375 248.9301300048828 C 95.94052124023438 256.3975524902344 90.29309844970703 261.6401062011719 82.22596740722656 263.1274108886719 C 74.5 260.9903869628906 69.0096206665039 255.5 66.10404205322266 247.13438415527344 C 68.06713104248047 239.5596466064453 73.5561294555664 234.0574951171875 81.11461639404297 232.07920837402344 C 90.28475952148438 234.2943572998047 95.86661529541016 239.66632080078125 97.9759521484375 248.9301300048828" stroke-width="0.0" fill="rgb(105, 133, 117)" opacity="1.0"/>
    <path d="M 39.65638732910156 228.2022247314453 C 37.990379333496094 235.5 32.5 240.99038696289062 24.065488815307617 243.9697723388672 C 16.601816177368164 241.9375 11.309285163879395 236.3126983642578 9.047102928161621 227.05880737304688 C 11.031585693359375 219.522216796875 16.51959228515625 214.024658203125 24.03183937072754 212.01260375976562 C 32.97014617919922 214.28282165527344 37.765541076660156 220.44239807128906 39.65638732910156 228.2022247314453" stroke-width="0.0" fill="rgb(48, 57, 42)" opacity="1.0"/>
    <path d="M 202.490478515625 160.5620574951172 C 200.82171630859375 168.36634826660156 195.3921661376953 173.90638732910156 187.82376098632812 175.86167907714844 C 179.5 172.99038696289062 174.00961303710938 167.5 172.0 160.0 C 174.00961303710938 152.5 179.5 147.00961303710938 187.0 145.0 C 194.5 147.00961303710938 199.99038696289062 152.5 202.490478515625 160.5620574951172" stroke-width="0.0" fill="rgb(5, 5, 5)" opacity="0.9900182"/>
    <path d="M 219.98243713378906 147.99603271484375 C 217.9855499267578 155.4978485107422 212.49911499023438 160.98995971679688 204.37301635742188 163.70541381835938 C 196.80795288085938 161.7710723876953 191.6506805419922 156.07371520996094 189.31492614746094 147.3208770751953 C 191.14321899414062 139.62118530273438 196.60162353515625 134.0873565673828 204.1525421142578 132.1067352294922 C 212.49996948242188 135.00962829589844 217.98989868164062 140.50015258789062 219.98243713378906 147.99603271484375" stroke-width="0.0" fill="rgb(209, 188, 162)" opacity="0.9911975"/>
    <path d="M 134.9008331298828 144.88320922851562 C 132.9435272216797 152.45086669921875 127.45191192626953 157.94659423828125 119.89469146728516 159.9145050048828 C 111.5 156.99038696289062 106.0096206665039 151.5 103.99727630615234 143.9927520751953 C 105.93544006347656 136.32215881347656 111.05488586425781 130.32447814941406 118.36653137207031 128.11331176757812 C 126.61318969726562 130.73126220703125 131.99806213378906 136.47708129882812 134.9008331298828 144.88320922851562" stroke-width="0.0" fill="rgb(17, 17, 15)" opacity="0.99058485"/>
    <path d="M 142.94407653808594 96.06610107421875 C 139.99635314941406 104.49855041503906 134.49903869628906 110.00053405761719 126.07504272460938 112.97250366210938 C 118.71875762939453 110.89602661132812 113.73548889160156 104.99794006347656 112.33039093017578 97.41657257080078 C 114.73487091064453 90.28073120117188 120.30671691894531 84.82766723632812 127.9699478149414 81.01220703125 C 135.47756958007812 83.02670288085938 140.9651641845703 88.52552032470703 142.94407653808594 96.06610107421875" stroke-width="0.0" fill="rgb(28, 25, 23)" opacity="0.9900193"/>
    <path d="M 242.0986785888672 97.88363647460938 C 239.99038696289062 105.5 234.5 110.9903793334961 226.5669708251953 113.53540802001953 C 218.9091796875 111.61870574951172 213.25245666503906 106.1478042602539 211.07058715820312 97.72454071044922 C 213.2100372314453 89.79452514648438 218.84127807617188 84.30638885498047 227.65830993652344 82.08135986328125 C 235.15687561035156 84.20758819580078 240.35134887695312 90.0204849243164 242.0986785888672 97.88363647460938" stroke-width="0.0" fill="rgb(211, 183, 158)" opacity="0.9901358"/>
    <path d="M 184.0 43.0 C 181.99038696289062 50.5 176.5 55.990379333496094 168.16555786132812 58.907779693603516 C 160.65115356445312 56.88262939453125 155.19447326660156 51.31778335571289 153.1179962158203 43.35645294189453 C 155.39988708496094 35.113426208496094 161.39166259765625 30.193504333496094 169.3068084716797 28.56203269958496 C 176.5 30.009618759155273 181.99038696289062 35.5 184.0 43.0" stroke-width="0.0" fill="rgb(220, 193, 169)" opacity="0.9989669"/>
    <path d="M 193.01698303222656 169.93515014648438 C 191.6734161376953 177.01304626464844 187.1913299560547 182.779052734375 178.27297973632812 184.92730712890625 C 170.57763671875 182.9125518798828 165.06044006347656 177.43292236328125 163.07057189941406 169.91131591796875 C 166.498779296875 161.89474487304688 171.8424072265625 156.3382110595703 178.39401245117188 154.58892822265625 C 185.5904541015625 156.88363647460938 191.0275421142578 162.43968200683594 193.01698303222656 169.93515014648438" stroke-width="0.0" fill="rgb(195, 171, 140)" opacity="0.9900151"/>
    <path d="M 231.9952850341797 131.99356079101562 C 229.9647216796875 139.4639129638672 224.44871520996094 144.9139404296875 216.96397399902344 146.89588928222656 C 209.4954071044922 144.9890899658203 204.00332641601562 139.5067596435547 202.0025177001953 131.99688720703125 C 203.95257568359375 124.34794616699219 209.0968780517578 118.3627700805664 216.32907104492188 116.13729858398438 C 224.50674438476562 118.98686981201172 229.99053955078125 124.49948120117188 231.9952850341797 131.99356079101562" stroke-width="0.0" fill="rgb(216, 189, 170)" opacity="0.99034756"/>
    <path d="M 247.2946319580078 120.14146423339844 C 245.12728881835938 127.55892944335938 239.5197296142578 132.99827575683594 232.0614013671875 134.9193878173828 C 224.6520233154297 132.84552001953125 219.2665252685547 127.31299591064453 217.23977661132812 119.68241882324219 C 218.7733154296875 112.39128875732422 224.46612548828125 107.00434112548828 232.00216674804688 105.00251770019531 C 239.5 107.0096206665039 244.99038696289062 112.5 247.2946319580078 120.14146423339844" stroke-width="0.0" fill="rgb(200, 173, 147)" opacity="0.99066293"/>
    <path d="M 20.958818435668945 119.05062866210938 C 17.99420928955078 127.51129150390625 12.56047534942627 133.15443420410156 4.05318546295166 135.98074340820312 C -3.3686442375183105 133.92958068847656 -8.537160873413086 128.2201690673828 -10.179834365844727 119.92658233642578 C -8.623181343078613 111.71465301513672 -3.3997437953948975 106.05638885498047 5.937876224517822 104.00906372070312 C 13.48137378692627 106.02464294433594 18.970703125 111.52033996582031 20.958818435668945 119.05062866210938" stroke-width="0.0" fill="rgb(6, 5, 3)" opacity="0.9902063"/>
    <path d="M 107.89266967773438 72.74700164794922 C 105.05738830566406 78.66278076171875 98.60922241210938 84.079833984375 91.2601089477539 86.24512481689453 C 85.41846466064453 84.10946655273438 79.96443939208984 78.56129455566406 76.45852661132812 71.0539321899414 C 78.07984924316406 63.58772277832031 83.58287811279297 58.06984329223633 91.10079956054688 56.04755401611328 C 99.83100891113281 58.46689987182617 105.06330108642578 64.34698486328125 107.89266967773438 72.74700164794922" stroke-width="0.0" fill="rgb(226, 194, 157)" opacity="0.99001235"/>
    <path d="M 69.97399139404297 99.9531021118164 C 67.96473693847656 107.46961212158203 62.47230529785156 112.97041320800781 54.968257904052734 114.98396301269531 C 46.5 111.9903793334961 41.009620666503906 106.5 39.0 99.0 C 41.009620666503906 91.5 46.5 86.0096206665039 54.0 84.0 C 61.5 86.0096206665039 66.9903793334961 91.5 69.97399139404297 99.9531021118164" stroke-width="0.0" fill="rgb(32, 37, 32)" opacity="0.9902077"/>
    <path d="M 177.00698852539062 228.9918975830078 C 175.00596618652344 236.54144287109375 169.6265106201172 242.26402282714844 161.2008056640625 244.8572235107422 C 153.62844848632812 242.87899780273438 148.10841369628906 237.37689208984375 146.08851623535156 229.83567810058594 C 148.4897003173828 220.81243896484375 153.6693572998047 215.0965118408203 161.12794494628906 213.03515625 C 169.7160186767578 215.583984375 175.03541564941406 221.42274475097656 177.00698852539062 228.9918975830078" stroke-width="0.0" fill="rgb(120, 64, 21)" opacity="0.9900169"/>
    <path d="M 50.05080795288086 41.99885177612305 C 47.990379333496094 49.5 42.5 54.990379333496094 34.99995422363281 57.00000762939453 C 27.500280380249023 54.990455627441406 22.030357360839844 49.49397659301758 20.507131576538086 41.885398864746094 C 21.421783447265625 33.856666564941406 26.825456619262695 28.31301498413086 34.40452575683594 26.89736557006836 C 41.94723129272461 29.71324348449707 47.80875015258789 34.876792907714844 50.05080795288086 41.99885177612305" stroke-width="0.0" fill="rgb(204, 207, 204)" opacity="0.99004555"/>
    <path d="M 72.35311126708984 91.69957733154297 C 70.52535247802734 99.23967742919922 65.41704559326172 105.0322265625 58.04612350463867 107.07769012451172 C 50.5 104.9903793334961 45.009620666503906 99.5 42.091209411621094 91.158203125 C 44.109596252441406 83.64453887939453 49.66840744018555 78.1612548828125 57.265594482421875 76.17704772949219 C 64.95124816894531 79.44365692138672 70.36873626708984 85.09651184082031 72.35311126708984 91.69957733154297" stroke-width="0.0" fill="rgb(39, 40, 35)" opacity="0.99011666"/>
    <path d="M 35.70749282836914 132.17283630371094 C 34.41408920288086 139.9967041015625 29.076322555541992 145.65846252441406 20.406965255737305 147.87057495117188 C 12.651274681091309 145.84664916992188 7.133609771728516 140.3564910888672 6.948403358459473 132.90711975097656 C 8.949767112731934 125.42831420898438 14.424630165100098 119.93971252441406 21.909868240356445 116.11809539794922 C 29.22089195251465 118.15230560302734 34.23947525024414 124.0082778930664 35.70749282836914 132.17283630371094" stroke-width="0.0" fill="rgb(158, 161, 148)" opacity="0.9900178"/>
    <path d="M 211.95965576171875 21.419376373291016 C 209.92324829101562 29.423189163208008 204.42955017089844 34.93784713745117 196.898681640625 36.96652603149414 C 188.1748046875 34.573951721191406 183.01824951171875 28.58357048034668 181.32569885253906 20.864444732666016 C 182.6829376220703 13.04700756072998 187.879638671875 7.242259979248047 196.67367553710938 5.060608386993408 C 204.3608856201172 7.118174076080322 209.88612365722656 12.63751220703125 211.95965576171875 21.419376373291016" stroke-width="0.0" fill="rgb(183, 129, 83)" opacity="0.9900664"/>
    <path d="M 200.00027465820312 207.9999542236328 C 197.99288940429688 215.5057830810547 192.51629638671875 221.0293731689453 185.13995361328125 223.02244567871094 C 177.75701904296875 220.74420166015625 172.34481811523438 215.21511840820312 170.208740234375 207.7261199951172 C 171.53375244140625 199.8534393310547 176.70086669921875 194.1162109375 184.13572692871094 192.06304931640625 C 192.5590057373047 194.85806274414062 197.99537658691406 200.48574829101562 200.00027465820312 207.9999542236328" stroke-width="0.0" fill="rgb(136, 90, 55)" opacity="0.9913211"/>
    <path d="M 65.00008392333984 208.99974060058594 C 62.990379333496094 216.5 57.5 221.99038696289062 49.181304931640625 224.91932678222656 C 41.78129959106445 222.81280517578125 36.12847137451172 217.26922607421875 34.012386322021484 208.0415496826172 C 36.02613830566406 200.5203094482422 41.52073669433594 195.0271453857422 49.034427642822266 193.01751708984375 C 57.59715270996094 195.7543182373047 62.9952278137207 201.48509216308594 65.00008392333984 208.99974060058594" stroke-width="0.0" fill="rgb(69, 87, 68)" opacity="1.0"/>
    <path d="M 49.36735534667969 72.20023345947266 C 47.068199157714844 79.59634399414062 41.659122467041016 86.68824005126953 35.88174819946289 88.95207214355469 C 27.72171401977539 85.54796600341797 22.034326553344727 80.43384552001953 19.714580535888672 72.8313980102539 C 21.780569076538086 65.37030029296875 27.431493759155273 59.974037170410156 34.97269058227539 58.0109977722168 C 42.35698699951172 60.10271453857422 47.68412780761719 65.71070861816406 49.36735534667969 72.20023345947266" stroke-width="0.0" fill="rgb(157, 161, 154)" opacity="0.9900136"/>
    <path d="M 54.97147750854492 240.12489318847656 C 52.91440963745117 249.40675354003906 47.4063720703125 254.91432189941406 38.3322639465332 256.9690246582031 C 30.566059112548828 254.93508911132812 25.0520076751709 249.44029235839844 23.048147201538086 241.93380737304688 C 26.683868408203125 234.08277893066406 32.00532150268555 228.4471893310547 39.714054107666016 226.0042266845703 C 47.410640716552734 227.1220245361328 52.9459114074707 232.5659942626953 54.97147750854492 240.12489318847656" stroke-width="0.0" fill="rgb(108, 134, 118)" opacity="0.99006927"/>
    <path d="M 20.930978775024414 234.91062927246094 C 18.957521438598633 242.4658966064453 13.469220161437988 247.96632385253906 5.827868938446045 249.98826599121094 C -3.3871753215789795 247.93690490722656 -8.594990730285645 242.26467895507812 -10.164074897766113 234.0568084716797 C -8.527446746826172 225.78501892089844 -3.363029718399048 220.07418823242188 5.8172430992126465 218.013427734375 C 13.42524242401123 220.0508575439453 18.796815872192383 225.62721252441406 20.930978775024414 234.91062927246094" stroke-width="0.0" fill="rgb(14, 12, 7)" opacity="0.9901981"/>
    <path d="M 252.0 20.0 C 249.99038696289062 27.5 244.5 32.990379333496094 237.0 35.0 C 229.5 32.990379333496094 224.00961303710938 27.5 221.06494140625 19.107826232910156 C 223.06671142578125 11.56605052947998 228.56085205078125 6.054836750030518 236.0706787109375 4.036188125610352 C 244.5 7.009618759155273 249.99038696289062 12.5 252.0 20.0" stroke-width="0.0" fill="rgb(169, 113, 67)" opacity="1.0"/>
    <path d="M 84.9314956665039 206.03878784179688 C 82.9903793334961 213.5 77.5 218.99038696289062 70.00006103515625 220.99996948242188 C 62.501190185546875 218.98988342285156 57.02300262451172 213.49520874023438 55.166988372802734 205.99334716796875 C 57.013248443603516 198.50094604492188 62.499961853027344 193.0095977783203 70.00091552734375 190.99819946289062 C 77.48686981201172 193.01231384277344 82.92894744873047 198.53076171875 84.9314956665039 206.03878784179688" stroke-width="0.0" fill="rgb(84, 105, 84)" opacity="0.9923706"/>
    <path d="M 135.04554748535156 44.18989944458008 C 133.137451171875 53.09131622314453 129.39735412597656 58.94076919555664 121.92461395263672 60.957881927490234 C 114.05770874023438 57.629356384277344 108.8982162475586 51.72923278808594 106.97757720947266 44.11545181274414 C 108.43920135498047 37.68466567993164 113.52299499511719 32.01677322387695 121.00027465820312 30.000041961669922 C 128.47564697265625 32.01638412475586 133.57374572753906 37.678993225097656 135.04554748535156 44.18989944458008" stroke-width="0.0" fill="rgb(9, 8, 5)" opacity="0.99001586"/>
    <path d="M 246.1395721435547 169.7881622314453 C 243.9623260498047 177.4528350830078 238.41590881347656 182.84117126464844 230.94503784179688 184.53131103515625 C 223.47369384765625 182.9892120361328 218.00965881347656 177.52459716796875 216.02040100097656 169.99705505371094 C 218.03750610351562 162.5512237548828 223.6013946533203 157.1990966796875 231.8599395751953 154.0760955810547 C 239.30032348632812 156.12484741210938 244.55099487304688 161.81639099121094 246.1395721435547 169.7881622314453" stroke-width="0.0" fill="rgb(161, 122, 90)" opacity="0.990188"/>
    <path d="M 148.18470764160156 135.27249145507812 C 146.6696014404297 143.2988739013672 141.39337158203125 148.93626403808594 133.9457244873047 150.95797729492188 C 126.15945434570312 147.1790771484375 120.27997589111328 142.05209350585938 118.91156768798828 135.5135955810547 C 119.10779571533203 126.56700134277344 124.5490493774414 121.04408264160156 132.08216857910156 119.03389739990234 C 141.01194763183594 121.27597045898438 146.09536743164062 127.26419830322266 148.18470764160156 135.27249145507812" stroke-width="0.0" fill="rgb(170, 166, 167)" opacity="0.9900232"/>
    <path d="M 212.0145263671875 119.79206848144531 C 210.02810668945312 126.5475082397461 204.54859924316406 132.03086853027344 197.03073120117188 135.58401489257812 C 189.53334045410156 133.9676055908203 184.0695343017578 128.45449829101562 182.2200927734375 120.79450225830078 C 184.41050720214844 111.77486419677734 189.66741943359375 106.10425567626953 197.05487060546875 104.33281707763672 C 204.53916931152344 107.97370910644531 210.02252197265625 113.46218872070312 212.0145263671875 119.79206848144531" stroke-width="0.0" fill="rgb(20, 8, 4)" opacity="0.99000233"/>
    <path d="M 99.35231018066406 222.90223693847656 C 97.63043975830078 230.23696899414062 92.3121337890625 235.8807373046875 84.30060577392578 238.7420654296875 C 76.63863372802734 236.8588409423828 71.15361022949219 231.35748291015625 69.32575988769531 223.66680908203125 C 72.0096206665039 215.5 77.5 210.00961303710938 84.99463653564453 208.00286865234375 C 92.4416275024414 210.040283203125 97.76045227050781 215.6215057373047 99.35231018066406 222.90223693847656" stroke-width="0.0" fill="rgb(82, 101, 81)" opacity="0.9907171"/>
    <path d="M 80.8064193725586 195.62771606445312 C 78.67399597167969 203.24046325683594 73.23367309570312 208.6536865234375 65.8290023803711 210.60232543945312 C 58.545162200927734 208.8505096435547 52.663265228271484 203.63214111328125 50.01535415649414 195.02838134765625 C 52.02473831176758 187.5194091796875 57.51993179321289 182.02581787109375 65.04927825927734 180.00962829589844 C 74.35225677490234 182.08106994628906 79.58182525634766 187.78622436523438 80.8064193725586 195.62771606445312" stroke-width="0.0" fill="rgb(46, 55, 41)" opacity="1.0"/>
    <path d="M 96.03714752197266 138.6106719970703 C 93.54220581054688 145.9498748779297 87.76554870605469 151.1273651123047 81.95740509033203 153.01048278808594 C 74.47486114501953 151.00975036621094 68.98444366455078 145.52748107910156 66.95650482177734 138.05862426757812 C 67.93807983398438 131.463134765625 73.47687530517578 125.98455047607422 81.86149597167969 123.08309173583984 C 89.36170196533203 125.09395599365234 94.67062377929688 130.7143096923828 96.03714752197266 138.6106719970703" stroke-width="0.0" fill="rgb(6, 6, 5)" opacity="0.99000394"/>
    <path d="M 34.952491760253906 83.83892822265625 C 32.8399543762207 91.24380493164062 27.234607696533203 96.8292007446289 19.833372116088867 98.93315887451172 C 11.234658241271973 96.37501525878906 5.990964889526367 90.65364837646484 3.8075132369995117 82.6356430053711 C 5.3961944580078125 74.86225128173828 10.83985424041748 69.32549285888672 18.31787109375 68.83658599853516 C 25.83892822265625 70.69823455810547 31.281904220581055 76.17302703857422 34.952491760253906 83.83892822265625" stroke-width="0.0" fill="rgb(27, 27, 21)" opacity="0.99002296"/>
    <path d="M 126.66581726074219 99.71282196044922 C 125.8389663696289 107.3855972290039 120.41574096679688 112.9322738647461 111.03475189208984 114.98749542236328 C 103.5263900756836 112.97344970703125 98.06192016601562 107.46184539794922 96.21907806396484 99.82168579101562 C 99.00960540771484 91.49988555908203 104.49906921386719 86.00665283203125 111.16485595703125 84.88909149169922 C 118.63243103027344 86.91846466064453 124.21076965332031 92.322998046875 126.66581726074219 99.71282196044922" stroke-width="0.0" fill="rgb(8, 8, 9)" opacity="0.99012095"/>
    <path d="M 244.0 41.0 C 241.99038696289062 48.5 236.5 53.990379333496094 228.4019775390625 56.61309051513672 C 220.66384887695312 54.81055450439453 215.11056518554688 49.36431121826172 213.04859924316406 41.008060455322266 C 215.13726806640625 32.71497344970703 220.832275390625 27.470239639282227 228.8087921142578 25.873628616333008 C 236.5 28.009618759155273 241.99038696289062 33.5 244.0 41.0" stroke-width="0.0" fill="rgb(155, 102, 58)" opacity="0.99015355"/>
    <path d="M 256.8320007324219 141.8028106689453 C 254.90696716308594 149.41502380371094 249.42178344726562 154.92572021484375 241.75498962402344 156.94595336914062 C 232.71926879882812 154.84017944335938 227.36367797851562 149.21014404296875 226.57725524902344 141.4119415283203 C 228.35606384277344 133.74331665039062 233.67471313476562 128.1413116455078 241.03720092773438 126.029296875 C 248.5 128.00961303710938 253.99038696289062 133.5 256.8320007324219 141.8028106689453" stroke-width="0.0" fill="rgb(181, 153, 121)" opacity="1.0"/>
    <path d="M 78.55226135253906 222.59915161132812 C 76.84346008300781 230.38800048828125 71.42094421386719 235.93931579589844 62.26326370239258 237.98114013671875 C 54.54270935058594 235.9539031982422 49.03849792480469 230.46087646484375 47.02760314941406 222.94998168945312 C 50.02945327758789 214.5515594482422 55.55561828613281 209.03887939453125 63.2991943359375 206.3951416015625 C 70.76911163330078 208.58843994140625 76.08650207519531 214.34097290039062 78.55226135253906 222.59915161132812" stroke-width="0.0" fill="rgb(90, 115, 95)" opacity="1.0"/>
    <path d="M 156.95877075195312 207.87060546875 C 154.888671875 215.28311157226562 149.05747985839844 220.33465576171875 141.08045959472656 222.012451171875 C 133.6697540283203 219.88397216796875 128.41261291503906 214.2320098876953 126.47705841064453 206.6883544921875 C 128.00961303710938 199.5 133.5 194.00961303710938 141.89874267578125 191.07196044921875 C 149.4322052001953 193.05906677246094 154.8754425048828 198.5883331298828 156.95877075195312 207.87060546875" stroke-width="0.0" fill="rgb(149, 90, 39)" opacity="1.0"/>
    <path d="M 209.20591735839844 70.69656372070312 C 207.39706420898438 76.76354217529297 201.71270751953125 82.16841888427734 194.33023071289062 84.2556381225586 C 187.5 82.9903793334961 182.00961303710938 77.5 180.00161743164062 70.00405883789062 C 182.0489959716797 62.596946716308594 187.79331970214844 57.54356384277344 194.29051208496094 55.93989181518555 C 201.66192626953125 57.88684844970703 207.20481872558594 63.30624008178711 209.20591735839844 70.69656372070312" stroke-width="0.0" fill="rgb(165, 104, 61)" opacity="0.99000823"/>
    <path d="M 201.8144073486328 90.4328842163086 C 199.7552947998047 97.9454345703125 192.8007354736328 102.10829162597656 185.7449188232422 104.04444885253906 C 179.43788146972656 102.04890441894531 173.958251953125 96.55970764160156 171.9426727294922 89.06240844726562 C 172.0929718017578 81.62018585205078 177.66175842285156 76.21977233886719 186.52804565429688 74.18346405029297 C 194.25282287597656 76.2117919921875 199.73252868652344 81.76740264892578 201.8144073486328 90.4328842163086" stroke-width="0.0" fill="rgb(203, 175, 137)" opacity="0.99000406"/>
    <path d="M 125.16461181640625 63.94672393798828 C 124.91036987304688 71.37800598144531 119.37010192871094 76.89864349365234 110.52421569824219 78.97712707519531 C 102.70094299316406 76.8914566040039 97.60016632080078 71.11263275146484 95.15280151367188 62.22541046142578 C 97.1353988647461 54.65611267089844 102.64566802978516 49.113243103027344 110.03504943847656 48.971923828125 C 117.53025817871094 50.98530578613281 123.0233383178711 56.466651916503906 125.16461181640625 63.94672393798828" stroke-width="0.0" fill="rgb(229, 203, 175)" opacity="0.99000967"/>
    <path d="M 206.9698944091797 206.1575927734375 C 204.841552734375 215.22225952148438 199.02455139160156 220.31683349609375 191.1837158203125 221.6306610107422 C 183.73974609375 219.71595764160156 178.31094360351562 214.25132751464844 176.35595703125 206.79434204101562 C 177.980224609375 199.37911987304688 183.17172241210938 193.44964599609375 191.78785705566406 191.0753936767578 C 199.39553833007812 193.1055145263672 204.93162536621094 198.5869598388672 206.9698944091797 206.1575927734375" stroke-width="0.0" fill="rgb(144, 110, 74)" opacity="0.9900513"/>
    <path d="M 249.74429321289062 29.891176223754883 C 247.8346405029297 37.40027618408203 242.43331909179688 42.94340515136719 234.9881134033203 44.991153717041016 C 227.5 42.990379333496094 222.00961303710938 37.5 220.0 30.0 C 222.00961303710938 22.5 227.5 17.009618759155273 235.0 15.0 C 242.49989318847656 17.0096492767334 247.98748779296875 22.500883102416992 249.74429321289062 29.891176223754883" stroke-width="0.0" fill="rgb(174, 124, 83)" opacity="0.99344456"/>
    <path d="M 70.95735168457031 47.44940948486328 C 69.26979064941406 56.01536178588867 64.12549591064453 61.70038604736328 56.51838302612305 63.64719772338867 C 48.44246292114258 61.086761474609375 42.986392974853516 55.5356330871582 40.97981262207031 47.97685241699219 C 42.88274383544922 40.30146408081055 48.190216064453125 34.55291748046875 56.06052017211914 32.13313674926758 C 64.11308288574219 34.40773391723633 69.65495300292969 39.866912841796875 70.95735168457031 47.44940948486328" stroke-width="0.0" fill="rgb(216, 222, 221)" opacity="0.99014556"/>
    <path d="M 180.94566345214844 198.0833740234375 C 178.00247192382812 206.39671325683594 172.2810821533203 211.63182067871094 164.05210876464844 214.96780395507812 C 156.5478515625 212.95986938476562 151.11080932617188 207.4294891357422 149.0252685546875 198.05320739746094 C 151.03758239746094 190.5361328125 156.5376739501953 185.04116821289062 165.8413848876953 183.01531982421875 C 173.46131896972656 185.03759765625 178.951171875 190.54367065429688 180.94566345214844 198.0833740234375" stroke-width="0.0" fill="rgb(143, 96, 59)" opacity="1.0"/>
    <path d="M 260.7445068359375 170.33485412597656 C 258.8603820800781 178.39707946777344 253.42510986328125 183.9407958984375 245.92190551757812 185.95864868164062 C 237.42652893066406 183.07415771484375 232.00657653808594 177.55148315429688 230.3878631591797 169.85765075683594 C 231.4656982421875 161.79962158203125 236.6965789794922 156.13230895996094 245.75985717773438 154.0428009033203 C 253.37489318847656 156.0950164794922 258.80615234375 161.66152954101562 260.7445068359375 170.33485412597656" stroke-width="0.0" fill="rgb(143, 107, 72)" opacity="0.99034464"/>
    <path d="M 129.9209442138672 147.18495178222656 C 127.76964569091797 156.2785186767578 122.20915222167969 160.6937713623047 114.88416290283203 162.0192108154297 C 107.45057678222656 160.0323028564453 101.96009826660156 154.55198669433594 99.88092803955078 147.1245574951172 C 100.94026184082031 140.47142028808594 106.49043273925781 135.00540161132812 114.8103256225586 132.1541748046875 C 122.40595245361328 134.0943145751953 127.89934539794922 139.59646606445312 129.9209442138672 147.18495178222656" stroke-width="0.0" fill="rgb(11, 11, 10)" opacity="0.99000555"/>
    <path d="M 98.93878936767578 215.09129333496094 C 96.00743103027344 223.51898193359375 90.5189208984375 229.00831604003906 83.02885437011719 230.98123168945312 C 75.58068084716797 228.92164611816406 70.15719604492188 223.39553833007812 68.12886810302734 215.75393676757812 C 69.58259582519531 208.05934143066406 75.04092407226562 202.52149963378906 83.89045715332031 200.07359313964844 C 91.44563293457031 202.05731201171875 96.94561004638672 207.55325317382812 98.93878936767578 215.09129333496094" stroke-width="0.0" fill="rgb(82, 100, 80)" opacity="1.0"/>
    <path d="M 254.9834747314453 198.4893035888672 C 252.95132446289062 207.45339965820312 247.45513916015625 212.95510864257812 239.92811584472656 214.9718780517578 C 231.09788513183594 212.64212036132812 226.0827178955078 206.61012268066406 224.35963439941406 198.99110412597656 C 226.15618896484375 191.61720275878906 231.61480712890625 186.14785766601562 239.7313690185547 183.3248291015625 C 247.42059326171875 185.1073455810547 252.9507598876953 190.55894470214844 254.9834747314453 198.4893035888672" stroke-width="0.0" fill="rgb(123, 90, 60)" opacity="1.0"/>
    <path d="M 258.541259765625 16.466341018676758 C 257.0763244628906 23.586275100708008 251.60777282714844 29.147563934326172 244.10630798339844 31.192325592041016 C 236.5 28.990381240844727 231.00961303710938 23.5 228.49867248535156 15.384995460510254 C 230.14170837402344 7.599753379821777 235.5766143798828 2.0661044120788574 243.0902862548828 0.29544222354888916 C 250.73358154296875 3.828310489654541 256.2742614746094 9.230321884155273 258.541259765625 16.466341018676758" stroke-width="0.0" fill="rgb(140, 84, 42)" opacity="0.99004143"/>
    <path d="M 48.2558708190918 61.21079635620117 C 46.34590530395508 68.7494125366211 40.56972885131836 73.73893737792969 32.23855209350586 76.10101318359375 C 24.623626708984375 74.87329864501953 19.119672775268555 69.37873840332031 17.18741226196289 61.762535095214844 C 19.992443084716797 53.49679183959961 25.503393173217773 48.0155029296875 33.00252914428711 46.003055572509766 C 40.49994659423828 48.00963592529297 45.98884201049805 53.50046920776367 48.2558708190918 61.21079635620117" stroke-width="0.0" fill="rgb(197, 201, 196)" opacity="0.99009144"/>
    <path d="M 195.06549072265625 64.6929702758789 C 193.17393493652344 70.69129180908203 187.65899658203125 76.10018920898438 180.04983520507812 78.2163314819336 C 172.5283203125 77.96421813964844 167.0310821533203 72.47342681884766 165.00881958007812 64.90135955810547 C 167.07286071777344 55.790096282958984 174.28904724121094 51.88222122192383 180.23870849609375 49.93582534790039 C 187.59173583984375 51.93794250488281 193.08462524414062 57.399070739746094 195.06549072265625 64.6929702758789" stroke-width="0.0" fill="rgb(126, 70, 30)" opacity="0.9900096"/>
    <path d="M 124.50666809082031 30.36512565612793 C 122.48243713378906 37.83470916748047 116.68467712402344 43.02079772949219 109.78137969970703 44.246437072753906 C 102.42916107177734 42.07115173339844 96.97196960449219 36.55481719970703 94.98001098632812 29.07567596435547 C 96.70923614501953 22.968542098999023 101.67987823486328 16.99733543395996 108.9589614868164 14.959268569946289 C 116.500732421875 17.008075714111328 121.99050903320312 22.49968147277832 124.50666809082031 30.36512565612793" stroke-width="0.0" fill="rgb(33, 30, 26)" opacity="0.9900068"/>
    <path d="M 249.88796997070312 116.74689483642578 C 247.81161499023438 124.1948471069336 242.0286102294922 129.361328125 234.14675903320312 130.95433044433594 C 226.6197052001953 128.86000061035156 221.177001953125 123.36910247802734 218.56773376464844 115.62821960449219 C 220.64462280273438 108.30540466308594 226.4277801513672 103.00369262695312 234.01046752929688 101.01643371582031 C 241.50938415527344 103.00646209716797 247.12783813476562 108.45012664794922 249.88796997070312 116.74689483642578" stroke-width="0.0" fill="rgb(196, 168, 141)" opacity="1.0"/>
    <path d="M 196.97499084472656 148.16502380371094 C 194.9021759033203 157.37571716308594 189.336669921875 162.75619506835938 181.52784729003906 163.02664184570312 C 173.07644653320312 161.25631713867188 167.1106414794922 157.30276489257812 165.02346801757812 148.09783935546875 C 167.03927612304688 140.53733825683594 172.53707885742188 135.03842163085938 180.11068725585938 133.01832580566406 C 189.46714782714844 135.03744506835938 194.95547485351562 140.53541564941406 196.97499084472656 148.16502380371094" stroke-width="0.0" fill="rgb(13, 12, 13)" opacity="0.99000347"/>
    <path d="M 65.10752868652344 100.52587890625 C 63.300960540771484 107.0914306640625 59.19098663330078 113.8808364868164 51.9641227722168 115.2341537475586 C 44.42423629760742 112.0320816040039 38.79002380371094 106.63249969482422 35.10810852050781 99.1024169921875 C 37.049293518066406 91.53861236572266 42.536380767822266 86.0423812866211 50.071834564208984 84.0871353149414 C 57.78696060180664 87.74950408935547 63.18592834472656 93.24089050292969 65.10752868652344 100.52587890625" stroke-width="0.0" fill="rgb(11, 11, 8)" opacity="0.9900279"/>
    <path d="M 245.58544921875 29.976577758789062 C 243.91574096679688 37.46104431152344 238.47959899902344 42.9785041809082 231.1983184814453 44.77027130126953 C 223.7355499267578 42.62256622314453 217.28060913085938 37.879150390625 215.04270935058594 29.24445915222168 C 217.0870361328125 21.612144470214844 222.6494903564453 16.197607040405273 230.46705627441406 14.508957862854004 C 238.44970703125 17.0146427154541 243.91616821289062 22.56932830810547 245.58544921875 29.976577758789062" stroke-width="0.0" fill="rgb(178, 130, 88)" opacity="0.9901658"/>
    <path d="M 157.94374084472656 216.08111572265625 C 155.07516479492188 225.07888793945312 150.25450134277344 230.847900390625 142.84315490722656 232.88685607910156 C 134.87831115722656 229.54705810546875 129.60179138183594 224.05691528320312 126.38770294189453 216.2285614013672 C 128.3199462890625 209.01385498046875 134.2332000732422 203.8643798828125 141.31561279296875 202.79579162597656 C 149.78421020507812 204.7531280517578 155.9209442138672 208.66310119628906 157.94374084472656 216.08111572265625" stroke-width="0.0" fill="rgb(176, 124, 85)" opacity="0.99002224"/>
    <path d="M 159.9891357421875 166.0555877685547 C 157.93359375 175.32571411132812 150.75067138671875 179.08116149902344 144.86036682128906 181.0203399658203 C 137.45510864257812 179.02854919433594 131.9742889404297 173.5436553955078 128.1424102783203 166.03541564941406 C 130.0454864501953 158.54129028320312 135.53855895996094 153.03936767578125 144.92501831054688 151.01199340820312 C 152.48028564453125 153.0263214111328 157.97438049316406 158.5194091796875 159.9891357421875 166.0555877685547" stroke-width="0.0" fill="rgb(15, 17, 16)" opacity="0.990003"/>
    <path d="M 64.99270629882812 161.49917602539062 C 62.97551345825195 169.48208618164062 57.48281478881836 174.97714233398438 49.95870590209961 176.99258422851562 C 40.582176208496094 174.94955444335938 35.19692611694336 169.35043334960938 33.18838882446289 161.71035766601562 C 36.728214263916016 154.2416229248047 42.26912307739258 148.81561279296875 49.90318298339844 145.28851318359375 C 57.46500015258789 147.0513916015625 62.97248077392578 152.5264129638672 64.99270629882812 161.49917602539062" stroke-width="0.0" fill="rgb(12, 12, 9)" opacity="1.0"/>
    <path d="M 140.0325927734375 16.93954849243164 C 138.99038696289062 23.5 133.5 28.990381240844727 126.4308090209961 30.49053382873535 C 119.12911987304688 28.341068267822266 113.71435546875 22.85112190246582 110.54752349853516 15.157395362854004 C 112.07627868652344 7.550971984863281 117.5356674194336 2.032461643218994 125.0831298828125 0.011030912399291992 C 132.75396728515625 2.097193479537964 138.02919006347656 9.429258346557617 140.0325927734375 16.93954849243164" stroke-width="0.0" fill="rgb(57, 58, 57)" opacity="1.0"/>
    <path d="M 96.90348052978516 250.84490966796875 C 94.8792495727539 258.3052978515625 89.18061065673828 263.5160217285156 81.14625549316406 265.0989990234375 C 73.24256896972656 263.1228332519531 67.32456970214844 257.9794616699219 65.0558853149414 249.2601318359375 C 67.16268920898438 241.789306640625 73.00389862060547 236.73464965820312 80.86336517333984 235.5308074951172 C 88.27667999267578 237.27101135253906 93.69639587402344 242.734130859375 96.90348052978516 250.84490966796875" stroke-width="0.0" fill="rgb(108, 137, 123)" opacity="0.99063194"/>
    <path d="M 147.95846557617188 196.0696258544922 C 145.4969482421875 204.95175170898438 139.87367248535156 210.18959045410156 132.44712829589844 211.18690490722656 C 124.96128845214844 209.407470703125 119.25564575195312 204.1476593017578 117.80392456054688 197.32594299316406 C 119.45024108886719 189.52682495117188 124.12242126464844 183.42633056640625 132.8672637939453 181.0634765625 C 140.44004821777344 183.06903076171875 145.95437622070312 188.5501708984375 147.95846557617188 196.0696258544922" stroke-width="0.0" fill="rgb(152, 91, 48)" opacity="1.0"/>
    <path d="M 225.38185119628906 164.71035766601562 C 223.8841552734375 172.77252197265625 219.08880615234375 178.773681640625 210.489013671875 180.9484405517578 C 202.6412811279297 178.88308715820312 197.11231994628906 173.3601531982422 195.0325164794922 165.4796600341797 C 197.14596557617188 156.7541046142578 202.94412231445312 151.69161987304688 211.04769897460938 150.4431610107422 C 218.72589111328125 151.8317413330078 224.24423217773438 157.25221252441406 225.38185119628906 164.71035766601562" stroke-width="0.0" fill="rgb(197, 165, 137)" opacity="0.9901438"/>
    <path d="M 111.57817840576172 97.52960205078125 C 109.8407974243164 105.40316009521484 104.44380950927734 110.95955657958984 95.26177978515625 112.98988342285156 C 87.53304290771484 110.9675521850586 82.05552673339844 105.45811462402344 80.01789093017578 96.0552749633789 C 82.02867126464844 88.52381134033203 87.52537536621094 83.0324935913086 95.07544708251953 81.01676940917969 C 104.20650482177734 83.14772033691406 109.32466888427734 89.05596923828125 111.57817840576172 97.52960205078125" stroke-width="0.0" fill="rgb(25, 24, 24)" opacity="0.9900199"/>
    <path d="M 256.96807861328125 102.34721374511719 C 254.90008544921875 111.37229919433594 249.33982849121094 116.81169128417969 241.61618041992188 118.64205169677734 C 233.71653747558594 115.79935455322266 228.36355590820312 110.23211669921875 226.6916046142578 103.03136444091797 C 228.37469482421875 95.73574829101562 233.6244659423828 90.00543212890625 241.46755981445312 87.52549743652344 C 249.35946655273438 89.20462799072266 254.9260711669922 94.59825897216797 256.96807861328125 102.34721374511719" stroke-width="0.0" fill="rgb(182, 147, 113)" opacity="1.0"/>
    <path d="M 135.71810913085938 239.47499084472656 C 133.87461853027344 247.42327880859375 128.455078125 252.96568298339844 120.97421264648438 254.98196411132812 C 113.40003967285156 251.06614685058594 107.91619873046875 245.60787963867188 105.96732330322266 238.69557189941406 C 107.87321472167969 232.17063903808594 111.92939758300781 225.1701202392578 120.2821273803711 223.0423126220703 C 128.16233825683594 225.18081665039062 133.57000732421875 231.0104217529297 135.71810913085938 239.47499084472656" stroke-width="0.0" fill="rgb(149, 124, 97)" opacity="0.9900077"/>
    <path d="M 194.91957092285156 37.863136291503906 C 192.8807373046875 45.31047821044922 187.25637817382812 50.79642868041992 179.6857147216797 52.940792083740234 C 171.68955993652344 50.42360305786133 166.5902099609375 44.04303741455078 164.71505737304688 36.384979248046875 C 165.26708984375 28.722915649414062 170.69247436523438 23.169090270996094 178.24087524414062 22.562707901000977 C 185.8928985595703 24.676799774169922 191.38702392578125 30.084468841552734 194.91957092285156 37.863136291503906" stroke-width="0.0" fill="rgb(206, 158, 112)" opacity="0.99005"/>
    <path d="M 56.85202407836914 47.082942962646484 C 54.93585968017578 54.46760940551758 49.49123764038086 60.017112731933594 42.03017807006836 62.0810661315918 C 34.47447967529297 60.01724624633789 28.97797966003418 54.52683639526367 26.77220916748047 46.821678161621094 C 28.635147094726562 39.14362716674805 34.1221809387207 33.56863784790039 41.69517517089844 31.393768310546875 C 49.15262985229492 34.339725494384766 54.68852615356445 39.83686065673828 56.85202407836914 47.082942962646484" stroke-width="0.0" fill="rgb(211, 216, 213)" opacity="1.0"/>
    <path d="M 197.78561401367188 116.49070739746094 C 195.70346069335938 125.26133728027344 190.36474609375 130.92250061035156 181.0895538330078 132.98350524902344 C 173.52296447753906 130.96981811523438 168.02615356445312 125.47870635986328 166.00949096679688 117.89666748046875 C 168.0364532470703 108.5399169921875 173.55230712890625 103.06903839111328 182.64974975585938 101.0389404296875 C 190.39491271972656 103.081787109375 195.84078979492188 108.6344223022461 197.78561401367188 116.49070739746094" stroke-width="0.0" fill="rgb(39, 43, 41)" opacity="0.99004763"/>
    <path d="M 157.99070739746094 132.1289520263672 C 155.96878051757812 141.47161865234375 150.4687042236328 146.96173095703125 142.86257934570312 148.9781951904297 C 133.57437133789062 146.92526245117188 128.0654754638672 141.4295196533203 126.03385925292969 133.71856689453125 C 128.06436157226562 124.56771087646484 133.57333374023438 119.0792236328125 142.93331909179688 117.03042602539062 C 150.47901916503906 119.02963256835938 155.97515869140625 124.5191421508789 157.99070739746094 132.1289520263672" stroke-width="0.0" fill="rgb(37, 37, 35)" opacity="0.99001974"/>
    <path d="M 151.63755798339844 28.02128028869629 C 148.57510375976562 34.880516052246094 142.71047973632812 40.10029983520508 136.93299865722656 42.016746520996094 C 129.44219970703125 40.02276611328125 122.77366638183594 34.61817932128906 121.96843719482422 28.927772521972656 C 123.94868469238281 21.429611206054688 129.444580078125 15.975617408752441 136.97113037109375 13.968523979187012 C 144.13720703125 14.132597923278809 148.40521240234375 20.897262573242188 151.63755798339844 28.02128028869629" stroke-width="0.0" fill="rgb(237, 230, 214)" opacity="0.99000376"/>
    <path d="M 251.97804260253906 49.896888732910156 C 249.96119689941406 57.46448516845703 244.46437072753906 62.96116638183594 236.87017822265625 64.98368835449219 C 227.57611083984375 62.93822479248047 222.1019744873047 57.40696716308594 220.1790008544922 49.79762268066406 C 223.0370330810547 41.60879135131836 228.76014709472656 36.45599365234375 236.31304931640625 34.73109817504883 C 244.05519104003906 35.826904296875 249.88198852539062 40.72052001953125 251.97804260253906 49.896888732910156" stroke-width="0.0" fill="rgb(145, 88, 45)" opacity="0.9900389"/>
    <path d="M 188.97824096679688 233.93727111816406 C 186.96302795410156 241.4665985107422 181.4673614501953 246.96473693847656 173.91090393066406 248.982421875 C 164.5910186767578 246.93157958984375 159.16424560546875 241.3735809326172 157.2962188720703 233.65968322753906 C 160.3335723876953 225.8507843017578 165.88844299316406 220.45587158203125 173.25990295410156 218.49783325195312 C 180.78359985351562 219.92938232421875 186.7715301513672 224.92092895507812 188.97824096679688 233.93727111816406" stroke-width="0.0" fill="rgb(138, 80, 39)" opacity="0.9968679"/>
    <path d="M 259.8980407714844 136.24815368652344 C 257.840576171875 145.3301239013672 252.31219482421875 150.7825469970703 244.54026794433594 152.54623413085938 C 236.5781707763672 149.93499755859375 231.1575927734375 144.39447021484375 229.41583251953125 137.08551025390625 C 231.27037048339844 129.68226623535156 236.6124725341797 124.02925872802734 244.85903930664062 121.09532165527344 C 252.4284210205078 123.0741195678711 257.92291259765625 128.572509765625 259.8980407714844 136.24815368652344" stroke-width="0.0" fill="rgb(174, 144, 114)" opacity="1.0"/>
    <path d="M 117.98320770263672 127.03536224365234 C 115.56918334960938 135.94332885742188 109.90958404541016 141.4867401123047 102.3093490600586 143.49679565429688 C 93.89928436279297 141.51991271972656 88.23481750488281 136.184326171875 86.02000427246094 127.046142578125 C 88.03118896484375 119.5256118774414 93.52523803710938 114.03030395507812 102.82212829589844 112.00872802734375 C 110.47280883789062 114.03101348876953 115.9704360961914 119.52639770507812 117.98320770263672 127.03536224365234" stroke-width="0.0" fill="rgb(35, 37, 36)" opacity="0.9900674"/>
  </g>
</svg>
