<?xml version="1.0" ?>
<svg xmlns="http://www.w3.org/2000/svg" version="1.1" width="600" height="600">
  <defs/>
  <g>
    <path d="M 504.2579650878906 409.57366943359375 C 480.2570495605469 415.5951843261719 478.92095947265625 419.30487060546875 476.8949890136719 418.4910888671875 C 469.542724609375 424.1065979003906 464.6664733886719 433.81292724609375 467.91558837890625 419.52984619140625 C 480.528564453125 415.17852783203125 483.3525695800781 413.66558837890625 479.15850830078125 414.9622802734375 C 483.3050537109375 414.2748718261719 497.97650146484375 405.06610107421875 504.2579650878906 409.57366943359375" stroke-width="0.0" fill="rgb(78, 79, 79)" opacity="0.98292285"/>
    <path d="M 299.2688293457031 473.1872863769531 C 297.3435363769531 474.3572692871094 292.9715881347656 472.3614807128906 286.23065185546875 487.9171447753906 C 289.255615234375 472.5036315917969 291.5528564453125 471.42962646484375 268.45623779296875 471.1158447265625 C 290.2723083496094 467.4624328613281 291.7560119628906 468.536865234375 290.4100341796875 469.3091735839844 C 291.43707275390625 470.7655334472656 294.3617248535156 470.7136535644531 299.2688293457031 473.1872863769531" stroke-width="0.0" fill="rgb(121, 122, 122)" opacity="1.0"/>
    <path d="M 101.14899444580078 442.4910583496094 C 91.29783630371094 449.82781982421875 84.79121398925781 448.5741271972656 91.54854583740234 457.8204650878906 C 82.46939849853516 454.9720458984375 77.05976867675781 456.07366943359375 76.21823120117188 442.40277099609375 C 86.5189437866211 454.1676025390625 87.7814712524414 445.8860168457031 89.81405639648438 447.4082946777344 C 97.77769470214844 440.9267272949219 107.166015625 435.42498779296875 101.14899444580078 442.4910583496094" stroke-width="0.0" fill="rgb(116, 117, 117)" opacity="0.89042294"/>
    <path d="M 300.7796630859375 474.6439514160156 C 300.16015625 478.3712463378906 300.1045837402344 480.807373046875 296.6943664550781 482.25225830078125 C 294.5787658691406 480.2805480957031 290.3582763671875 480.3593444824219 289.6636962890625 473.66082763671875 C 294.38818359375 471.5995178222656 298.9808044433594 477.2490539550781 297.5226135253906 473.67816162109375 C 296.5403747558594 473.6059265136719 301.03118896484375 475.2787170410156 300.7796630859375 474.6439514160156" stroke-width="0.0" fill="rgb(251, 251, 251)" opacity="0.9046236"/>
    <path d="M 541.5408325195312 20.02126693725586 C 539.2542114257812 22.135332107543945 537.4700927734375 24.4269962310791 535.41845703125 25.308719635009766 C 532.4575805664062 24.875829696655273 530.9165649414062 22.405323028564453 528.5361328125 19.813215255737305 C 531.0320434570312 17.967130661010742 532.473876953125 15.088981628417969 534.4656372070312 14.949207305908203 C 537.55126953125 15.057832717895508 538.8507080078125 17.84661102294922 541.5408325195312 20.02126693725586" stroke-width="0.0" fill="rgb(255, 255, 255)" opacity="0.5894352"/>
    <path d="M 133.62135314941406 187.71768188476562 C 134.9616241455078 192.35079956054688 133.5640411376953 196.5603790283203 127.25595092773438 194.76844787597656 C 124.32168579101562 193.97720336914062 124.3561782836914 192.10711669921875 124.41543579101562 186.6042022705078 C 124.57543182373047 180.86065673828125 123.67660522460938 180.2799530029297 127.50211334228516 183.9138946533203 C 130.55206298828125 185.11773681640625 133.81277465820312 186.004150390625 133.62135314941406 187.71768188476562" stroke-width="0.0" fill="rgb(231, 231, 231)" opacity="0.93542045"/>
    <path d="M 217.23382568359375 78.27192687988281 C 214.24156188964844 80.89967346191406 213.87965393066406 83.96155548095703 211.53622436523438 86.13101196289062 C 208.678955078125 83.3817138671875 206.82688903808594 81.4685287475586 205.64907836914062 77.9248275756836 C 206.83319091796875 76.93788146972656 208.75204467773438 74.22694396972656 210.18313598632812 74.03469848632812 C 214.48385620117188 73.33081817626953 216.83180236816406 75.09001922607422 217.23382568359375 78.27192687988281" stroke-width="0.0" fill="rgb(255, 255, 255)" opacity="0.5889581"/>
    <path d="M 403.56988525390625 476.6089172363281 C 395.95166015625 501.61810302734375 383.7939758300781 497.433837890625 361.13690185546875 496.6116943359375 C 349.4938659667969 510.564208984375 337.8401184082031 524.9066772460938 333.9000244140625 484.1636047363281 C 329.9884033203125 450.233642578125 328.7221374511719 446.7507629394531 366.923583984375 444.19122314453125 C 405.0359802246094 448.1708984375 405.6587219238281 452.5797424316406 403.56988525390625 476.6089172363281" stroke-width="0.0" fill="rgb(45, 45, 44)" opacity="0.92379254"/>
    <path d="M 569.531982421875 286.6805725097656 C 565.1771240234375 319.05499267578125 561.728271484375 323.1142578125 527.2791137695312 327.1728515625 C 490.49761962890625 321.57806396484375 490.291259765625 314.7605285644531 500.54541015625 295.4547424316406 C 510.4588623046875 270.97283935546875 510.871337890625 263.1437072753906 548.0706176757812 240.47784423828125 C 561.6471557617188 242.6792755126953 565.487060546875 245.90330505371094 569.531982421875 286.6805725097656" stroke-width="0.0" fill="rgb(54, 53, 53)" opacity="1.0"/>
    <path d="M 237.1526641845703 497.4983215332031 C 232.4029998779297 512.8929443359375 224.63555908203125 505.0103454589844 188.32666015625 508.53515625 C 178.43020629882812 518.5139770507812 181.52731323242188 506.23675537109375 179.001708984375 489.50567626953125 C 180.1286163330078 463.569580078125 176.18960571289062 456.8460388183594 187.8732452392578 455.3641662597656 C 214.4036102294922 461.2015686035156 227.51654052734375 460.7393798828125 237.1526641845703 497.4983215332031" stroke-width="0.0" fill="rgb(31, 31, 30)" opacity="0.9345123"/>
    <path d="M 588.9443359375 448.2144775390625 C 598.121826171875 452.4051513671875 601.0746459960938 457.9281005859375 593.8148803710938 454.64422607421875 C 584.9100952148438 447.63287353515625 583.3272705078125 445.6786804199219 572.5513305664062 436.76519775390625 C 569.162109375 431.1911926269531 576.0546875 435.5138244628906 583.898193359375 443.7291564941406 C 586.5213012695312 445.311279296875 588.3772583007812 446.4568786621094 588.9443359375 448.2144775390625" stroke-width="0.0" fill="rgb(112, 113, 114)" opacity="1.0"/>
    <path d="M 500.68426513671875 600.8447875976562 C 502.338134765625 601.5060424804688 500.5017395019531 603.3309936523438 498.0895690917969 603.9398193359375 C 496.429931640625 602.6608276367188 494.3565979003906 601.3524780273438 479.09228515625 580.7852172851562 C 487.857421875 579.372314453125 489.1040344238281 594.5322265625 497.3851318359375 598.7448120117188 C 497.07183837890625 597.6856689453125 499.0226135253906 599.3675537109375 500.68426513671875 600.8447875976562" stroke-width="0.0" fill="rgb(95, 96, 96)" opacity="1.0"/>
    <path d="M 312.3351135253906 118.30547332763672 C 296.28314208984375 113.87252044677734 295.0761413574219 115.36305236816406 290.3186950683594 116.52771759033203 C 283.7984619140625 120.3583984375 281.02398681640625 119.61953735351562 290.1781311035156 112.93926239013672 C 291.8536071777344 106.99427795410156 284.95458984375 98.818359375 288.3683776855469 102.28943634033203 C 297.81781005859375 108.9807357788086 301.67230224609375 106.95722198486328 312.3351135253906 118.30547332763672" stroke-width="0.0" fill="rgb(126, 127, 128)" opacity="1.0"/>
    <path d="M 555.5100708007812 362.0508117675781 C 565.0953369140625 370.3893127441406 566.689697265625 379.2524719238281 558.4271850585938 369.23382568359375 C 553.6249389648438 363.086181640625 552.5779418945312 360.3717041015625 547.6178588867188 356.9227294921875 C 539.3941650390625 343.0921630859375 539.8500366210938 339.7584533691406 548.848388671875 352.3487854003906 C 553.8407592773438 359.8421936035156 555.6021728515625 361.3428955078125 555.5100708007812 362.0508117675781" stroke-width="0.0" fill="rgb(90, 91, 91)" opacity="0.95634776"/>
    <path d="M 547.983642578125 247.66651916503906 C 526.6039428710938 289.03802490234375 527.5537109375 298.92962646484375 498.1228942871094 314.3586730957031 C 480.6492614746094 306.92083740234375 478.7572326660156 301.4029846191406 477.7416076660156 282.5518798828125 C 489.08941650390625 256.38623046875 490.7879943847656 251.15805053710938 525.7758178710938 229.205078125 C 545.2252807617188 232.5463104248047 548.3648071289062 236.55517578125 547.983642578125 247.66651916503906" stroke-width="0.0" fill="rgb(71, 70, 70)" opacity="1.0"/>
    <path d="M 505.7342224121094 545.038330078125 C 513.278076171875 554.2737426757812 521.247802734375 562.760986328125 516.5030517578125 562.92626953125 C 505.2958984375 544.9462280273438 499.78936767578125 548.1968994140625 491.8318786621094 534.9524536132812 C 485.2081298828125 531.4798583984375 495.0226135253906 537.5607299804688 510.3351745605469 527.885986328125 C 498.110595703125 542.4398193359375 502.22802734375 542.923828125 505.7342224121094 545.038330078125" stroke-width="0.0" fill="rgb(116, 117, 117)" opacity="0.9093636"/>
    <path d="M 82.62529754638672 469.86810302734375 C 83.33378601074219 473.8157043457031 82.23226928710938 477.23529052734375 80.37857818603516 478.1986999511719 C 76.5875473022461 475.4222412109375 75.23866271972656 473.3036193847656 74.88155364990234 470.5169982910156 C 74.94290161132812 468.7969665527344 74.46417236328125 465.19488525390625 76.67375183105469 455.9570007324219 C 82.0682144165039 465.4876708984375 80.68990325927734 469.171875 82.62529754638672 469.86810302734375" stroke-width="0.0" fill="rgb(203, 203, 203)" opacity="0.8505078"/>
    <path d="M 594.0775146484375 491.6328430175781 C 594.5196533203125 494.8644714355469 592.323486328125 495.4520263671875 586.9482421875 495.7108154296875 C 586.4578247070312 496.78411865234375 586.241943359375 492.5127868652344 578.182373046875 486.1675720214844 C 575.0546264648438 482.9469299316406 580.7451782226562 484.17962646484375 586.9423217773438 487.15936279296875 C 591.5374755859375 486.590576171875 594.6372680664062 488.353271484375 594.0775146484375 491.6328430175781" stroke-width="0.0" fill="rgb(191, 192, 192)" opacity="0.9243669"/>
    <path d="M 147.24575805664062 441.3174743652344 C 146.552001953125 444.7063293457031 144.7520294189453 446.58453369140625 140.77891540527344 446.91583251953125 C 139.95004272460938 446.28857421875 137.2427215576172 444.2329406738281 136.95730590820312 443.21942138671875 C 137.42420959472656 439.4110107421875 139.39305114746094 437.1993103027344 142.3032684326172 436.9635009765625 C 144.53753662109375 437.3421630859375 146.56517028808594 439.78204345703125 147.24575805664062 441.3174743652344" stroke-width="0.0" fill="rgb(255, 255, 255)" opacity="0.59403235"/>
    <path d="M 337.06011962890625 0.9607731103897095 C 337.3404235839844 3.894162893295288 334.7840881347656 4.555916786193848 333.6888122558594 4.066956520080566 C 328.8546447753906 5.333959579467773 326.9104309082031 4.595818519592285 326.3028564453125 0.7133036255836487 C 326.7978210449219 -1.7997345924377441 329.3466796875 -3.399693250656128 331.99908447265625 -4.006138801574707 C 334.6388854980469 -3.370861768722534 337.2222900390625 -1.739473581314087 337.06011962890625 0.9607731103897095" stroke-width="0.0" fill="rgb(233, 233, 233)" opacity="1.0"/>
    <path d="M 560.2940063476562 432.82763671875 C 558.8936767578125 435.8556213378906 557.129150390625 437.6278991699219 554.9945068359375 439.2398986816406 C 552.40380859375 438.7869873046875 550.6646728515625 436.355712890625 549.83203125 433.8727722167969 C 551.242919921875 431.8507385253906 552.3272094726562 428.855224609375 554.984130859375 429.21990966796875 C 557.8064575195312 428.7566223144531 558.9407348632812 431.7364196777344 560.2940063476562 432.82763671875" stroke-width="0.0" fill="rgb(255, 255, 255)" opacity="0.59564096"/>
    <path d="M 603.1824340820312 498.1861572265625 C 601.1643676757812 499.5105285644531 595.8209228515625 499.3924255371094 600.6470947265625 511.3389587402344 C 583.8629760742188 500.76702880859375 580.8746337890625 510.7241516113281 589.5296020507812 495.43902587890625 C 596.1249389648438 502.7571716308594 598.2413330078125 496.45458984375 597.3767700195312 498.81109619140625 C 600.1272583007812 498.0452575683594 602.471435546875 497.0213317871094 603.1824340820312 498.1861572265625" stroke-width="0.0" fill="rgb(134, 136, 135)" opacity="0.9110351"/>
    <path d="M 173.24484252929688 207.76841735839844 C 178.6102294921875 216.1027069091797 176.37501525878906 215.08404541015625 169.45852661132812 210.9014434814453 C 165.4800567626953 210.1015625 163.34629821777344 207.388427734375 163.1121063232422 206.009033203125 C 165.24459838867188 204.4771270751953 163.32839965820312 199.7188720703125 163.4159393310547 194.8265838623047 C 168.564697265625 202.36671447753906 171.0106964111328 204.48362731933594 173.24484252929688 207.76841735839844" stroke-width="0.0" fill="rgb(177, 178, 178)" opacity="0.88881207"/>
    <path d="M 540.1931762695312 374.6186828613281 C 538.9354248046875 375.8958435058594 537.96923828125 379.2727966308594 538.806884765625 384.16015625 C 531.1675415039062 377.6641540527344 525.2669677734375 378.7362060546875 522.5139770507812 375.2999267578125 C 530.8292846679688 371.8360290527344 532.6226806640625 369.90423583984375 535.7342529296875 368.86102294921875 C 538.1343383789062 368.5277404785156 540.382080078125 370.8536071777344 540.1931762695312 374.6186828613281" stroke-width="0.0" fill="rgb(209, 210, 209)" opacity="0.7615866"/>
    <path d="M 293.6518859863281 531.8135986328125 C 293.0541076660156 532.5799560546875 284.7705078125 521.78076171875 278.20635986328125 550.7053833007812 C 279.969970703125 523.5569458007812 284.5970764160156 530.5396728515625 265.6290283203125 522.510009765625 C 279.6942443847656 524.0797119140625 284.3930969238281 528.8047485351562 285.5166320800781 525.2379150390625 C 289.3746643066406 521.108154296875 291.6026916503906 514.92333984375 293.6518859863281 531.8135986328125" stroke-width="0.0" fill="rgb(136, 137, 136)" opacity="0.8897226"/>
    <path d="M 49.054534912109375 582.1034545898438 C 49.55580139160156 584.8154296875 47.86587142944336 586.1676635742188 44.29757308959961 587.4371948242188 C 42.694374084472656 586.2290649414062 40.292999267578125 584.1224365234375 39.76382827758789 582.9888305664062 C 40.7755126953125 579.5851440429688 42.53178024291992 577.3652954101562 44.12985610961914 576.6754760742188 C 46.96462631225586 578.3298950195312 49.45109176635742 580.0554809570312 49.054534912109375 582.1034545898438" stroke-width="0.0" fill="rgb(255, 255, 255)" opacity="0.6018864"/>
    <path d="M 79.1178970336914 196.81773376464844 C 77.16069030761719 199.00401306152344 77.13469696044922 201.92189025878906 75.4466781616211 215.5020751953125 C 69.33399200439453 205.57125854492188 68.93717956542969 200.63951110839844 62.47511672973633 189.33389282226562 C 66.09935760498047 189.78868103027344 70.04296875 192.71177673339844 73.12753295898438 193.175048828125 C 76.38423156738281 193.12319946289062 78.98579406738281 194.41400146484375 79.1178970336914 196.81773376464844" stroke-width="0.0" fill="rgb(192, 193, 193)" opacity="0.85393006"/>
    <path d="M 261.39410400390625 95.82821655273438 C 261.83538818359375 94.1905288696289 260.54638671875 95.99152374267578 256.8493347167969 100.29905700683594 C 250.03875732421875 110.21697998046875 248.0174102783203 105.2118148803711 256.9825134277344 98.04820251464844 C 258.73870849609375 95.18247985839844 259.86602783203125 93.60678100585938 259.75848388671875 93.33611297607422 C 259.9217529296875 91.75359344482422 262.3655700683594 95.05764770507812 261.39410400390625 95.82821655273438" stroke-width="0.0" fill="rgb(124, 125, 126)" opacity="1.0"/>
    <path d="M 583.5450439453125 455.7998352050781 C 582.029296875 457.8038330078125 579.8541259765625 460.2862854003906 577.5368041992188 460.0484313964844 C 574.4681396484375 459.5422058105469 572.20361328125 457.5315856933594 571.8837280273438 454.8563232421875 C 572.34765625 452.29144287109375 574.3697509765625 450.3100891113281 576.8775024414062 451.0589599609375 C 579.4468994140625 450.0296325683594 581.4708862304688 452.3494873046875 583.5450439453125 455.7998352050781" stroke-width="0.0" fill="rgb(255, 255, 255)" opacity="0.59760433"/>
    <path d="M 309.0130615234375 595.66357421875 C 309.7339172363281 599.2264404296875 308.0625915527344 600.3252563476562 304.3668518066406 599.48486328125 C 296.84197998046875 599.1385498046875 292.8569030761719 600.7791748046875 292.4134521484375 599.5079956054688 C 300.1326904296875 593.0772094726562 301.52392578125 590.6773071289062 303.4703369140625 591.1932373046875 C 305.93658447265625 590.7050170898438 307.8157653808594 592.7197265625 309.0130615234375 595.66357421875" stroke-width="0.0" fill="rgb(255, 255, 255)" opacity="0.814479"/>
    <path d="M 208.049560546875 150.4528350830078 C 207.57273864746094 152.37779235839844 206.0088653564453 154.39231872558594 206.1532745361328 161.79408264160156 C 201.9670867919922 155.87533569335938 196.8695068359375 156.98011779785156 187.4637451171875 149.2762451171875 C 200.09886169433594 148.2465362548828 201.5178680419922 145.58473205566406 213.282958984375 136.80178833007812 C 210.63461303710938 143.3765869140625 208.8856658935547 147.76683044433594 208.049560546875 150.4528350830078" stroke-width="0.0" fill="rgb(182, 183, 183)" opacity="0.9232455"/>
    <path d="M 591.0313110351562 399.21697998046875 C 591.3002319335938 402.1911926269531 589.0822143554688 403.8256530761719 587.5087890625 402.8307800292969 C 584.4124145507812 401.4963684082031 581.5756225585938 401.30865478515625 580.6122436523438 400.6484375 C 582.35986328125 396.88800048828125 583.3257446289062 393.96636962890625 585.3779296875 393.796142578125 C 589.461669921875 393.2391662597656 591.8031005859375 395.5609130859375 591.0313110351562 399.21697998046875" stroke-width="0.0" fill="rgb(255, 255, 255)" opacity="0.60155433"/>
    <path d="M 573.6752319335938 151.06211853027344 C 574.0322265625 152.57455444335938 570.6242065429688 153.53924560546875 566.177978515625 158.3699493408203 C 563.506591796875 164.1476287841797 561.6138916015625 159.1501007080078 564.0758666992188 154.26937866210938 C 564.316162109375 147.69970703125 565.1973266601562 143.91748046875 573.2320556640625 132.46917724609375 C 571.176513671875 144.9812469482422 571.4963989257812 148.26345825195312 573.6752319335938 151.06211853027344" stroke-width="0.0" fill="rgb(183, 183, 183)" opacity="0.84314156"/>
    <path d="M 582.2139892578125 546.6148681640625 C 568.8743286132812 554.8286743164062 563.6764526367188 552.85400390625 556.2493896484375 561.9483032226562 C 546.4602661132812 569.7191162109375 543.3261108398438 559.9270629882812 557.513671875 555.7654418945312 C 566.9024658203125 552.644775390625 565.9216918945312 549.0836181640625 564.3531494140625 551.6002807617188 C 564.4990844726562 552.9052734375 569.2659912109375 547.4649047851562 582.2139892578125 546.6148681640625" stroke-width="0.0" fill="rgb(120, 121, 121)" opacity="1.0"/>
    <path d="M 421.3511657714844 33.29414749145508 C 420.6899108886719 35.54523849487305 418.6592102050781 37.51887893676758 416.53955078125 36.96766662597656 C 412.26495361328125 38.97879409790039 408.13775634765625 39.58659744262695 402.5500183105469 36.4461669921875 C 411.7727966308594 30.60268211364746 413.6478576660156 28.08660888671875 415.6053466796875 29.05390167236328 C 418.64251708984375 28.304689407348633 420.69384765625 30.10988426208496 421.3511657714844 33.29414749145508" stroke-width="0.0" fill="rgb(226, 226, 226)" opacity="0.62625754"/>
    <path d="M 190.08921813964844 94.46632385253906 C 190.7152557373047 96.61148071289062 190.0218963623047 99.84300994873047 189.64312744140625 107.12823486328125 C 182.53929138183594 98.27660369873047 178.006591796875 97.4321517944336 173.47377014160156 96.04581451416016 C 179.83619689941406 90.71590423583984 182.01441955566406 88.67352294921875 184.37440490722656 88.7795181274414 C 187.454833984375 89.97791290283203 190.38235473632812 91.20957946777344 190.08921813964844 94.46632385253906" stroke-width="0.0" fill="rgb(212, 212, 212)" opacity="0.8584592"/>
    <path d="M 439.3088073730469 529.15869140625 C 437.8760986328125 531.727294921875 439.85955810546875 535.683349609375 443.2402038574219 543.4354248046875 C 430.51953125 535.0679321289062 428.37396240234375 533.5115966796875 429.446533203125 529.5457763671875 C 430.196533203125 526.6624755859375 431.74658203125 524.2450561523438 434.6879577636719 523.9308471679688 C 436.40631103515625 524.1665649414062 437.6712646484375 527.1390991210938 439.3088073730469 529.15869140625" stroke-width="0.0" fill="rgb(195, 195, 195)" opacity="0.8164017"/>
    <path d="M 308.8891906738281 100.55929565429688 C 306.22235107421875 102.74207305908203 304.50457763671875 104.40400695800781 302.5579833984375 105.80589294433594 C 299.25128173828125 108.8913345336914 295.4747619628906 109.07019805908203 295.5538330078125 107.02909088134766 C 302.1339416503906 102.59095001220703 304.7459411621094 102.70178985595703 305.4519348144531 100.49579620361328 C 310.8572998046875 96.10429382324219 314.08856201171875 98.09364318847656 308.8891906738281 100.55929565429688" stroke-width="0.0" fill="rgb(110, 110, 111)" opacity="1.0"/>
    <path d="M 86.83429718017578 294.4275207519531 C 83.03610229492188 333.3902587890625 78.80326843261719 337.502197265625 47.35908508300781 341.8813171386719 C 17.223413467407227 335.03009033203125 16.909008026123047 319.0019226074219 20.261734008789062 309.1992492675781 C 31.894676208496094 289.7178955078125 35.64211654663086 288.04791259765625 64.43193054199219 265.36767578125 C 81.1150894165039 253.6876220703125 84.42697143554688 256.561767578125 86.83429718017578 294.4275207519531" stroke-width="0.0" fill="rgb(39, 40, 39)" opacity="0.9643827"/>
    <path d="M 164.54307556152344 549.6719360351562 C 153.064453125 550.7640380859375 149.71145629882812 552.510498046875 150.09994506835938 553.6087036132812 C 144.37857055664062 553.0091552734375 143.7768096923828 552.8114013671875 148.4987030029297 551.3672485351562 C 149.04571533203125 547.0269775390625 148.11277770996094 544.03076171875 145.303955078125 530.368896484375 C 149.752685546875 542.1981811523438 153.0027313232422 544.0244140625 164.54307556152344 549.6719360351562" stroke-width="0.0" fill="rgb(156, 156, 155)" opacity="0.9823927"/>
    <path d="M 32.63290786743164 91.73367309570312 C 11.495287895202637 100.64996337890625 13.760822296142578 108.4833984375 12.55735969543457 100.062255859375 C 8.03468132019043 95.66117095947266 2.049567699432373 99.0810317993164 4.55181360244751 94.4662857055664 C 11.92845344543457 97.48374938964844 7.781149864196777 95.35050964355469 8.079297065734863 85.83275604248047 C 14.195354461669922 95.07087707519531 5.728146076202393 97.87046813964844 32.63290786743164 91.73367309570312" stroke-width="0.0" fill="rgb(115, 117, 116)" opacity="0.90753764"/>
    <path d="M 574.219482421875 79.98759460449219 C 579.5423583984375 85.84370422363281 567.668212890625 79.84487915039062 560.3659057617188 73.86628723144531 C 561.4962158203125 75.00401306152344 559.301513671875 73.16777038574219 550.9241333007812 70.28179931640625 C 547.9847412109375 64.89221954345703 555.4042358398438 69.0318374633789 560.4137573242188 71.83771514892578 C 559.1182250976562 69.72135925292969 560.60986328125 72.9502182006836 574.219482421875 79.98759460449219" stroke-width="0.0" fill="rgb(91, 92, 91)" opacity="0.9367174"/>
    <path d="M 167.9617462158203 588.96630859375 C 168.7493438720703 591.9776611328125 165.79214477539062 593.148681640625 164.44468688964844 595.3196411132812 C 161.64036560058594 594.78662109375 159.7123260498047 592.52099609375 157.52105712890625 589.61474609375 C 156.6703643798828 585.2565307617188 160.43533325195312 581.8314819335938 166.25135803222656 583.9961547851562 C 166.81959533691406 585.6930541992188 168.6735076904297 586.7499389648438 167.9617462158203 588.96630859375" stroke-width="0.0" fill="rgb(214, 215, 215)" opacity="0.6832614"/>
    <path d="M 152.09437561035156 591.2457885742188 C 137.90379333496094 600.6790161132812 131.48057556152344 599.3701171875 128.94866943359375 600.8313598632812 C 126.41869354248047 601.2525634765625 123.52407836914062 600.4560546875 123.01318359375 598.0191040039062 C 124.7536849975586 594.58447265625 126.68760681152344 593.0078735351562 129.78578186035156 593.3011474609375 C 130.5838165283203 596.849853515625 132.63462829589844 597.1468505859375 152.09437561035156 591.2457885742188" stroke-width="0.0" fill="rgb(107, 108, 110)" opacity="1.0"/>
    <path d="M 565.2771606445312 62.516761779785156 C 554.7415771484375 71.24471282958984 545.3050537109375 77.30465698242188 550.3154296875 70.97794342041016 C 547.2650756835938 63.89823913574219 541.1091918945312 68.70457458496094 520.31982421875 55.70305633544922 C 529.4814453125 56.12184143066406 542.3751220703125 65.30619812011719 549.1817626953125 64.33184814453125 C 545.8753662109375 64.8360595703125 547.2940673828125 70.70361328125 565.2771606445312 62.516761779785156" stroke-width="0.0" fill="rgb(93, 94, 93)" opacity="0.9535208"/>
    <path d="M 131.96051025390625 202.92465209960938 C 136.99252319335938 211.6128387451172 147.04635620117188 221.72640991210938 140.31935119628906 219.36216735839844 C 127.77632904052734 203.20114135742188 131.6556396484375 196.38421630859375 114.44877624511719 207.65823364257812 C 115.60816955566406 204.3329315185547 128.4369659423828 193.09983825683594 146.2200927734375 187.24839782714844 C 124.68395233154297 200.5069580078125 129.9646453857422 199.32667541503906 131.96051025390625 202.92465209960938" stroke-width="0.0" fill="rgb(93, 95, 95)" opacity="1.0"/>
    <path d="M 36.01459884643555 451.8915100097656 C 35.208438873291016 454.233154296875 33.34193801879883 457.3302307128906 30.68968391418457 457.0301208496094 C 27.937665939331055 457.5989685058594 25.895105361938477 454.93768310546875 25.860877990722656 452.5329284667969 C 26.650924682617188 449.6426696777344 28.675832748413086 447.6136474609375 31.042457580566406 445.54083251953125 C 33.237144470214844 447.8318176269531 35.54570007324219 449.4920349121094 36.01459884643555 451.8915100097656" stroke-width="0.0" fill="rgb(255, 255, 255)" opacity="0.59556425"/>
    <path d="M 573.8306884765625 183.50010681152344 C 579.4910278320312 186.2594757080078 573.7250366210938 188.22059631347656 570.1187133789062 187.27496337890625 C 568.6865234375 188.82870483398438 568.2018432617188 186.1365966796875 567.3713989257812 183.27017211914062 C 567.2219848632812 183.54779052734375 569.3527221679688 182.13113403320312 567.8811645507812 166.841796875 C 572.419677734375 179.76904296875 573.7129516601562 183.638427734375 573.8306884765625 183.50010681152344" stroke-width="0.0" fill="rgb(182, 183, 183)" opacity="0.9560495"/>
    <path d="M 341.43902587890625 510.0002746582031 C 341.0893249511719 514.320556640625 339.1521911621094 513.217041015625 335.37457275390625 514.7111206054688 C 328.0366516113281 514.46142578125 321.1746520996094 515.2228393554688 320.106201171875 509.9280700683594 C 336.28729248046875 511.4495849609375 334.2793884277344 507.7297058105469 332.23956298828125 491.7605285644531 C 337.6373291015625 497.3027038574219 334.4001159667969 503.05535888671875 341.43902587890625 510.0002746582031" stroke-width="0.0" fill="rgb(192, 193, 193)" opacity="0.90668947"/>
    <path d="M 139.0005340576172 530.8861694335938 C 137.6297607421875 532.99609375 136.153564453125 535.4373168945312 134.253662109375 534.9279174804688 C 131.36074829101562 535.8079833984375 129.55950927734375 533.7299194335938 128.69166564941406 531.2598876953125 C 129.8472900390625 528.5123901367188 131.4947509765625 526.0447998046875 133.7530975341797 525.8228149414062 C 136.53012084960938 526.4074096679688 138.64431762695312 528.46240234375 139.0005340576172 530.8861694335938" stroke-width="0.0" fill="rgb(255, 255, 255)" opacity="0.59699076"/>
    <path d="M 184.8334503173828 32.32698440551758 C 185.5231170654297 28.7227840423584 191.58621215820312 37.057350158691406 186.77801513671875 44.92826843261719 C 182.58270263671875 35.57177734375 187.26077270507812 27.16326332092285 187.61585998535156 30.95345115661621 C 185.48463439941406 35.11730194091797 182.96217346191406 29.081775665283203 186.89334106445312 1.920039415359497 C 190.19760131835938 23.106231689453125 185.4139404296875 34.526939392089844 184.8334503173828 32.32698440551758" stroke-width="0.0" fill="rgb(110, 111, 111)" opacity="0.9518673"/>
    <path d="M 118.33796691894531 141.95150756835938 C 117.67080688476562 144.6982421875 115.80125427246094 146.899169921875 111.56889343261719 146.9862060546875 C 106.46847534179688 150.26748657226562 106.03430938720703 148.89889526367188 100.93345642089844 140.494140625 C 109.32941436767578 140.6799774169922 110.5403060913086 137.55154418945312 113.05311584472656 137.81874084472656 C 115.6861801147461 137.47357177734375 117.85211181640625 139.23422241210938 118.33796691894531 141.95150756835938" stroke-width="0.0" fill="rgb(211, 211, 211)" opacity="0.7502059"/>
    <path d="M 602.0114135742188 124.53295135498047 C 599.578857421875 126.83698272705078 597.048828125 128.40159606933594 595.7871704101562 126.03325653076172 C 593.3690795898438 126.03326416015625 590.3590087890625 125.88224029541016 589.6516723632812 124.06217193603516 C 591.2410888671875 122.25150299072266 593.265869140625 120.42579650878906 594.9171752929688 118.48174285888672 C 597.5454711914062 119.16744232177734 598.9584350585938 121.89674377441406 602.0114135742188 124.53295135498047" stroke-width="0.0" fill="rgb(255, 255, 255)" opacity="0.607541"/>
    <path d="M 154.0978240966797 586.1740112304688 C 157.36386108398438 586.4637451171875 159.058349609375 590.4777221679688 154.99000549316406 602.8982543945312 C 144.4278106689453 592.3046875 149.73159790039062 585.2425537109375 147.28273010253906 582.878662109375 C 146.27059936523438 578.268310546875 144.48182678222656 569.7701416015625 148.0781707763672 572.8095092773438 C 149.9547119140625 583.73583984375 152.60447692871094 583.8700561523438 154.0978240966797 586.1740112304688" stroke-width="0.0" fill="rgb(168, 168, 168)" opacity="0.9152681"/>
    <path d="M 213.1178741455078 127.5996322631836 C 216.04989624023438 133.16683959960938 208.91819763183594 128.33392333984375 204.5046844482422 120.96769714355469 C 202.2305908203125 120.27867889404297 201.09568786621094 118.42179870605469 200.23968505859375 117.80123901367188 C 194.52731323242188 110.59505462646484 186.38217163085938 104.18103790283203 188.62973022460938 102.56571960449219 C 202.08546447753906 115.94721984863281 203.55442810058594 117.34835815429688 213.1178741455078 127.5996322631836" stroke-width="0.0" fill="rgb(114, 115, 113)" opacity="1.0"/>
    <path d="M 590.3997802734375 50.467708587646484 C 582.9000854492188 61.41084671020508 579.360107421875 60.62208938598633 573.1677856445312 60.13145446777344 C 564.309326171875 64.88371276855469 564.7203979492188 60.75596618652344 575.4584350585938 56.57332992553711 C 575.7479248046875 52.99485778808594 572.5362548828125 50.116783142089844 569.8331298828125 33.44557189941406 C 578.0546264648438 49.98796463012695 576.0130615234375 54.9326057434082 590.3997802734375 50.467708587646484" stroke-width="0.0" fill="rgb(151, 152, 152)" opacity="0.96097326"/>
    <path d="M 332.1482238769531 98.98643493652344 C 336.6524353027344 104.73282623291016 339.4847717285156 109.94269561767578 334.8772888183594 107.30059051513672 C 327.8066711425781 100.61077880859375 325.5306091308594 99.3238296508789 324.43658447265625 98.45838165283203 C 326.1022644042969 98.71350860595703 329.34967041015625 98.27605438232422 332.9380187988281 97.02666473388672 C 330.6327209472656 94.4488296508789 333.45428466796875 96.0740966796875 332.1482238769531 98.98643493652344" stroke-width="0.0" fill="rgb(146, 147, 147)" opacity="0.7764157"/>
    <path d="M 595.170166015625 419.2764892578125 C 577.8021240234375 417.56451416015625 578.8161010742188 421.6969299316406 579.0416870117188 422.11773681640625 C 575.2162475585938 420.5616760253906 572.2213745117188 420.0603332519531 577.1173095703125 423.8082580566406 C 580.5615234375 417.5458068847656 578.8181762695312 413.7592468261719 573.2269287109375 403.9909973144531 C 581.7703247070312 413.3062438964844 590.0169067382812 415.310791015625 595.170166015625 419.2764892578125" stroke-width="0.0" fill="rgb(139, 139, 140)" opacity="1.0"/>
    <path d="M 534.541015625 63.82663345336914 C 527.7861938476562 77.14175415039062 526.5303955078125 78.84559631347656 521.9807739257812 77.14958953857422 C 518.5567016601562 77.70124816894531 517.1178588867188 74.2613525390625 515.9044799804688 71.3596420288086 C 516.1830444335938 69.62842559814453 518.5328979492188 67.50884246826172 521.3455200195312 68.21099853515625 C 524.3228149414062 67.27627563476562 527.9703369140625 66.28994750976562 534.541015625 63.82663345336914" stroke-width="0.0" fill="rgb(202, 203, 203)" opacity="0.67182755"/>
    <path d="M 547.42822265625 538.7640380859375 C 545.5607299804688 541.300048828125 546.7086791992188 544.3361206054688 550.8619995117188 557.882080078125 C 539.86279296875 546.5414428710938 536.3855590820312 544.2262573242188 533.531982421875 531.3963623046875 C 533.4266357421875 529.1338500976562 540.3339233398438 533.1299438476562 550.0745849609375 521.5233764648438 C 545.1983642578125 534.5737915039062 545.5905151367188 537.5599975585938 547.42822265625 538.7640380859375" stroke-width="0.0" fill="rgb(174, 175, 175)" opacity="0.91608834"/>
    <path d="M 602.0540161132812 176.5209503173828 C 592.4290161132812 189.8582763671875 588.3764038085938 186.04937744140625 584.708984375 187.34213256835938 C 575.7686767578125 188.64320373535156 569.7319946289062 187.8136749267578 574.9760131835938 185.7814178466797 C 584.62744140625 186.04489135742188 587.6851196289062 185.83778381347656 589.6556396484375 178.44654846191406 C 587.7913818359375 169.88107299804688 597.7903442382812 173.0792694091797 602.0540161132812 176.5209503173828" stroke-width="0.0" fill="rgb(157, 158, 158)" opacity="0.92279655"/>
    <path d="M 571.974365234375 97.26419830322266 C 564.6862182617188 101.5015640258789 565.3541259765625 106.47313690185547 559.9039916992188 117.98113250732422 C 559.408447265625 106.68064880371094 559.3705444335938 103.59428405761719 556.8015747070312 101.21073150634766 C 558.009033203125 98.28158569335938 560.2052001953125 95.03762817382812 562.9762573242188 96.25677490234375 C 568.755615234375 95.85369873046875 573.9339599609375 94.15584564208984 571.974365234375 97.26419830322266" stroke-width="0.0" fill="rgb(193, 194, 193)" opacity="0.8772286"/>
    <path d="M 42.70142364501953 195.23300170898438 C 39.73476028442383 196.4822235107422 39.60144805908203 199.64027404785156 40.917381286621094 215.93898010253906 C 35.32426071166992 204.2662353515625 34.42519760131836 200.01087951660156 33.45431137084961 195.8553009033203 C 27.487197875976562 185.10105895996094 29.79479217529297 182.3690948486328 35.54631423950195 186.54824829101562 C 41.40024948120117 191.8226318359375 43.11351776123047 193.8394775390625 42.70142364501953 195.23300170898438" stroke-width="0.0" fill="rgb(148, 149, 149)" opacity="1.0"/>
    <path d="M 375.1469421386719 21.409215927124023 C 375.9927978515625 24.0859375 380.34246826171875 27.77830696105957 378.3768310546875 36.36762237548828 C 370.8822937011719 19.547758102416992 366.85955810546875 19.347148895263672 365.1583557128906 19.13287353515625 C 371.5198669433594 17.363658905029297 371.8886413574219 14.962472915649414 371.37860107421875 -4.532138347625732 C 375.2460632324219 10.604573249816895 374.2665710449219 16.026798248291016 375.1469421386719 21.409215927124023" stroke-width="0.0" fill="rgb(137, 137, 137)" opacity="1.0"/>
    <path d="M 176.9297637939453 503.6011962890625 C 169.0431671142578 514.3732299804688 164.7538604736328 513.4580688476562 165.32098388671875 511.1400146484375 C 164.14576721191406 509.4612121582031 161.7620391845703 508.7521667480469 142.7898712158203 512.7499389648438 C 157.57080078125 505.8414306640625 159.9812469482422 497.8620910644531 161.24212646484375 505.1536560058594 C 168.3230743408203 506.73956298828125 173.7763214111328 502.2320861816406 176.9297637939453 503.6011962890625" stroke-width="0.0" fill="rgb(162, 163, 162)" opacity="0.96901584"/>
    <path d="M 557.2249755859375 21.053804397583008 C 558.8043823242188 25.661088943481445 556.399169921875 22.175100326538086 550.8330688476562 24.03658676147461 C 546.8057861328125 26.382692337036133 545.4059448242188 22.55105972290039 545.8906860351562 19.673734664916992 C 546.359619140625 16.456336975097656 547.3228759765625 13.355487823486328 549.8186645507812 14.073563575744629 C 553.0897216796875 13.586258888244629 555.4320678710938 15.712485313415527 557.2249755859375 21.053804397583008" stroke-width="0.0" fill="rgb(243, 243, 243)" opacity="0.7704207"/>
    <path d="M 78.18488311767578 414.1607666015625 C 78.22177124023438 417.7339172363281 75.57127380371094 419.2851257324219 72.126708984375 422.1645812988281 C 66.79316711425781 424.30511474609375 67.45486450195312 424.0359802246094 67.47909545898438 416.9757080078125 C 67.05001831054688 409.5866394042969 68.03473663330078 407.35693359375 71.70909881591797 410.99749755859375 C 75.32202911376953 409.93951416015625 77.6300048828125 412.4054870605469 78.18488311767578 414.1607666015625" stroke-width="0.0" fill="rgb(241, 241, 241)" opacity="0.98242134"/>
    <path d="M 124.28395080566406 332.9464416503906 C 127.61531829833984 355.91363525390625 126.09526824951172 361.55242919921875 92.40005493164062 374.64093017578125 C 60.04131317138672 372.1317443847656 55.882911682128906 369.2723083496094 53.10695266723633 325.0615539550781 C 82.34226989746094 313.53436279296875 96.57278442382812 324.1015930175781 99.95430755615234 325.4178161621094 C 113.43883514404297 319.5732421875 116.40894317626953 314.59295654296875 124.28395080566406 332.9464416503906" stroke-width="0.0" fill="rgb(61, 61, 61)" opacity="1.0"/>
    <path d="M 128.4582061767578 422.4932556152344 C 127.84954833984375 424.5079650878906 122.3304672241211 425.5956726074219 117.45978546142578 430.8431701660156 C 116.61312103271484 424.2908020019531 115.3740463256836 421.7701110839844 113.73078155517578 419.7734375 C 114.31114196777344 417.47003173828125 116.41449737548828 415.0860595703125 120.1913070678711 414.8168029785156 C 121.39262390136719 415.28289794921875 122.75190734863281 418.31744384765625 128.4582061767578 422.4932556152344" stroke-width="0.0" fill="rgb(217, 217, 217)" opacity="0.7510011"/>
    <path d="M 154.2475128173828 335.98614501953125 C 152.60015869140625 352.624755859375 146.75189208984375 353.5318908691406 127.11653900146484 356.77984619140625 C 101.00846862792969 344.8024597167969 100.07431030273438 338.9928894042969 104.34165954589844 332.2047424316406 C 112.8575668334961 321.6509094238281 114.58982849121094 319.000244140625 120.92638397216797 317.3492736816406 C 128.51971435546875 311.9591979980469 132.90069580078125 311.3484191894531 154.2475128173828 335.98614501953125" stroke-width="0.0" fill="rgb(122, 122, 122)" opacity="0.946039"/>
    <path d="M 530.7028198242188 455.35107421875 C 527.8109741210938 457.7035827636719 525.999267578125 460.7790222167969 523.3201904296875 461.0906677246094 C 520.4453125 460.5018310546875 518.3475952148438 458.6696472167969 517.5740356445312 456.1174011230469 C 518.5682983398438 453.5843505859375 520.4840087890625 451.03155517578125 522.8800048828125 451.46026611328125 C 527.5555419921875 449.7569274902344 530.7306518554688 449.85614013671875 530.7028198242188 455.35107421875" stroke-width="0.0" fill="rgb(235, 235, 235)" opacity="0.658046"/>
    <path d="M 583.0072631835938 566.603271484375 C 582.7034912109375 568.2636108398438 580.2991333007812 570.4789428710938 578.1990356445312 571.1912231445312 C 575.7948608398438 570.0548095703125 573.3401489257812 568.3080444335938 571.7174682617188 565.815185546875 C 572.6380004882812 563.0469970703125 575.1549072265625 561.0504150390625 578.0250854492188 559.5989990234375 C 580.5156860351562 561.6026000976562 582.2166748046875 563.6431274414062 583.0072631835938 566.603271484375" stroke-width="0.0" fill="rgb(255, 255, 255)" opacity="0.59039265"/>
    <path d="M 440.1479797363281 106.82835388183594 C 438.8967590332031 109.06574249267578 437.2187194824219 111.77822875976562 434.1839599609375 114.55513763427734 C 430.46624755859375 113.77422332763672 429.40911865234375 111.08889770507812 430.115478515625 106.0114974975586 C 429.4160461425781 101.1749038696289 431.11029052734375 94.65314483642578 435.5638427734375 101.44376373291016 C 438.0478210449219 102.2935562133789 438.8976135253906 104.18798828125 440.1479797363281 106.82835388183594" stroke-width="0.0" fill="rgb(193, 194, 193)" opacity="0.83341074"/>
    <path d="M 523.0725708007812 198.21583557128906 C 513.0924682617188 209.2019500732422 496.7409362792969 205.2180633544922 477.59613037109375 207.364501953125 C 459.0024719238281 205.4691162109375 450.91644287109375 210.35874938964844 452.3490295410156 200.86639404296875 C 460.6662902832031 189.8169403076172 464.1934814453125 190.9915771484375 472.0862731933594 191.19271850585938 C 493.3471374511719 193.37838745117188 506.7868347167969 190.30502319335938 523.0725708007812 198.21583557128906" stroke-width="0.0" fill="rgb(50, 49, 49)" opacity="0.97831494"/>
    <path d="M 508.56744384765625 323.6509704589844 C 503.4769592285156 343.1672058105469 497.03515625 343.63818359375 477.550048828125 338.2152099609375 C 451.88385009765625 323.6180725097656 451.0431213378906 320.65472412109375 452.59368896484375 301.41632080078125 C 451.7385559082031 293.72808837890625 450.99102783203125 291.6285705566406 459.72967529296875 293.6572265625 C 475.61871337890625 297.79010009765625 491.2841491699219 290.8625183105469 508.56744384765625 323.6509704589844" stroke-width="0.0" fill="rgb(90, 90, 90)" opacity="0.98170763"/>
    <path d="M 509.4830627441406 389.8059997558594 C 503.9796142578125 400.3960876464844 508.0285339355469 406.4018859863281 502.224853515625 424.0614013671875 C 495.7648010253906 404.4563293457031 498.9552001953125 399.3983459472656 497.9264221191406 398.17852783203125 C 496.1857604980469 397.0389709472656 498.5699462890625 396.701416015625 503.70166015625 397.11065673828125 C 506.8698425292969 386.9884948730469 511.39794921875 385.302001953125 509.4830627441406 389.8059997558594" stroke-width="0.0" fill="rgb(159, 160, 160)" opacity="0.92461634"/>
    <path d="M 336.0199890136719 17.290496826171875 C 331.62066650390625 19.048654556274414 322.72918701171875 15.453529357910156 320.415771484375 15.76620101928711 C 320.7551574707031 12.83790397644043 313.8909912109375 20.52511215209961 297.2129821777344 10.429815292358398 C 316.4382629394531 9.901885986328125 322.0104675292969 16.94660186767578 321.6599426269531 17.17017936706543 C 317.984375 12.477326393127441 320.3177490234375 13.640917778015137 336.0199890136719 17.290496826171875" stroke-width="0.0" fill="rgb(127, 127, 127)" opacity="0.93307877"/>
    <path d="M 139.40036010742188 595.4373779296875 C 129.63272094726562 598.9434814453125 126.07141876220703 598.8057861328125 125.35914611816406 598.6411743164062 C 123.22175598144531 600.462646484375 118.05732727050781 599.0750122070312 113.64814758300781 599.6651611328125 C 120.2684555053711 588.0724487304688 118.32240295410156 583.9955444335938 122.86222839355469 590.9440307617188 C 130.7064666748047 590.7864379882812 134.2392120361328 590.4898681640625 139.40036010742188 595.4373779296875" stroke-width="0.0" fill="rgb(222, 222, 222)" opacity="1.0"/>
    <path d="M 496.02178955078125 443.453125 C 476.1744079589844 455.3695983886719 472.04766845703125 456.6383056640625 468.4529724121094 466.6459655761719 C 462.5906677246094 472.7697448730469 462.204833984375 469.72735595703125 465.2279968261719 451.0670166015625 C 463.6492004394531 438.031005859375 467.1245422363281 438.3559875488281 468.43377685546875 449.0849304199219 C 478.3790588378906 451.1676025390625 483.462646484375 444.7362976074219 496.02178955078125 443.453125" stroke-width="0.0" fill="rgb(146, 148, 147)" opacity="0.98893726"/>
    <path d="M 54.48497772216797 153.18148803710938 C 59.7115592956543 156.78688049316406 59.028465270996094 159.14523315429688 52.521610260009766 167.66273498535156 C 43.10044860839844 163.09283447265625 42.708255767822266 157.7415771484375 40.34383773803711 145.63189697265625 C 47.340972900390625 147.369384765625 50.27212905883789 147.7919464111328 52.47115707397461 145.55996704101562 C 53.275604248046875 146.85833740234375 53.59619140625 149.71762084960938 54.48497772216797 153.18148803710938" stroke-width="0.0" fill="rgb(185, 186, 186)" opacity="0.94893295"/>
    <path d="M 146.61158752441406 41.63348388671875 C 145.2079315185547 43.1876335144043 143.28448486328125 45.97404861450195 141.19532775878906 46.09882354736328 C 138.12457275390625 46.414249420166016 137.1590118408203 43.26590347290039 135.66983032226562 40.090065002441406 C 136.92393493652344 38.60546875 138.3113250732422 36.271766662597656 141.50323486328125 35.83917236328125 C 143.48387145996094 36.3021240234375 145.2503662109375 38.47538375854492 146.61158752441406 41.63348388671875" stroke-width="0.0" fill="rgb(255, 255, 255)" opacity="0.5981826"/>
    <path d="M 25.211240768432617 210.15127563476562 C 23.788816452026367 211.93934631347656 21.82461929321289 214.29368591308594 19.60297966003418 213.9547576904297 C 17.44754409790039 214.57655334472656 15.40925121307373 212.72979736328125 14.700233459472656 210.10133361816406 C 15.270747184753418 207.46380615234375 17.58429718017578 205.1071319580078 19.91142463684082 206.2830810546875 C 22.587928771972656 205.0263214111328 24.525894165039062 207.36331176757812 25.211240768432617 210.15127563476562" stroke-width="0.0" fill="rgb(255, 255, 255)" opacity="0.61039335"/>
    <path d="M 503.9378662109375 342.2927551269531 C 498.1748352050781 348.08544921875 485.2671813964844 344.12078857421875 462.2265930175781 344.34844970703125 C 454.9894104003906 337.7198181152344 451.8226013183594 334.7983093261719 451.9447326660156 318.3421936035156 C 450.56475830078125 313.6296081542969 453.66497802734375 309.2752380371094 453.0109558105469 312.0035095214844 C 459.2978820800781 325.8052062988281 479.119873046875 314.3057861328125 503.9378662109375 342.2927551269531" stroke-width="0.0" fill="rgb(35, 35, 35)" opacity="0.8205309"/>
    <path d="M 107.5903549194336 553.9866943359375 C 103.57648468017578 557.5142211914062 113.1044692993164 562.4494018554688 116.62161254882812 576.512939453125 C 101.9642562866211 555.19384765625 105.03479766845703 552.7506103515625 83.07540130615234 538.0389404296875 C 96.55449676513672 538.2158813476562 106.90824890136719 562.2606811523438 105.68749237060547 544.5847778320312 C 110.64138793945312 530.51123046875 108.47220611572266 543.2859497070312 107.5903549194336 553.9866943359375" stroke-width="0.0" fill="rgb(90, 91, 91)" opacity="0.9908987"/>
    <path d="M 427.96759033203125 166.46878051757812 C 414.36846923828125 177.62510681152344 412.1229248046875 180.0813446044922 401.1314697265625 186.08201599121094 C 404.40509033203125 180.9440155029297 406.0335998535156 177.6739501953125 403.9290466308594 174.52487182617188 C 397.4694519042969 164.4846649169922 399.7274475097656 162.81507873535156 405.4913635253906 170.4103546142578 C 410.40362548828125 170.74024963378906 412.6953125 170.19337463378906 427.96759033203125 166.46878051757812" stroke-width="0.0" fill="rgb(176, 176, 176)" opacity="0.92246085"/>
    <path d="M 123.68170166015625 24.792375564575195 C 118.58949279785156 24.840059280395508 113.66387176513672 28.120630264282227 111.27654266357422 27.668359756469727 C 103.4886703491211 27.200313568115234 104.65706634521484 29.465469360351562 106.80757141113281 24.39369010925293 C 106.65384674072266 21.026519775390625 108.94160461425781 18.076465606689453 111.73786926269531 17.855316162109375 C 112.96276092529297 19.060029983520508 113.79312133789062 22.599224090576172 123.68170166015625 24.792375564575195" stroke-width="0.0" fill="rgb(202, 203, 202)" opacity="0.9885461"/>
    <path d="M 46.188838958740234 190.1817626953125 C 45.79738235473633 191.82386779785156 45.64293670654297 195.35757446289062 40.037269592285156 202.85707092285156 C 34.99002456665039 197.9937744140625 34.92689514160156 193.90487670898438 33.91911315917969 188.04769897460938 C 36.09773254394531 186.20138549804688 38.88699722290039 184.37220764160156 41.20790481567383 183.81373596191406 C 43.67476272583008 183.86715698242188 44.93849563598633 186.61585998535156 46.188838958740234 190.1817626953125" stroke-width="0.0" fill="rgb(255, 255, 255)" opacity="0.85854584"/>
    <path d="M 583.0817260742188 25.34463882446289 C 581.6914672851562 28.144805908203125 580.0263061523438 30.267417907714844 578.1557006835938 32.41545867919922 C 574.9644775390625 30.67975425720215 572.9977416992188 28.987810134887695 571.2859497070312 26.512392044067383 C 573.6663818359375 23.496482849121094 575.4061279296875 21.68400001525879 577.84423828125 20.559606552124023 C 580.5125122070312 21.617013931274414 582.3893432617188 23.494216918945312 583.0817260742188 25.34463882446289" stroke-width="0.0" fill="rgb(255, 255, 255)" opacity="0.58616114"/>
    <path d="M 480.62042236328125 589.234619140625 C 476.3024597167969 591.9442749023438 470.7406005859375 592.2646484375 457.6742858886719 598.4132690429688 C 461.589599609375 590.1461181640625 461.25177001953125 588.8194580078125 458.0373229980469 586.831298828125 C 460.0015563964844 583.8197631835938 461.5912170410156 581.8111572265625 465.2403564453125 581.8995361328125 C 467.1826171875 582.4174194335938 467.22772216796875 586.7140502929688 480.62042236328125 589.234619140625" stroke-width="0.0" fill="rgb(203, 204, 204)" opacity="0.93596566"/>
    <path d="M 137.1664276123047 23.009281158447266 C 136.37925720214844 25.16153907775879 134.2883758544922 27.696969985961914 133.2911834716797 28.126012802124023 C 127.75239562988281 28.020681381225586 123.81610870361328 29.00297737121582 118.96231842041016 24.01272964477539 C 125.58629608154297 14.85245132446289 126.0845947265625 11.971549034118652 129.77450561523438 18.861597061157227 C 134.3436737060547 18.52488899230957 137.0887908935547 20.51508331298828 137.1664276123047 23.009281158447266" stroke-width="0.0" fill="rgb(194, 195, 195)" opacity="0.8657356"/>
    <path d="M 193.880615234375 561.9840087890625 C 178.64117431640625 576.0783081054688 176.5803985595703 573.4251708984375 184.1653289794922 592.5382080078125 C 171.66529846191406 575.9544067382812 169.37684631347656 579.3209228515625 173.68087768554688 573.2184448242188 C 167.0462646484375 562.0449829101562 173.10455322265625 566.2056884765625 176.50042724609375 572.39599609375 C 185.001220703125 567.9998779296875 191.0883026123047 558.8861083984375 193.880615234375 561.9840087890625" stroke-width="0.0" fill="rgb(126, 127, 128)" opacity="0.9605273"/>
    <path d="M 210.96876525878906 586.2758178710938 C 212.64405822753906 591.4185791015625 210.55123901367188 593.3842163085938 206.85997009277344 593.0889892578125 C 204.6796417236328 593.2532958984375 202.7179412841797 590.2150268554688 201.02903747558594 588.4994506835938 C 203.42063903808594 586.2313232421875 205.2193145751953 583.7022705078125 206.9323272705078 583.1493530273438 C 209.93333435058594 584.130126953125 211.7205352783203 584.9866333007812 210.96876525878906 586.2758178710938" stroke-width="0.0" fill="rgb(220, 220, 220)" opacity="0.64579755"/>
    <path d="M 463.05853271484375 582.3690185546875 C 461.1498107910156 585.158935546875 458.9571533203125 586.5429077148438 456.0265197753906 587.7265014648438 C 455.2528991699219 585.8815307617188 453.035888671875 583.12060546875 438.1273498535156 585.0596923828125 C 450.5116271972656 580.3534545898438 455.363525390625 579.6505126953125 455.2956237792969 578.1903686523438 C 461.49420166015625 578.6869506835938 463.3125915527344 579.0505981445312 463.05853271484375 582.3690185546875" stroke-width="0.0" fill="rgb(200, 201, 201)" opacity="1.0"/>
    <path d="M 446.93255615234375 188.4589385986328 C 448.85400390625 193.47039794921875 446.9909973144531 197.40391540527344 435.2276306152344 203.22598266601562 C 433.546630859375 195.51803588867188 435.3060607910156 191.8611297607422 434.9537048339844 187.2423553466797 C 435.0220947265625 184.22921752929688 433.10467529296875 179.83421325683594 437.8877868652344 172.90992736816406 C 441.5119934082031 184.71351623535156 442.4478759765625 186.2370147705078 446.93255615234375 188.4589385986328" stroke-width="0.0" fill="rgb(199, 199, 199)" opacity="0.9183483"/>
    <path d="M 479.04925537109375 135.5989990234375 C 464.5527648925781 141.37071228027344 457.8722839355469 136.21987915039062 456.0032653808594 136.445068359375 C 453.0572204589844 135.5869903564453 445.16925048828125 135.82000732421875 423.68011474609375 135.95816040039062 C 448.2319030761719 127.32495880126953 450.6588439941406 124.28670501708984 449.41668701171875 132.3648223876953 C 453.0301513671875 134.87612915039062 456.66815185546875 132.8813934326172 479.04925537109375 135.5989990234375" stroke-width="0.0" fill="rgb(162, 163, 163)" opacity="1.0"/>
    <path d="M 37.06496810913086 598.9140014648438 C 29.633272171020508 601.4556274414062 27.49294090270996 603.2565307617188 25.006011962890625 604.013916015625 C 22.524978637695312 603.3152465820312 20.578449249267578 601.5126342773438 19.401439666748047 599.6177368164062 C 19.74732780456543 596.0081176757812 22.367321014404297 595.1194458007812 25.248563766479492 593.5304565429688 C 27.69228744506836 594.2621459960938 29.386089324951172 596.7301635742188 37.06496810913086 598.9140014648438" stroke-width="0.0" fill="rgb(229, 230, 231)" opacity="0.67686176"/>
    <path d="M 105.34606170654297 526.685546875 C 103.7330551147461 529.4889526367188 101.39805603027344 531.5046997070312 98.25895690917969 533.3539428710938 C 95.82449340820312 532.1765747070312 94.39910888671875 529.98828125 95.07811737060547 527.300048828125 C 94.35956573486328 524.6012573242188 96.24375915527344 522.0826416015625 99.42387390136719 521.9512939453125 C 101.23432159423828 522.1217041015625 103.10517883300781 524.8594360351562 105.34606170654297 526.685546875" stroke-width="0.0" fill="rgb(255, 255, 255)" opacity="0.59644645"/>
    <path d="M 230.35044860839844 105.48342895507812 C 228.81556701660156 107.9991226196289 228.796630859375 111.09461212158203 229.1758575439453 119.99623107910156 C 220.89840698242188 112.36003875732422 218.87167358398438 109.6797103881836 211.12429809570312 103.41011810302734 C 221.46653747558594 104.61683654785156 223.0004119873047 102.4238052368164 224.87713623046875 100.7058334350586 C 227.5718536376953 101.1778335571289 229.3363494873047 103.6618881225586 230.35044860839844 105.48342895507812" stroke-width="0.0" fill="rgb(220, 220, 220)" opacity="0.85033166"/>
    <path d="M 9.849324226379395 215.25482177734375 C 12.991217613220215 224.7098846435547 14.86316967010498 227.36367797851562 9.13990592956543 222.39144897460938 C 3.0516605377197266 219.99533081054688 1.095198154449463 217.85025024414062 -1.9764975309371948 215.93661499023438 C 2.177816867828369 214.55662536621094 3.7087655067443848 212.73617553710938 4.481054782867432 193.65431213378906 C 11.107304573059082 206.67611694335938 8.706818580627441 211.97994995117188 9.849324226379395 215.25482177734375" stroke-width="0.0" fill="rgb(181, 181, 181)" opacity="0.82640064"/>
    <path d="M 575.8411865234375 318.3844909667969 C 576.1051025390625 321.5464782714844 579.9725952148438 326.5884704589844 565.20849609375 342.4101257324219 C 569.3059692382812 328.200927734375 570.9549560546875 324.09197998046875 555.194580078125 314.11895751953125 C 573.4278564453125 319.8075866699219 573.505859375 319.1574401855469 585.03564453125 299.8093566894531 C 583.230224609375 310.84222412109375 577.2645874023438 315.46905517578125 575.8411865234375 318.3844909667969" stroke-width="0.0" fill="rgb(150, 151, 151)" opacity="0.75225574"/>
    <path d="M 575.9871826171875 399.7737121582031 C 576.3224487304688 403.48065185546875 575.7692260742188 405.42681884765625 573.1256713867188 404.3421325683594 C 569.309814453125 405.1686706542969 568.8900146484375 402.7511291503906 568.3038330078125 402.57318115234375 C 565.1466674804688 399.6056213378906 569.5723266601562 396.212646484375 572.9607543945312 394.7477111816406 C 574.6339721679688 395.224853515625 576.8823852539062 397.6200256347656 575.9871826171875 399.7737121582031" stroke-width="0.0" fill="rgb(215, 215, 215)" opacity="0.8741498"/>
    <path d="M 488.8028564453125 185.77964782714844 C 488.87957763671875 187.6863250732422 486.0523681640625 189.5596466064453 480.9720764160156 190.1439666748047 C 481.510986328125 190.5064239501953 482.4508361816406 185.70156860351562 470.1310119628906 188.7534942626953 C 467.59930419921875 173.6358184814453 470.6609191894531 171.44076538085938 488.8399658203125 173.61961364746094 C 487.32684326171875 180.656005859375 485.9053039550781 183.58033752441406 488.8028564453125 185.77964782714844" stroke-width="0.0" fill="rgb(176, 177, 176)" opacity="0.6874315"/>
    <path d="M 298.244873046875 599.1720581054688 C 288.3238525390625 602.720703125 284.6777038574219 602.4752197265625 281.943603515625 603.0261840820312 C 278.84808349609375 602.6489868164062 275.25244140625 601.7086181640625 273.3323974609375 599.424560546875 C 281.10760498046875 594.9569702148438 275.8631896972656 589.9845581054688 274.2366027832031 586.5805053710938 C 291.40972900390625 589.0913696289062 296.0843811035156 585.672607421875 298.244873046875 599.1720581054688" stroke-width="0.0" fill="rgb(183, 184, 184)" opacity="0.8950278"/>
    <path d="M 87.33332061767578 481.34088134765625 C 88.14324951171875 488.699951171875 87.64859771728516 487.4833679199219 82.43592834472656 487.7703552246094 C 76.5702133178711 486.6353759765625 73.59855651855469 484.62774658203125 74.14222717285156 481.8948059082031 C 73.56128692626953 479.12237548828125 77.35144805908203 478.49603271484375 81.95040893554688 471.9842529296875 C 85.00491333007812 473.0504455566406 84.74894714355469 476.93359375 87.33332061767578 481.34088134765625" stroke-width="0.0" fill="rgb(213, 214, 214)" opacity="0.9750737"/>
    <path d="M 262.739990234375 529.5614013671875 C 258.4276123046875 534.3748779296875 256.7695617675781 535.4385375976562 251.69456481933594 541.0529174804688 C 243.7276153564453 555.2251586914062 236.31683349609375 548.5149536132812 249.71702575683594 540.3281860351562 C 255.2812042236328 533.4880981445312 256.9361877441406 532.502685546875 263.5640563964844 526.0014038085938 C 273.8743896484375 512.4921264648438 277.99444580078125 518.8382568359375 262.739990234375 529.5614013671875" stroke-width="0.0" fill="rgb(87, 88, 89)" opacity="0.9967497"/>
    <path d="M 603.0303955078125 10.10333251953125 C 602.40380859375 12.777605056762695 600.7337646484375 14.823016166687012 598.34033203125 13.473102569580078 C 594.0122680664062 9.586042404174805 593.2947387695312 9.290214538574219 572.1132202148438 17.446157455444336 C 591.798583984375 3.3715360164642334 592.7858276367188 7.34918212890625 599.0682983398438 11.476438522338867 C 600.8031616210938 8.523428916931152 602.5100708007812 8.248309135437012 603.0303955078125 10.10333251953125" stroke-width="0.0" fill="rgb(106, 107, 106)" opacity="0.97156715"/>
    <path d="M 152.39007568359375 370.1080322265625 C 151.48338317871094 384.9989318847656 139.912841796875 381.05926513671875 123.08231353759766 386.2677001953125 C 105.09390258789062 380.398681640625 91.45085144042969 392.5277099609375 83.02273559570312 380.0211181640625 C 90.38033294677734 343.91253662109375 98.65019226074219 343.13397216796875 126.8603286743164 337.5516052246094 C 156.52992248535156 341.2940368652344 151.65530395507812 346.9977722167969 152.39007568359375 370.1080322265625" stroke-width="0.0" fill="rgb(78, 78, 78)" opacity="0.97566456"/>
    <path d="M 506.2340087890625 303.4183349609375 C 502.9360656738281 326.0656433105469 493.4990234375 321.6002197265625 475.7954406738281 312.1356201171875 C 457.51153564453125 307.1280517578125 451.6927185058594 307.28826904296875 452.80755615234375 291.33160400390625 C 452.06768798828125 275.740478515625 442.62261962890625 265.5484313964844 462.9134521484375 260.8981628417969 C 491.5416259765625 269.9473571777344 496.1258850097656 272.3345031738281 506.2340087890625 303.4183349609375" stroke-width="0.0" fill="rgb(90, 87, 89)" opacity="0.9619373"/>
    <path d="M 531.1904907226562 431.6783752441406 C 532.2577514648438 436.7532958984375 532.3550415039062 441.28582763671875 525.8072509765625 448.35601806640625 C 520.3921508789062 439.92437744140625 521.6649780273438 436.1065979003906 521.9187622070312 432.06573486328125 C 522.6298828125 430.7989501953125 524.7147216796875 428.3984680175781 527.17822265625 426.6518249511719 C 529.6527709960938 429.4807434082031 532.2587280273438 430.40606689453125 531.1904907226562 431.6783752441406" stroke-width="0.0" fill="rgb(209, 209, 209)" opacity="0.95606685"/>
    <path d="M 472.767822265625 287.6013488769531 C 467.4578552246094 296.1159973144531 456.60107421875 293.3688049316406 450.2861633300781 283.2762145996094 C 450.0422668457031 280.3406066894531 449.41534423828125 278.6300354003906 450.59228515625 284.2605895996094 C 450.1781005859375 283.7898254394531 446.6240539550781 278.8948059082031 444.26617431640625 273.50958251953125 C 447.9515075683594 276.3569030761719 451.1507263183594 279.9054870605469 472.767822265625 287.6013488769531" stroke-width="0.0" fill="rgb(69, 67, 67)" opacity="1.0"/>
    <path d="M 603.0259399414062 443.98638916015625 C 602.3438110351562 446.5646667480469 600.5233154296875 448.6420593261719 597.931640625 450.3046569824219 C 595.7489624023438 448.1689453125 593.7622680664062 445.7288818359375 590.9354858398438 444.5876770019531 C 593.8345336914062 441.89947509765625 595.79052734375 439.3868103027344 597.1315307617188 438.63482666015625 C 600.3106079101562 439.9461975097656 602.3552856445312 441.49383544921875 603.0259399414062 443.98638916015625" stroke-width="0.0" fill="rgb(255, 255, 255)" opacity="0.6273494"/>
    <path d="M 495.3424987792969 90.72930145263672 C 493.9530334472656 94.53197479248047 492.87237548828125 97.22505950927734 490.225830078125 97.17568969726562 C 486.7869873046875 97.36152648925781 484.9981689453125 95.13500213623047 483.80755615234375 91.80297088623047 C 485.8575134277344 89.74394226074219 487.7746887207031 87.58023834228516 490.10919189453125 85.59307098388672 C 492.2511291503906 87.7022476196289 494.2522277832031 89.72274780273438 495.3424987792969 90.72930145263672" stroke-width="0.0" fill="rgb(255, 255, 255)" opacity="0.5911689"/>
    <path d="M 286.8561096191406 26.58244514465332 C 284.4418640136719 29.276588439941406 282.2083740234375 31.066545486450195 280.1534118652344 33.425418853759766 C 277.48822021484375 31.489370346069336 275.74627685546875 29.3940372467041 274.8703918457031 26.33333396911621 C 274.9793701171875 24.433914184570312 277.5711669921875 22.773954391479492 281.03363037109375 21.821937561035156 C 282.3580627441406 22.249786376953125 283.80987548828125 25.28156089782715 286.8561096191406 26.58244514465332" stroke-width="0.0" fill="rgb(255, 255, 255)" opacity="0.594866"/>
    <path d="M 501.3037109375 429.2833251953125 C 501.8840026855469 431.388671875 499.42181396484375 433.6330871582031 496.9259948730469 434.2342224121094 C 494.6063232421875 433.7516784667969 492.4745178222656 431.3163757324219 491.87738037109375 429.7044372558594 C 491.92205810546875 426.2407531738281 494.3559265136719 424.579833984375 498.16241455078125 423.87725830078125 C 502.1150207519531 422.4141845703125 501.8919982910156 423.719970703125 501.3037109375 429.2833251953125" stroke-width="0.0" fill="rgb(255, 255, 255)" opacity="0.61718583"/>
    <path d="M 437.2221984863281 79.26465606689453 C 436.5825500488281 82.54296112060547 435.05462646484375 84.71659088134766 432.20928955078125 96.04484558105469 C 429.10345458984375 86.25160217285156 426.7467041015625 84.01570892333984 425.0603942871094 78.70919799804688 C 426.8775939941406 77.76042175292969 429.1377258300781 75.14515686035156 431.6220703125 72.7291488647461 C 433.9654846191406 76.21505737304688 437.0003356933594 77.66759490966797 437.2221984863281 79.26465606689453" stroke-width="0.0" fill="rgb(209, 209, 209)" opacity="0.76585716"/>
    <path d="M 195.45291137695312 136.0871124267578 C 194.26266479492188 138.08206176757812 192.57591247558594 140.42100524902344 188.8833770751953 146.87950134277344 C 189.08335876464844 138.5430908203125 184.88702392578125 138.07827758789062 184.82943725585938 136.7237548828125 C 184.62806701660156 133.3643341064453 187.4355926513672 131.76490783691406 190.6940460205078 130.86849975585938 C 192.3539276123047 131.09898376464844 194.51156616210938 133.4610137939453 195.45291137695312 136.0871124267578" stroke-width="0.0" fill="rgb(234, 234, 234)" opacity="0.6790651"/>
    <path d="M 138.3306884765625 317.36767578125 C 135.90065002441406 322.11895751953125 133.4052734375 315.6233825683594 130.0078582763672 314.5087585449219 C 123.37120056152344 317.5770263671875 118.81291198730469 318.7889099121094 117.58375549316406 317.6170959472656 C 116.3864517211914 311.6376037597656 119.05501556396484 308.890625 120.9415054321289 310.2203369140625 C 122.50939178466797 312.7370300292969 126.0761947631836 312.1496276855469 138.3306884765625 317.36767578125" stroke-width="0.0" fill="rgb(218, 217, 218)" opacity="0.7935024"/>
    <path d="M 458.864990234375 93.02192687988281 C 457.4743957519531 95.53338623046875 455.6063232421875 96.90277862548828 453.2069396972656 97.50157165527344 C 449.82708740234375 97.80474090576172 447.4002380371094 96.03988647460938 448.0755310058594 93.30747985839844 C 449.71893310546875 89.83838653564453 449.4858093261719 84.23448944091797 452.2781677246094 81.06566619873047 C 454.0165710449219 91.03981018066406 457.0553894042969 91.56046295166016 458.864990234375 93.02192687988281" stroke-width="0.0" fill="rgb(178, 179, 179)" opacity="0.6571607"/>
    <path d="M 10.404217720031738 394.54345703125 C 10.67363166809082 399.938720703125 11.217530250549316 401.8028869628906 7.70613956451416 399.98553466796875 C 3.2636313438415527 400.5582275390625 1.6098718643188477 397.6548767089844 0.9086121916770935 394.06365966796875 C 1.185141921043396 392.45782470703125 3.759817600250244 390.7178649902344 6.831725120544434 390.3658142089844 C 11.23419189453125 388.38702392578125 11.088092803955078 388.9638977050781 10.404217720031738 394.54345703125" stroke-width="0.0" fill="rgb(213, 213, 213)" opacity="0.72310084"/>
    <path d="M 435.93902587890625 149.71714782714844 C 433.47021484375 151.5817413330078 432.1280517578125 154.7362823486328 430.0319519042969 154.06903076171875 C 426.4413146972656 153.82752990722656 424.3426818847656 151.5504150390625 423.54248046875 148.8623504638672 C 424.2768859863281 146.1543426513672 426.28094482421875 144.23919677734375 429.21356201171875 145.2500457763672 C 431.5882263183594 144.16053771972656 433.1849670410156 146.56858825683594 435.93902587890625 149.71714782714844" stroke-width="0.0" fill="rgb(255, 255, 255)" opacity="0.5954495"/>
    <path d="M 516.9478149414062 488.28790283203125 C 516.0081176757812 495.1873474121094 513.8806762695312 493.0789794921875 505.939697265625 493.6605529785156 C 499.70733642578125 493.42413330078125 500.93115234375 494.9295959472656 500.7269592285156 489.7849426269531 C 502.4010925292969 486.5682678222656 503.4630432128906 482.59088134765625 507.4170227050781 484.1965637207031 C 510.6588134765625 483.2322998046875 513.8858032226562 480.7752685546875 516.9478149414062 488.28790283203125" stroke-width="0.0" fill="rgb(213, 213, 213)" opacity="1.0"/>
    <path d="M 304.6445617675781 115.72864532470703 C 299.21990966796875 118.07966613769531 297.45880126953125 120.49658203125 294.5021667480469 121.2654037475586 C 292.341064453125 120.73347473144531 290.4557800292969 118.5287857055664 286.7875061035156 118.07186889648438 C 291.8584289550781 114.58355712890625 293.08734130859375 112.02656555175781 295.9088439941406 109.95618438720703 C 299.8433837890625 110.99727630615234 303.6018371582031 112.69094848632812 304.6445617675781 115.72864532470703" stroke-width="0.0" fill="rgb(255, 255, 255)" opacity="0.9220385"/>
    <path d="M 602.4631958007812 335.96466064453125 C 600.5072021484375 337.751708984375 596.0090942382812 338.31646728515625 597.5424194335938 347.16119384765625 C 588.597900390625 346.7508544921875 589.6173095703125 342.75799560546875 579.4234619140625 329.1941223144531 C 593.681396484375 338.5594177246094 597.0554809570312 338.1233825683594 600.708740234375 332.8916015625 C 600.4202880859375 329.5518798828125 601.8970947265625 332.6885986328125 602.4631958007812 335.96466064453125" stroke-width="0.0" fill="rgb(163, 164, 166)" opacity="0.9220735"/>
    <path d="M 527.7325439453125 243.89260864257812 C 508.8265686035156 276.39410400390625 506.2777404785156 281.33673095703125 479.7257995605469 289.4596862792969 C 454.1926574707031 288.0792541503906 446.8087463378906 291.4148254394531 442.30413818359375 240.29150390625 C 449.745361328125 222.98402404785156 453.7110900878906 219.61354064941406 488.8590087890625 214.1605987548828 C 524.7056274414062 218.09974670410156 528.1301879882812 221.8595428466797 527.7325439453125 243.89260864257812" stroke-width="0.0" fill="rgb(86, 85, 85)" opacity="1.0"/>
    <path d="M 236.59902954101562 469.9701843261719 C 237.6160430908203 495.042724609375 236.45980834960938 498.48138427734375 214.43527221679688 493.0774841308594 C 183.0198211669922 482.1424560546875 181.7618865966797 478.48760986328125 178.4861602783203 461.1607971191406 C 178.04881286621094 447.5400390625 184.33554077148438 450.4410400390625 201.75247192382812 448.93194580078125 C 223.6961669921875 449.7200012207031 231.92291259765625 441.9893493652344 236.59902954101562 469.9701843261719" stroke-width="0.0" fill="rgb(54, 54, 54)" opacity="0.9084435"/>
    <path d="M 461.0052185058594 493.18768310546875 C 462.9781799316406 500.33660888671875 462.4781188964844 506.49896240234375 459.6646728515625 499.3714904785156 C 457.9959716796875 488.6094665527344 452.2283630371094 492.5390625 445.1339416503906 495.7216491699219 C 450.95501708984375 488.7259216308594 453.53155517578125 485.8703308105469 464.3984069824219 469.28070068359375 C 458.99542236328125 484.8560485839844 457.43609619140625 490.22540283203125 461.0052185058594 493.18768310546875" stroke-width="0.0" fill="rgb(130, 131, 131)" opacity="1.0"/>
    <path d="M 484.89996337890625 196.70587158203125 C 474.3712158203125 204.69943237304688 463.76214599609375 198.68055725097656 451.17657470703125 202.82090759277344 C 444.0030212402344 206.63424682617188 437.2940979003906 203.0438690185547 423.614990234375 195.73562622070312 C 436.15362548828125 196.4927215576172 445.1214294433594 190.5531005859375 455.4442443847656 192.3881378173828 C 470.3506164550781 193.10122680664062 477.47467041015625 190.9329376220703 484.89996337890625 196.70587158203125" stroke-width="0.0" fill="rgb(2, 3, 2)" opacity="0.96671206"/>
    <path d="M 19.178203582763672 498.9849548339844 C 13.422531127929688 506.7369079589844 6.999128341674805 501.85833740234375 1.453972578048706 502.4723815917969 C -1.6193580627441406 503.3446960449219 -3.3505616188049316 500.64727783203125 -4.003022193908691 498.00201416015625 C -3.372748613357544 495.3793029785156 -1.7959275245666504 492.82232666015625 -0.7329971790313721 493.8736877441406 C 0.5971349477767944 497.56072998046875 3.5149030685424805 497.9390869140625 19.178203582763672 498.9849548339844" stroke-width="0.0" fill="rgb(164, 164, 164)" opacity="0.9975975"/>
  </g>
</svg>
