<?xml version="1.0" ?>
<svg xmlns="http://www.w3.org/2000/svg" version="1.1" width="600" height="600">
  <defs/>
  <g>
    <path d="M 20.301713943481445 352.8857421875 C 19.3815860748291 355.5493469238281 17.52846908569336 357.30523681640625 14.928586959838867 357.8848571777344 C 12.428139686584473 357.40020751953125 10.606110572814941 355.56988525390625 9.741247177124023 352.98101806640625 C 10.453702926635742 350.2896423339844 12.27676773071289 348.40966796875 14.91488265991211 347.5232849121094 C 17.547082901000977 348.5816650390625 19.421293258666992 350.4519348144531 20.301713943481445 352.8857421875" stroke-width="0.0" fill="rgb(252, 252, 252)" opacity="0.9917773"/>
    <path d="M 56.079158782958984 501.75628662109375 C 55.17722702026367 504.43206787109375 53.50794982910156 506.4200134277344 50.954505920410156 507.4165954589844 C 48.280845642089844 506.6028747558594 46.43732833862305 504.7055358886719 45.5308837890625 502.0895690917969 C 46.600135803222656 499.47344970703125 48.49293899536133 497.6672058105469 51.09272384643555 496.8686828613281 C 53.693241119384766 497.4730224609375 55.6104736328125 499.2799377441406 56.079158782958984 501.75628662109375" stroke-width="0.0" fill="rgb(252, 252, 252)" opacity="0.99207854"/>
    <path d="M 35.29778289794922 535.9257202148438 C 34.54758834838867 538.71044921875 32.72277069091797 540.589599609375 30.100465774536133 541.4747314453125 C 27.504722595214844 540.3905639648438 25.800806045532227 538.437744140625 25.120317459106445 535.8541870117188 C 25.528553009033203 533.38134765625 27.388784408569336 531.549560546875 29.962854385375977 530.6420288085938 C 32.63865661621094 531.5679321289062 34.586055755615234 533.313720703125 35.29778289794922 535.9257202148438" stroke-width="0.0" fill="rgb(252, 252, 253)" opacity="0.992161"/>
    <path d="M 31.85984992980957 322.1535339355469 C 31.457199096679688 324.5942687988281 29.54938507080078 326.2984924316406 26.77937126159668 327.2384948730469 C 24.30963897705078 326.571533203125 22.580881118774414 324.6466369628906 22.115333557128906 321.98883056640625 C 22.673294067382812 319.50128173828125 24.500349044799805 317.66998291015625 26.998933792114258 316.9986572265625 C 29.460163116455078 317.6861267089844 31.177457809448242 319.58184814453125 31.85984992980957 322.1535339355469" stroke-width="0.0" fill="rgb(252, 252, 252)" opacity="0.99256206"/>
    <path d="M 56.81541061401367 305.1089172363281 C 56.339500427246094 307.5140075683594 54.52023696899414 309.3603515625 51.91977310180664 310.26171875 C 49.48349380493164 309.3770751953125 47.668643951416016 307.5035095214844 46.97367477416992 304.9696350097656 C 47.570194244384766 302.3799133300781 49.34584045410156 300.4580078125 51.8382453918457 299.59967041015625 C 54.40061950683594 300.7762145996094 56.163169860839844 302.6174621582031 56.81541061401367 305.1089172363281" stroke-width="0.0" fill="rgb(252, 252, 252)" opacity="0.9932083"/>
    <path d="M 549.0595092773438 311.07598876953125 C 548.4945678710938 313.6553955078125 546.6552734375 315.49432373046875 543.904296875 316.3594055175781 C 541.41650390625 315.47705078125 539.5835571289062 313.5634765625 538.5323486328125 310.9173889160156 C 539.4120483398438 308.2783203125 541.291015625 306.45513916015625 543.8165283203125 306.11163330078125 C 546.407958984375 306.8321533203125 548.2997436523438 308.55120849609375 549.0595092773438 311.07598876953125" stroke-width="0.0" fill="rgb(252, 253, 253)" opacity="0.9916187"/>
    <path d="M 50.019229888916016 305.9767761230469 C 49.33012771606445 308.5 47.5 310.33013916015625 44.97534942626953 311.0196533203125 C 42.39189529418945 310.41607666015625 40.46958541870117 308.642822265625 39.65140914916992 306.11614990234375 C 40.52318572998047 303.3774719238281 42.395748138427734 301.583251953125 45.03522491455078 300.9082336425781 C 47.61146545410156 301.53521728515625 49.40846633911133 303.4056091308594 50.019229888916016 305.9767761230469" stroke-width="0.0" fill="rgb(252, 252, 253)" opacity="0.9933686"/>
    <path d="M 79.35780334472656 580.8580932617188 C 78.38521575927734 583.4862060546875 76.42236328125 585.1815185546875 74.04493713378906 585.9327392578125 C 71.53895568847656 585.2467651367188 69.69407653808594 583.478515625 69.03536987304688 580.9869995117188 C 69.67108917236328 578.5004272460938 71.50012969970703 576.669921875 74.0641860961914 575.8828125 C 76.61587524414062 576.5537109375 78.52800750732422 578.358642578125 79.35780334472656 580.8580932617188" stroke-width="0.0" fill="rgb(252, 252, 253)" opacity="0.99195"/>
    <path d="M 590.054931640625 291.03814697265625 C 589.4049682617188 293.5216064453125 587.4563598632812 295.20050048828125 584.9064331054688 295.815673828125 C 582.5106201171875 295.3212890625 580.7509155273438 293.46795654296875 579.845947265625 290.8348388671875 C 580.5925903320312 288.463623046875 582.4833984375 286.6610107421875 585.141845703125 285.7878723144531 C 587.6389770507812 286.4514465332031 589.3742065429688 288.4151306152344 590.054931640625 291.03814697265625" stroke-width="0.0" fill="rgb(252, 252, 252)" opacity="0.99179167"/>
    <path d="M 590.227783203125 514.9664916992188 C 589.4150390625 517.6077270507812 587.6424560546875 519.52880859375 585.1196899414062 520.1943969726562 C 582.488525390625 519.3347778320312 580.5775146484375 517.537353515625 579.660400390625 515.0562744140625 C 580.472412109375 512.3231201171875 582.3519897460938 510.57525634765625 585.1932983398438 509.72369384765625 C 587.7235107421875 510.4110107421875 589.5487060546875 512.2882690429688 590.227783203125 514.9664916992188" stroke-width="0.0" fill="rgb(252, 252, 252)" opacity="0.9923731"/>
    <path d="M 602.9971313476562 346.00469970703125 C 602.3292236328125 348.4988098144531 600.5010375976562 350.33746337890625 598.1083984375 350.89886474609375 C 595.5645751953125 350.1948547363281 593.6715698242188 348.4765319824219 592.9303588867188 345.9492492675781 C 593.5465087890625 343.3973693847656 595.4135131835938 341.6000061035156 597.8800048828125 341.1806945800781 C 600.4137573242188 341.8221130371094 602.3038330078125 343.547607421875 602.9971313476562 346.00469970703125" stroke-width="0.0" fill="rgb(251, 251, 251)" opacity="0.9939178"/>
    <path d="M 579.4236450195312 562.8948364257812 C 578.41845703125 565.6006469726562 576.6156005859375 567.4664916992188 573.9427490234375 568.2630004882812 C 571.3413696289062 567.4749145507812 569.4327392578125 565.6868286132812 568.506103515625 562.9959716796875 C 569.4257202148438 560.3085327148438 571.353515625 558.5821533203125 574.0994262695312 558.0111083984375 C 576.7017211914062 558.4635620117188 578.5784301757812 560.2859497070312 579.4236450195312 562.8948364257812" stroke-width="0.0" fill="rgb(252, 252, 252)" opacity="0.99155056"/>
    <path d="M 577.2835083007812 478.0091857910156 C 576.371826171875 480.5144958496094 574.5029907226562 482.3311767578125 571.93212890625 483.0854797363281 C 569.3758544921875 482.480712890625 567.5830078125 480.6048583984375 566.7891845703125 477.9347229003906 C 567.55078125 475.3564453125 569.336669921875 473.4847717285156 571.8966064453125 473.0326843261719 C 574.6270141601562 473.60467529296875 576.5136108398438 475.3399658203125 577.2835083007812 478.0091857910156" stroke-width="0.0" fill="rgb(252, 252, 253)" opacity="0.9927115"/>
    <path d="M 28.909196853637695 381.14886474609375 C 28.270986557006836 383.49249267578125 26.536046981811523 385.40911865234375 24.06330680847168 385.9250183105469 C 21.404382705688477 385.3814697265625 19.61695098876953 383.5960998535156 18.93984603881836 380.9488830566406 C 19.756410598754883 378.5595703125 21.540021896362305 376.6930847167969 23.9996395111084 376.0040588378906 C 26.43861961364746 376.7015075683594 28.1398868560791 378.6106872558594 28.909196853637695 381.14886474609375" stroke-width="0.0" fill="rgb(252, 252, 252)" opacity="0.99254364"/>
    <path d="M 531.2152099609375 548.0611572265625 C 530.5354614257812 550.69677734375 528.6953735351562 552.5308837890625 526.0260620117188 553.2546997070312 C 523.5321044921875 552.3132934570312 521.7518920898438 550.4478759765625 520.9822998046875 548.0748901367188 C 521.6721801757812 545.4280395507812 523.3892211914062 543.5321044921875 525.9354858398438 542.9343872070312 C 528.4672241210938 543.6885375976562 530.2531127929688 545.5509033203125 531.2152099609375 548.0611572265625" stroke-width="0.0" fill="rgb(252, 252, 252)" opacity="0.9917582"/>
    <path d="M 10.043405532836914 316.9851379394531 C 9.367148399353027 319.54888916015625 7.562197208404541 321.4111633300781 4.999965190887451 322.1939392089844 C 2.495234727859497 321.29559326171875 0.6210373044013977 319.530029296875 -0.4280405044555664 316.86627197265625 C 0.391528457403183 314.2417907714844 2.226412057876587 312.34539794921875 4.92058801651001 311.55438232421875 C 7.551194190979004 312.5780334472656 9.380692481994629 314.46038818359375 10.043405532836914 316.9851379394531" stroke-width="0.0" fill="rgb(253, 253, 253)" opacity="0.99245286"/>
    <path d="M 515.0806274414062 577.9323120117188 C 514.3301391601562 580.5 512.5 582.3301391601562 509.99932861328125 583.0003051757812 C 507.4861755371094 582.3358764648438 505.5686340332031 580.542236328125 504.6008605957031 578.08056640625 C 505.6357727050781 575.4611206054688 507.4769287109375 573.6951904296875 510.2137451171875 572.7255859375 C 512.6697998046875 573.4561767578125 514.4923706054688 575.3453369140625 515.0806274414062 577.9323120117188" stroke-width="0.0" fill="rgb(252, 252, 252)" opacity="0.99277216"/>
    <path d="M 555.359619140625 337.8779296875 C 554.4752197265625 340.6191101074219 552.5968627929688 342.40191650390625 550.0136108398438 343.22821044921875 C 547.41552734375 342.45458984375 545.6820678710938 340.543701171875 544.6370239257812 337.8897399902344 C 545.5206909179688 335.3705139160156 547.3555297851562 333.47503662109375 549.86181640625 332.6268615722656 C 552.5509033203125 333.69061279296875 554.5233154296875 335.384765625 555.359619140625 337.8779296875" stroke-width="0.0" fill="rgb(253, 253, 253)" opacity="0.9916016"/>
    <path d="M 15.143426895141602 309.8869934082031 C 14.418972969055176 312.6434020996094 12.673510551452637 314.5263671875 9.986971855163574 315.2935791015625 C 7.509603977203369 314.38775634765625 5.803369998931885 312.433349609375 4.832050323486328 309.807373046875 C 5.592195510864258 307.4655456542969 7.4676899909973145 305.5989685058594 10.018634796142578 304.6175842285156 C 12.652955055236816 305.46221923828125 14.44363021850586 307.376220703125 15.143426895141602 309.8869934082031" stroke-width="0.0" fill="rgb(253, 253, 253)" opacity="0.9928908"/>
    <path d="M 23.48295021057129 510.0715026855469 C 22.595905303955078 512.7301025390625 20.729251861572266 514.59326171875 18.221662521362305 515.2610473632812 C 15.442079544067383 514.3182373046875 13.54561710357666 512.5961303710938 12.809334754943848 510.02557373046875 C 13.712305068969727 507.52001953125 15.500323295593262 505.647216796875 18.131790161132812 504.744384765625 C 20.652563095092773 505.44158935546875 22.470352172851562 507.3773498535156 23.48295021057129 510.0715026855469" stroke-width="0.0" fill="rgb(252, 252, 253)" opacity="0.9919012"/>
    <path d="M 70.8629150390625 570.0523681640625 C 70.33012390136719 572.5 68.5 574.3301391601562 66.00142669677734 574.99462890625 C 63.496337890625 574.33154296875 61.66633605957031 572.5042724609375 60.59733581542969 569.7723388671875 C 61.386131286621094 567.290283203125 63.3264045715332 565.5017700195312 65.99076843261719 564.8621826171875 C 68.60159301757812 565.5399169921875 70.3214340209961 567.4371337890625 70.8629150390625 570.0523681640625" stroke-width="0.0" fill="rgb(252, 252, 252)" opacity="0.9921779"/>
    <path d="M 17.36829376220703 319.0641784667969 C 16.472919464111328 321.6278381347656 14.632471084594727 323.48431396484375 11.94642162322998 324.3115539550781 C 9.44417667388916 323.4160461425781 7.598128795623779 321.55242919921875 6.941231727600098 319.03668212890625 C 7.667374134063721 316.4964294433594 9.495054244995117 314.66278076171875 12.1101713180542 313.75286865234375 C 14.584497451782227 314.5484924316406 16.386003494262695 316.43463134765625 17.36829376220703 319.0641784667969" stroke-width="0.0" fill="rgb(252, 252, 253)" opacity="0.99212"/>
    <path d="M 99.42957305908203 596.8749389648438 C 98.3930435180664 599.5632934570312 96.56275177001953 601.3905029296875 93.99098205566406 602.0384521484375 C 91.36424255371094 601.4322509765625 89.41646575927734 599.6826782226562 88.55181884765625 596.9544067382812 C 89.41771697998047 594.2869262695312 91.30223846435547 592.4692993164062 94.09683227539062 591.6471557617188 C 96.699462890625 592.4462890625 98.57605743408203 594.2933349609375 99.42957305908203 596.8749389648438" stroke-width="0.0" fill="rgb(252, 253, 253)" opacity="0.9920518"/>
    <path d="M 513.9315795898438 535.9088134765625 C 513.3876342773438 538.6045532226562 511.62127685546875 540.451171875 508.9158020019531 541.4189453125 C 506.3498840332031 540.53466796875 504.5204772949219 538.6318969726562 503.7239685058594 536.1429443359375 C 504.58258056640625 533.3546752929688 506.3091735839844 531.425048828125 508.8842468261719 530.6248168945312 C 511.6895751953125 531.4664306640625 513.506103515625 533.3187255859375 513.9315795898438 535.9088134765625" stroke-width="0.0" fill="rgb(252, 252, 252)" opacity="0.9915711"/>
    <path d="M 558.9937133789062 523.0076904296875 C 558.3301391601562 525.5 556.5 527.3301391601562 554.00439453125 527.99755859375 C 551.5390014648438 527.3076782226562 549.7568359375 525.441162109375 548.6134033203125 522.8768920898438 C 549.5684204101562 520.4583129882812 551.48681640625 518.6644897460938 554.008544921875 517.9917602539062 C 556.5247802734375 518.6423950195312 558.3199462890625 520.4859619140625 558.9937133789062 523.0076904296875" stroke-width="0.0" fill="rgb(251, 251, 251)" opacity="0.9954769"/>
    <path d="M 86.27713775634766 503.82080078125 C 85.39399719238281 506.6100769042969 83.62769317626953 508.4598388671875 81.09587860107422 509.210693359375 C 78.48058319091797 508.33990478515625 76.5650634765625 506.5477600097656 75.80048370361328 504.1890563964844 C 76.7154312133789 501.47930908203125 78.45053100585938 499.61151123046875 80.8471908569336 498.9667053222656 C 83.52552032470703 499.7488098144531 85.50949096679688 501.39727783203125 86.27713775634766 503.82080078125" stroke-width="0.0" fill="rgb(252, 252, 252)" opacity="0.99220824"/>
    <path d="M 589.99072265625 275.83203125 C 589.1831665039062 278.44439697265625 587.5126342773438 280.39666748046875 585.1548461914062 280.8221740722656 C 582.6057739257812 280.1468811035156 580.6991577148438 278.44195556640625 580.0009155273438 275.9956970214844 C 580.6698608398438 273.5 582.5 271.66986083984375 585.016845703125 270.98846435546875 C 587.5587158203125 271.6136169433594 589.3841552734375 273.442138671875 589.99072265625 275.83203125" stroke-width="0.0" fill="rgb(252, 252, 252)" opacity="0.99260414"/>
    <path d="M 49.217796325683594 298.98004150390625 C 48.4675178527832 301.6150817871094 46.59837341308594 303.4124450683594 43.96784210205078 304.08154296875 C 41.362945556640625 303.46978759765625 39.51328659057617 301.6422424316406 38.65346145629883 298.9071960449219 C 39.50419235229492 296.37158203125 41.35140609741211 294.4423828125 43.779869079589844 293.64324951171875 C 46.60979080200195 294.5970458984375 48.437721252441406 296.3813781738281 49.217796325683594 298.98004150390625" stroke-width="0.0" fill="rgb(252, 252, 253)" opacity="0.9921524"/>
    <path d="M 537.3991088867188 528.0585327148438 C 536.42041015625 530.540283203125 534.5155029296875 532.3356323242188 531.9154052734375 533.0658569335938 C 529.2977905273438 532.534912109375 527.4155883789062 530.716796875 526.4971313476562 527.9910888671875 C 527.4210205078125 525.3073120117188 529.3555908203125 523.5889892578125 531.921630859375 523.2679443359375 C 534.47705078125 523.778076171875 536.3856811523438 525.4720458984375 537.3991088867188 528.0585327148438" stroke-width="0.0" fill="rgb(252, 252, 253)" opacity="0.9915766"/>
    <path d="M 27.410972595214844 374.9406433105469 C 26.39653968811035 377.5240783691406 24.50533676147461 379.3318176269531 21.979724884033203 380.0125732421875 C 19.39970588684082 379.4078063964844 17.51932716369629 377.6223449707031 17.086219787597656 375.1207275390625 C 17.69230079650879 372.4561767578125 19.413297653198242 370.5382080078125 21.80702018737793 369.819091796875 C 24.574007034301758 370.71734619140625 26.583402633666992 372.3375549316406 27.410972595214844 374.9406433105469" stroke-width="0.0" fill="rgb(252, 252, 252)" opacity="0.9921928"/>
    <path d="M 90.86940002441406 458.4124450683594 C 90.13441467285156 461.26361083984375 88.25929260253906 463.12347412109375 84.99518585205078 463.8643798828125 C 81.74543762207031 463.1127014160156 79.87045288085938 461.2613220214844 79.14813232421875 458.38543701171875 C 79.99498748779297 454.9164123535156 81.99198913574219 453.2212219238281 85.57566833496094 452.27899169921875 C 88.25052642822266 452.8901672363281 90.10739135742188 454.75042724609375 90.86940002441406 458.4124450683594" stroke-width="0.0" fill="rgb(0, 0, 0)" opacity="1.0"/>
    <path d="M 575.0468139648438 315.1344909667969 C 574.451904296875 317.6510009765625 572.685302734375 319.5664367675781 569.9866943359375 320.4914855957031 C 567.2725219726562 319.59649658203125 565.4561767578125 317.7117614746094 564.7972412109375 315.0785827636719 C 565.7454833984375 312.52581787109375 567.482421875 310.6087951660156 570.008056640625 309.8139343261719 C 572.4965209960938 310.7024230957031 574.28515625 312.505615234375 575.0468139648438 315.1344909667969" stroke-width="0.0" fill="rgb(252, 252, 252)" opacity="0.9914749"/>
    <path d="M 529.203857421875 509.025390625 C 528.3478393554688 511.5587158203125 526.593505859375 513.462158203125 523.8590087890625 514.4077758789062 C 521.4872436523438 513.4832763671875 519.8485107421875 511.40740966796875 519.0368041992188 508.82318115234375 C 519.6008911132812 506.4252014160156 521.4093017578125 504.546142578125 524.1541137695312 503.4754638671875 C 526.7066650390625 504.3675537109375 528.438232421875 506.35479736328125 529.203857421875 509.025390625" stroke-width="0.0" fill="rgb(252, 252, 252)" opacity="0.99186224"/>
    <path d="M 41.48081588745117 478.14141845703125 C 40.580055236816406 480.66064453125 38.59081268310547 482.3433532714844 35.84062576293945 483.2034606933594 C 33.46207809448242 482.41424560546875 31.66035270690918 480.5162658691406 30.922266006469727 477.91864013671875 C 31.483484268188477 475.3388366699219 33.37477111816406 473.61248779296875 36.12777328491211 472.8814697265625 C 38.625511169433594 473.54669189453125 40.450843811035156 475.375244140625 41.48081588745117 478.14141845703125" stroke-width="0.0" fill="rgb(253, 253, 253)" opacity="0.99185467"/>
    <path d="M 30.806926727294922 397.8690490722656 C 30.172040939331055 400.41571044921875 28.459266662597656 402.3129577636719 25.811302185058594 403.3353576660156 C 23.281681060791016 402.5871276855469 21.421995162963867 400.7153625488281 20.5189266204834 398.0772705078125 C 21.585493087768555 395.4556579589844 23.453861236572266 393.5797424316406 25.831687927246094 392.77325439453125 C 28.551353454589844 393.6688537597656 30.399658203125 395.430419921875 30.806926727294922 397.8690490722656" stroke-width="0.0" fill="rgb(252, 252, 253)" opacity="0.99183965"/>
    <path d="M 596.082763671875 347.0783386230469 C 595.519775390625 349.6897888183594 593.7073364257812 351.5786437988281 591.1199340820312 352.3623962402344 C 588.2905883789062 351.5396728515625 586.40966796875 349.724365234375 585.5126953125 346.9998474121094 C 586.4160766601562 344.2797546386719 588.2793579101562 342.4149169921875 590.82763671875 341.6033935546875 C 593.4429931640625 342.75677490234375 595.3113403320312 344.53607177734375 596.082763671875 347.0783386230469" stroke-width="0.0" fill="rgb(251, 251, 251)" opacity="0.99169135"/>
    <path d="M 574.1807250976562 572.0979614257812 C 573.4776611328125 574.6710205078125 571.702392578125 576.5818481445312 569.1146850585938 577.3953857421875 C 566.357421875 576.51025390625 564.5734252929688 574.6171264648438 563.9754028320312 572.029052734375 C 564.6698608398438 569.5 566.5 567.6698608398438 569.0396118164062 566.944091796875 C 571.5503540039062 567.5904541015625 573.33544921875 569.4719848632812 574.1807250976562 572.0979614257812" stroke-width="0.0" fill="rgb(251, 252, 252)" opacity="0.9929216"/>
    <path d="M 45.949432373046875 566.8704833984375 C 45.323909759521484 569.5679931640625 43.62224197387695 571.5137939453125 41.095054626464844 572.4244384765625 C 38.42570877075195 571.39794921875 36.541664123535156 569.5919189453125 35.66951370239258 567.0498657226562 C 36.46941375732422 564.3228759765625 38.35429382324219 562.5814208984375 41.199363708496094 561.7269897460938 C 43.71791458129883 562.414306640625 45.5384635925293 564.2960205078125 45.949432373046875 566.8704833984375" stroke-width="0.0" fill="rgb(253, 253, 253)" opacity="0.99179196"/>
    <path d="M 541.0515747070312 459.02960205078125 C 540.4273071289062 461.61322021484375 538.631103515625 463.4861145019531 536.111083984375 463.96282958984375 C 533.4619750976562 463.3189697265625 531.6284790039062 461.5519104003906 531.0147705078125 459.0850830078125 C 531.6995239257812 456.5110168457031 533.5029296875 454.6709899902344 536.0001220703125 454.0000305175781 C 538.500244140625 454.6697692871094 540.3328247070312 456.4990234375 541.0515747070312 459.02960205078125" stroke-width="0.0" fill="rgb(251, 251, 250)" opacity="0.9934846"/>
    <path d="M 546.7169189453125 548.9120483398438 C 546.1600341796875 551.4027099609375 544.446533203125 553.3028564453125 541.9824829101562 554.33447265625 C 539.4099731445312 553.4010009765625 537.537353515625 551.60888671875 537.0659790039062 549.1012573242188 C 537.6863403320312 546.4642944335938 539.4451904296875 544.6154174804688 542.15625 543.68115234375 C 544.65625 544.4645385742188 546.3775634765625 546.3883666992188 546.7169189453125 548.9120483398438" stroke-width="0.0" fill="rgb(252, 253, 253)" opacity="0.9915941"/>
    <path d="M 590.37451171875 546.0967407226562 C 589.5244140625 548.6195068359375 587.5634155273438 550.34033203125 585.0765991210938 551.0338134765625 C 582.377197265625 550.3833618164062 580.4830322265625 548.6600341796875 580.0623168945312 546.1268310546875 C 580.6797485351562 543.4495849609375 582.41162109375 541.5422973632812 584.9509887695312 540.6849975585938 C 587.6967163085938 541.4677734375 589.5379028320312 543.3016357421875 590.37451171875 546.0967407226562" stroke-width="0.0" fill="rgb(252, 252, 253)" opacity="0.9917602"/>
    <path d="M 5.2681169509887695 485.2225341796875 C 4.583745002746582 487.71942138671875 2.7201356887817383 489.5859069824219 0.18716572225093842 490.3382263183594 C -2.5 489.33013916015625 -4.330127239227295 487.5 -5.0 485.0 C -4.330127239227295 482.5 -2.5 480.66986083984375 0.03561551868915558 479.8412780761719 C 2.490114212036133 480.7076110839844 4.2849345207214355 482.5106201171875 5.2681169509887695 485.2225341796875" stroke-width="0.0" fill="rgb(253, 253, 252)" opacity="0.9927934"/>
    <path d="M 18.43309783935547 562.1624145507812 C 17.602678298950195 564.7037353515625 15.67447280883789 566.5076904296875 12.839275360107422 567.4207763671875 C 10.333111763000488 566.5805053710938 8.570939064025879 564.6195068359375 7.568893909454346 561.8899536132812 C 8.437151908874512 559.3224487304688 10.372386932373047 557.612548828125 13.138910293579102 556.8737182617188 C 15.669730186462402 557.5069580078125 17.52815055847168 559.3193359375 18.43309783935547 562.1624145507812" stroke-width="0.0" fill="rgb(252, 252, 252)" opacity="0.9918354"/>
    <path d="M 97.3932113647461 546.0072631835938 C 96.48123168945312 548.63525390625 94.65290069580078 550.5355224609375 92.1101303100586 551.358642578125 C 89.36358642578125 550.4893798828125 87.51724243164062 548.6331176757812 86.66588592529297 546.0549926757812 C 87.45753479003906 543.2924194335938 89.2793197631836 541.4130249023438 91.856201171875 540.6516723632812 C 94.6426773071289 541.5330200195312 96.54411315917969 543.333984375 97.3932113647461 546.0072631835938" stroke-width="0.0" fill="rgb(252, 252, 252)" opacity="0.99170977"/>
    <path d="M 572.4478149414062 268.0183410644531 C 571.5497436523438 270.6952819824219 569.7119140625 272.5994567871094 567.2418823242188 273.0517883300781 C 564.5099487304688 272.19622802734375 562.4559326171875 270.6030578613281 561.85009765625 268.19061279296875 C 562.6918334960938 265.4319152832031 564.3668212890625 263.4666748046875 566.9475708007812 262.5291748046875 C 569.6251220703125 263.543701171875 571.5781860351562 265.33404541015625 572.4478149414062 268.0183410644531" stroke-width="0.0" fill="rgb(254, 253, 253)" opacity="0.99156517"/>
    <path d="M 14.223515510559082 234.77198791503906 C 13.229659080505371 237.4711151123047 11.4927339553833 239.29434204101562 8.800151824951172 240.23580932617188 C 6.338029861450195 239.53158569335938 4.511998653411865 237.64918518066406 4.018381595611572 235.08836364746094 C 4.59661340713501 232.36526489257812 6.331702709197998 230.47705078125 8.882111549377441 230.0260009765625 C 11.566537857055664 230.6786346435547 13.51630687713623 232.37753295898438 14.223515510559082 234.77198791503906" stroke-width="0.0" fill="rgb(253, 253, 253)" opacity="0.9917472"/>
    <path d="M 602.999755859375 281.009765625 C 602.3555908203125 283.546142578125 600.5836791992188 285.4781188964844 598.11865234375 286.08905029296875 C 595.36669921875 285.40655517578125 593.483154296875 283.6641845703125 592.60693359375 280.8649597167969 C 593.41064453125 278.2825622558594 595.2994384765625 276.4673767089844 597.82861328125 276.1138610839844 C 600.412353515625 276.8236999511719 602.3030395507812 278.54876708984375 602.999755859375 281.009765625" stroke-width="0.0" fill="rgb(252, 252, 252)" opacity="0.9928119"/>
    <path d="M 41.13965606689453 581.9944458007812 C 40.30100631713867 584.5567626953125 38.63929748535156 586.5686645507812 36.07857131958008 587.37255859375 C 33.3687744140625 586.4412841796875 31.407926559448242 584.6784057617188 30.472734451293945 582.0635375976562 C 31.422616958618164 579.2846069335938 33.28303527832031 577.41748046875 35.97749710083008 576.5040893554688 C 38.64426803588867 577.467529296875 40.41629409790039 579.3909912109375 41.13965606689453 581.9944458007812" stroke-width="0.0" fill="rgb(252, 252, 253)" opacity="0.991627"/>
    <path d="M 74.0814208984375 375.6531982421875 C 74.09428405761719 377.93560791015625 73.11579895019531 380.05096435546875 70.06026458740234 380.854248046875 C 66.76254272460938 380.08599853515625 64.86873626708984 378.2549743652344 64.1566390991211 375.5401916503906 C 64.94830322265625 371.79498291015625 66.78165435791016 369.9114074707031 69.20451354980469 370.7381896972656 C 71.71992492675781 371.4713439941406 73.49061584472656 373.2956848144531 74.0814208984375 375.6531982421875" stroke-width="0.0" fill="rgb(2, 2, 2)" opacity="0.9901694"/>
    <path d="M 80.74308013916016 454.6158142089844 C 80.13358306884766 457.2793273925781 78.28166961669922 459.1402282714844 75.4037094116211 459.8570861816406 C 71.76313781738281 459.0965270996094 69.90194702148438 457.2374267578125 69.17868041992188 453.9975891113281 C 69.89791870117188 450.7478332519531 71.73126220703125 448.8558654785156 74.51128387451172 448.14471435546875 C 78.09495544433594 448.97283935546875 79.74955749511719 450.99871826171875 80.74308013916016 454.6158142089844" stroke-width="0.0" fill="rgb(0, 0, 0)" opacity="1.0"/>
    <path d="M 63.80728530883789 307.90948486328125 C 63.21012878417969 310.46331787109375 61.511268615722656 312.36297607421875 58.86751174926758 313.3680725097656 C 56.20859146118164 312.6576843261719 54.33742141723633 310.79302978515625 53.73529052734375 308.1940612792969 C 54.71180725097656 305.5709228515625 56.618690490722656 303.86566162109375 59.065834045410156 303.3188781738281 C 61.463130950927734 303.75408935546875 63.31312561035156 305.51702880859375 63.80728530883789 307.90948486328125" stroke-width="0.0" fill="rgb(253, 253, 253)" opacity="0.99217796"/>
    <path d="M 87.13753509521484 450.6958312988281 C 87.93299102783203 453.05035400390625 85.99918365478516 454.76776123046875 82.52922821044922 455.6711730957031 C 79.93740844726562 454.9996032714844 78.24015045166016 452.9761047363281 77.18653106689453 449.4087829589844 C 77.87300109863281 446.7359924316406 79.73302459716797 444.86541748046875 82.28484344482422 444.1871643066406 C 84.84124755859375 446.2845458984375 86.55254364013672 448.2124328613281 87.13753509521484 450.6958312988281" stroke-width="0.0" fill="rgb(19, 19, 19)" opacity="0.99017984"/>
    <path d="M 572.5293579101562 493.1472473144531 C 571.6370849609375 495.6961364746094 569.6145629882812 497.3795471191406 566.9804077148438 498.3204345703125 C 564.4136962890625 497.4213562011719 562.593017578125 495.58221435546875 561.97314453125 493.0238037109375 C 562.6693115234375 490.49981689453125 564.4999389648438 488.66986083984375 567.0722045898438 487.9109191894531 C 569.6402587890625 488.5071105957031 571.4853515625 490.36322021484375 572.5293579101562 493.1472473144531" stroke-width="0.0" fill="rgb(252, 252, 252)" opacity="0.9927681"/>
    <path d="M 585.97509765625 257.9487609863281 C 585.3429565429688 260.5937194824219 583.666259765625 262.5884704589844 581.2186279296875 263.3937072753906 C 578.4937133789062 262.332275390625 576.6010131835938 260.5256652832031 575.736572265625 258.1139831542969 C 576.701904296875 255.56031799316406 578.6077270507812 253.85462951660156 581.1213989257812 253.2154083251953 C 583.4581909179688 253.6940155029297 585.2317504882812 255.56455993652344 585.97509765625 257.9487609863281" stroke-width="0.0" fill="rgb(252, 252, 252)" opacity="0.9926903"/>
    <path d="M 23.129337310791016 277.0071716308594 C 22.509052276611328 279.6918029785156 20.73472785949707 281.6448974609375 18.089338302612305 282.5539245605469 C 15.31026554107666 281.5710754394531 13.528575897216797 279.6594543457031 12.606640815734863 276.9798278808594 C 13.579216957092285 274.436767578125 15.447870254516602 272.61932373046875 17.959474563598633 271.7280578613281 C 20.54656982421875 272.6851501464844 22.462989807128906 274.4093933105469 23.129337310791016 277.0071716308594" stroke-width="0.0" fill="rgb(253, 253, 253)" opacity="0.9915418"/>
    <path d="M 601.1641235351562 585.9768676757812 C 600.4730834960938 588.6176147460938 598.5986328125 590.4100341796875 595.934814453125 591.21826171875 C 593.4617919921875 590.3973999023438 591.7659301757812 588.4881591796875 590.7569580078125 585.7384033203125 C 591.3828125 583.2584838867188 593.2782592773438 581.4482421875 595.888671875 581.0257568359375 C 598.6328735351562 581.59716796875 600.521728515625 583.3338012695312 601.1641235351562 585.9768676757812" stroke-width="0.0" fill="rgb(252, 252, 253)" opacity="0.9924271"/>
    <path d="M 585.4251708984375 334.1080627441406 C 584.5789184570312 336.7011413574219 582.6718139648438 338.4815368652344 579.9171142578125 339.4217834472656 C 577.368408203125 338.51953125 575.5910034179688 336.5978698730469 574.7461547851562 334.1148986816406 C 575.8514404296875 331.659912109375 577.6536865234375 329.8304443359375 579.9829711914062 328.9835205078125 C 582.5929565429688 329.621826171875 584.4363403320312 331.3917236328125 585.4251708984375 334.1080627441406" stroke-width="0.0" fill="rgb(252, 252, 252)" opacity="0.9916572"/>
    <path d="M 31.201072692871094 314.9163513183594 C 30.32965087890625 317.5008850097656 28.50129508972168 319.33123779296875 26.00029754638672 320.0002136230469 C 23.5 319.33013916015625 21.669872283935547 317.5 20.980058670043945 314.9781799316406 C 21.60589599609375 312.4395751953125 23.461027145385742 310.68511962890625 26.153093338012695 309.81573486328125 C 28.566207885742188 310.5789489746094 30.397693634033203 312.44000244140625 31.201072692871094 314.9163513183594" stroke-width="0.0" fill="rgb(252, 252, 253)" opacity="0.99299204"/>
    <path d="M 76.10124969482422 401.0066833496094 C 76.027099609375 403.9384765625 75.1348876953125 406.072265625 71.93553924560547 406.8636779785156 C 68.76730346679688 406.1155700683594 66.98767852783203 404.197021484375 66.2564697265625 400.5393371582031 C 66.89801788330078 397.7601013183594 68.76141357421875 395.9013671875 72.40756225585938 395.1343994140625 C 75.2132339477539 395.8787841796875 76.39766693115234 397.91363525390625 76.10124969482422 401.0066833496094" stroke-width="0.0" fill="rgb(0, 0, 0)" opacity="1.0"/>
    <path d="M 30.000003814697266 317.0 C 29.330127716064453 319.5 27.5 321.33013916015625 24.973848342895508 322.0221862792969 C 22.397838592529297 321.4162902832031 20.52754783630371 319.61920166015625 19.68370246887207 316.94287109375 C 20.596782684326172 314.4706115722656 22.490638732910156 312.66552734375 24.999324798583984 311.9996643066406 C 27.499988555908203 312.6698913574219 29.330123901367188 314.5 30.000003814697266 317.0" stroke-width="0.0" fill="rgb(251, 251, 252)" opacity="0.99482095"/>
    <path d="M 581.1234130859375 264.99737548828125 C 580.3416137695312 267.51629638671875 578.53466796875 269.4051513671875 576.1060180664062 270.2543640136719 C 573.4302368164062 269.3706970214844 571.4479370117188 267.62640380859375 570.4815673828125 265.07989501953125 C 571.5297241210938 262.4416809082031 573.5028076171875 260.7232360839844 575.9663696289062 259.845947265625 C 578.4547729492188 260.69622802734375 580.2275390625 262.5686340332031 581.1234130859375 264.99737548828125" stroke-width="0.0" fill="rgb(252, 252, 252)" opacity="0.99194306"/>
    <path d="M 558.395751953125 519.118896484375 C 557.4390869140625 521.5457153320312 555.5150756835938 523.33642578125 552.9851684570312 524.0123901367188 C 550.4280395507812 523.386474609375 548.5589599609375 521.5885620117188 547.65234375 518.8695678710938 C 548.475830078125 516.3523559570312 550.3617553710938 514.5045166015625 552.9242553710938 513.590087890625 C 555.5419921875 514.6064453125 557.3068237304688 516.48388671875 558.395751953125 519.118896484375" stroke-width="0.0" fill="rgb(252, 252, 252)" opacity="0.991956"/>
    <path d="M 586.993896484375 274.00360107421875 C 586.3301391601562 276.5 584.5 278.33013916015625 581.9352416992188 279.07464599609375 C 579.3465576171875 278.48919677734375 577.46630859375 276.6665344238281 576.6558837890625 274.0871276855469 C 577.4674682617188 271.30023193359375 579.285400390625 269.4173889160156 581.7699584960938 268.7449951171875 C 584.4728393554688 269.7420959472656 586.3228149414062 271.50811767578125 586.993896484375 274.00360107421875" stroke-width="0.0" fill="rgb(252, 252, 252)" opacity="0.9923432"/>
    <path d="M 595.205078125 437.2149658203125 C 594.5303955078125 439.646484375 592.61376953125 441.42279052734375 589.883056640625 442.41839599609375 C 587.2852783203125 441.5794677734375 585.4629516601562 439.7022705078125 584.6631469726562 436.93206787109375 C 585.5087280273438 434.3800964355469 587.3873901367188 432.5308532714844 589.78271484375 431.8663330078125 C 592.4003295898438 432.8326416015625 594.221923828125 434.5815124511719 595.205078125 437.2149658203125" stroke-width="0.0" fill="rgb(252, 252, 252)" opacity="0.99164546"/>
    <path d="M 580.166748046875 482.9963073730469 C 579.5147705078125 485.6594543457031 577.6242065429688 487.3885192871094 574.9427490234375 487.8844909667969 C 572.3834228515625 487.4237365722656 570.4624633789062 485.6510314941406 569.680419921875 483.1676940917969 C 570.6698608398438 480.5 572.5 478.66986083984375 575.1082153320312 477.8652038574219 C 577.7122192382812 478.4360046386719 579.5347290039062 480.29669189453125 580.166748046875 482.9963073730469" stroke-width="0.0" fill="rgb(252, 252, 253)" opacity="0.99270326"/>
    <path d="M 521.5089721679688 568.133056640625 C 520.5838623046875 570.6276245117188 518.5113525390625 572.22021484375 515.881103515625 572.82763671875 C 513.3917236328125 572.4200439453125 511.5174560546875 570.6271362304688 510.6235656738281 567.8646850585938 C 511.4244079589844 565.3047485351562 513.3347778320312 563.5235595703125 515.9612426757812 562.7438354492188 C 518.6156616210938 563.52685546875 520.4445190429688 565.39453125 521.5089721679688 568.133056640625" stroke-width="0.0" fill="rgb(252, 252, 252)" opacity="0.99186116"/>
    <path d="M 7.9650959968566895 304.9798889160156 C 7.310667991638184 307.46881103515625 5.439006805419922 309.21282958984375 2.7637951374053955 310.2476501464844 C 0.35582923889160156 309.53619384765625 -1.4149870872497559 307.6072692871094 -2.0202510356903076 305.02362060546875 C -1.335213541984558 302.4891052246094 0.4654354453086853 300.5841369628906 2.9319193363189697 299.58526611328125 C 5.5549235343933105 300.6170959472656 7.381166458129883 302.4451904296875 7.9650959968566895 304.9798889160156" stroke-width="0.0" fill="rgb(255, 254, 254)" opacity="0.99296963"/>
    <path d="M 564.0748291015625 282.9408874511719 C 563.3301391601562 285.5 561.5 287.33013916015625 559.0768432617188 287.8395080566406 C 556.4705200195312 287.2612609863281 554.4877319335938 285.6043395996094 553.5924682617188 283.11083984375 C 554.5980224609375 280.4084777832031 556.3906860351562 278.5394287109375 558.9702758789062 277.82879638671875 C 561.5414428710938 278.6875 563.4554443359375 280.4159851074219 564.0748291015625 282.9408874511719" stroke-width="0.0" fill="rgb(253, 253, 253)" opacity="0.9921022"/>
    <path d="M 597.896240234375 320.0139465332031 C 597.2710571289062 322.4400634765625 595.4381103515625 324.26416015625 592.8636474609375 325.2498779296875 C 590.5018920898438 324.3891296386719 588.7313232421875 322.4621276855469 587.7673950195312 319.95465087890625 C 588.4888916015625 317.3374938964844 590.3519287109375 315.5361328125 592.9414672851562 314.76605224609375 C 595.5866088867188 315.5715637207031 597.3453979492188 317.4365234375 597.896240234375 320.0139465332031" stroke-width="0.0" fill="rgb(251, 251, 251)" opacity="0.99161637"/>
    <path d="M 590.8642578125 251.0479278564453 C 590.3305053710938 253.5029296875 588.5034790039062 255.33233642578125 585.9993286132812 255.9955596923828 C 583.501953125 255.32908630371094 581.6770629882812 253.4962615966797 580.82958984375 250.94288635253906 C 581.68896484375 248.5447998046875 583.5880737304688 246.82960510253906 586.0333862304688 246.28855895996094 C 588.5159912109375 246.71908569335938 590.3118286132812 248.4747314453125 590.8642578125 251.0479278564453" stroke-width="0.0" fill="rgb(252, 252, 252)" opacity="0.9920216"/>
    <path d="M 15.157292366027832 550.96875 C 14.485271453857422 553.6483764648438 12.649924278259277 555.4901123046875 10.062986373901367 556.0651245117188 C 7.5 555.3301391601562 5.669872760772705 553.5 4.999997138977051 551.0 C 5.669680118560791 548.4993896484375 7.495153903961182 546.654296875 10.145096778869629 545.6471557617188 C 12.765400886535645 546.3502807617188 14.557788848876953 548.26318359375 15.157292366027832 550.96875" stroke-width="0.0" fill="rgb(252, 252, 252)" opacity="0.992992"/>
    <path d="M 14.00001049041748 550.9999389648438 C 13.330126762390137 553.5 11.5 555.3301391601562 8.881360054016113 556.2809448242188 C 6.46093225479126 555.4139404296875 4.65586519241333 553.518798828125 3.996426820755005 551.0036010742188 C 4.667553901672363 548.4947509765625 6.487140655517578 546.6412353515625 9.046937942504883 545.7727661132812 C 11.509010314941406 546.6426391601562 13.330639839172363 548.4984741210938 14.00001049041748 550.9999389648438" stroke-width="0.0" fill="rgb(252, 252, 252)" opacity="0.99523026"/>
    <path d="M 82.07412719726562 512.1212768554688 C 81.42871856689453 514.6126708984375 79.6194076538086 516.4518432617188 77.16719055175781 517.0528564453125 C 74.4710693359375 516.2511596679688 72.479736328125 514.6094360351562 71.74214935302734 512.2059936523438 C 72.70452117919922 509.5073547363281 74.5312271118164 507.7760009765625 77.10829162597656 507.17718505859375 C 79.54960632324219 507.6173095703125 81.3077621459961 509.4707946777344 82.07412719726562 512.1212768554688" stroke-width="0.0" fill="rgb(252, 252, 252)" opacity="0.9920626"/>
    <path d="M 586.4166870117188 521.07861328125 C 585.6369018554688 523.7562255859375 583.73095703125 525.5552368164062 581.1121215820312 525.989013671875 C 578.4017333984375 525.3856201171875 576.6098022460938 523.5995483398438 576.0204467773438 520.8968505859375 C 576.4757080078125 518.3253173828125 578.3460083007812 516.5469360351562 580.9699096679688 515.989990234375 C 583.5076293945312 516.6669311523438 585.402587890625 518.4721069335938 586.4166870117188 521.07861328125" stroke-width="0.0" fill="rgb(252, 252, 252)" opacity="0.99259263"/>
    <path d="M 90.52337646484375 582.862060546875 C 89.63370513916016 585.7595825195312 87.74996185302734 587.6050415039062 85.13238525390625 588.4332275390625 C 82.41216278076172 587.3969116210938 80.53816223144531 585.607666015625 80.14501190185547 583.1393432617188 C 80.76862335205078 580.4953002929688 82.42918395996094 578.5519409179688 85.14490509033203 577.6409301757812 C 87.7622299194336 578.3903198242188 89.68778991699219 580.2120361328125 90.52337646484375 582.862060546875" stroke-width="0.0" fill="rgb(252, 252, 253)" opacity="0.991631"/>
    <path d="M 49.000205993652344 362.0000305175781 C 48.33305358886719 364.5076904296875 46.528724670410156 366.4052429199219 44.17425537109375 367.19293212890625 C 41.570655822753906 366.23846435546875 39.784156799316406 364.4205322265625 38.59843444824219 361.83392333984375 C 39.44877243041992 359.3178405761719 41.317134857177734 357.4471130371094 43.97684860229492 356.6177062988281 C 46.52543640136719 357.60296630859375 48.33271026611328 359.49322509765625 49.000205993652344 362.0000305175781" stroke-width="0.0" fill="rgb(252, 253, 253)" opacity="0.9925484"/>
    <path d="M 518.2694091796875 581.10791015625 C 517.4451904296875 583.6526489257812 515.7141723632812 585.63916015625 513.23681640625 586.4650268554688 C 510.56231689453125 585.2377319335938 508.69390869140625 583.4586791992188 508.0027160644531 580.9952392578125 C 508.66986083984375 578.5 510.5 576.6698608398438 512.970947265625 576.0269165039062 C 515.3851928710938 576.7637939453125 517.1533203125 578.6403198242188 518.2694091796875 581.10791015625" stroke-width="0.0" fill="rgb(251, 252, 252)" opacity="0.9928793"/>
    <path d="M 28.119552612304688 298.0047607421875 C 27.22762107849121 300.43243408203125 25.456132888793945 302.3048095703125 22.911102294921875 303.09619140625 C 20.324726104736328 302.5259094238281 18.52485466003418 300.6597595214844 17.95647430419922 298.1716003417969 C 18.752321243286133 295.4796142578125 20.41667938232422 293.5405578613281 23.0516300201416 292.68023681640625 C 25.508825302124023 293.62554931640625 27.327880859375 295.50396728515625 28.119552612304688 298.0047607421875" stroke-width="0.0" fill="rgb(252, 252, 253)" opacity="0.99235195"/>
    <path d="M 12.258246421813965 371.961181640625 C 11.510766983032227 374.686279296875 9.705981254577637 376.5770568847656 7.136559963226318 377.36737060546875 C 4.385232925415039 376.4705810546875 2.6001174449920654 374.59332275390625 1.759756326675415 372.00042724609375 C 2.5219168663024902 369.3782653808594 4.401294708251953 367.5986328125 6.909636974334717 366.9087219238281 C 9.604949951171875 367.6116638183594 11.462177276611328 369.37518310546875 12.258246421813965 371.961181640625" stroke-width="0.0" fill="rgb(252, 252, 252)" opacity="0.9916632"/>
    <path d="M 541.318603515625 598.0406494140625 C 540.396240234375 600.5242919921875 538.5056762695312 602.33203125 536.0003051757812 602.9998779296875 C 533.5018310546875 602.3291015625 531.6757202148438 600.4967041015625 530.727294921875 597.8848876953125 C 531.5985717773438 595.4728393554688 533.5098266601562 593.7257690429688 536.1475219726562 592.871826171875 C 538.6420288085938 593.5426635742188 540.5079956054688 595.3424072265625 541.318603515625 598.0406494140625" stroke-width="0.0" fill="rgb(253, 252, 253)" opacity="0.9922532"/>
    <path d="M 75.42254638671875 574.9729614257812 C 74.43030548095703 577.5413208007812 72.51316833496094 579.3355102539062 69.93399810791016 580.084716796875 C 67.40563201904297 579.4696655273438 65.6855239868164 577.5482177734375 64.86986541748047 575.027099609375 C 65.66987609863281 572.5 67.5 570.6698608398438 69.96440124511719 570.1253662109375 C 72.63811492919922 570.6130981445312 74.59365844726562 572.302001953125 75.42254638671875 574.9729614257812" stroke-width="0.0" fill="rgb(252, 252, 252)" opacity="0.99288815"/>
    <path d="M 568.8450927734375 488.0569763183594 C 568.3280029296875 490.499267578125 566.4998168945312 492.330078125 563.9049072265625 493.1098937988281 C 561.286865234375 492.5521240234375 559.4122314453125 490.7234802246094 558.5029296875 488.0132751464844 C 559.4623413085938 485.3496398925781 561.3842163085938 483.5763854980469 563.9256591796875 483.1148376464844 C 566.5200805664062 483.69403076171875 568.288818359375 485.48516845703125 568.8450927734375 488.0569763183594" stroke-width="0.0" fill="rgb(252, 252, 252)" opacity="0.9925376"/>
    <path d="M 568.0302124023438 288.03173828125 C 567.4224853515625 290.5943603515625 565.5969848632812 292.43243408203125 563.0469360351562 293.26947021484375 C 560.413330078125 292.45135498046875 558.72265625 290.53692626953125 558.1715087890625 287.9275817871094 C 558.6702880859375 285.5001220703125 560.5 283.66986083984375 563.0 283.0 C 565.5 283.66986083984375 567.3301391601562 285.5 568.0302124023438 288.03173828125" stroke-width="0.0" fill="rgb(253, 253, 253)" opacity="0.9935799"/>
    <path d="M 510.54803466796875 594.8717041015625 C 509.5570983886719 597.6715087890625 507.6191101074219 599.3722534179688 504.9014587402344 599.9280395507812 C 502.3572998046875 599.479736328125 500.5183410644531 597.643310546875 499.8548583984375 594.9777221679688 C 500.48046875 592.3295288085938 502.3462829589844 590.5361938476562 505.0002136230469 589.7415771484375 C 507.73883056640625 590.4407958984375 509.6773681640625 592.2240600585938 510.54803466796875 594.8717041015625" stroke-width="0.0" fill="rgb(252, 252, 253)" opacity="0.99180096"/>
    <path d="M 38.35896301269531 290.1518249511719 C 37.54100799560547 292.6504211425781 35.613800048828125 294.4203796386719 32.85116958618164 295.3363952636719 C 30.367881774902344 294.5202941894531 28.590614318847656 292.598388671875 27.586669921875 289.8913879394531 C 28.47277069091797 287.359375 30.39243507385254 285.5810546875 32.806705474853516 285.046142578125 C 35.41328048706055 285.8554992675781 37.38010025024414 287.5122375488281 38.35896301269531 290.1518249511719" stroke-width="0.0" fill="rgb(252, 252, 252)" opacity="0.99155027"/>
    <path d="M 511.0008850097656 584.00439453125 C 510.35150146484375 586.5317993164062 508.55975341796875 588.4454345703125 506.1643371582031 589.2609252929688 C 503.5108642578125 588.2664184570312 501.58514404296875 586.535888671875 500.9096984863281 584.0181884765625 C 501.5702209472656 581.3782958984375 503.3488464355469 579.4728393554688 505.8824768066406 578.80712890625 C 508.5 579.6698608398438 510.33013916015625 581.5 511.0008850097656 584.00439453125" stroke-width="0.0" fill="rgb(252, 252, 252)" opacity="0.9928423"/>
    <path d="M 22.347532272338867 250.8676300048828 C 21.42289924621582 253.57382202148438 19.5444393157959 255.31607055664062 16.893125534057617 255.92721557617188 C 14.34891414642334 255.48475646972656 12.460498809814453 253.6673126220703 11.625696182250977 251.14283752441406 C 12.680937767028809 248.4521942138672 14.40977668762207 246.53834533691406 16.962299346923828 245.90725708007812 C 19.61427116394043 246.57797241210938 21.53493309020996 248.35153198242188 22.347532272338867 250.8676300048828" stroke-width="0.0" fill="rgb(252, 252, 252)" opacity="0.99194604"/>
    <path d="M 585.8690795898438 432.8519287109375 C 585.2330322265625 435.5105895996094 583.5787353515625 437.4580078125 581.167236328125 437.84979248046875 C 578.597900390625 437.161865234375 576.7031860351562 435.44366455078125 576.154541015625 433.0701904296875 C 576.7652587890625 430.5404357910156 578.494140625 428.609130859375 580.9498291015625 427.621337890625 C 583.59765625 428.5997314453125 585.477294921875 430.3791198730469 585.8690795898438 432.8519287109375" stroke-width="0.0" fill="rgb(251, 252, 252)" opacity="0.99189013"/>
    <path d="M 578.017578125 435.0143127441406 C 577.3983154296875 437.5685729980469 575.5530395507812 439.3403625488281 573.0232543945312 439.77691650390625 C 570.4778442382812 439.2961730957031 568.6265869140625 437.5431213378906 568.0118408203125 435.1561279296875 C 568.8142700195312 432.56951904296875 570.5064697265625 430.6054992675781 573.0396728515625 429.5899353027344 C 575.6429443359375 430.44403076171875 577.3780517578125 432.4125671386719 578.017578125 435.0143127441406" stroke-width="0.0" fill="rgb(252, 252, 252)" opacity="0.99251765"/>
    <path d="M 537.7770385742188 496.97210693359375 C 537.3309326171875 499.5666198730469 535.6026611328125 501.46087646484375 533.0422973632812 502.1023254394531 C 530.4329223632812 501.39599609375 528.6083984375 499.5655822753906 527.576416015625 496.89776611328125 C 528.4906005859375 494.3896179199219 530.4391479492188 492.6545104980469 533.0371704101562 491.77490234375 C 535.6622314453125 492.4841003417969 537.401611328125 494.3697814941406 537.7770385742188 496.97210693359375" stroke-width="0.0" fill="rgb(253, 253, 253)" opacity="0.99219763"/>
    <path d="M 7.977684020996094 546.9995727539062 C 7.330143451690674 549.5001220703125 5.50041389465332 551.3311157226562 2.921809673309326 552.207275390625 C 0.43966424465179443 551.3912353515625 -1.3879984617233276 549.5596313476562 -2.016235828399658 547.0192260742188 C -1.3284523487091064 544.5021362304688 0.5029942989349365 542.674560546875 3.0195555686950684 542.0016479492188 C 5.568749904632568 542.6052856445312 7.370236396789551 544.4378662109375 7.977684020996094 546.9995727539062" stroke-width="0.0" fill="rgb(253, 253, 253)" opacity="0.99297845"/>
    <path d="M 30.402921676635742 303.83453369140625 C 29.32102394104004 306.55963134765625 27.621706008911133 308.5276794433594 25.168649673461914 309.3153076171875 C 22.53359031677246 308.3125305175781 20.7525634765625 306.4463195800781 19.647119522094727 303.89483642578125 C 20.598020553588867 301.47314453125 22.493350982666016 299.6675720214844 25.084087371826172 298.90484619140625 C 27.699647903442383 299.466064453125 29.58209800720215 301.2861022949219 30.402921676635742 303.83453369140625" stroke-width="0.0" fill="rgb(252, 253, 253)" opacity="0.9921691"/>
    <path d="M 558.0174560546875 507.0183410644531 C 557.3805541992188 509.5404968261719 555.5084838867188 511.26983642578125 552.8509521484375 512.0391845703125 C 550.3721313476562 511.45574951171875 548.5426025390625 509.6282653808594 547.8087768554688 507.1256408691406 C 548.74462890625 504.57171630859375 550.5718994140625 502.745361328125 553.032958984375 502.04290771484375 C 555.5000610351562 502.66961669921875 557.3301391601562 504.5 558.0174560546875 507.0183410644531" stroke-width="0.0" fill="rgb(252, 252, 253)" opacity="0.9920338"/>
    <path d="M 51.368988037109375 362.1321105957031 C 50.58235168457031 364.7161865234375 48.70281219482422 366.5367736816406 45.94850540161133 367.3384704589844 C 43.46651840209961 366.4146728515625 41.66604232788086 364.509765625 40.99973678588867 362.0 C 41.66602325439453 359.49017333984375 43.46649169921875 357.5854187011719 45.90024948120117 356.7038269042969 C 48.61197280883789 357.576904296875 50.486690521240234 359.3687438964844 51.368988037109375 362.1321105957031" stroke-width="0.0" fill="rgb(252, 252, 253)" opacity="0.99278057"/>
    <path d="M 11.164379119873047 258.0026550292969 C 10.542543411254883 260.7083740234375 8.722969055175781 262.592041015625 6.259778022766113 263.2229309082031 C 3.5731868743896484 262.18414306640625 1.6102244853973389 260.488525390625 0.7229132056236267 258.11993408203125 C 1.6842734813690186 255.52027893066406 3.546278476715088 253.77088928222656 6.06381368637085 253.24810791015625 C 8.647430419921875 253.5796356201172 10.530449867248535 255.32176208496094 11.164379119873047 258.0026550292969" stroke-width="0.0" fill="rgb(253, 253, 253)" opacity="0.99182457"/>
    <path d="M 109.36991882324219 563.849609375 C 108.4621353149414 566.610107421875 106.59124755859375 568.399658203125 103.88923645019531 569.410888671875 C 101.3390121459961 568.5447387695312 99.50748443603516 566.6438598632812 98.69863891601562 564.1432495117188 C 99.68306732177734 561.534912109375 101.57533264160156 559.8145141601562 104.25502014160156 558.797119140625 C 106.73387908935547 559.4039916992188 108.59911346435547 561.26513671875 109.36991882324219 563.849609375" stroke-width="0.0" fill="rgb(252, 252, 253)" opacity="0.9918038"/>
    <path d="M 51.39447021484375 432.1114807128906 C 50.51721954345703 434.6119384765625 48.55181121826172 436.3176574707031 46.05276107788086 437.00787353515625 C 43.34297561645508 436.4161071777344 41.425750732421875 434.7019958496094 40.8632698059082 432.1373291015625 C 41.73204040527344 429.5578308105469 43.53685760498047 427.6534729003906 45.97513198852539 426.5984191894531 C 48.60153579711914 427.56396484375 50.39493179321289 429.410400390625 51.39447021484375 432.1114807128906" stroke-width="0.0" fill="rgb(253, 253, 253)" opacity="0.99204195"/>
    <path d="M 569.3456420898438 287.16851806640625 C 568.58251953125 289.7095031738281 566.6890258789062 291.51422119140625 564.07080078125 292.07464599609375 C 561.5 291.3301086425781 559.6698608398438 289.4999694824219 559.0 286.9999694824219 C 559.6697998046875 284.4999694824219 561.5 282.6700134277344 564.0625 281.9357604980469 C 566.6243286132812 282.52178955078125 568.41796875 284.3939208984375 569.3456420898438 287.16851806640625" stroke-width="0.0" fill="rgb(253, 252, 252)" opacity="0.9933952"/>
    <path d="M 73.15569305419922 540.23876953125 C 72.47887420654297 542.588134765625 70.56849670410156 544.4189453125 67.9198989868164 545.415771484375 C 65.29349517822266 544.6134643554688 63.55938720703125 542.6527099609375 62.58929443359375 539.9013671875 C 63.489540100097656 537.3939208984375 65.44902038574219 535.6703491210938 67.92473602294922 534.8516235351562 C 70.39004516601562 535.763427734375 72.1291732788086 537.6428833007812 73.15569305419922 540.23876953125" stroke-width="0.0" fill="rgb(252, 252, 252)" opacity="0.99161786"/>
    <path d="M 53.24513626098633 495.98211669921875 C 52.4101448059082 498.5403747558594 50.51933670043945 500.3396301269531 47.915306091308594 501.1000671386719 C 45.32106399536133 500.52899169921875 43.51549530029297 498.6651916503906 42.65392303466797 495.9929504394531 C 43.49675369262695 493.3742980957031 45.376983642578125 491.50469970703125 47.91957473754883 490.59613037109375 C 50.61503219604492 491.56378173828125 52.43069076538086 493.3865051269531 53.24513626098633 495.98211669921875" stroke-width="0.0" fill="rgb(252, 252, 253)" opacity="0.9921163"/>
    <path d="M 604.0001220703125 507.00030517578125 C 603.3331909179688 509.5079345703125 601.5288696289062 511.405029296875 599.1170043945312 512.2780151367188 C 596.5003051757812 511.3298034667969 594.67236328125 509.4990539550781 593.7518920898438 506.904052734375 C 594.6465454101562 504.5069885253906 596.5162963867188 502.6825866699219 599.0032348632812 502.002197265625 C 601.5 502.66986083984375 603.3301391601562 504.5 604.0001220703125 507.00030517578125" stroke-width="0.0" fill="rgb(252, 251, 252)" opacity="0.99580705"/>
    <path d="M 68.390380859375 547.8157958984375 C 67.24623107910156 550.470458984375 65.51856994628906 552.3973388671875 62.855709075927734 553.3491821289062 C 60.34715270996094 552.5410766601562 58.574974060058594 550.6176147460938 57.9822883605957 548.0297241210938 C 58.682823181152344 545.5199584960938 60.52989196777344 543.7160034179688 63.03372573852539 543.1067504882812 C 65.69031524658203 543.527099609375 67.60379028320312 545.2720336914062 68.390380859375 547.8157958984375" stroke-width="0.0" fill="rgb(252, 253, 253)" opacity="0.99199456"/>
    <path d="M 44.247596740722656 378.05413818359375 C 43.552249908447266 380.71551513671875 41.72690963745117 382.5911560058594 39.0755729675293 383.4273376464844 C 36.31624984741211 382.5506286621094 34.44668197631836 380.6845397949219 33.458717346191406 377.8990478515625 C 34.359046936035156 375.28240966796875 36.34299087524414 373.5509338378906 39.030738830566406 372.8948669433594 C 41.589717864990234 373.53863525390625 43.3239860534668 375.4513854980469 44.247596740722656 378.05413818359375" stroke-width="0.0" fill="rgb(252, 252, 253)" opacity="0.9919823"/>
    <path d="M 560.4845581054688 525.2440795898438 C 559.6630249023438 527.758544921875 557.7432861328125 529.6198120117188 555.2721557617188 530.3175659179688 C 552.5133666992188 529.2412719726562 550.6239624023438 527.5280151367188 549.8605346679688 525.053955078125 C 550.6698608398438 522.5 552.5 520.6698608398438 555.0006103515625 519.998779296875 C 557.48583984375 520.6731567382812 559.2769165039062 522.5294189453125 560.4845581054688 525.2440795898438" stroke-width="0.0" fill="rgb(252, 252, 252)" opacity="0.9932255"/>
    <path d="M 599.3231201171875 513.162353515625 C 598.5374755859375 515.6717529296875 596.6721801757812 517.538818359375 594.1066284179688 518.3530883789062 C 591.3662719726562 517.4886474609375 589.570068359375 515.6159057617188 588.7540893554688 512.9332275390625 C 589.609130859375 510.4994201660156 591.5372314453125 508.7349853515625 593.9710083007812 507.8426513671875 C 596.5001831054688 508.6698303222656 598.3320922851562 510.499267578125 599.3231201171875 513.162353515625" stroke-width="0.0" fill="rgb(252, 252, 252)" opacity="0.99224585"/>
    <path d="M 49.015953063964844 416.1040344238281 C 48.49493408203125 418.65826416015625 46.67265701293945 420.54376220703125 44.0537109375 421.4629821777344 C 41.41665267944336 420.4361267089844 39.50182342529297 418.60406494140625 38.59157943725586 415.9488525390625 C 39.48849105834961 413.35626220703125 41.339839935302734 411.4376525878906 43.923648834228516 410.49298095703125 C 46.55710220336914 411.53155517578125 48.26593017578125 413.5067138671875 49.015953063964844 416.1040344238281" stroke-width="0.0" fill="rgb(252, 253, 253)" opacity="0.9914839"/>
    <path d="M 517.446533203125 559.2052001953125 C 516.6328125 561.7183227539062 514.680908203125 563.519775390625 512.0989990234375 564.3394165039062 C 509.3492736816406 563.4857788085938 507.4618225097656 561.6661987304688 506.6315002441406 559.0917358398438 C 507.451416015625 556.2850341796875 509.2705383300781 554.4027099609375 511.9230041503906 553.5327758789062 C 514.6180419921875 554.5314331054688 516.470458984375 556.380126953125 517.446533203125 559.2052001953125" stroke-width="0.0" fill="rgb(252, 252, 252)" opacity="0.99151474"/>
    <path d="M 36.17536544799805 561.2067260742188 C 35.485252380371094 563.630859375 33.6306266784668 565.4805297851562 30.928796768188477 566.3179931640625 C 28.37355613708496 565.4769897460938 26.522706985473633 563.627685546875 26.02316665649414 561.0743408203125 C 26.58399200439453 558.3765869140625 28.363489151000977 556.5344848632812 31.086740493774414 555.5723266601562 C 33.61065673828125 556.4786987304688 35.249691009521484 558.4705810546875 36.17536544799805 561.2067260742188" stroke-width="0.0" fill="rgb(252, 252, 252)" opacity="0.9917582"/>
    <path d="M 112.2552261352539 596.997314453125 C 111.38806915283203 599.5584716796875 109.55812072753906 601.38623046875 107.02224731445312 602.013671875 C 104.54364776611328 601.3064575195312 102.8150634765625 599.419189453125 102.1370849609375 596.8518676757812 C 102.54415893554688 594.4188232421875 104.48100280761719 592.7529296875 107.05611419677734 592.2685546875 C 109.62757873535156 592.6090087890625 111.5181884765625 594.3369140625 112.2552261352539 596.997314453125" stroke-width="0.0" fill="rgb(252, 253, 253)" opacity="0.9922761"/>
    <path d="M 541.0100708007812 456.9698181152344 C 540.3262939453125 459.49859619140625 538.4996337890625 461.33001708984375 536.0007934570312 461.9996337890625 C 533.5206909179688 461.32208251953125 531.8447265625 459.4275817871094 531.8035278320312 457.29656982421875 C 531.43408203125 454.2077331542969 533.19775390625 452.3757629394531 535.6949462890625 452.3257751464844 C 538.43798828125 452.8345947265625 540.376220703125 454.4954833984375 541.0100708007812 456.9698181152344" stroke-width="0.0" fill="rgb(248, 248, 247)" opacity="1.0"/>
    <path d="M 52.13175582885742 308.1062927246094 C 51.56260299682617 310.7151184082031 49.72121047973633 312.58441162109375 47.12135314941406 313.3829650878906 C 44.298736572265625 312.53839111328125 42.45797348022461 310.70233154296875 41.896636962890625 308.0899353027344 C 42.66987228393555 305.5 44.5 303.66986083984375 46.999996185302734 303.0 C 49.49998474121094 303.66986083984375 51.330108642578125 305.5000305175781 52.13175582885742 308.1062927246094" stroke-width="0.0" fill="rgb(252, 252, 253)" opacity="0.99396294"/>
    <path d="M 7.352764129638672 458.9148254394531 C 6.537635803222656 461.701416015625 4.702035427093506 463.53973388671875 2.0757980346679688 464.2051696777344 C -0.4335747957229614 463.2308654785156 -2.304795742034912 461.456298828125 -2.9970922470092773 458.99517822265625 C -2.3292055130004883 456.50177001953125 -0.49625545740127563 454.6776428222656 2.1140284538269043 453.7531433105469 C 4.577332019805908 454.57745361328125 6.4928717613220215 456.39971923828125 7.352764129638672 458.9148254394531" stroke-width="0.0" fill="rgb(254, 253, 253)" opacity="0.9920495"/>
    <path d="M 31.416955947875977 527.9108276367188 C 30.435884475708008 530.6028442382812 28.599990844726562 532.42578125 25.84333038330078 533.3403930664062 C 23.308494567871094 532.571044921875 21.530315399169922 530.6608276367188 20.57705307006836 527.912109375 C 21.474445343017578 525.3612670898438 23.39535140991211 523.5872192382812 26.043262481689453 522.9108276367188 C 28.648162841796875 523.5162963867188 30.5338077545166 525.3370361328125 31.416955947875977 527.9108276367188" stroke-width="0.0" fill="rgb(252, 252, 252)" opacity="0.99174213"/>
    <path d="M 60.86312484741211 545.0528564453125 C 60.328575134277344 547.497314453125 58.4952392578125 549.3215942382812 55.86709213256836 550.2731323242188 C 53.404754638671875 549.4635620117188 51.65513610839844 547.5623168945312 50.92514419555664 544.9154052734375 C 51.65679168701172 542.44091796875 53.40406036376953 540.5347290039062 55.973045349121094 539.787841796875 C 58.50901412963867 540.6917724609375 60.3014030456543 542.4912719726562 60.86312484741211 545.0528564453125" stroke-width="0.0" fill="rgb(252, 253, 253)" opacity="0.9925478"/>
    <path d="M 578.3340454101562 542.1697387695312 C 577.5912475585938 544.7268676757812 575.7252807617188 546.586181640625 573.2040405273438 547.2439575195312 C 570.3765258789062 546.3812255859375 568.4409790039062 544.674072265625 567.6273193359375 542.1702270507812 C 568.7388305664062 539.4879150390625 570.4136962890625 537.4993896484375 572.8081665039062 536.7420654296875 C 575.5493774414062 537.6663208007812 577.3958129882812 539.43408203125 578.3340454101562 542.1697387695312" stroke-width="0.0" fill="rgb(252, 252, 253)" opacity="0.9917965"/>
    <path d="M 44.231502532958984 536.8262329101562 C 43.289878845214844 539.48583984375 41.533966064453125 541.4437866210938 39.14705276489258 542.0703125 C 36.52779006958008 541.26025390625 34.68279266357422 539.4888305664062 33.88492202758789 536.8909912109375 C 34.44416046142578 534.3018798828125 36.32162857055664 532.5087280273438 38.93678665161133 531.6908569335938 C 41.60585021972656 532.6282958984375 43.58599090576172 534.3284301757812 44.231502532958984 536.8262329101562" stroke-width="0.0" fill="rgb(252, 252, 252)" opacity="0.9917752"/>
    <path d="M 576.46923828125 253.05517578125 C 575.5130004882812 255.6089324951172 573.5496215820312 257.31585693359375 571.054443359375 258.026611328125 C 568.3722534179688 257.39208984375 566.47119140625 255.66622924804688 565.75537109375 253.01821899414062 C 566.4951782226562 250.33950805664062 568.340087890625 248.49708557128906 570.9414672851562 247.74790954589844 C 573.46630859375 248.73263549804688 575.4011840820312 250.49317932128906 576.46923828125 253.05517578125" stroke-width="0.0" fill="rgb(252, 252, 252)" opacity="0.9917656"/>
    <path d="M 43.08857727050781 431.0066223144531 C 42.45903015136719 433.62384033203125 40.61964416503906 435.4460754394531 38.15399932861328 436.102783203125 C 35.582740783691406 435.2268981933594 33.84236526489258 433.3943786621094 32.995452880859375 430.8161926269531 C 33.55889892578125 428.3531188964844 35.303855895996094 426.4007263183594 37.99972152709961 425.5540771484375 C 40.651248931884766 426.47039794921875 42.44977569580078 428.3726501464844 43.08857727050781 431.0066223144531" stroke-width="0.0" fill="rgb(252, 253, 253)" opacity="0.99192506"/>
    <path d="M 16.322160720825195 527.0802001953125 C 15.478532791137695 529.6343994140625 13.654654502868652 531.5408935546875 11.054040908813477 532.4683227539062 C 8.379273414611816 531.4701538085938 6.5235819816589355 529.6238403320312 5.71946382522583 526.9573974609375 C 6.530304431915283 524.3419799804688 8.323558807373047 522.4700317382812 10.839069366455078 522.0960083007812 C 13.517240524291992 522.755126953125 15.456849098205566 524.41943359375 16.322160720825195 527.0802001953125" stroke-width="0.0" fill="rgb(252, 252, 252)" opacity="0.9916217"/>
    <path d="M 12.364151000976562 412.27239990234375 C 11.640594482421875 414.71539306640625 9.653596878051758 416.4449462890625 6.9462175369262695 417.1017150878906 C 4.295948505401611 416.536865234375 2.4120850563049316 414.7191162109375 1.515718698501587 412.0665283203125 C 2.5110888481140137 409.36492919921875 4.364696979522705 407.5145263671875 6.97788667678833 406.77642822265625 C 9.512846946716309 407.6858215332031 11.3140287399292 409.4854431152344 12.364151000976562 412.27239990234375" stroke-width="0.0" fill="rgb(252, 253, 253)" opacity="0.9918587"/>
    <path d="M 538.2227172851562 484.0426330566406 C 537.4092407226562 486.5851135253906 535.6029052734375 488.470703125 533.2019653320312 489.19244384765625 C 530.5136108398438 488.2415771484375 528.6298217773438 486.5258483886719 527.594482421875 483.8691711425781 C 528.4225463867188 481.3034973144531 530.3472290039062 479.57513427734375 533.1204223632812 478.8069152832031 C 535.5579223632812 479.5874328613281 537.4097900390625 481.44158935546875 538.2227172851562 484.0426330566406" stroke-width="0.0" fill="rgb(252, 252, 252)" opacity="0.99179834"/>
    <path d="M 60.34056854248047 316.9466857910156 C 59.5473747253418 319.7082824707031 57.70763397216797 321.54522705078125 54.943729400634766 322.2876281738281 C 52.40087890625 321.53021240234375 50.73468017578125 319.5152587890625 49.74811935424805 316.9325256347656 C 50.580055236816406 314.3992614746094 52.41025924682617 312.6230163574219 55.1002311706543 312.0306701660156 C 57.64472961425781 312.4983215332031 59.485443115234375 314.3616027832031 60.34056854248047 316.9466857910156" stroke-width="0.0" fill="rgb(252, 253, 253)" opacity="0.9916389"/>
    <path d="M 537.223876953125 504.7682800292969 C 536.2575073242188 507.5246887207031 534.5848999023438 509.46112060546875 531.881103515625 510.3603515625 C 529.3553466796875 509.5335388183594 527.5811767578125 507.6097717285156 526.657958984375 504.8353271484375 C 527.41259765625 502.2793884277344 529.2920532226562 500.45562744140625 531.9547119140625 499.8583679199219 C 534.6583251953125 500.5269775390625 536.5682373046875 502.31280517578125 537.223876953125 504.7682800292969" stroke-width="0.0" fill="rgb(252, 253, 253)" opacity="0.99217725"/>
    <path d="M 562.1163940429688 504.90350341796875 C 561.391357421875 507.6028137207031 559.616943359375 509.44512939453125 557.0964965820312 510.21173095703125 C 554.500244140625 509.32940673828125 552.6698608398438 507.49993896484375 551.9969482421875 504.99688720703125 C 552.6589965820312 502.4849548339844 554.4649047851562 500.59002685546875 556.9111938476562 499.6966247558594 C 559.5875854492188 500.57275390625 561.4002685546875 502.4208679199219 562.1163940429688 504.90350341796875" stroke-width="0.0" fill="rgb(252, 253, 253)" opacity="0.99232835"/>
    <path d="M 53.8446044921875 387.0121154785156 C 53.237430572509766 389.39154052734375 51.360679626464844 391.1365966796875 48.88372802734375 391.80682373046875 C 46.45330047607422 391.3510437011719 44.518009185791016 389.58648681640625 43.77068328857422 387.19287109375 C 44.68608474731445 384.4364013671875 46.37889099121094 382.4849548339844 48.956748962402344 381.5351257324219 C 51.592071533203125 382.53985595703125 53.336158752441406 384.4421691894531 53.8446044921875 387.0121154785156" stroke-width="0.0" fill="rgb(252, 252, 253)" opacity="0.9917211"/>
    <path d="M 73.26525115966797 561.2149047851562 C 72.5806655883789 563.71533203125 70.7132339477539 565.5739135742188 68.10771179199219 566.3213500976562 C 65.38164520263672 565.4762573242188 63.65287399291992 563.5821533203125 62.97345733642578 560.9374389648438 C 63.75436782836914 558.5897216796875 65.61761474609375 556.8453979492188 68.12203216552734 556.193603515625 C 70.55718231201172 556.6142578125 72.31890869140625 558.4607543945312 73.26525115966797 561.2149047851562" stroke-width="0.0" fill="rgb(252, 252, 252)" opacity="0.99164796"/>
    <path d="M 602.9998779296875 501.000244140625 C 602.3301391601562 503.5 600.5 505.33013916015625 597.9979248046875 505.99737548828125 C 595.4530029296875 505.3529357910156 593.51904296875 503.5859680175781 592.5095825195312 500.95147705078125 C 593.4208984375 498.29571533203125 595.318359375 496.4964294433594 597.9264526367188 495.9594421386719 C 600.4945068359375 496.6811828613281 602.3287353515625 498.50262451171875 602.9998779296875 501.000244140625" stroke-width="0.0" fill="rgb(252, 252, 252)" opacity="0.99247664"/>
    <path d="M 572.1051635742188 569.9125366210938 C 571.3301391601562 572.5 569.5 574.3301391601562 566.9136962890625 575.101806640625 C 564.3328857421875 574.5250244140625 562.6077270507812 572.6300048828125 562.2197265625 570.01171875 C 562.6605224609375 567.4268188476562 564.392333984375 565.5372314453125 567.0416870117188 564.7459106445312 C 569.6482543945312 565.541748046875 571.5255737304688 567.3311767578125 572.1051635742188 569.9125366210938" stroke-width="0.0" fill="rgb(252, 252, 252)" opacity="0.99298644"/>
  </g>
</svg>
