<?xml version="1.0" ?>
<svg xmlns="http://www.w3.org/2000/svg" version="1.1" width="600" height="600">
  <defs/>
  <g>
    <path d="M 38.190006256103516 275.8252868652344 C 37.020076751708984 278.1825866699219 35.326560974121094 280.60748291015625 33.854610443115234 281.06982421875 C 31.025300979614258 279.6716613769531 28.8376407623291 278.2339782714844 28.05647087097168 276.0374755859375 C 28.88348960876465 273.7247009277344 30.592540740966797 271.613525390625 32.765838623046875 269.6507263183594 C 35.255043029785156 271.21771240234375 36.98481750488281 273.6053771972656 38.190006256103516 275.8252868652344" stroke-width="0.0" fill="rgb(255, 255, 255)" opacity="0.6210412"/>
    <path d="M 544.935302734375 558.9437866210938 C 545.516357421875 561.7308349609375 544.057861328125 563.458251953125 542.0775756835938 562.9329223632812 C 538.5804443359375 563.6979370117188 536.013427734375 561.8603515625 535.68798828125 558.59423828125 C 536.9990844726562 557.0501708984375 539.3035278320312 555.554443359375 541.4385986328125 552.776611328125 C 543.3361206054688 554.8824462890625 545.4920654296875 556.5670776367188 544.935302734375 558.9437866210938" stroke-width="0.0" fill="rgb(255, 255, 255)" opacity="0.6111551"/>
    <path d="M 130.31312561035156 550.54248046875 C 128.11669921875 552.151611328125 126.48115539550781 554.8239135742188 124.25344848632812 555.26220703125 C 121.34642028808594 555.0908203125 120.07614135742188 552.07568359375 117.73311614990234 550.2523803710938 C 119.46341705322266 547.4374389648438 121.45216369628906 545.6256103515625 124.1828842163086 544.7736206054688 C 127.07768249511719 545.1112060546875 129.2648162841797 546.82470703125 130.31312561035156 550.54248046875" stroke-width="0.0" fill="rgb(255, 255, 255)" opacity="0.6224114"/>
    <path d="M 184.26632690429688 7.576415538787842 C 171.0423583984375 9.41273021697998 154.61654663085938 7.996758460998535 143.5430450439453 8.497855186462402 C 128.95498657226562 7.630853652954102 122.6583023071289 11.087712287902832 117.83319854736328 4.188534259796143 C 122.32415008544922 -7.235833168029785 128.46180725097656 -5.815310001373291 138.5568389892578 -4.19001579284668 C 151.95281982421875 -8.409467697143555 172.82337951660156 -21.628664016723633 184.26632690429688 7.576415538787842" stroke-width="0.0" fill="rgb(2, 2, 2)" opacity="1.0"/>
    <path d="M 124.39901733398438 525.0850219726562 C 123.6903076171875 527.784912109375 121.57705688476562 529.2760620117188 118.2041244506836 530.337158203125 C 116.65861511230469 529.8496704101562 114.82842254638672 527.40087890625 114.0457763671875 525.2496337890625 C 115.04701232910156 522.8372192382812 116.40666198730469 520.1851806640625 118.52082061767578 519.5862426757812 C 121.51448059082031 520.471435546875 123.42908477783203 522.51123046875 124.39901733398438 525.0850219726562" stroke-width="0.0" fill="rgb(255, 255, 255)" opacity="0.61708146"/>
    <path d="M 481.5475158691406 15.521653175354004 C 480.8954772949219 17.742612838745117 478.54931640625 19.02125358581543 474.91217041015625 20.337369918823242 C 473.636962890625 19.426116943359375 471.6836242675781 17.184104919433594 470.0474548339844 15.047365188598633 C 468.85369873046875 10.148805618286133 467.9525146484375 4.892661094665527 476.21234130859375 -2.802978277206421 C 481.55120849609375 8.161705017089844 480.9486083984375 12.445067405700684 481.5475158691406 15.521653175354004" stroke-width="0.0" fill="rgb(214, 214, 216)" opacity="0.8464027"/>
    <path d="M 562.2100219726562 279.67010498046875 C 562.2103271484375 282.9771423339844 559.7572021484375 284.45440673828125 556.9483032226562 285.08154296875 C 554.3416137695312 284.51080322265625 552.5518798828125 282.5653381347656 551.8406372070312 279.8033447265625 C 553.1423950195312 278.07696533203125 554.9396362304688 276.1611633300781 558.0972290039062 274.7098693847656 C 559.0632934570312 275.8373107910156 561.9818725585938 277.6416015625 562.2100219726562 279.67010498046875" stroke-width="0.0" fill="rgb(255, 255, 255)" opacity="0.6364362"/>
    <path d="M 533.6666870117188 20.816740036010742 C 532.3505249023438 23.557605743408203 530.584716796875 25.543052673339844 527.018798828125 26.334606170654297 C 526.013671875 25.610488891601562 523.7304077148438 23.1083927154541 522.651611328125 22.13443374633789 C 523.6839599609375 18.434240341186523 525.6519165039062 16.57383918762207 527.3944702148438 15.099523544311523 C 530.48193359375 16.71708869934082 532.5679931640625 18.6195011138916 533.6666870117188 20.816740036010742" stroke-width="0.0" fill="rgb(255, 255, 255)" opacity="0.6176721"/>
    <path d="M 326.15374755859375 17.83830451965332 C 326.1863098144531 20.398958206176758 323.2977600097656 22.325157165527344 322.0002746582031 23.24236297607422 C 318.73333740234375 22.141246795654297 315.9611511230469 20.387603759765625 315.779296875 18.603971481323242 C 316.44451904296875 15.73120403289795 318.62274169921875 13.473499298095703 320.1630859375 12.654886245727539 C 323.29608154296875 13.862682342529297 326.2015075683594 15.405713081359863 326.15374755859375 17.83830451965332" stroke-width="0.0" fill="rgb(255, 255, 255)" opacity="0.60142446"/>
    <path d="M 609.4005737304688 344.36456298828125 C 607.6467895507812 359.7791442871094 605.772705078125 363.49029541015625 594.5654296875 365.9518127441406 C 593.535400390625 350.05377197265625 593.3106079101562 343.9587097167969 592.1474609375 347.1746826171875 C 593.32177734375 349.8427429199219 592.0353393554688 343.91729736328125 592.9171142578125 304.5933837890625 C 617.6806640625 309.671875 610.7290649414062 325.04296875 609.4005737304688 344.36456298828125" stroke-width="0.0" fill="rgb(43, 42, 43)" opacity="1.0"/>
    <path d="M 607.0091552734375 482.9330139160156 C 601.7825317382812 488.83636474609375 603.0260009765625 493.1238098144531 595.4378051757812 498.3852844238281 C 591.65673828125 476.0960998535156 589.2289428710938 474.5901184082031 590.1278076171875 476.7195129394531 C 590.922119140625 475.6083679199219 590.78564453125 472.1869812011719 593.5068969726562 448.85784912109375 C 608.6884765625 452.0462646484375 603.5260009765625 461.748046875 607.0091552734375 482.9330139160156" stroke-width="0.0" fill="rgb(128, 128, 129)" opacity="1.0"/>
    <path d="M 334.71441650390625 26.799114227294922 C 333.71319580078125 29.77631950378418 331.3689270019531 30.892093658447266 327.70135498046875 31.047544479370117 C 325.9693603515625 31.8066349029541 323.5392761230469 30.041540145874023 323.9029541015625 27.649574279785156 C 326.11468505859375 25.597728729248047 327.5487060546875 23.640501022338867 328.79632568359375 22.864322662353516 C 331.4160461425781 22.800357818603516 333.92144775390625 24.0590877532959 334.71441650390625 26.799114227294922" stroke-width="0.0" fill="rgb(255, 255, 255)" opacity="0.61684865"/>
    <path d="M 256.05059814453125 61.96892547607422 C 255.1464080810547 64.34000396728516 253.3609619140625 66.77534484863281 251.82313537597656 67.13958740234375 C 248.23870849609375 66.84564971923828 246.28805541992188 64.76847839355469 247.02220153808594 61.85915756225586 C 246.39923095703125 59.367408752441406 248.1958770751953 57.31865310668945 251.15318298339844 56.719566345214844 C 253.50392150878906 57.203033447265625 255.5104217529297 59.555118560791016 256.05059814453125 61.96892547607422" stroke-width="0.0" fill="rgb(255, 255, 255)" opacity="0.6013864"/>
    <path d="M 290.3071594238281 24.54801368713379 C 288.6064147949219 28.833721160888672 286.6894226074219 30.86128044128418 282.5037841796875 29.944061279296875 C 279.85394287109375 32.08522415161133 278.49835205078125 29.952241897583008 278.8714904785156 25.820680618286133 C 279.2986755371094 23.59024429321289 281.4264221191406 21.194108963012695 284.2805480957031 20.858291625976562 C 285.8997802734375 22.412118911743164 288.8692321777344 23.235166549682617 290.3071594238281 24.54801368713379" stroke-width="0.0" fill="rgb(255, 255, 255)" opacity="0.59806114"/>
    <path d="M 348.5473937988281 533.928466796875 C 351.482177734375 540.6456909179688 357.3308410644531 549.48876953125 353.8729248046875 547.7088012695312 C 342.86767578125 552.815185546875 339.1494445800781 542.509765625 332.97076416015625 526.3472900390625 C 329.36871337890625 499.51531982421875 328.4719543457031 498.8570556640625 334.77435302734375 511.7757873535156 C 347.8924255371094 533.593505859375 350.2542419433594 537.2302856445312 348.5473937988281 533.928466796875" stroke-width="0.0" fill="rgb(6, 6, 6)" opacity="0.9781059"/>
    <path d="M 513.9154663085938 590.4581298828125 C 510.2021484375 599.6376342773438 505.2119445800781 597.5857543945312 488.66558837890625 598.5322265625 C 470.3863220214844 593.1005859375 456.5902404785156 610.0794067382812 451.30218505859375 587.4642333984375 C 462.18359375 582.2440185546875 478.00347900390625 585.7295532226562 496.5094909667969 584.4261474609375 C 506.7039489746094 586.5481567382812 512.0230102539062 581.779296875 513.9154663085938 590.4581298828125" stroke-width="0.0" fill="rgb(11, 10, 10)" opacity="0.97625923"/>
    <path d="M 30.30586814880371 43.368621826171875 C 30.312633514404297 45.738868713378906 27.325010299682617 46.61734390258789 25.052169799804688 48.29511642456055 C 22.61870765686035 47.04818344116211 20.21270179748535 45.43915557861328 19.921255111694336 43.72634506225586 C 20.18808937072754 40.24699783325195 22.353565216064453 38.62749481201172 25.807958602905273 37.90901184082031 C 27.354616165161133 38.261680603027344 29.40786361694336 40.5513916015625 30.30586814880371 43.368621826171875" stroke-width="0.0" fill="rgb(255, 255, 255)" opacity="0.5969591"/>
    <path d="M 579.2890625 303.5395812988281 C 576.3251342773438 305.42724609375 575.1393432617188 308.4561462402344 571.6701049804688 309.2395935058594 C 569.76123046875 307.60888671875 568.9192504882812 304.8157043457031 566.6931762695312 302.1762390136719 C 567.0103759765625 300.2160949707031 569.109375 298.02239990234375 572.1419677734375 296.64727783203125 C 574.2703247070312 298.5689392089844 576.044189453125 300.8363037109375 579.2890625 303.5395812988281" stroke-width="0.0" fill="rgb(255, 255, 255)" opacity="0.58798933"/>
    <path d="M 322.31707763671875 563.93896484375 C 320.1744384765625 566.494384765625 318.5846862792969 568.7451171875 316.1468811035156 568.03662109375 C 313.43603515625 568.2286987304688 310.9327697753906 566.7659912109375 310.8995056152344 563.3007202148438 C 310.5063171386719 561.065185546875 313.0504150390625 558.9578247070312 315.5050354003906 558.5079956054688 C 318.61395263671875 559.4569091796875 320.13055419921875 561.746826171875 322.31707763671875 563.93896484375" stroke-width="0.0" fill="rgb(255, 255, 255)" opacity="0.60007197"/>
    <path d="M 564.357177734375 532.430419921875 C 564.0223999023438 534.3974609375 561.3521728515625 536.0813598632812 559.3397827148438 537.770263671875 C 557.0404663085938 535.6887817382812 553.9471435546875 534.4493408203125 553.8485717773438 533.199951171875 C 554.6166381835938 529.4328002929688 556.4583129882812 527.6171875 558.5955200195312 526.1497802734375 C 561.5697631835938 527.6380615234375 563.3844604492188 529.4555053710938 564.357177734375 532.430419921875" stroke-width="0.0" fill="rgb(255, 255, 255)" opacity="0.5967942"/>
    <path d="M 468.32086181640625 588.3090209960938 C 461.4424743652344 615.885009765625 445.66326904296875 606.7849731445312 428.7455139160156 602.3009643554688 C 419.8331298828125 599.8760375976562 422.5796813964844 594.1879272460938 421.63531494140625 587.9542846679688 C 422.98638916015625 585.1720581054688 419.5647277832031 584.881103515625 426.0343322753906 584.5823974609375 C 443.8915100097656 586.6160278320312 459.6656188964844 581.8250122070312 468.32086181640625 588.3090209960938" stroke-width="0.0" fill="rgb(20, 18, 18)" opacity="0.92381036"/>
    <path d="M 460.510986328125 546.7005004882812 C 459.9429931640625 549.8802490234375 457.64691162109375 551.9102783203125 454.3035888671875 552.19775390625 C 451.0176696777344 551.1546630859375 448.5877685546875 548.7427978515625 450.4879150390625 548.442138671875 C 451.3653259277344 544.2368774414062 451.5506591796875 541.5333251953125 453.2842102050781 541.9609985351562 C 456.3907470703125 541.7338256835938 458.7353820800781 543.1989135742188 460.510986328125 546.7005004882812" stroke-width="0.0" fill="rgb(255, 255, 255)" opacity="0.5879298"/>
    <path d="M 349.0821533203125 575.7338256835938 C 348.3610534667969 579.6734008789062 346.79736328125 581.9537353515625 344.0733947753906 582.2711181640625 C 342.09991455078125 581.1351318359375 340.3663635253906 579.0008544921875 339.4626770019531 577.6144409179688 C 340.3334045410156 574.8978881835938 341.3746032714844 571.98828125 343.50616455078125 571.775390625 C 345.9649353027344 573.513916015625 348.8930969238281 574.2811889648438 349.0821533203125 575.7338256835938" stroke-width="0.0" fill="rgb(255, 255, 255)" opacity="0.59920233"/>
    <path d="M 568.6103515625 571.3221435546875 C 568.3301391601562 573.5 566.4993896484375 575.3272705078125 563.6207885742188 576.4340209960938 C 560.9054565429688 576.0725708007812 558.822021484375 574.10791015625 558.720458984375 571.8069458007812 C 559.4808959960938 568.1295776367188 560.628662109375 565.4092407226562 562.7783813476562 566.0209350585938 C 566.095703125 567.26513671875 568.07763671875 568.8671264648438 568.6103515625 571.3221435546875" stroke-width="0.0" fill="rgb(255, 255, 255)" opacity="0.6313228"/>
    <path d="M 278.67388916015625 534.260009765625 C 276.6751708984375 537.1472778320312 275.7335205078125 539.773681640625 272.6586608886719 541.312744140625 C 270.7780456542969 539.1754760742188 268.4693298339844 537.3717651367188 267.718994140625 535.7637939453125 C 268.4981689453125 532.3609008789062 270.65576171875 530.570068359375 273.0894470214844 528.7233276367188 C 275.3382873535156 531.00390625 277.42730712890625 532.6868286132812 278.67388916015625 534.260009765625" stroke-width="0.0" fill="rgb(255, 255, 255)" opacity="0.59792453"/>
    <path d="M 572.1181030273438 573.20751953125 C 572.08349609375 577.0278930664062 569.6278076171875 578.4969482421875 566.6962890625 577.8427124023438 C 564.2889404296875 578.6254272460938 562.5853271484375 576.7277221679688 561.9130859375 573.9782104492188 C 562.6698608398438 571.5 564.5 569.6699829101562 566.6990356445312 569.642578125 C 569.4500122070312 569.9078369140625 572.0588989257812 571.260498046875 572.1181030273438 573.20751953125" stroke-width="0.0" fill="rgb(255, 255, 255)" opacity="0.65196365"/>
    <path d="M 381.1310119628906 38.78158187866211 C 378.2364501953125 38.851200103759766 375.739501953125 40.44513702392578 373.8529968261719 42.60310745239258 C 371.6884460449219 41.2469367980957 369.161376953125 39.43901824951172 368.82818603515625 36.885066986083984 C 368.741455078125 34.38714599609375 371.9677429199219 32.85053253173828 373.4285888671875 32.879905700683594 C 375.97235107421875 33.58406066894531 377.8322448730469 34.974647521972656 381.1310119628906 38.78158187866211" stroke-width="0.0" fill="rgb(255, 255, 255)" opacity="0.5934551"/>
    <path d="M 343.21185302734375 26.83909034729004 C 342.5000305175781 29.38850975036621 340.3676452636719 31.754825592041016 338.50811767578125 32.51999282836914 C 335.26007080078125 31.582120895385742 333.6954040527344 29.6467227935791 332.5751037597656 26.402820587158203 C 332.83428955078125 24.036266326904297 335.0968933105469 22.306819915771484 337.15093994140625 20.442115783691406 C 340.3696594238281 22.834407806396484 342.6010437011719 24.35015869140625 343.21185302734375 26.83909034729004" stroke-width="0.0" fill="rgb(255, 255, 255)" opacity="0.62051046"/>
    <path d="M 323.8177185058594 589.6817626953125 C 317.3779602050781 614.8270263671875 302.5361328125 605.6177368164062 283.1777038574219 602.5708618164062 C 270.06689453125 602.6932373046875 267.94085693359375 601.0330810546875 262.75103759765625 591.8401489257812 C 266.23162841796875 581.7262573242188 271.8656921386719 585.8362426757812 280.04022216796875 584.5450439453125 C 299.50164794921875 585.5289306640625 314.58160400390625 582.5718994140625 323.8177185058594 589.6817626953125" stroke-width="0.0" fill="rgb(27, 25, 25)" opacity="0.9190937"/>
    <path d="M 568.2315673828125 451.2546691894531 C 567.8428955078125 453.35858154296875 565.1920166015625 455.13238525390625 563.0968627929688 456.3774719238281 C 560.5076904296875 455.28277587890625 558.545166015625 453.3735046386719 556.936279296875 450.9195251464844 C 558.3312377929688 448.0748291015625 560.147216796875 446.1135559082031 563.1810913085938 445.9098815917969 C 565.4303588867188 446.245361328125 567.1946411132812 448.5459289550781 568.2315673828125 451.2546691894531" stroke-width="0.0" fill="rgb(255, 255, 255)" opacity="0.65722346"/>
    <path d="M 288.0738830566406 52.90110397338867 C 288.49591064453125 54.55455017089844 286.1958923339844 56.2515869140625 284.06378173828125 58.40364074707031 C 281.6904602050781 56.212894439697266 279.7638244628906 54.403953552246094 279.0459899902344 52.02836227416992 C 279.93121337890625 49.74248504638672 281.9630432128906 47.95167541503906 284.136474609375 45.518775939941406 C 285.8993225097656 47.47946548461914 286.82415771484375 50.200225830078125 288.0738830566406 52.90110397338867" stroke-width="0.0" fill="rgb(255, 255, 255)" opacity="0.64024204"/>
    <path d="M 266.9845886230469 557.9426879882812 C 266.1899108886719 560.5034790039062 264.5796813964844 563.0305786132812 261.95086669921875 563.21826171875 C 259.3030700683594 562.6651000976562 257.2637023925781 560.62939453125 258.15313720703125 558.4942626953125 C 257.3519592285156 555.3079833984375 259.1542053222656 552.7794799804688 262.87481689453125 553.0050659179688 C 264.98931884765625 552.8475341796875 266.4382629394531 555.3117065429688 266.9845886230469 557.9426879882812" stroke-width="0.0" fill="rgb(255, 255, 255)" opacity="0.6350229"/>
    <path d="M 543.9306640625 584.9133911132812 C 529.6624755859375 604.597412109375 521.4420776367188 596.3877563476562 507.8146057128906 598.5604858398438 C 502.1791076660156 598.5505981445312 498.5090637207031 600.270263671875 493.0770568847656 590.11328125 C 495.30145263671875 584.4498901367188 500.0702209472656 586.5491333007812 510.7878723144531 584.4869995117188 C 524.6824340820312 586.1171264648438 534.4904174804688 583.733642578125 543.9306640625 584.9133911132812" stroke-width="0.0" fill="rgb(9, 9, 9)" opacity="0.9796159"/>
    <path d="M 115.31121063232422 555.9324340820312 C 114.62619018554688 557.4349975585938 112.44189453125 559.147216796875 109.76448059082031 560.2770385742188 C 107.64567565917969 559.7958374023438 106.10343933105469 557.2643432617188 103.24711608886719 555.0908203125 C 106.0361099243164 552.7327270507812 107.6264877319336 550.2228393554688 109.6456527709961 549.8916625976562 C 112.62889862060547 549.9376831054688 113.93587493896484 552.494384765625 115.31121063232422 555.9324340820312" stroke-width="0.0" fill="rgb(255, 255, 255)" opacity="0.59698176"/>
    <path d="M 561.7479248046875 447.19384765625 C 559.9466552734375 450.34820556640625 558.5180053710938 452.7938537597656 555.428466796875 451.9528503417969 C 552.3966674804688 451.8552551269531 550.53125 449.48284912109375 551.0239868164062 446.796875 C 551.1109619140625 445.01910400390625 552.3660278320312 442.5600891113281 554.9037475585938 440.6151428222656 C 557.3192749023438 442.6619567871094 559.3816528320312 444.7965393066406 561.7479248046875 447.19384765625" stroke-width="0.0" fill="rgb(255, 255, 255)" opacity="0.6148599"/>
    <path d="M 517.0774536132812 539.220458984375 C 516.4801025390625 541.46240234375 514.5120849609375 543.788330078125 511.9899597167969 544.201171875 C 509.3743896484375 543.452880859375 507.0666198730469 541.51025390625 507.9515380859375 539.2316284179688 C 507.5727233886719 536.3471069335938 509.23919677734375 534.189208984375 512.2960815429688 533.8720092773438 C 515.2205200195312 533.7481079101562 517.41796875 535.8458862304688 517.0774536132812 539.220458984375" stroke-width="0.0" fill="rgb(255, 255, 255)" opacity="0.6004585"/>
    <path d="M 329.26068115234375 557.4556274414062 C 328.5641784667969 559.2626342773438 326.4134826660156 561.6199340820312 323.8451843261719 562.0430297851562 C 321.5238952636719 561.733642578125 319.7651062011719 559.272216796875 318.03369140625 557.4125366210938 C 319.6659240722656 554.4771728515625 321.4342956542969 552.440185546875 324.05157470703125 550.6519775390625 C 326.8207702636719 552.3180541992188 328.8406982421875 554.2643432617188 329.26068115234375 557.4556274414062" stroke-width="0.0" fill="rgb(255, 255, 255)" opacity="0.63413644"/>
    <path d="M 33.0558967590332 342.4071960449219 C 32.66646957397461 345.541748046875 30.5728759765625 347.6913146972656 28.259902954101562 348.1000671386719 C 25.529348373413086 347.1197204589844 23.53373908996582 345.38372802734375 21.602628707885742 342.6929931640625 C 23.96271324157715 341.0025329589844 25.739185333251953 338.48529052734375 27.43796730041504 337.73297119140625 C 31.080421447753906 338.0750427246094 33.310062408447266 339.90057373046875 33.0558967590332 342.4071960449219" stroke-width="0.0" fill="rgb(255, 255, 255)" opacity="0.59779644"/>
    <path d="M 539.0402221679688 518.1199340820312 C 537.95361328125 520.4359741210938 536.8809204101562 523.2174072265625 534.4246215820312 524.829345703125 C 531.6671142578125 522.0692138671875 529.40283203125 520.7383422851562 528.9647827148438 517.3340454101562 C 529.1520385742188 515.3023071289062 531.5066528320312 513.9395751953125 534.8114013671875 512.7481689453125 C 536.1981201171875 513.4353637695312 538.573974609375 515.4986572265625 539.0402221679688 518.1199340820312" stroke-width="0.0" fill="rgb(255, 255, 255)" opacity="0.5909057"/>
    <path d="M 603.421142578125 259.3977355957031 C 607.479736328125 270.98223876953125 620.8814697265625 291.8409118652344 593.7872924804688 304.6115417480469 C 591.46533203125 289.7519226074219 593.2050170898438 272.35888671875 592.4277954101562 258.2024841308594 C 592.6358642578125 245.4879150390625 592.5313110351562 229.82774353027344 593.3412475585938 224.03317260742188 C 614.9573974609375 234.43296813964844 606.1871337890625 249.2715301513672 603.421142578125 259.3977355957031" stroke-width="0.0" fill="rgb(4, 4, 4)" opacity="1.0"/>
    <path d="M 342.0174255371094 50.70616149902344 C 341.3006591796875 53.48941421508789 339.4986877441406 55.329620361328125 336.97650146484375 56.02484130859375 C 334.6060791015625 55.3110237121582 333.2960205078125 53.077613830566406 331.8968200683594 50.79159927368164 C 332.5917663574219 48.6115837097168 334.6134033203125 46.34470748901367 336.6762390136719 45.79645919799805 C 339.39093017578125 46.70625305175781 341.65716552734375 48.66160583496094 342.0174255371094 50.70616149902344" stroke-width="0.0" fill="rgb(255, 255, 255)" opacity="0.6521301"/>
    <path d="M 360.2958068847656 574.2735595703125 C 359.4217224121094 575.3235473632812 357.41534423828125 577.653564453125 355.18603515625 578.3892822265625 C 352.5411682128906 577.8538208007812 350.4433288574219 575.2846069335938 349.87054443359375 573.3008422851562 C 350.4321594238281 570.4829711914062 352.43798828125 568.2022705078125 356.0051574707031 567.8065185546875 C 357.4000549316406 568.0088500976562 358.392333984375 570.99755859375 360.2958068847656 574.2735595703125" stroke-width="0.0" fill="rgb(255, 255, 255)" opacity="0.5990884"/>
    <path d="M 469.3073425292969 50.888668060302734 C 468.77056884765625 52.36954116821289 465.99395751953125 53.94321823120117 464.46051025390625 56.20964813232422 C 460.67041015625 55.47113800048828 458.43634033203125 53.67776870727539 458.8425598144531 52.0716438293457 C 460.6637878417969 48.466064453125 461.66107177734375 45.673004150390625 464.74444580078125 44.751102447509766 C 466.41766357421875 45.067142486572266 467.9020690917969 47.854766845703125 469.3073425292969 50.888668060302734" stroke-width="0.0" fill="rgb(255, 255, 255)" opacity="0.58965224"/>
    <path d="M 42.91685485839844 60.75079345703125 C 42.928260803222656 63.51914596557617 40.14727020263672 64.98456573486328 38.087127685546875 67.45506286621094 C 35.68030548095703 65.41850280761719 33.23570251464844 63.42060470581055 32.65298080444336 61.423828125 C 33.85963821411133 58.58110427856445 35.60953903198242 56.595001220703125 38.018314361572266 54.71903610229492 C 41.05097961425781 55.98574447631836 43.34107971191406 57.891204833984375 42.91685485839844 60.75079345703125" stroke-width="0.0" fill="rgb(255, 255, 255)" opacity="0.59440017"/>
    <path d="M 431.53631591796875 29.876502990722656 C 428.69891357421875 32.81549072265625 426.9683532714844 34.6446533203125 425.1689453125 36.417667388916016 C 422.4964904785156 35.522037506103516 420.4023742675781 33.53757858276367 418.6761474609375 30.679611206054688 C 419.96343994140625 28.11957550048828 422.037841796875 26.154077529907227 425.8822326660156 24.82156753540039 C 427.6510009765625 25.83016586303711 429.5911560058594 28.300127029418945 431.53631591796875 29.876502990722656" stroke-width="0.0" fill="rgb(255, 255, 255)" opacity="0.5889175"/>
    <path d="M 575.1807250976562 75.80389404296875 C 575.0628051757812 77.44698333740234 572.0015869140625 78.363525390625 568.7862548828125 80.4312744140625 C 567.9396362304688 79.32821655273438 565.5089111328125 76.89469146728516 564.7040405273438 76.23197937011719 C 565.711669921875 72.4876937866211 567.269775390625 70.03263092041016 569.9710083007812 69.84972381591797 C 572.6173706054688 69.98956298828125 574.3234252929688 72.49919891357422 575.1807250976562 75.80389404296875" stroke-width="0.0" fill="rgb(255, 255, 255)" opacity="0.59867346"/>
    <path d="M 301.3525390625 539.7178344726562 C 299.62347412109375 542.888427734375 297.35443115234375 544.0587768554688 293.81353759765625 545.1719360351562 C 291.9548645019531 545.416748046875 289.84124755859375 542.9609985351562 289.684814453125 540.0755615234375 C 289.84600830078125 537.2606201171875 292.5148010253906 535.948974609375 295.3050537109375 534.8482666015625 C 297.4789733886719 535.4940185546875 299.138427734375 537.7540283203125 301.3525390625 539.7178344726562" stroke-width="0.0" fill="rgb(255, 255, 255)" opacity="0.6136049"/>
    <path d="M 300.269287109375 56.84212112426758 C 300.2789611816406 59.80904769897461 297.4685974121094 60.92271423339844 294.4315490722656 62.19780731201172 C 292.635986328125 61.40740966796875 290.19793701171875 59.33926010131836 289.596923828125 57.43465805053711 C 290.7005310058594 54.61199188232422 292.5324401855469 52.28414535522461 294.4035339355469 51.76411437988281 C 297.3847961425781 53.2579231262207 299.9728698730469 54.39130783081055 300.269287109375 56.84212112426758" stroke-width="0.0" fill="rgb(255, 255, 255)" opacity="0.596525"/>
    <path d="M 21.04592514038086 8.18102741241455 C 20.54108238220215 14.466041564941406 18.39555549621582 16.251678466796875 16.04271697998047 16.87131118774414 C 13.887739181518555 15.987478256225586 12.080484390258789 15.096238136291504 0.6540102958679199 15.339476585388184 C 2.0932793617248535 -1.3028812408447266 1.893890619277954 -5.539572238922119 13.37519645690918 -4.018864631652832 C 23.30730628967285 1.0611727237701416 25.74350929260254 3.6851024627685547 21.04592514038086 8.18102741241455" stroke-width="0.0" fill="rgb(172, 171, 171)" opacity="1.0"/>
    <path d="M 450.24554443359375 1.461579442024231 C 445.2878112792969 16.263259887695312 430.37982177734375 4.94666051864624 406.8798522949219 9.290118217468262 C 379.447021484375 5.2872185707092285 364.69573974609375 14.401530265808105 359.7145690917969 1.6630113124847412 C 390.0024108886719 -13.65276050567627 401.13934326171875 -5.5452728271484375 405.0231628417969 -5.126109600067139 C 409.20904541015625 -5.772524356842041 420.6881103515625 -13.926669120788574 450.24554443359375 1.461579442024231" stroke-width="0.0" fill="rgb(6, 5, 6)" opacity="1.0"/>
    <path d="M 323.5097351074219 551.7324829101562 C 322.3733825683594 554.5679321289062 320.74468994140625 556.7467651367188 317.6126403808594 558.5035400390625 C 315.00384521484375 557.222412109375 313.1064147949219 554.987060546875 311.7088317871094 551.8552856445312 C 313.29766845703125 549.6431274414062 315.8597106933594 548.3485717773438 319.49554443359375 546.76708984375 C 320.9394836425781 546.7794189453125 322.80548095703125 549.1290283203125 323.5097351074219 551.7324829101562" stroke-width="0.0" fill="rgb(255, 255, 255)" opacity="0.6108399"/>
    <path d="M 55.39202117919922 423.978271484375 C 54.46332550048828 426.5662536621094 52.41288757324219 428.36480712890625 49.906944274902344 430.4442138671875 C 47.75468063354492 428.3482666015625 45.72142028808594 426.3664855957031 43.424720764160156 424.0020446777344 C 45.72490310668945 421.884765625 47.65431594848633 419.4894714355469 49.027313232421875 418.8592834472656 C 52.618927001953125 419.10992431640625 54.52720642089844 421.4964904785156 55.39202117919922 423.978271484375" stroke-width="0.0" fill="rgb(255, 255, 255)" opacity="0.5949496"/>
    <path d="M 74.29264068603516 27.96526336669922 C 71.98945617675781 30.270702362060547 70.3603286743164 32.711692810058594 68.69005584716797 33.313472747802734 C 65.7784652709961 31.03205680847168 62.808433532714844 30.584470748901367 62.889713287353516 28.98847198486328 C 63.2802848815918 25.352632522583008 65.4143295288086 23.638832092285156 68.20321655273438 22.677352905273438 C 70.55231475830078 23.42049789428711 72.11538696289062 25.824661254882812 74.29264068603516 27.96526336669922" stroke-width="0.0" fill="rgb(255, 255, 255)" opacity="0.6366938"/>
    <path d="M 132.41342163085938 584.557373046875 C 133.82369995117188 602.1376342773438 131.65878295898438 605.5265502929688 116.81185913085938 606.1864624023438 C 86.88778686523438 606.97265625 85.6917724609375 600.4263305664062 88.92111206054688 588.7606201171875 C 106.6088638305664 585.2190551757812 109.14248657226562 582.8660888671875 108.28360748291016 580.5726928710938 C 106.32572937011719 582.0894165039062 107.69142150878906 585.3732299804688 132.41342163085938 584.557373046875" stroke-width="0.0" fill="rgb(133, 133, 134)" opacity="1.0"/>
    <path d="M 23.079532623291016 18.94137191772461 C 22.329788208007812 21.499561309814453 20.491151809692383 23.323030471801758 17.288686752319336 24.04698944091797 C 15.171529769897461 24.635746002197266 13.56043529510498 21.775819778442383 10.641597747802734 19.22183609008789 C 13.107187271118164 16.361711502075195 15.357815742492676 14.604172706604004 18.01679229736328 13.894063949584961 C 20.60795783996582 14.580126762390137 22.462703704833984 16.40645980834961 23.079532623291016 18.94137191772461" stroke-width="0.0" fill="rgb(255, 255, 255)" opacity="0.6655599"/>
    <path d="M 82.98568725585938 14.046015739440918 C 82.26510620117188 16.419998168945312 80.59326934814453 18.954309463500977 77.90802001953125 19.13601303100586 C 76.06109619140625 18.173316955566406 74.4966049194336 16.060283660888672 73.85433197021484 14.22409439086914 C 73.61048889160156 11.192626953125 74.96257781982422 8.829767227172852 78.03229522705078 9.43763542175293 C 81.32810974121094 8.715380668640137 83.51429748535156 10.57587718963623 82.98568725585938 14.046015739440918" stroke-width="0.0" fill="rgb(255, 255, 255)" opacity="0.6076016"/>
    <path d="M 127.27513885498047 544.5050048828125 C 126.43280029296875 547.54296875 124.53016662597656 549.3427124023438 122.24762725830078 549.6859130859375 C 120.17779541015625 548.417236328125 117.97234344482422 546.79052734375 116.573974609375 546.382080078125 C 118.18737030029297 542.7276611328125 119.36851501464844 539.8231201171875 122.12483215332031 540.0565185546875 C 124.37781524658203 540.2431030273438 126.60810852050781 542.5240478515625 127.27513885498047 544.5050048828125" stroke-width="0.0" fill="rgb(255, 255, 255)" opacity="0.63767797"/>
    <path d="M 369.321533203125 16.006296157836914 C 367.4910888671875 18.35821533203125 365.1370849609375 20.003612518310547 363.4208679199219 22.281320571899414 C 361.2134094238281 19.517045974731445 359.1520690917969 17.825016021728516 357.67022705078125 16.222286224365234 C 358.7818298339844 13.622659683227539 360.6025085449219 11.175703048706055 362.6754150390625 10.711775779724121 C 365.1987609863281 11.859090805053711 367.5008544921875 13.429776191711426 369.321533203125 16.006296157836914" stroke-width="0.0" fill="rgb(255, 255, 255)" opacity="0.598595"/>
    <path d="M 532.4107055664062 565.9918212890625 C 529.3048706054688 569.3711547851562 527.3643798828125 570.8883056640625 524.5008544921875 572.369384765625 C 522.6339111328125 571.4445190429688 520.2201538085938 569.3267822265625 519.8529052734375 567.0504150390625 C 520.50830078125 564.6260375976562 522.626220703125 562.2460327148438 524.4190063476562 561.8635864257812 C 528.3634033203125 561.5554809570312 530.4266967773438 563.4454345703125 532.4107055664062 565.9918212890625" stroke-width="0.0" fill="rgb(255, 255, 255)" opacity="0.5897808"/>
    <path d="M 565.099365234375 457.2491149902344 C 565.539306640625 460.0972900390625 562.65673828125 461.44305419921875 560.4702758789062 464.2105407714844 C 557.8265991210938 461.0678405761719 555.5280151367188 459.150634765625 553.614013671875 457.1094970703125 C 555.4546508789062 454.5767517089844 557.5966186523438 452.8147277832031 560.0573120117188 451.98553466796875 C 562.7508544921875 452.56475830078125 565.2285766601562 454.1230163574219 565.099365234375 457.2491149902344" stroke-width="0.0" fill="rgb(255, 255, 255)" opacity="0.6232989"/>
    <path d="M 539.936279296875 547.2544555664062 C 539.7349853515625 549.3600463867188 537.4785766601562 551.5071411132812 535.3596801757812 552.2398071289062 C 532.617919921875 551.64990234375 530.3507080078125 549.4251098632812 529.854736328125 547.3525390625 C 530.3119506835938 544.5834350585938 532.5545654296875 542.1748046875 535.3621215820312 541.7530517578125 C 537.4703979492188 542.3102416992188 539.8304443359375 544.6115112304688 539.936279296875 547.2544555664062" stroke-width="0.0" fill="rgb(255, 255, 255)" opacity="0.60001147"/>
    <path d="M 572.26611328125 387.9048767089844 C 571.3297729492188 390.499267578125 569.4986572265625 392.3278503417969 566.9898071289062 393.0008850097656 C 564.3612670898438 392.3822326660156 562.0235595703125 390.7221984863281 561.8773193359375 388.1869201660156 C 562.2365112304688 385.0792236328125 564.3129272460938 383.214599609375 567.813232421875 384.0562744140625 C 569.5647583007812 383.2165222167969 571.3384399414062 385.4198913574219 572.26611328125 387.9048767089844" stroke-width="0.0" fill="rgb(253, 255, 255)" opacity="0.69387305"/>
    <path d="M 32.95417404174805 275.95770263671875 C 32.012577056884766 278.0533447265625 29.82269287109375 279.4704284667969 28.335317611694336 281.3680114746094 C 25.449838638305664 280.43524169921875 23.2421817779541 278.5095520019531 22.923568725585938 276.22918701171875 C 22.980182647705078 273.3728942871094 25.68214225769043 272.0929870605469 28.06511116027832 270.8291015625 C 29.939136505126953 272.4652099609375 32.13932418823242 273.79833984375 32.95417404174805 275.95770263671875" stroke-width="0.0" fill="rgb(254, 255, 255)" opacity="0.6361434"/>
    <path d="M 36.317623138427734 420.0467834472656 C 34.313201904296875 422.3247375488281 32.13521194458008 424.1709289550781 30.19824981689453 426.3902893066406 C 27.45097541809082 424.529541015625 25.616037368774414 422.56488037109375 24.715322494506836 418.70654296875 C 25.775634765625 417.6727600097656 27.896686553955078 415.53167724609375 28.85584831237793 414.757080078125 C 32.14143753051758 416.72247314453125 34.68769454956055 417.5317687988281 36.317623138427734 420.0467834472656" stroke-width="0.0" fill="rgb(255, 255, 255)" opacity="0.5950498"/>
    <path d="M 8.515689849853516 272.8862609863281 C 6.772268295288086 282.7984619140625 5.691592693328857 284.3118591308594 1.8891021013259888 284.2686767578125 C -0.7001996636390686 282.64990234375 -2.376500368118286 280.571044921875 -3.2279305458068848 277.6138000488281 C -5.404036521911621 270.6003723144531 -17.946884155273438 251.6265106201172 3.4717631340026855 232.0736083984375 C 13.660192489624023 241.48028564453125 4.408555030822754 258.6512451171875 8.515689849853516 272.8862609863281" stroke-width="0.0" fill="rgb(10, 9, 9)" opacity="1.0"/>
    <path d="M 345.0879821777344 17.966686248779297 C 344.4488220214844 19.434383392333984 342.57110595703125 21.64476776123047 339.4535827636719 22.436769485473633 C 337.4053955078125 21.858564376831055 336.5767517089844 19.477825164794922 337.27008056640625 17.071163177490234 C 336.2142333984375 15.239176750183105 338.3046569824219 13.863916397094727 341.65093994140625 11.890719413757324 C 343.32635498046875 11.296719551086426 344.1013488769531 14.305158615112305 345.0879821777344 17.966686248779297" stroke-width="0.0" fill="rgb(255, 255, 255)" opacity="0.61017615"/>
    <path d="M 34.17148208618164 576.8410034179688 C 33.761146545410156 578.5166015625 31.036712646484375 579.9937744140625 29.43320083618164 582.2188110351562 C 27.516799926757812 579.0414428710938 24.89049530029297 577.8347778320312 21.858121871948242 575.6228637695312 C 24.61797332763672 573.3063354492188 25.81365394592285 570.548583984375 29.95712661743164 570.7984008789062 C 31.430694580078125 571.3073120117188 33.405250549316406 573.6204223632812 34.17148208618164 576.8410034179688" stroke-width="0.0" fill="rgb(255, 255, 255)" opacity="0.5883667"/>
    <path d="M 130.01319885253906 525.6446533203125 C 130.64349365234375 527.5304565429688 129.47134399414062 529.9920654296875 127.94420623779297 530.1605224609375 C 124.46318817138672 529.3969116210938 122.3048095703125 527.7443237304688 121.41222381591797 525.0673828125 C 122.68093872070312 522.608642578125 124.74293518066406 520.607421875 127.19560241699219 518.6412353515625 C 128.95326232910156 520.9141845703125 130.6117401123047 523.364990234375 130.01319885253906 525.6446533203125" stroke-width="0.0" fill="rgb(255, 255, 255)" opacity="0.61427695"/>
    <path d="M 7.508842945098877 67.80144500732422 C 6.255858421325684 74.37894439697266 8.69266414642334 89.50299835205078 6.616605758666992 91.24710083007812 C -10.696449279785156 90.415283203125 -7.483107089996338 82.83622741699219 -4.518673896789551 70.9829330444336 C -4.995168209075928 62.264076232910156 -4.356541633605957 58.782920837402344 4.371997833251953 56.50562286376953 C 7.767331123352051 59.29275894165039 5.852808475494385 66.92335510253906 7.508842945098877 67.80144500732422" stroke-width="0.0" fill="rgb(1, 0, 1)" opacity="1.0"/>
    <path d="M 290.88348388671875 533.895263671875 C 288.0466003417969 536.1277465820312 286.38201904296875 538.4423217773438 284.22186279296875 540.4927368164062 C 281.6027526855469 538.2093505859375 279.5885009765625 536.0941162109375 278.2919921875 534.7947387695312 C 279.82379150390625 531.7797241210938 282.0531005859375 530.612060546875 284.8111877441406 529.7267456054688 C 286.29730224609375 529.4561767578125 288.5162353515625 531.4740600585938 290.88348388671875 533.895263671875" stroke-width="0.0" fill="rgb(255, 255, 255)" opacity="0.60906756"/>
    <path d="M 76.19232177734375 458.56707763671875 C 75.84345245361328 460.5148620605469 73.27432250976562 461.9927062988281 70.85984802246094 464.6302490234375 C 68.85002899169922 462.16021728515625 66.05524444580078 460.5124816894531 65.84593963623047 458.59820556640625 C 66.73177337646484 455.4683532714844 68.40514373779297 453.26593017578125 71.72774505615234 452.5293273925781 C 73.43368530273438 453.291015625 75.26408386230469 455.65478515625 76.19232177734375 458.56707763671875" stroke-width="0.0" fill="rgb(255, 255, 255)" opacity="0.5988702"/>
    <path d="M 580.0331420898438 341.96514892578125 C 579.4005126953125 343.23333740234375 577.1068725585938 345.0067443847656 575.0586547851562 347.3688049316406 C 572.730712890625 345.3754577636719 570.8020629882812 343.5107727050781 569.7554931640625 341.30877685546875 C 570.771728515625 338.5465087890625 572.3699951171875 336.26214599609375 574.7194213867188 335.9497375488281 C 577.78271484375 335.7671813964844 578.9805297851562 338.5126037597656 580.0331420898438 341.96514892578125" stroke-width="0.0" fill="rgb(255, 255, 255)" opacity="0.5954757"/>
    <path d="M 106.3665771484375 584.9931640625 C 103.48867797851562 613.1962280273438 93.59486389160156 610.7479858398438 61.524444580078125 610.2720947265625 C 32.038726806640625 611.3875122070312 21.643619537353516 615.7685546875 19.72393226623535 584.8779907226562 C 61.48344421386719 584.5541381835938 65.95976257324219 584.882080078125 67.4439697265625 584.8104248046875 C 61.313724517822266 586.3956909179688 64.7599105834961 583.7120361328125 106.3665771484375 584.9931640625" stroke-width="0.0" fill="rgb(26, 25, 24)" opacity="0.9792015"/>
    <path d="M 316.78973388671875 519.0901489257812 C 317.2803649902344 521.2908935546875 314.9311218261719 522.400146484375 312.0282287597656 524.2220458984375 C 310.5779113769531 523.6318359375 308.60784912109375 521.5552978515625 307.7431945800781 518.9052124023438 C 309.7154846191406 516.96728515625 310.5085144042969 513.826171875 312.1585693359375 513.970947265625 C 315.7683410644531 514.08642578125 317.419921875 516.5106201171875 316.78973388671875 519.0901489257812" stroke-width="0.0" fill="rgb(255, 255, 255)" opacity="0.60353047"/>
    <path d="M 65.2087631225586 391.648681640625 C 65.13367462158203 394.13702392578125 63.153709411621094 396.3916320800781 59.7268180847168 395.9349365234375 C 57.567588806152344 395.4552307128906 55.41192626953125 393.400634765625 54.84784698486328 391.1187744140625 C 55.60215759277344 388.50799560546875 57.513614654541016 386.208984375 59.654747009277344 385.7937927246094 C 62.62162399291992 386.5085144042969 64.64761352539062 388.2922058105469 65.2087631225586 391.648681640625" stroke-width="0.0" fill="rgb(255, 255, 255)" opacity="0.59944034"/>
    <path d="M 603.46337890625 366.9048767089844 C 604.3030395507812 372.74176025390625 606.4209594726562 379.71929931640625 598.4230346679688 384.7940979003906 C 592.0037841796875 380.7229919433594 593.4578247070312 375.1679382324219 592.53076171875 366.3225402832031 C 593.1043701171875 356.352294921875 591.0551147460938 343.7918701171875 596.44140625 330.55047607421875 C 611.5240478515625 348.580810546875 605.2744750976562 360.01904296875 603.46337890625 366.9048767089844" stroke-width="0.0" fill="rgb(0, 0, 0)" opacity="0.92730933"/>
    <path d="M 603.3389892578125 524.0768432617188 C 607.2277221679688 535.6287841796875 621.341552734375 557.1705322265625 593.5587768554688 569.9879150390625 C 591.751953125 554.0353393554688 592.9683227539062 536.2050170898438 592.52294921875 525.093505859375 C 593.450439453125 511.5462951660156 591.3709106445312 494.7989196777344 593.5933837890625 479.1187744140625 C 620.3615112304688 491.81866455078125 606.96923828125 512.7613525390625 603.3389892578125 524.0768432617188" stroke-width="0.0" fill="rgb(3, 3, 3)" opacity="0.9949439"/>
    <path d="M 314.65460205078125 8.37534236907959 C 276.3424377441406 8.622325897216797 265.9223937988281 8.093698501586914 269.2939453125 9.045294761657715 C 272.13665771484375 8.098713874816895 261.3824157714844 8.89699649810791 223.37356567382812 8.342315673828125 C 228.884765625 -21.247900009155273 244.97474670410156 -12.183154106140137 268.91925048828125 -9.948455810546875 C 293.3188781738281 -12.343249320983887 309.3628845214844 -21.255950927734375 314.65460205078125 8.37534236907959" stroke-width="0.0" fill="rgb(1, 1, 1)" opacity="1.0"/>
    <path d="M 20.990100860595703 12.51597785949707 C 19.834291458129883 15.088854789733887 18.104652404785156 17.027488708496094 15.839743614196777 18.032045364379883 C 13.315637588500977 17.52886390686035 10.862471580505371 15.967934608459473 7.473413944244385 11.170271873474121 C 9.394510269165039 8.223834991455078 12.955992698669434 7.906105041503906 16.10820198059082 8.653746604919434 C 18.955745697021484 7.860928058624268 21.45610809326172 8.969640731811523 20.990100860595703 12.51597785949707" stroke-width="0.0" fill="rgb(255, 255, 255)" opacity="0.9436583"/>
    <path d="M 568.1759033203125 38.442970275878906 C 565.9533081054688 40.70671081542969 563.4850463867188 41.704471588134766 559.81201171875 43.16117477416992 C 558.2288208007812 43.10246276855469 556.0599365234375 40.87705993652344 554.8038940429688 38.819461822509766 C 556.134521484375 34.93724822998047 557.89990234375 32.5253791809082 561.116943359375 32.831050872802734 C 563.608154296875 33.05667495727539 564.9207153320312 35.84654998779297 568.1759033203125 38.442970275878906" stroke-width="0.0" fill="rgb(255, 255, 255)" opacity="0.58803034"/>
    <path d="M 132.16175842285156 30.167593002319336 C 130.6575927734375 31.927061080932617 128.9853973388672 34.02874755859375 125.90438842773438 35.37259292602539 C 124.95183563232422 34.24099349975586 122.42115020751953 32.22267532348633 121.53553771972656 30.832014083862305 C 122.4207992553711 27.552295684814453 124.37354278564453 25.265010833740234 126.94279479980469 24.57836151123047 C 129.39834594726562 25.52907943725586 131.8294219970703 27.535083770751953 132.16175842285156 30.167593002319336" stroke-width="0.0" fill="rgb(255, 255, 255)" opacity="0.5991738"/>
    <path d="M 497.1224670410156 539.3790893554688 C 497.6131286621094 542.7186889648438 495.68817138671875 544.737548828125 492.87420654296875 545.0723876953125 C 489.17041015625 543.501953125 486.565185546875 542.0086669921875 485.8927307128906 539.8887939453125 C 486.7211608886719 535.7931518554688 488.8507385253906 533.9166259765625 492.1775207519531 533.7616577148438 C 494.34564208984375 534.9675903320312 497.5220642089844 536.56787109375 497.1224670410156 539.3790893554688" stroke-width="0.0" fill="rgb(255, 255, 255)" opacity="0.58891803"/>
    <path d="M 8.71579360961914 294.0614929199219 C 4.8877058029174805 307.69305419921875 13.147212028503418 324.8204345703125 3.772528648376465 334.8922424316406 C -18.48303985595703 316.8143615722656 -5.779965400695801 297.7596740722656 -2.5840680599212646 289.7671813964844 C -1.467613697052002 286.3230285644531 0.1941804736852646 284.246337890625 2.961873769760132 283.1318359375 C 6.368408679962158 282.65863037109375 6.700416564941406 283.58544921875 8.71579360961914 294.0614929199219" stroke-width="0.0" fill="rgb(9, 9, 9)" opacity="1.0"/>
    <path d="M 22.4470272064209 281.431640625 C 21.87183952331543 283.54931640625 19.44672203063965 284.8207092285156 16.42854118347168 285.62115478515625 C 14.571105003356934 285.5776672363281 12.514970779418945 283.5057067871094 10.668334007263184 280.7511901855469 C 12.589634895324707 278.6629638671875 14.753716468811035 276.9768371582031 17.707130432128906 275.7879638671875 C 19.5316104888916 276.4388732910156 21.1181697845459 278.6219787597656 22.4470272064209 281.431640625" stroke-width="0.0" fill="rgb(254, 255, 255)" opacity="0.60589516"/>
    <path d="M 292.2970275878906 564.2139892578125 C 291.9064636230469 567.7156982421875 289.59466552734375 569.680908203125 286.7643737792969 570.1929321289062 C 285.1496276855469 569.0918579101562 283.5752258300781 566.7099609375 280.38238525390625 564.0479736328125 C 282.03497314453125 562.19921875 284.7586975097656 560.9993896484375 288.3136291503906 559.89111328125 C 289.0342712402344 560.90185546875 291.76080322265625 562.5789794921875 292.2970275878906 564.2139892578125" stroke-width="0.0" fill="rgb(255, 255, 255)" opacity="0.59630376"/>
    <path d="M 567.5318603515625 596.0098876953125 C 535.7406616210938 608.8143310546875 528.2981567382812 604.1275024414062 525.0316772460938 604.0526733398438 C 522.2660522460938 603.513671875 518.8712158203125 602.878173828125 517.778564453125 601.9613647460938 C 529.1676635742188 600.6721801757812 530.486572265625 596.5298461914062 538.2163696289062 585.2286987304688 C 555.3649291992188 586.318603515625 564.9625854492188 576.0287475585938 567.5318603515625 596.0098876953125" stroke-width="0.0" fill="rgb(58, 53, 49)" opacity="1.0"/>
    <path d="M 286.9212951660156 52.04841995239258 C 286.3227233886719 54.48739242553711 284.4212646484375 56.18964385986328 281.0040283203125 57.224342346191406 C 279.5853271484375 56.68947982788086 277.8298034667969 54.376747131347656 276.9249572753906 51.82464599609375 C 277.0432434082031 49.4736442565918 279.61956787109375 48.065216064453125 281.9446716308594 46.8980827331543 C 284.4580383300781 47.66581344604492 286.22784423828125 49.5611457824707 286.9212951660156 52.04841995239258" stroke-width="0.0" fill="rgb(254, 254, 255)" opacity="0.6727552"/>
    <path d="M 82.10889434814453 3.6387720108032227 C 75.1120834350586 14.399971961975098 60.33356475830078 5.684619426727295 43.73286819458008 9.083465576171875 C 19.018814086914062 5.433071613311768 2.235974073410034 13.074847221374512 -8.03066635131836 10.960585594177246 C 4.9824981689453125 -19.36053466796875 24.204509735107422 -7.306643486022949 35.405696868896484 -3.301882743835449 C 43.998538970947266 -5.349121570587158 60.839576721191406 -16.80290985107422 82.10889434814453 3.6387720108032227" stroke-width="0.0" fill="rgb(9, 9, 9)" opacity="0.9981703"/>
    <path d="M 153.17816162109375 571.0128784179688 C 152.77540588378906 573.4832153320312 150.4971923828125 575.1787109375 147.7281951904297 577.0933837890625 C 145.83595275878906 575.0663452148438 142.96946716308594 573.65478515625 142.48439025878906 570.8566284179688 C 143.24151611328125 568.6349487304688 145.68905639648438 566.4599609375 148.02130126953125 565.9752197265625 C 150.54881286621094 566.1993408203125 152.3999786376953 568.4898681640625 153.17816162109375 571.0128784179688" stroke-width="0.0" fill="rgb(255, 255, 255)" opacity="0.59688044"/>
    <path d="M 71.9957046508789 320.42462158203125 C 71.70247650146484 323.6151428222656 69.68718719482422 325.5915222167969 66.23711395263672 326.1668395996094 C 64.75486755371094 325.6416931152344 62.54213333129883 323.2513122558594 61.61048126220703 321.34033203125 C 63.10573196411133 318.8542175292969 64.65096282958984 316.3403015136719 66.11209869384766 315.6549072265625 C 69.57599639892578 316.3289489746094 71.60327911376953 318.6253967285156 71.9957046508789 320.42462158203125" stroke-width="0.0" fill="rgb(255, 255, 255)" opacity="0.59359723"/>
    <path d="M 69.8388671875 24.411333084106445 C 70.3165054321289 26.478437423706055 68.4949951171875 28.328062057495117 66.10053253173828 28.883235931396484 C 63.68819046020508 28.028833389282227 61.483856201171875 26.237350463867188 60.7199592590332 25.03251075744629 C 61.938438415527344 21.60224151611328 63.40568923950195 18.94767189025879 65.91905212402344 18.86068344116211 C 68.71257019042969 18.727275848388672 69.81806945800781 21.503705978393555 69.8388671875 24.411333084106445" stroke-width="0.0" fill="rgb(254, 255, 255)" opacity="0.6457208"/>
    <path d="M 101.12220001220703 41.02967071533203 C 101.15764617919922 44.14494705200195 98.87387084960938 45.68443298339844 95.84659576416016 48.33308792114258 C 93.11308288574219 45.794403076171875 91.01786804199219 43.54497146606445 88.4111557006836 40.79218673706055 C 91.57978057861328 38.435401916503906 93.80962371826172 36.94445037841797 96.90141296386719 35.61832046508789 C 98.21995544433594 36.239341735839844 100.41551971435547 38.67963409423828 101.12220001220703 41.02967071533203" stroke-width="0.0" fill="rgb(255, 255, 255)" opacity="0.5896537"/>
    <path d="M 558.99951171875 315.5312805175781 C 558.0857543945312 318.2982482910156 556.4713745117188 320.73199462890625 554.2693481445312 321.2142028808594 C 551.4193725585938 320.8380432128906 549.9835815429688 318.2842712402344 547.63134765625 316.18902587890625 C 549.2490844726562 313.4873046875 551.5429077148438 311.9776306152344 554.4929809570312 310.51556396484375 C 556.3822021484375 311.4624328613281 558.4716796875 313.7039794921875 558.99951171875 315.5312805175781" stroke-width="0.0" fill="rgb(255, 255, 255)" opacity="0.59391415"/>
    <path d="M 332.6671142578125 568.7698974609375 C 331.7165832519531 571.3215942382812 330.65191650390625 574.414306640625 327.947998046875 574.2996826171875 C 325.46112060546875 573.7305908203125 323.80926513671875 571.1817016601562 321.4436340332031 568.8698120117188 C 324.1242980957031 566.9732055664062 325.7051086425781 564.2122192382812 327.78057861328125 563.57568359375 C 330.4888916015625 564.6957397460938 332.3296203613281 566.5011596679688 332.6671142578125 568.7698974609375" stroke-width="0.0" fill="rgb(255, 255, 255)" opacity="0.638792"/>
    <path d="M 75.26642608642578 471.404296875 C 75.18766021728516 473.3598937988281 72.0131607055664 474.9827575683594 70.07389068603516 477.3874816894531 C 67.49688720703125 475.4612731933594 65.7409896850586 473.4169616699219 64.84888458251953 470.4655456542969 C 64.98560333251953 468.2525634765625 67.48992156982422 466.9023742675781 69.30651092529297 468.5300598144531 C 72.46459197998047 467.26605224609375 75.21064758300781 468.0771789550781 75.26642608642578 471.404296875" stroke-width="0.0" fill="rgb(255, 255, 255)" opacity="0.6015304"/>
    <path d="M 7.595702648162842 281.4988708496094 C 8.42406177520752 289.6927795410156 7.144811153411865 290.353515625 2.629194498062134 289.648681640625 C -0.5252711176872253 288.3792724609375 -2.3366053104400635 286.51153564453125 -3.0018391609191895 283.9991760253906 C -2.3415451049804688 281.4811096191406 -0.5446613430976868 279.59014892578125 2.6947379112243652 277.9763488769531 C 7.541300296783447 276.95660400390625 9.488608360290527 277.7985534667969 7.595702648162842 281.4988708496094" stroke-width="0.0" fill="rgb(4, 3, 3)" opacity="0.87754714"/>
    <path d="M 33.86955261230469 234.4068603515625 C 34.484764099121094 237.32960510253906 33.32533264160156 238.99087524414062 29.901735305786133 239.7889404296875 C 27.397254943847656 238.70693969726562 26.152063369750977 236.3131103515625 24.553781509399414 233.5061492919922 C 25.42508316040039 231.6309356689453 27.675642013549805 229.5869140625 30.232341766357422 228.9818878173828 C 32.499839782714844 229.26571655273438 34.82029724121094 231.5830841064453 33.86955261230469 234.4068603515625" stroke-width="0.0" fill="rgb(255, 255, 255)" opacity="0.6253638"/>
    <path d="M 340.0127258300781 57.936134338378906 C 339.3547668457031 60.41605758666992 337.46844482421875 62.71031951904297 335.1690673828125 63.101985931396484 C 332.54376220703125 62.40572738647461 329.9229736328125 60.513771057128906 329.96630859375 57.74830627441406 C 330.0699768066406 55.4832649230957 332.6142883300781 53.57257843017578 334.7190856933594 52.37028121948242 C 337.5 53.66993713378906 339.3255615234375 55.5018310546875 340.0127258300781 57.936134338378906" stroke-width="0.0" fill="rgb(255, 255, 255)" opacity="0.6298405"/>
    <path d="M 37.990013122558594 502.6487121582031 C 35.13393783569336 505.078857421875 33.258155822753906 507.4195861816406 30.962316513061523 509.4160461425781 C 28.67321014404297 507.50811767578125 26.844072341918945 505.4774169921875 25.81984519958496 502.84674072265625 C 27.18220329284668 500.9534912109375 29.002197265625 499.2455749511719 31.495695114135742 498.948486328125 C 33.804439544677734 498.391357421875 36.015220642089844 499.9460754394531 37.990013122558594 502.6487121582031" stroke-width="0.0" fill="rgb(255, 255, 255)" opacity="0.5943832"/>
    <path d="M 120.5018539428711 -4.407237529754639 C 121.64502716064453 7.896296501159668 124.1824951171875 10.858438491821289 122.71306610107422 9.053123474121094 C 127.69898986816406 7.837216854095459 120.4581069946289 8.882780075073242 82.26263427734375 8.543152809143066 C 86.52207946777344 -18.735824584960938 101.24172973632812 -11.646721839904785 119.14302825927734 -9.482878684997559 C 133.26356506347656 -5.0542683601379395 130.35438537597656 -0.8374956846237183 120.5018539428711 -4.407237529754639" stroke-width="0.0" fill="rgb(19, 18, 19)" opacity="1.0"/>
    <path d="M 509.1574401855469 71.62651824951172 C 507.7264099121094 74.21729278564453 506.4944152832031 76.79192352294922 504.65643310546875 77.15372467041016 C 501.2818908691406 76.76708984375 499.3534851074219 74.65476989746094 498.9173278808594 71.4600830078125 C 499.2480163574219 69.41651153564453 501.6603088378906 67.97713470458984 504.0101013183594 66.47095489501953 C 506.383056640625 67.54706573486328 508.7343444824219 69.41780090332031 509.1574401855469 71.62651824951172" stroke-width="0.0" fill="rgb(255, 255, 255)" opacity="0.5989924"/>
    <path d="M 560.0184936523438 470.85302734375 C 560.0097045898438 472.61773681640625 557.32177734375 473.8965148925781 554.57958984375 475.47357177734375 C 552.2721557617188 474.97247314453125 551.0533447265625 472.2832946777344 551.129638671875 468.3278503417969 C 550.2146606445312 467.5556640625 552.5914916992188 465.9566955566406 554.7932739257812 466.1058349609375 C 557.5762329101562 465.7488708496094 560.1221313476562 467.1771545410156 560.0184936523438 470.85302734375" stroke-width="0.0" fill="rgb(255, 255, 255)" opacity="0.598807"/>
    <path d="M 26.267837524414062 382.0407409667969 C 25.582077026367188 383.4152526855469 23.414962768554688 385.30914306640625 20.215375900268555 386.1493225097656 C 18.524158477783203 385.86700439453125 16.94696044921875 383.3634948730469 14.837200164794922 379.9533386230469 C 15.690960884094238 378.05389404296875 18.5919246673584 377.550537109375 22.178634643554688 375.80157470703125 C 24.674448013305664 375.2669982910156 24.980365753173828 378.2656555175781 26.267837524414062 382.0407409667969" stroke-width="0.0" fill="rgb(255, 255, 255)" opacity="0.5944992"/>
    <path d="M 569.37939453125 393.808349609375 C 568.6649169921875 396.5271911621094 566.3801879882812 398.1214904785156 563.6732177734375 400.5179748535156 C 561.9376831054688 397.7972412109375 558.7182006835938 396.5413513183594 558.81298828125 394.4450378417969 C 559.54541015625 391.4638366699219 561.462158203125 389.48388671875 563.8306274414062 388.6524963378906 C 566.510009765625 389.6664733886719 568.4459228515625 391.4621276855469 569.37939453125 393.808349609375" stroke-width="0.0" fill="rgb(255, 255, 255)" opacity="0.6275725"/>
    <path d="M 69.39212036132812 510.3975830078125 C 68.53375244140625 512.34033203125 66.6258773803711 514.57861328125 63.710235595703125 515.0664672851562 C 60.97771072387695 515.026123046875 58.85251998901367 513.124267578125 57.8455696105957 510.1322021484375 C 59.66275405883789 507.8169250488281 61.89755630493164 506.26483154296875 64.81277465820312 504.75872802734375 C 66.48577880859375 505.08905029296875 68.0743408203125 507.61676025390625 69.39212036132812 510.3975830078125" stroke-width="0.0" fill="rgb(255, 255, 255)" opacity="0.59422415"/>
    <path d="M 363.6461486816406 587.4667358398438 C 364.8473205566406 603.14404296875 363.045166015625 604.7479858398438 344.11737060546875 605.5128173828125 C 320.6687927246094 609.1213989257812 309.3980407714844 615.6099243164062 305.24072265625 584.65869140625 C 326.8209533691406 584.4397583007812 343.9111633300781 585.0320434570312 348.71783447265625 584.491455078125 C 351.76092529296875 586.3700561523438 365.6183166503906 581.3176879882812 363.6461486816406 587.4667358398438" stroke-width="0.0" fill="rgb(24, 23, 23)" opacity="0.92462826"/>
    <path d="M 231.3051300048828 31.688732147216797 C 229.5131072998047 34.265018463134766 228.8084716796875 37.394126892089844 225.58937072753906 37.08846664428711 C 223.4540252685547 36.77214813232422 221.441650390625 34.46240234375 220.36865234375 31.297657012939453 C 221.56903076171875 29.835058212280273 223.7560272216797 27.128082275390625 226.0134735107422 26.941606521606445 C 228.3885498046875 26.949459075927734 229.96417236328125 29.456954956054688 231.3051300048828 31.688732147216797" stroke-width="0.0" fill="rgb(255, 255, 255)" opacity="0.59868383"/>
    <path d="M 37.129947662353516 242.01272583007812 C 36.59652328491211 244.40264892578125 34.24928665161133 246.23184204101562 31.123132705688477 249.24618530273438 C 28.376087188720703 247.8296356201172 27.044647216796875 244.9593963623047 26.917177200317383 242.11257934570312 C 27.28264045715332 239.30340576171875 29.322507858276367 237.4656219482422 31.950227737426758 236.29637145996094 C 34.19721603393555 237.8944854736328 37.03542709350586 239.28579711914062 37.129947662353516 242.01272583007812" stroke-width="0.0" fill="rgb(255, 255, 255)" opacity="0.606693"/>
    <path d="M 577.0581665039062 390.7265319824219 C 577.5296020507812 393.5886535644531 575.8718872070312 395.8935241699219 572.5782470703125 396.11444091796875 C 570.5009765625 396.03887939453125 569.0464477539062 393.1554870605469 567.97412109375 390.9332275390625 C 568.6370849609375 388.43817138671875 570.2259521484375 386.1695861816406 571.72900390625 384.61328125 C 575.105712890625 387.1391906738281 576.3790893554688 389.263427734375 577.0581665039062 390.7265319824219" stroke-width="0.0" fill="rgb(255, 255, 255)" opacity="0.64141196"/>
    <path d="M 563.0151977539062 285.32830810546875 C 561.8447875976562 287.55194091796875 560.6884765625 290.32080078125 557.5730590820312 290.2079772949219 C 555.7210083007812 289.4678649902344 553.3604736328125 287.404052734375 552.8489379882812 285.4129943847656 C 552.3999633789062 281.8475036621094 555.0396728515625 280.4556884765625 558.1204833984375 279.8368835449219 C 560.9600219726562 280.19781494140625 562.3988037109375 282.2055358886719 563.0151977539062 285.32830810546875" stroke-width="0.0" fill="rgb(255, 255, 255)" opacity="0.6393191"/>
    <path d="M 48.17234802246094 322.4035339355469 C 47.7130126953125 324.4358825683594 45.224586486816406 326.4862060546875 43.8074836730957 327.2698974609375 C 40.56729507446289 326.39520263671875 38.108055114746094 324.4912109375 37.604618072509766 321.8903503417969 C 38.62845993041992 319.6587219238281 40.689048767089844 317.32574462890625 42.49729537963867 316.68853759765625 C 45.46992111206055 317.3302001953125 47.54544448852539 319.4742431640625 48.17234802246094 322.4035339355469" stroke-width="0.0" fill="rgb(255, 255, 255)" opacity="0.5988399"/>
    <path d="M 21.165334701538086 291.039794921875 C 20.587779998779297 292.1118469238281 18.379398345947266 294.2970886230469 15.940502166748047 296.42523193359375 C 13.833507537841797 294.07220458984375 11.165364265441895 292.400146484375 10.78906536102295 290.1859130859375 C 11.011521339416504 287.1568908691406 13.386983871459961 285.8100280761719 16.435937881469727 285.4363708496094 C 18.83892250061035 285.2491455078125 19.908458709716797 287.3961181640625 21.165334701538086 291.039794921875" stroke-width="0.0" fill="rgb(255, 255, 255)" opacity="0.60789603"/>
    <path d="M 164.16598510742188 36.404449462890625 C 163.7166748046875 38.39591979980469 161.47067260742188 40.04014587402344 158.93023681640625 42.3798713684082 C 156.64620971679688 40.57106399536133 154.89193725585938 38.32773208618164 153.7811279296875 35.611724853515625 C 153.9556884765625 33.5146484375 156.5537109375 31.936065673828125 159.36585998535156 30.954389572143555 C 161.34178161621094 31.66499900817871 163.39913940429688 33.53584671020508 164.16598510742188 36.404449462890625" stroke-width="0.0" fill="rgb(255, 255, 255)" opacity="0.5960557"/>
    <path d="M 604.1759643554688 383.1081848144531 C 605.5761108398438 388.5252380371094 616.5070190429688 403.7359619140625 596.8340454101562 428.6501770019531 C 587.64208984375 420.3360595703125 595.8114013671875 402.3717041015625 592.2960205078125 385.51171875 C 593.7515258789062 374.0477600097656 590.5148315429688 368.6206970214844 596.5323486328125 365.3815002441406 C 605.3507080078125 372.7961120605469 604.0660400390625 379.2729797363281 604.1759643554688 383.1081848144531" stroke-width="0.0" fill="rgb(5, 5, 5)" opacity="0.9915422"/>
    <path d="M 336.0428161621094 567.218017578125 C 335.45587158203125 569.4768676757812 333.480224609375 571.8814697265625 331.4665222167969 572.213623046875 C 328.50750732421875 571.3084716796875 326.66998291015625 569.4996337890625 326.1455383300781 567.1207275390625 C 327.0281066894531 564.7494506835938 328.5498962402344 562.2192993164062 330.1676940917969 561.8148803710938 C 333.59747314453125 562.5407104492188 335.8948669433594 564.2975463867188 336.0428161621094 567.218017578125" stroke-width="0.0" fill="rgb(255, 255, 255)" opacity="0.6432654"/>
    <path d="M 28.283971786499023 21.99141502380371 C 26.737855911254883 24.48151397705078 24.24382972717285 25.68842315673828 21.133453369140625 27.203065872192383 C 19.666553497314453 26.648096084594727 17.52560043334961 24.468780517578125 16.61827850341797 22.192426681518555 C 17.670377731323242 19.5009765625 19.507240295410156 17.686473846435547 22.07911491394043 16.737991333007812 C 24.288721084594727 17.9371337890625 26.59136390686035 19.480831146240234 28.283971786499023 21.99141502380371" stroke-width="0.0" fill="rgb(255, 255, 255)" opacity="0.6277421"/>
    <path d="M 539.1536254882812 25.11500358581543 C 537.972900390625 27.221710205078125 536.5284423828125 29.72390365600586 534.8873291015625 30.05980110168457 C 531.7399291992188 28.870256423950195 529.1747436523438 27.647085189819336 528.4387817382812 25.220285415649414 C 529.664306640625 22.47704315185547 531.4509887695312 20.558013916015625 534.2965087890625 19.817134857177734 C 536.4019775390625 20.204200744628906 538.3778686523438 22.631542205810547 539.1536254882812 25.11500358581543" stroke-width="0.0" fill="rgb(255, 255, 255)" opacity="0.62306064"/>
    <path d="M 54.55744934082031 48.10044860839844 C 53.70903015136719 51.717037200927734 51.312408447265625 53.21773910522461 48.87122344970703 55.448448181152344 C 46.814937591552734 53.248085021972656 44.61863708496094 51.254207611083984 43.458885192871094 49.50477600097656 C 44.81202697753906 46.860164642333984 47.25323486328125 45.27318572998047 49.07868957519531 43.59718704223633 C 51.2173957824707 44.25139617919922 53.3486328125 46.886863708496094 54.55744934082031 48.10044860839844" stroke-width="0.0" fill="rgb(255, 255, 255)" opacity="0.59477884"/>
    <path d="M 8.176156044006348 58.45258712768555 C 6.058882236480713 56.05727005004883 9.244068145751953 66.97322082519531 5.3652801513671875 72.7534408569336 C -4.524878025054932 70.18351745605469 -5.987401485443115 67.18387603759766 -6.695374488830566 56.03964614868164 C -10.03825569152832 38.762760162353516 -21.28006362915039 19.775421142578125 7.037461757659912 12.688575744628906 C 8.261078834533691 44.704158782958984 6.372290134429932 58.04107666015625 8.176156044006348 58.45258712768555" stroke-width="0.0" fill="rgb(6, 5, 5)" opacity="0.99232346"/>
    <path d="M 517.213623046875 24.16303062438965 C 515.7269287109375 25.861839294433594 513.929931640625 27.749038696289062 510.7955322265625 29.21027183532715 C 509.79949951171875 28.222976684570312 507.3338317871094 26.366432189941406 506.6470947265625 24.20415687561035 C 507.4060974121094 21.5791072845459 509.7012634277344 19.499465942382812 511.1562194824219 18.590486526489258 C 514.3726196289062 19.668659210205078 516.8035888671875 21.293067932128906 517.213623046875 24.16303062438965" stroke-width="0.0" fill="rgb(255, 255, 255)" opacity="0.59692913"/>
    <path d="M 29.346010208129883 518.03125 C 28.484365463256836 520.5164794921875 26.510643005371094 522.7335205078125 23.18853187561035 523.2332153320312 C 21.503755569458008 522.6189575195312 19.54534912109375 520.3114624023438 19.977529525756836 518.068603515625 C 19.290416717529297 515.4819946289062 21.597469329833984 513.67724609375 24.062265396118164 511.547607421875 C 26.212709426879883 513.8531494140625 28.649377822875977 515.6952514648438 29.346010208129883 518.03125" stroke-width="0.0" fill="rgb(255, 255, 255)" opacity="0.5976536"/>
    <path d="M 285.77655029296875 586.3394775390625 C 282.0172424316406 596.8837280273438 278.6241760253906 598.8628540039062 264.3854064941406 602.9556274414062 C 254.45005798339844 604.20361328125 254.9463348388672 600.7350463867188 255.24310302734375 585.617919921875 C 256.2717590332031 584.262939453125 270.90777587890625 585.0777587890625 269.35650634765625 584.6035766601562 C 264.1807556152344 586.0283203125 274.4290466308594 584.7386474609375 285.77655029296875 586.3394775390625" stroke-width="0.0" fill="rgb(21, 20, 19)" opacity="0.9379577"/>
    <path d="M 273.0960693359375 555.6213989257812 C 272.8191833496094 558.5281372070312 270.475341796875 560.6238403320312 267.74188232421875 561.3684692382812 C 266.1272277832031 559.5352783203125 263.9715270996094 558.065185546875 262.4706726074219 555.4996337890625 C 262.656005859375 552.7601318359375 264.9627685546875 551.2869873046875 267.63507080078125 551.0209350585938 C 270.419677734375 551.4490356445312 272.8551940917969 553.4603881835938 273.0960693359375 555.6213989257812" stroke-width="0.0" fill="rgb(255, 255, 255)" opacity="0.6230383"/>
    <path d="M 335.133544921875 548.26220703125 C 334.9776611328125 551.6441650390625 332.52593994140625 553.3884887695312 329.8172302246094 554.0337524414062 C 326.5011291503906 554.1002807617188 324.69195556640625 552.5462036132812 324.9230651855469 549.12109375 C 325.3039245605469 546.5217895507812 327.6565246582031 544.8192749023438 329.1976318359375 543.7131958007812 C 332.2425537109375 545.2775268554688 335.2239990234375 546.3275146484375 335.133544921875 548.26220703125" stroke-width="0.0" fill="rgb(255, 255, 255)" opacity="0.6058677"/>
    <path d="M 588.9296875 538.471923828125 C 589.86865234375 542.1974487304688 587.7269897460938 543.542236328125 583.9044799804688 543.0087280273438 C 581.826171875 542.1194458007812 580.7218017578125 539.767578125 578.6504516601562 536.8065185546875 C 579.5877075195312 535.9159545898438 581.6204223632812 533.7225341796875 583.96630859375 531.5487060546875 C 586.0922241210938 533.9805908203125 589.2826538085938 535.2926025390625 588.9296875 538.471923828125" stroke-width="0.0" fill="rgb(255, 255, 255)" opacity="0.59996575"/>
    <path d="M 50.265750885009766 486.71234130859375 C 49.64726257324219 488.2808532714844 47.436851501464844 490.51824951171875 45.02384948730469 491.2229309082031 C 42.561065673828125 490.44781494140625 40.22766876220703 488.343017578125 39.733543395996094 486.19293212890625 C 40.4344482421875 483.4618835449219 42.38007354736328 481.0627136230469 45.296478271484375 480.6898193359375 C 47.52610397338867 480.8744201660156 48.780364990234375 483.6955261230469 50.265750885009766 486.71234130859375" stroke-width="0.0" fill="rgb(255, 255, 255)" opacity="0.60129905"/>
    <path d="M 299.1981201171875 533.0405883789062 C 298.6573791503906 534.3697509765625 296.28338623046875 535.926513671875 293.7645568847656 537.0783081054688 C 291.515869140625 536.403076171875 289.5880432128906 534.3649291992188 287.92608642578125 532.1800537109375 C 289.3209228515625 529.2510375976562 291.4825439453125 528.056884765625 294.8072814941406 526.7310791015625 C 296.5091857910156 527.3160400390625 298.28936767578125 529.5026245117188 299.1981201171875 533.0405883789062" stroke-width="0.0" fill="rgb(255, 255, 255)" opacity="0.6267812"/>
    <path d="M 345.3510437011719 54.119380950927734 C 343.03375244140625 56.57011032104492 341.61785888671875 58.55362319946289 338.7381286621094 58.03015899658203 C 336.5 58.33012771606445 334.66986083984375 56.500022888183594 333.9997863769531 54.000030517578125 C 334.6698913574219 51.4999885559082 336.5000305175781 49.669864654541016 338.9286804199219 49.087425231933594 C 341.4197998046875 49.78862762451172 343.4025573730469 51.69558334350586 345.3510437011719 54.119380950927734" stroke-width="0.0" fill="rgb(254, 255, 255)" opacity="0.69916344"/>
  </g>
</svg>
