<?xml version="1.0" ?>
<svg xmlns="http://www.w3.org/2000/svg" version="1.1" width="600" height="600">
  <defs/>
  <g>
    <path d="M 294.7497863769531 586.6569213867188 C 295.8600158691406 587.6555786132812 297.3094787597656 586.2432861328125 295.6312561035156 587.0712890625 C 296.896484375 586.7003784179688 295.28875732421875 588.9456787109375 294.0634460449219 589.1982421875 C 293.27154541015625 590.318115234375 294.39154052734375 591.4720458984375 296.37109375 592.3267211914062 C 297.39154052734375 593.6052856445312 296.4100036621094 593.7830810546875 294.7497863769531 586.6569213867188" stroke-width="0.0" fill="rgb(255, 255, 255)" opacity="0.6860041"/>
    <path d="M 263.0114440917969 599.4371337890625 C 265.2563781738281 597.291259765625 265.35394287109375 597.296142578125 265.8549499511719 597.4096069335938 C 263.764404296875 597.0118408203125 263.32025146484375 596.4323120117188 262.8976135253906 598.0891723632812 C 263.7542724609375 597.5808715820312 263.29315185546875 598.3326416015625 264.98394775390625 597.9309692382812 C 265.51605224609375 595.4586791992188 262.8076477050781 593.2781372070312 263.0114440917969 599.4371337890625" stroke-width="0.0" fill="rgb(255, 255, 255)" opacity="0.76208603"/>
    <path d="M 21.339946746826172 557.2353515625 C 20.295961380004883 558.2687377929688 22.579389572143555 556.5962524414062 19.860088348388672 559.4002685546875 C 19.375459671020508 555.7816772460938 21.051456451416016 557.138916015625 21.961000442504883 556.4404907226562 C 20.026554107666016 557.3611450195312 18.125871658325195 557.2562866210938 20.42906951904297 555.408447265625 C 18.961549758911133 556.8062133789062 18.608837127685547 556.4853515625 21.339946746826172 557.2353515625" stroke-width="0.0" fill="rgb(255, 255, 255)" opacity="0.7526281"/>
    <path d="M 39.41037368774414 583.4920043945312 C 38.23171615600586 585.1849365234375 37.50658416748047 587.556396484375 37.51620101928711 588.2275390625 C 34.73386764526367 587.392822265625 32.52375411987305 588.4537353515625 30.793291091918945 587.7378540039062 C 28.946611404418945 587.5177001953125 27.204980850219727 589.9434814453125 27.55691146850586 589.4650268554688 C 27.1422119140625 590.1036987304688 28.29166030883789 587.5978393554688 39.41037368774414 583.4920043945312" stroke-width="0.0" fill="rgb(255, 255, 255)" opacity="0.64844906"/>
    <path d="M 28.90089225769043 562.6998291015625 C 29.115234375 562.1896362304688 29.4969539642334 560.0315551757812 27.655481338500977 561.2589721679688 C 25.55699348449707 560.43115234375 26.832073211669922 561.1029052734375 24.49092674255371 563.2950439453125 C 23.113752365112305 562.0313110351562 24.59330177307129 561.465087890625 25.2724552154541 562.2885131835938 C 26.853525161743164 561.1165771484375 24.445707321166992 564.1270751953125 28.90089225769043 562.6998291015625" stroke-width="0.0" fill="rgb(255, 255, 255)" opacity="0.72595215"/>
    <path d="M 1.7918002605438232 542.0438842773438 C 2.821573257446289 539.95849609375 2.291045665740967 538.84423828125 2.501400947570801 539.814453125 C 4.0794243812561035 539.5509643554688 2.110779285430908 539.2841186523438 -0.3172171711921692 538.373291015625 C -1.1933571100234985 537.156005859375 0.4523034989833832 536.9544677734375 1.8589800596237183 536.9842529296875 C 1.8968570232391357 537.056640625 4.631317138671875 535.9524536132812 1.7918002605438232 542.0438842773438" stroke-width="0.0" fill="rgb(255, 255, 255)" opacity="0.80746907"/>
    <path d="M 20.84115219116211 320.84527587890625 C 22.036785125732422 318.7393798828125 19.31694793701172 320.4715576171875 17.84649658203125 320.1060485839844 C 16.218852996826172 320.37713623046875 18.181854248046875 320.439453125 19.901153564453125 320.06365966796875 C 20.094127655029297 321.4402160644531 20.14793586730957 321.9239807128906 19.095853805541992 322.138427734375 C 20.783817291259766 322.2115478515625 18.349332809448242 322.1630554199219 20.84115219116211 320.84527587890625" stroke-width="0.0" fill="rgb(255, 255, 255)" opacity="0.821198"/>
    <path d="M 6.5320563316345215 297.1741027832031 C 3.7324609756469727 297.4508972167969 1.8580008745193481 294.8625793457031 3.601860523223877 295.83282470703125 C 2.190380334854126 295.28814697265625 3.6645045280456543 295.7726745605469 2.0762596130371094 295.2081298828125 C 3.772279977798462 296.50048828125 5.089749813079834 298.0858459472656 3.8605129718780518 296.4753723144531 C 3.739224910736084 300.4073486328125 3.8655776977539062 299.4808654785156 6.5320563316345215 297.1741027832031" stroke-width="0.0" fill="rgb(255, 255, 255)" opacity="0.71349597"/>
    <path d="M 64.56363677978516 588.200439453125 C 63.863162994384766 589.9290161132812 62.53376770019531 588.21044921875 60.99024963378906 589.3546752929688 C 58.733299255371094 592.10400390625 60.357086181640625 592.4884033203125 61.1623420715332 591.6444702148438 C 60.11931228637695 592.7755737304688 62.517208099365234 593.189208984375 62.05138397216797 593.9319458007812 C 59.396541595458984 594.5084838867188 58.312129974365234 593.3355102539062 64.56363677978516 588.200439453125" stroke-width="0.0" fill="rgb(255, 255, 255)" opacity="0.6674635"/>
    <path d="M 44.419036865234375 581.0648803710938 C 47.34074783325195 583.0361328125 46.13395690917969 584.0057373046875 43.133384704589844 585.2272338867188 C 42.260196685791016 586.0858764648438 43.269039154052734 586.1880493164062 40.615478515625 585.9622192382812 C 42.58470153808594 583.3536376953125 43.3167724609375 584.0660400390625 43.11689376831055 583.1822509765625 C 41.374759674072266 583.1115112304688 41.21237564086914 580.2928466796875 44.419036865234375 581.0648803710938" stroke-width="0.0" fill="rgb(255, 255, 255)" opacity="0.6640033"/>
    <path d="M 29.220918655395508 594.6526489257812 C 27.068540573120117 592.6903076171875 26.523212432861328 592.2966918945312 25.40510368347168 590.9970092773438 C 23.85064697265625 589.3385009765625 23.767148971557617 589.3533935546875 23.612030029296875 590.9994506835938 C 22.920080184936523 591.6397094726562 24.082380294799805 590.5810546875 23.848430633544922 589.0468139648438 C 23.996685028076172 589.1232299804688 22.615928649902344 588.5167236328125 29.220918655395508 594.6526489257812" stroke-width="0.0" fill="rgb(255, 255, 255)" opacity="0.802508"/>
    <path d="M 29.077028274536133 524.0314331054688 C 29.728858947753906 525.3054809570312 29.435209274291992 525.3955688476562 32.533905029296875 527.8145141601562 C 32.088951110839844 524.3759155273438 33.41333770751953 523.6976928710938 31.926517486572266 524.5835571289062 C 28.5478515625 525.4212036132812 26.36249351501465 525.2147827148438 28.826107025146484 526.1491088867188 C 29.09715461730957 527.8955688476562 31.157161712646484 527.337890625 29.077028274536133 524.0314331054688" stroke-width="0.0" fill="rgb(251, 251, 252)" opacity="0.81811506"/>
    <path d="M 14.171980857849121 578.6276245117188 C 15.51945972442627 578.7852783203125 13.585460662841797 578.0896606445312 14.134358406066895 580.1279296875 C 12.456429481506348 581.6909790039062 11.69971752166748 580.9672241210938 10.766615867614746 580.8863525390625 C 10.197248458862305 582.2445068359375 10.97048282623291 580.2744140625 11.588189125061035 579.8217163085938 C 13.532889366149902 579.8438720703125 14.034561157226562 581.9784545898438 14.171980857849121 578.6276245117188" stroke-width="0.0" fill="rgb(255, 255, 255)" opacity="0.7943392"/>
    <path d="M 331.8320007324219 572.2206420898438 C 330.9866638183594 572.4149169921875 328.8233947753906 573.5575561523438 328.8791198730469 572.9259033203125 C 327.5225524902344 573.2778930664062 327.74151611328125 572.142333984375 328.1503601074219 573.1029663085938 C 329.6304016113281 573.3098754882812 330.23150634765625 571.4783325195312 329.1854553222656 572.9990234375 C 329.170166015625 573.349853515625 331.27740478515625 572.3248901367188 331.8320007324219 572.2206420898438" stroke-width="0.0" fill="rgb(255, 255, 255)" opacity="0.85237205"/>
    <path d="M 581.1691284179688 583.8019409179688 C 579.2427368164062 584.3143310546875 579.1434326171875 584.3026123046875 580.2802734375 584.8502197265625 C 578.850341796875 583.3142700195312 576.96240234375 585.75244140625 575.4555053710938 585.4923095703125 C 574.72412109375 586.0133056640625 573.561279296875 586.2725219726562 571.3807983398438 586.93017578125 C 569.8641967773438 587.6538696289062 569.606201171875 587.681884765625 581.1691284179688 583.8019409179688" stroke-width="0.0" fill="rgb(255, 255, 255)" opacity="0.71178997"/>
    <path d="M 273.5196533203125 589.67431640625 C 273.58795166015625 589.1407470703125 275.029296875 590.65966796875 274.5177307128906 590.2803955078125 C 273.2672424316406 588.8390502929688 273.0103759765625 588.5245971679688 270.7586975097656 589.29736328125 C 271.9676818847656 588.0958862304688 271.66748046875 589.9319458007812 270.916259765625 589.1135864257812 C 272.9645690917969 588.5746459960938 274.49090576171875 589.5684204101562 273.5196533203125 589.67431640625" stroke-width="0.0" fill="rgb(255, 255, 255)" opacity="0.82700765"/>
    <path d="M 598.509521484375 580.0778198242188 C 597.0123291015625 582.1152954101562 594.955322265625 580.5988159179688 593.2369995117188 579.8858032226562 C 591.7395629882812 580.1243286132812 591.990234375 580.0731201171875 592.0158081054688 578.1683349609375 C 593.9513549804688 577.7352905273438 593.2267456054688 575.6600341796875 591.4881591796875 575.7066650390625 C 592.778564453125 575.2744750976562 591.3800659179688 572.30029296875 598.509521484375 580.0778198242188" stroke-width="0.0" fill="rgb(255, 255, 255)" opacity="0.64450765"/>
    <path d="M 46.798683166503906 579.265625 C 46.41361618041992 580.0990600585938 48.02355194091797 580.3106689453125 49.84579849243164 579.6334228515625 C 50.636966705322266 581.5883178710938 47.858253479003906 581.6005249023438 49.52543640136719 581.2520141601562 C 51.08839416503906 580.2117309570312 48.90108108520508 579.1030883789062 47.73497009277344 578.94580078125 C 48.8363037109375 576.04931640625 48.686649322509766 578.3927001953125 46.798683166503906 579.265625" stroke-width="0.0" fill="rgb(255, 255, 255)" opacity="0.7884107"/>
    <path d="M 9.65794849395752 324.6900329589844 C 11.425785064697266 322.840576171875 11.790743827819824 323.0110168457031 14.312376022338867 323.07952880859375 C 13.92764949798584 323.4947814941406 15.461238861083984 321.7034606933594 14.992512702941895 324.4146728515625 C 17.173551559448242 326.5428771972656 16.48387908935547 327.4512634277344 13.047952651977539 330.4997253417969 C 12.939205169677734 328.66925048828125 13.875643730163574 327.0423278808594 9.65794849395752 324.6900329589844" stroke-width="0.0" fill="rgb(255, 255, 255)" opacity="0.6650536"/>
    <path d="M 6.879648208618164 329.1927795410156 C 9.198596000671387 328.9458312988281 7.213343620300293 327.9955749511719 7.925325393676758 328.3872985839844 C 8.103324890136719 326.4821472167969 8.0871000289917 327.9846496582031 6.867613315582275 326.33355712890625 C 5.149918079376221 324.8052978515625 4.000995635986328 326.12493896484375 6.0892462730407715 325.5640563964844 C 5.228268623352051 328.55975341796875 6.646713733673096 329.8482360839844 6.879648208618164 329.1927795410156" stroke-width="0.0" fill="rgb(255, 255, 255)" opacity="0.7391961"/>
    <path d="M 15.008204460144043 569.0050048828125 C 17.627931594848633 569.7977294921875 15.124626159667969 570.6318969726562 14.271048545837402 569.3561401367188 C 13.481317520141602 569.6427001953125 15.253920555114746 567.92236328125 14.942713737487793 569.424072265625 C 12.361438751220703 567.88232421875 10.450100898742676 568.3109741210938 11.585025787353516 567.759765625 C 10.35452938079834 567.7223510742188 12.056000709533691 568.6735229492188 15.008204460144043 569.0050048828125" stroke-width="0.0" fill="rgb(255, 255, 255)" opacity="0.7379966"/>
    <path d="M 49.85377502441406 600.3267822265625 C 49.301353454589844 600.9097900390625 50.93862533569336 600.3173217773438 52.53984069824219 602.4367065429688 C 53.41368103027344 601.63720703125 55.48582077026367 599.423583984375 53.73710632324219 600.8975219726562 C 53.51105880737305 600.4323120117188 55.191734313964844 601.8164672851562 55.71854782104492 600.4220581054688 C 53.55350112915039 602.2813720703125 50.93379211425781 604.5043334960938 49.85377502441406 600.3267822265625" stroke-width="0.0" fill="rgb(255, 255, 255)" opacity="0.94365555"/>
    <path d="M 315.5660400390625 598.49267578125 C 313.84173583984375 597.399658203125 316.10296630859375 597.0094604492188 316.84747314453125 595.5570068359375 C 317.011962890625 597.3184204101562 318.06146240234375 598.1515502929688 315.32977294921875 598.0172729492188 C 315.2506103515625 600.8975219726562 313.7244567871094 600.8033447265625 314.1252136230469 599.1385498046875 C 313.21990966796875 599.483642578125 311.84515380859375 600.1953735351562 315.5660400390625 598.49267578125" stroke-width="0.0" fill="rgb(255, 255, 255)" opacity="0.73913074"/>
    <path d="M 324.3426818847656 582.1132202148438 C 321.3919677734375 582.3787841796875 322.69415283203125 581.8430786132812 323.74017333984375 581.8858642578125 C 322.29473876953125 581.7301635742188 322.5435791015625 582.6458740234375 322.84307861328125 581.9509887695312 C 323.9893493652344 582.9708251953125 325.3790588378906 581.2865600585938 324.2752990722656 581.9276733398438 C 324.3675842285156 583.9406127929688 324.0669250488281 586.170166015625 324.3426818847656 582.1132202148438" stroke-width="0.0" fill="rgb(255, 255, 255)" opacity="0.82459587"/>
    <path d="M 564.0833740234375 566.04931640625 C 563.94091796875 563.7998046875 563.6115112304688 561.5975952148438 565.1432495117188 563.6491088867188 C 566.4192504882812 565.3276977539062 567.7152099609375 565.1668090820312 570.1991577148438 564.8924560546875 C 569.1044921875 566.0386962890625 570.9149780273438 565.6329956054688 572.5902099609375 568.0291137695312 C 573.2675170898438 568.5057983398438 574.748291015625 565.555419921875 564.0833740234375 566.04931640625" stroke-width="0.0" fill="rgb(255, 255, 255)" opacity="0.6736663"/>
    <path d="M 553.7991943359375 577.3491821289062 C 554.1741333007812 578.1424560546875 556.84521484375 576.1837158203125 555.793701171875 575.7109985351562 C 556.6026611328125 576.923828125 554.7517700195312 576.150634765625 555.3153686523438 577.2669067382812 C 552.3369140625 577.571044921875 550.8761596679688 577.0872802734375 548.91259765625 576.3394165039062 C 548.471435546875 576.1741333007812 549.951171875 577.2965698242188 553.7991943359375 577.3491821289062" stroke-width="0.0" fill="rgb(255, 255, 255)" opacity="0.75037014"/>
    <path d="M 38.980472564697266 272.3929748535156 C 37.23655700683594 275.3730773925781 35.60435485839844 276.1712341308594 37.195655822753906 278.0610656738281 C 40.56284713745117 277.6795349121094 38.6815299987793 279.7378845214844 38.31984329223633 278.8167419433594 C 38.0062141418457 279.3926086425781 35.93735122680664 279.71380615234375 35.768714904785156 277.7691955566406 C 33.59677505493164 279.48406982421875 33.42058181762695 281.26287841796875 38.980472564697266 272.3929748535156" stroke-width="0.0" fill="rgb(255, 255, 255)" opacity="0.685969"/>
    <path d="M 543.0933227539062 575.0935668945312 C 541.4791259765625 573.2581176757812 540.4132080078125 573.4662475585938 538.819580078125 575.9196166992188 C 537.9318237304688 575.8428955078125 540.61962890625 578.2330932617188 541.35400390625 578.6019897460938 C 539.0000610351562 580.8413696289062 540.6533203125 580.03369140625 539.1486206054688 581.4336547851562 C 539.0526123046875 583.1333618164062 537.2850341796875 584.1251831054688 543.0933227539062 575.0935668945312" stroke-width="0.0" fill="rgb(255, 255, 255)" opacity="0.6644824"/>
    <path d="M 40.99687957763672 299.7247314453125 C 37.2674560546875 302.93927001953125 36.80900573730469 303.02447509765625 36.93173599243164 300.0594177246094 C 38.111122131347656 299.95556640625 39.13359451293945 297.8682861328125 40.876277923583984 296.4344787597656 C 41.235076904296875 298.7700500488281 40.92649841308594 296.57305908203125 40.26628112792969 294.7620849609375 C 40.68409729003906 292.42578125 41.11507797241211 292.5579833984375 40.99687957763672 299.7247314453125" stroke-width="0.0" fill="rgb(255, 255, 255)" opacity="0.71341145"/>
    <path d="M 592.0596923828125 572.146484375 C 592.5794067382812 570.276611328125 592.9644775390625 571.9202880859375 591.4462890625 572.2037353515625 C 590.5068359375 571.0703735351562 590.04345703125 569.3570556640625 588.2893676757812 570.093017578125 C 587.69091796875 569.2916259765625 588.072265625 570.9301147460938 588.1229248046875 571.1441040039062 C 590.1797485351562 570.324462890625 589.6576538085938 572.7911376953125 592.0596923828125 572.146484375" stroke-width="0.0" fill="rgb(255, 255, 255)" opacity="0.7466149"/>
    <path d="M 565.0844116210938 588.8687744140625 C 565.0574951171875 586.64013671875 565.2337646484375 586.4974365234375 562.2008666992188 587.3065185546875 C 562.03662109375 589.9994506835938 562.0324096679688 589.5924072265625 562.720458984375 589.4276733398438 C 560.40576171875 591.3497314453125 560.8421020507812 591.2301025390625 560.4974975585938 591.4420776367188 C 561.9691772460938 589.6580810546875 562.339111328125 589.1959838867188 565.0844116210938 588.8687744140625" stroke-width="0.0" fill="rgb(255, 255, 255)" opacity="0.73866093"/>
    <path d="M 322.4017333984375 573.7384643554688 C 324.6405944824219 574.0107421875 327.3031005859375 574.1776733398438 327.2286071777344 573.6510009765625 C 326.9419860839844 572.03466796875 326.3848876953125 570.9129028320312 327.951904296875 570.03466796875 C 328.63043212890625 569.3463134765625 330.0783386230469 569.4544677734375 330.5705261230469 568.557861328125 C 333.01800537109375 567.8402709960938 334.66485595703125 565.55615234375 322.4017333984375 573.7384643554688" stroke-width="0.0" fill="rgb(255, 255, 255)" opacity="0.6756402"/>
    <path d="M 575.4336547851562 594.530517578125 C 576.3825073242188 596.8724975585938 574.9027099609375 596.5022583007812 576.068603515625 595.5214233398438 C 575.0108032226562 595.168701171875 575.5847778320312 593.8327026367188 577.25048828125 592.1008911132812 C 579.3390502929688 591.322998046875 579.5465698242188 593.3724365234375 577.9541625976562 593.0172119140625 C 577.6414794921875 593.7255249023438 579.4213256835938 596.0723266601562 575.4336547851562 594.530517578125" stroke-width="0.0" fill="rgb(255, 255, 255)" opacity="0.7341095"/>
    <path d="M 348.4164733886719 574.6201782226562 C 347.41900634765625 574.6597900390625 349.4631652832031 575.4119873046875 351.0845642089844 574.7439575195312 C 351.3956298828125 576.83544921875 349.0881652832031 575.9036865234375 347.50616455078125 575.9149780273438 C 345.92437744140625 576.17333984375 343.6721496582031 575.4791870117188 343.8256530761719 576.6026611328125 C 346.1797180175781 577.386474609375 344.0572509765625 580.100341796875 348.4164733886719 574.6201782226562" stroke-width="0.0" fill="rgb(255, 255, 255)" opacity="0.70405084"/>
    <path d="M 11.300399780273438 559.1280517578125 C 9.811055183410645 558.1856689453125 8.77864933013916 557.001220703125 6.4255757331848145 556.3495483398438 C 5.0824971199035645 555.9446411132812 3.0979738235473633 555.1991577148438 3.9235546588897705 554.5499877929688 C 5.2073259353637695 552.5827026367188 4.005608558654785 554.9143676757812 2.584906816482544 555.9356689453125 C 4.208974361419678 556.2213745117188 4.6609907150268555 554.3464965820312 11.300399780273438 559.1280517578125" stroke-width="0.0" fill="rgb(255, 255, 255)" opacity="0.7198478"/>
    <path d="M 560.8976440429688 590.0421142578125 C 559.5018310546875 590.2631225585938 560.9219360351562 588.4778442382812 559.2003784179688 588.9902954101562 C 560.5776977539062 589.8084716796875 561.391845703125 591.0594482421875 560.8721923828125 588.6704711914062 C 559.3868408203125 589.9214477539062 558.9029541015625 589.2172241210938 560.538818359375 588.1685180664062 C 558.3538208007812 589.5188598632812 557.9379272460938 590.2283325195312 560.8976440429688 590.0421142578125" stroke-width="0.0" fill="rgb(255, 255, 255)" opacity="0.8278567"/>
    <path d="M 3.412020444869995 540.0792236328125 C 1.381941795349121 540.1356811523438 1.0564205646514893 540.03759765625 -1.0807414054870605 539.9912109375 C -0.13145987689495087 541.3239135742188 0.0036918879486620426 543.221435546875 -1.6815603971481323 541.9354248046875 C -2.528625249862671 541.4368896484375 -1.4061206579208374 540.8596801757812 -2.604130744934082 540.071533203125 C -0.39542946219444275 539.0953369140625 -0.8024914264678955 536.7281494140625 3.412020444869995 540.0792236328125" stroke-width="0.0" fill="rgb(255, 255, 255)" opacity="0.88762707"/>
    <path d="M 281.27490234375 577.9745483398438 C 279.59808349609375 578.0755615234375 278.5338134765625 576.4777221679688 278.6829833984375 576.9987182617188 C 280.57733154296875 577.8988037109375 280.4098205566406 578.01904296875 279.2743225097656 579.8387451171875 C 280.603759765625 577.8533935546875 279.0380859375 579.623046875 281.0409240722656 580.0654907226562 C 282.33697509765625 579.3369750976562 284.7785339355469 577.4385375976562 281.27490234375 577.9745483398438" stroke-width="0.0" fill="rgb(255, 255, 255)" opacity="0.74529487"/>
    <path d="M 267.21856689453125 584.6099853515625 C 268.1729431152344 585.583251953125 267.7875671386719 585.5140380859375 267.91998291015625 587.5018310546875 C 269.720703125 584.879638671875 269.338623046875 583.7190551757812 267.3427734375 583.8607788085938 C 265.3327941894531 584.458740234375 266.56829833984375 583.45849609375 265.4200439453125 582.494140625 C 266.8733825683594 584.1678466796875 266.8020324707031 581.302734375 267.21856689453125 584.6099853515625" stroke-width="0.0" fill="rgb(255, 255, 255)" opacity="0.8044802"/>
    <path d="M 33.955448150634766 327.1855163574219 C 34.5106086730957 327.78814697265625 36.752952575683594 326.5322570800781 38.3293342590332 323.978515625 C 39.7525520324707 324.11895751953125 40.38493728637695 323.2441711425781 39.122196197509766 324.12109375 C 42.15856170654297 323.54351806640625 40.617244720458984 324.4501647949219 40.72564697265625 327.0592956542969 C 43.33924865722656 327.74951171875 45.10121154785156 326.89453125 33.955448150634766 327.1855163574219" stroke-width="0.0" fill="rgb(255, 255, 255)" opacity="0.68556935"/>
    <path d="M 22.4060001373291 545.1422119140625 C 20.729412078857422 547.0869140625 19.89983367919922 545.844482421875 21.886585235595703 546.0228271484375 C 22.769765853881836 548.0443115234375 20.421344757080078 546.6005249023438 20.939550399780273 546.55615234375 C 24.11052703857422 543.4313354492188 25.253883361816406 542.2518920898438 24.961692810058594 543.8200073242188 C 24.383987426757812 544.566650390625 23.40144920349121 543.3507690429688 22.4060001373291 545.1422119140625" stroke-width="0.0" fill="rgb(255, 255, 255)" opacity="0.75703496"/>
    <path d="M 26.602018356323242 272.9847717285156 C 25.080446243286133 272.1797790527344 26.903812408447266 269.7703857421875 25.97623634338379 271.0108337402344 C 23.94498062133789 270.9642639160156 25.85378646850586 269.35369873046875 25.075910568237305 270.0416259765625 C 24.95392417907715 267.83355712890625 23.446949005126953 269.0656433105469 24.052968978881836 270.3948059082031 C 22.848485946655273 270.37457275390625 21.718769073486328 268.5257263183594 26.602018356323242 272.9847717285156" stroke-width="0.0" fill="rgb(255, 255, 255)" opacity="0.7925564"/>
    <path d="M 34.529598236083984 557.0951538085938 C 33.56035232543945 555.9139404296875 32.4913330078125 556.4609375 34.07154846191406 555.8053588867188 C 34.61958694458008 554.6607666015625 32.82841491699219 553.234619140625 31.21914291381836 551.87890625 C 30.488027572631836 550.4054565429688 32.0088005065918 549.1839599609375 30.132579803466797 548.8619384765625 C 29.66425895690918 550.8736572265625 29.18584632873535 552.0589599609375 34.529598236083984 557.0951538085938" stroke-width="0.0" fill="rgb(255, 255, 255)" opacity="0.6602629"/>
    <path d="M 300.0479736328125 582.8438110351562 C 299.5184020996094 583.796875 300.48016357421875 584.338134765625 303.11468505859375 584.0242309570312 C 302.9544677734375 581.4779052734375 302.739990234375 582.921630859375 303.0624084472656 580.9180297851562 C 302.60284423828125 580.7406005859375 304.868408203125 581.4989624023438 303.84637451171875 580.9092407226562 C 303.6192626953125 581.3986206054688 305.8911437988281 583.7967529296875 300.0479736328125 582.8438110351562" stroke-width="0.0" fill="rgb(255, 255, 255)" opacity="0.74964654"/>
    <path d="M 1.367161750793457 251.8137969970703 C -0.2620975077152252 250.28887939453125 -0.076929971575737 251.0812530517578 1.3899543285369873 249.931396484375 C -0.24501118063926697 250.8223419189453 -0.6353350281715393 252.4806365966797 -3.117550849914551 251.66432189941406 C -3.911875009536743 254.0191650390625 -5.90531063079834 254.5188751220703 -6.400589466094971 252.26918029785156 C -7.78531551361084 252.6085662841797 -8.114794731140137 254.4323272705078 1.367161750793457 251.8137969970703" stroke-width="0.0" fill="rgb(255, 255, 255)" opacity="0.8681472"/>
    <path d="M 25.096590042114258 276.01507568359375 C 23.41010284423828 276.5272521972656 23.48208999633789 274.0201416015625 25.851356506347656 271.6266784667969 C 24.761886596679688 271.0289611816406 26.31450080871582 273.23297119140625 28.394933700561523 274.6373291015625 C 25.57799530029297 275.8124084472656 23.005294799804688 274.4852294921875 24.246265411376953 274.8762512207031 C 23.67181396484375 276.1756591796875 24.157224655151367 275.9200134277344 25.096590042114258 276.01507568359375" stroke-width="0.0" fill="rgb(255, 255, 255)" opacity="0.71380144"/>
    <path d="M 546.9197998046875 572.6493530273438 C 546.8175048828125 573.5655517578125 547.7642211914062 573.1203002929688 548.5993041992188 571.7291870117188 C 549.9791259765625 573.1199340820312 547.9446411132812 575.4495849609375 546.18798828125 575.0403442382812 C 544.4715576171875 574.8311767578125 542.656982421875 572.507080078125 540.4598388671875 575.0225219726562 C 540.182861328125 574.3521728515625 542.8867797851562 576.760498046875 546.9197998046875 572.6493530273438" stroke-width="0.0" fill="rgb(255, 255, 255)" opacity="0.68218887"/>
    <path d="M 12.531620025634766 592.4549560546875 C 11.903026580810547 593.635986328125 12.761761665344238 592.7965698242188 13.1205415725708 591.0151977539062 C 14.991218566894531 591.3970336914062 13.829427719116211 589.8518676757812 12.563078880310059 589.318115234375 C 14.306758880615234 588.4972534179688 14.16654109954834 589.2258911132812 17.08106803894043 588.8662719726562 C 16.989608764648438 589.6868286132812 16.717655181884766 590.2080078125 12.531620025634766 592.4549560546875" stroke-width="0.0" fill="rgb(255, 255, 255)" opacity="0.7020134"/>
    <path d="M 259.8431091308594 597.8944702148438 C 258.72552490234375 598.802001953125 258.48699951171875 596.4832763671875 260.0237731933594 598.3963623046875 C 258.3522033691406 597.2575073242188 259.39422607421875 595.7608642578125 258.9803771972656 593.3037109375 C 259.2240295410156 592.1939697265625 256.1733093261719 594.0037841796875 256.8819274902344 596.8469848632812 C 259.73297119140625 597.5884399414062 260.57232666015625 595.9313354492188 259.8431091308594 597.8944702148438" stroke-width="0.0" fill="rgb(255, 255, 255)" opacity="0.7410582"/>
    <path d="M 293.2967834472656 598.4309692382812 C 292.21759033203125 597.9149780273438 292.28411865234375 599.9307861328125 291.44757080078125 598.5980224609375 C 290.1615295410156 596.8470458984375 292.1456298828125 594.369873046875 291.0426025390625 593.5643310546875 C 291.9904479980469 594.5987548828125 290.63201904296875 593.6456298828125 289.56640625 592.888671875 C 288.2236022949219 591.313720703125 289.6734619140625 591.3291625976562 293.2967834472656 598.4309692382812" stroke-width="0.0" fill="rgb(255, 255, 255)" opacity="0.7080229"/>
    <path d="M 32.66046142578125 263.90728759765625 C 34.0108757019043 263.7200012207031 32.49768829345703 264.0113830566406 30.66539764404297 264.02264404296875 C 32.30122375488281 266.9324645996094 33.9404182434082 266.031005859375 35.42992401123047 265.7842712402344 C 36.66355514526367 266.84930419921875 35.84360885620117 268.8618469238281 35.34349060058594 267.6690368652344 C 35.770259857177734 269.66552734375 36.72285461425781 269.66717529296875 32.66046142578125 263.90728759765625" stroke-width="0.0" fill="rgb(255, 255, 255)" opacity="0.692661"/>
    <path d="M 6.883152961730957 552.0223388671875 C 7.036693096160889 551.71630859375 5.228243350982666 550.7672729492188 3.506692886352539 548.9387817382812 C 2.9390764236450195 549.7351684570312 1.1385647058486938 551.1514892578125 3.5708096027374268 548.94775390625 C 1.4674986600875854 547.5576782226562 -0.1605573147535324 544.9652099609375 -1.493409276008606 543.868896484375 C 0.12143604457378387 546.1287841796875 -1.920810341835022 543.980712890625 6.883152961730957 552.0223388671875" stroke-width="0.0" fill="rgb(255, 255, 255)" opacity="0.7563385"/>
    <path d="M 269.164306640625 598.6942138671875 C 268.5302734375 597.3646240234375 269.9772644042969 598.0648193359375 270.3208312988281 598.27685546875 C 269.69970703125 599.0740966796875 270.1206970214844 597.511474609375 273.6391906738281 596.9326782226562 C 274.7623596191406 596.4877319335938 274.7933349609375 598.2177734375 273.5550537109375 598.4083251953125 C 274.79571533203125 597.8442993164062 275.6014099121094 595.4179077148438 269.164306640625 598.6942138671875" stroke-width="0.0" fill="rgb(255, 255, 255)" opacity="0.74695665"/>
    <path d="M 267.2704162597656 594.8074340820312 C 266.3333740234375 592.9833374023438 265.6805725097656 594.7481079101562 266.6586608886719 593.7947998046875 C 264.2685241699219 596.2677612304688 263.7862243652344 597.99462890625 261.85601806640625 594.9212646484375 C 259.91680908203125 592.8046264648438 260.28765869140625 593.8199462890625 260.80181884765625 593.8806762695312 C 261.0041198730469 593.9071655273438 260.353271484375 595.7219848632812 267.2704162597656 594.8074340820312" stroke-width="0.0" fill="rgb(255, 255, 255)" opacity="0.70982754"/>
    <path d="M 36.33180618286133 251.84930419921875 C 35.22362518310547 254.49090576171875 36.779624938964844 252.55215454101562 35.81525421142578 249.7704620361328 C 36.059505462646484 251.33078002929688 35.989471435546875 248.71694946289062 35.93451690673828 247.22169494628906 C 33.727996826171875 246.15362548828125 31.32357406616211 247.7489013671875 33.971343994140625 249.21405029296875 C 35.02201461791992 250.18743896484375 31.82917594909668 252.89540100097656 36.33180618286133 251.84930419921875" stroke-width="0.0" fill="rgb(255, 255, 255)" opacity="0.69711524"/>
    <path d="M 26.303640365600586 546.146484375 C 27.51199722290039 546.7898559570312 26.748628616333008 547.9323120117188 27.027507781982422 549.3075561523438 C 28.210790634155273 547.8777465820312 30.46642303466797 549.9727172851562 28.038633346557617 551.3318481445312 C 27.988082885742188 549.41259765625 28.248821258544922 549.3055419921875 27.977256774902344 548.9312133789062 C 28.838647842407227 546.6495361328125 27.23311996459961 547.2538452148438 26.303640365600586 546.146484375" stroke-width="0.0" fill="rgb(255, 255, 255)" opacity="0.76803976"/>
    <path d="M 352.5519714355469 591.6957397460938 C 354.0898742675781 591.8018188476562 354.8833312988281 593.8590698242188 356.3270263671875 594.518310546875 C 354.7460632324219 595.0598754882812 353.55194091796875 597.14111328125 350.693115234375 599.570556640625 C 352.80548095703125 601.6859741210938 353.66412353515625 599.9332885742188 355.0314025878906 598.4950561523438 C 355.3190002441406 596.7867431640625 354.525146484375 594.611572265625 352.5519714355469 591.6957397460938" stroke-width="0.0" fill="rgb(255, 255, 255)" opacity="0.6465309"/>
    <path d="M 15.901996612548828 593.2767944335938 C 15.045487403869629 595.1353149414062 15.836173057556152 595.9995727539062 15.709070205688477 598.1341552734375 C 14.805922508239746 597.9017944335938 13.921607971191406 599.50244140625 15.067439079284668 597.9574584960938 C 14.342522621154785 600.0408935546875 14.52855110168457 599.1760864257812 14.02360725402832 600.3136596679688 C 15.204060554504395 598.3547973632812 15.098281860351562 597.2523193359375 15.901996612548828 593.2767944335938" stroke-width="0.0" fill="rgb(255, 255, 255)" opacity="0.7530023"/>
    <path d="M 570.5738525390625 594.9373779296875 C 570.1879272460938 596.04248046875 571.7708740234375 597.3634033203125 570.2218017578125 597.3619384765625 C 572.4285888671875 598.1373291015625 573.0167846679688 600.4542236328125 570.34765625 601.5987548828125 C 570.2522583007812 604.0111694335938 570.8533935546875 605.1773071289062 569.1990356445312 607.5238647460938 C 570.5964965820312 605.3408203125 571.7244262695312 605.47216796875 570.5738525390625 594.9373779296875" stroke-width="0.0" fill="rgb(255, 255, 255)" opacity="0.76636744"/>
    <path d="M 60.233673095703125 561.8927001953125 C 62.292572021484375 561.6882934570312 62.3787727355957 563.2750854492188 63.707275390625 562.060302734375 C 64.4878158569336 563.151611328125 65.9426498413086 562.1526489257812 67.04534912109375 562.5037231445312 C 67.8252182006836 561.4972534179688 68.62249755859375 559.1368408203125 67.99239349365234 560.603759765625 C 67.22286224365234 561.0673828125 69.29560089111328 563.56494140625 60.233673095703125 561.8927001953125" stroke-width="0.0" fill="rgb(255, 255, 255)" opacity="0.71005505"/>
    <path d="M 15.44070053100586 268.9115295410156 C 15.066301345825195 267.03125 15.482659339904785 269.474853515625 16.39321517944336 269.5644836425781 C 15.264056205749512 268.82659912109375 14.000346183776855 268.65484619140625 14.079300880432129 269.8279113769531 C 12.761434555053711 271.18359375 11.50027084350586 271.96734619140625 12.157727241516113 269.6913757324219 C 12.936379432678223 270.74359130859375 14.92828369140625 270.16259765625 15.44070053100586 268.9115295410156" stroke-width="0.0" fill="rgb(255, 255, 255)" opacity="0.72906077"/>
    <path d="M 38.57316207885742 298.0877990722656 C 41.65650177001953 296.8788146972656 39.843170166015625 295.35687255859375 41.92152404785156 294.80450439453125 C 42.244842529296875 292.9717712402344 41.68574142456055 291.15985107421875 42.16476821899414 289.729248046875 C 41.7425537109375 290.9876403808594 43.06810760498047 288.9461669921875 41.94417953491211 290.797607421875 C 42.28303909301758 293.0721130371094 38.9481086730957 291.34686279296875 38.57316207885742 298.0877990722656" stroke-width="0.0" fill="rgb(255, 255, 255)" opacity="0.70375836"/>
    <path d="M 39.56816482543945 283.4800109863281 C 42.51298904418945 284.56640625 40.04868698120117 284.7582092285156 41.26036071777344 284.2204284667969 C 40.704124450683594 280.61199951171875 42.06062316894531 280.3459777832031 43.24537658691406 278.0033264160156 C 44.575836181640625 276.9093017578125 46.604393005371094 277.32269287109375 43.67794418334961 277.55059814453125 C 45.97312545776367 274.3539123535156 47.06352233886719 272.4918518066406 39.56816482543945 283.4800109863281" stroke-width="0.0" fill="rgb(255, 255, 255)" opacity="0.6861218"/>
    <path d="M 294.665771484375 572.8569946289062 C 296.0369567871094 574.5562744140625 297.0270080566406 576.1382446289062 298.3144836425781 573.9730834960938 C 300.7348937988281 574.236328125 300.9358215332031 572.25390625 297.5367126464844 572.9575805664062 C 299.3100891113281 573.9306030273438 301.774169921875 575.1295776367188 301.1881103515625 575.0750122070312 C 300.316650390625 575.9517822265625 303.1866149902344 573.7049560546875 294.665771484375 572.8569946289062" stroke-width="0.0" fill="rgb(255, 255, 255)" opacity="0.6906013"/>
    <path d="M 20.064311981201172 244.4627227783203 C 18.135814666748047 246.3490753173828 18.714405059814453 246.42111206054688 19.835247039794922 244.6361083984375 C 20.205963134765625 243.68795776367188 19.560808181762695 245.78184509277344 19.729297637939453 244.4293212890625 C 20.59783172607422 242.3458709716797 19.73340606689453 242.9761199951172 16.971923828125 243.18899536132812 C 17.23853302001953 241.3606719970703 15.397234916687012 240.2060546875 20.064311981201172 244.4627227783203" stroke-width="0.0" fill="rgb(255, 255, 255)" opacity="0.7253017"/>
    <path d="M 579.5675048828125 564.9312133789062 C 582.603271484375 565.0560913085938 580.56689453125 567.0729370117188 578.5404663085938 566.724609375 C 580.33642578125 566.3751220703125 582.197265625 567.47216796875 583.5343017578125 570.4661254882812 C 585.0488891601562 569.6452026367188 586.7072143554688 568.8006591796875 585.8964233398438 567.721435546875 C 584.9609375 568.9859008789062 582.9599609375 571.0379028320312 579.5675048828125 564.9312133789062" stroke-width="0.0" fill="rgb(255, 255, 255)" opacity="0.6719313"/>
    <path d="M 23.297353744506836 262.2750549316406 C 25.25901222229004 261.0216979980469 23.42746353149414 258.064208984375 21.359703063964844 261.19482421875 C 21.666362762451172 263.0584716796875 19.70173454284668 263.822509765625 18.77348518371582 262.05615234375 C 17.411693572998047 260.1671142578125 16.50141143798828 259.5868835449219 17.14341163635254 260.9617004394531 C 18.23525047302246 258.7667236328125 18.41709327697754 260.302734375 23.297353744506836 262.2750549316406" stroke-width="0.0" fill="rgb(255, 255, 255)" opacity="0.65691876"/>
    <path d="M 33.88993835449219 316.3756408691406 C 36.084896087646484 317.7545471191406 35.60639953613281 320.0547180175781 38.1489143371582 321.3080139160156 C 37.82194900512695 320.6246643066406 38.08640670776367 320.8590087890625 38.075958251953125 322.45697021484375 C 35.74821090698242 319.94171142578125 34.849334716796875 319.20074462890625 34.17973327636719 320.4258117675781 C 33.419002532958984 317.96075439453125 34.16151809692383 320.55780029296875 33.88993835449219 316.3756408691406" stroke-width="0.0" fill="rgb(255, 255, 255)" opacity="0.67744267"/>
    <path d="M 8.986817359924316 287.2346496582031 C 8.160244941711426 288.0385437011719 9.282700538635254 288.3677978515625 10.038785934448242 289.0075378417969 C 8.744836807250977 287.8396301269531 8.910840034484863 288.69281005859375 8.784747123718262 286.2867431640625 C 9.854729652404785 284.1151428222656 7.954668998718262 282.13555908203125 7.66289758682251 286.385986328125 C 5.991209983825684 285.1513977050781 7.207417011260986 283.4670104980469 8.986817359924316 287.2346496582031" stroke-width="0.0" fill="rgb(255, 255, 255)" opacity="0.74298984"/>
    <path d="M 289.04962158203125 585.1265869140625 C 286.9138488769531 585.888916015625 289.0868225097656 588.3102416992188 287.4828186035156 589.2110595703125 C 287.9015197753906 589.2313232421875 290.0244140625 591.61865234375 290.4414367675781 592.0724487304688 C 288.13677978515625 591.3823852539062 286.3899841308594 593.940185546875 283.8199157714844 592.8756103515625 C 282.8368835449219 594.3272094726562 282.2845458984375 595.3334350585938 289.04962158203125 585.1265869140625" stroke-width="0.0" fill="rgb(255, 255, 255)" opacity="0.6214376"/>
    <path d="M 585.594970703125 581.2364501953125 C 587.8056640625 580.44384765625 588.9908447265625 581.658203125 587.6133422851562 581.6437377929688 C 589.3497924804688 582.6222534179688 591.1594848632812 581.8079833984375 589.5978393554688 579.9358520507812 C 587.5703125 579.0322265625 589.640380859375 579.51708984375 588.7664184570312 581.0835571289062 C 586.48046875 578.5914916992188 586.2637329101562 580.0355834960938 585.594970703125 581.2364501953125" stroke-width="0.0" fill="rgb(255, 255, 255)" opacity="0.72459"/>
    <path d="M 47.856475830078125 555.8735961914062 C 48.49455642700195 557.9879760742188 46.72806930541992 556.59326171875 48.03495788574219 556.6534423828125 C 47.493408203125 555.4363403320312 49.01581573486328 555.4127807617188 46.938995361328125 554.8391723632812 C 47.05626678466797 555.8142700195312 47.099449157714844 556.4532470703125 46.89643096923828 558.3167114257812 C 46.53943634033203 556.40478515625 48.711429595947266 557.1073608398438 47.856475830078125 555.8735961914062" stroke-width="0.0" fill="rgb(255, 255, 255)" opacity="0.83565915"/>
    <path d="M 36.901641845703125 297.179443359375 C 38.22956848144531 296.4227600097656 36.88379669189453 297.2122802734375 37.06182861328125 297.5600891113281 C 35.88168716430664 295.7364196777344 35.80421829223633 297.66839599609375 36.132625579833984 299.7303466796875 C 33.92091369628906 300.5570983886719 34.27823257446289 299.6543884277344 32.8303337097168 298.43896484375 C 32.48863220214844 296.82281494140625 34.46298599243164 296.8476257324219 36.901641845703125 297.179443359375" stroke-width="0.0" fill="rgb(255, 255, 255)" opacity="0.71206915"/>
    <path d="M 24.458528518676758 583.1244506835938 C 23.691957473754883 583.6257934570312 22.92401695251465 584.798095703125 24.24311065673828 583.1702880859375 C 24.64079475402832 583.0025024414062 25.787139892578125 580.5449829101562 25.010181427001953 582.860107421875 C 25.93813133239746 579.6277465820312 26.06850242614746 580.8452758789062 25.892663955688477 578.7853393554688 C 24.819578170776367 578.1660766601562 27.73681640625 578.4284057617188 24.458528518676758 583.1244506835938" stroke-width="0.0" fill="rgb(255, 255, 255)" opacity="0.7612302"/>
    <path d="M 345.2938232421875 571.5059204101562 C 345.1068115234375 569.2232666015625 345.8601379394531 571.376708984375 344.5341491699219 572.1636352539062 C 341.9677734375 571.2296752929688 343.3719482421875 573.2986450195312 342.70440673828125 573.4469604492188 C 341.7041015625 573.35546875 344.46697998046875 572.9501953125 344.0749816894531 572.6542358398438 C 343.4728698730469 571.4074096679688 344.5552673339844 570.1014404296875 345.2938232421875 571.5059204101562" stroke-width="0.0" fill="rgb(255, 255, 255)" opacity="0.8104556"/>
    <path d="M 582.2182006835938 570.9414672851562 C 584.7431640625 571.70947265625 586.385009765625 574.2691040039062 587.3161010742188 576.2259521484375 C 588.96923828125 573.84814453125 589.3619384765625 574.7263793945312 588.6481323242188 574.10205078125 C 587.3953857421875 572.2993774414062 588.3943481445312 573.2864379882812 588.7987060546875 575.0925903320312 C 589.5894775390625 574.2625122070312 588.3349609375 574.9821166992188 582.2182006835938 570.9414672851562" stroke-width="0.0" fill="rgb(255, 255, 255)" opacity="0.72518706"/>
    <path d="M 13.71688175201416 328.8087158203125 C 12.451618194580078 327.1377868652344 12.985237121582031 325.7956848144531 14.711372375488281 322.9961853027344 C 15.155516624450684 324.83355712890625 16.429170608520508 323.9456481933594 18.42144203186035 322.3545837402344 C 17.186832427978516 321.61590576171875 16.57975959777832 321.7740173339844 16.597328186035156 322.99151611328125 C 16.357975006103516 321.710205078125 19.079994201660156 319.4872131347656 13.71688175201416 328.8087158203125" stroke-width="0.0" fill="rgb(255, 255, 255)" opacity="0.75130546"/>
    <path d="M 37.77690887451172 561.745361328125 C 38.03460693359375 562.50341796875 35.40296173095703 560.8263549804688 36.065818786621094 563.6234741210938 C 35.464088439941406 565.4494018554688 36.68849563598633 564.310546875 38.40630340576172 566.6807861328125 C 37.547821044921875 567.3238525390625 38.69828796386719 569.1799926757812 41.01348114013672 569.1475830078125 C 40.324317932128906 568.0629272460938 39.182865142822266 566.832275390625 37.77690887451172 561.745361328125" stroke-width="0.0" fill="rgb(255, 255, 255)" opacity="0.6541145"/>
    <path d="M 583.5376586914062 576.409423828125 C 584.9149780273438 579.42822265625 586.3192749023438 578.9603271484375 587.552490234375 577.8264770507812 C 585.9243774414062 578.8610229492188 586.9551391601562 578.2481079101562 587.08935546875 578.3309326171875 C 586.9140625 578.475830078125 584.7348022460938 579.3098754882812 581.7860717773438 578.9732055664062 C 582.2802734375 577.7826538085938 583.9105834960938 577.179443359375 583.5376586914062 576.409423828125" stroke-width="0.0" fill="rgb(255, 255, 255)" opacity="0.7392155"/>
    <path d="M 600.3370361328125 589.047119140625 C 600.8399658203125 587.6458740234375 602.379638671875 585.3419799804688 599.9540405273438 585.8372192382812 C 602.2380981445312 586.5631713867188 604.60302734375 586.9878540039062 604.2321166992188 588.7098999023438 C 606.161376953125 587.1912231445312 608.00244140625 584.694580078125 607.6513061523438 582.58447265625 C 607.31396484375 584.286865234375 607.2061767578125 585.9186401367188 600.3370361328125 589.047119140625" stroke-width="0.0" fill="rgb(255, 255, 255)" opacity="0.9187684"/>
    <path d="M 585.5492553710938 578.9526977539062 C 585.5339965820312 576.5496826171875 587.6864013671875 577.4228515625 586.9024658203125 575.5211181640625 C 586.1885986328125 573.7172241210938 586.5120239257812 572.1596069335938 584.7756958007812 573.4514770507812 C 585.6810302734375 574.7485961914062 583.7720947265625 576.5535278320312 586.2191772460938 577.3826904296875 C 585.339111328125 575.6923217773438 586.7448120117188 574.0272827148438 585.5492553710938 578.9526977539062" stroke-width="0.0" fill="rgb(255, 255, 255)" opacity="0.79485124"/>
    <path d="M 593.7769165039062 580.4606323242188 C 593.0321655273438 583.2152709960938 592.1484985351562 585.26806640625 592.1483154296875 585.68701171875 C 591.7470703125 587.6876220703125 591.3001708984375 587.8690795898438 592.6988525390625 590.07177734375 C 593.6239624023438 590.8760986328125 594.0879516601562 591.3837280273438 592.369384765625 589.47509765625 C 591.6099853515625 587.578369140625 591.0032958984375 589.5712280273438 593.7769165039062 580.4606323242188" stroke-width="0.0" fill="rgb(255, 255, 255)" opacity="0.74302405"/>
    <path d="M 47.77132797241211 571.717041015625 C 47.996437072753906 568.860595703125 48.866939544677734 570.1229248046875 49.30867004394531 569.9454956054688 C 50.119529724121094 568.8924560546875 52.41712951660156 571.7293701171875 52.24557113647461 572.3114624023438 C 53.49791717529297 571.3427734375 52.95000076293945 571.614501953125 52.94032287597656 568.9141235351562 C 53.204586029052734 567.6849365234375 52.308067321777344 566.5562744140625 47.77132797241211 571.717041015625" stroke-width="0.0" fill="rgb(255, 255, 255)" opacity="0.6679517"/>
    <path d="M 0.0014635520055890083 561.0 C -1.8525103330612183 558.9833374023438 -2.5214030742645264 558.0576171875 -2.510481119155884 555.9974975585938 C -0.49072012305259705 555.666015625 -0.7861443758010864 554.9436645507812 -2.861125946044922 556.2892456054688 C -3.6022610664367676 554.1787109375 -3.1284871101379395 556.6309204101562 -3.9096176624298096 555.3834838867188 C -3.1536991596221924 555.3934936523438 -1.2461811304092407 552.9630737304688 0.0014635520055890083 561.0" stroke-width="0.0" fill="rgb(252, 253, 252)" opacity="1.0"/>
    <path d="M 349.3876953125 579.7390747070312 C 348.0538635253906 580.9996948242188 349.6991271972656 581.0427856445312 352.0662536621094 580.75244140625 C 350.76422119140625 580.9366455078125 350.1716613769531 581.183349609375 352.8396301269531 583.2373657226562 C 353.59686279296875 584.5203247070312 352.2109680175781 586.9407348632812 353.57440185546875 586.6703491210938 C 353.9027099609375 586.7064208984375 352.2295837402344 587.7102661132812 349.3876953125 579.7390747070312" stroke-width="0.0" fill="rgb(255, 255, 255)" opacity="0.6667937"/>
    <path d="M 58.18098068237305 595.1722412109375 C 58.3508415222168 596.190185546875 60.63545227050781 596.0767211914062 61.013023376464844 596.0179443359375 C 61.249019622802734 593.5348510742188 62.81828689575195 596.070556640625 61.64996337890625 598.23046875 C 60.379905700683594 597.8593139648438 61.18743133544922 595.7769775390625 59.70219421386719 597.3473510742188 C 61.845741271972656 599.9609375 63.08037185668945 602.328125 58.18098068237305 595.1722412109375" stroke-width="0.0" fill="rgb(255, 255, 255)" opacity="0.7086008"/>
    <path d="M 49.095516204833984 588.0025024414062 C 48.06643295288086 588.5161743164062 47.0619010925293 587.1067504882812 44.6570930480957 587.4689331054688 C 46.70030975341797 586.9688720703125 47.509742736816406 585.0122680664062 46.82377243041992 582.2059326171875 C 47.13996124267578 581.6475219726562 49.927066802978516 582.7863159179688 49.0171012878418 580.7286987304688 C 49.27614212036133 581.842529296875 49.13547897338867 581.3834228515625 49.095516204833984 588.0025024414062" stroke-width="0.0" fill="rgb(255, 255, 255)" opacity="0.71459985"/>
    <path d="M 338.2378845214844 595.0330810546875 C 336.7489929199219 597.7730712890625 336.29638671875 595.624755859375 334.3626403808594 598.4122314453125 C 331.3952331542969 596.6151123046875 331.6703796386719 595.8267211914062 332.1054992675781 595.867919921875 C 331.50830078125 595.4179077148438 333.0319519042969 595.0402221679688 330.8681945800781 595.458740234375 C 332.8276672363281 594.7576904296875 332.2918395996094 595.0003662109375 338.2378845214844 595.0330810546875" stroke-width="0.0" fill="rgb(255, 255, 255)" opacity="0.68152153"/>
    <path d="M 47.76089859008789 566.5736694335938 C 48.8671760559082 569.334228515625 45.88633728027344 566.927978515625 44.353145599365234 568.4588623046875 C 45.79973602294922 567.2572631835938 43.115089416503906 568.6100463867188 43.24971008300781 567.8088989257812 C 42.07358932495117 568.2476806640625 39.80049133300781 567.6690063476562 40.399696350097656 568.289306640625 C 42.8016471862793 569.6009521484375 43.29256057739258 572.4129638671875 47.76089859008789 566.5736694335938" stroke-width="0.0" fill="rgb(255, 255, 255)" opacity="0.6988362"/>
    <path d="M 43.74347686767578 586.1763305664062 C 47.68470764160156 585.589111328125 49.14438247680664 587.13720703125 47.54460525512695 589.18310546875 C 48.946563720703125 588.3359985351562 46.91130447387695 589.001953125 46.811363220214844 589.6254272460938 C 47.501983642578125 591.49755859375 46.7454948425293 592.2946166992188 46.596893310546875 593.6195068359375 C 48.342803955078125 595.5059814453125 46.52721405029297 595.15478515625 43.74347686767578 586.1763305664062" stroke-width="0.0" fill="rgb(255, 255, 255)" opacity="0.67874813"/>
    <path d="M 268.5351867675781 584.49755859375 C 268.832763671875 587.5230712890625 270.6885681152344 589.2472534179688 269.1919250488281 587.2096557617188 C 268.6573791503906 589.9761352539062 267.52911376953125 588.9283447265625 264.7902526855469 588.9197998046875 C 265.078857421875 588.202880859375 265.2481994628906 586.1929931640625 264.3631896972656 586.9669189453125 C 266.1672058105469 585.4215087890625 266.7637634277344 584.35009765625 268.5351867675781 584.49755859375" stroke-width="0.0" fill="rgb(255, 255, 255)" opacity="0.7145093"/>
    <path d="M 22.76158905029297 570.8873291015625 C 22.7603816986084 571.1621704101562 21.178749084472656 573.1586303710938 22.30988311767578 575.1395874023438 C 20.951900482177734 574.5853881835938 21.6196231842041 575.5771484375 19.676359176635742 574.8890380859375 C 20.319292068481445 573.8646240234375 18.97383689880371 575.6982421875 20.976165771484375 576.0036010742188 C 20.745527267456055 575.634765625 19.14375114440918 578.323974609375 22.76158905029297 570.8873291015625" stroke-width="0.0" fill="rgb(255, 255, 255)" opacity="0.73855394"/>
    <path d="M 64.94043731689453 593.4716796875 C 65.06611633300781 593.7771606445312 67.8105697631836 592.2085571289062 68.9953384399414 592.0408325195312 C 68.5811767578125 592.3154296875 70.41276550292969 593.7167358398438 68.86698913574219 592.4092407226562 C 68.529052734375 591.2704467773438 70.10260009765625 591.6007080078125 69.39318084716797 591.9216918945312 C 70.14632415771484 589.80712890625 71.82585144042969 591.348388671875 64.94043731689453 593.4716796875" stroke-width="0.0" fill="rgb(255, 255, 255)" opacity="0.7914083"/>
    <path d="M 1.7809014320373535 296.7232360839844 C 2.072916269302368 296.957763671875 2.2882096767425537 296.9781799316406 1.6739691495895386 296.7287902832031 C 0.24880346655845642 296.3136291503906 2.013847589492798 297.6367492675781 1.6837568283081055 297.3872985839844 C -0.15130262076854706 295.4233093261719 -2.5645737648010254 297.1390075683594 -3.598748207092285 295.6756286621094 C -5.1736674308776855 296.2509460449219 -7.166562080383301 295.9527282714844 1.7809014320373535 296.7232360839844" stroke-width="0.0" fill="rgb(255, 255, 255)" opacity="0.9006821"/>
    <path d="M 35.20573043823242 266.8836364746094 C 34.48746109008789 267.6059265136719 35.696231842041016 268.138671875 34.63911437988281 266.7612609863281 C 36.01976013183594 268.0689697265625 34.483726501464844 269.7210998535156 35.460670471191406 270.0677795410156 C 34.84602737426758 270.88006591796875 32.818565368652344 272.7388000488281 34.89296340942383 274.3174133300781 C 34.874916076660156 275.0072021484375 34.955745697021484 275.207763671875 35.20573043823242 266.8836364746094" stroke-width="0.0" fill="rgb(255, 255, 255)" opacity="0.73985684"/>
    <path d="M 329.9959716796875 585.7403564453125 C 332.0653381347656 586.6470336914062 333.7867431640625 586.78076171875 335.1131286621094 588.4560546875 C 333.3517150878906 591.3800048828125 331.0533447265625 589.3262329101562 331.3212890625 590.1954345703125 C 332.1094055175781 592.5779418945312 331.9960021972656 591.5061645507812 330.66583251953125 590.519287109375 C 332.5636901855469 592.3152465820312 332.02789306640625 592.759521484375 329.9959716796875 585.7403564453125" stroke-width="0.0" fill="rgb(255, 255, 255)" opacity="0.69661325"/>
    <path d="M 1.7446272373199463 591.6790771484375 C 3.0701406002044678 593.0573120117188 1.3247439861297607 591.10546875 1.130700707435608 590.7391967773438 C 0.29597803950309753 590.1047973632812 1.193713903427124 589.9849853515625 -1.08511221408844 588.1478271484375 C -2.1921679973602295 585.5834350585938 -1.5085264444351196 587.3480224609375 0.8076550364494324 589.66748046875 C -0.9046145081520081 587.7825317382812 -2.5086793899536133 585.6465454101562 1.7446272373199463 591.6790771484375" stroke-width="0.0" fill="rgb(255, 255, 255)" opacity="0.8867466"/>
    <path d="M 577.6826171875 596.7353515625 C 579.0531005859375 594.7160034179688 578.095458984375 597.5218505859375 578.6593017578125 597.1187133789062 C 577.9946899414062 596.3748168945312 578.8282470703125 595.5914916992188 580.6860961914062 593.7012329101562 C 581.2001953125 594.0673217773438 581.4066772460938 596.023681640625 580.1904907226562 594.605712890625 C 582.2783203125 596.035888671875 581.0105590820312 598.1233520507812 577.6826171875 596.7353515625" stroke-width="0.0" fill="rgb(255, 255, 255)" opacity="0.75872475"/>
    <path d="M 323.6072692871094 587.8649291992188 C 322.4870910644531 585.4380493164062 320.7132263183594 585.357421875 319.14727783203125 587.499755859375 C 319.5640869140625 587.6966552734375 318.4745178222656 585.688720703125 318.98675537109375 585.4341430664062 C 318.6972351074219 585.2118530273438 321.5993347167969 584.3642578125 319.0754699707031 582.8193969726562 C 319.5093688964844 583.3760986328125 320.2566833496094 583.14404296875 323.6072692871094 587.8649291992188" stroke-width="0.0" fill="rgb(255, 255, 255)" opacity="0.70390874"/>
    <path d="M 582.1416015625 582.845947265625 C 582.0170288085938 583.00927734375 581.5604858398438 584.40283203125 582.3764038085938 584.1204223632812 C 581.5098876953125 582.7400512695312 582.232666015625 581.8355102539062 582.6010131835938 582.033935546875 C 584.881591796875 581.5966186523438 583.7427368164062 583.3455200195312 584.0620727539062 583.8460083007812 C 581.89208984375 584.6350708007812 581.7694091796875 583.1104736328125 582.1416015625 582.845947265625" stroke-width="0.0" fill="rgb(255, 255, 255)" opacity="0.7924905"/>
    <path d="M 34.051612854003906 589.4059448242188 C 36.41638946533203 586.2455444335938 38.662261962890625 586.6763305664062 37.86515426635742 587.9768676757812 C 36.09703063964844 587.6453857421875 35.44602584838867 586.5863647460938 35.94320297241211 586.6006469726562 C 33.9904670715332 586.0046997070312 34.819087982177734 587.1810302734375 35.68781661987305 586.350341796875 C 34.712608337402344 584.7102661132812 33.55634689331055 582.9647827148438 34.051612854003906 589.4059448242188" stroke-width="0.0" fill="rgb(255, 255, 255)" opacity="0.8300953"/>
    <path d="M 550.3947143554688 562.8660888671875 C 549.0057373046875 563.9625854492188 547.9957275390625 562.9628295898438 549.3396606445312 564.9037475585938 C 546.9364013671875 565.3676147460938 546.0369262695312 564.083251953125 545.9677124023438 566.044677734375 C 544.7145385742188 565.9874877929688 542.5160522460938 565.4932861328125 540.8499145507812 565.18896484375 C 541.8660278320312 565.8916625976562 543.5897827148438 565.922119140625 550.3947143554688 562.8660888671875" stroke-width="0.0" fill="rgb(255, 255, 255)" opacity="0.6833653"/>
    <path d="M 343.1357727050781 571.131103515625 C 344.78277587890625 570.5311889648438 346.2550964355469 567.9903564453125 345.5997619628906 569.102294921875 C 344.8522644042969 568.1726684570312 343.8186950683594 567.031982421875 345.5657653808594 568.9349365234375 C 344.28912353515625 571.707275390625 342.6983947753906 569.4061279296875 345.1912536621094 568.32421875 C 343.9562683105469 568.5804443359375 342.4015197753906 569.0507202148438 343.1357727050781 571.131103515625" stroke-width="0.0" fill="rgb(255, 255, 255)" opacity="0.7447216"/>
    <path d="M 33.58690643310547 325.48797607421875 C 34.252357482910156 326.0501708984375 34.65104675292969 326.3289489746094 32.9739875793457 325.13189697265625 C 34.470088958740234 325.1842346191406 34.19727325439453 323.41839599609375 33.8235969543457 322.914306640625 C 31.807764053344727 322.5294494628906 31.76752281188965 323.8824462890625 31.017940521240234 321.68939208984375 C 30.496910095214844 319.7129821777344 29.828386306762695 320.7293395996094 33.58690643310547 325.48797607421875" stroke-width="0.0" fill="rgb(255, 255, 255)" opacity="0.72099996"/>
    <path d="M 256.4497985839844 587.0103759765625 C 254.51583862304688 588.9174194335938 254.9013214111328 589.2152709960938 252.724365234375 588.8273315429688 C 250.6809844970703 587.95654296875 250.97889709472656 586.5532836914062 251.01089477539062 584.9474487304688 C 251.41473388671875 584.1869506835938 250.27066040039062 583.2521362304688 251.6193389892578 581.6587524414062 C 251.90443420410156 583.5186767578125 252.97103881835938 582.870849609375 256.4497985839844 587.0103759765625" stroke-width="0.0" fill="rgb(255, 255, 255)" opacity="0.6544272"/>
    <path d="M 42.809444427490234 565.1629638671875 C 44.46635818481445 562.2020263671875 43.56826400756836 562.3361206054688 43.31599044799805 564.3613891601562 C 41.888248443603516 563.4656982421875 40.83903121948242 564.4383544921875 40.05287170410156 564.6259765625 C 38.123191833496094 563.7359619140625 35.658416748046875 564.68408203125 37.8283805847168 566.173095703125 C 36.91755676269531 564.406494140625 34.765594482421875 563.0719604492188 42.809444427490234 565.1629638671875" stroke-width="0.0" fill="rgb(255, 255, 255)" opacity="0.7619157"/>
    <path d="M 234.57470703125 588.24951171875 C 236.000732421875 585.8153686523438 237.28700256347656 585.0603637695312 236.9542999267578 587.0861206054688 C 235.05308532714844 587.4937744140625 235.6693572998047 585.0348510742188 237.79869079589844 583.7562255859375 C 239.46142578125 583.7774658203125 240.63360595703125 584.4324951171875 241.2715301513672 586.3392333984375 C 239.00343322753906 589.4191284179688 236.24916076660156 587.4234619140625 234.57470703125 588.24951171875" stroke-width="0.0" fill="rgb(255, 255, 255)" opacity="0.677175"/>
    <path d="M 8.430852890014648 537.5052490234375 C 8.519728660583496 536.7587890625 9.891886711120605 538.1701049804688 9.281021118164062 537.1406860351562 C 9.442852020263672 538.5565795898438 7.587827682495117 538.1867065429688 7.981537342071533 538.5704345703125 C 7.472695350646973 537.7757568359375 8.095827102661133 539.0590209960938 9.42841625213623 537.2723388671875 C 11.92841911315918 535.8811645507812 12.019979476928711 536.4623413085938 8.430852890014648 537.5052490234375" stroke-width="0.0" fill="rgb(255, 255, 255)" opacity="0.8031595"/>
    <path d="M 270.0512390136719 598.2782592773438 C 269.6714782714844 599.7478637695312 267.99664306640625 599.707763671875 267.2707824707031 596.6405029296875 C 268.4985046386719 598.0609130859375 268.44305419921875 598.18212890625 266.3318786621094 596.792724609375 C 267.15472412109375 597.27392578125 267.0028381347656 597.3570556640625 268.7162170410156 597.0135498046875 C 269.9910583496094 596.9646606445312 267.70196533203125 597.9049682617188 270.0512390136719 598.2782592773438" stroke-width="0.0" fill="rgb(255, 255, 255)" opacity="0.7691145"/>
    <path d="M 591.1956787109375 577.8477783203125 C 589.862060546875 577.3773193359375 588.2440185546875 576.3880615234375 587.8092651367188 577.2283325195312 C 588.9189453125 579.1267700195312 587.1915893554688 578.5870361328125 588.9657592773438 577.7174072265625 C 588.8318481445312 576.5162963867188 590.5084228515625 577.3062744140625 592.88427734375 578.7281494140625 C 592.8702392578125 580.3289184570312 594.7879638671875 580.0149536132812 591.1956787109375 577.8477783203125" stroke-width="0.0" fill="rgb(255, 255, 255)" opacity="0.80436224"/>
    <path d="M 541.4956665039062 594.6377563476562 C 542.1994018554688 596.290283203125 541.3475341796875 598.09375 540.6614379882812 600.3615112304688 C 542.3766479492188 600.0689086914062 540.4509887695312 601.9390258789062 542.5977783203125 602.2916259765625 C 543.6137084960938 602.7401123046875 542.01416015625 603.2955932617188 544.2554931640625 605.291015625 C 542.13525390625 604.1365966796875 542.1640014648438 602.4712524414062 541.4956665039062 594.6377563476562" stroke-width="0.0" fill="rgb(255, 255, 255)" opacity="0.754843"/>
    <path d="M 561.7135009765625 585.9154052734375 C 559.3839721679688 587.2369995117188 562.6550903320312 586.5733642578125 562.0502319335938 587.8395385742188 C 563.6192016601562 586.1844482421875 563.1181030273438 585.3148803710938 562.7310791015625 584.5430297851562 C 562.8935546875 585.1487426757812 564.5244140625 583.0030517578125 565.0839233398438 583.4632568359375 C 566.498046875 584.119873046875 565.113525390625 582.00146484375 561.7135009765625 585.9154052734375" stroke-width="0.0" fill="rgb(255, 255, 255)" opacity="0.7699513"/>
    <path d="M 22.824459075927734 327.3816833496094 C 23.591262817382812 325.9695739746094 23.32265853881836 327.7579040527344 25.616573333740234 326.65484619140625 C 22.9467716217041 325.3846435546875 23.91838264465332 323.8946838378906 25.10139274597168 324.9586486816406 C 23.4747257232666 324.1676025390625 21.33228302001953 321.8028564453125 20.546098709106445 321.1872253417969 C 23.330120086669922 320.407958984375 23.33353614807129 320.4355773925781 22.824459075927734 327.3816833496094" stroke-width="0.0" fill="rgb(255, 255, 255)" opacity="0.69746476"/>
    <path d="M 26.775978088378906 538.56787109375 C 24.3684024810791 537.7761840820312 21.95207977294922 538.5253295898438 22.02804946899414 537.4277954101562 C 22.34954261779785 535.5768432617188 21.48831558227539 535.0150146484375 20.608442306518555 537.0286254882812 C 22.304025650024414 539.29345703125 23.080015182495117 538.2080078125 21.128652572631836 539.1431274414062 C 18.696857452392578 538.4169921875 19.345993041992188 537.1592407226562 26.775978088378906 538.56787109375" stroke-width="0.0" fill="rgb(255, 255, 255)" opacity="0.7465612"/>
    <path d="M 61.89501953125 577.2424926757812 C 62.01604461669922 578.8280639648438 60.91033172607422 578.2348022460938 61.04762649536133 578.8782958984375 C 60.98122024536133 578.4600219726562 63.133514404296875 581.2365112304688 62.255821228027344 580.2000122070312 C 62.64945983886719 579.6265258789062 61.68601608276367 581.1847534179688 62.36173629760742 580.15673828125 C 60.03281021118164 578.166015625 61.8296012878418 579.4978637695312 61.89501953125 577.2424926757812" stroke-width="0.0" fill="rgb(255, 255, 255)" opacity="0.7859425"/>
    <path d="M 18.819499969482422 283.23199462890625 C 20.71548843383789 281.4690856933594 19.891796112060547 279.1772766113281 19.766511917114258 277.6219177246094 C 16.907150268554688 280.0884094238281 17.62042236328125 281.74639892578125 18.881643295288086 282.19757080078125 C 21.423419952392578 283.618896484375 23.03077507019043 284.4600524902344 21.545326232910156 286.71124267578125 C 21.509815216064453 285.21368408203125 21.506025314331055 286.5145263671875 18.819499969482422 283.23199462890625" stroke-width="0.0" fill="rgb(255, 255, 255)" opacity="0.6513555"/>
    <path d="M 11.061429023742676 279.4209289550781 C 11.660016059875488 281.2131652832031 11.81422233581543 279.8028259277344 10.067296028137207 279.9798889160156 C 11.574376106262207 280.71270751953125 9.36538314819336 279.3594665527344 8.77048397064209 280.240478515625 C 5.669597148895264 277.34478759765625 5.1571478843688965 277.0308532714844 6.413180351257324 274.63232421875 C 7.589085102081299 276.111083984375 6.354819297790527 274.63299560546875 11.061429023742676 279.4209289550781" stroke-width="0.0" fill="rgb(255, 255, 255)" opacity="0.6799446"/>
    <path d="M 244.87423706054688 594.7517700195312 C 246.13539123535156 594.1842651367188 246.17608642578125 592.200439453125 245.67935180664062 591.232177734375 C 245.76495361328125 592.7720947265625 247.88751220703125 591.2320556640625 245.27517700195312 592.1499633789062 C 244.62379455566406 590.6179809570312 245.7899932861328 591.3157348632812 244.766845703125 592.4959716796875 C 245.67616271972656 595.352783203125 246.2018280029297 593.595458984375 244.87423706054688 594.7517700195312" stroke-width="0.0" fill="rgb(255, 255, 255)" opacity="0.7948154"/>
    <path d="M 14.920863151550293 293.5433349609375 C 15.795147895812988 292.1331481933594 13.409213066101074 291.482177734375 13.677727699279785 289.21063232421875 C 13.327733993530273 290.87811279296875 12.073831558227539 291.8192138671875 12.12937068939209 289.8324890136719 C 11.293251991271973 291.6904602050781 13.205056190490723 291.15618896484375 11.882874488830566 290.0547180175781 C 15.777690887451172 289.2444152832031 15.074127197265625 290.0621643066406 14.920863151550293 293.5433349609375" stroke-width="0.0" fill="rgb(255, 255, 255)" opacity="0.7129757"/>
    <path d="M 27.454877853393555 278.2486877441406 C 28.994335174560547 276.9832458496094 30.47179412841797 275.53326416015625 28.111804962158203 277.2442932128906 C 27.217464447021484 274.9526062011719 28.662250518798828 274.4856262207031 29.67789077758789 275.1241455078125 C 27.61696434020996 274.55712890625 26.02947425842285 274.1861572265625 27.923254013061523 274.876708984375 C 28.22394561767578 274.1349182128906 30.78986930847168 275.9495849609375 27.454877853393555 278.2486877441406" stroke-width="0.0" fill="rgb(255, 255, 255)" opacity="0.81599766"/>
    <path d="M 329.9064025878906 587.55810546875 C 328.7191162109375 586.79345703125 330.6261901855469 587.814697265625 331.36224365234375 589.1864624023438 C 330.18328857421875 587.7874145507812 331.3343505859375 586.6636962890625 332.9869689941406 584.6302490234375 C 332.6799621582031 585.677490234375 331.1051025390625 585.5997314453125 331.8704528808594 584.177978515625 C 333.3221435546875 582.9534912109375 333.6513671875 581.2463989257812 329.9064025878906 587.55810546875" stroke-width="0.0" fill="rgb(255, 255, 255)" opacity="0.76269543"/>
    <path d="M 295.97479248046875 574.261474609375 C 296.3348693847656 573.1421508789062 294.26885986328125 574.950439453125 295.495361328125 574.0386352539062 C 296.4507141113281 573.39697265625 296.7086486816406 574.7327270507812 296.43316650390625 574.3330688476562 C 296.7867431640625 574.3574829101562 296.6017761230469 574.1227416992188 295.95916748046875 573.8857421875 C 297.2996826171875 572.4553833007812 297.67974853515625 571.1387329101562 295.97479248046875 574.261474609375" stroke-width="0.0" fill="rgb(255, 255, 255)" opacity="0.9394193"/>
    <path d="M 596.8619995117188 575.021484375 C 598.2275390625 576.6690063476562 597.85302734375 576.09326171875 598.054443359375 574.9701538085938 C 599.3109130859375 575.0971069335938 599.3382568359375 576.0221557617188 598.3921508789062 577.9833374023438 C 598.1886596679688 578.2958984375 597.1737670898438 575.8494262695312 597.9811401367188 577.5093994140625 C 599.3323974609375 578.683349609375 598.6784057617188 577.0595092773438 596.8619995117188 575.021484375" stroke-width="0.0" fill="rgb(255, 255, 255)" opacity="0.77275646"/>
    <path d="M 40.27741241455078 280.0877380371094 C 38.11074447631836 279.8061218261719 38.684486389160156 280.3175964355469 40.6308708190918 280.2740478515625 C 38.19089126586914 280.21282958984375 39.437652587890625 280.2420654296875 39.92319107055664 279.6098937988281 C 38.126922607421875 280.7556457519531 38.34444808959961 282.5643310546875 38.70322799682617 280.71051025390625 C 40.49897003173828 281.73431396484375 39.54485321044922 280.582763671875 40.27741241455078 280.0877380371094" stroke-width="0.0" fill="rgb(255, 255, 255)" opacity="0.81604606"/>
    <path d="M 19.331785202026367 271.0719909667969 C 18.517160415649414 268.8420715332031 17.907978057861328 267.0836486816406 18.30533218383789 268.3713684082031 C 17.629968643188477 268.58599853515625 17.333921432495117 268.19775390625 17.263338088989258 268.6208801269531 C 17.85151481628418 267.8319396972656 18.907194137573242 268.6674499511719 18.823476791381836 270.1072082519531 C 17.0330867767334 269.7906799316406 14.930798530578613 271.00067138671875 19.331785202026367 271.0719909667969" stroke-width="0.0" fill="rgb(255, 255, 255)" opacity="0.76869065"/>
    <path d="M 26.985502243041992 534.9240112304688 C 26.95717430114746 535.0509033203125 26.956207275390625 535.1246337890625 26.97494125366211 534.953857421875 C 26.26407814025879 533.8447265625 23.822402954101562 531.4658813476562 23.206096649169922 530.6695556640625 C 22.30108642578125 531.662109375 20.377676010131836 530.727294921875 21.025428771972656 530.2528686523438 C 20.9506778717041 528.3758544921875 20.245285034179688 527.2769165039062 26.985502243041992 534.9240112304688" stroke-width="0.0" fill="rgb(255, 255, 255)" opacity="0.7369455"/>
    <path d="M 288.63031005859375 597.4738159179688 C 291.0232238769531 598.719970703125 290.86480712890625 600.2752075195312 293.09185791015625 600.7431030273438 C 292.2124328613281 598.1838989257812 291.94561767578125 599.7237548828125 294.63238525390625 601.8662109375 C 295.1321105957031 599.3523559570312 292.2137451171875 598.4111938476562 291.9251403808594 597.73681640625 C 291.84814453125 596.2575073242188 293.5971374511719 596.2285766601562 288.63031005859375 597.4738159179688" stroke-width="0.0" fill="rgb(255, 255, 255)" opacity="0.758422"/>
    <path d="M 41.786109924316406 318.9095458984375 C 40.81867599487305 319.48760986328125 40.408851623535156 318.6921081542969 42.28350830078125 316.64190673828125 C 41.32303237915039 316.8468017578125 41.90669631958008 318.5589294433594 39.100711822509766 319.6615905761719 C 40.39649200439453 319.1829528808594 38.55030822753906 319.42169189453125 40.49697494506836 320.212158203125 C 40.73275375366211 319.9382019042969 42.518280029296875 320.3440246582031 41.786109924316406 318.9095458984375" stroke-width="0.0" fill="rgb(255, 255, 255)" opacity="0.7998654"/>
  </g>
</svg>
