<?xml version="1.0" ?>
<svg xmlns="http://www.w3.org/2000/svg" version="1.1" width="600" height="600">
  <defs/>
  <g>
    <path d="M 266.3514099121094 7.74229621887207 C 265.73468017578125 6.506443023681641 265.7424011230469 4.870241641998291 265.2474365234375 4.873851299285889 C 266.5833740234375 5.371081352233887 263.79766845703125 6.587324619293213 265.342041015625 8.240904808044434 C 267.96295166015625 6.940052032470703 269.6719055175781 5.415272235870361 270.1400451660156 3.973850727081299 C 270.3647766113281 3.5576236248016357 269.95135498046875 5.64682149887085 266.3514099121094 7.74229621887207" stroke-width="0.0" fill="rgb(255, 255, 255)" opacity="0.7511641"/>
    <path d="M 227.24456787109375 12.469123840332031 C 228.40762329101562 10.776808738708496 229.8926239013672 8.2926664352417 228.49917602539062 6.724979400634766 C 228.4320068359375 6.828060626983643 228.00274658203125 5.758490085601807 225.37562561035156 6.090910911560059 C 224.53561401367188 1.8118892908096313 224.1741485595703 2.4173989295959473 223.80462646484375 1.2781895399093628 C 224.62014770507812 1.52705717086792 224.55104064941406 3.131014108657837 227.24456787109375 12.469123840332031" stroke-width="0.0" fill="rgb(255, 255, 255)" opacity="0.6333231"/>
    <path d="M 581.3712158203125 145.74508666992188 C 583.4113159179688 140.8818359375 579.9593505859375 140.01206970214844 580.41943359375 141.22030639648438 C 579.9609985351562 141.69979858398438 580.1119384765625 142.7748260498047 579.0132446289062 140.76229858398438 C 578.3938598632812 139.61358642578125 578.9749755859375 138.01905822753906 579.1157836914062 138.8272247314453 C 578.5975341796875 139.0989990234375 577.5119018554688 138.8992156982422 581.3712158203125 145.74508666992188" stroke-width="0.0" fill="rgb(63, 63, 63)" opacity="0.79588336"/>
    <path d="M 246.1059112548828 521.2316284179688 C 244.70870971679688 503.93243408203125 247.11460876464844 507.5331115722656 246.93507385253906 517.2935180664062 C 246.59083557128906 522.6978759765625 248.10971069335938 525.48779296875 248.88185119628906 526.147216796875 C 251.51028442382812 525.1776123046875 253.3417205810547 527.016845703125 253.99072265625 528.1161499023438 C 254.8577423095703 528.603515625 255.567626953125 529.5260620117188 246.1059112548828 521.2316284179688" stroke-width="0.0" fill="rgb(201, 201, 200)" opacity="1.0"/>
    <path d="M 346.4000549316406 69.18344116210938 C 345.0491943359375 67.7581787109375 345.4747009277344 66.90446472167969 344.2103271484375 66.46135711669922 C 341.6441955566406 65.88465118408203 342.3426208496094 64.60905456542969 341.1326904296875 65.93260192871094 C 341.8558654785156 65.61445617675781 342.5071105957031 64.7577133178711 341.2471923828125 64.09835815429688 C 340.2359619140625 64.88420867919922 339.9115905761719 61.70478057861328 346.4000549316406 69.18344116210938" stroke-width="0.0" fill="rgb(255, 255, 255)" opacity="0.71920216"/>
    <path d="M 475.08544921875 31.028505325317383 C 476.6582946777344 31.507043838500977 477.7448425292969 30.013948440551758 478.1199951171875 32.04215621948242 C 477.7743835449219 32.92233657836914 475.8471374511719 34.99842071533203 474.93109130859375 35.14148712158203 C 474.9993896484375 35.398338317871094 472.7079772949219 34.886192321777344 472.9323425292969 34.833919525146484 C 472.5250244140625 32.520835876464844 475.0657043457031 32.27204513549805 475.08544921875 31.028505325317383" stroke-width="0.0" fill="rgb(255, 255, 255)" opacity="0.6813412"/>
    <path d="M 239.72207641601562 102.62797546386719 C 219.30810546875 109.37950897216797 230.72154235839844 84.53829193115234 210.62875366210938 84.81351470947266 C 191.7322540283203 74.38275909423828 223.5574493408203 95.465576171875 252.88858032226562 46.45452117919922 C 189.4852752685547 43.48683547973633 179.5965118408203 56.144813537597656 184.8663787841797 85.65178680419922 C 236.94134521484375 77.10964965820312 228.05950927734375 65.1008071899414 239.72207641601562 102.62797546386719" stroke-width="0.0" fill="rgb(35, 35, 35)" opacity="0.9321492"/>
    <path d="M 80.01701354980469 241.6021270751953 C 49.90049362182617 243.24307250976562 45.01975631713867 244.44003295898438 43.913421630859375 296.803466796875 C 87.50839233398438 287.9102478027344 82.55611419677734 270.5491027832031 62.25016784667969 289.2830505371094 C 74.80426025390625 283.454833984375 90.73343658447266 276.763427734375 103.73776245117188 270.2655029296875 C 98.8268051147461 256.40728759765625 94.84892272949219 252.13600158691406 80.01701354980469 241.6021270751953" stroke-width="0.0" fill="rgb(10, 10, 10)" opacity="0.9725141"/>
    <path d="M 20.006181716918945 176.65365600585938 C 18.600543975830078 175.85174560546875 21.523656845092773 177.35067749023438 21.20737648010254 178.11378479003906 C 22.55070686340332 176.5631561279297 23.555768966674805 179.11367797851562 22.48484230041504 177.5167236328125 C 24.188222885131836 177.0691680908203 21.70136260986328 177.88687133789062 19.948575973510742 178.08367919921875 C 20.525827407836914 179.87208557128906 19.724742889404297 179.5870819091797 20.006181716918945 176.65365600585938" stroke-width="0.0" fill="rgb(255, 255, 255)" opacity="0.77871966"/>
    <path d="M 132.07589721679688 453.8936767578125 C 131.7677764892578 456.3737487792969 132.01406860351562 457.6421203613281 133.728759765625 456.96905517578125 C 135.0584716796875 458.8821716308594 133.25518798828125 457.0925598144531 134.0727996826172 454.98297119140625 C 137.81361389160156 455.8533935546875 136.9837646484375 453.2246398925781 137.9949951171875 453.8151550292969 C 137.9263458251953 453.412841796875 139.22100830078125 454.10797119140625 132.07589721679688 453.8936767578125" stroke-width="0.0" fill="rgb(255, 255, 255)" opacity="0.7190294"/>
    <path d="M 231.81417846679688 476.8844909667969 C 229.77996826171875 475.1470642089844 231.95440673828125 474.1162109375 230.5769805908203 474.7012023925781 C 229.97633361816406 476.73858642578125 230.1016387939453 475.7449951171875 229.6696014404297 474.28912353515625 C 232.04441833496094 475.2101135253906 230.43313598632812 474.22186279296875 231.16751098632812 472.1138610839844 C 229.0708770751953 471.58319091796875 226.80728149414062 472.1248474121094 231.81417846679688 476.8844909667969" stroke-width="0.0" fill="rgb(255, 255, 255)" opacity="0.77665186"/>
    <path d="M 252.44285583496094 365.3757019042969 C 299.1363830566406 348.2994689941406 308.71630859375 325.1933288574219 332.3602600097656 324.6750183105469 C 301.4927062988281 359.2063903808594 288.8310852050781 355.6979064941406 293.8126525878906 356.3840026855469 C 301.0311584472656 351.5557556152344 299.8890075683594 355.9980163574219 288.1092224121094 362.953857421875 C 280.9017639160156 382.0958251953125 260.08807373046875 397.26300048828125 252.44285583496094 365.3757019042969" stroke-width="0.0" fill="rgb(10, 10, 10)" opacity="0.98472327"/>
    <path d="M 126.38928985595703 504.4809875488281 C 128.05755615234375 504.13116455078125 128.8511962890625 505.77410888671875 130.37554931640625 504.5215148925781 C 129.57911682128906 505.6703796386719 131.3849334716797 507.7460632324219 129.9957275390625 505.6129455566406 C 129.5594940185547 507.29840087890625 130.9428253173828 504.74237060546875 129.72874450683594 505.470703125 C 130.5408935546875 504.880615234375 131.918701171875 505.21417236328125 126.38928985595703 504.4809875488281" stroke-width="0.0" fill="rgb(255, 255, 255)" opacity="0.77676344"/>
    <path d="M 313.5890808105469 22.744524002075195 C 312.0546569824219 21.126039505004883 313.1929626464844 22.192689895629883 314.2428894042969 23.950191497802734 C 313.2019348144531 24.137104034423828 314.65679931640625 26.197776794433594 315.1186218261719 26.849346160888672 C 315.1997375488281 28.801776885986328 313.0893249511719 27.804853439331055 310.7633972167969 27.940536499023438 C 311.8932189941406 25.74782371520996 309.2059020996094 24.629905700683594 313.5890808105469 22.744524002075195" stroke-width="0.0" fill="rgb(255, 255, 255)" opacity="0.6935344"/>
    <path d="M 112.24339294433594 126.60919952392578 C 119.0086669921875 111.27925872802734 105.59925842285156 108.31336212158203 94.35645294189453 75.14044952392578 C 92.538330078125 70.322265625 76.32707214355469 71.6806640625 46.536338806152344 85.89212036132812 C 47.784881591796875 118.7076644897461 55.9101448059082 101.41358184814453 69.03950500488281 97.61164093017578 C 76.5838851928711 93.91840362548828 64.11356353759766 115.75846099853516 112.24339294433594 126.60919952392578" stroke-width="0.0" fill="rgb(36, 36, 36)" opacity="0.88847625"/>
    <path d="M 208.86373901367188 308.7823181152344 C 206.84072875976562 317.0657958984375 211.08216857910156 318.903564453125 205.7508544921875 330.2261657714844 C 188.86331176757812 339.08294677734375 184.56838989257812 346.5802001953125 163.6009979248047 350.25054931640625 C 167.59580993652344 317.8706970214844 178.6720733642578 314.9734802246094 185.68540954589844 301.92584228515625 C 204.9969482421875 294.72210693359375 205.41978454589844 301.2001953125 208.86373901367188 308.7823181152344" stroke-width="0.0" fill="rgb(20, 20, 20)" opacity="0.93817383"/>
    <path d="M 527.2108154296875 78.61923217773438 C 527.8751220703125 78.06334686279297 526.9840698242188 77.59115600585938 527.6517333984375 78.20904541015625 C 527.8114013671875 79.02233123779297 529.1212768554688 76.22797393798828 529.9851684570312 77.03217315673828 C 529.45166015625 77.10371398925781 529.65966796875 75.43265533447266 529.43212890625 77.2933578491211 C 530.3069458007812 74.91305541992188 531.057861328125 75.8445053100586 527.2108154296875 78.61923217773438" stroke-width="0.0" fill="rgb(255, 255, 255)" opacity="0.8197901"/>
    <path d="M 235.38787841796875 91.73045349121094 C 217.006103515625 89.67501068115234 233.87368774414062 101.20854949951172 185.62088012695312 102.93560791015625 C 182.27603149414062 124.45621490478516 190.11099243164062 112.76860046386719 203.06369018554688 115.44828796386719 C 223.48617553710938 112.05410766601562 228.52064514160156 114.0537109375 238.06097412109375 113.13404846191406 C 247.44505310058594 111.31476593017578 245.54861450195312 120.53858947753906 235.38787841796875 91.73045349121094" stroke-width="0.0" fill="rgb(0, 0, 0)" opacity="0.99911124"/>
    <path d="M 254.0865936279297 563.3394775390625 C 252.3925018310547 487.40325927734375 247.15708923339844 488.3636474609375 184.66580200195312 489.81170654296875 C 181.52581787109375 525.5604858398438 206.21456909179688 511.908447265625 223.01492309570312 554.75439453125 C 235.02700805664062 562.8848266601562 230.26296997070312 553.0662841796875 207.96937561035156 545.6074829101562 C 207.5481414794922 533.1893920898438 192.78602600097656 546.8943481445312 254.0865936279297 563.3394775390625" stroke-width="0.0" fill="rgb(16, 16, 16)" opacity="0.9984901"/>
    <path d="M 114.0560531616211 30.121183395385742 C 110.16028594970703 29.355749130249023 105.0190658569336 34.71966552734375 108.66692352294922 59.59674072265625 C 145.85829162597656 55.84123611450195 143.22061157226562 41.157222747802734 136.2853546142578 28.7397518157959 C 121.99008178710938 26.671842575073242 126.10954284667969 29.936115264892578 139.255615234375 31.915197372436523 C 118.72997283935547 26.097753524780273 116.95551300048828 32.83441162109375 114.0560531616211 30.121183395385742" stroke-width="0.0" fill="rgb(109, 109, 110)" opacity="1.0"/>
    <path d="M 288.5346374511719 33.2645149230957 C 287.4735412597656 31.435054779052734 284.5813903808594 29.707073211669922 285.3443603515625 29.70849609375 C 282.8674621582031 30.834365844726562 281.0692443847656 29.75642967224121 280.30523681640625 26.623620986938477 C 280.3535461425781 28.73024559020996 281.75537109375 27.250459671020508 283.615234375 28.37555694580078 C 282.1862487792969 27.764310836791992 282.8228454589844 31.249319076538086 288.5346374511719 33.2645149230957" stroke-width="0.0" fill="rgb(255, 255, 255)" opacity="0.658968"/>
    <path d="M 210.3436279296875 270.1072082519531 C 247.45147705078125 280.9223327636719 223.28440856933594 267.4517822265625 229.9833221435547 262.8484191894531 C 247.12782287597656 261.135498046875 245.2974090576172 261.41778564453125 249.89089965820312 259.77728271484375 C 253.91357421875 255.98345947265625 262.7408142089844 272.5517578125 246.56454467773438 302.660888671875 C 227.4169158935547 252.21316528320312 208.42738342285156 232.39710998535156 210.3436279296875 270.1072082519531" stroke-width="0.0" fill="rgb(31, 31, 31)" opacity="0.961086"/>
    <path d="M 461.2004699707031 498.31573486328125 C 463.3088684082031 496.3263854980469 462.1679992675781 494.5811767578125 459.53045654296875 492.0466613769531 C 457.3791198730469 491.9388732910156 456.7356262207031 492.3015441894531 455.9990234375 491.81036376953125 C 454.38934326171875 491.6587219238281 456.55413818359375 492.35211181640625 456.0493469238281 489.94512939453125 C 452.432373046875 489.4045715332031 452.3020324707031 490.6221618652344 461.2004699707031 498.31573486328125" stroke-width="0.0" fill="rgb(255, 255, 255)" opacity="0.62351674"/>
    <path d="M 265.19146728515625 346.93267822265625 C 264.56005859375 347.2765808105469 266.6473693847656 346.8800354003906 266.0079345703125 344.9322509765625 C 267.6756591796875 345.0672302246094 268.2849426269531 344.4007873535156 267.5104064941406 344.88348388671875 C 265.7451477050781 342.8377990722656 267.7037658691406 344.4570007324219 267.28912353515625 346.051513671875 C 268.5467834472656 344.7642517089844 269.6300964355469 343.6671447753906 265.19146728515625 346.93267822265625" stroke-width="0.0" fill="rgb(255, 255, 255)" opacity="0.8011261"/>
    <path d="M 365.21051025390625 80.22611999511719 C 365.2112121582031 81.37957000732422 365.4344482421875 83.03520202636719 364.9407043457031 84.54766845703125 C 363.5809020996094 84.92518615722656 365.27569580078125 85.09725189208984 362.8186340332031 83.66313934326172 C 363.5729675292969 85.45022583007812 361.7804260253906 85.37010955810547 363.19036865234375 84.90312957763672 C 364.5323181152344 84.60354614257812 365.6054382324219 85.49402618408203 365.21051025390625 80.22611999511719" stroke-width="0.0" fill="rgb(255, 255, 255)" opacity="0.79531795"/>
    <path d="M 89.9094009399414 250.55557250976562 C 82.68543243408203 274.13446044921875 88.88923645019531 271.28875732421875 108.15069580078125 270.2300109863281 C 109.36477661132812 265.96337890625 106.21285247802734 275.07977294921875 85.38340759277344 274.5948486328125 C 92.53319549560547 266.6638488769531 117.46489715576172 278.0728454589844 116.96438598632812 255.84677124023438 C 111.30870056152344 255.07667541503906 118.53488159179688 252.61434936523438 89.9094009399414 250.55557250976562" stroke-width="0.0" fill="rgb(9, 9, 9)" opacity="0.92195785"/>
    <path d="M 360.0980529785156 70.09181213378906 C 359.3228759765625 70.77743530273438 358.2096862792969 68.88077545166016 359.4050598144531 67.88381958007812 C 359.0145568847656 64.86845397949219 358.1699523925781 64.17959594726562 358.7227783203125 66.47459411621094 C 358.433837890625 63.52613830566406 357.6230163574219 63.98142623901367 357.40362548828125 65.1581039428711 C 357.7641906738281 63.900413513183594 358.2750244140625 62.989540100097656 360.0980529785156 70.09181213378906" stroke-width="0.0" fill="rgb(255, 255, 255)" opacity="0.741794"/>
    <path d="M 138.041259765625 86.16867065429688 C 118.43140411376953 81.3043441772461 119.94792938232422 70.48519897460938 109.42839050292969 82.08151245117188 C 116.72981262207031 90.33824157714844 119.83576202392578 85.18629455566406 126.65159606933594 88.41658020019531 C 140.56912231445312 86.36385345458984 144.6472930908203 88.35487365722656 119.57174682617188 80.24261474609375 C 120.7789306640625 65.32929992675781 145.8726043701172 63.58942413330078 138.041259765625 86.16867065429688" stroke-width="0.0" fill="rgb(38, 38, 38)" opacity="0.895525"/>
    <path d="M 493.6361083984375 451.3553771972656 C 492.4453430175781 450.3614196777344 490.6972961425781 451.3027648925781 489.1708068847656 452.6720886230469 C 489.5250549316406 451.92523193359375 489.5035095214844 452.12548828125 492.091552734375 452.033935546875 C 491.1922912597656 452.0615539550781 493.2291564941406 452.5533752441406 493.074951171875 450.8343200683594 C 492.3526916503906 450.7825927734375 491.1861267089844 449.57208251953125 493.6361083984375 451.3553771972656" stroke-width="0.0" fill="rgb(255, 255, 255)" opacity="0.74220943"/>
    <path d="M 45.38591384887695 254.39088439941406 C 50.975643157958984 252.0440216064453 52.5064582824707 251.27645874023438 50.50288009643555 249.31512451171875 C 57.87994384765625 252.81692504882812 65.76895904541016 248.86273193359375 51.57173538208008 266.1758728027344 C 42.031700134277344 258.07354736328125 49.94257354736328 248.73362731933594 55.80751419067383 245.62147521972656 C 59.210777282714844 244.45266723632812 53.699851989746094 244.6512908935547 45.38591384887695 254.39088439941406" stroke-width="0.0" fill="rgb(165, 165, 164)" opacity="1.0"/>
    <path d="M 154.6315155029297 530.1510009765625 C 153.3007049560547 532.1173095703125 153.06871032714844 531.6754760742188 152.58583068847656 531.670166015625 C 154.43336486816406 531.8756713867188 154.70127868652344 532.6277465820312 153.56234741210938 531.5508422851562 C 154.91357421875 530.5682983398438 154.24948120117188 529.3836669921875 155.23667907714844 531.0292358398438 C 157.64544677734375 530.3569946289062 157.87850952148438 530.3593139648438 154.6315155029297 530.1510009765625" stroke-width="0.0" fill="rgb(255, 255, 255)" opacity="0.7524602"/>
    <path d="M 448.3716735839844 45.403160095214844 C 446.8829040527344 44.06136703491211 448.8323059082031 43.0263557434082 451.61968994140625 45.13309860229492 C 449.95751953125 44.17836380004883 450.7821960449219 43.594173431396484 452.2515869140625 44.084197998046875 C 453.1179504394531 41.962852478027344 452.7436218261719 42.40407180786133 451.7694091796875 45.187225341796875 C 449.826904296875 44.768836975097656 450.6236877441406 43.59859085083008 448.3716735839844 45.403160095214844" stroke-width="0.0" fill="rgb(255, 255, 255)" opacity="0.75643224"/>
    <path d="M 140.4365692138672 414.09942626953125 C 128.7657928466797 371.5812683105469 137.7404022216797 377.4393615722656 144.64337158203125 364.1041259765625 C 144.08790588378906 367.963623046875 140.92637634277344 368.2695617675781 157.11314392089844 352.1761779785156 C 166.79527282714844 359.4908752441406 164.48886108398438 362.2260437011719 179.135986328125 362.01776123046875 C 174.9630584716797 418.6927795410156 175.6487274169922 422.31402587890625 140.4365692138672 414.09942626953125" stroke-width="0.0" fill="rgb(15, 15, 15)" opacity="0.97273606"/>
    <path d="M 65.52711486816406 30.856895446777344 C 56.156829833984375 43.3960075378418 51.863616943359375 44.84455871582031 89.29242706298828 44.634620666503906 C 101.15816497802734 34.764244079589844 99.73605346679688 9.986135482788086 86.15092468261719 7.681899070739746 C 59.02861022949219 34.679866790771484 60.3004035949707 44.74067306518555 56.61363220214844 37.53174591064453 C 55.96942901611328 27.863914489746094 74.69336700439453 28.56621551513672 65.52711486816406 30.856895446777344" stroke-width="0.0" fill="rgb(12, 12, 12)" opacity="0.994141"/>
    <path d="M 117.01215362548828 267.55926513671875 C 118.4666976928711 242.36753845214844 114.02469635009766 245.97315979003906 108.30542755126953 246.3562469482422 C 108.73829650878906 246.70704650878906 112.08222198486328 246.5950164794922 82.5469741821289 251.86434936523438 C 83.34124755859375 268.5863952636719 93.7082748413086 266.6224365234375 88.09081268310547 270.8800048828125 C 86.06964111328125 258.0964050292969 88.06684875488281 268.0637512207031 117.01215362548828 267.55926513671875" stroke-width="0.0" fill="rgb(0, 0, 0)" opacity="0.96661407"/>
    <path d="M 449.6476135253906 25.890945434570312 C 451.17120361328125 25.788978576660156 451.8638916015625 27.200998306274414 449.7281494140625 28.45779037475586 C 452.7276916503906 30.15740203857422 452.2641296386719 31.78858757019043 451.8443908691406 31.613750457763672 C 452.5245056152344 32.85515213012695 451.7100524902344 33.485382080078125 451.07611083984375 32.94915008544922 C 449.71441650390625 33.455711364746094 447.8873596191406 33.288352966308594 449.6476135253906 25.890945434570312" stroke-width="0.0" fill="rgb(255, 255, 255)" opacity="0.65575844"/>
    <path d="M 120.77752685546875 532.742919921875 C 119.67921447753906 531.6220092773438 120.00859069824219 531.0995483398438 120.18260192871094 529.2220458984375 C 121.27847290039062 529.1941528320312 121.7281494140625 527.894775390625 120.08904266357422 527.9020385742188 C 117.67762756347656 528.2042236328125 115.37332916259766 528.173583984375 116.35357666015625 526.5697631835938 C 115.49104309082031 528.15185546875 118.56967163085938 529.0671997070312 120.77752685546875 532.742919921875" stroke-width="0.0" fill="rgb(255, 255, 255)" opacity="0.7133952"/>
    <path d="M 33.53340530395508 496.9102478027344 C 33.896080017089844 494.9000244140625 35.09160232543945 493.7811279296875 34.78480911254883 492.1065979003906 C 32.937583923339844 491.7167663574219 34.371917724609375 492.2229309082031 33.89336395263672 489.7314147949219 C 32.8486328125 489.4068298339844 35.05276870727539 490.6114196777344 34.97203063964844 489.7240905761719 C 34.374298095703125 489.12451171875 36.32737731933594 488.6064147949219 33.53340530395508 496.9102478027344" stroke-width="0.0" fill="rgb(255, 255, 255)" opacity="0.76398265"/>
    <path d="M 239.62265014648438 31.081871032714844 C 240.45077514648438 30.03249740600586 240.0419921875 30.131975173950195 240.8395538330078 29.08856964111328 C 242.22325134277344 27.385581970214844 243.06417846679688 26.289865493774414 244.3846893310547 25.411890029907227 C 242.1793975830078 24.080904006958008 241.36883544921875 25.436677932739258 242.27345275878906 27.321563720703125 C 240.59957885742188 28.878074645996094 240.29522705078125 30.478065490722656 239.62265014648438 31.081871032714844" stroke-width="0.0" fill="rgb(255, 255, 255)" opacity="0.75697654"/>
    <path d="M 140.19497680664062 394.22015380859375 C 142.56031799316406 410.2142028808594 116.03722381591797 426.8050842285156 169.69155883789062 434.8713684082031 C 172.43963623046875 402.7713623046875 151.459716796875 405.87652587890625 140.5673065185547 405.51434326171875 C 137.54293823242188 394.73419189453125 135.3963623046875 397.826171875 138.35923767089844 404.7824401855469 C 138.19984436035156 393.3263854980469 137.57919311523438 394.6578369140625 140.19497680664062 394.22015380859375" stroke-width="0.0" fill="rgb(68, 67, 69)" opacity="1.0"/>
    <path d="M 14.343594551086426 370.8318786621094 C 11.20130729675293 371.2615051269531 10.07416820526123 371.47662353515625 10.291484832763672 369.7880554199219 C 10.736302375793457 367.8284912109375 11.379008293151855 369.4392395019531 13.324548721313477 369.8682556152344 C 13.639803886413574 372.196533203125 14.221941947937012 370.081298828125 12.29802417755127 369.6351623535156 C 11.597979545593262 366.4537658691406 12.994670867919922 365.03985595703125 14.343594551086426 370.8318786621094" stroke-width="0.0" fill="rgb(255, 255, 255)" opacity="0.72570246"/>
    <path d="M 16.941431045532227 212.6211395263672 C 18.17160987854004 209.70672607421875 19.046358108520508 208.13734436035156 18.123287200927734 207.26773071289062 C 18.995426177978516 208.4246368408203 18.20847511291504 207.7687530517578 18.617277145385742 208.53585815429688 C 17.930200576782227 210.50035095214844 18.956125259399414 208.38038635253906 18.384984970092773 206.33424377441406 C 18.71704864501953 207.8806610107422 18.770082473754883 208.862548828125 16.941431045532227 212.6211395263672" stroke-width="0.0" fill="rgb(255, 255, 255)" opacity="0.8406819"/>
    <path d="M 427.0893859863281 95.62249755859375 C 427.63775634765625 94.33975982666016 429.5335693359375 93.81338500976562 429.05712890625 93.85224151611328 C 428.2489013671875 93.9285659790039 427.0213928222656 96.15240478515625 427.3409423828125 95.43740844726562 C 428.79931640625 93.50188446044922 427.6502990722656 95.02949523925781 426.76397705078125 95.76763153076172 C 427.1834411621094 96.15675354003906 426.7032775878906 94.70207977294922 427.0893859863281 95.62249755859375" stroke-width="0.0" fill="rgb(255, 255, 255)" opacity="0.86788034"/>
    <path d="M 109.29419708251953 464.6817626953125 C 107.3158187866211 461.68359375 106.1173095703125 461.5581970214844 107.62245178222656 462.6481628417969 C 108.46967315673828 462.67706298828125 108.27608489990234 464.4117736816406 111.01026153564453 466.42242431640625 C 113.5088882446289 467.1026306152344 110.56816864013672 468.4634094238281 109.45687103271484 470.046142578125 C 105.33075714111328 469.7807312011719 106.64339447021484 470.0395202636719 109.29419708251953 464.6817626953125" stroke-width="0.0" fill="rgb(255, 255, 255)" opacity="0.6482879"/>
    <path d="M 282.0109558105469 386.531982421875 C 238.75772094726562 410.49847412109375 239.50868225097656 415.7397766113281 237.2634735107422 411.401123046875 C 233.44869995117188 425.8046569824219 207.0311279296875 422.0357666015625 201.35731506347656 454.6260986328125 C 242.5930633544922 456.1563415527344 242.43312072753906 435.1812438964844 256.1717529296875 422.5683898925781 C 246.84036254882812 422.5670471191406 278.8588562011719 417.4781188964844 282.0109558105469 386.531982421875" stroke-width="0.0" fill="rgb(6, 6, 6)" opacity="0.9942138"/>
    <path d="M 117.96061706542969 65.3920669555664 C 118.11699676513672 65.11620330810547 116.13229370117188 64.90021514892578 117.76835632324219 65.39636993408203 C 115.73694610595703 63.91179275512695 115.20034790039062 62.550716400146484 113.9090347290039 62.71808624267578 C 112.49988555908203 62.942848205566406 111.53984832763672 63.856788635253906 112.06410217285156 60.721893310546875 C 110.52989959716797 59.831424713134766 111.66598510742188 60.308528900146484 117.96061706542969 65.3920669555664" stroke-width="0.0" fill="rgb(255, 255, 255)" opacity="0.7199991"/>
    <path d="M 191.8696746826172 294.6500244140625 C 185.15322875976562 297.95159912109375 180.06504821777344 305.87799072265625 186.12051391601562 341.8254699707031 C 201.85787963867188 335.364501953125 206.43460083007812 332.0347900390625 216.33970642089844 328.8290710449219 C 240.8821258544922 316.599609375 251.03326416015625 331.1953125 248.6884307861328 284.59893798828125 C 182.33143615722656 286.8717956542969 185.73326110839844 292.4787292480469 191.8696746826172 294.6500244140625" stroke-width="0.0" fill="rgb(6, 6, 6)" opacity="0.9562011"/>
    <path d="M 111.43413543701172 30.121021270751953 C 111.45191192626953 41.53727722167969 115.7677993774414 51.11158752441406 88.4606704711914 41.79559326171875 C 105.49565124511719 22.745595932006836 112.62313842773438 31.072383880615234 112.57495880126953 31.495695114135742 C 113.10981750488281 27.906654357910156 110.79027557373047 26.508901596069336 112.90966033935547 26.32015609741211 C 112.39847564697266 26.17852783203125 112.78857421875 23.075653076171875 111.43413543701172 30.121021270751953" stroke-width="0.0" fill="rgb(151, 151, 151)" opacity="1.0"/>
    <path d="M 305.8536682128906 121.68663787841797 C 266.88201904296875 110.08901977539062 275.7060852050781 77.97089385986328 242.39349365234375 74.6360855102539 C 250.8848876953125 82.50020599365234 242.80613708496094 93.33109283447266 232.3328094482422 44.57902145385742 C 281.3948669433594 46.61806869506836 285.0707092285156 60.27532958984375 310.2552185058594 71.78502655029297 C 310.0195007324219 113.87227630615234 309.30078125 114.32420349121094 305.8536682128906 121.68663787841797" stroke-width="0.0" fill="rgb(6, 6, 6)" opacity="1.0"/>
    <path d="M 10.832080841064453 372.57427978515625 C 8.350500106811523 370.0224914550781 10.498950958251953 371.3185119628906 8.864234924316406 370.9326477050781 C 9.018640518188477 369.8956298828125 8.8748140335083 368.84625244140625 8.939098358154297 367.2210693359375 C 8.688008308410645 366.05682373046875 10.896122932434082 367.77703857421875 10.25269889831543 369.1461486816406 C 10.400381088256836 366.9232177734375 11.556078910827637 367.2691345214844 10.832080841064453 372.57427978515625" stroke-width="0.0" fill="rgb(255, 255, 255)" opacity="0.75973475"/>
    <path d="M 487.7113342285156 474.4471130371094 C 487.66015625 473.5093994140625 486.2471618652344 473.5872497558594 487.0455017089844 473.9012756347656 C 487.92376708984375 472.16363525390625 485.89495849609375 473.62823486328125 482.5025634765625 473.0284118652344 C 485.8143005371094 470.1390686035156 485.598388671875 469.38494873046875 485.02984619140625 468.8182373046875 C 486.89776611328125 471.957763671875 487.07977294921875 473.0376892089844 487.7113342285156 474.4471130371094" stroke-width="0.0" fill="rgb(255, 255, 255)" opacity="0.70187086"/>
    <path d="M 47.88874053955078 197.1577911376953 C 44.62061309814453 212.43893432617188 44.92291259765625 223.61366271972656 29.110984802246094 227.6790313720703 C 21.626461029052734 231.21046447753906 34.10490417480469 218.14202880859375 39.5269660949707 205.10980224609375 C 37.55408477783203 208.559326171875 37.89984893798828 209.96783447265625 40.757320404052734 206.76922607421875 C 36.02752685546875 212.84732055664062 33.18449401855469 211.88803100585938 47.88874053955078 197.1577911376953" stroke-width="0.0" fill="rgb(2, 2, 2)" opacity="1.0"/>
    <path d="M 443.3663635253906 82.58544921875 C 443.82940673828125 81.82416534423828 443.2097473144531 83.42097473144531 442.47314453125 81.95082092285156 C 440.3581237792969 81.67371368408203 438.1878967285156 80.2708511352539 439.1429443359375 79.46930694580078 C 438.4662780761719 80.18635559082031 440.6280517578125 78.34159851074219 438.9246826171875 79.68925476074219 C 439.1335754394531 81.05343627929688 439.0036315917969 80.55823516845703 443.3663635253906 82.58544921875" stroke-width="0.0" fill="rgb(255, 255, 255)" opacity="0.7774576"/>
    <path d="M 489.75067138671875 399.0788879394531 C 490.3373718261719 400.2578125 490.2975158691406 400.7524719238281 489.5310974121094 402.2845153808594 C 490.2354431152344 401.61895751953125 490.4158020019531 399.90179443359375 488.0402526855469 398.9894104003906 C 486.0874328613281 398.83837890625 486.8513488769531 401.51019287109375 488.13287353515625 400.97760009765625 C 489.263671875 401.0594177246094 490.9716491699219 401.4338684082031 489.75067138671875 399.0788879394531" stroke-width="0.0" fill="rgb(255, 255, 255)" opacity="0.75222915"/>
    <path d="M 357.6639099121094 54.004188537597656 C 356.67041015625 54.22215270996094 356.585205078125 53.20579528808594 357.8210754394531 54.195350646972656 C 358.23651123046875 54.93428039550781 360.19281005859375 53.54698181152344 358.991455078125 54.251705169677734 C 358.0670166015625 54.21660232543945 358.23516845703125 54.933990478515625 356.9571228027344 53.59814453125 C 356.6888732910156 55.27882766723633 357.0799560546875 53.5381965637207 357.6639099121094 54.004188537597656" stroke-width="0.0" fill="rgb(255, 255, 255)" opacity="0.86478096"/>
    <path d="M 127.97896575927734 98.00127410888672 C 127.87703704833984 100.2274169921875 128.88287353515625 97.97428131103516 129.98068237304688 99.57711029052734 C 130.74075317382812 99.39759826660156 129.77178955078125 100.255615234375 129.8779754638672 100.79403686523438 C 130.746826171875 101.57608032226562 129.42771911621094 101.21649932861328 131.63623046875 100.8519058227539 C 130.2347869873047 100.8294448852539 132.93798828125 101.14485168457031 127.97896575927734 98.00127410888672" stroke-width="0.0" fill="rgb(255, 255, 255)" opacity="0.8150565"/>
    <path d="M 171.61732482910156 134.89556884765625 C 207.6393280029297 134.17564392089844 220.3368682861328 131.1420135498047 230.40853881835938 133.39320373535156 C 221.12649536132812 154.99024963378906 220.50811767578125 148.9198760986328 226.3472900390625 147.58033752441406 C 226.63845825195312 156.8316192626953 227.4778594970703 162.7508087158203 229.43557739257812 169.82875061035156 C 197.6211700439453 153.22079467773438 178.74073791503906 143.68406677246094 171.61732482910156 134.89556884765625" stroke-width="0.0" fill="rgb(2, 2, 2)" opacity="0.9907732"/>
    <path d="M 75.72755432128906 566.0081176757812 C 77.3627700805664 566.6673583984375 77.6361083984375 564.8267211914062 76.5306625366211 566.46728515625 C 75.42410278320312 565.1034545898438 75.59468841552734 566.5465087890625 73.3433837890625 563.6150512695312 C 74.54869842529297 565.0551147460938 74.5555648803711 564.5546875 73.04234313964844 564.4480590820312 C 74.73526000976562 564.5414428710938 74.87578582763672 565.3092041015625 75.72755432128906 566.0081176757812" stroke-width="0.0" fill="rgb(255, 255, 255)" opacity="0.8072852"/>
    <path d="M 10.071800231933594 596.3025512695312 C 11.858365058898926 597.4470825195312 12.124383926391602 598.0619506835938 10.900542259216309 599.5196533203125 C 12.658044815063477 597.6359252929688 10.705163955688477 596.6038818359375 8.68185806274414 595.3873291015625 C 9.970830917358398 592.742431640625 12.144700050354004 592.5459594726562 10.63644027709961 590.8055419921875 C 9.586997985839844 591.4296264648438 10.039981842041016 589.6865844726562 10.071800231933594 596.3025512695312" stroke-width="0.0" fill="rgb(255, 255, 255)" opacity="0.7181764"/>
    <path d="M 20.382333755493164 295.5523376464844 C 19.58479881286621 294.9087219238281 18.728544235229492 295.8440246582031 19.845369338989258 295.2548828125 C 19.87710189819336 294.21435546875 17.049745559692383 292.4104309082031 16.76595687866211 293.1946716308594 C 14.406375885009766 294.228271484375 16.252708435058594 293.3595886230469 18.21683692932129 292.21240234375 C 16.388883590698242 293.5975646972656 17.48483657836914 291.42694091796875 20.382333755493164 295.5523376464844" stroke-width="0.0" fill="rgb(255, 255, 255)" opacity="0.7463938"/>
    <path d="M 243.23353576660156 585.5166625976562 C 242.17259216308594 587.4788818359375 244.87538146972656 586.76025390625 243.83148193359375 588.8912353515625 C 244.0037384033203 587.7205810546875 246.3514862060547 587.2289428710938 246.06407165527344 589.559326171875 C 247.91879272460938 590.8603515625 246.4255828857422 591.0684814453125 248.8885498046875 590.9409790039062 C 248.77493286132812 588.65087890625 251.21932983398438 588.5380859375 243.23353576660156 585.5166625976562" stroke-width="0.0" fill="rgb(255, 255, 255)" opacity="0.6624615"/>
    <path d="M 202.99298095703125 235.80455017089844 C 198.94488525390625 278.349609375 181.012451171875 266.2250061035156 169.78619384765625 262.572021484375 C 175.96600341796875 246.01390075683594 168.07603454589844 252.08314514160156 147.7925567626953 256.645263671875 C 145.09872436523438 255.7100372314453 145.46170043945312 238.7451629638672 146.60086059570312 239.39059448242188 C 167.18833923339844 238.24740600585938 172.72586059570312 231.9229278564453 202.99298095703125 235.80455017089844" stroke-width="0.0" fill="rgb(4, 4, 4)" opacity="0.98625624"/>
    <path d="M 387.8951416015625 53.95099639892578 C 389.2361755371094 53.83919906616211 389.0240173339844 54.45173645019531 389.01702880859375 56.51261901855469 C 387.1034851074219 57.832855224609375 387.4697570800781 58.911415100097656 388.0569152832031 57.23039627075195 C 387.958740234375 58.19646453857422 388.6766052246094 60.11943817138672 388.83721923828125 60.38102340698242 C 389.1112060546875 61.080047607421875 387.71856689453125 59.22734832763672 387.8951416015625 53.95099639892578" stroke-width="0.0" fill="rgb(255, 255, 255)" opacity="0.77646494"/>
    <path d="M 263.6022033691406 23.335344314575195 C 265.2089538574219 23.536439895629883 264.9400329589844 23.703662872314453 263.3703918457031 23.208147048950195 C 262.62811279296875 22.56342887878418 263.7320556640625 23.52594566345215 261.1406555175781 22.239675521850586 C 261.922607421875 24.162353515625 261.5511779785156 22.030162811279297 260.1662902832031 21.73975372314453 C 261.1404724121094 22.31287384033203 261.5823669433594 22.474403381347656 263.6022033691406 23.335344314575195" stroke-width="0.0" fill="rgb(255, 255, 255)" opacity="0.8359617"/>
    <path d="M 329.01922607421875 13.760919570922852 C 327.7420959472656 13.818211555480957 326.78948974609375 16.48590660095215 325.9857177734375 17.537376403808594 C 325.1595764160156 18.081552505493164 327.55267333984375 20.718292236328125 328.8139343261719 19.87679100036621 C 330.14691162109375 20.745288848876953 328.6309814453125 20.135099411010742 329.22149658203125 19.300987243652344 C 328.7236022949219 21.505788803100586 329.0963439941406 19.135395050048828 329.01922607421875 13.760919570922852" stroke-width="0.0" fill="rgb(255, 255, 255)" opacity="0.70803523"/>
    <path d="M 203.7084503173828 267.6200256347656 C 203.39767456054688 268.339599609375 203.1619415283203 267.870361328125 202.90362548828125 267.16217041015625 C 204.19503784179688 266.1412048339844 206.5851287841797 268.0864562988281 205.9160919189453 270.298583984375 C 206.9055938720703 270.3346252441406 206.9413604736328 269.4811096191406 205.4609375 270.9382019042969 C 205.6463623046875 273.9549560546875 207.03909301757812 273.7478942871094 203.7084503173828 267.6200256347656" stroke-width="0.0" fill="rgb(255, 255, 255)" opacity="0.6811093"/>
    <path d="M 468.33575439453125 567.4385375976562 C 469.19708251953125 566.4747314453125 469.22271728515625 566.3687133789062 468.720458984375 567.1997680664062 C 469.7757263183594 565.7826538085938 470.904541015625 564.2119750976562 470.7616882324219 564.4603881835938 C 472.5018310546875 562.275390625 472.3678894042969 562.36083984375 471.7264404296875 560.4747314453125 C 472.7756652832031 559.3093872070312 475.40789794921875 559.2615356445312 468.33575439453125 567.4385375976562" stroke-width="0.0" fill="rgb(255, 255, 255)" opacity="0.722018"/>
    <path d="M 537.6090087890625 597.849609375 C 537.689697265625 595.6845092773438 538.8053588867188 595.4010620117188 539.1935424804688 596.83837890625 C 537.4193115234375 594.7980346679688 539.6248779296875 596.6006469726562 540.0442504882812 598.474853515625 C 538.47509765625 599.7954711914062 537.9059448242188 599.1871337890625 537.4970703125 596.7014770507812 C 536.66943359375 598.9683227539062 534.6611938476562 598.71826171875 537.6090087890625 597.849609375" stroke-width="0.0" fill="rgb(255, 255, 255)" opacity="0.73079807"/>
    <path d="M 13.572704315185547 506.04766845703125 C 13.973894119262695 505.2209777832031 13.750253677368164 507.3529357910156 15.320233345031738 507.2146911621094 C 16.60370635986328 506.1566467285156 14.908533096313477 507.3573303222656 16.753273010253906 506.88067626953125 C 17.056041717529297 505.3778991699219 18.738489151000977 503.9989318847656 17.707918167114258 501.68084716796875 C 19.368154525756836 500.6054382324219 19.31322479248047 499.9471740722656 13.572704315185547 506.04766845703125" stroke-width="0.0" fill="rgb(255, 255, 255)" opacity="0.680354"/>
    <path d="M 27.886577606201172 412.03778076171875 C 28.40228271484375 412.4087829589844 26.9593563079834 411.4422607421875 24.85990333557129 410.6507873535156 C 24.8155460357666 411.2538757324219 24.468521118164062 410.1239013671875 26.27118492126465 411.31134033203125 C 25.011430740356445 409.169189453125 27.35120964050293 407.6082763671875 28.25387954711914 410.1341857910156 C 25.934326171875 409.72113037109375 24.219602584838867 410.2245178222656 27.886577606201172 412.03778076171875" stroke-width="0.0" fill="rgb(255, 255, 255)" opacity="0.77012366"/>
    <path d="M 234.9935302734375 12.006624221801758 C 234.193115234375 12.476941108703613 235.65496826171875 11.079188346862793 236.1344451904297 10.657584190368652 C 236.7179718017578 10.207019805908203 238.55828857421875 7.947818756103516 238.96078491210938 7.707481384277344 C 239.3502197265625 7.210754871368408 237.6589813232422 6.155333518981934 239.0870819091797 7.288091659545898 C 238.80734252929688 8.283506393432617 239.49444580078125 7.01207971572876 234.9935302734375 12.006624221801758" stroke-width="0.0" fill="rgb(255, 255, 255)" opacity="0.7646562"/>
    <path d="M 514.9561767578125 468.1921691894531 C 516.8284912109375 502.6625061035156 518.2651977539062 493.5212097167969 525.8231201171875 526.4822387695312 C 528.07470703125 540.6636352539062 535.7754516601562 536.671142578125 532.724853515625 526.908447265625 C 533.0492553710938 495.2253723144531 534.7493896484375 491.6695556640625 528.9571533203125 484.8719482421875 C 524.1013793945312 490.7527770996094 520.1885986328125 483.4968566894531 514.9561767578125 468.1921691894531" stroke-width="0.0" fill="rgb(0, 0, 0)" opacity="1.0"/>
    <path d="M 51.146854400634766 286.6926574707031 C 55.273338317871094 303.8729248046875 64.23300170898438 289.0537414550781 77.01512145996094 288.8498229980469 C 103.19879150390625 305.767578125 96.44132995605469 296.57342529296875 94.66432189941406 262.6393737792969 C 99.40396881103516 253.25994873046875 93.17303466796875 256.58203125 83.26385498046875 258.37109375 C 86.69163513183594 263.0325927734375 88.19404602050781 258.962646484375 51.146854400634766 286.6926574707031" stroke-width="0.0" fill="rgb(0, 0, 0)" opacity="0.7369823"/>
    <path d="M 55.313377380371094 113.62116241455078 C 73.46186065673828 127.26390838623047 75.15430450439453 122.16526794433594 104.16918182373047 118.85002899169922 C 95.46176147460938 92.01420593261719 87.89059448242188 96.64254760742188 82.77194213867188 100.75397491455078 C 79.18020629882812 103.62503051757812 84.669677734375 100.421142578125 78.74755859375 107.43267822265625 C 42.236122131347656 98.28351593017578 40.38400650024414 85.35547637939453 55.313377380371094 113.62116241455078" stroke-width="0.0" fill="rgb(0, 0, 0)" opacity="0.9570533"/>
    <path d="M 213.5103302001953 521.884521484375 C 214.57688903808594 471.5412902832031 215.3364715576172 454.70489501953125 211.0159912109375 448.3875427246094 C 187.49795532226562 487.1332092285156 189.38429260253906 485.70550537109375 212.5419464111328 444.8971252441406 C 148.09100341796875 441.4153747558594 148.14102172851562 446.11846923828125 141.76319885253906 445.2919921875 C 157.69032287597656 483.2087097167969 168.5908660888672 516.5189208984375 213.5103302001953 521.884521484375" stroke-width="0.0" fill="rgb(10, 10, 10)" opacity="0.9766206"/>
    <path d="M 238.7696533203125 254.19772338867188 C 241.516357421875 207.67962646484375 233.30963134765625 232.13699340820312 219.51182556152344 228.1763153076172 C 213.181640625 229.81820678710938 212.44740295410156 230.45504760742188 212.09727478027344 227.72239685058594 C 212.93673706054688 231.22154235839844 208.54823303222656 229.9723663330078 185.47781372070312 233.79457092285156 C 183.6874542236328 261.05792236328125 189.83154296875 264.36029052734375 238.7696533203125 254.19772338867188" stroke-width="0.0" fill="rgb(67, 66, 68)" opacity="1.0"/>
    <path d="M 427.3120422363281 509.9300537109375 C 426.0716552734375 514.581787109375 423.6340026855469 513.1918334960938 421.8490905761719 511.82586669921875 C 421.6231689453125 511.5604248046875 423.1954650878906 513.2302856445312 423.1564025878906 511.70013427734375 C 420.9038391113281 509.228759765625 421.9571533203125 510.1950378417969 419.98736572265625 510.23431396484375 C 419.185302734375 510.7050476074219 419.5877990722656 509.9165954589844 427.3120422363281 509.9300537109375" stroke-width="0.0" fill="rgb(255, 255, 255)" opacity="0.68024445"/>
    <path d="M 444.4958190917969 478.71484375 C 443.103515625 480.8183288574219 444.6363220214844 480.2091979980469 445.2016296386719 482.24212646484375 C 443.63909912109375 483.4674987792969 444.5980224609375 483.85455322265625 444.156982421875 482.64837646484375 C 441.90203857421875 483.48028564453125 438.7957763671875 482.8091735839844 437.28607177734375 483.144287109375 C 438.523681640625 483.8044128417969 436.1993103027344 483.59814453125 444.4958190917969 478.71484375" stroke-width="0.0" fill="rgb(255, 255, 255)" opacity="0.64581466"/>
    <path d="M 462.77203369140625 445.88397216796875 C 461.54095458984375 443.4069519042969 461.6474914550781 441.6009521484375 462.41650390625 443.47418212890625 C 461.6248779296875 442.2836608886719 460.78564453125 442.43817138671875 460.5422668457031 440.2859191894531 C 460.3158874511719 439.64044189453125 462.3905334472656 437.5668640136719 459.8759765625 436.6775817871094 C 457.3544006347656 438.63970947265625 459.5090637207031 436.5762634277344 462.77203369140625 445.88397216796875" stroke-width="0.0" fill="rgb(255, 255, 255)" opacity="0.67216295"/>
    <path d="M 116.58646392822266 586.0695190429688 C 117.1590576171875 585.7029418945312 117.89199829101562 585.9113159179688 118.45034790039062 586.52587890625 C 117.55858612060547 586.2804565429688 118.47234344482422 586.664794921875 117.98014831542969 588.05615234375 C 121.09674835205078 587.4640502929688 119.57489013671875 588.914794921875 118.2437973022461 590.1638793945312 C 119.98377227783203 588.065673828125 118.64868927001953 588.6397094726562 116.58646392822266 586.0695190429688" stroke-width="0.0" fill="rgb(255, 255, 255)" opacity="0.7132061"/>
    <path d="M 71.21501922607422 90.29827117919922 C 114.69384002685547 93.46147155761719 112.92778778076172 85.0962905883789 107.33866119384766 70.27146911621094 C 92.82972717285156 71.72522735595703 96.12734985351562 69.30460357666016 84.36564636230469 74.32048034667969 C 96.88480377197266 71.28421783447266 101.65300750732422 68.6512680053711 96.58943939208984 71.72494506835938 C 102.78949737548828 74.77420043945312 89.00984954833984 63.704551696777344 71.21501922607422 90.29827117919922" stroke-width="0.0" fill="rgb(0, 0, 0)" opacity="0.8236187"/>
    <path d="M 446.9730529785156 400.8768615722656 C 446.1395568847656 399.9441223144531 448.5427551269531 401.7140197753906 449.4998779296875 400.8316650390625 C 450.236083984375 400.6401062011719 449.2977600097656 401.5289001464844 447.32965087890625 400.7112731933594 C 446.43182373046875 399.51068115234375 447.88958740234375 397.6825866699219 447.33721923828125 399.5401611328125 C 448.9375305175781 398.2436218261719 450.0319519042969 395.8366394042969 446.9730529785156 400.8768615722656" stroke-width="0.0" fill="rgb(255, 255, 255)" opacity="0.7771253"/>
    <path d="M 164.8441619873047 523.086669921875 C 166.72140502929688 522.8767700195312 166.84713745117188 521.351806640625 165.6627197265625 523.1995239257812 C 162.0160675048828 523.2845458984375 163.31680297851562 522.2160034179688 163.05902099609375 524.8350830078125 C 163.20782470703125 526.7892456054688 163.0719757080078 527.5335693359375 163.0846710205078 526.707763671875 C 161.14395141601562 527.437255859375 159.29010009765625 527.3735961914062 164.8441619873047 523.086669921875" stroke-width="0.0" fill="rgb(255, 255, 255)" opacity="0.6995393"/>
    <path d="M 513.9783935546875 520.1693725585938 C 514.4649047851562 520.404541015625 515.1205444335938 521.4171752929688 515.7555541992188 521.5857543945312 C 517.3539428710938 523.7372436523438 518.6651000976562 522.8928833007812 518.2201538085938 524.074462890625 C 517.4478759765625 525.7276000976562 518.2587890625 527.1685180664062 520.6754150390625 529.1222534179688 C 521.4688720703125 527.474853515625 522.4072265625 526.8635864257812 513.9783935546875 520.1693725585938" stroke-width="0.0" fill="rgb(255, 255, 255)" opacity="0.6601982"/>
    <path d="M 92.01099395751953 24.48848533630371 C 60.7472038269043 65.70787811279297 56.130393981933594 78.00730895996094 60.599090576171875 92.20777893066406 C 100.91437530517578 85.8857650756836 91.93043518066406 78.85250091552734 82.56539154052734 70.45467376708984 C 81.61040496826172 70.40538787841797 75.66170501708984 58.35186004638672 100.18923950195312 54.08808135986328 C 110.4057388305664 56.765594482421875 117.91923522949219 32.52370071411133 92.01099395751953 24.48848533630371" stroke-width="0.0" fill="rgb(9, 9, 9)" opacity="0.97981614"/>
    <path d="M 510.0008850097656 50.798072814941406 C 512.3331909179688 52.727142333984375 510.4178466796875 50.808589935302734 510.445068359375 51.53786849975586 C 511.8789367675781 49.33488082885742 510.88037109375 48.08644104003906 508.9970703125 47.29447937011719 C 506.55255126953125 46.8056755065918 506.93505859375 44.66946029663086 510.0628356933594 47.9365348815918 C 509.5250244140625 48.710296630859375 510.0707092285156 46.360015869140625 510.0008850097656 50.798072814941406" stroke-width="0.0" fill="rgb(255, 255, 255)" opacity="0.7581312"/>
    <path d="M 562.1065063476562 95.23307800292969 C 561.148193359375 95.20421600341797 560.4583740234375 93.59539794921875 558.5477905273438 91.9635009765625 C 560.9153442382812 92.51175689697266 562.7547607421875 90.8781967163086 564.9403686523438 90.91217803955078 C 565.6444702148438 87.05464935302734 563.3983154296875 89.78929138183594 562.0485229492188 91.8780746459961 C 560.33203125 89.4416732788086 561.31298828125 87.60374450683594 562.1065063476562 95.23307800292969" stroke-width="0.0" fill="rgb(255, 255, 255)" opacity="0.659331"/>
    <path d="M 230.96133422851562 210.58731079101562 C 233.2042999267578 211.86302185058594 231.7205047607422 212.68936157226562 232.82150268554688 212.1342315673828 C 234.76248168945312 213.1850128173828 233.84063720703125 212.86019897460938 232.7967987060547 212.9506072998047 C 233.50633239746094 214.26397705078125 232.51495361328125 214.07437133789062 234.47073364257812 213.97622680664062 C 236.03880310058594 212.11231994628906 235.5274658203125 214.61557006835938 230.96133422851562 210.58731079101562" stroke-width="0.0" fill="rgb(255, 255, 255)" opacity="0.7596801"/>
    <path d="M 203.47715759277344 173.91607666015625 C 205.736083984375 187.57623291015625 203.2865753173828 171.97801208496094 221.40220642089844 182.27183532714844 C 233.30580139160156 190.29823303222656 228.2400665283203 187.13885498046875 223.28366088867188 182.1531524658203 C 238.4743194580078 189.69308471679688 244.15321350097656 208.7743377685547 249.8895263671875 160.68780517578125 C 204.07681274414062 150.81277465820312 191.4702911376953 155.3572998046875 203.47715759277344 173.91607666015625" stroke-width="0.0" fill="rgb(9, 9, 9)" opacity="0.9759474"/>
    <path d="M 26.324058532714844 366.6082763671875 C 27.025041580200195 368.107666015625 28.77417755126953 368.1614990234375 30.905303955078125 367.957763671875 C 29.85053062438965 368.03485107421875 29.14360237121582 367.4648742675781 30.05184555053711 368.10601806640625 C 30.1625919342041 369.41656494140625 27.829627990722656 369.47357177734375 27.699235916137695 367.5154724121094 C 28.387954711914062 367.9402770996094 28.39128875732422 369.16375732421875 26.324058532714844 366.6082763671875" stroke-width="0.0" fill="rgb(255, 255, 255)" opacity="0.77648175"/>
    <path d="M 268.61102294921875 96.19503021240234 C 268.1123962402344 94.65833282470703 266.82257080078125 93.38416290283203 265.2127685546875 92.49750518798828 C 266.2387390136719 92.92588806152344 267.15936279296875 93.2255630493164 267.58416748046875 94.5284652709961 C 267.7547912597656 89.41024780273438 268.9084167480469 88.94790649414062 275.2016296386719 100.66732025146484 C 265.02099609375 101.57447052001953 267.49371337890625 97.22325134277344 268.61102294921875 96.19503021240234" stroke-width="0.0" fill="rgb(122, 121, 121)" opacity="1.0"/>
    <path d="M 292.3074645996094 371.1665344238281 C 319.9416198730469 356.1114196777344 320.4262390136719 350.3587341308594 311.756591796875 362.7400207519531 C 307.6921691894531 367.1170349121094 306.48345947265625 371.17938232421875 306.1617431640625 367.78564453125 C 305.086181640625 368.0594482421875 307.340087890625 376.9124450683594 288.3966369628906 398.0382385253906 C 268.9072265625 401.0721740722656 264.7691345214844 374.062255859375 292.3074645996094 371.1665344238281" stroke-width="0.0" fill="rgb(23, 23, 23)" opacity="0.9684771"/>
    <path d="M 458.6650695800781 390.1746826171875 C 459.737548828125 387.4024963378906 459.0147705078125 388.57305908203125 457.23162841796875 387.32684326171875 C 457.70050048828125 387.7307434082031 457.9152526855469 388.03515625 458.6191101074219 387.0708923339844 C 457.2070617675781 389.1949768066406 458.8532409667969 387.256591796875 456.64154052734375 388.35870361328125 C 456.4912414550781 388.0740966796875 455.7236633300781 387.263427734375 458.6650695800781 390.1746826171875" stroke-width="0.0" fill="rgb(255, 255, 255)" opacity="0.7545184"/>
    <path d="M 405.01226806640625 553.1217041015625 C 404.7008056640625 552.3417358398438 403.265625 554.0782470703125 403.2459411621094 554.9562377929688 C 403.3299865722656 553.8511962890625 401.30706787109375 552.7991333007812 404.70733642578125 551.0758056640625 C 405.2673645019531 551.1806640625 407.3319396972656 550.7898559570312 405.32196044921875 549.8330688476562 C 403.7751770019531 550.4129028320312 405.1690368652344 548.2366943359375 405.01226806640625 553.1217041015625" stroke-width="0.0" fill="rgb(255, 255, 255)" opacity="0.72056806"/>
    <path d="M 150.9972381591797 592.1312255859375 C 153.0844268798828 594.3199462890625 153.05015563964844 592.2443237304688 151.58123779296875 593.0679321289062 C 150.6769256591797 591.6566772460938 149.4884796142578 589.8661499023438 150.4160614013672 591.3905639648438 C 147.91693115234375 589.2142944335938 145.42015075683594 587.8837890625 147.59725952148438 588.9462280273438 C 146.29673767089844 588.4769897460938 145.17422485351562 586.5029296875 150.9972381591797 592.1312255859375" stroke-width="0.0" fill="rgb(255, 255, 255)" opacity="0.73398757"/>
    <path d="M 584.709228515625 34.593692779541016 C 582.8839721679688 33.79737854003906 581.1262817382812 31.939422607421875 580.8754272460938 30.82509422302246 C 580.671875 30.521562576293945 581.9985961914062 32.4764518737793 579.620849609375 32.20048141479492 C 579.3582763671875 31.4633731842041 579.911376953125 32.753204345703125 581.4599609375 33.89640426635742 C 579.5855102539062 32.67744064331055 580.9216918945312 32.06879806518555 584.709228515625 34.593692779541016" stroke-width="0.0" fill="rgb(255, 255, 255)" opacity="0.74629974"/>
    <path d="M 344.63153076171875 93.4848861694336 C 304.6988830566406 64.42041778564453 297.9630432128906 65.03325653076172 302.0340881347656 97.03250885009766 C 343.3983154296875 92.07514953613281 348.94097900390625 88.54793548583984 371.6448974609375 110.02173614501953 C 341.5834045410156 108.89472198486328 334.77349853515625 113.58564758300781 333.7783203125 110.59396362304688 C 311.5331115722656 91.89275360107422 307.44091796875 94.19502258300781 344.63153076171875 93.4848861694336" stroke-width="0.0" fill="rgb(6, 6, 6)" opacity="0.9999134"/>
    <path d="M 225.26544189453125 591.102783203125 C 224.4506378173828 592.820556640625 224.31126403808594 592.2864379882812 224.1727294921875 592.567138671875 C 225.04612731933594 593.2794189453125 225.59519958496094 593.8934936523438 225.6680145263672 594.031494140625 C 224.5471649169922 592.3846435546875 224.3169403076172 592.39990234375 222.91360473632812 593.717041015625 C 225.3114013671875 591.8089599609375 224.9696807861328 591.8069458007812 225.26544189453125 591.102783203125" stroke-width="0.0" fill="rgb(255, 255, 255)" opacity="0.8324669"/>
    <path d="M 333.0018005371094 111.67256164550781 C 328.5371398925781 109.93301391601562 329.1400451660156 110.94104766845703 328.07275390625 110.55174255371094 C 329.4060363769531 111.43328094482422 328.83233642578125 112.08338928222656 328.15875244140625 109.49092864990234 C 323.4617919921875 105.1927261352539 321.5688781738281 99.77079772949219 325.5781555175781 103.12849426269531 C 337.58154296875 110.90901184082031 340.1907958984375 111.93135070800781 333.0018005371094 111.67256164550781" stroke-width="0.0" fill="rgb(255, 255, 255)" opacity="0.83550006"/>
    <path d="M 472.38238525390625 62.60960388183594 C 472.5822448730469 61.18183517456055 471.5567932128906 62.946102142333984 471.50872802734375 63.62411117553711 C 471.1552734375 63.26880645751953 472.56695556640625 62.56645584106445 472.3064880371094 61.00326919555664 C 472.30413818359375 63.30784606933594 473.29034423828125 66.01664733886719 473.2611083984375 66.77031707763672 C 473.6790771484375 68.02830505371094 472.7044372558594 65.76692962646484 472.38238525390625 62.60960388183594" stroke-width="0.0" fill="rgb(255, 255, 255)" opacity="0.7828399"/>
    <path d="M 350.6151123046875 453.6851501464844 C 351.9065246582031 408.4372863769531 349.3951416015625 406.2022399902344 347.4616394042969 413.7920837402344 C 337.4616394042969 436.0971984863281 338.92425537109375 434.5696716308594 348.1314392089844 411.6845397949219 C 306.5500793457031 411.7488708496094 315.7494201660156 417.109375 327.5632629394531 448.6610107421875 C 321.1298522949219 455.28973388671875 334.9840393066406 458.97540283203125 350.6151123046875 453.6851501464844" stroke-width="0.0" fill="rgb(26, 26, 26)" opacity="0.93591464"/>
    <path d="M 101.07987213134766 89.92388916015625 C 124.00090789794922 89.66462707519531 116.91168212890625 87.52378845214844 85.59508514404297 91.33406066894531 C 90.00759887695312 67.0229721069336 97.87146759033203 70.6659164428711 139.25942993164062 68.27268981933594 C 138.6098175048828 82.4676284790039 131.85520935058594 88.21310424804688 122.38062286376953 88.51823425292969 C 105.74225616455078 89.76993560791016 98.62749481201172 90.66129302978516 101.07987213134766 89.92388916015625" stroke-width="0.0" fill="rgb(0, 0, 0)" opacity="0.96929836"/>
    <path d="M 233.6499481201172 253.6463623046875 C 239.68565368652344 249.52401733398438 240.0074920654297 247.89498901367188 239.79263305664062 244.06057739257812 C 237.76263427734375 244.23976135253906 236.5057373046875 243.114013671875 233.92181396484375 243.2013397216797 C 234.756103515625 245.9980926513672 236.1089630126953 246.54298400878906 235.1239776611328 245.3624725341797 C 232.94435119628906 243.73805236816406 228.67202758789062 246.0923309326172 233.6499481201172 253.6463623046875" stroke-width="0.0" fill="rgb(255, 255, 255)" opacity="0.91506714"/>
    <path d="M 129.53248596191406 75.77039337158203 C 137.0731964111328 87.46501159667969 136.57200622558594 87.10826873779297 146.10589599609375 86.40898132324219 C 152.93701171875 78.94862365722656 153.69778442382812 74.19709014892578 152.34442138671875 78.4815673828125 C 149.92822265625 80.72496795654297 151.0738983154297 82.8177261352539 151.1316375732422 68.17227172851562 C 133.6776123046875 69.23368072509766 128.6973419189453 69.5460433959961 129.53248596191406 75.77039337158203" stroke-width="0.0" fill="rgb(0, 0, 0)" opacity="0.99515855"/>
    <path d="M 459.4385681152344 400.9587707519531 C 461.3966369628906 401.8600158691406 463.6340637207031 400.3482666015625 464.6514892578125 399.4615478515625 C 463.5721740722656 399.7391662597656 465.3869323730469 399.5238342285156 465.04937744140625 401.4527893066406 C 464.6677551269531 400.4186706542969 462.75347900390625 400.68414306640625 462.8913879394531 402.56317138671875 C 462.4685363769531 404.3960876464844 462.0903625488281 401.1268310546875 459.4385681152344 400.9587707519531" stroke-width="0.0" fill="rgb(255, 255, 255)" opacity="0.68031836"/>
    <path d="M 39.01932144165039 511.7676696777344 C 38.911346435546875 514.24658203125 39.86448287963867 512.60009765625 40.70356369018555 511.9239807128906 C 41.720367431640625 510.85357666015625 40.47684097290039 511.0770568847656 41.30863952636719 509.1308898925781 C 39.78403854370117 511.0788269042969 38.17087936401367 511.3620300292969 39.228912353515625 512.0740966796875 C 37.90050506591797 510.5740661621094 37.239707946777344 509.83819580078125 39.01932144165039 511.7676696777344" stroke-width="0.0" fill="rgb(255, 255, 255)" opacity="0.74933076"/>
    <path d="M 57.35700225830078 463.4080505371094 C 59.30376052856445 463.6671447753906 58.513736724853516 464.0663146972656 59.23478317260742 465.62933349609375 C 58.732669830322266 467.1740417480469 59.30873489379883 468.0901184082031 60.19047927856445 466.0719909667969 C 60.3570442199707 466.5189208984375 57.85996627807617 465.50299072265625 59.137184143066406 463.69110107421875 C 59.92649841308594 465.1834411621094 60.37120056152344 464.2842102050781 57.35700225830078 463.4080505371094" stroke-width="0.0" fill="rgb(255, 255, 255)" opacity="0.7699636"/>
    <path d="M 2.5913846492767334 219.61422729492188 C 2.9789209365844727 219.36102294921875 3.8642404079437256 221.8105926513672 5.5116753578186035 219.68136596679688 C 3.9115211963653564 220.7779083251953 3.8573954105377197 222.17507934570312 3.504427909851074 220.95892333984375 C 5.231689453125 223.50439453125 4.943958759307861 221.1083526611328 5.117594242095947 221.0858154296875 C 7.6415910720825195 221.9353790283203 5.1422834396362305 221.53521728515625 2.5913846492767334 219.61422729492188" stroke-width="0.0" fill="rgb(255, 255, 255)" opacity="0.80583346"/>
    <path d="M 195.4310760498047 586.8457641601562 C 191.17068481445312 587.5059814453125 189.14955139160156 586.3302612304688 190.17587280273438 587.9125366210938 C 189.29312133789062 589.8856811523438 191.083984375 591.5370483398438 189.33518981933594 591.4931030273438 C 188.53172302246094 592.670654296875 188.36488342285156 593.0095825195312 189.52105712890625 591.7109985351562 C 191.4545135498047 590.029296875 190.7093505859375 592.2789916992188 195.4310760498047 586.8457641601562" stroke-width="0.0" fill="rgb(255, 255, 255)" opacity="0.6799665"/>
    <path d="M 148.16290283203125 83.88667297363281 C 146.69911193847656 82.85869598388672 149.35108947753906 87.61404418945312 135.1897430419922 86.5205307006836 C 137.27255249023438 79.33506774902344 149.3119659423828 74.10205841064453 120.96131134033203 68.7247543334961 C 119.4326400756836 83.13523864746094 128.74661254882812 89.38236999511719 137.97286987304688 84.82086944580078 C 124.11038208007812 83.8371810913086 126.14486694335938 85.04385375976562 148.16290283203125 83.88667297363281" stroke-width="0.0" fill="rgb(0, 0, 0)" opacity="0.8927143"/>
    <path d="M 194.206787109375 135.0974578857422 C 191.48770141601562 156.54074096679688 185.05796813964844 144.10806274414062 166.86557006835938 148.97344970703125 C 145.27597045898438 150.06991577148438 152.19296264648438 155.30455017089844 150.9246826171875 138.05075073242188 C 152.177490234375 132.99391174316406 152.55459594726562 137.3621826171875 150.10678100585938 135.61529541015625 C 152.83657836914062 137.135009765625 157.35508728027344 134.60479736328125 194.206787109375 135.0974578857422" stroke-width="0.0" fill="rgb(2, 2, 2)" opacity="0.98200846"/>
    <path d="M 150.72610473632812 360.1688537597656 C 176.05909729003906 343.32843017578125 190.23529052734375 354.24298095703125 194.33216857910156 317.3717041015625 C 156.97532653808594 324.2591857910156 159.81809997558594 335.4172668457031 137.98666381835938 343.9737548828125 C 131.6797332763672 353.370361328125 158.2753143310547 349.6893310546875 165.73390197753906 356.1239318847656 C 179.32614135742188 377.28094482421875 152.3296356201172 378.1432189941406 150.72610473632812 360.1688537597656" stroke-width="0.0" fill="rgb(0, 0, 0)" opacity="0.99102163"/>
    <path d="M 484.8748779296875 86.75047302246094 C 487.2964172363281 86.29779052734375 487.5720520019531 83.9918441772461 474.4624938964844 86.02173614501953 C 473.3905334472656 87.68518829345703 482.01434326171875 89.48116302490234 484.939697265625 88.44562530517578 C 484.67608642578125 85.61664581298828 488.2227783203125 84.66261291503906 484.8243713378906 82.79925537109375 C 480.9833984375 81.04766845703125 483.2148742675781 85.33313751220703 484.8748779296875 86.75047302246094" stroke-width="0.0" fill="rgb(140, 139, 138)" opacity="1.0"/>
    <path d="M 185.67828369140625 102.65093994140625 C 145.13856506347656 99.51203918457031 152.95330810546875 115.54237365722656 151.2542724609375 120.72386169433594 C 155.7123260498047 118.345458984375 163.542724609375 118.71266174316406 179.60935974121094 116.99932098388672 C 173.06011962890625 120.53861236572266 169.5792236328125 120.1282958984375 186.2870635986328 115.68521881103516 C 192.66847229003906 121.88453674316406 203.5827178955078 97.38595581054688 185.67828369140625 102.65093994140625" stroke-width="0.0" fill="rgb(5, 5, 5)" opacity="0.9905111"/>
    <path d="M 131.0510711669922 92.69450378417969 C 131.18446350097656 94.5838394165039 130.48040771484375 95.93334197998047 131.40377807617188 96.20963287353516 C 129.39781188964844 98.07623291015625 128.9370574951172 98.79948425292969 127.78736877441406 98.21116638183594 C 128.7451934814453 99.26070404052734 129.57798767089844 99.79017639160156 127.70428466796875 97.94454956054688 C 126.2248764038086 98.37911987304688 126.11858367919922 96.67730712890625 131.0510711669922 92.69450378417969" stroke-width="0.0" fill="rgb(255, 255, 255)" opacity="0.6805738"/>
    <path d="M 107.44880676269531 451.6546630859375 C 107.85606384277344 451.66058349609375 107.76628112792969 448.7922058105469 109.97089385986328 448.92706298828125 C 109.94339752197266 451.5712585449219 109.03211212158203 451.708251953125 109.79935455322266 450.6932373046875 C 110.26028442382812 447.8055419921875 109.66839599609375 449.0223388671875 110.14740753173828 447.5169677734375 C 108.34026336669922 448.86090087890625 108.68500518798828 449.68536376953125 107.44880676269531 451.6546630859375" stroke-width="0.0" fill="rgb(255, 255, 255)" opacity="0.7610886"/>
    <path d="M 149.37632751464844 535.2459106445312 C 147.48960876464844 537.1386108398438 146.62608337402344 537.470947265625 148.1930389404297 536.2841796875 C 147.7522735595703 534.7537231445312 147.65203857421875 535.0604858398438 148.9305877685547 534.9873657226562 C 150.69924926757812 535.2357788085938 152.3949737548828 537.8135986328125 155.3757781982422 536.8236083984375 C 156.30441284179688 535.60400390625 157.50950622558594 534.5045776367188 149.37632751464844 535.2459106445312" stroke-width="0.0" fill="rgb(255, 255, 255)" opacity="0.67645675"/>
    <path d="M 57.6808967590332 35.155582427978516 C 69.13829040527344 29.106609344482422 71.19721984863281 40.84498596191406 64.81785583496094 45.823123931884766 C 60.019874572753906 47.35234069824219 66.34423065185547 50.019893646240234 79.71247863769531 63.89695739746094 C 73.8058853149414 72.52645874023438 68.62458801269531 74.6601791381836 48.12858581542969 75.72136688232422 C 46.297157287597656 47.6380729675293 51.9741325378418 41.55569076538086 57.6808967590332 35.155582427978516" stroke-width="0.0" fill="rgb(6, 6, 6)" opacity="0.96459657"/>
    <path d="M 245.6842803955078 95.54014587402344 C 266.4317626953125 103.87877655029297 252.0418701171875 98.296630859375 302.26416015625 90.42298126220703 C 301.7048645019531 147.84695434570312 297.0442810058594 154.04734802246094 263.6767883300781 132.61834716796875 C 239.4576416015625 126.51951599121094 239.45872497558594 118.56171417236328 254.07337951660156 134.37506103515625 C 252.63882446289062 119.33795166015625 240.57070922851562 108.01628112792969 245.6842803955078 95.54014587402344" stroke-width="0.0" fill="rgb(5, 5, 5)" opacity="0.84436035"/>
    <path d="M 263.93597412109375 119.56180572509766 C 258.2306823730469 139.8367462158203 257.7565002441406 130.11587524414062 241.21873474121094 139.29344177246094 C 230.7338409423828 144.91554260253906 233.51478576660156 161.38902282714844 214.8358612060547 160.0511474609375 C 227.04798889160156 153.44354248046875 219.31797790527344 160.18490600585938 201.0336151123047 154.73507690429688 C 208.50144958496094 127.28330993652344 224.33619689941406 135.52835083007812 263.93597412109375 119.56180572509766" stroke-width="0.0" fill="rgb(3, 3, 3)" opacity="0.96708834"/>
    <path d="M 412.771484375 524.6377563476562 C 414.5640563964844 529.0330200195312 414.85589599609375 530.5735473632812 412.0075378417969 532.158447265625 C 411.94976806640625 534.2648315429688 411.46331787109375 535.4583740234375 413.1632995605469 534.8848876953125 C 415.7208557128906 535.2838134765625 415.8572082519531 534.7192993164062 413.05859375 532.4912719726562 C 413.45367431640625 530.6342163085938 411.18231201171875 529.878173828125 412.771484375 524.6377563476562" stroke-width="0.0" fill="rgb(255, 255, 255)" opacity="0.6644593"/>
    <path d="M 140.1409149169922 587.3549194335938 C 138.64332580566406 586.029296875 141.22178649902344 583.898681640625 140.35121154785156 584.888916015625 C 138.96133422851562 586.365966796875 140.5248565673828 587.63623046875 141.76119995117188 589.176025390625 C 142.8394012451172 586.8482666015625 142.98779296875 587.8316650390625 143.10159301757812 589.6887817382812 C 141.47174072265625 590.666259765625 143.5913848876953 590.9686279296875 140.1409149169922 587.3549194335938" stroke-width="0.0" fill="rgb(255, 255, 255)" opacity="0.74376047"/>
    <path d="M 492.48583984375 42.90436935424805 C 494.83428955078125 41.09107208251953 494.2212219238281 40.52408981323242 493.5872802734375 40.721370697021484 C 495.2813720703125 39.11587142944336 495.4710998535156 40.46468734741211 497.2099304199219 39.73700714111328 C 496.1324157714844 42.10108947753906 497.6727294921875 41.26960754394531 498.5592956542969 43.53964614868164 C 498.1900634765625 42.86646270751953 497.9124755859375 43.12552261352539 492.48583984375 42.90436935424805" stroke-width="0.0" fill="rgb(255, 255, 255)" opacity="0.72162175"/>
    <path d="M 448.0687255859375 510.9227600097656 C 448.1070861816406 511.01641845703125 450.2210998535156 512.3450317382812 451.4898376464844 513.1259765625 C 449.2078857421875 513.722412109375 450.18402099609375 515.592529296875 450.1797790527344 514.8052978515625 C 448.6763916015625 515.4298095703125 448.1659240722656 514.004150390625 450.34686279296875 513.7731323242188 C 451.5221252441406 512.1809692382812 452.4696960449219 514.1636352539062 448.0687255859375 510.9227600097656" stroke-width="0.0" fill="rgb(255, 255, 255)" opacity="0.803367"/>
    <path d="M 306.012451171875 305.8797302246094 C 245.05892944335938 308.1687316894531 241.96914672851562 305.7091979980469 242.6030731201172 275.16937255859375 C 261.5535583496094 256.61956787109375 280.707275390625 267.43988037109375 287.07220458984375 262.9072265625 C 310.2243957519531 270.96636962890625 321.05517578125 245.1766357421875 324.3564453125 301.6407470703125 C 283.9978942871094 304.39990234375 288.00201416015625 294.1821594238281 306.012451171875 305.8797302246094" stroke-width="0.0" fill="rgb(2, 2, 2)" opacity="0.99818826"/>
    <path d="M 230.5679473876953 479.59722900390625 C 230.3253631591797 477.14862060546875 231.11141967773438 479.5858459472656 232.0127410888672 479.3474426269531 C 231.1143798828125 479.6719055175781 230.4734344482422 477.2231750488281 230.07382202148438 474.75537109375 C 229.6688690185547 473.1953125 231.08935546875 474.63702392578125 230.4788818359375 474.15130615234375 C 230.49855041503906 473.7947082519531 230.47744750976562 474.96728515625 230.5679473876953 479.59722900390625" stroke-width="0.0" fill="rgb(255, 255, 255)" opacity="0.8063449"/>
    <path d="M 136.6345977783203 568.2362060546875 C 137.55364990234375 567.6136474609375 137.34609985351562 565.1591796875 136.13706970214844 564.5853271484375 C 134.6768035888672 563.2203369140625 134.0469207763672 564.000732421875 132.35028076171875 565.2116088867188 C 132.70339965820312 564.5202026367188 131.34487915039062 565.4247436523438 132.54080200195312 563.7335815429688 C 132.04652404785156 563.427001953125 130.9354248046875 562.185546875 136.6345977783203 568.2362060546875" stroke-width="0.0" fill="rgb(255, 255, 255)" opacity="0.67633855"/>
    <path d="M 234.0442657470703 340.20391845703125 C 220.0725860595703 377.1754455566406 202.06655883789062 366.5423889160156 207.34326171875 349.53179931640625 C 226.18431091308594 340.3092346191406 214.43077087402344 348.6299743652344 204.57806396484375 348.71392822265625 C 214.74720764160156 368.28173828125 202.1554412841797 378.4731750488281 158.68592834472656 391.9736633300781 C 166.52098083496094 360.0101623535156 195.39059448242188 352.7624206542969 234.0442657470703 340.20391845703125" stroke-width="0.0" fill="rgb(1, 1, 1)" opacity="0.997774"/>
  </g>
</svg>
