<?xml version="1.0" ?>
<svg xmlns="http://www.w3.org/2000/svg" version="1.1" width="600" height="600">
  <defs/>
  <g>
    <path d="M 1.9017516374588013 353.8836975097656 C -0.08694851398468018 354.4540100097656 -2.04237699508667 353.31109619140625 -0.1999170184135437 350.9454650878906 C -1.3731484413146973 351.5711975097656 -1.7442303895950317 350.32183837890625 0.6746333837509155 351.1714172363281 C 1.1294372081756592 351.9129333496094 3.323357343673706 353.197509765625 2.4469423294067383 352.958984375 C 1.4657918214797974 351.26397705078125 2.3909974098205566 353.20770263671875 1.9017516374588013 353.8836975097656" stroke-width="0.0" fill="rgb(255, 255, 255)" opacity="0.7874718"/>
    <path d="M 382.75311279296875 590.4037475585938 C 383.3699645996094 589.0811157226562 383.73480224609375 590.1153564453125 386.2046203613281 588.67138671875 C 384.8232116699219 589.3822631835938 384.6571350097656 589.156982421875 382.5889892578125 590.0592651367188 C 384.44744873046875 592.3607788085938 386.10809326171875 593.3699340820312 387.2777404785156 594.4105834960938 C 385.79364013671875 593.6378784179688 387.869384765625 594.6641235351562 382.75311279296875 590.4037475585938" stroke-width="0.0" fill="rgb(255, 255, 255)" opacity="0.7122546"/>
    <path d="M 19.84743309020996 3.0117509365081787 C 20.55532455444336 0.6374371647834778 18.889122009277344 3.056002378463745 18.477493286132812 4.143610000610352 C 18.66971206665039 3.3511390686035156 19.540876388549805 1.9891325235366821 20.59541893005371 3.2598209381103516 C 21.560956954956055 1.891972303390503 21.215742111206055 0.2865869104862213 19.008142471313477 1.0683873891830444 C 18.942012786865234 0.9603915810585022 17.663347244262695 -1.3596479892730713 19.84743309020996 3.0117509365081787" stroke-width="0.0" fill="rgb(255, 255, 255)" opacity="0.75701743"/>
    <path d="M -0.4409242868423462 368.8858642578125 C 0.38754045963287354 369.0581970214844 -1.1394810676574707 367.0614318847656 -2.5862815380096436 364.7341003417969 C -3.248795509338379 364.49609375 -1.8675545454025269 363.8060302734375 -0.8952409029006958 365.4088134765625 C 0.49651825428009033 362.9576721191406 -0.539249062538147 364.6908874511719 -1.998167872428894 362.36602783203125 C -0.22934769093990326 364.1094970703125 -1.1812751293182373 366.0325927734375 -0.4409242868423462 368.8858642578125" stroke-width="0.0" fill="rgb(255, 255, 255)" opacity="0.9947448"/>
    <path d="M 17.99660873413086 367.4472351074219 C 17.49630355834961 365.156005859375 19.16029167175293 362.4533386230469 20.217313766479492 363.00714111328125 C 19.592527389526367 363.3436279296875 20.47092628479004 364.4202575683594 19.84076499938965 366.3406982421875 C 18.06702423095703 364.5877380371094 17.27098274230957 362.5520324707031 18.097990036010742 362.8096008300781 C 17.480457305908203 365.3658447265625 15.838918685913086 366.0869140625 17.99660873413086 367.4472351074219" stroke-width="0.0" fill="rgb(255, 255, 255)" opacity="0.685051"/>
    <path d="M 22.83096694946289 427.129150390625 C 22.83529281616211 428.2686462402344 25.44748306274414 428.0289001464844 26.411190032958984 429.22900390625 C 28.43552589416504 431.31414794921875 28.097719192504883 431.2831115722656 27.243083953857422 430.26434326171875 C 26.31433868408203 428.53570556640625 24.739545822143555 429.09295654296875 23.593273162841797 426.7818908691406 C 22.807851791381836 427.36151123046875 21.241092681884766 426.7716064453125 22.83096694946289 427.129150390625" stroke-width="0.0" fill="rgb(255, 255, 255)" opacity="0.74031925"/>
    <path d="M 597.4678955078125 471.20697021484375 C 598.1248779296875 468.4093933105469 600.0407104492188 466.8028259277344 598.5408325195312 468.0737609863281 C 597.7262573242188 467.65130615234375 597.3323974609375 468.5931396484375 595.5224609375 467.67852783203125 C 597.931640625 466.247802734375 596.6749267578125 465.7611389160156 596.9639282226562 464.16845703125 C 598.3082275390625 463.471923828125 600.9945678710938 463.8282470703125 597.4678955078125 471.20697021484375" stroke-width="0.0" fill="rgb(255, 255, 255)" opacity="0.69440454"/>
    <path d="M 341.0727233886719 570.3563232421875 C 342.2347106933594 569.110107421875 343.2529602050781 569.1431884765625 342.6440734863281 569.5213012695312 C 341.4195861816406 569.3287963867188 341.1197509765625 570.3372802734375 340.2193908691406 571.8543701171875 C 340.9168701171875 569.6854858398438 342.4120788574219 572.009765625 340.67840576171875 570.4846801757812 C 341.8857727050781 572.3406372070312 340.6154479980469 570.7667846679688 341.0727233886719 570.3563232421875" stroke-width="0.0" fill="rgb(255, 255, 255)" opacity="0.8019234"/>
    <path d="M 284.9469909667969 576.8886108398438 C 287.2766418457031 577.1434326171875 285.31005859375 577.8566284179688 285.7464904785156 579.5928344726562 C 285.5829772949219 580.2684326171875 286.6685485839844 582.554443359375 287.1619567871094 584.4574584960938 C 287.0202331542969 586.2100219726562 288.85186767578125 585.130615234375 287.8237609863281 587.4338989257812 C 287.4840087890625 588.8152465820312 289.12921142578125 590.1904907226562 284.9469909667969 576.8886108398438" stroke-width="0.0" fill="rgb(255, 255, 255)" opacity="0.66260743"/>
    <path d="M 564.2747192382812 466.9040832519531 C 563.2570190429688 465.1038818359375 561.3184204101562 463.7541198730469 562.193359375 466.4794006347656 C 561.3119506835938 467.606689453125 560.6239624023438 469.2308654785156 561.1660766601562 471.1842956542969 C 562.8062133789062 470.362548828125 563.9081420898438 471.6268005371094 563.3915405273438 471.0357360839844 C 563.6053466796875 471.2623291015625 561.787109375 471.3310546875 564.2747192382812 466.9040832519531" stroke-width="0.0" fill="rgb(255, 255, 255)" opacity="0.68894583"/>
    <path d="M 11.547746658325195 27.97141456604004 C 12.566851615905762 26.0622615814209 12.248194694519043 23.894058227539062 9.770553588867188 22.271451950073242 C 7.793569087982178 20.218788146972656 9.088570594787598 21.320594787597656 7.427334785461426 22.036373138427734 C 8.661650657653809 21.17193031311035 10.923968315124512 18.6993465423584 9.607197761535645 19.64055633544922 C 10.869172096252441 17.996501922607422 13.099172592163086 20.06062126159668 11.547746658325195 27.97141456604004" stroke-width="0.0" fill="rgb(255, 255, 255)" opacity="0.6339746"/>
    <path d="M 594.46044921875 304.9754333496094 C 595.7946166992188 303.7608337402344 596.6377563476562 302.7925720214844 595.6849975585938 302.0118103027344 C 594.526611328125 301.6596374511719 593.1172485351562 303.1998291015625 592.7333984375 300.91082763671875 C 591.2809448242188 302.2776184082031 590.3405151367188 303.1801452636719 592.2214965820312 301.51837158203125 C 592.5386962890625 300.3035888671875 590.0904541015625 301.51025390625 594.46044921875 304.9754333496094" stroke-width="0.0" fill="rgb(255, 255, 255)" opacity="0.69557524"/>
    <path d="M 305.4104919433594 570.457763671875 C 307.2090759277344 573.3440551757812 308.6140441894531 572.5736083984375 307.9007873535156 574.8632202148438 C 308.9327087402344 575.8267211914062 306.7728271484375 576.358642578125 305.6267395019531 575.9719848632812 C 307.4495849609375 576.361083984375 305.89697265625 576.7699584960938 305.9524841308594 573.9611206054688 C 304.9444580078125 571.2484741210938 304.1396179199219 574.1962280273438 305.4104919433594 570.457763671875" stroke-width="0.0" fill="rgb(255, 255, 255)" opacity="0.6881987"/>
    <path d="M 11.022916793823242 372.9533996582031 C 10.993803024291992 373.0833740234375 9.236536026000977 373.1446838378906 7.295773506164551 372.9061279296875 C 6.815342426300049 373.86419677734375 5.730880260467529 371.78790283203125 4.50717830657959 371.1921691894531 C 3.314648151397705 369.820068359375 2.1401069164276123 368.5645751953125 3.4852771759033203 366.86444091796875 C 2.8584063053131104 366.7149658203125 6.288900375366211 366.5356750488281 11.022916793823242 372.9533996582031" stroke-width="0.0" fill="rgb(255, 255, 255)" opacity="0.63564736"/>
    <path d="M 598.8115844726562 390.752685546875 C 597.0875854492188 391.28173828125 598.5870361328125 393.06048583984375 598.2024536132812 391.7140197753906 C 599.3626098632812 392.6437072753906 601.3154296875 394.5614013671875 601.041015625 394.6498107910156 C 599.9099731445312 392.6104736328125 601.2472534179688 390.4208984375 600.706298828125 388.37640380859375 C 600.1626586914062 387.06298828125 600.265625 387.4429931640625 598.8115844726562 390.752685546875" stroke-width="0.0" fill="rgb(255, 255, 255)" opacity="0.785442"/>
    <path d="M 572.8921508789062 403.46759033203125 C 572.8479614257812 401.498779296875 571.4439086914062 403.0422668457031 570.3681640625 402.9337158203125 C 568.859375 404.1551818847656 571.4552612304688 404.417724609375 570.9537963867188 403.5909118652344 C 571.2203979492188 401.7939758300781 573.5155029296875 402.5048522949219 572.7482299804688 402.97772216796875 C 572.9666137695312 403.546875 572.7805786132812 404.6709289550781 572.8921508789062 403.46759033203125" stroke-width="0.0" fill="rgb(255, 255, 255)" opacity="0.7956554"/>
    <path d="M 339.1145935058594 588.6099853515625 C 336.8353271484375 589.8919067382812 337.8515930175781 589.8018188476562 339.7402648925781 590.6397705078125 C 341.7724304199219 588.7976684570312 340.689453125 591.1102905273438 341.1878967285156 590.9959106445312 C 340.17303466796875 591.4371948242188 338.0955810546875 588.8638916015625 337.1470031738281 590.410400390625 C 338.1267395019531 589.2776489257812 339.4063720703125 588.4751586914062 339.1145935058594 588.6099853515625" stroke-width="0.0" fill="rgb(255, 255, 255)" opacity="0.7760353"/>
    <path d="M 588.3694458007812 447.8377685546875 C 586.779296875 448.7133483886719 589.1314086914062 450.35015869140625 588.1672973632812 449.5700988769531 C 587.1841430664062 450.5460205078125 585.89501953125 449.6717529296875 583.8034057617188 450.17529296875 C 583.6630249023438 451.9534912109375 586.6270141601562 450.37725830078125 588.17236328125 451.22918701171875 C 586.5885620117188 453.7885437011719 583.9678344726562 450.6757507324219 588.3694458007812 447.8377685546875" stroke-width="0.0" fill="rgb(255, 255, 255)" opacity="0.70803547"/>
    <path d="M 572.7544555664062 386.4193115234375 C 573.9879150390625 386.5038757324219 572.8146362304688 386.2386169433594 571.2450561523438 387.7923889160156 C 573.748046875 388.7175598144531 573.1544189453125 388.4198913574219 573.5930786132812 388.4526062011719 C 572.7796020507812 388.3432922363281 570.0916137695312 387.55523681640625 569.5706176757812 387.67169189453125 C 569.0842895507812 387.00091552734375 569.8019409179688 388.9910888671875 572.7544555664062 386.4193115234375" stroke-width="0.0" fill="rgb(255, 255, 255)" opacity="0.72438306"/>
    <path d="M 376.9229431152344 570.9240112304688 C 375.89691162109375 572.9246215820312 375.3049621582031 575.3463745117188 375.2585754394531 576.8956298828125 C 375.5836181640625 576.1331176757812 374.4921875 578.413330078125 377.2209777832031 580.4520874023438 C 375.9093322753906 581.713623046875 378.36798095703125 580.5272827148438 376.19720458984375 579.6653442382812 C 375.9257507324219 578.466064453125 373.9741516113281 578.238037109375 376.9229431152344 570.9240112304688" stroke-width="0.0" fill="rgb(255, 255, 255)" opacity="0.76768255"/>
    <path d="M 17.016237258911133 12.350350379943848 C 16.966602325439453 10.462968826293945 17.777996063232422 8.613978385925293 15.320391654968262 11.2294340133667 C 14.304858207702637 11.670233726501465 16.20254898071289 13.877594947814941 12.768719673156738 12.833939552307129 C 13.545266151428223 12.929107666015625 12.500603675842285 16.135726928710938 13.36795711517334 17.317962646484375 C 13.251842498779297 17.794971466064453 11.936083793640137 19.129161834716797 17.016237258911133 12.350350379943848" stroke-width="0.0" fill="rgb(255, 255, 255)" opacity="0.66922677"/>
    <path d="M 592.6924438476562 360.4631652832031 C 591.7103271484375 359.0887756347656 590.9614868164062 358.32269287109375 592.3223266601562 359.9466247558594 C 593.20458984375 360.8321228027344 591.69091796875 362.0798645019531 595.6339721679688 363.44989013671875 C 593.8411254882812 365.1379089355469 595.04931640625 365.1030578613281 594.4082641601562 365.4039001464844 C 595.1985473632812 366.7932434082031 592.781005859375 366.0936584472656 592.6924438476562 360.4631652832031" stroke-width="0.0" fill="rgb(255, 255, 255)" opacity="0.72725797"/>
    <path d="M 562.1950073242188 594.0316772460938 C 563.3982543945312 593.3214721679688 564.9574584960938 595.2080078125 565.565673828125 596.4165649414062 C 565.4608154296875 596.946044921875 565.5650024414062 595.2323608398438 566.8232421875 596.3353271484375 C 567.4872436523438 598.7252807617188 566.2250366210938 597.8944091796875 564.712158203125 598.1118774414062 C 563.3912353515625 598.283935546875 561.2972412109375 596.9549560546875 562.1950073242188 594.0316772460938" stroke-width="0.0" fill="rgb(255, 255, 255)" opacity="0.6996277"/>
    <path d="M 19.354337692260742 495.32275390625 C 19.42874526977539 496.0047607421875 20.060169219970703 494.18829345703125 16.939176559448242 495.2865905761719 C 16.968631744384766 493.68603515625 19.319211959838867 492.1554870605469 21.05526351928711 493.3914489746094 C 20.279539108276367 494.8872375488281 21.794466018676758 494.7519836425781 22.953773498535156 493.8280944824219 C 23.08290672302246 494.2489929199219 21.610153198242188 494.36663818359375 19.354337692260742 495.32275390625" stroke-width="0.0" fill="rgb(255, 255, 255)" opacity="0.70754594"/>
    <path d="M 5.4933013916015625 503.65936279296875 C 5.675029277801514 505.3194885253906 6.97678279876709 507.8258056640625 5.2235612869262695 508.3696594238281 C 5.051928997039795 508.10015869140625 6.072351932525635 508.943115234375 4.7411088943481445 507.0955505371094 C 3.4537529945373535 506.6531677246094 3.718249559402466 504.9732666015625 4.704598426818848 504.7899475097656 C 5.198088645935059 505.7225646972656 6.086953639984131 504.03216552734375 5.4933013916015625 503.65936279296875" stroke-width="0.0" fill="rgb(255, 255, 255)" opacity="0.75620216"/>
    <path d="M 28.52436637878418 68.72819519042969 C 31.740581512451172 66.68343353271484 29.549291610717773 65.67253875732422 27.763031005859375 65.90032196044922 C 25.819082260131836 66.79199981689453 27.29303550720215 68.0888671875 29.269596099853516 67.97227478027344 C 29.3971004486084 68.63734436035156 27.452362060546875 68.83783721923828 26.74808692932129 69.35291290283203 C 27.58479118347168 67.0184097290039 25.834789276123047 66.08355712890625 28.52436637878418 68.72819519042969" stroke-width="0.0" fill="rgb(255, 255, 255)" opacity="0.7191044"/>
    <path d="M 259.6875915527344 586.7964477539062 C 260.6422424316406 587.413330078125 259.6445617675781 586.7012329101562 258.7977294921875 585.1832885742188 C 260.93304443359375 587.633544921875 259.436767578125 589.43505859375 261.06744384765625 587.5093383789062 C 260.690673828125 585.842041015625 263.09454345703125 584.3074340820312 264.2291259765625 585.2650756835938 C 263.6662292480469 583.5615844726562 263.12518310546875 582.6759033203125 259.6875915527344 586.7964477539062" stroke-width="0.0" fill="rgb(255, 255, 255)" opacity="0.70159316"/>
    <path d="M 589.33740234375 432.2065124511719 C 591.1340942382812 430.0636901855469 592.7876586914062 428.67535400390625 593.1019897460938 429.7633972167969 C 592.2479248046875 430.698486328125 592.2947387695312 429.3671569824219 590.6624145507812 429.5265808105469 C 591.8837280273438 429.6147155761719 594.2571411132812 429.4218444824219 592.4432373046875 428.8932189941406 C 594.360595703125 426.5621337890625 596.352294921875 424.75689697265625 589.33740234375 432.2065124511719" stroke-width="0.0" fill="rgb(255, 255, 255)" opacity="0.82366073"/>
    <path d="M 18.10140037536621 380.0147705078125 C 17.590112686157227 378.8353271484375 18.627918243408203 380.5306701660156 18.220027923583984 381.1470642089844 C 18.207632064819336 379.1070861816406 19.319684982299805 379.62176513671875 18.9711971282959 381.80645751953125 C 20.749019622802734 382.4845886230469 20.79997444152832 381.6287536621094 21.118061065673828 381.86785888671875 C 20.47709083557129 379.7972717285156 22.111480712890625 379.9107971191406 18.10140037536621 380.0147705078125" stroke-width="0.0" fill="rgb(255, 255, 255)" opacity="0.79325426"/>
    <path d="M 5.597461700439453 499.7646484375 C 5.03736686706543 499.0000305175781 6.393607139587402 500.7702941894531 8.030349731445312 499.6965026855469 C 9.208274841308594 500.348876953125 9.4315824508667 500.9350280761719 10.700531005859375 502.3838806152344 C 7.702104091644287 501.35491943359375 6.5929059982299805 502.2843933105469 8.673013687133789 503.4114990234375 C 10.553567886352539 505.26104736328125 9.034239768981934 504.54779052734375 5.597461700439453 499.7646484375" stroke-width="0.0" fill="rgb(255, 255, 255)" opacity="0.6940145"/>
    <path d="M 502.12890625 565.9962768554688 C 503.4964904785156 568.0020141601562 504.0041809082031 569.7344360351562 503.990966796875 568.9202880859375 C 505.7421875 569.409423828125 507.081298828125 567.6956787109375 505.0501403808594 569.29150390625 C 504.45074462890625 571.9212646484375 505.4732971191406 570.1945190429688 506.03460693359375 571.4291381835938 C 506.1145935058594 572.7825927734375 505.41717529296875 572.6026611328125 502.12890625 565.9962768554688" stroke-width="0.0" fill="rgb(255, 255, 255)" opacity="0.71378905"/>
    <path d="M 10.312406539916992 420.8714599609375 C 11.172348022460938 418.6282043457031 9.033939361572266 419.3360900878906 9.43576717376709 418.7417297363281 C 9.672660827636719 419.7276611328125 7.52445125579834 417.7332458496094 9.156617164611816 418.9610900878906 C 10.842972755432129 418.7901306152344 9.804625511169434 420.8243103027344 10.374993324279785 419.1772766113281 C 10.182578086853027 419.8553466796875 10.830973625183105 418.9081726074219 10.312406539916992 420.8714599609375" stroke-width="0.0" fill="rgb(255, 255, 255)" opacity="0.8349071"/>
    <path d="M 543.1265869140625 592.8770141601562 C 543.6915893554688 593.8766479492188 544.7380981445312 592.789794921875 545.4384155273438 592.5468139648438 C 547.4649047851562 590.2545776367188 548.731689453125 587.6956787109375 549.6114501953125 589.2338256835938 C 552.5511474609375 587.9562377929688 552.5554809570312 585.6849365234375 552.3790893554688 585.0559692382812 C 552.98828125 586.2893676757812 553.0391845703125 587.8636474609375 543.1265869140625 592.8770141601562" stroke-width="0.0" fill="rgb(255, 255, 255)" opacity="0.6297043"/>
    <path d="M 278.1327819824219 594.822998046875 C 279.35638427734375 593.2081298828125 279.5766296386719 593.7998046875 280.3313293457031 593.6663208007812 C 282.2356872558594 596.0853881835938 280.8447570800781 593.7565307617188 279.63067626953125 593.5885620117188 C 277.9720153808594 594.0888061523438 276.1515808105469 596.5177001953125 277.5843200683594 595.2045288085938 C 275.7908020019531 595.9329833984375 273.8894958496094 597.8062133789062 278.1327819824219 594.822998046875" stroke-width="0.0" fill="rgb(255, 255, 255)" opacity="0.7946993"/>
    <path d="M 542.9273681640625 583.296875 C 540.998291015625 582.1748046875 541.5222778320312 579.3941040039062 543.117431640625 578.6243896484375 C 541.1138916015625 580.0545654296875 542.6533813476562 580.6322631835938 541.4954223632812 581.9081420898438 C 540.8461303710938 582.1655883789062 540.996337890625 582.1550903320312 540.9788208007812 581.5174560546875 C 541.8756103515625 580.1808471679688 543.801025390625 578.0499877929688 542.9273681640625 583.296875" stroke-width="0.0" fill="rgb(255, 255, 255)" opacity="0.75109255"/>
    <path d="M 568.1138305664062 339.5281982421875 C 567.5462646484375 339.9765319824219 566.55859375 339.0391845703125 568.0744018554688 340.4620666503906 C 567.6680297851562 341.19091796875 565.664794921875 342.9101257324219 565.03125 341.8436279296875 C 562.8711547851562 341.81341552734375 562.4118041992188 342.376953125 561.9423217773438 341.6778259277344 C 560.6279296875 341.9519958496094 559.0564575195312 341.8706970214844 568.1138305664062 339.5281982421875" stroke-width="0.0" fill="rgb(255, 255, 255)" opacity="0.67324096"/>
    <path d="M 567.8506469726562 450.31378173828125 C 567.4934692382812 449.5691833496094 569.3131713867188 447.70623779296875 569.9126586914062 447.9981689453125 C 570.2202758789062 450.376953125 570.0596313476562 451.8165283203125 568.2744140625 450.841552734375 C 568.5137329101562 451.8529357910156 568.4119873046875 454.08050537109375 567.4207153320312 454.07122802734375 C 567.5128784179688 454.4107971191406 569.3577270507812 452.7236328125 567.8506469726562 450.31378173828125" stroke-width="0.0" fill="rgb(255, 255, 255)" opacity="0.72979647"/>
    <path d="M 584.9361572265625 492.6632385253906 C 583.4353637695312 491.705078125 583.5194091796875 490.7462463378906 584.5576782226562 489.6302795410156 C 582.6832275390625 488.0234680175781 584.5552978515625 490.2275695800781 585.4267578125 489.69537353515625 C 583.4723510742188 489.9240417480469 582.6154174804688 490.13385009765625 582.7572631835938 490.40948486328125 C 583.0889892578125 490.0452880859375 581.1395263671875 488.6261901855469 584.9361572265625 492.6632385253906" stroke-width="0.0" fill="rgb(255, 255, 255)" opacity="0.81245357"/>
    <path d="M 253.72666931152344 574.7072143554688 C 253.41671752929688 574.5123901367188 251.57875061035156 574.69384765625 250.7775421142578 574.1076049804688 C 249.03805541992188 573.70556640625 249.13427734375 573.6184692382812 250.80760192871094 574.2835083007812 C 251.98513793945312 571.5584716796875 249.8007049560547 570.3446655273438 246.05616760253906 571.160888671875 C 245.038818359375 573.2365112304688 247.25013732910156 573.6600341796875 253.72666931152344 574.7072143554688" stroke-width="0.0" fill="rgb(255, 255, 255)" opacity="0.6823422"/>
    <path d="M 298.61663818359375 580.2294311523438 C 297.2298889160156 578.2235107421875 295.21624755859375 579.8338012695312 296.1285400390625 577.321044921875 C 297.10064697265625 576.5286865234375 299.85662841796875 577.064697265625 302.07061767578125 578.305908203125 C 301.2080078125 578.84716796875 303.6382141113281 577.2271728515625 304.349853515625 576.1612548828125 C 306.2236633300781 575.5430297851562 304.9696350097656 572.0865478515625 298.61663818359375 580.2294311523438" stroke-width="0.0" fill="rgb(255, 255, 255)" opacity="0.63883096"/>
    <path d="M 584.4652099609375 382.65386962890625 C 585.048583984375 383.23809814453125 585.3048706054688 383.40789794921875 584.8259887695312 385.4652099609375 C 583.2265014648438 383.1495361328125 581.9697265625 383.9295959472656 580.533447265625 382.80023193359375 C 581.5968627929688 383.76507568359375 582.0902709960938 383.26031494140625 583.5404052734375 384.11822509765625 C 582.9921875 384.8674011230469 582.4547119140625 385.76446533203125 584.4652099609375 382.65386962890625" stroke-width="0.0" fill="rgb(255, 255, 255)" opacity="0.76105803"/>
    <path d="M 21.942264556884766 358.82470703125 C 21.72712516784668 356.7208251953125 19.99232292175293 358.766357421875 21.437992095947266 360.0915222167969 C 21.832298278808594 359.8204650878906 23.41168975830078 359.5299987792969 23.263525009155273 361.34832763671875 C 22.22117042541504 362.66339111328125 22.633413314819336 361.5410461425781 24.026288986206055 359.2060546875 C 24.382505416870117 359.2904968261719 26.4291934967041 359.9839172363281 21.942264556884766 358.82470703125" stroke-width="0.0" fill="rgb(255, 255, 255)" opacity="0.71303004"/>
    <path d="M 594.9029541015625 400.62060546875 C 597.7619018554688 402.14300537109375 595.2179565429688 404.0787048339844 592.4713745117188 402.48651123046875 C 594.3466796875 402.07952880859375 593.0326538085938 400.2037658691406 591.9932250976562 399.0191650390625 C 591.2022705078125 398.1899108886719 593.3768310546875 399.4242858886719 591.5992431640625 400.9668884277344 C 589.62646484375 401.4071044921875 591.4166870117188 403.35186767578125 594.9029541015625 400.62060546875" stroke-width="0.0" fill="rgb(255, 255, 255)" opacity="0.6813637"/>
    <path d="M 584.193359375 361.35321044921875 C 585.2094116210938 360.362060546875 582.7692260742188 360.7738952636719 583.0515747070312 360.4179382324219 C 583.6289672851562 361.70220947265625 584.6410522460938 363.0862121582031 584.2406005859375 360.4380187988281 C 582.0096435546875 358.8138427734375 581.5126342773438 357.44342041015625 581.60546875 359.44158935546875 C 579.4105224609375 361.20965576171875 578.3731689453125 362.91595458984375 584.193359375 361.35321044921875" stroke-width="0.0" fill="rgb(255, 255, 255)" opacity="0.8105155"/>
    <path d="M 333.50665283203125 589.6631469726562 C 332.58026123046875 588.4389038085938 334.59857177734375 590.02783203125 333.9205322265625 586.653076171875 C 333.5567321777344 587.5336303710938 333.892333984375 586.4588623046875 335.1025695800781 586.8085327148438 C 336.0348815917969 587.7866821289062 335.5143127441406 586.25439453125 333.58819580078125 586.9268188476562 C 332.2712097167969 586.9002075195312 333.06890869140625 588.9908447265625 333.50665283203125 589.6631469726562" stroke-width="0.0" fill="rgb(255, 255, 255)" opacity="0.82305354"/>
    <path d="M 533.4218139648438 582.049560546875 C 530.9815673828125 581.7131958007812 530.2026977539062 579.4605712890625 531.4249877929688 579.2262573242188 C 533.3263549804688 577.8236083984375 531.842041015625 577.0570068359375 529.2855224609375 575.7228393554688 C 528.3865966796875 574.1049194335938 527.6468505859375 575.0505981445312 525.9676513671875 576.4871826171875 C 526.3971557617188 579.0023803710938 523.8989868164062 578.5338134765625 533.4218139648438 582.049560546875" stroke-width="0.0" fill="rgb(255, 255, 255)" opacity="0.65979236"/>
    <path d="M 513.6320190429688 567.2026977539062 C 516.3894653320312 566.7767944335938 517.8843383789062 568.8800048828125 518.9898681640625 567.77978515625 C 518.8695678710938 565.3641967773438 519.2418823242188 563.5272827148438 518.5834350585938 564.0027465820312 C 519.2489013671875 564.101806640625 521.568115234375 563.4943237304688 520.7608642578125 564.3345336914062 C 522.001953125 565.8867797851562 519.385986328125 568.2393798828125 513.6320190429688 567.2026977539062" stroke-width="0.0" fill="rgb(255, 255, 255)" opacity="0.69115925"/>
    <path d="M 567.635498046875 486.74090576171875 C 568.4241943359375 487.5927429199219 567.8783569335938 488.2441711425781 568.2979736328125 489.0348205566406 C 568.648681640625 488.90203857421875 566.8785400390625 487.3439636230469 569.1199340820312 486.87060546875 C 570.3282470703125 487.5920715332031 571.7476806640625 488.96356201171875 570.61669921875 488.8107604980469 C 572.3939208984375 488.2391357421875 569.3237915039062 490.7850341796875 567.635498046875 486.74090576171875" stroke-width="0.0" fill="rgb(255, 255, 255)" opacity="0.7409746"/>
    <path d="M 28.08354377746582 374.15985107421875 C 27.91220474243164 375.2041320800781 26.30314064025879 376.759521484375 28.12824058532715 374.9982604980469 C 25.596168518066406 373.1314697265625 23.52828025817871 374.0111999511719 23.874279022216797 374.8131408691406 C 24.217607498168945 376.4772644042969 25.91766929626465 374.9629821777344 27.88262367248535 376.3785095214844 C 26.149749755859375 378.79656982421875 28.216838836669922 377.1604919433594 28.08354377746582 374.15985107421875" stroke-width="0.0" fill="rgb(255, 255, 255)" opacity="0.83214545"/>
    <path d="M 571.8783569335938 358.27520751953125 C 572.091552734375 356.7767028808594 572.1806640625 355.2120361328125 571.3465576171875 356.0712890625 C 569.657958984375 359.1000061035156 567.04541015625 357.5152282714844 567.31298828125 358.20379638671875 C 567.3947143554688 357.3872375488281 566.0918579101562 358.7447509765625 567.86279296875 359.2872314453125 C 567.735107421875 357.62896728515625 569.4616088867188 357.645751953125 571.8783569335938 358.27520751953125" stroke-width="0.0" fill="rgb(255, 255, 255)" opacity="0.7509995"/>
    <path d="M 321.74755859375 577.6238403320312 C 320.277587890625 579.9105834960938 321.0525817871094 577.708984375 320.82781982421875 577.7387084960938 C 320.7193908691406 579.4279174804688 321.86907958984375 579.488525390625 321.0059509277344 579.0642700195312 C 321.90179443359375 577.403564453125 321.76092529296875 577.8278198242188 320.2756652832031 579.0524291992188 C 320.65472412109375 578.8320922851562 318.44549560546875 580.6650390625 321.74755859375 577.6238403320312" stroke-width="0.0" fill="rgb(255, 255, 255)" opacity="0.84640247"/>
    <path d="M 531.8170166015625 577.9193115234375 C 529.2553100585938 579.15869140625 528.5748901367188 580.6710205078125 529.02392578125 582.785888671875 C 528.988037109375 581.8870849609375 528.9783325195312 581.2487182617188 529.7195434570312 583.6466064453125 C 529.2899780273438 581.2978515625 527.0907592773438 581.83447265625 528.2692260742188 582.8558959960938 C 529.3910522460938 582.7161865234375 527.9122924804688 584.4766845703125 531.8170166015625 577.9193115234375" stroke-width="0.0" fill="rgb(255, 255, 255)" opacity="0.7925699"/>
    <path d="M 66.27601623535156 590.4412231445312 C 68.26707458496094 590.287841796875 66.0267105102539 589.7947387695312 67.32852935791016 588.8309936523438 C 65.98107147216797 587.99560546875 67.69703674316406 589.2196655273438 69.30715942382812 589.7691040039062 C 68.86571502685547 590.1728515625 68.82785034179688 588.7996826171875 67.72640991210938 589.7755126953125 C 68.8582763671875 589.1331176757812 67.43453216552734 590.6220092773438 66.27601623535156 590.4412231445312" stroke-width="0.0" fill="rgb(255, 255, 255)" opacity="0.8052614"/>
    <path d="M 596.9343872070312 534.8914794921875 C 596.9619750976562 535.662109375 595.4747924804688 534.3452758789062 594.897705078125 533.2122192382812 C 594.6196899414062 532.5925903320312 595.5595092773438 531.2645263671875 596.9124755859375 531.7664794921875 C 595.9581298828125 532.2674560546875 595.2134399414062 532.1609497070312 596.776611328125 531.3195190429688 C 594.1458129882812 529.1324462890625 596.9721069335938 529.7413940429688 596.9343872070312 534.8914794921875" stroke-width="0.0" fill="rgb(255, 255, 255)" opacity="0.7286033"/>
    <path d="M 1.6137728691101074 312.67987060546875 C 3.2704885005950928 315.5044250488281 0.6714796423912048 317.0227355957031 -1.4098025560379028 317.9375 C -2.9736056327819824 320.6805725097656 -4.635208606719971 319.32220458984375 -6.622762203216553 321.0103454589844 C -4.2200608253479 320.5146789550781 -3.8726508617401123 320.792724609375 -5.071767807006836 320.73541259765625 C -6.025516986846924 321.9680480957031 -6.4207282066345215 321.0910339355469 1.6137728691101074 312.67987060546875" stroke-width="0.0" fill="rgb(255, 255, 255)" opacity="0.75668037"/>
    <path d="M 343.67669677734375 568.20947265625 C 345.4868469238281 567.9746704101562 346.1871643066406 565.5333251953125 348.035888671875 564.7927856445312 C 348.4588623046875 564.6914672851562 347.3617248535156 563.7032470703125 348.6402587890625 564.2736206054688 C 348.17803955078125 564.4873046875 347.1182556152344 562.0800170898438 348.2875671386719 561.4432373046875 C 350.7428894042969 559.0693359375 351.7013854980469 556.5427856445312 343.67669677734375 568.20947265625" stroke-width="0.0" fill="rgb(255, 255, 255)" opacity="0.6573533"/>
    <path d="M 313.4714050292969 598.5494384765625 C 312.6839599609375 596.8226318359375 310.62835693359375 594.8745727539062 310.11541748046875 596.4989624023438 C 309.6188659667969 593.7725830078125 310.26629638671875 592.6049194335938 311.9853820800781 592.71044921875 C 314.3654479980469 591.3109741210938 312.6403503417969 590.52783203125 314.1038818359375 592.7562255859375 C 315.5727233886719 593.4995727539062 315.74102783203125 594.5646362304688 313.4714050292969 598.5494384765625" stroke-width="0.0" fill="rgb(255, 255, 255)" opacity="0.6869442"/>
    <path d="M -6.743533134460449 49.34451675415039 C 3.0890004634857178 46.69704055786133 2.9647064208984375 46.64170837402344 -9.381653785705566 50.45549774169922 C -2.515608072280884 63.0858154296875 -0.8098734617233276 63.80131530761719 0.23584194481372833 66.93864440917969 C 16.140485763549805 57.954490661621094 19.027128219604492 54.528018951416016 28.276674270629883 49.186763763427734 C 24.05695915222168 46.066932678222656 17.728313446044922 51.456172943115234 -6.743533134460449 49.34451675415039" stroke-width="0.0" fill="rgb(20, 19, 20)" opacity="1.0"/>
    <path d="M 6.188530445098877 381.70709228515625 C 8.418364524841309 383.26116943359375 6.019667148590088 384.6602478027344 3.246222496032715 386.61798095703125 C 2.534738302230835 389.2644958496094 1.1335337162017822 387.98333740234375 2.3770124912261963 387.1094055175781 C 4.753207206726074 386.49908447265625 4.2552690505981445 383.23773193359375 3.051831007003784 382.18231201171875 C 4.623530387878418 383.7366638183594 6.22114372253418 383.3193054199219 6.188530445098877 381.70709228515625" stroke-width="0.0" fill="rgb(255, 255, 255)" opacity="0.6787132"/>
    <path d="M 542.783203125 567.1273193359375 C 540.3609619140625 566.91357421875 540.9329833984375 566.5663452148438 541.1171875 567.6346435546875 C 542.5913696289062 567.5792846679688 544.4571533203125 565.7864379882812 541.9568481445312 564.6517944335938 C 543.6509399414062 563.6832275390625 541.4497680664062 564.5759887695312 539.7276611328125 567.0146484375 C 537.1064453125 566.6119995117188 536.378173828125 569.4376831054688 542.783203125 567.1273193359375" stroke-width="0.0" fill="rgb(255, 255, 255)" opacity="0.70186645"/>
    <path d="M 572.0586547851562 529.46826171875 C 574.0736083984375 528.5072631835938 573.9381103515625 528.0631103515625 571.3075561523438 530.267578125 C 569.7399291992188 532.8983154296875 572.4469604492188 534.1677856445312 575.3351440429688 534.0983276367188 C 574.3857421875 535.8818359375 575.3616333007812 536.518798828125 577.8642578125 535.7537231445312 C 578.3055419921875 538.7013549804688 577.0956420898438 537.4237060546875 572.0586547851562 529.46826171875" stroke-width="0.0" fill="rgb(255, 255, 255)" opacity="0.62591964"/>
    <path d="M 525.3515625 563.6322631835938 C 525.9118041992188 563.96826171875 524.6634521484375 563.3344116210938 526.3076782226562 563.8776245117188 C 524.3153076171875 562.926025390625 525.183349609375 564.0499877929688 523.4050903320312 565.0762329101562 C 524.5515747070312 564.3631591796875 526.1552734375 562.7318725585938 525.2828369140625 563.0018310546875 C 527.4153442382812 564.174560546875 525.2348022460938 562.4295043945312 525.3515625 563.6322631835938" stroke-width="0.0" fill="rgb(255, 255, 255)" opacity="0.873382"/>
    <path d="M 14.32625961303711 394.1366882324219 C 17.09758758544922 392.92059326171875 15.774482727050781 392.8819885253906 13.500797271728516 394.8870849609375 C 11.580580711364746 397.4947814941406 9.325553894042969 395.69854736328125 12.901289939880371 393.8584899902344 C 15.017939567565918 395.0531311035156 16.06015968322754 393.4241943359375 16.969039916992188 393.4570007324219 C 17.912290573120117 392.16455078125 16.134748458862305 394.4983825683594 14.32625961303711 394.1366882324219" stroke-width="0.0" fill="rgb(255, 255, 255)" opacity="0.6958344"/>
    <path d="M 590.5173950195312 584.2588500976562 C 592.2806396484375 582.080810546875 589.669921875 580.9679565429688 587.1257934570312 579.8623046875 C 586.8988647460938 579.6306762695312 587.2426147460938 578.509033203125 586.5667114257812 576.3917236328125 C 586.970947265625 575.6709594726562 587.49951171875 575.7198486328125 587.2189331054688 575.2050170898438 C 586.4700317382812 577.5621948242188 585.5707397460938 575.6929931640625 590.5173950195312 584.2588500976562" stroke-width="0.0" fill="rgb(255, 255, 255)" opacity="0.6599392"/>
    <path d="M 579.7537231445312 357.0924072265625 C 580.4295654296875 358.4394836425781 583.2093505859375 360.1104736328125 584.7194213867188 361.319091796875 C 585.025146484375 360.78790283203125 586.0220947265625 363.534912109375 582.9583129882812 363.17169189453125 C 580.7494506835938 362.0013732910156 581.4999389648438 360.9853210449219 579.8873901367188 360.53875732421875 C 582.2435913085938 358.38299560546875 583.2822875976562 356.4320068359375 579.7537231445312 357.0924072265625" stroke-width="0.0" fill="rgb(255, 255, 255)" opacity="0.6986282"/>
    <path d="M 529.2891845703125 566.1314697265625 C 529.1016845703125 568.5125732421875 530.8795166015625 569.9075927734375 530.517333984375 571.120849609375 C 530.44287109375 570.565673828125 530.7318725585938 568.6292114257812 530.6124267578125 570.3218383789062 C 532.228759765625 571.6266479492188 534.1326904296875 572.5088500976562 534.2972412109375 572.5459594726562 C 531.7110595703125 571.1463012695312 529.6497802734375 570.626708984375 529.2891845703125 566.1314697265625" stroke-width="0.0" fill="rgb(255, 255, 255)" opacity="0.821269"/>
    <path d="M 30.747148513793945 43.8809928894043 C 30.12117576599121 45.01264190673828 31.688453674316406 42.50517272949219 30.745689392089844 43.03776550292969 C 33.4725227355957 42.94235610961914 32.485107421875 43.28420639038086 33.85748291015625 42.92620849609375 C 34.180633544921875 44.700111389160156 34.446346282958984 43.074134826660156 33.909454345703125 44.04399871826172 C 35.544960021972656 43.85578155517578 33.81560516357422 44.08561325073242 30.747148513793945 43.8809928894043" stroke-width="0.0" fill="rgb(255, 255, 255)" opacity="0.82990223"/>
    <path d="M 594.0031127929688 485.0433349609375 C 593.55908203125 484.66802978515625 595.109130859375 482.690673828125 595.2291259765625 481.9460754394531 C 592.8589477539062 482.03045654296875 593.7152709960938 481.445556640625 592.1919555664062 483.7469787597656 C 592.8054809570312 482.3384094238281 592.484130859375 482.5437927246094 595.041259765625 483.8644714355469 C 593.1687622070312 483.4880065917969 591.7041015625 484.8409423828125 594.0031127929688 485.0433349609375" stroke-width="0.0" fill="rgb(255, 255, 255)" opacity="0.7460212"/>
    <path d="M 294.8011779785156 593.4913940429688 C 295.3224792480469 590.8269653320312 296.2262268066406 590.3215942382812 295.3516540527344 589.6146240234375 C 294.8020935058594 590.8510131835938 294.6189270019531 589.2611083984375 294.8607177734375 590.7738647460938 C 294.72198486328125 589.3207397460938 295.7663269042969 587.8017578125 295.9267578125 589.8201293945312 C 296.5730285644531 588.4093017578125 296.3233337402344 587.8453979492188 294.8011779785156 593.4913940429688" stroke-width="0.0" fill="rgb(255, 255, 255)" opacity="0.786777"/>
    <path d="M 273.4078674316406 591.6493530273438 C 272.65118408203125 592.3507080078125 274.3553771972656 592.0040283203125 272.68658447265625 590.5790405273438 C 273.5369873046875 592.9996948242188 273.8385314941406 591.6307373046875 271.55023193359375 590.4732055664062 C 273.20867919921875 587.2774047851562 273.7841491699219 586.2926635742188 271.4170837402344 585.7218627929688 C 270.3233337402344 584.9443359375 271.486083984375 584.7059326171875 273.4078674316406 591.6493530273438" stroke-width="0.0" fill="rgb(255, 255, 255)" opacity="0.68424153"/>
    <path d="M 555.40234375 478.9499816894531 C 553.277099609375 478.8708801269531 554.1404418945312 479.6992492675781 555.3343505859375 478.99688720703125 C 554.7203369140625 478.7937927246094 555.2003173828125 481.24249267578125 554.9364013671875 482.0623474121094 C 552.5309448242188 481.6343078613281 555.1276245117188 480.4526062011719 553.715576171875 479.4459228515625 C 551.1921997070312 478.8564758300781 553.1466674804688 480.0106506347656 555.40234375 478.9499816894531" stroke-width="0.0" fill="rgb(255, 255, 255)" opacity="0.77104086"/>
    <path d="M 575.3312377929688 397.90545654296875 C 573.1021728515625 399.1081237792969 575.5175170898438 398.0644836425781 576.1820678710938 396.39617919921875 C 575.2596435546875 398.33868408203125 573.821533203125 398.0494079589844 575.783447265625 396.9306640625 C 576.987548828125 396.55584716796875 575.06884765625 398.8830261230469 576.26123046875 397.0480651855469 C 577.5245361328125 396.5901184082031 577.3828735351562 398.78765869140625 575.3312377929688 397.90545654296875" stroke-width="0.0" fill="rgb(255, 255, 255)" opacity="0.8140145"/>
    <path d="M 557.9347534179688 470.5459289550781 C 557.8146362304688 469.2739562988281 558.872802734375 469.92010498046875 560.2368774414062 469.9589538574219 C 559.0053100585938 466.99481201171875 561.6317749023438 467.6930236816406 561.5792236328125 469.30242919921875 C 562.7081909179688 466.8897399902344 561.9854736328125 466.9291687011719 559.3316650390625 466.9765319824219 C 557.7174682617188 465.6063232421875 560.5369873046875 466.6875915527344 557.9347534179688 470.5459289550781" stroke-width="0.0" fill="rgb(255, 255, 255)" opacity="0.7233541"/>
    <path d="M 24.327369689941406 67.98145294189453 C 2.7803637981414795 61.04474639892578 6.4815449714660645 53.69379806518555 6.851816177368164 53.41409683227539 C -6.516750812530518 50.29159164428711 -6.3936920166015625 55.48451614379883 -3.917743444442749 66.22564697265625 C -2.028977394104004 68.96283721923828 -2.873490571975708 68.50220489501953 -8.013781547546387 72.22362518310547 C 9.3307523727417 74.54707336425781 11.047850608825684 72.00968933105469 24.327369689941406 67.98145294189453" stroke-width="0.0" fill="rgb(0, 0, 0)" opacity="0.978321"/>
    <path d="M 566.9678344726562 543.41064453125 C 568.2515869140625 546.440185546875 568.7337036132812 545.0408325195312 567.6605834960938 545.0362548828125 C 566.3815307617188 542.6917724609375 567.6558837890625 540.24951171875 567.3062744140625 537.8065185546875 C 565.8111572265625 535.8502807617188 565.7307739257812 537.6682739257812 566.2658081054688 538.1394653320312 C 567.6903686523438 537.8489379882812 567.54345703125 535.5604858398438 566.9678344726562 543.41064453125" stroke-width="0.0" fill="rgb(255, 255, 255)" opacity="0.75734776"/>
    <path d="M 42.77759552001953 590.5379028320312 C 44.69429397583008 591.2199096679688 45.533992767333984 591.6295776367188 47.88862609863281 592.6544799804688 C 48.43702697753906 595.222412109375 50.58450698852539 595.798095703125 51.376014709472656 594.3858642578125 C 50.67258071899414 594.6444702148438 50.90196228027344 594.39697265625 52.282711029052734 594.9853515625 C 53.765079498291016 596.7526245117188 53.89715576171875 595.0834350585938 42.77759552001953 590.5379028320312" stroke-width="0.0" fill="rgb(255, 255, 255)" opacity="0.69994897"/>
    <path d="M 3.1791839599609375 336.89642333984375 C 1.9797770977020264 338.18914794921875 3.6380209922790527 338.6801452636719 6.79362154006958 337.0262756347656 C 6.0991621017456055 338.08795166015625 4.025020122528076 338.0316467285156 4.860086441040039 338.0577392578125 C 7.536256790161133 337.2153015136719 7.122519493103027 336.8636169433594 4.603200912475586 337.43621826171875 C 5.413843154907227 337.7818298339844 7.707498073577881 337.1513671875 3.1791839599609375 336.89642333984375" stroke-width="0.0" fill="rgb(255, 255, 255)" opacity="0.7418614"/>
    <path d="M 11.744758605957031 430.75677490234375 C 12.064112663269043 429.64727783203125 12.49119758605957 430.6929626464844 11.977337837219238 430.501708984375 C 13.569912910461426 428.8049011230469 15.155179023742676 426.716552734375 16.439224243164062 424.8913269042969 C 16.858901977539062 423.9200134277344 16.698423385620117 425.0967712402344 17.078645706176758 423.8270568847656 C 17.731822967529297 421.862060546875 17.854982376098633 424.2669677734375 11.744758605957031 430.75677490234375" stroke-width="0.0" fill="rgb(255, 255, 255)" opacity="0.7856488"/>
    <path d="M 582.1603393554688 395.2256774902344 C 584.3697509765625 395.61859130859375 584.2744140625 393.3907470703125 583.7369384765625 391.9375 C 582.8057861328125 392.3631896972656 583.1089477539062 389.68206787109375 581.17919921875 388.7594909667969 C 580.5614013671875 389.70599365234375 581.2523193359375 391.6371154785156 580.9049682617188 391.88873291015625 C 580.3048706054688 391.5757751464844 578.332763671875 393.50250244140625 582.1603393554688 395.2256774902344" stroke-width="0.0" fill="rgb(255, 255, 255)" opacity="0.6809968"/>
    <path d="M 357.3881530761719 570.1358642578125 C 356.39666748046875 568.009033203125 352.9675598144531 568.68896484375 351.85430908203125 570.8439331054688 C 349.97772216796875 572.226318359375 348.8065490722656 573.3045043945312 351.417236328125 574.5286254882812 C 351.7900390625 573.399658203125 351.0964050292969 574.3106079101562 350.9967956542969 575.9155883789062 C 350.8525695800781 576.9097290039062 351.4356689453125 576.1580810546875 357.3881530761719 570.1358642578125" stroke-width="0.0" fill="rgb(255, 255, 255)" opacity="0.633894"/>
    <path d="M 591.2941284179688 368.16943359375 C 590.8734741210938 368.07061767578125 589.0518188476562 368.9264221191406 590.531005859375 368.7563171386719 C 588.092529296875 368.1309814453125 585.0980224609375 370.0738525390625 588.0585327148438 369.9725646972656 C 587.6935424804688 367.8322448730469 588.8311157226562 365.4898681640625 586.8494262695312 367.7906494140625 C 584.8060913085938 369.28839111328125 585.956298828125 369.3568420410156 591.2941284179688 368.16943359375" stroke-width="0.0" fill="rgb(255, 255, 255)" opacity="0.70952904"/>
    <path d="M 593.5653076171875 460.2182312011719 C 593.1793212890625 459.2112121582031 590.9722290039062 461.4718017578125 590.6083374023438 460.9458312988281 C 594.045166015625 460.2870788574219 592.5532836914062 459.005126953125 593.2095947265625 460.03857421875 C 594.3070678710938 460.9128723144531 594.85107421875 461.5121154785156 594.3912963867188 461.3007507324219 C 595.7404174804688 461.79931640625 595.4686279296875 461.9534912109375 593.5653076171875 460.2182312011719" stroke-width="0.0" fill="rgb(255, 255, 255)" opacity="0.7889174"/>
    <path d="M 0.8549447655677795 364.8863525390625 C 1.4653617143630981 366.0491943359375 0.6104876399040222 364.32159423828125 1.4770110845565796 366.2178649902344 C 0.6589064002037048 367.11370849609375 2.5785603523254395 368.279541015625 1.430652379989624 367.29266357421875 C 0.8048192858695984 368.96063232421875 1.602967381477356 368.11700439453125 1.2783883810043335 365.9189758300781 C 2.5672459602355957 368.56231689453125 2.984550952911377 370.0529479980469 0.8549447655677795 364.8863525390625" stroke-width="0.0" fill="rgb(255, 255, 255)" opacity="0.8401419"/>
    <path d="M 580.5985107421875 376.4888000488281 C 581.9039306640625 375.9980163574219 580.34765625 376.6749572753906 581.1759033203125 377.9431457519531 C 583.4310913085938 378.45220947265625 583.790283203125 377.0404968261719 582.2086791992188 376.8299255371094 C 582.1566162109375 376.6618347167969 581.683349609375 375.3575744628906 582.0145263671875 375.7383728027344 C 583.5238647460938 374.22998046875 585.1256103515625 373.73095703125 580.5985107421875 376.4888000488281" stroke-width="0.0" fill="rgb(255, 255, 255)" opacity="0.7613484"/>
    <path d="M 597.7262573242188 349.58795166015625 C 600.1447143554688 348.1318664550781 598.572509765625 345.6271667480469 599.2109985351562 344.01898193359375 C 601.8938598632812 342.7981262207031 603.8751831054688 344.8715515136719 601.467041015625 343.1817932128906 C 602.21484375 344.09967041015625 602.19140625 345.8607482910156 602.4456787109375 345.1334228515625 C 603.0789794921875 343.614501953125 604.98193359375 342.745361328125 597.7262573242188 349.58795166015625" stroke-width="0.0" fill="rgb(255, 255, 255)" opacity="0.8380681"/>
    <path d="M 598.1484375 346.33856201171875 C 599.05859375 346.7840270996094 598.13818359375 346.36212158203125 597.6892700195312 346.1160888671875 C 599.1747436523438 345.963134765625 600.8114013671875 345.8360595703125 599.4046020507812 344.3084716796875 C 596.73486328125 344.52685546875 598.0697021484375 344.0289001464844 601.388427734375 344.97332763671875 C 599.7996826171875 346.6465148925781 597.3577270507812 348.005126953125 598.1484375 346.33856201171875" stroke-width="0.0" fill="rgb(255, 255, 255)" opacity="0.8412032"/>
    <path d="M 39.95957946777344 587.2568969726562 C 40.06320571899414 586.0824584960938 40.342254638671875 585.2984619140625 39.84038543701172 586.8435668945312 C 41.987056732177734 588.5569458007812 40.39518737792969 590.13720703125 40.62144470214844 589.7545776367188 C 38.509071350097656 590.9421997070312 40.71997833251953 591.2518920898438 42.2033805847168 590.9952392578125 C 43.823970794677734 591.078857421875 43.695655822753906 588.9854125976562 39.95957946777344 587.2568969726562" stroke-width="0.0" fill="rgb(255, 255, 255)" opacity="0.71679044"/>
    <path d="M 24.827150344848633 56.833831787109375 C 23.749418258666992 57.001930236816406 23.023584365844727 57.69717025756836 7.868616104125977 59.08247375488281 C 9.612100601196289 52.43410873413086 11.59682559967041 47.34429931640625 40.261417388916016 48.602848052978516 C 42.5386848449707 47.853878021240234 42.20709228515625 58.66775131225586 39.62361526489258 57.87717819213867 C 19.701120376586914 57.142333984375 21.573749542236328 58.582618713378906 24.827150344848633 56.833831787109375" stroke-width="0.0" fill="rgb(0, 0, 0)" opacity="0.98280424"/>
    <path d="M 531.9373779296875 584.4669799804688 C 531.805908203125 583.3963623046875 532.0178833007812 584.8614501953125 531.981201171875 586.83154296875 C 533.4991455078125 587.3397827148438 532.3535766601562 586.884521484375 534.62841796875 589.1416625976562 C 533.47802734375 589.5156860351562 535.5468139648438 588.4160766601562 537.0466918945312 589.4189453125 C 538.6719970703125 591.7802734375 540.9151000976562 593.0062255859375 531.9373779296875 584.4669799804688" stroke-width="0.0" fill="rgb(255, 255, 255)" opacity="0.693823"/>
    <path d="M 311.4461669921875 591.26708984375 C 313.8627624511719 592.8197021484375 312.7553405761719 594.6802978515625 311.5603942871094 595.7176513671875 C 310.2250671386719 593.47265625 310.89862060546875 594.1806640625 308.08990478515625 593.9589233398438 C 306.6357727050781 590.866943359375 304.7689514160156 592.37353515625 302.1319580078125 591.9080200195312 C 301.1571350097656 590.080078125 302.0099182128906 588.7098999023438 311.4461669921875 591.26708984375" stroke-width="0.0" fill="rgb(255, 255, 255)" opacity="0.6571381"/>
    <path d="M 75.51982116699219 591.6111450195312 C 77.99043273925781 594.2569580078125 76.86866760253906 593.0410766601562 79.44938659667969 591.4277954101562 C 76.47176361083984 589.7850341796875 77.05378723144531 592.1907958984375 76.97335052490234 593.442138671875 C 76.50462341308594 592.3233642578125 78.59046173095703 595.015380859375 79.0204849243164 594.8905639648438 C 78.17134857177734 595.0182495117188 80.89236450195312 596.8611450195312 75.51982116699219 591.6111450195312" stroke-width="0.0" fill="rgb(255, 255, 255)" opacity="0.71123165"/>
    <path d="M 558.2903442382812 565.628173828125 C 558.1911010742188 564.2357177734375 558.407470703125 565.5794677734375 557.7115478515625 564.9822387695312 C 555.9718627929688 564.9591674804688 557.8280639648438 562.8638916015625 556.3087158203125 562.5400390625 C 558.8967895507812 563.73095703125 560.96435546875 562.82080078125 559.64013671875 561.951416015625 C 559.509033203125 562.2130126953125 556.8092651367188 564.19091796875 558.2903442382812 565.628173828125" stroke-width="0.0" fill="rgb(255, 255, 255)" opacity="0.73827374"/>
    <path d="M 565.3917236328125 364.0595397949219 C 564.1680908203125 363.27734375 564.5657958984375 362.0052185058594 562.7900390625 361.793701171875 C 560.905029296875 363.5430908203125 562.342529296875 364.3436279296875 563.6276245117188 364.0929870605469 C 563.7918701171875 363.0097351074219 562.2708740234375 364.2233581542969 563.9267578125 362.9103088378906 C 563.1388549804688 363.2565612792969 562.770751953125 364.36456298828125 565.3917236328125 364.0595397949219" stroke-width="0.0" fill="rgb(255, 255, 255)" opacity="0.73657835"/>
    <path d="M 587.1041870117188 371.8460693359375 C 588.2505493164062 371.9396057128906 589.748046875 374.0526428222656 588.6508178710938 376.8445739746094 C 589.6087036132812 375.9735412597656 588.608642578125 377.246337890625 589.54736328125 376.2045593261719 C 587.4905395507812 378.03594970703125 588.8612060546875 376.78118896484375 586.7809448242188 375.26800537109375 C 587.439697265625 374.2125244140625 586.841796875 372.0230712890625 587.1041870117188 371.8460693359375" stroke-width="0.0" fill="rgb(255, 255, 255)" opacity="0.71351105"/>
    <path d="M 502.586181640625 595.7017211914062 C 502.53466796875 595.4857177734375 501.0162353515625 596.237060546875 502.4236755371094 595.7215576171875 C 501.335693359375 595.1539306640625 500.1573181152344 594.8642578125 501.60791015625 595.57958984375 C 502.3499755859375 594.9686889648438 500.318603515625 595.7111206054688 502.69427490234375 595.7183837890625 C 501.2509460449219 597.4384765625 502.6353759765625 595.8674926757812 502.586181640625 595.7017211914062" stroke-width="0.0" fill="rgb(255, 255, 255)" opacity="0.80784965"/>
    <path d="M 559.527587890625 399.8816223144531 C 560.5391845703125 396.851318359375 561.212646484375 397.4375 563.45849609375 399.9580078125 C 565.0191040039062 398.8836975097656 563.8399047851562 400.1438903808594 561.43798828125 400.00054931640625 C 560.6376342773438 399.722900390625 558.2340698242188 400.1585693359375 556.942626953125 399.3529968261719 C 557.1001586914062 398.496337890625 555.0348510742188 398.0827941894531 559.527587890625 399.8816223144531" stroke-width="0.0" fill="rgb(255, 255, 255)" opacity="0.7777442"/>
    <path d="M 579.4293212890625 372.937255859375 C 581.3447265625 374.3744201660156 579.2987060546875 375.6982727050781 578.0791015625 374.7722473144531 C 577.8551025390625 374.11956787109375 577.8763427734375 372.2738037109375 577.96435546875 373.0123291015625 C 578.9221801757812 372.6845703125 578.27587890625 372.7947692871094 577.73876953125 373.1755676269531 C 579.805419921875 372.5636901855469 577.8086547851562 373.59283447265625 579.4293212890625 372.937255859375" stroke-width="0.0" fill="rgb(255, 255, 255)" opacity="0.7790578"/>
    <path d="M 361.78680419921875 571.3890991210938 C 360.3313903808594 572.3910522460938 358.0248107910156 572.6279907226562 359.35955810546875 575.1551513671875 C 358.4750671386719 574.9019165039062 357.5670471191406 574.8712768554688 358.0531921386719 576.1054077148438 C 357.1982116699219 577.0894775390625 359.3630065917969 579.2269897460938 361.32025146484375 580.3475341796875 C 362.20654296875 581.1074829101562 359.4000549316406 579.8058471679688 361.78680419921875 571.3890991210938" stroke-width="0.0" fill="rgb(255, 255, 255)" opacity="0.643663"/>
    <path d="M -1.1787893772125244 42.82842254638672 C 0.3807547986507416 42.05289840698242 -0.41465017199516296 42.746944427490234 -2.119352340698242 42.51580047607422 C -3.2632646560668945 41.95831298828125 -0.7440385818481445 40.3654899597168 0.5345505475997925 41.90900421142578 C -0.3056947588920593 40.96652603149414 -0.06845614314079285 40.445884704589844 0.34304702281951904 41.28791809082031 C -0.3671102225780487 43.154476165771484 -0.34438738226890564 44.480098724365234 -1.1787893772125244 42.82842254638672" stroke-width="0.0" fill="rgb(255, 255, 255)" opacity="0.8430612"/>
    <path d="M 568.7975463867188 447.6719970703125 C 566.0346069335938 449.53497314453125 567.9180297851562 451.7258605957031 565.5419311523438 450.9932556152344 C 563.6494140625 451.9244384765625 564.2801513671875 451.4611511230469 565.4668579101562 451.001708984375 C 566.6860961914062 451.42095947265625 568.53564453125 449.8817138671875 566.6962280273438 450.72552490234375 C 568.7195434570312 448.7313537597656 569.521484375 450.4886779785156 568.7975463867188 447.6719970703125" stroke-width="0.0" fill="rgb(255, 255, 255)" opacity="0.7920512"/>
    <path d="M 371.0033264160156 579.77978515625 C 369.2451477050781 581.224853515625 366.61968994140625 583.2447509765625 368.6233825683594 584.2352294921875 C 369.5273742675781 581.76513671875 371.9750671386719 582.8145751953125 372.3819885253906 584.077392578125 C 375.416015625 583.7398071289062 373.6922302246094 584.8204956054688 375.59588623046875 583.0752563476562 C 377.152587890625 582.996826171875 374.8907775878906 580.3504028320312 371.0033264160156 579.77978515625" stroke-width="0.0" fill="rgb(255, 255, 255)" opacity="0.6409127"/>
    <path d="M 22.30586051940918 377.150390625 C 20.871017456054688 374.739501953125 23.69300651550293 377.60845947265625 25.346797943115234 374.25079345703125 C 24.525907516479492 373.8099060058594 25.82756805419922 374.7425231933594 28.09543800354004 373.7715148925781 C 28.250255584716797 373.1863708496094 28.615942001342773 374.75634765625 27.853403091430664 373.693603515625 C 30.471689224243164 374.3220520019531 29.041748046875 375.5307922363281 22.30586051940918 377.150390625" stroke-width="0.0" fill="rgb(255, 255, 255)" opacity="0.69730985"/>
    <path d="M 48.037654876708984 596.0159301757812 C 47.628021240234375 598.0104370117188 49.56317138671875 596.3790283203125 48.406517028808594 597.4019775390625 C 49.00542068481445 595.9097900390625 50.8712158203125 595.0381469726562 51.770992279052734 595.4508056640625 C 52.82844924926758 595.3731689453125 52.46669387817383 595.2255249023438 49.85329055786133 595.6311645507812 C 49.94697189331055 596.942626953125 51.63642120361328 595.875244140625 48.037654876708984 596.0159301757812" stroke-width="0.0" fill="rgb(255, 255, 255)" opacity="0.81437683"/>
    <path d="M 574.6282348632812 553.7262573242188 C 576.0736694335938 552.1847534179688 576.1372680664062 551.30517578125 576.2129516601562 552.69970703125 C 575.1683349609375 550.6755981445312 574.05224609375 549.7406616210938 573.1695556640625 548.7965698242188 C 574.775634765625 550.2565307617188 575.4689331054688 551.6615600585938 576.660400390625 553.0108642578125 C 575.6564331054688 551.3047485351562 575.0448608398438 553.6449584960938 574.6282348632812 553.7262573242188" stroke-width="0.0" fill="rgb(255, 255, 255)" opacity="0.79242873"/>
    <path d="M 555.7257080078125 553.1565551757812 C 559.2433471679688 552.688232421875 557.5930786132812 553.9415893554688 556.9095458984375 552.5157470703125 C 554.7770385742188 549.7456665039062 554.05908203125 551.0496215820312 555.0166625976562 549.9683837890625 C 554.263427734375 547.7162475585938 552.2074584960938 547.687255859375 551.5292358398438 548.1763305664062 C 549.3666381835938 547.2979125976562 548.2318115234375 548.2743530273438 555.7257080078125 553.1565551757812" stroke-width="0.0" fill="rgb(255, 255, 255)" opacity="0.64948463"/>
    <path d="M 503.0609130859375 584.0911865234375 C 502.7392883300781 582.47998046875 503.2748107910156 580.846435546875 502.8275451660156 579.5264282226562 C 504.0777893066406 581.0101318359375 506.4759521484375 581.0713500976562 504.6153869628906 582.0842895507812 C 505.114501953125 582.9273681640625 504.4059753417969 581.6417236328125 506.9852600097656 579.451171875 C 507.0263671875 581.4039916992188 507.8598327636719 584.4848022460938 503.0609130859375 584.0911865234375" stroke-width="0.0" fill="rgb(255, 255, 255)" opacity="0.6826214"/>
    <path d="M 16.930692672729492 318.65234375 C 16.629314422607422 316.96734619140625 17.057947158813477 316.9319763183594 16.925804138183594 318.501220703125 C 18.573348999023438 319.627197265625 18.528697967529297 321.77435302734375 21.249038696289062 318.2528991699219 C 21.367137908935547 317.8804931640625 19.015565872192383 317.8007507324219 20.0930118560791 318.4859619140625 C 20.41339874267578 319.12261962890625 18.231088638305664 319.1427001953125 16.930692672729492 318.65234375" stroke-width="0.0" fill="rgb(255, 255, 255)" opacity="0.73790616"/>
    <path d="M 584.8665771484375 408.40118408203125 C 584.8031005859375 409.4422912597656 584.81787109375 410.3560791015625 584.5346069335938 411.6814880371094 C 584.3756713867188 412.167236328125 585.791015625 412.2916564941406 584.9124755859375 415.3865966796875 C 585.0161743164062 414.1855163574219 585.1265258789062 416.49505615234375 585.1874389648438 416.1662902832031 C 582.9265747070312 415.6006774902344 584.095947265625 417.1871032714844 584.8665771484375 408.40118408203125" stroke-width="0.0" fill="rgb(255, 255, 255)" opacity="0.6883477"/>
    <path d="M 591.2935180664062 351.8002624511719 C 589.308349609375 350.3541564941406 587.9136962890625 350.8087158203125 587.6080322265625 351.9415283203125 C 587.81005859375 349.7430114746094 589.1878051757812 349.2051086425781 589.1088256835938 349.79150390625 C 588.6100463867188 349.8662414550781 587.5654907226562 349.5507507324219 586.152099609375 347.8366394042969 C 586.8179931640625 348.2519226074219 585.6825561523438 348.12060546875 591.2935180664062 351.8002624511719" stroke-width="0.0" fill="rgb(255, 255, 255)" opacity="0.7453742"/>
    <path d="M 78.79891967773438 586.6572265625 C 79.14767456054688 586.308837890625 80.91218566894531 585.3948974609375 79.3001708984375 586.3782348632812 C 79.74598693847656 586.658447265625 77.13679504394531 586.1842651367188 76.5601577758789 585.8013916015625 C 76.5748291015625 585.9876098632812 76.3226547241211 585.9663696289062 75.16233825683594 586.0331420898438 C 74.15415954589844 586.4583740234375 76.02404022216797 585.5210571289062 78.79891967773438 586.6572265625" stroke-width="0.0" fill="rgb(255, 255, 255)" opacity="0.77611536"/>
    <path d="M 499.8648376464844 557.4122314453125 C 502.12249755859375 554.9234619140625 503.9047546386719 555.5398559570312 502.7997741699219 558.4464111328125 C 504.6952209472656 559.9698486328125 504.4559020996094 561.4439086914062 505.52838134765625 558.5092163085938 C 506.27728271484375 560.6006469726562 507.3809509277344 561.4066162109375 506.1514892578125 559.9096069335938 C 506.0003662109375 563.5467529296875 504.94879150390625 562.7704467773438 499.8648376464844 557.4122314453125" stroke-width="0.0" fill="rgb(255, 255, 255)" opacity="0.6442488"/>
    <path d="M 301.2221984863281 593.6858520507812 C 299.3265380859375 592.8331909179688 299.6851501464844 591.655517578125 300.5853576660156 591.9940795898438 C 302.3016052246094 593.6627197265625 303.20574951171875 594.9295043945312 303.30938720703125 594.95458984375 C 302.30908203125 597.54150390625 301.5586853027344 595.1309204101562 303.63629150390625 597.7098999023438 C 302.84320068359375 596.332275390625 303.0024719238281 598.2310791015625 301.2221984863281 593.6858520507812" stroke-width="0.0" fill="rgb(255, 255, 255)" opacity="0.7158337"/>
    <path d="M 582.1307373046875 539.9405517578125 C 583.3445434570312 538.0068359375 583.4906005859375 536.2786865234375 583.4837036132812 536.9524536132812 C 582.040771484375 536.9135131835938 583.250732421875 535.3692016601562 583.5645751953125 536.0337524414062 C 584.5947265625 535.474853515625 584.4255981445312 536.8328247070312 584.263916015625 535.9464721679688 C 584.9151611328125 535.3466186523438 583.8223876953125 536.1468505859375 582.1307373046875 539.9405517578125" stroke-width="0.0" fill="rgb(255, 255, 255)" opacity="0.7773345"/>
    <path d="M 566.3964233398438 561.1109008789062 C 566.7794799804688 560.2520141601562 568.0888061523438 559.6577758789062 569.4891357421875 558.5166015625 C 570.97265625 559.6661376953125 573.8785400390625 560.9705200195312 575.993896484375 562.3443603515625 C 573.8135375976562 561.1826171875 574.35595703125 561.222412109375 576.4315795898438 559.3460083007812 C 574.2305297851562 558.0789184570312 571.3344116210938 556.02490234375 566.3964233398438 561.1109008789062" stroke-width="0.0" fill="rgb(255, 255, 255)" opacity="0.64304197"/>
    <path d="M 569.440185546875 582.8432006835938 C 567.54150390625 582.6920776367188 565.65673828125 581.3800659179688 564.6641235351562 584.3145751953125 C 563.5486450195312 583.0576171875 564.5062255859375 582.7593994140625 562.5184936523438 583.0977783203125 C 561.4375 582.36669921875 563.0147705078125 583.8948364257812 561.8131103515625 582.1911010742188 C 562.0375366210938 582.3751220703125 562.0929565429688 581.2089233398438 569.440185546875 582.8432006835938" stroke-width="0.0" fill="rgb(255, 255, 255)" opacity="0.7405921"/>
    <path d="M 594.9407348632812 582.9405517578125 C 596.3786010742188 584.8408203125 596.6195068359375 584.1569213867188 597.2430419921875 585.94140625 C 596.4995727539062 585.6834716796875 597.3287353515625 588.127685546875 596.7211303710938 587.8624877929688 C 598.3685913085938 588.5830078125 598.0647583007812 587.6484375 597.7742309570312 583.8612060546875 C 596.1157836914062 584.4624633789062 597.927734375 586.1715087890625 594.9407348632812 582.9405517578125" stroke-width="0.0" fill="rgb(255, 255, 255)" opacity="0.769122"/>
    <path d="M 598.9968872070312 547.0031127929688 C 601.3492431640625 549.3381958007812 601.7792358398438 551.1038818359375 603.9512939453125 549.694580078125 C 603.0999145507812 548.4500732421875 601.056640625 549.2112426757812 600.5121459960938 550.7808227539062 C 601.480224609375 548.9310302734375 602.317626953125 547.9037475585938 602.7326049804688 548.992431640625 C 602.9224853515625 550.123046875 602.8724975585938 551.5120239257812 598.9968872070312 547.0031127929688" stroke-width="0.0" fill="rgb(255, 254, 255)" opacity="0.9840343"/>
    <path d="M 598.108642578125 331.0374755859375 C 595.9951171875 331.53887939453125 595.9332885742188 331.218017578125 595.0858154296875 333.2494812011719 C 595.3653564453125 332.7538146972656 595.281005859375 331.6723327636719 596.7674560546875 331.3529968261719 C 598.1694946289062 331.3353271484375 597.454833984375 330.87982177734375 598.6183471679688 330.615478515625 C 597.226318359375 331.3393859863281 595.8355102539062 330.7100830078125 598.108642578125 331.0374755859375" stroke-width="0.0" fill="rgb(255, 255, 255)" opacity="0.85730284"/>
    <path d="M 83.17443084716797 584.8880615234375 C 83.10816192626953 585.347412109375 84.77632904052734 587.561767578125 85.13365936279297 588.2927856445312 C 87.36011505126953 587.5143432617188 85.65556335449219 587.8651123046875 86.45970916748047 588.0603637695312 C 84.67218017578125 587.8187255859375 86.1181640625 589.3115234375 84.93743896484375 589.0025634765625 C 87.24479675292969 588.4027099609375 85.44931030273438 590.5186157226562 83.17443084716797 584.8880615234375" stroke-width="0.0" fill="rgb(255, 255, 255)" opacity="0.77529746"/>
    <path d="M 4.964118957519531 323.1775817871094 C 3.460124969482422 324.15283203125 4.1099982261657715 323.4942321777344 6.5303521156311035 322.9588928222656 C 5.050121307373047 324.1563415527344 6.712559223175049 322.82366943359375 8.193790435791016 321.531982421875 C 6.897852897644043 319.72802734375 8.635320663452148 318.8604736328125 10.410406112670898 317.2806091308594 C 7.623955726623535 315.9656066894531 10.860211372375488 318.6831970214844 4.964118957519531 323.1775817871094" stroke-width="0.0" fill="rgb(255, 255, 255)" opacity="0.65729094"/>
    <path d="M 2.888704299926758 471.436279296875 C 6.148809909820557 469.6189270019531 5.402564525604248 466.2615661621094 3.4463717937469482 464.8761901855469 C 2.5642571449279785 466.39349365234375 0.9408312439918518 467.3157043457031 1.7235380411148071 466.5856628417969 C 2.9244463443756104 468.28631591796875 1.020899772644043 469.50860595703125 1.8110796213150024 468.8966369628906 C 3.1113102436065674 468.968994140625 3.1765146255493164 468.748291015625 2.888704299926758 471.436279296875" stroke-width="0.0" fill="rgb(255, 255, 255)" opacity="0.6876694"/>
    <path d="M 597.0255737304688 386.1585693359375 C 599.0396118164062 386.7206115722656 599.2058715820312 386.8564453125 598.9676513671875 390.1246643066406 C 599.977783203125 389.26165771484375 602.2352905273438 386.7549133300781 604.4427490234375 387.90057373046875 C 602.9081420898438 385.8145751953125 604.5147705078125 384.39459228515625 604.5640258789062 385.3070983886719 C 604.16796875 386.85888671875 604.7410278320312 388.8470764160156 597.0255737304688 386.1585693359375" stroke-width="0.0" fill="rgb(255, 255, 255)" opacity="0.9054983"/>
    <path d="M 593.0670776367188 363.90911865234375 C 592.6273193359375 366.0099792480469 593.0340576171875 366.3687744140625 595.1819458007812 365.803955078125 C 594.2711791992188 362.4986877441406 596.67919921875 362.1231384277344 598.2590942382812 363.7234191894531 C 598.721923828125 364.4804992675781 600.7392578125 363.8718566894531 603.2472534179688 362.0523681640625 C 600.8877563476562 364.4637451171875 600.727783203125 364.050048828125 593.0670776367188 363.90911865234375" stroke-width="0.0" fill="rgb(255, 255, 255)" opacity="0.7609554"/>
    <path d="M 20.316883087158203 449.4215393066406 C 19.02654457092285 449.8939208984375 20.771879196166992 448.8544616699219 22.15763282775879 447.1238708496094 C 19.768667221069336 445.6603088378906 20.073150634765625 444.1514587402344 19.86944580078125 442.090576171875 C 23.265403747558594 441.66497802734375 24.343509674072266 442.5885314941406 23.254213333129883 442.0635070800781 C 23.454761505126953 440.1007995605469 25.208515167236328 437.7682800292969 20.316883087158203 449.4215393066406" stroke-width="0.0" fill="rgb(255, 255, 255)" opacity="0.65501136"/>
    <path d="M 103.62425994873047 597.3665771484375 C 100.7607192993164 597.357666015625 99.90413665771484 595.5747680664062 99.8382339477539 594.8828125 C 100.34148406982422 593.7044067382812 101.97904205322266 592.1466674804688 103.9613037109375 593.171630859375 C 103.0524673461914 593.3101806640625 104.85983276367188 591.9514770507812 105.08338928222656 594.126220703125 C 106.7216567993164 593.6616821289062 109.17940521240234 594.0328979492188 103.62425994873047 597.3665771484375" stroke-width="0.0" fill="rgb(255, 255, 255)" opacity="0.67113066"/>
    <path d="M 565.760009765625 396.91241455078125 C 565.2470703125 397.417236328125 563.19384765625 398.1546325683594 561.3637084960938 399.17681884765625 C 559.5204467773438 399.6974182128906 558.786376953125 398.1032409667969 556.8949584960938 399.7023620605469 C 554.9185791015625 400.6286926269531 556.5543823242188 401.4956359863281 555.977783203125 402.8245544433594 C 556.5344848632812 401.9837341308594 554.9063720703125 402.0895080566406 565.760009765625 396.91241455078125" stroke-width="0.0" fill="rgb(255, 255, 255)" opacity="0.67998505"/>
    <path d="M 575.6389770507812 587.8184204101562 C 578.077392578125 588.4016723632812 578.3870239257812 587.9955444335938 577.8740844726562 585.7872924804688 C 576.052734375 586.738037109375 577.3785400390625 583.896728515625 576.9815673828125 582.2357177734375 C 578.8248901367188 581.6724853515625 579.5029296875 581.7160034179688 578.650634765625 584.9179077148438 C 579.148681640625 585.6409301757812 580.0907592773438 582.7271728515625 575.6389770507812 587.8184204101562" stroke-width="0.0" fill="rgb(255, 255, 255)" opacity="0.7087696"/>
    <path d="M 556.5874633789062 561.5650634765625 C 557.7617797851562 563.8313598632812 558.3903198242188 566.2815551757812 557.8073120117188 568.459716796875 C 556.0487670898438 569.2350463867188 558.4678344726562 567.3851928710938 560.5806274414062 568.1853637695312 C 559.1259765625 567.1939086914062 560.5782470703125 567.6885375976562 559.98046875 566.2105712890625 C 558.9493408203125 565.5836791992188 558.166015625 566.0348510742188 556.5874633789062 561.5650634765625" stroke-width="0.0" fill="rgb(255, 255, 255)" opacity="0.7417016"/>
  </g>
</svg>
