<?xml version="1.0" ?>
<svg xmlns="http://www.w3.org/2000/svg" version="1.1" width="256" height="256">
  <defs/>
  <g>
    <path d="M 47.006874084472656 29.04681396484375 C 44.35364532470703 39.070796966552734 37.15184020996094 46.58759689331055 27.692852020263672 49.814064025878906 C 18.0 47.32050704956055 10.679491996765137 40.0 8.0 30.0 C 10.679491996765137 20.0 18.0 12.679491996765137 27.994169235229492 10.001958847045898 C 37.773643493652344 12.767558097839355 44.47270202636719 20.642295837402344 47.006874084472656 29.04681396484375" stroke-width="0.0" fill="rgb(8, 8, 8)" opacity="0.9900192"/>
    <path d="M 179.0926513671875 22.1134033203125 C 176.6460723876953 32.39041519165039 169.49363708496094 39.943233489990234 159.56869506835938 42.842979431152344 C 149.10105895996094 39.18948745727539 141.73133850097656 31.92334747314453 139.00750732421875 21.987947463989258 C 141.6794891357422 12.0 149.0 4.679491996765137 159.0 2.0 C 169.0 4.679491996765137 176.3205108642578 12.0 179.0926513671875 22.1134033203125" stroke-width="0.0" fill="rgb(255, 255, 255)" opacity="0.9904588"/>
    <path d="M 29.0 120.0 C 26.32050895690918 130.0 19.0 137.3205108642578 9.0 140.0 C -1.0 137.3205108642578 -8.320508003234863 130.0 -11.0 120.0 C -8.320508003234863 110.0 -1.0 102.67948913574219 9.0 100.0 C 19.0 102.67948913574219 26.32050895690918 110.0 29.0 120.0" stroke-width="0.0" fill="rgb(254, 254, 254)" opacity="1.0"/>
    <path d="M 33.0 66.0 C 30.32050895690918 76.0 23.0 83.32051086425781 13.0 86.0 C 3.0 83.32051086425781 -4.320508003234863 76.0 -7.0 66.0 C -4.320508003234863 56.0 3.0 48.67949295043945 13.0 46.0 C 23.0 48.67949295043945 30.32050895690918 56.0 33.0 66.0" stroke-width="0.0" fill="rgb(253, 253, 254)" opacity="1.0"/>
    <path d="M 165.0 14.0 C 162.3205108642578 24.0 155.0 31.32050895690918 145.0 34.0 C 135.0 31.32050895690918 127.67948913574219 24.0 125.0 14.0 C 127.67948913574219 4.0 135.0 -3.3205080032348633 145.0 -6.0 C 155.0 -3.3205080032348633 162.3205108642578 4.0 165.0 14.0" stroke-width="0.0" fill="rgb(254, 254, 254)" opacity="1.0"/>
    <path d="M 45.23761749267578 69.5721206665039 C 42.91019821166992 79.81061553955078 35.960201263427734 87.31537628173828 26.002525329589844 90.00205993652344 C 16.0 87.32051086425781 8.679491996765137 80.0 6.0 70.0 C 8.679491996765137 60.0 16.0 52.67949295043945 26.157777786254883 49.84743118286133 C 36.38981246948242 52.30790328979492 43.698219299316406 59.60624313354492 45.23761749267578 69.5721206665039" stroke-width="0.0" fill="rgb(255, 255, 255)" opacity="0.9904511"/>
    <path d="M 20.0 78.0 C 17.32050895690918 88.0 10.0 95.32051086425781 1.2246467996456087e-15 98.0 C -10.0 95.32051086425781 -17.32050895690918 88.0 -20.0 78.0 C -17.32050895690918 68.0 -10.0 60.67949295043945 -3.673940187178589e-15 58.0 C 10.0 60.67949295043945 17.32050895690918 68.0 20.0 78.0" stroke-width="0.0" fill="rgb(254, 254, 254)" opacity="1.0"/>
    <path d="M 100.0 8.0 C 97.32051086425781 18.0 90.0 25.32050895690918 80.97335815429688 27.015544891357422 C 70.98432159423828 24.3339900970459 63.6681022644043 17.01476287841797 60.99476623535156 7.045327663421631 C 63.65348815917969 -1.0510756969451904 70.90182495117188 -8.49045467376709 80.46774291992188 -11.672569274902344 C 90.0 -9.320508003234863 97.32051086425781 -2.0 100.0 8.0" stroke-width="0.0" fill="rgb(2, 2, 2)" opacity="0.990006"/>
    <path d="M 31.0 147.0 C 28.32050895690918 157.0 21.0 164.3205108642578 11.0 167.0 C 1.0 164.3205108642578 -6.320508003234863 157.0 -9.0 147.0 C -6.320508003234863 137.0 1.0 129.6794891357422 11.0 127.0 C 21.0 129.6794891357422 28.32050895690918 137.0 31.0 147.0" stroke-width="0.0" fill="rgb(254, 254, 254)" opacity="1.0"/>
    <path d="M 21.0 80.0 C 18.32050895690918 90.0 11.0 97.32051086425781 1.0 100.0 C -9.0 97.32051086425781 -16.32050895690918 90.0 -19.0 80.0 C -16.32050895690918 70.0 -9.0 62.67949295043945 1.0 60.0 C 11.0 62.67949295043945 18.32050895690918 70.0 21.0 80.0" stroke-width="0.0" fill="rgb(254, 254, 254)" opacity="1.0"/>
    <path d="M 60.85194396972656 236.25350952148438 C 57.71312713623047 247.3936309814453 50.36240005493164 254.61325073242188 40.09309005737305 257.0674743652344 C 30.0 254.3205108642578 22.67949104309082 247.0 20.0 237.0 C 22.67949104309082 227.0 30.0 219.6794891357422 40.27452087402344 216.7764892578125 C 50.66251754760742 219.0853729248047 58.11302185058594 226.27334594726562 60.85194396972656 236.25350952148438" stroke-width="0.0" fill="rgb(252, 252, 253)" opacity="0.9904391"/>
    <path d="M 168.00013732910156 19.000415802001953 C 165.32823181152344 29.023649215698242 158.14710998535156 36.67519760131836 148.38217163085938 39.88701629638672 C 137.29061889648438 37.0295524597168 129.93283081054688 29.721923828125 127.41838073730469 19.532665252685547 C 130.6794891357422 9.0 138.0 1.6794918775558472 148.0 -1.0 C 158.0 1.6794918775558472 165.3205108642578 9.0 168.00013732910156 19.000415802001953" stroke-width="0.0" fill="rgb(255, 255, 255)" opacity="0.99043936"/>
    <path d="M 33.0 52.0 C 30.32050895690918 62.0 23.0 69.32051086425781 13.0 72.0 C 3.0 69.32051086425781 -4.320508003234863 62.0 -7.0 52.0 C -4.320508003234863 42.0 3.0 34.67949295043945 13.0 32.0 C 23.0 34.67949295043945 30.32050895690918 42.0 33.0 52.0" stroke-width="0.0" fill="rgb(254, 254, 254)" opacity="1.0"/>
    <path d="M 46.0 194.0 C 43.32050704956055 204.0 36.0 211.3205108642578 26.0 214.0 C 16.0 211.3205108642578 8.679491996765137 204.0 6.0 194.0 C 8.679491996765137 184.0 16.0 176.6794891357422 26.0 174.0 C 36.0 176.6794891357422 43.32050704956055 184.0 46.0 194.0" stroke-width="0.0" fill="rgb(254, 254, 254)" opacity="1.0"/>
    <path d="M 37.0 153.0 C 34.32050704956055 163.0 27.0 170.3205108642578 17.0 173.0 C 7.0 170.3205108642578 -0.32050806283950806 163.0 -3.0 153.0 C -0.32050806283950806 143.0 7.0 135.6794891357422 17.0 133.0 C 27.0 135.6794891357422 34.32050704956055 143.0 37.0 153.0" stroke-width="0.0" fill="rgb(254, 254, 254)" opacity="1.0"/>
    <path d="M 43.0 166.0 C 40.32050704956055 176.0 33.0 183.3205108642578 23.0 186.0 C 13.0 183.3205108642578 5.679491996765137 176.0 3.0 166.0 C 5.679491996765137 156.0 13.0 148.6794891357422 23.0 146.0 C 33.0 148.6794891357422 40.32050704956055 156.0 43.0 166.0" stroke-width="0.0" fill="rgb(254, 254, 254)" opacity="1.0"/>
    <path d="M 258.0 6.0 C 255.3205108642578 16.0 248.0 23.32050895690918 238.0 26.0 C 228.0 23.32050895690918 220.6794891357422 16.0 218.0 6.0 C 220.6794891357422 -4.0 228.0 -11.320508003234863 238.0 -14.0 C 248.0 -11.320508003234863 255.3205108642578 -4.0 258.0 6.0" stroke-width="0.0" fill="rgb(254, 254, 254)" opacity="1.0"/>
    <path d="M 33.0 208.0 C 30.32050895690918 218.0 23.0 225.3205108642578 13.0 228.0 C 3.0 225.3205108642578 -4.320508003234863 218.0 -7.0 208.0 C -4.320508003234863 198.0 3.0 190.6794891357422 13.0 188.0 C 23.0 190.6794891357422 30.32050895690918 198.0 33.0 208.0" stroke-width="0.0" fill="rgb(254, 254, 254)" opacity="1.0"/>
    <path d="M 22.0 36.0 C 19.32050895690918 46.0 12.0 53.32050704956055 2.0 56.0 C -8.0 53.32050704956055 -15.320508003234863 46.0 -18.0 36.0 C -15.320508003234863 26.0 -8.0 18.67949104309082 2.0 16.0 C 12.0 18.67949104309082 19.32050895690918 26.0 22.0 36.0" stroke-width="0.0" fill="rgb(254, 254, 254)" opacity="1.0"/>
    <path d="M 182.0 8.0 C 179.3205108642578 18.0 172.0 25.32050895690918 162.0 28.0 C 152.0 25.32050895690918 144.6794891357422 18.0 142.0 8.0 C 144.6794891357422 -2.0 152.0 -9.320508003234863 162.0 -12.0 C 172.0 -9.320508003234863 179.3205108642578 -2.0 182.0 8.0" stroke-width="0.0" fill="rgb(254, 254, 254)" opacity="1.0"/>
    <path d="M 51.57841873168945 125.56636810302734 C 49.93346405029297 135.7139129638672 42.775596618652344 143.14990234375 32.7030143737793 145.78720092773438 C 22.0 142.3205108642578 14.679491996765137 135.0 12.0 125.0 C 14.679491996765137 115.0 22.0 107.67948913574219 32.133583068847656 104.87969970703125 C 42.32533645629883 107.35211944580078 49.17695999145508 114.7685546875 51.57841873168945 125.56636810302734" stroke-width="0.0" fill="rgb(255, 255, 255)" opacity="0.99030316"/>
    <path d="M 111.0 15.0 C 108.32051849365234 25.00001335144043 101.00031280517578 32.32161331176758 90.34393310546875 35.35161209106445 C 80.08873748779297 33.212646484375 72.74024200439453 25.925487518310547 70.11144256591797 15.863089561462402 C 73.67948913574219 5.0 81.0 -2.3205080032348633 91.0 -5.0 C 101.0 -2.3205080032348633 108.32051086425781 5.0 111.0 15.0" stroke-width="0.0" fill="rgb(255, 255, 255)" opacity="1.0"/>
    <path d="M 26.0 188.0 C 23.32050895690918 198.0 16.0 205.3205108642578 6.0 208.0 C -4.0 205.3205108642578 -11.320508003234863 198.0 -14.0 188.0 C -11.320508003234863 178.0 -4.0 170.6794891357422 6.0 168.0 C 16.0 170.6794891357422 23.32050895690918 178.0 26.0 188.0" stroke-width="0.0" fill="rgb(254, 254, 254)" opacity="1.0"/>
    <path d="M 275.0 13.0 C 272.32049560546875 23.0 265.0 30.32050895690918 255.0 33.0 C 245.0 30.32050895690918 237.6794891357422 23.0 235.0 13.0 C 237.6794891357422 3.0 245.0 -4.320508003234863 255.0 -7.0 C 265.0 -4.320508003234863 272.32049560546875 3.0 275.0 13.0" stroke-width="0.0" fill="rgb(254, 254, 254)" opacity="1.0"/>
    <path d="M 47.79098892211914 159.5191192626953 C 44.50071334838867 169.06436157226562 37.00946044921875 176.3236541748047 27.000192642211914 179.00006103515625 C 17.0 176.3205108642578 9.679491996765137 169.0 7.0 159.0 C 9.679491996765137 149.0 17.0 141.6794891357422 27.304866790771484 138.6331329345703 C 37.31620407104492 141.19606018066406 43.806846618652344 149.11203002929688 47.79098892211914 159.5191192626953" stroke-width="0.0" fill="rgb(255, 255, 255)" opacity="0.990502"/>
    <path d="M 28.0 122.0 C 25.32050895690918 132.0 18.0 139.3205108642578 8.0 142.0 C -2.0 139.3205108642578 -9.320508003234863 132.0 -12.0 122.0 C -9.320508003234863 112.0 -2.0 104.67948913574219 8.0 102.0 C 18.0 104.67948913574219 25.32050895690918 112.0 28.0 122.0" stroke-width="0.0" fill="rgb(254, 254, 254)" opacity="1.0"/>
    <path d="M 21.0 73.0 C 18.32050895690918 83.0 11.0 90.32051086425781 1.0 93.0 C -9.0 90.32051086425781 -16.32050895690918 83.0 -19.0 73.0 C -16.32050895690918 63.0 -9.0 55.67949295043945 1.0 53.0 C 11.0 55.67949295043945 18.32050895690918 63.0 21.0 73.0" stroke-width="0.0" fill="rgb(254, 254, 254)" opacity="1.0"/>
    <path d="M 41.0 114.0 C 38.32050704956055 124.0 31.0 131.3205108642578 21.0 134.0 C 11.0 131.3205108642578 3.6794919967651367 124.0 1.0 114.0 C 3.6794919967651367 104.0 11.0 96.67948913574219 21.0 94.0 C 31.0 96.67948913574219 38.32050704956055 104.0 41.0 114.0" stroke-width="0.0" fill="rgb(254, 254, 254)" opacity="1.0"/>
    <path d="M 24.0 246.0 C 21.32050895690918 256.0 14.0 263.32049560546875 4.0 266.0 C -6.0 263.32049560546875 -13.320508003234863 256.0 -16.0 246.0 C -13.320508003234863 236.0 -6.0 228.6794891357422 4.0 226.0 C 14.0 228.6794891357422 21.32050895690918 236.0 24.0 246.0" stroke-width="0.0" fill="rgb(254, 254, 254)" opacity="1.0"/>
    <path d="M 41.0 190.0 C 38.32050704956055 200.0 31.0 207.3205108642578 21.0 210.0 C 11.0 207.3205108642578 3.6794919967651367 200.0 1.0 190.0 C 3.6794919967651367 180.0 11.0 172.6794891357422 21.0 170.0 C 31.0 172.6794891357422 38.32050704956055 180.0 41.0 190.0" stroke-width="0.0" fill="rgb(254, 254, 254)" opacity="1.0"/>
    <path d="M 21.0 144.0 C 18.32050895690918 154.0 11.0 161.3205108642578 1.0 164.0 C -9.0 161.3205108642578 -16.32050895690918 154.0 -19.0 144.0 C -16.32050895690918 134.0 -9.0 126.67948913574219 1.0 124.0 C 11.0 126.67948913574219 18.32050895690918 134.0 21.0 144.0" stroke-width="0.0" fill="rgb(254, 254, 254)" opacity="1.0"/>
    <path d="M 22.0 180.0 C 19.32050895690918 190.0 12.0 197.3205108642578 2.0 200.0 C -8.0 197.3205108642578 -15.320508003234863 190.0 -18.0 180.0 C -15.320508003234863 170.0 -8.0 162.6794891357422 2.0 160.0 C 12.0 162.6794891357422 19.32050895690918 170.0 22.0 180.0" stroke-width="0.0" fill="rgb(254, 254, 254)" opacity="1.0"/>
    <path d="M 34.0 49.0 C 31.32050895690918 59.0 24.0 66.32051086425781 14.0 69.0 C 4.0 66.32051086425781 -3.3205080032348633 59.0 -6.0 49.0 C -3.3205080032348633 39.0 4.0 31.67949104309082 14.0 29.0 C 24.0 31.67949104309082 31.32050895690918 39.0 34.0 49.0" stroke-width="0.0" fill="rgb(254, 254, 254)" opacity="1.0"/>
    <path d="M 22.0 144.0 C 19.32050895690918 154.0 12.0 161.3205108642578 2.0 164.0 C -8.0 161.3205108642578 -15.320508003234863 154.0 -18.0 144.0 C -15.320508003234863 134.0 -8.0 126.67948913574219 2.0 124.0 C 12.0 126.67948913574219 19.32050895690918 134.0 22.0 144.0" stroke-width="0.0" fill="rgb(254, 254, 254)" opacity="1.0"/>
    <path d="M 23.0 25.0 C 20.32050895690918 35.0 13.0 42.32050704956055 3.0 45.0 C -7.0 42.32050704956055 -14.320508003234863 35.0 -17.0 25.0 C -14.320508003234863 15.0 -7.0 7.679491996765137 3.0 5.0 C 13.0 7.679491996765137 20.32050895690918 15.0 23.0 25.0" stroke-width="0.0" fill="rgb(254, 254, 254)" opacity="1.0"/>
    <path d="M 48.00619888305664 23.94662094116211 C 45.37335968017578 32.119686126708984 38.27147674560547 39.75011444091797 28.815183639526367 42.87779235839844 C 19.0 40.32050704956055 11.679491996765137 33.0 9.0 23.0 C 11.679491996765137 13.0 19.0 5.679491996765137 28.033653259277344 3.974055528640747 C 38.015045166015625 6.665818691253662 45.33262252807617 13.985516548156738 48.00619888305664 23.94662094116211" stroke-width="0.0" fill="rgb(2, 2, 2)" opacity="0.9900058"/>
    <path d="M 268.0 251.0 C 265.32049560546875 261.0 258.0 268.32049560546875 248.0 271.0 C 238.0 268.32049560546875 230.6794891357422 261.0 228.0 251.0 C 230.6794891357422 241.0 238.0 233.6794891357422 248.0 231.0 C 258.0 233.6794891357422 265.32049560546875 241.0 268.0 251.0" stroke-width="0.0" fill="rgb(0, 0, 0)" opacity="1.0"/>
    <path d="M 146.0 9.0 C 143.3205108642578 19.0 136.0 26.32050895690918 126.0 29.0 C 116.0 26.32050895690918 108.67948913574219 19.0 106.0 9.0 C 108.67948913574219 -1.0 116.0 -8.320508003234863 126.0 -11.0 C 136.0 -8.320508003234863 143.3205108642578 -1.0 146.0 9.0" stroke-width="0.0" fill="rgb(254, 254, 254)" opacity="1.0"/>
    <path d="M 31.0 246.0 C 28.32050895690918 256.0 21.0 263.32049560546875 11.0 266.0 C 1.0 263.32049560546875 -6.320508003234863 256.0 -9.0 246.0 C -6.320508003234863 236.0 1.0 228.6794891357422 11.0 226.0 C 21.0 228.6794891357422 28.32050895690918 236.0 31.0 246.0" stroke-width="0.0" fill="rgb(254, 254, 254)" opacity="1.0"/>
    <path d="M 167.0 13.0 C 164.3205108642578 23.0 157.0 30.32050895690918 147.0 33.0 C 137.0 30.32050895690918 129.6794891357422 23.0 127.0 13.0 C 129.6794891357422 3.0 137.0 -4.320508003234863 147.0 -7.0 C 157.0 -4.320508003234863 164.3205108642578 3.0 167.0 13.0" stroke-width="0.0" fill="rgb(254, 254, 254)" opacity="1.0"/>
    <path d="M 23.0 246.0 C 20.32050895690918 256.0 13.0 263.32049560546875 3.0 266.0 C -7.0 263.32049560546875 -14.320508003234863 256.0 -17.0 246.0 C -14.320508003234863 236.0 -7.0 228.6794891357422 3.0 226.0 C 13.0 228.6794891357422 20.32050895690918 236.0 23.0 246.0" stroke-width="0.0" fill="rgb(254, 254, 254)" opacity="1.0"/>
    <path d="M 260.0 251.0 C 257.32049560546875 261.0 250.0 268.32049560546875 240.0 271.0 C 230.0 268.32049560546875 222.6794891357422 261.0 220.0 251.0 C 222.6794891357422 241.0 230.0 233.6794891357422 240.0 231.0 C 250.0 233.6794891357422 257.32049560546875 241.0 260.0 251.0" stroke-width="0.0" fill="rgb(0, 0, 0)" opacity="1.0"/>
    <path d="M 21.0 131.0 C 18.32050895690918 141.0 11.0 148.3205108642578 1.0 151.0 C -9.0 148.3205108642578 -16.32050895690918 141.0 -19.0 131.0 C -16.32050895690918 121.0 -9.0 113.67948913574219 1.0 111.0 C 11.0 113.67948913574219 18.32050895690918 121.0 21.0 131.0" stroke-width="0.0" fill="rgb(254, 254, 254)" opacity="1.0"/>
    <path d="M 257.0 244.0 C 254.3205108642578 254.0 247.0 261.32049560546875 237.0 264.0 C 227.0 261.32049560546875 219.6794891357422 254.0 217.0 244.0 C 219.6794891357422 234.0 227.0 226.6794891357422 237.0 224.0 C 247.0 226.6794891357422 254.3205108642578 234.0 257.0 244.0" stroke-width="0.0" fill="rgb(0, 0, 0)" opacity="1.0"/>
    <path d="M 101.99933624267578 6.998037815093994 C 99.29031372070312 16.91448402404785 91.64962005615234 23.697568893432617 81.11067962646484 26.042543411254883 C 71.03004455566406 25.287261962890625 63.69872283935547 17.97469711303711 61.0086555480957 7.910275936126709 C 63.72871017456055 -3.8962788581848145 71.216064453125 -10.956189155578613 81.78575134277344 -13.120293617248535 C 92.0 -10.320508003234863 99.32051086425781 -3.0 101.99933624267578 6.998037815093994" stroke-width="0.0" fill="rgb(110, 110, 110)" opacity="1.0"/>
    <path d="M 32.0 140.0 C 29.32050895690918 150.0 22.0 157.3205108642578 12.0 160.0 C 2.0 157.3205108642578 -5.320508003234863 150.0 -8.0 140.0 C -5.320508003234863 130.0 2.0 122.67948913574219 12.0 120.0 C 22.0 122.67948913574219 29.32050895690918 130.0 32.0 140.0" stroke-width="0.0" fill="rgb(254, 253, 254)" opacity="1.0"/>
    <path d="M 274.0 247.0 C 271.32049560546875 257.0 264.0 264.32049560546875 254.0 267.0 C 244.0 264.32049560546875 236.6794891357422 257.0 234.0 247.0 C 236.6794891357422 237.0 244.0 229.6794891357422 254.0 227.0 C 264.0 229.6794891357422 271.32049560546875 237.0 274.0 247.0" stroke-width="0.0" fill="rgb(0, 0, 0)" opacity="1.0"/>
    <path d="M 23.0 107.0 C 20.32050895690918 117.0 13.0 124.32051086425781 3.0 127.0 C -7.0 124.32051086425781 -14.320508003234863 117.0 -17.0 107.0 C -14.320508003234863 97.0 -7.0 89.67948913574219 3.0 87.0 C 13.0 89.67948913574219 20.32050895690918 97.0 23.0 107.0" stroke-width="0.0" fill="rgb(254, 254, 254)" opacity="1.0"/>
    <path d="M 45.0 93.0 C 42.32050704956055 103.0 35.0 110.32051086425781 25.0 113.0 C 15.0 110.32051086425781 7.679491996765137 103.0 5.0 93.0 C 7.679491996765137 83.0 15.0 75.67948913574219 25.0 73.0 C 35.0 75.67948913574219 42.32050704956055 83.0 45.0 93.0" stroke-width="0.0" fill="rgb(254, 254, 254)" opacity="1.0"/>
    <path d="M 39.0 165.0 C 36.32050704956055 175.0 29.0 182.3205108642578 19.0 185.0 C 9.0 182.3205108642578 1.6794918775558472 175.0 -1.0 165.0 C 1.6794918775558472 155.0 9.0 147.6794891357422 19.0 145.0 C 29.0 147.6794891357422 36.32050704956055 155.0 39.0 165.0" stroke-width="0.0" fill="rgb(254, 254, 254)" opacity="1.0"/>
    <path d="M 34.0 47.0 C 31.32050895690918 57.0 24.0 64.32051086425781 14.0 67.0 C 4.0 64.32051086425781 -3.3205080032348633 57.0 -6.0 47.0 C -3.3205080032348633 37.0 4.0 29.67949104309082 14.0 27.0 C 24.0 29.67949104309082 31.32050895690918 37.0 34.0 47.0" stroke-width="0.0" fill="rgb(254, 254, 254)" opacity="1.0"/>
    <path d="M 28.0 215.0 C 25.32050895690918 225.0 18.0 232.3205108642578 8.0 235.0 C -2.0 232.3205108642578 -9.320508003234863 225.0 -12.0 215.0 C -9.320508003234863 205.0 -2.0 197.6794891357422 8.0 195.0 C 18.0 197.6794891357422 25.32050895690918 205.0 28.0 215.0" stroke-width="0.0" fill="rgb(254, 254, 254)" opacity="1.0"/>
    <path d="M 263.15814208984375 22.180570602416992 C 260.75738525390625 32.486854553222656 253.5467987060547 39.94375228881836 243.43850708007812 42.5548210144043 C 232.99977111816406 39.32130432128906 225.6794891357422 32.0000114440918 223.0 22.0 C 225.6794891357422 12.0 233.0 4.679491996765137 243.0 2.0 C 253.0 4.679491996765137 260.32049560546875 12.0 263.15814208984375 22.180570602416992" stroke-width="0.0" fill="rgb(255, 255, 255)" opacity="0.99064636"/>
    <path d="M 35.0 248.0 C 32.32050704956055 258.0 25.0 265.32049560546875 15.0 268.0 C 5.0 265.32049560546875 -2.3205080032348633 258.0 -5.0 248.0 C -2.3205080032348633 238.0 5.0 230.6794891357422 15.0 228.0 C 25.0 230.6794891357422 32.32050704956055 238.0 35.0 248.0" stroke-width="0.0" fill="rgb(254, 254, 254)" opacity="1.0"/>
    <path d="M 185.75765991210938 18.563949584960938 C 183.0625 28.74453353881836 175.75775146484375 36.101741790771484 165.5797882080078 38.626182556152344 C 155.0 35.32050704956055 147.6794891357422 28.0 145.0 18.0 C 147.6794891357422 8.0 155.0 0.6794919371604919 164.99996948242188 -1.9999895095825195 C 174.99794006347656 0.680158793926239 182.30506896972656 8.006309509277344 185.75765991210938 18.563949584960938" stroke-width="0.0" fill="rgb(240, 239, 240)" opacity="0.9903163"/>
    <path d="M 51.53279113769531 211.18128967285156 C 48.343605041503906 221.00653076171875 41.000221252441406 228.32057189941406 31.0 231.0 C 21.0 228.3205108642578 13.679491996765137 221.0 11.0 211.0 C 13.679491996765137 201.0 21.0 193.6794891357422 31.0000057220459 191.0 C 41.000423431396484 193.67935180664062 48.33320999145508 200.99612426757812 51.53279113769531 211.18128967285156" stroke-width="0.0" fill="rgb(254, 253, 254)" opacity="0.99731004"/>
    <path d="M 20.0 152.0 C 17.32050895690918 162.0 10.0 169.3205108642578 1.2246467996456087e-15 172.0 C -10.0 169.3205108642578 -17.32050895690918 162.0 -20.0 152.0 C -17.32050895690918 142.0 -10.0 134.6794891357422 -3.673940187178589e-15 132.0 C 10.0 134.6794891357422 17.32050895690918 142.0 20.0 152.0" stroke-width="0.0" fill="rgb(255, 255, 255)" opacity="1.0"/>
    <path d="M 54.80083465576172 218.978515625 C 51.43155288696289 229.03759765625 44.00546646118164 236.322509765625 34.00017547607422 239.0000762939453 C 24.0 236.3205108642578 16.67949104309082 229.0 14.0 219.0 C 16.67949104309082 209.0 24.0 201.6794891357422 33.990455627441406 199.0050811767578 C 43.921669006347656 201.7267608642578 51.34468078613281 209.06536865234375 54.80083465576172 218.978515625" stroke-width="0.0" fill="rgb(255, 255, 255)" opacity="0.99123085"/>
    <path d="M 42.00053405761719 66.99967956542969 C 39.32050704956055 77.0 32.0 84.32051086425781 22.0 87.0 C 12.0 84.32051086425781 4.679491996765137 77.0 2.0 67.0 C 4.679491996765137 57.0 12.0 49.67949295043945 22.000038146972656 46.99997329711914 C 32.00025177001953 49.679325103759766 39.32111358642578 56.99961471557617 42.00053405761719 66.99967956542969" stroke-width="0.0" fill="rgb(254, 254, 254)" opacity="1.0"/>
    <path d="M 134.0 10.0 C 131.3205108642578 20.0 124.0 27.32050895690918 114.0 30.0 C 104.0 27.32050895690918 96.67948913574219 20.0 94.0 10.0 C 96.67948913574219 5.329070518200751e-15 104.0 -7.320508003234863 114.0 -10.0 C 124.0 -7.320508003234863 131.3205108642578 -8.881784197001252e-15 134.0 10.0" stroke-width="0.0" fill="rgb(254, 254, 254)" opacity="1.0"/>
    <path d="M 110.0 8.0 C 107.32051086425781 18.0 100.0 25.32050895690918 89.101318359375 28.922033309936523 C 79.04600524902344 26.27748680114746 71.71185302734375 18.958171844482422 69.01573944091797 8.893388748168945 C 71.7620620727539 -2.840001106262207 79.29295349121094 -9.871145248413086 89.8283462524414 -12.098846435546875 C 100.0 -9.320508003234863 107.32051086425781 -2.0 110.0 8.0" stroke-width="0.0" fill="rgb(255, 255, 255)" opacity="1.0"/>
    <path d="M 22.0 83.0 C 19.32050895690918 93.0 12.0 100.32051086425781 2.0 103.0 C -8.0 100.32051086425781 -15.320508003234863 93.0 -18.0 83.0 C -15.320508003234863 73.0 -8.0 65.67948913574219 2.0 63.0 C 12.0 65.67948913574219 19.32050895690918 73.0 22.0 83.0" stroke-width="0.0" fill="rgb(254, 254, 254)" opacity="1.0"/>
    <path d="M 22.0 25.0 C 19.32050895690918 35.0 12.0 42.32050704956055 2.0 45.0 C -8.0 42.32050704956055 -15.320508003234863 35.0 -18.0 25.0 C -15.320508003234863 15.0 -8.0 7.679491996765137 2.0 5.0 C 12.0 7.679491996765137 19.32050895690918 15.0 22.0 25.0" stroke-width="0.0" fill="rgb(254, 254, 254)" opacity="1.0"/>
    <path d="M 20.0 65.0 C 17.32050895690918 75.0 10.0 82.32051086425781 1.2246467996456087e-15 85.0 C -10.0 82.32051086425781 -17.32050895690918 75.0 -20.0 65.0 C -17.32050895690918 55.0 -10.0 47.67949295043945 -3.673940187178589e-15 45.0 C 10.0 47.67949295043945 17.32050895690918 55.0 20.0 65.0" stroke-width="0.0" fill="rgb(254, 254, 254)" opacity="1.0"/>
    <path d="M 258.0 248.0 C 255.3205108642578 258.0 248.0 265.32049560546875 238.0 268.0 C 228.0 265.32049560546875 220.6794891357422 258.0 218.0 248.0 C 220.6794891357422 238.0 228.0 230.6794891357422 238.0 228.0 C 248.0 230.6794891357422 255.3205108642578 238.0 258.0 248.0" stroke-width="0.0" fill="rgb(0, 0, 0)" opacity="1.0"/>
    <path d="M 52.0 224.0 C 49.32050704956055 234.0 42.0 241.3205108642578 32.0 244.0 C 22.0 241.3205108642578 14.679491996765137 234.0 12.0 224.0 C 14.679491996765137 214.0 22.0 206.6794891357422 32.0 204.0 C 42.0 206.6794891357422 49.32050704956055 214.0 52.0 224.0" stroke-width="0.0" fill="rgb(254, 254, 254)" opacity="1.0"/>
    <path d="M 52.13780975341797 194.87448120117188 C 49.32050704956055 205.0 42.0 212.3205108642578 32.0 215.0 C 22.0 212.3205108642578 14.679491996765137 205.0 12.0 195.0 C 14.679491996765137 185.0 22.0 177.6794891357422 32.08258819580078 174.92442321777344 C 42.245094299316406 177.4522705078125 49.60258865356445 184.73828125 52.13780975341797 194.87448120117188" stroke-width="0.0" fill="rgb(254, 254, 254)" opacity="0.99481726"/>
    <path d="M 21.0 29.0 C 18.32050895690918 39.0 11.0 46.32050704956055 1.0 49.0 C -9.0 46.32050704956055 -16.32050895690918 39.0 -19.0 29.0 C -16.32050895690918 19.0 -9.0 11.679491996765137 1.0 9.0 C 11.0 11.679491996765137 18.32050895690918 19.0 21.0 29.0" stroke-width="0.0" fill="rgb(254, 254, 254)" opacity="1.0"/>
    <path d="M 39.0 245.0 C 36.32050704956055 255.0 29.0 262.32049560546875 19.0 265.0 C 9.0 262.32049560546875 1.6794918775558472 255.0 -1.0 245.0 C 1.6794918775558472 235.0 9.0 227.6794891357422 19.0 225.0 C 29.0 227.6794891357422 36.32050704956055 235.0 39.0 245.0" stroke-width="0.0" fill="rgb(254, 254, 254)" opacity="1.0"/>
    <path d="M 51.764915466308594 170.68927001953125 C 47.853599548339844 180.59234619140625 40.65691375732422 188.0627899169922 30.925294876098633 190.94696044921875 C 21.0 188.3205108642578 13.679491996765137 181.0 11.0 171.0 C 13.679491996765137 161.0 21.0 153.6794891357422 31.139619827270508 150.89901733398438 C 41.503047943115234 153.27203369140625 48.99956130981445 160.41004943847656 51.764915466308594 170.68927001953125" stroke-width="0.0" fill="rgb(251, 251, 251)" opacity="0.9906063"/>
    <path d="M 112.0 8.0 C 109.32051086425781 18.0 102.0 25.32050895690918 92.0 28.0 C 82.0 25.32050895690918 74.67948913574219 18.0 72.0 8.0 C 74.67948913574219 -2.0 82.0 -9.320508003234863 92.0 -12.0 C 102.0 -9.320508003234863 109.32051086425781 -2.0 112.0 8.0" stroke-width="0.0" fill="rgb(251, 251, 251)" opacity="1.0"/>
    <path d="M 119.0 5.0 C 116.32051086425781 15.0 109.0 22.32050895690918 99.0 25.0 C 89.0 22.32050895690918 81.67948913574219 15.0 79.0 5.0 C 81.67948913574219 -5.0 89.0 -12.320508003234863 99.0 -15.0 C 109.0 -12.320508003234863 116.32051086425781 -5.0 119.0 5.0" stroke-width="0.0" fill="rgb(251, 251, 251)" opacity="1.0"/>
    <path d="M 42.0 250.0 C 39.32050704956055 260.0 32.0 267.32049560546875 22.0 270.0 C 12.0 267.32049560546875 4.679491996765137 260.0 2.0 250.0 C 4.679491996765137 240.0 12.0 232.6794891357422 22.0 230.0 C 32.0 232.6794891357422 39.32050704956055 240.0 42.0 250.0" stroke-width="0.0" fill="rgb(254, 254, 254)" opacity="1.0"/>
    <path d="M 40.0 170.0 C 37.32050704956055 180.0 30.0 187.3205108642578 20.0 190.0 C 10.0 187.3205108642578 2.6794919967651367 180.0 0.0 170.0 C 2.6794919967651367 160.0 10.0 152.6794891357422 20.0 150.0 C 30.0 152.6794891357422 37.32050704956055 160.0 40.0 170.0" stroke-width="0.0" fill="rgb(254, 254, 254)" opacity="1.0"/>
    <path d="M 259.0001220703125 23.000356674194336 C 256.3269958496094 33.01991271972656 249.13272094726562 40.65036392211914 239.71826171875 43.81475830078125 C 229.4170684814453 39.7303352355957 221.6126708984375 32.790367126464844 218.19866943359375 22.450759887695312 C 221.49313354492188 12.944355010986328 229.0028533935547 5.681342124938965 239.0003662109375 3.0001413822174072 C 249.0 5.679491996765137 256.32049560546875 13.0 259.0001220703125 23.000356674194336" stroke-width="0.0" fill="rgb(255, 255, 255)" opacity="0.9902066"/>
    <path d="M 44.99449157714844 19.05195426940918 C 42.290836334228516 30.937515258789062 34.86835479736328 38.087554931640625 24.352689743041992 40.22235107421875 C 14.0 37.32050704956055 6.679491996765137 30.0 4.0 20.0 C 6.679491996765137 10.0 14.0 2.6794919967651367 24.901309967041016 -0.892005443572998 C 34.975006103515625 1.7101696729660034 42.307891845703125 9.018660545349121 44.99449157714844 19.05195426940918" stroke-width="0.0" fill="rgb(255, 255, 255)" opacity="1.0"/>
    <path d="M 30.0 231.0 C 27.32050895690918 241.0 20.0 248.3205108642578 10.0 251.0 C 3.552713678800501e-15 248.3205108642578 -7.320508003234863 241.0 -10.0 231.0 C -7.320508003234863 221.0 -8.881784197001252e-15 213.6794891357422 10.0 211.0 C 20.0 213.6794891357422 27.32050895690918 221.0 30.0 231.0" stroke-width="0.0" fill="rgb(254, 254, 254)" opacity="1.0"/>
    <path d="M 248.0 4.0 C 245.3205108642578 14.0 238.0 21.32050895690918 228.95785522460938 23.034006118774414 C 218.98291015625 20.336925506591797 211.6671142578125 13.015571594238281 208.9934539794922 3.0381336212158203 C 211.59776306152344 -5.193828105926514 218.53384399414062 -13.012228965759277 228.0443115234375 -15.981863021850586 C 238.0 -13.320508003234863 245.3205108642578 -6.0 248.0 4.0" stroke-width="0.0" fill="rgb(2, 2, 2)" opacity="0.9900082"/>
    <path d="M 166.0 6.0 C 163.3205108642578 16.0 156.0 23.32050895690918 146.0 26.0 C 136.0 23.32050895690918 128.6794891357422 16.0 126.0 6.0 C 128.6794891357422 -4.0 136.0 -11.320508003234863 146.0 -14.0 C 156.0 -11.320508003234863 163.3205108642578 -4.0 166.0 6.0" stroke-width="0.0" fill="rgb(254, 254, 254)" opacity="1.0"/>
    <path d="M 191.35183715820312 1.3580491542816162 C 187.71194458007812 11.550125122070312 180.71682739257812 19.213991165161133 171.01564025878906 22.052988052368164 C 161.0 19.32050895690918 153.6794891357422 12.0 151.0 2.0 C 153.6794891357422 -8.0 161.0 -15.320508003234863 171.0000457763672 -18.00001335144043 C 181.00442504882812 -15.321828842163086 188.46385192871094 -8.047182083129883 191.35183715820312 1.3580491542816162" stroke-width="0.0" fill="rgb(255, 255, 255)" opacity="0.9905403"/>
    <path d="M 43.0 110.0 C 40.32050704956055 120.0 33.0 127.32051086425781 23.0 130.0 C 13.0 127.32051086425781 5.679491996765137 120.0 3.0 110.0 C 5.679491996765137 100.0 13.0 92.67948913574219 23.0 90.0 C 33.0 92.67948913574219 40.32050704956055 100.0 43.0 110.0" stroke-width="0.0" fill="rgb(254, 254, 254)" opacity="1.0"/>
    <path d="M 47.0 164.0 C 44.32050704956055 174.0 37.0 181.3205108642578 27.0 184.0 C 17.0 181.3205108642578 9.679491996765137 174.0 7.0 164.0 C 9.679491996765137 154.0 17.0 146.6794891357422 27.0 144.0 C 37.0 146.6794891357422 44.32050704956055 154.0 47.0 164.0" stroke-width="0.0" fill="rgb(251, 251, 251)" opacity="1.0"/>
    <path d="M 23.0 28.0 C 20.32050895690918 38.0 13.0 45.32050704956055 3.0 48.0 C -7.0 45.32050704956055 -14.320508003234863 38.0 -17.0 28.0 C -14.320508003234863 18.0 -7.0 10.679491996765137 3.0 8.0 C 13.0 10.679491996765137 20.32050895690918 18.0 23.0 28.0" stroke-width="0.0" fill="rgb(254, 254, 254)" opacity="1.0"/>
    <path d="M 174.0 5.0 C 171.3205108642578 15.0 164.0 22.32050895690918 154.0 25.0 C 144.0 22.32050895690918 136.6794891357422 15.0 134.0 5.0 C 136.6794891357422 -5.0 144.0 -12.320508003234863 154.0 -15.0 C 164.0 -12.320508003234863 171.3205108642578 -5.0 174.0 5.0" stroke-width="0.0" fill="rgb(254, 254, 254)" opacity="1.0"/>
    <path d="M 57.49513626098633 241.45175170898438 C 55.00959777832031 251.66973876953125 47.65999221801758 258.97894287109375 37.398826599121094 261.4173583984375 C 27.0 258.32049560546875 19.67949104309082 251.0 17.0 241.0 C 19.67949104309082 231.0 27.0 223.6794891357422 37.000003814697266 221.0 C 47.00015640258789 223.67942810058594 54.322410583496094 230.99932861328125 57.49513626098633 241.45175170898438" stroke-width="0.0" fill="rgb(255, 255, 255)" opacity="0.9911762"/>
    <path d="M 54.87400436401367 98.97725677490234 C 51.91146469116211 109.4960708618164 44.42689895629883 116.70270538330078 34.15367126464844 119.14131927490234 C 24.0 116.32051086425781 16.67949104309082 109.0 14.0 99.0 C 16.67949104309082 89.0 24.0 81.67948913574219 34.146697998046875 78.90798950195312 C 44.54740905761719 81.2392807006836 52.04762649536133 88.3613052368164 54.87400436401367 98.97725677490234" stroke-width="0.0" fill="rgb(255, 255, 255)" opacity="0.99032307"/>
    <path d="M 41.06653594970703 134.04885864257812 C 38.42354965209961 144.0764617919922 31.058137893676758 151.36309814453125 21.010936737060547 154.00790405273438 C 11.0 151.3205108642578 3.6794919967651367 144.0 1.0 134.0 C 3.6794919967651367 124.0 11.0 116.67948913574219 21.0 114.0 C 31.0 116.67948913574219 38.32050704956055 124.0 41.06653594970703 134.04885864257812" stroke-width="0.0" fill="rgb(255, 255, 255)" opacity="1.0"/>
    <path d="M 32.0 73.0 C 29.32050895690918 83.0 22.0 90.32051086425781 12.0 93.0 C 2.0 90.32051086425781 -5.320508003234863 83.0 -8.0 73.0 C -5.320508003234863 63.0 2.0 55.67949295043945 12.0 53.0 C 22.0 55.67949295043945 29.32050895690918 63.0 32.0 73.0" stroke-width="0.0" fill="rgb(254, 252, 254)" opacity="1.0"/>
    <path d="M 56.024715423583984 237.99061584472656 C 53.32050704956055 248.0 46.0 255.3205108642578 36.0 258.0 C 26.0 255.3205108642578 18.67949104309082 248.0 16.0 238.0 C 18.67949104309082 228.0 26.0 220.6794891357422 36.00007247924805 217.99996948242188 C 46.0012092590332 220.678955078125 53.32856750488281 227.9966583251953 56.024715423583984 237.99061584472656" stroke-width="0.0" fill="rgb(251, 251, 251)" opacity="1.0"/>
    <path d="M 43.9998779296875 126.00008392333984 C 41.32050704956055 136.0 34.0 143.3205108642578 24.0 146.0 C 14.0 143.3205108642578 6.679491996765137 136.0 4.0 126.0 C 6.679491996765137 116.0 14.0 108.67948913574219 24.000593185424805 105.99868774414062 C 34.00029373168945 108.67874908447266 41.32038116455078 115.99996185302734 43.9998779296875 126.00008392333984" stroke-width="0.0" fill="rgb(251, 251, 251)" opacity="0.99994797"/>
    <path d="M 24.0 37.0 C 21.32050895690918 47.0 14.0 54.32050704956055 4.0 57.0 C -6.0 54.32050704956055 -13.320508003234863 47.0 -16.0 37.0 C -13.320508003234863 27.0 -6.0 19.67949104309082 4.0 17.0 C 14.0 19.67949104309082 21.32050895690918 27.0 24.0 37.0" stroke-width="0.0" fill="rgb(254, 252, 254)" opacity="1.0"/>
    <path d="M 44.9942512512207 71.99765014648438 C 42.31739044189453 81.99859619140625 34.999420166015625 89.32025146484375 24.999963760375977 91.99998474121094 C 14.999999046325684 89.32051086425781 7.679472923278809 82.00000762939453 4.999428749084473 71.99981689453125 C 7.679182529449463 61.99981689453125 14.999889373779297 54.6794319152832 24.999855041503906 52.00013732910156 C 34.99958801269531 54.67989730834961 42.32006072998047 62.000423431396484 44.9942512512207 71.99765014648438" stroke-width="0.0" fill="rgb(255, 255, 255)" opacity="0.9997819"/>
    <path d="M 181.0 8.0 C 178.3205108642578 18.0 171.0 25.32050895690918 161.0 28.0 C 151.0 25.32050895690918 143.6794891357422 18.0 141.0 8.0 C 143.6794891357422 -2.0 151.0 -9.320508003234863 161.0 -12.0 C 171.0 -9.320508003234863 178.3205108642578 -2.0 181.0 8.0" stroke-width="0.0" fill="rgb(255, 255, 255)" opacity="1.0"/>
    <path d="M 162.0 8.0 C 159.3205108642578 18.0 152.0 25.32050895690918 142.0 28.0 C 132.0 25.32050895690918 124.67948913574219 18.0 122.0 8.0 C 124.67948913574219 -2.0 132.0 -9.320508003234863 142.0 -12.0 C 152.0 -9.320508003234863 159.3205108642578 -2.0 162.0 8.0" stroke-width="0.0" fill="rgb(254, 254, 254)" opacity="1.0"/>
    <path d="M 181.3573455810547 20.18336296081543 C 178.6150360107422 30.245254516601562 171.2296142578125 37.563724517822266 161.1116180419922 40.1359977722168 C 151.00047302246094 37.3196907043457 143.6796875 29.99970054626465 141.00003051757812 19.999950408935547 C 143.6794891357422 10.0 151.0 2.6794919967651367 161.00010681152344 -0.00010609126184135675 C 171.00051879882812 2.6791348457336426 178.32835388183594 9.997435569763184 181.3573455810547 20.18336296081543" stroke-width="0.0" fill="rgb(251, 250, 251)" opacity="1.0"/>
    <path d="M 26.0 163.0 C 23.32050895690918 173.0 16.0 180.3205108642578 6.0 183.0 C -4.0 180.3205108642578 -11.320508003234863 173.0 -14.0 163.0 C -11.320508003234863 153.0 -4.0 145.6794891357422 6.0 143.0 C 16.0 145.6794891357422 23.32050895690918 153.0 26.0 163.0" stroke-width="0.0" fill="rgb(254, 254, 254)" opacity="1.0"/>
    <path d="M 24.999927520751953 125.99999237060547 C 22.320507049560547 136.0 15.0 143.3205108642578 5.0 146.0 C -5.0 143.3205108642578 -12.320508003234863 136.0 -15.0 126.0 C -12.320508003234863 116.0 -5.0 108.67948913574219 5.0 106.0 C 15.0 108.67948913574219 22.320507049560547 116.0 24.999927520751953 125.99999237060547" stroke-width="0.0" fill="rgb(254, 253, 254)" opacity="0.9999995"/>
    <path d="M 21.0 14.0 C 18.32050895690918 24.0 11.0 31.32050895690918 1.0 34.0 C -9.0 31.32050895690918 -16.32050895690918 24.0 -19.0 14.0 C -16.32050895690918 4.0 -9.0 -3.3205080032348633 1.0 -6.0 C 11.0 -3.3205080032348633 18.32050895690918 4.0 21.0 14.0" stroke-width="0.0" fill="rgb(254, 254, 254)" opacity="1.0"/>
    <path d="M 37.99946594238281 87.99976348876953 C 35.3203239440918 98.00016784667969 28.000444412231445 105.3212661743164 18.00037384033203 108.00056457519531 C 8.0 105.32051086425781 0.6794919371604919 98.0 -2.0 88.0 C 0.6794919371604919 78.0 8.0 70.67948913574219 18.0 68.0 C 28.0 70.67948913574219 35.32050704956055 78.0 37.99946594238281 87.99976348876953" stroke-width="0.0" fill="rgb(255, 253, 254)" opacity="0.9999599"/>
    <path d="M 168.00025939941406 0.00011728202662197873 C 165.32066345214844 10.000073432922363 158.00003051757812 17.320526123046875 148.0 20.000001907348633 C 138.0 17.32050895690918 130.6794891357422 10.0 128.0 2.4492935992912173e-15 C 130.6794891357422 -10.0 138.0 -17.32050895690918 148.0 -20.0 C 158.0 -17.32050895690918 165.3205108642578 -10.0 168.00025939941406 0.00011728202662197873" stroke-width="0.0" fill="rgb(254, 254, 254)" opacity="1.0"/>
    <path d="M 54.927520751953125 228.97962951660156 C 52.322933197021484 239.00083923339844 45.00019073486328 246.32058715820312 35.00000762939453 249.0 C 25.0 246.3205108642578 17.67949104309082 239.0 15.0 229.0 C 17.67949104309082 219.0 25.0 211.6794891357422 35.01148223876953 208.9936065673828 C 45.089420318603516 211.62442016601562 52.47716522216797 218.87881469726562 54.927520751953125 228.97962951660156" stroke-width="0.0" fill="rgb(255, 255, 255)" opacity="0.9978263"/>
    <path d="M 29.000022888183594 116.0 C 26.320531845092773 126.00001525878906 19.00001335144043 133.32052612304688 9.00000286102295 136.0 C -1.0 133.3205108642578 -8.320508003234863 126.0 -11.0 116.0 C -8.320508003234863 106.0 -1.0 98.67948913574219 9.000001907348633 96.0 C 19.000011444091797 98.67948150634766 26.320528030395508 105.99998474121094 29.000022888183594 116.0" stroke-width="0.0" fill="rgb(254, 253, 254)" opacity="1.0"/>
    <path d="M 167.91775512695312 13.961257934570312 C 165.26922607421875 23.972389221191406 157.98509216308594 31.312307357788086 147.9987335205078 34.00007247924805 C 138.0 31.32050895690918 130.6794891357422 24.0 128.0 14.0 C 130.6794891357422 4.0 138.0 -3.3205080032348633 148.0 -6.000000476837158 C 158.0 -3.320509672164917 165.32041931152344 4.000025272369385 167.91775512695312 13.961257934570312" stroke-width="0.0" fill="rgb(251, 251, 251)" opacity="0.9992719"/>
    <path d="M 248.0 237.0 C 245.3205108642578 247.0 238.0 254.3205108642578 228.00540161132812 256.9981384277344 C 218.2039337158203 254.24183654785156 211.51629638671875 246.37896728515625 208.9941864013672 237.9703826904297 C 211.66465759277344 227.97506713867188 218.96087646484375 220.62203979492188 228.79432678222656 217.73330688476562 C 238.0 219.6794891357422 245.3205108642578 227.0 248.0 237.0" stroke-width="0.0" fill="rgb(2, 2, 2)" opacity="0.99001014"/>
    <path d="M 21.0 162.0 C 18.32050895690918 172.0 11.0 179.3205108642578 1.0 182.0 C -9.0 179.3205108642578 -16.32050895690918 172.0 -19.0 162.0 C -16.32050895690918 152.0 -9.0 144.6794891357422 1.0 142.0 C 11.0 144.6794891357422 18.32050895690918 152.0 21.0 162.0" stroke-width="0.0" fill="rgb(254, 253, 254)" opacity="1.0"/>
    <path d="M 22.0 244.0 C 19.32050895690918 254.0 12.0 261.32049560546875 2.0 264.0 C -8.0 261.32049560546875 -15.320508003234863 254.0 -18.0 244.0 C -15.320508003234863 234.0 -8.0 226.6794891357422 2.0 224.0 C 12.0 226.6794891357422 19.32050895690918 234.0 22.0 244.0" stroke-width="0.0" fill="rgb(254, 254, 254)" opacity="1.0"/>
    <path d="M 126.01142883300781 19.01409339904785 C 123.34871673583984 28.981307983398438 115.80054473876953 35.878379821777344 105.51586151123047 38.29922866821289 C 95.99958801269531 36.32197952270508 88.67948150634766 29.000015258789062 86.0 19.0 C 88.67948913574219 9.0 96.0 1.6794918775558472 106.0 -1.0 C 116.0 1.6794918775558472 123.32051086425781 9.0 126.01142883300781 19.01409339904785" stroke-width="0.0" fill="rgb(255, 255, 255)" opacity="0.99097353"/>
    <path d="M 251.18667602539062 231.845703125 C 249.3205108642578 241.0 242.0 248.3205108642578 232.0 251.0 C 222.0 248.3205108642578 214.6794891357422 241.0 212.97314453125 231.96365356445312 C 215.66455078125 221.9842529296875 222.98609924316406 214.6691131591797 232.92608642578125 211.99575805664062 C 241.02325439453125 214.6646728515625 248.36578369140625 221.96640014648438 251.18667602539062 231.845703125" stroke-width="0.0" fill="rgb(2, 2, 2)" opacity="0.9900023"/>
    <path d="M 30.0 153.0 C 27.32050895690918 163.0 20.0 170.3205108642578 10.0 173.0 C 3.552713678800501e-15 170.3205108642578 -7.320508003234863 163.0 -10.0 153.0 C -7.320508003234863 143.0 -8.881784197001252e-15 135.6794891357422 10.0 133.0 C 20.0 135.6794891357422 27.32050895690918 143.0 30.0 153.0" stroke-width="0.0" fill="rgb(254, 254, 254)" opacity="1.0"/>
    <path d="M 34.0 198.0 C 31.32050895690918 208.0 24.0 215.3205108642578 14.0 218.0 C 4.0 215.3205108642578 -3.3205080032348633 208.0 -6.0 198.0 C -3.3205080032348633 188.0 4.0 180.6794891357422 14.0 178.0 C 24.0 180.6794891357422 31.32050895690918 188.0 34.0 198.0" stroke-width="0.0" fill="rgb(254, 254, 254)" opacity="1.0"/>
    <path d="M 36.0 143.0 C 33.32050704956055 153.0 26.0 160.3205108642578 16.0 163.0 C 6.0 160.3205108642578 -1.3205081224441528 153.0 -4.0 143.0 C -1.3205081224441528 133.0 6.0 125.67948913574219 16.00000762939453 122.99998474121094 C 26.000011444091797 125.67947387695312 33.32051086425781 133.0 36.0 143.0" stroke-width="0.0" fill="rgb(252, 251, 254)" opacity="1.0"/>
    <path d="M 46.98135757446289 41.03862380981445 C 44.0629768371582 52.68804931640625 36.648712158203125 59.943397521972656 26.34040641784668 62.3327522277832 C 15.999892234802246 59.3206787109375 8.679444313049316 52.00007247924805 5.999992370605469 42.0000114440918 C 8.679491996765137 32.0 16.0 24.67949104309082 26.716598510742188 21.36751365661621 C 36.945648193359375 23.761478424072266 44.299190521240234 31.034984588623047 46.98135757446289 41.03862380981445" stroke-width="0.0" fill="rgb(255, 255, 255)" opacity="1.0"/>
    <path d="M 25.0 244.0 C 22.32050895690918 254.0 15.0 261.32049560546875 5.0 264.0 C -5.0 261.32049560546875 -12.320508003234863 254.0 -15.0 244.0 C -12.320508003234863 234.0 -5.0 226.6794891357422 5.0 224.0 C 15.0 226.6794891357422 22.32050895690918 234.0 25.0 244.0" stroke-width="0.0" fill="rgb(255, 254, 254)" opacity="1.0"/>
    <path d="M 55.39280700683594 198.7648162841797 C 52.726173400878906 208.53240966796875 45.64834976196289 216.0740203857422 35.93633270263672 218.96005249023438 C 26.0 216.3205108642578 18.67949104309082 209.0 16.00002098083496 199.00003051757812 C 18.679649353027344 189.00025939941406 26.000450134277344 181.6802978515625 36.22161102294922 178.689453125 C 46.29311752319336 181.30990600585938 52.971012115478516 188.91436767578125 55.39280700683594 198.7648162841797" stroke-width="0.0" fill="rgb(250, 250, 250)" opacity="0.9904249"/>
    <path d="M 48.99933624267578 211.00146484375 C 46.3194580078125 220.9993133544922 38.99951171875 228.32012939453125 28.999893188476562 230.99990844726562 C 19.0 228.3205108642578 11.679491996765137 221.0 9.0 211.0 C 11.679491996765137 201.0 19.0 193.6794891357422 28.983766555786133 191.02252197265625 C 38.97483825683594 193.71473693847656 46.30845642089844 201.01820373535156 48.99933624267578 211.00146484375" stroke-width="0.0" fill="rgb(251, 250, 251)" opacity="0.99582505"/>
    <path d="M 46.000022888183594 235.99998474121094 C 43.32050704956055 246.0 36.0 253.3205108642578 26.0 256.0 C 16.0 253.3205108642578 8.679491996765137 246.0 6.0 236.0 C 8.679491996765137 226.0 16.0 218.6794891357422 26.000017166137695 215.99998474121094 C 36.00005340576172 218.679443359375 43.32057189941406 225.99993896484375 46.000022888183594 235.99998474121094" stroke-width="0.0" fill="rgb(251, 251, 251)" opacity="0.99999803"/>
    <path d="M 241.0 253.0 C 238.3205108642578 263.0 231.0 270.32049560546875 221.00204467773438 272.99932861328125 C 211.11102294921875 270.28216552734375 204.4279327392578 262.51885986328125 201.9929656982422 253.97311401367188 C 204.6639404296875 243.97821044921875 211.97219848632812 236.6463623046875 221.8951416015625 233.88414001464844 C 231.0 235.6794891357422 238.3205108642578 243.0 241.0 253.0" stroke-width="0.0" fill="rgb(2, 2, 2)" opacity="0.9900019"/>
    <path d="M 250.4283905029297 5.335862636566162 C 247.4215087890625 15.066271781921387 240.041259765625 22.344758987426758 231.6256866455078 25.012300491333008 C 221.96511840820312 22.341842651367188 214.5962677001953 15.054276466369629 211.55105590820312 5.291049957275391 C 213.62985229492188 -4.021259307861328 220.9921417236328 -11.324003219604492 230.99952697753906 -14.000218391418457 C 241.0 -11.320508003234863 248.3205108642578 -4.0 250.4283905029297 5.335862636566162" stroke-width="0.0" fill="rgb(3, 2, 2)" opacity="0.99001205"/>
    <path d="M 34.729148864746094 7.068399906158447 C 32.32050704956055 17.0 25.0 24.32050895690918 15.0 27.0 C 5.0 24.32050895690918 -2.3205080032348633 17.0 -5.0 7.0 C -2.3205080032348633 -3.0 5.0 -10.320508003234863 15.008528709411621 -13.004538536071777 C 25.072751998901367 -10.36357593536377 32.418216705322266 -3.0910236835479736 34.729148864746094 7.068399906158447" stroke-width="0.0" fill="rgb(251, 251, 251)" opacity="0.99157155"/>
    <path d="M 39.99983596801758 218.00035095214844 C 37.3205680847168 228.00003051757812 30.00000762939453 235.3205108642578 20.0 238.0 C 10.0 235.3205108642578 2.6794919967651367 228.0 0.0 218.0 C 2.6794919967651367 208.0 10.0 200.6794891357422 19.99997329711914 198.00003051757812 C 29.999828338623047 200.67959594726562 37.319984436035156 208.0002899169922 39.99983596801758 218.00035095214844" stroke-width="0.0" fill="rgb(252, 251, 252)" opacity="0.99986476"/>
    <path d="M 138.1064453125 15.093974113464355 C 135.52809143066406 25.16480827331543 128.21791076660156 32.69122314453125 118.5510025024414 35.80021667480469 C 108.0010757446289 32.31770324707031 100.67959594726562 24.99968719482422 98.0 14.999992370605469 C 100.67948913574219 5.0 108.0 -2.3205080032348633 118.0 -5.0 C 128.0 -2.3205080032348633 135.3205108642578 5.0 138.1064453125 15.093974113464355" stroke-width="0.0" fill="rgb(255, 255, 255)" opacity="0.9905543"/>
    <path d="M 32.00074768066406 195.99954223632812 C 29.320470809936523 205.99998474121094 21.999990463256836 213.3205108642578 11.999999046325684 216.0 C 2.0 213.3205108642578 -5.320508003234863 206.0 -8.0 196.0 C -5.320508003234863 186.0 2.0 178.6794891357422 12.000066757202148 175.9999542236328 C 22.000368118286133 178.67922973632812 29.32129669189453 185.99948120117188 32.00074768066406 195.99954223632812" stroke-width="0.0" fill="rgb(255, 252, 254)" opacity="0.9999763"/>
    <path d="M 274.9999694824219 233.00015258789062 C 272.32049560546875 243.0 265.0 250.3205108642578 255.0 253.0 C 245.0 250.3205108642578 237.6794891357422 243.0 235.63185119628906 233.71543884277344 C 238.5975341796875 223.94619750976562 245.9677276611328 216.66131591796875 255.97610473632812 213.99203491210938 C 264.81243896484375 216.12225341796875 272.31549072265625 223.01673889160156 274.9999694824219 233.00015258789062" stroke-width="0.0" fill="rgb(2, 2, 2)" opacity="0.99000305"/>
    <path d="M 271.0 5.0 C 268.32049560546875 15.0 261.0 22.32050895690918 250.07398986816406 25.927852630615234 C 240.02426147460938 23.29490089416504 232.70245361328125 15.976638793945312 231.9880828857422 5.949533939361572 C 234.608154296875 -4.160084247589111 241.640380859375 -11.894036293029785 251.0828094482422 -14.963072776794434 C 261.0 -12.320508003234863 268.32049560546875 -5.0 271.0 5.0" stroke-width="0.0" fill="rgb(251, 251, 251)" opacity="0.99003005"/>
    <path d="M 41.96199035644531 29.887977600097656 C 39.0947265625 39.524932861328125 31.15207862854004 46.37575149536133 21.003339767456055 49.001102447509766 C 11.0 46.32050704956055 3.6794919967651367 39.0 1.0 29.0 C 3.6794919967651367 19.0 11.0 11.679491996765137 21.000001907348633 9.0 C 31.000118255615234 11.67945671081543 38.32516860961914 18.99862289428711 41.96199035644531 29.887977600097656" stroke-width="0.0" fill="rgb(251, 251, 251)" opacity="1.0"/>
    <path d="M 121.99937438964844 19.998313903808594 C 119.3036117553711 29.95693016052246 111.90310668945312 37.132606506347656 102.12153625488281 40.790367126464844 C 91.48709106445312 37.8226203918457 84.14686584472656 30.518775939941406 81.57177734375 20.329599380493164 C 84.67948913574219 10.0 92.0 2.6794919967651367 102.0 0.0 C 112.0 2.6794919967651367 119.32051086425781 10.0 121.99937438964844 19.998313903808594" stroke-width="0.0" fill="rgb(251, 251, 251)" opacity="0.99080116"/>
    <path d="M 44.17130661010742 79.03044891357422 C 41.35000228881836 89.01177215576172 34.00371170043945 96.32186889648438 24.000102996826172 99.0 C 14.0 96.32051086425781 6.679491996765137 89.0 4.000250339508057 79.00016021728516 C 6.679824352264404 69.00023651123047 14.000173568725586 61.679603576660156 24.0003662109375 58.999481201171875 C 34.00070571899414 61.67860794067383 41.32061767578125 68.99951934814453 44.17130661010742 79.03044891357422" stroke-width="0.0" fill="rgb(251, 251, 251)" opacity="0.9919945"/>
    <path d="M 27.0 118.0 C 24.32050895690918 128.0 17.0 135.3205108642578 7.0 138.0 C -3.0 135.3205108642578 -10.320508003234863 128.0 -13.0 118.0 C -10.320508003234863 108.0 -3.0 100.67948913574219 7.0 98.0 C 17.0 100.67948913574219 24.32050895690918 108.0 27.0 118.0" stroke-width="0.0" fill="rgb(254, 251, 253)" opacity="1.0"/>
  </g>
</svg>
