<?xml version="1.0" ?>
<svg xmlns="http://www.w3.org/2000/svg" version="1.1" width="256" height="256">
  <defs/>
  <g>
    <path d="M 134.0 162.0 C 131.99038696289062 169.5 126.5 174.99038696289062 119.12403869628906 176.90696716308594 C 111.96379089355469 174.61949157714844 106.6892318725586 168.9321746826172 104.35059356689453 162.2285614013672 C 106.71895599365234 155.15411376953125 112.1055679321289 149.5529327392578 119.1277084350586 146.73353576660156 C 126.5 149.00961303710938 131.99038696289062 154.5 134.0 162.0" stroke-width="0.0" fill="rgb(215, 215, 215)" opacity="0.9900723"/>
    <path d="M 202.90843200683594 232.12246704101562 C 200.95489501953125 239.41441345214844 195.2704620361328 244.5578155517578 187.30735778808594 247.6808624267578 C 179.92581176757812 245.52908325195312 174.2480926513672 240.16259765625 172.26170349121094 232.62986755371094 C 175.02626037597656 224.55239868164062 180.8439483642578 219.6446533203125 188.87022399902344 217.96478271484375 C 195.0876922607422 219.32591247558594 200.63211059570312 224.91635131835938 202.90843200683594 232.12246704101562" stroke-width="0.0" fill="rgb(251, 251, 251)" opacity="1.0"/>
    <path d="M 211.97935485839844 57.07759094238281 C 209.9993438720703 64.52320861816406 204.4911651611328 69.88126373291016 196.35760498046875 71.10965728759766 C 189.2567901611328 70.31797790527344 183.88185119628906 64.68052673339844 181.43017578125 56.70753860473633 C 183.7879638671875 49.411399841308594 189.48008728027344 44.00275421142578 196.36569213867188 42.745479583740234 C 203.85670471191406 44.76806640625 209.64125061035156 50.00850296020508 211.97935485839844 57.07759094238281" stroke-width="0.0" fill="rgb(252, 251, 252)" opacity="1.0"/>
    <path d="M 129.81661987304688 248.86227416992188 C 127.7296142578125 256.2994384765625 122.34408569335938 261.874267578125 114.96876525878906 263.9775695800781 C 107.5 261.9903869628906 102.0096206665039 256.5 99.71263885498047 248.6355743408203 C 101.30570220947266 240.72657775878906 106.67350006103516 235.1360626220703 114.23553466796875 233.17379760742188 C 122.5 236.00961303710938 127.9903793334961 241.5 129.81661987304688 248.86227416992188" stroke-width="0.0" fill="rgb(19, 19, 19)" opacity="0.9900044"/>
    <path d="M 90.9889907836914 82.97713470458984 C 88.85082244873047 90.2385482788086 83.03955078125 95.334228515625 75.34143829345703 97.20272827148438 C 67.90589904785156 96.63505554199219 62.54671859741211 91.03919219970703 60.99567794799805 83.30400848388672 C 63.48087692260742 76.0568618774414 69.13211059570312 70.71867370605469 76.52776336669922 68.61470794677734 C 83.5 70.0096206665039 88.9903793334961 75.5 90.9889907836914 82.97713470458984" stroke-width="0.0" fill="rgb(238, 239, 240)" opacity="1.0"/>
    <path d="M 54.37751770019531 130.6315155029297 C 51.990379333496094 138.5 46.5 143.99038696289062 39.0 146.0 C 31.5 143.99038696289062 26.009618759155273 138.5 24.3494815826416 131.2310028076172 C 26.266826629638672 123.3068618774414 31.06197738647461 117.41606903076172 39.62094497680664 115.14598083496094 C 47.20832443237305 117.23506927490234 52.631492614746094 122.83855438232422 54.37751770019531 130.6315155029297" stroke-width="0.0" fill="rgb(250, 250, 250)" opacity="0.99040896"/>
    <path d="M 190.0492706298828 41.08716583251953 C 188.3304901123047 48.9835090637207 183.12088012695312 54.73393249511719 174.81735229492188 56.8719482421875 C 166.96728515625 54.686317443847656 161.80372619628906 48.85973358154297 160.2051239013672 40.96038818359375 C 162.00961303710938 33.5 167.5 28.009618759155273 175.0 26.0 C 182.5 28.009618759155273 187.99038696289062 33.5 190.0492706298828 41.08716583251953" stroke-width="0.0" fill="rgb(252, 253, 255)" opacity="0.99029493"/>
    <path d="M 240.0 193.0 C 237.99038696289062 200.5 232.5 205.99038696289062 224.58290100097656 208.4915008544922 C 216.9512481689453 206.61190795898438 211.60159301757812 200.9820098876953 209.88473510742188 193.14955139160156 C 212.00961303710938 185.5 217.5 180.00961303710938 225.0 178.0 C 232.5 180.00961303710938 237.99038696289062 185.5 240.0 193.0" stroke-width="0.0" fill="rgb(82, 82, 81)" opacity="0.99002093"/>
    <path d="M 200.7693328857422 158.50051879882812 C 198.99038696289062 166.5 193.5 171.99038696289062 186.0 174.0 C 178.5 171.99038696289062 173.00961303710938 166.5 171.0 159.0 C 173.00961303710938 151.5 178.5 146.00961303710938 186.74380493164062 143.32620239257812 C 194.38543701171875 145.10960388183594 199.8275909423828 150.63218688964844 200.7693328857422 158.50051879882812" stroke-width="0.0" fill="rgb(251, 251, 251)" opacity="1.0"/>
    <path d="M 185.0 29.0 C 182.99038696289062 36.5 177.5 41.990379333496094 169.9998321533203 44.00021743774414 C 162.49977111816406 41.990760803222656 157.00950622558594 36.500152587890625 154.44473266601562 28.60466194152832 C 156.49835205078125 21.129663467407227 162.2454071044922 15.84157657623291 169.96041870117188 13.975597381591797 C 177.5 16.009618759155273 182.99038696289062 21.5 185.0 29.0" stroke-width="0.0" fill="rgb(250, 250, 250)" opacity="0.99406093"/>
    <path d="M 162.38818359375 36.49429702758789 C 160.2293701171875 43.78945541381836 155.29774475097656 50.81298828125 148.92782592773438 51.098533630371094 C 141.0418701171875 49.22488021850586 134.95193481445312 44.305171966552734 132.91920471191406 37.06429672241211 C 135.00714111328125 29.492015838623047 140.43577575683594 23.826173782348633 147.39593505859375 21.355289459228516 C 154.89556884765625 24.699819564819336 160.54513549804688 30.024690628051758 162.38818359375 36.49429702758789" stroke-width="0.0" fill="rgb(251, 251, 251)" opacity="1.0"/>
    <path d="M 51.91899490356445 133.90444946289062 C 49.73310089111328 141.23928833007812 44.34941101074219 147.21697998046875 37.39812088012695 149.86412048339844 C 29.214473724365234 147.49908447265625 23.466341018676758 141.79005432128906 22.96776008605957 134.43446350097656 C 23.259321212768555 125.79346466064453 28.83643341064453 120.39706420898438 36.685176849365234 118.7010498046875 C 44.498924255371094 121.01132202148438 49.98979949951172 126.50074768066406 51.91899490356445 133.90444946289062" stroke-width="0.0" fill="rgb(249, 249, 249)" opacity="1.0"/>
    <path d="M 192.8684539794922 137.6135711669922 C 190.50401306152344 144.8242645263672 184.67938232421875 150.1058349609375 177.1151885986328 151.9484405517578 C 169.85125732421875 149.70228576660156 164.4822998046875 144.0919189453125 162.32266235351562 136.72833251953125 C 164.00961303710938 129.5 169.5 124.0096206665039 177.4152374267578 121.5494384765625 C 185.09620666503906 123.36243438720703 190.45553588867188 128.9586639404297 192.8684539794922 137.6135711669922" stroke-width="0.0" fill="rgb(250, 251, 251)" opacity="0.9913834"/>
    <path d="M 63.36003494262695 68.60590362548828 C 61.990379333496094 75.5 56.5 80.9903793334961 49.0 83.0 C 41.5 80.9903793334961 36.009620666503906 75.5 34.0 68.0 C 36.009620666503906 60.5 41.5 55.009620666503906 48.77947235107422 53.171993255615234 C 55.87144470214844 55.54778289794922 61.20460891723633 61.2089729309082 63.36003494262695 68.60590362548828" stroke-width="0.0" fill="rgb(251, 251, 252)" opacity="1.0"/>
    <path d="M 119.05270385742188 113.90782165527344 C 118.17363739013672 120.57047271728516 112.51500701904297 125.99552917480469 105.607421875 127.39753723144531 C 98.35010528564453 125.15802001953125 92.92462158203125 119.61988830566406 90.96553802490234 112.52748107910156 C 92.85457611083984 105.91116333007812 96.7391357421875 99.11849975585938 104.05901336669922 97.09087371826172 C 111.57847595214844 100.94153594970703 117.05036163330078 106.42493438720703 119.05270385742188 113.90782165527344" stroke-width="0.0" fill="rgb(134, 134, 133)" opacity="0.9900091"/>
    <path d="M 134.04420471191406 48.11468505859375 C 132.13279724121094 55.80159378051758 127.10310363769531 61.85075759887695 120.015625 64.02879333496094 C 112.5 61.990379333496094 107.0096206665039 56.5 105.00006866455078 49.00019454956055 C 107.01199340820312 41.506595611572266 112.52587890625 36.078433990478516 120.08917236328125 34.213645935058594 C 127.49993896484375 36.009639739990234 132.9857940673828 41.50130081176758 134.04420471191406 48.11468505859375" stroke-width="0.0" fill="rgb(93, 93, 92)" opacity="0.99002403"/>
    <path d="M 154.0 239.0 C 151.99038696289062 246.5 146.5 251.99038696289062 139.0 254.0 C 131.5 251.99038696289062 126.0096206665039 246.5 124.0 239.0 C 126.0096206665039 231.5 131.5 226.00961303710938 139.0 224.0 C 146.5 226.00961303710938 151.99038696289062 231.5 154.0 239.0" stroke-width="0.0" fill="rgb(135, 135, 133)" opacity="1.0"/>
    <path d="M 74.0 151.0 C 71.9903793334961 158.5 66.5 163.99038696289062 59.836307525634766 165.18466186523438 C 52.459651947021484 163.0418243408203 46.990386962890625 157.52919006347656 44.993221282958984 150.0826416015625 C 46.9617919921875 144.3945770263672 52.265201568603516 138.60812377929688 59.176734924316406 136.0921630859375 C 66.5 138.00961303710938 71.9903793334961 143.5 74.0 151.0" stroke-width="0.0" fill="rgb(4, 4, 3)" opacity="0.99000317"/>
    <path d="M 237.7423095703125 235.62120056152344 C 235.75392150878906 243.22811889648438 230.20848083496094 248.69288635253906 222.4400177001953 250.4453582763672 C 214.5 247.99038696289062 209.00961303710938 242.5 207.0 235.0 C 209.00961303710938 227.5 214.5 222.00961303710938 222.0 220.0 C 229.5 222.00961303710938 234.99038696289062 227.5 237.7423095703125 235.62120056152344" stroke-width="0.0" fill="rgb(255, 255, 255)" opacity="0.9912478"/>
    <path d="M 113.14555358886719 251.97125244140625 C 112.94432067871094 259.40380859375 107.3005599975586 264.646484375 99.23346710205078 266.12030029296875 C 91.59904479980469 263.9312744140625 86.38909149169922 258.2911682128906 84.7619400024414 250.48585510253906 C 86.0096206665039 243.5 91.5 238.00961303710938 98.46366882324219 236.4951171875 C 105.65203857421875 238.8189239501953 111.0536880493164 244.39581298828125 113.14555358886719 251.97125244140625" stroke-width="0.0" fill="rgb(241, 241, 241)" opacity="0.99000794"/>
    <path d="M 87.04169464111328 134.87890625 C 85.8643798828125 141.1708984375 80.14875793457031 146.70895385742188 72.91460418701172 148.9442596435547 C 65.5 146.99038696289062 60.009620666503906 141.5 58.55252456665039 134.55813598632812 C 60.80607986450195 127.30455780029297 66.31024169921875 121.82394409179688 73.57489776611328 118.3085708618164 C 79.73614501953125 121.66475677490234 85.089111328125 127.34249877929688 87.04169464111328 134.87890625" stroke-width="0.0" fill="rgb(251, 251, 252)" opacity="1.0"/>
    <path d="M 176.69418334960938 249.60324096679688 C 175.4849090576172 256.826904296875 169.69168090820312 262.0970458984375 162.0192413330078 264.0094909667969 C 154.5 261.9903869628906 149.00961303710938 256.5 147.1524200439453 249.234619140625 C 149.61477661132812 242.223876953125 155.31434631347656 236.89236450195312 162.81637573242188 234.87449645996094 C 169.662841796875 235.6833038330078 174.51345825195312 241.6773681640625 176.69418334960938 249.60324096679688" stroke-width="0.0" fill="rgb(251, 251, 251)" opacity="0.9905343"/>
    <path d="M 163.09251403808594 224.1198272705078 C 161.336181640625 231.9140625 155.97793579101562 237.54100036621094 148.34628295898438 239.4151153564453 C 140.5 236.99038696289062 135.00961303710938 231.5 133.46340942382812 224.38050842285156 C 135.58554077148438 216.99221801757812 140.91754150390625 211.34889221191406 148.11351013183594 209.0819091796875 C 155.50059509277344 211.00823974609375 160.990478515625 216.49977111816406 163.09251403808594 224.1198272705078" stroke-width="0.0" fill="rgb(119, 118, 118)" opacity="0.9900649"/>
    <path d="M 191.8377685546875 25.614173889160156 C 189.3698272705078 32.66859817504883 183.53656005859375 38.003353118896484 176.00099182128906 40.000335693359375 C 168.50088500976562 37.99007797241211 163.02334594726562 32.4953727722168 161.091064453125 24.970012664794922 C 163.0096893310547 17.500022888183594 168.5 12.00961971282959 176.0 10.0 C 183.5 12.009618759155273 188.99046325683594 17.499977111816406 191.8377685546875 25.614173889160156" stroke-width="0.0" fill="rgb(250, 251, 251)" opacity="0.9914363"/>
    <path d="M 139.29656982421875 204.35765075683594 C 137.69058227539062 212.2797088623047 132.3551483154297 217.9033203125 124.8704833984375 219.93023681640625 C 116.1572036743164 217.2125701904297 110.53441619873047 211.91943359375 109.82171630859375 203.36488342285156 C 111.1755142211914 196.58175659179688 116.53446197509766 191.0233917236328 124.00145721435547 189.0005645751953 C 131.5 191.00961303710938 136.99038696289062 196.5 139.29656982421875 204.35765075683594" stroke-width="0.0" fill="rgb(158, 158, 159)" opacity="0.9910599"/>
    <path d="M 40.00000762939453 53.00001907348633 C 37.99079895019531 60.50132751464844 32.509971618652344 66.02177429199219 24.762020111083984 68.59223175048828 C 17.382314682006836 66.25675201416016 12.001570701599121 60.53244400024414 10.000842094421387 52.9994010925293 C 12.009618759155273 45.5 17.5 40.009620666503906 25.0 38.0 C 32.5 40.009620666503906 37.990379333496094 45.5 40.00000762939453 53.00001907348633" stroke-width="0.0" fill="rgb(254, 254, 254)" opacity="0.992455"/>
    <path d="M 119.90525817871094 186.87684631347656 C 117.63941192626953 194.0816650390625 112.01949310302734 199.4395294189453 104.65618896484375 201.59107971191406 C 97.5 199.99038696289062 92.0096206665039 194.5 90.69364929199219 187.67626953125 C 92.86099243164062 180.333740234375 98.30864715576172 174.76416015625 105.63584899902344 171.1606903076172 C 112.65120697021484 173.6555938720703 118.00041198730469 179.47059631347656 119.90525817871094 186.87684631347656" stroke-width="0.0" fill="rgb(249, 249, 249)" opacity="1.0"/>
    <path d="M 42.40202713012695 28.37705421447754 C 39.44524002075195 35.88918685913086 33.83403778076172 41.26723861694336 27.45918083190918 43.258460998535156 C 20.422826766967773 41.099735260009766 14.97773551940918 35.55142593383789 12.990806579589844 29.888036727905273 C 14.988460540771484 22.47345542907715 20.472434997558594 16.985876083374023 27.975915908813477 13.044683456420898 C 35.44029235839844 15.043745040893555 40.84624099731445 20.59733009338379 42.40202713012695 28.37705421447754" stroke-width="0.0" fill="rgb(39, 38, 38)" opacity="0.99000144"/>
    <path d="M 186.91619873046875 75.88644409179688 C 184.9360809326172 83.4268569946289 179.40567016601562 88.86737823486328 171.64735412597656 90.58177185058594 C 163.5 87.9903793334961 158.00961303710938 82.5 156.0 75.0 C 158.00961303710938 67.5 163.5 62.009620666503906 171.0 60.0 C 178.5 62.009620666503906 183.99038696289062 67.5 186.91619873046875 75.88644409179688" stroke-width="0.0" fill="rgb(171, 170, 170)" opacity="1.0"/>
    <path d="M 187.93711853027344 216.95018005371094 C 185.86830139160156 224.34442138671875 180.3385467529297 229.84799194335938 172.6912841796875 231.71360778808594 C 164.5 228.99038696289062 159.00961303710938 223.5 157.0 216.0 C 159.00961303710938 208.5 164.5 203.00961303710938 171.13047790527344 201.86981201171875 C 178.54237365722656 203.963623046875 184.02203369140625 209.4623260498047 187.93711853027344 216.95018005371094" stroke-width="0.0" fill="rgb(16, 16, 16)" opacity="0.99000525"/>
    <path d="M 58.192867279052734 28.455995559692383 C 56.51382827758789 36.26028060913086 51.434940338134766 41.96674346923828 44.6820182800293 43.33469009399414 C 37.41691207885742 41.10231399536133 31.975719451904297 35.55549240112305 29.974956512451172 28.033239364624023 C 30.135446548461914 20.676259994506836 35.69314956665039 15.172660827636719 43.08940124511719 14.936115264892578 C 50.711753845214844 16.88814926147461 56.46950912475586 22.160579681396484 58.192867279052734 28.455995559692383" stroke-width="0.0" fill="rgb(250, 250, 250)" opacity="0.9900059"/>
    <path d="M 238.0347900390625 73.38801574707031 C 236.0518341064453 80.57373046875 230.57443237304688 86.05347442626953 223.23629760742188 88.03740692138672 C 217.2799530029297 86.12348937988281 211.55665588378906 80.83273315429688 209.13963317871094 73.79747009277344 C 211.00961303710938 66.5 216.5 61.009620666503906 223.8363494873047 59.09627151489258 C 230.83152770996094 61.529335021972656 236.10621643066406 67.2965316772461 238.0347900390625 73.38801574707031" stroke-width="0.0" fill="rgb(134, 133, 134)" opacity="0.9900124"/>
    <path d="M 169.3939208984375 137.3258514404297 C 167.53042602539062 145.00332641601562 161.98326110839844 150.4658203125 154.23179626464844 152.23626708984375 C 146.5 149.99038696289062 141.00961303710938 144.5 139.0 137.0 C 141.00961303710938 129.5 146.5 124.0096206665039 154.0 122.0 C 161.5 124.0096206665039 166.99038696289062 129.5 169.3939208984375 137.3258514404297" stroke-width="0.0" fill="rgb(243, 243, 244)" opacity="1.0"/>
    <path d="M 79.864501953125 166.7781219482422 C 77.84785461425781 174.28378295898438 71.96440887451172 178.2124786376953 63.092201232910156 180.0221710205078 C 56.0117073059082 179.51136779785156 50.58793258666992 173.95619201660156 48.038658142089844 165.05892944335938 C 50.034027099609375 157.53073120117188 55.53984069824219 152.07374572753906 64.47639465332031 151.9224090576172 C 71.57965850830078 152.9325408935547 76.86399841308594 158.47706604003906 79.864501953125 166.7781219482422" stroke-width="0.0" fill="rgb(250, 250, 250)" opacity="0.99001163"/>
    <path d="M 162.08050537109375 133.84713745117188 C 159.99038696289062 141.5 154.5 146.99038696289062 146.4930877685547 149.4401397705078 C 138.63153076171875 147.80308532714844 133.0670166015625 142.4104461669922 131.01922607421875 133.0946807861328 C 133.0395050048828 125.53688049316406 138.53610229492188 120.0380630493164 146.09437561035156 118.01610565185547 C 155.35598754882812 120.0807113647461 160.53529357910156 125.78218078613281 162.08050537109375 133.84713745117188" stroke-width="0.0" fill="rgb(51, 52, 52)" opacity="1.0"/>
    <path d="M 66.0 81.0 C 63.990379333496094 88.5 58.5 93.9903793334961 51.00180435180664 95.99938201904297 C 43.57838821411133 93.96278381347656 38.62969207763672 88.1556396484375 36.9666633605957 80.52240753173828 C 38.50193786621094 73.72530364990234 43.52863311767578 68.01847076416016 51.000328063964844 66.0000991821289 C 58.5 68.0096206665039 63.990379333496094 73.5 66.0 81.0" stroke-width="0.0" fill="rgb(28, 28, 28)" opacity="0.99016553"/>
    <path d="M 261.17138671875 227.1437530517578 C 259.2522277832031 234.60665893554688 253.2938995361328 239.50531005859375 245.4290313720703 241.43069458007812 C 238.02447509765625 240.5021514892578 232.5736083984375 234.9524688720703 230.81192016601562 227.19656372070312 C 233.00961303710938 219.5 238.5 214.00961303710938 246.0 212.0 C 253.5 214.00961303710938 258.9903869628906 219.5 261.17138671875 227.1437530517578" stroke-width="0.0" fill="rgb(255, 255, 255)" opacity="0.9904001"/>
    <path d="M 232.6486053466797 241.55406188964844 C 230.72332763671875 249.1856689453125 225.1443328857422 254.58413696289062 217.44012451171875 256.63568115234375 C 209.5000457763672 253.99024963378906 204.00961303710938 248.5 202.0 241.0 C 204.00961303710938 233.5 209.5 228.00961303710938 217.0 226.0 C 224.50001525878906 228.00961303710938 229.99049377441406 233.4999542236328 232.6486053466797 241.55406188964844" stroke-width="0.0" fill="rgb(255, 255, 255)" opacity="0.99061596"/>
    <path d="M 192.9256134033203 114.0334243774414 C 189.0269012451172 121.54087829589844 183.53636169433594 127.01687622070312 176.04693603515625 129.02650451660156 C 169.5 127.9903793334961 164.00961303710938 122.5 162.97482299804688 115.9539794921875 C 164.98150634765625 108.45418548583984 170.43006896972656 102.90802001953125 177.7948455810547 100.12347412109375 C 185.42112731933594 101.12510681152344 190.95989990234375 106.55067443847656 192.9256134033203 114.0334243774414" stroke-width="0.0" fill="rgb(21, 20, 21)" opacity="0.990003"/>
    <path d="M 109.98423767089844 242.95298767089844 C 107.960205078125 250.43161010742188 101.71810913085938 254.0582733154297 94.93299102783203 256.0137634277344 C 87.46333312988281 254.0127716064453 81.9272232055664 248.5563201904297 79.65460205078125 241.27590942382812 C 81.0096206665039 234.5 86.5 229.00961303710938 93.95405578613281 227.09762573242188 C 102.05402374267578 228.773681640625 107.85997009277344 233.744140625 109.98423767089844 242.95298767089844" stroke-width="0.0" fill="rgb(12, 11, 12)" opacity="0.9900035"/>
    <path d="M 190.8702850341797 96.80722045898438 C 188.89529418945312 104.3325424194336 182.1852569580078 108.08979034423828 174.04051208496094 110.05256652832031 C 166.55360412597656 109.95425415039062 161.10964965820312 104.42584228515625 159.065185546875 95.17476654052734 C 161.12916564941406 87.70484924316406 166.8184356689453 82.44149780273438 175.70123291015625 80.21614074707031 C 183.322265625 82.14886474609375 188.68792724609375 87.72406005859375 190.8702850341797 96.80722045898438" stroke-width="0.0" fill="rgb(161, 162, 161)" opacity="0.99002177"/>
    <path d="M 213.03939819335938 94.92955780029297 C 212.00961303710938 101.55658721923828 206.78396606445312 107.5455093383789 198.0396270751953 109.98644256591797 C 190.54396057128906 107.965087890625 185.82908630371094 102.4144287109375 184.98931884765625 94.94918823242188 C 186.98939514160156 87.47371673583984 192.47213745117188 81.98595428466797 198.10568237304688 79.99329376220703 C 205.53216552734375 81.98884582519531 211.02809143066406 87.45967102050781 213.03939819335938 94.92955780029297" stroke-width="0.0" fill="rgb(23, 23, 23)" opacity="0.990001"/>
    <path d="M 241.00048828125 225.00033569335938 C 238.9911651611328 232.50067138671875 233.50062561035156 237.9910430908203 226.000244140625 240.0002899169922 C 218.5 237.99038696289062 213.00961303710938 232.5 211.0 225.0 C 213.00961303710938 217.5 218.5 212.00961303710938 226.0 210.0 C 233.5 212.00961303710938 238.99038696289062 217.5 241.00048828125 225.00033569335938" stroke-width="0.0" fill="rgb(252, 254, 254)" opacity="1.0"/>
    <path d="M 127.58657836914062 223.35781860351562 C 125.91815948486328 230.3908233642578 120.2945785522461 235.6301727294922 113.88493347167969 237.02195739746094 C 104.68342590332031 236.24481201171875 99.15409088134766 231.35653686523438 97.35574340820312 223.6544189453125 C 99.8929443359375 215.27593994140625 105.12461853027344 209.46385192871094 112.43800354003906 208.9007110595703 C 120.67748260498047 209.57467651367188 125.44358825683594 215.78839111328125 127.58657836914062 223.35781860351562" stroke-width="0.0" fill="rgb(214, 213, 213)" opacity="0.9904129"/>
    <path d="M 147.95672607421875 231.79962158203125 C 145.83616638183594 239.2134246826172 140.01620483398438 244.32862854003906 132.13621520996094 246.01153564453125 C 125.12236785888672 243.5853271484375 119.9338607788086 237.66954040527344 117.99190521240234 231.92626953125 C 119.98367309570312 224.46231079101562 125.46004486083984 218.97967529296875 132.92117309570312 216.9816436767578 C 138.54273986816406 218.97662353515625 144.08892822265625 224.44261169433594 147.95672607421875 231.79962158203125" stroke-width="0.0" fill="rgb(3, 3, 3)" opacity="0.99000216"/>
    <path d="M 210.0 182.0 C 207.99038696289062 189.5 202.5 194.99038696289062 195.21963500976562 196.8370819091797 C 188.13612365722656 194.44688415527344 182.80728149414062 188.78086853027344 180.78475952148438 181.31973266601562 C 182.00961303710938 174.5 187.5 169.00961303710938 195.0 167.0 C 202.5 169.00961303710938 207.99038696289062 174.5 210.0 182.0" stroke-width="0.0" fill="rgb(250, 250, 251)" opacity="1.0"/>
    <path d="M 83.917236328125 206.86300659179688 C 81.53716278076172 213.90428161621094 75.77393341064453 219.16094970703125 68.74929809570312 221.08303833007812 C 62.35609436035156 219.1230010986328 56.87632751464844 213.64413452148438 54.9309196472168 207.54241943359375 C 56.70014572143555 199.95640563964844 61.694480895996094 194.0960693359375 69.00990295410156 192.00396728515625 C 76.5 194.00961303710938 81.9903793334961 199.5 83.917236328125 206.86300659179688" stroke-width="0.0" fill="rgb(168, 168, 169)" opacity="0.9900378"/>
    <path d="M 57.105491638183594 66.95299530029297 C 54.990379333496094 74.5 49.5 79.9903793334961 41.12331008911133 82.92658996582031 C 33.61832046508789 80.91594696044922 28.24696159362793 75.32598876953125 26.44695281982422 67.48884582519531 C 29.009618759155273 59.5 34.5 54.009620666503906 42.00044631958008 51.99980926513672 C 49.50836944580078 54.00605010986328 55.04159164428711 59.47774124145508 57.105491638183594 66.95299530029297" stroke-width="0.0" fill="rgb(250, 250, 250)" opacity="0.99002916"/>
    <path d="M 150.3685302734375 246.68112182617188 C 148.99038696289062 253.5 143.5 258.9903869628906 135.17800903320312 261.79510498046875 C 127.54441833496094 259.93414306640625 122.03400421142578 254.46595764160156 121.97881317138672 246.9734649658203 C 123.95402526855469 239.40713500976562 129.41986083984375 233.9672393798828 136.75070190429688 231.9918975830078 C 142.5586395263672 233.9725341796875 148.1001739501953 239.41586303710938 150.3685302734375 246.68112182617188" stroke-width="0.0" fill="rgb(251, 251, 251)" opacity="0.9900024"/>
    <path d="M 72.13898468017578 80.96698760986328 C 71.95574951171875 88.4570541381836 66.44985961914062 93.9337158203125 58.83709716796875 95.83140563964844 C 50.5 92.9903793334961 45.009620666503906 87.5 43.30747604370117 80.43531036376953 C 45.81254196166992 73.38040924072266 51.432682037353516 67.97318267822266 58.901248931884766 65.98175811767578 C 64.52481079101562 67.98509979248047 70.01244354248047 73.4759292602539 72.13898468017578 80.96698760986328" stroke-width="0.0" fill="rgb(3, 3, 2)" opacity="0.9900062"/>
    <path d="M 40.8895149230957 0.809037983417511 C 38.875762939453125 8.365824699401855 33.34840774536133 13.810367584228516 24.146066665649414 14.071760177612305 C 16.849767684936523 13.736165046691895 11.46902847290039 8.072233200073242 9.285470008850098 0.4871143102645874 C 12.009618759155273 -7.5 17.5 -12.990381240844727 25.0 -15.0 C 32.5 -12.990381240844727 37.990379333496094 -7.5 40.8895149230957 0.809037983417511" stroke-width="0.0" fill="rgb(227, 226, 226)" opacity="1.0"/>
    <path d="M 189.99302673339844 31.0034122467041 C 187.99038696289062 38.5 182.5 43.990379333496094 175.0095977783203 45.969730377197266 C 167.5012969970703 43.986541748046875 162.01010131835938 38.49961471557617 159.9652862548828 30.97944450378418 C 161.97605895996094 23.480976104736328 167.48907470703125 18.003419876098633 174.99867248535156 15.999403953552246 C 182.49876403808594 18.010297775268555 187.9855194091797 23.50244903564453 189.99302673339844 31.0034122467041" stroke-width="0.0" fill="rgb(250, 251, 251)" opacity="0.9999157"/>
    <path d="M 191.8142547607422 68.08234405517578 C 189.749267578125 77.35393524169922 184.36532592773438 82.83206176757812 176.84495544433594 83.0333023071289 C 169.1064910888672 81.18123626708984 163.1410675048828 76.21354675292969 161.72291564941406 69.75216674804688 C 163.92674255371094 62.4346809387207 169.4530792236328 56.97909927368164 176.95932006835938 54.98331832885742 C 184.26593017578125 55.18684387207031 189.89552307128906 60.676551818847656 191.8142547607422 68.08234405517578" stroke-width="0.0" fill="rgb(50, 51, 50)" opacity="0.99000275"/>
    <path d="M 240.47743225097656 147.4984130859375 C 238.87881469726562 154.56573486328125 233.7158660888672 160.36624145507812 225.0700225830078 162.9678192138672 C 217.54986572265625 160.95436096191406 212.08055114746094 155.4378204345703 210.20005798339844 147.80250549316406 C 213.00961303710938 139.5 218.5 134.00961303710938 225.80223083496094 132.1601104736328 C 232.9524383544922 134.4916229248047 238.30819702148438 140.11105346679688 240.47743225097656 147.4984130859375" stroke-width="0.0" fill="rgb(250, 250, 251)" opacity="0.99059993"/>
    <path d="M 100.99990844726562 200.0002899169922 C 98.9903793334961 207.5 93.5 212.99038696289062 86.0 215.0 C 78.5 212.99038696289062 73.0096206665039 207.5 71.80015563964844 200.82000732421875 C 73.95085144042969 193.45230102539062 79.46452331542969 187.98574829101562 86.96217346191406 185.98741149902344 C 93.3062973022461 187.45486450195312 98.98307037353516 192.5234375 100.99990844726562 200.0002899169922" stroke-width="0.0" fill="rgb(5, 5, 5)" opacity="0.99002284"/>
    <path d="M 125.11259460449219 47.40595626831055 C 123.743408203125 54.409584045410156 118.48930358886719 59.987403869628906 111.89525604248047 61.09466552734375 C 104.46281433105469 59.029178619384766 98.98635864257812 53.531402587890625 96.9900894165039 46.084800720214844 C 98.95987701416016 40.40827178955078 104.34337615966797 34.793766021728516 110.0820541381836 32.981971740722656 C 117.60064697265625 34.9552116394043 123.23565673828125 40.32752227783203 125.11259460449219 47.40595626831055" stroke-width="0.0" fill="rgb(52, 52, 52)" opacity="0.99000317"/>
    <path d="M 213.88137817382812 1.9909031391143799 C 211.97378540039062 9.493986129760742 206.49850463867188 14.989831924438477 198.9999542236328 16.999982833862305 C 191.5 14.990381240844727 186.00961303710938 9.5 184.0 2.0 C 186.00961303710938 -5.5 191.5 -10.990381240844727 198.99998474121094 -12.999995231628418 C 206.49948120117188 -10.99020004272461 211.9825439453125 -5.497350692749023 213.88137817382812 1.9909031391143799" stroke-width="0.0" fill="rgb(255, 255, 255)" opacity="0.9905326"/>
    <path d="M 100.94931030273438 236.0532684326172 C 97.03692626953125 243.55653381347656 91.56034088134766 249.0457305908203 84.16912841796875 251.02716064453125 C 78.39310455322266 249.06690979003906 72.84639739990234 243.6371307373047 70.74836730957031 237.53842163085938 C 72.86974334716797 230.3245086669922 78.28331756591797 224.72048950195312 85.22171020507812 221.57925415039062 C 92.89505004882812 223.81056213378906 98.857421875 228.7936553955078 100.94931030273438 236.0532684326172" stroke-width="0.0" fill="rgb(249, 249, 249)" opacity="0.99000233"/>
    <path d="M 135.1787567138672 174.2264404296875 C 133.908203125 182.59329223632812 128.62777709960938 188.0787811279297 120.95074462890625 190.0744171142578 C 113.30159759521484 188.1810302734375 107.86587524414062 182.68678283691406 105.63710021972656 174.63417053222656 C 107.56521606445312 167.13002014160156 113.15512084960938 161.644775390625 120.8742446899414 159.75631713867188 C 128.96560668945312 161.69839477539062 134.7666778564453 166.8641815185547 135.1787567138672 174.2264404296875" stroke-width="0.0" fill="rgb(228, 228, 228)" opacity="0.9902503"/>
    <path d="M 267.9981994628906 40.9937858581543 C 265.9399108886719 48.37921905517578 260.1921081542969 53.45647430419922 252.61514282226562 55.18832015991211 C 244.61679077148438 54.78083419799805 239.06126403808594 49.422279357910156 237.10604858398438 41.92335891723633 C 240.8310089111328 34.2926139831543 246.3001708984375 28.84938621520996 253.77589416503906 26.238021850585938 C 260.61480712890625 27.73180389404297 265.999755859375 33.47452926635742 267.9981994628906 40.9937858581543" stroke-width="0.0" fill="rgb(191, 190, 190)" opacity="0.9900922"/>
    <path d="M 222.9440460205078 215.78665161132812 C 220.99038696289062 223.5 215.5 228.99038696289062 207.33824157714844 231.6339874267578 C 199.60577392578125 229.86277770996094 194.07171630859375 224.41590881347656 192.13644409179688 216.8885040283203 C 195.193603515625 208.56298828125 200.50643920898438 203.01156616210938 208.4737548828125 200.50877380371094 C 216.19091796875 202.2950897216797 221.5801239013672 207.84271240234375 222.9440460205078 215.78665161132812" stroke-width="0.0" fill="rgb(205, 203, 204)" opacity="1.0"/>
    <path d="M 246.00001525878906 218.00001525878906 C 243.99041748046875 225.50003051757812 238.50003051757812 230.99041748046875 230.999267578125 233.0003204345703 C 223.48277282714844 230.99728393554688 217.88563537597656 225.55252075195312 216.93890380859375 218.87294006347656 C 218.8999481201172 211.31414794921875 224.21495056152344 205.6280975341797 231.27239990234375 203.21241760253906 C 238.5 205.00961303710938 243.99038696289062 210.5 246.00001525878906 218.00001525878906" stroke-width="0.0" fill="rgb(251, 251, 251)" opacity="0.99010164"/>
    <path d="M 114.60783386230469 193.55288696289062 C 112.74250030517578 201.22291564941406 107.21095275878906 206.70802307128906 99.49274444580078 208.5539093017578 C 91.5 205.99038696289062 86.0096206665039 200.5 84.37222290039062 193.37562561035156 C 86.6423110961914 186.099365234375 92.02593994140625 180.30589294433594 98.84722900390625 177.59536743164062 C 106.4734878540039 180.03138732910156 111.95245361328125 185.5313720703125 114.60783386230469 193.55288696289062" stroke-width="0.0" fill="rgb(250, 250, 251)" opacity="0.9942166"/>
    <path d="M 262.8667907714844 217.1765594482422 C 260.9903869628906 224.5 255.5 229.99038696289062 248.00035095214844 231.99974060058594 C 240.50209045410156 229.98895263671875 235.0142822265625 224.4969482421875 233.00367736816406 216.99765014648438 C 235.00961303710938 209.5 240.5 204.00961303710938 247.42408752441406 202.68051147460938 C 254.85475158691406 204.7410888671875 260.5209045410156 210.06019592285156 262.8667907714844 217.1765594482422" stroke-width="0.0" fill="rgb(255, 255, 255)" opacity="0.99045587"/>
    <path d="M 249.01881408691406 113.96365356445312 C 248.10240173339844 120.53606414794922 242.50341796875 125.99140167236328 235.9165802001953 127.06645965576172 C 228.46351623535156 125.02449035644531 222.97755432128906 119.53575897216797 220.94052124023438 112.07642364501953 C 222.00961303710938 105.5 227.5 100.0096206665039 234.21087646484375 98.7640151977539 C 241.554443359375 100.94056701660156 247.0155792236328 106.4610595703125 249.01881408691406 113.96365356445312" stroke-width="0.0" fill="rgb(54, 54, 53)" opacity="0.990009"/>
    <path d="M 85.33866119384766 203.57119750976562 C 83.02976989746094 211.59524536132812 77.76303100585938 217.47442626953125 69.41826629638672 219.89500427246094 C 61.69965744018555 217.81317138671875 56.160709381103516 212.3108673095703 54.096981048583984 204.69773864746094 C 56.24725341796875 195.72540283203125 61.71847915649414 190.22308349609375 70.76992797851562 188.10011291503906 C 78.37577056884766 190.09596252441406 83.75552368164062 195.6703643798828 85.33866119384766 203.57119750976562" stroke-width="0.0" fill="rgb(229, 230, 230)" opacity="1.0"/>
    <path d="M 173.0 221.0 C 170.99038696289062 228.5 165.5 233.99038696289062 158.954833984375 235.02467346191406 C 151.46881103515625 233.01568603515625 145.9829559326172 227.53172302246094 143.9871826171875 220.6382293701172 C 145.97396850585938 214.43946838378906 151.39930725097656 208.82884216308594 158.25836181640625 205.50579833984375 C 165.5 208.00961303710938 170.99038696289062 213.5 173.0 221.0" stroke-width="0.0" fill="rgb(249, 249, 250)" opacity="0.9900069"/>
    <path d="M 147.59579467773438 34.54059600830078 C 146.7655487060547 42.30592346191406 141.3363800048828 47.861305236816406 132.0784149169922 49.9732551574707 C 124.53402709960938 47.960811614990234 119.0362777709961 42.46714401245117 117.02583312988281 34.94942092895508 C 119.8613052368164 26.460575103759766 125.50692749023438 21.014841079711914 132.98858642578125 19.008426666259766 C 140.40145874023438 21.069046020507812 145.69964599609375 26.672998428344727 147.59579467773438 34.54059600830078" stroke-width="0.0" fill="rgb(222, 223, 224)" opacity="1.0"/>
    <path d="M 162.1025848388672 145.16156005859375 C 160.08538818359375 152.6371307373047 154.6576385498047 158.1251220703125 147.12754821777344 160.05941772460938 C 140.94935607910156 158.6896514892578 135.3697967529297 153.04901123046875 133.95553588867188 146.939453125 C 135.984375 139.47283935546875 141.47415161132812 133.98789978027344 148.9503936767578 131.97732543945312 C 155.29635620117188 133.44900512695312 161.0109100341797 138.532470703125 162.1025848388672 145.16156005859375" stroke-width="0.0" fill="rgb(242, 243, 244)" opacity="0.99000275"/>
    <path d="M 247.1659698486328 179.75930786132812 C 245.99038696289062 186.5 240.5 191.99038696289062 232.3136444091797 194.6520233154297 C 224.5957489013672 192.87554931640625 219.0721893310547 187.4207305908203 217.08468627929688 179.79824829101562 C 219.1133575439453 170.5887451171875 224.57684326171875 165.0745849609375 232.16021728515625 163.13377380371094 C 239.7788543701172 166.62142944335938 245.1298370361328 172.29771423339844 247.1659698486328 179.75930786132812" stroke-width="0.0" fill="rgb(247, 247, 248)" opacity="0.990036"/>
    <path d="M 66.97522735595703 44.040767669677734 C 64.9903793334961 51.5 59.5 56.990379333496094 51.28633499145508 59.790706634521484 C 43.71635055541992 57.829078674316406 38.356807708740234 52.22486877441406 36.04153823852539 43.093727111816406 C 38.09398651123047 36.10699462890625 45.36637496948242 31.94146728515625 52.90503692626953 29.954265594482422 C 59.216651916503906 31.316068649291992 64.82457733154297 36.73942947387695 66.97522735595703 44.040767669677734" stroke-width="0.0" fill="rgb(117, 117, 117)" opacity="0.9900538"/>
    <path d="M 185.89398193359375 14.10742473602295 C 183.99085998535156 21.50043296813965 178.50035095214844 26.99057388305664 171.0236358642578 28.96587371826172 C 163.5373077392578 26.93920135498047 158.03018188476562 21.471906661987305 156.0038604736328 13.994750022888184 C 158.00961303710938 6.5 163.5 1.0096189975738525 171.5104522705078 -1.7026902437210083 C 178.72171020507812 0.47216087579727173 183.76022338867188 6.619740962982178 185.89398193359375 14.10742473602295" stroke-width="0.0" fill="rgb(251, 251, 251)" opacity="0.9910688"/>
    <path d="M 207.0 177.0 C 204.99038696289062 184.5 199.5 189.99038696289062 191.79299926757812 192.16761779785156 C 183.95130920410156 190.4822998046875 178.38409423828125 185.08871459960938 176.6567840576172 177.36526489257812 C 179.00961303710938 169.50001525878906 184.5000457763672 164.00973510742188 192.00010681152344 162.0006561279297 C 199.5 164.00962829589844 204.99038696289062 169.5 207.0 177.0" stroke-width="0.0" fill="rgb(250, 250, 251)" opacity="1.0"/>
    <path d="M 179.93060302734375 128.64578247070312 C 177.37744140625 135.6437530517578 171.40614318847656 140.7318572998047 164.40170288085938 142.1643829345703 C 157.04209899902344 140.3802490234375 151.87673950195312 134.78195190429688 149.99061584472656 128.90953063964844 C 151.9783477783203 121.44438171386719 157.40689086914062 115.8649673461914 163.0529022216797 113.93465423583984 C 170.5390167236328 115.982666015625 176.05291748046875 121.4487075805664 179.93060302734375 128.64578247070312" stroke-width="0.0" fill="rgb(251, 251, 251)" opacity="0.99000263"/>
    <path d="M 253.00003051757812 191.99989318847656 C 250.99038696289062 199.5 245.5 204.99038696289062 238.0 207.0 C 230.5 204.99038696289062 225.00961303710938 199.5 223.97438049316406 192.94720458984375 C 225.97499084472656 185.45655822753906 231.45416259765625 179.9678497314453 238.88116455078125 176.08641052246094 C 245.61331176757812 178.7065887451172 250.99356079101562 184.48941040039062 253.00003051757812 191.99989318847656" stroke-width="0.0" fill="rgb(11, 11, 12)" opacity="0.9900105"/>
    <path d="M 221.94183349609375 196.09176635742188 C 218.26412963867188 203.70651245117188 212.63864135742188 209.0749969482422 205.12197875976562 211.06419372558594 C 198.5 209.99038696289062 193.00961303710938 204.5 191.0 197.0 C 193.00961303710938 189.5 198.5 184.00961303710938 206.48687744140625 181.6060333251953 C 214.36257934570312 183.2046661376953 219.93106079101562 188.59327697753906 221.94183349609375 196.09176635742188" stroke-width="0.0" fill="rgb(250, 250, 251)" opacity="0.9900183"/>
    <path d="M 220.96165466308594 183.90672302246094 C 218.91595458984375 191.358642578125 213.24658203125 196.59994506835938 205.217529296875 198.12942504882812 C 197.50071716308594 195.99012756347656 192.0191192626953 190.4967041015625 190.09117126464844 182.99607849121094 C 192.01405334472656 175.5013885498047 197.5001983642578 170.00967407226562 204.99319458007812 168.0137481689453 C 212.65086364746094 169.9687042236328 218.48074340820312 175.19151306152344 220.96165466308594 183.90672302246094" stroke-width="0.0" fill="rgb(250, 251, 251)" opacity="1.0"/>
    <path d="M 190.0001983642578 159.0003204345703 C 187.99118041992188 166.5005645751953 182.50039672851562 171.99066162109375 174.99725341796875 174.00123596191406 C 167.4462127685547 172.0133819580078 161.67324829101562 166.66111755371094 160.6400146484375 159.78848266601562 C 162.7716064453125 152.0648956298828 167.78456115722656 146.08248901367188 175.0133819580078 144.0773468017578 C 182.50010681152344 146.00950622558594 187.99049377441406 151.49989318847656 190.0001983642578 159.0003204345703" stroke-width="0.0" fill="rgb(250, 251, 251)" opacity="1.0"/>
    <path d="M 64.0 89.0 C 61.990379333496094 96.5 56.5 101.9903793334961 48.709171295166016 104.28758239746094 C 40.92884063720703 102.54886627197266 35.336246490478516 97.10880279541016 33.07646942138672 88.30582427978516 C 35.1414680480957 80.67786407470703 40.726924896240234 75.29625701904297 48.613616943359375 73.6817626953125 C 56.5 76.0096206665039 61.990379333496094 81.5 64.0 89.0" stroke-width="0.0" fill="rgb(255, 255, 255)" opacity="0.99055743"/>
    <path d="M 70.19799041748047 135.7452850341797 C 68.08441162109375 143.7781524658203 63.165889739990234 149.84556579589844 54.041996002197266 151.98959350585938 C 46.53078079223633 149.9708709716797 41.06951904296875 144.45542907714844 39.24750900268555 136.80221557617188 C 42.16620635986328 128.772705078125 47.94804382324219 123.63970184326172 55.70186233520508 121.47924041748047 C 63.15304946899414 122.35005950927734 68.55591583251953 127.87410736083984 70.19799041748047 135.7452850341797" stroke-width="0.0" fill="rgb(250, 250, 251)" opacity="1.0"/>
    <path d="M 148.76803588867188 19.559602737426758 C 146.02406311035156 26.49770736694336 140.49758911132812 32.00977325439453 133.009521484375 34.00983810424805 C 125.5 31.990381240844727 120.0096206665039 26.5 118.05978393554688 19.092327117919922 C 120.3373794555664 11.947869300842285 126.09379577636719 6.7421875 133.45687866210938 4.893897533416748 C 139.91119384765625 6.692866325378418 145.3560028076172 12.068404197692871 148.76803588867188 19.559602737426758" stroke-width="0.0" fill="rgb(255, 255, 255)" opacity="0.99029523"/>
    <path d="M 70.75965881347656 81.02195739746094 C 67.03618621826172 88.5754165649414 61.61244201660156 94.13995361328125 54.40872573852539 96.47183990478516 C 47.50352478027344 94.98600006103516 41.944541931152344 89.51631164550781 39.51993179321289 81.91609191894531 C 41.495052337646484 73.8662109375 46.68385314941406 68.09515380859375 55.95986557006836 66.0097427368164 C 63.4803466796875 68.025634765625 68.97367095947266 73.5199203491211 70.75965881347656 81.02195739746094" stroke-width="0.0" fill="rgb(246, 245, 246)" opacity="0.9900117"/>
    <path d="M 219.99920654296875 248.9994354248047 C 217.98916625976562 256.4991455078125 212.49935913085938 261.98992919921875 204.98727416992188 264.0062255859375 C 197.3638153076172 262.0632019042969 191.59613037109375 256.7525939941406 189.5281982421875 249.64552307128906 C 192.44776916503906 241.7366485595703 197.59207153320312 236.04861450195312 205.0044708251953 234.00180053710938 C 212.5 236.00961303710938 217.99038696289062 241.5 219.99920654296875 248.9994354248047" stroke-width="0.0" fill="rgb(253, 255, 255)" opacity="0.99101365"/>
    <path d="M 247.0 202.0 C 244.99038696289062 209.5 239.5 214.99038696289062 231.33837890625 217.5941162109375 C 223.5785675048828 215.879638671875 218.0412139892578 210.44822692871094 216.01588439941406 202.95225524902344 C 219.89691162109375 195.36805725097656 225.33114624023438 189.73348999023438 232.18841552734375 187.30665588378906 C 239.4974822998047 189.0186767578125 244.99037170410156 194.5000762939453 247.0 202.0" stroke-width="0.0" fill="rgb(41, 40, 41)" opacity="0.9901514"/>
    <path d="M 236.12538146972656 47.10171127319336 C 235.78289794921875 56.18246078491211 230.06712341308594 61.472869873046875 222.20266723632812 63.191165924072266 C 214.48748779296875 60.99431228637695 208.89559936523438 55.545467376708984 206.15223693847656 47.1644172668457 C 208.07350158691406 39.57774353027344 213.59063720703125 34.11450958251953 221.45697021484375 32.110294342041016 C 230.36048889160156 34.15916442871094 235.90478515625 39.61671829223633 236.12538146972656 47.10171127319336" stroke-width="0.0" fill="rgb(250, 250, 250)" opacity="1.0"/>
    <path d="M 202.02340698242188 42.963836669921875 C 200.08738708496094 48.609405517578125 194.7488250732422 55.88046646118164 188.97201538085938 56.04171371459961 C 181.4614715576172 54.02488327026367 175.99069213867188 48.53029251098633 173.99407958984375 41.33322525024414 C 175.99435424804688 35.48120880126953 181.48092651367188 29.99364471435547 188.93214416503906 27.992210388183594 C 194.559326171875 29.965221405029297 200.0190887451172 35.45127487182617 202.02340698242188 42.963836669921875" stroke-width="0.0" fill="rgb(5, 6, 5)" opacity="0.9900008"/>
    <path d="M 142.1399688720703 155.6149444580078 C 140.3245391845703 162.95623779296875 135.1219024658203 169.00267028808594 128.7169952392578 170.18472290039062 C 121.23064422607422 168.20216369628906 115.60531616210938 162.8269500732422 112.30430603027344 155.53187561035156 C 114.51348114013672 148.15435791015625 120.27296447753906 142.86074829101562 127.5350341796875 141.3691864013672 C 134.8332061767578 143.72222900390625 140.32818603515625 149.147216796875 142.1399688720703 155.6149444580078" stroke-width="0.0" fill="rgb(247, 246, 247)" opacity="0.9900316"/>
    <path d="M 104.00858306884766 200.0042266845703 C 101.99385833740234 207.50135803222656 96.50041961669922 212.9905548095703 89.00001525878906 215.0 C 81.5 212.99038696289062 76.0096206665039 207.5 73.10840606689453 199.11424255371094 C 75.04961395263672 191.5355224609375 80.52867126464844 186.0303955078125 88.03781127929688 184.02139282226562 C 96.53412628173828 186.9320831298828 101.99490356445312 192.48741149902344 104.00858306884766 200.0042266845703" stroke-width="0.0" fill="rgb(250, 249, 249)" opacity="1.0"/>
    <path d="M 230.0 69.0 C 227.99038696289062 76.5 222.5 81.9903793334961 215.000244140625 83.99992370605469 C 207.52085876464844 81.98393249511719 202.42041015625 76.3270034790039 199.0536651611328 68.0879898071289 C 202.87783813476562 62.44723129272461 208.4669952392578 56.98826217651367 215.9644317626953 54.98076629638672 C 222.5 56.009620666503906 227.99038696289062 61.5 230.0 69.0" stroke-width="0.0" fill="rgb(3, 2, 2)" opacity="0.9900218"/>
    <path d="M 87.68798828125 144.15322875976562 C 85.18116760253906 151.87367248535156 80.02398681640625 157.6507110595703 72.67881774902344 159.60377502441406 C 65.34439849853516 156.1976318359375 59.925472259521484 150.61724853515625 57.88240432739258 143.1634521484375 C 59.00833511352539 136.49688720703125 64.48709869384766 130.97386169433594 72.06436157226562 128.60037231445312 C 79.1725845336914 131.11041259765625 84.34052276611328 137.0006866455078 87.68798828125 144.15322875976562" stroke-width="0.0" fill="rgb(250, 250, 250)" opacity="0.9900085"/>
    <path d="M 187.0258026123047 169.9541778564453 C 186.7688751220703 177.17945861816406 179.79638671875 181.067626953125 172.04806518554688 183.0235137939453 C 164.5609130859375 182.926025390625 159.04281616210938 177.45155334472656 158.92446899414062 169.9723358154297 C 160.9644317626953 162.4117431640625 166.37603759765625 156.9223175048828 172.07798767089844 154.9910888671875 C 179.5288543701172 156.98687744140625 185.01597595214844 162.46990966796875 187.0258026123047 169.9541778564453" stroke-width="0.0" fill="rgb(46, 45, 46)" opacity="0.9900012"/>
    <path d="M 97.0423583984375 209.94500732421875 C 95.896728515625 216.26837158203125 89.88502502441406 221.16268920898438 83.6444091796875 223.01437377929688 C 76.4656982421875 221.0358428955078 70.99076843261719 215.52610778808594 68.98885345458984 208.2084503173828 C 70.99027252197266 202.47903442382812 76.48129272460938 196.99562072753906 83.97640228271484 194.98977661132812 C 89.54104614257812 196.93191528320312 95.01422119140625 202.46961975097656 97.0423583984375 209.94500732421875" stroke-width="0.0" fill="rgb(4, 4, 4)" opacity="0.9900011"/>
    <path d="M 262.00799560546875 188.021728515625 C 259.9903869628906 195.5 254.5 200.99038696289062 247.0 203.0 C 239.5 200.99038696289062 234.00961303710938 195.5 232.69906616210938 188.11402893066406 C 234.50938415527344 181.36724853515625 240.4130859375 175.945068359375 247.89675903320312 173.9634552001953 C 254.06167602539062 175.59413146972656 259.82373046875 180.79855346679688 262.00799560546875 188.021728515625" stroke-width="0.0" fill="rgb(250, 250, 251)" opacity="0.9900568"/>
    <path d="M 126.51766967773438 125.73188018798828 C 124.9903793334961 133.5 119.5 138.99038696289062 111.91800689697266 140.80770874023438 C 103.702392578125 139.61187744140625 98.0722427368164 134.38682556152344 96.03936767578125 126.79096221923828 C 98.08783721923828 117.60997009277344 103.65311431884766 112.2581558227539 111.07991027832031 111.9735107421875 C 118.7239761352539 113.9269027709961 125.65035247802734 118.24533081054688 126.51766967773438 125.73188018798828" stroke-width="0.0" fill="rgb(215, 215, 215)" opacity="0.9900213"/>
    <path d="M 126.81266784667969 10.776910781860352 C 124.9268798828125 18.428226470947266 119.6822280883789 24.501720428466797 112.6512680053711 26.847171783447266 C 104.5 23.990381240844727 99.0096206665039 18.5 97.3492660522461 10.963069915771484 C 98.56696319580078 3.0403690338134766 104.05145263671875 -2.398029327392578 112.39591217041016 -4.500205993652344 C 120.1905517578125 -2.6956534385681152 125.60336303710938 2.8338961601257324 126.81266784667969 10.776910781860352" stroke-width="0.0" fill="rgb(255, 255, 255)" opacity="0.99021596"/>
    <path d="M 153.49513244628906 201.51036071777344 C 151.17138671875 208.6223907470703 145.5897979736328 214.05555725097656 138.1632537841797 216.1663055419922 C 131.95411682128906 214.40066528320312 126.67591094970703 209.008056640625 124.79607391357422 201.37078857421875 C 126.00692749023438 194.4918212890625 131.45831298828125 188.8942108154297 139.6400909423828 186.17930603027344 C 146.85707092285156 188.34268188476562 151.7725372314453 194.58157348632812 153.49513244628906 201.51036071777344" stroke-width="0.0" fill="rgb(251, 250, 251)" opacity="0.99001974"/>
    <path d="M 213.95867919921875 202.94117736816406 C 211.95956420898438 210.4593963623047 206.4521484375 215.9396514892578 197.3457794189453 217.95436096191406 C 189.58084106445312 215.9346160888672 184.1619873046875 210.3888702392578 182.51187133789062 202.5734405517578 C 185.00961303710938 194.5 190.5 189.00961303710938 197.72244262695312 187.4295196533203 C 205.66366577148438 189.30563354492188 211.4276123046875 194.1398162841797 213.95867919921875 202.94117736816406" stroke-width="0.0" fill="rgb(159, 158, 159)" opacity="1.0"/>
    <path d="M 229.37355041503906 106.36198425292969 C 227.1558074951172 112.6052474975586 221.55975341796875 118.02249908447266 215.86666870117188 120.0064697265625 C 208.46664428710938 118.0096664428711 201.1983184814453 112.57202911376953 199.07742309570312 106.93787384033203 C 202.9129180908203 99.38499450683594 208.39703369140625 93.93827056884766 214.0498809814453 91.99187469482422 C 221.54238891601562 93.98599243164062 227.1051788330078 99.42772674560547 229.37355041503906 106.36198425292969" stroke-width="0.0" fill="rgb(3, 3, 3)" opacity="0.9900018"/>
    <path d="M 145.16465759277344 23.116260528564453 C 143.12342834472656 30.301956176757812 136.93772888183594 35.21292495727539 130.63934326171875 37.039852142333984 C 123.34132385253906 35.10122299194336 117.90218353271484 29.658334732055664 115.94757080078125 22.119739532470703 C 117.0099105834961 15.500154495239258 122.50006103515625 10.009580612182617 130.00027465820312 7.999086380004883 C 137.5005340576172 10.008960723876953 142.9910430908203 15.499469757080078 145.16465759277344 23.116260528564453" stroke-width="0.0" fill="rgb(250, 251, 251)" opacity="0.9900503"/>
    <path d="M 139.28793334960938 190.73106384277344 C 136.9456787109375 198.42587280273438 131.26710510253906 203.52813720703125 123.95559692382812 205.112060546875 C 117.42217254638672 203.07583618164062 111.93962860107422 197.57354736328125 109.84410858154297 190.18963623046875 C 111.63561248779297 184.20327758789062 117.27210235595703 178.84617614746094 124.58200073242188 176.87879943847656 C 131.53350830078125 178.52728271484375 137.45982360839844 183.12460327148438 139.28793334960938 190.73106384277344" stroke-width="0.0" fill="rgb(251, 251, 252)" opacity="0.9900185"/>
    <path d="M 225.70936584472656 18.79854965209961 C 223.88430786132812 26.358304977416992 218.2662353515625 30.473831176757812 209.02806091308594 33.969852447509766 C 201.5330352783203 31.96959686279297 196.07713317871094 26.451396942138672 194.3743438720703 18.767181396484375 C 197.41555786132812 11.098733901977539 203.29617309570312 5.9115142822265625 209.2570037841797 3.9861252307891846 C 216.68479919433594 5.94158935546875 223.84664916992188 9.91905403137207 225.70936584472656 18.79854965209961" stroke-width="0.0" fill="rgb(83, 83, 82)" opacity="0.9900051"/>
    <path d="M 181.9725341796875 225.9322967529297 C 179.83506774902344 231.57424926757812 172.53384399414062 237.01002502441406 165.02182006835938 239.01321411132812 C 157.5282440185547 238.96524047851562 152.03343200683594 233.47216796875 151.8911590576172 225.97019958496094 C 153.97459411621094 218.44622802734375 159.41757202148438 212.85968017578125 165.9069061279297 209.36065673828125 C 172.98828125 212.49656677246094 178.4268798828125 218.03517150878906 181.9725341796875 225.9322967529297" stroke-width="0.0" fill="rgb(3, 2, 2)" opacity="0.99000186"/>
    <path d="M 31.460952758789062 52.444984436035156 C 28.844297409057617 60.23350524902344 23.03733253479004 65.33386993408203 15.479783058166504 67.3139419555664 C 8.8554048538208 65.53297424316406 2.352508068084717 60.696739196777344 0.07225877046585083 53.35277557373047 C 2.28218150138855 44.71468734741211 7.642209053039551 39.096435546875 15.189778327941895 38.94266891479492 C 24.39663314819336 39.09649658203125 29.82268524169922 44.6259765625 31.460952758789062 52.444984436035156" stroke-width="0.0" fill="rgb(229, 228, 230)" opacity="1.0"/>
    <path d="M 80.95732116699219 17.13790512084961 C 78.94779205322266 26.450408935546875 73.44638061523438 31.936222076416016 64.04991912841797 33.9848518371582 C 56.56423568725586 31.959623336791992 52.87838363647461 26.277490615844727 50.948917388916016 17.168224334716797 C 52.60014343261719 9.701407432556152 56.63069152832031 4.129264831542969 64.11214447021484 3.973318338394165 C 73.2210922241211 5.8820905685424805 78.94717407226562 9.582831382751465 80.95732116699219 17.13790512084961" stroke-width="0.0" fill="rgb(102, 101, 102)" opacity="0.9900034"/>
    <path d="M 70.47755432128906 45.14604568481445 C 68.22501373291016 52.76548767089844 62.7626953125 58.217308044433594 56.61936950683594 60.1426887512207 C 49.40354919433594 58.085655212402344 43.91472625732422 52.59632873535156 41.98306655883789 46.947265625 C 43.96295166015625 39.35506057739258 47.7275276184082 32.08917999267578 55.06451416015625 30.1448974609375 C 62.764225006103516 33.9064826965332 69.84306335449219 37.91941452026367 70.47755432128906 45.14604568481445" stroke-width="0.0" fill="rgb(251, 251, 251)" opacity="0.99000293"/>
    <path d="M 114.03994750976562 23.97484588623047 C 113.92162322998047 31.29018211364746 107.11237335205078 35.33845901489258 100.9593734741211 37.02044677734375 C 93.44062042236328 35.02143096923828 86.08334350585938 29.745372772216797 84.02059936523438 23.429994583129883 C 86.07640075683594 15.116751670837402 93.42012023925781 10.974764823913574 99.16371154785156 8.991795539855957 C 106.52730560302734 10.987869262695312 112.01338195800781 16.472156524658203 114.03994750976562 23.97484588623047" stroke-width="0.0" fill="rgb(53, 52, 52)" opacity="0.9900023"/>
    <path d="M 178.9840850830078 74.9444808959961 C 176.95960998535156 82.45255279541016 171.43687438964844 87.92093658447266 163.92636108398438 88.06410217285156 C 156.15110778808594 86.17948913574219 149.31590270996094 81.51448822021484 148.9635467529297 73.73035430908203 C 150.92816162109375 67.3960189819336 156.3753204345703 61.86552429199219 163.92349243164062 58.04764175415039 C 171.390625 60.06562042236328 176.43475341796875 65.73281860351562 178.9840850830078 74.9444808959961" stroke-width="0.0" fill="rgb(248, 249, 249)" opacity="0.9900049"/>
    <path d="M 236.9403533935547 66.86132049560547 C 234.8314666748047 73.09407043457031 227.6612091064453 78.08055877685547 220.15916442871094 80.10867309570312 C 213.5 78.9903793334961 208.00961303710938 73.5 205.0952911376953 65.09857177734375 C 207.04530334472656 57.53557586669922 212.5347900390625 52.04278564453125 220.09193420410156 50.076480865478516 C 228.93896484375 52.495967864990234 234.20150756835938 58.14421081542969 236.9403533935547 66.86132049560547" stroke-width="0.0" fill="rgb(245, 245, 246)" opacity="0.9900676"/>
    <path d="M 99.01788330078125 70.58960723876953 C 97.47107696533203 77.40568542480469 92.67738342285156 83.11708068847656 85.02926635742188 85.02102661132812 C 77.46369934082031 83.00770568847656 71.85466003417969 77.57862854003906 69.20417022705078 69.74598693847656 C 72.71958923339844 63.25987243652344 78.29773712158203 57.84797286987305 84.66612243652344 55.91087341308594 C 91.60203552246094 57.921077728271484 97.07518768310547 63.398712158203125 99.01788330078125 70.58960723876953" stroke-width="0.0" fill="rgb(251, 251, 251)" opacity="1.0"/>
    <path d="M 179.0 10.0 C 176.99038696289062 17.5 171.5 22.990381240844727 164.0851593017578 24.81675910949707 C 156.37484741210938 22.95718002319336 150.80587768554688 17.68656349182129 148.5262451171875 9.751483917236328 C 150.69503784179688 2.173206090927124 156.1864013671875 -3.267988920211792 163.8999481201172 -5.087759494781494 C 171.5 -2.9903810024261475 176.99038696289062 2.5 179.0 10.0" stroke-width="0.0" fill="rgb(255, 255, 255)" opacity="0.99036914"/>
    <path d="M 134.09487915039062 62.84379196166992 C 132.42771911621094 69.0182113647461 127.08686828613281 74.66829681396484 119.2540512084961 77.9168472290039 C 111.6046142578125 75.89328002929688 106.12167358398438 70.39081573486328 105.94740295410156 62.933250427246094 C 107.9609146118164 55.413818359375 113.19752502441406 48.11111831665039 119.030517578125 47.972816467285156 C 126.54601287841797 49.978275299072266 132.05419921875 55.44169616699219 134.09487915039062 62.84379196166992" stroke-width="0.0" fill="rgb(251, 251, 251)" opacity="0.9900048"/>
    <path d="M 259.1318664550781 126.12007904052734 C 257.0343322753906 133.5375213623047 251.5293731689453 139.0111541748047 244.3726043701172 141.0078887939453 C 238.46429443359375 139.015380859375 232.9763641357422 133.53990173339844 230.98483276367188 126.06832885742188 C 232.80775451660156 120.14193725585938 237.88238525390625 113.86775207519531 245.91595458984375 111.05022430419922 C 253.44093322753906 113.04961395263672 258.84271240234375 118.58705139160156 259.1318664550781 126.12007904052734" stroke-width="0.0" fill="rgb(39, 38, 38)" opacity="0.99000156"/>
    <path d="M 229.017578125 71.11105346679688 C 227.22679138183594 78.88019561767578 222.5162353515625 83.15774536132812 215.84161376953125 85.02461242675781 C 208.4747314453125 83.01358795166016 202.97540283203125 77.52813720703125 200.94554138183594 70.34165954589844 C 202.80885314941406 64.35706329345703 208.42750549316406 58.974735260009766 215.86167907714844 56.9926643371582 C 221.55731201171875 58.95854187011719 227.0238800048828 64.45187377929688 229.017578125 71.11105346679688" stroke-width="0.0" fill="rgb(2, 2, 2)" opacity="0.9900013"/>
    <path d="M 70.40333557128906 99.32049560546875 C 68.25984191894531 106.4689712524414 62.062923431396484 111.30282592773438 54.36237335205078 113.42273712158203 C 47.81203079223633 111.57536315917969 42.19293975830078 106.25767517089844 39.97913360595703 98.9642333984375 C 42.0009880065918 91.48823547363281 47.483734130859375 85.98564910888672 54.48408889770508 84.46891021728516 C 61.70263671875 86.78836822509766 67.18827056884766 92.30451965332031 70.40333557128906 99.32049560546875" stroke-width="0.0" fill="rgb(250, 250, 250)" opacity="0.99017644"/>
    <path d="M 133.98194885253906 134.1236114501953 C 131.91539001464844 143.3636016845703 126.24919891357422 148.22596740722656 118.95532989501953 149.01007080078125 C 111.46853637695312 147.01551818847656 105.99053192138672 141.5281219482422 103.98778533935547 134.02395629882812 C 104.0637435913086 126.54995727539062 109.53877258300781 121.03582763671875 117.15705871582031 119.01316833496094 C 126.45506286621094 121.04574584960938 131.9610595703125 126.54126739501953 133.98194885253906 134.1236114501953" stroke-width="0.0" fill="rgb(4, 4, 4)" opacity="0.9900012"/>
    <path d="M 164.7176971435547 249.40040588378906 C 162.99038696289062 256.5 157.5 261.9903869628906 150.0 264.0 C 142.5 261.9903869628906 137.00961303710938 256.5 135.0537567138672 249.10655212402344 C 137.46121215820312 242.1422576904297 143.3225860595703 236.92506408691406 149.21104431152344 234.98672485351562 C 156.5851287841797 236.96218872070312 162.21829223632812 242.3550567626953 164.7176971435547 249.40040588378906" stroke-width="0.0" fill="rgb(251, 251, 251)" opacity="0.99002665"/>
    <path d="M 216.4464569091797 173.50074768066406 C 214.12979125976562 180.55059814453125 208.50927734375 185.9929656982422 200.9873809814453 188.00827026367188 C 193.4470672607422 186.03366088867188 187.86244201660156 180.5836639404297 185.02951049804688 172.07705688476562 C 187.0766143798828 164.63937377929688 192.78265380859375 159.46823120117188 201.48947143554688 157.2339324951172 C 208.08731079101562 159.69015502929688 213.29208374023438 166.1016845703125 216.4464569091797 173.50074768066406" stroke-width="0.0" fill="rgb(255, 255, 255)" opacity="0.9945839"/>
    <path d="M 227.00131225585938 233.9981231689453 C 224.99038696289062 241.5 219.5 246.99038696289062 212.0 249.0 C 204.5 246.99038696289062 199.00961303710938 241.5 197.68484497070312 234.68873596191406 C 199.88638305664062 227.39077758789062 205.41171264648438 221.94546508789062 212.86111450195312 219.9595184326172 C 219.28404235839844 221.48182678222656 224.98683166503906 226.53016662597656 227.00131225585938 233.9981231689453" stroke-width="0.0" fill="rgb(251, 251, 251)" opacity="0.99005455"/>
    <path d="M 44.050506591796875 54.31538391113281 C 42.4682731628418 61.27165222167969 37.509098052978516 67.01785278320312 29.7303524017334 69.46138763427734 C 22.460031509399414 67.27908325195312 17.510684967041016 61.232906341552734 15.827518463134766 54.26608657836914 C 16.743093490600586 45.71721649169922 21.59739112854004 40.05736541748047 29.087032318115234 38.01491165161133 C 36.572349548339844 41.89548110961914 42.054237365722656 47.43635559082031 44.050506591796875 54.31538391113281" stroke-width="0.0" fill="rgb(248, 247, 248)" opacity="0.99001926"/>
    <path d="M 207.9808349609375 10.753613471984863 C 205.95391845703125 18.453813552856445 200.4495391845703 23.942785263061523 192.89044189453125 25.918001174926758 C 184.50076293945312 22.987537384033203 179.00955200195312 17.50002670288086 176.9198455810547 9.937917709350586 C 178.875732421875 2.396881580352783 184.4192657470703 -3.0506956577301025 192.12583923339844 -5.0836710929870605 C 200.18374633789062 -3.4986038208007812 205.91004943847656 1.6629796028137207 207.9808349609375 10.753613471984863" stroke-width="0.0" fill="rgb(255, 255, 255)" opacity="1.0"/>
    <path d="M 98.00885772705078 80.8533935546875 C 96.03166198730469 86.58029174804688 90.58544158935547 92.03680419921875 83.01946258544922 95.95659637451172 C 75.52267456054688 93.97323608398438 70.03829956054688 88.4732437133789 69.97974395751953 80.95236206054688 C 71.97529602050781 73.4595947265625 77.46185302734375 67.98065185546875 84.89479064941406 65.98224639892578 C 90.5244369506836 67.9857177734375 96.0091323852539 73.47733306884766 98.00885772705078 80.8533935546875" stroke-width="0.0" fill="rgb(7, 7, 7)" opacity="0.99000084"/>
    <path d="M 236.27874755859375 142.62745666503906 C 234.99038696289062 149.5 229.5 154.99038696289062 222.28167724609375 156.76046752929688 C 215.1463623046875 154.4001922607422 209.78863525390625 148.79110717773438 207.81349182128906 141.2753143310547 C 208.5052490234375 134.12936401367188 214.82127380371094 129.7360382080078 222.81683349609375 126.80583953857422 C 228.98915100097656 128.76507568359375 234.21888732910156 135.1793212890625 236.27874755859375 142.62745666503906" stroke-width="0.0" fill="rgb(250, 250, 251)" opacity="0.9904284"/>
    <path d="M 113.03181457519531 218.96115112304688 C 111.07202911376953 225.62896728515625 105.904541015625 232.8687744140625 99.92202758789062 234.97061157226562 C 90.93086242675781 232.31829833984375 85.09649658203125 227.3057098388672 83.00899505615234 218.0347137451172 C 85.02368927001953 210.51768493652344 90.51874542236328 205.0263671875 98.03884887695312 203.02659606933594 C 105.81326293945312 206.39988708496094 111.09098052978516 212.32164001464844 113.03181457519531 218.96115112304688" stroke-width="0.0" fill="rgb(250, 251, 251)" opacity="0.9900558"/>
    <path d="M 260.7833557128906 191.23391723632812 C 258.248779296875 197.64910888671875 252.5896759033203 203.04310607910156 245.08795166015625 205.05174255371094 C 238.50489807128906 203.98863220214844 233.06610107421875 198.4793701171875 230.0802001953125 190.13084411621094 C 232.0795135498047 182.56954956054688 237.5515899658203 177.0413818359375 245.02207946777344 175.15850830078125 C 252.5658721923828 178.97341918945312 258.1851806640625 184.38436889648438 260.7833557128906 191.23391723632812" stroke-width="0.0" fill="rgb(50, 50, 50)" opacity="0.99000376"/>
    <path d="M 250.0076141357422 207.03823852539062 C 248.00546264648438 214.5186309814453 242.5185546875 220.0053253173828 235.09291076660156 222.00631713867188 C 229.4716796875 220.010009765625 223.9508056640625 214.539306640625 220.253173828125 208.1627197265625 C 223.77053833007812 201.25547790527344 229.2965087890625 195.8672332763672 236.73287963867188 193.94796752929688 C 242.66273498535156 195.83709716796875 248.05026245117188 201.39198303222656 250.0076141357422 207.03823852539062" stroke-width="0.0" fill="rgb(7, 7, 7)" opacity="0.9900017"/>
    <path d="M 209.71640014648438 198.4440155029297 C 206.2426300048828 205.699951171875 200.65573120117188 211.1028594970703 193.22190856933594 213.05747985839844 C 186.75404357910156 211.48052978515625 180.7631072998047 206.53285217285156 178.92996215820312 199.43186950683594 C 180.78663635253906 190.8802490234375 185.6993865966797 185.1136016845703 193.0946502685547 183.05897521972656 C 201.23265075683594 186.62493896484375 207.58226013183594 191.15391540527344 209.71640014648438 198.4440155029297" stroke-width="0.0" fill="rgb(187, 187, 188)" opacity="0.9900466"/>
    <path d="M 180.01248168945312 198.228515625 C 178.05592346191406 205.63661193847656 172.778076171875 211.46836853027344 165.210205078125 214.92689514160156 C 159.3992919921875 212.48052978515625 153.98326110839844 205.54759216308594 151.99026489257812 198.0363311767578 C 152.074462890625 190.55349731445312 157.54649353027344 185.05030822753906 165.11953735351562 184.980224609375 C 172.64413452148438 186.796142578125 178.0406494140625 192.41261291503906 180.01248168945312 198.228515625" stroke-width="0.0" fill="rgb(11, 10, 10)" opacity="0.9900013"/>
    <path d="M 245.98001098632812 106.57686614990234 C 243.30313110351562 112.62532043457031 236.58786010742188 118.07154846191406 229.04083251953125 121.97993469238281 C 221.54031372070312 119.96417236328125 217.86434936523438 114.41924285888672 215.979736328125 105.02635192871094 C 216.0288543701172 97.52542114257812 221.53103637695312 92.04548645019531 229.09371948242188 90.09121704101562 C 236.99807739257812 93.61756134033203 243.79702758789062 98.1281509399414 245.98001098632812 106.57686614990234" stroke-width="0.0" fill="rgb(248, 247, 248)" opacity="0.9900021"/>
  </g>
</svg>
