<?xml version="1.0" ?>
<svg xmlns="http://www.w3.org/2000/svg" version="1.1" width="256" height="256">
  <defs/>
  <g>
    <path d="M 155.97557067871094 236.0626220703125 C 153.49212646484375 245.07215881347656 148.10333251953125 250.6097869873047 140.35830688476562 252.35987854003906 C 132.5 249.99038696289062 127.0096206665039 244.5 125.0 237.0 C 127.0096206665039 229.5 132.5 224.00961303710938 140.2678985595703 221.77078247070312 C 148.2421417236328 223.38502502441406 153.92803955078125 228.63043212890625 155.97557067871094 236.0626220703125" stroke-width="0.0" fill="rgb(224, 224, 227)" opacity="1.0"/>
    <path d="M 28.95742416381836 89.07819366455078 C 25.874744415283203 97.22869110107422 19.863462448120117 102.15394592285156 12.05311393737793 104.0748062133789 C 4.621772289276123 103.91605377197266 -0.8572669625282288 98.34789276123047 -2.9529471397399902 89.1198959350586 C -0.9426132440567017 81.58160400390625 4.637981414794922 76.2310562133789 13.888389587402344 74.0184326171875 C 21.4266300201416 76.06777954101562 26.94272232055664 81.56730651855469 28.95742416381836 89.07819366455078" stroke-width="0.0" fill="rgb(34, 35, 35)" opacity="0.9900039"/>
    <path d="M 124.98546600341797 165.10826110839844 C 122.94575500488281 174.4571990966797 117.46283721923828 179.9613037109375 108.26604461669922 181.97903442382812 C 100.57341003417969 179.9500274658203 96.91012573242188 174.25973510742188 94.98435974121094 165.04998779296875 C 96.1260986328125 158.53634643554688 101.50224304199219 153.01025390625 109.11080932617188 150.94662475585938 C 117.18511199951172 152.52365112304688 122.92749786376953 157.640380859375 124.98546600341797 165.10826110839844" stroke-width="0.0" fill="rgb(2, 2, 3)" opacity="0.99000347"/>
    <path d="M 94.97229766845703 62.084625244140625 C 92.71611022949219 71.1565933227539 87.22811889648438 76.83100128173828 78.1605224609375 78.97454833984375 C 70.6363754272461 76.91667175292969 65.35250091552734 71.26593780517578 63.796485900878906 63.283226013183594 C 66.0096206665039 55.5 71.5 50.009620666503906 79.8271713256836 47.17031478881836 C 87.44342041015625 49.072288513183594 92.95452117919922 54.54725646972656 94.97229766845703 62.084625244140625" stroke-width="0.0" fill="rgb(141, 142, 143)" opacity="1.0"/>
    <path d="M 134.0 115.0 C 131.99038696289062 122.5 126.5 127.9903793334961 119.05081939697266 129.9315643310547 C 111.0032958984375 128.14137268066406 105.10343933105469 123.28591918945312 103.0145492553711 114.10785675048828 C 105.04595947265625 106.55730438232422 110.57888793945312 101.10050201416016 118.22328186035156 99.18501281738281 C 126.5 102.0096206665039 131.99038696289062 107.5 134.0 115.0" stroke-width="0.0" fill="rgb(87, 87, 87)" opacity="1.0"/>
    <path d="M 86.94114685058594 57.902503967285156 C 84.87840270996094 66.3987045288086 79.41560363769531 71.92664337158203 71.88067626953125 73.9239730834961 C 63.5 70.9903793334961 58.009620666503906 65.5 55.250831604003906 57.233890533447266 C 57.09443283081055 49.57593536376953 62.56801223754883 44.06879806518555 70.1417007446289 42.12015151977539 C 78.96527099609375 44.72050094604492 84.81509399414062 49.82282638549805 86.94114685058594 57.902503967285156" stroke-width="0.0" fill="rgb(48, 48, 49)" opacity="1.0"/>
    <path d="M 130.0 15.0 C 127.9903793334961 22.5 122.5 27.990381240844727 114.99948120117188 30.000232696533203 C 107.49137878417969 27.99420928955078 101.95551300048828 22.523252487182617 100.52498626708984 15.395188331604004 C 102.37149810791016 7.684313774108887 107.5690689086914 2.0383503437042236 115.00323486328125 0.0012946495553478599 C 122.5 2.0096189975738525 127.9903793334961 7.5 130.0 15.0" stroke-width="0.0" fill="rgb(254, 255, 255)" opacity="0.99168324"/>
    <path d="M 203.0 107.0 C 200.99038696289062 114.5 195.5 119.9903793334961 188.0 122.0 C 180.5 119.9903793334961 175.00961303710938 114.5 173.0 107.0 C 175.00961303710938 99.5 180.5 94.0096206665039 188.0 92.0 C 195.5 94.0096206665039 200.99038696289062 99.5 203.0 107.0" stroke-width="0.0" fill="rgb(0, 0, 0)" opacity="1.0"/>
    <path d="M 35.97293472290039 30.963153839111328 C 33.96654510498047 38.4736328125 28.47456932067871 43.96883010864258 20.85667610168457 45.97944259643555 C 11.544926643371582 43.957149505615234 6.07164192199707 38.44474792480469 4.13923978805542 30.83780860900879 C 6.8876447677612305 22.228351593017578 11.909828186035156 16.210996627807617 19.150142669677734 14.05922794342041 C 27.03528594970703 17.28887367248535 32.16191864013672 23.18134880065918 35.97293472290039 30.963153839111328" stroke-width="0.0" fill="rgb(72, 72, 73)" opacity="1.0"/>
    <path d="M 219.0 95.0 C 216.99038696289062 102.5 211.5 107.9903793334961 204.0 110.0 C 196.5 107.9903793334961 191.00961303710938 102.5 189.0 95.0 C 191.00961303710938 87.5 196.5 82.0096206665039 204.0 80.0 C 211.5 82.0096206665039 216.99038696289062 87.5 219.0 95.0" stroke-width="0.0" fill="rgb(169, 168, 169)" opacity="1.0"/>
    <path d="M 241.85964965820312 211.31005859375 C 238.48068237304688 218.93283081054688 232.85916137695312 224.2604522705078 225.34703063964844 227.09730529785156 C 218.4583282470703 225.1165313720703 213.00820922851562 219.5045623779297 210.99998474121094 212.00006103515625 C 213.00961303710938 204.5 218.5 199.00961303710938 226.1117706298828 196.90451049804688 C 233.8626708984375 198.69813537597656 239.5752716064453 204.04318237304688 241.85964965820312 211.31005859375" stroke-width="0.0" fill="rgb(255, 255, 255)" opacity="0.9903052"/>
    <path d="M 126.984619140625 153.1767120361328 C 124.93938446044922 162.42762756347656 119.41203308105469 167.90098571777344 111.78633880615234 169.8905792236328 C 102.94000244140625 167.713134765625 97.78555297851562 161.87551879882812 95.97877502441406 154.0427703857422 C 98.0096206665039 146.5 103.5 141.00961303710938 111.58155822753906 138.4754638671875 C 119.3843002319336 140.16482543945312 124.94525146484375 145.57591247558594 126.984619140625 153.1767120361328" stroke-width="0.0" fill="rgb(84, 83, 83)" opacity="1.0"/>
    <path d="M 217.86488342285156 34.65861511230469 C 215.78883361816406 42.173866271972656 210.0203094482422 47.35906219482422 202.09609985351562 49.055416107177734 C 194.5 46.990379333496094 189.00961303710938 41.5 186.46652221679688 33.564842224121094 C 188.4037628173828 26.049577713012695 194.5790557861328 21.62425994873047 201.7125244140625 19.915855407714844 C 208.844970703125 21.743181228637695 214.80690002441406 27.038341522216797 217.86488342285156 34.65861511230469" stroke-width="0.0" fill="rgb(181, 182, 182)" opacity="0.99001527"/>
    <path d="M 213.76943969726562 72.24767303466797 C 210.99038696289062 80.5 205.5 85.9903793334961 197.1561737060547 88.85564422607422 C 189.561279296875 86.92964935302734 184.0630645751953 81.44107818603516 182.03713989257812 73.44451904296875 C 184.06802368164062 64.55731201171875 189.55068969726562 59.05039978027344 197.1272735595703 57.07426834106445 C 206.38119506835938 59.133941650390625 211.88467407226562 64.61306762695312 213.76943969726562 72.24767303466797" stroke-width="0.0" fill="rgb(187, 187, 187)" opacity="1.0"/>
    <path d="M 243.98193359375 129.08245849609375 C 241.93377685546875 138.4154510498047 236.37960815429688 143.81813049316406 228.5231170654297 145.4235382080078 C 220.5 142.99038696289062 215.00961303710938 137.5 212.8199005126953 129.7208709716797 C 214.34324645996094 121.72221374511719 219.6515655517578 116.10958862304688 228.9418182373047 114.02751159667969 C 236.3825225830078 116.0645751953125 241.9335479736328 121.62047576904297 243.98193359375 129.08245849609375" stroke-width="0.0" fill="rgb(5, 6, 7)" opacity="0.9900026"/>
    <path d="M 45.56328582763672 102.12005615234375 C 43.541622161865234 109.87633514404297 36.75582504272461 115.23149871826172 29.515195846557617 117.51792907714844 C 23.082321166992188 115.61477661132812 17.908721923828125 109.71034240722656 15.967242240905762 102.1607437133789 C 17.89826202392578 96.37957763671875 23.380205154418945 90.90031433105469 29.092330932617188 88.98167419433594 C 36.60087203979492 90.9352035522461 42.38325500488281 96.35733795166016 45.56328582763672 102.12005615234375" stroke-width="0.0" fill="rgb(2, 2, 2)" opacity="0.9900031"/>
    <path d="M 219.0 116.0 C 216.99038696289062 123.5 211.5 128.99038696289062 204.0 131.0 C 196.5 128.99038696289062 191.00961303710938 123.5 189.01611328125 116.00630187988281 C 191.01544189453125 108.50228118896484 196.50071716308594 103.00990295410156 204.00003051757812 101.00000762939453 C 211.5 103.0096206665039 216.99038696289062 108.5 219.0 116.0" stroke-width="0.0" fill="rgb(4, 3, 4)" opacity="1.0"/>
    <path d="M 87.00686645507812 27.951583862304688 C 85.04792022705078 33.63155746459961 79.80757904052734 39.500404357910156 73.76973724365234 41.25175857543945 C 66.430908203125 39.06822204589844 60.89454650878906 33.574119567871094 57.020172119140625 27.912490844726562 C 60.98134994506836 20.47553253173828 66.47923278808594 14.993269920349121 72.24457550048828 12.993661880493164 C 79.518310546875 14.994503021240234 85.00474548339844 20.482027053833008 87.00686645507812 27.951583862304688" stroke-width="0.0" fill="rgb(4, 4, 4)" opacity="0.99000126"/>
    <path d="M 56.442745208740234 177.44334411621094 C 53.77341842651367 185.01736450195312 47.7989501953125 190.15365600585938 40.04197311401367 193.96192932128906 C 32.536170959472656 191.96234130859375 27.046600341796875 186.46023559570312 25.055097579956055 178.9187469482422 C 28.009618759155273 170.5 33.5 165.00961303710938 41.83042907714844 162.13758850097656 C 49.400394439697266 164.08799743652344 54.82841110229492 169.6240692138672 56.442745208740234 177.44334411621094" stroke-width="0.0" fill="rgb(54, 54, 54)" opacity="0.9900065"/>
    <path d="M 134.0096435546875 31.861343383789062 C 132.07559204101562 37.691131591796875 126.92166137695312 43.626461029052734 119.9350357055664 45.97108840942383 C 112.5 43.990379333496094 107.0096206665039 38.5 105.0 31.0 C 107.0096206665039 23.5 112.5 18.009618759155273 119.81107330322266 16.101337432861328 C 126.72959899902344 18.619794845581055 132.04061889648438 24.392417907714844 134.0096435546875 31.861343383789062" stroke-width="0.0" fill="rgb(4, 5, 5)" opacity="0.99000645"/>
    <path d="M 253.7779083251953 250.56602478027344 C 251.44322204589844 257.7863464355469 245.6661376953125 263.0962829589844 238.02392578125 265.01507568359375 C 230.5 262.9903869628906 225.00961303710938 257.5 223.14248657226562 250.19239807128906 C 225.48098754882812 243.02122497558594 231.0548095703125 237.59400939941406 238.26382446289062 234.22227478027344 C 244.83267211914062 237.56651306152344 250.24522399902344 243.2138671875 253.7779083251953 250.56602478027344" stroke-width="0.0" fill="rgb(255, 255, 255)" opacity="0.9902533"/>
    <path d="M 197.666259765625 240.73104858398438 C 195.52589416503906 248.08409118652344 190.15896606445312 253.8495635986328 183.60414123535156 256.81298828125 C 176.09837341308594 253.33349609375 170.6638946533203 247.9027099609375 168.68153381347656 240.5644989013672 C 170.13597106933594 233.55079650878906 175.51437377929688 228.0150146484375 183.00050354003906 226.00018310546875 C 190.5 228.00961303710938 195.99038696289062 233.5 197.666259765625 240.73104858398438" stroke-width="0.0" fill="rgb(255, 255, 255)" opacity="0.9901581"/>
    <path d="M 95.90294647216797 163.7281494140625 C 92.4107437133789 169.7340545654297 86.71222686767578 175.24960327148438 80.55329132080078 178.86976623535156 C 72.5 175.99038696289062 67.0096206665039 170.5 64.04314422607422 162.0851287841797 C 66.0660629272461 154.57640075683594 71.57611846923828 149.0658416748047 79.0710220336914 147.07565307617188 C 86.73603057861328 150.86106872558594 92.47286224365234 156.151611328125 95.90294647216797 163.7281494140625" stroke-width="0.0" fill="rgb(194, 194, 195)" opacity="1.0"/>
    <path d="M 217.9457550048828 178.07174682617188 C 214.99038696289062 186.5 209.5 191.99038696289062 202.80868530273438 193.20272827148438 C 195.43328857421875 191.05996704101562 189.88214111328125 185.57542419433594 186.2066650390625 179.86587524414062 C 188.11370849609375 170.63238525390625 193.6684112548828 165.2386016845703 202.7967529296875 163.1743621826172 C 210.4513397216797 165.0675506591797 215.95843505859375 170.54042053222656 217.9457550048828 178.07174682617188" stroke-width="0.0" fill="rgb(2, 2, 2)" opacity="0.9900038"/>
    <path d="M 150.96072387695312 227.05860900878906 C 147.13429260253906 234.73321533203125 141.84442138671875 240.44932556152344 134.39791870117188 243.39939880371094 C 126.6015853881836 241.83981323242188 121.05142211914062 236.43301391601562 119.04336547851562 228.92724609375 C 122.0096206665039 220.5 127.5 215.00961303710938 135.0961151123047 212.95370483398438 C 143.1378936767578 214.5712432861328 148.90899658203125 219.6741943359375 150.96072387695312 227.05860900878906" stroke-width="0.0" fill="rgb(87, 87, 89)" opacity="1.0"/>
    <path d="M 249.97930908203125 57.04124450683594 C 246.5106658935547 65.24620056152344 241.4159393310547 70.95767974853516 233.94058227539062 73.02383422851562 C 225.956298828125 71.322265625 220.11326599121094 66.27749633789062 218.02658081054688 58.7126350402832 C 220.0626678466797 49.56045150756836 225.55572509765625 44.05121612548828 233.07156372070312 42.0371208190918 C 242.41860961914062 44.124263763427734 247.95814514160156 49.55339431762695 249.97930908203125 57.04124450683594" stroke-width="0.0" fill="rgb(135, 135, 136)" opacity="1.0"/>
    <path d="M 215.99444580078125 201.00672912597656 C 213.99038696289062 208.5 208.5 213.99038696289062 200.28941345214844 215.92636108398438 C 192.58169555664062 214.90406799316406 187.09158325195312 209.4193115234375 185.23324584960938 201.79949951171875 C 188.56626892089844 194.12860107421875 194.2210235595703 188.822998046875 201.9159698486328 185.06549072265625 C 209.0940399169922 187.19158935546875 214.0354766845703 193.30982971191406 215.99444580078125 201.00672912597656" stroke-width="0.0" fill="rgb(202, 202, 202)" opacity="0.99004745"/>
    <path d="M 18.651660919189453 122.2862777709961 C 15.990381240844727 130.5 10.5 135.99038696289062 3.0 138.0 C -4.5 135.99038696289062 -9.990381240844727 130.5 -12.016674041748047 122.95860290527344 C -10.286300659179688 114.97968292236328 -5.288167953491211 109.10202026367188 3.4890575408935547 107.01643371582031 C 11.449575424194336 109.04479217529297 16.89836883544922 114.568359375 18.651660919189453 122.2862777709961" stroke-width="0.0" fill="rgb(3, 3, 3)" opacity="0.99000967"/>
    <path d="M 46.0 213.0 C 43.990379333496094 220.5 38.5 225.99038696289062 31.0030517578125 227.99896240234375 C 23.624000549316406 225.9451446533203 18.73198127746582 220.04248046875 16.958250045776367 212.12420654296875 C 18.009618759155273 205.5 23.5 200.00961303710938 31.0 198.0 C 38.5 200.00961303710938 43.990379333496094 205.5 46.0 213.0" stroke-width="0.0" fill="rgb(57, 57, 58)" opacity="0.9924354"/>
    <path d="M 214.8920135498047 160.84552001953125 C 212.9070587158203 168.36936950683594 207.32070922851562 173.80274963378906 198.06492614746094 175.98609924316406 C 190.54090881347656 173.95950317382812 185.03990173339844 168.45938110351562 183.01463317871094 160.89401245117188 C 185.05319213867188 151.55091857910156 190.5504608154297 146.05258178710938 198.09689331054688 144.07339477539062 C 206.5 147.00961303710938 211.99038696289062 152.5 214.8920135498047 160.84552001953125" stroke-width="0.0" fill="rgb(132, 133, 134)" opacity="1.0"/>
    <path d="M 225.93658447265625 79.06607055664062 C 222.99038696289062 87.5 217.5 92.9903793334961 209.88616943359375 95.06529235839844 C 201.93910217285156 93.40145874023438 196.21478271484375 88.18900299072266 194.03822326660156 79.09981536865234 C 196.0724334716797 71.5828857421875 201.58717346191406 66.0824966430664 210.95472717285156 64.01423645019531 C 218.4755859375 66.02890014648438 223.96580505371094 71.52645111083984 225.93658447265625 79.06607055664062" stroke-width="0.0" fill="rgb(86, 86, 87)" opacity="0.99004215"/>
    <path d="M 172.9744415283203 81.27914428710938 C 170.904541015625 90.30669403076172 165.06961059570312 95.33614349365234 157.0551300048828 97.02316284179688 C 149.5 94.9903793334961 144.00961303710938 89.5 141.24818420410156 81.31591033935547 C 143.1823272705078 73.72782135009766 148.7874298095703 68.37336730957031 156.06927490234375 67.97118377685547 C 165.39901733398438 69.88819122314453 170.96356201171875 73.54410552978516 172.9744415283203 81.27914428710938" stroke-width="0.0" fill="rgb(5, 5, 5)" opacity="0.9900052"/>
    <path d="M 217.17608642578125 47.38848114013672 C 216.8339080810547 55.38237380981445 211.4110107421875 60.92580032348633 203.93865966796875 61.080509185791016 C 196.36387634277344 59.06122970581055 189.21102905273438 53.932640075683594 187.14024353027344 47.783241271972656 C 190.4927215576172 40.009010314941406 195.98634338378906 34.37514877319336 202.3705596923828 31.319705963134766 C 209.7991180419922 34.80170440673828 216.80184936523438 39.46097183227539 217.17608642578125 47.38848114013672" stroke-width="0.0" fill="rgb(218, 218, 220)" opacity="0.99014604"/>
    <path d="M 269.9998474121094 117.99947357177734 C 267.9757080078125 125.45294189453125 262.153076171875 130.34898376464844 254.0301513671875 133.84393310546875 C 246.52685546875 131.97024536132812 241.03717041015625 126.46992492675781 239.0229034423828 118.95381927490234 C 242.00961303710938 110.5 247.5 105.0096206665039 255.0 103.0 C 262.5 105.0096206665039 267.9903869628906 110.5 269.9998474121094 117.99947357177734" stroke-width="0.0" fill="rgb(10, 11, 12)" opacity="0.99001116"/>
    <path d="M 149.3020782470703 244.87411499023438 C 148.6851043701172 252.05050659179688 142.93423461914062 257.3926696777344 135.19134521484375 259.2248840332031 C 127.5 256.9903869628906 122.0096206665039 251.5 120.75907897949219 244.77877807617188 C 122.93250274658203 237.43417358398438 128.44541931152344 231.9671173095703 134.35025024414062 229.96849060058594 C 141.5447998046875 231.97439575195312 147.04945373535156 237.4470672607422 149.3020782470703 244.87411499023438" stroke-width="0.0" fill="rgb(250, 250, 251)" opacity="0.99000394"/>
    <path d="M 77.0 178.0 C 74.9903793334961 185.5 69.5 190.99038696289062 62.17494583129883 192.83892822265625 C 54.9434814453125 190.57798767089844 49.6244010925293 184.98812866210938 47.962181091308594 178.8631134033203 C 49.90407943725586 170.42977905273438 53.61301803588867 164.06263732910156 61.093727111816406 162.06277465820312 C 69.5 165.00961303710938 74.9903793334961 170.5 77.0 178.0" stroke-width="0.0" fill="rgb(3, 3, 3)" opacity="0.9900612"/>
    <path d="M 127.3802719116211 35.81507873535156 C 124.9903793334961 43.5 119.5 48.990379333496094 112.00079345703125 50.99974822998047 C 104.55203247070312 48.97346878051758 99.59406280517578 43.19725036621094 97.98987579345703 36.97040557861328 C 99.99114990234375 29.472379684448242 105.46248626708984 23.96263885498047 112.85038757324219 21.83049774169922 C 119.52848052978516 22.99677085876465 125.14984893798828 28.42645263671875 127.3802719116211 35.81507873535156" stroke-width="0.0" fill="rgb(7, 6, 6)" opacity="0.9900142"/>
    <path d="M 117.0 210.0 C 114.9903793334961 217.5 109.5 222.99038696289062 102.63326263427734 224.445556640625 C 95.4083251953125 222.1150360107422 89.96119689941406 216.5681610107422 87.93113708496094 209.09786987304688 C 89.0096206665039 202.5 94.5 197.00961303710938 102.0 195.0 C 109.5 197.00961303710938 114.9903793334961 202.5 117.0 210.0" stroke-width="0.0" fill="rgb(3, 3, 3)" opacity="0.9900084"/>
    <path d="M 68.0417709350586 213.05224609375 C 66.01109313964844 220.52183532714844 60.52016067504883 226.00660705566406 53.44858932495117 228.00701904296875 C 47.469444274902344 226.0116424560547 41.963592529296875 220.53936767578125 39.85453796386719 213.1380157470703 C 41.009620666503906 206.5 46.5 201.00961303710938 54.0 199.0 C 61.5 201.00961303710938 66.9903793334961 206.5 68.0417709350586 213.05224609375" stroke-width="0.0" fill="rgb(10, 11, 11)" opacity="0.99000216"/>
    <path d="M 228.97427368164062 217.92372131347656 C 226.7100830078125 225.14932250976562 221.1758270263672 230.88169860839844 214.5495147705078 233.81439208984375 C 206.4991455078125 230.99203491210938 201.0047149658203 225.50172424316406 198.15097045898438 217.33319091796875 C 200.3866424560547 210.04588317871094 206.19825744628906 204.8048858642578 213.94908142089844 202.9668426513672 C 221.5 205.00961303710938 226.99038696289062 210.5 228.97427368164062 217.92372131347656" stroke-width="0.0" fill="rgb(255, 255, 255)" opacity="0.9906384"/>
    <path d="M 184.93775939941406 176.88626098632812 C 182.9132843017578 184.35000610351562 177.2206573486328 189.54562377929688 168.0592041015625 191.96859741210938 C 160.54714965820312 189.9554443359375 155.06028747558594 184.44659423828125 153.1041259765625 176.8760528564453 C 156.00961303710938 168.5 161.5 163.00961303710938 169.0 161.0 C 176.50010681152344 163.00958251953125 181.99595642089844 168.49839782714844 184.93775939941406 176.88626098632812" stroke-width="0.0" fill="rgb(90, 91, 91)" opacity="1.0"/>
    <path d="M 43.02499771118164 220.03851318359375 C 41.00895690917969 227.5216522216797 35.52092361450195 233.0071563720703 28.332300186157227 235.0066375732422 C 22.47763442993164 233.00782775878906 16.987632751464844 227.5242462158203 14.960829734802246 220.03041076660156 C 15.144749641418457 212.89993286132812 21.798110961914062 208.38034057617188 29.15700912475586 206.11483764648438 C 36.497764587402344 208.0109100341797 42.032142639160156 213.4904327392578 43.02499771118164 220.03851318359375" stroke-width="0.0" fill="rgb(20, 21, 21)" opacity="0.9900018"/>
    <path d="M 174.28407287597656 94.57999420166016 C 172.99038696289062 101.5 167.5 106.9903793334961 160.84107971191406 108.13111114501953 C 153.41502380371094 106.06106567382812 147.89352416992188 100.59894561767578 145.65048217773438 93.3139419555664 C 147.0093231201172 86.4993896484375 152.4986572265625 81.00679016113281 160.10186767578125 78.90042877197266 C 167.32887268066406 80.84859466552734 172.3054656982422 86.9748306274414 174.28407287597656 94.57999420166016" stroke-width="0.0" fill="rgb(3, 3, 3)" opacity="0.99005777"/>
    <path d="M 167.0 160.0 C 164.99038696289062 167.5 159.5 172.99038696289062 152.0 175.0 C 144.5 172.99038696289062 139.00961303710938 167.5 137.0 160.0 C 139.00961303710938 152.5 144.5 147.00961303710938 152.0 145.0 C 159.5 147.00961303710938 164.99038696289062 152.5 167.0 160.0" stroke-width="0.0" fill="rgb(180, 180, 181)" opacity="1.0"/>
    <path d="M 81.42613220214844 176.82565307617188 C 80.68092346191406 183.9751739501953 74.73585510253906 189.1005401611328 67.21294403076172 190.97357177734375 C 60.31420135498047 188.3212432861328 54.955928802490234 182.6007843017578 52.9797248840332 176.4205780029297 C 54.959312438964844 169.39596557617188 59.82752990722656 162.1105499267578 66.08448791503906 160.06210327148438 C 73.7098617553711 163.8257293701172 79.15648651123047 169.2972869873047 81.42613220214844 176.82565307617188" stroke-width="0.0" fill="rgb(214, 215, 215)" opacity="0.99000293"/>
    <path d="M 91.11923217773438 41.91765213012695 C 90.92781829833984 49.37541961669922 84.02938079833984 53.06625747680664 76.1076889038086 55.015357971191406 C 70.34635925292969 53.140499114990234 64.93348693847656 47.618324279785156 62.968502044677734 40.142967224121094 C 64.92855834960938 34.43965148925781 70.45181274414062 28.971967697143555 77.97716522216797 25.017887115478516 C 85.46031188964844 27.032651901245117 90.88748931884766 32.564857482910156 91.11923217773438 41.91765213012695" stroke-width="0.0" fill="rgb(219, 218, 218)" opacity="0.99000245"/>
    <path d="M 197.77426147460938 100.6751708984375 C 195.28970336914062 107.70403289794922 189.6361541748047 113.07640838623047 182.14727783203125 115.09310913085938 C 175.5 113.9903793334961 170.00961303710938 108.5 167.7501220703125 100.71760559082031 C 169.4636993408203 92.99474334716797 175.57618713378906 88.7412109375 183.78884887695312 86.89916229248047 C 190.44825744628906 88.10807800292969 195.9795684814453 93.52509307861328 197.77426147460938 100.6751708984375" stroke-width="0.0" fill="rgb(234, 233, 234)" opacity="0.99007356"/>
    <path d="M 232.0 208.0 C 229.99038696289062 215.5 224.5 220.99038696289062 216.99966430664062 223.0001220703125 C 209.48960876464844 220.9942169189453 203.9129638671875 215.537841796875 202.95156860351562 208.91004943847656 C 204.951904296875 201.41867065429688 210.3965606689453 195.88905334472656 217.68702697753906 193.67572021484375 C 224.5 195.00961303710938 229.99038696289062 200.5 232.0 208.0" stroke-width="0.0" fill="rgb(250, 250, 250)" opacity="0.99007684"/>
    <path d="M 222.92457580566406 117.52941131591797 C 220.0796661376953 125.56067657470703 214.54598999023438 131.02957153320312 207.01194763183594 133.01084899902344 C 199.5 130.99038696289062 194.00962829589844 125.49999237060547 191.9258270263672 117.94415283203125 C 193.9319305419922 110.46512603759766 199.4864959716797 105.00404357910156 206.4014892578125 103.5381088256836 C 213.61964416503906 105.85881042480469 219.0883331298828 111.39505767822266 222.92457580566406 117.52941131591797" stroke-width="0.0" fill="rgb(7, 7, 7)" opacity="0.9900484"/>
    <path d="M 47.006534576416016 11.895722389221191 C 45.017913818359375 17.561098098754883 39.775516510009766 24.88193130493164 33.950340270996094 25.164358139038086 C 26.420007705688477 23.04705047607422 20.850242614746094 17.608434677124023 17.205339431762695 11.113958358764648 C 20.009618759155273 3.5 25.5 -1.9903810024261475 32.098087310791016 -3.099252223968506 C 39.52927017211914 -1.0233697891235352 45.007591247558594 4.476320266723633 47.006534576416016 11.895722389221191" stroke-width="0.0" fill="rgb(8, 8, 8)" opacity="0.99000245"/>
    <path d="M 234.0717010498047 253.8985137939453 C 231.9904022216797 261.5 226.5 266.9903869628906 219.00001525878906 269.0 C 211.50048828125 266.9902038574219 206.01380920410156 261.4983825683594 203.4323272705078 253.59251403808594 C 205.48370361328125 246.13563537597656 211.23731994628906 240.73316955566406 219.43255615234375 238.34974670410156 C 227.02493286132812 240.37571716308594 232.3188018798828 246.07545471191406 234.0717010498047 253.8985137939453" stroke-width="0.0" fill="rgb(255, 255, 255)" opacity="0.9903896"/>
    <path d="M 141.0003662109375 254.9987030029297 C 138.99038696289062 262.5 133.5 267.9903869628906 126.0 270.0 C 118.5 267.9903869628906 113.0096206665039 262.5 111.0 255.0 C 113.0096206665039 247.5 118.5 242.00961303710938 126.0419692993164 239.9088134765625 C 133.5263671875 241.95831298828125 138.99769592285156 247.486572265625 141.0003662109375 254.9987030029297" stroke-width="0.0" fill="rgb(250, 250, 250)" opacity="1.0"/>
    <path d="M 97.50855255126953 133.72523498535156 C 95.7423095703125 142.33584594726562 90.39546966552734 147.9274444580078 82.81475067138672 149.9684600830078 C 73.61813354492188 147.90286254882812 68.18746948242188 142.35208129882812 66.47887420654297 134.56405639648438 C 69.00999450683594 126.50125122070312 74.51441192626953 121.05692291259766 82.93353271484375 118.0359115600586 C 90.42249298095703 120.05513000488281 95.80855560302734 125.62327575683594 97.50855255126953 133.72523498535156" stroke-width="0.0" fill="rgb(120, 121, 121)" opacity="1.0"/>
    <path d="M 161.89926147460938 175.84254455566406 C 159.94566345214844 183.45631408691406 154.4588623046875 188.95361328125 146.91172790527344 190.92947387695312 C 138.5 187.99038696289062 133.00961303710938 182.5 131.0 175.0 C 133.00961303710938 167.5 138.5 162.00961303710938 146.74903869628906 159.21334838867188 C 154.37184143066406 161.1245880126953 159.84088134765625 166.63880920410156 161.89926147460938 175.84254455566406" stroke-width="0.0" fill="rgb(3, 3, 4)" opacity="0.99002564"/>
    <path d="M 81.93761444091797 91.14864349365234 C 79.921142578125 100.4346694946289 74.43455505371094 105.91968536376953 65.04598999023438 107.97280883789062 C 57.53515625 105.96253204345703 52.03691864013672 100.46512603759766 50.015357971191406 92.5519790649414 C 52.03691101074219 83.53373718261719 57.5338134765625 78.03739929199219 66.8857192993164 76.0134506225586 C 74.46339416503906 78.03652954101562 79.9514389038086 83.54148864746094 81.93761444091797 91.14864349365234" stroke-width="0.0" fill="rgb(77, 78, 79)" opacity="0.990029"/>
    <path d="M 75.0000228881836 197.99990844726562 C 72.9903793334961 205.5 67.5 210.99038696289062 60.0 213.0 C 52.5 210.99038696289062 47.009620666503906 205.5 45.892669677734375 198.873291015625 C 47.95681381225586 191.4405975341797 53.43757629394531 185.94839477539062 60.86631774902344 182.43873596191406 C 67.5842056274414 184.77293395996094 72.9928970336914 190.4916534423828 75.0000228881836 197.99990844726562" stroke-width="0.0" fill="rgb(21, 22, 22)" opacity="0.9900174"/>
    <path d="M 62.06953811645508 250.89895629882812 C 59.990379333496094 258.5 54.5 263.9903869628906 47.02558517456055 265.98651123046875 C 39.73456954956055 263.85565185546875 34.580718994140625 258.1078186035156 32.781410217285156 251.32589721679688 C 34.72090148925781 244.1315155029297 40.14735412597656 238.7561492919922 47.81341552734375 236.70394897460938 C 55.0535888671875 237.33328247070312 60.32386779785156 243.06317138671875 62.06953811645508 250.89895629882812" stroke-width="0.0" fill="rgb(255, 255, 255)" opacity="0.99029964"/>
    <path d="M 259.6163024902344 33.66254425048828 C 257.6371154785156 40.1725959777832 250.76510620117188 45.13554000854492 244.89186096191406 47.022552490234375 C 237.41741943359375 45.04661560058594 231.84332275390625 39.614891052246094 228.13893127441406 32.47429656982422 C 230.72438049316406 25.220935821533203 236.05770874023438 19.377155303955078 243.47523498535156 17.21985626220703 C 250.98081970214844 20.485458374023438 256.3869323730469 26.058452606201172 259.6163024902344 33.66254425048828" stroke-width="0.0" fill="rgb(249, 250, 250)" opacity="1.0"/>
    <path d="M 87.01210021972656 190.97381591796875 C 85.9903793334961 197.5 80.5 202.99038696289062 73.0063247680664 204.99737548828125 C 65.62403869628906 202.93658447265625 60.55788803100586 197.1820068359375 58.72774887084961 189.272705078125 C 60.236270904541016 183.2941436767578 66.3755111694336 177.92584228515625 73.94475555419922 175.6460723876953 C 79.58235931396484 176.51937866210938 85.01025390625 183.4626007080078 87.01210021972656 190.97381591796875" stroke-width="0.0" fill="rgb(3, 4, 3)" opacity="0.99000347"/>
    <path d="M 65.68031311035156 206.64002990722656 C 63.8763427734375 214.40847778320312 58.432090759277344 219.94454956054688 50.90394592285156 221.97689819335938 C 42.16519546508789 219.6930389404297 37.25394058227539 213.3069610595703 34.466163635253906 205.3827362060547 C 36.158321380615234 197.61424255371094 41.58563232421875 192.06982421875 49.36269760131836 190.02833557128906 C 58.3178825378418 192.1162109375 63.613731384277344 197.7812042236328 65.68031311035156 206.64002990722656" stroke-width="0.0" fill="rgb(74, 74, 75)" opacity="1.0"/>
    <path d="M 248.95883178710938 90.23776245117188 C 246.50526428222656 98.2015380859375 239.95867919921875 103.35125732421875 232.03175354003906 106.98432922363281 C 224.5442352294922 104.96512603759766 219.1155548095703 99.42794036865234 217.35369873046875 91.64763641357422 C 220.0807647705078 83.68575286865234 225.1615447998047 77.29016876220703 233.860107421875 75.05660247802734 C 241.45411682128906 77.05193328857422 246.95318603515625 82.54408264160156 248.95883178710938 90.23776245117188" stroke-width="0.0" fill="rgb(38, 39, 39)" opacity="0.9900035"/>
    <path d="M 84.04671478271484 126.21245574951172 C 82.099365234375 133.6529541015625 76.68069458007812 139.1606903076172 69.0944595336914 141.0461883544922 C 61.622779846191406 140.91375732421875 56.26933288574219 135.3163604736328 54.104793548583984 126.12388610839844 C 56.04966735839844 118.53558349609375 61.52814483642578 113.0293960571289 69.04792785644531 111.0165786743164 C 78.44290161132812 113.05082702636719 83.88146209716797 118.57635498046875 84.04671478271484 126.21245574951172" stroke-width="0.0" fill="rgb(39, 39, 41)" opacity="0.9900049"/>
    <path d="M 34.9864387512207 57.70328903198242 C 32.95912170410156 65.45345306396484 27.440204620361328 70.92638397216797 19.804597854614258 72.93941497802734 C 10.592056274414062 70.891845703125 5.066291809082031 65.42329406738281 3.049022912979126 57.65920639038086 C 5.055047988891602 48.54500198364258 10.540438652038574 43.04243850708008 18.100446701049805 41.09858703613281 C 27.451955795288086 43.06766891479492 32.96139144897461 48.538734436035156 34.9864387512207 57.70328903198242" stroke-width="0.0" fill="rgb(133, 132, 133)" opacity="1.0"/>
    <path d="M 155.9893341064453 198.9529571533203 C 153.97386169433594 206.4773406982422 148.4724578857422 211.96043395996094 140.9138946533203 213.9173126220703 C 132.5 210.99038696289062 127.0096206665039 205.5 125.0 198.0 C 127.0096206665039 190.5 132.5 185.00961303710938 140.15817260742188 183.12591552734375 C 148.34291076660156 184.3157958984375 153.94525146484375 189.58412170410156 155.9893341064453 198.9529571533203" stroke-width="0.0" fill="rgb(21, 21, 21)" opacity="0.9900078"/>
    <path d="M 265.1767272949219 108.7223892211914 C 263.0320739746094 116.57357788085938 257.6285400390625 122.20748138427734 249.23268127441406 124.76692199707031 C 241.5614776611328 122.91594696044922 236.05809020996094 117.44603729248047 235.84584045410156 108.53347778320312 C 237.79933166503906 102.29443359375 243.3230743408203 96.87779998779297 250.9510498046875 93.02725982666016 C 258.40533447265625 95.0572280883789 263.6864929199219 100.68273162841797 265.1767272949219 108.7223892211914" stroke-width="0.0" fill="rgb(13, 13, 13)" opacity="0.9900054"/>
    <path d="M 154.43017578125 175.0675811767578 C 152.2032470703125 182.68487548828125 146.68692016601562 188.2073974609375 139.1063995361328 190.14260864257812 C 131.5 187.99038696289062 126.0096206665039 182.5 123.07413482666016 174.11483764648438 C 125.06642150878906 166.562744140625 130.55567932128906 161.05029296875 138.0708465576172 159.04002380371094 C 146.56983947753906 161.93417358398438 152.08975219726562 167.42379760742188 154.43017578125 175.0675811767578" stroke-width="0.0" fill="rgb(5, 5, 5)" opacity="0.9900324"/>
    <path d="M 250.9685516357422 150.059814453125 C 247.7752685546875 158.4076690673828 242.47305297851562 163.9806671142578 234.9992218017578 165.99972534179688 C 227.5 163.99038696289062 222.00961303710938 158.5 220.02674865722656 151.03924560546875 C 222.1627197265625 143.71839904785156 227.8104248046875 138.44342041015625 235.95228576660156 135.03892517089844 C 243.4740753173828 137.0308837890625 248.95936584472656 142.529296875 250.9685516357422 150.059814453125" stroke-width="0.0" fill="rgb(2, 2, 2)" opacity="0.9900224"/>
    <path d="M 53.7803955078125 157.9393768310547 C 51.94036865234375 165.42276000976562 46.39163589477539 170.84243774414062 37.147518157958984 171.0452117919922 C 30.459014892578125 170.11631774902344 25.008441925048828 164.50390625 22.094526290893555 156.12696838378906 C 24.067657470703125 148.56678771972656 29.5648193359375 143.06243896484375 37.25764465332031 141.0279083251953 C 46.34625244140625 143.09776306152344 51.575050354003906 148.75579833984375 53.7803955078125 157.9393768310547" stroke-width="0.0" fill="rgb(237, 237, 237)" opacity="1.0"/>
    <path d="M 234.4226531982422 187.3893585205078 C 232.9874267578125 194.49913024902344 227.49993896484375 199.99037170410156 220.33856201171875 201.7362060546875 C 213.27532958984375 199.29954528808594 207.92431640625 193.64488220214844 205.9862518310547 187.94061279296875 C 207.99017333984375 180.4766387939453 213.4753875732422 174.9868927001953 220.9521942138672 172.9767303466797 C 226.93113708496094 174.6007080078125 232.44061279296875 180.05300903320312 234.4226531982422 187.3893585205078" stroke-width="0.0" fill="rgb(251, 251, 251)" opacity="0.99000394"/>
    <path d="M 128.57174682617188 220.53077697753906 C 126.75098419189453 228.26588439941406 121.28206634521484 233.79873657226562 113.62174987792969 235.66415405273438 C 105.5 232.99038696289062 100.0096206665039 227.5 97.11941528320312 219.21234130859375 C 99.16291809082031 211.76333618164062 104.91637420654297 206.5928192138672 112.89249420166016 204.94178771972656 C 120.5 207.00961303710938 125.9903793334961 212.5 128.57174682617188 220.53077697753906" stroke-width="0.0" fill="rgb(122, 121, 122)" opacity="1.0"/>
    <path d="M 182.9428253173828 157.22166442871094 C 180.75379943847656 166.0869140625 174.8705291748047 171.21878051757812 167.4709014892578 172.60098266601562 C 160.2920379638672 170.23788452148438 154.87245178222656 164.6731414794922 152.7954559326172 157.24241638183594 C 153.4019012451172 149.77017211914062 158.67523193359375 144.1159210205078 167.86044311523438 142.03184509277344 C 175.44952392578125 144.04966735839844 180.93568420410156 149.5560302734375 182.9428253173828 157.22166442871094" stroke-width="0.0" fill="rgb(197, 196, 197)" opacity="1.0"/>
    <path d="M 184.02322387695312 171.11276245117188 C 182.0838623046875 178.63343811035156 176.6754913330078 184.21035766601562 170.92730712890625 186.0294647216797 C 163.34156799316406 184.05099487304688 156.04896545410156 180.36309814453125 154.02545166015625 172.97080993652344 C 157.95654296875 165.42221069335938 163.40589904785156 159.91954040527344 170.60531616210938 157.94554138183594 C 176.8902130126953 159.77450561523438 183.45494079589844 164.76834106445312 184.02322387695312 171.11276245117188" stroke-width="0.0" fill="rgb(232, 231, 233)" opacity="0.9900028"/>
    <path d="M 18.045316696166992 21.56240463256836 C 16.101621627807617 27.66669273376465 10.715847969055176 33.22006607055664 3.102281332015991 36.59626007080078 C -4.112218379974365 34.80302429199219 -9.113718032836914 28.78887176513672 -10.99526596069336 21.01900291442871 C -9.063621520996094 13.226513862609863 -4.201741695404053 7.131012916564941 3.0840396881103516 5.02342414855957 C 10.633419036865234 8.894917488098145 16.07598304748535 14.379685401916504 18.045316696166992 21.56240463256836" stroke-width="0.0" fill="rgb(18, 19, 19)" opacity="0.99000376"/>
    <path d="M 114.14558410644531 132.71505737304688 C 111.9903793334961 140.5 106.5 145.99038696289062 99.12530517578125 147.80101013183594 C 91.36626434326172 145.85191345214844 85.4994125366211 140.8379364013672 83.12206268310547 132.2882843017578 C 85.14213562011719 124.62128448486328 90.58467864990234 119.0598373413086 98.24857330322266 117.0148696899414 C 107.39970397949219 119.06391906738281 112.69595336914062 124.67815399169922 114.14558410644531 132.71505737304688" stroke-width="0.0" fill="rgb(93, 94, 94)" opacity="0.99006903"/>
    <path d="M 194.15126037597656 124.26744079589844 C 191.27151489257812 132.03253173828125 187.32412719726562 138.93487548828125 178.15643310546875 140.99038696289062 C 170.52816772460938 138.96714782714844 165.02772521972656 133.4744415283203 163.01519775390625 125.97027587890625 C 165.967529296875 117.48687744140625 171.49855041503906 112.0091781616211 179.93362426757812 109.04081726074219 C 187.4432830810547 111.0461654663086 192.86997985839844 116.58326721191406 194.15126037597656 124.26744079589844" stroke-width="0.0" fill="rgb(6, 6, 7)" opacity="0.99000347"/>
    <path d="M 65.91234588623047 131.93675231933594 C 63.961647033691406 139.4675750732422 58.46364974975586 144.94821166992188 49.54140853881836 146.9707489013672 C 41.583831787109375 144.91476440429688 36.049652099609375 139.43492126464844 34.02512741088867 130.7281036376953 C 36.19483184814453 124.4074935913086 43.459808349609375 118.9873275756836 50.9688720703125 116.98739624023438 C 56.95241928100586 118.06053161621094 62.208740234375 124.18704223632812 65.91234588623047 131.93675231933594" stroke-width="0.0" fill="rgb(2, 3, 3)" opacity="0.9900018"/>
    <path d="M 41.95414352416992 115.09490966796875 C 39.64136505126953 124.438232421875 34.46675491333008 129.97042846679688 26.963457107543945 131.97779846191406 C 17.808612823486328 129.80616760253906 12.567557334899902 124.0431900024414 10.039825439453125 115.07352447509766 C 12.055682182312012 107.5861587524414 17.666810989379883 102.392822265625 26.086965560913086 101.08732604980469 C 33.72569274902344 102.88922882080078 39.8119010925293 107.89678192138672 41.95414352416992 115.09490966796875" stroke-width="0.0" fill="rgb(3, 3, 3)" opacity="0.9900046"/>
    <path d="M 122.86661529541016 204.1130828857422 C 120.70570373535156 211.03512573242188 114.83065795898438 216.17481994628906 107.14214324951172 218.08441162109375 C 99.5416030883789 217.93923950195312 94.03936767578125 212.4644775390625 92.05667877197266 204.9331817626953 C 95.59192657470703 196.95510864257812 100.38636779785156 190.35169982910156 107.28990936279297 189.89056396484375 C 114.9365234375 191.62997436523438 120.56278991699219 197.00527954101562 122.86661529541016 204.1130828857422" stroke-width="0.0" fill="rgb(227, 226, 226)" opacity="0.9900047"/>
    <path d="M 111.05628967285156 231.93344116210938 C 110.20053100585938 238.57823181152344 104.50887298583984 243.98036193847656 96.66757202148438 246.38815307617188 C 89.11369323730469 244.4870147705078 83.7741470336914 238.80276489257812 82.5855484008789 230.68760681152344 C 83.41064453125 222.69134521484375 88.58975219726562 217.05296325683594 96.05610656738281 215.01654052734375 C 103.56253814697266 218.89227294921875 109.02318572998047 224.45538330078125 111.05628967285156 231.93344116210938" stroke-width="0.0" fill="rgb(250, 250, 250)" opacity="0.990093"/>
    <path d="M 82.71865844726562 203.6146240234375 C 80.26658630371094 210.69790649414062 74.62800598144531 216.0664520263672 67.0339126586914 219.9415283203125 C 59.55792236328125 217.95535278320312 54.12778091430664 212.41258239746094 52.37287139892578 203.5928497314453 C 54.08067321777344 195.5589599609375 59.54690170288086 190.04409790039062 67.07177734375 188.04336547851562 C 75.61771392822266 190.73361206054688 81.0654525756836 196.44534301757812 82.71865844726562 203.6146240234375" stroke-width="0.0" fill="rgb(116, 116, 117)" opacity="0.9900353"/>
    <path d="M 143.98036193847656 109.96330261230469 C 141.9665985107422 117.46324157714844 136.44924926757812 122.92826080322266 128.82131958007812 124.79405212402344 C 120.72782135009766 121.7182388305664 115.27644348144531 116.27354431152344 113.2876968383789 109.14511108398438 C 115.3187026977539 101.6927490234375 120.61419677734375 96.07549285888672 128.0277557373047 94.00599670410156 C 135.79940795898438 95.86624145507812 141.66612243652344 101.00395965576172 143.98036193847656 109.96330261230469" stroke-width="0.0" fill="rgb(96, 96, 96)" opacity="1.0"/>
    <path d="M 182.05157470703125 110.8827896118164 C 180.83033752441406 117.23706817626953 175.17416381835938 122.60112762451172 167.03712463378906 125.97279357910156 C 159.52040100097656 123.97370147705078 154.03366088867188 118.47705841064453 152.01739501953125 110.89027404785156 C 154.14230346679688 101.81200408935547 160.20028686523438 96.90196990966797 167.97262573242188 95.01297760009766 C 175.1044158935547 97.2143783569336 180.13999938964844 103.18531799316406 182.05157470703125 110.8827896118164" stroke-width="0.0" fill="rgb(3, 3, 3)" opacity="0.9900091"/>
    <path d="M 41.98471450805664 2.8716776371002197 C 39.85392379760742 8.623087882995605 32.55724334716797 14.027728080749512 26.828893661499023 16.021467208862305 C 19.21137237548828 14.05648136138916 12.109458923339844 10.308467864990234 11.951921463012695 2.8645849227905273 C 13.720105171203613 -5.047584533691406 18.640899658203125 -10.937110900878906 26.01202964782715 -13.001486778259277 C 33.737876892089844 -11.088435173034668 39.801509857177734 -6.0952677726745605 41.98471450805664 2.8716776371002197" stroke-width="0.0" fill="rgb(245, 245, 245)" opacity="0.99000275"/>
    <path d="M 219.0 138.0 C 216.99038696289062 145.5 211.5 150.99038696289062 204.75843811035156 152.12864685058594 C 197.2520751953125 150.1654510498047 190.23861694335938 145.11917114257812 189.9530487060547 138.51934814453125 C 191.3061065673828 130.61050415039062 196.51060485839844 125.01280212402344 204.00010681152344 123.00003051757812 C 211.5 125.0096206665039 216.99038696289062 130.5 219.0 138.0" stroke-width="0.0" fill="rgb(16, 17, 16)" opacity="0.9900488"/>
    <path d="M 138.8127899169922 90.16719055175781 C 135.68052673339844 98.10066223144531 129.96717834472656 103.31675720214844 122.7610855102539 105.09296417236328 C 114.81548309326172 104.16104125976562 109.08101654052734 99.35317993164062 107.02149963378906 91.89617156982422 C 109.1451187133789 82.67842102050781 114.63982391357422 77.08834075927734 123.94239044189453 75.01083374023438 C 131.46414184570312 77.03337860107422 136.93246459960938 82.54828643798828 138.8127899169922 90.16719055175781" stroke-width="0.0" fill="rgb(31, 31, 32)" opacity="0.99000555"/>
    <path d="M 223.50535583496094 140.32704162597656 C 221.992431640625 147.50059509277344 216.5000457763672 152.9904022216797 209.45420837402344 154.4031524658203 C 201.94862365722656 152.40150451660156 196.2383575439453 147.17559814453125 194.1094970703125 139.92027282714844 C 196.00961303710938 132.5 201.5 127.0096206665039 208.9523468017578 125.03063201904297 C 216.2689208984375 127.18394470214844 221.5823974609375 132.8056640625 223.50535583496094 140.32704162597656" stroke-width="0.0" fill="rgb(3, 3, 3)" opacity="0.99009466"/>
    <path d="M 215.9197235107422 129.70196533203125 C 213.9283447265625 137.4155731201172 208.3997802734375 142.8892364501953 199.1061553955078 144.9663848876953 C 191.57711791992188 142.93551635742188 186.0925750732422 137.4104766845703 184.04335021972656 128.34091186523438 C 186.13595581054688 120.71222686767578 191.75254821777344 115.19705963134766 199.186279296875 114.74938201904297 C 208.1314697265625 115.71195983886719 213.86399841308594 120.71849822998047 215.9197235107422 129.70196533203125" stroke-width="0.0" fill="rgb(89, 88, 90)" opacity="0.99002653"/>
    <path d="M 146.1044464111328 49.88399887084961 C 145.21311950683594 56.920326232910156 140.21029663085938 62.856056213378906 131.09173583984375 64.9831771850586 C 123.53389739990234 62.96214294433594 118.0392837524414 57.46559524536133 116.04523468017578 49.931739807128906 C 118.26659393310547 40.67068099975586 123.60154724121094 35.0661506652832 131.0372772216797 33.05278778076172 C 138.5400390625 36.97652816772461 144.0347442626953 42.456024169921875 146.1044464111328 49.88399887084961" stroke-width="0.0" fill="rgb(84, 85, 85)" opacity="0.9900059"/>
    <path d="M 74.99821472167969 252.00448608398438 C 72.9903793334961 259.5 67.5 264.9903869628906 60.0 267.0 C 52.5 264.9903869628906 47.009620666503906 259.5 44.992130279541016 251.98634338378906 C 46.93476867675781 244.3615264892578 52.21696472167969 238.53428649902344 59.354095458984375 236.92628479003906 C 67.24967956542969 239.4689483642578 72.95008850097656 244.59608459472656 74.99821472167969 252.00448608398438" stroke-width="0.0" fill="rgb(255, 255, 255)" opacity="0.99083364"/>
    <path d="M 98.88794708251953 203.93756103515625 C 96.96243286132812 211.47036743164062 91.46984100341797 216.96083068847656 83.90259552001953 218.947998046875 C 74.60498046875 216.86900329589844 69.08280944824219 211.41030883789062 68.979248046875 203.95584106445312 C 70.98189544677734 196.46424865722656 76.46051025390625 190.97235107421875 83.94889831542969 187.04281616210938 C 91.30255126953125 189.0903778076172 95.320556640625 195.3125762939453 98.88794708251953 203.93756103515625" stroke-width="0.0" fill="rgb(251, 251, 251)" opacity="0.9900096"/>
    <path d="M 146.58172607421875 132.35870361328125 C 143.99038696289062 140.5 138.5 145.99038696289062 130.0803680419922 148.94248962402344 C 122.55686950683594 146.95120239257812 117.11758422851562 141.42160034179688 115.36492156982422 133.65963745117188 C 117.98021697998047 125.62488555908203 123.69676971435547 120.2492446899414 131.85301208496094 117.12278747558594 C 139.41380310058594 119.07801055908203 144.85995483398438 124.6051025390625 146.58172607421875 132.35870361328125" stroke-width="0.0" fill="rgb(97, 98, 98)" opacity="1.0"/>
    <path d="M 250.97543334960938 65.71593475341797 C 248.9364776611328 73.42192077636719 243.40028381347656 78.88151550292969 234.09030151367188 80.95645904541016 C 226.52671813964844 78.96414184570312 221.02951049804688 73.47554779052734 219.1356201171875 65.9708023071289 C 222.83670043945312 58.366676330566406 228.40707397460938 52.949344635009766 235.8004150390625 50.95383834838867 C 241.93447875976562 52.84545135498047 248.78810119628906 56.94302749633789 250.97543334960938 65.71593475341797" stroke-width="0.0" fill="rgb(21, 21, 22)" opacity="0.9900036"/>
    <path d="M 164.9740447998047 57.73225021362305 C 162.94818115234375 65.43925476074219 157.40933227539062 70.78006744384766 148.0371856689453 72.92094421386719 C 140.5303192138672 70.96627044677734 135.04360961914062 65.46615600585938 133.44407653808594 57.90639877319336 C 136.7523193359375 50.26969528198242 142.2877655029297 44.81416320800781 149.94593811035156 41.029335021972656 C 157.45240783691406 43.046321868896484 162.94888305664062 48.5494384765625 164.9740447998047 57.73225021362305" stroke-width="0.0" fill="rgb(153, 152, 153)" opacity="1.0"/>
    <path d="M 116.9046401977539 76.0445556640625 C 113.03521728515625 83.55721282958984 107.56884765625 89.07147216796875 100.2330093383789 91.26109313964844 C 93.25128936767578 90.10211181640625 87.26771545410156 85.02467346191406 86.8441162109375 77.8687973022461 C 88.87260437011719 70.27669525146484 94.1248779296875 64.15042114257812 101.87084197998047 61.09718322753906 C 109.4190444946289 63.08088684082031 114.9410629272461 68.5707778930664 116.9046401977539 76.0445556640625" stroke-width="0.0" fill="rgb(180, 178, 184)" opacity="1.0"/>
    <path d="M 129.04981994628906 246.90396118164062 C 126.99021911621094 254.49981689453125 121.49982452392578 259.990234375 114.16820526123047 261.87054443359375 C 107.0422592163086 259.53814697265625 101.75155639648438 253.85928344726562 99.780029296875 246.3646697998047 C 100.99507904052734 239.43771362304688 106.2701416015625 233.54989624023438 114.80632781982422 231.04994201660156 C 122.24418640136719 233.14532470703125 127.38134765625 238.93972778320312 129.04981994628906 246.90396118164062" stroke-width="0.0" fill="rgb(251, 253, 255)" opacity="0.9906431"/>
    <path d="M 226.89688110351562 96.75995635986328 C 224.89096069335938 104.37408447265625 219.37522888183594 109.8932113647461 210.1767120361328 111.96393585205078 C 202.63668823242188 109.91214752197266 197.3317413330078 104.27847290039062 195.65847778320312 96.17920684814453 C 197.6519317626953 88.24853515625 203.6633758544922 83.57334899902344 211.60525512695312 81.82928466796875 C 219.0663604736328 82.43692779541016 224.619384765625 87.91866302490234 226.89688110351562 96.75995635986328" stroke-width="0.0" fill="rgb(62, 62, 62)" opacity="0.99001396"/>
    <path d="M 179.64166259765625 0.34671205282211304 C 177.11770629882812 7.543371677398682 171.50596618652344 12.992290496826172 164.61273193359375 14.404521942138672 C 157.3436737060547 12.15589427947998 151.8716583251953 6.647991180419922 149.71585083007812 -0.6935787796974182 C 151.00961303710938 -7.5 156.5 -12.990381240844727 164.0 -15.0 C 171.5 -12.990381240844727 176.99038696289062 -7.5 179.64166259765625 0.34671205282211304" stroke-width="0.0" fill="rgb(243, 242, 243)" opacity="1.0"/>
    <path d="M 126.84010314941406 3.215362787246704 C 124.20243072509766 10.575486183166504 118.5090103149414 15.99315357208252 111.07366943359375 17.925067901611328 C 103.47733306884766 15.849733352661133 97.34674835205078 10.885492324829102 95.10054016113281 3.7255632877349854 C 98.36441040039062 -4.310602188110352 103.57958221435547 -9.957185745239258 111.00487518310547 -11.998971939086914 C 118.53715515136719 -10.004103660583496 124.30780792236328 -4.640833854675293 126.84010314941406 3.215362787246704" stroke-width="0.0" fill="rgb(255, 255, 255)" opacity="0.99057215"/>
    <path d="M 251.0068817138672 158.06008911132812 C 249.00555419921875 165.5181427001953 243.5175323486328 171.00421142578125 236.08717346191406 173.00619506835938 C 230.4680938720703 171.01385498046875 224.97073364257812 165.53770446777344 222.90313720703125 158.10528564453125 C 224.0045623779297 151.490966796875 229.4825897216797 145.975830078125 236.61424255371094 144.181640625 C 243.64048767089844 146.77720642089844 249.02847290039062 152.42555236816406 251.0068817138672 158.06008911132812" stroke-width="0.0" fill="rgb(2, 2, 3)" opacity="0.9900017"/>
    <path d="M 150.9700927734375 216.07879638671875 C 147.04974365234375 223.56312561035156 141.559814453125 229.0409698486328 134.3655242919922 231.0227813720703 C 128.4071807861328 229.08145141601562 122.93851470947266 223.58493041992188 120.85438537597656 216.16514587402344 C 122.009765625 209.50045776367188 127.50394439697266 204.02243041992188 134.76083374023438 202.3913116455078 C 142.41946411132812 204.4254150390625 148.85833740234375 208.8379669189453 150.9700927734375 216.07879638671875" stroke-width="0.0" fill="rgb(3, 3, 4)" opacity="0.9900059"/>
    <path d="M 181.00018310546875 22.999645233154297 C 178.99038696289062 30.5 173.5 35.990379333496094 165.49827575683594 38.74394607543945 C 158.23110961914062 36.40875244140625 152.5180206298828 30.800519943237305 150.12277221679688 23.606595993041992 C 153.27354431152344 15.323578834533691 158.12046813964844 9.520343780517578 165.74403381347656 7.718507766723633 C 173.5095977783203 9.988987922668457 178.99252319335938 15.495737075805664 181.00018310546875 22.999645233154297" stroke-width="0.0" fill="rgb(255, 255, 255)" opacity="0.9902037"/>
    <path d="M 208.42337036132812 99.51029205322266 C 206.72642517089844 107.22147369384766 201.22694396972656 112.748291015625 192.48268127441406 114.95906066894531 C 185.91505432128906 112.73831176757812 180.7952880859375 105.77406311035156 177.14102172851562 98.11231231689453 C 179.05992126464844 90.5487060546875 184.54287719726562 85.04340362548828 192.09886169433594 83.01982116699219 C 201.24742126464844 85.13932800292969 206.30184936523438 90.95913696289062 208.42337036132812 99.51029205322266" stroke-width="0.0" fill="rgb(60, 61, 61)" opacity="0.99001557"/>
    <path d="M 190.0499725341797 226.9066162109375 C 188.1750030517578 232.62423706054688 182.57640075683594 238.03427124023438 175.13075256347656 240.01284790039062 C 169.22869873046875 238.11497497558594 163.25564575195312 233.05328369140625 161.01516723632812 225.9642333984375 C 163.0092315673828 218.49871826171875 168.48223876953125 212.9508514404297 176.95350646972656 210.01773071289062 C 184.0209197998047 212.0647430419922 188.0411834716797 219.4026641845703 190.0499725341797 226.9066162109375" stroke-width="0.0" fill="rgb(60, 60, 61)" opacity="0.9900107"/>
    <path d="M 239.74017333984375 196.76010131835938 C 237.57177734375 203.88168334960938 231.70626831054688 209.1060028076172 224.0220947265625 211.00953674316406 C 216.51644897460938 208.98324584960938 211.18402099609375 203.43191528320312 209.76898193359375 195.63731384277344 C 210.9383544921875 188.4237823486328 216.4212188720703 182.92666625976562 223.8588409423828 181.04510498046875 C 231.08135986328125 183.34762573242188 236.3408660888672 189.02589416503906 239.74017333984375 196.76010131835938" stroke-width="0.0" fill="rgb(251, 250, 251)" opacity="0.9905903"/>
    <path d="M 38.13438034057617 166.02793884277344 C 36.048095703125 173.58956909179688 30.649660110473633 179.68299865722656 24.92669105529785 182.9047088623047 C 17.25537872314453 179.11647033691406 11.37255573272705 173.94093322753906 8.106959342956543 166.12208557128906 C 10.053987503051758 158.53819274902344 15.533160209655762 153.03782653808594 24.850082397460938 151.12493896484375 C 32.450687408447266 153.05735778808594 37.95992660522461 158.5420684814453 38.13438034057617 166.02793884277344" stroke-width="0.0" fill="rgb(3, 4, 4)" opacity="0.9900022"/>
    <path d="M 161.65963745117188 89.67903900146484 C 159.005126953125 97.65068817138672 154.10031127929688 103.81892395019531 145.1454315185547 105.98322296142578 C 137.64260864257812 103.93099975585938 132.33221435546875 98.18113708496094 130.0950469970703 89.1564712524414 C 132.05941772460938 81.54951477050781 137.5425262451172 76.04108428955078 145.04698181152344 74.02909088134766 C 152.84011840820312 77.74771881103516 158.60765075683594 83.066162109375 161.65963745117188 89.67903900146484" stroke-width="0.0" fill="rgb(61, 60, 61)" opacity="1.0"/>
    <path d="M 135.9129180908203 205.2959442138672 C 133.69430541992188 214.22021484375 128.23049926757812 219.73171997070312 119.1072769165039 221.95083618164062 C 111.55134582519531 219.94476318359375 106.0468978881836 214.4519805908203 104.01370239257812 206.85247802734375 C 106.06439208984375 197.5746307373047 111.57132720947266 192.05813598632812 119.05978393554688 190.0263214111328 C 127.60253143310547 192.9932098388672 133.64993286132812 198.10694885253906 135.9129180908203 205.2959442138672" stroke-width="0.0" fill="rgb(43, 43, 43)" opacity="0.9900087"/>
    <path d="M 136.94317626953125 18.931713104248047 C 134.96286010742188 26.474740982055664 129.47915649414062 31.97493553161621 121.96868896484375 33.97986602783203 C 113.5 30.990381240844727 108.0096206665039 25.5 106.0 17.999998092651367 C 108.00961303710938 10.499981880187988 113.49996185302734 5.0095391273498535 121.18050384521484 2.6719019412994385 C 128.53561401367188 4.812977313995361 133.8233642578125 10.582135200500488 136.94317626953125 18.931713104248047" stroke-width="0.0" fill="rgb(250, 251, 251)" opacity="1.0"/>
    <path d="M 125.0166244506836 40.14100646972656 C 123.04808807373047 47.674034118652344 119.35059356689453 54.9415283203125 111.6404037475586 56.98421096801758 C 102.54718017578125 54.9562873840332 97.26202392578125 49.42777633666992 96.99018859863281 41.85105514526367 C 98.91719818115234 34.304901123046875 104.12434387207031 28.51945686340332 111.35939025878906 26.002866744995117 C 118.83358764648438 27.563817977905273 123.15934753417969 34.023101806640625 125.0166244506836 40.14100646972656" stroke-width="0.0" fill="rgb(4, 5, 4)" opacity="0.9900056"/>
    <path d="M 20.7741756439209 180.94110107421875 C 18.936105728149414 188.44473266601562 13.455692291259766 193.96066284179688 5.956122398376465 195.97119140625 C -2.21321439743042 192.57431030273438 -7.870615005493164 187.31053161621094 -10.085954666137695 179.80963134765625 C -8.541838645935059 171.7934112548828 -3.33451509475708 166.09754943847656 4.114135265350342 164.03660583496094 C 11.58612060546875 167.8968048095703 17.05504035949707 173.42581176757812 20.7741756439209 180.94110107421875" stroke-width="0.0" fill="rgb(171, 168, 171)" opacity="1.0"/>
    <path d="M 234.86073303222656 154.90362548828125 C 232.91836547851562 162.42926025390625 227.43649291992188 167.938720703125 218.11912536621094 169.97938537597656 C 210.55377197265625 167.95855712890625 205.15003967285156 162.4127197265625 203.0390625 153.1016082763672 C 205.08749389648438 145.621337890625 210.64453125 140.1326141357422 218.58900451660156 138.09603881835938 C 227.25897216796875 140.2720184326172 232.73085021972656 145.73414611816406 234.86073303222656 154.90362548828125" stroke-width="0.0" fill="rgb(132, 131, 131)" opacity="0.99002457"/>
    <path d="M 155.00877380371094 140.941162109375 C 153.1544952392578 146.87025451660156 148.2532501220703 152.88812255859375 141.41262817382812 154.68841552734375 C 134.35043334960938 152.21730041503906 128.9570770263672 146.59140014648438 126.98330688476562 139.36126708984375 C 128.93533325195312 133.3965301513672 134.3983917236328 127.93766784667969 141.3513641357422 125.96916198730469 C 147.56919860839844 127.94829559326172 153.02296447753906 133.44595336914062 155.00877380371094 140.941162109375" stroke-width="0.0" fill="rgb(2, 3, 3)" opacity="0.9900038"/>
    <path d="M 78.01780700683594 62.13505172729492 C 76.0190658569336 69.53723907470703 70.54096984863281 75.02735900878906 63.03752899169922 77.02940368652344 C 55.79719924926758 76.89860534667969 51.79611587524414 69.8908920288086 48.20516586303711 62.116371154785156 C 50.11997985839844 54.742332458496094 56.97293472290039 50.86005401611328 64.82200622558594 48.96231460571289 C 70.69951629638672 50.783470153808594 76.08374786376953 56.35363006591797 78.01780700683594 62.13505172729492" stroke-width="0.0" fill="rgb(227, 227, 228)" opacity="0.9900022"/>
    <path d="M 195.96200561523438 39.92953109741211 C 193.9303741455078 47.375919342041016 188.1272430419922 51.251556396484375 179.0460662841797 54.96943664550781 C 171.53001403808594 52.96455764770508 166.03797912597656 47.469024658203125 164.15013122558594 39.96385955810547 C 167.9617156982422 32.44547653198242 173.44757080078125 26.96674346923828 180.89466857910156 24.95303726196289 C 186.61550903320312 26.888334274291992 192.09808349609375 32.38896560668945 195.96200561523438 39.92953109741211" stroke-width="0.0" fill="rgb(109, 110, 111)" opacity="0.99000895"/>
    <path d="M 130.84922790527344 19.750314712524414 C 128.32955932617188 26.707881927490234 122.60865020751953 32.0451774597168 116.8698959350586 34.00908660888672 C 107.8001937866211 32.05337905883789 102.05066680908203 28.431156158447266 100.05085754394531 20.921886444091797 C 102.99018096923828 12.493376731872559 108.49844360351562 7.008487701416016 115.99959564208984 4.999396324157715 C 123.5 7.009618759155273 128.99038696289062 12.5 130.84922790527344 19.750314712524414" stroke-width="0.0" fill="rgb(250, 251, 251)" opacity="0.9900062"/>
    <path d="M 213.85052490234375 234.59158325195312 C 210.71160888671875 240.97915649414062 204.8869171142578 246.31155395507812 197.46429443359375 249.68695068359375 C 190.1352996826172 247.24703979492188 184.17855834960938 242.14990234375 182.03004455566406 233.79302978515625 C 184.07891845703125 225.58441162109375 189.59738159179688 220.1201934814453 197.2901153564453 218.29043579101562 C 205.5017852783203 221.00559997558594 211.00465393066406 226.49537658691406 213.85052490234375 234.59158325195312" stroke-width="0.0" fill="rgb(255, 255, 255)" opacity="1.0"/>
    <path d="M 145.01588439941406 183.248046875 C 143.01556396484375 190.5315399169922 137.52978515625 196.01187133789062 130.1755828857422 198.0077667236328 C 124.47544860839844 196.01048278808594 118.98060607910156 190.52755737304688 116.97752380371094 183.133544921875 C 117.40153503417969 177.20513916015625 124.37019348144531 171.93972778320312 131.71836853027344 169.98568725585938 C 137.5485382080078 171.96124267578125 143.02415466308594 177.45668029785156 145.01588439941406 183.248046875" stroke-width="0.0" fill="rgb(252, 252, 252)" opacity="0.99000126"/>
    <path d="M 117.60328674316406 152.30648803710938 C 114.27428436279297 159.88719177246094 108.99453735351562 165.62322998046875 102.58417510986328 168.78248596191406 C 95.43510437011719 165.07957458496094 89.97054290771484 159.55101013183594 87.96194458007812 152.07150268554688 C 89.801513671875 146.32730102539062 95.34700775146484 140.87339782714844 102.70619201660156 138.73638916015625 C 109.59650421142578 139.96844482421875 115.45638275146484 145.24615478515625 117.60328674316406 152.30648803710938" stroke-width="0.0" fill="rgb(41, 42, 43)" opacity="0.9900037"/>
    <path d="M 201.8914337158203 13.175995826721191 C 199.7371063232422 21.247859954833984 194.29092407226562 26.84263038635254 185.1472930908203 28.969072341918945 C 177.61917114257812 26.922607421875 172.29920959472656 21.304536819458008 170.7303924560547 13.327091217041016 C 172.98617553710938 5.530717849731445 178.59756469726562 0.20029835402965546 186.48342895507812 -2.4558534622192383 C 194.171142578125 -0.6588205099105835 199.72683715820312 4.804874897003174 201.8914337158203 13.175995826721191" stroke-width="0.0" fill="rgb(255, 255, 255)" opacity="0.9905749"/>
    <path d="M 44.13368606567383 210.85189819335938 C 43.169464111328125 216.8347930908203 36.69730758666992 222.11590576171875 29.621963500976562 224.0475616455078 C 23.315217971801758 222.12937927246094 17.913806915283203 216.6591796875 15.981186866760254 209.06204223632812 C 16.063610076904297 201.55938720703125 21.550018310546875 196.04330444335938 29.077190399169922 194.0152587890625 C 38.39474868774414 196.07574462890625 42.47858810424805 201.69546508789062 44.13368606567383 210.85189819335938" stroke-width="0.0" fill="rgb(2, 2, 2)" opacity="0.9900055"/>
    <path d="M 194.0548858642578 195.1515655517578 C 192.12704467773438 202.95880126953125 188.2960662841797 209.908203125 180.46620178222656 211.94781494140625 C 171.58999633789062 209.91815185546875 166.11587524414062 204.39793395996094 165.9635467529297 196.92349243164062 C 167.9081268310547 189.36549377441406 173.3416290283203 183.84152221679688 180.93756103515625 180.04681396484375 C 188.42982482910156 182.05111694335938 193.78155517578125 187.6160125732422 194.0548858642578 195.1515655517578" stroke-width="0.0" fill="rgb(236, 236, 237)" opacity="0.9901012"/>
    <path d="M 25.961557388305664 136.86830139160156 C 23.940919876098633 144.43577575683594 18.431638717651367 149.9327850341797 10.654402732849121 151.9683074951172 C 1.5805249214172363 149.93829345703125 -3.8300085067749023 144.3838653564453 -4.448241710662842 136.7913360595703 C -2.0912280082702637 129.41815185546875 3.439424514770508 123.96916961669922 10.918484687805176 121.98033142089844 C 16.58026695251465 123.94278717041016 22.135034561157227 129.40164184570312 25.961557388305664 136.86830139160156" stroke-width="0.0" fill="rgb(182, 182, 182)" opacity="0.99001324"/>
    <path d="M 108.9866714477539 92.88652801513672 C 106.96198272705078 100.46188354492188 101.4603271484375 105.95854187011719 92.18681335449219 107.98432922363281 C 84.5340576171875 105.96253967285156 79.04710388183594 100.4626235961914 77.05216979980469 91.7833023071289 C 79.04403686523438 83.53240966796875 84.52886199951172 78.03335571289062 92.07840728759766 76.01764678955078 C 101.43634796142578 78.06544494628906 106.94657897949219 83.55838012695312 108.9866714477539 92.88652801513672" stroke-width="0.0" fill="rgb(69, 70, 70)" opacity="0.9900351"/>
    <path d="M 181.6074981689453 100.10266876220703 C 180.26943969726562 108.81092071533203 174.84251403808594 114.38944244384766 167.32394409179688 116.60888671875 C 159.32867431640625 114.10206604003906 153.59327697753906 108.77423095703125 151.4350128173828 101.53162384033203 C 154.75643920898438 94.25045776367188 160.25904846191406 88.78438568115234 167.91139221191406 85.08358001708984 C 175.45870971679688 87.04869079589844 180.951904296875 92.54106140136719 181.6074981689453 100.10266876220703" stroke-width="0.0" fill="rgb(8, 8, 7)" opacity="0.99001914"/>
    <path d="M 186.01565551757812 224.06246948242188 C 184.01853942871094 231.54100036621094 178.54824829101562 237.03395080566406 172.79554748535156 239.01048278808594 C 164.11264038085938 237.05747985839844 158.0597686767578 233.4107208251953 156.0152130126953 224.08944702148438 C 158.02841186523438 216.52188110351562 163.52001953125 211.02432250976562 171.02386474609375 209.0102081298828 C 178.7124481201172 212.54397583007812 184.07443237304688 218.36700439453125 186.01565551757812 224.06246948242188" stroke-width="0.0" fill="rgb(19, 19, 19)" opacity="0.9900052"/>
    <path d="M 123.04122161865234 138.8551788330078 C 122.63404083251953 146.05197143554688 116.91504669189453 151.1556396484375 108.47279357910156 152.21157836914062 C 100.55442810058594 151.9194793701172 95.04118347167969 146.45748901367188 93.0585708618164 138.94631958007812 C 96.85384368896484 131.2987518310547 102.23722076416016 125.58719635009766 108.21427154541016 123.82672882080078 C 115.65039825439453 125.87358093261719 121.08182525634766 131.36981201171875 123.04122161865234 138.8551788330078" stroke-width="0.0" fill="rgb(159, 159, 160)" opacity="0.9900149"/>
    <path d="M 159.92884826660156 150.6681671142578 C 157.8975830078125 158.39352416992188 152.40113830566406 163.91635131835938 144.7809600830078 165.9618682861328 C 135.56179809570312 163.93470764160156 130.0830841064453 158.43319702148438 129.92088317871094 150.7063751220703 C 131.3776397705078 142.09283447265625 135.81126403808594 136.18505859375 144.8992919921875 134.03390502929688 C 152.4598846435547 136.039794921875 157.9246063232422 141.5509796142578 159.92884826660156 150.6681671142578" stroke-width="0.0" fill="rgb(116, 117, 117)" opacity="0.9900741"/>
    <path d="M 87.71806335449219 248.50164794921875 C 85.3263931274414 255.6249542236328 79.47207641601562 260.9056091308594 71.96204376220703 262.9617614746094 C 64.50001525878906 260.9903869628906 59.00983428955078 255.4999237060547 57.14173126220703 248.16566467285156 C 59.426063537597656 240.96929931640625 65.02400207519531 235.60035705566406 72.53531646728516 232.89544677734375 C 79.04978942871094 235.0087890625 84.34797668457031 241.07508850097656 87.71806335449219 248.50164794921875" stroke-width="0.0" fill="rgb(255, 255, 255)" opacity="0.990257"/>
  </g>
</svg>
