<?xml version="1.0" ?>
<svg xmlns="http://www.w3.org/2000/svg" version="1.1" width="256" height="256">
  <defs/>
  <g>
    <path d="M 174.01026916503906 99.02603149414062 C 172.00738525390625 106.52177429199219 166.52291870117188 112.0099868774414 159.03915405273438 114.01110076904297 C 152.82249450683594 112.37735748291016 147.02438354492188 107.45320892333984 144.81625366210938 99.69389343261719 C 146.27734375 91.65215301513672 151.57411193847656 86.0455093383789 159.0201416015625 85.94034576416016 C 166.56314086914062 87.98126220703125 173.8967742919922 93.14949035644531 174.01026916503906 99.02603149414062" stroke-width="0.0" fill="rgb(15, 16, 15)" opacity="0.99000245"/>
    <path d="M 154.0 229.0 C 151.99038696289062 236.5 146.5 241.99038696289062 139.0 244.0 C 131.5 241.99038696289062 126.0096206665039 236.5 124.0 229.0 C 126.0096206665039 221.5 131.5 216.00961303710938 139.0003662109375 213.99880981445312 C 146.5000457763672 216.0094757080078 151.99038696289062 221.5 154.0 229.0" stroke-width="0.0" fill="rgb(113, 113, 113)" opacity="1.0"/>
    <path d="M 171.00411987304688 186.99038696289062 C 168.99014282226562 194.49913024902344 163.48606872558594 199.94338989257812 155.19248962402344 202.82850646972656 C 147.6568145751953 200.87294006347656 142.16612243652344 195.325927734375 141.7919464111328 187.7423553466797 C 142.20364379882812 178.69419860839844 147.6923065185547 173.1941680908203 155.47935485839844 171.22003173828125 C 163.80950927734375 173.50460815429688 169.06129455566406 179.34877014160156 171.00411987304688 186.99038696289062" stroke-width="0.0" fill="rgb(239, 239, 240)" opacity="1.0"/>
    <path d="M 143.19537353515625 235.2792510986328 C 141.6437530517578 243.26162719726562 136.35580444335938 248.9096221923828 128.74363708496094 250.97091674804688 C 119.6949234008789 248.87904357910156 114.4551010131836 243.18585205078125 112.87063598632812 235.19720458984375 C 115.0096206665039 227.5 120.5 222.00961303710938 128.0 220.0 C 135.5 222.00961303710938 140.99038696289062 227.5 143.19537353515625 235.2792510986328" stroke-width="0.0" fill="rgb(111, 110, 110)" opacity="1.0"/>
    <path d="M 140.0 77.0 C 137.99038696289062 84.5 132.5 89.9903793334961 124.09327697753906 92.9364013671875 C 116.55448913574219 90.94539642333984 111.05235290527344 85.44639587402344 109.04425048828125 77.92303466796875 C 112.0096206665039 69.5 117.5 64.0096206665039 125.0 62.0 C 132.5 64.0096206665039 137.99038696289062 69.5 140.0 77.0" stroke-width="0.0" fill="rgb(110, 109, 110)" opacity="1.0"/>
    <path d="M 78.85675811767578 46.2133903503418 C 76.989990234375 53.498661041259766 71.4817123413086 58.93001174926758 64.88954162597656 60.04568862915039 C 57.35095977783203 58.07761001586914 51.681968688964844 52.733848571777344 48.9606819152832 45.63188934326172 C 51.461143493652344 39.248260498046875 57.368194580078125 33.93941116333008 64.81376647949219 31.973012924194336 C 70.69813537597656 33.89231872558594 76.42012023925781 39.192291259765625 78.85675811767578 46.2133903503418" stroke-width="0.0" fill="rgb(111, 111, 111)" opacity="0.9900185"/>
    <path d="M 266.0 99.0 C 263.9903869628906 106.5 258.5 111.9903793334961 250.18580627441406 114.8708267211914 C 242.63360595703125 112.89134216308594 237.21377563476562 107.33184051513672 235.51502990722656 99.52142333984375 C 238.00961303710938 91.5 243.5 86.0096206665039 251.0 84.0 C 258.5 86.0096206665039 263.9903869628906 91.5 266.0 99.0" stroke-width="0.0" fill="rgb(105, 104, 105)" opacity="1.0"/>
    <path d="M 264.0 50.0 C 261.9903869628906 57.5 256.5 62.990379333496094 249.0 65.0 C 241.5 62.990379333496094 236.00961303710938 57.5 234.0 50.0 C 236.00961303710938 42.5 241.5 37.009620666503906 249.0 35.0 C 256.5 37.009620666503906 261.9903869628906 42.5 264.0 50.0" stroke-width="0.0" fill="rgb(238, 237, 239)" opacity="1.0"/>
    <path d="M 260.4230041503906 235.5131072998047 C 258.8049621582031 243.3639678955078 253.40501403808594 248.9288787841797 244.2012176513672 250.9790496826172 C 236.5669708251953 248.94265747070312 231.0918731689453 243.41961669921875 229.18601989746094 235.79571533203125 C 232.00961303710938 227.5 237.5 222.00961303710938 245.0 220.0 C 252.5 222.00961303710938 257.9903869628906 227.5 260.4230041503906 235.5131072998047" stroke-width="0.0" fill="rgb(111, 110, 110)" opacity="1.0"/>
    <path d="M 104.823486328125 151.2399139404297 C 102.9903793334961 158.5 97.5 163.99038696289062 90.41067504882812 165.63682556152344 C 83.2061767578125 163.29383850097656 77.60929870605469 157.81332397460938 74.26206970214844 151.48426818847656 C 77.01072692871094 143.50030517578125 82.5 138.00961303710938 89.252685546875 136.83529663085938 C 96.73157501220703 138.85301208496094 102.40877532958984 144.1817169189453 104.823486328125 151.2399139404297" stroke-width="0.0" fill="rgb(154, 153, 154)" opacity="0.9900496"/>
    <path d="M 140.00035095214844 215.9998779296875 C 137.99038696289062 223.5 132.5 228.99038696289062 124.9683837890625 231.01382446289062 C 117.11216735839844 229.20040893554688 111.19342803955078 224.1447296142578 109.07048034667969 216.76016235351562 C 111.1959228515625 207.6844024658203 116.68073272705078 202.18402099609375 124.3757553100586 200.3586883544922 C 132.5 203.00961303710938 137.990478515625 208.49996948242188 140.00035095214844 215.9998779296875" stroke-width="0.0" fill="rgb(112, 112, 112)" opacity="0.99216735"/>
    <path d="M 70.94273376464844 160.6813507080078 C 68.87992095947266 168.32827758789062 63.262020111083984 173.7022705078125 54.95759582519531 175.75888061523438 C 47.479610443115234 173.24473571777344 42.063201904296875 167.4227294921875 40.306365966796875 160.24415588378906 C 42.4637336730957 152.92543029785156 47.927642822265625 147.47132873535156 55.315853118896484 145.32032775878906 C 62.992156982421875 146.6644744873047 68.77367401123047 151.84930419921875 70.94273376464844 160.6813507080078" stroke-width="0.0" fill="rgb(214, 213, 214)" opacity="1.0"/>
    <path d="M 128.20741271972656 236.27883911132812 C 126.62744140625 244.2364501953125 121.3259506225586 249.88482666015625 112.18468475341797 251.97177124023438 C 104.60848236083984 249.92669677734375 99.26107788085938 244.327880859375 97.70361328125 236.3918914794922 C 100.0096206665039 228.5 105.5 223.00961303710938 113.00069427490234 220.99935913085938 C 120.5024642944336 223.0073699951172 125.99340057373047 228.49729919433594 128.20741271972656 236.27883911132812" stroke-width="0.0" fill="rgb(110, 110, 110)" opacity="1.0"/>
    <path d="M 67.94757843017578 251.87652587890625 C 65.86502075195312 259.2406921386719 60.000972747802734 264.2904357910156 52.13279724121094 265.97491455078125 C 45.04342269897461 263.6169738769531 39.85377883911133 257.7796325683594 37.96483612060547 251.8170166015625 C 39.95889663696289 244.4415283203125 45.442848205566406 238.96221923828125 52.928985595703125 236.9021453857422 C 60.08845138549805 237.25148010253906 65.21867370605469 243.1183319091797 67.94757843017578 251.87652587890625" stroke-width="0.0" fill="rgb(118, 118, 118)" opacity="0.99000543"/>
    <path d="M 124.0 148.0 C 121.9903793334961 155.5 116.5 160.99038696289062 109.03833770751953 163.09815979003906 C 102.14356994628906 160.56222534179688 96.87615966796875 154.72250366210938 94.9214096069336 147.32147216796875 C 96.41495513916016 139.81536865234375 100.653564453125 134.09414672851562 108.11799621582031 132.05308532714844 C 116.51322937011719 134.96517944335938 121.99063873291016 140.4990997314453 124.0 148.0" stroke-width="0.0" fill="rgb(216, 215, 216)" opacity="0.9900548"/>
    <path d="M 130.6393585205078 152.65939331054688 C 128.85916137695312 160.3900146484375 123.41816711425781 165.93626403808594 115.9216079711914 167.9608612060547 C 107.34989929199219 165.0054168701172 101.2725601196289 159.98841857910156 99.09195709228516 152.78286743164062 C 102.0096206665039 144.5 107.5 139.00961303710938 115.0 137.0 C 122.5 139.00961303710938 127.9903793334961 144.5 130.6393585205078 152.65939331054688" stroke-width="0.0" fill="rgb(157, 157, 156)" opacity="1.0"/>
    <path d="M 175.00607299804688 188.10238647460938 C 173.3640594482422 196.08570861816406 168.3129119873047 201.90716552734375 160.7931365966797 203.98208618164062 C 151.56700134277344 201.93458557128906 146.06283569335938 196.43411254882812 144.0279541015625 188.7004852294922 C 146.10977172851562 179.75015258789062 152.86807250976562 175.7860107421875 160.85049438476562 173.900634765625 C 167.88851928710938 174.3232879638672 172.89968872070312 180.50086975097656 175.00607299804688 188.10238647460938" stroke-width="0.0" fill="rgb(105, 104, 104)" opacity="0.9900125"/>
    <path d="M 245.55841064453125 126.40808868408203 C 242.99038696289062 134.5 237.5 139.99038696289062 230.0 142.0 C 222.5 139.99038696289062 217.00961303710938 134.5 214.0799560546875 126.11237335205078 C 216.06199645996094 118.56060028076172 221.55914306640625 113.05818176269531 229.220947265625 111.03030395507812 C 238.3944854736328 113.08501434326172 243.82699584960938 118.63536071777344 245.55841064453125 126.40808868408203" stroke-width="0.0" fill="rgb(111, 111, 111)" opacity="0.9903053"/>
    <path d="M 268.0 183.0 C 265.9903869628906 190.5 260.5 195.99038696289062 252.4924774169922 198.44366455078125 C 244.65679931640625 196.78961181640625 239.09515380859375 191.38038635253906 237.0990753173828 183.84613037109375 C 240.00961303710938 175.5 245.5 170.00961303710938 253.0 168.0 C 260.5 170.00961303710938 265.9903869628906 175.5 268.0 183.0" stroke-width="0.0" fill="rgb(114, 114, 114)" opacity="1.0"/>
    <path d="M 113.44147491455078 177.49606323242188 C 111.7808837890625 185.3368682861328 106.37494659423828 190.89987182617188 98.82586669921875 192.87525939941406 C 90.5 189.99038696289062 85.0096206665039 184.5 83.0 177.0 C 85.0096206665039 169.5 90.5 164.00961303710938 98.0 162.0 C 105.5 164.00961303710938 110.9903793334961 169.5 113.44147491455078 177.49606323242188" stroke-width="0.0" fill="rgb(233, 233, 234)" opacity="1.0"/>
    <path d="M 51.06638717651367 38.9030876159668 C 49.83365249633789 45.37510299682617 44.403568267822266 50.92508316040039 36.98456573486328 52.990047454833984 C 29.5 50.990379333496094 24.009618759155273 45.5 22.904996871948242 38.87400436401367 C 24.953893661499023 31.439342498779297 30.443979263305664 25.9657039642334 37.60763168334961 23.97907829284668 C 43.55613708496094 25.963159561157227 49.03730773925781 31.443756103515625 51.06638717651367 38.9030876159668" stroke-width="0.0" fill="rgb(119, 119, 118)" opacity="0.9900057"/>
    <path d="M 197.89480590820312 45.16975784301758 C 195.65003967285156 53.699344635009766 188.9501953125 58.25089645385742 181.056884765625 61.975032806396484 C 173.54734802246094 59.95641326904297 168.07386779785156 54.44154739379883 166.1669464111328 46.82615661621094 C 169.03985595703125 38.582733154296875 174.81748962402344 33.591285705566406 182.9044952392578 31.85870361328125 C 190.44468688964844 32.05781173706055 195.9319610595703 37.55891799926758 197.89480590820312 45.16975784301758" stroke-width="0.0" fill="rgb(109, 108, 108)" opacity="1.0"/>
    <path d="M 157.0 125.0 C 154.99038696289062 132.5 149.5 137.99038696289062 142.0000457763672 139.99998474121094 C 134.50369262695312 137.98927307128906 129.12200927734375 132.46356201171875 127.7208480834961 124.64717102050781 C 129.01026916503906 117.50017547607422 134.5 112.0096206665039 142.0 110.0 C 149.5 112.0096206665039 154.99038696289062 117.5 157.0 125.0" stroke-width="0.0" fill="rgb(224, 224, 224)" opacity="1.0"/>
    <path d="M 270.0 226.0 C 267.9902648925781 233.49960327148438 262.4965515136719 238.9791259765625 255.6521759033203 240.20797729492188 C 248.20462036132812 238.22259521484375 242.64501953125 232.84112548828125 240.37144470214844 225.63853454589844 C 242.00961303710938 218.5 247.5 213.00961303710938 255.0 211.0 C 262.5 213.00961303710938 267.9903869628906 218.5 270.0 226.0" stroke-width="0.0" fill="rgb(171, 169, 169)" opacity="0.99010587"/>
    <path d="M 181.17132568359375 39.81780242919922 C 180.08201599121094 46.709716796875 174.96917724609375 52.6876106262207 166.08895874023438 54.96975326538086 C 158.57241821289062 52.9453239440918 153.1613311767578 47.391841888427734 151.52210998535156 39.60651397705078 C 154.5219268798828 32.16701889038086 160.31239318847656 26.91135597229004 166.25474548339844 24.97888946533203 C 173.55836486816406 26.964365005493164 179.06057739257812 32.43275451660156 181.17132568359375 39.81780242919922" stroke-width="0.0" fill="rgb(110, 110, 110)" opacity="0.9900093"/>
    <path d="M 155.0 107.0 C 152.99038696289062 114.5 147.5 119.9903793334961 140.0 122.0 C 132.5 119.9903793334961 127.0096206665039 114.5 125.0 107.0 C 127.0096206665039 99.5 132.5 94.0096206665039 140.0 92.0 C 147.5 94.0096206665039 152.99038696289062 99.5 155.0 107.0" stroke-width="0.0" fill="rgb(4, 4, 4)" opacity="1.0"/>
    <path d="M 153.97698974609375 83.12032318115234 C 151.82374572753906 92.15172576904297 145.84507751464844 97.15665435791016 138.0189208984375 99.00729370117188 C 130.5 96.9903793334961 125.0096206665039 91.5 123.0 84.0 C 125.0096206665039 76.5 130.5 71.0096206665039 138.9462432861328 68.03050231933594 C 146.459228515625 70.03984832763672 151.95155334472656 75.54472351074219 153.97698974609375 83.12032318115234" stroke-width="0.0" fill="rgb(114, 113, 113)" opacity="1.0"/>
    <path d="M 118.96288299560547 172.0661163330078 C 116.51512145996094 181.25428771972656 111.35686492919922 186.90809631347656 103.9095230102539 187.08840942382812 C 95.67447662353516 185.56700134277344 90.01362609863281 180.4863739013672 88.25311279296875 173.3399200439453 C 90.71343231201172 166.2935333251953 96.37115478515625 160.9353485107422 102.34366607666016 158.98355102539062 C 109.60795593261719 160.95208740234375 116.90059661865234 165.8801727294922 118.96288299560547 172.0661163330078" stroke-width="0.0" fill="rgb(57, 57, 57)" opacity="0.9900045"/>
    <path d="M 226.585693359375 80.43423461914062 C 225.0230255126953 87.57209777832031 219.66729736328125 93.30824279785156 212.28939819335938 95.48761749267578 C 204.5 92.9903793334961 199.00961303710938 87.5 196.3516387939453 79.57466125488281 C 198.57786560058594 72.19471740722656 204.0821075439453 66.3835678100586 211.45216369628906 64.15680694580078 C 218.7952423095703 67.66114807128906 224.2834014892578 73.21646118164062 226.585693359375 80.43423461914062" stroke-width="0.0" fill="rgb(239, 239, 240)" opacity="0.9906317"/>
    <path d="M 43.19657897949219 47.78523635864258 C 41.990379333496094 54.5 36.5 59.990379333496094 29.0 62.0 C 21.5 59.990379333496094 16.009618759155273 54.5 13.642464637756348 46.676822662353516 C 15.417067527770996 38.858375549316406 20.74153709411621 33.14839172363281 28.073707580566406 32.545406341552734 C 35.58515930175781 34.938934326171875 41.07917785644531 40.408634185791016 43.19657897949219 47.78523635864258" stroke-width="0.0" fill="rgb(245, 244, 245)" opacity="0.9900184"/>
    <path d="M 238.54550170898438 233.60214233398438 C 236.84718322753906 241.39466857910156 231.42877197265625 246.94613647460938 223.74765014648438 248.97903442382812 C 214.55398559570312 246.9453887939453 209.05001831054688 241.4480438232422 207.04000854492188 233.92874145507812 C 210.00180053710938 225.49742126464844 215.49954223632812 220.00946044921875 222.99998474121094 218.0 C 230.5 220.00961303710938 235.9905242919922 225.4999542236328 238.54550170898438 233.60214233398438" stroke-width="0.0" fill="rgb(111, 110, 110)" opacity="1.0"/>
    <path d="M 157.95335388183594 151.07611083984375 C 154.99038696289062 159.5 149.5 164.99038696289062 142.0 167.0 C 134.5 164.99038696289062 129.00961303710938 159.5 127.0 152.0 C 129.00961303710938 144.5 134.5 139.00961303710938 142.6693115234375 136.3800048828125 C 150.41334533691406 138.1240234375 155.94845581054688 143.5625762939453 157.95335388183594 151.07611083984375" stroke-width="0.0" fill="rgb(116, 116, 116)" opacity="1.0"/>
    <path d="M 71.1705551147461 221.7413330078125 C 68.99335479736328 229.50865173339844 63.54148864746094 235.10391235351562 56.353981018066406 237.83291625976562 C 49.414371490478516 234.1063995361328 43.957767486572266 228.5677490234375 41.97317886352539 221.22801208496094 C 43.896183013916016 214.9824981689453 47.656742095947266 208.0770263671875 55.29072952270508 206.02667236328125 C 64.35545349121094 208.09185791015625 69.63362884521484 213.73805236816406 71.1705551147461 221.7413330078125" stroke-width="0.0" fill="rgb(115, 115, 115)" opacity="0.99001664"/>
    <path d="M 124.04839324951172 35.91780090332031 C 123.01948547363281 42.51053237915039 117.5108642578125 48.02009201049805 110.05123901367188 50.13233184814453 C 102.50006866455078 47.99013900756836 97.0096206665039 42.499996185302734 95.91382598876953 35.879512786865234 C 97.95441436767578 28.43918800354004 103.4428482055664 22.963687896728516 109.51641845703125 20.977407455444336 C 116.55648040771484 22.963119506835938 122.03693389892578 28.443500518798828 124.04839324951172 35.91780090332031" stroke-width="0.0" fill="rgb(116, 115, 115)" opacity="0.99000365"/>
    <path d="M 25.75658416748047 65.78941345214844 C 23.92294692993164 73.44745635986328 18.460590362548828 78.96287536621094 10.894116401672363 80.9649887084961 C 1.5899858474731445 78.93196105957031 -3.8136866092681885 73.37107849121094 -5.439433574676514 65.52783203125 C -2.9903810024261475 57.5 2.5 52.009620666503906 10.0 50.0 C 17.5 52.009620666503906 22.990381240844727 57.5 25.75658416748047 65.78941345214844" stroke-width="0.0" fill="rgb(13, 13, 13)" opacity="0.99001724"/>
    <path d="M 260.9847717285156 219.0184326171875 C 259.1629638671875 226.81948852539062 253.98394775390625 232.63546752929688 246.46861267089844 234.8118896484375 C 238.3947296142578 232.2364501953125 232.9988555908203 226.5288848876953 230.99966430664062 219.00094604492188 C 233.00961303710938 211.5 238.5 206.00961303710938 246.0 204.0 C 253.5 206.00961303710938 258.9903869628906 211.5 260.9847717285156 219.0184326171875" stroke-width="0.0" fill="rgb(115, 115, 115)" opacity="0.9903165"/>
    <path d="M 168.662353515625 218.3048858642578 C 165.99038696289062 226.5 160.5 231.99038696289062 153.0 234.0 C 145.5 231.99038696289062 140.00961303710938 226.5 137.89480590820312 218.81967163085938 C 139.4681854248047 210.81858825683594 144.69415283203125 205.1189727783203 153.8678436279297 203.0257110595703 C 161.4345245361328 205.05453491210938 166.88156127929688 210.5873260498047 168.662353515625 218.3048858642578" stroke-width="0.0" fill="rgb(107, 106, 106)" opacity="0.9911908"/>
    <path d="M 255.21047973632812 50.54781723022461 C 253.53907775878906 57.83694839477539 247.6554718017578 63.060699462890625 239.12374877929688 65.91831970214844 C 231.57713317871094 63.9276123046875 226.08480834960938 58.417945861816406 224.14247131347656 50.8768310546875 C 227.1248779296875 42.01971435546875 231.90333557128906 36.370018005371094 239.6082000732422 34.597801208496094 C 247.495361328125 37.01113510131836 252.89730834960938 42.53132247924805 255.21047973632812 50.54781723022461" stroke-width="0.0" fill="rgb(180, 179, 180)" opacity="1.0"/>
    <path d="M 47.03933334350586 96.9414291381836 C 46.26308822631836 103.85977935791016 40.65287399291992 108.46022033691406 33.915855407714844 110.0258560180664 C 26.474943161010742 108.01404571533203 20.992679595947266 102.52239227294922 18.992521286010742 95.06729125976562 C 20.982513427734375 89.45822143554688 26.435346603393555 83.88043212890625 33.25898742675781 80.04071044921875 C 39.5449333190918 83.94442749023438 45.0185546875 89.46435546875 47.03933334350586 96.9414291381836" stroke-width="0.0" fill="rgb(27, 28, 28)" opacity="0.9900013"/>
    <path d="M 244.0 217.0 C 241.99038696289062 224.5 236.5 229.99038696289062 229.0 232.0 C 221.5 229.99038696289062 216.00961303710938 224.5 214.0 217.0 C 216.00961303710938 209.5 221.5 204.00961303710938 229.0 202.0 C 236.5 204.00961303710938 241.99038696289062 209.5 244.0 217.0" stroke-width="0.0" fill="rgb(116, 115, 115)" opacity="1.0"/>
    <path d="M 73.63241577148438 75.42631530761719 C 71.9903793334961 82.5 66.5 87.9903793334961 59.854278564453125 89.09259796142578 C 52.40003967285156 87.06905364990234 46.830936431884766 81.62532043457031 44.887657165527344 75.83379364013672 C 46.85805130004883 68.23197174072266 52.055641174316406 62.35702896118164 58.13773727416992 60.95404815673828 C 65.63957977294922 62.92018127441406 71.24600219726562 68.30220794677734 73.63241577148438 75.42631530761719" stroke-width="0.0" fill="rgb(135, 134, 134)" opacity="0.99000996"/>
    <path d="M 266.0 94.0 C 263.9903869628906 101.5 258.5 106.9903793334961 251.0 109.0 C 243.5 106.9903793334961 238.00961303710938 101.5 236.0 94.0 C 238.00961303710938 86.5 243.5 81.0096206665039 251.0 79.0 C 258.5 81.0096206665039 263.9903869628906 86.5 266.0 94.0" stroke-width="0.0" fill="rgb(119, 118, 118)" opacity="1.0"/>
    <path d="M 88.0 135.0 C 85.9903793334961 142.5 80.5 147.99038696289062 72.11015319824219 150.9433135986328 C 64.67150115966797 148.90774536132812 59.55046081542969 143.15606689453125 57.960670471191406 135.1173095703125 C 60.06910705566406 127.57738494873047 65.5972900390625 122.1346664428711 73.05768585205078 120.07508850097656 C 80.5 122.0096206665039 85.9903793334961 127.5 88.0 135.0" stroke-width="0.0" fill="rgb(33, 33, 34)" opacity="0.991471"/>
    <path d="M 114.10404968261719 233.85012817382812 C 111.9903793334961 241.5 106.5 246.99038696289062 99.0 249.0 C 91.5 246.99038696289062 86.0096206665039 241.5 83.06854248046875 233.0972137451172 C 85.0549087524414 225.55348205566406 90.55553436279297 220.06024169921875 98.13572692871094 218.0723114013672 C 107.1386489868164 220.27810668945312 112.42823791503906 225.95663452148438 114.10404968261719 233.85012817382812" stroke-width="0.0" fill="rgb(105, 104, 105)" opacity="1.0"/>
    <path d="M 248.9702606201172 152.90936279296875 C 246.9346466064453 160.4025421142578 241.34156799316406 165.75808715820312 233.4200439453125 167.32699584960938 C 225.5 164.99038696289062 220.00961303710938 159.5 218.0 152.0 C 220.00961303710938 144.5 225.5 139.00961303710938 233.0106964111328 136.99559020996094 C 240.69717407226562 138.92034912109375 246.65928649902344 144.059814453125 248.9702606201172 152.90936279296875" stroke-width="0.0" fill="rgb(115, 114, 114)" opacity="0.99482423"/>
    <path d="M 185.0170135498047 221.9618682861328 C 182.99038696289062 229.5 177.5 234.99038696289062 170.0 237.0 C 162.5 234.99038696289062 157.00961303710938 229.5 154.78236389160156 221.6910858154297 C 156.32737731933594 213.7185821533203 161.6383514404297 208.0911102294922 169.529541015625 206.0252227783203 C 178.19955444335938 208.155517578125 183.23428344726562 214.06500244140625 185.0170135498047 221.9618682861328" stroke-width="0.0" fill="rgb(108, 108, 108)" opacity="1.0"/>
    <path d="M 270.0 74.0 C 267.9903869628906 81.5 262.5 86.9903793334961 255.0 89.0 C 247.5 86.9903793334961 242.00961303710938 81.5 240.0 74.0 C 242.00961303710938 66.5 247.5 61.009620666503906 255.0 59.0 C 262.5 61.009620666503906 267.9903869628906 66.5 270.0 74.0" stroke-width="0.0" fill="rgb(114, 113, 114)" opacity="0.998177"/>
    <path d="M 144.7236328125 77.26432037353516 C 142.02163696289062 85.5251693725586 136.53407287597656 91.052490234375 129.07301330566406 93.17172241210938 C 121.50038146972656 90.98836517333984 116.00679016113281 85.50102996826172 113.99136352539062 78.00117492675781 C 116.00887298583984 70.4997329711914 121.49993133544922 65.00959777832031 129.88809204101562 62.08225631713867 C 137.43280029296875 64.06224822998047 142.89529418945312 69.5809097290039 144.7236328125 77.26432037353516" stroke-width="0.0" fill="rgb(109, 109, 109)" opacity="1.0"/>
    <path d="M 264.00030517578125 97.00043487548828 C 261.99237060546875 104.50306701660156 256.5045471191406 109.99732971191406 248.32762145996094 112.64775085449219 C 240.5989227294922 110.86897277832031 235.06324768066406 105.42402648925781 233.0421905517578 97.89305114746094 C 235.6592254638672 89.3507080078125 241.4708709716797 83.99964141845703 248.99945068359375 81.9996109008789 C 256.5001525878906 84.00940704345703 261.9904479980469 89.49990844726562 264.00030517578125 97.00043487548828" stroke-width="0.0" fill="rgb(110, 109, 109)" opacity="1.0"/>
    <path d="M 114.95928192138672 206.09274291992188 C 112.81010437011719 215.33448791503906 107.35391998291016 220.86907958984375 98.203369140625 222.9300537109375 C 90.55936431884766 220.93641662597656 85.05549621582031 215.44361877441406 83.04051208496094 207.9213104248047 C 85.98705291748047 199.4934539794922 91.49961853027344 194.00950622558594 99.83380889892578 191.1448211669922 C 107.43205261230469 193.0769805908203 112.94364166259766 198.56028747558594 114.95928192138672 206.09274291992188" stroke-width="0.0" fill="rgb(110, 109, 109)" opacity="0.9902249"/>
    <path d="M 160.45147705078125 159.2833709716797 C 158.5878448486328 167.00491333007812 152.79257202148438 171.63796997070312 144.38453674316406 173.22747802734375 C 137.02284240722656 172.81385803222656 132.5271759033203 166.0612335205078 129.36288452148438 159.17759704589844 C 132.00961303710938 151.5 137.5 146.00961303710938 144.06996154785156 144.97262573242188 C 151.67156982421875 146.92971801757812 157.81494140625 152.11312866210938 160.45147705078125 159.2833709716797" stroke-width="0.0" fill="rgb(236, 236, 237)" opacity="0.9900105"/>
    <path d="M 194.01559448242188 145.13101196289062 C 192.48072814941406 153.10891723632812 187.18917846679688 158.750732421875 179.59588623046875 160.68222045898438 C 171.5 157.99038696289062 166.00961303710938 152.5 164.71664428710938 145.59246826171875 C 166.74957275390625 138.197265625 172.1937255859375 132.74134826660156 179.7383575439453 129.3139190673828 C 186.88697814941406 131.42124938964844 192.0953369140625 137.2957000732422 194.01559448242188 145.13101196289062" stroke-width="0.0" fill="rgb(208, 207, 208)" opacity="1.0"/>
    <path d="M 200.89488220214844 217.86297607421875 C 198.92657470703125 225.419189453125 193.4024658203125 230.8735809326172 185.682861328125 232.64981079101562 C 177.5 229.99038696289062 172.00961303710938 224.5 169.606201171875 216.6293182373047 C 171.39065551757812 208.90386962890625 176.92384338378906 203.4564971923828 184.72430419921875 201.74224853515625 C 192.5 204.00961303710938 197.99038696289062 209.5 200.89488220214844 217.86297607421875" stroke-width="0.0" fill="rgb(109, 109, 108)" opacity="1.0"/>
    <path d="M 269.0000915527344 203.0002899169922 C 266.9941101074219 210.5105438232422 261.5460510253906 216.11277770996094 254.27044677734375 218.0977020263672 C 246.50889587402344 215.96148681640625 241.00990295410156 210.49905395507812 239.0469207763672 203.05833435058594 C 241.1982879638672 195.73313903808594 246.78355407714844 190.36050415039062 254.1969451904297 188.2597198486328 C 261.5 190.00961303710938 266.9903869628906 195.5 269.0000915527344 203.0002899169922" stroke-width="0.0" fill="rgb(143, 142, 143)" opacity="0.9906751"/>
    <path d="M 260.6820068359375 38.3638801574707 C 259.06219482421875 45.61052703857422 253.5546875 50.83341979980469 246.6918182373047 52.09122848510742 C 239.2652587890625 50.17445755004883 233.8009796142578 44.74589157104492 231.92127990722656 37.320884704589844 C 233.15805053710938 30.051841735839844 237.97213745117188 24.52008056640625 245.22901916503906 23.722915649414062 C 252.70811462402344 25.861045837402344 258.3158264160156 31.232097625732422 260.6820068359375 38.3638801574707" stroke-width="0.0" fill="rgb(202, 201, 201)" opacity="1.0"/>
    <path d="M 55.152587890625 55.82706069946289 C 54.817039489746094 63.24333190917969 49.15204620361328 68.55276489257812 41.243282318115234 70.20584869384766 C 33.5 67.9903793334961 28.009618759155273 62.5 26.0 55.0 C 28.009611129760742 47.49997329711914 33.49781799316406 42.00164031982422 40.08140182495117 40.93987274169922 C 47.5539436340332 42.96870040893555 53.07219314575195 48.43327713012695 55.152587890625 55.82706069946289" stroke-width="0.0" fill="rgb(240, 239, 239)" opacity="0.9900746"/>
    <path d="M 32.48956298828125 60.385231018066406 C 30.58589744567871 68.09647369384766 25.135343551635742 73.68876647949219 17.776409149169922 74.03987121582031 C 8.674551963806152 73.79987335205078 3.2529118061065674 68.31082153320312 1.6551976203918457 60.43312072753906 C 4.009618759155273 52.5 9.5 47.009620666503906 17.04412078857422 44.9147834777832 C 24.53219985961914 46.94669723510742 29.99831199645996 52.48412322998047 32.48956298828125 60.385231018066406" stroke-width="0.0" fill="rgb(226, 225, 225)" opacity="0.99000835"/>
    <path d="M 203.81576538085938 213.77308654785156 C 201.8750762939453 221.35379028320312 196.32247924804688 226.7747344970703 188.49755859375 228.44522094726562 C 180.5 225.99038696289062 175.00961303710938 220.5 172.12828063964844 212.18556213378906 C 174.1085205078125 204.63067626953125 179.65684509277344 199.183837890625 187.27291870117188 197.19784545898438 C 194.8860626220703 200.73965454101562 200.6527099609375 205.9839630126953 203.81576538085938 213.77308654785156" stroke-width="0.0" fill="rgb(110, 109, 109)" opacity="0.99122375"/>
    <path d="M 147.97560119628906 202.1564178466797 C 145.8505401611328 211.20880126953125 139.93994140625 216.2244415283203 132.03384399414062 217.9753875732422 C 124.5011215209961 215.97425842285156 118.77165985107422 210.58200073242188 116.07475280761719 202.22988891601562 C 118.20744323730469 194.86280822753906 124.09037780761719 189.76722717285156 132.6765594482422 187.32476806640625 C 140.4005584716797 189.13063049316406 145.94114685058594 194.57374572753906 147.97560119628906 202.1564178466797" stroke-width="0.0" fill="rgb(108, 107, 107)" opacity="0.9901049"/>
    <path d="M 108.9814682006836 176.94252014160156 C 106.96124267578125 184.45855712890625 101.44696807861328 189.92849731445312 93.82345581054688 191.8100128173828 C 85.85201263427734 188.71925354003906 80.59783172607422 183.04054260253906 77.10730743408203 175.13748168945312 C 79.13967895507812 167.87535095214844 86.19384002685547 163.880859375 93.92874908447266 160.192626953125 C 101.4014892578125 162.07830810546875 106.8571548461914 167.6238555908203 108.9814682006836 176.94252014160156" stroke-width="0.0" fill="rgb(231, 231, 231)" opacity="0.9900099"/>
    <path d="M 238.09823608398438 137.30935668945312 C 236.1079864501953 144.6693878173828 230.7250213623047 150.27366638183594 223.6026153564453 152.65513610839844 C 216.5 150.99038696289062 211.00961303710938 145.5 209.01480102539062 138.03204345703125 C 211.20375061035156 130.85072326660156 217.08396911621094 125.77584838867188 223.39259338378906 123.95268249511719 C 230.6320037841797 125.90648651123047 236.14572143554688 131.34934997558594 238.09823608398438 137.30935668945312" stroke-width="0.0" fill="rgb(12, 12, 12)" opacity="0.9900132"/>
    <path d="M 87.97843170166016 220.181884765625 C 85.9080810546875 229.35556030273438 80.26881408691406 234.67068481445312 72.32844543457031 236.26327514648438 C 64.49767303466797 233.99220275878906 59.0072021484375 228.50254821777344 56.647891998291016 220.549072265625 C 58.21950149536133 212.64178466796875 63.58837127685547 207.06106567382812 72.90998840332031 205.01260375976562 C 80.46138000488281 207.03628540039062 85.9511947631836 212.54461669921875 87.97843170166016 220.181884765625" stroke-width="0.0" fill="rgb(107, 106, 106)" opacity="1.0"/>
    <path d="M 240.3505401611328 84.42261505126953 C 238.740234375 92.312255859375 233.3565673828125 97.88455200195312 225.73873901367188 98.03215026855469 C 218.3307342529297 96.16353607177734 212.96795654296875 90.59000396728516 210.9915008544922 83.1986083984375 C 212.97096252441406 77.44511413574219 218.4322052001953 71.9351577758789 225.74978637695312 69.31356048583984 C 232.5 71.0096206665039 237.99038696289062 76.5 240.3505401611328 84.42261505126953" stroke-width="0.0" fill="rgb(22, 22, 21)" opacity="0.99000317"/>
    <path d="M 205.9622344970703 87.07086944580078 C 203.99009704589844 94.4999008178711 198.49998474121094 99.99037170410156 191.69911193847656 101.19004821777344 C 184.14122009277344 99.20108032226562 178.50772094726562 94.01480865478516 176.9563751220703 86.14208984375 C 177.48353576660156 79.02625274658203 183.04537963867188 73.54328155517578 190.09896850585938 72.964599609375 C 197.7965545654297 74.8513412475586 203.6627655029297 79.99930572509766 205.9622344970703 87.07086944580078" stroke-width="0.0" fill="rgb(241, 241, 242)" opacity="1.0"/>
    <path d="M 48.02296447753906 164.89486694335938 C 46.16088104248047 170.72145080566406 40.76160430908203 176.30471801757812 34.9469108581543 178.01812744140625 C 27.463420867919922 176.02011108398438 21.980112075805664 170.5364532470703 19.987985610961914 163.92601013183594 C 21.97492027282715 157.44876098632812 27.417490005493164 151.67630004882812 33.05519104003906 148.09193420410156 C 40.56101989746094 151.95999145507812 46.03972244262695 157.43878173828125 48.02296447753906 164.89486694335938" stroke-width="0.0" fill="rgb(69, 70, 70)" opacity="0.99000156"/>
    <path d="M 142.22653198242188 49.73635482788086 C 140.18357849121094 57.74702453613281 134.80303955078125 63.363792419433594 127.20848083496094 65.26535034179688 C 119.5 62.990379333496094 114.0096206665039 57.5 112.0034408569336 49.99991989135742 C 113.9925308227539 42.4513053894043 119.30538940429688 36.59584045410156 127.9139404296875 34.0325927734375 C 135.38722229003906 36.06966781616211 140.67770385742188 41.70054244995117 142.22653198242188 49.73635482788086" stroke-width="0.0" fill="rgb(109, 108, 111)" opacity="1.0"/>
    <path d="M 156.0 122.0 C 153.99038696289062 129.5 148.5 134.99038696289062 140.9474639892578 137.0220489501953 C 132.9486846923828 135.32125854492188 127.10604858398438 130.28875732421875 125.03912353515625 122.90650939941406 C 128.00961303710938 114.5 133.5 109.0096206665039 141.0 107.0 C 148.5 109.0096206665039 153.99038696289062 114.5 156.0 122.0" stroke-width="0.0" fill="rgb(145, 145, 145)" opacity="1.0"/>
    <path d="M 236.05340576171875 154.76885986328125 C 234.64703369140625 161.3560028076172 229.47349548339844 166.98133850097656 222.95188903808594 168.0290985107422 C 215.47274780273438 166.01422119140625 209.98721313476562 160.52664184570312 207.98509216308594 153.1311492919922 C 209.90069580078125 147.2675018310547 215.03106689453125 141.33905029296875 221.90615844726562 139.1200714111328 C 228.90567016601562 141.46527099609375 234.1433563232422 147.23825073242188 236.05340576171875 154.76885986328125" stroke-width="0.0" fill="rgb(11, 11, 12)" opacity="0.9900024"/>
    <path d="M 242.0 217.0 C 239.99038696289062 224.5 234.5 229.99038696289062 226.994140625 232.0023956298828 C 219.3856201171875 230.03997802734375 213.51705932617188 224.7798309326172 211.28419494628906 217.49932861328125 C 214.00961303710938 209.5 219.5 204.00961303710938 227.0 202.0 C 234.5 204.00961303710938 239.99038696289062 209.5 242.0 217.0" stroke-width="0.0" fill="rgb(113, 113, 112)" opacity="1.0"/>
    <path d="M 126.97335052490234 234.99075317382812 C 124.95854187011719 242.47218322753906 119.47142791748047 247.9557647705078 111.97037506103516 249.97244262695312 C 104.49559020996094 247.99925231933594 99.00839233398438 242.50221252441406 96.9775390625 234.95623779296875 C 98.7718505859375 227.0966033935547 103.86224365234375 221.20440673828125 111.19283294677734 219.0868682861328 C 119.48587799072266 222.02642822265625 124.97667694091797 227.5132293701172 126.97335052490234 234.99075317382812" stroke-width="0.0" fill="rgb(110, 109, 109)" opacity="1.0"/>
    <path d="M 265.1104431152344 66.8075180053711 C 262.9674072265625 74.46199798583984 257.43927001953125 79.89219665527344 249.9437713623047 81.90862274169922 C 242.5 79.9903793334961 237.00961303710938 74.5 235.62454223632812 67.54218292236328 C 237.65927124023438 59.136898040771484 241.7114715576172 53.11025619506836 250.5956573486328 51.02550506591797 C 258.3375244140625 53.09688949584961 263.5598449707031 58.78404235839844 265.1104431152344 66.8075180053711" stroke-width="0.0" fill="rgb(95, 96, 96)" opacity="0.9900628"/>
    <path d="M 157.96435546875 50.92717742919922 C 155.94654846191406 58.44312286376953 150.443359375 63.94675827026367 142.79656982421875 65.97611236572266 C 133.64877319335938 63.90581512451172 128.3658447265625 58.25668716430664 126.77146911621094 50.21022415161133 C 128.72610473632812 42.145904541015625 134.07620239257812 36.504188537597656 141.68576049804688 34.610008239746094 C 149.51084899902344 37.005924224853516 155.13821411132812 42.445369720458984 157.96435546875 50.92717742919922" stroke-width="0.0" fill="rgb(108, 108, 108)" opacity="1.0"/>
    <path d="M 210.9122772216797 178.29843139648438 C 208.70106506347656 187.16525268554688 203.21826171875 192.8046417236328 195.72299194335938 194.85997009277344 C 187.22607421875 192.32266235351562 181.79873657226562 186.73675537109375 179.25125122070312 178.38160705566406 C 181.20526123046875 170.66099548339844 186.60183715820312 165.06642150878906 194.09552001953125 163.04205322265625 C 203.3801727294922 165.1347198486328 208.8943634033203 170.61012268066406 210.9122772216797 178.29843139648438" stroke-width="0.0" fill="rgb(223, 222, 223)" opacity="1.0"/>
    <path d="M 90.0 48.0 C 87.9903793334961 55.5 82.5 60.990379333496094 75.00000762939453 62.999996185302734 C 67.50035095214844 60.990257263183594 62.01428985595703 55.498382568359375 60.01906204223633 48.002262115478516 C 62.112579345703125 40.72849655151367 68.00823974609375 35.74298858642578 75.83012390136719 33.93662643432617 C 82.5 35.009620666503906 87.9903793334961 40.5 90.0 48.0" stroke-width="0.0" fill="rgb(113, 112, 112)" opacity="0.990234"/>
    <path d="M 164.85939025878906 126.12519836425781 C 161.15162658691406 133.71156311035156 155.75347900390625 139.27468872070312 149.1031951904297 142.55258178710938 C 141.630859375 139.71026611328125 136.02687072753906 134.45602416992188 134.8861083984375 127.80514526367188 C 136.8815460205078 120.30111694335938 142.21534729003906 114.62873840332031 149.1789093017578 112.30119323730469 C 156.63900756835938 114.20903015136719 162.79222106933594 118.92018127441406 164.85939025878906 126.12519836425781" stroke-width="0.0" fill="rgb(184, 184, 185)" opacity="0.99009776"/>
    <path d="M 146.04034423828125 139.71630859375 C 144.29835510253906 145.99978637695312 139.20510864257812 151.8219757080078 131.96902465820312 153.98411560058594 C 124.5 151.99038696289062 119.0096206665039 146.5 116.11479187011719 138.10723876953125 C 118.04551696777344 130.5326385498047 123.5280532836914 125.03180694580078 131.05528259277344 123.01905059814453 C 138.69796752929688 126.02214813232422 144.09864807128906 132.36460876464844 146.04034423828125 139.71630859375" stroke-width="0.0" fill="rgb(2, 2, 2)" opacity="0.99001133"/>
    <path d="M 109.0 66.0 C 106.9903793334961 73.5 101.5 78.9903793334961 93.11272430419922 81.95964050292969 C 86.84143829345703 79.76718139648438 80.13117980957031 73.86811065673828 78.03363800048828 66.91099548339844 C 80.9950180053711 58.49580764770508 86.4997787475586 53.00955581665039 94.0 51.0 C 101.5 53.009620666503906 106.9903793334961 58.5 109.0 66.0" stroke-width="0.0" fill="rgb(109, 109, 108)" opacity="1.0"/>
    <path d="M 270.0 125.0 C 267.9903869628906 132.5 262.5 137.99038696289062 255.0 140.0 C 247.5 137.99038696289062 242.00961303710938 132.5 240.0 125.0 C 242.00962829589844 117.50005340576172 247.50022888183594 112.01026153564453 255.00343322753906 110.00148010253906 C 262.5000915527344 112.00930786132812 267.9903869628906 117.49999237060547 270.0 125.0" stroke-width="0.0" fill="rgb(111, 110, 110)" opacity="0.9998527"/>
    <path d="M 251.72879028320312 170.2800750732422 C 249.0227813720703 178.58311462402344 243.76210021972656 184.48602294921875 235.0673828125 186.968994140625 C 227.5508270263672 184.95553588867188 222.081298828125 179.43472290039062 220.05357360839844 171.7061004638672 C 222.0773162841797 162.5713348388672 227.5704345703125 157.07420349121094 235.19094848632812 155.07371520996094 C 244.37611389160156 157.13575744628906 249.8723602294922 162.6214141845703 251.72879028320312 170.2800750732422" stroke-width="0.0" fill="rgb(114, 113, 113)" opacity="1.0"/>
    <path d="M 185.02438354492188 189.86929321289062 C 183.25668334960938 197.06947326660156 179.3524169921875 202.91741943359375 171.9337158203125 204.8531036376953 C 164.17747497558594 201.17288208007812 158.66610717773438 195.91806030273438 156.844482421875 188.8318328857422 C 158.66075134277344 182.11920166015625 164.18455505371094 176.80245971679688 170.1231231689453 174.97384643554688 C 177.55909729003906 176.9620361328125 183.04078674316406 182.43966674804688 185.02438354492188 189.86929321289062" stroke-width="0.0" fill="rgb(95, 94, 94)" opacity="0.99000424"/>
    <path d="M 134.8788299560547 61.739925384521484 C 132.71778869628906 69.01139831542969 126.74408721923828 74.0816650390625 118.97811126708984 75.90406036376953 C 111.50177001953125 73.98686981201172 106.01009368896484 68.49911499023438 103.94205474853516 60.93161392211914 C 105.80464935302734 53.2630729675293 111.23124694824219 47.70046615600586 118.84610748291016 45.830013275146484 C 126.49386596679688 48.01875686645508 131.98426818847656 53.50521469116211 134.8788299560547 61.739925384521484" stroke-width="0.0" fill="rgb(112, 112, 112)" opacity="1.0"/>
    <path d="M 100.37629699707031 41.653690338134766 C 98.99098205566406 48.500186920166016 93.5000228881836 53.990386962890625 86.0 56.0 C 78.5 53.990379333496094 73.0096206665039 48.5 71.7367172241211 41.743988037109375 C 73.91410064697266 34.416343688964844 79.43280792236328 28.960960388183594 86.57180786132812 26.980241775512695 C 92.57904815673828 28.955902099609375 98.12055206298828 34.39435577392578 100.37629699707031 41.653690338134766" stroke-width="0.0" fill="rgb(113, 112, 112)" opacity="0.99000746"/>
    <path d="M 92.01240539550781 137.95596313476562 C 90.0638198852539 143.56179809570312 84.54634094238281 149.0217742919922 77.04888916015625 151.03392028808594 C 70.2215347290039 150.59078979492188 65.14863586425781 144.4273223876953 63.04788589477539 136.9437713623047 C 65.0096206665039 129.5 70.5 124.0096206665039 77.1260757446289 122.86790466308594 C 84.53641510009766 124.96756744384766 90.01123046875 130.47100830078125 92.01240539550781 137.95596313476562" stroke-width="0.0" fill="rgb(9, 9, 10)" opacity="0.9900042"/>
    <path d="M 113.26957702636719 236.34445190429688 C 111.6951675415039 244.29241943359375 106.36563110351562 249.90977478027344 97.27904510498047 251.97186279296875 C 89.58447265625 249.9353790283203 84.16519165039062 244.3809814453125 82.1766586303711 235.74559020996094 C 84.27376556396484 227.9060821533203 90.06412506103516 222.71527099609375 97.92821502685547 220.93719482421875 C 105.50320434570312 223.0069580078125 110.99791717529297 228.4953155517578 113.26957702636719 236.34445190429688" stroke-width="0.0" fill="rgb(109, 110, 109)" opacity="1.0"/>
    <path d="M 55.056583404541016 55.749629974365234 C 52.383907318115234 62.786598205566406 46.712406158447266 68.1408920288086 39.348968505859375 70.10481262207031 C 31.85233497619629 69.33679962158203 26.307714462280273 64.20135498046875 24.596588134765625 56.428443908691406 C 27.009618759155273 48.5 32.5 43.009620666503906 40.016090393066406 40.97462844848633 C 47.532840728759766 42.974647521972656 53.051849365234375 48.45937728881836 55.056583404541016 55.749629974365234" stroke-width="0.0" fill="rgb(239, 239, 239)" opacity="1.0"/>
    <path d="M 48.037654876708984 51.04363250732422 C 46.02389144897461 58.53968048095703 40.54372787475586 64.03666687011719 33.11140060424805 67.96353912353516 C 27.409326553344727 64.14833068847656 21.961807250976562 58.565765380859375 19.972291946411133 51.1415901184082 C 21.595796585083008 45.21255874633789 27.12325668334961 38.353424072265625 33.35880661010742 36.03566360473633 C 42.44760513305664 38.065128326416016 47.95030212402344 43.54722595214844 48.037654876708984 51.04363250732422" stroke-width="0.0" fill="rgb(51, 51, 51)" opacity="0.9900015"/>
    <path d="M 67.82081604003906 105.4846420288086 C 65.29621887207031 113.53630065917969 59.23636245727539 118.52633666992188 51.299686431884766 121.86880493164062 C 43.762840270996094 119.79448699951172 38.794044494628906 114.12895965576172 37.90877914428711 105.13374328613281 C 39.927406311035156 99.43893432617188 45.450416564941406 93.97029876708984 52.92793273925781 91.94123840332031 C 60.15024185180664 92.32921600341797 65.67900085449219 97.84803771972656 67.82081604003906 105.4846420288086" stroke-width="0.0" fill="rgb(240, 240, 241)" opacity="0.9900136"/>
    <path d="M 140.68563842773438 106.72093200683594 C 138.8833770751953 114.41029357910156 133.4289093017578 119.93846130371094 125.9011459350586 121.93637084960938 C 117.5 118.9903793334961 112.0096206665039 113.5 109.9896469116211 105.9789810180664 C 111.91583251953125 98.3633804321289 117.6368408203125 93.53337860107422 124.78292083740234 91.95513153076172 C 131.82017517089844 93.81179809570312 137.5921630859375 99.03321075439453 140.68563842773438 106.72093200683594" stroke-width="0.0" fill="rgb(3, 4, 3)" opacity="0.9900174"/>
    <path d="M 171.0376434326172 223.0727996826172 C 169.32122802734375 231.0047149658203 164.20333862304688 236.8297119140625 156.54843139648438 238.95504760742188 C 147.93899536132812 236.7560577392578 142.8716583251953 230.78724670410156 140.9777069091797 223.00616455078125 C 142.9828643798828 215.47415161132812 148.46981811523438 209.9680938720703 155.97994995117188 207.95135498046875 C 163.50473022460938 209.99879455566406 168.99041748046875 215.4984130859375 171.0376434326172 223.0727996826172" stroke-width="0.0" fill="rgb(112, 111, 111)" opacity="1.0"/>
    <path d="M 140.93597412109375 185.0918426513672 C 137.1109161376953 192.607177734375 131.59274291992188 198.064697265625 124.19644927978516 200.03599548339844 C 116.70626068115234 199.26487731933594 111.09626007080078 194.37158203125 110.9712905883789 186.936279296875 C 112.92799377441406 179.3698272705078 118.22940063476562 172.26718139648438 125.9402847290039 170.01258850097656 C 133.465087890625 172.03285217285156 138.941650390625 177.5452880859375 140.93597412109375 185.0918426513672" stroke-width="0.0" fill="rgb(2, 2, 2)" opacity="0.9900023"/>
    <path d="M 221.81333923339844 205.186767578125 C 219.47947692871094 214.15847778320312 214.31394958496094 219.89523315429688 206.77395629882812 221.96914672851562 C 197.7506561279297 219.852783203125 192.58346557617188 214.08323669433594 190.35260009765625 205.33387756347656 C 192.10572814941406 197.5703125 197.55026245117188 192.0431365966797 205.21556091308594 190.01654052734375 C 214.4560546875 192.04278564453125 219.9276580810547 197.55384826660156 221.81333923339844 205.186767578125" stroke-width="0.0" fill="rgb(106, 105, 106)" opacity="1.0"/>
    <path d="M 82.57191467285156 79.51873779296875 C 79.92021179199219 87.66537475585938 74.72496032714844 93.17577362060547 66.12850189208984 95.93685913085938 C 58.64329147338867 93.88623809814453 53.10792541503906 88.36080169677734 51.05841064453125 80.82566833496094 C 53.282737731933594 71.85887145996094 58.83060073852539 66.22264099121094 66.3262710571289 64.08226013183594 C 75.2330093383789 66.23141479492188 80.53600311279297 71.82806396484375 82.57191467285156 79.51873779296875" stroke-width="0.0" fill="rgb(240, 240, 240)" opacity="0.9900148"/>
    <path d="M 128.9705810546875 119.95551300048828 C 126.96806335449219 127.47172546386719 121.46876525878906 132.9605712890625 113.96427917480469 134.54075622558594 C 106.46540069580078 131.02186584472656 100.9858627319336 125.53140258789062 98.9883804321289 118.05946350097656 C 100.9290771484375 112.34722900390625 106.22753143310547 106.594970703125 113.19793701171875 104.12367248535156 C 120.43920135498047 106.04053497314453 125.74333190917969 111.62995910644531 128.9705810546875 119.95551300048828" stroke-width="0.0" fill="rgb(32, 32, 32)" opacity="0.99000275"/>
    <path d="M 76.98297882080078 136.16738891601562 C 74.94599151611328 145.43617248535156 69.41767883300781 150.8936767578125 61.73453903198242 152.7030487060547 C 53.75025177001953 149.86236572265625 48.64455795288086 144.0585174560547 46.728755950927734 136.1586151123047 C 47.274383544921875 129.6918487548828 54.13517761230469 124.72367095947266 61.78754806518555 121.22148132324219 C 69.42648315429688 123.11074829101562 74.96106719970703 128.54835510253906 76.98297882080078 136.16738891601562" stroke-width="0.0" fill="rgb(206, 204, 204)" opacity="0.9900145"/>
    <path d="M 219.0729522705078 103.12267303466797 C 218.53514099121094 111.02487182617188 211.69651794433594 116.08544158935547 204.1513671875 118.07290649414062 C 197.81336975097656 116.39247131347656 191.39956665039062 111.79248046875 189.16152954101562 104.49396514892578 C 191.91842651367188 96.47177124023438 197.4980010986328 91.00910949707031 205.494384765625 88.53922271728516 C 213.29818725585938 90.23971557617188 218.86068725585938 95.66846466064453 219.0729522705078 103.12267303466797" stroke-width="0.0" fill="rgb(241, 241, 242)" opacity="1.0"/>
    <path d="M 182.1739959716797 156.8355712890625 C 181.86891174316406 164.3983154296875 176.4181365966797 169.9289093017578 168.87924194335938 171.87167358398438 C 160.9552764892578 168.4266815185547 155.40744018554688 163.10238647460938 152.31797790527344 155.39657592773438 C 154.33229064941406 148.05630493164062 160.90916442871094 143.76341247558594 168.45364379882812 141.94175720214844 C 174.7594757080078 143.8168182373047 180.1922149658203 149.23550415039062 182.1739959716797 156.8355712890625" stroke-width="0.0" fill="rgb(235, 233, 234)" opacity="1.0"/>
    <path d="M 154.8879852294922 233.85919189453125 C 152.93003845214844 241.43536376953125 147.4385528564453 246.93885803222656 139.85415649414062 248.96156311035156 C 130.97218322753906 246.73353576660156 125.89114379882812 240.7550048828125 123.98796844482422 233.0166778564453 C 126.0145034790039 225.5050048828125 131.50515747070312 220.0149688720703 139.0004119873047 217.99134826660156 C 146.49867248535156 220.01422119140625 151.99746704101562 225.49783325195312 154.8879852294922 233.85919189453125" stroke-width="0.0" fill="rgb(111, 110, 110)" opacity="1.0"/>
    <path d="M 255.6766357421875 82.86863708496094 C 253.7543487548828 90.30545806884766 248.3074951171875 95.76001739501953 240.59353637695312 97.95543670654297 C 232.9576873779297 96.57173156738281 227.5442352294922 91.00685119628906 225.82244873046875 83.20128631591797 C 228.00961303710938 75.5 233.5 70.0096206665039 240.50393676757812 68.71234130859375 C 248.21078491210938 70.50321197509766 253.93032836914062 75.62914276123047 255.6766357421875 82.86863708496094" stroke-width="0.0" fill="rgb(127, 127, 127)" opacity="0.99017304"/>
    <path d="M 238.00022888183594 230.0004425048828 C 235.991943359375 237.5015106201172 230.50152587890625 242.9920196533203 222.99789428710938 245.00999450683594 C 215.49755859375 242.994140625 209.99960327148438 237.50411987304688 207.0410614013672 229.075927734375 C 209.05751037597656 221.57725524902344 214.6157989501953 216.17239379882812 222.44761657714844 214.5220489501953 C 230.5 217.00961303710938 235.99038696289062 222.5 238.00022888183594 230.0004425048828" stroke-width="0.0" fill="rgb(110, 109, 109)" opacity="1.0"/>
    <path d="M 254.58694458007812 205.7910614013672 C 252.22520446777344 213.6246337890625 246.55943298339844 219.02020263671875 239.0048370361328 221.00242614746094 C 231.5 218.99038696289062 226.00961303710938 213.5 223.80557250976562 205.7275390625 C 225.36883544921875 197.75144958496094 230.65667724609375 192.09971618652344 238.15823364257812 190.03826904296875 C 247.11260986328125 192.2672882080078 252.51925659179688 197.97886657714844 254.58694458007812 205.7910614013672" stroke-width="0.0" fill="rgb(110, 110, 110)" opacity="1.0"/>
    <path d="M 243.00143432617188 208.9959259033203 C 240.99038696289062 216.5 235.5 221.99038696289062 228.00364685058594 223.99478149414062 C 220.5061798095703 221.98236083984375 215.01693725585938 216.4940643310547 212.50299072265625 208.43995666503906 C 214.17970275878906 200.6298065185547 219.59214782714844 195.06959533691406 227.1041717529297 193.04087829589844 C 235.78623962402344 195.492919921875 241.0315704345703 201.39797973632812 243.00143432617188 208.9959259033203" stroke-width="0.0" fill="rgb(112, 112, 111)" opacity="1.0"/>
    <path d="M 158.02174377441406 102.12865447998047 C 156.3649139404297 110.04736328125 151.20655822753906 115.81524658203125 143.80364990234375 116.03877258300781 C 134.73902893066406 115.7735595703125 129.3815460205078 110.21855163574219 128.49411010742188 102.64114379882812 C 130.83084106445312 95.34110260009766 136.3702392578125 89.91413879394531 143.75701904296875 87.95281219482422 C 149.93923950195312 89.74000549316406 155.7602996826172 94.8694076538086 158.02174377441406 102.12865447998047" stroke-width="0.0" fill="rgb(5, 5, 5)" opacity="0.99001455"/>
    <path d="M 192.0 251.0 C 189.99038696289062 258.5 184.5 263.9903869628906 176.9613037109375 266.0184326171875 C 169.09169006347656 264.2218322753906 163.17684936523438 259.167724609375 161.02474975585938 250.15631103515625 C 163.07241821289062 242.6143035888672 168.6956329345703 237.30856323242188 176.68353271484375 235.78109741210938 C 184.5 238.00961303710938 189.99038696289062 243.5 192.0 251.0" stroke-width="0.0" fill="rgb(113, 113, 113)" opacity="0.9900936"/>
    <path d="M 196.97064208984375 234.3470458984375 C 194.8553924560547 243.229736328125 189.00177001953125 248.2970428466797 181.0556640625 250.01805114746094 C 173.50009155273438 247.9900665283203 168.00961303710938 242.49998474121094 166.0 235.0 C 168.00961303710938 227.5 173.5 222.00961303710938 181.25588989257812 219.83053588867188 C 189.255615234375 221.37232971191406 194.9070587158203 226.64772033691406 196.97064208984375 234.3470458984375" stroke-width="0.0" fill="rgb(111, 110, 110)" opacity="1.0"/>
    <path d="M 214.95176696777344 252.09417724609375 C 212.4318389892578 260.72662353515625 206.5745391845703 266.0198974609375 199.0028076171875 268.00115966796875 C 191.4973907470703 265.9914245605469 185.9894256591797 260.508056640625 183.92218017578125 252.98031616210938 C 185.80120849609375 245.13592529296875 190.9026336669922 239.23326110839844 199.8848876953125 237.0323944091797 C 207.44760131835938 239.05490112304688 212.94793701171875 244.55111694335938 214.95176696777344 252.09417724609375" stroke-width="0.0" fill="rgb(116, 115, 115)" opacity="0.9902932"/>
    <path d="M 223.90504455566406 45.296661376953125 C 220.80125427246094 53.04208755493164 215.00607299804688 58.573551177978516 208.23519897460938 61.863521575927734 C 201.1434783935547 58.30948257446289 195.7723846435547 52.82939147949219 193.962646484375 45.51436233520508 C 195.5891876220703 37.95757293701172 199.78575134277344 32.24974822998047 207.15036010742188 31.968236923217773 C 215.15061950683594 33.79356002807617 221.78221130371094 37.885868072509766 223.90504455566406 45.296661376953125" stroke-width="0.0" fill="rgb(238, 237, 238)" opacity="1.0"/>
    <path d="M 267.0 126.0 C 264.9903869628906 133.5 259.5 138.99038696289062 252.0 141.0 C 244.50009155273438 138.9903564453125 239.0113983154297 133.49942016601562 236.49192810058594 125.45642852783203 C 238.2079315185547 117.67286682128906 243.64749145507812 112.12884521484375 251.238037109375 110.18549346923828 C 259.49951171875 113.01109313964844 264.9903564453125 118.50007629394531 267.0 126.0" stroke-width="0.0" fill="rgb(111, 111, 110)" opacity="1.0"/>
    <path d="M 164.5768585205078 36.58934783935547 C 163.15310668945312 43.71426010131836 157.7709197998047 49.33440399169922 150.1912078857422 51.243499755859375 C 142.4698028564453 48.999298095703125 136.69970703125 43.63263702392578 135.92884826660156 36.90900421142578 C 137.95962524414062 29.439388275146484 143.437255859375 23.95431900024414 149.3270721435547 21.975919723510742 C 156.58238220214844 23.953516006469727 162.13723754882812 29.387937545776367 164.5768585205078 36.58934783935547" stroke-width="0.0" fill="rgb(116, 115, 115)" opacity="0.9900054"/>
    <path d="M 253.3454132080078 214.79623413085938 C 250.92771911621094 222.4515838623047 245.45516967773438 227.93963623046875 237.99301147460938 229.89979553222656 C 230.52662658691406 227.95675659179688 225.04525756835938 222.4728240966797 223.07131958007812 214.98956298828125 C 225.0276641845703 207.5152587890625 230.51658630371094 202.0323944091797 238.0038299560547 200.0668182373047 C 245.4990997314453 202.02984619140625 251.15480041503906 207.4431610107422 253.3454132080078 214.79623413085938" stroke-width="0.0" fill="rgb(108, 108, 108)" opacity="0.99057996"/>
    <path d="M 112.14834594726562 56.063720703125 C 110.07296752929688 63.539283752441406 104.51708221435547 68.9983139038086 97.00105285644531 71.00062561035156 C 89.49952697753906 68.99076080322266 84.00889587402344 63.500579833984375 81.99954986572266 56.000205993652344 C 84.0092544555664 48.49948501586914 89.49923706054688 43.008399963378906 96.99974822998047 40.99740982055664 C 104.50296783447266 43.00789260864258 110.00115203857422 48.494354248046875 112.14834594726562 56.063720703125" stroke-width="0.0" fill="rgb(108, 108, 107)" opacity="1.0"/>
    <path d="M 20.152099609375 45.0782356262207 C 18.08483123779297 52.684898376464844 12.85598087310791 58.611331939697266 5.989690780639648 61.06191635131836 C -1.5 58.990379333496094 -6.990381240844727 53.5 -8.816679954528809 46.281742095947266 C -6.314281463623047 39.29136276245117 -0.6185969710350037 33.945919036865234 5.087734222412109 31.98797607421875 C 12.53816032409668 33.983516693115234 18.100589752197266 39.44365310668945 20.152099609375 45.0782356262207" stroke-width="0.0" fill="rgb(59, 59, 60)" opacity="0.99000365"/>
    <path d="M 212.68423461914062 134.3198699951172 C 209.93539428710938 142.37049865722656 204.2332763671875 147.54443359375 196.40499877929688 149.86651611328125 C 188.82260131835938 148.68128967285156 183.26979064941406 143.1945343017578 181.170166015625 135.39891052246094 C 183.2256317138672 126.70964813232422 188.71304321289062 121.2361068725586 196.6387176513672 120.01668548583984 C 205.3506622314453 121.17816162109375 210.85218811035156 126.6415023803711 212.68423461914062 134.3198699951172" stroke-width="0.0" fill="rgb(172, 170, 170)" opacity="1.0"/>
    <path d="M 186.00401306152344 225.9991455078125 C 183.9904327392578 233.50001525878906 178.5 238.99038696289062 170.99913024902344 241.0006866455078 C 163.4952392578125 238.9937744140625 157.99703979492188 233.50741577148438 155.9666290283203 226.00448608398438 C 158.00216674804688 218.49407958984375 163.494384765625 213.0032958984375 170.99562072753906 210.99925231933594 C 178.49977111816406 213.01072692871094 183.99143981933594 218.49961853027344 186.00401306152344 225.9991455078125" stroke-width="0.0" fill="rgb(110, 109, 109)" opacity="1.0"/>
    <path d="M 18.030038833618164 59.92313766479492 C 16.923320770263672 66.85799407958984 12.08547592163086 72.73213958740234 4.30844783782959 74.92098236083984 C -3.8876075744628906 72.6015853881836 -9.074409484863281 66.67716979980469 -11.005005836486816 59.01166915893555 C -8.98894214630127 51.50337600708008 -3.4900593757629395 46.0340461730957 4.0721540451049805 43.8644905090332 C 10.873449325561523 46.37015914916992 16.071897506713867 52.32517623901367 18.030038833618164 59.92313766479492" stroke-width="0.0" fill="rgb(61, 61, 61)" opacity="0.99001896"/>
    <path d="M 168.98748779296875 102.96449279785156 C 166.97293090820312 110.47712707519531 161.4738006591797 115.96405029296875 153.94180297851562 117.77284240722656 C 144.89324951171875 115.32977294921875 140.8125457763672 109.61764526367188 138.92453002929688 102.92263793945312 C 140.96080017089844 95.41567993164062 146.32952880859375 88.5810546875 153.84747314453125 87.76103973388672 C 161.44985961914062 88.05140686035156 166.90948486328125 93.56074523925781 168.98748779296875 102.96449279785156" stroke-width="0.0" fill="rgb(244, 245, 246)" opacity="0.9900017"/>
    <path d="M 115.60267639160156 69.58262634277344 C 113.84455871582031 77.39002990722656 108.42799377441406 82.94786071777344 99.539306640625 84.98770904541016 C 91.55913543701172 82.95680236816406 86.16735076904297 77.40077209472656 84.59981536865234 69.52108764648438 C 87.01016998291016 61.50017547607422 92.49986267089844 56.00910949707031 100.01285552978516 53.989871978759766 C 107.58040618896484 55.954872131347656 113.1738052368164 61.380088806152344 115.60267639160156 69.58262634277344" stroke-width="0.0" fill="rgb(109, 109, 108)" opacity="1.0"/>
    <path d="M 87.91512298583984 239.80332946777344 C 85.92039489746094 247.4185791015625 80.4197769165039 252.923828125 72.31150817871094 254.9680633544922 C 63.66437911987305 252.90013122558594 58.43779373168945 247.2183074951172 56.50687789916992 238.96714782714844 C 58.82681655883789 231.4242706298828 64.47968292236328 226.00439453125 72.44408416748047 223.59640502929688 C 80.26609802246094 225.27503967285156 85.81022644042969 230.70782470703125 87.91512298583984 239.80332946777344" stroke-width="0.0" fill="rgb(111, 110, 111)" opacity="0.9903252"/>
    <path d="M 90.01615142822266 52.02936935424805 C 88.21356201171875 59.92062759399414 83.20369720458984 65.85062408447266 75.89990234375 67.95293426513672 C 68.36930084228516 64.10164642333984 62.82608413696289 58.65232849121094 60.52143096923828 51.45364761352539 C 62.018436431884766 44.503509521484375 67.50153350830078 39.01118469238281 75.00126647949219 36.997745513916016 C 82.50086975097656 39.00852966308594 87.99176788330078 44.499046325683594 90.01615142822266 52.02936935424805" stroke-width="0.0" fill="rgb(108, 108, 108)" opacity="1.0"/>
    <path d="M 190.89508056640625 236.00559997558594 C 188.95037841796875 243.46844482421875 183.47076416015625 248.9581756591797 175.5950164794922 251.29039001464844 C 167.6917724609375 249.73007202148438 162.0958709716797 244.3663330078125 160.07138061523438 236.86976623535156 C 163.0481719970703 228.52957153320312 168.52737426757812 223.04083251953125 175.98390197753906 221.1029052734375 C 183.46092224121094 223.06243896484375 188.9467315673828 228.53631591796875 190.89508056640625 236.00559997558594" stroke-width="0.0" fill="rgb(114, 114, 114)" opacity="1.0"/>
    <path d="M 247.02145385742188 77.95240020751953 C 245.04669189453125 84.57072448730469 239.57144165039062 90.04838562011719 233.859130859375 92.0185775756836 C 226.45758056640625 90.02511596679688 220.9842071533203 84.53758239746094 218.9923858642578 77.35538482666016 C 220.982421875 71.45161437988281 226.41798400878906 65.88228607177734 232.1451873779297 63.97134017944336 C 239.5710906982422 65.94398498535156 245.04136657714844 71.43489837646484 247.02145385742188 77.95240020751953" stroke-width="0.0" fill="rgb(241, 240, 242)" opacity="0.99000186"/>
    <path d="M 129.2496337890625 105.93753051757812 C 127.17375946044922 113.58415985107422 121.28303527832031 118.47339630126953 114.82716369628906 120.06465911865234 C 107.37104797363281 118.08477783203125 101.90005493164062 112.63734436035156 99.9709701538086 106.78445434570312 C 101.96846008300781 99.42607879638672 107.28020477294922 92.13170623779297 113.10210418701172 90.03009796142578 C 122.11305236816406 92.21883392333984 127.30795288085938 98.10518646240234 129.2496337890625 105.93753051757812" stroke-width="0.0" fill="rgb(6, 6, 6)" opacity="0.9900035"/>
    <path d="M 92.6409683227539 116.7311019897461 C 90.91837310791016 124.43951416015625 85.45536804199219 129.9612579345703 77.84075927734375 131.9884033203125 C 68.59202575683594 129.94126892089844 63.17803955078125 124.35275268554688 61.20173263549805 116.46991729736328 C 63.80012893676758 108.27330780029297 69.22869110107422 102.66801452636719 76.90719604492188 100.54996490478516 C 85.05699157714844 102.44071197509766 90.5431900024414 107.95121765136719 92.6409683227539 116.7311019897461" stroke-width="0.0" fill="rgb(242, 242, 242)" opacity="0.99004394"/>
    <path d="M 229.02334594726562 137.11129760742188 C 227.033935546875 144.5557861328125 221.5731658935547 150.1123504638672 214.05810546875 153.981689453125 C 206.5894317626953 151.94618225097656 202.50326538085938 146.28750610351562 200.9475555419922 138.49893188476562 C 202.88499450683594 131.34861755371094 208.3507843017578 125.89002227783203 214.1572723388672 123.97579193115234 C 221.60272216796875 125.9366683959961 227.108154296875 131.37889099121094 229.02334594726562 137.11129760742188" stroke-width="0.0" fill="rgb(237, 237, 237)" opacity="0.99000204"/>
    <path d="M 265.13116455078125 134.22325134277344 C 263.6222839355469 142.27281188964844 258.3803405761719 147.92970275878906 250.90528869628906 149.9735565185547 C 241.79861450195312 147.7606201171875 236.17967224121094 142.23765563964844 234.08131408691406 134.6722869873047 C 236.4697265625 126.1905746459961 242.38096618652344 120.9555435180664 249.99932861328125 118.96629333496094 C 257.5048828125 120.9993667602539 262.99151611328125 126.49776458740234 265.13116455078125 134.22325134277344" stroke-width="0.0" fill="rgb(113, 112, 112)" opacity="1.0"/>
    <path d="M 267.00152587890625 175.98838806152344 C 264.970703125 183.45896911621094 259.4165344238281 188.83311462402344 251.75071716308594 191.315673828125 C 244.4331817626953 189.14218139648438 238.99375915527344 183.52532958984375 236.9303741455078 175.8994903564453 C 238.58790588378906 167.89920043945312 243.72470092773438 162.12698364257812 251.25558471679688 160.04052734375 C 260.0066833496094 162.27569580078125 265.0838317871094 168.27915954589844 267.00152587890625 175.98838806152344" stroke-width="0.0" fill="rgb(118, 117, 117)" opacity="0.9902902"/>
    <path d="M 145.0289764404297 147.05496215820312 C 143.24981689453125 156.1529541015625 139.35345458984375 161.9075164794922 130.06993103027344 163.98744201660156 C 122.55207824707031 161.95986938476562 117.12364196777344 156.41844177246094 115.39913940429688 148.65870666503906 C 118.0096206665039 140.5 123.5 135.00961303710938 131.029296875 132.98829650878906 C 138.92210388183594 134.78700256347656 144.84024047851562 139.8079071044922 145.0289764404297 147.05496215820312" stroke-width="0.0" fill="rgb(2, 2, 2)" opacity="0.99001026"/>
    <path d="M 105.8006820678711 193.3985137939453 C 102.18928527832031 200.72789001464844 96.72346496582031 206.17822265625 89.34837341308594 208.13494873046875 C 83.26498413085938 206.2486114501953 77.70702362060547 200.74610900878906 75.97969818115234 194.91571044921875 C 77.97200012207031 187.455322265625 83.45530700683594 181.97178649902344 89.1355209350586 179.97796630859375 C 96.54710388183594 181.97352600097656 102.0539321899414 187.44407653808594 105.8006820678711 193.3985137939453" stroke-width="0.0" fill="rgb(47, 47, 47)" opacity="0.99000186"/>
    <path d="M 127.21991729736328 147.12380981445312 C 125.95989227294922 154.7486114501953 120.00144958496094 159.1604766845703 113.70756530761719 161.02142333984375 C 106.4152603149414 159.04605102539062 100.84477996826172 153.62042236328125 98.94126892089844 147.82748413085938 C 100.94538116455078 140.4255828857422 106.42158508300781 134.934814453125 113.93305206298828 131.09019470214844 C 121.35541534423828 133.08355712890625 126.2070083618164 138.79762268066406 127.21991729736328 147.12380981445312" stroke-width="0.0" fill="rgb(41, 40, 41)" opacity="0.99000376"/>
  </g>
</svg>
