<?xml version="1.0" ?>
<svg xmlns="http://www.w3.org/2000/svg" version="1.1" width="256" height="256">
  <defs/>
  <g>
    <path d="M 275.0 101.0 C 272.32049560546875 111.0 265.0 118.32051086425781 255.0 121.0 C 245.0 118.32051086425781 237.6794891357422 111.0 235.0 101.0 C 237.6794891357422 91.0 245.0 83.67948913574219 255.0 81.0 C 265.0 83.67948913574219 272.32049560546875 91.0 275.0 101.0" stroke-width="0.0" fill="rgb(203, 191, 174)" opacity="1.0"/>
    <path d="M 73.0 24.0 C 70.32051086425781 34.0 63.0 41.32050704956055 53.0 44.0 C 43.0 41.32050704956055 35.67949295043945 34.0 33.0 24.0 C 35.67949295043945 14.0 43.0 6.679491996765137 53.0 4.0 C 63.0 6.679491996765137 70.32051086425781 14.0 73.0 24.0" stroke-width="0.0" fill="rgb(195, 183, 168)" opacity="1.0"/>
    <path d="M 48.01015090942383 150.0197296142578 C 45.33241653442383 160.0164031982422 38.01988983154297 167.3418426513672 28.06090545654297 170.0563201904297 C 19.0 168.3205108642578 11.679491996765137 161.0 9.0 151.0 C 11.679491996765137 141.0 19.0 133.6794891357422 29.0 131.0 C 39.0 133.6794891357422 46.32050704956055 141.0 48.01015090942383 150.0197296142578" stroke-width="0.0" fill="rgb(12, 13, 19)" opacity="0.9900047"/>
    <path d="M 69.0 24.0 C 66.32051086425781 34.0 59.0 41.32050704956055 49.0 44.0 C 39.0 41.32050704956055 31.67949104309082 34.0 29.0 24.0 C 31.67949104309082 14.0 39.0 6.679491996765137 49.0 4.0 C 59.0 6.679491996765137 66.32051086425781 14.0 69.0 24.0" stroke-width="0.0" fill="rgb(192, 176, 159)" opacity="1.0"/>
    <path d="M 59.005821228027344 108.13275909423828 C 56.335693359375 118.0220947265625 49.028987884521484 125.35515594482422 39.10775375366211 128.11265563964844 C 30.47553825378418 126.05730438232422 23.570064544677734 118.24464416503906 20.984716415405273 108.15756225585938 C 21.803010940551758 98.06510925292969 29.061439514160156 90.77442169189453 39.03173828125 89.99337768554688 C 49.01829528808594 92.66497802734375 56.33555221557617 99.98147583007812 59.005821228027344 108.13275909423828" stroke-width="0.0" fill="rgb(11, 13, 18)" opacity="0.99000067"/>
    <path d="M 78.99881744384766 240.0025634765625 C 76.32051086425781 250.0 69.0 257.32049560546875 59.0 260.0 C 49.0 257.32049560546875 41.67949295043945 250.0 38.99736404418945 239.9928436279297 C 41.603763580322266 229.81707763671875 48.5395393371582 221.97918701171875 58.22727584838867 219.1187286376953 C 68.89480590820312 222.90248107910156 76.30220794677734 230.0401153564453 78.99881744384766 240.0025634765625" stroke-width="0.0" fill="rgb(187, 174, 156)" opacity="0.99055195"/>
    <path d="M 274.0 25.0 C 271.32049560546875 35.0 264.0 42.32050704956055 254.0 45.0 C 244.0 42.32050704956055 236.6794891357422 35.0 234.0 25.0 C 236.6794891357422 15.0 244.0 7.679491996765137 254.0 5.0 C 264.0 7.679491996765137 271.32049560546875 15.0 274.0 25.0" stroke-width="0.0" fill="rgb(207, 196, 176)" opacity="1.0"/>
    <path d="M 262.53668212890625 120.54056549072266 C 260.10662841796875 130.79905700683594 252.82186889648438 138.17506408691406 242.748046875 140.83543395996094 C 231.8912353515625 137.36289978027344 224.10287475585938 130.32843017578125 221.0564727783203 119.24597930908203 C 223.81239318847656 109.24542236328125 231.4181365966797 102.27701568603516 241.9042510986328 99.94995880126953 C 252.0 102.67948913574219 259.32049560546875 110.0 262.53668212890625 120.54056549072266" stroke-width="0.0" fill="rgb(197, 185, 167)" opacity="0.9901857"/>
    <path d="M 65.0594482421875 195.07667541503906 C 62.35476303100586 205.04556274414062 55.061119079589844 212.41539001464844 45.410064697265625 216.4081268310547 C 36.0 213.3205108642578 28.67949104309082 206.0 26.0 196.0 C 28.67949104309082 186.0 36.0 178.6794891357422 46.0 176.0 C 56.0 178.6794891357422 63.32050704956055 186.0 65.0594482421875 195.07667541503906" stroke-width="0.0" fill="rgb(8, 9, 14)" opacity="0.99008673"/>
    <path d="M 235.0 183.0 C 232.3205108642578 193.0 225.0 200.3205108642578 215.5621795654297 202.5609588623047 C 205.9190673828125 199.45413208007812 198.6572265625 192.04324340820312 195.99554443359375 183.9201202392578 C 198.66770935058594 173.9848175048828 205.98428344726562 166.66650390625 215.97625732421875 163.98707580566406 C 225.0 165.6794891357422 232.3205108642578 173.0 235.0 183.0" stroke-width="0.0" fill="rgb(8, 11, 16)" opacity="0.99000096"/>
    <path d="M 46.18183898925781 180.64938354492188 C 43.32050704956055 191.0 36.0 198.3205108642578 26.0 201.0 C 16.0 198.3205108642578 8.679491996765137 191.0 6.0 181.0 C 8.679491996765137 171.0 16.0 163.6794891357422 26.068946838378906 161.59165954589844 C 36.74310302734375 162.9818572998047 44.01636505126953 170.25926208496094 46.18183898925781 180.64938354492188" stroke-width="0.0" fill="rgb(187, 181, 172)" opacity="0.99002415"/>
    <path d="M 255.0 179.0 C 252.3205108642578 189.0 245.0 196.3205108642578 235.3578338623047 198.7313232421875 C 225.81336975097656 195.596435546875 218.6196746826172 188.1095733642578 215.98678588867188 179.5570068359375 C 218.6251220703125 169.90179443359375 225.83523559570312 162.43670654296875 235.40341186523438 159.31051635742188 C 245.0 161.6794891357422 252.3205108642578 169.0 255.0 179.0" stroke-width="0.0" fill="rgb(190, 178, 160)" opacity="0.9900066"/>
    <path d="M 236.84750366210938 253.66818237304688 C 233.92813110351562 263.36065673828125 226.12811279296875 270.3715515136719 216.0047149658203 273.0017395019531 C 206.0 270.32049560546875 198.6794891357422 263.0 196.0 253.0 C 198.6794891357422 243.0 206.0 235.6794891357422 216.0 233.0 C 226.0 235.6794891357422 233.3205108642578 243.0 236.84750366210938 253.66818237304688" stroke-width="0.0" fill="rgb(184, 171, 153)" opacity="0.9978493"/>
    <path d="M 266.0 178.0 C 263.32049560546875 188.0 256.0 195.3205108642578 246.0 198.0 C 236.0 195.3205108642578 228.6794891357422 188.0 226.47158813476562 178.24891662597656 C 228.89736938476562 168.10179138183594 236.0379638671875 160.69627380371094 246.00222778320312 158.00100708007812 C 256.0 160.6794891357422 263.32049560546875 168.0 266.0 178.0" stroke-width="0.0" fill="rgb(193, 181, 164)" opacity="0.9942877"/>
    <path d="M 56.28961181640625 205.7361602783203 C 54.904335021972656 216.61404418945312 47.59326171875 223.83729553222656 37.2079963684082 226.1505126953125 C 27.0 223.3205108642578 19.67949104309082 216.0 17.0 206.0 C 19.67949104309082 196.0 27.0 188.6794891357422 37.0 186.0 C 47.0 188.6794891357422 54.32050704956055 196.0 56.28961181640625 205.7361602783203" stroke-width="0.0" fill="rgb(195, 181, 164)" opacity="0.99007463"/>
    <path d="M 56.0 4.0 C 53.32050704956055 14.0 46.0 21.32050895690918 36.0 24.0 C 26.0 21.32050895690918 18.67949104309082 14.0 16.0 4.0 C 18.67949104309082 -6.0 26.0 -13.320508003234863 36.0 -16.0 C 46.0 -13.320508003234863 53.32050704956055 -6.0 56.0 4.0" stroke-width="0.0" fill="rgb(197, 182, 164)" opacity="1.0"/>
    <path d="M 180.0 251.0 C 177.3205108642578 261.0 170.0 268.32049560546875 160.0 271.0 C 150.0 268.32049560546875 142.6794891357422 261.0 140.0 251.0 C 142.6794891357422 241.0 150.0 233.6794891357422 160.0 231.0 C 170.0 233.6794891357422 177.3205108642578 241.0 180.0 251.0" stroke-width="0.0" fill="rgb(195, 182, 166)" opacity="1.0"/>
    <path d="M 89.0 19.0 C 86.32051086425781 29.0 79.0 36.32050704956055 69.0 39.0 C 59.0 36.32050704956055 51.67949295043945 29.0 49.0 19.0 C 51.67949295043945 9.0 59.0 1.6794918775558472 69.0 -1.0 C 79.0 1.6794918775558472 86.32051086425781 9.0 89.0 19.0" stroke-width="0.0" fill="rgb(196, 180, 160)" opacity="1.0"/>
    <path d="M 74.0 14.0 C 71.32051086425781 24.0 64.0 31.32050895690918 54.0 34.0 C 44.0 31.32050895690918 36.67949295043945 24.0 34.0 14.0 C 36.67949295043945 4.0 44.0 -3.3205080032348633 54.0 -6.0 C 64.0 -3.3205080032348633 71.32051086425781 4.0 74.0 14.0" stroke-width="0.0" fill="rgb(197, 184, 168)" opacity="1.0"/>
    <path d="M 181.8485565185547 230.2425994873047 C 179.3205108642578 240.0 172.0 247.3205108642578 162.0 250.0 C 152.0 247.3205108642578 144.6794891357422 240.0 141.82864379882812 230.14495849609375 C 145.2909698486328 220.74691772460938 152.8206024169922 213.5548858642578 162.20281982421875 210.8806915283203 C 171.22418212890625 213.52549743652344 178.72361755371094 220.69517517089844 181.8485565185547 230.2425994873047" stroke-width="0.0" fill="rgb(193, 181, 165)" opacity="0.9900264"/>
    <path d="M 33.0 52.0 C 30.32050895690918 62.0 23.0 69.32051086425781 13.0 72.0 C 3.0 69.32051086425781 -4.320508003234863 62.0 -7.0 52.0 C -4.320508003234863 42.0 3.0 34.67949295043945 13.0 32.0 C 23.0 34.67949295043945 30.32050895690918 42.0 33.0 52.0" stroke-width="0.0" fill="rgb(192, 188, 180)" opacity="1.0"/>
    <path d="M 214.0 237.0 C 211.3205108642578 247.0 204.0 254.3205108642578 194.0 257.0 C 184.0 254.3205108642578 176.6794891357422 247.0 174.0 237.0 C 176.6794891357422 227.0 184.0 219.6794891357422 194.0 217.0 C 204.0 219.6794891357422 211.3205108642578 227.0 214.0 237.0" stroke-width="0.0" fill="rgb(184, 173, 156)" opacity="1.0"/>
    <path d="M 207.0 252.0 C 204.3205108642578 262.0 197.0 269.32049560546875 187.0 272.0 C 177.0 269.32049560546875 169.6794891357422 262.0 167.0 252.0 C 169.6794891357422 242.0 177.0 234.6794891357422 187.0 232.0 C 197.0 234.6794891357422 204.3205108642578 242.0 207.0 252.0" stroke-width="0.0" fill="rgb(183, 172, 157)" opacity="1.0"/>
    <path d="M 261.3845520019531 75.64096069335938 C 258.31304931640625 85.99398040771484 250.99501037597656 93.31649017333984 240.99888610839844 95.99909973144531 C 231.0 93.32051086425781 223.6794891357422 86.0 221.068359375 76.09043884277344 C 223.9584197998047 66.33995056152344 231.39761352539062 59.14468765258789 241.41929626464844 56.134769439697266 C 251.5549774169922 58.1471061706543 258.92254638671875 65.42375183105469 261.3845520019531 75.64096069335938" stroke-width="0.0" fill="rgb(204, 193, 175)" opacity="1.0"/>
    <path d="M 146.0 41.0 C 143.3205108642578 51.0 136.0 58.32050704956055 126.0 61.0 C 116.0 58.32050704956055 108.67948913574219 51.0 106.0 41.0 C 108.67948913574219 31.0 116.0 23.67949104309082 126.0 21.0 C 136.0 23.67949104309082 143.3205108642578 31.0 146.0 41.0" stroke-width="0.0" fill="rgb(203, 188, 173)" opacity="1.0"/>
    <path d="M 105.98977661132812 36.975040435791016 C 103.16053771972656 46.700809478759766 95.4820556640625 53.609344482421875 85.29430389404297 56.1649284362793 C 76.1407241821289 53.99502182006836 68.68949127197266 46.9681510925293 66.00007629394531 36.99961471557617 C 68.67948913574219 27.0 76.0 19.67949104309082 86.0 17.0 C 96.0 19.67949104309082 103.32051086425781 27.0 105.98977661132812 36.975040435791016" stroke-width="0.0" fill="rgb(199, 185, 168)" opacity="0.9900885"/>
    <path d="M 191.0 34.0 C 188.3205108642578 44.0 181.0 51.32050704956055 171.0 54.0 C 161.0 51.32050704956055 153.6794891357422 44.0 151.0 34.0 C 153.6794891357422 24.0 161.0 16.67949104309082 171.0 14.0 C 181.0 16.67949104309082 188.3205108642578 24.0 191.0 34.0" stroke-width="0.0" fill="rgb(203, 188, 169)" opacity="1.0"/>
    <path d="M 114.0 9.0 C 111.32051086425781 19.0 104.0 26.32050895690918 94.0 29.0 C 84.0 26.32050895690918 76.67948913574219 19.0 74.0 9.0 C 76.67948913574219 -1.0 84.0 -8.320508003234863 94.0 -11.0 C 104.0 -8.320508003234863 111.32051086425781 -1.0 114.0 9.0" stroke-width="0.0" fill="rgb(205, 190, 171)" opacity="1.0"/>
    <path d="M 253.99830627441406 97.00154113769531 C 251.3205108642578 107.0 244.0 114.32051086425781 233.1953125 117.83998107910156 C 223.11541748046875 115.22906494140625 215.89947509765625 107.85216522216797 214.7430419921875 97.23780822753906 C 216.63600158691406 86.98287200927734 223.9949493408203 79.67778778076172 233.99887084960938 77.00089263916016 C 243.9963836669922 79.68278503417969 251.3162384033203 87.00390625 253.99830627441406 97.00154113769531" stroke-width="0.0" fill="rgb(208, 196, 179)" opacity="0.9900877"/>
    <path d="M 91.171630859375 238.83575439453125 C 88.32051086425781 249.0 81.0 256.32049560546875 71.0 259.0 C 61.0 256.32049560546875 53.67949295043945 249.0 50.98054885864258 238.96788024902344 C 53.525047302246094 228.74237060546875 60.57129669189453 221.06553649902344 71.79837799072266 218.0545654296875 C 81.63717651367188 220.87261962890625 88.70637512207031 228.56361389160156 91.171630859375 238.83575439453125" stroke-width="0.0" fill="rgb(192, 179, 161)" opacity="0.9900883"/>
    <path d="M 49.47438430786133 189.59988403320312 C 47.32050704956055 199.0 40.0 206.3205108642578 30.425556182861328 208.3129425048828 C 20.133142471313477 206.0123291015625 12.691218376159668 198.96759033203125 10.000345230102539 188.99905395507812 C 12.679491996765137 179.0 20.0 171.6794891357422 29.18994903564453 168.8270721435547 C 39.08116912841797 172.61888122558594 46.46280288696289 179.894287109375 49.47438430786133 189.59988403320312" stroke-width="0.0" fill="rgb(74, 73, 71)" opacity="0.99000734"/>
    <path d="M 136.0 250.0 C 133.3205108642578 260.0 126.0 267.32049560546875 116.0 270.0 C 106.0 267.32049560546875 98.67948913574219 260.0 96.0 250.0 C 98.67948913574219 240.0 106.0 232.6794891357422 116.0 230.0 C 126.0 232.6794891357422 133.3205108642578 240.0 136.0 250.0" stroke-width="0.0" fill="rgb(202, 189, 174)" opacity="1.0"/>
    <path d="M 230.96710205078125 206.0437469482422 C 228.3205108642578 216.0 221.0 223.3205108642578 211.0 226.0 C 201.0 223.3205108642578 193.6794891357422 216.0 191.97979736328125 206.95526123046875 C 194.64254760742188 196.91864013671875 201.161865234375 187.75564575195312 210.11964416503906 185.01919555664062 C 221.4745635986328 187.9185028076172 228.2172393798828 196.00587463378906 230.96710205078125 206.0437469482422" stroke-width="0.0" fill="rgb(76, 77, 77)" opacity="0.9900123"/>
    <path d="M 143.92892456054688 230.1035919189453 C 141.3205108642578 240.0 134.0 247.3205108642578 124.0 250.0 C 114.0 247.3205108642578 106.67948913574219 240.0 103.99998474121094 229.99993896484375 C 106.67778778076172 219.994384765625 113.94123840332031 212.50540161132812 123.26325988769531 209.68821716308594 C 133.40135192871094 213.403076171875 140.9703369140625 220.46914672851562 143.92892456054688 230.1035919189453" stroke-width="0.0" fill="rgb(192, 179, 162)" opacity="0.99010295"/>
    <path d="M 36.79670715332031 64.89794921875 C 34.277313232421875 74.950927734375 26.9497127532959 82.27449798583984 16.88982391357422 84.94047546386719 C 5.739658832550049 81.77867889404297 -1.3730393648147583 74.11349487304688 -4.003209590911865 64.00718688964844 C -1.3205081224441528 54.0 6.0 46.67949295043945 15.965909004211426 44.0193977355957 C 25.7370548248291 46.84093475341797 32.71648406982422 54.425010681152344 36.79670715332031 64.89794921875" stroke-width="0.0" fill="rgb(210, 198, 182)" opacity="1.0"/>
    <path d="M 54.0 20.0 C 51.32050704956055 30.0 44.0 37.32050704956055 34.0 40.0 C 24.0 37.32050704956055 16.67949104309082 30.0 14.0 20.0 C 16.67949104309082 10.0 24.0 2.6794919967651367 34.0 0.0 C 44.0 2.6794919967651367 51.32050704956055 10.0 54.0 20.0" stroke-width="0.0" fill="rgb(207, 194, 179)" opacity="1.0"/>
    <path d="M 193.0 17.0 C 190.3205108642578 27.0 183.0 34.32050704956055 173.0 37.0 C 163.0 34.32050704956055 155.6794891357422 27.0 153.0 17.0 C 155.6794891357422 7.0 163.0 -0.32050806283950806 173.0 -3.0 C 183.0 -0.32050806283950806 190.3205108642578 7.0 193.0 17.0" stroke-width="0.0" fill="rgb(201, 188, 169)" opacity="1.0"/>
    <path d="M 150.0 255.0 C 147.3205108642578 265.0 140.0 272.32049560546875 130.0 275.0 C 120.0 272.32049560546875 112.67948913574219 265.0 110.0 255.0 C 112.67948913574219 245.0 120.0 237.6794891357422 130.0 235.0 C 140.0 237.6794891357422 147.3205108642578 245.0 150.0 255.0" stroke-width="0.0" fill="rgb(194, 183, 165)" opacity="1.0"/>
    <path d="M 56.99885559082031 239.00064086914062 C 54.32050704956055 249.0 47.0 256.32049560546875 37.0 259.0 C 27.0 256.32049560546875 19.67949104309082 249.0 17.0 239.0 C 19.67949104309082 229.0 27.0 221.6794891357422 36.999961853027344 219.00001525878906 C 46.99965286254883 221.6796875 54.31941604614258 229.0006103515625 56.99885559082031 239.00064086914062" stroke-width="0.0" fill="rgb(187, 174, 157)" opacity="0.99999386"/>
    <path d="M 28.000246047973633 63.00068664550781 C 25.3287296295166 73.02259063720703 18.087411880493164 80.5328140258789 7.373406887054443 83.8494873046875 C -2.584153652191162 81.0576400756836 -9.585789680480957 73.41095733642578 -12.03180980682373 63.05865478515625 C -9.320508003234863 53.0 -2.0 45.67949295043945 8.0 43.0 C 18.0 45.67949295043945 25.32050895690918 53.0 28.000246047973633 63.00068664550781" stroke-width="0.0" fill="rgb(198, 186, 168)" opacity="0.9948895"/>
    <path d="M 179.0 13.0 C 176.3205108642578 23.0 169.0 30.32050895690918 159.0 33.0 C 149.0 30.32050895690918 141.6794891357422 23.0 138.97982788085938 12.979719161987305 C 141.62074279785156 2.9409432411193848 148.94065856933594 -4.380171298980713 158.97918701171875 -7.020938396453857 C 169.0 -4.320508003234863 176.3205108642578 3.0 179.0 13.0" stroke-width="0.0" fill="rgb(200, 187, 168)" opacity="0.9929505"/>
    <path d="M 259.9984130859375 102.00287628173828 C 257.32049560546875 112.0 250.0 119.32051086425781 239.86753845214844 122.1008529663086 C 229.5584716796875 119.69354248046875 222.1692657470703 112.48278045654297 220.69253540039062 102.21977996826172 C 222.7838134765625 92.03590393066406 230.0057830810547 84.681396484375 239.96554565429688 82.05567932128906 C 249.96119689941406 84.74234008789062 257.30609130859375 92.02426147460938 259.9984130859375 102.00287628173828" stroke-width="0.0" fill="rgb(185, 174, 157)" opacity="1.0"/>
    <path d="M 59.0 13.0 C 56.32050704956055 23.0 49.0 30.32050895690918 39.0 33.0 C 29.0 30.32050895690918 21.67949104309082 23.0 19.000211715698242 13.000234603881836 C 21.680248260498047 3.0008161067962646 29.000864028930664 -4.319591999053955 39.00032043457031 -6.999664783477783 C 49.0 -4.320508003234863 56.32050704956055 3.0 59.0 13.0" stroke-width="0.0" fill="rgb(204, 190, 173)" opacity="1.0"/>
    <path d="M 145.0000762939453 242.00009155273438 C 142.32081604003906 252.00035095214844 135.00038146972656 259.3209228515625 125.00016021728516 262.00018310546875 C 115.0 259.32049560546875 107.67948913574219 252.0 105.0 242.0 C 107.67948913574219 232.0 115.0 224.6794891357422 125.0 222.0 C 135.0 224.6794891357422 142.3205108642578 232.0 145.0000762939453 242.00009155273438" stroke-width="0.0" fill="rgb(184, 171, 154)" opacity="0.99525875"/>
    <path d="M 34.008365631103516 131.98255920410156 C 31.32050895690918 142.0 24.0 149.3205108642578 14.0 152.0 C 4.0 149.3205108642578 -3.3205080032348633 142.0 -6.038848876953125 131.93487548828125 C -3.5864055156707764 121.60801696777344 3.4618916511535645 113.99739074707031 13.73340892791748 111.16923522949219 C 24.3670654296875 114.12224578857422 31.426597595214844 121.79825592041016 34.008365631103516 131.98255920410156" stroke-width="0.0" fill="rgb(198, 184, 167)" opacity="0.9914557"/>
    <path d="M 144.0 12.0 C 141.3205108642578 22.0 134.0 29.32050895690918 124.0 32.0 C 114.0 29.32050895690918 106.67948913574219 22.0 104.0 12.0 C 106.67948913574219 2.0 114.0 -5.320508003234863 124.0 -8.0 C 134.0 -5.320508003234863 141.3205108642578 2.0 144.0 12.0" stroke-width="0.0" fill="rgb(206, 192, 176)" opacity="1.0"/>
    <path d="M 97.0547103881836 38.0605354309082 C 94.48712158203125 48.16006851196289 87.06307220458984 55.123416900634766 76.49691009521484 58.709285736083984 C 66.96381378173828 55.43521499633789 59.6787109375 48.00266647338867 56.99999237060547 38.00001907348633 C 59.67949295043945 28.0 67.0 20.67949104309082 77.0 18.0 C 87.0 20.67949104309082 94.32051086425781 28.0 97.0547103881836 38.0605354309082" stroke-width="0.0" fill="rgb(204, 190, 172)" opacity="0.99026924"/>
    <path d="M 178.00027465820312 235.99990844726562 C 175.3205108642578 246.0 168.0 253.3205108642578 158.0 256.0 C 148.0 253.3205108642578 140.6794891357422 246.0 138.00009155273438 236.00015258789062 C 140.6804962158203 226.0021209716797 148.00558471679688 218.692626953125 157.998779296875 216.08372497558594 C 167.994140625 218.6937255859375 175.3199920654297 226.00193786621094 178.00027465820312 235.99990844726562" stroke-width="0.0" fill="rgb(192, 181, 165)" opacity="0.99838364"/>
    <path d="M 245.0 218.0 C 242.3205108642578 228.0 235.0 235.3205108642578 225.0 238.0 C 215.0 235.3205108642578 207.6794891357422 228.0 204.9150390625 217.8557891845703 C 207.1914825439453 207.35455322265625 214.20550537109375 199.78961181640625 224.12060546875 197.05380249023438 C 235.0 200.6794891357422 242.3205108642578 208.0 245.0 218.0" stroke-width="0.0" fill="rgb(194, 183, 167)" opacity="0.9909955"/>
    <path d="M 260.0 29.0 C 257.32049560546875 39.0 250.0 46.32050704956055 240.0 49.0 C 230.0 46.32050704956055 222.6794891357422 39.0 220.0 29.0 C 222.6794891357422 19.0 230.0 11.679491996765137 240.0 9.0 C 250.0 11.679491996765137 257.32049560546875 19.0 260.0 29.0" stroke-width="0.0" fill="rgb(211, 201, 185)" opacity="1.0"/>
    <path d="M 27.930805206298828 208.12777709960938 C 24.321622848510742 219.00033569335938 17.000028610229492 226.32052612304688 7.000000476837158 229.0 C -3.0 226.3205108642578 -10.320508003234863 219.0 -13.0 209.0 C -10.320508003234863 199.0 -3.0 191.6794891357422 7.6271209716796875 188.38145446777344 C 17.862953186035156 190.8341827392578 25.23931312561035 198.1112060546875 27.930805206298828 208.12777709960938" stroke-width="0.0" fill="rgb(190, 177, 158)" opacity="1.0"/>
    <path d="M 187.0 4.0 C 184.3205108642578 14.0 177.0 21.32050895690918 167.0042266845703 23.98822021484375 C 157.00120544433594 21.317398071289062 149.67999267578125 13.99952220916748 146.9287872314453 3.9720492362976074 C 149.6585693359375 -6.0080976486206055 156.99757385253906 -13.321455955505371 166.99990844726562 -16.000038146972656 C 177.0 -13.320508003234863 184.3205108642578 -6.0 187.0 4.0" stroke-width="0.0" fill="rgb(202, 189, 173)" opacity="0.99225456"/>
    <path d="M 206.0 247.0 C 203.3205108642578 257.0 196.0 264.32049560546875 186.0 267.0 C 176.0 264.32049560546875 168.6794891357422 257.0 166.0 247.0 C 168.6794891357422 237.0 176.0 229.6794891357422 186.0 227.0 C 196.0 229.6794891357422 203.3205108642578 237.0 206.0 247.0" stroke-width="0.0" fill="rgb(190, 178, 161)" opacity="0.99875945"/>
    <path d="M 47.0 35.0 C 44.32050704956055 45.0 37.0 52.32050704956055 27.0 55.0 C 17.0 52.32050704956055 9.679491996765137 45.0 7.0 35.0 C 9.679491996765137 25.0 17.0 17.67949104309082 27.0 15.0 C 37.0 17.67949104309082 44.32050704956055 25.0 47.0 35.0" stroke-width="0.0" fill="rgb(52, 53, 56)" opacity="1.0"/>
    <path d="M 200.84300231933594 43.77517318725586 C 197.75262451171875 53.327110290527344 190.23690795898438 60.479915618896484 180.30203247070312 63.07887649536133 C 171.44772338867188 60.674903869628906 163.81707763671875 53.74824142456055 161.01205444335938 43.97612762451172 C 163.6794891357422 34.0 171.0 26.67949104309082 181.0 24.0 C 191.0 26.67949104309082 198.3205108642578 34.0 200.84300231933594 43.77517318725586" stroke-width="0.0" fill="rgb(198, 186, 170)" opacity="0.9900335"/>
    <path d="M 112.0000228881836 243.9999237060547 C 109.32051086425781 254.0 102.0 261.32049560546875 92.0 264.0 C 82.0 261.32049560546875 74.67948913574219 254.0 72.02900695800781 244.05075073242188 C 74.91529083251953 234.3758544921875 82.57991027832031 227.43186950683594 92.772216796875 224.8652801513672 C 102.03986358642578 226.56158447265625 109.32221221923828 233.9945831298828 112.0000228881836 243.9999237060547" stroke-width="0.0" fill="rgb(190, 177, 160)" opacity="0.99006116"/>
    <path d="M 237.0 246.0 C 234.3205108642578 256.0 227.0 263.32049560546875 217.00001525878906 266.0 C 207.00234985351562 263.3197937011719 199.70278930664062 255.9912109375 197.13919067382812 245.99855041503906 C 199.6875762939453 236.00253295898438 207.00035095214844 228.67959594726562 217.0 226.0 C 227.0 228.6794891357422 234.3205108642578 236.0 237.0 246.0" stroke-width="0.0" fill="rgb(195, 182, 164)" opacity="0.9917985"/>
    <path d="M 140.0 43.0 C 137.3205108642578 53.0 130.0 60.32050704956055 120.29248046875 62.51362228393555 C 109.69221496582031 60.122642517089844 102.2000732421875 53.43818283081055 99.74354553222656 43.24893569946289 C 102.67927551269531 32.999385833740234 109.99678802490234 25.66989517211914 119.97974395751953 22.939228057861328 C 130.0 25.67949104309082 137.3205108642578 33.0 140.0 43.0" stroke-width="0.0" fill="rgb(203, 190, 173)" opacity="0.99012643"/>
    <path d="M 218.0299530029297 39.038753509521484 C 215.3361053466797 49.0166015625 208.0148162841797 56.3316535949707 198.0480499267578 59.00524139404297 C 189.96998596191406 56.33998107910156 182.6244354248047 49.042259216308594 179.79232788085938 39.17809295654297 C 181.6794891357422 30.0 189.0 22.67949104309082 199.0 20.0 C 209.0 22.67949104309082 216.3205108642578 30.0 218.0299530029297 39.038753509521484" stroke-width="0.0" fill="rgb(9, 10, 13)" opacity="0.99000126"/>
    <path d="M 162.95591735839844 24.132593154907227 C 160.68309020996094 34.501277923583984 153.64454650878906 42.090126037597656 143.67910766601562 44.802207946777344 C 133.0 41.32050704956055 125.67948913574219 34.0 123.0 24.0 C 125.67948913574219 14.0 133.0 6.679491996765137 142.98329162597656 4.0271711349487305 C 152.9711151123047 6.713590145111084 160.26947021484375 14.033615112304688 162.95591735839844 24.132593154907227" stroke-width="0.0" fill="rgb(199, 185, 167)" opacity="0.9903503"/>
    <path d="M 25.0 7.0 C 22.32050895690918 17.0 15.0 24.32050895690918 5.0 27.0 C -5.0 24.32050895690918 -12.320508003234863 17.0 -15.0 7.0 C -12.320508003234863 -3.0 -5.0 -10.320508003234863 5.0 -13.0 C 15.0 -10.320508003234863 22.32050895690918 -3.0 25.0 7.0" stroke-width="0.0" fill="rgb(196, 183, 164)" opacity="1.0"/>
    <path d="M 186.99984741210938 245.00030517578125 C 184.3205108642578 255.0 177.0 262.32049560546875 167.0 265.0 C 157.0 262.32049560546875 149.6794891357422 255.0 147.000244140625 245.00045776367188 C 149.68206787109375 235.0048065185547 157.0088653564453 227.6958465576172 166.99295043945312 225.02989196777344 C 176.99195861816406 227.69667053222656 184.31871032714844 235.00360107421875 186.99984741210938 245.00030517578125" stroke-width="0.0" fill="rgb(187, 175, 159)" opacity="0.9938219"/>
    <path d="M 241.0 228.0 C 238.3205108642578 238.0 231.0 245.3205108642578 221.0 248.0 C 211.0 245.3205108642578 203.6794891357422 238.0 201.0 228.0 C 203.6794891357422 218.0 211.0 210.6794891357422 221.0 208.0 C 231.0 210.6794891357422 238.3205108642578 218.0 241.0 228.0" stroke-width="0.0" fill="rgb(192, 181, 165)" opacity="1.0"/>
    <path d="M 46.0 252.0 C 43.32050704956055 262.0 36.0 269.32049560546875 26.0 272.0 C 16.0 269.32049560546875 8.679491996765137 262.0 6.0 252.0 C 8.679491996765137 242.0 16.0 234.6794891357422 26.0 232.0 C 36.0 234.6794891357422 43.32050704956055 242.0 46.0 252.0" stroke-width="0.0" fill="rgb(197, 185, 168)" opacity="1.0"/>
    <path d="M 123.00376892089844 35.993263244628906 C 120.29458618164062 45.9313850402832 112.74299621582031 52.81782913208008 103.54984283447266 55.098045349121094 C 93.57228088378906 52.567649841308594 85.87422943115234 45.65011215209961 83.01313018798828 35.968196868896484 C 85.67948913574219 26.0 93.0 18.67949104309082 103.00312805175781 15.997162818908691 C 113.0108871459961 18.66944122314453 120.33297729492188 25.988380432128906 123.00376892089844 35.993263244628906" stroke-width="0.0" fill="rgb(202, 189, 171)" opacity="0.9900928"/>
    <path d="M 89.0 3.0 C 86.32051086425781 13.0 79.0 20.32050895690918 69.0 23.0 C 59.0 20.32050895690918 51.67949295043945 13.0 49.0 3.0 C 51.67949295043945 -7.0 59.0 -14.320508003234863 69.0 -17.0 C 79.0 -14.320508003234863 86.32051086425781 -7.0 89.0 3.0" stroke-width="0.0" fill="rgb(213, 200, 182)" opacity="1.0"/>
    <path d="M 65.0 15.0 C 62.32050704956055 25.0 55.0 32.32050704956055 45.0 35.0 C 35.0 32.32050704956055 27.67949104309082 25.0 24.995380401611328 14.995793342590332 C 27.667564392089844 4.988234519958496 34.98798370361328 -2.3332600593566895 44.995361328125 -5.005199432373047 C 55.0 -2.3205080032348633 62.32050704956055 5.0 65.0 15.0" stroke-width="0.0" fill="rgb(201, 187, 172)" opacity="1.0"/>
    <path d="M 260.548095703125 189.50399780273438 C 258.0442199707031 199.68885803222656 250.65725708007812 206.9410400390625 240.181396484375 209.36045837402344 C 229.33432006835938 206.86911010742188 221.89389038085938 199.73379516601562 220.92100524902344 188.28746032714844 C 222.3614959716797 178.72549438476562 229.75050354003906 171.4438018798828 239.9102783203125 168.91207885742188 C 250.0 171.6794891357422 257.32049560546875 179.0 260.548095703125 189.50399780273438" stroke-width="0.0" fill="rgb(189, 177, 160)" opacity="0.99234486"/>
    <path d="M 69.0 38.0 C 66.32051086425781 48.0 59.0 55.32050704956055 49.9634895324707 57.02164077758789 C 39.96997833251953 54.340484619140625 32.622283935546875 47.042144775390625 29.787378311157227 37.22224044799805 C 32.456695556640625 28.855257034301758 39.9137077331543 21.630990982055664 49.93925857543945 18.972280502319336 C 59.0 20.67949104309082 66.32051086425781 28.0 69.0 38.0" stroke-width="0.0" fill="rgb(9, 12, 16)" opacity="0.9900028"/>
    <path d="M 41.960514068603516 26.105884552001953 C 37.38102722167969 36.08343505859375 30.113691329956055 43.486114501953125 20.470020294189453 46.5749626159668 C 11.0 44.32050704956055 3.6794919967651367 37.0 1.0 27.0 C 3.6794919967651367 17.0 11.0 9.679491996765137 21.002296447753906 7.005780220031738 C 31.279998779296875 9.572083473205566 39.136878967285156 16.38520622253418 41.960514068603516 26.105884552001953" stroke-width="0.0" fill="rgb(208, 199, 181)" opacity="0.99001586"/>
    <path d="M 247.00965881347656 83.7945327758789 C 244.34619140625 92.03028869628906 237.02880859375 99.34290313720703 228.70489501953125 102.01183319091797 C 218.98428344726562 99.3346176147461 211.66696166992188 92.01513671875 208.994873046875 83.7170639038086 C 211.6682891845703 73.98628997802734 218.98614501953125 66.66795349121094 228.976318359375 63.99205017089844 C 237.06817626953125 66.54006958007812 244.34776306152344 73.95704650878906 247.00965881347656 83.7945327758789" stroke-width="0.0" fill="rgb(10, 12, 18)" opacity="0.9900006"/>
    <path d="M 95.99996185302734 17.999914169311523 C 93.31983947753906 27.998424530029297 85.99542999267578 35.309288024902344 75.9864501953125 37.964111328125 C 66.0 35.32050704956055 58.67949295043945 28.0 56.0 18.0 C 58.67949295043945 8.0 66.0 0.6794919371604919 76.0 -2.0 C 86.0 0.6794919371604919 93.32051086425781 8.0 95.99996185302734 17.999914169311523" stroke-width="0.0" fill="rgb(197, 183, 167)" opacity="0.9946266"/>
    <path d="M 36.052879333496094 152.09423828125 C 33.3800163269043 162.10044860839844 26.160114288330078 169.5631561279297 16.60870933532715 172.71641540527344 C 7.0 170.3205108642578 -0.32050806283950806 163.0 -3.0 153.0 C -0.32050806283950806 143.0 7.0 135.6794891357422 17.0 133.0 C 27.0 135.6794891357422 34.32050704956055 143.0 36.052879333496094 152.09423828125" stroke-width="0.0" fill="rgb(188, 175, 159)" opacity="0.990011"/>
    <path d="M 98.00190734863281 248.99586486816406 C 95.32051086425781 259.0 88.0 266.32049560546875 78.0 269.0 C 68.0 266.32049560546875 60.67949295043945 259.0 57.99994659423828 248.9999237060547 C 60.6791877746582 238.99961853027344 67.99971008300781 231.67953491210938 78.14199829101562 228.73651123046875 C 88.0969009399414 231.4996337890625 95.34557342529297 238.95111083984375 98.00190734863281 248.99586486816406" stroke-width="0.0" fill="rgb(193, 179, 163)" opacity="1.0"/>
    <path d="M 30.0440731048584 169.29225158691406 C 27.506977081298828 179.63726806640625 21.5667667388916 188.0009307861328 11.454357147216797 190.46417236328125 C 1.0 187.3205108642578 -6.320508003234863 180.0 -9.0 170.0 C -6.320508003234863 160.0 1.0 152.6794891357422 10.999957084655762 150.00001525878906 C 20.993820190429688 152.68128967285156 28.06578254699707 160.08938598632812 30.0440731048584 169.29225158691406" stroke-width="0.0" fill="rgb(192, 179, 159)" opacity="0.9901804"/>
    <path d="M 116.00443267822266 2.0038280487060547 C 113.33056640625 12.008724212646484 106.00772094726562 19.327224731445312 96.00199127197266 22.001737594604492 C 86.0 19.32050895690918 78.67948913574219 12.0 76.0 2.0 C 78.67948913574219 -8.0 86.0 -15.320508003234863 96.0 -18.0 C 106.0 -15.320508003234863 113.32051086425781 -8.0 116.00443267822266 2.0038280487060547" stroke-width="0.0" fill="rgb(203, 189, 172)" opacity="1.0"/>
    <path d="M 32.17402648925781 13.11394214630127 C 29.473926544189453 23.096656799316406 22.062944412231445 30.36312484741211 12.010259628295898 33.0072021484375 C 2.0 30.32050895690918 -5.320508003234863 23.0 -8.0 13.0 C -5.320508003234863 3.0 2.0 -4.320508003234863 12.000579833984375 -7.000152587890625 C 22.007400512695312 -4.324300289154053 29.339872360229492 2.987898826599121 32.17402648925781 13.11394214630127" stroke-width="0.0" fill="rgb(201, 185, 168)" opacity="0.9976906"/>
    <path d="M 192.9479522705078 40.06544876098633 C 188.51812744140625 51.546165466308594 182.7849578857422 59.1396369934082 172.73069763183594 61.70077133178711 C 161.18226623535156 58.65512466430664 153.73208618164062 51.905792236328125 151.04690551757812 41.91506576538086 C 154.62213134765625 30.974395751953125 161.9876251220703 23.668212890625 172.0521697998047 20.96297836303711 C 182.53993225097656 23.34896469116211 190.21710205078125 30.22319221496582 192.9479522705078 40.06544876098633" stroke-width="0.0" fill="rgb(205, 192, 176)" opacity="0.9900336"/>
    <path d="M 31.70709991455078 62.66953659057617 C 29.105220794677734 72.73561096191406 21.70594024658203 80.01984405517578 11.463756561279297 82.48008728027344 C 1.0089874267578125 79.29900360107422 -6.319690704345703 71.9969711303711 -9.000207901000977 62.00007629394531 C -6.320508003234863 52.0 1.0 44.67949295043945 10.999860763549805 42.00004959106445 C 20.994234085083008 44.68147277832031 28.236732482910156 52.02956771850586 31.70709991455078 62.66953659057617" stroke-width="0.0" fill="rgb(201, 188, 173)" opacity="0.9909543"/>
    <path d="M 23.938125610351562 184.87884521484375 C 21.233057022094727 194.85595703125 13.781238555908203 202.0164794921875 3.338500499725342 204.35565185546875 C -7.007614612579346 201.3417510986328 -14.321161270141602 194.00181579589844 -17.000019073486328 184.00006103515625 C -14.320508003234863 174.0 -7.0 166.6794891357422 3.0 164.0 C 13.0 166.6794891357422 20.320022583007812 174.00013732910156 23.938125610351562 184.87884521484375" stroke-width="0.0" fill="rgb(194, 181, 163)" opacity="1.0"/>
    <path d="M 24.994691848754883 53.993038177490234 C 22.296852111816406 63.974205017089844 14.974899291992188 71.29962921142578 5.018637180328369 73.91777801513672 C -4.993381500244141 71.30406188964844 -12.31956672668457 63.99778747558594 -14.999948501586914 53.999881744384766 C -12.320508003234863 44.0 -5.0 36.67949295043945 5.0 34.0 C 15.0 36.67949295043945 22.32050895690918 44.0 24.994691848754883 53.993038177490234" stroke-width="0.0" fill="rgb(199, 185, 169)" opacity="0.99177194"/>
    <path d="M 258.9998474121094 217.0001983642578 C 256.32049560546875 227.0 249.0 234.3205108642578 239.0 237.0 C 229.0 234.3205108642578 221.6794891357422 227.0 218.98614501953125 216.98959350585938 C 221.65567016601562 206.98204040527344 228.9860382080078 199.66896057128906 238.99485778808594 197.00643920898438 C 248.99771118164062 199.68338012695312 256.319580078125 207.00140380859375 258.9998474121094 217.0001983642578" stroke-width="0.0" fill="rgb(189, 178, 163)" opacity="1.0"/>
    <path d="M 137.99630737304688 229.0043182373047 C 135.3205108642578 239.0 128.0 246.3205108642578 118.0 249.0 C 108.0 246.3205108642578 100.67948913574219 239.0 98.0 229.0 C 100.67948913574219 219.0 108.0 211.6794891357422 117.98281860351562 209.02670288085938 C 127.9751205444336 211.71401977539062 135.30526733398438 219.0191650390625 137.99630737304688 229.0043182373047" stroke-width="0.0" fill="rgb(191, 179, 162)" opacity="0.9990975"/>
    <path d="M 214.00039672851562 225.00070190429688 C 211.32473754882812 235.0081329345703 204.01597595214844 242.3514404296875 194.02061462402344 245.0401611328125 C 183.9976806640625 242.32154846191406 176.66688537597656 235.00564575195312 174.45205688476562 225.3485107421875 C 177.14825439453125 215.17689514160156 183.52342224121094 206.92486572265625 193.216552734375 204.04510498046875 C 204.0626983642578 207.49130249023438 211.32183837890625 214.99549865722656 214.00039672851562 225.00070190429688" stroke-width="0.0" fill="rgb(194, 182, 165)" opacity="0.9900429"/>
    <path d="M 264.2559509277344 233.33831787109375 C 262.0152282714844 243.77987670898438 254.84889221191406 251.22389221191406 244.8304443359375 253.92391967773438 C 233.85269165039062 250.64407348632812 226.66375732421875 243.0420379638672 223.99949645996094 233.0013885498047 C 226.6794891357422 223.0 234.0 215.6794891357422 244.0 213.0 C 254.0 215.6794891357422 261.32049560546875 223.0 264.2559509277344 233.33831787109375" stroke-width="0.0" fill="rgb(189, 177, 161)" opacity="0.9912609"/>
    <path d="M 153.93431091308594 236.11163330078125 C 151.32054138183594 246.00009155273438 144.0007781982422 253.32308959960938 133.9724884033203 256.1258850097656 C 123.98649597167969 253.35235595703125 116.67721557617188 246.0050048828125 114.00006866455078 236.00086975097656 C 116.68443298339844 226.01226806640625 124.03974914550781 218.77716064453125 133.24388122558594 216.8834686279297 C 143.30645751953125 219.4919891357422 150.92056274414062 226.54551696777344 153.93431091308594 236.11163330078125" stroke-width="0.0" fill="rgb(187, 175, 159)" opacity="0.9902154"/>
    <path d="M 254.0142059326172 41.033660888671875 C 251.55816650390625 51.43739700317383 244.7162628173828 59.187705993652344 234.97959899902344 60.01798629760742 C 224.98199462890625 57.33420181274414 217.66070556640625 50.020050048828125 214.9661102294922 40.04536819458008 C 216.67161560058594 30.996559143066406 223.99864196777344 23.678897857666016 233.9999237060547 20.99996566772461 C 244.0 23.67949104309082 251.3205108642578 31.0 254.0142059326172 41.033660888671875" stroke-width="0.0" fill="rgb(10, 11, 16)" opacity="0.9900017"/>
    <path d="M 31.0 249.0 C 28.32050895690918 259.0 21.0 266.32049560546875 11.0 269.0 C 1.0 266.32049560546875 -6.320508003234863 259.0 -9.0 249.0 C -6.320508003234863 239.0 1.0 231.6794891357422 11.0 229.0 C 21.0 231.6794891357422 28.32050895690918 239.0 31.0 249.0" stroke-width="0.0" fill="rgb(192, 180, 162)" opacity="0.99251187"/>
    <path d="M 57.00580978393555 136.2318115234375 C 54.336090087890625 146.0232391357422 47.03044509887695 153.35507202148438 37.040714263916016 157.9337921142578 C 27.06931495666504 155.2782745361328 19.835796356201172 147.893310546875 17.545427322387695 137.5498809814453 C 20.679468154907227 126.99993133544922 27.99955940246582 119.67811584472656 37.13279724121094 117.87014770507812 C 47.03757095336914 120.63444519042969 54.3386344909668 127.97234344482422 57.00580978393555 136.2318115234375" stroke-width="0.0" fill="rgb(5, 7, 11)" opacity="0.9900014"/>
    <path d="M 68.00615692138672 192.8950958251953 C 65.34332275390625 201.04298400878906 58.106483459472656 210.15621948242188 49.925201416015625 212.96900939941406 C 39.79873275756836 208.56851196289062 32.57674789428711 201.15089416503906 29.948884963989258 191.21070861816406 C 32.53086853027344 182.90289306640625 39.944740295410156 175.64987182617188 48.07066345214844 172.99354553222656 C 58.019657135009766 175.66407775878906 65.33636474609375 182.98013305664062 68.00615692138672 192.8950958251953" stroke-width="0.0" fill="rgb(38, 37, 39)" opacity="0.9900028"/>
    <path d="M 30.514347076416016 30.74590301513672 C 27.32050895690918 41.0 20.0 48.32050704956055 10.0 51.0 C 3.552713678800501e-15 48.32050704956055 -7.320508003234863 41.0 -9.999418258666992 31.000879287719727 C -7.316531658172607 21.006288528442383 0.010496868751943111 13.69786548614502 10.004372596740723 11.059460639953613 C 20.00695037841797 13.685996055603027 27.462350845336914 20.9481143951416 30.514347076416016 30.74590301513672" stroke-width="0.0" fill="rgb(200, 187, 172)" opacity="1.0"/>
    <path d="M 274.0 36.0 C 271.32049560546875 46.0 264.0 53.32050704956055 254.0 56.0 C 244.0 53.32050704956055 236.6794891357422 46.0 234.0 36.0 C 236.6794891357422 26.0 244.0 18.67949104309082 254.0 16.0 C 264.0 18.67949104309082 271.32049560546875 26.0 274.0 36.0" stroke-width="0.0" fill="rgb(202, 189, 171)" opacity="1.0"/>
    <path d="M 270.0157165527344 168.9672393798828 C 267.32049560546875 179.0 260.0 186.32049560546875 250.00030517578125 188.9993133544922 C 240.00173950195312 186.31951904296875 232.6931610107422 178.99468994140625 230.04383850097656 168.98275756835938 C 232.67294311523438 158.98199462890625 239.9323272705078 151.51199340820312 250.6841278076172 148.1349334716797 C 260.5465393066406 150.9498748779297 267.5085144042969 158.66653442382812 270.0157165527344 168.9672393798828" stroke-width="0.0" fill="rgb(195, 181, 165)" opacity="0.9902798"/>
    <path d="M 147.2357635498047 2.9566569328308105 C 144.36769104003906 13.035188674926758 137.0331268310547 20.3603458404541 127.00763702392578 23.047666549682617 C 116.97268676757812 20.351154327392578 109.65314483642578 13.026039123535156 106.9881362915039 3.0101797580718994 C 109.67961883544922 -6.999951362609863 117.00001525878906 -14.320503234863281 127.00022888183594 -17.000085830688477 C 137.006591796875 -14.322981834411621 144.3814239501953 -7.023529052734375 147.2357635498047 2.9566569328308105" stroke-width="0.0" fill="rgb(202, 188, 171)" opacity="0.9924642"/>
    <path d="M 270.99945068359375 222.00119018554688 C 268.320556640625 232.00022888183594 261.0014343261719 239.3249053955078 251.0115509033203 241.9964599609375 C 241.00038146972656 239.3192138671875 233.67950439453125 231.99996948242188 231.0083465576172 222.00599670410156 C 233.69329833984375 212.0113067626953 241.0103759765625 204.690185546875 250.90135192871094 202.2281494140625 C 260.9498596191406 204.7896728515625 268.31170654296875 212.01971435546875 270.99945068359375 222.00119018554688" stroke-width="0.0" fill="rgb(192, 180, 163)" opacity="0.9918299"/>
    <path d="M 269.007080078125 44.016014099121094 C 266.42626953125 54.20863723754883 259.3846740722656 61.89997863769531 248.3029327392578 64.82483673095703 C 238.04946899414062 62.25220489501953 230.70022583007812 54.966636657714844 228.01913452148438 44.97591018676758 C 232.5792694091797 34.81943130493164 239.697509765625 27.235017776489258 249.1868896484375 24.113752365112305 C 259.0 26.67949104309082 266.32049560546875 34.0 269.007080078125 44.016014099121094" stroke-width="0.0" fill="rgb(193, 178, 161)" opacity="0.9900616"/>
    <path d="M 26.958242416381836 163.0247802734375 C 24.32050895690918 173.0 17.0 180.3205108642578 7.0 183.0 C -3.0 180.3205108642578 -10.320508003234863 173.0 -13.0 163.0 C -10.320508003234863 153.0 -3.0 145.6794891357422 6.999272346496582 143.00009155273438 C 16.98729705810547 145.68533325195312 24.27765464782715 153.0237579345703 26.958242416381836 163.0247802734375" stroke-width="0.0" fill="rgb(197, 185, 168)" opacity="1.0"/>
    <path d="M 38.05689239501953 44.030216217041016 C 35.34028625488281 54.025962829589844 28.03488540649414 61.37961196899414 19.965003967285156 64.04693603515625 C 9.968559265136719 61.34579849243164 2.652223587036133 54.03226089477539 -0.01775205135345459 44.68392562866211 C 2.652259349822998 35.96824264526367 9.969143867492676 28.654550552368164 19.94797134399414 25.98828887939453 C 29.944494247436523 26.76804542541504 37.282928466796875 34.0445671081543 38.05689239501953 44.030216217041016" stroke-width="0.0" fill="rgb(10, 14, 18)" opacity="0.99000144"/>
    <path d="M 209.44288635253906 16.30623435974121 C 207.11666870117188 26.869625091552734 199.92483520507812 34.27950668334961 189.9464874267578 36.974849700927734 C 179.0067901611328 33.31243133544922 171.68678283691406 25.99349594116211 169.04139709472656 15.986451148986816 C 171.66775512695312 5.988442420959473 178.98741149902344 -1.3355748653411865 189.4642791748047 -4.519100189208984 C 199.6429443359375 -2.0073580741882324 206.87733459472656 5.396995544433594 209.44288635253906 16.30623435974121" stroke-width="0.0" fill="rgb(200, 187, 171)" opacity="1.0"/>
    <path d="M 167.02464294433594 240.98448181152344 C 164.31930541992188 250.99847412109375 156.99813842773438 258.3181457519531 146.99118041992188 261.0054931640625 C 136.96568298339844 258.34808349609375 129.62100219726562 251.0435333251953 126.94364929199219 241.0142364501953 C 129.63548278808594 230.95196533203125 136.94082641601562 223.59727478027344 146.94342041015625 220.84823608398438 C 157.01426696777344 223.6658935546875 164.34906005859375 230.98121643066406 167.02464294433594 240.98448181152344" stroke-width="0.0" fill="rgb(189, 177, 161)" opacity="0.99321485"/>
    <path d="M 30.134206771850586 168.41058349609375 C 27.73904037475586 177.5738983154297 20.7059383392334 185.11163330078125 10.957799911499023 187.8416290283203 C 1.0189154148101807 185.28570556640625 -6.313273906707764 177.98910522460938 -8.998734474182129 167.99827575683594 C -6.320508003234863 158.0 1.0 150.6794891357422 10.801271438598633 148.17459106445312 C 20.449506759643555 151.15811157226562 27.579214096069336 158.6416778564453 30.134206771850586 168.41058349609375" stroke-width="0.0" fill="rgb(199, 185, 165)" opacity="0.9902408"/>
    <path d="M 80.21499633789062 46.49689865112305 C 77.57202911376953 56.253379821777344 70.20673370361328 63.46300506591797 61.01433563232422 66.05359649658203 C 50.31655502319336 63.488197326660156 42.71376037597656 57.92167282104492 40.01108932495117 47.957176208496094 C 44.389225006103516 36.42220687866211 50.12025833129883 28.733797073364258 60.075233459472656 26.0408878326416 C 70.62360382080078 30.090591430664062 77.89776611328125 37.379512786865234 80.21499633789062 46.49689865112305" stroke-width="0.0" fill="rgb(165, 167, 167)" opacity="0.9900068"/>
    <path d="M 132.00257873535156 233.99859619140625 C 129.321044921875 244.00042724609375 122.0003433227539 251.3207550048828 112.00007629394531 254.00003051757812 C 102.00074768066406 251.3202667236328 94.6908950805664 243.99615478515625 91.82146453857422 233.88050842285156 C 94.56884765625 223.94961547851562 101.9802474975586 216.6708221435547 111.99886322021484 213.99949645996094 C 122.00010681152344 216.679443359375 129.32154846191406 223.99961853027344 132.00257873535156 233.99859619140625" stroke-width="0.0" fill="rgb(194, 181, 164)" opacity="1.0"/>
    <path d="M 129.09426879882812 247.044189453125 C 126.3965072631836 257.04449462890625 119.02654266357422 264.3364562988281 109.00326538085938 267.0020751953125 C 98.99939727783203 264.3208312988281 91.67720794677734 257.00115966796875 88.9927749633789 247.00018310546875 C 91.67806243896484 236.9995574951172 99.00006866455078 229.67982482910156 109.00019836425781 227.00015258789062 C 119.00069427490234 229.67916870117188 126.32453155517578 236.9982452392578 129.09426879882812 247.044189453125" stroke-width="0.0" fill="rgb(193, 180, 164)" opacity="1.0"/>
    <path d="M 230.21400451660156 17.179794311523438 C 227.38987731933594 27.06108856201172 220.05003356933594 34.35779571533203 210.1018829345703 37.01416778564453 C 200.311279296875 34.8540153503418 192.9522247314453 28.757883071899414 190.62010192871094 18.41001319885254 C 193.49168395996094 7.729809284210205 200.62449645996094 0.17567580938339233 211.56373596191406 -2.7901132106781006 C 221.73419189453125 -0.11584365367889404 228.9325714111328 7.32491397857666 230.21400451660156 17.179794311523438" stroke-width="0.0" fill="rgb(203, 191, 175)" opacity="0.9900099"/>
    <path d="M 252.16819763183594 236.13031005859375 C 249.75123596191406 246.5750274658203 242.7168731689453 254.14845275878906 232.76126098632812 256.8630676269531 C 221.99566650390625 253.3301239013672 214.67884826660156 246.00173950195312 212.0 236.0000762939453 C 214.6796417236328 226.00035095214844 222.00057983398438 218.68040466308594 231.99354553222656 216.0142822265625 C 242.0226593017578 218.66375732421875 249.3555450439453 225.9717559814453 252.16819763183594 236.13031005859375" stroke-width="0.0" fill="rgb(186, 175, 158)" opacity="1.0"/>
    <path d="M 146.40524291992188 45.28109359741211 C 143.4707489013672 55.172054290771484 136.166015625 62.45426940917969 126.36434173583984 65.06756591796875 C 117.59050750732422 62.58865737915039 110.10277557373047 55.5338134765625 107.28606414794922 45.792232513427734 C 109.68378448486328 36.00148391723633 117.00032043457031 28.67960548400879 127.00102233886719 25.999629974365234 C 137.0297393798828 28.668325424194336 144.55519104003906 35.89826965332031 146.40524291992188 45.28109359741211" stroke-width="0.0" fill="rgb(200, 186, 169)" opacity="0.9900287"/>
    <path d="M 45.99201965332031 131.18179321289062 C 42.9874153137207 141.0758514404297 34.04548263549805 148.35401916503906 24.064632415771484 151.0375518798828 C 15.009449005126953 149.28448486328125 7.679025173187256 142.00059509277344 4.981984615325928 131.9605712890625 C 7.431117057800293 121.56037139892578 14.29255485534668 113.81958770751953 24.083425521850586 111.03285217285156 C 34.058406829833984 115.63603210449219 43.2457275390625 122.85779571533203 45.99201965332031 131.18179321289062" stroke-width="0.0" fill="rgb(203, 192, 173)" opacity="0.9900027"/>
    <path d="M 115.01152038574219 24.9693603515625 C 112.29534912109375 34.947776794433594 104.88792419433594 42.106178283691406 94.8376235961914 44.677024841308594 C 85.01811981201172 42.2948112487793 77.68648529052734 34.98719024658203 74.9671630859375 25.008651733398438 C 77.68152618408203 15.003215789794922 85.00534057617188 7.688800811767578 95.00611877441406 5.023244380950928 C 105.01446533203125 7.673503875732422 112.361572265625 14.975189208984375 115.01152038574219 24.9693603515625" stroke-width="0.0" fill="rgb(204, 189, 171)" opacity="0.99092376"/>
    <path d="M 237.92718505859375 235.01705932617188 C 235.30996704101562 244.99034118652344 227.99005126953125 252.3094482421875 217.93899536132812 255.11558532714844 C 207.91668701171875 252.41961669921875 200.57781982421875 245.08438110351562 197.88995361328125 235.04901123046875 C 200.67694091796875 224.9991912841797 207.9998779296875 217.67945861816406 217.99539184570312 215.0044708251953 C 227.98175048828125 217.6946258544922 235.2826690673828 225.02488708496094 237.92718505859375 235.01705932617188" stroke-width="0.0" fill="rgb(189, 176, 158)" opacity="0.9921107"/>
    <path d="M 80.93506622314453 250.03524780273438 C 78.3249282836914 260.00225830078125 71.00113677978516 267.321044921875 61.00008773803711 270.0000305175781 C 51.0 267.32049560546875 43.67949295043945 260.0 41.013343811035156 250.0082550048828 C 43.694339752197266 240.007080078125 51.00086975097656 232.6734619140625 60.95683670043945 230.08126831054688 C 70.95516204833984 232.73704528808594 78.26803588867188 240.04331970214844 80.93506622314453 250.03524780273438" stroke-width="0.0" fill="rgb(194, 180, 164)" opacity="0.99072313"/>
    <path d="M 243.01690673828125 143.96435546875 C 241.29071044921875 152.99172973632812 233.99990844726562 160.3204803466797 224.4642333984375 162.673583984375 C 214.90060424804688 159.4925994873047 207.6536407470703 152.0511932373047 204.99440002441406 143.92913818359375 C 207.6672821044922 133.9853057861328 214.98553466796875 126.66781616210938 224.96395874023438 123.99251556396484 C 233.0279083251953 126.6553726196289 240.34100341796875 133.9736785888672 243.01690673828125 143.96435546875" stroke-width="0.0" fill="rgb(8, 12, 16)" opacity="0.99000126"/>
    <path d="M 25.052947998046875 135.98748779296875 C 22.35491943359375 146.0266571044922 15.02184009552002 153.33863830566406 5.005614757537842 155.99754333496094 C -4.999366283416748 153.3189697265625 -12.320418357849121 145.99977111816406 -15.004373550415039 135.99020385742188 C -12.390299797058105 125.85304260253906 -5.317202568054199 118.15457153320312 4.472677707672119 115.25532531738281 C 15.051410675048828 118.62461853027344 22.38613510131836 125.94552612304688 25.052947998046875 135.98748779296875" stroke-width="0.0" fill="rgb(199, 185, 168)" opacity="0.99871707"/>
    <path d="M 42.0 248.0 C 39.32050704956055 258.0 32.0 265.32049560546875 21.99986457824707 268.00006103515625 C 11.998321533203125 265.32135009765625 4.675540447235107 258.0026550292969 2.0410850048065186 247.99798583984375 C 4.680492401123047 238.00047302246094 12.000225067138672 230.6796112060547 22.00002098083496 228.00001525878906 C 32.0 230.6794891357422 39.32050704956055 238.0 42.0 248.0" stroke-width="0.0" fill="rgb(187, 174, 158)" opacity="0.994829"/>
    <path d="M 85.00481414794922 10.005329132080078 C 82.33747100830078 20.021141052246094 75.03616333007812 27.38907814025879 64.0874252319336 30.936307907104492 C 54.04362106323242 28.282352447509766 46.723670959472656 20.954307556152344 44.09675979614258 10.88792896270752 C 47.67914962768555 3.15008255711291e-05 55.000179290771484 -7.320323467254639 65.00005340576172 -9.999954223632812 C 75.0 -7.320508003234863 82.32051086425781 5.334622414920887e-07 85.00481414794922 10.005329132080078" stroke-width="0.0" fill="rgb(202, 188, 170)" opacity="1.0"/>
    <path d="M 46.80290985107422 250.888671875 C 44.27159881591797 260.9808044433594 36.99416732788086 268.31805419921875 26.99987030029297 270.99981689453125 C 17.00322151184082 268.31915283203125 9.704408645629883 260.99005126953125 7.156210422515869 251.00572204589844 C 9.724716186523438 241.02317810058594 17.011781692504883 233.68588256835938 27.000911712646484 231.00094604492188 C 37.00249481201172 233.67938232421875 44.35014343261719 240.989013671875 46.80290985107422 250.888671875" stroke-width="0.0" fill="rgb(181, 168, 152)" opacity="0.99044466"/>
    <path d="M 133.5733642578125 225.5599822998047 C 130.28744506835938 235.96177673339844 122.95807647705078 243.2751922607422 113.0231704711914 245.95639038085938 C 103.0213394165039 243.26869201660156 95.5158462524414 236.0464630126953 93.6146240234375 226.6284637451172 C 96.3764877319336 216.62191772460938 103.63599395751953 209.4019317626953 112.65326690673828 206.8351593017578 C 123.0007095336914 209.20997619628906 130.89378356933594 215.58482360839844 133.5733642578125 225.5599822998047" stroke-width="0.0" fill="rgb(198, 187, 170)" opacity="0.9900339"/>
    <path d="M 264.0 11.0 C 261.32049560546875 21.0 254.0 28.32050895690918 244.0 31.0 C 234.0 28.32050895690918 226.6794891357422 21.0 224.0 11.0 C 226.6794891357422 1.0 234.0 -6.320508003234863 244.0 -9.0 C 254.0 -6.320508003234863 261.32049560546875 1.0 264.0 11.0" stroke-width="0.0" fill="rgb(198, 186, 168)" opacity="1.0"/>
    <path d="M 27.00273323059082 223.98143005371094 C 24.287673950195312 233.9590606689453 16.954179763793945 241.2727813720703 6.992888450622559 243.9691925048828 C -2.9986047744750977 241.31544494628906 -10.320836067199707 234.00010681152344 -13.00041675567627 223.99945068359375 C -10.32463264465332 213.9916229248047 -3.0181360244750977 206.64198303222656 7.002952575683594 203.90151977539062 C 17.041004180908203 206.6244659423828 24.35009002685547 213.966552734375 27.00273323059082 223.98143005371094" stroke-width="0.0" fill="rgb(194, 181, 164)" opacity="0.9922352"/>
    <path d="M 266.9996643066406 114.99945068359375 C 264.31781005859375 124.99545288085938 256.9919128417969 132.3057098388672 247.03085327148438 134.92910766601562 C 237.08412170410156 132.2246551513672 229.7523956298828 124.9228515625 226.93865966796875 114.9220962524414 C 229.59304809570312 104.93364715576172 236.94305419921875 97.62515258789062 246.98098754882812 94.97960662841797 C 257.0 97.67948913574219 264.32049560546875 105.0 266.9996643066406 114.99945068359375" stroke-width="0.0" fill="rgb(196, 182, 166)" opacity="1.0"/>
    <path d="M 57.75156784057617 224.5102996826172 C 54.33942413330078 235.02589416503906 47.043758392333984 242.3997802734375 36.98351287841797 245.1492919921875 C 26.878368377685547 242.48365783691406 19.595476150512695 235.09716796875 16.861862182617188 224.8719940185547 C 19.17423439025879 214.34375 26.201221466064453 206.7882080078125 36.29917526245117 204.02699279785156 C 46.24042510986328 208.0845184326172 53.921531677246094 215.7518310546875 57.75156784057617 224.5102996826172" stroke-width="0.0" fill="rgb(191, 178, 160)" opacity="0.990235"/>
    <path d="M 272.0000915527344 35.00019454956055 C 269.32244873046875 45.005088806152344 262.0185241699219 52.36927032470703 251.96385192871094 55.404476165771484 C 242.22848510742188 52.25156021118164 235.22503662109375 44.61826705932617 232.96925354003906 35.804100036621094 C 235.3639678955078 25.406631469726562 242.09103393554688 17.711008071899414 252.0018310546875 15.000605583190918 C 262.0 17.67949104309082 269.32049560546875 25.0 272.0000915527344 35.00019454956055" stroke-width="0.0" fill="rgb(190, 176, 158)" opacity="0.9901627"/>
    <path d="M 227.77294921875 218.20860290527344 C 225.27279663085938 227.95423889160156 217.94915771484375 235.255859375 208.00186157226562 237.88279724121094 C 198.06961059570312 235.25352478027344 190.8147430419922 227.90966796875 187.38084411621094 217.35830688476562 C 189.81275939941406 207.09396362304688 197.06349182128906 199.71942138671875 207.03773498535156 197.41160583496094 C 217.1504669189453 201.60049438476562 224.73199462890625 208.73001098632812 227.77294921875 218.20860290527344" stroke-width="0.0" fill="rgb(179, 166, 150)" opacity="0.99003"/>
    <path d="M 195.8734893798828 250.03123474121094 C 193.31202697753906 259.9964294433594 185.99864196777344 267.3198547363281 176.00001525878906 269.9999084472656 C 166.00192260742188 267.3196716308594 158.6946563720703 259.9940185546875 156.1098175048828 250.00057983398438 C 158.7147979736328 240.01544189453125 165.99461364746094 232.6449432373047 175.9539794921875 229.9674835205078 C 185.97718811035156 232.6992950439453 193.270263671875 240.03173828125 195.8734893798828 250.03123474121094" stroke-width="0.0" fill="rgb(194, 181, 166)" opacity="0.9904238"/>
    <path d="M 147.2147216796875 40.18793869018555 C 144.7098846435547 50.4113655090332 137.46630859375 57.87449645996094 127.10735321044922 60.75863265991211 C 116.56246185302734 57.843711853027344 109.3282241821289 50.38139343261719 106.85478210449219 40.14751434326172 C 109.6768798828125 30.00229263305664 117.0057144165039 22.688486099243164 127.02050018310547 19.972124099731445 C 137.01089477539062 22.65648078918457 144.3227996826172 29.995115280151367 147.2147216796875 40.18793869018555" stroke-width="0.0" fill="rgb(207, 193, 177)" opacity="1.0"/>
    <path d="M 275.0 107.0 C 272.32049560546875 116.99999237060547 264.99993896484375 124.32025909423828 255.0298309326172 126.93932342529297 C 245.03575134277344 124.26708984375 237.66551208496094 116.98355102539062 234.7598419189453 106.8326644897461 C 237.2783660888672 96.60629272460938 244.6054229736328 89.27500915527344 254.7936248779297 86.7457504272461 C 265.0000305175781 89.67940521240234 272.32049560546875 97.0 275.0 107.0" stroke-width="0.0" fill="rgb(199, 188, 169)" opacity="0.9908972"/>
    <path d="M 257.99462890625 15.007652282714844 C 255.3231964111328 25.000673294067383 247.99520874023438 32.3039665222168 238.9108428955078 34.0585823059082 C 228.9344482421875 31.366413116455078 221.5626678466797 24.08820152282715 218.25042724609375 14.227310180664062 C 219.86712646484375 4.186028957366943 227.18350219726562 -3.1411805152893066 237.38687133789062 -5.621644496917725 C 247.98216247558594 -2.29988431930542 255.3042755126953 5.016486167907715 257.99462890625 15.007652282714844" stroke-width="0.0" fill="rgb(189, 176, 160)" opacity="0.9900295"/>
    <path d="M 247.01126098632812 151.07318115234375 C 244.3473358154297 161.03433227539062 237.03463745117188 168.34799194335938 227.03433227539062 171.03671264648438 C 218.91917419433594 169.15029907226562 211.65914916992188 161.0380859375 208.98941040039062 151.0262451171875 C 211.36282348632812 142.62094116210938 218.59959411621094 135.3047332763672 227.85806274414062 132.7887420654297 C 237.26976013183594 135.37059020996094 244.40647888183594 142.83575439453125 247.01126098632812 151.07318115234375" stroke-width="0.0" fill="rgb(6, 8, 12)" opacity="0.99000216"/>
  </g>
</svg>
