<?xml version="1.0" ?>
<svg xmlns="http://www.w3.org/2000/svg" version="1.1" width="256" height="256">
  <defs/>
  <g>
    <path d="M 215.0 62.0 C 212.3205108642578 72.0 205.0 79.32051086425781 195.0 82.0 C 185.0 79.32051086425781 177.6794891357422 72.0 174.3613739013672 61.57913589477539 C 177.24534606933594 51.75960159301758 184.89920043945312 44.63516616821289 194.99452209472656 41.997718811035156 C 205.0 44.67949295043945 212.3205108642578 52.0 215.0 62.0" stroke-width="0.0" fill="rgb(234, 235, 237)" opacity="0.99396765"/>
    <path d="M 235.0 231.0 C 232.3205108642578 241.0 225.0 248.3205108642578 214.08224487304688 251.94894409179688 C 204.06930541992188 249.275146484375 196.81930541992188 241.90037536621094 194.48464965820312 231.59571838378906 C 197.6794891357422 221.0 205.0 213.6794891357422 215.0 211.0 C 225.0 213.6794891357422 232.3205108642578 221.0 235.0 231.0" stroke-width="0.0" fill="rgb(89, 56, 31)" opacity="1.0"/>
    <path d="M 170.7916717529297 190.31361389160156 C 167.05126953125 200.88150024414062 159.96604919433594 208.307861328125 150.0086212158203 210.9950714111328 C 140.12403869628906 208.2583465576172 133.07582092285156 200.76220703125 130.4684600830078 190.69175720214844 C 132.6794891357422 181.0 140.0 173.6794891357422 150.03408813476562 170.98255920410156 C 160.29904174804688 173.50311279296875 167.98423767089844 180.51771545410156 170.7916717529297 190.31361389160156" stroke-width="0.0" fill="rgb(220, 221, 222)" opacity="0.99203295"/>
    <path d="M 71.40811157226562 163.7661590576172 C 68.62543487548828 173.35382080078125 61.37251281738281 180.6792755126953 51.593162536621094 183.5375518798828 C 42.0 181.3205108642578 34.67949295043945 174.0 32.0 164.0 C 34.67949295043945 154.0 42.0 146.6794891357422 52.063270568847656 143.92454528808594 C 61.901058197021484 146.58853149414062 68.73982238769531 154.3511962890625 71.40811157226562 163.7661590576172" stroke-width="0.0" fill="rgb(232, 233, 235)" opacity="0.9901334"/>
    <path d="M 245.0 235.0 C 242.3205108642578 245.0 235.0 252.3205108642578 225.0 255.0 C 215.0 252.3205108642578 207.6794891357422 245.0 205.0 235.0 C 207.6794891357422 225.0 215.0 217.6794891357422 225.0 215.0 C 235.0 217.6794891357422 242.3205108642578 225.0 245.0 235.0" stroke-width="0.0" fill="rgb(92, 58, 34)" opacity="1.0"/>
    <path d="M 234.0 90.0 C 231.3205108642578 100.0 224.0 107.32051086425781 214.26170349121094 109.7793197631836 C 204.63771057128906 106.74883270263672 197.44602966308594 99.29953002929688 194.70042419433594 89.39137268066406 C 196.6794891357422 80.0 204.0 72.67948913574219 214.0 70.0 C 224.0 72.67948913574219 231.3205108642578 80.0 234.0 90.0" stroke-width="0.0" fill="rgb(163, 167, 171)" opacity="0.9900319"/>
    <path d="M 250.0 34.0 C 247.3205108642578 44.0 240.0 51.32050704956055 229.08526611328125 54.94585037231445 C 219.049072265625 52.27822494506836 211.72035217285156 44.9515495300293 209.0572967529297 34.91463851928711 C 212.6794891357422 24.0 220.0 16.67949104309082 230.0 14.0 C 240.0 16.67949104309082 247.3205108642578 24.0 250.0 34.0" stroke-width="0.0" fill="rgb(153, 122, 95)" opacity="1.0"/>
    <path d="M 57.0 168.0 C 54.32050704956055 178.0 47.0 185.3205108642578 37.0 188.0 C 27.0 185.3205108642578 19.67949104309082 178.0 17.0 168.0 C 19.67949104309082 158.0 27.0 150.6794891357422 37.0 148.0 C 47.0 150.6794891357422 54.32050704956055 158.0 57.0 168.0" stroke-width="0.0" fill="rgb(85, 54, 36)" opacity="1.0"/>
    <path d="M 23.000059127807617 115.99981689453125 C 20.32050895690918 126.0 13.0 133.3205108642578 3.0 136.0 C -7.0 133.3205108642578 -14.320508003234863 126.0 -17.006574630737305 115.98225402832031 C -14.493101119995117 105.63567352294922 -7.692981719970703 97.81742858886719 2.1127099990844727 95.03768157958984 C 13.070144653320312 98.48731994628906 20.324087142944336 105.9888916015625 23.000059127807617 115.99981689453125" stroke-width="0.0" fill="rgb(109, 70, 44)" opacity="1.0"/>
    <path d="M 272.0003356933594 18.999217987060547 C 269.32049560546875 29.0 262.0 36.32050704956055 252.0 39.0 C 242.0 36.32050704956055 234.6794891357422 29.0 232.0 19.000011444091797 C 234.67959594726562 9.000269889831543 242.00082397460938 1.681584119796753 252.10385131835938 -1.215238332748413 C 262.0456237792969 1.5745786428451538 269.32720947265625 8.983742713928223 272.0003356933594 18.999217987060547" stroke-width="0.0" fill="rgb(166, 135, 108)" opacity="1.0"/>
    <path d="M 131.53211975097656 53.515804290771484 C 129.07740783691406 63.75858688354492 121.76629638671875 71.1014175415039 110.95732879638672 73.83568572998047 C 100.5297622680664 70.93140411376953 93.37323760986328 63.357627868652344 90.5350112915039 53.24940490722656 C 93.67948913574219 43.0 101.0 35.67949295043945 111.0 33.0 C 121.0 35.67949295043945 128.3205108642578 43.0 131.53211975097656 53.515804290771484" stroke-width="0.0" fill="rgb(238, 241, 242)" opacity="0.9902124"/>
    <path d="M 54.0 144.0 C 51.32050704956055 154.0 44.0 161.3205108642578 34.0 164.0 C 24.0 161.3205108642578 16.67949104309082 154.0 14.0 144.0 C 16.67949104309082 134.0 24.0 126.67948913574219 34.0 124.0 C 44.0 126.67948913574219 51.32050704956055 134.0 54.0 144.0" stroke-width="0.0" fill="rgb(229, 232, 234)" opacity="1.0"/>
    <path d="M 131.0 16.0 C 128.3205108642578 26.0 121.0 33.32050704956055 111.0 36.0 C 101.0 33.32050704956055 93.67948913574219 26.0 91.00070190429688 16.00101089477539 C 93.6836929321289 6.006039619445801 101.00838470458984 -1.3084768056869507 111.005615234375 -3.991924285888672 C 121.0 -1.3205081224441528 128.3205108642578 6.0 131.0 16.0" stroke-width="0.0" fill="rgb(136, 111, 91)" opacity="0.99587137"/>
    <path d="M 236.0 112.0 C 233.3205108642578 122.0 226.0 129.3205108642578 216.0 132.0 C 205.99986267089844 129.32054138183594 198.66253662109375 122.00474548339844 196.1512451171875 111.91350555419922 C 197.98452758789062 101.34870147705078 205.43353271484375 94.42755889892578 216.4508056640625 92.74101257324219 C 226.0 94.67948913574219 233.3205108642578 102.0 236.0 112.0" stroke-width="0.0" fill="rgb(224, 228, 231)" opacity="0.9904015"/>
    <path d="M 248.0 218.0 C 245.3205108642578 228.0 238.0 235.3205108642578 228.0 238.0 C 218.0 235.3205108642578 210.6794891357422 228.0 208.0 218.0 C 210.6794891357422 208.0 218.0 200.6794891357422 228.0 198.0 C 238.0 200.6794891357422 245.3205108642578 208.0 248.0 218.0" stroke-width="0.0" fill="rgb(114, 78, 48)" opacity="1.0"/>
    <path d="M 125.0 26.0 C 122.32051086425781 36.0 115.0 43.32050704956055 105.0 46.0 C 95.0 43.32050704956055 87.67948913574219 36.0 85.0 26.0 C 87.67948913574219 16.0 95.0 8.679491996765137 105.0 6.0 C 115.0 8.679491996765137 122.32051086425781 16.0 125.0 26.0" stroke-width="0.0" fill="rgb(237, 239, 239)" opacity="1.0"/>
    <path d="M 261.0 101.0 C 258.32049560546875 111.0 251.0 118.32051086425781 241.0 121.0 C 231.0 118.32051086425781 223.6794891357422 111.0 221.0 101.0 C 223.6794891357422 91.0 231.0 83.67948913574219 241.0 81.0 C 251.0 83.67948913574219 258.32049560546875 91.0 261.0 101.0" stroke-width="0.0" fill="rgb(230, 232, 233)" opacity="1.0"/>
    <path d="M 235.0885467529297 215.903076171875 C 232.3205108642578 226.0 225.0 233.3205108642578 215.0 236.0 C 205.0 233.3205108642578 197.6794891357422 226.0 195.0 216.0 C 197.6794891357422 206.0 205.0 198.6794891357422 215.12841796875 195.86505126953125 C 225.28302001953125 198.38377380371094 232.57778930664062 205.7285614013672 235.0885467529297 215.903076171875" stroke-width="0.0" fill="rgb(107, 73, 41)" opacity="1.0"/>
    <path d="M 220.0 215.0 C 217.3205108642578 225.0 210.0 232.3205108642578 200.0 235.0 C 190.0 232.3205108642578 182.6794891357422 225.0 179.62254333496094 214.6338348388672 C 182.05673217773438 204.3930206298828 189.4121856689453 197.1229248046875 199.74119567871094 194.8041229248047 C 210.0 197.6794891357422 217.3205108642578 205.0 220.0 215.0" stroke-width="0.0" fill="rgb(216, 216, 217)" opacity="0.9922349"/>
    <path d="M 94.0 71.0 C 91.32051086425781 81.0 84.0 88.32051086425781 74.0 91.0 C 64.0 88.32051086425781 56.67949295043945 81.0 54.0 71.0 C 56.67949295043945 61.0 64.0 53.67949295043945 74.0 51.0 C 84.0 53.67949295043945 91.32051086425781 61.0 94.0 71.0" stroke-width="0.0" fill="rgb(242, 246, 246)" opacity="1.0"/>
    <path d="M 152.09518432617188 44.13431167602539 C 149.44430541992188 54.165557861328125 142.16366577148438 61.4409294128418 132.1298065185547 64.06730651855469 C 123.01246643066406 62.296077728271484 115.6814956665039 54.994266510009766 113.00005340576172 44.99985122680664 C 115.67948913574219 35.0 123.0 27.67949104309082 132.99850463867188 25.00083351135254 C 143.00343322753906 27.682647705078125 150.5762939453125 34.91077423095703 152.09518432617188 44.13431167602539" stroke-width="0.0" fill="rgb(155, 159, 161)" opacity="0.9900264"/>
    <path d="M 98.0 9.0 C 95.32051086425781 19.0 88.0 26.32050895690918 77.10481262207031 29.921537399291992 C 67.04684448242188 27.275541305541992 59.7092399597168 19.95937728881836 57.01461410522461 9.871536254882812 C 59.73185729980469 -1.9078805446624756 67.1523208618164 -9.08894157409668 77.59281921386719 -11.299567222595215 C 88.0 -8.320508003234863 95.32051086425781 -1.0 98.0 9.0" stroke-width="0.0" fill="rgb(171, 146, 122)" opacity="1.0"/>
    <path d="M 268.0 91.0 C 265.32049560546875 101.0 258.0 108.32051086425781 248.0 111.0 C 238.0 108.32051086425781 230.6794891357422 101.0 228.0 91.0 C 230.6794891357422 81.0 238.0 73.67948913574219 248.0 71.0 C 258.0 73.67948913574219 265.32049560546875 81.0 268.0 91.0" stroke-width="0.0" fill="rgb(153, 118, 91)" opacity="1.0"/>
    <path d="M 265.0 29.0 C 262.32049560546875 39.0 255.0 46.32050704956055 244.98146057128906 49.01493835449219 C 234.94461059570312 46.37762451171875 227.64569091796875 39.048553466796875 225.0110626220703 29.0032958984375 C 227.6794891357422 19.0 235.0 11.679491996765137 245.0 9.0 C 255.0 11.679491996765137 262.32049560546875 19.0 265.0 29.0" stroke-width="0.0" fill="rgb(142, 112, 86)" opacity="1.0"/>
    <path d="M 162.02073669433594 175.96533203125 C 160.342041015625 185.0061492919922 153.00027465820312 192.32058715820312 143.64710998535156 194.45912170410156 C 133.93389892578125 191.42449951171875 126.65733337402344 184.03929138183594 123.99443817138672 175.9091339111328 C 126.66641235351562 165.9841766357422 133.98414611816406 158.66632080078125 143.5104217529297 155.9944305419922 C 152.01803588867188 158.66513061523438 159.3378143310547 165.9807891845703 162.02073669433594 175.96533203125" stroke-width="0.0" fill="rgb(16, 17, 17)" opacity="0.9900009"/>
    <path d="M 217.0380096435547 227.07765197753906 C 214.68345642089844 237.54977416992188 207.7354736328125 245.17752075195312 197.8211669921875 247.90872192382812 C 187.0 244.3205108642578 179.6794891357422 237.0 177.0 227.0 C 179.6794891357422 217.0 187.0 209.6794891357422 197.0 207.0 C 207.0 209.6794891357422 214.3205108642578 217.0 217.0380096435547 227.07765197753906" stroke-width="0.0" fill="rgb(82, 49, 28)" opacity="1.0"/>
    <path d="M 194.0 23.0 C 191.3205108642578 33.0 184.0 40.32050704956055 173.791259765625 43.25442123413086 C 163.67236328125 40.70713424682617 156.44871520996094 33.27958297729492 153.94200134277344 23.07377052307129 C 156.6794891357422 13.0 164.0 5.679491996765137 174.0 3.0 C 184.0 5.679491996765137 191.3205108642578 13.0 194.0 23.0" stroke-width="0.0" fill="rgb(242, 243, 243)" opacity="0.99976456"/>
    <path d="M 47.0 101.0 C 44.32050704956055 111.0 37.0 118.32051086425781 27.0 121.0 C 17.0 118.32051086425781 9.679491996765137 111.0 7.0 101.0 C 9.679491996765137 91.0 17.0 83.67948913574219 27.0 81.0 C 37.0 83.67948913574219 44.32050704956055 91.0 47.0 101.0" stroke-width="0.0" fill="rgb(133, 98, 70)" opacity="1.0"/>
    <path d="M 42.0 31.000001907348633 C 39.32050704956055 41.0 32.0 48.32050704956055 22.0 51.0 C 12.0 48.32050704956055 4.679491996765137 41.0 1.9894142150878906 30.97660255432129 C 4.521758556365967 20.69537925720215 11.430753707885742 12.91068172454834 21.184728622436523 10.077308654785156 C 31.997610092163086 13.687738418579102 39.32046127319336 21.000158309936523 42.0 31.000001907348633" stroke-width="0.0" fill="rgb(113, 87, 67)" opacity="0.9910058"/>
    <path d="M 233.0 226.0 C 230.3205108642578 236.0 223.0 243.3205108642578 213.08538818359375 245.8634490966797 C 203.09580993652344 243.17388916015625 195.7218017578125 235.93601989746094 193.00669860839844 225.9901123046875 C 195.6794891357422 216.0 203.0 208.6794891357422 213.0 206.0 C 223.0 208.6794891357422 230.3205108642578 216.0 233.0 226.0" stroke-width="0.0" fill="rgb(105, 67, 40)" opacity="0.9937708"/>
    <path d="M 267.00128173828125 30.00192642211914 C 264.3287353515625 40.012210845947266 257.0174560546875 47.34623336791992 247.04562377929688 49.991371154785156 C 237.1400909423828 47.20580291748047 229.88465881347656 39.83240509033203 227.1280059814453 29.901081085205078 C 229.6794891357422 20.0 237.0 12.679491996765137 247.0 10.0 C 257.0 12.679491996765137 264.32049560546875 20.0 267.00128173828125 30.00192642211914" stroke-width="0.0" fill="rgb(158, 127, 99)" opacity="0.99049115"/>
    <path d="M 28.312650680541992 28.57402992248535 C 25.32050895690918 39.0 18.0 46.32050704956055 8.0 49.0 C -2.0 46.32050704956055 -9.320508003234863 39.0 -12.140872955322266 28.766223907470703 C -9.960906028747559 18.223217010498047 -2.8845877647399902 10.736974716186523 7.712059497833252 8.014370918273926 C 18.917863845825195 10.725664138793945 26.10569953918457 18.13819122314453 28.312650680541992 28.57402992248535" stroke-width="0.0" fill="rgb(127, 94, 71)" opacity="0.99044067"/>
    <path d="M 66.03860473632812 89.0865707397461 C 63.392391204833984 99.13189697265625 56.24970626831055 106.94957733154297 47.36436080932617 110.61894989013672 C 37.0 107.32051086425781 29.67949104309082 100.0 27.0 90.0 C 29.67949104309082 80.0 37.0 72.67948913574219 46.999996185302734 70.0 C 56.99942398071289 72.67965698242188 64.2983169555664 80.00664520263672 66.03860473632812 89.0865707397461" stroke-width="0.0" fill="rgb(110, 116, 119)" opacity="0.9900028"/>
    <path d="M 102.9917221069336 4.003823280334473 C 100.32051086425781 14.0 93.0 21.32050895690918 82.56952667236328 24.50718879699707 C 72.40606689453125 21.961654663085938 65.13115692138672 14.56353759765625 62.41072082519531 4.2781829833984375 C 65.61698913574219 -6.018750190734863 72.99907684326172 -13.320287704467773 83.00011444091797 -15.999894142150879 C 92.9991226196289 -13.320125579833984 100.31560516357422 -5.997820854187012 102.9917221069336 4.003823280334473" stroke-width="0.0" fill="rgb(144, 117, 95)" opacity="0.9907221"/>
    <path d="M 69.7719955444336 52.242706298828125 C 66.32726287841797 63.01963806152344 59.09776306152344 70.56714630126953 48.932334899902344 73.83367156982422 C 38.89533615112305 70.58020782470703 31.671951293945312 63.02177047729492 28.99981689453125 53.00053024291992 C 31.67949104309082 43.0 39.0 35.67949295043945 49.632537841796875 32.39189529418945 C 59.867366790771484 34.82805252075195 67.21517944335938 42.119388580322266 69.7719955444336 52.242706298828125" stroke-width="0.0" fill="rgb(171, 139, 110)" opacity="0.99007577"/>
    <path d="M 168.9294891357422 185.10829162597656 C 165.2954864501953 195.99180603027344 157.9986572265625 203.320068359375 147.986572265625 206.0070343017578 C 137.85751342773438 203.39682006835938 130.2408905029297 196.268310546875 127.01139831542969 185.02479553222656 C 129.69589233398438 175.02548217773438 137.03529357910156 167.7212371826172 148.95382690429688 165.00856018066406 C 158.9684600830078 167.69967651367188 166.2721405029297 175.04278564453125 168.9294891357422 185.10829162597656" stroke-width="0.0" fill="rgb(222, 224, 225)" opacity="0.9900122"/>
    <path d="M 197.0 243.0 C 194.3205108642578 253.0 187.0 260.32049560546875 176.2564239501953 263.7359924316406 C 166.1219940185547 261.2140808105469 160.56321716308594 253.72711181640625 157.9905548095703 243.8630828857422 C 160.64193725585938 233.93370056152344 167.8910675048828 226.5184783935547 177.5398406982422 223.4471893310547 C 187.0 225.6794891357422 194.3205108642578 233.0 197.0 243.0" stroke-width="0.0" fill="rgb(73, 43, 24)" opacity="0.9900119"/>
    <path d="M 44.0 144.0 C 41.32050704956055 154.0 34.0 161.3205108642578 24.0 164.0 C 14.0 161.3205108642578 6.679491996765137 154.0 4.0 144.0 C 6.679491996765137 134.0 14.0 126.67948913574219 24.0 124.0 C 34.0 126.67948913574219 41.32050704956055 134.0 44.0 144.0" stroke-width="0.0" fill="rgb(109, 76, 52)" opacity="0.9901342"/>
    <path d="M 204.63650512695312 18.456619262695312 C 201.3205108642578 29.0 194.0 36.32050704956055 184.0 39.0 C 174.0 36.32050704956055 166.6794891357422 29.0 164.0 19.0 C 166.6794891357422 9.0 174.0 1.6794918775558472 184.1660919189453 -1.1209405660629272 C 194.5494842529297 1.2235386371612549 202.0362091064453 8.367619514465332 204.63650512695312 18.456619262695312" stroke-width="0.0" fill="rgb(129, 104, 83)" opacity="0.99028265"/>
    <path d="M 273.0000305175781 202.00009155273438 C 270.3214416503906 212.00250244140625 263.0087890625 219.34356689453125 253.0270538330078 222.06887817382812 C 242.9993133544922 219.32061767578125 235.65792846679688 212.0066375732422 232.85426330566406 202.05072021484375 C 235.6794891357422 192.0 243.0 184.6794891357422 253.0 182.0 C 263.0 184.6794891357422 270.32049560546875 192.0 273.0000305175781 202.00009155273438" stroke-width="0.0" fill="rgb(113, 79, 48)" opacity="1.0"/>
    <path d="M 248.01210021972656 144.02027893066406 C 245.41354370117188 154.1483612060547 238.22459411621094 161.65145874023438 228.2177734375 164.02996826171875 C 217.74374389648438 161.62269592285156 210.4817352294922 154.22201538085938 207.9075164794922 144.07791137695312 C 210.6794891357422 134.0 218.0 126.67948913574219 228.0 124.0 C 238.0 126.67948913574219 245.3205108642578 134.0 248.01210021972656 144.02027893066406" stroke-width="0.0" fill="rgb(228, 229, 230)" opacity="0.9917263"/>
    <path d="M 52.907554626464844 108.53038787841797 C 50.09681701660156 119.63459014892578 42.46119689941406 126.62229919433594 32.06715774536133 129.0355224609375 C 22.0 126.32051086425781 14.679491996765137 119.0 12.0 109.0 C 14.679491996765137 99.0 22.0 91.67948913574219 32.714271545410156 88.26457977294922 C 42.86601638793945 90.80558776855469 50.19664764404297 98.13373565673828 52.907554626464844 108.53038787841797" stroke-width="0.0" fill="rgb(232, 234, 235)" opacity="0.99014175"/>
    <path d="M 217.0 218.0 C 214.3205108642578 228.0 207.0 235.3205108642578 197.0 238.0 C 187.0 235.3205108642578 179.6794891357422 228.0 176.9417266845703 217.9262237548828 C 179.45863342285156 207.75057983398438 186.73133850097656 200.39486694335938 196.8814697265625 197.88706970214844 C 207.0 200.6794891357422 214.3205108642578 208.0 217.0 218.0" stroke-width="0.0" fill="rgb(206, 209, 210)" opacity="0.9920487"/>
    <path d="M 152.0 30.0 C 149.3205108642578 40.0 142.0 47.32050704956055 132.0 50.0 C 122.0 47.32050704956055 114.67948913574219 40.0 112.0 30.0 C 114.67948913574219 20.0 122.0 12.679491996765137 132.0 10.0 C 142.0 12.679491996765137 149.3205108642578 20.0 152.0 30.0" stroke-width="0.0" fill="rgb(236, 238, 240)" opacity="0.9915164"/>
    <path d="M 29.173067092895508 177.28541564941406 C 27.026063919067383 187.82664489746094 19.91332244873047 195.27798461914062 8.720640182495117 197.9898223876953 C -1.9142922163009644 195.2762908935547 -9.065552711486816 187.8411407470703 -11.245285034179688 177.35665893554688 C -8.320508003234863 167.0 -1.0 159.6794891357422 9.0 157.0 C 19.0 159.6794891357422 26.32050895690918 167.0 29.173067092895508 177.28541564941406" stroke-width="0.0" fill="rgb(105, 63, 36)" opacity="1.0"/>
    <path d="M 47.99703598022461 162.0062255859375 C 45.32050704956055 172.0 38.0 179.3205108642578 28.0 182.0 C 18.0 179.3205108642578 10.679491996765137 172.0 8.000431060791016 162.00082397460938 C 10.684183120727539 152.0089569091797 18.016700744628906 144.71035766601562 27.731117248535156 142.47103881835938 C 37.824710845947266 144.9979705810547 45.27992248535156 152.0832061767578 47.99703598022461 162.0062255859375" stroke-width="0.0" fill="rgb(103, 67, 43)" opacity="0.99259573"/>
    <path d="M 20.004823684692383 137.00242614746094 C 17.3240909576416 147.00180053710938 10.00088882446289 154.32095336914062 7.34080676920712e-05 157.00003051757812 C -10.0 154.3205108642578 -17.32050895690918 147.0 -20.0 137.0 C -17.32050895690918 127.0 -10.0 119.67948913574219 -3.673940187178589e-15 117.0 C 10.0 119.67948913574219 17.32050895690918 127.0 20.004823684692383 137.00242614746094" stroke-width="0.0" fill="rgb(101, 62, 37)" opacity="1.0"/>
    <path d="M 242.97763061523438 224.033935546875 C 240.3205108642578 234.0 233.0 241.3205108642578 223.0 244.0 C 213.0 241.3205108642578 205.6794891357422 234.0 203.0 224.0 C 205.6794891357422 214.0 213.0 206.6794891357422 222.783447265625 204.30703735351562 C 232.74166870117188 207.0299835205078 240.1866455078125 214.1898193359375 242.97763061523438 224.033935546875" stroke-width="0.0" fill="rgb(74, 45, 28)" opacity="0.9907735"/>
    <path d="M 36.00391387939453 123.00521850585938 C 33.3393440246582 133.02249145507812 26.021400451660156 140.33416748046875 15.993945121765137 142.97055053710938 C 6.0 140.3205108642578 -1.3205081224441528 133.0 -4.0 123.0 C -1.3205081224441528 113.0 6.0 105.67948913574219 16.0 103.0 C 26.0 105.67948913574219 33.32050704956055 113.0 36.00391387939453 123.00521850585938" stroke-width="0.0" fill="rgb(105, 67, 42)" opacity="0.99665797"/>
    <path d="M 61.95802688598633 39.10243606567383 C 58.579708099365234 50.20582580566406 51.174007415771484 57.473365783691406 41.047508239746094 60.034202575683594 C 31.0 57.32050704956055 23.67949104309082 50.0 21.0 40.0 C 23.67949104309082 30.0 31.0 22.67949104309082 41.08978271484375 19.956647872924805 C 51.613311767578125 22.2640380859375 59.224971771240234 29.19693374633789 61.95802688598633 39.10243606567383" stroke-width="0.0" fill="rgb(153, 122, 100)" opacity="1.0"/>
    <path d="M 273.0035095214844 193.9904327392578 C 270.3200378417969 203.9987030029297 262.99432373046875 211.30441284179688 253.13882446289062 213.6976776123047 C 243.21234130859375 211.06227111816406 235.87542724609375 203.8066864013672 233.09732055664062 193.91636657714844 C 235.65927124023438 183.94345092773438 242.7778778076172 176.2241973876953 253.7793426513672 173.0526885986328 C 263.5523986816406 175.9046173095703 270.4207763671875 183.76528930664062 273.0035095214844 193.9904327392578" stroke-width="0.0" fill="rgb(120, 85, 56)" opacity="0.9914739"/>
    <path d="M 63.98676681518555 23.232107162475586 C 61.271331787109375 34.90943145751953 53.842445373535156 42.075531005859375 43.38062286376953 44.271297454833984 C 33.0 41.32050704956055 25.67949104309082 34.0 22.817781448364258 23.725337982177734 C 25.016597747802734 13.22164535522461 32.128719329833984 5.749682426452637 43.78340530395508 3.019407272338867 C 53.95463562011719 5.717734336853027 61.28900146484375 13.042237281799316 63.98676681518555 23.232107162475586" stroke-width="0.0" fill="rgb(155, 129, 106)" opacity="1.0"/>
    <path d="M 52.00175857543945 26.99589729309082 C 49.32050704956055 37.0 42.0 44.32050704956055 32.0 47.0 C 22.0 44.32050704956055 14.679491996765137 37.0 11.743579864501953 26.608383178710938 C 13.911460876464844 16.14845085144043 21.08785629272461 8.72869873046875 31.074569702148438 6.027778625488281 C 42.262542724609375 9.185144424438477 49.35652160644531 16.91397476196289 52.00175857543945 26.99589729309082" stroke-width="0.0" fill="rgb(119, 90, 68)" opacity="0.99020916"/>
    <path d="M 48.768150329589844 68.6932601928711 C 46.14802932739258 78.78191375732422 38.74410629272461 86.03411865234375 28.42673110961914 88.40303039550781 C 18.0 85.32051086425781 10.679491996765137 78.0 8.0 68.0 C 10.679491996765137 58.0 18.0 50.67949295043945 28.000869750976562 47.99957275390625 C 38.01100158691406 50.67406463623047 45.36017608642578 57.978824615478516 48.768150329589844 68.6932601928711" stroke-width="0.0" fill="rgb(165, 131, 107)" opacity="1.0"/>
    <path d="M 90.06246185302734 67.91189575195312 C 87.32051086425781 78.0 80.0 85.32051086425781 69.48334503173828 88.48820495605469 C 59.19267654418945 86.10279846191406 51.78978729248047 78.84556579589844 49.03692626953125 67.40271759033203 C 51.75834655761719 57.09894943237305 59.10354995727539 49.76966094970703 69.17475128173828 47.100276947021484 C 80.40584564208984 50.228092193603516 87.60379028320312 57.645240783691406 90.06246185302734 67.91189575195312" stroke-width="0.0" fill="rgb(187, 190, 195)" opacity="1.0"/>
    <path d="M 239.0 17.0 C 236.3205108642578 27.0 229.0 34.32050704956055 219.0 37.0 C 209.0 34.32050704956055 201.6794891357422 27.0 198.1041259765625 16.144550323486328 C 200.7493438720703 6.085721969604492 208.09848022460938 -1.2118197679519653 218.28048706054688 -3.7127933502197266 C 229.0 -0.32050806283950806 236.3205108642578 7.0 239.0 17.0" stroke-width="0.0" fill="rgb(155, 123, 94)" opacity="1.0"/>
    <path d="M 181.0 0.0 C 178.3205108642578 10.0 171.0 17.32050895690918 160.93446350097656 20.030540466308594 C 150.4445343017578 17.6707763671875 142.7802734375 10.783361434936523 140.0350341796875 0.9118163585662842 C 143.6794891357422 -10.0 151.0 -17.32050895690918 161.0 -20.0 C 171.0 -17.32050895690918 178.3205108642578 -10.0 181.0 0.0" stroke-width="0.0" fill="rgb(80, 63, 53)" opacity="0.99007773"/>
    <path d="M 180.0027313232422 19.00732421875 C 177.3963165283203 29.181962966918945 170.45924377441406 37.02001190185547 160.76483154296875 39.90019989013672 C 150.00059509277344 36.31836700439453 142.6794891357422 28.99997901916504 140.0150909423828 19.033193588256836 C 142.88436889648438 9.37018871307373 150.60240173339844 2.457876205444336 160.75607299804688 -0.12069511413574219 C 170.0 1.6794918775558472 177.3205108642578 9.0 180.0027313232422 19.00732421875" stroke-width="0.0" fill="rgb(221, 220, 220)" opacity="0.9900818"/>
    <path d="M 249.0 126.0 C 246.3205108642578 136.0 239.0 143.3205108642578 229.0 146.0 C 219.0 143.3205108642578 211.6794891357422 136.0 209.0 126.0 C 211.6794891357422 116.0 219.0 108.67948913574219 229.0 106.0 C 239.0 108.67948913574219 246.3205108642578 116.0 249.0 126.0" stroke-width="0.0" fill="rgb(229, 230, 232)" opacity="1.0"/>
    <path d="M 111.0000228881836 33.000030517578125 C 108.32064819335938 43.00022506713867 101.00037384033203 50.32117462158203 90.5744400024414 53.49330139160156 C 80.29246520996094 50.99903869628906 72.85877990722656 43.75731658935547 71.95437622070312 33.90789794921875 C 74.61796569824219 23.92656707763672 81.92436981201172 16.612167358398438 91.85469818115234 13.893274307250977 C 101.0 15.679491996765137 108.32051086425781 23.0 111.0000228881836 33.000030517578125" stroke-width="0.0" fill="rgb(232, 235, 237)" opacity="0.99008375"/>
    <path d="M 23.0 121.0 C 20.32050895690918 131.0 13.0 138.3205108642578 3.0 141.0 C -7.0 138.3205108642578 -14.320508003234863 131.0 -17.0 121.0 C -14.320499420166016 111.0000228881836 -6.999885082244873 103.67982482910156 2.9998841285705566 101.00555419921875 C 12.999923706054688 103.67973327636719 20.320505142211914 111.00000762939453 23.0 121.0" stroke-width="0.0" fill="rgb(111, 69, 43)" opacity="0.9999066"/>
    <path d="M 270.0 89.0 C 267.32049560546875 99.0 260.0 106.32051086425781 250.0 109.0 C 240.0 106.32051086425781 232.6794891357422 99.0 230.0 89.0 C 232.6794891357422 79.0 240.0 71.67948913574219 250.0 69.0 C 260.0 71.67948913574219 267.32049560546875 79.0 270.0 89.0" stroke-width="0.0" fill="rgb(136, 101, 72)" opacity="1.0"/>
    <path d="M 103.77539825439453 70.484375 C 99.8463134765625 80.64703369140625 92.74989318847656 88.16093444824219 82.96444702148438 90.97924041748047 C 73.0 88.32051086425781 65.67948913574219 81.0 62.35454559326172 70.46855163574219 C 64.97225189208984 60.32624053955078 72.30805206298828 52.92576599121094 82.38560485839844 50.20481872558594 C 93.30915832519531 53.35039520263672 100.69728088378906 60.6818733215332 103.77539825439453 70.484375" stroke-width="0.0" fill="rgb(243, 246, 246)" opacity="0.9904401"/>
    <path d="M 80.73265075683594 131.26654052734375 C 78.00634002685547 142.2000732421875 71.39388275146484 149.80630493164062 61.32420349121094 152.44117736816406 C 51.0 149.3205108642578 43.67949295043945 142.0 40.9129753112793 131.8854217529297 C 43.339691162109375 121.58492279052734 50.5018196105957 114.08321380615234 60.864418029785156 111.3128890991211 C 71.68641662597656 114.04181671142578 79.08199310302734 121.27603149414062 80.73265075683594 131.26654052734375" stroke-width="0.0" fill="rgb(234, 238, 241)" opacity="0.99010295"/>
    <path d="M 173.9871063232422 20.994232177734375 C 171.27137756347656 30.94548225402832 163.9675750732422 38.35573959350586 153.47994995117188 40.516075134277344 C 143.78079223632812 38.691017150878906 136.62168884277344 31.113920211791992 134.47457885742188 21.338497161865234 C 137.20945739746094 11.60158920288086 144.77740478515625 4.569033622741699 154.87680053710938 1.9712226390838623 C 163.70533752441406 4.187441349029541 171.2615966796875 11.126028060913086 173.9871063232422 20.994232177734375" stroke-width="0.0" fill="rgb(232, 234, 235)" opacity="0.99002624"/>
    <path d="M 70.98246002197266 136.9977264404297 C 68.3142318725586 146.99598693847656 60.99717330932617 154.3183135986328 50.864784240722656 157.07696533203125 C 40.3673210144043 154.79258728027344 32.79924392700195 147.78175354003906 30.0712833404541 137.85345458984375 C 33.67475128173828 126.98762512207031 40.98743438720703 119.67906951904297 51.39637756347656 117.69557189941406 C 61.01469039916992 119.65135192871094 68.32219696044922 126.99298858642578 70.98246002197266 136.9977264404297" stroke-width="0.0" fill="rgb(231, 232, 234)" opacity="1.0"/>
    <path d="M 55.007659912109375 191.0501251220703 C 52.337955474853516 201.0251922607422 45.03254318237305 208.3584442138672 35.10561752319336 211.12380981445312 C 25.13378143310547 210.10585021972656 17.718299865722656 202.92625427246094 15.022375106811523 192.95263671875 C 18.96045684814453 182.1586456298828 26.08174705505371 174.72262573242188 35.89113998413086 172.06028747558594 C 45.32410430908203 175.16232299804688 52.38829803466797 182.85101318359375 55.007659912109375 191.0501251220703" stroke-width="0.0" fill="rgb(67, 41, 29)" opacity="0.99000245"/>
    <path d="M 270.0016174316406 238.9967803955078 C 267.32049560546875 249.0 260.0 256.32049560546875 249.18466186523438 259.87054443359375 C 239.14389038085938 257.2206726074219 231.94984436035156 249.80279541015625 229.70809936523438 239.38218688964844 C 232.6793212890625 228.99945068359375 239.99598693847656 221.66673278808594 250.0841522216797 218.6971435546875 C 260.07647705078125 221.53466796875 267.33984375 228.9619140625 270.0016174316406 238.9967803955078" stroke-width="0.0" fill="rgb(107, 71, 40)" opacity="1.0"/>
    <path d="M 32.05565643310547 168.04844665527344 C 29.444705963134766 178.1231689453125 22.131275177001953 185.4717254638672 12.092754364013672 188.2035369873047 C 2.019648551940918 185.30416870117188 -5.301977634429932 177.9798583984375 -7.995122909545898 167.9943389892578 C -5.320508003234863 158.0 2.0 150.6794891357422 12.0 148.0 C 22.0 150.6794891357422 29.32050895690918 158.0 32.05565643310547 168.04844665527344" stroke-width="0.0" fill="rgb(86, 52, 29)" opacity="0.9924491"/>
    <path d="M 227.01715087890625 205.05657958984375 C 224.3501434326172 215.04010009765625 217.04920959472656 222.37648010253906 207.16163635253906 225.16775512695312 C 197.99826049804688 223.321044921875 190.6314239501953 216.01512145996094 187.5883331298828 206.18614196777344 C 190.75564575195312 195.67259216308594 197.49391174316406 188.04714965820312 207.53890991210938 185.44284057617188 C 217.80702209472656 188.76220703125 224.60345458984375 196.47926330566406 227.01715087890625 205.05657958984375" stroke-width="0.0" fill="rgb(215, 216, 217)" opacity="0.9900049"/>
    <path d="M 269.121826171875 148.16317749023438 C 266.90972900390625 158.7446746826172 259.8691101074219 166.25575256347656 249.93016052246094 168.97682189941406 C 239.93008422851562 164.4064178466797 232.62010192871094 157.06336975097656 229.8629608154297 147.14950561523438 C 231.6794891357422 138.0 239.0 130.6794891357422 249.42652893066406 127.42214965820312 C 259.4000244140625 130.12889099121094 266.4870910644531 137.73162841796875 269.121826171875 148.16317749023438" stroke-width="0.0" fill="rgb(110, 76, 51)" opacity="0.99000734"/>
    <path d="M 115.99691772460938 30.007936477661133 C 113.3205337524414 40.000038146972656 106.00005340576172 47.32058334350586 96.00035095214844 49.99913787841797 C 86.0029525756836 47.31890869140625 78.697265625 39.992431640625 76.25872802734375 30.257461547851562 C 79.3156509399414 20.753507614135742 86.85784912109375 13.603180885314941 96.88374328613281 10.975810050964355 C 105.55056762695312 13.370572090148926 113.24494934082031 20.17707633972168 115.99691772460938 30.007936477661133" stroke-width="0.0" fill="rgb(233, 235, 237)" opacity="0.99004513"/>
    <path d="M 196.02511596679688 79.04553985595703 C 193.49600219726562 89.25505828857422 186.30799865722656 96.66694641113281 175.48068237304688 99.76250457763672 C 165.96107482910156 96.56796264648438 158.8114013671875 88.91825866699219 155.27410888671875 79.17754364013672 C 158.08238220214844 68.2295913696289 165.15869140625 60.78962707519531 175.16651916503906 58.13755416870117 C 185.86866760253906 61.952720642089844 193.2992706298828 69.04874420166016 196.02511596679688 79.04553985595703" stroke-width="0.0" fill="rgb(195, 198, 201)" opacity="0.990015"/>
    <path d="M 49.54285430908203 116.51001739501953 C 46.4975700378418 126.06291961669922 39.00901412963867 133.32339477539062 29.00014305114746 136.0000457763672 C 19.0 133.3205108642578 11.679491996765137 126.0 9.848906517028809 116.69967651367188 C 12.394087791442871 106.51079559326172 19.27454376220703 98.81655883789062 28.97119903564453 96.04512023925781 C 38.795501708984375 98.8382568359375 45.95024871826172 106.27194213867188 49.54285430908203 116.51001739501953" stroke-width="0.0" fill="rgb(220, 217, 215)" opacity="0.99025434"/>
    <path d="M 252.02084350585938 86.40534973144531 C 249.4425048828125 96.24213409423828 242.4434356689453 103.946044921875 232.917236328125 106.9547348022461 C 223.03744506835938 104.30360412597656 215.86782836914062 96.90901947021484 213.32260131835938 86.59872436523438 C 215.6234130859375 76.96312713623047 222.93194580078125 69.53175354003906 232.87548828125 66.82117462158203 C 242.6631317138672 69.85231018066406 249.50982666015625 77.62275695800781 252.02084350585938 86.40534973144531" stroke-width="0.0" fill="rgb(228, 230, 232)" opacity="0.9900088"/>
    <path d="M 250.13397216796875 183.15542602539062 C 247.38320922851562 193.06295776367188 240.05593872070312 200.3641815185547 230.08926391601562 203.0282745361328 C 221.2523956298828 200.76779174804688 213.64627075195312 194.0093536376953 210.99276733398438 184.01181030273438 C 213.6794891357422 174.0 221.0 166.6794891357422 231.0 164.0 C 241.0 166.6794891357422 248.3205108642578 174.0 250.13397216796875 183.15542602539062" stroke-width="0.0" fill="rgb(191, 189, 189)" opacity="0.99003977"/>
    <path d="M 57.27659606933594 42.18720626831055 C 55.366397857666016 52.128196716308594 48.1611328125 59.49692916870117 38.07162094116211 62.074676513671875 C 28.0 59.32050704956055 20.67949104309082 52.0 18.0 42.0 C 20.67949104309082 32.0 28.0 24.67949104309082 37.99708938598633 22.001319885253906 C 47.951961517333984 24.70102882385254 55.056114196777344 32.127140045166016 57.27659606933594 42.18720626831055" stroke-width="0.0" fill="rgb(127, 96, 74)" opacity="0.99035096"/>
    <path d="M 199.83682250976562 5.30917501449585 C 196.30419921875 15.97957992553711 188.98228454589844 23.31036949157715 178.3100128173828 26.644180297851562 C 168.0833282470703 24.21324348449707 160.72146606445312 16.93846893310547 158.01991271972656 6.789832592010498 C 160.78077697753906 -4.78950309753418 168.41433715820312 -11.708666801452637 178.93955993652344 -14.049725532531738 C 189.2803192138672 -11.469099998474121 197.0198516845703 -4.500431537628174 199.83682250976562 5.30917501449585" stroke-width="0.0" fill="rgb(126, 101, 80)" opacity="1.0"/>
    <path d="M 240.0 111.00000762939453 C 237.3205108642578 121.0 230.0 128.3205108642578 220.0 131.0 C 210.0 128.3205108642578 202.6794891357422 121.0 199.7559051513672 110.91545867919922 C 202.70809936523438 101.1071548461914 210.14907836914062 93.86259460449219 220.09617614746094 91.15380859375 C 229.99954223632812 93.68065643310547 237.32044982910156 101.00013732910156 240.0 111.00000762939453" stroke-width="0.0" fill="rgb(229, 231, 231)" opacity="0.9910322"/>
    <path d="M 173.1206817626953 202.8490753173828 C 170.1375732421875 212.97296142578125 163.15274047851562 220.66436767578125 153.59701538085938 223.84042358398438 C 143.03915405273438 220.21469116210938 135.68240356445312 212.99131774902344 133.00006103515625 202.99981689453125 C 135.67950439453125 193.00003051757812 143.00018310546875 185.68008422851562 153.01271057128906 183.01763916015625 C 163.17742919921875 185.58380126953125 170.71682739257812 192.72494506835938 173.1206817626953 202.8490753173828" stroke-width="0.0" fill="rgb(224, 225, 227)" opacity="0.9903147"/>
    <path d="M 133.0 31.0 C 130.3205108642578 41.0 123.0 48.32050704956055 113.00249481201172 50.99234390258789 C 103.00048065185547 48.3192024230957 95.67925262451172 40.99995422363281 92.73576354980469 30.8137149810791 C 95.35905456542969 20.74250030517578 102.78356170654297 13.491392135620117 112.93576049804688 10.940661430358887 C 123.0 13.679491996765137 130.3205108642578 21.0 133.0 31.0" stroke-width="0.0" fill="rgb(231, 233, 235)" opacity="1.0"/>
    <path d="M 264.99114990234375 19.00551986694336 C 262.31622314453125 29.0049991607666 255.0340118408203 36.41293716430664 244.9132537841797 39.435523986816406 C 234.8852081298828 36.50882339477539 227.62777709960938 29.07280158996582 224.9888153076172 19.01364517211914 C 227.6794891357422 9.0 235.0 1.6794918775558472 245.05487060546875 -1.1338218450546265 C 254.9922637939453 1.6416902542114258 262.2944641113281 9.025463104248047 264.99114990234375 19.00551986694336" stroke-width="0.0" fill="rgb(146, 114, 90)" opacity="0.9935929"/>
    <path d="M 50.21958541870117 48.00889205932617 C 47.429622650146484 58.17449951171875 40.27812957763672 65.73580932617188 30.291282653808594 68.41854095458984 C 20.0 65.32051086425781 12.679491996765137 58.0 10.0 48.0 C 12.679491996765137 38.0 20.0 30.67949104309082 30.00006866455078 27.999975204467773 C 40.00217056274414 30.67870330810547 47.34669876098633 37.99066925048828 50.21958541870117 48.00889205932617" stroke-width="0.0" fill="rgb(129, 99, 77)" opacity="1.0"/>
    <path d="M 168.97808837890625 202.98568725585938 C 166.28628540039062 212.9805908203125 159.08277893066406 220.58880615234375 149.7390899658203 223.0170440673828 C 139.6767578125 219.59938049316406 132.3694305419922 212.33128356933594 128.2942657470703 203.3291015625 C 132.1695556640625 193.33392333984375 139.2173309326172 185.8339080810547 149.04248046875 183.0688018798828 C 158.99609375 185.68565368652344 166.31759643554688 193.0029754638672 168.97808837890625 202.98568725585938" stroke-width="0.0" fill="rgb(224, 224, 226)" opacity="0.99010074"/>
    <path d="M 19.302555084228516 219.0644989013672 C 16.358854293823242 229.03466796875 9.028154373168945 236.3408966064453 -0.9679486751556396 239.01593017578125 C -10.0 237.3205108642578 -17.32050895690918 230.0 -20.0 220.0 C -17.32050895690918 210.0 -10.0 202.6794891357422 0.9627198576927185 199.01988220214844 C 10.968513488769531 201.7017059326172 18.274314880371094 209.0400390625 19.302555084228516 219.0644989013672" stroke-width="0.0" fill="rgb(92, 50, 24)" opacity="0.9900033"/>
    <path d="M 252.99998474121094 110.0000228881836 C 250.3205108642578 120.0 243.0 127.32051086425781 233.0 130.0 C 223.0 127.32051086425781 215.6794891357422 120.0 213.0 110.0 C 215.6795196533203 100.00006103515625 223.000244140625 92.6801528930664 232.99978637695312 90.00666046142578 C 242.9994659423828 92.68061828613281 250.32037353515625 100.00025939941406 252.99998474121094 110.0000228881836" stroke-width="0.0" fill="rgb(231, 232, 234)" opacity="0.9997074"/>
    <path d="M 57.20951461791992 30.012725830078125 C 55.051979064941406 39.90381622314453 48.010833740234375 47.36663055419922 38.0219612121582 50.02505111694336 C 28.0 47.32050704956055 20.67949104309082 40.0 17.781038284301758 29.862714767456055 C 20.435718536376953 19.77376937866211 27.76216697692871 12.400074005126953 37.62037658691406 10.176390647888184 C 47.6861572265625 13.099349975585938 54.97707748413086 20.28202247619629 57.20951461791992 30.012725830078125" stroke-width="0.0" fill="rgb(129, 99, 77)" opacity="0.99379736"/>
    <path d="M 51.00819396972656 220.03330993652344 C 48.335506439208984 230.01866149902344 41.018455505371094 237.33506774902344 31.173583984375 240.0064239501953 C 22.97939682006836 237.33628845214844 15.655572891235352 230.0236358642578 12.94593620300293 220.06369018554688 C 14.680160522460938 211.00018310546875 22.00000762939453 203.6794891357422 31.987070083618164 201.0048828125 C 41.70943832397461 203.80950927734375 48.48094177246094 211.6451873779297 51.00819396972656 220.03330993652344" stroke-width="0.0" fill="rgb(61, 37, 22)" opacity="0.9900031"/>
    <path d="M 65.92008209228516 158.03309631347656 C 63.31360626220703 167.9969482421875 55.99874496459961 175.31991577148438 45.99991226196289 177.9999542236328 C 36.0 175.3205108642578 28.67949104309082 168.0 26.938648223876953 158.89947509765625 C 29.620277404785156 148.8974151611328 36.8188362121582 141.29437255859375 45.928855895996094 137.67791748046875 C 55.96136474609375 140.71168518066406 63.24787521362305 148.05084228515625 65.92008209228516 158.03309631347656" stroke-width="0.0" fill="rgb(226, 228, 230)" opacity="0.9900197"/>
    <path d="M 247.64088439941406 242.6451416015625 C 245.16868591308594 252.8526153564453 237.8566436767578 260.18194580078125 226.22012329101562 262.8812255859375 C 216.04360961914062 260.27044677734375 208.7103271484375 252.9624786376953 206.05628967285156 242.92820739746094 C 209.67958068847656 232.00003051757812 217.0 224.6794891357422 227.0 222.0 C 237.0 224.6794891357422 244.3205108642578 232.0 247.64088439941406 242.6451416015625" stroke-width="0.0" fill="rgb(107, 68, 38)" opacity="1.0"/>
    <path d="M 23.039138793945312 130.90884399414062 C 20.306921005249023 140.99240112304688 12.995735168457031 148.31822204589844 2.999598979949951 150.99981689453125 C -7.0 148.3205108642578 -14.320508003234863 141.0 -17.000003814697266 130.99998474121094 C -14.320646286010742 120.99962615966797 -7.001244068145752 113.67626953125 3.5239853858947754 110.35403442382812 C 13.550088882446289 113.00789642333984 20.630666732788086 120.57083892822266 23.039138793945312 130.90884399414062" stroke-width="0.0" fill="rgb(105, 65, 40)" opacity="1.0"/>
    <path d="M 43.014347076416016 99.71843719482422 C 40.40607452392578 108.17156982421875 33.32569885253906 115.81521606445312 23.5048828125 119.4334716796875 C 13.307137489318848 117.02230834960938 6.003631591796875 109.6850357055664 3.031862258911133 98.0555191040039 C 5.708478927612305 88.04281616210938 13.059039115905762 80.75817108154297 23.19466781616211 78.44718170166016 C 33.16291809082031 82.47014617919922 40.381839752197266 89.89415740966797 43.014347076416016 99.71843719482422" stroke-width="0.0" fill="rgb(108, 77, 55)" opacity="0.9900058"/>
    <path d="M 254.02536010742188 130.05352783203125 C 251.35952758789062 140.0692138671875 244.1348876953125 147.9167938232422 235.6006622314453 151.78656005859375 C 225.0 148.3205108642578 217.6794891357422 141.0 215.0 131.0 C 217.6794891357422 121.0 225.0 113.67948913574219 235.0043487548828 110.9984130859375 C 245.1203155517578 113.63191986083984 252.8818359375 120.67485809326172 254.02536010742188 130.05352783203125" stroke-width="0.0" fill="rgb(226, 227, 229)" opacity="0.9900158"/>
    <path d="M 264.8755798339844 112.41802215576172 C 262.789306640625 122.53379821777344 255.59100341796875 129.97361755371094 245.4439239501953 132.5130157470703 C 234.99993896484375 129.3206787109375 227.67947387695312 122.0000228881836 225.0 111.99998474121094 C 227.67897033691406 101.99827575683594 234.98931884765625 94.64704132080078 244.1717529296875 92.88329315185547 C 254.15646362304688 95.57796478271484 261.6350402832031 102.77409362792969 264.8755798339844 112.41802215576172" stroke-width="0.0" fill="rgb(226, 227, 228)" opacity="0.99001914"/>
    <path d="M 239.9387664794922 182.89952087402344 C 236.94393920898438 192.47705078125 229.3274383544922 199.52459716796875 219.2942657470703 202.12905883789062 C 210.0345458984375 200.2063751220703 202.62893676757812 193.0152130126953 200.83642578125 182.234375 C 201.7837371826172 172.1238250732422 209.13307189941406 164.80796813964844 219.22023010253906 162.1835174560547 C 229.90248107910156 165.89984130859375 237.3069305419922 173.03172302246094 239.9387664794922 182.89952087402344" stroke-width="0.0" fill="rgb(221, 222, 224)" opacity="0.9903942"/>
    <path d="M 19.998802185058594 157.0020294189453 C 17.32050895690918 167.0 10.0 174.3205108642578 1.2246467996456087e-15 177.0 C -10.0 174.3205108642578 -17.32050895690918 167.0 -20.0 157.0 C -17.32050895690918 147.0 -10.0 139.6794891357422 -0.03921304643154144 137.07827758789062 C 9.968839645385742 139.73495483398438 17.310266494750977 147.01773071289062 19.998802185058594 157.0020294189453" stroke-width="0.0" fill="rgb(98, 57, 33)" opacity="0.99560845"/>
    <path d="M 252.06983947753906 180.10574340820312 C 249.4472198486328 190.263916015625 242.9209442138672 199.02468872070312 232.30450439453125 201.9321746826172 C 222.24444580078125 199.18807983398438 216.2100830078125 191.45797729492188 213.87852478027344 181.1216278076172 C 216.41226196289062 171.70089721679688 223.71969604492188 164.4584197998047 233.86509704589844 161.6229705810547 C 243.9222412109375 162.75660705566406 251.2452850341797 170.07693481445312 252.06983947753906 180.10574340820312" stroke-width="0.0" fill="rgb(178, 174, 171)" opacity="1.0"/>
    <path d="M 219.95858764648438 221.08328247070312 C 216.34600830078125 232.04115295410156 209.0654296875 239.42628479003906 199.0594024658203 242.09347534179688 C 189.0 239.3205108642578 181.6794891357422 232.0 179.54920959472656 222.6348876953125 C 182.56146240234375 212.91864013671875 189.9469451904297 205.6471710205078 199.78135681152344 202.98976135253906 C 208.1649627685547 205.62635803222656 217.2552947998047 211.1893768310547 219.95858764648438 221.08328247070312" stroke-width="0.0" fill="rgb(89, 58, 35)" opacity="0.9900039"/>
    <path d="M 246.9693603515625 240.9799346923828 C 244.27822875976562 250.96578979492188 236.9699249267578 258.2922668457031 227.00257873535156 260.9783020019531 C 217.03829956054688 258.284912109375 209.7393798828125 250.95458984375 207.34617614746094 241.14276123046875 C 209.8971405029297 231.11900329589844 217.05751037597656 223.70201110839844 227.000732421875 220.9966278076172 C 237.0 223.6794891357422 244.3205108642578 231.0 246.9693603515625 240.9799346923828" stroke-width="0.0" fill="rgb(109, 69, 38)" opacity="0.9914429"/>
    <path d="M 210.0728759765625 38.46046829223633 C 208.65774536132812 48.09019470214844 200.9478759765625 55.267276763916016 190.98471069335938 57.99065399169922 C 181.0 55.32050704956055 173.6794891357422 48.0 171.0 38.0 C 173.6794891357422 28.0 181.0 20.67949104309082 190.99977111816406 18.00007438659668 C 200.98196411132812 20.685117721557617 207.96022033691406 28.145421981811523 210.0728759765625 38.46046829223633" stroke-width="0.0" fill="rgb(231, 232, 234)" opacity="1.0"/>
    <path d="M 50.01392364501953 217.9664764404297 C 49.18109893798828 227.83523559570312 41.83586120605469 235.18307495117188 30.8938045501709 237.94216918945312 C 20.193082809448242 235.17703247070312 12.930774688720703 227.76834106445312 10.051283836364746 216.07537841796875 C 12.710290908813477 206.0379638671875 20.04421615600586 198.72952270507812 30.127790451049805 196.15231323242188 C 40.09421157836914 200.51937866210938 47.348670959472656 207.9476318359375 50.01392364501953 217.9664764404297" stroke-width="0.0" fill="rgb(78, 48, 30)" opacity="1.0"/>
    <path d="M 223.9999237060547 129.00010681152344 C 221.31881713867188 138.99429321289062 213.9322052001953 146.12127685546875 203.244384765625 148.63070678710938 C 193.45535278320312 146.93106079101562 186.1917266845703 139.5030059814453 183.19290161132812 129.5077362060547 C 186.05364990234375 118.36239624023438 193.36257934570312 111.04972839355469 203.62452697753906 108.64471435546875 C 213.99021911621094 111.70337677001953 221.3191375732422 119.00334167480469 223.9999237060547 129.00010681152344" stroke-width="0.0" fill="rgb(237, 237, 237)" opacity="0.9900697"/>
    <path d="M 207.00160217285156 42.998748779296875 C 204.3204803466797 52.99999237060547 197.0 60.32050704956055 186.51025390625 63.50981521606445 C 176.28176879882812 61.05077362060547 168.978271484375 53.70933151245117 166.57142639160156 43.43284606933594 C 169.6794891357422 33.0 177.0 25.67949104309082 187.00001525878906 22.999996185302734 C 197.00022888183594 25.679397583007812 204.32200622558594 32.9993782043457 207.00160217285156 42.998748779296875" stroke-width="0.0" fill="rgb(234, 236, 237)" opacity="0.99357975"/>
    <path d="M 238.68809509277344 20.01534080505371 C 236.3184051513672 30.014389038085938 229.02139282226562 37.34474563598633 218.29649353027344 40.76637649536133 C 208.2022705078125 38.164066314697266 200.99227905273438 30.74921226501465 198.71145629882812 20.35773468017578 C 201.66908264160156 9.991366386413574 208.99461364746094 2.679457902908325 219.0015869140625 0.003718828083947301 C 228.9975128173828 2.6803433895111084 236.28567504882812 10.012079238891602 238.68809509277344 20.01534080505371" stroke-width="0.0" fill="rgb(154, 122, 95)" opacity="1.0"/>
    <path d="M 202.62396240234375 27.458599090576172 C 200.3205108642578 37.0 193.0 44.32050704956055 183.0000762939453 46.99996566772461 C 173.00099182128906 44.32004165649414 165.68528747558594 36.99748229980469 163.85882568359375 27.837915420532227 C 166.6145782470703 17.93543243408203 173.94366455078125 10.636614799499512 183.71653747558594 7.984492778778076 C 192.10147094726562 10.618127822875977 199.5369873046875 17.845272064208984 202.62396240234375 27.458599090576172" stroke-width="0.0" fill="rgb(234, 236, 237)" opacity="0.99000794"/>
    <path d="M 30.994874954223633 164.99839782714844 C 28.33056640625 175.03335571289062 21.06039810180664 182.4190673828125 10.994219779968262 185.08106994628906 C 0.9567704200744629 182.38597106933594 -6.341634750366211 175.03001403808594 -9.003741264343262 165.00521850585938 C -6.320508003234863 155.0 1.0 147.6794891357422 11.0 145.0 C 21.0 147.6794891357422 28.32050895690918 155.0 30.994874954223633 164.99839782714844" stroke-width="0.0" fill="rgb(96, 56, 31)" opacity="0.9940299"/>
    <path d="M 263.0008544921875 63.002288818359375 C 260.3541564941406 73.0931396484375 253.35446166992188 80.94375610351562 243.8764190673828 83.92782592773438 C 233.9457244873047 79.37744140625 226.6454620361328 72.04590606689453 223.97999572753906 62.0500373840332 C 224.8096923828125 52.18619155883789 232.26087951660156 45.064208984375 242.88507080078125 43.002445220947266 C 253.01589965820312 45.63432693481445 260.3216552734375 52.996620178222656 263.0008544921875 63.002288818359375" stroke-width="0.0" fill="rgb(129, 95, 67)" opacity="0.9900106"/>
    <path d="M 49.54521942138672 119.37629699707031 C 46.236976623535156 129.9712371826172 39.07713317871094 137.5547637939453 29.94409942626953 139.024169921875 C 19.964311599731445 136.35044860839844 12.65170955657959 129.03477478027344 9.987545013427734 119.12315368652344 C 12.640644073486328 110.95349884033203 19.95510482788086 103.64419555664062 29.961429595947266 100.95270538330078 C 39.92377853393555 101.73029327392578 47.17881774902344 109.10635375976562 49.54521942138672 119.37629699707031" stroke-width="0.0" fill="rgb(225, 222, 222)" opacity="0.9900024"/>
    <path d="M 36.721195220947266 68.39039611816406 C 33.82795333862305 78.34083557128906 26.178850173950195 85.32048797607422 15.072368621826172 88.94482421875 C 5.036782741546631 86.2890853881836 -2.2792344093322754 78.95991516113281 -4.894835472106934 68.88756561279297 C -1.3363804817199707 57.98897933959961 5.992087364196777 50.67401123046875 16.053897857666016 47.937252044677734 C 26.113971710205078 50.545955657958984 33.40997314453125 57.90027618408203 36.721195220947266 68.39039611816406" stroke-width="0.0" fill="rgb(139, 102, 74)" opacity="1.0"/>
    <path d="M 268.0072326660156 62.99760818481445 C 265.3733825683594 73.12837219238281 258.37176513671875 80.94371795654297 247.59242248535156 83.94225311279297 C 237.20570373535156 81.11627960205078 229.7988739013672 73.83045196533203 227.09332275390625 63.79755401611328 C 230.3545684814453 52.80016326904297 237.88076782226562 45.607688903808594 248.15725708007812 42.812015533447266 C 258.1014709472656 45.507781982421875 265.357421875 52.93989562988281 268.0072326660156 62.99760818481445" stroke-width="0.0" fill="rgb(152, 116, 87)" opacity="0.990119"/>
    <path d="M 240.0 137.0 C 237.3205108642578 147.0 230.0 154.3205108642578 219.42660522460938 157.60720825195312 C 209.23440551757812 155.1041259765625 201.94393920898438 147.75091552734375 199.61741638183594 137.45278930664062 C 202.55047607421875 126.87428283691406 209.8783721923828 119.56150817871094 219.95481872558594 116.94730377197266 C 230.0 119.67948913574219 237.3205108642578 127.0 240.0 137.0" stroke-width="0.0" fill="rgb(226, 228, 229)" opacity="1.0"/>
    <path d="M 247.5860137939453 111.11234283447266 C 245.289306640625 120.9869384765625 237.9947052001953 128.31678771972656 227.9962615966797 131.00038146972656 C 217.9716033935547 128.3357696533203 210.57803344726562 121.05430603027344 207.7530517578125 111.05329132080078 C 210.63180541992188 100.95951080322266 217.95578002929688 93.62001037597656 227.9666290283203 90.93895721435547 C 237.97683715820312 93.68829345703125 245.18292236328125 101.06228637695312 247.5860137939453 111.11234283447266" stroke-width="0.0" fill="rgb(228, 230, 231)" opacity="0.9912565"/>
    <path d="M 28.593870162963867 43.041011810302734 C 26.255701065063477 52.99205780029297 19.018598556518555 60.3487548828125 8.903142929077148 63.318363189697266 C -1.0921117067337036 60.48085021972656 -8.351187705993652 53.05235290527344 -11.003589630126953 43.00638961791992 C -8.319538116455078 33.0017204284668 -0.9967294931411743 25.685819625854492 9.036169052124023 22.96737289428711 C 19.01266098022461 25.626163482666016 26.194969177246094 33.043155670166016 28.593870162963867 43.041011810302734" stroke-width="0.0" fill="rgb(129, 95, 67)" opacity="1.0"/>
    <path d="M 204.0 40.0 C 201.3205108642578 50.0 194.0 57.32050704956055 183.7156982421875 60.25859069824219 C 173.36367797851562 57.903804779052734 165.89463806152344 50.705970764160156 163.1101531982422 40.692710876464844 C 166.5764617919922 29.962675094604492 173.99142456054688 22.67473030090332 183.99903869628906 19.99933624267578 C 194.0 22.67949104309082 201.3205108642578 30.0 204.0 40.0" stroke-width="0.0" fill="rgb(235, 236, 238)" opacity="0.9906842"/>
    <path d="M 221.82296752929688 61.294708251953125 C 218.3205108642578 72.0 211.0 79.32051086425781 201.0 82.0 C 191.00003051757812 79.32050323486328 183.6812286376953 71.99950408935547 181.05946350097656 61.98732376098633 C 183.679931640625 52.00012969970703 191.00001525878906 44.67949676513672 201.61277770996094 41.34856414794922 C 211.7989959716797 43.869606018066406 219.1363983154297 51.19938659667969 221.82296752929688 61.294708251953125" stroke-width="0.0" fill="rgb(235, 237, 238)" opacity="0.9905668"/>
    <path d="M 202.98587036132812 249.89451599121094 C 200.26390075683594 259.8878173828125 192.78610229492188 266.97479248046875 182.25047302246094 269.14422607421875 C 172.09092712402344 266.2720642089844 164.9801483154297 258.8269348144531 162.62742614746094 249.00653076171875 C 165.01138305664062 239.21905517578125 172.14251708984375 231.7736358642578 182.0208282470703 229.02284240722656 C 192.2511749267578 231.592529296875 200.14776611328125 238.3792724609375 202.98587036132812 249.89451599121094" stroke-width="0.0" fill="rgb(94, 55, 27)" opacity="1.0"/>
    <path d="M 65.19127655029297 170.47296142578125 C 63.12005615234375 180.87254333496094 55.9293212890625 188.28329467773438 45.97976303100586 189.1702880859375 C 35.97020721435547 186.34335327148438 28.651365280151367 179.03208923339844 25.968063354492188 169.054443359375 C 27.517147064208984 159.82266235351562 34.80949020385742 152.47361755371094 44.8972282409668 149.94638061523438 C 54.934696197509766 152.7366180419922 62.195709228515625 160.08567810058594 65.19127655029297 170.47296142578125" stroke-width="0.0" fill="rgb(224, 225, 227)" opacity="0.99000293"/>
    <path d="M 224.57583618164062 69.45687103271484 C 221.68438720703125 79.44245910644531 214.61659240722656 87.09272766113281 204.73472595214844 89.8629150390625 C 194.0 86.32051086425781 186.6794891357422 79.0 184.00010681152344 69.00010681152344 C 186.6798095703125 59.0003547668457 194.0004425048828 51.68014144897461 204.0018310546875 48.99980926513672 C 213.95985412597656 51.687896728515625 221.01358032226562 59.14118576049805 224.57583618164062 69.45687103271484" stroke-width="0.0" fill="rgb(230, 232, 234)" opacity="0.9902565"/>
    <path d="M 198.01614379882812 223.04029846191406 C 195.34410095214844 233.02943420410156 188.02999877929688 240.34535217285156 178.91787719726562 243.0101318359375 C 169.9561004638672 240.3495635986328 162.5804443359375 233.06370544433594 158.09024047851562 223.5320281982422 C 161.56809997558594 214.21017456054688 169.4222869873047 207.2841796875 179.89178466796875 203.11865234375 C 189.9445037841797 205.7321319580078 197.26451110839844 213.056396484375 198.01614379882812 223.04029846191406" stroke-width="0.0" fill="rgb(213, 215, 217)" opacity="0.99000204"/>
    <path d="M 150.9275360107422 44.86021423339844 C 148.245361328125 54.907920837402344 140.90713500976562 62.243629455566406 130.864990234375 64.93457794189453 C 119.67327880859375 61.66347122192383 112.41252136230469 54.30412673950195 110.16211700439453 44.12071228027344 C 112.70814514160156 33.95664978027344 119.8857421875 26.47277069091797 129.7639617919922 23.60248374938965 C 140.1461944580078 26.644041061401367 147.80848693847656 33.69612121582031 150.9275360107422 44.86021423339844" stroke-width="0.0" fill="rgb(223, 225, 226)" opacity="1.0"/>
    <path d="M 100.48002624511719 77.60710144042969 C 98.11644744873047 87.76665496826172 90.74446868896484 95.04884338378906 80.44187927246094 97.76319122314453 C 69.23382568359375 94.94258880615234 61.83330154418945 87.81597137451172 60.63853454589844 77.73489379882812 C 63.116310119628906 67.2773666381836 70.15890502929688 59.76707077026367 79.96617889404297 57.01483154296875 C 89.8531723022461 59.811580657958984 97.09986877441406 67.17344665527344 100.48002624511719 77.60710144042969" stroke-width="0.0" fill="rgb(234, 237, 239)" opacity="0.9901024"/>
    <path d="M 31.983444213867188 160.86474609375 C 29.281511306762695 170.9349365234375 21.898447036743164 178.17141723632812 11.565680503845215 180.39405822753906 C 1.036669135093689 177.2601776123047 -6.304647445678711 169.9765167236328 -8.99599838256836 159.9976348876953 C -6.316407203674316 150.0027313232422 0.9955119490623474 142.65817260742188 11.132304191589355 139.8546142578125 C 21.69390869140625 142.1483612060547 29.23525047302246 149.16619873046875 31.983444213867188 160.86474609375" stroke-width="0.0" fill="rgb(103, 64, 37)" opacity="1.0"/>
    <path d="M 246.73744201660156 -0.18248283863067627 C 244.01486206054688 9.772838592529297 236.82257080078125 17.172893524169922 227.0059814453125 19.87882423400879 C 216.9864501953125 17.253726959228516 209.0900421142578 10.301630973815918 206.12896728515625 0.6979323625564575 C 209.6794891357422 -10.0 217.0 -17.32050895690918 227.0 -20.0 C 237.0 -17.32050895690918 244.3205108642578 -10.0 246.73744201660156 -0.18248283863067627" stroke-width="0.0" fill="rgb(158, 128, 102)" opacity="1.0"/>
    <path d="M 139.97488403320312 8.082891464233398 C 135.581298828125 18.105588912963867 128.06625366210938 25.363557815551758 118.20210266113281 28.017126083374023 C 109.69188690185547 25.408035278320312 100.76532745361328 19.7962646484375 98.06542205810547 9.880270957946777 C 101.74630737304688 -0.9593443274497986 109.02529907226562 -8.30496597290039 119.4228286743164 -11.30996036529541 C 129.85714721679688 -9.100818634033203 137.271484375 -1.9138480424880981 139.97488403320312 8.082891464233398" stroke-width="0.0" fill="rgb(129, 102, 85)" opacity="0.9900071"/>
    <path d="M 254.0722198486328 230.97642517089844 C 251.35739135742188 241.03514099121094 244.03952026367188 248.37232971191406 234.0142364501953 251.09104919433594 C 223.96009826660156 248.3625030517578 216.62448120117188 241.04371643066406 214.15293884277344 231.19932556152344 C 217.05848693847656 221.36143493652344 224.31695556640625 213.878173828125 233.96807861328125 210.45628356933594 C 244.16786193847656 213.45616149902344 251.43858337402344 220.86448669433594 254.0722198486328 230.97642517089844" stroke-width="0.0" fill="rgb(105, 70, 39)" opacity="0.9910111"/>
    <path d="M 211.46414184570312 78.61717224121094 C 209.12741088867188 88.81763458251953 201.83065795898438 96.1680908203125 191.534423828125 98.76382446289062 C 180.24790954589844 96.06884002685547 172.86593627929688 88.77418518066406 170.15586853027344 78.59397888183594 C 173.0711669921875 67.460205078125 180.50721740722656 60.21609115600586 190.77734375 57.83562469482422 C 200.93267822265625 60.73199462890625 208.112548828125 68.1162109375 211.46414184570312 78.61717224121094" stroke-width="0.0" fill="rgb(239, 237, 239)" opacity="1.0"/>
    <path d="M 208.0235595703125 31.860794067382812 C 205.58285522460938 40.500953674316406 198.80393981933594 48.22938537597656 188.9905242919922 50.97407531738281 C 179.00692749023438 48.311649322509766 171.68759155273438 40.9932861328125 168.92625427246094 30.917457580566406 C 171.47640991210938 20.782812118530273 178.74508666992188 13.355842590332031 188.1565399169922 11.852063179016113 C 198.0724334716797 14.609960556030273 205.37167358398438 21.93451499938965 208.0235595703125 31.860794067382812" stroke-width="0.0" fill="rgb(232, 234, 236)" opacity="0.9900242"/>
    <path d="M 245.9045867919922 141.88059997558594 C 243.26939392089844 151.94256591796875 235.93975830078125 159.26104736328125 225.84698486328125 161.8660888671875 C 214.7395782470703 158.56301879882812 207.38116455078125 151.27696228027344 204.72039794921875 141.08291625976562 C 207.5720672607422 130.9060516357422 214.88954162597656 123.51922607421875 224.89434814453125 120.81995391845703 C 234.99940490722656 123.68094635009766 242.32177734375 130.9998321533203 245.9045867919922 141.88059997558594" stroke-width="0.0" fill="rgb(225, 226, 228)" opacity="1.0"/>
  </g>
</svg>
