<?xml version="1.0" ?>
<svg xmlns="http://www.w3.org/2000/svg" version="1.1" width="256" height="256">
  <defs/>
  <g>
    <path d="M 102.97736358642578 154.9385223388672 C 100.93462371826172 162.38282775878906 95.2578353881836 167.58885192871094 86.0340805053711 169.98123168945312 C 78.52564239501953 167.97128295898438 73.03533172607422 162.47152709960938 71.03172302246094 154.92698669433594 C 73.11442565917969 145.60511779785156 78.59326934814453 140.0830841064453 87.72317504882812 138.03457641601562 C 95.38129425048828 140.0808868408203 100.73947143554688 145.68190002441406 102.97736358642578 154.9385223388672" stroke-width="0.0" fill="rgb(134, 133, 133)" opacity="1.0"/>
    <path d="M 78.06908416748047 224.11341857910156 C 76.26023864746094 231.79627990722656 70.7643814086914 237.10421752929688 62.7443733215332 238.44216918945312 C 55.5 236.99038696289062 50.009620666503906 231.5 48.00058364868164 224.0015411376953 C 50.02494812011719 216.53904724121094 55.60145950317383 211.22152709960938 62.369503021240234 209.7090606689453 C 70.06451416015625 211.6424560546875 75.86026000976562 216.74331665039062 78.06908416748047 224.11341857910156" stroke-width="0.0" fill="rgb(254, 254, 254)" opacity="0.9904227"/>
    <path d="M 128.95445251464844 94.05362701416016 C 125.30522918701172 101.80457305908203 120.37639617919922 108.84111785888672 113.9420166015625 110.96915435791016 C 106.38545227050781 107.08096313476562 99.99166107177734 101.67031860351562 97.02534484863281 94.13654327392578 C 99.04267883300781 86.53828430175781 104.53642272949219 81.03787231445312 113.84992980957031 79.00952911376953 C 121.47721862792969 81.02839660644531 126.9681396484375 86.52403259277344 128.95445251464844 94.05362701416016" stroke-width="0.0" fill="rgb(41, 41, 42)" opacity="0.9900042"/>
    <path d="M 198.3297119140625 194.58877563476562 C 196.34555053710938 202.9036407470703 190.9138641357422 208.3728790283203 183.12962341308594 209.82083129882812 C 175.51182556152344 207.95884704589844 170.0107879638672 202.49681091308594 168.00006103515625 194.9999542236328 C 170.01206970214844 187.50839233398438 175.60992431640625 182.30906677246094 182.23748779296875 180.9754180908203 C 191.37753295898438 181.1160430908203 196.78573608398438 186.64830017089844 198.3297119140625 194.58877563476562" stroke-width="0.0" fill="rgb(249, 249, 249)" opacity="1.0"/>
    <path d="M 254.23069763183594 147.5558624267578 C 252.5128631591797 155.27468872070312 247.34872436523438 160.65310668945312 239.4446563720703 162.3383331298828 C 231.91355895996094 161.56491088867188 226.39328002929688 156.09921264648438 224.61155700683594 148.36573791503906 C 227.00961303710938 140.5 232.5 135.00961303710938 239.81146240234375 133.20529174804688 C 247.0000762939453 135.44227600097656 252.31427001953125 141.08261108398438 254.23069763183594 147.5558624267578" stroke-width="0.0" fill="rgb(254, 254, 255)" opacity="0.99024993"/>
    <path d="M 226.91891479492188 234.1306610107422 C 223.99038696289062 242.5 218.5 247.99038696289062 211.00830078125 249.97216796875 C 203.50057983398438 247.9884033203125 198.00962829589844 242.4999542236328 196.0 235.0 C 198.00961303710938 227.5 203.5 222.00961303710938 211.48193359375 219.60423278808594 C 219.34982299804688 221.21412658691406 224.91603088378906 226.6088104248047 226.91891479492188 234.1306610107422" stroke-width="0.0" fill="rgb(250, 250, 250)" opacity="1.0"/>
    <path d="M 235.9620361328125 115.06562042236328 C 232.99038696289062 123.5 227.5 128.99038696289062 220.0 131.0 C 212.5 128.99038696289062 207.00961303710938 123.5 205.0 116.0 C 207.00961303710938 108.5 212.5 103.0096206665039 220.56253051757812 100.53877258300781 C 228.40200805664062 102.1563491821289 233.95166015625 107.5633544921875 235.9620361328125 115.06562042236328" stroke-width="0.0" fill="rgb(46, 46, 46)" opacity="1.0"/>
    <path d="M 180.6009063720703 206.39459228515625 C 178.4166717529297 213.71995544433594 172.5647735595703 218.98760986328125 164.9893341064453 220.98800659179688 C 157.5 218.99038696289062 152.00961303710938 213.5 150.0 206.0 C 152.00961303710938 198.5 157.5 193.00961303710938 165.0 191.0 C 172.5 193.00961303710938 177.99038696289062 198.5 180.6009063720703 206.39459228515625" stroke-width="0.0" fill="rgb(253, 254, 254)" opacity="0.9911203"/>
    <path d="M 168.0 35.0 C 165.99038696289062 42.5 160.5 47.990379333496094 153.0 50.0 C 145.5 47.990379333496094 140.00961303710938 42.5 138.67703247070312 35.653263092041016 C 140.85513305664062 28.35143280029297 146.37669372558594 22.921274185180664 153.87757873535156 20.93976593017578 C 160.5 22.009618759155273 165.99038696289062 27.5 168.0 35.0" stroke-width="0.0" fill="rgb(156, 156, 156)" opacity="0.99012834"/>
    <path d="M 126.00004577636719 31.99985694885254 C 123.9903793334961 39.5 118.5 44.990379333496094 110.9793472290039 47.0080680847168 C 103.139892578125 45.16689682006836 97.17022705078125 40.16299057006836 95.04146575927734 32.71409225463867 C 97.16893768310547 23.730417251586914 102.78919219970703 18.32248878479004 110.9212417602539 16.244333267211914 C 118.56062316894531 18.838275909423828 123.9931640625 24.49131202697754 126.00004577636719 31.99985694885254" stroke-width="0.0" fill="rgb(219, 219, 219)" opacity="1.0"/>
    <path d="M 22.81258201599121 51.7591667175293 C 20.870203018188477 59.353946685791016 15.338948249816895 64.829345703125 7.77432107925415 65.91805267333984 C -0.08411797881126404 63.3802604675293 -5.865521430969238 58.266517639160156 -7.989476203918457 50.98129653930664 C -5.976243495941162 43.5286865234375 -0.44241389632225037 38.11955261230469 7.0953168869018555 36.19845199584961 C 14.5 38.009620666503906 19.990381240844727 43.5 22.81258201599121 51.7591667175293" stroke-width="0.0" fill="rgb(254, 254, 254)" opacity="0.9904544"/>
    <path d="M 64.0 225.0 C 61.990379333496094 232.5 56.5 237.99038696289062 49.09244155883789 239.93896484375 C 41.797149658203125 237.7144317626953 35.35321044921875 232.6649932861328 33.170379638671875 225.45594787597656 C 35.988670349121094 217.5326690673828 41.54106903076172 212.0322723388672 49.00412368774414 210.00209045410156 C 56.5 212.00961303710938 61.990379333496094 217.5 64.0 225.0" stroke-width="0.0" fill="rgb(250, 250, 250)" opacity="1.0"/>
    <path d="M 246.63125610351562 208.54718017578125 C 243.98983764648438 216.49984741210938 238.5 221.99038696289062 230.82785034179688 224.12867736816406 C 222.94216918945312 222.45480346679688 217.27584838867188 217.14553833007812 215.31459045410156 209.58038330078125 C 218.00961303710938 201.5 223.5 196.00961303710938 231.52688598632812 193.42446899414062 C 239.1964874267578 195.27218627929688 244.60037231445312 200.84271240234375 246.63125610351562 208.54718017578125" stroke-width="0.0" fill="rgb(254, 255, 255)" opacity="0.9905035"/>
    <path d="M 138.2675323486328 254.2172088623047 C 135.97434997558594 261.4943542480469 130.49871826171875 266.98992919921875 122.99993896484375 269.0 C 115.4963607788086 266.9914245605469 109.87960052490234 261.54205322265625 107.11949920654297 253.5925750732422 C 109.8468017578125 246.38833618164062 115.08094787597656 240.32244873046875 122.53475189208984 238.10150146484375 C 130.0205535888672 241.25225830078125 135.3809814453125 247.0592803955078 138.2675323486328 254.2172088623047" stroke-width="0.0" fill="rgb(254, 254, 254)" opacity="0.99021626"/>
    <path d="M 46.44015884399414 187.65679931640625 C 44.63542175292969 195.31541442871094 39.426185607910156 200.95858764648438 31.99614715576172 202.99839782714844 C 24.5 200.99038696289062 19.009618759155273 195.5 17.0 188.0 C 19.009618759155273 180.5 24.5 175.00961303710938 32.0 173.0 C 39.5 175.00961303710938 44.990379333496094 180.5 46.44015884399414 187.65679931640625" stroke-width="0.0" fill="rgb(251, 251, 251)" opacity="1.0"/>
    <path d="M 64.03858947753906 236.20912170410156 C 62.52425765991211 244.07748413085938 57.12745666503906 249.681396484375 49.591732025146484 250.61514282226562 C 40.79044723510742 249.4332733154297 35.11411666870117 244.32452392578125 34.96065139770508 236.93646240234375 C 36.911354064941406 229.3298797607422 42.225364685058594 223.60549926757812 49.21782302856445 221.1336669921875 C 56.4999885559082 223.00961303710938 61.990325927734375 228.50003051757812 64.03858947753906 236.20912170410156" stroke-width="0.0" fill="rgb(249, 249, 250)" opacity="1.0"/>
    <path d="M 198.95668029785156 37.78849792480469 C 196.9298095703125 45.42061233520508 191.41387939453125 50.91408157348633 182.3038330078125 52.95845031738281 C 174.58872985839844 50.9300422668457 169.1772003173828 45.37709045410156 167.53416442871094 37.54448699951172 C 169.90841674804688 29.272775650024414 175.00497436523438 23.290939331054688 182.26828002929688 21.117019653320312 C 191.10475158691406 23.57266616821289 196.86343383789062 28.733394622802734 198.95668029785156 37.78849792480469" stroke-width="0.0" fill="rgb(158, 158, 162)" opacity="1.0"/>
    <path d="M 249.95314025878906 218.94825744628906 C 247.85992431640625 226.41400146484375 242.61553955078125 232.3824005126953 235.2158966064453 234.7044219970703 C 226.8941650390625 232.5592041015625 221.26104736328125 227.16912841796875 219.15110778808594 219.70965576171875 C 222.02450561523438 211.50479125976562 227.50071716308594 206.00982666015625 235.00018310546875 203.99984741210938 C 242.50027465820312 206.00921630859375 247.99053955078125 211.49978637695312 249.95314025878906 218.94825744628906" stroke-width="0.0" fill="rgb(254, 254, 254)" opacity="0.9905627"/>
    <path d="M 247.09649658203125 130.19464111328125 C 245.15643310546875 137.80923461914062 240.02249145507812 143.70010375976562 232.94662475585938 145.97523498535156 C 225.5 143.99038696289062 220.00961303710938 138.5 217.9800262451172 130.98464965820312 C 220.04159545898438 123.6823959350586 225.9447784423828 118.68331909179688 233.64256286621094 116.80548095703125 C 240.5 118.0096206665039 245.99038696289062 123.5 247.09649658203125 130.19464111328125" stroke-width="0.0" fill="rgb(2, 2, 2)" opacity="0.990066"/>
    <path d="M 207.0 162.99998474121094 C 204.99000549316406 170.49867248535156 199.4794464111328 175.92230224609375 191.05848693847656 178.96466064453125 C 183.52947998046875 176.95997619628906 178.0258331298828 171.47642517089844 176.01316833496094 163.96534729003906 C 178.0826416015625 154.60203552246094 183.60926818847656 149.09494018554688 191.11599731445312 147.05540466308594 C 199.5 150.00961303710938 204.99038696289062 155.5 207.0 162.99998474121094" stroke-width="0.0" fill="rgb(3, 3, 4)" opacity="0.9900071"/>
    <path d="M 267.998779296875 220.9957275390625 C 265.9581604003906 228.42306518554688 260.29595947265625 233.5977325439453 252.2950897216797 236.65484619140625 C 244.86947631835938 234.70196533203125 239.4996795654297 229.0629425048828 237.8065948486328 221.26023864746094 C 240.1935577392578 213.75439453125 245.8113555908203 208.3778076171875 253.55941772460938 205.20425415039062 C 260.6029968261719 207.7499542236328 265.9976806640625 213.47994995117188 267.998779296875 220.9957275390625" stroke-width="0.0" fill="rgb(254, 251, 254)" opacity="0.9904114"/>
    <path d="M 179.24887084960938 25.194272994995117 C 177.2980194091797 32.97056198120117 172.13893127441406 38.75502395629883 165.09095764160156 40.89335632324219 C 158.1357421875 38.516239166259766 152.90188598632812 32.70591735839844 150.97267150878906 25.162063598632812 C 151.26165771484375 17.652997970581055 156.6253662109375 12.120722770690918 164.2540283203125 10.218233108520508 C 173.0081024169922 12.659587860107422 178.7686767578125 17.84430694580078 179.24887084960938 25.194272994995117" stroke-width="0.0" fill="rgb(221, 219, 219)" opacity="0.99004996"/>
    <path d="M 92.63923645019531 195.28216552734375 C 89.438232421875 202.06016540527344 84.15467071533203 207.73416137695312 76.4820556640625 210.69955444335938 C 69.12380981445312 208.5708465576172 64.08551025390625 202.65447998046875 62.617008209228516 195.63494873046875 C 64.88895416259766 188.37545776367188 70.36011505126953 182.81600952148438 76.7764663696289 179.1669158935547 C 83.80750274658203 182.57810974121094 89.21540069580078 188.24314880371094 92.63923645019531 195.28216552734375" stroke-width="0.0" fill="rgb(249, 249, 250)" opacity="1.0"/>
    <path d="M 77.16059875488281 40.891483306884766 C 76.85486602783203 47.98387908935547 70.3433837890625 53.713462829589844 63.66007995605469 55.968441009521484 C 54.964500427246094 53.74969482421875 49.90895462036133 47.73274612426758 47.99626541137695 40.00999069213867 C 50.009620666503906 32.5 55.5 27.009618759155273 62.98796081542969 25.005043029785156 C 70.29535675048828 27.10469627380371 75.30399322509766 32.957054138183594 77.16059875488281 40.891483306884766" stroke-width="0.0" fill="rgb(15, 16, 14)" opacity="0.99001"/>
    <path d="M 42.0 189.0 C 39.990379333496094 196.5 34.5 201.99038696289062 27.0 204.0 C 19.5 201.99038696289062 14.009618759155273 196.5 12.0 189.0 C 14.009618759155273 181.5 19.5 176.00961303710938 27.0 174.0 C 34.5 176.00961303710938 39.990379333496094 181.5 42.0 189.0" stroke-width="0.0" fill="rgb(251, 251, 251)" opacity="1.0"/>
    <path d="M 122.23477172851562 44.3308219909668 C 120.68899536132812 52.289100646972656 115.35438537597656 57.89518737792969 107.86956787109375 59.87246322631836 C 100.39971923828125 56.12295913696289 94.96123504638672 50.57238006591797 92.9852294921875 43.22404479980469 C 94.86177825927734 36.953548431396484 98.8641586303711 30.225425720214844 106.16690826416016 28.06535530090332 C 114.5 31.009618759155273 119.9903793334961 36.5 122.23477172851562 44.3308219909668" stroke-width="0.0" fill="rgb(4, 4, 4)" opacity="0.99000233"/>
    <path d="M 240.0 252.0 C 237.99038696289062 259.5 232.5 264.9903869628906 224.99134826660156 267.0043029785156 C 217.41055297851562 265.03900146484375 211.76683044433594 259.65081787109375 209.36875915527344 252.30499267578125 C 211.9807891845703 244.45375061035156 217.4232635498047 238.88140869140625 224.9218292236328 236.86988830566406 C 232.5 239.00961303710938 237.99038696289062 244.5 240.0 252.0" stroke-width="0.0" fill="rgb(247, 247, 248)" opacity="0.99126244"/>
    <path d="M 265.0054626464844 252.98794555664062 C 262.9903869628906 260.5 257.5 265.9903869628906 250.0 268.0 C 242.5 265.9903869628906 237.00961303710938 260.5 235.00987243652344 253.0186767578125 C 237.10838317871094 245.67372131347656 242.790283203125 240.45196533203125 250.67340087890625 237.24050903320312 C 257.8367004394531 239.4674530029297 263.0712585449219 245.33609008789062 265.0054626464844 252.98794555664062" stroke-width="0.0" fill="rgb(254, 254, 254)" opacity="0.9908651"/>
    <path d="M 233.0 96.0 C 230.99038696289062 103.5 225.5 108.9903793334961 218.0 111.0 C 210.5 108.9903793334961 205.00961303710938 103.5 203.0 96.0 C 205.00961303710938 88.5 210.5 83.0096206665039 218.0 81.0 C 225.5 83.0096206665039 230.99038696289062 88.5 233.0 96.0" stroke-width="0.0" fill="rgb(76, 77, 77)" opacity="1.0"/>
    <path d="M 159.95504760742188 62.08811950683594 C 157.0399932861328 70.51484680175781 151.5010223388672 75.99067687988281 143.4379119873047 78.50064086914062 C 135.6195068359375 76.82730102539062 130.05722045898438 71.4211196899414 128.02777099609375 63.91413497924805 C 130.41380310058594 55.50106430053711 136.835205078125 50.30252456665039 144.43565368652344 47.75455856323242 C 152.3511505126953 49.24064636230469 157.93658447265625 54.591827392578125 159.95504760742188 62.08811950683594" stroke-width="0.0" fill="rgb(191, 190, 192)" opacity="1.0"/>
    <path d="M 63.95848846435547 95.41502380371094 C 61.88873291015625 103.32405853271484 56.20890426635742 108.52281951904297 48.11427307128906 109.96371459960938 C 40.5 107.9903793334961 35.009620666503906 102.5 32.69220733642578 94.59495544433594 C 34.25496292114258 86.67164611816406 39.616920471191406 81.08460235595703 48.05742645263672 79.04437255859375 C 56.42473220825195 81.06350708007812 61.90778732299805 86.58776092529297 63.95848846435547 95.41502380371094" stroke-width="0.0" fill="rgb(224, 224, 225)" opacity="1.0"/>
    <path d="M 229.01292419433594 108.02789306640625 C 227.01023864746094 115.52971649169922 221.54029846191406 121.04051208496094 214.15745544433594 123.17478942871094 C 207.67063903808594 121.90381622314453 202.58123779296875 116.14264678955078 200.94691467285156 108.81013488769531 C 202.65823364257812 101.9320297241211 207.71478271484375 96.11834716796875 215.01646423339844 94.00749969482422 C 222.5 96.0096206665039 227.99038696289062 101.5 229.01292419433594 108.02789306640625" stroke-width="0.0" fill="rgb(247, 246, 247)" opacity="0.9900186"/>
    <path d="M 54.81610107421875 115.14029693603516 C 52.84056091308594 122.2650375366211 47.12250900268555 127.44092559814453 40.869991302490234 129.02850341796875 C 33.16627883911133 127.1985092163086 27.37833023071289 121.98456573486328 25.04974937438965 114.90446472167969 C 27.009618759155273 107.5 32.499900817871094 102.00926208496094 39.590511322021484 100.52406311035156 C 47.022705078125 102.57792663574219 52.60658264160156 107.91565704345703 54.81610107421875 115.14029693603516" stroke-width="0.0" fill="rgb(233, 233, 234)" opacity="1.0"/>
    <path d="M 19.80160140991211 119.44403839111328 C 16.84685707092285 127.3704605102539 11.39470100402832 132.92208862304688 3.984901189804077 134.99130249023438 C -3.5 132.99038696289062 -8.990381240844727 127.5 -11.0 120.0 C -8.990381240844727 112.5 -3.5 107.0096206665039 3.997535228729248 105.0021743774414 C 11.538185119628906 107.00457763671875 17.383955001831055 112.32038116455078 19.80160140991211 119.44403839111328" stroke-width="0.0" fill="rgb(253, 254, 254)" opacity="0.9908241"/>
    <path d="M 163.00009155273438 192.0000762939453 C 160.9905548095703 199.50013732910156 155.50013732910156 204.99050903320312 148.0622100830078 206.94447326660156 C 140.66065979003906 204.820556640625 134.9883575439453 199.38768005371094 132.77218627929688 192.09573364257812 C 135.00961303710938 184.5 140.5 179.00961303710938 148.0 177.0 C 155.5 179.00961303710938 160.99038696289062 184.5 163.00009155273438 192.0000762939453" stroke-width="0.0" fill="rgb(252, 252, 253)" opacity="0.99419564"/>
    <path d="M 262.2848205566406 177.79893493652344 C 260.2472839355469 185.77967834472656 254.80284118652344 191.32244873046875 246.52203369140625 193.84837341308594 C 239.78689575195312 191.06619262695312 234.28904724121094 185.15663146972656 231.99850463867188 177.93911743164062 C 234.0375518798828 170.5205078125 239.39183044433594 164.68003845214844 246.73959350585938 162.3007354736328 C 255.1348876953125 164.34622192382812 260.54736328125 169.8972930908203 262.2848205566406 177.79893493652344" stroke-width="0.0" fill="rgb(254, 254, 254)" opacity="0.99029917"/>
    <path d="M 219.76998901367188 236.86181640625 C 217.80307006835938 244.39854431152344 212.45558166503906 249.99168395996094 204.56680297851562 252.38375854492188 C 196.86795043945312 250.68759155273438 192.21824645996094 244.99127197265625 190.74781799316406 236.50035095214844 C 192.0114288330078 229.50051879882812 197.50003051757812 224.00962829589844 205.0 222.0 C 212.5 224.00961303710938 217.99066162109375 229.4999237060547 219.76998901367188 236.86181640625" stroke-width="0.0" fill="rgb(249, 250, 250)" opacity="0.99044055"/>
    <path d="M 213.97421264648438 16.755617141723633 C 211.940185546875 24.43086051940918 206.4247283935547 29.92718505859375 198.884765625 31.94148063659668 C 190.32232666015625 29.302364349365234 184.9385223388672 23.598648071289062 182.98097229003906 16.020235061645508 C 185.00961303710938 8.5 190.5 3.0096189975738525 198.87063598632812 0.07864171266555786 C 206.41757202148438 2.0796165466308594 211.9294891357422 7.57843017578125 213.97421264648438 16.755617141723633" stroke-width="0.0" fill="rgb(159, 153, 157)" opacity="1.0"/>
    <path d="M 93.98934936523438 222.01246643066406 C 91.9903793334961 229.5 86.5 234.99038696289062 79.0 237.0 C 71.5 234.99038696289062 66.0096206665039 229.5 64.09857940673828 222.12059020996094 C 66.33619689941406 214.8623046875 71.87271118164062 209.3668212890625 79.2936782836914 206.5161895751953 C 86.55754089355469 208.8014678955078 91.95591735839844 214.5216522216797 93.98934936523438 222.01246643066406" stroke-width="0.0" fill="rgb(250, 253, 254)" opacity="0.9907372"/>
    <path d="M 26.0 93.0 C 23.990381240844727 100.5 18.5 105.9903793334961 11.0 108.0 C 3.5 105.9903793334961 -1.9903810024261475 100.5 -4.0 93.0 C -1.9903810024261475 85.5 3.5 80.0096206665039 11.0 78.0 C 18.5 80.0096206665039 23.990381240844727 85.5 26.0 93.0" stroke-width="0.0" fill="rgb(252, 252, 252)" opacity="1.0"/>
    <path d="M 138.9842071533203 44.97779846191406 C 136.91444396972656 52.41657638549805 131.586669921875 58.368675231933594 123.11302947998047 60.955257415771484 C 115.57627868652344 58.9371452331543 111.79338836669922 53.35576248168945 109.98503875732422 45.33264923095703 C 111.97493743896484 38.44287872314453 117.40928649902344 32.86447525024414 124.54322052001953 30.41564178466797 C 131.5 32.009620666503906 136.99038696289062 37.5 138.9842071533203 44.97779846191406" stroke-width="0.0" fill="rgb(248, 249, 249)" opacity="0.9900048"/>
    <path d="M 168.15084838867188 151.06011962890625 C 166.2223358154297 160.1895294189453 161.28021240234375 165.8209991455078 153.6903533935547 167.76153564453125 C 145.5001983642578 164.99032592773438 140.02078247070312 159.4967803955078 138.95654296875 152.86404418945312 C 140.6431427001953 144.81900024414062 145.49798583984375 138.9958038330078 152.56593322753906 137.76791381835938 C 161.35906982421875 138.30580139160156 166.9398956298828 143.58432006835938 168.15084838867188 151.06011962890625" stroke-width="0.0" fill="rgb(39, 39, 39)" opacity="0.99000305"/>
    <path d="M 249.8553009033203 140.18345642089844 C 246.9900665283203 148.49974060058594 241.499755859375 153.9901123046875 233.99969482421875 155.9998779296875 C 226.49990844726562 153.99058532714844 221.0095977783203 148.50003051757812 219.01271057128906 141.03216552734375 C 221.26507568359375 133.97561645507812 227.27915954589844 128.91661071777344 234.93295288085938 126.98592376708984 C 242.35911560058594 127.19723510742188 247.9026336669922 132.6124267578125 249.8553009033203 140.18345642089844" stroke-width="0.0" fill="rgb(249, 250, 250)" opacity="0.9900422"/>
    <path d="M 220.86634826660156 145.76417541503906 C 218.80088806152344 152.96302795410156 211.87930297851562 157.1797332763672 204.27816772460938 159.1829071044922 C 197.3373260498047 158.06857299804688 191.4574432373047 152.84225463867188 189.26641845703125 145.5333251953125 C 192.00961303710938 137.5 197.5 132.00961303710938 205.0 130.0 C 212.5 132.00961303710938 217.99038696289062 137.5 220.86634826660156 145.76417541503906" stroke-width="0.0" fill="rgb(9, 7, 8)" opacity="0.9900071"/>
    <path d="M 159.49652099609375 44.80137634277344 C 157.46484375 52.10519027709961 152.2476348876953 57.93757247924805 145.0489044189453 60.107906341552734 C 137.5 57.990379333496094 132.00961303710938 52.5 129.9996337890625 44.998985290527344 C 131.99661254882812 37.46381378173828 137.3523406982422 31.674930572509766 144.11936950683594 30.91471290588379 C 151.673095703125 32.91087341308594 157.39183044433594 38.21975326538086 159.49652099609375 44.80137634277344" stroke-width="0.0" fill="rgb(225, 225, 224)" opacity="0.9900619"/>
    <path d="M 46.000022888183594 206.00009155273438 C 43.99158477783203 213.50341796875 38.51078414916992 219.01727294921875 30.51464080810547 221.6883087158203 C 23.465681076049805 219.47865295410156 18.37480926513672 213.20616149902344 15.39840030670166 205.55421447753906 C 17.632198333740234 198.265869140625 23.362817764282227 192.92344665527344 30.980972290039062 190.9881591796875 C 38.5 193.00961303710938 43.990379333496094 198.5 46.000022888183594 206.00009155273438" stroke-width="0.0" fill="rgb(254, 254, 254)" opacity="0.99027085"/>
    <path d="M 22.641380310058594 135.3181610107422 C 20.950912475585938 142.40841674804688 15.291726112365723 147.61216735839844 7.434092998504639 150.78782653808594 C -0.02105867862701416 148.65757751464844 -5.24222469329834 142.87554931640625 -7.034870624542236 135.06016540527344 C -4.990438938140869 127.49992370605469 0.49989673495292664 122.00948333740234 7.75225305557251 120.24459838867188 C 14.984102249145508 122.51351928710938 20.43390655517578 128.03201293945312 22.641380310058594 135.3181610107422" stroke-width="0.0" fill="rgb(254, 254, 254)" opacity="0.99060285"/>
    <path d="M 179.31016540527344 38.70857238769531 C 178.77330017089844 47.37385177612305 173.4159393310547 52.93516159057617 165.67442321777344 54.96149826049805 C 156.718505859375 52.877113342285156 151.57989501953125 47.108436584472656 149.10452270507812 38.169837951660156 C 151.10064697265625 30.6103458404541 156.61932373046875 25.1260986328125 165.5471954345703 23.107206344604492 C 173.34075927734375 25.122623443603516 178.71099853515625 30.711498260498047 179.31016540527344 38.70857238769531" stroke-width="0.0" fill="rgb(179, 178, 182)" opacity="1.0"/>
    <path d="M 111.28646087646484 223.5463104248047 C 110.46546173095703 230.99830627441406 104.97785186767578 236.3748016357422 96.95722961425781 237.63645935058594 C 89.5 235.99038696289062 84.0096206665039 230.5 82.05130004882812 223.07923889160156 C 84.30135345458984 215.90647888183594 90.0415267944336 210.68862915039062 97.5871353149414 208.7444305419922 C 104.3957748413086 210.05429077148438 109.51133728027344 215.76593017578125 111.28646087646484 223.5463104248047" stroke-width="0.0" fill="rgb(254, 254, 251)" opacity="0.99031794"/>
    <path d="M 68.91668701171875 43.88151931762695 C 66.92025756835938 51.4245491027832 61.43169403076172 56.9370231628418 52.483543395996094 58.90301513671875 C 44.536197662353516 56.953495025634766 39.03272247314453 51.469017028808594 37.01125717163086 42.667442321777344 C 39.0341796875 34.53292465209961 44.53607940673828 29.041183471679688 52.05824279785156 27.03244400024414 C 60.4991340637207 30.00986671447754 65.93672943115234 35.51585388183594 68.91668701171875 43.88151931762695" stroke-width="0.0" fill="rgb(101, 102, 103)" opacity="1.0"/>
    <path d="M 31.044963836669922 42.76160430908203 C 30.898509979248047 51.289512634277344 24.92768096923828 55.90778350830078 17.60494613647461 58.85441207885742 C 9.5 55.990379333496094 4.009618759155273 50.5 2.3827431201934814 43.301170349121094 C 4.497767925262451 35.91877746582031 9.84571647644043 30.22909927368164 16.715578079223633 27.313426971435547 C 25.208900451660156 29.380294799804688 30.886573791503906 34.685054779052734 31.044963836669922 42.76160430908203" stroke-width="0.0" fill="rgb(249, 249, 249)" opacity="1.0"/>
    <path d="M 56.309085845947266 206.59056091308594 C 54.990379333496094 213.5 49.5 218.99038696289062 41.99889373779297 221.001220703125 C 34.49728775024414 218.993408203125 29.00748062133789 213.50244140625 27.000045776367188 206.00074768066406 C 29.009876251220703 198.5001983642578 34.50019073486328 193.00987243652344 41.454734802246094 191.582275390625 C 48.75581359863281 193.7721710205078 54.22684860229492 199.2435760498047 56.309085845947266 206.59056091308594" stroke-width="0.0" fill="rgb(249, 249, 250)" opacity="1.0"/>
    <path d="M 237.34925842285156 197.4790496826172 C 235.99085998535156 204.50021362304688 230.50009155273438 209.9904327392578 222.95013427734375 212.11361694335938 C 215.58180236816406 210.00624084472656 210.17054748535156 204.36883544921875 208.0684051513672 196.93392944335938 C 210.00961303710938 189.5 215.5 184.00961303710938 222.84268188476562 182.1336212158203 C 230.05311584472656 184.40853881835938 235.3980255126953 190.00900268554688 237.34925842285156 197.4790496826172" stroke-width="0.0" fill="rgb(253, 254, 254)" opacity="0.990905"/>
    <path d="M 81.89763641357422 28.828298568725586 C 79.88229370117188 36.3270378112793 74.12135314941406 40.266849517822266 65.2829818725586 42.071075439453125 C 59.339046478271484 40.153804779052734 53.869354248046875 34.653663635253906 50.08608627319336 27.09415626525879 C 52.087059020996094 19.594797134399414 57.602195739746094 14.107794761657715 65.22652435302734 12.195860862731934 C 73.5 15.009618759155273 78.9903793334961 20.5 81.89763641357422 28.828298568725586" stroke-width="0.0" fill="rgb(144, 144, 148)" opacity="0.9900264"/>
    <path d="M 133.9923553466797 182.99118041992188 C 131.96090698242188 190.46595764160156 126.46138763427734 195.9457550048828 118.9825210571289 197.97967529296875 C 111.5 195.99038696289062 106.0096206665039 190.5 104.0 183.0 C 106.0096206665039 175.5 111.5 170.00961303710938 119.0 168.0 C 126.5 170.00961303710938 131.99038696289062 175.5 133.9923553466797 182.99118041992188" stroke-width="0.0" fill="rgb(254, 254, 254)" opacity="0.9909514"/>
    <path d="M 38.9751091003418 172.0804901123047 C 36.990379333496094 179.5 31.5 184.99038696289062 24.053319931030273 186.96517944335938 C 16.81064796447754 184.77825927734375 11.629241943359375 179.04287719726562 9.83536148071289 171.61354064941406 C 11.022724151611328 164.14515686035156 16.15489387512207 159.07763671875 24.01883888244629 157.77734375 C 31.032621383666992 159.55665588378906 36.686988830566406 164.8933868408203 38.9751091003418 172.0804901123047" stroke-width="0.0" fill="rgb(254, 254, 254)" opacity="0.9902558"/>
    <path d="M 206.9336700439453 79.12115478515625 C 204.2154083251953 87.89678192138672 199.13287353515625 93.79194641113281 191.86236572265625 95.0211410522461 C 183.788330078125 92.46061706542969 178.05084228515625 87.40560150146484 175.9515380859375 79.97775268554688 C 178.10659790039062 72.77496337890625 183.92242431640625 67.57129669189453 191.722412109375 65.40374755859375 C 199.31561279296875 66.19874572753906 204.91038513183594 71.63314056396484 206.9336700439453 79.12115478515625" stroke-width="0.0" fill="rgb(105, 107, 109)" opacity="0.9900219"/>
    <path d="M 63.959564208984375 166.07061767578125 C 60.990379333496094 174.5 55.5 179.99038696289062 48.0 182.0 C 40.5 179.99038696289062 35.009620666503906 174.5 33.5867919921875 166.79701232910156 C 34.20112609863281 158.61605834960938 39.57744216918945 153.06011962890625 47.136016845703125 151.6238555908203 C 56.42705535888672 153.0897216796875 61.9496955871582 158.5580596923828 63.959564208984375 166.07061767578125" stroke-width="0.0" fill="rgb(215, 215, 215)" opacity="1.0"/>
    <path d="M 245.73797607421875 173.2164764404297 C 243.87832641601562 180.29689025878906 238.13368225097656 185.43373107910156 230.4854278564453 187.27993774414062 C 223.7579803466797 185.84095764160156 218.56480407714844 180.1016387939453 215.5570526123047 173.1473846435547 C 218.5013427734375 165.9917755126953 223.99647521972656 160.5203094482422 230.88442993164062 157.5686798095703 C 238.12417602539062 160.35366821289062 243.55062866210938 165.9049835205078 245.73797607421875 173.2164764404297" stroke-width="0.0" fill="rgb(254, 254, 250)" opacity="0.9902391"/>
    <path d="M 220.0474395751953 194.1080322265625 C 218.4796600341797 202.1908721923828 213.36203002929688 207.92840576171875 205.97531127929688 209.79856872558594 C 198.4735565185547 206.0133819580078 192.9887237548828 200.5255584716797 190.97677612304688 193.04371643066406 C 191.1031494140625 185.56275939941406 196.55165100097656 180.05421447753906 204.10887145996094 178.09408569335938 C 212.5 181.00961303710938 217.99038696289062 186.5 220.0474395751953 194.1080322265625" stroke-width="0.0" fill="rgb(27, 26, 27)" opacity="0.99000376"/>
    <path d="M 265.98388671875 103.0303955078125 C 263.9903869628906 110.5 258.5 115.9903793334961 250.9999542236328 117.99994659423828 C 243.49290466308594 115.99254608154297 237.9406280517578 110.526611328125 235.7305450439453 103.06378173828125 C 238.00286865234375 95.49796295166016 243.49978637695312 90.00955963134766 250.54318237304688 88.61965942382812 C 258.09796142578125 90.57421875 263.837158203125 95.7579345703125 265.98388671875 103.0303955078125" stroke-width="0.0" fill="rgb(253, 253, 254)" opacity="0.9913032"/>
    <path d="M 136.6835174560547 27.407344818115234 C 133.99038696289062 35.5 128.5 40.990379333496094 121.8177490234375 42.20587921142578 C 114.45549011230469 40.04793167114258 108.98906707763672 34.53165817260742 106.9848861694336 27.03631019592285 C 108.10595703125 19.956085205078125 112.84025573730469 14.298296928405762 120.09717559814453 13.970104217529297 C 128.5507354736328 15.762924194335938 134.73814392089844 19.86175537109375 136.6835174560547 27.407344818115234" stroke-width="0.0" fill="rgb(249, 249, 250)" opacity="0.99001485"/>
    <path d="M 62.03006362915039 215.95335388183594 C 60.990379333496094 222.5 55.5 227.99038696289062 47.898353576660156 230.22328186035156 C 41.258880615234375 227.53883361816406 35.96128845214844 221.6044921875 33.9920654296875 215.89852905273438 C 35.99104690551758 208.47796630859375 41.478851318359375 202.99302673339844 48.97727584838867 200.982421875 C 54.54954528808594 202.8392333984375 60.01369094848633 208.46766662597656 62.03006362915039 215.95335388183594" stroke-width="0.0" fill="rgb(6, 6, 7)" opacity="0.99000216"/>
    <path d="M 95.39371490478516 86.0894546508789 C 93.08688354492188 93.67609405517578 87.80109405517578 99.44254302978516 80.68985748291016 102.00286102294922 C 72.83476257324219 100.53459167480469 67.21070861816406 95.23948669433594 65.05247497558594 86.0762710571289 C 67.04167175292969 78.53425598144531 72.5368423461914 73.05189514160156 80.43470764160156 72.9323501586914 C 88.63761138916016 73.95825958251953 94.6864013671875 79.06245422363281 95.39371490478516 86.0894546508789" stroke-width="0.0" fill="rgb(7, 7, 7)" opacity="0.9900034"/>
    <path d="M 38.02892303466797 142.57261657714844 C 37.79615783691406 150.27520751953125 32.23567199707031 155.66586303710938 24.386016845703125 157.8596649169922 C 16.80254364013672 154.83946228027344 11.488184928894043 149.10618591308594 9.382828712463379 141.75108337402344 C 11.37210750579834 135.0498504638672 17.236766815185547 129.86795043945312 24.457990646362305 127.9642105102539 C 30.68307876586914 129.90478515625 37.18324279785156 135.1400146484375 38.02892303466797 142.57261657714844" stroke-width="0.0" fill="rgb(250, 250, 250)" opacity="1.0"/>
    <path d="M 109.43631744384766 70.51701354980469 C 107.80069732666016 78.35413360595703 102.38129425048828 83.8941421508789 94.47472381591797 85.85523986816406 C 86.05171203613281 83.6693115234375 81.82733917236328 76.99269104003906 79.98118591308594 69.14664459228516 C 80.23117065429688 61.81800842285156 86.88580322265625 57.85831069946289 94.81782531738281 55.901756286621094 C 101.5 57.009620666503906 106.9903793334961 62.5 109.43631744384766 70.51701354980469" stroke-width="0.0" fill="rgb(21, 20, 21)" opacity="0.9900056"/>
    <path d="M 217.00888061523438 168.0477752685547 C 215.01699829101562 175.5452117919922 209.5715789794922 181.0952911376953 202.0651092529297 184.93031311035156 C 194.5445556640625 182.9564971923828 189.07875061035156 177.4442901611328 187.23158264160156 169.79212951660156 C 190.03277587890625 161.51780700683594 195.51559448242188 156.02513122558594 203.82403564453125 153.20123291015625 C 211.44557189941406 155.06948852539062 216.90821838378906 160.55789184570312 217.00888061523438 168.0477752685547" stroke-width="0.0" fill="rgb(8, 8, 9)" opacity="0.9900029"/>
    <path d="M 183.75694274902344 5.653677463531494 C 181.2601776123047 12.67263126373291 175.5946044921875 18.039514541625977 168.04298400878906 20.01828956604004 C 160.56253051757812 19.939361572265625 156.6221923828125 14.401276588439941 154.9899444580078 6.850521087646484 C 156.96180725097656 -0.596689760684967 162.3097381591797 -6.305990695953369 169.26962280273438 -8.835164070129395 C 176.5 -6.990381240844727 181.99038696289062 -1.5 183.75694274902344 5.653677463531494" stroke-width="0.0" fill="rgb(30, 32, 32)" opacity="0.9900042"/>
    <path d="M 202.14376831054688 8.650002479553223 C 199.84390258789062 16.39453125 194.4143524169922 21.90988540649414 186.11859130859375 24.908414840698242 C 178.5625762939453 22.937061309814453 173.063232421875 17.436994552612305 171.26480102539062 9.953088760375977 C 174.95010375976562 2.409255266189575 180.3712921142578 -3.1649649143218994 187.5862579345703 -5.608303546905518 C 194.99176025390625 -4.449815273284912 200.53851318359375 0.9812975525856018 202.14376831054688 8.650002479553223" stroke-width="0.0" fill="rgb(161, 157, 161)" opacity="0.9903423"/>
    <path d="M 192.98008728027344 193.84774780273438 C 190.8820037841797 201.2547607421875 184.9650421142578 206.24139404296875 177.03323364257812 208.01246643066406 C 169.50035095214844 205.9898223876953 164.00973510742188 200.49978637695312 161.44302368164062 192.40826416015625 C 163.1753387451172 184.6411590576172 168.6159210205078 179.0983428955078 176.18687438964844 178.97206115722656 C 184.6118621826172 180.44387817382812 190.7974090576172 184.9000244140625 192.98008728027344 193.84774780273438" stroke-width="0.0" fill="rgb(249, 249, 249)" opacity="1.0"/>
    <path d="M 42.97792053222656 89.06206512451172 C 40.6014289855957 96.99668884277344 33.8365364074707 102.3331069946289 26.633594512939453 104.67945098876953 C 19.5 102.9903793334961 14.009618759155273 97.5 11.928576469421387 89.87313842773438 C 13.538509368896484 81.85591125488281 18.685020446777344 76.10034942626953 27.877519607543945 74.0143814086914 C 35.455448150634766 76.04879760742188 40.95939254760742 81.54075622558594 42.97792053222656 89.06206512451172" stroke-width="0.0" fill="rgb(43, 43, 42)" opacity="0.9900089"/>
    <path d="M 54.348609924316406 6.887727737426758 C 53.889251708984375 14.288956642150879 48.1148796081543 19.63319206237793 39.0807991027832 21.98411750793457 C 33.41230010986328 19.862503051757812 27.985963821411133 12.5394868850708 25.991479873657227 5.135474681854248 C 27.961929321289062 -0.5907869338989258 33.3354606628418 -6.252132415771484 40.32320785522461 -8.743552207946777 C 47.17271041870117 -6.7677435874938965 52.33938217163086 -1.015676498413086 54.348609924316406 6.887727737426758" stroke-width="0.0" fill="rgb(14, 14, 14)" opacity="0.9900018"/>
    <path d="M 22.016145706176758 81.266845703125 C 20.0526065826416 88.64820861816406 14.921964645385742 95.17594146728516 8.231888771057129 97.25531768798828 C 0.5 94.9903793334961 -4.990381240844727 89.5 -6.9773359298706055 82.01385498046875 C -5.032552719116211 74.31204223632812 0.08643445372581482 68.380615234375 7.9353766441345215 66.14179229736328 C 16.079248428344727 68.20382690429688 20.074932098388672 75.24830627441406 22.016145706176758 81.266845703125" stroke-width="0.0" fill="rgb(249, 249, 249)" opacity="0.99001"/>
    <path d="M 158.03831481933594 165.9335479736328 C 156.99038696289062 172.5 151.5 177.99038696289062 144.0 180.0 C 136.5 177.99038696289062 131.00961303710938 172.5 129.31573486328125 164.95213317871094 C 130.51705932617188 156.9120635986328 136.0370635986328 152.5596466064453 143.52931213378906 150.96746826171875 C 150.55447387695312 152.9462432861328 156.02645874023438 158.4542694091797 158.03831481933594 165.9335479736328" stroke-width="0.0" fill="rgb(249, 249, 250)" opacity="0.9900051"/>
    <path d="M 144.4092559814453 36.46775436401367 C 142.99038696289062 43.5 137.5 48.990379333496094 130.2521209716797 51.47265625 C 123.25867462158203 48.26588821411133 117.84640502929688 42.705833435058594 115.92501068115234 35.80025100708008 C 117.7677993774414 28.97686004638672 121.9866943359375 22.229358673095703 129.41502380371094 20.240863800048828 C 136.9357147216797 23.346939086914062 142.3361358642578 29.126232147216797 144.4092559814453 36.46775436401367" stroke-width="0.0" fill="rgb(183, 183, 182)" opacity="0.99003416"/>
    <path d="M 227.2399139404297 87.62091064453125 C 224.99038696289062 95.5 219.5 100.9903793334961 212.0 103.0 C 204.5 100.9903793334961 199.00961303710938 95.5 197.48960876464844 88.40740966796875 C 199.20762634277344 79.73313903808594 203.58880615234375 74.04995727539062 211.15853881835938 72.01502990722656 C 220.41445922851562 74.05745697021484 225.75636291503906 79.64590454101562 227.2399139404297 87.62091064453125" stroke-width="0.0" fill="rgb(6, 7, 7)" opacity="0.9900597"/>
    <path d="M 247.09226989746094 245.8058624267578 C 244.9906005859375 253.50013732910156 239.50010681152344 258.990478515625 231.9998016357422 261.0002136230469 C 224.49891662597656 258.9912109375 219.0071258544922 253.50157165527344 217.18917846679688 246.10879516601562 C 219.1723175048828 238.6212921142578 224.63084411621094 233.1964874267578 232.4581756591797 230.46075439453125 C 240.10543823242188 232.35435485839844 245.49264526367188 237.94032287597656 247.09226989746094 245.8058624267578" stroke-width="0.0" fill="rgb(249, 249, 249)" opacity="0.9903264"/>
    <path d="M 32.95860290527344 253.07861328125 C 29.97299575805664 261.49383544921875 24.498567581176758 266.9898681640625 16.99999237060547 268.9999694824219 C 9.501208305358887 266.9899597167969 4.024657726287842 261.49468994140625 1.8476508855819702 254.3115234375 C 4.631024360656738 246.8508758544922 9.185680389404297 240.37159729003906 16.429832458496094 238.2859649658203 C 25.339303970336914 240.3594970703125 30.937395095825195 245.59178161621094 32.95860290527344 253.07861328125" stroke-width="0.0" fill="rgb(249, 249, 249)" opacity="0.9905458"/>
    <path d="M 73.92346954345703 120.8672103881836 C 71.93214416503906 128.40093994140625 66.3563003540039 133.83941650390625 58.76532745361328 135.94667053222656 C 49.592002868652344 133.89857482910156 44.09062576293945 128.41102600097656 42.07831573486328 120.89555358886719 C 45.87410354614258 113.37364959716797 51.37871551513672 107.89073181152344 58.927886962890625 104.07035064697266 C 66.42810821533203 106.0628433227539 71.91401672363281 111.58106231689453 73.92346954345703 120.8672103881836" stroke-width="0.0" fill="rgb(77, 75, 77)" opacity="0.9900032"/>
    <path d="M 212.0 127.0 C 209.99038696289062 134.5 204.5 139.99038696289062 197.0 142.0 C 189.5 139.99038696289062 184.00961303710938 134.5 181.59033203125 126.55219268798828 C 183.2601776123047 118.69994354248047 188.63523864746094 113.09062194824219 196.09959411621094 111.04524993896484 C 204.50161743164062 114.00395965576172 209.99041748046875 119.49991607666016 212.0 127.0" stroke-width="0.0" fill="rgb(194, 194, 195)" opacity="1.0"/>
    <path d="M 166.94522094726562 174.094970703125 C 164.78311157226562 183.13453674316406 158.92596435546875 188.25096130371094 151.05162048339844 190.0270538330078 C 143.5 187.99038696289062 138.00961303710938 182.5 136.10055541992188 175.00875854492188 C 137.7102508544922 166.95147705078125 142.75924682617188 161.15000915527344 150.8174591064453 159.0413055419922 C 159.42990112304688 161.0773162841797 164.9387969970703 166.5640106201172 166.94522094726562 174.094970703125" stroke-width="0.0" fill="rgb(215, 215, 214)" opacity="1.0"/>
    <path d="M 231.00820922851562 38.96661376953125 C 230.94618225097656 46.46886444091797 225.47479248046875 51.969818115234375 216.14268493652344 53.9802360534668 C 208.52774047851562 51.970069885253906 203.0482635498047 46.465763092041016 201.02523803710938 37.19532012939453 C 203.0719757080078 29.59785270690918 208.5943145751953 24.06651496887207 216.0373992919922 22.38306427001953 C 223.55284118652344 25.94000244140625 229.0128173828125 31.464012145996094 231.00820922851562 38.96661376953125" stroke-width="0.0" fill="rgb(19, 19, 19)" opacity="0.9900029"/>
    <path d="M 20.513370513916016 109.3397445678711 C 18.409482955932617 116.74816131591797 12.619974136352539 122.0390396118164 5.003602504730225 123.99916076660156 C -2.500091552734375 121.99056243896484 -7.990403652191162 116.50004577636719 -10.000001907348633 109.0 C -7.990381240844727 101.5 -2.5 96.0096206665039 5.0 94.0 C 12.5 96.0096206665039 17.990381240844727 101.5 20.513370513916016 109.3397445678711" stroke-width="0.0" fill="rgb(253, 253, 251)" opacity="0.9926927"/>
    <path d="M 163.2434539794922 73.95087432861328 C 162.96011352539062 81.4618911743164 157.46485900878906 86.96603393554688 148.1573028564453 88.99126434326172 C 140.5194549560547 86.9737777709961 135.02410888671875 81.4814682006836 133.00851440429688 73.952392578125 C 135.0415802001953 64.54805755615234 140.56637573242188 59.095672607421875 148.78179931640625 57.090606689453125 C 155.664306640625 60.4041633605957 161.15516662597656 66.36441040039062 163.2434539794922 73.95087432861328" stroke-width="0.0" fill="rgb(18, 18, 19)" opacity="0.9900026"/>
    <path d="M 123.61801147460938 202.74156188964844 C 121.72028350830078 210.78807067871094 117.04849243164062 216.69174194335938 109.544189453125 218.62417602539062 C 101.70486450195312 215.87017822265625 96.48643493652344 210.17396545410156 94.58856964111328 202.6450653076172 C 95.71484375 195.04067993164062 100.98677062988281 189.4775390625 108.71708679199219 187.71212768554688 C 116.5 190.00961303710938 121.9903793334961 195.5 123.61801147460938 202.74156188964844" stroke-width="0.0" fill="rgb(254, 254, 255)" opacity="0.99033666"/>
    <path d="M 152.080078125 182.91099548339844 C 149.99038696289062 190.5 144.49998474121094 195.99034118652344 137.18907165527344 197.99679565429688 C 129.9593048095703 195.50991821289062 124.38929748535156 190.0711212158203 122.11698150634766 182.85595703125 C 124.0096206665039 175.5 129.49998474121094 170.0095672607422 137.33160400390625 167.52496337890625 C 144.86952209472656 169.54310607910156 150.24586486816406 175.1988067626953 152.080078125 182.91099548339844" stroke-width="0.0" fill="rgb(254, 253, 254)" opacity="0.9909385"/>
    <path d="M 175.8804168701172 218.57229614257812 C 173.7517547607422 226.1869659423828 168.07321166992188 231.1748504638672 160.34561157226562 232.26373291015625 C 153.1614227294922 230.2554931640625 147.606201171875 224.8875732421875 145.3621063232422 217.6638946533203 C 147.00961303710938 210.49998474121094 152.49996948242188 205.00953674316406 159.99986267089844 202.9998779296875 C 167.50445556640625 205.00851440429688 173.14398193359375 210.4492645263672 175.8804168701172 218.57229614257812" stroke-width="0.0" fill="rgb(254, 254, 255)" opacity="0.99025434"/>
    <path d="M 229.0061492919922 191.98565673828125 C 226.990478515625 199.50010681152344 221.5000762939453 204.99038696289062 214.9556884765625 206.033447265625 C 207.48056030273438 204.00856018066406 201.99481201171875 198.51817321777344 199.99305725097656 191.0374755859375 C 200.12396240234375 183.5379180908203 205.52442932128906 178.0265655517578 213.03123474121094 176.01556396484375 C 221.85545349121094 178.45401000976562 227.0831756591797 184.31704711914062 229.0061492919922 191.98565673828125" stroke-width="0.0" fill="rgb(249, 249, 250)" opacity="0.9900043"/>
    <path d="M 135.8704833984375 174.178955078125 C 133.99044799804688 181.50015258789062 128.5001983642578 186.99061584472656 121.00008392333984 189.0000762939453 C 113.5 186.99038696289062 108.0096206665039 181.5 105.53728485107422 173.54525756835938 C 107.29966735839844 165.79388427734375 112.7983169555664 160.3153533935547 120.3783187866211 159.3336639404297 C 127.85929107666016 161.71914672851562 133.51211547851562 167.06939697265625 135.8704833984375 174.178955078125" stroke-width="0.0" fill="rgb(254, 254, 254)" opacity="0.9904515"/>
    <path d="M 56.98442840576172 177.23855590820312 C 55.35597229003906 184.96009826660156 50.047698974609375 190.6304473876953 42.45347213745117 192.5436248779297 C 34.500274658203125 189.98976135253906 29.009672164916992 184.49989318847656 26.96805191040039 176.95916748046875 C 28.886743545532227 169.3826141357422 34.642250061035156 164.49880981445312 41.19548797607422 162.95849609375 C 48.72792434692383 164.88250732421875 54.50770568847656 170.12716674804688 56.98442840576172 177.23855590820312" stroke-width="0.0" fill="rgb(250, 250, 250)" opacity="0.9900792"/>
    <path d="M 253.3909149169922 88.43136596679688 C 251.9824981689453 95.49759674072266 246.49972534179688 100.99026489257812 238.54470825195312 103.64075469970703 C 231.15313720703125 101.51879119873047 225.90567016601562 95.69464111328125 223.99134826660156 88.01763153076172 C 226.00961303710938 80.5 231.5 75.0096206665039 239.2086639404297 72.7089614868164 C 246.4178924560547 74.72679901123047 251.4254150390625 80.87312316894531 253.3909149169922 88.43136596679688" stroke-width="0.0" fill="rgb(255, 254, 255)" opacity="0.99016243"/>
    <path d="M 98.92376708984375 101.12059783935547 C 95.9903793334961 109.5 90.5 114.9903793334961 82.23468017578125 117.75914764404297 C 74.57408905029297 115.90483856201172 69.05619049072266 110.43895721435547 67.03395080566406 102.82469177246094 C 69.10029602050781 93.60195922851562 74.59590148925781 88.08646392822266 82.5003890991211 86.11469268798828 C 91.4109115600586 88.09088134765625 96.92594146728516 93.58233642578125 98.92376708984375 101.12059783935547" stroke-width="0.0" fill="rgb(102, 102, 101)" opacity="1.0"/>
    <path d="M 225.34210205078125 90.55669403076172 C 222.99038696289062 98.5 217.5 103.9903793334961 210.65586853027344 105.32626342773438 C 203.305908203125 103.15386962890625 196.6580352783203 97.78568267822266 194.14756774902344 91.584716796875 C 196.2301025390625 82.64346313476562 201.6023712158203 77.08171844482422 210.60891723632812 75.10626983642578 C 218.39437866210938 77.07977294921875 223.77227783203125 82.65159606933594 225.34210205078125 90.55669403076172" stroke-width="0.0" fill="rgb(118, 119, 121)" opacity="0.9900515"/>
    <path d="M 215.99327087402344 228.01121520996094 C 213.99038696289062 235.5 208.5 240.99038696289062 200.9696044921875 243.0197296142578 C 193.35418701171875 241.10386657714844 187.96327209472656 235.6329803466797 185.29090881347656 227.57394409179688 C 187.36004638671875 219.9147491455078 192.9386749267578 214.41831970214844 200.6143035888672 212.3037567138672 C 208.45547485351562 214.96923828125 213.94369506835938 220.5645294189453 215.99327087402344 228.01121520996094" stroke-width="0.0" fill="rgb(254, 255, 255)" opacity="0.99034905"/>
    <path d="M 25.084503173828125 100.64083099365234 C 23.990381240844727 108.5 18.5 113.9903793334961 11.0 116.0 C 3.5 113.9903793334961 -1.9903810024261475 108.5 -3.9998981952667236 101.00009155273438 C -1.9901098012924194 93.5002670288086 3.500281810760498 88.00994110107422 11.812579154968262 85.19544219970703 C 19.438154220581055 87.07689666748047 24.927343368530273 92.56027221679688 25.084503173828125 100.64083099365234" stroke-width="0.0" fill="rgb(249, 249, 250)" opacity="0.99002695"/>
    <path d="M 269.0 7.99998664855957 C 266.99017333984375 15.499383926391602 261.49609375 20.978254318237305 253.73939514160156 23.566469192504883 C 246.6076202392578 20.799715042114258 241.45596313476562 15.28304672241211 238.14341735839844 7.263618469238281 C 240.3480987548828 0.048426300287246704 246.2643280029297 -5.1112961769104 253.9816131591797 -7.008026599884033 C 261.5 -4.990381240844727 266.9903869628906 0.5 269.0 7.99998664855957" stroke-width="0.0" fill="rgb(251, 255, 255)" opacity="0.9903344"/>
    <path d="M 222.084716796875 230.84036254882812 C 220.93597412109375 237.45297241210938 215.4582061767578 242.95333862304688 207.98863220214844 244.98892211914062 C 200.50025939941406 242.9900665283203 195.0099639892578 237.49972534179688 193.00099182128906 230.00054931640625 C 195.02593994140625 222.55162048339844 200.86305236816406 217.6664276123047 208.93038940429688 215.96339416503906 C 216.27627563476562 216.09652709960938 220.1160125732422 223.11524963378906 222.084716796875 230.84036254882812" stroke-width="0.0" fill="rgb(250, 250, 250)" opacity="1.0"/>
    <path d="M 112.97785186767578 118.313232421875 C 110.9442138671875 126.44397735595703 105.43848419189453 131.92843627929688 97.84521484375 133.76315307617188 C 89.5606918334961 130.82322692871094 84.01300048828125 125.48967742919922 82.00006103515625 117.99980926513672 C 84.0096206665039 110.5 89.5 105.0096206665039 97.12863159179688 103.07117462158203 C 105.20116424560547 104.46539306640625 110.90467071533203 109.66529083251953 112.97785186767578 118.313232421875" stroke-width="0.0" fill="rgb(108, 107, 110)" opacity="1.0"/>
    <path d="M 262.22772216796875 118.26294708251953 C 260.55126953125 126.1114730834961 255.15322875976562 131.6873779296875 246.15121459960938 133.9599609375 C 240.00450134277344 131.73944091796875 234.9571533203125 124.62532806396484 232.99249267578125 118.88693237304688 C 234.97654724121094 111.43255615234375 240.36024475097656 105.73418426513672 247.2056884765625 102.93578338623047 C 254.5 105.0096206665039 259.9903869628906 110.5 262.22772216796875 118.26294708251953" stroke-width="0.0" fill="rgb(249, 249, 249)" opacity="0.99002254"/>
    <path d="M 213.62815856933594 126.40562438964844 C 211.5087127685547 135.1453857421875 206.26370239257812 140.84617614746094 198.8007049560547 142.89199829101562 C 190.49998474121094 139.99046325683594 185.00961303710938 134.5 182.539794921875 126.58628845214844 C 184.36236572265625 118.87645721435547 189.81063842773438 113.21308898925781 197.85919189453125 111.0862808227539 C 206.3743438720703 113.11897277832031 211.83689880371094 118.63941192626953 213.62815856933594 126.40562438964844" stroke-width="0.0" fill="rgb(85, 86, 86)" opacity="0.990024"/>
    <path d="M 67.79705810546875 221.1770477294922 C 64.99018096923828 229.4998779296875 59.49993133544922 234.99034118652344 52.00157165527344 236.9997100830078 C 44.63801193237305 234.94439697265625 39.80319595336914 228.95486450195312 36.05429458618164 221.0260772705078 C 38.030757904052734 213.5340118408203 43.570274353027344 209.86593627929688 52.98040771484375 207.94024658203125 C 60.469581604003906 208.0294647216797 65.93511199951172 213.54263305664062 67.79705810546875 221.1770477294922" stroke-width="0.0" fill="rgb(249, 249, 250)" opacity="0.9900024"/>
    <path d="M 156.02000427246094 47.076229095458984 C 154.0322265625 54.568199157714844 148.61854553222656 60.38640594482422 141.6998291015625 63.95738983154297 C 135.39108276367188 60.43074035644531 129.9502410888672 54.573734283447266 126.17435455322266 48.16080093383789 C 129.9571533203125 41.452842712402344 135.4604034423828 35.979488372802734 142.96112060546875 33.973331451416016 C 150.41537475585938 34.06916046142578 155.8282012939453 39.61445617675781 156.02000427246094 47.076229095458984" stroke-width="0.0" fill="rgb(49, 50, 50)" opacity="0.99000245"/>
    <path d="M 150.90985107421875 99.03621673583984 C 147.1997528076172 108.07958984375 143.33189392089844 113.88098907470703 134.0371551513672 115.9808578491211 C 126.5223617553711 113.97175598144531 121.03178405761719 108.47636413574219 119.04212951660156 100.93389892578125 C 121.09011840820312 91.55517578125 126.53565979003906 86.03116607666016 134.08102416992188 84.00968170166016 C 143.45530700683594 86.04765319824219 148.9635467529297 91.5387954711914 150.90985107421875 99.03621673583984" stroke-width="0.0" fill="rgb(42, 42, 42)" opacity="0.990008"/>
    <path d="M 165.36094665527344 188.6551971435547 C 163.9904327392578 195.50006103515625 158.50010681152344 200.9905548095703 151.00006103515625 203.0001983642578 C 143.4998016357422 200.9905242919922 138.00914001464844 195.5002899169922 135.99916076660156 187.99940490722656 C 138.00135803222656 180.47996520996094 143.46168518066406 174.9414825439453 150.09368896484375 173.95626831054688 C 157.58961486816406 175.94723510742188 163.1258544921875 181.38436889648438 165.36094665527344 188.6551971435547" stroke-width="0.0" fill="rgb(249, 249, 249)" opacity="0.99008983"/>
    <path d="M 147.593505859375 226.0389862060547 C 144.4262237548828 232.98741149902344 139.04217529296875 238.63479614257812 131.71249389648438 241.801513671875 C 123.95948791503906 239.6027069091797 119.32127380371094 233.86851501464844 116.53089141845703 225.34022521972656 C 119.23593139648438 218.94525146484375 125.04474639892578 213.62669372558594 132.35765075683594 211.29641723632812 C 139.5 213.00961303710938 144.99038696289062 218.5 147.593505859375 226.0389862060547" stroke-width="0.0" fill="rgb(254, 254, 255)" opacity="0.99017376"/>
    <path d="M 91.97760772705078 15.040580749511719 C 89.76085662841797 24.35025405883789 84.3831787109375 29.896379470825195 76.78736877441406 31.82599639892578 C 68.40776062011719 29.118675231933594 62.941070556640625 23.574451446533203 60.07320785522461 15.128478050231934 C 62.08568572998047 7.599431037902832 67.60782623291016 2.105750560760498 76.95156860351562 0.022469162940979004 C 84.47308349609375 2.03122615814209 89.96794891357422 7.527312278747559 91.97760772705078 15.040580749511719" stroke-width="0.0" fill="rgb(137, 136, 138)" opacity="1.0"/>
    <path d="M 114.00735473632812 173.06605529785156 C 112.00765991210938 180.52244567871094 106.52349090576172 186.0098114013672 99.26365661621094 188.00672912597656 C 93.45336151123047 186.01394653320312 86.07337951660156 180.69435119628906 84.01066589355469 173.42283630371094 C 86.04788970947266 165.56712341308594 91.63739013671875 161.5999298095703 100.94527435302734 159.8665313720703 C 108.4404525756836 160.04501342773438 112.04788970947266 165.74923706054688 114.00735473632812 173.06605529785156" stroke-width="0.0" fill="rgb(3, 2, 2)" opacity="0.9900012"/>
    <path d="M 128.86439514160156 198.6942901611328 C 126.7044677734375 206.10952758789062 121.02706146240234 211.47357177734375 113.21919250488281 213.20932006835938 C 105.49984741210938 210.99044799804688 100.00926208496094 205.50022888183594 97.57655334472656 197.4716033935547 C 99.17281341552734 189.60940551757812 104.57459259033203 184.05841064453125 112.09209442138672 182.06076049804688 C 120.46963500976562 185.02072143554688 125.76032257080078 190.6007080078125 128.86439514160156 198.6942901611328" stroke-width="0.0" fill="rgb(254, 254, 254)" opacity="0.99050283"/>
    <path d="M 192.71873474121094 84.5567398071289 C 191.7859344482422 92.36068725585938 186.4076385498047 97.93305206298828 178.65576171875 99.97552490234375 C 169.5699462890625 97.92949676513672 164.05361938476562 92.43803405761719 162.01609802246094 83.24840545654297 C 164.04351806640625 75.55337524414062 169.58387756347656 70.16893005371094 178.69863891601562 69.48619079589844 C 186.04739379882812 70.26043701171875 190.66629028320312 76.34223175048828 192.71873474121094 84.5567398071289" stroke-width="0.0" fill="rgb(135, 135, 134)" opacity="1.0"/>
    <path d="M 158.967529296875 134.52325439453125 C 156.9202117919922 143.41592407226562 151.4199981689453 148.92892456054688 143.9331512451172 150.8536376953125 C 136.37203979492188 147.1054229736328 130.91995239257812 141.6171417236328 128.96133422851562 134.16287231445312 C 129.1818084716797 126.5974349975586 134.57421875 121.0695571899414 143.86033630371094 119.03972625732422 C 151.45458984375 121.04771423339844 156.94615173339844 126.54776000976562 158.967529296875 134.52325439453125" stroke-width="0.0" fill="rgb(147, 146, 147)" opacity="1.0"/>
    <path d="M 127.67178344726562 0.3690732717514038 C 124.2237777709961 7.720300197601318 118.71717071533203 13.211097717285156 111.46648406982422 15.477275848388672 C 104.5 13.990381240844727 99.0096206665039 8.5 97.0 1.0 C 99.0096206665039 -6.5 104.5 -11.990381240844727 112.00008392333984 -14.000024795532227 C 119.5067367553711 -11.992447853088379 125.16278076171875 -6.559213638305664 127.67178344726562 0.3690732717514038" stroke-width="0.0" fill="rgb(252, 252, 253)" opacity="0.99141467"/>
    <path d="M 202.73289489746094 134.8343505859375 C 200.85824584960938 142.37522888183594 195.39761352539062 147.91650390625 187.1326904296875 149.96266174316406 C 178.69943237304688 147.8642120361328 173.28965759277344 142.233154296875 171.0419921875 133.11257934570312 C 173.0701446533203 125.58332824707031 178.59400939941406 120.09492492675781 186.1205291748047 119.76697540283203 C 193.62571716308594 121.90668487548828 199.1322784423828 127.36072540283203 202.73289489746094 134.8343505859375" stroke-width="0.0" fill="rgb(131, 136, 135)" opacity="1.0"/>
    <path d="M 240.0078887939453 89.064208984375 C 238.01364135742188 96.540771484375 232.5750732421875 102.20684051513672 226.59713745117188 105.83193969726562 C 218.50547790527344 102.98889923095703 213.24179077148438 97.42002868652344 211.8909912109375 89.59659576416016 C 213.75521850585938 83.2787857055664 219.34024047851562 77.90777587890625 226.83212280273438 75.89543914794922 C 233.08120727539062 77.16413116455078 238.08299255371094 83.27259063720703 240.0078887939453 89.064208984375" stroke-width="0.0" fill="rgb(11, 11, 11)" opacity="0.9900033"/>
    <path d="M 158.99461364746094 211.99070739746094 C 156.93661499023438 219.39886474609375 151.31552124023438 224.68072509765625 143.7685089111328 226.62586975097656 C 136.50015258789062 224.99026489257812 131.00982666015625 219.49981689453125 129.10960388183594 211.6571502685547 C 130.31057739257812 203.7973175048828 135.8057098388672 198.338134765625 143.62484741210938 196.6717529296875 C 151.50001525878906 199.00958251953125 156.9902801513672 204.50001525878906 158.99461364746094 211.99070739746094" stroke-width="0.0" fill="rgb(254, 254, 254)" opacity="0.99074876"/>
    <path d="M 230.65872192382812 129.35670471191406 C 227.99038696289062 137.5 222.5 142.99038696289062 215.08163452148438 145.3415069580078 C 208.2851104736328 142.34671020507812 202.9280242919922 136.6350555419922 200.97174072265625 129.16421508789062 C 202.91259765625 123.34501647949219 208.2001495361328 116.45325469970703 215.7569122314453 114.08134460449219 C 223.39903259277344 116.08818054199219 228.84408569335938 121.62293243408203 230.65872192382812 129.35670471191406" stroke-width="0.0" fill="rgb(24, 23, 23)" opacity="0.9900111"/>
    <path d="M 117.98201751708984 65.22200012207031 C 115.93790435791016 74.42433166503906 110.41741943359375 79.92366027832031 102.9564437866211 80.02832794189453 C 95.1900634765625 78.05558776855469 88.0565185546875 74.38729095458984 86.07270812988281 66.830810546875 C 88.06643676757812 57.56247329711914 93.55105590820312 52.042850494384766 102.15943908691406 50.01203536987305 C 110.46257019042969 52.03704833984375 115.95748138427734 57.540103912353516 117.98201751708984 65.22200012207031" stroke-width="0.0" fill="rgb(199, 199, 200)" opacity="0.99000615"/>
    <path d="M 101.74185943603516 237.35263061523438 C 99.6258773803711 245.11822509765625 94.13284301757812 250.66017150878906 86.35487365722656 251.6123504638672 C 78.93620300292969 249.3966827392578 73.49044036865234 244.11782836914062 71.6010971069336 236.6153564453125 C 73.04429626464844 229.51358032226562 78.50416564941406 224.0113525390625 86.00019073486328 222.00045776367188 C 93.5000991821289 224.00973510742188 99.01422882080078 229.4933319091797 101.74185943603516 237.35263061523438" stroke-width="0.0" fill="rgb(253, 254, 254)" opacity="0.99022734"/>
    <path d="M 269.0003967285156 45.00105285644531 C 267.00555419921875 52.54315185546875 261.6923522949219 58.407508850097656 254.69703674316406 60.77478790283203 C 247.07965087890625 57.35874938964844 241.5415802001953 51.95274353027344 238.19081115722656 44.48017120361328 C 240.3695068359375 37.01369857788086 246.27699279785156 32.329410552978516 254.5669403076172 29.51602554321289 C 261.53936767578125 31.8873348236084 266.99139404296875 37.496559143066406 269.0003967285156 45.00105285644531" stroke-width="0.0" fill="rgb(254, 254, 255)" opacity="0.99019974"/>
    <path d="M 126.10942840576172 2.10685658454895 C 124.28060150146484 9.851917266845703 119.00981903076172 15.675143241882324 111.76463317871094 17.83135414123535 C 104.21050262451172 14.215497016906738 98.57132720947266 8.855402946472168 96.40617370605469 1.6649484634399414 C 98.0087661743164 -5.499629497528076 103.50059509277344 -10.990152359008789 111.0000228881836 -12.999991416931152 C 118.50000762939453 -10.990384101867676 123.99049377441406 -5.500039100646973 126.10942840576172 2.10685658454895" stroke-width="0.0" fill="rgb(249, 249, 249)" opacity="0.99032426"/>
    <path d="M 105.32666778564453 120.59053039550781 C 103.21712493896484 127.1399154663086 97.48728942871094 133.6962432861328 90.60966491699219 135.9427032470703 C 81.57577514648438 133.9241943359375 76.08356475830078 128.4211883544922 75.90235900878906 120.91825866699219 C 77.85567474365234 113.20116424560547 82.97543334960938 107.30546569824219 90.05278015136719 105.03242492675781 C 97.42637634277344 107.04723358154297 102.67254638671875 112.66691589355469 105.32666778564453 120.59053039550781" stroke-width="0.0" fill="rgb(88, 87, 87)" opacity="0.99002117"/>
    <path d="M 48.8089714050293 111.25128173828125 C 46.58528137207031 120.25999450683594 41.36860275268555 125.91983795166016 33.74973678588867 127.9630355834961 C 24.561620712280273 125.9371566772461 19.078697204589844 120.43325805664062 17.108129501342773 111.45980834960938 C 19.075551986694336 103.58255004882812 24.613609313964844 98.27327728271484 33.8615837097168 97.96131134033203 C 41.36172103881836 98.12617492675781 46.85658645629883 103.64508056640625 48.8089714050293 111.25128173828125" stroke-width="0.0" fill="rgb(182, 182, 183)" opacity="1.0"/>
    <path d="M 248.0063018798828 71.676513671875 C 246.01007080078125 78.52981567382812 240.54141235351562 84.04449462890625 233.16990661621094 86.25322723388672 C 225.68240356445312 85.67908477783203 220.0521240234375 80.4114761352539 218.0328826904297 72.94552612304688 C 220.08262634277344 63.55157470703125 225.53343200683594 58.02965545654297 233.02947998046875 56.01073455810547 C 240.52711486816406 59.97799301147461 246.00750732421875 65.47750854492188 248.0063018798828 71.676513671875" stroke-width="0.0" fill="rgb(13, 12, 11)" opacity="0.99000204"/>
    <path d="M 242.0167999267578 140.19818115234375 C 240.0265655517578 147.54335021972656 234.54318237304688 153.0262908935547 227.0772705078125 155.0224151611328 C 219.57821655273438 154.89559936523438 214.12557983398438 149.41741943359375 213.94789123535156 141.85279846191406 C 215.9145965576172 134.37265014648438 221.3467559814453 128.83987426757812 228.90133666992188 125.03861236572266 C 236.1352081298828 127.08739471435547 240.04971313476562 134.36448669433594 242.0167999267578 140.19818115234375" stroke-width="0.0" fill="rgb(98, 98, 98)" opacity="0.9900037"/>
    <path d="M 127.0328369140625 145.41896057128906 C 125.06026458740234 151.57952880859375 119.57703399658203 157.05381774902344 112.03593444824219 160.9635009765625 C 104.56861114501953 158.9508819580078 99.14930725097656 153.3928985595703 97.13221740722656 145.1151123046875 C 99.09510803222656 136.57339477539062 104.56358337402344 131.0631103515625 113.86448669433594 129.032958984375 C 121.41554260253906 131.05364990234375 125.15078735351562 136.75204467773438 127.0328369140625 145.41896057128906" stroke-width="0.0" fill="rgb(129, 130, 130)" opacity="0.9900174"/>
    <path d="M 38.00175094604492 186.9998016357422 C 35.990692138671875 194.50015258789062 30.50008201599121 199.99044799804688 22.565126419067383 202.5692138671875 C 15.041902542114258 200.57276916503906 9.704957962036133 194.85887145996094 7.399538040161133 187.0254364013672 C 10.04987907409668 179.71156311035156 15.75594425201416 174.2530517578125 23.088062286376953 172.07391357421875 C 30.50065040588379 174.0089569091797 35.9913444519043 179.499267578125 38.00175094604492 186.9998016357422" stroke-width="0.0" fill="rgb(254, 254, 254)" opacity="0.9904944"/>
    <path d="M 71.97075653076172 177.76220703125 C 69.97029113769531 185.4738006591797 64.472412109375 190.96759033203125 56.97661590576172 192.97830200195312 C 49.48074722290039 189.00991821289062 43.99596405029297 183.51718139648438 41.99273681640625 176.03134155273438 C 42.084285736083984 168.5398712158203 47.528865814208984 163.03097534179688 55.37199783325195 161.01092529296875 C 64.4731674194336 163.03219604492188 69.96823120117188 168.52658081054688 71.97075653076172 177.76220703125" stroke-width="0.0" fill="rgb(3, 2, 3)" opacity="0.9900015"/>
    <path d="M 104.46257019042969 110.50149536132812 C 103.40913391113281 117.68138885498047 97.48662567138672 122.95844268798828 89.74413299560547 125.79349517822266 C 81.82669067382812 123.68352508544922 76.27686309814453 118.18799591064453 74.31582641601562 110.63630676269531 C 76.84809112548828 102.15621948242188 82.03790283203125 96.4344253540039 90.71955108642578 94.13732147216797 C 98.33213806152344 96.1288070678711 103.44651794433594 101.7496337890625 104.46257019042969 110.50149536132812" stroke-width="0.0" fill="rgb(111, 112, 112)" opacity="1.0"/>
    <path d="M 231.02381896972656 104.96348571777344 C 230.5484619140625 112.02816772460938 225.06097412109375 117.60393524169922 217.8324432373047 118.02115631103516 C 210.05047607421875 116.15914916992188 203.42747497558594 111.85745239257812 202.82994079589844 104.8720703125 C 204.94419860839844 97.42189025878906 210.42005920410156 91.94084930419922 216.08230590820312 89.99079132080078 C 223.53347778320312 91.98265838623047 229.01541137695312 97.46751403808594 231.02381896972656 104.96348571777344" stroke-width="0.0" fill="rgb(238, 237, 237)" opacity="0.9900025"/>
  </g>
</svg>
