<?xml version="1.0" ?>
<svg xmlns="http://www.w3.org/2000/svg" version="1.1" width="256" height="256">
  <defs/>
  <g>
    <path d="M 177.83338928222656 29.8714542388916 C 175.84320068359375 37.26368713378906 170.2017364501953 42.71820068359375 161.6071014404297 44.527000427246094 C 153.77671813964844 42.79247283935547 148.2753448486328 37.18824005126953 146.15032958984375 29.79008674621582 C 149.801025390625 22.28407859802246 155.2946014404297 16.831716537475586 162.78009033203125 13.24909496307373 C 169.14842224121094 15.755581855773926 174.22491455078125 22.110322952270508 177.83338928222656 29.8714542388916" stroke-width="0.0" fill="rgb(204, 204, 204)" opacity="0.99002975"/>
    <path d="M 87.18019104003906 233.8223419189453 C 85.10753631591797 241.73068237304688 79.94762420654297 247.64942932128906 71.26385498046875 249.93551635742188 C 63.698734283447266 247.8584747314453 58.245826721191406 242.2549285888672 56.33806228637695 234.55458068847656 C 58.64756393432617 225.97244262695312 63.79411315917969 220.17539978027344 71.25572967529297 218.0848846435547 C 80.07969665527344 220.34323120117188 85.4410400390625 225.99195861816406 87.18019104003906 233.8223419189453" stroke-width="0.0" fill="rgb(203, 203, 203)" opacity="0.9904144"/>
    <path d="M 156.18016052246094 49.811607360839844 C 153.99038696289062 57.5 148.5 62.990379333496094 141.0 65.0 C 133.5 62.990379333496094 128.00961303710938 57.5 125.30481719970703 49.36668014526367 C 127.19991302490234 41.7107048034668 132.7064208984375 36.18715286254883 140.4735870361328 34.168182373046875 C 149.07176208496094 36.34559631347656 154.43260192871094 42.00300598144531 156.18016052246094 49.811607360839844" stroke-width="0.0" fill="rgb(204, 204, 205)" opacity="0.99077225"/>
    <path d="M 74.80559539794922 72.16791534423828 C 71.9903793334961 80.5 66.5 85.9903793334961 59.0 88.0 C 51.5 85.9903793334961 46.009620666503906 80.5 43.98674774169922 72.96693420410156 C 45.763145446777344 65.04418182373047 50.76906204223633 59.134517669677734 59.948516845703125 57.01555633544922 C 67.47035217285156 59.029815673828125 72.93842315673828 64.54024505615234 74.80559539794922 72.16791534423828" stroke-width="0.0" fill="rgb(16, 16, 16)" opacity="0.99013966"/>
    <path d="M 102.36662292480469 57.55797576904297 C 100.9917221069336 64.50403594970703 95.52059936523438 70.04949188232422 87.12991333007812 72.9471206665039 C 79.61453247070312 70.87776184082031 74.05355834960938 65.42180633544922 72.01200103759766 56.15287399291992 C 74.04087829589844 48.5543327331543 79.59182739257812 43.17581558227539 87.43991088867188 42.903629302978516 C 94.73014831542969 44.810482025146484 100.22969818115234 50.255462646484375 102.36662292480469 57.55797576904297" stroke-width="0.0" fill="rgb(127, 127, 127)" opacity="1.0"/>
    <path d="M 82.97998809814453 145.0688018798828 C 80.8862075805664 154.3677520751953 75.36286926269531 159.87269592285156 67.68010711669922 161.86000061035156 C 58.90484619140625 159.68014526367188 53.60857391357422 154.0019989013672 51.06780242919922 145.08914184570312 C 53.04731750488281 137.54302978515625 58.54282760620117 132.04637145996094 67.3291244506836 130.0216522216797 C 75.46439361572266 132.04248046875 80.96566772460938 137.53221130371094 82.97998809814453 145.0688018798828" stroke-width="0.0" fill="rgb(147, 147, 147)" opacity="1.0"/>
    <path d="M 222.0 190.0 C 219.99038696289062 197.5 214.5 202.99038696289062 207.0 205.0 C 199.5 202.99038696289062 194.00961303710938 197.5 192.0 190.0 C 194.00961303710938 182.5 199.5 177.00961303710938 207.0 175.0 C 214.5 177.00961303710938 219.99038696289062 182.5 222.0 190.0" stroke-width="0.0" fill="rgb(72, 72, 71)" opacity="1.0"/>
    <path d="M 187.99998474121094 245.0013885498047 C 185.99038696289062 252.5 180.5 257.9903869628906 173.0 260.0 C 165.5 257.9903869628906 160.00961303710938 252.5 158.0 245.0 C 160.00961303710938 237.5 165.5 232.00961303710938 172.99908447265625 230.00067138671875 C 180.49551391601562 232.01312255859375 185.98486328125 237.50514221191406 187.99998474121094 245.0013885498047" stroke-width="0.0" fill="rgb(201, 201, 201)" opacity="0.99703676"/>
    <path d="M 222.0514373779297 201.18734741210938 C 220.34182739257812 209.12667846679688 215.41078186035156 214.95872497558594 208.9324493408203 216.04481506347656 C 201.4591827392578 214.0230712890625 195.9634552001953 208.54566955566406 193.89114379882812 201.12098693847656 C 195.0203399658203 194.5139923095703 200.51708984375 189.03048706054688 208.00778198242188 187.0080108642578 C 215.49942016601562 189.00978088378906 220.93321228027344 194.51658630371094 222.0514373779297 201.18734741210938" stroke-width="0.0" fill="rgb(39, 39, 39)" opacity="0.99000555"/>
    <path d="M 196.0 173.0 C 193.99038696289062 180.5 188.5 185.99038696289062 181.0 188.0 C 173.5 185.99038696289062 168.00961303710938 180.5 166.0 173.0 C 168.00961303710938 165.5 173.5 160.00961303710938 181.0 158.0 C 188.5 160.00961303710938 193.99038696289062 165.5 196.0 173.0" stroke-width="0.0" fill="rgb(31, 30, 30)" opacity="1.0"/>
    <path d="M 72.0 81.0 C 69.9903793334961 88.5 64.5 93.9903793334961 57.0 96.0 C 49.5 93.9903793334961 44.009620666503906 88.5 42.0 81.0 C 44.009620666503906 73.5 49.5 68.0096206665039 57.0 66.0 C 64.5 68.0096206665039 69.9903793334961 73.5 72.0 81.0" stroke-width="0.0" fill="rgb(7, 7, 7)" opacity="1.0"/>
    <path d="M 66.89078521728516 73.07376098632812 C 64.9903793334961 80.5 59.5 85.9903793334961 52.0 88.0 C 44.5 85.9903793334961 39.009620666503906 80.5 37.0 73.0 C 39.009620666503906 65.5 44.5 60.009620666503906 52.895751953125 57.04104232788086 C 60.2082405090332 59.13682556152344 64.99955749511719 65.16338348388672 66.89078521728516 73.07376098632812" stroke-width="0.0" fill="rgb(6, 5, 4)" opacity="1.0"/>
    <path d="M 125.0 96.0 C 122.9903793334961 103.5 117.5 108.9903793334961 110.0 111.0 C 102.5 108.9903793334961 97.0096206665039 103.5 95.0 96.0 C 97.0096206665039 88.5 102.5 83.0096206665039 110.0 81.0 C 117.5 83.0096206665039 122.9903793334961 88.5 125.0 96.0" stroke-width="0.0" fill="rgb(82, 83, 82)" opacity="1.0"/>
    <path d="M 156.0 144.0 C 153.99038696289062 151.5 148.5 156.99038696289062 141.0 159.0 C 133.5 156.99038696289062 128.00961303710938 151.5 126.0 144.0 C 128.00961303710938 136.5 133.5 131.00961303710938 141.0 129.0 C 148.5 131.00961303710938 153.99038696289062 136.5 156.0 144.0" stroke-width="0.0" fill="rgb(8, 7, 7)" opacity="1.0"/>
    <path d="M 160.67999267578125 225.399658203125 C 157.99038696289062 233.5 152.5 238.99038696289062 145.0 241.0 C 137.5 238.99038696289062 132.00961303710938 233.5 129.7606964111328 225.76718139648438 C 131.5060272216797 217.93399047851562 136.83799743652344 212.24368286132812 144.64913940429688 210.14308166503906 C 153.25592041015625 212.22691345214844 158.76963806152344 217.7454071044922 160.67999267578125 225.399658203125" stroke-width="0.0" fill="rgb(203, 204, 204)" opacity="0.99079376"/>
    <path d="M 134.0 145.0 C 131.99038696289062 152.5 126.5 157.99038696289062 119.0 160.0 C 111.5 157.99038696289062 106.0096206665039 152.5 103.25555419921875 144.26881408691406 C 105.12117767333984 136.61000061035156 110.60450744628906 131.104248046875 118.21415710449219 129.1829376220703 C 126.5 132.00961303710938 131.99038696289062 137.5 134.0 145.0" stroke-width="0.0" fill="rgb(164, 163, 162)" opacity="1.0"/>
    <path d="M 165.93099975585938 107.64408874511719 C 163.7494354248047 114.98973846435547 157.57150268554688 119.94779205322266 149.9753875732422 121.98348236083984 C 142.5 119.9903793334961 137.00961303710938 114.5 135.0 107.0 C 137.00961303710938 99.5 142.5 94.0096206665039 150.00062561035156 91.99979400634766 C 157.53164672851562 93.99903106689453 163.37265014648438 99.33354187011719 165.93099975585938 107.64408874511719" stroke-width="0.0" fill="rgb(31, 30, 30)" opacity="0.99021834"/>
    <path d="M 60.34803771972656 72.46581268310547 C 58.990379333496094 79.5 53.5 84.9903793334961 45.816097259521484 87.3194351196289 C 38.369384765625 85.22869110107422 32.977298736572266 79.56502532958984 30.997529983520508 72.005126953125 C 33.009620666503906 64.5 38.5 59.009620666503906 45.84059143066406 57.16082763671875 C 53.08009338378906 59.38998031616211 58.42502975463867 64.98037719726562 60.34803771972656 72.46581268310547" stroke-width="0.0" fill="rgb(61, 60, 60)" opacity="0.99016577"/>
    <path d="M 71.16255187988281 89.25267791748047 C 69.60848236083984 97.23352813720703 64.32540130615234 102.88362121582031 55.25630569458008 104.94584655761719 C 47.58534240722656 102.9299087524414 42.10561752319336 97.39920043945312 40.3065185546875 89.86771392822266 C 43.73686218261719 82.13465118408203 49.20325469970703 76.84022521972656 55.68149185180664 74.9698715209961 C 62.98077392578125 76.76061248779297 68.8974380493164 81.71241760253906 71.16255187988281 89.25267791748047" stroke-width="0.0" fill="rgb(209, 209, 209)" opacity="0.99000514"/>
    <path d="M 104.85977935791016 239.7515106201172 C 102.85617065429688 247.33226013183594 97.32891845703125 252.84893798828125 88.51173400878906 254.93336486816406 C 80.75426483154297 252.8429718017578 75.58622741699219 247.09490966796875 73.96857452392578 239.1112060546875 C 76.0702133178711 231.60659790039062 81.6971664428711 226.34478759765625 89.54052734375 224.3114471435547 C 97.03734588623047 225.36083984375 102.356689453125 231.0616912841797 104.85977935791016 239.7515106201172" stroke-width="0.0" fill="rgb(204, 204, 204)" opacity="0.99036384"/>
    <path d="M 58.870201110839844 189.9686279296875 C 56.75498580932617 198.19622802734375 51.18478775024414 203.7295379638672 43.3057975769043 205.8174591064453 C 34.817501068115234 203.7154083251953 29.245824813842773 198.1967315673828 27.15692710876465 190.70391845703125 C 30.009618759155273 182.5 35.5 177.00961303710938 43.068912506103516 174.96234130859375 C 50.9434700012207 176.71377563476562 56.732608795166016 181.8978271484375 58.870201110839844 189.9686279296875" stroke-width="0.0" fill="rgb(198, 198, 198)" opacity="1.0"/>
    <path d="M 199.8686981201172 222.691650390625 C 197.86495971679688 230.33010864257812 192.28994750976562 235.75091552734375 184.50909423828125 237.5415802001953 C 176.5 234.99038696289062 171.00961303710938 229.5 168.99757385253906 221.99827575683594 C 171.02545166015625 214.5607147216797 176.62188720703125 209.2189178466797 184.46942138671875 206.37474060058594 C 192.0803680419922 208.44781494140625 197.70257568359375 213.86428833007812 199.8686981201172 222.691650390625" stroke-width="0.0" fill="rgb(203, 203, 203)" opacity="0.99030465"/>
    <path d="M 183.0 232.0 C 180.99038696289062 239.5 175.5 244.99038696289062 168.0 247.0 C 160.5 244.99038696289062 155.00961303710938 239.5 152.95864868164062 231.9148406982422 C 154.65330505371094 223.98362731933594 159.83309936523438 218.2201385498047 167.3173065185547 216.18162536621094 C 175.5066375732422 218.98739624023438 180.9905548095703 224.4994354248047 183.0 232.0" stroke-width="0.0" fill="rgb(203, 203, 203)" opacity="0.9921039"/>
    <path d="M 230.0 112.0 C 227.99038696289062 119.5 222.5 124.9903793334961 215.0 127.0 C 207.5 124.9903793334961 202.00961303710938 119.5 200.0 112.0 C 202.00961303710938 104.5 207.5 99.0096206665039 215.0 97.0 C 222.5 99.0096206665039 227.99038696289062 104.5 230.0 112.0" stroke-width="0.0" fill="rgb(214, 214, 215)" opacity="1.0"/>
    <path d="M 31.512510299682617 205.55966186523438 C 28.990381240844727 213.5 23.5 218.99038696289062 16.0 221.0 C 8.5 218.99038696289062 3.0096189975738525 213.5 1.0 206.0 C 3.0096189975738525 198.5 8.5 193.00961303710938 16.240196228027344 190.7777099609375 C 24.05525016784668 192.49386596679688 29.641185760498047 197.90216064453125 31.512510299682617 205.55966186523438" stroke-width="0.0" fill="rgb(203, 203, 203)" opacity="0.99277794"/>
    <path d="M 220.66925048828125 150.48976135253906 C 217.99038696289062 158.5 212.5 163.99038696289062 205.0 166.0 C 197.5 163.99038696289062 192.00961303710938 158.5 190.0 151.0 C 192.00961303710938 143.5 197.5 138.00961303710938 204.9883270263672 136.0259552001953 C 212.7278594970703 137.94139099121094 218.6007080078125 143.07786560058594 220.66925048828125 150.48976135253906" stroke-width="0.0" fill="rgb(81, 80, 80)" opacity="0.99009615"/>
    <path d="M 259.8731384277344 81.55181884765625 C 257.9058837890625 89.41680908203125 252.42642211914062 94.9326171875 244.91233825683594 96.9277114868164 C 236.5619354248047 93.80274200439453 231.01063537597656 88.49617004394531 228.125 80.17184448242188 C 230.09754943847656 72.62078094482422 235.65789794921875 67.2161865234375 244.80287170410156 65.11894226074219 C 252.40785217285156 67.0861587524414 257.87750244140625 72.60417938232422 259.8731384277344 81.55181884765625" stroke-width="0.0" fill="rgb(163, 162, 163)" opacity="1.0"/>
    <path d="M 220.001220703125 175.0015869140625 C 217.98770141601562 182.4761199951172 212.34815979003906 187.6300506591797 205.58250427246094 189.07440185546875 C 197.82264709472656 187.4214630126953 192.05223083496094 182.39199829101562 190.001220703125 174.9961395263672 C 192.00961303710938 167.5 197.5 162.00961303710938 205.0 160.0 C 212.5 162.00961303710938 217.99038696289062 167.5 220.001220703125 175.0015869140625" stroke-width="0.0" fill="rgb(146, 146, 146)" opacity="0.99003816"/>
    <path d="M 35.97203826904297 113.8958511352539 C 33.9428596496582 121.42623901367188 28.39444351196289 126.84965515136719 20.759634017944336 127.32514190673828 C 13.209114074707031 125.24378204345703 7.773741722106934 119.7830581665039 4.032402515411377 112.0498046875 C 6.042521953582764 104.54619598388672 11.552260398864746 99.05549621582031 19.088674545288086 97.04695892333984 C 28.251935958862305 99.31422424316406 33.858062744140625 104.68961334228516 35.97203826904297 113.8958511352539" stroke-width="0.0" fill="rgb(140, 138, 139)" opacity="1.0"/>
    <path d="M 80.98038482666016 171.06517028808594 C 78.81906127929688 180.16549682617188 72.91545104980469 185.22911071777344 64.12120819091797 187.8903045654297 C 56.549285888671875 185.94357299804688 51.05207824707031 180.4520263671875 49.01597213745117 171.0782470703125 C 51.03459167480469 163.5363311767578 56.54426574707031 158.0530548095703 64.10559844970703 157.80218505859375 C 73.43219757080078 158.1268310546875 78.96429443359375 163.5425567626953 80.98038482666016 171.06517028808594" stroke-width="0.0" fill="rgb(17, 16, 16)" opacity="0.99000305"/>
    <path d="M 146.0 95.0 C 143.99038696289062 102.5 138.5 107.9903793334961 131.0 110.0 C 123.5 107.9903793334961 118.0096206665039 102.5 115.25328063964844 94.23051452636719 C 117.09088134765625 86.57067108154297 122.56156158447266 81.06147003173828 130.12078857421875 79.09969329833984 C 138.5 82.0096206665039 143.99038696289062 87.5 146.0 95.0" stroke-width="0.0" fill="rgb(62, 62, 62)" opacity="1.0"/>
    <path d="M 143.92100524902344 202.7269287109375 C 141.74456787109375 211.13507080078125 136.0870819091797 216.6569061279297 128.6320343017578 218.7940673828125 C 120.52119445800781 215.92959594726562 115.01087188720703 210.49591064453125 113.00000762939453 202.9999542236328 C 115.00968933105469 195.500244140625 120.5033187866211 190.02096557617188 128.41566467285156 187.56065368652344 C 136.13623046875 189.40756225585938 141.78524780273438 194.79161071777344 143.92100524902344 202.7269287109375" stroke-width="0.0" fill="rgb(203, 204, 204)" opacity="0.9902074"/>
    <path d="M 148.99961853027344 236.9990234375 C 146.98049926757812 244.4744110107422 141.41409301757812 249.7891387939453 133.27520751953125 252.8404998779297 C 125.98474884033203 250.671630859375 120.39624786376953 244.9768829345703 118.07318878173828 236.2855682373047 C 120.1718978881836 228.7896270751953 125.9706802368164 223.65550231933594 133.92050170898438 221.9601287841797 C 141.5 224.00961303710938 146.99038696289062 229.5 148.99961853027344 236.9990234375" stroke-width="0.0" fill="rgb(203, 203, 203)" opacity="0.9905677"/>
    <path d="M 132.0518798828125 98.89037322998047 C 129.99038696289062 106.5 124.5 111.9903793334961 117.0 114.0 C 109.5 111.9903793334961 104.0096206665039 106.5 102.0 99.0 C 104.0096206665039 91.5 109.5 86.0096206665039 117.92886352539062 83.03055572509766 C 125.35401153564453 85.07687377929688 130.4757843017578 90.81463623046875 132.0518798828125 98.89037322998047" stroke-width="0.0" fill="rgb(27, 27, 26)" opacity="1.0"/>
    <path d="M 158.0359344482422 143.17474365234375 C 156.19906616210938 150.6184844970703 150.57627868652344 156.03944396972656 143.09103393554688 158.05873107910156 C 136.5 156.99038696289062 131.00961303710938 151.5 129.0 144.0 C 131.00961303710938 136.5 136.5 131.00961303710938 144.6712188720703 128.38311767578125 C 152.40614318847656 130.12623596191406 157.919921875 135.58058166503906 158.0359344482422 143.17474365234375" stroke-width="0.0" fill="rgb(9, 9, 9)" opacity="0.9900124"/>
    <path d="M 261.9530334472656 123.0214614868164 C 259.9903869628906 130.5 254.5 135.99038696289062 246.29563903808594 138.77072143554688 C 238.70382690429688 136.83181762695312 233.30885314941406 131.2513885498047 231.65625 123.38886260986328 C 234.00961303710938 115.5 239.5 110.0096206665039 247.8674774169922 107.05799865722656 C 255.22323608398438 109.14118194580078 260.1589050292969 115.05638122558594 261.9530334472656 123.0214614868164" stroke-width="0.0" fill="rgb(200, 200, 200)" opacity="1.0"/>
    <path d="M 219.0 111.0 C 216.99038696289062 118.5 211.5 123.9903793334961 204.0 126.0 C 196.5 123.9903793334961 191.00961303710938 118.5 188.9586181640625 110.92514038085938 C 190.69773864746094 103.04037475585938 195.88600158691406 97.26031494140625 203.34893798828125 95.22174835205078 C 211.5 98.0096206665039 216.99038696289062 103.5 219.0 111.0" stroke-width="0.0" fill="rgb(136, 136, 137)" opacity="1.0"/>
    <path d="M 38.44403839111328 213.69741821289062 C 35.990379333496094 221.5 30.5 226.99038696289062 22.238893508911133 229.84814453125 C 14.723020553588867 227.84060668945312 9.401671409606934 222.19451904296875 7.774084568023682 214.27520751953125 C 10.009618759155273 206.5 15.500000953674316 201.00961303710938 23.115806579589844 198.8807373046875 C 30.80855369567871 200.7218017578125 36.426082611083984 206.14413452148438 38.44403839111328 213.69741821289062" stroke-width="0.0" fill="rgb(203, 203, 203)" opacity="0.9911617"/>
    <path d="M 237.0 98.0 C 234.99038696289062 105.5 229.5 110.9903793334961 222.0 113.0 C 214.5 110.9903793334961 209.00961303710938 105.5 206.08168029785156 97.12628173828125 C 208.0782012939453 89.59892272949219 213.646728515625 84.30376434326172 222.3227996826172 83.70268249511719 C 229.5 85.0096206665039 234.99038696289062 90.5 237.0 98.0" stroke-width="0.0" fill="rgb(45, 46, 47)" opacity="0.9900298"/>
    <path d="M 118.3075180053711 68.30671691894531 C 116.556396484375 76.0630111694336 111.06045532226562 81.54793548583984 102.07820129394531 83.93424224853516 C 94.52940368652344 81.96187591552734 89.03462219238281 76.47175598144531 87.02653503417969 68.92019653320312 C 89.12895202636719 59.72819900512695 95.8345947265625 55.871856689453125 103.88419342041016 53.98101806640625 C 110.10588836669922 55.67149353027344 115.9502182006836 60.609073638916016 118.3075180053711 68.30671691894531" stroke-width="0.0" fill="rgb(4, 4, 4)" opacity="0.9900157"/>
    <path d="M 62.82404708862305 220.2626953125 C 59.990379333496094 228.5 54.5 233.99038696289062 47.0 236.0 C 39.5 233.99038696289062 34.009620666503906 228.5 31.852481842041016 220.84310913085938 C 33.63285827636719 213.09715270996094 39.06511306762695 207.5291748046875 47.709434509277344 205.1512451171875 C 55.3039665222168 207.173095703125 60.837677001953125 212.69097900390625 62.82404708862305 220.2626953125" stroke-width="0.0" fill="rgb(203, 203, 203)" opacity="0.99048746"/>
    <path d="M 205.8631134033203 58.82815170288086 C 203.93028259277344 66.44003295898438 198.44065856933594 71.93231201171875 189.1243896484375 73.9577865600586 C 181.53656005859375 71.95881652832031 176.0555877685547 66.45919036865234 175.9796905517578 58.92957305908203 C 177.96482849121094 51.45283508300781 183.45751953125 45.9764518737793 190.92820739746094 43.98176193237305 C 197.27146911621094 45.561012268066406 203.324462890625 50.34604263305664 205.8631134033203 58.82815170288086" stroke-width="0.0" fill="rgb(30, 30, 30)" opacity="0.9900026"/>
    <path d="M 103.0003662109375 107.99869537353516 C 100.9903793334961 115.5 95.5 120.9903793334961 87.232421875 123.83639526367188 C 79.62602233886719 121.8723373413086 74.1054916381836 116.38289642333984 72.15076446533203 108.80301666259766 C 75.0096206665039 100.5 80.5 95.0096206665039 88.4262924194336 92.33659362792969 C 95.68743896484375 94.62141418457031 101.00991821289062 100.44438934326172 103.0003662109375 107.99869537353516" stroke-width="0.0" fill="rgb(189, 189, 191)" opacity="1.0"/>
    <path d="M 42.851585388183594 88.74697875976562 C 40.88052749633789 96.36384582519531 35.335941314697266 101.7851333618164 26.462467193603516 103.55574035644531 C 18.952383041381836 101.62934112548828 13.486222267150879 96.00763702392578 11.692150115966797 88.28438568115234 C 14.009618759155273 80.5 19.5 75.0096206665039 27.0006103515625 72.99978637695312 C 34.521995544433594 75.00178527832031 40.216548919677734 80.40798950195312 42.851585388183594 88.74697875976562" stroke-width="0.0" fill="rgb(85, 84, 83)" opacity="1.0"/>
    <path d="M 88.98921966552734 78.78875732421875 C 86.95343780517578 86.42730712890625 81.36183166503906 91.7628402709961 73.74224090576172 92.40756225585938 C 66.40299987792969 90.10292053222656 60.88801193237305 84.59750366210938 57.08423614501953 78.7647933959961 C 59.28436279296875 69.80854034423828 64.68972778320312 64.10149383544922 73.7099609375 62.01766586303711 C 81.43235778808594 64.06433868408203 86.95491790771484 69.55642700195312 88.98921966552734 78.78875732421875" stroke-width="0.0" fill="rgb(23, 23, 23)" opacity="0.9900091"/>
    <path d="M 208.0009765625 111.99825286865234 C 205.99038696289062 119.5 200.5 124.9903793334961 193.1531524658203 126.79965209960938 C 185.72628784179688 124.7020492553711 180.14581298828125 119.32073974609375 177.046875 111.1053466796875 C 179.10845947265625 103.70709991455078 184.9137725830078 98.62763214111328 192.95193481445312 96.91358184814453 C 200.5288848876953 98.95877075195312 205.99961853027344 104.48350524902344 208.0009765625 111.99825286865234" stroke-width="0.0" fill="rgb(10, 10, 10)" opacity="0.99002826"/>
    <path d="M 237.68260192871094 224.4456024169922 C 234.99038696289062 232.5 229.5 237.99038696289062 221.99954223632812 240.0001678466797 C 214.4864959716797 237.99539184570312 208.86514282226562 232.5558319091797 206.5060577392578 225.23948669433594 C 209.0094757080078 217.4999542236328 214.5 212.00961303710938 222.11880493164062 209.9196319580078 C 229.986083984375 211.63180541992188 235.68496704101562 216.90994262695312 237.68260192871094 224.4456024169922" stroke-width="0.0" fill="rgb(202, 202, 202)" opacity="0.99248016"/>
    <path d="M 200.0846405029297 144.73268127441406 C 198.5798797607422 151.3665313720703 193.5453643798828 157.0359344482422 186.01290893554688 159.00782775878906 C 178.5 156.99038696289062 173.00961303710938 151.5 170.84332275390625 143.88577270507812 C 172.67955017089844 136.0115203857422 177.7523193359375 130.12527465820312 185.0703125 128.04515075683594 C 192.57589721679688 131.94517517089844 198.07882690429688 137.4159698486328 200.0846405029297 144.73268127441406" stroke-width="0.0" fill="rgb(5, 5, 4)" opacity="0.9900054"/>
    <path d="M 200.94488525390625 94.8725357055664 C 198.86257934570312 102.24198913574219 193.11257934570312 107.68466186523438 184.12930297851562 109.97237396240234 C 176.61053466796875 107.91046905517578 171.06781005859375 102.4042739868164 169.03329467773438 94.89997100830078 C 171.10421752929688 85.58655548095703 176.578857421875 80.0794448852539 184.1650848388672 78.14396667480469 C 192.5 81.0096206665039 197.99038696289062 86.5 200.94488525390625 94.8725357055664" stroke-width="0.0" fill="rgb(137, 139, 143)" opacity="1.0"/>
    <path d="M 148.00851440429688 104.02131652832031 C 146.16250610351562 111.84730529785156 141.1368408203125 117.81036376953125 133.83831787109375 119.93336486816406 C 125.35879516601562 117.25377655029297 119.980712890625 111.56527709960938 117.99844360351562 104.00371551513672 C 120.0096206665039 96.5 125.5 91.0096206665039 133.0 89.0 C 140.5 91.0096206665039 145.99038696289062 96.5 148.00851440429688 104.02131652832031" stroke-width="0.0" fill="rgb(112, 111, 111)" opacity="0.9903588"/>
    <path d="M 129.8499298095703 63.0772819519043 C 128.62510681152344 71.29303741455078 123.3818359375 76.92461395263672 115.96507263183594 77.0440673828125 C 108.46930694580078 75.01536560058594 102.9844970703125 69.53079223632812 100.98086547851562 62.03845977783203 C 101.09626007080078 54.595008850097656 106.60335540771484 49.12129592895508 114.2576675415039 47.17362976074219 C 122.80197143554688 49.630516052246094 128.17330932617188 55.25948715209961 129.8499298095703 63.0772819519043" stroke-width="0.0" fill="rgb(199, 199, 199)" opacity="0.9900035"/>
    <path d="M 242.215576171875 119.3057861328125 C 240.67333984375 127.28577423095703 235.373046875 132.92037963867188 227.9192352294922 134.96945190429688 C 219.45152282714844 132.13458251953125 214.00791931152344 126.50550842285156 211.99998474121094 119.00006866455078 C 214.00961303710938 111.5 219.5 106.0096206665039 227.0 104.0 C 234.5 106.0096206665039 239.99038696289062 111.5 242.215576171875 119.3057861328125" stroke-width="0.0" fill="rgb(112, 111, 112)" opacity="1.0"/>
    <path d="M 197.85166931152344 172.9079132080078 C 195.8365478515625 180.4038543701172 190.43994140625 185.95419311523438 182.99249267578125 187.9955596923828 C 175.5 185.99038696289062 170.00961303710938 180.5 168.0 173.0 C 170.00961303710938 165.5 175.5 160.00961303710938 183.0 158.0 C 190.5 160.00961303710938 195.99038696289062 165.5 197.85166931152344 172.9079132080078" stroke-width="0.0" fill="rgb(157, 156, 156)" opacity="0.9996944"/>
    <path d="M 165.9160919189453 104.82723236083984 C 163.5874481201172 111.84664154052734 157.62428283691406 117.05880737304688 149.6858367919922 119.27751922607422 C 141.8231201171875 117.62104797363281 136.29698181152344 112.20091247558594 135.243896484375 104.3446273803711 C 137.00961303710938 96.5 142.5 91.0096206665039 150.05462646484375 88.97209930419922 C 157.91114807128906 90.74972534179688 163.67733764648438 95.94515991210938 165.9160919189453 104.82723236083984" stroke-width="0.0" fill="rgb(34, 34, 34)" opacity="1.0"/>
    <path d="M 166.54974365234375 119.71931457519531 C 164.59756469726562 128.1968536376953 159.28602600097656 133.85305786132812 151.95901489257812 134.04379272460938 C 144.4469757080078 132.02407836914062 138.90509033203125 126.57697296142578 136.8955078125 120.84891510009766 C 138.9671630859375 113.45762634277344 144.4623260498047 107.98008728027344 151.95138549804688 105.976318359375 C 159.01258850097656 106.65533447265625 164.63702392578125 111.91206359863281 166.54974365234375 119.71931457519531" stroke-width="0.0" fill="rgb(192, 191, 191)" opacity="0.99000496"/>
    <path d="M 262.8964538574219 156.10311889648438 C 260.8009033203125 163.13755798339844 254.88095092773438 168.19180297851562 247.0409698486328 171.94406127929688 C 239.53526306152344 169.96450805664062 234.0597686767578 164.45631408691406 232.1505889892578 156.85353088378906 C 235.00961303710938 148.5 240.5 143.00961303710938 247.62899780273438 141.44595336914062 C 255.0030517578125 143.58270263671875 260.6329345703125 148.92938232421875 262.8964538574219 156.10311889648438" stroke-width="0.0" fill="rgb(101, 101, 101)" opacity="0.99002224"/>
    <path d="M 16.16465950012207 215.16683959960938 C 14.363471984863281 222.8638153076172 8.844182014465332 228.29356384277344 1.0863020420074463 230.00289916992188 C -6.5 227.99038696289062 -11.990381240844727 222.5 -14.000000953674316 215.0 C -11.990476608276367 207.49969482421875 -6.502330780029297 202.0021514892578 0.9811666011810303 199.94175720214844 C 8.5 202.00961303710938 13.990381240844727 207.5 16.16465950012207 215.16683959960938" stroke-width="0.0" fill="rgb(203, 203, 203)" opacity="0.9915718"/>
    <path d="M 202.79873657226562 192.362548828125 C 200.79261779785156 201.37384033203125 195.41989135742188 206.9416046142578 187.37843322753906 208.93882751464844 C 178.543701171875 206.95562744140625 173.0742950439453 201.447021484375 171.22254943847656 193.80331420898438 C 174.00961303710938 185.5 179.5 180.00961303710938 187.68411254882812 177.30386352539062 C 195.36326599121094 179.14608764648438 200.8647918701172 184.63331604003906 202.79873657226562 192.362548828125" stroke-width="0.0" fill="rgb(48, 48, 47)" opacity="0.99084944"/>
    <path d="M 31.90920639038086 175.1672821044922 C 29.117115020751953 183.64923095703125 23.6700496673584 189.18580627441406 16.084362030029297 191.0991668701172 C 8.489148139953613 188.99671936035156 3.014533042907715 183.50851440429688 0.4367632269859314 175.4551239013672 C 2.2750837802886963 167.77894592285156 7.749131679534912 162.19833374023438 15.480741500854492 160.08633422851562 C 24.278100967407227 162.23204040527344 29.87701988220215 167.67318725585938 31.90920639038086 175.1672821044922" stroke-width="0.0" fill="rgb(204, 204, 204)" opacity="0.9903749"/>
    <path d="M 26.063194274902344 191.7462615966797 C 23.898040771484375 199.46743774414062 18.49412727355957 204.9891357421875 10.989911079406738 207.0100555419922 C 3.457345962524414 205.02597045898438 -2.050504684448242 199.55006408691406 -3.8972389698028564 192.1449737548828 C -1.68636155128479 184.80982971191406 3.8177833557128906 179.3397216796875 11.14460277557373 177.16090393066406 C 18.464736938476562 179.0332489013672 24.02008056640625 184.5227813720703 26.063194274902344 191.7462615966797" stroke-width="0.0" fill="rgb(200, 203, 203)" opacity="0.99149215"/>
    <path d="M 92.95735931396484 200.04852294921875 C 89.10176086425781 207.61973571777344 83.61347961425781 213.08441162109375 76.34197998046875 215.0415496826172 C 70.37625885009766 213.11456298828125 64.92192077636719 207.6104736328125 62.947723388671875 200.13941955566406 C 63.75053787231445 193.36805725097656 69.44535827636719 187.98825073242188 77.7895736694336 185.236328125 C 85.44532012939453 187.07852172851562 90.96102142333984 192.5415802001953 92.95735931396484 200.04852294921875" stroke-width="0.0" fill="rgb(73, 73, 72)" opacity="0.9900052"/>
    <path d="M 220.1210479736328 110.8406982421875 C 218.99038696289062 117.5 213.5 122.9903793334961 206.0 125.0 C 198.5 122.9903793334961 193.00961303710938 117.5 191.71823120117188 110.6788330078125 C 193.854736328125 103.32437896728516 199.30609130859375 97.79518127441406 205.23243713378906 95.93539428710938 C 212.5771484375 97.9354248046875 218.06155395507812 103.42373657226562 220.1210479736328 110.8406982421875" stroke-width="0.0" fill="rgb(211, 210, 212)" opacity="0.9900077"/>
    <path d="M 15.094128608703613 240.86997985839844 C 13.001641273498535 248.52500915527344 7.576451778411865 254.16773986816406 0.2755826711654663 256.5348205566406 C -7.5 253.99038696289062 -12.990381240844727 248.5 -15.0 241.0 C -12.990381240844727 233.5 -7.5 228.00961303710938 0.4971129596233368 225.40252685546875 C 8.078628540039062 227.33755493164062 13.382638931274414 233.0113983154297 15.094128608703613 240.86997985839844" stroke-width="0.0" fill="rgb(201, 201, 202)" opacity="0.9936868"/>
    <path d="M 257.10943603515625 150.34425354003906 C 255.08389282226562 157.60513305664062 249.610107421875 163.09861755371094 242.2017364501953 165.3558807373047 C 235.12088012695312 164.5338592529297 229.8594512939453 158.74102783203125 227.039306640625 150.05564880371094 C 229.0347442626953 142.53045654296875 234.53273010253906 137.0406494140625 242.06607055664062 135.04393005371094 C 249.85427856445312 138.56008911132812 255.18963623046875 144.2261962890625 257.10943603515625 150.34425354003906" stroke-width="0.0" fill="rgb(46, 45, 46)" opacity="0.99001366"/>
    <path d="M 114.97176361083984 123.94991302490234 C 112.96401977539062 131.47003173828125 107.47045135498047 136.96502685546875 99.8392105102539 138.98048400878906 C 90.56692504882812 136.93988037109375 85.05960083007812 131.4331512451172 83.02999114990234 123.92699432373047 C 85.5802993774414 115.26838684082031 91.4087905883789 109.970703125 98.9954605102539 107.99815368652344 C 106.5 110.0096206665039 111.9903793334961 115.5 114.97176361083984 123.94991302490234" stroke-width="0.0" fill="rgb(141, 141, 141)" opacity="1.0"/>
    <path d="M 142.0211181640625 132.11412048339844 C 140.0770721435547 139.80747985839844 136.2666015625 146.88311767578125 128.81634521484375 148.87017822265625 C 120.50078582763672 145.9901123046875 115.02117919921875 140.49607849121094 112.06777954101562 132.1089630126953 C 114.06963348388672 124.58251953125 119.60501861572266 119.13727569580078 128.8911895751953 117.05110931396484 C 136.4300079345703 119.05856323242188 141.84532165527344 124.59642028808594 142.0211181640625 132.11412048339844" stroke-width="0.0" fill="rgb(165, 164, 164)" opacity="0.99010986"/>
    <path d="M 183.0 237.0 C 180.99038696289062 244.5 175.5 249.99038696289062 168.0 252.0 C 160.5 249.99038696289062 155.00961303710938 244.5 153.0 237.0 C 155.00961303710938 229.5 160.5 224.00961303710938 168.0 222.0 C 175.5 224.00961303710938 180.99038696289062 229.5 183.0 237.0" stroke-width="0.0" fill="rgb(202, 202, 201)" opacity="0.99998903"/>
    <path d="M 86.97345733642578 187.0402374267578 C 83.53190612792969 194.94886779785156 77.895263671875 200.34426879882812 70.14059448242188 203.8751678466797 C 62.543460845947266 201.93946838378906 57.03582763671875 196.46485900878906 55.020042419433594 188.91632080078125 C 57.11929702758789 179.7218780517578 62.92816925048828 174.67523193359375 71.68803405761719 172.40684509277344 C 79.42453002929688 174.1149139404297 84.96261596679688 179.5477294921875 86.97345733642578 187.0402374267578" stroke-width="0.0" fill="rgb(15, 14, 14)" opacity="0.9900072"/>
    <path d="M 93.86690521240234 99.40762329101562 C 91.65701293945312 108.08145904541016 86.07516479492188 113.64212036132812 77.13194274902344 115.95429229736328 C 69.5968017578125 113.91146850585938 64.06693267822266 108.41487884521484 62.03367614746094 100.88935852050781 C 64.3240966796875 93.05770874023438 71.3333969116211 87.92405700683594 78.92488861083984 85.95220184326172 C 86.36727142333984 86.11804962158203 91.86870574951172 91.63785552978516 93.86690521240234 99.40762329101562" stroke-width="0.0" fill="rgb(178, 178, 179)" opacity="1.0"/>
    <path d="M 152.0 56.0 C 149.99038696289062 63.5 144.5 68.9903793334961 137.17819213867188 70.78191375732422 C 129.78855895996094 68.64785766601562 124.21347045898438 63.254150390625 121.20099639892578 55.25053787231445 C 123.14168548583984 47.6727294921875 128.7161865234375 42.28136444091797 136.59349060058594 40.66407775878906 C 144.49993896484375 43.00980758666992 149.99038696289062 48.50000762939453 152.0 56.0" stroke-width="0.0" fill="rgb(196, 196, 196)" opacity="0.9907781"/>
    <path d="M 220.94891357421875 40.66089630126953 C 218.8541259765625 48.24955368041992 213.07745361328125 53.394954681396484 205.8399200439453 54.06418991088867 C 196.6194610595703 52.6021728515625 191.0548095703125 48.432159423828125 189.05303955078125 40.90420913696289 C 191.33642578125 31.929603576660156 197.01583862304688 26.5689640045166 204.46026611328125 24.325714111328125 C 213.02317810058594 26.760047912597656 218.79437255859375 31.814533233642578 220.94891357421875 40.66089630126953" stroke-width="0.0" fill="rgb(199, 200, 200)" opacity="1.0"/>
    <path d="M 268.0032958984375 129.0083770751953 C 266.07073974609375 136.68716430664062 260.95269775390625 142.67991638183594 252.1781463623047 144.96644592285156 C 246.14723205566406 142.7967071533203 240.85728454589844 135.67762756347656 238.61387634277344 128.3489532470703 C 240.0095977783203 121.49996948242188 245.49966430664062 116.00848388671875 253.02615356445312 113.89564514160156 C 260.5063781738281 115.99214172363281 265.99102783203125 121.49835968017578 268.0032958984375 129.0083770751953" stroke-width="0.0" fill="rgb(199, 199, 200)" opacity="0.9901611"/>
    <path d="M 245.40525817871094 28.574026107788086 C 244.41082763671875 36.09233856201172 239.25547790527344 41.85528564453125 230.58815002441406 43.93537902832031 C 222.65118408203125 41.888309478759766 217.23960876464844 36.30089569091797 215.1479949951172 28.344467163085938 C 218.6690216064453 21.192384719848633 224.22471618652344 15.777266502380371 231.6444091796875 13.454992294311523 C 237.807861328125 15.65931224822998 243.23484802246094 21.22298240661621 245.40525817871094 28.574026107788086" stroke-width="0.0" fill="rgb(204, 204, 204)" opacity="0.9900317"/>
    <path d="M 213.87393188476562 116.14558410644531 C 210.99038696289062 124.5 205.5 129.99038696289062 197.30795288085938 132.78005981445312 C 189.7154998779297 130.8147735595703 184.25076293945312 125.26139068603516 182.06410217285156 116.18391418457031 C 184.139404296875 108.6860580444336 189.68923950195312 103.1438217163086 198.88430786132812 101.02103424072266 C 206.4488983154297 103.04891967773438 211.9323272705078 108.55810546875 213.87393188476562 116.14558410644531" stroke-width="0.0" fill="rgb(130, 130, 131)" opacity="1.0"/>
    <path d="M 181.0 162.0 C 178.99038696289062 169.5 173.50006103515625 174.9906005859375 165.150634765625 177.90098571777344 C 157.5869903564453 175.91651916503906 152.09915161132812 170.4072723388672 150.0649871826172 162.45263671875 C 152.13330078125 153.65447998046875 157.6809539794922 148.2151336669922 165.46688842773438 146.49557495117188 C 173.5 149.00961303710938 178.99038696289062 154.5 181.0 162.0" stroke-width="0.0" fill="rgb(163, 163, 162)" opacity="1.0"/>
    <path d="M 118.00325012207031 203.99122619628906 C 115.9903793334961 211.5 110.5 216.99038696289062 103.8687515258789 218.11398315429688 C 96.44780731201172 216.04222106933594 90.97390747070312 210.5461883544922 88.95499420166016 203.04379272460938 C 89.06514739990234 195.55332946777344 94.54561614990234 190.04425048828125 102.0997085571289 188.02955627441406 C 111.02849578857422 190.25233459472656 116.08296966552734 196.28106689453125 118.00325012207031 203.99122619628906" stroke-width="0.0" fill="rgb(9, 9, 9)" opacity="0.9900032"/>
    <path d="M 244.1134490966797 90.82238006591797 C 243.7648162841797 98.28095245361328 238.27867126464844 103.75938415527344 230.79513549804688 104.24958801269531 C 223.35330200195312 102.11910247802734 217.8822021484375 96.64651489257812 215.9488525390625 89.19481658935547 C 216.1220245361328 81.59708404541016 221.5699462890625 76.0536117553711 229.05682373046875 74.06275939941406 C 236.6373748779297 77.8796615600586 242.09095764160156 83.37442779541016 244.1134490966797 90.82238006591797" stroke-width="0.0" fill="rgb(199, 198, 199)" opacity="0.9900072"/>
    <path d="M 151.0 234.0 C 148.99038696289062 241.5 143.5 246.99038696289062 136.0 249.0 C 128.5 246.99038696289062 123.0096206665039 241.5 121.28373718261719 234.20046997070312 C 123.32595825195312 226.67420959472656 128.4778594970703 220.76272583007812 135.79615783691406 218.66371154785156 C 143.4999542236328 221.0097198486328 148.99038696289062 226.50001525878906 151.0 234.0" stroke-width="0.0" fill="rgb(203, 203, 203)" opacity="0.99147826"/>
    <path d="M 239.93106079101562 186.02963256835938 C 236.03582763671875 193.5597686767578 230.56407165527344 199.04544067382812 223.13018798828125 201.02903747558594 C 216.7921600341797 199.46360778808594 211.1293487548828 194.37730407714844 208.1537322998047 186.2109375 C 210.20339965820312 178.81065368652344 215.9330596923828 173.48953247070312 224.9424591064453 171.03297424316406 C 232.46363830566406 173.03805541992188 237.96200561523438 178.53643798828125 239.93106079101562 186.02963256835938" stroke-width="0.0" fill="rgb(49, 48, 47)" opacity="0.9900123"/>
    <path d="M 60.98582077026367 47.918235778808594 C 58.962745666503906 55.454647064208984 53.42564010620117 60.83967971801758 44.19927215576172 61.21531677246094 C 36.57741165161133 60.89912414550781 31.059497833251953 55.435951232910156 29.074827194213867 47.89541244506836 C 32.009620666503906 39.5 37.5 34.009620666503906 44.9668083190918 32.46339797973633 C 53.31918716430664 33.344505310058594 58.930816650390625 38.604740142822266 60.98582077026367 47.918235778808594" stroke-width="0.0" fill="rgb(145, 144, 143)" opacity="1.0"/>
    <path d="M 264.6206970214844 37.339595794677734 C 262.3971252441406 43.77436447143555 256.67425537109375 49.09449005126953 249.15272521972656 51.11294937133789 C 241.6597442626953 50.7526969909668 236.0669403076172 45.40107727050781 235.97787475585938 37.97382736206055 C 237.9888153076172 30.47550392150879 243.4772491455078 24.992630004882812 250.9362030029297 22.993120193481445 C 256.5672912597656 24.973657608032227 262.186767578125 30.37936782836914 264.6206970214844 37.339595794677734" stroke-width="0.0" fill="rgb(10, 10, 10)" opacity="0.9900018"/>
    <path d="M 198.20968627929688 163.71664428710938 C 195.99038696289062 171.5 190.5 176.99038696289062 182.99459838867188 179.002685546875 C 175.4337921142578 177.023681640625 169.76425170898438 171.63394165039062 167.6547088623047 164.19683837890625 C 170.00961303710938 156.5 175.5 151.00961303710938 183.6810760498047 148.2703399658203 C 191.27732849121094 150.1766815185547 196.61941528320312 155.7854766845703 198.20968627929688 163.71664428710938" stroke-width="0.0" fill="rgb(157, 157, 156)" opacity="0.9900819"/>
    <path d="M 196.89974975585938 177.7765655517578 C 194.7513427734375 185.0693817138672 188.82470703125 190.16505432128906 180.72056579589844 192.20431518554688 C 172.70257568359375 190.6763458251953 167.07684326171875 185.38003540039062 165.5265350341797 177.89527893066406 C 167.2207794189453 168.6801300048828 172.676025390625 163.19715881347656 180.28929138183594 162.51321411132812 C 188.0911407470703 164.61761474609375 193.875 169.72207641601562 196.89974975585938 177.7765655517578" stroke-width="0.0" fill="rgb(28, 28, 27)" opacity="0.9900084"/>
    <path d="M 215.37205505371094 164.49444580078125 C 213.7886199951172 172.3264923095703 208.3504180908203 177.86708068847656 200.47616577148438 179.88499450683594 C 191.69277954101562 177.80068969726562 186.15869140625 172.322021484375 184.07940673828125 164.2168731689453 C 186.2073211669922 155.79075622558594 191.86105346679688 150.38328552246094 199.66957092285156 149.19125366210938 C 207.6076202392578 150.93682861328125 213.09909057617188 156.3837127685547 215.37205505371094 164.49444580078125" stroke-width="0.0" fill="rgb(84, 83, 84)" opacity="0.9900741"/>
    <path d="M 267.00347900390625 222.00851440429688 C 265.062744140625 229.66358947753906 259.8807678222656 235.6007843017578 251.6302947998047 237.90940856933594 C 243.90785217285156 235.70689392089844 238.31280517578125 230.08139038085938 236.1407928466797 222.5946044921875 C 238.74215698242188 214.36773681640625 244.44667053222656 208.98471069335938 251.9963836669922 206.998291015625 C 259.5 209.00961303710938 264.9903869628906 214.5 267.00347900390625 222.00851440429688" stroke-width="0.0" fill="rgb(204, 204, 204)" opacity="0.9906657"/>
    <path d="M 206.90330505371094 251.436767578125 C 204.57447814941406 259.863525390625 198.66427612304688 265.0650939941406 191.00936889648438 267.00390625 C 183.50001525878906 264.9903869628906 178.009765625 259.49993896484375 175.99740600585938 251.993408203125 C 177.9741973876953 244.43533325195312 183.37355041503906 238.77865600585938 191.53721618652344 236.28225708007812 C 199.2324981689453 238.23825073242188 204.77940368652344 243.7617950439453 206.90330505371094 251.436767578125" stroke-width="0.0" fill="rgb(204, 200, 200)" opacity="0.9910136"/>
    <path d="M 186.94215393066406 123.93701171875 C 184.953125 131.4444122314453 179.4273223876953 136.9102020263672 171.6529083251953 138.93104553222656 C 162.65773010253906 136.8378448486328 157.11373901367188 131.36253356933594 155.14413452148438 123.79788208007812 C 157.2561492919922 114.66935729980469 162.61268615722656 109.07990264892578 170.73658752441406 107.0467758178711 C 179.39297485351562 109.08065032958984 184.7314453125 114.65641784667969 186.94215393066406 123.93701171875" stroke-width="0.0" fill="rgb(65, 65, 64)" opacity="0.9900056"/>
    <path d="M 234.28387451171875 122.3234634399414 C 232.6249542236328 130.18734741210938 227.23362731933594 135.7725372314453 219.6026153564453 137.66445922851562 C 211.5 134.99038696289062 206.00961303710938 129.5 203.55726623535156 121.56280517578125 C 205.27651977539062 113.7077407836914 210.63442993164062 108.08722686767578 218.10324096679688 106.038330078125 C 226.5495147705078 108.85913848876953 231.99168395996094 114.4956283569336 234.28387451171875 122.3234634399414" stroke-width="0.0" fill="rgb(83, 83, 83)" opacity="1.0"/>
    <path d="M 53.838680267333984 72.77599334716797 C 51.911865234375 80.42779541015625 46.43858337402344 85.94264221191406 38.90582275390625 87.93152618408203 C 30.535669326782227 84.87394714355469 24.999326705932617 79.50261688232422 22.067626953125 71.08785247802734 C 24.047531127929688 63.54340362548828 29.542850494384766 58.045780181884766 37.06576156616211 56.079193115234375 C 46.21748352050781 58.32624435424805 51.64645767211914 63.792884826660156 53.838680267333984 72.77599334716797" stroke-width="0.0" fill="rgb(71, 71, 70)" opacity="0.9900404"/>
    <path d="M 49.97378921508789 228.9635772705078 C 47.85210418701172 236.30606079101562 42.21675109863281 241.5803985595703 34.65275573730469 243.45599365234375 C 27.493356704711914 241.99269104003906 21.92365074157715 236.5310821533203 19.519033432006836 229.0169219970703 C 21.984468460083008 221.49237060546875 27.499208450317383 216.00921630859375 35.000267028808594 213.99905395507812 C 42.500335693359375 216.00901794433594 47.99050521850586 221.4998016357422 49.97378921508789 228.9635772705078" stroke-width="0.0" fill="rgb(200, 203, 203)" opacity="0.9918059"/>
    <path d="M 224.2098846435547 131.79220581054688 C 223.8721923828125 139.38560485839844 218.38943481445312 144.8841552734375 210.8131561279297 145.25279235839844 C 202.96121215820312 143.22793579101562 196.1999969482422 139.07254028320312 194.14154052734375 131.76502990722656 C 197.3494415283203 123.92879486083984 203.09478759765625 118.76345825195312 210.84991455078125 116.86759948730469 C 217.90411376953125 117.38155364990234 222.6133575439453 123.46908569335938 224.2098846435547 131.79220581054688" stroke-width="0.0" fill="rgb(153, 154, 153)" opacity="0.9900279"/>
    <path d="M 30.099300384521484 80.18975067138672 C 28.105276107788086 87.62071228027344 22.611082077026367 93.08101654052734 15.060495376586914 96.93803405761719 C 7.566040992736816 94.93939208984375 2.060640811920166 89.43391418457031 0.0411686897277832 81.9080810546875 C 2.551816463470459 73.26522827148438 8.426538467407227 67.98149871826172 15.996807098388672 65.99931335449219 C 23.48067855834961 68.01689147949219 28.843259811401367 73.56205749511719 30.099300384521484 80.18975067138672" stroke-width="0.0" fill="rgb(155, 154, 154)" opacity="0.9902255"/>
    <path d="M 174.986572265625 85.0350341796875 C 172.9310302734375 94.44960021972656 167.45909118652344 99.95948028564453 159.93222045898438 101.96148681640625 C 151.2437744140625 99.4646987915039 146.06214904785156 93.56436157226562 144.04937744140625 85.96125030517578 C 146.00961303710938 78.5 151.5 73.0096206665039 159.7699432373047 70.27547454833984 C 167.44834899902344 72.08039855957031 172.9690704345703 77.53461456298828 174.986572265625 85.0350341796875" stroke-width="0.0" fill="rgb(47, 45, 46)" opacity="1.0"/>
    <path d="M 29.001617431640625 242.99725341796875 C 26.990381240844727 250.5 21.5 255.99038696289062 13.854857444763184 258.2168273925781 C 6.332296848297119 256.2348327636719 0.9331573247909546 250.61529541015625 -1.0211148262023926 242.99765014648438 C 0.8773430585861206 235.242431640625 6.014307498931885 229.31637573242188 13.322800636291504 227.15255737304688 C 21.593528747558594 229.8140106201172 27.008081436157227 235.46224975585938 29.001617431640625 242.99725341796875" stroke-width="0.0" fill="rgb(200, 203, 203)" opacity="0.99154896"/>
    <path d="M 55.1788215637207 185.6338653564453 C 53.769935607910156 192.35467529296875 48.400848388671875 197.9193115234375 40.977664947509766 199.98837280273438 C 33.444618225097656 198.01673889160156 27.748497009277344 192.6314239501953 25.547279357910156 185.3083953857422 C 28.13577651977539 177.40087890625 32.983497619628906 171.24424743652344 40.33852005004883 169.09510803222656 C 49.04170227050781 171.26927185058594 53.22289276123047 177.89918518066406 55.1788215637207 185.6338653564453" stroke-width="0.0" fill="rgb(199, 199, 199)" opacity="1.0"/>
    <path d="M 136.28646850585938 108.40480041503906 C 134.6322479248047 116.1736068725586 129.21810913085938 121.76337432861328 120.1272964477539 123.95523834228516 C 112.68822479248047 121.89618682861328 107.54931640625 116.14395141601562 105.94017791748047 108.114501953125 C 108.0096206665039 100.5 113.5 95.0096206665039 120.99999237060547 93.0 C 128.4993438720703 95.00981903076172 133.97048950195312 100.50608825683594 136.28646850585938 108.40480041503906" stroke-width="0.0" fill="rgb(125, 124, 122)" opacity="1.0"/>
    <path d="M 128.81607055664062 150.24658203125 C 126.9903793334961 157.5 121.5 162.99038696289062 113.25714874267578 165.7375946044922 C 105.57611846923828 163.8973846435547 100.0512924194336 158.44139099121094 98.05235290527344 149.09768676757812 C 100.03248596191406 141.52862548828125 105.5327377319336 136.0442352294922 113.07955169677734 134.0658416748047 C 120.74154663085938 137.8275604248047 126.4003677368164 143.1889190673828 128.81607055664062 150.24658203125" stroke-width="0.0" fill="rgb(18, 18, 17)" opacity="0.9900153"/>
    <path d="M 266.9989318847656 211.00230407714844 C 264.9903869628906 218.5 259.5 223.9904022216797 252.0061798095703 225.996337890625 C 244.56170654296875 223.95677185058594 239.17025756835938 218.39891052246094 236.4567413330078 210.70631408691406 C 238.7972412109375 203.1863555908203 244.0132293701172 197.349365234375 251.46322631835938 195.28802490234375 C 259.4514465332031 198.08580017089844 264.97576904296875 203.52955627441406 266.9989318847656 211.00230407714844" stroke-width="0.0" fill="rgb(204, 204, 200)" opacity="0.9907614"/>
    <path d="M 237.2223663330078 160.92555236816406 C 236.9471893310547 168.4549102783203 231.4566192626953 173.9521484375 223.93026733398438 175.90731811523438 C 215.0821075439453 172.59829711914062 209.60296630859375 168.02789306640625 208.9300537109375 159.98580932617188 C 210.5691680908203 152.9605712890625 215.75039672851562 146.63735961914062 223.81712341308594 144.050048828125 C 230.13783264160156 146.1993865966797 235.1052703857422 153.30123901367188 237.2223663330078 160.92555236816406" stroke-width="0.0" fill="rgb(140, 139, 140)" opacity="1.0"/>
    <path d="M 39.881935119628906 251.7865447998047 C 37.81521987915039 259.1922302246094 32.009944915771484 264.3293762207031 24.076383590698242 266.0400085449219 C 16.499967575073242 263.99041748046875 11.009453773498535 258.50006103515625 8.999560356140137 251.00025939941406 C 11.010049819946289 243.50045776367188 16.500524520874023 238.0102996826172 23.999675750732422 236.00279235839844 C 31.485750198364258 238.01480102539062 36.9063835144043 243.5377960205078 39.881935119628906 251.7865447998047" stroke-width="0.0" fill="rgb(203, 200, 200)" opacity="0.99248374"/>
    <path d="M 126.86909484863281 220.74888610839844 C 124.80895233154297 228.25296020507812 119.21881866455078 233.72642517089844 110.86180877685547 235.81715393066406 C 102.78672790527344 233.74102783203125 97.27145385742188 228.20875549316406 95.03951263427734 219.06350708007812 C 97.03622436523438 211.53158569335938 102.53297424316406 206.03981018066406 110.06971740722656 204.0505828857422 C 118.5024642944336 207.0077667236328 123.98919677734375 212.49826049804688 126.86909484863281 220.74888610839844" stroke-width="0.0" fill="rgb(204, 204, 204)" opacity="1.0"/>
    <path d="M 253.93190002441406 116.14619445800781 C 250.35552978515625 123.75318145751953 244.73451232910156 129.25506591796875 237.2655487060547 132.94805908203125 C 229.92303466796875 130.76817321777344 224.8668212890625 124.79847717285156 222.9937744140625 117.01842498779297 C 225.02239990234375 109.53260040283203 230.60777282714844 104.2545166015625 238.93931579589844 101.034912109375 C 246.44895935058594 103.04719543457031 251.9339141845703 108.5587158203125 253.93190002441406 116.14619445800781" stroke-width="0.0" fill="rgb(125, 124, 124)" opacity="0.99100804"/>
    <path d="M 30.48248863220215 76.42691040039062 C 29.57253074645996 84.18360137939453 24.272241592407227 89.84011840820312 16.853818893432617 91.9499740600586 C 9.327916145324707 88.1280288696289 3.525261878967285 82.73690032958984 0.033851563930511475 75.04436492919922 C 2.0319252014160156 67.5274429321289 7.528036594390869 62.03314208984375 15.093677520751953 60.0174674987793 C 24.42853355407715 62.053619384765625 29.79323387145996 67.61315155029297 30.48248863220215 76.42691040039062" stroke-width="0.0" fill="rgb(33, 33, 33)" opacity="0.990006"/>
    <path d="M 234.79483032226562 217.37957763671875 C 231.99008178710938 225.49990844726562 226.5 230.99038696289062 218.97177124023438 233.01475524902344 C 211.20892333984375 231.15133666992188 205.2979278564453 226.01380920410156 203.0398712158203 217.104736328125 C 205.05075073242188 209.54957580566406 210.55224609375 204.05799865722656 218.39874267578125 202.04049682617188 C 227.2714385986328 204.1365509033203 232.6768798828125 209.8302764892578 234.79483032226562 217.37957763671875" stroke-width="0.0" fill="rgb(203, 204, 204)" opacity="1.0"/>
    <path d="M 173.447998046875 68.62520599365234 C 170.06900024414062 74.55239868164062 164.53855895996094 80.0178451538086 157.07357788085938 82.01390075683594 C 151.26177978515625 80.11035919189453 145.39447021484375 74.93626403808594 143.04855346679688 67.90972137451172 C 145.00961303710938 60.5 150.5 55.009620666503906 158.4850311279297 52.289581298828125 C 165.94471740722656 54.5097541809082 171.5680694580078 60.01832580566406 173.447998046875 68.62520599365234" stroke-width="0.0" fill="rgb(201, 201, 202)" opacity="0.9900134"/>
    <path d="M 244.0472412109375 116.79936981201172 C 243.27964782714844 123.18925476074219 236.787353515625 128.12432861328125 230.85874938964844 130.0222930908203 C 223.4105224609375 128.04881286621094 217.8956298828125 122.6137924194336 215.94876098632812 116.56968688964844 C 217.90655517578125 109.38394165039062 223.3823699951172 103.9031753540039 230.09568786621094 101.91564178466797 C 236.60325622558594 103.91104888916016 242.07798767089844 109.40054321289062 244.0472412109375 116.79936981201172" stroke-width="0.0" fill="rgb(203, 203, 204)" opacity="0.9900038"/>
    <path d="M 165.9993133544922 254.0001678466797 C 163.9903564453125 261.5 158.5 266.9903869628906 150.99977111816406 269.0000915527344 C 143.49057006835938 266.9936218261719 137.8763885498047 261.54852294921875 135.78848266601562 254.41847229003906 C 138.22032165527344 246.59056091308594 143.527099609375 241.0201416015625 151.0009765625 239.00050354003906 C 158.49981689453125 241.0098114013672 163.9900665283203 246.50021362304688 165.9993133544922 254.0001678466797" stroke-width="0.0" fill="rgb(204, 204, 200)" opacity="0.9923615"/>
    <path d="M 150.75808715820312 91.64669036865234 C 147.60479736328125 98.9990005493164 141.9435272216797 104.38969421386719 135.7848663330078 106.08230590820312 C 128.35824584960938 104.10306549072266 122.8568115234375 98.65644836425781 120.73261260986328 91.32971954345703 C 121.7898941040039 84.22832489013672 127.21957397460938 78.7490463256836 134.91302490234375 76.91398620605469 C 142.61766052246094 78.95012664794922 148.40963745117188 84.25686645507812 150.75808715820312 91.64669036865234" stroke-width="0.0" fill="rgb(5, 5, 5)" opacity="0.99001104"/>
    <path d="M 152.0326690673828 78.9350357055664 C 151.7083282470703 86.04524993896484 145.85968017578125 91.22410583496094 137.91761779785156 93.04685974121094 C 129.81564331054688 91.48735809326172 124.08171844482422 86.34721374511719 122.0176773071289 78.89002990722656 C 125.90924072265625 71.44417572021484 131.45965576171875 65.98018646240234 138.9480438232422 63.96413040161133 C 146.16802978515625 64.23568725585938 150.0865936279297 71.12432861328125 152.0326690673828 78.9350357055664" stroke-width="0.0" fill="rgb(4, 4, 5)" opacity="0.99000317"/>
    <path d="M 62.90999984741211 152.8304901123047 C 60.92704391479492 160.42552185058594 55.436859130859375 165.94967651367188 47.72074890136719 167.98727416992188 C 38.558616638183594 165.9497833251953 33.094547271728516 160.42514038085938 31.164945602416992 152.51995849609375 C 33.11086654663086 143.57579040527344 38.55454635620117 138.04615783691406 46.34008026123047 136.0189666748047 C 55.423458099365234 138.05711364746094 60.85129928588867 143.61065673828125 62.90999984741211 152.8304901123047" stroke-width="0.0" fill="rgb(100, 100, 99)" opacity="1.0"/>
    <path d="M 238.809814453125 228.62916564941406 C 236.68299865722656 236.0922088623047 231.04745483398438 241.5648651123047 222.41519165039062 243.83851623535156 C 214.92428588867188 241.69227600097656 209.60728454589844 235.9680633544922 208.19349670410156 228.07131958007812 C 210.00961303710938 220.5 215.5 215.00961303710938 223.00013732910156 212.99990844726562 C 230.5 215.0092315673828 235.9822540283203 220.5023956298828 238.809814453125 228.62916564941406" stroke-width="0.0" fill="rgb(203, 204, 204)" opacity="0.9905184"/>
    <path d="M 197.63169860839844 188.74261474609375 C 194.35975646972656 195.8150177001953 188.771728515625 201.21571350097656 181.10536193847656 204.88539123535156 C 173.55551147460938 202.9363555908203 168.0417938232422 197.45370483398438 166.02163696289062 189.92762756347656 C 168.13134765625 180.7623748779297 174.11767578125 176.30596923828125 181.79165649414062 174.67530822753906 C 189.0143280029297 176.5546112060547 194.6453857421875 181.93048095703125 197.63169860839844 188.74261474609375" stroke-width="0.0" fill="rgb(21, 21, 20)" opacity="0.9900187"/>
    <path d="M 146.05360412597656 160.95834350585938 C 145.88365173339844 168.33010864257812 140.31240844726562 173.85458374023438 131.6608123779297 175.94178771972656 C 123.58827209472656 173.9144287109375 118.11444854736328 168.4024658203125 116.27294158935547 160.73179626464844 C 119.05925750732422 152.6168670654297 124.80308532714844 147.5399627685547 132.84866333007812 144.072265625 C 138.57781982421875 147.82925415039062 144.0255889892578 153.44851684570312 146.05360412597656 160.95834350585938" stroke-width="0.0" fill="rgb(200, 200, 201)" opacity="0.9900233"/>
    <path d="M 208.98977661132812 82.04145812988281 C 206.93186950683594 91.40950012207031 201.36473083496094 96.75438690185547 193.76683044433594 97.02890014648438 C 186.373291015625 95.090576171875 180.84536743164062 89.64704895019531 177.01914978027344 82.03620910644531 C 179.02987670898438 74.52593231201172 184.53016662597656 69.04216003417969 193.75839233398438 67.03598022460938 C 201.46975708007812 69.03884887695312 206.97149658203125 74.52605438232422 208.98977661132812 82.04145812988281" stroke-width="0.0" fill="rgb(19, 19, 19)" opacity="0.99000615"/>
    <path d="M 158.9974365234375 233.00021362304688 C 156.98977661132812 240.49957275390625 151.49961853027344 245.9899444580078 144.0001983642578 247.99783325195312 C 136.50015258789062 245.99000549316406 131.0096435546875 240.49993896484375 129.0 233.0 C 131.00962829589844 225.5000457763672 136.50010681152344 220.00987243652344 143.99984741210938 218.00213623046875 C 151.4994659423828 220.01028442382812 156.98948669433594 225.5006103515625 158.9974365234375 233.00021362304688" stroke-width="0.0" fill="rgb(203, 203, 203)" opacity="0.9980454"/>
    <path d="M 160.9193878173828 53.13414001464844 C 157.9376220703125 61.35946273803711 152.05361938476562 66.28611755371094 144.27676391601562 68.03685760498047 C 136.67953491210938 67.77949523925781 131.1988067626953 62.32407760620117 129.61953735351562 54.59638977050781 C 132.0933074951172 46.53009033203125 137.50660705566406 41.01280975341797 145.47366333007812 38.59036636352539 C 153.3357391357422 40.227874755859375 158.910888671875 45.61845397949219 160.9193878173828 53.13414001464844" stroke-width="0.0" fill="rgb(201, 201, 201)" opacity="0.99003726"/>
    <path d="M 191.81491088867188 227.8361053466797 C 189.64651489257812 235.1795196533203 184.19480895996094 240.69651794433594 176.880859375 242.88119506835938 C 169.5 240.99038696289062 164.00961303710938 235.5 161.97471618652344 227.9651641845703 C 163.8806610107422 220.3256072998047 169.27186584472656 214.7082061767578 176.83010864257812 212.76553344726562 C 184.5006866455078 215.00865173339844 189.99099731445312 220.49940490722656 191.81491088867188 227.8361053466797" stroke-width="0.0" fill="rgb(199, 200, 200)" opacity="0.99203885"/>
    <path d="M 66.18749237060547 229.11695861816406 C 64.46247863769531 237.08419799804688 59.202415466308594 242.79751586914062 51.6494255065918 244.8843994140625 C 42.92995071411133 242.6499481201172 37.62477111816406 236.98280334472656 35.913002014160156 229.12620544433594 C 38.00970458984375 221.49998474121094 43.4998664855957 216.00930786132812 51.01470184326172 213.98806762695312 C 58.57499313354492 215.9534912109375 64.12071990966797 221.4024658203125 66.18749237060547 229.11695861816406" stroke-width="0.0" fill="rgb(203, 199, 199)" opacity="0.9913381"/>
    <path d="M 230.96563720703125 63.931236267089844 C 228.96942138671875 71.47784423828125 223.47999572753906 76.9749755859375 215.8803253173828 78.99271392822266 C 206.52320861816406 76.97229766845703 201.03013610839844 71.47576141357422 199.027099609375 63.95091247558594 C 201.1005401611328 54.57481384277344 206.5594940185547 49.05366897583008 215.91357421875 47.014984130859375 C 223.46009826660156 49.037174224853516 228.9293975830078 54.551856994628906 230.96563720703125 63.931236267089844" stroke-width="0.0" fill="rgb(43, 43, 43)" opacity="1.0"/>
    <path d="M 187.85498046875 152.6835479736328 C 185.61976623535156 160.0110321044922 180.15342712402344 165.81382751464844 172.7478485107422 167.94561767578125 C 163.8050079345703 165.7151336669922 158.29490661621094 160.19369506835938 156.05255126953125 151.09063720703125 C 158.052978515625 143.55181884765625 163.5527801513672 138.0552215576172 171.08253479003906 136.05723571777344 C 178.98367309570312 139.73675537109375 185.31048583984375 144.59735107421875 187.85498046875 152.6835479736328" stroke-width="0.0" fill="rgb(120, 119, 118)" opacity="1.0"/>
    <path d="M 255.98736572265625 59.93870544433594 C 253.9653778076172 67.46178436279297 248.44863891601562 72.93102264404297 239.1082763671875 74.97077941894531 C 231.55029296875 72.95148468017578 226.07383728027344 67.44097900390625 224.03012084960938 58.06626892089844 C 226.03273010253906 50.52778625488281 231.52760314941406 45.03202438354492 239.04104614257812 43.02094268798828 C 248.38706970214844 45.165096282958984 253.94180297851562 50.576995849609375 255.98736572265625 59.93870544433594" stroke-width="0.0" fill="rgb(44, 43, 43)" opacity="0.99001133"/>
    <path d="M 49.02239990234375 37.96306228637695 C 48.87147521972656 45.34306716918945 43.33391189575195 50.8569221496582 34.11629867553711 52.97011947631836 C 26.534475326538086 50.96000289916992 21.03667449951172 45.46670913696289 19.04129409790039 37.97324752807617 C 22.985530853271484 30.471590042114258 28.472267150878906 24.987268447875977 34.085235595703125 22.992725372314453 C 41.52206802368164 24.992826461791992 47.0111083984375 30.47625160217285 49.02239990234375 37.96306228637695" stroke-width="0.0" fill="rgb(20, 20, 20)" opacity="0.9900015"/>
    <path d="M 131.02955627441406 196.32594299316406 C 129.0782928466797 203.6013641357422 123.59461212158203 209.06314086914062 117.42687225341797 211.0275115966797 C 110.3992691040039 209.05767822265625 104.79461669921875 203.64376831054688 101.10105895996094 196.16094970703125 C 103.07642364501953 188.56809997558594 108.56160736083984 183.05859375 117.63646697998047 181.0194854736328 C 125.42601776123047 183.05572509765625 130.306396484375 188.6308135986328 131.02955627441406 196.32594299316406" stroke-width="0.0" fill="rgb(86, 84, 85)" opacity="0.9900082"/>
    <path d="M 133.52615356445312 154.21188354492188 C 131.71676635742188 162.24862670898438 126.30613708496094 167.86248779296875 117.15166473388672 169.97178649902344 C 109.60478210449219 167.9284210205078 104.11527252197266 162.36839294433594 102.03740692138672 154.4456787109375 C 104.1220932006836 145.6810302734375 109.69495391845703 140.14154052734375 117.21275329589844 138.07420349121094 C 125.98697662353516 140.35772705078125 131.53282165527344 146.06036376953125 133.52615356445312 154.21188354492188" stroke-width="0.0" fill="rgb(176, 175, 175)" opacity="0.99000645"/>
    <path d="M 122.338134765625 96.38343048095703 C 119.46488189697266 104.3218994140625 114.50666809082031 109.7330093383789 106.65998077392578 111.41938781738281 C 98.85710906982422 110.39347076416016 93.12428283691406 105.29410552978516 91.10938262939453 97.80086517333984 C 93.48237609863281 89.2094955444336 99.40208435058594 83.97209930419922 107.0041275024414 81.99549102783203 C 114.61180877685547 83.95733642578125 120.43888092041016 89.24578094482422 122.338134765625 96.38343048095703" stroke-width="0.0" fill="rgb(58, 59, 57)" opacity="0.9900478"/>
    <path d="M 115.93537139892578 120.86051940917969 C 113.85447692871094 128.267333984375 108.16629791259766 133.6270751953125 100.23760223388672 135.77810668945312 C 92.43724822998047 133.25582885742188 86.92406463623047 127.49137115478516 84.09860229492188 119.24488067626953 C 86.20780181884766 111.74264526367188 91.74372100830078 106.2099609375 99.37960052490234 104.08069610595703 C 107.99661254882812 106.3023452758789 112.85552215576172 112.30995178222656 115.93537139892578 120.86051940917969" stroke-width="0.0" fill="rgb(130, 130, 130)" opacity="1.0"/>
    <path d="M 41.02195358276367 149.1187744140625 C 39.04864501953125 156.6104278564453 33.758934020996094 163.62091064453125 27.357892990112305 165.92095947265625 C 18.76618003845215 163.763916015625 13.228658676147461 158.23851013183594 11.119943618774414 149.5285186767578 C 13.180811882019043 141.73245239257812 18.782669067382812 136.3197021484375 27.284778594970703 134.17752075195312 C 33.778541564941406 137.31048583984375 39.09516525268555 143.33193969726562 41.02195358276367 149.1187744140625" stroke-width="0.0" fill="rgb(199, 199, 199)" opacity="0.9900169"/>
    <path d="M 121.80265808105469 89.119384765625 C 118.7549057006836 98.1004409790039 114.3057861328125 103.88801574707031 106.87800598144531 105.94475555419922 C 98.77801513671875 102.48418426513672 92.18555450439453 98.05587768554688 90.02031707763672 89.07633972167969 C 92.04412078857422 81.55459594726562 97.5851058959961 76.16426086425781 106.71842193603516 75.93526458740234 C 114.44235229492188 76.07430267333984 119.93878173828125 81.55424499511719 121.80265808105469 89.119384765625" stroke-width="0.0" fill="rgb(119, 117, 117)" opacity="0.99001676"/>
  </g>
</svg>
